<?xml version="1.0" encoding="UTF-8" standalone="no"?>
<!DOCTYPE svg PUBLIC "-//W3C//DTD SVG 1.1//EN"
 "http://www.w3.org/Graphics/SVG/1.1/DTD/svg11.dtd">
<!-- Generated by graphviz version 2.43.0 (0)
 -->
<!-- Title: lci::net_post_sends_x::call_impl Pages: 1 -->
<svg width="421pt" height="374pt"
 viewBox="0.00 0.00 421.00 374.00" xmlns="http://www.w3.org/2000/svg" xmlns:xlink="http://www.w3.org/1999/xlink">
<g id="graph0" class="graph" transform="scale(1 1) rotate(0) translate(4 370)">
<title>lci::net_post_sends_x::call_impl</title>
<!-- Node1 -->
<g id="Node000001" class="node">
<title>Node1</title>
<g id="a_Node000001"><a xlink:title=" ">
<polygon fill="#999999" stroke="#666666" points="110,-198 0,-198 0,-168 110,-168 110,-198"/>
<text text-anchor="start" x="8" y="-186" font-family="Helvetica,sans-Serif" font-size="10.00">lci::net_post_sends</text>
<text text-anchor="middle" x="55" y="-175" font-family="Helvetica,sans-Serif" font-size="10.00">_x::call_impl</text>
</a>
</g>
</g>
<!-- Node2 -->
<g id="Node000002" class="node">
<title>Node2</title>
<g id="a_Node000002"><a xlink:href="../../d1/d3d/classlci_1_1net__post__sends__x.html#aa9322a1f885bd34fc0a07dbf21f57402" target="_top" xlink:title=" ">
<polygon fill="white" stroke="#666666" points="256,-366 146,-366 146,-336 256,-336 256,-366"/>
<text text-anchor="start" x="154" y="-354" font-family="Helvetica,sans-Serif" font-size="10.00">lci::net_post_sends</text>
<text text-anchor="middle" x="201" y="-343" font-family="Helvetica,sans-Serif" font-size="10.00">_x::buffer</text>
</a>
</g>
</g>
<!-- Node1&#45;&gt;Node2 -->
<g id="edge1_Node000001_Node000002" class="edge">
<title>Node1&#45;&gt;Node2</title>
<g id="a_edge1_Node000001_Node000002"><a xlink:title=" ">
<path fill="none" stroke="#63b8ff" d="M61.86,-198.09C73.7,-226.79 103.04,-289.69 146,-327 147.33,-328.16 148.73,-329.27 150.17,-330.33"/>
<polygon fill="#63b8ff" stroke="#63b8ff" points="148.59,-333.47 158.9,-335.92 152.37,-327.58 148.59,-333.47"/>
</a>
</g>
</g>
<!-- Node4 -->
<g id="Node000004" class="node">
<title>Node4</title>
<g id="a_Node000004"><a xlink:href="../../d1/d3d/classlci_1_1net__post__sends__x.html#ae73a61fc90b863c6070a3f64fc9984d9" target="_top" xlink:title=" ">
<polygon fill="white" stroke="#666666" points="256,-318 146,-318 146,-288 256,-288 256,-318"/>
<text text-anchor="start" x="154" y="-306" font-family="Helvetica,sans-Serif" font-size="10.00">lci::net_post_sends</text>
<text text-anchor="middle" x="201" y="-295" font-family="Helvetica,sans-Serif" font-size="10.00">_x::device</text>
</a>
</g>
</g>
<!-- Node1&#45;&gt;Node4 -->
<g id="edge3_Node000001_Node000004" class="edge">
<title>Node1&#45;&gt;Node4</title>
<g id="a_edge3_Node000001_Node000004"><a xlink:title=" ">
<path fill="none" stroke="#63b8ff" d="M67.01,-198.09C82.63,-218.65 113.04,-255.57 146,-279 147.87,-280.33 149.82,-281.61 151.83,-282.84"/>
<polygon fill="#63b8ff" stroke="#63b8ff" points="150.47,-286.08 160.91,-287.89 153.88,-279.97 150.47,-286.08"/>
</a>
</g>
</g>
<!-- Node5 -->
<g id="Node000005" class="node">
<title>Node5</title>
<g id="a_Node000005"><a xlink:href="../../d1/d3d/classlci_1_1net__post__sends__x.html#a3d933ffdfba399bf41fef2fa2877ebde" target="_top" xlink:title=" ">
<polygon fill="white" stroke="#666666" points="256,-270 146,-270 146,-240 256,-240 256,-270"/>
<text text-anchor="start" x="154" y="-258" font-family="Helvetica,sans-Serif" font-size="10.00">lci::net_post_sends</text>
<text text-anchor="middle" x="201" y="-247" font-family="Helvetica,sans-Serif" font-size="10.00">_x::endpoint</text>
</a>
</g>
</g>
<!-- Node1&#45;&gt;Node5 -->
<g id="edge5_Node000001_Node000005" class="edge">
<title>Node1&#45;&gt;Node5</title>
<g id="a_edge5_Node000001_Node000005"><a xlink:title=" ">
<path fill="none" stroke="#63b8ff" d="M82.91,-198.01C100.66,-207.74 124.52,-220.51 146,-231 149.14,-232.53 152.4,-234.08 155.69,-235.61"/>
<polygon fill="#63b8ff" stroke="#63b8ff" points="154.42,-238.89 164.97,-239.87 157.34,-232.52 154.42,-238.89"/>
</a>
</g>
</g>
<!-- Node6 -->
<g id="Node000006" class="node">
<title>Node6</title>
<g id="a_Node000006"><a xlink:href="../../d1/d3d/classlci_1_1net__post__sends__x.html#a20055e2fb95dae53a7b073e64b82a3b8" target="_top" xlink:title=" ">
<polygon fill="white" stroke="#666666" points="256,-222 146,-222 146,-192 256,-192 256,-222"/>
<text text-anchor="start" x="154" y="-210" font-family="Helvetica,sans-Serif" font-size="10.00">lci::net_post_sends</text>
<text text-anchor="middle" x="201" y="-199" font-family="Helvetica,sans-Serif" font-size="10.00">_x::imm_data</text>
</a>
</g>
</g>
<!-- Node1&#45;&gt;Node6 -->
<g id="edge7_Node000001_Node000006" class="edge">
<title>Node1&#45;&gt;Node6</title>
<g id="a_edge7_Node000001_Node000006"><a xlink:title=" ">
<path fill="none" stroke="#63b8ff" d="M110.03,-192C118.4,-193.4 127.13,-194.85 135.7,-196.28"/>
<polygon fill="#63b8ff" stroke="#63b8ff" points="135.23,-199.75 145.67,-197.94 136.38,-192.85 135.23,-199.75"/>
</a>
</g>
</g>
<!-- Node7 -->
<g id="Node000007" class="node">
<title>Node7</title>
<g id="a_Node000007"><a xlink:href="../../d1/d3d/classlci_1_1net__post__sends__x.html#a6bf93fd502e07d13ee845942957714ce" target="_top" xlink:title=" ">
<polygon fill="white" stroke="#666666" points="256,-174 146,-174 146,-144 256,-144 256,-174"/>
<text text-anchor="start" x="154" y="-162" font-family="Helvetica,sans-Serif" font-size="10.00">lci::net_post_sends</text>
<text text-anchor="middle" x="201" y="-151" font-family="Helvetica,sans-Serif" font-size="10.00">_x::rank</text>
</a>
</g>
</g>
<!-- Node1&#45;&gt;Node7 -->
<g id="edge9_Node000001_Node000007" class="edge">
<title>Node1&#45;&gt;Node7</title>
<g id="a_edge9_Node000001_Node000007"><a xlink:title=" ">
<path fill="none" stroke="#63b8ff" d="M110.03,-174C118.4,-172.6 127.13,-171.15 135.7,-169.72"/>
<polygon fill="#63b8ff" stroke="#63b8ff" points="136.38,-173.15 145.67,-168.06 135.23,-166.25 136.38,-173.15"/>
</a>
</g>
</g>
<!-- Node8 -->
<g id="Node000008" class="node">
<title>Node8</title>
<g id="a_Node000008"><a xlink:href="../../d1/d3d/classlci_1_1net__post__sends__x.html#a57897b3459e48fd421a98b7b830a3071" target="_top" xlink:title=" ">
<polygon fill="white" stroke="#666666" points="256,-126 146,-126 146,-96 256,-96 256,-126"/>
<text text-anchor="start" x="154" y="-114" font-family="Helvetica,sans-Serif" font-size="10.00">lci::net_post_sends</text>
<text text-anchor="middle" x="201" y="-103" font-family="Helvetica,sans-Serif" font-size="10.00">_x::runtime</text>
</a>
</g>
</g>
<!-- Node1&#45;&gt;Node8 -->
<g id="edge11_Node000001_Node000008" class="edge">
<title>Node1&#45;&gt;Node8</title>
<g id="a_edge11_Node000001_Node000008"><a xlink:title=" ">
<path fill="none" stroke="#63b8ff" d="M82.91,-167.99C100.66,-158.26 124.52,-145.49 146,-135 149.14,-133.47 152.4,-131.92 155.69,-130.39"/>
<polygon fill="#63b8ff" stroke="#63b8ff" points="157.34,-133.48 164.97,-126.13 154.42,-127.11 157.34,-133.48"/>
</a>
</g>
</g>
<!-- Node9 -->
<g id="Node000009" class="node">
<title>Node9</title>
<g id="a_Node000009"><a xlink:href="../../d1/d3d/classlci_1_1net__post__sends__x.html#a27826391e036fa8b74cd601331ac0ba7" target="_top" xlink:title=" ">
<polygon fill="white" stroke="#666666" points="256,-78 146,-78 146,-48 256,-48 256,-78"/>
<text text-anchor="start" x="154" y="-66" font-family="Helvetica,sans-Serif" font-size="10.00">lci::net_post_sends</text>
<text text-anchor="middle" x="201" y="-55" font-family="Helvetica,sans-Serif" font-size="10.00">_x::size</text>
</a>
</g>
</g>
<!-- Node1&#45;&gt;Node9 -->
<g id="edge13_Node000001_Node000009" class="edge">
<title>Node1&#45;&gt;Node9</title>
<g id="a_edge13_Node000001_Node000009"><a xlink:title=" ">
<path fill="none" stroke="#63b8ff" d="M67.01,-167.91C82.63,-147.35 113.04,-110.43 146,-87 147.87,-85.67 149.82,-84.39 151.83,-83.16"/>
<polygon fill="#63b8ff" stroke="#63b8ff" points="153.88,-86.03 160.91,-78.11 150.47,-79.92 153.88,-86.03"/>
</a>
</g>
</g>
<!-- Node10 -->
<g id="Node000010" class="node">
<title>Node10</title>
<g id="a_Node000010"><a xlink:href="../../d1/d3d/classlci_1_1net__post__sends__x.html#a85551f8018c5479a5e3731ae49ec5306" target="_top" xlink:title=" ">
<polygon fill="white" stroke="#666666" points="256,-30 146,-30 146,0 256,0 256,-30"/>
<text text-anchor="start" x="154" y="-18" font-family="Helvetica,sans-Serif" font-size="10.00">lci::net_post_sends</text>
<text text-anchor="middle" x="201" y="-7" font-family="Helvetica,sans-Serif" font-size="10.00">_x::user_context</text>
</a>
</g>
</g>
<!-- Node1&#45;&gt;Node10 -->
<g id="edge15_Node000001_Node000010" class="edge">
<title>Node1&#45;&gt;Node10</title>
<g id="a_edge15_Node000001_Node000010"><a xlink:title=" ">
<path fill="none" stroke="#63b8ff" d="M61.86,-167.91C73.7,-139.21 103.04,-76.31 146,-39 147.33,-37.84 148.73,-36.73 150.17,-35.67"/>
<polygon fill="#63b8ff" stroke="#63b8ff" points="152.37,-38.42 158.9,-30.08 148.59,-32.53 152.37,-38.42"/>
</a>
</g>
</g>
<!-- Node3 -->
<g id="Node000003" class="node">
<title>Node3</title>
<g id="a_Node000003"><a xlink:href="../../d1/d3d/classlci_1_1net__post__sends__x.html#a65ac3d2f92cb4258de0946770899e8be" target="_top" xlink:title=" ">
<polygon fill="white" stroke="#666666" points="413,-198 292,-198 292,-168 413,-168 413,-198"/>
<text text-anchor="start" x="300" y="-186" font-family="Helvetica,sans-Serif" font-size="10.00">lci::net_post_sends</text>
<text text-anchor="middle" x="352.5" y="-175" font-family="Helvetica,sans-Serif" font-size="10.00">_x::net_post_sends_x</text>
</a>
</g>
</g>
<!-- Node2&#45;&gt;Node3 -->
<g id="edge2_Node000002_Node000003" class="edge">
<title>Node2&#45;&gt;Node3</title>
<g id="a_edge2_Node000002_Node000003"><a xlink:title=" ">
<path fill="none" stroke="#63b8ff" d="M242.74,-335.98C247.46,-333.36 252,-330.38 256,-327 295.9,-293.28 325.71,-238.79 340.69,-207.4"/>
<polygon fill="#63b8ff" stroke="#63b8ff" points="343.99,-208.62 345.03,-198.08 337.64,-205.67 343.99,-208.62"/>
</a>
</g>
</g>
<!-- Node4&#45;&gt;Node3 -->
<g id="edge4_Node000004_Node000003" class="edge">
<title>Node4&#45;&gt;Node3</title>
<g id="a_edge4_Node000004_Node000003"><a xlink:title=" ">
<path fill="none" stroke="#63b8ff" d="M240.71,-287.91C246.02,-285.24 251.27,-282.26 256,-279 286.25,-258.16 315.15,-227 333.08,-205.87"/>
<polygon fill="#63b8ff" stroke="#63b8ff" points="335.9,-207.96 339.62,-198.04 330.53,-203.48 335.9,-207.96"/>
</a>
</g>
</g>
<!-- Node5&#45;&gt;Node3 -->
<g id="edge6_Node000005_Node000003" class="edge">
<title>Node5&#45;&gt;Node3</title>
<g id="a_edge6_Node000005_Node000003"><a xlink:title=" ">
<path fill="none" stroke="#63b8ff" d="M236.68,-239.88C243.13,-236.99 249.79,-233.94 256,-231 274.96,-222.03 295.8,-211.62 313.17,-202.79"/>
<polygon fill="#63b8ff" stroke="#63b8ff" points="315.1,-205.73 322.42,-198.07 311.92,-199.5 315.1,-205.73"/>
</a>
</g>
</g>
<!-- Node6&#45;&gt;Node3 -->
<g id="edge8_Node000006_Node000003" class="edge">
<title>Node6&#45;&gt;Node3</title>
<g id="a_edge8_Node000006_Node000003"><a xlink:title=" ">
<path fill="none" stroke="#63b8ff" d="M256.4,-198.27C264.68,-196.94 273.32,-195.55 281.87,-194.18"/>
<polygon fill="#63b8ff" stroke="#63b8ff" points="282.52,-197.62 291.84,-192.58 281.41,-190.71 282.52,-197.62"/>
</a>
</g>
</g>
<!-- Node7&#45;&gt;Node3 -->
<g id="edge10_Node000007_Node000003" class="edge">
<title>Node7&#45;&gt;Node3</title>
<g id="a_edge10_Node000007_Node000003"><a xlink:title=" ">
<path fill="none" stroke="#63b8ff" d="M256.4,-167.73C264.68,-169.06 273.32,-170.45 281.87,-171.82"/>
<polygon fill="#63b8ff" stroke="#63b8ff" points="281.41,-175.29 291.84,-173.42 282.52,-168.38 281.41,-175.29"/>
</a>
</g>
</g>
<!-- Node8&#45;&gt;Node3 -->
<g id="edge12_Node000008_Node000003" class="edge">
<title>Node8&#45;&gt;Node3</title>
<g id="a_edge12_Node000008_Node000003"><a xlink:title=" ">
<path fill="none" stroke="#63b8ff" d="M236.68,-126.12C243.13,-129.01 249.79,-132.06 256,-135 274.96,-143.97 295.8,-154.38 313.17,-163.21"/>
<polygon fill="#63b8ff" stroke="#63b8ff" points="311.92,-166.5 322.42,-167.93 315.1,-160.27 311.92,-166.5"/>
</a>
</g>
</g>
<!-- Node9&#45;&gt;Node3 -->
<g id="edge14_Node000009_Node000003" class="edge">
<title>Node9&#45;&gt;Node3</title>
<g id="a_edge14_Node000009_Node000003"><a xlink:title=" ">
<path fill="none" stroke="#63b8ff" d="M240.71,-78.09C246.02,-80.76 251.27,-83.74 256,-87 286.25,-107.84 315.15,-139 333.08,-160.13"/>
<polygon fill="#63b8ff" stroke="#63b8ff" points="330.53,-162.52 339.62,-167.96 335.9,-158.04 330.53,-162.52"/>
</a>
</g>
</g>
<!-- Node10&#45;&gt;Node3 -->
<g id="edge16_Node000010_Node000003" class="edge">
<title>Node10&#45;&gt;Node3</title>
<g id="a_edge16_Node000010_Node000003"><a xlink:title=" ">
<path fill="none" stroke="#63b8ff" d="M242.74,-30.02C247.46,-32.64 252,-35.62 256,-39 295.9,-72.72 325.71,-127.21 340.69,-158.6"/>
<polygon fill="#63b8ff" stroke="#63b8ff" points="337.64,-160.33 345.03,-167.92 343.99,-157.38 337.64,-160.33"/>
</a>
</g>
</g>
</g>
</svg>
