<?xml version="1.0" encoding="UTF-8" standalone="no"?>
<!DOCTYPE svg PUBLIC "-//W3C//DTD SVG 1.1//EN"
 "http://www.w3.org/Graphics/SVG/1.1/DTD/svg11.dtd">
<!-- Generated by graphviz version 2.43.0 (0)
 -->
<!-- Title: lci::net_post_sends_x::call Pages: 1 -->
<svg width="567pt" height="374pt"
 viewBox="0.00 0.00 567.00 374.00" xmlns="http://www.w3.org/2000/svg" xmlns:xlink="http://www.w3.org/1999/xlink">
<g id="graph0" class="graph" transform="scale(1 1) rotate(0) translate(4 370)">
<title>lci::net_post_sends_x::call</title>
<!-- Node1 -->
<g id="Node000001" class="node">
<title>Node1</title>
<g id="a_Node000001"><a xlink:title=" ">
<polygon fill="#999999" stroke="#666666" points="110,-198 0,-198 0,-168 110,-168 110,-198"/>
<text text-anchor="start" x="8" y="-186" font-family="Helvetica,sans-Serif" font-size="10.00">lci::net_post_sends</text>
<text text-anchor="middle" x="55" y="-175" font-family="Helvetica,sans-Serif" font-size="10.00">_x::call</text>
</a>
</g>
</g>
<!-- Node2 -->
<g id="Node000002" class="node">
<title>Node2</title>
<g id="a_Node000002"><a xlink:href="../../d1/d3d/classlci_1_1net__post__sends__x.html#aa9322a1f885bd34fc0a07dbf21f57402" target="_top" xlink:title=" ">
<polygon fill="white" stroke="#666666" points="402,-366 292,-366 292,-336 402,-336 402,-366"/>
<text text-anchor="start" x="300" y="-354" font-family="Helvetica,sans-Serif" font-size="10.00">lci::net_post_sends</text>
<text text-anchor="middle" x="347" y="-343" font-family="Helvetica,sans-Serif" font-size="10.00">_x::buffer</text>
</a>
</g>
</g>
<!-- Node1&#45;&gt;Node2 -->
<g id="edge1_Node000001_Node000002" class="edge">
<title>Node1&#45;&gt;Node2</title>
<g id="a_edge1_Node000001_Node000002"><a xlink:title=" ">
<path fill="none" stroke="#63b8ff" d="M66.46,-198.27C81.67,-219.41 111.84,-257.52 146,-280 187.52,-307.32 240.8,-325.56 281.93,-336.7"/>
<polygon fill="#63b8ff" stroke="#63b8ff" points="281.28,-340.15 291.85,-339.32 283.07,-333.38 281.28,-340.15"/>
</a>
</g>
</g>
<!-- Node4 -->
<g id="Node000004" class="node">
<title>Node4</title>
<g id="a_Node000004"><a xlink:href="../../d1/d3d/classlci_1_1net__post__sends__x.html#a4bf1a4bd7ab283455ea45a0febef91fb" target="_top" xlink:title=" ">
<polygon fill="white" stroke="#666666" points="256,-198 146,-198 146,-168 256,-168 256,-198"/>
<text text-anchor="start" x="154" y="-186" font-family="Helvetica,sans-Serif" font-size="10.00">lci::net_post_sends</text>
<text text-anchor="middle" x="201" y="-175" font-family="Helvetica,sans-Serif" font-size="10.00">_x::call_impl</text>
</a>
</g>
</g>
<!-- Node1&#45;&gt;Node4 -->
<g id="edge3_Node000001_Node000004" class="edge">
<title>Node1&#45;&gt;Node4</title>
<g id="a_edge3_Node000001_Node000004"><a xlink:title=" ">
<path fill="none" stroke="#63b8ff" d="M110.03,-183C118.31,-183 126.94,-183 135.42,-183"/>
<polygon fill="#63b8ff" stroke="#63b8ff" points="135.67,-186.5 145.67,-183 135.67,-179.5 135.67,-186.5"/>
</a>
</g>
</g>
<!-- Node5 -->
<g id="Node000005" class="node">
<title>Node5</title>
<g id="a_Node000005"><a xlink:href="../../d1/d3d/classlci_1_1net__post__sends__x.html#ae73a61fc90b863c6070a3f64fc9984d9" target="_top" xlink:title=" ">
<polygon fill="white" stroke="#666666" points="402,-318 292,-318 292,-288 402,-288 402,-318"/>
<text text-anchor="start" x="300" y="-306" font-family="Helvetica,sans-Serif" font-size="10.00">lci::net_post_sends</text>
<text text-anchor="middle" x="347" y="-295" font-family="Helvetica,sans-Serif" font-size="10.00">_x::device</text>
</a>
</g>
</g>
<!-- Node1&#45;&gt;Node5 -->
<g id="edge19_Node000001_Node000005" class="edge">
<title>Node1&#45;&gt;Node5</title>
<g id="a_edge19_Node000001_Node000005"><a xlink:title=" ">
<path fill="none" stroke="#63b8ff" d="M73.07,-198.22C90.34,-212.89 118.36,-234.76 146,-248 189.26,-268.73 241.65,-282.78 281.96,-291.49"/>
<polygon fill="#63b8ff" stroke="#63b8ff" points="281.43,-294.95 291.93,-293.59 282.87,-288.1 281.43,-294.95"/>
</a>
</g>
</g>
<!-- Node6 -->
<g id="Node000006" class="node">
<title>Node6</title>
<g id="a_Node000006"><a xlink:href="../../d1/d3d/classlci_1_1net__post__sends__x.html#a3d933ffdfba399bf41fef2fa2877ebde" target="_top" xlink:title=" ">
<polygon fill="white" stroke="#666666" points="402,-270 292,-270 292,-240 402,-240 402,-270"/>
<text text-anchor="start" x="300" y="-258" font-family="Helvetica,sans-Serif" font-size="10.00">lci::net_post_sends</text>
<text text-anchor="middle" x="347" y="-247" font-family="Helvetica,sans-Serif" font-size="10.00">_x::endpoint</text>
</a>
</g>
</g>
<!-- Node1&#45;&gt;Node6 -->
<g id="edge20_Node000001_Node000006" class="edge">
<title>Node1&#45;&gt;Node6</title>
<g id="a_edge20_Node000001_Node000006"><a xlink:title=" ">
<path fill="none" stroke="#63b8ff" d="M84.86,-198.13C102.17,-206.62 124.85,-216.73 146,-223 190.35,-236.16 241.93,-244.24 281.6,-248.99"/>
<polygon fill="#63b8ff" stroke="#63b8ff" points="281.34,-252.49 291.68,-250.16 282.14,-245.53 281.34,-252.49"/>
</a>
</g>
</g>
<!-- Node7 -->
<g id="Node000007" class="node">
<title>Node7</title>
<g id="a_Node000007"><a xlink:href="../../d1/d3d/classlci_1_1net__post__sends__x.html#a20055e2fb95dae53a7b073e64b82a3b8" target="_top" xlink:title=" ">
<polygon fill="white" stroke="#666666" points="402,-222 292,-222 292,-192 402,-192 402,-222"/>
<text text-anchor="start" x="300" y="-210" font-family="Helvetica,sans-Serif" font-size="10.00">lci::net_post_sends</text>
<text text-anchor="middle" x="347" y="-199" font-family="Helvetica,sans-Serif" font-size="10.00">_x::imm_data</text>
</a>
</g>
</g>
<!-- Node1&#45;&gt;Node7 -->
<g id="edge21_Node000001_Node000007" class="edge">
<title>Node1&#45;&gt;Node7</title>
<g id="a_edge21_Node000001_Node000007"><a xlink:title=" ">
<path fill="none" stroke="#63b8ff" d="M103.18,-198.05C116.85,-201.74 131.89,-205.15 146,-207 191.13,-212.91 242.48,-212.77 281.85,-211.22"/>
<polygon fill="#63b8ff" stroke="#63b8ff" points="282.01,-214.72 291.85,-210.79 281.71,-207.73 282.01,-214.72"/>
</a>
</g>
</g>
<!-- Node8 -->
<g id="Node000008" class="node">
<title>Node8</title>
<g id="a_Node000008"><a xlink:href="../../d1/d3d/classlci_1_1net__post__sends__x.html#a6bf93fd502e07d13ee845942957714ce" target="_top" xlink:title=" ">
<polygon fill="white" stroke="#666666" points="402,-174 292,-174 292,-144 402,-144 402,-174"/>
<text text-anchor="start" x="300" y="-162" font-family="Helvetica,sans-Serif" font-size="10.00">lci::net_post_sends</text>
<text text-anchor="middle" x="347" y="-151" font-family="Helvetica,sans-Serif" font-size="10.00">_x::rank</text>
</a>
</g>
</g>
<!-- Node1&#45;&gt;Node8 -->
<g id="edge22_Node000001_Node000008" class="edge">
<title>Node1&#45;&gt;Node8</title>
<g id="a_edge22_Node000001_Node000008"><a xlink:title=" ">
<path fill="none" stroke="#63b8ff" d="M103.18,-167.95C116.85,-164.26 131.89,-160.85 146,-159 191.13,-153.09 242.48,-153.23 281.85,-154.78"/>
<polygon fill="#63b8ff" stroke="#63b8ff" points="281.71,-158.27 291.85,-155.21 282.01,-151.28 281.71,-158.27"/>
</a>
</g>
</g>
<!-- Node9 -->
<g id="Node000009" class="node">
<title>Node9</title>
<g id="a_Node000009"><a xlink:href="../../d1/d3d/classlci_1_1net__post__sends__x.html#a57897b3459e48fd421a98b7b830a3071" target="_top" xlink:title=" ">
<polygon fill="white" stroke="#666666" points="402,-126 292,-126 292,-96 402,-96 402,-126"/>
<text text-anchor="start" x="300" y="-114" font-family="Helvetica,sans-Serif" font-size="10.00">lci::net_post_sends</text>
<text text-anchor="middle" x="347" y="-103" font-family="Helvetica,sans-Serif" font-size="10.00">_x::runtime</text>
</a>
</g>
</g>
<!-- Node1&#45;&gt;Node9 -->
<g id="edge23_Node000001_Node000009" class="edge">
<title>Node1&#45;&gt;Node9</title>
<g id="a_edge23_Node000001_Node000009"><a xlink:title=" ">
<path fill="none" stroke="#63b8ff" d="M91.44,-167.99C107.82,-161.47 127.67,-154.16 146,-149 190.75,-136.4 242.32,-126.71 281.89,-120.28"/>
<polygon fill="#63b8ff" stroke="#63b8ff" points="282.61,-123.7 291.93,-118.67 281.51,-116.79 282.61,-123.7"/>
</a>
</g>
</g>
<!-- Node10 -->
<g id="Node000010" class="node">
<title>Node10</title>
<g id="a_Node000010"><a xlink:href="../../d1/d3d/classlci_1_1net__post__sends__x.html#a27826391e036fa8b74cd601331ac0ba7" target="_top" xlink:title=" ">
<polygon fill="white" stroke="#666666" points="402,-78 292,-78 292,-48 402,-48 402,-78"/>
<text text-anchor="start" x="300" y="-66" font-family="Helvetica,sans-Serif" font-size="10.00">lci::net_post_sends</text>
<text text-anchor="middle" x="347" y="-55" font-family="Helvetica,sans-Serif" font-size="10.00">_x::size</text>
</a>
</g>
</g>
<!-- Node1&#45;&gt;Node10 -->
<g id="edge24_Node000001_Node000010" class="edge">
<title>Node1&#45;&gt;Node10</title>
<g id="a_edge24_Node000001_Node000010"><a xlink:title=" ">
<path fill="none" stroke="#63b8ff" d="M74.23,-167.81C91.69,-153.93 119.25,-133.68 146,-121 189.37,-100.44 241.54,-85.61 281.72,-76.09"/>
<polygon fill="#63b8ff" stroke="#63b8ff" points="282.71,-79.45 291.66,-73.78 281.13,-72.63 282.71,-79.45"/>
</a>
</g>
</g>
<!-- Node11 -->
<g id="Node000011" class="node">
<title>Node11</title>
<g id="a_Node000011"><a xlink:href="../../d1/d3d/classlci_1_1net__post__sends__x.html#a85551f8018c5479a5e3731ae49ec5306" target="_top" xlink:title=" ">
<polygon fill="white" stroke="#666666" points="402,-30 292,-30 292,0 402,0 402,-30"/>
<text text-anchor="start" x="300" y="-18" font-family="Helvetica,sans-Serif" font-size="10.00">lci::net_post_sends</text>
<text text-anchor="middle" x="347" y="-7" font-family="Helvetica,sans-Serif" font-size="10.00">_x::user_context</text>
</a>
</g>
</g>
<!-- Node1&#45;&gt;Node11 -->
<g id="edge25_Node000001_Node000011" class="edge">
<title>Node1&#45;&gt;Node11</title>
<g id="a_edge25_Node000001_Node000011"><a xlink:title=" ">
<path fill="none" stroke="#63b8ff" d="M65.12,-167.96C79.55,-145.41 109.73,-102.95 146,-79 187.17,-51.81 240.71,-35.48 282.03,-26.13"/>
<polygon fill="#63b8ff" stroke="#63b8ff" points="282.97,-29.51 291.99,-23.96 281.48,-22.67 282.97,-29.51"/>
</a>
</g>
</g>
<!-- Node3 -->
<g id="Node000003" class="node">
<title>Node3</title>
<g id="a_Node000003"><a xlink:href="../../d1/d3d/classlci_1_1net__post__sends__x.html#a65ac3d2f92cb4258de0946770899e8be" target="_top" xlink:title=" ">
<polygon fill="white" stroke="#666666" points="559,-198 438,-198 438,-168 559,-168 559,-198"/>
<text text-anchor="start" x="446" y="-186" font-family="Helvetica,sans-Serif" font-size="10.00">lci::net_post_sends</text>
<text text-anchor="middle" x="498.5" y="-175" font-family="Helvetica,sans-Serif" font-size="10.00">_x::net_post_sends_x</text>
</a>
</g>
</g>
<!-- Node2&#45;&gt;Node3 -->
<g id="edge2_Node000002_Node000003" class="edge">
<title>Node2&#45;&gt;Node3</title>
<g id="a_edge2_Node000002_Node000003"><a xlink:title=" ">
<path fill="none" stroke="#63b8ff" d="M388.74,-335.98C393.46,-333.36 398,-330.38 402,-327 441.9,-293.28 471.71,-238.79 486.69,-207.4"/>
<polygon fill="#63b8ff" stroke="#63b8ff" points="489.99,-208.62 491.03,-198.08 483.64,-205.67 489.99,-208.62"/>
</a>
</g>
</g>
<!-- Node4&#45;&gt;Node2 -->
<g id="edge4_Node000004_Node000002" class="edge">
<title>Node4&#45;&gt;Node2</title>
<g id="a_edge4_Node000004_Node000002"><a xlink:title=" ">
<path fill="none" stroke="#63b8ff" d="M207.86,-198.09C219.7,-226.79 249.04,-289.69 292,-327 293.33,-328.16 294.73,-329.27 296.17,-330.33"/>
<polygon fill="#63b8ff" stroke="#63b8ff" points="294.59,-333.47 304.9,-335.92 298.37,-327.58 294.59,-333.47"/>
</a>
</g>
</g>
<!-- Node4&#45;&gt;Node5 -->
<g id="edge5_Node000004_Node000005" class="edge">
<title>Node4&#45;&gt;Node5</title>
<g id="a_edge5_Node000004_Node000005"><a xlink:title=" ">
<path fill="none" stroke="#63b8ff" d="M213.01,-198.09C228.63,-218.65 259.04,-255.57 292,-279 293.87,-280.33 295.82,-281.61 297.83,-282.84"/>
<polygon fill="#63b8ff" stroke="#63b8ff" points="296.47,-286.08 306.91,-287.89 299.88,-279.97 296.47,-286.08"/>
</a>
</g>
</g>
<!-- Node4&#45;&gt;Node6 -->
<g id="edge7_Node000004_Node000006" class="edge">
<title>Node4&#45;&gt;Node6</title>
<g id="a_edge7_Node000004_Node000006"><a xlink:title=" ">
<path fill="none" stroke="#63b8ff" d="M228.91,-198.01C246.66,-207.74 270.52,-220.51 292,-231 295.14,-232.53 298.4,-234.08 301.69,-235.61"/>
<polygon fill="#63b8ff" stroke="#63b8ff" points="300.42,-238.89 310.97,-239.87 303.34,-232.52 300.42,-238.89"/>
</a>
</g>
</g>
<!-- Node4&#45;&gt;Node7 -->
<g id="edge9_Node000004_Node000007" class="edge">
<title>Node4&#45;&gt;Node7</title>
<g id="a_edge9_Node000004_Node000007"><a xlink:title=" ">
<path fill="none" stroke="#63b8ff" d="M256.03,-192C264.4,-193.4 273.13,-194.85 281.7,-196.28"/>
<polygon fill="#63b8ff" stroke="#63b8ff" points="281.23,-199.75 291.67,-197.94 282.38,-192.85 281.23,-199.75"/>
</a>
</g>
</g>
<!-- Node4&#45;&gt;Node8 -->
<g id="edge11_Node000004_Node000008" class="edge">
<title>Node4&#45;&gt;Node8</title>
<g id="a_edge11_Node000004_Node000008"><a xlink:title=" ">
<path fill="none" stroke="#63b8ff" d="M256.03,-174C264.4,-172.6 273.13,-171.15 281.7,-169.72"/>
<polygon fill="#63b8ff" stroke="#63b8ff" points="282.38,-173.15 291.67,-168.06 281.23,-166.25 282.38,-173.15"/>
</a>
</g>
</g>
<!-- Node4&#45;&gt;Node9 -->
<g id="edge13_Node000004_Node000009" class="edge">
<title>Node4&#45;&gt;Node9</title>
<g id="a_edge13_Node000004_Node000009"><a xlink:title=" ">
<path fill="none" stroke="#63b8ff" d="M228.91,-167.99C246.66,-158.26 270.52,-145.49 292,-135 295.14,-133.47 298.4,-131.92 301.69,-130.39"/>
<polygon fill="#63b8ff" stroke="#63b8ff" points="303.34,-133.48 310.97,-126.13 300.42,-127.11 303.34,-133.48"/>
</a>
</g>
</g>
<!-- Node4&#45;&gt;Node10 -->
<g id="edge15_Node000004_Node000010" class="edge">
<title>Node4&#45;&gt;Node10</title>
<g id="a_edge15_Node000004_Node000010"><a xlink:title=" ">
<path fill="none" stroke="#63b8ff" d="M213.01,-167.91C228.63,-147.35 259.04,-110.43 292,-87 293.87,-85.67 295.82,-84.39 297.83,-83.16"/>
<polygon fill="#63b8ff" stroke="#63b8ff" points="299.88,-86.03 306.91,-78.11 296.47,-79.92 299.88,-86.03"/>
</a>
</g>
</g>
<!-- Node4&#45;&gt;Node11 -->
<g id="edge17_Node000004_Node000011" class="edge">
<title>Node4&#45;&gt;Node11</title>
<g id="a_edge17_Node000004_Node000011"><a xlink:title=" ">
<path fill="none" stroke="#63b8ff" d="M207.86,-167.91C219.7,-139.21 249.04,-76.31 292,-39 293.33,-37.84 294.73,-36.73 296.17,-35.67"/>
<polygon fill="#63b8ff" stroke="#63b8ff" points="298.37,-38.42 304.9,-30.08 294.59,-32.53 298.37,-38.42"/>
</a>
</g>
</g>
<!-- Node5&#45;&gt;Node3 -->
<g id="edge6_Node000005_Node000003" class="edge">
<title>Node5&#45;&gt;Node3</title>
<g id="a_edge6_Node000005_Node000003"><a xlink:title=" ">
<path fill="none" stroke="#63b8ff" d="M386.71,-287.91C392.02,-285.24 397.27,-282.26 402,-279 432.25,-258.16 461.15,-227 479.08,-205.87"/>
<polygon fill="#63b8ff" stroke="#63b8ff" points="481.9,-207.96 485.62,-198.04 476.53,-203.48 481.9,-207.96"/>
</a>
</g>
</g>
<!-- Node6&#45;&gt;Node3 -->
<g id="edge8_Node000006_Node000003" class="edge">
<title>Node6&#45;&gt;Node3</title>
<g id="a_edge8_Node000006_Node000003"><a xlink:title=" ">
<path fill="none" stroke="#63b8ff" d="M382.68,-239.88C389.13,-236.99 395.79,-233.94 402,-231 420.96,-222.03 441.8,-211.62 459.17,-202.79"/>
<polygon fill="#63b8ff" stroke="#63b8ff" points="461.1,-205.73 468.42,-198.07 457.92,-199.5 461.1,-205.73"/>
</a>
</g>
</g>
<!-- Node7&#45;&gt;Node3 -->
<g id="edge10_Node000007_Node000003" class="edge">
<title>Node7&#45;&gt;Node3</title>
<g id="a_edge10_Node000007_Node000003"><a xlink:title=" ">
<path fill="none" stroke="#63b8ff" d="M402.4,-198.27C410.68,-196.94 419.32,-195.55 427.87,-194.18"/>
<polygon fill="#63b8ff" stroke="#63b8ff" points="428.52,-197.62 437.84,-192.58 427.41,-190.71 428.52,-197.62"/>
</a>
</g>
</g>
<!-- Node8&#45;&gt;Node3 -->
<g id="edge12_Node000008_Node000003" class="edge">
<title>Node8&#45;&gt;Node3</title>
<g id="a_edge12_Node000008_Node000003"><a xlink:title=" ">
<path fill="none" stroke="#63b8ff" d="M402.4,-167.73C410.68,-169.06 419.32,-170.45 427.87,-171.82"/>
<polygon fill="#63b8ff" stroke="#63b8ff" points="427.41,-175.29 437.84,-173.42 428.52,-168.38 427.41,-175.29"/>
</a>
</g>
</g>
<!-- Node9&#45;&gt;Node3 -->
<g id="edge14_Node000009_Node000003" class="edge">
<title>Node9&#45;&gt;Node3</title>
<g id="a_edge14_Node000009_Node000003"><a xlink:title=" ">
<path fill="none" stroke="#63b8ff" d="M382.68,-126.12C389.13,-129.01 395.79,-132.06 402,-135 420.96,-143.97 441.8,-154.38 459.17,-163.21"/>
<polygon fill="#63b8ff" stroke="#63b8ff" points="457.92,-166.5 468.42,-167.93 461.1,-160.27 457.92,-166.5"/>
</a>
</g>
</g>
<!-- Node10&#45;&gt;Node3 -->
<g id="edge16_Node000010_Node000003" class="edge">
<title>Node10&#45;&gt;Node3</title>
<g id="a_edge16_Node000010_Node000003"><a xlink:title=" ">
<path fill="none" stroke="#63b8ff" d="M386.71,-78.09C392.02,-80.76 397.27,-83.74 402,-87 432.25,-107.84 461.15,-139 479.08,-160.13"/>
<polygon fill="#63b8ff" stroke="#63b8ff" points="476.53,-162.52 485.62,-167.96 481.9,-158.04 476.53,-162.52"/>
</a>
</g>
</g>
<!-- Node11&#45;&gt;Node3 -->
<g id="edge18_Node000011_Node000003" class="edge">
<title>Node11&#45;&gt;Node3</title>
<g id="a_edge18_Node000011_Node000003"><a xlink:title=" ">
<path fill="none" stroke="#63b8ff" d="M388.74,-30.02C393.46,-32.64 398,-35.62 402,-39 441.9,-72.72 471.71,-127.21 486.69,-158.6"/>
<polygon fill="#63b8ff" stroke="#63b8ff" points="483.64,-160.33 491.03,-167.92 489.99,-157.38 483.64,-160.33"/>
</a>
</g>
</g>
</g>
</svg>
