<?xml version="1.0" encoding="UTF-8" standalone="no"?>
<!DOCTYPE svg PUBLIC "-//W3C//DTD SVG 1.1//EN"
 "http://www.w3.org/Graphics/SVG/1.1/DTD/svg11.dtd">
<!-- Generated by graphviz version 2.43.0 (0)
 -->
<!-- Title: lci::net_post_sends_x::net_post_sends_x Pages: 1 -->
<svg width="713pt" height="326pt"
 viewBox="0.00 0.00 713.00 326.00" xmlns="http://www.w3.org/2000/svg" xmlns:xlink="http://www.w3.org/1999/xlink">
<g id="graph0" class="graph" transform="scale(1 1) rotate(0) translate(4 322)">
<title>lci::net_post_sends_x::net_post_sends_x</title>
<!-- Node1 -->
<g id="Node000001" class="node">
<title>Node1</title>
<g id="a_Node000001"><a xlink:title=" ">
<polygon fill="#999999" stroke="#666666" points="705,-174 584,-174 584,-144 705,-144 705,-174"/>
<text text-anchor="start" x="592" y="-162" font-family="Helvetica,sans-Serif" font-size="10.00">lci::net_post_sends</text>
<text text-anchor="middle" x="644.5" y="-151" font-family="Helvetica,sans-Serif" font-size="10.00">_x::net_post_sends_x</text>
</a>
</g>
</g>
<!-- Node2 -->
<g id="Node000002" class="node">
<title>Node2</title>
<g id="a_Node000002"><a xlink:href="../../d1/d3d/classlci_1_1net__post__sends__x.html#aa9322a1f885bd34fc0a07dbf21f57402" target="_top" xlink:title=" ">
<polygon fill="white" stroke="#666666" points="548,-318 438,-318 438,-288 548,-288 548,-318"/>
<text text-anchor="start" x="446" y="-306" font-family="Helvetica,sans-Serif" font-size="10.00">lci::net_post_sends</text>
<text text-anchor="middle" x="493" y="-295" font-family="Helvetica,sans-Serif" font-size="10.00">_x::buffer</text>
</a>
</g>
</g>
<!-- Node1&#45;&gt;Node2 -->
<g id="edge1_Node000001_Node000002" class="edge">
<title>Node1&#45;&gt;Node2</title>
<g id="a_edge1_Node000001_Node000002"><a xlink:title=" ">
<path fill="none" stroke="#63b8ff" d="M629.47,-182.86C612.87,-209.33 583.04,-251.89 548,-279 543.7,-282.33 538.86,-285.3 533.9,-287.94"/>
<polygon fill="#63b8ff" stroke="#63b8ff" points="632.52,-184.57 634.77,-174.21 626.56,-180.91 632.52,-184.57"/>
</a>
</g>
</g>
<!-- Node7 -->
<g id="Node000007" class="node">
<title>Node7</title>
<g id="a_Node000007"><a xlink:href="../../d1/d3d/classlci_1_1net__post__sends__x.html#ae73a61fc90b863c6070a3f64fc9984d9" target="_top" xlink:title=" ">
<polygon fill="white" stroke="#666666" points="548,-270 438,-270 438,-240 548,-240 548,-270"/>
<text text-anchor="start" x="446" y="-258" font-family="Helvetica,sans-Serif" font-size="10.00">lci::net_post_sends</text>
<text text-anchor="middle" x="493" y="-247" font-family="Helvetica,sans-Serif" font-size="10.00">_x::device</text>
</a>
</g>
</g>
<!-- Node1&#45;&gt;Node7 -->
<g id="edge7_Node000001_Node000007" class="edge">
<title>Node1&#45;&gt;Node7</title>
<g id="a_edge7_Node000001_Node000007"><a xlink:title=" ">
<path fill="none" stroke="#63b8ff" d="M618.32,-180.5C599.68,-195.78 573.25,-216.13 548,-231 542.61,-234.18 536.72,-237.2 530.88,-239.97"/>
<polygon fill="#63b8ff" stroke="#63b8ff" points="620.59,-183.17 626.05,-174.09 616.12,-177.78 620.59,-183.17"/>
</a>
</g>
</g>
<!-- Node8 -->
<g id="Node000008" class="node">
<title>Node8</title>
<g id="a_Node000008"><a xlink:href="../../d1/d3d/classlci_1_1net__post__sends__x.html#a3d933ffdfba399bf41fef2fa2877ebde" target="_top" xlink:title=" ">
<polygon fill="white" stroke="#666666" points="548,-222 438,-222 438,-192 548,-192 548,-222"/>
<text text-anchor="start" x="446" y="-210" font-family="Helvetica,sans-Serif" font-size="10.00">lci::net_post_sends</text>
<text text-anchor="middle" x="493" y="-199" font-family="Helvetica,sans-Serif" font-size="10.00">_x::endpoint</text>
</a>
</g>
</g>
<!-- Node1&#45;&gt;Node8 -->
<g id="edge10_Node000001_Node000008" class="edge">
<title>Node1&#45;&gt;Node8</title>
<g id="a_edge10_Node000001_Node000008"><a xlink:title=" ">
<path fill="none" stroke="#63b8ff" d="M586.8,-177.21C571.59,-182.09 555.32,-187.31 540.73,-192"/>
<polygon fill="#63b8ff" stroke="#63b8ff" points="588.16,-180.45 596.61,-174.06 586.02,-173.78 588.16,-180.45"/>
</a>
</g>
</g>
<!-- Node9 -->
<g id="Node000009" class="node">
<title>Node9</title>
<g id="a_Node000009"><a xlink:href="../../d1/d3d/classlci_1_1net__post__sends__x.html#a20055e2fb95dae53a7b073e64b82a3b8" target="_top" xlink:title=" ">
<polygon fill="white" stroke="#666666" points="548,-174 438,-174 438,-144 548,-144 548,-174"/>
<text text-anchor="start" x="446" y="-162" font-family="Helvetica,sans-Serif" font-size="10.00">lci::net_post_sends</text>
<text text-anchor="middle" x="493" y="-151" font-family="Helvetica,sans-Serif" font-size="10.00">_x::imm_data</text>
</a>
</g>
</g>
<!-- Node1&#45;&gt;Node9 -->
<g id="edge13_Node000001_Node000009" class="edge">
<title>Node1&#45;&gt;Node9</title>
<g id="a_edge13_Node000001_Node000009"><a xlink:title=" ">
<path fill="none" stroke="#63b8ff" d="M573.71,-159C565.24,-159 556.67,-159 548.46,-159"/>
<polygon fill="#63b8ff" stroke="#63b8ff" points="573.98,-162.5 583.98,-159 573.98,-155.5 573.98,-162.5"/>
</a>
</g>
</g>
<!-- Node10 -->
<g id="Node000010" class="node">
<title>Node10</title>
<g id="a_Node000010"><a xlink:href="../../d1/d3d/classlci_1_1net__post__sends__x.html#a6bf93fd502e07d13ee845942957714ce" target="_top" xlink:title=" ">
<polygon fill="white" stroke="#666666" points="548,-126 438,-126 438,-96 548,-96 548,-126"/>
<text text-anchor="start" x="446" y="-114" font-family="Helvetica,sans-Serif" font-size="10.00">lci::net_post_sends</text>
<text text-anchor="middle" x="493" y="-103" font-family="Helvetica,sans-Serif" font-size="10.00">_x::rank</text>
</a>
</g>
</g>
<!-- Node1&#45;&gt;Node10 -->
<g id="edge16_Node000001_Node000010" class="edge">
<title>Node1&#45;&gt;Node10</title>
<g id="a_edge16_Node000001_Node000010"><a xlink:title=" ">
<path fill="none" stroke="#63b8ff" d="M586.8,-140.79C571.59,-135.91 555.32,-130.69 540.73,-126"/>
<polygon fill="#63b8ff" stroke="#63b8ff" points="586.02,-144.22 596.61,-143.94 588.16,-137.55 586.02,-144.22"/>
</a>
</g>
</g>
<!-- Node11 -->
<g id="Node000011" class="node">
<title>Node11</title>
<g id="a_Node000011"><a xlink:href="../../d1/d3d/classlci_1_1net__post__sends__x.html#a57897b3459e48fd421a98b7b830a3071" target="_top" xlink:title=" ">
<polygon fill="white" stroke="#666666" points="548,-78 438,-78 438,-48 548,-48 548,-78"/>
<text text-anchor="start" x="446" y="-66" font-family="Helvetica,sans-Serif" font-size="10.00">lci::net_post_sends</text>
<text text-anchor="middle" x="493" y="-55" font-family="Helvetica,sans-Serif" font-size="10.00">_x::runtime</text>
</a>
</g>
</g>
<!-- Node1&#45;&gt;Node11 -->
<g id="edge19_Node000001_Node000011" class="edge">
<title>Node1&#45;&gt;Node11</title>
<g id="a_edge19_Node000001_Node000011"><a xlink:title=" ">
<path fill="none" stroke="#63b8ff" d="M618.32,-137.5C599.68,-122.22 573.25,-101.87 548,-87 542.61,-83.82 536.72,-80.8 530.88,-78.03"/>
<polygon fill="#63b8ff" stroke="#63b8ff" points="616.12,-140.22 626.05,-143.91 620.59,-134.83 616.12,-140.22"/>
</a>
</g>
</g>
<!-- Node12 -->
<g id="Node000012" class="node">
<title>Node12</title>
<g id="a_Node000012"><a xlink:href="../../d1/d3d/classlci_1_1net__post__sends__x.html#a27826391e036fa8b74cd601331ac0ba7" target="_top" xlink:title=" ">
<polygon fill="white" stroke="#666666" points="548,-30 438,-30 438,0 548,0 548,-30"/>
<text text-anchor="start" x="446" y="-18" font-family="Helvetica,sans-Serif" font-size="10.00">lci::net_post_sends</text>
<text text-anchor="middle" x="493" y="-7" font-family="Helvetica,sans-Serif" font-size="10.00">_x::size</text>
</a>
</g>
</g>
<!-- Node1&#45;&gt;Node12 -->
<g id="edge22_Node000001_Node000012" class="edge">
<title>Node1&#45;&gt;Node12</title>
<g id="a_edge22_Node000001_Node000012"><a xlink:title=" ">
<path fill="none" stroke="#63b8ff" d="M629.47,-135.14C612.87,-108.67 583.04,-66.11 548,-39 543.7,-35.67 538.86,-32.7 533.9,-30.06"/>
<polygon fill="#63b8ff" stroke="#63b8ff" points="626.56,-137.09 634.77,-143.79 632.52,-133.43 626.56,-137.09"/>
</a>
</g>
</g>
<!-- Node3 -->
<g id="Node000003" class="node">
<title>Node3</title>
<g id="a_Node000003"><a xlink:href="../../d1/d3d/classlci_1_1net__post__sends__x.html#a34ef4ecb3668a0c314c89bfd602ba7eb" target="_top" xlink:title=" ">
<polygon fill="white" stroke="#666666" points="256,-169 146,-169 146,-139 256,-139 256,-169"/>
<text text-anchor="start" x="154" y="-157" font-family="Helvetica,sans-Serif" font-size="10.00">lci::net_post_sends</text>
<text text-anchor="middle" x="201" y="-146" font-family="Helvetica,sans-Serif" font-size="10.00">_x::call</text>
</a>
</g>
</g>
<!-- Node2&#45;&gt;Node3 -->
<g id="edge2_Node000002_Node000003" class="edge">
<title>Node2&#45;&gt;Node3</title>
<g id="a_edge2_Node000002_Node000003"><a xlink:title=" ">
<path fill="none" stroke="#63b8ff" d="M427.69,-293.89C386.69,-286.01 333.64,-271.81 292,-247 257.84,-226.64 227.89,-189.98 212.66,-169.29"/>
<polygon fill="#63b8ff" stroke="#63b8ff" points="427.1,-297.34 437.57,-295.72 428.37,-290.46 427.1,-297.34"/>
</a>
</g>
</g>
<!-- Node6 -->
<g id="Node000006" class="node">
<title>Node6</title>
<g id="a_Node000006"><a xlink:href="../../d1/d3d/classlci_1_1net__post__sends__x.html#ad269b5157059de30e77c641ebe006204" target="_top" xlink:title=" ">
<polygon fill="white" stroke="#666666" points="402,-191 292,-191 292,-161 402,-161 402,-191"/>
<text text-anchor="start" x="300" y="-179" font-family="Helvetica,sans-Serif" font-size="10.00">lci::net_post_sends</text>
<text text-anchor="middle" x="347" y="-168" font-family="Helvetica,sans-Serif" font-size="10.00">_x::call_impl</text>
</a>
</g>
</g>
<!-- Node2&#45;&gt;Node6 -->
<g id="edge5_Node000002_Node000006" class="edge">
<title>Node2&#45;&gt;Node6</title>
<g id="a_edge5_Node000002_Node000006"><a xlink:title=" ">
<path fill="none" stroke="#63b8ff" d="M443.66,-282.85C441.71,-281.62 439.81,-280.34 438,-279 403.6,-253.63 373.08,-213.01 357.99,-191.14"/>
<polygon fill="#63b8ff" stroke="#63b8ff" points="442.1,-285.99 452.52,-287.89 445.57,-279.9 442.1,-285.99"/>
</a>
</g>
</g>
<!-- Node4 -->
<g id="Node000004" class="node">
<title>Node4</title>
<g id="a_Node000004"><a xlink:href="../../d5/dd3/namespacelci.html#a79d8129a96b50dcfc02816f669d8e619" target="_top" xlink:title=" ">
<polygon fill="white" stroke="#666666" points="110,-185.5 0,-185.5 0,-166.5 110,-166.5 110,-185.5"/>
<text text-anchor="middle" x="55" y="-173.5" font-family="Helvetica,sans-Serif" font-size="10.00">lci::net_post_sends</text>
</a>
</g>
</g>
<!-- Node3&#45;&gt;Node4 -->
<g id="edge3_Node000003_Node000004" class="edge">
<title>Node3&#45;&gt;Node4</title>
<g id="a_edge3_Node000003_Node000004"><a xlink:title=" ">
<path fill="none" stroke="#63b8ff" d="M136.01,-163.78C127.44,-165.09 118.72,-166.42 110.33,-167.7"/>
<polygon fill="#63b8ff" stroke="#63b8ff" points="136.61,-167.22 145.97,-162.25 135.56,-160.31 136.61,-167.22"/>
</a>
</g>
</g>
<!-- Node5 -->
<g id="Node000005" class="node">
<title>Node5</title>
<g id="a_Node000005"><a xlink:href="../../d1/d3d/classlci_1_1net__post__sends__x.html#a9f54ac51d3f9f8d6b848c28612e8c902" target="_top" xlink:title=" ">
<polygon fill="white" stroke="#666666" points="110,-148 0,-148 0,-118 110,-118 110,-148"/>
<text text-anchor="start" x="8" y="-136" font-family="Helvetica,sans-Serif" font-size="10.00">lci::net_post_sends</text>
<text text-anchor="middle" x="55" y="-125" font-family="Helvetica,sans-Serif" font-size="10.00">_x::operator()</text>
</a>
</g>
</g>
<!-- Node3&#45;&gt;Node5 -->
<g id="edge4_Node000003_Node000005" class="edge">
<title>Node3&#45;&gt;Node5</title>
<g id="a_edge4_Node000003_Node000005"><a xlink:title=" ">
<path fill="none" stroke="#63b8ff" d="M136.01,-144.67C127.44,-143.42 118.72,-142.15 110.33,-140.92"/>
<polygon fill="#63b8ff" stroke="#63b8ff" points="135.57,-148.14 145.97,-146.12 136.58,-141.21 135.57,-148.14"/>
</a>
</g>
</g>
<!-- Node6&#45;&gt;Node3 -->
<g id="edge6_Node000006_Node000003" class="edge">
<title>Node6&#45;&gt;Node3</title>
<g id="a_edge6_Node000006_Node000003"><a xlink:title=" ">
<path fill="none" stroke="#63b8ff" d="M282.01,-166.22C273.44,-164.91 264.72,-163.58 256.33,-162.3"/>
<polygon fill="#63b8ff" stroke="#63b8ff" points="281.56,-169.69 291.97,-167.75 282.61,-162.78 281.56,-169.69"/>
</a>
</g>
</g>
<!-- Node7&#45;&gt;Node3 -->
<g id="edge8_Node000007_Node000003" class="edge">
<title>Node7&#45;&gt;Node3</title>
<g id="a_edge8_Node000007_Node000003"><a xlink:title=" ">
<path fill="none" stroke="#63b8ff" d="M427.92,-251.28C387.59,-247.14 335.19,-238.42 292,-220 263.13,-207.69 234.75,-184.53 217.81,-169.18"/>
<polygon fill="#63b8ff" stroke="#63b8ff" points="427.61,-254.76 437.89,-252.23 428.27,-247.8 427.61,-254.76"/>
</a>
</g>
</g>
<!-- Node7&#45;&gt;Node6 -->
<g id="edge9_Node000007_Node000006" class="edge">
<title>Node7&#45;&gt;Node6</title>
<g id="a_edge9_Node000007_Node000006"><a xlink:title=" ">
<path fill="none" stroke="#63b8ff" d="M447,-235.54C443.93,-234.05 440.91,-232.53 438,-231 414.49,-218.66 388.74,-202.65 370.83,-191.09"/>
<polygon fill="#63b8ff" stroke="#63b8ff" points="445.71,-238.8 456.25,-239.9 448.7,-232.47 445.71,-238.8"/>
</a>
</g>
</g>
<!-- Node8&#45;&gt;Node3 -->
<g id="edge11_Node000008_Node000003" class="edge">
<title>Node8&#45;&gt;Node3</title>
<g id="a_edge11_Node000008_Node000003"><a xlink:title=" ">
<path fill="none" stroke="#63b8ff" d="M427.52,-211.78C387.83,-213 336.24,-211.47 292,-200 267.54,-193.66 242.12,-179.9 224.56,-169.07"/>
<polygon fill="#63b8ff" stroke="#63b8ff" points="427.75,-215.27 437.61,-211.4 427.48,-208.28 427.75,-215.27"/>
</a>
</g>
</g>
<!-- Node8&#45;&gt;Node6 -->
<g id="edge12_Node000008_Node000006" class="edge">
<title>Node8&#45;&gt;Node6</title>
<g id="a_edge12_Node000008_Node000006"><a xlink:title=" ">
<path fill="none" stroke="#63b8ff" d="M428.01,-193.22C419.44,-191.38 410.72,-189.5 402.33,-187.7"/>
<polygon fill="#63b8ff" stroke="#63b8ff" points="427.46,-196.69 437.97,-195.37 428.93,-189.84 427.46,-196.69"/>
</a>
</g>
</g>
<!-- Node9&#45;&gt;Node3 -->
<g id="edge14_Node000009_Node000003" class="edge">
<title>Node9&#45;&gt;Node3</title>
<g id="a_edge14_Node000009_Node000003"><a xlink:title=" ">
<path fill="none" stroke="#63b8ff" d="M427.72,-153.39C419.08,-152.81 410.33,-152.32 402,-152 352.73,-150.09 296.58,-150.91 256.35,-152.03"/>
<polygon fill="#63b8ff" stroke="#63b8ff" points="427.56,-156.89 437.78,-154.1 428.06,-149.9 427.56,-156.89"/>
</a>
</g>
</g>
<!-- Node9&#45;&gt;Node6 -->
<g id="edge15_Node000009_Node000006" class="edge">
<title>Node9&#45;&gt;Node6</title>
<g id="a_edge15_Node000009_Node000006"><a xlink:title=" ">
<path fill="none" stroke="#63b8ff" d="M428.01,-166.55C419.44,-167.57 410.72,-168.6 402.33,-169.59"/>
<polygon fill="#63b8ff" stroke="#63b8ff" points="428.45,-170.03 437.97,-165.38 427.63,-163.08 428.45,-170.03"/>
</a>
</g>
</g>
<!-- Node10&#45;&gt;Node3 -->
<g id="edge17_Node000010_Node000003" class="edge">
<title>Node10&#45;&gt;Node3</title>
<g id="a_edge17_Node000010_Node000003"><a xlink:title=" ">
<path fill="none" stroke="#63b8ff" d="M427.79,-120.52C376.38,-128.14 305.07,-138.72 256.43,-145.93"/>
<polygon fill="#63b8ff" stroke="#63b8ff" points="428.41,-123.97 437.79,-119.04 427.39,-117.04 428.41,-123.97"/>
</a>
</g>
</g>
<!-- Node10&#45;&gt;Node6 -->
<g id="edge18_Node000010_Node000006" class="edge">
<title>Node10&#45;&gt;Node6</title>
<g id="a_edge18_Node000010_Node000006"><a xlink:title=" ">
<path fill="none" stroke="#63b8ff" d="M448.56,-130.27C444.98,-131.86 441.43,-133.46 438,-135 419.05,-143.53 397.91,-153.15 380.88,-160.93"/>
<polygon fill="#63b8ff" stroke="#63b8ff" points="450.28,-133.33 457.99,-126.06 447.43,-126.94 450.28,-133.33"/>
</a>
</g>
</g>
<!-- Node11&#45;&gt;Node3 -->
<g id="edge20_Node000011_Node000003" class="edge">
<title>Node11&#45;&gt;Node3</title>
<g id="a_edge20_Node000011_Node000003"><a xlink:title=" ">
<path fill="none" stroke="#63b8ff" d="M427.96,-79.79C388.51,-90.49 337.03,-105.11 292,-120 274.71,-125.72 255.83,-132.73 239.85,-138.9"/>
<polygon fill="#63b8ff" stroke="#63b8ff" points="428.98,-83.14 437.72,-77.15 427.16,-76.38 428.98,-83.14"/>
</a>
</g>
</g>
<!-- Node11&#45;&gt;Node6 -->
<g id="edge21_Node000011_Node000006" class="edge">
<title>Node11&#45;&gt;Node6</title>
<g id="a_edge21_Node000011_Node000006"><a xlink:title=" ">
<path fill="none" stroke="#63b8ff" d="M444.48,-82.91C442.25,-84.22 440.08,-85.58 438,-87 406.6,-108.43 376.54,-141.54 360.35,-160.76"/>
<polygon fill="#63b8ff" stroke="#63b8ff" points="446.18,-85.97 453.31,-78.13 442.85,-79.81 446.18,-85.97"/>
</a>
</g>
</g>
<!-- Node12&#45;&gt;Node3 -->
<g id="edge23_Node000012_Node000003" class="edge">
<title>Node12&#45;&gt;Node3</title>
<g id="a_edge23_Node000012_Node000003"><a xlink:title=" ">
<path fill="none" stroke="#63b8ff" d="M427.99,-30.75C387.55,-42.13 335.02,-59.62 292,-83 263.5,-98.49 234.8,-123.04 217.72,-138.83"/>
<polygon fill="#63b8ff" stroke="#63b8ff" points="429.02,-34.1 437.73,-28.06 427.16,-27.35 429.02,-34.1"/>
</a>
</g>
</g>
<!-- Node12&#45;&gt;Node6 -->
<g id="edge24_Node000012_Node000006" class="edge">
<title>Node12&#45;&gt;Node6</title>
<g id="a_edge24_Node000012_Node000006"><a xlink:title=" ">
<path fill="none" stroke="#63b8ff" d="M442.7,-35.36C441.07,-36.52 439.5,-37.73 438,-39 396.56,-74.18 366.86,-133.13 354.45,-160.79"/>
<polygon fill="#63b8ff" stroke="#63b8ff" points="444.63,-38.28 451.25,-30.01 440.92,-32.35 444.63,-38.28"/>
</a>
</g>
</g>
</g>
</svg>
