<?xml version="1.0" encoding="UTF-8" standalone="no"?>
<!DOCTYPE svg PUBLIC "-//W3C//DTD SVG 1.1//EN"
 "http://www.w3.org/Graphics/SVG/1.1/DTD/svg11.dtd">
<!-- Generated by graphviz version 2.43.0 (0)
 -->
<!-- Title: lci::net_post_sends_x::operator() Pages: 1 -->
<svg width="713pt" height="374pt"
 viewBox="0.00 0.00 713.00 374.00" xmlns="http://www.w3.org/2000/svg" xmlns:xlink="http://www.w3.org/1999/xlink">
<g id="graph0" class="graph" transform="scale(1 1) rotate(0) translate(4 370)">
<title>lci::net_post_sends_x::operator()</title>
<!-- Node1 -->
<g id="Node000001" class="node">
<title>Node1</title>
<g id="a_Node000001"><a xlink:title=" ">
<polygon fill="#999999" stroke="#666666" points="110,-198 0,-198 0,-168 110,-168 110,-198"/>
<text text-anchor="start" x="8" y="-186" font-family="Helvetica,sans-Serif" font-size="10.00">lci::net_post_sends</text>
<text text-anchor="middle" x="55" y="-175" font-family="Helvetica,sans-Serif" font-size="10.00">_x::operator()</text>
</a>
</g>
</g>
<!-- Node2 -->
<g id="Node000002" class="node">
<title>Node2</title>
<g id="a_Node000002"><a xlink:href="../../d1/d3d/classlci_1_1net__post__sends__x.html#a34ef4ecb3668a0c314c89bfd602ba7eb" target="_top" xlink:title=" ">
<polygon fill="white" stroke="#666666" points="256,-198 146,-198 146,-168 256,-168 256,-198"/>
<text text-anchor="start" x="154" y="-186" font-family="Helvetica,sans-Serif" font-size="10.00">lci::net_post_sends</text>
<text text-anchor="middle" x="201" y="-175" font-family="Helvetica,sans-Serif" font-size="10.00">_x::call</text>
</a>
</g>
</g>
<!-- Node1&#45;&gt;Node2 -->
<g id="edge1_Node000001_Node000002" class="edge">
<title>Node1&#45;&gt;Node2</title>
<g id="a_edge1_Node000001_Node000002"><a xlink:title=" ">
<path fill="none" stroke="#63b8ff" d="M110.03,-183C118.31,-183 126.94,-183 135.42,-183"/>
<polygon fill="#63b8ff" stroke="#63b8ff" points="135.67,-186.5 145.67,-183 135.67,-179.5 135.67,-186.5"/>
</a>
</g>
</g>
<!-- Node3 -->
<g id="Node000003" class="node">
<title>Node3</title>
<g id="a_Node000003"><a xlink:href="../../d1/d3d/classlci_1_1net__post__sends__x.html#aa9322a1f885bd34fc0a07dbf21f57402" target="_top" xlink:title=" ">
<polygon fill="white" stroke="#666666" points="548,-366 438,-366 438,-336 548,-336 548,-366"/>
<text text-anchor="start" x="446" y="-354" font-family="Helvetica,sans-Serif" font-size="10.00">lci::net_post_sends</text>
<text text-anchor="middle" x="493" y="-343" font-family="Helvetica,sans-Serif" font-size="10.00">_x::buffer</text>
</a>
</g>
</g>
<!-- Node2&#45;&gt;Node3 -->
<g id="edge2_Node000002_Node000003" class="edge">
<title>Node2&#45;&gt;Node3</title>
<g id="a_edge2_Node000002_Node000003"><a xlink:title=" ">
<path fill="none" stroke="#63b8ff" d="M212.46,-198.27C227.67,-219.41 257.84,-257.52 292,-280 333.52,-307.32 386.8,-325.56 427.93,-336.7"/>
<polygon fill="#63b8ff" stroke="#63b8ff" points="427.28,-340.15 437.85,-339.32 429.07,-333.38 427.28,-340.15"/>
</a>
</g>
</g>
<!-- Node5 -->
<g id="Node000005" class="node">
<title>Node5</title>
<g id="a_Node000005"><a xlink:href="../../d1/d3d/classlci_1_1net__post__sends__x.html#a4bf1a4bd7ab283455ea45a0febef91fb" target="_top" xlink:title=" ">
<polygon fill="white" stroke="#666666" points="402,-198 292,-198 292,-168 402,-168 402,-198"/>
<text text-anchor="start" x="300" y="-186" font-family="Helvetica,sans-Serif" font-size="10.00">lci::net_post_sends</text>
<text text-anchor="middle" x="347" y="-175" font-family="Helvetica,sans-Serif" font-size="10.00">_x::call_impl</text>
</a>
</g>
</g>
<!-- Node2&#45;&gt;Node5 -->
<g id="edge4_Node000002_Node000005" class="edge">
<title>Node2&#45;&gt;Node5</title>
<g id="a_edge4_Node000002_Node000005"><a xlink:title=" ">
<path fill="none" stroke="#63b8ff" d="M256.03,-183C264.31,-183 272.94,-183 281.42,-183"/>
<polygon fill="#63b8ff" stroke="#63b8ff" points="281.67,-186.5 291.67,-183 281.67,-179.5 281.67,-186.5"/>
</a>
</g>
</g>
<!-- Node6 -->
<g id="Node000006" class="node">
<title>Node6</title>
<g id="a_Node000006"><a xlink:href="../../d1/d3d/classlci_1_1net__post__sends__x.html#ae73a61fc90b863c6070a3f64fc9984d9" target="_top" xlink:title=" ">
<polygon fill="white" stroke="#666666" points="548,-318 438,-318 438,-288 548,-288 548,-318"/>
<text text-anchor="start" x="446" y="-306" font-family="Helvetica,sans-Serif" font-size="10.00">lci::net_post_sends</text>
<text text-anchor="middle" x="493" y="-295" font-family="Helvetica,sans-Serif" font-size="10.00">_x::device</text>
</a>
</g>
</g>
<!-- Node2&#45;&gt;Node6 -->
<g id="edge20_Node000002_Node000006" class="edge">
<title>Node2&#45;&gt;Node6</title>
<g id="a_edge20_Node000002_Node000006"><a xlink:title=" ">
<path fill="none" stroke="#63b8ff" d="M219.07,-198.22C236.34,-212.89 264.36,-234.76 292,-248 335.26,-268.73 387.65,-282.78 427.96,-291.49"/>
<polygon fill="#63b8ff" stroke="#63b8ff" points="427.43,-294.95 437.93,-293.59 428.87,-288.1 427.43,-294.95"/>
</a>
</g>
</g>
<!-- Node7 -->
<g id="Node000007" class="node">
<title>Node7</title>
<g id="a_Node000007"><a xlink:href="../../d1/d3d/classlci_1_1net__post__sends__x.html#a3d933ffdfba399bf41fef2fa2877ebde" target="_top" xlink:title=" ">
<polygon fill="white" stroke="#666666" points="548,-270 438,-270 438,-240 548,-240 548,-270"/>
<text text-anchor="start" x="446" y="-258" font-family="Helvetica,sans-Serif" font-size="10.00">lci::net_post_sends</text>
<text text-anchor="middle" x="493" y="-247" font-family="Helvetica,sans-Serif" font-size="10.00">_x::endpoint</text>
</a>
</g>
</g>
<!-- Node2&#45;&gt;Node7 -->
<g id="edge21_Node000002_Node000007" class="edge">
<title>Node2&#45;&gt;Node7</title>
<g id="a_edge21_Node000002_Node000007"><a xlink:title=" ">
<path fill="none" stroke="#63b8ff" d="M230.86,-198.13C248.17,-206.62 270.85,-216.73 292,-223 336.35,-236.16 387.93,-244.24 427.6,-248.99"/>
<polygon fill="#63b8ff" stroke="#63b8ff" points="427.34,-252.49 437.68,-250.16 428.14,-245.53 427.34,-252.49"/>
</a>
</g>
</g>
<!-- Node8 -->
<g id="Node000008" class="node">
<title>Node8</title>
<g id="a_Node000008"><a xlink:href="../../d1/d3d/classlci_1_1net__post__sends__x.html#a20055e2fb95dae53a7b073e64b82a3b8" target="_top" xlink:title=" ">
<polygon fill="white" stroke="#666666" points="548,-222 438,-222 438,-192 548,-192 548,-222"/>
<text text-anchor="start" x="446" y="-210" font-family="Helvetica,sans-Serif" font-size="10.00">lci::net_post_sends</text>
<text text-anchor="middle" x="493" y="-199" font-family="Helvetica,sans-Serif" font-size="10.00">_x::imm_data</text>
</a>
</g>
</g>
<!-- Node2&#45;&gt;Node8 -->
<g id="edge22_Node000002_Node000008" class="edge">
<title>Node2&#45;&gt;Node8</title>
<g id="a_edge22_Node000002_Node000008"><a xlink:title=" ">
<path fill="none" stroke="#63b8ff" d="M249.18,-198.05C262.85,-201.74 277.89,-205.15 292,-207 337.13,-212.91 388.48,-212.77 427.85,-211.22"/>
<polygon fill="#63b8ff" stroke="#63b8ff" points="428.01,-214.72 437.85,-210.79 427.71,-207.73 428.01,-214.72"/>
</a>
</g>
</g>
<!-- Node9 -->
<g id="Node000009" class="node">
<title>Node9</title>
<g id="a_Node000009"><a xlink:href="../../d1/d3d/classlci_1_1net__post__sends__x.html#a6bf93fd502e07d13ee845942957714ce" target="_top" xlink:title=" ">
<polygon fill="white" stroke="#666666" points="548,-174 438,-174 438,-144 548,-144 548,-174"/>
<text text-anchor="start" x="446" y="-162" font-family="Helvetica,sans-Serif" font-size="10.00">lci::net_post_sends</text>
<text text-anchor="middle" x="493" y="-151" font-family="Helvetica,sans-Serif" font-size="10.00">_x::rank</text>
</a>
</g>
</g>
<!-- Node2&#45;&gt;Node9 -->
<g id="edge23_Node000002_Node000009" class="edge">
<title>Node2&#45;&gt;Node9</title>
<g id="a_edge23_Node000002_Node000009"><a xlink:title=" ">
<path fill="none" stroke="#63b8ff" d="M249.18,-167.95C262.85,-164.26 277.89,-160.85 292,-159 337.13,-153.09 388.48,-153.23 427.85,-154.78"/>
<polygon fill="#63b8ff" stroke="#63b8ff" points="427.71,-158.27 437.85,-155.21 428.01,-151.28 427.71,-158.27"/>
</a>
</g>
</g>
<!-- Node10 -->
<g id="Node000010" class="node">
<title>Node10</title>
<g id="a_Node000010"><a xlink:href="../../d1/d3d/classlci_1_1net__post__sends__x.html#a57897b3459e48fd421a98b7b830a3071" target="_top" xlink:title=" ">
<polygon fill="white" stroke="#666666" points="548,-126 438,-126 438,-96 548,-96 548,-126"/>
<text text-anchor="start" x="446" y="-114" font-family="Helvetica,sans-Serif" font-size="10.00">lci::net_post_sends</text>
<text text-anchor="middle" x="493" y="-103" font-family="Helvetica,sans-Serif" font-size="10.00">_x::runtime</text>
</a>
</g>
</g>
<!-- Node2&#45;&gt;Node10 -->
<g id="edge24_Node000002_Node000010" class="edge">
<title>Node2&#45;&gt;Node10</title>
<g id="a_edge24_Node000002_Node000010"><a xlink:title=" ">
<path fill="none" stroke="#63b8ff" d="M237.44,-167.99C253.82,-161.47 273.67,-154.16 292,-149 336.75,-136.4 388.32,-126.71 427.89,-120.28"/>
<polygon fill="#63b8ff" stroke="#63b8ff" points="428.61,-123.7 437.93,-118.67 427.51,-116.79 428.61,-123.7"/>
</a>
</g>
</g>
<!-- Node11 -->
<g id="Node000011" class="node">
<title>Node11</title>
<g id="a_Node000011"><a xlink:href="../../d1/d3d/classlci_1_1net__post__sends__x.html#a27826391e036fa8b74cd601331ac0ba7" target="_top" xlink:title=" ">
<polygon fill="white" stroke="#666666" points="548,-78 438,-78 438,-48 548,-48 548,-78"/>
<text text-anchor="start" x="446" y="-66" font-family="Helvetica,sans-Serif" font-size="10.00">lci::net_post_sends</text>
<text text-anchor="middle" x="493" y="-55" font-family="Helvetica,sans-Serif" font-size="10.00">_x::size</text>
</a>
</g>
</g>
<!-- Node2&#45;&gt;Node11 -->
<g id="edge25_Node000002_Node000011" class="edge">
<title>Node2&#45;&gt;Node11</title>
<g id="a_edge25_Node000002_Node000011"><a xlink:title=" ">
<path fill="none" stroke="#63b8ff" d="M220.23,-167.81C237.69,-153.93 265.25,-133.68 292,-121 335.37,-100.44 387.54,-85.61 427.72,-76.09"/>
<polygon fill="#63b8ff" stroke="#63b8ff" points="428.71,-79.45 437.66,-73.78 427.13,-72.63 428.71,-79.45"/>
</a>
</g>
</g>
<!-- Node12 -->
<g id="Node000012" class="node">
<title>Node12</title>
<g id="a_Node000012"><a xlink:href="../../d1/d3d/classlci_1_1net__post__sends__x.html#a85551f8018c5479a5e3731ae49ec5306" target="_top" xlink:title=" ">
<polygon fill="white" stroke="#666666" points="548,-30 438,-30 438,0 548,0 548,-30"/>
<text text-anchor="start" x="446" y="-18" font-family="Helvetica,sans-Serif" font-size="10.00">lci::net_post_sends</text>
<text text-anchor="middle" x="493" y="-7" font-family="Helvetica,sans-Serif" font-size="10.00">_x::user_context</text>
</a>
</g>
</g>
<!-- Node2&#45;&gt;Node12 -->
<g id="edge26_Node000002_Node000012" class="edge">
<title>Node2&#45;&gt;Node12</title>
<g id="a_edge26_Node000002_Node000012"><a xlink:title=" ">
<path fill="none" stroke="#63b8ff" d="M211.12,-167.96C225.55,-145.41 255.73,-102.95 292,-79 333.17,-51.81 386.71,-35.48 428.03,-26.13"/>
<polygon fill="#63b8ff" stroke="#63b8ff" points="428.97,-29.51 437.99,-23.96 427.48,-22.67 428.97,-29.51"/>
</a>
</g>
</g>
<!-- Node4 -->
<g id="Node000004" class="node">
<title>Node4</title>
<g id="a_Node000004"><a xlink:href="../../d1/d3d/classlci_1_1net__post__sends__x.html#a65ac3d2f92cb4258de0946770899e8be" target="_top" xlink:title=" ">
<polygon fill="white" stroke="#666666" points="705,-198 584,-198 584,-168 705,-168 705,-198"/>
<text text-anchor="start" x="592" y="-186" font-family="Helvetica,sans-Serif" font-size="10.00">lci::net_post_sends</text>
<text text-anchor="middle" x="644.5" y="-175" font-family="Helvetica,sans-Serif" font-size="10.00">_x::net_post_sends_x</text>
</a>
</g>
</g>
<!-- Node3&#45;&gt;Node4 -->
<g id="edge3_Node000003_Node000004" class="edge">
<title>Node3&#45;&gt;Node4</title>
<g id="a_edge3_Node000003_Node000004"><a xlink:title=" ">
<path fill="none" stroke="#63b8ff" d="M534.74,-335.98C539.46,-333.36 544,-330.38 548,-327 587.9,-293.28 617.71,-238.79 632.69,-207.4"/>
<polygon fill="#63b8ff" stroke="#63b8ff" points="635.99,-208.62 637.03,-198.08 629.64,-205.67 635.99,-208.62"/>
</a>
</g>
</g>
<!-- Node5&#45;&gt;Node3 -->
<g id="edge5_Node000005_Node000003" class="edge">
<title>Node5&#45;&gt;Node3</title>
<g id="a_edge5_Node000005_Node000003"><a xlink:title=" ">
<path fill="none" stroke="#63b8ff" d="M353.86,-198.09C365.7,-226.79 395.04,-289.69 438,-327 439.33,-328.16 440.73,-329.27 442.17,-330.33"/>
<polygon fill="#63b8ff" stroke="#63b8ff" points="440.59,-333.47 450.9,-335.92 444.37,-327.58 440.59,-333.47"/>
</a>
</g>
</g>
<!-- Node5&#45;&gt;Node6 -->
<g id="edge6_Node000005_Node000006" class="edge">
<title>Node5&#45;&gt;Node6</title>
<g id="a_edge6_Node000005_Node000006"><a xlink:title=" ">
<path fill="none" stroke="#63b8ff" d="M359.01,-198.09C374.63,-218.65 405.04,-255.57 438,-279 439.87,-280.33 441.82,-281.61 443.83,-282.84"/>
<polygon fill="#63b8ff" stroke="#63b8ff" points="442.47,-286.08 452.91,-287.89 445.88,-279.97 442.47,-286.08"/>
</a>
</g>
</g>
<!-- Node5&#45;&gt;Node7 -->
<g id="edge8_Node000005_Node000007" class="edge">
<title>Node5&#45;&gt;Node7</title>
<g id="a_edge8_Node000005_Node000007"><a xlink:title=" ">
<path fill="none" stroke="#63b8ff" d="M374.91,-198.01C392.66,-207.74 416.52,-220.51 438,-231 441.14,-232.53 444.4,-234.08 447.69,-235.61"/>
<polygon fill="#63b8ff" stroke="#63b8ff" points="446.42,-238.89 456.97,-239.87 449.34,-232.52 446.42,-238.89"/>
</a>
</g>
</g>
<!-- Node5&#45;&gt;Node8 -->
<g id="edge10_Node000005_Node000008" class="edge">
<title>Node5&#45;&gt;Node8</title>
<g id="a_edge10_Node000005_Node000008"><a xlink:title=" ">
<path fill="none" stroke="#63b8ff" d="M402.03,-192C410.4,-193.4 419.13,-194.85 427.7,-196.28"/>
<polygon fill="#63b8ff" stroke="#63b8ff" points="427.23,-199.75 437.67,-197.94 428.38,-192.85 427.23,-199.75"/>
</a>
</g>
</g>
<!-- Node5&#45;&gt;Node9 -->
<g id="edge12_Node000005_Node000009" class="edge">
<title>Node5&#45;&gt;Node9</title>
<g id="a_edge12_Node000005_Node000009"><a xlink:title=" ">
<path fill="none" stroke="#63b8ff" d="M402.03,-174C410.4,-172.6 419.13,-171.15 427.7,-169.72"/>
<polygon fill="#63b8ff" stroke="#63b8ff" points="428.38,-173.15 437.67,-168.06 427.23,-166.25 428.38,-173.15"/>
</a>
</g>
</g>
<!-- Node5&#45;&gt;Node10 -->
<g id="edge14_Node000005_Node000010" class="edge">
<title>Node5&#45;&gt;Node10</title>
<g id="a_edge14_Node000005_Node000010"><a xlink:title=" ">
<path fill="none" stroke="#63b8ff" d="M374.91,-167.99C392.66,-158.26 416.52,-145.49 438,-135 441.14,-133.47 444.4,-131.92 447.69,-130.39"/>
<polygon fill="#63b8ff" stroke="#63b8ff" points="449.34,-133.48 456.97,-126.13 446.42,-127.11 449.34,-133.48"/>
</a>
</g>
</g>
<!-- Node5&#45;&gt;Node11 -->
<g id="edge16_Node000005_Node000011" class="edge">
<title>Node5&#45;&gt;Node11</title>
<g id="a_edge16_Node000005_Node000011"><a xlink:title=" ">
<path fill="none" stroke="#63b8ff" d="M359.01,-167.91C374.63,-147.35 405.04,-110.43 438,-87 439.87,-85.67 441.82,-84.39 443.83,-83.16"/>
<polygon fill="#63b8ff" stroke="#63b8ff" points="445.88,-86.03 452.91,-78.11 442.47,-79.92 445.88,-86.03"/>
</a>
</g>
</g>
<!-- Node5&#45;&gt;Node12 -->
<g id="edge18_Node000005_Node000012" class="edge">
<title>Node5&#45;&gt;Node12</title>
<g id="a_edge18_Node000005_Node000012"><a xlink:title=" ">
<path fill="none" stroke="#63b8ff" d="M353.86,-167.91C365.7,-139.21 395.04,-76.31 438,-39 439.33,-37.84 440.73,-36.73 442.17,-35.67"/>
<polygon fill="#63b8ff" stroke="#63b8ff" points="444.37,-38.42 450.9,-30.08 440.59,-32.53 444.37,-38.42"/>
</a>
</g>
</g>
<!-- Node6&#45;&gt;Node4 -->
<g id="edge7_Node000006_Node000004" class="edge">
<title>Node6&#45;&gt;Node4</title>
<g id="a_edge7_Node000006_Node000004"><a xlink:title=" ">
<path fill="none" stroke="#63b8ff" d="M532.71,-287.91C538.02,-285.24 543.27,-282.26 548,-279 578.25,-258.16 607.15,-227 625.08,-205.87"/>
<polygon fill="#63b8ff" stroke="#63b8ff" points="627.9,-207.96 631.62,-198.04 622.53,-203.48 627.9,-207.96"/>
</a>
</g>
</g>
<!-- Node7&#45;&gt;Node4 -->
<g id="edge9_Node000007_Node000004" class="edge">
<title>Node7&#45;&gt;Node4</title>
<g id="a_edge9_Node000007_Node000004"><a xlink:title=" ">
<path fill="none" stroke="#63b8ff" d="M528.68,-239.88C535.13,-236.99 541.79,-233.94 548,-231 566.96,-222.03 587.8,-211.62 605.17,-202.79"/>
<polygon fill="#63b8ff" stroke="#63b8ff" points="607.1,-205.73 614.42,-198.07 603.92,-199.5 607.1,-205.73"/>
</a>
</g>
</g>
<!-- Node8&#45;&gt;Node4 -->
<g id="edge11_Node000008_Node000004" class="edge">
<title>Node8&#45;&gt;Node4</title>
<g id="a_edge11_Node000008_Node000004"><a xlink:title=" ">
<path fill="none" stroke="#63b8ff" d="M548.4,-198.27C556.68,-196.94 565.32,-195.55 573.87,-194.18"/>
<polygon fill="#63b8ff" stroke="#63b8ff" points="574.52,-197.62 583.84,-192.58 573.41,-190.71 574.52,-197.62"/>
</a>
</g>
</g>
<!-- Node9&#45;&gt;Node4 -->
<g id="edge13_Node000009_Node000004" class="edge">
<title>Node9&#45;&gt;Node4</title>
<g id="a_edge13_Node000009_Node000004"><a xlink:title=" ">
<path fill="none" stroke="#63b8ff" d="M548.4,-167.73C556.68,-169.06 565.32,-170.45 573.87,-171.82"/>
<polygon fill="#63b8ff" stroke="#63b8ff" points="573.41,-175.29 583.84,-173.42 574.52,-168.38 573.41,-175.29"/>
</a>
</g>
</g>
<!-- Node10&#45;&gt;Node4 -->
<g id="edge15_Node000010_Node000004" class="edge">
<title>Node10&#45;&gt;Node4</title>
<g id="a_edge15_Node000010_Node000004"><a xlink:title=" ">
<path fill="none" stroke="#63b8ff" d="M528.68,-126.12C535.13,-129.01 541.79,-132.06 548,-135 566.96,-143.97 587.8,-154.38 605.17,-163.21"/>
<polygon fill="#63b8ff" stroke="#63b8ff" points="603.92,-166.5 614.42,-167.93 607.1,-160.27 603.92,-166.5"/>
</a>
</g>
</g>
<!-- Node11&#45;&gt;Node4 -->
<g id="edge17_Node000011_Node000004" class="edge">
<title>Node11&#45;&gt;Node4</title>
<g id="a_edge17_Node000011_Node000004"><a xlink:title=" ">
<path fill="none" stroke="#63b8ff" d="M532.71,-78.09C538.02,-80.76 543.27,-83.74 548,-87 578.25,-107.84 607.15,-139 625.08,-160.13"/>
<polygon fill="#63b8ff" stroke="#63b8ff" points="622.53,-162.52 631.62,-167.96 627.9,-158.04 622.53,-162.52"/>
</a>
</g>
</g>
<!-- Node12&#45;&gt;Node4 -->
<g id="edge19_Node000012_Node000004" class="edge">
<title>Node12&#45;&gt;Node4</title>
<g id="a_edge19_Node000012_Node000004"><a xlink:title=" ">
<path fill="none" stroke="#63b8ff" d="M534.74,-30.02C539.46,-32.64 544,-35.62 548,-39 587.9,-72.72 617.71,-127.21 632.69,-158.6"/>
<polygon fill="#63b8ff" stroke="#63b8ff" points="629.64,-160.33 637.03,-167.92 635.99,-157.38 629.64,-160.33"/>
</a>
</g>
</g>
</g>
</svg>
