<?xml version="1.0" encoding="UTF-8" standalone="no"?>
<!DOCTYPE svg PUBLIC "-//W3C//DTD SVG 1.1//EN"
 "http://www.w3.org/Graphics/SVG/1.1/DTD/svg11.dtd">
<!-- Generated by graphviz version 2.43.0 (0)
 -->
<!-- Title: lci::net_post_sends_x::call Pages: 1 -->
<svg width="567pt" height="326pt"
 viewBox="0.00 0.00 567.00 326.00" xmlns="http://www.w3.org/2000/svg" xmlns:xlink="http://www.w3.org/1999/xlink">
<g id="graph0" class="graph" transform="scale(1 1) rotate(0) translate(4 322)">
<title>lci::net_post_sends_x::call</title>
<!-- Node1 -->
<g id="Node000001" class="node">
<title>Node1</title>
<g id="a_Node000001"><a xlink:title=" ">
<polygon fill="#999999" stroke="#666666" points="110,-171 0,-171 0,-141 110,-141 110,-171"/>
<text text-anchor="start" x="8" y="-159" font-family="Helvetica,sans-Serif" font-size="10.00">lci::net_post_sends</text>
<text text-anchor="middle" x="55" y="-148" font-family="Helvetica,sans-Serif" font-size="10.00">_x::call</text>
</a>
</g>
</g>
<!-- Node2 -->
<g id="Node000002" class="node">
<title>Node2</title>
<g id="a_Node000002"><a xlink:href="../../d1/d3d/classlci_1_1net__post__sends__x.html#aa9322a1f885bd34fc0a07dbf21f57402" target="_top" xlink:title=" ">
<polygon fill="white" stroke="#666666" points="402,-318 292,-318 292,-288 402,-288 402,-318"/>
<text text-anchor="start" x="300" y="-306" font-family="Helvetica,sans-Serif" font-size="10.00">lci::net_post_sends</text>
<text text-anchor="middle" x="347" y="-295" font-family="Helvetica,sans-Serif" font-size="10.00">_x::buffer</text>
</a>
</g>
</g>
<!-- Node1&#45;&gt;Node2 -->
<g id="edge1_Node000001_Node000002" class="edge">
<title>Node1&#45;&gt;Node2</title>
<g id="a_edge1_Node000001_Node000002"><a xlink:title=" ">
<path fill="none" stroke="#63b8ff" d="M66.69,-171.14C81.95,-191.63 111.92,-227.93 146,-248 187.71,-272.57 240.75,-286.5 281.74,-294.19"/>
<polygon fill="#63b8ff" stroke="#63b8ff" points="281.15,-297.64 291.61,-295.97 282.39,-290.75 281.15,-297.64"/>
</a>
</g>
</g>
<!-- Node4 -->
<g id="Node000004" class="node">
<title>Node4</title>
<g id="a_Node000004"><a xlink:href="../../d1/d3d/classlci_1_1net__post__sends__x.html#ad269b5157059de30e77c641ebe006204" target="_top" xlink:title=" ">
<polygon fill="white" stroke="#666666" points="256,-193 146,-193 146,-163 256,-163 256,-193"/>
<text text-anchor="start" x="154" y="-181" font-family="Helvetica,sans-Serif" font-size="10.00">lci::net_post_sends</text>
<text text-anchor="middle" x="201" y="-170" font-family="Helvetica,sans-Serif" font-size="10.00">_x::call_impl</text>
</a>
</g>
</g>
<!-- Node1&#45;&gt;Node4 -->
<g id="edge3_Node000001_Node000004" class="edge">
<title>Node1&#45;&gt;Node4</title>
<g id="a_edge3_Node000001_Node000004"><a xlink:title=" ">
<path fill="none" stroke="#63b8ff" d="M110.03,-164.25C118.4,-165.53 127.13,-166.87 135.7,-168.18"/>
<polygon fill="#63b8ff" stroke="#63b8ff" points="135.25,-171.65 145.67,-169.7 136.31,-164.73 135.25,-171.65"/>
</a>
</g>
</g>
<!-- Node5 -->
<g id="Node000005" class="node">
<title>Node5</title>
<g id="a_Node000005"><a xlink:href="../../d1/d3d/classlci_1_1net__post__sends__x.html#ae73a61fc90b863c6070a3f64fc9984d9" target="_top" xlink:title=" ">
<polygon fill="white" stroke="#666666" points="402,-270 292,-270 292,-240 402,-240 402,-270"/>
<text text-anchor="start" x="300" y="-258" font-family="Helvetica,sans-Serif" font-size="10.00">lci::net_post_sends</text>
<text text-anchor="middle" x="347" y="-247" font-family="Helvetica,sans-Serif" font-size="10.00">_x::device</text>
</a>
</g>
</g>
<!-- Node1&#45;&gt;Node5 -->
<g id="edge17_Node000001_Node000005" class="edge">
<title>Node1&#45;&gt;Node5</title>
<g id="a_edge17_Node000001_Node000005"><a xlink:title=" ">
<path fill="none" stroke="#63b8ff" d="M72.16,-171.25C89.16,-186.39 117.38,-209 146,-221 189.27,-239.14 241.66,-247.61 281.97,-251.56"/>
<polygon fill="#63b8ff" stroke="#63b8ff" points="281.66,-255.04 291.94,-252.47 282.3,-248.07 281.66,-255.04"/>
</a>
</g>
</g>
<!-- Node6 -->
<g id="Node000006" class="node">
<title>Node6</title>
<g id="a_Node000006"><a xlink:href="../../d1/d3d/classlci_1_1net__post__sends__x.html#a3d933ffdfba399bf41fef2fa2877ebde" target="_top" xlink:title=" ">
<polygon fill="white" stroke="#666666" points="402,-222 292,-222 292,-192 402,-192 402,-222"/>
<text text-anchor="start" x="300" y="-210" font-family="Helvetica,sans-Serif" font-size="10.00">lci::net_post_sends</text>
<text text-anchor="middle" x="347" y="-199" font-family="Helvetica,sans-Serif" font-size="10.00">_x::endpoint</text>
</a>
</g>
</g>
<!-- Node1&#45;&gt;Node6 -->
<g id="edge18_Node000001_Node000006" class="edge">
<title>Node1&#45;&gt;Node6</title>
<g id="a_edge18_Node000001_Node000006"><a xlink:title=" ">
<path fill="none" stroke="#63b8ff" d="M78.54,-171.14C96.09,-182 121.51,-195.78 146,-202 190.28,-213.25 241.87,-214.26 281.56,-212.58"/>
<polygon fill="#63b8ff" stroke="#63b8ff" points="281.82,-216.07 291.64,-212.08 281.48,-209.08 281.82,-216.07"/>
</a>
</g>
</g>
<!-- Node7 -->
<g id="Node000007" class="node">
<title>Node7</title>
<g id="a_Node000007"><a xlink:href="../../d1/d3d/classlci_1_1net__post__sends__x.html#a20055e2fb95dae53a7b073e64b82a3b8" target="_top" xlink:title=" ">
<polygon fill="white" stroke="#666666" points="402,-174 292,-174 292,-144 402,-144 402,-174"/>
<text text-anchor="start" x="300" y="-162" font-family="Helvetica,sans-Serif" font-size="10.00">lci::net_post_sends</text>
<text text-anchor="middle" x="347" y="-151" font-family="Helvetica,sans-Serif" font-size="10.00">_x::imm_data</text>
</a>
</g>
</g>
<!-- Node1&#45;&gt;Node7 -->
<g id="edge19_Node000001_Node000007" class="edge">
<title>Node1&#45;&gt;Node7</title>
<g id="a_edge19_Node000001_Node000007"><a xlink:title=" ">
<path fill="none" stroke="#63b8ff" d="M110.34,-154.35C150.57,-153.4 206.71,-152.63 256,-154 264.32,-154.23 273.07,-154.58 281.71,-154.99"/>
<polygon fill="#63b8ff" stroke="#63b8ff" points="281.6,-158.49 291.77,-155.5 281.95,-151.5 281.6,-158.49"/>
</a>
</g>
</g>
<!-- Node8 -->
<g id="Node000008" class="node">
<title>Node8</title>
<g id="a_Node000008"><a xlink:href="../../d1/d3d/classlci_1_1net__post__sends__x.html#a6bf93fd502e07d13ee845942957714ce" target="_top" xlink:title=" ">
<polygon fill="white" stroke="#666666" points="402,-126 292,-126 292,-96 402,-96 402,-126"/>
<text text-anchor="start" x="300" y="-114" font-family="Helvetica,sans-Serif" font-size="10.00">lci::net_post_sends</text>
<text text-anchor="middle" x="347" y="-103" font-family="Helvetica,sans-Serif" font-size="10.00">_x::rank</text>
</a>
</g>
</g>
<!-- Node1&#45;&gt;Node8 -->
<g id="edge20_Node000001_Node000008" class="edge">
<title>Node1&#45;&gt;Node8</title>
<g id="a_edge20_Node000001_Node000008"><a xlink:title=" ">
<path fill="none" stroke="#63b8ff" d="M110.21,-147.59C158.77,-140.05 230.08,-128.99 281.55,-121"/>
<polygon fill="#63b8ff" stroke="#63b8ff" points="282.22,-124.44 291.57,-119.45 281.15,-117.52 282.22,-124.44"/>
</a>
</g>
</g>
<!-- Node9 -->
<g id="Node000009" class="node">
<title>Node9</title>
<g id="a_Node000009"><a xlink:href="../../d1/d3d/classlci_1_1net__post__sends__x.html#a57897b3459e48fd421a98b7b830a3071" target="_top" xlink:title=" ">
<polygon fill="white" stroke="#666666" points="402,-78 292,-78 292,-48 402,-48 402,-78"/>
<text text-anchor="start" x="300" y="-66" font-family="Helvetica,sans-Serif" font-size="10.00">lci::net_post_sends</text>
<text text-anchor="middle" x="347" y="-55" font-family="Helvetica,sans-Serif" font-size="10.00">_x::runtime</text>
</a>
</g>
</g>
<!-- Node1&#45;&gt;Node9 -->
<g id="edge21_Node000001_Node000009" class="edge">
<title>Node1&#45;&gt;Node9</title>
<g id="a_edge21_Node000001_Node000009"><a xlink:title=" ">
<path fill="none" stroke="#63b8ff" d="M92.51,-140.95C108.77,-134.48 128.22,-127.02 146,-121 190.98,-105.76 242.46,-90.89 281.93,-80.02"/>
<polygon fill="#63b8ff" stroke="#63b8ff" points="282.97,-83.37 291.69,-77.35 281.12,-76.61 282.97,-83.37"/>
</a>
</g>
</g>
<!-- Node10 -->
<g id="Node000010" class="node">
<title>Node10</title>
<g id="a_Node000010"><a xlink:href="../../d1/d3d/classlci_1_1net__post__sends__x.html#a27826391e036fa8b74cd601331ac0ba7" target="_top" xlink:title=" ">
<polygon fill="white" stroke="#666666" points="402,-30 292,-30 292,0 402,0 402,-30"/>
<text text-anchor="start" x="300" y="-18" font-family="Helvetica,sans-Serif" font-size="10.00">lci::net_post_sends</text>
<text text-anchor="middle" x="347" y="-7" font-family="Helvetica,sans-Serif" font-size="10.00">_x::size</text>
</a>
</g>
</g>
<!-- Node1&#45;&gt;Node10 -->
<g id="edge22_Node000001_Node000010" class="edge">
<title>Node1&#45;&gt;Node10</title>
<g id="a_edge22_Node000001_Node000010"><a xlink:title=" ">
<path fill="none" stroke="#63b8ff" d="M71.02,-140.97C87.95,-124.74 116.94,-99.05 146,-83 188.86,-59.33 241.4,-41.86 281.88,-30.55"/>
<polygon fill="#63b8ff" stroke="#63b8ff" points="282.91,-33.9 291.63,-27.88 281.06,-27.15 282.91,-33.9"/>
</a>
</g>
</g>
<!-- Node3 -->
<g id="Node000003" class="node">
<title>Node3</title>
<g id="a_Node000003"><a xlink:href="../../d1/d3d/classlci_1_1net__post__sends__x.html#a65ac3d2f92cb4258de0946770899e8be" target="_top" xlink:title=" ">
<polygon fill="white" stroke="#666666" points="559,-174 438,-174 438,-144 559,-144 559,-174"/>
<text text-anchor="start" x="446" y="-162" font-family="Helvetica,sans-Serif" font-size="10.00">lci::net_post_sends</text>
<text text-anchor="middle" x="498.5" y="-151" font-family="Helvetica,sans-Serif" font-size="10.00">_x::net_post_sends_x</text>
</a>
</g>
</g>
<!-- Node2&#45;&gt;Node3 -->
<g id="edge2_Node000002_Node000003" class="edge">
<title>Node2&#45;&gt;Node3</title>
<g id="a_edge2_Node000002_Node000003"><a xlink:title=" ">
<path fill="none" stroke="#63b8ff" d="M387.9,-287.94C392.86,-285.3 397.7,-282.33 402,-279 437.04,-251.89 466.87,-209.33 483.47,-182.86"/>
<polygon fill="#63b8ff" stroke="#63b8ff" points="486.52,-184.57 488.77,-174.21 480.56,-180.91 486.52,-184.57"/>
</a>
</g>
</g>
<!-- Node4&#45;&gt;Node2 -->
<g id="edge4_Node000004_Node000002" class="edge">
<title>Node4&#45;&gt;Node2</title>
<g id="a_edge4_Node000004_Node000002"><a xlink:title=" ">
<path fill="none" stroke="#63b8ff" d="M212.31,-193.19C227.57,-214.71 258.04,-254.21 292,-279 293.82,-280.33 295.72,-281.6 297.68,-282.83"/>
<polygon fill="#63b8ff" stroke="#63b8ff" points="296.13,-285.97 306.55,-287.85 299.58,-279.88 296.13,-285.97"/>
</a>
</g>
</g>
<!-- Node4&#45;&gt;Node5 -->
<g id="edge5_Node000004_Node000005" class="edge">
<title>Node4&#45;&gt;Node5</title>
<g id="a_edge5_Node000004_Node000005"><a xlink:title=" ">
<path fill="none" stroke="#63b8ff" d="M226.03,-193.16C243.92,-204.2 269.1,-219.22 292,-231 295.06,-232.57 298.24,-234.15 301.46,-235.69"/>
<polygon fill="#63b8ff" stroke="#63b8ff" points="300.04,-238.89 310.58,-239.95 303,-232.55 300.04,-238.89"/>
</a>
</g>
</g>
<!-- Node4&#45;&gt;Node6 -->
<g id="edge7_Node000004_Node000006" class="edge">
<title>Node4&#45;&gt;Node6</title>
<g id="a_edge7_Node000004_Node000006"><a xlink:title=" ">
<path fill="none" stroke="#63b8ff" d="M256.03,-188.88C264.4,-190.57 273.13,-192.32 281.7,-194.05"/>
<polygon fill="#63b8ff" stroke="#63b8ff" points="281.17,-197.51 291.67,-196.06 282.56,-190.65 281.17,-197.51"/>
</a>
</g>
</g>
<!-- Node4&#45;&gt;Node7 -->
<g id="edge9_Node000004_Node000007" class="edge">
<title>Node4&#45;&gt;Node7</title>
<g id="a_edge9_Node000004_Node000007"><a xlink:title=" ">
<path fill="none" stroke="#63b8ff" d="M256.03,-170.87C264.4,-169.77 273.13,-168.62 281.7,-167.48"/>
<polygon fill="#63b8ff" stroke="#63b8ff" points="282.21,-170.95 291.67,-166.17 281.3,-164.01 282.21,-170.95"/>
</a>
</g>
</g>
<!-- Node4&#45;&gt;Node8 -->
<g id="edge11_Node000004_Node000008" class="edge">
<title>Node4&#45;&gt;Node8</title>
<g id="a_edge11_Node000004_Node000008"><a xlink:title=" ">
<path fill="none" stroke="#63b8ff" d="M233.14,-162.86C250.42,-154.53 272.34,-144.06 292,-135 295.37,-133.45 298.86,-131.86 302.37,-130.27"/>
<polygon fill="#63b8ff" stroke="#63b8ff" points="303.97,-133.39 311.66,-126.09 301.1,-127 303.97,-133.39"/>
</a>
</g>
</g>
<!-- Node4&#45;&gt;Node9 -->
<g id="edge13_Node000004_Node000009" class="edge">
<title>Node4&#45;&gt;Node9</title>
<g id="a_edge13_Node000004_Node000009"><a xlink:title=" ">
<path fill="none" stroke="#63b8ff" d="M214,-162.74C230.04,-143.12 260.19,-108.98 292,-87 294.07,-85.57 296.23,-84.2 298.46,-82.88"/>
<polygon fill="#63b8ff" stroke="#63b8ff" points="300.17,-85.93 307.28,-78.08 296.82,-79.79 300.17,-85.93"/>
</a>
</g>
</g>
<!-- Node4&#45;&gt;Node10 -->
<g id="edge15_Node000004_Node000010" class="edge">
<title>Node4&#45;&gt;Node10</title>
<g id="a_edge15_Node000004_Node000010"><a xlink:title=" ">
<path fill="none" stroke="#63b8ff" d="M208.39,-162.57C220.7,-134.49 250.26,-74.68 292,-39 293.34,-37.85 294.74,-36.75 296.2,-35.7"/>
<polygon fill="#63b8ff" stroke="#63b8ff" points="298.39,-38.45 304.95,-30.14 294.63,-32.55 298.39,-38.45"/>
</a>
</g>
</g>
<!-- Node5&#45;&gt;Node3 -->
<g id="edge6_Node000005_Node000003" class="edge">
<title>Node5&#45;&gt;Node3</title>
<g id="a_edge6_Node000005_Node000003"><a xlink:title=" ">
<path fill="none" stroke="#63b8ff" d="M384.88,-239.97C390.72,-237.2 396.61,-234.18 402,-231 427.25,-216.13 453.68,-195.78 472.32,-180.5"/>
<polygon fill="#63b8ff" stroke="#63b8ff" points="474.59,-183.17 480.05,-174.09 470.12,-177.78 474.59,-183.17"/>
</a>
</g>
</g>
<!-- Node6&#45;&gt;Node3 -->
<g id="edge8_Node000006_Node000003" class="edge">
<title>Node6&#45;&gt;Node3</title>
<g id="a_edge8_Node000006_Node000003"><a xlink:title=" ">
<path fill="none" stroke="#63b8ff" d="M394.89,-191.94C409.5,-187.25 425.77,-182.03 440.97,-177.15"/>
<polygon fill="#63b8ff" stroke="#63b8ff" points="442.32,-180.39 450.77,-174 440.18,-173.73 442.32,-180.39"/>
</a>
</g>
</g>
<!-- Node7&#45;&gt;Node3 -->
<g id="edge10_Node000007_Node000003" class="edge">
<title>Node7&#45;&gt;Node3</title>
<g id="a_edge10_Node000007_Node000003"><a xlink:title=" ">
<path fill="none" stroke="#63b8ff" d="M402.4,-159C410.59,-159 419.13,-159 427.59,-159"/>
<polygon fill="#63b8ff" stroke="#63b8ff" points="427.84,-162.5 437.84,-159 427.84,-155.5 427.84,-162.5"/>
</a>
</g>
</g>
<!-- Node8&#45;&gt;Node3 -->
<g id="edge12_Node000008_Node000003" class="edge">
<title>Node8&#45;&gt;Node3</title>
<g id="a_edge12_Node000008_Node000003"><a xlink:title=" ">
<path fill="none" stroke="#63b8ff" d="M394.89,-126.06C409.5,-130.75 425.77,-135.97 440.97,-140.85"/>
<polygon fill="#63b8ff" stroke="#63b8ff" points="440.18,-144.27 450.77,-144 442.32,-137.61 440.18,-144.27"/>
</a>
</g>
</g>
<!-- Node9&#45;&gt;Node3 -->
<g id="edge14_Node000009_Node000003" class="edge">
<title>Node9&#45;&gt;Node3</title>
<g id="a_edge14_Node000009_Node000003"><a xlink:title=" ">
<path fill="none" stroke="#63b8ff" d="M384.88,-78.03C390.72,-80.8 396.61,-83.82 402,-87 427.25,-101.87 453.68,-122.22 472.32,-137.5"/>
<polygon fill="#63b8ff" stroke="#63b8ff" points="470.12,-140.22 480.05,-143.91 474.59,-134.83 470.12,-140.22"/>
</a>
</g>
</g>
<!-- Node10&#45;&gt;Node3 -->
<g id="edge16_Node000010_Node000003" class="edge">
<title>Node10&#45;&gt;Node3</title>
<g id="a_edge16_Node000010_Node000003"><a xlink:title=" ">
<path fill="none" stroke="#63b8ff" d="M387.9,-30.06C392.86,-32.7 397.7,-35.67 402,-39 437.04,-66.11 466.87,-108.67 483.47,-135.14"/>
<polygon fill="#63b8ff" stroke="#63b8ff" points="480.56,-137.09 488.77,-143.79 486.52,-133.43 480.56,-137.09"/>
</a>
</g>
</g>
</g>
</svg>
