<?xml version="1.0" encoding="UTF-8" standalone="no"?>
<!DOCTYPE svg PUBLIC "-//W3C//DTD SVG 1.1//EN"
 "http://www.w3.org/Graphics/SVG/1.1/DTD/svg11.dtd">
<!-- Generated by graphviz version 2.43.0 (0)
 -->
<!-- Title: lci::net_post_sends_x::call_impl Pages: 1 -->
<svg width="421pt" height="326pt"
 viewBox="0.00 0.00 421.00 326.00" xmlns="http://www.w3.org/2000/svg" xmlns:xlink="http://www.w3.org/1999/xlink">
<g id="graph0" class="graph" transform="scale(1 1) rotate(0) translate(4 322)">
<title>lci::net_post_sends_x::call_impl</title>
<!-- Node1 -->
<g id="Node000001" class="node">
<title>Node1</title>
<g id="a_Node000001"><a xlink:title=" ">
<polygon fill="#999999" stroke="#666666" points="110,-174 0,-174 0,-144 110,-144 110,-174"/>
<text text-anchor="start" x="8" y="-162" font-family="Helvetica,sans-Serif" font-size="10.00">lci::net_post_sends</text>
<text text-anchor="middle" x="55" y="-151" font-family="Helvetica,sans-Serif" font-size="10.00">_x::call_impl</text>
</a>
</g>
</g>
<!-- Node2 -->
<g id="Node000002" class="node">
<title>Node2</title>
<g id="a_Node000002"><a xlink:href="../../d1/d3d/classlci_1_1net__post__sends__x.html#aa9322a1f885bd34fc0a07dbf21f57402" target="_top" xlink:title=" ">
<polygon fill="white" stroke="#666666" points="256,-318 146,-318 146,-288 256,-288 256,-318"/>
<text text-anchor="start" x="154" y="-306" font-family="Helvetica,sans-Serif" font-size="10.00">lci::net_post_sends</text>
<text text-anchor="middle" x="201" y="-295" font-family="Helvetica,sans-Serif" font-size="10.00">_x::buffer</text>
</a>
</g>
</g>
<!-- Node1&#45;&gt;Node2 -->
<g id="edge1_Node000001_Node000002" class="edge">
<title>Node1&#45;&gt;Node2</title>
<g id="a_edge1_Node000001_Node000002"><a xlink:title=" ">
<path fill="none" stroke="#63b8ff" d="M64.01,-174.24C77.77,-199.15 108.12,-248.82 146,-279 147.56,-280.25 149.2,-281.44 150.9,-282.59"/>
<polygon fill="#63b8ff" stroke="#63b8ff" points="149.35,-285.74 159.73,-287.9 152.96,-279.75 149.35,-285.74"/>
</a>
</g>
</g>
<!-- Node4 -->
<g id="Node000004" class="node">
<title>Node4</title>
<g id="a_Node000004"><a xlink:href="../../d1/d3d/classlci_1_1net__post__sends__x.html#ae73a61fc90b863c6070a3f64fc9984d9" target="_top" xlink:title=" ">
<polygon fill="white" stroke="#666666" points="256,-270 146,-270 146,-240 256,-240 256,-270"/>
<text text-anchor="start" x="154" y="-258" font-family="Helvetica,sans-Serif" font-size="10.00">lci::net_post_sends</text>
<text text-anchor="middle" x="201" y="-247" font-family="Helvetica,sans-Serif" font-size="10.00">_x::device</text>
</a>
</g>
</g>
<!-- Node1&#45;&gt;Node4 -->
<g id="edge3_Node000001_Node000004" class="edge">
<title>Node1&#45;&gt;Node4</title>
<g id="a_edge3_Node000001_Node000004"><a xlink:title=" ">
<path fill="none" stroke="#63b8ff" d="M72.29,-174.18C89.62,-189.8 118.31,-214.15 146,-231 148.47,-232.5 151.04,-233.96 153.67,-235.37"/>
<polygon fill="#63b8ff" stroke="#63b8ff" points="152.25,-238.57 162.76,-239.96 155.41,-232.33 152.25,-238.57"/>
</a>
</g>
</g>
<!-- Node5 -->
<g id="Node000005" class="node">
<title>Node5</title>
<g id="a_Node000005"><a xlink:href="../../d1/d3d/classlci_1_1net__post__sends__x.html#a3d933ffdfba399bf41fef2fa2877ebde" target="_top" xlink:title=" ">
<polygon fill="white" stroke="#666666" points="256,-222 146,-222 146,-192 256,-192 256,-222"/>
<text text-anchor="start" x="154" y="-210" font-family="Helvetica,sans-Serif" font-size="10.00">lci::net_post_sends</text>
<text text-anchor="middle" x="201" y="-199" font-family="Helvetica,sans-Serif" font-size="10.00">_x::endpoint</text>
</a>
</g>
</g>
<!-- Node1&#45;&gt;Node5 -->
<g id="edge5_Node000001_Node000005" class="edge">
<title>Node1&#45;&gt;Node5</title>
<g id="a_edge5_Node000001_Node000005"><a xlink:title=" ">
<path fill="none" stroke="#63b8ff" d="M101.17,-174.06C115.11,-178.7 130.61,-183.87 145.13,-188.71"/>
<polygon fill="#63b8ff" stroke="#63b8ff" points="144.4,-192.16 154.99,-192 146.61,-185.51 144.4,-192.16"/>
</a>
</g>
</g>
<!-- Node6 -->
<g id="Node000006" class="node">
<title>Node6</title>
<g id="a_Node000006"><a xlink:href="../../d1/d3d/classlci_1_1net__post__sends__x.html#a20055e2fb95dae53a7b073e64b82a3b8" target="_top" xlink:title=" ">
<polygon fill="white" stroke="#666666" points="256,-174 146,-174 146,-144 256,-144 256,-174"/>
<text text-anchor="start" x="154" y="-162" font-family="Helvetica,sans-Serif" font-size="10.00">lci::net_post_sends</text>
<text text-anchor="middle" x="201" y="-151" font-family="Helvetica,sans-Serif" font-size="10.00">_x::imm_data</text>
</a>
</g>
</g>
<!-- Node1&#45;&gt;Node6 -->
<g id="edge7_Node000001_Node000006" class="edge">
<title>Node1&#45;&gt;Node6</title>
<g id="a_edge7_Node000001_Node000006"><a xlink:title=" ">
<path fill="none" stroke="#63b8ff" d="M110.03,-159C118.31,-159 126.94,-159 135.42,-159"/>
<polygon fill="#63b8ff" stroke="#63b8ff" points="135.67,-162.5 145.67,-159 135.67,-155.5 135.67,-162.5"/>
</a>
</g>
</g>
<!-- Node7 -->
<g id="Node000007" class="node">
<title>Node7</title>
<g id="a_Node000007"><a xlink:href="../../d1/d3d/classlci_1_1net__post__sends__x.html#a6bf93fd502e07d13ee845942957714ce" target="_top" xlink:title=" ">
<polygon fill="white" stroke="#666666" points="256,-126 146,-126 146,-96 256,-96 256,-126"/>
<text text-anchor="start" x="154" y="-114" font-family="Helvetica,sans-Serif" font-size="10.00">lci::net_post_sends</text>
<text text-anchor="middle" x="201" y="-103" font-family="Helvetica,sans-Serif" font-size="10.00">_x::rank</text>
</a>
</g>
</g>
<!-- Node1&#45;&gt;Node7 -->
<g id="edge9_Node000001_Node000007" class="edge">
<title>Node1&#45;&gt;Node7</title>
<g id="a_edge9_Node000001_Node000007"><a xlink:title=" ">
<path fill="none" stroke="#63b8ff" d="M101.17,-143.94C115.11,-139.3 130.61,-134.13 145.13,-129.29"/>
<polygon fill="#63b8ff" stroke="#63b8ff" points="146.61,-132.49 154.99,-126 144.4,-125.84 146.61,-132.49"/>
</a>
</g>
</g>
<!-- Node8 -->
<g id="Node000008" class="node">
<title>Node8</title>
<g id="a_Node000008"><a xlink:href="../../d1/d3d/classlci_1_1net__post__sends__x.html#a57897b3459e48fd421a98b7b830a3071" target="_top" xlink:title=" ">
<polygon fill="white" stroke="#666666" points="256,-78 146,-78 146,-48 256,-48 256,-78"/>
<text text-anchor="start" x="154" y="-66" font-family="Helvetica,sans-Serif" font-size="10.00">lci::net_post_sends</text>
<text text-anchor="middle" x="201" y="-55" font-family="Helvetica,sans-Serif" font-size="10.00">_x::runtime</text>
</a>
</g>
</g>
<!-- Node1&#45;&gt;Node8 -->
<g id="edge11_Node000001_Node000008" class="edge">
<title>Node1&#45;&gt;Node8</title>
<g id="a_edge11_Node000001_Node000008"><a xlink:title=" ">
<path fill="none" stroke="#63b8ff" d="M72.29,-143.82C89.62,-128.2 118.31,-103.85 146,-87 148.47,-85.5 151.04,-84.04 153.67,-82.63"/>
<polygon fill="#63b8ff" stroke="#63b8ff" points="155.41,-85.67 162.76,-78.04 152.25,-79.43 155.41,-85.67"/>
</a>
</g>
</g>
<!-- Node9 -->
<g id="Node000009" class="node">
<title>Node9</title>
<g id="a_Node000009"><a xlink:href="../../d1/d3d/classlci_1_1net__post__sends__x.html#a27826391e036fa8b74cd601331ac0ba7" target="_top" xlink:title=" ">
<polygon fill="white" stroke="#666666" points="256,-30 146,-30 146,0 256,0 256,-30"/>
<text text-anchor="start" x="154" y="-18" font-family="Helvetica,sans-Serif" font-size="10.00">lci::net_post_sends</text>
<text text-anchor="middle" x="201" y="-7" font-family="Helvetica,sans-Serif" font-size="10.00">_x::size</text>
</a>
</g>
</g>
<!-- Node1&#45;&gt;Node9 -->
<g id="edge13_Node000001_Node000009" class="edge">
<title>Node1&#45;&gt;Node9</title>
<g id="a_edge13_Node000001_Node000009"><a xlink:title=" ">
<path fill="none" stroke="#63b8ff" d="M64.01,-143.76C77.77,-118.85 108.12,-69.18 146,-39 147.56,-37.75 149.2,-36.56 150.9,-35.41"/>
<polygon fill="#63b8ff" stroke="#63b8ff" points="152.96,-38.25 159.73,-30.1 149.35,-32.26 152.96,-38.25"/>
</a>
</g>
</g>
<!-- Node3 -->
<g id="Node000003" class="node">
<title>Node3</title>
<g id="a_Node000003"><a xlink:href="../../d1/d3d/classlci_1_1net__post__sends__x.html#a65ac3d2f92cb4258de0946770899e8be" target="_top" xlink:title=" ">
<polygon fill="white" stroke="#666666" points="413,-174 292,-174 292,-144 413,-144 413,-174"/>
<text text-anchor="start" x="300" y="-162" font-family="Helvetica,sans-Serif" font-size="10.00">lci::net_post_sends</text>
<text text-anchor="middle" x="352.5" y="-151" font-family="Helvetica,sans-Serif" font-size="10.00">_x::net_post_sends_x</text>
</a>
</g>
</g>
<!-- Node2&#45;&gt;Node3 -->
<g id="edge2_Node000002_Node000003" class="edge">
<title>Node2&#45;&gt;Node3</title>
<g id="a_edge2_Node000002_Node000003"><a xlink:title=" ">
<path fill="none" stroke="#63b8ff" d="M241.9,-287.94C246.86,-285.3 251.7,-282.33 256,-279 291.04,-251.89 320.87,-209.33 337.47,-182.86"/>
<polygon fill="#63b8ff" stroke="#63b8ff" points="340.52,-184.57 342.77,-174.21 334.56,-180.91 340.52,-184.57"/>
</a>
</g>
</g>
<!-- Node4&#45;&gt;Node3 -->
<g id="edge4_Node000004_Node000003" class="edge">
<title>Node4&#45;&gt;Node3</title>
<g id="a_edge4_Node000004_Node000003"><a xlink:title=" ">
<path fill="none" stroke="#63b8ff" d="M238.88,-239.97C244.72,-237.2 250.61,-234.18 256,-231 281.25,-216.13 307.68,-195.78 326.32,-180.5"/>
<polygon fill="#63b8ff" stroke="#63b8ff" points="328.59,-183.17 334.05,-174.09 324.12,-177.78 328.59,-183.17"/>
</a>
</g>
</g>
<!-- Node5&#45;&gt;Node3 -->
<g id="edge6_Node000005_Node000003" class="edge">
<title>Node5&#45;&gt;Node3</title>
<g id="a_edge6_Node000005_Node000003"><a xlink:title=" ">
<path fill="none" stroke="#63b8ff" d="M248.89,-191.94C263.5,-187.25 279.77,-182.03 294.97,-177.15"/>
<polygon fill="#63b8ff" stroke="#63b8ff" points="296.32,-180.39 304.77,-174 294.18,-173.73 296.32,-180.39"/>
</a>
</g>
</g>
<!-- Node6&#45;&gt;Node3 -->
<g id="edge8_Node000006_Node000003" class="edge">
<title>Node6&#45;&gt;Node3</title>
<g id="a_edge8_Node000006_Node000003"><a xlink:title=" ">
<path fill="none" stroke="#63b8ff" d="M256.4,-159C264.59,-159 273.13,-159 281.59,-159"/>
<polygon fill="#63b8ff" stroke="#63b8ff" points="281.84,-162.5 291.84,-159 281.84,-155.5 281.84,-162.5"/>
</a>
</g>
</g>
<!-- Node7&#45;&gt;Node3 -->
<g id="edge10_Node000007_Node000003" class="edge">
<title>Node7&#45;&gt;Node3</title>
<g id="a_edge10_Node000007_Node000003"><a xlink:title=" ">
<path fill="none" stroke="#63b8ff" d="M248.89,-126.06C263.5,-130.75 279.77,-135.97 294.97,-140.85"/>
<polygon fill="#63b8ff" stroke="#63b8ff" points="294.18,-144.27 304.77,-144 296.32,-137.61 294.18,-144.27"/>
</a>
</g>
</g>
<!-- Node8&#45;&gt;Node3 -->
<g id="edge12_Node000008_Node000003" class="edge">
<title>Node8&#45;&gt;Node3</title>
<g id="a_edge12_Node000008_Node000003"><a xlink:title=" ">
<path fill="none" stroke="#63b8ff" d="M238.88,-78.03C244.72,-80.8 250.61,-83.82 256,-87 281.25,-101.87 307.68,-122.22 326.32,-137.5"/>
<polygon fill="#63b8ff" stroke="#63b8ff" points="324.12,-140.22 334.05,-143.91 328.59,-134.83 324.12,-140.22"/>
</a>
</g>
</g>
<!-- Node9&#45;&gt;Node3 -->
<g id="edge14_Node000009_Node000003" class="edge">
<title>Node9&#45;&gt;Node3</title>
<g id="a_edge14_Node000009_Node000003"><a xlink:title=" ">
<path fill="none" stroke="#63b8ff" d="M241.9,-30.06C246.86,-32.7 251.7,-35.67 256,-39 291.04,-66.11 320.87,-108.67 337.47,-135.14"/>
<polygon fill="#63b8ff" stroke="#63b8ff" points="334.56,-137.09 342.77,-143.79 340.52,-133.43 334.56,-137.09"/>
</a>
</g>
</g>
</g>
</svg>
