<?xml version="1.0" encoding="UTF-8" standalone="no"?>
<!DOCTYPE svg PUBLIC "-//W3C//DTD SVG 1.1//EN"
 "http://www.w3.org/Graphics/SVG/1.1/DTD/svg11.dtd">
<!-- Generated by graphviz version 2.43.0 (0)
 -->
<!-- Title: lci::get_rank_n_x::call_impl Pages: 1 -->
<svg width="412pt" height="76pt"
 viewBox="0.00 0.00 412.00 75.50" xmlns="http://www.w3.org/2000/svg" xmlns:xlink="http://www.w3.org/1999/xlink">
<g id="graph0" class="graph" transform="scale(1 1) rotate(0) translate(4 71.5)">
<title>lci::get_rank_n_x::call_impl</title>
<!-- Node1 -->
<g id="Node000001" class="node">
<title>Node1</title>
<g id="a_Node000001"><a xlink:title=" ">
<polygon fill="#999999" stroke="#666666" points="404,-51 299,-51 299,-21 404,-21 404,-51"/>
<text text-anchor="start" x="307" y="-39" font-family="Helvetica,sans-Serif" font-size="10.00">lci::get_rank_n_x::</text>
<text text-anchor="middle" x="351.5" y="-28" font-family="Helvetica,sans-Serif" font-size="10.00">call_impl</text>
</a>
</g>
</g>
<!-- Node2 -->
<g id="Node000002" class="node">
<title>Node2</title>
<g id="a_Node000002"><a xlink:href="../../db/db4/classlci_1_1get__rank__n__x.html#a93794a0207bdeb2f4ae0ec4b09a94ccf" target="_top" xlink:title=" ">
<polygon fill="white" stroke="#666666" points="263,-45.5 141,-45.5 141,-26.5 263,-26.5 263,-45.5"/>
<text text-anchor="middle" x="202" y="-33.5" font-family="Helvetica,sans-Serif" font-size="10.00">lci::get_rank_n_x::call</text>
</a>
</g>
</g>
<!-- Node1&#45;&gt;Node2 -->
<g id="edge1_Node000001_Node000002" class="edge">
<title>Node1&#45;&gt;Node2</title>
<g id="a_edge1_Node000001_Node000002"><a xlink:title=" ">
<path fill="none" stroke="#63b8ff" d="M288.73,-36C280.27,-36 271.59,-36 263.16,-36"/>
<polygon fill="#63b8ff" stroke="#63b8ff" points="288.91,-39.5 298.91,-36 288.91,-32.5 288.91,-39.5"/>
</a>
</g>
</g>
<!-- Node3 -->
<g id="Node000003" class="node">
<title>Node3</title>
<g id="a_Node000003"><a xlink:href="../../d5/dd3/namespacelci.html#a6e99f95e9b71b259ea5078c23d0ff4b9" target="_top" xlink:title=" ">
<polygon fill="white" stroke="#666666" points="96.5,-67.5 8.5,-67.5 8.5,-48.5 96.5,-48.5 96.5,-67.5"/>
<text text-anchor="middle" x="52.5" y="-55.5" font-family="Helvetica,sans-Serif" font-size="10.00">lci::get_rank_n</text>
</a>
</g>
</g>
<!-- Node2&#45;&gt;Node3 -->
<g id="edge2_Node000002_Node000003" class="edge">
<title>Node2&#45;&gt;Node3</title>
<g id="a_edge2_Node000002_Node000003"><a xlink:title=" ">
<path fill="none" stroke="#63b8ff" d="M130.55,-46.51C119.07,-48.22 107.48,-49.95 96.9,-51.53"/>
<polygon fill="#63b8ff" stroke="#63b8ff" points="131.21,-49.95 140.58,-45.01 130.17,-43.03 131.21,-49.95"/>
</a>
</g>
</g>
<!-- Node4 -->
<g id="Node000004" class="node">
<title>Node4</title>
<g id="a_Node000004"><a xlink:href="../../db/db4/classlci_1_1get__rank__n__x.html#aa43d44e09389aa0cb17f9400ac157bf0" target="_top" xlink:title=" ">
<polygon fill="white" stroke="#666666" points="105,-30 0,-30 0,0 105,0 105,-30"/>
<text text-anchor="start" x="8" y="-18" font-family="Helvetica,sans-Serif" font-size="10.00">lci::get_rank_n_x::</text>
<text text-anchor="middle" x="52.5" y="-7" font-family="Helvetica,sans-Serif" font-size="10.00">operator()</text>
</a>
</g>
</g>
<!-- Node2&#45;&gt;Node4 -->
<g id="edge3_Node000002_Node000004" class="edge">
<title>Node2&#45;&gt;Node4</title>
<g id="a_edge3_Node000002_Node000004"><a xlink:title=" ">
<path fill="none" stroke="#63b8ff" d="M130.56,-25.97C121.98,-24.75 113.34,-23.52 105.1,-22.35"/>
<polygon fill="#63b8ff" stroke="#63b8ff" points="130.19,-29.45 140.58,-27.4 131.17,-22.52 130.19,-29.45"/>
</a>
</g>
</g>
</g>
</svg>
