<?xml version="1.0" encoding="UTF-8" standalone="no"?>
<!DOCTYPE svg PUBLIC "-//W3C//DTD SVG 1.1//EN"
 "http://www.w3.org/Graphics/SVG/1.1/DTD/svg11.dtd">
<!-- Generated by graphviz version 2.43.0 (0)
 -->
<!-- Title: lci::register_rcomp_x::call Pages: 1 -->
<svg width="258pt" height="76pt"
 viewBox="0.00 0.00 258.00 75.50" xmlns="http://www.w3.org/2000/svg" xmlns:xlink="http://www.w3.org/1999/xlink">
<g id="graph0" class="graph" transform="scale(1 1) rotate(0) translate(4 71.5)">
<title>lci::register_rcomp_x::call</title>
<!-- Node1 -->
<g id="Node000001" class="node">
<title>Node1</title>
<g id="a_Node000001"><a xlink:title=" ">
<polygon fill="#999999" stroke="#666666" points="250,-45.5 143,-45.5 143,-15.5 250,-15.5 250,-45.5"/>
<text text-anchor="start" x="151" y="-33.5" font-family="Helvetica,sans-Serif" font-size="10.00">lci::register_rcomp</text>
<text text-anchor="middle" x="196.5" y="-22.5" font-family="Helvetica,sans-Serif" font-size="10.00">_x::call</text>
</a>
</g>
</g>
<!-- Node2 -->
<g id="Node000002" class="node">
<title>Node2</title>
<g id="a_Node000002"><a xlink:href="../../d9/d4d/classlci_1_1register__rcomp__x.html#a4353e74a2ec09bb9c52ecf92858f7374" target="_top" xlink:title=" ">
<polygon fill="white" stroke="#666666" points="107,-67.5 0,-67.5 0,-37.5 107,-37.5 107,-67.5"/>
<text text-anchor="start" x="8" y="-55.5" font-family="Helvetica,sans-Serif" font-size="10.00">lci::register_rcomp</text>
<text text-anchor="middle" x="53.5" y="-44.5" font-family="Helvetica,sans-Serif" font-size="10.00">_x::operator()</text>
</a>
</g>
</g>
<!-- Node1&#45;&gt;Node2 -->
<g id="edge1_Node000001_Node000002" class="edge">
<title>Node1&#45;&gt;Node2</title>
<g id="a_edge1_Node000001_Node000002"><a xlink:title=" ">
<path fill="none" stroke="#63b8ff" d="M132.95,-40.26C124.3,-41.61 115.49,-42.98 107.05,-44.3"/>
<polygon fill="#63b8ff" stroke="#63b8ff" points="133.66,-43.69 143,-38.69 132.58,-36.78 133.66,-43.69"/>
</a>
</g>
</g>
<!-- Node3 -->
<g id="Node000003" class="node">
<title>Node3</title>
<g id="a_Node000003"><a xlink:href="../../d5/dd3/namespacelci.html#a7952c7d36886b256a2c4d9be1f63aa47" target="_top" xlink:title=" ">
<polygon fill="white" stroke="#666666" points="107,-19 0,-19 0,0 107,0 107,-19"/>
<text text-anchor="middle" x="53.5" y="-7" font-family="Helvetica,sans-Serif" font-size="10.00">lci::register_rcomp</text>
</a>
</g>
</g>
<!-- Node1&#45;&gt;Node3 -->
<g id="edge2_Node000001_Node000003" class="edge">
<title>Node1&#45;&gt;Node3</title>
<g id="a_edge2_Node000001_Node000003"><a xlink:title=" ">
<path fill="none" stroke="#63b8ff" d="M132.95,-21.18C124.3,-19.9 115.49,-18.58 107.05,-17.33"/>
<polygon fill="#63b8ff" stroke="#63b8ff" points="132.59,-24.67 143,-22.68 133.62,-17.75 132.59,-24.67"/>
</a>
</g>
</g>
</g>
</svg>
