<?xml version="1.0" encoding="UTF-8" standalone="no"?>
<!DOCTYPE svg PUBLIC "-//W3C//DTD SVG 1.1//EN"
 "http://www.w3.org/Graphics/SVG/1.1/DTD/svg11.dtd">
<!-- Generated by graphviz version 2.43.0 (0)
 -->
<!-- Title: lci::register_rcomp_x::call Pages: 1 -->
<svg width="556pt" height="134pt"
 viewBox="0.00 0.00 556.00 134.00" xmlns="http://www.w3.org/2000/svg" xmlns:xlink="http://www.w3.org/1999/xlink">
<g id="graph0" class="graph" transform="scale(1 1) rotate(0) translate(4 130)">
<title>lci::register_rcomp_x::call</title>
<!-- Node1 -->
<g id="Node000001" class="node">
<title>Node1</title>
<g id="a_Node000001"><a xlink:title=" ">
<polygon fill="#999999" stroke="#666666" points="107,-75 0,-75 0,-45 107,-45 107,-75"/>
<text text-anchor="start" x="8" y="-63" font-family="Helvetica,sans-Serif" font-size="10.00">lci::register_rcomp</text>
<text text-anchor="middle" x="53.5" y="-52" font-family="Helvetica,sans-Serif" font-size="10.00">_x::call</text>
</a>
</g>
</g>
<!-- Node2 -->
<g id="Node000002" class="node">
<title>Node2</title>
<g id="a_Node000002"><a xlink:href="../../d9/d4d/classlci_1_1register__rcomp__x.html#ad45fac95ccf80484e78a688ba830e515" target="_top" xlink:title=" ">
<polygon fill="white" stroke="#666666" points="250,-97 143,-97 143,-67 250,-67 250,-97"/>
<text text-anchor="start" x="151" y="-85" font-family="Helvetica,sans-Serif" font-size="10.00">lci::register_rcomp</text>
<text text-anchor="middle" x="196.5" y="-74" font-family="Helvetica,sans-Serif" font-size="10.00">_x::call_impl</text>
</a>
</g>
</g>
<!-- Node1&#45;&gt;Node2 -->
<g id="edge1_Node000001_Node000002" class="edge">
<title>Node1&#45;&gt;Node2</title>
<g id="a_edge1_Node000001_Node000002"><a xlink:title=" ">
<path fill="none" stroke="#63b8ff" d="M107,-68.19C115.44,-69.51 124.26,-70.88 132.9,-72.23"/>
<polygon fill="#63b8ff" stroke="#63b8ff" points="132.53,-75.72 142.95,-73.8 133.61,-68.8 132.53,-75.72"/>
</a>
</g>
</g>
<!-- Node3 -->
<g id="Node000003" class="node">
<title>Node3</title>
<g id="a_Node000003"><a xlink:href="../../d9/d4d/classlci_1_1register__rcomp__x.html#aba7005d022be13503b88a92124caabd2" target="_top" xlink:title=" ">
<polygon fill="white" stroke="#666666" points="393,-126 286,-126 286,-96 393,-96 393,-126"/>
<text text-anchor="start" x="294" y="-114" font-family="Helvetica,sans-Serif" font-size="10.00">lci::register_rcomp</text>
<text text-anchor="middle" x="339.5" y="-103" font-family="Helvetica,sans-Serif" font-size="10.00">_x::comp</text>
</a>
</g>
</g>
<!-- Node1&#45;&gt;Node3 -->
<g id="edge8_Node000001_Node000003" class="edge">
<title>Node1&#45;&gt;Node3</title>
<g id="a_edge8_Node000001_Node000003"><a xlink:title=" ">
<path fill="none" stroke="#63b8ff" d="M76.63,-75.13C93.87,-86 118.86,-99.77 143,-106 186.31,-117.17 236.81,-118.17 275.64,-116.51"/>
<polygon fill="#63b8ff" stroke="#63b8ff" points="275.94,-120 285.75,-116 275.59,-113 275.94,-120"/>
</a>
</g>
</g>
<!-- Node5 -->
<g id="Node000005" class="node">
<title>Node5</title>
<g id="a_Node000005"><a xlink:href="../../d9/d4d/classlci_1_1register__rcomp__x.html#aa52e2c7661e2b72b5d68c19405aa9875" target="_top" xlink:title=" ">
<polygon fill="white" stroke="#666666" points="393,-78 286,-78 286,-48 393,-48 393,-78"/>
<text text-anchor="start" x="294" y="-66" font-family="Helvetica,sans-Serif" font-size="10.00">lci::register_rcomp</text>
<text text-anchor="middle" x="339.5" y="-55" font-family="Helvetica,sans-Serif" font-size="10.00">_x::rcomp</text>
</a>
</g>
</g>
<!-- Node1&#45;&gt;Node5 -->
<g id="edge9_Node000001_Node000005" class="edge">
<title>Node1&#45;&gt;Node5</title>
<g id="a_edge9_Node000001_Node000005"><a xlink:title=" ">
<path fill="none" stroke="#63b8ff" d="M107.2,-58.36C146.55,-57.41 201.65,-56.64 250,-58 258.29,-58.23 267.02,-58.59 275.62,-59.01"/>
<polygon fill="#63b8ff" stroke="#63b8ff" points="275.47,-62.51 285.64,-59.52 275.83,-55.52 275.47,-62.51"/>
</a>
</g>
</g>
<!-- Node6 -->
<g id="Node000006" class="node">
<title>Node6</title>
<g id="a_Node000006"><a xlink:href="../../d9/d4d/classlci_1_1register__rcomp__x.html#aaae6e2cafee7ca0bea1cf2cc398ba8f1" target="_top" xlink:title=" ">
<polygon fill="white" stroke="#666666" points="393,-30 286,-30 286,0 393,0 393,-30"/>
<text text-anchor="start" x="294" y="-18" font-family="Helvetica,sans-Serif" font-size="10.00">lci::register_rcomp</text>
<text text-anchor="middle" x="339.5" y="-7" font-family="Helvetica,sans-Serif" font-size="10.00">_x::runtime</text>
</a>
</g>
</g>
<!-- Node1&#45;&gt;Node6 -->
<g id="edge10_Node000001_Node000006" class="edge">
<title>Node1&#45;&gt;Node6</title>
<g id="a_edge10_Node000001_Node000006"><a xlink:title=" ">
<path fill="none" stroke="#63b8ff" d="M107.25,-51.64C154.83,-44.1 224.87,-33 275.4,-25"/>
<polygon fill="#63b8ff" stroke="#63b8ff" points="276.22,-28.41 285.55,-23.39 275.12,-21.5 276.22,-28.41"/>
</a>
</g>
</g>
<!-- Node2&#45;&gt;Node3 -->
<g id="edge2_Node000002_Node000003" class="edge">
<title>Node2&#45;&gt;Node3</title>
<g id="a_edge2_Node000002_Node000003"><a xlink:title=" ">
<path fill="none" stroke="#63b8ff" d="M250,-92.8C258.44,-94.53 267.26,-96.35 275.9,-98.13"/>
<polygon fill="#63b8ff" stroke="#63b8ff" points="275.45,-101.61 285.95,-100.19 276.86,-94.75 275.45,-101.61"/>
</a>
</g>
</g>
<!-- Node2&#45;&gt;Node5 -->
<g id="edge4_Node000002_Node000005" class="edge">
<title>Node2&#45;&gt;Node5</title>
<g id="a_edge4_Node000002_Node000005"><a xlink:title=" ">
<path fill="none" stroke="#63b8ff" d="M250,-74.93C258.44,-73.79 267.26,-72.6 275.9,-71.43"/>
<polygon fill="#63b8ff" stroke="#63b8ff" points="276.51,-74.88 285.95,-70.08 275.58,-67.95 276.51,-74.88"/>
</a>
</g>
</g>
<!-- Node2&#45;&gt;Node6 -->
<g id="edge6_Node000002_Node000006" class="edge">
<title>Node2&#45;&gt;Node6</title>
<g id="a_edge6_Node000002_Node000006"><a xlink:title=" ">
<path fill="none" stroke="#63b8ff" d="M228.13,-66.9C245.13,-58.57 266.69,-48.11 286,-39 289.18,-37.5 292.47,-35.96 295.79,-34.42"/>
<polygon fill="#63b8ff" stroke="#63b8ff" points="297.51,-37.49 305.12,-30.12 294.57,-31.13 297.51,-37.49"/>
</a>
</g>
</g>
<!-- Node4 -->
<g id="Node000004" class="node">
<title>Node4</title>
<g id="a_Node000004"><a xlink:href="../../d9/d4d/classlci_1_1register__rcomp__x.html#aebaa9491189650087b16d26c11e36cd4" target="_top" xlink:title=" ">
<polygon fill="white" stroke="#666666" points="548,-78 429,-78 429,-48 548,-48 548,-78"/>
<text text-anchor="start" x="437" y="-66" font-family="Helvetica,sans-Serif" font-size="10.00">lci::register_rcomp</text>
<text text-anchor="middle" x="488.5" y="-55" font-family="Helvetica,sans-Serif" font-size="10.00">_x::register_rcomp_x</text>
</a>
</g>
</g>
<!-- Node3&#45;&gt;Node4 -->
<g id="edge3_Node000003_Node000004" class="edge">
<title>Node3&#45;&gt;Node4</title>
<g id="a_edge3_Node000003_Node000004"><a xlink:title=" ">
<path fill="none" stroke="#63b8ff" d="M386.61,-95.94C400.97,-91.25 416.97,-86.03 431.91,-81.15"/>
<polygon fill="#63b8ff" stroke="#63b8ff" points="433.14,-84.43 441.56,-78 430.96,-77.78 433.14,-84.43"/>
</a>
</g>
</g>
<!-- Node5&#45;&gt;Node4 -->
<g id="edge5_Node000005_Node000004" class="edge">
<title>Node5&#45;&gt;Node4</title>
<g id="a_edge5_Node000005_Node000004"><a xlink:title=" ">
<path fill="none" stroke="#63b8ff" d="M393.16,-63C401.5,-63 410.24,-63 418.89,-63"/>
<polygon fill="#63b8ff" stroke="#63b8ff" points="418.98,-66.5 428.98,-63 418.98,-59.5 418.98,-66.5"/>
</a>
</g>
</g>
<!-- Node6&#45;&gt;Node4 -->
<g id="edge7_Node000006_Node000004" class="edge">
<title>Node6&#45;&gt;Node4</title>
<g id="a_edge7_Node000006_Node000004"><a xlink:title=" ">
<path fill="none" stroke="#63b8ff" d="M386.61,-30.06C400.97,-34.75 416.97,-39.97 431.91,-44.85"/>
<polygon fill="#63b8ff" stroke="#63b8ff" points="430.96,-48.22 441.56,-48 433.14,-41.57 430.96,-48.22"/>
</a>
</g>
</g>
</g>
</svg>
