<?xml version="1.0" encoding="UTF-8" standalone="no"?>
<!DOCTYPE svg PUBLIC "-//W3C//DTD SVG 1.1//EN"
 "http://www.w3.org/Graphics/SVG/1.1/DTD/svg11.dtd">
<!-- Generated by graphviz version 2.43.0 (0)
 -->
<!-- Title: lci::register_rcomp_x::call_impl Pages: 1 -->
<svg width="413pt" height="134pt"
 viewBox="0.00 0.00 413.00 134.00" xmlns="http://www.w3.org/2000/svg" xmlns:xlink="http://www.w3.org/1999/xlink">
<g id="graph0" class="graph" transform="scale(1 1) rotate(0) translate(4 130)">
<title>lci::register_rcomp_x::call_impl</title>
<!-- Node1 -->
<g id="Node000001" class="node">
<title>Node1</title>
<g id="a_Node000001"><a xlink:title=" ">
<polygon fill="#999999" stroke="#666666" points="107,-78 0,-78 0,-48 107,-48 107,-78"/>
<text text-anchor="start" x="8" y="-66" font-family="Helvetica,sans-Serif" font-size="10.00">lci::register_rcomp</text>
<text text-anchor="middle" x="53.5" y="-55" font-family="Helvetica,sans-Serif" font-size="10.00">_x::call_impl</text>
</a>
</g>
</g>
<!-- Node2 -->
<g id="Node000002" class="node">
<title>Node2</title>
<g id="a_Node000002"><a xlink:href="../../d9/d4d/classlci_1_1register__rcomp__x.html#aba7005d022be13503b88a92124caabd2" target="_top" xlink:title=" ">
<polygon fill="white" stroke="#666666" points="250,-126 143,-126 143,-96 250,-96 250,-126"/>
<text text-anchor="start" x="151" y="-114" font-family="Helvetica,sans-Serif" font-size="10.00">lci::register_rcomp</text>
<text text-anchor="middle" x="196.5" y="-103" font-family="Helvetica,sans-Serif" font-size="10.00">_x::comp</text>
</a>
</g>
</g>
<!-- Node1&#45;&gt;Node2 -->
<g id="edge1_Node000001_Node000002" class="edge">
<title>Node1&#45;&gt;Node2</title>
<g id="a_edge1_Node000001_Node000002"><a xlink:title=" ">
<path fill="none" stroke="#63b8ff" d="M98.73,-78.06C112.38,-82.7 127.56,-87.87 141.77,-92.71"/>
<polygon fill="#63b8ff" stroke="#63b8ff" points="140.84,-96.09 151.43,-96 143.09,-89.46 140.84,-96.09"/>
</a>
</g>
</g>
<!-- Node4 -->
<g id="Node000004" class="node">
<title>Node4</title>
<g id="a_Node000004"><a xlink:href="../../d9/d4d/classlci_1_1register__rcomp__x.html#aa52e2c7661e2b72b5d68c19405aa9875" target="_top" xlink:title=" ">
<polygon fill="white" stroke="#666666" points="250,-78 143,-78 143,-48 250,-48 250,-78"/>
<text text-anchor="start" x="151" y="-66" font-family="Helvetica,sans-Serif" font-size="10.00">lci::register_rcomp</text>
<text text-anchor="middle" x="196.5" y="-55" font-family="Helvetica,sans-Serif" font-size="10.00">_x::rcomp</text>
</a>
</g>
</g>
<!-- Node1&#45;&gt;Node4 -->
<g id="edge3_Node000001_Node000004" class="edge">
<title>Node1&#45;&gt;Node4</title>
<g id="a_edge3_Node000001_Node000004"><a xlink:title=" ">
<path fill="none" stroke="#63b8ff" d="M107,-63C115.44,-63 124.26,-63 132.9,-63"/>
<polygon fill="#63b8ff" stroke="#63b8ff" points="132.95,-66.5 142.95,-63 132.95,-59.5 132.95,-66.5"/>
</a>
</g>
</g>
<!-- Node5 -->
<g id="Node000005" class="node">
<title>Node5</title>
<g id="a_Node000005"><a xlink:href="../../d9/d4d/classlci_1_1register__rcomp__x.html#aaae6e2cafee7ca0bea1cf2cc398ba8f1" target="_top" xlink:title=" ">
<polygon fill="white" stroke="#666666" points="250,-30 143,-30 143,0 250,0 250,-30"/>
<text text-anchor="start" x="151" y="-18" font-family="Helvetica,sans-Serif" font-size="10.00">lci::register_rcomp</text>
<text text-anchor="middle" x="196.5" y="-7" font-family="Helvetica,sans-Serif" font-size="10.00">_x::runtime</text>
</a>
</g>
</g>
<!-- Node1&#45;&gt;Node5 -->
<g id="edge5_Node000001_Node000005" class="edge">
<title>Node1&#45;&gt;Node5</title>
<g id="a_edge5_Node000001_Node000005"><a xlink:title=" ">
<path fill="none" stroke="#63b8ff" d="M98.73,-47.94C112.38,-43.3 127.56,-38.13 141.77,-33.29"/>
<polygon fill="#63b8ff" stroke="#63b8ff" points="143.09,-36.54 151.43,-30 140.84,-29.91 143.09,-36.54"/>
</a>
</g>
</g>
<!-- Node3 -->
<g id="Node000003" class="node">
<title>Node3</title>
<g id="a_Node000003"><a xlink:href="../../d9/d4d/classlci_1_1register__rcomp__x.html#aebaa9491189650087b16d26c11e36cd4" target="_top" xlink:title=" ">
<polygon fill="white" stroke="#666666" points="405,-78 286,-78 286,-48 405,-48 405,-78"/>
<text text-anchor="start" x="294" y="-66" font-family="Helvetica,sans-Serif" font-size="10.00">lci::register_rcomp</text>
<text text-anchor="middle" x="345.5" y="-55" font-family="Helvetica,sans-Serif" font-size="10.00">_x::register_rcomp_x</text>
</a>
</g>
</g>
<!-- Node2&#45;&gt;Node3 -->
<g id="edge2_Node000002_Node000003" class="edge">
<title>Node2&#45;&gt;Node3</title>
<g id="a_edge2_Node000002_Node000003"><a xlink:title=" ">
<path fill="none" stroke="#63b8ff" d="M243.61,-95.94C257.97,-91.25 273.97,-86.03 288.91,-81.15"/>
<polygon fill="#63b8ff" stroke="#63b8ff" points="290.14,-84.43 298.56,-78 287.96,-77.78 290.14,-84.43"/>
</a>
</g>
</g>
<!-- Node4&#45;&gt;Node3 -->
<g id="edge4_Node000004_Node000003" class="edge">
<title>Node4&#45;&gt;Node3</title>
<g id="a_edge4_Node000004_Node000003"><a xlink:title=" ">
<path fill="none" stroke="#63b8ff" d="M250.16,-63C258.5,-63 267.24,-63 275.89,-63"/>
<polygon fill="#63b8ff" stroke="#63b8ff" points="275.98,-66.5 285.98,-63 275.98,-59.5 275.98,-66.5"/>
</a>
</g>
</g>
<!-- Node5&#45;&gt;Node3 -->
<g id="edge6_Node000005_Node000003" class="edge">
<title>Node5&#45;&gt;Node3</title>
<g id="a_edge6_Node000005_Node000003"><a xlink:title=" ">
<path fill="none" stroke="#63b8ff" d="M243.61,-30.06C257.97,-34.75 273.97,-39.97 288.91,-44.85"/>
<polygon fill="#63b8ff" stroke="#63b8ff" points="287.96,-48.22 298.56,-48 290.14,-41.57 287.96,-48.22"/>
</a>
</g>
</g>
</g>
</svg>
