<?xml version="1.0" encoding="UTF-8" standalone="no"?>
<!DOCTYPE svg PUBLIC "-//W3C//DTD SVG 1.1//EN"
 "http://www.w3.org/Graphics/SVG/1.1/DTD/svg11.dtd">
<!-- Generated by graphviz version 2.43.0 (0)
 -->
<!-- Title: lci::cq_pop_x::comp Pages: 1 -->
<svg width="596pt" height="65pt"
 viewBox="0.00 0.00 596.00 65.00" xmlns="http://www.w3.org/2000/svg" xmlns:xlink="http://www.w3.org/1999/xlink">
<g id="graph0" class="graph" transform="scale(1 1) rotate(0) translate(4 61)">
<title>lci::cq_pop_x::comp</title>
<!-- Node1 -->
<g id="Node000001" class="node">
<title>Node1</title>
<g id="a_Node000001"><a xlink:title=" ">
<polygon fill="#999999" stroke="#666666" points="588,-38 475,-38 475,-19 588,-19 588,-38"/>
<text text-anchor="middle" x="531.5" y="-26" font-family="Helvetica,sans-Serif" font-size="10.00">lci::cq_pop_x::comp</text>
</a>
</g>
</g>
<!-- Node2 -->
<g id="Node000002" class="node">
<title>Node2</title>
<g id="a_Node000002"><a xlink:href="../../d2/d19/classlci_1_1cq__pop__x.html#af7edf36f971aa6f5967bf16ff125fa07" target="_top" xlink:title=" ">
<polygon fill="white" stroke="#666666" points="273,-38 170,-38 170,-19 273,-19 273,-38"/>
<text text-anchor="middle" x="221.5" y="-26" font-family="Helvetica,sans-Serif" font-size="10.00">lci::cq_pop_x::call</text>
</a>
</g>
</g>
<!-- Node1&#45;&gt;Node2 -->
<g id="edge1_Node000001_Node000002" class="edge">
<title>Node1&#45;&gt;Node2</title>
<g id="a_edge1_Node000001_Node000002"><a xlink:title=" ">
<path fill="none" stroke="#63b8ff" d="M464.67,-28.5C407.31,-28.5 325.33,-28.5 273.01,-28.5"/>
<polygon fill="#63b8ff" stroke="#63b8ff" points="464.72,-32 474.72,-28.5 464.72,-25 464.72,-32"/>
</a>
</g>
</g>
<!-- Node5 -->
<g id="Node000005" class="node">
<title>Node5</title>
<g id="a_Node000005"><a xlink:href="../../d2/d19/classlci_1_1cq__pop__x.html#ab098d36909ee5f1f8a00ab2f445b7a29" target="_top" xlink:title=" ">
<polygon fill="white" stroke="#666666" points="439,-19 309,-19 309,0 439,0 439,-19"/>
<text text-anchor="middle" x="374" y="-7" font-family="Helvetica,sans-Serif" font-size="10.00">lci::cq_pop_x::call_impl</text>
</a>
</g>
</g>
<!-- Node1&#45;&gt;Node5 -->
<g id="edge4_Node000001_Node000005" class="edge">
<title>Node1&#45;&gt;Node5</title>
<g id="a_edge4_Node000001_Node000005"><a xlink:title=" ">
<path fill="none" stroke="#63b8ff" d="M464.6,-20.45C456.13,-19.41 447.48,-18.36 439.04,-17.33"/>
<polygon fill="#63b8ff" stroke="#63b8ff" points="464.45,-23.96 474.8,-21.69 465.3,-17.01 464.45,-23.96"/>
</a>
</g>
</g>
<!-- Node3 -->
<g id="Node000003" class="node">
<title>Node3</title>
<g id="a_Node000003"><a xlink:href="../../d5/dd3/namespacelci.html#a5a9a377509b16d786a6c4fb879b91677" target="_top" xlink:title=" ">
<polygon fill="white" stroke="#666666" points="101,-57 33,-57 33,-38 101,-38 101,-57"/>
<text text-anchor="middle" x="67" y="-45" font-family="Helvetica,sans-Serif" font-size="10.00">lci::cq_pop</text>
</a>
</g>
</g>
<!-- Node2&#45;&gt;Node3 -->
<g id="edge2_Node000002_Node000003" class="edge">
<title>Node2&#45;&gt;Node3</title>
<g id="a_edge2_Node000002_Node000003"><a xlink:title=" ">
<path fill="none" stroke="#63b8ff" d="M159.77,-36.07C139.83,-38.55 118.42,-41.22 101.3,-43.35"/>
<polygon fill="#63b8ff" stroke="#63b8ff" points="160.23,-39.54 169.72,-34.83 159.36,-32.59 160.23,-39.54"/>
</a>
</g>
</g>
<!-- Node4 -->
<g id="Node000004" class="node">
<title>Node4</title>
<g id="a_Node000004"><a xlink:href="../../d2/d19/classlci_1_1cq__pop__x.html#a02586188aa2b0022d84713024c8e2377" target="_top" xlink:title=" ">
<polygon fill="white" stroke="#666666" points="134,-20 0,-20 0,-1 134,-1 134,-20"/>
<text text-anchor="middle" x="67" y="-8" font-family="Helvetica,sans-Serif" font-size="10.00">lci::cq_pop_x::operator()</text>
</a>
</g>
</g>
<!-- Node2&#45;&gt;Node4 -->
<g id="edge3_Node000002_Node000004" class="edge">
<title>Node2&#45;&gt;Node4</title>
<g id="a_edge3_Node000002_Node000004"><a xlink:title=" ">
<path fill="none" stroke="#63b8ff" d="M159.61,-21.31C151.2,-20.32 142.52,-19.3 134.02,-18.29"/>
<polygon fill="#63b8ff" stroke="#63b8ff" points="159.38,-24.81 169.72,-22.51 160.2,-17.86 159.38,-24.81"/>
</a>
</g>
</g>
<!-- Node5&#45;&gt;Node2 -->
<g id="edge5_Node000005_Node000002" class="edge">
<title>Node5&#45;&gt;Node2</title>
<g id="a_edge5_Node000005_Node000002"><a xlink:title=" ">
<path fill="none" stroke="#63b8ff" d="M298.7,-18.88C290.12,-19.96 281.52,-21.05 273.36,-22.08"/>
<polygon fill="#63b8ff" stroke="#63b8ff" points="299.26,-22.34 308.74,-17.61 298.38,-15.39 299.26,-22.34"/>
</a>
</g>
</g>
</g>
</svg>
