<?xml version="1.0" encoding="UTF-8" standalone="no"?>
<!DOCTYPE svg PUBLIC "-//W3C//DTD SVG 1.1//EN"
 "http://www.w3.org/Graphics/SVG/1.1/DTD/svg11.dtd">
<!-- Generated by graphviz version 2.43.0 (0)
 -->
<!-- Title: lci::cq_pop_x::call_impl Pages: 1 -->
<svg width="465pt" height="64pt"
 viewBox="0.00 0.00 465.00 64.00" xmlns="http://www.w3.org/2000/svg" xmlns:xlink="http://www.w3.org/1999/xlink">
<g id="graph0" class="graph" transform="scale(1 1) rotate(0) translate(4 60)">
<title>lci::cq_pop_x::call_impl</title>
<!-- Node1 -->
<g id="Node000001" class="node">
<title>Node1</title>
<g id="a_Node000001"><a xlink:title=" ">
<polygon fill="#999999" stroke="#666666" points="130,-37 0,-37 0,-18 130,-18 130,-37"/>
<text text-anchor="middle" x="65" y="-25" font-family="Helvetica,sans-Serif" font-size="10.00">lci::cq_pop_x::call_impl</text>
</a>
</g>
</g>
<!-- Node2 -->
<g id="Node000002" class="node">
<title>Node2</title>
<g id="a_Node000002"><a xlink:href="../../d2/d19/classlci_1_1cq__pop__x.html#ae26b414974bd0dd8a059c6ee7894b0a4" target="_top" xlink:title=" ">
<polygon fill="white" stroke="#666666" points="284.5,-56 171.5,-56 171.5,-37 284.5,-37 284.5,-56"/>
<text text-anchor="middle" x="228" y="-44" font-family="Helvetica,sans-Serif" font-size="10.00">lci::cq_pop_x::comp</text>
</a>
</g>
</g>
<!-- Node1&#45;&gt;Node2 -->
<g id="edge1_Node000001_Node000002" class="edge">
<title>Node1&#45;&gt;Node2</title>
<g id="a_edge1_Node000001_Node000002"><a xlink:title=" ">
<path fill="none" stroke="#63b8ff" d="M130.09,-35.06C140.35,-36.27 150.99,-37.53 161.28,-38.74"/>
<polygon fill="#63b8ff" stroke="#63b8ff" points="161.1,-42.25 171.44,-39.94 161.92,-35.3 161.1,-42.25"/>
</a>
</g>
</g>
<!-- Node4 -->
<g id="Node000004" class="node">
<title>Node4</title>
<g id="a_Node000004"><a xlink:href="../../d2/d19/classlci_1_1cq__pop__x.html#ae96dd1ca2f39d22ae54823db848ae43e" target="_top" xlink:title=" ">
<polygon fill="white" stroke="#666666" points="290,-19 166,-19 166,0 290,0 290,-19"/>
<text text-anchor="middle" x="228" y="-7" font-family="Helvetica,sans-Serif" font-size="10.00">lci::cq_pop_x::runtime</text>
</a>
</g>
</g>
<!-- Node1&#45;&gt;Node4 -->
<g id="edge3_Node000001_Node000004" class="edge">
<title>Node1&#45;&gt;Node4</title>
<g id="a_edge3_Node000001_Node000004"><a xlink:title=" ">
<path fill="none" stroke="#63b8ff" d="M130.09,-20.33C138.54,-19.39 147.24,-18.42 155.79,-17.46"/>
<polygon fill="#63b8ff" stroke="#63b8ff" points="156.2,-20.94 165.75,-16.35 155.42,-13.98 156.2,-20.94"/>
</a>
</g>
</g>
<!-- Node3 -->
<g id="Node000003" class="node">
<title>Node3</title>
<g id="a_Node000003"><a xlink:href="../../d2/d19/classlci_1_1cq__pop__x.html#ac1e252e5b6c829a15b07288c172584b9" target="_top" xlink:title=" ">
<polygon fill="white" stroke="#666666" points="457,-37 326,-37 326,-18 457,-18 457,-37"/>
<text text-anchor="middle" x="391.5" y="-25" font-family="Helvetica,sans-Serif" font-size="10.00">lci::cq_pop_x::cq_pop_x</text>
</a>
</g>
</g>
<!-- Node2&#45;&gt;Node3 -->
<g id="edge2_Node000002_Node000003" class="edge">
<title>Node2&#45;&gt;Node3</title>
<g id="a_edge2_Node000002_Node000003"><a xlink:title=" ">
<path fill="none" stroke="#63b8ff" d="M284.58,-39.96C294.67,-38.77 305.35,-37.52 315.89,-36.28"/>
<polygon fill="#63b8ff" stroke="#63b8ff" points="316.4,-39.74 325.93,-35.1 315.59,-32.79 316.4,-39.74"/>
</a>
</g>
</g>
<!-- Node4&#45;&gt;Node3 -->
<g id="edge4_Node000004_Node000003" class="edge">
<title>Node4&#45;&gt;Node3</title>
<g id="a_edge4_Node000004_Node000003"><a xlink:title=" ">
<path fill="none" stroke="#63b8ff" d="M290.06,-16.31C298.47,-17.24 307.18,-18.21 315.8,-19.17"/>
<polygon fill="#63b8ff" stroke="#63b8ff" points="315.53,-22.67 325.86,-20.3 316.31,-15.71 315.53,-22.67"/>
</a>
</g>
</g>
</g>
</svg>
