<?xml version="1.0" encoding="UTF-8" standalone="no"?>
<!DOCTYPE svg PUBLIC "-//W3C//DTD SVG 1.1//EN"
 "http://www.w3.org/Graphics/SVG/1.1/DTD/svg11.dtd">
<!-- Generated by graphviz version 2.43.0 (0)
 -->
<!-- Title: lci::reduce_x Pages: 1 -->
<svg width="561pt" height="182pt"
 viewBox="0.00 0.00 561.00 182.00" xmlns="http://www.w3.org/2000/svg" xmlns:xlink="http://www.w3.org/1999/xlink">
<g id="graph0" class="graph" transform="scale(1 1) rotate(0) translate(4 178)">
<title>lci::reduce_x</title>
<!-- Node1 -->
<g id="Node000001" class="node">
<title>Node1</title>
<g id="a_Node000001"><a xlink:title="The actual implementation for reduce.">
<polygon fill="#999999" stroke="#666666" points="553,-96.5 475,-96.5 475,-77.5 553,-77.5 553,-96.5"/>
<text text-anchor="middle" x="514" y="-84.5" font-family="Helvetica,sans-Serif" font-size="10.00">lci::reduce_x</text>
</a>
</g>
</g>
<!-- Node2 -->
<g id="Node000002" class="node">
<title>Node2</title>
<g id="a_Node000002"><a xlink:href="../../db/d20/structlci_1_1option__t.html" target="_top" xlink:title=" ">
<polygon fill="white" stroke="#666666" points="320.5,-174 224.5,-174 224.5,-144 320.5,-144 320.5,-174"/>
<text text-anchor="start" x="232.5" y="-162" font-family="Helvetica,sans-Serif" font-size="10.00">lci::option_t&lt; lci</text>
<text text-anchor="middle" x="272.5" y="-151" font-family="Helvetica,sans-Serif" font-size="10.00">::runtime_t &gt;</text>
</a>
</g>
</g>
<!-- Node2&#45;&gt;Node1 -->
<g id="edge1_Node000001_Node000002" class="edge">
<title>Node2&#45;&gt;Node1</title>
<g id="a_edge1_Node000001_Node000002"><a xlink:title=" ">
<path fill="none" stroke="#9a32cd" stroke-dasharray="5,2" d="M330.56,-150C367.37,-143.21 415.88,-132.4 457,-117 471.46,-111.58 486.85,-103.12 497.83,-96.56"/>
<polygon fill="#9a32cd" stroke="#9a32cd" points="329.73,-146.59 320.5,-151.81 330.96,-153.48 329.73,-146.59"/>
</a>
</g>
<text text-anchor="middle" x="405.5" y="-147" font-family="Helvetica,sans-Serif" font-size="10.00" fill="grey"> m_runtime</text>
</g>
<!-- Node3 -->
<g id="Node000003" class="node">
<title>Node3</title>
<g id="a_Node000003"><a xlink:href="../../dc/d5c/classlci_1_1runtime__t.html" target="_top" xlink:title="The actual implementation for RESOURCE runtime.">
<polygon fill="white" stroke="#666666" points="104,-168.5 23,-168.5 23,-149.5 104,-149.5 104,-168.5"/>
<text text-anchor="middle" x="63.5" y="-156.5" font-family="Helvetica,sans-Serif" font-size="10.00">lci::runtime_t</text>
</a>
</g>
</g>
<!-- Node3&#45;&gt;Node2 -->
<g id="edge2_Node000002_Node000003" class="edge">
<title>Node3&#45;&gt;Node2</title>
<g id="a_edge2_Node000002_Node000003"><a xlink:title=" ">
<path fill="none" stroke="#9a32cd" stroke-dasharray="5,2" d="M114.44,-159C147.89,-159 191.64,-159 224.46,-159"/>
<polygon fill="#9a32cd" stroke="#9a32cd" points="114.41,-155.5 104.41,-159 114.41,-162.5 114.41,-155.5"/>
</a>
</g>
<text text-anchor="middle" x="168" y="-162" font-family="Helvetica,sans-Serif" font-size="10.00" fill="grey"> m_value</text>
</g>
<!-- Node4 -->
<g id="Node000004" class="node">
<title>Node4</title>
<g id="a_Node000004"><a xlink:href="../../db/d20/structlci_1_1option__t.html" target="_top" xlink:title=" ">
<polygon fill="white" stroke="#666666" points="320.5,-126 224.5,-126 224.5,-96 320.5,-96 320.5,-126"/>
<text text-anchor="start" x="232.5" y="-114" font-family="Helvetica,sans-Serif" font-size="10.00">lci::option_t&lt; lci</text>
<text text-anchor="middle" x="272.5" y="-103" font-family="Helvetica,sans-Serif" font-size="10.00">::device_t &gt;</text>
</a>
</g>
</g>
<!-- Node4&#45;&gt;Node1 -->
<g id="edge3_Node000001_Node000004" class="edge">
<title>Node4&#45;&gt;Node1</title>
<g id="a_edge3_Node000001_Node000004"><a xlink:title=" ">
<path fill="none" stroke="#9a32cd" stroke-dasharray="5,2" d="M330.64,-105.27C375.21,-100.81 435.88,-94.73 474.75,-90.83"/>
<polygon fill="#9a32cd" stroke="#9a32cd" points="330.13,-101.81 320.53,-106.29 330.83,-108.77 330.13,-101.81"/>
</a>
</g>
<text text-anchor="middle" x="405.5" y="-105" font-family="Helvetica,sans-Serif" font-size="10.00" fill="grey"> m_device</text>
</g>
<!-- Node5 -->
<g id="Node000005" class="node">
<title>Node5</title>
<g id="a_Node000005"><a xlink:href="../../d6/d66/classlci_1_1device__t.html" target="_top" xlink:title="The actual implementation for RESOURCE device.">
<polygon fill="white" stroke="#666666" points="101,-120.5 26,-120.5 26,-101.5 101,-101.5 101,-120.5"/>
<text text-anchor="middle" x="63.5" y="-108.5" font-family="Helvetica,sans-Serif" font-size="10.00">lci::device_t</text>
</a>
</g>
</g>
<!-- Node5&#45;&gt;Node4 -->
<g id="edge4_Node000004_Node000005" class="edge">
<title>Node5&#45;&gt;Node4</title>
<g id="a_edge4_Node000004_Node000005"><a xlink:title=" ">
<path fill="none" stroke="#9a32cd" stroke-dasharray="5,2" d="M111.12,-111C144.94,-111 190.5,-111 224.42,-111"/>
<polygon fill="#9a32cd" stroke="#9a32cd" points="111.03,-107.5 101.03,-111 111.03,-114.5 111.03,-107.5"/>
</a>
</g>
<text text-anchor="middle" x="168" y="-114" font-family="Helvetica,sans-Serif" font-size="10.00" fill="grey"> m_value</text>
</g>
<!-- Node6 -->
<g id="Node000006" class="node">
<title>Node6</title>
<g id="a_Node000006"><a xlink:href="../../db/d20/structlci_1_1option__t.html" target="_top" xlink:title=" ">
<polygon fill="white" stroke="#666666" points="320.5,-78 224.5,-78 224.5,-48 320.5,-48 320.5,-78"/>
<text text-anchor="start" x="232.5" y="-66" font-family="Helvetica,sans-Serif" font-size="10.00">lci::option_t&lt; lci</text>
<text text-anchor="middle" x="272.5" y="-55" font-family="Helvetica,sans-Serif" font-size="10.00">::endpoint_t &gt;</text>
</a>
</g>
</g>
<!-- Node6&#45;&gt;Node1 -->
<g id="edge5_Node000001_Node000006" class="edge">
<title>Node6&#45;&gt;Node1</title>
<g id="a_edge5_Node000001_Node000006"><a xlink:title=" ">
<path fill="none" stroke="#9a32cd" stroke-dasharray="5,2" d="M331.15,-65.91C367.37,-68.1 415.03,-71.66 457,-77 462.78,-77.73 468.87,-78.66 474.82,-79.65"/>
<polygon fill="#9a32cd" stroke="#9a32cd" points="330.96,-62.39 320.77,-65.3 330.55,-69.38 330.96,-62.39"/>
</a>
</g>
<text text-anchor="middle" x="405.5" y="-80" font-family="Helvetica,sans-Serif" font-size="10.00" fill="grey"> m_endpoint</text>
</g>
<!-- Node7 -->
<g id="Node000007" class="node">
<title>Node7</title>
<g id="a_Node000007"><a xlink:href="../../de/d1b/classlci_1_1endpoint__t.html" target="_top" xlink:title="The actual implementation for RESOURCE endpoint.">
<polygon fill="white" stroke="#666666" points="106.5,-72.5 20.5,-72.5 20.5,-53.5 106.5,-53.5 106.5,-72.5"/>
<text text-anchor="middle" x="63.5" y="-60.5" font-family="Helvetica,sans-Serif" font-size="10.00">lci::endpoint_t</text>
</a>
</g>
</g>
<!-- Node7&#45;&gt;Node6 -->
<g id="edge6_Node000006_Node000007" class="edge">
<title>Node7&#45;&gt;Node6</title>
<g id="a_edge6_Node000006_Node000007"><a xlink:title=" ">
<path fill="none" stroke="#9a32cd" stroke-dasharray="5,2" d="M117.02,-63C150.08,-63 192.38,-63 224.36,-63"/>
<polygon fill="#9a32cd" stroke="#9a32cd" points="116.64,-59.5 106.64,-63 116.64,-66.5 116.64,-59.5"/>
</a>
</g>
<text text-anchor="middle" x="168" y="-66" font-family="Helvetica,sans-Serif" font-size="10.00" fill="grey"> m_value</text>
</g>
<!-- Node8 -->
<g id="Node000008" class="node">
<title>Node8</title>
<g id="a_Node000008"><a xlink:href="../../db/d20/structlci_1_1option__t.html" target="_top" xlink:title=" ">
<polygon fill="white" stroke="#666666" points="336,-30 209,-30 209,0 336,0 336,-30"/>
<text text-anchor="start" x="217" y="-18" font-family="Helvetica,sans-Serif" font-size="10.00">lci::option_t&lt; lci</text>
<text text-anchor="middle" x="272.5" y="-7" font-family="Helvetica,sans-Serif" font-size="10.00">::matching_engine_t &gt;</text>
</a>
</g>
</g>
<!-- Node8&#45;&gt;Node1 -->
<g id="edge7_Node000001_Node000008" class="edge">
<title>Node8&#45;&gt;Node1</title>
<g id="a_edge7_Node000001_Node000008"><a xlink:title=" ">
<path fill="none" stroke="#9a32cd" stroke-dasharray="5,2" d="M346.24,-23.51C380.66,-29.08 421.82,-38 457,-52 472.98,-58.36 489.46,-69.28 500.37,-77.24"/>
<polygon fill="#9a32cd" stroke="#9a32cd" points="346.68,-20.04 336.26,-21.96 345.61,-26.96 346.68,-20.04"/>
</a>
</g>
<text text-anchor="middle" x="405.5" y="-55" font-family="Helvetica,sans-Serif" font-size="10.00" fill="grey"> m_matching_engine</text>
</g>
<!-- Node9 -->
<g id="Node000009" class="node">
<title>Node9</title>
<g id="a_Node000009"><a xlink:href="../../d8/d3f/classlci_1_1matching__engine__t.html" target="_top" xlink:title="The actual implementation for RESOURCE matching_engine.">
<polygon fill="white" stroke="#666666" points="127,-24.5 0,-24.5 0,-5.5 127,-5.5 127,-24.5"/>
<text text-anchor="middle" x="63.5" y="-12.5" font-family="Helvetica,sans-Serif" font-size="10.00">lci::matching_engine_t</text>
</a>
</g>
</g>
<!-- Node9&#45;&gt;Node8 -->
<g id="edge8_Node000008_Node000009" class="edge">
<title>Node9&#45;&gt;Node8</title>
<g id="a_edge8_Node000008_Node000009"><a xlink:title=" ">
<path fill="none" stroke="#9a32cd" stroke-dasharray="5,2" d="M137.34,-15C160.62,-15 186.18,-15 208.69,-15"/>
<polygon fill="#9a32cd" stroke="#9a32cd" points="137.17,-11.5 127.17,-15 137.17,-18.5 137.17,-11.5"/>
</a>
</g>
<text text-anchor="middle" x="168" y="-18" font-family="Helvetica,sans-Serif" font-size="10.00" fill="grey"> m_value</text>
</g>
</g>
</svg>
