<?xml version="1.0" encoding="UTF-8" standalone="no"?>
<!DOCTYPE svg PUBLIC "-//W3C//DTD SVG 1.1//EN"
 "http://www.w3.org/Graphics/SVG/1.1/DTD/svg11.dtd">
<!-- Generated by graphviz version 2.43.0 (0)
 -->
<!-- Title: lci::net_post_putImm_x::net_post_putImm_x Pages: 1 -->
<svg width="759pt" height="518pt"
 viewBox="0.00 0.00 759.00 518.00" xmlns="http://www.w3.org/2000/svg" xmlns:xlink="http://www.w3.org/1999/xlink">
<g id="graph0" class="graph" transform="scale(1 1) rotate(0) translate(4 514)">
<title>lci::net_post_putImm_x::net_post_putImm_x</title>
<!-- Node1 -->
<g id="Node000001" class="node">
<title>Node1</title>
<g id="a_Node000001"><a xlink:title=" ">
<polygon fill="#999999" stroke="#666666" points="751,-270 620,-270 620,-240 751,-240 751,-270"/>
<text text-anchor="start" x="628" y="-258" font-family="Helvetica,sans-Serif" font-size="10.00">lci::net_post_putImm</text>
<text text-anchor="middle" x="685.5" y="-247" font-family="Helvetica,sans-Serif" font-size="10.00">_x::net_post_putImm_x</text>
</a>
</g>
</g>
<!-- Node2 -->
<g id="Node000002" class="node">
<title>Node2</title>
<g id="a_Node000002"><a xlink:href="../../d8/d8e/classlci_1_1net__post__putImm__x.html#a809cffd24d8378635ea78d2501146172" target="_top" xlink:title=" ">
<polygon fill="white" stroke="#666666" points="584,-510 465,-510 465,-480 584,-480 584,-510"/>
<text text-anchor="start" x="473" y="-498" font-family="Helvetica,sans-Serif" font-size="10.00">lci::net_post_putImm</text>
<text text-anchor="middle" x="524.5" y="-487" font-family="Helvetica,sans-Serif" font-size="10.00">_x::buffer</text>
</a>
</g>
</g>
<!-- Node1&#45;&gt;Node2 -->
<g id="edge1_Node000001_Node000002" class="edge">
<title>Node1&#45;&gt;Node2</title>
<g id="a_edge1_Node000001_Node000002"><a xlink:title=" ">
<path fill="none" stroke="#63b8ff" d="M679.21,-279.95C668.62,-324.18 640.79,-416.77 584,-471 580.43,-474.41 576.3,-477.37 571.93,-479.92"/>
<polygon fill="#63b8ff" stroke="#63b8ff" points="682.66,-280.58 681.49,-270.05 675.84,-279.01 682.66,-280.58"/>
</a>
</g>
</g>
<!-- Node7 -->
<g id="Node000007" class="node">
<title>Node7</title>
<g id="a_Node000007"><a xlink:href="../../d8/d8e/classlci_1_1net__post__putImm__x.html#afeccc1b88e00ebbd6ebdbffb5b0d2d93" target="_top" xlink:title=" ">
<polygon fill="white" stroke="#666666" points="584,-462 465,-462 465,-432 584,-432 584,-462"/>
<text text-anchor="start" x="473" y="-450" font-family="Helvetica,sans-Serif" font-size="10.00">lci::net_post_putImm</text>
<text text-anchor="middle" x="524.5" y="-439" font-family="Helvetica,sans-Serif" font-size="10.00">_x::device</text>
</a>
</g>
</g>
<!-- Node1&#45;&gt;Node7 -->
<g id="edge7_Node000001_Node000007" class="edge">
<title>Node1&#45;&gt;Node7</title>
<g id="a_edge7_Node000001_Node000007"><a xlink:title=" ">
<path fill="none" stroke="#63b8ff" d="M675.5,-279.95C661.29,-316.1 630.43,-383.05 584,-423 580.09,-426.37 575.64,-429.3 570.99,-431.86"/>
<polygon fill="#63b8ff" stroke="#63b8ff" points="678.92,-280.8 679.22,-270.2 672.38,-278.3 678.92,-280.8"/>
</a>
</g>
</g>
<!-- Node8 -->
<g id="Node000008" class="node">
<title>Node8</title>
<g id="a_Node000008"><a xlink:href="../../d8/d8e/classlci_1_1net__post__putImm__x.html#a066fb3bcc618c717ada21015d407e105" target="_top" xlink:title=" ">
<polygon fill="white" stroke="#666666" points="584,-414 465,-414 465,-384 584,-384 584,-414"/>
<text text-anchor="start" x="473" y="-402" font-family="Helvetica,sans-Serif" font-size="10.00">lci::net_post_putImm</text>
<text text-anchor="middle" x="524.5" y="-391" font-family="Helvetica,sans-Serif" font-size="10.00">_x::endpoint</text>
</a>
</g>
</g>
<!-- Node1&#45;&gt;Node8 -->
<g id="edge10_Node000001_Node000008" class="edge">
<title>Node1&#45;&gt;Node8</title>
<g id="a_edge10_Node000001_Node000008"><a xlink:title=" ">
<path fill="none" stroke="#63b8ff" d="M669.59,-279.01C652,-305.62 620.5,-348.31 584,-375 579.39,-378.37 574.24,-381.36 568.96,-383.99"/>
<polygon fill="#63b8ff" stroke="#63b8ff" points="672.72,-280.61 675.22,-270.32 666.85,-276.81 672.72,-280.61"/>
</a>
</g>
</g>
<!-- Node9 -->
<g id="Node000009" class="node">
<title>Node9</title>
<g id="a_Node000009"><a xlink:href="../../d8/d8e/classlci_1_1net__post__putImm__x.html#a406093e7a6942f230bc280826885c391" target="_top" xlink:title=" ">
<polygon fill="white" stroke="#666666" points="584,-366 465,-366 465,-336 584,-336 584,-366"/>
<text text-anchor="start" x="473" y="-354" font-family="Helvetica,sans-Serif" font-size="10.00">lci::net_post_putImm</text>
<text text-anchor="middle" x="524.5" y="-343" font-family="Helvetica,sans-Serif" font-size="10.00">_x::imm_data</text>
</a>
</g>
</g>
<!-- Node1&#45;&gt;Node9 -->
<g id="edge13_Node000001_Node000009" class="edge">
<title>Node1&#45;&gt;Node9</title>
<g id="a_edge13_Node000001_Node000009"><a xlink:title=" ">
<path fill="none" stroke="#63b8ff" d="M658.22,-276.42C638.57,-291.78 610.62,-312.27 584,-327 578.24,-330.19 571.96,-333.2 565.73,-335.95"/>
<polygon fill="#63b8ff" stroke="#63b8ff" points="660.43,-279.13 666.11,-270.18 656.09,-273.64 660.43,-279.13"/>
</a>
</g>
</g>
<!-- Node10 -->
<g id="Node000010" class="node">
<title>Node10</title>
<g id="a_Node000010"><a xlink:href="../../d8/d8e/classlci_1_1net__post__putImm__x.html#a2784723ec0f924ae9473ba92a6aef5ab" target="_top" xlink:title=" ">
<polygon fill="white" stroke="#666666" points="584,-318 465,-318 465,-288 584,-288 584,-318"/>
<text text-anchor="start" x="473" y="-306" font-family="Helvetica,sans-Serif" font-size="10.00">lci::net_post_putImm</text>
<text text-anchor="middle" x="524.5" y="-295" font-family="Helvetica,sans-Serif" font-size="10.00">_x::mr</text>
</a>
</g>
</g>
<!-- Node1&#45;&gt;Node10 -->
<g id="edge16_Node000001_Node000010" class="edge">
<title>Node1&#45;&gt;Node10</title>
<g id="a_edge16_Node000001_Node000010"><a xlink:title=" ">
<path fill="none" stroke="#63b8ff" d="M624.65,-273.07C608.35,-277.99 590.87,-283.27 575.2,-288"/>
<polygon fill="#63b8ff" stroke="#63b8ff" points="626.07,-276.3 634.63,-270.06 624.04,-269.6 626.07,-276.3"/>
</a>
</g>
</g>
<!-- Node11 -->
<g id="Node000011" class="node">
<title>Node11</title>
<g id="a_Node000011"><a xlink:href="../../d8/d8e/classlci_1_1net__post__putImm__x.html#ad3f13422931b7f055dc4038e4fb0ea94" target="_top" xlink:title=" ">
<polygon fill="white" stroke="#666666" points="584,-270 465,-270 465,-240 584,-240 584,-270"/>
<text text-anchor="start" x="473" y="-258" font-family="Helvetica,sans-Serif" font-size="10.00">lci::net_post_putImm</text>
<text text-anchor="middle" x="524.5" y="-247" font-family="Helvetica,sans-Serif" font-size="10.00">_x::offset</text>
</a>
</g>
</g>
<!-- Node1&#45;&gt;Node11 -->
<g id="edge19_Node000001_Node000011" class="edge">
<title>Node1&#45;&gt;Node11</title>
<g id="a_edge19_Node000001_Node000011"><a xlink:title=" ">
<path fill="none" stroke="#63b8ff" d="M609.81,-255C601.22,-255 592.56,-255 584.23,-255"/>
<polygon fill="#63b8ff" stroke="#63b8ff" points="609.83,-258.5 619.83,-255 609.83,-251.5 609.83,-258.5"/>
</a>
</g>
</g>
<!-- Node12 -->
<g id="Node000012" class="node">
<title>Node12</title>
<g id="a_Node000012"><a xlink:href="../../d8/d8e/classlci_1_1net__post__putImm__x.html#af87c125ecec9c63cf31d9d01ee21fca1" target="_top" xlink:title=" ">
<polygon fill="white" stroke="#666666" points="584,-222 465,-222 465,-192 584,-192 584,-222"/>
<text text-anchor="start" x="473" y="-210" font-family="Helvetica,sans-Serif" font-size="10.00">lci::net_post_putImm</text>
<text text-anchor="middle" x="524.5" y="-199" font-family="Helvetica,sans-Serif" font-size="10.00">_x::rank</text>
</a>
</g>
</g>
<!-- Node1&#45;&gt;Node12 -->
<g id="edge22_Node000001_Node000012" class="edge">
<title>Node1&#45;&gt;Node12</title>
<g id="a_edge22_Node000001_Node000012"><a xlink:title=" ">
<path fill="none" stroke="#63b8ff" d="M624.65,-236.93C608.35,-232.01 590.87,-226.73 575.2,-222"/>
<polygon fill="#63b8ff" stroke="#63b8ff" points="624.04,-240.4 634.63,-239.94 626.07,-233.7 624.04,-240.4"/>
</a>
</g>
</g>
<!-- Node13 -->
<g id="Node000013" class="node">
<title>Node13</title>
<g id="a_Node000013"><a xlink:href="../../d8/d8e/classlci_1_1net__post__putImm__x.html#a2f3407714f203243c8043eebbdb0bf7a" target="_top" xlink:title=" ">
<polygon fill="white" stroke="#666666" points="584,-174 465,-174 465,-144 584,-144 584,-174"/>
<text text-anchor="start" x="473" y="-162" font-family="Helvetica,sans-Serif" font-size="10.00">lci::net_post_putImm</text>
<text text-anchor="middle" x="524.5" y="-151" font-family="Helvetica,sans-Serif" font-size="10.00">_x::rmr</text>
</a>
</g>
</g>
<!-- Node1&#45;&gt;Node13 -->
<g id="edge25_Node000001_Node000013" class="edge">
<title>Node1&#45;&gt;Node13</title>
<g id="a_edge25_Node000001_Node000013"><a xlink:title=" ">
<path fill="none" stroke="#63b8ff" d="M658.22,-233.58C638.57,-218.22 610.62,-197.73 584,-183 578.24,-179.81 571.96,-176.8 565.73,-174.05"/>
<polygon fill="#63b8ff" stroke="#63b8ff" points="656.09,-236.36 666.11,-239.82 660.43,-230.87 656.09,-236.36"/>
</a>
</g>
</g>
<!-- Node14 -->
<g id="Node000014" class="node">
<title>Node14</title>
<g id="a_Node000014"><a xlink:href="../../d8/d8e/classlci_1_1net__post__putImm__x.html#a50d24697e8574200e88684c996357a0c" target="_top" xlink:title=" ">
<polygon fill="white" stroke="#666666" points="584,-126 465,-126 465,-96 584,-96 584,-126"/>
<text text-anchor="start" x="473" y="-114" font-family="Helvetica,sans-Serif" font-size="10.00">lci::net_post_putImm</text>
<text text-anchor="middle" x="524.5" y="-103" font-family="Helvetica,sans-Serif" font-size="10.00">_x::runtime</text>
</a>
</g>
</g>
<!-- Node1&#45;&gt;Node14 -->
<g id="edge28_Node000001_Node000014" class="edge">
<title>Node1&#45;&gt;Node14</title>
<g id="a_edge28_Node000001_Node000014"><a xlink:title=" ">
<path fill="none" stroke="#63b8ff" d="M669.59,-230.99C652,-204.38 620.5,-161.69 584,-135 579.39,-131.63 574.24,-128.64 568.96,-126.01"/>
<polygon fill="#63b8ff" stroke="#63b8ff" points="666.85,-233.19 675.22,-239.68 672.72,-229.39 666.85,-233.19"/>
</a>
</g>
</g>
<!-- Node15 -->
<g id="Node000015" class="node">
<title>Node15</title>
<g id="a_Node000015"><a xlink:href="../../d8/d8e/classlci_1_1net__post__putImm__x.html#af251ca8b5f6df902fc28a00591c153fe" target="_top" xlink:title=" ">
<polygon fill="white" stroke="#666666" points="584,-78 465,-78 465,-48 584,-48 584,-78"/>
<text text-anchor="start" x="473" y="-66" font-family="Helvetica,sans-Serif" font-size="10.00">lci::net_post_putImm</text>
<text text-anchor="middle" x="524.5" y="-55" font-family="Helvetica,sans-Serif" font-size="10.00">_x::size</text>
</a>
</g>
</g>
<!-- Node1&#45;&gt;Node15 -->
<g id="edge31_Node000001_Node000015" class="edge">
<title>Node1&#45;&gt;Node15</title>
<g id="a_edge31_Node000001_Node000015"><a xlink:title=" ">
<path fill="none" stroke="#63b8ff" d="M675.5,-230.05C661.29,-193.9 630.43,-126.95 584,-87 580.09,-83.63 575.64,-80.7 570.99,-78.14"/>
<polygon fill="#63b8ff" stroke="#63b8ff" points="672.38,-231.7 679.22,-239.8 678.92,-229.2 672.38,-231.7"/>
</a>
</g>
</g>
<!-- Node16 -->
<g id="Node000016" class="node">
<title>Node16</title>
<g id="a_Node000016"><a xlink:href="../../d8/d8e/classlci_1_1net__post__putImm__x.html#a935d85e10c5e3b385d98ce98b2528c85" target="_top" xlink:title=" ">
<polygon fill="white" stroke="#666666" points="584,-30 465,-30 465,0 584,0 584,-30"/>
<text text-anchor="start" x="473" y="-18" font-family="Helvetica,sans-Serif" font-size="10.00">lci::net_post_putImm</text>
<text text-anchor="middle" x="524.5" y="-7" font-family="Helvetica,sans-Serif" font-size="10.00">_x::user_context</text>
</a>
</g>
</g>
<!-- Node1&#45;&gt;Node16 -->
<g id="edge34_Node000001_Node000016" class="edge">
<title>Node1&#45;&gt;Node16</title>
<g id="a_edge34_Node000001_Node000016"><a xlink:title=" ">
<path fill="none" stroke="#63b8ff" d="M679.21,-230.05C668.62,-185.82 640.79,-93.23 584,-39 580.43,-35.59 576.3,-32.63 571.93,-30.08"/>
<polygon fill="#63b8ff" stroke="#63b8ff" points="675.84,-230.99 681.49,-239.95 682.66,-229.42 675.84,-230.99"/>
</a>
</g>
</g>
<!-- Node3 -->
<g id="Node000003" class="node">
<title>Node3</title>
<g id="a_Node000003"><a xlink:href="../../d8/d8e/classlci_1_1net__post__putImm__x.html#a3608f246be4f71f55eeb69912dc77ef9" target="_top" xlink:title=" ">
<polygon fill="white" stroke="#666666" points="274,-265 155,-265 155,-235 274,-235 274,-265"/>
<text text-anchor="start" x="163" y="-253" font-family="Helvetica,sans-Serif" font-size="10.00">lci::net_post_putImm</text>
<text text-anchor="middle" x="214.5" y="-242" font-family="Helvetica,sans-Serif" font-size="10.00">_x::call</text>
</a>
</g>
</g>
<!-- Node2&#45;&gt;Node3 -->
<g id="edge2_Node000002_Node000003" class="edge">
<title>Node2&#45;&gt;Node3</title>
<g id="a_edge2_Node000002_Node000003"><a xlink:title=" ">
<path fill="none" stroke="#63b8ff" d="M455.16,-482.48C409.88,-471.32 351.4,-451.15 310,-416 259.94,-373.51 230.79,-297.44 220.15,-265.16"/>
<polygon fill="#63b8ff" stroke="#63b8ff" points="454.37,-485.88 464.9,-484.79 455.98,-479.07 454.37,-485.88"/>
</a>
</g>
</g>
<!-- Node6 -->
<g id="Node000006" class="node">
<title>Node6</title>
<g id="a_Node000006"><a xlink:href="../../d8/d8e/classlci_1_1net__post__putImm__x.html#acdefdfde572487e72870264a1a4c51d3" target="_top" xlink:title=" ">
<polygon fill="white" stroke="#666666" points="429,-287 310,-287 310,-257 429,-257 429,-287"/>
<text text-anchor="start" x="318" y="-275" font-family="Helvetica,sans-Serif" font-size="10.00">lci::net_post_putImm</text>
<text text-anchor="middle" x="369.5" y="-264" font-family="Helvetica,sans-Serif" font-size="10.00">_x::call_impl</text>
</a>
</g>
</g>
<!-- Node2&#45;&gt;Node6 -->
<g id="edge5_Node000002_Node000006" class="edge">
<title>Node2&#45;&gt;Node6</title>
<g id="a_edge5_Node000002_Node000006"><a xlink:title=" ">
<path fill="none" stroke="#63b8ff" d="M468.51,-474.05C467.29,-473.08 466.12,-472.06 465,-471 408.64,-417.6 382.24,-323.76 373.73,-287.19"/>
<polygon fill="#63b8ff" stroke="#63b8ff" points="466.86,-477.16 477.1,-479.89 470.79,-471.37 466.86,-477.16"/>
</a>
</g>
</g>
<!-- Node4 -->
<g id="Node000004" class="node">
<title>Node4</title>
<g id="a_Node000004"><a xlink:href="../../d5/dd3/namespacelci.html#a9d4033438e76a686584802f838d45035" target="_top" xlink:title=" ">
<polygon fill="white" stroke="#666666" points="119,-281.5 0,-281.5 0,-262.5 119,-262.5 119,-281.5"/>
<text text-anchor="middle" x="59.5" y="-269.5" font-family="Helvetica,sans-Serif" font-size="10.00">lci::net_post_putImm</text>
</a>
</g>
</g>
<!-- Node3&#45;&gt;Node4 -->
<g id="edge3_Node000003_Node000004" class="edge">
<title>Node3&#45;&gt;Node4</title>
<g id="a_edge3_Node000003_Node000004"><a xlink:title=" ">
<path fill="none" stroke="#63b8ff" d="M144.79,-259.88C136.2,-261.12 127.47,-262.37 119.06,-263.58"/>
<polygon fill="#63b8ff" stroke="#63b8ff" points="145.38,-263.33 154.78,-258.44 144.39,-256.4 145.38,-263.33"/>
</a>
</g>
</g>
<!-- Node5 -->
<g id="Node000005" class="node">
<title>Node5</title>
<g id="a_Node000005"><a xlink:href="../../d8/d8e/classlci_1_1net__post__putImm__x.html#ab45c445f836344e5424122a3f75e0523" target="_top" xlink:title=" ">
<polygon fill="white" stroke="#666666" points="119,-244 0,-244 0,-214 119,-214 119,-244"/>
<text text-anchor="start" x="8" y="-232" font-family="Helvetica,sans-Serif" font-size="10.00">lci::net_post_putImm</text>
<text text-anchor="middle" x="59.5" y="-221" font-family="Helvetica,sans-Serif" font-size="10.00">_x::operator()</text>
</a>
</g>
</g>
<!-- Node3&#45;&gt;Node5 -->
<g id="edge4_Node000003_Node000005" class="edge">
<title>Node3&#45;&gt;Node5</title>
<g id="a_edge4_Node000003_Node000005"><a xlink:title=" ">
<path fill="none" stroke="#63b8ff" d="M144.79,-240.57C136.2,-239.39 127.47,-238.19 119.06,-237.04"/>
<polygon fill="#63b8ff" stroke="#63b8ff" points="144.4,-244.05 154.78,-241.94 145.35,-237.11 144.4,-244.05"/>
</a>
</g>
</g>
<!-- Node6&#45;&gt;Node3 -->
<g id="edge6_Node000006_Node000003" class="edge">
<title>Node6&#45;&gt;Node3</title>
<g id="a_edge6_Node000006_Node000003"><a xlink:title=" ">
<path fill="none" stroke="#63b8ff" d="M299.79,-262.12C291.2,-260.88 282.47,-259.63 274.06,-258.42"/>
<polygon fill="#63b8ff" stroke="#63b8ff" points="299.39,-265.6 309.78,-263.56 300.38,-258.67 299.39,-265.6"/>
</a>
</g>
</g>
<!-- Node7&#45;&gt;Node3 -->
<g id="edge8_Node000007_Node000003" class="edge">
<title>Node7&#45;&gt;Node3</title>
<g id="a_edge8_Node000007_Node000003"><a xlink:title=" ">
<path fill="none" stroke="#63b8ff" d="M454.86,-435.65C410.39,-425.74 352.97,-407.93 310,-377 267.84,-346.65 236.43,-291.89 222.87,-265.31"/>
<polygon fill="#63b8ff" stroke="#63b8ff" points="454.21,-439.09 464.72,-437.76 455.68,-432.24 454.21,-439.09"/>
</a>
</g>
</g>
<!-- Node7&#45;&gt;Node6 -->
<g id="edge9_Node000007_Node000006" class="edge">
<title>Node7&#45;&gt;Node6</title>
<g id="a_edge9_Node000007_Node000006"><a xlink:title=" ">
<path fill="none" stroke="#63b8ff" d="M469.74,-426.64C468.1,-425.49 466.51,-424.27 465,-423 418.89,-384.13 388.2,-316.86 376.19,-287.01"/>
<polygon fill="#63b8ff" stroke="#63b8ff" points="468.02,-429.69 478.38,-431.94 471.69,-423.73 468.02,-429.69"/>
</a>
</g>
</g>
<!-- Node8&#45;&gt;Node3 -->
<g id="edge11_Node000008_Node000003" class="edge">
<title>Node8&#45;&gt;Node3</title>
<g id="a_edge11_Node000008_Node000003"><a xlink:title=" ">
<path fill="none" stroke="#63b8ff" d="M454.72,-390.27C411.09,-382.54 354.66,-368.39 310,-343 274.58,-322.86 242.96,-286.11 226.82,-265.35"/>
<polygon fill="#63b8ff" stroke="#63b8ff" points="454.23,-393.73 464.67,-391.96 455.4,-386.83 454.23,-393.73"/>
</a>
</g>
</g>
<!-- Node8&#45;&gt;Node6 -->
<g id="edge12_Node000008_Node000006" class="edge">
<title>Node8&#45;&gt;Node6</title>
<g id="a_edge12_Node000008_Node000006"><a xlink:title=" ">
<path fill="none" stroke="#63b8ff" d="M471.53,-379.17C469.28,-377.84 467.09,-376.46 465,-375 429.17,-350.02 397.01,-309.24 381.07,-287.24"/>
<polygon fill="#63b8ff" stroke="#63b8ff" points="470.02,-382.32 480.49,-383.94 473.31,-376.15 470.02,-382.32"/>
</a>
</g>
</g>
<!-- Node9&#45;&gt;Node3 -->
<g id="edge14_Node000009_Node000003" class="edge">
<title>Node9&#45;&gt;Node3</title>
<g id="a_edge14_Node000009_Node000003"><a xlink:title=" ">
<path fill="none" stroke="#63b8ff" d="M454.91,-347.54C411.97,-343.5 356.23,-334.79 310,-316 279.97,-303.79 250.1,-280.61 232.22,-265.22"/>
<polygon fill="#63b8ff" stroke="#63b8ff" points="454.71,-351.03 464.97,-348.42 455.32,-344.06 454.71,-351.03"/>
</a>
</g>
</g>
<!-- Node9&#45;&gt;Node6 -->
<g id="edge15_Node000009_Node000006" class="edge">
<title>Node9&#45;&gt;Node6</title>
<g id="a_edge15_Node000009_Node000006"><a xlink:title=" ">
<path fill="none" stroke="#63b8ff" d="M475.37,-331.88C471.84,-330.29 468.35,-328.65 465,-327 440.31,-314.82 413.28,-298.8 394.47,-287.19"/>
<polygon fill="#63b8ff" stroke="#63b8ff" points="474.21,-335.19 484.77,-335.99 477.01,-328.78 474.21,-335.19"/>
</a>
</g>
</g>
<!-- Node10&#45;&gt;Node3 -->
<g id="edge17_Node000010_Node000003" class="edge">
<title>Node10&#45;&gt;Node3</title>
<g id="a_edge17_Node000010_Node000003"><a xlink:title=" ">
<path fill="none" stroke="#63b8ff" d="M454.41,-307.98C412.11,-309.25 357.22,-307.7 310,-296 284.5,-289.68 257.78,-275.92 239.29,-265.08"/>
<polygon fill="#63b8ff" stroke="#63b8ff" points="454.74,-311.47 464.6,-307.61 454.48,-304.47 454.74,-311.47"/>
</a>
</g>
</g>
<!-- Node10&#45;&gt;Node6 -->
<g id="edge18_Node000010_Node000006" class="edge">
<title>Node10&#45;&gt;Node6</title>
<g id="a_edge18_Node000010_Node000006"><a xlink:title=" ">
<path fill="none" stroke="#63b8ff" d="M454.79,-289.08C446.2,-287.34 437.47,-285.57 429.06,-283.86"/>
<polygon fill="#63b8ff" stroke="#63b8ff" points="454.29,-292.55 464.78,-291.1 455.68,-285.69 454.29,-292.55"/>
</a>
</g>
</g>
<!-- Node11&#45;&gt;Node3 -->
<g id="edge20_Node000011_Node000003" class="edge">
<title>Node11&#45;&gt;Node3</title>
<g id="a_edge20_Node000011_Node000003"><a xlink:title=" ">
<path fill="none" stroke="#63b8ff" d="M454.72,-249.31C446.07,-248.77 437.33,-248.31 429,-248 376.77,-246.07 317.31,-246.87 274.42,-247.98"/>
<polygon fill="#63b8ff" stroke="#63b8ff" points="454.6,-252.81 464.81,-249.98 455.06,-245.82 454.6,-252.81"/>
</a>
</g>
</g>
<!-- Node11&#45;&gt;Node6 -->
<g id="edge21_Node000011_Node000006" class="edge">
<title>Node11&#45;&gt;Node6</title>
<g id="a_edge21_Node000011_Node000006"><a xlink:title=" ">
<path fill="none" stroke="#63b8ff" d="M454.79,-262.63C446.2,-263.59 437.47,-264.56 429.06,-265.49"/>
<polygon fill="#63b8ff" stroke="#63b8ff" points="455.23,-266.11 464.78,-261.52 454.46,-259.15 455.23,-266.11"/>
</a>
</g>
</g>
<!-- Node12&#45;&gt;Node3 -->
<g id="edge23_Node000012_Node000003" class="edge">
<title>Node12&#45;&gt;Node3</title>
<g id="a_edge23_Node000012_Node000003"><a xlink:title=" ">
<path fill="none" stroke="#63b8ff" d="M454.62,-216.62C400.39,-224.19 325.62,-234.63 274.2,-241.8"/>
<polygon fill="#63b8ff" stroke="#63b8ff" points="455.42,-220.04 464.84,-215.19 454.45,-213.11 455.42,-220.04"/>
</a>
</g>
</g>
<!-- Node12&#45;&gt;Node6 -->
<g id="edge24_Node000012_Node000006" class="edge">
<title>Node12&#45;&gt;Node6</title>
<g id="a_edge24_Node000012_Node000006"><a xlink:title=" ">
<path fill="none" stroke="#63b8ff" d="M476.92,-226.01C472.89,-227.69 468.87,-229.37 465,-231 445.06,-239.41 422.86,-249.03 404.99,-256.84"/>
<polygon fill="#63b8ff" stroke="#63b8ff" points="478.41,-229.18 486.32,-222.12 475.74,-222.71 478.41,-229.18"/>
</a>
</g>
</g>
<!-- Node13&#45;&gt;Node3 -->
<g id="edge26_Node000013_Node000003" class="edge">
<title>Node13&#45;&gt;Node3</title>
<g id="a_edge26_Node000013_Node000003"><a xlink:title=" ">
<path fill="none" stroke="#63b8ff" d="M454.81,-175.77C412.75,-186.42 357.97,-201 310,-216 291.86,-221.67 272.04,-228.68 255.25,-234.85"/>
<polygon fill="#63b8ff" stroke="#63b8ff" points="455.83,-179.12 464.67,-173.28 454.12,-172.33 455.83,-179.12"/>
</a>
</g>
</g>
<!-- Node13&#45;&gt;Node6 -->
<g id="edge27_Node000013_Node000006" class="edge">
<title>Node13&#45;&gt;Node6</title>
<g id="a_edge27_Node000013_Node000006"><a xlink:title=" ">
<path fill="none" stroke="#63b8ff" d="M472.18,-178.74C469.71,-180.1 467.3,-181.52 465,-183 432.04,-204.24 400.23,-237.72 383.23,-256.99"/>
<polygon fill="#63b8ff" stroke="#63b8ff" points="473.99,-181.75 481.33,-174.1 470.82,-175.5 473.99,-181.75"/>
</a>
</g>
</g>
<!-- Node14&#45;&gt;Node3 -->
<g id="edge29_Node000014_Node000003" class="edge">
<title>Node14&#45;&gt;Node3</title>
<g id="a_edge29_Node000014_Node000003"><a xlink:title=" ">
<path fill="none" stroke="#63b8ff" d="M454.97,-126.55C411.92,-137.82 356.02,-155.25 310,-179 280.27,-194.34 250.09,-218.93 232.08,-234.77"/>
<polygon fill="#63b8ff" stroke="#63b8ff" points="455.97,-129.9 464.79,-124.02 454.23,-123.12 455.97,-129.9"/>
</a>
</g>
</g>
<!-- Node14&#45;&gt;Node6 -->
<g id="edge30_Node000014_Node000006" class="edge">
<title>Node14&#45;&gt;Node6</title>
<g id="a_edge30_Node000014_Node000006"><a xlink:title=" ">
<path fill="none" stroke="#63b8ff" d="M469.92,-131.38C468.22,-132.53 466.57,-133.73 465,-135 422.02,-169.62 390.57,-228.84 377.37,-256.68"/>
<polygon fill="#63b8ff" stroke="#63b8ff" points="472.02,-134.2 478.83,-126.08 468.44,-128.18 472.02,-134.2"/>
</a>
</g>
</g>
<!-- Node15&#45;&gt;Node3 -->
<g id="edge32_Node000015_Node000003" class="edge">
<title>Node15&#45;&gt;Node3</title>
<g id="a_edge32_Node000015_Node000003"><a xlink:title=" ">
<path fill="none" stroke="#63b8ff" d="M455.12,-73.22C410.75,-82.35 353.35,-99.1 310,-129 268.75,-157.45 237.12,-209.37 223.23,-234.95"/>
<polygon fill="#63b8ff" stroke="#63b8ff" points="455.82,-76.65 464.95,-71.27 454.46,-69.78 455.82,-76.65"/>
</a>
</g>
</g>
<!-- Node15&#45;&gt;Node6 -->
<g id="edge33_Node000015_Node000006" class="edge">
<title>Node15&#45;&gt;Node6</title>
<g id="a_edge33_Node000015_Node000006"><a xlink:title=" ">
<path fill="none" stroke="#63b8ff" d="M469.02,-83.63C467.62,-84.7 466.28,-85.82 465,-87 411.66,-136.09 383.82,-222.14 374.33,-256.85"/>
<polygon fill="#63b8ff" stroke="#63b8ff" points="471.06,-86.47 477.49,-78.05 467.21,-80.63 471.06,-86.47"/>
</a>
</g>
</g>
<!-- Node16&#45;&gt;Node3 -->
<g id="edge35_Node000016_Node000003" class="edge">
<title>Node16&#45;&gt;Node3</title>
<g id="a_edge35_Node000016_Node000003"><a xlink:title=" ">
<path fill="none" stroke="#63b8ff" d="M454.82,-20.46C409.54,-27.15 351.23,-42.01 310,-75 256.08,-118.14 228.73,-200.69 219.35,-234.74"/>
<polygon fill="#63b8ff" stroke="#63b8ff" points="455.42,-23.91 464.85,-19.08 454.47,-16.98 455.42,-23.91"/>
</a>
</g>
</g>
<!-- Node16&#45;&gt;Node6 -->
<g id="edge36_Node000016_Node000006" class="edge">
<title>Node16&#45;&gt;Node6</title>
<g id="a_edge36_Node000016_Node000006"><a xlink:title=" ">
<path fill="none" stroke="#63b8ff" d="M468.35,-35.93C467.18,-36.91 466.07,-37.93 465,-39 401.08,-103.18 378.7,-216.39 372.51,-256.99"/>
<polygon fill="#63b8ff" stroke="#63b8ff" points="470.47,-38.71 476.6,-30.08 466.42,-33 470.47,-38.71"/>
</a>
</g>
</g>
</g>
</svg>
