<?xml version="1.0" encoding="UTF-8" standalone="no"?>
<!DOCTYPE svg PUBLIC "-//W3C//DTD SVG 1.1//EN"
 "http://www.w3.org/Graphics/SVG/1.1/DTD/svg11.dtd">
<!-- Generated by graphviz version 2.43.0 (0)
 -->
<!-- Title: lci::net_post_putImm_x::operator() Pages: 1 -->
<svg width="759pt" height="518pt"
 viewBox="0.00 0.00 759.00 518.00" xmlns="http://www.w3.org/2000/svg" xmlns:xlink="http://www.w3.org/1999/xlink">
<g id="graph0" class="graph" transform="scale(1 1) rotate(0) translate(4 514)">
<title>lci::net_post_putImm_x::operator()</title>
<!-- Node1 -->
<g id="Node000001" class="node">
<title>Node1</title>
<g id="a_Node000001"><a xlink:title=" ">
<polygon fill="#999999" stroke="#666666" points="119,-267 0,-267 0,-237 119,-237 119,-267"/>
<text text-anchor="start" x="8" y="-255" font-family="Helvetica,sans-Serif" font-size="10.00">lci::net_post_putImm</text>
<text text-anchor="middle" x="59.5" y="-244" font-family="Helvetica,sans-Serif" font-size="10.00">_x::operator()</text>
</a>
</g>
</g>
<!-- Node2 -->
<g id="Node000002" class="node">
<title>Node2</title>
<g id="a_Node000002"><a xlink:href="../../d8/d8e/classlci_1_1net__post__putImm__x.html#a3608f246be4f71f55eeb69912dc77ef9" target="_top" xlink:title=" ">
<polygon fill="white" stroke="#666666" points="274,-267 155,-267 155,-237 274,-237 274,-267"/>
<text text-anchor="start" x="163" y="-255" font-family="Helvetica,sans-Serif" font-size="10.00">lci::net_post_putImm</text>
<text text-anchor="middle" x="214.5" y="-244" font-family="Helvetica,sans-Serif" font-size="10.00">_x::call</text>
</a>
</g>
</g>
<!-- Node1&#45;&gt;Node2 -->
<g id="edge1_Node000001_Node000002" class="edge">
<title>Node1&#45;&gt;Node2</title>
<g id="a_edge1_Node000001_Node000002"><a xlink:title=" ">
<path fill="none" stroke="#63b8ff" d="M119.22,-252C127.54,-252 136.17,-252 144.67,-252"/>
<polygon fill="#63b8ff" stroke="#63b8ff" points="144.94,-255.5 154.94,-252 144.94,-248.5 144.94,-255.5"/>
</a>
</g>
</g>
<!-- Node3 -->
<g id="Node000003" class="node">
<title>Node3</title>
<g id="a_Node000003"><a xlink:href="../../d8/d8e/classlci_1_1net__post__putImm__x.html#a809cffd24d8378635ea78d2501146172" target="_top" xlink:title=" ">
<polygon fill="white" stroke="#666666" points="584,-510 465,-510 465,-480 584,-480 584,-510"/>
<text text-anchor="start" x="473" y="-498" font-family="Helvetica,sans-Serif" font-size="10.00">lci::net_post_putImm</text>
<text text-anchor="middle" x="524.5" y="-487" font-family="Helvetica,sans-Serif" font-size="10.00">_x::buffer</text>
</a>
</g>
</g>
<!-- Node2&#45;&gt;Node3 -->
<g id="edge2_Node000002_Node000003" class="edge">
<title>Node2&#45;&gt;Node3</title>
<g id="a_edge2_Node000002_Node000003"><a xlink:title=" ">
<path fill="none" stroke="#63b8ff" d="M220.16,-267.08C230.83,-299.21 260.03,-374.87 310,-417 351.46,-451.95 409.93,-471.86 455.2,-482.8"/>
<polygon fill="#63b8ff" stroke="#63b8ff" points="454.4,-486.21 464.94,-485.06 455.99,-479.39 454.4,-486.21"/>
</a>
</g>
</g>
<!-- Node5 -->
<g id="Node000005" class="node">
<title>Node5</title>
<g id="a_Node000005"><a xlink:href="../../d8/d8e/classlci_1_1net__post__putImm__x.html#acdefdfde572487e72870264a1a4c51d3" target="_top" xlink:title=" ">
<polygon fill="white" stroke="#666666" points="429,-289 310,-289 310,-259 429,-259 429,-289"/>
<text text-anchor="start" x="318" y="-277" font-family="Helvetica,sans-Serif" font-size="10.00">lci::net_post_putImm</text>
<text text-anchor="middle" x="369.5" y="-266" font-family="Helvetica,sans-Serif" font-size="10.00">_x::call_impl</text>
</a>
</g>
</g>
<!-- Node2&#45;&gt;Node5 -->
<g id="edge4_Node000002_Node000005" class="edge">
<title>Node2&#45;&gt;Node5</title>
<g id="a_edge4_Node000002_Node000005"><a xlink:title=" ">
<path fill="none" stroke="#63b8ff" d="M274.22,-260.44C282.64,-261.65 291.36,-262.91 299.95,-264.14"/>
<polygon fill="#63b8ff" stroke="#63b8ff" points="299.54,-267.62 309.94,-265.58 300.54,-260.69 299.54,-267.62"/>
</a>
</g>
</g>
<!-- Node6 -->
<g id="Node000006" class="node">
<title>Node6</title>
<g id="a_Node000006"><a xlink:href="../../d8/d8e/classlci_1_1net__post__putImm__x.html#afeccc1b88e00ebbd6ebdbffb5b0d2d93" target="_top" xlink:title=" ">
<polygon fill="white" stroke="#666666" points="584,-462 465,-462 465,-432 584,-432 584,-462"/>
<text text-anchor="start" x="473" y="-450" font-family="Helvetica,sans-Serif" font-size="10.00">lci::net_post_putImm</text>
<text text-anchor="middle" x="524.5" y="-439" font-family="Helvetica,sans-Serif" font-size="10.00">_x::device</text>
</a>
</g>
</g>
<!-- Node2&#45;&gt;Node6 -->
<g id="edge26_Node000002_Node000006" class="edge">
<title>Node2&#45;&gt;Node6</title>
<g id="a_edge26_Node000002_Node000006"><a xlink:title=" ">
<path fill="none" stroke="#63b8ff" d="M222.89,-267.2C236.47,-293.61 267.94,-347.97 310,-378 353.03,-408.72 410.45,-426.26 454.91,-435.96"/>
<polygon fill="#63b8ff" stroke="#63b8ff" points="454.25,-439.4 464.76,-438.03 455.69,-432.55 454.25,-439.4"/>
</a>
</g>
</g>
<!-- Node7 -->
<g id="Node000007" class="node">
<title>Node7</title>
<g id="a_Node000007"><a xlink:href="../../d8/d8e/classlci_1_1net__post__putImm__x.html#a066fb3bcc618c717ada21015d407e105" target="_top" xlink:title=" ">
<polygon fill="white" stroke="#666666" points="584,-414 465,-414 465,-384 584,-384 584,-414"/>
<text text-anchor="start" x="473" y="-402" font-family="Helvetica,sans-Serif" font-size="10.00">lci::net_post_putImm</text>
<text text-anchor="middle" x="524.5" y="-391" font-family="Helvetica,sans-Serif" font-size="10.00">_x::endpoint</text>
</a>
</g>
</g>
<!-- Node2&#45;&gt;Node7 -->
<g id="edge27_Node000002_Node000007" class="edge">
<title>Node2&#45;&gt;Node7</title>
<g id="a_edge27_Node000002_Node000007"><a xlink:title=" ">
<path fill="none" stroke="#63b8ff" d="M226.85,-267.2C243.02,-287.76 274.67,-324.14 310,-344 354.73,-369.14 411.16,-383.03 454.77,-390.56"/>
<polygon fill="#63b8ff" stroke="#63b8ff" points="454.28,-394.03 464.72,-392.21 455.42,-387.12 454.28,-394.03"/>
</a>
</g>
</g>
<!-- Node8 -->
<g id="Node000008" class="node">
<title>Node8</title>
<g id="a_Node000008"><a xlink:href="../../d8/d8e/classlci_1_1net__post__putImm__x.html#a406093e7a6942f230bc280826885c391" target="_top" xlink:title=" ">
<polygon fill="white" stroke="#666666" points="584,-366 465,-366 465,-336 584,-336 584,-366"/>
<text text-anchor="start" x="473" y="-354" font-family="Helvetica,sans-Serif" font-size="10.00">lci::net_post_putImm</text>
<text text-anchor="middle" x="524.5" y="-343" font-family="Helvetica,sans-Serif" font-size="10.00">_x::imm_data</text>
</a>
</g>
</g>
<!-- Node2&#45;&gt;Node8 -->
<g id="edge28_Node000002_Node000008" class="edge">
<title>Node2&#45;&gt;Node8</title>
<g id="a_edge28_Node000002_Node000008"><a xlink:title=" ">
<path fill="none" stroke="#63b8ff" d="M232.25,-267.01C250.16,-282.18 280.05,-305.03 310,-317 356.14,-335.44 411.66,-343.9 454.51,-347.77"/>
<polygon fill="#63b8ff" stroke="#63b8ff" points="454.3,-351.27 464.56,-348.62 454.89,-344.29 454.3,-351.27"/>
</a>
</g>
</g>
<!-- Node9 -->
<g id="Node000009" class="node">
<title>Node9</title>
<g id="a_Node000009"><a xlink:href="../../d8/d8e/classlci_1_1net__post__putImm__x.html#a2784723ec0f924ae9473ba92a6aef5ab" target="_top" xlink:title=" ">
<polygon fill="white" stroke="#666666" points="584,-318 465,-318 465,-288 584,-288 584,-318"/>
<text text-anchor="start" x="473" y="-306" font-family="Helvetica,sans-Serif" font-size="10.00">lci::net_post_putImm</text>
<text text-anchor="middle" x="524.5" y="-295" font-family="Helvetica,sans-Serif" font-size="10.00">_x::mr</text>
</a>
</g>
</g>
<!-- Node2&#45;&gt;Node9 -->
<g id="edge29_Node000002_Node000009" class="edge">
<title>Node2&#45;&gt;Node9</title>
<g id="a_edge29_Node000002_Node000009"><a xlink:title=" ">
<path fill="none" stroke="#63b8ff" d="M239.28,-267.15C257.76,-278.02 284.47,-291.8 310,-298 357.26,-309.48 412.15,-310.5 454.44,-308.78"/>
<polygon fill="#63b8ff" stroke="#63b8ff" points="454.81,-312.26 464.63,-308.3 454.48,-305.27 454.81,-312.26"/>
</a>
</g>
</g>
<!-- Node10 -->
<g id="Node000010" class="node">
<title>Node10</title>
<g id="a_Node000010"><a xlink:href="../../d8/d8e/classlci_1_1net__post__putImm__x.html#ad3f13422931b7f055dc4038e4fb0ea94" target="_top" xlink:title=" ">
<polygon fill="white" stroke="#666666" points="584,-270 465,-270 465,-240 584,-240 584,-270"/>
<text text-anchor="start" x="473" y="-258" font-family="Helvetica,sans-Serif" font-size="10.00">lci::net_post_putImm</text>
<text text-anchor="middle" x="524.5" y="-247" font-family="Helvetica,sans-Serif" font-size="10.00">_x::offset</text>
</a>
</g>
</g>
<!-- Node2&#45;&gt;Node10 -->
<g id="edge30_Node000002_Node000010" class="edge">
<title>Node2&#45;&gt;Node10</title>
<g id="a_edge30_Node000002_Node000010"><a xlink:title=" ">
<path fill="none" stroke="#63b8ff" d="M274.41,-250.32C317.29,-249.37 376.75,-248.62 429,-250 437.32,-250.22 446.05,-250.55 454.7,-250.93"/>
<polygon fill="#63b8ff" stroke="#63b8ff" points="454.64,-254.44 464.79,-251.41 454.97,-247.44 454.64,-254.44"/>
</a>
</g>
</g>
<!-- Node11 -->
<g id="Node000011" class="node">
<title>Node11</title>
<g id="a_Node000011"><a xlink:href="../../d8/d8e/classlci_1_1net__post__putImm__x.html#af87c125ecec9c63cf31d9d01ee21fca1" target="_top" xlink:title=" ">
<polygon fill="white" stroke="#666666" points="584,-222 465,-222 465,-192 584,-192 584,-222"/>
<text text-anchor="start" x="473" y="-210" font-family="Helvetica,sans-Serif" font-size="10.00">lci::net_post_putImm</text>
<text text-anchor="middle" x="524.5" y="-199" font-family="Helvetica,sans-Serif" font-size="10.00">_x::rank</text>
</a>
</g>
</g>
<!-- Node2&#45;&gt;Node11 -->
<g id="edge31_Node000002_Node000011" class="edge">
<title>Node2&#45;&gt;Node11</title>
<g id="a_edge31_Node000002_Node000011"><a xlink:title=" ">
<path fill="none" stroke="#63b8ff" d="M274.16,-243.43C325.56,-235.92 400.33,-225 454.58,-217.07"/>
<polygon fill="#63b8ff" stroke="#63b8ff" points="455.41,-220.49 464.8,-215.58 454.4,-213.56 455.41,-220.49"/>
</a>
</g>
</g>
<!-- Node12 -->
<g id="Node000012" class="node">
<title>Node12</title>
<g id="a_Node000012"><a xlink:href="../../d8/d8e/classlci_1_1net__post__putImm__x.html#a2f3407714f203243c8043eebbdb0bf7a" target="_top" xlink:title=" ">
<polygon fill="white" stroke="#666666" points="584,-174 465,-174 465,-144 584,-144 584,-174"/>
<text text-anchor="start" x="473" y="-162" font-family="Helvetica,sans-Serif" font-size="10.00">lci::net_post_putImm</text>
<text text-anchor="middle" x="524.5" y="-151" font-family="Helvetica,sans-Serif" font-size="10.00">_x::rmr</text>
</a>
</g>
</g>
<!-- Node2&#45;&gt;Node12 -->
<g id="edge32_Node000002_Node000012" class="edge">
<title>Node2&#45;&gt;Node12</title>
<g id="a_edge32_Node000002_Node000012"><a xlink:title=" ">
<path fill="none" stroke="#63b8ff" d="M253.85,-236.91C270.92,-230.42 291.34,-222.98 310,-217 357.92,-201.65 412.7,-186.82 454.77,-176"/>
<polygon fill="#63b8ff" stroke="#63b8ff" points="455.82,-179.35 464.64,-173.48 454.08,-172.57 455.82,-179.35"/>
</a>
</g>
</g>
<!-- Node13 -->
<g id="Node000013" class="node">
<title>Node13</title>
<g id="a_Node000013"><a xlink:href="../../d8/d8e/classlci_1_1net__post__putImm__x.html#a50d24697e8574200e88684c996357a0c" target="_top" xlink:title=" ">
<polygon fill="white" stroke="#666666" points="584,-126 465,-126 465,-96 584,-96 584,-126"/>
<text text-anchor="start" x="473" y="-114" font-family="Helvetica,sans-Serif" font-size="10.00">lci::net_post_putImm</text>
<text text-anchor="middle" x="524.5" y="-103" font-family="Helvetica,sans-Serif" font-size="10.00">_x::runtime</text>
</a>
</g>
</g>
<!-- Node2&#45;&gt;Node13 -->
<g id="edge33_Node000002_Node000013" class="edge">
<title>Node2&#45;&gt;Node13</title>
<g id="a_edge33_Node000002_Node000013"><a xlink:title=" ">
<path fill="none" stroke="#63b8ff" d="M231.35,-236.91C249.21,-220.62 279.71,-194.89 310,-179 355.86,-154.95 411.76,-137.52 454.86,-126.33"/>
<polygon fill="#63b8ff" stroke="#63b8ff" points="455.86,-129.69 464.69,-123.83 454.13,-122.91 455.86,-129.69"/>
</a>
</g>
</g>
<!-- Node14 -->
<g id="Node000014" class="node">
<title>Node14</title>
<g id="a_Node000014"><a xlink:href="../../d8/d8e/classlci_1_1net__post__putImm__x.html#af251ca8b5f6df902fc28a00591c153fe" target="_top" xlink:title=" ">
<polygon fill="white" stroke="#666666" points="584,-78 465,-78 465,-48 584,-48 584,-78"/>
<text text-anchor="start" x="473" y="-66" font-family="Helvetica,sans-Serif" font-size="10.00">lci::net_post_putImm</text>
<text text-anchor="middle" x="524.5" y="-55" font-family="Helvetica,sans-Serif" font-size="10.00">_x::size</text>
</a>
</g>
</g>
<!-- Node2&#45;&gt;Node14 -->
<g id="edge34_Node000002_Node000014" class="edge">
<title>Node2&#45;&gt;Node14</title>
<g id="a_edge34_Node000002_Node000014"><a xlink:title=" ">
<path fill="none" stroke="#63b8ff" d="M223.16,-236.69C236.96,-210.69 268.44,-157.91 310,-129 353.23,-98.93 410.64,-82.19 455.04,-73.1"/>
<polygon fill="#63b8ff" stroke="#63b8ff" points="455.74,-76.53 464.88,-71.17 454.39,-69.66 455.74,-76.53"/>
</a>
</g>
</g>
<!-- Node15 -->
<g id="Node000015" class="node">
<title>Node15</title>
<g id="a_Node000015"><a xlink:href="../../d8/d8e/classlci_1_1net__post__putImm__x.html#a935d85e10c5e3b385d98ce98b2528c85" target="_top" xlink:title=" ">
<polygon fill="white" stroke="#666666" points="584,-30 465,-30 465,0 584,0 584,-30"/>
<text text-anchor="start" x="473" y="-18" font-family="Helvetica,sans-Serif" font-size="10.00">lci::net_post_putImm</text>
<text text-anchor="middle" x="524.5" y="-7" font-family="Helvetica,sans-Serif" font-size="10.00">_x::user_context</text>
</a>
</g>
</g>
<!-- Node2&#45;&gt;Node15 -->
<g id="edge35_Node000002_Node000015" class="edge">
<title>Node2&#45;&gt;Node15</title>
<g id="a_edge35_Node000002_Node000015"><a xlink:title=" ">
<path fill="none" stroke="#63b8ff" d="M219.22,-236.82C228.43,-202.55 255.57,-118.76 310,-75 351.15,-41.92 409.47,-27.06 454.77,-20.4"/>
<polygon fill="#63b8ff" stroke="#63b8ff" points="455.37,-23.85 464.81,-19.02 454.42,-16.91 455.37,-23.85"/>
</a>
</g>
</g>
<!-- Node4 -->
<g id="Node000004" class="node">
<title>Node4</title>
<g id="a_Node000004"><a xlink:href="../../d8/d8e/classlci_1_1net__post__putImm__x.html#a0a8c6e1ccadcdd09a70b1173301a7112" target="_top" xlink:title=" ">
<polygon fill="white" stroke="#666666" points="751,-270 620,-270 620,-240 751,-240 751,-270"/>
<text text-anchor="start" x="628" y="-258" font-family="Helvetica,sans-Serif" font-size="10.00">lci::net_post_putImm</text>
<text text-anchor="middle" x="685.5" y="-247" font-family="Helvetica,sans-Serif" font-size="10.00">_x::net_post_putImm_x</text>
</a>
</g>
</g>
<!-- Node3&#45;&gt;Node4 -->
<g id="edge3_Node000003_Node000004" class="edge">
<title>Node3&#45;&gt;Node4</title>
<g id="a_edge3_Node000003_Node000004"><a xlink:title=" ">
<path fill="none" stroke="#63b8ff" d="M571.93,-479.92C576.3,-477.37 580.43,-474.41 584,-471 640.79,-416.77 668.62,-324.18 679.21,-279.95"/>
<polygon fill="#63b8ff" stroke="#63b8ff" points="682.66,-280.58 681.49,-270.05 675.84,-279.01 682.66,-280.58"/>
</a>
</g>
</g>
<!-- Node5&#45;&gt;Node3 -->
<g id="edge5_Node000005_Node000003" class="edge">
<title>Node5&#45;&gt;Node3</title>
<g id="a_edge5_Node000005_Node000003"><a xlink:title=" ">
<path fill="none" stroke="#63b8ff" d="M373.77,-289.04C382.39,-325.24 409,-418.15 465,-471 466.12,-472.06 467.3,-473.08 468.52,-474.05"/>
<polygon fill="#63b8ff" stroke="#63b8ff" points="466.87,-477.16 477.11,-479.87 470.8,-471.36 466.87,-477.16"/>
</a>
</g>
</g>
<!-- Node5&#45;&gt;Node6 -->
<g id="edge6_Node000005_Node000006" class="edge">
<title>Node5&#45;&gt;Node6</title>
<g id="a_edge6_Node000005_Node000006"><a xlink:title=" ">
<path fill="none" stroke="#63b8ff" d="M376.43,-289.27C388.67,-318.94 419.45,-384.83 465,-423 466.51,-424.27 468.11,-425.48 469.75,-426.63"/>
<polygon fill="#63b8ff" stroke="#63b8ff" points="468.04,-429.68 478.4,-431.92 471.69,-423.71 468.04,-429.68"/>
</a>
</g>
</g>
<!-- Node5&#45;&gt;Node7 -->
<g id="edge8_Node000005_Node000007" class="edge">
<title>Node5&#45;&gt;Node7</title>
<g id="a_edge8_Node000005_Node000007"><a xlink:title=" ">
<path fill="none" stroke="#63b8ff" d="M381.4,-289.29C397.52,-310.94 429.62,-350.59 465,-375 467.1,-376.45 469.29,-377.83 471.55,-379.14"/>
<polygon fill="#63b8ff" stroke="#63b8ff" points="470.04,-382.3 480.52,-383.89 473.32,-376.12 470.04,-382.3"/>
</a>
</g>
</g>
<!-- Node5&#45;&gt;Node8 -->
<g id="edge10_Node000005_Node000008" class="edge">
<title>Node5&#45;&gt;Node8</title>
<g id="a_edge10_Node000005_Node000008"><a xlink:title=" ">
<path fill="none" stroke="#63b8ff" d="M395.33,-289.02C414.13,-300.13 440.78,-315.29 465,-327 468.36,-328.62 471.86,-330.24 475.4,-331.82"/>
<polygon fill="#63b8ff" stroke="#63b8ff" points="474.25,-335.14 484.82,-335.91 477.04,-328.72 474.25,-335.14"/>
</a>
</g>
</g>
<!-- Node5&#45;&gt;Node9 -->
<g id="edge12_Node000005_Node000009" class="edge">
<title>Node5&#45;&gt;Node9</title>
<g id="a_edge12_Node000005_Node000009"><a xlink:title=" ">
<path fill="none" stroke="#63b8ff" d="M429.22,-285.13C437.64,-286.73 446.36,-288.38 454.95,-290.01"/>
<polygon fill="#63b8ff" stroke="#63b8ff" points="454.46,-293.48 464.94,-291.9 455.77,-286.6 454.46,-293.48"/>
</a>
</g>
</g>
<!-- Node5&#45;&gt;Node10 -->
<g id="edge14_Node000005_Node000010" class="edge">
<title>Node5&#45;&gt;Node10</title>
<g id="a_edge14_Node000005_Node000010"><a xlink:title=" ">
<path fill="none" stroke="#63b8ff" d="M429.22,-266.71C437.64,-265.66 446.36,-264.58 454.95,-263.51"/>
<polygon fill="#63b8ff" stroke="#63b8ff" points="455.45,-266.98 464.94,-262.27 454.59,-260.03 455.45,-266.98"/>
</a>
</g>
</g>
<!-- Node5&#45;&gt;Node11 -->
<g id="edge16_Node000005_Node000011" class="edge">
<title>Node5&#45;&gt;Node11</title>
<g id="a_edge16_Node000005_Node000011"><a xlink:title=" ">
<path fill="none" stroke="#63b8ff" d="M402.73,-258.97C420.94,-250.57 444.15,-240.01 465,-231 468.85,-229.33 472.86,-227.63 476.89,-225.94"/>
<polygon fill="#63b8ff" stroke="#63b8ff" points="478.39,-229.1 486.28,-222.03 475.7,-222.64 478.39,-229.1"/>
</a>
</g>
</g>
<!-- Node5&#45;&gt;Node12 -->
<g id="edge18_Node000005_Node000012" class="edge">
<title>Node5&#45;&gt;Node12</title>
<g id="a_edge18_Node000005_Node000012"><a xlink:title=" ">
<path fill="none" stroke="#63b8ff" d="M382.87,-258.97C399.71,-239.3 431.61,-204.77 465,-183 467.29,-181.51 469.69,-180.07 472.16,-178.71"/>
<polygon fill="#63b8ff" stroke="#63b8ff" points="473.97,-181.71 481.29,-174.05 470.79,-175.47 473.97,-181.71"/>
</a>
</g>
</g>
<!-- Node5&#45;&gt;Node13 -->
<g id="edge20_Node000005_Node000013" class="edge">
<title>Node5&#45;&gt;Node13</title>
<g id="a_edge20_Node000005_Node000013"><a xlink:title=" ">
<path fill="none" stroke="#63b8ff" d="M377.11,-258.9C390.09,-230.84 421.49,-170.3 465,-135 466.57,-133.73 468.21,-132.52 469.91,-131.36"/>
<polygon fill="#63b8ff" stroke="#63b8ff" points="472.01,-134.18 478.8,-126.05 468.42,-128.17 472.01,-134.18"/>
</a>
</g>
</g>
<!-- Node5&#45;&gt;Node14 -->
<g id="edge22_Node000005_Node000014" class="edge">
<title>Node5&#45;&gt;Node14</title>
<g id="a_edge22_Node000005_Node000014"><a xlink:title=" ">
<path fill="none" stroke="#63b8ff" d="M374.21,-258.95C383.54,-224.04 411.18,-136.75 465,-87 466.27,-85.82 467.62,-84.7 469.01,-83.63"/>
<polygon fill="#63b8ff" stroke="#63b8ff" points="471.06,-86.47 477.47,-78.03 467.2,-80.62 471.06,-86.47"/>
</a>
</g>
</g>
<!-- Node5&#45;&gt;Node15 -->
<g id="edge24_Node000005_Node000015" class="edge">
<title>Node5&#45;&gt;Node15</title>
<g id="a_edge24_Node000005_Node000015"><a xlink:title=" ">
<path fill="none" stroke="#63b8ff" d="M372.47,-258.86C378.55,-217.92 400.71,-103.75 465,-39 466.06,-37.93 467.18,-36.9 468.35,-35.92"/>
<polygon fill="#63b8ff" stroke="#63b8ff" points="470.47,-38.71 476.59,-30.07 466.41,-33 470.47,-38.71"/>
</a>
</g>
</g>
<!-- Node6&#45;&gt;Node4 -->
<g id="edge7_Node000006_Node000004" class="edge">
<title>Node6&#45;&gt;Node4</title>
<g id="a_edge7_Node000006_Node000004"><a xlink:title=" ">
<path fill="none" stroke="#63b8ff" d="M570.99,-431.86C575.64,-429.3 580.09,-426.37 584,-423 630.43,-383.05 661.29,-316.1 675.5,-279.95"/>
<polygon fill="#63b8ff" stroke="#63b8ff" points="678.92,-280.8 679.22,-270.2 672.38,-278.3 678.92,-280.8"/>
</a>
</g>
</g>
<!-- Node7&#45;&gt;Node4 -->
<g id="edge9_Node000007_Node000004" class="edge">
<title>Node7&#45;&gt;Node4</title>
<g id="a_edge9_Node000007_Node000004"><a xlink:title=" ">
<path fill="none" stroke="#63b8ff" d="M568.96,-383.99C574.24,-381.36 579.39,-378.37 584,-375 620.5,-348.31 652,-305.62 669.59,-279.01"/>
<polygon fill="#63b8ff" stroke="#63b8ff" points="672.72,-280.61 675.22,-270.32 666.85,-276.81 672.72,-280.61"/>
</a>
</g>
</g>
<!-- Node8&#45;&gt;Node4 -->
<g id="edge11_Node000008_Node000004" class="edge">
<title>Node8&#45;&gt;Node4</title>
<g id="a_edge11_Node000008_Node000004"><a xlink:title=" ">
<path fill="none" stroke="#63b8ff" d="M565.73,-335.95C571.96,-333.2 578.24,-330.19 584,-327 610.62,-312.27 638.57,-291.78 658.22,-276.42"/>
<polygon fill="#63b8ff" stroke="#63b8ff" points="660.43,-279.13 666.11,-270.18 656.09,-273.64 660.43,-279.13"/>
</a>
</g>
</g>
<!-- Node9&#45;&gt;Node4 -->
<g id="edge13_Node000009_Node000004" class="edge">
<title>Node9&#45;&gt;Node4</title>
<g id="a_edge13_Node000009_Node000004"><a xlink:title=" ">
<path fill="none" stroke="#63b8ff" d="M575.37,-287.94C591.06,-283.21 608.54,-277.93 624.84,-273.01"/>
<polygon fill="#63b8ff" stroke="#63b8ff" points="626.24,-276.24 634.8,-270 624.22,-269.54 626.24,-276.24"/>
</a>
</g>
</g>
<!-- Node10&#45;&gt;Node4 -->
<g id="edge15_Node000010_Node000004" class="edge">
<title>Node10&#45;&gt;Node4</title>
<g id="a_edge15_Node000010_Node000004"><a xlink:title=" ">
<path fill="none" stroke="#63b8ff" d="M584.25,-255C592.58,-255 601.24,-255 609.82,-255"/>
<polygon fill="#63b8ff" stroke="#63b8ff" points="609.83,-258.5 619.83,-255 609.83,-251.5 609.83,-258.5"/>
</a>
</g>
</g>
<!-- Node11&#45;&gt;Node4 -->
<g id="edge17_Node000011_Node000004" class="edge">
<title>Node11&#45;&gt;Node4</title>
<g id="a_edge17_Node000011_Node000004"><a xlink:title=" ">
<path fill="none" stroke="#63b8ff" d="M575.37,-222.06C591.06,-226.79 608.54,-232.07 624.84,-236.99"/>
<polygon fill="#63b8ff" stroke="#63b8ff" points="624.22,-240.46 634.8,-240 626.24,-233.76 624.22,-240.46"/>
</a>
</g>
</g>
<!-- Node12&#45;&gt;Node4 -->
<g id="edge19_Node000012_Node000004" class="edge">
<title>Node12&#45;&gt;Node4</title>
<g id="a_edge19_Node000012_Node000004"><a xlink:title=" ">
<path fill="none" stroke="#63b8ff" d="M565.73,-174.05C571.96,-176.8 578.24,-179.81 584,-183 610.62,-197.73 638.57,-218.22 658.22,-233.58"/>
<polygon fill="#63b8ff" stroke="#63b8ff" points="656.09,-236.36 666.11,-239.82 660.43,-230.87 656.09,-236.36"/>
</a>
</g>
</g>
<!-- Node13&#45;&gt;Node4 -->
<g id="edge21_Node000013_Node000004" class="edge">
<title>Node13&#45;&gt;Node4</title>
<g id="a_edge21_Node000013_Node000004"><a xlink:title=" ">
<path fill="none" stroke="#63b8ff" d="M568.96,-126.01C574.24,-128.64 579.39,-131.63 584,-135 620.5,-161.69 652,-204.38 669.59,-230.99"/>
<polygon fill="#63b8ff" stroke="#63b8ff" points="666.85,-233.19 675.22,-239.68 672.72,-229.39 666.85,-233.19"/>
</a>
</g>
</g>
<!-- Node14&#45;&gt;Node4 -->
<g id="edge23_Node000014_Node000004" class="edge">
<title>Node14&#45;&gt;Node4</title>
<g id="a_edge23_Node000014_Node000004"><a xlink:title=" ">
<path fill="none" stroke="#63b8ff" d="M570.99,-78.14C575.64,-80.7 580.09,-83.63 584,-87 630.43,-126.95 661.29,-193.9 675.5,-230.05"/>
<polygon fill="#63b8ff" stroke="#63b8ff" points="672.38,-231.7 679.22,-239.8 678.92,-229.2 672.38,-231.7"/>
</a>
</g>
</g>
<!-- Node15&#45;&gt;Node4 -->
<g id="edge25_Node000015_Node000004" class="edge">
<title>Node15&#45;&gt;Node4</title>
<g id="a_edge25_Node000015_Node000004"><a xlink:title=" ">
<path fill="none" stroke="#63b8ff" d="M571.93,-30.08C576.3,-32.63 580.43,-35.59 584,-39 640.79,-93.23 668.62,-185.82 679.21,-230.05"/>
<polygon fill="#63b8ff" stroke="#63b8ff" points="675.84,-230.99 681.49,-239.95 682.66,-229.42 675.84,-230.99"/>
</a>
</g>
</g>
</g>
</svg>
