<?xml version="1.0" encoding="UTF-8" standalone="no"?>
<!DOCTYPE svg PUBLIC "-//W3C//DTD SVG 1.1//EN"
 "http://www.w3.org/Graphics/SVG/1.1/DTD/svg11.dtd">
<!-- Generated by graphviz version 2.43.0 (0)
 -->
<!-- Title: lci::net_post_putImm_x::call_impl Pages: 1 -->
<svg width="449pt" height="518pt"
 viewBox="0.00 0.00 449.00 518.00" xmlns="http://www.w3.org/2000/svg" xmlns:xlink="http://www.w3.org/1999/xlink">
<g id="graph0" class="graph" transform="scale(1 1) rotate(0) translate(4 514)">
<title>lci::net_post_putImm_x::call_impl</title>
<!-- Node1 -->
<g id="Node000001" class="node">
<title>Node1</title>
<g id="a_Node000001"><a xlink:title=" ">
<polygon fill="#999999" stroke="#666666" points="119,-270 0,-270 0,-240 119,-240 119,-270"/>
<text text-anchor="start" x="8" y="-258" font-family="Helvetica,sans-Serif" font-size="10.00">lci::net_post_putImm</text>
<text text-anchor="middle" x="59.5" y="-247" font-family="Helvetica,sans-Serif" font-size="10.00">_x::call_impl</text>
</a>
</g>
</g>
<!-- Node2 -->
<g id="Node000002" class="node">
<title>Node2</title>
<g id="a_Node000002"><a xlink:href="../../d8/d8e/classlci_1_1net__post__putImm__x.html#a809cffd24d8378635ea78d2501146172" target="_top" xlink:title=" ">
<polygon fill="white" stroke="#666666" points="274,-510 155,-510 155,-480 274,-480 274,-510"/>
<text text-anchor="start" x="163" y="-498" font-family="Helvetica,sans-Serif" font-size="10.00">lci::net_post_putImm</text>
<text text-anchor="middle" x="214.5" y="-487" font-family="Helvetica,sans-Serif" font-size="10.00">_x::buffer</text>
</a>
</g>
</g>
<!-- Node1&#45;&gt;Node2 -->
<g id="edge1_Node000001_Node000002" class="edge">
<title>Node1&#45;&gt;Node2</title>
<g id="a_edge1_Node000001_Node000002"><a xlink:title=" ">
<path fill="none" stroke="#63b8ff" d="M63.06,-270.04C70.37,-308.62 94.84,-412.21 155,-471 156.08,-472.05 157.21,-473.07 158.39,-474.03"/>
<polygon fill="#63b8ff" stroke="#63b8ff" points="156.49,-476.98 166.7,-479.83 160.5,-471.24 156.49,-476.98"/>
</a>
</g>
</g>
<!-- Node4 -->
<g id="Node000004" class="node">
<title>Node4</title>
<g id="a_Node000004"><a xlink:href="../../d8/d8e/classlci_1_1net__post__putImm__x.html#afeccc1b88e00ebbd6ebdbffb5b0d2d93" target="_top" xlink:title=" ">
<polygon fill="white" stroke="#666666" points="274,-462 155,-462 155,-432 274,-432 274,-462"/>
<text text-anchor="start" x="163" y="-450" font-family="Helvetica,sans-Serif" font-size="10.00">lci::net_post_putImm</text>
<text text-anchor="middle" x="214.5" y="-439" font-family="Helvetica,sans-Serif" font-size="10.00">_x::device</text>
</a>
</g>
</g>
<!-- Node1&#45;&gt;Node4 -->
<g id="edge3_Node000001_Node000004" class="edge">
<title>Node1&#45;&gt;Node4</title>
<g id="a_edge3_Node000001_Node000004"><a xlink:title=" ">
<path fill="none" stroke="#63b8ff" d="M65.21,-270.21C75.97,-302.62 105.35,-379.12 155,-423 156.33,-424.17 157.72,-425.3 159.17,-426.37"/>
<polygon fill="#63b8ff" stroke="#63b8ff" points="157.61,-429.53 167.92,-431.96 161.38,-423.63 157.61,-429.53"/>
</a>
</g>
</g>
<!-- Node5 -->
<g id="Node000005" class="node">
<title>Node5</title>
<g id="a_Node000005"><a xlink:href="../../d8/d8e/classlci_1_1net__post__putImm__x.html#a066fb3bcc618c717ada21015d407e105" target="_top" xlink:title=" ">
<polygon fill="white" stroke="#666666" points="274,-414 155,-414 155,-384 274,-384 274,-414"/>
<text text-anchor="start" x="163" y="-402" font-family="Helvetica,sans-Serif" font-size="10.00">lci::net_post_putImm</text>
<text text-anchor="middle" x="214.5" y="-391" font-family="Helvetica,sans-Serif" font-size="10.00">_x::endpoint</text>
</a>
</g>
</g>
<!-- Node1&#45;&gt;Node5 -->
<g id="edge5_Node000001_Node000005" class="edge">
<title>Node1&#45;&gt;Node5</title>
<g id="a_edge5_Node000001_Node000005"><a xlink:title=" ">
<path fill="none" stroke="#63b8ff" d="M69,-270.35C83.58,-295.4 115.63,-345.29 155,-375 156.82,-376.37 158.72,-377.68 160.69,-378.92"/>
<polygon fill="#63b8ff" stroke="#63b8ff" points="159.21,-382.1 169.64,-383.97 162.65,-376 159.21,-382.1"/>
</a>
</g>
</g>
<!-- Node6 -->
<g id="Node000006" class="node">
<title>Node6</title>
<g id="a_Node000006"><a xlink:href="../../d8/d8e/classlci_1_1net__post__putImm__x.html#a406093e7a6942f230bc280826885c391" target="_top" xlink:title=" ">
<polygon fill="white" stroke="#666666" points="274,-366 155,-366 155,-336 274,-336 274,-366"/>
<text text-anchor="start" x="163" y="-354" font-family="Helvetica,sans-Serif" font-size="10.00">lci::net_post_putImm</text>
<text text-anchor="middle" x="214.5" y="-343" font-family="Helvetica,sans-Serif" font-size="10.00">_x::imm_data</text>
</a>
</g>
</g>
<!-- Node1&#45;&gt;Node6 -->
<g id="edge7_Node000001_Node000006" class="edge">
<title>Node1&#45;&gt;Node6</title>
<g id="a_edge7_Node000001_Node000006"><a xlink:title=" ">
<path fill="none" stroke="#63b8ff" d="M77.64,-270.28C95.87,-285.97 126.01,-310.39 155,-327 157.81,-328.61 160.75,-330.17 163.75,-331.66"/>
<polygon fill="#63b8ff" stroke="#63b8ff" points="162.34,-334.86 172.87,-335.96 165.32,-328.53 162.34,-334.86"/>
</a>
</g>
</g>
<!-- Node7 -->
<g id="Node000007" class="node">
<title>Node7</title>
<g id="a_Node000007"><a xlink:href="../../d8/d8e/classlci_1_1net__post__putImm__x.html#a2784723ec0f924ae9473ba92a6aef5ab" target="_top" xlink:title=" ">
<polygon fill="white" stroke="#666666" points="274,-318 155,-318 155,-288 274,-288 274,-318"/>
<text text-anchor="start" x="163" y="-306" font-family="Helvetica,sans-Serif" font-size="10.00">lci::net_post_putImm</text>
<text text-anchor="middle" x="214.5" y="-295" font-family="Helvetica,sans-Serif" font-size="10.00">_x::mr</text>
</a>
</g>
</g>
<!-- Node1&#45;&gt;Node7 -->
<g id="edge9_Node000001_Node000007" class="edge">
<title>Node1&#45;&gt;Node7</title>
<g id="a_edge9_Node000001_Node000007"><a xlink:title=" ">
<path fill="none" stroke="#63b8ff" d="M108.49,-270.06C123.59,-274.79 140.41,-280.07 156.09,-284.99"/>
<polygon fill="#63b8ff" stroke="#63b8ff" points="155.09,-288.34 165.68,-288 157.19,-281.66 155.09,-288.34"/>
</a>
</g>
</g>
<!-- Node8 -->
<g id="Node000008" class="node">
<title>Node8</title>
<g id="a_Node000008"><a xlink:href="../../d8/d8e/classlci_1_1net__post__putImm__x.html#ad3f13422931b7f055dc4038e4fb0ea94" target="_top" xlink:title=" ">
<polygon fill="white" stroke="#666666" points="274,-270 155,-270 155,-240 274,-240 274,-270"/>
<text text-anchor="start" x="163" y="-258" font-family="Helvetica,sans-Serif" font-size="10.00">lci::net_post_putImm</text>
<text text-anchor="middle" x="214.5" y="-247" font-family="Helvetica,sans-Serif" font-size="10.00">_x::offset</text>
</a>
</g>
</g>
<!-- Node1&#45;&gt;Node8 -->
<g id="edge11_Node000001_Node000008" class="edge">
<title>Node1&#45;&gt;Node8</title>
<g id="a_edge11_Node000001_Node000008"><a xlink:title=" ">
<path fill="none" stroke="#63b8ff" d="M119.22,-255C127.54,-255 136.17,-255 144.67,-255"/>
<polygon fill="#63b8ff" stroke="#63b8ff" points="144.94,-258.5 154.94,-255 144.94,-251.5 144.94,-258.5"/>
</a>
</g>
</g>
<!-- Node9 -->
<g id="Node000009" class="node">
<title>Node9</title>
<g id="a_Node000009"><a xlink:href="../../d8/d8e/classlci_1_1net__post__putImm__x.html#af87c125ecec9c63cf31d9d01ee21fca1" target="_top" xlink:title=" ">
<polygon fill="white" stroke="#666666" points="274,-222 155,-222 155,-192 274,-192 274,-222"/>
<text text-anchor="start" x="163" y="-210" font-family="Helvetica,sans-Serif" font-size="10.00">lci::net_post_putImm</text>
<text text-anchor="middle" x="214.5" y="-199" font-family="Helvetica,sans-Serif" font-size="10.00">_x::rank</text>
</a>
</g>
</g>
<!-- Node1&#45;&gt;Node9 -->
<g id="edge13_Node000001_Node000009" class="edge">
<title>Node1&#45;&gt;Node9</title>
<g id="a_edge13_Node000001_Node000009"><a xlink:title=" ">
<path fill="none" stroke="#63b8ff" d="M108.49,-239.94C123.59,-235.21 140.41,-229.93 156.09,-225.01"/>
<polygon fill="#63b8ff" stroke="#63b8ff" points="157.19,-228.34 165.68,-222 155.09,-221.66 157.19,-228.34"/>
</a>
</g>
</g>
<!-- Node10 -->
<g id="Node000010" class="node">
<title>Node10</title>
<g id="a_Node000010"><a xlink:href="../../d8/d8e/classlci_1_1net__post__putImm__x.html#a2f3407714f203243c8043eebbdb0bf7a" target="_top" xlink:title=" ">
<polygon fill="white" stroke="#666666" points="274,-174 155,-174 155,-144 274,-144 274,-174"/>
<text text-anchor="start" x="163" y="-162" font-family="Helvetica,sans-Serif" font-size="10.00">lci::net_post_putImm</text>
<text text-anchor="middle" x="214.5" y="-151" font-family="Helvetica,sans-Serif" font-size="10.00">_x::rmr</text>
</a>
</g>
</g>
<!-- Node1&#45;&gt;Node10 -->
<g id="edge15_Node000001_Node000010" class="edge">
<title>Node1&#45;&gt;Node10</title>
<g id="a_edge15_Node000001_Node000010"><a xlink:title=" ">
<path fill="none" stroke="#63b8ff" d="M77.64,-239.72C95.87,-224.03 126.01,-199.61 155,-183 157.81,-181.39 160.75,-179.83 163.75,-178.34"/>
<polygon fill="#63b8ff" stroke="#63b8ff" points="165.32,-181.47 172.87,-174.04 162.34,-175.14 165.32,-181.47"/>
</a>
</g>
</g>
<!-- Node11 -->
<g id="Node000011" class="node">
<title>Node11</title>
<g id="a_Node000011"><a xlink:href="../../d8/d8e/classlci_1_1net__post__putImm__x.html#a50d24697e8574200e88684c996357a0c" target="_top" xlink:title=" ">
<polygon fill="white" stroke="#666666" points="274,-126 155,-126 155,-96 274,-96 274,-126"/>
<text text-anchor="start" x="163" y="-114" font-family="Helvetica,sans-Serif" font-size="10.00">lci::net_post_putImm</text>
<text text-anchor="middle" x="214.5" y="-103" font-family="Helvetica,sans-Serif" font-size="10.00">_x::runtime</text>
</a>
</g>
</g>
<!-- Node1&#45;&gt;Node11 -->
<g id="edge17_Node000001_Node000011" class="edge">
<title>Node1&#45;&gt;Node11</title>
<g id="a_edge17_Node000001_Node000011"><a xlink:title=" ">
<path fill="none" stroke="#63b8ff" d="M69,-239.65C83.58,-214.6 115.63,-164.71 155,-135 156.82,-133.63 158.72,-132.32 160.69,-131.08"/>
<polygon fill="#63b8ff" stroke="#63b8ff" points="162.65,-134 169.64,-126.03 159.21,-127.9 162.65,-134"/>
</a>
</g>
</g>
<!-- Node12 -->
<g id="Node000012" class="node">
<title>Node12</title>
<g id="a_Node000012"><a xlink:href="../../d8/d8e/classlci_1_1net__post__putImm__x.html#af251ca8b5f6df902fc28a00591c153fe" target="_top" xlink:title=" ">
<polygon fill="white" stroke="#666666" points="274,-78 155,-78 155,-48 274,-48 274,-78"/>
<text text-anchor="start" x="163" y="-66" font-family="Helvetica,sans-Serif" font-size="10.00">lci::net_post_putImm</text>
<text text-anchor="middle" x="214.5" y="-55" font-family="Helvetica,sans-Serif" font-size="10.00">_x::size</text>
</a>
</g>
</g>
<!-- Node1&#45;&gt;Node12 -->
<g id="edge19_Node000001_Node000012" class="edge">
<title>Node1&#45;&gt;Node12</title>
<g id="a_edge19_Node000001_Node000012"><a xlink:title=" ">
<path fill="none" stroke="#63b8ff" d="M65.21,-239.79C75.97,-207.38 105.35,-130.88 155,-87 156.33,-85.83 157.72,-84.7 159.17,-83.63"/>
<polygon fill="#63b8ff" stroke="#63b8ff" points="161.38,-86.37 167.92,-78.04 157.61,-80.47 161.38,-86.37"/>
</a>
</g>
</g>
<!-- Node13 -->
<g id="Node000013" class="node">
<title>Node13</title>
<g id="a_Node000013"><a xlink:href="../../d8/d8e/classlci_1_1net__post__putImm__x.html#a935d85e10c5e3b385d98ce98b2528c85" target="_top" xlink:title=" ">
<polygon fill="white" stroke="#666666" points="274,-30 155,-30 155,0 274,0 274,-30"/>
<text text-anchor="start" x="163" y="-18" font-family="Helvetica,sans-Serif" font-size="10.00">lci::net_post_putImm</text>
<text text-anchor="middle" x="214.5" y="-7" font-family="Helvetica,sans-Serif" font-size="10.00">_x::user_context</text>
</a>
</g>
</g>
<!-- Node1&#45;&gt;Node13 -->
<g id="edge21_Node000001_Node000013" class="edge">
<title>Node1&#45;&gt;Node13</title>
<g id="a_edge21_Node000001_Node000013"><a xlink:title=" ">
<path fill="none" stroke="#63b8ff" d="M63.06,-239.96C70.37,-201.38 94.84,-97.79 155,-39 156.08,-37.95 157.21,-36.93 158.39,-35.97"/>
<polygon fill="#63b8ff" stroke="#63b8ff" points="160.5,-38.76 166.7,-30.17 156.49,-33.02 160.5,-38.76"/>
</a>
</g>
</g>
<!-- Node3 -->
<g id="Node000003" class="node">
<title>Node3</title>
<g id="a_Node000003"><a xlink:href="../../d8/d8e/classlci_1_1net__post__putImm__x.html#a0a8c6e1ccadcdd09a70b1173301a7112" target="_top" xlink:title=" ">
<polygon fill="white" stroke="#666666" points="441,-270 310,-270 310,-240 441,-240 441,-270"/>
<text text-anchor="start" x="318" y="-258" font-family="Helvetica,sans-Serif" font-size="10.00">lci::net_post_putImm</text>
<text text-anchor="middle" x="375.5" y="-247" font-family="Helvetica,sans-Serif" font-size="10.00">_x::net_post_putImm_x</text>
</a>
</g>
</g>
<!-- Node2&#45;&gt;Node3 -->
<g id="edge2_Node000002_Node000003" class="edge">
<title>Node2&#45;&gt;Node3</title>
<g id="a_edge2_Node000002_Node000003"><a xlink:title=" ">
<path fill="none" stroke="#63b8ff" d="M261.93,-479.92C266.3,-477.37 270.43,-474.41 274,-471 330.79,-416.77 358.62,-324.18 369.21,-279.95"/>
<polygon fill="#63b8ff" stroke="#63b8ff" points="372.66,-280.58 371.49,-270.05 365.84,-279.01 372.66,-280.58"/>
</a>
</g>
</g>
<!-- Node4&#45;&gt;Node3 -->
<g id="edge4_Node000004_Node000003" class="edge">
<title>Node4&#45;&gt;Node3</title>
<g id="a_edge4_Node000004_Node000003"><a xlink:title=" ">
<path fill="none" stroke="#63b8ff" d="M260.99,-431.86C265.64,-429.3 270.09,-426.37 274,-423 320.43,-383.05 351.29,-316.1 365.5,-279.95"/>
<polygon fill="#63b8ff" stroke="#63b8ff" points="368.92,-280.8 369.22,-270.2 362.38,-278.3 368.92,-280.8"/>
</a>
</g>
</g>
<!-- Node5&#45;&gt;Node3 -->
<g id="edge6_Node000005_Node000003" class="edge">
<title>Node5&#45;&gt;Node3</title>
<g id="a_edge6_Node000005_Node000003"><a xlink:title=" ">
<path fill="none" stroke="#63b8ff" d="M258.96,-383.99C264.24,-381.36 269.39,-378.37 274,-375 310.5,-348.31 342,-305.62 359.59,-279.01"/>
<polygon fill="#63b8ff" stroke="#63b8ff" points="362.72,-280.61 365.22,-270.32 356.85,-276.81 362.72,-280.61"/>
</a>
</g>
</g>
<!-- Node6&#45;&gt;Node3 -->
<g id="edge8_Node000006_Node000003" class="edge">
<title>Node6&#45;&gt;Node3</title>
<g id="a_edge8_Node000006_Node000003"><a xlink:title=" ">
<path fill="none" stroke="#63b8ff" d="M255.73,-335.95C261.96,-333.2 268.24,-330.19 274,-327 300.62,-312.27 328.57,-291.78 348.22,-276.42"/>
<polygon fill="#63b8ff" stroke="#63b8ff" points="350.43,-279.13 356.11,-270.18 346.09,-273.64 350.43,-279.13"/>
</a>
</g>
</g>
<!-- Node7&#45;&gt;Node3 -->
<g id="edge10_Node000007_Node000003" class="edge">
<title>Node7&#45;&gt;Node3</title>
<g id="a_edge10_Node000007_Node000003"><a xlink:title=" ">
<path fill="none" stroke="#63b8ff" d="M265.37,-287.94C281.06,-283.21 298.54,-277.93 314.84,-273.01"/>
<polygon fill="#63b8ff" stroke="#63b8ff" points="316.24,-276.24 324.8,-270 314.22,-269.54 316.24,-276.24"/>
</a>
</g>
</g>
<!-- Node8&#45;&gt;Node3 -->
<g id="edge12_Node000008_Node000003" class="edge">
<title>Node8&#45;&gt;Node3</title>
<g id="a_edge12_Node000008_Node000003"><a xlink:title=" ">
<path fill="none" stroke="#63b8ff" d="M274.25,-255C282.58,-255 291.24,-255 299.82,-255"/>
<polygon fill="#63b8ff" stroke="#63b8ff" points="299.83,-258.5 309.83,-255 299.83,-251.5 299.83,-258.5"/>
</a>
</g>
</g>
<!-- Node9&#45;&gt;Node3 -->
<g id="edge14_Node000009_Node000003" class="edge">
<title>Node9&#45;&gt;Node3</title>
<g id="a_edge14_Node000009_Node000003"><a xlink:title=" ">
<path fill="none" stroke="#63b8ff" d="M265.37,-222.06C281.06,-226.79 298.54,-232.07 314.84,-236.99"/>
<polygon fill="#63b8ff" stroke="#63b8ff" points="314.22,-240.46 324.8,-240 316.24,-233.76 314.22,-240.46"/>
</a>
</g>
</g>
<!-- Node10&#45;&gt;Node3 -->
<g id="edge16_Node000010_Node000003" class="edge">
<title>Node10&#45;&gt;Node3</title>
<g id="a_edge16_Node000010_Node000003"><a xlink:title=" ">
<path fill="none" stroke="#63b8ff" d="M255.73,-174.05C261.96,-176.8 268.24,-179.81 274,-183 300.62,-197.73 328.57,-218.22 348.22,-233.58"/>
<polygon fill="#63b8ff" stroke="#63b8ff" points="346.09,-236.36 356.11,-239.82 350.43,-230.87 346.09,-236.36"/>
</a>
</g>
</g>
<!-- Node11&#45;&gt;Node3 -->
<g id="edge18_Node000011_Node000003" class="edge">
<title>Node11&#45;&gt;Node3</title>
<g id="a_edge18_Node000011_Node000003"><a xlink:title=" ">
<path fill="none" stroke="#63b8ff" d="M258.96,-126.01C264.24,-128.64 269.39,-131.63 274,-135 310.5,-161.69 342,-204.38 359.59,-230.99"/>
<polygon fill="#63b8ff" stroke="#63b8ff" points="356.85,-233.19 365.22,-239.68 362.72,-229.39 356.85,-233.19"/>
</a>
</g>
</g>
<!-- Node12&#45;&gt;Node3 -->
<g id="edge20_Node000012_Node000003" class="edge">
<title>Node12&#45;&gt;Node3</title>
<g id="a_edge20_Node000012_Node000003"><a xlink:title=" ">
<path fill="none" stroke="#63b8ff" d="M260.99,-78.14C265.64,-80.7 270.09,-83.63 274,-87 320.43,-126.95 351.29,-193.9 365.5,-230.05"/>
<polygon fill="#63b8ff" stroke="#63b8ff" points="362.38,-231.7 369.22,-239.8 368.92,-229.2 362.38,-231.7"/>
</a>
</g>
</g>
<!-- Node13&#45;&gt;Node3 -->
<g id="edge22_Node000013_Node000003" class="edge">
<title>Node13&#45;&gt;Node3</title>
<g id="a_edge22_Node000013_Node000003"><a xlink:title=" ">
<path fill="none" stroke="#63b8ff" d="M261.93,-30.08C266.3,-32.63 270.43,-35.59 274,-39 330.79,-93.23 358.62,-185.82 369.21,-230.05"/>
<polygon fill="#63b8ff" stroke="#63b8ff" points="365.84,-230.99 371.49,-239.95 372.66,-229.42 365.84,-230.99"/>
</a>
</g>
</g>
</g>
</svg>
