<?xml version="1.0" encoding="UTF-8" standalone="no"?>
<!DOCTYPE svg PUBLIC "-//W3C//DTD SVG 1.1//EN"
 "http://www.w3.org/Graphics/SVG/1.1/DTD/svg11.dtd">
<!-- Generated by graphviz version 2.43.0 (0)
 -->
<!-- Title: lci::net_post_putImm_x::call Pages: 1 -->
<svg width="604pt" height="518pt"
 viewBox="0.00 0.00 604.00 518.00" xmlns="http://www.w3.org/2000/svg" xmlns:xlink="http://www.w3.org/1999/xlink">
<g id="graph0" class="graph" transform="scale(1 1) rotate(0) translate(4 514)">
<title>lci::net_post_putImm_x::call</title>
<!-- Node1 -->
<g id="Node000001" class="node">
<title>Node1</title>
<g id="a_Node000001"><a xlink:title=" ">
<polygon fill="#999999" stroke="#666666" points="119,-267 0,-267 0,-237 119,-237 119,-267"/>
<text text-anchor="start" x="8" y="-255" font-family="Helvetica,sans-Serif" font-size="10.00">lci::net_post_putImm</text>
<text text-anchor="middle" x="59.5" y="-244" font-family="Helvetica,sans-Serif" font-size="10.00">_x::call</text>
</a>
</g>
</g>
<!-- Node2 -->
<g id="Node000002" class="node">
<title>Node2</title>
<g id="a_Node000002"><a xlink:href="../../d8/d8e/classlci_1_1net__post__putImm__x.html#a809cffd24d8378635ea78d2501146172" target="_top" xlink:title=" ">
<polygon fill="white" stroke="#666666" points="429,-510 310,-510 310,-480 429,-480 429,-510"/>
<text text-anchor="start" x="318" y="-498" font-family="Helvetica,sans-Serif" font-size="10.00">lci::net_post_putImm</text>
<text text-anchor="middle" x="369.5" y="-487" font-family="Helvetica,sans-Serif" font-size="10.00">_x::buffer</text>
</a>
</g>
</g>
<!-- Node1&#45;&gt;Node2 -->
<g id="edge1_Node000001_Node000002" class="edge">
<title>Node1&#45;&gt;Node2</title>
<g id="a_edge1_Node000001_Node000002"><a xlink:title=" ">
<path fill="none" stroke="#63b8ff" d="M65.16,-267.08C75.83,-299.21 105.03,-374.87 155,-417 196.46,-451.95 254.93,-471.86 300.2,-482.8"/>
<polygon fill="#63b8ff" stroke="#63b8ff" points="299.4,-486.21 309.94,-485.06 300.99,-479.39 299.4,-486.21"/>
</a>
</g>
</g>
<!-- Node4 -->
<g id="Node000004" class="node">
<title>Node4</title>
<g id="a_Node000004"><a xlink:href="../../d8/d8e/classlci_1_1net__post__putImm__x.html#acdefdfde572487e72870264a1a4c51d3" target="_top" xlink:title=" ">
<polygon fill="white" stroke="#666666" points="274,-289 155,-289 155,-259 274,-259 274,-289"/>
<text text-anchor="start" x="163" y="-277" font-family="Helvetica,sans-Serif" font-size="10.00">lci::net_post_putImm</text>
<text text-anchor="middle" x="214.5" y="-266" font-family="Helvetica,sans-Serif" font-size="10.00">_x::call_impl</text>
</a>
</g>
</g>
<!-- Node1&#45;&gt;Node4 -->
<g id="edge3_Node000001_Node000004" class="edge">
<title>Node1&#45;&gt;Node4</title>
<g id="a_edge3_Node000001_Node000004"><a xlink:title=" ">
<path fill="none" stroke="#63b8ff" d="M119.22,-260.44C127.64,-261.65 136.36,-262.91 144.95,-264.14"/>
<polygon fill="#63b8ff" stroke="#63b8ff" points="144.54,-267.62 154.94,-265.58 145.54,-260.69 144.54,-267.62"/>
</a>
</g>
</g>
<!-- Node5 -->
<g id="Node000005" class="node">
<title>Node5</title>
<g id="a_Node000005"><a xlink:href="../../d8/d8e/classlci_1_1net__post__putImm__x.html#afeccc1b88e00ebbd6ebdbffb5b0d2d93" target="_top" xlink:title=" ">
<polygon fill="white" stroke="#666666" points="429,-462 310,-462 310,-432 429,-432 429,-462"/>
<text text-anchor="start" x="318" y="-450" font-family="Helvetica,sans-Serif" font-size="10.00">lci::net_post_putImm</text>
<text text-anchor="middle" x="369.5" y="-439" font-family="Helvetica,sans-Serif" font-size="10.00">_x::device</text>
</a>
</g>
</g>
<!-- Node1&#45;&gt;Node5 -->
<g id="edge25_Node000001_Node000005" class="edge">
<title>Node1&#45;&gt;Node5</title>
<g id="a_edge25_Node000001_Node000005"><a xlink:title=" ">
<path fill="none" stroke="#63b8ff" d="M67.89,-267.2C81.47,-293.61 112.94,-347.97 155,-378 198.03,-408.72 255.45,-426.26 299.91,-435.96"/>
<polygon fill="#63b8ff" stroke="#63b8ff" points="299.25,-439.4 309.76,-438.03 300.69,-432.55 299.25,-439.4"/>
</a>
</g>
</g>
<!-- Node6 -->
<g id="Node000006" class="node">
<title>Node6</title>
<g id="a_Node000006"><a xlink:href="../../d8/d8e/classlci_1_1net__post__putImm__x.html#a066fb3bcc618c717ada21015d407e105" target="_top" xlink:title=" ">
<polygon fill="white" stroke="#666666" points="429,-414 310,-414 310,-384 429,-384 429,-414"/>
<text text-anchor="start" x="318" y="-402" font-family="Helvetica,sans-Serif" font-size="10.00">lci::net_post_putImm</text>
<text text-anchor="middle" x="369.5" y="-391" font-family="Helvetica,sans-Serif" font-size="10.00">_x::endpoint</text>
</a>
</g>
</g>
<!-- Node1&#45;&gt;Node6 -->
<g id="edge26_Node000001_Node000006" class="edge">
<title>Node1&#45;&gt;Node6</title>
<g id="a_edge26_Node000001_Node000006"><a xlink:title=" ">
<path fill="none" stroke="#63b8ff" d="M71.85,-267.2C88.02,-287.76 119.67,-324.14 155,-344 199.73,-369.14 256.16,-383.03 299.77,-390.56"/>
<polygon fill="#63b8ff" stroke="#63b8ff" points="299.28,-394.03 309.72,-392.21 300.42,-387.12 299.28,-394.03"/>
</a>
</g>
</g>
<!-- Node7 -->
<g id="Node000007" class="node">
<title>Node7</title>
<g id="a_Node000007"><a xlink:href="../../d8/d8e/classlci_1_1net__post__putImm__x.html#a406093e7a6942f230bc280826885c391" target="_top" xlink:title=" ">
<polygon fill="white" stroke="#666666" points="429,-366 310,-366 310,-336 429,-336 429,-366"/>
<text text-anchor="start" x="318" y="-354" font-family="Helvetica,sans-Serif" font-size="10.00">lci::net_post_putImm</text>
<text text-anchor="middle" x="369.5" y="-343" font-family="Helvetica,sans-Serif" font-size="10.00">_x::imm_data</text>
</a>
</g>
</g>
<!-- Node1&#45;&gt;Node7 -->
<g id="edge27_Node000001_Node000007" class="edge">
<title>Node1&#45;&gt;Node7</title>
<g id="a_edge27_Node000001_Node000007"><a xlink:title=" ">
<path fill="none" stroke="#63b8ff" d="M77.25,-267.01C95.16,-282.18 125.05,-305.03 155,-317 201.14,-335.44 256.66,-343.9 299.51,-347.77"/>
<polygon fill="#63b8ff" stroke="#63b8ff" points="299.3,-351.27 309.56,-348.62 299.89,-344.29 299.3,-351.27"/>
</a>
</g>
</g>
<!-- Node8 -->
<g id="Node000008" class="node">
<title>Node8</title>
<g id="a_Node000008"><a xlink:href="../../d8/d8e/classlci_1_1net__post__putImm__x.html#a2784723ec0f924ae9473ba92a6aef5ab" target="_top" xlink:title=" ">
<polygon fill="white" stroke="#666666" points="429,-318 310,-318 310,-288 429,-288 429,-318"/>
<text text-anchor="start" x="318" y="-306" font-family="Helvetica,sans-Serif" font-size="10.00">lci::net_post_putImm</text>
<text text-anchor="middle" x="369.5" y="-295" font-family="Helvetica,sans-Serif" font-size="10.00">_x::mr</text>
</a>
</g>
</g>
<!-- Node1&#45;&gt;Node8 -->
<g id="edge28_Node000001_Node000008" class="edge">
<title>Node1&#45;&gt;Node8</title>
<g id="a_edge28_Node000001_Node000008"><a xlink:title=" ">
<path fill="none" stroke="#63b8ff" d="M84.28,-267.15C102.76,-278.02 129.47,-291.8 155,-298 202.26,-309.48 257.15,-310.5 299.44,-308.78"/>
<polygon fill="#63b8ff" stroke="#63b8ff" points="299.81,-312.26 309.63,-308.3 299.48,-305.27 299.81,-312.26"/>
</a>
</g>
</g>
<!-- Node9 -->
<g id="Node000009" class="node">
<title>Node9</title>
<g id="a_Node000009"><a xlink:href="../../d8/d8e/classlci_1_1net__post__putImm__x.html#ad3f13422931b7f055dc4038e4fb0ea94" target="_top" xlink:title=" ">
<polygon fill="white" stroke="#666666" points="429,-270 310,-270 310,-240 429,-240 429,-270"/>
<text text-anchor="start" x="318" y="-258" font-family="Helvetica,sans-Serif" font-size="10.00">lci::net_post_putImm</text>
<text text-anchor="middle" x="369.5" y="-247" font-family="Helvetica,sans-Serif" font-size="10.00">_x::offset</text>
</a>
</g>
</g>
<!-- Node1&#45;&gt;Node9 -->
<g id="edge29_Node000001_Node000009" class="edge">
<title>Node1&#45;&gt;Node9</title>
<g id="a_edge29_Node000001_Node000009"><a xlink:title=" ">
<path fill="none" stroke="#63b8ff" d="M119.41,-250.32C162.29,-249.37 221.75,-248.62 274,-250 282.32,-250.22 291.05,-250.55 299.7,-250.93"/>
<polygon fill="#63b8ff" stroke="#63b8ff" points="299.64,-254.44 309.79,-251.41 299.97,-247.44 299.64,-254.44"/>
</a>
</g>
</g>
<!-- Node10 -->
<g id="Node000010" class="node">
<title>Node10</title>
<g id="a_Node000010"><a xlink:href="../../d8/d8e/classlci_1_1net__post__putImm__x.html#af87c125ecec9c63cf31d9d01ee21fca1" target="_top" xlink:title=" ">
<polygon fill="white" stroke="#666666" points="429,-222 310,-222 310,-192 429,-192 429,-222"/>
<text text-anchor="start" x="318" y="-210" font-family="Helvetica,sans-Serif" font-size="10.00">lci::net_post_putImm</text>
<text text-anchor="middle" x="369.5" y="-199" font-family="Helvetica,sans-Serif" font-size="10.00">_x::rank</text>
</a>
</g>
</g>
<!-- Node1&#45;&gt;Node10 -->
<g id="edge30_Node000001_Node000010" class="edge">
<title>Node1&#45;&gt;Node10</title>
<g id="a_edge30_Node000001_Node000010"><a xlink:title=" ">
<path fill="none" stroke="#63b8ff" d="M119.16,-243.43C170.56,-235.92 245.33,-225 299.58,-217.07"/>
<polygon fill="#63b8ff" stroke="#63b8ff" points="300.41,-220.49 309.8,-215.58 299.4,-213.56 300.41,-220.49"/>
</a>
</g>
</g>
<!-- Node11 -->
<g id="Node000011" class="node">
<title>Node11</title>
<g id="a_Node000011"><a xlink:href="../../d8/d8e/classlci_1_1net__post__putImm__x.html#a2f3407714f203243c8043eebbdb0bf7a" target="_top" xlink:title=" ">
<polygon fill="white" stroke="#666666" points="429,-174 310,-174 310,-144 429,-144 429,-174"/>
<text text-anchor="start" x="318" y="-162" font-family="Helvetica,sans-Serif" font-size="10.00">lci::net_post_putImm</text>
<text text-anchor="middle" x="369.5" y="-151" font-family="Helvetica,sans-Serif" font-size="10.00">_x::rmr</text>
</a>
</g>
</g>
<!-- Node1&#45;&gt;Node11 -->
<g id="edge31_Node000001_Node000011" class="edge">
<title>Node1&#45;&gt;Node11</title>
<g id="a_edge31_Node000001_Node000011"><a xlink:title=" ">
<path fill="none" stroke="#63b8ff" d="M98.85,-236.91C115.92,-230.42 136.34,-222.98 155,-217 202.92,-201.65 257.7,-186.82 299.77,-176"/>
<polygon fill="#63b8ff" stroke="#63b8ff" points="300.82,-179.35 309.64,-173.48 299.08,-172.57 300.82,-179.35"/>
</a>
</g>
</g>
<!-- Node12 -->
<g id="Node000012" class="node">
<title>Node12</title>
<g id="a_Node000012"><a xlink:href="../../d8/d8e/classlci_1_1net__post__putImm__x.html#a50d24697e8574200e88684c996357a0c" target="_top" xlink:title=" ">
<polygon fill="white" stroke="#666666" points="429,-126 310,-126 310,-96 429,-96 429,-126"/>
<text text-anchor="start" x="318" y="-114" font-family="Helvetica,sans-Serif" font-size="10.00">lci::net_post_putImm</text>
<text text-anchor="middle" x="369.5" y="-103" font-family="Helvetica,sans-Serif" font-size="10.00">_x::runtime</text>
</a>
</g>
</g>
<!-- Node1&#45;&gt;Node12 -->
<g id="edge32_Node000001_Node000012" class="edge">
<title>Node1&#45;&gt;Node12</title>
<g id="a_edge32_Node000001_Node000012"><a xlink:title=" ">
<path fill="none" stroke="#63b8ff" d="M76.35,-236.91C94.21,-220.62 124.71,-194.89 155,-179 200.86,-154.95 256.76,-137.52 299.86,-126.33"/>
<polygon fill="#63b8ff" stroke="#63b8ff" points="300.86,-129.69 309.69,-123.83 299.13,-122.91 300.86,-129.69"/>
</a>
</g>
</g>
<!-- Node13 -->
<g id="Node000013" class="node">
<title>Node13</title>
<g id="a_Node000013"><a xlink:href="../../d8/d8e/classlci_1_1net__post__putImm__x.html#af251ca8b5f6df902fc28a00591c153fe" target="_top" xlink:title=" ">
<polygon fill="white" stroke="#666666" points="429,-78 310,-78 310,-48 429,-48 429,-78"/>
<text text-anchor="start" x="318" y="-66" font-family="Helvetica,sans-Serif" font-size="10.00">lci::net_post_putImm</text>
<text text-anchor="middle" x="369.5" y="-55" font-family="Helvetica,sans-Serif" font-size="10.00">_x::size</text>
</a>
</g>
</g>
<!-- Node1&#45;&gt;Node13 -->
<g id="edge33_Node000001_Node000013" class="edge">
<title>Node1&#45;&gt;Node13</title>
<g id="a_edge33_Node000001_Node000013"><a xlink:title=" ">
<path fill="none" stroke="#63b8ff" d="M68.16,-236.69C81.96,-210.69 113.44,-157.91 155,-129 198.23,-98.93 255.64,-82.19 300.04,-73.1"/>
<polygon fill="#63b8ff" stroke="#63b8ff" points="300.74,-76.53 309.88,-71.17 299.39,-69.66 300.74,-76.53"/>
</a>
</g>
</g>
<!-- Node14 -->
<g id="Node000014" class="node">
<title>Node14</title>
<g id="a_Node000014"><a xlink:href="../../d8/d8e/classlci_1_1net__post__putImm__x.html#a935d85e10c5e3b385d98ce98b2528c85" target="_top" xlink:title=" ">
<polygon fill="white" stroke="#666666" points="429,-30 310,-30 310,0 429,0 429,-30"/>
<text text-anchor="start" x="318" y="-18" font-family="Helvetica,sans-Serif" font-size="10.00">lci::net_post_putImm</text>
<text text-anchor="middle" x="369.5" y="-7" font-family="Helvetica,sans-Serif" font-size="10.00">_x::user_context</text>
</a>
</g>
</g>
<!-- Node1&#45;&gt;Node14 -->
<g id="edge34_Node000001_Node000014" class="edge">
<title>Node1&#45;&gt;Node14</title>
<g id="a_edge34_Node000001_Node000014"><a xlink:title=" ">
<path fill="none" stroke="#63b8ff" d="M64.22,-236.82C73.43,-202.55 100.57,-118.76 155,-75 196.15,-41.92 254.47,-27.06 299.77,-20.4"/>
<polygon fill="#63b8ff" stroke="#63b8ff" points="300.37,-23.85 309.81,-19.02 299.42,-16.91 300.37,-23.85"/>
</a>
</g>
</g>
<!-- Node3 -->
<g id="Node000003" class="node">
<title>Node3</title>
<g id="a_Node000003"><a xlink:href="../../d8/d8e/classlci_1_1net__post__putImm__x.html#a0a8c6e1ccadcdd09a70b1173301a7112" target="_top" xlink:title=" ">
<polygon fill="white" stroke="#666666" points="596,-270 465,-270 465,-240 596,-240 596,-270"/>
<text text-anchor="start" x="473" y="-258" font-family="Helvetica,sans-Serif" font-size="10.00">lci::net_post_putImm</text>
<text text-anchor="middle" x="530.5" y="-247" font-family="Helvetica,sans-Serif" font-size="10.00">_x::net_post_putImm_x</text>
</a>
</g>
</g>
<!-- Node2&#45;&gt;Node3 -->
<g id="edge2_Node000002_Node000003" class="edge">
<title>Node2&#45;&gt;Node3</title>
<g id="a_edge2_Node000002_Node000003"><a xlink:title=" ">
<path fill="none" stroke="#63b8ff" d="M416.93,-479.92C421.3,-477.37 425.43,-474.41 429,-471 485.79,-416.77 513.62,-324.18 524.21,-279.95"/>
<polygon fill="#63b8ff" stroke="#63b8ff" points="527.66,-280.58 526.49,-270.05 520.84,-279.01 527.66,-280.58"/>
</a>
</g>
</g>
<!-- Node4&#45;&gt;Node2 -->
<g id="edge4_Node000004_Node000002" class="edge">
<title>Node4&#45;&gt;Node2</title>
<g id="a_edge4_Node000004_Node000002"><a xlink:title=" ">
<path fill="none" stroke="#63b8ff" d="M218.77,-289.04C227.39,-325.24 254,-418.15 310,-471 311.12,-472.06 312.3,-473.08 313.52,-474.05"/>
<polygon fill="#63b8ff" stroke="#63b8ff" points="311.87,-477.16 322.11,-479.87 315.8,-471.36 311.87,-477.16"/>
</a>
</g>
</g>
<!-- Node4&#45;&gt;Node5 -->
<g id="edge5_Node000004_Node000005" class="edge">
<title>Node4&#45;&gt;Node5</title>
<g id="a_edge5_Node000004_Node000005"><a xlink:title=" ">
<path fill="none" stroke="#63b8ff" d="M221.43,-289.27C233.67,-318.94 264.45,-384.83 310,-423 311.51,-424.27 313.11,-425.48 314.75,-426.63"/>
<polygon fill="#63b8ff" stroke="#63b8ff" points="313.04,-429.68 323.4,-431.92 316.69,-423.71 313.04,-429.68"/>
</a>
</g>
</g>
<!-- Node4&#45;&gt;Node6 -->
<g id="edge7_Node000004_Node000006" class="edge">
<title>Node4&#45;&gt;Node6</title>
<g id="a_edge7_Node000004_Node000006"><a xlink:title=" ">
<path fill="none" stroke="#63b8ff" d="M226.4,-289.29C242.52,-310.94 274.62,-350.59 310,-375 312.1,-376.45 314.29,-377.83 316.55,-379.14"/>
<polygon fill="#63b8ff" stroke="#63b8ff" points="315.04,-382.3 325.52,-383.89 318.32,-376.12 315.04,-382.3"/>
</a>
</g>
</g>
<!-- Node4&#45;&gt;Node7 -->
<g id="edge9_Node000004_Node000007" class="edge">
<title>Node4&#45;&gt;Node7</title>
<g id="a_edge9_Node000004_Node000007"><a xlink:title=" ">
<path fill="none" stroke="#63b8ff" d="M240.33,-289.02C259.13,-300.13 285.78,-315.29 310,-327 313.36,-328.62 316.86,-330.24 320.4,-331.82"/>
<polygon fill="#63b8ff" stroke="#63b8ff" points="319.25,-335.14 329.82,-335.91 322.04,-328.72 319.25,-335.14"/>
</a>
</g>
</g>
<!-- Node4&#45;&gt;Node8 -->
<g id="edge11_Node000004_Node000008" class="edge">
<title>Node4&#45;&gt;Node8</title>
<g id="a_edge11_Node000004_Node000008"><a xlink:title=" ">
<path fill="none" stroke="#63b8ff" d="M274.22,-285.13C282.64,-286.73 291.36,-288.38 299.95,-290.01"/>
<polygon fill="#63b8ff" stroke="#63b8ff" points="299.46,-293.48 309.94,-291.9 300.77,-286.6 299.46,-293.48"/>
</a>
</g>
</g>
<!-- Node4&#45;&gt;Node9 -->
<g id="edge13_Node000004_Node000009" class="edge">
<title>Node4&#45;&gt;Node9</title>
<g id="a_edge13_Node000004_Node000009"><a xlink:title=" ">
<path fill="none" stroke="#63b8ff" d="M274.22,-266.71C282.64,-265.66 291.36,-264.58 299.95,-263.51"/>
<polygon fill="#63b8ff" stroke="#63b8ff" points="300.45,-266.98 309.94,-262.27 299.59,-260.03 300.45,-266.98"/>
</a>
</g>
</g>
<!-- Node4&#45;&gt;Node10 -->
<g id="edge15_Node000004_Node000010" class="edge">
<title>Node4&#45;&gt;Node10</title>
<g id="a_edge15_Node000004_Node000010"><a xlink:title=" ">
<path fill="none" stroke="#63b8ff" d="M247.73,-258.97C265.94,-250.57 289.15,-240.01 310,-231 313.85,-229.33 317.86,-227.63 321.89,-225.94"/>
<polygon fill="#63b8ff" stroke="#63b8ff" points="323.39,-229.1 331.28,-222.03 320.7,-222.64 323.39,-229.1"/>
</a>
</g>
</g>
<!-- Node4&#45;&gt;Node11 -->
<g id="edge17_Node000004_Node000011" class="edge">
<title>Node4&#45;&gt;Node11</title>
<g id="a_edge17_Node000004_Node000011"><a xlink:title=" ">
<path fill="none" stroke="#63b8ff" d="M227.87,-258.97C244.71,-239.3 276.61,-204.77 310,-183 312.29,-181.51 314.69,-180.07 317.16,-178.71"/>
<polygon fill="#63b8ff" stroke="#63b8ff" points="318.97,-181.71 326.29,-174.05 315.79,-175.47 318.97,-181.71"/>
</a>
</g>
</g>
<!-- Node4&#45;&gt;Node12 -->
<g id="edge19_Node000004_Node000012" class="edge">
<title>Node4&#45;&gt;Node12</title>
<g id="a_edge19_Node000004_Node000012"><a xlink:title=" ">
<path fill="none" stroke="#63b8ff" d="M222.11,-258.9C235.09,-230.84 266.49,-170.3 310,-135 311.57,-133.73 313.21,-132.52 314.91,-131.36"/>
<polygon fill="#63b8ff" stroke="#63b8ff" points="317.01,-134.18 323.8,-126.05 313.42,-128.17 317.01,-134.18"/>
</a>
</g>
</g>
<!-- Node4&#45;&gt;Node13 -->
<g id="edge21_Node000004_Node000013" class="edge">
<title>Node4&#45;&gt;Node13</title>
<g id="a_edge21_Node000004_Node000013"><a xlink:title=" ">
<path fill="none" stroke="#63b8ff" d="M219.21,-258.95C228.54,-224.04 256.18,-136.75 310,-87 311.27,-85.82 312.62,-84.7 314.01,-83.63"/>
<polygon fill="#63b8ff" stroke="#63b8ff" points="316.06,-86.47 322.47,-78.03 312.2,-80.62 316.06,-86.47"/>
</a>
</g>
</g>
<!-- Node4&#45;&gt;Node14 -->
<g id="edge23_Node000004_Node000014" class="edge">
<title>Node4&#45;&gt;Node14</title>
<g id="a_edge23_Node000004_Node000014"><a xlink:title=" ">
<path fill="none" stroke="#63b8ff" d="M217.47,-258.86C223.55,-217.92 245.71,-103.75 310,-39 311.06,-37.93 312.18,-36.9 313.35,-35.92"/>
<polygon fill="#63b8ff" stroke="#63b8ff" points="315.47,-38.71 321.59,-30.07 311.41,-33 315.47,-38.71"/>
</a>
</g>
</g>
<!-- Node5&#45;&gt;Node3 -->
<g id="edge6_Node000005_Node000003" class="edge">
<title>Node5&#45;&gt;Node3</title>
<g id="a_edge6_Node000005_Node000003"><a xlink:title=" ">
<path fill="none" stroke="#63b8ff" d="M415.99,-431.86C420.64,-429.3 425.09,-426.37 429,-423 475.43,-383.05 506.29,-316.1 520.5,-279.95"/>
<polygon fill="#63b8ff" stroke="#63b8ff" points="523.92,-280.8 524.22,-270.2 517.38,-278.3 523.92,-280.8"/>
</a>
</g>
</g>
<!-- Node6&#45;&gt;Node3 -->
<g id="edge8_Node000006_Node000003" class="edge">
<title>Node6&#45;&gt;Node3</title>
<g id="a_edge8_Node000006_Node000003"><a xlink:title=" ">
<path fill="none" stroke="#63b8ff" d="M413.96,-383.99C419.24,-381.36 424.39,-378.37 429,-375 465.5,-348.31 497,-305.62 514.59,-279.01"/>
<polygon fill="#63b8ff" stroke="#63b8ff" points="517.72,-280.61 520.22,-270.32 511.85,-276.81 517.72,-280.61"/>
</a>
</g>
</g>
<!-- Node7&#45;&gt;Node3 -->
<g id="edge10_Node000007_Node000003" class="edge">
<title>Node7&#45;&gt;Node3</title>
<g id="a_edge10_Node000007_Node000003"><a xlink:title=" ">
<path fill="none" stroke="#63b8ff" d="M410.73,-335.95C416.96,-333.2 423.24,-330.19 429,-327 455.62,-312.27 483.57,-291.78 503.22,-276.42"/>
<polygon fill="#63b8ff" stroke="#63b8ff" points="505.43,-279.13 511.11,-270.18 501.09,-273.64 505.43,-279.13"/>
</a>
</g>
</g>
<!-- Node8&#45;&gt;Node3 -->
<g id="edge12_Node000008_Node000003" class="edge">
<title>Node8&#45;&gt;Node3</title>
<g id="a_edge12_Node000008_Node000003"><a xlink:title=" ">
<path fill="none" stroke="#63b8ff" d="M420.37,-287.94C436.06,-283.21 453.54,-277.93 469.84,-273.01"/>
<polygon fill="#63b8ff" stroke="#63b8ff" points="471.24,-276.24 479.8,-270 469.22,-269.54 471.24,-276.24"/>
</a>
</g>
</g>
<!-- Node9&#45;&gt;Node3 -->
<g id="edge14_Node000009_Node000003" class="edge">
<title>Node9&#45;&gt;Node3</title>
<g id="a_edge14_Node000009_Node000003"><a xlink:title=" ">
<path fill="none" stroke="#63b8ff" d="M429.25,-255C437.58,-255 446.24,-255 454.82,-255"/>
<polygon fill="#63b8ff" stroke="#63b8ff" points="454.83,-258.5 464.83,-255 454.83,-251.5 454.83,-258.5"/>
</a>
</g>
</g>
<!-- Node10&#45;&gt;Node3 -->
<g id="edge16_Node000010_Node000003" class="edge">
<title>Node10&#45;&gt;Node3</title>
<g id="a_edge16_Node000010_Node000003"><a xlink:title=" ">
<path fill="none" stroke="#63b8ff" d="M420.37,-222.06C436.06,-226.79 453.54,-232.07 469.84,-236.99"/>
<polygon fill="#63b8ff" stroke="#63b8ff" points="469.22,-240.46 479.8,-240 471.24,-233.76 469.22,-240.46"/>
</a>
</g>
</g>
<!-- Node11&#45;&gt;Node3 -->
<g id="edge18_Node000011_Node000003" class="edge">
<title>Node11&#45;&gt;Node3</title>
<g id="a_edge18_Node000011_Node000003"><a xlink:title=" ">
<path fill="none" stroke="#63b8ff" d="M410.73,-174.05C416.96,-176.8 423.24,-179.81 429,-183 455.62,-197.73 483.57,-218.22 503.22,-233.58"/>
<polygon fill="#63b8ff" stroke="#63b8ff" points="501.09,-236.36 511.11,-239.82 505.43,-230.87 501.09,-236.36"/>
</a>
</g>
</g>
<!-- Node12&#45;&gt;Node3 -->
<g id="edge20_Node000012_Node000003" class="edge">
<title>Node12&#45;&gt;Node3</title>
<g id="a_edge20_Node000012_Node000003"><a xlink:title=" ">
<path fill="none" stroke="#63b8ff" d="M413.96,-126.01C419.24,-128.64 424.39,-131.63 429,-135 465.5,-161.69 497,-204.38 514.59,-230.99"/>
<polygon fill="#63b8ff" stroke="#63b8ff" points="511.85,-233.19 520.22,-239.68 517.72,-229.39 511.85,-233.19"/>
</a>
</g>
</g>
<!-- Node13&#45;&gt;Node3 -->
<g id="edge22_Node000013_Node000003" class="edge">
<title>Node13&#45;&gt;Node3</title>
<g id="a_edge22_Node000013_Node000003"><a xlink:title=" ">
<path fill="none" stroke="#63b8ff" d="M415.99,-78.14C420.64,-80.7 425.09,-83.63 429,-87 475.43,-126.95 506.29,-193.9 520.5,-230.05"/>
<polygon fill="#63b8ff" stroke="#63b8ff" points="517.38,-231.7 524.22,-239.8 523.92,-229.2 517.38,-231.7"/>
</a>
</g>
</g>
<!-- Node14&#45;&gt;Node3 -->
<g id="edge24_Node000014_Node000003" class="edge">
<title>Node14&#45;&gt;Node3</title>
<g id="a_edge24_Node000014_Node000003"><a xlink:title=" ">
<path fill="none" stroke="#63b8ff" d="M416.93,-30.08C421.3,-32.63 425.43,-35.59 429,-39 485.79,-93.23 513.62,-185.82 524.21,-230.05"/>
<polygon fill="#63b8ff" stroke="#63b8ff" points="520.84,-230.99 526.49,-239.95 527.66,-229.42 520.84,-230.99"/>
</a>
</g>
</g>
</g>
</svg>
