<?xml version="1.0" encoding="UTF-8" standalone="no"?>
<!DOCTYPE svg PUBLIC "-//W3C//DTD SVG 1.1//EN"
 "http://www.w3.org/Graphics/SVG/1.1/DTD/svg11.dtd">
<!-- Generated by graphviz version 2.43.0 (0)
 -->
<!-- Title: lci::net_post_putImm_x::call_impl Pages: 1 -->
<svg width="449pt" height="566pt"
 viewBox="0.00 0.00 449.00 566.00" xmlns="http://www.w3.org/2000/svg" xmlns:xlink="http://www.w3.org/1999/xlink">
<g id="graph0" class="graph" transform="scale(1 1) rotate(0) translate(4 562)">
<title>lci::net_post_putImm_x::call_impl</title>
<!-- Node1 -->
<g id="Node000001" class="node">
<title>Node1</title>
<g id="a_Node000001"><a xlink:title=" ">
<polygon fill="#999999" stroke="#666666" points="119,-294 0,-294 0,-264 119,-264 119,-294"/>
<text text-anchor="start" x="8" y="-282" font-family="Helvetica,sans-Serif" font-size="10.00">lci::net_post_putImm</text>
<text text-anchor="middle" x="59.5" y="-271" font-family="Helvetica,sans-Serif" font-size="10.00">_x::call_impl</text>
</a>
</g>
</g>
<!-- Node2 -->
<g id="Node000002" class="node">
<title>Node2</title>
<g id="a_Node000002"><a xlink:href="../../d8/d8e/classlci_1_1net__post__putImm__x.html#a3638ae876b88beb4145c50818b829b88" target="_top" xlink:title=" ">
<polygon fill="white" stroke="#666666" points="274,-558 155,-558 155,-528 274,-528 274,-558"/>
<text text-anchor="start" x="163" y="-546" font-family="Helvetica,sans-Serif" font-size="10.00">lci::net_post_putImm</text>
<text text-anchor="middle" x="214.5" y="-535" font-family="Helvetica,sans-Serif" font-size="10.00">_x::base</text>
</a>
</g>
</g>
<!-- Node1&#45;&gt;Node2 -->
<g id="edge1_Node000001_Node000002" class="edge">
<title>Node1&#45;&gt;Node2</title>
<g id="a_edge1_Node000001_Node000002"><a xlink:title=" ">
<path fill="none" stroke="#63b8ff" d="M62.32,-294.15C68.09,-335.69 89.61,-452.67 155,-519 156.06,-520.07 157.17,-521.1 158.33,-522.09"/>
<polygon fill="#63b8ff" stroke="#63b8ff" points="156.39,-525 166.57,-527.96 160.46,-519.3 156.39,-525"/>
</a>
</g>
</g>
<!-- Node4 -->
<g id="Node000004" class="node">
<title>Node4</title>
<g id="a_Node000004"><a xlink:href="../../d8/d8e/classlci_1_1net__post__putImm__x.html#a809cffd24d8378635ea78d2501146172" target="_top" xlink:title=" ">
<polygon fill="white" stroke="#666666" points="274,-510 155,-510 155,-480 274,-480 274,-510"/>
<text text-anchor="start" x="163" y="-498" font-family="Helvetica,sans-Serif" font-size="10.00">lci::net_post_putImm</text>
<text text-anchor="middle" x="214.5" y="-487" font-family="Helvetica,sans-Serif" font-size="10.00">_x::buffer</text>
</a>
</g>
</g>
<!-- Node1&#45;&gt;Node4 -->
<g id="edge3_Node000001_Node000004" class="edge">
<title>Node1&#45;&gt;Node4</title>
<g id="a_edge3_Node000001_Node000004"><a xlink:title=" ">
<path fill="none" stroke="#63b8ff" d="M64.02,-294.19C73.03,-329.84 100.16,-419.77 155,-471 156.13,-472.05 157.31,-473.06 158.53,-474.03"/>
<polygon fill="#63b8ff" stroke="#63b8ff" points="156.9,-477.15 167.14,-479.84 160.81,-471.35 156.9,-477.15"/>
</a>
</g>
</g>
<!-- Node5 -->
<g id="Node000005" class="node">
<title>Node5</title>
<g id="a_Node000005"><a xlink:href="../../d8/d8e/classlci_1_1net__post__putImm__x.html#afeccc1b88e00ebbd6ebdbffb5b0d2d93" target="_top" xlink:title=" ">
<polygon fill="white" stroke="#666666" points="274,-462 155,-462 155,-432 274,-432 274,-462"/>
<text text-anchor="start" x="163" y="-450" font-family="Helvetica,sans-Serif" font-size="10.00">lci::net_post_putImm</text>
<text text-anchor="middle" x="214.5" y="-439" font-family="Helvetica,sans-Serif" font-size="10.00">_x::device</text>
</a>
</g>
</g>
<!-- Node1&#45;&gt;Node5 -->
<g id="edge5_Node000001_Node000005" class="edge">
<title>Node1&#45;&gt;Node5</title>
<g id="a_edge5_Node000001_Node000005"><a xlink:title=" ">
<path fill="none" stroke="#63b8ff" d="M66.76,-294.2C79.38,-323.08 110.48,-386.28 155,-423 156.52,-424.26 158.12,-425.46 159.78,-426.6"/>
<polygon fill="#63b8ff" stroke="#63b8ff" points="158.08,-429.66 168.45,-431.85 161.71,-423.68 158.08,-429.66"/>
</a>
</g>
</g>
<!-- Node6 -->
<g id="Node000006" class="node">
<title>Node6</title>
<g id="a_Node000006"><a xlink:href="../../d8/d8e/classlci_1_1net__post__putImm__x.html#a066fb3bcc618c717ada21015d407e105" target="_top" xlink:title=" ">
<polygon fill="white" stroke="#666666" points="274,-414 155,-414 155,-384 274,-384 274,-414"/>
<text text-anchor="start" x="163" y="-402" font-family="Helvetica,sans-Serif" font-size="10.00">lci::net_post_putImm</text>
<text text-anchor="middle" x="214.5" y="-391" font-family="Helvetica,sans-Serif" font-size="10.00">_x::endpoint</text>
</a>
</g>
</g>
<!-- Node1&#45;&gt;Node6 -->
<g id="edge7_Node000001_Node000006" class="edge">
<title>Node1&#45;&gt;Node6</title>
<g id="a_edge7_Node000001_Node000006"><a xlink:title=" ">
<path fill="none" stroke="#63b8ff" d="M72.13,-294.19C88.61,-314.87 120.63,-351.93 155,-375 157.15,-376.45 159.41,-377.83 161.72,-379.15"/>
<polygon fill="#63b8ff" stroke="#63b8ff" points="160.42,-382.41 170.9,-383.93 163.65,-376.2 160.42,-382.41"/>
</a>
</g>
</g>
<!-- Node7 -->
<g id="Node000007" class="node">
<title>Node7</title>
<g id="a_Node000007"><a xlink:href="../../d8/d8e/classlci_1_1net__post__putImm__x.html#a406093e7a6942f230bc280826885c391" target="_top" xlink:title=" ">
<polygon fill="white" stroke="#666666" points="274,-366 155,-366 155,-336 274,-336 274,-366"/>
<text text-anchor="start" x="163" y="-354" font-family="Helvetica,sans-Serif" font-size="10.00">lci::net_post_putImm</text>
<text text-anchor="middle" x="214.5" y="-343" font-family="Helvetica,sans-Serif" font-size="10.00">_x::imm_data</text>
</a>
</g>
</g>
<!-- Node1&#45;&gt;Node7 -->
<g id="edge9_Node000001_Node000007" class="edge">
<title>Node1&#45;&gt;Node7</title>
<g id="a_edge9_Node000001_Node000007"><a xlink:title=" ">
<path fill="none" stroke="#63b8ff" d="M88.74,-294.1C107.37,-303.87 132.42,-316.65 155,-327 158.6,-328.65 162.35,-330.31 166.13,-331.95"/>
<polygon fill="#63b8ff" stroke="#63b8ff" points="164.97,-335.26 175.54,-335.95 167.71,-328.82 164.97,-335.26"/>
</a>
</g>
</g>
<!-- Node8 -->
<g id="Node000008" class="node">
<title>Node8</title>
<g id="a_Node000008"><a xlink:href="../../d8/d8e/classlci_1_1net__post__putImm__x.html#a2784723ec0f924ae9473ba92a6aef5ab" target="_top" xlink:title=" ">
<polygon fill="white" stroke="#666666" points="274,-318 155,-318 155,-288 274,-288 274,-318"/>
<text text-anchor="start" x="163" y="-306" font-family="Helvetica,sans-Serif" font-size="10.00">lci::net_post_putImm</text>
<text text-anchor="middle" x="214.5" y="-295" font-family="Helvetica,sans-Serif" font-size="10.00">_x::mr</text>
</a>
</g>
</g>
<!-- Node1&#45;&gt;Node8 -->
<g id="edge11_Node000001_Node000008" class="edge">
<title>Node1&#45;&gt;Node8</title>
<g id="a_edge11_Node000001_Node000008"><a xlink:title=" ">
<path fill="none" stroke="#63b8ff" d="M119.22,-288.21C127.64,-289.53 136.36,-290.9 144.95,-292.25"/>
<polygon fill="#63b8ff" stroke="#63b8ff" points="144.52,-295.72 154.94,-293.81 145.6,-288.81 144.52,-295.72"/>
</a>
</g>
</g>
<!-- Node9 -->
<g id="Node000009" class="node">
<title>Node9</title>
<g id="a_Node000009"><a xlink:href="../../d8/d8e/classlci_1_1net__post__putImm__x.html#ad3f13422931b7f055dc4038e4fb0ea94" target="_top" xlink:title=" ">
<polygon fill="white" stroke="#666666" points="274,-270 155,-270 155,-240 274,-240 274,-270"/>
<text text-anchor="start" x="163" y="-258" font-family="Helvetica,sans-Serif" font-size="10.00">lci::net_post_putImm</text>
<text text-anchor="middle" x="214.5" y="-247" font-family="Helvetica,sans-Serif" font-size="10.00">_x::offset</text>
</a>
</g>
</g>
<!-- Node1&#45;&gt;Node9 -->
<g id="edge13_Node000001_Node000009" class="edge">
<title>Node1&#45;&gt;Node9</title>
<g id="a_edge13_Node000001_Node000009"><a xlink:title=" ">
<path fill="none" stroke="#63b8ff" d="M119.22,-269.79C127.64,-268.47 136.36,-267.1 144.95,-265.75"/>
<polygon fill="#63b8ff" stroke="#63b8ff" points="145.6,-269.19 154.94,-264.19 144.52,-262.28 145.6,-269.19"/>
</a>
</g>
</g>
<!-- Node10 -->
<g id="Node000010" class="node">
<title>Node10</title>
<g id="a_Node000010"><a xlink:href="../../d8/d8e/classlci_1_1net__post__putImm__x.html#af87c125ecec9c63cf31d9d01ee21fca1" target="_top" xlink:title=" ">
<polygon fill="white" stroke="#666666" points="274,-222 155,-222 155,-192 274,-192 274,-222"/>
<text text-anchor="start" x="163" y="-210" font-family="Helvetica,sans-Serif" font-size="10.00">lci::net_post_putImm</text>
<text text-anchor="middle" x="214.5" y="-199" font-family="Helvetica,sans-Serif" font-size="10.00">_x::rank</text>
</a>
</g>
</g>
<!-- Node1&#45;&gt;Node10 -->
<g id="edge15_Node000001_Node000010" class="edge">
<title>Node1&#45;&gt;Node10</title>
<g id="a_edge15_Node000001_Node000010"><a xlink:title=" ">
<path fill="none" stroke="#63b8ff" d="M88.74,-263.9C107.37,-254.13 132.42,-241.35 155,-231 158.6,-229.35 162.35,-227.69 166.13,-226.05"/>
<polygon fill="#63b8ff" stroke="#63b8ff" points="167.71,-229.18 175.54,-222.05 164.97,-222.74 167.71,-229.18"/>
</a>
</g>
</g>
<!-- Node11 -->
<g id="Node000011" class="node">
<title>Node11</title>
<g id="a_Node000011"><a xlink:href="../../d8/d8e/classlci_1_1net__post__putImm__x.html#a3b5355f81125ba146a3e87f650aaa0f1" target="_top" xlink:title=" ">
<polygon fill="white" stroke="#666666" points="274,-174 155,-174 155,-144 274,-144 274,-174"/>
<text text-anchor="start" x="163" y="-162" font-family="Helvetica,sans-Serif" font-size="10.00">lci::net_post_putImm</text>
<text text-anchor="middle" x="214.5" y="-151" font-family="Helvetica,sans-Serif" font-size="10.00">_x::rkey</text>
</a>
</g>
</g>
<!-- Node1&#45;&gt;Node11 -->
<g id="edge17_Node000001_Node000011" class="edge">
<title>Node1&#45;&gt;Node11</title>
<g id="a_edge17_Node000001_Node000011"><a xlink:title=" ">
<path fill="none" stroke="#63b8ff" d="M72.13,-263.81C88.61,-243.13 120.63,-206.07 155,-183 157.15,-181.55 159.41,-180.17 161.72,-178.85"/>
<polygon fill="#63b8ff" stroke="#63b8ff" points="163.65,-181.8 170.9,-174.07 160.42,-175.59 163.65,-181.8"/>
</a>
</g>
</g>
<!-- Node12 -->
<g id="Node000012" class="node">
<title>Node12</title>
<g id="a_Node000012"><a xlink:href="../../d8/d8e/classlci_1_1net__post__putImm__x.html#a50d24697e8574200e88684c996357a0c" target="_top" xlink:title=" ">
<polygon fill="white" stroke="#666666" points="274,-126 155,-126 155,-96 274,-96 274,-126"/>
<text text-anchor="start" x="163" y="-114" font-family="Helvetica,sans-Serif" font-size="10.00">lci::net_post_putImm</text>
<text text-anchor="middle" x="214.5" y="-103" font-family="Helvetica,sans-Serif" font-size="10.00">_x::runtime</text>
</a>
</g>
</g>
<!-- Node1&#45;&gt;Node12 -->
<g id="edge19_Node000001_Node000012" class="edge">
<title>Node1&#45;&gt;Node12</title>
<g id="a_edge19_Node000001_Node000012"><a xlink:title=" ">
<path fill="none" stroke="#63b8ff" d="M66.76,-263.8C79.38,-234.92 110.48,-171.72 155,-135 156.52,-133.74 158.12,-132.54 159.78,-131.4"/>
<polygon fill="#63b8ff" stroke="#63b8ff" points="161.71,-134.32 168.45,-126.15 158.08,-128.34 161.71,-134.32"/>
</a>
</g>
</g>
<!-- Node13 -->
<g id="Node000013" class="node">
<title>Node13</title>
<g id="a_Node000013"><a xlink:href="../../d8/d8e/classlci_1_1net__post__putImm__x.html#af251ca8b5f6df902fc28a00591c153fe" target="_top" xlink:title=" ">
<polygon fill="white" stroke="#666666" points="274,-78 155,-78 155,-48 274,-48 274,-78"/>
<text text-anchor="start" x="163" y="-66" font-family="Helvetica,sans-Serif" font-size="10.00">lci::net_post_putImm</text>
<text text-anchor="middle" x="214.5" y="-55" font-family="Helvetica,sans-Serif" font-size="10.00">_x::size</text>
</a>
</g>
</g>
<!-- Node1&#45;&gt;Node13 -->
<g id="edge21_Node000001_Node000013" class="edge">
<title>Node1&#45;&gt;Node13</title>
<g id="a_edge21_Node000001_Node000013"><a xlink:title=" ">
<path fill="none" stroke="#63b8ff" d="M64.02,-263.81C73.03,-228.16 100.16,-138.23 155,-87 156.13,-85.95 157.31,-84.94 158.53,-83.97"/>
<polygon fill="#63b8ff" stroke="#63b8ff" points="160.81,-86.65 167.14,-78.16 156.9,-80.85 160.81,-86.65"/>
</a>
</g>
</g>
<!-- Node14 -->
<g id="Node000014" class="node">
<title>Node14</title>
<g id="a_Node000014"><a xlink:href="../../d8/d8e/classlci_1_1net__post__putImm__x.html#a935d85e10c5e3b385d98ce98b2528c85" target="_top" xlink:title=" ">
<polygon fill="white" stroke="#666666" points="274,-30 155,-30 155,0 274,0 274,-30"/>
<text text-anchor="start" x="163" y="-18" font-family="Helvetica,sans-Serif" font-size="10.00">lci::net_post_putImm</text>
<text text-anchor="middle" x="214.5" y="-7" font-family="Helvetica,sans-Serif" font-size="10.00">_x::user_context</text>
</a>
</g>
</g>
<!-- Node1&#45;&gt;Node14 -->
<g id="edge23_Node000001_Node000014" class="edge">
<title>Node1&#45;&gt;Node14</title>
<g id="a_edge23_Node000001_Node000014"><a xlink:title=" ">
<path fill="none" stroke="#63b8ff" d="M62.32,-263.85C68.09,-222.31 89.61,-105.33 155,-39 156.06,-37.93 157.17,-36.9 158.33,-35.91"/>
<polygon fill="#63b8ff" stroke="#63b8ff" points="160.46,-38.7 166.57,-30.04 156.39,-33 160.46,-38.7"/>
</a>
</g>
</g>
<!-- Node3 -->
<g id="Node000003" class="node">
<title>Node3</title>
<g id="a_Node000003"><a xlink:href="../../d8/d8e/classlci_1_1net__post__putImm__x.html#a38bae335f340a77eb80c168b08313802" target="_top" xlink:title=" ">
<polygon fill="white" stroke="#666666" points="441,-294 310,-294 310,-264 441,-264 441,-294"/>
<text text-anchor="start" x="318" y="-282" font-family="Helvetica,sans-Serif" font-size="10.00">lci::net_post_putImm</text>
<text text-anchor="middle" x="375.5" y="-271" font-family="Helvetica,sans-Serif" font-size="10.00">_x::net_post_putImm_x</text>
</a>
</g>
</g>
<!-- Node2&#45;&gt;Node3 -->
<g id="edge2_Node000002_Node000003" class="edge">
<title>Node2&#45;&gt;Node3</title>
<g id="a_edge2_Node000002_Node000003"><a xlink:title=" ">
<path fill="none" stroke="#63b8ff" d="M262.36,-527.88C266.59,-525.35 270.57,-522.4 274,-519 335.86,-457.59 361.57,-352.39 370.47,-304.31"/>
<polygon fill="#63b8ff" stroke="#63b8ff" points="373.97,-304.62 372.26,-294.17 367.08,-303.41 373.97,-304.62"/>
</a>
</g>
</g>
<!-- Node4&#45;&gt;Node3 -->
<g id="edge4_Node000004_Node000003" class="edge">
<title>Node4&#45;&gt;Node3</title>
<g id="a_edge4_Node000004_Node000003"><a xlink:title=" ">
<path fill="none" stroke="#63b8ff" d="M261.48,-479.91C265.99,-477.35 270.27,-474.4 274,-471 325.57,-424.01 355.16,-344.36 367.56,-304.01"/>
<polygon fill="#63b8ff" stroke="#63b8ff" points="370.98,-304.77 370.47,-294.19 364.27,-302.78 370.98,-304.77"/>
</a>
</g>
</g>
<!-- Node5&#45;&gt;Node3 -->
<g id="edge6_Node000005_Node000003" class="edge">
<title>Node5&#45;&gt;Node3</title>
<g id="a_edge6_Node000005_Node000003"><a xlink:title=" ">
<path fill="none" stroke="#63b8ff" d="M260.16,-431.9C265.07,-429.32 269.8,-426.36 274,-423 315.44,-389.81 347.01,-335.13 362.96,-303.57"/>
<polygon fill="#63b8ff" stroke="#63b8ff" points="366.3,-304.7 367.58,-294.19 360.02,-301.61 366.3,-304.7"/>
</a>
</g>
</g>
<!-- Node6&#45;&gt;Node3 -->
<g id="edge8_Node000006_Node000003" class="edge">
<title>Node6&#45;&gt;Node3</title>
<g id="a_edge8_Node000006_Node000003"><a xlink:title=" ">
<path fill="none" stroke="#63b8ff" d="M257.69,-383.93C263.35,-381.27 268.94,-378.29 274,-375 305.76,-354.38 336.35,-322.96 355.27,-301.73"/>
<polygon fill="#63b8ff" stroke="#63b8ff" points="357.97,-303.97 361.93,-294.14 352.7,-299.35 357.97,-303.97"/>
</a>
</g>
</g>
<!-- Node7&#45;&gt;Node3 -->
<g id="edge10_Node000007_Node000003" class="edge">
<title>Node7&#45;&gt;Node3</title>
<g id="a_edge10_Node000007_Node000003"><a xlink:title=" ">
<path fill="none" stroke="#63b8ff" d="M253.08,-335.95C260.07,-333.05 267.28,-329.98 274,-327 294.17,-318.05 316.33,-307.55 334.69,-298.65"/>
<polygon fill="#63b8ff" stroke="#63b8ff" points="336.46,-301.68 343.92,-294.16 333.39,-295.39 336.46,-301.68"/>
</a>
</g>
</g>
<!-- Node8&#45;&gt;Node3 -->
<g id="edge12_Node000008_Node000003" class="edge">
<title>Node8&#45;&gt;Node3</title>
<g id="a_edge12_Node000008_Node000003"><a xlink:title=" ">
<path fill="none" stroke="#63b8ff" d="M274.25,-294.13C282.58,-292.87 291.24,-291.57 299.82,-290.27"/>
<polygon fill="#63b8ff" stroke="#63b8ff" points="300.47,-293.71 309.83,-288.76 299.42,-286.79 300.47,-293.71"/>
</a>
</g>
</g>
<!-- Node9&#45;&gt;Node3 -->
<g id="edge14_Node000009_Node000003" class="edge">
<title>Node9&#45;&gt;Node3</title>
<g id="a_edge14_Node000009_Node000003"><a xlink:title=" ">
<path fill="none" stroke="#63b8ff" d="M274.25,-263.87C282.58,-265.13 291.24,-266.43 299.82,-267.73"/>
<polygon fill="#63b8ff" stroke="#63b8ff" points="299.42,-271.21 309.83,-269.24 300.47,-264.29 299.42,-271.21"/>
</a>
</g>
</g>
<!-- Node10&#45;&gt;Node3 -->
<g id="edge16_Node000010_Node000003" class="edge">
<title>Node10&#45;&gt;Node3</title>
<g id="a_edge16_Node000010_Node000003"><a xlink:title=" ">
<path fill="none" stroke="#63b8ff" d="M253.08,-222.05C260.07,-224.95 267.28,-228.02 274,-231 294.17,-239.95 316.33,-250.45 334.69,-259.35"/>
<polygon fill="#63b8ff" stroke="#63b8ff" points="333.39,-262.61 343.92,-263.84 336.46,-256.32 333.39,-262.61"/>
</a>
</g>
</g>
<!-- Node11&#45;&gt;Node3 -->
<g id="edge18_Node000011_Node000003" class="edge">
<title>Node11&#45;&gt;Node3</title>
<g id="a_edge18_Node000011_Node000003"><a xlink:title=" ">
<path fill="none" stroke="#63b8ff" d="M257.69,-174.07C263.35,-176.73 268.94,-179.71 274,-183 305.76,-203.62 336.35,-235.04 355.27,-256.27"/>
<polygon fill="#63b8ff" stroke="#63b8ff" points="352.7,-258.65 361.93,-263.86 357.97,-254.03 352.7,-258.65"/>
</a>
</g>
</g>
<!-- Node12&#45;&gt;Node3 -->
<g id="edge20_Node000012_Node000003" class="edge">
<title>Node12&#45;&gt;Node3</title>
<g id="a_edge20_Node000012_Node000003"><a xlink:title=" ">
<path fill="none" stroke="#63b8ff" d="M260.16,-126.1C265.07,-128.68 269.8,-131.64 274,-135 315.44,-168.19 347.01,-222.87 362.96,-254.43"/>
<polygon fill="#63b8ff" stroke="#63b8ff" points="360.02,-256.39 367.58,-263.81 366.3,-253.3 360.02,-256.39"/>
</a>
</g>
</g>
<!-- Node13&#45;&gt;Node3 -->
<g id="edge22_Node000013_Node000003" class="edge">
<title>Node13&#45;&gt;Node3</title>
<g id="a_edge22_Node000013_Node000003"><a xlink:title=" ">
<path fill="none" stroke="#63b8ff" d="M261.48,-78.09C265.99,-80.65 270.27,-83.6 274,-87 325.57,-133.99 355.16,-213.64 367.56,-253.99"/>
<polygon fill="#63b8ff" stroke="#63b8ff" points="364.27,-255.22 370.47,-263.81 370.98,-253.23 364.27,-255.22"/>
</a>
</g>
</g>
<!-- Node14&#45;&gt;Node3 -->
<g id="edge24_Node000014_Node000003" class="edge">
<title>Node14&#45;&gt;Node3</title>
<g id="a_edge24_Node000014_Node000003"><a xlink:title=" ">
<path fill="none" stroke="#63b8ff" d="M262.36,-30.12C266.59,-32.65 270.57,-35.6 274,-39 335.86,-100.41 361.57,-205.61 370.47,-253.69"/>
<polygon fill="#63b8ff" stroke="#63b8ff" points="367.08,-254.59 372.26,-263.83 373.97,-253.38 367.08,-254.59"/>
</a>
</g>
</g>
</g>
</svg>
