<?xml version="1.0" encoding="UTF-8" standalone="no"?>
<!DOCTYPE svg PUBLIC "-//W3C//DTD SVG 1.1//EN"
 "http://www.w3.org/Graphics/SVG/1.1/DTD/svg11.dtd">
<!-- Generated by graphviz version 2.43.0 (0)
 -->
<!-- Title: lci::post_send_x::call Pages: 1 -->
<svg width="660pt" height="791pt"
 viewBox="0.00 0.00 660.00 790.88" xmlns="http://www.w3.org/2000/svg" xmlns:xlink="http://www.w3.org/1999/xlink">
<g id="graph0" class="graph" transform="scale(1 1) rotate(0) translate(4 786.88)">
<title>lci::post_send_x::call</title>
<!-- Node1 -->
<g id="Node000001" class="node">
<title>Node1</title>
<g id="a_Node000001"><a xlink:title=" ">
<polygon fill="#999999" stroke="#666666" points="118,-393.88 0,-393.88 0,-374.88 118,-374.88 118,-393.88"/>
<text text-anchor="middle" x="59" y="-381.88" font-family="Helvetica,sans-Serif" font-size="10.00">lci::post_send_x::call</text>
</a>
</g>
</g>
<!-- Node2 -->
<g id="Node000002" class="node">
<title>Node2</title>
<g id="a_Node000002"><a xlink:href="../../d6/de4/classlci_1_1post__send__x.html#a019816cfc58183503a89bdb7af53f8d0" target="_top" xlink:title=" ">
<polygon fill="white" stroke="#666666" points="492.5,-782.88 336.5,-782.88 336.5,-763.88 492.5,-763.88 492.5,-782.88"/>
<text text-anchor="middle" x="414.5" y="-770.88" font-family="Helvetica,sans-Serif" font-size="10.00">lci::post_send_x::allow_done</text>
</a>
</g>
</g>
<!-- Node1&#45;&gt;Node2 -->
<g id="edge1_Node000001_Node000002" class="edge">
<title>Node1&#45;&gt;Node2</title>
<g id="a_edge1_Node000001_Node000002"><a xlink:title=" ">
<path fill="none" stroke="#63b8ff" d="M59.66,-393.94C58.69,-437.07 60.62,-615.29 154,-706.38 199.39,-750.65 269.98,-766.77 326.09,-772.17"/>
<polygon fill="#63b8ff" stroke="#63b8ff" points="326.12,-775.69 336.39,-773.06 326.73,-768.71 326.12,-775.69"/>
</a>
</g>
</g>
<!-- Node4 -->
<g id="Node000004" class="node">
<title>Node4</title>
<g id="a_Node000004"><a xlink:href="../../d6/de4/classlci_1_1post__send__x.html#a9fa9a0346810e6539fe790ec2becbb6a" target="_top" xlink:title=" ">
<polygon fill="white" stroke="#666666" points="478,-745.38 351,-745.38 351,-715.38 478,-715.38 478,-745.38"/>
<text text-anchor="start" x="359" y="-733.38" font-family="Helvetica,sans-Serif" font-size="10.00">lci::post_send_x::allow</text>
<text text-anchor="middle" x="414.5" y="-722.38" font-family="Helvetica,sans-Serif" font-size="10.00">_posted</text>
</a>
</g>
</g>
<!-- Node1&#45;&gt;Node4 -->
<g id="edge3_Node000001_Node000004" class="edge">
<title>Node1&#45;&gt;Node4</title>
<g id="a_edge3_Node000001_Node000004"><a xlink:title=" ">
<path fill="none" stroke="#63b8ff" d="M60.16,-393.97C61.38,-433.51 71.47,-585.41 154,-662.38 204.37,-709.34 283.13,-724.74 340.68,-729.37"/>
<polygon fill="#63b8ff" stroke="#63b8ff" points="340.58,-732.87 350.8,-730.09 341.08,-725.89 340.58,-732.87"/>
</a>
</g>
</g>
<!-- Node5 -->
<g id="Node000005" class="node">
<title>Node5</title>
<g id="a_Node000005"><a xlink:href="../../d6/de4/classlci_1_1post__send__x.html#a6befe5ff6cfde91858f4581fae6eb006" target="_top" xlink:title=" ">
<polygon fill="white" stroke="#666666" points="478,-697.38 351,-697.38 351,-667.38 478,-667.38 478,-697.38"/>
<text text-anchor="start" x="359" y="-685.38" font-family="Helvetica,sans-Serif" font-size="10.00">lci::post_send_x::allow</text>
<text text-anchor="middle" x="414.5" y="-674.38" font-family="Helvetica,sans-Serif" font-size="10.00">_retry</text>
</a>
</g>
</g>
<!-- Node1&#45;&gt;Node5 -->
<g id="edge5_Node000001_Node000005" class="edge">
<title>Node1&#45;&gt;Node5</title>
<g id="a_edge5_Node000001_Node000005"><a xlink:title=" ">
<path fill="none" stroke="#63b8ff" d="M60.81,-394.22C64.35,-430.34 81.62,-556.63 154,-619.38 205.63,-664.14 283.84,-678.24 340.9,-682.15"/>
<polygon fill="#63b8ff" stroke="#63b8ff" points="340.75,-685.65 350.94,-682.75 341.16,-678.66 340.75,-685.65"/>
</a>
</g>
</g>
<!-- Node6 -->
<g id="Node000006" class="node">
<title>Node6</title>
<g id="a_Node000006"><a xlink:href="../../d6/de4/classlci_1_1post__send__x.html#ac60a1ca22737bf2c3edfe66b8084ac6f" target="_top" xlink:title=" ">
<polygon fill="white" stroke="#666666" points="481.5,-648.88 347.5,-648.88 347.5,-629.88 481.5,-629.88 481.5,-648.88"/>
<text text-anchor="middle" x="414.5" y="-636.88" font-family="Helvetica,sans-Serif" font-size="10.00">lci::post_send_x::buffers</text>
</a>
</g>
</g>
<!-- Node1&#45;&gt;Node6 -->
<g id="edge7_Node000001_Node000006" class="edge">
<title>Node1&#45;&gt;Node6</title>
<g id="a_edge7_Node000001_Node000006"><a xlink:title=" ">
<path fill="none" stroke="#63b8ff" d="M61.74,-394.23C67.9,-426.13 91.78,-527.47 154,-577.38 205.79,-618.92 280.93,-633.38 337.04,-638.06"/>
<polygon fill="#63b8ff" stroke="#63b8ff" points="337.05,-641.57 347.29,-638.82 337.58,-634.59 337.05,-641.57"/>
</a>
</g>
</g>
<!-- Node7 -->
<g id="Node000007" class="node">
<title>Node7</title>
<g id="a_Node000007"><a xlink:href="../../d6/de4/classlci_1_1post__send__x.html#ae5f0976df041cfa577b66ae050798f66" target="_top" xlink:title=" ">
<polygon fill="white" stroke="#666666" points="299,-412.88 154,-412.88 154,-393.88 299,-393.88 299,-412.88"/>
<text text-anchor="middle" x="226.5" y="-400.88" font-family="Helvetica,sans-Serif" font-size="10.00">lci::post_send_x::call_impl</text>
</a>
</g>
</g>
<!-- Node1&#45;&gt;Node7 -->
<g id="edge9_Node000001_Node000007" class="edge">
<title>Node1&#45;&gt;Node7</title>
<g id="a_edge9_Node000001_Node000007"><a xlink:title=" ">
<path fill="none" stroke="#63b8ff" d="M118.35,-391.07C126.58,-392.02 135.16,-393 143.72,-393.99"/>
<polygon fill="#63b8ff" stroke="#63b8ff" points="143.42,-397.48 153.75,-395.14 144.22,-390.52 143.42,-397.48"/>
</a>
</g>
</g>
<!-- Node8 -->
<g id="Node000008" class="node">
<title>Node8</title>
<g id="a_Node000008"><a xlink:href="../../d6/de4/classlci_1_1post__send__x.html#a981b3319667587e5c38a5b972e1f1475" target="_top" xlink:title=" ">
<polygon fill="white" stroke="#666666" points="478.5,-611.38 350.5,-611.38 350.5,-581.38 478.5,-581.38 478.5,-611.38"/>
<text text-anchor="start" x="358.5" y="-599.38" font-family="Helvetica,sans-Serif" font-size="10.00">lci::post_send_x::comp</text>
<text text-anchor="middle" x="414.5" y="-588.38" font-family="Helvetica,sans-Serif" font-size="10.00">_semantic</text>
</a>
</g>
</g>
<!-- Node1&#45;&gt;Node8 -->
<g id="edge44_Node000001_Node000008" class="edge">
<title>Node1&#45;&gt;Node8</title>
<g id="a_edge44_Node000001_Node000008"><a xlink:title=" ">
<path fill="none" stroke="#63b8ff" d="M62.96,-394.19C71.8,-421.74 100.77,-500.27 154,-538.38 208.42,-577.33 284.43,-590.77 340.12,-595.09"/>
<polygon fill="#63b8ff" stroke="#63b8ff" points="340.05,-598.6 350.27,-595.8 340.54,-591.61 340.05,-598.6"/>
</a>
</g>
</g>
<!-- Node9 -->
<g id="Node000009" class="node">
<title>Node9</title>
<g id="a_Node000009"><a xlink:href="../../d6/de4/classlci_1_1post__send__x.html#af83844d6f633050ce6fa86b54059d9ab" target="_top" xlink:title=" ">
<polygon fill="white" stroke="#666666" points="481,-562.88 348,-562.88 348,-543.88 481,-543.88 481,-562.88"/>
<text text-anchor="middle" x="414.5" y="-550.88" font-family="Helvetica,sans-Serif" font-size="10.00">lci::post_send_x::device</text>
</a>
</g>
</g>
<!-- Node1&#45;&gt;Node9 -->
<g id="edge45_Node000001_Node000009" class="edge">
<title>Node1&#45;&gt;Node9</title>
<g id="a_edge45_Node000001_Node000009"><a xlink:title=" ">
<path fill="none" stroke="#63b8ff" d="M64.58,-393.9C76.08,-416.74 108.56,-474.76 154,-502.38 209.57,-536.15 283.07,-548.16 337.66,-552.15"/>
<polygon fill="#63b8ff" stroke="#63b8ff" points="337.76,-555.67 347.97,-552.83 338.22,-548.68 337.76,-555.67"/>
</a>
</g>
</g>
<!-- Node10 -->
<g id="Node000010" class="node">
<title>Node10</title>
<g id="a_Node000010"><a xlink:href="../../d6/de4/classlci_1_1post__send__x.html#a1725404618abbfc3bcf3007ff17aea58" target="_top" xlink:title=" ">
<polygon fill="white" stroke="#666666" points="486,-525.88 343,-525.88 343,-506.88 486,-506.88 486,-525.88"/>
<text text-anchor="middle" x="414.5" y="-513.88" font-family="Helvetica,sans-Serif" font-size="10.00">lci::post_send_x::endpoint</text>
</a>
</g>
</g>
<!-- Node1&#45;&gt;Node10 -->
<g id="edge46_Node000001_Node000010" class="edge">
<title>Node1&#45;&gt;Node10</title>
<g id="a_edge46_Node000001_Node000010"><a xlink:title=" ">
<path fill="none" stroke="#63b8ff" d="M67.61,-394.03C82.26,-411.87 116.27,-449.87 154,-468.38 209.94,-495.82 279.67,-507.65 332.76,-512.71"/>
<polygon fill="#63b8ff" stroke="#63b8ff" points="332.53,-516.21 342.81,-513.61 333.16,-509.23 332.53,-516.21"/>
</a>
</g>
</g>
<!-- Node11 -->
<g id="Node000011" class="node">
<title>Node11</title>
<g id="a_Node000011"><a xlink:href="../../d6/de4/classlci_1_1post__send__x.html#a7b6fcb7c161018b81683ead41d447c5d" target="_top" xlink:title=" ">
<polygon fill="white" stroke="#666666" points="477,-488.38 352,-488.38 352,-458.38 477,-458.38 477,-488.38"/>
<text text-anchor="start" x="360" y="-476.38" font-family="Helvetica,sans-Serif" font-size="10.00">lci::post_send_x::force</text>
<text text-anchor="middle" x="414.5" y="-465.38" font-family="Helvetica,sans-Serif" font-size="10.00">_zcopy</text>
</a>
</g>
</g>
<!-- Node1&#45;&gt;Node11 -->
<g id="edge47_Node000001_Node000011" class="edge">
<title>Node1&#45;&gt;Node11</title>
<g id="a_edge47_Node000001_Node000011"><a xlink:title=" ">
<path fill="none" stroke="#63b8ff" d="M71.92,-393.93C89,-407.03 121.9,-430.24 154,-441.38 215.14,-462.58 288.66,-470.1 341.81,-472.59"/>
<polygon fill="#63b8ff" stroke="#63b8ff" points="341.69,-476.08 351.82,-473.01 341.98,-469.09 341.69,-476.08"/>
</a>
</g>
</g>
<!-- Node12 -->
<g id="Node000012" class="node">
<title>Node12</title>
<g id="a_Node000012"><a xlink:href="../../d6/de4/classlci_1_1post__send__x.html#a3e8715f3060364c226ef73de62f25e3f" target="_top" xlink:title=" ">
<polygon fill="white" stroke="#666666" points="476.5,-440.38 352.5,-440.38 352.5,-410.38 476.5,-410.38 476.5,-440.38"/>
<text text-anchor="start" x="360.5" y="-428.38" font-family="Helvetica,sans-Serif" font-size="10.00">lci::post_send_x::local</text>
<text text-anchor="middle" x="414.5" y="-417.38" font-family="Helvetica,sans-Serif" font-size="10.00">_buffer</text>
</a>
</g>
</g>
<!-- Node1&#45;&gt;Node12 -->
<g id="edge48_Node000001_Node000012" class="edge">
<title>Node1&#45;&gt;Node12</title>
<g id="a_edge48_Node000001_Node000012"><a xlink:title=" ">
<path fill="none" stroke="#63b8ff" d="M77.75,-393.89C96.2,-403.21 126.21,-416.8 154,-422.38 216.64,-434.93 289.5,-434.5 342.05,-431.62"/>
<polygon fill="#63b8ff" stroke="#63b8ff" points="342.5,-435.09 352.27,-431.01 342.08,-428.11 342.5,-435.09"/>
</a>
</g>
</g>
<!-- Node13 -->
<g id="Node000013" class="node">
<title>Node13</title>
<g id="a_Node000013"><a xlink:href="../../d6/de4/classlci_1_1post__send__x.html#a0199101f52023dc7c9573175c621e82e" target="_top" xlink:title=" ">
<polygon fill="white" stroke="#666666" points="492.5,-391.88 336.5,-391.88 336.5,-372.88 492.5,-372.88 492.5,-391.88"/>
<text text-anchor="middle" x="414.5" y="-379.88" font-family="Helvetica,sans-Serif" font-size="10.00">lci::post_send_x::local_comp</text>
</a>
</g>
</g>
<!-- Node1&#45;&gt;Node13 -->
<g id="edge49_Node000001_Node000013" class="edge">
<title>Node1&#45;&gt;Node13</title>
<g id="a_edge49_Node000001_Node000013"><a xlink:title=" ">
<path fill="none" stroke="#63b8ff" d="M118.37,-384.05C174.96,-383.73 261.51,-383.24 326.27,-382.87"/>
<polygon fill="#63b8ff" stroke="#63b8ff" points="326.49,-386.37 336.47,-382.81 326.45,-379.37 326.49,-386.37"/>
</a>
</g>
</g>
<!-- Node14 -->
<g id="Node000014" class="node">
<title>Node14</title>
<g id="a_Node000014"><a xlink:href="../../d6/de4/classlci_1_1post__send__x.html#a7b8658ea0241beb8090cd0a2b2296ca6" target="_top" xlink:title=" ">
<polygon fill="white" stroke="#666666" points="487.5,-354.38 341.5,-354.38 341.5,-324.38 487.5,-324.38 487.5,-354.38"/>
<text text-anchor="start" x="349.5" y="-342.38" font-family="Helvetica,sans-Serif" font-size="10.00">lci::post_send_x::matching</text>
<text text-anchor="middle" x="414.5" y="-331.38" font-family="Helvetica,sans-Serif" font-size="10.00">_engine</text>
</a>
</g>
</g>
<!-- Node1&#45;&gt;Node14 -->
<g id="edge50_Node000001_Node000014" class="edge">
<title>Node1&#45;&gt;Node14</title>
<g id="a_edge50_Node000001_Node000014"><a xlink:title=" ">
<path fill="none" stroke="#63b8ff" d="M118.37,-376.94C176.36,-369.56 265.8,-358.18 331.02,-349.87"/>
<polygon fill="#63b8ff" stroke="#63b8ff" points="331.8,-353.3 341.27,-348.57 330.91,-346.36 331.8,-353.3"/>
</a>
</g>
</g>
<!-- Node15 -->
<g id="Node000015" class="node">
<title>Node15</title>
<g id="a_Node000015"><a xlink:href="../../d6/de4/classlci_1_1post__send__x.html#ac8971b8e65a93350aaee529612687cdb" target="_top" xlink:title=" ">
<polygon fill="white" stroke="#666666" points="487.5,-306.38 341.5,-306.38 341.5,-276.38 487.5,-276.38 487.5,-306.38"/>
<text text-anchor="start" x="349.5" y="-294.38" font-family="Helvetica,sans-Serif" font-size="10.00">lci::post_send_x::matching</text>
<text text-anchor="middle" x="414.5" y="-283.38" font-family="Helvetica,sans-Serif" font-size="10.00">_policy</text>
</a>
</g>
</g>
<!-- Node1&#45;&gt;Node15 -->
<g id="edge51_Node000001_Node000015" class="edge">
<title>Node1&#45;&gt;Node15</title>
<g id="a_edge51_Node000001_Node000015"><a xlink:title=" ">
<path fill="none" stroke="#63b8ff" d="M84.07,-374.74C102.9,-367.43 129.85,-357.46 154,-350.38 212.6,-333.19 279.88,-318.02 331.24,-307.37"/>
<polygon fill="#63b8ff" stroke="#63b8ff" points="332.2,-310.74 341.29,-305.3 330.79,-303.88 332.2,-310.74"/>
</a>
</g>
</g>
<!-- Node16 -->
<g id="Node000016" class="node">
<title>Node16</title>
<g id="a_Node000016"><a xlink:href="../../d6/de4/classlci_1_1post__send__x.html#a2e62e9494b0b5583444ef84fa583af67" target="_top" xlink:title=" ">
<polygon fill="white" stroke="#666666" points="471.5,-257.88 357.5,-257.88 357.5,-238.88 471.5,-238.88 471.5,-257.88"/>
<text text-anchor="middle" x="414.5" y="-245.88" font-family="Helvetica,sans-Serif" font-size="10.00">lci::post_send_x::mr</text>
</a>
</g>
</g>
<!-- Node1&#45;&gt;Node16 -->
<g id="edge52_Node000001_Node000016" class="edge">
<title>Node1&#45;&gt;Node16</title>
<g id="a_edge52_Node000001_Node000016"><a xlink:title=" ">
<path fill="none" stroke="#63b8ff" d="M69.19,-374.83C85,-358.98 119.04,-327.29 154,-310.38 215.89,-280.43 293.25,-264.36 347.34,-256.15"/>
<polygon fill="#63b8ff" stroke="#63b8ff" points="348.11,-259.58 357.49,-254.66 347.09,-252.65 348.11,-259.58"/>
</a>
</g>
</g>
<!-- Node17 -->
<g id="Node000017" class="node">
<title>Node17</title>
<g id="a_Node000017"><a xlink:href="../../d6/de4/classlci_1_1post__send__x.html#af151218ec4a44e6b623a192494ac2061" target="_top" xlink:title=" ">
<polygon fill="white" stroke="#666666" points="494,-220.88 335,-220.88 335,-201.88 494,-201.88 494,-220.88"/>
<text text-anchor="middle" x="414.5" y="-208.88" font-family="Helvetica,sans-Serif" font-size="10.00">lci::post_send_x::packet_pool</text>
</a>
</g>
</g>
<!-- Node1&#45;&gt;Node17 -->
<g id="edge53_Node000001_Node000017" class="edge">
<title>Node1&#45;&gt;Node17</title>
<g id="a_edge53_Node000001_Node000017"><a xlink:title=" ">
<path fill="none" stroke="#63b8ff" d="M64.26,-374.7C75.27,-350.9 107.15,-289.39 154,-260.38 205.09,-228.74 271.87,-216.66 324.9,-212.39"/>
<polygon fill="#63b8ff" stroke="#63b8ff" points="325.25,-215.88 334.97,-211.66 324.75,-208.9 325.25,-215.88"/>
</a>
</g>
</g>
<!-- Node18 -->
<g id="Node000018" class="node">
<title>Node18</title>
<g id="a_Node000018"><a xlink:href="../../d6/de4/classlci_1_1post__send__x.html#a5bb620bb23efa9ecd9bb5ccc414d0faa" target="_top" xlink:title=" ">
<polygon fill="white" stroke="#666666" points="475.5,-183.88 353.5,-183.88 353.5,-164.88 475.5,-164.88 475.5,-183.88"/>
<text text-anchor="middle" x="414.5" y="-171.88" font-family="Helvetica,sans-Serif" font-size="10.00">lci::post_send_x::rank</text>
</a>
</g>
</g>
<!-- Node1&#45;&gt;Node18 -->
<g id="edge54_Node000001_Node000018" class="edge">
<title>Node1&#45;&gt;Node18</title>
<g id="a_edge54_Node000001_Node000018"><a xlink:title=" ">
<path fill="none" stroke="#63b8ff" d="M62.1,-374.47C69.08,-344.23 94.49,-252.73 154,-211.38 209.23,-172.99 287.19,-166.6 343.22,-168.05"/>
<polygon fill="#63b8ff" stroke="#63b8ff" points="343.3,-171.55 353.41,-168.4 343.54,-164.56 343.3,-171.55"/>
</a>
</g>
</g>
<!-- Node19 -->
<g id="Node000019" class="node">
<title>Node19</title>
<g id="a_Node000019"><a xlink:href="../../d6/de4/classlci_1_1post__send__x.html#a62b983582fc79337c41ce970921d8234" target="_top" xlink:title=" ">
<polygon fill="white" stroke="#666666" points="484,-146.88 345,-146.88 345,-127.88 484,-127.88 484,-146.88"/>
<text text-anchor="middle" x="414.5" y="-134.88" font-family="Helvetica,sans-Serif" font-size="10.00">lci::post_send_x::runtime</text>
</a>
</g>
</g>
<!-- Node1&#45;&gt;Node19 -->
<g id="edge55_Node000001_Node000019" class="edge">
<title>Node1&#45;&gt;Node19</title>
<g id="a_edge55_Node000001_Node000019"><a xlink:title=" ">
<path fill="none" stroke="#63b8ff" d="M60.78,-374.82C64.2,-339.86 81.12,-218.11 154,-164.38 209.17,-123.7 289.79,-121.68 346.5,-126.82"/>
<polygon fill="#63b8ff" stroke="#63b8ff" points="346.5,-130.34 356.8,-127.86 347.2,-123.38 346.5,-130.34"/>
</a>
</g>
</g>
<!-- Node20 -->
<g id="Node000020" class="node">
<title>Node20</title>
<g id="a_Node000020"><a xlink:href="../../d6/de4/classlci_1_1post__send__x.html#a442c9810cbc06c288134a7b38b5796a5" target="_top" xlink:title=" ">
<polygon fill="white" stroke="#666666" points="474.5,-109.88 354.5,-109.88 354.5,-90.88 474.5,-90.88 474.5,-109.88"/>
<text text-anchor="middle" x="414.5" y="-97.88" font-family="Helvetica,sans-Serif" font-size="10.00">lci::post_send_x::size</text>
</a>
</g>
</g>
<!-- Node1&#45;&gt;Node20 -->
<g id="edge56_Node000001_Node000020" class="edge">
<title>Node1&#45;&gt;Node20</title>
<g id="a_edge56_Node000001_Node000020"><a xlink:title=" ">
<path fill="none" stroke="#63b8ff" d="M60,-374.85C60.56,-335.66 68.4,-185.84 154,-120.38 213.6,-74.8 305.04,-79.93 361.96,-89.16"/>
<polygon fill="#63b8ff" stroke="#63b8ff" points="361.37,-92.62 371.82,-90.86 362.56,-85.72 361.37,-92.62"/>
</a>
</g>
</g>
<!-- Node21 -->
<g id="Node000021" class="node">
<title>Node21</title>
<g id="a_Node000021"><a xlink:href="../../d6/de4/classlci_1_1post__send__x.html#ac787ac7cd8c9ce0a02f2e4e69715c708" target="_top" xlink:title=" ">
<polygon fill="white" stroke="#666666" points="472.5,-72.88 356.5,-72.88 356.5,-53.88 472.5,-53.88 472.5,-72.88"/>
<text text-anchor="middle" x="414.5" y="-60.88" font-family="Helvetica,sans-Serif" font-size="10.00">lci::post_send_x::tag</text>
</a>
</g>
</g>
<!-- Node1&#45;&gt;Node21 -->
<g id="edge57_Node000001_Node000021" class="edge">
<title>Node1&#45;&gt;Node21</title>
<g id="a_edge57_Node000001_Node000021"><a xlink:title=" ">
<path fill="none" stroke="#63b8ff" d="M61.48,-374.67C69,-326.87 104.48,-117.22 154,-78.38 215,-30.52 311,-40.14 367.55,-51.65"/>
<polygon fill="#63b8ff" stroke="#63b8ff" points="367.12,-55.13 377.63,-53.8 368.59,-48.29 367.12,-55.13"/>
</a>
</g>
</g>
<!-- Node22 -->
<g id="Node000022" class="node">
<title>Node22</title>
<g id="a_Node000022"><a xlink:href="../../d6/de4/classlci_1_1post__send__x.html#aaf2656ce27f04830a7df38e7ca71f701" target="_top" xlink:title=" ">
<polygon fill="white" stroke="#666666" points="475.5,-35.38 353.5,-35.38 353.5,-5.38 475.5,-5.38 475.5,-35.38"/>
<text text-anchor="start" x="361.5" y="-23.38" font-family="Helvetica,sans-Serif" font-size="10.00">lci::post_send_x::user</text>
<text text-anchor="middle" x="414.5" y="-12.38" font-family="Helvetica,sans-Serif" font-size="10.00">_context</text>
</a>
</g>
</g>
<!-- Node1&#45;&gt;Node22 -->
<g id="edge58_Node000001_Node000022" class="edge">
<title>Node1&#45;&gt;Node22</title>
<g id="a_edge58_Node000001_Node000022"><a xlink:title=" ">
<path fill="none" stroke="#63b8ff" d="M61.12,-374.82C67.3,-323.73 99.03,-83.5 154,-38.38 206.19,4.47 285.94,3.41 343.25,-4.89"/>
<polygon fill="#63b8ff" stroke="#63b8ff" points="342.9,-8.38 353.32,-6.46 343.98,-1.46 342.9,-8.38"/>
</a>
</g>
</g>
<!-- Node3 -->
<g id="Node000003" class="node">
<title>Node3</title>
<g id="a_Node000003"><a xlink:href="../../d6/de4/classlci_1_1post__send__x.html#a4cbc2854edcef90b2464f247d68225b5" target="_top" xlink:title=" ">
<polygon fill="white" stroke="#666666" points="652,-397.38 530,-397.38 530,-367.38 652,-367.38 652,-397.38"/>
<text text-anchor="start" x="538" y="-385.38" font-family="Helvetica,sans-Serif" font-size="10.00">lci::post_send_x::post</text>
<text text-anchor="middle" x="591" y="-374.38" font-family="Helvetica,sans-Serif" font-size="10.00">_send_x</text>
</a>
</g>
</g>
<!-- Node2&#45;&gt;Node3 -->
<g id="edge2_Node000002_Node000003" class="edge">
<title>Node2&#45;&gt;Node3</title>
<g id="a_edge2_Node000002_Node000003"><a xlink:title=" ">
<path fill="none" stroke="#63b8ff" d="M480.69,-763.84C485.57,-761.32 490.1,-758.21 494,-754.38 544.27,-704.86 577.02,-483.06 586.87,-407.6"/>
<polygon fill="#63b8ff" stroke="#63b8ff" points="590.36,-407.93 588.16,-397.57 583.42,-407.04 590.36,-407.93"/>
</a>
</g>
</g>
<!-- Node4&#45;&gt;Node3 -->
<g id="edge4_Node000004_Node000003" class="edge">
<title>Node4&#45;&gt;Node3</title>
<g id="a_edge4_Node000004_Node000003"><a xlink:title=" ">
<path fill="none" stroke="#63b8ff" d="M478.37,-717.62C484.13,-714.62 489.48,-710.93 494,-706.38 577.79,-621.85 589.07,-467.82 590.14,-407.53"/>
<polygon fill="#63b8ff" stroke="#63b8ff" points="593.64,-407.43 590.24,-397.4 586.64,-407.36 593.64,-407.43"/>
</a>
</g>
</g>
<!-- Node5&#45;&gt;Node3 -->
<g id="edge6_Node000005_Node000003" class="edge">
<title>Node5&#45;&gt;Node3</title>
<g id="a_edge6_Node000005_Node000003"><a xlink:title=" ">
<path fill="none" stroke="#63b8ff" d="M478.16,-669.4C483.96,-666.45 489.38,-662.82 494,-658.38 566.49,-588.59 584.28,-461.27 588.62,-407.46"/>
<polygon fill="#63b8ff" stroke="#63b8ff" points="592.11,-407.65 589.33,-397.42 585.13,-407.15 592.11,-407.65"/>
</a>
</g>
</g>
<!-- Node6&#45;&gt;Node3 -->
<g id="edge8_Node000006_Node000003" class="edge">
<title>Node6&#45;&gt;Node3</title>
<g id="a_edge8_Node000006_Node000003"><a xlink:title=" ">
<path fill="none" stroke="#63b8ff" d="M479.01,-629.81C484.44,-627.32 489.54,-624.23 494,-620.38 559.36,-563.92 580.78,-456.51 587.33,-407.67"/>
<polygon fill="#63b8ff" stroke="#63b8ff" points="590.81,-408 588.57,-397.64 583.87,-407.14 590.81,-408"/>
</a>
</g>
</g>
<!-- Node7&#45;&gt;Node2 -->
<g id="edge10_Node000007_Node000002" class="edge">
<title>Node7&#45;&gt;Node2</title>
<g id="a_edge10_Node000007_Node000002"><a xlink:title=" ">
<path fill="none" stroke="#63b8ff" d="M227.26,-412.94C226.66,-458.55 230.39,-655.83 335,-754.38 336.66,-755.94 338.42,-757.38 340.27,-758.71"/>
<polygon fill="#63b8ff" stroke="#63b8ff" points="338.49,-761.72 348.87,-763.84 342.08,-755.71 338.49,-761.72"/>
</a>
</g>
</g>
<!-- Node7&#45;&gt;Node4 -->
<g id="edge11_Node000007_Node000004" class="edge">
<title>Node7&#45;&gt;Node4</title>
<g id="a_edge11_Node000007_Node000004"><a xlink:title=" ">
<path fill="none" stroke="#63b8ff" d="M227.91,-412.89C230.24,-454.27 245.06,-620.33 335,-706.38 337.17,-708.45 339.52,-710.35 342,-712.09"/>
<polygon fill="#63b8ff" stroke="#63b8ff" points="340.49,-715.26 350.87,-717.37 344.07,-709.25 340.49,-715.26"/>
</a>
</g>
</g>
<!-- Node7&#45;&gt;Node5 -->
<g id="edge12_Node000007_Node000005" class="edge">
<title>Node7&#45;&gt;Node5</title>
<g id="a_edge12_Node000007_Node000005"><a xlink:title=" ">
<path fill="none" stroke="#63b8ff" d="M228.62,-412.88C233.54,-450.13 256.54,-587.55 335,-658.38 337.18,-660.35 339.52,-662.15 341.98,-663.81"/>
<polygon fill="#63b8ff" stroke="#63b8ff" points="340.33,-666.9 350.74,-668.9 343.85,-660.85 340.33,-666.9"/>
</a>
</g>
</g>
<!-- Node7&#45;&gt;Node6 -->
<g id="edge13_Node000007_Node000006" class="edge">
<title>Node7&#45;&gt;Node6</title>
<g id="a_edge13_Node000007_Node000006"><a xlink:title=" ">
<path fill="none" stroke="#63b8ff" d="M229.26,-412.98C236.04,-447.1 263.73,-563.42 335,-620.38 337.18,-622.12 339.5,-623.71 341.93,-625.16"/>
<polygon fill="#63b8ff" stroke="#63b8ff" points="340.57,-628.39 351.08,-629.79 343.74,-622.15 340.57,-628.39"/>
</a>
</g>
</g>
<!-- Node7&#45;&gt;Node8 -->
<g id="edge14_Node000007_Node000008" class="edge">
<title>Node7&#45;&gt;Node8</title>
<g id="a_edge14_Node000007_Node000008"><a xlink:title=" ">
<path fill="none" stroke="#63b8ff" d="M230.88,-413.09C241.44,-441.95 276.61,-527.94 335,-572.38 337.03,-573.92 339.17,-575.37 341.38,-576.73"/>
<polygon fill="#63b8ff" stroke="#63b8ff" points="339.77,-579.84 350.23,-581.51 343.1,-573.68 339.77,-579.84"/>
</a>
</g>
</g>
<!-- Node7&#45;&gt;Node9 -->
<g id="edge16_Node000007_Node000009" class="edge">
<title>Node7&#45;&gt;Node9</title>
<g id="a_edge16_Node000007_Node000009"><a xlink:title=" ">
<path fill="none" stroke="#63b8ff" d="M232.47,-413.2C245.57,-437.98 283.55,-503.38 335,-535.38 337.65,-537.02 340.43,-538.52 343.3,-539.87"/>
<polygon fill="#63b8ff" stroke="#63b8ff" points="342.14,-543.18 352.72,-543.77 344.81,-536.71 342.14,-543.18"/>
</a>
</g>
</g>
<!-- Node7&#45;&gt;Node10 -->
<g id="edge18_Node000007_Node000010" class="edge">
<title>Node7&#45;&gt;Node10</title>
<g id="a_edge18_Node000007_Node000010"><a xlink:title=" ">
<path fill="none" stroke="#63b8ff" d="M235.59,-413.06C252.17,-432.24 292.07,-475.14 335,-497.38 339.55,-499.73 344.41,-501.81 349.38,-503.63"/>
<polygon fill="#63b8ff" stroke="#63b8ff" points="348.46,-507.01 359.05,-506.82 350.66,-500.36 348.46,-507.01"/>
</a>
</g>
</g>
<!-- Node7&#45;&gt;Node11 -->
<g id="edge20_Node000007_Node000011" class="edge">
<title>Node7&#45;&gt;Node11</title>
<g id="a_edge20_Node000007_Node000011"><a xlink:title=" ">
<path fill="none" stroke="#63b8ff" d="M248.24,-413.04C269.7,-422.85 304.3,-438.15 335,-449.38 340.4,-451.35 346.05,-453.3 351.74,-455.18"/>
<polygon fill="#63b8ff" stroke="#63b8ff" points="350.71,-458.53 361.3,-458.28 352.86,-451.87 350.71,-458.53"/>
</a>
</g>
</g>
<!-- Node7&#45;&gt;Node12 -->
<g id="edge22_Node000007_Node000012" class="edge">
<title>Node7&#45;&gt;Node12</title>
<g id="a_edge22_Node000007_Node000012"><a xlink:title=" ">
<path fill="none" stroke="#63b8ff" d="M299.15,-411.85C313.31,-413.53 328.17,-415.28 342.32,-416.96"/>
<polygon fill="#63b8ff" stroke="#63b8ff" points="342.14,-420.46 352.48,-418.16 342.96,-413.51 342.14,-420.46"/>
</a>
</g>
</g>
<!-- Node7&#45;&gt;Node13 -->
<g id="edge24_Node000007_Node000013" class="edge">
<title>Node7&#45;&gt;Node13</title>
<g id="a_edge24_Node000007_Node000013"><a xlink:title=" ">
<path fill="none" stroke="#63b8ff" d="M299.15,-395.29C307.99,-394.29 317.12,-393.26 326.16,-392.24"/>
<polygon fill="#63b8ff" stroke="#63b8ff" points="326.79,-395.69 336.33,-391.09 326,-388.73 326.79,-395.69"/>
</a>
</g>
</g>
<!-- Node7&#45;&gt;Node14 -->
<g id="edge26_Node000007_Node000014" class="edge">
<title>Node7&#45;&gt;Node14</title>
<g id="a_edge26_Node000007_Node000014"><a xlink:title=" ">
<path fill="none" stroke="#63b8ff" d="M253.03,-393.79C274.75,-385.71 306.81,-373.97 335,-364.38 341.55,-362.15 348.43,-359.87 355.27,-357.63"/>
<polygon fill="#63b8ff" stroke="#63b8ff" points="356.81,-360.82 365.24,-354.41 354.65,-354.16 356.81,-360.82"/>
</a>
</g>
</g>
<!-- Node7&#45;&gt;Node15 -->
<g id="edge28_Node000007_Node000015" class="edge">
<title>Node7&#45;&gt;Node15</title>
<g id="a_edge28_Node000007_Node000015"><a xlink:title=" ">
<path fill="none" stroke="#63b8ff" d="M236.64,-393.72C254.12,-375.8 294.17,-337.22 335,-315.38 338.44,-313.54 342.03,-311.82 345.72,-310.21"/>
<polygon fill="#63b8ff" stroke="#63b8ff" points="347.06,-313.45 355.02,-306.46 344.44,-306.96 347.06,-313.45"/>
</a>
</g>
</g>
<!-- Node7&#45;&gt;Node16 -->
<g id="edge30_Node000007_Node000016" class="edge">
<title>Node7&#45;&gt;Node16</title>
<g id="a_edge30_Node000007_Node000016"><a xlink:title=" ">
<path fill="none" stroke="#63b8ff" d="M232.23,-393.67C245,-368.5 282.79,-300.82 335,-267.38 339,-264.82 343.31,-262.6 347.78,-260.68"/>
<polygon fill="#63b8ff" stroke="#63b8ff" points="349.02,-263.96 357.14,-257.15 346.55,-257.41 349.02,-263.96"/>
</a>
</g>
</g>
<!-- Node7&#45;&gt;Node17 -->
<g id="edge32_Node000007_Node000017" class="edge">
<title>Node7&#45;&gt;Node17</title>
<g id="a_edge32_Node000007_Node000017"><a xlink:title=" ">
<path fill="none" stroke="#63b8ff" d="M230.55,-393.69C240.4,-364.12 274.26,-274.31 335,-230.38 337.67,-228.44 340.51,-226.71 343.47,-225.15"/>
<polygon fill="#63b8ff" stroke="#63b8ff" points="345,-228.3 352.64,-220.97 342.09,-221.93 345,-228.3"/>
</a>
</g>
</g>
<!-- Node7&#45;&gt;Node18 -->
<g id="edge34_Node000007_Node000018" class="edge">
<title>Node7&#45;&gt;Node18</title>
<g id="a_edge34_Node000007_Node000018"><a xlink:title=" ">
<path fill="none" stroke="#63b8ff" d="M229.46,-393.61C236.76,-359.99 265.52,-248.14 335,-193.38 337.78,-191.18 340.78,-189.24 343.92,-187.51"/>
<polygon fill="#63b8ff" stroke="#63b8ff" points="345.54,-190.62 353.11,-183.21 342.57,-184.28 345.54,-190.62"/>
</a>
</g>
</g>
<!-- Node7&#45;&gt;Node19 -->
<g id="edge36_Node000007_Node000019" class="edge">
<title>Node7&#45;&gt;Node19</title>
<g id="a_edge36_Node000007_Node000019"><a xlink:title=" ">
<path fill="none" stroke="#63b8ff" d="M228.64,-393.77C233.56,-356.8 256.41,-222.42 335,-156.38 337.02,-154.68 339.17,-153.13 341.41,-151.71"/>
<polygon fill="#63b8ff" stroke="#63b8ff" points="343.3,-154.67 350.49,-146.89 340.01,-148.49 343.3,-154.67"/>
</a>
</g>
</g>
<!-- Node7&#45;&gt;Node20 -->
<g id="edge38_Node000007_Node000020" class="edge">
<title>Node7&#45;&gt;Node20</title>
<g id="a_edge38_Node000007_Node000020"><a xlink:title=" ">
<path fill="none" stroke="#63b8ff" d="M228.04,-393.78C230.85,-353.52 247.26,-196.83 335,-119.38 338.05,-116.69 341.41,-114.36 344.98,-112.35"/>
<polygon fill="#63b8ff" stroke="#63b8ff" points="346.67,-115.43 354.21,-107.99 343.67,-109.1 346.67,-115.43"/>
</a>
</g>
</g>
<!-- Node7&#45;&gt;Node21 -->
<g id="edge40_Node000007_Node000021" class="edge">
<title>Node7&#45;&gt;Node21</title>
<g id="a_edge40_Node000007_Node000021"><a xlink:title=" ">
<path fill="none" stroke="#63b8ff" d="M227.57,-393.76C228.45,-350.4 238.01,-171.39 335,-82.38 338.62,-79.05 342.72,-76.29 347.1,-73.98"/>
<polygon fill="#63b8ff" stroke="#63b8ff" points="348.68,-77.11 356.41,-69.88 345.85,-70.71 348.68,-77.11"/>
</a>
</g>
</g>
<!-- Node7&#45;&gt;Node22 -->
<g id="edge42_Node000007_Node000022" class="edge">
<title>Node7&#45;&gt;Node22</title>
<g id="a_edge42_Node000007_Node000022"><a xlink:title=" ">
<path fill="none" stroke="#63b8ff" d="M227.31,-393.73C226.94,-347.72 231.56,-148.41 335,-44.38 337.86,-41.5 341.05,-38.97 344.46,-36.74"/>
<polygon fill="#63b8ff" stroke="#63b8ff" points="346.32,-39.72 353.35,-31.8 342.91,-33.6 346.32,-39.72"/>
</a>
</g>
</g>
<!-- Node8&#45;&gt;Node3 -->
<g id="edge15_Node000008_Node000003" class="edge">
<title>Node8&#45;&gt;Node3</title>
<g id="a_edge15_Node000008_Node000003"><a xlink:title=" ">
<path fill="none" stroke="#63b8ff" d="M478.76,-582.18C484.23,-579.47 489.42,-576.23 494,-572.38 546.55,-528.13 573.4,-447.96 584.17,-407.37"/>
<polygon fill="#63b8ff" stroke="#63b8ff" points="587.61,-408.04 586.68,-397.49 580.82,-406.32 587.61,-408.04"/>
</a>
</g>
</g>
<!-- Node9&#45;&gt;Node3 -->
<g id="edge17_Node000009_Node000003" class="edge">
<title>Node9&#45;&gt;Node3</title>
<g id="a_edge17_Node000009_Node000003"><a xlink:title=" ">
<path fill="none" stroke="#63b8ff" d="M478.32,-543.8C483.88,-541.55 489.21,-538.78 494,-535.38 539.4,-503.11 568.02,-441.96 581.28,-407.54"/>
<polygon fill="#63b8ff" stroke="#63b8ff" points="584.71,-408.37 584.91,-397.78 578.14,-405.94 584.71,-408.37"/>
</a>
</g>
</g>
<!-- Node10&#45;&gt;Node3 -->
<g id="edge19_Node000010_Node000003" class="edge">
<title>Node10&#45;&gt;Node3</title>
<g id="a_edge19_Node000010_Node000003"><a xlink:title=" ">
<path fill="none" stroke="#63b8ff" d="M473.8,-506.74C480.89,-504.3 487.81,-501.23 494,-497.38 530.75,-474.52 560.28,-432.8 576.45,-406.39"/>
<polygon fill="#63b8ff" stroke="#63b8ff" points="579.49,-408.12 581.61,-397.74 573.48,-404.54 579.49,-408.12"/>
</a>
</g>
</g>
<!-- Node11&#45;&gt;Node3 -->
<g id="edge21_Node000011_Node000003" class="edge">
<title>Node11&#45;&gt;Node3</title>
<g id="a_edge21_Node000011_Node000003"><a xlink:title=" ">
<path fill="none" stroke="#63b8ff" d="M472.49,-458.27C479.86,-455.65 487.21,-452.68 494,-449.38 519.36,-437.03 545.43,-418.39 563.99,-403.9"/>
<polygon fill="#63b8ff" stroke="#63b8ff" points="566.3,-406.53 571.96,-397.57 561.95,-401.05 566.3,-406.53"/>
</a>
</g>
</g>
<!-- Node12&#45;&gt;Node3 -->
<g id="edge23_Node000012_Node000003" class="edge">
<title>Node12&#45;&gt;Node3</title>
<g id="a_edge23_Node000012_Node000003"><a xlink:title=" ">
<path fill="none" stroke="#63b8ff" d="M476.53,-410.34C490.59,-406.87 505.64,-403.16 520.04,-399.61"/>
<polygon fill="#63b8ff" stroke="#63b8ff" points="521.01,-402.98 529.89,-397.19 519.34,-396.18 521.01,-402.98"/>
</a>
</g>
</g>
<!-- Node13&#45;&gt;Node3 -->
<g id="edge25_Node000013_Node000003" class="edge">
<title>Node13&#45;&gt;Node3</title>
<g id="a_edge25_Node000013_Node000003"><a xlink:title=" ">
<path fill="none" stroke="#63b8ff" d="M492.55,-382.38C501.63,-382.38 510.87,-382.38 519.86,-382.38"/>
<polygon fill="#63b8ff" stroke="#63b8ff" points="519.87,-385.88 529.87,-382.38 519.87,-378.88 519.87,-385.88"/>
</a>
</g>
</g>
<!-- Node14&#45;&gt;Node3 -->
<g id="edge27_Node000014_Node000003" class="edge">
<title>Node14&#45;&gt;Node3</title>
<g id="a_edge27_Node000014_Node000003"><a xlink:title=" ">
<path fill="none" stroke="#63b8ff" d="M476.53,-354.41C490.59,-357.88 505.64,-361.59 520.04,-365.14"/>
<polygon fill="#63b8ff" stroke="#63b8ff" points="519.34,-368.57 529.89,-367.56 521.01,-361.77 519.34,-368.57"/>
</a>
</g>
</g>
<!-- Node15&#45;&gt;Node3 -->
<g id="edge29_Node000015_Node000003" class="edge">
<title>Node15&#45;&gt;Node3</title>
<g id="a_edge29_Node000015_Node000003"><a xlink:title=" ">
<path fill="none" stroke="#63b8ff" d="M472.49,-306.48C479.86,-309.1 487.21,-312.07 494,-315.38 519.36,-327.72 545.43,-346.36 563.99,-360.85"/>
<polygon fill="#63b8ff" stroke="#63b8ff" points="561.95,-363.7 571.96,-367.18 566.3,-358.22 561.95,-363.7"/>
</a>
</g>
</g>
<!-- Node16&#45;&gt;Node3 -->
<g id="edge31_Node000016_Node000003" class="edge">
<title>Node16&#45;&gt;Node3</title>
<g id="a_edge31_Node000016_Node000003"><a xlink:title=" ">
<path fill="none" stroke="#63b8ff" d="M471.75,-257.32C479.56,-259.87 487.21,-263.15 494,-267.38 530.75,-290.23 560.28,-331.95 576.45,-358.36"/>
<polygon fill="#63b8ff" stroke="#63b8ff" points="573.48,-360.21 581.61,-367.01 579.49,-356.63 573.48,-360.21"/>
</a>
</g>
</g>
<!-- Node17&#45;&gt;Node3 -->
<g id="edge33_Node000017_Node000003" class="edge">
<title>Node17&#45;&gt;Node3</title>
<g id="a_edge33_Node000017_Node000003"><a xlink:title=" ">
<path fill="none" stroke="#63b8ff" d="M476.33,-221.01C482.61,-223.46 488.65,-226.53 494,-230.38 539.04,-262.7 567.8,-323.34 581.18,-357.45"/>
<polygon fill="#63b8ff" stroke="#63b8ff" points="578.03,-359.01 584.84,-367.12 584.57,-356.53 578.03,-359.01"/>
</a>
</g>
</g>
<!-- Node18&#45;&gt;Node3 -->
<g id="edge35_Node000018_Node000003" class="edge">
<title>Node18&#45;&gt;Node3</title>
<g id="a_edge35_Node000018_Node000003"><a xlink:title=" ">
<path fill="none" stroke="#63b8ff" d="M475.5,-183.04C482.16,-185.65 488.5,-189.03 494,-193.38 547.66,-235.81 574.01,-316.27 584.42,-357.16"/>
<polygon fill="#63b8ff" stroke="#63b8ff" points="581.07,-358.23 586.83,-367.12 587.88,-356.58 581.07,-358.23"/>
</a>
</g>
</g>
<!-- Node19&#45;&gt;Node3 -->
<g id="edge37_Node000019_Node000003" class="edge">
<title>Node19&#45;&gt;Node3</title>
<g id="a_edge37_Node000019_Node000003"><a xlink:title=" ">
<path fill="none" stroke="#63b8ff" d="M478.94,-147.02C484.38,-149.5 489.51,-152.57 494,-156.38 556.59,-209.45 579.33,-310.5 586.76,-357.36"/>
<polygon fill="#63b8ff" stroke="#63b8ff" points="583.31,-357.9 588.23,-367.27 590.23,-356.87 583.31,-357.9"/>
</a>
</g>
</g>
<!-- Node20&#45;&gt;Node3 -->
<g id="edge39_Node000020_Node000003" class="edge">
<title>Node20&#45;&gt;Node3</title>
<g id="a_edge39_Node000020_Node000003"><a xlink:title=" ">
<path fill="none" stroke="#63b8ff" d="M474.84,-107.93C481.85,-110.71 488.46,-114.42 494,-119.38 565.4,-183.17 583.76,-304.51 588.43,-357.06"/>
<polygon fill="#63b8ff" stroke="#63b8ff" points="584.95,-357.49 589.23,-367.19 591.93,-356.94 584.95,-357.49"/>
</a>
</g>
</g>
<!-- Node21&#45;&gt;Node3 -->
<g id="edge41_Node000021_Node000003" class="edge">
<title>Node21&#45;&gt;Node3</title>
<g id="a_edge41_Node000021_Node000003"><a xlink:title=" ">
<path fill="none" stroke="#63b8ff" d="M472.65,-69.8C480.51,-72.69 487.94,-76.74 494,-82.38 574.5,-157.26 587.77,-299.55 589.76,-357.19"/>
<polygon fill="#63b8ff" stroke="#63b8ff" points="586.26,-357.33 590.01,-367.24 593.26,-357.15 586.26,-357.33"/>
</a>
</g>
</g>
<!-- Node22&#45;&gt;Node3 -->
<g id="edge43_Node000022_Node000003" class="edge">
<title>Node22&#45;&gt;Node3</title>
<g id="a_edge43_Node000022_Node000003"><a xlink:title=" ">
<path fill="none" stroke="#63b8ff" d="M475.72,-31.73C482.49,-34.95 488.81,-39.08 494,-44.38 581.01,-133.14 590.33,-294.74 590.51,-356.99"/>
<polygon fill="#63b8ff" stroke="#63b8ff" points="587.01,-357.07 590.46,-367.09 594.01,-357.11 587.01,-357.07"/>
</a>
</g>
</g>
</g>
</svg>
