<?xml version="1.0" encoding="UTF-8" standalone="no"?>
<!DOCTYPE svg PUBLIC "-//W3C//DTD SVG 1.1//EN"
 "http://www.w3.org/Graphics/SVG/1.1/DTD/svg11.dtd">
<!-- Generated by graphviz version 2.43.0 (0)
 -->
<!-- Title: lci::post_send_x::post_send_x Pages: 1 -->
<svg width="845pt" height="791pt"
 viewBox="0.00 0.00 845.00 790.88" xmlns="http://www.w3.org/2000/svg" xmlns:xlink="http://www.w3.org/1999/xlink">
<g id="graph0" class="graph" transform="scale(1 1) rotate(0) translate(4 786.88)">
<title>lci::post_send_x::post_send_x</title>
<!-- Node1 -->
<g id="Node000001" class="node">
<title>Node1</title>
<g id="a_Node000001"><a xlink:title=" ">
<polygon fill="#999999" stroke="#666666" points="837,-397.38 715,-397.38 715,-367.38 837,-367.38 837,-397.38"/>
<text text-anchor="start" x="723" y="-385.38" font-family="Helvetica,sans-Serif" font-size="10.00">lci::post_send_x::post</text>
<text text-anchor="middle" x="776" y="-374.38" font-family="Helvetica,sans-Serif" font-size="10.00">_send_x</text>
</a>
</g>
</g>
<!-- Node2 -->
<g id="Node000002" class="node">
<title>Node2</title>
<g id="a_Node000002"><a xlink:href="../../d6/de4/classlci_1_1post__send__x.html#a019816cfc58183503a89bdb7af53f8d0" target="_top" xlink:title=" ">
<polygon fill="white" stroke="#666666" points="677.5,-782.88 521.5,-782.88 521.5,-763.88 677.5,-763.88 677.5,-782.88"/>
<text text-anchor="middle" x="599.5" y="-770.88" font-family="Helvetica,sans-Serif" font-size="10.00">lci::post_send_x::allow_done</text>
</a>
</g>
</g>
<!-- Node1&#45;&gt;Node2 -->
<g id="edge1_Node000001_Node000002" class="edge">
<title>Node1&#45;&gt;Node2</title>
<g id="a_edge1_Node000001_Node000002"><a xlink:title=" ">
<path fill="none" stroke="#63b8ff" d="M771.87,-407.6C762.02,-483.06 729.27,-704.86 679,-754.38 675.1,-758.21 670.57,-761.32 665.69,-763.84"/>
<polygon fill="#63b8ff" stroke="#63b8ff" points="775.36,-407.93 773.16,-397.57 768.42,-407.04 775.36,-407.93"/>
</a>
</g>
</g>
<!-- Node7 -->
<g id="Node000007" class="node">
<title>Node7</title>
<g id="a_Node000007"><a xlink:href="../../d6/de4/classlci_1_1post__send__x.html#a9fa9a0346810e6539fe790ec2becbb6a" target="_top" xlink:title=" ">
<polygon fill="white" stroke="#666666" points="663,-745.38 536,-745.38 536,-715.38 663,-715.38 663,-745.38"/>
<text text-anchor="start" x="544" y="-733.38" font-family="Helvetica,sans-Serif" font-size="10.00">lci::post_send_x::allow</text>
<text text-anchor="middle" x="599.5" y="-722.38" font-family="Helvetica,sans-Serif" font-size="10.00">_posted</text>
</a>
</g>
</g>
<!-- Node1&#45;&gt;Node7 -->
<g id="edge7_Node000001_Node000007" class="edge">
<title>Node1&#45;&gt;Node7</title>
<g id="a_edge7_Node000001_Node000007"><a xlink:title=" ">
<path fill="none" stroke="#63b8ff" d="M775.14,-407.53C774.07,-467.82 762.79,-621.85 679,-706.38 674.48,-710.93 669.13,-714.62 663.37,-717.62"/>
<polygon fill="#63b8ff" stroke="#63b8ff" points="778.64,-407.43 775.24,-397.4 771.64,-407.36 778.64,-407.43"/>
</a>
</g>
</g>
<!-- Node8 -->
<g id="Node000008" class="node">
<title>Node8</title>
<g id="a_Node000008"><a xlink:href="../../d6/de4/classlci_1_1post__send__x.html#a6befe5ff6cfde91858f4581fae6eb006" target="_top" xlink:title=" ">
<polygon fill="white" stroke="#666666" points="663,-697.38 536,-697.38 536,-667.38 663,-667.38 663,-697.38"/>
<text text-anchor="start" x="544" y="-685.38" font-family="Helvetica,sans-Serif" font-size="10.00">lci::post_send_x::allow</text>
<text text-anchor="middle" x="599.5" y="-674.38" font-family="Helvetica,sans-Serif" font-size="10.00">_retry</text>
</a>
</g>
</g>
<!-- Node1&#45;&gt;Node8 -->
<g id="edge10_Node000001_Node000008" class="edge">
<title>Node1&#45;&gt;Node8</title>
<g id="a_edge10_Node000001_Node000008"><a xlink:title=" ">
<path fill="none" stroke="#63b8ff" d="M773.62,-407.46C769.28,-461.27 751.49,-588.59 679,-658.38 674.38,-662.82 668.96,-666.45 663.16,-669.4"/>
<polygon fill="#63b8ff" stroke="#63b8ff" points="777.11,-407.65 774.33,-397.42 770.13,-407.15 777.11,-407.65"/>
</a>
</g>
</g>
<!-- Node9 -->
<g id="Node000009" class="node">
<title>Node9</title>
<g id="a_Node000009"><a xlink:href="../../d6/de4/classlci_1_1post__send__x.html#ac60a1ca22737bf2c3edfe66b8084ac6f" target="_top" xlink:title=" ">
<polygon fill="white" stroke="#666666" points="666.5,-648.88 532.5,-648.88 532.5,-629.88 666.5,-629.88 666.5,-648.88"/>
<text text-anchor="middle" x="599.5" y="-636.88" font-family="Helvetica,sans-Serif" font-size="10.00">lci::post_send_x::buffers</text>
</a>
</g>
</g>
<!-- Node1&#45;&gt;Node9 -->
<g id="edge13_Node000001_Node000009" class="edge">
<title>Node1&#45;&gt;Node9</title>
<g id="a_edge13_Node000001_Node000009"><a xlink:title=" ">
<path fill="none" stroke="#63b8ff" d="M772.33,-407.67C765.78,-456.51 744.36,-563.92 679,-620.38 674.54,-624.23 669.44,-627.32 664.01,-629.81"/>
<polygon fill="#63b8ff" stroke="#63b8ff" points="775.81,-408 773.57,-397.64 768.87,-407.14 775.81,-408"/>
</a>
</g>
</g>
<!-- Node10 -->
<g id="Node000010" class="node">
<title>Node10</title>
<g id="a_Node000010"><a xlink:href="../../d6/de4/classlci_1_1post__send__x.html#a981b3319667587e5c38a5b972e1f1475" target="_top" xlink:title=" ">
<polygon fill="white" stroke="#666666" points="663.5,-611.38 535.5,-611.38 535.5,-581.38 663.5,-581.38 663.5,-611.38"/>
<text text-anchor="start" x="543.5" y="-599.38" font-family="Helvetica,sans-Serif" font-size="10.00">lci::post_send_x::comp</text>
<text text-anchor="middle" x="599.5" y="-588.38" font-family="Helvetica,sans-Serif" font-size="10.00">_semantic</text>
</a>
</g>
</g>
<!-- Node1&#45;&gt;Node10 -->
<g id="edge16_Node000001_Node000010" class="edge">
<title>Node1&#45;&gt;Node10</title>
<g id="a_edge16_Node000001_Node000010"><a xlink:title=" ">
<path fill="none" stroke="#63b8ff" d="M769.17,-407.37C758.4,-447.96 731.55,-528.13 679,-572.38 674.42,-576.23 669.23,-579.47 663.76,-582.18"/>
<polygon fill="#63b8ff" stroke="#63b8ff" points="772.61,-408.04 771.68,-397.49 765.82,-406.32 772.61,-408.04"/>
</a>
</g>
</g>
<!-- Node11 -->
<g id="Node000011" class="node">
<title>Node11</title>
<g id="a_Node000011"><a xlink:href="../../d6/de4/classlci_1_1post__send__x.html#af83844d6f633050ce6fa86b54059d9ab" target="_top" xlink:title=" ">
<polygon fill="white" stroke="#666666" points="666,-562.88 533,-562.88 533,-543.88 666,-543.88 666,-562.88"/>
<text text-anchor="middle" x="599.5" y="-550.88" font-family="Helvetica,sans-Serif" font-size="10.00">lci::post_send_x::device</text>
</a>
</g>
</g>
<!-- Node1&#45;&gt;Node11 -->
<g id="edge19_Node000001_Node000011" class="edge">
<title>Node1&#45;&gt;Node11</title>
<g id="a_edge19_Node000001_Node000011"><a xlink:title=" ">
<path fill="none" stroke="#63b8ff" d="M766.28,-407.54C753.02,-441.96 724.4,-503.11 679,-535.38 674.21,-538.78 668.88,-541.55 663.32,-543.8"/>
<polygon fill="#63b8ff" stroke="#63b8ff" points="769.71,-408.37 769.91,-397.78 763.14,-405.94 769.71,-408.37"/>
</a>
</g>
</g>
<!-- Node12 -->
<g id="Node000012" class="node">
<title>Node12</title>
<g id="a_Node000012"><a xlink:href="../../d6/de4/classlci_1_1post__send__x.html#a1725404618abbfc3bcf3007ff17aea58" target="_top" xlink:title=" ">
<polygon fill="white" stroke="#666666" points="671,-525.88 528,-525.88 528,-506.88 671,-506.88 671,-525.88"/>
<text text-anchor="middle" x="599.5" y="-513.88" font-family="Helvetica,sans-Serif" font-size="10.00">lci::post_send_x::endpoint</text>
</a>
</g>
</g>
<!-- Node1&#45;&gt;Node12 -->
<g id="edge22_Node000001_Node000012" class="edge">
<title>Node1&#45;&gt;Node12</title>
<g id="a_edge22_Node000001_Node000012"><a xlink:title=" ">
<path fill="none" stroke="#63b8ff" d="M761.45,-406.39C745.28,-432.8 715.75,-474.52 679,-497.38 672.81,-501.23 665.89,-504.3 658.8,-506.74"/>
<polygon fill="#63b8ff" stroke="#63b8ff" points="764.49,-408.12 766.61,-397.74 758.48,-404.54 764.49,-408.12"/>
</a>
</g>
</g>
<!-- Node13 -->
<g id="Node000013" class="node">
<title>Node13</title>
<g id="a_Node000013"><a xlink:href="../../d6/de4/classlci_1_1post__send__x.html#a7b6fcb7c161018b81683ead41d447c5d" target="_top" xlink:title=" ">
<polygon fill="white" stroke="#666666" points="662,-488.38 537,-488.38 537,-458.38 662,-458.38 662,-488.38"/>
<text text-anchor="start" x="545" y="-476.38" font-family="Helvetica,sans-Serif" font-size="10.00">lci::post_send_x::force</text>
<text text-anchor="middle" x="599.5" y="-465.38" font-family="Helvetica,sans-Serif" font-size="10.00">_zcopy</text>
</a>
</g>
</g>
<!-- Node1&#45;&gt;Node13 -->
<g id="edge25_Node000001_Node000013" class="edge">
<title>Node1&#45;&gt;Node13</title>
<g id="a_edge25_Node000001_Node000013"><a xlink:title=" ">
<path fill="none" stroke="#63b8ff" d="M748.99,-403.9C730.43,-418.39 704.36,-437.03 679,-449.38 672.21,-452.68 664.86,-455.65 657.49,-458.27"/>
<polygon fill="#63b8ff" stroke="#63b8ff" points="751.3,-406.53 756.96,-397.57 746.95,-401.05 751.3,-406.53"/>
</a>
</g>
</g>
<!-- Node14 -->
<g id="Node000014" class="node">
<title>Node14</title>
<g id="a_Node000014"><a xlink:href="../../d6/de4/classlci_1_1post__send__x.html#a3e8715f3060364c226ef73de62f25e3f" target="_top" xlink:title=" ">
<polygon fill="white" stroke="#666666" points="661.5,-440.38 537.5,-440.38 537.5,-410.38 661.5,-410.38 661.5,-440.38"/>
<text text-anchor="start" x="545.5" y="-428.38" font-family="Helvetica,sans-Serif" font-size="10.00">lci::post_send_x::local</text>
<text text-anchor="middle" x="599.5" y="-417.38" font-family="Helvetica,sans-Serif" font-size="10.00">_buffer</text>
</a>
</g>
</g>
<!-- Node1&#45;&gt;Node14 -->
<g id="edge28_Node000001_Node000014" class="edge">
<title>Node1&#45;&gt;Node14</title>
<g id="a_edge28_Node000001_Node000014"><a xlink:title=" ">
<path fill="none" stroke="#63b8ff" d="M705.1,-399.6C690.69,-403.15 675.62,-406.86 661.55,-410.33"/>
<polygon fill="#63b8ff" stroke="#63b8ff" points="706.07,-402.96 714.95,-397.17 704.4,-396.17 706.07,-402.96"/>
</a>
</g>
</g>
<!-- Node15 -->
<g id="Node000015" class="node">
<title>Node15</title>
<g id="a_Node000015"><a xlink:href="../../d6/de4/classlci_1_1post__send__x.html#a0199101f52023dc7c9573175c621e82e" target="_top" xlink:title=" ">
<polygon fill="white" stroke="#666666" points="677.5,-391.88 521.5,-391.88 521.5,-372.88 677.5,-372.88 677.5,-391.88"/>
<text text-anchor="middle" x="599.5" y="-379.88" font-family="Helvetica,sans-Serif" font-size="10.00">lci::post_send_x::local_comp</text>
</a>
</g>
</g>
<!-- Node1&#45;&gt;Node15 -->
<g id="edge31_Node000001_Node000015" class="edge">
<title>Node1&#45;&gt;Node15</title>
<g id="a_edge31_Node000001_Node000015"><a xlink:title=" ">
<path fill="none" stroke="#63b8ff" d="M704.93,-382.38C695.94,-382.38 686.7,-382.38 677.61,-382.38"/>
<polygon fill="#63b8ff" stroke="#63b8ff" points="704.95,-385.88 714.95,-382.38 704.95,-378.88 704.95,-385.88"/>
</a>
</g>
</g>
<!-- Node16 -->
<g id="Node000016" class="node">
<title>Node16</title>
<g id="a_Node000016"><a xlink:href="../../d6/de4/classlci_1_1post__send__x.html#a7b8658ea0241beb8090cd0a2b2296ca6" target="_top" xlink:title=" ">
<polygon fill="white" stroke="#666666" points="672.5,-354.38 526.5,-354.38 526.5,-324.38 672.5,-324.38 672.5,-354.38"/>
<text text-anchor="start" x="534.5" y="-342.38" font-family="Helvetica,sans-Serif" font-size="10.00">lci::post_send_x::matching</text>
<text text-anchor="middle" x="599.5" y="-331.38" font-family="Helvetica,sans-Serif" font-size="10.00">_engine</text>
</a>
</g>
</g>
<!-- Node1&#45;&gt;Node16 -->
<g id="edge34_Node000001_Node000016" class="edge">
<title>Node1&#45;&gt;Node16</title>
<g id="a_edge34_Node000001_Node000016"><a xlink:title=" ">
<path fill="none" stroke="#63b8ff" d="M705.1,-365.15C690.69,-361.6 675.62,-357.89 661.55,-354.42"/>
<polygon fill="#63b8ff" stroke="#63b8ff" points="704.4,-368.58 714.95,-367.58 706.07,-361.79 704.4,-368.58"/>
</a>
</g>
</g>
<!-- Node17 -->
<g id="Node000017" class="node">
<title>Node17</title>
<g id="a_Node000017"><a xlink:href="../../d6/de4/classlci_1_1post__send__x.html#ac8971b8e65a93350aaee529612687cdb" target="_top" xlink:title=" ">
<polygon fill="white" stroke="#666666" points="672.5,-306.38 526.5,-306.38 526.5,-276.38 672.5,-276.38 672.5,-306.38"/>
<text text-anchor="start" x="534.5" y="-294.38" font-family="Helvetica,sans-Serif" font-size="10.00">lci::post_send_x::matching</text>
<text text-anchor="middle" x="599.5" y="-283.38" font-family="Helvetica,sans-Serif" font-size="10.00">_policy</text>
</a>
</g>
</g>
<!-- Node1&#45;&gt;Node17 -->
<g id="edge37_Node000001_Node000017" class="edge">
<title>Node1&#45;&gt;Node17</title>
<g id="a_edge37_Node000001_Node000017"><a xlink:title=" ">
<path fill="none" stroke="#63b8ff" d="M748.99,-360.85C730.43,-346.36 704.36,-327.72 679,-315.38 672.21,-312.07 664.86,-309.1 657.49,-306.48"/>
<polygon fill="#63b8ff" stroke="#63b8ff" points="746.95,-363.7 756.96,-367.18 751.3,-358.22 746.95,-363.7"/>
</a>
</g>
</g>
<!-- Node18 -->
<g id="Node000018" class="node">
<title>Node18</title>
<g id="a_Node000018"><a xlink:href="../../d6/de4/classlci_1_1post__send__x.html#a2e62e9494b0b5583444ef84fa583af67" target="_top" xlink:title=" ">
<polygon fill="white" stroke="#666666" points="656.5,-257.88 542.5,-257.88 542.5,-238.88 656.5,-238.88 656.5,-257.88"/>
<text text-anchor="middle" x="599.5" y="-245.88" font-family="Helvetica,sans-Serif" font-size="10.00">lci::post_send_x::mr</text>
</a>
</g>
</g>
<!-- Node1&#45;&gt;Node18 -->
<g id="edge40_Node000001_Node000018" class="edge">
<title>Node1&#45;&gt;Node18</title>
<g id="a_edge40_Node000001_Node000018"><a xlink:title=" ">
<path fill="none" stroke="#63b8ff" d="M761.45,-358.36C745.28,-331.95 715.75,-290.23 679,-267.38 672.21,-263.15 664.56,-259.87 656.75,-257.32"/>
<polygon fill="#63b8ff" stroke="#63b8ff" points="758.48,-360.21 766.61,-367.01 764.49,-356.63 758.48,-360.21"/>
</a>
</g>
</g>
<!-- Node19 -->
<g id="Node000019" class="node">
<title>Node19</title>
<g id="a_Node000019"><a xlink:href="../../d6/de4/classlci_1_1post__send__x.html#af151218ec4a44e6b623a192494ac2061" target="_top" xlink:title=" ">
<polygon fill="white" stroke="#666666" points="679,-220.88 520,-220.88 520,-201.88 679,-201.88 679,-220.88"/>
<text text-anchor="middle" x="599.5" y="-208.88" font-family="Helvetica,sans-Serif" font-size="10.00">lci::post_send_x::packet_pool</text>
</a>
</g>
</g>
<!-- Node1&#45;&gt;Node19 -->
<g id="edge43_Node000001_Node000019" class="edge">
<title>Node1&#45;&gt;Node19</title>
<g id="a_edge43_Node000001_Node000019"><a xlink:title=" ">
<path fill="none" stroke="#63b8ff" d="M766.18,-357.45C752.8,-323.34 724.04,-262.7 679,-230.38 673.65,-226.53 667.61,-223.46 661.33,-221.01"/>
<polygon fill="#63b8ff" stroke="#63b8ff" points="763.03,-359.01 769.84,-367.12 769.57,-356.53 763.03,-359.01"/>
</a>
</g>
</g>
<!-- Node20 -->
<g id="Node000020" class="node">
<title>Node20</title>
<g id="a_Node000020"><a xlink:href="../../d6/de4/classlci_1_1post__send__x.html#a5bb620bb23efa9ecd9bb5ccc414d0faa" target="_top" xlink:title=" ">
<polygon fill="white" stroke="#666666" points="660.5,-183.88 538.5,-183.88 538.5,-164.88 660.5,-164.88 660.5,-183.88"/>
<text text-anchor="middle" x="599.5" y="-171.88" font-family="Helvetica,sans-Serif" font-size="10.00">lci::post_send_x::rank</text>
</a>
</g>
</g>
<!-- Node1&#45;&gt;Node20 -->
<g id="edge46_Node000001_Node000020" class="edge">
<title>Node1&#45;&gt;Node20</title>
<g id="a_edge46_Node000001_Node000020"><a xlink:title=" ">
<path fill="none" stroke="#63b8ff" d="M769.42,-357.16C759.01,-316.27 732.66,-235.81 679,-193.38 673.5,-189.03 667.16,-185.65 660.5,-183.04"/>
<polygon fill="#63b8ff" stroke="#63b8ff" points="766.07,-358.23 771.83,-367.12 772.88,-356.58 766.07,-358.23"/>
</a>
</g>
</g>
<!-- Node21 -->
<g id="Node000021" class="node">
<title>Node21</title>
<g id="a_Node000021"><a xlink:href="../../d6/de4/classlci_1_1post__send__x.html#a62b983582fc79337c41ce970921d8234" target="_top" xlink:title=" ">
<polygon fill="white" stroke="#666666" points="669,-146.88 530,-146.88 530,-127.88 669,-127.88 669,-146.88"/>
<text text-anchor="middle" x="599.5" y="-134.88" font-family="Helvetica,sans-Serif" font-size="10.00">lci::post_send_x::runtime</text>
</a>
</g>
</g>
<!-- Node1&#45;&gt;Node21 -->
<g id="edge49_Node000001_Node000021" class="edge">
<title>Node1&#45;&gt;Node21</title>
<g id="a_edge49_Node000001_Node000021"><a xlink:title=" ">
<path fill="none" stroke="#63b8ff" d="M771.76,-357.36C764.33,-310.5 741.59,-209.45 679,-156.38 674.51,-152.57 669.38,-149.5 663.94,-147.02"/>
<polygon fill="#63b8ff" stroke="#63b8ff" points="768.31,-357.9 773.23,-367.27 775.23,-356.87 768.31,-357.9"/>
</a>
</g>
</g>
<!-- Node22 -->
<g id="Node000022" class="node">
<title>Node22</title>
<g id="a_Node000022"><a xlink:href="../../d6/de4/classlci_1_1post__send__x.html#a442c9810cbc06c288134a7b38b5796a5" target="_top" xlink:title=" ">
<polygon fill="white" stroke="#666666" points="659.5,-109.88 539.5,-109.88 539.5,-90.88 659.5,-90.88 659.5,-109.88"/>
<text text-anchor="middle" x="599.5" y="-97.88" font-family="Helvetica,sans-Serif" font-size="10.00">lci::post_send_x::size</text>
</a>
</g>
</g>
<!-- Node1&#45;&gt;Node22 -->
<g id="edge52_Node000001_Node000022" class="edge">
<title>Node1&#45;&gt;Node22</title>
<g id="a_edge52_Node000001_Node000022"><a xlink:title=" ">
<path fill="none" stroke="#63b8ff" d="M773.43,-357.06C768.76,-304.51 750.4,-183.17 679,-119.38 673.46,-114.42 666.85,-110.71 659.84,-107.93"/>
<polygon fill="#63b8ff" stroke="#63b8ff" points="769.95,-357.49 774.23,-367.19 776.93,-356.94 769.95,-357.49"/>
</a>
</g>
</g>
<!-- Node23 -->
<g id="Node000023" class="node">
<title>Node23</title>
<g id="a_Node000023"><a xlink:href="../../d6/de4/classlci_1_1post__send__x.html#ac787ac7cd8c9ce0a02f2e4e69715c708" target="_top" xlink:title=" ">
<polygon fill="white" stroke="#666666" points="657.5,-72.88 541.5,-72.88 541.5,-53.88 657.5,-53.88 657.5,-72.88"/>
<text text-anchor="middle" x="599.5" y="-60.88" font-family="Helvetica,sans-Serif" font-size="10.00">lci::post_send_x::tag</text>
</a>
</g>
</g>
<!-- Node1&#45;&gt;Node23 -->
<g id="edge55_Node000001_Node000023" class="edge">
<title>Node1&#45;&gt;Node23</title>
<g id="a_edge55_Node000001_Node000023"><a xlink:title=" ">
<path fill="none" stroke="#63b8ff" d="M774.76,-357.19C772.77,-299.55 759.5,-157.26 679,-82.38 672.94,-76.74 665.51,-72.69 657.65,-69.8"/>
<polygon fill="#63b8ff" stroke="#63b8ff" points="771.26,-357.33 775.01,-367.24 778.26,-357.15 771.26,-357.33"/>
</a>
</g>
</g>
<!-- Node24 -->
<g id="Node000024" class="node">
<title>Node24</title>
<g id="a_Node000024"><a xlink:href="../../d6/de4/classlci_1_1post__send__x.html#aaf2656ce27f04830a7df38e7ca71f701" target="_top" xlink:title=" ">
<polygon fill="white" stroke="#666666" points="660.5,-35.38 538.5,-35.38 538.5,-5.38 660.5,-5.38 660.5,-35.38"/>
<text text-anchor="start" x="546.5" y="-23.38" font-family="Helvetica,sans-Serif" font-size="10.00">lci::post_send_x::user</text>
<text text-anchor="middle" x="599.5" y="-12.38" font-family="Helvetica,sans-Serif" font-size="10.00">_context</text>
</a>
</g>
</g>
<!-- Node1&#45;&gt;Node24 -->
<g id="edge58_Node000001_Node000024" class="edge">
<title>Node1&#45;&gt;Node24</title>
<g id="a_edge58_Node000001_Node000024"><a xlink:title=" ">
<path fill="none" stroke="#63b8ff" d="M775.51,-356.99C775.33,-294.74 766.01,-133.14 679,-44.38 673.81,-39.08 667.49,-34.95 660.72,-31.73"/>
<polygon fill="#63b8ff" stroke="#63b8ff" points="772.01,-357.07 775.46,-367.09 779.01,-357.11 772.01,-357.07"/>
</a>
</g>
</g>
<!-- Node3 -->
<g id="Node000003" class="node">
<title>Node3</title>
<g id="a_Node000003"><a xlink:href="../../d6/de4/classlci_1_1post__send__x.html#a0328930ab332396960520f2a6d34ca07" target="_top" xlink:title=" ">
<polygon fill="white" stroke="#666666" points="303,-393.88 185,-393.88 185,-374.88 303,-374.88 303,-393.88"/>
<text text-anchor="middle" x="244" y="-381.88" font-family="Helvetica,sans-Serif" font-size="10.00">lci::post_send_x::call</text>
</a>
</g>
</g>
<!-- Node2&#45;&gt;Node3 -->
<g id="edge2_Node000002_Node000003" class="edge">
<title>Node2&#45;&gt;Node3</title>
<g id="a_edge2_Node000002_Node000003"><a xlink:title=" ">
<path fill="none" stroke="#63b8ff" d="M511.09,-772.17C454.98,-766.77 384.39,-750.65 339,-706.38 245.62,-615.29 243.69,-437.07 244.66,-393.94"/>
<polygon fill="#63b8ff" stroke="#63b8ff" points="511.12,-775.69 521.39,-773.06 511.73,-768.71 511.12,-775.69"/>
</a>
</g>
</g>
<!-- Node6 -->
<g id="Node000006" class="node">
<title>Node6</title>
<g id="a_Node000006"><a xlink:href="../../d6/de4/classlci_1_1post__send__x.html#ae5f0976df041cfa577b66ae050798f66" target="_top" xlink:title=" ">
<polygon fill="white" stroke="#666666" points="484,-412.88 339,-412.88 339,-393.88 484,-393.88 484,-412.88"/>
<text text-anchor="middle" x="411.5" y="-400.88" font-family="Helvetica,sans-Serif" font-size="10.00">lci::post_send_x::call_impl</text>
</a>
</g>
</g>
<!-- Node2&#45;&gt;Node6 -->
<g id="edge5_Node000002_Node000006" class="edge">
<title>Node2&#45;&gt;Node6</title>
<g id="a_edge5_Node000002_Node000006"><a xlink:title=" ">
<path fill="none" stroke="#63b8ff" d="M525.27,-758.71C523.42,-757.38 521.66,-755.94 520,-754.38 415.39,-655.83 411.66,-458.55 412.26,-412.94"/>
<polygon fill="#63b8ff" stroke="#63b8ff" points="523.49,-761.72 533.87,-763.84 527.08,-755.71 523.49,-761.72"/>
</a>
</g>
</g>
<!-- Node4 -->
<g id="Node000004" class="node">
<title>Node4</title>
<g id="a_Node000004"><a xlink:href="../../d6/de4/classlci_1_1post__send__x.html#a597657cbe23b62ec8e9bff89439b46fb" target="_top" xlink:title=" ">
<polygon fill="white" stroke="#666666" points="149,-412.88 0,-412.88 0,-393.88 149,-393.88 149,-412.88"/>
<text text-anchor="middle" x="74.5" y="-400.88" font-family="Helvetica,sans-Serif" font-size="10.00">lci::post_send_x::operator()</text>
</a>
</g>
</g>
<!-- Node3&#45;&gt;Node4 -->
<g id="edge3_Node000003_Node000004" class="edge">
<title>Node3&#45;&gt;Node4</title>
<g id="a_edge3_Node000003_Node000004"><a xlink:title=" ">
<path fill="none" stroke="#63b8ff" d="M174.73,-392.12C166.3,-393.08 157.66,-394.06 149.15,-395.02"/>
<polygon fill="#63b8ff" stroke="#63b8ff" points="175.34,-395.57 184.89,-390.97 174.56,-388.62 175.34,-395.57"/>
</a>
</g>
</g>
<!-- Node5 -->
<g id="Node000005" class="node">
<title>Node5</title>
<g id="a_Node000005"><a xlink:href="../../d5/dd3/namespacelci.html#aab993ec34b1f811cdbeaf425c85ea5e7" target="_top" xlink:title=" ">
<polygon fill="white" stroke="#666666" points="116,-375.88 33,-375.88 33,-356.88 116,-356.88 116,-375.88"/>
<text text-anchor="middle" x="74.5" y="-363.88" font-family="Helvetica,sans-Serif" font-size="10.00">lci::post_send</text>
</a>
</g>
</g>
<!-- Node3&#45;&gt;Node5 -->
<g id="edge4_Node000003_Node000005" class="edge">
<title>Node3&#45;&gt;Node5</title>
<g id="a_edge4_Node000003_Node000005"><a xlink:title=" ">
<path fill="none" stroke="#63b8ff" d="M174.9,-377.06C154.95,-374.91 133.77,-372.64 116.11,-370.74"/>
<polygon fill="#63b8ff" stroke="#63b8ff" points="174.57,-380.54 184.89,-378.13 175.32,-373.58 174.57,-380.54"/>
</a>
</g>
</g>
<!-- Node6&#45;&gt;Node3 -->
<g id="edge6_Node000006_Node000003" class="edge">
<title>Node6&#45;&gt;Node3</title>
<g id="a_edge6_Node000006_Node000003"><a xlink:title=" ">
<path fill="none" stroke="#63b8ff" d="M328.72,-393.99C320.05,-392.99 311.36,-391.99 303.04,-391.04"/>
<polygon fill="#63b8ff" stroke="#63b8ff" points="328.54,-397.49 338.87,-395.15 329.34,-390.53 328.54,-397.49"/>
</a>
</g>
</g>
<!-- Node7&#45;&gt;Node3 -->
<g id="edge8_Node000007_Node000003" class="edge">
<title>Node7&#45;&gt;Node3</title>
<g id="a_edge8_Node000007_Node000003"><a xlink:title=" ">
<path fill="none" stroke="#63b8ff" d="M525.68,-729.37C468.13,-724.74 389.37,-709.34 339,-662.38 256.47,-585.41 246.38,-433.51 245.16,-393.97"/>
<polygon fill="#63b8ff" stroke="#63b8ff" points="525.58,-732.87 535.8,-730.09 526.08,-725.89 525.58,-732.87"/>
</a>
</g>
</g>
<!-- Node7&#45;&gt;Node6 -->
<g id="edge9_Node000007_Node000006" class="edge">
<title>Node7&#45;&gt;Node6</title>
<g id="a_edge9_Node000007_Node000006"><a xlink:title=" ">
<path fill="none" stroke="#63b8ff" d="M527,-712.09C524.52,-710.35 522.17,-708.45 520,-706.38 430.06,-620.33 415.24,-454.27 412.91,-412.89"/>
<polygon fill="#63b8ff" stroke="#63b8ff" points="525.49,-715.26 535.87,-717.37 529.07,-709.25 525.49,-715.26"/>
</a>
</g>
</g>
<!-- Node8&#45;&gt;Node3 -->
<g id="edge11_Node000008_Node000003" class="edge">
<title>Node8&#45;&gt;Node3</title>
<g id="a_edge11_Node000008_Node000003"><a xlink:title=" ">
<path fill="none" stroke="#63b8ff" d="M525.9,-682.15C468.84,-678.24 390.63,-664.14 339,-619.38 266.62,-556.63 249.35,-430.34 245.81,-394.22"/>
<polygon fill="#63b8ff" stroke="#63b8ff" points="525.75,-685.65 535.94,-682.75 526.16,-678.66 525.75,-685.65"/>
</a>
</g>
</g>
<!-- Node8&#45;&gt;Node6 -->
<g id="edge12_Node000008_Node000006" class="edge">
<title>Node8&#45;&gt;Node6</title>
<g id="a_edge12_Node000008_Node000006"><a xlink:title=" ">
<path fill="none" stroke="#63b8ff" d="M526.98,-663.81C524.52,-662.15 522.18,-660.35 520,-658.38 441.54,-587.55 418.54,-450.13 413.62,-412.88"/>
<polygon fill="#63b8ff" stroke="#63b8ff" points="525.33,-666.9 535.74,-668.9 528.85,-660.85 525.33,-666.9"/>
</a>
</g>
</g>
<!-- Node9&#45;&gt;Node3 -->
<g id="edge14_Node000009_Node000003" class="edge">
<title>Node9&#45;&gt;Node3</title>
<g id="a_edge14_Node000009_Node000003"><a xlink:title=" ">
<path fill="none" stroke="#63b8ff" d="M522.04,-638.06C465.93,-633.38 390.79,-618.92 339,-577.38 276.78,-527.47 252.9,-426.13 246.74,-394.23"/>
<polygon fill="#63b8ff" stroke="#63b8ff" points="522.05,-641.57 532.29,-638.82 522.58,-634.59 522.05,-641.57"/>
</a>
</g>
</g>
<!-- Node9&#45;&gt;Node6 -->
<g id="edge15_Node000009_Node000006" class="edge">
<title>Node9&#45;&gt;Node6</title>
<g id="a_edge15_Node000009_Node000006"><a xlink:title=" ">
<path fill="none" stroke="#63b8ff" d="M526.93,-625.16C524.5,-623.71 522.18,-622.12 520,-620.38 448.73,-563.42 421.04,-447.1 414.26,-412.98"/>
<polygon fill="#63b8ff" stroke="#63b8ff" points="525.57,-628.39 536.08,-629.79 528.74,-622.15 525.57,-628.39"/>
</a>
</g>
</g>
<!-- Node10&#45;&gt;Node3 -->
<g id="edge17_Node000010_Node000003" class="edge">
<title>Node10&#45;&gt;Node3</title>
<g id="a_edge17_Node000010_Node000003"><a xlink:title=" ">
<path fill="none" stroke="#63b8ff" d="M525.12,-595.09C469.43,-590.77 393.42,-577.33 339,-538.38 285.77,-500.27 256.8,-421.74 247.96,-394.19"/>
<polygon fill="#63b8ff" stroke="#63b8ff" points="525.05,-598.6 535.27,-595.8 525.54,-591.61 525.05,-598.6"/>
</a>
</g>
</g>
<!-- Node10&#45;&gt;Node6 -->
<g id="edge18_Node000010_Node000006" class="edge">
<title>Node10&#45;&gt;Node6</title>
<g id="a_edge18_Node000010_Node000006"><a xlink:title=" ">
<path fill="none" stroke="#63b8ff" d="M526.38,-576.73C524.17,-575.37 522.03,-573.92 520,-572.38 461.61,-527.94 426.44,-441.95 415.88,-413.09"/>
<polygon fill="#63b8ff" stroke="#63b8ff" points="524.77,-579.84 535.23,-581.51 528.1,-573.68 524.77,-579.84"/>
</a>
</g>
</g>
<!-- Node11&#45;&gt;Node3 -->
<g id="edge20_Node000011_Node000003" class="edge">
<title>Node11&#45;&gt;Node3</title>
<g id="a_edge20_Node000011_Node000003"><a xlink:title=" ">
<path fill="none" stroke="#63b8ff" d="M522.66,-552.15C468.07,-548.16 394.57,-536.15 339,-502.38 293.56,-474.76 261.08,-416.74 249.58,-393.9"/>
<polygon fill="#63b8ff" stroke="#63b8ff" points="522.76,-555.67 532.97,-552.83 523.22,-548.68 522.76,-555.67"/>
</a>
</g>
</g>
<!-- Node11&#45;&gt;Node6 -->
<g id="edge21_Node000011_Node000006" class="edge">
<title>Node11&#45;&gt;Node6</title>
<g id="a_edge21_Node000011_Node000006"><a xlink:title=" ">
<path fill="none" stroke="#63b8ff" d="M528.3,-539.87C525.43,-538.52 522.65,-537.02 520,-535.38 468.55,-503.38 430.57,-437.98 417.47,-413.2"/>
<polygon fill="#63b8ff" stroke="#63b8ff" points="527.14,-543.18 537.72,-543.77 529.81,-536.71 527.14,-543.18"/>
</a>
</g>
</g>
<!-- Node12&#45;&gt;Node3 -->
<g id="edge23_Node000012_Node000003" class="edge">
<title>Node12&#45;&gt;Node3</title>
<g id="a_edge23_Node000012_Node000003"><a xlink:title=" ">
<path fill="none" stroke="#63b8ff" d="M517.76,-512.71C464.67,-507.65 394.94,-495.82 339,-468.38 301.27,-449.87 267.26,-411.87 252.61,-394.03"/>
<polygon fill="#63b8ff" stroke="#63b8ff" points="517.53,-516.21 527.81,-513.61 518.16,-509.23 517.53,-516.21"/>
</a>
</g>
</g>
<!-- Node12&#45;&gt;Node6 -->
<g id="edge24_Node000012_Node000006" class="edge">
<title>Node12&#45;&gt;Node6</title>
<g id="a_edge24_Node000012_Node000006"><a xlink:title=" ">
<path fill="none" stroke="#63b8ff" d="M534.38,-503.63C529.41,-501.81 524.55,-499.73 520,-497.38 477.07,-475.14 437.17,-432.24 420.59,-413.06"/>
<polygon fill="#63b8ff" stroke="#63b8ff" points="533.46,-507.01 544.05,-506.82 535.66,-500.36 533.46,-507.01"/>
</a>
</g>
</g>
<!-- Node13&#45;&gt;Node3 -->
<g id="edge26_Node000013_Node000003" class="edge">
<title>Node13&#45;&gt;Node3</title>
<g id="a_edge26_Node000013_Node000003"><a xlink:title=" ">
<path fill="none" stroke="#63b8ff" d="M526.81,-472.59C473.66,-470.1 400.14,-462.58 339,-441.38 306.9,-430.24 274,-407.03 256.92,-393.93"/>
<polygon fill="#63b8ff" stroke="#63b8ff" points="526.69,-476.08 536.82,-473.01 526.98,-469.09 526.69,-476.08"/>
</a>
</g>
</g>
<!-- Node13&#45;&gt;Node6 -->
<g id="edge27_Node000013_Node000006" class="edge">
<title>Node13&#45;&gt;Node6</title>
<g id="a_edge27_Node000013_Node000006"><a xlink:title=" ">
<path fill="none" stroke="#63b8ff" d="M536.74,-455.18C531.05,-453.3 525.4,-451.35 520,-449.38 489.3,-438.15 454.7,-422.85 433.24,-413.04"/>
<polygon fill="#63b8ff" stroke="#63b8ff" points="535.71,-458.53 546.3,-458.28 537.86,-451.87 535.71,-458.53"/>
</a>
</g>
</g>
<!-- Node14&#45;&gt;Node3 -->
<g id="edge29_Node000014_Node000003" class="edge">
<title>Node14&#45;&gt;Node3</title>
<g id="a_edge29_Node000014_Node000003"><a xlink:title=" ">
<path fill="none" stroke="#63b8ff" d="M527.05,-431.62C474.5,-434.5 401.64,-434.93 339,-422.38 311.21,-416.8 281.2,-403.21 262.75,-393.89"/>
<polygon fill="#63b8ff" stroke="#63b8ff" points="527.5,-435.09 537.27,-431.01 527.08,-428.11 527.5,-435.09"/>
</a>
</g>
</g>
<!-- Node14&#45;&gt;Node6 -->
<g id="edge30_Node000014_Node000006" class="edge">
<title>Node14&#45;&gt;Node6</title>
<g id="a_edge30_Node000014_Node000006"><a xlink:title=" ">
<path fill="none" stroke="#63b8ff" d="M527.18,-416.94C513.04,-415.27 498.19,-413.51 484.03,-411.84"/>
<polygon fill="#63b8ff" stroke="#63b8ff" points="527,-420.44 537.34,-418.14 527.82,-413.49 527,-420.44"/>
</a>
</g>
</g>
<!-- Node15&#45;&gt;Node3 -->
<g id="edge32_Node000015_Node000003" class="edge">
<title>Node15&#45;&gt;Node3</title>
<g id="a_edge32_Node000015_Node000003"><a xlink:title=" ">
<path fill="none" stroke="#63b8ff" d="M511.14,-382.87C446.28,-383.24 359.62,-383.73 303.07,-384.05"/>
<polygon fill="#63b8ff" stroke="#63b8ff" points="511.38,-386.37 521.36,-382.81 511.34,-379.37 511.38,-386.37"/>
</a>
</g>
</g>
<!-- Node15&#45;&gt;Node6 -->
<g id="edge33_Node000015_Node000006" class="edge">
<title>Node15&#45;&gt;Node6</title>
<g id="a_edge33_Node000015_Node000006"><a xlink:title=" ">
<path fill="none" stroke="#63b8ff" d="M511.1,-392.24C502.08,-393.26 492.99,-394.29 484.16,-395.28"/>
<polygon fill="#63b8ff" stroke="#63b8ff" points="511.69,-395.7 521.24,-391.1 510.91,-388.74 511.69,-395.7"/>
</a>
</g>
</g>
<!-- Node16&#45;&gt;Node3 -->
<g id="edge35_Node000016_Node000003" class="edge">
<title>Node16&#45;&gt;Node3</title>
<g id="a_edge35_Node000016_Node000003"><a xlink:title=" ">
<path fill="none" stroke="#63b8ff" d="M515.85,-349.9C450.61,-358.2 361.2,-369.58 303.27,-376.96"/>
<polygon fill="#63b8ff" stroke="#63b8ff" points="516.63,-353.33 526.11,-348.59 515.75,-346.38 516.63,-353.33"/>
</a>
</g>
</g>
<!-- Node16&#45;&gt;Node6 -->
<g id="edge36_Node000016_Node000006" class="edge">
<title>Node16&#45;&gt;Node6</title>
<g id="a_edge36_Node000016_Node000006"><a xlink:title=" ">
<path fill="none" stroke="#63b8ff" d="M540.27,-357.63C533.43,-359.87 526.55,-362.15 520,-364.38 491.81,-373.97 459.75,-385.71 438.03,-393.79"/>
<polygon fill="#63b8ff" stroke="#63b8ff" points="541.81,-360.82 550.24,-354.41 539.65,-354.16 541.81,-360.82"/>
</a>
</g>
</g>
<!-- Node17&#45;&gt;Node3 -->
<g id="edge38_Node000017_Node000003" class="edge">
<title>Node17&#45;&gt;Node3</title>
<g id="a_edge38_Node000017_Node000003"><a xlink:title=" ">
<path fill="none" stroke="#63b8ff" d="M516.24,-307.37C464.88,-318.02 397.6,-333.19 339,-350.38 314.85,-357.46 287.9,-367.43 269.07,-374.74"/>
<polygon fill="#63b8ff" stroke="#63b8ff" points="517.2,-310.74 526.29,-305.3 515.79,-303.88 517.2,-310.74"/>
</a>
</g>
</g>
<!-- Node17&#45;&gt;Node6 -->
<g id="edge39_Node000017_Node000006" class="edge">
<title>Node17&#45;&gt;Node6</title>
<g id="a_edge39_Node000017_Node000006"><a xlink:title=" ">
<path fill="none" stroke="#63b8ff" d="M530.72,-310.21C527.03,-311.82 523.44,-313.54 520,-315.38 479.17,-337.22 439.12,-375.8 421.64,-393.72"/>
<polygon fill="#63b8ff" stroke="#63b8ff" points="532.06,-313.45 540.02,-306.46 529.44,-306.96 532.06,-313.45"/>
</a>
</g>
</g>
<!-- Node18&#45;&gt;Node3 -->
<g id="edge41_Node000018_Node000003" class="edge">
<title>Node18&#45;&gt;Node3</title>
<g id="a_edge41_Node000018_Node000003"><a xlink:title=" ">
<path fill="none" stroke="#63b8ff" d="M532.34,-256.15C478.25,-264.36 400.89,-280.43 339,-310.38 304.04,-327.29 270,-358.98 254.19,-374.83"/>
<polygon fill="#63b8ff" stroke="#63b8ff" points="533.11,-259.58 542.49,-254.66 532.09,-252.65 533.11,-259.58"/>
</a>
</g>
</g>
<!-- Node18&#45;&gt;Node6 -->
<g id="edge42_Node000018_Node000006" class="edge">
<title>Node18&#45;&gt;Node6</title>
<g id="a_edge42_Node000018_Node000006"><a xlink:title=" ">
<path fill="none" stroke="#63b8ff" d="M532.78,-260.68C528.31,-262.6 524,-264.82 520,-267.38 467.79,-300.82 430,-368.5 417.23,-393.67"/>
<polygon fill="#63b8ff" stroke="#63b8ff" points="534.02,-263.96 542.14,-257.15 531.55,-257.41 534.02,-263.96"/>
</a>
</g>
</g>
<!-- Node19&#45;&gt;Node3 -->
<g id="edge44_Node000019_Node000003" class="edge">
<title>Node19&#45;&gt;Node3</title>
<g id="a_edge44_Node000019_Node000003"><a xlink:title=" ">
<path fill="none" stroke="#63b8ff" d="M509.9,-212.39C456.87,-216.66 390.09,-228.74 339,-260.38 292.15,-289.39 260.27,-350.9 249.26,-374.7"/>
<polygon fill="#63b8ff" stroke="#63b8ff" points="510.25,-215.88 519.97,-211.66 509.75,-208.9 510.25,-215.88"/>
</a>
</g>
</g>
<!-- Node19&#45;&gt;Node6 -->
<g id="edge45_Node000019_Node000006" class="edge">
<title>Node19&#45;&gt;Node6</title>
<g id="a_edge45_Node000019_Node000006"><a xlink:title=" ">
<path fill="none" stroke="#63b8ff" d="M528.47,-225.15C525.51,-226.71 522.67,-228.44 520,-230.38 459.26,-274.31 425.4,-364.12 415.55,-393.69"/>
<polygon fill="#63b8ff" stroke="#63b8ff" points="530,-228.3 537.64,-220.97 527.09,-221.93 530,-228.3"/>
</a>
</g>
</g>
<!-- Node20&#45;&gt;Node3 -->
<g id="edge47_Node000020_Node000003" class="edge">
<title>Node20&#45;&gt;Node3</title>
<g id="a_edge47_Node000020_Node000003"><a xlink:title=" ">
<path fill="none" stroke="#63b8ff" d="M528.22,-168.05C472.19,-166.6 394.23,-172.99 339,-211.38 279.49,-252.73 254.08,-344.23 247.1,-374.47"/>
<polygon fill="#63b8ff" stroke="#63b8ff" points="528.3,-171.55 538.41,-168.4 528.54,-164.56 528.3,-171.55"/>
</a>
</g>
</g>
<!-- Node20&#45;&gt;Node6 -->
<g id="edge48_Node000020_Node000006" class="edge">
<title>Node20&#45;&gt;Node6</title>
<g id="a_edge48_Node000020_Node000006"><a xlink:title=" ">
<path fill="none" stroke="#63b8ff" d="M528.92,-187.51C525.78,-189.24 522.78,-191.18 520,-193.38 450.52,-248.14 421.76,-359.99 414.46,-393.61"/>
<polygon fill="#63b8ff" stroke="#63b8ff" points="530.54,-190.62 538.11,-183.21 527.57,-184.28 530.54,-190.62"/>
</a>
</g>
</g>
<!-- Node21&#45;&gt;Node3 -->
<g id="edge50_Node000021_Node000003" class="edge">
<title>Node21&#45;&gt;Node3</title>
<g id="a_edge50_Node000021_Node000003"><a xlink:title=" ">
<path fill="none" stroke="#63b8ff" d="M531.5,-126.82C474.79,-121.68 394.17,-123.7 339,-164.38 266.12,-218.11 249.2,-339.86 245.78,-374.82"/>
<polygon fill="#63b8ff" stroke="#63b8ff" points="531.5,-130.34 541.8,-127.86 532.2,-123.38 531.5,-130.34"/>
</a>
</g>
</g>
<!-- Node21&#45;&gt;Node6 -->
<g id="edge51_Node000021_Node000006" class="edge">
<title>Node21&#45;&gt;Node6</title>
<g id="a_edge51_Node000021_Node000006"><a xlink:title=" ">
<path fill="none" stroke="#63b8ff" d="M526.41,-151.71C524.17,-153.13 522.02,-154.68 520,-156.38 441.41,-222.42 418.56,-356.8 413.64,-393.77"/>
<polygon fill="#63b8ff" stroke="#63b8ff" points="528.3,-154.67 535.49,-146.89 525.01,-148.49 528.3,-154.67"/>
</a>
</g>
</g>
<!-- Node22&#45;&gt;Node3 -->
<g id="edge53_Node000022_Node000003" class="edge">
<title>Node22&#45;&gt;Node3</title>
<g id="a_edge53_Node000022_Node000003"><a xlink:title=" ">
<path fill="none" stroke="#63b8ff" d="M546.96,-89.16C490.04,-79.93 398.6,-74.8 339,-120.38 253.4,-185.84 245.56,-335.66 245,-374.85"/>
<polygon fill="#63b8ff" stroke="#63b8ff" points="546.37,-92.62 556.82,-90.86 547.56,-85.72 546.37,-92.62"/>
</a>
</g>
</g>
<!-- Node22&#45;&gt;Node6 -->
<g id="edge54_Node000022_Node000006" class="edge">
<title>Node22&#45;&gt;Node6</title>
<g id="a_edge54_Node000022_Node000006"><a xlink:title=" ">
<path fill="none" stroke="#63b8ff" d="M529.98,-112.35C526.41,-114.36 523.05,-116.69 520,-119.38 432.26,-196.83 415.85,-353.52 413.04,-393.78"/>
<polygon fill="#63b8ff" stroke="#63b8ff" points="531.67,-115.43 539.21,-107.99 528.67,-109.1 531.67,-115.43"/>
</a>
</g>
</g>
<!-- Node23&#45;&gt;Node3 -->
<g id="edge56_Node000023_Node000003" class="edge">
<title>Node23&#45;&gt;Node3</title>
<g id="a_edge56_Node000023_Node000003"><a xlink:title=" ">
<path fill="none" stroke="#63b8ff" d="M552.55,-51.65C496,-40.14 400,-30.52 339,-78.38 289.48,-117.22 254,-326.87 246.48,-374.67"/>
<polygon fill="#63b8ff" stroke="#63b8ff" points="552.12,-55.13 562.63,-53.8 553.59,-48.29 552.12,-55.13"/>
</a>
</g>
</g>
<!-- Node23&#45;&gt;Node6 -->
<g id="edge57_Node000023_Node000006" class="edge">
<title>Node23&#45;&gt;Node6</title>
<g id="a_edge57_Node000023_Node000006"><a xlink:title=" ">
<path fill="none" stroke="#63b8ff" d="M532.1,-73.98C527.72,-76.29 523.62,-79.05 520,-82.38 423.01,-171.39 413.45,-350.4 412.57,-393.76"/>
<polygon fill="#63b8ff" stroke="#63b8ff" points="533.68,-77.11 541.41,-69.88 530.85,-70.71 533.68,-77.11"/>
</a>
</g>
</g>
<!-- Node24&#45;&gt;Node3 -->
<g id="edge59_Node000024_Node000003" class="edge">
<title>Node24&#45;&gt;Node3</title>
<g id="a_edge59_Node000024_Node000003"><a xlink:title=" ">
<path fill="none" stroke="#63b8ff" d="M528.25,-4.89C470.94,3.41 391.19,4.47 339,-38.38 284.03,-83.5 252.3,-323.73 246.12,-374.82"/>
<polygon fill="#63b8ff" stroke="#63b8ff" points="527.9,-8.38 538.32,-6.46 528.98,-1.46 527.9,-8.38"/>
</a>
</g>
</g>
<!-- Node24&#45;&gt;Node6 -->
<g id="edge60_Node000024_Node000006" class="edge">
<title>Node24&#45;&gt;Node6</title>
<g id="a_edge60_Node000024_Node000006"><a xlink:title=" ">
<path fill="none" stroke="#63b8ff" d="M529.46,-36.74C526.05,-38.97 522.86,-41.5 520,-44.38 416.56,-148.41 411.94,-347.72 412.31,-393.73"/>
<polygon fill="#63b8ff" stroke="#63b8ff" points="531.32,-39.72 538.35,-31.8 527.91,-33.6 531.32,-39.72"/>
</a>
</g>
</g>
</g>
</svg>
