<?xml version="1.0" encoding="UTF-8" standalone="no"?>
<!DOCTYPE svg PUBLIC "-//W3C//DTD SVG 1.1//EN"
 "http://www.w3.org/Graphics/SVG/1.1/DTD/svg11.dtd">
<!-- Generated by graphviz version 2.43.0 (0)
 -->
<!-- Title: lci::post_send_x::matching_policy Pages: 1 -->
<svg width="674pt" height="65pt"
 viewBox="0.00 0.00 674.00 65.00" xmlns="http://www.w3.org/2000/svg" xmlns:xlink="http://www.w3.org/1999/xlink">
<g id="graph0" class="graph" transform="scale(1 1) rotate(0) translate(4 61)">
<title>lci::post_send_x::matching_policy</title>
<!-- Node1 -->
<g id="Node000001" class="node">
<title>Node1</title>
<g id="a_Node000001"><a xlink:title=" ">
<polygon fill="#999999" stroke="#666666" points="666,-43.5 520,-43.5 520,-13.5 666,-13.5 666,-43.5"/>
<text text-anchor="start" x="528" y="-31.5" font-family="Helvetica,sans-Serif" font-size="10.00">lci::post_send_x::matching</text>
<text text-anchor="middle" x="593" y="-20.5" font-family="Helvetica,sans-Serif" font-size="10.00">_policy</text>
</a>
</g>
</g>
<!-- Node2 -->
<g id="Node000002" class="node">
<title>Node2</title>
<g id="a_Node000002"><a xlink:href="../../d6/de4/classlci_1_1post__send__x.html#a0328930ab332396960520f2a6d34ca07" target="_top" xlink:title=" ">
<polygon fill="white" stroke="#666666" points="303,-38 185,-38 185,-19 303,-19 303,-38"/>
<text text-anchor="middle" x="244" y="-26" font-family="Helvetica,sans-Serif" font-size="10.00">lci::post_send_x::call</text>
</a>
</g>
</g>
<!-- Node1&#45;&gt;Node2 -->
<g id="edge1_Node000001_Node000002" class="edge">
<title>Node1&#45;&gt;Node2</title>
<g id="a_edge1_Node000001_Node000002"><a xlink:title=" ">
<path fill="none" stroke="#63b8ff" d="M509.68,-28.5C446.09,-28.5 359.69,-28.5 303.15,-28.5"/>
<polygon fill="#63b8ff" stroke="#63b8ff" points="509.68,-32 519.68,-28.5 509.68,-25 509.68,-32"/>
</a>
</g>
</g>
<!-- Node5 -->
<g id="Node000005" class="node">
<title>Node5</title>
<g id="a_Node000005"><a xlink:href="../../d6/de4/classlci_1_1post__send__x.html#ae5f0976df041cfa577b66ae050798f66" target="_top" xlink:title=" ">
<polygon fill="white" stroke="#666666" points="484,-19 339,-19 339,0 484,0 484,-19"/>
<text text-anchor="middle" x="411.5" y="-7" font-family="Helvetica,sans-Serif" font-size="10.00">lci::post_send_x::call_impl</text>
</a>
</g>
</g>
<!-- Node1&#45;&gt;Node5 -->
<g id="edge4_Node000001_Node000005" class="edge">
<title>Node1&#45;&gt;Node5</title>
<g id="a_edge4_Node000001_Node000005"><a xlink:title=" ">
<path fill="none" stroke="#63b8ff" d="M509.74,-19.79C501.15,-18.88 492.46,-17.96 484,-17.07"/>
<polygon fill="#63b8ff" stroke="#63b8ff" points="509.45,-23.28 519.77,-20.85 510.19,-16.32 509.45,-23.28"/>
</a>
</g>
</g>
<!-- Node3 -->
<g id="Node000003" class="node">
<title>Node3</title>
<g id="a_Node000003"><a xlink:href="../../d6/de4/classlci_1_1post__send__x.html#a597657cbe23b62ec8e9bff89439b46fb" target="_top" xlink:title=" ">
<polygon fill="white" stroke="#666666" points="149,-57 0,-57 0,-38 149,-38 149,-57"/>
<text text-anchor="middle" x="74.5" y="-45" font-family="Helvetica,sans-Serif" font-size="10.00">lci::post_send_x::operator()</text>
</a>
</g>
</g>
<!-- Node2&#45;&gt;Node3 -->
<g id="edge2_Node000002_Node000003" class="edge">
<title>Node2&#45;&gt;Node3</title>
<g id="a_edge2_Node000002_Node000003"><a xlink:title=" ">
<path fill="none" stroke="#63b8ff" d="M174.73,-36.24C166.3,-37.2 157.66,-38.18 149.15,-39.15"/>
<polygon fill="#63b8ff" stroke="#63b8ff" points="175.34,-39.7 184.89,-35.09 174.56,-32.74 175.34,-39.7"/>
</a>
</g>
</g>
<!-- Node4 -->
<g id="Node000004" class="node">
<title>Node4</title>
<g id="a_Node000004"><a xlink:href="../../d5/dd3/namespacelci.html#aab993ec34b1f811cdbeaf425c85ea5e7" target="_top" xlink:title=" ">
<polygon fill="white" stroke="#666666" points="116,-20 33,-20 33,-1 116,-1 116,-20"/>
<text text-anchor="middle" x="74.5" y="-8" font-family="Helvetica,sans-Serif" font-size="10.00">lci::post_send</text>
</a>
</g>
</g>
<!-- Node2&#45;&gt;Node4 -->
<g id="edge3_Node000002_Node000004" class="edge">
<title>Node2&#45;&gt;Node4</title>
<g id="a_edge3_Node000002_Node000004"><a xlink:title=" ">
<path fill="none" stroke="#63b8ff" d="M174.9,-21.18C154.95,-19.04 133.77,-16.76 116.11,-14.86"/>
<polygon fill="#63b8ff" stroke="#63b8ff" points="174.57,-24.67 184.89,-22.25 175.32,-17.71 174.57,-24.67"/>
</a>
</g>
</g>
<!-- Node5&#45;&gt;Node2 -->
<g id="edge5_Node000005_Node000002" class="edge">
<title>Node5&#45;&gt;Node2</title>
<g id="a_edge5_Node000005_Node000002"><a xlink:title=" ">
<path fill="none" stroke="#63b8ff" d="M328.72,-18.89C320.05,-19.88 311.36,-20.88 303.04,-21.84"/>
<polygon fill="#63b8ff" stroke="#63b8ff" points="329.34,-22.34 338.87,-17.72 328.54,-15.39 329.34,-22.34"/>
</a>
</g>
</g>
</g>
</svg>
