<?xml version="1.0" encoding="UTF-8" standalone="no"?>
<!DOCTYPE svg PUBLIC "-//W3C//DTD SVG 1.1//EN"
 "http://www.w3.org/Graphics/SVG/1.1/DTD/svg11.dtd">
<!-- Generated by graphviz version 2.43.0 (0)
 -->
<!-- Title: lci::post_send_x::call_impl Pages: 1 -->
<svg width="506pt" height="786pt"
 viewBox="0.00 0.00 506.00 785.50" xmlns="http://www.w3.org/2000/svg" xmlns:xlink="http://www.w3.org/1999/xlink">
<g id="graph0" class="graph" transform="scale(1 1) rotate(0) translate(4 781.5)">
<title>lci::post_send_x::call_impl</title>
<!-- Node1 -->
<g id="Node000001" class="node">
<title>Node1</title>
<g id="a_Node000001"><a xlink:title=" ">
<polygon fill="#999999" stroke="#666666" points="145,-386.5 0,-386.5 0,-367.5 145,-367.5 145,-386.5"/>
<text text-anchor="middle" x="72.5" y="-374.5" font-family="Helvetica,sans-Serif" font-size="10.00">lci::post_send_x::call_impl</text>
</a>
</g>
</g>
<!-- Node2 -->
<g id="Node000002" class="node">
<title>Node2</title>
<g id="a_Node000002"><a xlink:href="../../d6/de4/classlci_1_1post__send__x.html#a019816cfc58183503a89bdb7af53f8d0" target="_top" xlink:title=" ">
<polygon fill="white" stroke="#666666" points="338.5,-777.5 182.5,-777.5 182.5,-758.5 338.5,-758.5 338.5,-777.5"/>
<text text-anchor="middle" x="260.5" y="-765.5" font-family="Helvetica,sans-Serif" font-size="10.00">lci::post_send_x::allow_done</text>
</a>
</g>
</g>
<!-- Node1&#45;&gt;Node2 -->
<g id="edge1_Node000001_Node000002" class="edge">
<title>Node1&#45;&gt;Node2</title>
<g id="a_edge1_Node000001_Node000002"><a xlink:title=" ">
<path fill="none" stroke="#63b8ff" d="M73.06,-386.8C71.49,-434.46 71.24,-643.95 181,-749 182.48,-750.42 184.05,-751.74 185.69,-752.96"/>
<polygon fill="#63b8ff" stroke="#63b8ff" points="184.08,-756.08 194.43,-758.34 187.75,-750.12 184.08,-756.08"/>
</a>
</g>
</g>
<!-- Node4 -->
<g id="Node000004" class="node">
<title>Node4</title>
<g id="a_Node000004"><a xlink:href="../../d6/de4/classlci_1_1post__send__x.html#a9fa9a0346810e6539fe790ec2becbb6a" target="_top" xlink:title=" ">
<polygon fill="white" stroke="#666666" points="324,-740 197,-740 197,-710 324,-710 324,-740"/>
<text text-anchor="start" x="205" y="-728" font-family="Helvetica,sans-Serif" font-size="10.00">lci::post_send_x::allow</text>
<text text-anchor="middle" x="260.5" y="-717" font-family="Helvetica,sans-Serif" font-size="10.00">_posted</text>
</a>
</g>
</g>
<!-- Node1&#45;&gt;Node4 -->
<g id="edge3_Node000001_Node000004" class="edge">
<title>Node1&#45;&gt;Node4</title>
<g id="a_edge3_Node000001_Node000004"><a xlink:title=" ">
<path fill="none" stroke="#63b8ff" d="M73.67,-386.57C74.95,-429.75 86.02,-608.25 181,-701 183.15,-703.1 185.48,-705.02 187.94,-706.77"/>
<polygon fill="#63b8ff" stroke="#63b8ff" points="186.4,-709.93 196.77,-712.1 190.02,-703.93 186.4,-709.93"/>
</a>
</g>
</g>
<!-- Node5 -->
<g id="Node000005" class="node">
<title>Node5</title>
<g id="a_Node000005"><a xlink:href="../../d6/de4/classlci_1_1post__send__x.html#a6befe5ff6cfde91858f4581fae6eb006" target="_top" xlink:title=" ">
<polygon fill="white" stroke="#666666" points="324,-692 197,-692 197,-662 324,-662 324,-692"/>
<text text-anchor="start" x="205" y="-680" font-family="Helvetica,sans-Serif" font-size="10.00">lci::post_send_x::allow</text>
<text text-anchor="middle" x="260.5" y="-669" font-family="Helvetica,sans-Serif" font-size="10.00">_retry</text>
</a>
</g>
</g>
<!-- Node1&#45;&gt;Node5 -->
<g id="edge5_Node000001_Node000005" class="edge">
<title>Node1&#45;&gt;Node5</title>
<g id="a_edge5_Node000001_Node000005"><a xlink:title=" ">
<path fill="none" stroke="#63b8ff" d="M74.31,-386.73C78.11,-426.17 97.7,-575.7 181,-653 183.15,-655 185.47,-656.83 187.91,-658.51"/>
<polygon fill="#63b8ff" stroke="#63b8ff" points="186.23,-661.58 196.62,-663.66 189.79,-655.56 186.23,-661.58"/>
</a>
</g>
</g>
<!-- Node6 -->
<g id="Node000006" class="node">
<title>Node6</title>
<g id="a_Node000006"><a xlink:href="../../d6/de4/classlci_1_1post__send__x.html#ac60a1ca22737bf2c3edfe66b8084ac6f" target="_top" xlink:title=" ">
<polygon fill="white" stroke="#666666" points="327.5,-643.5 193.5,-643.5 193.5,-624.5 327.5,-624.5 327.5,-643.5"/>
<text text-anchor="middle" x="260.5" y="-631.5" font-family="Helvetica,sans-Serif" font-size="10.00">lci::post_send_x::buffers</text>
</a>
</g>
</g>
<!-- Node1&#45;&gt;Node6 -->
<g id="edge7_Node000001_Node000006" class="edge">
<title>Node1&#45;&gt;Node6</title>
<g id="a_edge7_Node000001_Node000006"><a xlink:title=" ">
<path fill="none" stroke="#63b8ff" d="M74.8,-386.51C80.23,-422.51 104.55,-551.64 181,-615 183.03,-616.68 185.19,-618.22 187.44,-619.63"/>
<polygon fill="#63b8ff" stroke="#63b8ff" points="186.06,-622.86 196.54,-624.42 189.32,-616.66 186.06,-622.86"/>
</a>
</g>
</g>
<!-- Node7 -->
<g id="Node000007" class="node">
<title>Node7</title>
<g id="a_Node000007"><a xlink:href="../../d6/de4/classlci_1_1post__send__x.html#a981b3319667587e5c38a5b972e1f1475" target="_top" xlink:title=" ">
<polygon fill="white" stroke="#666666" points="324.5,-606 196.5,-606 196.5,-576 324.5,-576 324.5,-606"/>
<text text-anchor="start" x="204.5" y="-594" font-family="Helvetica,sans-Serif" font-size="10.00">lci::post_send_x::comp</text>
<text text-anchor="middle" x="260.5" y="-583" font-family="Helvetica,sans-Serif" font-size="10.00">_semantic</text>
</a>
</g>
</g>
<!-- Node1&#45;&gt;Node7 -->
<g id="edge9_Node000001_Node000007" class="edge">
<title>Node1&#45;&gt;Node7</title>
<g id="a_edge9_Node000001_Node000007"><a xlink:title=" ">
<path fill="none" stroke="#63b8ff" d="M76.12,-386.57C85.12,-417.57 117.75,-516.23 181,-567 183.04,-568.64 185.2,-570.17 187.43,-571.59"/>
<polygon fill="#63b8ff" stroke="#63b8ff" points="185.99,-574.79 196.43,-576.58 189.38,-568.67 185.99,-574.79"/>
</a>
</g>
</g>
<!-- Node8 -->
<g id="Node000008" class="node">
<title>Node8</title>
<g id="a_Node000008"><a xlink:href="../../d6/de4/classlci_1_1post__send__x.html#af83844d6f633050ce6fa86b54059d9ab" target="_top" xlink:title=" ">
<polygon fill="white" stroke="#666666" points="327,-557.5 194,-557.5 194,-538.5 327,-538.5 327,-557.5"/>
<text text-anchor="middle" x="260.5" y="-545.5" font-family="Helvetica,sans-Serif" font-size="10.00">lci::post_send_x::device</text>
</a>
</g>
</g>
<!-- Node1&#45;&gt;Node8 -->
<g id="edge11_Node000001_Node000008" class="edge">
<title>Node1&#45;&gt;Node8</title>
<g id="a_edge11_Node000001_Node000008"><a xlink:title=" ">
<path fill="none" stroke="#63b8ff" d="M77.35,-386.75C88.67,-414.12 124.69,-492.15 181,-530 183.39,-531.61 185.91,-533.08 188.52,-534.41"/>
<polygon fill="#63b8ff" stroke="#63b8ff" points="187.1,-537.61 197.66,-538.47 189.94,-531.22 187.1,-537.61"/>
</a>
</g>
</g>
<!-- Node9 -->
<g id="Node000009" class="node">
<title>Node9</title>
<g id="a_Node000009"><a xlink:href="../../d6/de4/classlci_1_1post__send__x.html#a1725404618abbfc3bcf3007ff17aea58" target="_top" xlink:title=" ">
<polygon fill="white" stroke="#666666" points="332,-520.5 189,-520.5 189,-501.5 332,-501.5 332,-520.5"/>
<text text-anchor="middle" x="260.5" y="-508.5" font-family="Helvetica,sans-Serif" font-size="10.00">lci::post_send_x::endpoint</text>
</a>
</g>
</g>
<!-- Node1&#45;&gt;Node9 -->
<g id="edge13_Node000001_Node000009" class="edge">
<title>Node1&#45;&gt;Node9</title>
<g id="a_edge13_Node000001_Node000009"><a xlink:title=" ">
<path fill="none" stroke="#63b8ff" d="M79.68,-386.81C94.34,-409.21 133.56,-464.31 181,-492 184.85,-494.25 188.96,-496.23 193.19,-497.98"/>
<polygon fill="#63b8ff" stroke="#63b8ff" points="192.04,-501.28 202.63,-501.44 194.45,-494.71 192.04,-501.28"/>
</a>
</g>
</g>
<!-- Node10 -->
<g id="Node000010" class="node">
<title>Node10</title>
<g id="a_Node000010"><a xlink:href="../../d6/de4/classlci_1_1post__send__x.html#a7b6fcb7c161018b81683ead41d447c5d" target="_top" xlink:title=" ">
<polygon fill="white" stroke="#666666" points="323,-483 198,-483 198,-453 323,-453 323,-483"/>
<text text-anchor="start" x="206" y="-471" font-family="Helvetica,sans-Serif" font-size="10.00">lci::post_send_x::force</text>
<text text-anchor="middle" x="260.5" y="-460" font-family="Helvetica,sans-Serif" font-size="10.00">_zcopy</text>
</a>
</g>
</g>
<!-- Node1&#45;&gt;Node10 -->
<g id="edge15_Node000001_Node000010" class="edge">
<title>Node1&#45;&gt;Node10</title>
<g id="a_edge15_Node000001_Node000010"><a xlink:title=" ">
<path fill="none" stroke="#63b8ff" d="M86.45,-386.64C106.03,-400.85 144.77,-427.51 181,-444 185.31,-445.96 189.83,-447.82 194.42,-449.57"/>
<polygon fill="#63b8ff" stroke="#63b8ff" points="193.33,-452.89 203.93,-453 195.71,-446.31 193.33,-452.89"/>
</a>
</g>
</g>
<!-- Node11 -->
<g id="Node000011" class="node">
<title>Node11</title>
<g id="a_Node000011"><a xlink:href="../../d6/de4/classlci_1_1post__send__x.html#a3e8715f3060364c226ef73de62f25e3f" target="_top" xlink:title=" ">
<polygon fill="white" stroke="#666666" points="322.5,-435 198.5,-435 198.5,-405 322.5,-405 322.5,-435"/>
<text text-anchor="start" x="206.5" y="-423" font-family="Helvetica,sans-Serif" font-size="10.00">lci::post_send_x::local</text>
<text text-anchor="middle" x="260.5" y="-412" font-family="Helvetica,sans-Serif" font-size="10.00">_buffer</text>
</a>
</g>
</g>
<!-- Node1&#45;&gt;Node11 -->
<g id="edge17_Node000001_Node000011" class="edge">
<title>Node1&#45;&gt;Node11</title>
<g id="a_edge17_Node000001_Node000011"><a xlink:title=" ">
<path fill="none" stroke="#63b8ff" d="M114.78,-386.54C136.42,-391.55 163.53,-397.81 188.42,-403.57"/>
<polygon fill="#63b8ff" stroke="#63b8ff" points="187.67,-406.99 198.2,-405.83 189.24,-400.17 187.67,-406.99"/>
</a>
</g>
</g>
<!-- Node12 -->
<g id="Node000012" class="node">
<title>Node12</title>
<g id="a_Node000012"><a xlink:href="../../d6/de4/classlci_1_1post__send__x.html#a0199101f52023dc7c9573175c621e82e" target="_top" xlink:title=" ">
<polygon fill="white" stroke="#666666" points="338.5,-386.5 182.5,-386.5 182.5,-367.5 338.5,-367.5 338.5,-386.5"/>
<text text-anchor="middle" x="260.5" y="-374.5" font-family="Helvetica,sans-Serif" font-size="10.00">lci::post_send_x::local_comp</text>
</a>
</g>
</g>
<!-- Node1&#45;&gt;Node12 -->
<g id="edge19_Node000001_Node000012" class="edge">
<title>Node1&#45;&gt;Node12</title>
<g id="a_edge19_Node000001_Node000012"><a xlink:title=" ">
<path fill="none" stroke="#63b8ff" d="M145.15,-377C153.99,-377 163.12,-377 172.16,-377"/>
<polygon fill="#63b8ff" stroke="#63b8ff" points="172.33,-380.5 182.33,-377 172.33,-373.5 172.33,-380.5"/>
</a>
</g>
</g>
<!-- Node13 -->
<g id="Node000013" class="node">
<title>Node13</title>
<g id="a_Node000013"><a xlink:href="../../d6/de4/classlci_1_1post__send__x.html#a7b8658ea0241beb8090cd0a2b2296ca6" target="_top" xlink:title=" ">
<polygon fill="white" stroke="#666666" points="333.5,-349 187.5,-349 187.5,-319 333.5,-319 333.5,-349"/>
<text text-anchor="start" x="195.5" y="-337" font-family="Helvetica,sans-Serif" font-size="10.00">lci::post_send_x::matching</text>
<text text-anchor="middle" x="260.5" y="-326" font-family="Helvetica,sans-Serif" font-size="10.00">_engine</text>
</a>
</g>
</g>
<!-- Node1&#45;&gt;Node13 -->
<g id="edge21_Node000001_Node000013" class="edge">
<title>Node1&#45;&gt;Node13</title>
<g id="a_edge21_Node000001_Node000013"><a xlink:title=" ">
<path fill="none" stroke="#63b8ff" d="M114.78,-367.46C135.38,-362.69 160.94,-356.78 184.83,-351.26"/>
<polygon fill="#63b8ff" stroke="#63b8ff" points="185.63,-354.67 194.59,-349.01 184.06,-347.85 185.63,-354.67"/>
</a>
</g>
</g>
<!-- Node14 -->
<g id="Node000014" class="node">
<title>Node14</title>
<g id="a_Node000014"><a xlink:href="../../d6/de4/classlci_1_1post__send__x.html#ac8971b8e65a93350aaee529612687cdb" target="_top" xlink:title=" ">
<polygon fill="white" stroke="#666666" points="333.5,-301 187.5,-301 187.5,-271 333.5,-271 333.5,-301"/>
<text text-anchor="start" x="195.5" y="-289" font-family="Helvetica,sans-Serif" font-size="10.00">lci::post_send_x::matching</text>
<text text-anchor="middle" x="260.5" y="-278" font-family="Helvetica,sans-Serif" font-size="10.00">_policy</text>
</a>
</g>
</g>
<!-- Node1&#45;&gt;Node14 -->
<g id="edge23_Node000001_Node000014" class="edge">
<title>Node1&#45;&gt;Node14</title>
<g id="a_edge23_Node000001_Node000014"><a xlink:title=" ">
<path fill="none" stroke="#63b8ff" d="M86.45,-367.36C106.03,-353.15 144.77,-326.49 181,-310 185.31,-308.04 189.83,-306.18 194.42,-304.43"/>
<polygon fill="#63b8ff" stroke="#63b8ff" points="195.71,-307.69 203.93,-301 193.33,-301.11 195.71,-307.69"/>
</a>
</g>
</g>
<!-- Node15 -->
<g id="Node000015" class="node">
<title>Node15</title>
<g id="a_Node000015"><a xlink:href="../../d6/de4/classlci_1_1post__send__x.html#a2e62e9494b0b5583444ef84fa583af67" target="_top" xlink:title=" ">
<polygon fill="white" stroke="#666666" points="317.5,-252.5 203.5,-252.5 203.5,-233.5 317.5,-233.5 317.5,-252.5"/>
<text text-anchor="middle" x="260.5" y="-240.5" font-family="Helvetica,sans-Serif" font-size="10.00">lci::post_send_x::mr</text>
</a>
</g>
</g>
<!-- Node1&#45;&gt;Node15 -->
<g id="edge25_Node000001_Node000015" class="edge">
<title>Node1&#45;&gt;Node15</title>
<g id="a_edge25_Node000001_Node000015"><a xlink:title=" ">
<path fill="none" stroke="#63b8ff" d="M79.68,-367.19C94.34,-344.79 133.56,-289.69 181,-262 185.1,-259.61 189.49,-257.52 194.01,-255.69"/>
<polygon fill="#63b8ff" stroke="#63b8ff" points="195.23,-258.97 203.46,-252.29 192.86,-252.38 195.23,-258.97"/>
</a>
</g>
</g>
<!-- Node16 -->
<g id="Node000016" class="node">
<title>Node16</title>
<g id="a_Node000016"><a xlink:href="../../d6/de4/classlci_1_1post__send__x.html#af151218ec4a44e6b623a192494ac2061" target="_top" xlink:title=" ">
<polygon fill="white" stroke="#666666" points="340,-215.5 181,-215.5 181,-196.5 340,-196.5 340,-215.5"/>
<text text-anchor="middle" x="260.5" y="-203.5" font-family="Helvetica,sans-Serif" font-size="10.00">lci::post_send_x::packet_pool</text>
</a>
</g>
</g>
<!-- Node1&#45;&gt;Node16 -->
<g id="edge27_Node000001_Node000016" class="edge">
<title>Node1&#45;&gt;Node16</title>
<g id="a_edge27_Node000001_Node000016"><a xlink:title=" ">
<path fill="none" stroke="#63b8ff" d="M77.39,-367.35C88.83,-340.24 125.11,-262.94 181,-225 183.93,-223.01 187.05,-221.23 190.29,-219.63"/>
<polygon fill="#63b8ff" stroke="#63b8ff" points="191.86,-222.76 199.68,-215.61 189.11,-216.33 191.86,-222.76"/>
</a>
</g>
</g>
<!-- Node17 -->
<g id="Node000017" class="node">
<title>Node17</title>
<g id="a_Node000017"><a xlink:href="../../d6/de4/classlci_1_1post__send__x.html#a5bb620bb23efa9ecd9bb5ccc414d0faa" target="_top" xlink:title=" ">
<polygon fill="white" stroke="#666666" points="321.5,-178.5 199.5,-178.5 199.5,-159.5 321.5,-159.5 321.5,-178.5"/>
<text text-anchor="middle" x="260.5" y="-166.5" font-family="Helvetica,sans-Serif" font-size="10.00">lci::post_send_x::rank</text>
</a>
</g>
</g>
<!-- Node1&#45;&gt;Node17 -->
<g id="edge29_Node000001_Node000017" class="edge">
<title>Node1&#45;&gt;Node17</title>
<g id="a_edge29_Node000001_Node000017"><a xlink:title=" ">
<path fill="none" stroke="#63b8ff" d="M76.02,-367.33C84.71,-336.02 116.47,-236.6 181,-188 183.83,-185.87 186.87,-183.97 190.04,-182.29"/>
<polygon fill="#63b8ff" stroke="#63b8ff" points="191.64,-185.4 199.29,-178.07 188.74,-179.03 191.64,-185.4"/>
</a>
</g>
</g>
<!-- Node18 -->
<g id="Node000018" class="node">
<title>Node18</title>
<g id="a_Node000018"><a xlink:href="../../d6/de4/classlci_1_1post__send__x.html#a62b983582fc79337c41ce970921d8234" target="_top" xlink:title=" ">
<polygon fill="white" stroke="#666666" points="330,-141.5 191,-141.5 191,-122.5 330,-122.5 330,-141.5"/>
<text text-anchor="middle" x="260.5" y="-129.5" font-family="Helvetica,sans-Serif" font-size="10.00">lci::post_send_x::runtime</text>
</a>
</g>
</g>
<!-- Node1&#45;&gt;Node18 -->
<g id="edge31_Node000001_Node000018" class="edge">
<title>Node1&#45;&gt;Node18</title>
<g id="a_edge31_Node000001_Node000018"><a xlink:title=" ">
<path fill="none" stroke="#63b8ff" d="M75.04,-367.49C81.22,-332.61 107.48,-210.72 181,-151 183.1,-149.3 185.32,-147.75 187.64,-146.33"/>
<polygon fill="#63b8ff" stroke="#63b8ff" points="189.72,-149.19 197.01,-141.51 186.52,-142.97 189.72,-149.19"/>
</a>
</g>
</g>
<!-- Node19 -->
<g id="Node000019" class="node">
<title>Node19</title>
<g id="a_Node000019"><a xlink:href="../../d6/de4/classlci_1_1post__send__x.html#a442c9810cbc06c288134a7b38b5796a5" target="_top" xlink:title=" ">
<polygon fill="white" stroke="#666666" points="320.5,-104.5 200.5,-104.5 200.5,-85.5 320.5,-85.5 320.5,-104.5"/>
<text text-anchor="middle" x="260.5" y="-92.5" font-family="Helvetica,sans-Serif" font-size="10.00">lci::post_send_x::size</text>
</a>
</g>
</g>
<!-- Node1&#45;&gt;Node19 -->
<g id="edge33_Node000001_Node000019" class="edge">
<title>Node1&#45;&gt;Node19</title>
<g id="a_edge33_Node000001_Node000019"><a xlink:title=" ">
<path fill="none" stroke="#63b8ff" d="M74.37,-367.32C78.37,-328.78 98.53,-184.91 181,-114 184.08,-111.35 187.47,-109.06 191.06,-107.07"/>
<polygon fill="#63b8ff" stroke="#63b8ff" points="192.75,-110.15 200.33,-102.75 189.79,-103.81 192.75,-110.15"/>
</a>
</g>
</g>
<!-- Node20 -->
<g id="Node000020" class="node">
<title>Node20</title>
<g id="a_Node000020"><a xlink:href="../../d6/de4/classlci_1_1post__send__x.html#ac787ac7cd8c9ce0a02f2e4e69715c708" target="_top" xlink:title=" ">
<polygon fill="white" stroke="#666666" points="318.5,-67.5 202.5,-67.5 202.5,-48.5 318.5,-48.5 318.5,-67.5"/>
<text text-anchor="middle" x="260.5" y="-55.5" font-family="Helvetica,sans-Serif" font-size="10.00">lci::post_send_x::tag</text>
</a>
</g>
</g>
<!-- Node1&#45;&gt;Node20 -->
<g id="edge35_Node000001_Node000020" class="edge">
<title>Node1&#45;&gt;Node20</title>
<g id="a_edge35_Node000001_Node000020"><a xlink:title=" ">
<path fill="none" stroke="#63b8ff" d="M73.82,-367.44C75.77,-325.9 89.23,-159.47 181,-77 184.59,-73.77 188.64,-71.07 192.95,-68.81"/>
<polygon fill="#63b8ff" stroke="#63b8ff" points="194.38,-72 202.12,-64.76 191.56,-65.6 194.38,-72"/>
</a>
</g>
</g>
<!-- Node21 -->
<g id="Node000021" class="node">
<title>Node21</title>
<g id="a_Node000021"><a xlink:href="../../d6/de4/classlci_1_1post__send__x.html#aaf2656ce27f04830a7df38e7ca71f701" target="_top" xlink:title=" ">
<polygon fill="white" stroke="#666666" points="321.5,-30 199.5,-30 199.5,0 321.5,0 321.5,-30"/>
<text text-anchor="start" x="207.5" y="-18" font-family="Helvetica,sans-Serif" font-size="10.00">lci::post_send_x::user</text>
<text text-anchor="middle" x="260.5" y="-7" font-family="Helvetica,sans-Serif" font-size="10.00">_context</text>
</a>
</g>
</g>
<!-- Node1&#45;&gt;Node21 -->
<g id="edge37_Node000001_Node000021" class="edge">
<title>Node1&#45;&gt;Node21</title>
<g id="a_edge37_Node000001_Node000021"><a xlink:title=" ">
<path fill="none" stroke="#63b8ff" d="M73.55,-367.38C74.33,-323.15 83.49,-137.47 181,-40 183.88,-37.12 187.08,-34.58 190.51,-32.33"/>
<polygon fill="#63b8ff" stroke="#63b8ff" points="192.43,-35.26 199.42,-27.31 188.99,-29.17 192.43,-35.26"/>
</a>
</g>
</g>
<!-- Node3 -->
<g id="Node000003" class="node">
<title>Node3</title>
<g id="a_Node000003"><a xlink:href="../../d6/de4/classlci_1_1post__send__x.html#a4cbc2854edcef90b2464f247d68225b5" target="_top" xlink:title=" ">
<polygon fill="white" stroke="#666666" points="498,-392 376,-392 376,-362 498,-362 498,-392"/>
<text text-anchor="start" x="384" y="-380" font-family="Helvetica,sans-Serif" font-size="10.00">lci::post_send_x::post</text>
<text text-anchor="middle" x="437" y="-369" font-family="Helvetica,sans-Serif" font-size="10.00">_send_x</text>
</a>
</g>
</g>
<!-- Node2&#45;&gt;Node3 -->
<g id="edge2_Node000002_Node000003" class="edge">
<title>Node2&#45;&gt;Node3</title>
<g id="a_edge2_Node000002_Node000003"><a xlink:title=" ">
<path fill="none" stroke="#63b8ff" d="M326.69,-758.46C331.57,-755.95 336.1,-752.84 340,-749 390.27,-699.48 423.02,-477.68 432.87,-402.23"/>
<polygon fill="#63b8ff" stroke="#63b8ff" points="436.36,-402.56 434.16,-392.19 429.42,-401.67 436.36,-402.56"/>
</a>
</g>
</g>
<!-- Node4&#45;&gt;Node3 -->
<g id="edge4_Node000004_Node000003" class="edge">
<title>Node4&#45;&gt;Node3</title>
<g id="a_edge4_Node000004_Node000003"><a xlink:title=" ">
<path fill="none" stroke="#63b8ff" d="M324.37,-712.25C330.13,-709.25 335.48,-705.55 340,-701 423.79,-616.48 435.07,-462.44 436.14,-402.15"/>
<polygon fill="#63b8ff" stroke="#63b8ff" points="439.64,-402.05 436.24,-392.02 432.64,-401.99 439.64,-402.05"/>
</a>
</g>
</g>
<!-- Node5&#45;&gt;Node3 -->
<g id="edge6_Node000005_Node000003" class="edge">
<title>Node5&#45;&gt;Node3</title>
<g id="a_edge6_Node000005_Node000003"><a xlink:title=" ">
<path fill="none" stroke="#63b8ff" d="M324.16,-664.03C329.96,-661.07 335.38,-657.45 340,-653 412.49,-583.22 430.28,-455.9 434.62,-402.08"/>
<polygon fill="#63b8ff" stroke="#63b8ff" points="438.11,-402.27 435.33,-392.05 431.13,-401.77 438.11,-402.27"/>
</a>
</g>
</g>
<!-- Node6&#45;&gt;Node3 -->
<g id="edge8_Node000006_Node000003" class="edge">
<title>Node6&#45;&gt;Node3</title>
<g id="a_edge8_Node000006_Node000003"><a xlink:title=" ">
<path fill="none" stroke="#63b8ff" d="M325.01,-624.44C330.44,-621.95 335.54,-618.85 340,-615 405.36,-558.55 426.78,-451.13 433.33,-402.3"/>
<polygon fill="#63b8ff" stroke="#63b8ff" points="436.81,-402.62 434.57,-392.27 429.87,-401.76 436.81,-402.62"/>
</a>
</g>
</g>
<!-- Node7&#45;&gt;Node3 -->
<g id="edge10_Node000007_Node000003" class="edge">
<title>Node7&#45;&gt;Node3</title>
<g id="a_edge10_Node000007_Node000003"><a xlink:title=" ">
<path fill="none" stroke="#63b8ff" d="M324.76,-576.81C330.23,-574.09 335.42,-570.86 340,-567 392.55,-522.75 419.4,-442.58 430.17,-401.99"/>
<polygon fill="#63b8ff" stroke="#63b8ff" points="433.61,-402.66 432.68,-392.11 426.82,-400.94 433.61,-402.66"/>
</a>
</g>
</g>
<!-- Node8&#45;&gt;Node3 -->
<g id="edge12_Node000008_Node000003" class="edge">
<title>Node8&#45;&gt;Node3</title>
<g id="a_edge12_Node000008_Node000003"><a xlink:title=" ">
<path fill="none" stroke="#63b8ff" d="M324.32,-538.43C329.88,-536.17 335.21,-533.4 340,-530 385.4,-497.73 414.02,-436.58 427.28,-402.17"/>
<polygon fill="#63b8ff" stroke="#63b8ff" points="430.71,-403 430.91,-392.41 424.14,-400.56 430.71,-403"/>
</a>
</g>
</g>
<!-- Node9&#45;&gt;Node3 -->
<g id="edge14_Node000009_Node000003" class="edge">
<title>Node9&#45;&gt;Node3</title>
<g id="a_edge14_Node000009_Node000003"><a xlink:title=" ">
<path fill="none" stroke="#63b8ff" d="M319.8,-501.37C326.89,-498.92 333.81,-495.85 340,-492 376.75,-469.15 406.28,-427.42 422.45,-401.01"/>
<polygon fill="#63b8ff" stroke="#63b8ff" points="425.49,-402.74 427.61,-392.36 419.48,-399.16 425.49,-402.74"/>
</a>
</g>
</g>
<!-- Node10&#45;&gt;Node3 -->
<g id="edge16_Node000010_Node000003" class="edge">
<title>Node10&#45;&gt;Node3</title>
<g id="a_edge16_Node000010_Node000003"><a xlink:title=" ">
<path fill="none" stroke="#63b8ff" d="M318.49,-452.9C325.86,-450.27 333.21,-447.31 340,-444 365.36,-431.66 391.43,-413.01 409.99,-398.52"/>
<polygon fill="#63b8ff" stroke="#63b8ff" points="412.3,-401.15 417.96,-392.19 407.95,-395.67 412.3,-401.15"/>
</a>
</g>
</g>
<!-- Node11&#45;&gt;Node3 -->
<g id="edge18_Node000011_Node000003" class="edge">
<title>Node11&#45;&gt;Node3</title>
<g id="a_edge18_Node000011_Node000003"><a xlink:title=" ">
<path fill="none" stroke="#63b8ff" d="M322.53,-404.96C336.59,-401.5 351.64,-397.79 366.04,-394.24"/>
<polygon fill="#63b8ff" stroke="#63b8ff" points="367.01,-397.6 375.89,-391.81 365.34,-390.81 367.01,-397.6"/>
</a>
</g>
</g>
<!-- Node12&#45;&gt;Node3 -->
<g id="edge20_Node000012_Node000003" class="edge">
<title>Node12&#45;&gt;Node3</title>
<g id="a_edge20_Node000012_Node000003"><a xlink:title=" ">
<path fill="none" stroke="#63b8ff" d="M338.55,-377C347.63,-377 356.87,-377 365.86,-377"/>
<polygon fill="#63b8ff" stroke="#63b8ff" points="365.87,-380.5 375.87,-377 365.87,-373.5 365.87,-380.5"/>
</a>
</g>
</g>
<!-- Node13&#45;&gt;Node3 -->
<g id="edge22_Node000013_Node000003" class="edge">
<title>Node13&#45;&gt;Node3</title>
<g id="a_edge22_Node000013_Node000003"><a xlink:title=" ">
<path fill="none" stroke="#63b8ff" d="M322.53,-349.04C336.59,-352.5 351.64,-356.21 366.04,-359.76"/>
<polygon fill="#63b8ff" stroke="#63b8ff" points="365.34,-363.19 375.89,-362.19 367.01,-356.4 365.34,-363.19"/>
</a>
</g>
</g>
<!-- Node14&#45;&gt;Node3 -->
<g id="edge24_Node000014_Node000003" class="edge">
<title>Node14&#45;&gt;Node3</title>
<g id="a_edge24_Node000014_Node000003"><a xlink:title=" ">
<path fill="none" stroke="#63b8ff" d="M318.49,-301.1C325.86,-303.73 333.21,-306.69 340,-310 365.36,-322.34 391.43,-340.99 409.99,-355.48"/>
<polygon fill="#63b8ff" stroke="#63b8ff" points="407.95,-358.33 417.96,-361.81 412.3,-352.85 407.95,-358.33"/>
</a>
</g>
</g>
<!-- Node15&#45;&gt;Node3 -->
<g id="edge26_Node000015_Node000003" class="edge">
<title>Node15&#45;&gt;Node3</title>
<g id="a_edge26_Node000015_Node000003"><a xlink:title=" ">
<path fill="none" stroke="#63b8ff" d="M317.75,-251.94C325.56,-254.5 333.21,-257.78 340,-262 376.75,-284.85 406.28,-326.58 422.45,-352.99"/>
<polygon fill="#63b8ff" stroke="#63b8ff" points="419.48,-354.84 427.61,-361.64 425.49,-351.26 419.48,-354.84"/>
</a>
</g>
</g>
<!-- Node16&#45;&gt;Node3 -->
<g id="edge28_Node000016_Node000003" class="edge">
<title>Node16&#45;&gt;Node3</title>
<g id="a_edge28_Node000016_Node000003"><a xlink:title=" ">
<path fill="none" stroke="#63b8ff" d="M322.33,-215.63C328.61,-218.09 334.65,-221.16 340,-225 385.04,-257.32 413.8,-317.97 427.18,-352.07"/>
<polygon fill="#63b8ff" stroke="#63b8ff" points="424.03,-353.63 430.84,-361.74 430.57,-351.15 424.03,-353.63"/>
</a>
</g>
</g>
<!-- Node17&#45;&gt;Node3 -->
<g id="edge30_Node000017_Node000003" class="edge">
<title>Node17&#45;&gt;Node3</title>
<g id="a_edge30_Node000017_Node000003"><a xlink:title=" ">
<path fill="none" stroke="#63b8ff" d="M321.5,-177.66C328.16,-180.28 334.5,-183.65 340,-188 393.66,-230.44 420.01,-310.9 430.42,-351.79"/>
<polygon fill="#63b8ff" stroke="#63b8ff" points="427.07,-352.85 432.83,-361.74 433.88,-351.2 427.07,-352.85"/>
</a>
</g>
</g>
<!-- Node18&#45;&gt;Node3 -->
<g id="edge32_Node000018_Node000003" class="edge">
<title>Node18&#45;&gt;Node3</title>
<g id="a_edge32_Node000018_Node000003"><a xlink:title=" ">
<path fill="none" stroke="#63b8ff" d="M324.94,-141.65C330.38,-144.12 335.51,-147.19 340,-151 402.59,-204.07 425.33,-305.12 432.76,-351.98"/>
<polygon fill="#63b8ff" stroke="#63b8ff" points="429.31,-352.52 434.23,-361.9 436.23,-351.49 429.31,-352.52"/>
</a>
</g>
</g>
<!-- Node19&#45;&gt;Node3 -->
<g id="edge34_Node000019_Node000003" class="edge">
<title>Node19&#45;&gt;Node3</title>
<g id="a_edge34_Node000019_Node000003"><a xlink:title=" ">
<path fill="none" stroke="#63b8ff" d="M320.84,-102.55C327.85,-105.33 334.46,-109.05 340,-114 411.4,-177.79 429.76,-299.13 434.43,-351.69"/>
<polygon fill="#63b8ff" stroke="#63b8ff" points="430.95,-352.12 435.23,-361.81 437.93,-351.57 430.95,-352.12"/>
</a>
</g>
</g>
<!-- Node20&#45;&gt;Node3 -->
<g id="edge36_Node000020_Node000003" class="edge">
<title>Node20&#45;&gt;Node3</title>
<g id="a_edge36_Node000020_Node000003"><a xlink:title=" ">
<path fill="none" stroke="#63b8ff" d="M318.65,-64.43C326.51,-67.32 333.94,-71.37 340,-77 420.5,-151.88 433.77,-294.17 435.76,-351.81"/>
<polygon fill="#63b8ff" stroke="#63b8ff" points="432.26,-351.95 436.01,-361.86 439.26,-351.77 432.26,-351.95"/>
</a>
</g>
</g>
<!-- Node21&#45;&gt;Node3 -->
<g id="edge38_Node000021_Node000003" class="edge">
<title>Node21&#45;&gt;Node3</title>
<g id="a_edge38_Node000021_Node000003"><a xlink:title=" ">
<path fill="none" stroke="#63b8ff" d="M321.74,-27.15C328.51,-30.46 334.82,-34.66 340,-40 426.29,-128.99 436.04,-289.82 436.42,-351.75"/>
<polygon fill="#63b8ff" stroke="#63b8ff" points="432.92,-351.79 436.4,-361.8 439.92,-351.8 432.92,-351.79"/>
</a>
</g>
</g>
</g>
</svg>
