<?xml version="1.0" encoding="UTF-8" standalone="no"?>
<!DOCTYPE svg PUBLIC "-//W3C//DTD SVG 1.1//EN"
 "http://www.w3.org/Graphics/SVG/1.1/DTD/svg11.dtd">
<!-- Generated by graphviz version 2.43.0 (0)
 -->
<!-- Title: lci::get_rmr_x::operator() Pages: 1 -->
<svg width="764pt" height="64pt"
 viewBox="0.00 0.00 764.00 64.00" xmlns="http://www.w3.org/2000/svg" xmlns:xlink="http://www.w3.org/1999/xlink">
<g id="graph0" class="graph" transform="scale(1 1) rotate(0) translate(4 60)">
<title>lci::get_rmr_x::operator()</title>
<!-- Node1 -->
<g id="Node000001" class="node">
<title>Node1</title>
<g id="a_Node000001"><a xlink:title=" ">
<polygon fill="#999999" stroke="#666666" points="138,-38 0,-38 0,-19 138,-19 138,-38"/>
<text text-anchor="middle" x="69" y="-26" font-family="Helvetica,sans-Serif" font-size="10.00">lci::get_rmr_x::operator()</text>
</a>
</g>
</g>
<!-- Node2 -->
<g id="Node000002" class="node">
<title>Node2</title>
<g id="a_Node000002"><a xlink:href="../../db/dd8/classlci_1_1get__rmr__x.html#aa3359eacfeb8c416ecb9e7e7cff66b88" target="_top" xlink:title=" ">
<polygon fill="white" stroke="#666666" points="281,-38 174,-38 174,-19 281,-19 281,-38"/>
<text text-anchor="middle" x="227.5" y="-26" font-family="Helvetica,sans-Serif" font-size="10.00">lci::get_rmr_x::call</text>
</a>
</g>
</g>
<!-- Node1&#45;&gt;Node2 -->
<g id="edge1_Node000001_Node000002" class="edge">
<title>Node1&#45;&gt;Node2</title>
<g id="a_edge1_Node000001_Node000002"><a xlink:title=" ">
<path fill="none" stroke="#63b8ff" d="M138.19,-28.5C146.62,-28.5 155.21,-28.5 163.56,-28.5"/>
<polygon fill="#63b8ff" stroke="#63b8ff" points="163.6,-32 173.6,-28.5 163.6,-25 163.6,-32"/>
</a>
</g>
</g>
<!-- Node3 -->
<g id="Node000003" class="node">
<title>Node3</title>
<g id="a_Node000003"><a xlink:href="../../db/dd8/classlci_1_1get__rmr__x.html#af7dbe8ede621c7d592a988431831cee9" target="_top" xlink:title=" ">
<polygon fill="white" stroke="#666666" points="451,-38 317,-38 317,-19 451,-19 451,-38"/>
<text text-anchor="middle" x="384" y="-26" font-family="Helvetica,sans-Serif" font-size="10.00">lci::get_rmr_x::call_impl</text>
</a>
</g>
</g>
<!-- Node2&#45;&gt;Node3 -->
<g id="edge2_Node000002_Node000003" class="edge">
<title>Node2&#45;&gt;Node3</title>
<g id="a_edge2_Node000002_Node000003"><a xlink:title=" ">
<path fill="none" stroke="#63b8ff" d="M281.24,-28.5C289.47,-28.5 298.11,-28.5 306.74,-28.5"/>
<polygon fill="#63b8ff" stroke="#63b8ff" points="306.84,-32 316.84,-28.5 306.84,-25 306.84,-32"/>
</a>
</g>
</g>
<!-- Node4 -->
<g id="Node000004" class="node">
<title>Node4</title>
<g id="a_Node000004"><a xlink:href="../../db/dd8/classlci_1_1get__rmr__x.html#a68eff72c2836645b7aa833cd26911f25" target="_top" xlink:title=" ">
<polygon fill="white" stroke="#666666" points="602.5,-56 499.5,-56 499.5,-37 602.5,-37 602.5,-56"/>
<text text-anchor="middle" x="551" y="-44" font-family="Helvetica,sans-Serif" font-size="10.00">lci::get_rmr_x::mr</text>
</a>
</g>
</g>
<!-- Node2&#45;&gt;Node4 -->
<g id="edge7_Node000002_Node000004" class="edge">
<title>Node2&#45;&gt;Node4</title>
<g id="a_edge7_Node000002_Node000004"><a xlink:title=" ">
<path fill="none" stroke="#63b8ff" d="M264.39,-38.01C280.37,-41.77 299.5,-45.64 317,-47.5 375.28,-53.69 442.21,-52.55 489.34,-50.4"/>
<polygon fill="#63b8ff" stroke="#63b8ff" points="489.57,-53.89 499.39,-49.91 489.23,-46.9 489.57,-53.89"/>
</a>
</g>
</g>
<!-- Node6 -->
<g id="Node000006" class="node">
<title>Node6</title>
<g id="a_Node000006"><a xlink:href="../../db/dd8/classlci_1_1get__rmr__x.html#ad9a172033473f5ba3decadc1d5c15a24" target="_top" xlink:title=" ">
<polygon fill="white" stroke="#666666" points="615,-19 487,-19 487,0 615,0 615,-19"/>
<text text-anchor="middle" x="551" y="-7" font-family="Helvetica,sans-Serif" font-size="10.00">lci::get_rmr_x::runtime</text>
</a>
</g>
</g>
<!-- Node2&#45;&gt;Node6 -->
<g id="edge8_Node000002_Node000006" class="edge">
<title>Node2&#45;&gt;Node6</title>
<g id="a_edge8_Node000002_Node000006"><a xlink:title=" ">
<path fill="none" stroke="#63b8ff" d="M267.02,-18.95C282.45,-15.58 300.47,-12.2 317,-10.5 370.12,-5.04 430.42,-4.94 476.36,-6.13"/>
<polygon fill="#63b8ff" stroke="#63b8ff" points="476.43,-9.64 486.53,-6.42 476.63,-2.64 476.43,-9.64"/>
</a>
</g>
</g>
<!-- Node3&#45;&gt;Node4 -->
<g id="edge3_Node000003_Node000004" class="edge">
<title>Node3&#45;&gt;Node4</title>
<g id="a_edge3_Node000003_Node000004"><a xlink:title=" ">
<path fill="none" stroke="#63b8ff" d="M451.16,-35.72C463.7,-37.09 476.76,-38.51 489.13,-39.86"/>
<polygon fill="#63b8ff" stroke="#63b8ff" points="489,-43.37 499.32,-40.97 489.76,-36.41 489,-43.37"/>
</a>
</g>
</g>
<!-- Node3&#45;&gt;Node6 -->
<g id="edge5_Node000003_Node000006" class="edge">
<title>Node3&#45;&gt;Node6</title>
<g id="a_edge5_Node000003_Node000006"><a xlink:title=" ">
<path fill="none" stroke="#63b8ff" d="M451.16,-20.88C459.6,-19.91 468.28,-18.91 476.83,-17.93"/>
<polygon fill="#63b8ff" stroke="#63b8ff" points="477.24,-21.4 486.77,-16.78 476.44,-14.45 477.24,-21.4"/>
</a>
</g>
</g>
<!-- Node5 -->
<g id="Node000005" class="node">
<title>Node5</title>
<g id="a_Node000005"><a xlink:href="../../db/dd8/classlci_1_1get__rmr__x.html#a468ad08b858c98864916793410c6cb88" target="_top" xlink:title=" ">
<polygon fill="white" stroke="#666666" points="756,-42.5 651,-42.5 651,-12.5 756,-12.5 756,-42.5"/>
<text text-anchor="start" x="659" y="-30.5" font-family="Helvetica,sans-Serif" font-size="10.00">lci::get_rmr_x::get</text>
<text text-anchor="middle" x="703.5" y="-19.5" font-family="Helvetica,sans-Serif" font-size="10.00">_rmr_x</text>
</a>
</g>
</g>
<!-- Node4&#45;&gt;Node5 -->
<g id="edge4_Node000004_Node000005" class="edge">
<title>Node4&#45;&gt;Node5</title>
<g id="a_edge4_Node000004_Node000005"><a xlink:title=" ">
<path fill="none" stroke="#63b8ff" d="M602.53,-40.12C614.8,-38.57 628.05,-36.9 640.76,-35.29"/>
<polygon fill="#63b8ff" stroke="#63b8ff" points="641.33,-38.75 650.82,-34.02 640.46,-31.8 641.33,-38.75"/>
</a>
</g>
</g>
<!-- Node6&#45;&gt;Node5 -->
<g id="edge6_Node000006_Node000005" class="edge">
<title>Node6&#45;&gt;Node5</title>
<g id="a_edge6_Node000006_Node000005"><a xlink:title=" ">
<path fill="none" stroke="#63b8ff" d="M615.39,-17.08C623.73,-18.08 632.27,-19.1 640.58,-20.09"/>
<polygon fill="#63b8ff" stroke="#63b8ff" points="640.23,-23.58 650.58,-21.29 641.07,-16.63 640.23,-23.58"/>
</a>
</g>
</g>
</g>
</svg>
