<?xml version="1.0" encoding="UTF-8" standalone="no"?>
<!DOCTYPE svg PUBLIC "-//W3C//DTD SVG 1.1//EN"
 "http://www.w3.org/Graphics/SVG/1.1/DTD/svg11.dtd">
<!-- Generated by graphviz version 2.43.0 (0)
 -->
<!-- Title: lci::comp_signal_x::comp_signal_x Pages: 1 -->
<svg width="687pt" height="134pt"
 viewBox="0.00 0.00 687.00 134.00" xmlns="http://www.w3.org/2000/svg" xmlns:xlink="http://www.w3.org/1999/xlink">
<g id="graph0" class="graph" transform="scale(1 1) rotate(0) translate(4 130)">
<title>lci::comp_signal_x::comp_signal_x</title>
<!-- Node1 -->
<g id="Node000001" class="node">
<title>Node1</title>
<g id="a_Node000001"><a xlink:title=" ">
<polygon fill="#999999" stroke="#666666" points="679,-78 572,-78 572,-48 679,-48 679,-78"/>
<text text-anchor="start" x="580" y="-66" font-family="Helvetica,sans-Serif" font-size="10.00">lci::comp_signal_x</text>
<text text-anchor="middle" x="625.5" y="-55" font-family="Helvetica,sans-Serif" font-size="10.00">::comp_signal_x</text>
</a>
</g>
</g>
<!-- Node2 -->
<g id="Node000002" class="node">
<title>Node2</title>
<g id="a_Node000002"><a xlink:href="../../d7/d31/classlci_1_1comp__signal__x.html#a205cf52f14809db873b2bab0538e4edc" target="_top" xlink:title=" ">
<polygon fill="white" stroke="#666666" points="536,-126 429,-126 429,-96 536,-96 536,-126"/>
<text text-anchor="start" x="437" y="-114" font-family="Helvetica,sans-Serif" font-size="10.00">lci::comp_signal_x</text>
<text text-anchor="middle" x="482.5" y="-103" font-family="Helvetica,sans-Serif" font-size="10.00">::comp</text>
</a>
</g>
</g>
<!-- Node1&#45;&gt;Node2 -->
<g id="edge1_Node000001_Node000002" class="edge">
<title>Node1&#45;&gt;Node2</title>
<g id="a_edge1_Node000001_Node000002"><a xlink:title=" ">
<path fill="none" stroke="#63b8ff" d="M570.61,-81.35C556.39,-86.19 541.21,-91.36 527.57,-96"/>
<polygon fill="#63b8ff" stroke="#63b8ff" points="571.94,-84.59 580.27,-78.06 569.68,-77.97 571.94,-84.59"/>
</a>
</g>
</g>
<!-- Node7 -->
<g id="Node000007" class="node">
<title>Node7</title>
<g id="a_Node000007"><a xlink:href="../../d7/d31/classlci_1_1comp__signal__x.html#a1f1e3c14d7d574a35ba7a5e3d5221819" target="_top" xlink:title=" ">
<polygon fill="white" stroke="#666666" points="536,-78 429,-78 429,-48 536,-48 536,-78"/>
<text text-anchor="start" x="437" y="-66" font-family="Helvetica,sans-Serif" font-size="10.00">lci::comp_signal_x</text>
<text text-anchor="middle" x="482.5" y="-55" font-family="Helvetica,sans-Serif" font-size="10.00">::runtime</text>
</a>
</g>
</g>
<!-- Node1&#45;&gt;Node7 -->
<g id="edge7_Node000001_Node000007" class="edge">
<title>Node1&#45;&gt;Node7</title>
<g id="a_edge7_Node000001_Node000007"><a xlink:title=" ">
<path fill="none" stroke="#63b8ff" d="M561.95,-63C553.3,-63 544.49,-63 536.05,-63"/>
<polygon fill="#63b8ff" stroke="#63b8ff" points="562,-66.5 572,-63 562,-59.5 562,-66.5"/>
</a>
</g>
</g>
<!-- Node8 -->
<g id="Node000008" class="node">
<title>Node8</title>
<g id="a_Node000008"><a xlink:href="../../d7/d31/classlci_1_1comp__signal__x.html#af627829e09be2b0e9aaf7748a7521442" target="_top" xlink:title=" ">
<polygon fill="white" stroke="#666666" points="536,-30 429,-30 429,0 536,0 536,-30"/>
<text text-anchor="start" x="437" y="-18" font-family="Helvetica,sans-Serif" font-size="10.00">lci::comp_signal_x</text>
<text text-anchor="middle" x="482.5" y="-7" font-family="Helvetica,sans-Serif" font-size="10.00">::status</text>
</a>
</g>
</g>
<!-- Node1&#45;&gt;Node8 -->
<g id="edge10_Node000001_Node000008" class="edge">
<title>Node1&#45;&gt;Node8</title>
<g id="a_edge10_Node000001_Node000008"><a xlink:title=" ">
<path fill="none" stroke="#63b8ff" d="M570.61,-44.65C556.39,-39.81 541.21,-34.64 527.57,-30"/>
<polygon fill="#63b8ff" stroke="#63b8ff" points="569.68,-48.03 580.27,-47.94 571.94,-41.41 569.68,-48.03"/>
</a>
</g>
</g>
<!-- Node3 -->
<g id="Node000003" class="node">
<title>Node3</title>
<g id="a_Node000003"><a xlink:href="../../d7/d31/classlci_1_1comp__signal__x.html#a5e6109af46079c68dc07f387d1d599fd" target="_top" xlink:title=" ">
<polygon fill="white" stroke="#666666" points="250,-75 143,-75 143,-45 250,-45 250,-75"/>
<text text-anchor="start" x="151" y="-63" font-family="Helvetica,sans-Serif" font-size="10.00">lci::comp_signal_x</text>
<text text-anchor="middle" x="196.5" y="-52" font-family="Helvetica,sans-Serif" font-size="10.00">::call</text>
</a>
</g>
</g>
<!-- Node2&#45;&gt;Node3 -->
<g id="edge2_Node000002_Node000003" class="edge">
<title>Node2&#45;&gt;Node3</title>
<g id="a_edge2_Node000002_Node000003"><a xlink:title=" ">
<path fill="none" stroke="#63b8ff" d="M418.64,-116.51C379.81,-118.17 329.31,-117.17 286,-106 261.86,-99.77 236.87,-86 219.63,-75.13"/>
<polygon fill="#63b8ff" stroke="#63b8ff" points="418.94,-120 428.75,-116 418.59,-113 418.94,-120"/>
</a>
</g>
</g>
<!-- Node6 -->
<g id="Node000006" class="node">
<title>Node6</title>
<g id="a_Node000006"><a xlink:href="../../d7/d31/classlci_1_1comp__signal__x.html#a6b13735628a9f7ea4e25648a8ea6deba" target="_top" xlink:title=" ">
<polygon fill="white" stroke="#666666" points="393,-97 286,-97 286,-67 393,-67 393,-97"/>
<text text-anchor="start" x="294" y="-85" font-family="Helvetica,sans-Serif" font-size="10.00">lci::comp_signal_x</text>
<text text-anchor="middle" x="339.5" y="-74" font-family="Helvetica,sans-Serif" font-size="10.00">::call_impl</text>
</a>
</g>
</g>
<!-- Node2&#45;&gt;Node6 -->
<g id="edge5_Node000002_Node000006" class="edge">
<title>Node2&#45;&gt;Node6</title>
<g id="a_edge5_Node000002_Node000006"><a xlink:title=" ">
<path fill="none" stroke="#63b8ff" d="M418.95,-98.14C410.3,-96.36 401.49,-94.54 393.05,-92.81"/>
<polygon fill="#63b8ff" stroke="#63b8ff" points="418.5,-101.62 429,-100.2 419.91,-94.76 418.5,-101.62"/>
</a>
</g>
</g>
<!-- Node4 -->
<g id="Node000004" class="node">
<title>Node4</title>
<g id="a_Node000004"><a xlink:href="../../d5/dd3/namespacelci.html#aabbacfbf5a7b370b39df060ed62ed723" target="_top" xlink:title=" ">
<polygon fill="white" stroke="#666666" points="101,-91.5 6,-91.5 6,-72.5 101,-72.5 101,-91.5"/>
<text text-anchor="middle" x="53.5" y="-79.5" font-family="Helvetica,sans-Serif" font-size="10.00">lci::comp_signal</text>
</a>
</g>
</g>
<!-- Node3&#45;&gt;Node4 -->
<g id="edge3_Node000003_Node000004" class="edge">
<title>Node3&#45;&gt;Node4</title>
<g id="a_edge3_Node000003_Node000004"><a xlink:title=" ">
<path fill="none" stroke="#63b8ff" d="M132.84,-69.78C122.14,-71.45 111.2,-73.15 101.01,-74.74"/>
<polygon fill="#63b8ff" stroke="#63b8ff" points="133.66,-73.19 143,-68.19 132.58,-66.28 133.66,-73.19"/>
</a>
</g>
</g>
<!-- Node5 -->
<g id="Node000005" class="node">
<title>Node5</title>
<g id="a_Node000005"><a xlink:href="../../d7/d31/classlci_1_1comp__signal__x.html#abb1b6c88d156bbc0edd132d719db0113" target="_top" xlink:title=" ">
<polygon fill="white" stroke="#666666" points="107,-54 0,-54 0,-24 107,-24 107,-54"/>
<text text-anchor="start" x="8" y="-42" font-family="Helvetica,sans-Serif" font-size="10.00">lci::comp_signal_x</text>
<text text-anchor="middle" x="53.5" y="-31" font-family="Helvetica,sans-Serif" font-size="10.00">::operator()</text>
</a>
</g>
</g>
<!-- Node3&#45;&gt;Node5 -->
<g id="edge4_Node000003_Node000005" class="edge">
<title>Node3&#45;&gt;Node5</title>
<g id="a_edge4_Node000003_Node000005"><a xlink:title=" ">
<path fill="none" stroke="#63b8ff" d="M132.95,-50.68C124.3,-49.4 115.49,-48.08 107.05,-46.83"/>
<polygon fill="#63b8ff" stroke="#63b8ff" points="132.59,-54.17 143,-52.18 133.62,-47.25 132.59,-54.17"/>
</a>
</g>
</g>
<!-- Node6&#45;&gt;Node3 -->
<g id="edge6_Node000006_Node000003" class="edge">
<title>Node6&#45;&gt;Node3</title>
<g id="a_edge6_Node000006_Node000003"><a xlink:title=" ">
<path fill="none" stroke="#63b8ff" d="M275.95,-72.24C267.3,-70.89 258.49,-69.52 250.05,-68.2"/>
<polygon fill="#63b8ff" stroke="#63b8ff" points="275.58,-75.72 286,-73.81 276.66,-68.81 275.58,-75.72"/>
</a>
</g>
</g>
<!-- Node7&#45;&gt;Node3 -->
<g id="edge8_Node000007_Node000003" class="edge">
<title>Node7&#45;&gt;Node3</title>
<g id="a_edge8_Node000007_Node000003"><a xlink:title=" ">
<path fill="none" stroke="#63b8ff" d="M418.62,-59.01C410.02,-58.59 401.29,-58.23 393,-58 344.65,-56.64 289.55,-57.41 250.2,-58.36"/>
<polygon fill="#63b8ff" stroke="#63b8ff" points="418.47,-62.51 428.64,-59.52 418.83,-55.52 418.47,-62.51"/>
</a>
</g>
</g>
<!-- Node7&#45;&gt;Node6 -->
<g id="edge9_Node000007_Node000006" class="edge">
<title>Node7&#45;&gt;Node6</title>
<g id="a_edge9_Node000007_Node000006"><a xlink:title=" ">
<path fill="none" stroke="#63b8ff" d="M418.95,-71.43C410.3,-72.59 401.49,-73.78 393.05,-74.92"/>
<polygon fill="#63b8ff" stroke="#63b8ff" points="419.55,-74.88 429,-70.07 418.62,-67.94 419.55,-74.88"/>
</a>
</g>
</g>
<!-- Node8&#45;&gt;Node3 -->
<g id="edge11_Node000008_Node000003" class="edge">
<title>Node8&#45;&gt;Node3</title>
<g id="a_edge11_Node000008_Node000003"><a xlink:title=" ">
<path fill="none" stroke="#63b8ff" d="M418.61,-24.97C368.14,-32.96 298.09,-44.06 250.45,-51.61"/>
<polygon fill="#63b8ff" stroke="#63b8ff" points="419.42,-28.38 428.75,-23.36 418.32,-21.47 419.42,-28.38"/>
</a>
</g>
</g>
<!-- Node8&#45;&gt;Node6 -->
<g id="edge12_Node000008_Node000006" class="edge">
<title>Node8&#45;&gt;Node6</title>
<g id="a_edge12_Node000008_Node000006"><a xlink:title=" ">
<path fill="none" stroke="#63b8ff" d="M438.79,-34.42C435.47,-35.96 432.18,-37.5 429,-39 409.69,-48.11 388.13,-58.57 371.13,-66.9"/>
<polygon fill="#63b8ff" stroke="#63b8ff" points="440.51,-37.49 448.12,-30.12 437.57,-31.13 440.51,-37.49"/>
</a>
</g>
</g>
</g>
</svg>
