<?xml version="1.0" encoding="UTF-8" standalone="no"?>
<!DOCTYPE svg PUBLIC "-//W3C//DTD SVG 1.1//EN"
 "http://www.w3.org/Graphics/SVG/1.1/DTD/svg11.dtd">
<!-- Generated by graphviz version 2.43.0 (0)
 -->
<!-- Title: lci::comp_signal_x::comp Pages: 1 -->
<svg width="544pt" height="76pt"
 viewBox="0.00 0.00 544.00 75.50" xmlns="http://www.w3.org/2000/svg" xmlns:xlink="http://www.w3.org/1999/xlink">
<g id="graph0" class="graph" transform="scale(1 1) rotate(0) translate(4 71.5)">
<title>lci::comp_signal_x::comp</title>
<!-- Node1 -->
<g id="Node000001" class="node">
<title>Node1</title>
<g id="a_Node000001"><a xlink:title=" ">
<polygon fill="#999999" stroke="#666666" points="536,-51 429,-51 429,-21 536,-21 536,-51"/>
<text text-anchor="start" x="437" y="-39" font-family="Helvetica,sans-Serif" font-size="10.00">lci::comp_signal_x</text>
<text text-anchor="middle" x="482.5" y="-28" font-family="Helvetica,sans-Serif" font-size="10.00">::comp</text>
</a>
</g>
</g>
<!-- Node2 -->
<g id="Node000002" class="node">
<title>Node2</title>
<g id="a_Node000002"><a xlink:href="../../d7/d31/classlci_1_1comp__signal__x.html#a5e6109af46079c68dc07f387d1d599fd" target="_top" xlink:title=" ">
<polygon fill="white" stroke="#666666" points="250,-51 143,-51 143,-21 250,-21 250,-51"/>
<text text-anchor="start" x="151" y="-39" font-family="Helvetica,sans-Serif" font-size="10.00">lci::comp_signal_x</text>
<text text-anchor="middle" x="196.5" y="-28" font-family="Helvetica,sans-Serif" font-size="10.00">::call</text>
</a>
</g>
</g>
<!-- Node1&#45;&gt;Node2 -->
<g id="edge1_Node000001_Node000002" class="edge">
<title>Node1&#45;&gt;Node2</title>
<g id="a_edge1_Node000001_Node000002"><a xlink:title=" ">
<path fill="none" stroke="#63b8ff" d="M418.61,-38.39C410.01,-38.65 401.29,-38.86 393,-39 345.45,-39.81 333.55,-39.81 286,-39 274.47,-38.8 262.1,-38.47 250.37,-38.09"/>
<polygon fill="#63b8ff" stroke="#63b8ff" points="418.74,-41.89 428.63,-38.09 418.52,-34.9 418.74,-41.89"/>
</a>
</g>
</g>
<!-- Node5 -->
<g id="Node000005" class="node">
<title>Node5</title>
<g id="a_Node000005"><a xlink:href="../../d7/d31/classlci_1_1comp__signal__x.html#a6b13735628a9f7ea4e25648a8ea6deba" target="_top" xlink:title=" ">
<polygon fill="white" stroke="#666666" points="393,-30 286,-30 286,0 393,0 393,-30"/>
<text text-anchor="start" x="294" y="-18" font-family="Helvetica,sans-Serif" font-size="10.00">lci::comp_signal_x</text>
<text text-anchor="middle" x="339.5" y="-7" font-family="Helvetica,sans-Serif" font-size="10.00">::call_impl</text>
</a>
</g>
</g>
<!-- Node1&#45;&gt;Node5 -->
<g id="edge4_Node000001_Node000005" class="edge">
<title>Node1&#45;&gt;Node5</title>
<g id="a_edge4_Node000001_Node000005"><a xlink:title=" ">
<path fill="none" stroke="#63b8ff" d="M418.95,-26.68C410.3,-25.4 401.49,-24.08 393.05,-22.83"/>
<polygon fill="#63b8ff" stroke="#63b8ff" points="418.59,-30.17 429,-28.18 419.62,-23.25 418.59,-30.17"/>
</a>
</g>
</g>
<!-- Node3 -->
<g id="Node000003" class="node">
<title>Node3</title>
<g id="a_Node000003"><a xlink:href="../../d5/dd3/namespacelci.html#aabbacfbf5a7b370b39df060ed62ed723" target="_top" xlink:title=" ">
<polygon fill="white" stroke="#666666" points="101,-67.5 6,-67.5 6,-48.5 101,-48.5 101,-67.5"/>
<text text-anchor="middle" x="53.5" y="-55.5" font-family="Helvetica,sans-Serif" font-size="10.00">lci::comp_signal</text>
</a>
</g>
</g>
<!-- Node2&#45;&gt;Node3 -->
<g id="edge2_Node000002_Node000003" class="edge">
<title>Node2&#45;&gt;Node3</title>
<g id="a_edge2_Node000002_Node000003"><a xlink:title=" ">
<path fill="none" stroke="#63b8ff" d="M132.84,-45.78C122.14,-47.45 111.2,-49.15 101.01,-50.74"/>
<polygon fill="#63b8ff" stroke="#63b8ff" points="133.66,-49.19 143,-44.19 132.58,-42.28 133.66,-49.19"/>
</a>
</g>
</g>
<!-- Node4 -->
<g id="Node000004" class="node">
<title>Node4</title>
<g id="a_Node000004"><a xlink:href="../../d7/d31/classlci_1_1comp__signal__x.html#abb1b6c88d156bbc0edd132d719db0113" target="_top" xlink:title=" ">
<polygon fill="white" stroke="#666666" points="107,-30 0,-30 0,0 107,0 107,-30"/>
<text text-anchor="start" x="8" y="-18" font-family="Helvetica,sans-Serif" font-size="10.00">lci::comp_signal_x</text>
<text text-anchor="middle" x="53.5" y="-7" font-family="Helvetica,sans-Serif" font-size="10.00">::operator()</text>
</a>
</g>
</g>
<!-- Node2&#45;&gt;Node4 -->
<g id="edge3_Node000002_Node000004" class="edge">
<title>Node2&#45;&gt;Node4</title>
<g id="a_edge3_Node000002_Node000004"><a xlink:title=" ">
<path fill="none" stroke="#63b8ff" d="M132.95,-26.68C124.3,-25.4 115.49,-24.08 107.05,-22.83"/>
<polygon fill="#63b8ff" stroke="#63b8ff" points="132.59,-30.17 143,-28.18 133.62,-23.25 132.59,-30.17"/>
</a>
</g>
</g>
<!-- Node5&#45;&gt;Node2 -->
<g id="edge5_Node000005_Node000002" class="edge">
<title>Node5&#45;&gt;Node2</title>
<g id="a_edge5_Node000005_Node000002"><a xlink:title=" ">
<path fill="none" stroke="#63b8ff" d="M275.95,-24.32C267.3,-25.6 258.49,-26.92 250.05,-28.17"/>
<polygon fill="#63b8ff" stroke="#63b8ff" points="276.62,-27.75 286,-22.82 275.59,-20.83 276.62,-27.75"/>
</a>
</g>
</g>
</g>
</svg>
