<?xml version="1.0" encoding="UTF-8" standalone="no"?>
<!DOCTYPE svg PUBLIC "-//W3C//DTD SVG 1.1//EN"
 "http://www.w3.org/Graphics/SVG/1.1/DTD/svg11.dtd">
<!-- Generated by graphviz version 2.43.0 (0)
 -->
<!-- Title: lci::data_t::get_scalar Pages: 1 -->
<svg width="427pt" height="64pt"
 viewBox="0.00 0.00 427.00 64.00" xmlns="http://www.w3.org/2000/svg" xmlns:xlink="http://www.w3.org/1999/xlink">
<g id="graph0" class="graph" transform="scale(1 1) rotate(0) translate(4 60)">
<title>lci::data_t::get_scalar</title>
<!-- Node1 -->
<g id="Node000001" class="node">
<title>Node1</title>
<g id="a_Node000001"><a xlink:title="Get the scalar data from the data object.">
<polygon fill="#999999" stroke="#666666" points="121,-37 0,-37 0,-18 121,-18 121,-37"/>
<text text-anchor="middle" x="60.5" y="-25" font-family="Helvetica,sans-Serif" font-size="10.00">lci::data_t::get_scalar</text>
</a>
</g>
</g>
<!-- Node2 -->
<g id="Node000002" class="node">
<title>Node2</title>
<g id="a_Node000002"><a xlink:href="../../da/d7c/structlci_1_1data__t.html#a89f6008fe3e8892226fd826b5fd2edc3" target="_top" xlink:title=" ">
<polygon fill="white" stroke="#666666" points="270,-56 157,-56 157,-37 270,-37 270,-56"/>
<text text-anchor="middle" x="213.5" y="-44" font-family="Helvetica,sans-Serif" font-size="10.00">lci::data_t::is_buffer</text>
</a>
</g>
</g>
<!-- Node1&#45;&gt;Node2 -->
<g id="edge1_Node000001_Node000002" class="edge">
<title>Node1&#45;&gt;Node2</title>
<g id="a_edge1_Node000001_Node000002"><a xlink:title=" ">
<path fill="none" stroke="#63b8ff" d="M121.18,-35.01C129.5,-36.06 138.09,-37.14 146.52,-38.2"/>
<polygon fill="#63b8ff" stroke="#63b8ff" points="146.34,-41.7 156.7,-39.48 147.21,-34.76 146.34,-41.7"/>
</a>
</g>
</g>
<!-- Node4 -->
<g id="Node000004" class="node">
<title>Node4</title>
<g id="a_Node000004"><a xlink:href="../../da/d7c/structlci_1_1data__t.html#a99a99cad56e714c94984b867933a0822" target="_top" xlink:title=" ">
<polygon fill="white" stroke="#666666" points="270,-19 157,-19 157,0 270,0 270,-19"/>
<text text-anchor="middle" x="213.5" y="-7" font-family="Helvetica,sans-Serif" font-size="10.00">lci::data_t::is_scalar</text>
</a>
</g>
</g>
<!-- Node1&#45;&gt;Node4 -->
<g id="edge3_Node000001_Node000004" class="edge">
<title>Node1&#45;&gt;Node4</title>
<g id="a_edge3_Node000001_Node000004"><a xlink:title=" ">
<path fill="none" stroke="#63b8ff" d="M121.18,-20.39C129.5,-19.39 138.09,-18.37 146.52,-17.36"/>
<polygon fill="#63b8ff" stroke="#63b8ff" points="147.18,-20.81 156.7,-16.15 146.35,-13.86 147.18,-20.81"/>
</a>
</g>
</g>
<!-- Node3 -->
<g id="Node000003" class="node">
<title>Node3</title>
<g id="a_Node000003"><a xlink:href="../../da/d7c/structlci_1_1data__t.html#ae5a60738da46376c32408f3ba0b17300" target="_top" xlink:title=" ">
<polygon fill="white" stroke="#666666" points="419,-37 306,-37 306,-18 419,-18 419,-37"/>
<text text-anchor="middle" x="362.5" y="-25" font-family="Helvetica,sans-Serif" font-size="10.00">lci::data_t::get_type</text>
</a>
</g>
</g>
<!-- Node2&#45;&gt;Node3 -->
<g id="edge2_Node000002_Node000003" class="edge">
<title>Node2&#45;&gt;Node3</title>
<g id="a_edge2_Node000002_Node000003"><a xlink:title=" ">
<path fill="none" stroke="#63b8ff" d="M270.07,-39.32C278.49,-38.23 287.24,-37.1 295.84,-35.99"/>
<polygon fill="#63b8ff" stroke="#63b8ff" points="296.38,-39.45 305.85,-34.69 295.48,-32.5 296.38,-39.45"/>
</a>
</g>
</g>
<!-- Node4&#45;&gt;Node3 -->
<g id="edge4_Node000004_Node000003" class="edge">
<title>Node4&#45;&gt;Node3</title>
<g id="a_edge4_Node000004_Node000003"><a xlink:title=" ">
<path fill="none" stroke="#63b8ff" d="M270.07,-16.31C278.49,-17.34 287.24,-18.41 295.84,-19.46"/>
<polygon fill="#63b8ff" stroke="#63b8ff" points="295.5,-22.94 305.85,-20.69 296.35,-16 295.5,-22.94"/>
</a>
</g>
</g>
</g>
</svg>
