<?xml version="1.0" encoding="UTF-8" standalone="no"?>
<!DOCTYPE svg PUBLIC "-//W3C//DTD SVG 1.1//EN"
 "http://www.w3.org/Graphics/SVG/1.1/DTD/svg11.dtd">
<!-- Generated by graphviz version 2.43.0 (0)
 -->
<!-- Title: lci::data_t::operator= Pages: 1 -->
<svg width="571pt" height="65pt"
 viewBox="0.00 0.00 571.00 65.00" xmlns="http://www.w3.org/2000/svg" xmlns:xlink="http://www.w3.org/1999/xlink">
<g id="graph0" class="graph" transform="scale(1 1) rotate(0) translate(4 61)">
<title>lci::data_t::operator=</title>
<!-- Node1 -->
<g id="Node000001" class="node">
<title>Node1</title>
<g id="a_Node000001"><a xlink:title=" ">
<polygon fill="#999999" stroke="#666666" points="120,-38 0,-38 0,-19 120,-19 120,-38"/>
<text text-anchor="middle" x="60" y="-26" font-family="Helvetica,sans-Serif" font-size="10.00">lci::data_t::operator=</text>
</a>
</g>
</g>
<!-- Node2 -->
<g id="Node000002" class="node">
<title>Node2</title>
<g id="a_Node000002"><a xlink:href="../../da/d7c/structlci_1_1data__t.html#aa8ddc42cf7a8be3b1414498ac233098c" target="_top" xlink:title=" ">
<polygon fill="white" stroke="#666666" points="389,-38 288,-38 288,-19 389,-19 389,-38"/>
<text text-anchor="middle" x="338.5" y="-26" font-family="Helvetica,sans-Serif" font-size="10.00">lci::data_t::data_t</text>
</a>
</g>
</g>
<!-- Node1&#45;&gt;Node2 -->
<g id="edge1_Node000001_Node000002" class="edge">
<title>Node1&#45;&gt;Node2</title>
<g id="a_edge1_Node000001_Node000002"><a xlink:title=" ">
<path fill="none" stroke="#63b8ff" d="M120.32,-28.5C166.79,-28.5 231.15,-28.5 277.73,-28.5"/>
<polygon fill="#63b8ff" stroke="#63b8ff" points="277.98,-32 287.98,-28.5 277.98,-25 277.98,-32"/>
</a>
</g>
</g>
<!-- Node5 -->
<g id="Node000005" class="node">
<title>Node5</title>
<g id="a_Node000005"><a xlink:href="../../da/d7c/structlci_1_1data__t.html#aeb0562e5821135e7469ba2fdb5144e53" target="_top" xlink:title=" ">
<polygon fill="white" stroke="#666666" points="252,-19 156,-19 156,0 252,0 252,-19"/>
<text text-anchor="middle" x="204" y="-7" font-family="Helvetica,sans-Serif" font-size="10.00">lci::data_t::swap</text>
</a>
</g>
</g>
<!-- Node1&#45;&gt;Node5 -->
<g id="edge5_Node000001_Node000005" class="edge">
<title>Node1&#45;&gt;Node5</title>
<g id="a_edge5_Node000001_Node000005"><a xlink:title=" ">
<path fill="none" stroke="#63b8ff" d="M120.4,-20.55C128.83,-19.42 137.48,-18.27 145.86,-17.14"/>
<polygon fill="#63b8ff" stroke="#63b8ff" points="146.48,-20.59 155.93,-15.8 145.55,-13.66 146.48,-20.59"/>
</a>
</g>
</g>
<!-- Node2&#45;&gt;Node2 -->
<g id="edge2_Node000002_Node000002" class="edge">
<title>Node2&#45;&gt;Node2</title>
<g id="a_edge2_Node000002_Node000002"><a xlink:title=" ">
<path fill="none" stroke="#63b8ff" d="M317.85,-38.08C307.8,-46.73 314.68,-56 338.5,-56 353.76,-56 362.07,-52.2 363.43,-47.19"/>
<polygon fill="#63b8ff" stroke="#63b8ff" points="366.57,-45.65 359.15,-38.08 360.23,-48.62 366.57,-45.65"/>
</a>
</g>
</g>
<!-- Node3 -->
<g id="Node000003" class="node">
<title>Node3</title>
<g id="a_Node000003"><a xlink:href="../../da/d7c/structlci_1_1data__t.html#ae475cbfd547affeb78d860b7365fd276" target="_top" xlink:title=" ">
<polygon fill="white" stroke="#666666" points="563,-57 425,-57 425,-38 563,-38 563,-57"/>
<text text-anchor="middle" x="494" y="-45" font-family="Helvetica,sans-Serif" font-size="10.00">lci::data_t::set_own_data</text>
</a>
</g>
</g>
<!-- Node2&#45;&gt;Node3 -->
<g id="edge3_Node000002_Node000003" class="edge">
<title>Node2&#45;&gt;Node3</title>
<g id="a_edge3_Node000002_Node000003"><a xlink:title=" ">
<path fill="none" stroke="#63b8ff" d="M389.34,-34.67C397.52,-35.68 406.16,-36.75 414.83,-37.82"/>
<polygon fill="#63b8ff" stroke="#63b8ff" points="414.64,-41.33 425,-39.08 415.5,-34.38 414.64,-41.33"/>
</a>
</g>
</g>
<!-- Node4 -->
<g id="Node000004" class="node">
<title>Node4</title>
<g id="a_Node000004"><a xlink:href="../../da/d7c/structlci_1_1data__t.html#a757e3d75c4950d82a849ea05535665a0" target="_top" xlink:title=" ">
<polygon fill="white" stroke="#666666" points="550.5,-20 437.5,-20 437.5,-1 550.5,-1 550.5,-20"/>
<text text-anchor="middle" x="494" y="-8" font-family="Helvetica,sans-Serif" font-size="10.00">lci::data_t::set_type</text>
</a>
</g>
</g>
<!-- Node2&#45;&gt;Node4 -->
<g id="edge4_Node000002_Node000004" class="edge">
<title>Node2&#45;&gt;Node4</title>
<g id="a_edge4_Node000002_Node000004"><a xlink:title=" ">
<path fill="none" stroke="#63b8ff" d="M389.34,-22.66C401.43,-21.24 414.53,-19.7 427.23,-18.21"/>
<polygon fill="#63b8ff" stroke="#63b8ff" points="427.78,-21.67 437.3,-17.03 426.96,-14.72 427.78,-21.67"/>
</a>
</g>
</g>
<!-- Node5&#45;&gt;Node2 -->
<g id="edge6_Node000005_Node000002" class="edge">
<title>Node5&#45;&gt;Node2</title>
<g id="a_edge6_Node000005_Node000002"><a xlink:title=" ">
<path fill="none" stroke="#63b8ff" d="M252.09,-16.25C260.43,-17.45 269.21,-18.71 277.84,-19.95"/>
<polygon fill="#63b8ff" stroke="#63b8ff" points="277.48,-23.43 287.87,-21.38 278.47,-16.5 277.48,-23.43"/>
</a>
</g>
</g>
</g>
</svg>
