<?xml version="1.0" encoding="UTF-8" standalone="no"?>
<!DOCTYPE svg PUBLIC "-//W3C//DTD SVG 1.1//EN"
 "http://www.w3.org/Graphics/SVG/1.1/DTD/svg11.dtd">
<!-- Generated by graphviz version 2.43.0 (0)
 -->
<!-- Title: lci::data_t::get_buffers Pages: 1 -->
<svg width="457pt" height="138pt"
 viewBox="0.00 0.00 457.00 138.00" xmlns="http://www.w3.org/2000/svg" xmlns:xlink="http://www.w3.org/1999/xlink">
<g id="graph0" class="graph" transform="scale(1 1) rotate(0) translate(4 134)">
<title>lci::data_t::get_buffers</title>
<!-- Node1 -->
<g id="Node000001" class="node">
<title>Node1</title>
<g id="a_Node000001"><a xlink:title="Get the buffers from the data object.">
<polygon fill="#999999" stroke="#666666" points="125,-74 0,-74 0,-55 125,-55 125,-74"/>
<text text-anchor="middle" x="62.5" y="-62" font-family="Helvetica,sans-Serif" font-size="10.00">lci::data_t::get_buffers</text>
</a>
</g>
</g>
<!-- Node2 -->
<g id="Node000002" class="node">
<title>Node2</title>
<g id="a_Node000002"><a xlink:href="../../da/d7c/structlci_1_1data__t.html#ae6d98a0c79ffbf91bbde45200026c260" target="_top" xlink:title=" ">
<polygon fill="white" stroke="#666666" points="300,-130 161,-130 161,-111 300,-111 300,-130"/>
<text text-anchor="middle" x="230.5" y="-118" font-family="Helvetica,sans-Serif" font-size="10.00">lci::data_t::get_own_data</text>
</a>
</g>
</g>
<!-- Node1&#45;&gt;Node2 -->
<g id="edge1_Node000001_Node000002" class="edge">
<title>Node1&#45;&gt;Node2</title>
<g id="a_edge1_Node000001_Node000002"><a xlink:title=" ">
<path fill="none" stroke="#63b8ff" d="M86.09,-74.15C105.68,-82.32 134.91,-94.02 161,-102.5 167.14,-104.5 173.64,-106.43 180.1,-108.24"/>
<polygon fill="#63b8ff" stroke="#63b8ff" points="179.58,-111.73 190.15,-110.99 181.43,-104.98 179.58,-111.73"/>
</a>
</g>
</g>
<!-- Node3 -->
<g id="Node000003" class="node">
<title>Node3</title>
<g id="a_Node000003"><a xlink:href="../../da/d7c/structlci_1_1data__t.html#adbfbad7285a0df73986f552d14dae112" target="_top" xlink:title=" ">
<polygon fill="white" stroke="#666666" points="289.5,-93 171.5,-93 171.5,-74 289.5,-74 289.5,-93"/>
<text text-anchor="middle" x="230.5" y="-81" font-family="Helvetica,sans-Serif" font-size="10.00">lci::data_t::is_buffers</text>
</a>
</g>
</g>
<!-- Node1&#45;&gt;Node3 -->
<g id="edge2_Node000001_Node000003" class="edge">
<title>Node1&#45;&gt;Node3</title>
<g id="a_edge2_Node000001_Node000003"><a xlink:title=" ">
<path fill="none" stroke="#63b8ff" d="M125.31,-71.57C137.12,-72.93 149.55,-74.35 161.54,-75.72"/>
<polygon fill="#63b8ff" stroke="#63b8ff" points="161.15,-79.2 171.48,-76.86 161.95,-72.25 161.15,-79.2"/>
</a>
</g>
</g>
<!-- Node5 -->
<g id="Node000005" class="node">
<title>Node5</title>
<g id="a_Node000005"><a xlink:href="../../da/d7c/structlci_1_1data__t.html#ae475cbfd547affeb78d860b7365fd276" target="_top" xlink:title=" ">
<polygon fill="white" stroke="#666666" points="299.5,-56 161.5,-56 161.5,-37 299.5,-37 299.5,-56"/>
<text text-anchor="middle" x="230.5" y="-44" font-family="Helvetica,sans-Serif" font-size="10.00">lci::data_t::set_own_data</text>
</a>
</g>
</g>
<!-- Node1&#45;&gt;Node5 -->
<g id="edge4_Node000001_Node000005" class="edge">
<title>Node1&#45;&gt;Node5</title>
<g id="a_edge4_Node000001_Node000005"><a xlink:title=" ">
<path fill="none" stroke="#63b8ff" d="M125.31,-57.8C133.73,-56.89 142.45,-55.94 151.11,-55"/>
<polygon fill="#63b8ff" stroke="#63b8ff" points="151.66,-58.46 161.22,-53.9 150.9,-51.5 151.66,-58.46"/>
</a>
</g>
</g>
<!-- Node6 -->
<g id="Node000006" class="node">
<title>Node6</title>
<g id="a_Node000006"><a xlink:href="../../da/d7c/structlci_1_1data__t.html#a757e3d75c4950d82a849ea05535665a0" target="_top" xlink:title=" ">
<polygon fill="white" stroke="#666666" points="287,-19 174,-19 174,0 287,0 287,-19"/>
<text text-anchor="middle" x="230.5" y="-7" font-family="Helvetica,sans-Serif" font-size="10.00">lci::data_t::set_type</text>
</a>
</g>
</g>
<!-- Node1&#45;&gt;Node6 -->
<g id="edge5_Node000001_Node000006" class="edge">
<title>Node1&#45;&gt;Node6</title>
<g id="a_edge5_Node000001_Node000006"><a xlink:title=" ">
<path fill="none" stroke="#63b8ff" d="M87.75,-54.91C107.36,-47.31 135.76,-36.65 161,-28.5 168.02,-26.23 175.51,-23.99 182.85,-21.88"/>
<polygon fill="#63b8ff" stroke="#63b8ff" points="184.04,-25.18 192.72,-19.1 182.14,-18.44 184.04,-25.18"/>
</a>
</g>
</g>
<!-- Node4 -->
<g id="Node000004" class="node">
<title>Node4</title>
<g id="a_Node000004"><a xlink:href="../../da/d7c/structlci_1_1data__t.html#ae5a60738da46376c32408f3ba0b17300" target="_top" xlink:title=" ">
<polygon fill="white" stroke="#666666" points="449,-93 336,-93 336,-74 449,-74 449,-93"/>
<text text-anchor="middle" x="392.5" y="-81" font-family="Helvetica,sans-Serif" font-size="10.00">lci::data_t::get_type</text>
</a>
</g>
</g>
<!-- Node3&#45;&gt;Node4 -->
<g id="edge3_Node000003_Node000004" class="edge">
<title>Node3&#45;&gt;Node4</title>
<g id="a_edge3_Node000003_Node000004"><a xlink:title=" ">
<path fill="none" stroke="#63b8ff" d="M289.72,-83.5C301.4,-83.5 313.75,-83.5 325.66,-83.5"/>
<polygon fill="#63b8ff" stroke="#63b8ff" points="325.99,-87 335.99,-83.5 325.99,-80 325.99,-87"/>
</a>
</g>
</g>
</g>
</svg>
