<?xml version="1.0" encoding="UTF-8" standalone="no"?>
<!DOCTYPE svg PUBLIC "-//W3C//DTD SVG 1.1//EN"
 "http://www.w3.org/Graphics/SVG/1.1/DTD/svg11.dtd">
<!-- Generated by graphviz version 2.43.0 (0)
 -->
<!-- Title: lci::data_t::set_own_data Pages: 1 -->
<svg width="600pt" height="419pt"
 viewBox="0.00 0.00 600.00 419.00" xmlns="http://www.w3.org/2000/svg" xmlns:xlink="http://www.w3.org/1999/xlink">
<g id="graph0" class="graph" transform="scale(1 1) rotate(0) translate(4 415)">
<title>lci::data_t::set_own_data</title>
<!-- Node1 -->
<g id="Node000001" class="node">
<title>Node1</title>
<g id="a_Node000001"><a xlink:title=" ">
<polygon fill="#999999" stroke="#666666" points="592,-204 454,-204 454,-185 592,-185 592,-204"/>
<text text-anchor="middle" x="523" y="-192" font-family="Helvetica,sans-Serif" font-size="10.00">lci::data_t::set_own_data</text>
</a>
</g>
</g>
<!-- Node2 -->
<g id="Node000002" class="node">
<title>Node2</title>
<g id="a_Node000002"><a xlink:href="../../da/d7c/structlci_1_1data__t.html#ad540474a8025b082887d746b5f5500c0" target="_top" xlink:title=" ">
<polygon fill="white" stroke="#666666" points="416.5,-411 294.5,-411 294.5,-392 416.5,-392 416.5,-411"/>
<text text-anchor="middle" x="355.5" y="-399" font-family="Helvetica,sans-Serif" font-size="10.00">lci::data_t::copy_from</text>
</a>
</g>
</g>
<!-- Node1&#45;&gt;Node2 -->
<g id="edge1_Node000001_Node000002" class="edge">
<title>Node1&#45;&gt;Node2</title>
<g id="a_edge1_Node000001_Node000002"><a xlink:title=" ">
<path fill="none" stroke="#63b8ff" d="M516.76,-213.93C505.42,-252.26 474.89,-337.85 418,-383.5 413.75,-386.91 408.87,-389.68 403.76,-391.92"/>
<polygon fill="#63b8ff" stroke="#63b8ff" points="520.2,-214.62 519.57,-204.04 513.47,-212.71 520.2,-214.62"/>
</a>
</g>
</g>
<!-- Node3 -->
<g id="Node000003" class="node">
<title>Node3</title>
<g id="a_Node000003"><a xlink:href="../../da/d7c/structlci_1_1data__t.html#a5486c4455aa5c01ea78e4d99e2168f7c" target="_top" xlink:title=" ">
<polygon fill="white" stroke="#666666" points="416.5,-374 294.5,-374 294.5,-355 416.5,-355 416.5,-374"/>
<text text-anchor="middle" x="355.5" y="-362" font-family="Helvetica,sans-Serif" font-size="10.00">lci::data_t::copy_from</text>
</a>
</g>
</g>
<!-- Node1&#45;&gt;Node3 -->
<g id="edge2_Node000001_Node000003" class="edge">
<title>Node1&#45;&gt;Node3</title>
<g id="a_edge2_Node000001_Node000003"><a xlink:title=" ">
<path fill="none" stroke="#63b8ff" d="M513.16,-213.31C497.86,-243.99 463.65,-304.93 418,-340.5 410.13,-346.63 400.51,-351.36 391.24,-354.94"/>
<polygon fill="#63b8ff" stroke="#63b8ff" points="516.39,-214.67 517.61,-204.15 510.09,-211.61 516.39,-214.67"/>
</a>
</g>
</g>
<!-- Node4 -->
<g id="Node000004" class="node">
<title>Node4</title>
<g id="a_Node000004"><a xlink:href="../../da/d7c/structlci_1_1data__t.html#aa8ddc42cf7a8be3b1414498ac233098c" target="_top" xlink:title=" ">
<polygon fill="white" stroke="#666666" points="406,-280 305,-280 305,-261 406,-261 406,-280"/>
<text text-anchor="middle" x="355.5" y="-268" font-family="Helvetica,sans-Serif" font-size="10.00">lci::data_t::data_t</text>
</a>
</g>
</g>
<!-- Node1&#45;&gt;Node4 -->
<g id="edge3_Node000001_Node000004" class="edge">
<title>Node1&#45;&gt;Node4</title>
<g id="a_edge3_Node000001_Node000004"><a xlink:title=" ">
<path fill="none" stroke="#63b8ff" d="M495.31,-208.69C474.49,-219.55 444.72,-234.64 418,-246.5 406.48,-251.62 393.5,-256.77 382.45,-260.98"/>
<polygon fill="#63b8ff" stroke="#63b8ff" points="496.97,-211.77 504.2,-204.02 493.72,-205.57 496.97,-211.77"/>
</a>
</g>
</g>
<!-- Node5 -->
<g id="Node000005" class="node">
<title>Node5</title>
<g id="a_Node000005"><a xlink:href="../../da/d7c/structlci_1_1data__t.html#aa4f425e53b7dd3614cabd61b460575db" target="_top" xlink:title=" ">
<polygon fill="white" stroke="#666666" points="257,-345 156,-345 156,-326 257,-326 257,-345"/>
<text text-anchor="middle" x="206.5" y="-333" font-family="Helvetica,sans-Serif" font-size="10.00">lci::data_t::data_t</text>
</a>
</g>
</g>
<!-- Node1&#45;&gt;Node5 -->
<g id="edge12_Node000001_Node000005" class="edge">
<title>Node1&#45;&gt;Node5</title>
<g id="a_edge12_Node000001_Node000005"><a xlink:title=" ">
<path fill="none" stroke="#63b8ff" d="M511.18,-212.65C494.66,-238.54 460.56,-285.37 418,-307.5 367.63,-333.69 301.69,-338.51 257.13,-338.18"/>
<polygon fill="#63b8ff" stroke="#63b8ff" points="514.15,-214.49 516.45,-204.15 508.2,-210.8 514.15,-214.49"/>
</a>
</g>
</g>
<!-- Node6 -->
<g id="Node000006" class="node">
<title>Node6</title>
<g id="a_Node000006"><a xlink:href="../../da/d7c/structlci_1_1data__t.html#a3657b75d8c5d002adf3ddfcc9f14a293" target="_top" xlink:title=" ">
<polygon fill="white" stroke="#666666" points="257,-232 156,-232 156,-213 257,-213 257,-232"/>
<text text-anchor="middle" x="206.5" y="-220" font-family="Helvetica,sans-Serif" font-size="10.00">lci::data_t::data_t</text>
</a>
</g>
</g>
<!-- Node1&#45;&gt;Node6 -->
<g id="edge13_Node000001_Node000006" class="edge">
<title>Node1&#45;&gt;Node6</title>
<g id="a_edge13_Node000001_Node000006"><a xlink:title=" ">
<path fill="none" stroke="#63b8ff" d="M464.13,-205.82C449.16,-208.39 433.02,-210.85 418,-212.5 363.27,-218.51 300.14,-220.91 257.4,-221.87"/>
<polygon fill="#63b8ff" stroke="#63b8ff" points="465.04,-209.22 474.28,-204.04 463.83,-202.32 465.04,-209.22"/>
</a>
</g>
</g>
<!-- Node9 -->
<g id="Node000009" class="node">
<title>Node9</title>
<g id="a_Node000009"><a xlink:href="../../da/d7c/structlci_1_1data__t.html#aaacf36ab13d70a0412aaa0d3b6c19bfc" target="_top" xlink:title=" ">
<polygon fill="white" stroke="#666666" points="406,-204 305,-204 305,-185 406,-185 406,-204"/>
<text text-anchor="middle" x="355.5" y="-192" font-family="Helvetica,sans-Serif" font-size="10.00">lci::data_t::data_t</text>
</a>
</g>
</g>
<!-- Node1&#45;&gt;Node9 -->
<g id="edge10_Node000001_Node000009" class="edge">
<title>Node1&#45;&gt;Node9</title>
<g id="a_edge10_Node000001_Node000009"><a xlink:title=" ">
<path fill="none" stroke="#63b8ff" d="M443.57,-194.5C430.83,-194.5 417.96,-194.5 406.16,-194.5"/>
<polygon fill="#63b8ff" stroke="#63b8ff" points="443.73,-198 453.73,-194.5 443.73,-191 443.73,-198"/>
</a>
</g>
</g>
<!-- Node10 -->
<g id="Node000010" class="node">
<title>Node10</title>
<g id="a_Node000010"><a xlink:href="../../da/d7c/structlci_1_1data__t.html#a4ed222cc91197e9080bcd576d8b89f8b" target="_top" xlink:title=" ">
<polygon fill="white" stroke="#666666" points="406,-167 305,-167 305,-148 406,-148 406,-167"/>
<text text-anchor="middle" x="355.5" y="-155" font-family="Helvetica,sans-Serif" font-size="10.00">lci::data_t::data_t</text>
</a>
</g>
</g>
<!-- Node1&#45;&gt;Node10 -->
<g id="edge11_Node000001_Node000010" class="edge">
<title>Node1&#45;&gt;Node10</title>
<g id="a_edge11_Node000001_Node000010"><a xlink:title=" ">
<path fill="none" stroke="#63b8ff" d="M469.58,-182.78C446.91,-177.71 420.73,-171.86 399.26,-167.06"/>
<polygon fill="#63b8ff" stroke="#63b8ff" points="468.86,-186.21 479.38,-184.97 470.38,-179.37 468.86,-186.21"/>
</a>
</g>
</g>
<!-- Node11 -->
<g id="Node000011" class="node">
<title>Node11</title>
<g id="a_Node000011"><a xlink:href="../../da/d7c/structlci_1_1data__t.html#a328cb2966aa6ab47de29de785f199ca8" target="_top" xlink:title=" ">
<polygon fill="white" stroke="#666666" points="406,-130 305,-130 305,-111 406,-111 406,-130"/>
<text text-anchor="middle" x="355.5" y="-118" font-family="Helvetica,sans-Serif" font-size="10.00">lci::data_t::data_t</text>
</a>
</g>
</g>
<!-- Node1&#45;&gt;Node11 -->
<g id="edge14_Node000001_Node000011" class="edge">
<title>Node1&#45;&gt;Node11</title>
<g id="a_edge14_Node000001_Node000011"><a xlink:title=" ">
<path fill="none" stroke="#63b8ff" d="M497.92,-179.66C477.28,-167.4 446.46,-150.18 418,-138.5 410.28,-135.33 401.81,-132.48 393.68,-130.02"/>
<polygon fill="#63b8ff" stroke="#63b8ff" points="496.27,-182.75 506.64,-184.9 499.88,-176.75 496.27,-182.75"/>
</a>
</g>
</g>
<!-- Node12 -->
<g id="Node000012" class="node">
<title>Node12</title>
<g id="a_Node000012"><a xlink:href="../../da/d7c/structlci_1_1data__t.html#ad8da24575985a0136a6e575b0c2d3f39" target="_top" xlink:title=" ">
<polygon fill="white" stroke="#666666" points="406,-93 305,-93 305,-74 406,-74 406,-93"/>
<text text-anchor="middle" x="355.5" y="-81" font-family="Helvetica,sans-Serif" font-size="10.00">lci::data_t::data_t</text>
</a>
</g>
</g>
<!-- Node1&#45;&gt;Node12 -->
<g id="edge15_Node000001_Node000012" class="edge">
<title>Node1&#45;&gt;Node12</title>
<g id="a_edge15_Node000001_Node000012"><a xlink:title=" ">
<path fill="none" stroke="#63b8ff" d="M507.03,-177.02C488.25,-156.15 454.1,-121.56 418,-101.5 411.97,-98.15 405.25,-95.37 398.54,-93.07"/>
<polygon fill="#63b8ff" stroke="#63b8ff" points="504.64,-179.61 513.88,-184.79 509.89,-174.98 504.64,-179.61"/>
</a>
</g>
</g>
<!-- Node13 -->
<g id="Node000013" class="node">
<title>Node13</title>
<g id="a_Node000013"><a xlink:href="../../da/d7c/structlci_1_1data__t.html#ad52c699c8681147663af4fb39b6e4dfb" target="_top" xlink:title="Get the buffer from the data object.">
<polygon fill="white" stroke="#666666" points="415.5,-56 295.5,-56 295.5,-37 415.5,-37 415.5,-56"/>
<text text-anchor="middle" x="355.5" y="-44" font-family="Helvetica,sans-Serif" font-size="10.00">lci::data_t::get_buffer</text>
</a>
</g>
</g>
<!-- Node1&#45;&gt;Node13 -->
<g id="edge16_Node000001_Node000013" class="edge">
<title>Node1&#45;&gt;Node13</title>
<g id="a_edge16_Node000001_Node000013"><a xlink:title=" ">
<path fill="none" stroke="#63b8ff" d="M512.04,-175.76C496.01,-147.42 461.82,-93.86 418,-64.5 412.92,-61.09 407.18,-58.32 401.3,-56.06"/>
<polygon fill="#63b8ff" stroke="#63b8ff" points="509.04,-177.58 516.93,-184.65 515.17,-174.2 509.04,-177.58"/>
</a>
</g>
</g>
<!-- Node14 -->
<g id="Node000014" class="node">
<title>Node14</title>
<g id="a_Node000014"><a xlink:href="../../da/d7c/structlci_1_1data__t.html#a55eb9ec07fde2232ec6f81efef5d2b8a" target="_top" xlink:title="Get the buffers from the data object.">
<polygon fill="white" stroke="#666666" points="418,-19 293,-19 293,0 418,0 418,-19"/>
<text text-anchor="middle" x="355.5" y="-7" font-family="Helvetica,sans-Serif" font-size="10.00">lci::data_t::get_buffers</text>
</a>
</g>
</g>
<!-- Node1&#45;&gt;Node14 -->
<g id="edge17_Node000001_Node000014" class="edge">
<title>Node1&#45;&gt;Node14</title>
<g id="a_edge17_Node000001_Node000014"><a xlink:title=" ">
<path fill="none" stroke="#63b8ff" d="M515.39,-175.42C502.35,-140.66 470.02,-66.99 418,-27.5 413.48,-24.07 408.32,-21.29 402.96,-19.04"/>
<polygon fill="#63b8ff" stroke="#63b8ff" points="512.11,-176.66 518.81,-184.87 518.7,-174.28 512.11,-176.66"/>
</a>
</g>
</g>
<!-- Node4&#45;&gt;Node4 -->
<g id="edge4_Node000004_Node000004" class="edge">
<title>Node4&#45;&gt;Node4</title>
<g id="a_edge4_Node000004_Node000004"><a xlink:title=" ">
<path fill="none" stroke="#63b8ff" d="M383.03,-289.19C381.53,-294.2 372.35,-298 355.5,-298 329.2,-298 321.59,-288.73 332.69,-280.08"/>
<polygon fill="#63b8ff" stroke="#63b8ff" points="386.02,-287.35 378.31,-280.08 379.8,-290.57 386.02,-287.35"/>
</a>
</g>
</g>
<!-- Node4&#45;&gt;Node5 -->
<g id="edge5_Node000004_Node000005" class="edge">
<title>Node4&#45;&gt;Node5</title>
<g id="a_edge5_Node000004_Node000005"><a xlink:title=" ">
<path fill="none" stroke="#63b8ff" d="M323.39,-284.26C295.14,-296.75 254.18,-314.86 229.28,-325.87"/>
<polygon fill="#63b8ff" stroke="#63b8ff" points="325.08,-287.34 332.81,-280.09 322.25,-280.93 325.08,-287.34"/>
</a>
</g>
</g>
<!-- Node4&#45;&gt;Node6 -->
<g id="edge6_Node000004_Node000006" class="edge">
<title>Node4&#45;&gt;Node6</title>
<g id="a_edge6_Node000004_Node000006"><a xlink:title=" ">
<path fill="none" stroke="#63b8ff" d="M315.33,-257.71C290.67,-249.66 259.36,-239.44 236.84,-232.08"/>
<polygon fill="#63b8ff" stroke="#63b8ff" points="314.51,-261.12 325.11,-260.9 316.69,-254.47 314.51,-261.12"/>
</a>
</g>
</g>
<!-- Node7 -->
<g id="Node000007" class="node">
<title>Node7</title>
<g id="a_Node000007"><a xlink:href="../../da/d7c/structlci_1_1data__t.html#a8c79bce0b9f10492589dd86b051bb2d0" target="_top" xlink:title=" ">
<polygon fill="white" stroke="#666666" points="120,-288 0,-288 0,-269 120,-269 120,-288"/>
<text text-anchor="middle" x="60" y="-276" font-family="Helvetica,sans-Serif" font-size="10.00">lci::data_t::operator=</text>
</a>
</g>
</g>
<!-- Node4&#45;&gt;Node7 -->
<g id="edge7_Node000004_Node000007" class="edge">
<title>Node4&#45;&gt;Node7</title>
<g id="a_edge7_Node000004_Node000007"><a xlink:title=" ">
<path fill="none" stroke="#63b8ff" d="M294.67,-276.19C282.23,-277.15 269.2,-278 257,-278.5 211.1,-280.38 159.11,-280.28 120.21,-279.76"/>
<polygon fill="#63b8ff" stroke="#63b8ff" points="295.26,-279.65 304.95,-275.36 294.7,-272.67 295.26,-279.65"/>
</a>
</g>
</g>
<!-- Node8 -->
<g id="Node000008" class="node">
<title>Node8</title>
<g id="a_Node000008"><a xlink:href="../../da/d7c/structlci_1_1data__t.html#aeb0562e5821135e7469ba2fdb5144e53" target="_top" xlink:title=" ">
<polygon fill="white" stroke="#666666" points="254.5,-269 158.5,-269 158.5,-250 254.5,-250 254.5,-269"/>
<text text-anchor="middle" x="206.5" y="-257" font-family="Helvetica,sans-Serif" font-size="10.00">lci::data_t::swap</text>
</a>
</g>
</g>
<!-- Node4&#45;&gt;Node8 -->
<g id="edge8_Node000004_Node000008" class="edge">
<title>Node4&#45;&gt;Node8</title>
<g id="a_edge8_Node000004_Node000008"><a xlink:title=" ">
<path fill="none" stroke="#63b8ff" d="M294.7,-266.03C281.39,-265.03 267.46,-263.99 254.73,-263.03"/>
<polygon fill="#63b8ff" stroke="#63b8ff" points="294.5,-269.52 304.73,-266.78 295.02,-262.54 294.5,-269.52"/>
</a>
</g>
</g>
<!-- Node8&#45;&gt;Node7 -->
<g id="edge9_Node000008_Node000007" class="edge">
<title>Node8&#45;&gt;Node7</title>
<g id="a_edge9_Node000008_Node000007"><a xlink:title=" ">
<path fill="none" stroke="#63b8ff" d="M147.98,-267.06C138.79,-268.27 129.27,-269.52 120.05,-270.74"/>
<polygon fill="#63b8ff" stroke="#63b8ff" points="148.73,-270.5 158.19,-265.72 147.81,-263.55 148.73,-270.5"/>
</a>
</g>
</g>
</g>
</svg>
