<?xml version="1.0" encoding="UTF-8" standalone="no"?>
<!DOCTYPE svg PUBLIC "-//W3C//DTD SVG 1.1//EN"
 "http://www.w3.org/Graphics/SVG/1.1/DTD/svg11.dtd">
<!-- Generated by graphviz version 2.43.0 (0)
 -->
<!-- Title: lci::post_put_x Pages: 1 -->
<svg width="702pt" height="579pt"
 viewBox="0.00 0.00 702.00 579.34" xmlns="http://www.w3.org/2000/svg" xmlns:xlink="http://www.w3.org/1999/xlink">
<g id="graph0" class="graph" transform="scale(1 1) rotate(0) translate(4 575.34)">
<title>lci::post_put_x</title>
<!-- Node1 -->
<g id="Node000001" class="node">
<title>Node1</title>
<g id="a_Node000001"><a xlink:title="The actual implementation for post_put.">
<polygon fill="#999999" stroke="#666666" points="694,-285.84 607,-285.84 607,-266.84 694,-266.84 694,-285.84"/>
<text text-anchor="middle" x="650.5" y="-273.84" font-family="Helvetica,sans-Serif" font-size="10.00">lci::post_put_x</text>
</a>
</g>
</g>
<!-- Node2 -->
<g id="Node000002" class="node">
<title>Node2</title>
<g id="a_Node000002"><a xlink:href="../../d1/da7/classlci_1_1comp__t.html" target="_top" xlink:title="The actual implementation for RESOURCE comp.">
<polygon fill="white" stroke="#666666" points="438.5,-568.84 368.5,-568.84 368.5,-549.84 438.5,-549.84 438.5,-568.84"/>
<text text-anchor="middle" x="403.5" y="-556.84" font-family="Helvetica,sans-Serif" font-size="10.00">lci::comp_t</text>
</a>
</g>
</g>
<!-- Node2&#45;&gt;Node1 -->
<g id="edge1_Node000001_Node000002" class="edge">
<title>Node2&#45;&gt;Node1</title>
<g id="a_edge1_Node000001_Node000002"><a xlink:title=" ">
<path fill="none" stroke="#9a32cd" stroke-dasharray="5,2" d="M448.82,-562.65C490.49,-563.21 551.84,-557.07 589,-521.34 624.13,-487.55 643.9,-327.42 648.47,-286.09"/>
<polygon fill="#9a32cd" stroke="#9a32cd" points="448.77,-559.14 438.68,-562.37 448.58,-566.14 448.77,-559.14"/>
</a>
</g>
<text text-anchor="middle" x="541" y="-563.34" font-family="Helvetica,sans-Serif" font-size="10.00" fill="grey"> m_local_comp</text>
</g>
<!-- Node3 -->
<g id="Node000003" class="node">
<title>Node3</title>
<g id="a_Node000003"><a xlink:href="../../d9/d97/classlci_1_1comp__impl__t.html" target="_top" xlink:title="Completion object implementation base type.">
<polygon fill="white" stroke="#666666" points="248,-568.84 151,-568.84 151,-549.84 248,-549.84 248,-568.84"/>
<text text-anchor="middle" x="199.5" y="-556.84" font-family="Helvetica,sans-Serif" font-size="10.00">lci::comp_impl_t</text>
</a>
</g>
</g>
<!-- Node3&#45;&gt;Node2 -->
<g id="edge2_Node000002_Node000003" class="edge">
<title>Node3&#45;&gt;Node2</title>
<g id="a_edge2_Node000002_Node000003"><a xlink:title=" ">
<path fill="none" stroke="#9a32cd" stroke-dasharray="5,2" d="M258.38,-559.34C294,-559.34 338.43,-559.34 368.47,-559.34"/>
<polygon fill="#9a32cd" stroke="#9a32cd" points="258.12,-555.84 248.12,-559.34 258.12,-562.84 258.12,-555.84"/>
</a>
</g>
<text text-anchor="middle" x="291" y="-562.34" font-family="Helvetica,sans-Serif" font-size="10.00" fill="grey"> p_impl</text>
</g>
<!-- Node4 -->
<g id="Node000004" class="node">
<title>Node4</title>
<g id="a_Node000004"><a xlink:href="../../dc/da6/structlci_1_1comp__attr__t.html" target="_top" xlink:title=" ">
<polygon fill="white" stroke="#666666" points="92,-568.84 0,-568.84 0,-549.84 92,-549.84 92,-568.84"/>
<text text-anchor="middle" x="46" y="-556.84" font-family="Helvetica,sans-Serif" font-size="10.00">lci::comp_attr_t</text>
</a>
</g>
</g>
<!-- Node4&#45;&gt;Node3 -->
<g id="edge3_Node000003_Node000004" class="edge">
<title>Node4&#45;&gt;Node3</title>
<g id="a_edge3_Node000003_Node000004"><a xlink:title=" ">
<path fill="none" stroke="#9a32cd" stroke-dasharray="5,2" d="M102.31,-559.34C118.28,-559.34 135.55,-559.34 151,-559.34"/>
<polygon fill="#9a32cd" stroke="#9a32cd" points="102.04,-555.84 92.04,-559.34 102.04,-562.84 102.04,-555.84"/>
</a>
</g>
<text text-anchor="middle" x="120.5" y="-562.34" font-family="Helvetica,sans-Serif" font-size="10.00" fill="grey"> attr</text>
</g>
<!-- Node5 -->
<g id="Node000005" class="node">
<title>Node5</title>
<g id="a_Node000005"><a xlink:href="../../db/d20/structlci_1_1option__t.html" target="_top" xlink:title=" ">
<polygon fill="white" stroke="#666666" points="451.5,-531.34 355.5,-531.34 355.5,-501.34 451.5,-501.34 451.5,-531.34"/>
<text text-anchor="start" x="363.5" y="-519.34" font-family="Helvetica,sans-Serif" font-size="10.00">lci::option_t&lt; lci</text>
<text text-anchor="middle" x="403.5" y="-508.34" font-family="Helvetica,sans-Serif" font-size="10.00">::runtime_t &gt;</text>
</a>
</g>
</g>
<!-- Node5&#45;&gt;Node1 -->
<g id="edge4_Node000001_Node000005" class="edge">
<title>Node5&#45;&gt;Node1</title>
<g id="a_edge4_Node000001_Node000005"><a xlink:title=" ">
<path fill="none" stroke="#9a32cd" stroke-dasharray="5,2" d="M461.73,-510.97C508.8,-505.42 570.63,-495.16 589,-478.34 647.05,-425.18 650.27,-318.83 649.81,-286.13"/>
<polygon fill="#9a32cd" stroke="#9a32cd" points="461.18,-507.51 451.63,-512.11 461.96,-514.46 461.18,-507.51"/>
</a>
</g>
<text text-anchor="middle" x="541" y="-509.34" font-family="Helvetica,sans-Serif" font-size="10.00" fill="grey"> m_runtime</text>
</g>
<!-- Node6 -->
<g id="Node000006" class="node">
<title>Node6</title>
<g id="a_Node000006"><a xlink:href="../../dc/d5c/classlci_1_1runtime__t.html" target="_top" xlink:title="The actual implementation for RESOURCE runtime.">
<polygon fill="white" stroke="#666666" points="240,-525.84 159,-525.84 159,-506.84 240,-506.84 240,-525.84"/>
<text text-anchor="middle" x="199.5" y="-513.84" font-family="Helvetica,sans-Serif" font-size="10.00">lci::runtime_t</text>
</a>
</g>
</g>
<!-- Node6&#45;&gt;Node5 -->
<g id="edge5_Node000005_Node000006" class="edge">
<title>Node6&#45;&gt;Node5</title>
<g id="a_edge5_Node000005_Node000006"><a xlink:title=" ">
<path fill="none" stroke="#9a32cd" stroke-dasharray="5,2" d="M250.45,-516.34C282.46,-516.34 323.75,-516.34 355.22,-516.34"/>
<polygon fill="#9a32cd" stroke="#9a32cd" points="250.41,-512.84 240.41,-516.34 250.41,-519.84 250.41,-512.84"/>
</a>
</g>
<text text-anchor="middle" x="291" y="-519.34" font-family="Helvetica,sans-Serif" font-size="10.00" fill="grey"> m_value</text>
</g>
<!-- Node7 -->
<g id="Node000007" class="node">
<title>Node7</title>
<g id="a_Node000007"><a xlink:href="../../db/d20/structlci_1_1option__t.html" target="_top" xlink:title=" ">
<polygon fill="white" stroke="#666666" points="454,-483.34 353,-483.34 353,-453.34 454,-453.34 454,-483.34"/>
<text text-anchor="start" x="361" y="-471.34" font-family="Helvetica,sans-Serif" font-size="10.00">lci::option_t&lt; lci</text>
<text text-anchor="middle" x="403.5" y="-460.34" font-family="Helvetica,sans-Serif" font-size="10.00">::packet_pool_t &gt;</text>
</a>
</g>
</g>
<!-- Node7&#45;&gt;Node1 -->
<g id="edge6_Node000001_Node000007" class="edge">
<title>Node7&#45;&gt;Node1</title>
<g id="a_edge6_Node000001_Node000007"><a xlink:title=" ">
<path fill="none" stroke="#9a32cd" stroke-dasharray="5,2" d="M464.37,-467.72C503.92,-464.31 554.61,-453.8 589,-424.34 632.85,-386.77 645.38,-312.55 648.54,-286.03"/>
<polygon fill="#9a32cd" stroke="#9a32cd" points="464.03,-464.24 454.32,-468.46 464.54,-471.22 464.03,-464.24"/>
</a>
</g>
<text text-anchor="middle" x="541" y="-466.34" font-family="Helvetica,sans-Serif" font-size="10.00" fill="grey"> m_packet_pool</text>
</g>
<!-- Node8 -->
<g id="Node000008" class="node">
<title>Node8</title>
<g id="a_Node000008"><a xlink:href="../../db/dec/classlci_1_1packet__pool__t.html" target="_top" xlink:title="The actual implementation for RESOURCE packet_pool.">
<polygon fill="white" stroke="#666666" points="250,-477.84 149,-477.84 149,-458.84 250,-458.84 250,-477.84"/>
<text text-anchor="middle" x="199.5" y="-465.84" font-family="Helvetica,sans-Serif" font-size="10.00">lci::packet_pool_t</text>
</a>
</g>
</g>
<!-- Node8&#45;&gt;Node7 -->
<g id="edge7_Node000007_Node000008" class="edge">
<title>Node8&#45;&gt;Node7</title>
<g id="a_edge7_Node000007_Node000008"><a xlink:title=" ">
<path fill="none" stroke="#9a32cd" stroke-dasharray="5,2" d="M260.32,-468.34C289.72,-468.34 324.74,-468.34 352.67,-468.34"/>
<polygon fill="#9a32cd" stroke="#9a32cd" points="260.17,-464.84 250.17,-468.34 260.17,-471.84 260.17,-464.84"/>
</a>
</g>
<text text-anchor="middle" x="291" y="-471.34" font-family="Helvetica,sans-Serif" font-size="10.00" fill="grey"> m_value</text>
</g>
<!-- Node9 -->
<g id="Node000009" class="node">
<title>Node9</title>
<g id="a_Node000009"><a xlink:href="../../db/d20/structlci_1_1option__t.html" target="_top" xlink:title=" ">
<polygon fill="white" stroke="#666666" points="451.5,-435.34 355.5,-435.34 355.5,-405.34 451.5,-405.34 451.5,-435.34"/>
<text text-anchor="start" x="363.5" y="-423.34" font-family="Helvetica,sans-Serif" font-size="10.00">lci::option_t&lt; lci</text>
<text text-anchor="middle" x="403.5" y="-412.34" font-family="Helvetica,sans-Serif" font-size="10.00">::device_t &gt;</text>
</a>
</g>
</g>
<!-- Node9&#45;&gt;Node1 -->
<g id="edge8_Node000001_Node000009" class="edge">
<title>Node9&#45;&gt;Node1</title>
<g id="a_edge8_Node000001_Node000009"><a xlink:title=" ">
<path fill="none" stroke="#9a32cd" stroke-dasharray="5,2" d="M461.92,-415.99C500.91,-410.58 551.93,-398.46 589,-371.34 619.77,-348.82 638.77,-305.49 646.07,-286.11"/>
<polygon fill="#9a32cd" stroke="#9a32cd" points="461.25,-412.55 451.77,-417.28 462.13,-419.49 461.25,-412.55"/>
</a>
</g>
<text text-anchor="middle" x="541" y="-412.34" font-family="Helvetica,sans-Serif" font-size="10.00" fill="grey"> m_device</text>
</g>
<!-- Node10 -->
<g id="Node000010" class="node">
<title>Node10</title>
<g id="a_Node000010"><a xlink:href="../../d6/d66/classlci_1_1device__t.html" target="_top" xlink:title="The actual implementation for RESOURCE device.">
<polygon fill="white" stroke="#666666" points="237,-429.84 162,-429.84 162,-410.84 237,-410.84 237,-429.84"/>
<text text-anchor="middle" x="199.5" y="-417.84" font-family="Helvetica,sans-Serif" font-size="10.00">lci::device_t</text>
</a>
</g>
</g>
<!-- Node10&#45;&gt;Node9 -->
<g id="edge9_Node000009_Node000010" class="edge">
<title>Node10&#45;&gt;Node9</title>
<g id="a_edge9_Node000009_Node000010"><a xlink:title=" ">
<path fill="none" stroke="#9a32cd" stroke-dasharray="5,2" d="M247.2,-420.34C279.6,-420.34 322.6,-420.34 355.14,-420.34"/>
<polygon fill="#9a32cd" stroke="#9a32cd" points="247.08,-416.84 237.08,-420.34 247.08,-423.84 247.08,-416.84"/>
</a>
</g>
<text text-anchor="middle" x="291" y="-423.34" font-family="Helvetica,sans-Serif" font-size="10.00" fill="grey"> m_value</text>
</g>
<!-- Node11 -->
<g id="Node000011" class="node">
<title>Node11</title>
<g id="a_Node000011"><a xlink:href="../../db/d20/structlci_1_1option__t.html" target="_top" xlink:title=" ">
<polygon fill="white" stroke="#666666" points="451.5,-387.34 355.5,-387.34 355.5,-357.34 451.5,-357.34 451.5,-387.34"/>
<text text-anchor="start" x="363.5" y="-375.34" font-family="Helvetica,sans-Serif" font-size="10.00">lci::option_t&lt; lci</text>
<text text-anchor="middle" x="403.5" y="-364.34" font-family="Helvetica,sans-Serif" font-size="10.00">::endpoint_t &gt;</text>
</a>
</g>
</g>
<!-- Node11&#45;&gt;Node1 -->
<g id="edge10_Node000001_Node000011" class="edge">
<title>Node11&#45;&gt;Node1</title>
<g id="a_edge10_Node000001_Node000011"><a xlink:title=" ">
<path fill="none" stroke="#9a32cd" stroke-dasharray="5,2" d="M461.78,-363.79C499.36,-356.67 548.8,-344.39 589,-324.34 609.16,-314.29 628.91,-296.75 640.11,-285.89"/>
<polygon fill="#9a32cd" stroke="#9a32cd" points="460.72,-360.42 451.51,-365.66 461.98,-367.31 460.72,-360.42"/>
</a>
</g>
<text text-anchor="middle" x="541" y="-359.34" font-family="Helvetica,sans-Serif" font-size="10.00" fill="grey"> m_endpoint</text>
</g>
<!-- Node12 -->
<g id="Node000012" class="node">
<title>Node12</title>
<g id="a_Node000012"><a xlink:href="../../de/d1b/classlci_1_1endpoint__t.html" target="_top" xlink:title="The actual implementation for RESOURCE endpoint.">
<polygon fill="white" stroke="#666666" points="242.5,-381.84 156.5,-381.84 156.5,-362.84 242.5,-362.84 242.5,-381.84"/>
<text text-anchor="middle" x="199.5" y="-369.84" font-family="Helvetica,sans-Serif" font-size="10.00">lci::endpoint_t</text>
</a>
</g>
</g>
<!-- Node12&#45;&gt;Node11 -->
<g id="edge11_Node000011_Node000012" class="edge">
<title>Node12&#45;&gt;Node11</title>
<g id="a_edge11_Node000011_Node000012"><a xlink:title=" ">
<path fill="none" stroke="#9a32cd" stroke-dasharray="5,2" d="M253.22,-372.34C284.83,-372.34 324.69,-372.34 355.26,-372.34"/>
<polygon fill="#9a32cd" stroke="#9a32cd" points="252.85,-368.84 242.85,-372.34 252.85,-375.84 252.85,-368.84"/>
</a>
</g>
<text text-anchor="middle" x="291" y="-375.34" font-family="Helvetica,sans-Serif" font-size="10.00" fill="grey"> m_value</text>
</g>
<!-- Node13 -->
<g id="Node000013" class="node">
<title>Node13</title>
<g id="a_Node000013"><a xlink:href="../../db/d20/structlci_1_1option__t.html" target="_top" xlink:title=" ">
<polygon fill="white" stroke="#666666" points="459.5,-339.34 347.5,-339.34 347.5,-309.34 459.5,-309.34 459.5,-339.34"/>
<text text-anchor="start" x="355.5" y="-327.34" font-family="Helvetica,sans-Serif" font-size="10.00">lci::option_t&lt; comp</text>
<text text-anchor="middle" x="403.5" y="-316.34" font-family="Helvetica,sans-Serif" font-size="10.00">_semantic_t &gt;</text>
</a>
</g>
</g>
<!-- Node13&#45;&gt;Node1 -->
<g id="edge12_Node000001_Node000013" class="edge">
<title>Node13&#45;&gt;Node1</title>
<g id="a_edge12_Node000001_Node000013"><a xlink:title=" ">
<path fill="none" stroke="#9a32cd" stroke-dasharray="5,2" d="M469.78,-313.74C505.17,-307.73 549.61,-299.73 589,-291.34 596.73,-289.69 604.97,-287.76 612.8,-285.85"/>
<polygon fill="#9a32cd" stroke="#9a32cd" points="468.86,-310.35 459.58,-315.46 470.03,-317.25 468.86,-310.35"/>
</a>
</g>
<text text-anchor="middle" x="541" y="-312.34" font-family="Helvetica,sans-Serif" font-size="10.00" fill="grey"> m_comp_semantic</text>
</g>
<!-- Node14 -->
<g id="Node000014" class="node">
<title>Node14</title>
<g id="a_Node000014"><a xlink:href="../../db/d20/structlci_1_1option__t.html" target="_top" xlink:title=" ">
<polygon fill="white" stroke="#666666" points="451.5,-291.34 355.5,-291.34 355.5,-261.34 451.5,-261.34 451.5,-291.34"/>
<text text-anchor="start" x="363.5" y="-279.34" font-family="Helvetica,sans-Serif" font-size="10.00">lci::option_t&lt; lci</text>
<text text-anchor="middle" x="403.5" y="-268.34" font-family="Helvetica,sans-Serif" font-size="10.00">::mr_t &gt;</text>
</a>
</g>
</g>
<!-- Node14&#45;&gt;Node1 -->
<g id="edge13_Node000001_Node000014" class="edge">
<title>Node14&#45;&gt;Node1</title>
<g id="a_edge13_Node000001_Node000014"><a xlink:title=" ">
<path fill="none" stroke="#9a32cd" stroke-dasharray="5,2" d="M461.8,-276.34C506.21,-276.34 566.73,-276.34 606.91,-276.34"/>
<polygon fill="#9a32cd" stroke="#9a32cd" points="461.74,-272.84 451.74,-276.34 461.74,-279.84 461.74,-272.84"/>
</a>
</g>
<text text-anchor="middle" x="541" y="-279.34" font-family="Helvetica,sans-Serif" font-size="10.00" fill="grey"> m_mr</text>
</g>
<!-- Node15 -->
<g id="Node000015" class="node">
<title>Node15</title>
<g id="a_Node000015"><a xlink:href="../../d7/d1a/classlci_1_1mr__t.html" target="_top" xlink:title="The actual implementation for RESOURCE mr.">
<polygon fill="white" stroke="#666666" points="227.5,-285.84 171.5,-285.84 171.5,-266.84 227.5,-266.84 227.5,-285.84"/>
<text text-anchor="middle" x="199.5" y="-273.84" font-family="Helvetica,sans-Serif" font-size="10.00">lci::mr_t</text>
</a>
</g>
</g>
<!-- Node15&#45;&gt;Node14 -->
<g id="edge14_Node000014_Node000015" class="edge">
<title>Node15&#45;&gt;Node14</title>
<g id="a_edge14_Node000014_Node000015"><a xlink:title=" ">
<path fill="none" stroke="#9a32cd" stroke-dasharray="5,2" d="M237.91,-276.34C271.01,-276.34 319.46,-276.34 355.23,-276.34"/>
<polygon fill="#9a32cd" stroke="#9a32cd" points="237.74,-272.84 227.74,-276.34 237.74,-279.84 237.74,-272.84"/>
</a>
</g>
<text text-anchor="middle" x="291" y="-279.34" font-family="Helvetica,sans-Serif" font-size="10.00" fill="grey"> m_value</text>
</g>
<!-- Node16 -->
<g id="Node000016" class="node">
<title>Node16</title>
<g id="a_Node000016"><a xlink:href="../../db/d20/structlci_1_1option__t.html" target="_top" xlink:title=" ">
<polygon fill="white" stroke="#666666" points="464,-242.84 343,-242.84 343,-223.84 464,-223.84 464,-242.84"/>
<text text-anchor="middle" x="403.5" y="-230.84" font-family="Helvetica,sans-Serif" font-size="10.00">lci::option_t&lt; tag_t &gt;</text>
</a>
</g>
</g>
<!-- Node16&#45;&gt;Node1 -->
<g id="edge15_Node000001_Node000016" class="edge">
<title>Node16&#45;&gt;Node1</title>
<g id="a_edge15_Node000001_Node000016"><a xlink:title=" ">
<path fill="none" stroke="#9a32cd" stroke-dasharray="5,2" d="M474.18,-242.36C508.83,-247.24 551.26,-253.81 589,-261.34 596.96,-262.93 605.45,-264.87 613.47,-266.83"/>
<polygon fill="#9a32cd" stroke="#9a32cd" points="474.54,-238.88 464.15,-240.97 473.58,-245.81 474.54,-238.88"/>
</a>
</g>
<text text-anchor="middle" x="541" y="-264.34" font-family="Helvetica,sans-Serif" font-size="10.00" fill="grey"> m_tag</text>
</g>
<!-- Node17 -->
<g id="Node000017" class="node">
<title>Node17</title>
<g id="a_Node000017"><a xlink:href="../../db/d20/structlci_1_1option__t.html" target="_top" xlink:title=" ">
<polygon fill="white" stroke="#666666" points="471.5,-205.84 335.5,-205.84 335.5,-186.84 471.5,-186.84 471.5,-205.84"/>
<text text-anchor="middle" x="403.5" y="-193.84" font-family="Helvetica,sans-Serif" font-size="10.00">lci::option_t&lt; rcomp_t &gt;</text>
</a>
</g>
</g>
<!-- Node17&#45;&gt;Node1 -->
<g id="edge16_Node000001_Node000017" class="edge">
<title>Node17&#45;&gt;Node1</title>
<g id="a_edge16_Node000001_Node000017"><a xlink:title=" ">
<path fill="none" stroke="#9a32cd" stroke-dasharray="5,2" d="M482.01,-201.8C515.96,-206.3 555.59,-214.47 589,-229.34 609.41,-238.42 629.09,-255.83 640.2,-266.72"/>
<polygon fill="#9a32cd" stroke="#9a32cd" points="482.02,-198.28 471.67,-200.53 481.17,-205.23 482.02,-198.28"/>
</a>
</g>
<text text-anchor="middle" x="541" y="-232.34" font-family="Helvetica,sans-Serif" font-size="10.00" fill="grey"> m_remote_comp</text>
</g>
<!-- Node18 -->
<g id="Node000018" class="node">
<title>Node18</title>
<g id="a_Node000018"><a xlink:href="../../db/d20/structlci_1_1option__t.html" target="_top" xlink:title=" ">
<polygon fill="white" stroke="#666666" points="466,-168.84 341,-168.84 341,-149.84 466,-149.84 466,-168.84"/>
<text text-anchor="middle" x="403.5" y="-156.84" font-family="Helvetica,sans-Serif" font-size="10.00">lci::option_t&lt; void * &gt;</text>
</a>
</g>
</g>
<!-- Node18&#45;&gt;Node1 -->
<g id="edge17_Node000001_Node000018" class="edge">
<title>Node18&#45;&gt;Node1</title>
<g id="a_edge17_Node000001_Node000018"><a xlink:title=" ">
<path fill="none" stroke="#9a32cd" stroke-dasharray="5,2" d="M476.11,-157.55C512.37,-159.73 555.65,-167.33 589,-188.34 619.43,-207.51 638.48,-248.16 645.93,-266.73"/>
<polygon fill="#9a32cd" stroke="#9a32cd" points="476.23,-154.05 466.08,-157.07 475.9,-161.04 476.23,-154.05"/>
</a>
</g>
<text text-anchor="middle" x="541" y="-191.34" font-family="Helvetica,sans-Serif" font-size="10.00" fill="grey"> m_user_context</text>
</g>
<!-- Node19 -->
<g id="Node000019" class="node">
<title>Node19</title>
<g id="a_Node000019"><a xlink:href="../../db/d20/structlci_1_1option__t.html" target="_top" xlink:title=" ">
<polygon fill="white" stroke="#666666" points="473,-131.84 334,-131.84 334,-112.84 473,-112.84 473,-131.84"/>
<text text-anchor="middle" x="403.5" y="-119.84" font-family="Helvetica,sans-Serif" font-size="10.00">lci::option_t&lt; buffers_t &gt;</text>
</a>
</g>
</g>
<!-- Node19&#45;&gt;Node1 -->
<g id="edge18_Node000001_Node000019" class="edge">
<title>Node19&#45;&gt;Node1</title>
<g id="a_edge18_Node000001_Node000019"><a xlink:title=" ">
<path fill="none" stroke="#9a32cd" stroke-dasharray="5,2" d="M483.34,-114.59C518.64,-115.07 558.98,-121.51 589,-143.34 631.27,-174.07 644.69,-241.46 648.31,-266.62"/>
<polygon fill="#9a32cd" stroke="#9a32cd" points="483.04,-111.09 473.05,-114.61 483.06,-118.09 483.04,-111.09"/>
</a>
</g>
<text text-anchor="middle" x="541" y="-146.34" font-family="Helvetica,sans-Serif" font-size="10.00" fill="grey"> m_buffers</text>
</g>
<!-- Node20 -->
<g id="Node000020" class="node">
<title>Node20</title>
<g id="a_Node000020"><a xlink:href="../../db/d20/structlci_1_1option__t.html" target="_top" xlink:title=" ">
<polygon fill="white" stroke="#666666" points="475,-94.84 332,-94.84 332,-75.84 475,-75.84 475,-94.84"/>
<text text-anchor="middle" x="403.5" y="-82.84" font-family="Helvetica,sans-Serif" font-size="10.00">lci::option_t&lt; rbuffers_t &gt;</text>
</a>
</g>
</g>
<!-- Node20&#45;&gt;Node1 -->
<g id="edge19_Node000001_Node000020" class="edge">
<title>Node20&#45;&gt;Node1</title>
<g id="a_edge19_Node000001_Node000020"><a xlink:title=" ">
<path fill="none" stroke="#9a32cd" stroke-dasharray="5,2" d="M460.49,-74.56C500.35,-70.17 553.01,-71.49 589,-99.34 643.7,-141.67 649.26,-236.09 649.58,-266.62"/>
<polygon fill="#9a32cd" stroke="#9a32cd" points="459.89,-71.1 450.4,-75.82 460.75,-78.05 459.89,-71.1"/>
</a>
</g>
<text text-anchor="middle" x="541" y="-102.34" font-family="Helvetica,sans-Serif" font-size="10.00" fill="grey"> m_rbuffers</text>
</g>
<!-- Node21 -->
<g id="Node000021" class="node">
<title>Node21</title>
<g id="a_Node000021"><a xlink:href="../../db/d20/structlci_1_1option__t.html" target="_top" xlink:title=" ">
<polygon fill="white" stroke="#666666" points="462,-29.84 345,-29.84 345,-10.84 462,-10.84 462,-29.84"/>
<text text-anchor="middle" x="403.5" y="-17.84" font-family="Helvetica,sans-Serif" font-size="10.00">lci::option_t&lt; bool &gt;</text>
</a>
</g>
</g>
<!-- Node21&#45;&gt;Node1 -->
<g id="edge20_Node000001_Node000021" class="edge">
<title>Node21&#45;&gt;Node1</title>
<g id="a_edge20_Node000001_Node000021"><a xlink:title=" ">
<path fill="none" stroke="#9a32cd" stroke-dasharray="5,2" d="M444.67,-8.35C485.61,1.2 548.64,8.19 589,-24.34 628.15,-55.89 645.05,-224.43 648.72,-266.71"/>
<polygon fill="#9a32cd" stroke="#9a32cd" points="443.63,-5 434.77,-10.81 445.32,-11.79 443.63,-5"/>
</a>
</g>
<text text-anchor="middle" x="541" y="-60.34" font-family="Helvetica,sans-Serif" font-size="10.00" fill="grey"> m_allow_done</text>
<text text-anchor="middle" x="541" y="-49.34" font-family="Helvetica,sans-Serif" font-size="10.00" fill="grey">m_allow_posted</text>
<text text-anchor="middle" x="541" y="-38.34" font-family="Helvetica,sans-Serif" font-size="10.00" fill="grey">m_allow_retry</text>
<text text-anchor="middle" x="541" y="-27.34" font-family="Helvetica,sans-Serif" font-size="10.00" fill="grey">m_force_zcopy</text>
</g>
</g>
</svg>
