<?xml version="1.0" encoding="UTF-8" standalone="no"?>
<!DOCTYPE svg PUBLIC "-//W3C//DTD SVG 1.1//EN"
 "http://www.w3.org/Graphics/SVG/1.1/DTD/svg11.dtd">
<!-- Generated by graphviz version 2.43.0 (0)
 -->
<!-- Title: lci::graph_add_edge_x::graph_add_edge_x Pages: 1 -->
<svg width="733pt" height="230pt"
 viewBox="0.00 0.00 733.00 230.00" xmlns="http://www.w3.org/2000/svg" xmlns:xlink="http://www.w3.org/1999/xlink">
<g id="graph0" class="graph" transform="scale(1 1) rotate(0) translate(4 226)">
<title>lci::graph_add_edge_x::graph_add_edge_x</title>
<!-- Node1 -->
<g id="Node000001" class="node">
<title>Node1</title>
<g id="a_Node000001"><a xlink:title=" ">
<polygon fill="#999999" stroke="#666666" points="725,-126 600,-126 600,-96 725,-96 725,-126"/>
<text text-anchor="start" x="608" y="-114" font-family="Helvetica,sans-Serif" font-size="10.00">lci::graph_add_edge</text>
<text text-anchor="middle" x="662.5" y="-103" font-family="Helvetica,sans-Serif" font-size="10.00">_x::graph_add_edge_x</text>
</a>
</g>
</g>
<!-- Node2 -->
<g id="Node000002" class="node">
<title>Node2</title>
<g id="a_Node000002"><a xlink:href="../../df/d73/classlci_1_1graph__add__edge__x.html#aaf605acd346ea0fad4733e3131c667b3" target="_top" xlink:title=" ">
<polygon fill="white" stroke="#666666" points="564,-222 450,-222 450,-192 564,-192 564,-222"/>
<text text-anchor="start" x="458" y="-210" font-family="Helvetica,sans-Serif" font-size="10.00">lci::graph_add_edge</text>
<text text-anchor="middle" x="507" y="-199" font-family="Helvetica,sans-Serif" font-size="10.00">_x::comp</text>
</a>
</g>
</g>
<!-- Node1&#45;&gt;Node2 -->
<g id="edge1_Node000001_Node000002" class="edge">
<title>Node1&#45;&gt;Node2</title>
<g id="a_edge1_Node000001_Node000002"><a xlink:title=" ">
<path fill="none" stroke="#63b8ff" d="M635.78,-132.56C616.75,-147.87 589.76,-168.23 564,-183 558.49,-186.16 552.49,-189.15 546.53,-191.89"/>
<polygon fill="#63b8ff" stroke="#63b8ff" points="638.13,-135.16 643.68,-126.14 633.71,-129.73 638.13,-135.16"/>
</a>
</g>
</g>
<!-- Node7 -->
<g id="Node000007" class="node">
<title>Node7</title>
<g id="a_Node000007"><a xlink:href="../../df/d73/classlci_1_1graph__add__edge__x.html#a3aba9b4de676a4a1e73dba7329c31c06" target="_top" xlink:title=" ">
<polygon fill="white" stroke="#666666" points="564,-174 450,-174 450,-144 564,-144 564,-174"/>
<text text-anchor="start" x="458" y="-162" font-family="Helvetica,sans-Serif" font-size="10.00">lci::graph_add_edge</text>
<text text-anchor="middle" x="507" y="-151" font-family="Helvetica,sans-Serif" font-size="10.00">_x::dst</text>
</a>
</g>
</g>
<!-- Node1&#45;&gt;Node7 -->
<g id="edge7_Node000001_Node000007" class="edge">
<title>Node1&#45;&gt;Node7</title>
<g id="a_edge7_Node000001_Node000007"><a xlink:title=" ">
<path fill="none" stroke="#63b8ff" d="M603.72,-129.07C587.98,-133.99 571.11,-139.27 555.98,-144"/>
<polygon fill="#63b8ff" stroke="#63b8ff" points="604.85,-132.38 613.35,-126.06 602.76,-125.7 604.85,-132.38"/>
</a>
</g>
</g>
<!-- Node8 -->
<g id="Node000008" class="node">
<title>Node8</title>
<g id="a_Node000008"><a xlink:href="../../df/d73/classlci_1_1graph__add__edge__x.html#a5dd3453f4b420ce4ddc79ece25da243b" target="_top" xlink:title=" ">
<polygon fill="white" stroke="#666666" points="564,-126 450,-126 450,-96 564,-96 564,-126"/>
<text text-anchor="start" x="458" y="-114" font-family="Helvetica,sans-Serif" font-size="10.00">lci::graph_add_edge</text>
<text text-anchor="middle" x="507" y="-103" font-family="Helvetica,sans-Serif" font-size="10.00">_x::fn</text>
</a>
</g>
</g>
<!-- Node1&#45;&gt;Node8 -->
<g id="edge10_Node000001_Node000008" class="edge">
<title>Node1&#45;&gt;Node8</title>
<g id="a_edge10_Node000001_Node000008"><a xlink:title=" ">
<path fill="none" stroke="#63b8ff" d="M589.86,-111C581.22,-111 572.48,-111 564.1,-111"/>
<polygon fill="#63b8ff" stroke="#63b8ff" points="589.95,-114.5 599.95,-111 589.95,-107.5 589.95,-114.5"/>
</a>
</g>
</g>
<!-- Node9 -->
<g id="Node000009" class="node">
<title>Node9</title>
<g id="a_Node000009"><a xlink:href="../../df/d73/classlci_1_1graph__add__edge__x.html#ac744065067999b8802566172c0c0b7c8" target="_top" xlink:title=" ">
<polygon fill="white" stroke="#666666" points="564,-78 450,-78 450,-48 564,-48 564,-78"/>
<text text-anchor="start" x="458" y="-66" font-family="Helvetica,sans-Serif" font-size="10.00">lci::graph_add_edge</text>
<text text-anchor="middle" x="507" y="-55" font-family="Helvetica,sans-Serif" font-size="10.00">_x::runtime</text>
</a>
</g>
</g>
<!-- Node1&#45;&gt;Node9 -->
<g id="edge13_Node000001_Node000009" class="edge">
<title>Node1&#45;&gt;Node9</title>
<g id="a_edge13_Node000001_Node000009"><a xlink:title=" ">
<path fill="none" stroke="#63b8ff" d="M603.72,-92.93C587.98,-88.01 571.11,-82.73 555.98,-78"/>
<polygon fill="#63b8ff" stroke="#63b8ff" points="602.76,-96.3 613.35,-95.94 604.85,-89.62 602.76,-96.3"/>
</a>
</g>
</g>
<!-- Node10 -->
<g id="Node000010" class="node">
<title>Node10</title>
<g id="a_Node000010"><a xlink:href="../../df/d73/classlci_1_1graph__add__edge__x.html#ad1a4f17616c7d972a37e3151216f7386" target="_top" xlink:title=" ">
<polygon fill="white" stroke="#666666" points="564,-30 450,-30 450,0 564,0 564,-30"/>
<text text-anchor="start" x="458" y="-18" font-family="Helvetica,sans-Serif" font-size="10.00">lci::graph_add_edge</text>
<text text-anchor="middle" x="507" y="-7" font-family="Helvetica,sans-Serif" font-size="10.00">_x::src</text>
</a>
</g>
</g>
<!-- Node1&#45;&gt;Node10 -->
<g id="edge16_Node000001_Node000010" class="edge">
<title>Node1&#45;&gt;Node10</title>
<g id="a_edge16_Node000001_Node000010"><a xlink:title=" ">
<path fill="none" stroke="#63b8ff" d="M635.78,-89.44C616.75,-74.13 589.76,-53.77 564,-39 558.49,-35.84 552.49,-32.85 546.53,-30.11"/>
<polygon fill="#63b8ff" stroke="#63b8ff" points="633.71,-92.27 643.68,-95.86 638.13,-86.84 633.71,-92.27"/>
</a>
</g>
</g>
<!-- Node3 -->
<g id="Node000003" class="node">
<title>Node3</title>
<g id="a_Node000003"><a xlink:href="../../df/d73/classlci_1_1graph__add__edge__x.html#a3365585b28626943cd6e9b0dd8f97ddd" target="_top" xlink:title=" ">
<polygon fill="white" stroke="#666666" points="264,-123 150,-123 150,-93 264,-93 264,-123"/>
<text text-anchor="start" x="158" y="-111" font-family="Helvetica,sans-Serif" font-size="10.00">lci::graph_add_edge</text>
<text text-anchor="middle" x="207" y="-100" font-family="Helvetica,sans-Serif" font-size="10.00">_x::call</text>
</a>
</g>
</g>
<!-- Node2&#45;&gt;Node3 -->
<g id="edge2_Node000002_Node000003" class="edge">
<title>Node2&#45;&gt;Node3</title>
<g id="a_edge2_Node000002_Node000003"><a xlink:title=" ">
<path fill="none" stroke="#63b8ff" d="M439.95,-203.67C398.49,-199.77 344.61,-191.3 300,-173 270.87,-161.05 241.99,-138.42 224.57,-123.27"/>
<polygon fill="#63b8ff" stroke="#63b8ff" points="439.67,-207.16 449.94,-204.55 440.29,-200.19 439.67,-207.16"/>
</a>
</g>
</g>
<!-- Node6 -->
<g id="Node000006" class="node">
<title>Node6</title>
<g id="a_Node000006"><a xlink:href="../../df/d73/classlci_1_1graph__add__edge__x.html#a05161f40b03f1c6b07801cb32509992a" target="_top" xlink:title=" ">
<polygon fill="white" stroke="#666666" points="414,-145 300,-145 300,-115 414,-115 414,-145"/>
<text text-anchor="start" x="308" y="-133" font-family="Helvetica,sans-Serif" font-size="10.00">lci::graph_add_edge</text>
<text text-anchor="middle" x="357" y="-122" font-family="Helvetica,sans-Serif" font-size="10.00">_x::call_impl</text>
</a>
</g>
</g>
<!-- Node2&#45;&gt;Node6 -->
<g id="edge5_Node000002_Node000006" class="edge">
<title>Node2&#45;&gt;Node6</title>
<g id="a_edge5_Node000002_Node000006"><a xlink:title=" ">
<path fill="none" stroke="#63b8ff" d="M460.12,-187.86C456.67,-186.26 453.27,-184.63 450,-183 426.59,-171.29 400.84,-156.27 382.56,-145.2"/>
<polygon fill="#63b8ff" stroke="#63b8ff" points="458.71,-191.07 469.27,-191.99 461.59,-184.69 458.71,-191.07"/>
</a>
</g>
</g>
<!-- Node4 -->
<g id="Node000004" class="node">
<title>Node4</title>
<g id="a_Node000004"><a xlink:href="../../d5/dd3/namespacelci.html#a7ad5e9b11b95bc70fc8baac9992ef732" target="_top" xlink:title=" ">
<polygon fill="white" stroke="#666666" points="114,-139.5 0,-139.5 0,-120.5 114,-120.5 114,-139.5"/>
<text text-anchor="middle" x="57" y="-127.5" font-family="Helvetica,sans-Serif" font-size="10.00">lci::graph_add_edge</text>
</a>
</g>
</g>
<!-- Node3&#45;&gt;Node4 -->
<g id="edge3_Node000003_Node000004" class="edge">
<title>Node3&#45;&gt;Node4</title>
<g id="a_edge3_Node000003_Node000004"><a xlink:title=" ">
<path fill="none" stroke="#63b8ff" d="M139.72,-117.85C131.2,-119.12 122.55,-120.4 114.22,-121.64"/>
<polygon fill="#63b8ff" stroke="#63b8ff" points="140.25,-121.31 149.63,-116.38 139.22,-114.39 140.25,-121.31"/>
</a>
</g>
</g>
<!-- Node5 -->
<g id="Node000005" class="node">
<title>Node5</title>
<g id="a_Node000005"><a xlink:href="../../df/d73/classlci_1_1graph__add__edge__x.html#a958771876deb0abaa8c00ab52ba388ae" target="_top" xlink:title=" ">
<polygon fill="white" stroke="#666666" points="114,-102 0,-102 0,-72 114,-72 114,-102"/>
<text text-anchor="start" x="8" y="-90" font-family="Helvetica,sans-Serif" font-size="10.00">lci::graph_add_edge</text>
<text text-anchor="middle" x="57" y="-79" font-family="Helvetica,sans-Serif" font-size="10.00">_x::operator()</text>
</a>
</g>
</g>
<!-- Node3&#45;&gt;Node5 -->
<g id="edge4_Node000003_Node000005" class="edge">
<title>Node3&#45;&gt;Node5</title>
<g id="a_edge4_Node000003_Node000005"><a xlink:title=" ">
<path fill="none" stroke="#63b8ff" d="M139.72,-98.6C131.2,-97.39 122.55,-96.16 114.22,-94.98"/>
<polygon fill="#63b8ff" stroke="#63b8ff" points="139.23,-102.06 149.63,-100 140.22,-95.13 139.23,-102.06"/>
</a>
</g>
</g>
<!-- Node6&#45;&gt;Node3 -->
<g id="edge6_Node000006_Node000003" class="edge">
<title>Node6&#45;&gt;Node3</title>
<g id="a_edge6_Node000006_Node000003"><a xlink:title=" ">
<path fill="none" stroke="#63b8ff" d="M289.72,-120.15C281.2,-118.88 272.55,-117.6 264.22,-116.36"/>
<polygon fill="#63b8ff" stroke="#63b8ff" points="289.22,-123.61 299.63,-121.62 290.25,-116.69 289.22,-123.61"/>
</a>
</g>
</g>
<!-- Node7&#45;&gt;Node3 -->
<g id="edge8_Node000007_Node000003" class="edge">
<title>Node7&#45;&gt;Node3</title>
<g id="a_edge8_Node000007_Node000003"><a xlink:title=" ">
<path fill="none" stroke="#63b8ff" d="M439.49,-164.67C398.65,-166.37 345.6,-165.35 300,-154 275.05,-147.79 249.06,-134.01 231.09,-123.14"/>
<polygon fill="#63b8ff" stroke="#63b8ff" points="439.78,-168.16 449.6,-164.18 439.44,-161.17 439.78,-168.16"/>
</a>
</g>
</g>
<!-- Node7&#45;&gt;Node6 -->
<g id="edge9_Node000007_Node000006" class="edge">
<title>Node7&#45;&gt;Node6</title>
<g id="a_edge9_Node000007_Node000006"><a xlink:title=" ">
<path fill="none" stroke="#63b8ff" d="M439.72,-146.01C431.2,-144.34 422.55,-142.65 414.22,-141.02"/>
<polygon fill="#63b8ff" stroke="#63b8ff" points="439.14,-149.47 449.63,-147.95 440.49,-142.6 439.14,-149.47"/>
</a>
</g>
</g>
<!-- Node8&#45;&gt;Node3 -->
<g id="edge11_Node000008_Node000003" class="edge">
<title>Node8&#45;&gt;Node3</title>
<g id="a_edge11_Node000008_Node000003"><a xlink:title=" ">
<path fill="none" stroke="#63b8ff" d="M439.56,-106.96C430.96,-106.56 422.27,-106.22 414,-106 363.41,-104.63 305.81,-105.38 264.4,-106.33"/>
<polygon fill="#63b8ff" stroke="#63b8ff" points="439.42,-110.46 449.58,-107.45 439.76,-103.47 439.42,-110.46"/>
</a>
</g>
</g>
<!-- Node8&#45;&gt;Node6 -->
<g id="edge12_Node000008_Node000006" class="edge">
<title>Node8&#45;&gt;Node6</title>
<g id="a_edge12_Node000008_Node000006"><a xlink:title=" ">
<path fill="none" stroke="#63b8ff" d="M439.44,-119.54C431.02,-120.63 422.46,-121.72 414.22,-122.78"/>
<polygon fill="#63b8ff" stroke="#63b8ff" points="440.15,-122.98 449.63,-118.24 439.26,-116.04 440.15,-122.98"/>
</a>
</g>
</g>
<!-- Node9&#45;&gt;Node3 -->
<g id="edge14_Node000009_Node000003" class="edge">
<title>Node9&#45;&gt;Node3</title>
<g id="a_edge14_Node000009_Node000003"><a xlink:title=" ">
<path fill="none" stroke="#63b8ff" d="M440.01,-72.97C387.22,-80.94 314.03,-91.99 264.05,-99.54"/>
<polygon fill="#63b8ff" stroke="#63b8ff" points="440.58,-76.42 449.95,-71.46 439.54,-69.5 440.58,-76.42"/>
</a>
</g>
</g>
<!-- Node9&#45;&gt;Node6 -->
<g id="edge15_Node000009_Node000006" class="edge">
<title>Node9&#45;&gt;Node6</title>
<g id="a_edge15_Node000009_Node000006"><a xlink:title=" ">
<path fill="none" stroke="#63b8ff" d="M461.07,-82.1C457.32,-83.75 453.59,-85.39 450,-87 429.89,-96.01 407.48,-106.47 389.82,-114.82"/>
<polygon fill="#63b8ff" stroke="#63b8ff" points="462.6,-85.26 470.38,-78.06 459.81,-78.84 462.6,-85.26"/>
</a>
</g>
</g>
<!-- Node10&#45;&gt;Node3 -->
<g id="edge17_Node000010_Node000003" class="edge">
<title>Node10&#45;&gt;Node3</title>
<g id="a_edge17_Node000010_Node000003"><a xlink:title=" ">
<path fill="none" stroke="#63b8ff" d="M439.85,-32.02C399.22,-42.86 346.28,-57.71 300,-73 281.83,-79 261.94,-86.45 245.33,-92.93"/>
<polygon fill="#63b8ff" stroke="#63b8ff" points="440.87,-35.37 449.63,-29.42 439.07,-28.6 440.87,-35.37"/>
</a>
</g>
</g>
<!-- Node10&#45;&gt;Node6 -->
<g id="edge18_Node000010_Node000006" class="edge">
<title>Node10&#45;&gt;Node6</title>
<g id="a_edge18_Node000010_Node000006"><a xlink:title=" ">
<path fill="none" stroke="#63b8ff" d="M456.71,-34.83C454.4,-36.16 452.15,-37.55 450,-39 417.57,-60.83 386.72,-95.02 370.29,-114.69"/>
<polygon fill="#63b8ff" stroke="#63b8ff" points="458.66,-37.77 465.86,-30 455.39,-31.58 458.66,-37.77"/>
</a>
</g>
</g>
</g>
</svg>
