<?xml version="1.0" encoding="UTF-8" standalone="no"?>
<!DOCTYPE svg PUBLIC "-//W3C//DTD SVG 1.1//EN"
 "http://www.w3.org/Graphics/SVG/1.1/DTD/svg11.dtd">
<!-- Generated by graphviz version 2.43.0 (0)
 -->
<!-- Title: lci::graph_add_edge_x::call Pages: 1 -->
<svg width="583pt" height="230pt"
 viewBox="0.00 0.00 583.00 230.00" xmlns="http://www.w3.org/2000/svg" xmlns:xlink="http://www.w3.org/1999/xlink">
<g id="graph0" class="graph" transform="scale(1 1) rotate(0) translate(4 226)">
<title>lci::graph_add_edge_x::call</title>
<!-- Node1 -->
<g id="Node000001" class="node">
<title>Node1</title>
<g id="a_Node000001"><a xlink:title=" ">
<polygon fill="#999999" stroke="#666666" points="114,-123 0,-123 0,-93 114,-93 114,-123"/>
<text text-anchor="start" x="8" y="-111" font-family="Helvetica,sans-Serif" font-size="10.00">lci::graph_add_edge</text>
<text text-anchor="middle" x="57" y="-100" font-family="Helvetica,sans-Serif" font-size="10.00">_x::call</text>
</a>
</g>
</g>
<!-- Node2 -->
<g id="Node000002" class="node">
<title>Node2</title>
<g id="a_Node000002"><a xlink:href="../../df/d73/classlci_1_1graph__add__edge__x.html#a05161f40b03f1c6b07801cb32509992a" target="_top" xlink:title=" ">
<polygon fill="white" stroke="#666666" points="264,-145 150,-145 150,-115 264,-115 264,-145"/>
<text text-anchor="start" x="158" y="-133" font-family="Helvetica,sans-Serif" font-size="10.00">lci::graph_add_edge</text>
<text text-anchor="middle" x="207" y="-122" font-family="Helvetica,sans-Serif" font-size="10.00">_x::call_impl</text>
</a>
</g>
</g>
<!-- Node1&#45;&gt;Node2 -->
<g id="edge1_Node000001_Node000002" class="edge">
<title>Node1&#45;&gt;Node2</title>
<g id="a_edge1_Node000001_Node000002"><a xlink:title=" ">
<path fill="none" stroke="#63b8ff" d="M114.37,-116.38C122.71,-117.62 131.37,-118.91 139.88,-120.17"/>
<polygon fill="#63b8ff" stroke="#63b8ff" points="139.38,-123.63 149.78,-121.64 140.41,-116.71 139.38,-123.63"/>
</a>
</g>
</g>
<!-- Node3 -->
<g id="Node000003" class="node">
<title>Node3</title>
<g id="a_Node000003"><a xlink:href="../../df/d73/classlci_1_1graph__add__edge__x.html#aaf605acd346ea0fad4733e3131c667b3" target="_top" xlink:title=" ">
<polygon fill="white" stroke="#666666" points="414,-222 300,-222 300,-192 414,-192 414,-222"/>
<text text-anchor="start" x="308" y="-210" font-family="Helvetica,sans-Serif" font-size="10.00">lci::graph_add_edge</text>
<text text-anchor="middle" x="357" y="-199" font-family="Helvetica,sans-Serif" font-size="10.00">_x::comp</text>
</a>
</g>
</g>
<!-- Node1&#45;&gt;Node3 -->
<g id="edge12_Node000001_Node000003" class="edge">
<title>Node1&#45;&gt;Node3</title>
<g id="a_edge12_Node000001_Node000003"><a xlink:title=" ">
<path fill="none" stroke="#63b8ff" d="M74.57,-123.27C91.99,-138.42 120.87,-161.05 150,-173 194.61,-191.3 248.49,-199.77 289.95,-203.67"/>
<polygon fill="#63b8ff" stroke="#63b8ff" points="289.67,-207.16 299.94,-204.55 290.29,-200.19 289.67,-207.16"/>
</a>
</g>
</g>
<!-- Node5 -->
<g id="Node000005" class="node">
<title>Node5</title>
<g id="a_Node000005"><a xlink:href="../../df/d73/classlci_1_1graph__add__edge__x.html#a3aba9b4de676a4a1e73dba7329c31c06" target="_top" xlink:title=" ">
<polygon fill="white" stroke="#666666" points="414,-174 300,-174 300,-144 414,-144 414,-174"/>
<text text-anchor="start" x="308" y="-162" font-family="Helvetica,sans-Serif" font-size="10.00">lci::graph_add_edge</text>
<text text-anchor="middle" x="357" y="-151" font-family="Helvetica,sans-Serif" font-size="10.00">_x::dst</text>
</a>
</g>
</g>
<!-- Node1&#45;&gt;Node5 -->
<g id="edge13_Node000001_Node000005" class="edge">
<title>Node1&#45;&gt;Node5</title>
<g id="a_edge13_Node000001_Node000005"><a xlink:title=" ">
<path fill="none" stroke="#63b8ff" d="M81.09,-123.14C99.06,-134.01 125.05,-147.79 150,-154 195.6,-165.35 248.65,-166.37 289.49,-164.67"/>
<polygon fill="#63b8ff" stroke="#63b8ff" points="289.78,-168.16 299.6,-164.18 289.44,-161.17 289.78,-168.16"/>
</a>
</g>
</g>
<!-- Node6 -->
<g id="Node000006" class="node">
<title>Node6</title>
<g id="a_Node000006"><a xlink:href="../../df/d73/classlci_1_1graph__add__edge__x.html#a5dd3453f4b420ce4ddc79ece25da243b" target="_top" xlink:title=" ">
<polygon fill="white" stroke="#666666" points="414,-126 300,-126 300,-96 414,-96 414,-126"/>
<text text-anchor="start" x="308" y="-114" font-family="Helvetica,sans-Serif" font-size="10.00">lci::graph_add_edge</text>
<text text-anchor="middle" x="357" y="-103" font-family="Helvetica,sans-Serif" font-size="10.00">_x::fn</text>
</a>
</g>
</g>
<!-- Node1&#45;&gt;Node6 -->
<g id="edge14_Node000001_Node000006" class="edge">
<title>Node1&#45;&gt;Node6</title>
<g id="a_edge14_Node000001_Node000006"><a xlink:title=" ">
<path fill="none" stroke="#63b8ff" d="M114.4,-106.33C155.81,-105.38 213.41,-104.63 264,-106 272.27,-106.22 280.96,-106.56 289.56,-106.96"/>
<polygon fill="#63b8ff" stroke="#63b8ff" points="289.42,-110.46 299.58,-107.45 289.76,-103.47 289.42,-110.46"/>
</a>
</g>
</g>
<!-- Node7 -->
<g id="Node000007" class="node">
<title>Node7</title>
<g id="a_Node000007"><a xlink:href="../../df/d73/classlci_1_1graph__add__edge__x.html#ac744065067999b8802566172c0c0b7c8" target="_top" xlink:title=" ">
<polygon fill="white" stroke="#666666" points="414,-78 300,-78 300,-48 414,-48 414,-78"/>
<text text-anchor="start" x="308" y="-66" font-family="Helvetica,sans-Serif" font-size="10.00">lci::graph_add_edge</text>
<text text-anchor="middle" x="357" y="-55" font-family="Helvetica,sans-Serif" font-size="10.00">_x::runtime</text>
</a>
</g>
</g>
<!-- Node1&#45;&gt;Node7 -->
<g id="edge15_Node000001_Node000007" class="edge">
<title>Node1&#45;&gt;Node7</title>
<g id="a_edge15_Node000001_Node000007"><a xlink:title=" ">
<path fill="none" stroke="#63b8ff" d="M114.05,-99.54C164.02,-91.99 237.22,-80.94 290.01,-72.97"/>
<polygon fill="#63b8ff" stroke="#63b8ff" points="290.58,-76.42 299.95,-71.46 289.54,-69.5 290.58,-76.42"/>
</a>
</g>
</g>
<!-- Node8 -->
<g id="Node000008" class="node">
<title>Node8</title>
<g id="a_Node000008"><a xlink:href="../../df/d73/classlci_1_1graph__add__edge__x.html#ad1a4f17616c7d972a37e3151216f7386" target="_top" xlink:title=" ">
<polygon fill="white" stroke="#666666" points="414,-30 300,-30 300,0 414,0 414,-30"/>
<text text-anchor="start" x="308" y="-18" font-family="Helvetica,sans-Serif" font-size="10.00">lci::graph_add_edge</text>
<text text-anchor="middle" x="357" y="-7" font-family="Helvetica,sans-Serif" font-size="10.00">_x::src</text>
</a>
</g>
</g>
<!-- Node1&#45;&gt;Node8 -->
<g id="edge16_Node000001_Node000008" class="edge">
<title>Node1&#45;&gt;Node8</title>
<g id="a_edge16_Node000001_Node000008"><a xlink:title=" ">
<path fill="none" stroke="#63b8ff" d="M95.33,-92.93C111.94,-86.45 131.83,-79 150,-73 196.28,-57.71 249.22,-42.86 289.85,-32.02"/>
<polygon fill="#63b8ff" stroke="#63b8ff" points="290.87,-35.37 299.63,-29.42 289.07,-28.6 290.87,-35.37"/>
</a>
</g>
</g>
<!-- Node2&#45;&gt;Node3 -->
<g id="edge2_Node000002_Node000003" class="edge">
<title>Node2&#45;&gt;Node3</title>
<g id="a_edge2_Node000002_Node000003"><a xlink:title=" ">
<path fill="none" stroke="#63b8ff" d="M232.56,-145.2C250.84,-156.27 276.59,-171.29 300,-183 303.27,-184.63 306.67,-186.26 310.12,-187.86"/>
<polygon fill="#63b8ff" stroke="#63b8ff" points="308.71,-191.07 319.27,-191.99 311.59,-184.69 308.71,-191.07"/>
</a>
</g>
</g>
<!-- Node2&#45;&gt;Node5 -->
<g id="edge4_Node000002_Node000005" class="edge">
<title>Node2&#45;&gt;Node5</title>
<g id="a_edge4_Node000002_Node000005"><a xlink:title=" ">
<path fill="none" stroke="#63b8ff" d="M264.37,-141.05C272.71,-142.68 281.37,-144.38 289.88,-146.04"/>
<polygon fill="#63b8ff" stroke="#63b8ff" points="289.3,-149.5 299.78,-147.98 290.64,-142.63 289.3,-149.5"/>
</a>
</g>
</g>
<!-- Node2&#45;&gt;Node6 -->
<g id="edge6_Node000002_Node000006" class="edge">
<title>Node2&#45;&gt;Node6</title>
<g id="a_edge6_Node000002_Node000006"><a xlink:title=" ">
<path fill="none" stroke="#63b8ff" d="M264.37,-122.76C272.62,-121.7 281.18,-120.61 289.6,-119.52"/>
<polygon fill="#63b8ff" stroke="#63b8ff" points="290.31,-122.96 299.78,-118.22 289.42,-116.02 290.31,-122.96"/>
</a>
</g>
</g>
<!-- Node2&#45;&gt;Node7 -->
<g id="edge8_Node000002_Node000007" class="edge">
<title>Node2&#45;&gt;Node7</title>
<g id="a_edge8_Node000002_Node000007"><a xlink:title=" ">
<path fill="none" stroke="#63b8ff" d="M239.82,-114.82C257.48,-106.47 279.89,-96.01 300,-87 303.59,-85.39 307.32,-83.75 311.07,-82.1"/>
<polygon fill="#63b8ff" stroke="#63b8ff" points="312.6,-85.26 320.38,-78.06 309.81,-78.84 312.6,-85.26"/>
</a>
</g>
</g>
<!-- Node2&#45;&gt;Node8 -->
<g id="edge10_Node000002_Node000008" class="edge">
<title>Node2&#45;&gt;Node8</title>
<g id="a_edge10_Node000002_Node000008"><a xlink:title=" ">
<path fill="none" stroke="#63b8ff" d="M220.29,-114.69C236.72,-95.02 267.57,-60.83 300,-39 302.15,-37.55 304.4,-36.16 306.71,-34.83"/>
<polygon fill="#63b8ff" stroke="#63b8ff" points="308.66,-37.77 315.86,-30 305.39,-31.58 308.66,-37.77"/>
</a>
</g>
</g>
<!-- Node4 -->
<g id="Node000004" class="node">
<title>Node4</title>
<g id="a_Node000004"><a xlink:href="../../df/d73/classlci_1_1graph__add__edge__x.html#a39e93f4b22bf82dbb6abe51e9fc26fdd" target="_top" xlink:title=" ">
<polygon fill="white" stroke="#666666" points="575,-126 450,-126 450,-96 575,-96 575,-126"/>
<text text-anchor="start" x="458" y="-114" font-family="Helvetica,sans-Serif" font-size="10.00">lci::graph_add_edge</text>
<text text-anchor="middle" x="512.5" y="-103" font-family="Helvetica,sans-Serif" font-size="10.00">_x::graph_add_edge_x</text>
</a>
</g>
</g>
<!-- Node3&#45;&gt;Node4 -->
<g id="edge3_Node000003_Node000004" class="edge">
<title>Node3&#45;&gt;Node4</title>
<g id="a_edge3_Node000003_Node000004"><a xlink:title=" ">
<path fill="none" stroke="#63b8ff" d="M396.53,-191.89C402.49,-189.15 408.49,-186.16 414,-183 439.76,-168.23 466.75,-147.87 485.78,-132.56"/>
<polygon fill="#63b8ff" stroke="#63b8ff" points="488.13,-135.16 493.68,-126.14 483.71,-129.73 488.13,-135.16"/>
</a>
</g>
</g>
<!-- Node5&#45;&gt;Node4 -->
<g id="edge5_Node000005_Node000004" class="edge">
<title>Node5&#45;&gt;Node4</title>
<g id="a_edge5_Node000005_Node000004"><a xlink:title=" ">
<path fill="none" stroke="#63b8ff" d="M406.15,-143.94C421.29,-139.21 438.17,-133.93 453.9,-129.01"/>
<polygon fill="#63b8ff" stroke="#63b8ff" points="455.02,-132.33 463.52,-126 452.93,-125.65 455.02,-132.33"/>
</a>
</g>
</g>
<!-- Node6&#45;&gt;Node4 -->
<g id="edge7_Node000006_Node000004" class="edge">
<title>Node6&#45;&gt;Node4</title>
<g id="a_edge7_Node000006_Node000004"><a xlink:title=" ">
<path fill="none" stroke="#63b8ff" d="M414.29,-111C422.5,-111 431.05,-111 439.52,-111"/>
<polygon fill="#63b8ff" stroke="#63b8ff" points="439.79,-114.5 449.79,-111 439.79,-107.5 439.79,-114.5"/>
</a>
</g>
</g>
<!-- Node7&#45;&gt;Node4 -->
<g id="edge9_Node000007_Node000004" class="edge">
<title>Node7&#45;&gt;Node4</title>
<g id="a_edge9_Node000007_Node000004"><a xlink:title=" ">
<path fill="none" stroke="#63b8ff" d="M406.15,-78.06C421.29,-82.79 438.17,-88.07 453.9,-92.99"/>
<polygon fill="#63b8ff" stroke="#63b8ff" points="452.93,-96.35 463.52,-96 455.02,-89.67 452.93,-96.35"/>
</a>
</g>
</g>
<!-- Node8&#45;&gt;Node4 -->
<g id="edge11_Node000008_Node000004" class="edge">
<title>Node8&#45;&gt;Node4</title>
<g id="a_edge11_Node000008_Node000004"><a xlink:title=" ">
<path fill="none" stroke="#63b8ff" d="M396.53,-30.11C402.49,-32.85 408.49,-35.84 414,-39 439.76,-53.77 466.75,-74.13 485.78,-89.44"/>
<polygon fill="#63b8ff" stroke="#63b8ff" points="483.71,-92.27 493.68,-95.86 488.13,-86.84 483.71,-92.27"/>
</a>
</g>
</g>
</g>
</svg>
