<?xml version="1.0" encoding="UTF-8" standalone="no"?>
<!DOCTYPE svg PUBLIC "-//W3C//DTD SVG 1.1//EN"
 "http://www.w3.org/Graphics/SVG/1.1/DTD/svg11.dtd">
<!-- Generated by graphviz version 2.43.0 (0)
 -->
<!-- Title: lci::graph_add_edge_x::operator() Pages: 1 -->
<svg width="733pt" height="230pt"
 viewBox="0.00 0.00 733.00 230.00" xmlns="http://www.w3.org/2000/svg" xmlns:xlink="http://www.w3.org/1999/xlink">
<g id="graph0" class="graph" transform="scale(1 1) rotate(0) translate(4 226)">
<title>lci::graph_add_edge_x::operator()</title>
<!-- Node1 -->
<g id="Node000001" class="node">
<title>Node1</title>
<g id="a_Node000001"><a xlink:title=" ">
<polygon fill="#999999" stroke="#666666" points="114,-123 0,-123 0,-93 114,-93 114,-123"/>
<text text-anchor="start" x="8" y="-111" font-family="Helvetica,sans-Serif" font-size="10.00">lci::graph_add_edge</text>
<text text-anchor="middle" x="57" y="-100" font-family="Helvetica,sans-Serif" font-size="10.00">_x::operator()</text>
</a>
</g>
</g>
<!-- Node2 -->
<g id="Node000002" class="node">
<title>Node2</title>
<g id="a_Node000002"><a xlink:href="../../df/d73/classlci_1_1graph__add__edge__x.html#a3365585b28626943cd6e9b0dd8f97ddd" target="_top" xlink:title=" ">
<polygon fill="white" stroke="#666666" points="264,-123 150,-123 150,-93 264,-93 264,-123"/>
<text text-anchor="start" x="158" y="-111" font-family="Helvetica,sans-Serif" font-size="10.00">lci::graph_add_edge</text>
<text text-anchor="middle" x="207" y="-100" font-family="Helvetica,sans-Serif" font-size="10.00">_x::call</text>
</a>
</g>
</g>
<!-- Node1&#45;&gt;Node2 -->
<g id="edge1_Node000001_Node000002" class="edge">
<title>Node1&#45;&gt;Node2</title>
<g id="a_edge1_Node000001_Node000002"><a xlink:title=" ">
<path fill="none" stroke="#63b8ff" d="M114.37,-108C122.62,-108 131.18,-108 139.6,-108"/>
<polygon fill="#63b8ff" stroke="#63b8ff" points="139.78,-111.5 149.78,-108 139.78,-104.5 139.78,-111.5"/>
</a>
</g>
</g>
<!-- Node3 -->
<g id="Node000003" class="node">
<title>Node3</title>
<g id="a_Node000003"><a xlink:href="../../df/d73/classlci_1_1graph__add__edge__x.html#a05161f40b03f1c6b07801cb32509992a" target="_top" xlink:title=" ">
<polygon fill="white" stroke="#666666" points="414,-145 300,-145 300,-115 414,-115 414,-145"/>
<text text-anchor="start" x="308" y="-133" font-family="Helvetica,sans-Serif" font-size="10.00">lci::graph_add_edge</text>
<text text-anchor="middle" x="357" y="-122" font-family="Helvetica,sans-Serif" font-size="10.00">_x::call_impl</text>
</a>
</g>
</g>
<!-- Node2&#45;&gt;Node3 -->
<g id="edge2_Node000002_Node000003" class="edge">
<title>Node2&#45;&gt;Node3</title>
<g id="a_edge2_Node000002_Node000003"><a xlink:title=" ">
<path fill="none" stroke="#63b8ff" d="M264.37,-116.38C272.71,-117.62 281.37,-118.91 289.88,-120.17"/>
<polygon fill="#63b8ff" stroke="#63b8ff" points="289.38,-123.63 299.78,-121.64 290.41,-116.71 289.38,-123.63"/>
</a>
</g>
</g>
<!-- Node4 -->
<g id="Node000004" class="node">
<title>Node4</title>
<g id="a_Node000004"><a xlink:href="../../df/d73/classlci_1_1graph__add__edge__x.html#aaf605acd346ea0fad4733e3131c667b3" target="_top" xlink:title=" ">
<polygon fill="white" stroke="#666666" points="564,-222 450,-222 450,-192 564,-192 564,-222"/>
<text text-anchor="start" x="458" y="-210" font-family="Helvetica,sans-Serif" font-size="10.00">lci::graph_add_edge</text>
<text text-anchor="middle" x="507" y="-199" font-family="Helvetica,sans-Serif" font-size="10.00">_x::comp</text>
</a>
</g>
</g>
<!-- Node2&#45;&gt;Node4 -->
<g id="edge13_Node000002_Node000004" class="edge">
<title>Node2&#45;&gt;Node4</title>
<g id="a_edge13_Node000002_Node000004"><a xlink:title=" ">
<path fill="none" stroke="#63b8ff" d="M224.57,-123.27C241.99,-138.42 270.87,-161.05 300,-173 344.61,-191.3 398.49,-199.77 439.95,-203.67"/>
<polygon fill="#63b8ff" stroke="#63b8ff" points="439.67,-207.16 449.94,-204.55 440.29,-200.19 439.67,-207.16"/>
</a>
</g>
</g>
<!-- Node6 -->
<g id="Node000006" class="node">
<title>Node6</title>
<g id="a_Node000006"><a xlink:href="../../df/d73/classlci_1_1graph__add__edge__x.html#a3aba9b4de676a4a1e73dba7329c31c06" target="_top" xlink:title=" ">
<polygon fill="white" stroke="#666666" points="564,-174 450,-174 450,-144 564,-144 564,-174"/>
<text text-anchor="start" x="458" y="-162" font-family="Helvetica,sans-Serif" font-size="10.00">lci::graph_add_edge</text>
<text text-anchor="middle" x="507" y="-151" font-family="Helvetica,sans-Serif" font-size="10.00">_x::dst</text>
</a>
</g>
</g>
<!-- Node2&#45;&gt;Node6 -->
<g id="edge14_Node000002_Node000006" class="edge">
<title>Node2&#45;&gt;Node6</title>
<g id="a_edge14_Node000002_Node000006"><a xlink:title=" ">
<path fill="none" stroke="#63b8ff" d="M231.09,-123.14C249.06,-134.01 275.05,-147.79 300,-154 345.6,-165.35 398.65,-166.37 439.49,-164.67"/>
<polygon fill="#63b8ff" stroke="#63b8ff" points="439.78,-168.16 449.6,-164.18 439.44,-161.17 439.78,-168.16"/>
</a>
</g>
</g>
<!-- Node7 -->
<g id="Node000007" class="node">
<title>Node7</title>
<g id="a_Node000007"><a xlink:href="../../df/d73/classlci_1_1graph__add__edge__x.html#a5dd3453f4b420ce4ddc79ece25da243b" target="_top" xlink:title=" ">
<polygon fill="white" stroke="#666666" points="564,-126 450,-126 450,-96 564,-96 564,-126"/>
<text text-anchor="start" x="458" y="-114" font-family="Helvetica,sans-Serif" font-size="10.00">lci::graph_add_edge</text>
<text text-anchor="middle" x="507" y="-103" font-family="Helvetica,sans-Serif" font-size="10.00">_x::fn</text>
</a>
</g>
</g>
<!-- Node2&#45;&gt;Node7 -->
<g id="edge15_Node000002_Node000007" class="edge">
<title>Node2&#45;&gt;Node7</title>
<g id="a_edge15_Node000002_Node000007"><a xlink:title=" ">
<path fill="none" stroke="#63b8ff" d="M264.4,-106.33C305.81,-105.38 363.41,-104.63 414,-106 422.27,-106.22 430.96,-106.56 439.56,-106.96"/>
<polygon fill="#63b8ff" stroke="#63b8ff" points="439.42,-110.46 449.58,-107.45 439.76,-103.47 439.42,-110.46"/>
</a>
</g>
</g>
<!-- Node8 -->
<g id="Node000008" class="node">
<title>Node8</title>
<g id="a_Node000008"><a xlink:href="../../df/d73/classlci_1_1graph__add__edge__x.html#ac744065067999b8802566172c0c0b7c8" target="_top" xlink:title=" ">
<polygon fill="white" stroke="#666666" points="564,-78 450,-78 450,-48 564,-48 564,-78"/>
<text text-anchor="start" x="458" y="-66" font-family="Helvetica,sans-Serif" font-size="10.00">lci::graph_add_edge</text>
<text text-anchor="middle" x="507" y="-55" font-family="Helvetica,sans-Serif" font-size="10.00">_x::runtime</text>
</a>
</g>
</g>
<!-- Node2&#45;&gt;Node8 -->
<g id="edge16_Node000002_Node000008" class="edge">
<title>Node2&#45;&gt;Node8</title>
<g id="a_edge16_Node000002_Node000008"><a xlink:title=" ">
<path fill="none" stroke="#63b8ff" d="M264.05,-99.54C314.02,-91.99 387.22,-80.94 440.01,-72.97"/>
<polygon fill="#63b8ff" stroke="#63b8ff" points="440.58,-76.42 449.95,-71.46 439.54,-69.5 440.58,-76.42"/>
</a>
</g>
</g>
<!-- Node9 -->
<g id="Node000009" class="node">
<title>Node9</title>
<g id="a_Node000009"><a xlink:href="../../df/d73/classlci_1_1graph__add__edge__x.html#ad1a4f17616c7d972a37e3151216f7386" target="_top" xlink:title=" ">
<polygon fill="white" stroke="#666666" points="564,-30 450,-30 450,0 564,0 564,-30"/>
<text text-anchor="start" x="458" y="-18" font-family="Helvetica,sans-Serif" font-size="10.00">lci::graph_add_edge</text>
<text text-anchor="middle" x="507" y="-7" font-family="Helvetica,sans-Serif" font-size="10.00">_x::src</text>
</a>
</g>
</g>
<!-- Node2&#45;&gt;Node9 -->
<g id="edge17_Node000002_Node000009" class="edge">
<title>Node2&#45;&gt;Node9</title>
<g id="a_edge17_Node000002_Node000009"><a xlink:title=" ">
<path fill="none" stroke="#63b8ff" d="M245.33,-92.93C261.94,-86.45 281.83,-79 300,-73 346.28,-57.71 399.22,-42.86 439.85,-32.02"/>
<polygon fill="#63b8ff" stroke="#63b8ff" points="440.87,-35.37 449.63,-29.42 439.07,-28.6 440.87,-35.37"/>
</a>
</g>
</g>
<!-- Node3&#45;&gt;Node4 -->
<g id="edge3_Node000003_Node000004" class="edge">
<title>Node3&#45;&gt;Node4</title>
<g id="a_edge3_Node000003_Node000004"><a xlink:title=" ">
<path fill="none" stroke="#63b8ff" d="M382.56,-145.2C400.84,-156.27 426.59,-171.29 450,-183 453.27,-184.63 456.67,-186.26 460.12,-187.86"/>
<polygon fill="#63b8ff" stroke="#63b8ff" points="458.71,-191.07 469.27,-191.99 461.59,-184.69 458.71,-191.07"/>
</a>
</g>
</g>
<!-- Node3&#45;&gt;Node6 -->
<g id="edge5_Node000003_Node000006" class="edge">
<title>Node3&#45;&gt;Node6</title>
<g id="a_edge5_Node000003_Node000006"><a xlink:title=" ">
<path fill="none" stroke="#63b8ff" d="M414.37,-141.05C422.71,-142.68 431.37,-144.38 439.88,-146.04"/>
<polygon fill="#63b8ff" stroke="#63b8ff" points="439.3,-149.5 449.78,-147.98 440.64,-142.63 439.3,-149.5"/>
</a>
</g>
</g>
<!-- Node3&#45;&gt;Node7 -->
<g id="edge7_Node000003_Node000007" class="edge">
<title>Node3&#45;&gt;Node7</title>
<g id="a_edge7_Node000003_Node000007"><a xlink:title=" ">
<path fill="none" stroke="#63b8ff" d="M414.37,-122.76C422.62,-121.7 431.18,-120.61 439.6,-119.52"/>
<polygon fill="#63b8ff" stroke="#63b8ff" points="440.31,-122.96 449.78,-118.22 439.42,-116.02 440.31,-122.96"/>
</a>
</g>
</g>
<!-- Node3&#45;&gt;Node8 -->
<g id="edge9_Node000003_Node000008" class="edge">
<title>Node3&#45;&gt;Node8</title>
<g id="a_edge9_Node000003_Node000008"><a xlink:title=" ">
<path fill="none" stroke="#63b8ff" d="M389.82,-114.82C407.48,-106.47 429.89,-96.01 450,-87 453.59,-85.39 457.32,-83.75 461.07,-82.1"/>
<polygon fill="#63b8ff" stroke="#63b8ff" points="462.6,-85.26 470.38,-78.06 459.81,-78.84 462.6,-85.26"/>
</a>
</g>
</g>
<!-- Node3&#45;&gt;Node9 -->
<g id="edge11_Node000003_Node000009" class="edge">
<title>Node3&#45;&gt;Node9</title>
<g id="a_edge11_Node000003_Node000009"><a xlink:title=" ">
<path fill="none" stroke="#63b8ff" d="M370.29,-114.69C386.72,-95.02 417.57,-60.83 450,-39 452.15,-37.55 454.4,-36.16 456.71,-34.83"/>
<polygon fill="#63b8ff" stroke="#63b8ff" points="458.66,-37.77 465.86,-30 455.39,-31.58 458.66,-37.77"/>
</a>
</g>
</g>
<!-- Node5 -->
<g id="Node000005" class="node">
<title>Node5</title>
<g id="a_Node000005"><a xlink:href="../../df/d73/classlci_1_1graph__add__edge__x.html#a39e93f4b22bf82dbb6abe51e9fc26fdd" target="_top" xlink:title=" ">
<polygon fill="white" stroke="#666666" points="725,-126 600,-126 600,-96 725,-96 725,-126"/>
<text text-anchor="start" x="608" y="-114" font-family="Helvetica,sans-Serif" font-size="10.00">lci::graph_add_edge</text>
<text text-anchor="middle" x="662.5" y="-103" font-family="Helvetica,sans-Serif" font-size="10.00">_x::graph_add_edge_x</text>
</a>
</g>
</g>
<!-- Node4&#45;&gt;Node5 -->
<g id="edge4_Node000004_Node000005" class="edge">
<title>Node4&#45;&gt;Node5</title>
<g id="a_edge4_Node000004_Node000005"><a xlink:title=" ">
<path fill="none" stroke="#63b8ff" d="M546.53,-191.89C552.49,-189.15 558.49,-186.16 564,-183 589.76,-168.23 616.75,-147.87 635.78,-132.56"/>
<polygon fill="#63b8ff" stroke="#63b8ff" points="638.13,-135.16 643.68,-126.14 633.71,-129.73 638.13,-135.16"/>
</a>
</g>
</g>
<!-- Node6&#45;&gt;Node5 -->
<g id="edge6_Node000006_Node000005" class="edge">
<title>Node6&#45;&gt;Node5</title>
<g id="a_edge6_Node000006_Node000005"><a xlink:title=" ">
<path fill="none" stroke="#63b8ff" d="M556.15,-143.94C571.29,-139.21 588.17,-133.93 603.9,-129.01"/>
<polygon fill="#63b8ff" stroke="#63b8ff" points="605.02,-132.33 613.52,-126 602.93,-125.65 605.02,-132.33"/>
</a>
</g>
</g>
<!-- Node7&#45;&gt;Node5 -->
<g id="edge8_Node000007_Node000005" class="edge">
<title>Node7&#45;&gt;Node5</title>
<g id="a_edge8_Node000007_Node000005"><a xlink:title=" ">
<path fill="none" stroke="#63b8ff" d="M564.29,-111C572.5,-111 581.05,-111 589.52,-111"/>
<polygon fill="#63b8ff" stroke="#63b8ff" points="589.79,-114.5 599.79,-111 589.79,-107.5 589.79,-114.5"/>
</a>
</g>
</g>
<!-- Node8&#45;&gt;Node5 -->
<g id="edge10_Node000008_Node000005" class="edge">
<title>Node8&#45;&gt;Node5</title>
<g id="a_edge10_Node000008_Node000005"><a xlink:title=" ">
<path fill="none" stroke="#63b8ff" d="M556.15,-78.06C571.29,-82.79 588.17,-88.07 603.9,-92.99"/>
<polygon fill="#63b8ff" stroke="#63b8ff" points="602.93,-96.35 613.52,-96 605.02,-89.67 602.93,-96.35"/>
</a>
</g>
</g>
<!-- Node9&#45;&gt;Node5 -->
<g id="edge12_Node000009_Node000005" class="edge">
<title>Node9&#45;&gt;Node5</title>
<g id="a_edge12_Node000009_Node000005"><a xlink:title=" ">
<path fill="none" stroke="#63b8ff" d="M546.53,-30.11C552.49,-32.85 558.49,-35.84 564,-39 589.76,-53.77 616.75,-74.13 635.78,-89.44"/>
<polygon fill="#63b8ff" stroke="#63b8ff" points="633.71,-92.27 643.68,-95.86 638.13,-86.84 633.71,-92.27"/>
</a>
</g>
</g>
</g>
</svg>
