<?xml version="1.0" encoding="UTF-8" standalone="no"?>
<!DOCTYPE svg PUBLIC "-//W3C//DTD SVG 1.1//EN"
 "http://www.w3.org/Graphics/SVG/1.1/DTD/svg11.dtd">
<!-- Generated by graphviz version 2.43.0 (0)
 -->
<!-- Title: lci::graph_add_edge_x::comp Pages: 1 -->
<svg width="572pt" height="76pt"
 viewBox="0.00 0.00 572.00 75.50" xmlns="http://www.w3.org/2000/svg" xmlns:xlink="http://www.w3.org/1999/xlink">
<g id="graph0" class="graph" transform="scale(1 1) rotate(0) translate(4 71.5)">
<title>lci::graph_add_edge_x::comp</title>
<!-- Node1 -->
<g id="Node000001" class="node">
<title>Node1</title>
<g id="a_Node000001"><a xlink:title=" ">
<polygon fill="#999999" stroke="#666666" points="564,-51 450,-51 450,-21 564,-21 564,-51"/>
<text text-anchor="start" x="458" y="-39" font-family="Helvetica,sans-Serif" font-size="10.00">lci::graph_add_edge</text>
<text text-anchor="middle" x="507" y="-28" font-family="Helvetica,sans-Serif" font-size="10.00">_x::comp</text>
</a>
</g>
</g>
<!-- Node2 -->
<g id="Node000002" class="node">
<title>Node2</title>
<g id="a_Node000002"><a xlink:href="../../df/d73/classlci_1_1graph__add__edge__x.html#a3365585b28626943cd6e9b0dd8f97ddd" target="_top" xlink:title=" ">
<polygon fill="white" stroke="#666666" points="264,-51 150,-51 150,-21 264,-21 264,-51"/>
<text text-anchor="start" x="158" y="-39" font-family="Helvetica,sans-Serif" font-size="10.00">lci::graph_add_edge</text>
<text text-anchor="middle" x="207" y="-28" font-family="Helvetica,sans-Serif" font-size="10.00">_x::call</text>
</a>
</g>
</g>
<!-- Node1&#45;&gt;Node2 -->
<g id="edge1_Node000001_Node000002" class="edge">
<title>Node1&#45;&gt;Node2</title>
<g id="a_edge1_Node000001_Node000002"><a xlink:title=" ">
<path fill="none" stroke="#63b8ff" d="M439.55,-38.42C430.95,-38.66 422.27,-38.87 414,-39 363.34,-39.83 350.66,-39.83 300,-39 288.5,-38.81 276.18,-38.49 264.43,-38.13"/>
<polygon fill="#63b8ff" stroke="#63b8ff" points="439.68,-41.92 449.57,-38.13 439.47,-34.93 439.68,-41.92"/>
</a>
</g>
</g>
<!-- Node5 -->
<g id="Node000005" class="node">
<title>Node5</title>
<g id="a_Node000005"><a xlink:href="../../df/d73/classlci_1_1graph__add__edge__x.html#a4d71e0c8b14fc73b455ae95820b82040" target="_top" xlink:title=" ">
<polygon fill="white" stroke="#666666" points="414,-30 300,-30 300,0 414,0 414,-30"/>
<text text-anchor="start" x="308" y="-18" font-family="Helvetica,sans-Serif" font-size="10.00">lci::graph_add_edge</text>
<text text-anchor="middle" x="357" y="-7" font-family="Helvetica,sans-Serif" font-size="10.00">_x::call_impl</text>
</a>
</g>
</g>
<!-- Node1&#45;&gt;Node5 -->
<g id="edge4_Node000001_Node000005" class="edge">
<title>Node1&#45;&gt;Node5</title>
<g id="a_edge4_Node000001_Node000005"><a xlink:title=" ">
<path fill="none" stroke="#63b8ff" d="M439.72,-26.6C431.2,-25.39 422.55,-24.16 414.22,-22.98"/>
<polygon fill="#63b8ff" stroke="#63b8ff" points="439.23,-30.06 449.63,-28 440.22,-23.13 439.23,-30.06"/>
</a>
</g>
</g>
<!-- Node3 -->
<g id="Node000003" class="node">
<title>Node3</title>
<g id="a_Node000003"><a xlink:href="../../d5/dd3/namespacelci.html#a7ad5e9b11b95bc70fc8baac9992ef732" target="_top" xlink:title=" ">
<polygon fill="white" stroke="#666666" points="114,-67.5 0,-67.5 0,-48.5 114,-48.5 114,-67.5"/>
<text text-anchor="middle" x="57" y="-55.5" font-family="Helvetica,sans-Serif" font-size="10.00">lci::graph_add_edge</text>
</a>
</g>
</g>
<!-- Node2&#45;&gt;Node3 -->
<g id="edge2_Node000002_Node000003" class="edge">
<title>Node2&#45;&gt;Node3</title>
<g id="a_edge2_Node000002_Node000003"><a xlink:title=" ">
<path fill="none" stroke="#63b8ff" d="M139.72,-45.85C131.2,-47.12 122.55,-48.4 114.22,-49.64"/>
<polygon fill="#63b8ff" stroke="#63b8ff" points="140.25,-49.31 149.63,-44.38 139.22,-42.39 140.25,-49.31"/>
</a>
</g>
</g>
<!-- Node4 -->
<g id="Node000004" class="node">
<title>Node4</title>
<g id="a_Node000004"><a xlink:href="../../df/d73/classlci_1_1graph__add__edge__x.html#a958771876deb0abaa8c00ab52ba388ae" target="_top" xlink:title=" ">
<polygon fill="white" stroke="#666666" points="114,-30 0,-30 0,0 114,0 114,-30"/>
<text text-anchor="start" x="8" y="-18" font-family="Helvetica,sans-Serif" font-size="10.00">lci::graph_add_edge</text>
<text text-anchor="middle" x="57" y="-7" font-family="Helvetica,sans-Serif" font-size="10.00">_x::operator()</text>
</a>
</g>
</g>
<!-- Node2&#45;&gt;Node4 -->
<g id="edge3_Node000002_Node000004" class="edge">
<title>Node2&#45;&gt;Node4</title>
<g id="a_edge3_Node000002_Node000004"><a xlink:title=" ">
<path fill="none" stroke="#63b8ff" d="M139.72,-26.6C131.2,-25.39 122.55,-24.16 114.22,-22.98"/>
<polygon fill="#63b8ff" stroke="#63b8ff" points="139.23,-30.06 149.63,-28 140.22,-23.13 139.23,-30.06"/>
</a>
</g>
</g>
<!-- Node5&#45;&gt;Node2 -->
<g id="edge5_Node000005_Node000002" class="edge">
<title>Node5&#45;&gt;Node2</title>
<g id="a_edge5_Node000005_Node000002"><a xlink:title=" ">
<path fill="none" stroke="#63b8ff" d="M289.72,-24.4C281.2,-25.61 272.55,-26.84 264.22,-28.02"/>
<polygon fill="#63b8ff" stroke="#63b8ff" points="290.22,-27.87 299.63,-23 289.23,-20.94 290.22,-27.87"/>
</a>
</g>
</g>
</g>
</svg>
