<?xml version="1.0" encoding="UTF-8" standalone="no"?>
<!DOCTYPE svg PUBLIC "-//W3C//DTD SVG 1.1//EN"
 "http://www.w3.org/Graphics/SVG/1.1/DTD/svg11.dtd">
<!-- Generated by graphviz version 2.43.0 (0)
 -->
<!-- Title: lci::alloc_matching_engine_x Pages: 1 -->
<svg width="598pt" height="124pt"
 viewBox="0.00 0.00 598.00 123.50" xmlns="http://www.w3.org/2000/svg" xmlns:xlink="http://www.w3.org/1999/xlink">
<g id="graph0" class="graph" transform="scale(1 1) rotate(0) translate(4 119.5)">
<title>lci::alloc_matching_engine_x</title>
<!-- Node1 -->
<g id="Node000001" class="node">
<title>Node1</title>
<g id="a_Node000001"><a xlink:title="The actual implementation for alloc_matching_engine.">
<polygon fill="#999999" stroke="#666666" points="590,-67.5 482,-67.5 482,-37.5 590,-37.5 590,-67.5"/>
<text text-anchor="start" x="490" y="-55.5" font-family="Helvetica,sans-Serif" font-size="10.00">lci::alloc_matching</text>
<text text-anchor="middle" x="536" y="-44.5" font-family="Helvetica,sans-Serif" font-size="10.00">_engine_x</text>
</a>
</g>
</g>
<!-- Node2 -->
<g id="Node000002" class="node">
<title>Node2</title>
<g id="a_Node000002"><a xlink:href="../../db/d20/structlci_1_1option__t.html" target="_top" xlink:title=" ">
<polygon fill="white" stroke="#666666" points="287.5,-115.5 191.5,-115.5 191.5,-85.5 287.5,-85.5 287.5,-115.5"/>
<text text-anchor="start" x="199.5" y="-103.5" font-family="Helvetica,sans-Serif" font-size="10.00">lci::option_t&lt; lci</text>
<text text-anchor="middle" x="239.5" y="-92.5" font-family="Helvetica,sans-Serif" font-size="10.00">::runtime_t &gt;</text>
</a>
</g>
</g>
<!-- Node2&#45;&gt;Node1 -->
<g id="edge1_Node000001_Node000002" class="edge">
<title>Node2&#45;&gt;Node1</title>
<g id="a_edge1_Node000001_Node000002"><a xlink:title=" ">
<path fill="none" stroke="#9a32cd" stroke-dasharray="5,2" d="M297.65,-93.05C342.9,-86.91 407.65,-77.6 464,-67.5 469.83,-66.46 475.91,-65.29 481.95,-64.08"/>
<polygon fill="#9a32cd" stroke="#9a32cd" points="297.17,-89.58 287.73,-94.39 298.11,-96.52 297.17,-89.58"/>
</a>
</g>
<text text-anchor="middle" x="399" y="-90.5" font-family="Helvetica,sans-Serif" font-size="10.00" fill="grey"> m_runtime</text>
</g>
<!-- Node3 -->
<g id="Node000003" class="node">
<title>Node3</title>
<g id="a_Node000003"><a xlink:href="../../dc/d5c/classlci_1_1runtime__t.html" target="_top" xlink:title="The actual implementation for RESOURCE runtime.">
<polygon fill="white" stroke="#666666" points="81,-110 0,-110 0,-91 81,-91 81,-110"/>
<text text-anchor="middle" x="40.5" y="-98" font-family="Helvetica,sans-Serif" font-size="10.00">lci::runtime_t</text>
</a>
</g>
</g>
<!-- Node3&#45;&gt;Node2 -->
<g id="edge2_Node000002_Node000003" class="edge">
<title>Node3&#45;&gt;Node2</title>
<g id="a_edge2_Node000002_Node000003"><a xlink:title=" ">
<path fill="none" stroke="#9a32cd" stroke-dasharray="5,2" d="M91.43,-100.5C122.14,-100.5 161.24,-100.5 191.41,-100.5"/>
<polygon fill="#9a32cd" stroke="#9a32cd" points="91.37,-97 81.37,-100.5 91.37,-104 91.37,-97"/>
</a>
</g>
<text text-anchor="middle" x="122" y="-103.5" font-family="Helvetica,sans-Serif" font-size="10.00" fill="grey"> m_value</text>
</g>
<!-- Node4 -->
<g id="Node000004" class="node">
<title>Node4</title>
<g id="a_Node000004"><a xlink:href="../../db/d20/structlci_1_1option__t.html" target="_top" xlink:title=" ">
<polygon fill="white" stroke="#666666" points="316,-67.5 163,-67.5 163,-37.5 316,-37.5 316,-67.5"/>
<text text-anchor="start" x="171" y="-55.5" font-family="Helvetica,sans-Serif" font-size="10.00">lci::option_t&lt; attr</text>
<text text-anchor="middle" x="239.5" y="-44.5" font-family="Helvetica,sans-Serif" font-size="10.00">_matching_engine_type_t &gt;</text>
</a>
</g>
</g>
<!-- Node4&#45;&gt;Node1 -->
<g id="edge3_Node000001_Node000004" class="edge">
<title>Node4&#45;&gt;Node1</title>
<g id="a_edge3_Node000001_Node000004"><a xlink:title=" ">
<path fill="none" stroke="#9a32cd" stroke-dasharray="5,2" d="M326.54,-52.5C376.75,-52.5 438.5,-52.5 481.71,-52.5"/>
<polygon fill="#9a32cd" stroke="#9a32cd" points="326.34,-49 316.34,-52.5 326.34,-56 326.34,-49"/>
</a>
</g>
<text text-anchor="middle" x="399" y="-55.5" font-family="Helvetica,sans-Serif" font-size="10.00" fill="grey"> m_matching_engine_type</text>
</g>
<!-- Node5 -->
<g id="Node000005" class="node">
<title>Node5</title>
<g id="a_Node000005"><a xlink:href="../../db/d20/structlci_1_1option__t.html" target="_top" xlink:title=" ">
<polygon fill="white" stroke="#666666" points="302,-19 177,-19 177,0 302,0 302,-19"/>
<text text-anchor="middle" x="239.5" y="-7" font-family="Helvetica,sans-Serif" font-size="10.00">lci::option_t&lt; void * &gt;</text>
</a>
</g>
</g>
<!-- Node5&#45;&gt;Node1 -->
<g id="edge4_Node000001_Node000005" class="edge">
<title>Node5&#45;&gt;Node1</title>
<g id="a_edge4_Node000001_Node000005"><a xlink:title=" ">
<path fill="none" stroke="#9a32cd" stroke-dasharray="5,2" d="M312.38,-16.96C356.3,-21.9 413.55,-29.03 464,-37.5 469.84,-38.48 475.93,-39.61 481.98,-40.79"/>
<polygon fill="#9a32cd" stroke="#9a32cd" points="312.69,-13.47 302.36,-15.85 311.92,-20.43 312.69,-13.47"/>
</a>
</g>
<text text-anchor="middle" x="399" y="-40.5" font-family="Helvetica,sans-Serif" font-size="10.00" fill="grey"> m_user_context</text>
</g>
</g>
</svg>
