<?xml version="1.0" encoding="UTF-8" standalone="no"?>
<!DOCTYPE svg PUBLIC "-//W3C//DTD SVG 1.1//EN"
 "http://www.w3.org/Graphics/SVG/1.1/DTD/svg11.dtd">
<!-- Generated by graphviz version 2.43.0 (0)
 -->
<!-- Title: lci::alloc_matching_engine_x Pages: 1 -->
<svg width="598pt" height="172pt"
 viewBox="0.00 0.00 598.00 172.00" xmlns="http://www.w3.org/2000/svg" xmlns:xlink="http://www.w3.org/1999/xlink">
<g id="graph0" class="graph" transform="scale(1 1) rotate(0) translate(4 168)">
<title>lci::alloc_matching_engine_x</title>
<!-- Node1 -->
<g id="Node000001" class="node">
<title>Node1</title>
<g id="a_Node000001"><a xlink:title="The actual implementation for alloc_matching_engine.">
<polygon fill="#999999" stroke="#666666" points="590,-94 482,-94 482,-64 590,-64 590,-94"/>
<text text-anchor="start" x="490" y="-82" font-family="Helvetica,sans-Serif" font-size="10.00">lci::alloc_matching</text>
<text text-anchor="middle" x="536" y="-71" font-family="Helvetica,sans-Serif" font-size="10.00">_engine_x</text>
</a>
</g>
</g>
<!-- Node2 -->
<g id="Node000002" class="node">
<title>Node2</title>
<g id="a_Node000002"><a xlink:href="../../db/d20/structlci_1_1option__t.html" target="_top" xlink:title=" ">
<polygon fill="white" stroke="#666666" points="316,-164 163,-164 163,-134 316,-134 316,-164"/>
<text text-anchor="start" x="171" y="-152" font-family="Helvetica,sans-Serif" font-size="10.00">lci::option_t&lt; attr</text>
<text text-anchor="middle" x="239.5" y="-141" font-family="Helvetica,sans-Serif" font-size="10.00">_matching_engine_type_t &gt;</text>
</a>
</g>
</g>
<!-- Node2&#45;&gt;Node1 -->
<g id="edge1_Node000001_Node000002" class="edge">
<title>Node2&#45;&gt;Node1</title>
<g id="a_edge1_Node000001_Node000002"><a xlink:title=" ">
<path fill="none" stroke="#9a32cd" stroke-dasharray="5,2" d="M326.08,-137.54C368.11,-130.85 419.22,-121.1 464,-108 476.78,-104.26 490.41,-99.02 502.27,-94.02"/>
<polygon fill="#9a32cd" stroke="#9a32cd" points="325.5,-134.09 316.16,-139.09 326.58,-141.01 325.5,-134.09"/>
</a>
</g>
<text text-anchor="middle" x="399" y="-138" font-family="Helvetica,sans-Serif" font-size="10.00" fill="grey"> m_matching_engine_type</text>
</g>
<!-- Node3 -->
<g id="Node000003" class="node">
<title>Node3</title>
<g id="a_Node000003"><a xlink:href="../../db/d20/structlci_1_1option__t.html" target="_top" xlink:title=" ">
<polygon fill="white" stroke="#666666" points="295,-116 184,-116 184,-86 295,-86 295,-116"/>
<text text-anchor="start" x="192" y="-104" font-family="Helvetica,sans-Serif" font-size="10.00">lci::option_t&lt; const</text>
<text text-anchor="middle" x="239.5" y="-93" font-family="Helvetica,sans-Serif" font-size="10.00"> char * &gt;</text>
</a>
</g>
</g>
<!-- Node3&#45;&gt;Node1 -->
<g id="edge2_Node000001_Node000003" class="edge">
<title>Node3&#45;&gt;Node1</title>
<g id="a_edge2_Node000001_Node000003"><a xlink:title=" ">
<path fill="none" stroke="#9a32cd" stroke-dasharray="5,2" d="M305.49,-96.15C358.37,-92.19 432.1,-86.69 481.58,-82.99"/>
<polygon fill="#9a32cd" stroke="#9a32cd" points="304.91,-92.68 295.2,-96.91 305.44,-99.66 304.91,-92.68"/>
</a>
</g>
<text text-anchor="middle" x="399" y="-96" font-family="Helvetica,sans-Serif" font-size="10.00" fill="grey"> m_name</text>
</g>
<!-- Node4 -->
<g id="Node000004" class="node">
<title>Node4</title>
<g id="a_Node000004"><a xlink:href="../../db/d20/structlci_1_1option__t.html" target="_top" xlink:title=" ">
<polygon fill="white" stroke="#666666" points="302,-67.5 177,-67.5 177,-48.5 302,-48.5 302,-67.5"/>
<text text-anchor="middle" x="239.5" y="-55.5" font-family="Helvetica,sans-Serif" font-size="10.00">lci::option_t&lt; void * &gt;</text>
</a>
</g>
</g>
<!-- Node4&#45;&gt;Node1 -->
<g id="edge3_Node000001_Node000004" class="edge">
<title>Node4&#45;&gt;Node1</title>
<g id="a_edge3_Node000001_Node000004"><a xlink:title=" ">
<path fill="none" stroke="#9a32cd" stroke-dasharray="5,2" d="M312.3,-59.22C356.2,-60.47 413.44,-62.97 464,-68 469.83,-68.58 475.92,-69.32 481.97,-70.14"/>
<polygon fill="#9a32cd" stroke="#9a32cd" points="312.38,-55.73 302.29,-58.96 312.2,-62.72 312.38,-55.73"/>
</a>
</g>
<text text-anchor="middle" x="399" y="-71" font-family="Helvetica,sans-Serif" font-size="10.00" fill="grey"> m_user_context</text>
</g>
<!-- Node5 -->
<g id="Node000005" class="node">
<title>Node5</title>
<g id="a_Node000005"><a xlink:href="../../db/d20/structlci_1_1option__t.html" target="_top" xlink:title=" ">
<polygon fill="white" stroke="#666666" points="287.5,-30 191.5,-30 191.5,0 287.5,0 287.5,-30"/>
<text text-anchor="start" x="199.5" y="-18" font-family="Helvetica,sans-Serif" font-size="10.00">lci::option_t&lt; lci</text>
<text text-anchor="middle" x="239.5" y="-7" font-family="Helvetica,sans-Serif" font-size="10.00">::runtime_t &gt;</text>
</a>
</g>
</g>
<!-- Node5&#45;&gt;Node1 -->
<g id="edge4_Node000001_Node000005" class="edge">
<title>Node5&#45;&gt;Node1</title>
<g id="a_edge4_Node000001_Node000005"><a xlink:title=" ">
<path fill="none" stroke="#9a32cd" stroke-dasharray="5,2" d="M297.66,-17.74C343.44,-21.1 408.89,-28.55 464,-45 479.32,-49.57 495.47,-57.07 508.49,-63.86"/>
<polygon fill="#9a32cd" stroke="#9a32cd" points="297.84,-14.25 287.62,-17.05 297.36,-21.23 297.84,-14.25"/>
</a>
</g>
<text text-anchor="middle" x="399" y="-48" font-family="Helvetica,sans-Serif" font-size="10.00" fill="grey"> m_runtime</text>
</g>
<!-- Node6 -->
<g id="Node000006" class="node">
<title>Node6</title>
<g id="a_Node000006"><a xlink:href="../../dc/d5c/classlci_1_1runtime__t.html" target="_top" xlink:title="The actual implementation for RESOURCE runtime.">
<polygon fill="white" stroke="#666666" points="81,-24.5 0,-24.5 0,-5.5 81,-5.5 81,-24.5"/>
<text text-anchor="middle" x="40.5" y="-12.5" font-family="Helvetica,sans-Serif" font-size="10.00">lci::runtime_t</text>
</a>
</g>
</g>
<!-- Node6&#45;&gt;Node5 -->
<g id="edge5_Node000005_Node000006" class="edge">
<title>Node6&#45;&gt;Node5</title>
<g id="a_edge5_Node000005_Node000006"><a xlink:title=" ">
<path fill="none" stroke="#9a32cd" stroke-dasharray="5,2" d="M91.43,-15C122.14,-15 161.24,-15 191.41,-15"/>
<polygon fill="#9a32cd" stroke="#9a32cd" points="91.37,-11.5 81.37,-15 91.37,-18.5 91.37,-11.5"/>
</a>
</g>
<text text-anchor="middle" x="122" y="-18" font-family="Helvetica,sans-Serif" font-size="10.00" fill="grey"> m_value</text>
</g>
</g>
</svg>
