<?xml version="1.0" encoding="UTF-8" standalone="no"?>
<!DOCTYPE svg PUBLIC "-//W3C//DTD SVG 1.1//EN"
 "http://www.w3.org/Graphics/SVG/1.1/DTD/svg11.dtd">
<!-- Generated by graphviz version 2.43.0 (0)
 -->
<!-- Title: lci::broadcast_x::call_impl Pages: 1 -->
<svg width="527pt" height="383pt"
 viewBox="0.00 0.00 527.00 383.00" xmlns="http://www.w3.org/2000/svg" xmlns:xlink="http://www.w3.org/1999/xlink">
<g id="graph0" class="graph" transform="scale(1 1) rotate(0) translate(4 379)">
<title>lci::broadcast_x::call_impl</title>
<!-- Node1 -->
<g id="Node000001" class="node">
<title>Node1</title>
<g id="a_Node000001"><a xlink:title=" ">
<polygon fill="#999999" stroke="#666666" points="143,-205 0,-205 0,-186 143,-186 143,-205"/>
<text text-anchor="middle" x="71.5" y="-193" font-family="Helvetica,sans-Serif" font-size="10.00">lci::broadcast_x::call_impl</text>
</a>
</g>
</g>
<!-- Node2 -->
<g id="Node000002" class="node">
<title>Node2</title>
<g id="a_Node000002"><a xlink:href="../../d2/d49/classlci_1_1broadcast__x.html#ae02e77204732b37ca314fd2a13ff838f" target="_top" xlink:title=" ">
<polygon fill="white" stroke="#666666" points="325,-375 179,-375 179,-356 325,-356 325,-375"/>
<text text-anchor="middle" x="252" y="-363" font-family="Helvetica,sans-Serif" font-size="10.00">lci::broadcast_x::algorithm</text>
</a>
</g>
</g>
<!-- Node1&#45;&gt;Node2 -->
<g id="edge1_Node000001_Node000002" class="edge">
<title>Node1&#45;&gt;Node2</title>
<g id="a_edge1_Node000001_Node000002"><a xlink:title=" ">
<path fill="none" stroke="#63b8ff" d="M76.34,-205.13C87.64,-232.18 123.51,-309.35 179,-347.5 181.26,-349.05 183.64,-350.48 186.11,-351.77"/>
<polygon fill="#63b8ff" stroke="#63b8ff" points="184.81,-355.03 195.37,-355.96 187.7,-348.65 184.81,-355.03"/>
</a>
</g>
</g>
<!-- Node4 -->
<g id="Node000004" class="node">
<title>Node4</title>
<g id="a_Node000004"><a xlink:href="../../d2/d49/classlci_1_1broadcast__x.html#ade77c1eb386a7e5b50de50c3f74a9328" target="_top" xlink:title=" ">
<polygon fill="white" stroke="#666666" points="316,-338 188,-338 188,-319 316,-319 316,-338"/>
<text text-anchor="middle" x="252" y="-326" font-family="Helvetica,sans-Serif" font-size="10.00">lci::broadcast_x::buffer</text>
</a>
</g>
</g>
<!-- Node1&#45;&gt;Node4 -->
<g id="edge3_Node000001_Node000004" class="edge">
<title>Node1&#45;&gt;Node4</title>
<g id="a_edge3_Node000001_Node000004"><a xlink:title=" ">
<path fill="none" stroke="#63b8ff" d="M78.62,-205.29C93.12,-227.64 131.93,-282.64 179,-310.5 181.97,-312.26 185.11,-313.85 188.35,-315.28"/>
<polygon fill="#63b8ff" stroke="#63b8ff" points="187.1,-318.55 197.69,-318.93 189.65,-312.03 187.1,-318.55"/>
</a>
</g>
</g>
<!-- Node5 -->
<g id="Node000005" class="node">
<title>Node5</title>
<g id="a_Node000005"><a xlink:href="../../d2/d49/classlci_1_1broadcast__x.html#a5512cd5d9649ff6abce9bda2ae86b3a9" target="_top" xlink:title=" ">
<polygon fill="white" stroke="#666666" points="315,-301 189,-301 189,-282 315,-282 315,-301"/>
<text text-anchor="middle" x="252" y="-289" font-family="Helvetica,sans-Serif" font-size="10.00">lci::broadcast_x::comp</text>
</a>
</g>
</g>
<!-- Node1&#45;&gt;Node5 -->
<g id="edge5_Node000001_Node000005" class="edge">
<title>Node1&#45;&gt;Node5</title>
<g id="a_edge5_Node000001_Node000005"><a xlink:title=" ">
<path fill="none" stroke="#63b8ff" d="M82.79,-205.21C100.84,-221.71 139.99,-255.2 179,-273.5 183.11,-275.43 187.46,-277.17 191.9,-278.73"/>
<polygon fill="#63b8ff" stroke="#63b8ff" points="191.11,-282.16 201.7,-281.89 193.25,-275.49 191.11,-282.16"/>
</a>
</g>
</g>
<!-- Node6 -->
<g id="Node000006" class="node">
<title>Node6</title>
<g id="a_Node000006"><a xlink:href="../../d2/d49/classlci_1_1broadcast__x.html#aaaf36a09c5f5629819c625533ffed024" target="_top" xlink:title=" ">
<polygon fill="white" stroke="#666666" points="317.5,-264 186.5,-264 186.5,-245 317.5,-245 317.5,-264"/>
<text text-anchor="middle" x="252" y="-252" font-family="Helvetica,sans-Serif" font-size="10.00">lci::broadcast_x::device</text>
</a>
</g>
</g>
<!-- Node1&#45;&gt;Node6 -->
<g id="edge7_Node000001_Node000006" class="edge">
<title>Node1&#45;&gt;Node6</title>
<g id="a_edge7_Node000001_Node000006"><a xlink:title=" ">
<path fill="none" stroke="#63b8ff" d="M95.07,-205.12C116.43,-214 149.53,-227.18 179,-236.5 185.52,-238.56 192.43,-240.54 199.29,-242.39"/>
<polygon fill="#63b8ff" stroke="#63b8ff" points="198.7,-245.85 209.26,-244.99 200.46,-239.07 198.7,-245.85"/>
</a>
</g>
</g>
<!-- Node7 -->
<g id="Node000007" class="node">
<title>Node7</title>
<g id="a_Node000007"><a xlink:href="../../d2/d49/classlci_1_1broadcast__x.html#aedda990f51e10283c461d58ae06c6c27" target="_top" xlink:title=" ">
<polygon fill="white" stroke="#666666" points="323,-227 181,-227 181,-208 323,-208 323,-227"/>
<text text-anchor="middle" x="252" y="-215" font-family="Helvetica,sans-Serif" font-size="10.00">lci::broadcast_x::endpoint</text>
</a>
</g>
</g>
<!-- Node1&#45;&gt;Node7 -->
<g id="edge9_Node000001_Node000007" class="edge">
<title>Node1&#45;&gt;Node7</title>
<g id="a_edge9_Node000001_Node000007"><a xlink:title=" ">
<path fill="none" stroke="#63b8ff" d="M143.05,-204.19C152.21,-205.32 161.64,-206.49 170.94,-207.63"/>
<polygon fill="#63b8ff" stroke="#63b8ff" points="170.61,-211.12 180.96,-208.87 171.47,-204.17 170.61,-211.12"/>
</a>
</g>
</g>
<!-- Node8 -->
<g id="Node000008" class="node">
<title>Node8</title>
<g id="a_Node000008"><a xlink:href="../../d2/d49/classlci_1_1broadcast__x.html#a1d69a09a45da2685f83674feb8b89a52" target="_top" xlink:title=" ">
<polygon fill="white" stroke="#666666" points="324.5,-189.5 179.5,-189.5 179.5,-159.5 324.5,-159.5 324.5,-189.5"/>
<text text-anchor="start" x="187.5" y="-177.5" font-family="Helvetica,sans-Serif" font-size="10.00">lci::broadcast_x::matching</text>
<text text-anchor="middle" x="252" y="-166.5" font-family="Helvetica,sans-Serif" font-size="10.00">_engine</text>
</a>
</g>
</g>
<!-- Node1&#45;&gt;Node8 -->
<g id="edge11_Node000001_Node000008" class="edge">
<title>Node1&#45;&gt;Node8</title>
<g id="a_edge11_Node000001_Node000008"><a xlink:title=" ">
<path fill="none" stroke="#63b8ff" d="M143.05,-187.2C151.59,-186.19 160.38,-185.16 169.07,-184.14"/>
<polygon fill="#63b8ff" stroke="#63b8ff" points="169.69,-187.59 179.21,-182.95 168.87,-180.64 169.69,-187.59"/>
</a>
</g>
</g>
<!-- Node9 -->
<g id="Node000009" class="node">
<title>Node9</title>
<g id="a_Node000009"><a xlink:href="../../d2/d49/classlci_1_1broadcast__x.html#a5983dc25d25181269707101f408d34f3" target="_top" xlink:title=" ">
<polygon fill="white" stroke="#666666" points="311,-141.5 193,-141.5 193,-111.5 311,-111.5 311,-141.5"/>
<text text-anchor="start" x="201" y="-129.5" font-family="Helvetica,sans-Serif" font-size="10.00">lci::broadcast_x::ring</text>
<text text-anchor="middle" x="252" y="-118.5" font-family="Helvetica,sans-Serif" font-size="10.00">_nsteps</text>
</a>
</g>
</g>
<!-- Node1&#45;&gt;Node9 -->
<g id="edge13_Node000001_Node000009" class="edge">
<title>Node1&#45;&gt;Node9</title>
<g id="a_edge13_Node000001_Node000009"><a xlink:title=" ">
<path fill="none" stroke="#63b8ff" d="M93.92,-185.87C115.29,-176.4 149.14,-161.77 179,-150.5 184.01,-148.61 189.24,-146.72 194.5,-144.87"/>
<polygon fill="#63b8ff" stroke="#63b8ff" points="195.64,-148.17 203.95,-141.6 193.36,-141.56 195.64,-148.17"/>
</a>
</g>
</g>
<!-- Node10 -->
<g id="Node000010" class="node">
<title>Node10</title>
<g id="a_Node000010"><a xlink:href="../../d2/d49/classlci_1_1broadcast__x.html#a4d8f8c6d161b522b1ed10367301a1b1e" target="_top" xlink:title=" ">
<polygon fill="white" stroke="#666666" points="311.5,-93 192.5,-93 192.5,-74 311.5,-74 311.5,-93"/>
<text text-anchor="middle" x="252" y="-81" font-family="Helvetica,sans-Serif" font-size="10.00">lci::broadcast_x::root</text>
</a>
</g>
</g>
<!-- Node1&#45;&gt;Node10 -->
<g id="edge15_Node000001_Node000010" class="edge">
<title>Node1&#45;&gt;Node10</title>
<g id="a_edge15_Node000001_Node000010"><a xlink:title=" ">
<path fill="none" stroke="#63b8ff" d="M80.56,-186C97.06,-167.15 136.72,-124.94 179,-102.5 183.27,-100.23 187.83,-98.22 192.51,-96.44"/>
<polygon fill="#63b8ff" stroke="#63b8ff" points="193.89,-99.67 202.2,-93.1 191.61,-93.05 193.89,-99.67"/>
</a>
</g>
</g>
<!-- Node11 -->
<g id="Node000011" class="node">
<title>Node11</title>
<g id="a_Node000011"><a xlink:href="../../d2/d49/classlci_1_1broadcast__x.html#a577fe39525f3f807ae05a4a82d342748" target="_top" xlink:title=" ">
<polygon fill="white" stroke="#666666" points="320.5,-56 183.5,-56 183.5,-37 320.5,-37 320.5,-56"/>
<text text-anchor="middle" x="252" y="-44" font-family="Helvetica,sans-Serif" font-size="10.00">lci::broadcast_x::runtime</text>
</a>
</g>
</g>
<!-- Node1&#45;&gt;Node11 -->
<g id="edge17_Node000001_Node000011" class="edge">
<title>Node1&#45;&gt;Node11</title>
<g id="a_edge17_Node000001_Node000011"><a xlink:title=" ">
<path fill="none" stroke="#63b8ff" d="M77.51,-185.93C90.66,-161.75 128.68,-97.84 179,-65.5 182.33,-63.36 185.89,-61.46 189.59,-59.77"/>
<polygon fill="#63b8ff" stroke="#63b8ff" points="191,-62.98 198.98,-56 188.4,-56.48 191,-62.98"/>
</a>
</g>
</g>
<!-- Node12 -->
<g id="Node000012" class="node">
<title>Node12</title>
<g id="a_Node000012"><a xlink:href="../../d2/d49/classlci_1_1broadcast__x.html#a781ac63cbe086142460dbb1ea68843ea" target="_top" xlink:title=" ">
<polygon fill="white" stroke="#666666" points="311.5,-19 192.5,-19 192.5,0 311.5,0 311.5,-19"/>
<text text-anchor="middle" x="252" y="-7" font-family="Helvetica,sans-Serif" font-size="10.00">lci::broadcast_x::size</text>
</a>
</g>
</g>
<!-- Node1&#45;&gt;Node12 -->
<g id="edge19_Node000001_Node000012" class="edge">
<title>Node1&#45;&gt;Node12</title>
<g id="a_edge19_Node000001_Node000012"><a xlink:title=" ">
<path fill="none" stroke="#63b8ff" d="M75.78,-185.8C86.05,-156.99 120.4,-71.28 179,-28.5 181.66,-26.56 184.51,-24.81 187.48,-23.24"/>
<polygon fill="#63b8ff" stroke="#63b8ff" points="189.02,-26.39 196.68,-19.06 186.13,-20.01 189.02,-26.39"/>
</a>
</g>
</g>
<!-- Node3 -->
<g id="Node000003" class="node">
<title>Node3</title>
<g id="a_Node000003"><a xlink:href="../../d2/d49/classlci_1_1broadcast__x.html#a95bdda8f651ab3b80bff3aba0acae48c" target="_top" xlink:title=" ">
<polygon fill="white" stroke="#666666" points="519,-205 361,-205 361,-186 519,-186 519,-205"/>
<text text-anchor="middle" x="440" y="-193" font-family="Helvetica,sans-Serif" font-size="10.00">lci::broadcast_x::broadcast_x</text>
</a>
</g>
</g>
<!-- Node2&#45;&gt;Node3 -->
<g id="edge2_Node000002_Node000003" class="edge">
<title>Node2&#45;&gt;Node3</title>
<g id="a_edge2_Node000002_Node000003"><a xlink:title=" ">
<path fill="none" stroke="#63b8ff" d="M308.15,-355.94C314.1,-353.69 319.85,-350.92 325,-347.5 376.82,-313.09 414.16,-246.89 430.23,-214.41"/>
<polygon fill="#63b8ff" stroke="#63b8ff" points="433.51,-215.66 434.69,-205.13 427.2,-212.63 433.51,-215.66"/>
</a>
</g>
</g>
<!-- Node4&#45;&gt;Node3 -->
<g id="edge4_Node000004_Node000003" class="edge">
<title>Node4&#45;&gt;Node3</title>
<g id="a_edge4_Node000004_Node000003"><a xlink:title=" ">
<path fill="none" stroke="#63b8ff" d="M305.45,-318.99C312.25,-316.73 318.95,-313.94 325,-310.5 368.74,-285.61 407.05,-239.3 426.14,-213.69"/>
<polygon fill="#63b8ff" stroke="#63b8ff" points="429.21,-215.42 432.28,-205.27 423.56,-211.29 429.21,-215.42"/>
</a>
</g>
</g>
<!-- Node5&#45;&gt;Node3 -->
<g id="edge6_Node000005_Node000003" class="edge">
<title>Node5&#45;&gt;Node3</title>
<g id="a_edge6_Node000005_Node000003"><a xlink:title=" ">
<path fill="none" stroke="#63b8ff" d="M301.44,-281.91C309.48,-279.61 317.6,-276.83 325,-273.5 361.3,-257.18 398.45,-229.24 420.09,-211.6"/>
<polygon fill="#63b8ff" stroke="#63b8ff" points="422.38,-214.25 427.85,-205.17 417.91,-208.86 422.38,-214.25"/>
</a>
</g>
</g>
<!-- Node6&#45;&gt;Node3 -->
<g id="edge8_Node000006_Node000003" class="edge">
<title>Node6&#45;&gt;Node3</title>
<g id="a_edge8_Node000006_Node000003"><a xlink:title=" ">
<path fill="none" stroke="#63b8ff" d="M294.32,-244.93C304.41,-242.38 315.14,-239.5 325,-236.5 352.35,-228.19 382.78,-217.15 405.32,-208.62"/>
<polygon fill="#63b8ff" stroke="#63b8ff" points="406.68,-211.85 414.78,-205.01 404.18,-205.31 406.68,-211.85"/>
</a>
</g>
</g>
<!-- Node7&#45;&gt;Node3 -->
<g id="edge10_Node000007_Node000003" class="edge">
<title>Node7&#45;&gt;Node3</title>
<g id="a_edge10_Node000007_Node000003"><a xlink:title=" ">
<path fill="none" stroke="#63b8ff" d="M323.05,-209.21C332.13,-208.14 341.51,-207.03 350.84,-205.93"/>
<polygon fill="#63b8ff" stroke="#63b8ff" points="351.39,-209.39 360.91,-204.74 350.56,-202.44 351.39,-209.39"/>
</a>
</g>
</g>
<!-- Node8&#45;&gt;Node3 -->
<g id="edge12_Node000008_Node000003" class="edge">
<title>Node8&#45;&gt;Node3</title>
<g id="a_edge12_Node000008_Node000003"><a xlink:title=" ">
<path fill="none" stroke="#63b8ff" d="M324.65,-182.59C333.18,-183.55 341.96,-184.54 350.7,-185.53"/>
<polygon fill="#63b8ff" stroke="#63b8ff" points="350.57,-189.04 360.9,-186.68 351.36,-182.08 350.57,-189.04"/>
</a>
</g>
</g>
<!-- Node9&#45;&gt;Node3 -->
<g id="edge14_Node000009_Node000003" class="edge">
<title>Node9&#45;&gt;Node3</title>
<g id="a_edge14_Node000009_Node000003"><a xlink:title=" ">
<path fill="none" stroke="#63b8ff" d="M299.61,-141.62C308.08,-144.49 316.83,-147.53 325,-150.5 352.7,-160.57 383.79,-172.92 406.5,-182.13"/>
<polygon fill="#63b8ff" stroke="#63b8ff" points="405.41,-185.47 416,-185.99 408.05,-178.98 405.41,-185.47"/>
</a>
</g>
</g>
<!-- Node10&#45;&gt;Node3 -->
<g id="edge16_Node000010_Node000003" class="edge">
<title>Node10&#45;&gt;Node3</title>
<g id="a_edge16_Node000010_Node000003"><a xlink:title=" ">
<path fill="none" stroke="#63b8ff" d="M300.93,-93.08C309.19,-95.58 317.51,-98.69 325,-102.5 364.15,-122.44 402.16,-157.58 422.89,-178.48"/>
<polygon fill="#63b8ff" stroke="#63b8ff" points="420.46,-181.01 429.95,-185.74 425.48,-176.13 420.46,-181.01"/>
</a>
</g>
</g>
<!-- Node11&#45;&gt;Node3 -->
<g id="edge18_Node000011_Node000003" class="edge">
<title>Node11&#45;&gt;Node3</title>
<g id="a_edge18_Node000011_Node000003"><a xlink:title=" ">
<path fill="none" stroke="#63b8ff" d="M304.52,-56.06C311.69,-58.53 318.73,-61.62 325,-65.5 372,-94.61 410.38,-149.12 428.22,-177.42"/>
<polygon fill="#63b8ff" stroke="#63b8ff" points="425.24,-179.25 433.46,-185.93 431.2,-175.58 425.24,-179.25"/>
</a>
</g>
</g>
<!-- Node12&#45;&gt;Node3 -->
<g id="edge20_Node000012_Node000003" class="edge">
<title>Node12&#45;&gt;Node3</title>
<g id="a_edge20_Node000012_Node000003"><a xlink:title=" ">
<path fill="none" stroke="#63b8ff" d="M306.83,-19.08C313.28,-21.54 319.51,-24.62 325,-28.5 379.83,-67.22 416.35,-141.27 431.33,-176.27"/>
<polygon fill="#63b8ff" stroke="#63b8ff" points="428.21,-177.9 435.28,-185.79 434.68,-175.22 428.21,-177.9"/>
</a>
</g>
</g>
</g>
</svg>
