<?xml version="1.0" encoding="UTF-8" standalone="no"?>
<!DOCTYPE svg PUBLIC "-//W3C//DTD SVG 1.1//EN"
 "http://www.w3.org/Graphics/SVG/1.1/DTD/svg11.dtd">
<!-- Generated by graphviz version 2.43.0 (0)
 -->
<!-- Title: lci::broadcast_x::broadcast_x Pages: 1 -->
<svg width="863pt" height="383pt"
 viewBox="0.00 0.00 863.00 383.00" xmlns="http://www.w3.org/2000/svg" xmlns:xlink="http://www.w3.org/1999/xlink">
<g id="graph0" class="graph" transform="scale(1 1) rotate(0) translate(4 379)">
<title>lci::broadcast_x::broadcast_x</title>
<!-- Node1 -->
<g id="Node000001" class="node">
<title>Node1</title>
<g id="a_Node000001"><a xlink:title=" ">
<polygon fill="#999999" stroke="#666666" points="855,-205 697,-205 697,-186 855,-186 855,-205"/>
<text text-anchor="middle" x="776" y="-193" font-family="Helvetica,sans-Serif" font-size="10.00">lci::broadcast_x::broadcast_x</text>
</a>
</g>
</g>
<!-- Node2 -->
<g id="Node000002" class="node">
<title>Node2</title>
<g id="a_Node000002"><a xlink:href="../../d2/d49/classlci_1_1broadcast__x.html#ae02e77204732b37ca314fd2a13ff838f" target="_top" xlink:title=" ">
<polygon fill="white" stroke="#666666" points="661,-375 515,-375 515,-356 661,-356 661,-375"/>
<text text-anchor="middle" x="588" y="-363" font-family="Helvetica,sans-Serif" font-size="10.00">lci::broadcast_x::algorithm</text>
</a>
</g>
</g>
<!-- Node1&#45;&gt;Node2 -->
<g id="edge1_Node000001_Node000002" class="edge">
<title>Node1&#45;&gt;Node2</title>
<g id="a_edge1_Node000001_Node000002"><a xlink:title=" ">
<path fill="none" stroke="#63b8ff" d="M766.23,-214.41C750.16,-246.89 712.82,-313.09 661,-347.5 655.85,-350.92 650.1,-353.69 644.15,-355.94"/>
<polygon fill="#63b8ff" stroke="#63b8ff" points="769.51,-215.66 770.69,-205.13 763.2,-212.63 769.51,-215.66"/>
</a>
</g>
</g>
<!-- Node7 -->
<g id="Node000007" class="node">
<title>Node7</title>
<g id="a_Node000007"><a xlink:href="../../d2/d49/classlci_1_1broadcast__x.html#ade77c1eb386a7e5b50de50c3f74a9328" target="_top" xlink:title=" ">
<polygon fill="white" stroke="#666666" points="652,-338 524,-338 524,-319 652,-319 652,-338"/>
<text text-anchor="middle" x="588" y="-326" font-family="Helvetica,sans-Serif" font-size="10.00">lci::broadcast_x::buffer</text>
</a>
</g>
</g>
<!-- Node1&#45;&gt;Node7 -->
<g id="edge7_Node000001_Node000007" class="edge">
<title>Node1&#45;&gt;Node7</title>
<g id="a_edge7_Node000001_Node000007"><a xlink:title=" ">
<path fill="none" stroke="#63b8ff" d="M762.14,-213.69C743.05,-239.3 704.74,-285.61 661,-310.5 654.95,-313.94 648.25,-316.73 641.45,-318.99"/>
<polygon fill="#63b8ff" stroke="#63b8ff" points="765.21,-215.42 768.28,-205.27 759.56,-211.29 765.21,-215.42"/>
</a>
</g>
</g>
<!-- Node8 -->
<g id="Node000008" class="node">
<title>Node8</title>
<g id="a_Node000008"><a xlink:href="../../d2/d49/classlci_1_1broadcast__x.html#a5512cd5d9649ff6abce9bda2ae86b3a9" target="_top" xlink:title=" ">
<polygon fill="white" stroke="#666666" points="651,-301 525,-301 525,-282 651,-282 651,-301"/>
<text text-anchor="middle" x="588" y="-289" font-family="Helvetica,sans-Serif" font-size="10.00">lci::broadcast_x::comp</text>
</a>
</g>
</g>
<!-- Node1&#45;&gt;Node8 -->
<g id="edge10_Node000001_Node000008" class="edge">
<title>Node1&#45;&gt;Node8</title>
<g id="a_edge10_Node000001_Node000008"><a xlink:title=" ">
<path fill="none" stroke="#63b8ff" d="M756.09,-211.6C734.45,-229.24 697.3,-257.18 661,-273.5 653.6,-276.83 645.48,-279.61 637.44,-281.91"/>
<polygon fill="#63b8ff" stroke="#63b8ff" points="758.38,-214.25 763.85,-205.17 753.91,-208.86 758.38,-214.25"/>
</a>
</g>
</g>
<!-- Node9 -->
<g id="Node000009" class="node">
<title>Node9</title>
<g id="a_Node000009"><a xlink:href="../../d2/d49/classlci_1_1broadcast__x.html#aaaf36a09c5f5629819c625533ffed024" target="_top" xlink:title=" ">
<polygon fill="white" stroke="#666666" points="653.5,-264 522.5,-264 522.5,-245 653.5,-245 653.5,-264"/>
<text text-anchor="middle" x="588" y="-252" font-family="Helvetica,sans-Serif" font-size="10.00">lci::broadcast_x::device</text>
</a>
</g>
</g>
<!-- Node1&#45;&gt;Node9 -->
<g id="edge13_Node000001_Node000009" class="edge">
<title>Node1&#45;&gt;Node9</title>
<g id="a_edge13_Node000001_Node000009"><a xlink:title=" ">
<path fill="none" stroke="#63b8ff" d="M741.32,-208.62C718.78,-217.15 688.35,-228.19 661,-236.5 651.14,-239.5 640.41,-242.38 630.32,-244.93"/>
<polygon fill="#63b8ff" stroke="#63b8ff" points="742.68,-211.85 750.78,-205.01 740.18,-205.31 742.68,-211.85"/>
</a>
</g>
</g>
<!-- Node10 -->
<g id="Node000010" class="node">
<title>Node10</title>
<g id="a_Node000010"><a xlink:href="../../d2/d49/classlci_1_1broadcast__x.html#aedda990f51e10283c461d58ae06c6c27" target="_top" xlink:title=" ">
<polygon fill="white" stroke="#666666" points="659,-227 517,-227 517,-208 659,-208 659,-227"/>
<text text-anchor="middle" x="588" y="-215" font-family="Helvetica,sans-Serif" font-size="10.00">lci::broadcast_x::endpoint</text>
</a>
</g>
</g>
<!-- Node1&#45;&gt;Node10 -->
<g id="edge16_Node000001_Node000010" class="edge">
<title>Node1&#45;&gt;Node10</title>
<g id="a_edge16_Node000001_Node000010"><a xlink:title=" ">
<path fill="none" stroke="#63b8ff" d="M686.88,-205.92C677.59,-207.02 668.23,-208.13 659.18,-209.2"/>
<polygon fill="#63b8ff" stroke="#63b8ff" points="687.41,-209.38 696.93,-204.73 686.59,-202.43 687.41,-209.38"/>
</a>
</g>
</g>
<!-- Node11 -->
<g id="Node000011" class="node">
<title>Node11</title>
<g id="a_Node000011"><a xlink:href="../../d2/d49/classlci_1_1broadcast__x.html#a1d69a09a45da2685f83674feb8b89a52" target="_top" xlink:title=" ">
<polygon fill="white" stroke="#666666" points="660.5,-189.5 515.5,-189.5 515.5,-159.5 660.5,-159.5 660.5,-189.5"/>
<text text-anchor="start" x="523.5" y="-177.5" font-family="Helvetica,sans-Serif" font-size="10.00">lci::broadcast_x::matching</text>
<text text-anchor="middle" x="588" y="-166.5" font-family="Helvetica,sans-Serif" font-size="10.00">_engine</text>
</a>
</g>
</g>
<!-- Node1&#45;&gt;Node11 -->
<g id="edge19_Node000001_Node000011" class="edge">
<title>Node1&#45;&gt;Node11</title>
<g id="a_edge19_Node000001_Node000011"><a xlink:title=" ">
<path fill="none" stroke="#63b8ff" d="M686.72,-185.53C677.98,-184.55 669.19,-183.55 660.65,-182.59"/>
<polygon fill="#63b8ff" stroke="#63b8ff" points="686.6,-189.04 696.93,-186.69 687.38,-182.09 686.6,-189.04"/>
</a>
</g>
</g>
<!-- Node12 -->
<g id="Node000012" class="node">
<title>Node12</title>
<g id="a_Node000012"><a xlink:href="../../d2/d49/classlci_1_1broadcast__x.html#a5983dc25d25181269707101f408d34f3" target="_top" xlink:title=" ">
<polygon fill="white" stroke="#666666" points="647,-141.5 529,-141.5 529,-111.5 647,-111.5 647,-141.5"/>
<text text-anchor="start" x="537" y="-129.5" font-family="Helvetica,sans-Serif" font-size="10.00">lci::broadcast_x::ring</text>
<text text-anchor="middle" x="588" y="-118.5" font-family="Helvetica,sans-Serif" font-size="10.00">_nsteps</text>
</a>
</g>
</g>
<!-- Node1&#45;&gt;Node12 -->
<g id="edge22_Node000001_Node000012" class="edge">
<title>Node1&#45;&gt;Node12</title>
<g id="a_edge22_Node000001_Node000012"><a xlink:title=" ">
<path fill="none" stroke="#63b8ff" d="M742.5,-182.13C719.79,-172.92 688.7,-160.57 661,-150.5 652.83,-147.53 644.08,-144.49 635.61,-141.62"/>
<polygon fill="#63b8ff" stroke="#63b8ff" points="741.41,-185.47 752,-185.99 744.05,-178.98 741.41,-185.47"/>
</a>
</g>
</g>
<!-- Node13 -->
<g id="Node000013" class="node">
<title>Node13</title>
<g id="a_Node000013"><a xlink:href="../../d2/d49/classlci_1_1broadcast__x.html#a4d8f8c6d161b522b1ed10367301a1b1e" target="_top" xlink:title=" ">
<polygon fill="white" stroke="#666666" points="647.5,-93 528.5,-93 528.5,-74 647.5,-74 647.5,-93"/>
<text text-anchor="middle" x="588" y="-81" font-family="Helvetica,sans-Serif" font-size="10.00">lci::broadcast_x::root</text>
</a>
</g>
</g>
<!-- Node1&#45;&gt;Node13 -->
<g id="edge25_Node000001_Node000013" class="edge">
<title>Node1&#45;&gt;Node13</title>
<g id="a_edge25_Node000001_Node000013"><a xlink:title=" ">
<path fill="none" stroke="#63b8ff" d="M758.89,-178.48C738.16,-157.58 700.15,-122.44 661,-102.5 653.51,-98.69 645.19,-95.58 636.93,-93.08"/>
<polygon fill="#63b8ff" stroke="#63b8ff" points="756.46,-181.01 765.95,-185.74 761.48,-176.13 756.46,-181.01"/>
</a>
</g>
</g>
<!-- Node14 -->
<g id="Node000014" class="node">
<title>Node14</title>
<g id="a_Node000014"><a xlink:href="../../d2/d49/classlci_1_1broadcast__x.html#a577fe39525f3f807ae05a4a82d342748" target="_top" xlink:title=" ">
<polygon fill="white" stroke="#666666" points="656.5,-56 519.5,-56 519.5,-37 656.5,-37 656.5,-56"/>
<text text-anchor="middle" x="588" y="-44" font-family="Helvetica,sans-Serif" font-size="10.00">lci::broadcast_x::runtime</text>
</a>
</g>
</g>
<!-- Node1&#45;&gt;Node14 -->
<g id="edge28_Node000001_Node000014" class="edge">
<title>Node1&#45;&gt;Node14</title>
<g id="a_edge28_Node000001_Node000014"><a xlink:title=" ">
<path fill="none" stroke="#63b8ff" d="M764.22,-177.42C746.38,-149.12 708,-94.61 661,-65.5 654.73,-61.62 647.69,-58.53 640.52,-56.06"/>
<polygon fill="#63b8ff" stroke="#63b8ff" points="761.24,-179.25 769.46,-185.93 767.2,-175.58 761.24,-179.25"/>
</a>
</g>
</g>
<!-- Node15 -->
<g id="Node000015" class="node">
<title>Node15</title>
<g id="a_Node000015"><a xlink:href="../../d2/d49/classlci_1_1broadcast__x.html#a781ac63cbe086142460dbb1ea68843ea" target="_top" xlink:title=" ">
<polygon fill="white" stroke="#666666" points="647.5,-19 528.5,-19 528.5,0 647.5,0 647.5,-19"/>
<text text-anchor="middle" x="588" y="-7" font-family="Helvetica,sans-Serif" font-size="10.00">lci::broadcast_x::size</text>
</a>
</g>
</g>
<!-- Node1&#45;&gt;Node15 -->
<g id="edge31_Node000001_Node000015" class="edge">
<title>Node1&#45;&gt;Node15</title>
<g id="a_edge31_Node000001_Node000015"><a xlink:title=" ">
<path fill="none" stroke="#63b8ff" d="M767.41,-176.09C752.57,-140.77 716.25,-66.1 661,-27.5 656.14,-24.11 650.7,-21.35 645.05,-19.11"/>
<polygon fill="#63b8ff" stroke="#63b8ff" points="764.31,-177.76 771.32,-185.7 770.79,-175.12 764.31,-177.76"/>
</a>
</g>
</g>
<!-- Node3 -->
<g id="Node000003" class="node">
<title>Node3</title>
<g id="a_Node000003"><a xlink:href="../../d2/d49/classlci_1_1broadcast__x.html#a2cf8cbe7f7e9184c613d00170606979d" target="_top" xlink:title=" ">
<polygon fill="white" stroke="#666666" points="300,-198 184,-198 184,-179 300,-179 300,-198"/>
<text text-anchor="middle" x="242" y="-186" font-family="Helvetica,sans-Serif" font-size="10.00">lci::broadcast_x::call</text>
</a>
</g>
</g>
<!-- Node2&#45;&gt;Node3 -->
<g id="edge2_Node000002_Node000003" class="edge">
<title>Node2&#45;&gt;Node3</title>
<g id="a_edge2_Node000002_Node000003"><a xlink:title=" ">
<path fill="none" stroke="#63b8ff" d="M504.62,-363.63C452.72,-359.02 386.26,-346.55 336,-314.5 289.24,-284.68 257.95,-222.37 247.16,-198.29"/>
<polygon fill="#63b8ff" stroke="#63b8ff" points="504.55,-367.13 514.8,-364.45 505.11,-360.16 504.55,-367.13"/>
</a>
</g>
</g>
<!-- Node6 -->
<g id="Node000006" class="node">
<title>Node6</title>
<g id="a_Node000006"><a xlink:href="../../d2/d49/classlci_1_1broadcast__x.html#a8f4620527fae11155f0b52a5ec370de3" target="_top" xlink:title=" ">
<polygon fill="white" stroke="#666666" points="479,-198 336,-198 336,-179 479,-179 479,-198"/>
<text text-anchor="middle" x="407.5" y="-186" font-family="Helvetica,sans-Serif" font-size="10.00">lci::broadcast_x::call_impl</text>
</a>
</g>
</g>
<!-- Node2&#45;&gt;Node6 -->
<g id="edge5_Node000002_Node000006" class="edge">
<title>Node2&#45;&gt;Node6</title>
<g id="a_edge5_Node000002_Node000006"><a xlink:title=" ">
<path fill="none" stroke="#63b8ff" d="M521.67,-351.61C519.35,-350.36 517.12,-348.99 515,-347.5 457.92,-307.37 422.82,-226.09 412.05,-198.17"/>
<polygon fill="#63b8ff" stroke="#63b8ff" points="520.38,-354.88 530.93,-355.92 523.33,-348.53 520.38,-354.88"/>
</a>
</g>
</g>
<!-- Node4 -->
<g id="Node000004" class="node">
<title>Node4</title>
<g id="a_Node000004"><a xlink:href="../../d5/dd3/namespacelci.html#a16edb894b126be5a60737362cea89af5" target="_top" xlink:title=" ">
<polygon fill="white" stroke="#666666" points="115,-217 33,-217 33,-198 115,-198 115,-217"/>
<text text-anchor="middle" x="74" y="-205" font-family="Helvetica,sans-Serif" font-size="10.00">lci::broadcast</text>
</a>
</g>
</g>
<!-- Node3&#45;&gt;Node4 -->
<g id="edge3_Node000003_Node000004" class="edge">
<title>Node3&#45;&gt;Node4</title>
<g id="a_edge3_Node000003_Node000004"><a xlink:title=" ">
<path fill="none" stroke="#63b8ff" d="M173.92,-196.18C154.02,-198.46 132.85,-200.88 115.22,-202.9"/>
<polygon fill="#63b8ff" stroke="#63b8ff" points="174.34,-199.65 183.87,-195.04 173.54,-192.7 174.34,-199.65"/>
</a>
</g>
</g>
<!-- Node5 -->
<g id="Node000005" class="node">
<title>Node5</title>
<g id="a_Node000005"><a xlink:href="../../d2/d49/classlci_1_1broadcast__x.html#a38dee647c6e537e46e491de5fc4ba047" target="_top" xlink:title=" ">
<polygon fill="white" stroke="#666666" points="148,-180 0,-180 0,-161 148,-161 148,-180"/>
<text text-anchor="middle" x="74" y="-168" font-family="Helvetica,sans-Serif" font-size="10.00">lci::broadcast_x::operator()</text>
</a>
</g>
</g>
<!-- Node3&#45;&gt;Node5 -->
<g id="edge4_Node000003_Node000005" class="edge">
<title>Node3&#45;&gt;Node5</title>
<g id="a_edge4_Node000003_Node000005"><a xlink:title=" ">
<path fill="none" stroke="#63b8ff" d="M173.71,-181.2C165.26,-180.29 156.59,-179.35 148.06,-178.42"/>
<polygon fill="#63b8ff" stroke="#63b8ff" points="173.55,-184.71 183.87,-182.31 174.31,-177.75 173.55,-184.71"/>
</a>
</g>
</g>
<!-- Node6&#45;&gt;Node3 -->
<g id="edge6_Node000006_Node000003" class="edge">
<title>Node6&#45;&gt;Node3</title>
<g id="a_edge6_Node000006_Node000003"><a xlink:title=" ">
<path fill="none" stroke="#63b8ff" d="M325.64,-188.5C317.01,-188.5 308.36,-188.5 300.09,-188.5"/>
<polygon fill="#63b8ff" stroke="#63b8ff" points="325.74,-192 335.74,-188.5 325.74,-185 325.74,-192"/>
</a>
</g>
</g>
<!-- Node7&#45;&gt;Node3 -->
<g id="edge8_Node000007_Node000003" class="edge">
<title>Node7&#45;&gt;Node3</title>
<g id="a_edge8_Node000007_Node000003"><a xlink:title=" ">
<path fill="none" stroke="#63b8ff" d="M513.65,-325.75C461.5,-321.18 391.21,-309.56 336,-280.5 296.81,-259.87 263.36,-217.29 249.65,-198.17"/>
<polygon fill="#63b8ff" stroke="#63b8ff" points="513.58,-329.25 523.83,-326.57 514.14,-322.27 513.58,-329.25"/>
</a>
</g>
</g>
<!-- Node7&#45;&gt;Node6 -->
<g id="edge9_Node000007_Node000006" class="edge">
<title>Node7&#45;&gt;Node6</title>
<g id="a_edge9_Node000007_Node000006"><a xlink:title=" ">
<path fill="none" stroke="#63b8ff" d="M523.82,-315.17C520.76,-313.77 517.8,-312.21 515,-310.5 466.31,-280.71 427.87,-221.45 414.04,-198.19"/>
<polygon fill="#63b8ff" stroke="#63b8ff" points="522.63,-318.47 533.22,-318.96 525.25,-311.97 522.63,-318.47"/>
</a>
</g>
</g>
<!-- Node8&#45;&gt;Node3 -->
<g id="edge11_Node000008_Node000003" class="edge">
<title>Node8&#45;&gt;Node3</title>
<g id="a_edge11_Node000008_Node000003"><a xlink:title=" ">
<path fill="none" stroke="#63b8ff" d="M514.96,-287.86C463.58,-283.34 393.68,-273.2 336,-250.5 303.32,-237.64 270.36,-211.97 253.85,-198.03"/>
<polygon fill="#63b8ff" stroke="#63b8ff" points="514.72,-291.35 524.98,-288.69 515.3,-284.37 514.72,-291.35"/>
</a>
</g>
</g>
<!-- Node8&#45;&gt;Node6 -->
<g id="edge12_Node000008_Node000006" class="edge">
<title>Node8&#45;&gt;Node6</title>
<g id="a_edge12_Node000008_Node000006"><a xlink:title=" ">
<path fill="none" stroke="#63b8ff" d="M527.03,-278.64C522.88,-277.1 518.83,-275.4 515,-273.5 474.29,-253.36 434.74,-215.62 417.51,-198.01"/>
<polygon fill="#63b8ff" stroke="#63b8ff" points="526.22,-282.06 536.82,-281.91 528.44,-275.42 526.22,-282.06"/>
</a>
</g>
</g>
<!-- Node9&#45;&gt;Node3 -->
<g id="edge14_Node000009_Node000003" class="edge">
<title>Node9&#45;&gt;Node3</title>
<g id="a_edge14_Node000009_Node000003"><a xlink:title=" ">
<path fill="none" stroke="#63b8ff" d="M512.3,-251.03C461.89,-247.44 394.2,-240.17 336,-225.5 309.88,-218.92 281.3,-206.74 262.81,-198.16"/>
<polygon fill="#63b8ff" stroke="#63b8ff" points="512.25,-254.54 522.46,-251.72 512.72,-247.55 512.25,-254.54"/>
</a>
</g>
</g>
<!-- Node9&#45;&gt;Node6 -->
<g id="edge15_Node000009_Node000006" class="edge">
<title>Node9&#45;&gt;Node6</title>
<g id="a_edge15_Node000009_Node000006"><a xlink:title=" ">
<path fill="none" stroke="#63b8ff" d="M533.69,-242.31C527.34,-240.53 520.99,-238.58 515,-236.5 483.2,-225.46 447.86,-208.55 426.94,-198.03"/>
<polygon fill="#63b8ff" stroke="#63b8ff" points="533.04,-245.76 543.61,-244.98 534.86,-239 533.04,-245.76"/>
</a>
</g>
</g>
<!-- Node10&#45;&gt;Node3 -->
<g id="edge17_Node000010_Node000003" class="edge">
<title>Node10&#45;&gt;Node3</title>
<g id="a_edge17_Node000010_Node000003"><a xlink:title=" ">
<path fill="none" stroke="#63b8ff" d="M506.67,-217.6C457.28,-216.84 392.79,-214.39 336,-207.5 318.33,-205.36 299.02,-201.64 282.59,-198.06"/>
<polygon fill="#63b8ff" stroke="#63b8ff" points="506.93,-221.1 516.97,-217.73 507.02,-214.1 506.93,-221.1"/>
</a>
</g>
</g>
<!-- Node10&#45;&gt;Node6 -->
<g id="edge18_Node000010_Node000006" class="edge">
<title>Node10&#45;&gt;Node6</title>
<g id="a_edge18_Node000010_Node000006"><a xlink:title=" ">
<path fill="none" stroke="#63b8ff" d="M517.78,-206.25C501.03,-203.53 483.28,-200.65 467.08,-198.02"/>
<polygon fill="#63b8ff" stroke="#63b8ff" points="517.63,-209.77 528.06,-207.92 518.75,-202.87 517.63,-209.77"/>
</a>
</g>
</g>
<!-- Node11&#45;&gt;Node3 -->
<g id="edge20_Node000011_Node000003" class="edge">
<title>Node11&#45;&gt;Node3</title>
<g id="a_edge20_Node000011_Node000003"><a xlink:title=" ">
<path fill="none" stroke="#63b8ff" d="M505.17,-168.6C456.02,-166.2 392.3,-165.1 336,-170.5 318.65,-172.16 299.72,-175.54 283.5,-178.92"/>
<polygon fill="#63b8ff" stroke="#63b8ff" points="505.26,-172.11 515.43,-169.13 505.62,-165.12 505.26,-172.11"/>
</a>
</g>
</g>
<!-- Node11&#45;&gt;Node6 -->
<g id="edge21_Node000011_Node000006" class="edge">
<title>Node11&#45;&gt;Node6</title>
<g id="a_edge21_Node000011_Node000006"><a xlink:title=" ">
<path fill="none" stroke="#63b8ff" d="M505.28,-180.91C496.57,-181.59 487.78,-182.28 479.22,-182.95"/>
<polygon fill="#63b8ff" stroke="#63b8ff" points="505.73,-184.38 515.43,-180.11 505.18,-177.41 505.73,-184.38"/>
</a>
</g>
</g>
<!-- Node12&#45;&gt;Node3 -->
<g id="edge23_Node000012_Node000003" class="edge">
<title>Node12&#45;&gt;Node3</title>
<g id="a_edge23_Node000012_Node000003"><a xlink:title=" ">
<path fill="none" stroke="#63b8ff" d="M518.62,-133.87C467.91,-139.92 397.26,-149.6 336,-162.5 314.84,-166.96 291.39,-173.52 273.33,-178.94"/>
<polygon fill="#63b8ff" stroke="#63b8ff" points="519.28,-137.32 528.8,-132.67 518.46,-130.36 519.28,-137.32"/>
</a>
</g>
</g>
<!-- Node12&#45;&gt;Node6 -->
<g id="edge24_Node000012_Node000006" class="edge">
<title>Node12&#45;&gt;Node6</title>
<g id="a_edge24_Node000012_Node000006"><a xlink:title=" ">
<path fill="none" stroke="#63b8ff" d="M531.75,-144.78C526.09,-146.7 520.43,-148.63 515,-150.5 487.53,-159.98 456.23,-171.2 434.71,-178.98"/>
<polygon fill="#63b8ff" stroke="#63b8ff" points="532.88,-148.1 541.24,-141.59 530.65,-141.46 532.88,-148.1"/>
</a>
</g>
</g>
<!-- Node13&#45;&gt;Node3 -->
<g id="edge26_Node000013_Node000003" class="edge">
<title>Node13&#45;&gt;Node3</title>
<g id="a_edge26_Node000013_Node000003"><a xlink:title=" ">
<path fill="none" stroke="#63b8ff" d="M518.42,-91.3C466.99,-98.6 395.52,-111.87 336,-134.5 305.63,-146.04 273.58,-166.84 256.17,-178.98"/>
<polygon fill="#63b8ff" stroke="#63b8ff" points="519,-94.75 528.43,-89.92 518.05,-87.82 519,-94.75"/>
</a>
</g>
</g>
<!-- Node13&#45;&gt;Node6 -->
<g id="edge27_Node000013_Node000006" class="edge">
<title>Node13&#45;&gt;Node6</title>
<g id="a_edge27_Node000013_Node000006"><a xlink:title=" ">
<path fill="none" stroke="#63b8ff" d="M529.43,-96.32C524.45,-98.14 519.57,-100.19 515,-102.5 474.29,-123.11 434.74,-161.18 417.51,-178.93"/>
<polygon fill="#63b8ff" stroke="#63b8ff" points="530.7,-99.58 539.09,-93.11 528.49,-92.94 530.7,-99.58"/>
</a>
</g>
</g>
<!-- Node14&#45;&gt;Node3 -->
<g id="edge29_Node000014_Node000003" class="edge">
<title>Node14&#45;&gt;Node3</title>
<g id="a_edge29_Node000014_Node000003"><a xlink:title=" ">
<path fill="none" stroke="#63b8ff" d="M509.3,-48.99C457.57,-53.46 389.53,-64.91 336,-93.5 296.1,-114.81 262.78,-159.18 249.36,-178.8"/>
<polygon fill="#63b8ff" stroke="#63b8ff" points="509.73,-52.47 519.42,-48.18 509.18,-45.49 509.73,-52.47"/>
</a>
</g>
</g>
<!-- Node14&#45;&gt;Node6 -->
<g id="edge30_Node000014_Node000006" class="edge">
<title>Node14&#45;&gt;Node6</title>
<g id="a_edge30_Node000014_Node000006"><a xlink:title=" ">
<path fill="none" stroke="#63b8ff" d="M525.85,-59.79C522.07,-61.47 518.42,-63.37 515,-65.5 466.34,-95.84 427.89,-155.41 414.05,-178.77"/>
<polygon fill="#63b8ff" stroke="#63b8ff" points="527.42,-62.93 535.45,-56.03 524.87,-56.42 527.42,-62.93"/>
</a>
</g>
</g>
<!-- Node15&#45;&gt;Node3 -->
<g id="edge32_Node000015_Node000003" class="edge">
<title>Node15&#45;&gt;Node3</title>
<g id="a_edge32_Node000015_Node000003"><a xlink:title=" ">
<path fill="none" stroke="#63b8ff" d="M518.19,-5.69C464.57,-5.96 390.35,-13.72 336,-48.5 285.12,-81.06 255.72,-152.5 246.33,-178.65"/>
<polygon fill="#63b8ff" stroke="#63b8ff" points="518.27,-9.19 528.29,-5.73 518.3,-2.19 518.27,-9.19"/>
</a>
</g>
</g>
<!-- Node15&#45;&gt;Node6 -->
<g id="edge33_Node000015_Node000006" class="edge">
<title>Node15&#45;&gt;Node6</title>
<g id="a_edge33_Node000015_Node000006"><a xlink:title=" ">
<path fill="none" stroke="#63b8ff" d="M521.66,-23.37C519.35,-24.63 517.12,-26 515,-27.5 457.54,-68.14 422.69,-150.45 412.01,-178.71"/>
<polygon fill="#63b8ff" stroke="#63b8ff" points="523.32,-26.45 530.91,-19.06 520.36,-20.11 523.32,-26.45"/>
</a>
</g>
</g>
</g>
</svg>
