<?xml version="1.0" encoding="UTF-8" standalone="no"?>
<!DOCTYPE svg PUBLIC "-//W3C//DTD SVG 1.1//EN"
 "http://www.w3.org/Graphics/SVG/1.1/DTD/svg11.dtd">
<!-- Generated by graphviz version 2.43.0 (0)
 -->
<!-- Title: lci::broadcast_x::call_impl Pages: 1 -->
<svg width="487pt" height="64pt"
 viewBox="0.00 0.00 487.00 64.00" xmlns="http://www.w3.org/2000/svg" xmlns:xlink="http://www.w3.org/1999/xlink">
<g id="graph0" class="graph" transform="scale(1 1) rotate(0) translate(4 60)">
<title>lci::broadcast_x::call_impl</title>
<!-- Node1 -->
<g id="Node000001" class="node">
<title>Node1</title>
<g id="a_Node000001"><a xlink:title=" ">
<polygon fill="#999999" stroke="#666666" points="479,-37 336,-37 336,-18 479,-18 479,-37"/>
<text text-anchor="middle" x="407.5" y="-25" font-family="Helvetica,sans-Serif" font-size="10.00">lci::broadcast_x::call_impl</text>
</a>
</g>
</g>
<!-- Node2 -->
<g id="Node000002" class="node">
<title>Node2</title>
<g id="a_Node000002"><a xlink:href="../../d2/d49/classlci_1_1broadcast__x.html#a2cf8cbe7f7e9184c613d00170606979d" target="_top" xlink:title=" ">
<polygon fill="white" stroke="#666666" points="300,-37 184,-37 184,-18 300,-18 300,-37"/>
<text text-anchor="middle" x="242" y="-25" font-family="Helvetica,sans-Serif" font-size="10.00">lci::broadcast_x::call</text>
</a>
</g>
</g>
<!-- Node1&#45;&gt;Node2 -->
<g id="edge1_Node000001_Node000002" class="edge">
<title>Node1&#45;&gt;Node2</title>
<g id="a_edge1_Node000001_Node000002"><a xlink:title=" ">
<path fill="none" stroke="#63b8ff" d="M325.64,-27.5C317.01,-27.5 308.36,-27.5 300.09,-27.5"/>
<polygon fill="#63b8ff" stroke="#63b8ff" points="325.74,-31 335.74,-27.5 325.74,-24 325.74,-31"/>
</a>
</g>
</g>
<!-- Node3 -->
<g id="Node000003" class="node">
<title>Node3</title>
<g id="a_Node000003"><a xlink:href="../../d5/dd3/namespacelci.html#a16edb894b126be5a60737362cea89af5" target="_top" xlink:title=" ">
<polygon fill="white" stroke="#666666" points="115,-56 33,-56 33,-37 115,-37 115,-56"/>
<text text-anchor="middle" x="74" y="-44" font-family="Helvetica,sans-Serif" font-size="10.00">lci::broadcast</text>
</a>
</g>
</g>
<!-- Node2&#45;&gt;Node3 -->
<g id="edge2_Node000002_Node000003" class="edge">
<title>Node2&#45;&gt;Node3</title>
<g id="a_edge2_Node000002_Node000003"><a xlink:title=" ">
<path fill="none" stroke="#63b8ff" d="M173.92,-35.18C154.02,-37.46 132.85,-39.88 115.22,-41.9"/>
<polygon fill="#63b8ff" stroke="#63b8ff" points="174.34,-38.65 183.87,-34.04 173.54,-31.7 174.34,-38.65"/>
</a>
</g>
</g>
<!-- Node4 -->
<g id="Node000004" class="node">
<title>Node4</title>
<g id="a_Node000004"><a xlink:href="../../d2/d49/classlci_1_1broadcast__x.html#a38dee647c6e537e46e491de5fc4ba047" target="_top" xlink:title=" ">
<polygon fill="white" stroke="#666666" points="148,-19 0,-19 0,0 148,0 148,-19"/>
<text text-anchor="middle" x="74" y="-7" font-family="Helvetica,sans-Serif" font-size="10.00">lci::broadcast_x::operator()</text>
</a>
</g>
</g>
<!-- Node2&#45;&gt;Node4 -->
<g id="edge3_Node000002_Node000004" class="edge">
<title>Node2&#45;&gt;Node4</title>
<g id="a_edge3_Node000002_Node000004"><a xlink:title=" ">
<path fill="none" stroke="#63b8ff" d="M173.71,-20.2C165.26,-19.29 156.59,-18.35 148.06,-17.42"/>
<polygon fill="#63b8ff" stroke="#63b8ff" points="173.55,-23.71 183.87,-21.31 174.31,-16.75 173.55,-23.71"/>
</a>
</g>
</g>
</g>
</svg>
