<?xml version="1.0" encoding="UTF-8" standalone="no"?>
<!DOCTYPE svg PUBLIC "-//W3C//DTD SVG 1.1//EN"
 "http://www.w3.org/Graphics/SVG/1.1/DTD/svg11.dtd">
<!-- Generated by graphviz version 2.43.0 (0)
 -->
<!-- Title: lci::broadcast_x::call_impl Pages: 1 -->
<svg width="526pt" height="261pt"
 viewBox="0.00 0.00 526.00 261.00" xmlns="http://www.w3.org/2000/svg" xmlns:xlink="http://www.w3.org/1999/xlink">
<g id="graph0" class="graph" transform="scale(1 1) rotate(0) translate(4 257)">
<title>lci::broadcast_x::call_impl</title>
<!-- Node1 -->
<g id="Node000001" class="node">
<title>Node1</title>
<g id="a_Node000001"><a xlink:title=" ">
<polygon fill="#999999" stroke="#666666" points="143,-136 0,-136 0,-117 143,-117 143,-136"/>
<text text-anchor="middle" x="71.5" y="-124" font-family="Helvetica,sans-Serif" font-size="10.00">lci::broadcast_x::call_impl</text>
</a>
</g>
</g>
<!-- Node2 -->
<g id="Node000002" class="node">
<title>Node2</title>
<g id="a_Node000002"><a xlink:href="../../d2/d49/classlci_1_1broadcast__x.html#ade77c1eb386a7e5b50de50c3f74a9328" target="_top" xlink:title=" ">
<polygon fill="white" stroke="#666666" points="315.5,-253 187.5,-253 187.5,-234 315.5,-234 315.5,-253"/>
<text text-anchor="middle" x="251.5" y="-241" font-family="Helvetica,sans-Serif" font-size="10.00">lci::broadcast_x::buffer</text>
</a>
</g>
</g>
<!-- Node1&#45;&gt;Node2 -->
<g id="edge1_Node000001_Node000002" class="edge">
<title>Node1&#45;&gt;Node2</title>
<g id="a_edge1_Node000001_Node000002"><a xlink:title=" ">
<path fill="none" stroke="#63b8ff" d="M79.9,-136.07C95.79,-155.93 135.3,-201.75 179,-225.5 182.44,-227.37 186.09,-229.05 189.83,-230.56"/>
<polygon fill="#63b8ff" stroke="#63b8ff" points="188.71,-233.88 199.3,-233.97 191.08,-227.29 188.71,-233.88"/>
</a>
</g>
</g>
<!-- Node4 -->
<g id="Node000004" class="node">
<title>Node4</title>
<g id="a_Node000004"><a xlink:href="../../d2/d49/classlci_1_1broadcast__x.html#aaaf36a09c5f5629819c625533ffed024" target="_top" xlink:title=" ">
<polygon fill="white" stroke="#666666" points="317,-216 186,-216 186,-197 317,-197 317,-216"/>
<text text-anchor="middle" x="251.5" y="-204" font-family="Helvetica,sans-Serif" font-size="10.00">lci::broadcast_x::device</text>
</a>
</g>
</g>
<!-- Node1&#45;&gt;Node4 -->
<g id="edge3_Node000001_Node000004" class="edge">
<title>Node1&#45;&gt;Node4</title>
<g id="a_edge3_Node000001_Node000004"><a xlink:title=" ">
<path fill="none" stroke="#63b8ff" d="M85.98,-136.03C105.6,-149.5 143.53,-174.05 179,-188.5 184.04,-190.55 189.37,-192.42 194.77,-194.11"/>
<polygon fill="#63b8ff" stroke="#63b8ff" points="193.92,-197.5 204.5,-196.95 195.88,-190.78 193.92,-197.5"/>
</a>
</g>
</g>
<!-- Node5 -->
<g id="Node000005" class="node">
<title>Node5</title>
<g id="a_Node000005"><a xlink:href="../../d2/d49/classlci_1_1broadcast__x.html#aedda990f51e10283c461d58ae06c6c27" target="_top" xlink:title=" ">
<polygon fill="white" stroke="#666666" points="322.5,-179 180.5,-179 180.5,-160 322.5,-160 322.5,-179"/>
<text text-anchor="middle" x="251.5" y="-167" font-family="Helvetica,sans-Serif" font-size="10.00">lci::broadcast_x::endpoint</text>
</a>
</g>
</g>
<!-- Node1&#45;&gt;Node5 -->
<g id="edge5_Node000001_Node000005" class="edge">
<title>Node1&#45;&gt;Node5</title>
<g id="a_edge5_Node000001_Node000005"><a xlink:title=" ">
<path fill="none" stroke="#63b8ff" d="M112,-136.04C138.28,-142.39 172.98,-150.77 201.08,-157.56"/>
<polygon fill="#63b8ff" stroke="#63b8ff" points="200.56,-161.04 211.11,-159.98 202.21,-154.23 200.56,-161.04"/>
</a>
</g>
</g>
<!-- Node6 -->
<g id="Node000006" class="node">
<title>Node6</title>
<g id="a_Node000006"><a xlink:href="../../d2/d49/classlci_1_1broadcast__x.html#a1d69a09a45da2685f83674feb8b89a52" target="_top" xlink:title=" ">
<polygon fill="white" stroke="#666666" points="324,-141.5 179,-141.5 179,-111.5 324,-111.5 324,-141.5"/>
<text text-anchor="start" x="187" y="-129.5" font-family="Helvetica,sans-Serif" font-size="10.00">lci::broadcast_x::matching</text>
<text text-anchor="middle" x="251.5" y="-118.5" font-family="Helvetica,sans-Serif" font-size="10.00">_engine</text>
</a>
</g>
</g>
<!-- Node1&#45;&gt;Node6 -->
<g id="edge7_Node000001_Node000006" class="edge">
<title>Node1&#45;&gt;Node6</title>
<g id="a_edge7_Node000001_Node000006"><a xlink:title=" ">
<path fill="none" stroke="#63b8ff" d="M143.11,-126.5C151.55,-126.5 160.22,-126.5 168.8,-126.5"/>
<polygon fill="#63b8ff" stroke="#63b8ff" points="168.81,-130 178.81,-126.5 168.81,-123 168.81,-130"/>
</a>
</g>
</g>
<!-- Node7 -->
<g id="Node000007" class="node">
<title>Node7</title>
<g id="a_Node000007"><a xlink:href="../../d2/d49/classlci_1_1broadcast__x.html#a4d8f8c6d161b522b1ed10367301a1b1e" target="_top" xlink:title=" ">
<polygon fill="white" stroke="#666666" points="311,-93 192,-93 192,-74 311,-74 311,-93"/>
<text text-anchor="middle" x="251.5" y="-81" font-family="Helvetica,sans-Serif" font-size="10.00">lci::broadcast_x::root</text>
</a>
</g>
</g>
<!-- Node1&#45;&gt;Node7 -->
<g id="edge9_Node000001_Node000007" class="edge">
<title>Node1&#45;&gt;Node7</title>
<g id="a_edge9_Node000001_Node000007"><a xlink:title=" ">
<path fill="none" stroke="#63b8ff" d="M112,-116.96C138.28,-110.61 172.98,-102.23 201.08,-95.44"/>
<polygon fill="#63b8ff" stroke="#63b8ff" points="202.21,-98.77 211.11,-93.02 200.56,-91.96 202.21,-98.77"/>
</a>
</g>
</g>
<!-- Node8 -->
<g id="Node000008" class="node">
<title>Node8</title>
<g id="a_Node000008"><a xlink:href="../../d2/d49/classlci_1_1broadcast__x.html#a577fe39525f3f807ae05a4a82d342748" target="_top" xlink:title=" ">
<polygon fill="white" stroke="#666666" points="320,-56 183,-56 183,-37 320,-37 320,-56"/>
<text text-anchor="middle" x="251.5" y="-44" font-family="Helvetica,sans-Serif" font-size="10.00">lci::broadcast_x::runtime</text>
</a>
</g>
</g>
<!-- Node1&#45;&gt;Node8 -->
<g id="edge11_Node000001_Node000008" class="edge">
<title>Node1&#45;&gt;Node8</title>
<g id="a_edge11_Node000001_Node000008"><a xlink:title=" ">
<path fill="none" stroke="#63b8ff" d="M86.37,-116.98C106.13,-103.78 143.92,-79.92 179,-65.5 184.85,-63.1 191.09,-60.92 197.36,-58.96"/>
<polygon fill="#63b8ff" stroke="#63b8ff" points="198.57,-62.25 207.18,-56.07 196.6,-55.54 198.57,-62.25"/>
</a>
</g>
</g>
<!-- Node9 -->
<g id="Node000009" class="node">
<title>Node9</title>
<g id="a_Node000009"><a xlink:href="../../d2/d49/classlci_1_1broadcast__x.html#a781ac63cbe086142460dbb1ea68843ea" target="_top" xlink:title=" ">
<polygon fill="white" stroke="#666666" points="311,-19 192,-19 192,0 311,0 311,-19"/>
<text text-anchor="middle" x="251.5" y="-7" font-family="Helvetica,sans-Serif" font-size="10.00">lci::broadcast_x::size</text>
</a>
</g>
</g>
<!-- Node1&#45;&gt;Node9 -->
<g id="edge13_Node000001_Node000009" class="edge">
<title>Node1&#45;&gt;Node9</title>
<g id="a_edge13_Node000001_Node000009"><a xlink:title=" ">
<path fill="none" stroke="#63b8ff" d="M80.19,-116.78C96.33,-97.05 135.82,-52.19 179,-28.5 183.15,-26.23 187.58,-24.21 192.13,-22.43"/>
<polygon fill="#63b8ff" stroke="#63b8ff" points="193.31,-25.73 201.58,-19.1 190.98,-19.12 193.31,-25.73"/>
</a>
</g>
</g>
<!-- Node3 -->
<g id="Node000003" class="node">
<title>Node3</title>
<g id="a_Node000003"><a xlink:href="../../d2/d49/classlci_1_1broadcast__x.html#a95bdda8f651ab3b80bff3aba0acae48c" target="_top" xlink:title=" ">
<polygon fill="white" stroke="#666666" points="518,-136 360,-136 360,-117 518,-117 518,-136"/>
<text text-anchor="middle" x="439" y="-124" font-family="Helvetica,sans-Serif" font-size="10.00">lci::broadcast_x::broadcast_x</text>
</a>
</g>
</g>
<!-- Node2&#45;&gt;Node3 -->
<g id="edge2_Node000002_Node000003" class="edge">
<title>Node2&#45;&gt;Node3</title>
<g id="a_edge2_Node000002_Node000003"><a xlink:title=" ">
<path fill="none" stroke="#63b8ff" d="M303.22,-233.9C310.4,-231.64 317.53,-228.87 324,-225.5 364.6,-204.32 402.87,-165.95 423.09,-143.71"/>
<polygon fill="#63b8ff" stroke="#63b8ff" points="425.88,-145.84 429.92,-136.05 420.65,-141.18 425.88,-145.84"/>
</a>
</g>
</g>
<!-- Node4&#45;&gt;Node3 -->
<g id="edge4_Node000004_Node000003" class="edge">
<title>Node4&#45;&gt;Node3</title>
<g id="a_edge4_Node000004_Node000003"><a xlink:title=" ">
<path fill="none" stroke="#63b8ff" d="M297.67,-196.96C306.53,-194.58 315.65,-191.76 324,-188.5 356.83,-175.68 392.11,-155.37 414.58,-141.52"/>
<polygon fill="#63b8ff" stroke="#63b8ff" points="416.48,-144.46 423.1,-136.2 412.77,-138.53 416.48,-144.46"/>
</a>
</g>
</g>
<!-- Node5&#45;&gt;Node3 -->
<g id="edge6_Node000005_Node000003" class="edge">
<title>Node5&#45;&gt;Node3</title>
<g id="a_edge6_Node000005_Node000003"><a xlink:title=" ">
<path fill="none" stroke="#63b8ff" d="M293.67,-159.96C321.17,-153.58 357.53,-145.15 386.88,-138.35"/>
<polygon fill="#63b8ff" stroke="#63b8ff" points="388,-141.68 396.95,-136.02 386.41,-134.87 388,-141.68"/>
</a>
</g>
</g>
<!-- Node6&#45;&gt;Node3 -->
<g id="edge8_Node000006_Node000003" class="edge">
<title>Node6&#45;&gt;Node3</title>
<g id="a_edge8_Node000006_Node000003"><a xlink:title=" ">
<path fill="none" stroke="#63b8ff" d="M324.22,-126.5C332.48,-126.5 340.98,-126.5 349.43,-126.5"/>
<polygon fill="#63b8ff" stroke="#63b8ff" points="349.7,-130 359.7,-126.5 349.7,-123 349.7,-130"/>
</a>
</g>
</g>
<!-- Node7&#45;&gt;Node3 -->
<g id="edge10_Node000007_Node000003" class="edge">
<title>Node7&#45;&gt;Node3</title>
<g id="a_edge10_Node000007_Node000003"><a xlink:title=" ">
<path fill="none" stroke="#63b8ff" d="M293.67,-93.04C321.17,-99.42 357.53,-107.85 386.88,-114.65"/>
<polygon fill="#63b8ff" stroke="#63b8ff" points="386.41,-118.13 396.95,-116.98 388,-111.32 386.41,-118.13"/>
</a>
</g>
</g>
<!-- Node8&#45;&gt;Node3 -->
<g id="edge12_Node000008_Node000003" class="edge">
<title>Node8&#45;&gt;Node3</title>
<g id="a_edge12_Node000008_Node000003"><a xlink:title=" ">
<path fill="none" stroke="#63b8ff" d="M294.99,-56.06C304.66,-58.71 314.8,-61.87 324,-65.5 356.49,-78.31 391.59,-98.07 414.13,-111.61"/>
<polygon fill="#63b8ff" stroke="#63b8ff" points="412.33,-114.62 422.69,-116.82 415.97,-108.63 412.33,-114.62"/>
</a>
</g>
</g>
<!-- Node9&#45;&gt;Node3 -->
<g id="edge14_Node000009_Node000003" class="edge">
<title>Node9&#45;&gt;Node3</title>
<g id="a_edge14_Node000009_Node000003"><a xlink:title=" ">
<path fill="none" stroke="#63b8ff" d="M300.56,-19.07C308.62,-21.57 316.73,-24.67 324,-28.5 364.13,-49.64 402.31,-87.25 422.7,-109.22"/>
<polygon fill="#63b8ff" stroke="#63b8ff" points="420.29,-111.76 429.61,-116.8 425.46,-107.05 420.29,-111.76"/>
</a>
</g>
</g>
</g>
</svg>
