<?xml version="1.0" encoding="UTF-8" standalone="no"?>
<!DOCTYPE svg PUBLIC "-//W3C//DTD SVG 1.1//EN"
 "http://www.w3.org/Graphics/SVG/1.1/DTD/svg11.dtd">
<!-- Generated by graphviz version 2.43.0 (0)
 -->
<!-- Title: lci::broadcast_x::call Pages: 1 -->
<svg width="678pt" height="261pt"
 viewBox="0.00 0.00 678.00 261.00" xmlns="http://www.w3.org/2000/svg" xmlns:xlink="http://www.w3.org/1999/xlink">
<g id="graph0" class="graph" transform="scale(1 1) rotate(0) translate(4 257)">
<title>lci::broadcast_x::call</title>
<!-- Node1 -->
<g id="Node000001" class="node">
<title>Node1</title>
<g id="a_Node000001"><a xlink:title=" ">
<polygon fill="#999999" stroke="#666666" points="116,-136 0,-136 0,-117 116,-117 116,-136"/>
<text text-anchor="middle" x="58" y="-124" font-family="Helvetica,sans-Serif" font-size="10.00">lci::broadcast_x::call</text>
</a>
</g>
</g>
<!-- Node2 -->
<g id="Node000002" class="node">
<title>Node2</title>
<g id="a_Node000002"><a xlink:href="../../d2/d49/classlci_1_1broadcast__x.html#ade77c1eb386a7e5b50de50c3f74a9328" target="_top" xlink:title=" ">
<polygon fill="white" stroke="#666666" points="467.5,-253 339.5,-253 339.5,-234 467.5,-234 467.5,-253"/>
<text text-anchor="middle" x="403.5" y="-241" font-family="Helvetica,sans-Serif" font-size="10.00">lci::broadcast_x::buffer</text>
</a>
</g>
</g>
<!-- Node1&#45;&gt;Node2 -->
<g id="edge1_Node000001_Node000002" class="edge">
<title>Node1&#45;&gt;Node2</title>
<g id="a_edge1_Node000001_Node000002"><a xlink:title=" ">
<path fill="none" stroke="#63b8ff" d="M66.49,-136.08C80.91,-153.75 114.45,-191.24 152,-208.5 207.92,-234.2 277.7,-242.25 329.39,-244.27"/>
<polygon fill="#63b8ff" stroke="#63b8ff" points="329.37,-247.77 339.48,-244.6 329.6,-240.78 329.37,-247.77"/>
</a>
</g>
</g>
<!-- Node4 -->
<g id="Node000004" class="node">
<title>Node4</title>
<g id="a_Node000004"><a xlink:href="../../d2/d49/classlci_1_1broadcast__x.html#ae4c8d524775bd9d92ebf8464f5ec722a" target="_top" xlink:title=" ">
<polygon fill="white" stroke="#666666" points="295,-155 152,-155 152,-136 295,-136 295,-155"/>
<text text-anchor="middle" x="223.5" y="-143" font-family="Helvetica,sans-Serif" font-size="10.00">lci::broadcast_x::call_impl</text>
</a>
</g>
</g>
<!-- Node1&#45;&gt;Node4 -->
<g id="edge3_Node000001_Node000004" class="edge">
<title>Node1&#45;&gt;Node4</title>
<g id="a_edge3_Node000001_Node000004"><a xlink:title=" ">
<path fill="none" stroke="#63b8ff" d="M116.18,-133.15C124.46,-134.11 133.1,-135.11 141.73,-136.11"/>
<polygon fill="#63b8ff" stroke="#63b8ff" points="141.49,-139.61 151.83,-137.29 142.3,-132.66 141.49,-139.61"/>
</a>
</g>
</g>
<!-- Node5 -->
<g id="Node000005" class="node">
<title>Node5</title>
<g id="a_Node000005"><a xlink:href="../../d2/d49/classlci_1_1broadcast__x.html#aaaf36a09c5f5629819c625533ffed024" target="_top" xlink:title=" ">
<polygon fill="white" stroke="#666666" points="469,-216 338,-216 338,-197 469,-197 469,-216"/>
<text text-anchor="middle" x="403.5" y="-204" font-family="Helvetica,sans-Serif" font-size="10.00">lci::broadcast_x::device</text>
</a>
</g>
</g>
<!-- Node1&#45;&gt;Node5 -->
<g id="edge17_Node000001_Node000005" class="edge">
<title>Node1&#45;&gt;Node5</title>
<g id="a_edge17_Node000001_Node000005"><a xlink:title=" ">
<path fill="none" stroke="#63b8ff" d="M70.73,-136.19C87.54,-149.47 120.01,-172.87 152,-183.5 208.9,-202.4 276.82,-207.64 327.57,-208.44"/>
<polygon fill="#63b8ff" stroke="#63b8ff" points="327.77,-211.94 337.8,-208.55 327.84,-204.95 327.77,-211.94"/>
</a>
</g>
</g>
<!-- Node6 -->
<g id="Node000006" class="node">
<title>Node6</title>
<g id="a_Node000006"><a xlink:href="../../d2/d49/classlci_1_1broadcast__x.html#aedda990f51e10283c461d58ae06c6c27" target="_top" xlink:title=" ">
<polygon fill="white" stroke="#666666" points="474.5,-179 332.5,-179 332.5,-160 474.5,-160 474.5,-179"/>
<text text-anchor="middle" x="403.5" y="-167" font-family="Helvetica,sans-Serif" font-size="10.00">lci::broadcast_x::endpoint</text>
</a>
</g>
</g>
<!-- Node1&#45;&gt;Node6 -->
<g id="edge18_Node000001_Node000006" class="edge">
<title>Node1&#45;&gt;Node6</title>
<g id="a_edge18_Node000001_Node000006"><a xlink:title=" ">
<path fill="none" stroke="#63b8ff" d="M76.9,-136.14C95.18,-145.42 124.67,-158.85 152,-164.5 208.09,-176.1 272.75,-177.09 322.33,-175.31"/>
<polygon fill="#63b8ff" stroke="#63b8ff" points="322.51,-178.81 332.36,-174.91 322.22,-171.82 322.51,-178.81"/>
</a>
</g>
</g>
<!-- Node7 -->
<g id="Node000007" class="node">
<title>Node7</title>
<g id="a_Node000007"><a xlink:href="../../d2/d49/classlci_1_1broadcast__x.html#a1d69a09a45da2685f83674feb8b89a52" target="_top" xlink:title=" ">
<polygon fill="white" stroke="#666666" points="476,-141.5 331,-141.5 331,-111.5 476,-111.5 476,-141.5"/>
<text text-anchor="start" x="339" y="-129.5" font-family="Helvetica,sans-Serif" font-size="10.00">lci::broadcast_x::matching</text>
<text text-anchor="middle" x="403.5" y="-118.5" font-family="Helvetica,sans-Serif" font-size="10.00">_engine</text>
</a>
</g>
</g>
<!-- Node1&#45;&gt;Node7 -->
<g id="edge19_Node000001_Node000007" class="edge">
<title>Node1&#45;&gt;Node7</title>
<g id="a_edge19_Node000001_Node000007"><a xlink:title=" ">
<path fill="none" stroke="#63b8ff" d="M116.11,-126.5C171.95,-126.5 257.54,-126.5 320.62,-126.5"/>
<polygon fill="#63b8ff" stroke="#63b8ff" points="320.94,-130 330.94,-126.5 320.94,-123 320.94,-130"/>
</a>
</g>
</g>
<!-- Node8 -->
<g id="Node000008" class="node">
<title>Node8</title>
<g id="a_Node000008"><a xlink:href="../../d2/d49/classlci_1_1broadcast__x.html#a4d8f8c6d161b522b1ed10367301a1b1e" target="_top" xlink:title=" ">
<polygon fill="white" stroke="#666666" points="463,-93 344,-93 344,-74 463,-74 463,-93"/>
<text text-anchor="middle" x="403.5" y="-81" font-family="Helvetica,sans-Serif" font-size="10.00">lci::broadcast_x::root</text>
</a>
</g>
</g>
<!-- Node1&#45;&gt;Node8 -->
<g id="edge20_Node000001_Node000008" class="edge">
<title>Node1&#45;&gt;Node8</title>
<g id="a_edge20_Node000001_Node000008"><a xlink:title=" ">
<path fill="none" stroke="#63b8ff" d="M116.11,-119.35C175.96,-111.86 269.98,-100.09 333.84,-92.1"/>
<polygon fill="#63b8ff" stroke="#63b8ff" points="334.33,-95.56 343.82,-90.85 333.46,-88.62 334.33,-95.56"/>
</a>
</g>
</g>
<!-- Node9 -->
<g id="Node000009" class="node">
<title>Node9</title>
<g id="a_Node000009"><a xlink:href="../../d2/d49/classlci_1_1broadcast__x.html#a577fe39525f3f807ae05a4a82d342748" target="_top" xlink:title=" ">
<polygon fill="white" stroke="#666666" points="472,-56 335,-56 335,-37 472,-37 472,-56"/>
<text text-anchor="middle" x="403.5" y="-44" font-family="Helvetica,sans-Serif" font-size="10.00">lci::broadcast_x::runtime</text>
</a>
</g>
</g>
<!-- Node1&#45;&gt;Node9 -->
<g id="edge21_Node000001_Node000009" class="edge">
<title>Node1&#45;&gt;Node9</title>
<g id="a_edge21_Node000001_Node000009"><a xlink:title=" ">
<path fill="none" stroke="#63b8ff" d="M81.96,-116.87C100.57,-109.37 127.62,-99.14 152,-92.5 209.07,-76.95 274.91,-65.09 324.76,-57.31"/>
<polygon fill="#63b8ff" stroke="#63b8ff" points="325.47,-60.74 334.82,-55.76 324.41,-53.82 325.47,-60.74"/>
</a>
</g>
</g>
<!-- Node10 -->
<g id="Node000010" class="node">
<title>Node10</title>
<g id="a_Node000010"><a xlink:href="../../d2/d49/classlci_1_1broadcast__x.html#a781ac63cbe086142460dbb1ea68843ea" target="_top" xlink:title=" ">
<polygon fill="white" stroke="#666666" points="463,-19 344,-19 344,0 463,0 463,-19"/>
<text text-anchor="middle" x="403.5" y="-7" font-family="Helvetica,sans-Serif" font-size="10.00">lci::broadcast_x::size</text>
</a>
</g>
</g>
<!-- Node1&#45;&gt;Node10 -->
<g id="edge22_Node000001_Node000010" class="edge">
<title>Node1&#45;&gt;Node10</title>
<g id="a_edge22_Node000001_Node000010"><a xlink:title=" ">
<path fill="none" stroke="#63b8ff" d="M68.63,-116.97C84.54,-101.83 117.95,-72.46 152,-57.5 210.25,-31.92 282.02,-19.93 333.78,-14.34"/>
<polygon fill="#63b8ff" stroke="#63b8ff" points="334.27,-17.81 343.86,-13.3 333.55,-10.84 334.27,-17.81"/>
</a>
</g>
</g>
<!-- Node3 -->
<g id="Node000003" class="node">
<title>Node3</title>
<g id="a_Node000003"><a xlink:href="../../d2/d49/classlci_1_1broadcast__x.html#a95bdda8f651ab3b80bff3aba0acae48c" target="_top" xlink:title=" ">
<polygon fill="white" stroke="#666666" points="670,-136 512,-136 512,-117 670,-117 670,-136"/>
<text text-anchor="middle" x="591" y="-124" font-family="Helvetica,sans-Serif" font-size="10.00">lci::broadcast_x::broadcast_x</text>
</a>
</g>
</g>
<!-- Node2&#45;&gt;Node3 -->
<g id="edge2_Node000002_Node000003" class="edge">
<title>Node2&#45;&gt;Node3</title>
<g id="a_edge2_Node000002_Node000003"><a xlink:title=" ">
<path fill="none" stroke="#63b8ff" d="M455.22,-233.9C462.4,-231.64 469.53,-228.87 476,-225.5 516.6,-204.32 554.87,-165.95 575.09,-143.71"/>
<polygon fill="#63b8ff" stroke="#63b8ff" points="577.88,-145.84 581.92,-136.05 572.65,-141.18 577.88,-145.84"/>
</a>
</g>
</g>
<!-- Node4&#45;&gt;Node2 -->
<g id="edge4_Node000004_Node000002" class="edge">
<title>Node4&#45;&gt;Node2</title>
<g id="a_edge4_Node000004_Node000002"><a xlink:title=" ">
<path fill="none" stroke="#63b8ff" d="M234.46,-155.2C252.31,-172.04 291.56,-206.67 331,-225.5 335.07,-227.44 339.38,-229.2 343.78,-230.77"/>
<polygon fill="#63b8ff" stroke="#63b8ff" points="342.92,-234.17 353.51,-233.93 345.08,-227.51 342.92,-234.17"/>
</a>
</g>
</g>
<!-- Node4&#45;&gt;Node5 -->
<g id="edge5_Node000004_Node000005" class="edge">
<title>Node4&#45;&gt;Node5</title>
<g id="a_edge5_Node000004_Node000005"><a xlink:title=" ">
<path fill="none" stroke="#63b8ff" d="M245.8,-155.11C267.07,-164.46 300.86,-178.67 331,-188.5 337.38,-190.58 344.14,-192.56 350.86,-194.4"/>
<polygon fill="#63b8ff" stroke="#63b8ff" points="350.07,-197.81 360.64,-196.98 351.86,-191.04 350.07,-197.81"/>
</a>
</g>
</g>
<!-- Node4&#45;&gt;Node6 -->
<g id="edge7_Node000004_Node000006" class="edge">
<title>Node4&#45;&gt;Node6</title>
<g id="a_edge7_Node000004_Node000006"><a xlink:title=" ">
<path fill="none" stroke="#63b8ff" d="M295.11,-155.02C303.99,-156.22 313.13,-157.45 322.16,-158.67"/>
<polygon fill="#63b8ff" stroke="#63b8ff" points="321.89,-162.16 332.27,-160.03 322.83,-155.23 321.89,-162.16"/>
</a>
</g>
</g>
<!-- Node4&#45;&gt;Node7 -->
<g id="edge9_Node000004_Node000007" class="edge">
<title>Node4&#45;&gt;Node7</title>
<g id="a_edge9_Node000004_Node000007"><a xlink:title=" ">
<path fill="none" stroke="#63b8ff" d="M295.11,-137.96C303.55,-137.06 312.22,-136.14 320.8,-135.22"/>
<polygon fill="#63b8ff" stroke="#63b8ff" points="321.24,-138.69 330.81,-134.15 320.5,-131.73 321.24,-138.69"/>
</a>
</g>
</g>
<!-- Node4&#45;&gt;Node8 -->
<g id="edge11_Node000004_Node000008" class="edge">
<title>Node4&#45;&gt;Node8</title>
<g id="a_edge11_Node000004_Node000008"><a xlink:title=" ">
<path fill="none" stroke="#63b8ff" d="M245.83,-135.98C267.12,-126.68 300.92,-112.53 331,-102.5 338.12,-100.13 345.71,-97.85 353.19,-95.74"/>
<polygon fill="#63b8ff" stroke="#63b8ff" points="354.18,-99.1 362.9,-93.09 352.33,-92.35 354.18,-99.1"/>
</a>
</g>
</g>
<!-- Node4&#45;&gt;Node9 -->
<g id="edge13_Node000004_Node000009" class="edge">
<title>Node4&#45;&gt;Node9</title>
<g id="a_edge13_Node000004_Node000009"><a xlink:title=" ">
<path fill="none" stroke="#63b8ff" d="M234.49,-135.85C252.37,-119.1 291.68,-84.59 331,-65.5 335.91,-63.12 341.16,-61 346.5,-59.13"/>
<polygon fill="#63b8ff" stroke="#63b8ff" points="347.72,-62.41 356.17,-56.02 345.57,-55.75 347.72,-62.41"/>
</a>
</g>
</g>
<!-- Node4&#45;&gt;Node10 -->
<g id="edge15_Node000004_Node000010" class="edge">
<title>Node4&#45;&gt;Node10</title>
<g id="a_edge15_Node000004_Node000010"><a xlink:title=" ">
<path fill="none" stroke="#63b8ff" d="M230.34,-135.8C244.54,-113.09 283.23,-56.24 331,-27.5 333.85,-25.78 336.86,-24.23 339.97,-22.83"/>
<polygon fill="#63b8ff" stroke="#63b8ff" points="341.51,-25.98 349.52,-19.04 338.93,-19.47 341.51,-25.98"/>
</a>
</g>
</g>
<!-- Node5&#45;&gt;Node3 -->
<g id="edge6_Node000005_Node000003" class="edge">
<title>Node5&#45;&gt;Node3</title>
<g id="a_edge6_Node000005_Node000003"><a xlink:title=" ">
<path fill="none" stroke="#63b8ff" d="M449.67,-196.96C458.53,-194.58 467.65,-191.76 476,-188.5 508.83,-175.68 544.11,-155.37 566.58,-141.52"/>
<polygon fill="#63b8ff" stroke="#63b8ff" points="568.48,-144.46 575.1,-136.2 564.77,-138.53 568.48,-144.46"/>
</a>
</g>
</g>
<!-- Node6&#45;&gt;Node3 -->
<g id="edge8_Node000006_Node000003" class="edge">
<title>Node6&#45;&gt;Node3</title>
<g id="a_edge8_Node000006_Node000003"><a xlink:title=" ">
<path fill="none" stroke="#63b8ff" d="M445.67,-159.96C473.17,-153.58 509.53,-145.15 538.88,-138.35"/>
<polygon fill="#63b8ff" stroke="#63b8ff" points="540,-141.68 548.95,-136.02 538.41,-134.87 540,-141.68"/>
</a>
</g>
</g>
<!-- Node7&#45;&gt;Node3 -->
<g id="edge10_Node000007_Node000003" class="edge">
<title>Node7&#45;&gt;Node3</title>
<g id="a_edge10_Node000007_Node000003"><a xlink:title=" ">
<path fill="none" stroke="#63b8ff" d="M476.22,-126.5C484.48,-126.5 492.98,-126.5 501.43,-126.5"/>
<polygon fill="#63b8ff" stroke="#63b8ff" points="501.7,-130 511.7,-126.5 501.7,-123 501.7,-130"/>
</a>
</g>
</g>
<!-- Node8&#45;&gt;Node3 -->
<g id="edge12_Node000008_Node000003" class="edge">
<title>Node8&#45;&gt;Node3</title>
<g id="a_edge12_Node000008_Node000003"><a xlink:title=" ">
<path fill="none" stroke="#63b8ff" d="M445.67,-93.04C473.17,-99.42 509.53,-107.85 538.88,-114.65"/>
<polygon fill="#63b8ff" stroke="#63b8ff" points="538.41,-118.13 548.95,-116.98 540,-111.32 538.41,-118.13"/>
</a>
</g>
</g>
<!-- Node9&#45;&gt;Node3 -->
<g id="edge14_Node000009_Node000003" class="edge">
<title>Node9&#45;&gt;Node3</title>
<g id="a_edge14_Node000009_Node000003"><a xlink:title=" ">
<path fill="none" stroke="#63b8ff" d="M446.99,-56.06C456.66,-58.71 466.8,-61.87 476,-65.5 508.49,-78.31 543.59,-98.07 566.13,-111.61"/>
<polygon fill="#63b8ff" stroke="#63b8ff" points="564.33,-114.62 574.69,-116.82 567.97,-108.63 564.33,-114.62"/>
</a>
</g>
</g>
<!-- Node10&#45;&gt;Node3 -->
<g id="edge16_Node000010_Node000003" class="edge">
<title>Node10&#45;&gt;Node3</title>
<g id="a_edge16_Node000010_Node000003"><a xlink:title=" ">
<path fill="none" stroke="#63b8ff" d="M455.22,-19.1C462.4,-21.36 469.53,-24.13 476,-27.5 516.6,-48.68 554.87,-87.05 575.09,-109.29"/>
<polygon fill="#63b8ff" stroke="#63b8ff" points="572.65,-111.82 581.92,-116.95 577.88,-107.16 572.65,-111.82"/>
</a>
</g>
</g>
</g>
</svg>
