<?xml version="1.0" encoding="UTF-8" standalone="no"?>
<!DOCTYPE svg PUBLIC "-//W3C//DTD SVG 1.1//EN"
 "http://www.w3.org/Graphics/SVG/1.1/DTD/svg11.dtd">
<!-- Generated by graphviz version 2.43.0 (0)
 -->
<!-- Title: lci::alloc_runtime_x::call_impl Pages: 1 -->
<svg width="454pt" height="482pt"
 viewBox="0.00 0.00 454.00 482.00" xmlns="http://www.w3.org/2000/svg" xmlns:xlink="http://www.w3.org/1999/xlink">
<g id="graph0" class="graph" transform="scale(1 1) rotate(0) translate(4 478)">
<title>lci::alloc_runtime_x::call_impl</title>
<!-- Node1 -->
<g id="Node000001" class="node">
<title>Node1</title>
<g id="a_Node000001"><a xlink:title=" ">
<polygon fill="#999999" stroke="#666666" points="101,-246 0,-246 0,-216 101,-216 101,-246"/>
<text text-anchor="start" x="8" y="-234" font-family="Helvetica,sans-Serif" font-size="10.00">lci::alloc_runtime</text>
<text text-anchor="middle" x="50.5" y="-223" font-family="Helvetica,sans-Serif" font-size="10.00">_x::call_impl</text>
</a>
</g>
</g>
<!-- Node2 -->
<g id="Node000002" class="node">
<title>Node2</title>
<g id="a_Node000002"><a xlink:href="../../d4/d5c/classlci_1_1alloc__runtime__x.html#a6b7476a4eed1ff2a53f98adfd29bbce6" target="_top" xlink:title=" ">
<polygon fill="white" stroke="#666666" points="284.5,-474 150.5,-474 150.5,-444 284.5,-444 284.5,-474"/>
<text text-anchor="start" x="158.5" y="-462" font-family="Helvetica,sans-Serif" font-size="10.00">lci::alloc_runtime</text>
<text text-anchor="middle" x="217.5" y="-451" font-family="Helvetica,sans-Serif" font-size="10.00">_x::alloc_default_device</text>
</a>
</g>
</g>
<!-- Node1&#45;&gt;Node2 -->
<g id="edge1_Node000001_Node000002" class="edge">
<title>Node1&#45;&gt;Node2</title>
<g id="a_edge1_Node000001_Node000002"><a xlink:title=" ">
<path fill="none" stroke="#63b8ff" d="M53.41,-246.06C58.97,-283.67 78.67,-382.42 137,-435 138.49,-436.34 140.04,-437.6 141.66,-438.8"/>
<polygon fill="#63b8ff" stroke="#63b8ff" points="139.88,-441.81 150.2,-444.2 143.62,-435.9 139.88,-441.81"/>
</a>
</g>
</g>
<!-- Node4 -->
<g id="Node000004" class="node">
<title>Node4</title>
<g id="a_Node000004"><a xlink:href="../../d4/d5c/classlci_1_1alloc__runtime__x.html#a616c5f548d9dd3c5da745a2292f4cfb7" target="_top" xlink:title=" ">
<polygon fill="white" stroke="#666666" points="291.5,-425.5 143.5,-425.5 143.5,-384.5 291.5,-384.5 291.5,-425.5"/>
<text text-anchor="start" x="151.5" y="-413.5" font-family="Helvetica,sans-Serif" font-size="10.00">lci::alloc_runtime</text>
<text text-anchor="start" x="151.5" y="-402.5" font-family="Helvetica,sans-Serif" font-size="10.00">_x::alloc_default_matching</text>
<text text-anchor="middle" x="217.5" y="-391.5" font-family="Helvetica,sans-Serif" font-size="10.00">_engine</text>
</a>
</g>
</g>
<!-- Node1&#45;&gt;Node4 -->
<g id="edge3_Node000001_Node000004" class="edge">
<title>Node1&#45;&gt;Node4</title>
<g id="a_edge3_Node000001_Node000004"><a xlink:title=" ">
<path fill="none" stroke="#63b8ff" d="M56.67,-246.32C67.24,-275.41 94.01,-338.94 137,-375 138.57,-376.32 140.2,-377.58 141.88,-378.78"/>
<polygon fill="#63b8ff" stroke="#63b8ff" points="140.37,-381.97 150.68,-384.4 144.14,-376.07 140.37,-381.97"/>
</a>
</g>
</g>
<!-- Node5 -->
<g id="Node000005" class="node">
<title>Node5</title>
<g id="a_Node000005"><a xlink:href="../../d4/d5c/classlci_1_1alloc__runtime__x.html#a3fa440edec4465125be1e82bd94ef588" target="_top" xlink:title=" ">
<polygon fill="white" stroke="#666666" points="298,-366 137,-366 137,-336 298,-336 298,-366"/>
<text text-anchor="start" x="145" y="-354" font-family="Helvetica,sans-Serif" font-size="10.00">lci::alloc_runtime</text>
<text text-anchor="middle" x="217.5" y="-343" font-family="Helvetica,sans-Serif" font-size="10.00">_x::alloc_default_packet_pool</text>
</a>
</g>
</g>
<!-- Node1&#45;&gt;Node5 -->
<g id="edge5_Node000001_Node000005" class="edge">
<title>Node1&#45;&gt;Node5</title>
<g id="a_edge5_Node000001_Node000005"><a xlink:title=" ">
<path fill="none" stroke="#63b8ff" d="M61.15,-246.35C75.26,-267.56 103.52,-305.62 137,-327 139.59,-328.65 142.3,-330.2 145.09,-331.64"/>
<polygon fill="#63b8ff" stroke="#63b8ff" points="143.7,-334.85 154.24,-335.91 146.66,-328.51 143.7,-334.85"/>
</a>
</g>
</g>
<!-- Node6 -->
<g id="Node000006" class="node">
<title>Node6</title>
<g id="a_Node000006"><a xlink:href="../../d4/d5c/classlci_1_1alloc__runtime__x.html#ab25ab293b9bdb7d886e6b0e48f425325" target="_top" xlink:title=" ">
<polygon fill="white" stroke="#666666" points="268,-318 167,-318 167,-288 268,-288 268,-318"/>
<text text-anchor="start" x="175" y="-306" font-family="Helvetica,sans-Serif" font-size="10.00">lci::alloc_runtime</text>
<text text-anchor="middle" x="217.5" y="-295" font-family="Helvetica,sans-Serif" font-size="10.00">_x::device_name</text>
</a>
</g>
</g>
<!-- Node1&#45;&gt;Node6 -->
<g id="edge7_Node000001_Node000006" class="edge">
<title>Node1&#45;&gt;Node6</title>
<g id="a_edge7_Node000001_Node000006"><a xlink:title=" ">
<path fill="none" stroke="#63b8ff" d="M75.11,-246.11C91.89,-256.38 115.23,-269.73 137,-279 143.33,-281.69 150.06,-284.22 156.82,-286.54"/>
<polygon fill="#63b8ff" stroke="#63b8ff" points="156.12,-289.99 166.71,-289.79 158.31,-283.34 156.12,-289.99"/>
</a>
</g>
</g>
<!-- Node7 -->
<g id="Node000007" class="node">
<title>Node7</title>
<g id="a_Node000007"><a xlink:href="../../d4/d5c/classlci_1_1alloc__runtime__x.html#a07a500a193d6a0cdc690619a79d56162" target="_top" xlink:title=" ">
<polygon fill="white" stroke="#666666" points="278.5,-270 156.5,-270 156.5,-240 278.5,-240 278.5,-270"/>
<text text-anchor="start" x="164.5" y="-258" font-family="Helvetica,sans-Serif" font-size="10.00">lci::alloc_runtime</text>
<text text-anchor="middle" x="217.5" y="-247" font-family="Helvetica,sans-Serif" font-size="10.00">_x::imm_nbits_rcomp</text>
</a>
</g>
</g>
<!-- Node1&#45;&gt;Node7 -->
<g id="edge9_Node000001_Node000007" class="edge">
<title>Node1&#45;&gt;Node7</title>
<g id="a_edge9_Node000001_Node000007"><a xlink:title=" ">
<path fill="none" stroke="#63b8ff" d="M101.01,-238.2C115.26,-240.27 131.08,-242.57 146.33,-244.79"/>
<polygon fill="#63b8ff" stroke="#63b8ff" points="145.84,-248.26 156.24,-246.23 146.85,-241.33 145.84,-248.26"/>
</a>
</g>
</g>
<!-- Node8 -->
<g id="Node000008" class="node">
<title>Node8</title>
<g id="a_Node000008"><a xlink:href="../../d4/d5c/classlci_1_1alloc__runtime__x.html#a00ed631363e3dab1d966be0197724877" target="_top" xlink:title=" ">
<polygon fill="white" stroke="#666666" points="271,-222 164,-222 164,-192 271,-192 271,-222"/>
<text text-anchor="start" x="172" y="-210" font-family="Helvetica,sans-Serif" font-size="10.00">lci::alloc_runtime</text>
<text text-anchor="middle" x="217.5" y="-199" font-family="Helvetica,sans-Serif" font-size="10.00">_x::imm_nbits_tag</text>
</a>
</g>
</g>
<!-- Node1&#45;&gt;Node8 -->
<g id="edge11_Node000001_Node000008" class="edge">
<title>Node1&#45;&gt;Node8</title>
<g id="a_edge11_Node000001_Node000008"><a xlink:title=" ">
<path fill="none" stroke="#63b8ff" d="M101.01,-223.8C117.59,-221.39 136.3,-218.66 153.76,-216.13"/>
<polygon fill="#63b8ff" stroke="#63b8ff" points="154.48,-219.56 163.87,-214.65 153.47,-212.63 154.48,-219.56"/>
</a>
</g>
</g>
<!-- Node9 -->
<g id="Node000009" class="node">
<title>Node9</title>
<g id="a_Node000009"><a xlink:href="../../d4/d5c/classlci_1_1alloc__runtime__x.html#a26b1954bfc37c38448b319e074f709fd" target="_top" xlink:title=" ">
<polygon fill="white" stroke="#666666" points="268,-174 167,-174 167,-144 268,-144 268,-174"/>
<text text-anchor="start" x="175" y="-162" font-family="Helvetica,sans-Serif" font-size="10.00">lci::alloc_runtime</text>
<text text-anchor="middle" x="217.5" y="-151" font-family="Helvetica,sans-Serif" font-size="10.00">_x::name</text>
</a>
</g>
</g>
<!-- Node1&#45;&gt;Node9 -->
<g id="edge13_Node000001_Node000009" class="edge">
<title>Node1&#45;&gt;Node9</title>
<g id="a_edge13_Node000001_Node000009"><a xlink:title=" ">
<path fill="none" stroke="#63b8ff" d="M75.11,-215.89C91.89,-205.62 115.23,-192.27 137,-183 143.33,-180.31 150.06,-177.78 156.82,-175.46"/>
<polygon fill="#63b8ff" stroke="#63b8ff" points="158.31,-178.66 166.71,-172.21 156.12,-172.01 158.31,-178.66"/>
</a>
</g>
</g>
<!-- Node10 -->
<g id="Node000010" class="node">
<title>Node10</title>
<g id="a_Node000010"><a xlink:href="../../d4/d5c/classlci_1_1alloc__runtime__x.html#a921ab7268efe6f74cdb024e8b699c804" target="_top" xlink:title=" ">
<polygon fill="white" stroke="#666666" points="293.5,-126 141.5,-126 141.5,-96 293.5,-96 293.5,-126"/>
<text text-anchor="start" x="149.5" y="-114" font-family="Helvetica,sans-Serif" font-size="10.00">lci::alloc_runtime</text>
<text text-anchor="middle" x="217.5" y="-103" font-family="Helvetica,sans-Serif" font-size="10.00">_x::packet_return_threshold</text>
</a>
</g>
</g>
<!-- Node1&#45;&gt;Node10 -->
<g id="edge15_Node000001_Node000010" class="edge">
<title>Node1&#45;&gt;Node10</title>
<g id="a_edge15_Node000001_Node000010"><a xlink:title=" ">
<path fill="none" stroke="#63b8ff" d="M61.15,-215.65C75.26,-194.44 103.52,-156.38 137,-135 139.59,-133.35 142.3,-131.8 145.09,-130.36"/>
<polygon fill="#63b8ff" stroke="#63b8ff" points="146.66,-133.49 154.24,-126.09 143.7,-127.15 146.66,-133.49"/>
</a>
</g>
</g>
<!-- Node11 -->
<g id="Node000011" class="node">
<title>Node11</title>
<g id="a_Node000011"><a xlink:href="../../d4/d5c/classlci_1_1alloc__runtime__x.html#a4dcec57062349c4af744a72a892bddd8" target="_top" xlink:title=" ">
<polygon fill="white" stroke="#666666" points="268,-78 167,-78 167,-48 268,-48 268,-78"/>
<text text-anchor="start" x="175" y="-66" font-family="Helvetica,sans-Serif" font-size="10.00">lci::alloc_runtime</text>
<text text-anchor="middle" x="217.5" y="-55" font-family="Helvetica,sans-Serif" font-size="10.00">_x::rdv_protocol</text>
</a>
</g>
</g>
<!-- Node1&#45;&gt;Node11 -->
<g id="edge17_Node000001_Node000011" class="edge">
<title>Node1&#45;&gt;Node11</title>
<g id="a_edge17_Node000001_Node000011"><a xlink:title=" ">
<path fill="none" stroke="#63b8ff" d="M56.3,-215.87C66.38,-186.54 92.58,-121.76 137,-87 142.93,-82.36 149.75,-78.61 156.86,-75.59"/>
<polygon fill="#63b8ff" stroke="#63b8ff" points="158.53,-78.69 166.66,-71.89 156.07,-72.14 158.53,-78.69"/>
</a>
</g>
</g>
<!-- Node12 -->
<g id="Node000012" class="node">
<title>Node12</title>
<g id="a_Node000012"><a xlink:href="../../d4/d5c/classlci_1_1alloc__runtime__x.html#ab0541b4242b9721143c68b40ae16654d" target="_top" xlink:title=" ">
<polygon fill="white" stroke="#666666" points="268,-30 167,-30 167,0 268,0 268,-30"/>
<text text-anchor="start" x="175" y="-18" font-family="Helvetica,sans-Serif" font-size="10.00">lci::alloc_runtime</text>
<text text-anchor="middle" x="217.5" y="-7" font-family="Helvetica,sans-Serif" font-size="10.00">_x::user_context</text>
</a>
</g>
</g>
<!-- Node1&#45;&gt;Node12 -->
<g id="edge19_Node000001_Node000012" class="edge">
<title>Node1&#45;&gt;Node12</title>
<g id="a_edge19_Node000001_Node000012"><a xlink:title=" ">
<path fill="none" stroke="#63b8ff" d="M53.88,-215.75C60.33,-179.56 81.57,-87.86 137,-39 142.93,-33.77 149.97,-29.68 157.37,-26.48"/>
<polygon fill="#63b8ff" stroke="#63b8ff" points="158.76,-29.7 166.88,-22.89 156.29,-23.15 158.76,-29.7"/>
</a>
</g>
</g>
<!-- Node3 -->
<g id="Node000003" class="node">
<title>Node3</title>
<g id="a_Node000003"><a xlink:href="../../d4/d5c/classlci_1_1alloc__runtime__x.html#a4e4d9b2a0c1eb72a1a9b594414a6f026" target="_top" xlink:title=" ">
<polygon fill="white" stroke="#666666" points="446,-246 334,-246 334,-216 446,-216 446,-246"/>
<text text-anchor="start" x="342" y="-234" font-family="Helvetica,sans-Serif" font-size="10.00">lci::alloc_runtime</text>
<text text-anchor="middle" x="390" y="-223" font-family="Helvetica,sans-Serif" font-size="10.00">_x::alloc_runtime_x</text>
</a>
</g>
</g>
<!-- Node2&#45;&gt;Node3 -->
<g id="edge2_Node000002_Node000003" class="edge">
<title>Node2&#45;&gt;Node3</title>
<g id="a_edge2_Node000002_Node000003"><a xlink:title=" ">
<path fill="none" stroke="#63b8ff" d="M284.71,-444.1C289.49,-441.53 294,-438.53 298,-435 352.86,-386.67 376.27,-298.89 384.8,-255.97"/>
<polygon fill="#63b8ff" stroke="#63b8ff" points="388.25,-256.56 386.66,-246.08 381.37,-255.26 388.25,-256.56"/>
</a>
</g>
</g>
<!-- Node4&#45;&gt;Node3 -->
<g id="edge4_Node000004_Node000003" class="edge">
<title>Node4&#45;&gt;Node3</title>
<g id="a_edge4_Node000004_Node000003"><a xlink:title=" ">
<path fill="none" stroke="#63b8ff" d="M283.81,-384.49C288.85,-381.69 293.66,-378.54 298,-375 337.92,-342.45 365.64,-287.55 379.28,-255.77"/>
<polygon fill="#63b8ff" stroke="#63b8ff" points="382.6,-256.89 383.22,-246.32 376.14,-254.2 382.6,-256.89"/>
</a>
</g>
</g>
<!-- Node5&#45;&gt;Node3 -->
<g id="edge6_Node000005_Node000003" class="edge">
<title>Node5&#45;&gt;Node3</title>
<g id="a_edge6_Node000005_Node000003"><a xlink:title=" ">
<path fill="none" stroke="#63b8ff" d="M280.24,-335.91C286.44,-333.36 292.48,-330.41 298,-327 328.71,-308.06 356.01,-276.2 372.51,-254.42"/>
<polygon fill="#63b8ff" stroke="#63b8ff" points="375.36,-256.45 378.49,-246.33 369.73,-252.29 375.36,-256.45"/>
</a>
</g>
</g>
<!-- Node6&#45;&gt;Node3 -->
<g id="edge8_Node000006_Node000003" class="edge">
<title>Node6&#45;&gt;Node3</title>
<g id="a_edge8_Node000006_Node000003"><a xlink:title=" ">
<path fill="none" stroke="#63b8ff" d="M268.21,-289.6C278.2,-286.46 288.53,-282.88 298,-279 317.38,-271.05 338.1,-260.31 354.87,-251"/>
<polygon fill="#63b8ff" stroke="#63b8ff" points="356.75,-253.96 363.74,-246.01 353.31,-247.86 356.75,-253.96"/>
</a>
</g>
</g>
<!-- Node7&#45;&gt;Node3 -->
<g id="edge10_Node000007_Node000003" class="edge">
<title>Node7&#45;&gt;Node3</title>
<g id="a_edge10_Node000007_Node000003"><a xlink:title=" ">
<path fill="none" stroke="#63b8ff" d="M278.61,-246.54C293.26,-244.48 308.99,-242.26 323.86,-240.17"/>
<polygon fill="#63b8ff" stroke="#63b8ff" points="324.57,-243.6 333.99,-238.74 323.6,-236.67 324.57,-243.6"/>
</a>
</g>
</g>
<!-- Node8&#45;&gt;Node3 -->
<g id="edge12_Node000008_Node000003" class="edge">
<title>Node8&#45;&gt;Node3</title>
<g id="a_edge12_Node000008_Node000003"><a xlink:title=" ">
<path fill="none" stroke="#63b8ff" d="M271.05,-214.4C287.73,-216.75 306.39,-219.37 323.85,-221.83"/>
<polygon fill="#63b8ff" stroke="#63b8ff" points="323.58,-225.33 333.97,-223.25 324.56,-218.39 323.58,-225.33"/>
</a>
</g>
</g>
<!-- Node9&#45;&gt;Node3 -->
<g id="edge14_Node000009_Node000003" class="edge">
<title>Node9&#45;&gt;Node3</title>
<g id="a_edge14_Node000009_Node000003"><a xlink:title=" ">
<path fill="none" stroke="#63b8ff" d="M268.21,-172.4C278.2,-175.54 288.53,-179.12 298,-183 317.38,-190.95 338.1,-201.69 354.87,-211"/>
<polygon fill="#63b8ff" stroke="#63b8ff" points="353.31,-214.14 363.74,-215.99 356.75,-208.04 353.31,-214.14"/>
</a>
</g>
</g>
<!-- Node10&#45;&gt;Node3 -->
<g id="edge16_Node000010_Node000003" class="edge">
<title>Node10&#45;&gt;Node3</title>
<g id="a_edge16_Node000010_Node000003"><a xlink:title=" ">
<path fill="none" stroke="#63b8ff" d="M280.24,-126.09C286.44,-128.64 292.48,-131.59 298,-135 328.71,-153.94 356.01,-185.8 372.51,-207.58"/>
<polygon fill="#63b8ff" stroke="#63b8ff" points="369.73,-209.71 378.49,-215.67 375.36,-205.55 369.73,-209.71"/>
</a>
</g>
</g>
<!-- Node11&#45;&gt;Node3 -->
<g id="edge18_Node000011_Node000003" class="edge">
<title>Node11&#45;&gt;Node3</title>
<g id="a_edge18_Node000011_Node000003"><a xlink:title=" ">
<path fill="none" stroke="#63b8ff" d="M268.2,-72.07C278.73,-75.56 289.28,-80.37 298,-87 339.21,-118.34 366.61,-174.15 379.82,-206.31"/>
<polygon fill="#63b8ff" stroke="#63b8ff" points="376.67,-207.86 383.61,-215.86 383.17,-205.28 376.67,-207.86"/>
</a>
</g>
</g>
<!-- Node12&#45;&gt;Node3 -->
<g id="edge20_Node000012_Node000003" class="edge">
<title>Node12&#45;&gt;Node3</title>
<g id="a_edge20_Node000012_Node000003"><a xlink:title=" ">
<path fill="none" stroke="#63b8ff" d="M268.41,-23.17C279.04,-26.7 289.59,-31.76 298,-39 349.97,-83.73 374.45,-164.74 383.96,-205.75"/>
<polygon fill="#63b8ff" stroke="#63b8ff" points="380.59,-206.72 386.16,-215.73 387.42,-205.21 380.59,-206.72"/>
</a>
</g>
</g>
</g>
</svg>
