<?xml version="1.0" encoding="UTF-8" standalone="no"?>
<!DOCTYPE svg PUBLIC "-//W3C//DTD SVG 1.1//EN"
 "http://www.w3.org/Graphics/SVG/1.1/DTD/svg11.dtd">
<!-- Generated by graphviz version 2.43.0 (0)
 -->
<!-- Title: lci::alloc_runtime_x::alloc_default_device Pages: 1 -->
<svg width="553pt" height="76pt"
 viewBox="0.00 0.00 553.00 75.50" xmlns="http://www.w3.org/2000/svg" xmlns:xlink="http://www.w3.org/1999/xlink">
<g id="graph0" class="graph" transform="scale(1 1) rotate(0) translate(4 71.5)">
<title>lci::alloc_runtime_x::alloc_default_device</title>
<!-- Node1 -->
<g id="Node000001" class="node">
<title>Node1</title>
<g id="a_Node000001"><a xlink:title=" ">
<polygon fill="#999999" stroke="#666666" points="545,-51 411,-51 411,-21 545,-21 545,-51"/>
<text text-anchor="start" x="419" y="-39" font-family="Helvetica,sans-Serif" font-size="10.00">lci::alloc_runtime</text>
<text text-anchor="middle" x="478" y="-28" font-family="Helvetica,sans-Serif" font-size="10.00">_x::alloc_default_device</text>
</a>
</g>
</g>
<!-- Node2 -->
<g id="Node000002" class="node">
<title>Node2</title>
<g id="a_Node000002"><a xlink:href="../../d4/d5c/classlci_1_1alloc__runtime__x.html#a37daf1686fc2ea110af2470457aa2455" target="_top" xlink:title=" ">
<polygon fill="white" stroke="#666666" points="238,-51 137,-51 137,-21 238,-21 238,-51"/>
<text text-anchor="start" x="145" y="-39" font-family="Helvetica,sans-Serif" font-size="10.00">lci::alloc_runtime</text>
<text text-anchor="middle" x="187.5" y="-28" font-family="Helvetica,sans-Serif" font-size="10.00">_x::call</text>
</a>
</g>
</g>
<!-- Node1&#45;&gt;Node2 -->
<g id="edge1_Node000001_Node000002" class="edge">
<title>Node1&#45;&gt;Node2</title>
<g id="a_edge1_Node000001_Node000002"><a xlink:title=" ">
<path fill="none" stroke="#63b8ff" d="M400.74,-38.49C392.06,-38.7 383.34,-38.88 375,-39 330.12,-39.66 318.88,-39.79 274,-39 262.42,-38.8 249.95,-38.44 238.22,-38.04"/>
<polygon fill="#63b8ff" stroke="#63b8ff" points="400.98,-41.98 410.89,-38.23 400.8,-34.99 400.98,-41.98"/>
</a>
</g>
</g>
<!-- Node5 -->
<g id="Node000005" class="node">
<title>Node5</title>
<g id="a_Node000005"><a xlink:href="../../d4/d5c/classlci_1_1alloc__runtime__x.html#ac8efbcfe504c22504c2a51e708ccf725" target="_top" xlink:title=" ">
<polygon fill="white" stroke="#666666" points="375,-30 274,-30 274,0 375,0 375,-30"/>
<text text-anchor="start" x="282" y="-18" font-family="Helvetica,sans-Serif" font-size="10.00">lci::alloc_runtime</text>
<text text-anchor="middle" x="324.5" y="-7" font-family="Helvetica,sans-Serif" font-size="10.00">_x::call_impl</text>
</a>
</g>
</g>
<!-- Node1&#45;&gt;Node5 -->
<g id="edge4_Node000001_Node000005" class="edge">
<title>Node1&#45;&gt;Node5</title>
<g id="a_edge4_Node000001_Node000005"><a xlink:title=" ">
<path fill="none" stroke="#63b8ff" d="M400.85,-25.44C392.19,-24.24 383.53,-23.04 375.34,-21.91"/>
<polygon fill="#63b8ff" stroke="#63b8ff" points="400.6,-28.94 410.99,-26.85 401.57,-22.01 400.6,-28.94"/>
</a>
</g>
</g>
<!-- Node3 -->
<g id="Node000003" class="node">
<title>Node3</title>
<g id="a_Node000003"><a xlink:href="../../d5/dd3/namespacelci.html#acf3dac18c0d46ef14735d3e046bb8134" target="_top" xlink:title=" ">
<polygon fill="white" stroke="#666666" points="101,-67.5 0,-67.5 0,-48.5 101,-48.5 101,-67.5"/>
<text text-anchor="middle" x="50.5" y="-55.5" font-family="Helvetica,sans-Serif" font-size="10.00">lci::alloc_runtime</text>
</a>
</g>
</g>
<!-- Node2&#45;&gt;Node3 -->
<g id="edge2_Node000002_Node000003" class="edge">
<title>Node2&#45;&gt;Node3</title>
<g id="a_edge2_Node000002_Node000003"><a xlink:title=" ">
<path fill="none" stroke="#63b8ff" d="M127.07,-45.68C118.52,-47.08 109.79,-48.5 101.45,-49.86"/>
<polygon fill="#63b8ff" stroke="#63b8ff" points="127.69,-49.13 137,-44.07 126.56,-42.22 127.69,-49.13"/>
</a>
</g>
</g>
<!-- Node4 -->
<g id="Node000004" class="node">
<title>Node4</title>
<g id="a_Node000004"><a xlink:href="../../d4/d5c/classlci_1_1alloc__runtime__x.html#a2738d331bdb765ecdfa5e12c6d101f02" target="_top" xlink:title=" ">
<polygon fill="white" stroke="#666666" points="101,-30 0,-30 0,0 101,0 101,-30"/>
<text text-anchor="start" x="8" y="-18" font-family="Helvetica,sans-Serif" font-size="10.00">lci::alloc_runtime</text>
<text text-anchor="middle" x="50.5" y="-7" font-family="Helvetica,sans-Serif" font-size="10.00">_x::operator()</text>
</a>
</g>
</g>
<!-- Node2&#45;&gt;Node4 -->
<g id="edge3_Node000002_Node000004" class="edge">
<title>Node2&#45;&gt;Node4</title>
<g id="a_edge3_Node000002_Node000004"><a xlink:title=" ">
<path fill="none" stroke="#63b8ff" d="M127.07,-26.76C118.52,-25.43 109.79,-24.07 101.45,-22.77"/>
<polygon fill="#63b8ff" stroke="#63b8ff" points="126.58,-30.22 137,-28.3 127.65,-23.3 126.58,-30.22"/>
</a>
</g>
</g>
<!-- Node5&#45;&gt;Node2 -->
<g id="edge5_Node000005_Node000002" class="edge">
<title>Node5&#45;&gt;Node2</title>
<g id="a_edge5_Node000005_Node000002"><a xlink:title=" ">
<path fill="none" stroke="#63b8ff" d="M264.07,-24.24C255.52,-25.57 246.79,-26.93 238.45,-28.23"/>
<polygon fill="#63b8ff" stroke="#63b8ff" points="264.65,-27.7 274,-22.7 263.58,-20.78 264.65,-27.7"/>
</a>
</g>
</g>
</g>
</svg>
