<?xml version="1.0" encoding="UTF-8" standalone="no"?>
<!DOCTYPE svg PUBLIC "-//W3C//DTD SVG 1.1//EN"
 "http://www.w3.org/Graphics/SVG/1.1/DTD/svg11.dtd">
<!-- Generated by graphviz version 2.43.0 (0)
 -->
<!-- Title: lci::alloc_runtime_x::call Pages: 1 -->
<svg width="601pt" height="495pt"
 viewBox="0.00 0.00 601.00 494.50" xmlns="http://www.w3.org/2000/svg" xmlns:xlink="http://www.w3.org/1999/xlink">
<g id="graph0" class="graph" transform="scale(1 1) rotate(0) translate(4 490.5)">
<title>lci::alloc_runtime_x::call</title>
<!-- Node1 -->
<g id="Node000001" class="node">
<title>Node1</title>
<g id="a_Node000001"><a xlink:title=" ">
<polygon fill="#999999" stroke="#666666" points="101,-235.5 0,-235.5 0,-205.5 101,-205.5 101,-235.5"/>
<text text-anchor="start" x="8" y="-223.5" font-family="Helvetica,sans-Serif" font-size="10.00">lci::alloc_runtime</text>
<text text-anchor="middle" x="50.5" y="-212.5" font-family="Helvetica,sans-Serif" font-size="10.00">_x::call</text>
</a>
</g>
</g>
<!-- Node2 -->
<g id="Node000002" class="node">
<title>Node2</title>
<g id="a_Node000002"><a xlink:href="../../d4/d5c/classlci_1_1alloc__runtime__x.html#a6b7476a4eed1ff2a53f98adfd29bbce6" target="_top" xlink:title=" ">
<polygon fill="white" stroke="#666666" points="431.5,-486.5 297.5,-486.5 297.5,-456.5 431.5,-456.5 431.5,-486.5"/>
<text text-anchor="start" x="305.5" y="-474.5" font-family="Helvetica,sans-Serif" font-size="10.00">lci::alloc_runtime</text>
<text text-anchor="middle" x="364.5" y="-463.5" font-family="Helvetica,sans-Serif" font-size="10.00">_x::alloc_default_device</text>
</a>
</g>
</g>
<!-- Node1&#45;&gt;Node2 -->
<g id="edge1_Node000001_Node000002" class="edge">
<title>Node1&#45;&gt;Node2</title>
<g id="a_edge1_Node000001_Node000002"><a xlink:title=" ">
<path fill="none" stroke="#63b8ff" d="M55.69,-235.65C65.12,-267.21 90.9,-340.63 137,-383.5 178.76,-422.34 239.58,-444.7 287.68,-457.15"/>
<polygon fill="#63b8ff" stroke="#63b8ff" points="286.88,-460.56 297.43,-459.59 288.58,-453.77 286.88,-460.56"/>
</a>
</g>
</g>
<!-- Node4 -->
<g id="Node000004" class="node">
<title>Node4</title>
<g id="a_Node000004"><a xlink:href="../../d4/d5c/classlci_1_1alloc__runtime__x.html#a616c5f548d9dd3c5da745a2292f4cfb7" target="_top" xlink:title=" ">
<polygon fill="white" stroke="#666666" points="438.5,-438 290.5,-438 290.5,-397 438.5,-397 438.5,-438"/>
<text text-anchor="start" x="298.5" y="-426" font-family="Helvetica,sans-Serif" font-size="10.00">lci::alloc_runtime</text>
<text text-anchor="start" x="298.5" y="-415" font-family="Helvetica,sans-Serif" font-size="10.00">_x::alloc_default_matching</text>
<text text-anchor="middle" x="364.5" y="-404" font-family="Helvetica,sans-Serif" font-size="10.00">_engine</text>
</a>
</g>
</g>
<!-- Node1&#45;&gt;Node4 -->
<g id="edge3_Node000001_Node000004" class="edge">
<title>Node1&#45;&gt;Node4</title>
<g id="a_edge3_Node000001_Node000004"><a xlink:title=" ">
<path fill="none" stroke="#63b8ff" d="M58.04,-235.89C69.93,-262.04 97.55,-315.16 137,-344.5 178.93,-375.68 234.71,-393.87 280.42,-404.29"/>
<polygon fill="#63b8ff" stroke="#63b8ff" points="279.79,-407.74 290.31,-406.47 281.29,-400.9 279.79,-407.74"/>
</a>
</g>
</g>
<!-- Node5 -->
<g id="Node000005" class="node">
<title>Node5</title>
<g id="a_Node000005"><a xlink:href="../../d4/d5c/classlci_1_1alloc__runtime__x.html#a3fa440edec4465125be1e82bd94ef588" target="_top" xlink:title=" ">
<polygon fill="white" stroke="#666666" points="445,-378.5 284,-378.5 284,-348.5 445,-348.5 445,-378.5"/>
<text text-anchor="start" x="292" y="-366.5" font-family="Helvetica,sans-Serif" font-size="10.00">lci::alloc_runtime</text>
<text text-anchor="middle" x="364.5" y="-355.5" font-family="Helvetica,sans-Serif" font-size="10.00">_x::alloc_default_packet_pool</text>
</a>
</g>
</g>
<!-- Node1&#45;&gt;Node5 -->
<g id="edge5_Node000001_Node000005" class="edge">
<title>Node1&#45;&gt;Node5</title>
<g id="a_edge5_Node000001_Node000005"><a xlink:title=" ">
<path fill="none" stroke="#63b8ff" d="M61.39,-235.69C75.59,-256.21 103.72,-292.4 137,-311.5 178.55,-335.35 230.29,-348.26 273.83,-355.25"/>
<polygon fill="#63b8ff" stroke="#63b8ff" points="273.43,-358.73 283.84,-356.78 274.48,-351.81 273.43,-358.73"/>
</a>
</g>
</g>
<!-- Node6 -->
<g id="Node000006" class="node">
<title>Node6</title>
<g id="a_Node000006"><a xlink:href="../../d4/d5c/classlci_1_1alloc__runtime__x.html#abf00c693b5a09b3312a14d1e0f433a94" target="_top" xlink:title=" ">
<polygon fill="white" stroke="#666666" points="243,-257.5 142,-257.5 142,-227.5 243,-227.5 243,-257.5"/>
<text text-anchor="start" x="150" y="-245.5" font-family="Helvetica,sans-Serif" font-size="10.00">lci::alloc_runtime</text>
<text text-anchor="middle" x="192.5" y="-234.5" font-family="Helvetica,sans-Serif" font-size="10.00">_x::call_impl</text>
</a>
</g>
</g>
<!-- Node1&#45;&gt;Node6 -->
<g id="edge7_Node000001_Node000006" class="edge">
<title>Node1&#45;&gt;Node6</title>
<g id="a_edge7_Node000001_Node000006"><a xlink:title=" ">
<path fill="none" stroke="#63b8ff" d="M101.25,-228.32C111.16,-229.87 121.65,-231.52 131.85,-233.13"/>
<polygon fill="#63b8ff" stroke="#63b8ff" points="131.49,-236.61 141.91,-234.71 132.57,-229.7 131.49,-236.61"/>
</a>
</g>
</g>
<!-- Node7 -->
<g id="Node000007" class="node">
<title>Node7</title>
<g id="a_Node000007"><a xlink:href="../../d4/d5c/classlci_1_1alloc__runtime__x.html#ab25ab293b9bdb7d886e6b0e48f425325" target="_top" xlink:title=" ">
<polygon fill="white" stroke="#666666" points="415,-330.5 314,-330.5 314,-300.5 415,-300.5 415,-330.5"/>
<text text-anchor="start" x="322" y="-318.5" font-family="Helvetica,sans-Serif" font-size="10.00">lci::alloc_runtime</text>
<text text-anchor="middle" x="364.5" y="-307.5" font-family="Helvetica,sans-Serif" font-size="10.00">_x::device_name</text>
</a>
</g>
</g>
<!-- Node1&#45;&gt;Node7 -->
<g id="edge25_Node000001_Node000007" class="edge">
<title>Node1&#45;&gt;Node7</title>
<g id="a_edge25_Node000001_Node000007"><a xlink:title=" ">
<path fill="none" stroke="#63b8ff" d="M66.32,-235.7C82.25,-251.02 109.07,-273.99 137,-285.5 190.64,-307.6 256.93,-314.24 303.9,-315.87"/>
<polygon fill="#63b8ff" stroke="#63b8ff" points="303.82,-319.37 313.91,-316.16 304.01,-312.37 303.82,-319.37"/>
</a>
</g>
</g>
<!-- Node8 -->
<g id="Node000008" class="node">
<title>Node8</title>
<g id="a_Node000008"><a xlink:href="../../d4/d5c/classlci_1_1alloc__runtime__x.html#a07a500a193d6a0cdc690619a79d56162" target="_top" xlink:title=" ">
<polygon fill="white" stroke="#666666" points="425.5,-282.5 303.5,-282.5 303.5,-252.5 425.5,-252.5 425.5,-282.5"/>
<text text-anchor="start" x="311.5" y="-270.5" font-family="Helvetica,sans-Serif" font-size="10.00">lci::alloc_runtime</text>
<text text-anchor="middle" x="364.5" y="-259.5" font-family="Helvetica,sans-Serif" font-size="10.00">_x::imm_nbits_rcomp</text>
</a>
</g>
</g>
<!-- Node1&#45;&gt;Node8 -->
<g id="edge27_Node000001_Node000008" class="edge">
<title>Node1&#45;&gt;Node8</title>
<g id="a_edge27_Node000001_Node000008"><a xlink:title=" ">
<path fill="none" stroke="#63b8ff" d="M72.42,-235.55C89.03,-246.52 113.31,-260.48 137,-266.5 188.2,-279.52 248.03,-279.15 293.35,-275.86"/>
<polygon fill="#63b8ff" stroke="#63b8ff" points="293.67,-279.34 303.37,-275.07 293.12,-272.36 293.67,-279.34"/>
</a>
</g>
</g>
<!-- Node9 -->
<g id="Node000009" class="node">
<title>Node9</title>
<g id="a_Node000009"><a xlink:href="../../d4/d5c/classlci_1_1alloc__runtime__x.html#a00ed631363e3dab1d966be0197724877" target="_top" xlink:title=" ">
<polygon fill="white" stroke="#666666" points="418,-234.5 311,-234.5 311,-204.5 418,-204.5 418,-234.5"/>
<text text-anchor="start" x="319" y="-222.5" font-family="Helvetica,sans-Serif" font-size="10.00">lci::alloc_runtime</text>
<text text-anchor="middle" x="364.5" y="-211.5" font-family="Helvetica,sans-Serif" font-size="10.00">_x::imm_nbits_tag</text>
</a>
</g>
</g>
<!-- Node1&#45;&gt;Node9 -->
<g id="edge28_Node000001_Node000009" class="edge">
<title>Node1&#45;&gt;Node9</title>
<g id="a_edge28_Node000001_Node000009"><a xlink:title=" ">
<path fill="none" stroke="#63b8ff" d="M101.23,-219.14C112.96,-218.87 125.42,-218.64 137,-218.5 192.38,-217.85 255.39,-218.22 300.86,-218.68"/>
<polygon fill="#63b8ff" stroke="#63b8ff" points="300.83,-222.18 310.87,-218.79 300.9,-215.18 300.83,-222.18"/>
</a>
</g>
</g>
<!-- Node10 -->
<g id="Node000010" class="node">
<title>Node10</title>
<g id="a_Node000010"><a xlink:href="../../d4/d5c/classlci_1_1alloc__runtime__x.html#a26b1954bfc37c38448b319e074f709fd" target="_top" xlink:title=" ">
<polygon fill="white" stroke="#666666" points="415,-186.5 314,-186.5 314,-156.5 415,-156.5 415,-186.5"/>
<text text-anchor="start" x="322" y="-174.5" font-family="Helvetica,sans-Serif" font-size="10.00">lci::alloc_runtime</text>
<text text-anchor="middle" x="364.5" y="-163.5" font-family="Helvetica,sans-Serif" font-size="10.00">_x::name</text>
</a>
</g>
</g>
<!-- Node1&#45;&gt;Node10 -->
<g id="edge29_Node000001_Node000010" class="edge">
<title>Node1&#45;&gt;Node10</title>
<g id="a_edge29_Node000001_Node000010"><a xlink:title=" ">
<path fill="none" stroke="#63b8ff" d="M101.28,-212.68C156.42,-204.02 245.26,-190.07 304.01,-180.84"/>
<polygon fill="#63b8ff" stroke="#63b8ff" points="304.56,-184.3 313.9,-179.29 303.47,-177.38 304.56,-184.3"/>
</a>
</g>
</g>
<!-- Node11 -->
<g id="Node000011" class="node">
<title>Node11</title>
<g id="a_Node000011"><a xlink:href="../../d4/d5c/classlci_1_1alloc__runtime__x.html#a921ab7268efe6f74cdb024e8b699c804" target="_top" xlink:title=" ">
<polygon fill="white" stroke="#666666" points="440.5,-138.5 288.5,-138.5 288.5,-108.5 440.5,-108.5 440.5,-138.5"/>
<text text-anchor="start" x="296.5" y="-126.5" font-family="Helvetica,sans-Serif" font-size="10.00">lci::alloc_runtime</text>
<text text-anchor="middle" x="364.5" y="-115.5" font-family="Helvetica,sans-Serif" font-size="10.00">_x::packet_return_threshold</text>
</a>
</g>
</g>
<!-- Node1&#45;&gt;Node11 -->
<g id="edge30_Node000001_Node000011" class="edge">
<title>Node1&#45;&gt;Node11</title>
<g id="a_edge30_Node000001_Node000011"><a xlink:title=" ">
<path fill="none" stroke="#63b8ff" d="M85.67,-205.4C101.17,-198.84 119.84,-191.34 137,-185.5 187.6,-168.29 245.76,-152.45 290.48,-141.09"/>
<polygon fill="#63b8ff" stroke="#63b8ff" points="291.55,-144.43 300.39,-138.59 289.84,-137.64 291.55,-144.43"/>
</a>
</g>
</g>
<!-- Node12 -->
<g id="Node000012" class="node">
<title>Node12</title>
<g id="a_Node000012"><a xlink:href="../../d4/d5c/classlci_1_1alloc__runtime__x.html#a4dcec57062349c4af744a72a892bddd8" target="_top" xlink:title=" ">
<polygon fill="white" stroke="#666666" points="415,-90.5 314,-90.5 314,-60.5 415,-60.5 415,-90.5"/>
<text text-anchor="start" x="322" y="-78.5" font-family="Helvetica,sans-Serif" font-size="10.00">lci::alloc_runtime</text>
<text text-anchor="middle" x="364.5" y="-67.5" font-family="Helvetica,sans-Serif" font-size="10.00">_x::rdv_protocol</text>
</a>
</g>
</g>
<!-- Node1&#45;&gt;Node12 -->
<g id="edge31_Node000001_Node000012" class="edge">
<title>Node1&#45;&gt;Node12</title>
<g id="a_edge31_Node000001_Node000012"><a xlink:title=" ">
<path fill="none" stroke="#63b8ff" d="M65.58,-205.36C81.51,-189.03 108.91,-163.25 137,-147.5 189.92,-117.82 256.77,-98.48 304.09,-87.4"/>
<polygon fill="#63b8ff" stroke="#63b8ff" points="304.91,-90.8 313.88,-85.16 303.35,-83.98 304.91,-90.8"/>
</a>
</g>
</g>
<!-- Node13 -->
<g id="Node000013" class="node">
<title>Node13</title>
<g id="a_Node000013"><a xlink:href="../../d4/d5c/classlci_1_1alloc__runtime__x.html#ab0541b4242b9721143c68b40ae16654d" target="_top" xlink:title=" ">
<polygon fill="white" stroke="#666666" points="415,-42.5 314,-42.5 314,-12.5 415,-12.5 415,-42.5"/>
<text text-anchor="start" x="322" y="-30.5" font-family="Helvetica,sans-Serif" font-size="10.00">lci::alloc_runtime</text>
<text text-anchor="middle" x="364.5" y="-19.5" font-family="Helvetica,sans-Serif" font-size="10.00">_x::user_context</text>
</a>
</g>
</g>
<!-- Node1&#45;&gt;Node13 -->
<g id="edge32_Node000001_Node000013" class="edge">
<title>Node1&#45;&gt;Node13</title>
<g id="a_edge32_Node000001_Node000013"><a xlink:title=" ">
<path fill="none" stroke="#63b8ff" d="M58.1,-205.35C70.08,-179.61 97.84,-127.32 137,-98.5 186.42,-62.13 254.98,-44.04 303.7,-35.28"/>
<polygon fill="#63b8ff" stroke="#63b8ff" points="304.51,-38.69 313.78,-33.55 303.33,-31.79 304.51,-38.69"/>
</a>
</g>
</g>
<!-- Node14 -->
<g id="Node000014" class="node">
<title>Node14</title>
<g id="a_Node000014"><a xlink:href="../../d8/d33/group__LCI__BASIC.html#ga36d0ced682287237e138b1153b490e53" target="_top" xlink:title="Global initialization for LCI, including rank_me, rank_n, and g_default_attr.">
<polygon fill="white" stroke="#666666" points="248,-19 137,-19 137,0 248,0 248,-19"/>
<text text-anchor="middle" x="192.5" y="-7" font-family="Helvetica,sans-Serif" font-size="10.00">lci::global_initialize</text>
</a>
</g>
</g>
<!-- Node1&#45;&gt;Node14 -->
<g id="edge26_Node000001_Node000014" class="edge">
<title>Node1&#45;&gt;Node14</title>
<g id="a_edge26_Node000001_Node000014"><a xlink:title=" ">
<path fill="none" stroke="#63b8ff" d="M54.57,-205.29C62.34,-170.43 85.91,-83.88 137,-33.5 140.91,-29.64 145.55,-26.35 150.44,-23.56"/>
<polygon fill="#63b8ff" stroke="#63b8ff" points="152.04,-26.67 159.41,-19.06 148.9,-20.42 152.04,-26.67"/>
</a>
</g>
</g>
<!-- Node3 -->
<g id="Node000003" class="node">
<title>Node3</title>
<g id="a_Node000003"><a xlink:href="../../d4/d5c/classlci_1_1alloc__runtime__x.html#a4e4d9b2a0c1eb72a1a9b594414a6f026" target="_top" xlink:title=" ">
<polygon fill="white" stroke="#666666" points="593,-258.5 481,-258.5 481,-228.5 593,-228.5 593,-258.5"/>
<text text-anchor="start" x="489" y="-246.5" font-family="Helvetica,sans-Serif" font-size="10.00">lci::alloc_runtime</text>
<text text-anchor="middle" x="537" y="-235.5" font-family="Helvetica,sans-Serif" font-size="10.00">_x::alloc_runtime_x</text>
</a>
</g>
</g>
<!-- Node2&#45;&gt;Node3 -->
<g id="edge2_Node000002_Node000003" class="edge">
<title>Node2&#45;&gt;Node3</title>
<g id="a_edge2_Node000002_Node000003"><a xlink:title=" ">
<path fill="none" stroke="#63b8ff" d="M431.71,-456.6C436.49,-454.03 441,-451.03 445,-447.5 499.86,-399.17 523.27,-311.39 531.8,-268.47"/>
<polygon fill="#63b8ff" stroke="#63b8ff" points="535.25,-269.06 533.66,-258.58 528.37,-267.76 535.25,-269.06"/>
</a>
</g>
</g>
<!-- Node4&#45;&gt;Node3 -->
<g id="edge4_Node000004_Node000003" class="edge">
<title>Node4&#45;&gt;Node3</title>
<g id="a_edge4_Node000004_Node000003"><a xlink:title=" ">
<path fill="none" stroke="#63b8ff" d="M430.81,-396.99C435.85,-394.19 440.66,-391.04 445,-387.5 484.92,-354.95 512.64,-300.05 526.28,-268.27"/>
<polygon fill="#63b8ff" stroke="#63b8ff" points="529.6,-269.39 530.22,-258.82 523.14,-266.7 529.6,-269.39"/>
</a>
</g>
</g>
<!-- Node5&#45;&gt;Node3 -->
<g id="edge6_Node000005_Node000003" class="edge">
<title>Node5&#45;&gt;Node3</title>
<g id="a_edge6_Node000005_Node000003"><a xlink:title=" ">
<path fill="none" stroke="#63b8ff" d="M427.24,-348.41C433.44,-345.86 439.48,-342.91 445,-339.5 475.71,-320.56 503.01,-288.7 519.51,-266.92"/>
<polygon fill="#63b8ff" stroke="#63b8ff" points="522.36,-268.95 525.49,-258.83 516.73,-264.79 522.36,-268.95"/>
</a>
</g>
</g>
<!-- Node6&#45;&gt;Node2 -->
<g id="edge8_Node000006_Node000002" class="edge">
<title>Node6&#45;&gt;Node2</title>
<g id="a_edge8_Node000006_Node000002"><a xlink:title=" ">
<path fill="none" stroke="#63b8ff" d="M195.78,-257.65C202.27,-295.48 224.4,-394.79 284,-447.5 285.5,-448.83 287.07,-450.08 288.7,-451.26"/>
<polygon fill="#63b8ff" stroke="#63b8ff" points="286.94,-454.29 297.27,-456.62 290.65,-448.35 286.94,-454.29"/>
</a>
</g>
</g>
<!-- Node6&#45;&gt;Node4 -->
<g id="edge9_Node000006_Node000004" class="edge">
<title>Node6&#45;&gt;Node4</title>
<g id="a_edge9_Node000006_Node000004"><a xlink:title=" ">
<path fill="none" stroke="#63b8ff" d="M199.2,-257.92C210.77,-287.21 239.71,-351.18 284,-387.5 285.58,-388.8 287.23,-390.04 288.92,-391.24"/>
<polygon fill="#63b8ff" stroke="#63b8ff" points="287.44,-394.44 297.77,-396.8 291.16,-388.51 287.44,-394.44"/>
</a>
</g>
</g>
<!-- Node6&#45;&gt;Node5 -->
<g id="edge10_Node000006_Node000005" class="edge">
<title>Node6&#45;&gt;Node5</title>
<g id="a_edge10_Node000006_Node000005"><a xlink:title=" ">
<path fill="none" stroke="#63b8ff" d="M203.64,-257.64C218.7,-278.97 249,-317.72 284,-339.5 286.75,-341.21 289.64,-342.81 292.61,-344.3"/>
<polygon fill="#63b8ff" stroke="#63b8ff" points="291.18,-347.5 301.73,-348.45 294.08,-341.12 291.18,-347.5"/>
</a>
</g>
</g>
<!-- Node6&#45;&gt;Node7 -->
<g id="edge11_Node000006_Node000007" class="edge">
<title>Node6&#45;&gt;Node7</title>
<g id="a_edge11_Node000006_Node000007"><a xlink:title=" ">
<path fill="none" stroke="#63b8ff" d="M218.18,-257.64C236.01,-268.13 260.91,-281.88 284,-291.5 290.35,-294.14 297.09,-296.64 303.86,-298.94"/>
<polygon fill="#63b8ff" stroke="#63b8ff" points="303.16,-302.4 313.76,-302.18 305.34,-295.74 303.16,-302.4"/>
</a>
</g>
</g>
<!-- Node6&#45;&gt;Node8 -->
<g id="edge13_Node000006_Node000008" class="edge">
<title>Node6&#45;&gt;Node8</title>
<g id="a_edge13_Node000006_Node000008"><a xlink:title=" ">
<path fill="none" stroke="#63b8ff" d="M243.13,-249.8C258.71,-252.09 276.22,-254.67 292.97,-257.13"/>
<polygon fill="#63b8ff" stroke="#63b8ff" points="292.86,-260.65 303.27,-258.64 293.88,-253.72 292.86,-260.65"/>
</a>
</g>
</g>
<!-- Node6&#45;&gt;Node9 -->
<g id="edge15_Node000006_Node000009" class="edge">
<title>Node6&#45;&gt;Node9</title>
<g id="a_edge15_Node000006_Node000009"><a xlink:title=" ">
<path fill="none" stroke="#63b8ff" d="M243.13,-235.79C261.15,-233.35 281.77,-230.56 300.78,-227.99"/>
<polygon fill="#63b8ff" stroke="#63b8ff" points="301.41,-231.43 310.85,-226.62 300.47,-224.5 301.41,-231.43"/>
</a>
</g>
</g>
<!-- Node6&#45;&gt;Node10 -->
<g id="edge17_Node000006_Node000010" class="edge">
<title>Node6&#45;&gt;Node10</title>
<g id="a_edge17_Node000006_Node000010"><a xlink:title=" ">
<path fill="none" stroke="#63b8ff" d="M219.42,-227.4C237.19,-217.45 261.53,-204.63 284,-195.5 290.37,-192.91 297.13,-190.45 303.91,-188.17"/>
<polygon fill="#63b8ff" stroke="#63b8ff" points="305.38,-191.37 313.81,-184.95 303.22,-184.71 305.38,-191.37"/>
</a>
</g>
</g>
<!-- Node6&#45;&gt;Node11 -->
<g id="edge19_Node000006_Node000011" class="edge">
<title>Node6&#45;&gt;Node11</title>
<g id="a_edge19_Node000006_Node000011"><a xlink:title=" ">
<path fill="none" stroke="#63b8ff" d="M203.97,-227.33C219.2,-206.37 249.46,-168.74 284,-147.5 286.76,-145.8 289.65,-144.21 292.63,-142.73"/>
<polygon fill="#63b8ff" stroke="#63b8ff" points="294.09,-145.91 301.77,-138.61 291.21,-139.53 294.09,-145.91"/>
</a>
</g>
</g>
<!-- Node6&#45;&gt;Node12 -->
<g id="edge21_Node000006_Node000012" class="edge">
<title>Node6&#45;&gt;Node12</title>
<g id="a_edge21_Node000006_Node000012"><a xlink:title=" ">
<path fill="none" stroke="#63b8ff" d="M198.87,-227.47C210.05,-198.33 238.62,-133.99 284,-99.5 290,-94.94 296.86,-91.24 303.98,-88.25"/>
<polygon fill="#63b8ff" stroke="#63b8ff" points="305.66,-91.36 313.8,-84.58 303.21,-84.8 305.66,-91.36"/>
</a>
</g>
</g>
<!-- Node6&#45;&gt;Node13 -->
<g id="edge23_Node000006_Node000013" class="edge">
<title>Node6&#45;&gt;Node13</title>
<g id="a_edge23_Node000006_Node000013"><a xlink:title=" ">
<path fill="none" stroke="#63b8ff" d="M196.33,-227.31C203.84,-191.27 227.69,-99.98 284,-51.5 289.92,-46.41 296.88,-42.4 304.2,-39.24"/>
<polygon fill="#63b8ff" stroke="#63b8ff" points="305.48,-42.49 313.59,-35.67 303,-35.95 305.48,-42.49"/>
</a>
</g>
</g>
<!-- Node7&#45;&gt;Node3 -->
<g id="edge12_Node000007_Node000003" class="edge">
<title>Node7&#45;&gt;Node3</title>
<g id="a_edge12_Node000007_Node000003"><a xlink:title=" ">
<path fill="none" stroke="#63b8ff" d="M415.21,-302.1C425.2,-298.96 435.53,-295.38 445,-291.5 464.38,-283.55 485.1,-272.81 501.87,-263.5"/>
<polygon fill="#63b8ff" stroke="#63b8ff" points="503.75,-266.46 510.74,-258.51 500.31,-260.36 503.75,-266.46"/>
</a>
</g>
</g>
<!-- Node8&#45;&gt;Node3 -->
<g id="edge14_Node000008_Node000003" class="edge">
<title>Node8&#45;&gt;Node3</title>
<g id="a_edge14_Node000008_Node000003"><a xlink:title=" ">
<path fill="none" stroke="#63b8ff" d="M425.61,-259.04C440.26,-256.98 455.99,-254.76 470.86,-252.67"/>
<polygon fill="#63b8ff" stroke="#63b8ff" points="471.57,-256.1 480.99,-251.24 470.6,-249.17 471.57,-256.1"/>
</a>
</g>
</g>
<!-- Node9&#45;&gt;Node3 -->
<g id="edge16_Node000009_Node000003" class="edge">
<title>Node9&#45;&gt;Node3</title>
<g id="a_edge16_Node000009_Node000003"><a xlink:title=" ">
<path fill="none" stroke="#63b8ff" d="M418.05,-226.9C434.73,-229.25 453.39,-231.87 470.85,-234.33"/>
<polygon fill="#63b8ff" stroke="#63b8ff" points="470.58,-237.83 480.97,-235.75 471.56,-230.89 470.58,-237.83"/>
</a>
</g>
</g>
<!-- Node10&#45;&gt;Node3 -->
<g id="edge18_Node000010_Node000003" class="edge">
<title>Node10&#45;&gt;Node3</title>
<g id="a_edge18_Node000010_Node000003"><a xlink:title=" ">
<path fill="none" stroke="#63b8ff" d="M415.21,-184.9C425.2,-188.04 435.53,-191.62 445,-195.5 464.38,-203.45 485.1,-214.19 501.87,-223.5"/>
<polygon fill="#63b8ff" stroke="#63b8ff" points="500.31,-226.64 510.74,-228.49 503.75,-220.54 500.31,-226.64"/>
</a>
</g>
</g>
<!-- Node11&#45;&gt;Node3 -->
<g id="edge20_Node000011_Node000003" class="edge">
<title>Node11&#45;&gt;Node3</title>
<g id="a_edge20_Node000011_Node000003"><a xlink:title=" ">
<path fill="none" stroke="#63b8ff" d="M427.24,-138.59C433.44,-141.14 439.48,-144.09 445,-147.5 475.71,-166.44 503.01,-198.3 519.51,-220.08"/>
<polygon fill="#63b8ff" stroke="#63b8ff" points="516.73,-222.21 525.49,-228.17 522.36,-218.05 516.73,-222.21"/>
</a>
</g>
</g>
<!-- Node12&#45;&gt;Node3 -->
<g id="edge22_Node000012_Node000003" class="edge">
<title>Node12&#45;&gt;Node3</title>
<g id="a_edge22_Node000012_Node000003"><a xlink:title=" ">
<path fill="none" stroke="#63b8ff" d="M415.2,-84.57C425.73,-88.06 436.28,-92.87 445,-99.5 486.21,-130.84 513.61,-186.65 526.82,-218.81"/>
<polygon fill="#63b8ff" stroke="#63b8ff" points="523.67,-220.36 530.61,-228.36 530.17,-217.78 523.67,-220.36"/>
</a>
</g>
</g>
<!-- Node13&#45;&gt;Node3 -->
<g id="edge24_Node000013_Node000003" class="edge">
<title>Node13&#45;&gt;Node3</title>
<g id="a_edge24_Node000013_Node000003"><a xlink:title=" ">
<path fill="none" stroke="#63b8ff" d="M415.41,-35.67C426.04,-39.2 436.59,-44.26 445,-51.5 496.97,-96.23 521.45,-177.24 530.96,-218.25"/>
<polygon fill="#63b8ff" stroke="#63b8ff" points="527.59,-219.22 533.16,-228.23 534.42,-217.71 527.59,-219.22"/>
</a>
</g>
</g>
</g>
</svg>
