<?xml version="1.0" encoding="UTF-8" standalone="no"?>
<!DOCTYPE svg PUBLIC "-//W3C//DTD SVG 1.1//EN"
 "http://www.w3.org/Graphics/SVG/1.1/DTD/svg11.dtd">
<!-- Generated by graphviz version 2.43.0 (0)
 -->
<!-- Title: lci::alloc_runtime_x::alloc_runtime_x Pages: 1 -->
<svg width="728pt" height="482pt"
 viewBox="0.00 0.00 728.00 482.00" xmlns="http://www.w3.org/2000/svg" xmlns:xlink="http://www.w3.org/1999/xlink">
<g id="graph0" class="graph" transform="scale(1 1) rotate(0) translate(4 478)">
<title>lci::alloc_runtime_x::alloc_runtime_x</title>
<!-- Node1 -->
<g id="Node000001" class="node">
<title>Node1</title>
<g id="a_Node000001"><a xlink:title=" ">
<polygon fill="#999999" stroke="#666666" points="720,-246 608,-246 608,-216 720,-216 720,-246"/>
<text text-anchor="start" x="616" y="-234" font-family="Helvetica,sans-Serif" font-size="10.00">lci::alloc_runtime</text>
<text text-anchor="middle" x="664" y="-223" font-family="Helvetica,sans-Serif" font-size="10.00">_x::alloc_runtime_x</text>
</a>
</g>
</g>
<!-- Node2 -->
<g id="Node000002" class="node">
<title>Node2</title>
<g id="a_Node000002"><a xlink:href="../../d4/d5c/classlci_1_1alloc__runtime__x.html#a6b7476a4eed1ff2a53f98adfd29bbce6" target="_top" xlink:title=" ">
<polygon fill="white" stroke="#666666" points="558.5,-474 424.5,-474 424.5,-444 558.5,-444 558.5,-474"/>
<text text-anchor="start" x="432.5" y="-462" font-family="Helvetica,sans-Serif" font-size="10.00">lci::alloc_runtime</text>
<text text-anchor="middle" x="491.5" y="-451" font-family="Helvetica,sans-Serif" font-size="10.00">_x::alloc_default_device</text>
</a>
</g>
</g>
<!-- Node1&#45;&gt;Node2 -->
<g id="edge1_Node000001_Node000002" class="edge">
<title>Node1&#45;&gt;Node2</title>
<g id="a_edge1_Node000001_Node000002"><a xlink:title=" ">
<path fill="none" stroke="#63b8ff" d="M658.8,-255.97C650.27,-298.89 626.86,-386.67 572,-435 568,-438.53 563.49,-441.53 558.71,-444.1"/>
<polygon fill="#63b8ff" stroke="#63b8ff" points="662.25,-256.56 660.66,-246.08 655.37,-255.26 662.25,-256.56"/>
</a>
</g>
</g>
<!-- Node7 -->
<g id="Node000007" class="node">
<title>Node7</title>
<g id="a_Node000007"><a xlink:href="../../d4/d5c/classlci_1_1alloc__runtime__x.html#a616c5f548d9dd3c5da745a2292f4cfb7" target="_top" xlink:title=" ">
<polygon fill="white" stroke="#666666" points="565.5,-425.5 417.5,-425.5 417.5,-384.5 565.5,-384.5 565.5,-425.5"/>
<text text-anchor="start" x="425.5" y="-413.5" font-family="Helvetica,sans-Serif" font-size="10.00">lci::alloc_runtime</text>
<text text-anchor="start" x="425.5" y="-402.5" font-family="Helvetica,sans-Serif" font-size="10.00">_x::alloc_default_matching</text>
<text text-anchor="middle" x="491.5" y="-391.5" font-family="Helvetica,sans-Serif" font-size="10.00">_engine</text>
</a>
</g>
</g>
<!-- Node1&#45;&gt;Node7 -->
<g id="edge7_Node000001_Node000007" class="edge">
<title>Node1&#45;&gt;Node7</title>
<g id="a_edge7_Node000001_Node000007"><a xlink:title=" ">
<path fill="none" stroke="#63b8ff" d="M653.28,-255.77C639.64,-287.55 611.92,-342.45 572,-375 567.66,-378.54 562.85,-381.69 557.81,-384.49"/>
<polygon fill="#63b8ff" stroke="#63b8ff" points="656.6,-256.89 657.22,-246.32 650.14,-254.2 656.6,-256.89"/>
</a>
</g>
</g>
<!-- Node8 -->
<g id="Node000008" class="node">
<title>Node8</title>
<g id="a_Node000008"><a xlink:href="../../d4/d5c/classlci_1_1alloc__runtime__x.html#a3fa440edec4465125be1e82bd94ef588" target="_top" xlink:title=" ">
<polygon fill="white" stroke="#666666" points="572,-366 411,-366 411,-336 572,-336 572,-366"/>
<text text-anchor="start" x="419" y="-354" font-family="Helvetica,sans-Serif" font-size="10.00">lci::alloc_runtime</text>
<text text-anchor="middle" x="491.5" y="-343" font-family="Helvetica,sans-Serif" font-size="10.00">_x::alloc_default_packet_pool</text>
</a>
</g>
</g>
<!-- Node1&#45;&gt;Node8 -->
<g id="edge10_Node000001_Node000008" class="edge">
<title>Node1&#45;&gt;Node8</title>
<g id="a_edge10_Node000001_Node000008"><a xlink:title=" ">
<path fill="none" stroke="#63b8ff" d="M646.51,-254.42C630.01,-276.2 602.71,-308.06 572,-327 566.48,-330.41 560.44,-333.36 554.24,-335.91"/>
<polygon fill="#63b8ff" stroke="#63b8ff" points="649.36,-256.45 652.49,-246.33 643.73,-252.29 649.36,-256.45"/>
</a>
</g>
</g>
<!-- Node9 -->
<g id="Node000009" class="node">
<title>Node9</title>
<g id="a_Node000009"><a xlink:href="../../d4/d5c/classlci_1_1alloc__runtime__x.html#ab25ab293b9bdb7d886e6b0e48f425325" target="_top" xlink:title=" ">
<polygon fill="white" stroke="#666666" points="542,-318 441,-318 441,-288 542,-288 542,-318"/>
<text text-anchor="start" x="449" y="-306" font-family="Helvetica,sans-Serif" font-size="10.00">lci::alloc_runtime</text>
<text text-anchor="middle" x="491.5" y="-295" font-family="Helvetica,sans-Serif" font-size="10.00">_x::device_name</text>
</a>
</g>
</g>
<!-- Node1&#45;&gt;Node9 -->
<g id="edge13_Node000001_Node000009" class="edge">
<title>Node1&#45;&gt;Node9</title>
<g id="a_edge13_Node000001_Node000009"><a xlink:title=" ">
<path fill="none" stroke="#63b8ff" d="M628.87,-251C612.1,-260.31 591.38,-271.05 572,-279 562.53,-282.88 552.2,-286.46 542.21,-289.6"/>
<polygon fill="#63b8ff" stroke="#63b8ff" points="630.75,-253.96 637.74,-246.01 627.31,-247.86 630.75,-253.96"/>
</a>
</g>
</g>
<!-- Node10 -->
<g id="Node000010" class="node">
<title>Node10</title>
<g id="a_Node000010"><a xlink:href="../../d4/d5c/classlci_1_1alloc__runtime__x.html#a07a500a193d6a0cdc690619a79d56162" target="_top" xlink:title=" ">
<polygon fill="white" stroke="#666666" points="552.5,-270 430.5,-270 430.5,-240 552.5,-240 552.5,-270"/>
<text text-anchor="start" x="438.5" y="-258" font-family="Helvetica,sans-Serif" font-size="10.00">lci::alloc_runtime</text>
<text text-anchor="middle" x="491.5" y="-247" font-family="Helvetica,sans-Serif" font-size="10.00">_x::imm_nbits_rcomp</text>
</a>
</g>
</g>
<!-- Node1&#45;&gt;Node10 -->
<g id="edge16_Node000001_Node000010" class="edge">
<title>Node1&#45;&gt;Node10</title>
<g id="a_edge16_Node000001_Node000010"><a xlink:title=" ">
<path fill="none" stroke="#63b8ff" d="M597.56,-240.21C582.77,-242.29 567.14,-244.49 552.58,-246.54"/>
<polygon fill="#63b8ff" stroke="#63b8ff" points="598.23,-243.65 607.64,-238.79 597.25,-236.72 598.23,-243.65"/>
</a>
</g>
</g>
<!-- Node11 -->
<g id="Node000011" class="node">
<title>Node11</title>
<g id="a_Node000011"><a xlink:href="../../d4/d5c/classlci_1_1alloc__runtime__x.html#a00ed631363e3dab1d966be0197724877" target="_top" xlink:title=" ">
<polygon fill="white" stroke="#666666" points="545,-222 438,-222 438,-192 545,-192 545,-222"/>
<text text-anchor="start" x="446" y="-210" font-family="Helvetica,sans-Serif" font-size="10.00">lci::alloc_runtime</text>
<text text-anchor="middle" x="491.5" y="-199" font-family="Helvetica,sans-Serif" font-size="10.00">_x::imm_nbits_tag</text>
</a>
</g>
</g>
<!-- Node1&#45;&gt;Node11 -->
<g id="edge19_Node000001_Node000011" class="edge">
<title>Node1&#45;&gt;Node11</title>
<g id="a_edge19_Node000001_Node000011"><a xlink:title=" ">
<path fill="none" stroke="#63b8ff" d="M597.6,-221.79C580.29,-219.36 561.81,-216.76 545.26,-214.43"/>
<polygon fill="#63b8ff" stroke="#63b8ff" points="597.25,-225.28 607.64,-223.21 598.23,-218.35 597.25,-225.28"/>
</a>
</g>
</g>
<!-- Node12 -->
<g id="Node000012" class="node">
<title>Node12</title>
<g id="a_Node000012"><a xlink:href="../../d4/d5c/classlci_1_1alloc__runtime__x.html#a26b1954bfc37c38448b319e074f709fd" target="_top" xlink:title=" ">
<polygon fill="white" stroke="#666666" points="542,-174 441,-174 441,-144 542,-144 542,-174"/>
<text text-anchor="start" x="449" y="-162" font-family="Helvetica,sans-Serif" font-size="10.00">lci::alloc_runtime</text>
<text text-anchor="middle" x="491.5" y="-151" font-family="Helvetica,sans-Serif" font-size="10.00">_x::name</text>
</a>
</g>
</g>
<!-- Node1&#45;&gt;Node12 -->
<g id="edge22_Node000001_Node000012" class="edge">
<title>Node1&#45;&gt;Node12</title>
<g id="a_edge22_Node000001_Node000012"><a xlink:title=" ">
<path fill="none" stroke="#63b8ff" d="M628.87,-211C612.1,-201.69 591.38,-190.95 572,-183 562.53,-179.12 552.2,-175.54 542.21,-172.4"/>
<polygon fill="#63b8ff" stroke="#63b8ff" points="627.31,-214.14 637.74,-215.99 630.75,-208.04 627.31,-214.14"/>
</a>
</g>
</g>
<!-- Node13 -->
<g id="Node000013" class="node">
<title>Node13</title>
<g id="a_Node000013"><a xlink:href="../../d4/d5c/classlci_1_1alloc__runtime__x.html#a921ab7268efe6f74cdb024e8b699c804" target="_top" xlink:title=" ">
<polygon fill="white" stroke="#666666" points="567.5,-126 415.5,-126 415.5,-96 567.5,-96 567.5,-126"/>
<text text-anchor="start" x="423.5" y="-114" font-family="Helvetica,sans-Serif" font-size="10.00">lci::alloc_runtime</text>
<text text-anchor="middle" x="491.5" y="-103" font-family="Helvetica,sans-Serif" font-size="10.00">_x::packet_return_threshold</text>
</a>
</g>
</g>
<!-- Node1&#45;&gt;Node13 -->
<g id="edge25_Node000001_Node000013" class="edge">
<title>Node1&#45;&gt;Node13</title>
<g id="a_edge25_Node000001_Node000013"><a xlink:title=" ">
<path fill="none" stroke="#63b8ff" d="M646.51,-207.58C630.01,-185.8 602.71,-153.94 572,-135 566.48,-131.59 560.44,-128.64 554.24,-126.09"/>
<polygon fill="#63b8ff" stroke="#63b8ff" points="643.73,-209.71 652.49,-215.67 649.36,-205.55 643.73,-209.71"/>
</a>
</g>
</g>
<!-- Node14 -->
<g id="Node000014" class="node">
<title>Node14</title>
<g id="a_Node000014"><a xlink:href="../../d4/d5c/classlci_1_1alloc__runtime__x.html#a4dcec57062349c4af744a72a892bddd8" target="_top" xlink:title=" ">
<polygon fill="white" stroke="#666666" points="542,-78 441,-78 441,-48 542,-48 542,-78"/>
<text text-anchor="start" x="449" y="-66" font-family="Helvetica,sans-Serif" font-size="10.00">lci::alloc_runtime</text>
<text text-anchor="middle" x="491.5" y="-55" font-family="Helvetica,sans-Serif" font-size="10.00">_x::rdv_protocol</text>
</a>
</g>
</g>
<!-- Node1&#45;&gt;Node14 -->
<g id="edge28_Node000001_Node000014" class="edge">
<title>Node1&#45;&gt;Node14</title>
<g id="a_edge28_Node000001_Node000014"><a xlink:title=" ">
<path fill="none" stroke="#63b8ff" d="M653.82,-206.31C640.61,-174.15 613.21,-118.34 572,-87 563.28,-80.37 552.73,-75.56 542.2,-72.07"/>
<polygon fill="#63b8ff" stroke="#63b8ff" points="650.67,-207.86 657.61,-215.86 657.17,-205.28 650.67,-207.86"/>
</a>
</g>
</g>
<!-- Node15 -->
<g id="Node000015" class="node">
<title>Node15</title>
<g id="a_Node000015"><a xlink:href="../../d4/d5c/classlci_1_1alloc__runtime__x.html#ab0541b4242b9721143c68b40ae16654d" target="_top" xlink:title=" ">
<polygon fill="white" stroke="#666666" points="542,-30 441,-30 441,0 542,0 542,-30"/>
<text text-anchor="start" x="449" y="-18" font-family="Helvetica,sans-Serif" font-size="10.00">lci::alloc_runtime</text>
<text text-anchor="middle" x="491.5" y="-7" font-family="Helvetica,sans-Serif" font-size="10.00">_x::user_context</text>
</a>
</g>
</g>
<!-- Node1&#45;&gt;Node15 -->
<g id="edge31_Node000001_Node000015" class="edge">
<title>Node1&#45;&gt;Node15</title>
<g id="a_edge31_Node000001_Node000015"><a xlink:title=" ">
<path fill="none" stroke="#63b8ff" d="M657.96,-205.75C648.45,-164.74 623.97,-83.73 572,-39 563.59,-31.76 553.04,-26.7 542.41,-23.17"/>
<polygon fill="#63b8ff" stroke="#63b8ff" points="654.59,-206.72 660.16,-215.73 661.42,-205.21 654.59,-206.72"/>
</a>
</g>
</g>
<!-- Node3 -->
<g id="Node000003" class="node">
<title>Node3</title>
<g id="a_Node000003"><a xlink:href="../../d4/d5c/classlci_1_1alloc__runtime__x.html#a37daf1686fc2ea110af2470457aa2455" target="_top" xlink:title=" ">
<polygon fill="white" stroke="#666666" points="238,-246 137,-246 137,-216 238,-216 238,-246"/>
<text text-anchor="start" x="145" y="-234" font-family="Helvetica,sans-Serif" font-size="10.00">lci::alloc_runtime</text>
<text text-anchor="middle" x="187.5" y="-223" font-family="Helvetica,sans-Serif" font-size="10.00">_x::call</text>
</a>
</g>
</g>
<!-- Node2&#45;&gt;Node3 -->
<g id="edge2_Node000002_Node000003" class="edge">
<title>Node2&#45;&gt;Node3</title>
<g id="a_edge2_Node000002_Node000003"><a xlink:title=" ">
<path fill="none" stroke="#63b8ff" d="M421.32,-440.9C375.29,-426.06 315.81,-401.18 274,-363 235.89,-328.21 207.45,-272.84 195.17,-246.24"/>
<polygon fill="#63b8ff" stroke="#63b8ff" points="420.34,-444.26 430.93,-443.92 422.44,-437.58 420.34,-444.26"/>
</a>
</g>
</g>
<!-- Node6 -->
<g id="Node000006" class="node">
<title>Node6</title>
<g id="a_Node000006"><a xlink:href="../../d4/d5c/classlci_1_1alloc__runtime__x.html#abf00c693b5a09b3312a14d1e0f433a94" target="_top" xlink:title=" ">
<polygon fill="white" stroke="#666666" points="375,-246 274,-246 274,-216 375,-216 375,-246"/>
<text text-anchor="start" x="282" y="-234" font-family="Helvetica,sans-Serif" font-size="10.00">lci::alloc_runtime</text>
<text text-anchor="middle" x="324.5" y="-223" font-family="Helvetica,sans-Serif" font-size="10.00">_x::call_impl</text>
</a>
</g>
</g>
<!-- Node2&#45;&gt;Node6 -->
<g id="edge5_Node000002_Node000006" class="edge">
<title>Node2&#45;&gt;Node6</title>
<g id="a_edge5_Node000002_Node000006"><a xlink:title=" ">
<path fill="none" stroke="#63b8ff" d="M415.66,-438.8C414.04,-437.6 412.49,-436.34 411,-435 352.67,-382.42 332.97,-283.67 327.41,-246.06"/>
<polygon fill="#63b8ff" stroke="#63b8ff" points="413.88,-441.81 424.2,-444.2 417.62,-435.9 413.88,-441.81"/>
</a>
</g>
</g>
<!-- Node4 -->
<g id="Node000004" class="node">
<title>Node4</title>
<g id="a_Node000004"><a xlink:href="../../d5/dd3/namespacelci.html#acf3dac18c0d46ef14735d3e046bb8134" target="_top" xlink:title=" ">
<polygon fill="white" stroke="#666666" points="101,-262.5 0,-262.5 0,-243.5 101,-243.5 101,-262.5"/>
<text text-anchor="middle" x="50.5" y="-250.5" font-family="Helvetica,sans-Serif" font-size="10.00">lci::alloc_runtime</text>
</a>
</g>
</g>
<!-- Node3&#45;&gt;Node4 -->
<g id="edge3_Node000003_Node000004" class="edge">
<title>Node3&#45;&gt;Node4</title>
<g id="a_edge3_Node000003_Node000004"><a xlink:title=" ">
<path fill="none" stroke="#63b8ff" d="M127.07,-240.68C118.52,-242.08 109.79,-243.5 101.45,-244.86"/>
<polygon fill="#63b8ff" stroke="#63b8ff" points="127.69,-244.13 137,-239.07 126.56,-237.22 127.69,-244.13"/>
</a>
</g>
</g>
<!-- Node5 -->
<g id="Node000005" class="node">
<title>Node5</title>
<g id="a_Node000005"><a xlink:href="../../d4/d5c/classlci_1_1alloc__runtime__x.html#a2738d331bdb765ecdfa5e12c6d101f02" target="_top" xlink:title=" ">
<polygon fill="white" stroke="#666666" points="101,-225 0,-225 0,-195 101,-195 101,-225"/>
<text text-anchor="start" x="8" y="-213" font-family="Helvetica,sans-Serif" font-size="10.00">lci::alloc_runtime</text>
<text text-anchor="middle" x="50.5" y="-202" font-family="Helvetica,sans-Serif" font-size="10.00">_x::operator()</text>
</a>
</g>
</g>
<!-- Node3&#45;&gt;Node5 -->
<g id="edge4_Node000003_Node000005" class="edge">
<title>Node3&#45;&gt;Node5</title>
<g id="a_edge4_Node000003_Node000005"><a xlink:title=" ">
<path fill="none" stroke="#63b8ff" d="M127.07,-221.76C118.52,-220.43 109.79,-219.07 101.45,-217.77"/>
<polygon fill="#63b8ff" stroke="#63b8ff" points="126.58,-225.22 137,-223.3 127.65,-218.3 126.58,-225.22"/>
</a>
</g>
</g>
<!-- Node6&#45;&gt;Node3 -->
<g id="edge6_Node000006_Node000003" class="edge">
<title>Node6&#45;&gt;Node3</title>
<g id="a_edge6_Node000006_Node000003"><a xlink:title=" ">
<path fill="none" stroke="#63b8ff" d="M263.79,-231C255.33,-231 246.7,-231 238.45,-231"/>
<polygon fill="#63b8ff" stroke="#63b8ff" points="264,-234.5 274,-231 264,-227.5 264,-234.5"/>
</a>
</g>
</g>
<!-- Node7&#45;&gt;Node3 -->
<g id="edge8_Node000007_Node000003" class="edge">
<title>Node7&#45;&gt;Node3</title>
<g id="a_edge8_Node000007_Node000003"><a xlink:title=" ">
<path fill="none" stroke="#63b8ff" d="M407.65,-385.11C365.32,-372.47 314.38,-353.26 274,-326 241.45,-304.02 213.04,-267.02 198.6,-246.28"/>
<polygon fill="#63b8ff" stroke="#63b8ff" points="406.8,-388.5 417.38,-387.94 408.76,-381.78 406.8,-388.5"/>
</a>
</g>
</g>
<!-- Node7&#45;&gt;Node6 -->
<g id="edge9_Node000007_Node000006" class="edge">
<title>Node7&#45;&gt;Node6</title>
<g id="a_edge9_Node000007_Node000006"><a xlink:title=" ">
<path fill="none" stroke="#63b8ff" d="M415.88,-378.78C414.2,-377.58 412.57,-376.32 411,-375 368.01,-338.94 341.24,-275.41 330.67,-246.32"/>
<polygon fill="#63b8ff" stroke="#63b8ff" points="414.37,-381.97 424.68,-384.4 418.14,-376.07 414.37,-381.97"/>
</a>
</g>
</g>
<!-- Node8&#45;&gt;Node3 -->
<g id="edge11_Node000008_Node000003" class="edge">
<title>Node8&#45;&gt;Node3</title>
<g id="a_edge11_Node000008_Node000003"><a xlink:title=" ">
<path fill="none" stroke="#63b8ff" d="M400.74,-335.97C360.69,-327.22 313.68,-314.06 274,-295 247.43,-282.23 220.88,-260.64 204.58,-246.1"/>
<polygon fill="#63b8ff" stroke="#63b8ff" points="400.26,-339.45 410.76,-338.1 401.71,-332.6 400.26,-339.45"/>
</a>
</g>
</g>
<!-- Node8&#45;&gt;Node6 -->
<g id="edge12_Node000008_Node000006" class="edge">
<title>Node8&#45;&gt;Node6</title>
<g id="a_edge12_Node000008_Node000006"><a xlink:title=" ">
<path fill="none" stroke="#63b8ff" d="M419.09,-331.64C416.3,-330.2 413.59,-328.65 411,-327 377.52,-305.62 349.26,-267.56 335.15,-246.35"/>
<polygon fill="#63b8ff" stroke="#63b8ff" points="417.7,-334.85 428.24,-335.91 420.66,-328.51 417.7,-334.85"/>
</a>
</g>
</g>
<!-- Node9&#45;&gt;Node3 -->
<g id="edge14_Node000009_Node000003" class="edge">
<title>Node9&#45;&gt;Node3</title>
<g id="a_edge14_Node000009_Node000003"><a xlink:title=" ">
<path fill="none" stroke="#63b8ff" d="M430.62,-298.85C386.58,-294.68 325.65,-286.53 274,-271 253.6,-264.86 231.87,-254.64 215.42,-246.07"/>
<polygon fill="#63b8ff" stroke="#63b8ff" points="430.32,-302.34 440.6,-299.76 430.95,-295.37 430.32,-302.34"/>
</a>
</g>
</g>
<!-- Node9&#45;&gt;Node6 -->
<g id="edge15_Node000009_Node000006" class="edge">
<title>Node9&#45;&gt;Node6</title>
<g id="a_edge15_Node000009_Node000006"><a xlink:title=" ">
<path fill="none" stroke="#63b8ff" d="M430.82,-286.54C424.06,-284.22 417.33,-281.69 411,-279 389.23,-269.73 365.89,-256.38 349.11,-246.11"/>
<polygon fill="#63b8ff" stroke="#63b8ff" points="430.12,-289.99 440.71,-289.79 432.31,-283.34 430.12,-289.99"/>
</a>
</g>
</g>
<!-- Node10&#45;&gt;Node3 -->
<g id="edge17_Node000010_Node000003" class="edge">
<title>Node10&#45;&gt;Node3</title>
<g id="a_edge17_Node000010_Node000003"><a xlink:title=" ">
<path fill="none" stroke="#63b8ff" d="M420.22,-259.83C377.7,-261.56 322.5,-261.68 274,-255 260.56,-253.15 246.26,-249.74 233.27,-246.05"/>
<polygon fill="#63b8ff" stroke="#63b8ff" points="420.63,-263.32 430.47,-259.38 420.32,-256.33 420.63,-263.32"/>
</a>
</g>
</g>
<!-- Node10&#45;&gt;Node6 -->
<g id="edge18_Node000010_Node000006" class="edge">
<title>Node10&#45;&gt;Node6</title>
<g id="a_edge18_Node000010_Node000006"><a xlink:title=" ">
<path fill="none" stroke="#63b8ff" d="M420.55,-244.83C405.3,-242.61 389.46,-240.3 375.19,-238.23"/>
<polygon fill="#63b8ff" stroke="#63b8ff" points="420.06,-248.29 430.46,-246.27 421.07,-241.36 420.06,-248.29"/>
</a>
</g>
</g>
<!-- Node11&#45;&gt;Node3 -->
<g id="edge20_Node000011_Node000003" class="edge">
<title>Node11&#45;&gt;Node3</title>
<g id="a_edge20_Node000011_Node000003"><a xlink:title=" ">
<path fill="none" stroke="#63b8ff" d="M427.61,-202.49C384.23,-200.48 325.36,-199.93 274,-207 260.56,-208.85 246.26,-212.26 233.27,-215.95"/>
<polygon fill="#63b8ff" stroke="#63b8ff" points="427.56,-205.99 437.73,-203 427.92,-199 427.56,-205.99"/>
</a>
</g>
</g>
<!-- Node11&#45;&gt;Node6 -->
<g id="edge21_Node000011_Node000006" class="edge">
<title>Node11&#45;&gt;Node6</title>
<g id="a_edge21_Node000011_Node000006"><a xlink:title=" ">
<path fill="none" stroke="#63b8ff" d="M427.76,-216.13C410.35,-218.66 391.69,-221.37 375.14,-223.78"/>
<polygon fill="#63b8ff" stroke="#63b8ff" points="428.45,-219.56 437.84,-214.66 427.44,-212.64 428.45,-219.56"/>
</a>
</g>
</g>
<!-- Node12&#45;&gt;Node3 -->
<g id="edge23_Node000012_Node000003" class="edge">
<title>Node12&#45;&gt;Node3</title>
<g id="a_edge23_Node000012_Node000003"><a xlink:title=" ">
<path fill="none" stroke="#63b8ff" d="M430.9,-166.11C387,-172.16 326.12,-182.23 274,-197 256.33,-202.01 237.28,-209.38 221.65,-215.98"/>
<polygon fill="#63b8ff" stroke="#63b8ff" points="431.4,-169.58 440.84,-164.77 430.46,-162.64 431.4,-169.58"/>
</a>
</g>
</g>
<!-- Node12&#45;&gt;Node6 -->
<g id="edge24_Node000012_Node000006" class="edge">
<title>Node12&#45;&gt;Node6</title>
<g id="a_edge24_Node000012_Node000006"><a xlink:title=" ">
<path fill="none" stroke="#63b8ff" d="M430.82,-175.46C424.06,-177.78 417.33,-180.31 411,-183 389.23,-192.27 365.89,-205.62 349.11,-215.89"/>
<polygon fill="#63b8ff" stroke="#63b8ff" points="432.31,-178.66 440.71,-172.21 430.12,-172.01 432.31,-178.66"/>
</a>
</g>
</g>
<!-- Node13&#45;&gt;Node3 -->
<g id="edge26_Node000013_Node000003" class="edge">
<title>Node13&#45;&gt;Node3</title>
<g id="a_edge26_Node000013_Node000003"><a xlink:title=" ">
<path fill="none" stroke="#63b8ff" d="M405.34,-126.88C364.41,-136.33 315.38,-150.37 274,-170 248.3,-182.19 222.17,-202.18 205.68,-215.93"/>
<polygon fill="#63b8ff" stroke="#63b8ff" points="406.3,-130.25 415.29,-124.64 404.76,-123.42 406.3,-130.25"/>
</a>
</g>
</g>
<!-- Node13&#45;&gt;Node6 -->
<g id="edge27_Node000013_Node000006" class="edge">
<title>Node13&#45;&gt;Node6</title>
<g id="a_edge27_Node000013_Node000006"><a xlink:title=" ">
<path fill="none" stroke="#63b8ff" d="M419.09,-130.36C416.3,-131.8 413.59,-133.35 411,-135 377.52,-156.38 349.26,-194.44 335.15,-215.65"/>
<polygon fill="#63b8ff" stroke="#63b8ff" points="420.66,-133.49 428.24,-126.09 417.7,-127.15 420.66,-133.49"/>
</a>
</g>
</g>
<!-- Node14&#45;&gt;Node3 -->
<g id="edge29_Node000014_Node000003" class="edge">
<title>Node14&#45;&gt;Node3</title>
<g id="a_edge29_Node000014_Node000003"><a xlink:title=" ">
<path fill="none" stroke="#63b8ff" d="M430.54,-72.41C384.73,-81.74 321.57,-99.35 274,-131 239.77,-153.78 211.41,-193.96 197.58,-215.81"/>
<polygon fill="#63b8ff" stroke="#63b8ff" points="431.49,-75.79 440.63,-70.44 430.14,-68.93 431.49,-75.79"/>
</a>
</g>
</g>
<!-- Node14&#45;&gt;Node6 -->
<g id="edge30_Node000014_Node000006" class="edge">
<title>Node14&#45;&gt;Node6</title>
<g id="a_edge30_Node000014_Node000006"><a xlink:title=" ">
<path fill="none" stroke="#63b8ff" d="M430.86,-75.59C423.75,-78.61 416.93,-82.36 411,-87 366.58,-121.76 340.38,-186.54 330.3,-215.87"/>
<polygon fill="#63b8ff" stroke="#63b8ff" points="432.53,-78.69 440.66,-71.89 430.07,-72.14 432.53,-78.69"/>
</a>
</g>
</g>
<!-- Node15&#45;&gt;Node3 -->
<g id="edge32_Node000015_Node000003" class="edge">
<title>Node15&#45;&gt;Node3</title>
<g id="a_edge32_Node000015_Node000003"><a xlink:title=" ">
<path fill="none" stroke="#63b8ff" d="M430.88,-21.68C383.94,-29.57 319.14,-46.59 274,-83 228.96,-119.33 202.93,-186.19 193.08,-215.98"/>
<polygon fill="#63b8ff" stroke="#63b8ff" points="431.58,-25.11 440.91,-20.08 430.48,-18.2 431.58,-25.11"/>
</a>
</g>
</g>
<!-- Node15&#45;&gt;Node6 -->
<g id="edge33_Node000015_Node000006" class="edge">
<title>Node15&#45;&gt;Node6</title>
<g id="a_edge33_Node000015_Node000006"><a xlink:title=" ">
<path fill="none" stroke="#63b8ff" d="M431.37,-26.48C423.97,-29.68 416.93,-33.77 411,-39 355.57,-87.86 334.33,-179.56 327.88,-215.75"/>
<polygon fill="#63b8ff" stroke="#63b8ff" points="432.76,-29.7 440.88,-22.89 430.29,-23.15 432.76,-29.7"/>
</a>
</g>
</g>
</g>
</svg>
