<?xml version="1.0" encoding="UTF-8" standalone="no"?>
<!DOCTYPE svg PUBLIC "-//W3C//DTD SVG 1.1//EN"
 "http://www.w3.org/Graphics/SVG/1.1/DTD/svg11.dtd">
<!-- Generated by graphviz version 2.43.0 (0)
 -->
<!-- Title: lci::barrier_x::barrier_x Pages: 1 -->
<svg width="769pt" height="236pt"
 viewBox="0.00 0.00 769.00 236.00" xmlns="http://www.w3.org/2000/svg" xmlns:xlink="http://www.w3.org/1999/xlink">
<g id="graph0" class="graph" transform="scale(1 1) rotate(0) translate(4 232)">
<title>lci::barrier_x::barrier_x</title>
<!-- Node1 -->
<g id="Node000001" class="node">
<title>Node1</title>
<g id="a_Node000001"><a xlink:title=" ">
<polygon fill="#999999" stroke="#666666" points="761,-123 634,-123 634,-104 761,-104 761,-123"/>
<text text-anchor="middle" x="697.5" y="-111" font-family="Helvetica,sans-Serif" font-size="10.00">lci::barrier_x::barrier_x</text>
</a>
</g>
</g>
<!-- Node2 -->
<g id="Node000002" class="node">
<title>Node2</title>
<g id="a_Node000002"><a xlink:href="../../dd/dea/classlci_1_1barrier__x.html#a16d8b4410dff05bd6aee845c15eea722" target="_top" xlink:title=" ">
<polygon fill="white" stroke="#666666" points="588.5,-228 478.5,-228 478.5,-209 588.5,-209 588.5,-228"/>
<text text-anchor="middle" x="533.5" y="-216" font-family="Helvetica,sans-Serif" font-size="10.00">lci::barrier_x::comp</text>
</a>
</g>
</g>
<!-- Node1&#45;&gt;Node2 -->
<g id="edge1_Node000001_Node000002" class="edge">
<title>Node1&#45;&gt;Node2</title>
<g id="a_edge1_Node000001_Node000002"><a xlink:title=" ">
<path fill="none" stroke="#63b8ff" d="M681.14,-130.77C663.04,-150.12 631.22,-181.17 598,-199.5 591.15,-203.28 583.46,-206.39 575.85,-208.93"/>
<polygon fill="#63b8ff" stroke="#63b8ff" points="683.84,-133 688.02,-123.27 678.68,-128.27 683.84,-133"/>
</a>
</g>
</g>
<!-- Node7 -->
<g id="Node000007" class="node">
<title>Node7</title>
<g id="a_Node000007"><a xlink:href="../../dd/dea/classlci_1_1barrier__x.html#a20dd9f6db2c73905f0ae5cfb29363849" target="_top" xlink:title=" ">
<polygon fill="white" stroke="#666666" points="588.5,-190.5 478.5,-190.5 478.5,-160.5 588.5,-160.5 588.5,-190.5"/>
<text text-anchor="start" x="486.5" y="-178.5" font-family="Helvetica,sans-Serif" font-size="10.00">lci::barrier_x::comp</text>
<text text-anchor="middle" x="533.5" y="-167.5" font-family="Helvetica,sans-Serif" font-size="10.00">_semantic</text>
</a>
</g>
</g>
<!-- Node1&#45;&gt;Node7 -->
<g id="edge7_Node000001_Node000007" class="edge">
<title>Node1&#45;&gt;Node7</title>
<g id="a_edge7_Node000001_Node000007"><a xlink:title=" ">
<path fill="none" stroke="#63b8ff" d="M662.41,-126.72C643.46,-134.05 619.43,-143.31 598,-151.5 590.4,-154.4 582.29,-157.48 574.49,-160.43"/>
<polygon fill="#63b8ff" stroke="#63b8ff" points="663.76,-129.95 671.83,-123.07 661.24,-123.42 663.76,-129.95"/>
</a>
</g>
</g>
<!-- Node8 -->
<g id="Node000008" class="node">
<title>Node8</title>
<g id="a_Node000008"><a xlink:href="../../dd/dea/classlci_1_1barrier__x.html#a980001176d7677c650fcbaf17a975f9e" target="_top" xlink:title=" ">
<polygon fill="white" stroke="#666666" points="591.5,-142 475.5,-142 475.5,-123 591.5,-123 591.5,-142"/>
<text text-anchor="middle" x="533.5" y="-130" font-family="Helvetica,sans-Serif" font-size="10.00">lci::barrier_x::device</text>
</a>
</g>
</g>
<!-- Node1&#45;&gt;Node8 -->
<g id="edge10_Node000001_Node000008" class="edge">
<title>Node1&#45;&gt;Node8</title>
<g id="a_edge10_Node000001_Node000008"><a xlink:title=" ">
<path fill="none" stroke="#63b8ff" d="M623.67,-122.04C612.94,-123.3 602.02,-124.58 591.67,-125.8"/>
<polygon fill="#63b8ff" stroke="#63b8ff" points="624.34,-125.49 633.87,-120.85 623.53,-118.53 624.34,-125.49"/>
</a>
</g>
</g>
<!-- Node9 -->
<g id="Node000009" class="node">
<title>Node9</title>
<g id="a_Node000009"><a xlink:href="../../dd/dea/classlci_1_1barrier__x.html#a59f0cd108ef8eba693206b14c481d917" target="_top" xlink:title=" ">
<polygon fill="white" stroke="#666666" points="596.5,-105 470.5,-105 470.5,-86 596.5,-86 596.5,-105"/>
<text text-anchor="middle" x="533.5" y="-93" font-family="Helvetica,sans-Serif" font-size="10.00">lci::barrier_x::endpoint</text>
</a>
</g>
</g>
<!-- Node1&#45;&gt;Node9 -->
<g id="edge13_Node000001_Node000009" class="edge">
<title>Node1&#45;&gt;Node9</title>
<g id="a_edge13_Node000001_Node000009"><a xlink:title=" ">
<path fill="none" stroke="#63b8ff" d="M623.75,-105.42C614.72,-104.41 605.55,-103.39 596.7,-102.41"/>
<polygon fill="#63b8ff" stroke="#63b8ff" points="623.54,-108.91 633.87,-106.54 624.31,-101.96 623.54,-108.91"/>
</a>
</g>
</g>
<!-- Node10 -->
<g id="Node000010" class="node">
<title>Node10</title>
<g id="a_Node000010"><a xlink:href="../../dd/dea/classlci_1_1barrier__x.html#a129058f2dbd4f7d52d467d4feb60f9d8" target="_top" xlink:title=" ">
<polygon fill="white" stroke="#666666" points="598,-67.5 469,-67.5 469,-37.5 598,-37.5 598,-67.5"/>
<text text-anchor="start" x="477" y="-55.5" font-family="Helvetica,sans-Serif" font-size="10.00">lci::barrier_x::matching</text>
<text text-anchor="middle" x="533.5" y="-44.5" font-family="Helvetica,sans-Serif" font-size="10.00">_engine</text>
</a>
</g>
</g>
<!-- Node1&#45;&gt;Node10 -->
<g id="edge16_Node000001_Node000010" class="edge">
<title>Node1&#45;&gt;Node10</title>
<g id="a_edge16_Node000001_Node000010"><a xlink:title=" ">
<path fill="none" stroke="#63b8ff" d="M661.52,-100.33C635.92,-90.69 601.13,-77.59 574.44,-67.54"/>
<polygon fill="#63b8ff" stroke="#63b8ff" points="660.6,-103.72 671.19,-103.97 663.06,-97.17 660.6,-103.72"/>
</a>
</g>
</g>
<!-- Node11 -->
<g id="Node000011" class="node">
<title>Node11</title>
<g id="a_Node000011"><a xlink:href="../../dd/dea/classlci_1_1barrier__x.html#aedef426cdcbfe66ff13bab373740f3fd" target="_top" xlink:title=" ">
<polygon fill="white" stroke="#666666" points="594.5,-19 472.5,-19 472.5,0 594.5,0 594.5,-19"/>
<text text-anchor="middle" x="533.5" y="-7" font-family="Helvetica,sans-Serif" font-size="10.00">lci::barrier_x::runtime</text>
</a>
</g>
</g>
<!-- Node1&#45;&gt;Node11 -->
<g id="edge19_Node000001_Node000011" class="edge">
<title>Node1&#45;&gt;Node11</title>
<g id="a_edge19_Node000001_Node000011"><a xlink:title=" ">
<path fill="none" stroke="#63b8ff" d="M681.1,-96.44C662.96,-77.32 631.1,-46.64 598,-28.5 591.14,-24.74 583.44,-21.64 575.84,-19.11"/>
<polygon fill="#63b8ff" stroke="#63b8ff" points="678.62,-98.91 687.99,-103.85 683.75,-94.15 678.62,-98.91"/>
</a>
</g>
</g>
<!-- Node3 -->
<g id="Node000003" class="node">
<title>Node3</title>
<g id="a_Node000003"><a xlink:href="../../dd/dea/classlci_1_1barrier__x.html#a4771c440ebd2fdbe82fbbac3ae59c482" target="_top" xlink:title=" ">
<polygon fill="white" stroke="#666666" points="269,-124 168,-124 168,-105 269,-105 269,-124"/>
<text text-anchor="middle" x="218.5" y="-112" font-family="Helvetica,sans-Serif" font-size="10.00">lci::barrier_x::call</text>
</a>
</g>
</g>
<!-- Node2&#45;&gt;Node3 -->
<g id="edge2_Node000002_Node000003" class="edge">
<title>Node2&#45;&gt;Node3</title>
<g id="a_edge2_Node000002_Node000003"><a xlink:title=" ">
<path fill="none" stroke="#63b8ff" d="M468.28,-212.86C421.55,-207.09 357.52,-195.68 305,-173.5 275.43,-161.01 245.64,-137.36 230.24,-124.12"/>
<polygon fill="#63b8ff" stroke="#63b8ff" points="467.94,-216.35 478.28,-214.04 468.76,-209.39 467.94,-216.35"/>
</a>
</g>
</g>
<!-- Node6 -->
<g id="Node000006" class="node">
<title>Node6</title>
<g id="a_Node000006"><a xlink:href="../../dd/dea/classlci_1_1barrier__x.html#a289a4f950bd00c4d8d490b643010aa36" target="_top" xlink:title=" ">
<polygon fill="white" stroke="#666666" points="433,-124 305,-124 305,-105 433,-105 433,-124"/>
<text text-anchor="middle" x="369" y="-112" font-family="Helvetica,sans-Serif" font-size="10.00">lci::barrier_x::call_impl</text>
</a>
</g>
</g>
<!-- Node2&#45;&gt;Node6 -->
<g id="edge5_Node000002_Node000006" class="edge">
<title>Node2&#45;&gt;Node6</title>
<g id="a_edge5_Node000002_Node000006"><a xlink:title=" ">
<path fill="none" stroke="#63b8ff" d="M481.76,-205.45C477.34,-203.68 473.03,-201.7 469,-199.5 431.03,-178.75 394.61,-141.65 378.56,-124.14"/>
<polygon fill="#63b8ff" stroke="#63b8ff" points="480.91,-208.86 491.51,-208.99 483.3,-202.28 480.91,-208.86"/>
</a>
</g>
</g>
<!-- Node4 -->
<g id="Node000004" class="node">
<title>Node4</title>
<g id="a_Node000004"><a xlink:href="../../d5/dd3/namespacelci.html#ae6054124daf3cd24d181b63ccbb7ce6c" target="_top" xlink:title=" ">
<polygon fill="white" stroke="#666666" points="99,-143 33,-143 33,-124 99,-124 99,-143"/>
<text text-anchor="middle" x="66" y="-131" font-family="Helvetica,sans-Serif" font-size="10.00">lci::barrier</text>
</a>
</g>
</g>
<!-- Node3&#45;&gt;Node4 -->
<g id="edge3_Node000003_Node000004" class="edge">
<title>Node3&#45;&gt;Node4</title>
<g id="a_edge3_Node000003_Node000004"><a xlink:title=" ">
<path fill="none" stroke="#63b8ff" d="M157.81,-122.04C137.78,-124.56 116.22,-127.29 99.13,-129.44"/>
<polygon fill="#63b8ff" stroke="#63b8ff" points="158.32,-125.5 167.8,-120.77 157.44,-118.55 158.32,-125.5"/>
</a>
</g>
</g>
<!-- Node5 -->
<g id="Node000005" class="node">
<title>Node5</title>
<g id="a_Node000005"><a xlink:href="../../dd/dea/classlci_1_1barrier__x.html#aa287ecbd813cf5dcbc322389d8b1a233" target="_top" xlink:title=" ">
<polygon fill="white" stroke="#666666" points="132,-106 0,-106 0,-87 132,-87 132,-106"/>
<text text-anchor="middle" x="66" y="-94" font-family="Helvetica,sans-Serif" font-size="10.00">lci::barrier_x::operator()</text>
</a>
</g>
</g>
<!-- Node3&#45;&gt;Node5 -->
<g id="edge4_Node000003_Node000005" class="edge">
<title>Node3&#45;&gt;Node5</title>
<g id="a_edge4_Node000003_Node000005"><a xlink:title=" ">
<path fill="none" stroke="#63b8ff" d="M157.74,-107.35C149.35,-106.35 140.69,-105.31 132.21,-104.3"/>
<polygon fill="#63b8ff" stroke="#63b8ff" points="157.46,-110.84 167.8,-108.56 158.29,-103.89 157.46,-110.84"/>
</a>
</g>
</g>
<!-- Node6&#45;&gt;Node3 -->
<g id="edge6_Node000006_Node000003" class="edge">
<title>Node6&#45;&gt;Node3</title>
<g id="a_edge6_Node000006_Node000003"><a xlink:title=" ">
<path fill="none" stroke="#63b8ff" d="M294.55,-114.5C285.97,-114.5 277.38,-114.5 269.23,-114.5"/>
<polygon fill="#63b8ff" stroke="#63b8ff" points="294.59,-118 304.59,-114.5 294.59,-111 294.59,-118"/>
</a>
</g>
</g>
<!-- Node7&#45;&gt;Node3 -->
<g id="edge8_Node000007_Node000003" class="edge">
<title>Node7&#45;&gt;Node3</title>
<g id="a_edge8_Node000007_Node000003"><a xlink:title=" ">
<path fill="none" stroke="#63b8ff" d="M468.28,-172.87C422.24,-169.85 359.06,-163.37 305,-149.5 281.39,-143.44 255.67,-132.24 238.68,-124.14"/>
<polygon fill="#63b8ff" stroke="#63b8ff" points="468.23,-176.37 478.42,-173.5 468.66,-169.38 468.23,-176.37"/>
</a>
</g>
</g>
<!-- Node7&#45;&gt;Node6 -->
<g id="edge9_Node000007_Node000006" class="edge">
<title>Node7&#45;&gt;Node6</title>
<g id="a_edge9_Node000007_Node000006"><a xlink:title=" ">
<path fill="none" stroke="#63b8ff" d="M482.82,-156.85C453.98,-146.02 418.85,-132.84 395.53,-124.08"/>
<polygon fill="#63b8ff" stroke="#63b8ff" points="481.74,-160.18 492.33,-160.42 484.2,-153.63 481.74,-160.18"/>
</a>
</g>
</g>
<!-- Node8&#45;&gt;Node3 -->
<g id="edge11_Node000008_Node000003" class="edge">
<title>Node8&#45;&gt;Node3</title>
<g id="a_edge11_Node000008_Node000003"><a xlink:title=" ">
<path fill="none" stroke="#63b8ff" d="M465.26,-136.79C419.86,-138.71 358.66,-139.39 305,-133.5 288.07,-131.64 269.59,-127.77 254.15,-124.01"/>
<polygon fill="#63b8ff" stroke="#63b8ff" points="465.45,-140.28 475.28,-136.34 465.13,-133.29 465.45,-140.28"/>
</a>
</g>
</g>
<!-- Node8&#45;&gt;Node6 -->
<g id="edge12_Node000008_Node000006" class="edge">
<title>Node8&#45;&gt;Node6</title>
<g id="a_edge12_Node000008_Node000006"><a xlink:title=" ">
<path fill="none" stroke="#63b8ff" d="M465.17,-125.04C454.56,-123.87 443.64,-122.66 433.13,-121.49"/>
<polygon fill="#63b8ff" stroke="#63b8ff" points="464.88,-128.53 475.21,-126.15 465.65,-121.57 464.88,-128.53"/>
</a>
</g>
</g>
<!-- Node9&#45;&gt;Node3 -->
<g id="edge14_Node000009_Node000003" class="edge">
<title>Node9&#45;&gt;Node3</title>
<g id="a_edge14_Node000009_Node000003"><a xlink:title=" ">
<path fill="none" stroke="#63b8ff" d="M459.83,-92.08C415.06,-90.89 356.56,-91.02 305,-96.5 289.01,-98.2 271.6,-101.58 256.69,-104.95"/>
<polygon fill="#63b8ff" stroke="#63b8ff" points="459.93,-95.58 470.03,-92.37 460.14,-88.58 459.93,-95.58"/>
</a>
</g>
</g>
<!-- Node9&#45;&gt;Node6 -->
<g id="edge15_Node000009_Node000006" class="edge">
<title>Node9&#45;&gt;Node6</title>
<g id="a_edge15_Node000009_Node000006"><a xlink:title=" ">
<path fill="none" stroke="#63b8ff" d="M460.04,-103.97C451.02,-105.03 441.86,-106.1 433,-107.13"/>
<polygon fill="#63b8ff" stroke="#63b8ff" points="460.61,-107.43 470.14,-102.79 459.8,-100.48 460.61,-107.43"/>
</a>
</g>
</g>
<!-- Node10&#45;&gt;Node3 -->
<g id="edge17_Node000010_Node000003" class="edge">
<title>Node10&#45;&gt;Node3</title>
<g id="a_edge17_Node000010_Node000003"><a xlink:title=" ">
<path fill="none" stroke="#63b8ff" d="M458.77,-60.33C413.95,-65.88 355.76,-74.49 305,-86.5 284.48,-91.36 261.83,-98.88 244.99,-104.9"/>
<polygon fill="#63b8ff" stroke="#63b8ff" points="459.2,-63.81 468.7,-59.13 458.35,-56.86 459.2,-63.81"/>
</a>
</g>
</g>
<!-- Node10&#45;&gt;Node6 -->
<g id="edge18_Node000010_Node000006" class="edge">
<title>Node10&#45;&gt;Node6</title>
<g id="a_edge18_Node000010_Node000006"><a xlink:title=" ">
<path fill="none" stroke="#63b8ff" d="M483.58,-71.16C454.51,-82.26 418.83,-95.87 395.31,-104.84"/>
<polygon fill="#63b8ff" stroke="#63b8ff" points="485.07,-74.34 493.16,-67.51 482.57,-67.8 485.07,-74.34"/>
</a>
</g>
</g>
<!-- Node11&#45;&gt;Node3 -->
<g id="edge20_Node000011_Node000003" class="edge">
<title>Node11&#45;&gt;Node3</title>
<g id="a_edge20_Node000011_Node000003"><a xlink:title=" ">
<path fill="none" stroke="#63b8ff" d="M462.13,-18.36C416.16,-25.73 355.51,-38.5 305,-59.5 276.64,-71.29 247.33,-92.46 231.47,-104.81"/>
<polygon fill="#63b8ff" stroke="#63b8ff" points="462.96,-21.78 472.3,-16.78 461.88,-14.86 462.96,-21.78"/>
</a>
</g>
</g>
<!-- Node11&#45;&gt;Node6 -->
<g id="edge21_Node000011_Node000006" class="edge">
<title>Node11&#45;&gt;Node6</title>
<g id="a_edge21_Node000011_Node000006"><a xlink:title=" ">
<path fill="none" stroke="#63b8ff" d="M481.55,-22.61C477.21,-24.36 472.96,-26.32 469,-28.5 430.9,-49.46 394.54,-87.02 378.54,-104.74"/>
<polygon fill="#63b8ff" stroke="#63b8ff" points="482.97,-25.81 491.15,-19.09 480.56,-19.24 482.97,-25.81"/>
</a>
</g>
</g>
</g>
</svg>
