<?xml version="1.0" encoding="UTF-8" standalone="no"?>
<!DOCTYPE svg PUBLIC "-//W3C//DTD SVG 1.1//EN"
 "http://www.w3.org/Graphics/SVG/1.1/DTD/svg11.dtd">
<!-- Generated by graphviz version 2.43.0 (0)
 -->
<!-- Title: lci::barrier_x::operator() Pages: 1 -->
<svg width="769pt" height="236pt"
 viewBox="0.00 0.00 769.00 236.00" xmlns="http://www.w3.org/2000/svg" xmlns:xlink="http://www.w3.org/1999/xlink">
<g id="graph0" class="graph" transform="scale(1 1) rotate(0) translate(4 232)">
<title>lci::barrier_x::operator()</title>
<!-- Node1 -->
<g id="Node000001" class="node">
<title>Node1</title>
<g id="a_Node000001"><a xlink:title=" ">
<polygon fill="#999999" stroke="#666666" points="132,-124 0,-124 0,-105 132,-105 132,-124"/>
<text text-anchor="middle" x="66" y="-112" font-family="Helvetica,sans-Serif" font-size="10.00">lci::barrier_x::operator()</text>
</a>
</g>
</g>
<!-- Node2 -->
<g id="Node000002" class="node">
<title>Node2</title>
<g id="a_Node000002"><a xlink:href="../../dd/dea/classlci_1_1barrier__x.html#a4771c440ebd2fdbe82fbbac3ae59c482" target="_top" xlink:title=" ">
<polygon fill="white" stroke="#666666" points="269,-124 168,-124 168,-105 269,-105 269,-124"/>
<text text-anchor="middle" x="218.5" y="-112" font-family="Helvetica,sans-Serif" font-size="10.00">lci::barrier_x::call</text>
</a>
</g>
</g>
<!-- Node1&#45;&gt;Node2 -->
<g id="edge1_Node000001_Node000002" class="edge">
<title>Node1&#45;&gt;Node2</title>
<g id="a_edge1_Node000001_Node000002"><a xlink:title=" ">
<path fill="none" stroke="#63b8ff" d="M132.14,-114.5C140.61,-114.5 149.25,-114.5 157.63,-114.5"/>
<polygon fill="#63b8ff" stroke="#63b8ff" points="157.69,-118 167.69,-114.5 157.69,-111 157.69,-118"/>
</a>
</g>
</g>
<!-- Node3 -->
<g id="Node000003" class="node">
<title>Node3</title>
<g id="a_Node000003"><a xlink:href="../../dd/dea/classlci_1_1barrier__x.html#a289a4f950bd00c4d8d490b643010aa36" target="_top" xlink:title=" ">
<polygon fill="white" stroke="#666666" points="433,-124 305,-124 305,-105 433,-105 433,-124"/>
<text text-anchor="middle" x="369" y="-112" font-family="Helvetica,sans-Serif" font-size="10.00">lci::barrier_x::call_impl</text>
</a>
</g>
</g>
<!-- Node2&#45;&gt;Node3 -->
<g id="edge2_Node000002_Node000003" class="edge">
<title>Node2&#45;&gt;Node3</title>
<g id="a_edge2_Node000002_Node000003"><a xlink:title=" ">
<path fill="none" stroke="#63b8ff" d="M269.36,-114.5C277.54,-114.5 286.16,-114.5 294.76,-114.5"/>
<polygon fill="#63b8ff" stroke="#63b8ff" points="294.82,-118 304.82,-114.5 294.82,-111 294.82,-118"/>
</a>
</g>
</g>
<!-- Node4 -->
<g id="Node000004" class="node">
<title>Node4</title>
<g id="a_Node000004"><a xlink:href="../../dd/dea/classlci_1_1barrier__x.html#a16d8b4410dff05bd6aee845c15eea722" target="_top" xlink:title=" ">
<polygon fill="white" stroke="#666666" points="588.5,-228 478.5,-228 478.5,-209 588.5,-209 588.5,-228"/>
<text text-anchor="middle" x="533.5" y="-216" font-family="Helvetica,sans-Serif" font-size="10.00">lci::barrier_x::comp</text>
</a>
</g>
</g>
<!-- Node2&#45;&gt;Node4 -->
<g id="edge15_Node000002_Node000004" class="edge">
<title>Node2&#45;&gt;Node4</title>
<g id="a_edge15_Node000002_Node000004"><a xlink:title=" ">
<path fill="none" stroke="#63b8ff" d="M230.24,-124.12C245.64,-137.36 275.43,-161.01 305,-173.5 357.52,-195.68 421.55,-207.09 468.28,-212.86"/>
<polygon fill="#63b8ff" stroke="#63b8ff" points="467.94,-216.35 478.28,-214.04 468.76,-209.39 467.94,-216.35"/>
</a>
</g>
</g>
<!-- Node6 -->
<g id="Node000006" class="node">
<title>Node6</title>
<g id="a_Node000006"><a xlink:href="../../dd/dea/classlci_1_1barrier__x.html#a20dd9f6db2c73905f0ae5cfb29363849" target="_top" xlink:title=" ">
<polygon fill="white" stroke="#666666" points="588.5,-190.5 478.5,-190.5 478.5,-160.5 588.5,-160.5 588.5,-190.5"/>
<text text-anchor="start" x="486.5" y="-178.5" font-family="Helvetica,sans-Serif" font-size="10.00">lci::barrier_x::comp</text>
<text text-anchor="middle" x="533.5" y="-167.5" font-family="Helvetica,sans-Serif" font-size="10.00">_semantic</text>
</a>
</g>
</g>
<!-- Node2&#45;&gt;Node6 -->
<g id="edge16_Node000002_Node000006" class="edge">
<title>Node2&#45;&gt;Node6</title>
<g id="a_edge16_Node000002_Node000006"><a xlink:title=" ">
<path fill="none" stroke="#63b8ff" d="M238.68,-124.14C255.67,-132.24 281.39,-143.44 305,-149.5 359.06,-163.37 422.24,-169.85 468.28,-172.87"/>
<polygon fill="#63b8ff" stroke="#63b8ff" points="468.23,-176.37 478.42,-173.5 468.66,-169.38 468.23,-176.37"/>
</a>
</g>
</g>
<!-- Node7 -->
<g id="Node000007" class="node">
<title>Node7</title>
<g id="a_Node000007"><a xlink:href="../../dd/dea/classlci_1_1barrier__x.html#a980001176d7677c650fcbaf17a975f9e" target="_top" xlink:title=" ">
<polygon fill="white" stroke="#666666" points="591.5,-142 475.5,-142 475.5,-123 591.5,-123 591.5,-142"/>
<text text-anchor="middle" x="533.5" y="-130" font-family="Helvetica,sans-Serif" font-size="10.00">lci::barrier_x::device</text>
</a>
</g>
</g>
<!-- Node2&#45;&gt;Node7 -->
<g id="edge17_Node000002_Node000007" class="edge">
<title>Node2&#45;&gt;Node7</title>
<g id="a_edge17_Node000002_Node000007"><a xlink:title=" ">
<path fill="none" stroke="#63b8ff" d="M254.15,-124.01C269.59,-127.77 288.07,-131.64 305,-133.5 358.66,-139.39 419.86,-138.71 465.26,-136.79"/>
<polygon fill="#63b8ff" stroke="#63b8ff" points="465.45,-140.28 475.28,-136.34 465.13,-133.29 465.45,-140.28"/>
</a>
</g>
</g>
<!-- Node8 -->
<g id="Node000008" class="node">
<title>Node8</title>
<g id="a_Node000008"><a xlink:href="../../dd/dea/classlci_1_1barrier__x.html#a59f0cd108ef8eba693206b14c481d917" target="_top" xlink:title=" ">
<polygon fill="white" stroke="#666666" points="596.5,-105 470.5,-105 470.5,-86 596.5,-86 596.5,-105"/>
<text text-anchor="middle" x="533.5" y="-93" font-family="Helvetica,sans-Serif" font-size="10.00">lci::barrier_x::endpoint</text>
</a>
</g>
</g>
<!-- Node2&#45;&gt;Node8 -->
<g id="edge18_Node000002_Node000008" class="edge">
<title>Node2&#45;&gt;Node8</title>
<g id="a_edge18_Node000002_Node000008"><a xlink:title=" ">
<path fill="none" stroke="#63b8ff" d="M256.69,-104.95C271.6,-101.58 289.01,-98.2 305,-96.5 356.56,-91.02 415.06,-90.89 459.83,-92.08"/>
<polygon fill="#63b8ff" stroke="#63b8ff" points="459.93,-95.58 470.03,-92.37 460.14,-88.58 459.93,-95.58"/>
</a>
</g>
</g>
<!-- Node9 -->
<g id="Node000009" class="node">
<title>Node9</title>
<g id="a_Node000009"><a xlink:href="../../dd/dea/classlci_1_1barrier__x.html#a129058f2dbd4f7d52d467d4feb60f9d8" target="_top" xlink:title=" ">
<polygon fill="white" stroke="#666666" points="598,-67.5 469,-67.5 469,-37.5 598,-37.5 598,-67.5"/>
<text text-anchor="start" x="477" y="-55.5" font-family="Helvetica,sans-Serif" font-size="10.00">lci::barrier_x::matching</text>
<text text-anchor="middle" x="533.5" y="-44.5" font-family="Helvetica,sans-Serif" font-size="10.00">_engine</text>
</a>
</g>
</g>
<!-- Node2&#45;&gt;Node9 -->
<g id="edge19_Node000002_Node000009" class="edge">
<title>Node2&#45;&gt;Node9</title>
<g id="a_edge19_Node000002_Node000009"><a xlink:title=" ">
<path fill="none" stroke="#63b8ff" d="M244.99,-104.9C261.83,-98.88 284.48,-91.36 305,-86.5 355.76,-74.49 413.95,-65.88 458.77,-60.33"/>
<polygon fill="#63b8ff" stroke="#63b8ff" points="459.2,-63.81 468.7,-59.13 458.35,-56.86 459.2,-63.81"/>
</a>
</g>
</g>
<!-- Node10 -->
<g id="Node000010" class="node">
<title>Node10</title>
<g id="a_Node000010"><a xlink:href="../../dd/dea/classlci_1_1barrier__x.html#aedef426cdcbfe66ff13bab373740f3fd" target="_top" xlink:title=" ">
<polygon fill="white" stroke="#666666" points="594.5,-19 472.5,-19 472.5,0 594.5,0 594.5,-19"/>
<text text-anchor="middle" x="533.5" y="-7" font-family="Helvetica,sans-Serif" font-size="10.00">lci::barrier_x::runtime</text>
</a>
</g>
</g>
<!-- Node2&#45;&gt;Node10 -->
<g id="edge20_Node000002_Node000010" class="edge">
<title>Node2&#45;&gt;Node10</title>
<g id="a_edge20_Node000002_Node000010"><a xlink:title=" ">
<path fill="none" stroke="#63b8ff" d="M231.47,-104.81C247.33,-92.46 276.64,-71.29 305,-59.5 355.51,-38.5 416.16,-25.73 462.13,-18.36"/>
<polygon fill="#63b8ff" stroke="#63b8ff" points="462.96,-21.78 472.3,-16.78 461.88,-14.86 462.96,-21.78"/>
</a>
</g>
</g>
<!-- Node3&#45;&gt;Node4 -->
<g id="edge3_Node000003_Node000004" class="edge">
<title>Node3&#45;&gt;Node4</title>
<g id="a_edge3_Node000003_Node000004"><a xlink:title=" ">
<path fill="none" stroke="#63b8ff" d="M378.56,-124.14C394.61,-141.65 431.03,-178.75 469,-199.5 473.03,-201.7 477.34,-203.68 481.76,-205.45"/>
<polygon fill="#63b8ff" stroke="#63b8ff" points="480.91,-208.86 491.51,-208.99 483.3,-202.28 480.91,-208.86"/>
</a>
</g>
</g>
<!-- Node3&#45;&gt;Node6 -->
<g id="edge5_Node000003_Node000006" class="edge">
<title>Node3&#45;&gt;Node6</title>
<g id="a_edge5_Node000003_Node000006"><a xlink:title=" ">
<path fill="none" stroke="#63b8ff" d="M395.39,-124.03C418.73,-132.79 453.98,-146.03 482.9,-156.88"/>
<polygon fill="#63b8ff" stroke="#63b8ff" points="481.84,-160.22 492.44,-160.46 484.3,-153.67 481.84,-160.22"/>
</a>
</g>
</g>
<!-- Node3&#45;&gt;Node7 -->
<g id="edge7_Node000003_Node000007" class="edge">
<title>Node3&#45;&gt;Node7</title>
<g id="a_edge7_Node000003_Node000007"><a xlink:title=" ">
<path fill="none" stroke="#63b8ff" d="M433.29,-121.51C443.83,-122.68 454.79,-123.89 465.41,-125.07"/>
<polygon fill="#63b8ff" stroke="#63b8ff" points="465.15,-128.56 475.47,-126.18 465.92,-121.6 465.15,-128.56"/>
</a>
</g>
</g>
<!-- Node3&#45;&gt;Node8 -->
<g id="edge9_Node000003_Node000008" class="edge">
<title>Node3&#45;&gt;Node8</title>
<g id="a_edge9_Node000003_Node000008"><a xlink:title=" ">
<path fill="none" stroke="#63b8ff" d="M433.29,-107.1C442.16,-106.06 451.33,-104.99 460.35,-103.94"/>
<polygon fill="#63b8ff" stroke="#63b8ff" points="460.92,-107.39 470.45,-102.76 460.11,-100.44 460.92,-107.39"/>
</a>
</g>
</g>
<!-- Node3&#45;&gt;Node9 -->
<g id="edge11_Node000003_Node000009" class="edge">
<title>Node3&#45;&gt;Node9</title>
<g id="a_edge11_Node000003_Node000009"><a xlink:title=" ">
<path fill="none" stroke="#63b8ff" d="M395.03,-104.95C418.47,-96.01 454.15,-82.4 483.28,-71.28"/>
<polygon fill="#63b8ff" stroke="#63b8ff" points="484.79,-74.45 492.88,-67.62 482.29,-67.91 484.79,-74.45"/>
</a>
</g>
</g>
<!-- Node3&#45;&gt;Node10 -->
<g id="edge13_Node000003_Node000010" class="edge">
<title>Node3&#45;&gt;Node10</title>
<g id="a_edge13_Node000003_Node000010"><a xlink:title=" ">
<path fill="none" stroke="#63b8ff" d="M378.54,-104.74C394.54,-87.02 430.9,-49.46 469,-28.5 472.96,-26.32 477.21,-24.36 481.55,-22.61"/>
<polygon fill="#63b8ff" stroke="#63b8ff" points="482.97,-25.81 491.15,-19.09 480.56,-19.24 482.97,-25.81"/>
</a>
</g>
</g>
<!-- Node5 -->
<g id="Node000005" class="node">
<title>Node5</title>
<g id="a_Node000005"><a xlink:href="../../dd/dea/classlci_1_1barrier__x.html#a8d67098f7543904050fa02d587f59e6d" target="_top" xlink:title=" ">
<polygon fill="white" stroke="#666666" points="761,-123 634,-123 634,-104 761,-104 761,-123"/>
<text text-anchor="middle" x="697.5" y="-111" font-family="Helvetica,sans-Serif" font-size="10.00">lci::barrier_x::barrier_x</text>
</a>
</g>
</g>
<!-- Node4&#45;&gt;Node5 -->
<g id="edge4_Node000004_Node000005" class="edge">
<title>Node4&#45;&gt;Node5</title>
<g id="a_edge4_Node000004_Node000005"><a xlink:title=" ">
<path fill="none" stroke="#63b8ff" d="M575.85,-208.93C583.46,-206.39 591.15,-203.28 598,-199.5 631.22,-181.17 663.04,-150.12 681.14,-130.77"/>
<polygon fill="#63b8ff" stroke="#63b8ff" points="683.84,-133 688.02,-123.27 678.68,-128.27 683.84,-133"/>
</a>
</g>
</g>
<!-- Node6&#45;&gt;Node5 -->
<g id="edge6_Node000006_Node000005" class="edge">
<title>Node6&#45;&gt;Node5</title>
<g id="a_edge6_Node000006_Node000005"><a xlink:title=" ">
<path fill="none" stroke="#63b8ff" d="M574.49,-160.43C582.29,-157.48 590.4,-154.4 598,-151.5 619.43,-143.31 643.46,-134.05 662.41,-126.72"/>
<polygon fill="#63b8ff" stroke="#63b8ff" points="663.76,-129.95 671.83,-123.07 661.24,-123.42 663.76,-129.95"/>
</a>
</g>
</g>
<!-- Node7&#45;&gt;Node5 -->
<g id="edge8_Node000007_Node000005" class="edge">
<title>Node7&#45;&gt;Node5</title>
<g id="a_edge8_Node000007_Node000005"><a xlink:title=" ">
<path fill="none" stroke="#63b8ff" d="M591.62,-125.8C601.97,-124.59 612.9,-123.31 623.63,-122.05"/>
<polygon fill="#63b8ff" stroke="#63b8ff" points="624.32,-125.49 633.84,-120.85 623.5,-118.54 624.32,-125.49"/>
</a>
</g>
</g>
<!-- Node8&#45;&gt;Node5 -->
<g id="edge10_Node000008_Node000005" class="edge">
<title>Node8&#45;&gt;Node5</title>
<g id="a_edge10_Node000008_Node000005"><a xlink:title=" ">
<path fill="none" stroke="#63b8ff" d="M596.67,-102.41C605.55,-103.39 614.75,-104.42 623.81,-105.42"/>
<polygon fill="#63b8ff" stroke="#63b8ff" points="623.64,-108.93 633.96,-106.55 624.41,-101.97 623.64,-108.93"/>
</a>
</g>
</g>
<!-- Node9&#45;&gt;Node5 -->
<g id="edge12_Node000009_Node000005" class="edge">
<title>Node9&#45;&gt;Node5</title>
<g id="a_edge12_Node000009_Node000005"><a xlink:title=" ">
<path fill="none" stroke="#63b8ff" d="M574.54,-67.58C601.18,-77.61 635.83,-90.66 661.39,-100.28"/>
<polygon fill="#63b8ff" stroke="#63b8ff" points="660.45,-103.67 671.05,-103.92 662.92,-97.12 660.45,-103.67"/>
</a>
</g>
</g>
<!-- Node10&#45;&gt;Node5 -->
<g id="edge14_Node000010_Node000005" class="edge">
<title>Node10&#45;&gt;Node5</title>
<g id="a_edge14_Node000010_Node000005"><a xlink:title=" ">
<path fill="none" stroke="#63b8ff" d="M575.84,-19.11C583.44,-21.64 591.14,-24.74 598,-28.5 631.1,-46.64 662.96,-77.32 681.1,-96.44"/>
<polygon fill="#63b8ff" stroke="#63b8ff" points="678.62,-98.91 687.99,-103.85 683.75,-94.15 678.62,-98.91"/>
</a>
</g>
</g>
</g>
</svg>
