<?xml version="1.0" encoding="UTF-8" standalone="no"?>
<!DOCTYPE svg PUBLIC "-//W3C//DTD SVG 1.1//EN"
 "http://www.w3.org/Graphics/SVG/1.1/DTD/svg11.dtd">
<!-- Generated by graphviz version 2.43.0 (0)
 -->
<!-- Title: lci::barrier_x::endpoint Pages: 1 -->
<svg width="603pt" height="65pt"
 viewBox="0.00 0.00 603.00 65.00" xmlns="http://www.w3.org/2000/svg" xmlns:xlink="http://www.w3.org/1999/xlink">
<g id="graph0" class="graph" transform="scale(1 1) rotate(0) translate(4 61)">
<title>lci::barrier_x::endpoint</title>
<!-- Node1 -->
<g id="Node000001" class="node">
<title>Node1</title>
<g id="a_Node000001"><a xlink:title=" ">
<polygon fill="#999999" stroke="#666666" points="595,-38 469,-38 469,-19 595,-19 595,-38"/>
<text text-anchor="middle" x="532" y="-26" font-family="Helvetica,sans-Serif" font-size="10.00">lci::barrier_x::endpoint</text>
</a>
</g>
</g>
<!-- Node2 -->
<g id="Node000002" class="node">
<title>Node2</title>
<g id="a_Node000002"><a xlink:href="../../dd/dea/classlci_1_1barrier__x.html#a4771c440ebd2fdbe82fbbac3ae59c482" target="_top" xlink:title=" ">
<polygon fill="white" stroke="#666666" points="269,-38 168,-38 168,-19 269,-19 269,-38"/>
<text text-anchor="middle" x="218.5" y="-26" font-family="Helvetica,sans-Serif" font-size="10.00">lci::barrier_x::call</text>
</a>
</g>
</g>
<!-- Node1&#45;&gt;Node2 -->
<g id="edge1_Node000001_Node000002" class="edge">
<title>Node1&#45;&gt;Node2</title>
<g id="a_edge1_Node000001_Node000002"><a xlink:title=" ">
<path fill="none" stroke="#63b8ff" d="M458.5,-28.5C400.42,-28.5 320.46,-28.5 269.37,-28.5"/>
<polygon fill="#63b8ff" stroke="#63b8ff" points="458.71,-32 468.71,-28.5 458.71,-25 458.71,-32"/>
</a>
</g>
</g>
<!-- Node5 -->
<g id="Node000005" class="node">
<title>Node5</title>
<g id="a_Node000005"><a xlink:href="../../dd/dea/classlci_1_1barrier__x.html#a289a4f950bd00c4d8d490b643010aa36" target="_top" xlink:title=" ">
<polygon fill="white" stroke="#666666" points="433,-19 305,-19 305,0 433,0 433,-19"/>
<text text-anchor="middle" x="369" y="-7" font-family="Helvetica,sans-Serif" font-size="10.00">lci::barrier_x::call_impl</text>
</a>
</g>
</g>
<!-- Node1&#45;&gt;Node5 -->
<g id="edge4_Node000001_Node000005" class="edge">
<title>Node1&#45;&gt;Node5</title>
<g id="a_edge4_Node000001_Node000005"><a xlink:title=" ">
<path fill="none" stroke="#63b8ff" d="M458.79,-19.98C450.24,-18.97 441.56,-17.94 433.14,-16.95"/>
<polygon fill="#63b8ff" stroke="#63b8ff" points="458.41,-23.46 468.75,-21.15 459.23,-16.51 458.41,-23.46"/>
</a>
</g>
</g>
<!-- Node3 -->
<g id="Node000003" class="node">
<title>Node3</title>
<g id="a_Node000003"><a xlink:href="../../d5/dd3/namespacelci.html#ae6054124daf3cd24d181b63ccbb7ce6c" target="_top" xlink:title=" ">
<polygon fill="white" stroke="#666666" points="99,-57 33,-57 33,-38 99,-38 99,-57"/>
<text text-anchor="middle" x="66" y="-45" font-family="Helvetica,sans-Serif" font-size="10.00">lci::barrier</text>
</a>
</g>
</g>
<!-- Node2&#45;&gt;Node3 -->
<g id="edge2_Node000002_Node000003" class="edge">
<title>Node2&#45;&gt;Node3</title>
<g id="a_edge2_Node000002_Node000003"><a xlink:title=" ">
<path fill="none" stroke="#63b8ff" d="M157.81,-36.04C137.78,-38.56 116.22,-41.29 99.13,-43.44"/>
<polygon fill="#63b8ff" stroke="#63b8ff" points="158.32,-39.5 167.8,-34.77 157.44,-32.55 158.32,-39.5"/>
</a>
</g>
</g>
<!-- Node4 -->
<g id="Node000004" class="node">
<title>Node4</title>
<g id="a_Node000004"><a xlink:href="../../dd/dea/classlci_1_1barrier__x.html#aa287ecbd813cf5dcbc322389d8b1a233" target="_top" xlink:title=" ">
<polygon fill="white" stroke="#666666" points="132,-20 0,-20 0,-1 132,-1 132,-20"/>
<text text-anchor="middle" x="66" y="-8" font-family="Helvetica,sans-Serif" font-size="10.00">lci::barrier_x::operator()</text>
</a>
</g>
</g>
<!-- Node2&#45;&gt;Node4 -->
<g id="edge3_Node000002_Node000004" class="edge">
<title>Node2&#45;&gt;Node4</title>
<g id="a_edge3_Node000002_Node000004"><a xlink:title=" ">
<path fill="none" stroke="#63b8ff" d="M157.74,-21.35C149.35,-20.35 140.69,-19.31 132.21,-18.3"/>
<polygon fill="#63b8ff" stroke="#63b8ff" points="157.46,-24.84 167.8,-22.56 158.29,-17.89 157.46,-24.84"/>
</a>
</g>
</g>
<!-- Node5&#45;&gt;Node2 -->
<g id="edge5_Node000005_Node000002" class="edge">
<title>Node5&#45;&gt;Node2</title>
<g id="a_edge5_Node000005_Node000002"><a xlink:title=" ">
<path fill="none" stroke="#63b8ff" d="M294.55,-18.9C285.97,-20 277.38,-21.09 269.23,-22.14"/>
<polygon fill="#63b8ff" stroke="#63b8ff" points="295.12,-22.35 304.59,-17.61 294.23,-15.41 295.12,-22.35"/>
</a>
</g>
</g>
</g>
</svg>
