<?xml version="1.0" encoding="UTF-8" standalone="no"?>
<!DOCTYPE svg PUBLIC "-//W3C//DTD SVG 1.1//EN"
 "http://www.w3.org/Graphics/SVG/1.1/DTD/svg11.dtd">
<!-- Generated by graphviz version 2.43.0 (0)
 -->
<!-- Title: lci::barrier_x::call_impl Pages: 1 -->
<svg width="464pt" height="236pt"
 viewBox="0.00 0.00 464.00 236.00" xmlns="http://www.w3.org/2000/svg" xmlns:xlink="http://www.w3.org/1999/xlink">
<g id="graph0" class="graph" transform="scale(1 1) rotate(0) translate(4 232)">
<title>lci::barrier_x::call_impl</title>
<!-- Node1 -->
<g id="Node000001" class="node">
<title>Node1</title>
<g id="a_Node000001"><a xlink:title=" ">
<polygon fill="#999999" stroke="#666666" points="128,-123 0,-123 0,-104 128,-104 128,-123"/>
<text text-anchor="middle" x="64" y="-111" font-family="Helvetica,sans-Serif" font-size="10.00">lci::barrier_x::call_impl</text>
</a>
</g>
</g>
<!-- Node2 -->
<g id="Node000002" class="node">
<title>Node2</title>
<g id="a_Node000002"><a xlink:href="../../dd/dea/classlci_1_1barrier__x.html#a16d8b4410dff05bd6aee845c15eea722" target="_top" xlink:title=" ">
<polygon fill="white" stroke="#666666" points="283.5,-228 173.5,-228 173.5,-209 283.5,-209 283.5,-228"/>
<text text-anchor="middle" x="228.5" y="-216" font-family="Helvetica,sans-Serif" font-size="10.00">lci::barrier_x::comp</text>
</a>
</g>
</g>
<!-- Node1&#45;&gt;Node2 -->
<g id="edge1_Node000001_Node000002" class="edge">
<title>Node1&#45;&gt;Node2</title>
<g id="a_edge1_Node000001_Node000002"><a xlink:title=" ">
<path fill="none" stroke="#63b8ff" d="M73.54,-123.26C89.54,-140.98 125.9,-178.54 164,-199.5 167.96,-201.68 172.21,-203.64 176.55,-205.39"/>
<polygon fill="#63b8ff" stroke="#63b8ff" points="175.56,-208.76 186.15,-208.91 177.97,-202.19 175.56,-208.76"/>
</a>
</g>
</g>
<!-- Node4 -->
<g id="Node000004" class="node">
<title>Node4</title>
<g id="a_Node000004"><a xlink:href="../../dd/dea/classlci_1_1barrier__x.html#a20dd9f6db2c73905f0ae5cfb29363849" target="_top" xlink:title=" ">
<polygon fill="white" stroke="#666666" points="283.5,-190.5 173.5,-190.5 173.5,-160.5 283.5,-160.5 283.5,-190.5"/>
<text text-anchor="start" x="181.5" y="-178.5" font-family="Helvetica,sans-Serif" font-size="10.00">lci::barrier_x::comp</text>
<text text-anchor="middle" x="228.5" y="-167.5" font-family="Helvetica,sans-Serif" font-size="10.00">_semantic</text>
</a>
</g>
</g>
<!-- Node1&#45;&gt;Node4 -->
<g id="edge3_Node000001_Node000004" class="edge">
<title>Node1&#45;&gt;Node4</title>
<g id="a_edge3_Node000001_Node000004"><a xlink:title=" ">
<path fill="none" stroke="#63b8ff" d="M89.8,-123.06C109.82,-130.77 138.71,-141.87 164,-151.5 168.51,-153.22 173.21,-155 177.91,-156.78"/>
<polygon fill="#63b8ff" stroke="#63b8ff" points="176.93,-160.16 187.52,-160.42 179.41,-153.61 176.93,-160.16"/>
</a>
</g>
</g>
<!-- Node5 -->
<g id="Node000005" class="node">
<title>Node5</title>
<g id="a_Node000005"><a xlink:href="../../dd/dea/classlci_1_1barrier__x.html#a980001176d7677c650fcbaf17a975f9e" target="_top" xlink:title=" ">
<polygon fill="white" stroke="#666666" points="286.5,-142 170.5,-142 170.5,-123 286.5,-123 286.5,-142"/>
<text text-anchor="middle" x="228.5" y="-130" font-family="Helvetica,sans-Serif" font-size="10.00">lci::barrier_x::device</text>
</a>
</g>
</g>
<!-- Node1&#45;&gt;Node5 -->
<g id="edge5_Node000001_Node000005" class="edge">
<title>Node1&#45;&gt;Node5</title>
<g id="a_edge5_Node000001_Node000005"><a xlink:title=" ">
<path fill="none" stroke="#63b8ff" d="M128.29,-120.9C138.83,-122.13 149.79,-123.41 160.41,-124.66"/>
<polygon fill="#63b8ff" stroke="#63b8ff" points="160.13,-128.15 170.47,-125.83 160.95,-121.19 160.13,-128.15"/>
</a>
</g>
</g>
<!-- Node6 -->
<g id="Node000006" class="node">
<title>Node6</title>
<g id="a_Node000006"><a xlink:href="../../dd/dea/classlci_1_1barrier__x.html#a59f0cd108ef8eba693206b14c481d917" target="_top" xlink:title=" ">
<polygon fill="white" stroke="#666666" points="291.5,-105 165.5,-105 165.5,-86 291.5,-86 291.5,-105"/>
<text text-anchor="middle" x="228.5" y="-93" font-family="Helvetica,sans-Serif" font-size="10.00">lci::barrier_x::endpoint</text>
</a>
</g>
</g>
<!-- Node1&#45;&gt;Node6 -->
<g id="edge7_Node000001_Node000006" class="edge">
<title>Node1&#45;&gt;Node6</title>
<g id="a_edge7_Node000001_Node000006"><a xlink:title=" ">
<path fill="none" stroke="#63b8ff" d="M128.29,-106.49C137.16,-105.51 146.33,-104.49 155.35,-103.49"/>
<polygon fill="#63b8ff" stroke="#63b8ff" points="155.89,-106.95 165.45,-102.37 155.12,-100 155.89,-106.95"/>
</a>
</g>
</g>
<!-- Node7 -->
<g id="Node000007" class="node">
<title>Node7</title>
<g id="a_Node000007"><a xlink:href="../../dd/dea/classlci_1_1barrier__x.html#a129058f2dbd4f7d52d467d4feb60f9d8" target="_top" xlink:title=" ">
<polygon fill="white" stroke="#666666" points="293,-67.5 164,-67.5 164,-37.5 293,-37.5 293,-67.5"/>
<text text-anchor="start" x="172" y="-55.5" font-family="Helvetica,sans-Serif" font-size="10.00">lci::barrier_x::matching</text>
<text text-anchor="middle" x="228.5" y="-44.5" font-family="Helvetica,sans-Serif" font-size="10.00">_engine</text>
</a>
</g>
</g>
<!-- Node1&#45;&gt;Node7 -->
<g id="edge9_Node000001_Node000007" class="edge">
<title>Node1&#45;&gt;Node7</title>
<g id="a_edge9_Node000001_Node000007"><a xlink:title=" ">
<path fill="none" stroke="#63b8ff" d="M90.39,-103.97C113.73,-95.21 148.98,-81.97 177.9,-71.12"/>
<polygon fill="#63b8ff" stroke="#63b8ff" points="179.3,-74.33 187.44,-67.54 176.84,-67.78 179.3,-74.33"/>
</a>
</g>
</g>
<!-- Node8 -->
<g id="Node000008" class="node">
<title>Node8</title>
<g id="a_Node000008"><a xlink:href="../../dd/dea/classlci_1_1barrier__x.html#aedef426cdcbfe66ff13bab373740f3fd" target="_top" xlink:title=" ">
<polygon fill="white" stroke="#666666" points="289.5,-19 167.5,-19 167.5,0 289.5,0 289.5,-19"/>
<text text-anchor="middle" x="228.5" y="-7" font-family="Helvetica,sans-Serif" font-size="10.00">lci::barrier_x::runtime</text>
</a>
</g>
</g>
<!-- Node1&#45;&gt;Node8 -->
<g id="edge11_Node000001_Node000008" class="edge">
<title>Node1&#45;&gt;Node8</title>
<g id="a_edge11_Node000001_Node000008"><a xlink:title=" ">
<path fill="none" stroke="#63b8ff" d="M73.56,-103.86C89.61,-86.35 126.03,-49.25 164,-28.5 168.03,-26.3 172.34,-24.32 176.76,-22.55"/>
<polygon fill="#63b8ff" stroke="#63b8ff" points="178.3,-25.72 186.51,-19.01 175.91,-19.14 178.3,-25.72"/>
</a>
</g>
</g>
<!-- Node3 -->
<g id="Node000003" class="node">
<title>Node3</title>
<g id="a_Node000003"><a xlink:href="../../dd/dea/classlci_1_1barrier__x.html#a8d67098f7543904050fa02d587f59e6d" target="_top" xlink:title=" ">
<polygon fill="white" stroke="#666666" points="456,-123 329,-123 329,-104 456,-104 456,-123"/>
<text text-anchor="middle" x="392.5" y="-111" font-family="Helvetica,sans-Serif" font-size="10.00">lci::barrier_x::barrier_x</text>
</a>
</g>
</g>
<!-- Node2&#45;&gt;Node3 -->
<g id="edge2_Node000002_Node000003" class="edge">
<title>Node2&#45;&gt;Node3</title>
<g id="a_edge2_Node000002_Node000003"><a xlink:title=" ">
<path fill="none" stroke="#63b8ff" d="M270.85,-208.93C278.46,-206.39 286.15,-203.28 293,-199.5 326.22,-181.17 358.04,-150.12 376.14,-130.77"/>
<polygon fill="#63b8ff" stroke="#63b8ff" points="378.84,-133 383.02,-123.27 373.68,-128.27 378.84,-133"/>
</a>
</g>
</g>
<!-- Node4&#45;&gt;Node3 -->
<g id="edge4_Node000004_Node000003" class="edge">
<title>Node4&#45;&gt;Node3</title>
<g id="a_edge4_Node000004_Node000003"><a xlink:title=" ">
<path fill="none" stroke="#63b8ff" d="M269.49,-160.43C277.29,-157.48 285.4,-154.4 293,-151.5 314.43,-143.31 338.46,-134.05 357.41,-126.72"/>
<polygon fill="#63b8ff" stroke="#63b8ff" points="358.76,-129.95 366.83,-123.07 356.24,-123.42 358.76,-129.95"/>
</a>
</g>
</g>
<!-- Node5&#45;&gt;Node3 -->
<g id="edge6_Node000005_Node000003" class="edge">
<title>Node5&#45;&gt;Node3</title>
<g id="a_edge6_Node000005_Node000003"><a xlink:title=" ">
<path fill="none" stroke="#63b8ff" d="M286.62,-125.8C296.97,-124.59 307.9,-123.31 318.63,-122.05"/>
<polygon fill="#63b8ff" stroke="#63b8ff" points="319.32,-125.49 328.84,-120.85 318.5,-118.54 319.32,-125.49"/>
</a>
</g>
</g>
<!-- Node6&#45;&gt;Node3 -->
<g id="edge8_Node000006_Node000003" class="edge">
<title>Node6&#45;&gt;Node3</title>
<g id="a_edge8_Node000006_Node000003"><a xlink:title=" ">
<path fill="none" stroke="#63b8ff" d="M291.67,-102.41C300.55,-103.39 309.75,-104.42 318.81,-105.42"/>
<polygon fill="#63b8ff" stroke="#63b8ff" points="318.64,-108.93 328.96,-106.55 319.41,-101.97 318.64,-108.93"/>
</a>
</g>
</g>
<!-- Node7&#45;&gt;Node3 -->
<g id="edge10_Node000007_Node000003" class="edge">
<title>Node7&#45;&gt;Node3</title>
<g id="a_edge10_Node000007_Node000003"><a xlink:title=" ">
<path fill="none" stroke="#63b8ff" d="M269.54,-67.58C296.18,-77.61 330.83,-90.66 356.39,-100.28"/>
<polygon fill="#63b8ff" stroke="#63b8ff" points="355.45,-103.67 366.05,-103.92 357.92,-97.12 355.45,-103.67"/>
</a>
</g>
</g>
<!-- Node8&#45;&gt;Node3 -->
<g id="edge12_Node000008_Node000003" class="edge">
<title>Node8&#45;&gt;Node3</title>
<g id="a_edge12_Node000008_Node000003"><a xlink:title=" ">
<path fill="none" stroke="#63b8ff" d="M270.84,-19.11C278.44,-21.64 286.14,-24.74 293,-28.5 326.1,-46.64 357.96,-77.32 376.1,-96.44"/>
<polygon fill="#63b8ff" stroke="#63b8ff" points="373.62,-98.91 382.99,-103.85 378.75,-94.15 373.62,-98.91"/>
</a>
</g>
</g>
</g>
</svg>
