<?xml version="1.0" encoding="UTF-8" standalone="no"?>
<!DOCTYPE svg PUBLIC "-//W3C//DTD SVG 1.1//EN"
 "http://www.w3.org/Graphics/SVG/1.1/DTD/svg11.dtd">
<!-- Generated by graphviz version 2.43.0 (0)
 -->
<!-- Title: lci::alltoall_x Pages: 1 -->
<svg width="881pt" height="278pt"
 viewBox="0.00 0.00 881.00 278.00" xmlns="http://www.w3.org/2000/svg" xmlns:xlink="http://www.w3.org/1999/xlink">
<g id="graph0" class="graph" transform="scale(1 1) rotate(0) translate(4 274)">
<title>lci::alltoall_x</title>
<!-- Node1 -->
<g id="Node000001" class="node">
<title>Node1</title>
<g id="a_Node000001"><a xlink:title="The actual implementation for alltoall.">
<polygon fill="#999999" stroke="#666666" points="873,-144.5 794,-144.5 794,-125.5 873,-125.5 873,-144.5"/>
<text text-anchor="middle" x="833.5" y="-132.5" font-family="Helvetica,sans-Serif" font-size="10.00">lci::alltoall_x</text>
</a>
</g>
</g>
<!-- Node2 -->
<g id="Node000002" class="node">
<title>Node2</title>
<g id="a_Node000002"><a xlink:href="../../db/d20/structlci_1_1option__t.html" target="_top" xlink:title=" ">
<polygon fill="white" stroke="#666666" points="639.5,-270 543.5,-270 543.5,-240 639.5,-240 639.5,-270"/>
<text text-anchor="start" x="551.5" y="-258" font-family="Helvetica,sans-Serif" font-size="10.00">lci::option_t&lt; lci</text>
<text text-anchor="middle" x="591.5" y="-247" font-family="Helvetica,sans-Serif" font-size="10.00">::runtime_t &gt;</text>
</a>
</g>
</g>
<!-- Node2&#45;&gt;Node1 -->
<g id="edge1_Node000001_Node000002" class="edge">
<title>Node2&#45;&gt;Node1</title>
<g id="a_edge1_Node000001_Node000002"><a xlink:title=" ">
<path fill="none" stroke="#9a32cd" stroke-dasharray="5,2" d="M649.56,-249.66C687.87,-243.88 738.09,-231.87 776,-207 800.71,-190.79 819.34,-160.13 827.68,-144.57"/>
<polygon fill="#9a32cd" stroke="#9a32cd" points="649,-246.2 639.59,-251.06 649.98,-253.13 649,-246.2"/>
</a>
</g>
<text text-anchor="middle" x="724.5" y="-247" font-family="Helvetica,sans-Serif" font-size="10.00" fill="grey"> m_runtime</text>
</g>
<!-- Node3 -->
<g id="Node000003" class="node">
<title>Node3</title>
<g id="a_Node000003"><a xlink:href="../../dc/d5c/classlci_1_1runtime__t.html" target="_top" xlink:title="The actual implementation for RESOURCE runtime.">
<polygon fill="white" stroke="#666666" points="423,-264.5 342,-264.5 342,-245.5 423,-245.5 423,-264.5"/>
<text text-anchor="middle" x="382.5" y="-252.5" font-family="Helvetica,sans-Serif" font-size="10.00">lci::runtime_t</text>
</a>
</g>
</g>
<!-- Node3&#45;&gt;Node2 -->
<g id="edge2_Node000002_Node000003" class="edge">
<title>Node3&#45;&gt;Node2</title>
<g id="a_edge2_Node000002_Node000003"><a xlink:title=" ">
<path fill="none" stroke="#9a32cd" stroke-dasharray="5,2" d="M433.44,-255C466.89,-255 510.64,-255 543.46,-255"/>
<polygon fill="#9a32cd" stroke="#9a32cd" points="433.41,-251.5 423.41,-255 433.41,-258.5 433.41,-251.5"/>
</a>
</g>
<text text-anchor="middle" x="487" y="-258" font-family="Helvetica,sans-Serif" font-size="10.00" fill="grey"> m_value</text>
</g>
<!-- Node4 -->
<g id="Node000004" class="node">
<title>Node4</title>
<g id="a_Node000004"><a xlink:href="../../db/d20/structlci_1_1option__t.html" target="_top" xlink:title=" ">
<polygon fill="white" stroke="#666666" points="639.5,-222 543.5,-222 543.5,-192 639.5,-192 639.5,-222"/>
<text text-anchor="start" x="551.5" y="-210" font-family="Helvetica,sans-Serif" font-size="10.00">lci::option_t&lt; lci</text>
<text text-anchor="middle" x="591.5" y="-199" font-family="Helvetica,sans-Serif" font-size="10.00">::device_t &gt;</text>
</a>
</g>
</g>
<!-- Node4&#45;&gt;Node1 -->
<g id="edge3_Node000001_Node000004" class="edge">
<title>Node4&#45;&gt;Node1</title>
<g id="a_edge3_Node000001_Node000004"><a xlink:title=" ">
<path fill="none" stroke="#9a32cd" stroke-dasharray="5,2" d="M649.92,-197.88C686.67,-191.06 734.99,-180.28 776,-165 790.57,-159.57 806.1,-151.11 817.19,-144.55"/>
<polygon fill="#9a32cd" stroke="#9a32cd" points="649.09,-194.47 639.87,-199.69 650.33,-201.36 649.09,-194.47"/>
</a>
</g>
<text text-anchor="middle" x="724.5" y="-195" font-family="Helvetica,sans-Serif" font-size="10.00" fill="grey"> m_device</text>
</g>
<!-- Node5 -->
<g id="Node000005" class="node">
<title>Node5</title>
<g id="a_Node000005"><a xlink:href="../../d6/d66/classlci_1_1device__t.html" target="_top" xlink:title="The actual implementation for RESOURCE device.">
<polygon fill="white" stroke="#666666" points="420,-216.5 345,-216.5 345,-197.5 420,-197.5 420,-216.5"/>
<text text-anchor="middle" x="382.5" y="-204.5" font-family="Helvetica,sans-Serif" font-size="10.00">lci::device_t</text>
</a>
</g>
</g>
<!-- Node5&#45;&gt;Node4 -->
<g id="edge4_Node000004_Node000005" class="edge">
<title>Node5&#45;&gt;Node4</title>
<g id="a_edge4_Node000004_Node000005"><a xlink:title=" ">
<path fill="none" stroke="#9a32cd" stroke-dasharray="5,2" d="M430.12,-207C463.94,-207 509.5,-207 543.42,-207"/>
<polygon fill="#9a32cd" stroke="#9a32cd" points="430.03,-203.5 420.03,-207 430.03,-210.5 430.03,-203.5"/>
</a>
</g>
<text text-anchor="middle" x="487" y="-210" font-family="Helvetica,sans-Serif" font-size="10.00" fill="grey"> m_value</text>
</g>
<!-- Node6 -->
<g id="Node000006" class="node">
<title>Node6</title>
<g id="a_Node000006"><a xlink:href="../../db/d20/structlci_1_1option__t.html" target="_top" xlink:title=" ">
<polygon fill="white" stroke="#666666" points="639.5,-174 543.5,-174 543.5,-144 639.5,-144 639.5,-174"/>
<text text-anchor="start" x="551.5" y="-162" font-family="Helvetica,sans-Serif" font-size="10.00">lci::option_t&lt; lci</text>
<text text-anchor="middle" x="591.5" y="-151" font-family="Helvetica,sans-Serif" font-size="10.00">::endpoint_t &gt;</text>
</a>
</g>
</g>
<!-- Node6&#45;&gt;Node1 -->
<g id="edge5_Node000001_Node000006" class="edge">
<title>Node6&#45;&gt;Node1</title>
<g id="a_edge5_Node000001_Node000006"><a xlink:title=" ">
<path fill="none" stroke="#9a32cd" stroke-dasharray="5,2" d="M649.72,-153.28C694.25,-148.83 754.82,-142.77 793.79,-138.87"/>
<polygon fill="#9a32cd" stroke="#9a32cd" points="649.23,-149.81 639.63,-154.29 649.93,-156.77 649.23,-149.81"/>
</a>
</g>
<text text-anchor="middle" x="724.5" y="-153" font-family="Helvetica,sans-Serif" font-size="10.00" fill="grey"> m_endpoint</text>
</g>
<!-- Node7 -->
<g id="Node000007" class="node">
<title>Node7</title>
<g id="a_Node000007"><a xlink:href="../../de/d1b/classlci_1_1endpoint__t.html" target="_top" xlink:title="The actual implementation for RESOURCE endpoint.">
<polygon fill="white" stroke="#666666" points="425.5,-168.5 339.5,-168.5 339.5,-149.5 425.5,-149.5 425.5,-168.5"/>
<text text-anchor="middle" x="382.5" y="-156.5" font-family="Helvetica,sans-Serif" font-size="10.00">lci::endpoint_t</text>
</a>
</g>
</g>
<!-- Node7&#45;&gt;Node6 -->
<g id="edge6_Node000006_Node000007" class="edge">
<title>Node7&#45;&gt;Node6</title>
<g id="a_edge6_Node000006_Node000007"><a xlink:title=" ">
<path fill="none" stroke="#9a32cd" stroke-dasharray="5,2" d="M436.02,-159C469.08,-159 511.38,-159 543.36,-159"/>
<polygon fill="#9a32cd" stroke="#9a32cd" points="435.64,-155.5 425.64,-159 435.64,-162.5 435.64,-155.5"/>
</a>
</g>
<text text-anchor="middle" x="487" y="-162" font-family="Helvetica,sans-Serif" font-size="10.00" fill="grey"> m_value</text>
</g>
<!-- Node8 -->
<g id="Node000008" class="node">
<title>Node8</title>
<g id="a_Node000008"><a xlink:href="../../db/d20/structlci_1_1option__t.html" target="_top" xlink:title=" ">
<polygon fill="white" stroke="#666666" points="655,-126 528,-126 528,-96 655,-96 655,-126"/>
<text text-anchor="start" x="536" y="-114" font-family="Helvetica,sans-Serif" font-size="10.00">lci::option_t&lt; lci</text>
<text text-anchor="middle" x="591.5" y="-103" font-family="Helvetica,sans-Serif" font-size="10.00">::matching_engine_t &gt;</text>
</a>
</g>
</g>
<!-- Node8&#45;&gt;Node1 -->
<g id="edge7_Node000001_Node000008" class="edge">
<title>Node8&#45;&gt;Node1</title>
<g id="a_edge7_Node000001_Node000008"><a xlink:title=" ">
<path fill="none" stroke="#9a32cd" stroke-dasharray="5,2" d="M665.32,-114.89C699.07,-117.12 739.66,-120.41 776,-125 781.83,-125.74 787.98,-126.66 793.98,-127.66"/>
<polygon fill="#9a32cd" stroke="#9a32cd" points="665.28,-111.38 655.08,-114.23 664.83,-118.37 665.28,-111.38"/>
</a>
</g>
<text text-anchor="middle" x="724.5" y="-128" font-family="Helvetica,sans-Serif" font-size="10.00" fill="grey"> m_matching_engine</text>
</g>
<!-- Node9 -->
<g id="Node000009" class="node">
<title>Node9</title>
<g id="a_Node000009"><a xlink:href="../../d8/d3f/classlci_1_1matching__engine__t.html" target="_top" xlink:title="The actual implementation for RESOURCE matching_engine.">
<polygon fill="white" stroke="#666666" points="446,-120.5 319,-120.5 319,-101.5 446,-101.5 446,-120.5"/>
<text text-anchor="middle" x="382.5" y="-108.5" font-family="Helvetica,sans-Serif" font-size="10.00">lci::matching_engine_t</text>
</a>
</g>
</g>
<!-- Node9&#45;&gt;Node8 -->
<g id="edge8_Node000008_Node000009" class="edge">
<title>Node9&#45;&gt;Node8</title>
<g id="a_edge8_Node000008_Node000009"><a xlink:title=" ">
<path fill="none" stroke="#9a32cd" stroke-dasharray="5,2" d="M456.34,-111C479.62,-111 505.18,-111 527.69,-111"/>
<polygon fill="#9a32cd" stroke="#9a32cd" points="456.17,-107.5 446.17,-111 456.17,-114.5 456.17,-107.5"/>
</a>
</g>
<text text-anchor="middle" x="487" y="-114" font-family="Helvetica,sans-Serif" font-size="10.00" fill="grey"> m_value</text>
</g>
<!-- Node10 -->
<g id="Node000010" class="node">
<title>Node10</title>
<g id="a_Node000010"><a xlink:href="../../db/d20/structlci_1_1option__t.html" target="_top" xlink:title=" ">
<polygon fill="white" stroke="#666666" points="639.5,-78 543.5,-78 543.5,-48 639.5,-48 639.5,-78"/>
<text text-anchor="start" x="551.5" y="-66" font-family="Helvetica,sans-Serif" font-size="10.00">lci::option_t&lt; lci</text>
<text text-anchor="middle" x="591.5" y="-55" font-family="Helvetica,sans-Serif" font-size="10.00">::comp_t &gt;</text>
</a>
</g>
</g>
<!-- Node10&#45;&gt;Node1 -->
<g id="edge9_Node000001_Node000010" class="edge">
<title>Node10&#45;&gt;Node1</title>
<g id="a_edge9_Node000001_Node000010"><a xlink:title=" ">
<path fill="none" stroke="#9a32cd" stroke-dasharray="5,2" d="M649.91,-69.24C686.86,-74.54 735.4,-83.93 776,-100 792.09,-106.37 808.73,-117.29 819.74,-125.24"/>
<polygon fill="#9a32cd" stroke="#9a32cd" points="650.2,-65.75 639.81,-67.85 649.24,-72.68 650.2,-65.75"/>
</a>
</g>
<text text-anchor="middle" x="724.5" y="-103" font-family="Helvetica,sans-Serif" font-size="10.00" fill="grey"> m_comp</text>
</g>
<!-- Node11 -->
<g id="Node000011" class="node">
<title>Node11</title>
<g id="a_Node000011"><a xlink:href="../../d1/da7/classlci_1_1comp__t.html" target="_top" xlink:title="The actual implementation for RESOURCE comp.">
<polygon fill="white" stroke="#666666" points="417.5,-72.5 347.5,-72.5 347.5,-53.5 417.5,-53.5 417.5,-72.5"/>
<text text-anchor="middle" x="382.5" y="-60.5" font-family="Helvetica,sans-Serif" font-size="10.00">lci::comp_t</text>
</a>
</g>
</g>
<!-- Node11&#45;&gt;Node10 -->
<g id="edge10_Node000010_Node000011" class="edge">
<title>Node11&#45;&gt;Node10</title>
<g id="a_edge10_Node000010_Node000011"><a xlink:title=" ">
<path fill="none" stroke="#9a32cd" stroke-dasharray="5,2" d="M427.81,-63C461.86,-63 508.78,-63 543.48,-63"/>
<polygon fill="#9a32cd" stroke="#9a32cd" points="427.68,-59.5 417.68,-63 427.68,-66.5 427.68,-59.5"/>
</a>
</g>
<text text-anchor="middle" x="487" y="-66" font-family="Helvetica,sans-Serif" font-size="10.00" fill="grey"> m_value</text>
</g>
<!-- Node12 -->
<g id="Node000012" class="node">
<title>Node12</title>
<g id="a_Node000012"><a xlink:href="../../d9/d97/classlci_1_1comp__impl__t.html" target="_top" xlink:title="Completion object implementation base type.">
<polygon fill="white" stroke="#666666" points="246,-72.5 149,-72.5 149,-53.5 246,-53.5 246,-72.5"/>
<text text-anchor="middle" x="197.5" y="-60.5" font-family="Helvetica,sans-Serif" font-size="10.00">lci::comp_impl_t</text>
</a>
</g>
</g>
<!-- Node12&#45;&gt;Node11 -->
<g id="edge11_Node000011_Node000012" class="edge">
<title>Node12&#45;&gt;Node11</title>
<g id="a_edge11_Node000011_Node000012"><a xlink:title=" ">
<path fill="none" stroke="#9a32cd" stroke-dasharray="5,2" d="M256.44,-63C286.39,-63 321.91,-63 347.42,-63"/>
<polygon fill="#9a32cd" stroke="#9a32cd" points="256.1,-59.5 246.1,-63 256.1,-66.5 256.1,-59.5"/>
</a>
</g>
<text text-anchor="middle" x="282.5" y="-66" font-family="Helvetica,sans-Serif" font-size="10.00" fill="grey"> p_impl</text>
</g>
<!-- Node13 -->
<g id="Node000013" class="node">
<title>Node13</title>
<g id="a_Node000013"><a xlink:href="../../dc/da6/structlci_1_1comp__attr__t.html" target="_top" xlink:title=" ">
<polygon fill="white" stroke="#666666" points="92,-72.5 0,-72.5 0,-53.5 92,-53.5 92,-72.5"/>
<text text-anchor="middle" x="46" y="-60.5" font-family="Helvetica,sans-Serif" font-size="10.00">lci::comp_attr_t</text>
</a>
</g>
</g>
<!-- Node13&#45;&gt;Node12 -->
<g id="edge12_Node000012_Node000013" class="edge">
<title>Node13&#45;&gt;Node12</title>
<g id="a_edge12_Node000012_Node000013"><a xlink:title=" ">
<path fill="none" stroke="#9a32cd" stroke-dasharray="5,2" d="M102.56,-63C117.76,-63 134.09,-63 148.8,-63"/>
<polygon fill="#9a32cd" stroke="#9a32cd" points="102.26,-59.5 92.26,-63 102.26,-66.5 102.26,-59.5"/>
</a>
</g>
<text text-anchor="middle" x="120.5" y="-66" font-family="Helvetica,sans-Serif" font-size="10.00" fill="grey"> attr</text>
</g>
<!-- Node14 -->
<g id="Node000014" class="node">
<title>Node14</title>
<g id="a_Node000014"><a xlink:href="../../db/d20/structlci_1_1option__t.html" target="_top" xlink:title=" ">
<polygon fill="white" stroke="#666666" points="647.5,-30 535.5,-30 535.5,0 647.5,0 647.5,-30"/>
<text text-anchor="start" x="543.5" y="-18" font-family="Helvetica,sans-Serif" font-size="10.00">lci::option_t&lt; comp</text>
<text text-anchor="middle" x="591.5" y="-7" font-family="Helvetica,sans-Serif" font-size="10.00">_semantic_t &gt;</text>
</a>
</g>
</g>
<!-- Node14&#45;&gt;Node1 -->
<g id="edge13_Node000001_Node000014" class="edge">
<title>Node14&#45;&gt;Node1</title>
<g id="a_edge13_Node000001_Node000014"><a xlink:title=" ">
<path fill="none" stroke="#9a32cd" stroke-dasharray="5,2" d="M658.11,-18.69C695.26,-23.42 741.12,-33.92 776,-57 802.36,-74.44 820.59,-108.64 828.33,-125.35"/>
<polygon fill="#9a32cd" stroke="#9a32cd" points="658.22,-15.18 647.88,-17.51 657.41,-22.14 658.22,-15.18"/>
</a>
</g>
<text text-anchor="middle" x="724.5" y="-60" font-family="Helvetica,sans-Serif" font-size="10.00" fill="grey"> m_comp_semantic</text>
</g>
</g>
</svg>
