<?xml version="1.0" encoding="UTF-8" standalone="no"?>
<!DOCTYPE svg PUBLIC "-//W3C//DTD SVG 1.1//EN"
 "http://www.w3.org/Graphics/SVG/1.1/DTD/svg11.dtd">
<!-- Generated by graphviz version 2.43.0 (0)
 -->
<!-- Title: Collective Communication Pages: 1 -->
<svg width="255pt" height="175pt"
 viewBox="0.00 0.00 255.00 175.00" xmlns="http://www.w3.org/2000/svg" xmlns:xlink="http://www.w3.org/1999/xlink">
<g id="graph0" class="graph" transform="scale(1 1) rotate(0) translate(4 171)">
<title>Collective Communication</title>
<!-- Node5 -->
<g id="Node000005" class="node">
<title>Node5</title>
<g id="a_Node000005"><a xlink:href="../../df/d61/group__LCI__ALLGATHER.html" target="_top" xlink:title="An allgather operation.">
<polygon fill="white" stroke="#666666" points="244.5,-167 184.5,-167 184.5,-148 244.5,-148 244.5,-167"/>
<text text-anchor="middle" x="214.5" y="-155" font-family="Helvetica,sans-Serif" font-size="10.00">allgather</text>
</a>
</g>
</g>
<!-- Node6 -->
<g id="Node000006" class="node">
<title>Node6</title>
<g id="a_Node000006"><a xlink:href="../../d8/d98/group__LCI__ALLTOALL.html" target="_top" xlink:title="A blocking alltoall operation.">
<polygon fill="white" stroke="#666666" points="239.5,-130 189.5,-130 189.5,-111 239.5,-111 239.5,-130"/>
<text text-anchor="middle" x="214.5" y="-118" font-family="Helvetica,sans-Serif" font-size="10.00">alltoall</text>
</a>
</g>
</g>
<!-- Node2 -->
<g id="Node000002" class="node">
<title>Node2</title>
<g id="a_Node000002"><a xlink:href="../../da/d73/group__LCI__BARRIER.html" target="_top" xlink:title="A barrier operation.">
<polygon fill="white" stroke="#666666" points="239,-93 190,-93 190,-74 239,-74 239,-93"/>
<text text-anchor="middle" x="214.5" y="-81" font-family="Helvetica,sans-Serif" font-size="10.00">barrier</text>
</a>
</g>
</g>
<!-- Node3 -->
<g id="Node000003" class="node">
<title>Node3</title>
<g id="a_Node000003"><a xlink:href="../../d1/d7a/group__LCI__BROADCAST.html" target="_top" xlink:title="A blocking broadcast operation.">
<polygon fill="white" stroke="#666666" points="247,-56 182,-56 182,-37 247,-37 247,-56"/>
<text text-anchor="middle" x="214.5" y="-44" font-family="Helvetica,sans-Serif" font-size="10.00">broadcast</text>
</a>
</g>
</g>
<!-- Node1 -->
<g id="Node000001" class="node">
<title>Node1</title>
<g id="a_Node000001"><a xlink:title="This section describes the LCI API for collective communication.">
<polygon fill="#999999" stroke="#666666" points="146,-93 0,-93 0,-74 146,-74 146,-93"/>
<text text-anchor="middle" x="73" y="-81" font-family="Helvetica,sans-Serif" font-size="10.00">Collective Communication</text>
</a>
</g>
</g>
<!-- Node1&#45;&gt;Node5 -->
<g id="edge4" class="edge">
<title>Node1&#45;&gt;Node5</title>
<path fill="none" stroke="black" d="M101.1,-97.87C128.83,-112.58 171.15,-135.04 195.17,-147.78"/>
<polygon fill="black" stroke="black" points="102.43,-94.62 91.95,-93.02 99.15,-100.8 102.43,-94.62"/>
</g>
<!-- Node1&#45;&gt;Node6 -->
<g id="edge5" class="edge">
<title>Node1&#45;&gt;Node6</title>
<path fill="none" stroke="black" d="M119.88,-95.67C142.98,-101.79 170.04,-108.97 189.12,-114.03"/>
<polygon fill="black" stroke="black" points="120.49,-92.21 109.92,-93.03 118.69,-98.98 120.49,-92.21"/>
</g>
<!-- Node1&#45;&gt;Node2 -->
<g id="edge1" class="edge">
<title>Node1&#45;&gt;Node2</title>
<path fill="none" stroke="black" d="M156.53,-83.5C168.71,-83.5 180.35,-83.5 189.9,-83.5"/>
<polygon fill="black" stroke="black" points="156.2,-80 146.2,-83.5 156.2,-87 156.2,-80"/>
</g>
<!-- Node1&#45;&gt;Node3 -->
<g id="edge2" class="edge">
<title>Node1&#45;&gt;Node3</title>
<path fill="none" stroke="black" d="M119.65,-71.39C140.04,-65.98 163.57,-59.74 181.97,-54.86"/>
<polygon fill="black" stroke="black" points="118.69,-68.02 109.92,-73.97 120.49,-74.79 118.69,-68.02"/>
</g>
<!-- Node4 -->
<g id="Node000004" class="node">
<title>Node4</title>
<g id="a_Node000004"><a xlink:href="../../dd/dcd/group__LCI__REDUCE.html" target="_top" xlink:title="A blocking reduce operation.">
<polygon fill="white" stroke="#666666" points="239.5,-19 189.5,-19 189.5,0 239.5,0 239.5,-19"/>
<text text-anchor="middle" x="214.5" y="-7" font-family="Helvetica,sans-Serif" font-size="10.00">reduce</text>
</a>
</g>
</g>
<!-- Node1&#45;&gt;Node4 -->
<g id="edge3" class="edge">
<title>Node1&#45;&gt;Node4</title>
<path fill="none" stroke="black" d="M101.1,-69.13C128.83,-54.42 171.15,-31.96 195.17,-19.22"/>
<polygon fill="black" stroke="black" points="99.15,-66.2 91.95,-73.98 102.43,-72.38 99.15,-66.2"/>
</g>
</g>
</svg>
