<?xml version="1.0" encoding="UTF-8" standalone="no"?>
<!DOCTYPE svg PUBLIC "-//W3C//DTD SVG 1.1//EN"
 "http://www.w3.org/Graphics/SVG/1.1/DTD/svg11.dtd">
<!-- Generated by graphviz version 2.43.0 (0)
 -->
<!-- Title: Collective Communication Pages: 1 -->
<svg width="255pt" height="138pt"
 viewBox="0.00 0.00 255.00 138.00" xmlns="http://www.w3.org/2000/svg" xmlns:xlink="http://www.w3.org/1999/xlink">
<g id="graph0" class="graph" transform="scale(1 1) rotate(0) translate(4 134)">
<title>Collective Communication</title>
<!-- Node5 -->
<g id="Node000005" class="node">
<title>Node5</title>
<g id="a_Node000005"><a xlink:href="../../d8/d98/group__LCI__ALLTOALL.html" target="_top" xlink:title="A blocking alltoall operation.">
<polygon fill="white" stroke="#666666" points="239.5,-130 189.5,-130 189.5,-111 239.5,-111 239.5,-130"/>
<text text-anchor="middle" x="214.5" y="-118" font-family="Helvetica,sans-Serif" font-size="10.00">alltoall</text>
</a>
</g>
</g>
<!-- Node2 -->
<g id="Node000002" class="node">
<title>Node2</title>
<g id="a_Node000002"><a xlink:href="../../da/d73/group__LCI__BARRIER.html" target="_top" xlink:title="A barrier operation.">
<polygon fill="white" stroke="#666666" points="239,-93 190,-93 190,-74 239,-74 239,-93"/>
<text text-anchor="middle" x="214.5" y="-81" font-family="Helvetica,sans-Serif" font-size="10.00">barrier</text>
</a>
</g>
</g>
<!-- Node3 -->
<g id="Node000003" class="node">
<title>Node3</title>
<g id="a_Node000003"><a xlink:href="../../d1/d7a/group__LCI__BROADCAST.html" target="_top" xlink:title="A blocking broadcast operation.">
<polygon fill="white" stroke="#666666" points="247,-56 182,-56 182,-37 247,-37 247,-56"/>
<text text-anchor="middle" x="214.5" y="-44" font-family="Helvetica,sans-Serif" font-size="10.00">broadcast</text>
</a>
</g>
</g>
<!-- Node1 -->
<g id="Node000001" class="node">
<title>Node1</title>
<g id="a_Node000001"><a xlink:title="This section describes the LCI API for collective communication.">
<polygon fill="#999999" stroke="#666666" points="146,-74 0,-74 0,-55 146,-55 146,-74"/>
<text text-anchor="middle" x="73" y="-62" font-family="Helvetica,sans-Serif" font-size="10.00">Collective Communication</text>
</a>
</g>
</g>
<!-- Node1&#45;&gt;Node5 -->
<g id="edge4" class="edge">
<title>Node1&#45;&gt;Node5</title>
<path fill="none" stroke="black" d="M107.58,-77.98C132.99,-88.18 167.24,-101.93 189.83,-111"/>
<polygon fill="black" stroke="black" points="108.56,-74.6 97.98,-74.13 105.96,-81.1 108.56,-74.6"/>
</g>
<!-- Node1&#45;&gt;Node2 -->
<g id="edge1" class="edge">
<title>Node1&#45;&gt;Node2</title>
<path fill="none" stroke="black" d="M154.13,-75.41C167.08,-77.18 179.55,-78.88 189.69,-80.26"/>
<polygon fill="black" stroke="black" points="154.54,-71.94 144.16,-74.06 153.59,-78.87 154.54,-71.94"/>
</g>
<!-- Node1&#45;&gt;Node3 -->
<g id="edge2" class="edge">
<title>Node1&#45;&gt;Node3</title>
<path fill="none" stroke="black" d="M156.4,-53.87C165.35,-52.71 174.01,-51.59 181.77,-50.59"/>
<polygon fill="black" stroke="black" points="155.67,-50.43 146.2,-55.18 156.57,-57.38 155.67,-50.43"/>
</g>
<!-- Node4 -->
<g id="Node000004" class="node">
<title>Node4</title>
<g id="a_Node000004"><a xlink:href="../../dd/dcd/group__LCI__REDUCE.html" target="_top" xlink:title="A blocking reduce operation.">
<polygon fill="white" stroke="#666666" points="239.5,-19 189.5,-19 189.5,0 239.5,0 239.5,-19"/>
<text text-anchor="middle" x="214.5" y="-7" font-family="Helvetica,sans-Serif" font-size="10.00">reduce</text>
</a>
</g>
</g>
<!-- Node1&#45;&gt;Node4 -->
<g id="edge3" class="edge">
<title>Node1&#45;&gt;Node4</title>
<path fill="none" stroke="black" d="M107.85,-51.15C133.1,-41.2 166.97,-27.85 189.48,-18.97"/>
<polygon fill="black" stroke="black" points="106.32,-48 98.3,-54.92 108.89,-54.51 106.32,-48"/>
</g>
</g>
</svg>
