<?xml version="1.0" encoding="UTF-8" standalone="no"?>
<!DOCTYPE svg PUBLIC "-//W3C//DTD SVG 1.1//EN"
 "http://www.w3.org/Graphics/SVG/1.1/DTD/svg11.dtd">
<!-- Generated by graphviz version 2.43.0 (0)
 -->
<!-- Title: Collective Communication Pages: 1 -->
<svg width="279pt" height="249pt"
 viewBox="0.00 0.00 279.00 249.00" xmlns="http://www.w3.org/2000/svg" xmlns:xlink="http://www.w3.org/1999/xlink">
<g id="graph0" class="graph" transform="scale(1 1) rotate(0) translate(4 245)">
<title>Collective Communication</title>
<!-- Node7 -->
<g id="Node000007" class="node">
<title>Node7</title>
<g id="a_Node000007"><a xlink:href="../../df/d61/group__LCI__ALLGATHER.html" target="_top" xlink:title="An allgather operation.">
<polygon fill="white" stroke="#666666" points="256.5,-241 196.5,-241 196.5,-222 256.5,-222 256.5,-241"/>
<text text-anchor="middle" x="226.5" y="-229" font-family="Helvetica,sans-Serif" font-size="10.00">allgather</text>
</a>
</g>
</g>
<!-- Node6 -->
<g id="Node000006" class="node">
<title>Node6</title>
<g id="a_Node000006"><a xlink:href="../../d3/df3/group__LCI__ALLREDUCE.html" target="_top" xlink:title="An allreduce operation.">
<polygon fill="white" stroke="#666666" points="257.5,-204 195.5,-204 195.5,-185 257.5,-185 257.5,-204"/>
<text text-anchor="middle" x="226.5" y="-192" font-family="Helvetica,sans-Serif" font-size="10.00">allreduce</text>
</a>
</g>
</g>
<!-- Node8 -->
<g id="Node000008" class="node">
<title>Node8</title>
<g id="a_Node000008"><a xlink:href="../../d8/d98/group__LCI__ALLTOALL.html" target="_top" xlink:title="A blocking alltoall operation.">
<polygon fill="white" stroke="#666666" points="251.5,-167 201.5,-167 201.5,-148 251.5,-148 251.5,-167"/>
<text text-anchor="middle" x="226.5" y="-155" font-family="Helvetica,sans-Serif" font-size="10.00">alltoall</text>
</a>
</g>
</g>
<!-- Node2 -->
<g id="Node000002" class="node">
<title>Node2</title>
<g id="a_Node000002"><a xlink:href="../../da/d73/group__LCI__BARRIER.html" target="_top" xlink:title="A barrier operation.">
<polygon fill="white" stroke="#666666" points="251,-130 202,-130 202,-111 251,-111 251,-130"/>
<text text-anchor="middle" x="226.5" y="-118" font-family="Helvetica,sans-Serif" font-size="10.00">barrier</text>
</a>
</g>
</g>
<!-- Node3 -->
<g id="Node000003" class="node">
<title>Node3</title>
<g id="a_Node000003"><a xlink:href="../../d1/d7a/group__LCI__BROADCAST.html" target="_top" xlink:title="A broadcast operation.">
<polygon fill="white" stroke="#666666" points="259,-93 194,-93 194,-74 259,-74 259,-93"/>
<text text-anchor="middle" x="226.5" y="-81" font-family="Helvetica,sans-Serif" font-size="10.00">broadcast</text>
</a>
</g>
</g>
<!-- Node1 -->
<g id="Node000001" class="node">
<title>Node1</title>
<g id="a_Node000001"><a xlink:title="This section describes the LCI API for collective communication.">
<polygon fill="#999999" stroke="#666666" points="146,-130 0,-130 0,-111 146,-111 146,-130"/>
<text text-anchor="middle" x="73" y="-118" font-family="Helvetica,sans-Serif" font-size="10.00">Collective Communication</text>
</a>
</g>
</g>
<!-- Node1&#45;&gt;Node7 -->
<g id="edge6" class="edge">
<title>Node1&#45;&gt;Node7</title>
<path fill="none" stroke="black" d="M90.11,-137.33C110.14,-157.53 146.09,-191.41 182,-213.5 187.15,-216.67 192.96,-219.51 198.61,-221.95"/>
<polygon fill="black" stroke="black" points="92.51,-134.78 83.01,-130.08 87.5,-139.67 92.51,-134.78"/>
</g>
<!-- Node1&#45;&gt;Node6 -->
<g id="edge5" class="edge">
<title>Node1&#45;&gt;Node6</title>
<path fill="none" stroke="black" d="M100.28,-134.93C121.95,-146.64 153.64,-163.31 182,-176.5 188.23,-179.4 195.05,-182.33 201.41,-184.96"/>
<polygon fill="black" stroke="black" points="101.81,-131.78 91.35,-130.09 98.47,-137.93 101.81,-131.78"/>
</g>
<!-- Node1&#45;&gt;Node8 -->
<g id="edge7" class="edge">
<title>Node1&#45;&gt;Node8</title>
<path fill="none" stroke="black" d="M122.8,-132.42C149.03,-138.82 180.23,-146.44 201.3,-151.59"/>
<polygon fill="black" stroke="black" points="123.56,-129 113.02,-130.03 121.9,-135.8 123.56,-129"/>
</g>
<!-- Node1&#45;&gt;Node2 -->
<g id="edge1" class="edge">
<title>Node1&#45;&gt;Node2</title>
<path fill="none" stroke="black" d="M156.58,-120.5C173.19,-120.5 189.37,-120.5 201.87,-120.5"/>
<polygon fill="black" stroke="black" points="156.2,-117 146.2,-120.5 156.2,-124 156.2,-117"/>
</g>
<!-- Node1&#45;&gt;Node3 -->
<g id="edge2" class="edge">
<title>Node1&#45;&gt;Node3</title>
<path fill="none" stroke="black" d="M123.03,-108.53C146.24,-102.86 173.28,-96.25 193.76,-91.25"/>
<polygon fill="black" stroke="black" points="121.9,-105.2 113.02,-110.97 123.56,-112 121.9,-105.2"/>
</g>
<!-- Node4 -->
<g id="Node000004" class="node">
<title>Node4</title>
<g id="a_Node000004"><a xlink:href="../../dd/dcd/group__LCI__REDUCE.html" target="_top" xlink:title="A blocking reduce operation.">
<polygon fill="white" stroke="#666666" points="251.5,-56 201.5,-56 201.5,-37 251.5,-37 251.5,-56"/>
<text text-anchor="middle" x="226.5" y="-44" font-family="Helvetica,sans-Serif" font-size="10.00">reduce</text>
</a>
</g>
</g>
<!-- Node1&#45;&gt;Node4 -->
<g id="edge3" class="edge">
<title>Node1&#45;&gt;Node4</title>
<path fill="none" stroke="black" d="M101.15,-106.11C122.86,-94.74 154.16,-78.66 182,-65.5 188.71,-62.33 196.07,-59.04 202.81,-56.11"/>
<polygon fill="black" stroke="black" points="99.4,-103.07 92.18,-110.82 102.66,-109.27 99.4,-103.07"/>
</g>
<!-- Node5 -->
<g id="Node000005" class="node">
<title>Node5</title>
<g id="a_Node000005"><a xlink:href="../../d3/d0c/group__LCI__REDUCE__SCATTER.html" target="_top" xlink:title="A reduce scatter operation.">
<polygon fill="white" stroke="#666666" points="271,-19 182,-19 182,0 271,0 271,-19"/>
<text text-anchor="middle" x="226.5" y="-7" font-family="Helvetica,sans-Serif" font-size="10.00">reduce_scatter</text>
</a>
</g>
</g>
<!-- Node1&#45;&gt;Node5 -->
<g id="edge4" class="edge">
<title>Node1&#45;&gt;Node5</title>
<path fill="none" stroke="black" d="M90.53,-103.67C110.73,-83.79 146.6,-50.63 182,-28.5 187.59,-25.01 193.93,-21.84 200.02,-19.14"/>
<polygon fill="black" stroke="black" points="87.96,-101.29 83.36,-110.83 92.91,-106.24 87.96,-101.29"/>
</g>
</g>
</svg>
