<?xml version="1.0" encoding="UTF-8" standalone="no"?>
<!DOCTYPE svg PUBLIC "-//W3C//DTD SVG 1.1//EN"
 "http://www.w3.org/Graphics/SVG/1.1/DTD/svg11.dtd">
<!-- Generated by graphviz version 2.43.0 (0)
 -->
<!-- Title: lci::deregister_rcomp_x::operator() Pages: 1 -->
<svg width="759pt" height="86pt"
 viewBox="0.00 0.00 759.00 86.00" xmlns="http://www.w3.org/2000/svg" xmlns:xlink="http://www.w3.org/1999/xlink">
<g id="graph0" class="graph" transform="scale(1 1) rotate(0) translate(4 82)">
<title>lci::deregister_rcomp_x::operator()</title>
<!-- Node1 -->
<g id="Node000001" class="node">
<title>Node1</title>
<g id="a_Node000001"><a xlink:title=" ">
<polygon fill="#999999" stroke="#666666" points="119,-54 0,-54 0,-24 119,-24 119,-54"/>
<text text-anchor="start" x="8" y="-42" font-family="Helvetica,sans-Serif" font-size="10.00">lci::deregister_rcomp</text>
<text text-anchor="middle" x="59.5" y="-31" font-family="Helvetica,sans-Serif" font-size="10.00">_x::operator()</text>
</a>
</g>
</g>
<!-- Node2 -->
<g id="Node000002" class="node">
<title>Node2</title>
<g id="a_Node000002"><a xlink:href="../../d5/db5/classlci_1_1deregister__rcomp__x.html#a9dc94afa284e3a615708c08ce56e12f4" target="_top" xlink:title=" ">
<polygon fill="white" stroke="#666666" points="274,-54 155,-54 155,-24 274,-24 274,-54"/>
<text text-anchor="start" x="163" y="-42" font-family="Helvetica,sans-Serif" font-size="10.00">lci::deregister_rcomp</text>
<text text-anchor="middle" x="214.5" y="-31" font-family="Helvetica,sans-Serif" font-size="10.00">_x::call</text>
</a>
</g>
</g>
<!-- Node1&#45;&gt;Node2 -->
<g id="edge1_Node000001_Node000002" class="edge">
<title>Node1&#45;&gt;Node2</title>
<g id="a_edge1_Node000001_Node000002"><a xlink:title=" ">
<path fill="none" stroke="#63b8ff" d="M119.22,-39C127.54,-39 136.17,-39 144.67,-39"/>
<polygon fill="#63b8ff" stroke="#63b8ff" points="144.94,-42.5 154.94,-39 144.94,-35.5 144.94,-42.5"/>
</a>
</g>
</g>
<!-- Node3 -->
<g id="Node000003" class="node">
<title>Node3</title>
<g id="a_Node000003"><a xlink:href="../../d5/db5/classlci_1_1deregister__rcomp__x.html#a54eac00f7dcbe39ac1a72d7984a11442" target="_top" xlink:title=" ">
<polygon fill="white" stroke="#666666" points="429,-54 310,-54 310,-24 429,-24 429,-54"/>
<text text-anchor="start" x="318" y="-42" font-family="Helvetica,sans-Serif" font-size="10.00">lci::deregister_rcomp</text>
<text text-anchor="middle" x="369.5" y="-31" font-family="Helvetica,sans-Serif" font-size="10.00">_x::call_impl</text>
</a>
</g>
</g>
<!-- Node2&#45;&gt;Node3 -->
<g id="edge2_Node000002_Node000003" class="edge">
<title>Node2&#45;&gt;Node3</title>
<g id="a_edge2_Node000002_Node000003"><a xlink:title=" ">
<path fill="none" stroke="#63b8ff" d="M274.22,-39C282.54,-39 291.17,-39 299.67,-39"/>
<polygon fill="#63b8ff" stroke="#63b8ff" points="299.94,-42.5 309.94,-39 299.94,-35.5 299.94,-42.5"/>
</a>
</g>
</g>
<!-- Node4 -->
<g id="Node000004" class="node">
<title>Node4</title>
<g id="a_Node000004"><a xlink:href="../../d5/db5/classlci_1_1deregister__rcomp__x.html#aad35f86a01a22c035db59592c5abbe91" target="_top" xlink:title=" ">
<polygon fill="white" stroke="#666666" points="584,-78 465,-78 465,-48 584,-48 584,-78"/>
<text text-anchor="start" x="473" y="-66" font-family="Helvetica,sans-Serif" font-size="10.00">lci::deregister_rcomp</text>
<text text-anchor="middle" x="524.5" y="-55" font-family="Helvetica,sans-Serif" font-size="10.00">_x::rcomp</text>
</a>
</g>
</g>
<!-- Node2&#45;&gt;Node4 -->
<g id="edge7_Node000002_Node000004" class="edge">
<title>Node2&#45;&gt;Node4</title>
<g id="a_edge7_Node000002_Node000004"><a xlink:title=" ">
<path fill="none" stroke="#63b8ff" d="M265.08,-54.05C279.43,-57.74 295.22,-61.15 310,-63 358.08,-69.01 412.73,-68.88 454.7,-67.32"/>
<polygon fill="#63b8ff" stroke="#63b8ff" points="454.96,-70.81 464.81,-66.9 454.67,-63.82 454.96,-70.81"/>
</a>
</g>
</g>
<!-- Node6 -->
<g id="Node000006" class="node">
<title>Node6</title>
<g id="a_Node000006"><a xlink:href="../../d5/db5/classlci_1_1deregister__rcomp__x.html#aefad48edc89c6aacb81a2b6c4e8f3a5b" target="_top" xlink:title=" ">
<polygon fill="white" stroke="#666666" points="584,-30 465,-30 465,0 584,0 584,-30"/>
<text text-anchor="start" x="473" y="-18" font-family="Helvetica,sans-Serif" font-size="10.00">lci::deregister_rcomp</text>
<text text-anchor="middle" x="524.5" y="-7" font-family="Helvetica,sans-Serif" font-size="10.00">_x::runtime</text>
</a>
</g>
</g>
<!-- Node2&#45;&gt;Node6 -->
<g id="edge8_Node000002_Node000006" class="edge">
<title>Node2&#45;&gt;Node6</title>
<g id="a_edge8_Node000002_Node000006"><a xlink:title=" ">
<path fill="none" stroke="#63b8ff" d="M265.08,-23.95C279.43,-20.26 295.22,-16.85 310,-15 358.08,-8.99 412.73,-9.12 454.7,-10.68"/>
<polygon fill="#63b8ff" stroke="#63b8ff" points="454.67,-14.18 464.81,-11.1 454.96,-7.19 454.67,-14.18"/>
</a>
</g>
</g>
<!-- Node3&#45;&gt;Node4 -->
<g id="edge3_Node000003_Node000004" class="edge">
<title>Node3&#45;&gt;Node4</title>
<g id="a_edge3_Node000003_Node000004"><a xlink:title=" ">
<path fill="none" stroke="#63b8ff" d="M429.22,-48.21C437.64,-49.53 446.36,-50.9 454.95,-52.25"/>
<polygon fill="#63b8ff" stroke="#63b8ff" points="454.52,-55.72 464.94,-53.81 455.6,-48.81 454.52,-55.72"/>
</a>
</g>
</g>
<!-- Node3&#45;&gt;Node6 -->
<g id="edge5_Node000003_Node000006" class="edge">
<title>Node3&#45;&gt;Node6</title>
<g id="a_edge5_Node000003_Node000006"><a xlink:title=" ">
<path fill="none" stroke="#63b8ff" d="M429.22,-29.79C437.64,-28.47 446.36,-27.1 454.95,-25.75"/>
<polygon fill="#63b8ff" stroke="#63b8ff" points="455.6,-29.19 464.94,-24.19 454.52,-22.28 455.6,-29.19"/>
</a>
</g>
</g>
<!-- Node5 -->
<g id="Node000005" class="node">
<title>Node5</title>
<g id="a_Node000005"><a xlink:href="../../d5/db5/classlci_1_1deregister__rcomp__x.html#a0e3d6aa3e21e482548ccd35283c569e3" target="_top" xlink:title=" ">
<polygon fill="white" stroke="#666666" points="751,-54 620,-54 620,-24 751,-24 751,-54"/>
<text text-anchor="start" x="628" y="-42" font-family="Helvetica,sans-Serif" font-size="10.00">lci::deregister_rcomp</text>
<text text-anchor="middle" x="685.5" y="-31" font-family="Helvetica,sans-Serif" font-size="10.00">_x::deregister_rcomp_x</text>
</a>
</g>
</g>
<!-- Node4&#45;&gt;Node5 -->
<g id="edge4_Node000004_Node000005" class="edge">
<title>Node4&#45;&gt;Node5</title>
<g id="a_edge4_Node000004_Node000005"><a xlink:title=" ">
<path fill="none" stroke="#63b8ff" d="M584.25,-54.13C592.58,-52.87 601.24,-51.57 609.82,-50.27"/>
<polygon fill="#63b8ff" stroke="#63b8ff" points="610.47,-53.71 619.83,-48.76 609.42,-46.79 610.47,-53.71"/>
</a>
</g>
</g>
<!-- Node6&#45;&gt;Node5 -->
<g id="edge6_Node000006_Node000005" class="edge">
<title>Node6&#45;&gt;Node5</title>
<g id="a_edge6_Node000006_Node000005"><a xlink:title=" ">
<path fill="none" stroke="#63b8ff" d="M584.25,-23.87C592.58,-25.13 601.24,-26.43 609.82,-27.73"/>
<polygon fill="#63b8ff" stroke="#63b8ff" points="609.42,-31.21 619.83,-29.24 610.47,-24.29 609.42,-31.21"/>
</a>
</g>
</g>
</g>
</svg>
