<?xml version="1.0" encoding="UTF-8" standalone="no"?>
<!DOCTYPE svg PUBLIC "-//W3C//DTD SVG 1.1//EN"
 "http://www.w3.org/Graphics/SVG/1.1/DTD/svg11.dtd">
<!-- Generated by graphviz version 2.43.0 (0)
 -->
<!-- Title: lci::deregister_rcomp_x::call Pages: 1 -->
<svg width="604pt" height="86pt"
 viewBox="0.00 0.00 604.00 86.00" xmlns="http://www.w3.org/2000/svg" xmlns:xlink="http://www.w3.org/1999/xlink">
<g id="graph0" class="graph" transform="scale(1 1) rotate(0) translate(4 82)">
<title>lci::deregister_rcomp_x::call</title>
<!-- Node1 -->
<g id="Node000001" class="node">
<title>Node1</title>
<g id="a_Node000001"><a xlink:title=" ">
<polygon fill="#999999" stroke="#666666" points="119,-54 0,-54 0,-24 119,-24 119,-54"/>
<text text-anchor="start" x="8" y="-42" font-family="Helvetica,sans-Serif" font-size="10.00">lci::deregister_rcomp</text>
<text text-anchor="middle" x="59.5" y="-31" font-family="Helvetica,sans-Serif" font-size="10.00">_x::call</text>
</a>
</g>
</g>
<!-- Node2 -->
<g id="Node000002" class="node">
<title>Node2</title>
<g id="a_Node000002"><a xlink:href="../../d5/db5/classlci_1_1deregister__rcomp__x.html#a54eac00f7dcbe39ac1a72d7984a11442" target="_top" xlink:title=" ">
<polygon fill="white" stroke="#666666" points="274,-54 155,-54 155,-24 274,-24 274,-54"/>
<text text-anchor="start" x="163" y="-42" font-family="Helvetica,sans-Serif" font-size="10.00">lci::deregister_rcomp</text>
<text text-anchor="middle" x="214.5" y="-31" font-family="Helvetica,sans-Serif" font-size="10.00">_x::call_impl</text>
</a>
</g>
</g>
<!-- Node1&#45;&gt;Node2 -->
<g id="edge1_Node000001_Node000002" class="edge">
<title>Node1&#45;&gt;Node2</title>
<g id="a_edge1_Node000001_Node000002"><a xlink:title=" ">
<path fill="none" stroke="#63b8ff" d="M119.22,-39C127.54,-39 136.17,-39 144.67,-39"/>
<polygon fill="#63b8ff" stroke="#63b8ff" points="144.94,-42.5 154.94,-39 144.94,-35.5 144.94,-42.5"/>
</a>
</g>
</g>
<!-- Node3 -->
<g id="Node000003" class="node">
<title>Node3</title>
<g id="a_Node000003"><a xlink:href="../../d5/db5/classlci_1_1deregister__rcomp__x.html#aad35f86a01a22c035db59592c5abbe91" target="_top" xlink:title=" ">
<polygon fill="white" stroke="#666666" points="429,-78 310,-78 310,-48 429,-48 429,-78"/>
<text text-anchor="start" x="318" y="-66" font-family="Helvetica,sans-Serif" font-size="10.00">lci::deregister_rcomp</text>
<text text-anchor="middle" x="369.5" y="-55" font-family="Helvetica,sans-Serif" font-size="10.00">_x::rcomp</text>
</a>
</g>
</g>
<!-- Node1&#45;&gt;Node3 -->
<g id="edge6_Node000001_Node000003" class="edge">
<title>Node1&#45;&gt;Node3</title>
<g id="a_edge6_Node000001_Node000003"><a xlink:title=" ">
<path fill="none" stroke="#63b8ff" d="M110.08,-54.05C124.43,-57.74 140.22,-61.15 155,-63 203.08,-69.01 257.73,-68.88 299.7,-67.32"/>
<polygon fill="#63b8ff" stroke="#63b8ff" points="299.96,-70.81 309.81,-66.9 299.67,-63.82 299.96,-70.81"/>
</a>
</g>
</g>
<!-- Node5 -->
<g id="Node000005" class="node">
<title>Node5</title>
<g id="a_Node000005"><a xlink:href="../../d5/db5/classlci_1_1deregister__rcomp__x.html#aefad48edc89c6aacb81a2b6c4e8f3a5b" target="_top" xlink:title=" ">
<polygon fill="white" stroke="#666666" points="429,-30 310,-30 310,0 429,0 429,-30"/>
<text text-anchor="start" x="318" y="-18" font-family="Helvetica,sans-Serif" font-size="10.00">lci::deregister_rcomp</text>
<text text-anchor="middle" x="369.5" y="-7" font-family="Helvetica,sans-Serif" font-size="10.00">_x::runtime</text>
</a>
</g>
</g>
<!-- Node1&#45;&gt;Node5 -->
<g id="edge7_Node000001_Node000005" class="edge">
<title>Node1&#45;&gt;Node5</title>
<g id="a_edge7_Node000001_Node000005"><a xlink:title=" ">
<path fill="none" stroke="#63b8ff" d="M110.08,-23.95C124.43,-20.26 140.22,-16.85 155,-15 203.08,-8.99 257.73,-9.12 299.7,-10.68"/>
<polygon fill="#63b8ff" stroke="#63b8ff" points="299.67,-14.18 309.81,-11.1 299.96,-7.19 299.67,-14.18"/>
</a>
</g>
</g>
<!-- Node2&#45;&gt;Node3 -->
<g id="edge2_Node000002_Node000003" class="edge">
<title>Node2&#45;&gt;Node3</title>
<g id="a_edge2_Node000002_Node000003"><a xlink:title=" ">
<path fill="none" stroke="#63b8ff" d="M274.22,-48.21C282.64,-49.53 291.36,-50.9 299.95,-52.25"/>
<polygon fill="#63b8ff" stroke="#63b8ff" points="299.52,-55.72 309.94,-53.81 300.6,-48.81 299.52,-55.72"/>
</a>
</g>
</g>
<!-- Node2&#45;&gt;Node5 -->
<g id="edge4_Node000002_Node000005" class="edge">
<title>Node2&#45;&gt;Node5</title>
<g id="a_edge4_Node000002_Node000005"><a xlink:title=" ">
<path fill="none" stroke="#63b8ff" d="M274.22,-29.79C282.64,-28.47 291.36,-27.1 299.95,-25.75"/>
<polygon fill="#63b8ff" stroke="#63b8ff" points="300.6,-29.19 309.94,-24.19 299.52,-22.28 300.6,-29.19"/>
</a>
</g>
</g>
<!-- Node4 -->
<g id="Node000004" class="node">
<title>Node4</title>
<g id="a_Node000004"><a xlink:href="../../d5/db5/classlci_1_1deregister__rcomp__x.html#a0e3d6aa3e21e482548ccd35283c569e3" target="_top" xlink:title=" ">
<polygon fill="white" stroke="#666666" points="596,-54 465,-54 465,-24 596,-24 596,-54"/>
<text text-anchor="start" x="473" y="-42" font-family="Helvetica,sans-Serif" font-size="10.00">lci::deregister_rcomp</text>
<text text-anchor="middle" x="530.5" y="-31" font-family="Helvetica,sans-Serif" font-size="10.00">_x::deregister_rcomp_x</text>
</a>
</g>
</g>
<!-- Node3&#45;&gt;Node4 -->
<g id="edge3_Node000003_Node000004" class="edge">
<title>Node3&#45;&gt;Node4</title>
<g id="a_edge3_Node000003_Node000004"><a xlink:title=" ">
<path fill="none" stroke="#63b8ff" d="M429.25,-54.13C437.58,-52.87 446.24,-51.57 454.82,-50.27"/>
<polygon fill="#63b8ff" stroke="#63b8ff" points="455.47,-53.71 464.83,-48.76 454.42,-46.79 455.47,-53.71"/>
</a>
</g>
</g>
<!-- Node5&#45;&gt;Node4 -->
<g id="edge5_Node000005_Node000004" class="edge">
<title>Node5&#45;&gt;Node4</title>
<g id="a_edge5_Node000005_Node000004"><a xlink:title=" ">
<path fill="none" stroke="#63b8ff" d="M429.25,-23.87C437.58,-25.13 446.24,-26.43 454.82,-27.73"/>
<polygon fill="#63b8ff" stroke="#63b8ff" points="454.42,-31.21 464.83,-29.24 455.47,-24.29 454.42,-31.21"/>
</a>
</g>
</g>
</g>
</svg>
