<?xml version="1.0" encoding="UTF-8" standalone="no"?>
<!DOCTYPE svg PUBLIC "-//W3C//DTD SVG 1.1//EN"
 "http://www.w3.org/Graphics/SVG/1.1/DTD/svg11.dtd">
<!-- Generated by graphviz version 2.43.0 (0)
 -->
<!-- Title: lci::free_comp_x::runtime Pages: 1 -->
<svg width="676pt" height="65pt"
 viewBox="0.00 0.00 676.00 65.00" xmlns="http://www.w3.org/2000/svg" xmlns:xlink="http://www.w3.org/1999/xlink">
<g id="graph0" class="graph" transform="scale(1 1) rotate(0) translate(4 61)">
<title>lci::free_comp_x::runtime</title>
<!-- Node1 -->
<g id="Node000001" class="node">
<title>Node1</title>
<g id="a_Node000001"><a xlink:title=" ">
<polygon fill="#999999" stroke="#666666" points="668,-38 527,-38 527,-19 668,-19 668,-38"/>
<text text-anchor="middle" x="597.5" y="-26" font-family="Helvetica,sans-Serif" font-size="10.00">lci::free_comp_x::runtime</text>
</a>
</g>
</g>
<!-- Node2 -->
<g id="Node000002" class="node">
<title>Node2</title>
<g id="a_Node000002"><a xlink:href="../../dd/de2/classlci_1_1free__comp__x.html#a5e4da1b1fd991c0e68c49d80f6f946ec" target="_top" xlink:title=" ">
<polygon fill="white" stroke="#666666" points="308,-38 188,-38 188,-19 308,-19 308,-38"/>
<text text-anchor="middle" x="248" y="-26" font-family="Helvetica,sans-Serif" font-size="10.00">lci::free_comp_x::call</text>
</a>
</g>
</g>
<!-- Node1&#45;&gt;Node2 -->
<g id="edge1_Node000001_Node000002" class="edge">
<title>Node1&#45;&gt;Node2</title>
<g id="a_edge1_Node000001_Node000002"><a xlink:title=" ">
<path fill="none" stroke="#63b8ff" d="M516.21,-28.5C452.67,-28.5 365.38,-28.5 308.1,-28.5"/>
<polygon fill="#63b8ff" stroke="#63b8ff" points="516.6,-32 526.6,-28.5 516.6,-25 516.6,-32"/>
</a>
</g>
</g>
<!-- Node5 -->
<g id="Node000005" class="node">
<title>Node5</title>
<g id="a_Node000005"><a xlink:href="../../dd/de2/classlci_1_1free__comp__x.html#acae44fd35f3f58febe545b78d41c5a5a" target="_top" xlink:title=" ">
<polygon fill="white" stroke="#666666" points="491,-19 344,-19 344,0 491,0 491,-19"/>
<text text-anchor="middle" x="417.5" y="-7" font-family="Helvetica,sans-Serif" font-size="10.00">lci::free_comp_x::call_impl</text>
</a>
</g>
</g>
<!-- Node1&#45;&gt;Node5 -->
<g id="edge4_Node000001_Node000005" class="edge">
<title>Node1&#45;&gt;Node5</title>
<g id="a_edge4_Node000001_Node000005"><a xlink:title=" ">
<path fill="none" stroke="#63b8ff" d="M516.95,-20.01C508.4,-19.1 499.73,-18.17 491.26,-17.27"/>
<polygon fill="#63b8ff" stroke="#63b8ff" points="516.6,-23.49 526.92,-21.07 517.34,-16.53 516.6,-23.49"/>
</a>
</g>
</g>
<!-- Node3 -->
<g id="Node000003" class="node">
<title>Node3</title>
<g id="a_Node000003"><a xlink:href="../../d5/dd3/namespacelci.html#a820947e1c3c281fa0510e66d5532a43c" target="_top" xlink:title=" ">
<polygon fill="white" stroke="#666666" points="119,-57 33,-57 33,-38 119,-38 119,-57"/>
<text text-anchor="middle" x="76" y="-45" font-family="Helvetica,sans-Serif" font-size="10.00">lci::free_comp</text>
</a>
</g>
</g>
<!-- Node2&#45;&gt;Node3 -->
<g id="edge2_Node000002_Node000003" class="edge">
<title>Node2&#45;&gt;Node3</title>
<g id="a_edge2_Node000002_Node000003"><a xlink:title=" ">
<path fill="none" stroke="#63b8ff" d="M177.6,-36.26C157.74,-38.48 136.71,-40.83 119.04,-42.8"/>
<polygon fill="#63b8ff" stroke="#63b8ff" points="177.99,-39.73 187.54,-35.15 177.22,-32.78 177.99,-39.73"/>
</a>
</g>
</g>
<!-- Node4 -->
<g id="Node000004" class="node">
<title>Node4</title>
<g id="a_Node000004"><a xlink:href="../../dd/de2/classlci_1_1free__comp__x.html#abc2e1bd8958864a50c63e5f717eeabd0" target="_top" xlink:title=" ">
<polygon fill="white" stroke="#666666" points="152,-20 0,-20 0,-1 152,-1 152,-20"/>
<text text-anchor="middle" x="76" y="-8" font-family="Helvetica,sans-Serif" font-size="10.00">lci::free_comp_x::operator()</text>
</a>
</g>
</g>
<!-- Node2&#45;&gt;Node4 -->
<g id="edge3_Node000002_Node000004" class="edge">
<title>Node2&#45;&gt;Node4</title>
<g id="a_edge3_Node000002_Node000004"><a xlink:title=" ">
<path fill="none" stroke="#63b8ff" d="M177.51,-21.14C169.19,-20.26 160.66,-19.36 152.26,-18.47"/>
<polygon fill="#63b8ff" stroke="#63b8ff" points="177.23,-24.63 187.54,-22.2 177.97,-17.67 177.23,-24.63"/>
</a>
</g>
</g>
<!-- Node5&#45;&gt;Node2 -->
<g id="edge5_Node000005_Node000002" class="edge">
<title>Node5&#45;&gt;Node2</title>
<g id="a_edge5_Node000005_Node000002"><a xlink:title=" ">
<path fill="none" stroke="#63b8ff" d="M333.5,-18.91C324.95,-19.88 316.39,-20.86 308.17,-21.79"/>
<polygon fill="#63b8ff" stroke="#63b8ff" points="333.98,-22.38 343.52,-17.78 333.19,-15.43 333.98,-22.38"/>
</a>
</g>
</g>
</g>
</svg>
