<?xml version="1.0" encoding="UTF-8" standalone="no"?>
<!DOCTYPE svg PUBLIC "-//W3C//DTD SVG 1.1//EN"
 "http://www.w3.org/Graphics/SVG/1.1/DTD/svg11.dtd">
<!-- Generated by graphviz version 2.43.0 (0)
 -->
<!-- Title: lci::free_comp_x::call_impl Pages: 1 -->
<svg width="499pt" height="64pt"
 viewBox="0.00 0.00 499.00 64.00" xmlns="http://www.w3.org/2000/svg" xmlns:xlink="http://www.w3.org/1999/xlink">
<g id="graph0" class="graph" transform="scale(1 1) rotate(0) translate(4 60)">
<title>lci::free_comp_x::call_impl</title>
<!-- Node1 -->
<g id="Node000001" class="node">
<title>Node1</title>
<g id="a_Node000001"><a xlink:title=" ">
<polygon fill="#999999" stroke="#666666" points="491,-37 344,-37 344,-18 491,-18 491,-37"/>
<text text-anchor="middle" x="417.5" y="-25" font-family="Helvetica,sans-Serif" font-size="10.00">lci::free_comp_x::call_impl</text>
</a>
</g>
</g>
<!-- Node2 -->
<g id="Node000002" class="node">
<title>Node2</title>
<g id="a_Node000002"><a xlink:href="../../dd/de2/classlci_1_1free__comp__x.html#a5e4da1b1fd991c0e68c49d80f6f946ec" target="_top" xlink:title=" ">
<polygon fill="white" stroke="#666666" points="308,-37 188,-37 188,-18 308,-18 308,-37"/>
<text text-anchor="middle" x="248" y="-25" font-family="Helvetica,sans-Serif" font-size="10.00">lci::free_comp_x::call</text>
</a>
</g>
</g>
<!-- Node1&#45;&gt;Node2 -->
<g id="edge1_Node000001_Node000002" class="edge">
<title>Node1&#45;&gt;Node2</title>
<g id="a_edge1_Node000001_Node000002"><a xlink:title=" ">
<path fill="none" stroke="#63b8ff" d="M333.5,-27.5C324.95,-27.5 316.39,-27.5 308.17,-27.5"/>
<polygon fill="#63b8ff" stroke="#63b8ff" points="333.52,-31 343.52,-27.5 333.52,-24 333.52,-31"/>
</a>
</g>
</g>
<!-- Node3 -->
<g id="Node000003" class="node">
<title>Node3</title>
<g id="a_Node000003"><a xlink:href="../../d5/dd3/namespacelci.html#a820947e1c3c281fa0510e66d5532a43c" target="_top" xlink:title=" ">
<polygon fill="white" stroke="#666666" points="119,-56 33,-56 33,-37 119,-37 119,-56"/>
<text text-anchor="middle" x="76" y="-44" font-family="Helvetica,sans-Serif" font-size="10.00">lci::free_comp</text>
</a>
</g>
</g>
<!-- Node2&#45;&gt;Node3 -->
<g id="edge2_Node000002_Node000003" class="edge">
<title>Node2&#45;&gt;Node3</title>
<g id="a_edge2_Node000002_Node000003"><a xlink:title=" ">
<path fill="none" stroke="#63b8ff" d="M177.6,-35.26C157.74,-37.48 136.71,-39.83 119.04,-41.8"/>
<polygon fill="#63b8ff" stroke="#63b8ff" points="177.99,-38.73 187.54,-34.15 177.22,-31.78 177.99,-38.73"/>
</a>
</g>
</g>
<!-- Node4 -->
<g id="Node000004" class="node">
<title>Node4</title>
<g id="a_Node000004"><a xlink:href="../../dd/de2/classlci_1_1free__comp__x.html#abc2e1bd8958864a50c63e5f717eeabd0" target="_top" xlink:title=" ">
<polygon fill="white" stroke="#666666" points="152,-19 0,-19 0,0 152,0 152,-19"/>
<text text-anchor="middle" x="76" y="-7" font-family="Helvetica,sans-Serif" font-size="10.00">lci::free_comp_x::operator()</text>
</a>
</g>
</g>
<!-- Node2&#45;&gt;Node4 -->
<g id="edge3_Node000002_Node000004" class="edge">
<title>Node2&#45;&gt;Node4</title>
<g id="a_edge3_Node000002_Node000004"><a xlink:title=" ">
<path fill="none" stroke="#63b8ff" d="M177.51,-20.14C169.19,-19.26 160.66,-18.36 152.26,-17.47"/>
<polygon fill="#63b8ff" stroke="#63b8ff" points="177.23,-23.63 187.54,-21.2 177.97,-16.67 177.23,-23.63"/>
</a>
</g>
</g>
</g>
</svg>
