<?xml version="1.0" encoding="UTF-8" standalone="no"?>
<!DOCTYPE svg PUBLIC "-//W3C//DTD SVG 1.1//EN"
 "http://www.w3.org/Graphics/SVG/1.1/DTD/svg11.dtd">
<!-- Generated by graphviz version 2.43.0 (0)
 -->
<!-- Title: lci::get_default_device_x::runtime Pages: 1 -->
<svg width="624pt" height="76pt"
 viewBox="0.00 0.00 624.00 75.50" xmlns="http://www.w3.org/2000/svg" xmlns:xlink="http://www.w3.org/1999/xlink">
<g id="graph0" class="graph" transform="scale(1 1) rotate(0) translate(4 71.5)">
<title>lci::get_default_device_x::runtime</title>
<!-- Node1 -->
<g id="Node000001" class="node">
<title>Node1</title>
<g id="a_Node000001"><a xlink:title=" ">
<polygon fill="#999999" stroke="#666666" points="616,-51 489,-51 489,-21 616,-21 616,-51"/>
<text text-anchor="start" x="497" y="-39" font-family="Helvetica,sans-Serif" font-size="10.00">lci::get_default_device</text>
<text text-anchor="middle" x="552.5" y="-28" font-family="Helvetica,sans-Serif" font-size="10.00">_x::runtime</text>
</a>
</g>
</g>
<!-- Node2 -->
<g id="Node000002" class="node">
<title>Node2</title>
<g id="a_Node000002"><a xlink:href="../../dd/de8/classlci_1_1get__default__device__x.html#a7984aed6475406b4d40d19f510f3972d" target="_top" xlink:title=" ">
<polygon fill="white" stroke="#666666" points="290,-51 163,-51 163,-21 290,-21 290,-51"/>
<text text-anchor="start" x="171" y="-39" font-family="Helvetica,sans-Serif" font-size="10.00">lci::get_default_device</text>
<text text-anchor="middle" x="226.5" y="-28" font-family="Helvetica,sans-Serif" font-size="10.00">_x::call</text>
</a>
</g>
</g>
<!-- Node1&#45;&gt;Node2 -->
<g id="edge1_Node000001_Node000002" class="edge">
<title>Node1&#45;&gt;Node2</title>
<g id="a_edge1_Node000001_Node000002"><a xlink:title=" ">
<path fill="none" stroke="#63b8ff" d="M478.82,-38.46C470.12,-38.68 461.36,-38.87 453,-39 396.56,-39.86 382.44,-39.86 326,-39 314.37,-38.82 301.96,-38.53 290.02,-38.19"/>
<polygon fill="#63b8ff" stroke="#63b8ff" points="479.08,-41.96 488.98,-38.19 478.89,-34.96 479.08,-41.96"/>
</a>
</g>
</g>
<!-- Node5 -->
<g id="Node000005" class="node">
<title>Node5</title>
<g id="a_Node000005"><a xlink:href="../../dd/de8/classlci_1_1get__default__device__x.html#a010bb390d5cb368e07942eaade4e80e6" target="_top" xlink:title=" ">
<polygon fill="white" stroke="#666666" points="453,-30 326,-30 326,0 453,0 453,-30"/>
<text text-anchor="start" x="334" y="-18" font-family="Helvetica,sans-Serif" font-size="10.00">lci::get_default_device</text>
<text text-anchor="middle" x="389.5" y="-7" font-family="Helvetica,sans-Serif" font-size="10.00">_x::call_impl</text>
</a>
</g>
</g>
<!-- Node1&#45;&gt;Node5 -->
<g id="edge4_Node000001_Node000005" class="edge">
<title>Node1&#45;&gt;Node5</title>
<g id="a_edge4_Node000001_Node000005"><a xlink:title=" ">
<path fill="none" stroke="#63b8ff" d="M478.78,-26.51C470.19,-25.39 461.47,-24.26 453.04,-23.16"/>
<polygon fill="#63b8ff" stroke="#63b8ff" points="478.42,-30 488.79,-27.82 479.33,-23.06 478.42,-30"/>
</a>
</g>
</g>
<!-- Node3 -->
<g id="Node000003" class="node">
<title>Node3</title>
<g id="a_Node000003"><a xlink:href="../../d5/dd3/namespacelci.html#adbad6069e8aef4d1205512210fedb704" target="_top" xlink:title=" ">
<polygon fill="white" stroke="#666666" points="127,-67.5 0,-67.5 0,-48.5 127,-48.5 127,-67.5"/>
<text text-anchor="middle" x="63.5" y="-55.5" font-family="Helvetica,sans-Serif" font-size="10.00">lci::get_default_device</text>
</a>
</g>
</g>
<!-- Node2&#45;&gt;Node3 -->
<g id="edge2_Node000002_Node000003" class="edge">
<title>Node2&#45;&gt;Node3</title>
<g id="a_edge2_Node000002_Node000003"><a xlink:title=" ">
<path fill="none" stroke="#63b8ff" d="M152.78,-45.94C144.19,-47.11 135.47,-48.3 127.04,-49.45"/>
<polygon fill="#63b8ff" stroke="#63b8ff" points="153.36,-49.39 162.79,-44.57 152.41,-42.45 153.36,-49.39"/>
</a>
</g>
</g>
<!-- Node4 -->
<g id="Node000004" class="node">
<title>Node4</title>
<g id="a_Node000004"><a xlink:href="../../dd/de8/classlci_1_1get__default__device__x.html#af2ce9d4f375b35f0989a2eff7e79f785" target="_top" xlink:title=" ">
<polygon fill="white" stroke="#666666" points="127,-30 0,-30 0,0 127,0 127,-30"/>
<text text-anchor="start" x="8" y="-18" font-family="Helvetica,sans-Serif" font-size="10.00">lci::get_default_device</text>
<text text-anchor="middle" x="63.5" y="-7" font-family="Helvetica,sans-Serif" font-size="10.00">_x::operator()</text>
</a>
</g>
</g>
<!-- Node2&#45;&gt;Node4 -->
<g id="edge3_Node000002_Node000004" class="edge">
<title>Node2&#45;&gt;Node4</title>
<g id="a_edge3_Node000002_Node000004"><a xlink:title=" ">
<path fill="none" stroke="#63b8ff" d="M152.78,-26.51C144.19,-25.39 135.47,-24.26 127.04,-23.16"/>
<polygon fill="#63b8ff" stroke="#63b8ff" points="152.42,-30 162.79,-27.82 153.33,-23.06 152.42,-30"/>
</a>
</g>
</g>
<!-- Node5&#45;&gt;Node2 -->
<g id="edge5_Node000005_Node000002" class="edge">
<title>Node5&#45;&gt;Node2</title>
<g id="a_edge5_Node000005_Node000002"><a xlink:title=" ">
<path fill="none" stroke="#63b8ff" d="M315.78,-24.49C307.19,-25.61 298.47,-26.74 290.04,-27.84"/>
<polygon fill="#63b8ff" stroke="#63b8ff" points="316.33,-27.94 325.79,-23.18 315.42,-21 316.33,-27.94"/>
</a>
</g>
</g>
</g>
</svg>
