<?xml version="1.0" encoding="UTF-8" standalone="no"?>
<!DOCTYPE svg PUBLIC "-//W3C//DTD SVG 1.1//EN"
 "http://www.w3.org/Graphics/SVG/1.1/DTD/svg11.dtd">
<!-- Generated by graphviz version 2.43.0 (0)
 -->
<!-- Title: Completion Checking Pages: 1 -->
<svg width="320pt" height="767pt"
 viewBox="0.00 0.00 320.00 767.00" xmlns="http://www.w3.org/2000/svg" xmlns:xlink="http://www.w3.org/1999/xlink">
<g id="graph0" class="graph" transform="scale(1 1) rotate(0) translate(4 763)">
<title>Completion Checking</title>
<!-- Node10 -->
<g id="Node000010" class="node">
<title>Node10</title>
<g id="a_Node000010"><a xlink:href="../../da/d43/group__LCI__ALLOC__COUNTER.html" target="_top" xlink:title="Allocate a counter (initialized to 0).">
<polygon fill="white" stroke="#666666" points="275.5,-759 193.5,-759 193.5,-740 275.5,-740 275.5,-759"/>
<text text-anchor="middle" x="234.5" y="-747" font-family="Helvetica,sans-Serif" font-size="10.00">alloc_counter</text>
</a>
</g>
</g>
<!-- Node13 -->
<g id="Node000013" class="node">
<title>Node13</title>
<g id="a_Node000013"><a xlink:href="../../d1/d60/group__LCI__ALLOC__CQ.html" target="_top" xlink:title="Allocate a completion queue.">
<polygon fill="white" stroke="#666666" points="262.5,-722 206.5,-722 206.5,-703 262.5,-703 262.5,-722"/>
<text text-anchor="middle" x="234.5" y="-710" font-family="Helvetica,sans-Serif" font-size="10.00">alloc_cq</text>
</a>
</g>
</g>
<!-- Node16 -->
<g id="Node000016" class="node">
<title>Node16</title>
<g id="a_Node000016"><a xlink:href="../../d1/d0f/group__LCI__ALLOC__GRAPH.html" target="_top" xlink:title="Allocate a completion handler.">
<polygon fill="white" stroke="#666666" points="271,-685 198,-685 198,-666 271,-666 271,-685"/>
<text text-anchor="middle" x="234.5" y="-673" font-family="Helvetica,sans-Serif" font-size="10.00">alloc_graph</text>
</a>
</g>
</g>
<!-- Node15 -->
<g id="Node000015" class="node">
<title>Node15</title>
<g id="a_Node000015"><a xlink:href="../../dc/d46/group__LCI__ALLOC__HANDLER.html" target="_top" xlink:title="Allocate a completion handler.">
<polygon fill="white" stroke="#666666" points="275.5,-648 193.5,-648 193.5,-629 275.5,-629 275.5,-648"/>
<text text-anchor="middle" x="234.5" y="-636" font-family="Helvetica,sans-Serif" font-size="10.00">alloc_handler</text>
</a>
</g>
</g>
<!-- Node7 -->
<g id="Node000007" class="node">
<title>Node7</title>
<g id="a_Node000007"><a xlink:href="../../d4/dbb/group__LCI__ALLOC__SYNC.html" target="_top" xlink:title="Allocate a synchronizer.">
<polygon fill="white" stroke="#666666" points="268.5,-611 200.5,-611 200.5,-592 268.5,-592 268.5,-611"/>
<text text-anchor="middle" x="234.5" y="-599" font-family="Helvetica,sans-Serif" font-size="10.00">alloc_sync</text>
</a>
</g>
</g>
<!-- Node22 -->
<g id="Node000022" class="node">
<title>Node22</title>
<g id="a_Node000022"><a xlink:href="../../d4/d7a/group__LCI__COMP.html" target="_top" xlink:title="The completion object resource.">
<polygon fill="white" stroke="#666666" points="284.5,-574 184.5,-574 184.5,-555 284.5,-555 284.5,-574"/>
<text text-anchor="middle" x="234.5" y="-562" font-family="Helvetica,sans-Serif" font-size="10.00">RESOURCE comp</text>
</a>
</g>
</g>
<!-- Node1 -->
<g id="Node000001" class="node">
<title>Node1</title>
<g id="a_Node000001"><a xlink:title="This section describes the LCI API for checking the completion status of posted communications.">
<polygon fill="#999999" stroke="#666666" points="121,-389 0,-389 0,-370 121,-370 121,-389"/>
<text text-anchor="middle" x="60.5" y="-377" font-family="Helvetica,sans-Serif" font-size="10.00">Completion Checking</text>
</a>
</g>
</g>
<!-- Node1&#45;&gt;Node10 -->
<g id="edge9" class="edge">
<title>Node1&#45;&gt;Node10</title>
<path fill="none" stroke="black" d="M64.16,-399.11C73.65,-466.04 107.83,-683.97 157,-731.5 166.71,-740.89 180.35,-745.71 193.43,-748.09"/>
<polygon fill="black" stroke="black" points="67.61,-398.5 62.77,-389.07 60.68,-399.46 67.61,-398.5"/>
</g>
<!-- Node1&#45;&gt;Node13 -->
<g id="edge12" class="edge">
<title>Node1&#45;&gt;Node13</title>
<path fill="none" stroke="black" d="M61.17,-399.46C61.4,-455.05 70.06,-612.89 157,-694.5 170.13,-706.83 190.06,-711.23 206.29,-712.6"/>
<polygon fill="black" stroke="black" points="64.67,-399.23 61.22,-389.22 57.67,-399.2 64.67,-399.23"/>
</g>
<!-- Node1&#45;&gt;Node16 -->
<g id="edge15" class="edge">
<title>Node1&#45;&gt;Node16</title>
<path fill="none" stroke="black" d="M62.09,-399.15C64.72,-450.03 79.08,-586.99 157,-657.5 168.03,-667.48 183.53,-672.22 197.7,-674.38"/>
<polygon fill="black" stroke="black" points="65.58,-399 61.67,-389.15 58.59,-399.29 65.58,-399"/>
</g>
<!-- Node1&#45;&gt;Node15 -->
<g id="edge14" class="edge">
<title>Node1&#45;&gt;Node15</title>
<path fill="none" stroke="black" d="M63.28,-399.29C68.53,-445.51 88.23,-561.11 157,-620.5 167.02,-629.15 180.43,-633.83 193.22,-636.3"/>
<polygon fill="black" stroke="black" points="66.74,-398.7 62.23,-389.11 59.77,-399.42 66.74,-398.7"/>
</g>
<!-- Node1&#45;&gt;Node7 -->
<g id="edge6" class="edge">
<title>Node1&#45;&gt;Node7</title>
<path fill="none" stroke="black" d="M64.86,-399.31C72.9,-440.37 97.21,-534.95 157,-583.5 169.07,-593.3 185.57,-597.95 200.14,-600.08"/>
<polygon fill="black" stroke="black" points="68.29,-398.65 63.04,-389.44 61.41,-399.91 68.29,-398.65"/>
</g>
<!-- Node1&#45;&gt;Node22 -->
<g id="edge21" class="edge">
<title>Node1&#45;&gt;Node22</title>
<path fill="none" stroke="black" d="M67.06,-399.29C78.06,-434.63 106.04,-508.46 157,-546.5 164.98,-552.46 174.63,-556.48 184.35,-559.19"/>
<polygon fill="black" stroke="black" points="70.28,-397.85 64.08,-389.26 63.57,-399.84 70.28,-397.85"/>
</g>
<!-- Node3 -->
<g id="Node000003" class="node">
<title>Node3</title>
<g id="a_Node000003"><a xlink:href="../../d9/df4/group__LCI__COMP__SIGNAL.html" target="_top" xlink:title="Signal a completion object.">
<polygon fill="white" stroke="#666666" points="273.5,-537 195.5,-537 195.5,-518 273.5,-518 273.5,-537"/>
<text text-anchor="middle" x="234.5" y="-525" font-family="Helvetica,sans-Serif" font-size="10.00">comp_signal</text>
</a>
</g>
</g>
<!-- Node1&#45;&gt;Node3 -->
<g id="edge2" class="edge">
<title>Node1&#45;&gt;Node3</title>
<path fill="none" stroke="black" d="M70.04,-398.49C83.96,-427.2 114.35,-481.3 157,-509.5 168.27,-516.95 182.26,-521.33 195.19,-523.9"/>
<polygon fill="black" stroke="black" points="73.07,-396.72 65.66,-389.15 66.73,-399.69 73.07,-396.72"/>
</g>
<!-- Node11 -->
<g id="Node000011" class="node">
<title>Node11</title>
<g id="a_Node000011"><a xlink:href="../../d2/dd8/group__LCI__COUNTER__GET.html" target="_top" xlink:title="Get the current value of a counter.">
<polygon fill="white" stroke="#666666" points="271.5,-500 197.5,-500 197.5,-481 271.5,-481 271.5,-500"/>
<text text-anchor="middle" x="234.5" y="-488" font-family="Helvetica,sans-Serif" font-size="10.00">counter_get</text>
</a>
</g>
</g>
<!-- Node1&#45;&gt;Node11 -->
<g id="edge10" class="edge">
<title>Node1&#45;&gt;Node11</title>
<path fill="none" stroke="black" d="M74.73,-397.3C91.48,-418.52 122.38,-453.51 157,-472.5 169.32,-479.26 184.11,-483.49 197.39,-486.14"/>
<polygon fill="black" stroke="black" points="77.32,-394.92 68.44,-389.13 71.77,-399.19 77.32,-394.92"/>
</g>
<!-- Node12 -->
<g id="Node000012" class="node">
<title>Node12</title>
<g id="a_Node000012"><a xlink:href="../../d4/dff/group__LCI__COUNTER__SET.html" target="_top" xlink:title="Set the value of a counter.">
<polygon fill="white" stroke="#666666" points="271.5,-463 197.5,-463 197.5,-444 271.5,-444 271.5,-463"/>
<text text-anchor="middle" x="234.5" y="-451" font-family="Helvetica,sans-Serif" font-size="10.00">counter_set</text>
</a>
</g>
</g>
<!-- Node1&#45;&gt;Node12 -->
<g id="edge11" class="edge">
<title>Node1&#45;&gt;Node12</title>
<path fill="none" stroke="black" d="M83.15,-394.74C101.9,-407.31 130.16,-424.76 157,-435.5 169.79,-440.62 184.4,-444.5 197.4,-447.33"/>
<polygon fill="black" stroke="black" points="84.99,-391.76 74.75,-389.02 81.04,-397.54 84.99,-391.76"/>
</g>
<!-- Node14 -->
<g id="Node000014" class="node">
<title>Node14</title>
<g id="a_Node000014"><a xlink:href="../../d5/d28/group__LCI__CQ__POP.html" target="_top" xlink:title="Pop a status from a completion queue.">
<polygon fill="white" stroke="#666666" points="260,-426 209,-426 209,-407 260,-407 260,-426"/>
<text text-anchor="middle" x="234.5" y="-414" font-family="Helvetica,sans-Serif" font-size="10.00">cq_pop</text>
</a>
</g>
</g>
<!-- Node1&#45;&gt;Node14 -->
<g id="edge13" class="edge">
<title>Node1&#45;&gt;Node14</title>
<path fill="none" stroke="black" d="M115.64,-391.15C146.73,-397.83 184.29,-405.91 208.52,-411.13"/>
<polygon fill="black" stroke="black" points="116.31,-387.71 105.79,-389.03 114.83,-394.55 116.31,-387.71"/>
</g>
<!-- Node6 -->
<g id="Node000006" class="node">
<title>Node6</title>
<g id="a_Node000006"><a xlink:href="../../dd/d49/group__LCI__DEREGISTER__RCOMP.html" target="_top" xlink:title="Deregister a remote completion handler.">
<polygon fill="white" stroke="#666666" points="285.5,-389 183.5,-389 183.5,-370 285.5,-370 285.5,-389"/>
<text text-anchor="middle" x="234.5" y="-377" font-family="Helvetica,sans-Serif" font-size="10.00">deregister_rcomp</text>
</a>
</g>
</g>
<!-- Node1&#45;&gt;Node6 -->
<g id="edge5" class="edge">
<title>Node1&#45;&gt;Node6</title>
<path fill="none" stroke="black" d="M131.31,-379.5C148.74,-379.5 167.09,-379.5 183.35,-379.5"/>
<polygon fill="black" stroke="black" points="131.17,-376 121.17,-379.5 131.17,-383 131.17,-376"/>
</g>
<!-- Node2 -->
<g id="Node000002" class="node">
<title>Node2</title>
<g id="a_Node000002"><a xlink:href="../../d5/ddb/group__LCI__FREE__COMP.html" target="_top" xlink:title="Free a new comp object.">
<polygon fill="white" stroke="#666666" points="268.5,-352 200.5,-352 200.5,-333 268.5,-333 268.5,-352"/>
<text text-anchor="middle" x="234.5" y="-340" font-family="Helvetica,sans-Serif" font-size="10.00">free_comp</text>
</a>
</g>
</g>
<!-- Node1&#45;&gt;Node2 -->
<g id="edge1" class="edge">
<title>Node1&#45;&gt;Node2</title>
<path fill="none" stroke="black" d="M115.78,-367.82C143.59,-361.84 176.54,-354.75 200.49,-349.6"/>
<polygon fill="black" stroke="black" points="114.83,-364.45 105.79,-369.97 116.31,-371.29 114.83,-364.45"/>
</g>
<!-- Node18 -->
<g id="Node000018" class="node">
<title>Node18</title>
<g id="a_Node000018"><a xlink:href="../../d7/d55/group__LCI__GRAPH__ADD__EDGE.html" target="_top" xlink:title="Add a edge to a graph.">
<polygon fill="white" stroke="#666666" points="283,-315 186,-315 186,-296 283,-296 283,-315"/>
<text text-anchor="middle" x="234.5" y="-303" font-family="Helvetica,sans-Serif" font-size="10.00">graph_add_edge</text>
</a>
</g>
</g>
<!-- Node1&#45;&gt;Node18 -->
<g id="edge17" class="edge">
<title>Node1&#45;&gt;Node18</title>
<path fill="none" stroke="black" d="M83.87,-364.21C102.67,-351.96 130.62,-335.13 157,-324.5 166.27,-320.77 176.47,-317.62 186.32,-315.02"/>
<polygon fill="black" stroke="black" points="81.83,-361.36 75.42,-369.81 85.69,-367.2 81.83,-361.36"/>
</g>
<!-- Node17 -->
<g id="Node000017" class="node">
<title>Node17</title>
<g id="a_Node000017"><a xlink:href="../../df/df5/group__LCI__GRAPH__ADD__NODE.html" target="_top" xlink:title="Add a node to a graph.">
<polygon fill="white" stroke="#666666" points="283,-278 186,-278 186,-259 283,-259 283,-278"/>
<text text-anchor="middle" x="234.5" y="-266" font-family="Helvetica,sans-Serif" font-size="10.00">graph_add_node</text>
</a>
</g>
</g>
<!-- Node1&#45;&gt;Node17 -->
<g id="edge16" class="edge">
<title>Node1&#45;&gt;Node17</title>
<path fill="none" stroke="black" d="M75.07,-361.65C91.97,-340.69 122.8,-306.41 157,-287.5 165.86,-282.6 175.99,-278.95 185.92,-276.22"/>
<polygon fill="black" stroke="black" points="72.15,-359.7 68.71,-369.73 77.65,-364.03 72.15,-359.7"/>
</g>
<!-- Node19 -->
<g id="Node000019" class="node">
<title>Node19</title>
<g id="a_Node000019"><a xlink:href="../../d1/d28/group__LCI__GRAPH__NODE__MARK__COMPLETE.html" target="_top" xlink:title="Mark a node complete.">
<polygon fill="white" stroke="#666666" points="312,-241 157,-241 157,-222 312,-222 312,-241"/>
<text text-anchor="middle" x="234.5" y="-229" font-family="Helvetica,sans-Serif" font-size="10.00">graph_node_mark_complete</text>
</a>
</g>
</g>
<!-- Node1&#45;&gt;Node19 -->
<g id="edge18" class="edge">
<title>Node1&#45;&gt;Node19</title>
<path fill="none" stroke="black" d="M70.12,-360.72C84.15,-332.31 114.68,-278.74 157,-250.5 162.81,-246.63 169.33,-243.54 176.07,-241.09"/>
<polygon fill="black" stroke="black" points="66.86,-359.42 65.7,-369.96 73.17,-362.44 66.86,-359.42"/>
</g>
<!-- Node20 -->
<g id="Node000020" class="node">
<title>Node20</title>
<g id="a_Node000020"><a xlink:href="../../dd/dcb/group__LCI__GRAPH__START.html" target="_top" xlink:title="Start a graph.">
<polygon fill="white" stroke="#666666" points="270.5,-204 198.5,-204 198.5,-185 270.5,-185 270.5,-204"/>
<text text-anchor="middle" x="234.5" y="-192" font-family="Helvetica,sans-Serif" font-size="10.00">graph_start</text>
</a>
</g>
</g>
<!-- Node1&#45;&gt;Node20 -->
<g id="edge19" class="edge">
<title>Node1&#45;&gt;Node20</title>
<path fill="none" stroke="black" d="M67.14,-359.89C78.27,-324.85 106.46,-251.61 157,-213.5 168.8,-204.6 184.26,-199.83 198.19,-197.29"/>
<polygon fill="black" stroke="black" points="63.68,-359.25 64.12,-369.83 70.38,-361.28 63.68,-359.25"/>
</g>
<!-- Node21 -->
<g id="Node000021" class="node">
<title>Node21</title>
<g id="a_Node000021"><a xlink:href="../../dd/dad/group__LCI__GRAPH__TEST.html" target="_top" xlink:title="Test a graph.">
<polygon fill="white" stroke="#666666" points="268.5,-167 200.5,-167 200.5,-148 268.5,-148 268.5,-167"/>
<text text-anchor="middle" x="234.5" y="-155" font-family="Helvetica,sans-Serif" font-size="10.00">graph_test</text>
</a>
</g>
</g>
<!-- Node1&#45;&gt;Node21 -->
<g id="edge20" class="edge">
<title>Node1&#45;&gt;Node21</title>
<path fill="none" stroke="black" d="M64.99,-359.58C73.23,-318.7 97.83,-225.06 157,-176.5 169.06,-166.6 185.55,-161.75 200.13,-159.42"/>
<polygon fill="black" stroke="black" points="61.51,-359.16 63.08,-369.63 68.38,-360.46 61.51,-359.16"/>
</g>
<!-- Node5 -->
<g id="Node000005" class="node">
<title>Node5</title>
<g id="a_Node000005"><a xlink:href="../../db/d2e/group__LCI__REGISTER__RCOMP.html" target="_top" xlink:title="Register a completion object into a remote completion handler.">
<polygon fill="white" stroke="#666666" points="279.5,-130 189.5,-130 189.5,-111 279.5,-111 279.5,-130"/>
<text text-anchor="middle" x="234.5" y="-118" font-family="Helvetica,sans-Serif" font-size="10.00">register_rcomp</text>
</a>
</g>
</g>
<!-- Node1&#45;&gt;Node5 -->
<g id="edge4" class="edge">
<title>Node1&#45;&gt;Node5</title>
<path fill="none" stroke="black" d="M63.36,-359.85C68.77,-313.94 88.8,-199.05 157,-139.5 165.97,-131.67 177.68,-126.97 189.23,-124.17"/>
<polygon fill="black" stroke="black" points="59.86,-359.64 62.27,-369.96 66.82,-360.39 59.86,-359.64"/>
</g>
<!-- Node4 -->
<g id="Node000004" class="node">
<title>Node4</title>
<g id="a_Node000004"><a xlink:href="../../d5/d9b/group__LCI__RESERVE__RCOMPS.html" target="_top" xlink:title="Reserve spaces for n remote completion handlers.">
<polygon fill="white" stroke="#666666" points="282,-93 187,-93 187,-74 282,-74 282,-93"/>
<text text-anchor="middle" x="234.5" y="-81" font-family="Helvetica,sans-Serif" font-size="10.00">reserve_rcomps</text>
</a>
</g>
</g>
<!-- Node1&#45;&gt;Node4 -->
<g id="edge3" class="edge">
<title>Node1&#45;&gt;Node4</title>
<path fill="none" stroke="black" d="M62.18,-359.65C65.04,-308.83 79.89,-173.07 157,-102.5 165.28,-94.92 176.1,-90.25 186.99,-87.4"/>
<polygon fill="black" stroke="black" points="58.67,-359.76 61.71,-369.91 65.66,-360.08 58.67,-359.76"/>
</g>
<!-- Node8 -->
<g id="Node000008" class="node">
<title>Node8</title>
<g id="a_Node000008"><a xlink:href="../../de/df4/group__LCI__SYNC__TEST.html" target="_top" xlink:title="Test a synchronizer.">
<polygon fill="white" stroke="#666666" points="266,-56 203,-56 203,-37 266,-37 266,-56"/>
<text text-anchor="middle" x="234.5" y="-44" font-family="Helvetica,sans-Serif" font-size="10.00">sync_test</text>
</a>
</g>
</g>
<!-- Node1&#45;&gt;Node8 -->
<g id="edge7" class="edge">
<title>Node1&#45;&gt;Node8</title>
<path fill="none" stroke="black" d="M61.24,-359.66C61.67,-304.38 70.78,-147.36 157,-65.5 169.21,-53.91 187.34,-49.07 202.89,-47.17"/>
<polygon fill="black" stroke="black" points="57.74,-359.85 61.26,-369.84 64.74,-359.84 57.74,-359.85"/>
</g>
<!-- Node9 -->
<g id="Node000009" class="node">
<title>Node9</title>
<g id="a_Node000009"><a xlink:href="../../d9/dcb/group__LCI__SYNC__WAIT.html" target="_top" xlink:title="Wait for a synchronizer to be ready.">
<polygon fill="white" stroke="#666666" points="267,-19 202,-19 202,0 267,0 267,-19"/>
<text text-anchor="middle" x="234.5" y="-7" font-family="Helvetica,sans-Serif" font-size="10.00">sync_wait</text>
</a>
</g>
</g>
<!-- Node1&#45;&gt;Node9 -->
<g id="edge8" class="edge">
<title>Node1&#45;&gt;Node9</title>
<path fill="none" stroke="black" d="M64.19,-359.97C73.77,-293.29 108.24,-76.19 157,-28.5 168.84,-16.92 186.58,-12.04 201.99,-10.12"/>
<polygon fill="black" stroke="black" points="60.71,-359.57 62.78,-369.97 67.65,-360.55 60.71,-359.57"/>
</g>
</g>
</svg>
