<?xml version="1.0" encoding="UTF-8" standalone="no"?>
<!DOCTYPE svg PUBLIC "-//W3C//DTD SVG 1.1//EN"
 "http://www.w3.org/Graphics/SVG/1.1/DTD/svg11.dtd">
<!-- Generated by graphviz version 2.43.0 (0)
 -->
<!-- Title: lci::graph_add_node_x::value Pages: 1 -->
<svg width="589pt" height="113pt"
 viewBox="0.00 0.00 589.00 113.00" xmlns="http://www.w3.org/2000/svg" xmlns:xlink="http://www.w3.org/1999/xlink">
<g id="graph0" class="graph" transform="scale(1 1) rotate(0) translate(4 109)">
<title>lci::graph_add_node_x::value</title>
<!-- Node1 -->
<g id="Node000001" class="node">
<title>Node1</title>
<g id="a_Node000001"><a xlink:title=" ">
<polygon fill="#999999" stroke="#666666" points="581,-67.5 467,-67.5 467,-37.5 581,-37.5 581,-67.5"/>
<text text-anchor="start" x="475" y="-55.5" font-family="Helvetica,sans-Serif" font-size="10.00">lci::graph_add_node</text>
<text text-anchor="middle" x="524" y="-44.5" font-family="Helvetica,sans-Serif" font-size="10.00">_x::value</text>
</a>
</g>
</g>
<!-- Node2 -->
<g id="Node000002" class="node">
<title>Node2</title>
<g id="a_Node000002"><a xlink:href="../../d8/db8/classlci_1_1graph__add__node__x.html#a460287e23a6bd0f072f2edfc8d531138" target="_top" xlink:title=" ">
<polygon fill="white" stroke="#666666" points="264,-88.5 150,-88.5 150,-58.5 264,-58.5 264,-88.5"/>
<text text-anchor="start" x="158" y="-76.5" font-family="Helvetica,sans-Serif" font-size="10.00">lci::graph_add_node</text>
<text text-anchor="middle" x="207" y="-65.5" font-family="Helvetica,sans-Serif" font-size="10.00">_x::call</text>
</a>
</g>
</g>
<!-- Node1&#45;&gt;Node2 -->
<g id="edge1_Node000001_Node000002" class="edge">
<title>Node1&#45;&gt;Node2</title>
<g id="a_edge1_Node000001_Node000002"><a xlink:title=" ">
<path fill="none" stroke="#63b8ff" d="M464.73,-70.08C453.63,-72.75 442.03,-75.08 431,-76.5 374.55,-83.74 309.4,-81.68 264.15,-78.61"/>
<polygon fill="#63b8ff" stroke="#63b8ff" points="465.91,-73.39 474.75,-67.55 464.2,-66.61 465.91,-73.39"/>
</a>
</g>
</g>
<!-- Node5 -->
<g id="Node000005" class="node">
<title>Node5</title>
<g id="a_Node000005"><a xlink:href="../../d8/db8/classlci_1_1graph__add__node__x.html#aba648beb0aa746fd273201aec8f1fa23" target="_top" xlink:title=" ">
<polygon fill="white" stroke="#666666" points="422.5,-67.5 308.5,-67.5 308.5,-37.5 422.5,-37.5 422.5,-67.5"/>
<text text-anchor="start" x="316.5" y="-55.5" font-family="Helvetica,sans-Serif" font-size="10.00">lci::graph_add_node</text>
<text text-anchor="middle" x="365.5" y="-44.5" font-family="Helvetica,sans-Serif" font-size="10.00">_x::call_impl</text>
</a>
</g>
</g>
<!-- Node1&#45;&gt;Node5 -->
<g id="edge4_Node000001_Node000005" class="edge">
<title>Node1&#45;&gt;Node5</title>
<g id="a_edge4_Node000001_Node000005"><a xlink:title=" ">
<path fill="none" stroke="#63b8ff" d="M456.68,-52.5C445.36,-52.5 433.71,-52.5 422.69,-52.5"/>
<polygon fill="#63b8ff" stroke="#63b8ff" points="456.94,-56 466.94,-52.5 456.94,-49 456.94,-56"/>
</a>
</g>
</g>
<!-- Node6 -->
<g id="Node000006" class="node">
<title>Node6</title>
<g id="a_Node000006"><a xlink:href="../../d8/d33/group__LCI__BASIC.html#ga04913a1823ea2481cf7ba1284c7abc64" target="_top" xlink:title="Add a functor as a node to the completion graph.">
<polygon fill="white" stroke="#666666" points="431,-19 300,-19 300,0 431,0 431,-19"/>
<text text-anchor="middle" x="365.5" y="-7" font-family="Helvetica,sans-Serif" font-size="10.00">lci::graph_add_node_op</text>
</a>
</g>
</g>
<!-- Node1&#45;&gt;Node6 -->
<g id="edge6_Node000001_Node000006" class="edge">
<title>Node1&#45;&gt;Node6</title>
<g id="a_edge6_Node000001_Node000006"><a xlink:title=" ">
<path fill="none" stroke="#63b8ff" d="M458.48,-34.77C438.94,-29.4 418.21,-23.71 401.39,-19.09"/>
<polygon fill="#63b8ff" stroke="#63b8ff" points="457.69,-38.19 468.26,-37.46 459.55,-31.44 457.69,-38.19"/>
</a>
</g>
</g>
<!-- Node3 -->
<g id="Node000003" class="node">
<title>Node3</title>
<g id="a_Node000003"><a xlink:href="../../d5/dd3/namespacelci.html#a8a64a022a1899659c11a5fed52cecb53" target="_top" xlink:title=" ">
<polygon fill="white" stroke="#666666" points="114,-105 0,-105 0,-86 114,-86 114,-105"/>
<text text-anchor="middle" x="57" y="-93" font-family="Helvetica,sans-Serif" font-size="10.00">lci::graph_add_node</text>
</a>
</g>
</g>
<!-- Node2&#45;&gt;Node3 -->
<g id="edge2_Node000002_Node000003" class="edge">
<title>Node2&#45;&gt;Node3</title>
<g id="a_edge2_Node000002_Node000003"><a xlink:title=" ">
<path fill="none" stroke="#63b8ff" d="M139.72,-83.35C131.2,-84.62 122.55,-85.9 114.22,-87.14"/>
<polygon fill="#63b8ff" stroke="#63b8ff" points="140.25,-86.81 149.63,-81.88 139.22,-79.89 140.25,-86.81"/>
</a>
</g>
</g>
<!-- Node4 -->
<g id="Node000004" class="node">
<title>Node4</title>
<g id="a_Node000004"><a xlink:href="../../d8/db8/classlci_1_1graph__add__node__x.html#a2795d364a95f2cc77b174c7230e6c6f7" target="_top" xlink:title=" ">
<polygon fill="white" stroke="#666666" points="114,-67.5 0,-67.5 0,-37.5 114,-37.5 114,-67.5"/>
<text text-anchor="start" x="8" y="-55.5" font-family="Helvetica,sans-Serif" font-size="10.00">lci::graph_add_node</text>
<text text-anchor="middle" x="57" y="-44.5" font-family="Helvetica,sans-Serif" font-size="10.00">_x::operator()</text>
</a>
</g>
</g>
<!-- Node2&#45;&gt;Node4 -->
<g id="edge3_Node000002_Node000004" class="edge">
<title>Node2&#45;&gt;Node4</title>
<g id="a_edge3_Node000002_Node000004"><a xlink:title=" ">
<path fill="none" stroke="#63b8ff" d="M139.72,-64.1C131.2,-62.89 122.55,-61.66 114.22,-60.48"/>
<polygon fill="#63b8ff" stroke="#63b8ff" points="139.23,-67.56 149.63,-65.5 140.22,-60.63 139.23,-67.56"/>
</a>
</g>
</g>
<!-- Node5&#45;&gt;Node2 -->
<g id="edge5_Node000005_Node000002" class="edge">
<title>Node5&#45;&gt;Node2</title>
<g id="a_edge5_Node000005_Node000002"><a xlink:title=" ">
<path fill="none" stroke="#63b8ff" d="M298.52,-61.35C287.1,-62.89 275.32,-64.47 264.19,-65.96"/>
<polygon fill="#63b8ff" stroke="#63b8ff" points="299,-64.82 308.44,-60.02 298.07,-57.88 299,-64.82"/>
</a>
</g>
</g>
</g>
</svg>
