<?xml version="1.0" encoding="UTF-8" standalone="no"?>
<!DOCTYPE svg PUBLIC "-//W3C//DTD SVG 1.1//EN"
 "http://www.w3.org/Graphics/SVG/1.1/DTD/svg11.dtd">
<!-- Generated by graphviz version 2.43.0 (0)
 -->
<!-- Title: lci::graph_add_node_x::operator() Pages: 1 -->
<svg width="733pt" height="182pt"
 viewBox="0.00 0.00 733.00 182.00" xmlns="http://www.w3.org/2000/svg" xmlns:xlink="http://www.w3.org/1999/xlink">
<g id="graph0" class="graph" transform="scale(1 1) rotate(0) translate(4 178)">
<title>lci::graph_add_node_x::operator()</title>
<!-- Node1 -->
<g id="Node000001" class="node">
<title>Node1</title>
<g id="a_Node000001"><a xlink:title=" ">
<polygon fill="#999999" stroke="#666666" points="114,-102 0,-102 0,-72 114,-72 114,-102"/>
<text text-anchor="start" x="8" y="-90" font-family="Helvetica,sans-Serif" font-size="10.00">lci::graph_add_node</text>
<text text-anchor="middle" x="57" y="-79" font-family="Helvetica,sans-Serif" font-size="10.00">_x::operator()</text>
</a>
</g>
</g>
<!-- Node2 -->
<g id="Node000002" class="node">
<title>Node2</title>
<g id="a_Node000002"><a xlink:href="../../d8/db8/classlci_1_1graph__add__node__x.html#a460287e23a6bd0f072f2edfc8d531138" target="_top" xlink:title=" ">
<polygon fill="white" stroke="#666666" points="264,-102 150,-102 150,-72 264,-72 264,-102"/>
<text text-anchor="start" x="158" y="-90" font-family="Helvetica,sans-Serif" font-size="10.00">lci::graph_add_node</text>
<text text-anchor="middle" x="207" y="-79" font-family="Helvetica,sans-Serif" font-size="10.00">_x::call</text>
</a>
</g>
</g>
<!-- Node1&#45;&gt;Node2 -->
<g id="edge1_Node000001_Node000002" class="edge">
<title>Node1&#45;&gt;Node2</title>
<g id="a_edge1_Node000001_Node000002"><a xlink:title=" ">
<path fill="none" stroke="#63b8ff" d="M114.37,-87C122.62,-87 131.18,-87 139.6,-87"/>
<polygon fill="#63b8ff" stroke="#63b8ff" points="139.78,-90.5 149.78,-87 139.78,-83.5 139.78,-90.5"/>
</a>
</g>
</g>
<!-- Node3 -->
<g id="Node000003" class="node">
<title>Node3</title>
<g id="a_Node000003"><a xlink:href="../../d8/db8/classlci_1_1graph__add__node__x.html#aba648beb0aa746fd273201aec8f1fa23" target="_top" xlink:title=" ">
<polygon fill="white" stroke="#666666" points="414,-102 300,-102 300,-72 414,-72 414,-102"/>
<text text-anchor="start" x="308" y="-90" font-family="Helvetica,sans-Serif" font-size="10.00">lci::graph_add_node</text>
<text text-anchor="middle" x="357" y="-79" font-family="Helvetica,sans-Serif" font-size="10.00">_x::call_impl</text>
</a>
</g>
</g>
<!-- Node2&#45;&gt;Node3 -->
<g id="edge2_Node000002_Node000003" class="edge">
<title>Node2&#45;&gt;Node3</title>
<g id="a_edge2_Node000002_Node000003"><a xlink:title=" ">
<path fill="none" stroke="#63b8ff" d="M264.37,-87C272.62,-87 281.18,-87 289.6,-87"/>
<polygon fill="#63b8ff" stroke="#63b8ff" points="289.78,-90.5 299.78,-87 289.78,-83.5 289.78,-90.5"/>
</a>
</g>
</g>
<!-- Node4 -->
<g id="Node000004" class="node">
<title>Node4</title>
<g id="a_Node000004"><a xlink:href="../../d8/db8/classlci_1_1graph__add__node__x.html#af5a94360ae245e1d987f97035d7608c9" target="_top" xlink:title=" ">
<polygon fill="white" stroke="#666666" points="564,-174 450,-174 450,-144 564,-144 564,-174"/>
<text text-anchor="start" x="458" y="-162" font-family="Helvetica,sans-Serif" font-size="10.00">lci::graph_add_node</text>
<text text-anchor="middle" x="507" y="-151" font-family="Helvetica,sans-Serif" font-size="10.00">_x::comp</text>
</a>
</g>
</g>
<!-- Node2&#45;&gt;Node4 -->
<g id="edge11_Node000002_Node000004" class="edge">
<title>Node2&#45;&gt;Node4</title>
<g id="a_edge11_Node000002_Node000004"><a xlink:title=" ">
<path fill="none" stroke="#63b8ff" d="M237.53,-102.15C255.23,-110.64 278.42,-120.75 300,-127 345.67,-140.24 398.71,-148.31 439.53,-153.04"/>
<polygon fill="#63b8ff" stroke="#63b8ff" points="439.31,-156.54 449.64,-154.17 440.09,-149.58 439.31,-156.54"/>
</a>
</g>
</g>
<!-- Node6 -->
<g id="Node000006" class="node">
<title>Node6</title>
<g id="a_Node000006"><a xlink:href="../../d8/db8/classlci_1_1graph__add__node__x.html#ab69e3173f39a1f4bdd1a90b6a5f4aa26" target="_top" xlink:title=" ">
<polygon fill="white" stroke="#666666" points="564,-126 450,-126 450,-96 564,-96 564,-126"/>
<text text-anchor="start" x="458" y="-114" font-family="Helvetica,sans-Serif" font-size="10.00">lci::graph_add_node</text>
<text text-anchor="middle" x="507" y="-103" font-family="Helvetica,sans-Serif" font-size="10.00">_x::fn</text>
</a>
</g>
</g>
<!-- Node2&#45;&gt;Node6 -->
<g id="edge12_Node000002_Node000006" class="edge">
<title>Node2&#45;&gt;Node6</title>
<g id="a_edge12_Node000002_Node000006"><a xlink:title=" ">
<path fill="none" stroke="#63b8ff" d="M256.25,-102.05C270.22,-105.74 285.59,-109.15 300,-111 346.44,-116.96 399.25,-116.82 439.77,-115.27"/>
<polygon fill="#63b8ff" stroke="#63b8ff" points="439.95,-118.76 449.8,-114.84 439.66,-111.77 439.95,-118.76"/>
</a>
</g>
</g>
<!-- Node7 -->
<g id="Node000007" class="node">
<title>Node7</title>
<g id="a_Node000007"><a xlink:href="../../d8/db8/classlci_1_1graph__add__node__x.html#a3a7ff8b535243a36246e26a4ddae59cf" target="_top" xlink:title=" ">
<polygon fill="white" stroke="#666666" points="564,-78 450,-78 450,-48 564,-48 564,-78"/>
<text text-anchor="start" x="458" y="-66" font-family="Helvetica,sans-Serif" font-size="10.00">lci::graph_add_node</text>
<text text-anchor="middle" x="507" y="-55" font-family="Helvetica,sans-Serif" font-size="10.00">_x::runtime</text>
</a>
</g>
</g>
<!-- Node2&#45;&gt;Node7 -->
<g id="edge13_Node000002_Node000007" class="edge">
<title>Node2&#45;&gt;Node7</title>
<g id="a_edge13_Node000002_Node000007"><a xlink:title=" ">
<path fill="none" stroke="#63b8ff" d="M256.25,-71.95C270.22,-68.26 285.59,-64.85 300,-63 346.44,-57.04 399.25,-57.18 439.77,-58.73"/>
<polygon fill="#63b8ff" stroke="#63b8ff" points="439.66,-62.23 449.8,-59.16 439.95,-55.24 439.66,-62.23"/>
</a>
</g>
</g>
<!-- Node8 -->
<g id="Node000008" class="node">
<title>Node8</title>
<g id="a_Node000008"><a xlink:href="../../d8/db8/classlci_1_1graph__add__node__x.html#ad8884eb9033553a67cd075cfbcac2b25" target="_top" xlink:title=" ">
<polygon fill="white" stroke="#666666" points="564,-30 450,-30 450,0 564,0 564,-30"/>
<text text-anchor="start" x="458" y="-18" font-family="Helvetica,sans-Serif" font-size="10.00">lci::graph_add_node</text>
<text text-anchor="middle" x="507" y="-7" font-family="Helvetica,sans-Serif" font-size="10.00">_x::value</text>
</a>
</g>
</g>
<!-- Node2&#45;&gt;Node8 -->
<g id="edge14_Node000002_Node000008" class="edge">
<title>Node2&#45;&gt;Node8</title>
<g id="a_edge14_Node000002_Node000008"><a xlink:title=" ">
<path fill="none" stroke="#63b8ff" d="M244.24,-71.97C260.99,-65.45 281.28,-58.14 300,-53 346.07,-40.34 399.1,-30.67 439.82,-24.25"/>
<polygon fill="#63b8ff" stroke="#63b8ff" points="440.55,-27.68 449.89,-22.69 439.48,-20.76 440.55,-27.68"/>
</a>
</g>
</g>
<!-- Node3&#45;&gt;Node4 -->
<g id="edge3_Node000003_Node000004" class="edge">
<title>Node3&#45;&gt;Node4</title>
<g id="a_edge3_Node000003_Node000004"><a xlink:title=" ">
<path fill="none" stroke="#63b8ff" d="M385.5,-102.05C403.64,-111.8 428.03,-124.58 450,-135 453.35,-136.59 456.83,-138.19 460.35,-139.78"/>
<polygon fill="#63b8ff" stroke="#63b8ff" points="459.11,-143.06 469.67,-143.91 461.95,-136.66 459.11,-143.06"/>
</a>
</g>
</g>
<!-- Node3&#45;&gt;Node6 -->
<g id="edge5_Node000003_Node000006" class="edge">
<title>Node3&#45;&gt;Node6</title>
<g id="a_edge5_Node000003_Node000006"><a xlink:title=" ">
<path fill="none" stroke="#63b8ff" d="M414.37,-96.14C422.71,-97.49 431.37,-98.9 439.88,-100.28"/>
<polygon fill="#63b8ff" stroke="#63b8ff" points="439.35,-103.74 449.78,-101.88 440.47,-96.83 439.35,-103.74"/>
</a>
</g>
</g>
<!-- Node3&#45;&gt;Node7 -->
<g id="edge7_Node000003_Node000007" class="edge">
<title>Node3&#45;&gt;Node7</title>
<g id="a_edge7_Node000003_Node000007"><a xlink:title=" ">
<path fill="none" stroke="#63b8ff" d="M414.37,-77.86C422.71,-76.51 431.37,-75.1 439.88,-73.72"/>
<polygon fill="#63b8ff" stroke="#63b8ff" points="440.47,-77.17 449.78,-72.12 439.35,-70.26 440.47,-77.17"/>
</a>
</g>
</g>
<!-- Node3&#45;&gt;Node8 -->
<g id="edge9_Node000003_Node000008" class="edge">
<title>Node3&#45;&gt;Node8</title>
<g id="a_edge9_Node000003_Node000008"><a xlink:title=" ">
<path fill="none" stroke="#63b8ff" d="M385.5,-71.95C403.64,-62.2 428.03,-49.42 450,-39 453.35,-37.41 456.83,-35.81 460.35,-34.22"/>
<polygon fill="#63b8ff" stroke="#63b8ff" points="461.95,-37.34 469.67,-30.09 459.11,-30.94 461.95,-37.34"/>
</a>
</g>
</g>
<!-- Node5 -->
<g id="Node000005" class="node">
<title>Node5</title>
<g id="a_Node000005"><a xlink:href="../../d8/db8/classlci_1_1graph__add__node__x.html#a50a334110e183170c11b7ae96cd92305" target="_top" xlink:title=" ">
<polygon fill="white" stroke="#666666" points="725,-102 600,-102 600,-72 725,-72 725,-102"/>
<text text-anchor="start" x="608" y="-90" font-family="Helvetica,sans-Serif" font-size="10.00">lci::graph_add_node</text>
<text text-anchor="middle" x="662.5" y="-79" font-family="Helvetica,sans-Serif" font-size="10.00">_x::graph_add_node_x</text>
</a>
</g>
</g>
<!-- Node4&#45;&gt;Node5 -->
<g id="edge4_Node000004_Node000005" class="edge">
<title>Node4&#45;&gt;Node5</title>
<g id="a_edge4_Node000004_Node000005"><a xlink:title=" ">
<path fill="none" stroke="#63b8ff" d="M543.97,-143.91C550.66,-141.02 557.56,-137.96 564,-135 583.56,-126 605.05,-115.49 622.87,-106.6"/>
<polygon fill="#63b8ff" stroke="#63b8ff" points="624.45,-109.72 631.82,-102.11 621.32,-103.46 624.45,-109.72"/>
</a>
</g>
</g>
<!-- Node6&#45;&gt;Node5 -->
<g id="edge6_Node000006_Node000005" class="edge">
<title>Node6&#45;&gt;Node5</title>
<g id="a_edge6_Node000006_Node000005"><a xlink:title=" ">
<path fill="none" stroke="#63b8ff" d="M564.29,-102.2C572.59,-100.9 581.24,-99.55 589.8,-98.21"/>
<polygon fill="#63b8ff" stroke="#63b8ff" points="590.45,-101.65 599.79,-96.65 589.37,-94.74 590.45,-101.65"/>
</a>
</g>
</g>
<!-- Node7&#45;&gt;Node5 -->
<g id="edge8_Node000007_Node000005" class="edge">
<title>Node7&#45;&gt;Node5</title>
<g id="a_edge8_Node000007_Node000005"><a xlink:title=" ">
<path fill="none" stroke="#63b8ff" d="M564.29,-71.8C572.59,-73.1 581.24,-74.45 589.8,-75.79"/>
<polygon fill="#63b8ff" stroke="#63b8ff" points="589.37,-79.26 599.79,-77.35 590.45,-72.35 589.37,-79.26"/>
</a>
</g>
</g>
<!-- Node8&#45;&gt;Node5 -->
<g id="edge10_Node000008_Node000005" class="edge">
<title>Node8&#45;&gt;Node5</title>
<g id="a_edge10_Node000008_Node000005"><a xlink:title=" ">
<path fill="none" stroke="#63b8ff" d="M543.97,-30.09C550.66,-32.98 557.56,-36.04 564,-39 583.56,-48 605.05,-58.51 622.87,-67.4"/>
<polygon fill="#63b8ff" stroke="#63b8ff" points="621.32,-70.54 631.82,-71.89 624.45,-64.28 621.32,-70.54"/>
</a>
</g>
</g>
</g>
</svg>
