<?xml version="1.0" encoding="UTF-8" standalone="no"?>
<!DOCTYPE svg PUBLIC "-//W3C//DTD SVG 1.1//EN"
 "http://www.w3.org/Graphics/SVG/1.1/DTD/svg11.dtd">
<!-- Generated by graphviz version 2.43.0 (0)
 -->
<!-- Title: lci::graph_add_node_x::graph_add_node_x Pages: 1 -->
<svg width="750pt" height="245pt"
 viewBox="0.00 0.00 750.00 245.43" xmlns="http://www.w3.org/2000/svg" xmlns:xlink="http://www.w3.org/1999/xlink">
<g id="graph0" class="graph" transform="scale(1 1) rotate(0) translate(4 241.43)">
<title>lci::graph_add_node_x::graph_add_node_x</title>
<!-- Node1 -->
<g id="Node000001" class="node">
<title>Node1</title>
<g id="a_Node000001"><a xlink:title=" ">
<polygon fill="#999999" stroke="#666666" points="742,-141.43 617,-141.43 617,-111.43 742,-111.43 742,-141.43"/>
<text text-anchor="start" x="625" y="-129.43" font-family="Helvetica,sans-Serif" font-size="10.00">lci::graph_add_node</text>
<text text-anchor="middle" x="679.5" y="-118.43" font-family="Helvetica,sans-Serif" font-size="10.00">_x::graph_add_node_x</text>
</a>
</g>
</g>
<!-- Node2 -->
<g id="Node000002" class="node">
<title>Node2</title>
<g id="a_Node000002"><a xlink:href="../../d8/db8/classlci_1_1graph__add__node__x.html#af5a94360ae245e1d987f97035d7608c9" target="_top" xlink:title=" ">
<polygon fill="white" stroke="#666666" points="581,-237.43 467,-237.43 467,-207.43 581,-207.43 581,-237.43"/>
<text text-anchor="start" x="475" y="-225.43" font-family="Helvetica,sans-Serif" font-size="10.00">lci::graph_add_node</text>
<text text-anchor="middle" x="524" y="-214.43" font-family="Helvetica,sans-Serif" font-size="10.00">_x::comp</text>
</a>
</g>
</g>
<!-- Node1&#45;&gt;Node2 -->
<g id="edge1_Node000001_Node000002" class="edge">
<title>Node1&#45;&gt;Node2</title>
<g id="a_edge1_Node000001_Node000002"><a xlink:title=" ">
<path fill="none" stroke="#63b8ff" d="M652.78,-148C633.75,-163.3 606.76,-183.67 581,-198.43 575.49,-201.59 569.49,-204.58 563.53,-207.32"/>
<polygon fill="#63b8ff" stroke="#63b8ff" points="655.13,-150.6 660.68,-141.57 650.71,-145.17 655.13,-150.6"/>
</a>
</g>
</g>
<!-- Node7 -->
<g id="Node000007" class="node">
<title>Node7</title>
<g id="a_Node000007"><a xlink:href="../../d8/db8/classlci_1_1graph__add__node__x.html#a67d8368665b382657c9da461c7c7f03a" target="_top" xlink:title=" ">
<polygon fill="white" stroke="#666666" points="581,-189.43 467,-189.43 467,-159.43 581,-159.43 581,-189.43"/>
<text text-anchor="start" x="475" y="-177.43" font-family="Helvetica,sans-Serif" font-size="10.00">lci::graph_add_node</text>
<text text-anchor="middle" x="524" y="-166.43" font-family="Helvetica,sans-Serif" font-size="10.00">_x::fn</text>
</a>
</g>
</g>
<!-- Node1&#45;&gt;Node7 -->
<g id="edge7_Node000001_Node000007" class="edge">
<title>Node1&#45;&gt;Node7</title>
<g id="a_edge7_Node000001_Node000007"><a xlink:title=" ">
<path fill="none" stroke="#63b8ff" d="M620.72,-144.5C604.98,-149.42 588.11,-154.7 572.98,-159.43"/>
<polygon fill="#63b8ff" stroke="#63b8ff" points="621.85,-147.81 630.35,-141.49 619.76,-141.13 621.85,-147.81"/>
</a>
</g>
</g>
<!-- Node8 -->
<g id="Node000008" class="node">
<title>Node8</title>
<g id="a_Node000008"><a xlink:href="../../d8/db8/classlci_1_1graph__add__node__x.html#abf32ff790df8f3e32011a671d3dd831c" target="_top" xlink:title=" ">
<polygon fill="white" stroke="#666666" points="581,-45.43 467,-45.43 467,-15.43 581,-15.43 581,-45.43"/>
<text text-anchor="start" x="475" y="-33.43" font-family="Helvetica,sans-Serif" font-size="10.00">lci::graph_add_node</text>
<text text-anchor="middle" x="524" y="-22.43" font-family="Helvetica,sans-Serif" font-size="10.00">_x::free_cb</text>
</a>
</g>
</g>
<!-- Node1&#45;&gt;Node8 -->
<g id="edge10_Node000001_Node000008" class="edge">
<title>Node1&#45;&gt;Node8</title>
<g id="a_edge10_Node000001_Node000008"><a xlink:title=" ">
<path fill="none" stroke="#63b8ff" d="M652.78,-104.87C633.75,-89.57 606.76,-69.2 581,-54.43 575.49,-51.28 569.49,-48.28 563.53,-45.55"/>
<polygon fill="#63b8ff" stroke="#63b8ff" points="650.71,-107.7 660.68,-111.3 655.13,-102.27 650.71,-107.7"/>
</a>
</g>
</g>
<!-- Node10 -->
<g id="Node000010" class="node">
<title>Node10</title>
<g id="a_Node000010"><a xlink:href="../../d8/db8/classlci_1_1graph__add__node__x.html#a3a7ff8b535243a36246e26a4ddae59cf" target="_top" xlink:title=" ">
<polygon fill="white" stroke="#666666" points="581,-141.43 467,-141.43 467,-111.43 581,-111.43 581,-141.43"/>
<text text-anchor="start" x="475" y="-129.43" font-family="Helvetica,sans-Serif" font-size="10.00">lci::graph_add_node</text>
<text text-anchor="middle" x="524" y="-118.43" font-family="Helvetica,sans-Serif" font-size="10.00">_x::runtime</text>
</a>
</g>
</g>
<!-- Node1&#45;&gt;Node10 -->
<g id="edge14_Node000001_Node000010" class="edge">
<title>Node1&#45;&gt;Node10</title>
<g id="a_edge14_Node000001_Node000010"><a xlink:title=" ">
<path fill="none" stroke="#63b8ff" d="M606.86,-126.43C598.22,-126.43 589.48,-126.43 581.1,-126.43"/>
<polygon fill="#63b8ff" stroke="#63b8ff" points="606.95,-129.93 616.95,-126.43 606.95,-122.93 606.95,-129.93"/>
</a>
</g>
</g>
<!-- Node11 -->
<g id="Node000011" class="node">
<title>Node11</title>
<g id="a_Node000011"><a xlink:href="../../d8/db8/classlci_1_1graph__add__node__x.html#ad8884eb9033553a67cd075cfbcac2b25" target="_top" xlink:title=" ">
<polygon fill="white" stroke="#666666" points="581,-93.43 467,-93.43 467,-63.43 581,-63.43 581,-93.43"/>
<text text-anchor="start" x="475" y="-81.43" font-family="Helvetica,sans-Serif" font-size="10.00">lci::graph_add_node</text>
<text text-anchor="middle" x="524" y="-70.43" font-family="Helvetica,sans-Serif" font-size="10.00">_x::value</text>
</a>
</g>
</g>
<!-- Node1&#45;&gt;Node11 -->
<g id="edge17_Node000001_Node000011" class="edge">
<title>Node1&#45;&gt;Node11</title>
<g id="a_edge17_Node000001_Node000011"><a xlink:title=" ">
<path fill="none" stroke="#63b8ff" d="M620.72,-108.37C604.98,-103.44 588.11,-98.17 572.98,-93.44"/>
<polygon fill="#63b8ff" stroke="#63b8ff" points="619.76,-111.73 630.35,-111.38 621.85,-105.05 619.76,-111.73"/>
</a>
</g>
</g>
<!-- Node3 -->
<g id="Node000003" class="node">
<title>Node3</title>
<g id="a_Node000003"><a xlink:href="../../d8/db8/classlci_1_1graph__add__node__x.html#a460287e23a6bd0f072f2edfc8d531138" target="_top" xlink:title=" ">
<polygon fill="white" stroke="#666666" points="264,-147.43 150,-147.43 150,-117.43 264,-117.43 264,-147.43"/>
<text text-anchor="start" x="158" y="-135.43" font-family="Helvetica,sans-Serif" font-size="10.00">lci::graph_add_node</text>
<text text-anchor="middle" x="207" y="-124.43" font-family="Helvetica,sans-Serif" font-size="10.00">_x::call</text>
</a>
</g>
</g>
<!-- Node2&#45;&gt;Node3 -->
<g id="edge2_Node000002_Node000003" class="edge">
<title>Node2&#45;&gt;Node3</title>
<g id="a_edge2_Node000002_Node000003"><a xlink:title=" ">
<path fill="none" stroke="#63b8ff" d="M456.63,-223.58C411.18,-222.32 350.27,-216.55 300,-197.43 270.2,-186.1 241.05,-162.85 223.81,-147.45"/>
<polygon fill="#63b8ff" stroke="#63b8ff" points="456.59,-227.08 466.66,-223.79 456.74,-220.08 456.59,-227.08"/>
</a>
</g>
</g>
<!-- Node6 -->
<g id="Node000006" class="node">
<title>Node6</title>
<g id="a_Node000006"><a xlink:href="../../d8/db8/classlci_1_1graph__add__node__x.html#a5761e9202a21bc6c6641c8d1122fd307" target="_top" xlink:title=" ">
<polygon fill="white" stroke="#666666" points="422.5,-169.43 308.5,-169.43 308.5,-139.43 422.5,-139.43 422.5,-169.43"/>
<text text-anchor="start" x="316.5" y="-157.43" font-family="Helvetica,sans-Serif" font-size="10.00">lci::graph_add_node</text>
<text text-anchor="middle" x="365.5" y="-146.43" font-family="Helvetica,sans-Serif" font-size="10.00">_x::call_impl</text>
</a>
</g>
</g>
<!-- Node2&#45;&gt;Node6 -->
<g id="edge5_Node000002_Node000006" class="edge">
<title>Node2&#45;&gt;Node6</title>
<g id="a_edge5_Node000002_Node000006"><a xlink:title=" ">
<path fill="none" stroke="#63b8ff" d="M478.28,-203.3C474.46,-201.66 470.66,-200.02 467,-198.43 444.98,-188.89 420.29,-178.09 400.89,-169.57"/>
<polygon fill="#63b8ff" stroke="#63b8ff" points="477.16,-206.63 487.73,-207.37 479.93,-200.2 477.16,-206.63"/>
</a>
</g>
</g>
<!-- Node4 -->
<g id="Node000004" class="node">
<title>Node4</title>
<g id="a_Node000004"><a xlink:href="../../d5/dd3/namespacelci.html#ac942e587d9dbca57c48e1ca3f3854969" target="_top" xlink:title=" ">
<polygon fill="white" stroke="#666666" points="114,-163.93 0,-163.93 0,-144.93 114,-144.93 114,-163.93"/>
<text text-anchor="middle" x="57" y="-151.93" font-family="Helvetica,sans-Serif" font-size="10.00">lci::graph_add_node</text>
</a>
</g>
</g>
<!-- Node3&#45;&gt;Node4 -->
<g id="edge3_Node000003_Node000004" class="edge">
<title>Node3&#45;&gt;Node4</title>
<g id="a_edge3_Node000003_Node000004"><a xlink:title=" ">
<path fill="none" stroke="#63b8ff" d="M139.72,-142.29C131.2,-143.55 122.55,-144.84 114.22,-146.08"/>
<polygon fill="#63b8ff" stroke="#63b8ff" points="140.25,-145.75 149.63,-140.81 139.22,-138.82 140.25,-145.75"/>
</a>
</g>
</g>
<!-- Node5 -->
<g id="Node000005" class="node">
<title>Node5</title>
<g id="a_Node000005"><a xlink:href="../../d8/db8/classlci_1_1graph__add__node__x.html#a2795d364a95f2cc77b174c7230e6c6f7" target="_top" xlink:title=" ">
<polygon fill="white" stroke="#666666" points="114,-126.43 0,-126.43 0,-96.43 114,-96.43 114,-126.43"/>
<text text-anchor="start" x="8" y="-114.43" font-family="Helvetica,sans-Serif" font-size="10.00">lci::graph_add_node</text>
<text text-anchor="middle" x="57" y="-103.43" font-family="Helvetica,sans-Serif" font-size="10.00">_x::operator()</text>
</a>
</g>
</g>
<!-- Node3&#45;&gt;Node5 -->
<g id="edge4_Node000003_Node000005" class="edge">
<title>Node3&#45;&gt;Node5</title>
<g id="a_edge4_Node000003_Node000005"><a xlink:title=" ">
<path fill="none" stroke="#63b8ff" d="M139.72,-123.03C131.2,-121.82 122.55,-120.59 114.22,-119.41"/>
<polygon fill="#63b8ff" stroke="#63b8ff" points="139.23,-126.49 149.63,-124.43 140.22,-119.56 139.23,-126.49"/>
</a>
</g>
</g>
<!-- Node6&#45;&gt;Node3 -->
<g id="edge6_Node000006_Node000003" class="edge">
<title>Node6&#45;&gt;Node3</title>
<g id="a_edge6_Node000006_Node000003"><a xlink:title=" ">
<path fill="none" stroke="#63b8ff" d="M298.52,-145.16C287.1,-143.55 275.32,-141.9 264.19,-140.33"/>
<polygon fill="#63b8ff" stroke="#63b8ff" points="298.05,-148.63 308.44,-146.55 299.03,-141.69 298.05,-148.63"/>
</a>
</g>
</g>
<!-- Node7&#45;&gt;Node3 -->
<g id="edge8_Node000007_Node000003" class="edge">
<title>Node7&#45;&gt;Node3</title>
<g id="a_edge8_Node000007_Node000003"><a xlink:title=" ">
<path fill="none" stroke="#63b8ff" d="M456.55,-184.14C411.72,-188.62 351.57,-190.61 300,-178.43 274.8,-172.48 248.63,-158.52 230.68,-147.52"/>
<polygon fill="#63b8ff" stroke="#63b8ff" points="457.17,-187.59 466.74,-183.05 456.42,-180.63 457.17,-187.59"/>
</a>
</g>
</g>
<!-- Node7&#45;&gt;Node6 -->
<g id="edge9_Node000007_Node000006" class="edge">
<title>Node7&#45;&gt;Node6</title>
<g id="a_edge9_Node000007_Node000006"><a xlink:title=" ">
<path fill="none" stroke="#63b8ff" d="M456.68,-165.96C445.36,-164.51 433.71,-163.02 422.69,-161.61"/>
<polygon fill="#63b8ff" stroke="#63b8ff" points="456.58,-169.47 466.94,-167.27 457.47,-162.53 456.58,-169.47"/>
</a>
</g>
</g>
<!-- Node8&#45;&gt;Node3 -->
<g id="edge11_Node000008_Node000003" class="edge">
<title>Node8&#45;&gt;Node3</title>
<g id="a_edge11_Node000008_Node000003"><a xlink:title=" ">
<path fill="none" stroke="#63b8ff" d="M468.94,-12.72C421.91,-0.55 353.15,9.25 300,-16.43 256.26,-37.57 226.96,-90.72 214.62,-117.1"/>
<polygon fill="#63b8ff" stroke="#63b8ff" points="468.07,-16.11 478.63,-15.34 469.89,-9.35 468.07,-16.11"/>
</a>
</g>
</g>
<!-- Node8&#45;&gt;Node6 -->
<g id="edge12_Node000008_Node000006" class="edge">
<title>Node8&#45;&gt;Node6</title>
<g id="a_edge12_Node000008_Node000006"><a xlink:title=" ">
<path fill="none" stroke="#63b8ff" d="M473.59,-50.33C471.32,-51.64 469.11,-53.01 467,-54.43 430.49,-79.09 395.9,-118.16 378.4,-139.43"/>
<polygon fill="#63b8ff" stroke="#63b8ff" points="475.37,-53.35 482.56,-45.57 472.09,-47.16 475.37,-53.35"/>
</a>
</g>
</g>
<!-- Node9 -->
<g id="Node000009" class="node">
<title>Node9</title>
<g id="a_Node000009"><a xlink:href="../../d8/d33/group__LCI__BASIC.html#ga04913a1823ea2481cf7ba1284c7abc64" target="_top" xlink:title="Add a functor as a node to the completion graph.">
<polygon fill="white" stroke="#666666" points="431,-44.93 300,-44.93 300,-25.93 431,-25.93 431,-44.93"/>
<text text-anchor="middle" x="365.5" y="-32.93" font-family="Helvetica,sans-Serif" font-size="10.00">lci::graph_add_node_op</text>
</a>
</g>
</g>
<!-- Node8&#45;&gt;Node9 -->
<g id="edge13_Node000008_Node000009" class="edge">
<title>Node8&#45;&gt;Node9</title>
<g id="a_edge13_Node000008_Node000009"><a xlink:title=" ">
<path fill="none" stroke="#63b8ff" d="M456.75,-32.55C448.3,-32.82 439.65,-33.1 431.22,-33.37"/>
<polygon fill="#63b8ff" stroke="#63b8ff" points="457.06,-36.04 466.94,-32.22 456.84,-29.05 457.06,-36.04"/>
</a>
</g>
</g>
<!-- Node10&#45;&gt;Node3 -->
<g id="edge15_Node000010_Node000003" class="edge">
<title>Node10&#45;&gt;Node3</title>
<g id="a_edge15_Node000010_Node000003"><a xlink:title=" ">
<path fill="none" stroke="#63b8ff" d="M456.56,-127.56C412.22,-128.33 352.62,-129.39 300,-130.43 288.5,-130.66 276.19,-130.92 264.44,-131.17"/>
<polygon fill="#63b8ff" stroke="#63b8ff" points="456.7,-131.06 466.63,-127.39 456.58,-124.06 456.7,-131.06"/>
</a>
</g>
</g>
<!-- Node10&#45;&gt;Node6 -->
<g id="edge16_Node000010_Node000006" class="edge">
<title>Node10&#45;&gt;Node6</title>
<g id="a_edge16_Node000010_Node000006"><a xlink:title=" ">
<path fill="none" stroke="#63b8ff" d="M457.02,-138.24C445.6,-140.28 433.82,-142.39 422.69,-144.38"/>
<polygon fill="#63b8ff" stroke="#63b8ff" points="457.71,-141.67 466.94,-136.46 456.48,-134.78 457.71,-141.67"/>
</a>
</g>
</g>
<!-- Node11&#45;&gt;Node3 -->
<g id="edge18_Node000011_Node000003" class="edge">
<title>Node11&#45;&gt;Node3</title>
<g id="a_edge18_Node000011_Node000003"><a xlink:title=" ">
<path fill="none" stroke="#63b8ff" d="M456.67,-89.8C399.55,-99.6 318.02,-113.57 264.09,-122.82"/>
<polygon fill="#63b8ff" stroke="#63b8ff" points="457.42,-93.23 466.68,-88.09 456.24,-86.33 457.42,-93.23"/>
</a>
</g>
</g>
<!-- Node11&#45;&gt;Node6 -->
<g id="edge19_Node000011_Node000006" class="edge">
<title>Node11&#45;&gt;Node6</title>
<g id="a_edge19_Node000011_Node000006"><a xlink:title=" ">
<path fill="none" stroke="#63b8ff" d="M477.36,-97.67C473.84,-99.25 470.35,-100.85 467,-102.43 442.13,-114.18 414.41,-128.63 394.39,-139.31"/>
<polygon fill="#63b8ff" stroke="#63b8ff" points="478.95,-100.79 486.68,-93.54 476.12,-94.39 478.95,-100.79"/>
</a>
</g>
</g>
<!-- Node11&#45;&gt;Node9 -->
<g id="edge20_Node000011_Node000009" class="edge">
<title>Node11&#45;&gt;Node9</title>
<g id="a_edge20_Node000011_Node000009"><a xlink:title=" ">
<path fill="none" stroke="#63b8ff" d="M458.48,-60.71C438.94,-55.34 418.21,-49.64 401.39,-45.02"/>
<polygon fill="#63b8ff" stroke="#63b8ff" points="457.69,-64.12 468.26,-63.39 459.55,-57.37 457.69,-64.12"/>
</a>
</g>
</g>
</g>
</svg>
