<?xml version="1.0" encoding="UTF-8" standalone="no"?>
<!DOCTYPE svg PUBLIC "-//W3C//DTD SVG 1.1//EN"
 "http://www.w3.org/Graphics/SVG/1.1/DTD/svg11.dtd">
<!-- Generated by graphviz version 2.43.0 (0)
 -->
<!-- Title: lci::graph_add_node_x::graph_add_node_x Pages: 1 -->
<svg width="750pt" height="200pt"
 viewBox="0.00 0.00 750.00 200.31" xmlns="http://www.w3.org/2000/svg" xmlns:xlink="http://www.w3.org/1999/xlink">
<g id="graph0" class="graph" transform="scale(1 1) rotate(0) translate(4 196.31)">
<title>lci::graph_add_node_x::graph_add_node_x</title>
<!-- Node1 -->
<g id="Node000001" class="node">
<title>Node1</title>
<g id="a_Node000001"><a xlink:title=" ">
<polygon fill="#999999" stroke="#666666" points="742,-120.31 617,-120.31 617,-90.31 742,-90.31 742,-120.31"/>
<text text-anchor="start" x="625" y="-108.31" font-family="Helvetica,sans-Serif" font-size="10.00">lci::graph_add_node</text>
<text text-anchor="middle" x="679.5" y="-97.31" font-family="Helvetica,sans-Serif" font-size="10.00">_x::graph_add_node_x</text>
</a>
</g>
</g>
<!-- Node2 -->
<g id="Node000002" class="node">
<title>Node2</title>
<g id="a_Node000002"><a xlink:href="../../d8/db8/classlci_1_1graph__add__node__x.html#af5a94360ae245e1d987f97035d7608c9" target="_top" xlink:title=" ">
<polygon fill="white" stroke="#666666" points="581,-144.31 467,-144.31 467,-114.31 581,-114.31 581,-144.31"/>
<text text-anchor="start" x="475" y="-132.31" font-family="Helvetica,sans-Serif" font-size="10.00">lci::graph_add_node</text>
<text text-anchor="middle" x="524" y="-121.31" font-family="Helvetica,sans-Serif" font-size="10.00">_x::comp</text>
</a>
</g>
</g>
<!-- Node1&#45;&gt;Node2 -->
<g id="edge1_Node000001_Node000002" class="edge">
<title>Node1&#45;&gt;Node2</title>
<g id="a_edge1_Node000001_Node000002"><a xlink:title=" ">
<path fill="none" stroke="#63b8ff" d="M606.86,-116.51C598.22,-117.86 589.48,-119.22 581.1,-120.54"/>
<polygon fill="#63b8ff" stroke="#63b8ff" points="607.61,-119.93 616.95,-114.93 606.53,-113.02 607.61,-119.93"/>
</a>
</g>
</g>
<!-- Node7 -->
<g id="Node000007" class="node">
<title>Node7</title>
<g id="a_Node000007"><a xlink:href="../../d8/db8/classlci_1_1graph__add__node__x.html#ab69e3173f39a1f4bdd1a90b6a5f4aa26" target="_top" xlink:title=" ">
<polygon fill="white" stroke="#666666" points="581,-96.31 467,-96.31 467,-66.31 581,-66.31 581,-96.31"/>
<text text-anchor="start" x="475" y="-84.31" font-family="Helvetica,sans-Serif" font-size="10.00">lci::graph_add_node</text>
<text text-anchor="middle" x="524" y="-73.31" font-family="Helvetica,sans-Serif" font-size="10.00">_x::fn</text>
</a>
</g>
</g>
<!-- Node1&#45;&gt;Node7 -->
<g id="edge7_Node000001_Node000007" class="edge">
<title>Node1&#45;&gt;Node7</title>
<g id="a_edge7_Node000001_Node000007"><a xlink:title=" ">
<path fill="none" stroke="#63b8ff" d="M606.86,-94.11C598.22,-92.75 589.48,-91.39 581.1,-90.08"/>
<polygon fill="#63b8ff" stroke="#63b8ff" points="606.53,-97.6 616.95,-95.68 607.61,-90.68 606.53,-97.6"/>
</a>
</g>
</g>
<!-- Node8 -->
<g id="Node000008" class="node">
<title>Node8</title>
<g id="a_Node000008"><a xlink:href="../../d8/db8/classlci_1_1graph__add__node__x.html#a3a7ff8b535243a36246e26a4ddae59cf" target="_top" xlink:title=" ">
<polygon fill="white" stroke="#666666" points="581,-192.31 467,-192.31 467,-162.31 581,-162.31 581,-192.31"/>
<text text-anchor="start" x="475" y="-180.31" font-family="Helvetica,sans-Serif" font-size="10.00">lci::graph_add_node</text>
<text text-anchor="middle" x="524" y="-169.31" font-family="Helvetica,sans-Serif" font-size="10.00">_x::runtime</text>
</a>
</g>
</g>
<!-- Node1&#45;&gt;Node8 -->
<g id="edge10_Node000001_Node000008" class="edge">
<title>Node1&#45;&gt;Node8</title>
<g id="a_edge10_Node000001_Node000008"><a xlink:title=" ">
<path fill="none" stroke="#63b8ff" d="M639.87,-124.9C622.05,-133.79 600.56,-144.31 581,-153.31 574.56,-156.27 567.66,-159.32 560.97,-162.22"/>
<polygon fill="#63b8ff" stroke="#63b8ff" points="641.45,-128.03 648.82,-120.42 638.32,-121.77 641.45,-128.03"/>
</a>
</g>
</g>
<!-- Node9 -->
<g id="Node000009" class="node">
<title>Node9</title>
<g id="a_Node000009"><a xlink:href="../../d8/db8/classlci_1_1graph__add__node__x.html#ad8884eb9033553a67cd075cfbcac2b25" target="_top" xlink:title=" ">
<polygon fill="white" stroke="#666666" points="581,-48.31 467,-48.31 467,-18.31 581,-18.31 581,-48.31"/>
<text text-anchor="start" x="475" y="-36.31" font-family="Helvetica,sans-Serif" font-size="10.00">lci::graph_add_node</text>
<text text-anchor="middle" x="524" y="-25.31" font-family="Helvetica,sans-Serif" font-size="10.00">_x::value</text>
</a>
</g>
</g>
<!-- Node1&#45;&gt;Node9 -->
<g id="edge13_Node000001_Node000009" class="edge">
<title>Node1&#45;&gt;Node9</title>
<g id="a_edge13_Node000001_Node000009"><a xlink:title=" ">
<path fill="none" stroke="#63b8ff" d="M639.87,-85.71C622.05,-76.82 600.56,-66.3 581,-57.31 574.56,-54.34 567.66,-51.29 560.97,-48.39"/>
<polygon fill="#63b8ff" stroke="#63b8ff" points="638.32,-88.84 648.82,-90.19 641.45,-82.58 638.32,-88.84"/>
</a>
</g>
</g>
<!-- Node3 -->
<g id="Node000003" class="node">
<title>Node3</title>
<g id="a_Node000003"><a xlink:href="../../d8/db8/classlci_1_1graph__add__node__x.html#a460287e23a6bd0f072f2edfc8d531138" target="_top" xlink:title=" ">
<polygon fill="white" stroke="#666666" points="264,-129.31 150,-129.31 150,-99.31 264,-99.31 264,-129.31"/>
<text text-anchor="start" x="158" y="-117.31" font-family="Helvetica,sans-Serif" font-size="10.00">lci::graph_add_node</text>
<text text-anchor="middle" x="207" y="-106.31" font-family="Helvetica,sans-Serif" font-size="10.00">_x::call</text>
</a>
</g>
</g>
<!-- Node2&#45;&gt;Node3 -->
<g id="edge2_Node000002_Node000003" class="edge">
<title>Node2&#45;&gt;Node3</title>
<g id="a_edge2_Node000002_Node000003"><a xlink:title=" ">
<path fill="none" stroke="#63b8ff" d="M456.76,-137.77C412.27,-142.04 352.41,-145.03 300,-138.31 285.59,-136.46 270.22,-133.04 256.25,-129.36"/>
<polygon fill="#63b8ff" stroke="#63b8ff" points="457.27,-141.24 466.87,-136.75 456.57,-134.27 457.27,-141.24"/>
</a>
</g>
</g>
<!-- Node6 -->
<g id="Node000006" class="node">
<title>Node6</title>
<g id="a_Node000006"><a xlink:href="../../d8/db8/classlci_1_1graph__add__node__x.html#aba648beb0aa746fd273201aec8f1fa23" target="_top" xlink:title=" ">
<polygon fill="white" stroke="#666666" points="422.5,-129.31 308.5,-129.31 308.5,-99.31 422.5,-99.31 422.5,-129.31"/>
<text text-anchor="start" x="316.5" y="-117.31" font-family="Helvetica,sans-Serif" font-size="10.00">lci::graph_add_node</text>
<text text-anchor="middle" x="365.5" y="-106.31" font-family="Helvetica,sans-Serif" font-size="10.00">_x::call_impl</text>
</a>
</g>
</g>
<!-- Node2&#45;&gt;Node6 -->
<g id="edge5_Node000002_Node000006" class="edge">
<title>Node2&#45;&gt;Node6</title>
<g id="a_edge5_Node000002_Node000006"><a xlink:title=" ">
<path fill="none" stroke="#63b8ff" d="M456.68,-122.95C445.36,-121.87 433.71,-120.75 422.69,-119.69"/>
<polygon fill="#63b8ff" stroke="#63b8ff" points="456.65,-126.46 466.94,-123.93 457.32,-119.5 456.65,-126.46"/>
</a>
</g>
</g>
<!-- Node4 -->
<g id="Node000004" class="node">
<title>Node4</title>
<g id="a_Node000004"><a xlink:href="../../d5/dd3/namespacelci.html#a8a64a022a1899659c11a5fed52cecb53" target="_top" xlink:title=" ">
<polygon fill="white" stroke="#666666" points="114,-145.81 0,-145.81 0,-126.81 114,-126.81 114,-145.81"/>
<text text-anchor="middle" x="57" y="-133.81" font-family="Helvetica,sans-Serif" font-size="10.00">lci::graph_add_node</text>
</a>
</g>
</g>
<!-- Node3&#45;&gt;Node4 -->
<g id="edge3_Node000003_Node000004" class="edge">
<title>Node3&#45;&gt;Node4</title>
<g id="a_edge3_Node000003_Node000004"><a xlink:title=" ">
<path fill="none" stroke="#63b8ff" d="M139.72,-124.16C131.2,-125.42 122.55,-126.71 114.22,-127.95"/>
<polygon fill="#63b8ff" stroke="#63b8ff" points="140.25,-127.62 149.63,-122.69 139.22,-120.69 140.25,-127.62"/>
</a>
</g>
</g>
<!-- Node5 -->
<g id="Node000005" class="node">
<title>Node5</title>
<g id="a_Node000005"><a xlink:href="../../d8/db8/classlci_1_1graph__add__node__x.html#a2795d364a95f2cc77b174c7230e6c6f7" target="_top" xlink:title=" ">
<polygon fill="white" stroke="#666666" points="114,-108.31 0,-108.31 0,-78.31 114,-78.31 114,-108.31"/>
<text text-anchor="start" x="8" y="-96.31" font-family="Helvetica,sans-Serif" font-size="10.00">lci::graph_add_node</text>
<text text-anchor="middle" x="57" y="-85.31" font-family="Helvetica,sans-Serif" font-size="10.00">_x::operator()</text>
</a>
</g>
</g>
<!-- Node3&#45;&gt;Node5 -->
<g id="edge4_Node000003_Node000005" class="edge">
<title>Node3&#45;&gt;Node5</title>
<g id="a_edge4_Node000003_Node000005"><a xlink:title=" ">
<path fill="none" stroke="#63b8ff" d="M139.72,-104.9C131.2,-103.69 122.55,-102.47 114.22,-101.28"/>
<polygon fill="#63b8ff" stroke="#63b8ff" points="139.23,-108.37 149.63,-106.31 140.22,-101.44 139.23,-108.37"/>
</a>
</g>
</g>
<!-- Node6&#45;&gt;Node3 -->
<g id="edge6_Node000006_Node000003" class="edge">
<title>Node6&#45;&gt;Node3</title>
<g id="a_edge6_Node000006_Node000003"><a xlink:title=" ">
<path fill="none" stroke="#63b8ff" d="M298.18,-114.31C286.86,-114.31 275.21,-114.31 264.19,-114.31"/>
<polygon fill="#63b8ff" stroke="#63b8ff" points="298.44,-117.81 308.44,-114.31 298.44,-110.81 298.44,-117.81"/>
</a>
</g>
</g>
<!-- Node7&#45;&gt;Node3 -->
<g id="edge8_Node000007_Node000003" class="edge">
<title>Node7&#45;&gt;Node3</title>
<g id="a_edge8_Node000007_Node000003"><a xlink:title=" ">
<path fill="none" stroke="#63b8ff" d="M456.67,-80.27C412.13,-80.48 352.27,-82.53 300,-90.31 286.12,-92.37 271.32,-95.71 257.73,-99.25"/>
<polygon fill="#63b8ff" stroke="#63b8ff" points="456.79,-83.77 466.78,-80.25 456.78,-76.77 456.79,-83.77"/>
</a>
</g>
</g>
<!-- Node7&#45;&gt;Node6 -->
<g id="edge9_Node000007_Node000006" class="edge">
<title>Node7&#45;&gt;Node6</title>
<g id="a_edge9_Node000007_Node000006"><a xlink:title=" ">
<path fill="none" stroke="#63b8ff" d="M457.02,-95.22C445.6,-97.63 433.82,-100.11 422.69,-102.46"/>
<polygon fill="#63b8ff" stroke="#63b8ff" points="457.88,-98.61 466.94,-93.13 456.43,-91.77 457.88,-98.61"/>
</a>
</g>
</g>
<!-- Node8&#45;&gt;Node3 -->
<g id="edge11_Node000008_Node000003" class="edge">
<title>Node8&#45;&gt;Node3</title>
<g id="a_edge11_Node000008_Node000003"><a xlink:title=" ">
<path fill="none" stroke="#63b8ff" d="M456.55,-175.25C411.73,-172.63 351.57,-166.7 300,-153.31 278.34,-147.68 255.15,-137.82 237.47,-129.42"/>
<polygon fill="#63b8ff" stroke="#63b8ff" points="456.56,-178.76 466.74,-175.81 456.94,-171.77 456.56,-178.76"/>
</a>
</g>
</g>
<!-- Node8&#45;&gt;Node6 -->
<g id="edge12_Node000008_Node000006" class="edge">
<title>Node8&#45;&gt;Node6</title>
<g id="a_edge12_Node000008_Node000006"><a xlink:title=" ">
<path fill="none" stroke="#63b8ff" d="M475.93,-158.36C452.9,-149.09 425.55,-138.08 403.95,-129.38"/>
<polygon fill="#63b8ff" stroke="#63b8ff" points="474.93,-161.73 485.51,-162.22 477.54,-155.23 474.93,-161.73"/>
</a>
</g>
</g>
<!-- Node9&#45;&gt;Node3 -->
<g id="edge14_Node000009_Node000003" class="edge">
<title>Node9&#45;&gt;Node3</title>
<g id="a_edge14_Node000009_Node000003"><a xlink:title=" ">
<path fill="none" stroke="#63b8ff" d="M471.99,-15.46C425.25,-2.17 355.14,9.89 300,-14.31 260.25,-31.75 230.11,-75.78 216.31,-99.16"/>
<polygon fill="#63b8ff" stroke="#63b8ff" points="471.01,-18.82 481.59,-18.3 473,-12.11 471.01,-18.82"/>
</a>
</g>
</g>
<!-- Node9&#45;&gt;Node6 -->
<g id="edge15_Node000009_Node000006" class="edge">
<title>Node9&#45;&gt;Node6</title>
<g id="a_edge15_Node000009_Node000006"><a xlink:title=" ">
<path fill="none" stroke="#63b8ff" d="M477.13,-52.47C473.68,-54.06 470.27,-55.68 467,-57.31 440.58,-70.41 411.37,-87.26 391.28,-99.23"/>
<polygon fill="#63b8ff" stroke="#63b8ff" points="478.6,-55.65 486.28,-48.35 475.73,-49.26 478.6,-55.65"/>
</a>
</g>
</g>
<!-- Node10 -->
<g id="Node000010" class="node">
<title>Node10</title>
<g id="a_Node000010"><a xlink:href="../../d8/d33/group__LCI__BASIC.html#ga04913a1823ea2481cf7ba1284c7abc64" target="_top" xlink:title="Add a functor as a node to the completion graph.">
<polygon fill="white" stroke="#666666" points="431,-42.81 300,-42.81 300,-23.81 431,-23.81 431,-42.81"/>
<text text-anchor="middle" x="365.5" y="-30.81" font-family="Helvetica,sans-Serif" font-size="10.00">lci::graph_add_node_op</text>
</a>
</g>
</g>
<!-- Node9&#45;&gt;Node10 -->
<g id="edge16_Node000009_Node000010" class="edge">
<title>Node9&#45;&gt;Node10</title>
<g id="a_edge16_Node000009_Node000010"><a xlink:title=" ">
<path fill="none" stroke="#63b8ff" d="M456.75,-33.31C448.3,-33.31 439.65,-33.31 431.22,-33.31"/>
<polygon fill="#63b8ff" stroke="#63b8ff" points="456.94,-36.81 466.94,-33.31 456.94,-29.81 456.94,-36.81"/>
</a>
</g>
</g>
</g>
</svg>
