<?xml version="1.0" encoding="UTF-8" standalone="no"?>
<!DOCTYPE svg PUBLIC "-//W3C//DTD SVG 1.1//EN"
 "http://www.w3.org/Graphics/SVG/1.1/DTD/svg11.dtd">
<!-- Generated by graphviz version 2.43.0 (0)
 -->
<!-- Title: lci::net_post_get_x::call Pages: 1 -->
<svg width="571pt" height="450pt"
 viewBox="0.00 0.00 571.00 450.00" xmlns="http://www.w3.org/2000/svg" xmlns:xlink="http://www.w3.org/1999/xlink">
<g id="graph0" class="graph" transform="scale(1 1) rotate(0) translate(4 446)">
<title>lci::net_post_get_x::call</title>
<!-- Node1 -->
<g id="Node000001" class="node">
<title>Node1</title>
<g id="a_Node000001"><a xlink:title=" ">
<polygon fill="#999999" stroke="#666666" points="108,-236 0,-236 0,-206 108,-206 108,-236"/>
<text text-anchor="start" x="8" y="-224" font-family="Helvetica,sans-Serif" font-size="10.00">lci::net_post_get_x</text>
<text text-anchor="middle" x="54" y="-213" font-family="Helvetica,sans-Serif" font-size="10.00">::call</text>
</a>
</g>
</g>
<!-- Node2 -->
<g id="Node000002" class="node">
<title>Node2</title>
<g id="a_Node000002"><a xlink:href="../../d8/d89/classlci_1_1net__post__get__x.html#a0166e5be0d83571fd1d82fef82efb149" target="_top" xlink:title=" ">
<polygon fill="white" stroke="#666666" points="407.5,-442 299.5,-442 299.5,-412 407.5,-412 407.5,-442"/>
<text text-anchor="start" x="307.5" y="-430" font-family="Helvetica,sans-Serif" font-size="10.00">lci::net_post_get_x</text>
<text text-anchor="middle" x="353.5" y="-419" font-family="Helvetica,sans-Serif" font-size="10.00">::buffer</text>
</a>
</g>
</g>
<!-- Node1&#45;&gt;Node2 -->
<g id="edge1_Node000001_Node000002" class="edge">
<title>Node1&#45;&gt;Node2</title>
<g id="a_edge1_Node000001_Node000002"><a xlink:title=" ">
<path fill="none" stroke="#63b8ff" d="M61.8,-236.26C74.35,-262.79 103.62,-317.6 144,-349 186.83,-382.31 245.38,-402.54 289.54,-414.02"/>
<polygon fill="#63b8ff" stroke="#63b8ff" points="288.74,-417.43 299.3,-416.48 290.45,-410.64 288.74,-417.43"/>
</a>
</g>
</g>
<!-- Node4 -->
<g id="Node000004" class="node">
<title>Node4</title>
<g id="a_Node000004"><a xlink:href="../../d8/d89/classlci_1_1net__post__get__x.html#a726d32defe488aae4a962bd7524c07f8" target="_top" xlink:title=" ">
<polygon fill="white" stroke="#666666" points="252,-236 144,-236 144,-206 252,-206 252,-236"/>
<text text-anchor="start" x="152" y="-224" font-family="Helvetica,sans-Serif" font-size="10.00">lci::net_post_get_x</text>
<text text-anchor="middle" x="198" y="-213" font-family="Helvetica,sans-Serif" font-size="10.00">::call_impl</text>
</a>
</g>
</g>
<!-- Node1&#45;&gt;Node4 -->
<g id="edge3_Node000001_Node000004" class="edge">
<title>Node1&#45;&gt;Node4</title>
<g id="a_edge3_Node000001_Node000004"><a xlink:title=" ">
<path fill="none" stroke="#63b8ff" d="M108.28,-221C116.56,-221 125.18,-221 133.66,-221"/>
<polygon fill="#63b8ff" stroke="#63b8ff" points="133.89,-224.5 143.89,-221 133.89,-217.5 133.89,-224.5"/>
</a>
</g>
</g>
<!-- Node5 -->
<g id="Node000005" class="node">
<title>Node5</title>
<g id="a_Node000005"><a xlink:href="../../d8/d89/classlci_1_1net__post__get__x.html#a1ce6626759a9c36fbf4415498dab893d" target="_top" xlink:title=" ">
<polygon fill="white" stroke="#666666" points="407.5,-394 299.5,-394 299.5,-364 407.5,-364 407.5,-394"/>
<text text-anchor="start" x="307.5" y="-382" font-family="Helvetica,sans-Serif" font-size="10.00">lci::net_post_get_x</text>
<text text-anchor="middle" x="353.5" y="-371" font-family="Helvetica,sans-Serif" font-size="10.00">::device</text>
</a>
</g>
</g>
<!-- Node1&#45;&gt;Node5 -->
<g id="edge23_Node000001_Node000005" class="edge">
<title>Node1&#45;&gt;Node5</title>
<g id="a_edge23_Node000001_Node000005"><a xlink:title=" ">
<path fill="none" stroke="#63b8ff" d="M65.59,-236.15C80.7,-256.68 110.38,-293.16 144,-314 188.7,-341.7 246.17,-358.47 289.44,-368.01"/>
<polygon fill="#63b8ff" stroke="#63b8ff" points="288.78,-371.45 299.29,-370.11 290.24,-364.6 288.78,-371.45"/>
</a>
</g>
</g>
<!-- Node6 -->
<g id="Node000006" class="node">
<title>Node6</title>
<g id="a_Node000006"><a xlink:href="../../d8/d89/classlci_1_1net__post__get__x.html#a02b2358a9415efea83cb10dc856259b3" target="_top" xlink:title=" ">
<polygon fill="white" stroke="#666666" points="407.5,-346 299.5,-346 299.5,-316 407.5,-316 407.5,-346"/>
<text text-anchor="start" x="307.5" y="-334" font-family="Helvetica,sans-Serif" font-size="10.00">lci::net_post_get_x</text>
<text text-anchor="middle" x="353.5" y="-323" font-family="Helvetica,sans-Serif" font-size="10.00">::endpoint</text>
</a>
</g>
</g>
<!-- Node1&#45;&gt;Node6 -->
<g id="edge24_Node000001_Node000006" class="edge">
<title>Node1&#45;&gt;Node6</title>
<g id="a_edge24_Node000001_Node000006"><a xlink:title=" ">
<path fill="none" stroke="#63b8ff" d="M71.81,-236.01C88.83,-250.42 116.5,-271.76 144,-284 190.45,-304.68 246.9,-316.68 289.35,-323.38"/>
<polygon fill="#63b8ff" stroke="#63b8ff" points="288.86,-326.85 299.27,-324.89 289.91,-319.92 288.86,-326.85"/>
</a>
</g>
</g>
<!-- Node7 -->
<g id="Node000007" class="node">
<title>Node7</title>
<g id="a_Node000007"><a xlink:href="../../d8/d89/classlci_1_1net__post__get__x.html#a27b181e34a6fe544695659fc3b1b5c93" target="_top" xlink:title=" ">
<polygon fill="white" stroke="#666666" points="417.5,-297.5 289.5,-297.5 289.5,-278.5 417.5,-278.5 417.5,-297.5"/>
<text text-anchor="middle" x="353.5" y="-285.5" font-family="Helvetica,sans-Serif" font-size="10.00">lci::net_post_get_x::mr</text>
</a>
</g>
</g>
<!-- Node1&#45;&gt;Node7 -->
<g id="edge25_Node000001_Node000007" class="edge">
<title>Node1&#45;&gt;Node7</title>
<g id="a_edge25_Node000001_Node000007"><a xlink:title=" ">
<path fill="none" stroke="#63b8ff" d="M83.06,-236.18C100.19,-244.79 122.81,-255.01 144,-261 188.04,-273.45 238.95,-280.18 279.44,-283.81"/>
<polygon fill="#63b8ff" stroke="#63b8ff" points="279.24,-287.31 289.5,-284.67 279.83,-280.33 279.24,-287.31"/>
</a>
</g>
</g>
<!-- Node8 -->
<g id="Node000008" class="node">
<title>Node8</title>
<g id="a_Node000008"><a xlink:href="../../d8/d89/classlci_1_1net__post__get__x.html#af7c26425db19974b0a48d9ba35ea445a" target="_top" xlink:title=" ">
<polygon fill="white" stroke="#666666" points="407.5,-260 299.5,-260 299.5,-230 407.5,-230 407.5,-260"/>
<text text-anchor="start" x="307.5" y="-248" font-family="Helvetica,sans-Serif" font-size="10.00">lci::net_post_get_x</text>
<text text-anchor="middle" x="353.5" y="-237" font-family="Helvetica,sans-Serif" font-size="10.00">::offset</text>
</a>
</g>
</g>
<!-- Node1&#45;&gt;Node8 -->
<g id="edge26_Node000001_Node000008" class="edge">
<title>Node1&#45;&gt;Node8</title>
<g id="a_edge26_Node000001_Node000008"><a xlink:title=" ">
<path fill="none" stroke="#63b8ff" d="M101.64,-236.05C115.16,-239.74 130.04,-243.15 144,-245 192.3,-251.4 247.44,-251.07 288.89,-249.32"/>
<polygon fill="#63b8ff" stroke="#63b8ff" points="289.29,-252.8 299.11,-248.84 288.96,-245.81 289.29,-252.8"/>
</a>
</g>
</g>
<!-- Node9 -->
<g id="Node000009" class="node">
<title>Node9</title>
<g id="a_Node000009"><a xlink:href="../../d8/d89/classlci_1_1net__post__get__x.html#a92152bfa9633fd62d03b420a6fea9d56" target="_top" xlink:title=" ">
<polygon fill="white" stroke="#666666" points="407.5,-212 299.5,-212 299.5,-182 407.5,-182 407.5,-212"/>
<text text-anchor="start" x="307.5" y="-200" font-family="Helvetica,sans-Serif" font-size="10.00">lci::net_post_get_x</text>
<text text-anchor="middle" x="353.5" y="-189" font-family="Helvetica,sans-Serif" font-size="10.00">::rank</text>
</a>
</g>
</g>
<!-- Node1&#45;&gt;Node9 -->
<g id="edge27_Node000001_Node000009" class="edge">
<title>Node1&#45;&gt;Node9</title>
<g id="a_edge27_Node000001_Node000009"><a xlink:title=" ">
<path fill="none" stroke="#63b8ff" d="M101.64,-205.95C115.16,-202.26 130.04,-198.85 144,-197 192.3,-190.6 247.44,-190.93 288.89,-192.68"/>
<polygon fill="#63b8ff" stroke="#63b8ff" points="288.96,-196.19 299.11,-193.16 289.29,-189.2 288.96,-196.19"/>
</a>
</g>
</g>
<!-- Node10 -->
<g id="Node000010" class="node">
<title>Node10</title>
<g id="a_Node000010"><a xlink:href="../../d8/d89/classlci_1_1net__post__get__x.html#a0702f9863aa49499901e92b61e966563" target="_top" xlink:title=" ">
<polygon fill="white" stroke="#666666" points="419,-163.5 288,-163.5 288,-144.5 419,-144.5 419,-163.5"/>
<text text-anchor="middle" x="353.5" y="-151.5" font-family="Helvetica,sans-Serif" font-size="10.00">lci::net_post_get_x::rmr</text>
</a>
</g>
</g>
<!-- Node1&#45;&gt;Node10 -->
<g id="edge28_Node000001_Node000010" class="edge">
<title>Node1&#45;&gt;Node10</title>
<g id="a_edge28_Node000001_Node000010"><a xlink:title=" ">
<path fill="none" stroke="#63b8ff" d="M89.53,-205.89C105.8,-199.27 125.62,-191.91 144,-187 187.74,-175.32 237.82,-167.23 277.93,-161.98"/>
<polygon fill="#63b8ff" stroke="#63b8ff" points="278.43,-165.45 287.9,-160.71 277.54,-158.5 278.43,-165.45"/>
</a>
</g>
</g>
<!-- Node11 -->
<g id="Node000011" class="node">
<title>Node11</title>
<g id="a_Node000011"><a xlink:href="../../d8/d89/classlci_1_1net__post__get__x.html#a71489824a789c3183c97bdf21b762af5" target="_top" xlink:title=" ">
<polygon fill="white" stroke="#666666" points="407.5,-126 299.5,-126 299.5,-96 407.5,-96 407.5,-126"/>
<text text-anchor="start" x="307.5" y="-114" font-family="Helvetica,sans-Serif" font-size="10.00">lci::net_post_get_x</text>
<text text-anchor="middle" x="353.5" y="-103" font-family="Helvetica,sans-Serif" font-size="10.00">::runtime</text>
</a>
</g>
</g>
<!-- Node1&#45;&gt;Node11 -->
<g id="edge29_Node000001_Node000011" class="edge">
<title>Node1&#45;&gt;Node11</title>
<g id="a_edge29_Node000001_Node000011"><a xlink:title=" ">
<path fill="none" stroke="#63b8ff" d="M73.28,-205.78C90.51,-192.17 117.56,-172.63 144,-161 190.69,-140.47 247.13,-127.59 289.5,-120.06"/>
<polygon fill="#63b8ff" stroke="#63b8ff" points="290.15,-123.5 299.41,-118.35 288.96,-116.6 290.15,-123.5"/>
</a>
</g>
</g>
<!-- Node12 -->
<g id="Node000012" class="node">
<title>Node12</title>
<g id="a_Node000012"><a xlink:href="../../d8/d89/classlci_1_1net__post__get__x.html#a5b3bd21f1b10b01c610accac17589ff9" target="_top" xlink:title=" ">
<polygon fill="white" stroke="#666666" points="407.5,-78 299.5,-78 299.5,-48 407.5,-48 407.5,-78"/>
<text text-anchor="start" x="307.5" y="-66" font-family="Helvetica,sans-Serif" font-size="10.00">lci::net_post_get_x</text>
<text text-anchor="middle" x="353.5" y="-55" font-family="Helvetica,sans-Serif" font-size="10.00">::size</text>
</a>
</g>
</g>
<!-- Node1&#45;&gt;Node12 -->
<g id="edge30_Node000001_Node000012" class="edge">
<title>Node1&#45;&gt;Node12</title>
<g id="a_edge30_Node000001_Node000012"><a xlink:title=" ">
<path fill="none" stroke="#63b8ff" d="M64.88,-205.82C79.59,-184.42 109.26,-145.61 144,-124 188.42,-96.37 245.91,-80.77 289.26,-72.28"/>
<polygon fill="#63b8ff" stroke="#63b8ff" points="289.95,-75.71 299.13,-70.42 288.65,-68.84 289.95,-75.71"/>
</a>
</g>
</g>
<!-- Node13 -->
<g id="Node000013" class="node">
<title>Node13</title>
<g id="a_Node000013"><a xlink:href="../../d8/d89/classlci_1_1net__post__get__x.html#abde6280396747de6fa5bf34635d96d3b" target="_top" xlink:title=" ">
<polygon fill="white" stroke="#666666" points="407.5,-30 299.5,-30 299.5,0 407.5,0 407.5,-30"/>
<text text-anchor="start" x="307.5" y="-18" font-family="Helvetica,sans-Serif" font-size="10.00">lci::net_post_get_x</text>
<text text-anchor="middle" x="353.5" y="-7" font-family="Helvetica,sans-Serif" font-size="10.00">::user_context</text>
</a>
</g>
</g>
<!-- Node1&#45;&gt;Node13 -->
<g id="edge31_Node000001_Node000013" class="edge">
<title>Node1&#45;&gt;Node13</title>
<g id="a_edge31_Node000001_Node000013"><a xlink:title=" ">
<path fill="none" stroke="#63b8ff" d="M60.16,-205.85C70.96,-176.48 98.72,-111.65 144,-77 186.15,-44.75 244.87,-29.22 289.25,-21.78"/>
<polygon fill="#63b8ff" stroke="#63b8ff" points="290.02,-25.2 299.35,-20.18 288.93,-18.28 290.02,-25.2"/>
</a>
</g>
</g>
<!-- Node3 -->
<g id="Node000003" class="node">
<title>Node3</title>
<g id="a_Node000003"><a xlink:href="../../d8/d89/classlci_1_1net__post__get__x.html#ae9e79970d5b07e7ddcb6b8f3dd535e79" target="_top" xlink:title=" ">
<polygon fill="white" stroke="#666666" points="563,-236 455,-236 455,-206 563,-206 563,-236"/>
<text text-anchor="start" x="463" y="-224" font-family="Helvetica,sans-Serif" font-size="10.00">lci::net_post_get_x</text>
<text text-anchor="middle" x="509" y="-213" font-family="Helvetica,sans-Serif" font-size="10.00">::net_post_get_x</text>
</a>
</g>
</g>
<!-- Node2&#45;&gt;Node3 -->
<g id="edge2_Node000002_Node000003" class="edge">
<title>Node2&#45;&gt;Node3</title>
<g id="a_edge2_Node000002_Node000003"><a xlink:title=" ">
<path fill="none" stroke="#63b8ff" d="M406.24,-411.97C410.84,-409.42 415.19,-406.45 419,-403 466.89,-359.61 491.88,-284.76 502.18,-245.95"/>
<polygon fill="#63b8ff" stroke="#63b8ff" points="505.63,-246.57 504.7,-236.02 498.84,-244.85 505.63,-246.57"/>
</a>
</g>
</g>
<!-- Node4&#45;&gt;Node2 -->
<g id="edge4_Node000004_Node000002" class="edge">
<title>Node4&#45;&gt;Node2</title>
<g id="a_edge4_Node000004_Node000002"><a xlink:title=" ">
<path fill="none" stroke="#63b8ff" d="M202.3,-236.02C210.62,-270.41 235.61,-355.53 288,-403 289.31,-404.19 290.68,-405.31 292.11,-406.39"/>
<polygon fill="#63b8ff" stroke="#63b8ff" points="290.45,-409.49 300.76,-411.97 294.25,-403.61 290.45,-409.49"/>
</a>
</g>
</g>
<!-- Node4&#45;&gt;Node5 -->
<g id="edge5_Node000004_Node000005" class="edge">
<title>Node4&#45;&gt;Node5</title>
<g id="a_edge5_Node000004_Node000005"><a xlink:title=" ">
<path fill="none" stroke="#63b8ff" d="M205.22,-236.12C217.23,-263.58 246.2,-321.86 288,-355 289.75,-356.39 291.59,-357.7 293.49,-358.94"/>
<polygon fill="#63b8ff" stroke="#63b8ff" points="291.78,-361.99 302.19,-363.94 295.27,-355.92 291.78,-361.99"/>
</a>
</g>
</g>
<!-- Node4&#45;&gt;Node6 -->
<g id="edge7_Node000004_Node000006" class="edge">
<title>Node4&#45;&gt;Node6</title>
<g id="a_edge7_Node000004_Node000006"><a xlink:title=" ">
<path fill="none" stroke="#63b8ff" d="M211.08,-236.01C226.96,-254.88 256.55,-287.18 288,-307 290.46,-308.55 293.04,-310.03 295.69,-311.42"/>
<polygon fill="#63b8ff" stroke="#63b8ff" points="294.39,-314.68 304.92,-315.88 297.43,-308.38 294.39,-314.68"/>
</a>
</g>
</g>
<!-- Node4&#45;&gt;Node7 -->
<g id="edge9_Node000004_Node000007" class="edge">
<title>Node4&#45;&gt;Node7</title>
<g id="a_edge9_Node000004_Node000007"><a xlink:title=" ">
<path fill="none" stroke="#63b8ff" d="M223.64,-236.09C241.14,-246.36 265.44,-259.71 288,-269 293.53,-271.28 299.43,-273.4 305.34,-275.35"/>
<polygon fill="#63b8ff" stroke="#63b8ff" points="304.62,-278.79 315.2,-278.45 306.71,-272.11 304.62,-278.79"/>
</a>
</g>
</g>
<!-- Node4&#45;&gt;Node8 -->
<g id="edge11_Node000004_Node000008" class="edge">
<title>Node4&#45;&gt;Node8</title>
<g id="a_edge11_Node000004_Node000008"><a xlink:title=" ">
<path fill="none" stroke="#63b8ff" d="M252.26,-229.33C264.16,-231.19 276.9,-233.18 289.17,-235.1"/>
<polygon fill="#63b8ff" stroke="#63b8ff" points="288.92,-238.6 299.34,-236.69 290,-231.69 288.92,-238.6"/>
</a>
</g>
</g>
<!-- Node4&#45;&gt;Node9 -->
<g id="edge13_Node000004_Node000009" class="edge">
<title>Node4&#45;&gt;Node9</title>
<g id="a_edge13_Node000004_Node000009"><a xlink:title=" ">
<path fill="none" stroke="#63b8ff" d="M252.26,-212.67C264.16,-210.81 276.9,-208.82 289.17,-206.9"/>
<polygon fill="#63b8ff" stroke="#63b8ff" points="290,-210.31 299.34,-205.31 288.92,-203.4 290,-210.31"/>
</a>
</g>
</g>
<!-- Node4&#45;&gt;Node10 -->
<g id="edge15_Node000004_Node000010" class="edge">
<title>Node4&#45;&gt;Node10</title>
<g id="a_edge15_Node000004_Node000010"><a xlink:title=" ">
<path fill="none" stroke="#63b8ff" d="M223.64,-205.91C241.14,-195.64 265.44,-182.29 288,-173 293.53,-170.72 299.43,-168.6 305.34,-166.65"/>
<polygon fill="#63b8ff" stroke="#63b8ff" points="306.71,-169.89 315.2,-163.55 304.62,-163.21 306.71,-169.89"/>
</a>
</g>
</g>
<!-- Node4&#45;&gt;Node11 -->
<g id="edge17_Node000004_Node000011" class="edge">
<title>Node4&#45;&gt;Node11</title>
<g id="a_edge17_Node000004_Node000011"><a xlink:title=" ">
<path fill="none" stroke="#63b8ff" d="M211.44,-205.92C227.47,-187.31 256.98,-155.71 288,-136 291.12,-134.02 294.43,-132.15 297.83,-130.39"/>
<polygon fill="#63b8ff" stroke="#63b8ff" points="299.46,-133.49 306.98,-126.03 296.45,-127.17 299.46,-133.49"/>
</a>
</g>
</g>
<!-- Node4&#45;&gt;Node12 -->
<g id="edge19_Node000004_Node000012" class="edge">
<title>Node4&#45;&gt;Node12</title>
<g id="a_edge19_Node000004_Node000012"><a xlink:title=" ">
<path fill="none" stroke="#63b8ff" d="M205.22,-205.88C217.23,-178.42 246.2,-120.14 288,-87 289.75,-85.61 291.59,-84.3 293.49,-83.06"/>
<polygon fill="#63b8ff" stroke="#63b8ff" points="295.27,-86.08 302.19,-78.06 291.78,-80.01 295.27,-86.08"/>
</a>
</g>
</g>
<!-- Node4&#45;&gt;Node13 -->
<g id="edge21_Node000004_Node000013" class="edge">
<title>Node4&#45;&gt;Node13</title>
<g id="a_edge21_Node000004_Node000013"><a xlink:title=" ">
<path fill="none" stroke="#63b8ff" d="M202.3,-205.98C210.62,-171.59 235.61,-86.47 288,-39 289.31,-37.81 290.68,-36.69 292.11,-35.61"/>
<polygon fill="#63b8ff" stroke="#63b8ff" points="294.25,-38.39 300.76,-30.03 290.45,-32.51 294.25,-38.39"/>
</a>
</g>
</g>
<!-- Node5&#45;&gt;Node3 -->
<g id="edge6_Node000005_Node000003" class="edge">
<title>Node5&#45;&gt;Node3</title>
<g id="a_edge6_Node000005_Node000003"><a xlink:title=" ">
<path fill="none" stroke="#63b8ff" d="M404.81,-363.94C409.85,-361.38 414.69,-358.41 419,-355 456.55,-325.23 483.75,-275.16 497.6,-245.38"/>
<polygon fill="#63b8ff" stroke="#63b8ff" points="500.86,-246.67 501.78,-236.12 494.48,-243.79 500.86,-246.67"/>
</a>
</g>
</g>
<!-- Node6&#45;&gt;Node3 -->
<g id="edge8_Node000006_Node000003" class="edge">
<title>Node6&#45;&gt;Node3</title>
<g id="a_edge8_Node000006_Node000003"><a xlink:title=" ">
<path fill="none" stroke="#63b8ff" d="M402.08,-315.88C407.96,-313.27 413.74,-310.31 419,-307 446.52,-289.66 472.61,-262.76 489.34,-243.66"/>
<polygon fill="#63b8ff" stroke="#63b8ff" points="492.06,-245.88 495.92,-236.01 486.75,-241.32 492.06,-245.88"/>
</a>
</g>
</g>
<!-- Node7&#45;&gt;Node3 -->
<g id="edge10_Node000007_Node000003" class="edge">
<title>Node7&#45;&gt;Node3</title>
<g id="a_edge10_Node000007_Node000003"><a xlink:title=" ">
<path fill="none" stroke="#63b8ff" d="M391.8,-278.45C400.83,-275.74 410.36,-272.56 419,-269 438.04,-261.16 458.31,-250.43 474.69,-241.1"/>
<polygon fill="#63b8ff" stroke="#63b8ff" points="476.46,-244.13 483.36,-236.09 472.95,-238.07 476.46,-244.13"/>
</a>
</g>
</g>
<!-- Node8&#45;&gt;Node3 -->
<g id="edge12_Node000008_Node000003" class="edge">
<title>Node8&#45;&gt;Node3</title>
<g id="a_edge12_Node000008_Node000003"><a xlink:title=" ">
<path fill="none" stroke="#63b8ff" d="M407.76,-236.67C419.66,-234.81 432.4,-232.82 444.67,-230.9"/>
<polygon fill="#63b8ff" stroke="#63b8ff" points="445.5,-234.31 454.84,-229.31 444.42,-227.4 445.5,-234.31"/>
</a>
</g>
</g>
<!-- Node9&#45;&gt;Node3 -->
<g id="edge14_Node000009_Node000003" class="edge">
<title>Node9&#45;&gt;Node3</title>
<g id="a_edge14_Node000009_Node000003"><a xlink:title=" ">
<path fill="none" stroke="#63b8ff" d="M407.76,-205.33C419.66,-207.19 432.4,-209.18 444.67,-211.1"/>
<polygon fill="#63b8ff" stroke="#63b8ff" points="444.42,-214.6 454.84,-212.69 445.5,-207.69 444.42,-214.6"/>
</a>
</g>
</g>
<!-- Node10&#45;&gt;Node3 -->
<g id="edge16_Node000010_Node000003" class="edge">
<title>Node10&#45;&gt;Node3</title>
<g id="a_edge16_Node000010_Node000003"><a xlink:title=" ">
<path fill="none" stroke="#63b8ff" d="M391.8,-163.55C400.83,-166.26 410.36,-169.44 419,-173 438.04,-180.84 458.31,-191.57 474.69,-200.9"/>
<polygon fill="#63b8ff" stroke="#63b8ff" points="472.95,-203.93 483.36,-205.91 476.46,-197.87 472.95,-203.93"/>
</a>
</g>
</g>
<!-- Node11&#45;&gt;Node3 -->
<g id="edge18_Node000011_Node000003" class="edge">
<title>Node11&#45;&gt;Node3</title>
<g id="a_edge18_Node000011_Node000003"><a xlink:title=" ">
<path fill="none" stroke="#63b8ff" d="M400.02,-126.03C406.6,-128.94 413.12,-132.26 419,-136 446.14,-153.25 472.13,-179.59 488.94,-198.38"/>
<polygon fill="#63b8ff" stroke="#63b8ff" points="486.33,-200.71 495.56,-205.92 491.59,-196.09 486.33,-200.71"/>
</a>
</g>
</g>
<!-- Node12&#45;&gt;Node3 -->
<g id="edge20_Node000012_Node000003" class="edge">
<title>Node12&#45;&gt;Node3</title>
<g id="a_edge20_Node000012_Node000003"><a xlink:title=" ">
<path fill="none" stroke="#63b8ff" d="M404.81,-78.06C409.85,-80.62 414.69,-83.59 419,-87 456.55,-116.77 483.75,-166.84 497.6,-196.62"/>
<polygon fill="#63b8ff" stroke="#63b8ff" points="494.48,-198.21 501.78,-205.88 500.86,-195.33 494.48,-198.21"/>
</a>
</g>
</g>
<!-- Node13&#45;&gt;Node3 -->
<g id="edge22_Node000013_Node000003" class="edge">
<title>Node13&#45;&gt;Node3</title>
<g id="a_edge22_Node000013_Node000003"><a xlink:title=" ">
<path fill="none" stroke="#63b8ff" d="M406.24,-30.03C410.84,-32.58 415.19,-35.55 419,-39 466.89,-82.39 491.88,-157.24 502.18,-196.05"/>
<polygon fill="#63b8ff" stroke="#63b8ff" points="498.84,-197.15 504.7,-205.98 505.63,-195.43 498.84,-197.15"/>
</a>
</g>
</g>
</g>
</svg>
