<?xml version="1.0" encoding="UTF-8" standalone="no"?>
<!DOCTYPE svg PUBLIC "-//W3C//DTD SVG 1.1//EN"
 "http://www.w3.org/Graphics/SVG/1.1/DTD/svg11.dtd">
<!-- Generated by graphviz version 2.43.0 (0)
 -->
<!-- Title: lci::net_post_get_x::net_post_get_x Pages: 1 -->
<svg width="712pt" height="508pt"
 viewBox="0.00 0.00 712.00 508.00" xmlns="http://www.w3.org/2000/svg" xmlns:xlink="http://www.w3.org/1999/xlink">
<g id="graph0" class="graph" transform="scale(1 1) rotate(0) translate(4 504)">
<title>lci::net_post_get_x::net_post_get_x</title>
<!-- Node1 -->
<g id="Node000001" class="node">
<title>Node1</title>
<g id="a_Node000001"><a xlink:title=" ">
<polygon fill="#999999" stroke="#666666" points="704,-270 596,-270 596,-240 704,-240 704,-270"/>
<text text-anchor="start" x="604" y="-258" font-family="Helvetica,sans-Serif" font-size="10.00">lci::net_post_get_x</text>
<text text-anchor="middle" x="650" y="-247" font-family="Helvetica,sans-Serif" font-size="10.00">::net_post_get_x</text>
</a>
</g>
</g>
<!-- Node2 -->
<g id="Node000002" class="node">
<title>Node2</title>
<g id="a_Node000002"><a xlink:href="../../d8/d89/classlci_1_1net__post__get__x.html#a1bbf778849935ad6ad16bcb2f183bdad" target="_top" xlink:title=" ">
<polygon fill="white" stroke="#666666" points="550,-500 442,-500 442,-470 550,-470 550,-500"/>
<text text-anchor="start" x="450" y="-488" font-family="Helvetica,sans-Serif" font-size="10.00">lci::net_post_get_x</text>
<text text-anchor="middle" x="496" y="-477" font-family="Helvetica,sans-Serif" font-size="10.00">::base</text>
</a>
</g>
</g>
<!-- Node1&#45;&gt;Node2 -->
<g id="edge1_Node000001_Node000002" class="edge">
<title>Node1&#45;&gt;Node2</title>
<g id="a_edge1_Node000001_Node000002"><a xlink:title=" ">
<path fill="none" stroke="#63b8ff" d="M644.71,-280.12C636.12,-322.94 612.93,-410.34 560,-461 556.45,-464.4 552.37,-467.33 548.02,-469.85"/>
<polygon fill="#63b8ff" stroke="#63b8ff" points="648.15,-280.72 646.58,-270.24 641.28,-279.41 648.15,-280.72"/>
</a>
</g>
</g>
<!-- Node7 -->
<g id="Node000007" class="node">
<title>Node7</title>
<g id="a_Node000007"><a xlink:href="../../d8/d89/classlci_1_1net__post__get__x.html#a0166e5be0d83571fd1d82fef82efb149" target="_top" xlink:title=" ">
<polygon fill="white" stroke="#666666" points="550,-452 442,-452 442,-422 550,-422 550,-452"/>
<text text-anchor="start" x="450" y="-440" font-family="Helvetica,sans-Serif" font-size="10.00">lci::net_post_get_x</text>
<text text-anchor="middle" x="496" y="-429" font-family="Helvetica,sans-Serif" font-size="10.00">::buffer</text>
</a>
</g>
</g>
<!-- Node1&#45;&gt;Node7 -->
<g id="edge7_Node000001_Node000007" class="edge">
<title>Node1&#45;&gt;Node7</title>
<g id="a_edge7_Node000001_Node000007"><a xlink:title=" ">
<path fill="none" stroke="#63b8ff" d="M641,-280.1C628.79,-314.59 602.38,-376.51 560,-413 556.01,-416.44 551.47,-419.41 546.71,-421.97"/>
<polygon fill="#63b8ff" stroke="#63b8ff" points="644.41,-280.93 644.33,-270.33 637.79,-278.67 644.41,-280.93"/>
</a>
</g>
</g>
<!-- Node8 -->
<g id="Node000008" class="node">
<title>Node8</title>
<g id="a_Node000008"><a xlink:href="../../d8/d89/classlci_1_1net__post__get__x.html#a1ce6626759a9c36fbf4415498dab893d" target="_top" xlink:title=" ">
<polygon fill="white" stroke="#666666" points="550,-404 442,-404 442,-374 550,-374 550,-404"/>
<text text-anchor="start" x="450" y="-392" font-family="Helvetica,sans-Serif" font-size="10.00">lci::net_post_get_x</text>
<text text-anchor="middle" x="496" y="-381" font-family="Helvetica,sans-Serif" font-size="10.00">::device</text>
</a>
</g>
</g>
<!-- Node1&#45;&gt;Node8 -->
<g id="edge10_Node000001_Node000008" class="edge">
<title>Node1&#45;&gt;Node8</title>
<g id="a_edge10_Node000001_Node000008"><a xlink:title=" ">
<path fill="none" stroke="#63b8ff" d="M634.92,-279.03C619.39,-303.67 592.27,-341.6 560,-365 555.36,-368.37 550.18,-371.32 544.85,-373.9"/>
<polygon fill="#63b8ff" stroke="#63b8ff" points="638.04,-280.65 640.3,-270.3 632.08,-276.98 638.04,-280.65"/>
</a>
</g>
</g>
<!-- Node9 -->
<g id="Node000009" class="node">
<title>Node9</title>
<g id="a_Node000009"><a xlink:href="../../d8/d89/classlci_1_1net__post__get__x.html#a02b2358a9415efea83cb10dc856259b3" target="_top" xlink:title=" ">
<polygon fill="white" stroke="#666666" points="550,-356 442,-356 442,-326 550,-326 550,-356"/>
<text text-anchor="start" x="450" y="-344" font-family="Helvetica,sans-Serif" font-size="10.00">lci::net_post_get_x</text>
<text text-anchor="middle" x="496" y="-333" font-family="Helvetica,sans-Serif" font-size="10.00">::endpoint</text>
</a>
</g>
</g>
<!-- Node1&#45;&gt;Node9 -->
<g id="edge13_Node000001_Node000009" class="edge">
<title>Node1&#45;&gt;Node9</title>
<g id="a_edge13_Node000001_Node000009"><a xlink:title=" ">
<path fill="none" stroke="#63b8ff" d="M621.72,-276.62C604.65,-289.47 581.83,-305.46 560,-317 553.89,-320.23 547.26,-323.24 540.66,-325.97"/>
<polygon fill="#63b8ff" stroke="#63b8ff" points="624.26,-279.08 630.08,-270.23 620.01,-273.52 624.26,-279.08"/>
</a>
</g>
</g>
<!-- Node10 -->
<g id="Node000010" class="node">
<title>Node10</title>
<g id="a_Node000010"><a xlink:href="../../d8/d89/classlci_1_1net__post__get__x.html#a27b181e34a6fe544695659fc3b1b5c93" target="_top" xlink:title=" ">
<polygon fill="white" stroke="#666666" points="560,-307.5 432,-307.5 432,-288.5 560,-288.5 560,-307.5"/>
<text text-anchor="middle" x="496" y="-295.5" font-family="Helvetica,sans-Serif" font-size="10.00">lci::net_post_get_x::mr</text>
</a>
</g>
</g>
<!-- Node1&#45;&gt;Node10 -->
<g id="edge16_Node000001_Node000010" class="edge">
<title>Node1&#45;&gt;Node10</title>
<g id="a_edge16_Node000001_Node000010"><a xlink:title=" ">
<path fill="none" stroke="#63b8ff" d="M586.08,-272.8C567.17,-278.15 547.15,-283.81 530.89,-288.41"/>
<polygon fill="#63b8ff" stroke="#63b8ff" points="587.17,-276.13 595.84,-270.04 585.26,-269.39 587.17,-276.13"/>
</a>
</g>
</g>
<!-- Node11 -->
<g id="Node000011" class="node">
<title>Node11</title>
<g id="a_Node000011"><a xlink:href="../../d8/d89/classlci_1_1net__post__get__x.html#af7c26425db19974b0a48d9ba35ea445a" target="_top" xlink:title=" ">
<polygon fill="white" stroke="#666666" points="550,-270 442,-270 442,-240 550,-240 550,-270"/>
<text text-anchor="start" x="450" y="-258" font-family="Helvetica,sans-Serif" font-size="10.00">lci::net_post_get_x</text>
<text text-anchor="middle" x="496" y="-247" font-family="Helvetica,sans-Serif" font-size="10.00">::offset</text>
</a>
</g>
</g>
<!-- Node1&#45;&gt;Node11 -->
<g id="edge19_Node000001_Node000011" class="edge">
<title>Node1&#45;&gt;Node11</title>
<g id="a_edge19_Node000001_Node000011"><a xlink:title=" ">
<path fill="none" stroke="#63b8ff" d="M585.6,-255C573.8,-255 561.59,-255 550.13,-255"/>
<polygon fill="#63b8ff" stroke="#63b8ff" points="585.84,-258.5 595.84,-255 585.84,-251.5 585.84,-258.5"/>
</a>
</g>
</g>
<!-- Node12 -->
<g id="Node000012" class="node">
<title>Node12</title>
<g id="a_Node000012"><a xlink:href="../../d8/d89/classlci_1_1net__post__get__x.html#a92152bfa9633fd62d03b420a6fea9d56" target="_top" xlink:title=" ">
<polygon fill="white" stroke="#666666" points="550,-222 442,-222 442,-192 550,-192 550,-222"/>
<text text-anchor="start" x="450" y="-210" font-family="Helvetica,sans-Serif" font-size="10.00">lci::net_post_get_x</text>
<text text-anchor="middle" x="496" y="-199" font-family="Helvetica,sans-Serif" font-size="10.00">::rank</text>
</a>
</g>
</g>
<!-- Node1&#45;&gt;Node12 -->
<g id="edge22_Node000001_Node000012" class="edge">
<title>Node1&#45;&gt;Node12</title>
<g id="a_edge22_Node000001_Node000012"><a xlink:title=" ">
<path fill="none" stroke="#63b8ff" d="M591.35,-236.79C575.89,-231.91 559.35,-226.69 544.51,-222"/>
<polygon fill="#63b8ff" stroke="#63b8ff" points="590.73,-240.27 601.32,-239.94 592.84,-233.6 590.73,-240.27"/>
</a>
</g>
</g>
<!-- Node13 -->
<g id="Node000013" class="node">
<title>Node13</title>
<g id="a_Node000013"><a xlink:href="../../d8/d89/classlci_1_1net__post__get__x.html#aa8bfa5e19a9c2892e3d270dda1a6e58b" target="_top" xlink:title=" ">
<polygon fill="white" stroke="#666666" points="550,-174 442,-174 442,-144 550,-144 550,-174"/>
<text text-anchor="start" x="450" y="-162" font-family="Helvetica,sans-Serif" font-size="10.00">lci::net_post_get_x</text>
<text text-anchor="middle" x="496" y="-151" font-family="Helvetica,sans-Serif" font-size="10.00">::rkey</text>
</a>
</g>
</g>
<!-- Node1&#45;&gt;Node13 -->
<g id="edge25_Node000001_Node000013" class="edge">
<title>Node1&#45;&gt;Node13</title>
<g id="a_edge25_Node000001_Node000013"><a xlink:title=" ">
<path fill="none" stroke="#63b8ff" d="M625.62,-232.62C608.5,-217.13 584.13,-196.88 560,-183 554.32,-179.73 548.11,-176.74 541.87,-174.07"/>
<polygon fill="#63b8ff" stroke="#63b8ff" points="623.69,-235.6 633.41,-239.79 628.43,-230.45 623.69,-235.6"/>
</a>
</g>
</g>
<!-- Node14 -->
<g id="Node000014" class="node">
<title>Node14</title>
<g id="a_Node000014"><a xlink:href="../../d8/d89/classlci_1_1net__post__get__x.html#a71489824a789c3183c97bdf21b762af5" target="_top" xlink:title=" ">
<polygon fill="white" stroke="#666666" points="550,-126 442,-126 442,-96 550,-96 550,-126"/>
<text text-anchor="start" x="450" y="-114" font-family="Helvetica,sans-Serif" font-size="10.00">lci::net_post_get_x</text>
<text text-anchor="middle" x="496" y="-103" font-family="Helvetica,sans-Serif" font-size="10.00">::runtime</text>
</a>
</g>
</g>
<!-- Node1&#45;&gt;Node14 -->
<g id="edge28_Node000001_Node000014" class="edge">
<title>Node1&#45;&gt;Node14</title>
<g id="a_edge28_Node000001_Node000014"><a xlink:title=" ">
<path fill="none" stroke="#63b8ff" d="M636.61,-230.84C621.73,-204.02 594.43,-161.09 560,-135 555.52,-131.61 550.51,-128.64 545.32,-126.07"/>
<polygon fill="#63b8ff" stroke="#63b8ff" points="633.68,-232.79 641.51,-239.93 639.84,-229.47 633.68,-232.79"/>
</a>
</g>
</g>
<!-- Node15 -->
<g id="Node000015" class="node">
<title>Node15</title>
<g id="a_Node000015"><a xlink:href="../../d8/d89/classlci_1_1net__post__get__x.html#a5b3bd21f1b10b01c610accac17589ff9" target="_top" xlink:title=" ">
<polygon fill="white" stroke="#666666" points="550,-78 442,-78 442,-48 550,-48 550,-78"/>
<text text-anchor="start" x="450" y="-66" font-family="Helvetica,sans-Serif" font-size="10.00">lci::net_post_get_x</text>
<text text-anchor="middle" x="496" y="-55" font-family="Helvetica,sans-Serif" font-size="10.00">::size</text>
</a>
</g>
</g>
<!-- Node1&#45;&gt;Node15 -->
<g id="edge31_Node000001_Node000015" class="edge">
<title>Node1&#45;&gt;Node15</title>
<g id="a_edge31_Node000001_Node000015"><a xlink:title=" ">
<path fill="none" stroke="#63b8ff" d="M641.94,-229.9C630.49,-193.57 604.57,-126.39 560,-87 556.14,-83.59 551.75,-80.64 547.12,-78.1"/>
<polygon fill="#63b8ff" stroke="#63b8ff" points="638.66,-231.15 644.91,-239.7 645.36,-229.12 638.66,-231.15"/>
</a>
</g>
</g>
<!-- Node16 -->
<g id="Node000016" class="node">
<title>Node16</title>
<g id="a_Node000016"><a xlink:href="../../d8/d89/classlci_1_1net__post__get__x.html#abde6280396747de6fa5bf34635d96d3b" target="_top" xlink:title=" ">
<polygon fill="white" stroke="#666666" points="550,-30 442,-30 442,0 550,0 550,-30"/>
<text text-anchor="start" x="450" y="-18" font-family="Helvetica,sans-Serif" font-size="10.00">lci::net_post_get_x</text>
<text text-anchor="middle" x="496" y="-7" font-family="Helvetica,sans-Serif" font-size="10.00">::user_context</text>
</a>
</g>
</g>
<!-- Node1&#45;&gt;Node16 -->
<g id="edge34_Node000001_Node000016" class="edge">
<title>Node1&#45;&gt;Node16</title>
<g id="a_edge34_Node000001_Node000016"><a xlink:title=" ">
<path fill="none" stroke="#63b8ff" d="M645.29,-229.94C637.46,-185.55 615.17,-92.71 560,-39 556.48,-35.57 552.42,-32.62 548.09,-30.09"/>
<polygon fill="#63b8ff" stroke="#63b8ff" points="641.86,-230.6 646.95,-239.89 648.76,-229.45 641.86,-230.6"/>
</a>
</g>
</g>
<!-- Node3 -->
<g id="Node000003" class="node">
<title>Node3</title>
<g id="a_Node000003"><a xlink:href="../../d8/d89/classlci_1_1net__post__get__x.html#a65bd08f596d6034d034d875d7ab66b2a" target="_top" xlink:title=" ">
<polygon fill="white" stroke="#666666" points="252,-262 144,-262 144,-232 252,-232 252,-262"/>
<text text-anchor="start" x="152" y="-250" font-family="Helvetica,sans-Serif" font-size="10.00">lci::net_post_get_x</text>
<text text-anchor="middle" x="198" y="-239" font-family="Helvetica,sans-Serif" font-size="10.00">::call</text>
</a>
</g>
</g>
<!-- Node2&#45;&gt;Node3 -->
<g id="edge2_Node000002_Node000003" class="edge">
<title>Node2&#45;&gt;Node3</title>
<g id="a_edge2_Node000002_Node000003"><a xlink:title=" ">
<path fill="none" stroke="#63b8ff" d="M431.87,-473.67C387.47,-463.01 328.92,-443.24 288,-408 240.33,-366.94 213.32,-293.73 203.41,-262.17"/>
<polygon fill="#63b8ff" stroke="#63b8ff" points="431.16,-477.1 441.69,-475.93 432.73,-470.28 431.16,-477.1"/>
</a>
</g>
</g>
<!-- Node6 -->
<g id="Node000006" class="node">
<title>Node6</title>
<g id="a_Node000006"><a xlink:href="../../d8/d89/classlci_1_1net__post__get__x.html#a1324079669cb8eafe68c8e361ecc398a" target="_top" xlink:title=" ">
<polygon fill="white" stroke="#666666" points="396,-284 288,-284 288,-254 396,-254 396,-284"/>
<text text-anchor="start" x="296" y="-272" font-family="Helvetica,sans-Serif" font-size="10.00">lci::net_post_get_x</text>
<text text-anchor="middle" x="342" y="-261" font-family="Helvetica,sans-Serif" font-size="10.00">::call_impl</text>
</a>
</g>
</g>
<!-- Node2&#45;&gt;Node6 -->
<g id="edge5_Node000002_Node000006" class="edge">
<title>Node2&#45;&gt;Node6</title>
<g id="a_edge5_Node000002_Node000006"><a xlink:title=" ">
<path fill="none" stroke="#63b8ff" d="M435.98,-464.37C434.59,-463.3 433.27,-462.18 432,-461 377.58,-410.27 353.57,-319.66 345.91,-284"/>
<polygon fill="#63b8ff" stroke="#63b8ff" points="434.11,-467.33 444.38,-469.93 437.97,-461.5 434.11,-467.33"/>
</a>
</g>
</g>
<!-- Node4 -->
<g id="Node000004" class="node">
<title>Node4</title>
<g id="a_Node000004"><a xlink:href="../../d5/dd3/namespacelci.html#ab4edbaac01cf88a612de88be92842271" target="_top" xlink:title=" ">
<polygon fill="white" stroke="#666666" points="102.5,-278.5 5.5,-278.5 5.5,-259.5 102.5,-259.5 102.5,-278.5"/>
<text text-anchor="middle" x="54" y="-266.5" font-family="Helvetica,sans-Serif" font-size="10.00">lci::net_post_get</text>
</a>
</g>
</g>
<!-- Node3&#45;&gt;Node4 -->
<g id="edge3_Node000003_Node000004" class="edge">
<title>Node3&#45;&gt;Node4</title>
<g id="a_edge3_Node000003_Node000004"><a xlink:title=" ">
<path fill="none" stroke="#63b8ff" d="M133.75,-256.8C123.26,-258.43 112.53,-260.09 102.5,-261.64"/>
<polygon fill="#63b8ff" stroke="#63b8ff" points="134.37,-260.24 143.72,-255.25 133.3,-253.33 134.37,-260.24"/>
</a>
</g>
</g>
<!-- Node5 -->
<g id="Node000005" class="node">
<title>Node5</title>
<g id="a_Node000005"><a xlink:href="../../d8/d89/classlci_1_1net__post__get__x.html#a58bc0fcb44a3251b38574a832ee93cf6" target="_top" xlink:title=" ">
<polygon fill="white" stroke="#666666" points="108,-241 0,-241 0,-211 108,-211 108,-241"/>
<text text-anchor="start" x="8" y="-229" font-family="Helvetica,sans-Serif" font-size="10.00">lci::net_post_get_x</text>
<text text-anchor="middle" x="54" y="-218" font-family="Helvetica,sans-Serif" font-size="10.00">::operator()</text>
</a>
</g>
</g>
<!-- Node3&#45;&gt;Node5 -->
<g id="edge4_Node000003_Node000005" class="edge">
<title>Node3&#45;&gt;Node5</title>
<g id="a_edge4_Node000003_Node000005"><a xlink:title=" ">
<path fill="none" stroke="#63b8ff" d="M133.76,-237.65C125.19,-236.38 116.47,-235.09 108.11,-233.85"/>
<polygon fill="#63b8ff" stroke="#63b8ff" points="133.32,-241.12 143.72,-239.12 134.34,-234.2 133.32,-241.12"/>
</a>
</g>
</g>
<!-- Node6&#45;&gt;Node3 -->
<g id="edge6_Node000006_Node000003" class="edge">
<title>Node6&#45;&gt;Node3</title>
<g id="a_edge6_Node000006_Node000003"><a xlink:title=" ">
<path fill="none" stroke="#63b8ff" d="M277.76,-259.2C269.19,-257.88 260.47,-256.52 252.11,-255.23"/>
<polygon fill="#63b8ff" stroke="#63b8ff" points="277.3,-262.67 287.72,-260.75 278.37,-255.76 277.3,-262.67"/>
</a>
</g>
</g>
<!-- Node7&#45;&gt;Node3 -->
<g id="edge8_Node000007_Node000003" class="edge">
<title>Node7&#45;&gt;Node3</title>
<g id="a_edge8_Node000007_Node000003"><a xlink:title=" ">
<path fill="none" stroke="#63b8ff" d="M432,-427.28C388.36,-418.13 330.66,-401.02 288,-370 247.92,-340.86 218.71,-288.18 206.02,-262.26"/>
<polygon fill="#63b8ff" stroke="#63b8ff" points="431.44,-430.74 441.93,-429.28 432.82,-423.87 431.44,-430.74"/>
</a>
</g>
</g>
<!-- Node7&#45;&gt;Node6 -->
<g id="edge9_Node000007_Node000006" class="edge">
<title>Node7&#45;&gt;Node6</title>
<g id="a_edge9_Node000007_Node000006"><a xlink:title=" ">
<path fill="none" stroke="#63b8ff" d="M436.88,-416.67C435.19,-415.51 433.56,-414.29 432,-413 388.27,-376.87 359.89,-313.37 348.57,-284.31"/>
<polygon fill="#63b8ff" stroke="#63b8ff" points="435.37,-419.84 445.75,-421.97 438.96,-413.83 435.37,-419.84"/>
</a>
</g>
</g>
<!-- Node8&#45;&gt;Node3 -->
<g id="edge11_Node000008_Node000003" class="edge">
<title>Node8&#45;&gt;Node3</title>
<g id="a_edge11_Node000008_Node000003"><a xlink:title=" ">
<path fill="none" stroke="#63b8ff" d="M431.82,-382.62C388.99,-376.17 332.33,-363.33 288,-338 254.04,-318.6 224.49,-282.52 209.49,-262.11"/>
<polygon fill="#63b8ff" stroke="#63b8ff" points="431.44,-386.11 441.84,-384.06 432.43,-379.18 431.44,-386.11"/>
</a>
</g>
</g>
<!-- Node8&#45;&gt;Node6 -->
<g id="edge12_Node000008_Node000006" class="edge">
<title>Node8&#45;&gt;Node6</title>
<g id="a_edge12_Node000008_Node000006"><a xlink:title=" ">
<path fill="none" stroke="#63b8ff" d="M439.01,-369.31C436.59,-367.95 434.24,-366.51 432,-365 398.47,-342.37 368.54,-304.8 353.41,-284"/>
<polygon fill="#63b8ff" stroke="#63b8ff" points="437.52,-372.48 448.02,-373.9 440.7,-366.24 437.52,-372.48"/>
</a>
</g>
</g>
<!-- Node9&#45;&gt;Node3 -->
<g id="edge14_Node000009_Node000003" class="edge">
<title>Node9&#45;&gt;Node3</title>
<g id="a_edge14_Node000009_Node000003"><a xlink:title=" ">
<path fill="none" stroke="#63b8ff" d="M431.59,-340.09C389.52,-337.59 333.83,-330.57 288,-312 259.27,-300.36 231.26,-277.42 214.57,-262.15"/>
<polygon fill="#63b8ff" stroke="#63b8ff" points="431.53,-343.59 441.7,-340.62 431.9,-336.6 431.53,-343.59"/>
</a>
</g>
</g>
<!-- Node9&#45;&gt;Node6 -->
<g id="edge15_Node000009_Node000006" class="edge">
<title>Node9&#45;&gt;Node6</title>
<g id="a_edge15_Node000009_Node000006"><a xlink:title=" ">
<path fill="none" stroke="#63b8ff" d="M443.69,-322.1C439.71,-320.43 435.77,-318.73 432,-317 410.29,-307.06 386.53,-294.14 369.02,-284.2"/>
<polygon fill="#63b8ff" stroke="#63b8ff" points="442.42,-325.36 453,-325.88 445.05,-318.87 442.42,-325.36"/>
</a>
</g>
</g>
<!-- Node10&#45;&gt;Node3 -->
<g id="edge17_Node000010_Node000003" class="edge">
<title>Node10&#45;&gt;Node3</title>
<g id="a_edge17_Node000010_Node000003"><a xlink:title=" ">
<path fill="none" stroke="#63b8ff" d="M421.72,-304.18C381.62,-305.59 331.41,-304.11 288,-293 263.74,-286.79 238.61,-273.01 221.27,-262.14"/>
<polygon fill="#63b8ff" stroke="#63b8ff" points="422.11,-307.66 431.95,-303.75 421.81,-300.67 422.11,-307.66"/>
</a>
</g>
</g>
<!-- Node10&#45;&gt;Node6 -->
<g id="edge18_Node000010_Node000006" class="edge">
<title>Node10&#45;&gt;Node6</title>
<g id="a_edge18_Node000010_Node000006"><a xlink:title=" ">
<path fill="none" stroke="#63b8ff" d="M434.71,-286.5C421.92,-284.06 408.51,-281.5 396.01,-279.11"/>
<polygon fill="#63b8ff" stroke="#63b8ff" points="434.33,-289.99 444.81,-288.42 435.64,-283.11 434.33,-289.99"/>
</a>
</g>
</g>
<!-- Node11&#45;&gt;Node3 -->
<g id="edge20_Node000011_Node000003" class="edge">
<title>Node11&#45;&gt;Node3</title>
<g id="a_edge20_Node000011_Node000003"><a xlink:title=" ">
<path fill="none" stroke="#63b8ff" d="M431.64,-247.64C419.81,-246.54 407.54,-245.58 396,-245 348.06,-242.58 336,-244.46 288,-245 276.41,-245.13 263.97,-245.36 252.18,-245.61"/>
<polygon fill="#63b8ff" stroke="#63b8ff" points="431.61,-251.16 441.9,-248.64 432.28,-244.19 431.61,-251.16"/>
</a>
</g>
</g>
<!-- Node11&#45;&gt;Node6 -->
<g id="edge21_Node000011_Node000006" class="edge">
<title>Node11&#45;&gt;Node6</title>
<g id="a_edge21_Node000011_Node000006"><a xlink:title=" ">
<path fill="none" stroke="#63b8ff" d="M431.6,-260.84C419.8,-261.93 407.59,-263.05 396.13,-264.11"/>
<polygon fill="#63b8ff" stroke="#63b8ff" points="432.2,-264.3 441.84,-259.9 431.56,-257.33 432.2,-264.3"/>
</a>
</g>
</g>
<!-- Node12&#45;&gt;Node3 -->
<g id="edge23_Node000012_Node000003" class="edge">
<title>Node12&#45;&gt;Node3</title>
<g id="a_edge23_Node000012_Node000003"><a xlink:title=" ">
<path fill="none" stroke="#63b8ff" d="M431.7,-215.55C378.3,-222.77 302.71,-232.99 252.33,-239.79"/>
<polygon fill="#63b8ff" stroke="#63b8ff" points="432.3,-219.01 441.74,-214.2 431.36,-212.07 432.3,-219.01"/>
</a>
</g>
</g>
<!-- Node12&#45;&gt;Node6 -->
<g id="edge24_Node000012_Node000006" class="edge">
<title>Node12&#45;&gt;Node6</title>
<g id="a_edge24_Node000012_Node000006"><a xlink:title=" ">
<path fill="none" stroke="#63b8ff" d="M444.97,-225.85C440.58,-227.57 436.2,-229.3 432,-231 413.93,-238.3 393.96,-246.78 377.53,-253.88"/>
<polygon fill="#63b8ff" stroke="#63b8ff" points="446.52,-229.01 454.58,-222.13 443.99,-222.48 446.52,-229.01"/>
</a>
</g>
</g>
<!-- Node13&#45;&gt;Node3 -->
<g id="edge26_Node000013_Node000003" class="edge">
<title>Node13&#45;&gt;Node3</title>
<g id="a_edge26_Node000013_Node000003"><a xlink:title=" ">
<path fill="none" stroke="#63b8ff" d="M431.72,-175.82C390.6,-186.97 335.94,-202.22 288,-217 273.04,-221.61 256.79,-226.99 242.31,-231.9"/>
<polygon fill="#63b8ff" stroke="#63b8ff" points="432.86,-179.13 441.6,-173.14 431.03,-172.38 432.86,-179.13"/>
</a>
</g>
</g>
<!-- Node13&#45;&gt;Node6 -->
<g id="edge27_Node000013_Node000006" class="edge">
<title>Node13&#45;&gt;Node6</title>
<g id="a_edge27_Node000013_Node000006"><a xlink:title=" ">
<path fill="none" stroke="#63b8ff" d="M439.67,-178.55C437.03,-179.96 434.45,-181.44 432,-183 400.81,-202.82 371.35,-234.83 355.38,-253.7"/>
<polygon fill="#63b8ff" stroke="#63b8ff" points="441.41,-181.6 448.86,-174.06 438.34,-175.31 441.41,-181.6"/>
</a>
</g>
</g>
<!-- Node14&#45;&gt;Node3 -->
<g id="edge29_Node000014_Node000003" class="edge">
<title>Node14&#45;&gt;Node3</title>
<g id="a_edge29_Node000014_Node000003"><a xlink:title=" ">
<path fill="none" stroke="#63b8ff" d="M431.84,-126.81C389.73,-138.67 333.9,-156.98 288,-181 260.9,-195.18 233.13,-217.21 215.98,-231.86"/>
<polygon fill="#63b8ff" stroke="#63b8ff" points="432.98,-130.12 441.69,-124.08 431.11,-123.38 432.98,-130.12"/>
</a>
</g>
</g>
<!-- Node14&#45;&gt;Node6 -->
<g id="edge30_Node000014_Node000006" class="edge">
<title>Node14&#45;&gt;Node6</title>
<g id="a_edge30_Node000014_Node000006"><a xlink:title=" ">
<path fill="none" stroke="#63b8ff" d="M437.48,-131.03C435.58,-132.28 433.75,-133.6 432,-135 390.33,-168.3 361.3,-226.5 349.24,-253.91"/>
<polygon fill="#63b8ff" stroke="#63b8ff" points="439.28,-134.04 446.18,-126 435.77,-127.98 439.28,-134.04"/>
</a>
</g>
</g>
<!-- Node15&#45;&gt;Node3 -->
<g id="edge32_Node000015_Node000003" class="edge">
<title>Node15&#45;&gt;Node3</title>
<g id="a_edge32_Node000015_Node000003"><a xlink:title=" ">
<path fill="none" stroke="#63b8ff" d="M431.95,-74.75C388.53,-85.1 331.12,-103.41 288,-134 250.32,-160.73 220.62,-207.84 207.05,-231.91"/>
<polygon fill="#63b8ff" stroke="#63b8ff" points="432.87,-78.13 441.83,-72.48 431.3,-71.31 432.87,-78.13"/>
</a>
</g>
</g>
<!-- Node15&#45;&gt;Node6 -->
<g id="edge33_Node000015_Node000006" class="edge">
<title>Node15&#45;&gt;Node6</title>
<g id="a_edge33_Node000015_Node000006"><a xlink:title=" ">
<path fill="none" stroke="#63b8ff" d="M436.01,-83.66C434.62,-84.72 433.28,-85.83 432,-87 379.92,-134.55 354.83,-219.26 346.39,-253.75"/>
<polygon fill="#63b8ff" stroke="#63b8ff" points="437.99,-86.55 444.45,-78.15 434.17,-80.68 437.99,-86.55"/>
</a>
</g>
</g>
<!-- Node16&#45;&gt;Node3 -->
<g id="edge35_Node000016_Node000003" class="edge">
<title>Node16&#45;&gt;Node3</title>
<g id="a_edge35_Node000016_Node000003"><a xlink:title=" ">
<path fill="none" stroke="#63b8ff" d="M431.53,-22.11C387.14,-29.91 328.74,-46.19 288,-80 237.94,-121.54 212.08,-198.72 202.93,-231.56"/>
<polygon fill="#63b8ff" stroke="#63b8ff" points="432.34,-25.52 441.63,-20.43 431.2,-18.61 432.34,-25.52"/>
</a>
</g>
</g>
<!-- Node16&#45;&gt;Node6 -->
<g id="edge36_Node000016_Node000006" class="edge">
<title>Node16&#45;&gt;Node6</title>
<g id="a_edge36_Node000016_Node000006"><a xlink:title=" ">
<path fill="none" stroke="#63b8ff" d="M435.42,-35.89C434.23,-36.88 433.09,-37.92 432,-39 369.17,-101.51 349.76,-213.31 344.63,-253.82"/>
<polygon fill="#63b8ff" stroke="#63b8ff" points="437.65,-38.61 443.84,-30.01 433.64,-32.87 437.65,-38.61"/>
</a>
</g>
</g>
</g>
</svg>
