<?xml version="1.0" encoding="UTF-8" standalone="no"?>
<!DOCTYPE svg PUBLIC "-//W3C//DTD SVG 1.1//EN"
 "http://www.w3.org/Graphics/SVG/1.1/DTD/svg11.dtd">
<!-- Generated by graphviz version 2.43.0 (0)
 -->
<!-- Title: lci::counter_get_x::counter_get_x Pages: 1 -->
<svg width="667pt" height="86pt"
 viewBox="0.00 0.00 667.00 86.00" xmlns="http://www.w3.org/2000/svg" xmlns:xlink="http://www.w3.org/1999/xlink">
<g id="graph0" class="graph" transform="scale(1 1) rotate(0) translate(4 82)">
<title>lci::counter_get_x::counter_get_x</title>
<!-- Node1 -->
<g id="Node000001" class="node">
<title>Node1</title>
<g id="a_Node000001"><a xlink:title=" ">
<polygon fill="#999999" stroke="#666666" points="659,-54 556,-54 556,-24 659,-24 659,-54"/>
<text text-anchor="start" x="564" y="-42" font-family="Helvetica,sans-Serif" font-size="10.00">lci::counter_get_x</text>
<text text-anchor="middle" x="607.5" y="-31" font-family="Helvetica,sans-Serif" font-size="10.00">::counter_get_x</text>
</a>
</g>
</g>
<!-- Node2 -->
<g id="Node000002" class="node">
<title>Node2</title>
<g id="a_Node000002"><a xlink:href="../../d4/d46/classlci_1_1counter__get__x.html#afaa2174ec09f060606046aa8c5d59053" target="_top" xlink:title=" ">
<polygon fill="white" stroke="#666666" points="520,-78 417,-78 417,-48 520,-48 520,-78"/>
<text text-anchor="start" x="425" y="-66" font-family="Helvetica,sans-Serif" font-size="10.00">lci::counter_get_x</text>
<text text-anchor="middle" x="468.5" y="-55" font-family="Helvetica,sans-Serif" font-size="10.00">::comp</text>
</a>
</g>
</g>
<!-- Node1&#45;&gt;Node2 -->
<g id="edge1_Node000001_Node000002" class="edge">
<title>Node1&#45;&gt;Node2</title>
<g id="a_edge1_Node000001_Node000002"><a xlink:title=" ">
<path fill="none" stroke="#63b8ff" d="M545.96,-49.61C537.42,-51.1 528.71,-52.63 520.37,-54.09"/>
<polygon fill="#63b8ff" stroke="#63b8ff" points="546.63,-53.04 555.88,-47.87 545.42,-46.15 546.63,-53.04"/>
</a>
</g>
</g>
<!-- Node7 -->
<g id="Node000007" class="node">
<title>Node7</title>
<g id="a_Node000007"><a xlink:href="../../d4/d46/classlci_1_1counter__get__x.html#aa94cdfeb52477e195e6a445227467a76" target="_top" xlink:title=" ">
<polygon fill="white" stroke="#666666" points="520,-30 417,-30 417,0 520,0 520,-30"/>
<text text-anchor="start" x="425" y="-18" font-family="Helvetica,sans-Serif" font-size="10.00">lci::counter_get_x</text>
<text text-anchor="middle" x="468.5" y="-7" font-family="Helvetica,sans-Serif" font-size="10.00">::runtime</text>
</a>
</g>
</g>
<!-- Node1&#45;&gt;Node7 -->
<g id="edge7_Node000001_Node000007" class="edge">
<title>Node1&#45;&gt;Node7</title>
<g id="a_edge7_Node000001_Node000007"><a xlink:title=" ">
<path fill="none" stroke="#63b8ff" d="M545.96,-28.39C537.42,-26.9 528.71,-25.37 520.37,-23.91"/>
<polygon fill="#63b8ff" stroke="#63b8ff" points="545.42,-31.85 555.88,-30.13 546.63,-24.96 545.42,-31.85"/>
</a>
</g>
</g>
<!-- Node3 -->
<g id="Node000003" class="node">
<title>Node3</title>
<g id="a_Node000003"><a xlink:href="../../d4/d46/classlci_1_1counter__get__x.html#a92428f54dd0b7041c7c1c0fa82ef4647" target="_top" xlink:title=" ">
<polygon fill="white" stroke="#666666" points="242,-54 139,-54 139,-24 242,-24 242,-54"/>
<text text-anchor="start" x="147" y="-42" font-family="Helvetica,sans-Serif" font-size="10.00">lci::counter_get_x</text>
<text text-anchor="middle" x="190.5" y="-31" font-family="Helvetica,sans-Serif" font-size="10.00">::call</text>
</a>
</g>
</g>
<!-- Node2&#45;&gt;Node3 -->
<g id="edge2_Node000002_Node000003" class="edge">
<title>Node2&#45;&gt;Node3</title>
<g id="a_edge2_Node000002_Node000003"><a xlink:title=" ">
<path fill="none" stroke="#63b8ff" d="M406.77,-67.15C369.45,-68.68 320.76,-68.82 278,-63 264.41,-61.15 249.94,-57.74 236.81,-54.05"/>
<polygon fill="#63b8ff" stroke="#63b8ff" points="407.15,-70.64 416.98,-66.69 406.83,-63.65 407.15,-70.64"/>
</a>
</g>
</g>
<!-- Node6 -->
<g id="Node000006" class="node">
<title>Node6</title>
<g id="a_Node000006"><a xlink:href="../../d4/d46/classlci_1_1counter__get__x.html#a2b9855b3396ce43f7d9cb1b826ece3b0" target="_top" xlink:title=" ">
<polygon fill="white" stroke="#666666" points="381,-54 278,-54 278,-24 381,-24 381,-54"/>
<text text-anchor="start" x="286" y="-42" font-family="Helvetica,sans-Serif" font-size="10.00">lci::counter_get_x</text>
<text text-anchor="middle" x="329.5" y="-31" font-family="Helvetica,sans-Serif" font-size="10.00">::call_impl</text>
</a>
</g>
</g>
<!-- Node2&#45;&gt;Node6 -->
<g id="edge5_Node000002_Node000006" class="edge">
<title>Node2&#45;&gt;Node6</title>
<g id="a_edge5_Node000002_Node000006"><a xlink:title=" ">
<path fill="none" stroke="#63b8ff" d="M406.96,-52.39C398.42,-50.9 389.71,-49.37 381.37,-47.91"/>
<polygon fill="#63b8ff" stroke="#63b8ff" points="406.42,-55.85 416.88,-54.13 407.63,-48.96 406.42,-55.85"/>
</a>
</g>
</g>
<!-- Node4 -->
<g id="Node000004" class="node">
<title>Node4</title>
<g id="a_Node000004"><a xlink:href="../../d5/dd3/namespacelci.html#ade696bf3eee18cfbe83a417034a86fdc" target="_top" xlink:title=" ">
<polygon fill="white" stroke="#666666" points="97.5,-70.5 5.5,-70.5 5.5,-51.5 97.5,-51.5 97.5,-70.5"/>
<text text-anchor="middle" x="51.5" y="-58.5" font-family="Helvetica,sans-Serif" font-size="10.00">lci::counter_get</text>
</a>
</g>
</g>
<!-- Node3&#45;&gt;Node4 -->
<g id="edge3_Node000003_Node000004" class="edge">
<title>Node3&#45;&gt;Node4</title>
<g id="a_edge3_Node000003_Node000004"><a xlink:title=" ">
<path fill="none" stroke="#63b8ff" d="M128.99,-48.72C118.56,-50.39 107.88,-52.11 97.94,-53.7"/>
<polygon fill="#63b8ff" stroke="#63b8ff" points="129.56,-52.17 138.88,-47.13 128.45,-45.26 129.56,-52.17"/>
</a>
</g>
</g>
<!-- Node5 -->
<g id="Node000005" class="node">
<title>Node5</title>
<g id="a_Node000005"><a xlink:href="../../d4/d46/classlci_1_1counter__get__x.html#a6f7e6b1180b7afa34bd7682cd6198d06" target="_top" xlink:title=" ">
<polygon fill="white" stroke="#666666" points="103,-33 0,-33 0,-3 103,-3 103,-33"/>
<text text-anchor="start" x="8" y="-21" font-family="Helvetica,sans-Serif" font-size="10.00">lci::counter_get_x</text>
<text text-anchor="middle" x="51.5" y="-10" font-family="Helvetica,sans-Serif" font-size="10.00">::operator()</text>
</a>
</g>
</g>
<!-- Node3&#45;&gt;Node5 -->
<g id="edge4_Node000003_Node000005" class="edge">
<title>Node3&#45;&gt;Node5</title>
<g id="a_edge4_Node000003_Node000005"><a xlink:title=" ">
<path fill="none" stroke="#63b8ff" d="M128.96,-29.72C120.42,-28.41 111.71,-27.08 103.37,-25.8"/>
<polygon fill="#63b8ff" stroke="#63b8ff" points="128.46,-33.18 138.88,-31.24 129.52,-26.27 128.46,-33.18"/>
</a>
</g>
</g>
<!-- Node6&#45;&gt;Node3 -->
<g id="edge6_Node000006_Node000003" class="edge">
<title>Node6&#45;&gt;Node3</title>
<g id="a_edge6_Node000006_Node000003"><a xlink:title=" ">
<path fill="none" stroke="#63b8ff" d="M267.68,-39C259.23,-39 250.62,-39 242.37,-39"/>
<polygon fill="#63b8ff" stroke="#63b8ff" points="267.88,-42.5 277.88,-39 267.88,-35.5 267.88,-42.5"/>
</a>
</g>
</g>
<!-- Node7&#45;&gt;Node3 -->
<g id="edge8_Node000007_Node000003" class="edge">
<title>Node7&#45;&gt;Node3</title>
<g id="a_edge8_Node000007_Node000003"><a xlink:title=" ">
<path fill="none" stroke="#63b8ff" d="M406.77,-10.85C369.45,-9.32 320.76,-9.18 278,-15 264.41,-16.85 249.94,-20.26 236.81,-23.95"/>
<polygon fill="#63b8ff" stroke="#63b8ff" points="406.83,-14.35 416.98,-11.31 407.15,-7.36 406.83,-14.35"/>
</a>
</g>
</g>
<!-- Node7&#45;&gt;Node6 -->
<g id="edge9_Node000007_Node000006" class="edge">
<title>Node7&#45;&gt;Node6</title>
<g id="a_edge9_Node000007_Node000006"><a xlink:title=" ">
<path fill="none" stroke="#63b8ff" d="M406.96,-25.61C398.42,-27.1 389.71,-28.63 381.37,-30.09"/>
<polygon fill="#63b8ff" stroke="#63b8ff" points="407.63,-29.04 416.88,-23.87 406.42,-22.15 407.63,-29.04"/>
</a>
</g>
</g>
</g>
</svg>
