<?xml version="1.0" encoding="UTF-8" standalone="no"?>
<!DOCTYPE svg PUBLIC "-//W3C//DTD SVG 1.1//EN"
 "http://www.w3.org/Graphics/SVG/1.1/DTD/svg11.dtd">
<!-- Generated by graphviz version 2.43.0 (0)
 -->
<!-- Title: lci::counter_get_x::operator() Pages: 1 -->
<svg width="667pt" height="86pt"
 viewBox="0.00 0.00 667.00 86.00" xmlns="http://www.w3.org/2000/svg" xmlns:xlink="http://www.w3.org/1999/xlink">
<g id="graph0" class="graph" transform="scale(1 1) rotate(0) translate(4 82)">
<title>lci::counter_get_x::operator()</title>
<!-- Node1 -->
<g id="Node000001" class="node">
<title>Node1</title>
<g id="a_Node000001"><a xlink:title=" ">
<polygon fill="#999999" stroke="#666666" points="103,-54 0,-54 0,-24 103,-24 103,-54"/>
<text text-anchor="start" x="8" y="-42" font-family="Helvetica,sans-Serif" font-size="10.00">lci::counter_get_x</text>
<text text-anchor="middle" x="51.5" y="-31" font-family="Helvetica,sans-Serif" font-size="10.00">::operator()</text>
</a>
</g>
</g>
<!-- Node2 -->
<g id="Node000002" class="node">
<title>Node2</title>
<g id="a_Node000002"><a xlink:href="../../d4/d46/classlci_1_1counter__get__x.html#a92428f54dd0b7041c7c1c0fa82ef4647" target="_top" xlink:title=" ">
<polygon fill="white" stroke="#666666" points="242,-54 139,-54 139,-24 242,-24 242,-54"/>
<text text-anchor="start" x="147" y="-42" font-family="Helvetica,sans-Serif" font-size="10.00">lci::counter_get_x</text>
<text text-anchor="middle" x="190.5" y="-31" font-family="Helvetica,sans-Serif" font-size="10.00">::call</text>
</a>
</g>
</g>
<!-- Node1&#45;&gt;Node2 -->
<g id="edge1_Node000001_Node000002" class="edge">
<title>Node1&#45;&gt;Node2</title>
<g id="a_edge1_Node000001_Node000002"><a xlink:title=" ">
<path fill="none" stroke="#63b8ff" d="M103.12,-39C111.36,-39 119.97,-39 128.42,-39"/>
<polygon fill="#63b8ff" stroke="#63b8ff" points="128.63,-42.5 138.63,-39 128.63,-35.5 128.63,-42.5"/>
</a>
</g>
</g>
<!-- Node3 -->
<g id="Node000003" class="node">
<title>Node3</title>
<g id="a_Node000003"><a xlink:href="../../d4/d46/classlci_1_1counter__get__x.html#a2b9855b3396ce43f7d9cb1b826ece3b0" target="_top" xlink:title=" ">
<polygon fill="white" stroke="#666666" points="381,-54 278,-54 278,-24 381,-24 381,-54"/>
<text text-anchor="start" x="286" y="-42" font-family="Helvetica,sans-Serif" font-size="10.00">lci::counter_get_x</text>
<text text-anchor="middle" x="329.5" y="-31" font-family="Helvetica,sans-Serif" font-size="10.00">::call_impl</text>
</a>
</g>
</g>
<!-- Node2&#45;&gt;Node3 -->
<g id="edge2_Node000002_Node000003" class="edge">
<title>Node2&#45;&gt;Node3</title>
<g id="a_edge2_Node000002_Node000003"><a xlink:title=" ">
<path fill="none" stroke="#63b8ff" d="M242.12,-39C250.36,-39 258.97,-39 267.42,-39"/>
<polygon fill="#63b8ff" stroke="#63b8ff" points="267.63,-42.5 277.63,-39 267.63,-35.5 267.63,-42.5"/>
</a>
</g>
</g>
<!-- Node4 -->
<g id="Node000004" class="node">
<title>Node4</title>
<g id="a_Node000004"><a xlink:href="../../d4/d46/classlci_1_1counter__get__x.html#afaa2174ec09f060606046aa8c5d59053" target="_top" xlink:title=" ">
<polygon fill="white" stroke="#666666" points="520,-78 417,-78 417,-48 520,-48 520,-78"/>
<text text-anchor="start" x="425" y="-66" font-family="Helvetica,sans-Serif" font-size="10.00">lci::counter_get_x</text>
<text text-anchor="middle" x="468.5" y="-55" font-family="Helvetica,sans-Serif" font-size="10.00">::comp</text>
</a>
</g>
</g>
<!-- Node2&#45;&gt;Node4 -->
<g id="edge7_Node000002_Node000004" class="edge">
<title>Node2&#45;&gt;Node4</title>
<g id="a_edge7_Node000002_Node000004"><a xlink:title=" ">
<path fill="none" stroke="#63b8ff" d="M236.81,-54.05C249.94,-57.74 264.41,-61.15 278,-63 320.76,-68.82 369.45,-68.68 406.77,-67.15"/>
<polygon fill="#63b8ff" stroke="#63b8ff" points="407.15,-70.64 416.98,-66.69 406.83,-63.65 407.15,-70.64"/>
</a>
</g>
</g>
<!-- Node6 -->
<g id="Node000006" class="node">
<title>Node6</title>
<g id="a_Node000006"><a xlink:href="../../d4/d46/classlci_1_1counter__get__x.html#aa94cdfeb52477e195e6a445227467a76" target="_top" xlink:title=" ">
<polygon fill="white" stroke="#666666" points="520,-30 417,-30 417,0 520,0 520,-30"/>
<text text-anchor="start" x="425" y="-18" font-family="Helvetica,sans-Serif" font-size="10.00">lci::counter_get_x</text>
<text text-anchor="middle" x="468.5" y="-7" font-family="Helvetica,sans-Serif" font-size="10.00">::runtime</text>
</a>
</g>
</g>
<!-- Node2&#45;&gt;Node6 -->
<g id="edge8_Node000002_Node000006" class="edge">
<title>Node2&#45;&gt;Node6</title>
<g id="a_edge8_Node000002_Node000006"><a xlink:title=" ">
<path fill="none" stroke="#63b8ff" d="M236.81,-23.95C249.94,-20.26 264.41,-16.85 278,-15 320.76,-9.18 369.45,-9.32 406.77,-10.85"/>
<polygon fill="#63b8ff" stroke="#63b8ff" points="406.83,-14.35 416.98,-11.31 407.15,-7.36 406.83,-14.35"/>
</a>
</g>
</g>
<!-- Node3&#45;&gt;Node4 -->
<g id="edge3_Node000003_Node000004" class="edge">
<title>Node3&#45;&gt;Node4</title>
<g id="a_edge3_Node000003_Node000004"><a xlink:title=" ">
<path fill="none" stroke="#63b8ff" d="M381.12,-47.87C389.45,-49.33 398.16,-50.85 406.7,-52.35"/>
<polygon fill="#63b8ff" stroke="#63b8ff" points="406.17,-55.81 416.63,-54.09 407.38,-48.91 406.17,-55.81"/>
</a>
</g>
</g>
<!-- Node3&#45;&gt;Node6 -->
<g id="edge5_Node000003_Node000006" class="edge">
<title>Node3&#45;&gt;Node6</title>
<g id="a_edge5_Node000003_Node000006"><a xlink:title=" ">
<path fill="none" stroke="#63b8ff" d="M381.12,-30.13C389.45,-28.67 398.16,-27.15 406.7,-25.65"/>
<polygon fill="#63b8ff" stroke="#63b8ff" points="407.38,-29.09 416.63,-23.91 406.17,-22.19 407.38,-29.09"/>
</a>
</g>
</g>
<!-- Node5 -->
<g id="Node000005" class="node">
<title>Node5</title>
<g id="a_Node000005"><a xlink:href="../../d4/d46/classlci_1_1counter__get__x.html#a8c0145a82621d6519282ccb9fb977d71" target="_top" xlink:title=" ">
<polygon fill="white" stroke="#666666" points="659,-54 556,-54 556,-24 659,-24 659,-54"/>
<text text-anchor="start" x="564" y="-42" font-family="Helvetica,sans-Serif" font-size="10.00">lci::counter_get_x</text>
<text text-anchor="middle" x="607.5" y="-31" font-family="Helvetica,sans-Serif" font-size="10.00">::counter_get_x</text>
</a>
</g>
</g>
<!-- Node4&#45;&gt;Node5 -->
<g id="edge4_Node000004_Node000005" class="edge">
<title>Node4&#45;&gt;Node5</title>
<g id="a_edge4_Node000004_Node000005"><a xlink:title=" ">
<path fill="none" stroke="#63b8ff" d="M520.12,-54.13C528.45,-52.67 537.16,-51.15 545.7,-49.65"/>
<polygon fill="#63b8ff" stroke="#63b8ff" points="546.38,-53.09 555.63,-47.91 545.17,-46.19 546.38,-53.09"/>
</a>
</g>
</g>
<!-- Node6&#45;&gt;Node5 -->
<g id="edge6_Node000006_Node000005" class="edge">
<title>Node6&#45;&gt;Node5</title>
<g id="a_edge6_Node000006_Node000005"><a xlink:title=" ">
<path fill="none" stroke="#63b8ff" d="M520.12,-23.87C528.45,-25.33 537.16,-26.85 545.7,-28.35"/>
<polygon fill="#63b8ff" stroke="#63b8ff" points="545.17,-31.81 555.63,-30.09 546.38,-24.91 545.17,-31.81"/>
</a>
</g>
</g>
</g>
</svg>
