<?xml version="1.0" encoding="UTF-8" standalone="no"?>
<!DOCTYPE svg PUBLIC "-//W3C//DTD SVG 1.1//EN"
 "http://www.w3.org/Graphics/SVG/1.1/DTD/svg11.dtd">
<!-- Generated by graphviz version 2.43.0 (0)
 -->
<!-- Title: lci::counter_get_x::call_impl Pages: 1 -->
<svg width="389pt" height="86pt"
 viewBox="0.00 0.00 389.00 86.00" xmlns="http://www.w3.org/2000/svg" xmlns:xlink="http://www.w3.org/1999/xlink">
<g id="graph0" class="graph" transform="scale(1 1) rotate(0) translate(4 82)">
<title>lci::counter_get_x::call_impl</title>
<!-- Node1 -->
<g id="Node000001" class="node">
<title>Node1</title>
<g id="a_Node000001"><a xlink:title=" ">
<polygon fill="#999999" stroke="#666666" points="103,-54 0,-54 0,-24 103,-24 103,-54"/>
<text text-anchor="start" x="8" y="-42" font-family="Helvetica,sans-Serif" font-size="10.00">lci::counter_get_x</text>
<text text-anchor="middle" x="51.5" y="-31" font-family="Helvetica,sans-Serif" font-size="10.00">::call_impl</text>
</a>
</g>
</g>
<!-- Node2 -->
<g id="Node000002" class="node">
<title>Node2</title>
<g id="a_Node000002"><a xlink:href="../../d4/d46/classlci_1_1counter__get__x.html#afaa2174ec09f060606046aa8c5d59053" target="_top" xlink:title=" ">
<polygon fill="white" stroke="#666666" points="242,-78 139,-78 139,-48 242,-48 242,-78"/>
<text text-anchor="start" x="147" y="-66" font-family="Helvetica,sans-Serif" font-size="10.00">lci::counter_get_x</text>
<text text-anchor="middle" x="190.5" y="-55" font-family="Helvetica,sans-Serif" font-size="10.00">::comp</text>
</a>
</g>
</g>
<!-- Node1&#45;&gt;Node2 -->
<g id="edge1_Node000001_Node000002" class="edge">
<title>Node1&#45;&gt;Node2</title>
<g id="a_edge1_Node000001_Node000002"><a xlink:title=" ">
<path fill="none" stroke="#63b8ff" d="M103.12,-47.87C111.45,-49.33 120.16,-50.85 128.7,-52.35"/>
<polygon fill="#63b8ff" stroke="#63b8ff" points="128.17,-55.81 138.63,-54.09 129.38,-48.91 128.17,-55.81"/>
</a>
</g>
</g>
<!-- Node4 -->
<g id="Node000004" class="node">
<title>Node4</title>
<g id="a_Node000004"><a xlink:href="../../d4/d46/classlci_1_1counter__get__x.html#aa94cdfeb52477e195e6a445227467a76" target="_top" xlink:title=" ">
<polygon fill="white" stroke="#666666" points="242,-30 139,-30 139,0 242,0 242,-30"/>
<text text-anchor="start" x="147" y="-18" font-family="Helvetica,sans-Serif" font-size="10.00">lci::counter_get_x</text>
<text text-anchor="middle" x="190.5" y="-7" font-family="Helvetica,sans-Serif" font-size="10.00">::runtime</text>
</a>
</g>
</g>
<!-- Node1&#45;&gt;Node4 -->
<g id="edge3_Node000001_Node000004" class="edge">
<title>Node1&#45;&gt;Node4</title>
<g id="a_edge3_Node000001_Node000004"><a xlink:title=" ">
<path fill="none" stroke="#63b8ff" d="M103.12,-30.13C111.45,-28.67 120.16,-27.15 128.7,-25.65"/>
<polygon fill="#63b8ff" stroke="#63b8ff" points="129.38,-29.09 138.63,-23.91 128.17,-22.19 129.38,-29.09"/>
</a>
</g>
</g>
<!-- Node3 -->
<g id="Node000003" class="node">
<title>Node3</title>
<g id="a_Node000003"><a xlink:href="../../d4/d46/classlci_1_1counter__get__x.html#a8c0145a82621d6519282ccb9fb977d71" target="_top" xlink:title=" ">
<polygon fill="white" stroke="#666666" points="381,-54 278,-54 278,-24 381,-24 381,-54"/>
<text text-anchor="start" x="286" y="-42" font-family="Helvetica,sans-Serif" font-size="10.00">lci::counter_get_x</text>
<text text-anchor="middle" x="329.5" y="-31" font-family="Helvetica,sans-Serif" font-size="10.00">::counter_get_x</text>
</a>
</g>
</g>
<!-- Node2&#45;&gt;Node3 -->
<g id="edge2_Node000002_Node000003" class="edge">
<title>Node2&#45;&gt;Node3</title>
<g id="a_edge2_Node000002_Node000003"><a xlink:title=" ">
<path fill="none" stroke="#63b8ff" d="M242.12,-54.13C250.45,-52.67 259.16,-51.15 267.7,-49.65"/>
<polygon fill="#63b8ff" stroke="#63b8ff" points="268.38,-53.09 277.63,-47.91 267.17,-46.19 268.38,-53.09"/>
</a>
</g>
</g>
<!-- Node4&#45;&gt;Node3 -->
<g id="edge4_Node000004_Node000003" class="edge">
<title>Node4&#45;&gt;Node3</title>
<g id="a_edge4_Node000004_Node000003"><a xlink:title=" ">
<path fill="none" stroke="#63b8ff" d="M242.12,-23.87C250.45,-25.33 259.16,-26.85 267.7,-28.35"/>
<polygon fill="#63b8ff" stroke="#63b8ff" points="267.17,-31.81 277.63,-30.09 268.38,-24.91 267.17,-31.81"/>
</a>
</g>
</g>
</g>
</svg>
