<?xml version="1.0" encoding="UTF-8" standalone="no"?>
<!DOCTYPE svg PUBLIC "-//W3C//DTD SVG 1.1//EN"
 "http://www.w3.org/Graphics/SVG/1.1/DTD/svg11.dtd">
<!-- Generated by graphviz version 2.43.0 (0)
 -->
<!-- Title: lci::alloc_runtime_x Pages: 1 -->
<svg width="423pt" height="311pt"
 viewBox="0.00 0.00 423.00 311.00" xmlns="http://www.w3.org/2000/svg" xmlns:xlink="http://www.w3.org/1999/xlink">
<g id="graph0" class="graph" transform="scale(1 1) rotate(0) translate(4 307)">
<title>lci::alloc_runtime_x</title>
<!-- Node1 -->
<g id="Node000001" class="node">
<title>Node1</title>
<g id="a_Node000001"><a xlink:title="The actual implementation for alloc_runtime.">
<polygon fill="#999999" stroke="#666666" points="415,-144.5 303,-144.5 303,-125.5 415,-125.5 415,-144.5"/>
<text text-anchor="middle" x="359" y="-132.5" font-family="Helvetica,sans-Serif" font-size="10.00">lci::alloc_runtime_x</text>
</a>
</g>
</g>
<!-- Node2 -->
<g id="Node000002" class="node">
<title>Node2</title>
<g id="a_Node000002"><a xlink:href="../../db/d20/structlci_1_1option__t.html" target="_top" xlink:title=" ">
<polygon fill="white" stroke="#666666" points="125,-292.5 0,-292.5 0,-273.5 125,-273.5 125,-292.5"/>
<text text-anchor="middle" x="62.5" y="-280.5" font-family="Helvetica,sans-Serif" font-size="10.00">lci::option_t&lt; size_t &gt;</text>
</a>
</g>
</g>
<!-- Node2&#45;&gt;Node1 -->
<g id="edge1_Node000001_Node000002" class="edge">
<title>Node2&#45;&gt;Node1</title>
<g id="a_edge1_Node000001_Node000002"><a xlink:title=" ">
<path fill="none" stroke="#9a32cd" stroke-dasharray="5,2" d="M135.51,-291.83C181.71,-293.85 241.06,-289.31 285,-261 328.57,-232.93 349.17,-169.02 355.65,-144.67"/>
<polygon fill="#9a32cd" stroke="#9a32cd" points="135.44,-288.32 125.26,-291.26 135.05,-295.31 135.44,-288.32"/>
</a>
</g>
<text text-anchor="middle" x="214" y="-295" font-family="Helvetica,sans-Serif" font-size="10.00" fill="grey"> m_packet_return_threshold</text>
</g>
<!-- Node3 -->
<g id="Node000003" class="node">
<title>Node3</title>
<g id="a_Node000003"><a xlink:href="../../db/d20/structlci_1_1option__t.html" target="_top" xlink:title=" ">
<polygon fill="white" stroke="#666666" points="117,-251.5 8,-251.5 8,-232.5 117,-232.5 117,-251.5"/>
<text text-anchor="middle" x="62.5" y="-239.5" font-family="Helvetica,sans-Serif" font-size="10.00">lci::option_t&lt; int &gt;</text>
</a>
</g>
</g>
<!-- Node3&#45;&gt;Node1 -->
<g id="edge2_Node000001_Node000003" class="edge">
<title>Node3&#45;&gt;Node1</title>
<g id="a_edge2_Node000001_Node000003"><a xlink:title=" ">
<path fill="none" stroke="#9a32cd" stroke-dasharray="5,2" d="M127.16,-239.14C182.65,-235.77 258.3,-228.77 285,-215 316.92,-198.54 341.84,-162.11 352.44,-144.67"/>
<polygon fill="#9a32cd" stroke="#9a32cd" points="126.83,-235.65 117.05,-239.73 127.24,-242.64 126.83,-235.65"/>
</a>
</g>
<text text-anchor="middle" x="214" y="-251" font-family="Helvetica,sans-Serif" font-size="10.00" fill="grey"> m_imm_nbits_rcomp</text>
<text text-anchor="middle" x="214" y="-240" font-family="Helvetica,sans-Serif" font-size="10.00" fill="grey">m_imm_nbits_tag</text>
</g>
<!-- Node4 -->
<g id="Node000004" class="node">
<title>Node4</title>
<g id="a_Node000004"><a xlink:href="../../db/d20/structlci_1_1option__t.html" target="_top" xlink:title=" ">
<polygon fill="white" stroke="#666666" points="114,-214 11,-214 11,-184 114,-184 114,-214"/>
<text text-anchor="start" x="19" y="-202" font-family="Helvetica,sans-Serif" font-size="10.00">lci::option_t&lt; attr</text>
<text text-anchor="middle" x="62.5" y="-191" font-family="Helvetica,sans-Serif" font-size="10.00">_rdv_protocol_t &gt;</text>
</a>
</g>
</g>
<!-- Node4&#45;&gt;Node1 -->
<g id="edge3_Node000001_Node000004" class="edge">
<title>Node4&#45;&gt;Node1</title>
<g id="a_edge3_Node000001_Node000004"><a xlink:title=" ">
<path fill="none" stroke="#9a32cd" stroke-dasharray="5,2" d="M124.36,-201.28C169.73,-201.2 232.64,-197.29 285,-180 308.75,-172.16 332.77,-155.23 346.47,-144.52"/>
<polygon fill="#9a32cd" stroke="#9a32cd" points="124.11,-197.78 114.09,-201.23 124.07,-204.78 124.11,-197.78"/>
</a>
</g>
<text text-anchor="middle" x="214" y="-203" font-family="Helvetica,sans-Serif" font-size="10.00" fill="grey"> m_rdv_protocol</text>
</g>
<!-- Node5 -->
<g id="Node000005" class="node">
<title>Node5</title>
<g id="a_Node000005"><a xlink:href="../../db/d20/structlci_1_1option__t.html" target="_top" xlink:title=" ">
<polygon fill="white" stroke="#666666" points="121,-153.5 4,-153.5 4,-134.5 121,-134.5 121,-153.5"/>
<text text-anchor="middle" x="62.5" y="-141.5" font-family="Helvetica,sans-Serif" font-size="10.00">lci::option_t&lt; bool &gt;</text>
</a>
</g>
</g>
<!-- Node5&#45;&gt;Node1 -->
<g id="edge4_Node000001_Node000005" class="edge">
<title>Node5&#45;&gt;Node1</title>
<g id="a_edge4_Node000001_Node000005"><a xlink:title=" ">
<path fill="none" stroke="#9a32cd" stroke-dasharray="5,2" d="M131.17,-136.75C135.17,-136.46 139.14,-136.2 143,-136 197.24,-133.15 259.27,-133.22 302.72,-133.81"/>
<polygon fill="#9a32cd" stroke="#9a32cd" points="130.89,-133.26 121.2,-137.54 131.45,-140.24 130.89,-133.26"/>
</a>
</g>
<text text-anchor="middle" x="214" y="-172" font-family="Helvetica,sans-Serif" font-size="10.00" fill="grey"> m_alloc_default_device</text>
<text text-anchor="start" x="143" y="-161" font-family="Helvetica,sans-Serif" font-size="10.00" fill="grey">m_alloc_default_matching</text>
<text text-anchor="middle" x="214" y="-150" font-family="Helvetica,sans-Serif" font-size="10.00" fill="grey">_engine</text>
<text text-anchor="middle" x="214" y="-139" font-family="Helvetica,sans-Serif" font-size="10.00" fill="grey">m_alloc_default_packet_pool</text>
</g>
<!-- Node6 -->
<g id="Node000006" class="node">
<title>Node6</title>
<g id="a_Node000006"><a xlink:href="../../db/d20/structlci_1_1option__t.html" target="_top" xlink:title=" ">
<polygon fill="white" stroke="#666666" points="118,-116 7,-116 7,-86 118,-86 118,-116"/>
<text text-anchor="start" x="15" y="-104" font-family="Helvetica,sans-Serif" font-size="10.00">lci::option_t&lt; const</text>
<text text-anchor="middle" x="62.5" y="-93" font-family="Helvetica,sans-Serif" font-size="10.00"> char * &gt;</text>
</a>
</g>
</g>
<!-- Node6&#45;&gt;Node1 -->
<g id="edge5_Node000001_Node000006" class="edge">
<title>Node6&#45;&gt;Node1</title>
<g id="a_edge5_Node000001_Node000006"><a xlink:title=" ">
<path fill="none" stroke="#9a32cd" stroke-dasharray="5,2" d="M128.44,-103.38C172.75,-105.64 232.66,-109.95 285,-118 297.09,-119.86 310.14,-122.65 321.82,-125.43"/>
<polygon fill="#9a32cd" stroke="#9a32cd" points="128.54,-99.88 118.38,-102.89 128.2,-106.87 128.54,-99.88"/>
</a>
</g>
<text text-anchor="middle" x="214" y="-121" font-family="Helvetica,sans-Serif" font-size="10.00" fill="grey"> m_name</text>
</g>
<!-- Node7 -->
<g id="Node000007" class="node">
<title>Node7</title>
<g id="a_Node000007"><a xlink:href="../../db/d20/structlci_1_1option__t.html" target="_top" xlink:title=" ">
<polygon fill="white" stroke="#666666" points="125,-67.5 0,-67.5 0,-48.5 125,-48.5 125,-67.5"/>
<text text-anchor="middle" x="62.5" y="-55.5" font-family="Helvetica,sans-Serif" font-size="10.00">lci::option_t&lt; void * &gt;</text>
</a>
</g>
</g>
<!-- Node7&#45;&gt;Node1 -->
<g id="edge6_Node000001_Node000007" class="edge">
<title>Node7&#45;&gt;Node1</title>
<g id="a_edge6_Node000001_Node000007"><a xlink:title=" ">
<path fill="none" stroke="#9a32cd" stroke-dasharray="5,2" d="M135.44,-60.4C179.71,-63.73 236.96,-71.43 285,-89 308.63,-97.65 332.69,-114.75 346.43,-125.49"/>
<polygon fill="#9a32cd" stroke="#9a32cd" points="135.57,-56.9 125.35,-59.7 135.08,-63.88 135.57,-56.9"/>
</a>
</g>
<text text-anchor="middle" x="214" y="-92" font-family="Helvetica,sans-Serif" font-size="10.00" fill="grey"> m_user_context</text>
</g>
<!-- Node8 -->
<g id="Node000008" class="node">
<title>Node8</title>
<g id="a_Node000008"><a xlink:href="../../db/d20/structlci_1_1option__t.html" target="_top" xlink:title=" ">
<polygon fill="white" stroke="#666666" points="112.5,-30 12.5,-30 12.5,0 112.5,0 112.5,-30"/>
<text text-anchor="start" x="20.5" y="-18" font-family="Helvetica,sans-Serif" font-size="10.00">lci::option_t&lt; std</text>
<text text-anchor="middle" x="62.5" y="-7" font-family="Helvetica,sans-Serif" font-size="10.00">::string &gt;</text>
</a>
</g>
</g>
<!-- Node8&#45;&gt;Node1 -->
<g id="edge7_Node000001_Node000008" class="edge">
<title>Node8&#45;&gt;Node1</title>
<g id="a_edge7_Node000001_Node000008"><a xlink:title=" ">
<path fill="none" stroke="#9a32cd" stroke-dasharray="5,2" d="M122.51,-11.88C169.4,-11.97 235.16,-18.03 285,-46 318.98,-65.07 343.55,-106.73 353.33,-125.5"/>
<polygon fill="#9a32cd" stroke="#9a32cd" points="122.48,-8.38 112.51,-11.95 122.53,-15.38 122.48,-8.38"/>
</a>
</g>
<text text-anchor="middle" x="214" y="-49" font-family="Helvetica,sans-Serif" font-size="10.00" fill="grey"> m_device_name</text>
</g>
</g>
</svg>
