<?xml version="1.0" encoding="UTF-8" standalone="no"?>
<!DOCTYPE svg PUBLIC "-//W3C//DTD SVG 1.1//EN"
 "http://www.w3.org/Graphics/SVG/1.1/DTD/svg11.dtd">
<!-- Generated by graphviz version 2.43.0 (0)
 -->
<!-- Title: lci::alloc_runtime_x Pages: 1 -->
<svg width="423pt" height="177pt"
 viewBox="0.00 0.00 423.00 176.50" xmlns="http://www.w3.org/2000/svg" xmlns:xlink="http://www.w3.org/1999/xlink">
<g id="graph0" class="graph" transform="scale(1 1) rotate(0) translate(4 172.5)">
<title>lci::alloc_runtime_x</title>
<!-- Node1 -->
<g id="Node000001" class="node">
<title>Node1</title>
<g id="a_Node000001"><a xlink:title="The actual implementation for alloc_runtime.">
<polygon fill="#999999" stroke="#666666" points="415,-89 303,-89 303,-70 415,-70 415,-89"/>
<text text-anchor="middle" x="359" y="-77" font-family="Helvetica,sans-Serif" font-size="10.00">lci::alloc_runtime_x</text>
</a>
</g>
</g>
<!-- Node2 -->
<g id="Node000002" class="node">
<title>Node2</title>
<g id="a_Node000002"><a xlink:href="../../db/d20/structlci_1_1option__t.html" target="_top" xlink:title=" ">
<polygon fill="white" stroke="#666666" points="125,-168 0,-168 0,-149 125,-149 125,-168"/>
<text text-anchor="middle" x="62.5" y="-156" font-family="Helvetica,sans-Serif" font-size="10.00">lci::option_t&lt; size_t &gt;</text>
</a>
</g>
</g>
<!-- Node2&#45;&gt;Node1 -->
<g id="edge1_Node000001_Node000002" class="edge">
<title>Node2&#45;&gt;Node1</title>
<g id="a_edge1_Node000001_Node000002"><a xlink:title=" ">
<path fill="none" stroke="#9a32cd" stroke-dasharray="5,2" d="M135.3,-158.66C179.75,-156.62 237.25,-150.03 285,-131.5 310.24,-121.71 334.89,-101.2 348.1,-89.07"/>
<polygon fill="#9a32cd" stroke="#9a32cd" points="135.02,-155.17 125.16,-159.06 135.29,-162.16 135.02,-155.17"/>
</a>
</g>
<text text-anchor="middle" x="214" y="-160.5" font-family="Helvetica,sans-Serif" font-size="10.00" fill="grey"> m_packet_return_threshold</text>
</g>
<!-- Node3 -->
<g id="Node000003" class="node">
<title>Node3</title>
<g id="a_Node000003"><a xlink:href="../../db/d20/structlci_1_1option__t.html" target="_top" xlink:title=" ">
<polygon fill="white" stroke="#666666" points="117,-123 8,-123 8,-104 117,-104 117,-123"/>
<text text-anchor="middle" x="62.5" y="-111" font-family="Helvetica,sans-Serif" font-size="10.00">lci::option_t&lt; int &gt;</text>
</a>
</g>
</g>
<!-- Node3&#45;&gt;Node1 -->
<g id="edge2_Node000001_Node000003" class="edge">
<title>Node3&#45;&gt;Node1</title>
<g id="a_edge2_Node000001_Node000003"><a xlink:title=" ">
<path fill="none" stroke="#9a32cd" stroke-dasharray="5,2" d="M127.37,-108.25C171.69,-104.33 232.04,-98.48 285,-91.5 290.73,-90.75 296.7,-89.89 302.65,-88.98"/>
<polygon fill="#9a32cd" stroke="#9a32cd" points="126.98,-104.77 117.32,-109.12 127.59,-111.74 126.98,-104.77"/>
</a>
</g>
<text text-anchor="middle" x="214" y="-119.5" font-family="Helvetica,sans-Serif" font-size="10.00" fill="grey"> m_imm_nbits_rcomp</text>
<text text-anchor="middle" x="214" y="-108.5" font-family="Helvetica,sans-Serif" font-size="10.00" fill="grey">m_imm_nbits_tag</text>
</g>
<!-- Node4 -->
<g id="Node000004" class="node">
<title>Node4</title>
<g id="a_Node000004"><a xlink:href="../../db/d20/structlci_1_1option__t.html" target="_top" xlink:title=" ">
<polygon fill="white" stroke="#666666" points="121,-56 4,-56 4,-37 121,-37 121,-56"/>
<text text-anchor="middle" x="62.5" y="-44" font-family="Helvetica,sans-Serif" font-size="10.00">lci::option_t&lt; bool &gt;</text>
</a>
</g>
</g>
<!-- Node4&#45;&gt;Node1 -->
<g id="edge3_Node000001_Node000004" class="edge">
<title>Node4&#45;&gt;Node1</title>
<g id="a_edge3_Node000001_Node000004"><a xlink:title=" ">
<path fill="none" stroke="#9a32cd" stroke-dasharray="5,2" d="M131.15,-39.75C175.41,-37.05 234.22,-36.74 285,-47.5 305.44,-51.83 327.17,-62.19 341.55,-69.95"/>
<polygon fill="#9a32cd" stroke="#9a32cd" points="130.83,-36.26 121.08,-40.41 131.29,-43.24 130.83,-36.26"/>
</a>
</g>
<text text-anchor="middle" x="214" y="-83.5" font-family="Helvetica,sans-Serif" font-size="10.00" fill="grey"> m_alloc_default_device</text>
<text text-anchor="start" x="143" y="-72.5" font-family="Helvetica,sans-Serif" font-size="10.00" fill="grey">m_alloc_default_matching</text>
<text text-anchor="middle" x="214" y="-61.5" font-family="Helvetica,sans-Serif" font-size="10.00" fill="grey">_engine</text>
<text text-anchor="middle" x="214" y="-50.5" font-family="Helvetica,sans-Serif" font-size="10.00" fill="grey">m_alloc_default_packet_pool</text>
</g>
<!-- Node5 -->
<g id="Node000005" class="node">
<title>Node5</title>
<g id="a_Node000005"><a xlink:href="../../db/d20/structlci_1_1option__t.html" target="_top" xlink:title=" ">
<polygon fill="white" stroke="#666666" points="125,-19 0,-19 0,0 125,0 125,-19"/>
<text text-anchor="middle" x="62.5" y="-7" font-family="Helvetica,sans-Serif" font-size="10.00">lci::option_t&lt; void * &gt;</text>
</a>
</g>
</g>
<!-- Node5&#45;&gt;Node1 -->
<g id="edge4_Node000001_Node000005" class="edge">
<title>Node5&#45;&gt;Node1</title>
<g id="a_edge4_Node000001_Node000005"><a xlink:title=" ">
<path fill="none" stroke="#9a32cd" stroke-dasharray="5,2" d="M135.37,-3.07C179.85,-1.65 237.35,-4.52 285,-22.5 311.78,-32.6 336.61,-56.21 349.26,-69.66"/>
<polygon fill="#9a32cd" stroke="#9a32cd" points="135.08,0.42 125.23,-3.47 135.36,-6.57 135.08,0.42"/>
</a>
</g>
<text text-anchor="middle" x="214" y="-25.5" font-family="Helvetica,sans-Serif" font-size="10.00" fill="grey"> m_user_context</text>
</g>
</g>
</svg>
