<?xml version="1.0" encoding="UTF-8" standalone="no"?>
<!DOCTYPE svg PUBLIC "-//W3C//DTD SVG 1.1//EN"
 "http://www.w3.org/Graphics/SVG/1.1/DTD/svg11.dtd">
<!-- Generated by graphviz version 2.43.0 (0)
 -->
<!-- Title: lci::alloc_runtime_x Pages: 1 -->
<svg width="423pt" height="228pt"
 viewBox="0.00 0.00 423.00 227.50" xmlns="http://www.w3.org/2000/svg" xmlns:xlink="http://www.w3.org/1999/xlink">
<g id="graph0" class="graph" transform="scale(1 1) rotate(0) translate(4 223.5)">
<title>lci::alloc_runtime_x</title>
<!-- Node1 -->
<g id="Node000001" class="node">
<title>Node1</title>
<g id="a_Node000001"><a xlink:title="The actual implementation for alloc_runtime.">
<polygon fill="#999999" stroke="#666666" points="415,-100 303,-100 303,-81 415,-81 415,-100"/>
<text text-anchor="middle" x="359" y="-88" font-family="Helvetica,sans-Serif" font-size="10.00">lci::alloc_runtime_x</text>
</a>
</g>
</g>
<!-- Node2 -->
<g id="Node000002" class="node">
<title>Node2</title>
<g id="a_Node000002"><a xlink:href="../../db/d20/structlci_1_1option__t.html" target="_top" xlink:title=" ">
<polygon fill="white" stroke="#666666" points="125,-212 0,-212 0,-193 125,-193 125,-212"/>
<text text-anchor="middle" x="62.5" y="-200" font-family="Helvetica,sans-Serif" font-size="10.00">lci::option_t&lt; size_t &gt;</text>
</a>
</g>
</g>
<!-- Node2&#45;&gt;Node1 -->
<g id="edge1_Node000001_Node000002" class="edge">
<title>Node2&#45;&gt;Node1</title>
<g id="a_edge1_Node000001_Node000002"><a xlink:title=" ">
<path fill="none" stroke="#9a32cd" stroke-dasharray="5,2" d="M135.53,-209.01C180.97,-209.93 239.45,-205.04 285,-180.5 319.54,-161.89 343.82,-119.41 353.42,-100.23"/>
<polygon fill="#9a32cd" stroke="#9a32cd" points="135.56,-205.51 125.46,-208.71 135.35,-212.51 135.56,-205.51"/>
</a>
</g>
<text text-anchor="middle" x="214" y="-211.5" font-family="Helvetica,sans-Serif" font-size="10.00" fill="grey"> m_packet_return_threshold</text>
</g>
<!-- Node3 -->
<g id="Node000003" class="node">
<title>Node3</title>
<g id="a_Node000003"><a xlink:href="../../db/d20/structlci_1_1option__t.html" target="_top" xlink:title=" ">
<polygon fill="white" stroke="#666666" points="117,-167 8,-167 8,-148 117,-148 117,-167"/>
<text text-anchor="middle" x="62.5" y="-155" font-family="Helvetica,sans-Serif" font-size="10.00">lci::option_t&lt; int &gt;</text>
</a>
</g>
</g>
<!-- Node3&#45;&gt;Node1 -->
<g id="edge2_Node000001_Node000003" class="edge">
<title>Node3&#45;&gt;Node1</title>
<g id="a_edge2_Node000001_Node000003"><a xlink:title=" ">
<path fill="none" stroke="#9a32cd" stroke-dasharray="5,2" d="M127.51,-158.7C172.63,-157.74 233.88,-152.76 285,-135.5 308.56,-127.54 332.44,-110.82 346.21,-100.15"/>
<polygon fill="#9a32cd" stroke="#9a32cd" points="127.22,-155.2 117.27,-158.85 127.33,-162.2 127.22,-155.2"/>
</a>
</g>
<text text-anchor="middle" x="214" y="-171.5" font-family="Helvetica,sans-Serif" font-size="10.00" fill="grey"> m_imm_nbits_rcomp</text>
<text text-anchor="middle" x="214" y="-160.5" font-family="Helvetica,sans-Serif" font-size="10.00" fill="grey">m_imm_nbits_tag</text>
</g>
<!-- Node4 -->
<g id="Node000004" class="node">
<title>Node4</title>
<g id="a_Node000004"><a xlink:href="../../db/d20/structlci_1_1option__t.html" target="_top" xlink:title=" ">
<polygon fill="white" stroke="#666666" points="121,-105 4,-105 4,-86 121,-86 121,-105"/>
<text text-anchor="middle" x="62.5" y="-93" font-family="Helvetica,sans-Serif" font-size="10.00">lci::option_t&lt; bool &gt;</text>
</a>
</g>
</g>
<!-- Node4&#45;&gt;Node1 -->
<g id="edge3_Node000001_Node000004" class="edge">
<title>Node4&#45;&gt;Node1</title>
<g id="a_edge3_Node000001_Node000004"><a xlink:title=" ">
<path fill="none" stroke="#9a32cd" stroke-dasharray="5,2" d="M131.54,-91.87C135.42,-91.73 139.26,-91.6 143,-91.5 197.29,-90.01 259.32,-89.89 302.75,-90.06"/>
<polygon fill="#9a32cd" stroke="#9a32cd" points="131.09,-88.39 121.24,-92.29 131.37,-95.38 131.09,-88.39"/>
</a>
</g>
<text text-anchor="middle" x="214" y="-127.5" font-family="Helvetica,sans-Serif" font-size="10.00" fill="grey"> m_alloc_default_device</text>
<text text-anchor="start" x="143" y="-116.5" font-family="Helvetica,sans-Serif" font-size="10.00" fill="grey">m_alloc_default_matching</text>
<text text-anchor="middle" x="214" y="-105.5" font-family="Helvetica,sans-Serif" font-size="10.00" fill="grey">_engine</text>
<text text-anchor="middle" x="214" y="-94.5" font-family="Helvetica,sans-Serif" font-size="10.00" fill="grey">m_alloc_default_packet_pool</text>
</g>
<!-- Node5 -->
<g id="Node000005" class="node">
<title>Node5</title>
<g id="a_Node000005"><a xlink:href="../../db/d20/structlci_1_1option__t.html" target="_top" xlink:title=" ">
<polygon fill="white" stroke="#666666" points="114,-67.5 11,-67.5 11,-37.5 114,-37.5 114,-67.5"/>
<text text-anchor="start" x="19" y="-55.5" font-family="Helvetica,sans-Serif" font-size="10.00">lci::option_t&lt; attr</text>
<text text-anchor="middle" x="62.5" y="-44.5" font-family="Helvetica,sans-Serif" font-size="10.00">_rdv_protocol_t &gt;</text>
</a>
</g>
</g>
<!-- Node5&#45;&gt;Node1 -->
<g id="edge4_Node000001_Node000005" class="edge">
<title>Node5&#45;&gt;Node1</title>
<g id="a_edge4_Node000001_Node000005"><a xlink:title=" ">
<path fill="none" stroke="#9a32cd" stroke-dasharray="5,2" d="M124.4,-56.62C169.04,-60.11 231,-65.93 285,-74.5 295.89,-76.23 307.6,-78.57 318.38,-80.93"/>
<polygon fill="#9a32cd" stroke="#9a32cd" points="124.54,-53.12 114.3,-55.85 124,-60.1 124.54,-53.12"/>
</a>
</g>
<text text-anchor="middle" x="214" y="-77.5" font-family="Helvetica,sans-Serif" font-size="10.00" fill="grey"> m_rdv_protocol</text>
</g>
<!-- Node6 -->
<g id="Node000006" class="node">
<title>Node6</title>
<g id="a_Node000006"><a xlink:href="../../db/d20/structlci_1_1option__t.html" target="_top" xlink:title=" ">
<polygon fill="white" stroke="#666666" points="125,-19 0,-19 0,0 125,0 125,-19"/>
<text text-anchor="middle" x="62.5" y="-7" font-family="Helvetica,sans-Serif" font-size="10.00">lci::option_t&lt; void * &gt;</text>
</a>
</g>
</g>
<!-- Node6&#45;&gt;Node1 -->
<g id="edge5_Node000001_Node000006" class="edge">
<title>Node6&#45;&gt;Node1</title>
<g id="a_edge5_Node000001_Node000006"><a xlink:title=" ">
<path fill="none" stroke="#9a32cd" stroke-dasharray="5,2" d="M135.52,-12.92C179.81,-16.87 237.07,-25.34 285,-43.5 308.68,-52.47 332.72,-69.91 346.45,-80.84"/>
<polygon fill="#9a32cd" stroke="#9a32cd" points="135.67,-9.42 125.42,-12.08 135.09,-16.4 135.67,-9.42"/>
</a>
</g>
<text text-anchor="middle" x="214" y="-46.5" font-family="Helvetica,sans-Serif" font-size="10.00" fill="grey"> m_user_context</text>
</g>
</g>
</svg>
