<?xml version="1.0" encoding="UTF-8" standalone="no"?>
<!DOCTYPE svg PUBLIC "-//W3C//DTD SVG 1.1//EN"
 "http://www.w3.org/Graphics/SVG/1.1/DTD/svg11.dtd">
<!-- Generated by graphviz version 2.43.0 (0)
 -->
<!-- Title: lci::net_post_puts_x::call Pages: 1 -->
<svg width="535pt" height="422pt"
 viewBox="0.00 0.00 535.00 422.00" xmlns="http://www.w3.org/2000/svg" xmlns:xlink="http://www.w3.org/1999/xlink">
<g id="graph0" class="graph" transform="scale(1 1) rotate(0) translate(4 418)">
<title>lci::net_post_puts_x::call</title>
<!-- Node1 -->
<g id="Node000001" class="node">
<title>Node1</title>
<g id="a_Node000001"><a xlink:title=" ">
<polygon fill="#999999" stroke="#666666" points="102,-219 0,-219 0,-189 102,-189 102,-219"/>
<text text-anchor="start" x="8" y="-207" font-family="Helvetica,sans-Serif" font-size="10.00">lci::net_post_puts</text>
<text text-anchor="middle" x="51" y="-196" font-family="Helvetica,sans-Serif" font-size="10.00">_x::call</text>
</a>
</g>
</g>
<!-- Node2 -->
<g id="Node000002" class="node">
<title>Node2</title>
<g id="a_Node000002"><a xlink:href="../../d6/daa/classlci_1_1net__post__puts__x.html#a719c72009a8bfa0caf51e79e2fc0281c" target="_top" xlink:title=" ">
<polygon fill="white" stroke="#666666" points="378,-414 276,-414 276,-384 378,-384 378,-414"/>
<text text-anchor="start" x="284" y="-402" font-family="Helvetica,sans-Serif" font-size="10.00">lci::net_post_puts</text>
<text text-anchor="middle" x="327" y="-391" font-family="Helvetica,sans-Serif" font-size="10.00">_x::base</text>
</a>
</g>
</g>
<!-- Node1&#45;&gt;Node2 -->
<g id="edge1_Node000001_Node000002" class="edge">
<title>Node1&#45;&gt;Node2</title>
<g id="a_edge1_Node000001_Node000002"><a xlink:title=" ">
<path fill="none" stroke="#63b8ff" d="M58.71,-219.33C70.87,-245.41 98.95,-298.55 138,-329 175.6,-358.32 226.75,-376.3 266.2,-386.68"/>
<polygon fill="#63b8ff" stroke="#63b8ff" points="265.41,-390.09 275.96,-389.16 267.13,-383.31 265.41,-390.09"/>
</a>
</g>
</g>
<!-- Node4 -->
<g id="Node000004" class="node">
<title>Node4</title>
<g id="a_Node000004"><a xlink:href="../../d6/daa/classlci_1_1net__post__puts__x.html#a4f53c0e0ebc92f0de84ee1e429981577" target="_top" xlink:title=" ">
<polygon fill="white" stroke="#666666" points="378,-366 276,-366 276,-336 378,-336 378,-366"/>
<text text-anchor="start" x="284" y="-354" font-family="Helvetica,sans-Serif" font-size="10.00">lci::net_post_puts</text>
<text text-anchor="middle" x="327" y="-343" font-family="Helvetica,sans-Serif" font-size="10.00">_x::buffer</text>
</a>
</g>
</g>
<!-- Node1&#45;&gt;Node4 -->
<g id="edge3_Node000001_Node000004" class="edge">
<title>Node1&#45;&gt;Node4</title>
<g id="a_edge3_Node000001_Node000004"><a xlink:title=" ">
<path fill="none" stroke="#63b8ff" d="M62.1,-219.08C76.55,-239.5 105.05,-275.71 138,-296 177.08,-320.06 227.19,-334.04 265.85,-341.87"/>
<polygon fill="#63b8ff" stroke="#63b8ff" points="265.44,-345.36 275.93,-343.83 266.78,-338.49 265.44,-345.36"/>
</a>
</g>
</g>
<!-- Node5 -->
<g id="Node000005" class="node">
<title>Node5</title>
<g id="a_Node000005"><a xlink:href="../../d6/daa/classlci_1_1net__post__puts__x.html#ad713f3cb7f488770026db506d2ed2781" target="_top" xlink:title=" ">
<polygon fill="white" stroke="#666666" points="240,-241 138,-241 138,-211 240,-211 240,-241"/>
<text text-anchor="start" x="146" y="-229" font-family="Helvetica,sans-Serif" font-size="10.00">lci::net_post_puts</text>
<text text-anchor="middle" x="189" y="-218" font-family="Helvetica,sans-Serif" font-size="10.00">_x::call_impl</text>
</a>
</g>
</g>
<!-- Node1&#45;&gt;Node5 -->
<g id="edge5_Node000001_Node000005" class="edge">
<title>Node1&#45;&gt;Node5</title>
<g id="a_edge5_Node000001_Node000005"><a xlink:title=" ">
<path fill="none" stroke="#63b8ff" d="M102.25,-212.13C110.63,-213.48 119.39,-214.9 127.98,-216.29"/>
<polygon fill="#63b8ff" stroke="#63b8ff" points="127.52,-219.76 137.95,-217.9 128.64,-212.85 127.52,-219.76"/>
</a>
</g>
</g>
<!-- Node6 -->
<g id="Node000006" class="node">
<title>Node6</title>
<g id="a_Node000006"><a xlink:href="../../d6/daa/classlci_1_1net__post__puts__x.html#a50650208c34febb06008cd08cf9134c3" target="_top" xlink:title=" ">
<polygon fill="white" stroke="#666666" points="378,-318 276,-318 276,-288 378,-288 378,-318"/>
<text text-anchor="start" x="284" y="-306" font-family="Helvetica,sans-Serif" font-size="10.00">lci::net_post_puts</text>
<text text-anchor="middle" x="327" y="-295" font-family="Helvetica,sans-Serif" font-size="10.00">_x::device</text>
</a>
</g>
</g>
<!-- Node1&#45;&gt;Node6 -->
<g id="edge22_Node000001_Node000006" class="edge">
<title>Node1&#45;&gt;Node6</title>
<g id="a_edge22_Node000001_Node000006"><a xlink:title=" ">
<path fill="none" stroke="#63b8ff" d="M67.34,-219.21C83.5,-234.31 110.4,-256.9 138,-269 178.4,-286.71 227.57,-295.19 265.48,-299.26"/>
<polygon fill="#63b8ff" stroke="#63b8ff" points="265.57,-302.78 275.86,-300.29 266.26,-295.82 265.57,-302.78"/>
</a>
</g>
</g>
<!-- Node7 -->
<g id="Node000007" class="node">
<title>Node7</title>
<g id="a_Node000007"><a xlink:href="../../d6/daa/classlci_1_1net__post__puts__x.html#afb347d5c9fd0b1511cb41200450aef39" target="_top" xlink:title=" ">
<polygon fill="white" stroke="#666666" points="378,-270 276,-270 276,-240 378,-240 378,-270"/>
<text text-anchor="start" x="284" y="-258" font-family="Helvetica,sans-Serif" font-size="10.00">lci::net_post_puts</text>
<text text-anchor="middle" x="327" y="-247" font-family="Helvetica,sans-Serif" font-size="10.00">_x::endpoint</text>
</a>
</g>
</g>
<!-- Node1&#45;&gt;Node7 -->
<g id="edge23_Node000001_Node000007" class="edge">
<title>Node1&#45;&gt;Node7</title>
<g id="a_edge23_Node000001_Node000007"><a xlink:title=" ">
<path fill="none" stroke="#63b8ff" d="M73.45,-219.13C90.17,-229.98 114.43,-243.76 138,-250 179.54,-261 228.07,-262.01 265.41,-260.4"/>
<polygon fill="#63b8ff" stroke="#63b8ff" points="265.82,-263.88 275.63,-259.88 265.47,-256.89 265.82,-263.88"/>
</a>
</g>
</g>
<!-- Node8 -->
<g id="Node000008" class="node">
<title>Node8</title>
<g id="a_Node000008"><a xlink:href="../../d6/daa/classlci_1_1net__post__puts__x.html#a3d1f9af88d0b0d0d31ef5ae99617605a" target="_top" xlink:title=" ">
<polygon fill="white" stroke="#666666" points="378,-222 276,-222 276,-192 378,-192 378,-222"/>
<text text-anchor="start" x="284" y="-210" font-family="Helvetica,sans-Serif" font-size="10.00">lci::net_post_puts</text>
<text text-anchor="middle" x="327" y="-199" font-family="Helvetica,sans-Serif" font-size="10.00">_x::offset</text>
</a>
</g>
</g>
<!-- Node1&#45;&gt;Node8 -->
<g id="edge24_Node000001_Node000008" class="edge">
<title>Node1&#45;&gt;Node8</title>
<g id="a_edge24_Node000001_Node000008"><a xlink:title=" ">
<path fill="none" stroke="#63b8ff" d="M102.28,-202.38C140.15,-201.43 193.34,-200.64 240,-202 248.38,-202.24 257.22,-202.62 265.9,-203.06"/>
<polygon fill="#63b8ff" stroke="#63b8ff" points="265.83,-206.56 276,-203.6 266.2,-199.57 265.83,-206.56"/>
</a>
</g>
</g>
<!-- Node9 -->
<g id="Node000009" class="node">
<title>Node9</title>
<g id="a_Node000009"><a xlink:href="../../d6/daa/classlci_1_1net__post__puts__x.html#a0765457e1d93f7e0dad7b83a1d1fb538" target="_top" xlink:title=" ">
<polygon fill="white" stroke="#666666" points="378,-174 276,-174 276,-144 378,-144 378,-174"/>
<text text-anchor="start" x="284" y="-162" font-family="Helvetica,sans-Serif" font-size="10.00">lci::net_post_puts</text>
<text text-anchor="middle" x="327" y="-151" font-family="Helvetica,sans-Serif" font-size="10.00">_x::rank</text>
</a>
</g>
</g>
<!-- Node1&#45;&gt;Node9 -->
<g id="edge25_Node000001_Node000009" class="edge">
<title>Node1&#45;&gt;Node9</title>
<g id="a_edge25_Node000001_Node000009"><a xlink:title=" ">
<path fill="none" stroke="#63b8ff" d="M102.26,-195.75C148.27,-188.19 216.45,-176.99 265.45,-168.94"/>
<polygon fill="#63b8ff" stroke="#63b8ff" points="266.3,-172.35 275.6,-167.28 265.16,-165.44 266.3,-172.35"/>
</a>
</g>
</g>
<!-- Node10 -->
<g id="Node000010" class="node">
<title>Node10</title>
<g id="a_Node000010"><a xlink:href="../../d6/daa/classlci_1_1net__post__puts__x.html#a8506e388219a7af92dd9522e9b5bc1a6" target="_top" xlink:title=" ">
<polygon fill="white" stroke="#666666" points="378,-126 276,-126 276,-96 378,-96 378,-126"/>
<text text-anchor="start" x="284" y="-114" font-family="Helvetica,sans-Serif" font-size="10.00">lci::net_post_puts</text>
<text text-anchor="middle" x="327" y="-103" font-family="Helvetica,sans-Serif" font-size="10.00">_x::rkey</text>
</a>
</g>
</g>
<!-- Node1&#45;&gt;Node10 -->
<g id="edge26_Node000001_Node000010" class="edge">
<title>Node1&#45;&gt;Node10</title>
<g id="a_edge26_Node000001_Node000010"><a xlink:title=" ">
<path fill="none" stroke="#63b8ff" d="M86.88,-189C102.41,-182.53 121,-175.07 138,-169 180.38,-153.87 228.92,-138.96 266.06,-128.04"/>
<polygon fill="#63b8ff" stroke="#63b8ff" points="267.12,-131.38 275.74,-125.21 265.15,-124.66 267.12,-131.38"/>
</a>
</g>
</g>
<!-- Node11 -->
<g id="Node000011" class="node">
<title>Node11</title>
<g id="a_Node000011"><a xlink:href="../../d6/daa/classlci_1_1net__post__puts__x.html#a3de12c6366766903e3f30075f7885971" target="_top" xlink:title=" ">
<polygon fill="white" stroke="#666666" points="378,-78 276,-78 276,-48 378,-48 378,-78"/>
<text text-anchor="start" x="284" y="-66" font-family="Helvetica,sans-Serif" font-size="10.00">lci::net_post_puts</text>
<text text-anchor="middle" x="327" y="-55" font-family="Helvetica,sans-Serif" font-size="10.00">_x::runtime</text>
</a>
</g>
</g>
<!-- Node1&#45;&gt;Node11 -->
<g id="edge27_Node000001_Node000011" class="edge">
<title>Node1&#45;&gt;Node11</title>
<g id="a_edge27_Node000001_Node000011"><a xlink:title=" ">
<path fill="none" stroke="#63b8ff" d="M66.57,-188.73C82.73,-172.54 110.21,-147.11 138,-131 178.24,-107.67 227.88,-90.13 266.04,-78.71"/>
<polygon fill="#63b8ff" stroke="#63b8ff" points="267.37,-81.97 275.98,-75.8 265.4,-75.25 267.37,-81.97"/>
</a>
</g>
</g>
<!-- Node12 -->
<g id="Node000012" class="node">
<title>Node12</title>
<g id="a_Node000012"><a xlink:href="../../d6/daa/classlci_1_1net__post__puts__x.html#a0bf8827435f72bac93589da4f7b9e4e3" target="_top" xlink:title=" ">
<polygon fill="white" stroke="#666666" points="378,-30 276,-30 276,0 378,0 378,-30"/>
<text text-anchor="start" x="284" y="-18" font-family="Helvetica,sans-Serif" font-size="10.00">lci::net_post_puts</text>
<text text-anchor="middle" x="327" y="-7" font-family="Helvetica,sans-Serif" font-size="10.00">_x::size</text>
</a>
</g>
</g>
<!-- Node1&#45;&gt;Node12 -->
<g id="edge28_Node000001_Node000012" class="edge">
<title>Node1&#45;&gt;Node12</title>
<g id="a_edge28_Node000001_Node000012"><a xlink:title=" ">
<path fill="none" stroke="#63b8ff" d="M59.01,-188.72C71.43,-163.29 99.63,-112.17 138,-83 175.7,-54.34 226.61,-36.92 265.95,-26.89"/>
<polygon fill="#63b8ff" stroke="#63b8ff" points="266.81,-30.28 275.69,-24.5 265.14,-23.48 266.81,-30.28"/>
</a>
</g>
</g>
<!-- Node3 -->
<g id="Node000003" class="node">
<title>Node3</title>
<g id="a_Node000003"><a xlink:href="../../d6/daa/classlci_1_1net__post__puts__x.html#a3d1c8775e9df5fa8f2d1271eb712048f" target="_top" xlink:title=" ">
<polygon fill="white" stroke="#666666" points="527,-222 414,-222 414,-192 527,-192 527,-222"/>
<text text-anchor="start" x="422" y="-210" font-family="Helvetica,sans-Serif" font-size="10.00">lci::net_post_puts</text>
<text text-anchor="middle" x="470.5" y="-199" font-family="Helvetica,sans-Serif" font-size="10.00">_x::net_post_puts_x</text>
</a>
</g>
</g>
<!-- Node2&#45;&gt;Node3 -->
<g id="edge2_Node000002_Node000003" class="edge">
<title>Node2&#45;&gt;Node3</title>
<g id="a_edge2_Node000002_Node000003"><a xlink:title=" ">
<path fill="none" stroke="#63b8ff" d="M365.99,-383.98C370.31,-381.37 374.44,-378.38 378,-375 421.17,-333.98 448.75,-268.01 461.41,-232.16"/>
<polygon fill="#63b8ff" stroke="#63b8ff" points="464.79,-233.07 464.72,-222.48 458.17,-230.81 464.79,-233.07"/>
</a>
</g>
</g>
<!-- Node4&#45;&gt;Node3 -->
<g id="edge4_Node000004_Node000003" class="edge">
<title>Node4&#45;&gt;Node3</title>
<g id="a_edge4_Node000004_Node000003"><a xlink:title=" ">
<path fill="none" stroke="#63b8ff" d="M364.73,-335.89C369.41,-333.25 373.97,-330.28 378,-327 411.65,-299.59 440.07,-257.41 455.93,-231.05"/>
<polygon fill="#63b8ff" stroke="#63b8ff" points="459.14,-232.5 461.19,-222.11 453.1,-228.95 459.14,-232.5"/>
</a>
</g>
</g>
<!-- Node5&#45;&gt;Node2 -->
<g id="edge6_Node000005_Node000002" class="edge">
<title>Node5&#45;&gt;Node2</title>
<g id="a_edge6_Node000005_Node000002"><a xlink:title=" ">
<path fill="none" stroke="#63b8ff" d="M195.21,-241.05C206.03,-270.35 233.5,-335.61 276,-375 277.13,-376.04 278.3,-377.05 279.53,-378.02"/>
<polygon fill="#63b8ff" stroke="#63b8ff" points="277.87,-381.12 288.09,-383.9 281.83,-375.35 277.87,-381.12"/>
</a>
</g>
</g>
<!-- Node5&#45;&gt;Node4 -->
<g id="edge7_Node000005_Node000004" class="edge">
<title>Node5&#45;&gt;Node4</title>
<g id="a_edge7_Node000005_Node000004"><a xlink:title=" ">
<path fill="none" stroke="#63b8ff" d="M199.8,-241.09C214.31,-262.48 243.34,-301.84 276,-327 277.6,-328.23 279.28,-329.43 281,-330.58"/>
<polygon fill="#63b8ff" stroke="#63b8ff" points="279.58,-333.81 289.95,-335.97 283.19,-327.81 279.58,-333.81"/>
</a>
</g>
</g>
<!-- Node5&#45;&gt;Node6 -->
<g id="edge8_Node000005_Node000006" class="edge">
<title>Node5&#45;&gt;Node6</title>
<g id="a_edge8_Node000005_Node000006"><a xlink:title=" ">
<path fill="none" stroke="#63b8ff" d="M212.97,-241.07C230.07,-252.06 254.14,-267.06 276,-279 278.7,-280.48 281.51,-281.96 284.35,-283.42"/>
<polygon fill="#63b8ff" stroke="#63b8ff" points="282.97,-286.64 293.47,-288 286.11,-280.38 282.97,-286.64"/>
</a>
</g>
</g>
<!-- Node5&#45;&gt;Node7 -->
<g id="edge10_Node000005_Node000007" class="edge">
<title>Node5&#45;&gt;Node7</title>
<g id="a_edge10_Node000005_Node000007"><a xlink:title=" ">
<path fill="none" stroke="#63b8ff" d="M240.25,-236.72C248.63,-238.5 257.39,-240.37 265.98,-242.2"/>
<polygon fill="#63b8ff" stroke="#63b8ff" points="265.44,-245.67 275.95,-244.33 266.9,-238.82 265.44,-245.67"/>
</a>
</g>
</g>
<!-- Node5&#45;&gt;Node8 -->
<g id="edge12_Node000005_Node000008" class="edge">
<title>Node5&#45;&gt;Node8</title>
<g id="a_edge12_Node000005_Node000008"><a xlink:title=" ">
<path fill="none" stroke="#63b8ff" d="M240.25,-218.98C248.63,-217.81 257.39,-216.58 265.98,-215.38"/>
<polygon fill="#63b8ff" stroke="#63b8ff" points="266.53,-218.84 275.95,-213.99 265.56,-211.91 266.53,-218.84"/>
</a>
</g>
</g>
<!-- Node5&#45;&gt;Node9 -->
<g id="edge14_Node000005_Node000009" class="edge">
<title>Node5&#45;&gt;Node9</title>
<g id="a_edge14_Node000005_Node000009"><a xlink:title=" ">
<path fill="none" stroke="#63b8ff" d="M219.79,-210.96C236.32,-202.65 257.26,-192.18 276,-183 279.08,-181.49 282.26,-179.94 285.47,-178.39"/>
<polygon fill="#63b8ff" stroke="#63b8ff" points="287.01,-181.53 294.49,-174.03 283.96,-175.23 287.01,-181.53"/>
</a>
</g>
</g>
<!-- Node5&#45;&gt;Node10 -->
<g id="edge16_Node000005_Node000010" class="edge">
<title>Node5&#45;&gt;Node10</title>
<g id="a_edge16_Node000005_Node000010"><a xlink:title=" ">
<path fill="none" stroke="#63b8ff" d="M201.42,-210.84C216.7,-191.33 245.45,-157.3 276,-135 277.8,-133.69 279.69,-132.41 281.62,-131.18"/>
<polygon fill="#63b8ff" stroke="#63b8ff" points="283.49,-134.15 290.37,-126.09 279.97,-128.1 283.49,-134.15"/>
</a>
</g>
</g>
<!-- Node5&#45;&gt;Node11 -->
<g id="edge18_Node000005_Node000011" class="edge">
<title>Node5&#45;&gt;Node11</title>
<g id="a_edge18_Node000005_Node000011"><a xlink:title=" ">
<path fill="none" stroke="#63b8ff" d="M196.02,-210.67C207.66,-182.77 235.69,-123.23 276,-87 277.28,-85.85 278.63,-84.74 280.02,-83.68"/>
<polygon fill="#63b8ff" stroke="#63b8ff" points="282.07,-86.52 288.45,-78.06 278.18,-80.7 282.07,-86.52"/>
</a>
</g>
</g>
<!-- Node5&#45;&gt;Node12 -->
<g id="edge20_Node000005_Node000012" class="edge">
<title>Node5&#45;&gt;Node12</title>
<g id="a_edge20_Node000005_Node000012"><a xlink:title=" ">
<path fill="none" stroke="#63b8ff" d="M193.23,-210.9C201.34,-176.28 225.63,-90.2 276,-39 276.93,-38.05 277.91,-37.14 278.92,-36.26"/>
<polygon fill="#63b8ff" stroke="#63b8ff" points="281.3,-38.85 287.28,-30.1 277.16,-33.21 281.3,-38.85"/>
</a>
</g>
</g>
<!-- Node6&#45;&gt;Node3 -->
<g id="edge9_Node000006_Node000003" class="edge">
<title>Node6&#45;&gt;Node3</title>
<g id="a_edge9_Node000006_Node000003"><a xlink:title=" ">
<path fill="none" stroke="#63b8ff" d="M361.89,-287.98C367.39,-285.19 372.93,-282.16 378,-279 401.95,-264.08 427,-244.02 444.81,-228.86"/>
<polygon fill="#63b8ff" stroke="#63b8ff" points="447.17,-231.45 452.46,-222.28 442.6,-226.15 447.17,-231.45"/>
</a>
</g>
</g>
<!-- Node7&#45;&gt;Node3 -->
<g id="edge11_Node000007_Node000003" class="edge">
<title>Node7&#45;&gt;Node3</title>
<g id="a_edge11_Node000007_Node000003"><a xlink:title=" ">
<path fill="none" stroke="#63b8ff" d="M372.38,-239.94C386.08,-235.3 401.32,-230.13 415.58,-225.29"/>
<polygon fill="#63b8ff" stroke="#63b8ff" points="416.93,-228.53 425.27,-222 414.68,-221.9 416.93,-228.53"/>
</a>
</g>
</g>
<!-- Node8&#45;&gt;Node3 -->
<g id="edge13_Node000008_Node000003" class="edge">
<title>Node8&#45;&gt;Node3</title>
<g id="a_edge13_Node000008_Node000003"><a xlink:title=" ">
<path fill="none" stroke="#63b8ff" d="M378.29,-207C386.42,-207 394.95,-207 403.38,-207"/>
<polygon fill="#63b8ff" stroke="#63b8ff" points="403.6,-210.5 413.6,-207 403.6,-203.5 403.6,-210.5"/>
</a>
</g>
</g>
<!-- Node9&#45;&gt;Node3 -->
<g id="edge15_Node000009_Node000003" class="edge">
<title>Node9&#45;&gt;Node3</title>
<g id="a_edge15_Node000009_Node000003"><a xlink:title=" ">
<path fill="none" stroke="#63b8ff" d="M372.38,-174.06C386.08,-178.7 401.32,-183.87 415.58,-188.71"/>
<polygon fill="#63b8ff" stroke="#63b8ff" points="414.68,-192.1 425.27,-192 416.93,-185.47 414.68,-192.1"/>
</a>
</g>
</g>
<!-- Node10&#45;&gt;Node3 -->
<g id="edge17_Node000010_Node000003" class="edge">
<title>Node10&#45;&gt;Node3</title>
<g id="a_edge17_Node000010_Node000003"><a xlink:title=" ">
<path fill="none" stroke="#63b8ff" d="M361.89,-126.02C367.39,-128.81 372.93,-131.84 378,-135 401.95,-149.92 427,-169.98 444.81,-185.14"/>
<polygon fill="#63b8ff" stroke="#63b8ff" points="442.6,-187.85 452.46,-191.72 447.17,-182.55 442.6,-187.85"/>
</a>
</g>
</g>
<!-- Node11&#45;&gt;Node3 -->
<g id="edge19_Node000011_Node000003" class="edge">
<title>Node11&#45;&gt;Node3</title>
<g id="a_edge19_Node000011_Node000003"><a xlink:title=" ">
<path fill="none" stroke="#63b8ff" d="M364.73,-78.11C369.41,-80.75 373.97,-83.72 378,-87 411.65,-114.41 440.07,-156.59 455.93,-182.95"/>
<polygon fill="#63b8ff" stroke="#63b8ff" points="453.1,-185.05 461.19,-191.89 459.14,-181.5 453.1,-185.05"/>
</a>
</g>
</g>
<!-- Node12&#45;&gt;Node3 -->
<g id="edge21_Node000012_Node000003" class="edge">
<title>Node12&#45;&gt;Node3</title>
<g id="a_edge21_Node000012_Node000003"><a xlink:title=" ">
<path fill="none" stroke="#63b8ff" d="M365.99,-30.02C370.31,-32.63 374.44,-35.62 378,-39 421.17,-80.02 448.75,-145.99 461.41,-181.84"/>
<polygon fill="#63b8ff" stroke="#63b8ff" points="458.17,-183.19 464.72,-191.52 464.79,-180.93 458.17,-183.19"/>
</a>
</g>
</g>
</g>
</svg>
