<?xml version="1.0" encoding="UTF-8" standalone="no"?>
<!DOCTYPE svg PUBLIC "-//W3C//DTD SVG 1.1//EN"
 "http://www.w3.org/Graphics/SVG/1.1/DTD/svg11.dtd">
<!-- Generated by graphviz version 2.43.0 (0)
 -->
<!-- Title: lci::net_post_puts_x::operator() Pages: 1 -->
<svg width="673pt" height="422pt"
 viewBox="0.00 0.00 673.00 422.00" xmlns="http://www.w3.org/2000/svg" xmlns:xlink="http://www.w3.org/1999/xlink">
<g id="graph0" class="graph" transform="scale(1 1) rotate(0) translate(4 418)">
<title>lci::net_post_puts_x::operator()</title>
<!-- Node1 -->
<g id="Node000001" class="node">
<title>Node1</title>
<g id="a_Node000001"><a xlink:title=" ">
<polygon fill="#999999" stroke="#666666" points="102,-219 0,-219 0,-189 102,-189 102,-219"/>
<text text-anchor="start" x="8" y="-207" font-family="Helvetica,sans-Serif" font-size="10.00">lci::net_post_puts</text>
<text text-anchor="middle" x="51" y="-196" font-family="Helvetica,sans-Serif" font-size="10.00">_x::operator()</text>
</a>
</g>
</g>
<!-- Node2 -->
<g id="Node000002" class="node">
<title>Node2</title>
<g id="a_Node000002"><a xlink:href="../../d6/daa/classlci_1_1net__post__puts__x.html#a530c9f11146d23247886f46c770a367d" target="_top" xlink:title=" ">
<polygon fill="white" stroke="#666666" points="240,-219 138,-219 138,-189 240,-189 240,-219"/>
<text text-anchor="start" x="146" y="-207" font-family="Helvetica,sans-Serif" font-size="10.00">lci::net_post_puts</text>
<text text-anchor="middle" x="189" y="-196" font-family="Helvetica,sans-Serif" font-size="10.00">_x::call</text>
</a>
</g>
</g>
<!-- Node1&#45;&gt;Node2 -->
<g id="edge1_Node000001_Node000002" class="edge">
<title>Node1&#45;&gt;Node2</title>
<g id="a_edge1_Node000001_Node000002"><a xlink:title=" ">
<path fill="none" stroke="#63b8ff" d="M102.25,-204C110.54,-204 119.2,-204 127.7,-204"/>
<polygon fill="#63b8ff" stroke="#63b8ff" points="127.95,-207.5 137.95,-204 127.95,-200.5 127.95,-207.5"/>
</a>
</g>
</g>
<!-- Node3 -->
<g id="Node000003" class="node">
<title>Node3</title>
<g id="a_Node000003"><a xlink:href="../../d6/daa/classlci_1_1net__post__puts__x.html#a719c72009a8bfa0caf51e79e2fc0281c" target="_top" xlink:title=" ">
<polygon fill="white" stroke="#666666" points="516,-414 414,-414 414,-384 516,-384 516,-414"/>
<text text-anchor="start" x="422" y="-402" font-family="Helvetica,sans-Serif" font-size="10.00">lci::net_post_puts</text>
<text text-anchor="middle" x="465" y="-391" font-family="Helvetica,sans-Serif" font-size="10.00">_x::base</text>
</a>
</g>
</g>
<!-- Node2&#45;&gt;Node3 -->
<g id="edge2_Node000002_Node000003" class="edge">
<title>Node2&#45;&gt;Node3</title>
<g id="a_edge2_Node000002_Node000003"><a xlink:title=" ">
<path fill="none" stroke="#63b8ff" d="M196.71,-219.33C208.87,-245.41 236.95,-298.55 276,-329 313.6,-358.32 364.75,-376.3 404.2,-386.68"/>
<polygon fill="#63b8ff" stroke="#63b8ff" points="403.41,-390.09 413.96,-389.16 405.13,-383.31 403.41,-390.09"/>
</a>
</g>
</g>
<!-- Node5 -->
<g id="Node000005" class="node">
<title>Node5</title>
<g id="a_Node000005"><a xlink:href="../../d6/daa/classlci_1_1net__post__puts__x.html#a4f53c0e0ebc92f0de84ee1e429981577" target="_top" xlink:title=" ">
<polygon fill="white" stroke="#666666" points="516,-366 414,-366 414,-336 516,-336 516,-366"/>
<text text-anchor="start" x="422" y="-354" font-family="Helvetica,sans-Serif" font-size="10.00">lci::net_post_puts</text>
<text text-anchor="middle" x="465" y="-343" font-family="Helvetica,sans-Serif" font-size="10.00">_x::buffer</text>
</a>
</g>
</g>
<!-- Node2&#45;&gt;Node5 -->
<g id="edge4_Node000002_Node000005" class="edge">
<title>Node2&#45;&gt;Node5</title>
<g id="a_edge4_Node000002_Node000005"><a xlink:title=" ">
<path fill="none" stroke="#63b8ff" d="M200.1,-219.08C214.55,-239.5 243.05,-275.71 276,-296 315.08,-320.06 365.19,-334.04 403.85,-341.87"/>
<polygon fill="#63b8ff" stroke="#63b8ff" points="403.44,-345.36 413.93,-343.83 404.78,-338.49 403.44,-345.36"/>
</a>
</g>
</g>
<!-- Node6 -->
<g id="Node000006" class="node">
<title>Node6</title>
<g id="a_Node000006"><a xlink:href="../../d6/daa/classlci_1_1net__post__puts__x.html#ad713f3cb7f488770026db506d2ed2781" target="_top" xlink:title=" ">
<polygon fill="white" stroke="#666666" points="378,-241 276,-241 276,-211 378,-211 378,-241"/>
<text text-anchor="start" x="284" y="-229" font-family="Helvetica,sans-Serif" font-size="10.00">lci::net_post_puts</text>
<text text-anchor="middle" x="327" y="-218" font-family="Helvetica,sans-Serif" font-size="10.00">_x::call_impl</text>
</a>
</g>
</g>
<!-- Node2&#45;&gt;Node6 -->
<g id="edge6_Node000002_Node000006" class="edge">
<title>Node2&#45;&gt;Node6</title>
<g id="a_edge6_Node000002_Node000006"><a xlink:title=" ">
<path fill="none" stroke="#63b8ff" d="M240.25,-212.13C248.63,-213.48 257.39,-214.9 265.98,-216.29"/>
<polygon fill="#63b8ff" stroke="#63b8ff" points="265.52,-219.76 275.95,-217.9 266.64,-212.85 265.52,-219.76"/>
</a>
</g>
</g>
<!-- Node7 -->
<g id="Node000007" class="node">
<title>Node7</title>
<g id="a_Node000007"><a xlink:href="../../d6/daa/classlci_1_1net__post__puts__x.html#a50650208c34febb06008cd08cf9134c3" target="_top" xlink:title=" ">
<polygon fill="white" stroke="#666666" points="516,-318 414,-318 414,-288 516,-288 516,-318"/>
<text text-anchor="start" x="422" y="-306" font-family="Helvetica,sans-Serif" font-size="10.00">lci::net_post_puts</text>
<text text-anchor="middle" x="465" y="-295" font-family="Helvetica,sans-Serif" font-size="10.00">_x::device</text>
</a>
</g>
</g>
<!-- Node2&#45;&gt;Node7 -->
<g id="edge23_Node000002_Node000007" class="edge">
<title>Node2&#45;&gt;Node7</title>
<g id="a_edge23_Node000002_Node000007"><a xlink:title=" ">
<path fill="none" stroke="#63b8ff" d="M205.34,-219.21C221.5,-234.31 248.4,-256.9 276,-269 316.4,-286.71 365.57,-295.19 403.48,-299.26"/>
<polygon fill="#63b8ff" stroke="#63b8ff" points="403.57,-302.78 413.86,-300.29 404.26,-295.82 403.57,-302.78"/>
</a>
</g>
</g>
<!-- Node8 -->
<g id="Node000008" class="node">
<title>Node8</title>
<g id="a_Node000008"><a xlink:href="../../d6/daa/classlci_1_1net__post__puts__x.html#afb347d5c9fd0b1511cb41200450aef39" target="_top" xlink:title=" ">
<polygon fill="white" stroke="#666666" points="516,-270 414,-270 414,-240 516,-240 516,-270"/>
<text text-anchor="start" x="422" y="-258" font-family="Helvetica,sans-Serif" font-size="10.00">lci::net_post_puts</text>
<text text-anchor="middle" x="465" y="-247" font-family="Helvetica,sans-Serif" font-size="10.00">_x::endpoint</text>
</a>
</g>
</g>
<!-- Node2&#45;&gt;Node8 -->
<g id="edge24_Node000002_Node000008" class="edge">
<title>Node2&#45;&gt;Node8</title>
<g id="a_edge24_Node000002_Node000008"><a xlink:title=" ">
<path fill="none" stroke="#63b8ff" d="M211.45,-219.13C228.17,-229.98 252.43,-243.76 276,-250 317.54,-261 366.07,-262.01 403.41,-260.4"/>
<polygon fill="#63b8ff" stroke="#63b8ff" points="403.82,-263.88 413.63,-259.88 403.47,-256.89 403.82,-263.88"/>
</a>
</g>
</g>
<!-- Node9 -->
<g id="Node000009" class="node">
<title>Node9</title>
<g id="a_Node000009"><a xlink:href="../../d6/daa/classlci_1_1net__post__puts__x.html#a3d1f9af88d0b0d0d31ef5ae99617605a" target="_top" xlink:title=" ">
<polygon fill="white" stroke="#666666" points="516,-222 414,-222 414,-192 516,-192 516,-222"/>
<text text-anchor="start" x="422" y="-210" font-family="Helvetica,sans-Serif" font-size="10.00">lci::net_post_puts</text>
<text text-anchor="middle" x="465" y="-199" font-family="Helvetica,sans-Serif" font-size="10.00">_x::offset</text>
</a>
</g>
</g>
<!-- Node2&#45;&gt;Node9 -->
<g id="edge25_Node000002_Node000009" class="edge">
<title>Node2&#45;&gt;Node9</title>
<g id="a_edge25_Node000002_Node000009"><a xlink:title=" ">
<path fill="none" stroke="#63b8ff" d="M240.28,-202.38C278.15,-201.43 331.34,-200.64 378,-202 386.38,-202.24 395.22,-202.62 403.9,-203.06"/>
<polygon fill="#63b8ff" stroke="#63b8ff" points="403.83,-206.56 414,-203.6 404.2,-199.57 403.83,-206.56"/>
</a>
</g>
</g>
<!-- Node10 -->
<g id="Node000010" class="node">
<title>Node10</title>
<g id="a_Node000010"><a xlink:href="../../d6/daa/classlci_1_1net__post__puts__x.html#a0765457e1d93f7e0dad7b83a1d1fb538" target="_top" xlink:title=" ">
<polygon fill="white" stroke="#666666" points="516,-174 414,-174 414,-144 516,-144 516,-174"/>
<text text-anchor="start" x="422" y="-162" font-family="Helvetica,sans-Serif" font-size="10.00">lci::net_post_puts</text>
<text text-anchor="middle" x="465" y="-151" font-family="Helvetica,sans-Serif" font-size="10.00">_x::rank</text>
</a>
</g>
</g>
<!-- Node2&#45;&gt;Node10 -->
<g id="edge26_Node000002_Node000010" class="edge">
<title>Node2&#45;&gt;Node10</title>
<g id="a_edge26_Node000002_Node000010"><a xlink:title=" ">
<path fill="none" stroke="#63b8ff" d="M240.26,-195.75C286.27,-188.19 354.45,-176.99 403.45,-168.94"/>
<polygon fill="#63b8ff" stroke="#63b8ff" points="404.3,-172.35 413.6,-167.28 403.16,-165.44 404.3,-172.35"/>
</a>
</g>
</g>
<!-- Node11 -->
<g id="Node000011" class="node">
<title>Node11</title>
<g id="a_Node000011"><a xlink:href="../../d6/daa/classlci_1_1net__post__puts__x.html#a8506e388219a7af92dd9522e9b5bc1a6" target="_top" xlink:title=" ">
<polygon fill="white" stroke="#666666" points="516,-126 414,-126 414,-96 516,-96 516,-126"/>
<text text-anchor="start" x="422" y="-114" font-family="Helvetica,sans-Serif" font-size="10.00">lci::net_post_puts</text>
<text text-anchor="middle" x="465" y="-103" font-family="Helvetica,sans-Serif" font-size="10.00">_x::rkey</text>
</a>
</g>
</g>
<!-- Node2&#45;&gt;Node11 -->
<g id="edge27_Node000002_Node000011" class="edge">
<title>Node2&#45;&gt;Node11</title>
<g id="a_edge27_Node000002_Node000011"><a xlink:title=" ">
<path fill="none" stroke="#63b8ff" d="M224.88,-189C240.41,-182.53 259,-175.07 276,-169 318.38,-153.87 366.92,-138.96 404.06,-128.04"/>
<polygon fill="#63b8ff" stroke="#63b8ff" points="405.12,-131.38 413.74,-125.21 403.15,-124.66 405.12,-131.38"/>
</a>
</g>
</g>
<!-- Node12 -->
<g id="Node000012" class="node">
<title>Node12</title>
<g id="a_Node000012"><a xlink:href="../../d6/daa/classlci_1_1net__post__puts__x.html#a3de12c6366766903e3f30075f7885971" target="_top" xlink:title=" ">
<polygon fill="white" stroke="#666666" points="516,-78 414,-78 414,-48 516,-48 516,-78"/>
<text text-anchor="start" x="422" y="-66" font-family="Helvetica,sans-Serif" font-size="10.00">lci::net_post_puts</text>
<text text-anchor="middle" x="465" y="-55" font-family="Helvetica,sans-Serif" font-size="10.00">_x::runtime</text>
</a>
</g>
</g>
<!-- Node2&#45;&gt;Node12 -->
<g id="edge28_Node000002_Node000012" class="edge">
<title>Node2&#45;&gt;Node12</title>
<g id="a_edge28_Node000002_Node000012"><a xlink:title=" ">
<path fill="none" stroke="#63b8ff" d="M204.57,-188.73C220.73,-172.54 248.21,-147.11 276,-131 316.24,-107.67 365.88,-90.13 404.04,-78.71"/>
<polygon fill="#63b8ff" stroke="#63b8ff" points="405.37,-81.97 413.98,-75.8 403.4,-75.25 405.37,-81.97"/>
</a>
</g>
</g>
<!-- Node13 -->
<g id="Node000013" class="node">
<title>Node13</title>
<g id="a_Node000013"><a xlink:href="../../d6/daa/classlci_1_1net__post__puts__x.html#a0bf8827435f72bac93589da4f7b9e4e3" target="_top" xlink:title=" ">
<polygon fill="white" stroke="#666666" points="516,-30 414,-30 414,0 516,0 516,-30"/>
<text text-anchor="start" x="422" y="-18" font-family="Helvetica,sans-Serif" font-size="10.00">lci::net_post_puts</text>
<text text-anchor="middle" x="465" y="-7" font-family="Helvetica,sans-Serif" font-size="10.00">_x::size</text>
</a>
</g>
</g>
<!-- Node2&#45;&gt;Node13 -->
<g id="edge29_Node000002_Node000013" class="edge">
<title>Node2&#45;&gt;Node13</title>
<g id="a_edge29_Node000002_Node000013"><a xlink:title=" ">
<path fill="none" stroke="#63b8ff" d="M197.01,-188.72C209.43,-163.29 237.63,-112.17 276,-83 313.7,-54.34 364.61,-36.92 403.95,-26.89"/>
<polygon fill="#63b8ff" stroke="#63b8ff" points="404.81,-30.28 413.69,-24.5 403.14,-23.48 404.81,-30.28"/>
</a>
</g>
</g>
<!-- Node4 -->
<g id="Node000004" class="node">
<title>Node4</title>
<g id="a_Node000004"><a xlink:href="../../d6/daa/classlci_1_1net__post__puts__x.html#a3d1c8775e9df5fa8f2d1271eb712048f" target="_top" xlink:title=" ">
<polygon fill="white" stroke="#666666" points="665,-222 552,-222 552,-192 665,-192 665,-222"/>
<text text-anchor="start" x="560" y="-210" font-family="Helvetica,sans-Serif" font-size="10.00">lci::net_post_puts</text>
<text text-anchor="middle" x="608.5" y="-199" font-family="Helvetica,sans-Serif" font-size="10.00">_x::net_post_puts_x</text>
</a>
</g>
</g>
<!-- Node3&#45;&gt;Node4 -->
<g id="edge3_Node000003_Node000004" class="edge">
<title>Node3&#45;&gt;Node4</title>
<g id="a_edge3_Node000003_Node000004"><a xlink:title=" ">
<path fill="none" stroke="#63b8ff" d="M503.99,-383.98C508.31,-381.37 512.44,-378.38 516,-375 559.17,-333.98 586.75,-268.01 599.41,-232.16"/>
<polygon fill="#63b8ff" stroke="#63b8ff" points="602.79,-233.07 602.72,-222.48 596.17,-230.81 602.79,-233.07"/>
</a>
</g>
</g>
<!-- Node5&#45;&gt;Node4 -->
<g id="edge5_Node000005_Node000004" class="edge">
<title>Node5&#45;&gt;Node4</title>
<g id="a_edge5_Node000005_Node000004"><a xlink:title=" ">
<path fill="none" stroke="#63b8ff" d="M502.73,-335.89C507.41,-333.25 511.97,-330.28 516,-327 549.65,-299.59 578.07,-257.41 593.93,-231.05"/>
<polygon fill="#63b8ff" stroke="#63b8ff" points="597.14,-232.5 599.19,-222.11 591.1,-228.95 597.14,-232.5"/>
</a>
</g>
</g>
<!-- Node6&#45;&gt;Node3 -->
<g id="edge7_Node000006_Node000003" class="edge">
<title>Node6&#45;&gt;Node3</title>
<g id="a_edge7_Node000006_Node000003"><a xlink:title=" ">
<path fill="none" stroke="#63b8ff" d="M333.21,-241.05C344.03,-270.35 371.5,-335.61 414,-375 415.13,-376.04 416.3,-377.05 417.53,-378.02"/>
<polygon fill="#63b8ff" stroke="#63b8ff" points="415.87,-381.12 426.09,-383.9 419.83,-375.35 415.87,-381.12"/>
</a>
</g>
</g>
<!-- Node6&#45;&gt;Node5 -->
<g id="edge8_Node000006_Node000005" class="edge">
<title>Node6&#45;&gt;Node5</title>
<g id="a_edge8_Node000006_Node000005"><a xlink:title=" ">
<path fill="none" stroke="#63b8ff" d="M337.8,-241.09C352.31,-262.48 381.34,-301.84 414,-327 415.6,-328.23 417.28,-329.43 419,-330.58"/>
<polygon fill="#63b8ff" stroke="#63b8ff" points="417.58,-333.81 427.95,-335.97 421.19,-327.81 417.58,-333.81"/>
</a>
</g>
</g>
<!-- Node6&#45;&gt;Node7 -->
<g id="edge9_Node000006_Node000007" class="edge">
<title>Node6&#45;&gt;Node7</title>
<g id="a_edge9_Node000006_Node000007"><a xlink:title=" ">
<path fill="none" stroke="#63b8ff" d="M350.97,-241.07C368.07,-252.06 392.14,-267.06 414,-279 416.7,-280.48 419.51,-281.96 422.35,-283.42"/>
<polygon fill="#63b8ff" stroke="#63b8ff" points="420.97,-286.64 431.47,-288 424.11,-280.38 420.97,-286.64"/>
</a>
</g>
</g>
<!-- Node6&#45;&gt;Node8 -->
<g id="edge11_Node000006_Node000008" class="edge">
<title>Node6&#45;&gt;Node8</title>
<g id="a_edge11_Node000006_Node000008"><a xlink:title=" ">
<path fill="none" stroke="#63b8ff" d="M378.25,-236.72C386.63,-238.5 395.39,-240.37 403.98,-242.2"/>
<polygon fill="#63b8ff" stroke="#63b8ff" points="403.44,-245.67 413.95,-244.33 404.9,-238.82 403.44,-245.67"/>
</a>
</g>
</g>
<!-- Node6&#45;&gt;Node9 -->
<g id="edge13_Node000006_Node000009" class="edge">
<title>Node6&#45;&gt;Node9</title>
<g id="a_edge13_Node000006_Node000009"><a xlink:title=" ">
<path fill="none" stroke="#63b8ff" d="M378.25,-218.98C386.63,-217.81 395.39,-216.58 403.98,-215.38"/>
<polygon fill="#63b8ff" stroke="#63b8ff" points="404.53,-218.84 413.95,-213.99 403.56,-211.91 404.53,-218.84"/>
</a>
</g>
</g>
<!-- Node6&#45;&gt;Node10 -->
<g id="edge15_Node000006_Node000010" class="edge">
<title>Node6&#45;&gt;Node10</title>
<g id="a_edge15_Node000006_Node000010"><a xlink:title=" ">
<path fill="none" stroke="#63b8ff" d="M357.79,-210.96C374.32,-202.65 395.26,-192.18 414,-183 417.08,-181.49 420.26,-179.94 423.47,-178.39"/>
<polygon fill="#63b8ff" stroke="#63b8ff" points="425.01,-181.53 432.49,-174.03 421.96,-175.23 425.01,-181.53"/>
</a>
</g>
</g>
<!-- Node6&#45;&gt;Node11 -->
<g id="edge17_Node000006_Node000011" class="edge">
<title>Node6&#45;&gt;Node11</title>
<g id="a_edge17_Node000006_Node000011"><a xlink:title=" ">
<path fill="none" stroke="#63b8ff" d="M339.42,-210.84C354.7,-191.33 383.45,-157.3 414,-135 415.8,-133.69 417.69,-132.41 419.62,-131.18"/>
<polygon fill="#63b8ff" stroke="#63b8ff" points="421.49,-134.15 428.37,-126.09 417.97,-128.1 421.49,-134.15"/>
</a>
</g>
</g>
<!-- Node6&#45;&gt;Node12 -->
<g id="edge19_Node000006_Node000012" class="edge">
<title>Node6&#45;&gt;Node12</title>
<g id="a_edge19_Node000006_Node000012"><a xlink:title=" ">
<path fill="none" stroke="#63b8ff" d="M334.02,-210.67C345.66,-182.77 373.69,-123.23 414,-87 415.28,-85.85 416.63,-84.74 418.02,-83.68"/>
<polygon fill="#63b8ff" stroke="#63b8ff" points="420.07,-86.52 426.45,-78.06 416.18,-80.7 420.07,-86.52"/>
</a>
</g>
</g>
<!-- Node6&#45;&gt;Node13 -->
<g id="edge21_Node000006_Node000013" class="edge">
<title>Node6&#45;&gt;Node13</title>
<g id="a_edge21_Node000006_Node000013"><a xlink:title=" ">
<path fill="none" stroke="#63b8ff" d="M331.23,-210.9C339.34,-176.28 363.63,-90.2 414,-39 414.93,-38.05 415.91,-37.14 416.92,-36.26"/>
<polygon fill="#63b8ff" stroke="#63b8ff" points="419.3,-38.85 425.28,-30.1 415.16,-33.21 419.3,-38.85"/>
</a>
</g>
</g>
<!-- Node7&#45;&gt;Node4 -->
<g id="edge10_Node000007_Node000004" class="edge">
<title>Node7&#45;&gt;Node4</title>
<g id="a_edge10_Node000007_Node000004"><a xlink:title=" ">
<path fill="none" stroke="#63b8ff" d="M499.89,-287.98C505.39,-285.19 510.93,-282.16 516,-279 539.95,-264.08 565,-244.02 582.81,-228.86"/>
<polygon fill="#63b8ff" stroke="#63b8ff" points="585.17,-231.45 590.46,-222.28 580.6,-226.15 585.17,-231.45"/>
</a>
</g>
</g>
<!-- Node8&#45;&gt;Node4 -->
<g id="edge12_Node000008_Node000004" class="edge">
<title>Node8&#45;&gt;Node4</title>
<g id="a_edge12_Node000008_Node000004"><a xlink:title=" ">
<path fill="none" stroke="#63b8ff" d="M510.38,-239.94C524.08,-235.3 539.32,-230.13 553.58,-225.29"/>
<polygon fill="#63b8ff" stroke="#63b8ff" points="554.93,-228.53 563.27,-222 552.68,-221.9 554.93,-228.53"/>
</a>
</g>
</g>
<!-- Node9&#45;&gt;Node4 -->
<g id="edge14_Node000009_Node000004" class="edge">
<title>Node9&#45;&gt;Node4</title>
<g id="a_edge14_Node000009_Node000004"><a xlink:title=" ">
<path fill="none" stroke="#63b8ff" d="M516.29,-207C524.42,-207 532.95,-207 541.38,-207"/>
<polygon fill="#63b8ff" stroke="#63b8ff" points="541.6,-210.5 551.6,-207 541.6,-203.5 541.6,-210.5"/>
</a>
</g>
</g>
<!-- Node10&#45;&gt;Node4 -->
<g id="edge16_Node000010_Node000004" class="edge">
<title>Node10&#45;&gt;Node4</title>
<g id="a_edge16_Node000010_Node000004"><a xlink:title=" ">
<path fill="none" stroke="#63b8ff" d="M510.38,-174.06C524.08,-178.7 539.32,-183.87 553.58,-188.71"/>
<polygon fill="#63b8ff" stroke="#63b8ff" points="552.68,-192.1 563.27,-192 554.93,-185.47 552.68,-192.1"/>
</a>
</g>
</g>
<!-- Node11&#45;&gt;Node4 -->
<g id="edge18_Node000011_Node000004" class="edge">
<title>Node11&#45;&gt;Node4</title>
<g id="a_edge18_Node000011_Node000004"><a xlink:title=" ">
<path fill="none" stroke="#63b8ff" d="M499.89,-126.02C505.39,-128.81 510.93,-131.84 516,-135 539.95,-149.92 565,-169.98 582.81,-185.14"/>
<polygon fill="#63b8ff" stroke="#63b8ff" points="580.6,-187.85 590.46,-191.72 585.17,-182.55 580.6,-187.85"/>
</a>
</g>
</g>
<!-- Node12&#45;&gt;Node4 -->
<g id="edge20_Node000012_Node000004" class="edge">
<title>Node12&#45;&gt;Node4</title>
<g id="a_edge20_Node000012_Node000004"><a xlink:title=" ">
<path fill="none" stroke="#63b8ff" d="M502.73,-78.11C507.41,-80.75 511.97,-83.72 516,-87 549.65,-114.41 578.07,-156.59 593.93,-182.95"/>
<polygon fill="#63b8ff" stroke="#63b8ff" points="591.1,-185.05 599.19,-191.89 597.14,-181.5 591.1,-185.05"/>
</a>
</g>
</g>
<!-- Node13&#45;&gt;Node4 -->
<g id="edge22_Node000013_Node000004" class="edge">
<title>Node13&#45;&gt;Node4</title>
<g id="a_edge22_Node000013_Node000004"><a xlink:title=" ">
<path fill="none" stroke="#63b8ff" d="M503.99,-30.02C508.31,-32.63 512.44,-35.62 516,-39 559.17,-80.02 586.75,-145.99 599.41,-181.84"/>
<polygon fill="#63b8ff" stroke="#63b8ff" points="596.17,-183.19 602.72,-191.52 602.79,-180.93 596.17,-183.19"/>
</a>
</g>
</g>
</g>
</svg>
