<?xml version="1.0" encoding="UTF-8" standalone="no"?>
<!DOCTYPE svg PUBLIC "-//W3C//DTD SVG 1.1//EN"
 "http://www.w3.org/Graphics/SVG/1.1/DTD/svg11.dtd">
<!-- Generated by graphviz version 2.43.0 (0)
 -->
<!-- Title: lci::net_post_puts_x::call Pages: 1 -->
<svg width="535pt" height="374pt"
 viewBox="0.00 0.00 535.00 374.00" xmlns="http://www.w3.org/2000/svg" xmlns:xlink="http://www.w3.org/1999/xlink">
<g id="graph0" class="graph" transform="scale(1 1) rotate(0) translate(4 370)">
<title>lci::net_post_puts_x::call</title>
<!-- Node1 -->
<g id="Node000001" class="node">
<title>Node1</title>
<g id="a_Node000001"><a xlink:title=" ">
<polygon fill="#999999" stroke="#666666" points="102,-198 0,-198 0,-168 102,-168 102,-198"/>
<text text-anchor="start" x="8" y="-186" font-family="Helvetica,sans-Serif" font-size="10.00">lci::net_post_puts</text>
<text text-anchor="middle" x="51" y="-175" font-family="Helvetica,sans-Serif" font-size="10.00">_x::call</text>
</a>
</g>
</g>
<!-- Node2 -->
<g id="Node000002" class="node">
<title>Node2</title>
<g id="a_Node000002"><a xlink:href="../../d6/daa/classlci_1_1net__post__puts__x.html#a4f53c0e0ebc92f0de84ee1e429981577" target="_top" xlink:title=" ">
<polygon fill="white" stroke="#666666" points="378,-366 276,-366 276,-336 378,-336 378,-366"/>
<text text-anchor="start" x="284" y="-354" font-family="Helvetica,sans-Serif" font-size="10.00">lci::net_post_puts</text>
<text text-anchor="middle" x="327" y="-343" font-family="Helvetica,sans-Serif" font-size="10.00">_x::buffer</text>
</a>
</g>
</g>
<!-- Node1&#45;&gt;Node2 -->
<g id="edge1_Node000001_Node000002" class="edge">
<title>Node1&#45;&gt;Node2</title>
<g id="a_edge1_Node000001_Node000002"><a xlink:title=" ">
<path fill="none" stroke="#63b8ff" d="M61.9,-198.2C76.32,-219.25 105.01,-257.27 138,-280 176.77,-306.71 226.9,-324.99 265.65,-336.3"/>
<polygon fill="#63b8ff" stroke="#63b8ff" points="265.17,-339.81 275.75,-339.17 267.08,-333.07 265.17,-339.81"/>
</a>
</g>
</g>
<!-- Node4 -->
<g id="Node000004" class="node">
<title>Node4</title>
<g id="a_Node000004"><a xlink:href="../../d6/daa/classlci_1_1net__post__puts__x.html#aae5111a70b8d5316b365dcddddd16fab" target="_top" xlink:title=" ">
<polygon fill="white" stroke="#666666" points="240,-198 138,-198 138,-168 240,-168 240,-198"/>
<text text-anchor="start" x="146" y="-186" font-family="Helvetica,sans-Serif" font-size="10.00">lci::net_post_puts</text>
<text text-anchor="middle" x="189" y="-175" font-family="Helvetica,sans-Serif" font-size="10.00">_x::call_impl</text>
</a>
</g>
</g>
<!-- Node1&#45;&gt;Node4 -->
<g id="edge3_Node000001_Node000004" class="edge">
<title>Node1&#45;&gt;Node4</title>
<g id="a_edge3_Node000001_Node000004"><a xlink:title=" ">
<path fill="none" stroke="#63b8ff" d="M102.25,-183C110.54,-183 119.2,-183 127.7,-183"/>
<polygon fill="#63b8ff" stroke="#63b8ff" points="127.95,-186.5 137.95,-183 127.95,-179.5 127.95,-186.5"/>
</a>
</g>
</g>
<!-- Node5 -->
<g id="Node000005" class="node">
<title>Node5</title>
<g id="a_Node000005"><a xlink:href="../../d6/daa/classlci_1_1net__post__puts__x.html#a50650208c34febb06008cd08cf9134c3" target="_top" xlink:title=" ">
<polygon fill="white" stroke="#666666" points="378,-318 276,-318 276,-288 378,-288 378,-318"/>
<text text-anchor="start" x="284" y="-306" font-family="Helvetica,sans-Serif" font-size="10.00">lci::net_post_puts</text>
<text text-anchor="middle" x="327" y="-295" font-family="Helvetica,sans-Serif" font-size="10.00">_x::device</text>
</a>
</g>
</g>
<!-- Node1&#45;&gt;Node5 -->
<g id="edge19_Node000001_Node000005" class="edge">
<title>Node1&#45;&gt;Node5</title>
<g id="a_edge19_Node000001_Node000005"><a xlink:title=" ">
<path fill="none" stroke="#63b8ff" d="M68.23,-198.17C84.68,-212.8 111.41,-234.63 138,-248 178.58,-268.4 227.99,-282.49 265.97,-291.29"/>
<polygon fill="#63b8ff" stroke="#63b8ff" points="265.34,-294.74 275.87,-293.53 266.88,-287.91 265.34,-294.74"/>
</a>
</g>
</g>
<!-- Node6 -->
<g id="Node000006" class="node">
<title>Node6</title>
<g id="a_Node000006"><a xlink:href="../../d6/daa/classlci_1_1net__post__puts__x.html#afb347d5c9fd0b1511cb41200450aef39" target="_top" xlink:title=" ">
<polygon fill="white" stroke="#666666" points="378,-270 276,-270 276,-240 378,-240 378,-270"/>
<text text-anchor="start" x="284" y="-258" font-family="Helvetica,sans-Serif" font-size="10.00">lci::net_post_puts</text>
<text text-anchor="middle" x="327" y="-247" font-family="Helvetica,sans-Serif" font-size="10.00">_x::endpoint</text>
</a>
</g>
</g>
<!-- Node1&#45;&gt;Node6 -->
<g id="edge20_Node000001_Node000006" class="edge">
<title>Node1&#45;&gt;Node6</title>
<g id="a_edge20_Node000001_Node000006"><a xlink:title=" ">
<path fill="none" stroke="#63b8ff" d="M79.52,-198.1C96.04,-206.58 117.72,-216.68 138,-223 179.61,-235.96 228.13,-244.05 265.45,-248.86"/>
<polygon fill="#63b8ff" stroke="#63b8ff" points="265.32,-252.37 275.67,-250.13 266.18,-245.42 265.32,-252.37"/>
</a>
</g>
</g>
<!-- Node7 -->
<g id="Node000007" class="node">
<title>Node7</title>
<g id="a_Node000007"><a xlink:href="../../d6/daa/classlci_1_1net__post__puts__x.html#a3d1f9af88d0b0d0d31ef5ae99617605a" target="_top" xlink:title=" ">
<polygon fill="white" stroke="#666666" points="378,-222 276,-222 276,-192 378,-192 378,-222"/>
<text text-anchor="start" x="284" y="-210" font-family="Helvetica,sans-Serif" font-size="10.00">lci::net_post_puts</text>
<text text-anchor="middle" x="327" y="-199" font-family="Helvetica,sans-Serif" font-size="10.00">_x::offset</text>
</a>
</g>
</g>
<!-- Node1&#45;&gt;Node7 -->
<g id="edge21_Node000001_Node000007" class="edge">
<title>Node1&#45;&gt;Node7</title>
<g id="a_edge21_Node000001_Node000007"><a xlink:title=" ">
<path fill="none" stroke="#63b8ff" d="M97.04,-198.05C110.1,-201.74 124.49,-205.15 138,-207 180.42,-212.81 228.72,-212.66 265.75,-211.14"/>
<polygon fill="#63b8ff" stroke="#63b8ff" points="266.04,-214.63 275.88,-210.68 265.73,-207.64 266.04,-214.63"/>
</a>
</g>
</g>
<!-- Node8 -->
<g id="Node000008" class="node">
<title>Node8</title>
<g id="a_Node000008"><a xlink:href="../../d6/daa/classlci_1_1net__post__puts__x.html#a0765457e1d93f7e0dad7b83a1d1fb538" target="_top" xlink:title=" ">
<polygon fill="white" stroke="#666666" points="378,-174 276,-174 276,-144 378,-144 378,-174"/>
<text text-anchor="start" x="284" y="-162" font-family="Helvetica,sans-Serif" font-size="10.00">lci::net_post_puts</text>
<text text-anchor="middle" x="327" y="-151" font-family="Helvetica,sans-Serif" font-size="10.00">_x::rank</text>
</a>
</g>
</g>
<!-- Node1&#45;&gt;Node8 -->
<g id="edge22_Node000001_Node000008" class="edge">
<title>Node1&#45;&gt;Node8</title>
<g id="a_edge22_Node000001_Node000008"><a xlink:title=" ">
<path fill="none" stroke="#63b8ff" d="M97.04,-167.95C110.1,-164.26 124.49,-160.85 138,-159 180.42,-153.19 228.72,-153.34 265.75,-154.86"/>
<polygon fill="#63b8ff" stroke="#63b8ff" points="265.73,-158.36 275.88,-155.32 266.04,-151.37 265.73,-158.36"/>
</a>
</g>
</g>
<!-- Node9 -->
<g id="Node000009" class="node">
<title>Node9</title>
<g id="a_Node000009"><a xlink:href="../../d6/daa/classlci_1_1net__post__puts__x.html#a023b4865407b1768f2e63340c029f771" target="_top" xlink:title=" ">
<polygon fill="white" stroke="#666666" points="378,-126 276,-126 276,-96 378,-96 378,-126"/>
<text text-anchor="start" x="284" y="-114" font-family="Helvetica,sans-Serif" font-size="10.00">lci::net_post_puts</text>
<text text-anchor="middle" x="327" y="-103" font-family="Helvetica,sans-Serif" font-size="10.00">_x::rmr</text>
</a>
</g>
</g>
<!-- Node1&#45;&gt;Node9 -->
<g id="edge23_Node000001_Node000009" class="edge">
<title>Node1&#45;&gt;Node9</title>
<g id="a_edge23_Node000001_Node000009"><a xlink:title=" ">
<path fill="none" stroke="#63b8ff" d="M86.24,-167.85C101.81,-161.38 120.6,-154.15 138,-149 180.03,-136.55 228.53,-126.86 265.75,-120.38"/>
<polygon fill="#63b8ff" stroke="#63b8ff" points="266.67,-123.77 275.93,-118.64 265.49,-116.87 266.67,-123.77"/>
</a>
</g>
</g>
<!-- Node10 -->
<g id="Node000010" class="node">
<title>Node10</title>
<g id="a_Node000010"><a xlink:href="../../d6/daa/classlci_1_1net__post__puts__x.html#a3de12c6366766903e3f30075f7885971" target="_top" xlink:title=" ">
<polygon fill="white" stroke="#666666" points="378,-78 276,-78 276,-48 378,-48 378,-78"/>
<text text-anchor="start" x="284" y="-66" font-family="Helvetica,sans-Serif" font-size="10.00">lci::net_post_puts</text>
<text text-anchor="middle" x="327" y="-55" font-family="Helvetica,sans-Serif" font-size="10.00">_x::runtime</text>
</a>
</g>
</g>
<!-- Node1&#45;&gt;Node10 -->
<g id="edge24_Node000001_Node000010" class="edge">
<title>Node1&#45;&gt;Node10</title>
<g id="a_edge24_Node000001_Node000010"><a xlink:title=" ">
<path fill="none" stroke="#63b8ff" d="M69.35,-167.87C85.98,-154.02 112.3,-133.8 138,-121 178.7,-100.74 227.9,-85.87 265.76,-76.26"/>
<polygon fill="#63b8ff" stroke="#63b8ff" points="266.76,-79.61 275.62,-73.81 265.07,-72.82 266.76,-79.61"/>
</a>
</g>
</g>
<!-- Node11 -->
<g id="Node000011" class="node">
<title>Node11</title>
<g id="a_Node000011"><a xlink:href="../../d6/daa/classlci_1_1net__post__puts__x.html#a0bf8827435f72bac93589da4f7b9e4e3" target="_top" xlink:title=" ">
<polygon fill="white" stroke="#666666" points="378,-30 276,-30 276,0 378,0 378,-30"/>
<text text-anchor="start" x="284" y="-18" font-family="Helvetica,sans-Serif" font-size="10.00">lci::net_post_puts</text>
<text text-anchor="middle" x="327" y="-7" font-family="Helvetica,sans-Serif" font-size="10.00">_x::size</text>
</a>
</g>
</g>
<!-- Node1&#45;&gt;Node11 -->
<g id="edge25_Node000001_Node000011" class="edge">
<title>Node1&#45;&gt;Node11</title>
<g id="a_edge25_Node000001_Node000011"><a xlink:title=" ">
<path fill="none" stroke="#63b8ff" d="M60.83,-167.65C74.56,-145.1 103.1,-103.08 138,-79 176.42,-52.49 226.79,-36.12 265.73,-26.58"/>
<polygon fill="#63b8ff" stroke="#63b8ff" points="266.94,-29.88 275.87,-24.18 265.33,-23.07 266.94,-29.88"/>
</a>
</g>
</g>
<!-- Node3 -->
<g id="Node000003" class="node">
<title>Node3</title>
<g id="a_Node000003"><a xlink:href="../../d6/daa/classlci_1_1net__post__puts__x.html#a79521b6280c14d779b2145becdb7d5b6" target="_top" xlink:title=" ">
<polygon fill="white" stroke="#666666" points="527,-198 414,-198 414,-168 527,-168 527,-198"/>
<text text-anchor="start" x="422" y="-186" font-family="Helvetica,sans-Serif" font-size="10.00">lci::net_post_puts</text>
<text text-anchor="middle" x="470.5" y="-175" font-family="Helvetica,sans-Serif" font-size="10.00">_x::net_post_puts_x</text>
</a>
</g>
</g>
<!-- Node2&#45;&gt;Node3 -->
<g id="edge2_Node000002_Node000003" class="edge">
<title>Node2&#45;&gt;Node3</title>
<g id="a_edge2_Node000002_Node000003"><a xlink:title=" ">
<path fill="none" stroke="#63b8ff" d="M365.52,-335.9C369.97,-333.29 374.26,-330.32 378,-327 416.37,-292.93 444.71,-239.02 459.03,-207.73"/>
<polygon fill="#63b8ff" stroke="#63b8ff" points="462.3,-208.98 463.18,-198.42 455.91,-206.13 462.3,-208.98"/>
</a>
</g>
</g>
<!-- Node4&#45;&gt;Node2 -->
<g id="edge4_Node000004_Node000002" class="edge">
<title>Node4&#45;&gt;Node2</title>
<g id="a_edge4_Node000004_Node000002"><a xlink:title=" ">
<path fill="none" stroke="#63b8ff" d="M195.7,-198.43C206.98,-227.15 234.71,-289.3 276,-327 277.27,-328.16 278.61,-329.28 280,-330.35"/>
<polygon fill="#63b8ff" stroke="#63b8ff" points="278.14,-333.32 288.39,-336 282.05,-327.51 278.14,-333.32"/>
</a>
</g>
</g>
<!-- Node4&#45;&gt;Node5 -->
<g id="edge5_Node000004_Node000005" class="edge">
<title>Node4&#45;&gt;Node5</title>
<g id="a_edge5_Node000004_Node000005"><a xlink:title=" ">
<path fill="none" stroke="#63b8ff" d="M200.72,-198.34C215.67,-218.85 244.5,-255.36 276,-279 277.62,-280.21 279.31,-281.39 281.04,-282.53"/>
<polygon fill="#63b8ff" stroke="#63b8ff" points="279.64,-285.77 290.03,-287.87 283.22,-279.75 279.64,-285.77"/>
</a>
</g>
</g>
<!-- Node4&#45;&gt;Node6 -->
<g id="edge7_Node000004_Node000006" class="edge">
<title>Node4&#45;&gt;Node6</title>
<g id="a_edge7_Node000004_Node000006"><a xlink:title=" ">
<path fill="none" stroke="#63b8ff" d="M216.12,-198.13C233.05,-207.8 255.66,-220.45 276,-231 278.86,-232.48 281.83,-233.99 284.83,-235.49"/>
<polygon fill="#63b8ff" stroke="#63b8ff" points="283.33,-238.65 293.85,-239.93 286.42,-232.37 283.33,-238.65"/>
</a>
</g>
</g>
<!-- Node4&#45;&gt;Node7 -->
<g id="edge9_Node000004_Node000007" class="edge">
<title>Node4&#45;&gt;Node7</title>
<g id="a_edge9_Node000004_Node000007"><a xlink:title=" ">
<path fill="none" stroke="#63b8ff" d="M240.25,-191.87C248.63,-193.35 257.39,-194.89 265.98,-196.41"/>
<polygon fill="#63b8ff" stroke="#63b8ff" points="265.5,-199.88 275.95,-198.17 266.71,-192.98 265.5,-199.88"/>
</a>
</g>
</g>
<!-- Node4&#45;&gt;Node8 -->
<g id="edge11_Node000004_Node000008" class="edge">
<title>Node4&#45;&gt;Node8</title>
<g id="a_edge11_Node000004_Node000008"><a xlink:title=" ">
<path fill="none" stroke="#63b8ff" d="M240.25,-174.13C248.63,-172.65 257.39,-171.11 265.98,-169.59"/>
<polygon fill="#63b8ff" stroke="#63b8ff" points="266.71,-173.02 275.95,-167.83 265.5,-166.12 266.71,-173.02"/>
</a>
</g>
</g>
<!-- Node4&#45;&gt;Node9 -->
<g id="edge13_Node000004_Node000009" class="edge">
<title>Node4&#45;&gt;Node9</title>
<g id="a_edge13_Node000004_Node000009"><a xlink:title=" ">
<path fill="none" stroke="#63b8ff" d="M216.12,-167.87C233.05,-158.2 255.66,-145.55 276,-135 278.86,-133.52 281.83,-132.01 284.83,-130.51"/>
<polygon fill="#63b8ff" stroke="#63b8ff" points="286.42,-133.63 293.85,-126.07 283.33,-127.35 286.42,-133.63"/>
</a>
</g>
</g>
<!-- Node4&#45;&gt;Node10 -->
<g id="edge15_Node000004_Node000010" class="edge">
<title>Node4&#45;&gt;Node10</title>
<g id="a_edge15_Node000004_Node000010"><a xlink:title=" ">
<path fill="none" stroke="#63b8ff" d="M200.72,-167.66C215.67,-147.15 244.5,-110.64 276,-87 277.62,-85.79 279.31,-84.61 281.04,-83.47"/>
<polygon fill="#63b8ff" stroke="#63b8ff" points="283.22,-86.25 290.03,-78.13 279.64,-80.23 283.22,-86.25"/>
</a>
</g>
</g>
<!-- Node4&#45;&gt;Node11 -->
<g id="edge17_Node000004_Node000011" class="edge">
<title>Node4&#45;&gt;Node11</title>
<g id="a_edge17_Node000004_Node000011"><a xlink:title=" ">
<path fill="none" stroke="#63b8ff" d="M195.7,-167.57C206.98,-138.85 234.71,-76.7 276,-39 277.27,-37.84 278.61,-36.72 280,-35.65"/>
<polygon fill="#63b8ff" stroke="#63b8ff" points="282.05,-38.49 288.39,-30 278.14,-32.68 282.05,-38.49"/>
</a>
</g>
</g>
<!-- Node5&#45;&gt;Node3 -->
<g id="edge6_Node000005_Node000003" class="edge">
<title>Node5&#45;&gt;Node3</title>
<g id="a_edge6_Node000005_Node000003"><a xlink:title=" ">
<path fill="none" stroke="#63b8ff" d="M363.62,-287.89C368.62,-285.21 373.56,-282.23 378,-279 406.94,-257.97 434.46,-227.1 451.62,-206.09"/>
<polygon fill="#63b8ff" stroke="#63b8ff" points="454.35,-208.27 457.88,-198.29 448.89,-203.89 454.35,-208.27"/>
</a>
</g>
</g>
<!-- Node6&#45;&gt;Node3 -->
<g id="edge8_Node000006_Node000003" class="edge">
<title>Node6&#45;&gt;Node3</title>
<g id="a_edge8_Node000006_Node000003"><a xlink:title=" ">
<path fill="none" stroke="#63b8ff" d="M359.82,-239.93C365.88,-237.01 372.15,-233.94 378,-231 395.99,-221.97 415.79,-211.63 432.36,-202.87"/>
<polygon fill="#63b8ff" stroke="#63b8ff" points="434,-205.96 441.2,-198.18 430.72,-199.77 434,-205.96"/>
</a>
</g>
</g>
<!-- Node7&#45;&gt;Node3 -->
<g id="edge10_Node000007_Node000003" class="edge">
<title>Node7&#45;&gt;Node3</title>
<g id="a_edge10_Node000007_Node000003"><a xlink:title=" ">
<path fill="none" stroke="#63b8ff" d="M378.29,-198.47C386.51,-197.08 395.13,-195.61 403.66,-194.17"/>
<polygon fill="#63b8ff" stroke="#63b8ff" points="404.33,-197.6 413.6,-192.48 403.16,-190.7 404.33,-197.6"/>
</a>
</g>
</g>
<!-- Node8&#45;&gt;Node3 -->
<g id="edge12_Node000008_Node000003" class="edge">
<title>Node8&#45;&gt;Node3</title>
<g id="a_edge12_Node000008_Node000003"><a xlink:title=" ">
<path fill="none" stroke="#63b8ff" d="M378.29,-167.53C386.51,-168.92 395.13,-170.39 403.66,-171.83"/>
<polygon fill="#63b8ff" stroke="#63b8ff" points="403.16,-175.3 413.6,-173.52 404.33,-168.4 403.16,-175.3"/>
</a>
</g>
</g>
<!-- Node9&#45;&gt;Node3 -->
<g id="edge14_Node000009_Node000003" class="edge">
<title>Node9&#45;&gt;Node3</title>
<g id="a_edge14_Node000009_Node000003"><a xlink:title=" ">
<path fill="none" stroke="#63b8ff" d="M359.82,-126.07C365.88,-128.99 372.15,-132.06 378,-135 395.99,-144.03 415.79,-154.37 432.36,-163.13"/>
<polygon fill="#63b8ff" stroke="#63b8ff" points="430.72,-166.23 441.2,-167.82 434,-160.04 430.72,-166.23"/>
</a>
</g>
</g>
<!-- Node10&#45;&gt;Node3 -->
<g id="edge16_Node000010_Node000003" class="edge">
<title>Node10&#45;&gt;Node3</title>
<g id="a_edge16_Node000010_Node000003"><a xlink:title=" ">
<path fill="none" stroke="#63b8ff" d="M363.62,-78.11C368.62,-80.79 373.56,-83.77 378,-87 406.94,-108.03 434.46,-138.9 451.62,-159.91"/>
<polygon fill="#63b8ff" stroke="#63b8ff" points="448.89,-162.11 457.88,-167.71 454.35,-157.73 448.89,-162.11"/>
</a>
</g>
</g>
<!-- Node11&#45;&gt;Node3 -->
<g id="edge18_Node000011_Node000003" class="edge">
<title>Node11&#45;&gt;Node3</title>
<g id="a_edge18_Node000011_Node000003"><a xlink:title=" ">
<path fill="none" stroke="#63b8ff" d="M365.52,-30.1C369.97,-32.71 374.26,-35.68 378,-39 416.37,-73.07 444.71,-126.98 459.03,-158.27"/>
<polygon fill="#63b8ff" stroke="#63b8ff" points="455.91,-159.87 463.18,-167.58 462.3,-157.02 455.91,-159.87"/>
</a>
</g>
</g>
</g>
</svg>
