<?xml version="1.0" encoding="UTF-8" standalone="no"?>
<!DOCTYPE svg PUBLIC "-//W3C//DTD SVG 1.1//EN"
 "http://www.w3.org/Graphics/SVG/1.1/DTD/svg11.dtd">
<!-- Generated by graphviz version 2.43.0 (0)
 -->
<!-- Title: lci::net_post_puts_x::call_impl Pages: 1 -->
<svg width="397pt" height="374pt"
 viewBox="0.00 0.00 397.00 374.00" xmlns="http://www.w3.org/2000/svg" xmlns:xlink="http://www.w3.org/1999/xlink">
<g id="graph0" class="graph" transform="scale(1 1) rotate(0) translate(4 370)">
<title>lci::net_post_puts_x::call_impl</title>
<!-- Node1 -->
<g id="Node000001" class="node">
<title>Node1</title>
<g id="a_Node000001"><a xlink:title=" ">
<polygon fill="#999999" stroke="#666666" points="102,-198 0,-198 0,-168 102,-168 102,-198"/>
<text text-anchor="start" x="8" y="-186" font-family="Helvetica,sans-Serif" font-size="10.00">lci::net_post_puts</text>
<text text-anchor="middle" x="51" y="-175" font-family="Helvetica,sans-Serif" font-size="10.00">_x::call_impl</text>
</a>
</g>
</g>
<!-- Node2 -->
<g id="Node000002" class="node">
<title>Node2</title>
<g id="a_Node000002"><a xlink:href="../../d6/daa/classlci_1_1net__post__puts__x.html#a4f53c0e0ebc92f0de84ee1e429981577" target="_top" xlink:title=" ">
<polygon fill="white" stroke="#666666" points="240,-366 138,-366 138,-336 240,-336 240,-366"/>
<text text-anchor="start" x="146" y="-354" font-family="Helvetica,sans-Serif" font-size="10.00">lci::net_post_puts</text>
<text text-anchor="middle" x="189" y="-343" font-family="Helvetica,sans-Serif" font-size="10.00">_x::buffer</text>
</a>
</g>
</g>
<!-- Node1&#45;&gt;Node2 -->
<g id="edge1_Node000001_Node000002" class="edge">
<title>Node1&#45;&gt;Node2</title>
<g id="a_edge1_Node000001_Node000002"><a xlink:title=" ">
<path fill="none" stroke="#63b8ff" d="M57.7,-198.43C68.98,-227.15 96.71,-289.3 138,-327 139.27,-328.16 140.61,-329.28 142,-330.35"/>
<polygon fill="#63b8ff" stroke="#63b8ff" points="140.14,-333.32 150.39,-336 144.05,-327.51 140.14,-333.32"/>
</a>
</g>
</g>
<!-- Node4 -->
<g id="Node000004" class="node">
<title>Node4</title>
<g id="a_Node000004"><a xlink:href="../../d6/daa/classlci_1_1net__post__puts__x.html#a50650208c34febb06008cd08cf9134c3" target="_top" xlink:title=" ">
<polygon fill="white" stroke="#666666" points="240,-318 138,-318 138,-288 240,-288 240,-318"/>
<text text-anchor="start" x="146" y="-306" font-family="Helvetica,sans-Serif" font-size="10.00">lci::net_post_puts</text>
<text text-anchor="middle" x="189" y="-295" font-family="Helvetica,sans-Serif" font-size="10.00">_x::device</text>
</a>
</g>
</g>
<!-- Node1&#45;&gt;Node4 -->
<g id="edge3_Node000001_Node000004" class="edge">
<title>Node1&#45;&gt;Node4</title>
<g id="a_edge3_Node000001_Node000004"><a xlink:title=" ">
<path fill="none" stroke="#63b8ff" d="M62.72,-198.34C77.67,-218.85 106.5,-255.36 138,-279 139.62,-280.21 141.31,-281.39 143.04,-282.53"/>
<polygon fill="#63b8ff" stroke="#63b8ff" points="141.64,-285.77 152.03,-287.87 145.22,-279.75 141.64,-285.77"/>
</a>
</g>
</g>
<!-- Node5 -->
<g id="Node000005" class="node">
<title>Node5</title>
<g id="a_Node000005"><a xlink:href="../../d6/daa/classlci_1_1net__post__puts__x.html#afb347d5c9fd0b1511cb41200450aef39" target="_top" xlink:title=" ">
<polygon fill="white" stroke="#666666" points="240,-270 138,-270 138,-240 240,-240 240,-270"/>
<text text-anchor="start" x="146" y="-258" font-family="Helvetica,sans-Serif" font-size="10.00">lci::net_post_puts</text>
<text text-anchor="middle" x="189" y="-247" font-family="Helvetica,sans-Serif" font-size="10.00">_x::endpoint</text>
</a>
</g>
</g>
<!-- Node1&#45;&gt;Node5 -->
<g id="edge5_Node000001_Node000005" class="edge">
<title>Node1&#45;&gt;Node5</title>
<g id="a_edge5_Node000001_Node000005"><a xlink:title=" ">
<path fill="none" stroke="#63b8ff" d="M78.12,-198.13C95.05,-207.8 117.66,-220.45 138,-231 140.86,-232.48 143.83,-233.99 146.83,-235.49"/>
<polygon fill="#63b8ff" stroke="#63b8ff" points="145.33,-238.65 155.85,-239.93 148.42,-232.37 145.33,-238.65"/>
</a>
</g>
</g>
<!-- Node6 -->
<g id="Node000006" class="node">
<title>Node6</title>
<g id="a_Node000006"><a xlink:href="../../d6/daa/classlci_1_1net__post__puts__x.html#a3d1f9af88d0b0d0d31ef5ae99617605a" target="_top" xlink:title=" ">
<polygon fill="white" stroke="#666666" points="240,-222 138,-222 138,-192 240,-192 240,-222"/>
<text text-anchor="start" x="146" y="-210" font-family="Helvetica,sans-Serif" font-size="10.00">lci::net_post_puts</text>
<text text-anchor="middle" x="189" y="-199" font-family="Helvetica,sans-Serif" font-size="10.00">_x::offset</text>
</a>
</g>
</g>
<!-- Node1&#45;&gt;Node6 -->
<g id="edge7_Node000001_Node000006" class="edge">
<title>Node1&#45;&gt;Node6</title>
<g id="a_edge7_Node000001_Node000006"><a xlink:title=" ">
<path fill="none" stroke="#63b8ff" d="M102.25,-191.87C110.63,-193.35 119.39,-194.89 127.98,-196.41"/>
<polygon fill="#63b8ff" stroke="#63b8ff" points="127.5,-199.88 137.95,-198.17 128.71,-192.98 127.5,-199.88"/>
</a>
</g>
</g>
<!-- Node7 -->
<g id="Node000007" class="node">
<title>Node7</title>
<g id="a_Node000007"><a xlink:href="../../d6/daa/classlci_1_1net__post__puts__x.html#a0765457e1d93f7e0dad7b83a1d1fb538" target="_top" xlink:title=" ">
<polygon fill="white" stroke="#666666" points="240,-174 138,-174 138,-144 240,-144 240,-174"/>
<text text-anchor="start" x="146" y="-162" font-family="Helvetica,sans-Serif" font-size="10.00">lci::net_post_puts</text>
<text text-anchor="middle" x="189" y="-151" font-family="Helvetica,sans-Serif" font-size="10.00">_x::rank</text>
</a>
</g>
</g>
<!-- Node1&#45;&gt;Node7 -->
<g id="edge9_Node000001_Node000007" class="edge">
<title>Node1&#45;&gt;Node7</title>
<g id="a_edge9_Node000001_Node000007"><a xlink:title=" ">
<path fill="none" stroke="#63b8ff" d="M102.25,-174.13C110.63,-172.65 119.39,-171.11 127.98,-169.59"/>
<polygon fill="#63b8ff" stroke="#63b8ff" points="128.71,-173.02 137.95,-167.83 127.5,-166.12 128.71,-173.02"/>
</a>
</g>
</g>
<!-- Node8 -->
<g id="Node000008" class="node">
<title>Node8</title>
<g id="a_Node000008"><a xlink:href="../../d6/daa/classlci_1_1net__post__puts__x.html#a023b4865407b1768f2e63340c029f771" target="_top" xlink:title=" ">
<polygon fill="white" stroke="#666666" points="240,-126 138,-126 138,-96 240,-96 240,-126"/>
<text text-anchor="start" x="146" y="-114" font-family="Helvetica,sans-Serif" font-size="10.00">lci::net_post_puts</text>
<text text-anchor="middle" x="189" y="-103" font-family="Helvetica,sans-Serif" font-size="10.00">_x::rmr</text>
</a>
</g>
</g>
<!-- Node1&#45;&gt;Node8 -->
<g id="edge11_Node000001_Node000008" class="edge">
<title>Node1&#45;&gt;Node8</title>
<g id="a_edge11_Node000001_Node000008"><a xlink:title=" ">
<path fill="none" stroke="#63b8ff" d="M78.12,-167.87C95.05,-158.2 117.66,-145.55 138,-135 140.86,-133.52 143.83,-132.01 146.83,-130.51"/>
<polygon fill="#63b8ff" stroke="#63b8ff" points="148.42,-133.63 155.85,-126.07 145.33,-127.35 148.42,-133.63"/>
</a>
</g>
</g>
<!-- Node9 -->
<g id="Node000009" class="node">
<title>Node9</title>
<g id="a_Node000009"><a xlink:href="../../d6/daa/classlci_1_1net__post__puts__x.html#a3de12c6366766903e3f30075f7885971" target="_top" xlink:title=" ">
<polygon fill="white" stroke="#666666" points="240,-78 138,-78 138,-48 240,-48 240,-78"/>
<text text-anchor="start" x="146" y="-66" font-family="Helvetica,sans-Serif" font-size="10.00">lci::net_post_puts</text>
<text text-anchor="middle" x="189" y="-55" font-family="Helvetica,sans-Serif" font-size="10.00">_x::runtime</text>
</a>
</g>
</g>
<!-- Node1&#45;&gt;Node9 -->
<g id="edge13_Node000001_Node000009" class="edge">
<title>Node1&#45;&gt;Node9</title>
<g id="a_edge13_Node000001_Node000009"><a xlink:title=" ">
<path fill="none" stroke="#63b8ff" d="M62.72,-167.66C77.67,-147.15 106.5,-110.64 138,-87 139.62,-85.79 141.31,-84.61 143.04,-83.47"/>
<polygon fill="#63b8ff" stroke="#63b8ff" points="145.22,-86.25 152.03,-78.13 141.64,-80.23 145.22,-86.25"/>
</a>
</g>
</g>
<!-- Node10 -->
<g id="Node000010" class="node">
<title>Node10</title>
<g id="a_Node000010"><a xlink:href="../../d6/daa/classlci_1_1net__post__puts__x.html#a0bf8827435f72bac93589da4f7b9e4e3" target="_top" xlink:title=" ">
<polygon fill="white" stroke="#666666" points="240,-30 138,-30 138,0 240,0 240,-30"/>
<text text-anchor="start" x="146" y="-18" font-family="Helvetica,sans-Serif" font-size="10.00">lci::net_post_puts</text>
<text text-anchor="middle" x="189" y="-7" font-family="Helvetica,sans-Serif" font-size="10.00">_x::size</text>
</a>
</g>
</g>
<!-- Node1&#45;&gt;Node10 -->
<g id="edge15_Node000001_Node000010" class="edge">
<title>Node1&#45;&gt;Node10</title>
<g id="a_edge15_Node000001_Node000010"><a xlink:title=" ">
<path fill="none" stroke="#63b8ff" d="M57.7,-167.57C68.98,-138.85 96.71,-76.7 138,-39 139.27,-37.84 140.61,-36.72 142,-35.65"/>
<polygon fill="#63b8ff" stroke="#63b8ff" points="144.05,-38.49 150.39,-30 140.14,-32.68 144.05,-38.49"/>
</a>
</g>
</g>
<!-- Node3 -->
<g id="Node000003" class="node">
<title>Node3</title>
<g id="a_Node000003"><a xlink:href="../../d6/daa/classlci_1_1net__post__puts__x.html#a79521b6280c14d779b2145becdb7d5b6" target="_top" xlink:title=" ">
<polygon fill="white" stroke="#666666" points="389,-198 276,-198 276,-168 389,-168 389,-198"/>
<text text-anchor="start" x="284" y="-186" font-family="Helvetica,sans-Serif" font-size="10.00">lci::net_post_puts</text>
<text text-anchor="middle" x="332.5" y="-175" font-family="Helvetica,sans-Serif" font-size="10.00">_x::net_post_puts_x</text>
</a>
</g>
</g>
<!-- Node2&#45;&gt;Node3 -->
<g id="edge2_Node000002_Node000003" class="edge">
<title>Node2&#45;&gt;Node3</title>
<g id="a_edge2_Node000002_Node000003"><a xlink:title=" ">
<path fill="none" stroke="#63b8ff" d="M227.52,-335.9C231.97,-333.29 236.26,-330.32 240,-327 278.37,-292.93 306.71,-239.02 321.03,-207.73"/>
<polygon fill="#63b8ff" stroke="#63b8ff" points="324.3,-208.98 325.18,-198.42 317.91,-206.13 324.3,-208.98"/>
</a>
</g>
</g>
<!-- Node4&#45;&gt;Node3 -->
<g id="edge4_Node000004_Node000003" class="edge">
<title>Node4&#45;&gt;Node3</title>
<g id="a_edge4_Node000004_Node000003"><a xlink:title=" ">
<path fill="none" stroke="#63b8ff" d="M225.62,-287.89C230.62,-285.21 235.56,-282.23 240,-279 268.94,-257.97 296.46,-227.1 313.62,-206.09"/>
<polygon fill="#63b8ff" stroke="#63b8ff" points="316.35,-208.27 319.88,-198.29 310.89,-203.89 316.35,-208.27"/>
</a>
</g>
</g>
<!-- Node5&#45;&gt;Node3 -->
<g id="edge6_Node000005_Node000003" class="edge">
<title>Node5&#45;&gt;Node3</title>
<g id="a_edge6_Node000005_Node000003"><a xlink:title=" ">
<path fill="none" stroke="#63b8ff" d="M221.82,-239.93C227.88,-237.01 234.15,-233.94 240,-231 257.99,-221.97 277.79,-211.63 294.36,-202.87"/>
<polygon fill="#63b8ff" stroke="#63b8ff" points="296,-205.96 303.2,-198.18 292.72,-199.77 296,-205.96"/>
</a>
</g>
</g>
<!-- Node6&#45;&gt;Node3 -->
<g id="edge8_Node000006_Node000003" class="edge">
<title>Node6&#45;&gt;Node3</title>
<g id="a_edge8_Node000006_Node000003"><a xlink:title=" ">
<path fill="none" stroke="#63b8ff" d="M240.29,-198.47C248.51,-197.08 257.13,-195.61 265.66,-194.17"/>
<polygon fill="#63b8ff" stroke="#63b8ff" points="266.33,-197.6 275.6,-192.48 265.16,-190.7 266.33,-197.6"/>
</a>
</g>
</g>
<!-- Node7&#45;&gt;Node3 -->
<g id="edge10_Node000007_Node000003" class="edge">
<title>Node7&#45;&gt;Node3</title>
<g id="a_edge10_Node000007_Node000003"><a xlink:title=" ">
<path fill="none" stroke="#63b8ff" d="M240.29,-167.53C248.51,-168.92 257.13,-170.39 265.66,-171.83"/>
<polygon fill="#63b8ff" stroke="#63b8ff" points="265.16,-175.3 275.6,-173.52 266.33,-168.4 265.16,-175.3"/>
</a>
</g>
</g>
<!-- Node8&#45;&gt;Node3 -->
<g id="edge12_Node000008_Node000003" class="edge">
<title>Node8&#45;&gt;Node3</title>
<g id="a_edge12_Node000008_Node000003"><a xlink:title=" ">
<path fill="none" stroke="#63b8ff" d="M221.82,-126.07C227.88,-128.99 234.15,-132.06 240,-135 257.99,-144.03 277.79,-154.37 294.36,-163.13"/>
<polygon fill="#63b8ff" stroke="#63b8ff" points="292.72,-166.23 303.2,-167.82 296,-160.04 292.72,-166.23"/>
</a>
</g>
</g>
<!-- Node9&#45;&gt;Node3 -->
<g id="edge14_Node000009_Node000003" class="edge">
<title>Node9&#45;&gt;Node3</title>
<g id="a_edge14_Node000009_Node000003"><a xlink:title=" ">
<path fill="none" stroke="#63b8ff" d="M225.62,-78.11C230.62,-80.79 235.56,-83.77 240,-87 268.94,-108.03 296.46,-138.9 313.62,-159.91"/>
<polygon fill="#63b8ff" stroke="#63b8ff" points="310.89,-162.11 319.88,-167.71 316.35,-157.73 310.89,-162.11"/>
</a>
</g>
</g>
<!-- Node10&#45;&gt;Node3 -->
<g id="edge16_Node000010_Node000003" class="edge">
<title>Node10&#45;&gt;Node3</title>
<g id="a_edge16_Node000010_Node000003"><a xlink:title=" ">
<path fill="none" stroke="#63b8ff" d="M227.52,-30.1C231.97,-32.71 236.26,-35.68 240,-39 278.37,-73.07 306.71,-126.98 321.03,-158.27"/>
<polygon fill="#63b8ff" stroke="#63b8ff" points="317.91,-159.87 325.18,-167.58 324.3,-157.02 317.91,-159.87"/>
</a>
</g>
</g>
</g>
</svg>
