<?xml version="1.0" encoding="UTF-8" standalone="no"?>
<!DOCTYPE svg PUBLIC "-//W3C//DTD SVG 1.1//EN"
 "http://www.w3.org/Graphics/SVG/1.1/DTD/svg11.dtd">
<!-- Generated by graphviz version 2.43.0 (0)
 -->
<!-- Title: lci::net_post_puts_x::net_post_puts_x Pages: 1 -->
<svg width="673pt" height="422pt"
 viewBox="0.00 0.00 673.00 422.00" xmlns="http://www.w3.org/2000/svg" xmlns:xlink="http://www.w3.org/1999/xlink">
<g id="graph0" class="graph" transform="scale(1 1) rotate(0) translate(4 418)">
<title>lci::net_post_puts_x::net_post_puts_x</title>
<!-- Node1 -->
<g id="Node000001" class="node">
<title>Node1</title>
<g id="a_Node000001"><a xlink:title=" ">
<polygon fill="#999999" stroke="#666666" points="665,-222 552,-222 552,-192 665,-192 665,-222"/>
<text text-anchor="start" x="560" y="-210" font-family="Helvetica,sans-Serif" font-size="10.00">lci::net_post_puts</text>
<text text-anchor="middle" x="608.5" y="-199" font-family="Helvetica,sans-Serif" font-size="10.00">_x::net_post_puts_x</text>
</a>
</g>
</g>
<!-- Node2 -->
<g id="Node000002" class="node">
<title>Node2</title>
<g id="a_Node000002"><a xlink:href="../../d6/daa/classlci_1_1net__post__puts__x.html#a4f53c0e0ebc92f0de84ee1e429981577" target="_top" xlink:title=" ">
<polygon fill="white" stroke="#666666" points="516,-414 414,-414 414,-384 516,-384 516,-414"/>
<text text-anchor="start" x="422" y="-402" font-family="Helvetica,sans-Serif" font-size="10.00">lci::net_post_puts</text>
<text text-anchor="middle" x="465" y="-391" font-family="Helvetica,sans-Serif" font-size="10.00">_x::buffer</text>
</a>
</g>
</g>
<!-- Node1&#45;&gt;Node2 -->
<g id="edge1_Node000001_Node000002" class="edge">
<title>Node1&#45;&gt;Node2</title>
<g id="a_edge1_Node000001_Node000002"><a xlink:title=" ">
<path fill="none" stroke="#63b8ff" d="M599.41,-232.16C586.75,-268.01 559.17,-333.98 516,-375 512.44,-378.38 508.31,-381.37 503.99,-383.98"/>
<polygon fill="#63b8ff" stroke="#63b8ff" points="602.79,-233.07 602.72,-222.48 596.17,-230.81 602.79,-233.07"/>
</a>
</g>
</g>
<!-- Node7 -->
<g id="Node000007" class="node">
<title>Node7</title>
<g id="a_Node000007"><a xlink:href="../../d6/daa/classlci_1_1net__post__puts__x.html#a50650208c34febb06008cd08cf9134c3" target="_top" xlink:title=" ">
<polygon fill="white" stroke="#666666" points="516,-366 414,-366 414,-336 516,-336 516,-366"/>
<text text-anchor="start" x="422" y="-354" font-family="Helvetica,sans-Serif" font-size="10.00">lci::net_post_puts</text>
<text text-anchor="middle" x="465" y="-343" font-family="Helvetica,sans-Serif" font-size="10.00">_x::device</text>
</a>
</g>
</g>
<!-- Node1&#45;&gt;Node7 -->
<g id="edge7_Node000001_Node000007" class="edge">
<title>Node1&#45;&gt;Node7</title>
<g id="a_edge7_Node000001_Node000007"><a xlink:title=" ">
<path fill="none" stroke="#63b8ff" d="M593.93,-231.05C578.07,-257.41 549.65,-299.59 516,-327 511.97,-330.28 507.41,-333.25 502.73,-335.89"/>
<polygon fill="#63b8ff" stroke="#63b8ff" points="597.14,-232.5 599.19,-222.11 591.1,-228.95 597.14,-232.5"/>
</a>
</g>
</g>
<!-- Node8 -->
<g id="Node000008" class="node">
<title>Node8</title>
<g id="a_Node000008"><a xlink:href="../../d6/daa/classlci_1_1net__post__puts__x.html#afb347d5c9fd0b1511cb41200450aef39" target="_top" xlink:title=" ">
<polygon fill="white" stroke="#666666" points="516,-318 414,-318 414,-288 516,-288 516,-318"/>
<text text-anchor="start" x="422" y="-306" font-family="Helvetica,sans-Serif" font-size="10.00">lci::net_post_puts</text>
<text text-anchor="middle" x="465" y="-295" font-family="Helvetica,sans-Serif" font-size="10.00">_x::endpoint</text>
</a>
</g>
</g>
<!-- Node1&#45;&gt;Node8 -->
<g id="edge10_Node000001_Node000008" class="edge">
<title>Node1&#45;&gt;Node8</title>
<g id="a_edge10_Node000001_Node000008"><a xlink:title=" ">
<path fill="none" stroke="#63b8ff" d="M582.81,-228.86C565,-244.02 539.95,-264.08 516,-279 510.93,-282.16 505.39,-285.19 499.89,-287.98"/>
<polygon fill="#63b8ff" stroke="#63b8ff" points="585.17,-231.45 590.46,-222.28 580.6,-226.15 585.17,-231.45"/>
</a>
</g>
</g>
<!-- Node9 -->
<g id="Node000009" class="node">
<title>Node9</title>
<g id="a_Node000009"><a xlink:href="../../d6/daa/classlci_1_1net__post__puts__x.html#a3d1f9af88d0b0d0d31ef5ae99617605a" target="_top" xlink:title=" ">
<polygon fill="white" stroke="#666666" points="516,-270 414,-270 414,-240 516,-240 516,-270"/>
<text text-anchor="start" x="422" y="-258" font-family="Helvetica,sans-Serif" font-size="10.00">lci::net_post_puts</text>
<text text-anchor="middle" x="465" y="-247" font-family="Helvetica,sans-Serif" font-size="10.00">_x::offset</text>
</a>
</g>
</g>
<!-- Node1&#45;&gt;Node9 -->
<g id="edge13_Node000001_Node000009" class="edge">
<title>Node1&#45;&gt;Node9</title>
<g id="a_edge13_Node000001_Node000009"><a xlink:title=" ">
<path fill="none" stroke="#63b8ff" d="M553.42,-225.35C539.15,-230.19 523.91,-235.36 510.23,-240"/>
<polygon fill="#63b8ff" stroke="#63b8ff" points="554.77,-228.58 563.12,-222.06 552.52,-221.95 554.77,-228.58"/>
</a>
</g>
</g>
<!-- Node10 -->
<g id="Node000010" class="node">
<title>Node10</title>
<g id="a_Node000010"><a xlink:href="../../d6/daa/classlci_1_1net__post__puts__x.html#a0765457e1d93f7e0dad7b83a1d1fb538" target="_top" xlink:title=" ">
<polygon fill="white" stroke="#666666" points="516,-222 414,-222 414,-192 516,-192 516,-222"/>
<text text-anchor="start" x="422" y="-210" font-family="Helvetica,sans-Serif" font-size="10.00">lci::net_post_puts</text>
<text text-anchor="middle" x="465" y="-199" font-family="Helvetica,sans-Serif" font-size="10.00">_x::rank</text>
</a>
</g>
</g>
<!-- Node1&#45;&gt;Node10 -->
<g id="edge16_Node000001_Node000010" class="edge">
<title>Node1&#45;&gt;Node10</title>
<g id="a_edge16_Node000001_Node000010"><a xlink:title=" ">
<path fill="none" stroke="#63b8ff" d="M541.94,-207C533.32,-207 524.6,-207 516.29,-207"/>
<polygon fill="#63b8ff" stroke="#63b8ff" points="541.98,-210.5 551.98,-207 541.98,-203.5 541.98,-210.5"/>
</a>
</g>
</g>
<!-- Node11 -->
<g id="Node000011" class="node">
<title>Node11</title>
<g id="a_Node000011"><a xlink:href="../../d6/daa/classlci_1_1net__post__puts__x.html#a023b4865407b1768f2e63340c029f771" target="_top" xlink:title=" ">
<polygon fill="white" stroke="#666666" points="516,-174 414,-174 414,-144 516,-144 516,-174"/>
<text text-anchor="start" x="422" y="-162" font-family="Helvetica,sans-Serif" font-size="10.00">lci::net_post_puts</text>
<text text-anchor="middle" x="465" y="-151" font-family="Helvetica,sans-Serif" font-size="10.00">_x::rmr</text>
</a>
</g>
</g>
<!-- Node1&#45;&gt;Node11 -->
<g id="edge19_Node000001_Node000011" class="edge">
<title>Node1&#45;&gt;Node11</title>
<g id="a_edge19_Node000001_Node000011"><a xlink:title=" ">
<path fill="none" stroke="#63b8ff" d="M553.42,-188.65C539.15,-183.81 523.91,-178.64 510.23,-174"/>
<polygon fill="#63b8ff" stroke="#63b8ff" points="552.52,-192.05 563.12,-191.94 554.77,-185.42 552.52,-192.05"/>
</a>
</g>
</g>
<!-- Node12 -->
<g id="Node000012" class="node">
<title>Node12</title>
<g id="a_Node000012"><a xlink:href="../../d6/daa/classlci_1_1net__post__puts__x.html#a3de12c6366766903e3f30075f7885971" target="_top" xlink:title=" ">
<polygon fill="white" stroke="#666666" points="516,-126 414,-126 414,-96 516,-96 516,-126"/>
<text text-anchor="start" x="422" y="-114" font-family="Helvetica,sans-Serif" font-size="10.00">lci::net_post_puts</text>
<text text-anchor="middle" x="465" y="-103" font-family="Helvetica,sans-Serif" font-size="10.00">_x::runtime</text>
</a>
</g>
</g>
<!-- Node1&#45;&gt;Node12 -->
<g id="edge22_Node000001_Node000012" class="edge">
<title>Node1&#45;&gt;Node12</title>
<g id="a_edge22_Node000001_Node000012"><a xlink:title=" ">
<path fill="none" stroke="#63b8ff" d="M582.81,-185.14C565,-169.98 539.95,-149.92 516,-135 510.93,-131.84 505.39,-128.81 499.89,-126.02"/>
<polygon fill="#63b8ff" stroke="#63b8ff" points="580.6,-187.85 590.46,-191.72 585.17,-182.55 580.6,-187.85"/>
</a>
</g>
</g>
<!-- Node13 -->
<g id="Node000013" class="node">
<title>Node13</title>
<g id="a_Node000013"><a xlink:href="../../d6/daa/classlci_1_1net__post__puts__x.html#a0bf8827435f72bac93589da4f7b9e4e3" target="_top" xlink:title=" ">
<polygon fill="white" stroke="#666666" points="516,-78 414,-78 414,-48 516,-48 516,-78"/>
<text text-anchor="start" x="422" y="-66" font-family="Helvetica,sans-Serif" font-size="10.00">lci::net_post_puts</text>
<text text-anchor="middle" x="465" y="-55" font-family="Helvetica,sans-Serif" font-size="10.00">_x::size</text>
</a>
</g>
</g>
<!-- Node1&#45;&gt;Node13 -->
<g id="edge25_Node000001_Node000013" class="edge">
<title>Node1&#45;&gt;Node13</title>
<g id="a_edge25_Node000001_Node000013"><a xlink:title=" ">
<path fill="none" stroke="#63b8ff" d="M593.93,-182.95C578.07,-156.59 549.65,-114.41 516,-87 511.97,-83.72 507.41,-80.75 502.73,-78.11"/>
<polygon fill="#63b8ff" stroke="#63b8ff" points="591.1,-185.05 599.19,-191.89 597.14,-181.5 591.1,-185.05"/>
</a>
</g>
</g>
<!-- Node14 -->
<g id="Node000014" class="node">
<title>Node14</title>
<g id="a_Node000014"><a xlink:href="../../d6/daa/classlci_1_1net__post__puts__x.html#ae5154313f73d76ae6d525a1db684f339" target="_top" xlink:title=" ">
<polygon fill="white" stroke="#666666" points="516,-30 414,-30 414,0 516,0 516,-30"/>
<text text-anchor="start" x="422" y="-18" font-family="Helvetica,sans-Serif" font-size="10.00">lci::net_post_puts</text>
<text text-anchor="middle" x="465" y="-7" font-family="Helvetica,sans-Serif" font-size="10.00">_x::user_context</text>
</a>
</g>
</g>
<!-- Node1&#45;&gt;Node14 -->
<g id="edge28_Node000001_Node000014" class="edge">
<title>Node1&#45;&gt;Node14</title>
<g id="a_edge28_Node000001_Node000014"><a xlink:title=" ">
<path fill="none" stroke="#63b8ff" d="M599.41,-181.84C586.75,-145.99 559.17,-80.02 516,-39 512.44,-35.62 508.31,-32.63 503.99,-30.02"/>
<polygon fill="#63b8ff" stroke="#63b8ff" points="596.17,-183.19 602.72,-191.52 602.79,-180.93 596.17,-183.19"/>
</a>
</g>
</g>
<!-- Node3 -->
<g id="Node000003" class="node">
<title>Node3</title>
<g id="a_Node000003"><a xlink:href="../../d6/daa/classlci_1_1net__post__puts__x.html#a530c9f11146d23247886f46c770a367d" target="_top" xlink:title=" ">
<polygon fill="white" stroke="#666666" points="240,-217 138,-217 138,-187 240,-187 240,-217"/>
<text text-anchor="start" x="146" y="-205" font-family="Helvetica,sans-Serif" font-size="10.00">lci::net_post_puts</text>
<text text-anchor="middle" x="189" y="-194" font-family="Helvetica,sans-Serif" font-size="10.00">_x::call</text>
</a>
</g>
</g>
<!-- Node2&#45;&gt;Node3 -->
<g id="edge2_Node000002_Node000003" class="edge">
<title>Node2&#45;&gt;Node3</title>
<g id="a_edge2_Node000002_Node000003"><a xlink:title=" ">
<path fill="none" stroke="#63b8ff" d="M404.2,-385.97C364.74,-375.13 313.59,-356.6 276,-327 237.09,-296.37 208.95,-243.31 196.74,-217.29"/>
<polygon fill="#63b8ff" stroke="#63b8ff" points="403.4,-389.38 413.96,-388.56 405.19,-382.61 403.4,-389.38"/>
</a>
</g>
</g>
<!-- Node6 -->
<g id="Node000006" class="node">
<title>Node6</title>
<g id="a_Node000006"><a xlink:href="../../d6/daa/classlci_1_1net__post__puts__x.html#ae2177a70ab62ddb838350e771f876421" target="_top" xlink:title=" ">
<polygon fill="white" stroke="#666666" points="378,-239 276,-239 276,-209 378,-209 378,-239"/>
<text text-anchor="start" x="284" y="-227" font-family="Helvetica,sans-Serif" font-size="10.00">lci::net_post_puts</text>
<text text-anchor="middle" x="327" y="-216" font-family="Helvetica,sans-Serif" font-size="10.00">_x::call_impl</text>
</a>
</g>
</g>
<!-- Node2&#45;&gt;Node6 -->
<g id="edge5_Node000002_Node000006" class="edge">
<title>Node2&#45;&gt;Node6</title>
<g id="a_edge5_Node000002_Node000006"><a xlink:title=" ">
<path fill="none" stroke="#63b8ff" d="M417.52,-378.03C416.3,-377.06 415.12,-376.05 414,-375 371.19,-335.09 343.87,-268.95 333.16,-239.26"/>
<polygon fill="#63b8ff" stroke="#63b8ff" points="415.85,-381.13 426.07,-383.92 419.82,-375.36 415.85,-381.13"/>
</a>
</g>
</g>
<!-- Node4 -->
<g id="Node000004" class="node">
<title>Node4</title>
<g id="a_Node000004"><a xlink:href="../../d5/dd3/namespacelci.html#a754d5c95edca5f710b0f91145259728b" target="_top" xlink:title=" ">
<polygon fill="white" stroke="#666666" points="102,-233.5 0,-233.5 0,-214.5 102,-214.5 102,-233.5"/>
<text text-anchor="middle" x="51" y="-221.5" font-family="Helvetica,sans-Serif" font-size="10.00">lci::net_post_puts</text>
</a>
</g>
</g>
<!-- Node3&#45;&gt;Node4 -->
<g id="edge3_Node000003_Node000004" class="edge">
<title>Node3&#45;&gt;Node4</title>
<g id="a_edge3_Node000003_Node000004"><a xlink:title=" ">
<path fill="none" stroke="#63b8ff" d="M127.77,-211.74C119.18,-213.13 110.42,-214.55 102.05,-215.9"/>
<polygon fill="#63b8ff" stroke="#63b8ff" points="128.43,-215.18 137.75,-210.13 127.31,-208.27 128.43,-215.18"/>
</a>
</g>
</g>
<!-- Node5 -->
<g id="Node000005" class="node">
<title>Node5</title>
<g id="a_Node000005"><a xlink:href="../../d6/daa/classlci_1_1net__post__puts__x.html#a083b699d415ebb527930d84523194bef" target="_top" xlink:title=" ">
<polygon fill="white" stroke="#666666" points="102,-196 0,-196 0,-166 102,-166 102,-196"/>
<text text-anchor="start" x="8" y="-184" font-family="Helvetica,sans-Serif" font-size="10.00">lci::net_post_puts</text>
<text text-anchor="middle" x="51" y="-173" font-family="Helvetica,sans-Serif" font-size="10.00">_x::operator()</text>
</a>
</g>
</g>
<!-- Node3&#45;&gt;Node5 -->
<g id="edge4_Node000003_Node000005" class="edge">
<title>Node3&#45;&gt;Node5</title>
<g id="a_edge4_Node000003_Node000005"><a xlink:title=" ">
<path fill="none" stroke="#63b8ff" d="M127.77,-192.7C119.18,-191.37 110.42,-190.02 102.05,-188.73"/>
<polygon fill="#63b8ff" stroke="#63b8ff" points="127.33,-196.17 137.75,-194.24 128.4,-189.25 127.33,-196.17"/>
</a>
</g>
</g>
<!-- Node6&#45;&gt;Node3 -->
<g id="edge6_Node000006_Node000003" class="edge">
<title>Node6&#45;&gt;Node3</title>
<g id="a_edge6_Node000006_Node000003"><a xlink:title=" ">
<path fill="none" stroke="#63b8ff" d="M265.77,-214.26C257.18,-212.87 248.42,-211.45 240.05,-210.1"/>
<polygon fill="#63b8ff" stroke="#63b8ff" points="265.31,-217.73 275.75,-215.87 266.43,-210.82 265.31,-217.73"/>
</a>
</g>
</g>
<!-- Node7&#45;&gt;Node3 -->
<g id="edge8_Node000007_Node000003" class="edge">
<title>Node7&#45;&gt;Node3</title>
<g id="a_edge8_Node000007_Node000003"><a xlink:title=" ">
<path fill="none" stroke="#63b8ff" d="M403.85,-341.13C365.19,-332.84 315.07,-318.32 276,-294 243.14,-273.55 214.61,-237.4 200.13,-217.03"/>
<polygon fill="#63b8ff" stroke="#63b8ff" points="403.42,-344.62 413.93,-343.21 404.84,-337.76 403.42,-344.62"/>
</a>
</g>
</g>
<!-- Node7&#45;&gt;Node6 -->
<g id="edge9_Node000007_Node000006" class="edge">
<title>Node7&#45;&gt;Node6</title>
<g id="a_edge9_Node000007_Node000006"><a xlink:title=" ">
<path fill="none" stroke="#63b8ff" d="M418.9,-330.54C417.21,-329.4 415.57,-328.22 414,-327 380.91,-301.25 351.83,-260.79 337.49,-239.03"/>
<polygon fill="#63b8ff" stroke="#63b8ff" points="417.3,-333.66 427.66,-335.86 420.93,-327.68 417.3,-333.66"/>
</a>
</g>
</g>
<!-- Node8&#45;&gt;Node3 -->
<g id="edge11_Node000008_Node000003" class="edge">
<title>Node8&#45;&gt;Node3</title>
<g id="a_edge11_Node000008_Node000003"><a xlink:title=" ">
<path fill="none" stroke="#63b8ff" d="M403.47,-298.48C365.55,-293.97 316.39,-284.95 276,-267 248.46,-254.76 221.55,-232.21 205.36,-217.15"/>
<polygon fill="#63b8ff" stroke="#63b8ff" points="403.53,-302.01 413.85,-299.64 404.3,-295.06 403.53,-302.01"/>
</a>
</g>
</g>
<!-- Node8&#45;&gt;Node6 -->
<g id="edge12_Node000008_Node000006" class="edge">
<title>Node8&#45;&gt;Node6</title>
<g id="a_edge12_Node000008_Node000006"><a xlink:title=" ">
<path fill="none" stroke="#63b8ff" d="M422.19,-283.4C419.4,-281.95 416.65,-280.48 414,-279 391.55,-266.49 366.94,-250.51 349.82,-239"/>
<polygon fill="#63b8ff" stroke="#63b8ff" points="420.66,-286.55 431.16,-287.94 423.82,-280.3 420.66,-286.55"/>
</a>
</g>
</g>
<!-- Node9&#45;&gt;Node3 -->
<g id="edge14_Node000009_Node000003" class="edge">
<title>Node9&#45;&gt;Node3</title>
<g id="a_edge14_Node000009_Node000003"><a xlink:title=" ">
<path fill="none" stroke="#63b8ff" d="M403.38,-259.6C366.02,-260.76 317.5,-259.23 276,-248 252.46,-241.63 228.19,-227.87 211.46,-217.05"/>
<polygon fill="#63b8ff" stroke="#63b8ff" points="403.74,-263.09 413.6,-259.21 403.48,-256.09 403.74,-263.09"/>
</a>
</g>
</g>
<!-- Node9&#45;&gt;Node6 -->
<g id="edge15_Node000009_Node000006" class="edge">
<title>Node9&#45;&gt;Node6</title>
<g id="a_edge15_Node000009_Node000006"><a xlink:title=" ">
<path fill="none" stroke="#63b8ff" d="M403.77,-241.27C395.18,-239.31 386.42,-237.32 378.05,-235.41"/>
<polygon fill="#63b8ff" stroke="#63b8ff" points="403.22,-244.73 413.75,-243.54 404.77,-237.91 403.22,-244.73"/>
</a>
</g>
</g>
<!-- Node10&#45;&gt;Node3 -->
<g id="edge17_Node000010_Node000003" class="edge">
<title>Node10&#45;&gt;Node3</title>
<g id="a_edge17_Node000010_Node000003"><a xlink:title=" ">
<path fill="none" stroke="#63b8ff" d="M403.59,-201.46C395,-200.85 386.28,-200.34 378,-200 331.36,-198.11 278.17,-198.95 240.29,-200.07"/>
<polygon fill="#63b8ff" stroke="#63b8ff" points="403.33,-204.95 413.56,-202.21 403.85,-197.97 403.33,-204.95"/>
</a>
</g>
</g>
<!-- Node10&#45;&gt;Node6 -->
<g id="edge18_Node000010_Node000006" class="edge">
<title>Node10&#45;&gt;Node6</title>
<g id="a_edge18_Node000010_Node000006"><a xlink:title=" ">
<path fill="none" stroke="#63b8ff" d="M403.77,-214.53C395.18,-215.6 386.42,-216.7 378.05,-217.74"/>
<polygon fill="#63b8ff" stroke="#63b8ff" points="404.26,-218 413.75,-213.28 403.39,-211.05 404.26,-218"/>
</a>
</g>
</g>
<!-- Node11&#45;&gt;Node3 -->
<g id="edge20_Node000011_Node000003" class="edge">
<title>Node11&#45;&gt;Node3</title>
<g id="a_edge20_Node000011_Node000003"><a xlink:title=" ">
<path fill="none" stroke="#63b8ff" d="M403.6,-168.48C354.65,-176.16 286.46,-186.86 240.4,-194.09"/>
<polygon fill="#63b8ff" stroke="#63b8ff" points="404.41,-171.89 413.74,-166.89 403.32,-164.98 404.41,-171.89"/>
</a>
</g>
</g>
<!-- Node11&#45;&gt;Node6 -->
<g id="edge21_Node000011_Node000006" class="edge">
<title>Node11&#45;&gt;Node6</title>
<g id="a_edge21_Node000011_Node000006"><a xlink:title=" ">
<path fill="none" stroke="#63b8ff" d="M423.42,-178.39C403.08,-188.11 378.82,-199.71 359.84,-208.78"/>
<polygon fill="#63b8ff" stroke="#63b8ff" points="424.94,-181.55 432.46,-174.08 421.93,-175.23 424.94,-181.55"/>
</a>
</g>
</g>
<!-- Node12&#45;&gt;Node3 -->
<g id="edge23_Node000012_Node000003" class="edge">
<title>Node12&#45;&gt;Node3</title>
<g id="a_edge23_Node000012_Node000003"><a xlink:title=" ">
<path fill="none" stroke="#63b8ff" d="M404.1,-127.8C366.97,-138.55 318.42,-153.21 276,-168 259.48,-173.76 241.43,-180.78 226.16,-186.94"/>
<polygon fill="#63b8ff" stroke="#63b8ff" points="405.13,-131.15 413.77,-125.01 403.19,-124.42 405.13,-131.15"/>
</a>
</g>
</g>
<!-- Node12&#45;&gt;Node6 -->
<g id="edge24_Node000012_Node000006" class="edge">
<title>Node12&#45;&gt;Node6</title>
<g id="a_edge24_Node000012_Node000006"><a xlink:title=" ">
<path fill="none" stroke="#63b8ff" d="M419.64,-131.21C417.7,-132.43 415.81,-133.7 414,-135 383.86,-156.75 355.18,-189.75 339.75,-208.86"/>
<polygon fill="#63b8ff" stroke="#63b8ff" points="421.5,-134.18 428.4,-126.14 417.99,-128.12 421.5,-134.18"/>
</a>
</g>
</g>
<!-- Node13&#45;&gt;Node3 -->
<g id="edge26_Node000013_Node000003" class="edge">
<title>Node13&#45;&gt;Node3</title>
<g id="a_edge26_Node000013_Node000003"><a xlink:title=" ">
<path fill="none" stroke="#63b8ff" d="M403.75,-79.02C365.69,-90.51 316.26,-108.02 276,-131 248.59,-146.64 221.22,-171.15 204.95,-186.89"/>
<polygon fill="#63b8ff" stroke="#63b8ff" points="405.08,-82.27 413.67,-76.08 403.09,-75.56 405.08,-82.27"/>
</a>
</g>
</g>
<!-- Node13&#45;&gt;Node6 -->
<g id="edge27_Node000013_Node000006" class="edge">
<title>Node13&#45;&gt;Node6</title>
<g id="a_edge27_Node000013_Node000006"><a xlink:title=" ">
<path fill="none" stroke="#63b8ff" d="M418.03,-83.69C416.63,-84.75 415.28,-85.85 414,-87 373.99,-122.72 345.81,-181.4 334.08,-208.9"/>
<polygon fill="#63b8ff" stroke="#63b8ff" points="420.08,-86.53 426.47,-78.08 416.2,-80.7 420.08,-86.53"/>
</a>
</g>
</g>
<!-- Node14&#45;&gt;Node3 -->
<g id="edge29_Node000014_Node000003" class="edge">
<title>Node14&#45;&gt;Node3</title>
<g id="a_edge29_Node000014_Node000003"><a xlink:title=" ">
<path fill="none" stroke="#63b8ff" d="M404.06,-27.4C364.77,-37.71 313.87,-55.43 276,-84 238.36,-112.4 210.02,-161.82 197.33,-186.73"/>
<polygon fill="#63b8ff" stroke="#63b8ff" points="404.95,-30.78 413.78,-24.93 403.23,-24 404.95,-30.78"/>
</a>
</g>
</g>
<!-- Node14&#45;&gt;Node6 -->
<g id="edge30_Node000014_Node000006" class="edge">
<title>Node14&#45;&gt;Node6</title>
<g id="a_edge30_Node000014_Node000006"><a xlink:title=" ">
<path fill="none" stroke="#63b8ff" d="M416.92,-36.26C415.91,-37.14 414.93,-38.06 414,-39 364.1,-89.52 339.61,-174.39 331.34,-208.81"/>
<polygon fill="#63b8ff" stroke="#63b8ff" points="419.31,-38.85 425.3,-30.11 415.17,-33.21 419.31,-38.85"/>
</a>
</g>
</g>
</g>
</svg>
