<?xml version="1.0" encoding="UTF-8" standalone="no"?>
<!DOCTYPE svg PUBLIC "-//W3C//DTD SVG 1.1//EN"
 "http://www.w3.org/Graphics/SVG/1.1/DTD/svg11.dtd">
<!-- Generated by graphviz version 2.43.0 (0)
 -->
<!-- Title: lci::alloc_graph_x Pages: 1 -->
<svg width="834pt" height="172pt"
 viewBox="0.00 0.00 834.00 172.00" xmlns="http://www.w3.org/2000/svg" xmlns:xlink="http://www.w3.org/1999/xlink">
<g id="graph0" class="graph" transform="scale(1 1) rotate(0) translate(4 168)">
<title>lci::alloc_graph_x</title>
<!-- Node1 -->
<g id="Node000001" class="node">
<title>Node1</title>
<g id="a_Node000001"><a xlink:title="The actual implementation for alloc_graph.">
<polygon fill="#999999" stroke="#666666" points="826,-88.5 725,-88.5 725,-69.5 826,-69.5 826,-88.5"/>
<text text-anchor="middle" x="775.5" y="-76.5" font-family="Helvetica,sans-Serif" font-size="10.00">lci::alloc_graph_x</text>
</a>
</g>
</g>
<!-- Node2 -->
<g id="Node000002" class="node">
<title>Node2</title>
<g id="a_Node000002"><a xlink:href="../../db/d20/structlci_1_1option__t.html" target="_top" xlink:title=" ">
<polygon fill="white" stroke="#666666" points="592.5,-164 496.5,-164 496.5,-134 592.5,-134 592.5,-164"/>
<text text-anchor="start" x="504.5" y="-152" font-family="Helvetica,sans-Serif" font-size="10.00">lci::option_t&lt; lci</text>
<text text-anchor="middle" x="544.5" y="-141" font-family="Helvetica,sans-Serif" font-size="10.00">::comp_t &gt;</text>
</a>
</g>
</g>
<!-- Node2&#45;&gt;Node1 -->
<g id="edge1_Node000001_Node000002" class="edge">
<title>Node2&#45;&gt;Node1</title>
<g id="a_edge1_Node000001_Node000002"><a xlink:title=" ">
<path fill="none" stroke="#9a32cd" stroke-dasharray="5,2" d="M602.55,-136.83C633.75,-129.59 672.89,-119.58 707,-108 723.31,-102.47 741.18,-94.7 754.44,-88.6"/>
<polygon fill="#9a32cd" stroke="#9a32cd" points="601.68,-133.43 592.71,-139.08 603.24,-140.26 601.68,-133.43"/>
</a>
</g>
<text text-anchor="middle" x="666" y="-133" font-family="Helvetica,sans-Serif" font-size="10.00" fill="grey"> m_comp</text>
</g>
<!-- Node3 -->
<g id="Node000003" class="node">
<title>Node3</title>
<g id="a_Node000003"><a xlink:href="../../d1/da7/classlci_1_1comp__t.html" target="_top" xlink:title="The actual implementation for RESOURCE comp.">
<polygon fill="white" stroke="#666666" points="394.5,-158.5 324.5,-158.5 324.5,-139.5 394.5,-139.5 394.5,-158.5"/>
<text text-anchor="middle" x="359.5" y="-146.5" font-family="Helvetica,sans-Serif" font-size="10.00">lci::comp_t</text>
</a>
</g>
</g>
<!-- Node3&#45;&gt;Node2 -->
<g id="edge2_Node000002_Node000003" class="edge">
<title>Node3&#45;&gt;Node2</title>
<g id="a_edge2_Node000002_Node000003"><a xlink:title=" ">
<path fill="none" stroke="#9a32cd" stroke-dasharray="5,2" d="M405.12,-149C432.8,-149 468.33,-149 496.46,-149"/>
<polygon fill="#9a32cd" stroke="#9a32cd" points="404.92,-145.5 394.92,-149 404.92,-152.5 404.92,-145.5"/>
</a>
</g>
<text text-anchor="middle" x="441" y="-152" font-family="Helvetica,sans-Serif" font-size="10.00" fill="grey"> m_value</text>
</g>
<!-- Node4 -->
<g id="Node000004" class="node">
<title>Node4</title>
<g id="a_Node000004"><a xlink:href="../../d9/d97/classlci_1_1comp__impl__t.html" target="_top" xlink:title="Completion object implementation base type.">
<polygon fill="white" stroke="#666666" points="246,-158.5 149,-158.5 149,-139.5 246,-139.5 246,-158.5"/>
<text text-anchor="middle" x="197.5" y="-146.5" font-family="Helvetica,sans-Serif" font-size="10.00">lci::comp_impl_t</text>
</a>
</g>
</g>
<!-- Node4&#45;&gt;Node3 -->
<g id="edge3_Node000003_Node000004" class="edge">
<title>Node4&#45;&gt;Node3</title>
<g id="a_edge3_Node000003_Node000004"><a xlink:title=" ">
<path fill="none" stroke="#9a32cd" stroke-dasharray="5,2" d="M256.3,-149C279.01,-149 304.32,-149 324.07,-149"/>
<polygon fill="#9a32cd" stroke="#9a32cd" points="256.07,-145.5 246.07,-149 256.07,-152.5 256.07,-145.5"/>
</a>
</g>
<text text-anchor="middle" x="282.5" y="-152" font-family="Helvetica,sans-Serif" font-size="10.00" fill="grey"> p_impl</text>
</g>
<!-- Node5 -->
<g id="Node000005" class="node">
<title>Node5</title>
<g id="a_Node000005"><a xlink:href="../../dc/da6/structlci_1_1comp__attr__t.html" target="_top" xlink:title=" ">
<polygon fill="white" stroke="#666666" points="92,-158.5 0,-158.5 0,-139.5 92,-139.5 92,-158.5"/>
<text text-anchor="middle" x="46" y="-146.5" font-family="Helvetica,sans-Serif" font-size="10.00">lci::comp_attr_t</text>
</a>
</g>
</g>
<!-- Node5&#45;&gt;Node4 -->
<g id="edge4_Node000004_Node000005" class="edge">
<title>Node5&#45;&gt;Node4</title>
<g id="a_edge4_Node000004_Node000005"><a xlink:title=" ">
<path fill="none" stroke="#9a32cd" stroke-dasharray="5,2" d="M102.56,-149C117.76,-149 134.09,-149 148.8,-149"/>
<polygon fill="#9a32cd" stroke="#9a32cd" points="102.26,-145.5 92.26,-149 102.26,-152.5 102.26,-145.5"/>
</a>
</g>
<text text-anchor="middle" x="120.5" y="-152" font-family="Helvetica,sans-Serif" font-size="10.00" fill="grey"> attr</text>
</g>
<!-- Node6 -->
<g id="Node000006" class="node">
<title>Node6</title>
<g id="a_Node000006"><a xlink:href="../../db/d20/structlci_1_1option__t.html" target="_top" xlink:title=" ">
<polygon fill="white" stroke="#666666" points="600,-116 489,-116 489,-86 600,-86 600,-116"/>
<text text-anchor="start" x="497" y="-104" font-family="Helvetica,sans-Serif" font-size="10.00">lci::option_t&lt; const</text>
<text text-anchor="middle" x="544.5" y="-93" font-family="Helvetica,sans-Serif" font-size="10.00"> char * &gt;</text>
</a>
</g>
</g>
<!-- Node6&#45;&gt;Node1 -->
<g id="edge5_Node000001_Node000006" class="edge">
<title>Node6&#45;&gt;Node1</title>
<g id="a_edge5_Node000001_Node000006"><a xlink:title=" ">
<path fill="none" stroke="#9a32cd" stroke-dasharray="5,2" d="M610.07,-94.8C646.39,-91.31 691.05,-87.02 724.66,-83.79"/>
<polygon fill="#9a32cd" stroke="#9a32cd" points="609.68,-91.32 600.06,-95.76 610.35,-98.29 609.68,-91.32"/>
</a>
</g>
<text text-anchor="middle" x="666" y="-96" font-family="Helvetica,sans-Serif" font-size="10.00" fill="grey"> m_name</text>
</g>
<!-- Node7 -->
<g id="Node000007" class="node">
<title>Node7</title>
<g id="a_Node000007"><a xlink:href="../../db/d20/structlci_1_1option__t.html" target="_top" xlink:title=" ">
<polygon fill="white" stroke="#666666" points="607,-67.5 482,-67.5 482,-48.5 607,-48.5 607,-67.5"/>
<text text-anchor="middle" x="544.5" y="-55.5" font-family="Helvetica,sans-Serif" font-size="10.00">lci::option_t&lt; void * &gt;</text>
</a>
</g>
</g>
<!-- Node7&#45;&gt;Node1 -->
<g id="edge6_Node000001_Node000007" class="edge">
<title>Node7&#45;&gt;Node1</title>
<g id="a_edge6_Node000001_Node000007"><a xlink:title=" ">
<path fill="none" stroke="#9a32cd" stroke-dasharray="5,2" d="M617.47,-60.92C645.47,-62.45 677.79,-64.72 707,-68 712.78,-68.65 718.82,-69.45 724.81,-70.33"/>
<polygon fill="#9a32cd" stroke="#9a32cd" points="617.53,-57.42 607.36,-60.38 617.16,-64.41 617.53,-57.42"/>
</a>
</g>
<text text-anchor="middle" x="666" y="-71" font-family="Helvetica,sans-Serif" font-size="10.00" fill="grey"> m_user_context</text>
</g>
<!-- Node8 -->
<g id="Node000008" class="node">
<title>Node8</title>
<g id="a_Node000008"><a xlink:href="../../db/d20/structlci_1_1option__t.html" target="_top" xlink:title=" ">
<polygon fill="white" stroke="#666666" points="592.5,-30 496.5,-30 496.5,0 592.5,0 592.5,-30"/>
<text text-anchor="start" x="504.5" y="-18" font-family="Helvetica,sans-Serif" font-size="10.00">lci::option_t&lt; lci</text>
<text text-anchor="middle" x="544.5" y="-7" font-family="Helvetica,sans-Serif" font-size="10.00">::runtime_t &gt;</text>
</a>
</g>
</g>
<!-- Node8&#45;&gt;Node1 -->
<g id="edge7_Node000001_Node000008" class="edge">
<title>Node8&#45;&gt;Node1</title>
<g id="a_edge7_Node000001_Node000008"><a xlink:title=" ">
<path fill="none" stroke="#9a32cd" stroke-dasharray="5,2" d="M602.92,-22.23C634.21,-27.11 673.3,-34.75 707,-46 725.19,-52.07 744.75,-62.05 758.1,-69.45"/>
<polygon fill="#9a32cd" stroke="#9a32cd" points="603.04,-18.71 592.63,-20.68 602,-25.63 603.04,-18.71"/>
</a>
</g>
<text text-anchor="middle" x="666" y="-49" font-family="Helvetica,sans-Serif" font-size="10.00" fill="grey"> m_runtime</text>
</g>
<!-- Node9 -->
<g id="Node000009" class="node">
<title>Node9</title>
<g id="a_Node000009"><a xlink:href="../../dc/d5c/classlci_1_1runtime__t.html" target="_top" xlink:title="The actual implementation for RESOURCE runtime.">
<polygon fill="white" stroke="#666666" points="400,-24.5 319,-24.5 319,-5.5 400,-5.5 400,-24.5"/>
<text text-anchor="middle" x="359.5" y="-12.5" font-family="Helvetica,sans-Serif" font-size="10.00">lci::runtime_t</text>
</a>
</g>
</g>
<!-- Node9&#45;&gt;Node8 -->
<g id="edge8_Node000008_Node000009" class="edge">
<title>Node9&#45;&gt;Node8</title>
<g id="a_edge8_Node000008_Node000009"><a xlink:title=" ">
<path fill="none" stroke="#9a32cd" stroke-dasharray="5,2" d="M410.53,-15C437.31,-15 470.1,-15 496.42,-15"/>
<polygon fill="#9a32cd" stroke="#9a32cd" points="410.21,-11.5 400.21,-15 410.21,-18.5 410.21,-11.5"/>
</a>
</g>
<text text-anchor="middle" x="441" y="-18" font-family="Helvetica,sans-Serif" font-size="10.00" fill="grey"> m_value</text>
</g>
</g>
</svg>
