<?xml version="1.0" encoding="UTF-8" standalone="no"?>
<!DOCTYPE svg PUBLIC "-//W3C//DTD SVG 1.1//EN"
 "http://www.w3.org/Graphics/SVG/1.1/DTD/svg11.dtd">
<!-- Generated by graphviz version 2.43.0 (0)
 -->
<!-- Title: lci::alloc_graph_x::call_impl Pages: 1 -->
<svg width="383pt" height="182pt"
 viewBox="0.00 0.00 383.00 182.00" xmlns="http://www.w3.org/2000/svg" xmlns:xlink="http://www.w3.org/1999/xlink">
<g id="graph0" class="graph" transform="scale(1 1) rotate(0) translate(4 178)">
<title>lci::alloc_graph_x::call_impl</title>
<!-- Node1 -->
<g id="Node000001" class="node">
<title>Node1</title>
<g id="a_Node000001"><a xlink:title=" ">
<polygon fill="#999999" stroke="#666666" points="101,-102 0,-102 0,-72 101,-72 101,-102"/>
<text text-anchor="start" x="8" y="-90" font-family="Helvetica,sans-Serif" font-size="10.00">lci::alloc_graph_x</text>
<text text-anchor="middle" x="50.5" y="-79" font-family="Helvetica,sans-Serif" font-size="10.00">::call_impl</text>
</a>
</g>
</g>
<!-- Node2 -->
<g id="Node000002" class="node">
<title>Node2</title>
<g id="a_Node000002"><a xlink:href="../../d0/d14/classlci_1_1alloc__graph__x.html#ad5d3eaef537f3270a3df07b7f7957c6d" target="_top" xlink:title=" ">
<polygon fill="white" stroke="#666666" points="238,-174 137,-174 137,-144 238,-144 238,-174"/>
<text text-anchor="start" x="145" y="-162" font-family="Helvetica,sans-Serif" font-size="10.00">lci::alloc_graph_x</text>
<text text-anchor="middle" x="187.5" y="-151" font-family="Helvetica,sans-Serif" font-size="10.00">::comp</text>
</a>
</g>
</g>
<!-- Node1&#45;&gt;Node2 -->
<g id="edge1_Node000001_Node000002" class="edge">
<title>Node1&#45;&gt;Node2</title>
<g id="a_edge1_Node000001_Node000002"><a xlink:title=" ">
<path fill="none" stroke="#63b8ff" d="M77.47,-102.12C94.3,-111.78 116.78,-124.44 137,-135 139.75,-136.44 142.59,-137.89 145.47,-139.34"/>
<polygon fill="#63b8ff" stroke="#63b8ff" points="144.16,-142.6 154.67,-143.92 147.27,-136.33 144.16,-142.6"/>
</a>
</g>
</g>
<!-- Node4 -->
<g id="Node000004" class="node">
<title>Node4</title>
<g id="a_Node000004"><a xlink:href="../../d0/d14/classlci_1_1alloc__graph__x.html#a6d6dadf26c71d4bca2e135c61c505f90" target="_top" xlink:title=" ">
<polygon fill="white" stroke="#666666" points="238,-126 137,-126 137,-96 238,-96 238,-126"/>
<text text-anchor="start" x="145" y="-114" font-family="Helvetica,sans-Serif" font-size="10.00">lci::alloc_graph_x</text>
<text text-anchor="middle" x="187.5" y="-103" font-family="Helvetica,sans-Serif" font-size="10.00">::name</text>
</a>
</g>
</g>
<!-- Node1&#45;&gt;Node4 -->
<g id="edge3_Node000001_Node000004" class="edge">
<title>Node1&#45;&gt;Node4</title>
<g id="a_edge3_Node000001_Node000004"><a xlink:title=" ">
<path fill="none" stroke="#63b8ff" d="M101,-95.8C109.33,-97.28 118.06,-98.83 126.61,-100.35"/>
<polygon fill="#63b8ff" stroke="#63b8ff" points="126.09,-103.82 136.55,-102.12 127.32,-96.92 126.09,-103.82"/>
</a>
</g>
</g>
<!-- Node5 -->
<g id="Node000005" class="node">
<title>Node5</title>
<g id="a_Node000005"><a xlink:href="../../d0/d14/classlci_1_1alloc__graph__x.html#a2673067c1acdf74ba84e11a826e4c2d1" target="_top" xlink:title=" ">
<polygon fill="white" stroke="#666666" points="238,-78 137,-78 137,-48 238,-48 238,-78"/>
<text text-anchor="start" x="145" y="-66" font-family="Helvetica,sans-Serif" font-size="10.00">lci::alloc_graph_x</text>
<text text-anchor="middle" x="187.5" y="-55" font-family="Helvetica,sans-Serif" font-size="10.00">::runtime</text>
</a>
</g>
</g>
<!-- Node1&#45;&gt;Node5 -->
<g id="edge5_Node000001_Node000005" class="edge">
<title>Node1&#45;&gt;Node5</title>
<g id="a_edge5_Node000001_Node000005"><a xlink:title=" ">
<path fill="none" stroke="#63b8ff" d="M101,-78.2C109.33,-76.72 118.06,-75.17 126.61,-73.65"/>
<polygon fill="#63b8ff" stroke="#63b8ff" points="127.32,-77.08 136.55,-71.88 126.09,-70.18 127.32,-77.08"/>
</a>
</g>
</g>
<!-- Node6 -->
<g id="Node000006" class="node">
<title>Node6</title>
<g id="a_Node000006"><a xlink:href="../../d0/d14/classlci_1_1alloc__graph__x.html#ab14fcd4fbb39b5649503ab2e04ab5711" target="_top" xlink:title=" ">
<polygon fill="white" stroke="#666666" points="238,-30 137,-30 137,0 238,0 238,-30"/>
<text text-anchor="start" x="145" y="-18" font-family="Helvetica,sans-Serif" font-size="10.00">lci::alloc_graph_x</text>
<text text-anchor="middle" x="187.5" y="-7" font-family="Helvetica,sans-Serif" font-size="10.00">::user_context</text>
</a>
</g>
</g>
<!-- Node1&#45;&gt;Node6 -->
<g id="edge7_Node000001_Node000006" class="edge">
<title>Node1&#45;&gt;Node6</title>
<g id="a_edge7_Node000001_Node000006"><a xlink:title=" ">
<path fill="none" stroke="#63b8ff" d="M77.47,-71.88C94.3,-62.22 116.78,-49.56 137,-39 139.75,-37.56 142.59,-36.11 145.47,-34.66"/>
<polygon fill="#63b8ff" stroke="#63b8ff" points="147.27,-37.67 154.67,-30.08 144.16,-31.4 147.27,-37.67"/>
</a>
</g>
</g>
<!-- Node3 -->
<g id="Node000003" class="node">
<title>Node3</title>
<g id="a_Node000003"><a xlink:href="../../d0/d14/classlci_1_1alloc__graph__x.html#a8cc0ae9adcf684fb7a17e189bf74428d" target="_top" xlink:title=" ">
<polygon fill="white" stroke="#666666" points="375,-102 274,-102 274,-72 375,-72 375,-102"/>
<text text-anchor="start" x="282" y="-90" font-family="Helvetica,sans-Serif" font-size="10.00">lci::alloc_graph_x</text>
<text text-anchor="middle" x="324.5" y="-79" font-family="Helvetica,sans-Serif" font-size="10.00">::alloc_graph_x</text>
</a>
</g>
</g>
<!-- Node2&#45;&gt;Node3 -->
<g id="edge2_Node000002_Node000003" class="edge">
<title>Node2&#45;&gt;Node3</title>
<g id="a_edge2_Node000002_Node000003"><a xlink:title=" ">
<path fill="none" stroke="#63b8ff" d="M220.33,-143.92C226.24,-141.02 232.33,-137.96 238,-135 254.9,-126.17 273.38,-115.88 288.82,-107.09"/>
<polygon fill="#63b8ff" stroke="#63b8ff" points="290.58,-110.12 297.53,-102.12 287.11,-104.04 290.58,-110.12"/>
</a>
</g>
</g>
<!-- Node4&#45;&gt;Node3 -->
<g id="edge4_Node000004_Node000003" class="edge">
<title>Node4&#45;&gt;Node3</title>
<g id="a_edge4_Node000004_Node000003"><a xlink:title=" ">
<path fill="none" stroke="#63b8ff" d="M238,-102.2C246.33,-100.72 255.06,-99.17 263.61,-97.65"/>
<polygon fill="#63b8ff" stroke="#63b8ff" points="264.32,-101.08 273.55,-95.88 263.09,-94.18 264.32,-101.08"/>
</a>
</g>
</g>
<!-- Node5&#45;&gt;Node3 -->
<g id="edge6_Node000005_Node000003" class="edge">
<title>Node5&#45;&gt;Node3</title>
<g id="a_edge6_Node000005_Node000003"><a xlink:title=" ">
<path fill="none" stroke="#63b8ff" d="M238,-71.8C246.33,-73.28 255.06,-74.83 263.61,-76.35"/>
<polygon fill="#63b8ff" stroke="#63b8ff" points="263.09,-79.82 273.55,-78.12 264.32,-72.92 263.09,-79.82"/>
</a>
</g>
</g>
<!-- Node6&#45;&gt;Node3 -->
<g id="edge8_Node000006_Node000003" class="edge">
<title>Node6&#45;&gt;Node3</title>
<g id="a_edge8_Node000006_Node000003"><a xlink:title=" ">
<path fill="none" stroke="#63b8ff" d="M220.33,-30.08C226.24,-32.98 232.33,-36.04 238,-39 254.9,-47.83 273.38,-58.12 288.82,-66.91"/>
<polygon fill="#63b8ff" stroke="#63b8ff" points="287.11,-69.96 297.53,-71.88 290.58,-63.88 287.11,-69.96"/>
</a>
</g>
</g>
</g>
</svg>
