<?xml version="1.0" encoding="UTF-8" standalone="no"?>
<!DOCTYPE svg PUBLIC "-//W3C//DTD SVG 1.1//EN"
 "http://www.w3.org/Graphics/SVG/1.1/DTD/svg11.dtd">
<!-- Generated by graphviz version 2.43.0 (0)
 -->
<!-- Title: lci::alloc_graph_x::call Pages: 1 -->
<svg width="246pt" height="76pt"
 viewBox="0.00 0.00 246.00 75.50" xmlns="http://www.w3.org/2000/svg" xmlns:xlink="http://www.w3.org/1999/xlink">
<g id="graph0" class="graph" transform="scale(1 1) rotate(0) translate(4 71.5)">
<title>lci::alloc_graph_x::call</title>
<!-- Node1 -->
<g id="Node000001" class="node">
<title>Node1</title>
<g id="a_Node000001"><a xlink:title=" ">
<polygon fill="#999999" stroke="#666666" points="238,-51 137,-51 137,-21 238,-21 238,-51"/>
<text text-anchor="start" x="145" y="-39" font-family="Helvetica,sans-Serif" font-size="10.00">lci::alloc_graph_x</text>
<text text-anchor="middle" x="187.5" y="-28" font-family="Helvetica,sans-Serif" font-size="10.00">::call</text>
</a>
</g>
</g>
<!-- Node2 -->
<g id="Node000002" class="node">
<title>Node2</title>
<g id="a_Node000002"><a xlink:href="../../d5/dd3/namespacelci.html#aebd142b35d32f950515a5a35e4ac32d1" target="_top" xlink:title=" ">
<polygon fill="white" stroke="#666666" points="95.5,-67.5 5.5,-67.5 5.5,-48.5 95.5,-48.5 95.5,-67.5"/>
<text text-anchor="middle" x="50.5" y="-55.5" font-family="Helvetica,sans-Serif" font-size="10.00">lci::alloc_graph</text>
</a>
</g>
</g>
<!-- Node1&#45;&gt;Node2 -->
<g id="edge1_Node000001_Node000002" class="edge">
<title>Node1&#45;&gt;Node2</title>
<g id="a_edge1_Node000001_Node000002"><a xlink:title=" ">
<path fill="none" stroke="#63b8ff" d="M127.01,-45.7C116.47,-47.41 105.66,-49.17 95.64,-50.81"/>
<polygon fill="#63b8ff" stroke="#63b8ff" points="127.69,-49.13 137,-44.07 126.56,-42.22 127.69,-49.13"/>
</a>
</g>
</g>
<!-- Node3 -->
<g id="Node000003" class="node">
<title>Node3</title>
<g id="a_Node000003"><a xlink:href="../../d0/d14/classlci_1_1alloc__graph__x.html#ae270953e5c482b6825d2d3e8e0f193f3" target="_top" xlink:title=" ">
<polygon fill="white" stroke="#666666" points="101,-30 0,-30 0,0 101,0 101,-30"/>
<text text-anchor="start" x="8" y="-18" font-family="Helvetica,sans-Serif" font-size="10.00">lci::alloc_graph_x</text>
<text text-anchor="middle" x="50.5" y="-7" font-family="Helvetica,sans-Serif" font-size="10.00">::operator()</text>
</a>
</g>
</g>
<!-- Node1&#45;&gt;Node3 -->
<g id="edge2_Node000001_Node000003" class="edge">
<title>Node1&#45;&gt;Node3</title>
<g id="a_edge2_Node000001_Node000003"><a xlink:title=" ">
<path fill="none" stroke="#63b8ff" d="M127.07,-26.76C118.52,-25.43 109.79,-24.07 101.45,-22.77"/>
<polygon fill="#63b8ff" stroke="#63b8ff" points="126.58,-30.22 137,-28.3 127.65,-23.3 126.58,-30.22"/>
</a>
</g>
</g>
</g>
</svg>
