<?xml version="1.0" encoding="UTF-8" standalone="no"?>
<!DOCTYPE svg PUBLIC "-//W3C//DTD SVG 1.1//EN"
 "http://www.w3.org/Graphics/SVG/1.1/DTD/svg11.dtd">
<!-- Generated by graphviz version 2.43.0 (0)
 -->
<!-- Title: lci::alloc_graph_x::call_impl Pages: 1 -->
<svg width="383pt" height="134pt"
 viewBox="0.00 0.00 383.00 134.00" xmlns="http://www.w3.org/2000/svg" xmlns:xlink="http://www.w3.org/1999/xlink">
<g id="graph0" class="graph" transform="scale(1 1) rotate(0) translate(4 130)">
<title>lci::alloc_graph_x::call_impl</title>
<!-- Node1 -->
<g id="Node000001" class="node">
<title>Node1</title>
<g id="a_Node000001"><a xlink:title=" ">
<polygon fill="#999999" stroke="#666666" points="101,-78 0,-78 0,-48 101,-48 101,-78"/>
<text text-anchor="start" x="8" y="-66" font-family="Helvetica,sans-Serif" font-size="10.00">lci::alloc_graph_x</text>
<text text-anchor="middle" x="50.5" y="-55" font-family="Helvetica,sans-Serif" font-size="10.00">::call_impl</text>
</a>
</g>
</g>
<!-- Node2 -->
<g id="Node000002" class="node">
<title>Node2</title>
<g id="a_Node000002"><a xlink:href="../../d0/d14/classlci_1_1alloc__graph__x.html#ad5d3eaef537f3270a3df07b7f7957c6d" target="_top" xlink:title=" ">
<polygon fill="white" stroke="#666666" points="238,-126 137,-126 137,-96 238,-96 238,-126"/>
<text text-anchor="start" x="145" y="-114" font-family="Helvetica,sans-Serif" font-size="10.00">lci::alloc_graph_x</text>
<text text-anchor="middle" x="187.5" y="-103" font-family="Helvetica,sans-Serif" font-size="10.00">::comp</text>
</a>
</g>
</g>
<!-- Node1&#45;&gt;Node2 -->
<g id="edge1_Node000001_Node000002" class="edge">
<title>Node1&#45;&gt;Node2</title>
<g id="a_edge1_Node000001_Node000002"><a xlink:title=" ">
<path fill="none" stroke="#63b8ff" d="M93.84,-78.06C106.79,-82.66 121.17,-87.77 134.67,-92.57"/>
<polygon fill="#63b8ff" stroke="#63b8ff" points="133.71,-95.95 144.31,-96 136.06,-89.35 133.71,-95.95"/>
</a>
</g>
</g>
<!-- Node4 -->
<g id="Node000004" class="node">
<title>Node4</title>
<g id="a_Node000004"><a xlink:href="../../d0/d14/classlci_1_1alloc__graph__x.html#a2673067c1acdf74ba84e11a826e4c2d1" target="_top" xlink:title=" ">
<polygon fill="white" stroke="#666666" points="238,-78 137,-78 137,-48 238,-48 238,-78"/>
<text text-anchor="start" x="145" y="-66" font-family="Helvetica,sans-Serif" font-size="10.00">lci::alloc_graph_x</text>
<text text-anchor="middle" x="187.5" y="-55" font-family="Helvetica,sans-Serif" font-size="10.00">::runtime</text>
</a>
</g>
</g>
<!-- Node1&#45;&gt;Node4 -->
<g id="edge3_Node000001_Node000004" class="edge">
<title>Node1&#45;&gt;Node4</title>
<g id="a_edge3_Node000001_Node000004"><a xlink:title=" ">
<path fill="none" stroke="#63b8ff" d="M101,-63C109.24,-63 117.87,-63 126.34,-63"/>
<polygon fill="#63b8ff" stroke="#63b8ff" points="126.55,-66.5 136.55,-63 126.55,-59.5 126.55,-66.5"/>
</a>
</g>
</g>
<!-- Node5 -->
<g id="Node000005" class="node">
<title>Node5</title>
<g id="a_Node000005"><a xlink:href="../../d0/d14/classlci_1_1alloc__graph__x.html#ab14fcd4fbb39b5649503ab2e04ab5711" target="_top" xlink:title=" ">
<polygon fill="white" stroke="#666666" points="238,-30 137,-30 137,0 238,0 238,-30"/>
<text text-anchor="start" x="145" y="-18" font-family="Helvetica,sans-Serif" font-size="10.00">lci::alloc_graph_x</text>
<text text-anchor="middle" x="187.5" y="-7" font-family="Helvetica,sans-Serif" font-size="10.00">::user_context</text>
</a>
</g>
</g>
<!-- Node1&#45;&gt;Node5 -->
<g id="edge5_Node000001_Node000005" class="edge">
<title>Node1&#45;&gt;Node5</title>
<g id="a_edge5_Node000001_Node000005"><a xlink:title=" ">
<path fill="none" stroke="#63b8ff" d="M93.84,-47.94C106.79,-43.34 121.17,-38.23 134.67,-33.43"/>
<polygon fill="#63b8ff" stroke="#63b8ff" points="136.06,-36.65 144.31,-30 133.71,-30.05 136.06,-36.65"/>
</a>
</g>
</g>
<!-- Node3 -->
<g id="Node000003" class="node">
<title>Node3</title>
<g id="a_Node000003"><a xlink:href="../../d0/d14/classlci_1_1alloc__graph__x.html#a8cc0ae9adcf684fb7a17e189bf74428d" target="_top" xlink:title=" ">
<polygon fill="white" stroke="#666666" points="375,-78 274,-78 274,-48 375,-48 375,-78"/>
<text text-anchor="start" x="282" y="-66" font-family="Helvetica,sans-Serif" font-size="10.00">lci::alloc_graph_x</text>
<text text-anchor="middle" x="324.5" y="-55" font-family="Helvetica,sans-Serif" font-size="10.00">::alloc_graph_x</text>
</a>
</g>
</g>
<!-- Node2&#45;&gt;Node3 -->
<g id="edge2_Node000002_Node000003" class="edge">
<title>Node2&#45;&gt;Node3</title>
<g id="a_edge2_Node000002_Node000003"><a xlink:title=" ">
<path fill="none" stroke="#63b8ff" d="M230.84,-95.94C243.79,-91.34 258.17,-86.23 271.67,-81.43"/>
<polygon fill="#63b8ff" stroke="#63b8ff" points="273.06,-84.65 281.31,-78 270.71,-78.05 273.06,-84.65"/>
</a>
</g>
</g>
<!-- Node4&#45;&gt;Node3 -->
<g id="edge4_Node000004_Node000003" class="edge">
<title>Node4&#45;&gt;Node3</title>
<g id="a_edge4_Node000004_Node000003"><a xlink:title=" ">
<path fill="none" stroke="#63b8ff" d="M238,-63C246.24,-63 254.87,-63 263.34,-63"/>
<polygon fill="#63b8ff" stroke="#63b8ff" points="263.55,-66.5 273.55,-63 263.55,-59.5 263.55,-66.5"/>
</a>
</g>
</g>
<!-- Node5&#45;&gt;Node3 -->
<g id="edge6_Node000005_Node000003" class="edge">
<title>Node5&#45;&gt;Node3</title>
<g id="a_edge6_Node000005_Node000003"><a xlink:title=" ">
<path fill="none" stroke="#63b8ff" d="M230.84,-30.06C243.79,-34.66 258.17,-39.77 271.67,-44.57"/>
<polygon fill="#63b8ff" stroke="#63b8ff" points="270.71,-47.95 281.31,-48 273.06,-41.35 270.71,-47.95"/>
</a>
</g>
</g>
</g>
</svg>
