<?xml version="1.0" encoding="UTF-8" standalone="no"?>
<!DOCTYPE svg PUBLIC "-//W3C//DTD SVG 1.1//EN"
 "http://www.w3.org/Graphics/SVG/1.1/DTD/svg11.dtd">
<!-- Generated by graphviz version 2.43.0 (0)
 -->
<!-- Title: lci::post_get_x::call_impl Pages: 1 -->
<svg width="492pt" height="800pt"
 viewBox="0.00 0.00 492.00 799.50" xmlns="http://www.w3.org/2000/svg" xmlns:xlink="http://www.w3.org/1999/xlink">
<g id="graph0" class="graph" transform="scale(1 1) rotate(0) translate(4 795.5)">
<title>lci::post_get_x::call_impl</title>
<!-- Node1 -->
<g id="Node000001" class="node">
<title>Node1</title>
<g id="a_Node000001"><a xlink:title=" ">
<polygon fill="#999999" stroke="#666666" points="137,-393.5 0,-393.5 0,-374.5 137,-374.5 137,-393.5"/>
<text text-anchor="middle" x="68.5" y="-381.5" font-family="Helvetica,sans-Serif" font-size="10.00">lci::post_get_x::call_impl</text>
</a>
</g>
</g>
<!-- Node2 -->
<g id="Node000002" class="node">
<title>Node2</title>
<g id="a_Node000002"><a xlink:href="../../db/d54/classlci_1_1post__get__x.html#a29495aee6145a53bd30973c7aab3ef4f" target="_top" xlink:title=" ">
<polygon fill="white" stroke="#666666" points="328,-791.5 179,-791.5 179,-772.5 328,-772.5 328,-791.5"/>
<text text-anchor="middle" x="253.5" y="-779.5" font-family="Helvetica,sans-Serif" font-size="10.00">lci::post_get_x::allow_done</text>
</a>
</g>
</g>
<!-- Node1&#45;&gt;Node2 -->
<g id="edge1_Node000001_Node000002" class="edge">
<title>Node1&#45;&gt;Node2</title>
<g id="a_edge1_Node000001_Node000002"><a xlink:title=" ">
<path fill="none" stroke="#63b8ff" d="M70.79,-393.59C78.18,-447.13 116.78,-708.55 173,-763 174.49,-764.44 176.07,-765.78 177.72,-767.03"/>
<polygon fill="#63b8ff" stroke="#63b8ff" points="176.2,-770.2 186.54,-772.49 179.88,-764.25 176.2,-770.2"/>
</a>
</g>
</g>
<!-- Node4 -->
<g id="Node000004" class="node">
<title>Node4</title>
<g id="a_Node000004"><a xlink:href="../../db/d54/classlci_1_1post__get__x.html#aae33e9f61a69952f9e96d79a3a7d07c3" target="_top" xlink:title=" ">
<polygon fill="white" stroke="#666666" points="313,-754 194,-754 194,-724 313,-724 313,-754"/>
<text text-anchor="start" x="202" y="-742" font-family="Helvetica,sans-Serif" font-size="10.00">lci::post_get_x::allow</text>
<text text-anchor="middle" x="253.5" y="-731" font-family="Helvetica,sans-Serif" font-size="10.00">_posted</text>
</a>
</g>
</g>
<!-- Node1&#45;&gt;Node4 -->
<g id="edge3_Node000001_Node000004" class="edge">
<title>Node1&#45;&gt;Node4</title>
<g id="a_edge3_Node000001_Node000004"><a xlink:title=" ">
<path fill="none" stroke="#63b8ff" d="M69.45,-393.77C69.8,-437.85 77.16,-620.11 173,-715 176.47,-718.43 180.41,-721.38 184.63,-723.9"/>
<polygon fill="#63b8ff" stroke="#63b8ff" points="183.16,-727.08 193.65,-728.52 186.35,-720.85 183.16,-727.08"/>
</a>
</g>
</g>
<!-- Node5 -->
<g id="Node000005" class="node">
<title>Node5</title>
<g id="a_Node000005"><a xlink:href="../../db/d54/classlci_1_1post__get__x.html#afa8dc94772275fcea9a20a5c5c890480" target="_top" xlink:title=" ">
<polygon fill="white" stroke="#666666" points="313,-706 194,-706 194,-676 313,-676 313,-706"/>
<text text-anchor="start" x="202" y="-694" font-family="Helvetica,sans-Serif" font-size="10.00">lci::post_get_x::allow</text>
<text text-anchor="middle" x="253.5" y="-683" font-family="Helvetica,sans-Serif" font-size="10.00">_retry</text>
</a>
</g>
</g>
<!-- Node1&#45;&gt;Node5 -->
<g id="edge5_Node000001_Node000005" class="edge">
<title>Node1&#45;&gt;Node5</title>
<g id="a_edge5_Node000001_Node000005"><a xlink:title=" ">
<path fill="none" stroke="#63b8ff" d="M70.04,-393.7C72.81,-433.7 88.74,-587.45 173,-667 176.55,-670.35 180.55,-673.23 184.82,-675.72"/>
<polygon fill="#63b8ff" stroke="#63b8ff" points="183.39,-678.92 193.9,-680.27 186.53,-672.66 183.39,-678.92"/>
</a>
</g>
</g>
<!-- Node6 -->
<g id="Node000006" class="node">
<title>Node6</title>
<g id="a_Node000006"><a xlink:href="../../db/d54/classlci_1_1post__get__x.html#a850f6fec0cedba401af4faa762f65ca7" target="_top" xlink:title=" ">
<polygon fill="white" stroke="#666666" points="317,-657.5 190,-657.5 190,-638.5 317,-638.5 317,-657.5"/>
<text text-anchor="middle" x="253.5" y="-645.5" font-family="Helvetica,sans-Serif" font-size="10.00">lci::post_get_x::buffers</text>
</a>
</g>
</g>
<!-- Node1&#45;&gt;Node6 -->
<g id="edge7_Node000001_Node000006" class="edge">
<title>Node1&#45;&gt;Node6</title>
<g id="a_edge7_Node000001_Node000006"><a xlink:title=" ">
<path fill="none" stroke="#63b8ff" d="M70.46,-393.59C74.68,-430.52 95.06,-564.67 173,-630 175.42,-632.03 178.01,-633.83 180.74,-635.45"/>
<polygon fill="#63b8ff" stroke="#63b8ff" points="179.34,-638.66 189.85,-639.98 182.45,-632.39 179.34,-638.66"/>
</a>
</g>
</g>
<!-- Node7 -->
<g id="Node000007" class="node">
<title>Node7</title>
<g id="a_Node000007"><a xlink:href="../../db/d54/classlci_1_1post__get__x.html#ae5063e804814ece1bcf5720cd9b78b94" target="_top" xlink:title=" ">
<polygon fill="white" stroke="#666666" points="316,-620.5 191,-620.5 191,-601.5 316,-601.5 316,-620.5"/>
<text text-anchor="middle" x="253.5" y="-608.5" font-family="Helvetica,sans-Serif" font-size="10.00">lci::post_get_x::device</text>
</a>
</g>
</g>
<!-- Node1&#45;&gt;Node7 -->
<g id="edge9_Node000001_Node000007" class="edge">
<title>Node1&#45;&gt;Node7</title>
<g id="a_edge9_Node000001_Node000007"><a xlink:title=" ">
<path fill="none" stroke="#63b8ff" d="M71.26,-393.75C77.84,-427.31 104.28,-538.91 173,-593 175.75,-595.17 178.72,-597.08 181.82,-598.78"/>
<polygon fill="#63b8ff" stroke="#63b8ff" points="180.36,-601.96 190.91,-602.98 183.3,-595.6 180.36,-601.96"/>
</a>
</g>
</g>
<!-- Node8 -->
<g id="Node000008" class="node">
<title>Node8</title>
<g id="a_Node000008"><a xlink:href="../../db/d54/classlci_1_1post__get__x.html#ada8d3a7d775a52e72afd83366507af07" target="_top" xlink:title=" ">
<polygon fill="white" stroke="#666666" points="321.5,-583.5 185.5,-583.5 185.5,-564.5 321.5,-564.5 321.5,-583.5"/>
<text text-anchor="middle" x="253.5" y="-571.5" font-family="Helvetica,sans-Serif" font-size="10.00">lci::post_get_x::endpoint</text>
</a>
</g>
</g>
<!-- Node1&#45;&gt;Node8 -->
<g id="edge11_Node000001_Node000008" class="edge">
<title>Node1&#45;&gt;Node8</title>
<g id="a_edge11_Node000001_Node000008"><a xlink:title=" ">
<path fill="none" stroke="#63b8ff" d="M72.36,-393.57C81.59,-422.82 113.58,-511.62 173,-555 175.55,-556.86 178.27,-558.55 181.09,-560.07"/>
<polygon fill="#63b8ff" stroke="#63b8ff" points="179.88,-563.36 190.42,-564.39 182.82,-557.01 179.88,-563.36"/>
</a>
</g>
</g>
<!-- Node9 -->
<g id="Node000009" class="node">
<title>Node9</title>
<g id="a_Node000009"><a xlink:href="../../db/d54/classlci_1_1post__get__x.html#a807f8d570a90508b7fc4913ed305a1b6" target="_top" xlink:title=" ">
<polygon fill="white" stroke="#666666" points="312.5,-546 194.5,-546 194.5,-516 312.5,-516 312.5,-546"/>
<text text-anchor="start" x="202.5" y="-534" font-family="Helvetica,sans-Serif" font-size="10.00">lci::post_get_x::force</text>
<text text-anchor="middle" x="253.5" y="-523" font-family="Helvetica,sans-Serif" font-size="10.00">_zcopy</text>
</a>
</g>
</g>
<!-- Node1&#45;&gt;Node9 -->
<g id="edge13_Node000001_Node000009" class="edge">
<title>Node1&#45;&gt;Node9</title>
<g id="a_edge13_Node000001_Node000009"><a xlink:title=" ">
<path fill="none" stroke="#63b8ff" d="M74.89,-393.63C88.33,-416.76 125.68,-475.85 173,-507 176.76,-509.48 180.78,-511.7 184.95,-513.71"/>
<polygon fill="#63b8ff" stroke="#63b8ff" points="183.7,-516.98 194.27,-517.75 186.49,-510.56 183.7,-516.98"/>
</a>
</g>
</g>
<!-- Node10 -->
<g id="Node000010" class="node">
<title>Node10</title>
<g id="a_Node000010"><a xlink:href="../../db/d54/classlci_1_1post__get__x.html#a9e32fa2a7456e522a28fd65df221313e" target="_top" xlink:title=" ">
<polygon fill="white" stroke="#666666" points="311.5,-498 195.5,-498 195.5,-468 311.5,-468 311.5,-498"/>
<text text-anchor="start" x="203.5" y="-486" font-family="Helvetica,sans-Serif" font-size="10.00">lci::post_get_x::local</text>
<text text-anchor="middle" x="253.5" y="-475" font-family="Helvetica,sans-Serif" font-size="10.00">_buffer</text>
</a>
</g>
</g>
<!-- Node1&#45;&gt;Node10 -->
<g id="edge15_Node000001_Node000010" class="edge">
<title>Node1&#45;&gt;Node10</title>
<g id="a_edge15_Node000001_Node000010"><a xlink:title=" ">
<path fill="none" stroke="#63b8ff" d="M80.19,-393.65C98.14,-409.38 136.02,-440.67 173,-459 177.03,-461 181.26,-462.87 185.59,-464.61"/>
<polygon fill="#63b8ff" stroke="#63b8ff" points="184.56,-467.96 195.15,-468.21 187.03,-461.41 184.56,-467.96"/>
</a>
</g>
</g>
<!-- Node11 -->
<g id="Node000011" class="node">
<title>Node11</title>
<g id="a_Node000011"><a xlink:href="../../db/d54/classlci_1_1post__get__x.html#ae638454abf3d3c1dfa4eb39929f8fb80" target="_top" xlink:title=" ">
<polygon fill="white" stroke="#666666" points="328,-449.5 179,-449.5 179,-430.5 328,-430.5 328,-449.5"/>
<text text-anchor="middle" x="253.5" y="-437.5" font-family="Helvetica,sans-Serif" font-size="10.00">lci::post_get_x::local_comp</text>
</a>
</g>
</g>
<!-- Node1&#45;&gt;Node11 -->
<g id="edge17_Node000001_Node000011" class="edge">
<title>Node1&#45;&gt;Node11</title>
<g id="a_edge17_Node000001_Node000011"><a xlink:title=" ">
<path fill="none" stroke="#63b8ff" d="M93.05,-393.64C113.84,-401.91 145.1,-413.76 173,-422 180.27,-424.15 187.97,-426.18 195.61,-428.06"/>
<polygon fill="#63b8ff" stroke="#63b8ff" points="195.04,-431.52 205.58,-430.43 196.66,-424.71 195.04,-431.52"/>
</a>
</g>
</g>
<!-- Node12 -->
<g id="Node000012" class="node">
<title>Node12</title>
<g id="a_Node000012"><a xlink:href="../../db/d54/classlci_1_1post__get__x.html#a678b29957db320f2f8e7e85d25d38a15" target="_top" xlink:title=" ">
<polygon fill="white" stroke="#666666" points="307,-412.5 200,-412.5 200,-393.5 307,-393.5 307,-412.5"/>
<text text-anchor="middle" x="253.5" y="-400.5" font-family="Helvetica,sans-Serif" font-size="10.00">lci::post_get_x::mr</text>
</a>
</g>
</g>
<!-- Node1&#45;&gt;Node12 -->
<g id="edge19_Node000001_Node000012" class="edge">
<title>Node1&#45;&gt;Node12</title>
<g id="a_edge19_Node000001_Node000012"><a xlink:title=" ">
<path fill="none" stroke="#63b8ff" d="M137.12,-391.02C154.24,-392.8 172.55,-394.7 189.43,-396.45"/>
<polygon fill="#63b8ff" stroke="#63b8ff" points="189.43,-399.97 199.74,-397.52 190.15,-393.01 189.43,-399.97"/>
</a>
</g>
</g>
<!-- Node13 -->
<g id="Node000013" class="node">
<title>Node13</title>
<g id="a_Node000013"><a xlink:href="../../db/d54/classlci_1_1post__get__x.html#ab533de3b7fe1493b65171af6f8cd1fc3" target="_top" xlink:title=" ">
<polygon fill="white" stroke="#666666" points="329.5,-375.5 177.5,-375.5 177.5,-356.5 329.5,-356.5 329.5,-375.5"/>
<text text-anchor="middle" x="253.5" y="-363.5" font-family="Helvetica,sans-Serif" font-size="10.00">lci::post_get_x::packet_pool</text>
</a>
</g>
</g>
<!-- Node1&#45;&gt;Node13 -->
<g id="edge21_Node000001_Node000013" class="edge">
<title>Node1&#45;&gt;Node13</title>
<g id="a_edge21_Node000001_Node000013"><a xlink:title=" ">
<path fill="none" stroke="#63b8ff" d="M137.12,-377.35C146.97,-376.38 157.22,-375.37 167.36,-374.37"/>
<polygon fill="#63b8ff" stroke="#63b8ff" points="167.84,-377.84 177.45,-373.38 167.16,-370.88 167.84,-377.84"/>
</a>
</g>
</g>
<!-- Node14 -->
<g id="Node000014" class="node">
<title>Node14</title>
<g id="a_Node000014"><a xlink:href="../../db/d54/classlci_1_1post__get__x.html#ae00c61e2bc754a0ed46625ca9d44b04e" target="_top" xlink:title=" ">
<polygon fill="white" stroke="#666666" points="311,-338.5 196,-338.5 196,-319.5 311,-319.5 311,-338.5"/>
<text text-anchor="middle" x="253.5" y="-326.5" font-family="Helvetica,sans-Serif" font-size="10.00">lci::post_get_x::rank</text>
</a>
</g>
</g>
<!-- Node1&#45;&gt;Node14 -->
<g id="edge23_Node000001_Node000014" class="edge">
<title>Node1&#45;&gt;Node14</title>
<g id="a_edge23_Node000001_Node000014"><a xlink:title=" ">
<path fill="none" stroke="#63b8ff" d="M94.79,-374.41C115.61,-366.7 145.98,-355.91 173,-348 181.41,-345.54 190.39,-343.16 199.18,-340.97"/>
<polygon fill="#63b8ff" stroke="#63b8ff" points="200.09,-344.35 208.97,-338.57 198.42,-337.55 200.09,-344.35"/>
</a>
</g>
</g>
<!-- Node15 -->
<g id="Node000015" class="node">
<title>Node15</title>
<g id="a_Node000015"><a xlink:href="../../db/d54/classlci_1_1post__get__x.html#a4a5fcb0069be2cc6db139283432e6b10" target="_top" xlink:title=" ">
<polygon fill="white" stroke="#666666" points="319,-301.5 188,-301.5 188,-282.5 319,-282.5 319,-301.5"/>
<text text-anchor="middle" x="253.5" y="-289.5" font-family="Helvetica,sans-Serif" font-size="10.00">lci::post_get_x::rbuffers</text>
</a>
</g>
</g>
<!-- Node1&#45;&gt;Node15 -->
<g id="edge25_Node000001_Node000015" class="edge">
<title>Node1&#45;&gt;Node15</title>
<g id="a_edge25_Node000001_Node000015"><a xlink:title=" ">
<path fill="none" stroke="#63b8ff" d="M80.12,-374.39C97.98,-358.75 135.73,-327.84 173,-311 178.38,-308.57 184.12,-306.42 189.95,-304.54"/>
<polygon fill="#63b8ff" stroke="#63b8ff" points="191.22,-307.81 199.81,-301.6 189.23,-301.1 191.22,-307.81"/>
</a>
</g>
</g>
<!-- Node16 -->
<g id="Node000016" class="node">
<title>Node16</title>
<g id="a_Node000016"><a xlink:href="../../db/d54/classlci_1_1post__get__x.html#ae6450886db2f6ecfb35245d4049edcf1" target="_top" xlink:title=" ">
<polygon fill="white" stroke="#666666" points="317.5,-264 189.5,-264 189.5,-234 317.5,-234 317.5,-264"/>
<text text-anchor="start" x="197.5" y="-252" font-family="Helvetica,sans-Serif" font-size="10.00">lci::post_get_x::remote</text>
<text text-anchor="middle" x="253.5" y="-241" font-family="Helvetica,sans-Serif" font-size="10.00">_buffer</text>
</a>
</g>
</g>
<!-- Node1&#45;&gt;Node16 -->
<g id="edge27_Node000001_Node000016" class="edge">
<title>Node1&#45;&gt;Node16</title>
<g id="a_edge27_Node000001_Node000016"><a xlink:title=" ">
<path fill="none" stroke="#63b8ff" d="M76.03,-374.19C90.77,-352.82 128.8,-301.73 173,-274 176.35,-271.9 179.89,-269.96 183.55,-268.17"/>
<polygon fill="#63b8ff" stroke="#63b8ff" points="185.11,-271.31 192.82,-264.04 182.26,-264.92 185.11,-271.31"/>
</a>
</g>
</g>
<!-- Node17 -->
<g id="Node000017" class="node">
<title>Node17</title>
<g id="a_Node000017"><a xlink:href="../../db/d54/classlci_1_1post__get__x.html#a9fcca224387844ef97c4437af444faec" target="_top" xlink:title=" ">
<polygon fill="white" stroke="#666666" points="334,-215.5 173,-215.5 173,-196.5 334,-196.5 334,-215.5"/>
<text text-anchor="middle" x="253.5" y="-203.5" font-family="Helvetica,sans-Serif" font-size="10.00">lci::post_get_x::remote_comp</text>
</a>
</g>
</g>
<!-- Node1&#45;&gt;Node17 -->
<g id="edge29_Node000001_Node000017" class="edge">
<title>Node1&#45;&gt;Node17</title>
<g id="a_edge29_Node000001_Node000017"><a xlink:title=" ">
<path fill="none" stroke="#63b8ff" d="M72.85,-374.3C83.04,-346.32 116.47,-264.86 173,-225 175.73,-223.08 178.62,-221.35 181.63,-219.79"/>
<polygon fill="#63b8ff" stroke="#63b8ff" points="183.25,-222.9 190.95,-215.63 180.4,-216.51 183.25,-222.9"/>
</a>
</g>
</g>
<!-- Node18 -->
<g id="Node000018" class="node">
<title>Node18</title>
<g id="a_Node000018"><a xlink:href="../../db/d54/classlci_1_1post__get__x.html#acad816eced7d591c9922ccadb99b7be4" target="_top" xlink:title=" ">
<polygon fill="white" stroke="#666666" points="310.5,-178.5 196.5,-178.5 196.5,-159.5 310.5,-159.5 310.5,-178.5"/>
<text text-anchor="middle" x="253.5" y="-166.5" font-family="Helvetica,sans-Serif" font-size="10.00">lci::post_get_x::rkey</text>
</a>
</g>
</g>
<!-- Node1&#45;&gt;Node18 -->
<g id="edge31_Node000001_Node000018" class="edge">
<title>Node1&#45;&gt;Node18</title>
<g id="a_edge31_Node000001_Node000018"><a xlink:title=" ">
<path fill="none" stroke="#63b8ff" d="M71.58,-374.43C79.06,-342.49 107.63,-238.71 173,-188 177.17,-184.77 181.8,-182.07 186.68,-179.83"/>
<polygon fill="#63b8ff" stroke="#63b8ff" points="188.27,-182.96 196.3,-176.04 185.71,-176.45 188.27,-182.96"/>
</a>
</g>
</g>
<!-- Node19 -->
<g id="Node000019" class="node">
<title>Node19</title>
<g id="a_Node000019"><a xlink:href="../../db/d54/classlci_1_1post__get__x.html#ac3b93ca830abcb7bb56e268915fad980" target="_top" xlink:title=" ">
<polygon fill="white" stroke="#666666" points="319,-141.5 188,-141.5 188,-122.5 319,-122.5 319,-141.5"/>
<text text-anchor="middle" x="253.5" y="-129.5" font-family="Helvetica,sans-Serif" font-size="10.00">lci::post_get_x::runtime</text>
</a>
</g>
</g>
<!-- Node1&#45;&gt;Node19 -->
<g id="edge33_Node000001_Node000019" class="edge">
<title>Node1&#45;&gt;Node19</title>
<g id="a_edge33_Node000001_Node000019"><a xlink:title=" ">
<path fill="none" stroke="#63b8ff" d="M70.76,-374.2C75.92,-338.28 98.81,-212.69 173,-151 175,-149.33 177.13,-147.81 179.35,-146.41"/>
<polygon fill="#63b8ff" stroke="#63b8ff" points="181.14,-149.43 188.32,-141.64 177.85,-143.25 181.14,-149.43"/>
</a>
</g>
</g>
<!-- Node20 -->
<g id="Node000020" class="node">
<title>Node20</title>
<g id="a_Node000020"><a xlink:href="../../db/d54/classlci_1_1post__get__x.html#acd5ead27a3560139798f7c39431cbdf4" target="_top" xlink:title=" ">
<polygon fill="white" stroke="#666666" points="310,-104.5 197,-104.5 197,-85.5 310,-85.5 310,-104.5"/>
<text text-anchor="middle" x="253.5" y="-92.5" font-family="Helvetica,sans-Serif" font-size="10.00">lci::post_get_x::size</text>
</a>
</g>
</g>
<!-- Node1&#45;&gt;Node20 -->
<g id="edge35_Node000001_Node000020" class="edge">
<title>Node1&#45;&gt;Node20</title>
<g id="a_edge35_Node000001_Node000020"><a xlink:title=" ">
<path fill="none" stroke="#63b8ff" d="M70.1,-374.34C73.05,-335.21 89.57,-187.13 173,-114 177.27,-110.26 182.14,-107.22 187.33,-104.76"/>
<polygon fill="#63b8ff" stroke="#63b8ff" points="188.95,-107.88 196.95,-100.93 186.36,-101.38 188.95,-107.88"/>
</a>
</g>
</g>
<!-- Node21 -->
<g id="Node000021" class="node">
<title>Node21</title>
<g id="a_Node000021"><a xlink:href="../../db/d54/classlci_1_1post__get__x.html#a2a87093d9d3e41f5fc2da87df7a4db28" target="_top" xlink:title=" ">
<polygon fill="white" stroke="#666666" points="308,-67.5 199,-67.5 199,-48.5 308,-48.5 308,-67.5"/>
<text text-anchor="middle" x="253.5" y="-55.5" font-family="Helvetica,sans-Serif" font-size="10.00">lci::post_get_x::tag</text>
</a>
</g>
</g>
<!-- Node1&#45;&gt;Node21 -->
<g id="edge37_Node000001_Node000021" class="edge">
<title>Node1&#45;&gt;Node21</title>
<g id="a_edge37_Node000001_Node000021"><a xlink:title=" ">
<path fill="none" stroke="#63b8ff" d="M69.6,-374.23C70.59,-331.76 80.38,-161.59 173,-77 177.74,-72.67 183.3,-69.27 189.23,-66.62"/>
<polygon fill="#63b8ff" stroke="#63b8ff" points="190.65,-69.82 198.79,-63.03 188.19,-63.27 190.65,-69.82"/>
</a>
</g>
</g>
<!-- Node22 -->
<g id="Node000022" class="node">
<title>Node22</title>
<g id="a_Node000022"><a xlink:href="../../db/d54/classlci_1_1post__get__x.html#ae8ab8b05f92e3637b69c694780a1f02e" target="_top" xlink:title=" ">
<polygon fill="white" stroke="#666666" points="310.5,-30 196.5,-30 196.5,0 310.5,0 310.5,-30"/>
<text text-anchor="start" x="204.5" y="-18" font-family="Helvetica,sans-Serif" font-size="10.00">lci::post_get_x::user</text>
<text text-anchor="middle" x="253.5" y="-7" font-family="Helvetica,sans-Serif" font-size="10.00">_context</text>
</a>
</g>
</g>
<!-- Node1&#45;&gt;Node22 -->
<g id="edge39_Node000001_Node000022" class="edge">
<title>Node1&#45;&gt;Node22</title>
<g id="a_edge39_Node000001_Node000022"><a xlink:title=" ">
<path fill="none" stroke="#63b8ff" d="M69.35,-374.48C69.17,-329.91 74.39,-139.84 173,-40 177.17,-35.78 182.04,-32.27 187.28,-29.35"/>
<polygon fill="#63b8ff" stroke="#63b8ff" points="188.9,-32.46 196.4,-24.98 185.87,-26.15 188.9,-32.46"/>
</a>
</g>
</g>
<!-- Node3 -->
<g id="Node000003" class="node">
<title>Node3</title>
<g id="a_Node000003"><a xlink:href="../../db/d54/classlci_1_1post__get__x.html#a813aa3fd414beebf202d0debfc90c988" target="_top" xlink:title=" ">
<polygon fill="white" stroke="#666666" points="484,-399 370,-399 370,-369 484,-369 484,-399"/>
<text text-anchor="start" x="378" y="-387" font-family="Helvetica,sans-Serif" font-size="10.00">lci::post_get_x::post</text>
<text text-anchor="middle" x="427" y="-376" font-family="Helvetica,sans-Serif" font-size="10.00">_get_x</text>
</a>
</g>
</g>
<!-- Node2&#45;&gt;Node3 -->
<g id="edge2_Node000002_Node000003" class="edge">
<title>Node2&#45;&gt;Node3</title>
<g id="a_edge2_Node000002_Node000003"><a xlink:title=" ">
<path fill="none" stroke="#63b8ff" d="M320.96,-772.41C325.74,-769.9 330.18,-766.81 334,-763 384.86,-712.32 414.59,-485.52 423.3,-409.17"/>
<polygon fill="#63b8ff" stroke="#63b8ff" points="426.8,-409.37 424.43,-399.04 419.84,-408.59 426.8,-409.37"/>
</a>
</g>
</g>
<!-- Node4&#45;&gt;Node3 -->
<g id="edge4_Node000004_Node000003" class="edge">
<title>Node4&#45;&gt;Node3</title>
<g id="a_edge4_Node000004_Node000003"><a xlink:title=" ">
<path fill="none" stroke="#63b8ff" d="M313.11,-728.87C320.87,-725.48 328.15,-720.98 334,-715 418.61,-628.5 426.9,-471.23 426.69,-409.67"/>
<polygon fill="#63b8ff" stroke="#63b8ff" points="430.19,-409.29 426.57,-399.33 423.19,-409.37 430.19,-409.29"/>
</a>
</g>
</g>
<!-- Node5&#45;&gt;Node3 -->
<g id="edge6_Node000005_Node000003" class="edge">
<title>Node5&#45;&gt;Node3</title>
<g id="a_edge6_Node000005_Node000003"><a xlink:title=" ">
<path fill="none" stroke="#63b8ff" d="M313.29,-680.46C320.93,-677.13 328.13,-672.75 334,-667 407.39,-595.15 422.28,-464.22 425.26,-409.31"/>
<polygon fill="#63b8ff" stroke="#63b8ff" points="428.77,-409.23 425.73,-399.08 421.78,-408.91 428.77,-409.23"/>
</a>
</g>
</g>
<!-- Node6&#45;&gt;Node3 -->
<g id="edge8_Node000006_Node000003" class="edge">
<title>Node6&#45;&gt;Node3</title>
<g id="a_edge8_Node000006_Node000003"><a xlink:title=" ">
<path fill="none" stroke="#63b8ff" d="M317.32,-640.18C323.39,-637.61 329.1,-634.28 334,-630 401.04,-571.47 419.33,-459.19 424.24,-409.15"/>
<polygon fill="#63b8ff" stroke="#63b8ff" points="427.73,-409.45 425.12,-399.18 420.75,-408.84 427.73,-409.45"/>
</a>
</g>
</g>
<!-- Node7&#45;&gt;Node3 -->
<g id="edge10_Node000007_Node000003" class="edge">
<title>Node7&#45;&gt;Node3</title>
<g id="a_edge10_Node000007_Node000003"><a xlink:title=" ">
<path fill="none" stroke="#63b8ff" d="M316.28,-603.22C322.69,-600.65 328.76,-597.32 334,-593 392.08,-545.13 414.61,-453.32 422.38,-409.07"/>
<polygon fill="#63b8ff" stroke="#63b8ff" points="425.84,-409.58 424.01,-399.14 418.93,-408.44 425.84,-409.58"/>
</a>
</g>
</g>
<!-- Node8&#45;&gt;Node3 -->
<g id="edge12_Node000008_Node000003" class="edge">
<title>Node8&#45;&gt;Node3</title>
<g id="a_edge12_Node000008_Node000003"><a xlink:title=" ">
<path fill="none" stroke="#63b8ff" d="M317.18,-564.49C323.2,-562.01 328.94,-558.89 334,-555 382.84,-517.41 408.84,-446.31 419.72,-408.72"/>
<polygon fill="#63b8ff" stroke="#63b8ff" points="423.1,-409.64 422.39,-399.07 416.35,-407.77 423.1,-409.64"/>
</a>
</g>
</g>
<!-- Node9&#45;&gt;Node3 -->
<g id="edge14_Node000009_Node000003" class="edge">
<title>Node9&#45;&gt;Node3</title>
<g id="a_edge14_Node000009_Node000003"><a xlink:title=" ">
<path fill="none" stroke="#63b8ff" d="M312.56,-518.26C320.13,-515.25 327.5,-511.55 334,-507 370.73,-481.28 398.91,-436.27 413.92,-408.42"/>
<polygon fill="#63b8ff" stroke="#63b8ff" points="417.13,-409.82 418.67,-399.34 410.93,-406.57 417.13,-409.82"/>
</a>
</g>
</g>
<!-- Node10&#45;&gt;Node3 -->
<g id="edge16_Node000010_Node000003" class="edge">
<title>Node10&#45;&gt;Node3</title>
<g id="a_edge16_Node000010_Node000003"><a xlink:title=" ">
<path fill="none" stroke="#63b8ff" d="M311.62,-468.73C319.34,-465.95 327,-462.72 334,-459 360.35,-444.99 386.33,-422.83 403.93,-406.22"/>
<polygon fill="#63b8ff" stroke="#63b8ff" points="406.62,-408.49 411.39,-399.03 401.76,-403.45 406.62,-408.49"/>
</a>
</g>
</g>
<!-- Node11&#45;&gt;Node3 -->
<g id="edge18_Node000011_Node000003" class="edge">
<title>Node11&#45;&gt;Node3</title>
<g id="a_edge18_Node000011_Node000003"><a xlink:title=" ">
<path fill="none" stroke="#63b8ff" d="M302.78,-430.44C313.16,-428.01 324.02,-425.17 334,-422 350.64,-416.72 368.48,-409.69 383.97,-403.11"/>
<polygon fill="#63b8ff" stroke="#63b8ff" points="385.49,-406.27 393.29,-399.1 382.72,-399.84 385.49,-406.27"/>
</a>
</g>
</g>
<!-- Node12&#45;&gt;Node3 -->
<g id="edge20_Node000012_Node000003" class="edge">
<title>Node12&#45;&gt;Node3</title>
<g id="a_edge20_Node000012_Node000003"><a xlink:title=" ">
<path fill="none" stroke="#63b8ff" d="M307.36,-397.14C323.89,-395.31 342.35,-393.27 359.69,-391.35"/>
<polygon fill="#63b8ff" stroke="#63b8ff" points="360.2,-394.81 369.75,-390.23 359.43,-387.85 360.2,-394.81"/>
</a>
</g>
</g>
<!-- Node13&#45;&gt;Node3 -->
<g id="edge22_Node000013_Node000003" class="edge">
<title>Node13&#45;&gt;Node3</title>
<g id="a_edge22_Node000013_Node000003"><a xlink:title=" ">
<path fill="none" stroke="#63b8ff" d="M329.72,-373.9C339.74,-374.95 349.96,-376.02 359.81,-377.05"/>
<polygon fill="#63b8ff" stroke="#63b8ff" points="359.61,-380.55 369.92,-378.11 360.34,-373.59 359.61,-380.55"/>
</a>
</g>
</g>
<!-- Node14&#45;&gt;Node3 -->
<g id="edge24_Node000014_Node000003" class="edge">
<title>Node14&#45;&gt;Node3</title>
<g id="a_edge24_Node000014_Node000003"><a xlink:title=" ">
<path fill="none" stroke="#63b8ff" d="M299.37,-338.58C310.75,-341.32 322.9,-344.52 334,-348 349.71,-352.92 366.57,-359.22 381.51,-365.16"/>
<polygon fill="#63b8ff" stroke="#63b8ff" points="380.44,-368.5 391.02,-368.99 383.06,-362.01 380.44,-368.5"/>
</a>
</g>
</g>
<!-- Node15&#45;&gt;Node3 -->
<g id="edge26_Node000015_Node000003" class="edge">
<title>Node15&#45;&gt;Node3</title>
<g id="a_edge26_Node000015_Node000003"><a xlink:title=" ">
<path fill="none" stroke="#63b8ff" d="M308.64,-301.57C317.35,-304.05 326.09,-307.15 334,-311 360.4,-323.84 386.2,-345.32 403.72,-361.67"/>
<polygon fill="#63b8ff" stroke="#63b8ff" points="401.52,-364.4 411.17,-368.77 406.35,-359.33 401.52,-364.4"/>
</a>
</g>
</g>
<!-- Node16&#45;&gt;Node3 -->
<g id="edge28_Node000016_Node000003" class="edge">
<title>Node16&#45;&gt;Node3</title>
<g id="a_edge28_Node000016_Node000003"><a xlink:title=" ">
<path fill="none" stroke="#63b8ff" d="M315.23,-264.05C321.82,-266.85 328.23,-270.14 334,-274 367.91,-296.68 396.11,-335.4 412.01,-360.33"/>
<polygon fill="#63b8ff" stroke="#63b8ff" points="409.04,-362.19 417.3,-368.83 414.99,-358.49 409.04,-362.19"/>
</a>
</g>
</g>
<!-- Node17&#45;&gt;Node3 -->
<g id="edge30_Node000017_Node000003" class="edge">
<title>Node17&#45;&gt;Node3</title>
<g id="a_edge30_Node000017_Node000003"><a xlink:title=" ">
<path fill="none" stroke="#63b8ff" d="M316.66,-215.51C322.85,-217.99 328.77,-221.1 334,-225 379.85,-259.17 406.61,-323.47 418.52,-358.94"/>
<polygon fill="#63b8ff" stroke="#63b8ff" points="415.22,-360.1 421.62,-368.54 421.88,-357.95 415.22,-360.1"/>
</a>
</g>
</g>
<!-- Node18&#45;&gt;Node3 -->
<g id="edge32_Node000018_Node000003" class="edge">
<title>Node18&#45;&gt;Node3</title>
<g id="a_edge32_Node000018_Node000003"><a xlink:title=" ">
<path fill="none" stroke="#63b8ff" d="M310.51,-175.63C319,-178.47 327.18,-182.45 334,-188 388.57,-232.43 412.53,-316.69 421.46,-358.77"/>
<polygon fill="#63b8ff" stroke="#63b8ff" points="418.06,-359.63 423.46,-368.74 424.93,-358.25 418.06,-359.63"/>
</a>
</g>
</g>
<!-- Node19&#45;&gt;Node3 -->
<g id="edge34_Node000019_Node000003" class="edge">
<title>Node19&#45;&gt;Node3</title>
<g id="a_edge34_Node000019_Node000003"><a xlink:title=" ">
<path fill="none" stroke="#63b8ff" d="M319.24,-141.63C324.58,-144.11 329.61,-147.19 334,-151 397.39,-206 417.49,-310.47 423.54,-358.58"/>
<polygon fill="#63b8ff" stroke="#63b8ff" points="420.09,-359.22 424.72,-368.75 427.05,-358.41 420.09,-359.22"/>
</a>
</g>
</g>
<!-- Node20&#45;&gt;Node3 -->
<g id="edge36_Node000020_Node000003" class="edge">
<title>Node20&#45;&gt;Node3</title>
<g id="a_edge36_Node000020_Node000003"><a xlink:title=" ">
<path fill="none" stroke="#63b8ff" d="M310.24,-100.71C318.96,-103.64 327.28,-107.89 334,-114 406.46,-179.96 421.87,-305.26 425.13,-358.76"/>
<polygon fill="#63b8ff" stroke="#63b8ff" points="421.64,-358.95 425.65,-368.75 428.63,-358.59 421.64,-358.95"/>
</a>
</g>
</g>
<!-- Node21&#45;&gt;Node3 -->
<g id="edge38_Node000021_Node000003" class="edge">
<title>Node21&#45;&gt;Node3</title>
<g id="a_edge38_Node000021_Node000003"><a xlink:title=" ">
<path fill="none" stroke="#63b8ff" d="M308.39,-62.84C317.83,-65.79 326.88,-70.27 334,-77 415.49,-154.01 425.7,-300 426.35,-358.66"/>
<polygon fill="#63b8ff" stroke="#63b8ff" points="422.85,-358.88 426.37,-368.87 429.85,-358.87 422.85,-358.88"/>
</a>
</g>
</g>
<!-- Node22&#45;&gt;Node3 -->
<g id="edge40_Node000022_Node000003" class="edge">
<title>Node22&#45;&gt;Node3</title>
<g id="a_edge40_Node000022_Node000003"><a xlink:title=" ">
<path fill="none" stroke="#63b8ff" d="M310.77,-24.81C319.42,-28.41 327.6,-33.31 334,-40 378.75,-86.73 411.82,-286.99 422.4,-358.5"/>
<polygon fill="#63b8ff" stroke="#63b8ff" points="419,-359.44 423.9,-368.83 425.93,-358.43 419,-359.44"/>
</a>
</g>
</g>
</g>
</svg>
