<?xml version="1.0" encoding="UTF-8" standalone="no"?>
<!DOCTYPE svg PUBLIC "-//W3C//DTD SVG 1.1//EN"
 "http://www.w3.org/Graphics/SVG/1.1/DTD/svg11.dtd">
<!-- Generated by graphviz version 2.43.0 (0)
 -->
<!-- Title: lci::post_get_x::operator() Pages: 1 -->
<svg width="816pt" height="792pt"
 viewBox="0.00 0.00 816.00 792.42" xmlns="http://www.w3.org/2000/svg" xmlns:xlink="http://www.w3.org/1999/xlink">
<g id="graph0" class="graph" transform="scale(1 1) rotate(0) translate(4 788.42)">
<title>lci::post_get_x::operator()</title>
<!-- Node1 -->
<g id="Node000001" class="node">
<title>Node1</title>
<g id="a_Node000001"><a xlink:title=" ">
<polygon fill="#999999" stroke="#666666" points="142,-405.42 0,-405.42 0,-386.42 142,-386.42 142,-405.42"/>
<text text-anchor="middle" x="71" y="-393.42" font-family="Helvetica,sans-Serif" font-size="10.00">lci::post_get_x::operator()</text>
</a>
</g>
</g>
<!-- Node2 -->
<g id="Node000002" class="node">
<title>Node2</title>
<g id="a_Node000002"><a xlink:href="../../db/d54/classlci_1_1post__get__x.html#adadc688f0e9e014ac2f0d2a49ab89ce7" target="_top" xlink:title=" ">
<polygon fill="white" stroke="#666666" points="288,-405.42 178,-405.42 178,-386.42 288,-386.42 288,-405.42"/>
<text text-anchor="middle" x="233" y="-393.42" font-family="Helvetica,sans-Serif" font-size="10.00">lci::post_get_x::call</text>
</a>
</g>
</g>
<!-- Node1&#45;&gt;Node2 -->
<g id="edge1_Node000001_Node000002" class="edge">
<title>Node1&#45;&gt;Node2</title>
<g id="a_edge1_Node000001_Node000002"><a xlink:title=" ">
<path fill="none" stroke="#63b8ff" d="M142.18,-395.92C150.65,-395.92 159.28,-395.92 167.67,-395.92"/>
<polygon fill="#63b8ff" stroke="#63b8ff" points="167.75,-399.42 177.75,-395.92 167.75,-392.42 167.75,-399.42"/>
</a>
</g>
</g>
<!-- Node3 -->
<g id="Node000003" class="node">
<title>Node3</title>
<g id="a_Node000003"><a xlink:href="../../db/d54/classlci_1_1post__get__x.html#a29495aee6145a53bd30973c7aab3ef4f" target="_top" xlink:title=" ">
<polygon fill="white" stroke="#666666" points="652,-784.42 503,-784.42 503,-765.42 652,-765.42 652,-784.42"/>
<text text-anchor="middle" x="577.5" y="-772.42" font-family="Helvetica,sans-Serif" font-size="10.00">lci::post_get_x::allow_done</text>
</a>
</g>
</g>
<!-- Node2&#45;&gt;Node3 -->
<g id="edge2_Node000002_Node000003" class="edge">
<title>Node2&#45;&gt;Node3</title>
<g id="a_edge2_Node000002_Node000003"><a xlink:title=" ">
<path fill="none" stroke="#63b8ff" d="M233.65,-405.44C232.66,-447.61 234.45,-619.28 324,-707.92 368.3,-751.78 437.82,-767.85 492.7,-773.34"/>
<polygon fill="#63b8ff" stroke="#63b8ff" points="492.5,-776.83 502.77,-774.24 493.13,-769.86 492.5,-776.83"/>
</a>
</g>
</g>
<!-- Node5 -->
<g id="Node000005" class="node">
<title>Node5</title>
<g id="a_Node000005"><a xlink:href="../../db/d54/classlci_1_1post__get__x.html#aae33e9f61a69952f9e96d79a3a7d07c3" target="_top" xlink:title=" ">
<polygon fill="white" stroke="#666666" points="637,-746.92 518,-746.92 518,-716.92 637,-716.92 637,-746.92"/>
<text text-anchor="start" x="526" y="-734.92" font-family="Helvetica,sans-Serif" font-size="10.00">lci::post_get_x::allow</text>
<text text-anchor="middle" x="577.5" y="-723.92" font-family="Helvetica,sans-Serif" font-size="10.00">_posted</text>
</a>
</g>
</g>
<!-- Node2&#45;&gt;Node5 -->
<g id="edge4_Node000002_Node000005" class="edge">
<title>Node2&#45;&gt;Node5</title>
<g id="a_edge4_Node000002_Node000005"><a xlink:title=" ">
<path fill="none" stroke="#63b8ff" d="M234.14,-405.46C235.23,-444.08 244.64,-590.45 324,-664.92 373.5,-711.38 451.44,-726.41 507.64,-730.89"/>
<polygon fill="#63b8ff" stroke="#63b8ff" points="507.65,-734.4 517.87,-731.61 508.14,-727.42 507.65,-734.4"/>
</a>
</g>
</g>
<!-- Node6 -->
<g id="Node000006" class="node">
<title>Node6</title>
<g id="a_Node000006"><a xlink:href="../../db/d54/classlci_1_1post__get__x.html#afa8dc94772275fcea9a20a5c5c890480" target="_top" xlink:title=" ">
<polygon fill="white" stroke="#666666" points="637,-698.92 518,-698.92 518,-668.92 637,-668.92 637,-698.92"/>
<text text-anchor="start" x="526" y="-686.92" font-family="Helvetica,sans-Serif" font-size="10.00">lci::post_get_x::allow</text>
<text text-anchor="middle" x="577.5" y="-675.92" font-family="Helvetica,sans-Serif" font-size="10.00">_retry</text>
</a>
</g>
</g>
<!-- Node2&#45;&gt;Node6 -->
<g id="edge6_Node000002_Node000006" class="edge">
<title>Node2&#45;&gt;Node6</title>
<g id="a_edge6_Node000002_Node000006"><a xlink:title=" ">
<path fill="none" stroke="#63b8ff" d="M234.73,-405.49C237.92,-440.55 253.89,-563.16 324,-623.92 374.73,-667.88 451.92,-681 507.61,-684.28"/>
<polygon fill="#63b8ff" stroke="#63b8ff" points="507.58,-687.78 517.74,-684.78 507.93,-680.79 507.58,-687.78"/>
</a>
</g>
</g>
<!-- Node7 -->
<g id="Node000007" class="node">
<title>Node7</title>
<g id="a_Node000007"><a xlink:href="../../db/d54/classlci_1_1post__get__x.html#a850f6fec0cedba401af4faa762f65ca7" target="_top" xlink:title=" ">
<polygon fill="white" stroke="#666666" points="641,-650.42 514,-650.42 514,-631.42 641,-631.42 641,-650.42"/>
<text text-anchor="middle" x="577.5" y="-638.42" font-family="Helvetica,sans-Serif" font-size="10.00">lci::post_get_x::buffers</text>
</a>
</g>
</g>
<!-- Node2&#45;&gt;Node7 -->
<g id="edge8_Node000002_Node000007" class="edge">
<title>Node2&#45;&gt;Node7</title>
<g id="a_edge8_Node000002_Node000007"><a xlink:title=" ">
<path fill="none" stroke="#63b8ff" d="M235.58,-405.54C241.24,-436.71 263.45,-535.64 324,-583.92 374.94,-624.54 449.16,-637.44 503.96,-640.98"/>
<polygon fill="#63b8ff" stroke="#63b8ff" points="503.78,-644.47 513.96,-641.54 504.17,-637.48 503.78,-644.47"/>
</a>
</g>
</g>
<!-- Node8 -->
<g id="Node000008" class="node">
<title>Node8</title>
<g id="a_Node000008"><a xlink:href="../../db/d54/classlci_1_1post__get__x.html#aa2ef562fc6f5a9f490bfc6fa3c0d7e66" target="_top" xlink:title=" ">
<polygon fill="white" stroke="#666666" points="461,-405.42 324,-405.42 324,-386.42 461,-386.42 461,-405.42"/>
<text text-anchor="middle" x="392.5" y="-393.42" font-family="Helvetica,sans-Serif" font-size="10.00">lci::post_get_x::call_impl</text>
</a>
</g>
</g>
<!-- Node2&#45;&gt;Node8 -->
<g id="edge10_Node000002_Node000008" class="edge">
<title>Node2&#45;&gt;Node8</title>
<g id="a_edge10_Node000002_Node000008"><a xlink:title=" ">
<path fill="none" stroke="#63b8ff" d="M288.2,-395.92C296.45,-395.92 305.1,-395.92 313.74,-395.92"/>
<polygon fill="#63b8ff" stroke="#63b8ff" points="313.84,-399.42 323.84,-395.92 313.84,-392.42 313.84,-399.42"/>
</a>
</g>
</g>
<!-- Node9 -->
<g id="Node000009" class="node">
<title>Node9</title>
<g id="a_Node000009"><a xlink:href="../../db/d54/classlci_1_1post__get__x.html#ae5063e804814ece1bcf5720cd9b78b94" target="_top" xlink:title=" ">
<polygon fill="white" stroke="#666666" points="640,-613.42 515,-613.42 515,-594.42 640,-594.42 640,-613.42"/>
<text text-anchor="middle" x="577.5" y="-601.42" font-family="Helvetica,sans-Serif" font-size="10.00">lci::post_get_x::device</text>
</a>
</g>
</g>
<!-- Node2&#45;&gt;Node9 -->
<g id="edge47_Node000002_Node000009" class="edge">
<title>Node2&#45;&gt;Node9</title>
<g id="a_edge47_Node000002_Node000009"><a xlink:title=" ">
<path fill="none" stroke="#63b8ff" d="M236.95,-405.77C245.54,-432.67 273.21,-507.89 324,-544.92 376.62,-583.3 450.41,-597.14 504.64,-601.92"/>
<polygon fill="#63b8ff" stroke="#63b8ff" points="504.62,-605.43 514.87,-602.74 505.18,-598.46 504.62,-605.43"/>
</a>
</g>
</g>
<!-- Node10 -->
<g id="Node000010" class="node">
<title>Node10</title>
<g id="a_Node000010"><a xlink:href="../../db/d54/classlci_1_1post__get__x.html#ada8d3a7d775a52e72afd83366507af07" target="_top" xlink:title=" ">
<polygon fill="white" stroke="#666666" points="645.5,-576.42 509.5,-576.42 509.5,-557.42 645.5,-557.42 645.5,-576.42"/>
<text text-anchor="middle" x="577.5" y="-564.42" font-family="Helvetica,sans-Serif" font-size="10.00">lci::post_get_x::endpoint</text>
</a>
</g>
</g>
<!-- Node2&#45;&gt;Node10 -->
<g id="edge48_Node000002_Node000010" class="edge">
<title>Node2&#45;&gt;Node10</title>
<g id="a_edge48_Node000002_Node000010"><a xlink:title=" ">
<path fill="none" stroke="#63b8ff" d="M238.8,-405.51C250.28,-427.4 281.57,-481.22 324,-507.92 376.88,-541.2 446.65,-555.74 499.45,-562.07"/>
<polygon fill="#63b8ff" stroke="#63b8ff" points="499.11,-565.56 509.43,-563.2 499.89,-558.6 499.11,-565.56"/>
</a>
</g>
</g>
<!-- Node11 -->
<g id="Node000011" class="node">
<title>Node11</title>
<g id="a_Node000011"><a xlink:href="../../db/d54/classlci_1_1post__get__x.html#a807f8d570a90508b7fc4913ed305a1b6" target="_top" xlink:title=" ">
<polygon fill="white" stroke="#666666" points="636.5,-538.92 518.5,-538.92 518.5,-508.92 636.5,-508.92 636.5,-538.92"/>
<text text-anchor="start" x="526.5" y="-526.92" font-family="Helvetica,sans-Serif" font-size="10.00">lci::post_get_x::force</text>
<text text-anchor="middle" x="577.5" y="-515.92" font-family="Helvetica,sans-Serif" font-size="10.00">_zcopy</text>
</a>
</g>
</g>
<!-- Node2&#45;&gt;Node11 -->
<g id="edge49_Node000002_Node000011" class="edge">
<title>Node2&#45;&gt;Node11</title>
<g id="a_edge49_Node000002_Node000011"><a xlink:title=" ">
<path fill="none" stroke="#63b8ff" d="M241.79,-405.5C256.14,-422.44 288.53,-457.53 324,-474.92 382.16,-503.45 455.5,-515.38 508.13,-520.37"/>
<polygon fill="#63b8ff" stroke="#63b8ff" points="508.1,-523.88 518.36,-521.27 508.71,-516.9 508.1,-523.88"/>
</a>
</g>
</g>
<!-- Node12 -->
<g id="Node000012" class="node">
<title>Node12</title>
<g id="a_Node000012"><a xlink:href="../../db/d54/classlci_1_1post__get__x.html#a9e32fa2a7456e522a28fd65df221313e" target="_top" xlink:title=" ">
<polygon fill="white" stroke="#666666" points="635.5,-490.92 519.5,-490.92 519.5,-460.92 635.5,-460.92 635.5,-490.92"/>
<text text-anchor="start" x="527.5" y="-478.92" font-family="Helvetica,sans-Serif" font-size="10.00">lci::post_get_x::local</text>
<text text-anchor="middle" x="577.5" y="-467.92" font-family="Helvetica,sans-Serif" font-size="10.00">_buffer</text>
</a>
</g>
</g>
<!-- Node2&#45;&gt;Node12 -->
<g id="edge50_Node000002_Node000012" class="edge">
<title>Node2&#45;&gt;Node12</title>
<g id="a_edge50_Node000002_Node000012"><a xlink:title=" ">
<path fill="none" stroke="#63b8ff" d="M246.28,-405.49C262.88,-417.85 293.87,-438.96 324,-448.92 384.63,-468.97 457.48,-474.98 509.32,-476.41"/>
<polygon fill="#63b8ff" stroke="#63b8ff" points="509.32,-479.91 519.39,-476.64 509.48,-472.91 509.32,-479.91"/>
</a>
</g>
</g>
<!-- Node13 -->
<g id="Node000013" class="node">
<title>Node13</title>
<g id="a_Node000013"><a xlink:href="../../db/d54/classlci_1_1post__get__x.html#ae638454abf3d3c1dfa4eb39929f8fb80" target="_top" xlink:title=" ">
<polygon fill="white" stroke="#666666" points="652,-442.42 503,-442.42 503,-423.42 652,-423.42 652,-442.42"/>
<text text-anchor="middle" x="577.5" y="-430.42" font-family="Helvetica,sans-Serif" font-size="10.00">lci::post_get_x::local_comp</text>
</a>
</g>
</g>
<!-- Node2&#45;&gt;Node13 -->
<g id="edge51_Node000002_Node000013" class="edge">
<title>Node2&#45;&gt;Node13</title>
<g id="a_edge51_Node000002_Node000013"><a xlink:title=" ">
<path fill="none" stroke="#63b8ff" d="M252.71,-405.52C270.51,-414.08 298.31,-426 324,-430.92 379.59,-441.58 443.33,-441.99 492.86,-439.79"/>
<polygon fill="#63b8ff" stroke="#63b8ff" points="493.07,-443.28 502.89,-439.3 492.73,-436.29 493.07,-443.28"/>
</a>
</g>
</g>
<!-- Node14 -->
<g id="Node000014" class="node">
<title>Node14</title>
<g id="a_Node000014"><a xlink:href="../../db/d54/classlci_1_1post__get__x.html#a678b29957db320f2f8e7e85d25d38a15" target="_top" xlink:title=" ">
<polygon fill="white" stroke="#666666" points="631,-405.42 524,-405.42 524,-386.42 631,-386.42 631,-405.42"/>
<text text-anchor="middle" x="577.5" y="-393.42" font-family="Helvetica,sans-Serif" font-size="10.00">lci::post_get_x::mr</text>
</a>
</g>
</g>
<!-- Node2&#45;&gt;Node14 -->
<g id="edge52_Node000002_Node000014" class="edge">
<title>Node2&#45;&gt;Node14</title>
<g id="a_edge52_Node000002_Node000014"><a xlink:title=" ">
<path fill="none" stroke="#63b8ff" d="M270.51,-405.43C286.76,-409.2 306.21,-413.06 324,-414.92 384.56,-421.24 400.31,-419.88 461,-414.92 480.14,-413.36 500.89,-410.36 519.45,-407.2"/>
<polygon fill="#63b8ff" stroke="#63b8ff" points="520.27,-410.61 529.51,-405.43 519.06,-403.71 520.27,-410.61"/>
</a>
</g>
</g>
<!-- Node15 -->
<g id="Node000015" class="node">
<title>Node15</title>
<g id="a_Node000015"><a xlink:href="../../db/d54/classlci_1_1post__get__x.html#ab533de3b7fe1493b65171af6f8cd1fc3" target="_top" xlink:title=" ">
<polygon fill="white" stroke="#666666" points="653.5,-368.42 501.5,-368.42 501.5,-349.42 653.5,-349.42 653.5,-368.42"/>
<text text-anchor="middle" x="577.5" y="-356.42" font-family="Helvetica,sans-Serif" font-size="10.00">lci::post_get_x::packet_pool</text>
</a>
</g>
</g>
<!-- Node2&#45;&gt;Node15 -->
<g id="edge53_Node000002_Node000015" class="edge">
<title>Node2&#45;&gt;Node15</title>
<g id="a_edge53_Node000002_Node000015"><a xlink:title=" ">
<path fill="none" stroke="#63b8ff" d="M276.4,-386.33C291.37,-383.24 308.37,-380.06 324,-377.92 379.4,-370.33 442.09,-365.59 491.14,-362.74"/>
<polygon fill="#63b8ff" stroke="#63b8ff" points="491.61,-366.22 501.39,-362.16 491.21,-359.23 491.61,-366.22"/>
</a>
</g>
</g>
<!-- Node16 -->
<g id="Node000016" class="node">
<title>Node16</title>
<g id="a_Node000016"><a xlink:href="../../db/d54/classlci_1_1post__get__x.html#ae00c61e2bc754a0ed46625ca9d44b04e" target="_top" xlink:title=" ">
<polygon fill="white" stroke="#666666" points="635,-331.42 520,-331.42 520,-312.42 635,-312.42 635,-331.42"/>
<text text-anchor="middle" x="577.5" y="-319.42" font-family="Helvetica,sans-Serif" font-size="10.00">lci::post_get_x::rank</text>
</a>
</g>
</g>
<!-- Node2&#45;&gt;Node16 -->
<g id="edge54_Node000002_Node000016" class="edge">
<title>Node2&#45;&gt;Node16</title>
<g id="a_edge54_Node000002_Node000016"><a xlink:title=" ">
<path fill="none" stroke="#63b8ff" d="M254.66,-386.4C272.63,-378.48 299.55,-367.48 324,-360.92 385.95,-344.3 458.48,-334.02 509.87,-328.21"/>
<polygon fill="#63b8ff" stroke="#63b8ff" points="510.31,-331.68 519.86,-327.11 509.54,-324.72 510.31,-331.68"/>
</a>
</g>
</g>
<!-- Node17 -->
<g id="Node000017" class="node">
<title>Node17</title>
<g id="a_Node000017"><a xlink:href="../../db/d54/classlci_1_1post__get__x.html#a4a5fcb0069be2cc6db139283432e6b10" target="_top" xlink:title=" ">
<polygon fill="white" stroke="#666666" points="643,-294.42 512,-294.42 512,-275.42 643,-275.42 643,-294.42"/>
<text text-anchor="middle" x="577.5" y="-282.42" font-family="Helvetica,sans-Serif" font-size="10.00">lci::post_get_x::rbuffers</text>
</a>
</g>
</g>
<!-- Node2&#45;&gt;Node17 -->
<g id="edge55_Node000002_Node000017" class="edge">
<title>Node2&#45;&gt;Node17</title>
<g id="a_edge55_Node000002_Node000017"><a xlink:title=" ">
<path fill="none" stroke="#63b8ff" d="M243.83,-386.29C259.42,-371.61 291.4,-343.88 324,-329.92 380.79,-305.6 450.2,-294.43 501.86,-289.29"/>
<polygon fill="#63b8ff" stroke="#63b8ff" points="502.32,-292.76 511.95,-288.34 501.66,-285.79 502.32,-292.76"/>
</a>
</g>
</g>
<!-- Node18 -->
<g id="Node000018" class="node">
<title>Node18</title>
<g id="a_Node000018"><a xlink:href="../../db/d54/classlci_1_1post__get__x.html#a9fcca224387844ef97c4437af444faec" target="_top" xlink:title=" ">
<polygon fill="white" stroke="#666666" points="658,-257.42 497,-257.42 497,-238.42 658,-238.42 658,-257.42"/>
<text text-anchor="middle" x="577.5" y="-245.42" font-family="Helvetica,sans-Serif" font-size="10.00">lci::post_get_x::remote_comp</text>
</a>
</g>
</g>
<!-- Node2&#45;&gt;Node18 -->
<g id="edge56_Node000002_Node000018" class="edge">
<title>Node2&#45;&gt;Node18</title>
<g id="a_edge56_Node000002_Node000018"><a xlink:title=" ">
<path fill="none" stroke="#63b8ff" d="M239.01,-386.34C250.69,-365.04 282,-313.74 324,-289.92 373.18,-262.03 435.85,-251.49 486.45,-247.94"/>
<polygon fill="#63b8ff" stroke="#63b8ff" points="486.96,-251.42 496.73,-247.3 486.53,-244.43 486.96,-251.42"/>
</a>
</g>
</g>
<!-- Node19 -->
<g id="Node000019" class="node">
<title>Node19</title>
<g id="a_Node000019"><a xlink:href="../../db/d54/classlci_1_1post__get__x.html#a46c613bb21ea1b3ad3c42334e831ee51" target="_top" xlink:title=" ">
<polygon fill="white" stroke="#666666" points="654.5,-220.42 500.5,-220.42 500.5,-201.42 654.5,-201.42 654.5,-220.42"/>
<text text-anchor="middle" x="577.5" y="-208.42" font-family="Helvetica,sans-Serif" font-size="10.00">lci::post_get_x::remote_disp</text>
</a>
</g>
</g>
<!-- Node2&#45;&gt;Node19 -->
<g id="edge57_Node000002_Node000019" class="edge">
<title>Node2&#45;&gt;Node19</title>
<g id="a_edge57_Node000002_Node000019"><a xlink:title=" ">
<path fill="none" stroke="#63b8ff" d="M236.63,-386.15C244.57,-358.75 271.05,-280.92 324,-245.92 372.63,-213.78 438.06,-205.45 490.13,-204.93"/>
<polygon fill="#63b8ff" stroke="#63b8ff" points="490.36,-208.43 500.36,-204.93 490.36,-201.43 490.36,-208.43"/>
</a>
</g>
</g>
<!-- Node20 -->
<g id="Node000020" class="node">
<title>Node20</title>
<g id="a_Node000020"><a xlink:href="../../db/d54/classlci_1_1post__get__x.html#a96066c719819fe7d159096f611f3ce40" target="_top" xlink:title=" ">
<polygon fill="white" stroke="#666666" points="632.5,-183.42 522.5,-183.42 522.5,-164.42 632.5,-164.42 632.5,-183.42"/>
<text text-anchor="middle" x="577.5" y="-171.42" font-family="Helvetica,sans-Serif" font-size="10.00">lci::post_get_x::rmr</text>
</a>
</g>
</g>
<!-- Node2&#45;&gt;Node20 -->
<g id="edge58_Node000002_Node000020" class="edge">
<title>Node2&#45;&gt;Node20</title>
<g id="a_edge58_Node000002_Node000020"><a xlink:title=" ">
<path fill="none" stroke="#63b8ff" d="M235.2,-386.17C239.76,-353.69 259.19,-248.53 324,-201.92 378.44,-162.77 457.28,-160.25 512.33,-164.65"/>
<polygon fill="#63b8ff" stroke="#63b8ff" points="512.05,-168.14 522.32,-165.55 512.67,-161.17 512.05,-168.14"/>
</a>
</g>
</g>
<!-- Node21 -->
<g id="Node000021" class="node">
<title>Node21</title>
<g id="a_Node000021"><a xlink:href="../../db/d54/classlci_1_1post__get__x.html#ac3b93ca830abcb7bb56e268915fad980" target="_top" xlink:title=" ">
<polygon fill="white" stroke="#666666" points="643,-146.42 512,-146.42 512,-127.42 643,-127.42 643,-146.42"/>
<text text-anchor="middle" x="577.5" y="-134.42" font-family="Helvetica,sans-Serif" font-size="10.00">lci::post_get_x::runtime</text>
</a>
</g>
</g>
<!-- Node2&#45;&gt;Node21 -->
<g id="edge59_Node000002_Node000021" class="edge">
<title>Node2&#45;&gt;Node21</title>
<g id="a_edge59_Node000002_Node000021"><a xlink:title=" ">
<path fill="none" stroke="#63b8ff" d="M234.27,-386.4C235.86,-349.77 246.94,-217.19 324,-158.92 380.01,-116.58 464.3,-118.47 519.85,-125.91"/>
<polygon fill="#63b8ff" stroke="#63b8ff" points="519.48,-129.39 529.87,-127.35 520.48,-122.46 519.48,-129.39"/>
</a>
</g>
</g>
<!-- Node22 -->
<g id="Node000022" class="node">
<title>Node22</title>
<g id="a_Node000022"><a xlink:href="../../db/d54/classlci_1_1post__get__x.html#acd5ead27a3560139798f7c39431cbdf4" target="_top" xlink:title=" ">
<polygon fill="white" stroke="#666666" points="634,-109.42 521,-109.42 521,-90.42 634,-90.42 634,-109.42"/>
<text text-anchor="middle" x="577.5" y="-97.42" font-family="Helvetica,sans-Serif" font-size="10.00">lci::post_get_x::size</text>
</a>
</g>
</g>
<!-- Node2&#45;&gt;Node22 -->
<g id="edge60_Node000002_Node000022" class="edge">
<title>Node2&#45;&gt;Node22</title>
<g id="a_edge60_Node000002_Node000022"><a xlink:title=" ">
<path fill="none" stroke="#63b8ff" d="M233.64,-386.42C232.65,-345.92 234.75,-186.62 324,-116.92 382.19,-71.48 472.78,-78.37 528.17,-88.47"/>
<polygon fill="#63b8ff" stroke="#63b8ff" points="527.6,-91.93 538.08,-90.38 528.93,-85.05 527.6,-91.93"/>
</a>
</g>
</g>
<!-- Node23 -->
<g id="Node000023" class="node">
<title>Node23</title>
<g id="a_Node000023"><a xlink:href="../../db/d54/classlci_1_1post__get__x.html#a2a87093d9d3e41f5fc2da87df7a4db28" target="_top" xlink:title=" ">
<polygon fill="white" stroke="#666666" points="632,-72.42 523,-72.42 523,-53.42 632,-53.42 632,-72.42"/>
<text text-anchor="middle" x="577.5" y="-60.42" font-family="Helvetica,sans-Serif" font-size="10.00">lci::post_get_x::tag</text>
</a>
</g>
</g>
<!-- Node2&#45;&gt;Node23 -->
<g id="edge61_Node000002_Node000023" class="edge">
<title>Node2&#45;&gt;Node23</title>
<g id="a_edge61_Node000002_Node000023"><a xlink:title=" ">
<path fill="none" stroke="#63b8ff" d="M235.24,-386.14C241.69,-337 273.03,-117.77 324,-76.92 382.86,-29.75 476.44,-39.59 531.63,-51.16"/>
<polygon fill="#63b8ff" stroke="#63b8ff" points="530.95,-54.6 541.47,-53.33 532.46,-47.76 530.95,-54.6"/>
</a>
</g>
</g>
<!-- Node24 -->
<g id="Node000024" class="node">
<title>Node24</title>
<g id="a_Node000024"><a xlink:href="../../db/d54/classlci_1_1post__get__x.html#ae8ab8b05f92e3637b69c694780a1f02e" target="_top" xlink:title=" ">
<polygon fill="white" stroke="#666666" points="634.5,-34.92 520.5,-34.92 520.5,-4.92 634.5,-4.92 634.5,-34.92"/>
<text text-anchor="start" x="528.5" y="-22.92" font-family="Helvetica,sans-Serif" font-size="10.00">lci::post_get_x::user</text>
<text text-anchor="middle" x="577.5" y="-11.92" font-family="Helvetica,sans-Serif" font-size="10.00">_context</text>
</a>
</g>
</g>
<!-- Node2&#45;&gt;Node24 -->
<g id="edge62_Node000002_Node000024" class="edge">
<title>Node2&#45;&gt;Node24</title>
<g id="a_edge62_Node000002_Node000024"><a xlink:title=" ">
<path fill="none" stroke="#63b8ff" d="M234.92,-386.39C240.12,-334.33 267.77,-85.07 324,-37.92 375.04,4.88 454.15,3.31 510.2,-5.1"/>
<polygon fill="#63b8ff" stroke="#63b8ff" points="509.96,-8.6 520.39,-6.74 511.07,-1.69 509.96,-8.6"/>
</a>
</g>
</g>
<!-- Node4 -->
<g id="Node000004" class="node">
<title>Node4</title>
<g id="a_Node000004"><a xlink:href="../../db/d54/classlci_1_1post__get__x.html#a544592613caf9d08e85c26374f00f0a5" target="_top" xlink:title=" ">
<polygon fill="white" stroke="#666666" points="808,-391.92 694,-391.92 694,-361.92 808,-361.92 808,-391.92"/>
<text text-anchor="start" x="702" y="-379.92" font-family="Helvetica,sans-Serif" font-size="10.00">lci::post_get_x::post</text>
<text text-anchor="middle" x="751" y="-368.92" font-family="Helvetica,sans-Serif" font-size="10.00">_get_x</text>
</a>
</g>
</g>
<!-- Node3&#45;&gt;Node4 -->
<g id="edge3_Node000003_Node000004" class="edge">
<title>Node3&#45;&gt;Node4</title>
<g id="a_edge3_Node000003_Node000004"><a xlink:title=" ">
<path fill="none" stroke="#63b8ff" d="M644.96,-765.33C649.74,-762.82 654.18,-759.73 658,-755.92 708.86,-705.24 738.59,-478.44 747.3,-402.1"/>
<polygon fill="#63b8ff" stroke="#63b8ff" points="750.8,-402.29 748.43,-391.96 743.84,-401.51 750.8,-402.29"/>
</a>
</g>
</g>
<!-- Node5&#45;&gt;Node4 -->
<g id="edge5_Node000005_Node000004" class="edge">
<title>Node5&#45;&gt;Node4</title>
<g id="a_edge5_Node000005_Node000004"><a xlink:title=" ">
<path fill="none" stroke="#63b8ff" d="M637.11,-721.79C644.87,-718.4 652.15,-713.9 658,-707.92 742.61,-621.42 750.9,-464.15 750.69,-402.6"/>
<polygon fill="#63b8ff" stroke="#63b8ff" points="754.19,-402.21 750.57,-392.25 747.19,-402.29 754.19,-402.21"/>
</a>
</g>
</g>
<!-- Node6&#45;&gt;Node4 -->
<g id="edge7_Node000006_Node000004" class="edge">
<title>Node6&#45;&gt;Node4</title>
<g id="a_edge7_Node000006_Node000004"><a xlink:title=" ">
<path fill="none" stroke="#63b8ff" d="M637.29,-673.38C644.93,-670.05 652.13,-665.67 658,-659.92 731.39,-588.07 746.28,-457.14 749.26,-402.23"/>
<polygon fill="#63b8ff" stroke="#63b8ff" points="752.77,-402.15 749.73,-392.01 745.78,-401.84 752.77,-402.15"/>
</a>
</g>
</g>
<!-- Node7&#45;&gt;Node4 -->
<g id="edge9_Node000007_Node000004" class="edge">
<title>Node7&#45;&gt;Node4</title>
<g id="a_edge9_Node000007_Node000004"><a xlink:title=" ">
<path fill="none" stroke="#63b8ff" d="M641.32,-633.1C647.39,-630.53 653.1,-627.2 658,-622.92 725.04,-564.39 743.33,-452.11 748.24,-402.07"/>
<polygon fill="#63b8ff" stroke="#63b8ff" points="751.73,-402.37 749.12,-392.1 744.75,-401.76 751.73,-402.37"/>
</a>
</g>
</g>
<!-- Node8&#45;&gt;Node3 -->
<g id="edge11_Node000008_Node000003" class="edge">
<title>Node8&#45;&gt;Node3</title>
<g id="a_edge11_Node000008_Node000003"><a xlink:title=" ">
<path fill="none" stroke="#63b8ff" d="M393.04,-405.72C391.43,-452.45 390.98,-654.61 497,-755.92 498.5,-757.36 500.09,-758.69 501.75,-759.93"/>
<polygon fill="#63b8ff" stroke="#63b8ff" points="500.24,-763.11 510.6,-765.35 503.9,-757.14 500.24,-763.11"/>
</a>
</g>
</g>
<!-- Node8&#45;&gt;Node5 -->
<g id="edge12_Node000008_Node000005" class="edge">
<title>Node8&#45;&gt;Node5</title>
<g id="a_edge12_Node000008_Node000005"><a xlink:title=" ">
<path fill="none" stroke="#63b8ff" d="M393.66,-405.43C394.9,-447.52 405.59,-618.96 497,-707.92 500.5,-711.33 504.46,-714.25 508.7,-716.76"/>
<polygon fill="#63b8ff" stroke="#63b8ff" points="507.24,-719.94 517.74,-721.35 510.41,-713.7 507.24,-719.94"/>
</a>
</g>
</g>
<!-- Node8&#45;&gt;Node6 -->
<g id="edge13_Node000008_Node000006" class="edge">
<title>Node8&#45;&gt;Node6</title>
<g id="a_edge13_Node000008_Node000006"><a xlink:title=" ">
<path fill="none" stroke="#63b8ff" d="M394.32,-405.5C398.09,-443.65 417.22,-586.31 497,-659.92 500.43,-663.09 504.26,-665.84 508.35,-668.22"/>
<polygon fill="#63b8ff" stroke="#63b8ff" points="507.11,-671.52 517.61,-672.89 510.26,-665.27 507.11,-671.52"/>
</a>
</g>
</g>
<!-- Node8&#45;&gt;Node7 -->
<g id="edge14_Node000008_Node000007" class="edge">
<title>Node8&#45;&gt;Node7</title>
<g id="a_edge14_Node000008_Node000007"><a xlink:title=" ">
<path fill="none" stroke="#63b8ff" d="M394.82,-405.5C400.2,-440.62 423.75,-563.34 497,-622.92 499.45,-624.91 502.07,-626.69 504.82,-628.28"/>
<polygon fill="#63b8ff" stroke="#63b8ff" points="503.45,-631.51 513.97,-632.75 506.52,-625.22 503.45,-631.51"/>
</a>
</g>
</g>
<!-- Node8&#45;&gt;Node9 -->
<g id="edge15_Node000008_Node000009" class="edge">
<title>Node8&#45;&gt;Node9</title>
<g id="a_edge15_Node000008_Node000009"><a xlink:title=" ">
<path fill="none" stroke="#63b8ff" d="M395.77,-405.67C403.63,-437.25 432.88,-537.45 497,-585.92 499.65,-587.93 502.49,-589.72 505.45,-591.31"/>
<polygon fill="#63b8ff" stroke="#63b8ff" points="504.12,-594.55 514.66,-595.54 507.04,-588.19 504.12,-594.55"/>
</a>
</g>
</g>
<!-- Node8&#45;&gt;Node10 -->
<g id="edge17_Node000008_Node000010" class="edge">
<title>Node8&#45;&gt;Node10</title>
<g id="a_edge17_Node000008_Node000010"><a xlink:title=" ">
<path fill="none" stroke="#63b8ff" d="M397.13,-405.58C407.85,-432.7 442.07,-510.04 497,-547.92 499.89,-549.92 502.97,-551.7 506.16,-553.3"/>
<polygon fill="#63b8ff" stroke="#63b8ff" points="504.88,-556.56 515.44,-557.33 507.67,-550.14 504.88,-556.56"/>
</a>
</g>
</g>
<!-- Node8&#45;&gt;Node11 -->
<g id="edge19_Node000008_Node000011" class="edge">
<title>Node8&#45;&gt;Node11</title>
<g id="a_edge19_Node000008_Node000011"><a xlink:title=" ">
<path fill="none" stroke="#63b8ff" d="M400.37,-405.52C415.49,-425.95 453.75,-473.97 497,-499.92 500.69,-502.13 504.59,-504.16 508.61,-506"/>
<polygon fill="#63b8ff" stroke="#63b8ff" points="507.6,-509.37 518.17,-510 510.3,-502.91 507.6,-509.37"/>
</a>
</g>
</g>
<!-- Node8&#45;&gt;Node12 -->
<g id="edge21_Node000008_Node000012" class="edge">
<title>Node8&#45;&gt;Node12</title>
<g id="a_edge21_Node000008_Node000012"><a xlink:title=" ">
<path fill="none" stroke="#63b8ff" d="M408.79,-405.48C428.58,-417.54 464.37,-438.34 497,-451.92 501.7,-453.88 506.62,-455.76 511.61,-457.53"/>
<polygon fill="#63b8ff" stroke="#63b8ff" points="510.65,-460.9 521.25,-460.83 512.92,-454.28 510.65,-460.9"/>
</a>
</g>
</g>
<!-- Node8&#45;&gt;Node13 -->
<g id="edge23_Node000008_Node000013" class="edge">
<title>Node8&#45;&gt;Node13</title>
<g id="a_edge23_Node000008_Node000013"><a xlink:title=" ">
<path fill="none" stroke="#63b8ff" d="M440.63,-405.45C464.65,-410.31 494.07,-416.26 519.38,-421.37"/>
<polygon fill="#63b8ff" stroke="#63b8ff" points="518.72,-424.81 529.21,-423.36 520.11,-417.95 518.72,-424.81"/>
</a>
</g>
</g>
<!-- Node8&#45;&gt;Node14 -->
<g id="edge25_Node000008_Node000014" class="edge">
<title>Node8&#45;&gt;Node14</title>
<g id="a_edge25_Node000008_Node000014"><a xlink:title=" ">
<path fill="none" stroke="#63b8ff" d="M461.12,-395.92C478.24,-395.92 496.55,-395.92 513.43,-395.92"/>
<polygon fill="#63b8ff" stroke="#63b8ff" points="513.74,-399.42 523.74,-395.92 513.74,-392.42 513.74,-399.42"/>
</a>
</g>
</g>
<!-- Node8&#45;&gt;Node15 -->
<g id="edge27_Node000008_Node000015" class="edge">
<title>Node8&#45;&gt;Node15</title>
<g id="a_edge27_Node000008_Node000015"><a xlink:title=" ">
<path fill="none" stroke="#63b8ff" d="M440.63,-386.39C464.65,-381.54 494.07,-375.59 519.38,-370.47"/>
<polygon fill="#63b8ff" stroke="#63b8ff" points="520.11,-373.89 529.21,-368.48 518.72,-367.03 520.11,-373.89"/>
</a>
</g>
</g>
<!-- Node8&#45;&gt;Node16 -->
<g id="edge29_Node000008_Node000016" class="edge">
<title>Node8&#45;&gt;Node16</title>
<g id="a_edge29_Node000008_Node000016"><a xlink:title=" ">
<path fill="none" stroke="#63b8ff" d="M408.7,-386.25C428.38,-374.11 464.07,-353.37 497,-340.92 503.75,-338.37 510.96,-336.08 518.18,-334.05"/>
<polygon fill="#63b8ff" stroke="#63b8ff" points="519.22,-337.4 527.98,-331.45 517.42,-330.63 519.22,-337.4"/>
</a>
</g>
</g>
<!-- Node8&#45;&gt;Node17 -->
<g id="edge31_Node000008_Node000017" class="edge">
<title>Node8&#45;&gt;Node17</title>
<g id="a_edge31_Node000008_Node000017"><a xlink:title=" ">
<path fill="none" stroke="#63b8ff" d="M401.49,-386.14C417.53,-367.2 455.64,-325.49 497,-303.92 501.52,-301.56 506.35,-299.49 511.29,-297.67"/>
<polygon fill="#63b8ff" stroke="#63b8ff" points="512.52,-300.95 520.91,-294.48 510.32,-294.31 512.52,-300.95"/>
</a>
</g>
</g>
<!-- Node8&#45;&gt;Node18 -->
<g id="edge33_Node000008_Node000018" class="edge">
<title>Node8&#45;&gt;Node18</title>
<g id="a_edge33_Node000008_Node000018"><a xlink:title=" ">
<path fill="none" stroke="#63b8ff" d="M398.27,-386.35C410.82,-362.19 447.27,-298.42 497,-266.92 500.34,-264.8 503.9,-262.92 507.59,-261.25"/>
<polygon fill="#63b8ff" stroke="#63b8ff" points="508.98,-264.46 516.97,-257.51 506.39,-257.96 508.98,-264.46"/>
</a>
</g>
</g>
<!-- Node8&#45;&gt;Node19 -->
<g id="edge35_Node000008_Node000019" class="edge">
<title>Node8&#45;&gt;Node19</title>
<g id="a_edge35_Node000008_Node000019"><a xlink:title=" ">
<path fill="none" stroke="#63b8ff" d="M396.58,-386.22C406.24,-357.41 438.84,-271.79 497,-229.92 499.71,-227.97 502.59,-226.22 505.58,-224.65"/>
<polygon fill="#63b8ff" stroke="#63b8ff" points="507.21,-227.76 514.88,-220.44 504.33,-221.38 507.21,-227.76"/>
</a>
</g>
</g>
<!-- Node8&#45;&gt;Node20 -->
<g id="edge37_Node000008_Node000020" class="edge">
<title>Node8&#45;&gt;Node20</title>
<g id="a_edge37_Node000008_Node000020"><a xlink:title=" ">
<path fill="none" stroke="#63b8ff" d="M395.47,-386.02C402.59,-352.96 430.17,-245.53 497,-192.92 501.71,-189.21 507.04,-186.21 512.65,-183.78"/>
<polygon fill="#63b8ff" stroke="#63b8ff" points="514.12,-186.96 522.29,-180.21 511.7,-180.4 514.12,-186.96"/>
</a>
</g>
</g>
<!-- Node8&#45;&gt;Node21 -->
<g id="edge39_Node000008_Node000021" class="edge">
<title>Node8&#45;&gt;Node21</title>
<g id="a_edge39_Node000008_Node000021"><a xlink:title=" ">
<path fill="none" stroke="#63b8ff" d="M394.59,-386.34C399.27,-350.05 420.94,-219.87 497,-155.92 499,-154.24 501.11,-152.71 503.33,-151.3"/>
<polygon fill="#63b8ff" stroke="#63b8ff" points="505.12,-154.32 512.28,-146.51 501.81,-148.15 505.12,-154.32"/>
</a>
</g>
</g>
<!-- Node8&#45;&gt;Node22 -->
<g id="edge41_Node000008_Node000022" class="edge">
<title>Node8&#45;&gt;Node22</title>
<g id="a_edge41_Node000008_Node000022"><a xlink:title=" ">
<path fill="none" stroke="#63b8ff" d="M393.99,-386.29C396.55,-346.59 411.8,-194.24 497,-118.92 501.25,-115.16 506.12,-112.11 511.3,-109.65"/>
<polygon fill="#63b8ff" stroke="#63b8ff" points="512.92,-112.77 520.9,-105.8 510.32,-106.27 512.92,-112.77"/>
</a>
</g>
</g>
<!-- Node8&#45;&gt;Node23 -->
<g id="edge43_Node000008_Node000023" class="edge">
<title>Node8&#45;&gt;Node23</title>
<g id="a_edge43_Node000008_Node000023"><a xlink:title=" ">
<path fill="none" stroke="#63b8ff" d="M393.51,-386.22C394.13,-343.3 402.57,-168.75 497,-81.92 501.73,-77.57 507.27,-74.17 513.2,-71.51"/>
<polygon fill="#63b8ff" stroke="#63b8ff" points="514.62,-74.71 522.75,-67.92 512.16,-68.16 514.62,-74.71"/>
</a>
</g>
</g>
<!-- Node8&#45;&gt;Node24 -->
<g id="edge45_Node000008_Node000024" class="edge">
<title>Node8&#45;&gt;Node24</title>
<g id="a_edge45_Node000008_Node000024"><a xlink:title=" ">
<path fill="none" stroke="#63b8ff" d="M393.24,-386.16C392.59,-340.47 396.02,-145.63 497,-43.92 501.16,-39.73 506.03,-36.26 511.28,-33.4"/>
<polygon fill="#63b8ff" stroke="#63b8ff" points="512.82,-36.54 520.39,-29.12 509.85,-30.2 512.82,-36.54"/>
</a>
</g>
</g>
<!-- Node9&#45;&gt;Node4 -->
<g id="edge16_Node000009_Node000004" class="edge">
<title>Node9&#45;&gt;Node4</title>
<g id="a_edge16_Node000009_Node000004"><a xlink:title=" ">
<path fill="none" stroke="#63b8ff" d="M640.28,-596.14C646.69,-593.58 652.76,-590.24 658,-585.92 716.08,-538.05 738.61,-446.24 746.38,-401.99"/>
<polygon fill="#63b8ff" stroke="#63b8ff" points="749.84,-402.5 748.01,-392.06 742.93,-401.36 749.84,-402.5"/>
</a>
</g>
</g>
<!-- Node10&#45;&gt;Node4 -->
<g id="edge18_Node000010_Node000004" class="edge">
<title>Node10&#45;&gt;Node4</title>
<g id="a_edge18_Node000010_Node000004"><a xlink:title=" ">
<path fill="none" stroke="#63b8ff" d="M641.18,-557.41C647.2,-554.93 652.94,-551.82 658,-547.92 706.84,-510.34 732.84,-439.23 743.72,-401.64"/>
<polygon fill="#63b8ff" stroke="#63b8ff" points="747.1,-402.56 746.39,-391.99 740.35,-400.69 747.1,-402.56"/>
</a>
</g>
</g>
<!-- Node11&#45;&gt;Node4 -->
<g id="edge20_Node000011_Node000004" class="edge">
<title>Node11&#45;&gt;Node4</title>
<g id="a_edge20_Node000011_Node000004"><a xlink:title=" ">
<path fill="none" stroke="#63b8ff" d="M636.56,-511.18C644.13,-508.17 651.5,-504.47 658,-499.92 694.73,-474.2 722.91,-429.19 737.92,-401.34"/>
<polygon fill="#63b8ff" stroke="#63b8ff" points="741.13,-402.74 742.67,-392.26 734.93,-399.5 741.13,-402.74"/>
</a>
</g>
</g>
<!-- Node12&#45;&gt;Node4 -->
<g id="edge22_Node000012_Node000004" class="edge">
<title>Node12&#45;&gt;Node4</title>
<g id="a_edge22_Node000012_Node000004"><a xlink:title=" ">
<path fill="none" stroke="#63b8ff" d="M635.62,-461.65C643.34,-458.87 651,-455.64 658,-451.92 684.35,-437.91 710.33,-415.75 727.93,-399.15"/>
<polygon fill="#63b8ff" stroke="#63b8ff" points="730.62,-401.41 735.39,-391.96 725.76,-396.37 730.62,-401.41"/>
</a>
</g>
</g>
<!-- Node13&#45;&gt;Node4 -->
<g id="edge24_Node000013_Node000004" class="edge">
<title>Node13&#45;&gt;Node4</title>
<g id="a_edge24_Node000013_Node000004"><a xlink:title=" ">
<path fill="none" stroke="#63b8ff" d="M626.78,-423.37C637.16,-420.93 648.02,-418.09 658,-414.92 674.64,-409.64 692.48,-402.61 707.97,-396.03"/>
<polygon fill="#63b8ff" stroke="#63b8ff" points="709.49,-399.19 717.29,-392.02 706.72,-392.76 709.49,-399.19"/>
</a>
</g>
</g>
<!-- Node14&#45;&gt;Node4 -->
<g id="edge26_Node000014_Node000004" class="edge">
<title>Node14&#45;&gt;Node4</title>
<g id="a_edge26_Node000014_Node000004"><a xlink:title=" ">
<path fill="none" stroke="#63b8ff" d="M631.36,-390.07C647.89,-388.23 666.35,-386.19 683.69,-384.27"/>
<polygon fill="#63b8ff" stroke="#63b8ff" points="684.2,-387.73 693.75,-383.15 683.43,-380.78 684.2,-387.73"/>
</a>
</g>
</g>
<!-- Node15&#45;&gt;Node4 -->
<g id="edge28_Node000015_Node000004" class="edge">
<title>Node15&#45;&gt;Node4</title>
<g id="a_edge28_Node000015_Node000004"><a xlink:title=" ">
<path fill="none" stroke="#63b8ff" d="M653.72,-366.82C663.74,-367.87 673.96,-368.94 683.81,-369.97"/>
<polygon fill="#63b8ff" stroke="#63b8ff" points="683.61,-373.47 693.92,-371.04 684.34,-366.51 683.61,-373.47"/>
</a>
</g>
</g>
<!-- Node16&#45;&gt;Node4 -->
<g id="edge30_Node000016_Node000004" class="edge">
<title>Node16&#45;&gt;Node4</title>
<g id="a_edge30_Node000016_Node000004"><a xlink:title=" ">
<path fill="none" stroke="#63b8ff" d="M623.37,-331.5C634.75,-334.24 646.9,-337.44 658,-340.92 673.71,-345.85 690.57,-352.14 705.51,-358.08"/>
<polygon fill="#63b8ff" stroke="#63b8ff" points="704.44,-361.42 715.02,-361.92 707.06,-354.93 704.44,-361.42"/>
</a>
</g>
</g>
<!-- Node17&#45;&gt;Node4 -->
<g id="edge32_Node000017_Node000004" class="edge">
<title>Node17&#45;&gt;Node4</title>
<g id="a_edge32_Node000017_Node000004"><a xlink:title=" ">
<path fill="none" stroke="#63b8ff" d="M632.64,-294.49C641.35,-296.98 650.09,-300.07 658,-303.92 684.4,-316.76 710.2,-338.24 727.72,-354.59"/>
<polygon fill="#63b8ff" stroke="#63b8ff" points="725.52,-357.32 735.17,-361.69 730.35,-352.25 725.52,-357.32"/>
</a>
</g>
</g>
<!-- Node18&#45;&gt;Node4 -->
<g id="edge34_Node000018_Node000004" class="edge">
<title>Node18&#45;&gt;Node4</title>
<g id="a_edge34_Node000018_Node000004"><a xlink:title=" ">
<path fill="none" stroke="#63b8ff" d="M637.54,-257.49C644.72,-259.95 651.73,-263.04 658,-266.92 692.88,-288.52 720.97,-327.88 736.56,-353.2"/>
<polygon fill="#63b8ff" stroke="#63b8ff" points="733.59,-355.05 741.73,-361.83 739.6,-351.45 733.59,-355.05"/>
</a>
</g>
</g>
<!-- Node19&#45;&gt;Node4 -->
<g id="edge36_Node000019_Node000004" class="edge">
<title>Node19&#45;&gt;Node4</title>
<g id="a_edge36_Node000019_Node000004"><a xlink:title=" ">
<path fill="none" stroke="#63b8ff" d="M640.11,-220.45C646.48,-222.93 652.58,-226.03 658,-229.92 701.21,-260.97 728.6,-319.2 741.43,-352.29"/>
<polygon fill="#63b8ff" stroke="#63b8ff" points="738.16,-353.55 744.94,-361.7 744.72,-351.1 738.16,-353.55"/>
</a>
</g>
</g>
<!-- Node20&#45;&gt;Node4 -->
<g id="edge38_Node000020_Node000004" class="edge">
<title>Node20&#45;&gt;Node4</title>
<g id="a_edge38_Node000020_Node000004"><a xlink:title=" ">
<path fill="none" stroke="#63b8ff" d="M632.75,-180.16C641.83,-183.02 650.66,-187.1 658,-192.92 709.76,-234.01 734.76,-311.83 744.64,-351.81"/>
<polygon fill="#63b8ff" stroke="#63b8ff" points="741.3,-352.87 746.99,-361.8 748.11,-351.27 741.3,-352.87"/>
</a>
</g>
</g>
<!-- Node21&#45;&gt;Node4 -->
<g id="edge40_Node000021_Node000004" class="edge">
<title>Node21&#45;&gt;Node4</title>
<g id="a_edge40_Node000021_Node000004"><a xlink:title=" ">
<path fill="none" stroke="#63b8ff" d="M642.77,-146.45C648.27,-148.95 653.46,-152.06 658,-155.92 718.63,-207.56 740.04,-305.73 746.98,-351.83"/>
<polygon fill="#63b8ff" stroke="#63b8ff" points="743.53,-352.44 748.38,-361.86 750.46,-351.47 743.53,-352.44"/>
</a>
</g>
</g>
<!-- Node22&#45;&gt;Node4 -->
<g id="edge42_Node000022_Node000004" class="edge">
<title>Node22&#45;&gt;Node4</title>
<g id="a_edge42_Node000022_Node000004"><a xlink:title=" ">
<path fill="none" stroke="#63b8ff" d="M634.17,-105.72C642.89,-108.64 651.24,-112.86 658,-118.92 727.55,-181.34 744.53,-299.97 748.67,-351.72"/>
<polygon fill="#63b8ff" stroke="#63b8ff" points="745.18,-351.98 749.37,-361.71 752.16,-351.48 745.18,-351.98"/>
</a>
</g>
</g>
<!-- Node23&#45;&gt;Node4 -->
<g id="edge44_Node000023_Node000004" class="edge">
<title>Node23&#45;&gt;Node4</title>
<g id="a_edge44_Node000023_Node000004"><a xlink:title=" ">
<path fill="none" stroke="#63b8ff" d="M632.33,-67.82C641.77,-70.77 650.85,-75.24 658,-81.92 736.46,-155.24 748.47,-294.24 749.98,-351.4"/>
<polygon fill="#63b8ff" stroke="#63b8ff" points="746.48,-351.76 750.15,-361.7 753.48,-351.64 746.48,-351.76"/>
</a>
</g>
</g>
<!-- Node24&#45;&gt;Node4 -->
<g id="edge46_Node000024_Node000004" class="edge">
<title>Node24&#45;&gt;Node4</title>
<g id="a_edge46_Node000024_Node000004"><a xlink:title=" ">
<path fill="none" stroke="#63b8ff" d="M634.7,-29.03C643.36,-32.52 651.55,-37.32 658,-43.92 743.22,-131.18 751.1,-289.92 750.74,-351.53"/>
<polygon fill="#63b8ff" stroke="#63b8ff" points="747.24,-351.81 750.59,-361.86 754.24,-351.91 747.24,-351.81"/>
</a>
</g>
</g>
</g>
</svg>
