<?xml version="1.0" encoding="UTF-8" standalone="no"?>
<!DOCTYPE svg PUBLIC "-//W3C//DTD SVG 1.1//EN"
 "http://www.w3.org/Graphics/SVG/1.1/DTD/svg11.dtd">
<!-- Generated by graphviz version 2.43.0 (0)
 -->
<!-- Title: lci::post_get_x::post_get_x Pages: 1 -->
<svg width="816pt" height="804pt"
 viewBox="0.00 0.00 816.00 803.90" xmlns="http://www.w3.org/2000/svg" xmlns:xlink="http://www.w3.org/1999/xlink">
<g id="graph0" class="graph" transform="scale(1 1) rotate(0) translate(4 799.9)">
<title>lci::post_get_x::post_get_x</title>
<!-- Node1 -->
<g id="Node000001" class="node">
<title>Node1</title>
<g id="a_Node000001"><a xlink:title=" ">
<polygon fill="#999999" stroke="#666666" points="808,-403.4 694,-403.4 694,-373.4 808,-373.4 808,-403.4"/>
<text text-anchor="start" x="702" y="-391.4" font-family="Helvetica,sans-Serif" font-size="10.00">lci::post_get_x::post</text>
<text text-anchor="middle" x="751" y="-380.4" font-family="Helvetica,sans-Serif" font-size="10.00">_get_x</text>
</a>
</g>
</g>
<!-- Node2 -->
<g id="Node000002" class="node">
<title>Node2</title>
<g id="a_Node000002"><a xlink:href="../../db/d54/classlci_1_1post__get__x.html#a29495aee6145a53bd30973c7aab3ef4f" target="_top" xlink:title=" ">
<polygon fill="white" stroke="#666666" points="652,-795.9 503,-795.9 503,-776.9 652,-776.9 652,-795.9"/>
<text text-anchor="middle" x="577.5" y="-783.9" font-family="Helvetica,sans-Serif" font-size="10.00">lci::post_get_x::allow_done</text>
</a>
</g>
</g>
<!-- Node1&#45;&gt;Node2 -->
<g id="edge1_Node000001_Node000002" class="edge">
<title>Node1&#45;&gt;Node2</title>
<g id="a_edge1_Node000001_Node000002"><a xlink:title=" ">
<path fill="none" stroke="#63b8ff" d="M747.3,-413.57C738.59,-489.92 708.86,-716.72 658,-767.4 654.18,-771.2 649.74,-774.3 644.96,-776.81"/>
<polygon fill="#63b8ff" stroke="#63b8ff" points="750.8,-413.77 748.43,-403.44 743.84,-412.99 750.8,-413.77"/>
</a>
</g>
</g>
<!-- Node7 -->
<g id="Node000007" class="node">
<title>Node7</title>
<g id="a_Node000007"><a xlink:href="../../db/d54/classlci_1_1post__get__x.html#aae33e9f61a69952f9e96d79a3a7d07c3" target="_top" xlink:title=" ">
<polygon fill="white" stroke="#666666" points="637,-758.4 518,-758.4 518,-728.4 637,-728.4 637,-758.4"/>
<text text-anchor="start" x="526" y="-746.4" font-family="Helvetica,sans-Serif" font-size="10.00">lci::post_get_x::allow</text>
<text text-anchor="middle" x="577.5" y="-735.4" font-family="Helvetica,sans-Serif" font-size="10.00">_posted</text>
</a>
</g>
</g>
<!-- Node1&#45;&gt;Node7 -->
<g id="edge7_Node000001_Node000007" class="edge">
<title>Node1&#45;&gt;Node7</title>
<g id="a_edge7_Node000001_Node000007"><a xlink:title=" ">
<path fill="none" stroke="#63b8ff" d="M750.69,-414.07C750.9,-475.62 742.61,-632.9 658,-719.4 652.15,-725.38 644.87,-729.88 637.11,-733.26"/>
<polygon fill="#63b8ff" stroke="#63b8ff" points="754.19,-413.69 750.57,-403.73 747.19,-413.77 754.19,-413.69"/>
</a>
</g>
</g>
<!-- Node8 -->
<g id="Node000008" class="node">
<title>Node8</title>
<g id="a_Node000008"><a xlink:href="../../db/d54/classlci_1_1post__get__x.html#afa8dc94772275fcea9a20a5c5c890480" target="_top" xlink:title=" ">
<polygon fill="white" stroke="#666666" points="637,-710.4 518,-710.4 518,-680.4 637,-680.4 637,-710.4"/>
<text text-anchor="start" x="526" y="-698.4" font-family="Helvetica,sans-Serif" font-size="10.00">lci::post_get_x::allow</text>
<text text-anchor="middle" x="577.5" y="-687.4" font-family="Helvetica,sans-Serif" font-size="10.00">_retry</text>
</a>
</g>
</g>
<!-- Node1&#45;&gt;Node8 -->
<g id="edge10_Node000001_Node000008" class="edge">
<title>Node1&#45;&gt;Node8</title>
<g id="a_edge10_Node000001_Node000008"><a xlink:title=" ">
<path fill="none" stroke="#63b8ff" d="M749.26,-413.71C746.28,-468.62 731.39,-599.54 658,-671.4 652.13,-677.15 644.93,-681.53 637.29,-684.86"/>
<polygon fill="#63b8ff" stroke="#63b8ff" points="752.77,-413.63 749.73,-403.48 745.78,-413.31 752.77,-413.63"/>
</a>
</g>
</g>
<!-- Node9 -->
<g id="Node000009" class="node">
<title>Node9</title>
<g id="a_Node000009"><a xlink:href="../../db/d54/classlci_1_1post__get__x.html#a850f6fec0cedba401af4faa762f65ca7" target="_top" xlink:title=" ">
<polygon fill="white" stroke="#666666" points="641,-661.9 514,-661.9 514,-642.9 641,-642.9 641,-661.9"/>
<text text-anchor="middle" x="577.5" y="-649.9" font-family="Helvetica,sans-Serif" font-size="10.00">lci::post_get_x::buffers</text>
</a>
</g>
</g>
<!-- Node1&#45;&gt;Node9 -->
<g id="edge13_Node000001_Node000009" class="edge">
<title>Node1&#45;&gt;Node9</title>
<g id="a_edge13_Node000001_Node000009"><a xlink:title=" ">
<path fill="none" stroke="#63b8ff" d="M748.24,-413.55C743.33,-463.59 725.04,-575.86 658,-634.4 653.1,-638.68 647.39,-642 641.32,-644.58"/>
<polygon fill="#63b8ff" stroke="#63b8ff" points="751.73,-413.85 749.12,-403.58 744.75,-413.23 751.73,-413.85"/>
</a>
</g>
</g>
<!-- Node10 -->
<g id="Node000010" class="node">
<title>Node10</title>
<g id="a_Node000010"><a xlink:href="../../db/d54/classlci_1_1post__get__x.html#ae5063e804814ece1bcf5720cd9b78b94" target="_top" xlink:title=" ">
<polygon fill="white" stroke="#666666" points="640,-624.9 515,-624.9 515,-605.9 640,-605.9 640,-624.9"/>
<text text-anchor="middle" x="577.5" y="-612.9" font-family="Helvetica,sans-Serif" font-size="10.00">lci::post_get_x::device</text>
</a>
</g>
</g>
<!-- Node1&#45;&gt;Node10 -->
<g id="edge16_Node000001_Node000010" class="edge">
<title>Node1&#45;&gt;Node10</title>
<g id="a_edge16_Node000001_Node000010"><a xlink:title=" ">
<path fill="none" stroke="#63b8ff" d="M746.38,-413.46C738.61,-457.72 716.08,-549.53 658,-597.4 652.76,-601.72 646.69,-605.05 640.28,-607.62"/>
<polygon fill="#63b8ff" stroke="#63b8ff" points="749.84,-413.97 748.01,-403.54 742.93,-412.84 749.84,-413.97"/>
</a>
</g>
</g>
<!-- Node11 -->
<g id="Node000011" class="node">
<title>Node11</title>
<g id="a_Node000011"><a xlink:href="../../db/d54/classlci_1_1post__get__x.html#ada8d3a7d775a52e72afd83366507af07" target="_top" xlink:title=" ">
<polygon fill="white" stroke="#666666" points="645.5,-587.9 509.5,-587.9 509.5,-568.9 645.5,-568.9 645.5,-587.9"/>
<text text-anchor="middle" x="577.5" y="-575.9" font-family="Helvetica,sans-Serif" font-size="10.00">lci::post_get_x::endpoint</text>
</a>
</g>
</g>
<!-- Node1&#45;&gt;Node11 -->
<g id="edge19_Node000001_Node000011" class="edge">
<title>Node1&#45;&gt;Node11</title>
<g id="a_edge19_Node000001_Node000011"><a xlink:title=" ">
<path fill="none" stroke="#63b8ff" d="M743.72,-413.12C732.84,-450.71 706.84,-521.81 658,-559.4 652.94,-563.29 647.2,-566.41 641.18,-568.89"/>
<polygon fill="#63b8ff" stroke="#63b8ff" points="747.1,-414.03 746.39,-403.46 740.35,-412.17 747.1,-414.03"/>
</a>
</g>
</g>
<!-- Node12 -->
<g id="Node000012" class="node">
<title>Node12</title>
<g id="a_Node000012"><a xlink:href="../../db/d54/classlci_1_1post__get__x.html#a807f8d570a90508b7fc4913ed305a1b6" target="_top" xlink:title=" ">
<polygon fill="white" stroke="#666666" points="636.5,-550.4 518.5,-550.4 518.5,-520.4 636.5,-520.4 636.5,-550.4"/>
<text text-anchor="start" x="526.5" y="-538.4" font-family="Helvetica,sans-Serif" font-size="10.00">lci::post_get_x::force</text>
<text text-anchor="middle" x="577.5" y="-527.4" font-family="Helvetica,sans-Serif" font-size="10.00">_zcopy</text>
</a>
</g>
</g>
<!-- Node1&#45;&gt;Node12 -->
<g id="edge22_Node000001_Node000012" class="edge">
<title>Node1&#45;&gt;Node12</title>
<g id="a_edge22_Node000001_Node000012"><a xlink:title=" ">
<path fill="none" stroke="#63b8ff" d="M737.92,-412.81C722.91,-440.67 694.73,-485.67 658,-511.4 651.5,-515.95 644.13,-519.65 636.56,-522.66"/>
<polygon fill="#63b8ff" stroke="#63b8ff" points="741.13,-414.22 742.67,-403.74 734.93,-410.97 741.13,-414.22"/>
</a>
</g>
</g>
<!-- Node13 -->
<g id="Node000013" class="node">
<title>Node13</title>
<g id="a_Node000013"><a xlink:href="../../db/d54/classlci_1_1post__get__x.html#a9e32fa2a7456e522a28fd65df221313e" target="_top" xlink:title=" ">
<polygon fill="white" stroke="#666666" points="635.5,-502.4 519.5,-502.4 519.5,-472.4 635.5,-472.4 635.5,-502.4"/>
<text text-anchor="start" x="527.5" y="-490.4" font-family="Helvetica,sans-Serif" font-size="10.00">lci::post_get_x::local</text>
<text text-anchor="middle" x="577.5" y="-479.4" font-family="Helvetica,sans-Serif" font-size="10.00">_buffer</text>
</a>
</g>
</g>
<!-- Node1&#45;&gt;Node13 -->
<g id="edge25_Node000001_Node000013" class="edge">
<title>Node1&#45;&gt;Node13</title>
<g id="a_edge25_Node000001_Node000013"><a xlink:title=" ">
<path fill="none" stroke="#63b8ff" d="M727.93,-410.62C710.33,-427.23 684.35,-449.39 658,-463.4 651,-467.12 643.34,-470.35 635.62,-473.13"/>
<polygon fill="#63b8ff" stroke="#63b8ff" points="730.62,-412.89 735.39,-403.43 725.76,-407.85 730.62,-412.89"/>
</a>
</g>
</g>
<!-- Node14 -->
<g id="Node000014" class="node">
<title>Node14</title>
<g id="a_Node000014"><a xlink:href="../../db/d54/classlci_1_1post__get__x.html#ae638454abf3d3c1dfa4eb39929f8fb80" target="_top" xlink:title=" ">
<polygon fill="white" stroke="#666666" points="652,-453.9 503,-453.9 503,-434.9 652,-434.9 652,-453.9"/>
<text text-anchor="middle" x="577.5" y="-441.9" font-family="Helvetica,sans-Serif" font-size="10.00">lci::post_get_x::local_comp</text>
</a>
</g>
</g>
<!-- Node1&#45;&gt;Node14 -->
<g id="edge28_Node000001_Node000014" class="edge">
<title>Node1&#45;&gt;Node14</title>
<g id="a_edge28_Node000001_Node000014"><a xlink:title=" ">
<path fill="none" stroke="#63b8ff" d="M707.97,-407.51C692.48,-414.09 674.64,-421.12 658,-426.4 648.02,-429.56 637.16,-432.4 626.78,-434.84"/>
<polygon fill="#63b8ff" stroke="#63b8ff" points="709.49,-410.67 717.29,-403.49 706.72,-404.24 709.49,-410.67"/>
</a>
</g>
</g>
<!-- Node15 -->
<g id="Node000015" class="node">
<title>Node15</title>
<g id="a_Node000015"><a xlink:href="../../db/d54/classlci_1_1post__get__x.html#a678b29957db320f2f8e7e85d25d38a15" target="_top" xlink:title=" ">
<polygon fill="white" stroke="#666666" points="631,-416.9 524,-416.9 524,-397.9 631,-397.9 631,-416.9"/>
<text text-anchor="middle" x="577.5" y="-404.9" font-family="Helvetica,sans-Serif" font-size="10.00">lci::post_get_x::mr</text>
</a>
</g>
</g>
<!-- Node1&#45;&gt;Node15 -->
<g id="edge31_Node000001_Node000015" class="edge">
<title>Node1&#45;&gt;Node15</title>
<g id="a_edge31_Node000001_Node000015"><a xlink:title=" ">
<path fill="none" stroke="#63b8ff" d="M683.71,-395.74C666.24,-397.68 647.63,-399.74 631,-401.58"/>
<polygon fill="#63b8ff" stroke="#63b8ff" points="684.29,-399.2 693.84,-394.62 683.52,-392.24 684.29,-399.2"/>
</a>
</g>
</g>
<!-- Node16 -->
<g id="Node000016" class="node">
<title>Node16</title>
<g id="a_Node000016"><a xlink:href="../../db/d54/classlci_1_1post__get__x.html#ab533de3b7fe1493b65171af6f8cd1fc3" target="_top" xlink:title=" ">
<polygon fill="white" stroke="#666666" points="653.5,-379.9 501.5,-379.9 501.5,-360.9 653.5,-360.9 653.5,-379.9"/>
<text text-anchor="middle" x="577.5" y="-367.9" font-family="Helvetica,sans-Serif" font-size="10.00">lci::post_get_x::packet_pool</text>
</a>
</g>
</g>
<!-- Node1&#45;&gt;Node16 -->
<g id="edge34_Node000001_Node000016" class="edge">
<title>Node1&#45;&gt;Node16</title>
<g id="a_edge34_Node000001_Node000016"><a xlink:title=" ">
<path fill="none" stroke="#63b8ff" d="M683.77,-381.45C673.96,-380.42 663.78,-379.35 653.8,-378.3"/>
<polygon fill="#63b8ff" stroke="#63b8ff" points="683.53,-384.94 693.84,-382.5 684.26,-377.98 683.53,-384.94"/>
</a>
</g>
</g>
<!-- Node17 -->
<g id="Node000017" class="node">
<title>Node17</title>
<g id="a_Node000017"><a xlink:href="../../db/d54/classlci_1_1post__get__x.html#ae00c61e2bc754a0ed46625ca9d44b04e" target="_top" xlink:title=" ">
<polygon fill="white" stroke="#666666" points="635,-342.9 520,-342.9 520,-323.9 635,-323.9 635,-342.9"/>
<text text-anchor="middle" x="577.5" y="-330.9" font-family="Helvetica,sans-Serif" font-size="10.00">lci::post_get_x::rank</text>
</a>
</g>
</g>
<!-- Node1&#45;&gt;Node17 -->
<g id="edge37_Node000001_Node000017" class="edge">
<title>Node1&#45;&gt;Node17</title>
<g id="a_edge37_Node000001_Node000017"><a xlink:title=" ">
<path fill="none" stroke="#63b8ff" d="M705.51,-369.56C690.57,-363.61 673.71,-357.32 658,-352.4 646.9,-348.92 634.75,-345.72 623.37,-342.97"/>
<polygon fill="#63b8ff" stroke="#63b8ff" points="704.44,-372.9 715.02,-373.39 707.06,-366.41 704.44,-372.9"/>
</a>
</g>
</g>
<!-- Node18 -->
<g id="Node000018" class="node">
<title>Node18</title>
<g id="a_Node000018"><a xlink:href="../../db/d54/classlci_1_1post__get__x.html#a4a5fcb0069be2cc6db139283432e6b10" target="_top" xlink:title=" ">
<polygon fill="white" stroke="#666666" points="643,-305.9 512,-305.9 512,-286.9 643,-286.9 643,-305.9"/>
<text text-anchor="middle" x="577.5" y="-293.9" font-family="Helvetica,sans-Serif" font-size="10.00">lci::post_get_x::rbuffers</text>
</a>
</g>
</g>
<!-- Node1&#45;&gt;Node18 -->
<g id="edge40_Node000001_Node000018" class="edge">
<title>Node1&#45;&gt;Node18</title>
<g id="a_edge40_Node000001_Node000018"><a xlink:title=" ">
<path fill="none" stroke="#63b8ff" d="M727.72,-366.06C710.2,-349.72 684.4,-328.24 658,-315.4 650.09,-311.55 641.35,-308.45 632.64,-305.97"/>
<polygon fill="#63b8ff" stroke="#63b8ff" points="725.52,-368.79 735.17,-373.16 730.35,-363.73 725.52,-368.79"/>
</a>
</g>
</g>
<!-- Node19 -->
<g id="Node000019" class="node">
<title>Node19</title>
<g id="a_Node000019"><a xlink:href="../../db/d54/classlci_1_1post__get__x.html#ae6450886db2f6ecfb35245d4049edcf1" target="_top" xlink:title=" ">
<polygon fill="white" stroke="#666666" points="641.5,-268.4 513.5,-268.4 513.5,-238.4 641.5,-238.4 641.5,-268.4"/>
<text text-anchor="start" x="521.5" y="-256.4" font-family="Helvetica,sans-Serif" font-size="10.00">lci::post_get_x::remote</text>
<text text-anchor="middle" x="577.5" y="-245.4" font-family="Helvetica,sans-Serif" font-size="10.00">_buffer</text>
</a>
</g>
</g>
<!-- Node1&#45;&gt;Node19 -->
<g id="edge43_Node000001_Node000019" class="edge">
<title>Node1&#45;&gt;Node19</title>
<g id="a_edge43_Node000001_Node000019"><a xlink:title=" ">
<path fill="none" stroke="#63b8ff" d="M736.01,-364.73C720.11,-339.8 691.91,-301.08 658,-278.4 652.23,-274.54 645.82,-271.25 639.23,-268.45"/>
<polygon fill="#63b8ff" stroke="#63b8ff" points="733.04,-366.59 741.3,-373.23 738.99,-362.89 733.04,-366.59"/>
</a>
</g>
</g>
<!-- Node20 -->
<g id="Node000020" class="node">
<title>Node20</title>
<g id="a_Node000020"><a xlink:href="../../db/d54/classlci_1_1post__get__x.html#a9fcca224387844ef97c4437af444faec" target="_top" xlink:title=" ">
<polygon fill="white" stroke="#666666" points="658,-219.9 497,-219.9 497,-200.9 658,-200.9 658,-219.9"/>
<text text-anchor="middle" x="577.5" y="-207.9" font-family="Helvetica,sans-Serif" font-size="10.00">lci::post_get_x::remote_comp</text>
</a>
</g>
</g>
<!-- Node1&#45;&gt;Node20 -->
<g id="edge46_Node000001_Node000020" class="edge">
<title>Node1&#45;&gt;Node20</title>
<g id="a_edge46_Node000001_Node000020"><a xlink:title=" ">
<path fill="none" stroke="#63b8ff" d="M742.52,-363.33C730.61,-327.87 703.85,-263.57 658,-229.4 652.77,-225.5 646.85,-222.39 640.66,-219.9"/>
<polygon fill="#63b8ff" stroke="#63b8ff" points="739.22,-364.5 745.62,-372.94 745.88,-362.35 739.22,-364.5"/>
</a>
</g>
</g>
<!-- Node21 -->
<g id="Node000021" class="node">
<title>Node21</title>
<g id="a_Node000021"><a xlink:href="../../db/d54/classlci_1_1post__get__x.html#a96066c719819fe7d159096f611f3ce40" target="_top" xlink:title=" ">
<polygon fill="white" stroke="#666666" points="632.5,-182.9 522.5,-182.9 522.5,-163.9 632.5,-163.9 632.5,-182.9"/>
<text text-anchor="middle" x="577.5" y="-170.9" font-family="Helvetica,sans-Serif" font-size="10.00">lci::post_get_x::rmr</text>
</a>
</g>
</g>
<!-- Node1&#45;&gt;Node21 -->
<g id="edge49_Node000001_Node000021" class="edge">
<title>Node1&#45;&gt;Node21</title>
<g id="a_edge49_Node000001_Node000021"><a xlink:title=" ">
<path fill="none" stroke="#63b8ff" d="M745.46,-363.17C736.53,-321.09 712.57,-236.82 658,-192.4 650.74,-186.49 641.93,-182.36 632.87,-179.49"/>
<polygon fill="#63b8ff" stroke="#63b8ff" points="742.06,-364.03 747.46,-373.14 748.93,-362.65 742.06,-364.03"/>
</a>
</g>
</g>
<!-- Node22 -->
<g id="Node000022" class="node">
<title>Node22</title>
<g id="a_Node000022"><a xlink:href="../../db/d54/classlci_1_1post__get__x.html#ac3b93ca830abcb7bb56e268915fad980" target="_top" xlink:title=" ">
<polygon fill="white" stroke="#666666" points="643,-145.9 512,-145.9 512,-126.9 643,-126.9 643,-145.9"/>
<text text-anchor="middle" x="577.5" y="-133.9" font-family="Helvetica,sans-Serif" font-size="10.00">lci::post_get_x::runtime</text>
</a>
</g>
</g>
<!-- Node1&#45;&gt;Node22 -->
<g id="edge52_Node000001_Node000022" class="edge">
<title>Node1&#45;&gt;Node22</title>
<g id="a_edge52_Node000001_Node000022"><a xlink:title=" ">
<path fill="none" stroke="#63b8ff" d="M747.54,-362.98C741.49,-314.87 721.39,-210.4 658,-155.4 653.61,-151.59 648.58,-148.51 643.24,-146.02"/>
<polygon fill="#63b8ff" stroke="#63b8ff" points="744.09,-363.62 748.72,-373.15 751.05,-362.81 744.09,-363.62"/>
</a>
</g>
</g>
<!-- Node23 -->
<g id="Node000023" class="node">
<title>Node23</title>
<g id="a_Node000023"><a xlink:href="../../db/d54/classlci_1_1post__get__x.html#acd5ead27a3560139798f7c39431cbdf4" target="_top" xlink:title=" ">
<polygon fill="white" stroke="#666666" points="634,-108.9 521,-108.9 521,-89.9 634,-89.9 634,-108.9"/>
<text text-anchor="middle" x="577.5" y="-96.9" font-family="Helvetica,sans-Serif" font-size="10.00">lci::post_get_x::size</text>
</a>
</g>
</g>
<!-- Node1&#45;&gt;Node23 -->
<g id="edge55_Node000001_Node000023" class="edge">
<title>Node1&#45;&gt;Node23</title>
<g id="a_edge55_Node000001_Node000023"><a xlink:title=" ">
<path fill="none" stroke="#63b8ff" d="M749.13,-363.16C745.87,-309.66 730.46,-184.36 658,-118.4 651.28,-112.28 642.96,-108.04 634.24,-105.11"/>
<polygon fill="#63b8ff" stroke="#63b8ff" points="745.64,-363.34 749.65,-373.15 752.63,-362.98 745.64,-363.34"/>
</a>
</g>
</g>
<!-- Node24 -->
<g id="Node000024" class="node">
<title>Node24</title>
<g id="a_Node000024"><a xlink:href="../../db/d54/classlci_1_1post__get__x.html#a2a87093d9d3e41f5fc2da87df7a4db28" target="_top" xlink:title=" ">
<polygon fill="white" stroke="#666666" points="632,-71.9 523,-71.9 523,-52.9 632,-52.9 632,-71.9"/>
<text text-anchor="middle" x="577.5" y="-59.9" font-family="Helvetica,sans-Serif" font-size="10.00">lci::post_get_x::tag</text>
</a>
</g>
</g>
<!-- Node1&#45;&gt;Node24 -->
<g id="edge58_Node000001_Node000024" class="edge">
<title>Node1&#45;&gt;Node24</title>
<g id="a_edge58_Node000001_Node000024"><a xlink:title=" ">
<path fill="none" stroke="#63b8ff" d="M750.35,-363.06C749.7,-304.4 739.49,-158.41 658,-81.4 650.88,-74.67 641.83,-70.19 632.39,-67.24"/>
<polygon fill="#63b8ff" stroke="#63b8ff" points="746.85,-363.28 750.37,-373.27 753.85,-363.27 746.85,-363.28"/>
</a>
</g>
</g>
<!-- Node25 -->
<g id="Node000025" class="node">
<title>Node25</title>
<g id="a_Node000025"><a xlink:href="../../db/d54/classlci_1_1post__get__x.html#ae8ab8b05f92e3637b69c694780a1f02e" target="_top" xlink:title=" ">
<polygon fill="white" stroke="#666666" points="634.5,-34.4 520.5,-34.4 520.5,-4.4 634.5,-4.4 634.5,-34.4"/>
<text text-anchor="start" x="528.5" y="-22.4" font-family="Helvetica,sans-Serif" font-size="10.00">lci::post_get_x::user</text>
<text text-anchor="middle" x="577.5" y="-11.4" font-family="Helvetica,sans-Serif" font-size="10.00">_context</text>
</a>
</g>
</g>
<!-- Node1&#45;&gt;Node25 -->
<g id="edge61_Node000001_Node000025" class="edge">
<title>Node1&#45;&gt;Node25</title>
<g id="a_edge61_Node000001_Node000025"><a xlink:title=" ">
<path fill="none" stroke="#63b8ff" d="M746.5,-363.24C736.09,-291.85 703.21,-90.11 658,-43.4 651.58,-36.77 643.41,-31.95 634.75,-28.46"/>
<polygon fill="#63b8ff" stroke="#63b8ff" points="743.04,-363.77 747.93,-373.17 749.97,-362.77 743.04,-363.77"/>
</a>
</g>
</g>
<!-- Node3 -->
<g id="Node000003" class="node">
<title>Node3</title>
<g id="a_Node000003"><a xlink:href="../../db/d54/classlci_1_1post__get__x.html#adadc688f0e9e014ac2f0d2a49ab89ce7" target="_top" xlink:title=" ">
<polygon fill="white" stroke="#666666" points="288,-409.9 178,-409.9 178,-390.9 288,-390.9 288,-409.9"/>
<text text-anchor="middle" x="233" y="-397.9" font-family="Helvetica,sans-Serif" font-size="10.00">lci::post_get_x::call</text>
</a>
</g>
</g>
<!-- Node2&#45;&gt;Node3 -->
<g id="edge2_Node000002_Node000003" class="edge">
<title>Node2&#45;&gt;Node3</title>
<g id="a_edge2_Node000002_Node000003"><a xlink:title=" ">
<path fill="none" stroke="#63b8ff" d="M492.87,-784.57C437.89,-778.93 368.19,-762.6 324,-718.4 233.33,-627.71 232.38,-452.99 233.6,-410.09"/>
<polygon fill="#63b8ff" stroke="#63b8ff" points="492.67,-788.07 502.95,-785.51 493.32,-781.1 492.67,-788.07"/>
</a>
</g>
</g>
<!-- Node6 -->
<g id="Node000006" class="node">
<title>Node6</title>
<g id="a_Node000006"><a xlink:href="../../db/d54/classlci_1_1post__get__x.html#a5eb9cbfc230daee972aaa5d39f6f043d" target="_top" xlink:title=" ">
<polygon fill="white" stroke="#666666" points="461,-409.9 324,-409.9 324,-390.9 461,-390.9 461,-409.9"/>
<text text-anchor="middle" x="392.5" y="-397.9" font-family="Helvetica,sans-Serif" font-size="10.00">lci::post_get_x::call_impl</text>
</a>
</g>
</g>
<!-- Node2&#45;&gt;Node6 -->
<g id="edge5_Node000002_Node000006" class="edge">
<title>Node2&#45;&gt;Node6</title>
<g id="a_edge5_Node000002_Node000006"><a xlink:title=" ">
<path fill="none" stroke="#63b8ff" d="M501.74,-771.41C500.08,-770.17 498.5,-768.84 497,-767.4 442.33,-714.89 402.65,-462.65 394.89,-410.03"/>
<polygon fill="#63b8ff" stroke="#63b8ff" points="500.23,-774.59 510.58,-776.85 503.9,-768.63 500.23,-774.59"/>
</a>
</g>
</g>
<!-- Node4 -->
<g id="Node000004" class="node">
<title>Node4</title>
<g id="a_Node000004"><a xlink:href="../../db/d54/classlci_1_1post__get__x.html#a6a53f5f322f9e78d633f603f3a9eeb9a" target="_top" xlink:title=" ">
<polygon fill="white" stroke="#666666" points="142,-428.9 0,-428.9 0,-409.9 142,-409.9 142,-428.9"/>
<text text-anchor="middle" x="71" y="-416.9" font-family="Helvetica,sans-Serif" font-size="10.00">lci::post_get_x::operator()</text>
</a>
</g>
</g>
<!-- Node3&#45;&gt;Node4 -->
<g id="edge3_Node000003_Node000004" class="edge">
<title>Node3&#45;&gt;Node4</title>
<g id="a_edge3_Node000003_Node000004"><a xlink:title=" ">
<path fill="none" stroke="#63b8ff" d="M167.75,-408.03C159.37,-409.02 150.75,-410.05 142.28,-411.05"/>
<polygon fill="#63b8ff" stroke="#63b8ff" points="168.31,-411.49 177.83,-406.83 167.49,-404.53 168.31,-411.49"/>
</a>
</g>
</g>
<!-- Node5 -->
<g id="Node000005" class="node">
<title>Node5</title>
<g id="a_Node000005"><a xlink:href="../../d5/dd3/namespacelci.html#aa8699c7e6789015986e682714ece3b20" target="_top" xlink:title=" ">
<polygon fill="white" stroke="#666666" points="109,-391.9 33,-391.9 33,-372.9 109,-372.9 109,-391.9"/>
<text text-anchor="middle" x="71" y="-379.9" font-family="Helvetica,sans-Serif" font-size="10.00">lci::post_get</text>
</a>
</g>
</g>
<!-- Node3&#45;&gt;Node5 -->
<g id="edge4_Node000003_Node000005" class="edge">
<title>Node3&#45;&gt;Node5</title>
<g id="a_edge4_Node000003_Node000005"><a xlink:title=" ">
<path fill="none" stroke="#63b8ff" d="M167.64,-393.16C147.88,-390.94 126.79,-388.56 109.46,-386.61"/>
<polygon fill="#63b8ff" stroke="#63b8ff" points="167.5,-396.66 177.83,-394.3 168.29,-389.71 167.5,-396.66"/>
</a>
</g>
</g>
<!-- Node6&#45;&gt;Node3 -->
<g id="edge6_Node000006_Node000003" class="edge">
<title>Node6&#45;&gt;Node3</title>
<g id="a_edge6_Node000006_Node000003"><a xlink:title=" ">
<path fill="none" stroke="#63b8ff" d="M313.75,-400.4C305.16,-400.4 296.56,-400.4 288.35,-400.4"/>
<polygon fill="#63b8ff" stroke="#63b8ff" points="313.79,-403.9 323.79,-400.4 313.79,-396.9 313.79,-403.9"/>
</a>
</g>
</g>
<!-- Node7&#45;&gt;Node3 -->
<g id="edge8_Node000007_Node000003" class="edge">
<title>Node7&#45;&gt;Node3</title>
<g id="a_edge8_Node000007_Node000003"><a xlink:title=" ">
<path fill="none" stroke="#63b8ff" d="M507.53,-741.83C451.27,-736.92 373.3,-721.27 324,-674.4 243.8,-598.16 235,-449.35 234.09,-410.09"/>
<polygon fill="#63b8ff" stroke="#63b8ff" points="507.53,-745.34 517.77,-742.63 508.08,-738.36 507.53,-745.34"/>
</a>
</g>
</g>
<!-- Node7&#45;&gt;Node6 -->
<g id="edge9_Node000007_Node000006" class="edge">
<title>Node7&#45;&gt;Node6</title>
<g id="a_edge9_Node000007_Node000006"><a xlink:title=" ">
<path fill="none" stroke="#63b8ff" d="M508.68,-728.26C504.44,-725.74 500.49,-722.81 497,-719.4 404.04,-628.33 394.51,-453.13 393.59,-410.11"/>
<polygon fill="#63b8ff" stroke="#63b8ff" points="507.21,-731.44 517.71,-732.86 510.39,-725.2 507.21,-731.44"/>
</a>
</g>
</g>
<!-- Node8&#45;&gt;Node3 -->
<g id="edge11_Node000008_Node000003" class="edge">
<title>Node8&#45;&gt;Node3</title>
<g id="a_edge11_Node000008_Node000003"><a xlink:title=" ">
<path fill="none" stroke="#63b8ff" d="M507.75,-695.26C451.97,-691.58 374.57,-677.89 324,-633.4 253.02,-570.96 237.66,-445.9 234.67,-410.15"/>
<polygon fill="#63b8ff" stroke="#63b8ff" points="507.71,-698.76 517.9,-695.83 508.11,-691.77 507.71,-698.76"/>
</a>
</g>
</g>
<!-- Node8&#45;&gt;Node6 -->
<g id="edge12_Node000008_Node000006" class="edge">
<title>Node8&#45;&gt;Node6</title>
<g id="a_edge12_Node000008_Node000006"><a xlink:title=" ">
<path fill="none" stroke="#63b8ff" d="M508.87,-680.06C504.59,-677.59 500.57,-674.72 497,-671.4 415.53,-595.56 397.59,-448.7 394.21,-409.96"/>
<polygon fill="#63b8ff" stroke="#63b8ff" points="507.46,-683.26 517.97,-684.59 510.58,-677 507.46,-683.26"/>
</a>
</g>
</g>
<!-- Node9&#45;&gt;Node3 -->
<g id="edge14_Node000009_Node000003" class="edge">
<title>Node9&#45;&gt;Node3</title>
<g id="a_edge14_Node000009_Node000003"><a xlink:title=" ">
<path fill="none" stroke="#63b8ff" d="M503.77,-651.99C448.87,-648.07 374.6,-634.62 324,-593.4 262.66,-543.43 240.98,-442.14 235.52,-410.24"/>
<polygon fill="#63b8ff" stroke="#63b8ff" points="503.59,-655.49 513.79,-652.62 504.02,-648.5 503.59,-655.49"/>
</a>
</g>
</g>
<!-- Node9&#45;&gt;Node6 -->
<g id="edge15_Node000009_Node000006" class="edge">
<title>Node9&#45;&gt;Node6</title>
<g id="a_edge15_Node000009_Node000006"><a xlink:title=" ">
<path fill="none" stroke="#63b8ff" d="M504.79,-639.79C502.05,-638.19 499.43,-636.4 497,-634.4 422.22,-572.87 399.75,-446.44 394.72,-410.27"/>
<polygon fill="#63b8ff" stroke="#63b8ff" points="503.41,-643.01 513.93,-644.28 506.49,-636.73 503.41,-643.01"/>
</a>
</g>
</g>
<!-- Node10&#45;&gt;Node3 -->
<g id="edge17_Node000010_Node000003" class="edge">
<title>Node10&#45;&gt;Node3</title>
<g id="a_edge17_Node000010_Node000003"><a xlink:title=" ">
<path fill="none" stroke="#63b8ff" d="M504.67,-612.69C450.3,-607.35 376.31,-592.67 324,-553.4 272.5,-514.72 245.1,-437.22 236.78,-410.07"/>
<polygon fill="#63b8ff" stroke="#63b8ff" points="504.66,-616.21 514.93,-613.61 505.28,-609.23 504.66,-616.21"/>
</a>
</g>
</g>
<!-- Node10&#45;&gt;Node6 -->
<g id="edge18_Node000010_Node000006" class="edge">
<title>Node10&#45;&gt;Node6</title>
<g id="a_edge18_Node000010_Node000006"><a xlink:title=" ">
<path fill="none" stroke="#63b8ff" d="M505.41,-602.84C502.46,-601.23 499.64,-599.42 497,-597.4 431.12,-546.81 402.9,-442.24 395.54,-410.05"/>
<polygon fill="#63b8ff" stroke="#63b8ff" points="504.06,-606.07 514.6,-607.1 507,-599.72 504.06,-606.07"/>
</a>
</g>
</g>
<!-- Node11&#45;&gt;Node3 -->
<g id="edge20_Node000011_Node000003" class="edge">
<title>Node11&#45;&gt;Node3</title>
<g id="a_edge20_Node000011_Node000003"><a xlink:title=" ">
<path fill="none" stroke="#63b8ff" d="M499.22,-572.42C446.33,-565.29 376.53,-549.66 324,-515.4 281.32,-487.56 250.18,-432.54 238.77,-410.19"/>
<polygon fill="#63b8ff" stroke="#63b8ff" points="498.87,-575.9 509.23,-573.69 499.75,-568.96 498.87,-575.9"/>
</a>
</g>
</g>
<!-- Node11&#45;&gt;Node6 -->
<g id="edge21_Node000011_Node000006" class="edge">
<title>Node11&#45;&gt;Node6</title>
<g id="a_edge21_Node000011_Node000006"><a xlink:title=" ">
<path fill="none" stroke="#63b8ff" d="M505.63,-564.6C502.62,-563.05 499.73,-561.32 497,-559.4 440.47,-519.54 407.04,-438.08 396.85,-410.09"/>
<polygon fill="#63b8ff" stroke="#63b8ff" points="504.4,-567.89 514.95,-568.77 507.25,-561.5 504.4,-567.89"/>
</a>
</g>
</g>
<!-- Node12&#45;&gt;Node3 -->
<g id="edge23_Node000012_Node000003" class="edge">
<title>Node12&#45;&gt;Node3</title>
<g id="a_edge23_Node000012_Node000003"><a xlink:title=" ">
<path fill="none" stroke="#63b8ff" d="M508,-530.42C455.3,-524.35 381.93,-510.95 324,-481.4 288.42,-463.25 256.08,-427.42 241.77,-410.15"/>
<polygon fill="#63b8ff" stroke="#63b8ff" points="507.93,-533.93 518.25,-531.53 508.69,-526.97 507.93,-533.93"/>
</a>
</g>
</g>
<!-- Node12&#45;&gt;Node6 -->
<g id="edge24_Node000012_Node000006" class="edge">
<title>Node12&#45;&gt;Node6</title>
<g id="a_edge24_Node000012_Node000006"><a xlink:title=" ">
<path fill="none" stroke="#63b8ff" d="M509.1,-517.88C504.89,-515.93 500.82,-513.78 497,-511.4 452.26,-483.55 414.26,-431.47 399.77,-410.01"/>
<polygon fill="#63b8ff" stroke="#63b8ff" points="507.89,-521.17 518.47,-521.84 510.61,-514.72 507.89,-521.17"/>
</a>
</g>
</g>
<!-- Node13&#45;&gt;Node3 -->
<g id="edge26_Node000013_Node000003" class="edge">
<title>Node13&#45;&gt;Node3</title>
<g id="a_edge26_Node000013_Node000003"><a xlink:title=" ">
<path fill="none" stroke="#63b8ff" d="M509.23,-486.05C457.35,-483.25 384.47,-475.46 324,-454.4 293.89,-443.91 262.89,-422.53 246.28,-410.05"/>
<polygon fill="#63b8ff" stroke="#63b8ff" points="509.16,-489.55 519.32,-486.55 509.5,-482.56 509.16,-489.55"/>
</a>
</g>
</g>
<!-- Node13&#45;&gt;Node6 -->
<g id="edge27_Node000013_Node000006" class="edge">
<title>Node13&#45;&gt;Node6</title>
<g id="a_edge27_Node000013_Node000006"><a xlink:title=" ">
<path fill="none" stroke="#63b8ff" d="M510.62,-468.95C505.96,-467.2 501.38,-465.35 497,-463.4 462.62,-448.04 425.72,-423.36 406.63,-409.9"/>
<polygon fill="#63b8ff" stroke="#63b8ff" points="509.65,-472.32 520.25,-472.37 512,-465.72 509.65,-472.32"/>
</a>
</g>
</g>
<!-- Node14&#45;&gt;Node3 -->
<g id="edge29_Node000014_Node000003" class="edge">
<title>Node14&#45;&gt;Node3</title>
<g id="a_edge29_Node000014_Node000003"><a xlink:title=" ">
<path fill="none" stroke="#63b8ff" d="M492.8,-447.77C443.25,-448.12 379.51,-445.67 324,-434.4 298.96,-429.31 271.7,-418.16 253.82,-410.01"/>
<polygon fill="#63b8ff" stroke="#63b8ff" points="492.87,-451.27 502.83,-447.66 492.79,-444.27 492.87,-451.27"/>
</a>
</g>
</g>
<!-- Node14&#45;&gt;Node6 -->
<g id="edge30_Node000014_Node000006" class="edge">
<title>Node14&#45;&gt;Node6</title>
<g id="a_edge30_Node000014_Node000006"><a xlink:title=" ">
<path fill="none" stroke="#63b8ff" d="M523.64,-432.61C514.74,-430.58 505.6,-428.45 497,-426.4 475.02,-421.15 450.48,-415 430.82,-410"/>
<polygon fill="#63b8ff" stroke="#63b8ff" points="523.02,-436.06 533.55,-434.87 524.57,-429.24 523.02,-436.06"/>
</a>
</g>
</g>
<!-- Node15&#45;&gt;Node3 -->
<g id="edge32_Node000015_Node000003" class="edge">
<title>Node15&#45;&gt;Node3</title>
<g id="a_edge32_Node000015_Node000003"><a xlink:title=" ">
<path fill="none" stroke="#63b8ff" d="M513.41,-415.68C462.25,-421.12 388.32,-426.11 324,-419.4 306.21,-417.54 286.76,-413.67 270.51,-409.91"/>
<polygon fill="#63b8ff" stroke="#63b8ff" points="514.1,-419.12 523.66,-414.55 513.33,-412.16 514.1,-419.12"/>
</a>
</g>
</g>
<!-- Node15&#45;&gt;Node6 -->
<g id="edge33_Node000015_Node000006" class="edge">
<title>Node15&#45;&gt;Node6</title>
<g id="a_edge33_Node000015_Node000006"><a xlink:title=" ">
<path fill="none" stroke="#63b8ff" d="M513.33,-404.98C496.54,-404.34 478.35,-403.64 461.33,-402.99"/>
<polygon fill="#63b8ff" stroke="#63b8ff" points="513.44,-408.49 523.57,-405.37 513.71,-401.49 513.44,-408.49"/>
</a>
</g>
</g>
<!-- Node16&#45;&gt;Node3 -->
<g id="edge35_Node000016_Node000003" class="edge">
<title>Node16&#45;&gt;Node3</title>
<g id="a_edge35_Node000016_Node000003"><a xlink:title=" ">
<path fill="none" stroke="#63b8ff" d="M491.14,-371.28C442.09,-372.57 379.41,-375.58 324,-382.4 307.87,-384.38 290.3,-387.64 275.01,-390.85"/>
<polygon fill="#63b8ff" stroke="#63b8ff" points="491.49,-374.77 501.4,-371.03 491.31,-367.77 491.49,-374.77"/>
</a>
</g>
</g>
<!-- Node16&#45;&gt;Node6 -->
<g id="edge36_Node000016_Node000006" class="edge">
<title>Node16&#45;&gt;Node6</title>
<g id="a_edge36_Node000016_Node000006"><a xlink:title=" ">
<path fill="none" stroke="#63b8ff" d="M508.41,-381.56C489.7,-384.63 469.59,-387.92 451.5,-390.89"/>
<polygon fill="#63b8ff" stroke="#63b8ff" points="509.04,-385 518.35,-379.93 507.91,-378.1 509.04,-385"/>
</a>
</g>
</g>
<!-- Node17&#45;&gt;Node3 -->
<g id="edge38_Node000017_Node000003" class="edge">
<title>Node17&#45;&gt;Node3</title>
<g id="a_edge38_Node000017_Node000003"><a xlink:title=" ">
<path fill="none" stroke="#63b8ff" d="M509.75,-338.91C458.44,-344.04 386.07,-353.23 324,-368.4 300.64,-374.11 274.87,-383.61 256.91,-390.79"/>
<polygon fill="#63b8ff" stroke="#63b8ff" points="510.11,-342.39 519.72,-337.93 509.43,-335.42 510.11,-342.39"/>
</a>
</g>
</g>
<!-- Node17&#45;&gt;Node6 -->
<g id="edge39_Node000017_Node000006" class="edge">
<title>Node17&#45;&gt;Node6</title>
<g id="a_edge39_Node000017_Node000006"><a xlink:title=" ">
<path fill="none" stroke="#63b8ff" d="M520,-345.42C512.2,-347.51 504.35,-349.84 497,-352.4 465.94,-363.19 431.64,-380.17 411.37,-390.77"/>
<polygon fill="#63b8ff" stroke="#63b8ff" points="520.99,-348.78 529.81,-342.91 519.25,-342 520.99,-348.78"/>
</a>
</g>
</g>
<!-- Node18&#45;&gt;Node3 -->
<g id="edge41_Node000018_Node000003" class="edge">
<title>Node18&#45;&gt;Node3</title>
<g id="a_edge41_Node000018_Node000003"><a xlink:title=" ">
<path fill="none" stroke="#63b8ff" d="M501.93,-301.24C450.45,-306.52 381.23,-317.52 324,-340.4 292.79,-352.87 261.22,-377.24 245.06,-390.77"/>
<polygon fill="#63b8ff" stroke="#63b8ff" points="502.37,-304.71 511.99,-300.26 501.69,-297.75 502.37,-304.71"/>
</a>
</g>
</g>
<!-- Node18&#45;&gt;Node6 -->
<g id="edge42_Node000018_Node000006" class="edge">
<title>Node18&#45;&gt;Node6</title>
<g id="a_edge42_Node000018_Node000006"><a xlink:title=" ">
<path fill="none" stroke="#63b8ff" d="M512.29,-309.03C507.01,-310.88 501.85,-312.99 497,-315.4 457.02,-335.26 418.79,-373.14 402.18,-390.84"/>
<polygon fill="#63b8ff" stroke="#63b8ff" points="513.42,-312.34 521.88,-305.97 511.29,-305.67 513.42,-312.34"/>
</a>
</g>
</g>
<!-- Node19&#45;&gt;Node3 -->
<g id="edge44_Node000019_Node000003" class="edge">
<title>Node19&#45;&gt;Node3</title>
<g id="a_edge44_Node000019_Node000003"><a xlink:title=" ">
<path fill="none" stroke="#63b8ff" d="M503.06,-255.55C450.3,-259.87 379.08,-271.6 324,-302.4 284.28,-324.61 252.4,-370.67 239.81,-390.72"/>
<polygon fill="#63b8ff" stroke="#63b8ff" points="503.64,-259.01 513.35,-254.78 503.12,-252.03 503.64,-259.01"/>
</a>
</g>
</g>
<!-- Node19&#45;&gt;Node6 -->
<g id="edge45_Node000019_Node000006" class="edge">
<title>Node19&#45;&gt;Node6</title>
<g id="a_edge45_Node000019_Node000006"><a xlink:title=" ">
<path fill="none" stroke="#63b8ff" d="M506.69,-272.74C503.32,-274.48 500.07,-276.36 497,-278.4 450.02,-309.58 412.47,-368.02 398.93,-390.89"/>
<polygon fill="#63b8ff" stroke="#63b8ff" points="508.22,-275.89 515.8,-268.49 505.25,-269.55 508.22,-275.89"/>
</a>
</g>
</g>
<!-- Node20&#45;&gt;Node3 -->
<g id="edge47_Node000020_Node000003" class="edge">
<title>Node20&#45;&gt;Node3</title>
<g id="a_edge47_Node000020_Node000003"><a xlink:title=" ">
<path fill="none" stroke="#63b8ff" d="M486.73,-209.31C435.21,-212.71 371.53,-224.15 324,-256.4 273.26,-290.83 245.56,-364.37 236.95,-390.74"/>
<polygon fill="#63b8ff" stroke="#63b8ff" points="487.08,-212.79 496.87,-208.73 486.68,-205.8 487.08,-212.79"/>
</a>
</g>
</g>
<!-- Node20&#45;&gt;Node6 -->
<g id="edge48_Node000020_Node000006" class="edge">
<title>Node20&#45;&gt;Node6</title>
<g id="a_edge48_Node000020_Node000006"><a xlink:title=" ">
<path fill="none" stroke="#63b8ff" d="M505.09,-224.33C502.27,-225.85 499.55,-227.53 497,-229.4 437.58,-272.77 405.59,-361.58 396.36,-390.82"/>
<polygon fill="#63b8ff" stroke="#63b8ff" points="506.82,-227.39 514.42,-220.01 503.88,-221.03 506.82,-227.39"/>
</a>
</g>
</g>
<!-- Node21&#45;&gt;Node3 -->
<g id="edge50_Node000021_Node000003" class="edge">
<title>Node21&#45;&gt;Node3</title>
<g id="a_edge50_Node000021_Node000003"><a xlink:title=" ">
<path fill="none" stroke="#63b8ff" d="M512.45,-165.97C457.31,-163.03 378.26,-167.49 324,-207.4 259.97,-254.49 240.01,-358.61 235.26,-390.76"/>
<polygon fill="#63b8ff" stroke="#63b8ff" points="512.26,-169.46 522.46,-166.59 512.7,-162.47 512.26,-169.46"/>
</a>
</g>
</g>
<!-- Node21&#45;&gt;Node6 -->
<g id="edge51_Node000021_Node000006" class="edge">
<title>Node21&#45;&gt;Node6</title>
<g id="a_edge51_Node000021_Node000006"><a xlink:title=" ">
<path fill="none" stroke="#63b8ff" d="M512.61,-183.21C507.01,-185.64 501.7,-188.66 497,-192.4 428.81,-246.63 402.01,-357.42 395.3,-390.72"/>
<polygon fill="#63b8ff" stroke="#63b8ff" points="514.09,-186.39 522.24,-179.63 511.65,-179.83 514.09,-186.39"/>
</a>
</g>
</g>
<!-- Node22&#45;&gt;Node3 -->
<g id="edge53_Node000022_Node000003" class="edge">
<title>Node22&#45;&gt;Node3</title>
<g id="a_edge53_Node000022_Node000003"><a xlink:title=" ">
<path fill="none" stroke="#63b8ff" d="M515.51,-125.66C459.9,-119.43 378.36,-119.67 324,-161.4 246.8,-220.66 235.82,-354 234.26,-390.82"/>
<polygon fill="#63b8ff" stroke="#63b8ff" points="515.22,-129.15 525.57,-126.89 516.07,-122.2 515.22,-129.15"/>
</a>
</g>
</g>
<!-- Node22&#45;&gt;Node6 -->
<g id="edge54_Node000022_Node000006" class="edge">
<title>Node22&#45;&gt;Node6</title>
<g id="a_edge54_Node000022_Node000006"><a xlink:title=" ">
<path fill="none" stroke="#63b8ff" d="M503.31,-150.76C501.1,-152.17 498.99,-153.71 497,-155.4 419.67,-220.91 398.86,-354.2 394.5,-390.87"/>
<polygon fill="#63b8ff" stroke="#63b8ff" points="505.1,-153.77 512.25,-145.96 501.79,-147.61 505.1,-153.77"/>
</a>
</g>
</g>
<!-- Node23&#45;&gt;Node3 -->
<g id="edge56_Node000023_Node000003" class="edge">
<title>Node23&#45;&gt;Node3</title>
<g id="a_edge56_Node000023_Node000003"><a xlink:title=" ">
<path fill="none" stroke="#63b8ff" d="M526.21,-88.05C470.61,-78.62 381.32,-73.13 324,-118.4 234.27,-189.27 232.53,-349.97 233.61,-390.82"/>
<polygon fill="#63b8ff" stroke="#63b8ff" points="525.73,-91.52 536.19,-89.84 526.97,-84.63 525.73,-91.52"/>
</a>
</g>
</g>
<!-- Node23&#45;&gt;Node6 -->
<g id="edge57_Node000023_Node000006" class="edge">
<title>Node23&#45;&gt;Node6</title>
<g id="a_edge57_Node000023_Node000006"><a xlink:title=" ">
<path fill="none" stroke="#63b8ff" d="M511.28,-109.1C506.1,-111.57 501.24,-114.63 497,-118.4 410.48,-195.33 396.18,-350.9 393.91,-390.87"/>
<polygon fill="#63b8ff" stroke="#63b8ff" points="512.9,-112.22 520.87,-105.25 510.29,-105.72 512.9,-112.22"/>
</a>
</g>
</g>
<!-- Node24&#45;&gt;Node3 -->
<g id="edge59_Node000024_Node000003" class="edge">
<title>Node24&#45;&gt;Node3</title>
<g id="a_edge59_Node000024_Node000003"><a xlink:title=" ">
<path fill="none" stroke="#63b8ff" d="M531.12,-50.73C475.83,-39.42 382.54,-30.13 324,-77.4 272.48,-118.99 241.45,-341.75 235.18,-390.83"/>
<polygon fill="#63b8ff" stroke="#63b8ff" points="530.48,-54.17 540.99,-52.85 531.95,-47.32 530.48,-54.17"/>
</a>
</g>
</g>
<!-- Node24&#45;&gt;Node6 -->
<g id="edge60_Node000024_Node000006" class="edge">
<title>Node24&#45;&gt;Node6</title>
<g id="a_edge60_Node000024_Node000006"><a xlink:title=" ">
<path fill="none" stroke="#63b8ff" d="M513.18,-70.96C507.26,-73.63 501.72,-77.04 497,-81.4 401.2,-169.9 393.81,-347.76 393.46,-390.84"/>
<polygon fill="#63b8ff" stroke="#63b8ff" points="514.6,-74.17 522.73,-67.37 512.13,-67.61 514.6,-74.17"/>
</a>
</g>
</g>
<!-- Node25&#45;&gt;Node3 -->
<g id="edge62_Node000025_Node000003" class="edge">
<title>Node25&#45;&gt;Node3</title>
<g id="a_edge62_Node000025_Node000003"><a xlink:title=" ">
<path fill="none" stroke="#63b8ff" d="M510.14,-4.85C454.05,3.33 374.91,4.58 324,-38.4 267.34,-86.23 240.03,-338.16 234.9,-390.76"/>
<polygon fill="#63b8ff" stroke="#63b8ff" points="509.91,-8.35 520.33,-6.44 511,-1.44 509.91,-8.35"/>
</a>
</g>
</g>
<!-- Node25&#45;&gt;Node6 -->
<g id="edge63_Node000025_Node000006" class="edge">
<title>Node25&#45;&gt;Node6</title>
<g id="a_edge63_Node000025_Node000006"><a xlink:title=" ">
<path fill="none" stroke="#63b8ff" d="M511.26,-32.86C506.02,-35.72 501.16,-39.2 497,-43.4 394.67,-146.86 392.31,-345.05 393.2,-390.81"/>
<polygon fill="#63b8ff" stroke="#63b8ff" points="512.81,-36 520.37,-28.58 509.83,-29.66 512.81,-36"/>
</a>
</g>
</g>
</g>
</svg>
