<?xml version="1.0" encoding="UTF-8" standalone="no"?>
<!DOCTYPE svg PUBLIC "-//W3C//DTD SVG 1.1//EN"
 "http://www.w3.org/Graphics/SVG/1.1/DTD/svg11.dtd">
<!-- Generated by graphviz version 2.43.0 (0)
 -->
<!-- Title: lci::post_get_x::operator() Pages: 1 -->
<svg width="816pt" height="716pt"
 viewBox="0.00 0.00 816.00 716.14" xmlns="http://www.w3.org/2000/svg" xmlns:xlink="http://www.w3.org/1999/xlink">
<g id="graph0" class="graph" transform="scale(1 1) rotate(0) translate(4 712.14)">
<title>lci::post_get_x::operator()</title>
<!-- Node1 -->
<g id="Node000001" class="node">
<title>Node1</title>
<g id="a_Node000001"><a xlink:title=" ">
<polygon fill="#999999" stroke="#666666" points="142,-366.14 0,-366.14 0,-347.14 142,-347.14 142,-366.14"/>
<text text-anchor="middle" x="71" y="-354.14" font-family="Helvetica,sans-Serif" font-size="10.00">lci::post_get_x::operator()</text>
</a>
</g>
</g>
<!-- Node2 -->
<g id="Node000002" class="node">
<title>Node2</title>
<g id="a_Node000002"><a xlink:href="../../db/d54/classlci_1_1post__get__x.html#adadc688f0e9e014ac2f0d2a49ab89ce7" target="_top" xlink:title=" ">
<polygon fill="white" stroke="#666666" points="288,-366.14 178,-366.14 178,-347.14 288,-347.14 288,-366.14"/>
<text text-anchor="middle" x="233" y="-354.14" font-family="Helvetica,sans-Serif" font-size="10.00">lci::post_get_x::call</text>
</a>
</g>
</g>
<!-- Node1&#45;&gt;Node2 -->
<g id="edge1_Node000001_Node000002" class="edge">
<title>Node1&#45;&gt;Node2</title>
<g id="a_edge1_Node000001_Node000002"><a xlink:title=" ">
<path fill="none" stroke="#63b8ff" d="M142.18,-356.64C150.65,-356.64 159.28,-356.64 167.67,-356.64"/>
<polygon fill="#63b8ff" stroke="#63b8ff" points="167.75,-360.14 177.75,-356.64 167.75,-353.14 167.75,-360.14"/>
</a>
</g>
</g>
<!-- Node3 -->
<g id="Node000003" class="node">
<title>Node3</title>
<g id="a_Node000003"><a xlink:href="../../db/d54/classlci_1_1post__get__x.html#a29495aee6145a53bd30973c7aab3ef4f" target="_top" xlink:title=" ">
<polygon fill="white" stroke="#666666" points="652,-708.14 503,-708.14 503,-689.14 652,-689.14 652,-708.14"/>
<text text-anchor="middle" x="577.5" y="-696.14" font-family="Helvetica,sans-Serif" font-size="10.00">lci::post_get_x::allow_done</text>
</a>
</g>
</g>
<!-- Node2&#45;&gt;Node3 -->
<g id="edge2_Node000002_Node000003" class="edge">
<title>Node2&#45;&gt;Node3</title>
<g id="a_edge2_Node000002_Node000003"><a xlink:title=" ">
<path fill="none" stroke="#63b8ff" d="M234.16,-366.22C235.33,-405.03 245,-552.2 324,-628.64 368.85,-672.04 438.16,-689.03 492.83,-695.45"/>
<polygon fill="#63b8ff" stroke="#63b8ff" points="492.54,-698.94 502.85,-696.53 493.29,-691.98 492.54,-698.94"/>
</a>
</g>
</g>
<!-- Node5 -->
<g id="Node000005" class="node">
<title>Node5</title>
<g id="a_Node000005"><a xlink:href="../../db/d54/classlci_1_1post__get__x.html#aae33e9f61a69952f9e96d79a3a7d07c3" target="_top" xlink:title=" ">
<polygon fill="white" stroke="#666666" points="637,-670.64 518,-670.64 518,-640.64 637,-640.64 637,-670.64"/>
<text text-anchor="start" x="526" y="-658.64" font-family="Helvetica,sans-Serif" font-size="10.00">lci::post_get_x::allow</text>
<text text-anchor="middle" x="577.5" y="-647.64" font-family="Helvetica,sans-Serif" font-size="10.00">_posted</text>
</a>
</g>
</g>
<!-- Node2&#45;&gt;Node5 -->
<g id="edge4_Node000002_Node000005" class="edge">
<title>Node2&#45;&gt;Node5</title>
<g id="a_edge4_Node000002_Node000005"><a xlink:title=" ">
<path fill="none" stroke="#63b8ff" d="M234.79,-366.16C238.2,-401.07 254.82,-523.3 324,-585.64 374.43,-631.08 451.85,-647.33 507.67,-652.98"/>
<polygon fill="#63b8ff" stroke="#63b8ff" points="507.55,-656.48 517.83,-653.92 508.19,-649.51 507.55,-656.48"/>
</a>
</g>
</g>
<!-- Node6 -->
<g id="Node000006" class="node">
<title>Node6</title>
<g id="a_Node000006"><a xlink:href="../../db/d54/classlci_1_1post__get__x.html#afa8dc94772275fcea9a20a5c5c890480" target="_top" xlink:title=" ">
<polygon fill="white" stroke="#666666" points="637,-622.64 518,-622.64 518,-592.64 637,-592.64 637,-622.64"/>
<text text-anchor="start" x="526" y="-610.64" font-family="Helvetica,sans-Serif" font-size="10.00">lci::post_get_x::allow</text>
<text text-anchor="middle" x="577.5" y="-599.64" font-family="Helvetica,sans-Serif" font-size="10.00">_retry</text>
</a>
</g>
</g>
<!-- Node2&#45;&gt;Node6 -->
<g id="edge6_Node000002_Node000006" class="edge">
<title>Node2&#45;&gt;Node6</title>
<g id="a_edge6_Node000002_Node000006"><a xlink:title=" ">
<path fill="none" stroke="#63b8ff" d="M235.63,-366.21C241.42,-397.2 264,-495.68 324,-544.64 375.99,-587.06 452.63,-601.46 507.83,-606.08"/>
<polygon fill="#63b8ff" stroke="#63b8ff" points="507.64,-609.58 517.87,-606.84 508.16,-602.6 507.64,-609.58"/>
</a>
</g>
</g>
<!-- Node7 -->
<g id="Node000007" class="node">
<title>Node7</title>
<g id="a_Node000007"><a xlink:href="../../db/d54/classlci_1_1post__get__x.html#a6c259a4d7ceda582e96ff654bd771dec" target="_top" xlink:title=" ">
<polygon fill="white" stroke="#666666" points="461,-366.14 324,-366.14 324,-347.14 461,-347.14 461,-366.14"/>
<text text-anchor="middle" x="392.5" y="-354.14" font-family="Helvetica,sans-Serif" font-size="10.00">lci::post_get_x::call_impl</text>
</a>
</g>
</g>
<!-- Node2&#45;&gt;Node7 -->
<g id="edge8_Node000002_Node000007" class="edge">
<title>Node2&#45;&gt;Node7</title>
<g id="a_edge8_Node000002_Node000007"><a xlink:title=" ">
<path fill="none" stroke="#63b8ff" d="M288.2,-356.64C296.45,-356.64 305.1,-356.64 313.74,-356.64"/>
<polygon fill="#63b8ff" stroke="#63b8ff" points="313.84,-360.14 323.84,-356.64 313.84,-353.14 313.84,-360.14"/>
</a>
</g>
</g>
<!-- Node8 -->
<g id="Node000008" class="node">
<title>Node8</title>
<g id="a_Node000008"><a xlink:href="../../db/d54/classlci_1_1post__get__x.html#ae5063e804814ece1bcf5720cd9b78b94" target="_top" xlink:title=" ">
<polygon fill="white" stroke="#666666" points="640,-574.14 515,-574.14 515,-555.14 640,-555.14 640,-574.14"/>
<text text-anchor="middle" x="577.5" y="-562.14" font-family="Helvetica,sans-Serif" font-size="10.00">lci::post_get_x::device</text>
</a>
</g>
</g>
<!-- Node2&#45;&gt;Node8 -->
<g id="edge42_Node000002_Node000008" class="edge">
<title>Node2&#45;&gt;Node8</title>
<g id="a_edge42_Node000002_Node000008"><a xlink:title=" ">
<path fill="none" stroke="#63b8ff" d="M236.95,-366.48C245.54,-393.39 273.21,-468.6 324,-505.64 376.62,-544.01 450.41,-557.86 504.64,-562.64"/>
<polygon fill="#63b8ff" stroke="#63b8ff" points="504.62,-566.15 514.87,-563.46 505.18,-559.17 504.62,-566.15"/>
</a>
</g>
</g>
<!-- Node9 -->
<g id="Node000009" class="node">
<title>Node9</title>
<g id="a_Node000009"><a xlink:href="../../db/d54/classlci_1_1post__get__x.html#ada8d3a7d775a52e72afd83366507af07" target="_top" xlink:title=" ">
<polygon fill="white" stroke="#666666" points="645.5,-537.14 509.5,-537.14 509.5,-518.14 645.5,-518.14 645.5,-537.14"/>
<text text-anchor="middle" x="577.5" y="-525.14" font-family="Helvetica,sans-Serif" font-size="10.00">lci::post_get_x::endpoint</text>
</a>
</g>
</g>
<!-- Node2&#45;&gt;Node9 -->
<g id="edge43_Node000002_Node000009" class="edge">
<title>Node2&#45;&gt;Node9</title>
<g id="a_edge43_Node000002_Node000009"><a xlink:title=" ">
<path fill="none" stroke="#63b8ff" d="M238.8,-366.23C250.28,-388.12 281.57,-441.93 324,-468.64 376.88,-501.92 446.65,-516.46 499.45,-522.79"/>
<polygon fill="#63b8ff" stroke="#63b8ff" points="499.11,-526.28 509.43,-523.92 499.89,-519.32 499.11,-526.28"/>
</a>
</g>
</g>
<!-- Node10 -->
<g id="Node000010" class="node">
<title>Node10</title>
<g id="a_Node000010"><a xlink:href="../../db/d54/classlci_1_1post__get__x.html#a807f8d570a90508b7fc4913ed305a1b6" target="_top" xlink:title=" ">
<polygon fill="white" stroke="#666666" points="636.5,-499.64 518.5,-499.64 518.5,-469.64 636.5,-469.64 636.5,-499.64"/>
<text text-anchor="start" x="526.5" y="-487.64" font-family="Helvetica,sans-Serif" font-size="10.00">lci::post_get_x::force</text>
<text text-anchor="middle" x="577.5" y="-476.64" font-family="Helvetica,sans-Serif" font-size="10.00">_zcopy</text>
</a>
</g>
</g>
<!-- Node2&#45;&gt;Node10 -->
<g id="edge44_Node000002_Node000010" class="edge">
<title>Node2&#45;&gt;Node10</title>
<g id="a_edge44_Node000002_Node000010"><a xlink:title=" ">
<path fill="none" stroke="#63b8ff" d="M241.79,-366.22C256.14,-383.15 288.53,-418.24 324,-435.64 382.16,-464.17 455.5,-476.1 508.13,-481.08"/>
<polygon fill="#63b8ff" stroke="#63b8ff" points="508.1,-484.59 518.36,-481.99 508.71,-477.62 508.1,-484.59"/>
</a>
</g>
</g>
<!-- Node11 -->
<g id="Node000011" class="node">
<title>Node11</title>
<g id="a_Node000011"><a xlink:href="../../db/d54/classlci_1_1post__get__x.html#a9e32fa2a7456e522a28fd65df221313e" target="_top" xlink:title=" ">
<polygon fill="white" stroke="#666666" points="635.5,-451.64 519.5,-451.64 519.5,-421.64 635.5,-421.64 635.5,-451.64"/>
<text text-anchor="start" x="527.5" y="-439.64" font-family="Helvetica,sans-Serif" font-size="10.00">lci::post_get_x::local</text>
<text text-anchor="middle" x="577.5" y="-428.64" font-family="Helvetica,sans-Serif" font-size="10.00">_buffer</text>
</a>
</g>
</g>
<!-- Node2&#45;&gt;Node11 -->
<g id="edge45_Node000002_Node000011" class="edge">
<title>Node2&#45;&gt;Node11</title>
<g id="a_edge45_Node000002_Node000011"><a xlink:title=" ">
<path fill="none" stroke="#63b8ff" d="M246.28,-366.21C262.88,-378.57 293.87,-399.68 324,-409.64 384.63,-429.69 457.48,-435.69 509.32,-437.13"/>
<polygon fill="#63b8ff" stroke="#63b8ff" points="509.32,-440.63 519.39,-437.36 509.48,-433.63 509.32,-440.63"/>
</a>
</g>
</g>
<!-- Node12 -->
<g id="Node000012" class="node">
<title>Node12</title>
<g id="a_Node000012"><a xlink:href="../../db/d54/classlci_1_1post__get__x.html#ae638454abf3d3c1dfa4eb39929f8fb80" target="_top" xlink:title=" ">
<polygon fill="white" stroke="#666666" points="652,-403.14 503,-403.14 503,-384.14 652,-384.14 652,-403.14"/>
<text text-anchor="middle" x="577.5" y="-391.14" font-family="Helvetica,sans-Serif" font-size="10.00">lci::post_get_x::local_comp</text>
</a>
</g>
</g>
<!-- Node2&#45;&gt;Node12 -->
<g id="edge46_Node000002_Node000012" class="edge">
<title>Node2&#45;&gt;Node12</title>
<g id="a_edge46_Node000002_Node000012"><a xlink:title=" ">
<path fill="none" stroke="#63b8ff" d="M252.71,-366.24C270.51,-374.8 298.31,-386.72 324,-391.64 379.59,-402.3 443.33,-402.71 492.86,-400.51"/>
<polygon fill="#63b8ff" stroke="#63b8ff" points="493.07,-404 502.89,-400.02 492.73,-397.01 493.07,-404"/>
</a>
</g>
</g>
<!-- Node13 -->
<g id="Node000013" class="node">
<title>Node13</title>
<g id="a_Node000013"><a xlink:href="../../db/d54/classlci_1_1post__get__x.html#a678b29957db320f2f8e7e85d25d38a15" target="_top" xlink:title=" ">
<polygon fill="white" stroke="#666666" points="631,-366.14 524,-366.14 524,-347.14 631,-347.14 631,-366.14"/>
<text text-anchor="middle" x="577.5" y="-354.14" font-family="Helvetica,sans-Serif" font-size="10.00">lci::post_get_x::mr</text>
</a>
</g>
</g>
<!-- Node2&#45;&gt;Node13 -->
<g id="edge47_Node000002_Node000013" class="edge">
<title>Node2&#45;&gt;Node13</title>
<g id="a_edge47_Node000002_Node000013"><a xlink:title=" ">
<path fill="none" stroke="#63b8ff" d="M270.51,-366.15C286.76,-369.91 306.21,-373.78 324,-375.64 384.56,-381.96 400.31,-380.6 461,-375.64 480.14,-374.08 500.89,-371.08 519.45,-367.92"/>
<polygon fill="#63b8ff" stroke="#63b8ff" points="520.27,-371.33 529.51,-366.15 519.06,-364.43 520.27,-371.33"/>
</a>
</g>
</g>
<!-- Node14 -->
<g id="Node000014" class="node">
<title>Node14</title>
<g id="a_Node000014"><a xlink:href="../../db/d54/classlci_1_1post__get__x.html#ab533de3b7fe1493b65171af6f8cd1fc3" target="_top" xlink:title=" ">
<polygon fill="white" stroke="#666666" points="653.5,-329.14 501.5,-329.14 501.5,-310.14 653.5,-310.14 653.5,-329.14"/>
<text text-anchor="middle" x="577.5" y="-317.14" font-family="Helvetica,sans-Serif" font-size="10.00">lci::post_get_x::packet_pool</text>
</a>
</g>
</g>
<!-- Node2&#45;&gt;Node14 -->
<g id="edge48_Node000002_Node000014" class="edge">
<title>Node2&#45;&gt;Node14</title>
<g id="a_edge48_Node000002_Node000014"><a xlink:title=" ">
<path fill="none" stroke="#63b8ff" d="M276.4,-347.05C291.37,-343.96 308.37,-340.78 324,-338.64 379.4,-331.04 442.09,-326.31 491.14,-323.46"/>
<polygon fill="#63b8ff" stroke="#63b8ff" points="491.61,-326.94 501.39,-322.88 491.21,-319.95 491.61,-326.94"/>
</a>
</g>
</g>
<!-- Node15 -->
<g id="Node000015" class="node">
<title>Node15</title>
<g id="a_Node000015"><a xlink:href="../../db/d54/classlci_1_1post__get__x.html#ae00c61e2bc754a0ed46625ca9d44b04e" target="_top" xlink:title=" ">
<polygon fill="white" stroke="#666666" points="635,-292.14 520,-292.14 520,-273.14 635,-273.14 635,-292.14"/>
<text text-anchor="middle" x="577.5" y="-280.14" font-family="Helvetica,sans-Serif" font-size="10.00">lci::post_get_x::rank</text>
</a>
</g>
</g>
<!-- Node2&#45;&gt;Node15 -->
<g id="edge49_Node000002_Node000015" class="edge">
<title>Node2&#45;&gt;Node15</title>
<g id="a_edge49_Node000002_Node000015"><a xlink:title=" ">
<path fill="none" stroke="#63b8ff" d="M254.66,-347.12C272.63,-339.2 299.55,-328.2 324,-321.64 385.95,-305.02 458.48,-294.73 509.87,-288.93"/>
<polygon fill="#63b8ff" stroke="#63b8ff" points="510.31,-292.4 519.86,-287.82 509.54,-285.44 510.31,-292.4"/>
</a>
</g>
</g>
<!-- Node16 -->
<g id="Node000016" class="node">
<title>Node16</title>
<g id="a_Node000016"><a xlink:href="../../db/d54/classlci_1_1post__get__x.html#a9fcca224387844ef97c4437af444faec" target="_top" xlink:title=" ">
<polygon fill="white" stroke="#666666" points="658,-255.14 497,-255.14 497,-236.14 658,-236.14 658,-255.14"/>
<text text-anchor="middle" x="577.5" y="-243.14" font-family="Helvetica,sans-Serif" font-size="10.00">lci::post_get_x::remote_comp</text>
</a>
</g>
</g>
<!-- Node2&#45;&gt;Node16 -->
<g id="edge50_Node000002_Node000016" class="edge">
<title>Node2&#45;&gt;Node16</title>
<g id="a_edge50_Node000002_Node000016"><a xlink:title=" ">
<path fill="none" stroke="#63b8ff" d="M243.83,-347.01C259.42,-332.33 291.4,-304.6 324,-290.64 375.41,-268.63 437.15,-257.38 486.71,-251.64"/>
<polygon fill="#63b8ff" stroke="#63b8ff" points="487.22,-255.1 496.78,-250.53 486.45,-248.15 487.22,-255.1"/>
</a>
</g>
</g>
<!-- Node17 -->
<g id="Node000017" class="node">
<title>Node17</title>
<g id="a_Node000017"><a xlink:href="../../db/d54/classlci_1_1post__get__x.html#a46c613bb21ea1b3ad3c42334e831ee51" target="_top" xlink:title=" ">
<polygon fill="white" stroke="#666666" points="654.5,-218.14 500.5,-218.14 500.5,-199.14 654.5,-199.14 654.5,-218.14"/>
<text text-anchor="middle" x="577.5" y="-206.14" font-family="Helvetica,sans-Serif" font-size="10.00">lci::post_get_x::remote_disp</text>
</a>
</g>
</g>
<!-- Node2&#45;&gt;Node17 -->
<g id="edge51_Node000002_Node000017" class="edge">
<title>Node2&#45;&gt;Node17</title>
<g id="a_edge51_Node000002_Node000017"><a xlink:title=" ">
<path fill="none" stroke="#63b8ff" d="M239.01,-347.06C250.69,-325.76 282,-274.46 324,-250.64 374.47,-222.02 439.12,-211.67 490.38,-208.4"/>
<polygon fill="#63b8ff" stroke="#63b8ff" points="490.65,-211.89 500.44,-207.83 490.26,-204.9 490.65,-211.89"/>
</a>
</g>
</g>
<!-- Node18 -->
<g id="Node000018" class="node">
<title>Node18</title>
<g id="a_Node000018"><a xlink:href="../../db/d54/classlci_1_1post__get__x.html#a96066c719819fe7d159096f611f3ce40" target="_top" xlink:title=" ">
<polygon fill="white" stroke="#666666" points="632.5,-181.14 522.5,-181.14 522.5,-162.14 632.5,-162.14 632.5,-181.14"/>
<text text-anchor="middle" x="577.5" y="-169.14" font-family="Helvetica,sans-Serif" font-size="10.00">lci::post_get_x::rmr</text>
</a>
</g>
</g>
<!-- Node2&#45;&gt;Node18 -->
<g id="edge52_Node000002_Node000018" class="edge">
<title>Node2&#45;&gt;Node18</title>
<g id="a_edge52_Node000002_Node000018"><a xlink:title=" ">
<path fill="none" stroke="#63b8ff" d="M236.63,-346.87C244.57,-319.47 271.05,-241.64 324,-206.64 379.76,-169.79 457.6,-164.23 512.07,-165.88"/>
<polygon fill="#63b8ff" stroke="#63b8ff" points="512.16,-169.38 522.29,-166.28 512.44,-162.39 512.16,-169.38"/>
</a>
</g>
</g>
<!-- Node19 -->
<g id="Node000019" class="node">
<title>Node19</title>
<g id="a_Node000019"><a xlink:href="../../db/d54/classlci_1_1post__get__x.html#ac3b93ca830abcb7bb56e268915fad980" target="_top" xlink:title=" ">
<polygon fill="white" stroke="#666666" points="643,-144.14 512,-144.14 512,-125.14 643,-125.14 643,-144.14"/>
<text text-anchor="middle" x="577.5" y="-132.14" font-family="Helvetica,sans-Serif" font-size="10.00">lci::post_get_x::runtime</text>
</a>
</g>
</g>
<!-- Node2&#45;&gt;Node19 -->
<g id="edge53_Node000002_Node000019" class="edge">
<title>Node2&#45;&gt;Node19</title>
<g id="a_edge53_Node000002_Node000019"><a xlink:title=" ">
<path fill="none" stroke="#63b8ff" d="M235.2,-346.89C239.76,-314.4 259.19,-209.24 324,-162.64 374.96,-125.99 447.31,-121.44 501.5,-124.62"/>
<polygon fill="#63b8ff" stroke="#63b8ff" points="501.53,-128.13 511.75,-125.33 502.01,-121.15 501.53,-128.13"/>
</a>
</g>
</g>
<!-- Node20 -->
<g id="Node000020" class="node">
<title>Node20</title>
<g id="a_Node000020"><a xlink:href="../../db/d54/classlci_1_1post__get__x.html#acd5ead27a3560139798f7c39431cbdf4" target="_top" xlink:title=" ">
<polygon fill="white" stroke="#666666" points="634,-107.14 521,-107.14 521,-88.14 634,-88.14 634,-107.14"/>
<text text-anchor="middle" x="577.5" y="-95.14" font-family="Helvetica,sans-Serif" font-size="10.00">lci::post_get_x::size</text>
</a>
</g>
</g>
<!-- Node2&#45;&gt;Node20 -->
<g id="edge54_Node000002_Node000020" class="edge">
<title>Node2&#45;&gt;Node20</title>
<g id="a_edge54_Node000002_Node000020"><a xlink:title=" ">
<path fill="none" stroke="#63b8ff" d="M234.27,-347.11C235.86,-310.49 246.94,-177.91 324,-119.64 380.01,-77.29 464.3,-79.19 519.85,-86.63"/>
<polygon fill="#63b8ff" stroke="#63b8ff" points="519.48,-90.11 529.87,-88.07 520.48,-83.18 519.48,-90.11"/>
</a>
</g>
</g>
<!-- Node21 -->
<g id="Node000021" class="node">
<title>Node21</title>
<g id="a_Node000021"><a xlink:href="../../db/d54/classlci_1_1post__get__x.html#a2a87093d9d3e41f5fc2da87df7a4db28" target="_top" xlink:title=" ">
<polygon fill="white" stroke="#666666" points="632,-70.14 523,-70.14 523,-51.14 632,-51.14 632,-70.14"/>
<text text-anchor="middle" x="577.5" y="-58.14" font-family="Helvetica,sans-Serif" font-size="10.00">lci::post_get_x::tag</text>
</a>
</g>
</g>
<!-- Node2&#45;&gt;Node21 -->
<g id="edge55_Node000002_Node000021" class="edge">
<title>Node2&#45;&gt;Node21</title>
<g id="a_edge55_Node000002_Node000021"><a xlink:title=" ">
<path fill="none" stroke="#63b8ff" d="M233.64,-347.14C232.65,-306.64 234.75,-147.34 324,-77.64 382.19,-32.2 472.78,-39.09 528.17,-49.19"/>
<polygon fill="#63b8ff" stroke="#63b8ff" points="527.6,-52.64 538.08,-51.1 528.93,-45.77 527.6,-52.64"/>
</a>
</g>
</g>
<!-- Node22 -->
<g id="Node000022" class="node">
<title>Node22</title>
<g id="a_Node000022"><a xlink:href="../../db/d54/classlci_1_1post__get__x.html#ae8ab8b05f92e3637b69c694780a1f02e" target="_top" xlink:title=" ">
<polygon fill="white" stroke="#666666" points="634.5,-32.64 520.5,-32.64 520.5,-2.64 634.5,-2.64 634.5,-32.64"/>
<text text-anchor="start" x="528.5" y="-20.64" font-family="Helvetica,sans-Serif" font-size="10.00">lci::post_get_x::user</text>
<text text-anchor="middle" x="577.5" y="-9.64" font-family="Helvetica,sans-Serif" font-size="10.00">_context</text>
</a>
</g>
</g>
<!-- Node2&#45;&gt;Node22 -->
<g id="edge56_Node000002_Node000022" class="edge">
<title>Node2&#45;&gt;Node22</title>
<g id="a_edge56_Node000002_Node000022"><a xlink:title=" ">
<path fill="none" stroke="#63b8ff" d="M235.27,-346.92C241.85,-298.05 273.73,-80.04 324,-38.64 375.38,3.68 454.25,3.3 510.15,-4.08"/>
<polygon fill="#63b8ff" stroke="#63b8ff" points="509.92,-7.58 520.31,-5.53 510.91,-0.65 509.92,-7.58"/>
</a>
</g>
</g>
<!-- Node4 -->
<g id="Node000004" class="node">
<title>Node4</title>
<g id="a_Node000004"><a xlink:href="../../db/d54/classlci_1_1post__get__x.html#a544592613caf9d08e85c26374f00f0a5" target="_top" xlink:title=" ">
<polygon fill="white" stroke="#666666" points="808,-352.64 694,-352.64 694,-322.64 808,-322.64 808,-352.64"/>
<text text-anchor="start" x="702" y="-340.64" font-family="Helvetica,sans-Serif" font-size="10.00">lci::post_get_x::post</text>
<text text-anchor="middle" x="751" y="-329.64" font-family="Helvetica,sans-Serif" font-size="10.00">_get_x</text>
</a>
</g>
</g>
<!-- Node3&#45;&gt;Node4 -->
<g id="edge3_Node000003_Node000004" class="edge">
<title>Node3&#45;&gt;Node4</title>
<g id="a_edge3_Node000003_Node000004"><a xlink:title=" ">
<path fill="none" stroke="#63b8ff" d="M644.85,-688.95C649.66,-686.46 654.13,-683.4 658,-679.64 704.14,-634.79 736.33,-434.67 746.54,-363.15"/>
<polygon fill="#63b8ff" stroke="#63b8ff" points="750.06,-363.21 747.99,-352.82 743.13,-362.24 750.06,-363.21"/>
</a>
</g>
</g>
<!-- Node5&#45;&gt;Node4 -->
<g id="edge5_Node000005_Node000004" class="edge">
<title>Node5&#45;&gt;Node4</title>
<g id="a_edge5_Node000005_Node000004"><a xlink:title=" ">
<path fill="none" stroke="#63b8ff" d="M637.34,-645.16C644.98,-641.82 652.16,-637.42 658,-631.64 733.9,-556.5 747.37,-419.7 749.62,-363.15"/>
<polygon fill="#63b8ff" stroke="#63b8ff" points="753.13,-363.06 749.94,-352.95 746.13,-362.84 753.13,-363.06"/>
</a>
</g>
</g>
<!-- Node6&#45;&gt;Node4 -->
<g id="edge7_Node000006_Node000004" class="edge">
<title>Node6&#45;&gt;Node4</title>
<g id="a_edge7_Node000006_Node000004"><a xlink:title=" ">
<path fill="none" stroke="#63b8ff" d="M637.06,-596.87C644.74,-593.57 652,-589.26 658,-583.64 722.64,-523.05 742.16,-412.72 747.81,-363.06"/>
<polygon fill="#63b8ff" stroke="#63b8ff" points="751.31,-363.19 748.87,-352.88 744.35,-362.47 751.31,-363.19"/>
</a>
</g>
</g>
<!-- Node7&#45;&gt;Node3 -->
<g id="edge9_Node000007_Node000003" class="edge">
<title>Node7&#45;&gt;Node3</title>
<g id="a_edge9_Node000007_Node000003"><a xlink:title=" ">
<path fill="none" stroke="#63b8ff" d="M393.41,-366.32C393.58,-409.92 400.28,-589.96 497,-679.64 498.69,-681.21 500.49,-682.65 502.37,-683.99"/>
<polygon fill="#63b8ff" stroke="#63b8ff" points="500.71,-687.07 511.11,-689.13 504.26,-681.04 500.71,-687.07"/>
</a>
</g>
</g>
<!-- Node7&#45;&gt;Node5 -->
<g id="edge10_Node000007_Node000005" class="edge">
<title>Node7&#45;&gt;Node5</title>
<g id="a_edge10_Node000007_Node000005"><a xlink:title=" ">
<path fill="none" stroke="#63b8ff" d="M394.16,-366.34C397.35,-405.64 414.67,-554.63 497,-631.64 500.56,-634.97 504.57,-637.84 508.85,-640.32"/>
<polygon fill="#63b8ff" stroke="#63b8ff" points="507.44,-643.52 517.95,-644.86 510.56,-637.26 507.44,-643.52"/>
</a>
</g>
</g>
<!-- Node7&#45;&gt;Node6 -->
<g id="edge11_Node000007_Node000006" class="edge">
<title>Node7&#45;&gt;Node6</title>
<g id="a_edge11_Node000007_Node000006"><a xlink:title=" ">
<path fill="none" stroke="#63b8ff" d="M395.05,-366.53C401.07,-401.69 426.22,-521.8 497,-583.64 500.61,-586.79 504.62,-589.53 508.87,-591.91"/>
<polygon fill="#63b8ff" stroke="#63b8ff" points="507.36,-595.07 517.88,-596.31 510.43,-588.78 507.36,-595.07"/>
</a>
</g>
</g>
<!-- Node7&#45;&gt;Node8 -->
<g id="edge12_Node000007_Node000008" class="edge">
<title>Node7&#45;&gt;Node8</title>
<g id="a_edge12_Node000007_Node000008"><a xlink:title=" ">
<path fill="none" stroke="#63b8ff" d="M395.77,-366.39C403.63,-397.96 432.88,-498.16 497,-546.64 499.65,-548.65 502.49,-550.43 505.45,-552.03"/>
<polygon fill="#63b8ff" stroke="#63b8ff" points="504.12,-555.27 514.66,-556.26 507.04,-548.91 504.12,-555.27"/>
</a>
</g>
</g>
<!-- Node7&#45;&gt;Node9 -->
<g id="edge14_Node000007_Node000009" class="edge">
<title>Node7&#45;&gt;Node9</title>
<g id="a_edge14_Node000007_Node000009"><a xlink:title=" ">
<path fill="none" stroke="#63b8ff" d="M397.13,-366.3C407.85,-393.42 442.07,-470.76 497,-508.64 499.89,-510.63 502.97,-512.42 506.16,-514.02"/>
<polygon fill="#63b8ff" stroke="#63b8ff" points="504.88,-517.28 515.44,-518.05 507.67,-510.86 504.88,-517.28"/>
</a>
</g>
</g>
<!-- Node7&#45;&gt;Node10 -->
<g id="edge16_Node000007_Node000010" class="edge">
<title>Node7&#45;&gt;Node10</title>
<g id="a_edge16_Node000007_Node000010"><a xlink:title=" ">
<path fill="none" stroke="#63b8ff" d="M400.37,-366.24C415.49,-386.67 453.75,-434.69 497,-460.64 500.69,-462.85 504.59,-464.87 508.61,-466.72"/>
<polygon fill="#63b8ff" stroke="#63b8ff" points="507.6,-470.09 518.17,-470.72 510.3,-463.63 507.6,-470.09"/>
</a>
</g>
</g>
<!-- Node7&#45;&gt;Node11 -->
<g id="edge18_Node000007_Node000011" class="edge">
<title>Node7&#45;&gt;Node11</title>
<g id="a_edge18_Node000007_Node000011"><a xlink:title=" ">
<path fill="none" stroke="#63b8ff" d="M408.79,-366.2C428.58,-378.26 464.37,-399.05 497,-412.64 501.7,-414.6 506.62,-416.47 511.61,-418.25"/>
<polygon fill="#63b8ff" stroke="#63b8ff" points="510.65,-421.62 521.25,-421.55 512.92,-415 510.65,-421.62"/>
</a>
</g>
</g>
<!-- Node7&#45;&gt;Node12 -->
<g id="edge20_Node000007_Node000012" class="edge">
<title>Node7&#45;&gt;Node12</title>
<g id="a_edge20_Node000007_Node000012"><a xlink:title=" ">
<path fill="none" stroke="#63b8ff" d="M440.63,-366.17C464.65,-371.03 494.07,-376.97 519.38,-382.09"/>
<polygon fill="#63b8ff" stroke="#63b8ff" points="518.72,-385.53 529.21,-384.08 520.11,-378.67 518.72,-385.53"/>
</a>
</g>
</g>
<!-- Node7&#45;&gt;Node13 -->
<g id="edge22_Node000007_Node000013" class="edge">
<title>Node7&#45;&gt;Node13</title>
<g id="a_edge22_Node000007_Node000013"><a xlink:title=" ">
<path fill="none" stroke="#63b8ff" d="M461.12,-356.64C478.24,-356.64 496.55,-356.64 513.43,-356.64"/>
<polygon fill="#63b8ff" stroke="#63b8ff" points="513.74,-360.14 523.74,-356.64 513.74,-353.14 513.74,-360.14"/>
</a>
</g>
</g>
<!-- Node7&#45;&gt;Node14 -->
<g id="edge24_Node000007_Node000014" class="edge">
<title>Node7&#45;&gt;Node14</title>
<g id="a_edge24_Node000007_Node000014"><a xlink:title=" ">
<path fill="none" stroke="#63b8ff" d="M440.63,-347.11C464.65,-342.25 494.07,-336.31 519.38,-331.19"/>
<polygon fill="#63b8ff" stroke="#63b8ff" points="520.11,-334.61 529.21,-329.2 518.72,-327.75 520.11,-334.61"/>
</a>
</g>
</g>
<!-- Node7&#45;&gt;Node15 -->
<g id="edge26_Node000007_Node000015" class="edge">
<title>Node7&#45;&gt;Node15</title>
<g id="a_edge26_Node000007_Node000015"><a xlink:title=" ">
<path fill="none" stroke="#63b8ff" d="M408.7,-346.97C428.38,-334.83 464.07,-314.09 497,-301.64 503.75,-299.09 510.96,-296.8 518.18,-294.77"/>
<polygon fill="#63b8ff" stroke="#63b8ff" points="519.22,-298.11 527.98,-292.16 517.42,-291.35 519.22,-298.11"/>
</a>
</g>
</g>
<!-- Node7&#45;&gt;Node16 -->
<g id="edge28_Node000007_Node000016" class="edge">
<title>Node7&#45;&gt;Node16</title>
<g id="a_edge28_Node000007_Node000016"><a xlink:title=" ">
<path fill="none" stroke="#63b8ff" d="M401.49,-346.86C417.53,-327.92 455.64,-286.2 497,-264.64 501.52,-262.28 506.35,-260.21 511.29,-258.39"/>
<polygon fill="#63b8ff" stroke="#63b8ff" points="512.52,-261.67 520.91,-255.2 510.32,-255.03 512.52,-261.67"/>
</a>
</g>
</g>
<!-- Node7&#45;&gt;Node17 -->
<g id="edge30_Node000007_Node000017" class="edge">
<title>Node7&#45;&gt;Node17</title>
<g id="a_edge30_Node000007_Node000017"><a xlink:title=" ">
<path fill="none" stroke="#63b8ff" d="M398.27,-347.07C410.82,-322.91 447.27,-259.14 497,-227.64 500.34,-225.52 503.9,-223.64 507.59,-221.97"/>
<polygon fill="#63b8ff" stroke="#63b8ff" points="508.98,-225.18 516.97,-218.23 506.39,-218.68 508.98,-225.18"/>
</a>
</g>
</g>
<!-- Node7&#45;&gt;Node18 -->
<g id="edge32_Node000007_Node000018" class="edge">
<title>Node7&#45;&gt;Node18</title>
<g id="a_edge32_Node000007_Node000018"><a xlink:title=" ">
<path fill="none" stroke="#63b8ff" d="M396.58,-346.94C406.24,-318.13 438.84,-232.51 497,-190.64 501.8,-187.19 507.13,-184.36 512.71,-182.03"/>
<polygon fill="#63b8ff" stroke="#63b8ff" points="514.05,-185.27 522.27,-178.59 511.68,-178.69 514.05,-185.27"/>
</a>
</g>
</g>
<!-- Node7&#45;&gt;Node19 -->
<g id="edge34_Node000007_Node000019" class="edge">
<title>Node7&#45;&gt;Node19</title>
<g id="a_edge34_Node000007_Node000019"><a xlink:title=" ">
<path fill="none" stroke="#63b8ff" d="M395.47,-346.74C402.59,-313.68 430.17,-206.25 497,-153.64 499.3,-151.83 501.74,-150.19 504.3,-148.7"/>
<polygon fill="#63b8ff" stroke="#63b8ff" points="505.94,-151.79 513.33,-144.2 502.82,-145.52 505.94,-151.79"/>
</a>
</g>
</g>
<!-- Node7&#45;&gt;Node20 -->
<g id="edge36_Node000007_Node000020" class="edge">
<title>Node7&#45;&gt;Node20</title>
<g id="a_edge36_Node000007_Node000020"><a xlink:title=" ">
<path fill="none" stroke="#63b8ff" d="M394.59,-347.06C399.27,-310.76 420.94,-180.59 497,-116.64 501.28,-113.04 506.12,-110.11 511.25,-107.71"/>
<polygon fill="#63b8ff" stroke="#63b8ff" points="512.74,-110.88 520.74,-103.94 510.16,-104.37 512.74,-110.88"/>
</a>
</g>
</g>
<!-- Node7&#45;&gt;Node21 -->
<g id="edge38_Node000007_Node000021" class="edge">
<title>Node7&#45;&gt;Node21</title>
<g id="a_edge38_Node000007_Node000021"><a xlink:title=" ">
<path fill="none" stroke="#63b8ff" d="M393.99,-347.01C396.55,-307.31 411.8,-154.95 497,-79.64 501.81,-75.38 507.41,-72.04 513.37,-69.42"/>
<polygon fill="#63b8ff" stroke="#63b8ff" points="514.8,-72.62 522.96,-65.86 512.36,-66.06 514.8,-72.62"/>
</a>
</g>
</g>
<!-- Node7&#45;&gt;Node22 -->
<g id="edge40_Node000007_Node000022" class="edge">
<title>Node7&#45;&gt;Node22</title>
<g id="a_edge40_Node000007_Node000022"><a xlink:title=" ">
<path fill="none" stroke="#63b8ff" d="M393.63,-347.04C394.73,-304.55 404.93,-131.5 497,-41.64 501.06,-37.68 505.76,-34.36 510.79,-31.59"/>
<polygon fill="#63b8ff" stroke="#63b8ff" points="512.61,-34.61 520.16,-27.18 509.62,-28.28 512.61,-34.61"/>
</a>
</g>
</g>
<!-- Node8&#45;&gt;Node4 -->
<g id="edge13_Node000008_Node000004" class="edge">
<title>Node8&#45;&gt;Node4</title>
<g id="a_edge13_Node000008_Node000004"><a xlink:title=" ">
<path fill="none" stroke="#63b8ff" d="M640.28,-556.86C646.69,-554.29 652.76,-550.96 658,-546.64 716.08,-498.77 738.61,-406.96 746.38,-362.71"/>
<polygon fill="#63b8ff" stroke="#63b8ff" points="749.84,-363.22 748.01,-352.78 742.93,-362.08 749.84,-363.22"/>
</a>
</g>
</g>
<!-- Node9&#45;&gt;Node4 -->
<g id="edge15_Node000009_Node000004" class="edge">
<title>Node9&#45;&gt;Node4</title>
<g id="a_edge15_Node000009_Node000004"><a xlink:title=" ">
<path fill="none" stroke="#63b8ff" d="M641.18,-518.13C647.2,-515.65 652.94,-512.53 658,-508.64 706.84,-471.05 732.84,-399.95 743.72,-362.36"/>
<polygon fill="#63b8ff" stroke="#63b8ff" points="747.1,-363.28 746.39,-352.71 740.35,-361.41 747.1,-363.28"/>
</a>
</g>
</g>
<!-- Node10&#45;&gt;Node4 -->
<g id="edge17_Node000010_Node000004" class="edge">
<title>Node10&#45;&gt;Node4</title>
<g id="a_edge17_Node000010_Node000004"><a xlink:title=" ">
<path fill="none" stroke="#63b8ff" d="M636.56,-471.9C644.13,-468.89 651.5,-465.19 658,-460.64 694.73,-434.92 722.91,-389.91 737.92,-362.06"/>
<polygon fill="#63b8ff" stroke="#63b8ff" points="741.13,-363.46 742.67,-352.98 734.93,-360.21 741.13,-363.46"/>
</a>
</g>
</g>
<!-- Node11&#45;&gt;Node4 -->
<g id="edge19_Node000011_Node000004" class="edge">
<title>Node11&#45;&gt;Node4</title>
<g id="a_edge19_Node000011_Node000004"><a xlink:title=" ">
<path fill="none" stroke="#63b8ff" d="M635.62,-422.37C643.34,-419.59 651,-416.36 658,-412.64 684.35,-398.63 710.33,-376.47 727.93,-359.87"/>
<polygon fill="#63b8ff" stroke="#63b8ff" points="730.62,-362.13 735.39,-352.68 725.76,-357.09 730.62,-362.13"/>
</a>
</g>
</g>
<!-- Node12&#45;&gt;Node4 -->
<g id="edge21_Node000012_Node000004" class="edge">
<title>Node12&#45;&gt;Node4</title>
<g id="a_edge21_Node000012_Node000004"><a xlink:title=" ">
<path fill="none" stroke="#63b8ff" d="M626.78,-384.08C637.16,-381.65 648.02,-378.81 658,-375.64 674.64,-370.36 692.48,-363.33 707.97,-356.75"/>
<polygon fill="#63b8ff" stroke="#63b8ff" points="709.49,-359.91 717.29,-352.74 706.72,-353.48 709.49,-359.91"/>
</a>
</g>
</g>
<!-- Node13&#45;&gt;Node4 -->
<g id="edge23_Node000013_Node000004" class="edge">
<title>Node13&#45;&gt;Node4</title>
<g id="a_edge23_Node000013_Node000004"><a xlink:title=" ">
<path fill="none" stroke="#63b8ff" d="M631.36,-350.78C647.89,-348.95 666.35,-346.91 683.69,-344.99"/>
<polygon fill="#63b8ff" stroke="#63b8ff" points="684.2,-348.45 693.75,-343.87 683.43,-341.49 684.2,-348.45"/>
</a>
</g>
</g>
<!-- Node14&#45;&gt;Node4 -->
<g id="edge25_Node000014_Node000004" class="edge">
<title>Node14&#45;&gt;Node4</title>
<g id="a_edge25_Node000014_Node000004"><a xlink:title=" ">
<path fill="none" stroke="#63b8ff" d="M653.72,-327.54C663.74,-328.59 673.96,-329.66 683.81,-330.69"/>
<polygon fill="#63b8ff" stroke="#63b8ff" points="683.61,-334.19 693.92,-331.75 684.34,-327.23 683.61,-334.19"/>
</a>
</g>
</g>
<!-- Node15&#45;&gt;Node4 -->
<g id="edge27_Node000015_Node000004" class="edge">
<title>Node15&#45;&gt;Node4</title>
<g id="a_edge27_Node000015_Node000004"><a xlink:title=" ">
<path fill="none" stroke="#63b8ff" d="M623.37,-292.22C634.75,-294.96 646.9,-298.16 658,-301.64 673.71,-306.56 690.57,-312.86 705.51,-318.8"/>
<polygon fill="#63b8ff" stroke="#63b8ff" points="704.44,-322.14 715.02,-322.63 707.06,-315.65 704.44,-322.14"/>
</a>
</g>
</g>
<!-- Node16&#45;&gt;Node4 -->
<g id="edge29_Node000016_Node000004" class="edge">
<title>Node16&#45;&gt;Node4</title>
<g id="a_edge29_Node000016_Node000004"><a xlink:title=" ">
<path fill="none" stroke="#63b8ff" d="M632.64,-255.21C641.35,-257.69 650.09,-260.79 658,-264.64 684.4,-277.48 710.2,-298.96 727.72,-315.31"/>
<polygon fill="#63b8ff" stroke="#63b8ff" points="725.52,-318.04 735.17,-322.41 730.35,-312.97 725.52,-318.04"/>
</a>
</g>
</g>
<!-- Node17&#45;&gt;Node4 -->
<g id="edge31_Node000017_Node000004" class="edge">
<title>Node17&#45;&gt;Node4</title>
<g id="a_edge31_Node000017_Node000004"><a xlink:title=" ">
<path fill="none" stroke="#63b8ff" d="M637.54,-218.21C644.72,-220.66 651.73,-223.76 658,-227.64 692.88,-249.24 720.97,-288.6 736.56,-313.91"/>
<polygon fill="#63b8ff" stroke="#63b8ff" points="733.59,-315.76 741.73,-322.55 739.6,-312.17 733.59,-315.76"/>
</a>
</g>
</g>
<!-- Node18&#45;&gt;Node4 -->
<g id="edge33_Node000018_Node000004" class="edge">
<title>Node18&#45;&gt;Node4</title>
<g id="a_edge33_Node000018_Node000004"><a xlink:title=" ">
<path fill="none" stroke="#63b8ff" d="M632.72,-178.6C641.7,-181.38 650.51,-185.26 658,-190.64 701.21,-221.69 728.6,-279.92 741.43,-313.01"/>
<polygon fill="#63b8ff" stroke="#63b8ff" points="738.16,-314.27 744.94,-322.41 744.72,-311.82 738.16,-314.27"/>
</a>
</g>
</g>
<!-- Node19&#45;&gt;Node4 -->
<g id="edge35_Node000019_Node000004" class="edge">
<title>Node19&#45;&gt;Node4</title>
<g id="a_edge35_Node000019_Node000004"><a xlink:title=" ">
<path fill="none" stroke="#63b8ff" d="M641.7,-144.16C647.55,-146.65 653.11,-149.76 658,-153.64 709.76,-194.72 734.76,-272.54 744.64,-312.53"/>
<polygon fill="#63b8ff" stroke="#63b8ff" points="741.3,-313.59 746.99,-322.52 748.11,-311.98 741.3,-313.59"/>
</a>
</g>
</g>
<!-- Node20&#45;&gt;Node4 -->
<g id="edge37_Node000020_Node000004" class="edge">
<title>Node20&#45;&gt;Node4</title>
<g id="a_edge37_Node000020_Node000004"><a xlink:title=" ">
<path fill="none" stroke="#63b8ff" d="M634.32,-103.87C642.92,-106.75 651.19,-110.84 658,-116.64 718.63,-168.28 740.04,-266.45 746.98,-312.55"/>
<polygon fill="#63b8ff" stroke="#63b8ff" points="743.53,-313.16 748.38,-322.58 750.46,-312.19 743.53,-313.16"/>
</a>
</g>
</g>
<!-- Node21&#45;&gt;Node4 -->
<g id="edge39_Node000021_Node000004" class="edge">
<title>Node21&#45;&gt;Node4</title>
<g id="a_edge39_Node000021_Node000004"><a xlink:title=" ">
<path fill="none" stroke="#63b8ff" d="M632.12,-65.77C641.58,-68.71 650.71,-73.1 658,-79.64 727.55,-142.06 744.53,-260.69 748.67,-312.44"/>
<polygon fill="#63b8ff" stroke="#63b8ff" points="745.18,-312.69 749.37,-322.42 752.16,-312.2 745.18,-312.69"/>
</a>
</g>
</g>
<!-- Node22&#45;&gt;Node4 -->
<g id="edge41_Node000022_Node000004" class="edge">
<title>Node22&#45;&gt;Node4</title>
<g id="a_edge41_Node000022_Node000004"><a xlink:title=" ">
<path fill="none" stroke="#63b8ff" d="M634.52,-26.93C643.2,-30.39 651.45,-35.14 658,-41.64 734.47,-117.49 747.6,-255.68 749.69,-312.36"/>
<polygon fill="#63b8ff" stroke="#63b8ff" points="746.2,-312.67 749.98,-322.56 753.2,-312.47 746.2,-312.67"/>
</a>
</g>
</g>
</g>
</svg>
