<?xml version="1.0" encoding="UTF-8" standalone="no"?>
<!DOCTYPE svg PUBLIC "-//W3C//DTD SVG 1.1//EN"
 "http://www.w3.org/Graphics/SVG/1.1/DTD/svg11.dtd">
<!-- Generated by graphviz version 2.43.0 (0)
 -->
<!-- Title: lci::post_get_x::operator() Pages: 1 -->
<svg width="816pt" height="804pt"
 viewBox="0.00 0.00 816.00 803.90" xmlns="http://www.w3.org/2000/svg" xmlns:xlink="http://www.w3.org/1999/xlink">
<g id="graph0" class="graph" transform="scale(1 1) rotate(0) translate(4 799.9)">
<title>lci::post_get_x::operator()</title>
<!-- Node1 -->
<g id="Node000001" class="node">
<title>Node1</title>
<g id="a_Node000001"><a xlink:title=" ">
<polygon fill="#999999" stroke="#666666" points="142,-409.9 0,-409.9 0,-390.9 142,-390.9 142,-409.9"/>
<text text-anchor="middle" x="71" y="-397.9" font-family="Helvetica,sans-Serif" font-size="10.00">lci::post_get_x::operator()</text>
</a>
</g>
</g>
<!-- Node2 -->
<g id="Node000002" class="node">
<title>Node2</title>
<g id="a_Node000002"><a xlink:href="../../db/d54/classlci_1_1post__get__x.html#adadc688f0e9e014ac2f0d2a49ab89ce7" target="_top" xlink:title=" ">
<polygon fill="white" stroke="#666666" points="288,-409.9 178,-409.9 178,-390.9 288,-390.9 288,-409.9"/>
<text text-anchor="middle" x="233" y="-397.9" font-family="Helvetica,sans-Serif" font-size="10.00">lci::post_get_x::call</text>
</a>
</g>
</g>
<!-- Node1&#45;&gt;Node2 -->
<g id="edge1_Node000001_Node000002" class="edge">
<title>Node1&#45;&gt;Node2</title>
<g id="a_edge1_Node000001_Node000002"><a xlink:title=" ">
<path fill="none" stroke="#63b8ff" d="M142.18,-400.4C150.65,-400.4 159.28,-400.4 167.67,-400.4"/>
<polygon fill="#63b8ff" stroke="#63b8ff" points="167.75,-403.9 177.75,-400.4 167.75,-396.9 167.75,-403.9"/>
</a>
</g>
</g>
<!-- Node3 -->
<g id="Node000003" class="node">
<title>Node3</title>
<g id="a_Node000003"><a xlink:href="../../db/d54/classlci_1_1post__get__x.html#a29495aee6145a53bd30973c7aab3ef4f" target="_top" xlink:title=" ">
<polygon fill="white" stroke="#666666" points="652,-795.9 503,-795.9 503,-776.9 652,-776.9 652,-795.9"/>
<text text-anchor="middle" x="577.5" y="-783.9" font-family="Helvetica,sans-Serif" font-size="10.00">lci::post_get_x::allow_done</text>
</a>
</g>
</g>
<!-- Node2&#45;&gt;Node3 -->
<g id="edge2_Node000002_Node000003" class="edge">
<title>Node2&#45;&gt;Node3</title>
<g id="a_edge2_Node000002_Node000003"><a xlink:title=" ">
<path fill="none" stroke="#63b8ff" d="M233.6,-410.09C232.38,-452.99 233.33,-627.71 324,-718.4 368.19,-762.6 437.89,-778.93 492.87,-784.57"/>
<polygon fill="#63b8ff" stroke="#63b8ff" points="492.67,-788.07 502.95,-785.51 493.32,-781.1 492.67,-788.07"/>
</a>
</g>
</g>
<!-- Node5 -->
<g id="Node000005" class="node">
<title>Node5</title>
<g id="a_Node000005"><a xlink:href="../../db/d54/classlci_1_1post__get__x.html#aae33e9f61a69952f9e96d79a3a7d07c3" target="_top" xlink:title=" ">
<polygon fill="white" stroke="#666666" points="637,-758.4 518,-758.4 518,-728.4 637,-728.4 637,-758.4"/>
<text text-anchor="start" x="526" y="-746.4" font-family="Helvetica,sans-Serif" font-size="10.00">lci::post_get_x::allow</text>
<text text-anchor="middle" x="577.5" y="-735.4" font-family="Helvetica,sans-Serif" font-size="10.00">_posted</text>
</a>
</g>
</g>
<!-- Node2&#45;&gt;Node5 -->
<g id="edge4_Node000002_Node000005" class="edge">
<title>Node2&#45;&gt;Node5</title>
<g id="a_edge4_Node000002_Node000005"><a xlink:title=" ">
<path fill="none" stroke="#63b8ff" d="M234.09,-410.09C235,-449.35 243.8,-598.16 324,-674.4 373.3,-721.27 451.27,-736.92 507.53,-741.83"/>
<polygon fill="#63b8ff" stroke="#63b8ff" points="507.53,-745.34 517.77,-742.63 508.08,-738.36 507.53,-745.34"/>
</a>
</g>
</g>
<!-- Node6 -->
<g id="Node000006" class="node">
<title>Node6</title>
<g id="a_Node000006"><a xlink:href="../../db/d54/classlci_1_1post__get__x.html#afa8dc94772275fcea9a20a5c5c890480" target="_top" xlink:title=" ">
<polygon fill="white" stroke="#666666" points="637,-710.4 518,-710.4 518,-680.4 637,-680.4 637,-710.4"/>
<text text-anchor="start" x="526" y="-698.4" font-family="Helvetica,sans-Serif" font-size="10.00">lci::post_get_x::allow</text>
<text text-anchor="middle" x="577.5" y="-687.4" font-family="Helvetica,sans-Serif" font-size="10.00">_retry</text>
</a>
</g>
</g>
<!-- Node2&#45;&gt;Node6 -->
<g id="edge6_Node000002_Node000006" class="edge">
<title>Node2&#45;&gt;Node6</title>
<g id="a_edge6_Node000002_Node000006"><a xlink:title=" ">
<path fill="none" stroke="#63b8ff" d="M234.67,-410.15C237.66,-445.9 253.02,-570.96 324,-633.4 374.57,-677.89 451.97,-691.58 507.75,-695.26"/>
<polygon fill="#63b8ff" stroke="#63b8ff" points="507.71,-698.76 517.9,-695.83 508.11,-691.77 507.71,-698.76"/>
</a>
</g>
</g>
<!-- Node7 -->
<g id="Node000007" class="node">
<title>Node7</title>
<g id="a_Node000007"><a xlink:href="../../db/d54/classlci_1_1post__get__x.html#a850f6fec0cedba401af4faa762f65ca7" target="_top" xlink:title=" ">
<polygon fill="white" stroke="#666666" points="641,-661.9 514,-661.9 514,-642.9 641,-642.9 641,-661.9"/>
<text text-anchor="middle" x="577.5" y="-649.9" font-family="Helvetica,sans-Serif" font-size="10.00">lci::post_get_x::buffers</text>
</a>
</g>
</g>
<!-- Node2&#45;&gt;Node7 -->
<g id="edge8_Node000002_Node000007" class="edge">
<title>Node2&#45;&gt;Node7</title>
<g id="a_edge8_Node000002_Node000007"><a xlink:title=" ">
<path fill="none" stroke="#63b8ff" d="M235.52,-410.24C240.98,-442.14 262.66,-543.43 324,-593.4 374.6,-634.62 448.87,-648.07 503.77,-651.99"/>
<polygon fill="#63b8ff" stroke="#63b8ff" points="503.59,-655.49 513.79,-652.62 504.02,-648.5 503.59,-655.49"/>
</a>
</g>
</g>
<!-- Node8 -->
<g id="Node000008" class="node">
<title>Node8</title>
<g id="a_Node000008"><a xlink:href="../../db/d54/classlci_1_1post__get__x.html#a5eb9cbfc230daee972aaa5d39f6f043d" target="_top" xlink:title=" ">
<polygon fill="white" stroke="#666666" points="461,-409.9 324,-409.9 324,-390.9 461,-390.9 461,-409.9"/>
<text text-anchor="middle" x="392.5" y="-397.9" font-family="Helvetica,sans-Serif" font-size="10.00">lci::post_get_x::call_impl</text>
</a>
</g>
</g>
<!-- Node2&#45;&gt;Node8 -->
<g id="edge10_Node000002_Node000008" class="edge">
<title>Node2&#45;&gt;Node8</title>
<g id="a_edge10_Node000002_Node000008"><a xlink:title=" ">
<path fill="none" stroke="#63b8ff" d="M288.2,-400.4C296.45,-400.4 305.1,-400.4 313.74,-400.4"/>
<polygon fill="#63b8ff" stroke="#63b8ff" points="313.84,-403.9 323.84,-400.4 313.84,-396.9 313.84,-403.9"/>
</a>
</g>
</g>
<!-- Node9 -->
<g id="Node000009" class="node">
<title>Node9</title>
<g id="a_Node000009"><a xlink:href="../../db/d54/classlci_1_1post__get__x.html#ae5063e804814ece1bcf5720cd9b78b94" target="_top" xlink:title=" ">
<polygon fill="white" stroke="#666666" points="640,-624.9 515,-624.9 515,-605.9 640,-605.9 640,-624.9"/>
<text text-anchor="middle" x="577.5" y="-612.9" font-family="Helvetica,sans-Serif" font-size="10.00">lci::post_get_x::device</text>
</a>
</g>
</g>
<!-- Node2&#45;&gt;Node9 -->
<g id="edge47_Node000002_Node000009" class="edge">
<title>Node2&#45;&gt;Node9</title>
<g id="a_edge47_Node000002_Node000009"><a xlink:title=" ">
<path fill="none" stroke="#63b8ff" d="M236.78,-410.07C245.1,-437.22 272.5,-514.72 324,-553.4 376.31,-592.67 450.3,-607.35 504.67,-612.69"/>
<polygon fill="#63b8ff" stroke="#63b8ff" points="504.66,-616.21 514.93,-613.61 505.28,-609.23 504.66,-616.21"/>
</a>
</g>
</g>
<!-- Node10 -->
<g id="Node000010" class="node">
<title>Node10</title>
<g id="a_Node000010"><a xlink:href="../../db/d54/classlci_1_1post__get__x.html#ada8d3a7d775a52e72afd83366507af07" target="_top" xlink:title=" ">
<polygon fill="white" stroke="#666666" points="645.5,-587.9 509.5,-587.9 509.5,-568.9 645.5,-568.9 645.5,-587.9"/>
<text text-anchor="middle" x="577.5" y="-575.9" font-family="Helvetica,sans-Serif" font-size="10.00">lci::post_get_x::endpoint</text>
</a>
</g>
</g>
<!-- Node2&#45;&gt;Node10 -->
<g id="edge48_Node000002_Node000010" class="edge">
<title>Node2&#45;&gt;Node10</title>
<g id="a_edge48_Node000002_Node000010"><a xlink:title=" ">
<path fill="none" stroke="#63b8ff" d="M238.77,-410.19C250.18,-432.54 281.32,-487.56 324,-515.4 376.53,-549.66 446.33,-565.29 499.22,-572.42"/>
<polygon fill="#63b8ff" stroke="#63b8ff" points="498.87,-575.9 509.23,-573.69 499.75,-568.96 498.87,-575.9"/>
</a>
</g>
</g>
<!-- Node11 -->
<g id="Node000011" class="node">
<title>Node11</title>
<g id="a_Node000011"><a xlink:href="../../db/d54/classlci_1_1post__get__x.html#a807f8d570a90508b7fc4913ed305a1b6" target="_top" xlink:title=" ">
<polygon fill="white" stroke="#666666" points="636.5,-550.4 518.5,-550.4 518.5,-520.4 636.5,-520.4 636.5,-550.4"/>
<text text-anchor="start" x="526.5" y="-538.4" font-family="Helvetica,sans-Serif" font-size="10.00">lci::post_get_x::force</text>
<text text-anchor="middle" x="577.5" y="-527.4" font-family="Helvetica,sans-Serif" font-size="10.00">_zcopy</text>
</a>
</g>
</g>
<!-- Node2&#45;&gt;Node11 -->
<g id="edge49_Node000002_Node000011" class="edge">
<title>Node2&#45;&gt;Node11</title>
<g id="a_edge49_Node000002_Node000011"><a xlink:title=" ">
<path fill="none" stroke="#63b8ff" d="M241.77,-410.15C256.08,-427.42 288.42,-463.25 324,-481.4 381.93,-510.95 455.3,-524.35 508,-530.42"/>
<polygon fill="#63b8ff" stroke="#63b8ff" points="507.93,-533.93 518.25,-531.53 508.69,-526.97 507.93,-533.93"/>
</a>
</g>
</g>
<!-- Node12 -->
<g id="Node000012" class="node">
<title>Node12</title>
<g id="a_Node000012"><a xlink:href="../../db/d54/classlci_1_1post__get__x.html#a9e32fa2a7456e522a28fd65df221313e" target="_top" xlink:title=" ">
<polygon fill="white" stroke="#666666" points="635.5,-502.4 519.5,-502.4 519.5,-472.4 635.5,-472.4 635.5,-502.4"/>
<text text-anchor="start" x="527.5" y="-490.4" font-family="Helvetica,sans-Serif" font-size="10.00">lci::post_get_x::local</text>
<text text-anchor="middle" x="577.5" y="-479.4" font-family="Helvetica,sans-Serif" font-size="10.00">_buffer</text>
</a>
</g>
</g>
<!-- Node2&#45;&gt;Node12 -->
<g id="edge50_Node000002_Node000012" class="edge">
<title>Node2&#45;&gt;Node12</title>
<g id="a_edge50_Node000002_Node000012"><a xlink:title=" ">
<path fill="none" stroke="#63b8ff" d="M246.28,-410.05C262.89,-422.53 293.89,-443.91 324,-454.4 384.47,-475.46 457.35,-483.25 509.23,-486.05"/>
<polygon fill="#63b8ff" stroke="#63b8ff" points="509.16,-489.55 519.32,-486.55 509.5,-482.56 509.16,-489.55"/>
</a>
</g>
</g>
<!-- Node13 -->
<g id="Node000013" class="node">
<title>Node13</title>
<g id="a_Node000013"><a xlink:href="../../db/d54/classlci_1_1post__get__x.html#ae638454abf3d3c1dfa4eb39929f8fb80" target="_top" xlink:title=" ">
<polygon fill="white" stroke="#666666" points="652,-453.9 503,-453.9 503,-434.9 652,-434.9 652,-453.9"/>
<text text-anchor="middle" x="577.5" y="-441.9" font-family="Helvetica,sans-Serif" font-size="10.00">lci::post_get_x::local_comp</text>
</a>
</g>
</g>
<!-- Node2&#45;&gt;Node13 -->
<g id="edge51_Node000002_Node000013" class="edge">
<title>Node2&#45;&gt;Node13</title>
<g id="a_edge51_Node000002_Node000013"><a xlink:title=" ">
<path fill="none" stroke="#63b8ff" d="M253.82,-410.01C271.7,-418.16 298.96,-429.31 324,-434.4 379.51,-445.67 443.25,-448.12 492.8,-447.77"/>
<polygon fill="#63b8ff" stroke="#63b8ff" points="492.87,-451.27 502.83,-447.66 492.79,-444.27 492.87,-451.27"/>
</a>
</g>
</g>
<!-- Node14 -->
<g id="Node000014" class="node">
<title>Node14</title>
<g id="a_Node000014"><a xlink:href="../../db/d54/classlci_1_1post__get__x.html#a678b29957db320f2f8e7e85d25d38a15" target="_top" xlink:title=" ">
<polygon fill="white" stroke="#666666" points="631,-416.9 524,-416.9 524,-397.9 631,-397.9 631,-416.9"/>
<text text-anchor="middle" x="577.5" y="-404.9" font-family="Helvetica,sans-Serif" font-size="10.00">lci::post_get_x::mr</text>
</a>
</g>
</g>
<!-- Node2&#45;&gt;Node14 -->
<g id="edge52_Node000002_Node000014" class="edge">
<title>Node2&#45;&gt;Node14</title>
<g id="a_edge52_Node000002_Node000014"><a xlink:title=" ">
<path fill="none" stroke="#63b8ff" d="M270.51,-409.91C286.76,-413.67 306.21,-417.54 324,-419.4 388.32,-426.11 462.25,-421.12 513.41,-415.68"/>
<polygon fill="#63b8ff" stroke="#63b8ff" points="514.1,-419.12 523.66,-414.55 513.33,-412.16 514.1,-419.12"/>
</a>
</g>
</g>
<!-- Node15 -->
<g id="Node000015" class="node">
<title>Node15</title>
<g id="a_Node000015"><a xlink:href="../../db/d54/classlci_1_1post__get__x.html#ab533de3b7fe1493b65171af6f8cd1fc3" target="_top" xlink:title=" ">
<polygon fill="white" stroke="#666666" points="653.5,-379.9 501.5,-379.9 501.5,-360.9 653.5,-360.9 653.5,-379.9"/>
<text text-anchor="middle" x="577.5" y="-367.9" font-family="Helvetica,sans-Serif" font-size="10.00">lci::post_get_x::packet_pool</text>
</a>
</g>
</g>
<!-- Node2&#45;&gt;Node15 -->
<g id="edge53_Node000002_Node000015" class="edge">
<title>Node2&#45;&gt;Node15</title>
<g id="a_edge53_Node000002_Node000015"><a xlink:title=" ">
<path fill="none" stroke="#63b8ff" d="M275.01,-390.85C290.3,-387.64 307.87,-384.38 324,-382.4 379.41,-375.58 442.09,-372.57 491.14,-371.28"/>
<polygon fill="#63b8ff" stroke="#63b8ff" points="491.49,-374.77 501.4,-371.03 491.31,-367.77 491.49,-374.77"/>
</a>
</g>
</g>
<!-- Node16 -->
<g id="Node000016" class="node">
<title>Node16</title>
<g id="a_Node000016"><a xlink:href="../../db/d54/classlci_1_1post__get__x.html#ae00c61e2bc754a0ed46625ca9d44b04e" target="_top" xlink:title=" ">
<polygon fill="white" stroke="#666666" points="635,-342.9 520,-342.9 520,-323.9 635,-323.9 635,-342.9"/>
<text text-anchor="middle" x="577.5" y="-330.9" font-family="Helvetica,sans-Serif" font-size="10.00">lci::post_get_x::rank</text>
</a>
</g>
</g>
<!-- Node2&#45;&gt;Node16 -->
<g id="edge54_Node000002_Node000016" class="edge">
<title>Node2&#45;&gt;Node16</title>
<g id="a_edge54_Node000002_Node000016"><a xlink:title=" ">
<path fill="none" stroke="#63b8ff" d="M256.91,-390.79C274.87,-383.61 300.64,-374.11 324,-368.4 386.07,-353.23 458.44,-344.04 509.75,-338.91"/>
<polygon fill="#63b8ff" stroke="#63b8ff" points="510.11,-342.39 519.72,-337.93 509.43,-335.42 510.11,-342.39"/>
</a>
</g>
</g>
<!-- Node17 -->
<g id="Node000017" class="node">
<title>Node17</title>
<g id="a_Node000017"><a xlink:href="../../db/d54/classlci_1_1post__get__x.html#a4a5fcb0069be2cc6db139283432e6b10" target="_top" xlink:title=" ">
<polygon fill="white" stroke="#666666" points="643,-305.9 512,-305.9 512,-286.9 643,-286.9 643,-305.9"/>
<text text-anchor="middle" x="577.5" y="-293.9" font-family="Helvetica,sans-Serif" font-size="10.00">lci::post_get_x::rbuffers</text>
</a>
</g>
</g>
<!-- Node2&#45;&gt;Node17 -->
<g id="edge55_Node000002_Node000017" class="edge">
<title>Node2&#45;&gt;Node17</title>
<g id="a_edge55_Node000002_Node000017"><a xlink:title=" ">
<path fill="none" stroke="#63b8ff" d="M245.06,-390.77C261.22,-377.24 292.79,-352.87 324,-340.4 381.23,-317.52 450.45,-306.52 501.93,-301.24"/>
<polygon fill="#63b8ff" stroke="#63b8ff" points="502.37,-304.71 511.99,-300.26 501.69,-297.75 502.37,-304.71"/>
</a>
</g>
</g>
<!-- Node18 -->
<g id="Node000018" class="node">
<title>Node18</title>
<g id="a_Node000018"><a xlink:href="../../db/d54/classlci_1_1post__get__x.html#ae6450886db2f6ecfb35245d4049edcf1" target="_top" xlink:title=" ">
<polygon fill="white" stroke="#666666" points="641.5,-268.4 513.5,-268.4 513.5,-238.4 641.5,-238.4 641.5,-268.4"/>
<text text-anchor="start" x="521.5" y="-256.4" font-family="Helvetica,sans-Serif" font-size="10.00">lci::post_get_x::remote</text>
<text text-anchor="middle" x="577.5" y="-245.4" font-family="Helvetica,sans-Serif" font-size="10.00">_buffer</text>
</a>
</g>
</g>
<!-- Node2&#45;&gt;Node18 -->
<g id="edge56_Node000002_Node000018" class="edge">
<title>Node2&#45;&gt;Node18</title>
<g id="a_edge56_Node000002_Node000018"><a xlink:title=" ">
<path fill="none" stroke="#63b8ff" d="M239.81,-390.72C252.4,-370.67 284.28,-324.61 324,-302.4 379.08,-271.6 450.3,-259.87 503.06,-255.55"/>
<polygon fill="#63b8ff" stroke="#63b8ff" points="503.64,-259.01 513.35,-254.78 503.12,-252.03 503.64,-259.01"/>
</a>
</g>
</g>
<!-- Node19 -->
<g id="Node000019" class="node">
<title>Node19</title>
<g id="a_Node000019"><a xlink:href="../../db/d54/classlci_1_1post__get__x.html#a9fcca224387844ef97c4437af444faec" target="_top" xlink:title=" ">
<polygon fill="white" stroke="#666666" points="658,-219.9 497,-219.9 497,-200.9 658,-200.9 658,-219.9"/>
<text text-anchor="middle" x="577.5" y="-207.9" font-family="Helvetica,sans-Serif" font-size="10.00">lci::post_get_x::remote_comp</text>
</a>
</g>
</g>
<!-- Node2&#45;&gt;Node19 -->
<g id="edge57_Node000002_Node000019" class="edge">
<title>Node2&#45;&gt;Node19</title>
<g id="a_edge57_Node000002_Node000019"><a xlink:title=" ">
<path fill="none" stroke="#63b8ff" d="M236.95,-390.74C245.56,-364.37 273.26,-290.83 324,-256.4 371.53,-224.15 435.21,-212.71 486.73,-209.31"/>
<polygon fill="#63b8ff" stroke="#63b8ff" points="487.08,-212.79 496.87,-208.73 486.68,-205.8 487.08,-212.79"/>
</a>
</g>
</g>
<!-- Node20 -->
<g id="Node000020" class="node">
<title>Node20</title>
<g id="a_Node000020"><a xlink:href="../../db/d54/classlci_1_1post__get__x.html#a96066c719819fe7d159096f611f3ce40" target="_top" xlink:title=" ">
<polygon fill="white" stroke="#666666" points="632.5,-182.9 522.5,-182.9 522.5,-163.9 632.5,-163.9 632.5,-182.9"/>
<text text-anchor="middle" x="577.5" y="-170.9" font-family="Helvetica,sans-Serif" font-size="10.00">lci::post_get_x::rmr</text>
</a>
</g>
</g>
<!-- Node2&#45;&gt;Node20 -->
<g id="edge58_Node000002_Node000020" class="edge">
<title>Node2&#45;&gt;Node20</title>
<g id="a_edge58_Node000002_Node000020"><a xlink:title=" ">
<path fill="none" stroke="#63b8ff" d="M235.26,-390.76C240.01,-358.61 259.97,-254.49 324,-207.4 378.26,-167.49 457.31,-163.03 512.45,-165.97"/>
<polygon fill="#63b8ff" stroke="#63b8ff" points="512.26,-169.46 522.46,-166.59 512.7,-162.47 512.26,-169.46"/>
</a>
</g>
</g>
<!-- Node21 -->
<g id="Node000021" class="node">
<title>Node21</title>
<g id="a_Node000021"><a xlink:href="../../db/d54/classlci_1_1post__get__x.html#ac3b93ca830abcb7bb56e268915fad980" target="_top" xlink:title=" ">
<polygon fill="white" stroke="#666666" points="643,-145.9 512,-145.9 512,-126.9 643,-126.9 643,-145.9"/>
<text text-anchor="middle" x="577.5" y="-133.9" font-family="Helvetica,sans-Serif" font-size="10.00">lci::post_get_x::runtime</text>
</a>
</g>
</g>
<!-- Node2&#45;&gt;Node21 -->
<g id="edge59_Node000002_Node000021" class="edge">
<title>Node2&#45;&gt;Node21</title>
<g id="a_edge59_Node000002_Node000021"><a xlink:title=" ">
<path fill="none" stroke="#63b8ff" d="M234.26,-390.82C235.82,-354 246.8,-220.66 324,-161.4 378.36,-119.67 459.9,-119.43 515.51,-125.66"/>
<polygon fill="#63b8ff" stroke="#63b8ff" points="515.22,-129.15 525.57,-126.89 516.07,-122.2 515.22,-129.15"/>
</a>
</g>
</g>
<!-- Node22 -->
<g id="Node000022" class="node">
<title>Node22</title>
<g id="a_Node000022"><a xlink:href="../../db/d54/classlci_1_1post__get__x.html#acd5ead27a3560139798f7c39431cbdf4" target="_top" xlink:title=" ">
<polygon fill="white" stroke="#666666" points="634,-108.9 521,-108.9 521,-89.9 634,-89.9 634,-108.9"/>
<text text-anchor="middle" x="577.5" y="-96.9" font-family="Helvetica,sans-Serif" font-size="10.00">lci::post_get_x::size</text>
</a>
</g>
</g>
<!-- Node2&#45;&gt;Node22 -->
<g id="edge60_Node000002_Node000022" class="edge">
<title>Node2&#45;&gt;Node22</title>
<g id="a_edge60_Node000002_Node000022"><a xlink:title=" ">
<path fill="none" stroke="#63b8ff" d="M233.61,-390.82C232.53,-349.97 234.27,-189.27 324,-118.4 381.32,-73.13 470.61,-78.62 526.21,-88.05"/>
<polygon fill="#63b8ff" stroke="#63b8ff" points="525.73,-91.52 536.19,-89.84 526.97,-84.63 525.73,-91.52"/>
</a>
</g>
</g>
<!-- Node23 -->
<g id="Node000023" class="node">
<title>Node23</title>
<g id="a_Node000023"><a xlink:href="../../db/d54/classlci_1_1post__get__x.html#a2a87093d9d3e41f5fc2da87df7a4db28" target="_top" xlink:title=" ">
<polygon fill="white" stroke="#666666" points="632,-71.9 523,-71.9 523,-52.9 632,-52.9 632,-71.9"/>
<text text-anchor="middle" x="577.5" y="-59.9" font-family="Helvetica,sans-Serif" font-size="10.00">lci::post_get_x::tag</text>
</a>
</g>
</g>
<!-- Node2&#45;&gt;Node23 -->
<g id="edge61_Node000002_Node000023" class="edge">
<title>Node2&#45;&gt;Node23</title>
<g id="a_edge61_Node000002_Node000023"><a xlink:title=" ">
<path fill="none" stroke="#63b8ff" d="M235.18,-390.83C241.45,-341.75 272.48,-118.99 324,-77.4 382.54,-30.13 475.83,-39.42 531.12,-50.73"/>
<polygon fill="#63b8ff" stroke="#63b8ff" points="530.48,-54.17 540.99,-52.85 531.95,-47.32 530.48,-54.17"/>
</a>
</g>
</g>
<!-- Node24 -->
<g id="Node000024" class="node">
<title>Node24</title>
<g id="a_Node000024"><a xlink:href="../../db/d54/classlci_1_1post__get__x.html#ae8ab8b05f92e3637b69c694780a1f02e" target="_top" xlink:title=" ">
<polygon fill="white" stroke="#666666" points="634.5,-34.4 520.5,-34.4 520.5,-4.4 634.5,-4.4 634.5,-34.4"/>
<text text-anchor="start" x="528.5" y="-22.4" font-family="Helvetica,sans-Serif" font-size="10.00">lci::post_get_x::user</text>
<text text-anchor="middle" x="577.5" y="-11.4" font-family="Helvetica,sans-Serif" font-size="10.00">_context</text>
</a>
</g>
</g>
<!-- Node2&#45;&gt;Node24 -->
<g id="edge62_Node000002_Node000024" class="edge">
<title>Node2&#45;&gt;Node24</title>
<g id="a_edge62_Node000002_Node000024"><a xlink:title=" ">
<path fill="none" stroke="#63b8ff" d="M234.9,-390.76C240.03,-338.16 267.34,-86.23 324,-38.4 374.91,4.58 454.05,3.33 510.14,-4.85"/>
<polygon fill="#63b8ff" stroke="#63b8ff" points="509.91,-8.35 520.33,-6.44 511,-1.44 509.91,-8.35"/>
</a>
</g>
</g>
<!-- Node4 -->
<g id="Node000004" class="node">
<title>Node4</title>
<g id="a_Node000004"><a xlink:href="../../db/d54/classlci_1_1post__get__x.html#ab1cde07efb9eb197568e983dd168c041" target="_top" xlink:title=" ">
<polygon fill="white" stroke="#666666" points="808,-403.4 694,-403.4 694,-373.4 808,-373.4 808,-403.4"/>
<text text-anchor="start" x="702" y="-391.4" font-family="Helvetica,sans-Serif" font-size="10.00">lci::post_get_x::post</text>
<text text-anchor="middle" x="751" y="-380.4" font-family="Helvetica,sans-Serif" font-size="10.00">_get_x</text>
</a>
</g>
</g>
<!-- Node3&#45;&gt;Node4 -->
<g id="edge3_Node000003_Node000004" class="edge">
<title>Node3&#45;&gt;Node4</title>
<g id="a_edge3_Node000003_Node000004"><a xlink:title=" ">
<path fill="none" stroke="#63b8ff" d="M644.96,-776.81C649.74,-774.3 654.18,-771.2 658,-767.4 708.86,-716.72 738.59,-489.92 747.3,-413.57"/>
<polygon fill="#63b8ff" stroke="#63b8ff" points="750.8,-413.77 748.43,-403.44 743.84,-412.99 750.8,-413.77"/>
</a>
</g>
</g>
<!-- Node5&#45;&gt;Node4 -->
<g id="edge5_Node000005_Node000004" class="edge">
<title>Node5&#45;&gt;Node4</title>
<g id="a_edge5_Node000005_Node000004"><a xlink:title=" ">
<path fill="none" stroke="#63b8ff" d="M637.11,-733.26C644.87,-729.88 652.15,-725.38 658,-719.4 742.61,-632.9 750.9,-475.62 750.69,-414.07"/>
<polygon fill="#63b8ff" stroke="#63b8ff" points="754.19,-413.69 750.57,-403.73 747.19,-413.77 754.19,-413.69"/>
</a>
</g>
</g>
<!-- Node6&#45;&gt;Node4 -->
<g id="edge7_Node000006_Node000004" class="edge">
<title>Node6&#45;&gt;Node4</title>
<g id="a_edge7_Node000006_Node000004"><a xlink:title=" ">
<path fill="none" stroke="#63b8ff" d="M637.29,-684.86C644.93,-681.53 652.13,-677.15 658,-671.4 731.39,-599.54 746.28,-468.62 749.26,-413.71"/>
<polygon fill="#63b8ff" stroke="#63b8ff" points="752.77,-413.63 749.73,-403.48 745.78,-413.31 752.77,-413.63"/>
</a>
</g>
</g>
<!-- Node7&#45;&gt;Node4 -->
<g id="edge9_Node000007_Node000004" class="edge">
<title>Node7&#45;&gt;Node4</title>
<g id="a_edge9_Node000007_Node000004"><a xlink:title=" ">
<path fill="none" stroke="#63b8ff" d="M641.32,-644.58C647.39,-642 653.1,-638.68 658,-634.4 725.04,-575.86 743.33,-463.59 748.24,-413.55"/>
<polygon fill="#63b8ff" stroke="#63b8ff" points="751.73,-413.85 749.12,-403.58 744.75,-413.23 751.73,-413.85"/>
</a>
</g>
</g>
<!-- Node8&#45;&gt;Node3 -->
<g id="edge11_Node000008_Node000003" class="edge">
<title>Node8&#45;&gt;Node3</title>
<g id="a_edge11_Node000008_Node000003"><a xlink:title=" ">
<path fill="none" stroke="#63b8ff" d="M394.89,-410.03C402.65,-462.65 442.33,-714.89 497,-767.4 498.5,-768.84 500.08,-770.17 501.74,-771.41"/>
<polygon fill="#63b8ff" stroke="#63b8ff" points="500.23,-774.59 510.58,-776.85 503.9,-768.63 500.23,-774.59"/>
</a>
</g>
</g>
<!-- Node8&#45;&gt;Node5 -->
<g id="edge12_Node000008_Node000005" class="edge">
<title>Node8&#45;&gt;Node5</title>
<g id="a_edge12_Node000008_Node000005"><a xlink:title=" ">
<path fill="none" stroke="#63b8ff" d="M393.59,-410.11C394.51,-453.13 404.04,-628.33 497,-719.4 500.49,-722.81 504.44,-725.74 508.68,-728.26"/>
<polygon fill="#63b8ff" stroke="#63b8ff" points="507.21,-731.44 517.71,-732.86 510.39,-725.2 507.21,-731.44"/>
</a>
</g>
</g>
<!-- Node8&#45;&gt;Node6 -->
<g id="edge13_Node000008_Node000006" class="edge">
<title>Node8&#45;&gt;Node6</title>
<g id="a_edge13_Node000008_Node000006"><a xlink:title=" ">
<path fill="none" stroke="#63b8ff" d="M394.21,-409.96C397.59,-448.7 415.53,-595.56 497,-671.4 500.57,-674.72 504.59,-677.59 508.87,-680.06"/>
<polygon fill="#63b8ff" stroke="#63b8ff" points="507.46,-683.26 517.97,-684.59 510.58,-677 507.46,-683.26"/>
</a>
</g>
</g>
<!-- Node8&#45;&gt;Node7 -->
<g id="edge14_Node000008_Node000007" class="edge">
<title>Node8&#45;&gt;Node7</title>
<g id="a_edge14_Node000008_Node000007"><a xlink:title=" ">
<path fill="none" stroke="#63b8ff" d="M394.72,-410.27C399.75,-446.44 422.22,-572.87 497,-634.4 499.43,-636.4 502.05,-638.19 504.79,-639.79"/>
<polygon fill="#63b8ff" stroke="#63b8ff" points="503.41,-643.01 513.93,-644.28 506.49,-636.73 503.41,-643.01"/>
</a>
</g>
</g>
<!-- Node8&#45;&gt;Node9 -->
<g id="edge15_Node000008_Node000009" class="edge">
<title>Node8&#45;&gt;Node9</title>
<g id="a_edge15_Node000008_Node000009"><a xlink:title=" ">
<path fill="none" stroke="#63b8ff" d="M395.54,-410.05C402.9,-442.24 431.12,-546.81 497,-597.4 499.64,-599.42 502.46,-601.23 505.41,-602.84"/>
<polygon fill="#63b8ff" stroke="#63b8ff" points="504.06,-606.07 514.6,-607.1 507,-599.72 504.06,-606.07"/>
</a>
</g>
</g>
<!-- Node8&#45;&gt;Node10 -->
<g id="edge17_Node000008_Node000010" class="edge">
<title>Node8&#45;&gt;Node10</title>
<g id="a_edge17_Node000008_Node000010"><a xlink:title=" ">
<path fill="none" stroke="#63b8ff" d="M396.85,-410.09C407.04,-438.08 440.47,-519.54 497,-559.4 499.73,-561.32 502.62,-563.05 505.63,-564.6"/>
<polygon fill="#63b8ff" stroke="#63b8ff" points="504.4,-567.89 514.95,-568.77 507.25,-561.5 504.4,-567.89"/>
</a>
</g>
</g>
<!-- Node8&#45;&gt;Node11 -->
<g id="edge19_Node000008_Node000011" class="edge">
<title>Node8&#45;&gt;Node11</title>
<g id="a_edge19_Node000008_Node000011"><a xlink:title=" ">
<path fill="none" stroke="#63b8ff" d="M399.77,-410.01C414.26,-431.47 452.26,-483.55 497,-511.4 500.82,-513.78 504.89,-515.93 509.1,-517.88"/>
<polygon fill="#63b8ff" stroke="#63b8ff" points="507.89,-521.17 518.47,-521.84 510.61,-514.72 507.89,-521.17"/>
</a>
</g>
</g>
<!-- Node8&#45;&gt;Node12 -->
<g id="edge21_Node000008_Node000012" class="edge">
<title>Node8&#45;&gt;Node12</title>
<g id="a_edge21_Node000008_Node000012"><a xlink:title=" ">
<path fill="none" stroke="#63b8ff" d="M406.63,-409.9C425.72,-423.36 462.62,-448.04 497,-463.4 501.38,-465.35 505.96,-467.2 510.62,-468.95"/>
<polygon fill="#63b8ff" stroke="#63b8ff" points="509.65,-472.32 520.25,-472.37 512,-465.72 509.65,-472.32"/>
</a>
</g>
</g>
<!-- Node8&#45;&gt;Node13 -->
<g id="edge23_Node000008_Node000013" class="edge">
<title>Node8&#45;&gt;Node13</title>
<g id="a_edge23_Node000008_Node000013"><a xlink:title=" ">
<path fill="none" stroke="#63b8ff" d="M430.82,-410C450.48,-415 475.02,-421.15 497,-426.4 505.6,-428.45 514.74,-430.58 523.64,-432.61"/>
<polygon fill="#63b8ff" stroke="#63b8ff" points="523.02,-436.06 533.55,-434.87 524.57,-429.24 523.02,-436.06"/>
</a>
</g>
</g>
<!-- Node8&#45;&gt;Node14 -->
<g id="edge25_Node000008_Node000014" class="edge">
<title>Node8&#45;&gt;Node14</title>
<g id="a_edge25_Node000008_Node000014"><a xlink:title=" ">
<path fill="none" stroke="#63b8ff" d="M461.12,-402.99C478.24,-403.64 496.55,-404.34 513.43,-404.99"/>
<polygon fill="#63b8ff" stroke="#63b8ff" points="513.61,-408.5 523.74,-405.38 513.88,-401.5 513.61,-408.5"/>
</a>
</g>
</g>
<!-- Node8&#45;&gt;Node15 -->
<g id="edge27_Node000008_Node000015" class="edge">
<title>Node8&#45;&gt;Node15</title>
<g id="a_edge27_Node000008_Node000015"><a xlink:title=" ">
<path fill="none" stroke="#63b8ff" d="M451.65,-390.86C469.75,-387.9 489.87,-384.6 508.57,-381.53"/>
<polygon fill="#63b8ff" stroke="#63b8ff" points="509.2,-384.98 518.5,-379.91 508.06,-378.07 509.2,-384.98"/>
</a>
</g>
</g>
<!-- Node8&#45;&gt;Node16 -->
<g id="edge29_Node000008_Node000016" class="edge">
<title>Node8&#45;&gt;Node16</title>
<g id="a_edge29_Node000008_Node000016"><a xlink:title=" ">
<path fill="none" stroke="#63b8ff" d="M411.37,-390.77C431.64,-380.17 465.94,-363.19 497,-352.4 504.35,-349.84 512.2,-347.51 520,-345.42"/>
<polygon fill="#63b8ff" stroke="#63b8ff" points="520.99,-348.78 529.81,-342.91 519.25,-342 520.99,-348.78"/>
</a>
</g>
</g>
<!-- Node8&#45;&gt;Node17 -->
<g id="edge31_Node000008_Node000017" class="edge">
<title>Node8&#45;&gt;Node17</title>
<g id="a_edge31_Node000008_Node000017"><a xlink:title=" ">
<path fill="none" stroke="#63b8ff" d="M402.18,-390.84C418.79,-373.14 457.02,-335.26 497,-315.4 501.85,-312.99 507.01,-310.88 512.29,-309.03"/>
<polygon fill="#63b8ff" stroke="#63b8ff" points="513.42,-312.34 521.88,-305.97 511.29,-305.67 513.42,-312.34"/>
</a>
</g>
</g>
<!-- Node8&#45;&gt;Node18 -->
<g id="edge33_Node000008_Node000018" class="edge">
<title>Node8&#45;&gt;Node18</title>
<g id="a_edge33_Node000008_Node000018"><a xlink:title=" ">
<path fill="none" stroke="#63b8ff" d="M398.93,-390.89C412.47,-368.02 450.02,-309.58 497,-278.4 500.07,-276.36 503.32,-274.48 506.69,-272.74"/>
<polygon fill="#63b8ff" stroke="#63b8ff" points="508.22,-275.89 515.8,-268.49 505.25,-269.55 508.22,-275.89"/>
</a>
</g>
</g>
<!-- Node8&#45;&gt;Node19 -->
<g id="edge35_Node000008_Node000019" class="edge">
<title>Node8&#45;&gt;Node19</title>
<g id="a_edge35_Node000008_Node000019"><a xlink:title=" ">
<path fill="none" stroke="#63b8ff" d="M396.36,-390.82C405.59,-361.58 437.58,-272.77 497,-229.4 499.55,-227.53 502.27,-225.85 505.09,-224.33"/>
<polygon fill="#63b8ff" stroke="#63b8ff" points="506.82,-227.39 514.42,-220.01 503.88,-221.03 506.82,-227.39"/>
</a>
</g>
</g>
<!-- Node8&#45;&gt;Node20 -->
<g id="edge37_Node000008_Node000020" class="edge">
<title>Node8&#45;&gt;Node20</title>
<g id="a_edge37_Node000008_Node000020"><a xlink:title=" ">
<path fill="none" stroke="#63b8ff" d="M395.3,-390.72C402.01,-357.42 428.81,-246.63 497,-192.4 501.7,-188.66 507.01,-185.64 512.61,-183.21"/>
<polygon fill="#63b8ff" stroke="#63b8ff" points="514.09,-186.39 522.24,-179.63 511.65,-179.83 514.09,-186.39"/>
</a>
</g>
</g>
<!-- Node8&#45;&gt;Node21 -->
<g id="edge39_Node000008_Node000021" class="edge">
<title>Node8&#45;&gt;Node21</title>
<g id="a_edge39_Node000008_Node000021"><a xlink:title=" ">
<path fill="none" stroke="#63b8ff" d="M394.5,-390.87C398.86,-354.2 419.67,-220.91 497,-155.4 498.99,-153.71 501.1,-152.17 503.31,-150.76"/>
<polygon fill="#63b8ff" stroke="#63b8ff" points="505.1,-153.77 512.25,-145.96 501.79,-147.61 505.1,-153.77"/>
</a>
</g>
</g>
<!-- Node8&#45;&gt;Node22 -->
<g id="edge41_Node000008_Node000022" class="edge">
<title>Node8&#45;&gt;Node22</title>
<g id="a_edge41_Node000008_Node000022"><a xlink:title=" ">
<path fill="none" stroke="#63b8ff" d="M393.91,-390.87C396.18,-350.9 410.48,-195.33 497,-118.4 501.24,-114.63 506.1,-111.57 511.28,-109.1"/>
<polygon fill="#63b8ff" stroke="#63b8ff" points="512.9,-112.22 520.87,-105.25 510.29,-105.72 512.9,-112.22"/>
</a>
</g>
</g>
<!-- Node8&#45;&gt;Node23 -->
<g id="edge43_Node000008_Node000023" class="edge">
<title>Node8&#45;&gt;Node23</title>
<g id="a_edge43_Node000008_Node000023"><a xlink:title=" ">
<path fill="none" stroke="#63b8ff" d="M393.46,-390.84C393.81,-347.76 401.2,-169.9 497,-81.4 501.72,-77.04 507.26,-73.63 513.18,-70.96"/>
<polygon fill="#63b8ff" stroke="#63b8ff" points="514.6,-74.17 522.73,-67.37 512.13,-67.61 514.6,-74.17"/>
</a>
</g>
</g>
<!-- Node8&#45;&gt;Node24 -->
<g id="edge45_Node000008_Node000024" class="edge">
<title>Node8&#45;&gt;Node24</title>
<g id="a_edge45_Node000008_Node000024"><a xlink:title=" ">
<path fill="none" stroke="#63b8ff" d="M393.2,-390.81C392.31,-345.05 394.67,-146.86 497,-43.4 501.16,-39.2 506.02,-35.72 511.26,-32.86"/>
<polygon fill="#63b8ff" stroke="#63b8ff" points="512.81,-36 520.37,-28.58 509.83,-29.66 512.81,-36"/>
</a>
</g>
</g>
<!-- Node9&#45;&gt;Node4 -->
<g id="edge16_Node000009_Node000004" class="edge">
<title>Node9&#45;&gt;Node4</title>
<g id="a_edge16_Node000009_Node000004"><a xlink:title=" ">
<path fill="none" stroke="#63b8ff" d="M640.28,-607.62C646.69,-605.05 652.76,-601.72 658,-597.4 716.08,-549.53 738.61,-457.72 746.38,-413.46"/>
<polygon fill="#63b8ff" stroke="#63b8ff" points="749.84,-413.97 748.01,-403.54 742.93,-412.84 749.84,-413.97"/>
</a>
</g>
</g>
<!-- Node10&#45;&gt;Node4 -->
<g id="edge18_Node000010_Node000004" class="edge">
<title>Node10&#45;&gt;Node4</title>
<g id="a_edge18_Node000010_Node000004"><a xlink:title=" ">
<path fill="none" stroke="#63b8ff" d="M641.18,-568.89C647.2,-566.41 652.94,-563.29 658,-559.4 706.84,-521.81 732.84,-450.71 743.72,-413.12"/>
<polygon fill="#63b8ff" stroke="#63b8ff" points="747.1,-414.03 746.39,-403.46 740.35,-412.17 747.1,-414.03"/>
</a>
</g>
</g>
<!-- Node11&#45;&gt;Node4 -->
<g id="edge20_Node000011_Node000004" class="edge">
<title>Node11&#45;&gt;Node4</title>
<g id="a_edge20_Node000011_Node000004"><a xlink:title=" ">
<path fill="none" stroke="#63b8ff" d="M636.56,-522.66C644.13,-519.65 651.5,-515.95 658,-511.4 694.73,-485.67 722.91,-440.67 737.92,-412.81"/>
<polygon fill="#63b8ff" stroke="#63b8ff" points="741.13,-414.22 742.67,-403.74 734.93,-410.97 741.13,-414.22"/>
</a>
</g>
</g>
<!-- Node12&#45;&gt;Node4 -->
<g id="edge22_Node000012_Node000004" class="edge">
<title>Node12&#45;&gt;Node4</title>
<g id="a_edge22_Node000012_Node000004"><a xlink:title=" ">
<path fill="none" stroke="#63b8ff" d="M635.62,-473.13C643.34,-470.35 651,-467.12 658,-463.4 684.35,-449.39 710.33,-427.23 727.93,-410.62"/>
<polygon fill="#63b8ff" stroke="#63b8ff" points="730.62,-412.89 735.39,-403.43 725.76,-407.85 730.62,-412.89"/>
</a>
</g>
</g>
<!-- Node13&#45;&gt;Node4 -->
<g id="edge24_Node000013_Node000004" class="edge">
<title>Node13&#45;&gt;Node4</title>
<g id="a_edge24_Node000013_Node000004"><a xlink:title=" ">
<path fill="none" stroke="#63b8ff" d="M626.78,-434.84C637.16,-432.4 648.02,-429.56 658,-426.4 674.64,-421.12 692.48,-414.09 707.97,-407.51"/>
<polygon fill="#63b8ff" stroke="#63b8ff" points="709.49,-410.67 717.29,-403.49 706.72,-404.24 709.49,-410.67"/>
</a>
</g>
</g>
<!-- Node14&#45;&gt;Node4 -->
<g id="edge26_Node000014_Node000004" class="edge">
<title>Node14&#45;&gt;Node4</title>
<g id="a_edge26_Node000014_Node000004"><a xlink:title=" ">
<path fill="none" stroke="#63b8ff" d="M631.36,-401.54C647.89,-399.71 666.35,-397.67 683.69,-395.74"/>
<polygon fill="#63b8ff" stroke="#63b8ff" points="684.2,-399.21 693.75,-394.63 683.43,-392.25 684.2,-399.21"/>
</a>
</g>
</g>
<!-- Node15&#45;&gt;Node4 -->
<g id="edge28_Node000015_Node000004" class="edge">
<title>Node15&#45;&gt;Node4</title>
<g id="a_edge28_Node000015_Node000004"><a xlink:title=" ">
<path fill="none" stroke="#63b8ff" d="M653.72,-378.29C663.74,-379.35 673.96,-380.42 683.81,-381.45"/>
<polygon fill="#63b8ff" stroke="#63b8ff" points="683.61,-384.95 693.92,-382.51 684.34,-377.99 683.61,-384.95"/>
</a>
</g>
</g>
<!-- Node16&#45;&gt;Node4 -->
<g id="edge30_Node000016_Node000004" class="edge">
<title>Node16&#45;&gt;Node4</title>
<g id="a_edge30_Node000016_Node000004"><a xlink:title=" ">
<path fill="none" stroke="#63b8ff" d="M623.37,-342.97C634.75,-345.72 646.9,-348.92 658,-352.4 673.71,-357.32 690.57,-363.61 705.51,-369.56"/>
<polygon fill="#63b8ff" stroke="#63b8ff" points="704.44,-372.9 715.02,-373.39 707.06,-366.41 704.44,-372.9"/>
</a>
</g>
</g>
<!-- Node17&#45;&gt;Node4 -->
<g id="edge32_Node000017_Node000004" class="edge">
<title>Node17&#45;&gt;Node4</title>
<g id="a_edge32_Node000017_Node000004"><a xlink:title=" ">
<path fill="none" stroke="#63b8ff" d="M632.64,-305.97C641.35,-308.45 650.09,-311.55 658,-315.4 684.4,-328.24 710.2,-349.72 727.72,-366.06"/>
<polygon fill="#63b8ff" stroke="#63b8ff" points="725.52,-368.79 735.17,-373.16 730.35,-363.73 725.52,-368.79"/>
</a>
</g>
</g>
<!-- Node18&#45;&gt;Node4 -->
<g id="edge34_Node000018_Node000004" class="edge">
<title>Node18&#45;&gt;Node4</title>
<g id="a_edge34_Node000018_Node000004"><a xlink:title=" ">
<path fill="none" stroke="#63b8ff" d="M639.23,-268.45C645.82,-271.25 652.23,-274.54 658,-278.4 691.91,-301.08 720.11,-339.8 736.01,-364.73"/>
<polygon fill="#63b8ff" stroke="#63b8ff" points="733.04,-366.59 741.3,-373.23 738.99,-362.89 733.04,-366.59"/>
</a>
</g>
</g>
<!-- Node19&#45;&gt;Node4 -->
<g id="edge36_Node000019_Node000004" class="edge">
<title>Node19&#45;&gt;Node4</title>
<g id="a_edge36_Node000019_Node000004"><a xlink:title=" ">
<path fill="none" stroke="#63b8ff" d="M640.66,-219.9C646.85,-222.39 652.77,-225.5 658,-229.4 703.85,-263.57 730.61,-327.87 742.52,-363.33"/>
<polygon fill="#63b8ff" stroke="#63b8ff" points="739.22,-364.5 745.62,-372.94 745.88,-362.35 739.22,-364.5"/>
</a>
</g>
</g>
<!-- Node20&#45;&gt;Node4 -->
<g id="edge38_Node000020_Node000004" class="edge">
<title>Node20&#45;&gt;Node4</title>
<g id="a_edge38_Node000020_Node000004"><a xlink:title=" ">
<path fill="none" stroke="#63b8ff" d="M632.87,-179.49C641.93,-182.36 650.74,-186.49 658,-192.4 712.57,-236.82 736.53,-321.09 745.46,-363.17"/>
<polygon fill="#63b8ff" stroke="#63b8ff" points="742.06,-364.03 747.46,-373.14 748.93,-362.65 742.06,-364.03"/>
</a>
</g>
</g>
<!-- Node21&#45;&gt;Node4 -->
<g id="edge40_Node000021_Node000004" class="edge">
<title>Node21&#45;&gt;Node4</title>
<g id="a_edge40_Node000021_Node000004"><a xlink:title=" ">
<path fill="none" stroke="#63b8ff" d="M643.24,-146.02C648.58,-148.51 653.61,-151.59 658,-155.4 721.39,-210.4 741.49,-314.87 747.54,-362.98"/>
<polygon fill="#63b8ff" stroke="#63b8ff" points="744.09,-363.62 748.72,-373.15 751.05,-362.81 744.09,-363.62"/>
</a>
</g>
</g>
<!-- Node22&#45;&gt;Node4 -->
<g id="edge42_Node000022_Node000004" class="edge">
<title>Node22&#45;&gt;Node4</title>
<g id="a_edge42_Node000022_Node000004"><a xlink:title=" ">
<path fill="none" stroke="#63b8ff" d="M634.24,-105.11C642.96,-108.04 651.28,-112.28 658,-118.4 730.46,-184.36 745.87,-309.66 749.13,-363.16"/>
<polygon fill="#63b8ff" stroke="#63b8ff" points="745.64,-363.34 749.65,-373.15 752.63,-362.98 745.64,-363.34"/>
</a>
</g>
</g>
<!-- Node23&#45;&gt;Node4 -->
<g id="edge44_Node000023_Node000004" class="edge">
<title>Node23&#45;&gt;Node4</title>
<g id="a_edge44_Node000023_Node000004"><a xlink:title=" ">
<path fill="none" stroke="#63b8ff" d="M632.39,-67.24C641.83,-70.19 650.88,-74.67 658,-81.4 739.49,-158.41 749.7,-304.4 750.35,-363.06"/>
<polygon fill="#63b8ff" stroke="#63b8ff" points="746.85,-363.28 750.37,-373.27 753.85,-363.27 746.85,-363.28"/>
</a>
</g>
</g>
<!-- Node24&#45;&gt;Node4 -->
<g id="edge46_Node000024_Node000004" class="edge">
<title>Node24&#45;&gt;Node4</title>
<g id="a_edge46_Node000024_Node000004"><a xlink:title=" ">
<path fill="none" stroke="#63b8ff" d="M634.75,-28.46C643.41,-31.95 651.58,-36.77 658,-43.4 703.21,-90.11 736.09,-291.85 746.5,-363.24"/>
<polygon fill="#63b8ff" stroke="#63b8ff" points="743.04,-363.77 747.93,-373.17 749.97,-362.77 743.04,-363.77"/>
</a>
</g>
</g>
</g>
</svg>
