<?xml version="1.0" encoding="UTF-8" standalone="no"?>
<!DOCTYPE svg PUBLIC "-//W3C//DTD SVG 1.1//EN"
 "http://www.w3.org/Graphics/SVG/1.1/DTD/svg11.dtd">
<!-- Generated by graphviz version 2.43.0 (0)
 -->
<!-- Title: lci::post_get_x::call_impl Pages: 1 -->
<svg width="492pt" height="788pt"
 viewBox="0.00 0.00 492.00 787.50" xmlns="http://www.w3.org/2000/svg" xmlns:xlink="http://www.w3.org/1999/xlink">
<g id="graph0" class="graph" transform="scale(1 1) rotate(0) translate(4 783.5)">
<title>lci::post_get_x::call_impl</title>
<!-- Node1 -->
<g id="Node000001" class="node">
<title>Node1</title>
<g id="a_Node000001"><a xlink:title=" ">
<polygon fill="#999999" stroke="#666666" points="137,-381.5 0,-381.5 0,-362.5 137,-362.5 137,-381.5"/>
<text text-anchor="middle" x="68.5" y="-369.5" font-family="Helvetica,sans-Serif" font-size="10.00">lci::post_get_x::call_impl</text>
</a>
</g>
</g>
<!-- Node2 -->
<g id="Node000002" class="node">
<title>Node2</title>
<g id="a_Node000002"><a xlink:href="../../db/d54/classlci_1_1post__get__x.html#a29495aee6145a53bd30973c7aab3ef4f" target="_top" xlink:title=" ">
<polygon fill="white" stroke="#666666" points="328,-779.5 179,-779.5 179,-760.5 328,-760.5 328,-779.5"/>
<text text-anchor="middle" x="253.5" y="-767.5" font-family="Helvetica,sans-Serif" font-size="10.00">lci::post_get_x::allow_done</text>
</a>
</g>
</g>
<!-- Node1&#45;&gt;Node2 -->
<g id="edge1_Node000001_Node000002" class="edge">
<title>Node1&#45;&gt;Node2</title>
<g id="a_edge1_Node000001_Node000002"><a xlink:title=" ">
<path fill="none" stroke="#63b8ff" d="M70.79,-381.59C78.18,-435.13 116.78,-696.55 173,-751 174.49,-752.44 176.07,-753.78 177.72,-755.03"/>
<polygon fill="#63b8ff" stroke="#63b8ff" points="176.2,-758.2 186.54,-760.49 179.88,-752.25 176.2,-758.2"/>
</a>
</g>
</g>
<!-- Node4 -->
<g id="Node000004" class="node">
<title>Node4</title>
<g id="a_Node000004"><a xlink:href="../../db/d54/classlci_1_1post__get__x.html#aae33e9f61a69952f9e96d79a3a7d07c3" target="_top" xlink:title=" ">
<polygon fill="white" stroke="#666666" points="313,-742 194,-742 194,-712 313,-712 313,-742"/>
<text text-anchor="start" x="202" y="-730" font-family="Helvetica,sans-Serif" font-size="10.00">lci::post_get_x::allow</text>
<text text-anchor="middle" x="253.5" y="-719" font-family="Helvetica,sans-Serif" font-size="10.00">_posted</text>
</a>
</g>
</g>
<!-- Node1&#45;&gt;Node4 -->
<g id="edge3_Node000001_Node000004" class="edge">
<title>Node1&#45;&gt;Node4</title>
<g id="a_edge3_Node000001_Node000004"><a xlink:title=" ">
<path fill="none" stroke="#63b8ff" d="M69.45,-381.77C69.8,-425.85 77.16,-608.11 173,-703 176.47,-706.43 180.41,-709.38 184.63,-711.9"/>
<polygon fill="#63b8ff" stroke="#63b8ff" points="183.16,-715.08 193.65,-716.52 186.35,-708.85 183.16,-715.08"/>
</a>
</g>
</g>
<!-- Node5 -->
<g id="Node000005" class="node">
<title>Node5</title>
<g id="a_Node000005"><a xlink:href="../../db/d54/classlci_1_1post__get__x.html#afa8dc94772275fcea9a20a5c5c890480" target="_top" xlink:title=" ">
<polygon fill="white" stroke="#666666" points="313,-694 194,-694 194,-664 313,-664 313,-694"/>
<text text-anchor="start" x="202" y="-682" font-family="Helvetica,sans-Serif" font-size="10.00">lci::post_get_x::allow</text>
<text text-anchor="middle" x="253.5" y="-671" font-family="Helvetica,sans-Serif" font-size="10.00">_retry</text>
</a>
</g>
</g>
<!-- Node1&#45;&gt;Node5 -->
<g id="edge5_Node000001_Node000005" class="edge">
<title>Node1&#45;&gt;Node5</title>
<g id="a_edge5_Node000001_Node000005"><a xlink:title=" ">
<path fill="none" stroke="#63b8ff" d="M70.04,-381.7C72.81,-421.7 88.74,-575.45 173,-655 176.55,-658.35 180.55,-661.23 184.82,-663.72"/>
<polygon fill="#63b8ff" stroke="#63b8ff" points="183.39,-666.92 193.9,-668.27 186.53,-660.66 183.39,-666.92"/>
</a>
</g>
</g>
<!-- Node6 -->
<g id="Node000006" class="node">
<title>Node6</title>
<g id="a_Node000006"><a xlink:href="../../db/d54/classlci_1_1post__get__x.html#a850f6fec0cedba401af4faa762f65ca7" target="_top" xlink:title=" ">
<polygon fill="white" stroke="#666666" points="317,-645.5 190,-645.5 190,-626.5 317,-626.5 317,-645.5"/>
<text text-anchor="middle" x="253.5" y="-633.5" font-family="Helvetica,sans-Serif" font-size="10.00">lci::post_get_x::buffers</text>
</a>
</g>
</g>
<!-- Node1&#45;&gt;Node6 -->
<g id="edge7_Node000001_Node000006" class="edge">
<title>Node1&#45;&gt;Node6</title>
<g id="a_edge7_Node000001_Node000006"><a xlink:title=" ">
<path fill="none" stroke="#63b8ff" d="M70.46,-381.59C74.68,-418.52 95.06,-552.67 173,-618 175.42,-620.03 178.01,-621.83 180.74,-623.45"/>
<polygon fill="#63b8ff" stroke="#63b8ff" points="179.34,-626.66 189.85,-627.98 182.45,-620.39 179.34,-626.66"/>
</a>
</g>
</g>
<!-- Node7 -->
<g id="Node000007" class="node">
<title>Node7</title>
<g id="a_Node000007"><a xlink:href="../../db/d54/classlci_1_1post__get__x.html#ae5063e804814ece1bcf5720cd9b78b94" target="_top" xlink:title=" ">
<polygon fill="white" stroke="#666666" points="316,-608.5 191,-608.5 191,-589.5 316,-589.5 316,-608.5"/>
<text text-anchor="middle" x="253.5" y="-596.5" font-family="Helvetica,sans-Serif" font-size="10.00">lci::post_get_x::device</text>
</a>
</g>
</g>
<!-- Node1&#45;&gt;Node7 -->
<g id="edge9_Node000001_Node000007" class="edge">
<title>Node1&#45;&gt;Node7</title>
<g id="a_edge9_Node000001_Node000007"><a xlink:title=" ">
<path fill="none" stroke="#63b8ff" d="M71.26,-381.75C77.84,-415.31 104.28,-526.91 173,-581 175.75,-583.17 178.72,-585.08 181.82,-586.78"/>
<polygon fill="#63b8ff" stroke="#63b8ff" points="180.36,-589.96 190.91,-590.98 183.3,-583.6 180.36,-589.96"/>
</a>
</g>
</g>
<!-- Node8 -->
<g id="Node000008" class="node">
<title>Node8</title>
<g id="a_Node000008"><a xlink:href="../../db/d54/classlci_1_1post__get__x.html#ada8d3a7d775a52e72afd83366507af07" target="_top" xlink:title=" ">
<polygon fill="white" stroke="#666666" points="321.5,-571.5 185.5,-571.5 185.5,-552.5 321.5,-552.5 321.5,-571.5"/>
<text text-anchor="middle" x="253.5" y="-559.5" font-family="Helvetica,sans-Serif" font-size="10.00">lci::post_get_x::endpoint</text>
</a>
</g>
</g>
<!-- Node1&#45;&gt;Node8 -->
<g id="edge11_Node000001_Node000008" class="edge">
<title>Node1&#45;&gt;Node8</title>
<g id="a_edge11_Node000001_Node000008"><a xlink:title=" ">
<path fill="none" stroke="#63b8ff" d="M72.36,-381.57C81.59,-410.82 113.58,-499.62 173,-543 175.55,-544.86 178.27,-546.55 181.09,-548.07"/>
<polygon fill="#63b8ff" stroke="#63b8ff" points="179.88,-551.36 190.42,-552.39 182.82,-545.01 179.88,-551.36"/>
</a>
</g>
</g>
<!-- Node9 -->
<g id="Node000009" class="node">
<title>Node9</title>
<g id="a_Node000009"><a xlink:href="../../db/d54/classlci_1_1post__get__x.html#a807f8d570a90508b7fc4913ed305a1b6" target="_top" xlink:title=" ">
<polygon fill="white" stroke="#666666" points="312.5,-534 194.5,-534 194.5,-504 312.5,-504 312.5,-534"/>
<text text-anchor="start" x="202.5" y="-522" font-family="Helvetica,sans-Serif" font-size="10.00">lci::post_get_x::force</text>
<text text-anchor="middle" x="253.5" y="-511" font-family="Helvetica,sans-Serif" font-size="10.00">_zcopy</text>
</a>
</g>
</g>
<!-- Node1&#45;&gt;Node9 -->
<g id="edge13_Node000001_Node000009" class="edge">
<title>Node1&#45;&gt;Node9</title>
<g id="a_edge13_Node000001_Node000009"><a xlink:title=" ">
<path fill="none" stroke="#63b8ff" d="M74.89,-381.63C88.33,-404.76 125.68,-463.85 173,-495 176.76,-497.48 180.78,-499.7 184.95,-501.71"/>
<polygon fill="#63b8ff" stroke="#63b8ff" points="183.7,-504.98 194.27,-505.75 186.49,-498.56 183.7,-504.98"/>
</a>
</g>
</g>
<!-- Node10 -->
<g id="Node000010" class="node">
<title>Node10</title>
<g id="a_Node000010"><a xlink:href="../../db/d54/classlci_1_1post__get__x.html#a9e32fa2a7456e522a28fd65df221313e" target="_top" xlink:title=" ">
<polygon fill="white" stroke="#666666" points="311.5,-486 195.5,-486 195.5,-456 311.5,-456 311.5,-486"/>
<text text-anchor="start" x="203.5" y="-474" font-family="Helvetica,sans-Serif" font-size="10.00">lci::post_get_x::local</text>
<text text-anchor="middle" x="253.5" y="-463" font-family="Helvetica,sans-Serif" font-size="10.00">_buffer</text>
</a>
</g>
</g>
<!-- Node1&#45;&gt;Node10 -->
<g id="edge15_Node000001_Node000010" class="edge">
<title>Node1&#45;&gt;Node10</title>
<g id="a_edge15_Node000001_Node000010"><a xlink:title=" ">
<path fill="none" stroke="#63b8ff" d="M80.19,-381.65C98.14,-397.38 136.02,-428.67 173,-447 177.03,-449 181.26,-450.87 185.59,-452.61"/>
<polygon fill="#63b8ff" stroke="#63b8ff" points="184.56,-455.96 195.15,-456.21 187.03,-449.41 184.56,-455.96"/>
</a>
</g>
</g>
<!-- Node11 -->
<g id="Node000011" class="node">
<title>Node11</title>
<g id="a_Node000011"><a xlink:href="../../db/d54/classlci_1_1post__get__x.html#ae638454abf3d3c1dfa4eb39929f8fb80" target="_top" xlink:title=" ">
<polygon fill="white" stroke="#666666" points="328,-437.5 179,-437.5 179,-418.5 328,-418.5 328,-437.5"/>
<text text-anchor="middle" x="253.5" y="-425.5" font-family="Helvetica,sans-Serif" font-size="10.00">lci::post_get_x::local_comp</text>
</a>
</g>
</g>
<!-- Node1&#45;&gt;Node11 -->
<g id="edge17_Node000001_Node000011" class="edge">
<title>Node1&#45;&gt;Node11</title>
<g id="a_edge17_Node000001_Node000011"><a xlink:title=" ">
<path fill="none" stroke="#63b8ff" d="M93.05,-381.64C113.84,-389.91 145.1,-401.76 173,-410 180.27,-412.15 187.97,-414.18 195.61,-416.06"/>
<polygon fill="#63b8ff" stroke="#63b8ff" points="195.04,-419.52 205.58,-418.43 196.66,-412.71 195.04,-419.52"/>
</a>
</g>
</g>
<!-- Node12 -->
<g id="Node000012" class="node">
<title>Node12</title>
<g id="a_Node000012"><a xlink:href="../../db/d54/classlci_1_1post__get__x.html#a678b29957db320f2f8e7e85d25d38a15" target="_top" xlink:title=" ">
<polygon fill="white" stroke="#666666" points="307,-400.5 200,-400.5 200,-381.5 307,-381.5 307,-400.5"/>
<text text-anchor="middle" x="253.5" y="-388.5" font-family="Helvetica,sans-Serif" font-size="10.00">lci::post_get_x::mr</text>
</a>
</g>
</g>
<!-- Node1&#45;&gt;Node12 -->
<g id="edge19_Node000001_Node000012" class="edge">
<title>Node1&#45;&gt;Node12</title>
<g id="a_edge19_Node000001_Node000012"><a xlink:title=" ">
<path fill="none" stroke="#63b8ff" d="M137.12,-379.02C154.24,-380.8 172.55,-382.7 189.43,-384.45"/>
<polygon fill="#63b8ff" stroke="#63b8ff" points="189.43,-387.97 199.74,-385.52 190.15,-381.01 189.43,-387.97"/>
</a>
</g>
</g>
<!-- Node13 -->
<g id="Node000013" class="node">
<title>Node13</title>
<g id="a_Node000013"><a xlink:href="../../db/d54/classlci_1_1post__get__x.html#ab533de3b7fe1493b65171af6f8cd1fc3" target="_top" xlink:title=" ">
<polygon fill="white" stroke="#666666" points="329.5,-363.5 177.5,-363.5 177.5,-344.5 329.5,-344.5 329.5,-363.5"/>
<text text-anchor="middle" x="253.5" y="-351.5" font-family="Helvetica,sans-Serif" font-size="10.00">lci::post_get_x::packet_pool</text>
</a>
</g>
</g>
<!-- Node1&#45;&gt;Node13 -->
<g id="edge21_Node000001_Node000013" class="edge">
<title>Node1&#45;&gt;Node13</title>
<g id="a_edge21_Node000001_Node000013"><a xlink:title=" ">
<path fill="none" stroke="#63b8ff" d="M137.12,-365.35C146.97,-364.38 157.22,-363.37 167.36,-362.37"/>
<polygon fill="#63b8ff" stroke="#63b8ff" points="167.84,-365.84 177.45,-361.38 167.16,-358.88 167.84,-365.84"/>
</a>
</g>
</g>
<!-- Node14 -->
<g id="Node000014" class="node">
<title>Node14</title>
<g id="a_Node000014"><a xlink:href="../../db/d54/classlci_1_1post__get__x.html#ae00c61e2bc754a0ed46625ca9d44b04e" target="_top" xlink:title=" ">
<polygon fill="white" stroke="#666666" points="311,-326.5 196,-326.5 196,-307.5 311,-307.5 311,-326.5"/>
<text text-anchor="middle" x="253.5" y="-314.5" font-family="Helvetica,sans-Serif" font-size="10.00">lci::post_get_x::rank</text>
</a>
</g>
</g>
<!-- Node1&#45;&gt;Node14 -->
<g id="edge23_Node000001_Node000014" class="edge">
<title>Node1&#45;&gt;Node14</title>
<g id="a_edge23_Node000001_Node000014"><a xlink:title=" ">
<path fill="none" stroke="#63b8ff" d="M94.79,-362.41C115.61,-354.7 145.98,-343.91 173,-336 181.41,-333.54 190.39,-331.16 199.18,-328.97"/>
<polygon fill="#63b8ff" stroke="#63b8ff" points="200.09,-332.35 208.97,-326.57 198.42,-325.55 200.09,-332.35"/>
</a>
</g>
</g>
<!-- Node15 -->
<g id="Node000015" class="node">
<title>Node15</title>
<g id="a_Node000015"><a xlink:href="../../db/d54/classlci_1_1post__get__x.html#a4a5fcb0069be2cc6db139283432e6b10" target="_top" xlink:title=" ">
<polygon fill="white" stroke="#666666" points="319,-289.5 188,-289.5 188,-270.5 319,-270.5 319,-289.5"/>
<text text-anchor="middle" x="253.5" y="-277.5" font-family="Helvetica,sans-Serif" font-size="10.00">lci::post_get_x::rbuffers</text>
</a>
</g>
</g>
<!-- Node1&#45;&gt;Node15 -->
<g id="edge25_Node000001_Node000015" class="edge">
<title>Node1&#45;&gt;Node15</title>
<g id="a_edge25_Node000001_Node000015"><a xlink:title=" ">
<path fill="none" stroke="#63b8ff" d="M80.12,-362.39C97.98,-346.75 135.73,-315.84 173,-299 178.38,-296.57 184.12,-294.42 189.95,-292.54"/>
<polygon fill="#63b8ff" stroke="#63b8ff" points="191.22,-295.81 199.81,-289.6 189.23,-289.1 191.22,-295.81"/>
</a>
</g>
</g>
<!-- Node16 -->
<g id="Node000016" class="node">
<title>Node16</title>
<g id="a_Node000016"><a xlink:href="../../db/d54/classlci_1_1post__get__x.html#a9fcca224387844ef97c4437af444faec" target="_top" xlink:title=" ">
<polygon fill="white" stroke="#666666" points="334,-252.5 173,-252.5 173,-233.5 334,-233.5 334,-252.5"/>
<text text-anchor="middle" x="253.5" y="-240.5" font-family="Helvetica,sans-Serif" font-size="10.00">lci::post_get_x::remote_comp</text>
</a>
</g>
</g>
<!-- Node1&#45;&gt;Node16 -->
<g id="edge27_Node000001_Node000016" class="edge">
<title>Node1&#45;&gt;Node16</title>
<g id="a_edge27_Node000001_Node000016"><a xlink:title=" ">
<path fill="none" stroke="#63b8ff" d="M75.68,-362.29C89.98,-340.64 127.63,-288.3 173,-262 176.9,-259.74 181.06,-257.74 185.36,-255.99"/>
<polygon fill="#63b8ff" stroke="#63b8ff" points="186.72,-259.22 194.92,-252.51 184.33,-252.64 186.72,-259.22"/>
</a>
</g>
</g>
<!-- Node17 -->
<g id="Node000017" class="node">
<title>Node17</title>
<g id="a_Node000017"><a xlink:href="../../db/d54/classlci_1_1post__get__x.html#a46c613bb21ea1b3ad3c42334e831ee51" target="_top" xlink:title=" ">
<polygon fill="white" stroke="#666666" points="330.5,-215.5 176.5,-215.5 176.5,-196.5 330.5,-196.5 330.5,-215.5"/>
<text text-anchor="middle" x="253.5" y="-203.5" font-family="Helvetica,sans-Serif" font-size="10.00">lci::post_get_x::remote_disp</text>
</a>
</g>
</g>
<!-- Node1&#45;&gt;Node17 -->
<g id="edge29_Node000001_Node000017" class="edge">
<title>Node1&#45;&gt;Node17</title>
<g id="a_edge29_Node000001_Node000017"><a xlink:title=" ">
<path fill="none" stroke="#63b8ff" d="M73.38,-362.28C84.53,-335.71 119.27,-261.44 173,-225 176.06,-222.93 179.31,-221.08 182.7,-219.43"/>
<polygon fill="#63b8ff" stroke="#63b8ff" points="184.07,-222.65 191.91,-215.52 181.34,-216.21 184.07,-222.65"/>
</a>
</g>
</g>
<!-- Node18 -->
<g id="Node000018" class="node">
<title>Node18</title>
<g id="a_Node000018"><a xlink:href="../../db/d54/classlci_1_1post__get__x.html#a96066c719819fe7d159096f611f3ce40" target="_top" xlink:title=" ">
<polygon fill="white" stroke="#666666" points="308.5,-178.5 198.5,-178.5 198.5,-159.5 308.5,-159.5 308.5,-178.5"/>
<text text-anchor="middle" x="253.5" y="-166.5" font-family="Helvetica,sans-Serif" font-size="10.00">lci::post_get_x::rmr</text>
</a>
</g>
</g>
<!-- Node1&#45;&gt;Node18 -->
<g id="edge31_Node000001_Node000018" class="edge">
<title>Node1&#45;&gt;Node18</title>
<g id="a_edge31_Node000001_Node000018"><a xlink:title=" ">
<path fill="none" stroke="#63b8ff" d="M72.01,-362.15C80.42,-331.18 110.69,-235.03 173,-188 177.79,-184.39 183.17,-181.45 188.8,-179.06"/>
<polygon fill="#63b8ff" stroke="#63b8ff" points="190.28,-182.25 198.48,-175.54 187.89,-175.67 190.28,-182.25"/>
</a>
</g>
</g>
<!-- Node19 -->
<g id="Node000019" class="node">
<title>Node19</title>
<g id="a_Node000019"><a xlink:href="../../db/d54/classlci_1_1post__get__x.html#ac3b93ca830abcb7bb56e268915fad980" target="_top" xlink:title=" ">
<polygon fill="white" stroke="#666666" points="319,-141.5 188,-141.5 188,-122.5 319,-122.5 319,-141.5"/>
<text text-anchor="middle" x="253.5" y="-129.5" font-family="Helvetica,sans-Serif" font-size="10.00">lci::post_get_x::runtime</text>
</a>
</g>
</g>
<!-- Node1&#45;&gt;Node19 -->
<g id="edge33_Node000001_Node000019" class="edge">
<title>Node1&#45;&gt;Node19</title>
<g id="a_edge33_Node000001_Node000019"><a xlink:title=" ">
<path fill="none" stroke="#63b8ff" d="M71.01,-362.22C76.92,-327.49 101.73,-209.07 173,-151 175.07,-149.31 177.26,-147.77 179.55,-146.36"/>
<polygon fill="#63b8ff" stroke="#63b8ff" points="181.54,-149.28 188.8,-141.57 178.31,-143.07 181.54,-149.28"/>
</a>
</g>
</g>
<!-- Node20 -->
<g id="Node000020" class="node">
<title>Node20</title>
<g id="a_Node000020"><a xlink:href="../../db/d54/classlci_1_1post__get__x.html#acd5ead27a3560139798f7c39431cbdf4" target="_top" xlink:title=" ">
<polygon fill="white" stroke="#666666" points="310,-104.5 197,-104.5 197,-85.5 310,-85.5 310,-104.5"/>
<text text-anchor="middle" x="253.5" y="-92.5" font-family="Helvetica,sans-Serif" font-size="10.00">lci::post_get_x::size</text>
</a>
</g>
</g>
<!-- Node1&#45;&gt;Node20 -->
<g id="edge35_Node000001_Node000020" class="edge">
<title>Node1&#45;&gt;Node20</title>
<g id="a_edge35_Node000001_Node000020"><a xlink:title=" ">
<path fill="none" stroke="#63b8ff" d="M70.3,-362.24C73.95,-324.05 92.62,-183.36 173,-114 177.23,-110.35 182.04,-107.37 187.15,-104.95"/>
<polygon fill="#63b8ff" stroke="#63b8ff" points="188.64,-108.12 196.62,-101.16 186.03,-101.63 188.64,-108.12"/>
</a>
</g>
</g>
<!-- Node21 -->
<g id="Node000021" class="node">
<title>Node21</title>
<g id="a_Node000021"><a xlink:href="../../db/d54/classlci_1_1post__get__x.html#a2a87093d9d3e41f5fc2da87df7a4db28" target="_top" xlink:title=" ">
<polygon fill="white" stroke="#666666" points="308,-67.5 199,-67.5 199,-48.5 308,-48.5 308,-67.5"/>
<text text-anchor="middle" x="253.5" y="-55.5" font-family="Helvetica,sans-Serif" font-size="10.00">lci::post_get_x::tag</text>
</a>
</g>
</g>
<!-- Node1&#45;&gt;Node21 -->
<g id="edge37_Node000001_Node000021" class="edge">
<title>Node1&#45;&gt;Node21</title>
<g id="a_edge37_Node000001_Node000021"><a xlink:title=" ">
<path fill="none" stroke="#63b8ff" d="M69.75,-362.32C71.35,-321.02 83.33,-157.89 173,-77 177.77,-72.7 183.34,-69.32 189.28,-66.68"/>
<polygon fill="#63b8ff" stroke="#63b8ff" points="190.71,-69.88 198.85,-63.1 188.26,-63.32 190.71,-69.88"/>
</a>
</g>
</g>
<!-- Node22 -->
<g id="Node000022" class="node">
<title>Node22</title>
<g id="a_Node000022"><a xlink:href="../../db/d54/classlci_1_1post__get__x.html#ae8ab8b05f92e3637b69c694780a1f02e" target="_top" xlink:title=" ">
<polygon fill="white" stroke="#666666" points="310.5,-30 196.5,-30 196.5,0 310.5,0 310.5,-30"/>
<text text-anchor="start" x="204.5" y="-18" font-family="Helvetica,sans-Serif" font-size="10.00">lci::post_get_x::user</text>
<text text-anchor="middle" x="253.5" y="-7" font-family="Helvetica,sans-Serif" font-size="10.00">_context</text>
</a>
</g>
</g>
<!-- Node1&#45;&gt;Node22 -->
<g id="edge39_Node000001_Node000022" class="edge">
<title>Node1&#45;&gt;Node22</title>
<g id="a_edge39_Node000001_Node000022"><a xlink:title=" ">
<path fill="none" stroke="#63b8ff" d="M69.47,-362.22C69.88,-318.12 77.49,-135.75 173,-40 177.19,-35.8 182.08,-32.3 187.33,-29.39"/>
<polygon fill="#63b8ff" stroke="#63b8ff" points="188.94,-32.5 196.46,-25.03 185.93,-26.19 188.94,-32.5"/>
</a>
</g>
</g>
<!-- Node3 -->
<g id="Node000003" class="node">
<title>Node3</title>
<g id="a_Node000003"><a xlink:href="../../db/d54/classlci_1_1post__get__x.html#a544592613caf9d08e85c26374f00f0a5" target="_top" xlink:title=" ">
<polygon fill="white" stroke="#666666" points="484,-387 370,-387 370,-357 484,-357 484,-387"/>
<text text-anchor="start" x="378" y="-375" font-family="Helvetica,sans-Serif" font-size="10.00">lci::post_get_x::post</text>
<text text-anchor="middle" x="427" y="-364" font-family="Helvetica,sans-Serif" font-size="10.00">_get_x</text>
</a>
</g>
</g>
<!-- Node2&#45;&gt;Node3 -->
<g id="edge2_Node000002_Node000003" class="edge">
<title>Node2&#45;&gt;Node3</title>
<g id="a_edge2_Node000002_Node000003"><a xlink:title=" ">
<path fill="none" stroke="#63b8ff" d="M320.96,-760.41C325.74,-757.9 330.18,-754.81 334,-751 384.86,-700.32 414.59,-473.52 423.3,-397.17"/>
<polygon fill="#63b8ff" stroke="#63b8ff" points="426.8,-397.37 424.43,-387.04 419.84,-396.59 426.8,-397.37"/>
</a>
</g>
</g>
<!-- Node4&#45;&gt;Node3 -->
<g id="edge4_Node000004_Node000003" class="edge">
<title>Node4&#45;&gt;Node3</title>
<g id="a_edge4_Node000004_Node000003"><a xlink:title=" ">
<path fill="none" stroke="#63b8ff" d="M313.11,-716.87C320.87,-713.48 328.15,-708.98 334,-703 418.61,-616.5 426.9,-459.23 426.69,-397.67"/>
<polygon fill="#63b8ff" stroke="#63b8ff" points="430.19,-397.29 426.57,-387.33 423.19,-397.37 430.19,-397.29"/>
</a>
</g>
</g>
<!-- Node5&#45;&gt;Node3 -->
<g id="edge6_Node000005_Node000003" class="edge">
<title>Node5&#45;&gt;Node3</title>
<g id="a_edge6_Node000005_Node000003"><a xlink:title=" ">
<path fill="none" stroke="#63b8ff" d="M313.29,-668.46C320.93,-665.13 328.13,-660.75 334,-655 407.39,-583.15 422.28,-452.22 425.26,-397.31"/>
<polygon fill="#63b8ff" stroke="#63b8ff" points="428.77,-397.23 425.73,-387.08 421.78,-396.91 428.77,-397.23"/>
</a>
</g>
</g>
<!-- Node6&#45;&gt;Node3 -->
<g id="edge8_Node000006_Node000003" class="edge">
<title>Node6&#45;&gt;Node3</title>
<g id="a_edge8_Node000006_Node000003"><a xlink:title=" ">
<path fill="none" stroke="#63b8ff" d="M317.32,-628.18C323.39,-625.61 329.1,-622.28 334,-618 401.04,-559.47 419.33,-447.19 424.24,-397.15"/>
<polygon fill="#63b8ff" stroke="#63b8ff" points="427.73,-397.45 425.12,-387.18 420.75,-396.84 427.73,-397.45"/>
</a>
</g>
</g>
<!-- Node7&#45;&gt;Node3 -->
<g id="edge10_Node000007_Node000003" class="edge">
<title>Node7&#45;&gt;Node3</title>
<g id="a_edge10_Node000007_Node000003"><a xlink:title=" ">
<path fill="none" stroke="#63b8ff" d="M316.28,-591.22C322.69,-588.65 328.76,-585.32 334,-581 392.08,-533.13 414.61,-441.32 422.38,-397.07"/>
<polygon fill="#63b8ff" stroke="#63b8ff" points="425.84,-397.58 424.01,-387.14 418.93,-396.44 425.84,-397.58"/>
</a>
</g>
</g>
<!-- Node8&#45;&gt;Node3 -->
<g id="edge12_Node000008_Node000003" class="edge">
<title>Node8&#45;&gt;Node3</title>
<g id="a_edge12_Node000008_Node000003"><a xlink:title=" ">
<path fill="none" stroke="#63b8ff" d="M317.18,-552.49C323.2,-550.01 328.94,-546.89 334,-543 382.84,-505.41 408.84,-434.31 419.72,-396.72"/>
<polygon fill="#63b8ff" stroke="#63b8ff" points="423.1,-397.64 422.39,-387.07 416.35,-395.77 423.1,-397.64"/>
</a>
</g>
</g>
<!-- Node9&#45;&gt;Node3 -->
<g id="edge14_Node000009_Node000003" class="edge">
<title>Node9&#45;&gt;Node3</title>
<g id="a_edge14_Node000009_Node000003"><a xlink:title=" ">
<path fill="none" stroke="#63b8ff" d="M312.56,-506.26C320.13,-503.25 327.5,-499.55 334,-495 370.73,-469.28 398.91,-424.27 413.92,-396.42"/>
<polygon fill="#63b8ff" stroke="#63b8ff" points="417.13,-397.82 418.67,-387.34 410.93,-394.57 417.13,-397.82"/>
</a>
</g>
</g>
<!-- Node10&#45;&gt;Node3 -->
<g id="edge16_Node000010_Node000003" class="edge">
<title>Node10&#45;&gt;Node3</title>
<g id="a_edge16_Node000010_Node000003"><a xlink:title=" ">
<path fill="none" stroke="#63b8ff" d="M311.62,-456.73C319.34,-453.95 327,-450.72 334,-447 360.35,-432.99 386.33,-410.83 403.93,-394.22"/>
<polygon fill="#63b8ff" stroke="#63b8ff" points="406.62,-396.49 411.39,-387.03 401.76,-391.45 406.62,-396.49"/>
</a>
</g>
</g>
<!-- Node11&#45;&gt;Node3 -->
<g id="edge18_Node000011_Node000003" class="edge">
<title>Node11&#45;&gt;Node3</title>
<g id="a_edge18_Node000011_Node000003"><a xlink:title=" ">
<path fill="none" stroke="#63b8ff" d="M302.78,-418.44C313.16,-416.01 324.02,-413.17 334,-410 350.64,-404.72 368.48,-397.69 383.97,-391.11"/>
<polygon fill="#63b8ff" stroke="#63b8ff" points="385.49,-394.27 393.29,-387.1 382.72,-387.84 385.49,-394.27"/>
</a>
</g>
</g>
<!-- Node12&#45;&gt;Node3 -->
<g id="edge20_Node000012_Node000003" class="edge">
<title>Node12&#45;&gt;Node3</title>
<g id="a_edge20_Node000012_Node000003"><a xlink:title=" ">
<path fill="none" stroke="#63b8ff" d="M307.36,-385.14C323.89,-383.31 342.35,-381.27 359.69,-379.35"/>
<polygon fill="#63b8ff" stroke="#63b8ff" points="360.2,-382.81 369.75,-378.23 359.43,-375.85 360.2,-382.81"/>
</a>
</g>
</g>
<!-- Node13&#45;&gt;Node3 -->
<g id="edge22_Node000013_Node000003" class="edge">
<title>Node13&#45;&gt;Node3</title>
<g id="a_edge22_Node000013_Node000003"><a xlink:title=" ">
<path fill="none" stroke="#63b8ff" d="M329.72,-361.9C339.74,-362.95 349.96,-364.02 359.81,-365.05"/>
<polygon fill="#63b8ff" stroke="#63b8ff" points="359.61,-368.55 369.92,-366.11 360.34,-361.59 359.61,-368.55"/>
</a>
</g>
</g>
<!-- Node14&#45;&gt;Node3 -->
<g id="edge24_Node000014_Node000003" class="edge">
<title>Node14&#45;&gt;Node3</title>
<g id="a_edge24_Node000014_Node000003"><a xlink:title=" ">
<path fill="none" stroke="#63b8ff" d="M299.37,-326.58C310.75,-329.32 322.9,-332.52 334,-336 349.71,-340.92 366.57,-347.22 381.51,-353.16"/>
<polygon fill="#63b8ff" stroke="#63b8ff" points="380.44,-356.5 391.02,-356.99 383.06,-350.01 380.44,-356.5"/>
</a>
</g>
</g>
<!-- Node15&#45;&gt;Node3 -->
<g id="edge26_Node000015_Node000003" class="edge">
<title>Node15&#45;&gt;Node3</title>
<g id="a_edge26_Node000015_Node000003"><a xlink:title=" ">
<path fill="none" stroke="#63b8ff" d="M308.64,-289.57C317.35,-292.05 326.09,-295.15 334,-299 360.4,-311.84 386.2,-333.32 403.72,-349.67"/>
<polygon fill="#63b8ff" stroke="#63b8ff" points="401.52,-352.4 411.17,-356.77 406.35,-347.33 401.52,-352.4"/>
</a>
</g>
</g>
<!-- Node16&#45;&gt;Node3 -->
<g id="edge28_Node000016_Node000003" class="edge">
<title>Node16&#45;&gt;Node3</title>
<g id="a_edge28_Node000016_Node000003"><a xlink:title=" ">
<path fill="none" stroke="#63b8ff" d="M313.54,-252.57C320.72,-255.02 327.73,-258.12 334,-262 368.88,-283.6 396.97,-322.96 412.56,-348.27"/>
<polygon fill="#63b8ff" stroke="#63b8ff" points="409.59,-350.12 417.73,-356.91 415.6,-346.53 409.59,-350.12"/>
</a>
</g>
</g>
<!-- Node17&#45;&gt;Node3 -->
<g id="edge30_Node000017_Node000003" class="edge">
<title>Node17&#45;&gt;Node3</title>
<g id="a_edge30_Node000017_Node000003"><a xlink:title=" ">
<path fill="none" stroke="#63b8ff" d="M316.11,-215.53C322.48,-218 328.58,-221.11 334,-225 377.21,-256.05 404.6,-314.28 417.43,-347.37"/>
<polygon fill="#63b8ff" stroke="#63b8ff" points="414.16,-348.63 420.94,-356.77 420.72,-346.18 414.16,-348.63"/>
</a>
</g>
</g>
<!-- Node18&#45;&gt;Node3 -->
<g id="edge32_Node000018_Node000003" class="edge">
<title>Node18&#45;&gt;Node3</title>
<g id="a_edge32_Node000018_Node000003"><a xlink:title=" ">
<path fill="none" stroke="#63b8ff" d="M308.75,-175.24C317.83,-178.09 326.66,-182.18 334,-188 385.76,-229.08 410.76,-306.9 420.64,-346.89"/>
<polygon fill="#63b8ff" stroke="#63b8ff" points="417.3,-347.94 422.99,-356.88 424.11,-346.34 417.3,-347.94"/>
</a>
</g>
</g>
<!-- Node19&#45;&gt;Node3 -->
<g id="edge34_Node000019_Node000003" class="edge">
<title>Node19&#45;&gt;Node3</title>
<g id="a_edge34_Node000019_Node000003"><a xlink:title=" ">
<path fill="none" stroke="#63b8ff" d="M318.77,-141.53C324.27,-144.03 329.46,-147.14 334,-151 394.63,-202.64 416.04,-300.81 422.98,-346.91"/>
<polygon fill="#63b8ff" stroke="#63b8ff" points="419.53,-347.52 424.38,-356.94 426.46,-346.55 419.53,-347.52"/>
</a>
</g>
</g>
<!-- Node20&#45;&gt;Node3 -->
<g id="edge36_Node000020_Node000003" class="edge">
<title>Node20&#45;&gt;Node3</title>
<g id="a_edge36_Node000020_Node000003"><a xlink:title=" ">
<path fill="none" stroke="#63b8ff" d="M310.17,-100.79C318.89,-103.71 327.24,-107.93 334,-114 403.55,-176.42 420.53,-295.05 424.67,-346.8"/>
<polygon fill="#63b8ff" stroke="#63b8ff" points="421.18,-347.05 425.37,-356.78 428.16,-346.56 421.18,-347.05"/>
</a>
</g>
</g>
<!-- Node21&#45;&gt;Node3 -->
<g id="edge38_Node000021_Node000003" class="edge">
<title>Node21&#45;&gt;Node3</title>
<g id="a_edge38_Node000021_Node000003"><a xlink:title=" ">
<path fill="none" stroke="#63b8ff" d="M308.33,-62.9C317.77,-65.85 326.85,-70.31 334,-77 412.46,-150.32 424.47,-289.32 425.98,-346.48"/>
<polygon fill="#63b8ff" stroke="#63b8ff" points="422.48,-346.84 426.15,-356.77 429.48,-346.72 422.48,-346.84"/>
</a>
</g>
</g>
<!-- Node22&#45;&gt;Node3 -->
<g id="edge40_Node000022_Node000003" class="edge">
<title>Node22&#45;&gt;Node3</title>
<g id="a_edge40_Node000022_Node000003"><a xlink:title=" ">
<path fill="none" stroke="#63b8ff" d="M310.72,-24.86C319.38,-28.45 327.57,-33.34 334,-40 418.31,-127.26 426.77,-284.72 426.65,-346.31"/>
<polygon fill="#63b8ff" stroke="#63b8ff" points="423.15,-346.63 426.55,-356.66 430.15,-346.7 423.15,-346.63"/>
</a>
</g>
</g>
</g>
</svg>
