<?xml version="1.0" encoding="UTF-8" standalone="no"?>
<!DOCTYPE svg PUBLIC "-//W3C//DTD SVG 1.1//EN"
 "http://www.w3.org/Graphics/SVG/1.1/DTD/svg11.dtd">
<!-- Generated by graphviz version 2.43.0 (0)
 -->
<!-- Title: lci::post_get_x::endpoint Pages: 1 -->
<svg width="641pt" height="65pt"
 viewBox="0.00 0.00 641.00 65.00" xmlns="http://www.w3.org/2000/svg" xmlns:xlink="http://www.w3.org/1999/xlink">
<g id="graph0" class="graph" transform="scale(1 1) rotate(0) translate(4 61)">
<title>lci::post_get_x::endpoint</title>
<!-- Node1 -->
<g id="Node000001" class="node">
<title>Node1</title>
<g id="a_Node000001"><a xlink:title=" ">
<polygon fill="#999999" stroke="#666666" points="633,-38 497,-38 497,-19 633,-19 633,-38"/>
<text text-anchor="middle" x="565" y="-26" font-family="Helvetica,sans-Serif" font-size="10.00">lci::post_get_x::endpoint</text>
</a>
</g>
</g>
<!-- Node2 -->
<g id="Node000002" class="node">
<title>Node2</title>
<g id="a_Node000002"><a xlink:href="../../db/d54/classlci_1_1post__get__x.html#adadc688f0e9e014ac2f0d2a49ab89ce7" target="_top" xlink:title=" ">
<polygon fill="white" stroke="#666666" points="288,-38 178,-38 178,-19 288,-19 288,-38"/>
<text text-anchor="middle" x="233" y="-26" font-family="Helvetica,sans-Serif" font-size="10.00">lci::post_get_x::call</text>
</a>
</g>
</g>
<!-- Node1&#45;&gt;Node2 -->
<g id="edge1_Node000001_Node000002" class="edge">
<title>Node1&#45;&gt;Node2</title>
<g id="a_edge1_Node000001_Node000002"><a xlink:title=" ">
<path fill="none" stroke="#63b8ff" d="M486.47,-28.5C425.44,-28.5 341.96,-28.5 288.01,-28.5"/>
<polygon fill="#63b8ff" stroke="#63b8ff" points="486.82,-32 496.82,-28.5 486.82,-25 486.82,-32"/>
</a>
</g>
</g>
<!-- Node5 -->
<g id="Node000005" class="node">
<title>Node5</title>
<g id="a_Node000005"><a xlink:href="../../db/d54/classlci_1_1post__get__x.html#aa2ef562fc6f5a9f490bfc6fa3c0d7e66" target="_top" xlink:title=" ">
<polygon fill="white" stroke="#666666" points="461,-19 324,-19 324,0 461,0 461,-19"/>
<text text-anchor="middle" x="392.5" y="-7" font-family="Helvetica,sans-Serif" font-size="10.00">lci::post_get_x::call_impl</text>
</a>
</g>
</g>
<!-- Node1&#45;&gt;Node5 -->
<g id="edge4_Node000001_Node000005" class="edge">
<title>Node1&#45;&gt;Node5</title>
<g id="a_edge4_Node000001_Node000005"><a xlink:title=" ">
<path fill="none" stroke="#63b8ff" d="M486.43,-19.86C478.02,-18.92 469.51,-17.97 461.23,-17.05"/>
<polygon fill="#63b8ff" stroke="#63b8ff" points="486.29,-23.36 496.61,-20.99 487.06,-16.4 486.29,-23.36"/>
</a>
</g>
</g>
<!-- Node3 -->
<g id="Node000003" class="node">
<title>Node3</title>
<g id="a_Node000003"><a xlink:href="../../db/d54/classlci_1_1post__get__x.html#a6a53f5f322f9e78d633f603f3a9eeb9a" target="_top" xlink:title=" ">
<polygon fill="white" stroke="#666666" points="142,-57 0,-57 0,-38 142,-38 142,-57"/>
<text text-anchor="middle" x="71" y="-45" font-family="Helvetica,sans-Serif" font-size="10.00">lci::post_get_x::operator()</text>
</a>
</g>
</g>
<!-- Node2&#45;&gt;Node3 -->
<g id="edge2_Node000002_Node000003" class="edge">
<title>Node2&#45;&gt;Node3</title>
<g id="a_edge2_Node000002_Node000003"><a xlink:title=" ">
<path fill="none" stroke="#63b8ff" d="M167.75,-36.13C159.37,-37.12 150.75,-38.15 142.28,-39.15"/>
<polygon fill="#63b8ff" stroke="#63b8ff" points="168.31,-39.59 177.83,-34.93 167.49,-32.64 168.31,-39.59"/>
</a>
</g>
</g>
<!-- Node4 -->
<g id="Node000004" class="node">
<title>Node4</title>
<g id="a_Node000004"><a xlink:href="../../d5/dd3/namespacelci.html#afd5f8b23c99abd4dc49a8e47a058e0ca" target="_top" xlink:title=" ">
<polygon fill="white" stroke="#666666" points="109,-20 33,-20 33,-1 109,-1 109,-20"/>
<text text-anchor="middle" x="71" y="-8" font-family="Helvetica,sans-Serif" font-size="10.00">lci::post_get</text>
</a>
</g>
</g>
<!-- Node2&#45;&gt;Node4 -->
<g id="edge3_Node000002_Node000004" class="edge">
<title>Node2&#45;&gt;Node4</title>
<g id="a_edge3_Node000002_Node000004"><a xlink:title=" ">
<path fill="none" stroke="#63b8ff" d="M167.64,-21.26C147.88,-19.04 126.79,-16.66 109.46,-14.71"/>
<polygon fill="#63b8ff" stroke="#63b8ff" points="167.5,-24.77 177.83,-22.41 168.29,-17.81 167.5,-24.77"/>
</a>
</g>
</g>
<!-- Node5&#45;&gt;Node2 -->
<g id="edge5_Node000005_Node000002" class="edge">
<title>Node5&#45;&gt;Node2</title>
<g id="a_edge5_Node000005_Node000002"><a xlink:title=" ">
<path fill="none" stroke="#63b8ff" d="M313.75,-18.88C305.16,-19.92 296.56,-20.95 288.35,-21.94"/>
<polygon fill="#63b8ff" stroke="#63b8ff" points="314.28,-22.34 323.79,-17.67 313.44,-15.39 314.28,-22.34"/>
</a>
</g>
</g>
</g>
</svg>
