<?xml version="1.0" encoding="UTF-8" standalone="no"?>
<!DOCTYPE svg PUBLIC "-//W3C//DTD SVG 1.1//EN"
 "http://www.w3.org/Graphics/SVG/1.1/DTD/svg11.dtd">
<!-- Generated by graphviz version 2.43.0 (0)
 -->
<!-- Title: lci::alloc_sync_x::call Pages: 1 -->
<svg width="265pt" height="76pt"
 viewBox="0.00 0.00 265.00 75.50" xmlns="http://www.w3.org/2000/svg" xmlns:xlink="http://www.w3.org/1999/xlink">
<g id="graph0" class="graph" transform="scale(1 1) rotate(0) translate(4 71.5)">
<title>lci::alloc_sync_x::call</title>
<!-- Node1 -->
<g id="Node000001" class="node">
<title>Node1</title>
<g id="a_Node000001"><a xlink:title=" ">
<polygon fill="#999999" stroke="#666666" points="257,-45.5 138,-45.5 138,-26.5 257,-26.5 257,-45.5"/>
<text text-anchor="middle" x="197.5" y="-33.5" font-family="Helvetica,sans-Serif" font-size="10.00">lci::alloc_sync_x::call</text>
</a>
</g>
</g>
<!-- Node2 -->
<g id="Node000002" class="node">
<title>Node2</title>
<g id="a_Node000002"><a xlink:href="../../d5/dd3/namespacelci.html#af302b7808e35efca489ce25644ab249e" target="_top" xlink:title=" ">
<polygon fill="white" stroke="#666666" points="93.5,-67.5 8.5,-67.5 8.5,-48.5 93.5,-48.5 93.5,-67.5"/>
<text text-anchor="middle" x="51" y="-55.5" font-family="Helvetica,sans-Serif" font-size="10.00">lci::alloc_sync</text>
</a>
</g>
</g>
<!-- Node1&#45;&gt;Node2 -->
<g id="edge1_Node000001_Node000002" class="edge">
<title>Node1&#45;&gt;Node2</title>
<g id="a_edge1_Node000001_Node000002"><a xlink:title=" ">
<path fill="none" stroke="#63b8ff" d="M127.65,-46.48C116.12,-48.24 104.48,-50.01 93.89,-51.62"/>
<polygon fill="#63b8ff" stroke="#63b8ff" points="128.37,-49.91 137.73,-44.95 127.31,-42.99 128.37,-49.91"/>
</a>
</g>
</g>
<!-- Node3 -->
<g id="Node000003" class="node">
<title>Node3</title>
<g id="a_Node000003"><a xlink:href="../../dd/da4/classlci_1_1alloc__sync__x.html#a0590fcc16c2cfb29c1d14362333a4dfe" target="_top" xlink:title=" ">
<polygon fill="white" stroke="#666666" points="102,-30 0,-30 0,0 102,0 102,-30"/>
<text text-anchor="start" x="8" y="-18" font-family="Helvetica,sans-Serif" font-size="10.00">lci::alloc_sync_x::</text>
<text text-anchor="middle" x="51" y="-7" font-family="Helvetica,sans-Serif" font-size="10.00">operator()</text>
</a>
</g>
</g>
<!-- Node1&#45;&gt;Node3 -->
<g id="edge2_Node000001_Node000003" class="edge">
<title>Node1&#45;&gt;Node3</title>
<g id="a_edge2_Node000001_Node000003"><a xlink:title=" ">
<path fill="none" stroke="#63b8ff" d="M127.75,-26.01C119.2,-24.77 110.59,-23.51 102.39,-22.32"/>
<polygon fill="#63b8ff" stroke="#63b8ff" points="127.33,-29.48 137.73,-27.46 128.33,-22.56 127.33,-29.48"/>
</a>
</g>
</g>
</g>
</svg>
