<?xml version="1.0" encoding="UTF-8" standalone="no"?>
<!DOCTYPE svg PUBLIC "-//W3C//DTD SVG 1.1//EN"
 "http://www.w3.org/Graphics/SVG/1.1/DTD/svg11.dtd">
<!-- Generated by graphviz version 2.43.0 (0)
 -->
<!-- Title: lci::alloc_sync_x::call Pages: 1 -->
<svg width="569pt" height="220pt"
 viewBox="0.00 0.00 569.00 219.50" xmlns="http://www.w3.org/2000/svg" xmlns:xlink="http://www.w3.org/1999/xlink">
<g id="graph0" class="graph" transform="scale(1 1) rotate(0) translate(4 215.5)">
<title>lci::alloc_sync_x::call</title>
<!-- Node1 -->
<g id="Node000001" class="node">
<title>Node1</title>
<g id="a_Node000001"><a xlink:title=" ">
<polygon fill="#999999" stroke="#666666" points="119,-115.5 0,-115.5 0,-96.5 119,-96.5 119,-115.5"/>
<text text-anchor="middle" x="59.5" y="-103.5" font-family="Helvetica,sans-Serif" font-size="10.00">lci::alloc_sync_x::call</text>
</a>
</g>
</g>
<!-- Node2 -->
<g id="Node000002" class="node">
<title>Node2</title>
<g id="a_Node000002"><a xlink:href="../../dd/da4/classlci_1_1alloc__sync__x.html#ac0285cdad9d263db935a7a8733bcf40f" target="_top" xlink:title=" ">
<polygon fill="white" stroke="#666666" points="257,-143 155,-143 155,-113 257,-113 257,-143"/>
<text text-anchor="start" x="163" y="-131" font-family="Helvetica,sans-Serif" font-size="10.00">lci::alloc_sync_x::</text>
<text text-anchor="middle" x="206" y="-120" font-family="Helvetica,sans-Serif" font-size="10.00">call_impl</text>
</a>
</g>
</g>
<!-- Node1&#45;&gt;Node2 -->
<g id="edge1_Node000001_Node000002" class="edge">
<title>Node1&#45;&gt;Node2</title>
<g id="a_edge1_Node000001_Node000002"><a xlink:title=" ">
<path fill="none" stroke="#63b8ff" d="M119.27,-114.95C127.61,-116.22 136.19,-117.52 144.55,-118.8"/>
<polygon fill="#63b8ff" stroke="#63b8ff" points="144.2,-122.28 154.61,-120.33 145.25,-115.36 144.2,-122.28"/>
</a>
</g>
</g>
<!-- Node3 -->
<g id="Node000003" class="node">
<title>Node3</title>
<g id="a_Node000003"><a xlink:href="../../dd/da4/classlci_1_1alloc__sync__x.html#a866cbc7702a93444af9075fe1fbc5848" target="_top" xlink:title=" ">
<polygon fill="white" stroke="#666666" points="423,-211.5 293,-211.5 293,-192.5 423,-192.5 423,-211.5"/>
<text text-anchor="middle" x="358" y="-199.5" font-family="Helvetica,sans-Serif" font-size="10.00">lci::alloc_sync_x::name</text>
</a>
</g>
</g>
<!-- Node1&#45;&gt;Node3 -->
<g id="edge12_Node000001_Node000003" class="edge">
<title>Node1&#45;&gt;Node3</title>
<g id="a_edge12_Node000001_Node000003"><a xlink:title=" ">
<path fill="none" stroke="#63b8ff" d="M70.91,-115.57C87.39,-130.13 121.12,-157.57 155,-171 195.42,-187.02 243.43,-194.81 282.5,-198.57"/>
<polygon fill="#63b8ff" stroke="#63b8ff" points="282.48,-202.08 292.75,-199.49 283.1,-195.11 282.48,-202.08"/>
</a>
</g>
</g>
<!-- Node5 -->
<g id="Node000005" class="node">
<title>Node5</title>
<g id="a_Node000005"><a xlink:href="../../dd/da4/classlci_1_1alloc__sync__x.html#ad8f0f3393c34235ca17c4c617df5eb7a" target="_top" xlink:title=" ">
<polygon fill="white" stroke="#666666" points="409,-174 307,-174 307,-144 409,-144 409,-174"/>
<text text-anchor="start" x="315" y="-162" font-family="Helvetica,sans-Serif" font-size="10.00">lci::alloc_sync_x::</text>
<text text-anchor="middle" x="358" y="-151" font-family="Helvetica,sans-Serif" font-size="10.00">runtime</text>
</a>
</g>
</g>
<!-- Node1&#45;&gt;Node5 -->
<g id="edge13_Node000001_Node000005" class="edge">
<title>Node1&#45;&gt;Node5</title>
<g id="a_edge13_Node000001_Node000005"><a xlink:title=" ">
<path fill="none" stroke="#63b8ff" d="M75.14,-115.55C93.1,-126.68 124.9,-144.51 155,-152 201.62,-163.6 256.14,-164.79 296.79,-163.39"/>
<polygon fill="#63b8ff" stroke="#63b8ff" points="296.96,-166.89 306.81,-162.99 296.67,-159.9 296.96,-166.89"/>
</a>
</g>
</g>
<!-- Node6 -->
<g id="Node000006" class="node">
<title>Node6</title>
<g id="a_Node000006"><a xlink:href="../../dd/da4/classlci_1_1alloc__sync__x.html#a778a0249d3afc6949b987d0caf3fcc78" target="_top" xlink:title=" ">
<polygon fill="white" stroke="#666666" points="409,-126 307,-126 307,-96 409,-96 409,-126"/>
<text text-anchor="start" x="315" y="-114" font-family="Helvetica,sans-Serif" font-size="10.00">lci::alloc_sync_x::</text>
<text text-anchor="middle" x="358" y="-103" font-family="Helvetica,sans-Serif" font-size="10.00">threshold</text>
</a>
</g>
</g>
<!-- Node1&#45;&gt;Node6 -->
<g id="edge14_Node000001_Node000006" class="edge">
<title>Node1&#45;&gt;Node6</title>
<g id="a_edge14_Node000001_Node000006"><a xlink:title=" ">
<path fill="none" stroke="#63b8ff" d="M119.22,-104.56C131.07,-104.33 143.43,-104.12 155,-104 200.33,-103.52 211.69,-102.42 257,-104 269.83,-104.45 283.57,-105.22 296.63,-106.09"/>
<polygon fill="#63b8ff" stroke="#63b8ff" points="296.71,-109.6 306.93,-106.81 297.2,-102.62 296.71,-109.6"/>
</a>
</g>
</g>
<!-- Node7 -->
<g id="Node000007" class="node">
<title>Node7</title>
<g id="a_Node000007"><a xlink:href="../../dd/da4/classlci_1_1alloc__sync__x.html#a589c751f02bc852f638e0038473a4576" target="_top" xlink:title=" ">
<polygon fill="white" stroke="#666666" points="409,-78 307,-78 307,-48 409,-48 409,-78"/>
<text text-anchor="start" x="315" y="-66" font-family="Helvetica,sans-Serif" font-size="10.00">lci::alloc_sync_x::</text>
<text text-anchor="middle" x="358" y="-55" font-family="Helvetica,sans-Serif" font-size="10.00">user_context</text>
</a>
</g>
</g>
<!-- Node1&#45;&gt;Node7 -->
<g id="edge15_Node000001_Node000007" class="edge">
<title>Node1&#45;&gt;Node7</title>
<g id="a_edge15_Node000001_Node000007"><a xlink:title=" ">
<path fill="none" stroke="#63b8ff" d="M119.08,-97.5C170.5,-90.05 244.98,-79.25 296.86,-71.72"/>
<polygon fill="#63b8ff" stroke="#63b8ff" points="297.53,-75.16 306.92,-70.26 296.52,-68.23 297.53,-75.16"/>
</a>
</g>
</g>
<!-- Node8 -->
<g id="Node000008" class="node">
<title>Node8</title>
<g id="a_Node000008"><a xlink:href="../../dd/da4/classlci_1_1alloc__sync__x.html#ad6712174ab3ca0b0a6ebf6e51ec311e9" target="_top" xlink:title=" ">
<polygon fill="white" stroke="#666666" points="409,-30 307,-30 307,0 409,0 409,-30"/>
<text text-anchor="start" x="315" y="-18" font-family="Helvetica,sans-Serif" font-size="10.00">lci::alloc_sync_x::</text>
<text text-anchor="middle" x="358" y="-7" font-family="Helvetica,sans-Serif" font-size="10.00">zero_copy_am</text>
</a>
</g>
</g>
<!-- Node1&#45;&gt;Node8 -->
<g id="edge16_Node000001_Node000008" class="edge">
<title>Node1&#45;&gt;Node8</title>
<g id="a_edge16_Node000001_Node000008"><a xlink:title=" ">
<path fill="none" stroke="#63b8ff" d="M87.69,-96.45C106.52,-89.92 132.2,-81.19 155,-74 202.48,-59.03 256.65,-43.28 296.93,-31.83"/>
<polygon fill="#63b8ff" stroke="#63b8ff" points="297.93,-35.18 306.6,-29.08 296.02,-28.44 297.93,-35.18"/>
</a>
</g>
</g>
<!-- Node2&#45;&gt;Node3 -->
<g id="edge2_Node000002_Node000003" class="edge">
<title>Node2&#45;&gt;Node3</title>
<g id="a_edge2_Node000002_Node000003"><a xlink:title=" ">
<path fill="none" stroke="#63b8ff" d="M226.93,-143.04C243.79,-155.19 268.98,-172.02 293,-183 298.01,-185.29 303.36,-187.38 308.76,-189.27"/>
<polygon fill="#63b8ff" stroke="#63b8ff" points="307.86,-192.66 318.45,-192.46 310.05,-186.01 307.86,-192.66"/>
</a>
</g>
</g>
<!-- Node2&#45;&gt;Node5 -->
<g id="edge4_Node000002_Node000005" class="edge">
<title>Node2&#45;&gt;Node5</title>
<g id="a_edge4_Node000002_Node000005"><a xlink:title=" ">
<path fill="none" stroke="#63b8ff" d="M257.37,-138.41C270.05,-141.03 283.79,-143.87 296.9,-146.58"/>
<polygon fill="#63b8ff" stroke="#63b8ff" points="296.27,-150.02 306.77,-148.62 297.68,-143.17 296.27,-150.02"/>
</a>
</g>
</g>
<!-- Node2&#45;&gt;Node6 -->
<g id="edge6_Node000002_Node000006" class="edge">
<title>Node2&#45;&gt;Node6</title>
<g id="a_edge6_Node000002_Node000006"><a xlink:title=" ">
<path fill="none" stroke="#63b8ff" d="M257.37,-122.29C269.92,-120.87 283.52,-119.33 296.51,-117.86"/>
<polygon fill="#63b8ff" stroke="#63b8ff" points="297.23,-121.3 306.77,-116.69 296.44,-114.34 297.23,-121.3"/>
</a>
</g>
</g>
<!-- Node2&#45;&gt;Node7 -->
<g id="edge8_Node000002_Node000007" class="edge">
<title>Node2&#45;&gt;Node7</title>
<g id="a_edge8_Node000002_Node000007"><a xlink:title=" ">
<path fill="none" stroke="#63b8ff" d="M236.96,-112.94C253.36,-104.89 274.12,-95.02 293,-87 297.1,-85.26 301.38,-83.51 305.7,-81.79"/>
<polygon fill="#63b8ff" stroke="#63b8ff" points="307.09,-85 315.14,-78.11 304.55,-78.48 307.09,-85"/>
</a>
</g>
</g>
<!-- Node2&#45;&gt;Node8 -->
<g id="edge10_Node000002_Node000008" class="edge">
<title>Node2&#45;&gt;Node8</title>
<g id="a_edge10_Node000002_Node000008"><a xlink:title=" ">
<path fill="none" stroke="#63b8ff" d="M218.2,-112.77C233.24,-93.25 261.74,-59.51 293,-39 295.29,-37.5 297.69,-36.07 300.16,-34.71"/>
<polygon fill="#63b8ff" stroke="#63b8ff" points="301.96,-37.73 309.34,-30.14 298.83,-31.47 301.96,-37.73"/>
</a>
</g>
</g>
<!-- Node4 -->
<g id="Node000004" class="node">
<title>Node4</title>
<g id="a_Node000004"><a xlink:href="../../dd/da4/classlci_1_1alloc__sync__x.html#acc4a0596c809f2fa20c4f202282e30fc" target="_top" xlink:title=" ">
<polygon fill="white" stroke="#666666" points="561,-126 459,-126 459,-96 561,-96 561,-126"/>
<text text-anchor="start" x="467" y="-114" font-family="Helvetica,sans-Serif" font-size="10.00">lci::alloc_sync_x::</text>
<text text-anchor="middle" x="510" y="-103" font-family="Helvetica,sans-Serif" font-size="10.00">alloc_sync_x</text>
</a>
</g>
</g>
<!-- Node3&#45;&gt;Node4 -->
<g id="edge3_Node000003_Node000004" class="edge">
<title>Node3&#45;&gt;Node4</title>
<g id="a_edge3_Node000003_Node000004"><a xlink:title=" ">
<path fill="none" stroke="#63b8ff" d="M400.28,-192.45C408.06,-189.91 415.95,-186.78 423,-183 447.33,-169.94 471.09,-149.26 487.45,-133.4"/>
<polygon fill="#63b8ff" stroke="#63b8ff" points="490.22,-135.59 494.86,-126.06 485.29,-130.62 490.22,-135.59"/>
</a>
</g>
</g>
<!-- Node5&#45;&gt;Node4 -->
<g id="edge5_Node000005_Node000004" class="edge">
<title>Node5&#45;&gt;Node4</title>
<g id="a_edge5_Node000005_Node000004"><a xlink:title=" ">
<path fill="none" stroke="#63b8ff" d="M406.05,-143.94C420.71,-139.25 437.03,-134.03 452.28,-129.15"/>
<polygon fill="#63b8ff" stroke="#63b8ff" points="453.66,-132.38 462.12,-126 451.53,-125.72 453.66,-132.38"/>
</a>
</g>
</g>
<!-- Node6&#45;&gt;Node4 -->
<g id="edge7_Node000006_Node000004" class="edge">
<title>Node6&#45;&gt;Node4</title>
<g id="a_edge7_Node000006_Node000004"><a xlink:title=" ">
<path fill="none" stroke="#63b8ff" d="M409.37,-111C421.92,-111 435.52,-111 448.51,-111"/>
<polygon fill="#63b8ff" stroke="#63b8ff" points="448.77,-114.5 458.77,-111 448.77,-107.5 448.77,-114.5"/>
</a>
</g>
</g>
<!-- Node7&#45;&gt;Node4 -->
<g id="edge9_Node000007_Node000004" class="edge">
<title>Node7&#45;&gt;Node4</title>
<g id="a_edge9_Node000007_Node000004"><a xlink:title=" ">
<path fill="none" stroke="#63b8ff" d="M406.05,-78.06C420.71,-82.75 437.03,-87.97 452.28,-92.85"/>
<polygon fill="#63b8ff" stroke="#63b8ff" points="451.53,-96.28 462.12,-96 453.66,-89.62 451.53,-96.28"/>
</a>
</g>
</g>
<!-- Node8&#45;&gt;Node4 -->
<g id="edge11_Node000008_Node000004" class="edge">
<title>Node8&#45;&gt;Node4</title>
<g id="a_edge11_Node000008_Node000004"><a xlink:title=" ">
<path fill="none" stroke="#63b8ff" d="M404.98,-30.07C411.19,-32.73 417.36,-35.71 423,-39 446.56,-52.74 470.09,-73 486.56,-88.53"/>
<polygon fill="#63b8ff" stroke="#63b8ff" points="484.42,-91.32 494.05,-95.73 489.27,-86.28 484.42,-91.32"/>
</a>
</g>
</g>
</g>
</svg>
