<?xml version="1.0" encoding="UTF-8" standalone="no"?>
<!DOCTYPE svg PUBLIC "-//W3C//DTD SVG 1.1//EN"
 "http://www.w3.org/Graphics/SVG/1.1/DTD/svg11.dtd">
<!-- Generated by graphviz version 2.43.0 (0)
 -->
<!-- Title: lci::alloc_sync_x::alloc_sync_x Pages: 1 -->
<svg width="679pt" height="182pt"
 viewBox="0.00 0.00 679.00 182.00" xmlns="http://www.w3.org/2000/svg" xmlns:xlink="http://www.w3.org/1999/xlink">
<g id="graph0" class="graph" transform="scale(1 1) rotate(0) translate(4 178)">
<title>lci::alloc_sync_x::alloc_sync_x</title>
<!-- Node1 -->
<g id="Node000001" class="node">
<title>Node1</title>
<g id="a_Node000001"><a xlink:title=" ">
<polygon fill="#999999" stroke="#666666" points="671,-102 569,-102 569,-72 671,-72 671,-102"/>
<text text-anchor="start" x="577" y="-90" font-family="Helvetica,sans-Serif" font-size="10.00">lci::alloc_sync_x::</text>
<text text-anchor="middle" x="620" y="-79" font-family="Helvetica,sans-Serif" font-size="10.00">alloc_sync_x</text>
</a>
</g>
</g>
<!-- Node2 -->
<g id="Node000002" class="node">
<title>Node2</title>
<g id="a_Node000002"><a xlink:href="../../dd/da4/classlci_1_1alloc__sync__x.html#ad8f0f3393c34235ca17c4c617df5eb7a" target="_top" xlink:title=" ">
<polygon fill="white" stroke="#666666" points="533,-174 431,-174 431,-144 533,-144 533,-174"/>
<text text-anchor="start" x="439" y="-162" font-family="Helvetica,sans-Serif" font-size="10.00">lci::alloc_sync_x::</text>
<text text-anchor="middle" x="482" y="-151" font-family="Helvetica,sans-Serif" font-size="10.00">runtime</text>
</a>
</g>
</g>
<!-- Node1&#45;&gt;Node2 -->
<g id="edge1_Node000001_Node000002" class="edge">
<title>Node1&#45;&gt;Node2</title>
<g id="a_edge1_Node000001_Node000002"><a xlink:title=" ">
<path fill="none" stroke="#63b8ff" d="M584.12,-107.11C568.59,-115.89 550,-126.18 533,-135 527.27,-137.97 521.12,-141.03 515.15,-143.93"/>
<polygon fill="#63b8ff" stroke="#63b8ff" points="585.92,-110.11 592.88,-102.13 582.46,-104.03 585.92,-110.11"/>
</a>
</g>
</g>
<!-- Node7 -->
<g id="Node000007" class="node">
<title>Node7</title>
<g id="a_Node000007"><a xlink:href="../../dd/da4/classlci_1_1alloc__sync__x.html#a778a0249d3afc6949b987d0caf3fcc78" target="_top" xlink:title=" ">
<polygon fill="white" stroke="#666666" points="533,-126 431,-126 431,-96 533,-96 533,-126"/>
<text text-anchor="start" x="439" y="-114" font-family="Helvetica,sans-Serif" font-size="10.00">lci::alloc_sync_x::</text>
<text text-anchor="middle" x="482" y="-103" font-family="Helvetica,sans-Serif" font-size="10.00">threshold</text>
</a>
</g>
</g>
<!-- Node1&#45;&gt;Node7 -->
<g id="edge7_Node000001_Node000007" class="edge">
<title>Node1&#45;&gt;Node7</title>
<g id="a_edge7_Node000001_Node000007"><a xlink:title=" ">
<path fill="none" stroke="#63b8ff" d="M558.77,-97.63C550.18,-99.15 541.42,-100.69 533.05,-102.17"/>
<polygon fill="#63b8ff" stroke="#63b8ff" points="559.51,-101.05 568.75,-95.87 558.29,-94.16 559.51,-101.05"/>
</a>
</g>
</g>
<!-- Node8 -->
<g id="Node000008" class="node">
<title>Node8</title>
<g id="a_Node000008"><a xlink:href="../../dd/da4/classlci_1_1alloc__sync__x.html#a589c751f02bc852f638e0038473a4576" target="_top" xlink:title=" ">
<polygon fill="white" stroke="#666666" points="533,-78 431,-78 431,-48 533,-48 533,-78"/>
<text text-anchor="start" x="439" y="-66" font-family="Helvetica,sans-Serif" font-size="10.00">lci::alloc_sync_x::</text>
<text text-anchor="middle" x="482" y="-55" font-family="Helvetica,sans-Serif" font-size="10.00">user_context</text>
</a>
</g>
</g>
<!-- Node1&#45;&gt;Node8 -->
<g id="edge10_Node000001_Node000008" class="edge">
<title>Node1&#45;&gt;Node8</title>
<g id="a_edge10_Node000001_Node000008"><a xlink:title=" ">
<path fill="none" stroke="#63b8ff" d="M558.77,-76.37C550.18,-74.85 541.42,-73.31 533.05,-71.83"/>
<polygon fill="#63b8ff" stroke="#63b8ff" points="558.29,-79.84 568.75,-78.13 559.51,-72.95 558.29,-79.84"/>
</a>
</g>
</g>
<!-- Node9 -->
<g id="Node000009" class="node">
<title>Node9</title>
<g id="a_Node000009"><a xlink:href="../../dd/da4/classlci_1_1alloc__sync__x.html#ad6712174ab3ca0b0a6ebf6e51ec311e9" target="_top" xlink:title=" ">
<polygon fill="white" stroke="#666666" points="533,-30 431,-30 431,0 533,0 533,-30"/>
<text text-anchor="start" x="439" y="-18" font-family="Helvetica,sans-Serif" font-size="10.00">lci::alloc_sync_x::</text>
<text text-anchor="middle" x="482" y="-7" font-family="Helvetica,sans-Serif" font-size="10.00">zero_copy_am</text>
</a>
</g>
</g>
<!-- Node1&#45;&gt;Node9 -->
<g id="edge13_Node000001_Node000009" class="edge">
<title>Node1&#45;&gt;Node9</title>
<g id="a_edge13_Node000001_Node000009"><a xlink:title=" ">
<path fill="none" stroke="#63b8ff" d="M584.12,-66.89C568.59,-58.11 550,-47.82 533,-39 527.27,-36.03 521.12,-32.97 515.15,-30.07"/>
<polygon fill="#63b8ff" stroke="#63b8ff" points="582.46,-69.97 592.88,-71.87 585.92,-63.89 582.46,-69.97"/>
</a>
</g>
</g>
<!-- Node3 -->
<g id="Node000003" class="node">
<title>Node3</title>
<g id="a_Node000003"><a xlink:href="../../dd/da4/classlci_1_1alloc__sync__x.html#aea27f019360a2dd1224bcdbe304a6460" target="_top" xlink:title=" ">
<polygon fill="white" stroke="#666666" points="257,-96.5 138,-96.5 138,-77.5 257,-77.5 257,-96.5"/>
<text text-anchor="middle" x="197.5" y="-84.5" font-family="Helvetica,sans-Serif" font-size="10.00">lci::alloc_sync_x::call</text>
</a>
</g>
</g>
<!-- Node2&#45;&gt;Node3 -->
<g id="edge2_Node000002_Node000003" class="edge">
<title>Node2&#45;&gt;Node3</title>
<g id="a_edge2_Node000002_Node000003"><a xlink:title=" ">
<path fill="none" stroke="#63b8ff" d="M420.61,-152.34C383.34,-147.34 334.83,-139.23 293,-127 265.98,-119.1 236.32,-105.71 217.57,-96.62"/>
<polygon fill="#63b8ff" stroke="#63b8ff" points="420.44,-155.85 430.81,-153.67 421.34,-148.91 420.44,-155.85"/>
</a>
</g>
</g>
<!-- Node6 -->
<g id="Node000006" class="node">
<title>Node6</title>
<g id="a_Node000006"><a xlink:href="../../dd/da4/classlci_1_1alloc__sync__x.html#ae2322a9972986c8ad66ef3b7a908eab0" target="_top" xlink:title=" ">
<polygon fill="white" stroke="#666666" points="395,-102 293,-102 293,-72 395,-72 395,-102"/>
<text text-anchor="start" x="301" y="-90" font-family="Helvetica,sans-Serif" font-size="10.00">lci::alloc_sync_x::</text>
<text text-anchor="middle" x="344" y="-79" font-family="Helvetica,sans-Serif" font-size="10.00">call_impl</text>
</a>
</g>
</g>
<!-- Node2&#45;&gt;Node6 -->
<g id="edge5_Node000002_Node000006" class="edge">
<title>Node2&#45;&gt;Node6</title>
<g id="a_edge5_Node000002_Node000006"><a xlink:title=" ">
<path fill="none" stroke="#63b8ff" d="M439.83,-139.49C436.83,-137.99 433.86,-136.48 431,-135 410.66,-124.45 388.05,-111.8 371.12,-102.13"/>
<polygon fill="#63b8ff" stroke="#63b8ff" points="438.33,-142.65 448.85,-143.93 441.42,-136.37 438.33,-142.65"/>
</a>
</g>
</g>
<!-- Node4 -->
<g id="Node000004" class="node">
<title>Node4</title>
<g id="a_Node000004"><a xlink:href="../../d5/dd3/namespacelci.html#af302b7808e35efca489ce25644ab249e" target="_top" xlink:title=" ">
<polygon fill="white" stroke="#666666" points="93.5,-118.5 8.5,-118.5 8.5,-99.5 93.5,-99.5 93.5,-118.5"/>
<text text-anchor="middle" x="51" y="-106.5" font-family="Helvetica,sans-Serif" font-size="10.00">lci::alloc_sync</text>
</a>
</g>
</g>
<!-- Node3&#45;&gt;Node4 -->
<g id="edge3_Node000003_Node000004" class="edge">
<title>Node3&#45;&gt;Node4</title>
<g id="a_edge3_Node000003_Node000004"><a xlink:title=" ">
<path fill="none" stroke="#63b8ff" d="M127.65,-97.48C116.12,-99.24 104.48,-101.01 93.89,-102.62"/>
<polygon fill="#63b8ff" stroke="#63b8ff" points="128.37,-100.91 137.73,-95.95 127.31,-93.99 128.37,-100.91"/>
</a>
</g>
</g>
<!-- Node5 -->
<g id="Node000005" class="node">
<title>Node5</title>
<g id="a_Node000005"><a xlink:href="../../dd/da4/classlci_1_1alloc__sync__x.html#a0590fcc16c2cfb29c1d14362333a4dfe" target="_top" xlink:title=" ">
<polygon fill="white" stroke="#666666" points="102,-81 0,-81 0,-51 102,-51 102,-81"/>
<text text-anchor="start" x="8" y="-69" font-family="Helvetica,sans-Serif" font-size="10.00">lci::alloc_sync_x::</text>
<text text-anchor="middle" x="51" y="-58" font-family="Helvetica,sans-Serif" font-size="10.00">operator()</text>
</a>
</g>
</g>
<!-- Node3&#45;&gt;Node5 -->
<g id="edge4_Node000003_Node000005" class="edge">
<title>Node3&#45;&gt;Node5</title>
<g id="a_edge4_Node000003_Node000005"><a xlink:title=" ">
<path fill="none" stroke="#63b8ff" d="M127.75,-77.01C119.2,-75.77 110.59,-74.51 102.39,-73.32"/>
<polygon fill="#63b8ff" stroke="#63b8ff" points="127.33,-80.48 137.73,-78.46 128.33,-73.56 127.33,-80.48"/>
</a>
</g>
</g>
<!-- Node6&#45;&gt;Node3 -->
<g id="edge6_Node000006_Node000003" class="edge">
<title>Node6&#45;&gt;Node3</title>
<g id="a_edge6_Node000006_Node000003"><a xlink:title=" ">
<path fill="none" stroke="#63b8ff" d="M282.72,-87C274.29,-87 265.64,-87 257.23,-87"/>
<polygon fill="#63b8ff" stroke="#63b8ff" points="282.87,-90.5 292.87,-87 282.87,-83.5 282.87,-90.5"/>
</a>
</g>
</g>
<!-- Node7&#45;&gt;Node3 -->
<g id="edge8_Node000007_Node000003" class="edge">
<title>Node7&#45;&gt;Node3</title>
<g id="a_edge8_Node000007_Node000003"><a xlink:title=" ">
<path fill="none" stroke="#63b8ff" d="M420.79,-114.79C383.79,-116.18 335.48,-116.31 293,-111 271,-108.25 246.77,-102.03 228.35,-96.61"/>
<polygon fill="#63b8ff" stroke="#63b8ff" points="421.07,-118.28 430.92,-114.37 420.78,-111.29 421.07,-118.28"/>
</a>
</g>
</g>
<!-- Node7&#45;&gt;Node6 -->
<g id="edge9_Node000007_Node000006" class="edge">
<title>Node7&#45;&gt;Node6</title>
<g id="a_edge9_Node000007_Node000006"><a xlink:title=" ">
<path fill="none" stroke="#63b8ff" d="M420.77,-100.37C412.18,-98.85 403.42,-97.31 395.05,-95.83"/>
<polygon fill="#63b8ff" stroke="#63b8ff" points="420.29,-103.84 430.75,-102.13 421.51,-96.95 420.29,-103.84"/>
</a>
</g>
</g>
<!-- Node8&#45;&gt;Node3 -->
<g id="edge11_Node000008_Node000003" class="edge">
<title>Node8&#45;&gt;Node3</title>
<g id="a_edge11_Node000008_Node000003"><a xlink:title=" ">
<path fill="none" stroke="#63b8ff" d="M420.79,-59.21C383.79,-57.82 335.48,-57.69 293,-63 271,-65.75 246.77,-71.97 228.35,-77.39"/>
<polygon fill="#63b8ff" stroke="#63b8ff" points="420.78,-62.71 430.92,-59.63 421.07,-55.72 420.78,-62.71"/>
</a>
</g>
</g>
<!-- Node8&#45;&gt;Node6 -->
<g id="edge12_Node000008_Node000006" class="edge">
<title>Node8&#45;&gt;Node6</title>
<g id="a_edge12_Node000008_Node000006"><a xlink:title=" ">
<path fill="none" stroke="#63b8ff" d="M420.77,-73.63C412.18,-75.15 403.42,-76.69 395.05,-78.17"/>
<polygon fill="#63b8ff" stroke="#63b8ff" points="421.51,-77.05 430.75,-71.87 420.29,-70.16 421.51,-77.05"/>
</a>
</g>
</g>
<!-- Node9&#45;&gt;Node3 -->
<g id="edge14_Node000009_Node000003" class="edge">
<title>Node9&#45;&gt;Node3</title>
<g id="a_edge14_Node000009_Node000003"><a xlink:title=" ">
<path fill="none" stroke="#63b8ff" d="M420.55,-25.45C383.45,-32.38 335.14,-42.33 293,-54 268.88,-60.68 242,-70.29 223.09,-77.41"/>
<polygon fill="#63b8ff" stroke="#63b8ff" points="421.5,-28.83 430.7,-23.58 420.23,-21.95 421.5,-28.83"/>
</a>
</g>
</g>
<!-- Node9&#45;&gt;Node6 -->
<g id="edge15_Node000009_Node000006" class="edge">
<title>Node9&#45;&gt;Node6</title>
<g id="a_edge15_Node000009_Node000006"><a xlink:title=" ">
<path fill="none" stroke="#63b8ff" d="M439.83,-34.51C436.83,-36.01 433.86,-37.52 431,-39 410.66,-49.55 388.05,-62.2 371.12,-71.87"/>
<polygon fill="#63b8ff" stroke="#63b8ff" points="441.42,-37.63 448.85,-30.07 438.33,-31.35 441.42,-37.63"/>
</a>
</g>
</g>
</g>
</svg>
