<?xml version="1.0" encoding="UTF-8" standalone="no"?>
<!DOCTYPE svg PUBLIC "-//W3C//DTD SVG 1.1//EN"
 "http://www.w3.org/Graphics/SVG/1.1/DTD/svg11.dtd">
<!-- Generated by graphviz version 2.43.0 (0)
 -->
<!-- Title: lci::wait_drained_x::wait_drained_x Pages: 1 -->
<svg width="692pt" height="86pt"
 viewBox="0.00 0.00 692.00 86.00" xmlns="http://www.w3.org/2000/svg" xmlns:xlink="http://www.w3.org/1999/xlink">
<g id="graph0" class="graph" transform="scale(1 1) rotate(0) translate(4 82)">
<title>lci::wait_drained_x::wait_drained_x</title>
<!-- Node1 -->
<g id="Node000001" class="node">
<title>Node1</title>
<g id="a_Node000001"><a xlink:title=" ">
<polygon fill="#999999" stroke="#666666" points="684,-54 576,-54 576,-24 684,-24 684,-54"/>
<text text-anchor="start" x="584" y="-42" font-family="Helvetica,sans-Serif" font-size="10.00">lci::wait_drained_x</text>
<text text-anchor="middle" x="630" y="-31" font-family="Helvetica,sans-Serif" font-size="10.00">::wait_drained_x</text>
</a>
</g>
</g>
<!-- Node2 -->
<g id="Node000002" class="node">
<title>Node2</title>
<g id="a_Node000002"><a xlink:href="../../dc/d66/classlci_1_1wait__drained__x.html#af88838156172b62b1f3b6ae3138b742b" target="_top" xlink:title=" ">
<polygon fill="white" stroke="#666666" points="540,-78 432,-78 432,-48 540,-48 540,-78"/>
<text text-anchor="start" x="440" y="-66" font-family="Helvetica,sans-Serif" font-size="10.00">lci::wait_drained_x</text>
<text text-anchor="middle" x="486" y="-55" font-family="Helvetica,sans-Serif" font-size="10.00">::device</text>
</a>
</g>
</g>
<!-- Node1&#45;&gt;Node2 -->
<g id="edge1_Node000001_Node000002" class="edge">
<title>Node1&#45;&gt;Node2</title>
<g id="a_edge1_Node000001_Node000002"><a xlink:title=" ">
<path fill="none" stroke="#63b8ff" d="M565.76,-49.69C557.19,-51.14 548.47,-52.61 540.11,-54.02"/>
<polygon fill="#63b8ff" stroke="#63b8ff" points="566.44,-53.12 575.72,-48 565.28,-46.22 566.44,-53.12"/>
</a>
</g>
</g>
<!-- Node7 -->
<g id="Node000007" class="node">
<title>Node7</title>
<g id="a_Node000007"><a xlink:href="../../dc/d66/classlci_1_1wait__drained__x.html#aadc24fbfbf078f099990cdca2b7e31a3" target="_top" xlink:title=" ">
<polygon fill="white" stroke="#666666" points="540,-30 432,-30 432,0 540,0 540,-30"/>
<text text-anchor="start" x="440" y="-18" font-family="Helvetica,sans-Serif" font-size="10.00">lci::wait_drained_x</text>
<text text-anchor="middle" x="486" y="-7" font-family="Helvetica,sans-Serif" font-size="10.00">::runtime</text>
</a>
</g>
</g>
<!-- Node1&#45;&gt;Node7 -->
<g id="edge7_Node000001_Node000007" class="edge">
<title>Node1&#45;&gt;Node7</title>
<g id="a_edge7_Node000001_Node000007"><a xlink:title=" ">
<path fill="none" stroke="#63b8ff" d="M565.76,-28.31C557.19,-26.86 548.47,-25.39 540.11,-23.98"/>
<polygon fill="#63b8ff" stroke="#63b8ff" points="565.28,-31.78 575.72,-30 566.44,-24.88 565.28,-31.78"/>
</a>
</g>
</g>
<!-- Node3 -->
<g id="Node000003" class="node">
<title>Node3</title>
<g id="a_Node000003"><a xlink:href="../../dc/d66/classlci_1_1wait__drained__x.html#a83a8a20034a60ba86d4e7814b9a4146a" target="_top" xlink:title=" ">
<polygon fill="white" stroke="#666666" points="252,-54 144,-54 144,-24 252,-24 252,-54"/>
<text text-anchor="start" x="152" y="-42" font-family="Helvetica,sans-Serif" font-size="10.00">lci::wait_drained_x</text>
<text text-anchor="middle" x="198" y="-31" font-family="Helvetica,sans-Serif" font-size="10.00">::call</text>
</a>
</g>
</g>
<!-- Node2&#45;&gt;Node3 -->
<g id="edge2_Node000002_Node000003" class="edge">
<title>Node2&#45;&gt;Node3</title>
<g id="a_edge2_Node000002_Node000003"><a xlink:title=" ">
<path fill="none" stroke="#63b8ff" d="M421.56,-67.21C382.81,-68.75 332.35,-68.88 288,-63 274.04,-61.15 259.16,-57.74 245.64,-54.05"/>
<polygon fill="#63b8ff" stroke="#63b8ff" points="421.82,-70.71 431.66,-66.77 421.51,-63.71 421.82,-70.71"/>
</a>
</g>
</g>
<!-- Node6 -->
<g id="Node000006" class="node">
<title>Node6</title>
<g id="a_Node000006"><a xlink:href="../../dc/d66/classlci_1_1wait__drained__x.html#a90cce4e34b7fe85e73eed4e7a9c6c122" target="_top" xlink:title=" ">
<polygon fill="white" stroke="#666666" points="396,-54 288,-54 288,-24 396,-24 396,-54"/>
<text text-anchor="start" x="296" y="-42" font-family="Helvetica,sans-Serif" font-size="10.00">lci::wait_drained_x</text>
<text text-anchor="middle" x="342" y="-31" font-family="Helvetica,sans-Serif" font-size="10.00">::call_impl</text>
</a>
</g>
</g>
<!-- Node2&#45;&gt;Node6 -->
<g id="edge5_Node000002_Node000006" class="edge">
<title>Node2&#45;&gt;Node6</title>
<g id="a_edge5_Node000002_Node000006"><a xlink:title=" ">
<path fill="none" stroke="#63b8ff" d="M421.76,-52.31C413.19,-50.86 404.47,-49.39 396.11,-47.98"/>
<polygon fill="#63b8ff" stroke="#63b8ff" points="421.28,-55.78 431.72,-54 422.44,-48.88 421.28,-55.78"/>
</a>
</g>
</g>
<!-- Node4 -->
<g id="Node000004" class="node">
<title>Node4</title>
<g id="a_Node000004"><a xlink:href="../../dc/d66/classlci_1_1wait__drained__x.html#a5e4c989df651421fd985a3b6b2f6f923" target="_top" xlink:title=" ">
<polygon fill="white" stroke="#666666" points="108,-76 0,-76 0,-46 108,-46 108,-76"/>
<text text-anchor="start" x="8" y="-64" font-family="Helvetica,sans-Serif" font-size="10.00">lci::wait_drained_x</text>
<text text-anchor="middle" x="54" y="-53" font-family="Helvetica,sans-Serif" font-size="10.00">::operator()</text>
</a>
</g>
</g>
<!-- Node3&#45;&gt;Node4 -->
<g id="edge3_Node000003_Node000004" class="edge">
<title>Node3&#45;&gt;Node4</title>
<g id="a_edge3_Node000003_Node000004"><a xlink:title=" ">
<path fill="none" stroke="#63b8ff" d="M133.76,-48.8C125.19,-50.12 116.47,-51.48 108.11,-52.77"/>
<polygon fill="#63b8ff" stroke="#63b8ff" points="134.37,-52.24 143.72,-47.25 133.3,-45.33 134.37,-52.24"/>
</a>
</g>
</g>
<!-- Node5 -->
<g id="Node000005" class="node">
<title>Node5</title>
<g id="a_Node000005"><a xlink:href="../../d5/dd3/namespacelci.html#a365c44aaf143cef9ec2bac09a7dbc359" target="_top" xlink:title=" ">
<polygon fill="white" stroke="#666666" points="102.5,-27.5 5.5,-27.5 5.5,-8.5 102.5,-8.5 102.5,-27.5"/>
<text text-anchor="middle" x="54" y="-15.5" font-family="Helvetica,sans-Serif" font-size="10.00">lci::wait_drained</text>
</a>
</g>
</g>
<!-- Node3&#45;&gt;Node5 -->
<g id="edge4_Node000003_Node000005" class="edge">
<title>Node3&#45;&gt;Node5</title>
<g id="a_edge4_Node000003_Node000005"><a xlink:title=" ">
<path fill="none" stroke="#63b8ff" d="M133.75,-29.65C123.26,-28.09 112.53,-26.51 102.5,-25.03"/>
<polygon fill="#63b8ff" stroke="#63b8ff" points="133.32,-33.12 143.72,-31.12 134.34,-26.2 133.32,-33.12"/>
</a>
</g>
</g>
<!-- Node6&#45;&gt;Node3 -->
<g id="edge6_Node000006_Node000003" class="edge">
<title>Node6&#45;&gt;Node3</title>
<g id="a_edge6_Node000006_Node000003"><a xlink:title=" ">
<path fill="none" stroke="#63b8ff" d="M277.48,-39C269,-39 260.38,-39 252.11,-39"/>
<polygon fill="#63b8ff" stroke="#63b8ff" points="277.72,-42.5 287.72,-39 277.72,-35.5 277.72,-42.5"/>
</a>
</g>
</g>
<!-- Node7&#45;&gt;Node3 -->
<g id="edge8_Node000007_Node000003" class="edge">
<title>Node7&#45;&gt;Node3</title>
<g id="a_edge8_Node000007_Node000003"><a xlink:title=" ">
<path fill="none" stroke="#63b8ff" d="M421.56,-10.79C382.81,-9.25 332.35,-9.12 288,-15 274.04,-16.85 259.16,-20.26 245.64,-23.95"/>
<polygon fill="#63b8ff" stroke="#63b8ff" points="421.51,-14.29 431.66,-11.23 421.82,-7.29 421.51,-14.29"/>
</a>
</g>
</g>
<!-- Node7&#45;&gt;Node6 -->
<g id="edge9_Node000007_Node000006" class="edge">
<title>Node7&#45;&gt;Node6</title>
<g id="a_edge9_Node000007_Node000006"><a xlink:title=" ">
<path fill="none" stroke="#63b8ff" d="M421.76,-25.69C413.19,-27.14 404.47,-28.61 396.11,-30.02"/>
<polygon fill="#63b8ff" stroke="#63b8ff" points="422.44,-29.12 431.72,-24 421.28,-22.22 422.44,-29.12"/>
</a>
</g>
</g>
</g>
</svg>
