<?xml version="1.0" encoding="UTF-8" standalone="no"?>
<!DOCTYPE svg PUBLIC "-//W3C//DTD SVG 1.1//EN"
 "http://www.w3.org/Graphics/SVG/1.1/DTD/svg11.dtd">
<!-- Generated by graphviz version 2.43.0 (0)
 -->
<!-- Title: lci::wait_drained_x::runtime Pages: 1 -->
<svg width="548pt" height="81pt"
 viewBox="0.00 0.00 548.00 81.00" xmlns="http://www.w3.org/2000/svg" xmlns:xlink="http://www.w3.org/1999/xlink">
<g id="graph0" class="graph" transform="scale(1 1) rotate(0) translate(4 77)">
<title>lci::wait_drained_x::runtime</title>
<!-- Node1 -->
<g id="Node000001" class="node">
<title>Node1</title>
<g id="a_Node000001"><a xlink:title=" ">
<polygon fill="#999999" stroke="#666666" points="540,-51 432,-51 432,-21 540,-21 540,-51"/>
<text text-anchor="start" x="440" y="-39" font-family="Helvetica,sans-Serif" font-size="10.00">lci::wait_drained_x</text>
<text text-anchor="middle" x="486" y="-28" font-family="Helvetica,sans-Serif" font-size="10.00">::runtime</text>
</a>
</g>
</g>
<!-- Node2 -->
<g id="Node000002" class="node">
<title>Node2</title>
<g id="a_Node000002"><a xlink:href="../../dc/d66/classlci_1_1wait__drained__x.html#a83a8a20034a60ba86d4e7814b9a4146a" target="_top" xlink:title=" ">
<polygon fill="white" stroke="#666666" points="252,-51 144,-51 144,-21 252,-21 252,-51"/>
<text text-anchor="start" x="152" y="-39" font-family="Helvetica,sans-Serif" font-size="10.00">lci::wait_drained_x</text>
<text text-anchor="middle" x="198" y="-28" font-family="Helvetica,sans-Serif" font-size="10.00">::call</text>
</a>
</g>
</g>
<!-- Node1&#45;&gt;Node2 -->
<g id="edge1_Node000001_Node000002" class="edge">
<title>Node1&#45;&gt;Node2</title>
<g id="a_edge1_Node000001_Node000002"><a xlink:title=" ">
<path fill="none" stroke="#63b8ff" d="M421.76,-38.39C413.1,-38.65 404.33,-38.86 396,-39 348.01,-39.81 335.99,-39.81 288,-39 276.41,-38.8 263.97,-38.47 252.17,-38.09"/>
<polygon fill="#63b8ff" stroke="#63b8ff" points="421.94,-41.89 431.83,-38.09 421.72,-34.89 421.94,-41.89"/>
</a>
</g>
</g>
<!-- Node5 -->
<g id="Node000005" class="node">
<title>Node5</title>
<g id="a_Node000005"><a xlink:href="../../dc/d66/classlci_1_1wait__drained__x.html#a90cce4e34b7fe85e73eed4e7a9c6c122" target="_top" xlink:title=" ">
<polygon fill="white" stroke="#666666" points="396,-30 288,-30 288,0 396,0 396,-30"/>
<text text-anchor="start" x="296" y="-18" font-family="Helvetica,sans-Serif" font-size="10.00">lci::wait_drained_x</text>
<text text-anchor="middle" x="342" y="-7" font-family="Helvetica,sans-Serif" font-size="10.00">::call_impl</text>
</a>
</g>
</g>
<!-- Node1&#45;&gt;Node5 -->
<g id="edge4_Node000001_Node000005" class="edge">
<title>Node1&#45;&gt;Node5</title>
<g id="a_edge4_Node000001_Node000005"><a xlink:title=" ">
<path fill="none" stroke="#63b8ff" d="M421.76,-26.65C413.19,-25.38 404.47,-24.09 396.11,-22.85"/>
<polygon fill="#63b8ff" stroke="#63b8ff" points="421.32,-30.12 431.72,-28.12 422.34,-23.2 421.32,-30.12"/>
</a>
</g>
</g>
<!-- Node3 -->
<g id="Node000003" class="node">
<title>Node3</title>
<g id="a_Node000003"><a xlink:href="../../dc/d66/classlci_1_1wait__drained__x.html#a5e4c989df651421fd985a3b6b2f6f923" target="_top" xlink:title=" ">
<polygon fill="white" stroke="#666666" points="108,-73 0,-73 0,-43 108,-43 108,-73"/>
<text text-anchor="start" x="8" y="-61" font-family="Helvetica,sans-Serif" font-size="10.00">lci::wait_drained_x</text>
<text text-anchor="middle" x="54" y="-50" font-family="Helvetica,sans-Serif" font-size="10.00">::operator()</text>
</a>
</g>
</g>
<!-- Node2&#45;&gt;Node3 -->
<g id="edge2_Node000002_Node000003" class="edge">
<title>Node2&#45;&gt;Node3</title>
<g id="a_edge2_Node000002_Node000003"><a xlink:title=" ">
<path fill="none" stroke="#63b8ff" d="M133.76,-45.8C125.19,-47.12 116.47,-48.48 108.11,-49.77"/>
<polygon fill="#63b8ff" stroke="#63b8ff" points="134.37,-49.24 143.72,-44.25 133.3,-42.33 134.37,-49.24"/>
</a>
</g>
</g>
<!-- Node4 -->
<g id="Node000004" class="node">
<title>Node4</title>
<g id="a_Node000004"><a xlink:href="../../d5/dd3/namespacelci.html#a365c44aaf143cef9ec2bac09a7dbc359" target="_top" xlink:title=" ">
<polygon fill="white" stroke="#666666" points="102.5,-24.5 5.5,-24.5 5.5,-5.5 102.5,-5.5 102.5,-24.5"/>
<text text-anchor="middle" x="54" y="-12.5" font-family="Helvetica,sans-Serif" font-size="10.00">lci::wait_drained</text>
</a>
</g>
</g>
<!-- Node2&#45;&gt;Node4 -->
<g id="edge3_Node000002_Node000004" class="edge">
<title>Node2&#45;&gt;Node4</title>
<g id="a_edge3_Node000002_Node000004"><a xlink:title=" ">
<path fill="none" stroke="#63b8ff" d="M133.75,-26.65C123.26,-25.09 112.53,-23.51 102.5,-22.03"/>
<polygon fill="#63b8ff" stroke="#63b8ff" points="133.32,-30.12 143.72,-28.12 134.34,-23.2 133.32,-30.12"/>
</a>
</g>
</g>
<!-- Node5&#45;&gt;Node2 -->
<g id="edge5_Node000005_Node000002" class="edge">
<title>Node5&#45;&gt;Node2</title>
<g id="a_edge5_Node000005_Node000002"><a xlink:title=" ">
<path fill="none" stroke="#63b8ff" d="M277.76,-24.35C269.19,-25.62 260.47,-26.91 252.11,-28.15"/>
<polygon fill="#63b8ff" stroke="#63b8ff" points="278.34,-27.8 287.72,-22.88 277.32,-20.88 278.34,-27.8"/>
</a>
</g>
</g>
</g>
</svg>
