<?xml version="1.0" encoding="UTF-8" standalone="no"?>
<!DOCTYPE svg PUBLIC "-//W3C//DTD SVG 1.1//EN"
 "http://www.w3.org/Graphics/SVG/1.1/DTD/svg11.dtd">
<!-- Generated by graphviz version 2.43.0 (0)
 -->
<!-- Title: lci::global_initialize Pages: 1 -->
<svg width="399pt" height="164pt"
 viewBox="0.00 0.00 399.00 163.50" xmlns="http://www.w3.org/2000/svg" xmlns:xlink="http://www.w3.org/1999/xlink">
<g id="graph0" class="graph" transform="scale(1 1) rotate(0) translate(4 159.5)">
<title>lci::global_initialize</title>
<!-- Node1 -->
<g id="Node000001" class="node">
<title>Node1</title>
<g id="a_Node000001"><a xlink:title="Global initialization for LCI, including rank_me, rank_n, and g_default_attr.">
<polygon fill="#999999" stroke="#666666" points="391,-89.5 280,-89.5 280,-70.5 391,-70.5 391,-89.5"/>
<text text-anchor="middle" x="335.5" y="-77.5" font-family="Helvetica,sans-Serif" font-size="10.00">lci::global_initialize</text>
</a>
</g>
</g>
<!-- Node2 -->
<g id="Node000002" class="node">
<title>Node2</title>
<g id="a_Node000002"><a xlink:href="../../d4/d5c/classlci_1_1alloc__runtime__x.html#a37daf1686fc2ea110af2470457aa2455" target="_top" xlink:title=" ">
<polygon fill="white" stroke="#666666" points="242.5,-119 141.5,-119 141.5,-89 242.5,-89 242.5,-119"/>
<text text-anchor="start" x="149.5" y="-107" font-family="Helvetica,sans-Serif" font-size="10.00">lci::alloc_runtime</text>
<text text-anchor="middle" x="192" y="-96" font-family="Helvetica,sans-Serif" font-size="10.00">_x::call</text>
</a>
</g>
</g>
<!-- Node1&#45;&gt;Node2 -->
<g id="edge1_Node000001_Node000002" class="edge">
<title>Node1&#45;&gt;Node2</title>
<g id="a_edge1_Node000001_Node000002"><a xlink:title=" ">
<path fill="none" stroke="#63b8ff" d="M269.72,-90.99C260.73,-92.51 251.6,-94.06 242.93,-95.53"/>
<polygon fill="#63b8ff" stroke="#63b8ff" points="270.52,-94.4 279.79,-89.28 269.35,-87.5 270.52,-94.4"/>
</a>
</g>
</g>
<!-- Node5 -->
<g id="Node000005" class="node">
<title>Node5</title>
<g id="a_Node000005"><a xlink:href="../../d1/dcd/classlci_1_1g__runtime__init__x.html#aa20ea5973d0c21b602c7f9da734c47a2" target="_top" xlink:title=" ">
<polygon fill="white" stroke="#666666" points="244,-71 140,-71 140,-41 244,-41 244,-71"/>
<text text-anchor="start" x="148" y="-59" font-family="Helvetica,sans-Serif" font-size="10.00">lci::g_runtime_init</text>
<text text-anchor="middle" x="192" y="-48" font-family="Helvetica,sans-Serif" font-size="10.00">_x::call</text>
</a>
</g>
</g>
<!-- Node1&#45;&gt;Node5 -->
<g id="edge4_Node000001_Node000005" class="edge">
<title>Node1&#45;&gt;Node5</title>
<g id="a_edge4_Node000001_Node000005"><a xlink:title=" ">
<path fill="none" stroke="#63b8ff" d="M269.83,-69.03C261.28,-67.58 252.6,-66.11 244.31,-64.7"/>
<polygon fill="#63b8ff" stroke="#63b8ff" points="269.35,-72.5 279.79,-70.72 270.52,-65.6 269.35,-72.5"/>
</a>
</g>
</g>
<!-- Node3 -->
<g id="Node000003" class="node">
<title>Node3</title>
<g id="a_Node000003"><a xlink:href="../../d5/dd3/namespacelci.html#acf3dac18c0d46ef14735d3e046bb8134" target="_top" xlink:title=" ">
<polygon fill="white" stroke="#666666" points="102.5,-155.5 1.5,-155.5 1.5,-136.5 102.5,-136.5 102.5,-155.5"/>
<text text-anchor="middle" x="52" y="-143.5" font-family="Helvetica,sans-Serif" font-size="10.00">lci::alloc_runtime</text>
</a>
</g>
</g>
<!-- Node2&#45;&gt;Node3 -->
<g id="edge2_Node000002_Node000003" class="edge">
<title>Node2&#45;&gt;Node3</title>
<g id="a_edge2_Node000002_Node000003"><a xlink:title=" ">
<path fill="none" stroke="#63b8ff" d="M131.6,-122.08C115.39,-127.01 98.45,-132.17 84.47,-136.42"/>
<polygon fill="#63b8ff" stroke="#63b8ff" points="133.02,-125.3 141.57,-119.04 130.98,-118.61 133.02,-125.3"/>
</a>
</g>
</g>
<!-- Node4 -->
<g id="Node000004" class="node">
<title>Node4</title>
<g id="a_Node000004"><a xlink:href="../../d4/d5c/classlci_1_1alloc__runtime__x.html#a2738d331bdb765ecdfa5e12c6d101f02" target="_top" xlink:title=" ">
<polygon fill="white" stroke="#666666" points="102.5,-118 1.5,-118 1.5,-88 102.5,-88 102.5,-118"/>
<text text-anchor="start" x="9.5" y="-106" font-family="Helvetica,sans-Serif" font-size="10.00">lci::alloc_runtime</text>
<text text-anchor="middle" x="52" y="-95" font-family="Helvetica,sans-Serif" font-size="10.00">_x::operator()</text>
</a>
</g>
</g>
<!-- Node2&#45;&gt;Node4 -->
<g id="edge3_Node000002_Node000004" class="edge">
<title>Node2&#45;&gt;Node4</title>
<g id="a_edge3_Node000002_Node000004"><a xlink:title=" ">
<path fill="none" stroke="#63b8ff" d="M131.05,-103.57C121.61,-103.5 111.93,-103.43 102.75,-103.36"/>
<polygon fill="#63b8ff" stroke="#63b8ff" points="131.15,-107.07 141.18,-103.64 131.2,-100.07 131.15,-107.07"/>
</a>
</g>
</g>
<!-- Node6 -->
<g id="Node000006" class="node">
<title>Node6</title>
<g id="a_Node000006"><a xlink:href="../../d5/dd3/namespacelci.html#aa5e55e1f0fc77dae56773ee7fe89c096" target="_top" xlink:title=" ">
<polygon fill="white" stroke="#666666" points="104,-67.5 0,-67.5 0,-48.5 104,-48.5 104,-67.5"/>
<text text-anchor="middle" x="52" y="-55.5" font-family="Helvetica,sans-Serif" font-size="10.00">lci::g_runtime_init</text>
</a>
</g>
</g>
<!-- Node5&#45;&gt;Node6 -->
<g id="edge5_Node000005_Node000006" class="edge">
<title>Node5&#45;&gt;Node6</title>
<g id="a_edge5_Node000005_Node000006"><a xlink:title=" ">
<path fill="none" stroke="#63b8ff" d="M129.5,-56.89C121.13,-57.01 112.6,-57.14 104.43,-57.25"/>
<polygon fill="#63b8ff" stroke="#63b8ff" points="129.67,-60.39 139.61,-56.74 129.56,-53.39 129.67,-60.39"/>
</a>
</g>
</g>
<!-- Node7 -->
<g id="Node000007" class="node">
<title>Node7</title>
<g id="a_Node000007"><a xlink:href="../../d1/dcd/classlci_1_1g__runtime__init__x.html#aff7f73ac25ad8c385a446d96d4114ab2" target="_top" xlink:title=" ">
<polygon fill="white" stroke="#666666" points="104,-30 0,-30 0,0 104,0 104,-30"/>
<text text-anchor="start" x="8" y="-18" font-family="Helvetica,sans-Serif" font-size="10.00">lci::g_runtime_init</text>
<text text-anchor="middle" x="52" y="-7" font-family="Helvetica,sans-Serif" font-size="10.00">_x::operator()</text>
</a>
</g>
</g>
<!-- Node5&#45;&gt;Node7 -->
<g id="edge6_Node000005_Node000007" class="edge">
<title>Node5&#45;&gt;Node7</title>
<g id="a_edge6_Node000005_Node000007"><a xlink:title=" ">
<path fill="none" stroke="#63b8ff" d="M130.7,-38.08C121.65,-35.4 112.41,-32.65 103.6,-30.03"/>
<polygon fill="#63b8ff" stroke="#63b8ff" points="129.81,-41.47 140.4,-40.97 131.81,-34.76 129.81,-41.47"/>
</a>
</g>
</g>
</g>
</svg>
