<?xml version="1.0" encoding="UTF-8" standalone="no"?>
<!DOCTYPE svg PUBLIC "-//W3C//DTD SVG 1.1//EN"
 "http://www.w3.org/Graphics/SVG/1.1/DTD/svg11.dtd">
<!-- Generated by graphviz version 2.43.0 (0)
 -->
<!-- Title: lci::set_allocator_x Pages: 1 -->
<svg width="236pt" height="170pt"
 viewBox="0.00 0.00 236.00 170.00" xmlns="http://www.w3.org/2000/svg" xmlns:xlink="http://www.w3.org/1999/xlink">
<g id="graph0" class="graph" transform="scale(1 1) rotate(0) translate(4 166)">
<title>lci::set_allocator_x</title>
<!-- Node1 -->
<g id="Node000001" class="node">
<title>Node1</title>
<g id="a_Node000001"><a xlink:title="The actual implementation for set_allocator.">
<polygon fill="#999999" stroke="#666666" points="162,-19 54,-19 54,0 162,0 162,-19"/>
<text text-anchor="middle" x="108" y="-7" font-family="Helvetica,sans-Serif" font-size="10.00">lci::set_allocator_x</text>
</a>
</g>
</g>
<!-- Node2 -->
<g id="Node000002" class="node">
<title>Node2</title>
<g id="a_Node000002"><a xlink:href="../../d6/db9/structlci_1_1allocator__base__t.html" target="_top" xlink:title="The user&#45;defined allocator type.">
<polygon fill="white" stroke="#666666" points="114,-90.5 0,-90.5 0,-71.5 114,-71.5 114,-90.5"/>
<text text-anchor="middle" x="57" y="-78.5" font-family="Helvetica,sans-Serif" font-size="10.00">lci::allocator_base_t</text>
</a>
</g>
</g>
<!-- Node2&#45;&gt;Node1 -->
<g id="edge1_Node000001_Node000002" class="edge">
<title>Node2&#45;&gt;Node1</title>
<g id="a_edge1_Node000001_Node000002"><a xlink:title=" ">
<path fill="none" stroke="#9a32cd" stroke-dasharray="5,2" d="M63.39,-61.89C66.73,-53.83 71.32,-44.48 77,-37 82.22,-30.12 89.51,-23.78 95.7,-19.03"/>
<polygon fill="#9a32cd" stroke="#9a32cd" points="60.02,-60.91 59.73,-71.5 66.56,-63.4 60.02,-60.91"/>
</a>
</g>
<text text-anchor="middle" x="107.5" y="-40" font-family="Helvetica,sans-Serif" font-size="10.00" fill="grey"> m_allocator</text>
</g>
<!-- Node3 -->
<g id="Node000003" class="node">
<title>Node3</title>
<g id="a_Node000003"><a xlink:href="../../db/d20/structlci_1_1option__t.html" target="_top" xlink:title=" ">
<polygon fill="white" stroke="#666666" points="228,-96 132,-96 132,-66 228,-66 228,-96"/>
<text text-anchor="start" x="140" y="-84" font-family="Helvetica,sans-Serif" font-size="10.00">lci::option_t&lt; lci</text>
<text text-anchor="middle" x="180" y="-73" font-family="Helvetica,sans-Serif" font-size="10.00">::runtime_t &gt;</text>
</a>
</g>
</g>
<!-- Node3&#45;&gt;Node1 -->
<g id="edge2_Node000001_Node000003" class="edge">
<title>Node3&#45;&gt;Node1</title>
<g id="a_edge2_Node000001_Node000003"><a xlink:title=" ">
<path fill="none" stroke="#9a32cd" stroke-dasharray="5,2" d="M159.68,-58.58C152.89,-51.59 145.22,-43.87 138,-37 131.55,-30.87 124.05,-24.24 118.17,-19.15"/>
<polygon fill="#9a32cd" stroke="#9a32cd" points="157.18,-61.02 166.64,-65.8 162.22,-56.17 157.18,-61.02"/>
</a>
</g>
<text text-anchor="middle" x="176.5" y="-40" font-family="Helvetica,sans-Serif" font-size="10.00" fill="grey"> m_runtime</text>
</g>
<!-- Node4 -->
<g id="Node000004" class="node">
<title>Node4</title>
<g id="a_Node000004"><a xlink:href="../../dc/d5c/classlci_1_1runtime__t.html" target="_top" xlink:title="The actual implementation for RESOURCE runtime.">
<polygon fill="white" stroke="#666666" points="220.5,-162 139.5,-162 139.5,-143 220.5,-143 220.5,-162"/>
<text text-anchor="middle" x="180" y="-150" font-family="Helvetica,sans-Serif" font-size="10.00">lci::runtime_t</text>
</a>
</g>
</g>
<!-- Node4&#45;&gt;Node3 -->
<g id="edge3_Node000003_Node000004" class="edge">
<title>Node4&#45;&gt;Node3</title>
<g id="a_edge3_Node000003_Node000004"><a xlink:title=" ">
<path fill="none" stroke="#9a32cd" stroke-dasharray="5,2" d="M180,-132.71C180,-121.19 180,-106.68 180,-96.14"/>
<polygon fill="#9a32cd" stroke="#9a32cd" points="176.5,-132.98 180,-142.98 183.5,-132.98 176.5,-132.98"/>
</a>
</g>
<text text-anchor="middle" x="203" y="-117" font-family="Helvetica,sans-Serif" font-size="10.00" fill="grey"> m_value</text>
</g>
</g>
</svg>
