<?xml version="1.0" encoding="UTF-8" standalone="no"?>
<!DOCTYPE svg PUBLIC "-//W3C//DTD SVG 1.1//EN"
 "http://www.w3.org/Graphics/SVG/1.1/DTD/svg11.dtd">
<!-- Generated by graphviz version 2.43.0 (0)
 -->
<!-- Title: lci::register_memory_x::call Pages: 1 -->
<svg width="280pt" height="76pt"
 viewBox="0.00 0.00 280.00 75.50" xmlns="http://www.w3.org/2000/svg" xmlns:xlink="http://www.w3.org/1999/xlink">
<g id="graph0" class="graph" transform="scale(1 1) rotate(0) translate(4 71.5)">
<title>lci::register_memory_x::call</title>
<!-- Node1 -->
<g id="Node000001" class="node">
<title>Node1</title>
<g id="a_Node000001"><a xlink:title=" ">
<polygon fill="#999999" stroke="#666666" points="272,-45.5 154,-45.5 154,-15.5 272,-15.5 272,-45.5"/>
<text text-anchor="start" x="162" y="-33.5" font-family="Helvetica,sans-Serif" font-size="10.00">lci::register_memory</text>
<text text-anchor="middle" x="213" y="-22.5" font-family="Helvetica,sans-Serif" font-size="10.00">_x::call</text>
</a>
</g>
</g>
<!-- Node2 -->
<g id="Node000002" class="node">
<title>Node2</title>
<g id="a_Node000002"><a xlink:href="../../d0/d73/classlci_1_1register__memory__x.html#abcc6bc37b2b399b44529a56aae8fe354" target="_top" xlink:title=" ">
<polygon fill="white" stroke="#666666" points="118,-67.5 0,-67.5 0,-37.5 118,-37.5 118,-67.5"/>
<text text-anchor="start" x="8" y="-55.5" font-family="Helvetica,sans-Serif" font-size="10.00">lci::register_memory</text>
<text text-anchor="middle" x="59" y="-44.5" font-family="Helvetica,sans-Serif" font-size="10.00">_x::operator()</text>
</a>
</g>
</g>
<!-- Node1&#45;&gt;Node2 -->
<g id="edge1_Node000001_Node000002" class="edge">
<title>Node1&#45;&gt;Node2</title>
<g id="a_edge1_Node000001_Node000002"><a xlink:title=" ">
<path fill="none" stroke="#63b8ff" d="M143.74,-40.38C135.2,-41.62 126.54,-42.87 118.18,-44.08"/>
<polygon fill="#63b8ff" stroke="#63b8ff" points="144.27,-43.84 153.67,-38.94 143.27,-36.91 144.27,-43.84"/>
</a>
</g>
</g>
<!-- Node3 -->
<g id="Node000003" class="node">
<title>Node3</title>
<g id="a_Node000003"><a xlink:href="../../d5/dd3/namespacelci.html#aaf51f7172447f6fb23b5f98f6e124ff9" target="_top" xlink:title=" ">
<polygon fill="white" stroke="#666666" points="118,-19 0,-19 0,0 118,0 118,-19"/>
<text text-anchor="middle" x="59" y="-7" font-family="Helvetica,sans-Serif" font-size="10.00">lci::register_memory</text>
</a>
</g>
</g>
<!-- Node1&#45;&gt;Node3 -->
<g id="edge2_Node000001_Node000003" class="edge">
<title>Node1&#45;&gt;Node3</title>
<g id="a_edge2_Node000001_Node000003"><a xlink:title=" ">
<path fill="none" stroke="#63b8ff" d="M143.74,-21.07C135.2,-19.89 126.54,-18.69 118.18,-17.54"/>
<polygon fill="#63b8ff" stroke="#63b8ff" points="143.28,-24.54 153.67,-22.44 144.24,-17.61 143.28,-24.54"/>
</a>
</g>
</g>
</g>
</svg>
