<?xml version="1.0" encoding="UTF-8" standalone="no"?>
<!DOCTYPE svg PUBLIC "-//W3C//DTD SVG 1.1//EN"
 "http://www.w3.org/Graphics/SVG/1.1/DTD/svg11.dtd">
<!-- Generated by graphviz version 2.43.0 (0)
 -->
<!-- Title: lci::register_memory_x::call Pages: 1 -->
<svg width="599pt" height="182pt"
 viewBox="0.00 0.00 599.00 182.00" xmlns="http://www.w3.org/2000/svg" xmlns:xlink="http://www.w3.org/1999/xlink">
<g id="graph0" class="graph" transform="scale(1 1) rotate(0) translate(4 178)">
<title>lci::register_memory_x::call</title>
<!-- Node1 -->
<g id="Node000001" class="node">
<title>Node1</title>
<g id="a_Node000001"><a xlink:title=" ">
<polygon fill="#999999" stroke="#666666" points="118,-102 0,-102 0,-72 118,-72 118,-102"/>
<text text-anchor="start" x="8" y="-90" font-family="Helvetica,sans-Serif" font-size="10.00">lci::register_memory</text>
<text text-anchor="middle" x="59" y="-79" font-family="Helvetica,sans-Serif" font-size="10.00">_x::call</text>
</a>
</g>
</g>
<!-- Node2 -->
<g id="Node000002" class="node">
<title>Node2</title>
<g id="a_Node000002"><a xlink:href="../../d0/d73/classlci_1_1register__memory__x.html#a1311697d2ab63d99da7dec91cc918410" target="_top" xlink:title=" ">
<polygon fill="white" stroke="#666666" points="426,-174 308,-174 308,-144 426,-144 426,-174"/>
<text text-anchor="start" x="316" y="-162" font-family="Helvetica,sans-Serif" font-size="10.00">lci::register_memory</text>
<text text-anchor="middle" x="367" y="-151" font-family="Helvetica,sans-Serif" font-size="10.00">_x::address</text>
</a>
</g>
</g>
<!-- Node1&#45;&gt;Node2 -->
<g id="edge1_Node000001_Node000002" class="edge">
<title>Node1&#45;&gt;Node2</title>
<g id="a_edge1_Node000001_Node000002"><a xlink:title=" ">
<path fill="none" stroke="#63b8ff" d="M90.2,-102.16C108.29,-110.66 131.99,-120.76 154,-127 200.98,-140.31 255.48,-148.38 297.46,-153.09"/>
<polygon fill="#63b8ff" stroke="#63b8ff" points="297.26,-156.59 307.58,-154.19 298.01,-149.63 297.26,-156.59"/>
</a>
</g>
</g>
<!-- Node4 -->
<g id="Node000004" class="node">
<title>Node4</title>
<g id="a_Node000004"><a xlink:href="../../d0/d73/classlci_1_1register__memory__x.html#a396a39298e09cb152edfed607dfe2041" target="_top" xlink:title=" ">
<polygon fill="white" stroke="#666666" points="272,-102 154,-102 154,-72 272,-72 272,-102"/>
<text text-anchor="start" x="162" y="-90" font-family="Helvetica,sans-Serif" font-size="10.00">lci::register_memory</text>
<text text-anchor="middle" x="213" y="-79" font-family="Helvetica,sans-Serif" font-size="10.00">_x::call_impl</text>
</a>
</g>
</g>
<!-- Node1&#45;&gt;Node4 -->
<g id="edge3_Node000001_Node000004" class="edge">
<title>Node1&#45;&gt;Node4</title>
<g id="a_edge3_Node000001_Node000004"><a xlink:title=" ">
<path fill="none" stroke="#63b8ff" d="M118.33,-87C126.61,-87 135.17,-87 143.62,-87"/>
<polygon fill="#63b8ff" stroke="#63b8ff" points="143.82,-90.5 153.82,-87 143.82,-83.5 143.82,-90.5"/>
</a>
</g>
</g>
<!-- Node5 -->
<g id="Node000005" class="node">
<title>Node5</title>
<g id="a_Node000005"><a xlink:href="../../d0/d73/classlci_1_1register__memory__x.html#a1c21f328e209be70eb918afcac78f443" target="_top" xlink:title=" ">
<polygon fill="white" stroke="#666666" points="426,-126 308,-126 308,-96 426,-96 426,-126"/>
<text text-anchor="start" x="316" y="-114" font-family="Helvetica,sans-Serif" font-size="10.00">lci::register_memory</text>
<text text-anchor="middle" x="367" y="-103" font-family="Helvetica,sans-Serif" font-size="10.00">_x::device</text>
</a>
</g>
</g>
<!-- Node1&#45;&gt;Node5 -->
<g id="edge11_Node000001_Node000005" class="edge">
<title>Node1&#45;&gt;Node5</title>
<g id="a_edge11_Node000001_Node000005"><a xlink:title=" ">
<path fill="none" stroke="#63b8ff" d="M109.31,-102.05C123.59,-105.74 139.29,-109.15 154,-111 201.74,-117 256,-116.87 297.68,-115.31"/>
<polygon fill="#63b8ff" stroke="#63b8ff" points="297.87,-118.8 307.72,-114.9 297.58,-111.81 297.87,-118.8"/>
</a>
</g>
</g>
<!-- Node6 -->
<g id="Node000006" class="node">
<title>Node6</title>
<g id="a_Node000006"><a xlink:href="../../d0/d73/classlci_1_1register__memory__x.html#acea5e15e35ec33ea9f9e9078bfcec645" target="_top" xlink:title=" ">
<polygon fill="white" stroke="#666666" points="426,-78 308,-78 308,-48 426,-48 426,-78"/>
<text text-anchor="start" x="316" y="-66" font-family="Helvetica,sans-Serif" font-size="10.00">lci::register_memory</text>
<text text-anchor="middle" x="367" y="-55" font-family="Helvetica,sans-Serif" font-size="10.00">_x::runtime</text>
</a>
</g>
</g>
<!-- Node1&#45;&gt;Node6 -->
<g id="edge12_Node000001_Node000006" class="edge">
<title>Node1&#45;&gt;Node6</title>
<g id="a_edge12_Node000001_Node000006"><a xlink:title=" ">
<path fill="none" stroke="#63b8ff" d="M109.31,-71.95C123.59,-68.26 139.29,-64.85 154,-63 201.74,-57 256,-57.13 297.68,-58.69"/>
<polygon fill="#63b8ff" stroke="#63b8ff" points="297.58,-62.19 307.72,-59.1 297.87,-55.2 297.58,-62.19"/>
</a>
</g>
</g>
<!-- Node7 -->
<g id="Node000007" class="node">
<title>Node7</title>
<g id="a_Node000007"><a xlink:href="../../d0/d73/classlci_1_1register__memory__x.html#a7476c52c223d352cda4407cf005ba436" target="_top" xlink:title=" ">
<polygon fill="white" stroke="#666666" points="426,-30 308,-30 308,0 426,0 426,-30"/>
<text text-anchor="start" x="316" y="-18" font-family="Helvetica,sans-Serif" font-size="10.00">lci::register_memory</text>
<text text-anchor="middle" x="367" y="-7" font-family="Helvetica,sans-Serif" font-size="10.00">_x::size</text>
</a>
</g>
</g>
<!-- Node1&#45;&gt;Node7 -->
<g id="edge13_Node000001_Node000007" class="edge">
<title>Node1&#45;&gt;Node7</title>
<g id="a_edge13_Node000001_Node000007"><a xlink:title=" ">
<path fill="none" stroke="#63b8ff" d="M97.04,-71.96C114.16,-65.43 134.89,-58.13 154,-53 201.38,-40.28 255.87,-30.62 297.74,-24.22"/>
<polygon fill="#63b8ff" stroke="#63b8ff" points="298.46,-27.65 307.83,-22.71 297.42,-20.73 298.46,-27.65"/>
</a>
</g>
</g>
<!-- Node3 -->
<g id="Node000003" class="node">
<title>Node3</title>
<g id="a_Node000003"><a xlink:href="../../d0/d73/classlci_1_1register__memory__x.html#ae43dcb30961d8154e8df03c89d9c2752" target="_top" xlink:title=" ">
<polygon fill="white" stroke="#666666" points="591,-102 462,-102 462,-72 591,-72 591,-102"/>
<text text-anchor="start" x="470" y="-90" font-family="Helvetica,sans-Serif" font-size="10.00">lci::register_memory</text>
<text text-anchor="middle" x="526.5" y="-79" font-family="Helvetica,sans-Serif" font-size="10.00">_x::register_memory_x</text>
</a>
</g>
</g>
<!-- Node2&#45;&gt;Node3 -->
<g id="edge2_Node000002_Node000003" class="edge">
<title>Node2&#45;&gt;Node3</title>
<g id="a_edge2_Node000002_Node000003"><a xlink:title=" ">
<path fill="none" stroke="#63b8ff" d="M405.26,-143.95C412.19,-141.05 419.34,-137.98 426,-135 445.98,-126.06 467.91,-115.55 486.09,-106.65"/>
<polygon fill="#63b8ff" stroke="#63b8ff" points="487.8,-109.71 495.23,-102.16 484.71,-103.43 487.8,-109.71"/>
</a>
</g>
</g>
<!-- Node4&#45;&gt;Node2 -->
<g id="edge4_Node000004_Node000002" class="edge">
<title>Node4&#45;&gt;Node2</title>
<g id="a_edge4_Node000004_Node000002"><a xlink:title=" ">
<path fill="none" stroke="#63b8ff" d="M242.09,-102.09C260.63,-111.86 285.54,-124.64 308,-135 311.57,-136.65 315.29,-138.31 319.04,-139.94"/>
<polygon fill="#63b8ff" stroke="#63b8ff" points="317.8,-143.22 328.37,-143.94 320.56,-136.79 317.8,-143.22"/>
</a>
</g>
</g>
<!-- Node4&#45;&gt;Node5 -->
<g id="edge5_Node000004_Node000005" class="edge">
<title>Node4&#45;&gt;Node5</title>
<g id="a_edge5_Node000004_Node000005"><a xlink:title=" ">
<path fill="none" stroke="#63b8ff" d="M272.33,-96.21C280.7,-97.53 289.36,-98.9 297.9,-100.25"/>
<polygon fill="#63b8ff" stroke="#63b8ff" points="297.4,-103.71 307.82,-101.81 298.49,-96.8 297.4,-103.71"/>
</a>
</g>
</g>
<!-- Node4&#45;&gt;Node6 -->
<g id="edge7_Node000004_Node000006" class="edge">
<title>Node4&#45;&gt;Node6</title>
<g id="a_edge7_Node000004_Node000006"><a xlink:title=" ">
<path fill="none" stroke="#63b8ff" d="M272.33,-77.79C280.7,-76.47 289.36,-75.1 297.9,-73.75"/>
<polygon fill="#63b8ff" stroke="#63b8ff" points="298.49,-77.2 307.82,-72.19 297.4,-70.29 298.49,-77.2"/>
</a>
</g>
</g>
<!-- Node4&#45;&gt;Node7 -->
<g id="edge9_Node000004_Node000007" class="edge">
<title>Node4&#45;&gt;Node7</title>
<g id="a_edge9_Node000004_Node000007"><a xlink:title=" ">
<path fill="none" stroke="#63b8ff" d="M242.09,-71.91C260.63,-62.14 285.54,-49.36 308,-39 311.57,-37.35 315.29,-35.69 319.04,-34.06"/>
<polygon fill="#63b8ff" stroke="#63b8ff" points="320.56,-37.21 328.37,-30.06 317.8,-30.78 320.56,-37.21"/>
</a>
</g>
</g>
<!-- Node5&#45;&gt;Node3 -->
<g id="edge6_Node000005_Node000003" class="edge">
<title>Node5&#45;&gt;Node3</title>
<g id="a_edge6_Node000005_Node000003"><a xlink:title=" ">
<path fill="none" stroke="#63b8ff" d="M426.2,-102.13C434.58,-100.86 443.29,-99.53 451.91,-98.21"/>
<polygon fill="#63b8ff" stroke="#63b8ff" points="452.62,-101.65 461.98,-96.68 451.57,-94.73 452.62,-101.65"/>
</a>
</g>
</g>
<!-- Node6&#45;&gt;Node3 -->
<g id="edge8_Node000006_Node000003" class="edge">
<title>Node6&#45;&gt;Node3</title>
<g id="a_edge8_Node000006_Node000003"><a xlink:title=" ">
<path fill="none" stroke="#63b8ff" d="M426.2,-71.87C434.58,-73.14 443.29,-74.47 451.91,-75.79"/>
<polygon fill="#63b8ff" stroke="#63b8ff" points="451.57,-79.27 461.98,-77.32 452.62,-72.35 451.57,-79.27"/>
</a>
</g>
</g>
<!-- Node7&#45;&gt;Node3 -->
<g id="edge10_Node000007_Node000003" class="edge">
<title>Node7&#45;&gt;Node3</title>
<g id="a_edge10_Node000007_Node000003"><a xlink:title=" ">
<path fill="none" stroke="#63b8ff" d="M405.26,-30.05C412.19,-32.95 419.34,-36.02 426,-39 445.98,-47.94 467.91,-58.45 486.09,-67.35"/>
<polygon fill="#63b8ff" stroke="#63b8ff" points="484.71,-70.57 495.23,-71.84 487.8,-64.29 484.71,-70.57"/>
</a>
</g>
</g>
</g>
</svg>
