<?xml version="1.0" encoding="UTF-8" standalone="no"?>
<!DOCTYPE svg PUBLIC "-//W3C//DTD SVG 1.1//EN"
 "http://www.w3.org/Graphics/SVG/1.1/DTD/svg11.dtd">
<!-- Generated by graphviz version 2.43.0 (0)
 -->
<!-- Title: lci::register_memory_x::runtime Pages: 1 -->
<svg width="588pt" height="81pt"
 viewBox="0.00 0.00 588.00 81.00" xmlns="http://www.w3.org/2000/svg" xmlns:xlink="http://www.w3.org/1999/xlink">
<g id="graph0" class="graph" transform="scale(1 1) rotate(0) translate(4 77)">
<title>lci::register_memory_x::runtime</title>
<!-- Node1 -->
<g id="Node000001" class="node">
<title>Node1</title>
<g id="a_Node000001"><a xlink:title=" ">
<polygon fill="#999999" stroke="#666666" points="580,-51 462,-51 462,-21 580,-21 580,-51"/>
<text text-anchor="start" x="470" y="-39" font-family="Helvetica,sans-Serif" font-size="10.00">lci::register_memory</text>
<text text-anchor="middle" x="521" y="-28" font-family="Helvetica,sans-Serif" font-size="10.00">_x::runtime</text>
</a>
</g>
</g>
<!-- Node2 -->
<g id="Node000002" class="node">
<title>Node2</title>
<g id="a_Node000002"><a xlink:href="../../d0/d73/classlci_1_1register__memory__x.html#aef62bcfd25206c0880ec037a18b938b2" target="_top" xlink:title=" ">
<polygon fill="white" stroke="#666666" points="272,-51 154,-51 154,-21 272,-21 272,-51"/>
<text text-anchor="start" x="162" y="-39" font-family="Helvetica,sans-Serif" font-size="10.00">lci::register_memory</text>
<text text-anchor="middle" x="213" y="-28" font-family="Helvetica,sans-Serif" font-size="10.00">_x::call</text>
</a>
</g>
</g>
<!-- Node1&#45;&gt;Node2 -->
<g id="edge1_Node000001_Node000002" class="edge">
<title>Node1&#45;&gt;Node2</title>
<g id="a_edge1_Node000001_Node000002"><a xlink:title=" ">
<path fill="none" stroke="#63b8ff" d="M451.74,-38.43C443.08,-38.67 434.33,-38.87 426,-39 373.56,-39.84 360.44,-39.84 308,-39 296.41,-38.82 284.02,-38.5 272.16,-38.15"/>
<polygon fill="#63b8ff" stroke="#63b8ff" points="451.94,-41.93 461.84,-38.15 451.74,-34.93 451.94,-41.93"/>
</a>
</g>
</g>
<!-- Node5 -->
<g id="Node000005" class="node">
<title>Node5</title>
<g id="a_Node000005"><a xlink:href="../../d0/d73/classlci_1_1register__memory__x.html#a396a39298e09cb152edfed607dfe2041" target="_top" xlink:title=" ">
<polygon fill="white" stroke="#666666" points="426,-30 308,-30 308,0 426,0 426,-30"/>
<text text-anchor="start" x="316" y="-18" font-family="Helvetica,sans-Serif" font-size="10.00">lci::register_memory</text>
<text text-anchor="middle" x="367" y="-7" font-family="Helvetica,sans-Serif" font-size="10.00">_x::call_impl</text>
</a>
</g>
</g>
<!-- Node1&#45;&gt;Node5 -->
<g id="edge4_Node000001_Node000005" class="edge">
<title>Node1&#45;&gt;Node5</title>
<g id="a_edge4_Node000001_Node000005"><a xlink:title=" ">
<path fill="none" stroke="#63b8ff" d="M451.74,-26.57C443.2,-25.39 434.54,-24.19 426.18,-23.04"/>
<polygon fill="#63b8ff" stroke="#63b8ff" points="451.28,-30.04 461.67,-27.94 452.24,-23.11 451.28,-30.04"/>
</a>
</g>
</g>
<!-- Node3 -->
<g id="Node000003" class="node">
<title>Node3</title>
<g id="a_Node000003"><a xlink:href="../../d0/d73/classlci_1_1register__memory__x.html#abcc6bc37b2b399b44529a56aae8fe354" target="_top" xlink:title=" ">
<polygon fill="white" stroke="#666666" points="118,-73 0,-73 0,-43 118,-43 118,-73"/>
<text text-anchor="start" x="8" y="-61" font-family="Helvetica,sans-Serif" font-size="10.00">lci::register_memory</text>
<text text-anchor="middle" x="59" y="-50" font-family="Helvetica,sans-Serif" font-size="10.00">_x::operator()</text>
</a>
</g>
</g>
<!-- Node2&#45;&gt;Node3 -->
<g id="edge2_Node000002_Node000003" class="edge">
<title>Node2&#45;&gt;Node3</title>
<g id="a_edge2_Node000002_Node000003"><a xlink:title=" ">
<path fill="none" stroke="#63b8ff" d="M143.74,-45.88C135.2,-47.12 126.54,-48.37 118.18,-49.58"/>
<polygon fill="#63b8ff" stroke="#63b8ff" points="144.27,-49.34 153.67,-44.44 143.27,-42.41 144.27,-49.34"/>
</a>
</g>
</g>
<!-- Node4 -->
<g id="Node000004" class="node">
<title>Node4</title>
<g id="a_Node000004"><a xlink:href="../../d5/dd3/namespacelci.html#aaf51f7172447f6fb23b5f98f6e124ff9" target="_top" xlink:title=" ">
<polygon fill="white" stroke="#666666" points="118,-24.5 0,-24.5 0,-5.5 118,-5.5 118,-24.5"/>
<text text-anchor="middle" x="59" y="-12.5" font-family="Helvetica,sans-Serif" font-size="10.00">lci::register_memory</text>
</a>
</g>
</g>
<!-- Node2&#45;&gt;Node4 -->
<g id="edge3_Node000002_Node000004" class="edge">
<title>Node2&#45;&gt;Node4</title>
<g id="a_edge3_Node000002_Node000004"><a xlink:title=" ">
<path fill="none" stroke="#63b8ff" d="M143.74,-26.57C135.2,-25.39 126.54,-24.19 118.18,-23.04"/>
<polygon fill="#63b8ff" stroke="#63b8ff" points="143.28,-30.04 153.67,-27.94 144.24,-23.11 143.28,-30.04"/>
</a>
</g>
</g>
<!-- Node5&#45;&gt;Node2 -->
<g id="edge5_Node000005_Node000002" class="edge">
<title>Node5&#45;&gt;Node2</title>
<g id="a_edge5_Node000005_Node000002"><a xlink:title=" ">
<path fill="none" stroke="#63b8ff" d="M297.74,-24.43C289.2,-25.61 280.54,-26.81 272.18,-27.96"/>
<polygon fill="#63b8ff" stroke="#63b8ff" points="298.24,-27.89 307.67,-23.06 297.28,-20.96 298.24,-27.89"/>
</a>
</g>
</g>
</g>
</svg>
