<?xml version="1.0" encoding="UTF-8" standalone="no"?>
<!DOCTYPE svg PUBLIC "-//W3C//DTD SVG 1.1//EN"
 "http://www.w3.org/Graphics/SVG/1.1/DTD/svg11.dtd">
<!-- Generated by graphviz version 2.43.0 (0)
 -->
<!-- Title: lci::free_matching_engine_x::operator() Pages: 1 -->
<svg width="754pt" height="98pt"
 viewBox="0.00 0.00 754.00 97.50" xmlns="http://www.w3.org/2000/svg" xmlns:xlink="http://www.w3.org/1999/xlink">
<g id="graph0" class="graph" transform="scale(1 1) rotate(0) translate(4 93.5)">
<title>lci::free_matching_engine_x::operator()</title>
<!-- Node1 -->
<g id="Node000001" class="node">
<title>Node1</title>
<g id="a_Node000001"><a xlink:title=" ">
<polygon fill="#999999" stroke="#666666" points="121,-57 0,-57 0,-27 121,-27 121,-57"/>
<text text-anchor="start" x="8" y="-45" font-family="Helvetica,sans-Serif" font-size="10.00">lci::free_matching</text>
<text text-anchor="middle" x="60.5" y="-34" font-family="Helvetica,sans-Serif" font-size="10.00">_engine_x::operator()</text>
</a>
</g>
</g>
<!-- Node2 -->
<g id="Node000002" class="node">
<title>Node2</title>
<g id="a_Node000002"><a xlink:href="../../d3/ddc/classlci_1_1free__matching__engine__x.html#ad16ea9cbd5b3ef92621aff51935b404f" target="_top" xlink:title=" ">
<polygon fill="white" stroke="#666666" points="261,-57 157,-57 157,-27 261,-27 261,-57"/>
<text text-anchor="start" x="165" y="-45" font-family="Helvetica,sans-Serif" font-size="10.00">lci::free_matching</text>
<text text-anchor="middle" x="209" y="-34" font-family="Helvetica,sans-Serif" font-size="10.00">_engine_x::call</text>
</a>
</g>
</g>
<!-- Node1&#45;&gt;Node2 -->
<g id="edge1_Node000001_Node000002" class="edge">
<title>Node1&#45;&gt;Node2</title>
<g id="a_edge1_Node000001_Node000002"><a xlink:title=" ">
<path fill="none" stroke="#63b8ff" d="M121.09,-42C129.53,-42 138.23,-42 146.71,-42"/>
<polygon fill="#63b8ff" stroke="#63b8ff" points="146.92,-45.5 156.92,-42 146.92,-38.5 146.92,-45.5"/>
</a>
</g>
</g>
<!-- Node3 -->
<g id="Node000003" class="node">
<title>Node3</title>
<g id="a_Node000003"><a xlink:href="../../d3/ddc/classlci_1_1free__matching__engine__x.html#a2a5ca7abee7278740c94701904fe8ef2" target="_top" xlink:title=" ">
<polygon fill="white" stroke="#666666" points="413,-57 297,-57 297,-27 413,-27 413,-57"/>
<text text-anchor="start" x="305" y="-45" font-family="Helvetica,sans-Serif" font-size="10.00">lci::free_matching</text>
<text text-anchor="middle" x="355" y="-34" font-family="Helvetica,sans-Serif" font-size="10.00">_engine_x::call_impl</text>
</a>
</g>
</g>
<!-- Node2&#45;&gt;Node3 -->
<g id="edge2_Node000002_Node000003" class="edge">
<title>Node2&#45;&gt;Node3</title>
<g id="a_edge2_Node000002_Node000003"><a xlink:title=" ">
<path fill="none" stroke="#63b8ff" d="M261.17,-42C269.34,-42 277.89,-42 286.36,-42"/>
<polygon fill="#63b8ff" stroke="#63b8ff" points="286.62,-45.5 296.62,-42 286.62,-38.5 286.62,-45.5"/>
</a>
</g>
</g>
<!-- Node4 -->
<g id="Node000004" class="node">
<title>Node4</title>
<g id="a_Node000004"><a xlink:href="../../d3/ddc/classlci_1_1free__matching__engine__x.html#a46a1ed7d273c9e53193d7a53fddb8252" target="_top" xlink:title=" ">
<polygon fill="white" stroke="#666666" points="567,-89.5 449,-89.5 449,-48.5 567,-48.5 567,-89.5"/>
<text text-anchor="start" x="457" y="-77.5" font-family="Helvetica,sans-Serif" font-size="10.00">lci::free_matching</text>
<text text-anchor="start" x="457" y="-66.5" font-family="Helvetica,sans-Serif" font-size="10.00">_engine_x::matching</text>
<text text-anchor="middle" x="508" y="-55.5" font-family="Helvetica,sans-Serif" font-size="10.00">_engine</text>
</a>
</g>
</g>
<!-- Node2&#45;&gt;Node4 -->
<g id="edge7_Node000002_Node000004" class="edge">
<title>Node2&#45;&gt;Node4</title>
<g id="a_edge7_Node000002_Node000004"><a xlink:title=" ">
<path fill="none" stroke="#63b8ff" d="M256.04,-57.05C269.13,-60.69 283.51,-64.07 297,-66 343.92,-72.69 397.33,-73.36 438.55,-72.4"/>
<polygon fill="#63b8ff" stroke="#63b8ff" points="438.85,-75.89 448.75,-72.12 438.66,-68.9 438.85,-75.89"/>
</a>
</g>
</g>
<!-- Node6 -->
<g id="Node000006" class="node">
<title>Node6</title>
<g id="a_Node000006"><a xlink:href="../../d3/ddc/classlci_1_1free__matching__engine__x.html#add2948fd34a2752a6fe328b8a03ffdb0" target="_top" xlink:title=" ">
<polygon fill="white" stroke="#666666" points="563,-30 453,-30 453,0 563,0 563,-30"/>
<text text-anchor="start" x="461" y="-18" font-family="Helvetica,sans-Serif" font-size="10.00">lci::free_matching</text>
<text text-anchor="middle" x="508" y="-7" font-family="Helvetica,sans-Serif" font-size="10.00">_engine_x::runtime</text>
</a>
</g>
</g>
<!-- Node2&#45;&gt;Node6 -->
<g id="edge8_Node000002_Node000006" class="edge">
<title>Node2&#45;&gt;Node6</title>
<g id="a_edge8_Node000002_Node000006"><a xlink:title=" ">
<path fill="none" stroke="#63b8ff" d="M256.04,-26.95C269.13,-23.31 283.51,-19.93 297,-18 345.52,-11.08 400.98,-10.6 442.72,-11.7"/>
<polygon fill="#63b8ff" stroke="#63b8ff" points="442.65,-15.2 452.75,-12.01 442.87,-8.21 442.65,-15.2"/>
</a>
</g>
</g>
<!-- Node3&#45;&gt;Node4 -->
<g id="edge3_Node000003_Node000004" class="edge">
<title>Node3&#45;&gt;Node4</title>
<g id="a_edge3_Node000003_Node000004"><a xlink:title=" ">
<path fill="none" stroke="#63b8ff" d="M413.09,-52.21C421.49,-53.71 430.22,-55.27 438.82,-56.81"/>
<polygon fill="#63b8ff" stroke="#63b8ff" points="438.37,-60.28 448.83,-58.6 439.6,-53.39 438.37,-60.28"/>
</a>
</g>
</g>
<!-- Node3&#45;&gt;Node6 -->
<g id="edge5_Node000003_Node000006" class="edge">
<title>Node3&#45;&gt;Node6</title>
<g id="a_edge5_Node000003_Node000006"><a xlink:title=" ">
<path fill="none" stroke="#63b8ff" d="M413.09,-31.79C422.76,-30.06 432.86,-28.26 442.69,-26.5"/>
<polygon fill="#63b8ff" stroke="#63b8ff" points="443.6,-29.89 452.83,-24.69 442.37,-23 443.6,-29.89"/>
</a>
</g>
</g>
<!-- Node5 -->
<g id="Node000005" class="node">
<title>Node5</title>
<g id="a_Node000005"><a xlink:href="../../d3/ddc/classlci_1_1free__matching__engine__x.html#a8be2679816d249b3b56b0fed7abf316a" target="_top" xlink:title=" ">
<polygon fill="white" stroke="#666666" points="746,-62.5 603,-62.5 603,-21.5 746,-21.5 746,-62.5"/>
<text text-anchor="start" x="611" y="-50.5" font-family="Helvetica,sans-Serif" font-size="10.00">lci::free_matching</text>
<text text-anchor="start" x="611" y="-39.5" font-family="Helvetica,sans-Serif" font-size="10.00">_engine_x::free_matching</text>
<text text-anchor="middle" x="674.5" y="-28.5" font-family="Helvetica,sans-Serif" font-size="10.00">_engine_x</text>
</a>
</g>
</g>
<!-- Node4&#45;&gt;Node5 -->
<g id="edge4_Node000004_Node000005" class="edge">
<title>Node4&#45;&gt;Node5</title>
<g id="a_edge4_Node000004_Node000005"><a xlink:title=" ">
<path fill="none" stroke="#63b8ff" d="M567.46,-59.4C575.69,-58.05 584.27,-56.65 592.82,-55.24"/>
<polygon fill="#63b8ff" stroke="#63b8ff" points="593.53,-58.67 602.83,-53.6 592.4,-51.76 593.53,-58.67"/>
</a>
</g>
</g>
<!-- Node6&#45;&gt;Node5 -->
<g id="edge6_Node000006_Node000005" class="edge">
<title>Node6&#45;&gt;Node5</title>
<g id="a_edge6_Node000006_Node000005"><a xlink:title=" ">
<path fill="none" stroke="#63b8ff" d="M563.32,-23.92C572.79,-25.47 582.83,-27.12 592.84,-28.76"/>
<polygon fill="#63b8ff" stroke="#63b8ff" points="592.37,-32.23 602.81,-30.4 593.51,-25.32 592.37,-32.23"/>
</a>
</g>
</g>
</g>
</svg>
