<?xml version="1.0" encoding="UTF-8" standalone="no"?>
<!DOCTYPE svg PUBLIC "-//W3C//DTD SVG 1.1//EN"
 "http://www.w3.org/Graphics/SVG/1.1/DTD/svg11.dtd">
<!-- Generated by graphviz version 2.43.0 (0)
 -->
<!-- Title: lci::free_matching_engine_x::call_impl Pages: 1 -->
<svg width="457pt" height="98pt"
 viewBox="0.00 0.00 457.00 97.50" xmlns="http://www.w3.org/2000/svg" xmlns:xlink="http://www.w3.org/1999/xlink">
<g id="graph0" class="graph" transform="scale(1 1) rotate(0) translate(4 93.5)">
<title>lci::free_matching_engine_x::call_impl</title>
<!-- Node1 -->
<g id="Node000001" class="node">
<title>Node1</title>
<g id="a_Node000001"><a xlink:title=" ">
<polygon fill="#999999" stroke="#666666" points="116,-57 0,-57 0,-27 116,-27 116,-57"/>
<text text-anchor="start" x="8" y="-45" font-family="Helvetica,sans-Serif" font-size="10.00">lci::free_matching</text>
<text text-anchor="middle" x="58" y="-34" font-family="Helvetica,sans-Serif" font-size="10.00">_engine_x::call_impl</text>
</a>
</g>
</g>
<!-- Node2 -->
<g id="Node000002" class="node">
<title>Node2</title>
<g id="a_Node000002"><a xlink:href="../../d3/ddc/classlci_1_1free__matching__engine__x.html#a46a1ed7d273c9e53193d7a53fddb8252" target="_top" xlink:title=" ">
<polygon fill="white" stroke="#666666" points="270,-89.5 152,-89.5 152,-48.5 270,-48.5 270,-89.5"/>
<text text-anchor="start" x="160" y="-77.5" font-family="Helvetica,sans-Serif" font-size="10.00">lci::free_matching</text>
<text text-anchor="start" x="160" y="-66.5" font-family="Helvetica,sans-Serif" font-size="10.00">_engine_x::matching</text>
<text text-anchor="middle" x="211" y="-55.5" font-family="Helvetica,sans-Serif" font-size="10.00">_engine</text>
</a>
</g>
</g>
<!-- Node1&#45;&gt;Node2 -->
<g id="edge1_Node000001_Node000002" class="edge">
<title>Node1&#45;&gt;Node2</title>
<g id="a_edge1_Node000001_Node000002"><a xlink:title=" ">
<path fill="none" stroke="#63b8ff" d="M116.09,-52.21C124.49,-53.71 133.22,-55.27 141.82,-56.81"/>
<polygon fill="#63b8ff" stroke="#63b8ff" points="141.37,-60.28 151.83,-58.6 142.6,-53.39 141.37,-60.28"/>
</a>
</g>
</g>
<!-- Node4 -->
<g id="Node000004" class="node">
<title>Node4</title>
<g id="a_Node000004"><a xlink:href="../../d3/ddc/classlci_1_1free__matching__engine__x.html#add2948fd34a2752a6fe328b8a03ffdb0" target="_top" xlink:title=" ">
<polygon fill="white" stroke="#666666" points="266,-30 156,-30 156,0 266,0 266,-30"/>
<text text-anchor="start" x="164" y="-18" font-family="Helvetica,sans-Serif" font-size="10.00">lci::free_matching</text>
<text text-anchor="middle" x="211" y="-7" font-family="Helvetica,sans-Serif" font-size="10.00">_engine_x::runtime</text>
</a>
</g>
</g>
<!-- Node1&#45;&gt;Node4 -->
<g id="edge3_Node000001_Node000004" class="edge">
<title>Node1&#45;&gt;Node4</title>
<g id="a_edge3_Node000001_Node000004"><a xlink:title=" ">
<path fill="none" stroke="#63b8ff" d="M116.09,-31.79C125.76,-30.06 135.86,-28.26 145.69,-26.5"/>
<polygon fill="#63b8ff" stroke="#63b8ff" points="146.6,-29.89 155.83,-24.69 145.37,-23 146.6,-29.89"/>
</a>
</g>
</g>
<!-- Node3 -->
<g id="Node000003" class="node">
<title>Node3</title>
<g id="a_Node000003"><a xlink:href="../../d3/ddc/classlci_1_1free__matching__engine__x.html#a8be2679816d249b3b56b0fed7abf316a" target="_top" xlink:title=" ">
<polygon fill="white" stroke="#666666" points="449,-62.5 306,-62.5 306,-21.5 449,-21.5 449,-62.5"/>
<text text-anchor="start" x="314" y="-50.5" font-family="Helvetica,sans-Serif" font-size="10.00">lci::free_matching</text>
<text text-anchor="start" x="314" y="-39.5" font-family="Helvetica,sans-Serif" font-size="10.00">_engine_x::free_matching</text>
<text text-anchor="middle" x="377.5" y="-28.5" font-family="Helvetica,sans-Serif" font-size="10.00">_engine_x</text>
</a>
</g>
</g>
<!-- Node2&#45;&gt;Node3 -->
<g id="edge2_Node000002_Node000003" class="edge">
<title>Node2&#45;&gt;Node3</title>
<g id="a_edge2_Node000002_Node000003"><a xlink:title=" ">
<path fill="none" stroke="#63b8ff" d="M270.46,-59.4C278.69,-58.05 287.27,-56.65 295.82,-55.24"/>
<polygon fill="#63b8ff" stroke="#63b8ff" points="296.53,-58.67 305.83,-53.6 295.4,-51.76 296.53,-58.67"/>
</a>
</g>
</g>
<!-- Node4&#45;&gt;Node3 -->
<g id="edge4_Node000004_Node000003" class="edge">
<title>Node4&#45;&gt;Node3</title>
<g id="a_edge4_Node000004_Node000003"><a xlink:title=" ">
<path fill="none" stroke="#63b8ff" d="M266.32,-23.92C275.79,-25.47 285.83,-27.12 295.84,-28.76"/>
<polygon fill="#63b8ff" stroke="#63b8ff" points="295.37,-32.23 305.81,-30.4 296.51,-25.32 295.37,-32.23"/>
</a>
</g>
</g>
</g>
</svg>
