<?xml version="1.0" encoding="UTF-8" standalone="no"?>
<!DOCTYPE svg PUBLIC "-//W3C//DTD SVG 1.1//EN"
 "http://www.w3.org/Graphics/SVG/1.1/DTD/svg11.dtd">
<!-- Generated by graphviz version 2.43.0 (0)
 -->
<!-- Title: lci::post_comm_x::post_comm_x Pages: 1 -->
<svg width="891pt" height="988pt"
 viewBox="0.00 0.00 891.00 988.41" xmlns="http://www.w3.org/2000/svg" xmlns:xlink="http://www.w3.org/1999/xlink">
<g id="graph0" class="graph" transform="scale(1 1) rotate(0) translate(4 984.41)">
<title>lci::post_comm_x::post_comm_x</title>
<!-- Node1 -->
<g id="Node000001" class="node">
<title>Node1</title>
<g id="a_Node000001"><a xlink:title=" ">
<polygon fill="#999999" stroke="#666666" points="883,-490.91 754,-490.91 754,-460.91 883,-460.91 883,-490.91"/>
<text text-anchor="start" x="762" y="-478.91" font-family="Helvetica,sans-Serif" font-size="10.00">lci::post_comm_x::post</text>
<text text-anchor="middle" x="818.5" y="-467.91" font-family="Helvetica,sans-Serif" font-size="10.00">_comm_x</text>
</a>
</g>
</g>
<!-- Node2 -->
<g id="Node000002" class="node">
<title>Node2</title>
<g id="a_Node000002"><a xlink:href="../../d8/d48/classlci_1_1post__comm__x.html#a9d02814a94c01ec00d6dc0bca83d3f1e" target="_top" xlink:title=" ">
<polygon fill="white" stroke="#666666" points="712,-980.41 548,-980.41 548,-961.41 712,-961.41 712,-980.41"/>
<text text-anchor="middle" x="630" y="-968.41" font-family="Helvetica,sans-Serif" font-size="10.00">lci::post_comm_x::allow_done</text>
</a>
</g>
</g>
<!-- Node1&#45;&gt;Node2 -->
<g id="edge1_Node000001_Node000002" class="edge">
<title>Node1&#45;&gt;Node2</title>
<g id="a_edge1_Node000001_Node000002"><a xlink:title=" ">
<path fill="none" stroke="#63b8ff" d="M815.76,-501.22C809.13,-590.2 782.47,-886.86 718,-951.91 714.3,-955.64 710.05,-958.72 705.46,-961.25"/>
<polygon fill="#63b8ff" stroke="#63b8ff" points="819.25,-501.42 816.49,-491.2 812.27,-500.92 819.25,-501.42"/>
</a>
</g>
</g>
<!-- Node7 -->
<g id="Node000007" class="node">
<title>Node7</title>
<g id="a_Node000007"><a xlink:href="../../d8/d48/classlci_1_1post__comm__x.html#ae3d784bab8848569e70f6caa5d0d3c9d" target="_top" xlink:title=" ">
<polygon fill="white" stroke="#666666" points="697,-942.91 563,-942.91 563,-912.91 697,-912.91 697,-942.91"/>
<text text-anchor="start" x="571" y="-930.91" font-family="Helvetica,sans-Serif" font-size="10.00">lci::post_comm_x::allow</text>
<text text-anchor="middle" x="630" y="-919.91" font-family="Helvetica,sans-Serif" font-size="10.00">_posted</text>
</a>
</g>
</g>
<!-- Node1&#45;&gt;Node7 -->
<g id="edge7_Node000001_Node000007" class="edge">
<title>Node1&#45;&gt;Node7</title>
<g id="a_edge7_Node000001_Node000007"><a xlink:title=" ">
<path fill="none" stroke="#63b8ff" d="M815.01,-500.95C806.33,-583.43 774.76,-844.79 718,-903.91 712.14,-910.01 704.88,-914.61 697.08,-918.06"/>
<polygon fill="#63b8ff" stroke="#63b8ff" points="818.5,-501.26 816.05,-490.95 811.54,-500.54 818.5,-501.26"/>
</a>
</g>
</g>
<!-- Node8 -->
<g id="Node000008" class="node">
<title>Node8</title>
<g id="a_Node000008"><a xlink:href="../../d8/d48/classlci_1_1post__comm__x.html#af2e9941ebbea16b2eaf5e1971b7c0e2a" target="_top" xlink:title=" ">
<polygon fill="white" stroke="#666666" points="697,-894.91 563,-894.91 563,-864.91 697,-864.91 697,-894.91"/>
<text text-anchor="start" x="571" y="-882.91" font-family="Helvetica,sans-Serif" font-size="10.00">lci::post_comm_x::allow</text>
<text text-anchor="middle" x="630" y="-871.91" font-family="Helvetica,sans-Serif" font-size="10.00">_retry</text>
</a>
</g>
</g>
<!-- Node1&#45;&gt;Node8 -->
<g id="edge10_Node000001_Node000008" class="edge">
<title>Node1&#45;&gt;Node8</title>
<g id="a_edge10_Node000001_Node000008"><a xlink:title=" ">
<path fill="none" stroke="#63b8ff" d="M814.2,-501.09C803.72,-577.47 768.8,-804.45 718,-855.91 712.17,-861.82 705.02,-866.31 697.35,-869.72"/>
<polygon fill="#63b8ff" stroke="#63b8ff" points="817.7,-501.33 815.57,-490.96 810.77,-500.4 817.7,-501.33"/>
</a>
</g>
</g>
<!-- Node9 -->
<g id="Node000009" class="node">
<title>Node9</title>
<g id="a_Node000009"><a xlink:href="../../d8/d48/classlci_1_1post__comm__x.html#afb8fa49b57ef32da67e8686b33eca31a" target="_top" xlink:title=" ">
<polygon fill="white" stroke="#666666" points="701,-846.41 559,-846.41 559,-827.41 701,-827.41 701,-846.41"/>
<text text-anchor="middle" x="630" y="-834.41" font-family="Helvetica,sans-Serif" font-size="10.00">lci::post_comm_x::buffers</text>
</a>
</g>
</g>
<!-- Node1&#45;&gt;Node9 -->
<g id="edge13_Node000001_Node000009" class="edge">
<title>Node1&#45;&gt;Node9</title>
<g id="a_edge13_Node000001_Node000009"><a xlink:title=" ">
<path fill="none" stroke="#63b8ff" d="M818.26,-501.19C818.69,-564.6 810.51,-731.5 718,-817.91 713.14,-822.45 707.46,-826 701.37,-828.76"/>
<polygon fill="#63b8ff" stroke="#63b8ff" points="821.75,-500.87 818.1,-490.93 814.75,-500.98 821.75,-500.87"/>
</a>
</g>
</g>
<!-- Node10 -->
<g id="Node000010" class="node">
<title>Node10</title>
<g id="a_Node000010"><a xlink:href="../../d8/d48/classlci_1_1post__comm__x.html#ae7b576a0cfbce10d5b9d83f3df130397" target="_top" xlink:title=" ">
<polygon fill="white" stroke="#666666" points="697.5,-808.91 562.5,-808.91 562.5,-778.91 697.5,-778.91 697.5,-808.91"/>
<text text-anchor="start" x="570.5" y="-796.91" font-family="Helvetica,sans-Serif" font-size="10.00">lci::post_comm_x::comp</text>
<text text-anchor="middle" x="630" y="-785.91" font-family="Helvetica,sans-Serif" font-size="10.00">_semantic</text>
</a>
</g>
</g>
<!-- Node1&#45;&gt;Node10 -->
<g id="edge16_Node000001_Node000010" class="edge">
<title>Node1&#45;&gt;Node10</title>
<g id="a_edge16_Node000001_Node000010"><a xlink:title=" ">
<path fill="none" stroke="#63b8ff" d="M816.56,-501.21C813.04,-557.88 796.41,-695.86 718,-769.91 712.19,-775.4 705.24,-779.65 697.84,-782.94"/>
<polygon fill="#63b8ff" stroke="#63b8ff" points="820.06,-501.17 817.1,-491 813.07,-500.8 820.06,-501.17"/>
</a>
</g>
</g>
<!-- Node11 -->
<g id="Node000011" class="node">
<title>Node11</title>
<g id="a_Node000011"><a xlink:href="../../d8/d48/classlci_1_1post__comm__x.html#aeba95544c83eb0d890dbba7bc3216629" target="_top" xlink:title=" ">
<polygon fill="white" stroke="#666666" points="700,-760.41 560,-760.41 560,-741.41 700,-741.41 700,-760.41"/>
<text text-anchor="middle" x="630" y="-748.41" font-family="Helvetica,sans-Serif" font-size="10.00">lci::post_comm_x::device</text>
</a>
</g>
</g>
<!-- Node1&#45;&gt;Node11 -->
<g id="edge19_Node000001_Node000011" class="edge">
<title>Node1&#45;&gt;Node11</title>
<g id="a_edge19_Node000001_Node000011"><a xlink:title=" ">
<path fill="none" stroke="#63b8ff" d="M815.5,-501.24C809.98,-553.22 789.75,-672.14 718,-732.91 712.7,-737.4 706.58,-740.86 700.09,-743.53"/>
<polygon fill="#63b8ff" stroke="#63b8ff" points="818.99,-501.5 816.47,-491.21 812.03,-500.83 818.99,-501.5"/>
</a>
</g>
</g>
<!-- Node12 -->
<g id="Node000012" class="node">
<title>Node12</title>
<g id="a_Node000012"><a xlink:href="../../d8/d48/classlci_1_1post__comm__x.html#acff8c179998df3f0403b417e0e21bb6c" target="_top" xlink:title=" ">
<polygon fill="white" stroke="#666666" points="705.5,-723.41 554.5,-723.41 554.5,-704.41 705.5,-704.41 705.5,-723.41"/>
<text text-anchor="middle" x="630" y="-711.41" font-family="Helvetica,sans-Serif" font-size="10.00">lci::post_comm_x::direction</text>
</a>
</g>
</g>
<!-- Node1&#45;&gt;Node12 -->
<g id="edge22_Node000001_Node000012" class="edge">
<title>Node1&#45;&gt;Node12</title>
<g id="a_edge22_Node000001_Node000012"><a xlink:title=" ">
<path fill="none" stroke="#63b8ff" d="M813.69,-501.12C805.29,-547.39 780.71,-645.71 718,-695.91 713.79,-699.28 709.1,-702.07 704.14,-704.37"/>
<polygon fill="#63b8ff" stroke="#63b8ff" points="817.17,-501.49 815.4,-491.05 810.27,-500.31 817.17,-501.49"/>
</a>
</g>
</g>
<!-- Node13 -->
<g id="Node000013" class="node">
<title>Node13</title>
<g id="a_Node000013"><a xlink:href="../../d8/d48/classlci_1_1post__comm__x.html#ae0c9922b3e26b41b2233e1ad7c544285" target="_top" xlink:title=" ">
<polygon fill="white" stroke="#666666" points="705.5,-686.41 554.5,-686.41 554.5,-667.41 705.5,-667.41 705.5,-686.41"/>
<text text-anchor="middle" x="630" y="-674.41" font-family="Helvetica,sans-Serif" font-size="10.00">lci::post_comm_x::endpoint</text>
</a>
</g>
</g>
<!-- Node1&#45;&gt;Node13 -->
<g id="edge25_Node000001_Node000013" class="edge">
<title>Node1&#45;&gt;Node13</title>
<g id="a_edge25_Node000001_Node000013"><a xlink:title=" ">
<path fill="none" stroke="#63b8ff" d="M811.17,-500.65C799.67,-540.36 771.45,-617.89 718,-657.91 712.93,-661.71 707.25,-664.78 701.28,-667.26"/>
<polygon fill="#63b8ff" stroke="#63b8ff" points="814.56,-501.54 813.86,-490.97 807.81,-499.67 814.56,-501.54"/>
</a>
</g>
</g>
<!-- Node14 -->
<g id="Node000014" class="node">
<title>Node14</title>
<g id="a_Node000014"><a xlink:href="../../d8/d48/classlci_1_1post__comm__x.html#ab8750ce06a3cd00c64d39ad5315827e2" target="_top" xlink:title=" ">
<polygon fill="white" stroke="#666666" points="696.5,-648.91 563.5,-648.91 563.5,-618.91 696.5,-618.91 696.5,-648.91"/>
<text text-anchor="start" x="571.5" y="-636.91" font-family="Helvetica,sans-Serif" font-size="10.00">lci::post_comm_x::force</text>
<text text-anchor="middle" x="630" y="-625.91" font-family="Helvetica,sans-Serif" font-size="10.00">_zcopy</text>
</a>
</g>
</g>
<!-- Node1&#45;&gt;Node14 -->
<g id="edge28_Node000001_Node000014" class="edge">
<title>Node1&#45;&gt;Node14</title>
<g id="a_edge28_Node000001_Node000014"><a xlink:title=" ">
<path fill="none" stroke="#63b8ff" d="M806.01,-499.97C790.35,-530.2 759.41,-581.54 718,-609.91 711.54,-614.34 704.28,-617.95 696.79,-620.9"/>
<polygon fill="#63b8ff" stroke="#63b8ff" points="809.18,-501.46 810.56,-490.95 802.93,-498.31 809.18,-501.46"/>
</a>
</g>
</g>
<!-- Node15 -->
<g id="Node000015" class="node">
<title>Node15</title>
<g id="a_Node000015"><a xlink:href="../../d8/d48/classlci_1_1post__comm__x.html#a5fbebcb64ab56a952dee33be796101b5" target="_top" xlink:title=" ">
<polygon fill="white" stroke="#666666" points="695.5,-600.91 564.5,-600.91 564.5,-570.91 695.5,-570.91 695.5,-600.91"/>
<text text-anchor="start" x="572.5" y="-588.91" font-family="Helvetica,sans-Serif" font-size="10.00">lci::post_comm_x::local</text>
<text text-anchor="middle" x="630" y="-577.91" font-family="Helvetica,sans-Serif" font-size="10.00">_buffer</text>
</a>
</g>
</g>
<!-- Node1&#45;&gt;Node15 -->
<g id="edge31_Node000001_Node000015" class="edge">
<title>Node1&#45;&gt;Node15</title>
<g id="a_edge31_Node000001_Node000015"><a xlink:title=" ">
<path fill="none" stroke="#63b8ff" d="M797.32,-498.24C778.57,-517.72 748.93,-545.37 718,-561.91 711.09,-565.6 703.56,-568.77 695.92,-571.47"/>
<polygon fill="#63b8ff" stroke="#63b8ff" points="799.88,-500.64 804.2,-490.96 794.79,-495.83 799.88,-500.64"/>
</a>
</g>
</g>
<!-- Node16 -->
<g id="Node000016" class="node">
<title>Node16</title>
<g id="a_Node000016"><a xlink:href="../../d8/d48/classlci_1_1post__comm__x.html#ac305197d2165dae6d99957db8a10b1ec" target="_top" xlink:title=" ">
<polygon fill="white" stroke="#666666" points="712,-552.41 548,-552.41 548,-533.41 712,-533.41 712,-552.41"/>
<text text-anchor="middle" x="630" y="-540.41" font-family="Helvetica,sans-Serif" font-size="10.00">lci::post_comm_x::local_comp</text>
</a>
</g>
</g>
<!-- Node1&#45;&gt;Node16 -->
<g id="edge34_Node000001_Node000016" class="edge">
<title>Node1&#45;&gt;Node16</title>
<g id="a_edge34_Node000001_Node000016"><a xlink:title=" ">
<path fill="none" stroke="#63b8ff" d="M781.8,-495.65C763.22,-505.27 739.87,-516.37 718,-523.91 707.33,-527.59 695.67,-530.72 684.46,-533.31"/>
<polygon fill="#63b8ff" stroke="#63b8ff" points="783.56,-498.68 790.78,-490.93 780.3,-492.49 783.56,-498.68"/>
</a>
</g>
</g>
<!-- Node17 -->
<g id="Node000017" class="node">
<title>Node17</title>
<g id="a_Node000017"><a xlink:href="../../d8/d48/classlci_1_1post__comm__x.html#a3b0aeb006ad6399eead4c36de986bfe9" target="_top" xlink:title=" ">
<polygon fill="white" stroke="#666666" points="707,-514.91 553,-514.91 553,-484.91 707,-484.91 707,-514.91"/>
<text text-anchor="start" x="561" y="-502.91" font-family="Helvetica,sans-Serif" font-size="10.00">lci::post_comm_x::matching</text>
<text text-anchor="middle" x="630" y="-491.91" font-family="Helvetica,sans-Serif" font-size="10.00">_engine</text>
</a>
</g>
</g>
<!-- Node1&#45;&gt;Node17 -->
<g id="edge37_Node000001_Node000017" class="edge">
<title>Node1&#45;&gt;Node17</title>
<g id="a_edge37_Node000001_Node000017"><a xlink:title=" ">
<path fill="none" stroke="#63b8ff" d="M743.86,-485.39C731.83,-486.93 719.35,-488.54 707.26,-490.1"/>
<polygon fill="#63b8ff" stroke="#63b8ff" points="744.37,-488.85 753.84,-484.1 743.47,-481.91 744.37,-488.85"/>
</a>
</g>
</g>
<!-- Node18 -->
<g id="Node000018" class="node">
<title>Node18</title>
<g id="a_Node000018"><a xlink:href="../../d8/d48/classlci_1_1post__comm__x.html#af4a99ff113c37ad6618b8c0ead4961de" target="_top" xlink:title=" ">
<polygon fill="white" stroke="#666666" points="707,-466.91 553,-466.91 553,-436.91 707,-436.91 707,-466.91"/>
<text text-anchor="start" x="561" y="-454.91" font-family="Helvetica,sans-Serif" font-size="10.00">lci::post_comm_x::matching</text>
<text text-anchor="middle" x="630" y="-443.91" font-family="Helvetica,sans-Serif" font-size="10.00">_policy</text>
</a>
</g>
</g>
<!-- Node1&#45;&gt;Node18 -->
<g id="edge40_Node000001_Node000018" class="edge">
<title>Node1&#45;&gt;Node18</title>
<g id="a_edge40_Node000001_Node000018"><a xlink:title=" ">
<path fill="none" stroke="#63b8ff" d="M743.86,-466.43C731.83,-464.89 719.35,-463.28 707.26,-461.72"/>
<polygon fill="#63b8ff" stroke="#63b8ff" points="743.47,-469.91 753.84,-467.72 744.37,-462.97 743.47,-469.91"/>
</a>
</g>
</g>
<!-- Node19 -->
<g id="Node000019" class="node">
<title>Node19</title>
<g id="a_Node000019"><a xlink:href="../../d8/d48/classlci_1_1post__comm__x.html#acc7a3e0f3f2f3b4f60c1cbf721955430" target="_top" xlink:title=" ">
<polygon fill="white" stroke="#666666" points="691,-418.41 569,-418.41 569,-399.41 691,-399.41 691,-418.41"/>
<text text-anchor="middle" x="630" y="-406.41" font-family="Helvetica,sans-Serif" font-size="10.00">lci::post_comm_x::mr</text>
</a>
</g>
</g>
<!-- Node1&#45;&gt;Node19 -->
<g id="edge43_Node000001_Node000019" class="edge">
<title>Node1&#45;&gt;Node19</title>
<g id="a_edge43_Node000001_Node000019"><a xlink:title=" ">
<path fill="none" stroke="#63b8ff" d="M781.8,-456.17C763.22,-446.55 739.87,-435.46 718,-427.91 707.33,-424.23 695.67,-421.1 684.46,-418.51"/>
<polygon fill="#63b8ff" stroke="#63b8ff" points="780.3,-459.33 790.78,-460.89 783.56,-453.14 780.3,-459.33"/>
</a>
</g>
</g>
<!-- Node20 -->
<g id="Node000020" class="node">
<title>Node20</title>
<g id="a_Node000020"><a xlink:href="../../d8/d48/classlci_1_1post__comm__x.html#a97897d1d8d6b9536ed256043814d2326" target="_top" xlink:title=" ">
<polygon fill="white" stroke="#666666" points="713.5,-381.41 546.5,-381.41 546.5,-362.41 713.5,-362.41 713.5,-381.41"/>
<text text-anchor="middle" x="630" y="-369.41" font-family="Helvetica,sans-Serif" font-size="10.00">lci::post_comm_x::packet_pool</text>
</a>
</g>
</g>
<!-- Node1&#45;&gt;Node20 -->
<g id="edge46_Node000001_Node000020" class="edge">
<title>Node1&#45;&gt;Node20</title>
<g id="a_edge46_Node000001_Node000020"><a xlink:title=" ">
<path fill="none" stroke="#63b8ff" d="M797.23,-453.19C778.57,-433.69 749.12,-406.37 718,-390.91 710.25,-387.06 701.72,-383.98 693.13,-381.53"/>
<polygon fill="#63b8ff" stroke="#63b8ff" points="794.92,-455.84 804.31,-460.75 800.03,-451.05 794.92,-455.84"/>
</a>
</g>
</g>
<!-- Node21 -->
<g id="Node000021" class="node">
<title>Node21</title>
<g id="a_Node000021"><a xlink:href="../../d8/d48/classlci_1_1post__comm__x.html#a585bbb73afe075d1ee694782f3790ba3" target="_top" xlink:title=" ">
<polygon fill="white" stroke="#666666" points="695,-344.41 565,-344.41 565,-325.41 695,-325.41 695,-344.41"/>
<text text-anchor="middle" x="630" y="-332.41" font-family="Helvetica,sans-Serif" font-size="10.00">lci::post_comm_x::rank</text>
</a>
</g>
</g>
<!-- Node1&#45;&gt;Node21 -->
<g id="edge49_Node000001_Node000021" class="edge">
<title>Node1&#45;&gt;Node21</title>
<g id="a_edge49_Node000001_Node000021"><a xlink:title=" ">
<path fill="none" stroke="#63b8ff" d="M804.71,-451.99C788.41,-423.94 757.55,-378.2 718,-353.91 711.02,-349.62 703.2,-346.29 695.19,-343.71"/>
<polygon fill="#63b8ff" stroke="#63b8ff" points="801.7,-453.79 809.67,-460.77 807.79,-450.34 801.7,-453.79"/>
</a>
</g>
</g>
<!-- Node22 -->
<g id="Node000022" class="node">
<title>Node22</title>
<g id="a_Node000022"><a xlink:href="../../d8/d48/classlci_1_1post__comm__x.html#a93dcbd1dd8c9601aae5b1a790168fa7a" target="_top" xlink:title=" ">
<polygon fill="white" stroke="#666666" points="703,-307.41 557,-307.41 557,-288.41 703,-288.41 703,-307.41"/>
<text text-anchor="middle" x="630" y="-295.41" font-family="Helvetica,sans-Serif" font-size="10.00">lci::post_comm_x::rbuffers</text>
</a>
</g>
</g>
<!-- Node1&#45;&gt;Node22 -->
<g id="edge52_Node000001_Node000022" class="edge">
<title>Node1&#45;&gt;Node22</title>
<g id="a_edge52_Node000001_Node000022"><a xlink:title=" ">
<path fill="none" stroke="#63b8ff" d="M809.12,-451.24C795.72,-415.7 765.99,-350.69 718,-316.91 712.56,-313.08 706.5,-310.01 700.17,-307.54"/>
<polygon fill="#63b8ff" stroke="#63b8ff" points="805.9,-452.64 812.61,-460.84 812.48,-450.25 805.9,-452.64"/>
</a>
</g>
</g>
<!-- Node23 -->
<g id="Node000023" class="node">
<title>Node23</title>
<g id="a_Node000023"><a xlink:href="../../d8/d48/classlci_1_1post__comm__x.html#a7f19aac1efed9d92dc5455e3a9b2bb03" target="_top" xlink:title=" ">
<polygon fill="white" stroke="#666666" points="701.5,-269.91 558.5,-269.91 558.5,-239.91 701.5,-239.91 701.5,-269.91"/>
<text text-anchor="start" x="566.5" y="-257.91" font-family="Helvetica,sans-Serif" font-size="10.00">lci::post_comm_x::remote</text>
<text text-anchor="middle" x="630" y="-246.91" font-family="Helvetica,sans-Serif" font-size="10.00">_buffer</text>
</a>
</g>
</g>
<!-- Node1&#45;&gt;Node23 -->
<g id="edge55_Node000001_Node000023" class="edge">
<title>Node1&#45;&gt;Node23</title>
<g id="a_edge55_Node000001_Node000023"><a xlink:title=" ">
<path fill="none" stroke="#63b8ff" d="M811.74,-450.91C800.81,-409.18 773.08,-325.41 718,-279.91 713.03,-275.81 707.42,-272.38 701.51,-269.51"/>
<polygon fill="#63b8ff" stroke="#63b8ff" points="808.39,-451.95 814.22,-460.8 815.18,-450.25 808.39,-451.95"/>
</a>
</g>
</g>
<!-- Node24 -->
<g id="Node000024" class="node">
<title>Node24</title>
<g id="a_Node000024"><a xlink:href="../../d8/d48/classlci_1_1post__comm__x.html#a2e7b0182c47448aba2ac476d0515b204" target="_top" xlink:title=" ">
<polygon fill="white" stroke="#666666" points="718,-221.41 542,-221.41 542,-202.41 718,-202.41 718,-221.41"/>
<text text-anchor="middle" x="630" y="-209.41" font-family="Helvetica,sans-Serif" font-size="10.00">lci::post_comm_x::remote_comp</text>
</a>
</g>
</g>
<!-- Node1&#45;&gt;Node24 -->
<g id="edge58_Node000001_Node000024" class="edge">
<title>Node1&#45;&gt;Node24</title>
<g id="a_edge58_Node000001_Node000024"><a xlink:title=" ">
<path fill="none" stroke="#63b8ff" d="M814.92,-450.77C808.4,-400.75 786.53,-288.64 718,-230.91 713.51,-227.13 708.43,-224.05 703.04,-221.55"/>
<polygon fill="#63b8ff" stroke="#63b8ff" points="811.45,-451.22 816.13,-460.73 818.4,-450.38 811.45,-451.22"/>
</a>
</g>
</g>
<!-- Node25 -->
<g id="Node000025" class="node">
<title>Node25</title>
<g id="a_Node000025"><a xlink:href="../../d8/d48/classlci_1_1post__comm__x.html#a3a715f36e7bd1bd892825db30e47ddb1" target="_top" xlink:title=" ">
<polygon fill="white" stroke="#666666" points="694.5,-184.41 565.5,-184.41 565.5,-165.41 694.5,-165.41 694.5,-184.41"/>
<text text-anchor="middle" x="630" y="-172.41" font-family="Helvetica,sans-Serif" font-size="10.00">lci::post_comm_x::rkey</text>
</a>
</g>
</g>
<!-- Node1&#45;&gt;Node25 -->
<g id="edge61_Node000001_Node000025" class="edge">
<title>Node1&#45;&gt;Node25</title>
<g id="a_edge61_Node000001_Node000025"><a xlink:title=" ">
<path fill="none" stroke="#63b8ff" d="M816.43,-450.59C812.66,-395.12 795.55,-262.38 718,-193.91 711.28,-187.98 703.14,-183.75 694.56,-180.78"/>
<polygon fill="#63b8ff" stroke="#63b8ff" points="812.96,-451.13 817.04,-460.91 819.95,-450.72 812.96,-451.13"/>
</a>
</g>
</g>
<!-- Node26 -->
<g id="Node000026" class="node">
<title>Node26</title>
<g id="a_Node000026"><a xlink:href="../../d8/d48/classlci_1_1post__comm__x.html#a5e0a01b764e117c34c93ca67b4ac4ea1" target="_top" xlink:title=" ">
<polygon fill="white" stroke="#666666" points="703,-147.41 557,-147.41 557,-128.41 703,-128.41 703,-147.41"/>
<text text-anchor="middle" x="630" y="-135.41" font-family="Helvetica,sans-Serif" font-size="10.00">lci::post_comm_x::runtime</text>
</a>
</g>
</g>
<!-- Node1&#45;&gt;Node26 -->
<g id="edge64_Node000001_Node000026" class="edge">
<title>Node1&#45;&gt;Node26</title>
<g id="a_edge64_Node000001_Node000026"><a xlink:title=" ">
<path fill="none" stroke="#63b8ff" d="M817.63,-450.67C816.5,-390.25 804.78,-236.42 718,-156.91 713.67,-152.94 708.71,-149.73 703.4,-147.14"/>
<polygon fill="#63b8ff" stroke="#63b8ff" points="814.14,-450.86 817.74,-460.83 821.14,-450.79 814.14,-450.86"/>
</a>
</g>
</g>
<!-- Node27 -->
<g id="Node000027" class="node">
<title>Node27</title>
<g id="a_Node000027"><a xlink:href="../../d8/d48/classlci_1_1post__comm__x.html#ad5675593b1c63c632d12b4d829cfc17a" target="_top" xlink:title=" ">
<polygon fill="white" stroke="#666666" points="694,-110.41 566,-110.41 566,-91.41 694,-91.41 694,-110.41"/>
<text text-anchor="middle" x="630" y="-98.41" font-family="Helvetica,sans-Serif" font-size="10.00">lci::post_comm_x::size</text>
</a>
</g>
</g>
<!-- Node1&#45;&gt;Node27 -->
<g id="edge67_Node000001_Node000027" class="edge">
<title>Node1&#45;&gt;Node27</title>
<g id="a_edge67_Node000001_Node000027"><a xlink:title=" ">
<path fill="none" stroke="#63b8ff" d="M813.8,-450.26C802.63,-376.51 767.05,-166.21 718,-119.91 711.25,-113.54 702.89,-109.12 694.04,-106.07"/>
<polygon fill="#63b8ff" stroke="#63b8ff" points="810.39,-451.12 815.32,-460.5 817.31,-450.09 810.39,-451.12"/>
</a>
</g>
</g>
<!-- Node28 -->
<g id="Node000028" class="node">
<title>Node28</title>
<g id="a_Node000028"><a xlink:href="../../d8/d48/classlci_1_1post__comm__x.html#ac61d3e4ae9c78551510080c9080181af" target="_top" xlink:title=" ">
<polygon fill="white" stroke="#666666" points="692,-73.41 568,-73.41 568,-54.41 692,-54.41 692,-73.41"/>
<text text-anchor="middle" x="630" y="-61.41" font-family="Helvetica,sans-Serif" font-size="10.00">lci::post_comm_x::tag</text>
</a>
</g>
</g>
<!-- Node1&#45;&gt;Node28 -->
<g id="edge70_Node000001_Node000028" class="edge">
<title>Node1&#45;&gt;Node28</title>
<g id="a_edge70_Node000001_Node000028"><a xlink:title=" ">
<path fill="none" stroke="#63b8ff" d="M814.58,-450.76C804.97,-372.45 771.86,-135.03 718,-82.91 710.89,-76.03 701.9,-71.4 692.41,-68.33"/>
<polygon fill="#63b8ff" stroke="#63b8ff" points="811.11,-451.21 815.78,-460.72 818.06,-450.38 811.11,-451.21"/>
</a>
</g>
</g>
<!-- Node29 -->
<g id="Node000029" class="node">
<title>Node29</title>
<g id="a_Node000029"><a xlink:href="../../d8/d48/classlci_1_1post__comm__x.html#a77cf8049d80a743e5793fe1bfe47037b" target="_top" xlink:title=" ">
<polygon fill="white" stroke="#666666" points="694.5,-35.91 565.5,-35.91 565.5,-5.91 694.5,-5.91 694.5,-35.91"/>
<text text-anchor="start" x="573.5" y="-23.91" font-family="Helvetica,sans-Serif" font-size="10.00">lci::post_comm_x::user</text>
<text text-anchor="middle" x="630" y="-12.91" font-family="Helvetica,sans-Serif" font-size="10.00">_context</text>
</a>
</g>
</g>
<!-- Node1&#45;&gt;Node29 -->
<g id="edge73_Node000001_Node000029" class="edge">
<title>Node1&#45;&gt;Node29</title>
<g id="a_edge73_Node000001_Node000029"><a xlink:title=" ">
<path fill="none" stroke="#63b8ff" d="M815.04,-450.7C806.44,-367.64 775.09,-104.47 718,-44.91 711.6,-38.24 703.53,-33.37 694.9,-29.82"/>
<polygon fill="#63b8ff" stroke="#63b8ff" points="811.57,-451.17 816.06,-460.77 818.53,-450.46 811.57,-451.17"/>
</a>
</g>
</g>
<!-- Node3 -->
<g id="Node000003" class="node">
<title>Node3</title>
<g id="a_Node000003"><a xlink:href="../../d8/d48/classlci_1_1post__comm__x.html#a0e18f25200cd26b05cceda73dd2cfab9" target="_top" xlink:title=" ">
<polygon fill="white" stroke="#666666" points="318,-494.41 193,-494.41 193,-475.41 318,-475.41 318,-494.41"/>
<text text-anchor="middle" x="255.5" y="-482.41" font-family="Helvetica,sans-Serif" font-size="10.00">lci::post_comm_x::call</text>
</a>
</g>
</g>
<!-- Node2&#45;&gt;Node3 -->
<g id="edge2_Node000002_Node000003" class="edge">
<title>Node2&#45;&gt;Node3</title>
<g id="a_edge2_Node000002_Node000003"><a xlink:title=" ">
<path fill="none" stroke="#63b8ff" d="M537.7,-973.59C477.65,-970.31 401.64,-955.71 354,-907.91 292.55,-846.26 262.61,-551.45 257.35,-494.46"/>
<polygon fill="#63b8ff" stroke="#63b8ff" points="537.81,-977.1 547.96,-974.06 538.13,-970.11 537.81,-977.1"/>
</a>
</g>
</g>
<!-- Node6 -->
<g id="Node000006" class="node">
<title>Node6</title>
<g id="a_Node000006"><a xlink:href="../../d8/d48/classlci_1_1post__comm__x.html#aa8af08d3c8e53be3b83f0eed95a3e3a4" target="_top" xlink:title=" ">
<polygon fill="white" stroke="#666666" points="506,-494.41 354,-494.41 354,-475.41 506,-475.41 506,-494.41"/>
<text text-anchor="middle" x="430" y="-482.41" font-family="Helvetica,sans-Serif" font-size="10.00">lci::post_comm_x::call_impl</text>
</a>
</g>
</g>
<!-- Node2&#45;&gt;Node6 -->
<g id="edge5_Node000002_Node000006" class="edge">
<title>Node2&#45;&gt;Node6</title>
<g id="a_edge5_Node000002_Node000006"><a xlink:title=" ">
<path fill="none" stroke="#63b8ff" d="M546.57,-955.89C544.98,-954.66 543.45,-953.33 542,-951.91 473.02,-884.19 437.9,-555.67 431.93,-494.67"/>
<polygon fill="#63b8ff" stroke="#63b8ff" points="544.76,-958.89 555.07,-961.35 548.55,-953 544.76,-958.89"/>
</a>
</g>
</g>
<!-- Node4 -->
<g id="Node000004" class="node">
<title>Node4</title>
<g id="a_Node000004"><a xlink:href="../../d8/d48/classlci_1_1post__comm__x.html#a7177966156ce100d69fb2bebdfd79f5e" target="_top" xlink:title=" ">
<polygon fill="white" stroke="#666666" points="157,-513.41 0,-513.41 0,-494.41 157,-494.41 157,-513.41"/>
<text text-anchor="middle" x="78.5" y="-501.41" font-family="Helvetica,sans-Serif" font-size="10.00">lci::post_comm_x::operator()</text>
</a>
</g>
</g>
<!-- Node3&#45;&gt;Node4 -->
<g id="edge3_Node000003_Node000004" class="edge">
<title>Node3&#45;&gt;Node4</title>
<g id="a_edge3_Node000003_Node000004"><a xlink:title=" ">
<path fill="none" stroke="#63b8ff" d="M182.67,-492.71C174.27,-493.62 165.67,-494.55 157.2,-495.47"/>
<polygon fill="#63b8ff" stroke="#63b8ff" points="183.24,-496.17 192.8,-491.61 182.48,-489.21 183.24,-496.17"/>
</a>
</g>
</g>
<!-- Node5 -->
<g id="Node000005" class="node">
<title>Node5</title>
<g id="a_Node000005"><a xlink:href="../../d5/dd3/namespacelci.html#a02f1b258ca3dced99dceafaf76cf5a02" target="_top" xlink:title=" ">
<polygon fill="white" stroke="#666666" points="124,-476.41 33,-476.41 33,-457.41 124,-457.41 124,-476.41"/>
<text text-anchor="middle" x="78.5" y="-464.41" font-family="Helvetica,sans-Serif" font-size="10.00">lci::post_comm</text>
</a>
</g>
</g>
<!-- Node3&#45;&gt;Node5 -->
<g id="edge4_Node000003_Node000005" class="edge">
<title>Node3&#45;&gt;Node5</title>
<g id="a_edge4_Node000003_Node000005"><a xlink:title=" ">
<path fill="none" stroke="#63b8ff" d="M182.85,-477.54C162.98,-475.5 141.99,-473.34 124.15,-471.5"/>
<polygon fill="#63b8ff" stroke="#63b8ff" points="182.5,-481.02 192.8,-478.56 183.21,-474.06 182.5,-481.02"/>
</a>
</g>
</g>
<!-- Node6&#45;&gt;Node3 -->
<g id="edge6_Node000006_Node000003" class="edge">
<title>Node6&#45;&gt;Node3</title>
<g id="a_edge6_Node000006_Node000003"><a xlink:title=" ">
<path fill="none" stroke="#63b8ff" d="M343.76,-484.91C335.15,-484.91 326.52,-484.91 318.23,-484.91"/>
<polygon fill="#63b8ff" stroke="#63b8ff" points="343.84,-488.41 353.84,-484.91 343.84,-481.41 343.84,-488.41"/>
</a>
</g>
</g>
<!-- Node7&#45;&gt;Node3 -->
<g id="edge8_Node000007_Node000003" class="edge">
<title>Node7&#45;&gt;Node3</title>
<g id="a_edge8_Node000007_Node000003"><a xlink:title=" ">
<path fill="none" stroke="#63b8ff" d="M552.93,-930.17C491.29,-927.77 406.36,-914.22 354,-862.91 298.45,-808.48 264.14,-547.85 257.63,-494.47"/>
<polygon fill="#63b8ff" stroke="#63b8ff" points="552.9,-933.67 563,-930.47 553.11,-926.67 552.9,-933.67"/>
</a>
</g>
</g>
<!-- Node7&#45;&gt;Node6 -->
<g id="edge9_Node000007_Node000006" class="edge">
<title>Node7&#45;&gt;Node6</title>
<g id="a_edge9_Node000007_Node000006"><a xlink:title=" ">
<path fill="none" stroke="#63b8ff" d="M553.63,-913C549.4,-910.42 545.47,-907.41 542,-903.91 480.99,-842.27 439.86,-551.95 432.27,-494.72"/>
<polygon fill="#63b8ff" stroke="#63b8ff" points="552.18,-916.19 562.66,-917.7 555.41,-909.98 552.18,-916.19"/>
</a>
</g>
</g>
<!-- Node8&#45;&gt;Node3 -->
<g id="edge11_Node000008_Node000003" class="edge">
<title>Node8&#45;&gt;Node3</title>
<g id="a_edge11_Node000008_Node000003"><a xlink:title=" ">
<path fill="none" stroke="#63b8ff" d="M552.86,-882.95C491.57,-881.2 407.17,-868.7 354,-818.91 255.01,-726.22 254.66,-539.24 256.07,-494.63"/>
<polygon fill="#63b8ff" stroke="#63b8ff" points="552.8,-886.45 562.87,-883.15 552.94,-879.45 552.8,-886.45"/>
</a>
</g>
</g>
<!-- Node8&#45;&gt;Node6 -->
<g id="edge12_Node000008_Node000006" class="edge">
<title>Node8&#45;&gt;Node6</title>
<g id="a_edge12_Node000008_Node000006"><a xlink:title=" ">
<path fill="none" stroke="#63b8ff" d="M553.75,-864.87C549.5,-862.32 545.52,-859.36 542,-855.91 433.41,-749.64 430.04,-541.86 430.74,-494.62"/>
<polygon fill="#63b8ff" stroke="#63b8ff" points="552.34,-868.08 562.84,-869.53 555.54,-861.85 552.34,-868.08"/>
</a>
</g>
</g>
<!-- Node9&#45;&gt;Node3 -->
<g id="edge14_Node000009_Node000003" class="edge">
<title>Node9&#45;&gt;Node3</title>
<g id="a_edge14_Node000009_Node000003"><a xlink:title=" ">
<path fill="none" stroke="#63b8ff" d="M548.54,-838.92C487.97,-836.12 406.65,-822.57 354,-774.91 266.38,-695.6 257.42,-535.09 256.57,-494.43"/>
<polygon fill="#63b8ff" stroke="#63b8ff" points="548.71,-842.42 558.83,-839.3 548.97,-835.43 548.71,-842.42"/>
</a>
</g>
</g>
<!-- Node9&#45;&gt;Node6 -->
<g id="edge15_Node000009_Node000006" class="edge">
<title>Node9&#45;&gt;Node6</title>
<g id="a_edge15_Node000009_Node000006"><a xlink:title=" ">
<path fill="none" stroke="#63b8ff" d="M549.96,-823.88C547.14,-822.11 544.47,-820.13 542,-817.91 440.24,-726.47 431.59,-539.32 431.01,-494.64"/>
<polygon fill="#63b8ff" stroke="#63b8ff" points="548.33,-826.98 558.81,-828.57 551.61,-820.79 548.33,-826.98"/>
</a>
</g>
</g>
<!-- Node10&#45;&gt;Node3 -->
<g id="edge17_Node000010_Node000003" class="edge">
<title>Node10&#45;&gt;Node3</title>
<g id="a_edge17_Node000010_Node000003"><a xlink:title=" ">
<path fill="none" stroke="#63b8ff" d="M552.19,-795.58C491.74,-792.88 408.82,-779.77 354,-732.91 276.81,-666.93 260.31,-531.77 257.17,-494.57"/>
<polygon fill="#63b8ff" stroke="#63b8ff" points="552.32,-799.09 562.44,-795.95 552.58,-792.09 552.32,-799.09"/>
</a>
</g>
</g>
<!-- Node10&#45;&gt;Node6 -->
<g id="edge18_Node000010_Node000006" class="edge">
<title>Node10&#45;&gt;Node6</title>
<g id="a_edge18_Node000010_Node000006"><a xlink:title=" ">
<path fill="none" stroke="#63b8ff" d="M553.25,-778.06C549.22,-775.71 545.43,-773.01 542,-769.91 454.5,-690.92 435.28,-534.61 431.72,-494.48"/>
<polygon fill="#63b8ff" stroke="#63b8ff" points="551.89,-781.3 562.39,-782.69 555.05,-775.05 551.89,-781.3"/>
</a>
</g>
</g>
<!-- Node11&#45;&gt;Node3 -->
<g id="edge20_Node000011_Node000003" class="edge">
<title>Node11&#45;&gt;Node3</title>
<g id="a_edge20_Node000011_Node000003"><a xlink:title=" ">
<path fill="none" stroke="#63b8ff" d="M549.8,-752.13C490.1,-749.07 409.33,-735.99 354,-691.91 286.89,-638.45 263.62,-527.84 257.98,-494.58"/>
<polygon fill="#63b8ff" stroke="#63b8ff" points="549.8,-755.63 559.95,-752.56 550.1,-748.64 549.8,-755.63"/>
</a>
</g>
</g>
<!-- Node11&#45;&gt;Node6 -->
<g id="edge21_Node000011_Node000006" class="edge">
<title>Node11&#45;&gt;Node6</title>
<g id="a_edge21_Node000011_Node000006"><a xlink:title=" ">
<path fill="none" stroke="#63b8ff" d="M550.45,-738.61C547.48,-736.93 544.64,-735.04 542,-732.91 461.29,-668.05 437.38,-532.09 432.2,-494.64"/>
<polygon fill="#63b8ff" stroke="#63b8ff" points="549.18,-741.89 559.71,-743.07 552.22,-735.58 549.18,-741.89"/>
</a>
</g>
</g>
<!-- Node12&#45;&gt;Node3 -->
<g id="edge23_Node000012_Node000003" class="edge">
<title>Node12&#45;&gt;Node3</title>
<g id="a_edge23_Node000012_Node000003"><a xlink:title=" ">
<path fill="none" stroke="#63b8ff" d="M543.95,-711.89C485.51,-706.6 408.87,-691.53 354,-650.91 297.32,-608.95 267.84,-523.39 259.22,-494.61"/>
<polygon fill="#63b8ff" stroke="#63b8ff" points="544.02,-715.41 554.27,-712.74 544.59,-708.43 544.02,-715.41"/>
</a>
</g>
</g>
<!-- Node12&#45;&gt;Node6 -->
<g id="edge24_Node000012_Node000006" class="edge">
<title>Node12&#45;&gt;Node6</title>
<g id="a_edge24_Node000012_Node000006"><a xlink:title=" ">
<path fill="none" stroke="#63b8ff" d="M547.18,-699.43C545.39,-698.33 543.66,-697.16 542,-695.91 470.57,-642.14 440.66,-528.89 433.05,-494.82"/>
<polygon fill="#63b8ff" stroke="#63b8ff" points="546.02,-702.77 556.51,-704.28 549.25,-696.56 546.02,-702.77"/>
</a>
</g>
</g>
<!-- Node13&#45;&gt;Node3 -->
<g id="edge26_Node000013_Node000003" class="edge">
<title>Node13&#45;&gt;Node3</title>
<g id="a_edge26_Node000013_Node000003"><a xlink:title=" ">
<path fill="none" stroke="#63b8ff" d="M544.3,-671.06C486.71,-663.7 410.93,-647.14 354,-609.91 307.01,-579.18 273,-518.05 261.12,-494.48"/>
<polygon fill="#63b8ff" stroke="#63b8ff" points="544.12,-674.56 554.47,-672.28 544.96,-667.61 544.12,-674.56"/>
</a>
</g>
</g>
<!-- Node13&#45;&gt;Node6 -->
<g id="edge27_Node000013_Node000006" class="edge">
<title>Node13&#45;&gt;Node6</title>
<g id="a_edge27_Node000013_Node000006"><a xlink:title=" ">
<path fill="none" stroke="#63b8ff" d="M551.1,-663.32C547.93,-661.71 544.88,-659.91 542,-657.91 479.89,-614.72 444.53,-524.42 434.21,-494.66"/>
<polygon fill="#63b8ff" stroke="#63b8ff" points="549.76,-666.55 560.32,-667.39 552.58,-660.15 549.76,-666.55"/>
</a>
</g>
</g>
<!-- Node14&#45;&gt;Node3 -->
<g id="edge29_Node000014_Node000003" class="edge">
<title>Node14&#45;&gt;Node3</title>
<g id="a_edge29_Node000014_Node000003"><a xlink:title=" ">
<path fill="none" stroke="#63b8ff" d="M553.2,-627.65C495.88,-620.48 416.63,-605.22 354,-572.91 314.89,-552.73 279.33,-512.96 264.2,-494.61"/>
<polygon fill="#63b8ff" stroke="#63b8ff" points="552.94,-631.15 563.28,-628.86 553.77,-624.2 552.94,-631.15"/>
</a>
</g>
</g>
<!-- Node14&#45;&gt;Node6 -->
<g id="edge30_Node000014_Node000006" class="edge">
<title>Node14&#45;&gt;Node6</title>
<g id="a_edge30_Node000014_Node000006"><a xlink:title=" ">
<path fill="none" stroke="#63b8ff" d="M553.9,-616.29C549.77,-614.38 545.77,-612.26 542,-609.91 491.74,-578.62 451.1,-517.82 436.66,-494.41"/>
<polygon fill="#63b8ff" stroke="#63b8ff" points="552.55,-619.52 563.13,-620.17 555.26,-613.07 552.55,-619.52"/>
</a>
</g>
</g>
<!-- Node15&#45;&gt;Node3 -->
<g id="edge32_Node000015_Node000003" class="edge">
<title>Node15&#45;&gt;Node3</title>
<g id="a_edge32_Node000015_Node000003"><a xlink:title=" ">
<path fill="none" stroke="#63b8ff" d="M554.23,-581.92C497.82,-577.09 419.27,-566.43 354,-542.91 321.02,-531.03 286.76,-507.63 268.95,-494.47"/>
<polygon fill="#63b8ff" stroke="#63b8ff" points="554.24,-585.44 564.49,-582.76 554.81,-578.46 554.24,-585.44"/>
</a>
</g>
</g>
<!-- Node15&#45;&gt;Node6 -->
<g id="edge33_Node000015_Node000006" class="edge">
<title>Node15&#45;&gt;Node6</title>
<g id="a_edge33_Node000015_Node000006"><a xlink:title=" ">
<path fill="none" stroke="#63b8ff" d="M555.39,-567.53C550.79,-565.79 546.3,-563.92 542,-561.91 502.28,-543.32 461.36,-510.8 442.19,-494.62"/>
<polygon fill="#63b8ff" stroke="#63b8ff" points="554.31,-570.86 564.91,-570.91 556.65,-564.26 554.31,-570.86"/>
</a>
</g>
</g>
<!-- Node16&#45;&gt;Node3 -->
<g id="edge35_Node000016_Node000003" class="edge">
<title>Node16&#45;&gt;Node3</title>
<g id="a_edge35_Node000016_Node000003"><a xlink:title=" ">
<path fill="none" stroke="#63b8ff" d="M537.63,-541.23C483.69,-538.77 414.37,-533.03 354,-519.91 327.11,-514.07 297.54,-502.71 278.09,-494.51"/>
<polygon fill="#63b8ff" stroke="#63b8ff" points="537.72,-544.74 547.86,-541.67 538.02,-537.75 537.72,-544.74"/>
</a>
</g>
</g>
<!-- Node16&#45;&gt;Node6 -->
<g id="edge36_Node000016_Node000006" class="edge">
<title>Node16&#45;&gt;Node6</title>
<g id="a_edge36_Node000016_Node000006"><a xlink:title=" ">
<path fill="none" stroke="#63b8ff" d="M570.54,-531.18C560.95,-528.96 551.16,-526.51 542,-523.91 511.74,-515.33 477.72,-502.96 455.41,-494.46"/>
<polygon fill="#63b8ff" stroke="#63b8ff" points="569.89,-534.62 580.42,-533.41 571.43,-527.79 569.89,-534.62"/>
</a>
</g>
</g>
<!-- Node17&#45;&gt;Node3 -->
<g id="edge38_Node000017_Node000003" class="edge">
<title>Node17&#45;&gt;Node3</title>
<g id="a_edge38_Node000017_Node000003"><a xlink:title=" ">
<path fill="none" stroke="#63b8ff" d="M542.67,-506.05C488.39,-508.7 416.96,-509.99 354,-503.91 334.77,-502.05 313.71,-498.19 296.09,-494.42"/>
<polygon fill="#63b8ff" stroke="#63b8ff" points="543.14,-509.53 552.94,-505.52 542.78,-502.54 543.14,-509.53"/>
</a>
</g>
</g>
<!-- Node17&#45;&gt;Node6 -->
<g id="edge39_Node000017_Node000006" class="edge">
<title>Node17&#45;&gt;Node6</title>
<g id="a_edge39_Node000017_Node000006"><a xlink:title=" ">
<path fill="none" stroke="#63b8ff" d="M542.63,-493.37C530.51,-492.45 518.14,-491.51 506.25,-490.61"/>
<polygon fill="#63b8ff" stroke="#63b8ff" points="542.5,-496.87 552.73,-494.13 543.02,-489.89 542.5,-496.87"/>
</a>
</g>
</g>
<!-- Node18&#45;&gt;Node3 -->
<g id="edge41_Node000018_Node000003" class="edge">
<title>Node18&#45;&gt;Node3</title>
<g id="a_edge41_Node000018_Node000003"><a xlink:title=" ">
<path fill="none" stroke="#63b8ff" d="M542.63,-453.79C488.33,-455.67 416.89,-459.42 354,-466.91 336.74,-468.97 317.92,-472.2 301.46,-475.37"/>
<polygon fill="#63b8ff" stroke="#63b8ff" points="543.02,-457.28 552.9,-453.45 542.79,-450.28 543.02,-457.28"/>
</a>
</g>
</g>
<!-- Node18&#45;&gt;Node6 -->
<g id="edge42_Node000018_Node000006" class="edge">
<title>Node18&#45;&gt;Node6</title>
<g id="a_edge42_Node000018_Node000006"><a xlink:title=" ">
<path fill="none" stroke="#63b8ff" d="M542.83,-466.27C524.34,-469.35 505.23,-472.54 488.16,-475.38"/>
<polygon fill="#63b8ff" stroke="#63b8ff" points="543.44,-469.72 552.73,-464.62 542.29,-462.81 543.44,-469.72"/>
</a>
</g>
</g>
<!-- Node19&#45;&gt;Node3 -->
<g id="edge44_Node000019_Node000003" class="edge">
<title>Node19&#45;&gt;Node3</title>
<g id="a_edge44_Node000019_Node000003"><a xlink:title=" ">
<path fill="none" stroke="#63b8ff" d="M558.66,-416.04C502.68,-422.58 422.61,-433.86 354,-450.91 328.25,-457.31 299.69,-467.67 280.17,-475.28"/>
<polygon fill="#63b8ff" stroke="#63b8ff" points="559.29,-419.49 568.83,-414.87 558.49,-412.54 559.29,-419.49"/>
</a>
</g>
</g>
<!-- Node19&#45;&gt;Node6 -->
<g id="edge45_Node000019_Node000006" class="edge">
<title>Node19&#45;&gt;Node6</title>
<g id="a_edge45_Node000019_Node000006"><a xlink:title=" ">
<path fill="none" stroke="#63b8ff" d="M565.08,-420.87C557.22,-422.92 549.37,-425.27 542,-427.91 506.32,-440.72 467.55,-462.65 446.59,-475.25"/>
<polygon fill="#63b8ff" stroke="#63b8ff" points="566.14,-424.21 575.01,-418.42 564.46,-417.42 566.14,-424.21"/>
</a>
</g>
</g>
<!-- Node20&#45;&gt;Node3 -->
<g id="edge47_Node000020_Node000003" class="edge">
<title>Node20&#45;&gt;Node3</title>
<g id="a_edge47_Node000020_Node000003"><a xlink:title=" ">
<path fill="none" stroke="#63b8ff" d="M536.18,-377.9C481.57,-383.82 412.07,-395.57 354,-418.91 319.29,-432.86 284.38,-460.59 267.3,-475.27"/>
<polygon fill="#63b8ff" stroke="#63b8ff" points="536.61,-381.38 546.2,-376.86 535.89,-374.41 536.61,-381.38"/>
</a>
</g>
</g>
<!-- Node20&#45;&gt;Node6 -->
<g id="edge48_Node000020_Node000006" class="edge">
<title>Node20&#45;&gt;Node6</title>
<g id="a_edge48_Node000020_Node000006"><a xlink:title=" ">
<path fill="none" stroke="#63b8ff" d="M557.56,-384.49C552.19,-386.34 546.94,-388.47 542,-390.91 497.85,-412.72 456.56,-455.84 439.38,-475.16"/>
<polygon fill="#63b8ff" stroke="#63b8ff" points="558.84,-387.75 567.34,-381.43 556.75,-381.07 558.84,-387.75"/>
</a>
</g>
</g>
<!-- Node21&#45;&gt;Node3 -->
<g id="edge50_Node000021_Node000003" class="edge">
<title>Node21&#45;&gt;Node3</title>
<g id="a_edge50_Node000021_Node000003"><a xlink:title=" ">
<path fill="none" stroke="#63b8ff" d="M554.71,-333.4C496.83,-335.21 416.13,-344.5 354,-377.91 309.73,-401.72 275.12,-453.63 262.1,-475.21"/>
<polygon fill="#63b8ff" stroke="#63b8ff" points="554.97,-336.89 564.88,-333.15 554.8,-329.89 554.97,-336.89"/>
</a>
</g>
</g>
<!-- Node21&#45;&gt;Node6 -->
<g id="edge51_Node000021_Node000006" class="edge">
<title>Node21&#45;&gt;Node6</title>
<g id="a_edge51_Node000021_Node000006"><a xlink:title=" ">
<path fill="none" stroke="#63b8ff" d="M555.24,-347.33C550.63,-349.23 546.17,-351.4 542,-353.91 489.63,-385.4 449.96,-450.46 436.23,-475.13"/>
<polygon fill="#63b8ff" stroke="#63b8ff" points="556.68,-350.54 564.89,-343.84 554.29,-343.95 556.68,-350.54"/>
</a>
</g>
</g>
<!-- Node22&#45;&gt;Node3 -->
<g id="edge53_Node000022_Node000003" class="edge">
<title>Node22&#45;&gt;Node3</title>
<g id="a_edge53_Node000022_Node000003"><a xlink:title=" ">
<path fill="none" stroke="#63b8ff" d="M546.55,-290.39C488.47,-289.1 411.17,-295.81 354,-331.91 298.07,-367.23 268.29,-447.56 259.4,-475.29"/>
<polygon fill="#63b8ff" stroke="#63b8ff" points="546.7,-293.9 556.8,-290.71 546.91,-286.9 546.7,-293.9"/>
</a>
</g>
</g>
<!-- Node22&#45;&gt;Node6 -->
<g id="edge54_Node000022_Node000006" class="edge">
<title>Node22&#45;&gt;Node6</title>
<g id="a_edge54_Node000022_Node000006"><a xlink:title=" ">
<path fill="none" stroke="#63b8ff" d="M551.14,-311.55C547.96,-313.15 544.89,-314.93 542,-316.91 481.16,-358.62 445.21,-445.7 434.44,-475.03"/>
<polygon fill="#63b8ff" stroke="#63b8ff" points="552.61,-314.72 560.37,-307.51 549.81,-308.31 552.61,-314.72"/>
</a>
</g>
</g>
<!-- Node23&#45;&gt;Node3 -->
<g id="edge56_Node000023_Node000003" class="edge">
<title>Node23&#45;&gt;Node3</title>
<g id="a_edge56_Node000023_Node000003"><a xlink:title=" ">
<path fill="none" stroke="#63b8ff" d="M548.36,-244.95C489.36,-241.94 410.15,-247.29 354,-286.91 286.69,-334.41 263.67,-441.78 258.02,-474.96"/>
<polygon fill="#63b8ff" stroke="#63b8ff" points="548.19,-248.44 558.39,-245.55 548.61,-241.45 548.19,-248.44"/>
</a>
</g>
</g>
<!-- Node23&#45;&gt;Node6 -->
<g id="edge57_Node000023_Node000006" class="edge">
<title>Node23&#45;&gt;Node6</title>
<g id="a_edge57_Node000023_Node000006"><a xlink:title=" ">
<path fill="none" stroke="#63b8ff" d="M549.25,-274.77C546.72,-276.35 544.3,-278.06 542,-279.91 474.18,-334.43 441.99,-441.97 433.41,-475.02"/>
<polygon fill="#63b8ff" stroke="#63b8ff" points="551.1,-277.75 558.17,-269.86 547.72,-271.62 551.1,-277.75"/>
</a>
</g>
</g>
<!-- Node24&#45;&gt;Node3 -->
<g id="edge59_Node000024_Node000003" class="edge">
<title>Node24&#45;&gt;Node3</title>
<g id="a_edge59_Node000024_Node000003"><a xlink:title=" ">
<path fill="none" stroke="#63b8ff" d="M567.03,-201.16C506.56,-194.27 415,-193.85 354,-239.91 273.63,-300.6 259.39,-437.92 256.97,-475.34"/>
<polygon fill="#63b8ff" stroke="#63b8ff" points="566.84,-204.66 577.2,-202.41 567.7,-197.71 566.84,-204.66"/>
</a>
</g>
</g>
<!-- Node24&#45;&gt;Node6 -->
<g id="edge60_Node000024_Node000006" class="edge">
<title>Node24&#45;&gt;Node6</title>
<g id="a_edge60_Node000024_Node000006"><a xlink:title=" ">
<path fill="none" stroke="#63b8ff" d="M548.44,-226.3C546.19,-227.7 544.04,-229.24 542,-230.91 460.14,-298.05 437,-437.38 432.11,-475.24"/>
<polygon fill="#63b8ff" stroke="#63b8ff" points="550.31,-229.27 557.49,-221.48 547.02,-223.09 550.31,-229.27"/>
</a>
</g>
</g>
<!-- Node25&#45;&gt;Node3 -->
<g id="edge62_Node000025_Node000003" class="edge">
<title>Node25&#45;&gt;Node3</title>
<g id="a_edge62_Node000025_Node000003"><a xlink:title=" ">
<path fill="none" stroke="#63b8ff" d="M555.25,-171.06C484.59,-168.92 384.36,-170.44 354,-193.91 260.01,-266.59 255.78,-433.46 256.26,-475.27"/>
<polygon fill="#63b8ff" stroke="#63b8ff" points="555.33,-174.56 565.44,-171.4 555.57,-167.57 555.33,-174.56"/>
</a>
</g>
</g>
<!-- Node25&#45;&gt;Node6 -->
<g id="edge63_Node000025_Node000006" class="edge">
<title>Node25&#45;&gt;Node6</title>
<g id="a_edge63_Node000025_Node000006"><a xlink:title=" ">
<path fill="none" stroke="#63b8ff" d="M555.87,-184.92C550.87,-187.36 546.17,-190.32 542,-193.91 450.82,-272.4 434.29,-434.27 431.52,-475.3"/>
<polygon fill="#63b8ff" stroke="#63b8ff" points="557.23,-188.15 565.13,-181.08 554.55,-181.68 557.23,-188.15"/>
</a>
</g>
</g>
<!-- Node26&#45;&gt;Node3 -->
<g id="edge65_Node000026_Node000003" class="edge">
<title>Node26&#45;&gt;Node3</title>
<g id="a_edge65_Node000026_Node000003"><a xlink:title=" ">
<path fill="none" stroke="#63b8ff" d="M572.08,-126.87C511.13,-118.52 414.99,-115.8 354,-165.91 253.55,-248.45 254.3,-431.55 256,-475.36"/>
<polygon fill="#63b8ff" stroke="#63b8ff" points="571.89,-130.38 582.29,-128.37 572.9,-123.46 571.89,-130.38"/>
</a>
</g>
</g>
<!-- Node26&#45;&gt;Node6 -->
<g id="edge66_Node000026_Node000006" class="edge">
<title>Node26&#45;&gt;Node6</title>
<g id="a_edge66_Node000026_Node000006"><a xlink:title=" ">
<path fill="none" stroke="#63b8ff" d="M547.62,-152.5C545.66,-153.85 543.78,-155.32 542,-156.91 441.41,-246.89 431.88,-431.3 431.06,-475.32"/>
<polygon fill="#63b8ff" stroke="#63b8ff" points="549.79,-155.29 556.71,-147.26 546.3,-149.22 549.79,-155.29"/>
</a>
</g>
</g>
<!-- Node27&#45;&gt;Node3 -->
<g id="edge68_Node000027_Node000003" class="edge">
<title>Node27&#45;&gt;Node3</title>
<g id="a_edge68_Node000027_Node000003"><a xlink:title=" ">
<path fill="none" stroke="#63b8ff" d="M555.59,-96.1C484.67,-93.07 383.76,-93.53 354,-117.91 295.61,-165.75 263.67,-421.67 257.58,-475.12"/>
<polygon fill="#63b8ff" stroke="#63b8ff" points="555.67,-99.61 565.82,-96.57 555.99,-92.62 555.67,-99.61"/>
</a>
</g>
</g>
<!-- Node27&#45;&gt;Node6 -->
<g id="edge69_Node000027_Node000006" class="edge">
<title>Node27&#45;&gt;Node6</title>
<g id="a_edge69_Node000027_Node000006"><a xlink:title=" ">
<path fill="none" stroke="#63b8ff" d="M556.1,-110.34C550.98,-112.9 546.19,-116.04 542,-119.91 432,-221.43 429.71,-428.17 430.68,-475.23"/>
<polygon fill="#63b8ff" stroke="#63b8ff" points="557.76,-113.44 565.64,-106.36 555.07,-106.98 557.76,-113.44"/>
</a>
</g>
</g>
<!-- Node28&#45;&gt;Node3 -->
<g id="edge71_Node000028_Node000003" class="edge">
<title>Node28&#45;&gt;Node3</title>
<g id="a_edge71_Node000028_Node000003"><a xlink:title=" ">
<path fill="none" stroke="#63b8ff" d="M576.8,-52.58C515.82,-42.62 415.46,-36.92 354,-89.91 292.48,-142.95 262.8,-419.53 257.41,-475.16"/>
<polygon fill="#63b8ff" stroke="#63b8ff" points="576.52,-56.08 586.97,-54.34 577.72,-49.19 576.52,-56.08"/>
</a>
</g>
</g>
<!-- Node28&#45;&gt;Node6 -->
<g id="edge72_Node000028_Node000006" class="edge">
<title>Node28&#45;&gt;Node6</title>
<g id="a_edge72_Node000028_Node000006"><a xlink:title=" ">
<path fill="none" stroke="#63b8ff" d="M558.14,-72.18C552.22,-74.93 546.71,-78.45 542,-82.91 481.54,-140.16 440.12,-419.03 432.33,-475.08"/>
<polygon fill="#63b8ff" stroke="#63b8ff" points="559.66,-75.35 567.72,-68.46 557.13,-68.82 559.66,-75.35"/>
</a>
</g>
</g>
<!-- Node29&#45;&gt;Node3 -->
<g id="edge74_Node000029_Node000003" class="edge">
<title>Node29&#45;&gt;Node3</title>
<g id="a_edge74_Node000029_Node000003"><a xlink:title=" ">
<path fill="none" stroke="#63b8ff" d="M555.5,-4.97C494.24,3.72 408.47,4.55 354,-42.91 285.42,-102.66 261.14,-415.79 257.12,-475.18"/>
<polygon fill="#63b8ff" stroke="#63b8ff" points="555.08,-8.45 565.49,-6.49 556.13,-1.53 555.08,-8.45"/>
</a>
</g>
</g>
<!-- Node29&#45;&gt;Node6 -->
<g id="edge75_Node000029_Node000006" class="edge">
<title>Node29&#45;&gt;Node6</title>
<g id="a_edge75_Node000029_Node000006"><a xlink:title=" ">
<path fill="none" stroke="#63b8ff" d="M556.16,-34.27C550.96,-37.17 546.14,-40.68 542,-44.91 478.23,-110.1 439.02,-417.2 432.1,-475.38"/>
<polygon fill="#63b8ff" stroke="#63b8ff" points="557.71,-37.41 565.22,-29.93 554.69,-31.09 557.71,-37.41"/>
</a>
</g>
</g>
</g>
</svg>
