<?xml version="1.0" encoding="UTF-8" standalone="no"?>
<!DOCTYPE svg PUBLIC "-//W3C//DTD SVG 1.1//EN"
 "http://www.w3.org/Graphics/SVG/1.1/DTD/svg11.dtd">
<!-- Generated by graphviz version 2.43.0 (0)
 -->
<!-- Title: lci::post_comm_x::post_comm_x Pages: 1 -->
<svg width="891pt" height="896pt"
 viewBox="0.00 0.00 891.00 895.50" xmlns="http://www.w3.org/2000/svg" xmlns:xlink="http://www.w3.org/1999/xlink">
<g id="graph0" class="graph" transform="scale(1 1) rotate(0) translate(4 891.5)">
<title>lci::post_comm_x::post_comm_x</title>
<!-- Node1 -->
<g id="Node000001" class="node">
<title>Node1</title>
<g id="a_Node000001"><a xlink:title=" ">
<polygon fill="#999999" stroke="#666666" points="883,-436 754,-436 754,-406 883,-406 883,-436"/>
<text text-anchor="start" x="762" y="-424" font-family="Helvetica,sans-Serif" font-size="10.00">lci::post_comm_x::post</text>
<text text-anchor="middle" x="818.5" y="-413" font-family="Helvetica,sans-Serif" font-size="10.00">_comm_x</text>
</a>
</g>
</g>
<!-- Node2 -->
<g id="Node000002" class="node">
<title>Node2</title>
<g id="a_Node000002"><a xlink:href="../../d8/d48/classlci_1_1post__comm__x.html#a9d02814a94c01ec00d6dc0bca83d3f1e" target="_top" xlink:title=" ">
<polygon fill="white" stroke="#666666" points="712,-887.5 548,-887.5 548,-868.5 712,-868.5 712,-887.5"/>
<text text-anchor="middle" x="630" y="-875.5" font-family="Helvetica,sans-Serif" font-size="10.00">lci::post_comm_x::allow_done</text>
</a>
</g>
</g>
<!-- Node1&#45;&gt;Node2 -->
<g id="edge1_Node000001_Node000002" class="edge">
<title>Node1&#45;&gt;Node2</title>
<g id="a_edge1_Node000001_Node000002"><a xlink:title=" ">
<path fill="none" stroke="#63b8ff" d="M815.25,-446.48C807.27,-530.97 777.54,-799.95 718,-859 714.16,-862.81 709.74,-865.93 704.98,-868.49"/>
<polygon fill="#63b8ff" stroke="#63b8ff" points="818.74,-446.74 816.17,-436.46 811.77,-446.1 818.74,-446.74"/>
</a>
</g>
</g>
<!-- Node7 -->
<g id="Node000007" class="node">
<title>Node7</title>
<g id="a_Node000007"><a xlink:href="../../d8/d48/classlci_1_1post__comm__x.html#ae3d784bab8848569e70f6caa5d0d3c9d" target="_top" xlink:title=" ">
<polygon fill="white" stroke="#666666" points="697,-850 563,-850 563,-820 697,-820 697,-850"/>
<text text-anchor="start" x="571" y="-838" font-family="Helvetica,sans-Serif" font-size="10.00">lci::post_comm_x::allow</text>
<text text-anchor="middle" x="630" y="-827" font-family="Helvetica,sans-Serif" font-size="10.00">_posted</text>
</a>
</g>
</g>
<!-- Node1&#45;&gt;Node7 -->
<g id="edge7_Node000001_Node000007" class="edge">
<title>Node1&#45;&gt;Node7</title>
<g id="a_edge7_Node000001_Node000007"><a xlink:title=" ">
<path fill="none" stroke="#63b8ff" d="M814.36,-446.36C804.23,-524.25 769.99,-757.99 718,-811 712.19,-816.93 705.05,-821.43 697.39,-824.84"/>
<polygon fill="#63b8ff" stroke="#63b8ff" points="817.83,-446.8 815.63,-436.44 810.89,-445.91 817.83,-446.8"/>
</a>
</g>
</g>
<!-- Node8 -->
<g id="Node000008" class="node">
<title>Node8</title>
<g id="a_Node000008"><a xlink:href="../../d8/d48/classlci_1_1post__comm__x.html#af2e9941ebbea16b2eaf5e1971b7c0e2a" target="_top" xlink:title=" ">
<polygon fill="white" stroke="#666666" points="697,-802 563,-802 563,-772 697,-772 697,-802"/>
<text text-anchor="start" x="571" y="-790" font-family="Helvetica,sans-Serif" font-size="10.00">lci::post_comm_x::allow</text>
<text text-anchor="middle" x="630" y="-779" font-family="Helvetica,sans-Serif" font-size="10.00">_retry</text>
</a>
</g>
</g>
<!-- Node1&#45;&gt;Node8 -->
<g id="edge10_Node000001_Node000008" class="edge">
<title>Node1&#45;&gt;Node8</title>
<g id="a_edge10_Node000001_Node000008"><a xlink:title=" ">
<path fill="none" stroke="#63b8ff" d="M817.97,-446.42C817.7,-509.46 807.92,-674.32 718,-763 712.09,-768.83 704.89,-773.28 697.2,-776.66"/>
<polygon fill="#63b8ff" stroke="#63b8ff" points="821.47,-446.19 817.93,-436.2 814.47,-446.21 821.47,-446.19"/>
</a>
</g>
</g>
<!-- Node9 -->
<g id="Node000009" class="node">
<title>Node9</title>
<g id="a_Node000009"><a xlink:href="../../d8/d48/classlci_1_1post__comm__x.html#ae7b576a0cfbce10d5b9d83f3df130397" target="_top" xlink:title=" ">
<polygon fill="white" stroke="#666666" points="697.5,-754 562.5,-754 562.5,-724 697.5,-724 697.5,-754"/>
<text text-anchor="start" x="570.5" y="-742" font-family="Helvetica,sans-Serif" font-size="10.00">lci::post_comm_x::comp</text>
<text text-anchor="middle" x="630" y="-731" font-family="Helvetica,sans-Serif" font-size="10.00">_semantic</text>
</a>
</g>
</g>
<!-- Node1&#45;&gt;Node9 -->
<g id="edge13_Node000001_Node000009" class="edge">
<title>Node1&#45;&gt;Node9</title>
<g id="a_edge13_Node000001_Node000009"><a xlink:title=" ">
<path fill="none" stroke="#63b8ff" d="M816.56,-446.29C813.04,-502.97 796.41,-640.95 718,-715 712.19,-720.49 705.24,-724.74 697.84,-728.03"/>
<polygon fill="#63b8ff" stroke="#63b8ff" points="820.06,-446.26 817.1,-436.09 813.07,-445.89 820.06,-446.26"/>
</a>
</g>
</g>
<!-- Node10 -->
<g id="Node000010" class="node">
<title>Node10</title>
<g id="a_Node000010"><a xlink:href="../../d8/d48/classlci_1_1post__comm__x.html#aeba95544c83eb0d890dbba7bc3216629" target="_top" xlink:title=" ">
<polygon fill="white" stroke="#666666" points="700,-705.5 560,-705.5 560,-686.5 700,-686.5 700,-705.5"/>
<text text-anchor="middle" x="630" y="-693.5" font-family="Helvetica,sans-Serif" font-size="10.00">lci::post_comm_x::device</text>
</a>
</g>
</g>
<!-- Node1&#45;&gt;Node10 -->
<g id="edge16_Node000001_Node000010" class="edge">
<title>Node1&#45;&gt;Node10</title>
<g id="a_edge16_Node000001_Node000010"><a xlink:title=" ">
<path fill="none" stroke="#63b8ff" d="M815.5,-446.33C809.98,-498.31 789.75,-617.23 718,-678 712.7,-682.49 706.58,-685.95 700.09,-688.62"/>
<polygon fill="#63b8ff" stroke="#63b8ff" points="818.99,-446.59 816.47,-436.3 812.03,-445.92 818.99,-446.59"/>
</a>
</g>
</g>
<!-- Node11 -->
<g id="Node000011" class="node">
<title>Node11</title>
<g id="a_Node000011"><a xlink:href="../../d8/d48/classlci_1_1post__comm__x.html#acff8c179998df3f0403b417e0e21bb6c" target="_top" xlink:title=" ">
<polygon fill="white" stroke="#666666" points="705.5,-668.5 554.5,-668.5 554.5,-649.5 705.5,-649.5 705.5,-668.5"/>
<text text-anchor="middle" x="630" y="-656.5" font-family="Helvetica,sans-Serif" font-size="10.00">lci::post_comm_x::direction</text>
</a>
</g>
</g>
<!-- Node1&#45;&gt;Node11 -->
<g id="edge19_Node000001_Node000011" class="edge">
<title>Node1&#45;&gt;Node11</title>
<g id="a_edge19_Node000001_Node000011"><a xlink:title=" ">
<path fill="none" stroke="#63b8ff" d="M813.69,-446.21C805.29,-492.47 780.71,-590.8 718,-641 713.79,-644.37 709.1,-647.16 704.14,-649.46"/>
<polygon fill="#63b8ff" stroke="#63b8ff" points="817.17,-446.58 815.4,-436.13 810.27,-445.4 817.17,-446.58"/>
</a>
</g>
</g>
<!-- Node12 -->
<g id="Node000012" class="node">
<title>Node12</title>
<g id="a_Node000012"><a xlink:href="../../d8/d48/classlci_1_1post__comm__x.html#ae0c9922b3e26b41b2233e1ad7c544285" target="_top" xlink:title=" ">
<polygon fill="white" stroke="#666666" points="705.5,-631.5 554.5,-631.5 554.5,-612.5 705.5,-612.5 705.5,-631.5"/>
<text text-anchor="middle" x="630" y="-619.5" font-family="Helvetica,sans-Serif" font-size="10.00">lci::post_comm_x::endpoint</text>
</a>
</g>
</g>
<!-- Node1&#45;&gt;Node12 -->
<g id="edge22_Node000001_Node000012" class="edge">
<title>Node1&#45;&gt;Node12</title>
<g id="a_edge22_Node000001_Node000012"><a xlink:title=" ">
<path fill="none" stroke="#63b8ff" d="M811.17,-445.74C799.67,-485.44 771.45,-562.98 718,-603 712.93,-606.8 707.25,-609.87 701.28,-612.35"/>
<polygon fill="#63b8ff" stroke="#63b8ff" points="814.56,-446.63 813.86,-436.06 807.81,-444.76 814.56,-446.63"/>
</a>
</g>
</g>
<!-- Node13 -->
<g id="Node000013" class="node">
<title>Node13</title>
<g id="a_Node000013"><a xlink:href="../../d8/d48/classlci_1_1post__comm__x.html#ab8750ce06a3cd00c64d39ad5315827e2" target="_top" xlink:title=" ">
<polygon fill="white" stroke="#666666" points="696.5,-594 563.5,-594 563.5,-564 696.5,-564 696.5,-594"/>
<text text-anchor="start" x="571.5" y="-582" font-family="Helvetica,sans-Serif" font-size="10.00">lci::post_comm_x::force</text>
<text text-anchor="middle" x="630" y="-571" font-family="Helvetica,sans-Serif" font-size="10.00">_zcopy</text>
</a>
</g>
</g>
<!-- Node1&#45;&gt;Node13 -->
<g id="edge25_Node000001_Node000013" class="edge">
<title>Node1&#45;&gt;Node13</title>
<g id="a_edge25_Node000001_Node000013"><a xlink:title=" ">
<path fill="none" stroke="#63b8ff" d="M806.01,-445.06C790.35,-475.29 759.41,-526.63 718,-555 711.54,-559.43 704.28,-563.04 696.79,-565.99"/>
<polygon fill="#63b8ff" stroke="#63b8ff" points="809.18,-446.55 810.56,-436.04 802.93,-443.4 809.18,-446.55"/>
</a>
</g>
</g>
<!-- Node14 -->
<g id="Node000014" class="node">
<title>Node14</title>
<g id="a_Node000014"><a xlink:href="../../d8/d48/classlci_1_1post__comm__x.html#a5fbebcb64ab56a952dee33be796101b5" target="_top" xlink:title=" ">
<polygon fill="white" stroke="#666666" points="695.5,-546 564.5,-546 564.5,-516 695.5,-516 695.5,-546"/>
<text text-anchor="start" x="572.5" y="-534" font-family="Helvetica,sans-Serif" font-size="10.00">lci::post_comm_x::local</text>
<text text-anchor="middle" x="630" y="-523" font-family="Helvetica,sans-Serif" font-size="10.00">_buffer</text>
</a>
</g>
</g>
<!-- Node1&#45;&gt;Node14 -->
<g id="edge28_Node000001_Node000014" class="edge">
<title>Node1&#45;&gt;Node14</title>
<g id="a_edge28_Node000001_Node000014"><a xlink:title=" ">
<path fill="none" stroke="#63b8ff" d="M797.32,-443.33C778.57,-462.81 748.93,-490.46 718,-507 711.09,-510.69 703.56,-513.86 695.92,-516.56"/>
<polygon fill="#63b8ff" stroke="#63b8ff" points="799.88,-445.73 804.2,-436.05 794.79,-440.92 799.88,-445.73"/>
</a>
</g>
</g>
<!-- Node15 -->
<g id="Node000015" class="node">
<title>Node15</title>
<g id="a_Node000015"><a xlink:href="../../d8/d48/classlci_1_1post__comm__x.html#ac305197d2165dae6d99957db8a10b1ec" target="_top" xlink:title=" ">
<polygon fill="white" stroke="#666666" points="712,-497.5 548,-497.5 548,-478.5 712,-478.5 712,-497.5"/>
<text text-anchor="middle" x="630" y="-485.5" font-family="Helvetica,sans-Serif" font-size="10.00">lci::post_comm_x::local_comp</text>
</a>
</g>
</g>
<!-- Node1&#45;&gt;Node15 -->
<g id="edge31_Node000001_Node000015" class="edge">
<title>Node1&#45;&gt;Node15</title>
<g id="a_edge31_Node000001_Node000015"><a xlink:title=" ">
<path fill="none" stroke="#63b8ff" d="M781.8,-440.74C763.22,-450.36 739.87,-461.45 718,-469 707.33,-472.68 695.67,-475.81 684.46,-478.4"/>
<polygon fill="#63b8ff" stroke="#63b8ff" points="783.56,-443.77 790.78,-436.02 780.3,-437.58 783.56,-443.77"/>
</a>
</g>
</g>
<!-- Node16 -->
<g id="Node000016" class="node">
<title>Node16</title>
<g id="a_Node000016"><a xlink:href="../../d8/d48/classlci_1_1post__comm__x.html#a3b0aeb006ad6399eead4c36de986bfe9" target="_top" xlink:title=" ">
<polygon fill="white" stroke="#666666" points="707,-460 553,-460 553,-430 707,-430 707,-460"/>
<text text-anchor="start" x="561" y="-448" font-family="Helvetica,sans-Serif" font-size="10.00">lci::post_comm_x::matching</text>
<text text-anchor="middle" x="630" y="-437" font-family="Helvetica,sans-Serif" font-size="10.00">_engine</text>
</a>
</g>
</g>
<!-- Node1&#45;&gt;Node16 -->
<g id="edge34_Node000001_Node000016" class="edge">
<title>Node1&#45;&gt;Node16</title>
<g id="a_edge34_Node000001_Node000016"><a xlink:title=" ">
<path fill="none" stroke="#63b8ff" d="M743.86,-430.48C731.83,-432.02 719.35,-433.63 707.26,-435.19"/>
<polygon fill="#63b8ff" stroke="#63b8ff" points="744.37,-433.94 753.84,-429.19 743.47,-427 744.37,-433.94"/>
</a>
</g>
</g>
<!-- Node17 -->
<g id="Node000017" class="node">
<title>Node17</title>
<g id="a_Node000017"><a xlink:href="../../d8/d48/classlci_1_1post__comm__x.html#af4a99ff113c37ad6618b8c0ead4961de" target="_top" xlink:title=" ">
<polygon fill="white" stroke="#666666" points="707,-412 553,-412 553,-382 707,-382 707,-412"/>
<text text-anchor="start" x="561" y="-400" font-family="Helvetica,sans-Serif" font-size="10.00">lci::post_comm_x::matching</text>
<text text-anchor="middle" x="630" y="-389" font-family="Helvetica,sans-Serif" font-size="10.00">_policy</text>
</a>
</g>
</g>
<!-- Node1&#45;&gt;Node17 -->
<g id="edge37_Node000001_Node000017" class="edge">
<title>Node1&#45;&gt;Node17</title>
<g id="a_edge37_Node000001_Node000017"><a xlink:title=" ">
<path fill="none" stroke="#63b8ff" d="M743.86,-411.52C731.83,-409.98 719.35,-408.37 707.26,-406.81"/>
<polygon fill="#63b8ff" stroke="#63b8ff" points="743.47,-415 753.84,-412.81 744.37,-408.06 743.47,-415"/>
</a>
</g>
</g>
<!-- Node18 -->
<g id="Node000018" class="node">
<title>Node18</title>
<g id="a_Node000018"><a xlink:href="../../d8/d48/classlci_1_1post__comm__x.html#acc7a3e0f3f2f3b4f60c1cbf721955430" target="_top" xlink:title=" ">
<polygon fill="white" stroke="#666666" points="691,-363.5 569,-363.5 569,-344.5 691,-344.5 691,-363.5"/>
<text text-anchor="middle" x="630" y="-351.5" font-family="Helvetica,sans-Serif" font-size="10.00">lci::post_comm_x::mr</text>
</a>
</g>
</g>
<!-- Node1&#45;&gt;Node18 -->
<g id="edge40_Node000001_Node000018" class="edge">
<title>Node1&#45;&gt;Node18</title>
<g id="a_edge40_Node000001_Node000018"><a xlink:title=" ">
<path fill="none" stroke="#63b8ff" d="M781.8,-401.26C763.22,-391.64 739.87,-380.55 718,-373 707.33,-369.32 695.67,-366.19 684.46,-363.6"/>
<polygon fill="#63b8ff" stroke="#63b8ff" points="780.3,-404.42 790.78,-405.98 783.56,-398.23 780.3,-404.42"/>
</a>
</g>
</g>
<!-- Node19 -->
<g id="Node000019" class="node">
<title>Node19</title>
<g id="a_Node000019"><a xlink:href="../../d8/d48/classlci_1_1post__comm__x.html#a97897d1d8d6b9536ed256043814d2326" target="_top" xlink:title=" ">
<polygon fill="white" stroke="#666666" points="713.5,-326.5 546.5,-326.5 546.5,-307.5 713.5,-307.5 713.5,-326.5"/>
<text text-anchor="middle" x="630" y="-314.5" font-family="Helvetica,sans-Serif" font-size="10.00">lci::post_comm_x::packet_pool</text>
</a>
</g>
</g>
<!-- Node1&#45;&gt;Node19 -->
<g id="edge43_Node000001_Node000019" class="edge">
<title>Node1&#45;&gt;Node19</title>
<g id="a_edge43_Node000001_Node000019"><a xlink:title=" ">
<path fill="none" stroke="#63b8ff" d="M797.23,-398.28C778.57,-378.78 749.12,-351.46 718,-336 710.25,-332.15 701.72,-329.07 693.13,-326.62"/>
<polygon fill="#63b8ff" stroke="#63b8ff" points="794.92,-400.93 804.31,-405.84 800.03,-396.14 794.92,-400.93"/>
</a>
</g>
</g>
<!-- Node20 -->
<g id="Node000020" class="node">
<title>Node20</title>
<g id="a_Node000020"><a xlink:href="../../d8/d48/classlci_1_1post__comm__x.html#a585bbb73afe075d1ee694782f3790ba3" target="_top" xlink:title=" ">
<polygon fill="white" stroke="#666666" points="695,-289.5 565,-289.5 565,-270.5 695,-270.5 695,-289.5"/>
<text text-anchor="middle" x="630" y="-277.5" font-family="Helvetica,sans-Serif" font-size="10.00">lci::post_comm_x::rank</text>
</a>
</g>
</g>
<!-- Node1&#45;&gt;Node20 -->
<g id="edge46_Node000001_Node000020" class="edge">
<title>Node1&#45;&gt;Node20</title>
<g id="a_edge46_Node000001_Node000020"><a xlink:title=" ">
<path fill="none" stroke="#63b8ff" d="M804.71,-397.08C788.41,-369.03 757.55,-323.29 718,-299 711.02,-294.71 703.2,-291.38 695.19,-288.8"/>
<polygon fill="#63b8ff" stroke="#63b8ff" points="801.7,-398.88 809.67,-405.86 807.79,-395.43 801.7,-398.88"/>
</a>
</g>
</g>
<!-- Node21 -->
<g id="Node000021" class="node">
<title>Node21</title>
<g id="a_Node000021"><a xlink:href="../../d8/d48/classlci_1_1post__comm__x.html#a2e7b0182c47448aba2ac476d0515b204" target="_top" xlink:title=" ">
<polygon fill="white" stroke="#666666" points="718,-252.5 542,-252.5 542,-233.5 718,-233.5 718,-252.5"/>
<text text-anchor="middle" x="630" y="-240.5" font-family="Helvetica,sans-Serif" font-size="10.00">lci::post_comm_x::remote_comp</text>
</a>
</g>
</g>
<!-- Node1&#45;&gt;Node21 -->
<g id="edge49_Node000001_Node000021" class="edge">
<title>Node1&#45;&gt;Node21</title>
<g id="a_edge49_Node000001_Node000021"><a xlink:title=" ">
<path fill="none" stroke="#63b8ff" d="M809.12,-396.33C795.72,-360.79 765.99,-295.78 718,-262 712.56,-258.17 706.5,-255.1 700.17,-252.63"/>
<polygon fill="#63b8ff" stroke="#63b8ff" points="805.9,-397.73 812.61,-405.93 812.48,-395.33 805.9,-397.73"/>
</a>
</g>
</g>
<!-- Node22 -->
<g id="Node000022" class="node">
<title>Node22</title>
<g id="a_Node000022"><a xlink:href="../../d8/d48/classlci_1_1post__comm__x.html#aff40e0501e1d3575d07f5daa1e62131e" target="_top" xlink:title=" ">
<polygon fill="white" stroke="#666666" points="714.5,-215.5 545.5,-215.5 545.5,-196.5 714.5,-196.5 714.5,-215.5"/>
<text text-anchor="middle" x="630" y="-203.5" font-family="Helvetica,sans-Serif" font-size="10.00">lci::post_comm_x::remote_disp</text>
</a>
</g>
</g>
<!-- Node1&#45;&gt;Node22 -->
<g id="edge52_Node000001_Node000022" class="edge">
<title>Node1&#45;&gt;Node22</title>
<g id="a_edge52_Node000001_Node000022"><a xlink:title=" ">
<path fill="none" stroke="#63b8ff" d="M812.13,-395.92C801.72,-353.71 774.66,-268.8 718,-225 713.11,-221.22 707.62,-218.15 701.84,-215.68"/>
<polygon fill="#63b8ff" stroke="#63b8ff" points="808.78,-396.98 814.48,-405.92 815.6,-395.38 808.78,-396.98"/>
</a>
</g>
</g>
<!-- Node23 -->
<g id="Node000023" class="node">
<title>Node23</title>
<g id="a_Node000023"><a xlink:href="../../d8/d48/classlci_1_1post__comm__x.html#ac7c8004a77938b1252e4d6c00be2ecb1" target="_top" xlink:title=" ">
<polygon fill="white" stroke="#666666" points="692.5,-178.5 567.5,-178.5 567.5,-159.5 692.5,-159.5 692.5,-178.5"/>
<text text-anchor="middle" x="630" y="-166.5" font-family="Helvetica,sans-Serif" font-size="10.00">lci::post_comm_x::rmr</text>
</a>
</g>
</g>
<!-- Node1&#45;&gt;Node23 -->
<g id="edge55_Node000001_Node000023" class="edge">
<title>Node1&#45;&gt;Node23</title>
<g id="a_edge55_Node000001_Node000023"><a xlink:title=" ">
<path fill="none" stroke="#63b8ff" d="M814.32,-395.77C806.85,-347.53 783.56,-242.23 718,-188 710.73,-181.99 701.99,-177.76 692.89,-174.81"/>
<polygon fill="#63b8ff" stroke="#63b8ff" points="810.9,-396.55 815.79,-405.95 817.83,-395.55 810.9,-396.55"/>
</a>
</g>
</g>
<!-- Node24 -->
<g id="Node000024" class="node">
<title>Node24</title>
<g id="a_Node000024"><a xlink:href="../../d8/d48/classlci_1_1post__comm__x.html#a5e0a01b764e117c34c93ca67b4ac4ea1" target="_top" xlink:title=" ">
<polygon fill="white" stroke="#666666" points="703,-141.5 557,-141.5 557,-122.5 703,-122.5 703,-141.5"/>
<text text-anchor="middle" x="630" y="-129.5" font-family="Helvetica,sans-Serif" font-size="10.00">lci::post_comm_x::runtime</text>
</a>
</g>
</g>
<!-- Node1&#45;&gt;Node24 -->
<g id="edge58_Node000001_Node000024" class="edge">
<title>Node1&#45;&gt;Node24</title>
<g id="a_edge58_Node000001_Node000024"><a xlink:title=" ">
<path fill="none" stroke="#63b8ff" d="M816,-395.98C811.39,-342.37 792.73,-216.06 718,-151 713.57,-147.14 708.54,-144.01 703.18,-141.48"/>
<polygon fill="#63b8ff" stroke="#63b8ff" points="812.52,-396.27 816.77,-405.98 819.5,-395.74 812.52,-396.27"/>
</a>
</g>
</g>
<!-- Node25 -->
<g id="Node000025" class="node">
<title>Node25</title>
<g id="a_Node000025"><a xlink:href="../../d8/d48/classlci_1_1post__comm__x.html#ad5675593b1c63c632d12b4d829cfc17a" target="_top" xlink:title=" ">
<polygon fill="white" stroke="#666666" points="694,-104.5 566,-104.5 566,-85.5 694,-85.5 694,-104.5"/>
<text text-anchor="middle" x="630" y="-92.5" font-family="Helvetica,sans-Serif" font-size="10.00">lci::post_comm_x::size</text>
</a>
</g>
</g>
<!-- Node1&#45;&gt;Node25 -->
<g id="edge61_Node000001_Node000025" class="edge">
<title>Node1&#45;&gt;Node25</title>
<g id="a_edge61_Node000001_Node000025"><a xlink:title=" ">
<path fill="none" stroke="#63b8ff" d="M817.27,-395.5C815.27,-336.49 801.66,-189.81 718,-114 711.24,-107.88 702.98,-103.56 694.26,-100.56"/>
<polygon fill="#63b8ff" stroke="#63b8ff" points="813.77,-395.87 817.52,-405.77 820.77,-395.69 813.77,-395.87"/>
</a>
</g>
</g>
<!-- Node26 -->
<g id="Node000026" class="node">
<title>Node26</title>
<g id="a_Node000026"><a xlink:href="../../d8/d48/classlci_1_1post__comm__x.html#ac61d3e4ae9c78551510080c9080181af" target="_top" xlink:title=" ">
<polygon fill="white" stroke="#666666" points="692,-67.5 568,-67.5 568,-48.5 692,-48.5 692,-67.5"/>
<text text-anchor="middle" x="630" y="-55.5" font-family="Helvetica,sans-Serif" font-size="10.00">lci::post_comm_x::tag</text>
</a>
</g>
</g>
<!-- Node1&#45;&gt;Node26 -->
<g id="edge64_Node000001_Node000026" class="edge">
<title>Node1&#45;&gt;Node26</title>
<g id="a_edge64_Node000001_Node000026"><a xlink:title=" ">
<path fill="none" stroke="#63b8ff" d="M818.31,-395.58C818.86,-331.81 810.94,-163.95 718,-77 710.77,-70.24 701.72,-65.67 692.21,-62.62"/>
<polygon fill="#63b8ff" stroke="#63b8ff" points="814.81,-395.84 818.14,-405.9 821.8,-395.96 814.81,-395.84"/>
</a>
</g>
</g>
<!-- Node27 -->
<g id="Node000027" class="node">
<title>Node27</title>
<g id="a_Node000027"><a xlink:href="../../d8/d48/classlci_1_1post__comm__x.html#a77cf8049d80a743e5793fe1bfe47037b" target="_top" xlink:title=" ">
<polygon fill="white" stroke="#666666" points="694.5,-30 565.5,-30 565.5,0 694.5,0 694.5,-30"/>
<text text-anchor="start" x="573.5" y="-18" font-family="Helvetica,sans-Serif" font-size="10.00">lci::post_comm_x::user</text>
<text text-anchor="middle" x="630" y="-7" font-family="Helvetica,sans-Serif" font-size="10.00">_context</text>
</a>
</g>
</g>
<!-- Node1&#45;&gt;Node27 -->
<g id="edge67_Node000001_Node000027" class="edge">
<title>Node1&#45;&gt;Node27</title>
<g id="a_edge67_Node000001_Node000027"><a xlink:title=" ">
<path fill="none" stroke="#63b8ff" d="M814.22,-395.69C803.79,-318.91 769.01,-90.75 718,-39 711.51,-32.42 703.39,-27.59 694.74,-24.07"/>
<polygon fill="#63b8ff" stroke="#63b8ff" points="810.79,-396.43 815.58,-405.88 817.73,-395.5 810.79,-396.43"/>
</a>
</g>
</g>
<!-- Node3 -->
<g id="Node000003" class="node">
<title>Node3</title>
<g id="a_Node000003"><a xlink:href="../../d8/d48/classlci_1_1post__comm__x.html#a0e18f25200cd26b05cceda73dd2cfab9" target="_top" xlink:title=" ">
<polygon fill="white" stroke="#666666" points="318,-442.5 193,-442.5 193,-423.5 318,-423.5 318,-442.5"/>
<text text-anchor="middle" x="255.5" y="-430.5" font-family="Helvetica,sans-Serif" font-size="10.00">lci::post_comm_x::call</text>
</a>
</g>
</g>
<!-- Node2&#45;&gt;Node3 -->
<g id="edge2_Node000002_Node000003" class="edge">
<title>Node2&#45;&gt;Node3</title>
<g id="a_edge2_Node000002_Node000003"><a xlink:title=" ">
<path fill="none" stroke="#63b8ff" d="M537.63,-879.25C477.73,-875.09 401.91,-859.59 354,-812 298.68,-757.06 264.19,-496.03 257.64,-442.58"/>
<polygon fill="#63b8ff" stroke="#63b8ff" points="537.66,-882.76 547.85,-879.86 538.08,-875.77 537.66,-882.76"/>
</a>
</g>
</g>
<!-- Node6 -->
<g id="Node000006" class="node">
<title>Node6</title>
<g id="a_Node000006"><a xlink:href="../../d8/d48/classlci_1_1post__comm__x.html#a3fd9ef07356921c94169a7b4a29edd80" target="_top" xlink:title=" ">
<polygon fill="white" stroke="#666666" points="506,-442.5 354,-442.5 354,-423.5 506,-423.5 506,-442.5"/>
<text text-anchor="middle" x="430" y="-430.5" font-family="Helvetica,sans-Serif" font-size="10.00">lci::post_comm_x::call_impl</text>
</a>
</g>
</g>
<!-- Node2&#45;&gt;Node6 -->
<g id="edge5_Node000002_Node000006" class="edge">
<title>Node2&#45;&gt;Node6</title>
<g id="a_edge5_Node000002_Node000006"><a xlink:title=" ">
<path fill="none" stroke="#63b8ff" d="M546.61,-862.94C545,-861.72 543.46,-860.41 542,-859 478.35,-797.84 439.19,-500.19 432.15,-442.64"/>
<polygon fill="#63b8ff" stroke="#63b8ff" points="544.84,-865.96 555.16,-868.35 548.58,-860.04 544.84,-865.96"/>
</a>
</g>
</g>
<!-- Node4 -->
<g id="Node000004" class="node">
<title>Node4</title>
<g id="a_Node000004"><a xlink:href="../../d8/d48/classlci_1_1post__comm__x.html#a7177966156ce100d69fb2bebdfd79f5e" target="_top" xlink:title=" ">
<polygon fill="white" stroke="#666666" points="157,-461.5 0,-461.5 0,-442.5 157,-442.5 157,-461.5"/>
<text text-anchor="middle" x="78.5" y="-449.5" font-family="Helvetica,sans-Serif" font-size="10.00">lci::post_comm_x::operator()</text>
</a>
</g>
</g>
<!-- Node3&#45;&gt;Node4 -->
<g id="edge3_Node000003_Node000004" class="edge">
<title>Node3&#45;&gt;Node4</title>
<g id="a_edge3_Node000003_Node000004"><a xlink:title=" ">
<path fill="none" stroke="#63b8ff" d="M182.67,-440.8C174.27,-441.71 165.67,-442.64 157.2,-443.56"/>
<polygon fill="#63b8ff" stroke="#63b8ff" points="183.24,-444.26 192.8,-439.7 182.48,-437.3 183.24,-444.26"/>
</a>
</g>
</g>
<!-- Node5 -->
<g id="Node000005" class="node">
<title>Node5</title>
<g id="a_Node000005"><a xlink:href="../../d5/dd3/namespacelci.html#a02f1b258ca3dced99dceafaf76cf5a02" target="_top" xlink:title=" ">
<polygon fill="white" stroke="#666666" points="124,-424.5 33,-424.5 33,-405.5 124,-405.5 124,-424.5"/>
<text text-anchor="middle" x="78.5" y="-412.5" font-family="Helvetica,sans-Serif" font-size="10.00">lci::post_comm</text>
</a>
</g>
</g>
<!-- Node3&#45;&gt;Node5 -->
<g id="edge4_Node000003_Node000005" class="edge">
<title>Node3&#45;&gt;Node5</title>
<g id="a_edge4_Node000003_Node000005"><a xlink:title=" ">
<path fill="none" stroke="#63b8ff" d="M182.85,-425.63C162.98,-423.59 141.99,-421.43 124.15,-419.59"/>
<polygon fill="#63b8ff" stroke="#63b8ff" points="182.5,-429.11 192.8,-426.65 183.21,-422.15 182.5,-429.11"/>
</a>
</g>
</g>
<!-- Node6&#45;&gt;Node3 -->
<g id="edge6_Node000006_Node000003" class="edge">
<title>Node6&#45;&gt;Node3</title>
<g id="a_edge6_Node000006_Node000003"><a xlink:title=" ">
<path fill="none" stroke="#63b8ff" d="M343.76,-433C335.15,-433 326.52,-433 318.23,-433"/>
<polygon fill="#63b8ff" stroke="#63b8ff" points="343.84,-436.5 353.84,-433 343.84,-429.5 343.84,-436.5"/>
</a>
</g>
</g>
<!-- Node7&#45;&gt;Node3 -->
<g id="edge8_Node000007_Node000003" class="edge">
<title>Node7&#45;&gt;Node3</title>
<g id="a_edge8_Node000007_Node000003"><a xlink:title=" ">
<path fill="none" stroke="#63b8ff" d="M552.69,-835.56C491.3,-831.86 406.85,-816.83 354,-766 256.53,-672.26 255.03,-486.84 256.14,-442.63"/>
<polygon fill="#63b8ff" stroke="#63b8ff" points="552.55,-839.05 562.71,-836.07 552.91,-832.06 552.55,-839.05"/>
</a>
</g>
</g>
<!-- Node7&#45;&gt;Node6 -->
<g id="edge9_Node000007_Node000006" class="edge">
<title>Node7&#45;&gt;Node6</title>
<g id="a_edge9_Node000007_Node000006"><a xlink:title=" ">
<path fill="none" stroke="#63b8ff" d="M553.73,-819.98C549.48,-817.43 545.52,-814.46 542,-811 431.56,-702.36 429.66,-490.06 430.68,-442.57"/>
<polygon fill="#63b8ff" stroke="#63b8ff" points="552.32,-823.19 562.81,-824.65 555.52,-816.96 552.32,-823.19"/>
</a>
</g>
</g>
<!-- Node8&#45;&gt;Node3 -->
<g id="edge11_Node000008_Node000003" class="edge">
<title>Node8&#45;&gt;Node3</title>
<g id="a_edge11_Node000008_Node000003"><a xlink:title=" ">
<path fill="none" stroke="#63b8ff" d="M552.63,-787.86C491.66,-784.48 407.81,-770.13 354,-721 267.46,-641.99 257.69,-483.43 256.62,-442.71"/>
<polygon fill="#63b8ff" stroke="#63b8ff" points="552.82,-791.37 562.97,-788.34 553.14,-784.38 552.82,-791.37"/>
</a>
</g>
</g>
<!-- Node8&#45;&gt;Node6 -->
<g id="edge12_Node000008_Node000006" class="edge">
<title>Node8&#45;&gt;Node6</title>
<g id="a_edge12_Node000008_Node000006"><a xlink:title=" ">
<path fill="none" stroke="#63b8ff" d="M553.64,-771.68C549.45,-769.2 545.51,-766.32 542,-763 443.43,-669.73 432.38,-486.26 431.15,-442.52"/>
<polygon fill="#63b8ff" stroke="#63b8ff" points="552.09,-774.81 562.59,-776.24 555.27,-768.58 552.09,-774.81"/>
</a>
</g>
</g>
<!-- Node9&#45;&gt;Node3 -->
<g id="edge14_Node000009_Node000003" class="edge">
<title>Node9&#45;&gt;Node3</title>
<g id="a_edge14_Node000009_Node000003"><a xlink:title=" ">
<path fill="none" stroke="#63b8ff" d="M552.24,-740.95C491.82,-738.47 408.92,-725.65 354,-679 277.14,-613.72 260.4,-479.53 257.19,-442.6"/>
<polygon fill="#63b8ff" stroke="#63b8ff" points="552.39,-744.45 562.49,-741.28 552.61,-737.46 552.39,-744.45"/>
</a>
</g>
</g>
<!-- Node9&#45;&gt;Node6 -->
<g id="edge15_Node000009_Node000006" class="edge">
<title>Node9&#45;&gt;Node6</title>
<g id="a_edge15_Node000009_Node000006"><a xlink:title=" ">
<path fill="none" stroke="#63b8ff" d="M553.26,-723.14C549.23,-720.79 545.43,-718.09 542,-715 455.35,-637.07 435.55,-482.88 431.78,-442.74"/>
<polygon fill="#63b8ff" stroke="#63b8ff" points="551.91,-726.37 562.41,-727.76 555.06,-720.13 551.91,-726.37"/>
</a>
</g>
</g>
<!-- Node10&#45;&gt;Node3 -->
<g id="edge17_Node000010_Node000003" class="edge">
<title>Node10&#45;&gt;Node3</title>
<g id="a_edge17_Node000010_Node000003"><a xlink:title=" ">
<path fill="none" stroke="#63b8ff" d="M549.6,-697.45C489.97,-694.56 409.39,-681.73 354,-638 287.18,-585.25 263.71,-475.57 258,-442.59"/>
<polygon fill="#63b8ff" stroke="#63b8ff" points="549.6,-700.95 559.73,-697.85 549.88,-693.95 549.6,-700.95"/>
</a>
</g>
</g>
<!-- Node10&#45;&gt;Node6 -->
<g id="edge18_Node000010_Node000006" class="edge">
<title>Node10&#45;&gt;Node6</title>
<g id="a_edge18_Node000010_Node000006"><a xlink:title=" ">
<path fill="none" stroke="#63b8ff" d="M550.46,-683.69C547.49,-682.01 544.65,-680.12 542,-678 461.96,-613.97 437.57,-479.62 432.24,-442.62"/>
<polygon fill="#63b8ff" stroke="#63b8ff" points="549.2,-686.97 559.73,-688.13 552.23,-680.65 549.2,-686.97"/>
</a>
</g>
</g>
<!-- Node11&#45;&gt;Node3 -->
<g id="edge20_Node000011_Node000003" class="edge">
<title>Node11&#45;&gt;Node3</title>
<g id="a_edge20_Node000011_Node000003"><a xlink:title=" ">
<path fill="none" stroke="#63b8ff" d="M544.05,-657.22C485.66,-652.1 409.03,-637.31 354,-597 297.61,-555.7 267.94,-471.07 259.25,-442.59"/>
<polygon fill="#63b8ff" stroke="#63b8ff" points="544.12,-660.73 554.36,-658.04 544.67,-653.76 544.12,-660.73"/>
</a>
</g>
</g>
<!-- Node11&#45;&gt;Node6 -->
<g id="edge21_Node000011_Node000006" class="edge">
<title>Node11&#45;&gt;Node6</title>
<g id="a_edge21_Node000011_Node000006"><a xlink:title=" ">
<path fill="none" stroke="#63b8ff" d="M547.19,-644.5C545.4,-643.41 543.67,-642.25 542,-641 471.21,-588.04 440.85,-476.37 433.1,-442.77"/>
<polygon fill="#63b8ff" stroke="#63b8ff" points="546.04,-647.85 556.53,-649.34 549.26,-641.63 546.04,-647.85"/>
</a>
</g>
</g>
<!-- Node12&#45;&gt;Node3 -->
<g id="edge23_Node000012_Node000003" class="edge">
<title>Node12&#45;&gt;Node3</title>
<g id="a_edge23_Node000012_Node000003"><a xlink:title=" ">
<path fill="none" stroke="#63b8ff" d="M544.13,-616.3C486.63,-609.08 411.03,-592.77 354,-556 307.51,-526.02 273.44,-466.24 261.33,-442.78"/>
<polygon fill="#63b8ff" stroke="#63b8ff" points="543.94,-619.8 554.28,-617.5 544.76,-612.85 543.94,-619.8"/>
</a>
</g>
</g>
<!-- Node12&#45;&gt;Node6 -->
<g id="edge24_Node000012_Node000006" class="edge">
<title>Node12&#45;&gt;Node6</title>
<g id="a_edge24_Node000012_Node000006"><a xlink:title=" ">
<path fill="none" stroke="#63b8ff" d="M551.12,-608.38C547.95,-606.78 544.89,-604.99 542,-603 480.48,-560.58 444.73,-471.83 434.26,-442.58"/>
<polygon fill="#63b8ff" stroke="#63b8ff" points="549.79,-611.62 560.35,-612.44 552.6,-605.21 549.79,-611.62"/>
</a>
</g>
</g>
<!-- Node13&#45;&gt;Node3 -->
<g id="edge26_Node000013_Node000003" class="edge">
<title>Node13&#45;&gt;Node3</title>
<g id="a_edge26_Node000013_Node000003"><a xlink:title=" ">
<path fill="none" stroke="#63b8ff" d="M553.26,-573.3C495.98,-566.55 416.73,-551.86 354,-520 314.96,-500.17 279.37,-460.79 264.22,-442.61"/>
<polygon fill="#63b8ff" stroke="#63b8ff" points="553.01,-576.79 563.34,-574.43 553.79,-569.84 553.01,-576.79"/>
</a>
</g>
</g>
<!-- Node13&#45;&gt;Node6 -->
<g id="edge27_Node000013_Node000006" class="edge">
<title>Node13&#45;&gt;Node6</title>
<g id="a_edge27_Node000013_Node000006"><a xlink:title=" ">
<path fill="none" stroke="#63b8ff" d="M553.93,-561.33C549.79,-559.43 545.78,-557.32 542,-555 492.47,-524.57 451.69,-465.69 436.93,-442.61"/>
<polygon fill="#63b8ff" stroke="#63b8ff" points="552.6,-564.56 563.17,-565.18 555.29,-558.1 552.6,-564.56"/>
</a>
</g>
</g>
<!-- Node14&#45;&gt;Node3 -->
<g id="edge29_Node000014_Node000003" class="edge">
<title>Node14&#45;&gt;Node3</title>
<g id="a_edge29_Node000014_Node000003"><a xlink:title=" ">
<path fill="none" stroke="#63b8ff" d="M554.01,-527.52C497.65,-523.08 419.26,-512.98 354,-490 321.26,-478.47 287.19,-455.64 269.27,-442.64"/>
<polygon fill="#63b8ff" stroke="#63b8ff" points="554.03,-531.03 564.26,-528.28 554.55,-524.05 554.03,-531.03"/>
</a>
</g>
</g>
<!-- Node14&#45;&gt;Node6 -->
<g id="edge30_Node000014_Node000006" class="edge">
<title>Node14&#45;&gt;Node6</title>
<g id="a_edge30_Node000014_Node000006"><a xlink:title=" ">
<path fill="none" stroke="#63b8ff" d="M555.43,-512.53C550.83,-510.81 546.32,-508.97 542,-507 502.82,-489.1 461.98,-458.15 442.57,-442.56"/>
<polygon fill="#63b8ff" stroke="#63b8ff" points="554.37,-515.86 564.96,-515.87 556.68,-509.26 554.37,-515.86"/>
</a>
</g>
</g>
<!-- Node15&#45;&gt;Node3 -->
<g id="edge32_Node000015_Node000003" class="edge">
<title>Node15&#45;&gt;Node3</title>
<g id="a_edge32_Node000015_Node000003"><a xlink:title=" ">
<path fill="none" stroke="#63b8ff" d="M537.68,-486.94C483.75,-484.86 414.44,-479.62 354,-467 327.33,-461.43 297.96,-450.49 278.49,-442.52"/>
<polygon fill="#63b8ff" stroke="#63b8ff" points="537.79,-490.45 547.91,-487.31 538.04,-483.45 537.79,-490.45"/>
</a>
</g>
</g>
<!-- Node15&#45;&gt;Node6 -->
<g id="edge33_Node000015_Node000006" class="edge">
<title>Node15&#45;&gt;Node6</title>
<g id="a_edge33_Node000015_Node000006"><a xlink:title=" ">
<path fill="none" stroke="#63b8ff" d="M571.59,-476.3C561.68,-474.05 551.51,-471.57 542,-469 513.06,-461.17 480.48,-450.36 458.14,-442.63"/>
<polygon fill="#63b8ff" stroke="#63b8ff" points="570.86,-479.73 581.38,-478.49 572.39,-472.89 570.86,-479.73"/>
</a>
</g>
</g>
<!-- Node16&#45;&gt;Node3 -->
<g id="edge35_Node000016_Node000003" class="edge">
<title>Node16&#45;&gt;Node3</title>
<g id="a_edge35_Node000016_Node000003"><a xlink:title=" ">
<path fill="none" stroke="#63b8ff" d="M542.68,-452.56C488.4,-455.99 416.97,-458.08 354,-452 334.77,-450.14 313.71,-446.28 296.09,-442.51"/>
<polygon fill="#63b8ff" stroke="#63b8ff" points="543.21,-456.04 552.95,-451.89 542.74,-449.05 543.21,-456.04"/>
</a>
</g>
</g>
<!-- Node16&#45;&gt;Node6 -->
<g id="edge36_Node000016_Node000006" class="edge">
<title>Node16&#45;&gt;Node6</title>
<g id="a_edge36_Node000016_Node000006"><a xlink:title=" ">
<path fill="none" stroke="#63b8ff" d="M542.63,-439.77C530.51,-439.03 518.14,-438.28 506.25,-437.56"/>
<polygon fill="#63b8ff" stroke="#63b8ff" points="542.54,-443.27 552.73,-440.38 542.96,-436.28 542.54,-443.27"/>
</a>
</g>
</g>
<!-- Node17&#45;&gt;Node3 -->
<g id="edge38_Node000017_Node000003" class="edge">
<title>Node17&#45;&gt;Node3</title>
<g id="a_edge38_Node000017_Node000003"><a xlink:title=" ">
<path fill="none" stroke="#63b8ff" d="M542.62,-400.06C488.33,-402.62 416.89,-407.16 354,-415 336.92,-417.13 318.31,-420.34 301.96,-423.46"/>
<polygon fill="#63b8ff" stroke="#63b8ff" points="543.07,-403.54 552.9,-399.58 542.75,-396.55 543.07,-403.54"/>
</a>
</g>
</g>
<!-- Node17&#45;&gt;Node6 -->
<g id="edge39_Node000017_Node000006" class="edge">
<title>Node17&#45;&gt;Node6</title>
<g id="a_edge39_Node000017_Node000006"><a xlink:title=" ">
<path fill="none" stroke="#63b8ff" d="M542.85,-412.66C522.58,-416.35 501.57,-420.17 483.32,-423.49"/>
<polygon fill="#63b8ff" stroke="#63b8ff" points="543.52,-416.1 552.73,-410.87 542.27,-409.21 543.52,-416.1"/>
</a>
</g>
</g>
<!-- Node18&#45;&gt;Node3 -->
<g id="edge41_Node000018_Node000003" class="edge">
<title>Node18&#45;&gt;Node3</title>
<g id="a_edge41_Node000018_Node000003"><a xlink:title=" ">
<path fill="none" stroke="#63b8ff" d="M558.63,-361.6C502.62,-368.52 422.55,-380.38 354,-398 327.87,-404.72 298.89,-415.58 279.37,-423.42"/>
<polygon fill="#63b8ff" stroke="#63b8ff" points="559.29,-365.04 568.8,-360.36 558.45,-358.09 559.29,-365.04"/>
</a>
</g>
</g>
<!-- Node18&#45;&gt;Node6 -->
<g id="edge42_Node000018_Node000006" class="edge">
<title>Node18&#45;&gt;Node6</title>
<g id="a_edge42_Node000018_Node000006"><a xlink:title=" ">
<path fill="none" stroke="#63b8ff" d="M564.12,-366.05C556.57,-368.07 549.05,-370.38 542,-373 505.44,-386.56 466.06,-410.27 445.45,-423.46"/>
<polygon fill="#63b8ff" stroke="#63b8ff" points="565.18,-369.39 574.03,-363.55 563.47,-362.6 565.18,-369.39"/>
</a>
</g>
</g>
<!-- Node19&#45;&gt;Node3 -->
<g id="edge44_Node000019_Node000003" class="edge">
<title>Node19&#45;&gt;Node3</title>
<g id="a_edge44_Node000019_Node000003"><a xlink:title=" ">
<path fill="none" stroke="#63b8ff" d="M536.35,-323.07C481.66,-329.09 412,-341.1 354,-365 318.89,-379.47 283.88,-408.27 266.97,-423.32"/>
<polygon fill="#63b8ff" stroke="#63b8ff" points="536.81,-326.54 546.38,-322.01 536.07,-319.58 536.81,-326.54"/>
</a>
</g>
</g>
<!-- Node19&#45;&gt;Node6 -->
<g id="edge45_Node000019_Node000006" class="edge">
<title>Node19&#45;&gt;Node6</title>
<g id="a_edge45_Node000019_Node000006"><a xlink:title=" ">
<path fill="none" stroke="#63b8ff" d="M557.24,-329.59C551.97,-331.44 546.83,-333.57 542,-336 497.2,-358.57 455.93,-403.44 439.05,-423.23"/>
<polygon fill="#63b8ff" stroke="#63b8ff" points="558.36,-332.91 566.83,-326.54 556.24,-326.24 558.36,-332.91"/>
</a>
</g>
</g>
<!-- Node20&#45;&gt;Node3 -->
<g id="edge47_Node000020_Node000003" class="edge">
<title>Node20&#45;&gt;Node3</title>
<g id="a_edge47_Node000020_Node000003"><a xlink:title=" ">
<path fill="none" stroke="#63b8ff" d="M554.58,-278.25C496.63,-279.93 415.9,-289.16 354,-323 308.99,-347.61 274.56,-401.38 261.84,-423.36"/>
<polygon fill="#63b8ff" stroke="#63b8ff" points="554.85,-281.74 564.77,-278.02 554.69,-274.75 554.85,-281.74"/>
</a>
</g>
</g>
<!-- Node20&#45;&gt;Node6 -->
<g id="edge48_Node000020_Node000006" class="edge">
<title>Node20&#45;&gt;Node6</title>
<g id="a_edge48_Node000020_Node000006"><a xlink:title=" ">
<path fill="none" stroke="#63b8ff" d="M555.21,-292.37C550.6,-294.27 546.16,-296.47 542,-299 488.85,-331.37 449.36,-398.41 435.97,-423.37"/>
<polygon fill="#63b8ff" stroke="#63b8ff" points="556.65,-295.57 564.84,-288.85 554.25,-288.99 556.65,-295.57"/>
</a>
</g>
</g>
<!-- Node21&#45;&gt;Node3 -->
<g id="edge50_Node000021_Node000003" class="edge">
<title>Node21&#45;&gt;Node3</title>
<g id="a_edge50_Node000021_Node000003"><a xlink:title=" ">
<path fill="none" stroke="#63b8ff" d="M531.4,-235.17C475.46,-235.3 406.22,-243.7 354,-277 297.45,-313.06 268.07,-394.93 259.33,-423.19"/>
<polygon fill="#63b8ff" stroke="#63b8ff" points="531.66,-238.67 541.69,-235.24 531.71,-231.67 531.66,-238.67"/>
</a>
</g>
</g>
<!-- Node21&#45;&gt;Node6 -->
<g id="edge51_Node000021_Node000006" class="edge">
<title>Node21&#45;&gt;Node6</title>
<g id="a_edge51_Node000021_Node000006"><a xlink:title=" ">
<path fill="none" stroke="#63b8ff" d="M551.12,-256.61C547.94,-258.21 544.88,-260 542,-262 480.29,-304.68 444.66,-393.94 434.24,-423.36"/>
<polygon fill="#63b8ff" stroke="#63b8ff" points="552.6,-259.78 560.34,-252.55 549.78,-253.37 552.6,-259.78"/>
</a>
</g>
</g>
<!-- Node22&#45;&gt;Node3 -->
<g id="edge53_Node000022_Node000003" class="edge">
<title>Node22&#45;&gt;Node3</title>
<g id="a_edge53_Node000022_Node000003"><a xlink:title=" ">
<path fill="none" stroke="#63b8ff" d="M566.45,-195.24C506.54,-188.45 416.3,-187.84 354,-231 284.86,-278.9 262.98,-389.78 257.83,-423.25"/>
<polygon fill="#63b8ff" stroke="#63b8ff" points="566.18,-198.73 576.53,-196.47 567.02,-191.78 566.18,-198.73"/>
</a>
</g>
</g>
<!-- Node22&#45;&gt;Node6 -->
<g id="edge54_Node000022_Node000006" class="edge">
<title>Node22&#45;&gt;Node6</title>
<g id="a_edge54_Node000022_Node000006"><a xlink:title=" ">
<path fill="none" stroke="#63b8ff" d="M549.48,-220.09C546.87,-221.58 544.37,-223.21 542,-225 471.5,-278.35 440.95,-389.75 433.12,-423.26"/>
<polygon fill="#63b8ff" stroke="#63b8ff" points="551.23,-223.13 558.68,-215.6 548.15,-216.84 551.23,-223.13"/>
</a>
</g>
</g>
<!-- Node23&#45;&gt;Node3 -->
<g id="edge56_Node000023_Node000003" class="edge">
<title>Node23&#45;&gt;Node3</title>
<g id="a_edge56_Node000023_Node000003"><a xlink:title=" ">
<path fill="none" stroke="#63b8ff" d="M579.17,-157.55C519.63,-146.91 419.81,-139.08 354,-187 272.3,-246.5 259.02,-385.41 256.89,-423.3"/>
<polygon fill="#63b8ff" stroke="#63b8ff" points="578.61,-161 589.09,-159.41 579.91,-154.12 578.61,-161"/>
</a>
</g>
</g>
<!-- Node23&#45;&gt;Node6 -->
<g id="edge57_Node000023_Node000006" class="edge">
<title>Node23&#45;&gt;Node6</title>
<g id="a_edge57_Node000023_Node000006"><a xlink:title=" ">
<path fill="none" stroke="#63b8ff" d="M557.58,-178.62C551.99,-181.12 546.7,-184.2 542,-188 462.31,-252.47 437.67,-386.5 432.27,-423.41"/>
<polygon fill="#63b8ff" stroke="#63b8ff" points="559.12,-181.78 567.23,-174.95 556.64,-175.24 559.12,-181.78"/>
</a>
</g>
</g>
<!-- Node24&#45;&gt;Node3 -->
<g id="edge59_Node000024_Node000003" class="edge">
<title>Node24&#45;&gt;Node3</title>
<g id="a_edge59_Node000024_Node000003"><a xlink:title=" ">
<path fill="none" stroke="#63b8ff" d="M546.72,-125.99C476.85,-122.65 383.38,-122.86 354,-145 259.99,-215.85 255.78,-381.8 256.26,-423.41"/>
<polygon fill="#63b8ff" stroke="#63b8ff" points="546.68,-129.5 556.85,-126.51 547.04,-122.5 546.68,-129.5"/>
</a>
</g>
</g>
<!-- Node24&#45;&gt;Node6 -->
<g id="edge60_Node000024_Node000006" class="edge">
<title>Node24&#45;&gt;Node6</title>
<g id="a_edge60_Node000024_Node000006"><a xlink:title=" ">
<path fill="none" stroke="#63b8ff" d="M547.72,-146.7C545.73,-148.02 543.82,-149.45 542,-151 453.07,-226.73 434.9,-383.18 431.65,-423.41"/>
<polygon fill="#63b8ff" stroke="#63b8ff" points="549.88,-149.51 556.91,-141.58 546.47,-143.39 549.88,-149.51"/>
</a>
</g>
</g>
<!-- Node25&#45;&gt;Node3 -->
<g id="edge62_Node000025_Node000003" class="edge">
<title>Node25&#45;&gt;Node3</title>
<g id="a_edge62_Node000025_Node000003"><a xlink:title=" ">
<path fill="none" stroke="#63b8ff" d="M575.58,-83.81C514.97,-74.4 416.47,-69.51 354,-120 254.85,-200.14 254.56,-379.68 256.04,-423.31"/>
<polygon fill="#63b8ff" stroke="#63b8ff" points="575.27,-87.31 585.7,-85.48 576.41,-80.4 575.27,-87.31"/>
</a>
</g>
</g>
<!-- Node25&#45;&gt;Node6 -->
<g id="edge63_Node000025_Node000006" class="edge">
<title>Node25&#45;&gt;Node6</title>
<g id="a_edge63_Node000025_Node000006"><a xlink:title=" ">
<path fill="none" stroke="#63b8ff" d="M556.27,-104.62C551.11,-107.13 546.27,-110.22 542,-114 443.73,-201.15 432.45,-380.02 431.16,-423.38"/>
<polygon fill="#63b8ff" stroke="#63b8ff" points="557.93,-107.72 565.86,-100.69 555.28,-101.24 557.93,-107.72"/>
</a>
</g>
</g>
<!-- Node26&#45;&gt;Node3 -->
<g id="edge65_Node000026_Node000003" class="edge">
<title>Node26&#45;&gt;Node3</title>
<g id="a_edge65_Node000026_Node000003"><a xlink:title=" ">
<path fill="none" stroke="#63b8ff" d="M557.53,-52.75C486.57,-49.1 384.16,-48.59 354,-73 296.37,-119.64 263.83,-370.91 257.6,-423.39"/>
<polygon fill="#63b8ff" stroke="#63b8ff" points="557.58,-56.25 567.76,-53.3 557.96,-49.26 557.58,-56.25"/>
</a>
</g>
</g>
<!-- Node26&#45;&gt;Node6 -->
<g id="edge66_Node000026_Node000006" class="edge">
<title>Node26&#45;&gt;Node6</title>
<g id="a_edge66_Node000026_Node000006"><a xlink:title=" ">
<path fill="none" stroke="#63b8ff" d="M558.29,-66.44C552.35,-69.15 546.79,-72.61 542,-77 434.37,-175.63 430.23,-376.73 430.77,-423.24"/>
<polygon fill="#63b8ff" stroke="#63b8ff" points="559.82,-69.6 567.9,-62.75 557.31,-63.06 559.82,-69.6"/>
</a>
</g>
</g>
<!-- Node27&#45;&gt;Node3 -->
<g id="edge68_Node000027_Node000003" class="edge">
<title>Node27&#45;&gt;Node3</title>
<g id="a_edge68_Node000027_Node000003"><a xlink:title=" ">
<path fill="none" stroke="#63b8ff" d="M555.24,-2.55C494.01,3.36 408.44,0.71 354,-47 294.22,-99.39 263.16,-369.22 257.46,-423.49"/>
<polygon fill="#63b8ff" stroke="#63b8ff" points="554.92,-6.03 565.23,-3.61 555.65,0.93 554.92,-6.03"/>
</a>
</g>
</g>
<!-- Node27&#45;&gt;Node6 -->
<g id="edge69_Node000027_Node000006" class="edge">
<title>Node27&#45;&gt;Node6</title>
<g id="a_edge69_Node000027_Node000006"><a xlink:title=" ">
<path fill="none" stroke="#63b8ff" d="M556.28,-28.48C551.05,-31.36 546.2,-34.82 542,-39 427.62,-152.76 428.81,-374.56 430.55,-423.36"/>
<polygon fill="#63b8ff" stroke="#63b8ff" points="557.83,-31.62 565.38,-24.18 554.84,-25.29 557.83,-31.62"/>
</a>
</g>
</g>
</g>
</svg>
