<?xml version="1.0" encoding="UTF-8" standalone="no"?>
<!DOCTYPE svg PUBLIC "-//W3C//DTD SVG 1.1//EN"
 "http://www.w3.org/Graphics/SVG/1.1/DTD/svg11.dtd">
<!-- Generated by graphviz version 2.43.0 (0)
 -->
<!-- Title: lci::post_comm_x::operator() Pages: 1 -->
<svg width="891pt" height="977pt"
 viewBox="0.00 0.00 891.00 976.91" xmlns="http://www.w3.org/2000/svg" xmlns:xlink="http://www.w3.org/1999/xlink">
<g id="graph0" class="graph" transform="scale(1 1) rotate(0) translate(4 972.91)">
<title>lci::post_comm_x::operator()</title>
<!-- Node1 -->
<g id="Node000001" class="node">
<title>Node1</title>
<g id="a_Node000001"><a xlink:title=" ">
<polygon fill="#999999" stroke="#666666" points="157,-486.91 0,-486.91 0,-467.91 157,-467.91 157,-486.91"/>
<text text-anchor="middle" x="78.5" y="-474.91" font-family="Helvetica,sans-Serif" font-size="10.00">lci::post_comm_x::operator()</text>
</a>
</g>
</g>
<!-- Node2 -->
<g id="Node000002" class="node">
<title>Node2</title>
<g id="a_Node000002"><a xlink:href="../../d8/d48/classlci_1_1post__comm__x.html#a0e18f25200cd26b05cceda73dd2cfab9" target="_top" xlink:title=" ">
<polygon fill="white" stroke="#666666" points="318,-486.91 193,-486.91 193,-467.91 318,-467.91 318,-486.91"/>
<text text-anchor="middle" x="255.5" y="-474.91" font-family="Helvetica,sans-Serif" font-size="10.00">lci::post_comm_x::call</text>
</a>
</g>
</g>
<!-- Node1&#45;&gt;Node2 -->
<g id="edge1_Node000001_Node000002" class="edge">
<title>Node1&#45;&gt;Node2</title>
<g id="a_edge1_Node000001_Node000002"><a xlink:title=" ">
<path fill="none" stroke="#63b8ff" d="M157.02,-477.41C165.54,-477.41 174.18,-477.41 182.62,-477.41"/>
<polygon fill="#63b8ff" stroke="#63b8ff" points="182.8,-480.91 192.8,-477.41 182.8,-473.91 182.8,-480.91"/>
</a>
</g>
</g>
<!-- Node3 -->
<g id="Node000003" class="node">
<title>Node3</title>
<g id="a_Node000003"><a xlink:href="../../d8/d48/classlci_1_1post__comm__x.html#a9d02814a94c01ec00d6dc0bca83d3f1e" target="_top" xlink:title=" ">
<polygon fill="white" stroke="#666666" points="712,-968.91 548,-968.91 548,-949.91 712,-949.91 712,-968.91"/>
<text text-anchor="middle" x="630" y="-956.91" font-family="Helvetica,sans-Serif" font-size="10.00">lci::post_comm_x::allow_done</text>
</a>
</g>
</g>
<!-- Node2&#45;&gt;Node3 -->
<g id="edge2_Node000002_Node000003" class="edge">
<title>Node2&#45;&gt;Node3</title>
<g id="a_edge2_Node000002_Node000003"><a xlink:title=" ">
<path fill="none" stroke="#63b8ff" d="M257.4,-487.25C262.84,-544.6 293.17,-835.51 354,-896.41 401.69,-944.16 477.7,-958.76 537.74,-962.07"/>
<polygon fill="#63b8ff" stroke="#63b8ff" points="537.84,-965.57 547.99,-962.53 538.16,-958.58 537.84,-965.57"/>
</a>
</g>
</g>
<!-- Node5 -->
<g id="Node000005" class="node">
<title>Node5</title>
<g id="a_Node000005"><a xlink:href="../../d8/d48/classlci_1_1post__comm__x.html#ae3d784bab8848569e70f6caa5d0d3c9d" target="_top" xlink:title=" ">
<polygon fill="white" stroke="#666666" points="697,-931.41 563,-931.41 563,-901.41 697,-901.41 697,-931.41"/>
<text text-anchor="start" x="571" y="-919.41" font-family="Helvetica,sans-Serif" font-size="10.00">lci::post_comm_x::allow</text>
<text text-anchor="middle" x="630" y="-908.41" font-family="Helvetica,sans-Serif" font-size="10.00">_posted</text>
</a>
</g>
</g>
<!-- Node2&#45;&gt;Node5 -->
<g id="edge4_Node000002_Node000005" class="edge">
<title>Node2&#45;&gt;Node5</title>
<g id="a_edge4_Node000002_Node000005"><a xlink:title=" ">
<path fill="none" stroke="#63b8ff" d="M257.69,-487.23C264.39,-540.82 299.05,-797.71 354,-851.41 406.34,-902.57 491.08,-916.18 552.67,-918.63"/>
<polygon fill="#63b8ff" stroke="#63b8ff" points="552.63,-922.13 562.73,-918.94 552.85,-915.13 552.63,-922.13"/>
</a>
</g>
</g>
<!-- Node6 -->
<g id="Node000006" class="node">
<title>Node6</title>
<g id="a_Node000006"><a xlink:href="../../d8/d48/classlci_1_1post__comm__x.html#af2e9941ebbea16b2eaf5e1971b7c0e2a" target="_top" xlink:title=" ">
<polygon fill="white" stroke="#666666" points="697,-883.41 563,-883.41 563,-853.41 697,-853.41 697,-883.41"/>
<text text-anchor="start" x="571" y="-871.41" font-family="Helvetica,sans-Serif" font-size="10.00">lci::post_comm_x::allow</text>
<text text-anchor="middle" x="630" y="-860.41" font-family="Helvetica,sans-Serif" font-size="10.00">_retry</text>
</a>
</g>
</g>
<!-- Node2&#45;&gt;Node6 -->
<g id="edge6_Node000002_Node000006" class="edge">
<title>Node2&#45;&gt;Node6</title>
<g id="a_edge6_Node000002_Node000006"><a xlink:title=" ">
<path fill="none" stroke="#63b8ff" d="M256.11,-487.02C254.89,-531.11 255.95,-715.91 354,-807.41 407.26,-857.12 491.64,-869.63 552.9,-871.41"/>
<polygon fill="#63b8ff" stroke="#63b8ff" points="552.84,-874.91 562.91,-871.61 552.98,-867.91 552.84,-874.91"/>
</a>
</g>
</g>
<!-- Node7 -->
<g id="Node000007" class="node">
<title>Node7</title>
<g id="a_Node000007"><a xlink:href="../../d8/d48/classlci_1_1post__comm__x.html#afb8fa49b57ef32da67e8686b33eca31a" target="_top" xlink:title=" ">
<polygon fill="white" stroke="#666666" points="701,-834.91 559,-834.91 559,-815.91 701,-815.91 701,-834.91"/>
<text text-anchor="middle" x="630" y="-822.91" font-family="Helvetica,sans-Serif" font-size="10.00">lci::post_comm_x::buffers</text>
</a>
</g>
</g>
<!-- Node2&#45;&gt;Node7 -->
<g id="edge8_Node000002_Node000007" class="edge">
<title>Node2&#45;&gt;Node7</title>
<g id="a_edge8_Node000002_Node000007"><a xlink:title=" ">
<path fill="none" stroke="#63b8ff" d="M256.62,-487.08C257.7,-527.63 267.49,-685.44 354,-763.41 406.75,-810.96 488.05,-824.53 548.59,-827.36"/>
<polygon fill="#63b8ff" stroke="#63b8ff" points="548.76,-830.87 558.88,-827.75 549.02,-823.87 548.76,-830.87"/>
</a>
</g>
</g>
<!-- Node8 -->
<g id="Node000008" class="node">
<title>Node8</title>
<g id="a_Node000008"><a xlink:href="../../d8/d48/classlci_1_1post__comm__x.html#ab77cac8d000a6b317fcdff20cf818d2d" target="_top" xlink:title=" ">
<polygon fill="white" stroke="#666666" points="506,-486.91 354,-486.91 354,-467.91 506,-467.91 506,-486.91"/>
<text text-anchor="middle" x="430" y="-474.91" font-family="Helvetica,sans-Serif" font-size="10.00">lci::post_comm_x::call_impl</text>
</a>
</g>
</g>
<!-- Node2&#45;&gt;Node8 -->
<g id="edge10_Node000002_Node000008" class="edge">
<title>Node2&#45;&gt;Node8</title>
<g id="a_edge10_Node000002_Node000008"><a xlink:title=" ">
<path fill="none" stroke="#63b8ff" d="M318.29,-477.41C326.56,-477.41 335.15,-477.41 343.74,-477.41"/>
<polygon fill="#63b8ff" stroke="#63b8ff" points="343.78,-480.91 353.78,-477.41 343.78,-473.91 343.78,-480.91"/>
</a>
</g>
</g>
<!-- Node9 -->
<g id="Node000009" class="node">
<title>Node9</title>
<g id="a_Node000009"><a xlink:href="../../d8/d48/classlci_1_1post__comm__x.html#ae7b576a0cfbce10d5b9d83f3df130397" target="_top" xlink:title=" ">
<polygon fill="white" stroke="#666666" points="697.5,-797.41 562.5,-797.41 562.5,-767.41 697.5,-767.41 697.5,-797.41"/>
<text text-anchor="start" x="570.5" y="-785.41" font-family="Helvetica,sans-Serif" font-size="10.00">lci::post_comm_x::comp</text>
<text text-anchor="middle" x="630" y="-774.41" font-family="Helvetica,sans-Serif" font-size="10.00">_semantic</text>
</a>
</g>
</g>
<!-- Node2&#45;&gt;Node9 -->
<g id="edge55_Node000002_Node000009" class="edge">
<title>Node2&#45;&gt;Node9</title>
<g id="a_edge55_Node000002_Node000009"><a xlink:title=" ">
<path fill="none" stroke="#63b8ff" d="M257.23,-486.93C260.56,-523.54 277.7,-656.57 354,-721.41 408.86,-768.05 491.58,-781.22 551.97,-783.99"/>
<polygon fill="#63b8ff" stroke="#63b8ff" points="552.09,-787.5 562.21,-784.37 552.35,-780.5 552.09,-787.5"/>
</a>
</g>
</g>
<!-- Node10 -->
<g id="Node000010" class="node">
<title>Node10</title>
<g id="a_Node000010"><a xlink:href="../../d8/d48/classlci_1_1post__comm__x.html#aeba95544c83eb0d890dbba7bc3216629" target="_top" xlink:title=" ">
<polygon fill="white" stroke="#666666" points="700,-748.91 560,-748.91 560,-729.91 700,-729.91 700,-748.91"/>
<text text-anchor="middle" x="630" y="-736.91" font-family="Helvetica,sans-Serif" font-size="10.00">lci::post_comm_x::device</text>
</a>
</g>
</g>
<!-- Node2&#45;&gt;Node10 -->
<g id="edge56_Node000002_Node000010" class="edge">
<title>Node2&#45;&gt;Node10</title>
<g id="a_edge56_Node000002_Node000010"><a xlink:title=" ">
<path fill="none" stroke="#63b8ff" d="M258.13,-487.36C264.11,-520.53 288.05,-628.29 354,-680.41 409.41,-724.21 489.98,-737.35 549.61,-740.5"/>
<polygon fill="#63b8ff" stroke="#63b8ff" points="549.59,-744 559.73,-740.95 549.9,-737.01 549.59,-744"/>
</a>
</g>
</g>
<!-- Node11 -->
<g id="Node000011" class="node">
<title>Node11</title>
<g id="a_Node000011"><a xlink:href="../../d8/d48/classlci_1_1post__comm__x.html#acff8c179998df3f0403b417e0e21bb6c" target="_top" xlink:title=" ">
<polygon fill="white" stroke="#666666" points="705.5,-711.91 554.5,-711.91 554.5,-692.91 705.5,-692.91 705.5,-711.91"/>
<text text-anchor="middle" x="630" y="-699.91" font-family="Helvetica,sans-Serif" font-size="10.00">lci::post_comm_x::direction</text>
</a>
</g>
</g>
<!-- Node2&#45;&gt;Node11 -->
<g id="edge57_Node000002_Node000011" class="edge">
<title>Node2&#45;&gt;Node11</title>
<g id="a_edge57_Node000002_Node000011"><a xlink:title=" ">
<path fill="none" stroke="#63b8ff" d="M259.43,-487.28C268.4,-515.77 298.38,-598.69 354,-639.41 409.08,-679.74 485.71,-694.83 544.08,-700.21"/>
<polygon fill="#63b8ff" stroke="#63b8ff" points="544.13,-703.73 554.39,-701.08 544.72,-696.75 544.13,-703.73"/>
</a>
</g>
</g>
<!-- Node12 -->
<g id="Node000012" class="node">
<title>Node12</title>
<g id="a_Node000012"><a xlink:href="../../d8/d48/classlci_1_1post__comm__x.html#ae0c9922b3e26b41b2233e1ad7c544285" target="_top" xlink:title=" ">
<polygon fill="white" stroke="#666666" points="705.5,-674.91 554.5,-674.91 554.5,-655.91 705.5,-655.91 705.5,-674.91"/>
<text text-anchor="middle" x="630" y="-662.91" font-family="Helvetica,sans-Serif" font-size="10.00">lci::post_comm_x::endpoint</text>
</a>
</g>
</g>
<!-- Node2&#45;&gt;Node12 -->
<g id="edge58_Node000002_Node000012" class="edge">
<title>Node2&#45;&gt;Node12</title>
<g id="a_edge58_Node000002_Node000012"><a xlink:title=" ">
<path fill="none" stroke="#63b8ff" d="M261.38,-487.02C273.62,-510.07 307.93,-568.8 354,-598.41 411.13,-635.13 486.72,-651.73 544.19,-659.24"/>
<polygon fill="#63b8ff" stroke="#63b8ff" points="543.99,-662.74 554.34,-660.49 544.85,-655.79 543.99,-662.74"/>
</a>
</g>
</g>
<!-- Node13 -->
<g id="Node000013" class="node">
<title>Node13</title>
<g id="a_Node000013"><a xlink:href="../../d8/d48/classlci_1_1post__comm__x.html#ab8750ce06a3cd00c64d39ad5315827e2" target="_top" xlink:title=" ">
<polygon fill="white" stroke="#666666" points="696.5,-637.41 563.5,-637.41 563.5,-607.41 696.5,-607.41 696.5,-637.41"/>
<text text-anchor="start" x="571.5" y="-625.41" font-family="Helvetica,sans-Serif" font-size="10.00">lci::post_comm_x::force</text>
<text text-anchor="middle" x="630" y="-614.41" font-family="Helvetica,sans-Serif" font-size="10.00">_zcopy</text>
</a>
</g>
</g>
<!-- Node2&#45;&gt;Node13 -->
<g id="edge59_Node000002_Node000013" class="edge">
<title>Node2&#45;&gt;Node13</title>
<g id="a_edge59_Node000002_Node000013"><a xlink:title=" ">
<path fill="none" stroke="#63b8ff" d="M264.51,-487.06C279.9,-504.92 315.48,-543.05 354,-562.41 416.91,-594.05 496.13,-609.08 553.36,-616.18"/>
<polygon fill="#63b8ff" stroke="#63b8ff" points="553.08,-619.67 563.43,-617.37 553.91,-612.72 553.08,-619.67"/>
</a>
</g>
</g>
<!-- Node14 -->
<g id="Node000014" class="node">
<title>Node14</title>
<g id="a_Node000014"><a xlink:href="../../d8/d48/classlci_1_1post__comm__x.html#a5fbebcb64ab56a952dee33be796101b5" target="_top" xlink:title=" ">
<polygon fill="white" stroke="#666666" points="695.5,-589.41 564.5,-589.41 564.5,-559.41 695.5,-559.41 695.5,-589.41"/>
<text text-anchor="start" x="572.5" y="-577.41" font-family="Helvetica,sans-Serif" font-size="10.00">lci::post_comm_x::local</text>
<text text-anchor="middle" x="630" y="-566.41" font-family="Helvetica,sans-Serif" font-size="10.00">_buffer</text>
</a>
</g>
</g>
<!-- Node2&#45;&gt;Node14 -->
<g id="edge60_Node000002_Node000014" class="edge">
<title>Node2&#45;&gt;Node14</title>
<g id="a_edge60_Node000002_Node000014"><a xlink:title=" ">
<path fill="none" stroke="#63b8ff" d="M269.61,-487.1C287.63,-499.89 321.55,-522.13 354,-533.41 419.35,-556.14 497.72,-566.27 554.06,-570.79"/>
<polygon fill="#63b8ff" stroke="#63b8ff" points="554.07,-574.3 564.31,-571.57 554.6,-567.32 554.07,-574.3"/>
</a>
</g>
</g>
<!-- Node15 -->
<g id="Node000015" class="node">
<title>Node15</title>
<g id="a_Node000015"><a xlink:href="../../d8/d48/classlci_1_1post__comm__x.html#ac305197d2165dae6d99957db8a10b1ec" target="_top" xlink:title=" ">
<polygon fill="white" stroke="#666666" points="712,-540.91 548,-540.91 548,-521.91 712,-521.91 712,-540.91"/>
<text text-anchor="middle" x="630" y="-528.91" font-family="Helvetica,sans-Serif" font-size="10.00">lci::post_comm_x::local_comp</text>
</a>
</g>
</g>
<!-- Node2&#45;&gt;Node15 -->
<g id="edge61_Node000002_Node000015" class="edge">
<title>Node2&#45;&gt;Node15</title>
<g id="a_edge61_Node000002_Node000015"><a xlink:title=" ">
<path fill="none" stroke="#63b8ff" d="M278.49,-486.96C297.95,-494.94 327.32,-505.89 354,-511.41 414.44,-523.92 483.76,-528.9 537.68,-530.77"/>
<polygon fill="#63b8ff" stroke="#63b8ff" points="537.8,-534.27 547.91,-531.09 538.03,-527.28 537.8,-534.27"/>
</a>
</g>
</g>
<!-- Node16 -->
<g id="Node000016" class="node">
<title>Node16</title>
<g id="a_Node000016"><a xlink:href="../../d8/d48/classlci_1_1post__comm__x.html#a3b0aeb006ad6399eead4c36de986bfe9" target="_top" xlink:title=" ">
<polygon fill="white" stroke="#666666" points="707,-503.41 553,-503.41 553,-473.41 707,-473.41 707,-503.41"/>
<text text-anchor="start" x="561" y="-491.41" font-family="Helvetica,sans-Serif" font-size="10.00">lci::post_comm_x::matching</text>
<text text-anchor="middle" x="630" y="-480.41" font-family="Helvetica,sans-Serif" font-size="10.00">_engine</text>
</a>
</g>
</g>
<!-- Node2&#45;&gt;Node16 -->
<g id="edge62_Node000002_Node000016" class="edge">
<title>Node2&#45;&gt;Node16</title>
<g id="a_edge62_Node000002_Node000016"><a xlink:title=" ">
<path fill="none" stroke="#63b8ff" d="M296.09,-486.93C313.71,-490.69 334.77,-494.56 354,-496.41 416.98,-502.49 488.41,-500.14 542.68,-496.45"/>
<polygon fill="#63b8ff" stroke="#63b8ff" points="543.23,-499.92 552.96,-495.72 542.74,-492.94 543.23,-499.92"/>
</a>
</g>
</g>
<!-- Node17 -->
<g id="Node000017" class="node">
<title>Node17</title>
<g id="a_Node000017"><a xlink:href="../../d8/d48/classlci_1_1post__comm__x.html#af4a99ff113c37ad6618b8c0ead4961de" target="_top" xlink:title=" ">
<polygon fill="white" stroke="#666666" points="707,-455.41 553,-455.41 553,-425.41 707,-425.41 707,-455.41"/>
<text text-anchor="start" x="561" y="-443.41" font-family="Helvetica,sans-Serif" font-size="10.00">lci::post_comm_x::matching</text>
<text text-anchor="middle" x="630" y="-432.41" font-family="Helvetica,sans-Serif" font-size="10.00">_policy</text>
</a>
</g>
</g>
<!-- Node2&#45;&gt;Node17 -->
<g id="edge63_Node000002_Node000017" class="edge">
<title>Node2&#45;&gt;Node17</title>
<g id="a_edge63_Node000002_Node000017"><a xlink:title=" ">
<path fill="none" stroke="#63b8ff" d="M301.97,-467.91C318.31,-464.79 336.92,-461.57 354,-459.41 416.89,-451.46 488.33,-446.65 542.63,-443.86"/>
<polygon fill="#63b8ff" stroke="#63b8ff" points="543.09,-447.34 552.9,-443.35 542.74,-440.35 543.09,-447.34"/>
</a>
</g>
</g>
<!-- Node18 -->
<g id="Node000018" class="node">
<title>Node18</title>
<g id="a_Node000018"><a xlink:href="../../d8/d48/classlci_1_1post__comm__x.html#acc7a3e0f3f2f3b4f60c1cbf721955430" target="_top" xlink:title=" ">
<polygon fill="white" stroke="#666666" points="691,-406.91 569,-406.91 569,-387.91 691,-387.91 691,-406.91"/>
<text text-anchor="middle" x="630" y="-394.91" font-family="Helvetica,sans-Serif" font-size="10.00">lci::post_comm_x::mr</text>
</a>
</g>
</g>
<!-- Node2&#45;&gt;Node18 -->
<g id="edge64_Node000002_Node000018" class="edge">
<title>Node2&#45;&gt;Node18</title>
<g id="a_edge64_Node000002_Node000018"><a xlink:title=" ">
<path fill="none" stroke="#63b8ff" d="M278.56,-467.86C298.07,-459.75 327.47,-448.36 354,-441.41 422.47,-423.48 502.56,-411.67 558.58,-404.84"/>
<polygon fill="#63b8ff" stroke="#63b8ff" points="559.24,-408.29 568.76,-403.63 558.41,-401.34 559.24,-408.29"/>
</a>
</g>
</g>
<!-- Node19 -->
<g id="Node000019" class="node">
<title>Node19</title>
<g id="a_Node000019"><a xlink:href="../../d8/d48/classlci_1_1post__comm__x.html#a97897d1d8d6b9536ed256043814d2326" target="_top" xlink:title=" ">
<polygon fill="white" stroke="#666666" points="713.5,-369.91 546.5,-369.91 546.5,-350.91 713.5,-350.91 713.5,-369.91"/>
<text text-anchor="middle" x="630" y="-357.91" font-family="Helvetica,sans-Serif" font-size="10.00">lci::post_comm_x::packet_pool</text>
</a>
</g>
</g>
<!-- Node2&#45;&gt;Node19 -->
<g id="edge65_Node000002_Node000019" class="edge">
<title>Node2&#45;&gt;Node19</title>
<g id="a_edge65_Node000002_Node000019"><a xlink:title=" ">
<path fill="none" stroke="#63b8ff" d="M266.63,-467.68C283.35,-452.22 318.43,-422.28 354,-407.41 411.84,-383.23 481.5,-371.49 536.24,-365.79"/>
<polygon fill="#63b8ff" stroke="#63b8ff" points="536.67,-369.26 546.28,-364.79 535.98,-362.3 536.67,-369.26"/>
</a>
</g>
</g>
<!-- Node20 -->
<g id="Node000020" class="node">
<title>Node20</title>
<g id="a_Node000020"><a xlink:href="../../d8/d48/classlci_1_1post__comm__x.html#a585bbb73afe075d1ee694782f3790ba3" target="_top" xlink:title=" ">
<polygon fill="white" stroke="#666666" points="695,-332.91 565,-332.91 565,-313.91 695,-313.91 695,-332.91"/>
<text text-anchor="middle" x="630" y="-320.91" font-family="Helvetica,sans-Serif" font-size="10.00">lci::post_comm_x::rank</text>
</a>
</g>
</g>
<!-- Node2&#45;&gt;Node20 -->
<g id="edge66_Node000002_Node000020" class="edge">
<title>Node2&#45;&gt;Node20</title>
<g id="a_edge66_Node000002_Node000020"><a xlink:title=" ">
<path fill="none" stroke="#63b8ff" d="M261.78,-467.59C274.39,-445.19 308.6,-390.4 354,-365.41 415.87,-331.37 496.78,-322.51 554.79,-321.18"/>
<polygon fill="#63b8ff" stroke="#63b8ff" points="555.04,-324.68 564.99,-321.02 554.93,-317.68 555.04,-324.68"/>
</a>
</g>
</g>
<!-- Node21 -->
<g id="Node000021" class="node">
<title>Node21</title>
<g id="a_Node000021"><a xlink:href="../../d8/d48/classlci_1_1post__comm__x.html#a93dcbd1dd8c9601aae5b1a790168fa7a" target="_top" xlink:title=" ">
<polygon fill="white" stroke="#666666" points="703,-295.91 557,-295.91 557,-276.91 703,-276.91 703,-295.91"/>
<text text-anchor="middle" x="630" y="-283.91" font-family="Helvetica,sans-Serif" font-size="10.00">lci::post_comm_x::rbuffers</text>
</a>
</g>
</g>
<!-- Node2&#45;&gt;Node21 -->
<g id="edge67_Node000002_Node000021" class="edge">
<title>Node2&#45;&gt;Node21</title>
<g id="a_edge67_Node000002_Node000021"><a xlink:title=" ">
<path fill="none" stroke="#63b8ff" d="M259.17,-467.88C267.62,-439.63 296.69,-356.04 354,-319.41 411.05,-282.96 488.53,-276.62 546.71,-278.3"/>
<polygon fill="#63b8ff" stroke="#63b8ff" points="546.85,-281.81 556.97,-278.68 547.11,-274.81 546.85,-281.81"/>
</a>
</g>
</g>
<!-- Node22 -->
<g id="Node000022" class="node">
<title>Node22</title>
<g id="a_Node000022"><a xlink:href="../../d8/d48/classlci_1_1post__comm__x.html#a2e7b0182c47448aba2ac476d0515b204" target="_top" xlink:title=" ">
<polygon fill="white" stroke="#666666" points="718,-258.91 542,-258.91 542,-239.91 718,-239.91 718,-258.91"/>
<text text-anchor="middle" x="630" y="-246.91" font-family="Helvetica,sans-Serif" font-size="10.00">lci::post_comm_x::remote_comp</text>
</a>
</g>
</g>
<!-- Node2&#45;&gt;Node22 -->
<g id="edge68_Node000002_Node000022" class="edge">
<title>Node2&#45;&gt;Node22</title>
<g id="a_edge68_Node000002_Node000022"><a xlink:title=" ">
<path fill="none" stroke="#63b8ff" d="M257.82,-467.62C262.91,-433.98 284.63,-322.58 354,-274.41 416.35,-231.13 506.78,-231.82 566.7,-238.65"/>
<polygon fill="#63b8ff" stroke="#63b8ff" points="566.42,-242.15 576.78,-239.89 567.28,-235.2 566.42,-242.15"/>
</a>
</g>
</g>
<!-- Node23 -->
<g id="Node000023" class="node">
<title>Node23</title>
<g id="a_Node000023"><a xlink:href="../../d8/d48/classlci_1_1post__comm__x.html#aff40e0501e1d3575d07f5daa1e62131e" target="_top" xlink:title=" ">
<polygon fill="white" stroke="#666666" points="714.5,-221.91 545.5,-221.91 545.5,-202.91 714.5,-202.91 714.5,-221.91"/>
<text text-anchor="middle" x="630" y="-209.91" font-family="Helvetica,sans-Serif" font-size="10.00">lci::post_comm_x::remote_disp</text>
</a>
</g>
</g>
<!-- Node2&#45;&gt;Node23 -->
<g id="edge69_Node000002_Node000023" class="edge">
<title>Node2&#45;&gt;Node23</title>
<g id="a_edge69_Node000002_Node000023"><a xlink:title=" ">
<path fill="none" stroke="#63b8ff" d="M256.88,-467.68C258.95,-429.64 272.05,-290.18 354,-230.41 419.96,-182.31 520.16,-190.34 579.66,-201.04"/>
<polygon fill="#63b8ff" stroke="#63b8ff" points="579.08,-204.49 589.56,-202.91 580.38,-197.61 579.08,-204.49"/>
</a>
</g>
</g>
<!-- Node24 -->
<g id="Node000024" class="node">
<title>Node24</title>
<g id="a_Node000024"><a xlink:href="../../d8/d48/classlci_1_1post__comm__x.html#ac7c8004a77938b1252e4d6c00be2ecb1" target="_top" xlink:title=" ">
<polygon fill="white" stroke="#666666" points="692.5,-184.91 567.5,-184.91 567.5,-165.91 692.5,-165.91 692.5,-184.91"/>
<text text-anchor="middle" x="630" y="-172.91" font-family="Helvetica,sans-Serif" font-size="10.00">lci::post_comm_x::rmr</text>
</a>
</g>
</g>
<!-- Node2&#45;&gt;Node24 -->
<g id="edge70_Node000002_Node000024" class="edge">
<title>Node2&#45;&gt;Node24</title>
<g id="a_edge70_Node000002_Node000024"><a xlink:title=" ">
<path fill="none" stroke="#63b8ff" d="M256.24,-467.79C255.71,-426.04 259.73,-259.53 354,-188.41 384.87,-165.13 486.56,-166.08 557.23,-169.94"/>
<polygon fill="#63b8ff" stroke="#63b8ff" points="557.23,-173.45 567.42,-170.53 557.63,-166.46 557.23,-173.45"/>
</a>
</g>
</g>
<!-- Node25 -->
<g id="Node000025" class="node">
<title>Node25</title>
<g id="a_Node000025"><a xlink:href="../../d8/d48/classlci_1_1post__comm__x.html#a5e0a01b764e117c34c93ca67b4ac4ea1" target="_top" xlink:title=" ">
<polygon fill="white" stroke="#666666" points="703,-147.91 557,-147.91 557,-128.91 703,-128.91 703,-147.91"/>
<text text-anchor="middle" x="630" y="-135.91" font-family="Helvetica,sans-Serif" font-size="10.00">lci::post_comm_x::runtime</text>
</a>
</g>
</g>
<!-- Node2&#45;&gt;Node25 -->
<g id="edge71_Node000002_Node000025" class="edge">
<title>Node2&#45;&gt;Node25</title>
<g id="a_edge71_Node000002_Node000025"><a xlink:title=" ">
<path fill="none" stroke="#63b8ff" d="M256.03,-467.69C254.5,-423.93 254.59,-243.83 354,-163.41 416.45,-112.89 514.96,-117.8 575.57,-127.21"/>
<polygon fill="#63b8ff" stroke="#63b8ff" points="575.26,-130.71 585.7,-128.88 576.4,-123.8 575.26,-130.71"/>
</a>
</g>
</g>
<!-- Node26 -->
<g id="Node000026" class="node">
<title>Node26</title>
<g id="a_Node000026"><a xlink:href="../../d8/d48/classlci_1_1post__comm__x.html#ad5675593b1c63c632d12b4d829cfc17a" target="_top" xlink:title=" ">
<polygon fill="white" stroke="#666666" points="694,-110.91 566,-110.91 566,-91.91 694,-91.91 694,-110.91"/>
<text text-anchor="middle" x="630" y="-98.91" font-family="Helvetica,sans-Serif" font-size="10.00">lci::post_comm_x::size</text>
</a>
</g>
</g>
<!-- Node2&#45;&gt;Node26 -->
<g id="edge72_Node000002_Node000026" class="edge">
<title>Node2&#45;&gt;Node26</title>
<g id="a_edge72_Node000002_Node000026"><a xlink:title=" ">
<path fill="none" stroke="#63b8ff" d="M257.6,-467.78C263.8,-415.15 296.24,-163.2 354,-116.41 383.88,-92.21 484.77,-92.5 555.64,-96.06"/>
<polygon fill="#63b8ff" stroke="#63b8ff" points="555.7,-99.57 565.87,-96.61 556.07,-92.58 555.7,-99.57"/>
</a>
</g>
</g>
<!-- Node27 -->
<g id="Node000027" class="node">
<title>Node27</title>
<g id="a_Node000027"><a xlink:href="../../d8/d48/classlci_1_1post__comm__x.html#ac61d3e4ae9c78551510080c9080181af" target="_top" xlink:title=" ">
<polygon fill="white" stroke="#666666" points="692,-73.91 568,-73.91 568,-54.91 692,-54.91 692,-73.91"/>
<text text-anchor="middle" x="630" y="-61.91" font-family="Helvetica,sans-Serif" font-size="10.00">lci::post_comm_x::tag</text>
</a>
</g>
</g>
<!-- Node2&#45;&gt;Node27 -->
<g id="edge73_Node000002_Node000027" class="edge">
<title>Node2&#45;&gt;Node27</title>
<g id="a_edge73_Node000002_Node000027"><a xlink:title=" ">
<path fill="none" stroke="#63b8ff" d="M257.43,-467.83C262.97,-413.15 293.3,-141.34 354,-89.41 415.99,-36.39 517.06,-42.81 577.88,-53.08"/>
<polygon fill="#63b8ff" stroke="#63b8ff" points="577.56,-56.57 588.02,-54.89 578.79,-49.68 577.56,-56.57"/>
</a>
</g>
</g>
<!-- Node28 -->
<g id="Node000028" class="node">
<title>Node28</title>
<g id="a_Node000028"><a xlink:href="../../d8/d48/classlci_1_1post__comm__x.html#a77cf8049d80a743e5793fe1bfe47037b" target="_top" xlink:title=" ">
<polygon fill="white" stroke="#666666" points="694.5,-36.41 565.5,-36.41 565.5,-6.41 694.5,-6.41 694.5,-36.41"/>
<text text-anchor="start" x="573.5" y="-24.41" font-family="Helvetica,sans-Serif" font-size="10.00">lci::post_comm_x::user</text>
<text text-anchor="middle" x="630" y="-13.41" font-family="Helvetica,sans-Serif" font-size="10.00">_context</text>
</a>
</g>
</g>
<!-- Node2&#45;&gt;Node28 -->
<g id="edge74_Node000002_Node000028" class="edge">
<title>Node2&#45;&gt;Node28</title>
<g id="a_edge74_Node000002_Node000028"><a xlink:title=" ">
<path fill="none" stroke="#63b8ff" d="M257.15,-467.84C261.3,-409.36 286.25,-101.03 354,-42.41 408.54,4.77 494.09,3.7 555.29,-5.17"/>
<polygon fill="#63b8ff" stroke="#63b8ff" points="554.85,-8.65 565.27,-6.72 555.93,-1.73 554.85,-8.65"/>
</a>
</g>
</g>
<!-- Node4 -->
<g id="Node000004" class="node">
<title>Node4</title>
<g id="a_Node000004"><a xlink:href="../../d8/d48/classlci_1_1post__comm__x.html#a80b57b5b1a98ae641edbaca6cd109883" target="_top" xlink:title=" ">
<polygon fill="white" stroke="#666666" points="883,-479.41 754,-479.41 754,-449.41 883,-449.41 883,-479.41"/>
<text text-anchor="start" x="762" y="-467.41" font-family="Helvetica,sans-Serif" font-size="10.00">lci::post_comm_x::post</text>
<text text-anchor="middle" x="818.5" y="-456.41" font-family="Helvetica,sans-Serif" font-size="10.00">_comm_x</text>
</a>
</g>
</g>
<!-- Node3&#45;&gt;Node4 -->
<g id="edge3_Node000003_Node000004" class="edge">
<title>Node3&#45;&gt;Node4</title>
<g id="a_edge3_Node000003_Node000004"><a xlink:title=" ">
<path fill="none" stroke="#63b8ff" d="M705.46,-949.75C710.05,-947.23 714.3,-944.15 718,-940.41 782.47,-875.37 809.13,-578.71 815.76,-489.72"/>
<polygon fill="#63b8ff" stroke="#63b8ff" points="819.25,-489.93 816.49,-479.7 812.27,-489.42 819.25,-489.93"/>
</a>
</g>
</g>
<!-- Node5&#45;&gt;Node4 -->
<g id="edge5_Node000005_Node000004" class="edge">
<title>Node5&#45;&gt;Node4</title>
<g id="a_edge5_Node000005_Node000004"><a xlink:title=" ">
<path fill="none" stroke="#63b8ff" d="M697.08,-906.57C704.88,-903.11 712.14,-898.52 718,-892.41 774.76,-833.3 806.33,-571.94 815.01,-489.45"/>
<polygon fill="#63b8ff" stroke="#63b8ff" points="818.5,-489.76 816.05,-479.45 811.54,-489.04 818.5,-489.76"/>
</a>
</g>
</g>
<!-- Node6&#45;&gt;Node4 -->
<g id="edge7_Node000006_Node000004" class="edge">
<title>Node6&#45;&gt;Node4</title>
<g id="a_edge7_Node000006_Node000004"><a xlink:title=" ">
<path fill="none" stroke="#63b8ff" d="M697.35,-858.22C705.02,-854.82 712.17,-850.33 718,-844.41 768.8,-792.95 803.72,-565.98 814.2,-489.6"/>
<polygon fill="#63b8ff" stroke="#63b8ff" points="817.7,-489.84 815.57,-479.46 810.77,-488.9 817.7,-489.84"/>
</a>
</g>
</g>
<!-- Node7&#45;&gt;Node4 -->
<g id="edge9_Node000007_Node000004" class="edge">
<title>Node7&#45;&gt;Node4</title>
<g id="a_edge9_Node000007_Node000004"><a xlink:title=" ">
<path fill="none" stroke="#63b8ff" d="M701.37,-817.27C707.46,-814.5 713.14,-810.95 718,-806.41 810.51,-720 818.69,-553.1 818.26,-489.69"/>
<polygon fill="#63b8ff" stroke="#63b8ff" points="821.75,-489.38 818.1,-479.43 814.75,-489.48 821.75,-489.38"/>
</a>
</g>
</g>
<!-- Node8&#45;&gt;Node3 -->
<g id="edge11_Node000008_Node000003" class="edge">
<title>Node8&#45;&gt;Node3</title>
<g id="a_edge11_Node000008_Node000003"><a xlink:title=" ">
<path fill="none" stroke="#63b8ff" d="M431.94,-487.09C438,-547.57 473.51,-873.3 542,-940.41 543.45,-941.84 544.98,-943.16 546.58,-944.39"/>
<polygon fill="#63b8ff" stroke="#63b8ff" points="544.77,-947.39 555.07,-949.85 548.55,-941.5 544.77,-947.39"/>
</a>
</g>
</g>
<!-- Node8&#45;&gt;Node5 -->
<g id="edge12_Node000008_Node000005" class="edge">
<title>Node8&#45;&gt;Node5</title>
<g id="a_edge12_Node000008_Node000005"><a xlink:title=" ">
<path fill="none" stroke="#63b8ff" d="M432.28,-487.13C439.95,-543.82 481.46,-831.4 542,-892.41 545.47,-895.91 549.41,-898.92 553.64,-901.49"/>
<polygon fill="#63b8ff" stroke="#63b8ff" points="552.19,-904.68 562.68,-906.2 555.42,-898.47 552.19,-904.68"/>
</a>
</g>
</g>
<!-- Node8&#45;&gt;Node6 -->
<g id="edge13_Node000008_Node000006" class="edge">
<title>Node8&#45;&gt;Node6</title>
<g id="a_edge13_Node000008_Node000006"><a xlink:title=" ">
<path fill="none" stroke="#63b8ff" d="M430.78,-487.03C430.26,-533.77 434.33,-739.35 542,-844.41 545.53,-847.86 549.51,-850.82 553.76,-853.36"/>
<polygon fill="#63b8ff" stroke="#63b8ff" points="552.36,-856.57 562.85,-858.02 555.55,-850.34 552.36,-856.57"/>
</a>
</g>
</g>
<!-- Node8&#45;&gt;Node7 -->
<g id="edge14_Node000008_Node000007" class="edge">
<title>Node8&#45;&gt;Node7</title>
<g id="a_edge14_Node000008_Node000007"><a xlink:title=" ">
<path fill="none" stroke="#63b8ff" d="M431.05,-487.03C431.82,-531.18 441.17,-716.15 542,-806.41 544.48,-808.63 547.15,-810.61 549.97,-812.38"/>
<polygon fill="#63b8ff" stroke="#63b8ff" points="548.35,-815.48 558.83,-817.05 551.62,-809.29 548.35,-815.48"/>
</a>
</g>
</g>
<!-- Node8&#45;&gt;Node9 -->
<g id="edge15_Node000008_Node000009" class="edge">
<title>Node8&#45;&gt;Node9</title>
<g id="a_edge15_Node000008_Node000009"><a xlink:title=" ">
<path fill="none" stroke="#63b8ff" d="M431.8,-487.12C435.61,-527.12 455.57,-680.77 542,-758.41 545.44,-761.5 549.24,-764.2 553.27,-766.55"/>
<polygon fill="#63b8ff" stroke="#63b8ff" points="551.91,-769.78 562.42,-771.17 555.07,-763.54 551.91,-769.78"/>
</a>
</g>
</g>
<!-- Node8&#45;&gt;Node10 -->
<g id="edge17_Node000008_Node000010" class="edge">
<title>Node8&#45;&gt;Node10</title>
<g id="a_edge17_Node000008_Node000010"><a xlink:title=" ">
<path fill="none" stroke="#63b8ff" d="M432.26,-486.99C437.64,-523.85 462.18,-657.67 542,-721.41 544.65,-723.53 547.49,-725.42 550.46,-727.1"/>
<polygon fill="#63b8ff" stroke="#63b8ff" points="549.21,-730.38 559.74,-731.54 552.23,-724.06 549.21,-730.38"/>
</a>
</g>
</g>
<!-- Node8&#45;&gt;Node11 -->
<g id="edge19_Node000008_Node000011" class="edge">
<title>Node8&#45;&gt;Node11</title>
<g id="a_edge19_Node000008_Node000011"><a xlink:title=" ">
<path fill="none" stroke="#63b8ff" d="M433.11,-487.14C440.92,-520.58 471.42,-631.72 542,-684.41 543.67,-685.66 545.4,-686.82 547.19,-687.91"/>
<polygon fill="#63b8ff" stroke="#63b8ff" points="546.04,-691.26 556.54,-692.74 549.26,-685.04 546.04,-691.26"/>
</a>
</g>
</g>
<!-- Node8&#45;&gt;Node12 -->
<g id="edge21_Node000008_Node000012" class="edge">
<title>Node8&#45;&gt;Node12</title>
<g id="a_edge21_Node000008_Node000012"><a xlink:title=" ">
<path fill="none" stroke="#63b8ff" d="M434.28,-486.94C444.8,-516.02 480.68,-604.25 542,-646.41 544.89,-648.4 547.95,-650.19 551.13,-651.79"/>
<polygon fill="#63b8ff" stroke="#63b8ff" points="549.8,-655.02 560.36,-655.83 552.61,-648.61 549.8,-655.02"/>
</a>
</g>
</g>
<!-- Node8&#45;&gt;Node13 -->
<g id="edge23_Node000008_Node000013" class="edge">
<title>Node8&#45;&gt;Node13</title>
<g id="a_edge23_Node000008_Node000013"><a xlink:title=" ">
<path fill="none" stroke="#63b8ff" d="M436.95,-486.94C451.76,-509.83 492.63,-568.23 542,-598.41 545.79,-600.73 549.8,-602.83 553.95,-604.73"/>
<polygon fill="#63b8ff" stroke="#63b8ff" points="552.61,-607.96 563.19,-608.57 555.3,-601.5 552.61,-607.96"/>
</a>
</g>
</g>
<!-- Node8&#45;&gt;Node14 -->
<g id="edge25_Node000008_Node000014" class="edge">
<title>Node8&#45;&gt;Node14</title>
<g id="a_edge25_Node000008_Node000014"><a xlink:title=" ">
<path fill="none" stroke="#63b8ff" d="M442.91,-487.08C462.47,-502.52 503.13,-532.8 542,-550.41 546.41,-552.41 551.02,-554.28 555.71,-556.01"/>
<polygon fill="#63b8ff" stroke="#63b8ff" points="554.85,-559.42 565.45,-559.39 557.15,-552.8 554.85,-559.42"/>
</a>
</g>
</g>
<!-- Node8&#45;&gt;Node15 -->
<g id="edge27_Node000008_Node000015" class="edge">
<title>Node8&#45;&gt;Node15</title>
<g id="a_edge27_Node000008_Node000015"><a xlink:title=" ">
<path fill="none" stroke="#63b8ff" d="M459.08,-487.04C481.4,-494.51 513.49,-504.82 542,-512.41 551.52,-514.95 561.7,-517.4 571.61,-519.65"/>
<polygon fill="#63b8ff" stroke="#63b8ff" points="570.88,-523.08 581.4,-521.83 572.4,-516.24 570.88,-523.08"/>
</a>
</g>
</g>
<!-- Node8&#45;&gt;Node16 -->
<g id="edge29_Node000008_Node000016" class="edge">
<title>Node8&#45;&gt;Node16</title>
<g id="a_edge29_Node000008_Node000016"><a xlink:title=" ">
<path fill="none" stroke="#63b8ff" d="M506.14,-481.59C518.1,-482.25 530.56,-482.95 542.76,-483.62"/>
<polygon fill="#63b8ff" stroke="#63b8ff" points="542.75,-487.13 552.93,-484.19 543.14,-480.14 542.75,-487.13"/>
</a>
</g>
</g>
<!-- Node8&#45;&gt;Node17 -->
<g id="edge31_Node000008_Node000017" class="edge">
<title>Node8&#45;&gt;Node17</title>
<g id="a_edge31_Node000008_Node000017"><a xlink:title=" ">
<path fill="none" stroke="#63b8ff" d="M481.99,-467.89C500.5,-464.43 521.97,-460.42 542.68,-456.54"/>
<polygon fill="#63b8ff" stroke="#63b8ff" points="543.59,-459.94 552.78,-454.66 542.3,-453.06 543.59,-459.94"/>
</a>
</g>
</g>
<!-- Node8&#45;&gt;Node18 -->
<g id="edge33_Node000008_Node000018" class="edge">
<title>Node8&#45;&gt;Node18</title>
<g id="a_edge33_Node000008_Node000018"><a xlink:title=" ">
<path fill="none" stroke="#63b8ff" d="M445.43,-467.7C466,-454.28 505.35,-430.16 542,-416.41 548.95,-413.81 556.34,-411.52 563.78,-409.5"/>
<polygon fill="#63b8ff" stroke="#63b8ff" points="564.71,-412.88 573.54,-407.02 562.99,-406.09 564.71,-412.88"/>
</a>
</g>
</g>
<!-- Node8&#45;&gt;Node19 -->
<g id="edge35_Node000008_Node000019" class="edge">
<title>Node8&#45;&gt;Node19</title>
<g id="a_edge35_Node000008_Node000019"><a xlink:title=" ">
<path fill="none" stroke="#63b8ff" d="M438.77,-467.85C455.45,-448 496.83,-402.31 542,-379.41 546.83,-376.97 551.96,-374.84 557.22,-372.98"/>
<polygon fill="#63b8ff" stroke="#63b8ff" points="558.35,-376.29 566.81,-369.92 556.22,-369.62 558.35,-376.29"/>
</a>
</g>
</g>
<!-- Node8&#45;&gt;Node20 -->
<g id="edge37_Node000008_Node000020" class="edge">
<title>Node8&#45;&gt;Node20</title>
<g id="a_edge37_Node000008_Node000020"><a xlink:title=" ">
<path fill="none" stroke="#63b8ff" d="M435.95,-467.71C449.29,-442.57 488.67,-375.02 542,-342.41 546.15,-339.88 550.6,-337.68 555.2,-335.77"/>
<polygon fill="#63b8ff" stroke="#63b8ff" points="556.64,-338.97 564.83,-332.25 554.24,-332.39 556.64,-338.97"/>
</a>
</g>
</g>
<!-- Node8&#45;&gt;Node21 -->
<g id="edge39_Node000008_Node000021" class="edge">
<title>Node8&#45;&gt;Node21</title>
<g id="a_edge39_Node000008_Node000021"><a xlink:title=" ">
<path fill="none" stroke="#63b8ff" d="M434.22,-467.72C444.59,-438.13 480.09,-348.35 542,-305.41 544.88,-303.42 547.94,-301.62 551.11,-300.01"/>
<polygon fill="#63b8ff" stroke="#63b8ff" points="552.59,-303.19 560.33,-295.95 549.76,-296.78 552.59,-303.19"/>
</a>
</g>
</g>
<!-- Node8&#45;&gt;Node22 -->
<g id="edge41_Node000008_Node000022" class="edge">
<title>Node8&#45;&gt;Node22</title>
<g id="a_edge41_Node000008_Node000022"><a xlink:title=" ">
<path fill="none" stroke="#63b8ff" d="M433.1,-467.63C440.88,-433.96 471.29,-322.04 542,-268.41 544.37,-266.62 546.87,-264.99 549.47,-263.5"/>
<polygon fill="#63b8ff" stroke="#63b8ff" points="551.22,-266.54 558.67,-259 548.15,-260.25 551.22,-266.54"/>
</a>
</g>
</g>
<!-- Node8&#45;&gt;Node23 -->
<g id="edge43_Node000008_Node000023" class="edge">
<title>Node8&#45;&gt;Node23</title>
<g id="a_edge43_Node000008_Node000023"><a xlink:title=" ">
<path fill="none" stroke="#63b8ff" d="M432.25,-467.79C437.61,-430.73 462.09,-296.16 542,-231.41 544.05,-229.75 546.21,-228.23 548.46,-226.83"/>
<polygon fill="#63b8ff" stroke="#63b8ff" points="550.33,-229.81 557.54,-222.04 547.06,-223.62 550.33,-229.81"/>
</a>
</g>
</g>
<!-- Node8&#45;&gt;Node24 -->
<g id="edge45_Node000008_Node000024" class="edge">
<title>Node8&#45;&gt;Node24</title>
<g id="a_edge45_Node000008_Node000024"><a xlink:title=" ">
<path fill="none" stroke="#63b8ff" d="M431.64,-467.79C434.84,-427.43 452.84,-270.43 542,-194.41 546.79,-190.33 552.25,-187.07 558.05,-184.47"/>
<polygon fill="#63b8ff" stroke="#63b8ff" points="559.31,-187.73 567.4,-180.9 556.81,-181.19 559.31,-187.73"/>
</a>
</g>
</g>
<!-- Node8&#45;&gt;Node25 -->
<g id="edge47_Node000008_Node000025" class="edge">
<title>Node8&#45;&gt;Node25</title>
<g id="a_edge47_Node000008_Node000025"><a xlink:title=" ">
<path fill="none" stroke="#63b8ff" d="M431.15,-467.76C432.39,-424.28 443.49,-244.86 542,-157.41 543.78,-155.83 545.67,-154.37 547.64,-153.02"/>
<polygon fill="#63b8ff" stroke="#63b8ff" points="549.81,-155.81 556.74,-147.8 546.32,-149.74 549.81,-155.81"/>
</a>
</g>
</g>
<!-- Node8&#45;&gt;Node26 -->
<g id="edge49_Node000008_Node000026" class="edge">
<title>Node8&#45;&gt;Node26</title>
<g id="a_edge49_Node000008_Node000026"><a xlink:title=" ">
<path fill="none" stroke="#63b8ff" d="M430.76,-467.63C430.17,-420.99 434.13,-219.34 542,-120.41 546.2,-116.56 551,-113.42 556.13,-110.88"/>
<polygon fill="#63b8ff" stroke="#63b8ff" points="557.79,-113.98 565.68,-106.9 555.1,-107.51 557.79,-113.98"/>
</a>
</g>
</g>
<!-- Node8&#45;&gt;Node27 -->
<g id="edge51_Node000008_Node000027" class="edge">
<title>Node8&#45;&gt;Node27</title>
<g id="a_edge51_Node000008_Node000027"><a xlink:title=" ">
<path fill="none" stroke="#63b8ff" d="M432.36,-467.78C440.32,-412.83 482.52,-139.46 542,-83.41 546.73,-78.96 552.24,-75.46 558.16,-72.71"/>
<polygon fill="#63b8ff" stroke="#63b8ff" points="559.69,-75.88 567.75,-69 557.16,-69.35 559.69,-75.88"/>
</a>
</g>
</g>
<!-- Node8&#45;&gt;Node28 -->
<g id="edge53_Node000008_Node000028" class="edge">
<title>Node8&#45;&gt;Node28</title>
<g id="a_edge53_Node000008_Node000028"><a xlink:title=" ">
<path fill="none" stroke="#63b8ff" d="M432.18,-467.69C439.38,-409.62 479.32,-109.21 542,-45.41 546.15,-41.19 550.97,-37.69 556.18,-34.79"/>
<polygon fill="#63b8ff" stroke="#63b8ff" points="557.73,-37.93 565.24,-30.46 554.71,-31.61 557.73,-37.93"/>
</a>
</g>
</g>
<!-- Node9&#45;&gt;Node4 -->
<g id="edge16_Node000009_Node000004" class="edge">
<title>Node9&#45;&gt;Node4</title>
<g id="a_edge16_Node000009_Node000004"><a xlink:title=" ">
<path fill="none" stroke="#63b8ff" d="M697.84,-771.45C705.24,-768.15 712.19,-763.9 718,-758.41 796.41,-684.36 813.04,-546.38 816.56,-489.71"/>
<polygon fill="#63b8ff" stroke="#63b8ff" points="820.06,-489.67 817.1,-479.5 813.07,-489.3 820.06,-489.67"/>
</a>
</g>
</g>
<!-- Node10&#45;&gt;Node4 -->
<g id="edge18_Node000010_Node000004" class="edge">
<title>Node10&#45;&gt;Node4</title>
<g id="a_edge18_Node000010_Node000004"><a xlink:title=" ">
<path fill="none" stroke="#63b8ff" d="M700.09,-732.03C706.58,-729.37 712.7,-725.9 718,-721.41 789.75,-660.65 809.98,-541.73 815.5,-489.75"/>
<polygon fill="#63b8ff" stroke="#63b8ff" points="818.99,-490.01 816.47,-479.72 812.03,-489.33 818.99,-490.01"/>
</a>
</g>
</g>
<!-- Node11&#45;&gt;Node4 -->
<g id="edge20_Node000011_Node000004" class="edge">
<title>Node11&#45;&gt;Node4</title>
<g id="a_edge20_Node000011_Node000004"><a xlink:title=" ">
<path fill="none" stroke="#63b8ff" d="M704.14,-692.87C709.1,-690.58 713.79,-687.79 718,-684.41 780.71,-634.21 805.29,-535.89 813.69,-489.62"/>
<polygon fill="#63b8ff" stroke="#63b8ff" points="817.17,-490 815.4,-479.55 810.27,-488.82 817.17,-490"/>
</a>
</g>
</g>
<!-- Node12&#45;&gt;Node4 -->
<g id="edge22_Node000012_Node000004" class="edge">
<title>Node12&#45;&gt;Node4</title>
<g id="a_edge22_Node000012_Node000004"><a xlink:title=" ">
<path fill="none" stroke="#63b8ff" d="M701.28,-655.76C707.25,-653.28 712.93,-650.21 718,-646.41 771.45,-606.39 799.67,-528.86 811.17,-489.16"/>
<polygon fill="#63b8ff" stroke="#63b8ff" points="814.56,-490.04 813.86,-479.47 807.81,-488.17 814.56,-490.04"/>
</a>
</g>
</g>
<!-- Node13&#45;&gt;Node4 -->
<g id="edge24_Node000013_Node000004" class="edge">
<title>Node13&#45;&gt;Node4</title>
<g id="a_edge24_Node000013_Node000004"><a xlink:title=" ">
<path fill="none" stroke="#63b8ff" d="M696.79,-609.4C704.28,-606.46 711.54,-602.84 718,-598.41 759.41,-570.04 790.35,-518.7 806.01,-488.47"/>
<polygon fill="#63b8ff" stroke="#63b8ff" points="809.18,-489.96 810.56,-479.46 802.93,-486.81 809.18,-489.96"/>
</a>
</g>
</g>
<!-- Node14&#45;&gt;Node4 -->
<g id="edge26_Node000014_Node000004" class="edge">
<title>Node14&#45;&gt;Node4</title>
<g id="a_edge26_Node000014_Node000004"><a xlink:title=" ">
<path fill="none" stroke="#63b8ff" d="M695.92,-559.98C703.56,-557.27 711.09,-554.11 718,-550.41 748.93,-533.88 778.57,-506.22 797.32,-486.75"/>
<polygon fill="#63b8ff" stroke="#63b8ff" points="799.88,-489.14 804.2,-479.47 794.79,-484.34 799.88,-489.14"/>
</a>
</g>
</g>
<!-- Node15&#45;&gt;Node4 -->
<g id="edge28_Node000015_Node000004" class="edge">
<title>Node15&#45;&gt;Node4</title>
<g id="a_edge28_Node000015_Node000004"><a xlink:title=" ">
<path fill="none" stroke="#63b8ff" d="M684.46,-521.81C695.67,-519.22 707.33,-516.1 718,-512.41 739.87,-504.87 763.22,-493.78 781.8,-484.16"/>
<polygon fill="#63b8ff" stroke="#63b8ff" points="783.56,-487.19 790.78,-479.43 780.3,-480.99 783.56,-487.19"/>
</a>
</g>
</g>
<!-- Node16&#45;&gt;Node4 -->
<g id="edge30_Node000016_Node000004" class="edge">
<title>Node16&#45;&gt;Node4</title>
<g id="a_edge30_Node000016_Node000004"><a xlink:title=" ">
<path fill="none" stroke="#63b8ff" d="M707.13,-478.62C719.24,-477.06 731.76,-475.45 743.82,-473.9"/>
<polygon fill="#63b8ff" stroke="#63b8ff" points="744.35,-477.36 753.83,-472.61 743.46,-470.41 744.35,-477.36"/>
</a>
</g>
</g>
<!-- Node17&#45;&gt;Node4 -->
<g id="edge32_Node000017_Node000004" class="edge">
<title>Node17&#45;&gt;Node4</title>
<g id="a_edge32_Node000017_Node000004"><a xlink:title=" ">
<path fill="none" stroke="#63b8ff" d="M707.13,-450.21C719.24,-451.77 731.76,-453.38 743.82,-454.93"/>
<polygon fill="#63b8ff" stroke="#63b8ff" points="743.46,-458.42 753.83,-456.22 744.35,-451.47 743.46,-458.42"/>
</a>
</g>
</g>
<!-- Node18&#45;&gt;Node4 -->
<g id="edge34_Node000018_Node000004" class="edge">
<title>Node18&#45;&gt;Node4</title>
<g id="a_edge34_Node000018_Node000004"><a xlink:title=" ">
<path fill="none" stroke="#63b8ff" d="M684.46,-407.02C695.67,-409.61 707.33,-412.73 718,-416.41 739.87,-423.96 763.22,-435.05 781.8,-444.67"/>
<polygon fill="#63b8ff" stroke="#63b8ff" points="780.3,-447.84 790.78,-449.4 783.56,-441.64 780.3,-447.84"/>
</a>
</g>
</g>
<!-- Node19&#45;&gt;Node4 -->
<g id="edge36_Node000019_Node000004" class="edge">
<title>Node19&#45;&gt;Node4</title>
<g id="a_edge36_Node000019_Node000004"><a xlink:title=" ">
<path fill="none" stroke="#63b8ff" d="M693.13,-370.03C701.72,-372.49 710.25,-375.56 718,-379.41 749.12,-394.87 778.57,-422.19 797.23,-441.69"/>
<polygon fill="#63b8ff" stroke="#63b8ff" points="794.92,-444.34 804.31,-449.25 800.03,-439.56 794.92,-444.34"/>
</a>
</g>
</g>
<!-- Node20&#45;&gt;Node4 -->
<g id="edge38_Node000020_Node000004" class="edge">
<title>Node20&#45;&gt;Node4</title>
<g id="a_edge38_Node000020_Node000004"><a xlink:title=" ">
<path fill="none" stroke="#63b8ff" d="M695.19,-332.22C703.2,-334.8 711.02,-338.13 718,-342.41 757.55,-366.71 788.41,-412.45 804.71,-440.5"/>
<polygon fill="#63b8ff" stroke="#63b8ff" points="801.7,-442.29 809.67,-449.27 807.79,-438.85 801.7,-442.29"/>
</a>
</g>
</g>
<!-- Node21&#45;&gt;Node4 -->
<g id="edge40_Node000021_Node000004" class="edge">
<title>Node21&#45;&gt;Node4</title>
<g id="a_edge40_Node000021_Node000004"><a xlink:title=" ">
<path fill="none" stroke="#63b8ff" d="M700.17,-296.04C706.5,-298.51 712.56,-301.59 718,-305.41 765.99,-339.19 795.72,-404.21 809.12,-439.74"/>
<polygon fill="#63b8ff" stroke="#63b8ff" points="805.9,-441.14 812.61,-449.34 812.48,-438.75 805.9,-441.14"/>
</a>
</g>
</g>
<!-- Node22&#45;&gt;Node4 -->
<g id="edge42_Node000022_Node000004" class="edge">
<title>Node22&#45;&gt;Node4</title>
<g id="a_edge42_Node000022_Node000004"><a xlink:title=" ">
<path fill="none" stroke="#63b8ff" d="M701.84,-259.09C707.62,-261.57 713.11,-264.63 718,-268.41 774.66,-312.21 801.72,-397.12 812.13,-439.34"/>
<polygon fill="#63b8ff" stroke="#63b8ff" points="808.78,-440.4 814.48,-449.33 815.6,-438.8 808.78,-440.4"/>
</a>
</g>
</g>
<!-- Node23&#45;&gt;Node4 -->
<g id="edge44_Node000023_Node000004" class="edge">
<title>Node23&#45;&gt;Node4</title>
<g id="a_edge44_Node000023_Node000004"><a xlink:title=" ">
<path fill="none" stroke="#63b8ff" d="M702.54,-221.94C708.1,-224.46 713.35,-227.57 718,-231.41 783.56,-285.65 806.85,-390.95 814.32,-439.18"/>
<polygon fill="#63b8ff" stroke="#63b8ff" points="810.9,-439.97 815.79,-449.36 817.83,-438.97 810.9,-439.97"/>
</a>
</g>
</g>
<!-- Node24&#45;&gt;Node4 -->
<g id="edge46_Node000024_Node000004" class="edge">
<title>Node24&#45;&gt;Node4</title>
<g id="a_edge46_Node000024_Node000004"><a xlink:title=" ">
<path fill="none" stroke="#63b8ff" d="M692.71,-180.77C701.94,-183.76 710.77,-188.12 718,-194.41 792.73,-259.48 811.39,-385.79 816,-439.39"/>
<polygon fill="#63b8ff" stroke="#63b8ff" points="812.52,-439.69 816.77,-449.39 819.5,-439.15 812.52,-439.69"/>
</a>
</g>
</g>
<!-- Node25&#45;&gt;Node4 -->
<g id="edge48_Node000025_Node000004" class="edge">
<title>Node25&#45;&gt;Node4</title>
<g id="a_edge48_Node000025_Node000004"><a xlink:title=" ">
<path fill="none" stroke="#63b8ff" d="M703.35,-147.7C708.67,-150.28 713.65,-153.47 718,-157.41 801.66,-233.23 815.27,-379.91 817.27,-438.92"/>
<polygon fill="#63b8ff" stroke="#63b8ff" points="813.77,-439.28 817.52,-449.19 820.77,-439.1 813.77,-439.28"/>
</a>
</g>
</g>
<!-- Node26&#45;&gt;Node4 -->
<g id="edge50_Node000026_Node000004" class="edge">
<title>Node26&#45;&gt;Node4</title>
<g id="a_edge50_Node000026_Node000004"><a xlink:title=" ">
<path fill="none" stroke="#63b8ff" d="M694.43,-106.78C703.13,-109.81 711.34,-114.18 718,-120.41 810.94,-207.36 818.86,-375.22 818.31,-438.99"/>
<polygon fill="#63b8ff" stroke="#63b8ff" points="814.81,-439.26 818.14,-449.31 821.8,-439.37 814.81,-439.26"/>
</a>
</g>
</g>
<!-- Node27&#45;&gt;Node4 -->
<g id="edge52_Node000027_Node000004" class="edge">
<title>Node27&#45;&gt;Node4</title>
<g id="a_edge52_Node000027_Node000004"><a xlink:title=" ">
<path fill="none" stroke="#63b8ff" d="M692.36,-68.88C701.86,-71.95 710.86,-76.56 718,-83.41 770.28,-133.63 804.23,-362.11 814.33,-439.04"/>
<polygon fill="#63b8ff" stroke="#63b8ff" points="810.9,-439.79 815.65,-449.26 817.84,-438.89 810.9,-439.79"/>
</a>
</g>
</g>
<!-- Node28&#45;&gt;Node4 -->
<g id="edge54_Node000028_Node000004" class="edge">
<title>Node28&#45;&gt;Node4</title>
<g id="a_edge54_Node000028_Node000004"><a xlink:title=" ">
<path fill="none" stroke="#63b8ff" d="M694.87,-30.36C703.5,-33.9 711.58,-38.76 718,-45.41 773.58,-103.03 805.8,-357.47 814.85,-439.11"/>
<polygon fill="#63b8ff" stroke="#63b8ff" points="811.39,-439.67 815.95,-449.24 818.35,-438.92 811.39,-439.67"/>
</a>
</g>
</g>
</g>
</svg>
