<?xml version="1.0" encoding="UTF-8" standalone="no"?>
<!DOCTYPE svg PUBLIC "-//W3C//DTD SVG 1.1//EN"
 "http://www.w3.org/Graphics/SVG/1.1/DTD/svg11.dtd">
<!-- Generated by graphviz version 2.43.0 (0)
 -->
<!-- Title: lci::allreduce_x Pages: 1 -->
<svg width="895pt" height="316pt"
 viewBox="0.00 0.00 895.00 315.50" xmlns="http://www.w3.org/2000/svg" xmlns:xlink="http://www.w3.org/1999/xlink">
<g id="graph0" class="graph" transform="scale(1 1) rotate(0) translate(4 311.5)">
<title>lci::allreduce_x</title>
<!-- Node1 -->
<g id="Node000001" class="node">
<title>Node1</title>
<g id="a_Node000001"><a xlink:title="The actual implementation for allreduce.">
<polygon fill="#999999" stroke="#666666" points="887,-158 797,-158 797,-139 887,-139 887,-158"/>
<text text-anchor="middle" x="842" y="-146" font-family="Helvetica,sans-Serif" font-size="10.00">lci::allreduce_x</text>
</a>
</g>
</g>
<!-- Node2 -->
<g id="Node000002" class="node">
<title>Node2</title>
<g id="a_Node000002"><a xlink:href="../../db/d20/structlci_1_1option__t.html" target="_top" xlink:title=" ">
<polygon fill="white" stroke="#666666" points="641,-307.5 545,-307.5 545,-277.5 641,-277.5 641,-307.5"/>
<text text-anchor="start" x="553" y="-295.5" font-family="Helvetica,sans-Serif" font-size="10.00">lci::option_t&lt; lci</text>
<text text-anchor="middle" x="593" y="-284.5" font-family="Helvetica,sans-Serif" font-size="10.00">::runtime_t &gt;</text>
</a>
</g>
</g>
<!-- Node2&#45;&gt;Node1 -->
<g id="edge1_Node000001_Node000002" class="edge">
<title>Node2&#45;&gt;Node1</title>
<g id="a_edge1_Node000001_Node000002"><a xlink:title=" ">
<path fill="none" stroke="#9a32cd" stroke-dasharray="5,2" d="M651.53,-288.88C690.61,-283.94 741.76,-272.39 779,-245.5 810.76,-222.57 830.23,-177.89 837.61,-158.21"/>
<polygon fill="#9a32cd" stroke="#9a32cd" points="650.9,-285.43 641.36,-290.05 651.7,-292.38 650.9,-285.43"/>
</a>
</g>
<text text-anchor="middle" x="727.5" y="-286.5" font-family="Helvetica,sans-Serif" font-size="10.00" fill="grey"> m_runtime</text>
</g>
<!-- Node3 -->
<g id="Node000003" class="node">
<title>Node3</title>
<g id="a_Node000003"><a xlink:href="../../dc/d5c/classlci_1_1runtime__t.html" target="_top" xlink:title="The actual implementation for RESOURCE runtime.">
<polygon fill="white" stroke="#666666" points="423,-302 342,-302 342,-283 423,-283 423,-302"/>
<text text-anchor="middle" x="382.5" y="-290" font-family="Helvetica,sans-Serif" font-size="10.00">lci::runtime_t</text>
</a>
</g>
</g>
<!-- Node3&#45;&gt;Node2 -->
<g id="edge2_Node000002_Node000003" class="edge">
<title>Node3&#45;&gt;Node2</title>
<g id="a_edge2_Node000002_Node000003"><a xlink:title=" ">
<path fill="none" stroke="#9a32cd" stroke-dasharray="5,2" d="M433.33,-292.5C467.13,-292.5 511.54,-292.5 544.77,-292.5"/>
<polygon fill="#9a32cd" stroke="#9a32cd" points="433.21,-289 423.21,-292.5 433.21,-296 433.21,-289"/>
</a>
</g>
<text text-anchor="middle" x="487" y="-295.5" font-family="Helvetica,sans-Serif" font-size="10.00" fill="grey"> m_value</text>
</g>
<!-- Node4 -->
<g id="Node000004" class="node">
<title>Node4</title>
<g id="a_Node000004"><a xlink:href="../../db/d20/structlci_1_1option__t.html" target="_top" xlink:title=" ">
<polygon fill="white" stroke="#666666" points="641,-259.5 545,-259.5 545,-229.5 641,-229.5 641,-259.5"/>
<text text-anchor="start" x="553" y="-247.5" font-family="Helvetica,sans-Serif" font-size="10.00">lci::option_t&lt; lci</text>
<text text-anchor="middle" x="593" y="-236.5" font-family="Helvetica,sans-Serif" font-size="10.00">::device_t &gt;</text>
</a>
</g>
</g>
<!-- Node4&#45;&gt;Node1 -->
<g id="edge3_Node000001_Node000004" class="edge">
<title>Node4&#45;&gt;Node1</title>
<g id="a_edge3_Node000001_Node000004"><a xlink:title=" ">
<path fill="none" stroke="#9a32cd" stroke-dasharray="5,2" d="M651.42,-236.32C689.1,-229.43 738.67,-217.42 779,-197.5 799.67,-187.29 819.91,-169.38 831.38,-158.27"/>
<polygon fill="#9a32cd" stroke="#9a32cd" points="650.37,-232.95 641.13,-238.13 651.58,-239.84 650.37,-232.95"/>
</a>
</g>
<text text-anchor="middle" x="727.5" y="-233.5" font-family="Helvetica,sans-Serif" font-size="10.00" fill="grey"> m_device</text>
</g>
<!-- Node5 -->
<g id="Node000005" class="node">
<title>Node5</title>
<g id="a_Node000005"><a xlink:href="../../d6/d66/classlci_1_1device__t.html" target="_top" xlink:title="The actual implementation for RESOURCE device.">
<polygon fill="white" stroke="#666666" points="420,-254 345,-254 345,-235 420,-235 420,-254"/>
<text text-anchor="middle" x="382.5" y="-242" font-family="Helvetica,sans-Serif" font-size="10.00">lci::device_t</text>
</a>
</g>
</g>
<!-- Node5&#45;&gt;Node4 -->
<g id="edge4_Node000004_Node000005" class="edge">
<title>Node5&#45;&gt;Node4</title>
<g id="a_edge4_Node000004_Node000005"><a xlink:title=" ">
<path fill="none" stroke="#9a32cd" stroke-dasharray="5,2" d="M430.5,-244.5C464.68,-244.5 510.77,-244.5 544.96,-244.5"/>
<polygon fill="#9a32cd" stroke="#9a32cd" points="430.3,-241 420.3,-244.5 430.3,-248 430.3,-241"/>
</a>
</g>
<text text-anchor="middle" x="487" y="-247.5" font-family="Helvetica,sans-Serif" font-size="10.00" fill="grey"> m_value</text>
</g>
<!-- Node6 -->
<g id="Node000006" class="node">
<title>Node6</title>
<g id="a_Node000006"><a xlink:href="../../db/d20/structlci_1_1option__t.html" target="_top" xlink:title=" ">
<polygon fill="white" stroke="#666666" points="641,-211.5 545,-211.5 545,-181.5 641,-181.5 641,-211.5"/>
<text text-anchor="start" x="553" y="-199.5" font-family="Helvetica,sans-Serif" font-size="10.00">lci::option_t&lt; lci</text>
<text text-anchor="middle" x="593" y="-188.5" font-family="Helvetica,sans-Serif" font-size="10.00">::endpoint_t &gt;</text>
</a>
</g>
</g>
<!-- Node6&#45;&gt;Node1 -->
<g id="edge5_Node000001_Node000006" class="edge">
<title>Node6&#45;&gt;Node1</title>
<g id="a_edge5_Node000001_Node000006"><a xlink:title=" ">
<path fill="none" stroke="#9a32cd" stroke-dasharray="5,2" d="M651.3,-187.2C687.93,-181.03 736.39,-172.45 779,-163.5 786.8,-161.86 795.12,-159.96 803.05,-158.07"/>
<polygon fill="#9a32cd" stroke="#9a32cd" points="650.58,-183.78 641.3,-188.88 651.74,-190.68 650.58,-183.78"/>
</a>
</g>
<text text-anchor="middle" x="727.5" y="-185.5" font-family="Helvetica,sans-Serif" font-size="10.00" fill="grey"> m_endpoint</text>
</g>
<!-- Node7 -->
<g id="Node000007" class="node">
<title>Node7</title>
<g id="a_Node000007"><a xlink:href="../../de/d1b/classlci_1_1endpoint__t.html" target="_top" xlink:title="The actual implementation for RESOURCE endpoint.">
<polygon fill="white" stroke="#666666" points="425.5,-206 339.5,-206 339.5,-187 425.5,-187 425.5,-206"/>
<text text-anchor="middle" x="382.5" y="-194" font-family="Helvetica,sans-Serif" font-size="10.00">lci::endpoint_t</text>
</a>
</g>
</g>
<!-- Node7&#45;&gt;Node6 -->
<g id="edge6_Node000006_Node000007" class="edge">
<title>Node7&#45;&gt;Node6</title>
<g id="a_edge6_Node000006_Node000007"><a xlink:title=" ">
<path fill="none" stroke="#9a32cd" stroke-dasharray="5,2" d="M435.75,-196.5C469.23,-196.5 512.33,-196.5 544.78,-196.5"/>
<polygon fill="#9a32cd" stroke="#9a32cd" points="435.69,-193 425.69,-196.5 435.69,-200 435.69,-193"/>
</a>
</g>
<text text-anchor="middle" x="487" y="-199.5" font-family="Helvetica,sans-Serif" font-size="10.00" fill="grey"> m_value</text>
</g>
<!-- Node8 -->
<g id="Node000008" class="node">
<title>Node8</title>
<g id="a_Node000008"><a xlink:href="../../db/d20/structlci_1_1option__t.html" target="_top" xlink:title=" ">
<polygon fill="white" stroke="#666666" points="656.5,-163.5 529.5,-163.5 529.5,-133.5 656.5,-133.5 656.5,-163.5"/>
<text text-anchor="start" x="537.5" y="-151.5" font-family="Helvetica,sans-Serif" font-size="10.00">lci::option_t&lt; lci</text>
<text text-anchor="middle" x="593" y="-140.5" font-family="Helvetica,sans-Serif" font-size="10.00">::matching_engine_t &gt;</text>
</a>
</g>
</g>
<!-- Node8&#45;&gt;Node1 -->
<g id="edge7_Node000001_Node000008" class="edge">
<title>Node8&#45;&gt;Node1</title>
<g id="a_edge7_Node000001_Node000008"><a xlink:title=" ">
<path fill="none" stroke="#9a32cd" stroke-dasharray="5,2" d="M666.86,-148.5C709.01,-148.5 760.66,-148.5 796.72,-148.5"/>
<polygon fill="#9a32cd" stroke="#9a32cd" points="666.65,-145 656.65,-148.5 666.65,-152 666.65,-145"/>
</a>
</g>
<text text-anchor="middle" x="727.5" y="-151.5" font-family="Helvetica,sans-Serif" font-size="10.00" fill="grey"> m_matching_engine</text>
</g>
<!-- Node9 -->
<g id="Node000009" class="node">
<title>Node9</title>
<g id="a_Node000009"><a xlink:href="../../d8/d3f/classlci_1_1matching__engine__t.html" target="_top" xlink:title="The actual implementation for RESOURCE matching_engine.">
<polygon fill="white" stroke="#666666" points="446,-158 319,-158 319,-139 446,-139 446,-158"/>
<text text-anchor="middle" x="382.5" y="-146" font-family="Helvetica,sans-Serif" font-size="10.00">lci::matching_engine_t</text>
</a>
</g>
</g>
<!-- Node9&#45;&gt;Node8 -->
<g id="edge8_Node000008_Node000009" class="edge">
<title>Node9&#45;&gt;Node8</title>
<g id="a_edge8_Node000008_Node000009"><a xlink:title=" ">
<path fill="none" stroke="#9a32cd" stroke-dasharray="5,2" d="M456.14,-148.5C480.04,-148.5 506.4,-148.5 529.49,-148.5"/>
<polygon fill="#9a32cd" stroke="#9a32cd" points="456.06,-145 446.06,-148.5 456.06,-152 456.06,-145"/>
</a>
</g>
<text text-anchor="middle" x="487" y="-151.5" font-family="Helvetica,sans-Serif" font-size="10.00" fill="grey"> m_value</text>
</g>
<!-- Node10 -->
<g id="Node000010" class="node">
<title>Node10</title>
<g id="a_Node000010"><a xlink:href="../../db/d20/structlci_1_1option__t.html" target="_top" xlink:title=" ">
<polygon fill="white" stroke="#666666" points="641,-115.5 545,-115.5 545,-85.5 641,-85.5 641,-115.5"/>
<text text-anchor="start" x="553" y="-103.5" font-family="Helvetica,sans-Serif" font-size="10.00">lci::option_t&lt; lci</text>
<text text-anchor="middle" x="593" y="-92.5" font-family="Helvetica,sans-Serif" font-size="10.00">::comp_t &gt;</text>
</a>
</g>
</g>
<!-- Node10&#45;&gt;Node1 -->
<g id="edge9_Node000001_Node000010" class="edge">
<title>Node10&#45;&gt;Node1</title>
<g id="a_edge9_Node000001_Node000010"><a xlink:title=" ">
<path fill="none" stroke="#9a32cd" stroke-dasharray="5,2" d="M651.3,-109.8C687.93,-115.97 736.39,-124.55 779,-133.5 786.8,-135.14 795.12,-137.04 803.05,-138.93"/>
<polygon fill="#9a32cd" stroke="#9a32cd" points="651.74,-106.32 641.3,-108.12 650.58,-113.22 651.74,-106.32"/>
</a>
</g>
<text text-anchor="middle" x="727.5" y="-136.5" font-family="Helvetica,sans-Serif" font-size="10.00" fill="grey"> m_comp</text>
</g>
<!-- Node11 -->
<g id="Node000011" class="node">
<title>Node11</title>
<g id="a_Node000011"><a xlink:href="../../d1/da7/classlci_1_1comp__t.html" target="_top" xlink:title="The actual implementation for RESOURCE comp.">
<polygon fill="white" stroke="#666666" points="417.5,-110 347.5,-110 347.5,-91 417.5,-91 417.5,-110"/>
<text text-anchor="middle" x="382.5" y="-98" font-family="Helvetica,sans-Serif" font-size="10.00">lci::comp_t</text>
</a>
</g>
</g>
<!-- Node11&#45;&gt;Node10 -->
<g id="edge10_Node000010_Node000011" class="edge">
<title>Node11&#45;&gt;Node10</title>
<g id="a_edge10_Node000010_Node000011"><a xlink:title=" ">
<path fill="none" stroke="#9a32cd" stroke-dasharray="5,2" d="M428.13,-100.5C462.42,-100.5 509.69,-100.5 544.64,-100.5"/>
<polygon fill="#9a32cd" stroke="#9a32cd" points="427.93,-97 417.93,-100.5 427.93,-104 427.93,-97"/>
</a>
</g>
<text text-anchor="middle" x="487" y="-103.5" font-family="Helvetica,sans-Serif" font-size="10.00" fill="grey"> m_value</text>
</g>
<!-- Node12 -->
<g id="Node000012" class="node">
<title>Node12</title>
<g id="a_Node000012"><a xlink:href="../../d9/d97/classlci_1_1comp__impl__t.html" target="_top" xlink:title="Completion object implementation base type.">
<polygon fill="white" stroke="#666666" points="246,-110 149,-110 149,-91 246,-91 246,-110"/>
<text text-anchor="middle" x="197.5" y="-98" font-family="Helvetica,sans-Serif" font-size="10.00">lci::comp_impl_t</text>
</a>
</g>
</g>
<!-- Node12&#45;&gt;Node11 -->
<g id="edge11_Node000011_Node000012" class="edge">
<title>Node12&#45;&gt;Node11</title>
<g id="a_edge11_Node000011_Node000012"><a xlink:title=" ">
<path fill="none" stroke="#9a32cd" stroke-dasharray="5,2" d="M256.44,-100.5C286.39,-100.5 321.91,-100.5 347.42,-100.5"/>
<polygon fill="#9a32cd" stroke="#9a32cd" points="256.1,-97 246.1,-100.5 256.1,-104 256.1,-97"/>
</a>
</g>
<text text-anchor="middle" x="282.5" y="-103.5" font-family="Helvetica,sans-Serif" font-size="10.00" fill="grey"> p_impl</text>
</g>
<!-- Node13 -->
<g id="Node000013" class="node">
<title>Node13</title>
<g id="a_Node000013"><a xlink:href="../../dc/da6/structlci_1_1comp__attr__t.html" target="_top" xlink:title=" ">
<polygon fill="white" stroke="#666666" points="92,-110 0,-110 0,-91 92,-91 92,-110"/>
<text text-anchor="middle" x="46" y="-98" font-family="Helvetica,sans-Serif" font-size="10.00">lci::comp_attr_t</text>
</a>
</g>
</g>
<!-- Node13&#45;&gt;Node12 -->
<g id="edge12_Node000012_Node000013" class="edge">
<title>Node13&#45;&gt;Node12</title>
<g id="a_edge12_Node000012_Node000013"><a xlink:title=" ">
<path fill="none" stroke="#9a32cd" stroke-dasharray="5,2" d="M102.56,-100.5C117.76,-100.5 134.09,-100.5 148.8,-100.5"/>
<polygon fill="#9a32cd" stroke="#9a32cd" points="102.26,-97 92.26,-100.5 102.26,-104 102.26,-97"/>
</a>
</g>
<text text-anchor="middle" x="120.5" y="-103.5" font-family="Helvetica,sans-Serif" font-size="10.00" fill="grey"> attr</text>
</g>
<!-- Node14 -->
<g id="Node000014" class="node">
<title>Node14</title>
<g id="a_Node000014"><a xlink:href="../../db/d20/structlci_1_1option__t.html" target="_top" xlink:title=" ">
<polygon fill="white" stroke="#666666" points="658,-67.5 528,-67.5 528,-37.5 658,-37.5 658,-67.5"/>
<text text-anchor="start" x="536" y="-55.5" font-family="Helvetica,sans-Serif" font-size="10.00">lci::option_t&lt; allreduce</text>
<text text-anchor="middle" x="593" y="-44.5" font-family="Helvetica,sans-Serif" font-size="10.00">_algorithm_t &gt;</text>
</a>
</g>
</g>
<!-- Node14&#45;&gt;Node1 -->
<g id="edge13_Node000001_Node000014" class="edge">
<title>Node14&#45;&gt;Node1</title>
<g id="a_edge13_Node000001_Node000014"><a xlink:title=" ">
<path fill="none" stroke="#9a32cd" stroke-dasharray="5,2" d="M668.17,-63.31C703.06,-70.27 744.47,-81.34 779,-98.5 800.05,-108.96 820.48,-127.58 831.84,-138.9"/>
<polygon fill="#9a32cd" stroke="#9a32cd" points="668.53,-59.81 658.05,-61.36 667.21,-66.68 668.53,-59.81"/>
</a>
</g>
<text text-anchor="middle" x="727.5" y="-101.5" font-family="Helvetica,sans-Serif" font-size="10.00" fill="grey"> m_algorithm</text>
</g>
<!-- Node15 -->
<g id="Node000015" class="node">
<title>Node15</title>
<g id="a_Node000015"><a xlink:href="../../db/d20/structlci_1_1option__t.html" target="_top" xlink:title=" ">
<polygon fill="white" stroke="#666666" points="647.5,-19 538.5,-19 538.5,0 647.5,0 647.5,-19"/>
<text text-anchor="middle" x="593" y="-7" font-family="Helvetica,sans-Serif" font-size="10.00">lci::option_t&lt; int &gt;</text>
</a>
</g>
</g>
<!-- Node15&#45;&gt;Node1 -->
<g id="edge14_Node000001_Node000015" class="edge">
<title>Node15&#45;&gt;Node1</title>
<g id="a_edge14_Node000001_Node000015"><a xlink:title=" ">
<path fill="none" stroke="#9a32cd" stroke-dasharray="5,2" d="M657.81,-11.08C695.96,-14.83 743.7,-24.71 779,-49.5 811.7,-72.46 830.79,-118.71 837.85,-138.81"/>
<polygon fill="#9a32cd" stroke="#9a32cd" points="658.1,-7.59 647.84,-10.22 657.5,-14.57 658.1,-7.59"/>
</a>
</g>
<text text-anchor="middle" x="727.5" y="-52.5" font-family="Helvetica,sans-Serif" font-size="10.00" fill="grey"> m_ring_nsteps</text>
</g>
</g>
</svg>
