<?xml version="1.0" encoding="UTF-8" standalone="no"?>
<!DOCTYPE svg PUBLIC "-//W3C//DTD SVG 1.1//EN"
 "http://www.w3.org/Graphics/SVG/1.1/DTD/svg11.dtd">
<!-- Generated by graphviz version 2.43.0 (0)
 -->
<!-- Title: lci::comp_signal_x Pages: 1 -->
<svg width="306pt" height="236pt"
 viewBox="0.00 0.00 305.50 236.00" xmlns="http://www.w3.org/2000/svg" xmlns:xlink="http://www.w3.org/1999/xlink">
<g id="graph0" class="graph" transform="scale(1 1) rotate(0) translate(4 232)">
<title>lci::comp_signal_x</title>
<!-- Node1 -->
<g id="Node000001" class="node">
<title>Node1</title>
<g id="a_Node000001"><a xlink:title="The actual implementation for comp_signal.">
<polygon fill="#999999" stroke="#666666" points="200,-19 93,-19 93,0 200,0 200,-19"/>
<text text-anchor="middle" x="146.5" y="-7" font-family="Helvetica,sans-Serif" font-size="10.00">lci::comp_signal_x</text>
</a>
</g>
</g>
<!-- Node2 -->
<g id="Node000002" class="node">
<title>Node2</title>
<g id="a_Node000002"><a xlink:href="../../d1/da7/classlci_1_1comp__t.html" target="_top" xlink:title="The actual implementation for RESOURCE comp.">
<polygon fill="white" stroke="#666666" points="90.5,-90.5 20.5,-90.5 20.5,-71.5 90.5,-71.5 90.5,-90.5"/>
<text text-anchor="middle" x="55.5" y="-78.5" font-family="Helvetica,sans-Serif" font-size="10.00">lci::comp_t</text>
</a>
</g>
</g>
<!-- Node2&#45;&gt;Node1 -->
<g id="edge1_Node000001_Node000002" class="edge">
<title>Node2&#45;&gt;Node1</title>
<g id="a_edge1_Node000001_Node000002"><a xlink:title=" ">
<path fill="none" stroke="#9a32cd" stroke-dasharray="5,2" d="M69.01,-63.44C76.53,-54.89 86.39,-44.66 96.5,-37 105.74,-30 117.09,-23.82 126.63,-19.2"/>
<polygon fill="#9a32cd" stroke="#9a32cd" points="66.16,-61.4 62.36,-71.29 71.49,-65.93 66.16,-61.4"/>
</a>
</g>
<text text-anchor="middle" x="119.5" y="-40" font-family="Helvetica,sans-Serif" font-size="10.00" fill="grey"> m_comp</text>
</g>
<!-- Node3 -->
<g id="Node000003" class="node">
<title>Node3</title>
<g id="a_Node000003"><a xlink:href="../../d9/d97/classlci_1_1comp__impl__t.html" target="_top" xlink:title="Completion object implementation base type.">
<polygon fill="white" stroke="#666666" points="97,-162 0,-162 0,-143 97,-143 97,-162"/>
<text text-anchor="middle" x="48.5" y="-150" font-family="Helvetica,sans-Serif" font-size="10.00">lci::comp_impl_t</text>
</a>
</g>
</g>
<!-- Node3&#45;&gt;Node2 -->
<g id="edge2_Node000002_Node000003" class="edge">
<title>Node3&#45;&gt;Node2</title>
<g id="a_edge2_Node000002_Node000003"><a xlink:title=" ">
<path fill="none" stroke="#9a32cd" stroke-dasharray="5,2" d="M50.39,-132.71C51.77,-119 53.58,-101.05 54.63,-90.59"/>
<polygon fill="#9a32cd" stroke="#9a32cd" points="46.88,-132.68 49.36,-142.98 53.84,-133.38 46.88,-132.68"/>
</a>
</g>
<text text-anchor="middle" x="71" y="-117" font-family="Helvetica,sans-Serif" font-size="10.00" fill="grey"> p_impl</text>
</g>
<!-- Node4 -->
<g id="Node000004" class="node">
<title>Node4</title>
<g id="a_Node000004"><a xlink:href="../../dc/da6/structlci_1_1comp__attr__t.html" target="_top" xlink:title=" ">
<polygon fill="white" stroke="#666666" points="94.5,-228 2.5,-228 2.5,-209 94.5,-209 94.5,-228"/>
<text text-anchor="middle" x="48.5" y="-216" font-family="Helvetica,sans-Serif" font-size="10.00">lci::comp_attr_t</text>
</a>
</g>
</g>
<!-- Node4&#45;&gt;Node3 -->
<g id="edge3_Node000003_Node000004" class="edge">
<title>Node4&#45;&gt;Node3</title>
<g id="a_edge3_Node000003_Node000004"><a xlink:title=" ">
<path fill="none" stroke="#9a32cd" stroke-dasharray="5,2" d="M48.5,-198.58C48.5,-186.63 48.5,-171.72 48.5,-162.41"/>
<polygon fill="#9a32cd" stroke="#9a32cd" points="45,-198.87 48.5,-208.87 52,-198.87 45,-198.87"/>
</a>
</g>
<text text-anchor="middle" x="59" y="-183" font-family="Helvetica,sans-Serif" font-size="10.00" fill="grey"> attr</text>
</g>
<!-- Node5 -->
<g id="Node000005" class="node">
<title>Node5</title>
<g id="a_Node000005"><a xlink:href="../../d9/d1e/structlci_1_1status__t.html" target="_top" xlink:title="The type of the completion desciptor for a posted communication.">
<polygon fill="white" stroke="#666666" points="183,-90.5 110,-90.5 110,-71.5 183,-71.5 183,-90.5"/>
<text text-anchor="middle" x="146.5" y="-78.5" font-family="Helvetica,sans-Serif" font-size="10.00">lci::status_t</text>
</a>
</g>
</g>
<!-- Node5&#45;&gt;Node1 -->
<g id="edge4_Node000001_Node000005" class="edge">
<title>Node5&#45;&gt;Node1</title>
<g id="a_edge4_Node000001_Node000005"><a xlink:title=" ">
<path fill="none" stroke="#9a32cd" stroke-dasharray="5,2" d="M146.5,-61.21C146.5,-47.5 146.5,-29.55 146.5,-19.09"/>
<polygon fill="#9a32cd" stroke="#9a32cd" points="143,-61.48 146.5,-71.48 150,-61.48 143,-61.48"/>
</a>
</g>
<text text-anchor="middle" x="171" y="-40" font-family="Helvetica,sans-Serif" font-size="10.00" fill="grey"> m_status</text>
</g>
<!-- Node6 -->
<g id="Node000006" class="node">
<title>Node6</title>
<g id="a_Node000006"><a xlink:href="../../d2/d46/structlci_1_1error__t.html" target="_top" xlink:title="Wrapper class for error code.">
<polygon fill="white" stroke="#666666" points="181.5,-162 115.5,-162 115.5,-143 181.5,-143 181.5,-162"/>
<text text-anchor="middle" x="148.5" y="-150" font-family="Helvetica,sans-Serif" font-size="10.00">lci::error_t</text>
</a>
</g>
</g>
<!-- Node6&#45;&gt;Node5 -->
<g id="edge5_Node000005_Node000006" class="edge">
<title>Node6&#45;&gt;Node5</title>
<g id="a_edge5_Node000005_Node000006"><a xlink:title=" ">
<path fill="none" stroke="#9a32cd" stroke-dasharray="5,2" d="M147.96,-132.71C147.56,-119 147.05,-101.05 146.75,-90.59"/>
<polygon fill="#9a32cd" stroke="#9a32cd" points="144.47,-133.08 148.25,-142.98 151.47,-132.88 144.47,-133.08"/>
</a>
</g>
<text text-anchor="middle" x="162" y="-117" font-family="Helvetica,sans-Serif" font-size="10.00" fill="grey"> error</text>
</g>
<!-- Node7 -->
<g id="Node000007" class="node">
<title>Node7</title>
<g id="a_Node000007"><a xlink:href="../../db/d20/structlci_1_1option__t.html" target="_top" xlink:title=" ">
<polygon fill="white" stroke="#666666" points="297.5,-96 201.5,-96 201.5,-66 297.5,-66 297.5,-96"/>
<text text-anchor="start" x="209.5" y="-84" font-family="Helvetica,sans-Serif" font-size="10.00">lci::option_t&lt; lci</text>
<text text-anchor="middle" x="249.5" y="-73" font-family="Helvetica,sans-Serif" font-size="10.00">::runtime_t &gt;</text>
</a>
</g>
</g>
<!-- Node7&#45;&gt;Node1 -->
<g id="edge6_Node000001_Node000007" class="edge">
<title>Node7&#45;&gt;Node1</title>
<g id="a_edge6_Node000001_Node000007"><a xlink:title=" ">
<path fill="none" stroke="#9a32cd" stroke-dasharray="5,2" d="M227.43,-58.96C219.05,-51.54 209.18,-43.44 199.5,-37 189.14,-30.11 176.73,-23.81 166.52,-19.08"/>
<polygon fill="#9a32cd" stroke="#9a32cd" points="225.2,-61.67 234.96,-65.8 229.91,-56.49 225.2,-61.67"/>
</a>
</g>
<text text-anchor="middle" x="243" y="-40" font-family="Helvetica,sans-Serif" font-size="10.00" fill="grey"> m_runtime</text>
</g>
<!-- Node8 -->
<g id="Node000008" class="node">
<title>Node8</title>
<g id="a_Node000008"><a xlink:href="../../dc/d5c/classlci_1_1runtime__t.html" target="_top" xlink:title="The actual implementation for RESOURCE runtime.">
<polygon fill="white" stroke="#666666" points="290,-162 209,-162 209,-143 290,-143 290,-162"/>
<text text-anchor="middle" x="249.5" y="-150" font-family="Helvetica,sans-Serif" font-size="10.00">lci::runtime_t</text>
</a>
</g>
</g>
<!-- Node8&#45;&gt;Node7 -->
<g id="edge7_Node000007_Node000008" class="edge">
<title>Node8&#45;&gt;Node7</title>
<g id="a_edge7_Node000007_Node000008"><a xlink:title=" ">
<path fill="none" stroke="#9a32cd" stroke-dasharray="5,2" d="M249.5,-132.71C249.5,-121.19 249.5,-106.68 249.5,-96.14"/>
<polygon fill="#9a32cd" stroke="#9a32cd" points="246,-132.98 249.5,-142.98 253,-132.98 246,-132.98"/>
</a>
</g>
<text text-anchor="middle" x="272.5" y="-117" font-family="Helvetica,sans-Serif" font-size="10.00" fill="grey"> m_value</text>
</g>
</g>
</svg>
