<?xml version="1.0" encoding="UTF-8" standalone="no"?>
<!DOCTYPE svg PUBLIC "-//W3C//DTD SVG 1.1//EN"
 "http://www.w3.org/Graphics/SVG/1.1/DTD/svg11.dtd">
<!-- Generated by graphviz version 2.43.0 (0)
 -->
<!-- Title: Resource Management Pages: 1 -->
<svg width="330pt" height="1001pt"
 viewBox="0.00 0.00 330.00 1001.00" xmlns="http://www.w3.org/2000/svg" xmlns:xlink="http://www.w3.org/1999/xlink">
<g id="graph0" class="graph" transform="scale(1 1) rotate(0) translate(4 997)">
<title>Resource Management</title>
<!-- Node4 -->
<g id="Node000004" class="node">
<title>Node4</title>
<g id="a_Node000004"><a xlink:href="../../d2/dca/group__LCI__ALLOC__DEVICE.html" target="_top" xlink:title="Allocate a new device object.">
<polygon fill="white" stroke="#666666" points="282,-993 205,-993 205,-974 282,-974 282,-993"/>
<text text-anchor="middle" x="243.5" y="-981" font-family="Helvetica,sans-Serif" font-size="10.00">alloc_device</text>
</a>
</g>
</g>
<!-- Node6 -->
<g id="Node000006" class="node">
<title>Node6</title>
<g id="a_Node000006"><a xlink:href="../../d8/d04/group__LCI__ALLOC__ENDPOINT.html" target="_top" xlink:title="Allocate a new endpoint object.">
<polygon fill="white" stroke="#666666" points="287.5,-956 199.5,-956 199.5,-937 287.5,-937 287.5,-956"/>
<text text-anchor="middle" x="243.5" y="-944" font-family="Helvetica,sans-Serif" font-size="10.00">alloc_endpoint</text>
</a>
</g>
</g>
<!-- Node14 -->
<g id="Node000014" class="node">
<title>Node14</title>
<g id="a_Node000014"><a xlink:href="../../dc/db2/group__LCI__ALLOC__MATCHING__ENGINE.html" target="_top" xlink:title="Allocate a new matching_engine object.">
<polygon fill="white" stroke="#666666" points="308,-919 179,-919 179,-900 308,-900 308,-919"/>
<text text-anchor="middle" x="243.5" y="-907" font-family="Helvetica,sans-Serif" font-size="10.00">alloc_matching_engine</text>
</a>
</g>
</g>
<!-- Node2 -->
<g id="Node000002" class="node">
<title>Node2</title>
<g id="a_Node000002"><a xlink:href="../../d8/d0d/group__LCI__ALLOC__NET__CONTEXT.html" target="_top" xlink:title="Allocate a new net_context object.">
<polygon fill="white" stroke="#666666" points="295,-882 192,-882 192,-863 295,-863 295,-882"/>
<text text-anchor="middle" x="243.5" y="-870" font-family="Helvetica,sans-Serif" font-size="10.00">alloc_net_context</text>
</a>
</g>
</g>
<!-- Node8 -->
<g id="Node000008" class="node">
<title>Node8</title>
<g id="a_Node000008"><a xlink:href="../../dc/d67/group__LCI__ALLOC__PACKET__POOL.html" target="_top" xlink:title="Allocate a new packet_pool object.">
<polygon fill="white" stroke="#666666" points="295.5,-845 191.5,-845 191.5,-826 295.5,-826 295.5,-845"/>
<text text-anchor="middle" x="243.5" y="-833" font-family="Helvetica,sans-Serif" font-size="10.00">alloc_packet_pool</text>
</a>
</g>
</g>
<!-- Node11 -->
<g id="Node000011" class="node">
<title>Node11</title>
<g id="a_Node000011"><a xlink:href="../../da/dd1/group__LCI__DEREGISTER__PACKET__POOL.html" target="_top" xlink:title="Deregister a packet pool from a device.">
<polygon fill="white" stroke="#666666" points="308.5,-808 178.5,-808 178.5,-789 308.5,-789 308.5,-808"/>
<text text-anchor="middle" x="243.5" y="-796" font-family="Helvetica,sans-Serif" font-size="10.00">deregister_packet_pool</text>
</a>
</g>
</g>
<!-- Node25 -->
<g id="Node000025" class="node">
<title>Node25</title>
<g id="a_Node000025"><a xlink:href="../../d6/d98/group__LCI__DEVICE.html" target="_top" xlink:title="The device resource.">
<polygon fill="white" stroke="#666666" points="296,-771 191,-771 191,-752 296,-752 296,-771"/>
<text text-anchor="middle" x="243.5" y="-759" font-family="Helvetica,sans-Serif" font-size="10.00">RESOURCE device</text>
</a>
</g>
</g>
<!-- Node26 -->
<g id="Node000026" class="node">
<title>Node26</title>
<g id="a_Node000026"><a xlink:href="../../d1/d1d/group__LCI__ENDPOINT.html" target="_top" xlink:title="The endpoint resource.">
<polygon fill="white" stroke="#666666" points="301.5,-734 185.5,-734 185.5,-715 301.5,-715 301.5,-734"/>
<text text-anchor="middle" x="243.5" y="-722" font-family="Helvetica,sans-Serif" font-size="10.00">RESOURCE endpoint</text>
</a>
</g>
</g>
<!-- Node5 -->
<g id="Node000005" class="node">
<title>Node5</title>
<g id="a_Node000005"><a xlink:href="../../d7/d4e/group__LCI__FREE__DEVICE.html" target="_top" xlink:title="Free a new device object.">
<polygon fill="white" stroke="#666666" points="280.5,-697 206.5,-697 206.5,-678 280.5,-678 280.5,-697"/>
<text text-anchor="middle" x="243.5" y="-685" font-family="Helvetica,sans-Serif" font-size="10.00">free_device</text>
</a>
</g>
</g>
<!-- Node7 -->
<g id="Node000007" class="node">
<title>Node7</title>
<g id="a_Node000007"><a xlink:href="../../dc/dfb/group__LCI__FREE__ENDPOINT.html" target="_top" xlink:title="Free a new endpoint object.">
<polygon fill="white" stroke="#666666" points="285.5,-660 201.5,-660 201.5,-641 285.5,-641 285.5,-660"/>
<text text-anchor="middle" x="243.5" y="-648" font-family="Helvetica,sans-Serif" font-size="10.00">free_endpoint</text>
</a>
</g>
</g>
<!-- Node15 -->
<g id="Node000015" class="node">
<title>Node15</title>
<g id="a_Node000015"><a xlink:href="../../db/ddc/group__LCI__FREE__MATCHING__ENGINE.html" target="_top" xlink:title="Free a new matching_engine object.">
<polygon fill="white" stroke="#666666" points="306,-623 181,-623 181,-604 306,-604 306,-623"/>
<text text-anchor="middle" x="243.5" y="-611" font-family="Helvetica,sans-Serif" font-size="10.00">free_matching_engine</text>
</a>
</g>
</g>
<!-- Node3 -->
<g id="Node000003" class="node">
<title>Node3</title>
<g id="a_Node000003"><a xlink:href="../../d2/de7/group__LCI__FREE__NET__CONTEXT.html" target="_top" xlink:title="Free a new net_context object.">
<polygon fill="white" stroke="#666666" points="293,-586 194,-586 194,-567 293,-567 293,-586"/>
<text text-anchor="middle" x="243.5" y="-574" font-family="Helvetica,sans-Serif" font-size="10.00">free_net_context</text>
</a>
</g>
</g>
<!-- Node9 -->
<g id="Node000009" class="node">
<title>Node9</title>
<g id="a_Node000009"><a xlink:href="../../de/d6d/group__LCI__FREE__PACKET__POOL.html" target="_top" xlink:title="Free a new packet_pool object.">
<polygon fill="white" stroke="#666666" points="293.5,-549 193.5,-549 193.5,-530 293.5,-530 293.5,-549"/>
<text text-anchor="middle" x="243.5" y="-537" font-family="Helvetica,sans-Serif" font-size="10.00">free_packet_pool</text>
</a>
</g>
</g>
<!-- Node18 -->
<g id="Node000018" class="node">
<title>Node18</title>
<g id="a_Node000018"><a xlink:href="../../d6/d00/group__LCI__GET__ALLOCATOR.html" target="_top" xlink:title="Get the message allocator for the runtime.">
<polygon fill="white" stroke="#666666" points="283.5,-512 203.5,-512 203.5,-493 283.5,-493 283.5,-512"/>
<text text-anchor="middle" x="243.5" y="-500" font-family="Helvetica,sans-Serif" font-size="10.00">get_allocator</text>
</a>
</g>
</g>
<!-- Node20 -->
<g id="Node000020" class="node">
<title>Node20</title>
<g id="a_Node000020"><a xlink:href="../../df/d10/group__LCI__GET__DEFAULT__DEVICE.html" target="_top" xlink:title="Get the default net device of the runtime.">
<polygon fill="white" stroke="#666666" points="298.5,-475 188.5,-475 188.5,-456 298.5,-456 298.5,-475"/>
<text text-anchor="middle" x="243.5" y="-463" font-family="Helvetica,sans-Serif" font-size="10.00">get_default_device</text>
</a>
</g>
</g>
<!-- Node21 -->
<g id="Node000021" class="node">
<title>Node21</title>
<g id="a_Node000021"><a xlink:href="../../d3/d5b/group__LCI__GET__DEFAULT__ENDPOINT.html" target="_top" xlink:title="Get the default net endpoint of the runtime.">
<polygon fill="white" stroke="#666666" points="303.5,-438 183.5,-438 183.5,-419 303.5,-419 303.5,-438"/>
<text text-anchor="middle" x="243.5" y="-426" font-family="Helvetica,sans-Serif" font-size="10.00">get_default_endpoint</text>
</a>
</g>
</g>
<!-- Node23 -->
<g id="Node000023" class="node">
<title>Node23</title>
<g id="a_Node000023"><a xlink:href="../../d8/dd9/group__LCI__GET__DEFAULT__MATCHING__ENGINE.html" target="_top" xlink:title="Get the default matching engine of the runtime.">
<polygon fill="white" stroke="#666666" points="305,-400.5 182,-400.5 182,-370.5 305,-370.5 305,-400.5"/>
<text text-anchor="start" x="190" y="-388.5" font-family="Helvetica,sans-Serif" font-size="10.00">get_default_matching</text>
<text text-anchor="middle" x="243.5" y="-377.5" font-family="Helvetica,sans-Serif" font-size="10.00">_engine</text>
</a>
</g>
</g>
<!-- Node19 -->
<g id="Node000019" class="node">
<title>Node19</title>
<g id="a_Node000019"><a xlink:href="../../d9/d24/group__LCI__GET__DEFAULT__NET__CONTEXT.html" target="_top" xlink:title="Get the default net context of the runtime.">
<polygon fill="white" stroke="#666666" points="311,-352 176,-352 176,-333 311,-333 311,-352"/>
<text text-anchor="middle" x="243.5" y="-340" font-family="Helvetica,sans-Serif" font-size="10.00">get_default_net_context</text>
</a>
</g>
</g>
<!-- Node22 -->
<g id="Node000022" class="node">
<title>Node22</title>
<g id="a_Node000022"><a xlink:href="../../df/d00/group__LCI__GET__DEFAULT__PACKET__POOL.html" target="_top" xlink:title="Get the default packet pool of the runtime.">
<polygon fill="white" stroke="#666666" points="311.5,-315 175.5,-315 175.5,-296 311.5,-296 311.5,-315"/>
<text text-anchor="middle" x="243.5" y="-303" font-family="Helvetica,sans-Serif" font-size="10.00">get_default_packet_pool</text>
</a>
</g>
</g>
<!-- Node12 -->
<g id="Node000012" class="node">
<title>Node12</title>
<g id="a_Node000012"><a xlink:href="../../d4/dc1/group__LCI__GET__UPACKET.html" target="_top" xlink:title="Get a packet for writing user payload from the packet pool.">
<polygon fill="white" stroke="#666666" points="281.5,-278 205.5,-278 205.5,-259 281.5,-259 281.5,-278"/>
<text text-anchor="middle" x="243.5" y="-266" font-family="Helvetica,sans-Serif" font-size="10.00">get_upacket</text>
</a>
</g>
</g>
<!-- Node28 -->
<g id="Node000028" class="node">
<title>Node28</title>
<g id="a_Node000028"><a xlink:href="../../d3/d96/group__LCI__MATCHING__ENGINE.html" target="_top" xlink:title="The matching engine resource.">
<polygon fill="white" stroke="#666666" points="322,-241 165,-241 165,-222 322,-222 322,-241"/>
<text text-anchor="middle" x="243.5" y="-229" font-family="Helvetica,sans-Serif" font-size="10.00">RESOURCE matching_engine</text>
</a>
</g>
</g>
<!-- Node16 -->
<g id="Node000016" class="node">
<title>Node16</title>
<g id="a_Node000016"><a xlink:href="../../d4/d0b/group__LCI__MATCHING__ENGINE__INSERT.html" target="_top" xlink:title="Insert an entry into the matching engine.">
<polygon fill="white" stroke="#666666" points="310.5,-204 176.5,-204 176.5,-185 310.5,-185 310.5,-204"/>
<text text-anchor="middle" x="243.5" y="-192" font-family="Helvetica,sans-Serif" font-size="10.00">matching_engine_insert</text>
</a>
</g>
</g>
<!-- Node24 -->
<g id="Node000024" class="node">
<title>Node24</title>
<g id="a_Node000024"><a xlink:href="../../da/d88/group__LCI__NET__CONTEXT.html" target="_top" xlink:title="The network context resource.">
<polygon fill="white" stroke="#666666" points="309,-167 178,-167 178,-148 309,-148 309,-167"/>
<text text-anchor="middle" x="243.5" y="-155" font-family="Helvetica,sans-Serif" font-size="10.00">RESOURCE net_context</text>
</a>
</g>
</g>
<!-- Node27 -->
<g id="Node000027" class="node">
<title>Node27</title>
<g id="a_Node000027"><a xlink:href="../../d9/d19/group__LCI__PACKET__POOL.html" target="_top" xlink:title="The packet pool resource.">
<polygon fill="white" stroke="#666666" points="309,-130 178,-130 178,-111 309,-111 309,-130"/>
<text text-anchor="middle" x="243.5" y="-118" font-family="Helvetica,sans-Serif" font-size="10.00">RESOURCE packet_pool</text>
</a>
</g>
</g>
<!-- Node13 -->
<g id="Node000013" class="node">
<title>Node13</title>
<g id="a_Node000013"><a xlink:href="../../d8/df6/group__LCI__PUT__UPACKET.html" target="_top" xlink:title="Return a packet to the packet pool.">
<polygon fill="white" stroke="#666666" points="281.5,-93 205.5,-93 205.5,-74 281.5,-74 281.5,-93"/>
<text text-anchor="middle" x="243.5" y="-81" font-family="Helvetica,sans-Serif" font-size="10.00">put_upacket</text>
</a>
</g>
</g>
<!-- Node10 -->
<g id="Node000010" class="node">
<title>Node10</title>
<g id="a_Node000010"><a xlink:href="../../d0/df7/group__LCI__REGISTER__PACKET__POOL.html" target="_top" xlink:title="Register a packet pool to a device.">
<polygon fill="white" stroke="#666666" points="302.5,-56 184.5,-56 184.5,-37 302.5,-37 302.5,-56"/>
<text text-anchor="middle" x="243.5" y="-44" font-family="Helvetica,sans-Serif" font-size="10.00">register_packet_pool</text>
</a>
</g>
</g>
<!-- Node1 -->
<g id="Node000001" class="node">
<title>Node1</title>
<g id="a_Node000001"><a xlink:title="This section describes the LCI API for resource management.">
<polygon fill="#999999" stroke="#666666" points="129,-512 0,-512 0,-493 129,-493 129,-512"/>
<text text-anchor="middle" x="64.5" y="-500" font-family="Helvetica,sans-Serif" font-size="10.00">Resource Management</text>
</a>
</g>
</g>
<!-- Node1&#45;&gt;Node4 -->
<g id="edge3" class="edge">
<title>Node1&#45;&gt;Node4</title>
<path fill="none" stroke="black" d="M66.99,-522.33C73.4,-602.4 101.26,-900.69 165,-965.5 175.36,-976.04 190.6,-980.91 204.83,-983.01"/>
<polygon fill="black" stroke="black" points="70.46,-521.85 66.2,-512.15 63.48,-522.39 70.46,-521.85"/>
</g>
<!-- Node1&#45;&gt;Node6 -->
<g id="edge5" class="edge">
<title>Node1&#45;&gt;Node6</title>
<path fill="none" stroke="black" d="M67.37,-522.19C74.97,-597.97 105.96,-869.54 165,-928.5 174.09,-937.58 186.8,-942.44 199.31,-944.94"/>
<polygon fill="black" stroke="black" points="70.84,-521.73 66.39,-512.12 63.88,-522.41 70.84,-521.73"/>
</g>
<!-- Node1&#45;&gt;Node14 -->
<g id="edge13" class="edge">
<title>Node1&#45;&gt;Node14</title>
<path fill="none" stroke="black" d="M67.85,-522.31C76.77,-593.99 110.72,-838.41 165,-891.5 169.05,-895.46 173.79,-898.61 178.89,-901.12"/>
<polygon fill="black" stroke="black" points="71.32,-521.85 66.64,-512.34 64.38,-522.69 71.32,-521.85"/>
</g>
<!-- Node1&#45;&gt;Node2 -->
<g id="edge1" class="edge">
<title>Node1&#45;&gt;Node2</title>
<path fill="none" stroke="black" d="M68.39,-522.12C78.65,-589.11 115.37,-807.16 165,-854.5 172.4,-861.55 181.99,-866.04 191.9,-868.84"/>
<polygon fill="black" stroke="black" points="71.83,-521.45 66.88,-512.08 64.91,-522.49 71.83,-521.45"/>
</g>
<!-- Node1&#45;&gt;Node8 -->
<g id="edge7" class="edge">
<title>Node1&#45;&gt;Node8</title>
<path fill="none" stroke="black" d="M65.44,-522.5C66.41,-578.18 77.16,-736.23 165,-817.5 172.3,-824.25 181.62,-828.63 191.26,-831.44"/>
<polygon fill="black" stroke="black" points="68.94,-522.2 65.35,-512.23 61.94,-522.26 68.94,-522.2"/>
</g>
<!-- Node1&#45;&gt;Node11 -->
<g id="edge10" class="edge">
<title>Node1&#45;&gt;Node11</title>
<path fill="none" stroke="black" d="M66.38,-522.19C69.78,-573.15 86.17,-710.29 165,-780.5 168.92,-783.99 173.38,-786.84 178.14,-789.17"/>
<polygon fill="black" stroke="black" points="69.88,-521.96 65.81,-512.17 62.89,-522.35 69.88,-521.96"/>
</g>
<!-- Node1&#45;&gt;Node25 -->
<g id="edge24" class="edge">
<title>Node1&#45;&gt;Node25</title>
<path fill="none" stroke="black" d="M67.62,-522.32C73.66,-568.61 95.32,-684.37 165,-743.5 172.37,-749.76 181.51,-753.94 190.89,-756.71"/>
<polygon fill="black" stroke="black" points="71.06,-521.64 66.4,-512.13 64.11,-522.47 71.06,-521.64"/>
</g>
<!-- Node1&#45;&gt;Node26 -->
<g id="edge25" class="edge">
<title>Node1&#45;&gt;Node26</title>
<path fill="none" stroke="black" d="M69.18,-522.03C77.97,-562.98 104.14,-658.03 165,-706.5 170.94,-711.23 177.91,-714.76 185.18,-717.39"/>
<polygon fill="black" stroke="black" points="72.57,-521.11 67.15,-512 65.71,-522.5 72.57,-521.11"/>
</g>
<!-- Node1&#45;&gt;Node5 -->
<g id="edge4" class="edge">
<title>Node1&#45;&gt;Node5</title>
<path fill="none" stroke="black" d="M71.38,-521.86C83.11,-557.06 112.89,-631.44 165,-669.5 176.94,-678.22 192.43,-682.79 206.43,-685.16"/>
<polygon fill="black" stroke="black" points="74.69,-520.73 68.31,-512.27 68.03,-522.86 74.69,-520.73"/>
</g>
<!-- Node1&#45;&gt;Node7 -->
<g id="edge6" class="edge">
<title>Node1&#45;&gt;Node7</title>
<path fill="none" stroke="black" d="M74.4,-521.13C89.1,-549.77 121.2,-604.25 165,-632.5 175.8,-639.46 188.97,-643.74 201.38,-646.37"/>
<polygon fill="black" stroke="black" points="77.53,-519.56 69.94,-512.16 71.26,-522.67 77.53,-519.56"/>
</g>
<!-- Node1&#45;&gt;Node15 -->
<g id="edge14" class="edge">
<title>Node1&#45;&gt;Node15</title>
<path fill="none" stroke="black" d="M79.21,-520.01C96.77,-541.21 129.24,-576.43 165,-595.5 171.46,-598.94 178.57,-601.73 185.78,-603.99"/>
<polygon fill="black" stroke="black" points="81.84,-517.7 72.83,-512.13 76.39,-522.1 81.84,-517.7"/>
</g>
<!-- Node1&#45;&gt;Node3 -->
<g id="edge2" class="edge">
<title>Node1&#45;&gt;Node3</title>
<path fill="none" stroke="black" d="M88.21,-517.76C107.8,-530.31 137.24,-547.72 165,-558.5 174.14,-562.05 184.17,-565.02 193.9,-567.45"/>
<polygon fill="black" stroke="black" points="89.98,-514.74 79.69,-512.21 86.16,-520.6 89.98,-514.74"/>
</g>
<!-- Node1&#45;&gt;Node9 -->
<g id="edge8" class="edge">
<title>Node1&#45;&gt;Node9</title>
<path fill="none" stroke="black" d="M120.92,-514.08C145.3,-519.18 173.61,-525.1 196.77,-529.94"/>
<polygon fill="black" stroke="black" points="121.59,-510.65 111.08,-512.03 120.15,-517.5 121.59,-510.65"/>
</g>
<!-- Node1&#45;&gt;Node18 -->
<g id="edge17" class="edge">
<title>Node1&#45;&gt;Node18</title>
<path fill="none" stroke="black" d="M139.69,-502.5C161.58,-502.5 184.67,-502.5 203.41,-502.5"/>
<polygon fill="black" stroke="black" points="139.4,-499 129.4,-502.5 139.4,-506 139.4,-499"/>
</g>
<!-- Node1&#45;&gt;Node20 -->
<g id="edge19" class="edge">
<title>Node1&#45;&gt;Node20</title>
<path fill="none" stroke="black" d="M120.92,-490.92C145.3,-485.82 173.61,-479.9 196.77,-475.06"/>
<polygon fill="black" stroke="black" points="120.15,-487.5 111.08,-492.97 121.59,-494.35 120.15,-487.5"/>
</g>
<!-- Node1&#45;&gt;Node21 -->
<g id="edge20" class="edge">
<title>Node1&#45;&gt;Node21</title>
<path fill="none" stroke="black" d="M88.62,-487.4C108.26,-475.16 137.55,-458.23 165,-447.5 174.42,-443.82 184.77,-440.69 194.75,-438.1"/>
<polygon fill="black" stroke="black" points="86.64,-484.52 80.07,-492.83 90.39,-490.43 86.64,-484.52"/>
</g>
<!-- Node1&#45;&gt;Node23 -->
<g id="edge22" class="edge">
<title>Node1&#45;&gt;Node23</title>
<path fill="none" stroke="black" d="M79.79,-485.35C97.73,-464.84 130.37,-430.75 165,-410.5 171.47,-406.72 178.58,-403.43 185.79,-400.59"/>
<polygon fill="black" stroke="black" points="77.1,-483.11 73.25,-492.98 82.41,-487.67 77.1,-483.11"/>
</g>
<!-- Node1&#45;&gt;Node19 -->
<g id="edge18" class="edge">
<title>Node1&#45;&gt;Node19</title>
<path fill="none" stroke="black" d="M73.61,-483.27C87.58,-452.56 119.16,-392.75 165,-361.5 170.72,-357.6 177.17,-354.5 183.83,-352.03"/>
<polygon fill="black" stroke="black" points="70.23,-482.26 69.41,-492.82 76.64,-485.07 70.23,-482.26"/>
</g>
<!-- Node1&#45;&gt;Node22 -->
<g id="edge21" class="edge">
<title>Node1&#45;&gt;Node22</title>
<path fill="none" stroke="black" d="M70.73,-483C81.68,-446.07 110.63,-365.9 165,-324.5 170.07,-320.64 175.82,-317.55 181.84,-315.09"/>
<polygon fill="black" stroke="black" points="67.26,-482.41 67.9,-492.99 73.99,-484.32 67.26,-482.41"/>
</g>
<!-- Node1&#45;&gt;Node12 -->
<g id="edge11" class="edge">
<title>Node1&#45;&gt;Node12</title>
<path fill="none" stroke="black" d="M68.79,-482.55C76.92,-439.86 102.05,-339.34 165,-287.5 176.23,-278.25 191.28,-273.4 205.14,-270.88"/>
<polygon fill="black" stroke="black" points="65.32,-482.07 67.01,-492.53 72.21,-483.3 65.32,-482.07"/>
</g>
<!-- Node1&#45;&gt;Node28 -->
<g id="edge27" class="edge">
<title>Node1&#45;&gt;Node28</title>
<path fill="none" stroke="black" d="M67.26,-482.81C72.6,-435.25 92.98,-313.36 165,-250.5 169.38,-246.67 174.41,-243.59 179.76,-241.11"/>
<polygon fill="black" stroke="black" points="63.75,-482.69 66.22,-492.99 70.72,-483.39 63.75,-482.69"/>
</g>
<!-- Node1&#45;&gt;Node16 -->
<g id="edge15" class="edge">
<title>Node1&#45;&gt;Node16</title>
<path fill="none" stroke="black" d="M66.15,-482.47C68.98,-429.96 84.11,-287.33 165,-213.5 169.2,-209.67 174.03,-206.58 179.2,-204.09"/>
<polygon fill="black" stroke="black" points="62.64,-482.62 65.69,-492.76 69.63,-482.93 62.64,-482.62"/>
</g>
<!-- Node1&#45;&gt;Node24 -->
<g id="edge23" class="edge">
<title>Node1&#45;&gt;Node24</title>
<path fill="none" stroke="black" d="M65.24,-482.62C65.64,-425.87 74.9,-261.71 165,-176.5 169.03,-172.69 173.69,-169.61 178.68,-167.12"/>
<polygon fill="black" stroke="black" points="61.74,-482.77 65.26,-492.76 68.74,-482.75 61.74,-482.77"/>
</g>
<!-- Node1&#45;&gt;Node27 -->
<g id="edge26" class="edge">
<title>Node1&#45;&gt;Node27</title>
<path fill="none" stroke="black" d="M68.26,-482.74C78.2,-414.3 114.31,-188.83 165,-139.5 168.87,-135.73 173.36,-132.67 178.19,-130.19"/>
<polygon fill="black" stroke="black" points="64.75,-482.59 66.8,-492.98 71.68,-483.57 64.75,-482.59"/>
</g>
<!-- Node1&#45;&gt;Node13 -->
<g id="edge12" class="edge">
<title>Node1&#45;&gt;Node13</title>
<path fill="none" stroke="black" d="M67.74,-482.64C76.35,-409.65 109.67,-157.64 165,-102.5 175.6,-91.94 191.05,-86.91 205.37,-84.62"/>
<polygon fill="black" stroke="black" points="64.24,-482.42 66.57,-492.76 71.19,-483.23 64.24,-482.42"/>
</g>
<!-- Node1&#45;&gt;Node10 -->
<g id="edge9" class="edge">
<title>Node1&#45;&gt;Node10</title>
<path fill="none" stroke="black" d="M67.32,-482.33C74.71,-404.69 105.06,-126.44 165,-65.5 170.44,-59.97 177.21,-55.95 184.46,-53.04"/>
<polygon fill="black" stroke="black" points="63.8,-482.36 66.36,-492.64 70.77,-483.01 63.8,-482.36"/>
</g>
<!-- Node17 -->
<g id="Node000017" class="node">
<title>Node17</title>
<g id="a_Node000017"><a xlink:href="../../d8/d83/group__LCI__SET__ALLOCATOR.html" target="_top" xlink:title="Set the message allocator for the runtime.">
<polygon fill="white" stroke="#666666" points="283.5,-19 203.5,-19 203.5,0 283.5,0 283.5,-19"/>
<text text-anchor="middle" x="243.5" y="-7" font-family="Helvetica,sans-Serif" font-size="10.00">set_allocator</text>
</a>
</g>
</g>
<!-- Node1&#45;&gt;Node17 -->
<g id="edge16" class="edge">
<title>Node1&#45;&gt;Node17</title>
<path fill="none" stroke="black" d="M66.94,-482.23C73.15,-400.36 100.37,-95.33 165,-28.5 174.92,-18.24 189.4,-13.16 203.17,-10.76"/>
<polygon fill="black" stroke="black" points="63.42,-482.4 66.17,-492.63 70.4,-482.92 63.42,-482.4"/>
</g>
</g>
</svg>
