<?xml version="1.0" encoding="UTF-8" standalone="no"?>
<!DOCTYPE svg PUBLIC "-//W3C//DTD SVG 1.1//EN"
 "http://www.w3.org/Graphics/SVG/1.1/DTD/svg11.dtd">
<!-- Generated by graphviz version 2.43.0 (0)
 -->
<!-- Title: lci::alltoall_x::call Pages: 1 -->
<svg width="280pt" height="64pt"
 viewBox="0.00 0.00 280.00 64.00" xmlns="http://www.w3.org/2000/svg" xmlns:xlink="http://www.w3.org/1999/xlink">
<g id="graph0" class="graph" transform="scale(1 1) rotate(0) translate(4 60)">
<title>lci::alltoall_x::call</title>
<!-- Node1 -->
<g id="Node000001" class="node">
<title>Node1</title>
<g id="a_Node000001"><a xlink:title=" ">
<polygon fill="#999999" stroke="#666666" points="272,-37 170,-37 170,-18 272,-18 272,-37"/>
<text text-anchor="middle" x="221" y="-25" font-family="Helvetica,sans-Serif" font-size="10.00">lci::alltoall_x::call</text>
</a>
</g>
</g>
<!-- Node2 -->
<g id="Node000002" class="node">
<title>Node2</title>
<g id="a_Node000002"><a xlink:href="../../d5/dd3/namespacelci.html#a4e2dd2eb470fd8c2a4094f746386bd7c" target="_top" xlink:title=" ">
<polygon fill="white" stroke="#666666" points="101,-56 33,-56 33,-37 101,-37 101,-56"/>
<text text-anchor="middle" x="67" y="-44" font-family="Helvetica,sans-Serif" font-size="10.00">lci::alltoall</text>
</a>
</g>
</g>
<!-- Node1&#45;&gt;Node2 -->
<g id="edge1_Node000001_Node000002" class="edge">
<title>Node1&#45;&gt;Node2</title>
<g id="a_edge1_Node000001_Node000002"><a xlink:title=" ">
<path fill="none" stroke="#63b8ff" d="M159.87,-35.02C139.96,-37.5 118.52,-40.18 101.37,-42.33"/>
<polygon fill="#63b8ff" stroke="#63b8ff" points="160.32,-38.49 169.81,-33.77 159.45,-31.54 160.32,-38.49"/>
</a>
</g>
</g>
<!-- Node3 -->
<g id="Node000003" class="node">
<title>Node3</title>
<g id="a_Node000003"><a xlink:href="../../dc/de4/classlci_1_1alltoall__x.html#aeff93d5c10e711a8f14e5d3b00505bdf" target="_top" xlink:title=" ">
<polygon fill="white" stroke="#666666" points="134,-19 0,-19 0,0 134,0 134,-19"/>
<text text-anchor="middle" x="67" y="-7" font-family="Helvetica,sans-Serif" font-size="10.00">lci::alltoall_x::operator()</text>
</a>
</g>
</g>
<!-- Node1&#45;&gt;Node3 -->
<g id="edge2_Node000001_Node000003" class="edge">
<title>Node1&#45;&gt;Node3</title>
<g id="a_edge2_Node000001_Node000003"><a xlink:title=" ">
<path fill="none" stroke="#63b8ff" d="M159.72,-20.36C151.31,-19.37 142.64,-18.34 134.13,-17.33"/>
<polygon fill="#63b8ff" stroke="#63b8ff" points="159.47,-23.86 169.81,-21.56 160.29,-16.9 159.47,-23.86"/>
</a>
</g>
</g>
</g>
</svg>
