<?xml version="1.0" encoding="UTF-8" standalone="no"?>
<!DOCTYPE svg PUBLIC "-//W3C//DTD SVG 1.1//EN"
 "http://www.w3.org/Graphics/SVG/1.1/DTD/svg11.dtd">
<!-- Generated by graphviz version 2.43.0 (0)
 -->
<!-- Title: lci::alltoall_x::call_impl Pages: 1 -->
<svg width="470pt" height="347pt"
 viewBox="0.00 0.00 470.00 347.00" xmlns="http://www.w3.org/2000/svg" xmlns:xlink="http://www.w3.org/1999/xlink">
<g id="graph0" class="graph" transform="scale(1 1) rotate(0) translate(4 343)">
<title>lci::alltoall_x::call_impl</title>
<!-- Node1 -->
<g id="Node000001" class="node">
<title>Node1</title>
<g id="a_Node000001"><a xlink:title=" ">
<polygon fill="#999999" stroke="#666666" points="129,-173 0,-173 0,-154 129,-154 129,-173"/>
<text text-anchor="middle" x="64.5" y="-161" font-family="Helvetica,sans-Serif" font-size="10.00">lci::alltoall_x::call_impl</text>
</a>
</g>
</g>
<!-- Node2 -->
<g id="Node000002" class="node">
<title>Node2</title>
<g id="a_Node000002"><a xlink:href="../../dc/de4/classlci_1_1alltoall__x.html#ae378489f99f5c27fdda5143341f99766" target="_top" xlink:title=" ">
<polygon fill="white" stroke="#666666" points="286.5,-339 174.5,-339 174.5,-320 286.5,-320 286.5,-339"/>
<text text-anchor="middle" x="230.5" y="-327" font-family="Helvetica,sans-Serif" font-size="10.00">lci::alltoall_x::comp</text>
</a>
</g>
</g>
<!-- Node1&#45;&gt;Node2 -->
<g id="edge1_Node000001_Node000002" class="edge">
<title>Node1&#45;&gt;Node2</title>
<g id="a_edge1_Node000001_Node000002"><a xlink:title=" ">
<path fill="none" stroke="#63b8ff" d="M69.22,-173.08C79.91,-199.27 113.25,-272.68 165,-310.5 167.64,-312.43 170.47,-314.16 173.43,-315.72"/>
<polygon fill="#63b8ff" stroke="#63b8ff" points="172.02,-318.93 182.57,-319.89 174.93,-312.56 172.02,-318.93"/>
</a>
</g>
</g>
<!-- Node4 -->
<g id="Node000004" class="node">
<title>Node4</title>
<g id="a_Node000004"><a xlink:href="../../dc/de4/classlci_1_1alltoall__x.html#ad34567fe45c43f861cca5dc032a3386f" target="_top" xlink:title=" ">
<polygon fill="white" stroke="#666666" points="286.5,-301.5 174.5,-301.5 174.5,-271.5 286.5,-271.5 286.5,-301.5"/>
<text text-anchor="start" x="182.5" y="-289.5" font-family="Helvetica,sans-Serif" font-size="10.00">lci::alltoall_x::comp</text>
<text text-anchor="middle" x="230.5" y="-278.5" font-family="Helvetica,sans-Serif" font-size="10.00">_semantic</text>
</a>
</g>
</g>
<!-- Node1&#45;&gt;Node4 -->
<g id="edge3_Node000001_Node000004" class="edge">
<title>Node1&#45;&gt;Node4</title>
<g id="a_edge3_Node000001_Node000004"><a xlink:title=" ">
<path fill="none" stroke="#63b8ff" d="M72.71,-173.02C87.82,-192.4 124.78,-236.74 165,-262.5 167.45,-264.07 170.02,-265.56 172.67,-266.97"/>
<polygon fill="#63b8ff" stroke="#63b8ff" points="171.35,-270.22 181.87,-271.45 174.41,-263.93 171.35,-270.22"/>
</a>
</g>
</g>
<!-- Node5 -->
<g id="Node000005" class="node">
<title>Node5</title>
<g id="a_Node000005"><a xlink:href="../../dc/de4/classlci_1_1alltoall__x.html#a1fb83f4c2992b583aaf8ee34c99cea6b" target="_top" xlink:title=" ">
<polygon fill="white" stroke="#666666" points="289,-253 172,-253 172,-234 289,-234 289,-253"/>
<text text-anchor="middle" x="230.5" y="-241" font-family="Helvetica,sans-Serif" font-size="10.00">lci::alltoall_x::device</text>
</a>
</g>
</g>
<!-- Node1&#45;&gt;Node5 -->
<g id="edge5_Node000001_Node000005" class="edge">
<title>Node1&#45;&gt;Node5</title>
<g id="a_edge5_Node000001_Node000005"><a xlink:title=" ">
<path fill="none" stroke="#63b8ff" d="M78.35,-173.19C96.69,-186.63 131.84,-210.9 165,-225.5 169.42,-227.45 174.11,-229.24 178.86,-230.87"/>
<polygon fill="#63b8ff" stroke="#63b8ff" points="178.03,-234.28 188.63,-233.99 180.17,-227.61 178.03,-234.28"/>
</a>
</g>
</g>
<!-- Node6 -->
<g id="Node000006" class="node">
<title>Node6</title>
<g id="a_Node000006"><a xlink:href="../../dc/de4/classlci_1_1alltoall__x.html#a95daea4dabf6e25c1e6587860671d6f3" target="_top" xlink:title=" ">
<polygon fill="white" stroke="#666666" points="294.5,-216 166.5,-216 166.5,-197 294.5,-197 294.5,-216"/>
<text text-anchor="middle" x="230.5" y="-204" font-family="Helvetica,sans-Serif" font-size="10.00">lci::alltoall_x::endpoint</text>
</a>
</g>
</g>
<!-- Node1&#45;&gt;Node6 -->
<g id="edge7_Node000001_Node000006" class="edge">
<title>Node1&#45;&gt;Node6</title>
<g id="a_edge7_Node000001_Node000006"><a xlink:title=" ">
<path fill="none" stroke="#63b8ff" d="M101.9,-173.04C125.89,-179.33 157.52,-187.63 183.29,-194.38"/>
<polygon fill="#63b8ff" stroke="#63b8ff" points="182.64,-197.83 193.2,-196.98 184.42,-191.06 182.64,-197.83"/>
</a>
</g>
</g>
<!-- Node7 -->
<g id="Node000007" class="node">
<title>Node7</title>
<g id="a_Node000007"><a xlink:href="../../dc/de4/classlci_1_1alltoall__x.html#a92f149fc6b919ba63400773e8cb89020" target="_top" xlink:title=" ">
<polygon fill="white" stroke="#666666" points="296,-178.5 165,-178.5 165,-148.5 296,-148.5 296,-178.5"/>
<text text-anchor="start" x="173" y="-166.5" font-family="Helvetica,sans-Serif" font-size="10.00">lci::alltoall_x::matching</text>
<text text-anchor="middle" x="230.5" y="-155.5" font-family="Helvetica,sans-Serif" font-size="10.00">_engine</text>
</a>
</g>
</g>
<!-- Node1&#45;&gt;Node7 -->
<g id="edge9_Node000001_Node000007" class="edge">
<title>Node1&#45;&gt;Node7</title>
<g id="a_edge9_Node000001_Node000007"><a xlink:title=" ">
<path fill="none" stroke="#63b8ff" d="M129.38,-163.5C137.69,-163.5 146.26,-163.5 154.73,-163.5"/>
<polygon fill="#63b8ff" stroke="#63b8ff" points="154.99,-167 164.99,-163.5 154.99,-160 154.99,-167"/>
</a>
</g>
</g>
<!-- Node8 -->
<g id="Node000008" class="node">
<title>Node8</title>
<g id="a_Node000008"><a xlink:href="../../dc/de4/classlci_1_1alltoall__x.html#a6764df532d3a7dad34894783413ac39e" target="_top" xlink:title=" ">
<polygon fill="white" stroke="#666666" points="291.5,-130 169.5,-130 169.5,-111 291.5,-111 291.5,-130"/>
<text text-anchor="middle" x="230.5" y="-118" font-family="Helvetica,sans-Serif" font-size="10.00">lci::alltoall_x::recvbuf</text>
</a>
</g>
</g>
<!-- Node1&#45;&gt;Node8 -->
<g id="edge11_Node000001_Node000008" class="edge">
<title>Node1&#45;&gt;Node8</title>
<g id="a_edge11_Node000001_Node000008"><a xlink:title=" ">
<path fill="none" stroke="#63b8ff" d="M101.9,-153.96C125.89,-147.67 157.52,-139.37 183.29,-132.62"/>
<polygon fill="#63b8ff" stroke="#63b8ff" points="184.42,-135.94 193.2,-130.02 182.64,-129.17 184.42,-135.94"/>
</a>
</g>
</g>
<!-- Node9 -->
<g id="Node000009" class="node">
<title>Node9</title>
<g id="a_Node000009"><a xlink:href="../../dc/de4/classlci_1_1alltoall__x.html#a9c18befd13d2d41639a27b531a634da7" target="_top" xlink:title=" ">
<polygon fill="white" stroke="#666666" points="292,-93 169,-93 169,-74 292,-74 292,-93"/>
<text text-anchor="middle" x="230.5" y="-81" font-family="Helvetica,sans-Serif" font-size="10.00">lci::alltoall_x::runtime</text>
</a>
</g>
</g>
<!-- Node1&#45;&gt;Node9 -->
<g id="edge13_Node000001_Node000009" class="edge">
<title>Node1&#45;&gt;Node9</title>
<g id="a_edge13_Node000001_Node000009"><a xlink:title=" ">
<path fill="none" stroke="#63b8ff" d="M78.72,-153.82C97.21,-140.65 132.23,-117.07 165,-102.5 170.13,-100.22 175.62,-98.12 181.14,-96.22"/>
<polygon fill="#63b8ff" stroke="#63b8ff" points="182.6,-99.43 191.04,-93.02 180.45,-92.77 182.6,-99.43"/>
</a>
</g>
</g>
<!-- Node10 -->
<g id="Node000010" class="node">
<title>Node10</title>
<g id="a_Node000010"><a xlink:href="../../dc/de4/classlci_1_1alltoall__x.html#ab6c9dc7450bfed6178e69c9b73af7a0a" target="_top" xlink:title=" ">
<polygon fill="white" stroke="#666666" points="292.5,-56 168.5,-56 168.5,-37 292.5,-37 292.5,-56"/>
<text text-anchor="middle" x="230.5" y="-44" font-family="Helvetica,sans-Serif" font-size="10.00">lci::alltoall_x::sendbuf</text>
</a>
</g>
</g>
<!-- Node1&#45;&gt;Node10 -->
<g id="edge15_Node000001_Node000010" class="edge">
<title>Node1&#45;&gt;Node10</title>
<g id="a_edge15_Node000001_Node000010"><a xlink:title=" ">
<path fill="none" stroke="#63b8ff" d="M72.59,-153.85C87.48,-134.25 124.05,-89.61 165,-65.5 168.68,-63.33 172.62,-61.4 176.68,-59.67"/>
<polygon fill="#63b8ff" stroke="#63b8ff" points="178.18,-62.85 186.28,-56.02 175.69,-56.31 178.18,-62.85"/>
</a>
</g>
</g>
<!-- Node11 -->
<g id="Node000011" class="node">
<title>Node11</title>
<g id="a_Node000011"><a xlink:href="../../dc/de4/classlci_1_1alltoall__x.html#a4e05793db09ec7c7664b5aa5a5eb9bad" target="_top" xlink:title=" ">
<polygon fill="white" stroke="#666666" points="282.5,-19 178.5,-19 178.5,0 282.5,0 282.5,-19"/>
<text text-anchor="middle" x="230.5" y="-7" font-family="Helvetica,sans-Serif" font-size="10.00">lci::alltoall_x::size</text>
</a>
</g>
</g>
<!-- Node1&#45;&gt;Node11 -->
<g id="edge17_Node000001_Node000011" class="edge">
<title>Node1&#45;&gt;Node11</title>
<g id="a_edge17_Node000001_Node000011"><a xlink:title=" ">
<path fill="none" stroke="#63b8ff" d="M69.95,-153.64C81.72,-128.71 116.11,-62.74 165,-28.5 167.86,-26.5 170.93,-24.7 174.13,-23.1"/>
<polygon fill="#63b8ff" stroke="#63b8ff" points="175.63,-26.26 183.38,-19.04 172.82,-19.85 175.63,-26.26"/>
</a>
</g>
</g>
<!-- Node3 -->
<g id="Node000003" class="node">
<title>Node3</title>
<g id="a_Node000003"><a xlink:href="../../dc/de4/classlci_1_1alltoall__x.html#a631f159f788f1b9da3ae723171937a82" target="_top" xlink:title=" ">
<polygon fill="white" stroke="#666666" points="462,-173 332,-173 332,-154 462,-154 462,-173"/>
<text text-anchor="middle" x="397" y="-161" font-family="Helvetica,sans-Serif" font-size="10.00">lci::alltoall_x::alltoall_x</text>
</a>
</g>
</g>
<!-- Node2&#45;&gt;Node3 -->
<g id="edge2_Node000002_Node000003" class="edge">
<title>Node2&#45;&gt;Node3</title>
<g id="a_edge2_Node000002_Node000003"><a xlink:title=" ">
<path fill="none" stroke="#63b8ff" d="M278.42,-319.88C284.66,-317.43 290.72,-314.35 296,-310.5 342.61,-276.52 374.46,-213.82 388.26,-182.43"/>
<polygon fill="#63b8ff" stroke="#63b8ff" points="391.55,-183.65 392.24,-173.08 385.11,-180.91 391.55,-183.65"/>
</a>
</g>
</g>
<!-- Node4&#45;&gt;Node3 -->
<g id="edge4_Node000004_Node000003" class="edge">
<title>Node4&#45;&gt;Node3</title>
<g id="a_edge4_Node000004_Node000003"><a xlink:title=" ">
<path fill="none" stroke="#63b8ff" d="M279.12,-271.44C284.99,-268.82 290.76,-265.84 296,-262.5 331.47,-239.85 364.48,-202.85 382.29,-181.08"/>
<polygon fill="#63b8ff" stroke="#63b8ff" points="385.22,-183.01 388.75,-173.02 379.76,-178.63 385.22,-183.01"/>
</a>
</g>
</g>
<!-- Node5&#45;&gt;Node3 -->
<g id="edge6_Node000005_Node000003" class="edge">
<title>Node5&#45;&gt;Node3</title>
<g id="a_edge6_Node000005_Node000003"><a xlink:title=" ">
<path fill="none" stroke="#63b8ff" d="M272.37,-233.98C280.35,-231.6 288.55,-228.77 296,-225.5 324.87,-212.83 355.28,-192.9 374.88,-179.07"/>
<polygon fill="#63b8ff" stroke="#63b8ff" points="376.99,-181.86 383.08,-173.19 372.91,-176.17 376.99,-181.86"/>
</a>
</g>
</g>
<!-- Node6&#45;&gt;Node3 -->
<g id="edge8_Node000006_Node000003" class="edge">
<title>Node6&#45;&gt;Node3</title>
<g id="a_edge8_Node000006_Node000003"><a xlink:title=" ">
<path fill="none" stroke="#63b8ff" d="M268.01,-196.96C292.07,-190.67 323.8,-182.37 349.64,-175.62"/>
<polygon fill="#63b8ff" stroke="#63b8ff" points="350.8,-178.93 359.59,-173.02 349.03,-172.16 350.8,-178.93"/>
</a>
</g>
</g>
<!-- Node7&#45;&gt;Node3 -->
<g id="edge10_Node000007_Node000003" class="edge">
<title>Node7&#45;&gt;Node3</title>
<g id="a_edge10_Node000007_Node000003"><a xlink:title=" ">
<path fill="none" stroke="#63b8ff" d="M296.04,-163.5C304.52,-163.5 313.26,-163.5 321.87,-163.5"/>
<polygon fill="#63b8ff" stroke="#63b8ff" points="321.91,-167 331.91,-163.5 321.91,-160 321.91,-167"/>
</a>
</g>
</g>
<!-- Node8&#45;&gt;Node3 -->
<g id="edge12_Node000008_Node000003" class="edge">
<title>Node8&#45;&gt;Node3</title>
<g id="a_edge12_Node000008_Node000003"><a xlink:title=" ">
<path fill="none" stroke="#63b8ff" d="M268.01,-130.04C292.07,-136.33 323.8,-144.63 349.64,-151.38"/>
<polygon fill="#63b8ff" stroke="#63b8ff" points="349.03,-154.84 359.59,-153.98 350.8,-148.07 349.03,-154.84"/>
</a>
</g>
</g>
<!-- Node9&#45;&gt;Node3 -->
<g id="edge14_Node000009_Node000003" class="edge">
<title>Node9&#45;&gt;Node3</title>
<g id="a_edge14_Node000009_Node000003"><a xlink:title=" ">
<path fill="none" stroke="#63b8ff" d="M269.95,-93.04C278.67,-95.69 287.78,-98.86 296,-102.5 324.54,-115.15 354.8,-134.56 374.47,-148.07"/>
<polygon fill="#63b8ff" stroke="#63b8ff" points="372.51,-150.97 382.71,-153.82 376.51,-145.23 372.51,-150.97"/>
</a>
</g>
</g>
<!-- Node10&#45;&gt;Node3 -->
<g id="edge16_Node000010_Node000003" class="edge">
<title>Node10&#45;&gt;Node3</title>
<g id="a_edge16_Node000010_Node000003"><a xlink:title=" ">
<path fill="none" stroke="#63b8ff" d="M274.71,-56.03C282.08,-58.54 289.46,-61.66 296,-65.5 332.11,-86.7 364.9,-123.74 382.49,-145.71"/>
<polygon fill="#63b8ff" stroke="#63b8ff" points="379.95,-148.13 388.87,-153.85 385.46,-143.82 379.95,-148.13"/>
</a>
</g>
</g>
<!-- Node11&#45;&gt;Node3 -->
<g id="edge18_Node000011_Node000003" class="edge">
<title>Node11&#45;&gt;Node3</title>
<g id="a_edge18_Node000011_Node000003"><a xlink:title=" ">
<path fill="none" stroke="#63b8ff" d="M277.61,-19.06C284.1,-21.53 290.45,-24.62 296,-28.5 339.84,-59.13 372.19,-115.15 387.01,-144.47"/>
<polygon fill="#63b8ff" stroke="#63b8ff" points="383.96,-146.2 391.51,-153.64 390.25,-143.12 383.96,-146.2"/>
</a>
</g>
</g>
</g>
</svg>
