<?xml version="1.0" encoding="UTF-8" standalone="no"?>
<!DOCTYPE svg PUBLIC "-//W3C//DTD SVG 1.1//EN"
 "http://www.w3.org/Graphics/SVG/1.1/DTD/svg11.dtd">
<!-- Generated by graphviz version 2.43.0 (0)
 -->
<!-- Title: lci::alltoall_x::operator() Pages: 1 -->
<svg width="778pt" height="261pt"
 viewBox="0.00 0.00 778.00 261.00" xmlns="http://www.w3.org/2000/svg" xmlns:xlink="http://www.w3.org/1999/xlink">
<g id="graph0" class="graph" transform="scale(1 1) rotate(0) translate(4 257)">
<title>lci::alltoall_x::operator()</title>
<!-- Node1 -->
<g id="Node000001" class="node">
<title>Node1</title>
<g id="a_Node000001"><a xlink:title=" ">
<polygon fill="#999999" stroke="#666666" points="134,-135 0,-135 0,-116 134,-116 134,-135"/>
<text text-anchor="middle" x="67" y="-123" font-family="Helvetica,sans-Serif" font-size="10.00">lci::alltoall_x::operator()</text>
</a>
</g>
</g>
<!-- Node2 -->
<g id="Node000002" class="node">
<title>Node2</title>
<g id="a_Node000002"><a xlink:href="../../dc/de4/classlci_1_1alltoall__x.html#a16f2e3dd4be00496842917d412a4bdcd" target="_top" xlink:title=" ">
<polygon fill="white" stroke="#666666" points="272,-135 170,-135 170,-116 272,-116 272,-135"/>
<text text-anchor="middle" x="221" y="-123" font-family="Helvetica,sans-Serif" font-size="10.00">lci::alltoall_x::call</text>
</a>
</g>
</g>
<!-- Node1&#45;&gt;Node2 -->
<g id="edge1_Node000001_Node000002" class="edge">
<title>Node1&#45;&gt;Node2</title>
<g id="a_edge1_Node000001_Node000002"><a xlink:title=" ">
<path fill="none" stroke="#63b8ff" d="M134.23,-125.5C142.76,-125.5 151.46,-125.5 159.88,-125.5"/>
<polygon fill="#63b8ff" stroke="#63b8ff" points="160,-129 170,-125.5 160,-122 160,-129"/>
</a>
</g>
</g>
<!-- Node3 -->
<g id="Node000003" class="node">
<title>Node3</title>
<g id="a_Node000003"><a xlink:href="../../dc/de4/classlci_1_1alltoall__x.html#a5385883991b3461ff6c702b81dc5c10b" target="_top" xlink:title=" ">
<polygon fill="white" stroke="#666666" points="437,-154 308,-154 308,-135 437,-135 437,-154"/>
<text text-anchor="middle" x="372.5" y="-142" font-family="Helvetica,sans-Serif" font-size="10.00">lci::alltoall_x::call_impl</text>
</a>
</g>
</g>
<!-- Node2&#45;&gt;Node3 -->
<g id="edge2_Node000002_Node000003" class="edge">
<title>Node2&#45;&gt;Node3</title>
<g id="a_edge2_Node000002_Node000003"><a xlink:title=" ">
<path fill="none" stroke="#63b8ff" d="M272.2,-131.88C280.43,-132.93 289.11,-134.03 297.77,-135.13"/>
<polygon fill="#63b8ff" stroke="#63b8ff" points="297.53,-138.63 307.89,-136.42 298.42,-131.68 297.53,-138.63"/>
</a>
</g>
</g>
<!-- Node4 -->
<g id="Node000004" class="node">
<title>Node4</title>
<g id="a_Node000004"><a xlink:href="../../dc/de4/classlci_1_1alltoall__x.html#a1fb83f4c2992b583aaf8ee34c99cea6b" target="_top" xlink:title=" ">
<polygon fill="white" stroke="#666666" points="597,-253 480,-253 480,-234 597,-234 597,-253"/>
<text text-anchor="middle" x="538.5" y="-241" font-family="Helvetica,sans-Serif" font-size="10.00">lci::alltoall_x::device</text>
</a>
</g>
</g>
<!-- Node2&#45;&gt;Node4 -->
<g id="edge17_Node000002_Node000004" class="edge">
<title>Node2&#45;&gt;Node4</title>
<g id="a_edge17_Node000002_Node000004"><a xlink:title=" ">
<path fill="none" stroke="#63b8ff" d="M228.78,-135.02C241.87,-152.61 272.48,-189.97 308,-207.5 358.54,-232.45 422.29,-240.89 469.77,-243.41"/>
<polygon fill="#63b8ff" stroke="#63b8ff" points="469.79,-246.91 479.94,-243.87 470.11,-239.92 469.79,-246.91"/>
</a>
</g>
</g>
<!-- Node6 -->
<g id="Node000006" class="node">
<title>Node6</title>
<g id="a_Node000006"><a xlink:href="../../dc/de4/classlci_1_1alltoall__x.html#a95daea4dabf6e25c1e6587860671d6f3" target="_top" xlink:title=" ">
<polygon fill="white" stroke="#666666" points="602.5,-216 474.5,-216 474.5,-197 602.5,-197 602.5,-216"/>
<text text-anchor="middle" x="538.5" y="-204" font-family="Helvetica,sans-Serif" font-size="10.00">lci::alltoall_x::endpoint</text>
</a>
</g>
</g>
<!-- Node2&#45;&gt;Node6 -->
<g id="edge18_Node000002_Node000006" class="edge">
<title>Node2&#45;&gt;Node6</title>
<g id="a_edge18_Node000002_Node000006"><a xlink:title=" ">
<path fill="none" stroke="#63b8ff" d="M233.03,-135.18C248.56,-148.19 278.3,-170.9 308,-181.5 358.18,-199.41 418.14,-205.46 464.18,-207.14"/>
<polygon fill="#63b8ff" stroke="#63b8ff" points="464.28,-210.64 474.38,-207.45 464.49,-203.65 464.28,-210.64"/>
</a>
</g>
</g>
<!-- Node7 -->
<g id="Node000007" class="node">
<title>Node7</title>
<g id="a_Node000007"><a xlink:href="../../dc/de4/classlci_1_1alltoall__x.html#a92f149fc6b919ba63400773e8cb89020" target="_top" xlink:title=" ">
<polygon fill="white" stroke="#666666" points="604,-178.5 473,-178.5 473,-148.5 604,-148.5 604,-178.5"/>
<text text-anchor="start" x="481" y="-166.5" font-family="Helvetica,sans-Serif" font-size="10.00">lci::alltoall_x::matching</text>
<text text-anchor="middle" x="538.5" y="-155.5" font-family="Helvetica,sans-Serif" font-size="10.00">_engine</text>
</a>
</g>
</g>
<!-- Node2&#45;&gt;Node7 -->
<g id="edge19_Node000002_Node000007" class="edge">
<title>Node2&#45;&gt;Node7</title>
<g id="a_edge19_Node000002_Node000007"><a xlink:title=" ">
<path fill="none" stroke="#63b8ff" d="M238.12,-135.07C254.9,-144.44 282.29,-158.07 308,-163.5 358.92,-174.25 417.63,-174.03 462.92,-171.23"/>
<polygon fill="#63b8ff" stroke="#63b8ff" points="463.21,-174.72 472.95,-170.56 462.74,-167.74 463.21,-174.72"/>
</a>
</g>
</g>
<!-- Node8 -->
<g id="Node000008" class="node">
<title>Node8</title>
<g id="a_Node000008"><a xlink:href="../../dc/de4/classlci_1_1alltoall__x.html#a6764df532d3a7dad34894783413ac39e" target="_top" xlink:title=" ">
<polygon fill="white" stroke="#666666" points="599.5,-130 477.5,-130 477.5,-111 599.5,-111 599.5,-130"/>
<text text-anchor="middle" x="538.5" y="-118" font-family="Helvetica,sans-Serif" font-size="10.00">lci::alltoall_x::recvbuf</text>
</a>
</g>
</g>
<!-- Node2&#45;&gt;Node8 -->
<g id="edge20_Node000002_Node000008" class="edge">
<title>Node2&#45;&gt;Node8</title>
<g id="a_edge20_Node000002_Node000008"><a xlink:title=" ">
<path fill="none" stroke="#63b8ff" d="M272.34,-124.7C325.05,-123.87 408.23,-122.55 467.36,-121.61"/>
<polygon fill="#63b8ff" stroke="#63b8ff" points="467.42,-125.11 477.37,-121.45 467.31,-118.11 467.42,-125.11"/>
</a>
</g>
</g>
<!-- Node9 -->
<g id="Node000009" class="node">
<title>Node9</title>
<g id="a_Node000009"><a xlink:href="../../dc/de4/classlci_1_1alltoall__x.html#a9c18befd13d2d41639a27b531a634da7" target="_top" xlink:title=" ">
<polygon fill="white" stroke="#666666" points="600,-93 477,-93 477,-74 600,-74 600,-93"/>
<text text-anchor="middle" x="538.5" y="-81" font-family="Helvetica,sans-Serif" font-size="10.00">lci::alltoall_x::runtime</text>
</a>
</g>
</g>
<!-- Node2&#45;&gt;Node9 -->
<g id="edge21_Node000002_Node000009" class="edge">
<title>Node2&#45;&gt;Node9</title>
<g id="a_edge21_Node000002_Node000009"><a xlink:title=" ">
<path fill="none" stroke="#63b8ff" d="M272.34,-118.8C324.89,-111.8 407.71,-100.78 466.8,-92.91"/>
<polygon fill="#63b8ff" stroke="#63b8ff" points="467.36,-96.37 476.81,-91.58 466.44,-89.43 467.36,-96.37"/>
</a>
</g>
</g>
<!-- Node10 -->
<g id="Node000010" class="node">
<title>Node10</title>
<g id="a_Node000010"><a xlink:href="../../dc/de4/classlci_1_1alltoall__x.html#ab6c9dc7450bfed6178e69c9b73af7a0a" target="_top" xlink:title=" ">
<polygon fill="white" stroke="#666666" points="600.5,-56 476.5,-56 476.5,-37 600.5,-37 600.5,-56"/>
<text text-anchor="middle" x="538.5" y="-44" font-family="Helvetica,sans-Serif" font-size="10.00">lci::alltoall_x::sendbuf</text>
</a>
</g>
</g>
<!-- Node2&#45;&gt;Node10 -->
<g id="edge22_Node000002_Node000010" class="edge">
<title>Node2&#45;&gt;Node10</title>
<g id="a_edge22_Node000002_Node000010"><a xlink:title=" ">
<path fill="none" stroke="#63b8ff" d="M243.92,-115.91C261.1,-108.68 285.73,-98.96 308,-92.5 360.25,-77.36 420.62,-65.47 466.32,-57.58"/>
<polygon fill="#63b8ff" stroke="#63b8ff" points="467.16,-60.99 476.43,-55.86 465.98,-54.09 467.16,-60.99"/>
</a>
</g>
</g>
<!-- Node11 -->
<g id="Node000011" class="node">
<title>Node11</title>
<g id="a_Node000011"><a xlink:href="../../dc/de4/classlci_1_1alltoall__x.html#a4e05793db09ec7c7664b5aa5a5eb9bad" target="_top" xlink:title=" ">
<polygon fill="white" stroke="#666666" points="590.5,-19 486.5,-19 486.5,0 590.5,0 590.5,-19"/>
<text text-anchor="middle" x="538.5" y="-7" font-family="Helvetica,sans-Serif" font-size="10.00">lci::alltoall_x::size</text>
</a>
</g>
</g>
<!-- Node2&#45;&gt;Node11 -->
<g id="edge23_Node000002_Node000011" class="edge">
<title>Node2&#45;&gt;Node11</title>
<g id="a_edge23_Node000002_Node000011"><a xlink:title=" ">
<path fill="none" stroke="#63b8ff" d="M231.62,-115.76C246.57,-101.2 276.93,-73.92 308,-59.5 361.76,-34.55 428.45,-21.81 476.06,-15.46"/>
<polygon fill="#63b8ff" stroke="#63b8ff" points="476.74,-18.91 486.22,-14.17 475.85,-11.96 476.74,-18.91"/>
</a>
</g>
</g>
<!-- Node3&#45;&gt;Node4 -->
<g id="edge3_Node000003_Node000004" class="edge">
<title>Node3&#45;&gt;Node4</title>
<g id="a_edge3_Node000003_Node000004"><a xlink:title=" ">
<path fill="none" stroke="#63b8ff" d="M382.7,-154.26C399.2,-171.22 435.61,-206.15 473,-225.5 476.56,-227.34 480.32,-229.01 484.18,-230.53"/>
<polygon fill="#63b8ff" stroke="#63b8ff" points="483.29,-233.93 493.89,-233.98 485.64,-227.33 483.29,-233.93"/>
</a>
</g>
</g>
<!-- Node3&#45;&gt;Node6 -->
<g id="edge5_Node000003_Node000006" class="edge">
<title>Node3&#45;&gt;Node6</title>
<g id="a_edge5_Node000003_Node000006"><a xlink:title=" ">
<path fill="none" stroke="#63b8ff" d="M393.79,-154.13C413.69,-163.37 445.04,-177.38 473,-187.5 479.12,-189.72 485.64,-191.87 492.09,-193.88"/>
<polygon fill="#63b8ff" stroke="#63b8ff" points="491.51,-197.36 502.1,-196.91 493.54,-190.66 491.51,-197.36"/>
</a>
</g>
</g>
<!-- Node3&#45;&gt;Node7 -->
<g id="edge7_Node000003_Node000007" class="edge">
<title>Node3&#45;&gt;Node7</title>
<g id="a_edge7_Node000003_Node000007"><a xlink:title=" ">
<path fill="none" stroke="#63b8ff" d="M437.38,-151.9C445.78,-152.87 454.45,-153.88 463.01,-154.87"/>
<polygon fill="#63b8ff" stroke="#63b8ff" points="462.65,-158.35 472.99,-156.03 463.46,-151.4 462.65,-158.35"/>
</a>
</g>
</g>
<!-- Node3&#45;&gt;Node8 -->
<g id="edge9_Node000003_Node000008" class="edge">
<title>Node3&#45;&gt;Node8</title>
<g id="a_edge9_Node000003_Node000008"><a xlink:title=" ">
<path fill="none" stroke="#63b8ff" d="M437.38,-135.15C447.12,-133.73 457.23,-132.25 467.1,-130.8"/>
<polygon fill="#63b8ff" stroke="#63b8ff" points="467.9,-134.22 477.29,-129.31 466.89,-127.3 467.9,-134.22"/>
</a>
</g>
</g>
<!-- Node3&#45;&gt;Node9 -->
<g id="edge11_Node000003_Node000009" class="edge">
<title>Node3&#45;&gt;Node9</title>
<g id="a_edge11_Node000003_Node000009"><a xlink:title=" ">
<path fill="none" stroke="#63b8ff" d="M394.19,-134.96C414.13,-125.95 445.28,-112.4 473,-102.5 479.35,-100.23 486.12,-98.02 492.8,-95.95"/>
<polygon fill="#63b8ff" stroke="#63b8ff" points="493.89,-99.28 502.45,-93.04 491.87,-92.58 493.89,-99.28"/>
</a>
</g>
</g>
<!-- Node3&#45;&gt;Node10 -->
<g id="edge13_Node000003_Node000010" class="edge">
<title>Node3&#45;&gt;Node10</title>
<g id="a_edge13_Node000003_Node000010"><a xlink:title=" ">
<path fill="none" stroke="#63b8ff" d="M383.04,-134.78C399.79,-118.25 436.2,-84.6 473,-65.5 477.31,-63.26 481.91,-61.25 486.61,-59.46"/>
<polygon fill="#63b8ff" stroke="#63b8ff" points="488.04,-62.66 496.32,-56.05 485.72,-56.06 488.04,-62.66"/>
</a>
</g>
</g>
<!-- Node3&#45;&gt;Node11 -->
<g id="edge15_Node000003_Node000011" class="edge">
<title>Node3&#45;&gt;Node11</title>
<g id="a_edge15_Node000003_Node000011"><a xlink:title=" ">
<path fill="none" stroke="#63b8ff" d="M379.1,-134.75C392.42,-112.46 428.22,-57.46 473,-28.5 476.18,-26.45 479.58,-24.61 483.11,-22.96"/>
<polygon fill="#63b8ff" stroke="#63b8ff" points="484.73,-26.08 492.65,-19.05 482.07,-19.61 484.73,-26.08"/>
</a>
</g>
</g>
<!-- Node5 -->
<g id="Node000005" class="node">
<title>Node5</title>
<g id="a_Node000005"><a xlink:href="../../dc/de4/classlci_1_1alltoall__x.html#a631f159f788f1b9da3ae723171937a82" target="_top" xlink:title=" ">
<polygon fill="white" stroke="#666666" points="770,-130 640,-130 640,-111 770,-111 770,-130"/>
<text text-anchor="middle" x="705" y="-118" font-family="Helvetica,sans-Serif" font-size="10.00">lci::alltoall_x::alltoall_x</text>
</a>
</g>
</g>
<!-- Node4&#45;&gt;Node5 -->
<g id="edge4_Node000004_Node000005" class="edge">
<title>Node4&#45;&gt;Node5</title>
<g id="a_edge4_Node000004_Node000005"><a xlink:title=" ">
<path fill="none" stroke="#63b8ff" d="M585.53,-233.97C591.97,-231.7 598.32,-228.91 604,-225.5 641.72,-202.84 674.55,-162.17 691.58,-138.65"/>
<polygon fill="#63b8ff" stroke="#63b8ff" points="694.59,-140.46 697.51,-130.27 688.88,-136.42 694.59,-140.46"/>
</a>
</g>
</g>
<!-- Node6&#45;&gt;Node5 -->
<g id="edge6_Node000006_Node000005" class="edge">
<title>Node6&#45;&gt;Node5</title>
<g id="a_edge6_Node000006_Node000005"><a xlink:title=" ">
<path fill="none" stroke="#63b8ff" d="M579.09,-196.91C587.49,-194.3 596.18,-191.17 604,-187.5 633.86,-173.5 664.91,-151.3 684.34,-136.33"/>
<polygon fill="#63b8ff" stroke="#63b8ff" points="686.68,-138.93 692.4,-130.01 682.37,-133.42 686.68,-138.93"/>
</a>
</g>
</g>
<!-- Node7&#45;&gt;Node5 -->
<g id="edge8_Node000007_Node000005" class="edge">
<title>Node7&#45;&gt;Node5</title>
<g id="a_edge8_Node000007_Node000005"><a xlink:title=" ">
<path fill="none" stroke="#63b8ff" d="M597.03,-148.46C616.83,-143.29 638.72,-137.56 657.52,-132.65"/>
<polygon fill="#63b8ff" stroke="#63b8ff" points="658.54,-136 667.33,-130.09 656.77,-129.23 658.54,-136"/>
</a>
</g>
</g>
<!-- Node8&#45;&gt;Node5 -->
<g id="edge10_Node000008_Node000005" class="edge">
<title>Node8&#45;&gt;Node5</title>
<g id="a_edge10_Node000008_Node000005"><a xlink:title=" ">
<path fill="none" stroke="#63b8ff" d="M599.82,-120.5C609.48,-120.5 619.58,-120.5 629.53,-120.5"/>
<polygon fill="#63b8ff" stroke="#63b8ff" points="629.81,-124 639.81,-120.5 629.81,-117 629.81,-124"/>
</a>
</g>
</g>
<!-- Node9&#45;&gt;Node5 -->
<g id="edge12_Node000009_Node000005" class="edge">
<title>Node9&#45;&gt;Node5</title>
<g id="a_edge12_Node000009_Node000005"><a xlink:title=" ">
<path fill="none" stroke="#63b8ff" d="M581.86,-93.03C603.08,-97.8 628.97,-103.62 651.44,-108.68"/>
<polygon fill="#63b8ff" stroke="#63b8ff" points="650.97,-112.16 661.5,-110.94 652.51,-105.33 650.97,-112.16"/>
</a>
</g>
</g>
<!-- Node10&#45;&gt;Node5 -->
<g id="edge14_Node000010_Node000005" class="edge">
<title>Node10&#45;&gt;Node5</title>
<g id="a_edge14_Node000010_Node000005"><a xlink:title=" ">
<path fill="none" stroke="#63b8ff" d="M576.82,-56C585.85,-58.71 595.38,-61.91 604,-65.5 631.16,-76.81 660.45,-93.5 680.27,-105.53"/>
<polygon fill="#63b8ff" stroke="#63b8ff" points="678.58,-108.6 688.93,-110.85 682.24,-102.63 678.58,-108.6"/>
</a>
</g>
</g>
<!-- Node11&#45;&gt;Node5 -->
<g id="edge16_Node000011_Node000005" class="edge">
<title>Node11&#45;&gt;Node5</title>
<g id="a_edge16_Node000011_Node000005"><a xlink:title=" ">
<path fill="none" stroke="#63b8ff" d="M582.27,-19.09C589.76,-21.6 597.3,-24.7 604,-28.5 639,-48.32 671.74,-82.55 689.7,-103.2"/>
<polygon fill="#63b8ff" stroke="#63b8ff" points="687.1,-105.55 696.25,-110.89 692.43,-101.01 687.1,-105.55"/>
</a>
</g>
</g>
</g>
</svg>
