<?xml version="1.0" encoding="UTF-8" standalone="no"?>
<!DOCTYPE svg PUBLIC "-//W3C//DTD SVG 1.1//EN"
 "http://www.w3.org/Graphics/SVG/1.1/DTD/svg11.dtd">
<!-- Generated by graphviz version 2.43.0 (0)
 -->
<!-- Title: lci::alltoall_x::alltoall_x Pages: 1 -->
<svg width="778pt" height="310pt"
 viewBox="0.00 0.00 778.00 309.50" xmlns="http://www.w3.org/2000/svg" xmlns:xlink="http://www.w3.org/1999/xlink">
<g id="graph0" class="graph" transform="scale(1 1) rotate(0) translate(4 305.5)">
<title>lci::alltoall_x::alltoall_x</title>
<!-- Node1 -->
<g id="Node000001" class="node">
<title>Node1</title>
<g id="a_Node000001"><a xlink:title=" ">
<polygon fill="#999999" stroke="#666666" points="770,-151 640,-151 640,-132 770,-132 770,-151"/>
<text text-anchor="middle" x="705" y="-139" font-family="Helvetica,sans-Serif" font-size="10.00">lci::alltoall_x::alltoall_x</text>
</a>
</g>
</g>
<!-- Node2 -->
<g id="Node000002" class="node">
<title>Node2</title>
<g id="a_Node000002"><a xlink:href="../../dc/de4/classlci_1_1alltoall__x.html#ad34567fe45c43f861cca5dc032a3386f" target="_top" xlink:title=" ">
<polygon fill="white" stroke="#666666" points="594.5,-301.5 482.5,-301.5 482.5,-271.5 594.5,-271.5 594.5,-301.5"/>
<text text-anchor="start" x="490.5" y="-289.5" font-family="Helvetica,sans-Serif" font-size="10.00">lci::alltoall_x::comp</text>
<text text-anchor="middle" x="538.5" y="-278.5" font-family="Helvetica,sans-Serif" font-size="10.00">_semantic</text>
</a>
</g>
</g>
<!-- Node1&#45;&gt;Node2 -->
<g id="edge1_Node000001_Node000002" class="edge">
<title>Node1&#45;&gt;Node2</title>
<g id="a_edge1_Node000001_Node000002"><a xlink:title=" ">
<path fill="none" stroke="#63b8ff" d="M693.34,-159.68C677.14,-185.85 643.96,-234.09 604,-262.5 599.23,-265.89 593.92,-268.87 588.46,-271.46"/>
<polygon fill="#63b8ff" stroke="#63b8ff" points="696.34,-161.49 698.52,-151.12 690.35,-157.87 696.34,-161.49"/>
</a>
</g>
</g>
<!-- Node7 -->
<g id="Node000007" class="node">
<title>Node7</title>
<g id="a_Node000007"><a xlink:href="../../dc/de4/classlci_1_1alltoall__x.html#a1fb83f4c2992b583aaf8ee34c99cea6b" target="_top" xlink:title=" ">
<polygon fill="white" stroke="#666666" points="597,-253 480,-253 480,-234 597,-234 597,-253"/>
<text text-anchor="middle" x="538.5" y="-241" font-family="Helvetica,sans-Serif" font-size="10.00">lci::alltoall_x::device</text>
</a>
</g>
</g>
<!-- Node1&#45;&gt;Node7 -->
<g id="edge7_Node000001_Node000007" class="edge">
<title>Node1&#45;&gt;Node7</title>
<g id="a_edge7_Node000001_Node000007"><a xlink:title=" ">
<path fill="none" stroke="#63b8ff" d="M688.33,-158.45C669.89,-177.42 637.52,-207.82 604,-225.5 597.62,-228.86 590.55,-231.65 583.5,-233.95"/>
<polygon fill="#63b8ff" stroke="#63b8ff" points="690.98,-160.74 695.34,-151.09 685.91,-155.92 690.98,-160.74"/>
</a>
</g>
</g>
<!-- Node8 -->
<g id="Node000008" class="node">
<title>Node8</title>
<g id="a_Node000008"><a xlink:href="../../dc/de4/classlci_1_1alltoall__x.html#a95daea4dabf6e25c1e6587860671d6f3" target="_top" xlink:title=" ">
<polygon fill="white" stroke="#666666" points="602.5,-216 474.5,-216 474.5,-197 602.5,-197 602.5,-216"/>
<text text-anchor="middle" x="538.5" y="-204" font-family="Helvetica,sans-Serif" font-size="10.00">lci::alltoall_x::endpoint</text>
</a>
</g>
</g>
<!-- Node1&#45;&gt;Node8 -->
<g id="edge10_Node000001_Node000008" class="edge">
<title>Node1&#45;&gt;Node8</title>
<g id="a_edge10_Node000001_Node000008"><a xlink:title=" ">
<path fill="none" stroke="#63b8ff" d="M676.11,-155.65C656.3,-165.37 628.91,-178.16 604,-187.5 594.82,-190.94 584.72,-194.17 575.29,-196.96"/>
<polygon fill="#63b8ff" stroke="#63b8ff" points="677.77,-158.73 685.18,-151.15 674.66,-152.46 677.77,-158.73"/>
</a>
</g>
</g>
<!-- Node9 -->
<g id="Node000009" class="node">
<title>Node9</title>
<g id="a_Node000009"><a xlink:href="../../dc/de4/classlci_1_1alltoall__x.html#a92f149fc6b919ba63400773e8cb89020" target="_top" xlink:title=" ">
<polygon fill="white" stroke="#666666" points="604,-178.5 473,-178.5 473,-148.5 604,-148.5 604,-178.5"/>
<text text-anchor="start" x="481" y="-166.5" font-family="Helvetica,sans-Serif" font-size="10.00">lci::alltoall_x::matching</text>
<text text-anchor="middle" x="538.5" y="-155.5" font-family="Helvetica,sans-Serif" font-size="10.00">_engine</text>
</a>
</g>
</g>
<!-- Node1&#45;&gt;Node9 -->
<g id="edge13_Node000001_Node000009" class="edge">
<title>Node1&#45;&gt;Node9</title>
<g id="a_edge13_Node000001_Node000009"><a xlink:title=" ">
<path fill="none" stroke="#63b8ff" d="M629.93,-151.41C621.35,-152.55 612.65,-153.72 604.21,-154.85"/>
<polygon fill="#63b8ff" stroke="#63b8ff" points="630.48,-154.86 639.93,-150.07 629.55,-147.93 630.48,-154.86"/>
</a>
</g>
</g>
<!-- Node10 -->
<g id="Node000010" class="node">
<title>Node10</title>
<g id="a_Node000010"><a xlink:href="../../dc/de4/classlci_1_1alltoall__x.html#a6764df532d3a7dad34894783413ac39e" target="_top" xlink:title=" ">
<polygon fill="white" stroke="#666666" points="599.5,-130 477.5,-130 477.5,-111 599.5,-111 599.5,-130"/>
<text text-anchor="middle" x="538.5" y="-118" font-family="Helvetica,sans-Serif" font-size="10.00">lci::alltoall_x::recvbuf</text>
</a>
</g>
</g>
<!-- Node1&#45;&gt;Node10 -->
<g id="edge16_Node000001_Node000010" class="edge">
<title>Node1&#45;&gt;Node10</title>
<g id="a_edge16_Node000001_Node000010"><a xlink:title=" ">
<path fill="none" stroke="#63b8ff" d="M629.88,-132.04C619.76,-130.75 609.46,-129.43 599.63,-128.18"/>
<polygon fill="#63b8ff" stroke="#63b8ff" points="629.57,-135.53 639.93,-133.32 630.45,-128.58 629.57,-135.53"/>
</a>
</g>
</g>
<!-- Node11 -->
<g id="Node000011" class="node">
<title>Node11</title>
<g id="a_Node000011"><a xlink:href="../../dc/de4/classlci_1_1alltoall__x.html#a9c18befd13d2d41639a27b531a634da7" target="_top" xlink:title=" ">
<polygon fill="white" stroke="#666666" points="600,-93 477,-93 477,-74 600,-74 600,-93"/>
<text text-anchor="middle" x="538.5" y="-81" font-family="Helvetica,sans-Serif" font-size="10.00">lci::alltoall_x::runtime</text>
</a>
</g>
</g>
<!-- Node1&#45;&gt;Node11 -->
<g id="edge19_Node000001_Node000011" class="edge">
<title>Node1&#45;&gt;Node11</title>
<g id="a_edge19_Node000001_Node000011"><a xlink:title=" ">
<path fill="none" stroke="#63b8ff" d="M671.85,-128.15C652.37,-120.27 626.93,-110.33 604,-102.5 594.28,-99.18 583.62,-95.9 573.82,-93.02"/>
<polygon fill="#63b8ff" stroke="#63b8ff" points="670.59,-131.42 681.17,-131.95 673.23,-124.94 670.59,-131.42"/>
</a>
</g>
</g>
<!-- Node12 -->
<g id="Node000012" class="node">
<title>Node12</title>
<g id="a_Node000012"><a xlink:href="../../dc/de4/classlci_1_1alltoall__x.html#ab6c9dc7450bfed6178e69c9b73af7a0a" target="_top" xlink:title=" ">
<polygon fill="white" stroke="#666666" points="600.5,-56 476.5,-56 476.5,-37 600.5,-37 600.5,-56"/>
<text text-anchor="middle" x="538.5" y="-44" font-family="Helvetica,sans-Serif" font-size="10.00">lci::alltoall_x::sendbuf</text>
</a>
</g>
</g>
<!-- Node1&#45;&gt;Node12 -->
<g id="edge22_Node000001_Node000012" class="edge">
<title>Node1&#45;&gt;Node12</title>
<g id="a_edge22_Node000001_Node000012"><a xlink:title=" ">
<path fill="none" stroke="#63b8ff" d="M686.52,-125.01C667.55,-107.93 635.7,-81.53 604,-65.5 596.6,-61.76 588.35,-58.63 580.28,-56.07"/>
<polygon fill="#63b8ff" stroke="#63b8ff" points="684.32,-127.74 694.05,-131.92 689.05,-122.59 684.32,-127.74"/>
</a>
</g>
</g>
<!-- Node13 -->
<g id="Node000013" class="node">
<title>Node13</title>
<g id="a_Node000013"><a xlink:href="../../dc/de4/classlci_1_1alltoall__x.html#a4e05793db09ec7c7664b5aa5a5eb9bad" target="_top" xlink:title=" ">
<polygon fill="white" stroke="#666666" points="590.5,-19 486.5,-19 486.5,0 590.5,0 590.5,-19"/>
<text text-anchor="middle" x="538.5" y="-7" font-family="Helvetica,sans-Serif" font-size="10.00">lci::alltoall_x::size</text>
</a>
</g>
</g>
<!-- Node1&#45;&gt;Node13 -->
<g id="edge25_Node000001_Node000013" class="edge">
<title>Node1&#45;&gt;Node13</title>
<g id="a_edge25_Node000001_Node000013"><a xlink:title=" ">
<path fill="none" stroke="#63b8ff" d="M692.92,-123.25C676.6,-97.94 643.72,-52.48 604,-27.5 598.59,-24.1 592.52,-21.32 586.34,-19.07"/>
<polygon fill="#63b8ff" stroke="#63b8ff" points="690.06,-125.27 698.34,-131.88 695.98,-121.55 690.06,-125.27"/>
</a>
</g>
</g>
<!-- Node3 -->
<g id="Node000003" class="node">
<title>Node3</title>
<g id="a_Node000003"><a xlink:href="../../dc/de4/classlci_1_1alltoall__x.html#a16f2e3dd4be00496842917d412a4bdcd" target="_top" xlink:title=" ">
<polygon fill="white" stroke="#666666" points="272,-156 170,-156 170,-137 272,-137 272,-156"/>
<text text-anchor="middle" x="221" y="-144" font-family="Helvetica,sans-Serif" font-size="10.00">lci::alltoall_x::call</text>
</a>
</g>
</g>
<!-- Node2&#45;&gt;Node3 -->
<g id="edge2_Node000002_Node000003" class="edge">
<title>Node2&#45;&gt;Node3</title>
<g id="a_edge2_Node000002_Node000003"><a xlink:title=" ">
<path fill="none" stroke="#63b8ff" d="M472.51,-281.27C424.54,-275.17 359,-261.97 308,-233.5 272.21,-213.52 241.5,-174.22 228.56,-156.08"/>
<polygon fill="#63b8ff" stroke="#63b8ff" points="472.13,-284.75 482.47,-282.47 472.96,-277.8 472.13,-284.75"/>
</a>
</g>
</g>
<!-- Node6 -->
<g id="Node000006" class="node">
<title>Node6</title>
<g id="a_Node000006"><a xlink:href="../../dc/de4/classlci_1_1alltoall__x.html#af5d3b724ba1799bb4c9bd02922722a16" target="_top" xlink:title=" ">
<polygon fill="white" stroke="#666666" points="437,-156 308,-156 308,-137 437,-137 437,-156"/>
<text text-anchor="middle" x="372.5" y="-144" font-family="Helvetica,sans-Serif" font-size="10.00">lci::alltoall_x::call_impl</text>
</a>
</g>
</g>
<!-- Node2&#45;&gt;Node6 -->
<g id="edge5_Node000002_Node000006" class="edge">
<title>Node2&#45;&gt;Node6</title>
<g id="a_edge5_Node000002_Node000006"><a xlink:title=" ">
<path fill="none" stroke="#63b8ff" d="M479.57,-266.67C477.3,-265.35 475.1,-263.97 473,-262.5 429.26,-231.99 392.87,-177.88 379.25,-156.04"/>
<polygon fill="#63b8ff" stroke="#63b8ff" points="478.12,-269.86 488.6,-271.37 481.35,-263.65 478.12,-269.86"/>
</a>
</g>
</g>
<!-- Node4 -->
<g id="Node000004" class="node">
<title>Node4</title>
<g id="a_Node000004"><a xlink:href="../../d5/dd3/namespacelci.html#a4e2dd2eb470fd8c2a4094f746386bd7c" target="_top" xlink:title=" ">
<polygon fill="white" stroke="#666666" points="101,-175 33,-175 33,-156 101,-156 101,-175"/>
<text text-anchor="middle" x="67" y="-163" font-family="Helvetica,sans-Serif" font-size="10.00">lci::alltoall</text>
</a>
</g>
</g>
<!-- Node3&#45;&gt;Node4 -->
<g id="edge3_Node000003_Node000004" class="edge">
<title>Node3&#45;&gt;Node4</title>
<g id="a_edge3_Node000003_Node000004"><a xlink:title=" ">
<path fill="none" stroke="#63b8ff" d="M159.87,-154.02C139.96,-156.5 118.52,-159.18 101.37,-161.33"/>
<polygon fill="#63b8ff" stroke="#63b8ff" points="160.32,-157.49 169.81,-152.77 159.45,-150.54 160.32,-157.49"/>
</a>
</g>
</g>
<!-- Node5 -->
<g id="Node000005" class="node">
<title>Node5</title>
<g id="a_Node000005"><a xlink:href="../../dc/de4/classlci_1_1alltoall__x.html#aeff93d5c10e711a8f14e5d3b00505bdf" target="_top" xlink:title=" ">
<polygon fill="white" stroke="#666666" points="134,-138 0,-138 0,-119 134,-119 134,-138"/>
<text text-anchor="middle" x="67" y="-126" font-family="Helvetica,sans-Serif" font-size="10.00">lci::alltoall_x::operator()</text>
</a>
</g>
</g>
<!-- Node3&#45;&gt;Node5 -->
<g id="edge4_Node000003_Node000005" class="edge">
<title>Node3&#45;&gt;Node5</title>
<g id="a_edge4_Node000003_Node000005"><a xlink:title=" ">
<path fill="none" stroke="#63b8ff" d="M159.72,-139.36C151.31,-138.37 142.64,-137.34 134.13,-136.33"/>
<polygon fill="#63b8ff" stroke="#63b8ff" points="159.47,-142.86 169.81,-140.56 160.29,-135.9 159.47,-142.86"/>
</a>
</g>
</g>
<!-- Node6&#45;&gt;Node3 -->
<g id="edge6_Node000006_Node000003" class="edge">
<title>Node6&#45;&gt;Node3</title>
<g id="a_edge6_Node000006_Node000003"><a xlink:title=" ">
<path fill="none" stroke="#63b8ff" d="M297.56,-146.5C288.92,-146.5 280.27,-146.5 272.06,-146.5"/>
<polygon fill="#63b8ff" stroke="#63b8ff" points="297.66,-150 307.66,-146.5 297.66,-143 297.66,-150"/>
</a>
</g>
</g>
<!-- Node7&#45;&gt;Node3 -->
<g id="edge8_Node000007_Node000003" class="edge">
<title>Node7&#45;&gt;Node3</title>
<g id="a_edge8_Node000007_Node000003"><a xlink:title=" ">
<path fill="none" stroke="#63b8ff" d="M469.53,-239.53C422.74,-234.99 359.91,-225.28 308,-204.5 278.24,-192.58 248.29,-169.2 232.8,-156.05"/>
<polygon fill="#63b8ff" stroke="#63b8ff" points="469.28,-243.02 479.56,-240.45 469.92,-236.05 469.28,-243.02"/>
</a>
</g>
</g>
<!-- Node7&#45;&gt;Node6 -->
<g id="edge9_Node000007_Node000006" class="edge">
<title>Node7&#45;&gt;Node6</title>
<g id="a_edge9_Node000007_Node000006"><a xlink:title=" ">
<path fill="none" stroke="#63b8ff" d="M484.21,-230.48C480.34,-228.98 476.57,-227.32 473,-225.5 435.86,-206.56 399.33,-172.53 382.75,-156.01"/>
<polygon fill="#63b8ff" stroke="#63b8ff" points="483.33,-233.88 493.92,-233.91 485.66,-227.28 483.33,-233.88"/>
</a>
</g>
</g>
<!-- Node8&#45;&gt;Node3 -->
<g id="edge11_Node000008_Node000003" class="edge">
<title>Node8&#45;&gt;Node3</title>
<g id="a_edge11_Node000008_Node000003"><a xlink:title=" ">
<path fill="none" stroke="#63b8ff" d="M464.25,-203.71C418.72,-200.7 359.3,-194.46 308,-181.5 284.09,-175.46 258.04,-164.14 240.95,-156"/>
<polygon fill="#63b8ff" stroke="#63b8ff" points="464.13,-207.21 474.33,-204.34 464.56,-200.22 464.13,-207.21"/>
</a>
</g>
</g>
<!-- Node8&#45;&gt;Node6 -->
<g id="edge12_Node000008_Node000006" class="edge">
<title>Node8&#45;&gt;Node6</title>
<g id="a_edge12_Node000008_Node000006"><a xlink:title=" ">
<path fill="none" stroke="#63b8ff" d="M492.82,-194C486.14,-191.94 479.36,-189.74 473,-187.5 445.69,-177.88 414.97,-164.88 394.99,-156.12"/>
<polygon fill="#63b8ff" stroke="#63b8ff" points="491.89,-197.37 502.47,-196.9 493.91,-190.67 491.89,-197.37"/>
</a>
</g>
</g>
<!-- Node9&#45;&gt;Node3 -->
<g id="edge14_Node000009_Node000003" class="edge">
<title>Node9&#45;&gt;Node3</title>
<g id="a_edge14_Node000009_Node000003"><a xlink:title=" ">
<path fill="none" stroke="#63b8ff" d="M462.74,-168.57C417.77,-170.52 359.45,-171.12 308,-165.5 290.98,-163.64 272.39,-159.77 256.86,-156.01"/>
<polygon fill="#63b8ff" stroke="#63b8ff" points="463.17,-172.05 473,-168.09 462.85,-165.06 463.17,-172.05"/>
</a>
</g>
</g>
<!-- Node9&#45;&gt;Node6 -->
<g id="edge15_Node000009_Node000006" class="edge">
<title>Node9&#45;&gt;Node6</title>
<g id="a_edge15_Node000009_Node000006"><a xlink:title=" ">
<path fill="none" stroke="#63b8ff" d="M462.69,-155.75C454.12,-154.86 445.45,-153.96 437.04,-153.09"/>
<polygon fill="#63b8ff" stroke="#63b8ff" points="462.38,-159.23 472.68,-156.78 463.1,-152.27 462.38,-159.23"/>
</a>
</g>
</g>
<!-- Node10&#45;&gt;Node3 -->
<g id="edge17_Node000010_Node000003" class="edge">
<title>Node10&#45;&gt;Node3</title>
<g id="a_edge17_Node000010_Node000003"><a xlink:title=" ">
<path fill="none" stroke="#63b8ff" d="M467.29,-119.84C421.74,-120.17 361.17,-122.06 308,-128.5 292.4,-130.39 275.43,-133.67 260.72,-136.92"/>
<polygon fill="#63b8ff" stroke="#63b8ff" points="467.38,-123.34 477.36,-119.79 467.35,-116.34 467.38,-123.34"/>
</a>
</g>
</g>
<!-- Node10&#45;&gt;Node6 -->
<g id="edge18_Node000010_Node000006" class="edge">
<title>Node10&#45;&gt;Node6</title>
<g id="a_edge18_Node000010_Node000006"><a xlink:title=" ">
<path fill="none" stroke="#63b8ff" d="M467.2,-131.64C456.02,-133.42 444.55,-135.24 433.63,-136.97"/>
<polygon fill="#63b8ff" stroke="#63b8ff" points="468.04,-135.06 477.36,-130.03 466.94,-128.14 468.04,-135.06"/>
</a>
</g>
</g>
<!-- Node11&#45;&gt;Node3 -->
<g id="edge20_Node000011_Node000003" class="edge">
<title>Node11&#45;&gt;Node3</title>
<g id="a_edge20_Node000011_Node000003"><a xlink:title=" ">
<path fill="none" stroke="#63b8ff" d="M466.82,-89.53C421.07,-94.37 360.47,-102.54 308,-115.5 285.97,-120.94 261.71,-129.98 244.6,-136.89"/>
<polygon fill="#63b8ff" stroke="#63b8ff" points="467.34,-92.99 476.93,-88.49 466.63,-86.03 467.34,-92.99"/>
</a>
</g>
</g>
<!-- Node11&#45;&gt;Node6 -->
<g id="edge21_Node000011_Node000006" class="edge">
<title>Node11&#45;&gt;Node6</title>
<g id="a_edge21_Node000011_Node000006"><a xlink:title=" ">
<path fill="none" stroke="#63b8ff" d="M492.07,-96.07C485.63,-98.09 479.11,-100.26 473,-102.5 444.63,-112.9 412.85,-127.49 393.01,-136.97"/>
<polygon fill="#63b8ff" stroke="#63b8ff" points="493.53,-99.29 502.08,-93.04 491.5,-92.59 493.53,-99.29"/>
</a>
</g>
</g>
<!-- Node12&#45;&gt;Node3 -->
<g id="edge23_Node000012_Node000003" class="edge">
<title>Node12&#45;&gt;Node3</title>
<g id="a_edge23_Node000012_Node000003"><a xlink:title=" ">
<path fill="none" stroke="#63b8ff" d="M466.23,-52.44C419.84,-58.09 358.75,-68.92 308,-89.5 278.62,-101.41 248.75,-124.1 233.12,-136.97"/>
<polygon fill="#63b8ff" stroke="#63b8ff" points="466.67,-55.92 476.2,-51.28 465.86,-48.96 466.67,-55.92"/>
</a>
</g>
</g>
<!-- Node12&#45;&gt;Node6 -->
<g id="edge24_Node000012_Node000006" class="edge">
<title>Node12&#45;&gt;Node6</title>
<g id="a_edge24_Node000012_Node000006"><a xlink:title=" ">
<path fill="none" stroke="#63b8ff" d="M486.38,-59.48C481.76,-61.27 477.23,-63.27 473,-65.5 435.75,-85.12 399.27,-119.92 382.73,-136.79"/>
<polygon fill="#63b8ff" stroke="#63b8ff" points="487.68,-62.73 495.94,-56.09 485.34,-56.13 487.68,-62.73"/>
</a>
</g>
</g>
<!-- Node13&#45;&gt;Node3 -->
<g id="edge26_Node000013_Node000003" class="edge">
<title>Node13&#45;&gt;Node3</title>
<g id="a_edge26_Node000013_Node000003"><a xlink:title=" ">
<path fill="none" stroke="#63b8ff" d="M476.48,-10.49C428.06,-13.65 360.09,-23.53 308,-52.5 270.11,-73.57 239.83,-117.48 227.71,-136.9"/>
<polygon fill="#63b8ff" stroke="#63b8ff" points="476.72,-13.99 486.5,-9.92 476.31,-7 476.72,-13.99"/>
</a>
</g>
</g>
<!-- Node13&#45;&gt;Node6 -->
<g id="edge27_Node000013_Node000006" class="edge">
<title>Node13&#45;&gt;Node6</title>
<g id="a_edge27_Node000013_Node000006"><a xlink:title=" ">
<path fill="none" stroke="#63b8ff" d="M480.79,-23.12C478.09,-24.45 475.47,-25.9 473,-27.5 427.3,-57.01 391.77,-114.04 378.81,-136.79"/>
<polygon fill="#63b8ff" stroke="#63b8ff" points="482.43,-26.22 490.25,-19.07 479.68,-19.79 482.43,-26.22"/>
</a>
</g>
</g>
</g>
</svg>
