<?xml version="1.0" encoding="UTF-8" standalone="no"?>
<!DOCTYPE svg PUBLIC "-//W3C//DTD SVG 1.1//EN"
 "http://www.w3.org/Graphics/SVG/1.1/DTD/svg11.dtd">
<!-- Generated by graphviz version 2.43.0 (0)
 -->
<!-- Title: lci::alltoall_x::call_impl Pages: 1 -->
<svg width="470pt" height="310pt"
 viewBox="0.00 0.00 470.00 309.50" xmlns="http://www.w3.org/2000/svg" xmlns:xlink="http://www.w3.org/1999/xlink">
<g id="graph0" class="graph" transform="scale(1 1) rotate(0) translate(4 305.5)">
<title>lci::alltoall_x::call_impl</title>
<!-- Node1 -->
<g id="Node000001" class="node">
<title>Node1</title>
<g id="a_Node000001"><a xlink:title=" ">
<polygon fill="#999999" stroke="#666666" points="129,-151 0,-151 0,-132 129,-132 129,-151"/>
<text text-anchor="middle" x="64.5" y="-139" font-family="Helvetica,sans-Serif" font-size="10.00">lci::alltoall_x::call_impl</text>
</a>
</g>
</g>
<!-- Node2 -->
<g id="Node000002" class="node">
<title>Node2</title>
<g id="a_Node000002"><a xlink:href="../../dc/de4/classlci_1_1alltoall__x.html#ad34567fe45c43f861cca5dc032a3386f" target="_top" xlink:title=" ">
<polygon fill="white" stroke="#666666" points="286.5,-301.5 174.5,-301.5 174.5,-271.5 286.5,-271.5 286.5,-301.5"/>
<text text-anchor="start" x="182.5" y="-289.5" font-family="Helvetica,sans-Serif" font-size="10.00">lci::alltoall_x::comp</text>
<text text-anchor="middle" x="230.5" y="-278.5" font-family="Helvetica,sans-Serif" font-size="10.00">_semantic</text>
</a>
</g>
</g>
<!-- Node1&#45;&gt;Node2 -->
<g id="edge1_Node000001_Node000002" class="edge">
<title>Node1&#45;&gt;Node2</title>
<g id="a_edge1_Node000001_Node000002"><a xlink:title=" ">
<path fill="none" stroke="#63b8ff" d="M70.94,-151.12C84.18,-173.71 120.27,-230.61 165,-262.5 167.09,-263.99 169.27,-265.39 171.53,-266.72"/>
<polygon fill="#63b8ff" stroke="#63b8ff" points="170.06,-269.9 180.53,-271.47 173.32,-263.71 170.06,-269.9"/>
</a>
</g>
</g>
<!-- Node4 -->
<g id="Node000004" class="node">
<title>Node4</title>
<g id="a_Node000004"><a xlink:href="../../dc/de4/classlci_1_1alltoall__x.html#a1fb83f4c2992b583aaf8ee34c99cea6b" target="_top" xlink:title=" ">
<polygon fill="white" stroke="#666666" points="289,-253 172,-253 172,-234 289,-234 289,-253"/>
<text text-anchor="middle" x="230.5" y="-241" font-family="Helvetica,sans-Serif" font-size="10.00">lci::alltoall_x::device</text>
</a>
</g>
</g>
<!-- Node1&#45;&gt;Node4 -->
<g id="edge3_Node000001_Node000004" class="edge">
<title>Node1&#45;&gt;Node4</title>
<g id="a_edge3_Node000001_Node000004"><a xlink:title=" ">
<path fill="none" stroke="#63b8ff" d="M74.1,-151.09C90.23,-168.49 126.83,-205.31 165,-225.5 168.48,-227.34 172.18,-229.01 175.96,-230.53"/>
<polygon fill="#63b8ff" stroke="#63b8ff" points="174.9,-233.86 185.49,-233.96 177.27,-227.28 174.9,-233.86"/>
</a>
</g>
</g>
<!-- Node5 -->
<g id="Node000005" class="node">
<title>Node5</title>
<g id="a_Node000005"><a xlink:href="../../dc/de4/classlci_1_1alltoall__x.html#a95daea4dabf6e25c1e6587860671d6f3" target="_top" xlink:title=" ">
<polygon fill="white" stroke="#666666" points="294.5,-216 166.5,-216 166.5,-197 294.5,-197 294.5,-216"/>
<text text-anchor="middle" x="230.5" y="-204" font-family="Helvetica,sans-Serif" font-size="10.00">lci::alltoall_x::endpoint</text>
</a>
</g>
</g>
<!-- Node1&#45;&gt;Node5 -->
<g id="edge5_Node000001_Node000005" class="edge">
<title>Node1&#45;&gt;Node5</title>
<g id="a_edge5_Node000001_Node000005"><a xlink:title=" ">
<path fill="none" stroke="#63b8ff" d="M84.22,-151.16C103.96,-161.11 136.14,-176.65 165,-187.5 171.02,-189.77 177.44,-191.94 183.81,-193.95"/>
<polygon fill="#63b8ff" stroke="#63b8ff" points="183.12,-197.4 193.71,-196.97 185.16,-190.7 183.12,-197.4"/>
</a>
</g>
</g>
<!-- Node6 -->
<g id="Node000006" class="node">
<title>Node6</title>
<g id="a_Node000006"><a xlink:href="../../dc/de4/classlci_1_1alltoall__x.html#a92f149fc6b919ba63400773e8cb89020" target="_top" xlink:title=" ">
<polygon fill="white" stroke="#666666" points="296,-178.5 165,-178.5 165,-148.5 296,-148.5 296,-178.5"/>
<text text-anchor="start" x="173" y="-166.5" font-family="Helvetica,sans-Serif" font-size="10.00">lci::alltoall_x::matching</text>
<text text-anchor="middle" x="230.5" y="-155.5" font-family="Helvetica,sans-Serif" font-size="10.00">_engine</text>
</a>
</g>
</g>
<!-- Node1&#45;&gt;Node6 -->
<g id="edge7_Node000001_Node000006" class="edge">
<title>Node1&#45;&gt;Node6</title>
<g id="a_edge7_Node000001_Node000006"><a xlink:title=" ">
<path fill="none" stroke="#63b8ff" d="M129.38,-150.07C137.78,-151.2 146.45,-152.36 155.01,-153.51"/>
<polygon fill="#63b8ff" stroke="#63b8ff" points="154.61,-156.99 164.99,-154.85 155.54,-150.05 154.61,-156.99"/>
</a>
</g>
</g>
<!-- Node7 -->
<g id="Node000007" class="node">
<title>Node7</title>
<g id="a_Node000007"><a xlink:href="../../dc/de4/classlci_1_1alltoall__x.html#a6764df532d3a7dad34894783413ac39e" target="_top" xlink:title=" ">
<polygon fill="white" stroke="#666666" points="291.5,-130 169.5,-130 169.5,-111 291.5,-111 291.5,-130"/>
<text text-anchor="middle" x="230.5" y="-118" font-family="Helvetica,sans-Serif" font-size="10.00">lci::alltoall_x::recvbuf</text>
</a>
</g>
</g>
<!-- Node1&#45;&gt;Node7 -->
<g id="edge9_Node000001_Node000007" class="edge">
<title>Node1&#45;&gt;Node7</title>
<g id="a_edge9_Node000001_Node000007"><a xlink:title=" ">
<path fill="none" stroke="#63b8ff" d="M129.38,-133.32C139.12,-132.07 149.23,-130.78 159.1,-129.51"/>
<polygon fill="#63b8ff" stroke="#63b8ff" points="159.81,-132.95 169.29,-128.21 158.92,-126.01 159.81,-132.95"/>
</a>
</g>
</g>
<!-- Node8 -->
<g id="Node000008" class="node">
<title>Node8</title>
<g id="a_Node000008"><a xlink:href="../../dc/de4/classlci_1_1alltoall__x.html#a9c18befd13d2d41639a27b531a634da7" target="_top" xlink:title=" ">
<polygon fill="white" stroke="#666666" points="292,-93 169,-93 169,-74 292,-74 292,-93"/>
<text text-anchor="middle" x="230.5" y="-81" font-family="Helvetica,sans-Serif" font-size="10.00">lci::alltoall_x::runtime</text>
</a>
</g>
</g>
<!-- Node1&#45;&gt;Node8 -->
<g id="edge11_Node000001_Node000008" class="edge">
<title>Node1&#45;&gt;Node8</title>
<g id="a_edge11_Node000001_Node000008"><a xlink:title=" ">
<path fill="none" stroke="#63b8ff" d="M88.21,-131.94C108.24,-123.67 138.32,-111.64 165,-102.5 171.53,-100.26 178.48,-98.05 185.32,-95.96"/>
<polygon fill="#63b8ff" stroke="#63b8ff" points="186.6,-99.23 195.18,-93.01 184.6,-92.52 186.6,-99.23"/>
</a>
</g>
</g>
<!-- Node9 -->
<g id="Node000009" class="node">
<title>Node9</title>
<g id="a_Node000009"><a xlink:href="../../dc/de4/classlci_1_1alltoall__x.html#ab6c9dc7450bfed6178e69c9b73af7a0a" target="_top" xlink:title=" ">
<polygon fill="white" stroke="#666666" points="292.5,-56 168.5,-56 168.5,-37 292.5,-37 292.5,-56"/>
<text text-anchor="middle" x="230.5" y="-44" font-family="Helvetica,sans-Serif" font-size="10.00">lci::alltoall_x::sendbuf</text>
</a>
</g>
</g>
<!-- Node1&#45;&gt;Node9 -->
<g id="edge13_Node000001_Node000009" class="edge">
<title>Node1&#45;&gt;Node9</title>
<g id="a_edge13_Node000001_Node000009"><a xlink:title=" ">
<path fill="none" stroke="#63b8ff" d="M75.39,-131.92C92.37,-115.96 128.75,-83.89 165,-65.5 169.5,-63.22 174.33,-61.16 179.24,-59.32"/>
<polygon fill="#63b8ff" stroke="#63b8ff" points="180.4,-62.62 188.71,-56.05 178.12,-56.01 180.4,-62.62"/>
</a>
</g>
</g>
<!-- Node10 -->
<g id="Node000010" class="node">
<title>Node10</title>
<g id="a_Node000010"><a xlink:href="../../dc/de4/classlci_1_1alltoall__x.html#a4e05793db09ec7c7664b5aa5a5eb9bad" target="_top" xlink:title=" ">
<polygon fill="white" stroke="#666666" points="282.5,-19 178.5,-19 178.5,0 282.5,0 282.5,-19"/>
<text text-anchor="middle" x="230.5" y="-7" font-family="Helvetica,sans-Serif" font-size="10.00">lci::alltoall_x::size</text>
</a>
</g>
</g>
<!-- Node1&#45;&gt;Node10 -->
<g id="edge15_Node000001_Node000010" class="edge">
<title>Node1&#45;&gt;Node10</title>
<g id="a_edge15_Node000001_Node000010"><a xlink:title=" ">
<path fill="none" stroke="#63b8ff" d="M71.37,-131.68C84.99,-109.77 120.92,-56.61 165,-28.5 168.19,-26.47 171.61,-24.64 175.14,-23.01"/>
<polygon fill="#63b8ff" stroke="#63b8ff" points="176.75,-26.13 184.69,-19.11 174.11,-19.65 176.75,-26.13"/>
</a>
</g>
</g>
<!-- Node3 -->
<g id="Node000003" class="node">
<title>Node3</title>
<g id="a_Node000003"><a xlink:href="../../dc/de4/classlci_1_1alltoall__x.html#a631f159f788f1b9da3ae723171937a82" target="_top" xlink:title=" ">
<polygon fill="white" stroke="#666666" points="462,-151 332,-151 332,-132 462,-132 462,-151"/>
<text text-anchor="middle" x="397" y="-139" font-family="Helvetica,sans-Serif" font-size="10.00">lci::alltoall_x::alltoall_x</text>
</a>
</g>
</g>
<!-- Node2&#45;&gt;Node3 -->
<g id="edge2_Node000002_Node000003" class="edge">
<title>Node2&#45;&gt;Node3</title>
<g id="a_edge2_Node000002_Node000003"><a xlink:title=" ">
<path fill="none" stroke="#63b8ff" d="M280.46,-271.46C285.92,-268.87 291.23,-265.89 296,-262.5 335.96,-234.09 369.14,-185.85 385.34,-159.68"/>
<polygon fill="#63b8ff" stroke="#63b8ff" points="388.34,-161.49 390.52,-151.12 382.35,-157.87 388.34,-161.49"/>
</a>
</g>
</g>
<!-- Node4&#45;&gt;Node3 -->
<g id="edge4_Node000004_Node000003" class="edge">
<title>Node4&#45;&gt;Node3</title>
<g id="a_edge4_Node000004_Node000003"><a xlink:title=" ">
<path fill="none" stroke="#63b8ff" d="M275.5,-233.95C282.55,-231.65 289.62,-228.86 296,-225.5 329.52,-207.82 361.89,-177.42 380.33,-158.45"/>
<polygon fill="#63b8ff" stroke="#63b8ff" points="382.98,-160.74 387.34,-151.09 377.91,-155.92 382.98,-160.74"/>
</a>
</g>
</g>
<!-- Node5&#45;&gt;Node3 -->
<g id="edge6_Node000005_Node000003" class="edge">
<title>Node5&#45;&gt;Node3</title>
<g id="a_edge6_Node000005_Node000003"><a xlink:title=" ">
<path fill="none" stroke="#63b8ff" d="M267.29,-196.96C276.72,-194.17 286.82,-190.94 296,-187.5 320.91,-178.16 348.3,-165.37 368.11,-155.65"/>
<polygon fill="#63b8ff" stroke="#63b8ff" points="369.77,-158.73 377.18,-151.15 366.66,-152.46 369.77,-158.73"/>
</a>
</g>
</g>
<!-- Node6&#45;&gt;Node3 -->
<g id="edge8_Node000006_Node000003" class="edge">
<title>Node6&#45;&gt;Node3</title>
<g id="a_edge8_Node000006_Node000003"><a xlink:title=" ">
<path fill="none" stroke="#63b8ff" d="M296.04,-154.87C304.52,-153.73 313.26,-152.57 321.87,-151.41"/>
<polygon fill="#63b8ff" stroke="#63b8ff" points="322.47,-154.87 331.91,-150.07 321.54,-147.93 322.47,-154.87"/>
</a>
</g>
</g>
<!-- Node7&#45;&gt;Node3 -->
<g id="edge10_Node000007_Node000003" class="edge">
<title>Node7&#45;&gt;Node3</title>
<g id="a_edge10_Node000007_Node000003"><a xlink:title=" ">
<path fill="none" stroke="#63b8ff" d="M291.82,-128.2C301.59,-129.45 311.8,-130.75 321.84,-132.03"/>
<polygon fill="#63b8ff" stroke="#63b8ff" points="321.45,-135.51 331.81,-133.31 322.34,-128.57 321.45,-135.51"/>
</a>
</g>
</g>
<!-- Node8&#45;&gt;Node3 -->
<g id="edge12_Node000008_Node000003" class="edge">
<title>Node8&#45;&gt;Node3</title>
<g id="a_edge12_Node000008_Node000003"><a xlink:title=" ">
<path fill="none" stroke="#63b8ff" d="M265.82,-93.02C275.62,-95.9 286.28,-99.18 296,-102.5 318.93,-110.33 344.37,-120.27 363.85,-128.15"/>
<polygon fill="#63b8ff" stroke="#63b8ff" points="362.59,-131.42 373.17,-131.95 365.23,-124.94 362.59,-131.42"/>
</a>
</g>
</g>
<!-- Node9&#45;&gt;Node3 -->
<g id="edge14_Node000009_Node000003" class="edge">
<title>Node9&#45;&gt;Node3</title>
<g id="a_edge14_Node000009_Node000003"><a xlink:title=" ">
<path fill="none" stroke="#63b8ff" d="M272.28,-56.07C280.35,-58.63 288.6,-61.76 296,-65.5 327.7,-81.53 359.55,-107.93 378.52,-125.01"/>
<polygon fill="#63b8ff" stroke="#63b8ff" points="376.32,-127.74 386.05,-131.92 381.05,-122.59 376.32,-127.74"/>
</a>
</g>
</g>
<!-- Node10&#45;&gt;Node3 -->
<g id="edge16_Node000010_Node000003" class="edge">
<title>Node10&#45;&gt;Node3</title>
<g id="a_edge16_Node000010_Node000003"><a xlink:title=" ">
<path fill="none" stroke="#63b8ff" d="M275.96,-19.01C282.96,-21.5 289.89,-24.62 296,-28.5 335.2,-53.43 368.08,-98.05 384.58,-123.11"/>
<polygon fill="#63b8ff" stroke="#63b8ff" points="381.74,-125.16 390.08,-131.68 387.63,-121.37 381.74,-125.16"/>
</a>
</g>
</g>
</g>
</svg>
