<?xml version="1.0" encoding="UTF-8" standalone="no"?>
<!DOCTYPE svg PUBLIC "-//W3C//DTD SVG 1.1//EN"
 "http://www.w3.org/Graphics/SVG/1.1/DTD/svg11.dtd">
<!-- Generated by graphviz version 2.43.0 (0)
 -->
<!-- Title: lci::alltoall_x::call Pages: 1 -->
<svg width="608pt" height="347pt"
 viewBox="0.00 0.00 608.00 347.00" xmlns="http://www.w3.org/2000/svg" xmlns:xlink="http://www.w3.org/1999/xlink">
<g id="graph0" class="graph" transform="scale(1 1) rotate(0) translate(4 343)">
<title>lci::alltoall_x::call</title>
<!-- Node1 -->
<g id="Node000001" class="node">
<title>Node1</title>
<g id="a_Node000001"><a xlink:title=" ">
<polygon fill="#999999" stroke="#666666" points="102,-178 0,-178 0,-159 102,-159 102,-178"/>
<text text-anchor="middle" x="51" y="-166" font-family="Helvetica,sans-Serif" font-size="10.00">lci::alltoall_x::call</text>
</a>
</g>
</g>
<!-- Node2 -->
<g id="Node000002" class="node">
<title>Node2</title>
<g id="a_Node000002"><a xlink:href="../../dc/de4/classlci_1_1alltoall__x.html#a3ff379cb4eeb8a5dc0814672a469cc48" target="_top" xlink:title=" ">
<polygon fill="white" stroke="#666666" points="267,-197 138,-197 138,-178 267,-178 267,-197"/>
<text text-anchor="middle" x="202.5" y="-185" font-family="Helvetica,sans-Serif" font-size="10.00">lci::alltoall_x::call_impl</text>
</a>
</g>
</g>
<!-- Node1&#45;&gt;Node2 -->
<g id="edge1_Node000001_Node000002" class="edge">
<title>Node1&#45;&gt;Node2</title>
<g id="a_edge1_Node000001_Node000002"><a xlink:title=" ">
<path fill="none" stroke="#63b8ff" d="M102.2,-174.88C110.43,-175.93 119.11,-177.03 127.77,-178.13"/>
<polygon fill="#63b8ff" stroke="#63b8ff" points="127.53,-181.63 137.89,-179.42 128.42,-174.68 127.53,-181.63"/>
</a>
</g>
</g>
<!-- Node3 -->
<g id="Node000003" class="node">
<title>Node3</title>
<g id="a_Node000003"><a xlink:href="../../dc/de4/classlci_1_1alltoall__x.html#ae378489f99f5c27fdda5143341f99766" target="_top" xlink:title=" ">
<polygon fill="white" stroke="#666666" points="424.5,-339 312.5,-339 312.5,-320 424.5,-320 424.5,-339"/>
<text text-anchor="middle" x="368.5" y="-327" font-family="Helvetica,sans-Serif" font-size="10.00">lci::alltoall_x::comp</text>
</a>
</g>
</g>
<!-- Node1&#45;&gt;Node3 -->
<g id="edge20_Node000001_Node000003" class="edge">
<title>Node1&#45;&gt;Node3</title>
<g id="a_edge20_Node000001_Node000003"><a xlink:title=" ">
<path fill="none" stroke="#63b8ff" d="M56.66,-178.27C67.57,-200.04 97,-252.63 138,-278.5 187.47,-309.72 253.47,-321.96 301.99,-326.7"/>
<polygon fill="#63b8ff" stroke="#63b8ff" points="301.8,-330.2 312.07,-327.6 302.42,-323.22 301.8,-330.2"/>
</a>
</g>
</g>
<!-- Node5 -->
<g id="Node000005" class="node">
<title>Node5</title>
<g id="a_Node000005"><a xlink:href="../../dc/de4/classlci_1_1alltoall__x.html#ad34567fe45c43f861cca5dc032a3386f" target="_top" xlink:title=" ">
<polygon fill="white" stroke="#666666" points="424.5,-301.5 312.5,-301.5 312.5,-271.5 424.5,-271.5 424.5,-301.5"/>
<text text-anchor="start" x="320.5" y="-289.5" font-family="Helvetica,sans-Serif" font-size="10.00">lci::alltoall_x::comp</text>
<text text-anchor="middle" x="368.5" y="-278.5" font-family="Helvetica,sans-Serif" font-size="10.00">_semantic</text>
</a>
</g>
</g>
<!-- Node1&#45;&gt;Node5 -->
<g id="edge21_Node000001_Node000005" class="edge">
<title>Node1&#45;&gt;Node5</title>
<g id="a_edge21_Node000001_Node000005"><a xlink:title=" ">
<path fill="none" stroke="#63b8ff" d="M59.06,-178.03C72.38,-195.25 103.04,-231.33 138,-248.5 189.5,-273.8 254.52,-282.72 302.2,-285.65"/>
<polygon fill="#63b8ff" stroke="#63b8ff" points="302.23,-289.16 312.4,-286.21 302.6,-282.17 302.23,-289.16"/>
</a>
</g>
</g>
<!-- Node6 -->
<g id="Node000006" class="node">
<title>Node6</title>
<g id="a_Node000006"><a xlink:href="../../dc/de4/classlci_1_1alltoall__x.html#a1fb83f4c2992b583aaf8ee34c99cea6b" target="_top" xlink:title=" ">
<polygon fill="white" stroke="#666666" points="427,-253 310,-253 310,-234 427,-234 427,-253"/>
<text text-anchor="middle" x="368.5" y="-241" font-family="Helvetica,sans-Serif" font-size="10.00">lci::alltoall_x::device</text>
</a>
</g>
</g>
<!-- Node1&#45;&gt;Node6 -->
<g id="edge22_Node000001_Node000006" class="edge">
<title>Node1&#45;&gt;Node6</title>
<g id="a_edge22_Node000001_Node000006"><a xlink:title=" ">
<path fill="none" stroke="#63b8ff" d="M62.73,-178.07C78.14,-191.17 108,-214.23 138,-224.5 190.33,-242.42 253.13,-246.52 299.79,-246.5"/>
<polygon fill="#63b8ff" stroke="#63b8ff" points="299.82,-250 309.79,-246.44 299.77,-243 299.82,-250"/>
</a>
</g>
</g>
<!-- Node7 -->
<g id="Node000007" class="node">
<title>Node7</title>
<g id="a_Node000007"><a xlink:href="../../dc/de4/classlci_1_1alltoall__x.html#a95daea4dabf6e25c1e6587860671d6f3" target="_top" xlink:title=" ">
<polygon fill="white" stroke="#666666" points="432.5,-216 304.5,-216 304.5,-197 432.5,-197 432.5,-216"/>
<text text-anchor="middle" x="368.5" y="-204" font-family="Helvetica,sans-Serif" font-size="10.00">lci::alltoall_x::endpoint</text>
</a>
</g>
</g>
<!-- Node1&#45;&gt;Node7 -->
<g id="edge23_Node000001_Node000007" class="edge">
<title>Node1&#45;&gt;Node7</title>
<g id="a_edge23_Node000001_Node000007"><a xlink:title=" ">
<path fill="none" stroke="#63b8ff" d="M68.12,-178.07C84.9,-187.44 112.29,-201.07 138,-206.5 189.47,-217.36 248.88,-217.02 294.36,-214.14"/>
<polygon fill="#63b8ff" stroke="#63b8ff" points="294.7,-217.63 304.43,-213.45 294.22,-210.65 294.7,-217.63"/>
</a>
</g>
</g>
<!-- Node8 -->
<g id="Node000008" class="node">
<title>Node8</title>
<g id="a_Node000008"><a xlink:href="../../dc/de4/classlci_1_1alltoall__x.html#a92f149fc6b919ba63400773e8cb89020" target="_top" xlink:title=" ">
<polygon fill="white" stroke="#666666" points="434,-178.5 303,-178.5 303,-148.5 434,-148.5 434,-178.5"/>
<text text-anchor="start" x="311" y="-166.5" font-family="Helvetica,sans-Serif" font-size="10.00">lci::alltoall_x::matching</text>
<text text-anchor="middle" x="368.5" y="-155.5" font-family="Helvetica,sans-Serif" font-size="10.00">_engine</text>
</a>
</g>
</g>
<!-- Node1&#45;&gt;Node8 -->
<g id="edge24_Node000001_Node000008" class="edge">
<title>Node1&#45;&gt;Node8</title>
<g id="a_edge24_Node000001_Node000008"><a xlink:title=" ">
<path fill="none" stroke="#63b8ff" d="M102.34,-167.7C153.63,-166.89 233.76,-165.62 292.52,-164.69"/>
<polygon fill="#63b8ff" stroke="#63b8ff" points="292.92,-168.18 302.86,-164.52 292.81,-161.18 292.92,-168.18"/>
</a>
</g>
</g>
<!-- Node9 -->
<g id="Node000009" class="node">
<title>Node9</title>
<g id="a_Node000009"><a xlink:href="../../dc/de4/classlci_1_1alltoall__x.html#a6764df532d3a7dad34894783413ac39e" target="_top" xlink:title=" ">
<polygon fill="white" stroke="#666666" points="429.5,-130 307.5,-130 307.5,-111 429.5,-111 429.5,-130"/>
<text text-anchor="middle" x="368.5" y="-118" font-family="Helvetica,sans-Serif" font-size="10.00">lci::alltoall_x::recvbuf</text>
</a>
</g>
</g>
<!-- Node1&#45;&gt;Node9 -->
<g id="edge25_Node000001_Node000009" class="edge">
<title>Node1&#45;&gt;Node9</title>
<g id="a_edge25_Node000001_Node000009"><a xlink:title=" ">
<path fill="none" stroke="#63b8ff" d="M102.34,-160.84C155.05,-152.82 238.23,-140.17 297.36,-131.17"/>
<polygon fill="#63b8ff" stroke="#63b8ff" points="298.01,-134.61 307.37,-129.65 296.95,-127.69 298.01,-134.61"/>
</a>
</g>
</g>
<!-- Node10 -->
<g id="Node000010" class="node">
<title>Node10</title>
<g id="a_Node000010"><a xlink:href="../../dc/de4/classlci_1_1alltoall__x.html#a9c18befd13d2d41639a27b531a634da7" target="_top" xlink:title=" ">
<polygon fill="white" stroke="#666666" points="430,-93 307,-93 307,-74 430,-74 430,-93"/>
<text text-anchor="middle" x="368.5" y="-81" font-family="Helvetica,sans-Serif" font-size="10.00">lci::alltoall_x::runtime</text>
</a>
</g>
</g>
<!-- Node1&#45;&gt;Node10 -->
<g id="edge26_Node000001_Node000010" class="edge">
<title>Node1&#45;&gt;Node10</title>
<g id="a_edge26_Node000001_Node000010"><a xlink:title=" ">
<path fill="none" stroke="#63b8ff" d="M71.05,-158.99C88.2,-150.75 114.29,-139 138,-131.5 190.14,-115.01 250.76,-102.61 296.6,-94.55"/>
<polygon fill="#63b8ff" stroke="#63b8ff" points="297.48,-97.95 306.73,-92.79 296.28,-91.05 297.48,-97.95"/>
</a>
</g>
</g>
<!-- Node11 -->
<g id="Node000011" class="node">
<title>Node11</title>
<g id="a_Node000011"><a xlink:href="../../dc/de4/classlci_1_1alltoall__x.html#ab6c9dc7450bfed6178e69c9b73af7a0a" target="_top" xlink:title=" ">
<polygon fill="white" stroke="#666666" points="430.5,-56 306.5,-56 306.5,-37 430.5,-37 430.5,-56"/>
<text text-anchor="middle" x="368.5" y="-44" font-family="Helvetica,sans-Serif" font-size="10.00">lci::alltoall_x::sendbuf</text>
</a>
</g>
</g>
<!-- Node1&#45;&gt;Node11 -->
<g id="edge27_Node000001_Node000011" class="edge">
<title>Node1&#45;&gt;Node11</title>
<g id="a_edge27_Node000001_Node000011"><a xlink:title=" ">
<path fill="none" stroke="#63b8ff" d="M60.48,-158.87C74.82,-143.23 105.48,-112.44 138,-96.5 187.8,-72.09 249.47,-59.5 296.34,-53.07"/>
<polygon fill="#63b8ff" stroke="#63b8ff" points="296.95,-56.52 306.41,-51.75 296.04,-49.58 296.95,-56.52"/>
</a>
</g>
</g>
<!-- Node12 -->
<g id="Node000012" class="node">
<title>Node12</title>
<g id="a_Node000012"><a xlink:href="../../dc/de4/classlci_1_1alltoall__x.html#a4e05793db09ec7c7664b5aa5a5eb9bad" target="_top" xlink:title=" ">
<polygon fill="white" stroke="#666666" points="420.5,-19 316.5,-19 316.5,0 420.5,0 420.5,-19"/>
<text text-anchor="middle" x="368.5" y="-7" font-family="Helvetica,sans-Serif" font-size="10.00">lci::alltoall_x::size</text>
</a>
</g>
</g>
<!-- Node1&#45;&gt;Node12 -->
<g id="edge28_Node000001_Node000012" class="edge">
<title>Node1&#45;&gt;Node12</title>
<g id="a_edge28_Node000001_Node000012"><a xlink:title=" ">
<path fill="none" stroke="#63b8ff" d="M56.17,-158.87C66.44,-136.37 95.31,-80.21 138,-53.5 188.73,-21.76 257.2,-11.99 306.11,-9.41"/>
<polygon fill="#63b8ff" stroke="#63b8ff" points="306.41,-12.9 316.24,-8.96 306.1,-5.91 306.41,-12.9"/>
</a>
</g>
</g>
<!-- Node2&#45;&gt;Node3 -->
<g id="edge2_Node000002_Node000003" class="edge">
<title>Node2&#45;&gt;Node3</title>
<g id="a_edge2_Node000002_Node000003"><a xlink:title=" ">
<path fill="none" stroke="#63b8ff" d="M208.57,-197.15C221.23,-220.34 256.62,-279.55 303,-310.5 306.09,-312.57 309.42,-314.41 312.87,-316.06"/>
<polygon fill="#63b8ff" stroke="#63b8ff" points="311.64,-319.34 322.21,-319.98 314.35,-312.88 311.64,-319.34"/>
</a>
</g>
</g>
<!-- Node2&#45;&gt;Node5 -->
<g id="edge4_Node000002_Node000005" class="edge">
<title>Node2&#45;&gt;Node5</title>
<g id="a_edge4_Node000002_Node000005"><a xlink:title=" ">
<path fill="none" stroke="#63b8ff" d="M214.12,-197.17C231.57,-212.67 267.9,-243.28 303,-262.5 306.08,-264.19 309.3,-265.8 312.6,-267.34"/>
<polygon fill="#63b8ff" stroke="#63b8ff" points="311.43,-270.65 322,-271.47 314.25,-264.24 311.43,-270.65"/>
</a>
</g>
</g>
<!-- Node2&#45;&gt;Node6 -->
<g id="edge6_Node000002_Node000006" class="edge">
<title>Node2&#45;&gt;Node6</title>
<g id="a_edge6_Node000002_Node000006"><a xlink:title=" ">
<path fill="none" stroke="#63b8ff" d="M226.6,-197.02C246.63,-205.11 276.48,-216.76 303,-225.5 308.94,-227.46 315.24,-229.39 321.47,-231.22"/>
<polygon fill="#63b8ff" stroke="#63b8ff" points="320.58,-234.6 331.16,-233.99 322.51,-227.88 320.58,-234.6"/>
</a>
</g>
</g>
<!-- Node2&#45;&gt;Node7 -->
<g id="edge8_Node000002_Node000007" class="edge">
<title>Node2&#45;&gt;Node7</title>
<g id="a_edge8_Node000002_Node000007"><a xlink:title=" ">
<path fill="none" stroke="#63b8ff" d="M267.38,-194.9C276.2,-195.92 285.31,-196.98 294.29,-198.02"/>
<polygon fill="#63b8ff" stroke="#63b8ff" points="294,-201.51 304.34,-199.18 294.81,-194.55 294,-201.51"/>
</a>
</g>
</g>
<!-- Node2&#45;&gt;Node8 -->
<g id="edge10_Node000002_Node000008" class="edge">
<title>Node2&#45;&gt;Node8</title>
<g id="a_edge10_Node000002_Node000008"><a xlink:title=" ">
<path fill="none" stroke="#63b8ff" d="M267.38,-178.15C275.78,-176.92 284.45,-175.65 293.01,-174.4"/>
<polygon fill="#63b8ff" stroke="#63b8ff" points="293.6,-177.85 302.99,-172.94 292.59,-170.93 293.6,-177.85"/>
</a>
</g>
</g>
<!-- Node2&#45;&gt;Node9 -->
<g id="edge12_Node000002_Node000009" class="edge">
<title>Node2&#45;&gt;Node9</title>
<g id="a_edge12_Node000002_Node000009"><a xlink:title=" ">
<path fill="none" stroke="#63b8ff" d="M221.09,-177.93C240.67,-167.53 273.47,-150.88 303,-139.5 308.93,-137.21 315.26,-135.04 321.55,-133.03"/>
<polygon fill="#63b8ff" stroke="#63b8ff" points="322.8,-136.31 331.33,-130.03 320.74,-129.62 322.8,-136.31"/>
</a>
</g>
</g>
<!-- Node2&#45;&gt;Node10 -->
<g id="edge14_Node000002_Node000010" class="edge">
<title>Node2&#45;&gt;Node10</title>
<g id="a_edge14_Node000002_Node000010"><a xlink:title=" ">
<path fill="none" stroke="#63b8ff" d="M212.11,-177.84C228.24,-160.32 264.85,-123.18 303,-102.5 307.03,-100.31 311.35,-98.35 315.77,-96.59"/>
<polygon fill="#63b8ff" stroke="#63b8ff" points="317.31,-99.76 325.53,-93.07 314.93,-93.17 317.31,-99.76"/>
</a>
</g>
</g>
<!-- Node2&#45;&gt;Node11 -->
<g id="edge16_Node000002_Node000011" class="edge">
<title>Node2&#45;&gt;Node11</title>
<g id="a_edge16_Node000002_Node000011"><a xlink:title=" ">
<path fill="none" stroke="#63b8ff" d="M208.59,-177.93C221.3,-154.93 256.79,-96.21 303,-65.5 306.1,-63.44 309.43,-61.6 312.88,-59.95"/>
<polygon fill="#63b8ff" stroke="#63b8ff" points="314.35,-63.13 322.23,-56.04 311.65,-56.67 314.35,-63.13"/>
</a>
</g>
</g>
<!-- Node2&#45;&gt;Node12 -->
<g id="edge18_Node000002_Node000012" class="edge">
<title>Node2&#45;&gt;Node12</title>
<g id="a_edge18_Node000002_Node000012"><a xlink:title=" ">
<path fill="none" stroke="#63b8ff" d="M206.71,-177.95C216.47,-150.35 248.52,-69.83 303,-28.5 305.48,-26.62 308.14,-24.93 310.92,-23.4"/>
<polygon fill="#63b8ff" stroke="#63b8ff" points="312.56,-26.5 320.11,-19.07 309.57,-20.16 312.56,-26.5"/>
</a>
</g>
</g>
<!-- Node4 -->
<g id="Node000004" class="node">
<title>Node4</title>
<g id="a_Node000004"><a xlink:href="../../dc/de4/classlci_1_1alltoall__x.html#a631f159f788f1b9da3ae723171937a82" target="_top" xlink:title=" ">
<polygon fill="white" stroke="#666666" points="600,-173 470,-173 470,-154 600,-154 600,-173"/>
<text text-anchor="middle" x="535" y="-161" font-family="Helvetica,sans-Serif" font-size="10.00">lci::alltoall_x::alltoall_x</text>
</a>
</g>
</g>
<!-- Node3&#45;&gt;Node4 -->
<g id="edge3_Node000003_Node000004" class="edge">
<title>Node3&#45;&gt;Node4</title>
<g id="a_edge3_Node000003_Node000004"><a xlink:title=" ">
<path fill="none" stroke="#63b8ff" d="M416.42,-319.88C422.66,-317.43 428.72,-314.35 434,-310.5 480.61,-276.52 512.46,-213.82 526.26,-182.43"/>
<polygon fill="#63b8ff" stroke="#63b8ff" points="529.55,-183.65 530.24,-173.08 523.11,-180.91 529.55,-183.65"/>
</a>
</g>
</g>
<!-- Node5&#45;&gt;Node4 -->
<g id="edge5_Node000005_Node000004" class="edge">
<title>Node5&#45;&gt;Node4</title>
<g id="a_edge5_Node000005_Node000004"><a xlink:title=" ">
<path fill="none" stroke="#63b8ff" d="M417.12,-271.44C422.99,-268.82 428.76,-265.84 434,-262.5 469.47,-239.85 502.48,-202.85 520.29,-181.08"/>
<polygon fill="#63b8ff" stroke="#63b8ff" points="523.22,-183.01 526.75,-173.02 517.76,-178.63 523.22,-183.01"/>
</a>
</g>
</g>
<!-- Node6&#45;&gt;Node4 -->
<g id="edge7_Node000006_Node000004" class="edge">
<title>Node6&#45;&gt;Node4</title>
<g id="a_edge7_Node000006_Node000004"><a xlink:title=" ">
<path fill="none" stroke="#63b8ff" d="M410.37,-233.98C418.35,-231.6 426.55,-228.77 434,-225.5 462.87,-212.83 493.28,-192.9 512.88,-179.07"/>
<polygon fill="#63b8ff" stroke="#63b8ff" points="514.99,-181.86 521.08,-173.19 510.91,-176.17 514.99,-181.86"/>
</a>
</g>
</g>
<!-- Node7&#45;&gt;Node4 -->
<g id="edge9_Node000007_Node000004" class="edge">
<title>Node7&#45;&gt;Node4</title>
<g id="a_edge9_Node000007_Node000004"><a xlink:title=" ">
<path fill="none" stroke="#63b8ff" d="M406.01,-196.96C430.07,-190.67 461.8,-182.37 487.64,-175.62"/>
<polygon fill="#63b8ff" stroke="#63b8ff" points="488.8,-178.93 497.59,-173.02 487.03,-172.16 488.8,-178.93"/>
</a>
</g>
</g>
<!-- Node8&#45;&gt;Node4 -->
<g id="edge11_Node000008_Node000004" class="edge">
<title>Node8&#45;&gt;Node4</title>
<g id="a_edge11_Node000008_Node000004"><a xlink:title=" ">
<path fill="none" stroke="#63b8ff" d="M434.04,-163.5C442.52,-163.5 451.26,-163.5 459.87,-163.5"/>
<polygon fill="#63b8ff" stroke="#63b8ff" points="459.91,-167 469.91,-163.5 459.91,-160 459.91,-167"/>
</a>
</g>
</g>
<!-- Node9&#45;&gt;Node4 -->
<g id="edge13_Node000009_Node000004" class="edge">
<title>Node9&#45;&gt;Node4</title>
<g id="a_edge13_Node000009_Node000004"><a xlink:title=" ">
<path fill="none" stroke="#63b8ff" d="M406.01,-130.04C430.07,-136.33 461.8,-144.63 487.64,-151.38"/>
<polygon fill="#63b8ff" stroke="#63b8ff" points="487.03,-154.84 497.59,-153.98 488.8,-148.07 487.03,-154.84"/>
</a>
</g>
</g>
<!-- Node10&#45;&gt;Node4 -->
<g id="edge15_Node000010_Node000004" class="edge">
<title>Node10&#45;&gt;Node4</title>
<g id="a_edge15_Node000010_Node000004"><a xlink:title=" ">
<path fill="none" stroke="#63b8ff" d="M407.95,-93.04C416.67,-95.69 425.78,-98.86 434,-102.5 462.54,-115.15 492.8,-134.56 512.47,-148.07"/>
<polygon fill="#63b8ff" stroke="#63b8ff" points="510.51,-150.97 520.71,-153.82 514.51,-145.23 510.51,-150.97"/>
</a>
</g>
</g>
<!-- Node11&#45;&gt;Node4 -->
<g id="edge17_Node000011_Node000004" class="edge">
<title>Node11&#45;&gt;Node4</title>
<g id="a_edge17_Node000011_Node000004"><a xlink:title=" ">
<path fill="none" stroke="#63b8ff" d="M412.71,-56.03C420.08,-58.54 427.46,-61.66 434,-65.5 470.11,-86.7 502.9,-123.74 520.49,-145.71"/>
<polygon fill="#63b8ff" stroke="#63b8ff" points="517.95,-148.13 526.87,-153.85 523.46,-143.82 517.95,-148.13"/>
</a>
</g>
</g>
<!-- Node12&#45;&gt;Node4 -->
<g id="edge19_Node000012_Node000004" class="edge">
<title>Node12&#45;&gt;Node4</title>
<g id="a_edge19_Node000012_Node000004"><a xlink:title=" ">
<path fill="none" stroke="#63b8ff" d="M415.61,-19.06C422.1,-21.53 428.45,-24.62 434,-28.5 477.84,-59.13 510.19,-115.15 525.01,-144.47"/>
<polygon fill="#63b8ff" stroke="#63b8ff" points="521.96,-146.2 529.51,-153.64 528.25,-143.12 521.96,-146.2"/>
</a>
</g>
</g>
</g>
</svg>
