<?xml version="1.0" encoding="UTF-8" standalone="no"?>
<!DOCTYPE svg PUBLIC "-//W3C//DTD SVG 1.1//EN"
 "http://www.w3.org/Graphics/SVG/1.1/DTD/svg11.dtd">
<!-- Generated by graphviz version 2.43.0 (0)
 -->
<!-- Title: lci::reduce_scatter_x Pages: 1 -->
<svg width="920pt" height="316pt"
 viewBox="0.00 0.00 920.00 315.50" xmlns="http://www.w3.org/2000/svg" xmlns:xlink="http://www.w3.org/1999/xlink">
<g id="graph0" class="graph" transform="scale(1 1) rotate(0) translate(4 311.5)">
<title>lci::reduce_scatter_x</title>
<!-- Node1 -->
<g id="Node000001" class="node">
<title>Node1</title>
<g id="a_Node000001"><a xlink:title="The actual implementation for reduce_scatter.">
<polygon fill="#999999" stroke="#666666" points="912,-158 795,-158 795,-139 912,-139 912,-158"/>
<text text-anchor="middle" x="853.5" y="-146" font-family="Helvetica,sans-Serif" font-size="10.00">lci::reduce_scatter_x</text>
</a>
</g>
</g>
<!-- Node2 -->
<g id="Node000002" class="node">
<title>Node2</title>
<g id="a_Node000002"><a xlink:href="../../db/d20/structlci_1_1option__t.html" target="_top" xlink:title=" ">
<polygon fill="white" stroke="#666666" points="640,-307.5 544,-307.5 544,-277.5 640,-277.5 640,-307.5"/>
<text text-anchor="start" x="552" y="-295.5" font-family="Helvetica,sans-Serif" font-size="10.00">lci::option_t&lt; lci</text>
<text text-anchor="middle" x="592" y="-284.5" font-family="Helvetica,sans-Serif" font-size="10.00">::runtime_t &gt;</text>
</a>
</g>
</g>
<!-- Node2&#45;&gt;Node1 -->
<g id="edge1_Node000001_Node000002" class="edge">
<title>Node2&#45;&gt;Node1</title>
<g id="a_edge1_Node000001_Node000002"><a xlink:title=" ">
<path fill="none" stroke="#9a32cd" stroke-dasharray="5,2" d="M650.17,-286.75C688.57,-280.72 738.92,-268.44 777,-243.5 811.37,-220.99 837.18,-177.65 847.54,-158.28"/>
<polygon fill="#9a32cd" stroke="#9a32cd" points="649.56,-283.31 640.18,-288.23 650.58,-290.23 649.56,-283.31"/>
</a>
</g>
<text text-anchor="middle" x="725.5" y="-284.5" font-family="Helvetica,sans-Serif" font-size="10.00" fill="grey"> m_runtime</text>
</g>
<!-- Node3 -->
<g id="Node000003" class="node">
<title>Node3</title>
<g id="a_Node000003"><a xlink:href="../../dc/d5c/classlci_1_1runtime__t.html" target="_top" xlink:title="The actual implementation for RESOURCE runtime.">
<polygon fill="white" stroke="#666666" points="423,-302 342,-302 342,-283 423,-283 423,-302"/>
<text text-anchor="middle" x="382.5" y="-290" font-family="Helvetica,sans-Serif" font-size="10.00">lci::runtime_t</text>
</a>
</g>
</g>
<!-- Node3&#45;&gt;Node2 -->
<g id="edge2_Node000002_Node000003" class="edge">
<title>Node3&#45;&gt;Node2</title>
<g id="a_edge2_Node000002_Node000003"><a xlink:title=" ">
<path fill="none" stroke="#9a32cd" stroke-dasharray="5,2" d="M433.06,-292.5C466.57,-292.5 510.58,-292.5 543.63,-292.5"/>
<polygon fill="#9a32cd" stroke="#9a32cd" points="433.02,-289 423.02,-292.5 433.02,-296 433.02,-289"/>
</a>
</g>
<text text-anchor="middle" x="487" y="-295.5" font-family="Helvetica,sans-Serif" font-size="10.00" fill="grey"> m_value</text>
</g>
<!-- Node4 -->
<g id="Node000004" class="node">
<title>Node4</title>
<g id="a_Node000004"><a xlink:href="../../db/d20/structlci_1_1option__t.html" target="_top" xlink:title=" ">
<polygon fill="white" stroke="#666666" points="640,-259.5 544,-259.5 544,-229.5 640,-229.5 640,-259.5"/>
<text text-anchor="start" x="552" y="-247.5" font-family="Helvetica,sans-Serif" font-size="10.00">lci::option_t&lt; lci</text>
<text text-anchor="middle" x="592" y="-236.5" font-family="Helvetica,sans-Serif" font-size="10.00">::device_t &gt;</text>
</a>
</g>
</g>
<!-- Node4&#45;&gt;Node1 -->
<g id="edge3_Node000001_Node000004" class="edge">
<title>Node4&#45;&gt;Node1</title>
<g id="a_edge3_Node000001_Node000004"><a xlink:title=" ">
<path fill="none" stroke="#9a32cd" stroke-dasharray="5,2" d="M650.22,-234.36C687.33,-226.64 736.19,-214.27 777,-196.5 800.78,-186.14 825.66,-168.87 840.09,-158.12"/>
<polygon fill="#9a32cd" stroke="#9a32cd" points="649.19,-231 640.08,-236.42 650.58,-237.86 649.19,-231"/>
</a>
</g>
<text text-anchor="middle" x="725.5" y="-231.5" font-family="Helvetica,sans-Serif" font-size="10.00" fill="grey"> m_device</text>
</g>
<!-- Node5 -->
<g id="Node000005" class="node">
<title>Node5</title>
<g id="a_Node000005"><a xlink:href="../../d6/d66/classlci_1_1device__t.html" target="_top" xlink:title="The actual implementation for RESOURCE device.">
<polygon fill="white" stroke="#666666" points="420,-254 345,-254 345,-235 420,-235 420,-254"/>
<text text-anchor="middle" x="382.5" y="-242" font-family="Helvetica,sans-Serif" font-size="10.00">lci::device_t</text>
</a>
</g>
</g>
<!-- Node5&#45;&gt;Node4 -->
<g id="edge4_Node000004_Node000005" class="edge">
<title>Node5&#45;&gt;Node4</title>
<g id="a_edge4_Node000004_Node000005"><a xlink:title=" ">
<path fill="none" stroke="#9a32cd" stroke-dasharray="5,2" d="M430.24,-244.5C464.13,-244.5 509.81,-244.5 543.81,-244.5"/>
<polygon fill="#9a32cd" stroke="#9a32cd" points="430.12,-241 420.12,-244.5 430.12,-248 430.12,-241"/>
</a>
</g>
<text text-anchor="middle" x="487" y="-247.5" font-family="Helvetica,sans-Serif" font-size="10.00" fill="grey"> m_value</text>
</g>
<!-- Node6 -->
<g id="Node000006" class="node">
<title>Node6</title>
<g id="a_Node000006"><a xlink:href="../../db/d20/structlci_1_1option__t.html" target="_top" xlink:title=" ">
<polygon fill="white" stroke="#666666" points="640,-211.5 544,-211.5 544,-181.5 640,-181.5 640,-211.5"/>
<text text-anchor="start" x="552" y="-199.5" font-family="Helvetica,sans-Serif" font-size="10.00">lci::option_t&lt; lci</text>
<text text-anchor="middle" x="592" y="-188.5" font-family="Helvetica,sans-Serif" font-size="10.00">::endpoint_t &gt;</text>
</a>
</g>
</g>
<!-- Node6&#45;&gt;Node1 -->
<g id="edge5_Node000001_Node000006" class="edge">
<title>Node6&#45;&gt;Node1</title>
<g id="a_edge5_Node000001_Node000006"><a xlink:title=" ">
<path fill="none" stroke="#9a32cd" stroke-dasharray="5,2" d="M650.24,-186.52C686.58,-180.11 734.59,-171.52 777,-163.5 786.06,-161.79 795.72,-159.91 805,-158.08"/>
<polygon fill="#9a32cd" stroke="#9a32cd" points="649.56,-183.08 640.32,-188.26 650.77,-189.98 649.56,-183.08"/>
</a>
</g>
<text text-anchor="middle" x="725.5" y="-184.5" font-family="Helvetica,sans-Serif" font-size="10.00" fill="grey"> m_endpoint</text>
</g>
<!-- Node7 -->
<g id="Node000007" class="node">
<title>Node7</title>
<g id="a_Node000007"><a xlink:href="../../de/d1b/classlci_1_1endpoint__t.html" target="_top" xlink:title="The actual implementation for RESOURCE endpoint.">
<polygon fill="white" stroke="#666666" points="425.5,-206 339.5,-206 339.5,-187 425.5,-187 425.5,-206"/>
<text text-anchor="middle" x="382.5" y="-194" font-family="Helvetica,sans-Serif" font-size="10.00">lci::endpoint_t</text>
</a>
</g>
</g>
<!-- Node7&#45;&gt;Node6 -->
<g id="edge6_Node000006_Node000007" class="edge">
<title>Node7&#45;&gt;Node6</title>
<g id="a_edge6_Node000006_Node000007"><a xlink:title=" ">
<path fill="none" stroke="#9a32cd" stroke-dasharray="5,2" d="M436.15,-196.5C469.29,-196.5 511.69,-196.5 543.75,-196.5"/>
<polygon fill="#9a32cd" stroke="#9a32cd" points="435.74,-193 425.74,-196.5 435.74,-200 435.74,-193"/>
</a>
</g>
<text text-anchor="middle" x="487" y="-199.5" font-family="Helvetica,sans-Serif" font-size="10.00" fill="grey"> m_value</text>
</g>
<!-- Node8 -->
<g id="Node000008" class="node">
<title>Node8</title>
<g id="a_Node000008"><a xlink:href="../../db/d20/structlci_1_1option__t.html" target="_top" xlink:title=" ">
<polygon fill="white" stroke="#666666" points="655.5,-163.5 528.5,-163.5 528.5,-133.5 655.5,-133.5 655.5,-163.5"/>
<text text-anchor="start" x="536.5" y="-151.5" font-family="Helvetica,sans-Serif" font-size="10.00">lci::option_t&lt; lci</text>
<text text-anchor="middle" x="592" y="-140.5" font-family="Helvetica,sans-Serif" font-size="10.00">::matching_engine_t &gt;</text>
</a>
</g>
</g>
<!-- Node8&#45;&gt;Node1 -->
<g id="edge7_Node000001_Node000008" class="edge">
<title>Node8&#45;&gt;Node1</title>
<g id="a_edge7_Node000001_Node000008"><a xlink:title=" ">
<path fill="none" stroke="#9a32cd" stroke-dasharray="5,2" d="M665.96,-148.5C706.68,-148.5 756.71,-148.5 794.7,-148.5"/>
<polygon fill="#9a32cd" stroke="#9a32cd" points="665.82,-145 655.82,-148.5 665.82,-152 665.82,-145"/>
</a>
</g>
<text text-anchor="middle" x="725.5" y="-151.5" font-family="Helvetica,sans-Serif" font-size="10.00" fill="grey"> m_matching_engine</text>
</g>
<!-- Node9 -->
<g id="Node000009" class="node">
<title>Node9</title>
<g id="a_Node000009"><a xlink:href="../../d8/d3f/classlci_1_1matching__engine__t.html" target="_top" xlink:title="The actual implementation for RESOURCE matching_engine.">
<polygon fill="white" stroke="#666666" points="446,-158 319,-158 319,-139 446,-139 446,-158"/>
<text text-anchor="middle" x="382.5" y="-146" font-family="Helvetica,sans-Serif" font-size="10.00">lci::matching_engine_t</text>
</a>
</g>
</g>
<!-- Node9&#45;&gt;Node8 -->
<g id="edge8_Node000008_Node000009" class="edge">
<title>Node9&#45;&gt;Node8</title>
<g id="a_edge8_Node000008_Node000009"><a xlink:title=" ">
<path fill="none" stroke="#9a32cd" stroke-dasharray="5,2" d="M456.29,-148.5C479.75,-148.5 505.55,-148.5 528.23,-148.5"/>
<polygon fill="#9a32cd" stroke="#9a32cd" points="456.04,-145 446.04,-148.5 456.04,-152 456.04,-145"/>
</a>
</g>
<text text-anchor="middle" x="487" y="-151.5" font-family="Helvetica,sans-Serif" font-size="10.00" fill="grey"> m_value</text>
</g>
<!-- Node10 -->
<g id="Node000010" class="node">
<title>Node10</title>
<g id="a_Node000010"><a xlink:href="../../db/d20/structlci_1_1option__t.html" target="_top" xlink:title=" ">
<polygon fill="white" stroke="#666666" points="640,-115.5 544,-115.5 544,-85.5 640,-85.5 640,-115.5"/>
<text text-anchor="start" x="552" y="-103.5" font-family="Helvetica,sans-Serif" font-size="10.00">lci::option_t&lt; lci</text>
<text text-anchor="middle" x="592" y="-92.5" font-family="Helvetica,sans-Serif" font-size="10.00">::comp_t &gt;</text>
</a>
</g>
</g>
<!-- Node10&#45;&gt;Node1 -->
<g id="edge9_Node000001_Node000010" class="edge">
<title>Node10&#45;&gt;Node1</title>
<g id="a_edge9_Node000001_Node000010"><a xlink:title=" ">
<path fill="none" stroke="#9a32cd" stroke-dasharray="5,2" d="M650.24,-110.48C686.58,-116.89 734.59,-125.48 777,-133.5 786.06,-135.21 795.72,-137.09 805,-138.92"/>
<polygon fill="#9a32cd" stroke="#9a32cd" points="650.77,-107.02 640.32,-108.74 649.56,-113.92 650.77,-107.02"/>
</a>
</g>
<text text-anchor="middle" x="725.5" y="-136.5" font-family="Helvetica,sans-Serif" font-size="10.00" fill="grey"> m_comp</text>
</g>
<!-- Node11 -->
<g id="Node000011" class="node">
<title>Node11</title>
<g id="a_Node000011"><a xlink:href="../../d1/da7/classlci_1_1comp__t.html" target="_top" xlink:title="The actual implementation for RESOURCE comp.">
<polygon fill="white" stroke="#666666" points="417.5,-110 347.5,-110 347.5,-91 417.5,-91 417.5,-110"/>
<text text-anchor="middle" x="382.5" y="-98" font-family="Helvetica,sans-Serif" font-size="10.00">lci::comp_t</text>
</a>
</g>
</g>
<!-- Node11&#45;&gt;Node10 -->
<g id="edge10_Node000010_Node000011" class="edge">
<title>Node11&#45;&gt;Node10</title>
<g id="a_edge10_Node000010_Node000011"><a xlink:title=" ">
<path fill="none" stroke="#9a32cd" stroke-dasharray="5,2" d="M427.91,-100.5C462.04,-100.5 509.08,-100.5 543.87,-100.5"/>
<polygon fill="#9a32cd" stroke="#9a32cd" points="427.76,-97 417.76,-100.5 427.76,-104 427.76,-97"/>
</a>
</g>
<text text-anchor="middle" x="487" y="-103.5" font-family="Helvetica,sans-Serif" font-size="10.00" fill="grey"> m_value</text>
</g>
<!-- Node12 -->
<g id="Node000012" class="node">
<title>Node12</title>
<g id="a_Node000012"><a xlink:href="../../d9/d97/classlci_1_1comp__impl__t.html" target="_top" xlink:title="Completion object implementation base type.">
<polygon fill="white" stroke="#666666" points="246,-110 149,-110 149,-91 246,-91 246,-110"/>
<text text-anchor="middle" x="197.5" y="-98" font-family="Helvetica,sans-Serif" font-size="10.00">lci::comp_impl_t</text>
</a>
</g>
</g>
<!-- Node12&#45;&gt;Node11 -->
<g id="edge11_Node000011_Node000012" class="edge">
<title>Node12&#45;&gt;Node11</title>
<g id="a_edge11_Node000011_Node000012"><a xlink:title=" ">
<path fill="none" stroke="#9a32cd" stroke-dasharray="5,2" d="M256.44,-100.5C286.39,-100.5 321.91,-100.5 347.42,-100.5"/>
<polygon fill="#9a32cd" stroke="#9a32cd" points="256.1,-97 246.1,-100.5 256.1,-104 256.1,-97"/>
</a>
</g>
<text text-anchor="middle" x="282.5" y="-103.5" font-family="Helvetica,sans-Serif" font-size="10.00" fill="grey"> p_impl</text>
</g>
<!-- Node13 -->
<g id="Node000013" class="node">
<title>Node13</title>
<g id="a_Node000013"><a xlink:href="../../dc/da6/structlci_1_1comp__attr__t.html" target="_top" xlink:title=" ">
<polygon fill="white" stroke="#666666" points="92,-110 0,-110 0,-91 92,-91 92,-110"/>
<text text-anchor="middle" x="46" y="-98" font-family="Helvetica,sans-Serif" font-size="10.00">lci::comp_attr_t</text>
</a>
</g>
</g>
<!-- Node13&#45;&gt;Node12 -->
<g id="edge12_Node000012_Node000013" class="edge">
<title>Node13&#45;&gt;Node12</title>
<g id="a_edge12_Node000012_Node000013"><a xlink:title=" ">
<path fill="none" stroke="#9a32cd" stroke-dasharray="5,2" d="M102.56,-100.5C117.76,-100.5 134.09,-100.5 148.8,-100.5"/>
<polygon fill="#9a32cd" stroke="#9a32cd" points="102.26,-97 92.26,-100.5 102.26,-104 102.26,-97"/>
</a>
</g>
<text text-anchor="middle" x="120.5" y="-103.5" font-family="Helvetica,sans-Serif" font-size="10.00" fill="grey"> attr</text>
</g>
<!-- Node14 -->
<g id="Node000014" class="node">
<title>Node14</title>
<g id="a_Node000014"><a xlink:href="../../db/d20/structlci_1_1option__t.html" target="_top" xlink:title=" ">
<polygon fill="white" stroke="#666666" points="656,-67.5 528,-67.5 528,-37.5 656,-37.5 656,-67.5"/>
<text text-anchor="start" x="536" y="-55.5" font-family="Helvetica,sans-Serif" font-size="10.00">lci::option_t&lt; reduce</text>
<text text-anchor="middle" x="592" y="-44.5" font-family="Helvetica,sans-Serif" font-size="10.00">_scatter_algorithm_t &gt;</text>
</a>
</g>
</g>
<!-- Node14&#45;&gt;Node1 -->
<g id="edge13_Node000001_Node000014" class="edge">
<title>Node14&#45;&gt;Node1</title>
<g id="a_edge13_Node000001_Node000014"><a xlink:title=" ">
<path fill="none" stroke="#9a32cd" stroke-dasharray="5,2" d="M666.02,-65.43C700.55,-72.97 741.82,-84.09 777,-99.5 801.05,-110.03 826.05,-127.84 840.39,-138.84"/>
<polygon fill="#9a32cd" stroke="#9a32cd" points="666.52,-61.96 656.01,-63.3 665.06,-68.8 666.52,-61.96"/>
</a>
</g>
<text text-anchor="middle" x="725.5" y="-102.5" font-family="Helvetica,sans-Serif" font-size="10.00" fill="grey"> m_algorithm</text>
</g>
<!-- Node15 -->
<g id="Node000015" class="node">
<title>Node15</title>
<g id="a_Node000015"><a xlink:href="../../db/d20/structlci_1_1option__t.html" target="_top" xlink:title=" ">
<polygon fill="white" stroke="#666666" points="646.5,-19 537.5,-19 537.5,0 646.5,0 646.5,-19"/>
<text text-anchor="middle" x="592" y="-7" font-family="Helvetica,sans-Serif" font-size="10.00">lci::option_t&lt; int &gt;</text>
</a>
</g>
</g>
<!-- Node15&#45;&gt;Node1 -->
<g id="edge14_Node000001_Node000015" class="edge">
<title>Node15&#45;&gt;Node1</title>
<g id="a_edge14_Node000001_Node000015"><a xlink:title=" ">
<path fill="none" stroke="#9a32cd" stroke-dasharray="5,2" d="M656.91,-13.41C694.33,-18.18 741.12,-28.66 777,-51.5 812.28,-73.96 837.8,-118.89 847.82,-138.71"/>
<polygon fill="#9a32cd" stroke="#9a32cd" points="656.96,-9.89 646.62,-12.2 656.14,-16.84 656.96,-9.89"/>
</a>
</g>
<text text-anchor="middle" x="725.5" y="-54.5" font-family="Helvetica,sans-Serif" font-size="10.00" fill="grey"> m_ring_nsteps</text>
</g>
</g>
</svg>
