<?xml version="1.0" encoding="UTF-8" standalone="no"?>
<!DOCTYPE svg PUBLIC "-//W3C//DTD SVG 1.1//EN"
 "http://www.w3.org/Graphics/SVG/1.1/DTD/svg11.dtd">
<!-- Generated by graphviz version 2.43.0 (0)
 -->
<!-- Title: lci::alloc_net_context_x::call_impl Pages: 1 -->
<svg width="471pt" height="482pt"
 viewBox="0.00 0.00 471.00 482.00" xmlns="http://www.w3.org/2000/svg" xmlns:xlink="http://www.w3.org/1999/xlink">
<g id="graph0" class="graph" transform="scale(1 1) rotate(0) translate(4 478)">
<title>lci::alloc_net_context_x::call_impl</title>
<!-- Node1 -->
<g id="Node000001" class="node">
<title>Node1</title>
<g id="a_Node000001"><a xlink:title=" ">
<polygon fill="#999999" stroke="#666666" points="120,-246 0,-246 0,-216 120,-216 120,-246"/>
<text text-anchor="start" x="8" y="-234" font-family="Helvetica,sans-Serif" font-size="10.00">lci::alloc_net_context</text>
<text text-anchor="middle" x="60" y="-223" font-family="Helvetica,sans-Serif" font-size="10.00">_x::call_impl</text>
</a>
</g>
</g>
<!-- Node2 -->
<g id="Node000002" class="node">
<title>Node2</title>
<g id="a_Node000002"><a xlink:href="../../d9/d2c/classlci_1_1alloc__net__context__x.html#a924ac87bf6d7c2eb6b52768734dee344" target="_top" xlink:title=" ">
<polygon fill="white" stroke="#666666" points="286,-474 166,-474 166,-444 286,-444 286,-474"/>
<text text-anchor="start" x="174" y="-462" font-family="Helvetica,sans-Serif" font-size="10.00">lci::alloc_net_context</text>
<text text-anchor="middle" x="226" y="-451" font-family="Helvetica,sans-Serif" font-size="10.00">_x::backend</text>
</a>
</g>
</g>
<!-- Node1&#45;&gt;Node2 -->
<g id="edge1_Node000001_Node000002" class="edge">
<title>Node1&#45;&gt;Node2</title>
<g id="a_edge1_Node000001_Node000002"><a xlink:title=" ">
<path fill="none" stroke="#63b8ff" d="M63.85,-246.22C71.65,-283.75 96.87,-381.56 156,-435 157.29,-436.17 158.65,-437.28 160.05,-438.34"/>
<polygon fill="#63b8ff" stroke="#63b8ff" points="158.27,-441.36 168.57,-443.84 162.06,-435.47 158.27,-441.36"/>
</a>
</g>
</g>
<!-- Node4 -->
<g id="Node000004" class="node">
<title>Node4</title>
<g id="a_Node000004"><a xlink:href="../../d9/d2c/classlci_1_1alloc__net__context__x.html#a9fe41e79d8eb835bbe41fc713b0971cf" target="_top" xlink:title=" ">
<polygon fill="white" stroke="#666666" points="289,-425.5 163,-425.5 163,-384.5 289,-384.5 289,-425.5"/>
<text text-anchor="start" x="171" y="-413.5" font-family="Helvetica,sans-Serif" font-size="10.00">lci::alloc_net_context</text>
<text text-anchor="start" x="171" y="-402.5" font-family="Helvetica,sans-Serif" font-size="10.00">_x::ibv_force_gid_auto</text>
<text text-anchor="middle" x="226" y="-391.5" font-family="Helvetica,sans-Serif" font-size="10.00">_select</text>
</a>
</g>
</g>
<!-- Node1&#45;&gt;Node4 -->
<g id="edge3_Node000001_Node000004" class="edge">
<title>Node1&#45;&gt;Node4</title>
<g id="a_edge3_Node000001_Node000004"><a xlink:title=" ">
<path fill="none" stroke="#63b8ff" d="M67.39,-246.11C80.22,-274.85 111.75,-337.81 156,-375 157.54,-376.29 159.14,-377.54 160.79,-378.74"/>
<polygon fill="#63b8ff" stroke="#63b8ff" points="159.13,-381.83 169.42,-384.35 162.95,-375.96 159.13,-381.83"/>
</a>
</g>
</g>
<!-- Node5 -->
<g id="Node000005" class="node">
<title>Node5</title>
<g id="a_Node000005"><a xlink:href="../../d9/d2c/classlci_1_1alloc__net__context__x.html#a41c846e3f23a79c2ed6832493cfbdf32" target="_top" xlink:title=" ">
<polygon fill="white" stroke="#666666" points="286,-366 166,-366 166,-336 286,-336 286,-366"/>
<text text-anchor="start" x="174" y="-354" font-family="Helvetica,sans-Serif" font-size="10.00">lci::alloc_net_context</text>
<text text-anchor="middle" x="226" y="-343" font-family="Helvetica,sans-Serif" font-size="10.00">_x::ibv_gid_idx</text>
</a>
</g>
</g>
<!-- Node1&#45;&gt;Node5 -->
<g id="edge5_Node000001_Node000005" class="edge">
<title>Node1&#45;&gt;Node5</title>
<g id="a_edge5_Node000001_Node000005"><a xlink:title=" ">
<path fill="none" stroke="#63b8ff" d="M72.25,-246.1C88.56,-267.02 120.7,-304.73 156,-327 158.6,-328.64 161.32,-330.18 164.13,-331.63"/>
<polygon fill="#63b8ff" stroke="#63b8ff" points="162.75,-334.86 173.29,-335.96 165.74,-328.53 162.75,-334.86"/>
</a>
</g>
</g>
<!-- Node6 -->
<g id="Node000006" class="node">
<title>Node6</title>
<g id="a_Node000006"><a xlink:href="../../d9/d2c/classlci_1_1alloc__net__context__x.html#aaad66599526eca49a9ee0dada3f8e35c" target="_top" xlink:title=" ">
<polygon fill="white" stroke="#666666" points="286,-318 166,-318 166,-288 286,-288 286,-318"/>
<text text-anchor="start" x="174" y="-306" font-family="Helvetica,sans-Serif" font-size="10.00">lci::alloc_net_context</text>
<text text-anchor="middle" x="226" y="-295" font-family="Helvetica,sans-Serif" font-size="10.00">_x::ibv_odp_strategy</text>
</a>
</g>
</g>
<!-- Node1&#45;&gt;Node6 -->
<g id="edge7_Node000001_Node000006" class="edge">
<title>Node1&#45;&gt;Node6</title>
<g id="a_edge7_Node000001_Node000006"><a xlink:title=" ">
<path fill="none" stroke="#63b8ff" d="M88.39,-246.06C107.13,-256.06 132.7,-269.11 156,-279 160.37,-280.85 164.93,-282.68 169.54,-284.44"/>
<polygon fill="#63b8ff" stroke="#63b8ff" points="168.43,-287.76 179.02,-287.97 170.87,-281.2 168.43,-287.76"/>
</a>
</g>
</g>
<!-- Node7 -->
<g id="Node000007" class="node">
<title>Node7</title>
<g id="a_Node000007"><a xlink:href="../../d9/d2c/classlci_1_1alloc__net__context__x.html#a2c1d71a830f38024cb6193d55e088fb8" target="_top" xlink:title=" ">
<polygon fill="white" stroke="#666666" points="296,-270 156,-270 156,-240 296,-240 296,-270"/>
<text text-anchor="start" x="164" y="-258" font-family="Helvetica,sans-Serif" font-size="10.00">lci::alloc_net_context</text>
<text text-anchor="middle" x="226" y="-247" font-family="Helvetica,sans-Serif" font-size="10.00">_x::ibv_prefetch_strategy</text>
</a>
</g>
</g>
<!-- Node1&#45;&gt;Node7 -->
<g id="edge9_Node000001_Node000007" class="edge">
<title>Node1&#45;&gt;Node7</title>
<g id="a_edge9_Node000001_Node000007"><a xlink:title=" ">
<path fill="none" stroke="#63b8ff" d="M120.21,-239.66C128.52,-240.88 137.17,-242.15 145.77,-243.41"/>
<polygon fill="#63b8ff" stroke="#63b8ff" points="145.43,-246.89 155.84,-244.88 146.45,-239.97 145.43,-246.89"/>
</a>
</g>
</g>
<!-- Node8 -->
<g id="Node000008" class="node">
<title>Node8</title>
<g id="a_Node000008"><a xlink:href="../../d9/d2c/classlci_1_1alloc__net__context__x.html#a6654c9eac4872fca14364abd71f579f1" target="_top" xlink:title=" ">
<polygon fill="white" stroke="#666666" points="286,-222 166,-222 166,-192 286,-192 286,-222"/>
<text text-anchor="start" x="174" y="-210" font-family="Helvetica,sans-Serif" font-size="10.00">lci::alloc_net_context</text>
<text text-anchor="middle" x="226" y="-199" font-family="Helvetica,sans-Serif" font-size="10.00">_x::max_inject_size</text>
</a>
</g>
</g>
<!-- Node1&#45;&gt;Node8 -->
<g id="edge11_Node000001_Node000008" class="edge">
<title>Node1&#45;&gt;Node8</title>
<g id="a_edge11_Node000001_Node000008"><a xlink:title=" ">
<path fill="none" stroke="#63b8ff" d="M120.21,-222.34C131.7,-220.65 143.85,-218.88 155.64,-217.15"/>
<polygon fill="#63b8ff" stroke="#63b8ff" points="156.49,-220.56 165.88,-215.65 155.48,-213.64 156.49,-220.56"/>
</a>
</g>
</g>
<!-- Node9 -->
<g id="Node000009" class="node">
<title>Node9</title>
<g id="a_Node000009"><a xlink:href="../../d9/d2c/classlci_1_1alloc__net__context__x.html#ad264e33dba3328ba304b8727d91fea36" target="_top" xlink:title=" ">
<polygon fill="white" stroke="#666666" points="286,-174 166,-174 166,-144 286,-144 286,-174"/>
<text text-anchor="start" x="174" y="-162" font-family="Helvetica,sans-Serif" font-size="10.00">lci::alloc_net_context</text>
<text text-anchor="middle" x="226" y="-151" font-family="Helvetica,sans-Serif" font-size="10.00">_x::max_msg_size</text>
</a>
</g>
</g>
<!-- Node1&#45;&gt;Node9 -->
<g id="edge13_Node000001_Node000009" class="edge">
<title>Node1&#45;&gt;Node9</title>
<g id="a_edge13_Node000001_Node000009"><a xlink:title=" ">
<path fill="none" stroke="#63b8ff" d="M88.39,-215.94C107.13,-205.94 132.7,-192.89 156,-183 160.37,-181.15 164.93,-179.32 169.54,-177.56"/>
<polygon fill="#63b8ff" stroke="#63b8ff" points="170.87,-180.8 179.02,-174.03 168.43,-174.24 170.87,-180.8"/>
</a>
</g>
</g>
<!-- Node10 -->
<g id="Node000010" class="node">
<title>Node10</title>
<g id="a_Node000010"><a xlink:href="../../d9/d2c/classlci_1_1alloc__net__context__x.html#a11c33085d6c48cc3684d45ae1f91b354" target="_top" xlink:title=" ">
<polygon fill="white" stroke="#666666" points="288.5,-126 163.5,-126 163.5,-96 288.5,-96 288.5,-126"/>
<text text-anchor="start" x="171.5" y="-114" font-family="Helvetica,sans-Serif" font-size="10.00">lci::alloc_net_context</text>
<text text-anchor="middle" x="226" y="-103" font-family="Helvetica,sans-Serif" font-size="10.00">_x::ofi_provider_name</text>
</a>
</g>
</g>
<!-- Node1&#45;&gt;Node10 -->
<g id="edge15_Node000001_Node000010" class="edge">
<title>Node1&#45;&gt;Node10</title>
<g id="a_edge15_Node000001_Node000010"><a xlink:title=" ">
<path fill="none" stroke="#63b8ff" d="M72.25,-215.9C88.56,-194.98 120.7,-157.27 156,-135 158.6,-133.36 161.32,-131.82 164.13,-130.37"/>
<polygon fill="#63b8ff" stroke="#63b8ff" points="165.74,-133.47 173.29,-126.04 162.75,-127.14 165.74,-133.47"/>
</a>
</g>
</g>
<!-- Node11 -->
<g id="Node000011" class="node">
<title>Node11</title>
<g id="a_Node000011"><a xlink:href="../../d9/d2c/classlci_1_1alloc__net__context__x.html#a3cc9f4bac3c372009fe44dbd77153c19" target="_top" xlink:title=" ">
<polygon fill="white" stroke="#666666" points="286,-78 166,-78 166,-48 286,-48 286,-78"/>
<text text-anchor="start" x="174" y="-66" font-family="Helvetica,sans-Serif" font-size="10.00">lci::alloc_net_context</text>
<text text-anchor="middle" x="226" y="-55" font-family="Helvetica,sans-Serif" font-size="10.00">_x::runtime</text>
</a>
</g>
</g>
<!-- Node1&#45;&gt;Node11 -->
<g id="edge17_Node000001_Node000011" class="edge">
<title>Node1&#45;&gt;Node11</title>
<g id="a_edge17_Node000001_Node000011"><a xlink:title=" ">
<path fill="none" stroke="#63b8ff" d="M67.14,-215.58C79.55,-186.32 110.38,-122.49 156,-87 157.79,-85.61 159.67,-84.29 161.61,-83.05"/>
<polygon fill="#63b8ff" stroke="#63b8ff" points="163.47,-86.02 170.48,-78.07 160.04,-79.92 163.47,-86.02"/>
</a>
</g>
</g>
<!-- Node12 -->
<g id="Node000012" class="node">
<title>Node12</title>
<g id="a_Node000012"><a xlink:href="../../d9/d2c/classlci_1_1alloc__net__context__x.html#a875d4f78abda2116a3ea1982116165a3" target="_top" xlink:title=" ">
<polygon fill="white" stroke="#666666" points="286,-30 166,-30 166,0 286,0 286,-30"/>
<text text-anchor="start" x="174" y="-18" font-family="Helvetica,sans-Serif" font-size="10.00">lci::alloc_net_context</text>
<text text-anchor="middle" x="226" y="-7" font-family="Helvetica,sans-Serif" font-size="10.00">_x::user_context</text>
</a>
</g>
</g>
<!-- Node1&#45;&gt;Node12 -->
<g id="edge19_Node000001_Node000012" class="edge">
<title>Node1&#45;&gt;Node12</title>
<g id="a_edge19_Node000001_Node000012"><a xlink:title=" ">
<path fill="none" stroke="#63b8ff" d="M64.31,-215.88C72.96,-179.96 99.53,-88.83 156,-39 157.34,-37.82 158.74,-36.69 160.19,-35.62"/>
<polygon fill="#63b8ff" stroke="#63b8ff" points="162.4,-38.37 168.99,-30.07 158.67,-32.45 162.4,-38.37"/>
</a>
</g>
</g>
<!-- Node3 -->
<g id="Node000003" class="node">
<title>Node3</title>
<g id="a_Node000003"><a xlink:href="../../d9/d2c/classlci_1_1alloc__net__context__x.html#a4906e72fa75cb21741c0248836701237" target="_top" xlink:title=" ">
<polygon fill="white" stroke="#666666" points="463,-246 332,-246 332,-216 463,-216 463,-246"/>
<text text-anchor="start" x="340" y="-234" font-family="Helvetica,sans-Serif" font-size="10.00">lci::alloc_net_context</text>
<text text-anchor="middle" x="397.5" y="-223" font-family="Helvetica,sans-Serif" font-size="10.00">_x::alloc_net_context_x</text>
</a>
</g>
</g>
<!-- Node2&#45;&gt;Node3 -->
<g id="edge2_Node000002_Node000003" class="edge">
<title>Node2&#45;&gt;Node3</title>
<g id="a_edge2_Node000002_Node000003"><a xlink:title=" ">
<path fill="none" stroke="#63b8ff" d="M283.01,-443.94C287.69,-441.4 292.1,-438.44 296,-435 351.63,-385.82 379.76,-298.81 390.78,-256.09"/>
<polygon fill="#63b8ff" stroke="#63b8ff" points="394.21,-256.78 393.21,-246.23 387.42,-255.1 394.21,-256.78"/>
</a>
</g>
</g>
<!-- Node4&#45;&gt;Node3 -->
<g id="edge4_Node000004_Node000003" class="edge">
<title>Node4&#45;&gt;Node3</title>
<g id="a_edge4_Node000004_Node000003"><a xlink:title=" ">
<path fill="none" stroke="#63b8ff" d="M282.14,-384.44C287.04,-381.62 291.75,-378.47 296,-375 337.09,-341.38 368.78,-286.86 384.85,-255.44"/>
<polygon fill="#63b8ff" stroke="#63b8ff" points="388.18,-256.61 389.51,-246.1 381.91,-253.48 388.18,-256.61"/>
</a>
</g>
</g>
<!-- Node5&#45;&gt;Node3 -->
<g id="edge6_Node000005_Node000003" class="edge">
<title>Node5&#45;&gt;Node3</title>
<g id="a_edge6_Node000005_Node000003"><a xlink:title=" ">
<path fill="none" stroke="#63b8ff" d="M278.26,-335.97C284.42,-333.36 290.48,-330.37 296,-327 328.5,-307.14 359.12,-275.28 377.84,-253.76"/>
<polygon fill="#63b8ff" stroke="#63b8ff" points="380.57,-255.95 384.4,-246.07 375.25,-251.4 380.57,-255.95"/>
</a>
</g>
</g>
<!-- Node6&#45;&gt;Node3 -->
<g id="edge8_Node000006_Node000003" class="edge">
<title>Node6&#45;&gt;Node3</title>
<g id="a_edge8_Node000006_Node000003"><a xlink:title=" ">
<path fill="none" stroke="#63b8ff" d="M272.55,-287.96C280.43,-285.13 288.49,-282.09 296,-279 316.81,-270.44 339.46,-259.75 357.98,-250.63"/>
<polygon fill="#63b8ff" stroke="#63b8ff" points="359.59,-253.74 366.99,-246.16 356.47,-247.47 359.59,-253.74"/>
</a>
</g>
</g>
<!-- Node7&#45;&gt;Node3 -->
<g id="edge10_Node000007_Node000003" class="edge">
<title>Node7&#45;&gt;Node3</title>
<g id="a_edge10_Node000007_Node000003"><a xlink:title=" ">
<path fill="none" stroke="#63b8ff" d="M296.43,-245.17C304.75,-243.99 313.27,-242.78 321.67,-241.6"/>
<polygon fill="#63b8ff" stroke="#63b8ff" points="322.4,-245.03 331.81,-240.16 321.42,-238.1 322.4,-245.03"/>
</a>
</g>
</g>
<!-- Node8&#45;&gt;Node3 -->
<g id="edge12_Node000008_Node000003" class="edge">
<title>Node8&#45;&gt;Node3</title>
<g id="a_edge12_Node000008_Node000003"><a xlink:title=" ">
<path fill="none" stroke="#63b8ff" d="M286.28,-215.39C297.77,-217.02 309.94,-218.74 321.85,-220.43"/>
<polygon fill="#63b8ff" stroke="#63b8ff" points="321.37,-223.9 331.76,-221.83 322.35,-216.97 321.37,-223.9"/>
</a>
</g>
</g>
<!-- Node9&#45;&gt;Node3 -->
<g id="edge14_Node000009_Node000003" class="edge">
<title>Node9&#45;&gt;Node3</title>
<g id="a_edge14_Node000009_Node000003"><a xlink:title=" ">
<path fill="none" stroke="#63b8ff" d="M272.55,-174.04C280.43,-176.87 288.49,-179.91 296,-183 316.81,-191.56 339.46,-202.25 357.98,-211.37"/>
<polygon fill="#63b8ff" stroke="#63b8ff" points="356.47,-214.53 366.99,-215.84 359.59,-208.26 356.47,-214.53"/>
</a>
</g>
</g>
<!-- Node10&#45;&gt;Node3 -->
<g id="edge16_Node000010_Node000003" class="edge">
<title>Node10&#45;&gt;Node3</title>
<g id="a_edge16_Node000010_Node000003"><a xlink:title=" ">
<path fill="none" stroke="#63b8ff" d="M278.26,-126.03C284.42,-128.64 290.48,-131.63 296,-135 328.5,-154.86 359.12,-186.72 377.84,-208.24"/>
<polygon fill="#63b8ff" stroke="#63b8ff" points="375.25,-210.6 384.4,-215.93 380.57,-206.05 375.25,-210.6"/>
</a>
</g>
</g>
<!-- Node11&#45;&gt;Node3 -->
<g id="edge18_Node000011_Node000003" class="edge">
<title>Node11&#45;&gt;Node3</title>
<g id="a_edge18_Node000011_Node000003"><a xlink:title=" ">
<path fill="none" stroke="#63b8ff" d="M281.08,-78.01C286.37,-80.58 291.45,-83.55 296,-87 338.51,-119.19 369.85,-174.61 385.43,-206.5"/>
<polygon fill="#63b8ff" stroke="#63b8ff" points="382.3,-208.06 389.76,-215.58 388.62,-205.05 382.3,-208.06"/>
</a>
</g>
</g>
<!-- Node12&#45;&gt;Node3 -->
<g id="edge20_Node000012_Node000003" class="edge">
<title>Node12&#45;&gt;Node3</title>
<g id="a_edge20_Node000012_Node000003"><a xlink:title=" ">
<path fill="none" stroke="#63b8ff" d="M282.92,-30.16C287.62,-32.68 292.06,-35.6 296,-39 349.08,-84.77 378.12,-165.6 390.01,-206.22"/>
<polygon fill="#63b8ff" stroke="#63b8ff" points="386.65,-207.19 392.73,-215.87 393.38,-205.29 386.65,-207.19"/>
</a>
</g>
</g>
</g>
</svg>
