<?xml version="1.0" encoding="UTF-8" standalone="no"?>
<!DOCTYPE svg PUBLIC "-//W3C//DTD SVG 1.1//EN"
 "http://www.w3.org/Graphics/SVG/1.1/DTD/svg11.dtd">
<!-- Generated by graphviz version 2.43.0 (0)
 -->
<!-- Title: lci::alloc_net_context_x::call Pages: 1 -->
<svg width="627pt" height="578pt"
 viewBox="0.00 0.00 627.00 578.00" xmlns="http://www.w3.org/2000/svg" xmlns:xlink="http://www.w3.org/1999/xlink">
<g id="graph0" class="graph" transform="scale(1 1) rotate(0) translate(4 574)">
<title>lci::alloc_net_context_x::call</title>
<!-- Node1 -->
<g id="Node000001" class="node">
<title>Node1</title>
<g id="a_Node000001"><a xlink:title=" ">
<polygon fill="#999999" stroke="#666666" points="120,-294 0,-294 0,-264 120,-264 120,-294"/>
<text text-anchor="start" x="8" y="-282" font-family="Helvetica,sans-Serif" font-size="10.00">lci::alloc_net_context</text>
<text text-anchor="middle" x="60" y="-271" font-family="Helvetica,sans-Serif" font-size="10.00">_x::call</text>
</a>
</g>
</g>
<!-- Node2 -->
<g id="Node000002" class="node">
<title>Node2</title>
<g id="a_Node000002"><a xlink:href="../../d9/d2c/classlci_1_1alloc__net__context__x.html#a924ac87bf6d7c2eb6b52768734dee344" target="_top" xlink:title=" ">
<polygon fill="white" stroke="#666666" points="442,-570 322,-570 322,-540 442,-540 442,-570"/>
<text text-anchor="start" x="330" y="-558" font-family="Helvetica,sans-Serif" font-size="10.00">lci::alloc_net_context</text>
<text text-anchor="middle" x="382" y="-547" font-family="Helvetica,sans-Serif" font-size="10.00">_x::backend</text>
</a>
</g>
</g>
<!-- Node1&#45;&gt;Node2 -->
<g id="edge1_Node000001_Node000002" class="edge">
<title>Node1&#45;&gt;Node2</title>
<g id="a_edge1_Node000001_Node000002"><a xlink:title=" ">
<path fill="none" stroke="#63b8ff" d="M65.45,-294.14C75.98,-327.61 105.43,-408.77 156,-457 199.56,-498.54 263.56,-524.08 312.17,-538.62"/>
<polygon fill="#63b8ff" stroke="#63b8ff" points="311.41,-542.05 321.99,-541.47 313.37,-535.32 311.41,-542.05"/>
</a>
</g>
</g>
<!-- Node4 -->
<g id="Node000004" class="node">
<title>Node4</title>
<g id="a_Node000004"><a xlink:href="../../d9/d2c/classlci_1_1alloc__net__context__x.html#adc6902f8e0f6e79e5c6b499a9c40eb75" target="_top" xlink:title=" ">
<polygon fill="white" stroke="#666666" points="276,-294 156,-294 156,-264 276,-264 276,-294"/>
<text text-anchor="start" x="164" y="-282" font-family="Helvetica,sans-Serif" font-size="10.00">lci::alloc_net_context</text>
<text text-anchor="middle" x="216" y="-271" font-family="Helvetica,sans-Serif" font-size="10.00">_x::call_impl</text>
</a>
</g>
</g>
<!-- Node1&#45;&gt;Node4 -->
<g id="edge3_Node000001_Node000004" class="edge">
<title>Node1&#45;&gt;Node4</title>
<g id="a_edge3_Node000001_Node000004"><a xlink:title=" ">
<path fill="none" stroke="#63b8ff" d="M120.1,-279C128.42,-279 137.04,-279 145.53,-279"/>
<polygon fill="#63b8ff" stroke="#63b8ff" points="145.8,-282.5 155.8,-279 145.8,-275.5 145.8,-282.5"/>
</a>
</g>
</g>
<!-- Node5 -->
<g id="Node000005" class="node">
<title>Node5</title>
<g id="a_Node000005"><a xlink:href="../../d9/d2c/classlci_1_1alloc__net__context__x.html#a9fe41e79d8eb835bbe41fc713b0971cf" target="_top" xlink:title=" ">
<polygon fill="white" stroke="#666666" points="445,-521.5 319,-521.5 319,-480.5 445,-480.5 445,-521.5"/>
<text text-anchor="start" x="327" y="-509.5" font-family="Helvetica,sans-Serif" font-size="10.00">lci::alloc_net_context</text>
<text text-anchor="start" x="327" y="-498.5" font-family="Helvetica,sans-Serif" font-size="10.00">_x::ibv_force_gid_auto</text>
<text text-anchor="middle" x="382" y="-487.5" font-family="Helvetica,sans-Serif" font-size="10.00">_select</text>
</a>
</g>
</g>
<!-- Node1&#45;&gt;Node5 -->
<g id="edge27_Node000001_Node000005" class="edge">
<title>Node1&#45;&gt;Node5</title>
<g id="a_edge27_Node000001_Node000005"><a xlink:title=" ">
<path fill="none" stroke="#63b8ff" d="M67.92,-294.17C81.21,-321.74 112.87,-380.3 156,-414 200.98,-449.15 261.85,-471.53 308.93,-484.78"/>
<polygon fill="#63b8ff" stroke="#63b8ff" points="308.19,-488.2 318.76,-487.47 310.04,-481.45 308.19,-488.2"/>
</a>
</g>
</g>
<!-- Node6 -->
<g id="Node000006" class="node">
<title>Node6</title>
<g id="a_Node000006"><a xlink:href="../../d9/d2c/classlci_1_1alloc__net__context__x.html#a41c846e3f23a79c2ed6832493cfbdf32" target="_top" xlink:title=" ">
<polygon fill="white" stroke="#666666" points="442,-462 322,-462 322,-432 442,-432 442,-462"/>
<text text-anchor="start" x="330" y="-450" font-family="Helvetica,sans-Serif" font-size="10.00">lci::alloc_net_context</text>
<text text-anchor="middle" x="382" y="-439" font-family="Helvetica,sans-Serif" font-size="10.00">_x::ibv_gid_idx</text>
</a>
</g>
</g>
<!-- Node1&#45;&gt;Node6 -->
<g id="edge28_Node000001_Node000006" class="edge">
<title>Node1&#45;&gt;Node6</title>
<g id="a_edge28_Node000001_Node000006"><a xlink:title=" ">
<path fill="none" stroke="#63b8ff" d="M71.86,-294.05C87.93,-315.29 120.05,-353.92 156,-376 203.96,-405.46 265.27,-423.75 311.77,-434.37"/>
<polygon fill="#63b8ff" stroke="#63b8ff" points="311.23,-437.84 321.75,-436.59 312.75,-431 311.23,-437.84"/>
</a>
</g>
</g>
<!-- Node7 -->
<g id="Node000007" class="node">
<title>Node7</title>
<g id="a_Node000007"><a xlink:href="../../d9/d2c/classlci_1_1alloc__net__context__x.html#aaad66599526eca49a9ee0dada3f8e35c" target="_top" xlink:title=" ">
<polygon fill="white" stroke="#666666" points="442,-414 322,-414 322,-384 442,-384 442,-414"/>
<text text-anchor="start" x="330" y="-402" font-family="Helvetica,sans-Serif" font-size="10.00">lci::alloc_net_context</text>
<text text-anchor="middle" x="382" y="-391" font-family="Helvetica,sans-Serif" font-size="10.00">_x::ibv_odp_strategy</text>
</a>
</g>
</g>
<!-- Node1&#45;&gt;Node7 -->
<g id="edge29_Node000001_Node000007" class="edge">
<title>Node1&#45;&gt;Node7</title>
<g id="a_edge29_Node000001_Node000007"><a xlink:title=" ">
<path fill="none" stroke="#63b8ff" d="M78.74,-294.07C96.99,-308.83 126.8,-330.97 156,-344 205.84,-366.25 266.08,-380.37 311.68,-388.72"/>
<polygon fill="#63b8ff" stroke="#63b8ff" points="311.31,-392.21 321.77,-390.52 312.54,-385.32 311.31,-392.21"/>
</a>
</g>
</g>
<!-- Node8 -->
<g id="Node000008" class="node">
<title>Node8</title>
<g id="a_Node000008"><a xlink:href="../../d9/d2c/classlci_1_1alloc__net__context__x.html#a2c1d71a830f38024cb6193d55e088fb8" target="_top" xlink:title=" ">
<polygon fill="white" stroke="#666666" points="452,-366 312,-366 312,-336 452,-336 452,-366"/>
<text text-anchor="start" x="320" y="-354" font-family="Helvetica,sans-Serif" font-size="10.00">lci::alloc_net_context</text>
<text text-anchor="middle" x="382" y="-343" font-family="Helvetica,sans-Serif" font-size="10.00">_x::ibv_prefetch_strategy</text>
</a>
</g>
</g>
<!-- Node1&#45;&gt;Node8 -->
<g id="edge30_Node000001_Node000008" class="edge">
<title>Node1&#45;&gt;Node8</title>
<g id="a_edge30_Node000001_Node000008"><a xlink:title=" ">
<path fill="none" stroke="#63b8ff" d="M91.09,-294.02C109.43,-302.58 133.58,-312.8 156,-319 203.54,-332.15 258.3,-340.09 301.9,-344.77"/>
<polygon fill="#63b8ff" stroke="#63b8ff" points="301.57,-348.25 311.88,-345.8 302.29,-341.29 301.57,-348.25"/>
</a>
</g>
</g>
<!-- Node9 -->
<g id="Node000009" class="node">
<title>Node9</title>
<g id="a_Node000009"><a xlink:href="../../d9/d2c/classlci_1_1alloc__net__context__x.html#a6654c9eac4872fca14364abd71f579f1" target="_top" xlink:title=" ">
<polygon fill="white" stroke="#666666" points="442,-318 322,-318 322,-288 442,-288 442,-318"/>
<text text-anchor="start" x="330" y="-306" font-family="Helvetica,sans-Serif" font-size="10.00">lci::alloc_net_context</text>
<text text-anchor="middle" x="382" y="-295" font-family="Helvetica,sans-Serif" font-size="10.00">_x::max_inject_size</text>
</a>
</g>
</g>
<!-- Node1&#45;&gt;Node9 -->
<g id="edge31_Node000001_Node000009" class="edge">
<title>Node1&#45;&gt;Node9</title>
<g id="a_edge31_Node000001_Node000009"><a xlink:title=" ">
<path fill="none" stroke="#63b8ff" d="M110.85,-294.05C125.28,-297.74 141.14,-301.15 156,-303 207.79,-309.44 266.8,-309.16 311.39,-307.42"/>
<polygon fill="#63b8ff" stroke="#63b8ff" points="311.69,-310.91 321.54,-306.99 311.4,-303.91 311.69,-310.91"/>
</a>
</g>
</g>
<!-- Node10 -->
<g id="Node000010" class="node">
<title>Node10</title>
<g id="a_Node000010"><a xlink:href="../../d9/d2c/classlci_1_1alloc__net__context__x.html#ad264e33dba3328ba304b8727d91fea36" target="_top" xlink:title=" ">
<polygon fill="white" stroke="#666666" points="442,-270 322,-270 322,-240 442,-240 442,-270"/>
<text text-anchor="start" x="330" y="-258" font-family="Helvetica,sans-Serif" font-size="10.00">lci::alloc_net_context</text>
<text text-anchor="middle" x="382" y="-247" font-family="Helvetica,sans-Serif" font-size="10.00">_x::max_msg_size</text>
</a>
</g>
</g>
<!-- Node1&#45;&gt;Node10 -->
<g id="edge32_Node000001_Node000010" class="edge">
<title>Node1&#45;&gt;Node10</title>
<g id="a_edge32_Node000001_Node000010"><a xlink:title=" ">
<path fill="none" stroke="#63b8ff" d="M110.85,-263.95C125.28,-260.26 141.14,-256.85 156,-255 207.79,-248.56 266.8,-248.84 311.39,-250.58"/>
<polygon fill="#63b8ff" stroke="#63b8ff" points="311.4,-254.09 321.54,-251.01 311.69,-247.09 311.4,-254.09"/>
</a>
</g>
</g>
<!-- Node11 -->
<g id="Node000011" class="node">
<title>Node11</title>
<g id="a_Node000011"><a xlink:href="../../d9/d2c/classlci_1_1alloc__net__context__x.html#aa986abdc0e46d57842944ccbfecaae73" target="_top" xlink:title=" ">
<polygon fill="white" stroke="#666666" points="442,-222 322,-222 322,-192 442,-192 442,-222"/>
<text text-anchor="start" x="330" y="-210" font-family="Helvetica,sans-Serif" font-size="10.00">lci::alloc_net_context</text>
<text text-anchor="middle" x="382" y="-199" font-family="Helvetica,sans-Serif" font-size="10.00">_x::name</text>
</a>
</g>
</g>
<!-- Node1&#45;&gt;Node11 -->
<g id="edge33_Node000001_Node000011" class="edge">
<title>Node1&#45;&gt;Node11</title>
<g id="a_edge33_Node000001_Node000011"><a xlink:title=" ">
<path fill="none" stroke="#63b8ff" d="M98.43,-263.88C115.73,-257.34 136.68,-250.05 156,-245 207.49,-231.55 266.9,-221.75 311.74,-215.48"/>
<polygon fill="#63b8ff" stroke="#63b8ff" points="312.22,-218.94 321.65,-214.11 311.27,-212.01 312.22,-218.94"/>
</a>
</g>
</g>
<!-- Node12 -->
<g id="Node000012" class="node">
<title>Node12</title>
<g id="a_Node000012"><a xlink:href="../../d9/d2c/classlci_1_1alloc__net__context__x.html#a11c33085d6c48cc3684d45ae1f91b354" target="_top" xlink:title=" ">
<polygon fill="white" stroke="#666666" points="444.5,-174 319.5,-174 319.5,-144 444.5,-144 444.5,-174"/>
<text text-anchor="start" x="327.5" y="-162" font-family="Helvetica,sans-Serif" font-size="10.00">lci::alloc_net_context</text>
<text text-anchor="middle" x="382" y="-151" font-family="Helvetica,sans-Serif" font-size="10.00">_x::ofi_provider_name</text>
</a>
</g>
</g>
<!-- Node1&#45;&gt;Node12 -->
<g id="edge34_Node000001_Node000012" class="edge">
<title>Node1&#45;&gt;Node12</title>
<g id="a_edge34_Node000001_Node000012"><a xlink:title=" ">
<path fill="none" stroke="#63b8ff" d="M79.94,-263.95C98.39,-249.97 127.71,-229.47 156,-217 205.07,-195.36 263.86,-180.56 309.03,-171.32"/>
<polygon fill="#63b8ff" stroke="#63b8ff" points="309.92,-174.72 319.04,-169.32 308.55,-167.85 309.92,-174.72"/>
</a>
</g>
</g>
<!-- Node13 -->
<g id="Node000013" class="node">
<title>Node13</title>
<g id="a_Node000013"><a xlink:href="../../d9/d2c/classlci_1_1alloc__net__context__x.html#a3cc9f4bac3c372009fe44dbd77153c19" target="_top" xlink:title=" ">
<polygon fill="white" stroke="#666666" points="442,-126 322,-126 322,-96 442,-96 442,-126"/>
<text text-anchor="start" x="330" y="-114" font-family="Helvetica,sans-Serif" font-size="10.00">lci::alloc_net_context</text>
<text text-anchor="middle" x="382" y="-103" font-family="Helvetica,sans-Serif" font-size="10.00">_x::runtime</text>
</a>
</g>
</g>
<!-- Node1&#45;&gt;Node13 -->
<g id="edge35_Node000001_Node000013" class="edge">
<title>Node1&#45;&gt;Node13</title>
<g id="a_edge35_Node000001_Node000013"><a xlink:title=" ">
<path fill="none" stroke="#63b8ff" d="M70.74,-263.82C86.1,-241.1 118.15,-198.41 156,-175 203.63,-145.55 265.22,-129.26 311.92,-120.49"/>
<polygon fill="#63b8ff" stroke="#63b8ff" points="312.73,-123.9 321.95,-118.68 311.48,-117.01 312.73,-123.9"/>
</a>
</g>
</g>
<!-- Node14 -->
<g id="Node000014" class="node">
<title>Node14</title>
<g id="a_Node000014"><a xlink:href="../../d9/d2c/classlci_1_1alloc__net__context__x.html#aabdd8693975475fef49f39019610a4ae" target="_top" xlink:title=" ">
<polygon fill="white" stroke="#666666" points="442,-78 322,-78 322,-48 442,-48 442,-78"/>
<text text-anchor="start" x="330" y="-66" font-family="Helvetica,sans-Serif" font-size="10.00">lci::alloc_net_context</text>
<text text-anchor="middle" x="382" y="-55" font-family="Helvetica,sans-Serif" font-size="10.00">_x::use_dmabuf</text>
</a>
</g>
</g>
<!-- Node1&#45;&gt;Node14 -->
<g id="edge36_Node000001_Node000014" class="edge">
<title>Node1&#45;&gt;Node14</title>
<g id="a_edge36_Node000001_Node000014"><a xlink:title=" ">
<path fill="none" stroke="#63b8ff" d="M66.05,-263.56C77.1,-232.24 106.49,-161.08 156,-124 201.21,-90.14 264.01,-75.07 311.77,-68.36"/>
<polygon fill="#63b8ff" stroke="#63b8ff" points="312.26,-71.83 321.72,-67.05 311.35,-64.89 312.26,-71.83"/>
</a>
</g>
</g>
<!-- Node15 -->
<g id="Node000015" class="node">
<title>Node15</title>
<g id="a_Node000015"><a xlink:href="../../d9/d2c/classlci_1_1alloc__net__context__x.html#a875d4f78abda2116a3ea1982116165a3" target="_top" xlink:title=" ">
<polygon fill="white" stroke="#666666" points="442,-30 322,-30 322,0 442,0 442,-30"/>
<text text-anchor="start" x="330" y="-18" font-family="Helvetica,sans-Serif" font-size="10.00">lci::alloc_net_context</text>
<text text-anchor="middle" x="382" y="-7" font-family="Helvetica,sans-Serif" font-size="10.00">_x::user_context</text>
</a>
</g>
</g>
<!-- Node1&#45;&gt;Node15 -->
<g id="edge37_Node000001_Node000015" class="edge">
<title>Node1&#45;&gt;Node15</title>
<g id="a_edge37_Node000001_Node000015"><a xlink:title=" ">
<path fill="none" stroke="#63b8ff" d="M63.31,-264C70.02,-225.6 93.24,-123.13 156,-71 199.51,-34.86 263.04,-21.52 311.5,-16.84"/>
<polygon fill="#63b8ff" stroke="#63b8ff" points="311.94,-20.32 321.6,-15.97 311.34,-13.34 311.94,-20.32"/>
</a>
</g>
</g>
<!-- Node3 -->
<g id="Node000003" class="node">
<title>Node3</title>
<g id="a_Node000003"><a xlink:href="../../d9/d2c/classlci_1_1alloc__net__context__x.html#a4906e72fa75cb21741c0248836701237" target="_top" xlink:title=" ">
<polygon fill="white" stroke="#666666" points="619,-294 488,-294 488,-264 619,-264 619,-294"/>
<text text-anchor="start" x="496" y="-282" font-family="Helvetica,sans-Serif" font-size="10.00">lci::alloc_net_context</text>
<text text-anchor="middle" x="553.5" y="-271" font-family="Helvetica,sans-Serif" font-size="10.00">_x::alloc_net_context_x</text>
</a>
</g>
</g>
<!-- Node2&#45;&gt;Node3 -->
<g id="edge2_Node000002_Node000003" class="edge">
<title>Node2&#45;&gt;Node3</title>
<g id="a_edge2_Node000002_Node000003"><a xlink:title=" ">
<path fill="none" stroke="#63b8ff" d="M439.98,-539.87C444.34,-537.35 448.42,-534.42 452,-531 518.44,-467.47 541.99,-354.33 549.43,-304.16"/>
<polygon fill="#63b8ff" stroke="#63b8ff" points="552.91,-304.56 550.82,-294.17 545.97,-303.6 552.91,-304.56"/>
</a>
</g>
</g>
<!-- Node4&#45;&gt;Node2 -->
<g id="edge4_Node000004_Node000002" class="edge">
<title>Node4&#45;&gt;Node2</title>
<g id="a_edge4_Node000004_Node000002"><a xlink:title=" ">
<path fill="none" stroke="#63b8ff" d="M218.32,-294.16C222.89,-337.4 241.85,-462.64 312,-531 313.11,-532.08 314.26,-533.11 315.47,-534.09"/>
<polygon fill="#63b8ff" stroke="#63b8ff" points="313.73,-537.15 323.95,-539.94 317.71,-531.39 313.73,-537.15"/>
</a>
</g>
</g>
<!-- Node4&#45;&gt;Node5 -->
<g id="edge5_Node000004_Node000005" class="edge">
<title>Node4&#45;&gt;Node5</title>
<g id="a_edge5_Node000004_Node000005"><a xlink:title=" ">
<path fill="none" stroke="#63b8ff" d="M220.63,-294.11C229.89,-329.61 257.58,-419.21 312,-471 313.27,-472.21 314.59,-473.37 315.97,-474.49"/>
<polygon fill="#63b8ff" stroke="#63b8ff" points="314.1,-477.46 324.27,-480.45 318.18,-471.78 314.1,-477.46"/>
</a>
</g>
</g>
<!-- Node4&#45;&gt;Node6 -->
<g id="edge7_Node000004_Node000006" class="edge">
<title>Node4&#45;&gt;Node6</title>
<g id="a_edge7_Node000004_Node000006"><a xlink:title=" ">
<path fill="none" stroke="#63b8ff" d="M223.14,-294.42C235.55,-323.68 266.38,-387.51 312,-423 313.79,-424.39 315.67,-425.71 317.61,-426.95"/>
<polygon fill="#63b8ff" stroke="#63b8ff" points="316.04,-430.08 326.48,-431.93 319.47,-423.98 316.04,-430.08"/>
</a>
</g>
</g>
<!-- Node4&#45;&gt;Node7 -->
<g id="edge9_Node000004_Node000007" class="edge">
<title>Node4&#45;&gt;Node7</title>
<g id="a_edge9_Node000004_Node000007"><a xlink:title=" ">
<path fill="none" stroke="#63b8ff" d="M228.25,-294.1C244.56,-315.02 276.7,-352.73 312,-375 314.6,-376.64 317.32,-378.18 320.13,-379.63"/>
<polygon fill="#63b8ff" stroke="#63b8ff" points="318.75,-382.86 329.29,-383.96 321.74,-376.53 318.75,-382.86"/>
</a>
</g>
</g>
<!-- Node4&#45;&gt;Node8 -->
<g id="edge11_Node000004_Node000008" class="edge">
<title>Node4&#45;&gt;Node8</title>
<g id="a_edge11_Node000004_Node000008"><a xlink:title=" ">
<path fill="none" stroke="#63b8ff" d="M244.39,-294.06C263.13,-304.06 288.7,-317.11 312,-327 316.37,-328.85 320.93,-330.68 325.54,-332.44"/>
<polygon fill="#63b8ff" stroke="#63b8ff" points="324.43,-335.76 335.02,-335.97 326.87,-329.2 324.43,-335.76"/>
</a>
</g>
</g>
<!-- Node4&#45;&gt;Node9 -->
<g id="edge13_Node000004_Node000009" class="edge">
<title>Node4&#45;&gt;Node9</title>
<g id="a_edge13_Node000004_Node000009"><a xlink:title=" ">
<path fill="none" stroke="#63b8ff" d="M276.21,-287.66C287.7,-289.35 299.85,-291.12 311.64,-292.85"/>
<polygon fill="#63b8ff" stroke="#63b8ff" points="311.48,-296.36 321.88,-294.35 312.49,-289.44 311.48,-296.36"/>
</a>
</g>
</g>
<!-- Node4&#45;&gt;Node10 -->
<g id="edge15_Node000004_Node000010" class="edge">
<title>Node4&#45;&gt;Node10</title>
<g id="a_edge15_Node000004_Node000010"><a xlink:title=" ">
<path fill="none" stroke="#63b8ff" d="M276.21,-270.34C287.7,-268.65 299.85,-266.88 311.64,-265.15"/>
<polygon fill="#63b8ff" stroke="#63b8ff" points="312.49,-268.56 321.88,-263.65 311.48,-261.64 312.49,-268.56"/>
</a>
</g>
</g>
<!-- Node4&#45;&gt;Node11 -->
<g id="edge17_Node000004_Node000011" class="edge">
<title>Node4&#45;&gt;Node11</title>
<g id="a_edge17_Node000004_Node000011"><a xlink:title=" ">
<path fill="none" stroke="#63b8ff" d="M244.39,-263.94C263.13,-253.94 288.7,-240.89 312,-231 316.37,-229.15 320.93,-227.32 325.54,-225.56"/>
<polygon fill="#63b8ff" stroke="#63b8ff" points="326.87,-228.8 335.02,-222.03 324.43,-222.24 326.87,-228.8"/>
</a>
</g>
</g>
<!-- Node4&#45;&gt;Node12 -->
<g id="edge19_Node000004_Node000012" class="edge">
<title>Node4&#45;&gt;Node12</title>
<g id="a_edge19_Node000004_Node000012"><a xlink:title=" ">
<path fill="none" stroke="#63b8ff" d="M228.25,-263.9C244.56,-242.98 276.7,-205.27 312,-183 314.6,-181.36 317.32,-179.82 320.13,-178.37"/>
<polygon fill="#63b8ff" stroke="#63b8ff" points="321.74,-181.47 329.29,-174.04 318.75,-175.14 321.74,-181.47"/>
</a>
</g>
</g>
<!-- Node4&#45;&gt;Node13 -->
<g id="edge21_Node000004_Node000013" class="edge">
<title>Node4&#45;&gt;Node13</title>
<g id="a_edge21_Node000004_Node000013"><a xlink:title=" ">
<path fill="none" stroke="#63b8ff" d="M223.14,-263.58C235.55,-234.32 266.38,-170.49 312,-135 313.79,-133.61 315.67,-132.29 317.61,-131.05"/>
<polygon fill="#63b8ff" stroke="#63b8ff" points="319.47,-134.02 326.48,-126.07 316.04,-127.92 319.47,-134.02"/>
</a>
</g>
</g>
<!-- Node4&#45;&gt;Node14 -->
<g id="edge23_Node000004_Node000014" class="edge">
<title>Node4&#45;&gt;Node14</title>
<g id="a_edge23_Node000004_Node000014"><a xlink:title=" ">
<path fill="none" stroke="#63b8ff" d="M220.31,-263.88C228.96,-227.96 255.53,-136.83 312,-87 313.34,-85.82 314.74,-84.69 316.19,-83.62"/>
<polygon fill="#63b8ff" stroke="#63b8ff" points="318.4,-86.37 324.99,-78.07 314.67,-80.45 318.4,-86.37"/>
</a>
</g>
</g>
<!-- Node4&#45;&gt;Node15 -->
<g id="edge25_Node000004_Node000015" class="edge">
<title>Node4&#45;&gt;Node15</title>
<g id="a_edge25_Node000004_Node000015"><a xlink:title=" ">
<path fill="none" stroke="#63b8ff" d="M218.63,-263.96C223.95,-222.19 244.55,-103.66 312,-39 313.12,-37.93 314.28,-36.91 315.49,-35.93"/>
<polygon fill="#63b8ff" stroke="#63b8ff" points="317.72,-38.65 324.01,-30.12 313.78,-32.86 317.72,-38.65"/>
</a>
</g>
</g>
<!-- Node5&#45;&gt;Node3 -->
<g id="edge6_Node000005_Node000003" class="edge">
<title>Node5&#45;&gt;Node3</title>
<g id="a_edge6_Node000005_Node000003"><a xlink:title=" ">
<path fill="none" stroke="#63b8ff" d="M439.64,-480.36C444.08,-477.58 448.27,-474.47 452,-471 503.08,-423.48 532.89,-344.06 545.44,-303.89"/>
<polygon fill="#63b8ff" stroke="#63b8ff" points="548.86,-304.7 548.4,-294.11 542.16,-302.67 548.86,-304.7"/>
</a>
</g>
</g>
<!-- Node6&#45;&gt;Node3 -->
<g id="edge8_Node000006_Node000003" class="edge">
<title>Node6&#45;&gt;Node3</title>
<g id="a_edge8_Node000006_Node000003"><a xlink:title=" ">
<path fill="none" stroke="#63b8ff" d="M437.08,-431.99C442.37,-429.42 447.45,-426.45 452,-423 494.51,-390.81 525.85,-335.39 541.43,-303.5"/>
<polygon fill="#63b8ff" stroke="#63b8ff" points="544.62,-304.95 545.76,-294.42 538.3,-301.94 544.62,-304.95"/>
</a>
</g>
</g>
<!-- Node7&#45;&gt;Node3 -->
<g id="edge10_Node000007_Node000003" class="edge">
<title>Node7&#45;&gt;Node3</title>
<g id="a_edge10_Node000007_Node000003"><a xlink:title=" ">
<path fill="none" stroke="#63b8ff" d="M434.26,-383.97C440.42,-381.36 446.48,-378.37 452,-375 484.5,-355.14 515.12,-323.28 533.84,-301.76"/>
<polygon fill="#63b8ff" stroke="#63b8ff" points="536.57,-303.95 540.4,-294.07 531.25,-299.4 536.57,-303.95"/>
</a>
</g>
</g>
<!-- Node8&#45;&gt;Node3 -->
<g id="edge12_Node000008_Node000003" class="edge">
<title>Node8&#45;&gt;Node3</title>
<g id="a_edge12_Node000008_Node000003"><a xlink:title=" ">
<path fill="none" stroke="#63b8ff" d="M428.55,-335.96C436.43,-333.13 444.49,-330.09 452,-327 472.81,-318.44 495.46,-307.75 513.98,-298.63"/>
<polygon fill="#63b8ff" stroke="#63b8ff" points="515.59,-301.74 522.99,-294.16 512.47,-295.47 515.59,-301.74"/>
</a>
</g>
</g>
<!-- Node9&#45;&gt;Node3 -->
<g id="edge14_Node000009_Node000003" class="edge">
<title>Node9&#45;&gt;Node3</title>
<g id="a_edge14_Node000009_Node000003"><a xlink:title=" ">
<path fill="none" stroke="#63b8ff" d="M442.28,-294.61C453.77,-292.98 465.94,-291.26 477.85,-289.57"/>
<polygon fill="#63b8ff" stroke="#63b8ff" points="478.35,-293.03 487.76,-288.17 477.37,-286.1 478.35,-293.03"/>
</a>
</g>
</g>
<!-- Node10&#45;&gt;Node3 -->
<g id="edge16_Node000010_Node000003" class="edge">
<title>Node10&#45;&gt;Node3</title>
<g id="a_edge16_Node000010_Node000003"><a xlink:title=" ">
<path fill="none" stroke="#63b8ff" d="M442.28,-263.39C453.77,-265.02 465.94,-266.74 477.85,-268.43"/>
<polygon fill="#63b8ff" stroke="#63b8ff" points="477.37,-271.9 487.76,-269.83 478.35,-264.97 477.37,-271.9"/>
</a>
</g>
</g>
<!-- Node11&#45;&gt;Node3 -->
<g id="edge18_Node000011_Node000003" class="edge">
<title>Node11&#45;&gt;Node3</title>
<g id="a_edge18_Node000011_Node000003"><a xlink:title=" ">
<path fill="none" stroke="#63b8ff" d="M428.55,-222.04C436.43,-224.87 444.49,-227.91 452,-231 472.81,-239.56 495.46,-250.25 513.98,-259.37"/>
<polygon fill="#63b8ff" stroke="#63b8ff" points="512.47,-262.53 522.99,-263.84 515.59,-256.26 512.47,-262.53"/>
</a>
</g>
</g>
<!-- Node12&#45;&gt;Node3 -->
<g id="edge20_Node000012_Node000003" class="edge">
<title>Node12&#45;&gt;Node3</title>
<g id="a_edge20_Node000012_Node000003"><a xlink:title=" ">
<path fill="none" stroke="#63b8ff" d="M434.26,-174.03C440.42,-176.64 446.48,-179.63 452,-183 484.5,-202.86 515.12,-234.72 533.84,-256.24"/>
<polygon fill="#63b8ff" stroke="#63b8ff" points="531.25,-258.6 540.4,-263.93 536.57,-254.05 531.25,-258.6"/>
</a>
</g>
</g>
<!-- Node13&#45;&gt;Node3 -->
<g id="edge22_Node000013_Node000003" class="edge">
<title>Node13&#45;&gt;Node3</title>
<g id="a_edge22_Node000013_Node000003"><a xlink:title=" ">
<path fill="none" stroke="#63b8ff" d="M437.08,-126.01C442.37,-128.58 447.45,-131.55 452,-135 494.51,-167.19 525.85,-222.61 541.43,-254.5"/>
<polygon fill="#63b8ff" stroke="#63b8ff" points="538.3,-256.06 545.76,-263.58 544.62,-253.05 538.3,-256.06"/>
</a>
</g>
</g>
<!-- Node14&#45;&gt;Node3 -->
<g id="edge24_Node000014_Node000003" class="edge">
<title>Node14&#45;&gt;Node3</title>
<g id="a_edge24_Node000014_Node000003"><a xlink:title=" ">
<path fill="none" stroke="#63b8ff" d="M438.92,-78.16C443.62,-80.68 448.06,-83.6 452,-87 505.08,-132.77 534.12,-213.6 546.01,-254.22"/>
<polygon fill="#63b8ff" stroke="#63b8ff" points="542.65,-255.19 548.73,-263.87 549.38,-253.29 542.65,-255.19"/>
</a>
</g>
</g>
<!-- Node15&#45;&gt;Node3 -->
<g id="edge26_Node000015_Node000003" class="edge">
<title>Node15&#45;&gt;Node3</title>
<g id="a_edge26_Node000015_Node000003"><a xlink:title=" ">
<path fill="none" stroke="#63b8ff" d="M439.58,-30C444.08,-32.55 448.3,-35.53 452,-39 515.8,-98.97 540.6,-205.72 548.89,-254.03"/>
<polygon fill="#63b8ff" stroke="#63b8ff" points="545.44,-254.63 550.49,-263.94 552.35,-253.51 545.44,-254.63"/>
</a>
</g>
</g>
</g>
</svg>
