<?xml version="1.0" encoding="UTF-8" standalone="no"?>
<!DOCTYPE svg PUBLIC "-//W3C//DTD SVG 1.1//EN"
 "http://www.w3.org/Graphics/SVG/1.1/DTD/svg11.dtd">
<!-- Generated by graphviz version 2.43.0 (0)
 -->
<!-- Title: lci::alloc_net_context_x::operator() Pages: 1 -->
<svg width="783pt" height="626pt"
 viewBox="0.00 0.00 783.00 626.00" xmlns="http://www.w3.org/2000/svg" xmlns:xlink="http://www.w3.org/1999/xlink">
<g id="graph0" class="graph" transform="scale(1 1) rotate(0) translate(4 622)">
<title>lci::alloc_net_context_x::operator()</title>
<!-- Node1 -->
<g id="Node000001" class="node">
<title>Node1</title>
<g id="a_Node000001"><a xlink:title=" ">
<polygon fill="#999999" stroke="#666666" points="120,-313 0,-313 0,-283 120,-283 120,-313"/>
<text text-anchor="start" x="8" y="-301" font-family="Helvetica,sans-Serif" font-size="10.00">lci::alloc_net_context</text>
<text text-anchor="middle" x="60" y="-290" font-family="Helvetica,sans-Serif" font-size="10.00">_x::operator()</text>
</a>
</g>
</g>
<!-- Node2 -->
<g id="Node000002" class="node">
<title>Node2</title>
<g id="a_Node000002"><a xlink:href="../../d9/d2c/classlci_1_1alloc__net__context__x.html#ad70070ae0aaa12a3a7ab0be8f9f84dbc" target="_top" xlink:title=" ">
<polygon fill="white" stroke="#666666" points="276,-313 156,-313 156,-283 276,-283 276,-313"/>
<text text-anchor="start" x="164" y="-301" font-family="Helvetica,sans-Serif" font-size="10.00">lci::alloc_net_context</text>
<text text-anchor="middle" x="216" y="-290" font-family="Helvetica,sans-Serif" font-size="10.00">_x::call</text>
</a>
</g>
</g>
<!-- Node1&#45;&gt;Node2 -->
<g id="edge1_Node000001_Node000002" class="edge">
<title>Node1&#45;&gt;Node2</title>
<g id="a_edge1_Node000001_Node000002"><a xlink:title=" ">
<path fill="none" stroke="#63b8ff" d="M120.1,-298C128.42,-298 137.04,-298 145.53,-298"/>
<polygon fill="#63b8ff" stroke="#63b8ff" points="145.8,-301.5 155.8,-298 145.8,-294.5 145.8,-301.5"/>
</a>
</g>
</g>
<!-- Node3 -->
<g id="Node000003" class="node">
<title>Node3</title>
<g id="a_Node000003"><a xlink:href="../../d9/d2c/classlci_1_1alloc__net__context__x.html#a924ac87bf6d7c2eb6b52768734dee344" target="_top" xlink:title=" ">
<polygon fill="white" stroke="#666666" points="598,-618 478,-618 478,-588 598,-588 598,-618"/>
<text text-anchor="start" x="486" y="-606" font-family="Helvetica,sans-Serif" font-size="10.00">lci::alloc_net_context</text>
<text text-anchor="middle" x="538" y="-595" font-family="Helvetica,sans-Serif" font-size="10.00">_x::backend</text>
</a>
</g>
</g>
<!-- Node2&#45;&gt;Node3 -->
<g id="edge2_Node000002_Node000003" class="edge">
<title>Node2&#45;&gt;Node3</title>
<g id="a_edge2_Node000002_Node000003"><a xlink:title=" ">
<path fill="none" stroke="#63b8ff" d="M219.75,-313.12C227.46,-351.44 252.72,-453.43 312,-512 354.49,-553.97 418.9,-577.36 467.93,-589.88"/>
<polygon fill="#63b8ff" stroke="#63b8ff" points="467.29,-593.33 477.83,-592.32 468.96,-586.53 467.29,-593.33"/>
</a>
</g>
</g>
<!-- Node5 -->
<g id="Node000005" class="node">
<title>Node5</title>
<g id="a_Node000005"><a xlink:href="../../d9/d2c/classlci_1_1alloc__net__context__x.html#a61d7668ea2b5b06194cb1a59d7ec2a94" target="_top" xlink:title=" ">
<polygon fill="white" stroke="#666666" points="432,-335 312,-335 312,-305 432,-305 432,-335"/>
<text text-anchor="start" x="320" y="-323" font-family="Helvetica,sans-Serif" font-size="10.00">lci::alloc_net_context</text>
<text text-anchor="middle" x="372" y="-312" font-family="Helvetica,sans-Serif" font-size="10.00">_x::call_impl</text>
</a>
</g>
</g>
<!-- Node2&#45;&gt;Node5 -->
<g id="edge4_Node000002_Node000005" class="edge">
<title>Node2&#45;&gt;Node5</title>
<g id="a_edge4_Node000002_Node000005"><a xlink:title=" ">
<path fill="none" stroke="#63b8ff" d="M276.1,-306.44C284.51,-307.64 293.23,-308.89 301.81,-310.12"/>
<polygon fill="#63b8ff" stroke="#63b8ff" points="301.41,-313.59 311.8,-311.54 302.4,-306.66 301.41,-313.59"/>
</a>
</g>
</g>
<!-- Node6 -->
<g id="Node000006" class="node">
<title>Node6</title>
<g id="a_Node000006"><a xlink:href="../../d9/d2c/classlci_1_1alloc__net__context__x.html#a18f264d1b22711074a95735e72e5cdd2" target="_top" xlink:title=" ">
<polygon fill="white" stroke="#666666" points="598,-570 478,-570 478,-540 598,-540 598,-570"/>
<text text-anchor="start" x="486" y="-558" font-family="Helvetica,sans-Serif" font-size="10.00">lci::alloc_net_context</text>
<text text-anchor="middle" x="538" y="-547" font-family="Helvetica,sans-Serif" font-size="10.00">_x::device_name</text>
</a>
</g>
</g>
<!-- Node2&#45;&gt;Node6 -->
<g id="edge30_Node000002_Node000006" class="edge">
<title>Node2&#45;&gt;Node6</title>
<g id="a_edge30_Node000002_Node000006"><a xlink:title=" ">
<path fill="none" stroke="#63b8ff" d="M221.78,-313.18C232.68,-345.56 262.36,-421.98 312,-466 356.25,-505.24 419.89,-528.24 468.2,-540.99"/>
<polygon fill="#63b8ff" stroke="#63b8ff" points="467.4,-544.4 477.96,-543.48 469.13,-537.62 467.4,-544.4"/>
</a>
</g>
</g>
<!-- Node7 -->
<g id="Node000007" class="node">
<title>Node7</title>
<g id="a_Node000007"><a xlink:href="../../d9/d2c/classlci_1_1alloc__net__context__x.html#a9fe41e79d8eb835bbe41fc713b0971cf" target="_top" xlink:title=" ">
<polygon fill="white" stroke="#666666" points="601,-521.5 475,-521.5 475,-480.5 601,-480.5 601,-521.5"/>
<text text-anchor="start" x="483" y="-509.5" font-family="Helvetica,sans-Serif" font-size="10.00">lci::alloc_net_context</text>
<text text-anchor="start" x="483" y="-498.5" font-family="Helvetica,sans-Serif" font-size="10.00">_x::ibv_force_gid_auto</text>
<text text-anchor="middle" x="538" y="-487.5" font-family="Helvetica,sans-Serif" font-size="10.00">_select</text>
</a>
</g>
</g>
<!-- Node2&#45;&gt;Node7 -->
<g id="edge31_Node000002_Node000007" class="edge">
<title>Node2&#45;&gt;Node7</title>
<g id="a_edge31_Node000002_Node000007"><a xlink:title=" ">
<path fill="none" stroke="#63b8ff" d="M224.41,-313.41C238.05,-340.17 269.65,-395.31 312,-426 357.29,-458.82 417.87,-477.92 464.76,-488.63"/>
<polygon fill="#63b8ff" stroke="#63b8ff" points="464.02,-492.05 474.54,-490.79 465.53,-485.22 464.02,-492.05"/>
</a>
</g>
</g>
<!-- Node8 -->
<g id="Node000008" class="node">
<title>Node8</title>
<g id="a_Node000008"><a xlink:href="../../d9/d2c/classlci_1_1alloc__net__context__x.html#a41c846e3f23a79c2ed6832493cfbdf32" target="_top" xlink:title=" ">
<polygon fill="white" stroke="#666666" points="598,-462 478,-462 478,-432 598,-432 598,-462"/>
<text text-anchor="start" x="486" y="-450" font-family="Helvetica,sans-Serif" font-size="10.00">lci::alloc_net_context</text>
<text text-anchor="middle" x="538" y="-439" font-family="Helvetica,sans-Serif" font-size="10.00">_x::ibv_gid_idx</text>
</a>
</g>
</g>
<!-- Node2&#45;&gt;Node8 -->
<g id="edge32_Node000002_Node000008" class="edge">
<title>Node2&#45;&gt;Node8</title>
<g id="a_edge32_Node000002_Node000008"><a xlink:title=" ">
<path fill="none" stroke="#63b8ff" d="M228.04,-313.25C244.11,-334.27 275.95,-371.84 312,-392 360.23,-418.97 421.51,-432.84 467.94,-439.89"/>
<polygon fill="#63b8ff" stroke="#63b8ff" points="467.51,-443.37 477.91,-441.34 468.51,-436.44 467.51,-443.37"/>
</a>
</g>
</g>
<!-- Node9 -->
<g id="Node000009" class="node">
<title>Node9</title>
<g id="a_Node000009"><a xlink:href="../../d9/d2c/classlci_1_1alloc__net__context__x.html#aaad66599526eca49a9ee0dada3f8e35c" target="_top" xlink:title=" ">
<polygon fill="white" stroke="#666666" points="598,-414 478,-414 478,-384 598,-384 598,-414"/>
<text text-anchor="start" x="486" y="-402" font-family="Helvetica,sans-Serif" font-size="10.00">lci::alloc_net_context</text>
<text text-anchor="middle" x="538" y="-391" font-family="Helvetica,sans-Serif" font-size="10.00">_x::ibv_odp_strategy</text>
</a>
</g>
</g>
<!-- Node2&#45;&gt;Node9 -->
<g id="edge33_Node000002_Node000009" class="edge">
<title>Node2&#45;&gt;Node9</title>
<g id="a_edge33_Node000002_Node000009"><a xlink:title=" ">
<path fill="none" stroke="#63b8ff" d="M233.8,-313.27C251.78,-328.69 281.8,-351.91 312,-364 361.82,-383.94 422.06,-392.58 467.67,-396.29"/>
<polygon fill="#63b8ff" stroke="#63b8ff" points="467.52,-399.79 477.75,-397.05 468.05,-392.81 467.52,-399.79"/>
</a>
</g>
</g>
<!-- Node10 -->
<g id="Node000010" class="node">
<title>Node10</title>
<g id="a_Node000010"><a xlink:href="../../d9/d2c/classlci_1_1alloc__net__context__x.html#a2c1d71a830f38024cb6193d55e088fb8" target="_top" xlink:title=" ">
<polygon fill="white" stroke="#666666" points="608,-366 468,-366 468,-336 608,-336 608,-366"/>
<text text-anchor="start" x="476" y="-354" font-family="Helvetica,sans-Serif" font-size="10.00">lci::alloc_net_context</text>
<text text-anchor="middle" x="538" y="-343" font-family="Helvetica,sans-Serif" font-size="10.00">_x::ibv_prefetch_strategy</text>
</a>
</g>
</g>
<!-- Node2&#45;&gt;Node10 -->
<g id="edge34_Node000002_Node000010" class="edge">
<title>Node2&#45;&gt;Node10</title>
<g id="a_edge34_Node000002_Node000010"><a xlink:title=" ">
<path fill="none" stroke="#63b8ff" d="M240.93,-313.09C259.52,-323.93 286.37,-337.7 312,-344 359.34,-355.64 413.98,-357.59 457.55,-356.54"/>
<polygon fill="#63b8ff" stroke="#63b8ff" points="457.92,-360.03 467.81,-356.24 457.71,-353.04 457.92,-360.03"/>
</a>
</g>
</g>
<!-- Node11 -->
<g id="Node000011" class="node">
<title>Node11</title>
<g id="a_Node000011"><a xlink:href="../../d9/d2c/classlci_1_1alloc__net__context__x.html#a6654c9eac4872fca14364abd71f579f1" target="_top" xlink:title=" ">
<polygon fill="white" stroke="#666666" points="598,-318 478,-318 478,-288 598,-288 598,-318"/>
<text text-anchor="start" x="486" y="-306" font-family="Helvetica,sans-Serif" font-size="10.00">lci::alloc_net_context</text>
<text text-anchor="middle" x="538" y="-295" font-family="Helvetica,sans-Serif" font-size="10.00">_x::max_inject_size</text>
</a>
</g>
</g>
<!-- Node2&#45;&gt;Node11 -->
<g id="edge35_Node000002_Node000011" class="edge">
<title>Node2&#45;&gt;Node11</title>
<g id="a_edge35_Node000002_Node000011"><a xlink:title=" ">
<path fill="none" stroke="#63b8ff" d="M276.04,-296.56C287.94,-296.33 300.37,-296.12 312,-296 365.33,-295.44 378.7,-294.23 432,-296 443.51,-296.38 455.72,-297 467.58,-297.72"/>
<polygon fill="#63b8ff" stroke="#63b8ff" points="467.69,-301.23 477.89,-298.37 468.13,-294.25 467.69,-301.23"/>
</a>
</g>
</g>
<!-- Node12 -->
<g id="Node000012" class="node">
<title>Node12</title>
<g id="a_Node000012"><a xlink:href="../../d9/d2c/classlci_1_1alloc__net__context__x.html#ad264e33dba3328ba304b8727d91fea36" target="_top" xlink:title=" ">
<polygon fill="white" stroke="#666666" points="598,-270 478,-270 478,-240 598,-240 598,-270"/>
<text text-anchor="start" x="486" y="-258" font-family="Helvetica,sans-Serif" font-size="10.00">lci::alloc_net_context</text>
<text text-anchor="middle" x="538" y="-247" font-family="Helvetica,sans-Serif" font-size="10.00">_x::max_msg_size</text>
</a>
</g>
</g>
<!-- Node2&#45;&gt;Node12 -->
<g id="edge36_Node000002_Node000012" class="edge">
<title>Node2&#45;&gt;Node12</title>
<g id="a_edge36_Node000002_Node000012"><a xlink:title=" ">
<path fill="none" stroke="#63b8ff" d="M276.07,-290.06C330.24,-282.78 410.51,-272 467.7,-264.31"/>
<polygon fill="#63b8ff" stroke="#63b8ff" points="468.29,-267.76 477.74,-262.96 467.36,-260.83 468.29,-267.76"/>
</a>
</g>
</g>
<!-- Node13 -->
<g id="Node000013" class="node">
<title>Node13</title>
<g id="a_Node000013"><a xlink:href="../../d9/d2c/classlci_1_1alloc__net__context__x.html#aa986abdc0e46d57842944ccbfecaae73" target="_top" xlink:title=" ">
<polygon fill="white" stroke="#666666" points="598,-222 478,-222 478,-192 598,-192 598,-222"/>
<text text-anchor="start" x="486" y="-210" font-family="Helvetica,sans-Serif" font-size="10.00">lci::alloc_net_context</text>
<text text-anchor="middle" x="538" y="-199" font-family="Helvetica,sans-Serif" font-size="10.00">_x::name</text>
</a>
</g>
</g>
<!-- Node2&#45;&gt;Node13 -->
<g id="edge37_Node000002_Node000013" class="edge">
<title>Node2&#45;&gt;Node13</title>
<g id="a_edge37_Node000002_Node000013"><a xlink:title=" ">
<path fill="none" stroke="#63b8ff" d="M259.84,-282.88C276.09,-277.32 294.83,-271.14 312,-266 363.97,-250.45 423.36,-234.97 468.07,-223.78"/>
<polygon fill="#63b8ff" stroke="#63b8ff" points="469.09,-227.13 477.95,-221.31 467.4,-220.33 469.09,-227.13"/>
</a>
</g>
</g>
<!-- Node14 -->
<g id="Node000014" class="node">
<title>Node14</title>
<g id="a_Node000014"><a xlink:href="../../d9/d2c/classlci_1_1alloc__net__context__x.html#a11c33085d6c48cc3684d45ae1f91b354" target="_top" xlink:title=" ">
<polygon fill="white" stroke="#666666" points="600.5,-174 475.5,-174 475.5,-144 600.5,-144 600.5,-174"/>
<text text-anchor="start" x="483.5" y="-162" font-family="Helvetica,sans-Serif" font-size="10.00">lci::alloc_net_context</text>
<text text-anchor="middle" x="538" y="-151" font-family="Helvetica,sans-Serif" font-size="10.00">_x::ofi_provider_name</text>
</a>
</g>
</g>
<!-- Node2&#45;&gt;Node14 -->
<g id="edge38_Node000002_Node000014" class="edge">
<title>Node2&#45;&gt;Node14</title>
<g id="a_edge38_Node000002_Node000014"><a xlink:title=" ">
<path fill="none" stroke="#63b8ff" d="M234.08,-282.91C252.28,-267.5 282.48,-243.8 312,-229 360.89,-204.48 420.08,-186.48 465.47,-174.88"/>
<polygon fill="#63b8ff" stroke="#63b8ff" points="466.39,-178.26 475.24,-172.43 464.68,-171.47 466.39,-178.26"/>
</a>
</g>
</g>
<!-- Node15 -->
<g id="Node000015" class="node">
<title>Node15</title>
<g id="a_Node000015"><a xlink:href="../../d9/d2c/classlci_1_1alloc__net__context__x.html#a3cc9f4bac3c372009fe44dbd77153c19" target="_top" xlink:title=" ">
<polygon fill="white" stroke="#666666" points="598,-126 478,-126 478,-96 598,-96 598,-126"/>
<text text-anchor="start" x="486" y="-114" font-family="Helvetica,sans-Serif" font-size="10.00">lci::alloc_net_context</text>
<text text-anchor="middle" x="538" y="-103" font-family="Helvetica,sans-Serif" font-size="10.00">_x::runtime</text>
</a>
</g>
</g>
<!-- Node2&#45;&gt;Node15 -->
<g id="edge39_Node000002_Node000015" class="edge">
<title>Node2&#45;&gt;Node15</title>
<g id="a_edge39_Node000002_Node000015"><a xlink:title=" ">
<path fill="none" stroke="#63b8ff" d="M225.11,-282.91C239.36,-257.83 271.28,-207.58 312,-180 358.8,-148.3 420.73,-130.71 467.77,-121.24"/>
<polygon fill="#63b8ff" stroke="#63b8ff" points="468.72,-124.62 477.87,-119.29 467.39,-117.75 468.72,-124.62"/>
</a>
</g>
</g>
<!-- Node16 -->
<g id="Node000016" class="node">
<title>Node16</title>
<g id="a_Node000016"><a xlink:href="../../d9/d2c/classlci_1_1alloc__net__context__x.html#aabdd8693975475fef49f39019610a4ae" target="_top" xlink:title=" ">
<polygon fill="white" stroke="#666666" points="598,-78 478,-78 478,-48 598,-48 598,-78"/>
<text text-anchor="start" x="486" y="-66" font-family="Helvetica,sans-Serif" font-size="10.00">lci::alloc_net_context</text>
<text text-anchor="middle" x="538" y="-55" font-family="Helvetica,sans-Serif" font-size="10.00">_x::use_dmabuf</text>
</a>
</g>
</g>
<!-- Node2&#45;&gt;Node16 -->
<g id="edge40_Node000002_Node000016" class="edge">
<title>Node2&#45;&gt;Node16</title>
<g id="a_edge40_Node000002_Node000016"><a xlink:title=" ">
<path fill="none" stroke="#63b8ff" d="M220.97,-282.99C230.61,-249.51 258.51,-168.35 312,-126 356.54,-90.74 419.68,-75.21 467.74,-68.37"/>
<polygon fill="#63b8ff" stroke="#63b8ff" points="468.31,-71.82 477.76,-67.03 467.38,-64.88 468.31,-71.82"/>
</a>
</g>
</g>
<!-- Node17 -->
<g id="Node000017" class="node">
<title>Node17</title>
<g id="a_Node000017"><a xlink:href="../../d9/d2c/classlci_1_1alloc__net__context__x.html#a875d4f78abda2116a3ea1982116165a3" target="_top" xlink:title=" ">
<polygon fill="white" stroke="#666666" points="598,-30 478,-30 478,0 598,0 598,-30"/>
<text text-anchor="start" x="486" y="-18" font-family="Helvetica,sans-Serif" font-size="10.00">lci::alloc_net_context</text>
<text text-anchor="middle" x="538" y="-7" font-family="Helvetica,sans-Serif" font-size="10.00">_x::user_context</text>
</a>
</g>
</g>
<!-- Node2&#45;&gt;Node17 -->
<g id="edge41_Node000002_Node000017" class="edge">
<title>Node2&#45;&gt;Node17</title>
<g id="a_edge41_Node000002_Node000017"><a xlink:title=" ">
<path fill="none" stroke="#63b8ff" d="M218.69,-282.86C224.1,-242.01 244.73,-128.73 312,-71 355.07,-34.05 418.93,-20.81 467.63,-16.38"/>
<polygon fill="#63b8ff" stroke="#63b8ff" points="468.09,-19.85 477.78,-15.56 467.53,-12.87 468.09,-19.85"/>
</a>
</g>
</g>
<!-- Node4 -->
<g id="Node000004" class="node">
<title>Node4</title>
<g id="a_Node000004"><a xlink:href="../../d9/d2c/classlci_1_1alloc__net__context__x.html#a4906e72fa75cb21741c0248836701237" target="_top" xlink:title=" ">
<polygon fill="white" stroke="#666666" points="775,-318 644,-318 644,-288 775,-288 775,-318"/>
<text text-anchor="start" x="652" y="-306" font-family="Helvetica,sans-Serif" font-size="10.00">lci::alloc_net_context</text>
<text text-anchor="middle" x="709.5" y="-295" font-family="Helvetica,sans-Serif" font-size="10.00">_x::alloc_net_context_x</text>
</a>
</g>
</g>
<!-- Node3&#45;&gt;Node4 -->
<g id="edge3_Node000003_Node000004" class="edge">
<title>Node3&#45;&gt;Node4</title>
<g id="a_edge3_Node000003_Node000004"><a xlink:title=" ">
<path fill="none" stroke="#63b8ff" d="M596.09,-587.99C600.43,-585.44 604.48,-582.47 608,-579 679.86,-508.17 700.68,-381.95 706.42,-328.27"/>
<polygon fill="#63b8ff" stroke="#63b8ff" points="709.91,-328.55 707.41,-318.26 702.95,-327.87 709.91,-328.55"/>
</a>
</g>
</g>
<!-- Node5&#45;&gt;Node3 -->
<g id="edge5_Node000005_Node000003" class="edge">
<title>Node5&#45;&gt;Node3</title>
<g id="a_edge5_Node000005_Node000003"><a xlink:title=" ">
<path fill="none" stroke="#63b8ff" d="M374.15,-335.25C378.3,-379.37 396.28,-508.48 468,-579 469.1,-580.08 470.26,-581.12 471.45,-582.11"/>
<polygon fill="#63b8ff" stroke="#63b8ff" points="469.71,-585.16 479.92,-587.98 473.7,-579.4 469.71,-585.16"/>
</a>
</g>
</g>
<!-- Node5&#45;&gt;Node6 -->
<g id="edge6_Node000005_Node000006" class="edge">
<title>Node5&#45;&gt;Node6</title>
<g id="a_edge6_Node000005_Node000006"><a xlink:title=" ">
<path fill="none" stroke="#63b8ff" d="M375.58,-335.17C382.88,-373.54 407.25,-475.39 468,-531 469.29,-532.18 470.63,-533.3 472.03,-534.36"/>
<polygon fill="#63b8ff" stroke="#63b8ff" points="470.23,-537.37 480.52,-539.89 474.05,-531.5 470.23,-537.37"/>
</a>
</g>
</g>
<!-- Node5&#45;&gt;Node7 -->
<g id="edge8_Node000005_Node000007" class="edge">
<title>Node5&#45;&gt;Node7</title>
<g id="a_edge8_Node000005_Node000007"><a xlink:title=" ">
<path fill="none" stroke="#63b8ff" d="M379,-335.39C391.37,-365.32 422.42,-431.85 468,-471 469.52,-472.31 471.11,-473.57 472.75,-474.78"/>
<polygon fill="#63b8ff" stroke="#63b8ff" points="471.07,-477.86 481.34,-480.45 474.92,-472.02 471.07,-477.86"/>
</a>
</g>
</g>
<!-- Node5&#45;&gt;Node8 -->
<g id="edge10_Node000005_Node000008" class="edge">
<title>Node5&#45;&gt;Node8</title>
<g id="a_edge10_Node000005_Node000008"><a xlink:title=" ">
<path fill="none" stroke="#63b8ff" d="M383.2,-335.13C398.93,-357.37 431.18,-398.86 468,-423 470.44,-424.6 472.99,-426.1 475.62,-427.52"/>
<polygon fill="#63b8ff" stroke="#63b8ff" points="474.29,-430.76 484.81,-431.98 477.35,-424.46 474.29,-430.76"/>
</a>
</g>
</g>
<!-- Node5&#45;&gt;Node9 -->
<g id="edge12_Node000005_Node000009" class="edge">
<title>Node5&#45;&gt;Node9</title>
<g id="a_edge12_Node000005_Node000009"><a xlink:title=" ">
<path fill="none" stroke="#63b8ff" d="M396.15,-335.07C414.99,-346.93 442.53,-363.33 468,-375 472,-376.83 476.18,-378.61 480.42,-380.31"/>
<polygon fill="#63b8ff" stroke="#63b8ff" points="479.17,-383.58 489.76,-383.91 481.69,-377.05 479.17,-383.58"/>
</a>
</g>
</g>
<!-- Node5&#45;&gt;Node10 -->
<g id="edge14_Node000005_Node000010" class="edge">
<title>Node5&#45;&gt;Node10</title>
<g id="a_edge14_Node000005_Node000010"><a xlink:title=" ">
<path fill="none" stroke="#63b8ff" d="M432.21,-331.19C440.52,-332.76 449.17,-334.4 457.77,-336.02"/>
<polygon fill="#63b8ff" stroke="#63b8ff" points="457.36,-339.51 467.84,-337.93 458.66,-332.63 457.36,-339.51"/>
</a>
</g>
</g>
<!-- Node5&#45;&gt;Node11 -->
<g id="edge16_Node000005_Node000011" class="edge">
<title>Node5&#45;&gt;Node11</title>
<g id="a_edge16_Node000005_Node000011"><a xlink:title=" ">
<path fill="none" stroke="#63b8ff" d="M432.21,-313.86C443.7,-312.67 455.85,-311.41 467.64,-310.19"/>
<polygon fill="#63b8ff" stroke="#63b8ff" points="468.29,-313.64 477.88,-309.13 467.57,-306.68 468.29,-313.64"/>
</a>
</g>
</g>
<!-- Node5&#45;&gt;Node12 -->
<g id="edge18_Node000005_Node000012" class="edge">
<title>Node5&#45;&gt;Node12</title>
<g id="a_edge18_Node000005_Node000012"><a xlink:title=" ">
<path fill="none" stroke="#63b8ff" d="M406.17,-304.98C424.3,-296.95 447.24,-287.08 468,-279 472.75,-277.15 477.72,-275.29 482.71,-273.47"/>
<polygon fill="#63b8ff" stroke="#63b8ff" points="484.06,-276.7 492.29,-270.02 481.69,-270.11 484.06,-276.7"/>
</a>
</g>
</g>
<!-- Node5&#45;&gt;Node13 -->
<g id="edge20_Node000005_Node000013" class="edge">
<title>Node5&#45;&gt;Node13</title>
<g id="a_edge20_Node000005_Node000013"><a xlink:title=" ">
<path fill="none" stroke="#63b8ff" d="M385.64,-304.72C402.55,-285.15 434.35,-251.34 468,-231 470.77,-229.33 473.67,-227.75 476.65,-226.26"/>
<polygon fill="#63b8ff" stroke="#63b8ff" points="478.14,-229.43 485.77,-222.08 475.22,-223.07 478.14,-229.43"/>
</a>
</g>
</g>
<!-- Node5&#45;&gt;Node14 -->
<g id="edge22_Node000005_Node000014" class="edge">
<title>Node5&#45;&gt;Node14</title>
<g id="a_edge22_Node000005_Node000014"><a xlink:title=" ">
<path fill="none" stroke="#63b8ff" d="M379.55,-304.9C392.44,-276.87 423.75,-216.61 468,-183 469.85,-181.6 471.78,-180.27 473.78,-179.02"/>
<polygon fill="#63b8ff" stroke="#63b8ff" points="475.83,-181.89 482.91,-174 472.46,-175.75 475.83,-181.89"/>
</a>
</g>
</g>
<!-- Node5&#45;&gt;Node15 -->
<g id="edge24_Node000005_Node000015" class="edge">
<title>Node5&#45;&gt;Node15</title>
<g id="a_edge24_Node000005_Node000015"><a xlink:title=" ">
<path fill="none" stroke="#63b8ff" d="M376.62,-304.91C385.76,-269.94 413.09,-182.73 468,-135 469.35,-133.83 470.76,-132.71 472.22,-131.65"/>
<polygon fill="#63b8ff" stroke="#63b8ff" points="474.42,-134.4 481.05,-126.13 470.71,-128.46 474.42,-134.4"/>
</a>
</g>
</g>
<!-- Node5&#45;&gt;Node16 -->
<g id="edge26_Node000005_Node000016" class="edge">
<title>Node5&#45;&gt;Node16</title>
<g id="a_edge26_Node000005_Node000016"><a xlink:title=" ">
<path fill="none" stroke="#63b8ff" d="M374.86,-304.8C380.67,-263.72 402.25,-149.39 468,-87 469.12,-85.94 470.29,-84.92 471.51,-83.95"/>
<polygon fill="#63b8ff" stroke="#63b8ff" points="473.73,-86.66 480.05,-78.16 469.81,-80.87 473.73,-86.66"/>
</a>
</g>
</g>
<!-- Node5&#45;&gt;Node17 -->
<g id="edge28_Node000005_Node000017" class="edge">
<title>Node5&#45;&gt;Node17</title>
<g id="a_edge28_Node000005_Node000017"><a xlink:title=" ">
<path fill="none" stroke="#63b8ff" d="M373.64,-304.82C376.43,-258.36 391.14,-116.53 468,-39 469.06,-37.93 470.17,-36.91 471.32,-35.93"/>
<polygon fill="#63b8ff" stroke="#63b8ff" points="473.37,-38.77 479.49,-30.12 469.31,-33.07 473.37,-38.77"/>
</a>
</g>
</g>
<!-- Node6&#45;&gt;Node4 -->
<g id="edge7_Node000006_Node000004" class="edge">
<title>Node6&#45;&gt;Node4</title>
<g id="a_edge7_Node000006_Node000004"><a xlink:title=" ">
<path fill="none" stroke="#63b8ff" d="M595.51,-539.92C600.02,-537.39 604.27,-534.44 608,-531 669.06,-474.67 695.06,-374.55 704.25,-328.04"/>
<polygon fill="#63b8ff" stroke="#63b8ff" points="707.69,-328.66 706.1,-318.19 700.81,-327.37 707.69,-328.66"/>
</a>
</g>
</g>
<!-- Node7&#45;&gt;Node4 -->
<g id="edge9_Node000007_Node000004" class="edge">
<title>Node7&#45;&gt;Node4</title>
<g id="a_edge9_Node000007_Node000004"><a xlink:title=" ">
<path fill="none" stroke="#63b8ff" d="M595.09,-480.33C599.69,-477.55 604.07,-474.45 608,-471 654.01,-430.57 685.04,-363.81 699.39,-327.83"/>
<polygon fill="#63b8ff" stroke="#63b8ff" points="702.8,-328.71 703.15,-318.12 696.27,-326.18 702.8,-328.71"/>
</a>
</g>
</g>
<!-- Node8&#45;&gt;Node4 -->
<g id="edge11_Node000008_Node000004" class="edge">
<title>Node8&#45;&gt;Node4</title>
<g id="a_edge11_Node000008_Node000004"><a xlink:title=" ">
<path fill="none" stroke="#63b8ff" d="M592.07,-431.9C597.66,-429.34 603.09,-426.39 608,-423 645.41,-397.18 676.84,-353.86 694.13,-326.94"/>
<polygon fill="#63b8ff" stroke="#63b8ff" points="697.29,-328.49 699.65,-318.16 691.37,-324.77 697.29,-328.49"/>
</a>
</g>
</g>
<!-- Node9&#45;&gt;Node4 -->
<g id="edge13_Node000009_Node000004" class="edge">
<title>Node9&#45;&gt;Node4</title>
<g id="a_edge13_Node000009_Node000004"><a xlink:title=" ">
<path fill="none" stroke="#63b8ff" d="M587.99,-383.93C594.85,-381.26 601.69,-378.27 608,-375 635.18,-360.91 663.27,-340.17 682.82,-324.57"/>
<polygon fill="#63b8ff" stroke="#63b8ff" points="685.08,-327.24 690.64,-318.23 680.67,-321.8 685.08,-327.24"/>
</a>
</g>
</g>
<!-- Node10&#45;&gt;Node4 -->
<g id="edge15_Node000010_Node000004" class="edge">
<title>Node10&#45;&gt;Node4</title>
<g id="a_edge15_Node000010_Node000004"><a xlink:title=" ">
<path fill="none" stroke="#63b8ff" d="M592.17,-335.94C609.2,-331.12 628.23,-325.73 645.88,-320.73"/>
<polygon fill="#63b8ff" stroke="#63b8ff" points="646.85,-324.09 655.52,-318 644.95,-317.36 646.85,-324.09"/>
</a>
</g>
</g>
<!-- Node11&#45;&gt;Node4 -->
<g id="edge17_Node000011_Node000004" class="edge">
<title>Node11&#45;&gt;Node4</title>
<g id="a_edge17_Node000011_Node000004"><a xlink:title=" ">
<path fill="none" stroke="#63b8ff" d="M598.28,-303C609.65,-303 621.7,-303 633.49,-303"/>
<polygon fill="#63b8ff" stroke="#63b8ff" points="633.76,-306.5 643.76,-303 633.76,-299.5 633.76,-306.5"/>
</a>
</g>
</g>
<!-- Node12&#45;&gt;Node4 -->
<g id="edge19_Node000012_Node000004" class="edge">
<title>Node12&#45;&gt;Node4</title>
<g id="a_edge19_Node000012_Node000004"><a xlink:title=" ">
<path fill="none" stroke="#63b8ff" d="M592.17,-270.06C609.2,-274.88 628.23,-280.27 645.88,-285.27"/>
<polygon fill="#63b8ff" stroke="#63b8ff" points="644.95,-288.64 655.52,-288 646.85,-281.91 644.95,-288.64"/>
</a>
</g>
</g>
<!-- Node13&#45;&gt;Node4 -->
<g id="edge21_Node000013_Node000004" class="edge">
<title>Node13&#45;&gt;Node4</title>
<g id="a_edge21_Node000013_Node000004"><a xlink:title=" ">
<path fill="none" stroke="#63b8ff" d="M587.99,-222.07C594.85,-224.74 601.69,-227.73 608,-231 635.18,-245.09 663.27,-265.83 682.82,-281.43"/>
<polygon fill="#63b8ff" stroke="#63b8ff" points="680.67,-284.2 690.64,-287.77 685.08,-278.76 680.67,-284.2"/>
</a>
</g>
</g>
<!-- Node14&#45;&gt;Node4 -->
<g id="edge23_Node000014_Node000004" class="edge">
<title>Node14&#45;&gt;Node4</title>
<g id="a_edge23_Node000014_Node000004"><a xlink:title=" ">
<path fill="none" stroke="#63b8ff" d="M592.07,-174.1C597.66,-176.66 603.09,-179.61 608,-183 645.41,-208.82 676.84,-252.14 694.13,-279.06"/>
<polygon fill="#63b8ff" stroke="#63b8ff" points="691.37,-281.23 699.65,-287.84 697.29,-277.51 691.37,-281.23"/>
</a>
</g>
</g>
<!-- Node15&#45;&gt;Node4 -->
<g id="edge25_Node000015_Node000004" class="edge">
<title>Node15&#45;&gt;Node4</title>
<g id="a_edge25_Node000015_Node000004"><a xlink:title=" ">
<path fill="none" stroke="#63b8ff" d="M594.03,-126.05C599.01,-128.59 603.77,-131.56 608,-135 655.71,-173.83 686.19,-241.73 699.96,-278.18"/>
<polygon fill="#63b8ff" stroke="#63b8ff" points="696.67,-279.39 703.4,-287.58 703.25,-276.99 696.67,-279.39"/>
</a>
</g>
</g>
<!-- Node16&#45;&gt;Node4 -->
<g id="edge27_Node000016_Node000004" class="edge">
<title>Node16&#45;&gt;Node4</title>
<g id="a_edge27_Node000016_Node000004"><a xlink:title=" ">
<path fill="none" stroke="#63b8ff" d="M595.44,-78.16C599.96,-80.67 604.24,-83.6 608,-87 666.25,-139.66 693.37,-233 703.5,-277.73"/>
<polygon fill="#63b8ff" stroke="#63b8ff" points="700.14,-278.72 705.67,-287.75 706.98,-277.24 700.14,-278.72"/>
</a>
</g>
</g>
<!-- Node17&#45;&gt;Node4 -->
<g id="edge29_Node000017_Node000004" class="edge">
<title>Node17&#45;&gt;Node4</title>
<g id="a_edge29_Node000017_Node000004"><a xlink:title=" ">
<path fill="none" stroke="#63b8ff" d="M596.04,-30.07C600.38,-32.6 604.45,-35.55 608,-39 677.13,-106.15 699.35,-225.78 705.94,-277.74"/>
<polygon fill="#63b8ff" stroke="#63b8ff" points="702.48,-278.24 707.12,-287.76 709.43,-277.42 702.48,-278.24"/>
</a>
</g>
</g>
</g>
</svg>
