<?xml version="1.0" encoding="UTF-8" standalone="no"?>
<!DOCTYPE svg PUBLIC "-//W3C//DTD SVG 1.1//EN"
 "http://www.w3.org/Graphics/SVG/1.1/DTD/svg11.dtd">
<!-- Generated by graphviz version 2.43.0 (0)
 -->
<!-- Title: lci::alloc_net_context_x::alloc_net_context_x Pages: 1 -->
<svg width="783pt" height="530pt"
 viewBox="0.00 0.00 783.00 530.00" xmlns="http://www.w3.org/2000/svg" xmlns:xlink="http://www.w3.org/1999/xlink">
<g id="graph0" class="graph" transform="scale(1 1) rotate(0) translate(4 526)">
<title>lci::alloc_net_context_x::alloc_net_context_x</title>
<!-- Node1 -->
<g id="Node000001" class="node">
<title>Node1</title>
<g id="a_Node000001"><a xlink:title=" ">
<polygon fill="#999999" stroke="#666666" points="775,-270 644,-270 644,-240 775,-240 775,-270"/>
<text text-anchor="start" x="652" y="-258" font-family="Helvetica,sans-Serif" font-size="10.00">lci::alloc_net_context</text>
<text text-anchor="middle" x="709.5" y="-247" font-family="Helvetica,sans-Serif" font-size="10.00">_x::alloc_net_context_x</text>
</a>
</g>
</g>
<!-- Node2 -->
<g id="Node000002" class="node">
<title>Node2</title>
<g id="a_Node000002"><a xlink:href="../../d9/d2c/classlci_1_1alloc__net__context__x.html#a924ac87bf6d7c2eb6b52768734dee344" target="_top" xlink:title=" ">
<polygon fill="white" stroke="#666666" points="598,-522 478,-522 478,-492 598,-492 598,-522"/>
<text text-anchor="start" x="486" y="-510" font-family="Helvetica,sans-Serif" font-size="10.00">lci::alloc_net_context</text>
<text text-anchor="middle" x="538" y="-499" font-family="Helvetica,sans-Serif" font-size="10.00">_x::backend</text>
</a>
</g>
</g>
<!-- Node1&#45;&gt;Node2 -->
<g id="edge1_Node000001_Node000002" class="edge">
<title>Node1&#45;&gt;Node2</title>
<g id="a_edge1_Node000001_Node000002"><a xlink:title=" ">
<path fill="none" stroke="#63b8ff" d="M704.25,-280.04C695.06,-326.55 669.06,-426.67 608,-483 604.27,-486.44 600.02,-489.39 595.51,-491.92"/>
<polygon fill="#63b8ff" stroke="#63b8ff" points="707.69,-280.66 706.1,-270.19 700.81,-279.37 707.69,-280.66"/>
</a>
</g>
</g>
<!-- Node7 -->
<g id="Node000007" class="node">
<title>Node7</title>
<g id="a_Node000007"><a xlink:href="../../d9/d2c/classlci_1_1alloc__net__context__x.html#a9fe41e79d8eb835bbe41fc713b0971cf" target="_top" xlink:title=" ">
<polygon fill="white" stroke="#666666" points="601,-473.5 475,-473.5 475,-432.5 601,-432.5 601,-473.5"/>
<text text-anchor="start" x="483" y="-461.5" font-family="Helvetica,sans-Serif" font-size="10.00">lci::alloc_net_context</text>
<text text-anchor="start" x="483" y="-450.5" font-family="Helvetica,sans-Serif" font-size="10.00">_x::ibv_force_gid_auto</text>
<text text-anchor="middle" x="538" y="-439.5" font-family="Helvetica,sans-Serif" font-size="10.00">_select</text>
</a>
</g>
</g>
<!-- Node1&#45;&gt;Node7 -->
<g id="edge7_Node000001_Node000007" class="edge">
<title>Node1&#45;&gt;Node7</title>
<g id="a_edge7_Node000001_Node000007"><a xlink:title=" ">
<path fill="none" stroke="#63b8ff" d="M699.39,-279.83C685.04,-315.81 654.01,-382.57 608,-423 604.07,-426.45 599.69,-429.55 595.09,-432.33"/>
<polygon fill="#63b8ff" stroke="#63b8ff" points="702.8,-280.71 703.15,-270.12 696.27,-278.18 702.8,-280.71"/>
</a>
</g>
</g>
<!-- Node8 -->
<g id="Node000008" class="node">
<title>Node8</title>
<g id="a_Node000008"><a xlink:href="../../d9/d2c/classlci_1_1alloc__net__context__x.html#a41c846e3f23a79c2ed6832493cfbdf32" target="_top" xlink:title=" ">
<polygon fill="white" stroke="#666666" points="598,-414 478,-414 478,-384 598,-384 598,-414"/>
<text text-anchor="start" x="486" y="-402" font-family="Helvetica,sans-Serif" font-size="10.00">lci::alloc_net_context</text>
<text text-anchor="middle" x="538" y="-391" font-family="Helvetica,sans-Serif" font-size="10.00">_x::ibv_gid_idx</text>
</a>
</g>
</g>
<!-- Node1&#45;&gt;Node8 -->
<g id="edge10_Node000001_Node000008" class="edge">
<title>Node1&#45;&gt;Node8</title>
<g id="a_edge10_Node000001_Node000008"><a xlink:title=" ">
<path fill="none" stroke="#63b8ff" d="M694.13,-278.94C676.84,-305.86 645.41,-349.18 608,-375 603.09,-378.39 597.66,-381.34 592.07,-383.9"/>
<polygon fill="#63b8ff" stroke="#63b8ff" points="697.29,-280.49 699.65,-270.16 691.37,-276.77 697.29,-280.49"/>
</a>
</g>
</g>
<!-- Node9 -->
<g id="Node000009" class="node">
<title>Node9</title>
<g id="a_Node000009"><a xlink:href="../../d9/d2c/classlci_1_1alloc__net__context__x.html#aaad66599526eca49a9ee0dada3f8e35c" target="_top" xlink:title=" ">
<polygon fill="white" stroke="#666666" points="598,-366 478,-366 478,-336 598,-336 598,-366"/>
<text text-anchor="start" x="486" y="-354" font-family="Helvetica,sans-Serif" font-size="10.00">lci::alloc_net_context</text>
<text text-anchor="middle" x="538" y="-343" font-family="Helvetica,sans-Serif" font-size="10.00">_x::ibv_odp_strategy</text>
</a>
</g>
</g>
<!-- Node1&#45;&gt;Node9 -->
<g id="edge13_Node000001_Node000009" class="edge">
<title>Node1&#45;&gt;Node9</title>
<g id="a_edge13_Node000001_Node000009"><a xlink:title=" ">
<path fill="none" stroke="#63b8ff" d="M682.82,-276.57C663.27,-292.17 635.18,-312.91 608,-327 601.69,-330.27 594.85,-333.26 587.99,-335.93"/>
<polygon fill="#63b8ff" stroke="#63b8ff" points="685.08,-279.24 690.64,-270.23 680.67,-273.8 685.08,-279.24"/>
</a>
</g>
</g>
<!-- Node10 -->
<g id="Node000010" class="node">
<title>Node10</title>
<g id="a_Node000010"><a xlink:href="../../d9/d2c/classlci_1_1alloc__net__context__x.html#a2c1d71a830f38024cb6193d55e088fb8" target="_top" xlink:title=" ">
<polygon fill="white" stroke="#666666" points="608,-318 468,-318 468,-288 608,-288 608,-318"/>
<text text-anchor="start" x="476" y="-306" font-family="Helvetica,sans-Serif" font-size="10.00">lci::alloc_net_context</text>
<text text-anchor="middle" x="538" y="-295" font-family="Helvetica,sans-Serif" font-size="10.00">_x::ibv_prefetch_strategy</text>
</a>
</g>
</g>
<!-- Node1&#45;&gt;Node10 -->
<g id="edge16_Node000001_Node000010" class="edge">
<title>Node1&#45;&gt;Node10</title>
<g id="a_edge16_Node000001_Node000010"><a xlink:title=" ">
<path fill="none" stroke="#63b8ff" d="M645.69,-272.79C628.03,-277.79 609,-283.18 591.98,-288"/>
<polygon fill="#63b8ff" stroke="#63b8ff" points="646.67,-276.15 655.33,-270.06 644.76,-269.41 646.67,-276.15"/>
</a>
</g>
</g>
<!-- Node11 -->
<g id="Node000011" class="node">
<title>Node11</title>
<g id="a_Node000011"><a xlink:href="../../d9/d2c/classlci_1_1alloc__net__context__x.html#a6654c9eac4872fca14364abd71f579f1" target="_top" xlink:title=" ">
<polygon fill="white" stroke="#666666" points="598,-270 478,-270 478,-240 598,-240 598,-270"/>
<text text-anchor="start" x="486" y="-258" font-family="Helvetica,sans-Serif" font-size="10.00">lci::alloc_net_context</text>
<text text-anchor="middle" x="538" y="-247" font-family="Helvetica,sans-Serif" font-size="10.00">_x::max_inject_size</text>
</a>
</g>
</g>
<!-- Node1&#45;&gt;Node11 -->
<g id="edge19_Node000001_Node000011" class="edge">
<title>Node1&#45;&gt;Node11</title>
<g id="a_edge19_Node000001_Node000011"><a xlink:title=" ">
<path fill="none" stroke="#63b8ff" d="M633.58,-255C621.7,-255 609.55,-255 598.1,-255"/>
<polygon fill="#63b8ff" stroke="#63b8ff" points="633.94,-258.5 643.94,-255 633.94,-251.5 633.94,-258.5"/>
</a>
</g>
</g>
<!-- Node12 -->
<g id="Node000012" class="node">
<title>Node12</title>
<g id="a_Node000012"><a xlink:href="../../d9/d2c/classlci_1_1alloc__net__context__x.html#ad264e33dba3328ba304b8727d91fea36" target="_top" xlink:title=" ">
<polygon fill="white" stroke="#666666" points="598,-222 478,-222 478,-192 598,-192 598,-222"/>
<text text-anchor="start" x="486" y="-210" font-family="Helvetica,sans-Serif" font-size="10.00">lci::alloc_net_context</text>
<text text-anchor="middle" x="538" y="-199" font-family="Helvetica,sans-Serif" font-size="10.00">_x::max_msg_size</text>
</a>
</g>
</g>
<!-- Node1&#45;&gt;Node12 -->
<g id="edge22_Node000001_Node000012" class="edge">
<title>Node1&#45;&gt;Node12</title>
<g id="a_edge22_Node000001_Node000012"><a xlink:title=" ">
<path fill="none" stroke="#63b8ff" d="M645.69,-237.21C628.03,-232.21 609,-226.82 591.98,-222"/>
<polygon fill="#63b8ff" stroke="#63b8ff" points="644.76,-240.59 655.33,-239.94 646.67,-233.85 644.76,-240.59"/>
</a>
</g>
</g>
<!-- Node13 -->
<g id="Node000013" class="node">
<title>Node13</title>
<g id="a_Node000013"><a xlink:href="../../d9/d2c/classlci_1_1alloc__net__context__x.html#a11c33085d6c48cc3684d45ae1f91b354" target="_top" xlink:title=" ">
<polygon fill="white" stroke="#666666" points="600.5,-174 475.5,-174 475.5,-144 600.5,-144 600.5,-174"/>
<text text-anchor="start" x="483.5" y="-162" font-family="Helvetica,sans-Serif" font-size="10.00">lci::alloc_net_context</text>
<text text-anchor="middle" x="538" y="-151" font-family="Helvetica,sans-Serif" font-size="10.00">_x::ofi_provider_name</text>
</a>
</g>
</g>
<!-- Node1&#45;&gt;Node13 -->
<g id="edge25_Node000001_Node000013" class="edge">
<title>Node1&#45;&gt;Node13</title>
<g id="a_edge25_Node000001_Node000013"><a xlink:title=" ">
<path fill="none" stroke="#63b8ff" d="M682.82,-233.43C663.27,-217.83 635.18,-197.09 608,-183 601.69,-179.73 594.85,-176.74 587.99,-174.07"/>
<polygon fill="#63b8ff" stroke="#63b8ff" points="680.67,-236.2 690.64,-239.77 685.08,-230.76 680.67,-236.2"/>
</a>
</g>
</g>
<!-- Node14 -->
<g id="Node000014" class="node">
<title>Node14</title>
<g id="a_Node000014"><a xlink:href="../../d9/d2c/classlci_1_1alloc__net__context__x.html#a3cc9f4bac3c372009fe44dbd77153c19" target="_top" xlink:title=" ">
<polygon fill="white" stroke="#666666" points="598,-126 478,-126 478,-96 598,-96 598,-126"/>
<text text-anchor="start" x="486" y="-114" font-family="Helvetica,sans-Serif" font-size="10.00">lci::alloc_net_context</text>
<text text-anchor="middle" x="538" y="-103" font-family="Helvetica,sans-Serif" font-size="10.00">_x::runtime</text>
</a>
</g>
</g>
<!-- Node1&#45;&gt;Node14 -->
<g id="edge28_Node000001_Node000014" class="edge">
<title>Node1&#45;&gt;Node14</title>
<g id="a_edge28_Node000001_Node000014"><a xlink:title=" ">
<path fill="none" stroke="#63b8ff" d="M694.13,-231.06C676.84,-204.14 645.41,-160.82 608,-135 603.09,-131.61 597.66,-128.66 592.07,-126.1"/>
<polygon fill="#63b8ff" stroke="#63b8ff" points="691.37,-233.23 699.65,-239.84 697.29,-229.51 691.37,-233.23"/>
</a>
</g>
</g>
<!-- Node15 -->
<g id="Node000015" class="node">
<title>Node15</title>
<g id="a_Node000015"><a xlink:href="../../d9/d2c/classlci_1_1alloc__net__context__x.html#aabdd8693975475fef49f39019610a4ae" target="_top" xlink:title=" ">
<polygon fill="white" stroke="#666666" points="598,-78 478,-78 478,-48 598,-48 598,-78"/>
<text text-anchor="start" x="486" y="-66" font-family="Helvetica,sans-Serif" font-size="10.00">lci::alloc_net_context</text>
<text text-anchor="middle" x="538" y="-55" font-family="Helvetica,sans-Serif" font-size="10.00">_x::use_dmabuf</text>
</a>
</g>
</g>
<!-- Node1&#45;&gt;Node15 -->
<g id="edge31_Node000001_Node000015" class="edge">
<title>Node1&#45;&gt;Node15</title>
<g id="a_edge31_Node000001_Node000015"><a xlink:title=" ">
<path fill="none" stroke="#63b8ff" d="M699.96,-230.18C686.19,-193.73 655.71,-125.83 608,-87 603.77,-83.56 599.01,-80.59 594.03,-78.05"/>
<polygon fill="#63b8ff" stroke="#63b8ff" points="696.67,-231.39 703.4,-239.58 703.25,-228.99 696.67,-231.39"/>
</a>
</g>
</g>
<!-- Node16 -->
<g id="Node000016" class="node">
<title>Node16</title>
<g id="a_Node000016"><a xlink:href="../../d9/d2c/classlci_1_1alloc__net__context__x.html#a875d4f78abda2116a3ea1982116165a3" target="_top" xlink:title=" ">
<polygon fill="white" stroke="#666666" points="598,-30 478,-30 478,0 598,0 598,-30"/>
<text text-anchor="start" x="486" y="-18" font-family="Helvetica,sans-Serif" font-size="10.00">lci::alloc_net_context</text>
<text text-anchor="middle" x="538" y="-7" font-family="Helvetica,sans-Serif" font-size="10.00">_x::user_context</text>
</a>
</g>
</g>
<!-- Node1&#45;&gt;Node16 -->
<g id="edge34_Node000001_Node000016" class="edge">
<title>Node1&#45;&gt;Node16</title>
<g id="a_edge34_Node000001_Node000016"><a xlink:title=" ">
<path fill="none" stroke="#63b8ff" d="M703.5,-229.73C693.37,-185 666.25,-91.66 608,-39 604.24,-35.6 599.96,-32.67 595.44,-30.16"/>
<polygon fill="#63b8ff" stroke="#63b8ff" points="700.14,-230.72 705.67,-239.75 706.98,-229.24 700.14,-230.72"/>
</a>
</g>
</g>
<!-- Node3 -->
<g id="Node000003" class="node">
<title>Node3</title>
<g id="a_Node000003"><a xlink:href="../../d9/d2c/classlci_1_1alloc__net__context__x.html#ad70070ae0aaa12a3a7ab0be8f9f84dbc" target="_top" xlink:title=" ">
<polygon fill="white" stroke="#666666" points="276,-265 156,-265 156,-235 276,-235 276,-265"/>
<text text-anchor="start" x="164" y="-253" font-family="Helvetica,sans-Serif" font-size="10.00">lci::alloc_net_context</text>
<text text-anchor="middle" x="216" y="-242" font-family="Helvetica,sans-Serif" font-size="10.00">_x::call</text>
</a>
</g>
</g>
<!-- Node2&#45;&gt;Node3 -->
<g id="edge2_Node000002_Node000003" class="edge">
<title>Node2&#45;&gt;Node3</title>
<g id="a_edge2_Node000002_Node000003"><a xlink:title=" ">
<path fill="none" stroke="#63b8ff" d="M468.2,-492.99C419.89,-480.24 356.25,-457.24 312,-418 262.36,-373.98 232.68,-297.56 221.78,-265.18"/>
<polygon fill="#63b8ff" stroke="#63b8ff" points="467.4,-496.4 477.96,-495.48 469.13,-489.62 467.4,-496.4"/>
</a>
</g>
</g>
<!-- Node6 -->
<g id="Node000006" class="node">
<title>Node6</title>
<g id="a_Node000006"><a xlink:href="../../d9/d2c/classlci_1_1alloc__net__context__x.html#a5c0e2ff8d01447d1d6e0884f2006be28" target="_top" xlink:title=" ">
<polygon fill="white" stroke="#666666" points="432,-287 312,-287 312,-257 432,-257 432,-287"/>
<text text-anchor="start" x="320" y="-275" font-family="Helvetica,sans-Serif" font-size="10.00">lci::alloc_net_context</text>
<text text-anchor="middle" x="372" y="-264" font-family="Helvetica,sans-Serif" font-size="10.00">_x::call_impl</text>
</a>
</g>
</g>
<!-- Node2&#45;&gt;Node6 -->
<g id="edge5_Node000002_Node000006" class="edge">
<title>Node2&#45;&gt;Node6</title>
<g id="a_edge5_Node000002_Node000006"><a xlink:title=" ">
<path fill="none" stroke="#63b8ff" d="M472.03,-486.36C470.63,-485.3 469.29,-484.18 468,-483 407.25,-427.39 382.88,-325.54 375.58,-287.17"/>
<polygon fill="#63b8ff" stroke="#63b8ff" points="470.23,-489.37 480.52,-491.89 474.05,-483.5 470.23,-489.37"/>
</a>
</g>
</g>
<!-- Node4 -->
<g id="Node000004" class="node">
<title>Node4</title>
<g id="a_Node000004"><a xlink:href="../../d5/dd3/namespacelci.html#a1cff68ba78f73159d31e3d6436a3ef40" target="_top" xlink:title=" ">
<polygon fill="white" stroke="#666666" points="120,-281.5 0,-281.5 0,-262.5 120,-262.5 120,-281.5"/>
<text text-anchor="middle" x="60" y="-269.5" font-family="Helvetica,sans-Serif" font-size="10.00">lci::alloc_net_context</text>
</a>
</g>
</g>
<!-- Node3&#45;&gt;Node4 -->
<g id="edge3_Node000003_Node000004" class="edge">
<title>Node3&#45;&gt;Node4</title>
<g id="a_edge3_Node000003_Node000004"><a xlink:title=" ">
<path fill="none" stroke="#63b8ff" d="M145.91,-259.87C137.33,-261.1 128.61,-262.34 120.2,-263.54"/>
<polygon fill="#63b8ff" stroke="#63b8ff" points="146.5,-263.32 155.9,-258.44 145.51,-256.39 146.5,-263.32"/>
</a>
</g>
</g>
<!-- Node5 -->
<g id="Node000005" class="node">
<title>Node5</title>
<g id="a_Node000005"><a xlink:href="../../d9/d2c/classlci_1_1alloc__net__context__x.html#af445224a5a84c85366d66cfcc0ad561f" target="_top" xlink:title=" ">
<polygon fill="white" stroke="#666666" points="120,-244 0,-244 0,-214 120,-214 120,-244"/>
<text text-anchor="start" x="8" y="-232" font-family="Helvetica,sans-Serif" font-size="10.00">lci::alloc_net_context</text>
<text text-anchor="middle" x="60" y="-221" font-family="Helvetica,sans-Serif" font-size="10.00">_x::operator()</text>
</a>
</g>
</g>
<!-- Node3&#45;&gt;Node5 -->
<g id="edge4_Node000003_Node000005" class="edge">
<title>Node3&#45;&gt;Node5</title>
<g id="a_edge4_Node000003_Node000005"><a xlink:title=" ">
<path fill="none" stroke="#63b8ff" d="M145.91,-240.58C137.33,-239.41 128.61,-238.22 120.2,-237.07"/>
<polygon fill="#63b8ff" stroke="#63b8ff" points="145.52,-244.06 155.9,-241.94 146.46,-237.12 145.52,-244.06"/>
</a>
</g>
</g>
<!-- Node6&#45;&gt;Node3 -->
<g id="edge6_Node000006_Node000003" class="edge">
<title>Node6&#45;&gt;Node3</title>
<g id="a_edge6_Node000006_Node000003"><a xlink:title=" ">
<path fill="none" stroke="#63b8ff" d="M301.91,-262.13C293.33,-260.9 284.61,-259.66 276.2,-258.46"/>
<polygon fill="#63b8ff" stroke="#63b8ff" points="301.51,-265.61 311.9,-263.56 302.5,-258.68 301.51,-265.61"/>
</a>
</g>
</g>
<!-- Node7&#45;&gt;Node3 -->
<g id="edge8_Node000007_Node000003" class="edge">
<title>Node7&#45;&gt;Node3</title>
<g id="a_edge8_Node000007_Node000003"><a xlink:title=" ">
<path fill="none" stroke="#63b8ff" d="M464.76,-440.63C417.87,-429.92 357.29,-410.82 312,-378 269.65,-347.31 238.05,-292.17 224.41,-265.41"/>
<polygon fill="#63b8ff" stroke="#63b8ff" points="464.02,-444.05 474.54,-442.79 465.53,-437.22 464.02,-444.05"/>
</a>
</g>
</g>
<!-- Node7&#45;&gt;Node6 -->
<g id="edge9_Node000007_Node000006" class="edge">
<title>Node7&#45;&gt;Node6</title>
<g id="a_edge9_Node000007_Node000006"><a xlink:title=" ">
<path fill="none" stroke="#63b8ff" d="M472.75,-426.78C471.11,-425.57 469.52,-424.31 468,-423 422.42,-383.85 391.37,-317.32 379,-287.39"/>
<polygon fill="#63b8ff" stroke="#63b8ff" points="471.07,-429.86 481.34,-432.45 474.92,-424.02 471.07,-429.86"/>
</a>
</g>
</g>
<!-- Node8&#45;&gt;Node3 -->
<g id="edge11_Node000008_Node000003" class="edge">
<title>Node8&#45;&gt;Node3</title>
<g id="a_edge11_Node000008_Node000003"><a xlink:title=" ">
<path fill="none" stroke="#63b8ff" d="M467.94,-391.89C421.51,-384.84 360.23,-370.97 312,-344 275.95,-323.84 244.11,-286.27 228.04,-265.25"/>
<polygon fill="#63b8ff" stroke="#63b8ff" points="467.51,-395.37 477.91,-393.34 468.51,-388.44 467.51,-395.37"/>
</a>
</g>
</g>
<!-- Node8&#45;&gt;Node6 -->
<g id="edge12_Node000008_Node000006" class="edge">
<title>Node8&#45;&gt;Node6</title>
<g id="a_edge12_Node000008_Node000006"><a xlink:title=" ">
<path fill="none" stroke="#63b8ff" d="M475.62,-379.52C472.99,-378.1 470.44,-376.6 468,-375 431.18,-350.86 398.93,-309.37 383.2,-287.13"/>
<polygon fill="#63b8ff" stroke="#63b8ff" points="474.29,-382.76 484.81,-383.98 477.35,-376.46 474.29,-382.76"/>
</a>
</g>
</g>
<!-- Node9&#45;&gt;Node3 -->
<g id="edge14_Node000009_Node000003" class="edge">
<title>Node9&#45;&gt;Node3</title>
<g id="a_edge14_Node000009_Node000003"><a xlink:title=" ">
<path fill="none" stroke="#63b8ff" d="M467.67,-348.29C422.06,-344.58 361.82,-335.94 312,-316 281.8,-303.91 251.78,-280.69 233.8,-265.27"/>
<polygon fill="#63b8ff" stroke="#63b8ff" points="467.52,-351.79 477.75,-349.05 468.05,-344.81 467.52,-351.79"/>
</a>
</g>
</g>
<!-- Node9&#45;&gt;Node6 -->
<g id="edge15_Node000009_Node000006" class="edge">
<title>Node9&#45;&gt;Node6</title>
<g id="a_edge15_Node000009_Node000006"><a xlink:title=" ">
<path fill="none" stroke="#63b8ff" d="M480.42,-332.31C476.18,-330.61 472,-328.83 468,-327 442.53,-315.33 414.99,-298.93 396.15,-287.07"/>
<polygon fill="#63b8ff" stroke="#63b8ff" points="479.17,-335.58 489.76,-335.91 481.69,-329.05 479.17,-335.58"/>
</a>
</g>
</g>
<!-- Node10&#45;&gt;Node3 -->
<g id="edge17_Node000010_Node000003" class="edge">
<title>Node10&#45;&gt;Node3</title>
<g id="a_edge17_Node000010_Node000003"><a xlink:title=" ">
<path fill="none" stroke="#63b8ff" d="M457.55,-308.54C413.98,-309.59 359.34,-307.64 312,-296 286.37,-289.7 259.52,-275.93 240.93,-265.09"/>
<polygon fill="#63b8ff" stroke="#63b8ff" points="457.92,-312.03 467.81,-308.24 457.71,-305.04 457.92,-312.03"/>
</a>
</g>
</g>
<!-- Node10&#45;&gt;Node6 -->
<g id="edge18_Node000010_Node000006" class="edge">
<title>Node10&#45;&gt;Node6</title>
<g id="a_edge18_Node000010_Node000006"><a xlink:title=" ">
<path fill="none" stroke="#63b8ff" d="M458.1,-288.09C449.35,-286.43 440.57,-284.77 432.13,-283.18"/>
<polygon fill="#63b8ff" stroke="#63b8ff" points="457.45,-291.52 467.92,-289.94 458.75,-284.65 457.45,-291.52"/>
</a>
</g>
</g>
<!-- Node11&#45;&gt;Node3 -->
<g id="edge20_Node000011_Node000003" class="edge">
<title>Node11&#45;&gt;Node3</title>
<g id="a_edge20_Node000011_Node000003"><a xlink:title=" ">
<path fill="none" stroke="#63b8ff" d="M467.58,-249.72C455.72,-249 443.51,-248.38 432,-248 378.7,-246.23 365.33,-247.44 312,-248 300.37,-248.12 287.94,-248.33 276.04,-248.56"/>
<polygon fill="#63b8ff" stroke="#63b8ff" points="467.69,-253.23 477.89,-250.37 468.13,-246.25 467.69,-253.23"/>
</a>
</g>
</g>
<!-- Node11&#45;&gt;Node6 -->
<g id="edge21_Node000011_Node000006" class="edge">
<title>Node11&#45;&gt;Node6</title>
<g id="a_edge21_Node000011_Node000006"><a xlink:title=" ">
<path fill="none" stroke="#63b8ff" d="M467.55,-262.2C455.76,-263.42 443.61,-264.68 432.12,-265.87"/>
<polygon fill="#63b8ff" stroke="#63b8ff" points="468.21,-265.65 477.79,-261.14 467.48,-258.69 468.21,-265.65"/>
</a>
</g>
</g>
<!-- Node12&#45;&gt;Node3 -->
<g id="edge23_Node000012_Node000003" class="edge">
<title>Node12&#45;&gt;Node3</title>
<g id="a_edge23_Node000012_Node000003"><a xlink:title=" ">
<path fill="none" stroke="#63b8ff" d="M467.9,-216.28C410.77,-223.96 330.5,-234.75 276.26,-242.04"/>
<polygon fill="#63b8ff" stroke="#63b8ff" points="468.49,-219.74 477.93,-214.94 467.56,-212.8 468.49,-219.74"/>
</a>
</g>
</g>
<!-- Node12&#45;&gt;Node6 -->
<g id="edge24_Node000012_Node000006" class="edge">
<title>Node12&#45;&gt;Node6</title>
<g id="a_edge24_Node000012_Node000006"><a xlink:title=" ">
<path fill="none" stroke="#63b8ff" d="M482.71,-225.47C477.72,-227.29 472.75,-229.15 468,-231 447.24,-239.08 424.3,-248.95 406.17,-256.98"/>
<polygon fill="#63b8ff" stroke="#63b8ff" points="484.06,-228.7 492.29,-222.02 481.69,-222.11 484.06,-228.7"/>
</a>
</g>
</g>
<!-- Node13&#45;&gt;Node3 -->
<g id="edge26_Node000013_Node000003" class="edge">
<title>Node13&#45;&gt;Node3</title>
<g id="a_edge26_Node000013_Node000003"><a xlink:title=" ">
<path fill="none" stroke="#63b8ff" d="M465.26,-176.48C420.9,-187.62 362.9,-202.77 312,-218 294.83,-223.14 276.09,-229.32 259.84,-234.88"/>
<polygon fill="#63b8ff" stroke="#63b8ff" points="466.23,-179.84 475.09,-174.02 464.54,-173.05 466.23,-179.84"/>
</a>
</g>
</g>
<!-- Node13&#45;&gt;Node6 -->
<g id="edge27_Node000013_Node000006" class="edge">
<title>Node13&#45;&gt;Node6</title>
<g id="a_edge27_Node000013_Node000006"><a xlink:title=" ">
<path fill="none" stroke="#63b8ff" d="M476.65,-178.26C473.67,-179.75 470.77,-181.33 468,-183 434.35,-203.34 402.55,-237.15 385.64,-256.72"/>
<polygon fill="#63b8ff" stroke="#63b8ff" points="478.14,-181.43 485.77,-174.08 475.22,-175.07 478.14,-181.43"/>
</a>
</g>
</g>
<!-- Node14&#45;&gt;Node3 -->
<g id="edge29_Node000014_Node000003" class="edge">
<title>Node14&#45;&gt;Node3</title>
<g id="a_edge29_Node000014_Node000003"><a xlink:title=" ">
<path fill="none" stroke="#63b8ff" d="M467.84,-126.28C422.14,-137.85 361.74,-156.05 312,-181 282.48,-195.8 252.28,-219.5 234.08,-234.91"/>
<polygon fill="#63b8ff" stroke="#63b8ff" points="468.79,-129.65 477.65,-123.83 467.1,-122.85 468.79,-129.65"/>
</a>
</g>
</g>
<!-- Node14&#45;&gt;Node6 -->
<g id="edge30_Node000014_Node000006" class="edge">
<title>Node14&#45;&gt;Node6</title>
<g id="a_edge30_Node000014_Node000006"><a xlink:title=" ">
<path fill="none" stroke="#63b8ff" d="M473.78,-131.02C471.78,-132.27 469.85,-133.6 468,-135 423.75,-168.61 392.44,-228.87 379.55,-256.9"/>
<polygon fill="#63b8ff" stroke="#63b8ff" points="475.83,-133.89 482.91,-126 472.46,-127.75 475.83,-133.89"/>
</a>
</g>
</g>
<!-- Node15&#45;&gt;Node3 -->
<g id="edge32_Node000015_Node000003" class="edge">
<title>Node15&#45;&gt;Node3</title>
<g id="a_edge32_Node000015_Node000003"><a xlink:title=" ">
<path fill="none" stroke="#63b8ff" d="M467.77,-73.24C420.73,-82.71 358.8,-100.3 312,-132 271.28,-159.58 239.36,-209.83 225.11,-234.91"/>
<polygon fill="#63b8ff" stroke="#63b8ff" points="468.72,-76.62 477.87,-71.29 467.39,-69.75 468.72,-76.62"/>
</a>
</g>
</g>
<!-- Node15&#45;&gt;Node6 -->
<g id="edge33_Node000015_Node000006" class="edge">
<title>Node15&#45;&gt;Node6</title>
<g id="a_edge33_Node000015_Node000006"><a xlink:title=" ">
<path fill="none" stroke="#63b8ff" d="M472.22,-83.65C470.76,-84.71 469.35,-85.83 468,-87 413.09,-134.73 385.76,-221.94 376.62,-256.91"/>
<polygon fill="#63b8ff" stroke="#63b8ff" points="474.42,-86.4 481.05,-78.13 470.71,-80.46 474.42,-86.4"/>
</a>
</g>
</g>
<!-- Node16&#45;&gt;Node3 -->
<g id="edge35_Node000016_Node000003" class="edge">
<title>Node16&#45;&gt;Node3</title>
<g id="a_edge35_Node000016_Node000003"><a xlink:title=" ">
<path fill="none" stroke="#63b8ff" d="M467.74,-20.37C419.68,-27.21 356.54,-42.74 312,-78 258.51,-120.35 230.61,-201.51 220.97,-234.99"/>
<polygon fill="#63b8ff" stroke="#63b8ff" points="468.31,-23.82 477.76,-19.03 467.38,-16.88 468.31,-23.82"/>
</a>
</g>
</g>
<!-- Node16&#45;&gt;Node6 -->
<g id="edge36_Node000016_Node000006" class="edge">
<title>Node16&#45;&gt;Node6</title>
<g id="a_edge36_Node000016_Node000006"><a xlink:title=" ">
<path fill="none" stroke="#63b8ff" d="M471.51,-35.95C470.29,-36.92 469.12,-37.94 468,-39 402.25,-101.39 380.67,-215.72 374.86,-256.8"/>
<polygon fill="#63b8ff" stroke="#63b8ff" points="473.73,-38.66 480.05,-30.16 469.81,-32.87 473.73,-38.66"/>
</a>
</g>
</g>
</g>
</svg>
