<?xml version="1.0" encoding="UTF-8" standalone="no"?>
<!DOCTYPE svg PUBLIC "-//W3C//DTD SVG 1.1//EN"
 "http://www.w3.org/Graphics/SVG/1.1/DTD/svg11.dtd">
<!-- Generated by graphviz version 2.43.0 (0)
 -->
<!-- Title: lci::alloc_net_context_x::call_impl Pages: 1 -->
<svg width="471pt" height="626pt"
 viewBox="0.00 0.00 471.00 626.00" xmlns="http://www.w3.org/2000/svg" xmlns:xlink="http://www.w3.org/1999/xlink">
<g id="graph0" class="graph" transform="scale(1 1) rotate(0) translate(4 622)">
<title>lci::alloc_net_context_x::call_impl</title>
<!-- Node1 -->
<g id="Node000001" class="node">
<title>Node1</title>
<g id="a_Node000001"><a xlink:title=" ">
<polygon fill="#999999" stroke="#666666" points="120,-318 0,-318 0,-288 120,-288 120,-318"/>
<text text-anchor="start" x="8" y="-306" font-family="Helvetica,sans-Serif" font-size="10.00">lci::alloc_net_context</text>
<text text-anchor="middle" x="60" y="-295" font-family="Helvetica,sans-Serif" font-size="10.00">_x::call_impl</text>
</a>
</g>
</g>
<!-- Node2 -->
<g id="Node000002" class="node">
<title>Node2</title>
<g id="a_Node000002"><a xlink:href="../../d9/d2c/classlci_1_1alloc__net__context__x.html#a924ac87bf6d7c2eb6b52768734dee344" target="_top" xlink:title=" ">
<polygon fill="white" stroke="#666666" points="286,-618 166,-618 166,-588 286,-588 286,-618"/>
<text text-anchor="start" x="174" y="-606" font-family="Helvetica,sans-Serif" font-size="10.00">lci::alloc_net_context</text>
<text text-anchor="middle" x="226" y="-595" font-family="Helvetica,sans-Serif" font-size="10.00">_x::backend</text>
</a>
</g>
</g>
<!-- Node1&#45;&gt;Node2 -->
<g id="edge1_Node000001_Node000002" class="edge">
<title>Node1&#45;&gt;Node2</title>
<g id="a_edge1_Node000001_Node000002"><a xlink:title=" ">
<path fill="none" stroke="#63b8ff" d="M61.75,-318.24C64.85,-364.22 80.34,-503.09 156,-579 157.06,-580.07 158.18,-581.09 159.33,-582.06"/>
<polygon fill="#63b8ff" stroke="#63b8ff" points="157.33,-584.93 167.51,-587.86 161.38,-579.22 157.33,-584.93"/>
</a>
</g>
</g>
<!-- Node4 -->
<g id="Node000004" class="node">
<title>Node4</title>
<g id="a_Node000004"><a xlink:href="../../d9/d2c/classlci_1_1alloc__net__context__x.html#a18f264d1b22711074a95735e72e5cdd2" target="_top" xlink:title=" ">
<polygon fill="white" stroke="#666666" points="286,-570 166,-570 166,-540 286,-540 286,-570"/>
<text text-anchor="start" x="174" y="-558" font-family="Helvetica,sans-Serif" font-size="10.00">lci::alloc_net_context</text>
<text text-anchor="middle" x="226" y="-547" font-family="Helvetica,sans-Serif" font-size="10.00">_x::device_name</text>
</a>
</g>
</g>
<!-- Node1&#45;&gt;Node4 -->
<g id="edge3_Node000001_Node000004" class="edge">
<title>Node1&#45;&gt;Node4</title>
<g id="a_edge3_Node000001_Node000004"><a xlink:title=" ">
<path fill="none" stroke="#63b8ff" d="M63.01,-318.17C69.15,-358.63 91.38,-470.15 156,-531 157.13,-532.06 158.3,-533.07 159.52,-534.04"/>
<polygon fill="#63b8ff" stroke="#63b8ff" points="157.83,-537.13 168.08,-539.81 161.74,-531.32 157.83,-537.13"/>
</a>
</g>
</g>
<!-- Node5 -->
<g id="Node000005" class="node">
<title>Node5</title>
<g id="a_Node000005"><a xlink:href="../../d9/d2c/classlci_1_1alloc__net__context__x.html#a9fe41e79d8eb835bbe41fc713b0971cf" target="_top" xlink:title=" ">
<polygon fill="white" stroke="#666666" points="289,-521.5 163,-521.5 163,-480.5 289,-480.5 289,-521.5"/>
<text text-anchor="start" x="171" y="-509.5" font-family="Helvetica,sans-Serif" font-size="10.00">lci::alloc_net_context</text>
<text text-anchor="start" x="171" y="-498.5" font-family="Helvetica,sans-Serif" font-size="10.00">_x::ibv_force_gid_auto</text>
<text text-anchor="middle" x="226" y="-487.5" font-family="Helvetica,sans-Serif" font-size="10.00">_select</text>
</a>
</g>
</g>
<!-- Node1&#45;&gt;Node5 -->
<g id="edge5_Node000001_Node000005" class="edge">
<title>Node1&#45;&gt;Node5</title>
<g id="a_edge5_Node000001_Node000005"><a xlink:title=" ">
<path fill="none" stroke="#63b8ff" d="M65.83,-318.13C76.83,-350.38 106.7,-426.6 156,-471 157.46,-472.31 158.98,-473.57 160.55,-474.78"/>
<polygon fill="#63b8ff" stroke="#63b8ff" points="158.59,-477.68 168.82,-480.44 162.54,-471.9 158.59,-477.68"/>
</a>
</g>
</g>
<!-- Node6 -->
<g id="Node000006" class="node">
<title>Node6</title>
<g id="a_Node000006"><a xlink:href="../../d9/d2c/classlci_1_1alloc__net__context__x.html#a41c846e3f23a79c2ed6832493cfbdf32" target="_top" xlink:title=" ">
<polygon fill="white" stroke="#666666" points="286,-462 166,-462 166,-432 286,-432 286,-462"/>
<text text-anchor="start" x="174" y="-450" font-family="Helvetica,sans-Serif" font-size="10.00">lci::alloc_net_context</text>
<text text-anchor="middle" x="226" y="-439" font-family="Helvetica,sans-Serif" font-size="10.00">_x::ibv_gid_idx</text>
</a>
</g>
</g>
<!-- Node1&#45;&gt;Node6 -->
<g id="edge7_Node000001_Node000006" class="edge">
<title>Node1&#45;&gt;Node6</title>
<g id="a_edge7_Node000001_Node000006"><a xlink:title=" ">
<path fill="none" stroke="#63b8ff" d="M69.16,-318.18C83.48,-343.45 115.5,-394.21 156,-423 158.08,-424.48 160.26,-425.87 162.51,-427.19"/>
<polygon fill="#63b8ff" stroke="#63b8ff" points="161,-430.35 171.48,-431.87 164.24,-424.14 161,-430.35"/>
</a>
</g>
</g>
<!-- Node7 -->
<g id="Node000007" class="node">
<title>Node7</title>
<g id="a_Node000007"><a xlink:href="../../d9/d2c/classlci_1_1alloc__net__context__x.html#aaad66599526eca49a9ee0dada3f8e35c" target="_top" xlink:title=" ">
<polygon fill="white" stroke="#666666" points="286,-414 166,-414 166,-384 286,-384 286,-414"/>
<text text-anchor="start" x="174" y="-402" font-family="Helvetica,sans-Serif" font-size="10.00">lci::alloc_net_context</text>
<text text-anchor="middle" x="226" y="-391" font-family="Helvetica,sans-Serif" font-size="10.00">_x::ibv_odp_strategy</text>
</a>
</g>
</g>
<!-- Node1&#45;&gt;Node7 -->
<g id="edge9_Node000001_Node000007" class="edge">
<title>Node1&#45;&gt;Node7</title>
<g id="a_edge9_Node000001_Node000007"><a xlink:title=" ">
<path fill="none" stroke="#63b8ff" d="M77.4,-318.01C95.51,-333.94 126.08,-358.98 156,-375 159.27,-376.75 162.69,-378.41 166.18,-379.99"/>
<polygon fill="#63b8ff" stroke="#63b8ff" points="164.98,-383.28 175.56,-383.94 167.7,-376.83 164.98,-383.28"/>
</a>
</g>
</g>
<!-- Node8 -->
<g id="Node000008" class="node">
<title>Node8</title>
<g id="a_Node000008"><a xlink:href="../../d9/d2c/classlci_1_1alloc__net__context__x.html#a2c1d71a830f38024cb6193d55e088fb8" target="_top" xlink:title=" ">
<polygon fill="white" stroke="#666666" points="296,-366 156,-366 156,-336 296,-336 296,-366"/>
<text text-anchor="start" x="164" y="-354" font-family="Helvetica,sans-Serif" font-size="10.00">lci::alloc_net_context</text>
<text text-anchor="middle" x="226" y="-343" font-family="Helvetica,sans-Serif" font-size="10.00">_x::ibv_prefetch_strategy</text>
</a>
</g>
</g>
<!-- Node1&#45;&gt;Node8 -->
<g id="edge11_Node000001_Node000008" class="edge">
<title>Node1&#45;&gt;Node8</title>
<g id="a_edge11_Node000001_Node000008"><a xlink:title=" ">
<path fill="none" stroke="#63b8ff" d="M112.44,-318.06C128.77,-322.84 146.99,-328.17 163.94,-333.13"/>
<polygon fill="#63b8ff" stroke="#63b8ff" points="163.16,-336.55 173.74,-336 165.13,-329.83 163.16,-336.55"/>
</a>
</g>
</g>
<!-- Node9 -->
<g id="Node000009" class="node">
<title>Node9</title>
<g id="a_Node000009"><a xlink:href="../../d9/d2c/classlci_1_1alloc__net__context__x.html#a6654c9eac4872fca14364abd71f579f1" target="_top" xlink:title=" ">
<polygon fill="white" stroke="#666666" points="286,-318 166,-318 166,-288 286,-288 286,-318"/>
<text text-anchor="start" x="174" y="-306" font-family="Helvetica,sans-Serif" font-size="10.00">lci::alloc_net_context</text>
<text text-anchor="middle" x="226" y="-295" font-family="Helvetica,sans-Serif" font-size="10.00">_x::max_inject_size</text>
</a>
</g>
</g>
<!-- Node1&#45;&gt;Node9 -->
<g id="edge13_Node000001_Node000009" class="edge">
<title>Node1&#45;&gt;Node9</title>
<g id="a_edge13_Node000001_Node000009"><a xlink:title=" ">
<path fill="none" stroke="#63b8ff" d="M120.21,-303C131.7,-303 143.85,-303 155.64,-303"/>
<polygon fill="#63b8ff" stroke="#63b8ff" points="155.88,-306.5 165.88,-303 155.88,-299.5 155.88,-306.5"/>
</a>
</g>
</g>
<!-- Node10 -->
<g id="Node000010" class="node">
<title>Node10</title>
<g id="a_Node000010"><a xlink:href="../../d9/d2c/classlci_1_1alloc__net__context__x.html#ad264e33dba3328ba304b8727d91fea36" target="_top" xlink:title=" ">
<polygon fill="white" stroke="#666666" points="286,-270 166,-270 166,-240 286,-240 286,-270"/>
<text text-anchor="start" x="174" y="-258" font-family="Helvetica,sans-Serif" font-size="10.00">lci::alloc_net_context</text>
<text text-anchor="middle" x="226" y="-247" font-family="Helvetica,sans-Serif" font-size="10.00">_x::max_msg_size</text>
</a>
</g>
</g>
<!-- Node1&#45;&gt;Node10 -->
<g id="edge15_Node000001_Node000010" class="edge">
<title>Node1&#45;&gt;Node10</title>
<g id="a_edge15_Node000001_Node000010"><a xlink:title=" ">
<path fill="none" stroke="#63b8ff" d="M112.44,-287.94C128.77,-283.16 146.99,-277.83 163.94,-272.87"/>
<polygon fill="#63b8ff" stroke="#63b8ff" points="165.13,-276.17 173.74,-270 163.16,-269.45 165.13,-276.17"/>
</a>
</g>
</g>
<!-- Node11 -->
<g id="Node000011" class="node">
<title>Node11</title>
<g id="a_Node000011"><a xlink:href="../../d9/d2c/classlci_1_1alloc__net__context__x.html#aa986abdc0e46d57842944ccbfecaae73" target="_top" xlink:title=" ">
<polygon fill="white" stroke="#666666" points="286,-222 166,-222 166,-192 286,-192 286,-222"/>
<text text-anchor="start" x="174" y="-210" font-family="Helvetica,sans-Serif" font-size="10.00">lci::alloc_net_context</text>
<text text-anchor="middle" x="226" y="-199" font-family="Helvetica,sans-Serif" font-size="10.00">_x::name</text>
</a>
</g>
</g>
<!-- Node1&#45;&gt;Node11 -->
<g id="edge17_Node000001_Node000011" class="edge">
<title>Node1&#45;&gt;Node11</title>
<g id="a_edge17_Node000001_Node000011"><a xlink:title=" ">
<path fill="none" stroke="#63b8ff" d="M77.4,-287.99C95.51,-272.06 126.08,-247.02 156,-231 159.27,-229.25 162.69,-227.59 166.18,-226.01"/>
<polygon fill="#63b8ff" stroke="#63b8ff" points="167.7,-229.17 175.56,-222.06 164.98,-222.72 167.7,-229.17"/>
</a>
</g>
</g>
<!-- Node12 -->
<g id="Node000012" class="node">
<title>Node12</title>
<g id="a_Node000012"><a xlink:href="../../d9/d2c/classlci_1_1alloc__net__context__x.html#a11c33085d6c48cc3684d45ae1f91b354" target="_top" xlink:title=" ">
<polygon fill="white" stroke="#666666" points="288.5,-174 163.5,-174 163.5,-144 288.5,-144 288.5,-174"/>
<text text-anchor="start" x="171.5" y="-162" font-family="Helvetica,sans-Serif" font-size="10.00">lci::alloc_net_context</text>
<text text-anchor="middle" x="226" y="-151" font-family="Helvetica,sans-Serif" font-size="10.00">_x::ofi_provider_name</text>
</a>
</g>
</g>
<!-- Node1&#45;&gt;Node12 -->
<g id="edge19_Node000001_Node000012" class="edge">
<title>Node1&#45;&gt;Node12</title>
<g id="a_edge19_Node000001_Node000012"><a xlink:title=" ">
<path fill="none" stroke="#63b8ff" d="M69.16,-287.82C83.48,-262.55 115.5,-211.79 156,-183 158.08,-181.52 160.26,-180.13 162.51,-178.81"/>
<polygon fill="#63b8ff" stroke="#63b8ff" points="164.24,-181.86 171.48,-174.13 161,-175.65 164.24,-181.86"/>
</a>
</g>
</g>
<!-- Node13 -->
<g id="Node000013" class="node">
<title>Node13</title>
<g id="a_Node000013"><a xlink:href="../../d9/d2c/classlci_1_1alloc__net__context__x.html#a3cc9f4bac3c372009fe44dbd77153c19" target="_top" xlink:title=" ">
<polygon fill="white" stroke="#666666" points="286,-126 166,-126 166,-96 286,-96 286,-126"/>
<text text-anchor="start" x="174" y="-114" font-family="Helvetica,sans-Serif" font-size="10.00">lci::alloc_net_context</text>
<text text-anchor="middle" x="226" y="-103" font-family="Helvetica,sans-Serif" font-size="10.00">_x::runtime</text>
</a>
</g>
</g>
<!-- Node1&#45;&gt;Node13 -->
<g id="edge21_Node000001_Node000013" class="edge">
<title>Node1&#45;&gt;Node13</title>
<g id="a_edge21_Node000001_Node000013"><a xlink:title=" ">
<path fill="none" stroke="#63b8ff" d="M65.58,-287.58C76.09,-254.76 105.06,-177.51 156,-135 157.53,-133.72 159.14,-132.51 160.8,-131.36"/>
<polygon fill="#63b8ff" stroke="#63b8ff" points="162.76,-134.26 169.54,-126.12 159.16,-128.26 162.76,-134.26"/>
</a>
</g>
</g>
<!-- Node14 -->
<g id="Node000014" class="node">
<title>Node14</title>
<g id="a_Node000014"><a xlink:href="../../d9/d2c/classlci_1_1alloc__net__context__x.html#aabdd8693975475fef49f39019610a4ae" target="_top" xlink:title=" ">
<polygon fill="white" stroke="#666666" points="286,-78 166,-78 166,-48 286,-48 286,-78"/>
<text text-anchor="start" x="174" y="-66" font-family="Helvetica,sans-Serif" font-size="10.00">lci::alloc_net_context</text>
<text text-anchor="middle" x="226" y="-55" font-family="Helvetica,sans-Serif" font-size="10.00">_x::use_dmabuf</text>
</a>
</g>
</g>
<!-- Node1&#45;&gt;Node14 -->
<g id="edge23_Node000001_Node000014" class="edge">
<title>Node1&#45;&gt;Node14</title>
<g id="a_edge23_Node000001_Node000014"><a xlink:title=" ">
<path fill="none" stroke="#63b8ff" d="M63.41,-287.77C70.38,-248.72 94.15,-144.11 156,-87 157.28,-85.82 158.62,-84.69 160.02,-83.62"/>
<polygon fill="#63b8ff" stroke="#63b8ff" points="162.04,-86.48 168.49,-78.07 158.2,-80.63 162.04,-86.48"/>
</a>
</g>
</g>
<!-- Node15 -->
<g id="Node000015" class="node">
<title>Node15</title>
<g id="a_Node000015"><a xlink:href="../../d9/d2c/classlci_1_1alloc__net__context__x.html#a875d4f78abda2116a3ea1982116165a3" target="_top" xlink:title=" ">
<polygon fill="white" stroke="#666666" points="286,-30 166,-30 166,0 286,0 286,-30"/>
<text text-anchor="start" x="174" y="-18" font-family="Helvetica,sans-Serif" font-size="10.00">lci::alloc_net_context</text>
<text text-anchor="middle" x="226" y="-7" font-family="Helvetica,sans-Serif" font-size="10.00">_x::user_context</text>
</a>
</g>
</g>
<!-- Node1&#45;&gt;Node15 -->
<g id="edge25_Node000001_Node000015" class="edge">
<title>Node1&#45;&gt;Node15</title>
<g id="a_edge25_Node000001_Node000015"><a xlink:title=" ">
<path fill="none" stroke="#63b8ff" d="M62.03,-287.78C65.86,-243.13 83.11,-111.12 156,-39 157.07,-37.94 158.19,-36.93 159.35,-35.96"/>
<polygon fill="#63b8ff" stroke="#63b8ff" points="161.39,-38.81 167.56,-30.2 157.37,-33.08 161.39,-38.81"/>
</a>
</g>
</g>
<!-- Node3 -->
<g id="Node000003" class="node">
<title>Node3</title>
<g id="a_Node000003"><a xlink:href="../../d9/d2c/classlci_1_1alloc__net__context__x.html#a4906e72fa75cb21741c0248836701237" target="_top" xlink:title=" ">
<polygon fill="white" stroke="#666666" points="463,-318 332,-318 332,-288 463,-288 463,-318"/>
<text text-anchor="start" x="340" y="-306" font-family="Helvetica,sans-Serif" font-size="10.00">lci::alloc_net_context</text>
<text text-anchor="middle" x="397.5" y="-295" font-family="Helvetica,sans-Serif" font-size="10.00">_x::alloc_net_context_x</text>
</a>
</g>
</g>
<!-- Node2&#45;&gt;Node3 -->
<g id="edge2_Node000002_Node000003" class="edge">
<title>Node2&#45;&gt;Node3</title>
<g id="a_edge2_Node000002_Node000003"><a xlink:title=" ">
<path fill="none" stroke="#63b8ff" d="M284.09,-587.99C288.43,-585.44 292.48,-582.47 296,-579 367.86,-508.17 388.68,-381.95 394.42,-328.27"/>
<polygon fill="#63b8ff" stroke="#63b8ff" points="397.91,-328.55 395.41,-318.26 390.95,-327.87 397.91,-328.55"/>
</a>
</g>
</g>
<!-- Node4&#45;&gt;Node3 -->
<g id="edge4_Node000004_Node000003" class="edge">
<title>Node4&#45;&gt;Node3</title>
<g id="a_edge4_Node000004_Node000003"><a xlink:title=" ">
<path fill="none" stroke="#63b8ff" d="M283.51,-539.92C288.02,-537.39 292.27,-534.44 296,-531 357.06,-474.67 383.06,-374.55 392.25,-328.04"/>
<polygon fill="#63b8ff" stroke="#63b8ff" points="395.69,-328.66 394.1,-318.19 388.81,-327.37 395.69,-328.66"/>
</a>
</g>
</g>
<!-- Node5&#45;&gt;Node3 -->
<g id="edge6_Node000005_Node000003" class="edge">
<title>Node5&#45;&gt;Node3</title>
<g id="a_edge6_Node000005_Node000003"><a xlink:title=" ">
<path fill="none" stroke="#63b8ff" d="M283.09,-480.33C287.69,-477.55 292.07,-474.45 296,-471 342.01,-430.57 373.04,-363.81 387.39,-327.83"/>
<polygon fill="#63b8ff" stroke="#63b8ff" points="390.8,-328.71 391.15,-318.12 384.27,-326.18 390.8,-328.71"/>
</a>
</g>
</g>
<!-- Node6&#45;&gt;Node3 -->
<g id="edge8_Node000006_Node000003" class="edge">
<title>Node6&#45;&gt;Node3</title>
<g id="a_edge8_Node000006_Node000003"><a xlink:title=" ">
<path fill="none" stroke="#63b8ff" d="M280.07,-431.9C285.66,-429.34 291.09,-426.39 296,-423 333.41,-397.18 364.84,-353.86 382.13,-326.94"/>
<polygon fill="#63b8ff" stroke="#63b8ff" points="385.29,-328.49 387.65,-318.16 379.37,-324.77 385.29,-328.49"/>
</a>
</g>
</g>
<!-- Node7&#45;&gt;Node3 -->
<g id="edge10_Node000007_Node000003" class="edge">
<title>Node7&#45;&gt;Node3</title>
<g id="a_edge10_Node000007_Node000003"><a xlink:title=" ">
<path fill="none" stroke="#63b8ff" d="M275.99,-383.93C282.85,-381.26 289.69,-378.27 296,-375 323.18,-360.91 351.27,-340.17 370.82,-324.57"/>
<polygon fill="#63b8ff" stroke="#63b8ff" points="373.08,-327.24 378.64,-318.23 368.67,-321.8 373.08,-327.24"/>
</a>
</g>
</g>
<!-- Node8&#45;&gt;Node3 -->
<g id="edge12_Node000008_Node000003" class="edge">
<title>Node8&#45;&gt;Node3</title>
<g id="a_edge12_Node000008_Node000003"><a xlink:title=" ">
<path fill="none" stroke="#63b8ff" d="M280.17,-335.94C297.2,-331.12 316.23,-325.73 333.88,-320.73"/>
<polygon fill="#63b8ff" stroke="#63b8ff" points="334.85,-324.09 343.52,-318 332.95,-317.36 334.85,-324.09"/>
</a>
</g>
</g>
<!-- Node9&#45;&gt;Node3 -->
<g id="edge14_Node000009_Node000003" class="edge">
<title>Node9&#45;&gt;Node3</title>
<g id="a_edge14_Node000009_Node000003"><a xlink:title=" ">
<path fill="none" stroke="#63b8ff" d="M286.28,-303C297.65,-303 309.7,-303 321.49,-303"/>
<polygon fill="#63b8ff" stroke="#63b8ff" points="321.76,-306.5 331.76,-303 321.76,-299.5 321.76,-306.5"/>
</a>
</g>
</g>
<!-- Node10&#45;&gt;Node3 -->
<g id="edge16_Node000010_Node000003" class="edge">
<title>Node10&#45;&gt;Node3</title>
<g id="a_edge16_Node000010_Node000003"><a xlink:title=" ">
<path fill="none" stroke="#63b8ff" d="M280.17,-270.06C297.2,-274.88 316.23,-280.27 333.88,-285.27"/>
<polygon fill="#63b8ff" stroke="#63b8ff" points="332.95,-288.64 343.52,-288 334.85,-281.91 332.95,-288.64"/>
</a>
</g>
</g>
<!-- Node11&#45;&gt;Node3 -->
<g id="edge18_Node000011_Node000003" class="edge">
<title>Node11&#45;&gt;Node3</title>
<g id="a_edge18_Node000011_Node000003"><a xlink:title=" ">
<path fill="none" stroke="#63b8ff" d="M275.99,-222.07C282.85,-224.74 289.69,-227.73 296,-231 323.18,-245.09 351.27,-265.83 370.82,-281.43"/>
<polygon fill="#63b8ff" stroke="#63b8ff" points="368.67,-284.2 378.64,-287.77 373.08,-278.76 368.67,-284.2"/>
</a>
</g>
</g>
<!-- Node12&#45;&gt;Node3 -->
<g id="edge20_Node000012_Node000003" class="edge">
<title>Node12&#45;&gt;Node3</title>
<g id="a_edge20_Node000012_Node000003"><a xlink:title=" ">
<path fill="none" stroke="#63b8ff" d="M280.07,-174.1C285.66,-176.66 291.09,-179.61 296,-183 333.41,-208.82 364.84,-252.14 382.13,-279.06"/>
<polygon fill="#63b8ff" stroke="#63b8ff" points="379.37,-281.23 387.65,-287.84 385.29,-277.51 379.37,-281.23"/>
</a>
</g>
</g>
<!-- Node13&#45;&gt;Node3 -->
<g id="edge22_Node000013_Node000003" class="edge">
<title>Node13&#45;&gt;Node3</title>
<g id="a_edge22_Node000013_Node000003"><a xlink:title=" ">
<path fill="none" stroke="#63b8ff" d="M282.03,-126.05C287.01,-128.59 291.77,-131.56 296,-135 343.71,-173.83 374.19,-241.73 387.96,-278.18"/>
<polygon fill="#63b8ff" stroke="#63b8ff" points="384.67,-279.39 391.4,-287.58 391.25,-276.99 384.67,-279.39"/>
</a>
</g>
</g>
<!-- Node14&#45;&gt;Node3 -->
<g id="edge24_Node000014_Node000003" class="edge">
<title>Node14&#45;&gt;Node3</title>
<g id="a_edge24_Node000014_Node000003"><a xlink:title=" ">
<path fill="none" stroke="#63b8ff" d="M283.44,-78.16C287.96,-80.67 292.24,-83.6 296,-87 354.25,-139.66 381.37,-233 391.5,-277.73"/>
<polygon fill="#63b8ff" stroke="#63b8ff" points="388.14,-278.72 393.67,-287.75 394.98,-277.24 388.14,-278.72"/>
</a>
</g>
</g>
<!-- Node15&#45;&gt;Node3 -->
<g id="edge26_Node000015_Node000003" class="edge">
<title>Node15&#45;&gt;Node3</title>
<g id="a_edge26_Node000015_Node000003"><a xlink:title=" ">
<path fill="none" stroke="#63b8ff" d="M284.04,-30.07C288.38,-32.6 292.45,-35.55 296,-39 365.13,-106.15 387.35,-225.78 393.94,-277.74"/>
<polygon fill="#63b8ff" stroke="#63b8ff" points="390.48,-278.24 395.12,-287.76 397.43,-277.42 390.48,-278.24"/>
</a>
</g>
</g>
</g>
</svg>
