<?xml version="1.0" encoding="UTF-8" standalone="no"?>
<!DOCTYPE svg PUBLIC "-//W3C//DTD SVG 1.1//EN"
 "http://www.w3.org/Graphics/SVG/1.1/DTD/svg11.dtd">
<!-- Generated by graphviz version 2.43.0 (0)
 -->
<!-- Title: lci::alloc_net_context_x::alloc_net_context_x Pages: 1 -->
<svg width="783pt" height="626pt"
 viewBox="0.00 0.00 783.00 626.00" xmlns="http://www.w3.org/2000/svg" xmlns:xlink="http://www.w3.org/1999/xlink">
<g id="graph0" class="graph" transform="scale(1 1) rotate(0) translate(4 622)">
<title>lci::alloc_net_context_x::alloc_net_context_x</title>
<!-- Node1 -->
<g id="Node000001" class="node">
<title>Node1</title>
<g id="a_Node000001"><a xlink:title=" ">
<polygon fill="#999999" stroke="#666666" points="775,-318 644,-318 644,-288 775,-288 775,-318"/>
<text text-anchor="start" x="652" y="-306" font-family="Helvetica,sans-Serif" font-size="10.00">lci::alloc_net_context</text>
<text text-anchor="middle" x="709.5" y="-295" font-family="Helvetica,sans-Serif" font-size="10.00">_x::alloc_net_context_x</text>
</a>
</g>
</g>
<!-- Node2 -->
<g id="Node000002" class="node">
<title>Node2</title>
<g id="a_Node000002"><a xlink:href="../../d9/d2c/classlci_1_1alloc__net__context__x.html#a924ac87bf6d7c2eb6b52768734dee344" target="_top" xlink:title=" ">
<polygon fill="white" stroke="#666666" points="598,-618 478,-618 478,-588 598,-588 598,-618"/>
<text text-anchor="start" x="486" y="-606" font-family="Helvetica,sans-Serif" font-size="10.00">lci::alloc_net_context</text>
<text text-anchor="middle" x="538" y="-595" font-family="Helvetica,sans-Serif" font-size="10.00">_x::backend</text>
</a>
</g>
</g>
<!-- Node1&#45;&gt;Node2 -->
<g id="edge1_Node000001_Node000002" class="edge">
<title>Node1&#45;&gt;Node2</title>
<g id="a_edge1_Node000001_Node000002"><a xlink:title=" ">
<path fill="none" stroke="#63b8ff" d="M706.42,-328.27C700.68,-381.95 679.86,-508.17 608,-579 604.48,-582.47 600.43,-585.44 596.09,-587.99"/>
<polygon fill="#63b8ff" stroke="#63b8ff" points="709.91,-328.55 707.41,-318.26 702.95,-327.87 709.91,-328.55"/>
</a>
</g>
</g>
<!-- Node7 -->
<g id="Node000007" class="node">
<title>Node7</title>
<g id="a_Node000007"><a xlink:href="../../d9/d2c/classlci_1_1alloc__net__context__x.html#a18f264d1b22711074a95735e72e5cdd2" target="_top" xlink:title=" ">
<polygon fill="white" stroke="#666666" points="598,-570 478,-570 478,-540 598,-540 598,-570"/>
<text text-anchor="start" x="486" y="-558" font-family="Helvetica,sans-Serif" font-size="10.00">lci::alloc_net_context</text>
<text text-anchor="middle" x="538" y="-547" font-family="Helvetica,sans-Serif" font-size="10.00">_x::device_name</text>
</a>
</g>
</g>
<!-- Node1&#45;&gt;Node7 -->
<g id="edge7_Node000001_Node000007" class="edge">
<title>Node1&#45;&gt;Node7</title>
<g id="a_edge7_Node000001_Node000007"><a xlink:title=" ">
<path fill="none" stroke="#63b8ff" d="M704.25,-328.04C695.06,-374.55 669.06,-474.67 608,-531 604.27,-534.44 600.02,-537.39 595.51,-539.92"/>
<polygon fill="#63b8ff" stroke="#63b8ff" points="707.69,-328.66 706.1,-318.19 700.81,-327.37 707.69,-328.66"/>
</a>
</g>
</g>
<!-- Node8 -->
<g id="Node000008" class="node">
<title>Node8</title>
<g id="a_Node000008"><a xlink:href="../../d9/d2c/classlci_1_1alloc__net__context__x.html#a9fe41e79d8eb835bbe41fc713b0971cf" target="_top" xlink:title=" ">
<polygon fill="white" stroke="#666666" points="601,-521.5 475,-521.5 475,-480.5 601,-480.5 601,-521.5"/>
<text text-anchor="start" x="483" y="-509.5" font-family="Helvetica,sans-Serif" font-size="10.00">lci::alloc_net_context</text>
<text text-anchor="start" x="483" y="-498.5" font-family="Helvetica,sans-Serif" font-size="10.00">_x::ibv_force_gid_auto</text>
<text text-anchor="middle" x="538" y="-487.5" font-family="Helvetica,sans-Serif" font-size="10.00">_select</text>
</a>
</g>
</g>
<!-- Node1&#45;&gt;Node8 -->
<g id="edge10_Node000001_Node000008" class="edge">
<title>Node1&#45;&gt;Node8</title>
<g id="a_edge10_Node000001_Node000008"><a xlink:title=" ">
<path fill="none" stroke="#63b8ff" d="M699.39,-327.83C685.04,-363.81 654.01,-430.57 608,-471 604.07,-474.45 599.69,-477.55 595.09,-480.33"/>
<polygon fill="#63b8ff" stroke="#63b8ff" points="702.8,-328.71 703.15,-318.12 696.27,-326.18 702.8,-328.71"/>
</a>
</g>
</g>
<!-- Node9 -->
<g id="Node000009" class="node">
<title>Node9</title>
<g id="a_Node000009"><a xlink:href="../../d9/d2c/classlci_1_1alloc__net__context__x.html#a41c846e3f23a79c2ed6832493cfbdf32" target="_top" xlink:title=" ">
<polygon fill="white" stroke="#666666" points="598,-462 478,-462 478,-432 598,-432 598,-462"/>
<text text-anchor="start" x="486" y="-450" font-family="Helvetica,sans-Serif" font-size="10.00">lci::alloc_net_context</text>
<text text-anchor="middle" x="538" y="-439" font-family="Helvetica,sans-Serif" font-size="10.00">_x::ibv_gid_idx</text>
</a>
</g>
</g>
<!-- Node1&#45;&gt;Node9 -->
<g id="edge13_Node000001_Node000009" class="edge">
<title>Node1&#45;&gt;Node9</title>
<g id="a_edge13_Node000001_Node000009"><a xlink:title=" ">
<path fill="none" stroke="#63b8ff" d="M694.13,-326.94C676.84,-353.86 645.41,-397.18 608,-423 603.09,-426.39 597.66,-429.34 592.07,-431.9"/>
<polygon fill="#63b8ff" stroke="#63b8ff" points="697.29,-328.49 699.65,-318.16 691.37,-324.77 697.29,-328.49"/>
</a>
</g>
</g>
<!-- Node10 -->
<g id="Node000010" class="node">
<title>Node10</title>
<g id="a_Node000010"><a xlink:href="../../d9/d2c/classlci_1_1alloc__net__context__x.html#aaad66599526eca49a9ee0dada3f8e35c" target="_top" xlink:title=" ">
<polygon fill="white" stroke="#666666" points="598,-414 478,-414 478,-384 598,-384 598,-414"/>
<text text-anchor="start" x="486" y="-402" font-family="Helvetica,sans-Serif" font-size="10.00">lci::alloc_net_context</text>
<text text-anchor="middle" x="538" y="-391" font-family="Helvetica,sans-Serif" font-size="10.00">_x::ibv_odp_strategy</text>
</a>
</g>
</g>
<!-- Node1&#45;&gt;Node10 -->
<g id="edge16_Node000001_Node000010" class="edge">
<title>Node1&#45;&gt;Node10</title>
<g id="a_edge16_Node000001_Node000010"><a xlink:title=" ">
<path fill="none" stroke="#63b8ff" d="M682.82,-324.57C663.27,-340.17 635.18,-360.91 608,-375 601.69,-378.27 594.85,-381.26 587.99,-383.93"/>
<polygon fill="#63b8ff" stroke="#63b8ff" points="685.08,-327.24 690.64,-318.23 680.67,-321.8 685.08,-327.24"/>
</a>
</g>
</g>
<!-- Node11 -->
<g id="Node000011" class="node">
<title>Node11</title>
<g id="a_Node000011"><a xlink:href="../../d9/d2c/classlci_1_1alloc__net__context__x.html#a2c1d71a830f38024cb6193d55e088fb8" target="_top" xlink:title=" ">
<polygon fill="white" stroke="#666666" points="608,-366 468,-366 468,-336 608,-336 608,-366"/>
<text text-anchor="start" x="476" y="-354" font-family="Helvetica,sans-Serif" font-size="10.00">lci::alloc_net_context</text>
<text text-anchor="middle" x="538" y="-343" font-family="Helvetica,sans-Serif" font-size="10.00">_x::ibv_prefetch_strategy</text>
</a>
</g>
</g>
<!-- Node1&#45;&gt;Node11 -->
<g id="edge19_Node000001_Node000011" class="edge">
<title>Node1&#45;&gt;Node11</title>
<g id="a_edge19_Node000001_Node000011"><a xlink:title=" ">
<path fill="none" stroke="#63b8ff" d="M645.69,-320.79C628.03,-325.79 609,-331.18 591.98,-336"/>
<polygon fill="#63b8ff" stroke="#63b8ff" points="646.67,-324.15 655.33,-318.06 644.76,-317.41 646.67,-324.15"/>
</a>
</g>
</g>
<!-- Node12 -->
<g id="Node000012" class="node">
<title>Node12</title>
<g id="a_Node000012"><a xlink:href="../../d9/d2c/classlci_1_1alloc__net__context__x.html#a6654c9eac4872fca14364abd71f579f1" target="_top" xlink:title=" ">
<polygon fill="white" stroke="#666666" points="598,-318 478,-318 478,-288 598,-288 598,-318"/>
<text text-anchor="start" x="486" y="-306" font-family="Helvetica,sans-Serif" font-size="10.00">lci::alloc_net_context</text>
<text text-anchor="middle" x="538" y="-295" font-family="Helvetica,sans-Serif" font-size="10.00">_x::max_inject_size</text>
</a>
</g>
</g>
<!-- Node1&#45;&gt;Node12 -->
<g id="edge22_Node000001_Node000012" class="edge">
<title>Node1&#45;&gt;Node12</title>
<g id="a_edge22_Node000001_Node000012"><a xlink:title=" ">
<path fill="none" stroke="#63b8ff" d="M633.58,-303C621.7,-303 609.55,-303 598.1,-303"/>
<polygon fill="#63b8ff" stroke="#63b8ff" points="633.94,-306.5 643.94,-303 633.94,-299.5 633.94,-306.5"/>
</a>
</g>
</g>
<!-- Node13 -->
<g id="Node000013" class="node">
<title>Node13</title>
<g id="a_Node000013"><a xlink:href="../../d9/d2c/classlci_1_1alloc__net__context__x.html#ad264e33dba3328ba304b8727d91fea36" target="_top" xlink:title=" ">
<polygon fill="white" stroke="#666666" points="598,-270 478,-270 478,-240 598,-240 598,-270"/>
<text text-anchor="start" x="486" y="-258" font-family="Helvetica,sans-Serif" font-size="10.00">lci::alloc_net_context</text>
<text text-anchor="middle" x="538" y="-247" font-family="Helvetica,sans-Serif" font-size="10.00">_x::max_msg_size</text>
</a>
</g>
</g>
<!-- Node1&#45;&gt;Node13 -->
<g id="edge25_Node000001_Node000013" class="edge">
<title>Node1&#45;&gt;Node13</title>
<g id="a_edge25_Node000001_Node000013"><a xlink:title=" ">
<path fill="none" stroke="#63b8ff" d="M645.69,-285.21C628.03,-280.21 609,-274.82 591.98,-270"/>
<polygon fill="#63b8ff" stroke="#63b8ff" points="644.76,-288.59 655.33,-287.94 646.67,-281.85 644.76,-288.59"/>
</a>
</g>
</g>
<!-- Node14 -->
<g id="Node000014" class="node">
<title>Node14</title>
<g id="a_Node000014"><a xlink:href="../../d9/d2c/classlci_1_1alloc__net__context__x.html#aa986abdc0e46d57842944ccbfecaae73" target="_top" xlink:title=" ">
<polygon fill="white" stroke="#666666" points="598,-222 478,-222 478,-192 598,-192 598,-222"/>
<text text-anchor="start" x="486" y="-210" font-family="Helvetica,sans-Serif" font-size="10.00">lci::alloc_net_context</text>
<text text-anchor="middle" x="538" y="-199" font-family="Helvetica,sans-Serif" font-size="10.00">_x::name</text>
</a>
</g>
</g>
<!-- Node1&#45;&gt;Node14 -->
<g id="edge28_Node000001_Node000014" class="edge">
<title>Node1&#45;&gt;Node14</title>
<g id="a_edge28_Node000001_Node000014"><a xlink:title=" ">
<path fill="none" stroke="#63b8ff" d="M682.82,-281.43C663.27,-265.83 635.18,-245.09 608,-231 601.69,-227.73 594.85,-224.74 587.99,-222.07"/>
<polygon fill="#63b8ff" stroke="#63b8ff" points="680.67,-284.2 690.64,-287.77 685.08,-278.76 680.67,-284.2"/>
</a>
</g>
</g>
<!-- Node15 -->
<g id="Node000015" class="node">
<title>Node15</title>
<g id="a_Node000015"><a xlink:href="../../d9/d2c/classlci_1_1alloc__net__context__x.html#a11c33085d6c48cc3684d45ae1f91b354" target="_top" xlink:title=" ">
<polygon fill="white" stroke="#666666" points="600.5,-174 475.5,-174 475.5,-144 600.5,-144 600.5,-174"/>
<text text-anchor="start" x="483.5" y="-162" font-family="Helvetica,sans-Serif" font-size="10.00">lci::alloc_net_context</text>
<text text-anchor="middle" x="538" y="-151" font-family="Helvetica,sans-Serif" font-size="10.00">_x::ofi_provider_name</text>
</a>
</g>
</g>
<!-- Node1&#45;&gt;Node15 -->
<g id="edge31_Node000001_Node000015" class="edge">
<title>Node1&#45;&gt;Node15</title>
<g id="a_edge31_Node000001_Node000015"><a xlink:title=" ">
<path fill="none" stroke="#63b8ff" d="M694.13,-279.06C676.84,-252.14 645.41,-208.82 608,-183 603.09,-179.61 597.66,-176.66 592.07,-174.1"/>
<polygon fill="#63b8ff" stroke="#63b8ff" points="691.37,-281.23 699.65,-287.84 697.29,-277.51 691.37,-281.23"/>
</a>
</g>
</g>
<!-- Node16 -->
<g id="Node000016" class="node">
<title>Node16</title>
<g id="a_Node000016"><a xlink:href="../../d9/d2c/classlci_1_1alloc__net__context__x.html#a3cc9f4bac3c372009fe44dbd77153c19" target="_top" xlink:title=" ">
<polygon fill="white" stroke="#666666" points="598,-126 478,-126 478,-96 598,-96 598,-126"/>
<text text-anchor="start" x="486" y="-114" font-family="Helvetica,sans-Serif" font-size="10.00">lci::alloc_net_context</text>
<text text-anchor="middle" x="538" y="-103" font-family="Helvetica,sans-Serif" font-size="10.00">_x::runtime</text>
</a>
</g>
</g>
<!-- Node1&#45;&gt;Node16 -->
<g id="edge34_Node000001_Node000016" class="edge">
<title>Node1&#45;&gt;Node16</title>
<g id="a_edge34_Node000001_Node000016"><a xlink:title=" ">
<path fill="none" stroke="#63b8ff" d="M699.96,-278.18C686.19,-241.73 655.71,-173.83 608,-135 603.77,-131.56 599.01,-128.59 594.03,-126.05"/>
<polygon fill="#63b8ff" stroke="#63b8ff" points="696.67,-279.39 703.4,-287.58 703.25,-276.99 696.67,-279.39"/>
</a>
</g>
</g>
<!-- Node17 -->
<g id="Node000017" class="node">
<title>Node17</title>
<g id="a_Node000017"><a xlink:href="../../d9/d2c/classlci_1_1alloc__net__context__x.html#aabdd8693975475fef49f39019610a4ae" target="_top" xlink:title=" ">
<polygon fill="white" stroke="#666666" points="598,-78 478,-78 478,-48 598,-48 598,-78"/>
<text text-anchor="start" x="486" y="-66" font-family="Helvetica,sans-Serif" font-size="10.00">lci::alloc_net_context</text>
<text text-anchor="middle" x="538" y="-55" font-family="Helvetica,sans-Serif" font-size="10.00">_x::use_dmabuf</text>
</a>
</g>
</g>
<!-- Node1&#45;&gt;Node17 -->
<g id="edge37_Node000001_Node000017" class="edge">
<title>Node1&#45;&gt;Node17</title>
<g id="a_edge37_Node000001_Node000017"><a xlink:title=" ">
<path fill="none" stroke="#63b8ff" d="M703.5,-277.73C693.37,-233 666.25,-139.66 608,-87 604.24,-83.6 599.96,-80.67 595.44,-78.16"/>
<polygon fill="#63b8ff" stroke="#63b8ff" points="700.14,-278.72 705.67,-287.75 706.98,-277.24 700.14,-278.72"/>
</a>
</g>
</g>
<!-- Node18 -->
<g id="Node000018" class="node">
<title>Node18</title>
<g id="a_Node000018"><a xlink:href="../../d9/d2c/classlci_1_1alloc__net__context__x.html#a875d4f78abda2116a3ea1982116165a3" target="_top" xlink:title=" ">
<polygon fill="white" stroke="#666666" points="598,-30 478,-30 478,0 598,0 598,-30"/>
<text text-anchor="start" x="486" y="-18" font-family="Helvetica,sans-Serif" font-size="10.00">lci::alloc_net_context</text>
<text text-anchor="middle" x="538" y="-7" font-family="Helvetica,sans-Serif" font-size="10.00">_x::user_context</text>
</a>
</g>
</g>
<!-- Node1&#45;&gt;Node18 -->
<g id="edge40_Node000001_Node000018" class="edge">
<title>Node1&#45;&gt;Node18</title>
<g id="a_edge40_Node000001_Node000018"><a xlink:title=" ">
<path fill="none" stroke="#63b8ff" d="M705.94,-277.74C699.35,-225.78 677.13,-106.15 608,-39 604.45,-35.55 600.38,-32.6 596.04,-30.07"/>
<polygon fill="#63b8ff" stroke="#63b8ff" points="702.48,-278.24 707.12,-287.76 709.43,-277.42 702.48,-278.24"/>
</a>
</g>
</g>
<!-- Node3 -->
<g id="Node000003" class="node">
<title>Node3</title>
<g id="a_Node000003"><a xlink:href="../../d9/d2c/classlci_1_1alloc__net__context__x.html#ad70070ae0aaa12a3a7ab0be8f9f84dbc" target="_top" xlink:title=" ">
<polygon fill="white" stroke="#666666" points="276,-313 156,-313 156,-283 276,-283 276,-313"/>
<text text-anchor="start" x="164" y="-301" font-family="Helvetica,sans-Serif" font-size="10.00">lci::alloc_net_context</text>
<text text-anchor="middle" x="216" y="-290" font-family="Helvetica,sans-Serif" font-size="10.00">_x::call</text>
</a>
</g>
</g>
<!-- Node2&#45;&gt;Node3 -->
<g id="edge2_Node000002_Node000003" class="edge">
<title>Node2&#45;&gt;Node3</title>
<g id="a_edge2_Node000002_Node000003"><a xlink:title=" ">
<path fill="none" stroke="#63b8ff" d="M467.93,-589.88C418.9,-577.36 354.49,-553.97 312,-512 252.72,-453.43 227.46,-351.44 219.75,-313.12"/>
<polygon fill="#63b8ff" stroke="#63b8ff" points="467.29,-593.33 477.83,-592.32 468.96,-586.53 467.29,-593.33"/>
</a>
</g>
</g>
<!-- Node6 -->
<g id="Node000006" class="node">
<title>Node6</title>
<g id="a_Node000006"><a xlink:href="../../d9/d2c/classlci_1_1alloc__net__context__x.html#a61d7668ea2b5b06194cb1a59d7ec2a94" target="_top" xlink:title=" ">
<polygon fill="white" stroke="#666666" points="432,-335 312,-335 312,-305 432,-305 432,-335"/>
<text text-anchor="start" x="320" y="-323" font-family="Helvetica,sans-Serif" font-size="10.00">lci::alloc_net_context</text>
<text text-anchor="middle" x="372" y="-312" font-family="Helvetica,sans-Serif" font-size="10.00">_x::call_impl</text>
</a>
</g>
</g>
<!-- Node2&#45;&gt;Node6 -->
<g id="edge5_Node000002_Node000006" class="edge">
<title>Node2&#45;&gt;Node6</title>
<g id="a_edge5_Node000002_Node000006"><a xlink:title=" ">
<path fill="none" stroke="#63b8ff" d="M471.45,-582.11C470.26,-581.12 469.1,-580.08 468,-579 396.28,-508.48 378.3,-379.37 374.15,-335.25"/>
<polygon fill="#63b8ff" stroke="#63b8ff" points="469.71,-585.16 479.92,-587.98 473.7,-579.4 469.71,-585.16"/>
</a>
</g>
</g>
<!-- Node4 -->
<g id="Node000004" class="node">
<title>Node4</title>
<g id="a_Node000004"><a xlink:href="../../d5/dd3/namespacelci.html#a1cff68ba78f73159d31e3d6436a3ef40" target="_top" xlink:title=" ">
<polygon fill="white" stroke="#666666" points="120,-329.5 0,-329.5 0,-310.5 120,-310.5 120,-329.5"/>
<text text-anchor="middle" x="60" y="-317.5" font-family="Helvetica,sans-Serif" font-size="10.00">lci::alloc_net_context</text>
</a>
</g>
</g>
<!-- Node3&#45;&gt;Node4 -->
<g id="edge3_Node000003_Node000004" class="edge">
<title>Node3&#45;&gt;Node4</title>
<g id="a_edge3_Node000003_Node000004"><a xlink:title=" ">
<path fill="none" stroke="#63b8ff" d="M145.91,-307.87C137.33,-309.1 128.61,-310.34 120.2,-311.54"/>
<polygon fill="#63b8ff" stroke="#63b8ff" points="146.5,-311.32 155.9,-306.44 145.51,-304.39 146.5,-311.32"/>
</a>
</g>
</g>
<!-- Node5 -->
<g id="Node000005" class="node">
<title>Node5</title>
<g id="a_Node000005"><a xlink:href="../../d9/d2c/classlci_1_1alloc__net__context__x.html#af445224a5a84c85366d66cfcc0ad561f" target="_top" xlink:title=" ">
<polygon fill="white" stroke="#666666" points="120,-292 0,-292 0,-262 120,-262 120,-292"/>
<text text-anchor="start" x="8" y="-280" font-family="Helvetica,sans-Serif" font-size="10.00">lci::alloc_net_context</text>
<text text-anchor="middle" x="60" y="-269" font-family="Helvetica,sans-Serif" font-size="10.00">_x::operator()</text>
</a>
</g>
</g>
<!-- Node3&#45;&gt;Node5 -->
<g id="edge4_Node000003_Node000005" class="edge">
<title>Node3&#45;&gt;Node5</title>
<g id="a_edge4_Node000003_Node000005"><a xlink:title=" ">
<path fill="none" stroke="#63b8ff" d="M145.91,-288.58C137.33,-287.41 128.61,-286.22 120.2,-285.07"/>
<polygon fill="#63b8ff" stroke="#63b8ff" points="145.52,-292.06 155.9,-289.94 146.46,-285.12 145.52,-292.06"/>
</a>
</g>
</g>
<!-- Node6&#45;&gt;Node3 -->
<g id="edge6_Node000006_Node000003" class="edge">
<title>Node6&#45;&gt;Node3</title>
<g id="a_edge6_Node000006_Node000003"><a xlink:title=" ">
<path fill="none" stroke="#63b8ff" d="M301.91,-310.13C293.33,-308.9 284.61,-307.66 276.2,-306.46"/>
<polygon fill="#63b8ff" stroke="#63b8ff" points="301.51,-313.61 311.9,-311.56 302.5,-306.68 301.51,-313.61"/>
</a>
</g>
</g>
<!-- Node7&#45;&gt;Node3 -->
<g id="edge8_Node000007_Node000003" class="edge">
<title>Node7&#45;&gt;Node3</title>
<g id="a_edge8_Node000007_Node000003"><a xlink:title=" ">
<path fill="none" stroke="#63b8ff" d="M468.2,-540.99C419.89,-528.24 356.25,-505.24 312,-466 262.36,-421.98 232.68,-345.56 221.78,-313.18"/>
<polygon fill="#63b8ff" stroke="#63b8ff" points="467.4,-544.4 477.96,-543.48 469.13,-537.62 467.4,-544.4"/>
</a>
</g>
</g>
<!-- Node7&#45;&gt;Node6 -->
<g id="edge9_Node000007_Node000006" class="edge">
<title>Node7&#45;&gt;Node6</title>
<g id="a_edge9_Node000007_Node000006"><a xlink:title=" ">
<path fill="none" stroke="#63b8ff" d="M472.03,-534.36C470.63,-533.3 469.29,-532.18 468,-531 407.25,-475.39 382.88,-373.54 375.58,-335.17"/>
<polygon fill="#63b8ff" stroke="#63b8ff" points="470.23,-537.37 480.52,-539.89 474.05,-531.5 470.23,-537.37"/>
</a>
</g>
</g>
<!-- Node8&#45;&gt;Node3 -->
<g id="edge11_Node000008_Node000003" class="edge">
<title>Node8&#45;&gt;Node3</title>
<g id="a_edge11_Node000008_Node000003"><a xlink:title=" ">
<path fill="none" stroke="#63b8ff" d="M464.76,-488.63C417.87,-477.92 357.29,-458.82 312,-426 269.65,-395.31 238.05,-340.17 224.41,-313.41"/>
<polygon fill="#63b8ff" stroke="#63b8ff" points="464.02,-492.05 474.54,-490.79 465.53,-485.22 464.02,-492.05"/>
</a>
</g>
</g>
<!-- Node8&#45;&gt;Node6 -->
<g id="edge12_Node000008_Node000006" class="edge">
<title>Node8&#45;&gt;Node6</title>
<g id="a_edge12_Node000008_Node000006"><a xlink:title=" ">
<path fill="none" stroke="#63b8ff" d="M472.75,-474.78C471.11,-473.57 469.52,-472.31 468,-471 422.42,-431.85 391.37,-365.32 379,-335.39"/>
<polygon fill="#63b8ff" stroke="#63b8ff" points="471.07,-477.86 481.34,-480.45 474.92,-472.02 471.07,-477.86"/>
</a>
</g>
</g>
<!-- Node9&#45;&gt;Node3 -->
<g id="edge14_Node000009_Node000003" class="edge">
<title>Node9&#45;&gt;Node3</title>
<g id="a_edge14_Node000009_Node000003"><a xlink:title=" ">
<path fill="none" stroke="#63b8ff" d="M467.94,-439.89C421.51,-432.84 360.23,-418.97 312,-392 275.95,-371.84 244.11,-334.27 228.04,-313.25"/>
<polygon fill="#63b8ff" stroke="#63b8ff" points="467.51,-443.37 477.91,-441.34 468.51,-436.44 467.51,-443.37"/>
</a>
</g>
</g>
<!-- Node9&#45;&gt;Node6 -->
<g id="edge15_Node000009_Node000006" class="edge">
<title>Node9&#45;&gt;Node6</title>
<g id="a_edge15_Node000009_Node000006"><a xlink:title=" ">
<path fill="none" stroke="#63b8ff" d="M475.62,-427.52C472.99,-426.1 470.44,-424.6 468,-423 431.18,-398.86 398.93,-357.37 383.2,-335.13"/>
<polygon fill="#63b8ff" stroke="#63b8ff" points="474.29,-430.76 484.81,-431.98 477.35,-424.46 474.29,-430.76"/>
</a>
</g>
</g>
<!-- Node10&#45;&gt;Node3 -->
<g id="edge17_Node000010_Node000003" class="edge">
<title>Node10&#45;&gt;Node3</title>
<g id="a_edge17_Node000010_Node000003"><a xlink:title=" ">
<path fill="none" stroke="#63b8ff" d="M467.67,-396.29C422.06,-392.58 361.82,-383.94 312,-364 281.8,-351.91 251.78,-328.69 233.8,-313.27"/>
<polygon fill="#63b8ff" stroke="#63b8ff" points="467.52,-399.79 477.75,-397.05 468.05,-392.81 467.52,-399.79"/>
</a>
</g>
</g>
<!-- Node10&#45;&gt;Node6 -->
<g id="edge18_Node000010_Node000006" class="edge">
<title>Node10&#45;&gt;Node6</title>
<g id="a_edge18_Node000010_Node000006"><a xlink:title=" ">
<path fill="none" stroke="#63b8ff" d="M480.42,-380.31C476.18,-378.61 472,-376.83 468,-375 442.53,-363.33 414.99,-346.93 396.15,-335.07"/>
<polygon fill="#63b8ff" stroke="#63b8ff" points="479.17,-383.58 489.76,-383.91 481.69,-377.05 479.17,-383.58"/>
</a>
</g>
</g>
<!-- Node11&#45;&gt;Node3 -->
<g id="edge20_Node000011_Node000003" class="edge">
<title>Node11&#45;&gt;Node3</title>
<g id="a_edge20_Node000011_Node000003"><a xlink:title=" ">
<path fill="none" stroke="#63b8ff" d="M457.55,-356.54C413.98,-357.59 359.34,-355.64 312,-344 286.37,-337.7 259.52,-323.93 240.93,-313.09"/>
<polygon fill="#63b8ff" stroke="#63b8ff" points="457.92,-360.03 467.81,-356.24 457.71,-353.04 457.92,-360.03"/>
</a>
</g>
</g>
<!-- Node11&#45;&gt;Node6 -->
<g id="edge21_Node000011_Node000006" class="edge">
<title>Node11&#45;&gt;Node6</title>
<g id="a_edge21_Node000011_Node000006"><a xlink:title=" ">
<path fill="none" stroke="#63b8ff" d="M458.1,-336.09C449.35,-334.43 440.57,-332.77 432.13,-331.18"/>
<polygon fill="#63b8ff" stroke="#63b8ff" points="457.45,-339.52 467.92,-337.94 458.75,-332.65 457.45,-339.52"/>
</a>
</g>
</g>
<!-- Node12&#45;&gt;Node3 -->
<g id="edge23_Node000012_Node000003" class="edge">
<title>Node12&#45;&gt;Node3</title>
<g id="a_edge23_Node000012_Node000003"><a xlink:title=" ">
<path fill="none" stroke="#63b8ff" d="M467.58,-297.72C455.72,-297 443.51,-296.38 432,-296 378.7,-294.23 365.33,-295.44 312,-296 300.37,-296.12 287.94,-296.33 276.04,-296.56"/>
<polygon fill="#63b8ff" stroke="#63b8ff" points="467.69,-301.23 477.89,-298.37 468.13,-294.25 467.69,-301.23"/>
</a>
</g>
</g>
<!-- Node12&#45;&gt;Node6 -->
<g id="edge24_Node000012_Node000006" class="edge">
<title>Node12&#45;&gt;Node6</title>
<g id="a_edge24_Node000012_Node000006"><a xlink:title=" ">
<path fill="none" stroke="#63b8ff" d="M467.55,-310.2C455.76,-311.42 443.61,-312.68 432.12,-313.87"/>
<polygon fill="#63b8ff" stroke="#63b8ff" points="468.21,-313.65 477.79,-309.14 467.48,-306.69 468.21,-313.65"/>
</a>
</g>
</g>
<!-- Node13&#45;&gt;Node3 -->
<g id="edge26_Node000013_Node000003" class="edge">
<title>Node13&#45;&gt;Node3</title>
<g id="a_edge26_Node000013_Node000003"><a xlink:title=" ">
<path fill="none" stroke="#63b8ff" d="M467.9,-264.28C410.77,-271.96 330.5,-282.75 276.26,-290.04"/>
<polygon fill="#63b8ff" stroke="#63b8ff" points="468.49,-267.74 477.93,-262.94 467.56,-260.8 468.49,-267.74"/>
</a>
</g>
</g>
<!-- Node13&#45;&gt;Node6 -->
<g id="edge27_Node000013_Node000006" class="edge">
<title>Node13&#45;&gt;Node6</title>
<g id="a_edge27_Node000013_Node000006"><a xlink:title=" ">
<path fill="none" stroke="#63b8ff" d="M482.71,-273.47C477.72,-275.29 472.75,-277.15 468,-279 447.24,-287.08 424.3,-296.95 406.17,-304.98"/>
<polygon fill="#63b8ff" stroke="#63b8ff" points="484.06,-276.7 492.29,-270.02 481.69,-270.11 484.06,-276.7"/>
</a>
</g>
</g>
<!-- Node14&#45;&gt;Node3 -->
<g id="edge29_Node000014_Node000003" class="edge">
<title>Node14&#45;&gt;Node3</title>
<g id="a_edge29_Node000014_Node000003"><a xlink:title=" ">
<path fill="none" stroke="#63b8ff" d="M468.07,-223.78C423.36,-234.97 363.97,-250.45 312,-266 294.83,-271.14 276.09,-277.32 259.84,-282.88"/>
<polygon fill="#63b8ff" stroke="#63b8ff" points="469.09,-227.13 477.95,-221.31 467.4,-220.33 469.09,-227.13"/>
</a>
</g>
</g>
<!-- Node14&#45;&gt;Node6 -->
<g id="edge30_Node000014_Node000006" class="edge">
<title>Node14&#45;&gt;Node6</title>
<g id="a_edge30_Node000014_Node000006"><a xlink:title=" ">
<path fill="none" stroke="#63b8ff" d="M476.65,-226.26C473.67,-227.75 470.77,-229.33 468,-231 434.35,-251.34 402.55,-285.15 385.64,-304.72"/>
<polygon fill="#63b8ff" stroke="#63b8ff" points="478.14,-229.43 485.77,-222.08 475.22,-223.07 478.14,-229.43"/>
</a>
</g>
</g>
<!-- Node15&#45;&gt;Node3 -->
<g id="edge32_Node000015_Node000003" class="edge">
<title>Node15&#45;&gt;Node3</title>
<g id="a_edge32_Node000015_Node000003"><a xlink:title=" ">
<path fill="none" stroke="#63b8ff" d="M465.47,-174.88C420.08,-186.48 360.89,-204.48 312,-229 282.48,-243.8 252.28,-267.5 234.08,-282.91"/>
<polygon fill="#63b8ff" stroke="#63b8ff" points="466.39,-178.26 475.24,-172.43 464.68,-171.47 466.39,-178.26"/>
</a>
</g>
</g>
<!-- Node15&#45;&gt;Node6 -->
<g id="edge33_Node000015_Node000006" class="edge">
<title>Node15&#45;&gt;Node6</title>
<g id="a_edge33_Node000015_Node000006"><a xlink:title=" ">
<path fill="none" stroke="#63b8ff" d="M473.78,-179.02C471.78,-180.27 469.85,-181.6 468,-183 423.75,-216.61 392.44,-276.87 379.55,-304.9"/>
<polygon fill="#63b8ff" stroke="#63b8ff" points="475.83,-181.89 482.91,-174 472.46,-175.75 475.83,-181.89"/>
</a>
</g>
</g>
<!-- Node16&#45;&gt;Node3 -->
<g id="edge35_Node000016_Node000003" class="edge">
<title>Node16&#45;&gt;Node3</title>
<g id="a_edge35_Node000016_Node000003"><a xlink:title=" ">
<path fill="none" stroke="#63b8ff" d="M467.77,-121.24C420.73,-130.71 358.8,-148.3 312,-180 271.28,-207.58 239.36,-257.83 225.11,-282.91"/>
<polygon fill="#63b8ff" stroke="#63b8ff" points="468.72,-124.62 477.87,-119.29 467.39,-117.75 468.72,-124.62"/>
</a>
</g>
</g>
<!-- Node16&#45;&gt;Node6 -->
<g id="edge36_Node000016_Node000006" class="edge">
<title>Node16&#45;&gt;Node6</title>
<g id="a_edge36_Node000016_Node000006"><a xlink:title=" ">
<path fill="none" stroke="#63b8ff" d="M472.22,-131.65C470.76,-132.71 469.35,-133.83 468,-135 413.09,-182.73 385.76,-269.94 376.62,-304.91"/>
<polygon fill="#63b8ff" stroke="#63b8ff" points="474.42,-134.4 481.05,-126.13 470.71,-128.46 474.42,-134.4"/>
</a>
</g>
</g>
<!-- Node17&#45;&gt;Node3 -->
<g id="edge38_Node000017_Node000003" class="edge">
<title>Node17&#45;&gt;Node3</title>
<g id="a_edge38_Node000017_Node000003"><a xlink:title=" ">
<path fill="none" stroke="#63b8ff" d="M467.74,-68.37C419.68,-75.21 356.54,-90.74 312,-126 258.51,-168.35 230.61,-249.51 220.97,-282.99"/>
<polygon fill="#63b8ff" stroke="#63b8ff" points="468.31,-71.82 477.76,-67.03 467.38,-64.88 468.31,-71.82"/>
</a>
</g>
</g>
<!-- Node17&#45;&gt;Node6 -->
<g id="edge39_Node000017_Node000006" class="edge">
<title>Node17&#45;&gt;Node6</title>
<g id="a_edge39_Node000017_Node000006"><a xlink:title=" ">
<path fill="none" stroke="#63b8ff" d="M471.51,-83.95C470.29,-84.92 469.12,-85.94 468,-87 402.25,-149.39 380.67,-263.72 374.86,-304.8"/>
<polygon fill="#63b8ff" stroke="#63b8ff" points="473.73,-86.66 480.05,-78.16 469.81,-80.87 473.73,-86.66"/>
</a>
</g>
</g>
<!-- Node18&#45;&gt;Node3 -->
<g id="edge41_Node000018_Node000003" class="edge">
<title>Node18&#45;&gt;Node3</title>
<g id="a_edge41_Node000018_Node000003"><a xlink:title=" ">
<path fill="none" stroke="#63b8ff" d="M467.63,-16.38C418.93,-20.81 355.07,-34.05 312,-71 244.73,-128.73 224.1,-242.01 218.69,-282.86"/>
<polygon fill="#63b8ff" stroke="#63b8ff" points="468.09,-19.85 477.78,-15.56 467.53,-12.87 468.09,-19.85"/>
</a>
</g>
</g>
<!-- Node18&#45;&gt;Node6 -->
<g id="edge42_Node000018_Node000006" class="edge">
<title>Node18&#45;&gt;Node6</title>
<g id="a_edge42_Node000018_Node000006"><a xlink:title=" ">
<path fill="none" stroke="#63b8ff" d="M471.32,-35.93C470.17,-36.91 469.06,-37.93 468,-39 391.14,-116.53 376.43,-258.36 373.64,-304.82"/>
<polygon fill="#63b8ff" stroke="#63b8ff" points="473.37,-38.77 479.49,-30.12 469.31,-33.07 473.37,-38.77"/>
</a>
</g>
</g>
</g>
</svg>
