<?xml version="1.0" encoding="UTF-8" standalone="no"?>
<!DOCTYPE svg PUBLIC "-//W3C//DTD SVG 1.1//EN"
 "http://www.w3.org/Graphics/SVG/1.1/DTD/svg11.dtd">
<!-- Generated by graphviz version 2.43.0 (0)
 -->
<!-- Title: lci::alloc_net_context_x::call_impl Pages: 1 -->
<svg width="471pt" height="530pt"
 viewBox="0.00 0.00 471.00 530.00" xmlns="http://www.w3.org/2000/svg" xmlns:xlink="http://www.w3.org/1999/xlink">
<g id="graph0" class="graph" transform="scale(1 1) rotate(0) translate(4 526)">
<title>lci::alloc_net_context_x::call_impl</title>
<!-- Node1 -->
<g id="Node000001" class="node">
<title>Node1</title>
<g id="a_Node000001"><a xlink:title=" ">
<polygon fill="#999999" stroke="#666666" points="120,-270 0,-270 0,-240 120,-240 120,-270"/>
<text text-anchor="start" x="8" y="-258" font-family="Helvetica,sans-Serif" font-size="10.00">lci::alloc_net_context</text>
<text text-anchor="middle" x="60" y="-247" font-family="Helvetica,sans-Serif" font-size="10.00">_x::call_impl</text>
</a>
</g>
</g>
<!-- Node2 -->
<g id="Node000002" class="node">
<title>Node2</title>
<g id="a_Node000002"><a xlink:href="../../d9/d2c/classlci_1_1alloc__net__context__x.html#a924ac87bf6d7c2eb6b52768734dee344" target="_top" xlink:title=" ">
<polygon fill="white" stroke="#666666" points="286,-522 166,-522 166,-492 286,-492 286,-522"/>
<text text-anchor="start" x="174" y="-510" font-family="Helvetica,sans-Serif" font-size="10.00">lci::alloc_net_context</text>
<text text-anchor="middle" x="226" y="-499" font-family="Helvetica,sans-Serif" font-size="10.00">_x::backend</text>
</a>
</g>
</g>
<!-- Node1&#45;&gt;Node2 -->
<g id="edge1_Node000001_Node000002" class="edge">
<title>Node1&#45;&gt;Node2</title>
<g id="a_edge1_Node000001_Node000002"><a xlink:title=" ">
<path fill="none" stroke="#63b8ff" d="M63.01,-270.17C69.15,-310.63 91.38,-422.15 156,-483 157.13,-484.06 158.3,-485.07 159.52,-486.04"/>
<polygon fill="#63b8ff" stroke="#63b8ff" points="157.83,-489.13 168.08,-491.81 161.74,-483.32 157.83,-489.13"/>
</a>
</g>
</g>
<!-- Node4 -->
<g id="Node000004" class="node">
<title>Node4</title>
<g id="a_Node000004"><a xlink:href="../../d9/d2c/classlci_1_1alloc__net__context__x.html#a9fe41e79d8eb835bbe41fc713b0971cf" target="_top" xlink:title=" ">
<polygon fill="white" stroke="#666666" points="289,-473.5 163,-473.5 163,-432.5 289,-432.5 289,-473.5"/>
<text text-anchor="start" x="171" y="-461.5" font-family="Helvetica,sans-Serif" font-size="10.00">lci::alloc_net_context</text>
<text text-anchor="start" x="171" y="-450.5" font-family="Helvetica,sans-Serif" font-size="10.00">_x::ibv_force_gid_auto</text>
<text text-anchor="middle" x="226" y="-439.5" font-family="Helvetica,sans-Serif" font-size="10.00">_select</text>
</a>
</g>
</g>
<!-- Node1&#45;&gt;Node4 -->
<g id="edge3_Node000001_Node000004" class="edge">
<title>Node1&#45;&gt;Node4</title>
<g id="a_edge3_Node000001_Node000004"><a xlink:title=" ">
<path fill="none" stroke="#63b8ff" d="M65.83,-270.13C76.83,-302.38 106.7,-378.6 156,-423 157.46,-424.31 158.98,-425.57 160.55,-426.78"/>
<polygon fill="#63b8ff" stroke="#63b8ff" points="158.59,-429.68 168.82,-432.44 162.54,-423.9 158.59,-429.68"/>
</a>
</g>
</g>
<!-- Node5 -->
<g id="Node000005" class="node">
<title>Node5</title>
<g id="a_Node000005"><a xlink:href="../../d9/d2c/classlci_1_1alloc__net__context__x.html#a41c846e3f23a79c2ed6832493cfbdf32" target="_top" xlink:title=" ">
<polygon fill="white" stroke="#666666" points="286,-414 166,-414 166,-384 286,-384 286,-414"/>
<text text-anchor="start" x="174" y="-402" font-family="Helvetica,sans-Serif" font-size="10.00">lci::alloc_net_context</text>
<text text-anchor="middle" x="226" y="-391" font-family="Helvetica,sans-Serif" font-size="10.00">_x::ibv_gid_idx</text>
</a>
</g>
</g>
<!-- Node1&#45;&gt;Node5 -->
<g id="edge5_Node000001_Node000005" class="edge">
<title>Node1&#45;&gt;Node5</title>
<g id="a_edge5_Node000001_Node000005"><a xlink:title=" ">
<path fill="none" stroke="#63b8ff" d="M69.16,-270.18C83.48,-295.45 115.5,-346.21 156,-375 158.08,-376.48 160.26,-377.87 162.51,-379.19"/>
<polygon fill="#63b8ff" stroke="#63b8ff" points="161,-382.35 171.48,-383.87 164.24,-376.14 161,-382.35"/>
</a>
</g>
</g>
<!-- Node6 -->
<g id="Node000006" class="node">
<title>Node6</title>
<g id="a_Node000006"><a xlink:href="../../d9/d2c/classlci_1_1alloc__net__context__x.html#aaad66599526eca49a9ee0dada3f8e35c" target="_top" xlink:title=" ">
<polygon fill="white" stroke="#666666" points="286,-366 166,-366 166,-336 286,-336 286,-366"/>
<text text-anchor="start" x="174" y="-354" font-family="Helvetica,sans-Serif" font-size="10.00">lci::alloc_net_context</text>
<text text-anchor="middle" x="226" y="-343" font-family="Helvetica,sans-Serif" font-size="10.00">_x::ibv_odp_strategy</text>
</a>
</g>
</g>
<!-- Node1&#45;&gt;Node6 -->
<g id="edge7_Node000001_Node000006" class="edge">
<title>Node1&#45;&gt;Node6</title>
<g id="a_edge7_Node000001_Node000006"><a xlink:title=" ">
<path fill="none" stroke="#63b8ff" d="M77.4,-270.01C95.51,-285.94 126.08,-310.98 156,-327 159.27,-328.75 162.69,-330.41 166.18,-331.99"/>
<polygon fill="#63b8ff" stroke="#63b8ff" points="164.98,-335.28 175.56,-335.94 167.7,-328.83 164.98,-335.28"/>
</a>
</g>
</g>
<!-- Node7 -->
<g id="Node000007" class="node">
<title>Node7</title>
<g id="a_Node000007"><a xlink:href="../../d9/d2c/classlci_1_1alloc__net__context__x.html#a2c1d71a830f38024cb6193d55e088fb8" target="_top" xlink:title=" ">
<polygon fill="white" stroke="#666666" points="296,-318 156,-318 156,-288 296,-288 296,-318"/>
<text text-anchor="start" x="164" y="-306" font-family="Helvetica,sans-Serif" font-size="10.00">lci::alloc_net_context</text>
<text text-anchor="middle" x="226" y="-295" font-family="Helvetica,sans-Serif" font-size="10.00">_x::ibv_prefetch_strategy</text>
</a>
</g>
</g>
<!-- Node1&#45;&gt;Node7 -->
<g id="edge9_Node000001_Node000007" class="edge">
<title>Node1&#45;&gt;Node7</title>
<g id="a_edge9_Node000001_Node000007"><a xlink:title=" ">
<path fill="none" stroke="#63b8ff" d="M112.44,-270.06C128.77,-274.84 146.99,-280.17 163.94,-285.13"/>
<polygon fill="#63b8ff" stroke="#63b8ff" points="163.16,-288.55 173.74,-288 165.13,-281.83 163.16,-288.55"/>
</a>
</g>
</g>
<!-- Node8 -->
<g id="Node000008" class="node">
<title>Node8</title>
<g id="a_Node000008"><a xlink:href="../../d9/d2c/classlci_1_1alloc__net__context__x.html#a6654c9eac4872fca14364abd71f579f1" target="_top" xlink:title=" ">
<polygon fill="white" stroke="#666666" points="286,-270 166,-270 166,-240 286,-240 286,-270"/>
<text text-anchor="start" x="174" y="-258" font-family="Helvetica,sans-Serif" font-size="10.00">lci::alloc_net_context</text>
<text text-anchor="middle" x="226" y="-247" font-family="Helvetica,sans-Serif" font-size="10.00">_x::max_inject_size</text>
</a>
</g>
</g>
<!-- Node1&#45;&gt;Node8 -->
<g id="edge11_Node000001_Node000008" class="edge">
<title>Node1&#45;&gt;Node8</title>
<g id="a_edge11_Node000001_Node000008"><a xlink:title=" ">
<path fill="none" stroke="#63b8ff" d="M120.21,-255C131.7,-255 143.85,-255 155.64,-255"/>
<polygon fill="#63b8ff" stroke="#63b8ff" points="155.88,-258.5 165.88,-255 155.88,-251.5 155.88,-258.5"/>
</a>
</g>
</g>
<!-- Node9 -->
<g id="Node000009" class="node">
<title>Node9</title>
<g id="a_Node000009"><a xlink:href="../../d9/d2c/classlci_1_1alloc__net__context__x.html#ad264e33dba3328ba304b8727d91fea36" target="_top" xlink:title=" ">
<polygon fill="white" stroke="#666666" points="286,-222 166,-222 166,-192 286,-192 286,-222"/>
<text text-anchor="start" x="174" y="-210" font-family="Helvetica,sans-Serif" font-size="10.00">lci::alloc_net_context</text>
<text text-anchor="middle" x="226" y="-199" font-family="Helvetica,sans-Serif" font-size="10.00">_x::max_msg_size</text>
</a>
</g>
</g>
<!-- Node1&#45;&gt;Node9 -->
<g id="edge13_Node000001_Node000009" class="edge">
<title>Node1&#45;&gt;Node9</title>
<g id="a_edge13_Node000001_Node000009"><a xlink:title=" ">
<path fill="none" stroke="#63b8ff" d="M112.44,-239.94C128.77,-235.16 146.99,-229.83 163.94,-224.87"/>
<polygon fill="#63b8ff" stroke="#63b8ff" points="165.13,-228.17 173.74,-222 163.16,-221.45 165.13,-228.17"/>
</a>
</g>
</g>
<!-- Node10 -->
<g id="Node000010" class="node">
<title>Node10</title>
<g id="a_Node000010"><a xlink:href="../../d9/d2c/classlci_1_1alloc__net__context__x.html#a11c33085d6c48cc3684d45ae1f91b354" target="_top" xlink:title=" ">
<polygon fill="white" stroke="#666666" points="288.5,-174 163.5,-174 163.5,-144 288.5,-144 288.5,-174"/>
<text text-anchor="start" x="171.5" y="-162" font-family="Helvetica,sans-Serif" font-size="10.00">lci::alloc_net_context</text>
<text text-anchor="middle" x="226" y="-151" font-family="Helvetica,sans-Serif" font-size="10.00">_x::ofi_provider_name</text>
</a>
</g>
</g>
<!-- Node1&#45;&gt;Node10 -->
<g id="edge15_Node000001_Node000010" class="edge">
<title>Node1&#45;&gt;Node10</title>
<g id="a_edge15_Node000001_Node000010"><a xlink:title=" ">
<path fill="none" stroke="#63b8ff" d="M77.4,-239.99C95.51,-224.06 126.08,-199.02 156,-183 159.27,-181.25 162.69,-179.59 166.18,-178.01"/>
<polygon fill="#63b8ff" stroke="#63b8ff" points="167.7,-181.17 175.56,-174.06 164.98,-174.72 167.7,-181.17"/>
</a>
</g>
</g>
<!-- Node11 -->
<g id="Node000011" class="node">
<title>Node11</title>
<g id="a_Node000011"><a xlink:href="../../d9/d2c/classlci_1_1alloc__net__context__x.html#a3cc9f4bac3c372009fe44dbd77153c19" target="_top" xlink:title=" ">
<polygon fill="white" stroke="#666666" points="286,-126 166,-126 166,-96 286,-96 286,-126"/>
<text text-anchor="start" x="174" y="-114" font-family="Helvetica,sans-Serif" font-size="10.00">lci::alloc_net_context</text>
<text text-anchor="middle" x="226" y="-103" font-family="Helvetica,sans-Serif" font-size="10.00">_x::runtime</text>
</a>
</g>
</g>
<!-- Node1&#45;&gt;Node11 -->
<g id="edge17_Node000001_Node000011" class="edge">
<title>Node1&#45;&gt;Node11</title>
<g id="a_edge17_Node000001_Node000011"><a xlink:title=" ">
<path fill="none" stroke="#63b8ff" d="M69.16,-239.82C83.48,-214.55 115.5,-163.79 156,-135 158.08,-133.52 160.26,-132.13 162.51,-130.81"/>
<polygon fill="#63b8ff" stroke="#63b8ff" points="164.24,-133.86 171.48,-126.13 161,-127.65 164.24,-133.86"/>
</a>
</g>
</g>
<!-- Node12 -->
<g id="Node000012" class="node">
<title>Node12</title>
<g id="a_Node000012"><a xlink:href="../../d9/d2c/classlci_1_1alloc__net__context__x.html#aabdd8693975475fef49f39019610a4ae" target="_top" xlink:title=" ">
<polygon fill="white" stroke="#666666" points="286,-78 166,-78 166,-48 286,-48 286,-78"/>
<text text-anchor="start" x="174" y="-66" font-family="Helvetica,sans-Serif" font-size="10.00">lci::alloc_net_context</text>
<text text-anchor="middle" x="226" y="-55" font-family="Helvetica,sans-Serif" font-size="10.00">_x::use_dmabuf</text>
</a>
</g>
</g>
<!-- Node1&#45;&gt;Node12 -->
<g id="edge19_Node000001_Node000012" class="edge">
<title>Node1&#45;&gt;Node12</title>
<g id="a_edge19_Node000001_Node000012"><a xlink:title=" ">
<path fill="none" stroke="#63b8ff" d="M65.58,-239.58C76.09,-206.76 105.06,-129.51 156,-87 157.53,-85.72 159.14,-84.51 160.8,-83.36"/>
<polygon fill="#63b8ff" stroke="#63b8ff" points="162.76,-86.26 169.54,-78.12 159.16,-80.26 162.76,-86.26"/>
</a>
</g>
</g>
<!-- Node13 -->
<g id="Node000013" class="node">
<title>Node13</title>
<g id="a_Node000013"><a xlink:href="../../d9/d2c/classlci_1_1alloc__net__context__x.html#a875d4f78abda2116a3ea1982116165a3" target="_top" xlink:title=" ">
<polygon fill="white" stroke="#666666" points="286,-30 166,-30 166,0 286,0 286,-30"/>
<text text-anchor="start" x="174" y="-18" font-family="Helvetica,sans-Serif" font-size="10.00">lci::alloc_net_context</text>
<text text-anchor="middle" x="226" y="-7" font-family="Helvetica,sans-Serif" font-size="10.00">_x::user_context</text>
</a>
</g>
</g>
<!-- Node1&#45;&gt;Node13 -->
<g id="edge21_Node000001_Node000013" class="edge">
<title>Node1&#45;&gt;Node13</title>
<g id="a_edge21_Node000001_Node000013"><a xlink:title=" ">
<path fill="none" stroke="#63b8ff" d="M63.41,-239.77C70.38,-200.72 94.15,-96.11 156,-39 157.28,-37.82 158.62,-36.69 160.02,-35.62"/>
<polygon fill="#63b8ff" stroke="#63b8ff" points="162.04,-38.48 168.49,-30.07 158.2,-32.63 162.04,-38.48"/>
</a>
</g>
</g>
<!-- Node3 -->
<g id="Node000003" class="node">
<title>Node3</title>
<g id="a_Node000003"><a xlink:href="../../d9/d2c/classlci_1_1alloc__net__context__x.html#a4906e72fa75cb21741c0248836701237" target="_top" xlink:title=" ">
<polygon fill="white" stroke="#666666" points="463,-270 332,-270 332,-240 463,-240 463,-270"/>
<text text-anchor="start" x="340" y="-258" font-family="Helvetica,sans-Serif" font-size="10.00">lci::alloc_net_context</text>
<text text-anchor="middle" x="397.5" y="-247" font-family="Helvetica,sans-Serif" font-size="10.00">_x::alloc_net_context_x</text>
</a>
</g>
</g>
<!-- Node2&#45;&gt;Node3 -->
<g id="edge2_Node000002_Node000003" class="edge">
<title>Node2&#45;&gt;Node3</title>
<g id="a_edge2_Node000002_Node000003"><a xlink:title=" ">
<path fill="none" stroke="#63b8ff" d="M283.51,-491.92C288.02,-489.39 292.27,-486.44 296,-483 357.06,-426.67 383.06,-326.55 392.25,-280.04"/>
<polygon fill="#63b8ff" stroke="#63b8ff" points="395.69,-280.66 394.1,-270.19 388.81,-279.37 395.69,-280.66"/>
</a>
</g>
</g>
<!-- Node4&#45;&gt;Node3 -->
<g id="edge4_Node000004_Node000003" class="edge">
<title>Node4&#45;&gt;Node3</title>
<g id="a_edge4_Node000004_Node000003"><a xlink:title=" ">
<path fill="none" stroke="#63b8ff" d="M283.09,-432.33C287.69,-429.55 292.07,-426.45 296,-423 342.01,-382.57 373.04,-315.81 387.39,-279.83"/>
<polygon fill="#63b8ff" stroke="#63b8ff" points="390.8,-280.71 391.15,-270.12 384.27,-278.18 390.8,-280.71"/>
</a>
</g>
</g>
<!-- Node5&#45;&gt;Node3 -->
<g id="edge6_Node000005_Node000003" class="edge">
<title>Node5&#45;&gt;Node3</title>
<g id="a_edge6_Node000005_Node000003"><a xlink:title=" ">
<path fill="none" stroke="#63b8ff" d="M280.07,-383.9C285.66,-381.34 291.09,-378.39 296,-375 333.41,-349.18 364.84,-305.86 382.13,-278.94"/>
<polygon fill="#63b8ff" stroke="#63b8ff" points="385.29,-280.49 387.65,-270.16 379.37,-276.77 385.29,-280.49"/>
</a>
</g>
</g>
<!-- Node6&#45;&gt;Node3 -->
<g id="edge8_Node000006_Node000003" class="edge">
<title>Node6&#45;&gt;Node3</title>
<g id="a_edge8_Node000006_Node000003"><a xlink:title=" ">
<path fill="none" stroke="#63b8ff" d="M275.99,-335.93C282.85,-333.26 289.69,-330.27 296,-327 323.18,-312.91 351.27,-292.17 370.82,-276.57"/>
<polygon fill="#63b8ff" stroke="#63b8ff" points="373.08,-279.24 378.64,-270.23 368.67,-273.8 373.08,-279.24"/>
</a>
</g>
</g>
<!-- Node7&#45;&gt;Node3 -->
<g id="edge10_Node000007_Node000003" class="edge">
<title>Node7&#45;&gt;Node3</title>
<g id="a_edge10_Node000007_Node000003"><a xlink:title=" ">
<path fill="none" stroke="#63b8ff" d="M280.17,-287.94C297.2,-283.12 316.23,-277.73 333.88,-272.73"/>
<polygon fill="#63b8ff" stroke="#63b8ff" points="334.85,-276.09 343.52,-270 332.95,-269.36 334.85,-276.09"/>
</a>
</g>
</g>
<!-- Node8&#45;&gt;Node3 -->
<g id="edge12_Node000008_Node000003" class="edge">
<title>Node8&#45;&gt;Node3</title>
<g id="a_edge12_Node000008_Node000003"><a xlink:title=" ">
<path fill="none" stroke="#63b8ff" d="M286.28,-255C297.65,-255 309.7,-255 321.49,-255"/>
<polygon fill="#63b8ff" stroke="#63b8ff" points="321.76,-258.5 331.76,-255 321.76,-251.5 321.76,-258.5"/>
</a>
</g>
</g>
<!-- Node9&#45;&gt;Node3 -->
<g id="edge14_Node000009_Node000003" class="edge">
<title>Node9&#45;&gt;Node3</title>
<g id="a_edge14_Node000009_Node000003"><a xlink:title=" ">
<path fill="none" stroke="#63b8ff" d="M280.17,-222.06C297.2,-226.88 316.23,-232.27 333.88,-237.27"/>
<polygon fill="#63b8ff" stroke="#63b8ff" points="332.95,-240.64 343.52,-240 334.85,-233.91 332.95,-240.64"/>
</a>
</g>
</g>
<!-- Node10&#45;&gt;Node3 -->
<g id="edge16_Node000010_Node000003" class="edge">
<title>Node10&#45;&gt;Node3</title>
<g id="a_edge16_Node000010_Node000003"><a xlink:title=" ">
<path fill="none" stroke="#63b8ff" d="M275.99,-174.07C282.85,-176.74 289.69,-179.73 296,-183 323.18,-197.09 351.27,-217.83 370.82,-233.43"/>
<polygon fill="#63b8ff" stroke="#63b8ff" points="368.67,-236.2 378.64,-239.77 373.08,-230.76 368.67,-236.2"/>
</a>
</g>
</g>
<!-- Node11&#45;&gt;Node3 -->
<g id="edge18_Node000011_Node000003" class="edge">
<title>Node11&#45;&gt;Node3</title>
<g id="a_edge18_Node000011_Node000003"><a xlink:title=" ">
<path fill="none" stroke="#63b8ff" d="M280.07,-126.1C285.66,-128.66 291.09,-131.61 296,-135 333.41,-160.82 364.84,-204.14 382.13,-231.06"/>
<polygon fill="#63b8ff" stroke="#63b8ff" points="379.37,-233.23 387.65,-239.84 385.29,-229.51 379.37,-233.23"/>
</a>
</g>
</g>
<!-- Node12&#45;&gt;Node3 -->
<g id="edge20_Node000012_Node000003" class="edge">
<title>Node12&#45;&gt;Node3</title>
<g id="a_edge20_Node000012_Node000003"><a xlink:title=" ">
<path fill="none" stroke="#63b8ff" d="M282.03,-78.05C287.01,-80.59 291.77,-83.56 296,-87 343.71,-125.83 374.19,-193.73 387.96,-230.18"/>
<polygon fill="#63b8ff" stroke="#63b8ff" points="384.67,-231.39 391.4,-239.58 391.25,-228.99 384.67,-231.39"/>
</a>
</g>
</g>
<!-- Node13&#45;&gt;Node3 -->
<g id="edge22_Node000013_Node000003" class="edge">
<title>Node13&#45;&gt;Node3</title>
<g id="a_edge22_Node000013_Node000003"><a xlink:title=" ">
<path fill="none" stroke="#63b8ff" d="M283.44,-30.16C287.96,-32.67 292.24,-35.6 296,-39 354.25,-91.66 381.37,-185 391.5,-229.73"/>
<polygon fill="#63b8ff" stroke="#63b8ff" points="388.14,-230.72 393.67,-239.75 394.98,-229.24 388.14,-230.72"/>
</a>
</g>
</g>
</g>
</svg>
