<?xml version="1.0" encoding="UTF-8" standalone="no"?>
<!DOCTYPE svg PUBLIC "-//W3C//DTD SVG 1.1//EN"
 "http://www.w3.org/Graphics/SVG/1.1/DTD/svg11.dtd">
<!-- Generated by graphviz version 2.43.0 (0)
 -->
<!-- Title: lci::get_max_bcopy_size_x::call_impl Pages: 1 -->
<svg width="444pt" height="86pt"
 viewBox="0.00 0.00 444.00 86.00" xmlns="http://www.w3.org/2000/svg" xmlns:xlink="http://www.w3.org/1999/xlink">
<g id="graph0" class="graph" transform="scale(1 1) rotate(0) translate(4 82)">
<title>lci::get_max_bcopy_size_x::call_impl</title>
<!-- Node1 -->
<g id="Node000001" class="node">
<title>Node1</title>
<g id="a_Node000001"><a xlink:title=" ">
<polygon fill="#999999" stroke="#666666" points="111,-54 0,-54 0,-24 111,-24 111,-54"/>
<text text-anchor="start" x="8" y="-42" font-family="Helvetica,sans-Serif" font-size="10.00">lci::get_max_bcopy</text>
<text text-anchor="middle" x="55.5" y="-31" font-family="Helvetica,sans-Serif" font-size="10.00">_size_x::call_impl</text>
</a>
</g>
</g>
<!-- Node2 -->
<g id="Node000002" class="node">
<title>Node2</title>
<g id="a_Node000002"><a xlink:href="../../d6/d78/classlci_1_1get__max__bcopy__size__x.html#ab00cef6a78c57d8785fcddc4d77fefaa" target="_top" xlink:title=" ">
<polygon fill="white" stroke="#666666" points="264,-78 147,-78 147,-48 264,-48 264,-78"/>
<text text-anchor="start" x="155" y="-66" font-family="Helvetica,sans-Serif" font-size="10.00">lci::get_max_bcopy</text>
<text text-anchor="middle" x="205.5" y="-55" font-family="Helvetica,sans-Serif" font-size="10.00">_size_x::packet_pool</text>
</a>
</g>
</g>
<!-- Node1&#45;&gt;Node2 -->
<g id="edge1_Node000001_Node000002" class="edge">
<title>Node1&#45;&gt;Node2</title>
<g id="a_edge1_Node000001_Node000002"><a xlink:title=" ">
<path fill="none" stroke="#63b8ff" d="M111.19,-47.87C119.48,-49.21 128.11,-50.61 136.63,-51.99"/>
<polygon fill="#63b8ff" stroke="#63b8ff" points="136.13,-55.46 146.56,-53.6 137.25,-48.55 136.13,-55.46"/>
</a>
</g>
</g>
<!-- Node4 -->
<g id="Node000004" class="node">
<title>Node4</title>
<g id="a_Node000004"><a xlink:href="../../d6/d78/classlci_1_1get__max__bcopy__size__x.html#afe891e887e070155c81a073d2c0d60bd" target="_top" xlink:title=" ">
<polygon fill="white" stroke="#666666" points="261,-30 150,-30 150,0 261,0 261,-30"/>
<text text-anchor="start" x="158" y="-18" font-family="Helvetica,sans-Serif" font-size="10.00">lci::get_max_bcopy</text>
<text text-anchor="middle" x="205.5" y="-7" font-family="Helvetica,sans-Serif" font-size="10.00">_size_x::runtime</text>
</a>
</g>
</g>
<!-- Node1&#45;&gt;Node4 -->
<g id="edge3_Node000001_Node000004" class="edge">
<title>Node1&#45;&gt;Node4</title>
<g id="a_edge3_Node000001_Node000004"><a xlink:title=" ">
<path fill="none" stroke="#63b8ff" d="M111.19,-30.13C120.38,-28.64 130,-27.08 139.42,-25.55"/>
<polygon fill="#63b8ff" stroke="#63b8ff" points="140.23,-28.97 149.54,-23.91 139.11,-22.06 140.23,-28.97"/>
</a>
</g>
</g>
<!-- Node3 -->
<g id="Node000003" class="node">
<title>Node3</title>
<g id="a_Node000003"><a xlink:href="../../d6/d78/classlci_1_1get__max__bcopy__size__x.html#a564221622835572aa2848bf00f93f1a4" target="_top" xlink:title=" ">
<polygon fill="white" stroke="#666666" points="436,-59.5 300,-59.5 300,-18.5 436,-18.5 436,-59.5"/>
<text text-anchor="start" x="308" y="-47.5" font-family="Helvetica,sans-Serif" font-size="10.00">lci::get_max_bcopy</text>
<text text-anchor="start" x="308" y="-36.5" font-family="Helvetica,sans-Serif" font-size="10.00">_size_x::get_max_bcopy</text>
<text text-anchor="middle" x="368" y="-25.5" font-family="Helvetica,sans-Serif" font-size="10.00">_size_x</text>
</a>
</g>
</g>
<!-- Node2&#45;&gt;Node3 -->
<g id="edge2_Node000002_Node000003" class="edge">
<title>Node2&#45;&gt;Node3</title>
<g id="a_edge2_Node000002_Node000003"><a xlink:title=" ">
<path fill="none" stroke="#63b8ff" d="M264.44,-54.34C272.71,-53.1 281.31,-51.81 289.86,-50.53"/>
<polygon fill="#63b8ff" stroke="#63b8ff" points="290.49,-53.98 299.86,-49.04 289.46,-47.06 290.49,-53.98"/>
</a>
</g>
</g>
<!-- Node4&#45;&gt;Node3 -->
<g id="edge4_Node000004_Node000003" class="edge">
<title>Node4&#45;&gt;Node3</title>
<g id="a_edge4_Node000004_Node000003"><a xlink:title=" ">
<path fill="none" stroke="#63b8ff" d="M261.29,-23.19C270.52,-24.57 280.26,-26.03 289.93,-27.48"/>
<polygon fill="#63b8ff" stroke="#63b8ff" points="289.56,-30.96 299.96,-28.98 290.59,-24.04 289.56,-30.96"/>
</a>
</g>
</g>
</g>
</svg>
