<?xml version="1.0" encoding="UTF-8" standalone="no"?>
<!DOCTYPE svg PUBLIC "-//W3C//DTD SVG 1.1//EN"
 "http://www.w3.org/Graphics/SVG/1.1/DTD/svg11.dtd">
<!-- Generated by graphviz version 2.43.0 (0)
 -->
<!-- Title: lci::get_max_bcopy_size_x::call Pages: 1 -->
<svg width="291pt" height="76pt"
 viewBox="0.00 0.00 291.00 75.50" xmlns="http://www.w3.org/2000/svg" xmlns:xlink="http://www.w3.org/1999/xlink">
<g id="graph0" class="graph" transform="scale(1 1) rotate(0) translate(4 71.5)">
<title>lci::get_max_bcopy_size_x::call</title>
<!-- Node1 -->
<g id="Node000001" class="node">
<title>Node1</title>
<g id="a_Node000001"><a xlink:title=" ">
<polygon fill="#999999" stroke="#666666" points="283,-51 172,-51 172,-21 283,-21 283,-51"/>
<text text-anchor="start" x="180" y="-39" font-family="Helvetica,sans-Serif" font-size="10.00">lci::get_max_bcopy</text>
<text text-anchor="middle" x="227.5" y="-28" font-family="Helvetica,sans-Serif" font-size="10.00">_size_x::call</text>
</a>
</g>
</g>
<!-- Node2 -->
<g id="Node000002" class="node">
<title>Node2</title>
<g id="a_Node000002"><a xlink:href="../../d5/dd3/namespacelci.html#a148f13d2ad4cfb4edf5d59bf11e147a8" target="_top" xlink:title=" ">
<polygon fill="white" stroke="#666666" points="136,-67.5 0,-67.5 0,-48.5 136,-48.5 136,-67.5"/>
<text text-anchor="middle" x="68" y="-55.5" font-family="Helvetica,sans-Serif" font-size="10.00">lci::get_max_bcopy_size</text>
</a>
</g>
</g>
<!-- Node1&#45;&gt;Node2 -->
<g id="edge1_Node000001_Node000002" class="edge">
<title>Node1&#45;&gt;Node2</title>
<g id="a_edge1_Node000001_Node000002"><a xlink:title=" ">
<path fill="none" stroke="#63b8ff" d="M161.68,-45.05C153.22,-46.24 144.54,-47.45 136.04,-48.64"/>
<polygon fill="#63b8ff" stroke="#63b8ff" points="162.44,-48.48 171.86,-43.63 161.47,-41.55 162.44,-48.48"/>
</a>
</g>
</g>
<!-- Node3 -->
<g id="Node000003" class="node">
<title>Node3</title>
<g id="a_Node000003"><a xlink:href="../../d6/d78/classlci_1_1get__max__bcopy__size__x.html#a2caf5372355fe13256dc856b905dc72a" target="_top" xlink:title=" ">
<polygon fill="white" stroke="#666666" points="123.5,-30 12.5,-30 12.5,0 123.5,0 123.5,-30"/>
<text text-anchor="start" x="20.5" y="-18" font-family="Helvetica,sans-Serif" font-size="10.00">lci::get_max_bcopy</text>
<text text-anchor="middle" x="68" y="-7" font-family="Helvetica,sans-Serif" font-size="10.00">_size_x::operator()</text>
</a>
</g>
</g>
<!-- Node1&#45;&gt;Node3 -->
<g id="edge2_Node000001_Node000003" class="edge">
<title>Node1&#45;&gt;Node3</title>
<g id="a_edge2_Node000001_Node000003"><a xlink:title=" ">
<path fill="none" stroke="#63b8ff" d="M161.8,-27.37C149.09,-25.68 135.88,-23.92 123.55,-22.27"/>
<polygon fill="#63b8ff" stroke="#63b8ff" points="161.48,-30.86 171.86,-28.71 162.41,-23.92 161.48,-30.86"/>
</a>
</g>
</g>
</g>
</svg>
