<?xml version="1.0" encoding="UTF-8" standalone="no"?>
<!DOCTYPE svg PUBLIC "-//W3C//DTD SVG 1.1//EN"
 "http://www.w3.org/Graphics/SVG/1.1/DTD/svg11.dtd">
<!-- Generated by graphviz version 2.43.0 (0)
 -->
<!-- Title: lci::get_max_bcopy_size_x::call Pages: 1 -->
<svg width="591pt" height="86pt"
 viewBox="0.00 0.00 591.00 86.00" xmlns="http://www.w3.org/2000/svg" xmlns:xlink="http://www.w3.org/1999/xlink">
<g id="graph0" class="graph" transform="scale(1 1) rotate(0) translate(4 82)">
<title>lci::get_max_bcopy_size_x::call</title>
<!-- Node1 -->
<g id="Node000001" class="node">
<title>Node1</title>
<g id="a_Node000001"><a xlink:title=" ">
<polygon fill="#999999" stroke="#666666" points="111,-54 0,-54 0,-24 111,-24 111,-54"/>
<text text-anchor="start" x="8" y="-42" font-family="Helvetica,sans-Serif" font-size="10.00">lci::get_max_bcopy</text>
<text text-anchor="middle" x="55.5" y="-31" font-family="Helvetica,sans-Serif" font-size="10.00">_size_x::call</text>
</a>
</g>
</g>
<!-- Node2 -->
<g id="Node000002" class="node">
<title>Node2</title>
<g id="a_Node000002"><a xlink:href="../../d6/d78/classlci_1_1get__max__bcopy__size__x.html#aa2cb636556a82a9e18cf2f3b9198fefd" target="_top" xlink:title=" ">
<polygon fill="white" stroke="#666666" points="258,-54 147,-54 147,-24 258,-24 258,-54"/>
<text text-anchor="start" x="155" y="-42" font-family="Helvetica,sans-Serif" font-size="10.00">lci::get_max_bcopy</text>
<text text-anchor="middle" x="202.5" y="-31" font-family="Helvetica,sans-Serif" font-size="10.00">_size_x::call_impl</text>
</a>
</g>
</g>
<!-- Node1&#45;&gt;Node2 -->
<g id="edge1_Node000001_Node000002" class="edge">
<title>Node1&#45;&gt;Node2</title>
<g id="a_edge1_Node000001_Node000002"><a xlink:title=" ">
<path fill="none" stroke="#63b8ff" d="M111.32,-39C119.53,-39 128.06,-39 136.46,-39"/>
<polygon fill="#63b8ff" stroke="#63b8ff" points="136.6,-42.5 146.6,-39 136.6,-35.5 136.6,-42.5"/>
</a>
</g>
</g>
<!-- Node3 -->
<g id="Node000003" class="node">
<title>Node3</title>
<g id="a_Node000003"><a xlink:href="../../d6/d78/classlci_1_1get__max__bcopy__size__x.html#ab00cef6a78c57d8785fcddc4d77fefaa" target="_top" xlink:title=" ">
<polygon fill="white" stroke="#666666" points="411,-78 294,-78 294,-48 411,-48 411,-78"/>
<text text-anchor="start" x="302" y="-66" font-family="Helvetica,sans-Serif" font-size="10.00">lci::get_max_bcopy</text>
<text text-anchor="middle" x="352.5" y="-55" font-family="Helvetica,sans-Serif" font-size="10.00">_size_x::packet_pool</text>
</a>
</g>
</g>
<!-- Node1&#45;&gt;Node3 -->
<g id="edge6_Node000001_Node000003" class="edge">
<title>Node1&#45;&gt;Node3</title>
<g id="a_edge6_Node000001_Node000003"><a xlink:title=" ">
<path fill="none" stroke="#63b8ff" d="M103.94,-54.05C117.69,-57.74 132.82,-61.15 147,-63 192.34,-68.91 243.82,-68.87 283.78,-67.38"/>
<polygon fill="#63b8ff" stroke="#63b8ff" points="284.1,-70.87 293.95,-66.96 283.81,-63.87 284.1,-70.87"/>
</a>
</g>
</g>
<!-- Node5 -->
<g id="Node000005" class="node">
<title>Node5</title>
<g id="a_Node000005"><a xlink:href="../../d6/d78/classlci_1_1get__max__bcopy__size__x.html#afe891e887e070155c81a073d2c0d60bd" target="_top" xlink:title=" ">
<polygon fill="white" stroke="#666666" points="408,-30 297,-30 297,0 408,0 408,-30"/>
<text text-anchor="start" x="305" y="-18" font-family="Helvetica,sans-Serif" font-size="10.00">lci::get_max_bcopy</text>
<text text-anchor="middle" x="352.5" y="-7" font-family="Helvetica,sans-Serif" font-size="10.00">_size_x::runtime</text>
</a>
</g>
</g>
<!-- Node1&#45;&gt;Node5 -->
<g id="edge7_Node000001_Node000005" class="edge">
<title>Node1&#45;&gt;Node5</title>
<g id="a_edge7_Node000001_Node000005"><a xlink:title=" ">
<path fill="none" stroke="#63b8ff" d="M103.94,-23.95C117.69,-20.26 132.82,-16.85 147,-15 193.31,-8.96 246.03,-9.13 286.34,-10.72"/>
<polygon fill="#63b8ff" stroke="#63b8ff" points="286.43,-14.23 296.57,-11.16 286.73,-7.23 286.43,-14.23"/>
</a>
</g>
</g>
<!-- Node2&#45;&gt;Node3 -->
<g id="edge2_Node000002_Node000003" class="edge">
<title>Node2&#45;&gt;Node3</title>
<g id="a_edge2_Node000002_Node000003"><a xlink:title=" ">
<path fill="none" stroke="#63b8ff" d="M258.19,-47.87C266.48,-49.21 275.11,-50.61 283.63,-51.99"/>
<polygon fill="#63b8ff" stroke="#63b8ff" points="283.13,-55.46 293.56,-53.6 284.25,-48.55 283.13,-55.46"/>
</a>
</g>
</g>
<!-- Node2&#45;&gt;Node5 -->
<g id="edge4_Node000002_Node000005" class="edge">
<title>Node2&#45;&gt;Node5</title>
<g id="a_edge4_Node000002_Node000005"><a xlink:title=" ">
<path fill="none" stroke="#63b8ff" d="M258.19,-30.13C267.38,-28.64 277,-27.08 286.42,-25.55"/>
<polygon fill="#63b8ff" stroke="#63b8ff" points="287.23,-28.97 296.54,-23.91 286.11,-22.06 287.23,-28.97"/>
</a>
</g>
</g>
<!-- Node4 -->
<g id="Node000004" class="node">
<title>Node4</title>
<g id="a_Node000004"><a xlink:href="../../d6/d78/classlci_1_1get__max__bcopy__size__x.html#a564221622835572aa2848bf00f93f1a4" target="_top" xlink:title=" ">
<polygon fill="white" stroke="#666666" points="583,-59.5 447,-59.5 447,-18.5 583,-18.5 583,-59.5"/>
<text text-anchor="start" x="455" y="-47.5" font-family="Helvetica,sans-Serif" font-size="10.00">lci::get_max_bcopy</text>
<text text-anchor="start" x="455" y="-36.5" font-family="Helvetica,sans-Serif" font-size="10.00">_size_x::get_max_bcopy</text>
<text text-anchor="middle" x="515" y="-25.5" font-family="Helvetica,sans-Serif" font-size="10.00">_size_x</text>
</a>
</g>
</g>
<!-- Node3&#45;&gt;Node4 -->
<g id="edge3_Node000003_Node000004" class="edge">
<title>Node3&#45;&gt;Node4</title>
<g id="a_edge3_Node000003_Node000004"><a xlink:title=" ">
<path fill="none" stroke="#63b8ff" d="M411.44,-54.34C419.71,-53.1 428.31,-51.81 436.86,-50.53"/>
<polygon fill="#63b8ff" stroke="#63b8ff" points="437.49,-53.98 446.86,-49.04 436.46,-47.06 437.49,-53.98"/>
</a>
</g>
</g>
<!-- Node5&#45;&gt;Node4 -->
<g id="edge5_Node000005_Node000004" class="edge">
<title>Node5&#45;&gt;Node4</title>
<g id="a_edge5_Node000005_Node000004"><a xlink:title=" ">
<path fill="none" stroke="#63b8ff" d="M408.29,-23.19C417.52,-24.57 427.26,-26.03 436.93,-27.48"/>
<polygon fill="#63b8ff" stroke="#63b8ff" points="436.56,-30.96 446.96,-28.98 437.59,-24.04 436.56,-30.96"/>
</a>
</g>
</g>
</g>
</svg>
