<?xml version="1.0" encoding="UTF-8" standalone="no"?>
<!DOCTYPE svg PUBLIC "-//W3C//DTD SVG 1.1//EN"
 "http://www.w3.org/Graphics/SVG/1.1/DTD/svg11.dtd">
<!-- Generated by graphviz version 2.43.0 (0)
 -->
<!-- Title: lci::post_am_x::operator() Pages: 1 -->
<svg width="848pt" height="689pt"
 viewBox="0.00 0.00 848.00 688.70" xmlns="http://www.w3.org/2000/svg" xmlns:xlink="http://www.w3.org/1999/xlink">
<g id="graph0" class="graph" transform="scale(1 1) rotate(0) translate(4 684.7)">
<title>lci::post_am_x::operator()</title>
<!-- Node1 -->
<g id="Node000001" class="node">
<title>Node1</title>
<g id="a_Node000001"><a xlink:title=" ">
<polygon fill="#999999" stroke="#666666" points="142,-348.7 0,-348.7 0,-329.7 142,-329.7 142,-348.7"/>
<text text-anchor="middle" x="71" y="-336.7" font-family="Helvetica,sans-Serif" font-size="10.00">lci::post_am_x::operator()</text>
</a>
</g>
</g>
<!-- Node2 -->
<g id="Node000002" class="node">
<title>Node2</title>
<g id="a_Node000002"><a xlink:href="../../d2/ddb/classlci_1_1post__am__x.html#a843d9780baee743b821b8e2e255f87fc" target="_top" xlink:title=" ">
<polygon fill="white" stroke="#666666" points="288,-348.7 178,-348.7 178,-329.7 288,-329.7 288,-348.7"/>
<text text-anchor="middle" x="233" y="-336.7" font-family="Helvetica,sans-Serif" font-size="10.00">lci::post_am_x::call</text>
</a>
</g>
</g>
<!-- Node1&#45;&gt;Node2 -->
<g id="edge1_Node000001_Node000002" class="edge">
<title>Node1&#45;&gt;Node2</title>
<g id="a_edge1_Node000001_Node000002"><a xlink:title=" ">
<path fill="none" stroke="#63b8ff" d="M142.18,-339.2C150.65,-339.2 159.28,-339.2 167.67,-339.2"/>
<polygon fill="#63b8ff" stroke="#63b8ff" points="167.75,-342.7 177.75,-339.2 167.75,-335.7 167.75,-342.7"/>
</a>
</g>
</g>
<!-- Node3 -->
<g id="Node000003" class="node">
<title>Node3</title>
<g id="a_Node000003"><a xlink:href="../../d2/ddb/classlci_1_1post__am__x.html#a2920bced8b8d6503d252b85cdaebb144" target="_top" xlink:title=" ">
<polygon fill="white" stroke="#666666" points="652,-680.7 503,-680.7 503,-661.7 652,-661.7 652,-680.7"/>
<text text-anchor="middle" x="577.5" y="-668.7" font-family="Helvetica,sans-Serif" font-size="10.00">lci::post_am_x::allow_done</text>
</a>
</g>
</g>
<!-- Node2&#45;&gt;Node3 -->
<g id="edge2_Node000002_Node000003" class="edge">
<title>Node2&#45;&gt;Node3</title>
<g id="a_edge2_Node000002_Node000003"><a xlink:title=" ">
<path fill="none" stroke="#63b8ff" d="M234.3,-348.94C236.03,-387.13 247.55,-528.05 324,-601.2 369.1,-644.35 438.39,-661.35 492.99,-667.84"/>
<polygon fill="#63b8ff" stroke="#63b8ff" points="492.68,-671.33 503,-668.93 493.44,-664.37 492.68,-671.33"/>
</a>
</g>
</g>
<!-- Node5 -->
<g id="Node000005" class="node">
<title>Node5</title>
<g id="a_Node000005"><a xlink:href="../../d2/ddb/classlci_1_1post__am__x.html#ac229a59965469231cb481ffadf8f8196" target="_top" xlink:title=" ">
<polygon fill="white" stroke="#666666" points="637,-643.2 518,-643.2 518,-613.2 637,-613.2 637,-643.2"/>
<text text-anchor="start" x="526" y="-631.2" font-family="Helvetica,sans-Serif" font-size="10.00">lci::post_am_x::allow</text>
<text text-anchor="middle" x="577.5" y="-620.2" font-family="Helvetica,sans-Serif" font-size="10.00">_posted</text>
</a>
</g>
</g>
<!-- Node2&#45;&gt;Node5 -->
<g id="edge4_Node000002_Node000005" class="edge">
<title>Node2&#45;&gt;Node5</title>
<g id="a_edge4_Node000002_Node000005"><a xlink:title=" ">
<path fill="none" stroke="#63b8ff" d="M234.98,-348.78C239,-382.81 257.27,-499 324,-558.2 374.78,-603.24 452.14,-619.56 507.85,-625.33"/>
<polygon fill="#63b8ff" stroke="#63b8ff" points="507.71,-628.83 517.99,-626.29 508.37,-621.87 507.71,-628.83"/>
</a>
</g>
</g>
<!-- Node6 -->
<g id="Node000006" class="node">
<title>Node6</title>
<g id="a_Node000006"><a xlink:href="../../d2/ddb/classlci_1_1post__am__x.html#abe88cff263705edebb3007476f52fb2e" target="_top" xlink:title=" ">
<polygon fill="white" stroke="#666666" points="637,-595.2 518,-595.2 518,-565.2 637,-565.2 637,-595.2"/>
<text text-anchor="start" x="526" y="-583.2" font-family="Helvetica,sans-Serif" font-size="10.00">lci::post_am_x::allow</text>
<text text-anchor="middle" x="577.5" y="-572.2" font-family="Helvetica,sans-Serif" font-size="10.00">_retry</text>
</a>
</g>
</g>
<!-- Node2&#45;&gt;Node6 -->
<g id="edge6_Node000002_Node000006" class="edge">
<title>Node2&#45;&gt;Node6</title>
<g id="a_edge6_Node000002_Node000006"><a xlink:title=" ">
<path fill="none" stroke="#63b8ff" d="M235.98,-349.11C242.56,-379.39 266.62,-471.4 324,-517.2 376.36,-558.99 452.77,-573.5 507.81,-578.32"/>
<polygon fill="#63b8ff" stroke="#63b8ff" points="507.58,-581.81 517.82,-579.11 508.13,-574.83 507.58,-581.81"/>
</a>
</g>
</g>
<!-- Node7 -->
<g id="Node000007" class="node">
<title>Node7</title>
<g id="a_Node000007"><a xlink:href="../../d2/ddb/classlci_1_1post__am__x.html#aade9414b023a4db248ab25121bdfc75e" target="_top" xlink:title=" ">
<polygon fill="white" stroke="#666666" points="461,-367.7 324,-367.7 324,-348.7 461,-348.7 461,-367.7"/>
<text text-anchor="middle" x="392.5" y="-355.7" font-family="Helvetica,sans-Serif" font-size="10.00">lci::post_am_x::call_impl</text>
</a>
</g>
</g>
<!-- Node2&#45;&gt;Node7 -->
<g id="edge8_Node000002_Node000007" class="edge">
<title>Node2&#45;&gt;Node7</title>
<g id="a_edge8_Node000002_Node000007"><a xlink:title=" ">
<path fill="none" stroke="#63b8ff" d="M288.2,-345.74C296.45,-346.73 305.1,-347.78 313.74,-348.82"/>
<polygon fill="#63b8ff" stroke="#63b8ff" points="313.49,-352.31 323.84,-350.04 314.33,-345.36 313.49,-352.31"/>
</a>
</g>
</g>
<!-- Node8 -->
<g id="Node000008" class="node">
<title>Node8</title>
<g id="a_Node000008"><a xlink:href="../../d2/ddb/classlci_1_1post__am__x.html#a8205661fa251b74c0d95812908a126b7" target="_top" xlink:title=" ">
<polygon fill="white" stroke="#666666" points="637.5,-547.2 517.5,-547.2 517.5,-517.2 637.5,-517.2 637.5,-547.2"/>
<text text-anchor="start" x="525.5" y="-535.2" font-family="Helvetica,sans-Serif" font-size="10.00">lci::post_am_x::comp</text>
<text text-anchor="middle" x="577.5" y="-524.2" font-family="Helvetica,sans-Serif" font-size="10.00">_semantic</text>
</a>
</g>
</g>
<!-- Node2&#45;&gt;Node8 -->
<g id="edge40_Node000002_Node000008" class="edge">
<title>Node2&#45;&gt;Node8</title>
<g id="a_edge40_Node000002_Node000008"><a xlink:title=" ">
<path fill="none" stroke="#63b8ff" d="M237.19,-348.97C246.2,-374.96 274.48,-446.11 324,-480.2 378.03,-517.39 452.95,-529.04 507.13,-532.21"/>
<polygon fill="#63b8ff" stroke="#63b8ff" points="507.18,-535.71 517.34,-532.72 507.53,-528.72 507.18,-535.71"/>
</a>
</g>
</g>
<!-- Node9 -->
<g id="Node000009" class="node">
<title>Node9</title>
<g id="a_Node000009"><a xlink:href="../../d2/ddb/classlci_1_1post__am__x.html#ad6c306765380107207fab8aa45ad4527" target="_top" xlink:title=" ">
<polygon fill="white" stroke="#666666" points="640,-498.7 515,-498.7 515,-479.7 640,-479.7 640,-498.7"/>
<text text-anchor="middle" x="577.5" y="-486.7" font-family="Helvetica,sans-Serif" font-size="10.00">lci::post_am_x::device</text>
</a>
</g>
</g>
<!-- Node2&#45;&gt;Node9 -->
<g id="edge41_Node000002_Node000009" class="edge">
<title>Node2&#45;&gt;Node9</title>
<g id="a_edge41_Node000002_Node000009"><a xlink:title=" ">
<path fill="none" stroke="#63b8ff" d="M238.96,-348.96C250.54,-370.66 281.65,-422.92 324,-447.2 379.24,-478.86 451.73,-488.23 504.86,-490.35"/>
<polygon fill="#63b8ff" stroke="#63b8ff" points="504.78,-493.85 514.89,-490.68 505.01,-486.86 504.78,-493.85"/>
</a>
</g>
</g>
<!-- Node10 -->
<g id="Node000010" class="node">
<title>Node10</title>
<g id="a_Node000010"><a xlink:href="../../d2/ddb/classlci_1_1post__am__x.html#acaf827f67cb784ceba676bf9437f0f82" target="_top" xlink:title=" ">
<polygon fill="white" stroke="#666666" points="645.5,-461.7 509.5,-461.7 509.5,-442.7 645.5,-442.7 645.5,-461.7"/>
<text text-anchor="middle" x="577.5" y="-449.7" font-family="Helvetica,sans-Serif" font-size="10.00">lci::post_am_x::endpoint</text>
</a>
</g>
</g>
<!-- Node2&#45;&gt;Node10 -->
<g id="edge42_Node000002_Node000010" class="edge">
<title>Node2&#45;&gt;Node10</title>
<g id="a_edge42_Node000002_Node000010"><a xlink:title=" ">
<path fill="none" stroke="#63b8ff" d="M241.73,-348.84C255.98,-365.86 288.22,-400.97 324,-417.2 379.16,-442.22 447.52,-450.49 499.19,-452.77"/>
<polygon fill="#63b8ff" stroke="#63b8ff" points="499.17,-456.27 509.3,-453.15 499.44,-449.28 499.17,-456.27"/>
</a>
</g>
</g>
<!-- Node11 -->
<g id="Node000011" class="node">
<title>Node11</title>
<g id="a_Node000011"><a xlink:href="../../d2/ddb/classlci_1_1post__am__x.html#ae570501aa28c5e42f9b96d3c7995235c" target="_top" xlink:title=" ">
<polygon fill="white" stroke="#666666" points="636.5,-424.2 518.5,-424.2 518.5,-394.2 636.5,-394.2 636.5,-424.2"/>
<text text-anchor="start" x="526.5" y="-412.2" font-family="Helvetica,sans-Serif" font-size="10.00">lci::post_am_x::force</text>
<text text-anchor="middle" x="577.5" y="-401.2" font-family="Helvetica,sans-Serif" font-size="10.00">_zcopy</text>
</a>
</g>
</g>
<!-- Node2&#45;&gt;Node11 -->
<g id="edge43_Node000002_Node000011" class="edge">
<title>Node2&#45;&gt;Node11</title>
<g id="a_edge43_Node000002_Node000011"><a xlink:title=" ">
<path fill="none" stroke="#63b8ff" d="M245.59,-348.91C261.89,-361.92 293.07,-384.5 324,-394.2 384.3,-413.11 456.59,-415.5 508.34,-413.97"/>
<polygon fill="#63b8ff" stroke="#63b8ff" points="508.54,-417.46 518.41,-413.61 508.29,-410.47 508.54,-417.46"/>
</a>
</g>
</g>
<!-- Node12 -->
<g id="Node000012" class="node">
<title>Node12</title>
<g id="a_Node000012"><a xlink:href="../../d2/ddb/classlci_1_1post__am__x.html#ac31b1bb89a7cb58adbc19c3697467915" target="_top" xlink:title=" ">
<polygon fill="white" stroke="#666666" points="635.5,-376.2 519.5,-376.2 519.5,-346.2 635.5,-346.2 635.5,-376.2"/>
<text text-anchor="start" x="527.5" y="-364.2" font-family="Helvetica,sans-Serif" font-size="10.00">lci::post_am_x::local</text>
<text text-anchor="middle" x="577.5" y="-353.2" font-family="Helvetica,sans-Serif" font-size="10.00">_buffer</text>
</a>
</g>
</g>
<!-- Node2&#45;&gt;Node12 -->
<g id="edge44_Node000002_Node000012" class="edge">
<title>Node2&#45;&gt;Node12</title>
<g id="a_edge44_Node000002_Node000012"><a xlink:title=" ">
<path fill="none" stroke="#63b8ff" d="M250.93,-348.77C268.54,-358.15 297.24,-371.78 324,-377.2 385.95,-389.74 458.04,-383.13 509.3,-374.93"/>
<polygon fill="#63b8ff" stroke="#63b8ff" points="509.97,-378.36 519.26,-373.27 508.82,-371.46 509.97,-378.36"/>
</a>
</g>
</g>
<!-- Node13 -->
<g id="Node000013" class="node">
<title>Node13</title>
<g id="a_Node000013"><a xlink:href="../../d2/ddb/classlci_1_1post__am__x.html#ae6732b5adb0b66abb9fb55ab45e2f54c" target="_top" xlink:title=" ">
<polygon fill="white" stroke="#666666" points="652,-327.7 503,-327.7 503,-308.7 652,-308.7 652,-327.7"/>
<text text-anchor="middle" x="577.5" y="-315.7" font-family="Helvetica,sans-Serif" font-size="10.00">lci::post_am_x::local_comp</text>
</a>
</g>
</g>
<!-- Node2&#45;&gt;Node13 -->
<g id="edge45_Node000002_Node000013" class="edge">
<title>Node2&#45;&gt;Node13</title>
<g id="a_edge45_Node000002_Node000013"><a xlink:title=" ">
<path fill="none" stroke="#63b8ff" d="M288.27,-335.87C343.24,-332.5 429,-327.24 492.7,-323.34"/>
<polygon fill="#63b8ff" stroke="#63b8ff" points="492.96,-326.83 502.73,-322.72 492.54,-319.84 492.96,-326.83"/>
</a>
</g>
</g>
<!-- Node14 -->
<g id="Node000014" class="node">
<title>Node14</title>
<g id="a_Node000014"><a xlink:href="../../d2/ddb/classlci_1_1post__am__x.html#a9ea4030e492e23e423e08a231ad8cecd" target="_top" xlink:title=" ">
<polygon fill="white" stroke="#666666" points="631,-290.7 524,-290.7 524,-271.7 631,-271.7 631,-290.7"/>
<text text-anchor="middle" x="577.5" y="-278.7" font-family="Helvetica,sans-Serif" font-size="10.00">lci::post_am_x::mr</text>
</a>
</g>
</g>
<!-- Node2&#45;&gt;Node14 -->
<g id="edge46_Node000002_Node000014" class="edge">
<title>Node2&#45;&gt;Node14</title>
<g id="a_edge46_Node000002_Node000014"><a xlink:title=" ">
<path fill="none" stroke="#63b8ff" d="M279.72,-329.68C293.89,-326.83 309.57,-323.78 324,-321.2 388.51,-309.64 462.6,-298.11 513.77,-290.42"/>
<polygon fill="#63b8ff" stroke="#63b8ff" points="514.31,-293.87 523.68,-288.93 513.27,-286.95 514.31,-293.87"/>
</a>
</g>
</g>
<!-- Node15 -->
<g id="Node000015" class="node">
<title>Node15</title>
<g id="a_Node000015"><a xlink:href="../../d2/ddb/classlci_1_1post__am__x.html#a09278f7a7d6075f7379a7a4205d23505" target="_top" xlink:title=" ">
<polygon fill="white" stroke="#666666" points="653.5,-253.7 501.5,-253.7 501.5,-234.7 653.5,-234.7 653.5,-253.7"/>
<text text-anchor="middle" x="577.5" y="-241.7" font-family="Helvetica,sans-Serif" font-size="10.00">lci::post_am_x::packet_pool</text>
</a>
</g>
</g>
<!-- Node2&#45;&gt;Node15 -->
<g id="edge47_Node000002_Node000015" class="edge">
<title>Node2&#45;&gt;Node15</title>
<g id="a_edge47_Node000002_Node000015"><a xlink:title=" ">
<path fill="none" stroke="#63b8ff" d="M250.37,-329.6C268.01,-319.65 297.15,-304.3 324,-295.2 379.47,-276.38 444.28,-263.47 494.34,-255.35"/>
<polygon fill="#63b8ff" stroke="#63b8ff" points="495.15,-258.76 504.47,-253.73 494.05,-251.85 495.15,-258.76"/>
</a>
</g>
</g>
<!-- Node16 -->
<g id="Node000016" class="node">
<title>Node16</title>
<g id="a_Node000016"><a xlink:href="../../d2/ddb/classlci_1_1post__am__x.html#a6795ef889135b11c73c5994039dd31d5" target="_top" xlink:title=" ">
<polygon fill="white" stroke="#666666" points="635,-216.7 520,-216.7 520,-197.7 635,-197.7 635,-216.7"/>
<text text-anchor="middle" x="577.5" y="-204.7" font-family="Helvetica,sans-Serif" font-size="10.00">lci::post_am_x::rank</text>
</a>
</g>
</g>
<!-- Node2&#45;&gt;Node16 -->
<g id="edge48_Node000002_Node000016" class="edge">
<title>Node2&#45;&gt;Node16</title>
<g id="a_edge48_Node000002_Node000016"><a xlink:title=" ">
<path fill="none" stroke="#63b8ff" d="M241.49,-329.54C255.6,-312.08 287.95,-275.38 324,-257.2 382.45,-227.71 456.68,-215.6 509.5,-210.63"/>
<polygon fill="#63b8ff" stroke="#63b8ff" points="510.11,-214.09 519.76,-209.73 509.49,-207.12 510.11,-214.09"/>
</a>
</g>
</g>
<!-- Node17 -->
<g id="Node000017" class="node">
<title>Node17</title>
<g id="a_Node000017"><a xlink:href="../../d2/ddb/classlci_1_1post__am__x.html#af744f7f42ad85bca3a711ff1455dca3f" target="_top" xlink:title=" ">
<polygon fill="white" stroke="#666666" points="658,-179.7 497,-179.7 497,-160.7 658,-160.7 658,-179.7"/>
<text text-anchor="middle" x="577.5" y="-167.7" font-family="Helvetica,sans-Serif" font-size="10.00">lci::post_am_x::remote_comp</text>
</a>
</g>
</g>
<!-- Node2&#45;&gt;Node17 -->
<g id="edge49_Node000002_Node000017" class="edge">
<title>Node2&#45;&gt;Node17</title>
<g id="a_edge49_Node000002_Node000017"><a xlink:title=" ">
<path fill="none" stroke="#63b8ff" d="M237.73,-329.67C247.68,-305.65 277.3,-242.45 324,-213.2 372.31,-182.93 435.56,-172.2 486.67,-169.02"/>
<polygon fill="#63b8ff" stroke="#63b8ff" points="486.92,-172.51 496.72,-168.48 486.55,-165.52 486.92,-172.51"/>
</a>
</g>
</g>
<!-- Node18 -->
<g id="Node000018" class="node">
<title>Node18</title>
<g id="a_Node000018"><a xlink:href="../../d2/ddb/classlci_1_1post__am__x.html#a46bcb5e0dbe32aa1c7cbb6b92e92f822" target="_top" xlink:title=" ">
<polygon fill="white" stroke="#666666" points="643,-142.7 512,-142.7 512,-123.7 643,-123.7 643,-142.7"/>
<text text-anchor="middle" x="577.5" y="-130.7" font-family="Helvetica,sans-Serif" font-size="10.00">lci::post_am_x::runtime</text>
</a>
</g>
</g>
<!-- Node2&#45;&gt;Node18 -->
<g id="edge50_Node000002_Node000018" class="edge">
<title>Node2&#45;&gt;Node18</title>
<g id="a_edge50_Node000002_Node000018"><a xlink:title=" ">
<path fill="none" stroke="#63b8ff" d="M235.88,-329.34C242.17,-299.25 265.49,-208.2 324,-167.2 375.47,-131.13 447.59,-124.62 501.59,-125.98"/>
<polygon fill="#63b8ff" stroke="#63b8ff" points="501.67,-129.48 511.79,-126.33 501.92,-122.49 501.67,-129.48"/>
</a>
</g>
</g>
<!-- Node19 -->
<g id="Node000019" class="node">
<title>Node19</title>
<g id="a_Node000019"><a xlink:href="../../d2/ddb/classlci_1_1post__am__x.html#a372f4a43383d28c4727b13c046c04ccd" target="_top" xlink:title=" ">
<polygon fill="white" stroke="#666666" points="634,-105.7 521,-105.7 521,-86.7 634,-86.7 634,-105.7"/>
<text text-anchor="middle" x="577.5" y="-93.7" font-family="Helvetica,sans-Serif" font-size="10.00">lci::post_am_x::size</text>
</a>
</g>
</g>
<!-- Node2&#45;&gt;Node19 -->
<g id="edge51_Node000002_Node000019" class="edge">
<title>Node2&#45;&gt;Node19</title>
<g id="a_edge51_Node000002_Node000019"><a xlink:title=" ">
<path fill="none" stroke="#63b8ff" d="M234.69,-329.3C237.71,-294.22 253.02,-175.06 324,-122.2 377.4,-82.43 455.73,-80.55 510.95,-85.68"/>
<polygon fill="#63b8ff" stroke="#63b8ff" points="510.68,-89.17 520.98,-86.72 511.39,-82.21 510.68,-89.17"/>
</a>
</g>
</g>
<!-- Node20 -->
<g id="Node000020" class="node">
<title>Node20</title>
<g id="a_Node000020"><a xlink:href="../../d2/ddb/classlci_1_1post__am__x.html#a4c83ce67927a5be8e3ab827e601c0c64" target="_top" xlink:title=" ">
<polygon fill="white" stroke="#666666" points="632,-68.7 523,-68.7 523,-49.7 632,-49.7 632,-68.7"/>
<text text-anchor="middle" x="577.5" y="-56.7" font-family="Helvetica,sans-Serif" font-size="10.00">lci::post_am_x::tag</text>
</a>
</g>
</g>
<!-- Node2&#45;&gt;Node20 -->
<g id="edge52_Node000002_Node000020" class="edge">
<title>Node2&#45;&gt;Node20</title>
<g id="a_edge52_Node000002_Node000020"><a xlink:title=" ">
<path fill="none" stroke="#63b8ff" d="M233.9,-329.57C234.09,-290.62 240.49,-143.78 324,-79.2 380.98,-35.13 468.42,-39.27 524.01,-47.96"/>
<polygon fill="#63b8ff" stroke="#63b8ff" points="523.57,-51.44 534.01,-49.63 524.72,-44.53 523.57,-51.44"/>
</a>
</g>
</g>
<!-- Node21 -->
<g id="Node000021" class="node">
<title>Node21</title>
<g id="a_Node000021"><a xlink:href="../../d2/ddb/classlci_1_1post__am__x.html#ae2a269c75aadd6fbd5cf1b9b42302946" target="_top" xlink:title=" ">
<polygon fill="white" stroke="#666666" points="634.5,-31.2 520.5,-31.2 520.5,-1.2 634.5,-1.2 634.5,-31.2"/>
<text text-anchor="start" x="528.5" y="-19.2" font-family="Helvetica,sans-Serif" font-size="10.00">lci::post_am_x::user</text>
<text text-anchor="middle" x="577.5" y="-8.2" font-family="Helvetica,sans-Serif" font-size="10.00">_context</text>
</a>
</g>
</g>
<!-- Node2&#45;&gt;Node21 -->
<g id="edge53_Node000002_Node000021" class="edge">
<title>Node2&#45;&gt;Node21</title>
<g id="a_edge53_Node000002_Node000021"><a xlink:title=" ">
<path fill="none" stroke="#63b8ff" d="M235.46,-329.41C242.71,-282.12 276.42,-78.08 324,-39.2 375.58,2.95 454.42,3.31 510.26,-3.45"/>
<polygon fill="#63b8ff" stroke="#63b8ff" points="510.03,-6.95 520.4,-4.79 510.94,-0.01 510.03,-6.95"/>
</a>
</g>
</g>
<!-- Node4 -->
<g id="Node000004" class="node">
<title>Node4</title>
<g id="a_Node000004"><a xlink:href="../../d2/ddb/classlci_1_1post__am__x.html#a16720960b7be9f65a6ac7b4c47c6c6f2" target="_top" xlink:title=" ">
<polygon fill="white" stroke="#666666" points="840,-327.7 694,-327.7 694,-308.7 840,-308.7 840,-327.7"/>
<text text-anchor="middle" x="767" y="-315.7" font-family="Helvetica,sans-Serif" font-size="10.00">lci::post_am_x::post_am_x</text>
</a>
</g>
</g>
<!-- Node3&#45;&gt;Node4 -->
<g id="edge3_Node000003_Node000004" class="edge">
<title>Node3&#45;&gt;Node4</title>
<g id="a_edge3_Node000003_Node000004"><a xlink:title=" ">
<path fill="none" stroke="#63b8ff" d="M643.88,-661.68C649.03,-659.16 653.83,-656.05 658,-652.2 751.97,-565.29 764.45,-396.17 765.89,-338.23"/>
<polygon fill="#63b8ff" stroke="#63b8ff" points="769.4,-337.96 766.06,-327.9 762.4,-337.85 769.4,-337.96"/>
</a>
</g>
</g>
<!-- Node5&#45;&gt;Node4 -->
<g id="edge5_Node000005_Node000004" class="edge">
<title>Node5&#45;&gt;Node4</title>
<g id="a_edge5_Node000005_Node000004"><a xlink:title=" ">
<path fill="none" stroke="#63b8ff" d="M637.05,-617.41C644.72,-614.11 652,-609.81 658,-604.2 738.04,-529.41 759.22,-389.32 764.42,-337.83"/>
<polygon fill="#63b8ff" stroke="#63b8ff" points="767.92,-338.01 765.35,-327.74 760.95,-337.37 767.92,-338.01"/>
</a>
</g>
</g>
<!-- Node6&#45;&gt;Node4 -->
<g id="edge7_Node000006_Node000004" class="edge">
<title>Node6&#45;&gt;Node4</title>
<g id="a_edge7_Node000006_Node000004"><a xlink:title=" ">
<path fill="none" stroke="#63b8ff" d="M637.13,-568.88C644.7,-565.65 651.92,-561.52 658,-556.2 726.62,-496.14 754.06,-383.7 762.69,-338.14"/>
<polygon fill="#63b8ff" stroke="#63b8ff" points="766.17,-338.53 764.49,-328.07 759.28,-337.29 766.17,-338.53"/>
</a>
</g>
</g>
<!-- Node7&#45;&gt;Node3 -->
<g id="edge9_Node000007_Node000003" class="edge">
<title>Node7&#45;&gt;Node3</title>
<g id="a_edge9_Node000007_Node000003"><a xlink:title=" ">
<path fill="none" stroke="#63b8ff" d="M393.76,-367.84C395.41,-409.01 407.56,-571.6 497,-652.2 498.71,-653.74 500.53,-655.17 502.43,-656.48"/>
<polygon fill="#63b8ff" stroke="#63b8ff" points="500.81,-659.59 511.22,-661.56 504.31,-653.53 500.81,-659.59"/>
</a>
</g>
</g>
<!-- Node7&#45;&gt;Node5 -->
<g id="edge10_Node000007_Node000005" class="edge">
<title>Node7&#45;&gt;Node5</title>
<g id="a_edge10_Node000007_Node000005"><a xlink:title=" ">
<path fill="none" stroke="#63b8ff" d="M394.63,-367.87C399.45,-404.55 421.58,-536.31 497,-604.2 500.56,-607.4 504.54,-610.18 508.77,-612.59"/>
<polygon fill="#63b8ff" stroke="#63b8ff" points="507.22,-615.73 517.74,-617.03 510.33,-609.46 507.22,-615.73"/>
</a>
</g>
</g>
<!-- Node7&#45;&gt;Node6 -->
<g id="edge11_Node000007_Node000006" class="edge">
<title>Node7&#45;&gt;Node6</title>
<g id="a_edge11_Node000007_Node000006"><a xlink:title=" ">
<path fill="none" stroke="#63b8ff" d="M395.67,-367.72C403.42,-399.51 432.74,-503.04 497,-556.2 500.53,-559.12 504.41,-561.69 508.5,-563.94"/>
<polygon fill="#63b8ff" stroke="#63b8ff" points="507.2,-567.2 517.73,-568.39 510.25,-560.9 507.2,-567.2"/>
</a>
</g>
</g>
<!-- Node7&#45;&gt;Node8 -->
<g id="edge12_Node000007_Node000008" class="edge">
<title>Node7&#45;&gt;Node8</title>
<g id="a_edge12_Node000007_Node000008"><a xlink:title=" ">
<path fill="none" stroke="#63b8ff" d="M397.44,-367.95C408.73,-394.63 443.82,-469.43 497,-508.2 500.47,-510.73 504.22,-513 508.12,-515.03"/>
<polygon fill="#63b8ff" stroke="#63b8ff" points="506.91,-518.33 517.46,-519.35 509.85,-511.97 506.91,-518.33"/>
</a>
</g>
</g>
<!-- Node7&#45;&gt;Node9 -->
<g id="edge14_Node000007_Node000009" class="edge">
<title>Node7&#45;&gt;Node9</title>
<g id="a_edge14_Node000007_Node000009"><a xlink:title=" ">
<path fill="none" stroke="#63b8ff" d="M399.38,-367.89C413.32,-390 450.75,-444.35 497,-471.2 500.03,-472.96 503.22,-474.54 506.5,-475.97"/>
<polygon fill="#63b8ff" stroke="#63b8ff" points="505.38,-479.29 515.97,-479.61 507.89,-472.76 505.38,-479.29"/>
</a>
</g>
</g>
<!-- Node7&#45;&gt;Node10 -->
<g id="edge16_Node000007_Node000010" class="edge">
<title>Node7&#45;&gt;Node10</title>
<g id="a_edge16_Node000007_Node000010"><a xlink:title=" ">
<path fill="none" stroke="#63b8ff" d="M403.79,-367.83C421.45,-383.84 459.3,-415.87 497,-433.2 502.37,-435.67 508.1,-437.83 513.92,-439.73"/>
<polygon fill="#63b8ff" stroke="#63b8ff" points="513.19,-443.17 523.77,-442.68 515.19,-436.46 513.19,-443.17"/>
</a>
</g>
</g>
<!-- Node7&#45;&gt;Node11 -->
<g id="edge18_Node000007_Node000011" class="edge">
<title>Node7&#45;&gt;Node11</title>
<g id="a_edge18_Node000007_Node000011"><a xlink:title=" ">
<path fill="none" stroke="#63b8ff" d="M427.92,-367.79C451.72,-374.42 484.11,-383.45 512.56,-391.38"/>
<polygon fill="#63b8ff" stroke="#63b8ff" points="511.87,-394.82 522.45,-394.13 513.75,-388.08 511.87,-394.82"/>
</a>
</g>
</g>
<!-- Node7&#45;&gt;Node12 -->
<g id="edge20_Node000007_Node000012" class="edge">
<title>Node7&#45;&gt;Node12</title>
<g id="a_edge20_Node000007_Node000012"><a xlink:title=" ">
<path fill="none" stroke="#63b8ff" d="M461.12,-359.31C476.82,-359.56 493.54,-359.84 509.22,-360.09"/>
<polygon fill="#63b8ff" stroke="#63b8ff" points="509.31,-363.6 519.36,-360.26 509.42,-356.6 509.31,-363.6"/>
</a>
</g>
</g>
<!-- Node7&#45;&gt;Node13 -->
<g id="edge22_Node000007_Node000013" class="edge">
<title>Node7&#45;&gt;Node13</title>
<g id="a_edge22_Node000007_Node000013"><a xlink:title=" ">
<path fill="none" stroke="#63b8ff" d="M437.33,-348.62C463.14,-342.98 495.96,-335.8 523.25,-329.84"/>
<polygon fill="#63b8ff" stroke="#63b8ff" points="524,-333.26 533.02,-327.7 522.51,-326.42 524,-333.26"/>
</a>
</g>
</g>
<!-- Node7&#45;&gt;Node14 -->
<g id="edge24_Node000007_Node000014" class="edge">
<title>Node7&#45;&gt;Node14</title>
<g id="a_edge24_Node000007_Node000014"><a xlink:title=" ">
<path fill="none" stroke="#63b8ff" d="M407.61,-348.61C426.98,-335.86 463.24,-313.4 497,-300.2 503.39,-297.7 510.21,-295.46 517.06,-293.49"/>
<polygon fill="#63b8ff" stroke="#63b8ff" points="518.34,-296.76 527.08,-290.77 516.51,-290.01 518.34,-296.76"/>
</a>
</g>
</g>
<!-- Node7&#45;&gt;Node15 -->
<g id="edge26_Node000007_Node000015" class="edge">
<title>Node7&#45;&gt;Node15</title>
<g id="a_edge26_Node000007_Node000015"><a xlink:title=" ">
<path fill="none" stroke="#63b8ff" d="M400.93,-348.69C416.54,-329.4 454.79,-285.64 497,-263.2 501.32,-260.9 505.91,-258.88 510.63,-257.1"/>
<polygon fill="#63b8ff" stroke="#63b8ff" points="512.09,-260.3 520.44,-253.78 509.84,-253.67 512.09,-260.3"/>
</a>
</g>
</g>
<!-- Node7&#45;&gt;Node16 -->
<g id="edge28_Node000007_Node000016" class="edge">
<title>Node7&#45;&gt;Node16</title>
<g id="a_edge28_Node000007_Node000016"><a xlink:title=" ">
<path fill="none" stroke="#63b8ff" d="M398.2,-348.41C410.61,-323.68 446.75,-258.42 497,-226.2 501.11,-223.56 505.56,-221.29 510.17,-219.33"/>
<polygon fill="#63b8ff" stroke="#63b8ff" points="511.67,-222.51 519.83,-215.74 509.23,-215.95 511.67,-222.51"/>
</a>
</g>
</g>
<!-- Node7&#45;&gt;Node17 -->
<g id="edge30_Node000007_Node000017" class="edge">
<title>Node7&#45;&gt;Node17</title>
<g id="a_edge30_Node000007_Node000017"><a xlink:title=" ">
<path fill="none" stroke="#63b8ff" d="M396.52,-348.32C406.04,-319 438.25,-231.85 497,-189.2 499.56,-187.34 502.27,-185.66 505.1,-184.15"/>
<polygon fill="#63b8ff" stroke="#63b8ff" points="506.83,-187.2 514.44,-179.84 503.9,-180.85 506.83,-187.2"/>
</a>
</g>
</g>
<!-- Node7&#45;&gt;Node18 -->
<g id="edge32_Node000007_Node000018" class="edge">
<title>Node7&#45;&gt;Node18</title>
<g id="a_edge32_Node000007_Node000018"><a xlink:title=" ">
<path fill="none" stroke="#63b8ff" d="M395.33,-348.61C402.14,-315.63 429.23,-205.88 497,-152.2 499.29,-150.38 501.73,-148.73 504.28,-147.24"/>
<polygon fill="#63b8ff" stroke="#63b8ff" points="505.93,-150.33 513.31,-142.73 502.8,-144.07 505.93,-150.33"/>
</a>
</g>
</g>
<!-- Node7&#45;&gt;Node19 -->
<g id="edge34_Node000007_Node000019" class="edge">
<title>Node7&#45;&gt;Node19</title>
<g id="a_edge34_Node000007_Node000019"><a xlink:title=" ">
<path fill="none" stroke="#63b8ff" d="M394.55,-348.5C399.08,-311.76 420.28,-180 497,-115.2 501.27,-111.59 506.11,-108.65 511.23,-106.24"/>
<polygon fill="#63b8ff" stroke="#63b8ff" points="512.72,-109.42 520.72,-102.48 510.13,-102.91 512.72,-109.42"/>
</a>
</g>
</g>
<!-- Node7&#45;&gt;Node20 -->
<g id="edge36_Node000007_Node000020" class="edge">
<title>Node7&#45;&gt;Node20</title>
<g id="a_edge36_Node000007_Node000020"><a xlink:title=" ">
<path fill="none" stroke="#63b8ff" d="M393.95,-348.46C396.37,-308.35 411.13,-154.38 497,-78.2 501.81,-73.93 507.4,-70.58 513.35,-67.96"/>
<polygon fill="#63b8ff" stroke="#63b8ff" points="514.78,-71.16 522.94,-64.4 512.35,-64.6 514.78,-71.16"/>
</a>
</g>
</g>
<!-- Node7&#45;&gt;Node21 -->
<g id="edge38_Node000007_Node000021" class="edge">
<title>Node7&#45;&gt;Node21</title>
<g id="a_edge38_Node000007_Node000021"><a xlink:title=" ">
<path fill="none" stroke="#63b8ff" d="M393.6,-348.51C394.57,-305.63 404.26,-130.96 497,-40.2 501.06,-36.23 505.75,-32.91 510.78,-30.14"/>
<polygon fill="#63b8ff" stroke="#63b8ff" points="512.59,-33.15 520.14,-25.72 509.61,-26.82 512.59,-33.15"/>
</a>
</g>
</g>
<!-- Node8&#45;&gt;Node4 -->
<g id="edge13_Node000008_Node000004" class="edge">
<title>Node8&#45;&gt;Node4</title>
<g id="a_edge13_Node000008_Node000004"><a xlink:title=" ">
<path fill="none" stroke="#63b8ff" d="M637.51,-520.02C644.86,-516.93 651.91,-513.05 658,-508.2 715.76,-462.1 748.15,-376.16 760.33,-337.69"/>
<polygon fill="#63b8ff" stroke="#63b8ff" points="763.79,-338.36 763.36,-327.77 757.09,-336.32 763.79,-338.36"/>
</a>
</g>
</g>
<!-- Node9&#45;&gt;Node4 -->
<g id="edge15_Node000009_Node000004" class="edge">
<title>Node9&#45;&gt;Node4</title>
<g id="a_edge15_Node000009_Node000004"><a xlink:title=" ">
<path fill="none" stroke="#63b8ff" d="M640.3,-480.04C646.56,-477.72 652.59,-474.82 658,-471.2 708.97,-437.11 743.45,-370.22 758.08,-337.35"/>
<polygon fill="#63b8ff" stroke="#63b8ff" points="761.38,-338.52 762.13,-327.96 754.96,-335.75 761.38,-338.52"/>
</a>
</g>
</g>
<!-- Node10&#45;&gt;Node4 -->
<g id="edge17_Node000010_Node000004" class="edge">
<title>Node10&#45;&gt;Node4</title>
<g id="a_edge17_Node000010_Node000004"><a xlink:title=" ">
<path fill="none" stroke="#63b8ff" d="M636.08,-442.7C643.73,-440.22 651.25,-437.11 658,-433.2 700.41,-408.59 736.32,-362.17 754.08,-336.47"/>
<polygon fill="#63b8ff" stroke="#63b8ff" points="757.09,-338.26 759.78,-328.02 751.29,-334.35 757.09,-338.26"/>
</a>
</g>
</g>
<!-- Node11&#45;&gt;Node4 -->
<g id="edge19_Node000011_Node000004" class="edge">
<title>Node11&#45;&gt;Node4</title>
<g id="a_edge19_Node000011_Node000004"><a xlink:title=" ">
<path fill="none" stroke="#63b8ff" d="M635.2,-394.08C642.98,-391.43 650.77,-388.46 658,-385.2 689.85,-370.81 723.63,-348.58 744.76,-333.72"/>
<polygon fill="#63b8ff" stroke="#63b8ff" points="746.88,-336.5 752.99,-327.85 742.82,-330.8 746.88,-336.5"/>
</a>
</g>
</g>
<!-- Node12&#45;&gt;Node4 -->
<g id="edge21_Node000012_Node000004" class="edge">
<title>Node12&#45;&gt;Node4</title>
<g id="a_edge21_Node000012_Node000004"><a xlink:title=" ">
<path fill="none" stroke="#63b8ff" d="M635.52,-348.12C660.71,-342.34 690.1,-335.6 714.6,-329.98"/>
<polygon fill="#63b8ff" stroke="#63b8ff" points="715.46,-333.38 724.43,-327.73 713.9,-326.56 715.46,-333.38"/>
</a>
</g>
</g>
<!-- Node13&#45;&gt;Node4 -->
<g id="edge23_Node000013_Node000004" class="edge">
<title>Node13&#45;&gt;Node4</title>
<g id="a_edge23_Node000013_Node000004"><a xlink:title=" ">
<path fill="none" stroke="#63b8ff" d="M652.07,-318.2C662.49,-318.2 673.25,-318.2 683.82,-318.2"/>
<polygon fill="#63b8ff" stroke="#63b8ff" points="683.87,-321.7 693.87,-318.2 683.87,-314.7 683.87,-321.7"/>
</a>
</g>
</g>
<!-- Node14&#45;&gt;Node4 -->
<g id="edge25_Node000014_Node000004" class="edge">
<title>Node14&#45;&gt;Node4</title>
<g id="a_edge25_Node000014_Node000004"><a xlink:title=" ">
<path fill="none" stroke="#63b8ff" d="M626.79,-290.73C651.4,-295.58 681.54,-301.53 707.47,-306.65"/>
<polygon fill="#63b8ff" stroke="#63b8ff" points="707.06,-310.13 717.55,-308.64 708.42,-303.27 707.06,-310.13"/>
</a>
</g>
</g>
<!-- Node15&#45;&gt;Node4 -->
<g id="edge27_Node000015_Node000004" class="edge">
<title>Node15&#45;&gt;Node4</title>
<g id="a_edge27_Node000015_Node000004"><a xlink:title=" ">
<path fill="none" stroke="#63b8ff" d="M626.55,-253.75C637.05,-256.37 648.01,-259.52 658,-263.2 687.76,-274.15 719.9,-291.27 741.32,-303.5"/>
<polygon fill="#63b8ff" stroke="#63b8ff" points="739.67,-306.59 750.08,-308.57 743.18,-300.53 739.67,-306.59"/>
</a>
</g>
</g>
<!-- Node16&#45;&gt;Node4 -->
<g id="edge29_Node000016_Node000004" class="edge">
<title>Node16&#45;&gt;Node4</title>
<g id="a_edge29_Node000016_Node000004"><a xlink:title=" ">
<path fill="none" stroke="#63b8ff" d="M633.6,-216.77C642.01,-219.25 650.41,-222.34 658,-226.2 695.61,-245.31 731.23,-280.02 750.7,-300.91"/>
<polygon fill="#63b8ff" stroke="#63b8ff" points="748.23,-303.41 757.56,-308.43 753.4,-298.69 748.23,-303.41"/>
</a>
</g>
</g>
<!-- Node17&#45;&gt;Node4 -->
<g id="edge31_Node000017_Node000004" class="edge">
<title>Node17&#45;&gt;Node4</title>
<g id="a_edge31_Node000017_Node000004"><a xlink:title=" ">
<path fill="none" stroke="#63b8ff" d="M637.54,-179.77C644.72,-182.22 651.73,-185.31 658,-189.2 703.55,-217.38 739.26,-271.38 755.85,-299.75"/>
<polygon fill="#63b8ff" stroke="#63b8ff" points="752.92,-301.67 760.91,-308.63 759,-298.21 752.92,-301.67"/>
</a>
</g>
</g>
<!-- Node18&#45;&gt;Node4 -->
<g id="edge33_Node000018_Node000004" class="edge">
<title>Node18&#45;&gt;Node4</title>
<g id="a_edge33_Node000018_Node000004"><a xlink:title=" ">
<path fill="none" stroke="#63b8ff" d="M640.05,-142.82C646.42,-145.28 652.55,-148.35 658,-152.2 711.73,-190.09 745.45,-263.99 759.07,-298.97"/>
<polygon fill="#63b8ff" stroke="#63b8ff" points="755.86,-300.36 762.66,-308.49 762.41,-297.9 755.86,-300.36"/>
</a>
</g>
</g>
<!-- Node19&#45;&gt;Node4 -->
<g id="edge35_Node000019_Node000004" class="edge">
<title>Node19&#45;&gt;Node4</title>
<g id="a_edge35_Node000019_Node000004"><a xlink:title=" ">
<path fill="none" stroke="#63b8ff" d="M634.28,-103.12C642.79,-105.93 651.04,-109.82 658,-115.2 720.19,-163.29 750.61,-257.53 761.34,-298.45"/>
<polygon fill="#63b8ff" stroke="#63b8ff" points="757.98,-299.43 763.8,-308.28 764.77,-297.73 757.98,-299.43"/>
</a>
</g>
</g>
<!-- Node20&#45;&gt;Node4 -->
<g id="edge37_Node000020_Node000004" class="edge">
<title>Node20&#45;&gt;Node4</title>
<g id="a_edge37_Node000020_Node000004"><a xlink:title=" ">
<path fill="none" stroke="#63b8ff" d="M632.12,-64.93C641.47,-67.82 650.57,-72.05 658,-78.2 729.07,-137.01 755.21,-252.32 763.09,-298.45"/>
<polygon fill="#63b8ff" stroke="#63b8ff" points="759.68,-299.28 764.72,-308.6 766.59,-298.18 759.68,-299.28"/>
</a>
</g>
</g>
<!-- Node21&#45;&gt;Node4 -->
<g id="edge39_Node000021_Node000004" class="edge">
<title>Node21&#45;&gt;Node4</title>
<g id="a_edge39_Node000021_Node000004"><a xlink:title=" ">
<path fill="none" stroke="#63b8ff" d="M634.56,-26.03C643.13,-29.44 651.33,-34.03 658,-40.2 736.09,-112.47 758.4,-247.84 764.17,-298.44"/>
<polygon fill="#63b8ff" stroke="#63b8ff" points="760.71,-299.07 765.23,-308.66 767.67,-298.35 760.71,-299.07"/>
</a>
</g>
</g>
</g>
</svg>
