<?xml version="1.0" encoding="UTF-8" standalone="no"?>
<!DOCTYPE svg PUBLIC "-//W3C//DTD SVG 1.1//EN"
 "http://www.w3.org/Graphics/SVG/1.1/DTD/svg11.dtd">
<!-- Generated by graphviz version 2.43.0 (0)
 -->
<!-- Title: lci::post_am_x::call_impl Pages: 1 -->
<svg width="524pt" height="726pt"
 viewBox="0.00 0.00 524.00 725.50" xmlns="http://www.w3.org/2000/svg" xmlns:xlink="http://www.w3.org/1999/xlink">
<g id="graph0" class="graph" transform="scale(1 1) rotate(0) translate(4 721.5)">
<title>lci::post_am_x::call_impl</title>
<!-- Node1 -->
<g id="Node000001" class="node">
<title>Node1</title>
<g id="a_Node000001"><a xlink:title=" ">
<polygon fill="#999999" stroke="#666666" points="137,-347.5 0,-347.5 0,-328.5 137,-328.5 137,-347.5"/>
<text text-anchor="middle" x="68.5" y="-335.5" font-family="Helvetica,sans-Serif" font-size="10.00">lci::post_am_x::call_impl</text>
</a>
</g>
</g>
<!-- Node2 -->
<g id="Node000002" class="node">
<title>Node2</title>
<g id="a_Node000002"><a xlink:href="../../d2/ddb/classlci_1_1post__am__x.html#a2920bced8b8d6503d252b85cdaebb144" target="_top" xlink:title=" ">
<polygon fill="white" stroke="#666666" points="328,-717.5 179,-717.5 179,-698.5 328,-698.5 328,-717.5"/>
<text text-anchor="middle" x="253.5" y="-705.5" font-family="Helvetica,sans-Serif" font-size="10.00">lci::post_am_x::allow_done</text>
</a>
</g>
</g>
<!-- Node1&#45;&gt;Node2 -->
<g id="edge1_Node000001_Node000002" class="edge">
<title>Node1&#45;&gt;Node2</title>
<g id="a_edge1_Node000001_Node000002"><a xlink:title=" ">
<path fill="none" stroke="#63b8ff" d="M69.13,-347.56C67.93,-393.15 69.09,-590.37 173,-689 174.51,-690.43 176.1,-691.76 177.76,-692.99"/>
<polygon fill="#63b8ff" stroke="#63b8ff" points="176.27,-696.18 186.63,-698.4 179.92,-690.2 176.27,-696.18"/>
</a>
</g>
</g>
<!-- Node4 -->
<g id="Node000004" class="node">
<title>Node4</title>
<g id="a_Node000004"><a xlink:href="../../d2/ddb/classlci_1_1post__am__x.html#ac229a59965469231cb481ffadf8f8196" target="_top" xlink:title=" ">
<polygon fill="white" stroke="#666666" points="313,-680 194,-680 194,-650 313,-650 313,-680"/>
<text text-anchor="start" x="202" y="-668" font-family="Helvetica,sans-Serif" font-size="10.00">lci::post_am_x::allow</text>
<text text-anchor="middle" x="253.5" y="-657" font-family="Helvetica,sans-Serif" font-size="10.00">_posted</text>
</a>
</g>
</g>
<!-- Node1&#45;&gt;Node4 -->
<g id="edge3_Node000001_Node000004" class="edge">
<title>Node1&#45;&gt;Node4</title>
<g id="a_edge3_Node000001_Node000004"><a xlink:title=" ">
<path fill="none" stroke="#63b8ff" d="M69.77,-347.52C71.46,-388.89 83.78,-554.94 173,-641 176.51,-644.39 180.48,-647.3 184.73,-649.8"/>
<polygon fill="#63b8ff" stroke="#63b8ff" points="183.29,-652.99 193.79,-654.38 186.45,-646.74 183.29,-652.99"/>
</a>
</g>
</g>
<!-- Node5 -->
<g id="Node000005" class="node">
<title>Node5</title>
<g id="a_Node000005"><a xlink:href="../../d2/ddb/classlci_1_1post__am__x.html#abe88cff263705edebb3007476f52fb2e" target="_top" xlink:title=" ">
<polygon fill="white" stroke="#666666" points="313,-632 194,-632 194,-602 313,-602 313,-632"/>
<text text-anchor="start" x="202" y="-620" font-family="Helvetica,sans-Serif" font-size="10.00">lci::post_am_x::allow</text>
<text text-anchor="middle" x="253.5" y="-609" font-family="Helvetica,sans-Serif" font-size="10.00">_retry</text>
</a>
</g>
</g>
<!-- Node1&#45;&gt;Node5 -->
<g id="edge5_Node000001_Node000005" class="edge">
<title>Node1&#45;&gt;Node5</title>
<g id="a_edge5_Node000001_Node000005"><a xlink:title=" ">
<path fill="none" stroke="#63b8ff" d="M70.46,-347.51C74.72,-384.76 95.32,-522.19 173,-593 176.54,-596.23 180.51,-599.03 184.72,-601.44"/>
<polygon fill="#63b8ff" stroke="#63b8ff" points="183.16,-604.58 193.67,-605.9 186.28,-598.31 183.16,-604.58"/>
</a>
</g>
</g>
<!-- Node6 -->
<g id="Node000006" class="node">
<title>Node6</title>
<g id="a_Node000006"><a xlink:href="../../d2/ddb/classlci_1_1post__am__x.html#a22a67b151355681274202390c8c46d5f" target="_top" xlink:title=" ">
<polygon fill="white" stroke="#666666" points="317,-583.5 190,-583.5 190,-564.5 317,-564.5 317,-583.5"/>
<text text-anchor="middle" x="253.5" y="-571.5" font-family="Helvetica,sans-Serif" font-size="10.00">lci::post_am_x::buffers</text>
</a>
</g>
</g>
<!-- Node1&#45;&gt;Node6 -->
<g id="edge7_Node000001_Node000006" class="edge">
<title>Node1&#45;&gt;Node6</title>
<g id="a_edge7_Node000001_Node000006"><a xlink:title=" ">
<path fill="none" stroke="#63b8ff" d="M71.07,-347.61C77.18,-381.72 102.58,-498.04 173,-555 175.4,-556.95 177.98,-558.7 180.67,-560.27"/>
<polygon fill="#63b8ff" stroke="#63b8ff" points="179.11,-563.41 189.62,-564.74 182.24,-557.15 179.11,-563.41"/>
</a>
</g>
</g>
<!-- Node7 -->
<g id="Node000007" class="node">
<title>Node7</title>
<g id="a_Node000007"><a xlink:href="../../d2/ddb/classlci_1_1post__am__x.html#a8205661fa251b74c0d95812908a126b7" target="_top" xlink:title=" ">
<polygon fill="white" stroke="#666666" points="313.5,-546 193.5,-546 193.5,-516 313.5,-516 313.5,-546"/>
<text text-anchor="start" x="201.5" y="-534" font-family="Helvetica,sans-Serif" font-size="10.00">lci::post_am_x::comp</text>
<text text-anchor="middle" x="253.5" y="-523" font-family="Helvetica,sans-Serif" font-size="10.00">_semantic</text>
</a>
</g>
</g>
<!-- Node1&#45;&gt;Node7 -->
<g id="edge9_Node000001_Node000007" class="edge">
<title>Node1&#45;&gt;Node7</title>
<g id="a_edge9_Node000001_Node000007"><a xlink:title=" ">
<path fill="none" stroke="#63b8ff" d="M72.64,-347.72C82.48,-376.6 115.53,-462.65 173,-507 176.4,-509.63 180.09,-511.97 183.95,-514.05"/>
<polygon fill="#63b8ff" stroke="#63b8ff" points="182.69,-517.33 193.22,-518.47 185.7,-511.01 182.69,-517.33"/>
</a>
</g>
</g>
<!-- Node8 -->
<g id="Node000008" class="node">
<title>Node8</title>
<g id="a_Node000008"><a xlink:href="../../d2/ddb/classlci_1_1post__am__x.html#ad6c306765380107207fab8aa45ad4527" target="_top" xlink:title=" ">
<polygon fill="white" stroke="#666666" points="316,-497.5 191,-497.5 191,-478.5 316,-478.5 316,-497.5"/>
<text text-anchor="middle" x="253.5" y="-485.5" font-family="Helvetica,sans-Serif" font-size="10.00">lci::post_am_x::device</text>
</a>
</g>
</g>
<!-- Node1&#45;&gt;Node8 -->
<g id="edge11_Node000001_Node000008" class="edge">
<title>Node1&#45;&gt;Node8</title>
<g id="a_edge11_Node000001_Node000008"><a xlink:title=" ">
<path fill="none" stroke="#63b8ff" d="M74.18,-347.83C86.53,-372.63 122.56,-438.07 173,-470 175.66,-471.69 178.47,-473.22 181.36,-474.6"/>
<polygon fill="#63b8ff" stroke="#63b8ff" points="180.31,-477.95 190.88,-478.56 182.99,-471.49 180.31,-477.95"/>
</a>
</g>
</g>
<!-- Node9 -->
<g id="Node000009" class="node">
<title>Node9</title>
<g id="a_Node000009"><a xlink:href="../../d2/ddb/classlci_1_1post__am__x.html#acaf827f67cb784ceba676bf9437f0f82" target="_top" xlink:title=" ">
<polygon fill="white" stroke="#666666" points="321.5,-460.5 185.5,-460.5 185.5,-441.5 321.5,-441.5 321.5,-460.5"/>
<text text-anchor="middle" x="253.5" y="-448.5" font-family="Helvetica,sans-Serif" font-size="10.00">lci::post_am_x::endpoint</text>
</a>
</g>
</g>
<!-- Node1&#45;&gt;Node9 -->
<g id="edge13_Node000001_Node000009" class="edge">
<title>Node1&#45;&gt;Node9</title>
<g id="a_edge13_Node000001_Node000009"><a xlink:title=" ">
<path fill="none" stroke="#63b8ff" d="M77.2,-347.7C93,-366.92 131.15,-409.89 173,-432 177.32,-434.28 181.92,-436.29 186.64,-438.07"/>
<polygon fill="#63b8ff" stroke="#63b8ff" points="185.86,-441.5 196.45,-441.38 188.1,-434.87 185.86,-441.5"/>
</a>
</g>
</g>
<!-- Node10 -->
<g id="Node000010" class="node">
<title>Node10</title>
<g id="a_Node000010"><a xlink:href="../../d2/ddb/classlci_1_1post__am__x.html#ae570501aa28c5e42f9b96d3c7995235c" target="_top" xlink:title=" ">
<polygon fill="white" stroke="#666666" points="312.5,-423 194.5,-423 194.5,-393 312.5,-393 312.5,-423"/>
<text text-anchor="start" x="202.5" y="-411" font-family="Helvetica,sans-Serif" font-size="10.00">lci::post_am_x::force</text>
<text text-anchor="middle" x="253.5" y="-400" font-family="Helvetica,sans-Serif" font-size="10.00">_zcopy</text>
</a>
</g>
</g>
<!-- Node1&#45;&gt;Node10 -->
<g id="edge15_Node000001_Node000010" class="edge">
<title>Node1&#45;&gt;Node10</title>
<g id="a_edge15_Node000001_Node000010"><a xlink:title=" ">
<path fill="none" stroke="#63b8ff" d="M89.04,-347.56C109.62,-357.43 143.14,-372.91 173,-384 178.37,-385.99 183.98,-387.95 189.64,-389.82"/>
<polygon fill="#63b8ff" stroke="#63b8ff" points="188.57,-393.16 199.17,-392.9 190.73,-386.5 188.57,-393.16"/>
</a>
</g>
</g>
<!-- Node11 -->
<g id="Node000011" class="node">
<title>Node11</title>
<g id="a_Node000011"><a xlink:href="../../d2/ddb/classlci_1_1post__am__x.html#ac31b1bb89a7cb58adbc19c3697467915" target="_top" xlink:title=" ">
<polygon fill="white" stroke="#666666" points="311.5,-375 195.5,-375 195.5,-345 311.5,-345 311.5,-375"/>
<text text-anchor="start" x="203.5" y="-363" font-family="Helvetica,sans-Serif" font-size="10.00">lci::post_am_x::local</text>
<text text-anchor="middle" x="253.5" y="-352" font-family="Helvetica,sans-Serif" font-size="10.00">_buffer</text>
</a>
</g>
</g>
<!-- Node1&#45;&gt;Node11 -->
<g id="edge17_Node000001_Node000011" class="edge">
<title>Node1&#45;&gt;Node11</title>
<g id="a_edge17_Node000001_Node000011"><a xlink:title=" ">
<path fill="none" stroke="#63b8ff" d="M137.12,-346.13C152.82,-348.02 169.54,-350.03 185.22,-351.91"/>
<polygon fill="#63b8ff" stroke="#63b8ff" points="185.02,-355.41 195.36,-353.13 185.85,-348.46 185.02,-355.41"/>
</a>
</g>
</g>
<!-- Node12 -->
<g id="Node000012" class="node">
<title>Node12</title>
<g id="a_Node000012"><a xlink:href="../../d2/ddb/classlci_1_1post__am__x.html#ae6732b5adb0b66abb9fb55ab45e2f54c" target="_top" xlink:title=" ">
<polygon fill="white" stroke="#666666" points="328,-326.5 179,-326.5 179,-307.5 328,-307.5 328,-326.5"/>
<text text-anchor="middle" x="253.5" y="-314.5" font-family="Helvetica,sans-Serif" font-size="10.00">lci::post_am_x::local_comp</text>
</a>
</g>
</g>
<!-- Node1&#45;&gt;Node12 -->
<g id="edge19_Node000001_Node000012" class="edge">
<title>Node1&#45;&gt;Node12</title>
<g id="a_edge19_Node000001_Node000012"><a xlink:title=" ">
<path fill="none" stroke="#63b8ff" d="M137.12,-330.24C147.38,-329.06 158.08,-327.84 168.63,-326.62"/>
<polygon fill="#63b8ff" stroke="#63b8ff" points="169.16,-330.09 178.69,-325.47 168.36,-323.13 169.16,-330.09"/>
</a>
</g>
</g>
<!-- Node13 -->
<g id="Node000013" class="node">
<title>Node13</title>
<g id="a_Node000013"><a xlink:href="../../d2/ddb/classlci_1_1post__am__x.html#a9ea4030e492e23e423e08a231ad8cecd" target="_top" xlink:title=" ">
<polygon fill="white" stroke="#666666" points="307,-289.5 200,-289.5 200,-270.5 307,-270.5 307,-289.5"/>
<text text-anchor="middle" x="253.5" y="-277.5" font-family="Helvetica,sans-Serif" font-size="10.00">lci::post_am_x::mr</text>
</a>
</g>
</g>
<!-- Node1&#45;&gt;Node13 -->
<g id="edge21_Node000001_Node000013" class="edge">
<title>Node1&#45;&gt;Node13</title>
<g id="a_edge21_Node000001_Node000013"><a xlink:title=" ">
<path fill="none" stroke="#63b8ff" d="M92.23,-328.49C113.02,-320.02 144.73,-307.67 173,-299 181.09,-296.52 189.73,-294.16 198.22,-292.01"/>
<polygon fill="#63b8ff" stroke="#63b8ff" points="199.21,-295.37 208.08,-289.57 197.53,-288.57 199.21,-295.37"/>
</a>
</g>
</g>
<!-- Node14 -->
<g id="Node000014" class="node">
<title>Node14</title>
<g id="a_Node000014"><a xlink:href="../../d2/ddb/classlci_1_1post__am__x.html#a09278f7a7d6075f7379a7a4205d23505" target="_top" xlink:title=" ">
<polygon fill="white" stroke="#666666" points="329.5,-252.5 177.5,-252.5 177.5,-233.5 329.5,-233.5 329.5,-252.5"/>
<text text-anchor="middle" x="253.5" y="-240.5" font-family="Helvetica,sans-Serif" font-size="10.00">lci::post_am_x::packet_pool</text>
</a>
</g>
</g>
<!-- Node1&#45;&gt;Node14 -->
<g id="edge23_Node000001_Node000014" class="edge">
<title>Node1&#45;&gt;Node14</title>
<g id="a_edge23_Node000001_Node000014"><a xlink:title=" ">
<path fill="none" stroke="#63b8ff" d="M79.48,-328.49C96.98,-312.35 134.97,-279.62 173,-262 178.28,-259.55 183.91,-257.4 189.63,-255.52"/>
<polygon fill="#63b8ff" stroke="#63b8ff" points="190.77,-258.83 199.33,-252.59 188.74,-252.13 190.77,-258.83"/>
</a>
</g>
</g>
<!-- Node15 -->
<g id="Node000015" class="node">
<title>Node15</title>
<g id="a_Node000015"><a xlink:href="../../d2/ddb/classlci_1_1post__am__x.html#a6795ef889135b11c73c5994039dd31d5" target="_top" xlink:title=" ">
<polygon fill="white" stroke="#666666" points="311,-215.5 196,-215.5 196,-196.5 311,-196.5 311,-215.5"/>
<text text-anchor="middle" x="253.5" y="-203.5" font-family="Helvetica,sans-Serif" font-size="10.00">lci::post_am_x::rank</text>
</a>
</g>
</g>
<!-- Node1&#45;&gt;Node15 -->
<g id="edge25_Node000001_Node000015" class="edge">
<title>Node1&#45;&gt;Node15</title>
<g id="a_edge25_Node000001_Node000015"><a xlink:title=" ">
<path fill="none" stroke="#63b8ff" d="M75.4,-328.35C89.39,-306.31 126.92,-252.12 173,-225 177.14,-222.56 181.57,-220.44 186.15,-218.59"/>
<polygon fill="#63b8ff" stroke="#63b8ff" points="187.48,-221.83 195.71,-215.16 185.11,-215.24 187.48,-221.83"/>
</a>
</g>
</g>
<!-- Node16 -->
<g id="Node000016" class="node">
<title>Node16</title>
<g id="a_Node000016"><a xlink:href="../../d2/ddb/classlci_1_1post__am__x.html#af744f7f42ad85bca3a711ff1455dca3f" target="_top" xlink:title=" ">
<polygon fill="white" stroke="#666666" points="334,-178.5 173,-178.5 173,-159.5 334,-159.5 334,-178.5"/>
<text text-anchor="middle" x="253.5" y="-166.5" font-family="Helvetica,sans-Serif" font-size="10.00">lci::post_am_x::remote_comp</text>
</a>
</g>
</g>
<!-- Node1&#45;&gt;Node16 -->
<g id="edge27_Node000001_Node000016" class="edge">
<title>Node1&#45;&gt;Node16</title>
<g id="a_edge27_Node000001_Node000016"><a xlink:title=" ">
<path fill="none" stroke="#63b8ff" d="M73.17,-328.47C83.99,-301.7 118.45,-225.38 173,-188 175.9,-186.01 178.98,-184.24 182.18,-182.64"/>
<polygon fill="#63b8ff" stroke="#63b8ff" points="183.68,-185.81 191.47,-178.62 180.9,-179.38 183.68,-185.81"/>
</a>
</g>
</g>
<!-- Node17 -->
<g id="Node000017" class="node">
<title>Node17</title>
<g id="a_Node000017"><a xlink:href="../../d2/ddb/classlci_1_1post__am__x.html#a46bcb5e0dbe32aa1c7cbb6b92e92f822" target="_top" xlink:title=" ">
<polygon fill="white" stroke="#666666" points="319,-141.5 188,-141.5 188,-122.5 319,-122.5 319,-141.5"/>
<text text-anchor="middle" x="253.5" y="-129.5" font-family="Helvetica,sans-Serif" font-size="10.00">lci::post_am_x::runtime</text>
</a>
</g>
</g>
<!-- Node1&#45;&gt;Node17 -->
<g id="edge29_Node000001_Node000017" class="edge">
<title>Node1&#45;&gt;Node17</title>
<g id="a_edge29_Node000001_Node000017"><a xlink:title=" ">
<path fill="none" stroke="#63b8ff" d="M71.84,-328.43C79.93,-297.44 109.78,-199.05 173,-151 175.46,-149.13 178.08,-147.44 180.81,-145.91"/>
<polygon fill="#63b8ff" stroke="#63b8ff" points="182.36,-149.05 189.87,-141.57 179.34,-142.74 182.36,-149.05"/>
</a>
</g>
</g>
<!-- Node18 -->
<g id="Node000018" class="node">
<title>Node18</title>
<g id="a_Node000018"><a xlink:href="../../d2/ddb/classlci_1_1post__am__x.html#a372f4a43383d28c4727b13c046c04ccd" target="_top" xlink:title=" ">
<polygon fill="white" stroke="#666666" points="310,-104.5 197,-104.5 197,-85.5 310,-85.5 310,-104.5"/>
<text text-anchor="middle" x="253.5" y="-92.5" font-family="Helvetica,sans-Serif" font-size="10.00">lci::post_am_x::size</text>
</a>
</g>
</g>
<!-- Node1&#45;&gt;Node18 -->
<g id="edge31_Node000001_Node000018" class="edge">
<title>Node1&#45;&gt;Node18</title>
<g id="a_edge31_Node000001_Node000018"><a xlink:title=" ">
<path fill="none" stroke="#63b8ff" d="M70.97,-328.09C76.72,-292.9 101.08,-172.91 173,-114 177.32,-110.46 182.2,-107.56 187.35,-105.18"/>
<polygon fill="#63b8ff" stroke="#63b8ff" points="188.83,-108.36 196.87,-101.45 186.28,-101.84 188.83,-108.36"/>
</a>
</g>
</g>
<!-- Node19 -->
<g id="Node000019" class="node">
<title>Node19</title>
<g id="a_Node000019"><a xlink:href="../../d2/ddb/classlci_1_1post__am__x.html#a4c83ce67927a5be8e3ab827e601c0c64" target="_top" xlink:title=" ">
<polygon fill="white" stroke="#666666" points="308,-67.5 199,-67.5 199,-48.5 308,-48.5 308,-67.5"/>
<text text-anchor="middle" x="253.5" y="-55.5" font-family="Helvetica,sans-Serif" font-size="10.00">lci::post_am_x::tag</text>
</a>
</g>
</g>
<!-- Node1&#45;&gt;Node19 -->
<g id="edge33_Node000001_Node000019" class="edge">
<title>Node1&#45;&gt;Node19</title>
<g id="a_edge33_Node000001_Node000019"><a xlink:title=" ">
<path fill="none" stroke="#63b8ff" d="M70.23,-328.4C73.68,-290.15 91.76,-147.38 173,-77 177.79,-72.85 183.32,-69.57 189.19,-66.99"/>
<polygon fill="#63b8ff" stroke="#63b8ff" points="190.5,-70.24 198.65,-63.47 188.05,-63.68 190.5,-70.24"/>
</a>
</g>
</g>
<!-- Node20 -->
<g id="Node000020" class="node">
<title>Node20</title>
<g id="a_Node000020"><a xlink:href="../../d2/ddb/classlci_1_1post__am__x.html#ae2a269c75aadd6fbd5cf1b9b42302946" target="_top" xlink:title=" ">
<polygon fill="white" stroke="#666666" points="310.5,-30 196.5,-30 196.5,0 310.5,0 310.5,-30"/>
<text text-anchor="start" x="204.5" y="-18" font-family="Helvetica,sans-Serif" font-size="10.00">lci::post_am_x::user</text>
<text text-anchor="middle" x="253.5" y="-7" font-family="Helvetica,sans-Serif" font-size="10.00">_context</text>
</a>
</g>
</g>
<!-- Node1&#45;&gt;Node20 -->
<g id="edge35_Node000001_Node000020" class="edge">
<title>Node1&#45;&gt;Node20</title>
<g id="a_edge35_Node000001_Node000020"><a xlink:title=" ">
<path fill="none" stroke="#63b8ff" d="M69.86,-328.39C71.93,-287.33 85.57,-124.88 173,-40 177.09,-36.03 181.8,-32.69 186.84,-29.88"/>
<polygon fill="#63b8ff" stroke="#63b8ff" points="188.73,-32.86 196.23,-25.38 185.7,-26.55 188.73,-32.86"/>
</a>
</g>
</g>
<!-- Node3 -->
<g id="Node000003" class="node">
<title>Node3</title>
<g id="a_Node000003"><a xlink:href="../../d2/ddb/classlci_1_1post__am__x.html#a16720960b7be9f65a6ac7b4c47c6c6f2" target="_top" xlink:title=" ">
<polygon fill="white" stroke="#666666" points="516,-347.5 370,-347.5 370,-328.5 516,-328.5 516,-347.5"/>
<text text-anchor="middle" x="443" y="-335.5" font-family="Helvetica,sans-Serif" font-size="10.00">lci::post_am_x::post_am_x</text>
</a>
</g>
</g>
<!-- Node2&#45;&gt;Node3 -->
<g id="edge2_Node000002_Node000003" class="edge">
<title>Node2&#45;&gt;Node3</title>
<g id="a_edge2_Node000002_Node000003"><a xlink:title=" ">
<path fill="none" stroke="#63b8ff" d="M320.33,-698.35C325.31,-695.86 329.96,-692.79 334,-689 432.3,-596.79 441.9,-417.51 442.26,-357.85"/>
<polygon fill="#63b8ff" stroke="#63b8ff" points="445.76,-357.56 442.23,-347.57 438.76,-357.58 445.76,-357.56"/>
</a>
</g>
</g>
<!-- Node4&#45;&gt;Node3 -->
<g id="edge4_Node000004_Node000003" class="edge">
<title>Node4&#45;&gt;Node3</title>
<g id="a_edge4_Node000004_Node000003"><a xlink:title=" ">
<path fill="none" stroke="#63b8ff" d="M313.14,-654.31C320.81,-651 328.05,-646.67 334,-641 418.03,-561 436.8,-411.29 440.89,-357.7"/>
<polygon fill="#63b8ff" stroke="#63b8ff" points="444.4,-357.74 441.58,-347.53 437.41,-357.27 444.4,-357.74"/>
</a>
</g>
</g>
<!-- Node5&#45;&gt;Node3 -->
<g id="edge6_Node000005_Node000003" class="edge">
<title>Node5&#45;&gt;Node3</title>
<g id="a_edge6_Node000005_Node000003"><a xlink:title=" ">
<path fill="none" stroke="#63b8ff" d="M313.25,-605.82C320.81,-602.58 327.99,-598.39 334,-593 406.7,-527.72 432.04,-405.36 439.39,-357.71"/>
<polygon fill="#63b8ff" stroke="#63b8ff" points="442.9,-357.91 440.86,-347.52 435.97,-356.92 442.9,-357.91"/>
</a>
</g>
</g>
<!-- Node6&#45;&gt;Node3 -->
<g id="edge8_Node000006_Node000003" class="edge">
<title>Node6&#45;&gt;Node3</title>
<g id="a_edge8_Node000006_Node000003"><a xlink:title=" ">
<path fill="none" stroke="#63b8ff" d="M317.31,-564.65C323.3,-562.14 329,-558.97 334,-555 399.61,-502.83 428.51,-400.46 438.1,-357.6"/>
<polygon fill="#63b8ff" stroke="#63b8ff" points="441.57,-358.13 440.22,-347.62 434.72,-356.67 441.57,-358.13"/>
</a>
</g>
</g>
<!-- Node7&#45;&gt;Node3 -->
<g id="edge10_Node000007_Node000003" class="edge">
<title>Node7&#45;&gt;Node3</title>
<g id="a_edge10_Node000007_Node000003"><a xlink:title=" ">
<path fill="none" stroke="#63b8ff" d="M313.69,-518.36C320.93,-515.34 327.91,-511.61 334,-507 387.1,-466.83 421.13,-392.38 434.95,-357.27"/>
<polygon fill="#63b8ff" stroke="#63b8ff" points="438.3,-358.31 438.59,-347.72 431.76,-355.82 438.3,-358.31"/>
</a>
</g>
</g>
<!-- Node8&#45;&gt;Node3 -->
<g id="edge12_Node000008_Node000003" class="edge">
<title>Node8&#45;&gt;Node3</title>
<g id="a_edge12_Node000008_Node000003"><a xlink:title=" ">
<path fill="none" stroke="#63b8ff" d="M316.05,-478.45C322.35,-476.2 328.46,-473.42 334,-470 380.18,-441.44 415.62,-386.06 432.01,-356.95"/>
<polygon fill="#63b8ff" stroke="#63b8ff" points="435.27,-358.28 437,-347.83 429.13,-354.92 435.27,-358.28"/>
</a>
</g>
</g>
<!-- Node9&#45;&gt;Node3 -->
<g id="edge14_Node000009_Node000003" class="edge">
<title>Node9&#45;&gt;Node3</title>
<g id="a_edge14_Node000009_Node000003"><a xlink:title=" ">
<path fill="none" stroke="#63b8ff" d="M309.63,-441.49C318.04,-439.01 326.43,-435.9 334,-432 372.05,-412.41 407.76,-376.66 427.08,-355.34"/>
<polygon fill="#63b8ff" stroke="#63b8ff" points="429.85,-357.49 433.87,-347.69 424.61,-352.85 429.85,-357.49"/>
</a>
</g>
</g>
<!-- Node10&#45;&gt;Node3 -->
<g id="edge16_Node000010_Node000003" class="edge">
<title>Node10&#45;&gt;Node3</title>
<g id="a_edge16_Node000010_Node000003"><a xlink:title=" ">
<path fill="none" stroke="#63b8ff" d="M307.37,-392.93C316.31,-390.12 325.46,-387.1 334,-384 360.75,-374.3 390.44,-361.5 411.92,-351.86"/>
<polygon fill="#63b8ff" stroke="#63b8ff" points="413.49,-354.99 421.16,-347.68 410.61,-348.61 413.49,-354.99"/>
</a>
</g>
</g>
<!-- Node11&#45;&gt;Node3 -->
<g id="edge18_Node000011_Node000003" class="edge">
<title>Node11&#45;&gt;Node3</title>
<g id="a_edge18_Node000011_Node000003"><a xlink:title=" ">
<path fill="none" stroke="#63b8ff" d="M311.52,-353.31C326.78,-351.52 343.58,-349.55 359.9,-347.63"/>
<polygon fill="#63b8ff" stroke="#63b8ff" points="360.45,-351.09 369.98,-346.45 359.64,-344.14 360.45,-351.09"/>
</a>
</g>
</g>
<!-- Node12&#45;&gt;Node3 -->
<g id="edge20_Node000012_Node000003" class="edge">
<title>Node12&#45;&gt;Node3</title>
<g id="a_edge20_Node000012_Node000003"><a xlink:title=" ">
<path fill="none" stroke="#63b8ff" d="M328.07,-325.24C338.49,-326.41 349.25,-327.61 359.82,-328.8"/>
<polygon fill="#63b8ff" stroke="#63b8ff" points="359.55,-332.29 369.87,-329.92 360.33,-325.33 359.55,-332.29"/>
</a>
</g>
</g>
<!-- Node13&#45;&gt;Node3 -->
<g id="edge22_Node000013_Node000003" class="edge">
<title>Node13&#45;&gt;Node3</title>
<g id="a_edge22_Node000013_Node000003"><a xlink:title=" ">
<path fill="none" stroke="#63b8ff" d="M298.47,-289.58C310.09,-292.37 322.58,-295.58 334,-299 359.23,-306.54 387.17,-316.68 408.31,-324.74"/>
<polygon fill="#63b8ff" stroke="#63b8ff" points="407.22,-328.06 417.81,-328.38 409.73,-321.53 407.22,-328.06"/>
</a>
</g>
</g>
<!-- Node14&#45;&gt;Node3 -->
<g id="edge24_Node000014_Node000003" class="edge">
<title>Node14&#45;&gt;Node3</title>
<g id="a_edge24_Node000014_Node000003"><a xlink:title=" ">
<path fill="none" stroke="#63b8ff" d="M307.19,-252.61C316.33,-255.11 325.59,-258.21 334,-262 368.35,-277.5 403.11,-304.42 423.59,-321.71"/>
<polygon fill="#63b8ff" stroke="#63b8ff" points="421.34,-324.39 431.21,-328.26 425.9,-319.08 421.34,-324.39"/>
</a>
</g>
</g>
<!-- Node15&#45;&gt;Node3 -->
<g id="edge26_Node000015_Node000003" class="edge">
<title>Node15&#45;&gt;Node3</title>
<g id="a_edge26_Node000015_Node000003"><a xlink:title=" ">
<path fill="none" stroke="#63b8ff" d="M311.22,-215.29C319.15,-217.8 326.99,-220.97 334,-225 376.13,-249.19 412.15,-294.81 430,-320.05"/>
<polygon fill="#63b8ff" stroke="#63b8ff" points="427.17,-322.12 435.74,-328.36 432.93,-318.14 427.17,-322.12"/>
</a>
</g>
</g>
<!-- Node16&#45;&gt;Node3 -->
<g id="edge28_Node000016_Node000003" class="edge">
<title>Node16&#45;&gt;Node3</title>
<g id="a_edge28_Node000016_Node000003"><a xlink:title=" ">
<path fill="none" stroke="#63b8ff" d="M315.05,-178.58C321.75,-181.04 328.22,-184.13 334,-188 384.26,-221.7 419.08,-287.15 433.93,-319.29"/>
<polygon fill="#63b8ff" stroke="#63b8ff" points="430.76,-320.77 438.05,-328.47 437.15,-317.91 430.76,-320.77"/>
</a>
</g>
</g>
<!-- Node17&#45;&gt;Node3 -->
<g id="edge30_Node000017_Node000003" class="edge">
<title>Node17&#45;&gt;Node3</title>
<g id="a_edge30_Node000017_Node000003"><a xlink:title=" ">
<path fill="none" stroke="#63b8ff" d="M316.66,-141.5C322.85,-143.98 328.77,-147.1 334,-151 392.53,-194.66 424.52,-280.13 436.47,-318.52"/>
<polygon fill="#63b8ff" stroke="#63b8ff" points="433.21,-319.85 439.43,-328.42 439.92,-317.84 433.21,-319.85"/>
</a>
</g>
</g>
<!-- Node18&#45;&gt;Node3 -->
<g id="edge32_Node000018_Node000003" class="edge">
<title>Node18&#45;&gt;Node3</title>
<g id="a_edge32_Node000018_Node000003"><a xlink:title=" ">
<path fill="none" stroke="#63b8ff" d="M310.05,-101.55C318.69,-104.39 327.04,-108.39 334,-114 401.12,-168.06 429.23,-274.02 438.36,-318.06"/>
<polygon fill="#63b8ff" stroke="#63b8ff" points="434.96,-318.94 440.32,-328.08 441.83,-317.59 434.96,-318.94"/>
</a>
</g>
</g>
<!-- Node19&#45;&gt;Node3 -->
<g id="edge34_Node000019_Node000003" class="edge">
<title>Node19&#45;&gt;Node3</title>
<g id="a_edge34_Node000019_Node000003"><a xlink:title=" ">
<path fill="none" stroke="#63b8ff" d="M308.28,-63.55C317.61,-66.46 326.66,-70.74 334,-77 410.14,-141.99 433.52,-269.29 439.87,-318.2"/>
<polygon fill="#63b8ff" stroke="#63b8ff" points="436.43,-318.87 441.09,-328.38 443.38,-318.04 436.43,-318.87"/>
</a>
</g>
</g>
<!-- Node20&#45;&gt;Node3 -->
<g id="edge36_Node000020_Node000003" class="edge">
<title>Node20&#45;&gt;Node3</title>
<g id="a_edge36_Node000020_Node000003"><a xlink:title=" ">
<path fill="none" stroke="#63b8ff" d="M310.7,-25.45C319.26,-28.98 327.42,-33.69 334,-40 416.38,-118.91 436.16,-265.41 440.7,-318.31"/>
<polygon fill="#63b8ff" stroke="#63b8ff" points="437.22,-318.68 441.48,-328.38 444.2,-318.14 437.22,-318.68"/>
</a>
</g>
</g>
</g>
</svg>
