<?xml version="1.0" encoding="UTF-8" standalone="no"?>
<!DOCTYPE svg PUBLIC "-//W3C//DTD SVG 1.1//EN"
 "http://www.w3.org/Graphics/SVG/1.1/DTD/svg11.dtd">
<!-- Generated by graphviz version 2.43.0 (0)
 -->
<!-- Title: lci::get_default_net_context_x Pages: 1 -->
<svg width="120pt" height="181pt"
 viewBox="0.00 0.00 120.00 181.00" xmlns="http://www.w3.org/2000/svg" xmlns:xlink="http://www.w3.org/1999/xlink">
<g id="graph0" class="graph" transform="scale(1 1) rotate(0) translate(4 177)">
<title>lci::get_default_net_context_x</title>
<!-- Node1 -->
<g id="Node000001" class="node">
<title>Node1</title>
<g id="a_Node000001"><a xlink:title="The actual implementation for get_default_net_context.">
<polygon fill="#999999" stroke="#666666" points="110,-30 0,-30 0,0 110,0 110,-30"/>
<text text-anchor="start" x="8" y="-18" font-family="Helvetica,sans-Serif" font-size="10.00">lci::get_default_net</text>
<text text-anchor="middle" x="55" y="-7" font-family="Helvetica,sans-Serif" font-size="10.00">_context_x</text>
</a>
</g>
</g>
<!-- Node2 -->
<g id="Node000002" class="node">
<title>Node2</title>
<g id="a_Node000002"><a xlink:href="../../db/d20/structlci_1_1option__t.html" target="_top" xlink:title=" ">
<polygon fill="white" stroke="#666666" points="103,-107 7,-107 7,-77 103,-77 103,-107"/>
<text text-anchor="start" x="15" y="-95" font-family="Helvetica,sans-Serif" font-size="10.00">lci::option_t&lt; lci</text>
<text text-anchor="middle" x="55" y="-84" font-family="Helvetica,sans-Serif" font-size="10.00">::runtime_t &gt;</text>
</a>
</g>
</g>
<!-- Node2&#45;&gt;Node1 -->
<g id="edge1_Node000001_Node000002" class="edge">
<title>Node2&#45;&gt;Node1</title>
<g id="a_edge1_Node000001_Node000002"><a xlink:title=" ">
<path fill="none" stroke="#9a32cd" stroke-dasharray="5,2" d="M55,-66.54C55,-54.45 55,-40.29 55,-30.04"/>
<polygon fill="#9a32cd" stroke="#9a32cd" points="51.5,-66.89 55,-76.89 58.5,-66.89 51.5,-66.89"/>
</a>
</g>
<text text-anchor="middle" x="83.5" y="-51" font-family="Helvetica,sans-Serif" font-size="10.00" fill="grey"> m_runtime</text>
</g>
<!-- Node3 -->
<g id="Node000003" class="node">
<title>Node3</title>
<g id="a_Node000003"><a xlink:href="../../dc/d5c/classlci_1_1runtime__t.html" target="_top" xlink:title="The actual implementation for RESOURCE runtime.">
<polygon fill="white" stroke="#666666" points="95.5,-173 14.5,-173 14.5,-154 95.5,-154 95.5,-173"/>
<text text-anchor="middle" x="55" y="-161" font-family="Helvetica,sans-Serif" font-size="10.00">lci::runtime_t</text>
</a>
</g>
</g>
<!-- Node3&#45;&gt;Node2 -->
<g id="edge2_Node000002_Node000003" class="edge">
<title>Node3&#45;&gt;Node2</title>
<g id="a_edge2_Node000002_Node000003"><a xlink:title=" ">
<path fill="none" stroke="#9a32cd" stroke-dasharray="5,2" d="M55,-143.71C55,-132.19 55,-117.68 55,-107.14"/>
<polygon fill="#9a32cd" stroke="#9a32cd" points="51.5,-143.98 55,-153.98 58.5,-143.98 51.5,-143.98"/>
</a>
</g>
<text text-anchor="middle" x="78" y="-128" font-family="Helvetica,sans-Serif" font-size="10.00" fill="grey"> m_value</text>
</g>
</g>
</svg>
