<?xml version="1.0" encoding="UTF-8" standalone="no"?>
<!DOCTYPE svg PUBLIC "-//W3C//DTD SVG 1.1//EN"
 "http://www.w3.org/Graphics/SVG/1.1/DTD/svg11.dtd">
<!-- Generated by graphviz version 2.43.0 (0)
 -->
<!-- Title: lci::free_packet_pool_x::free_packet_pool_x Pages: 1 -->
<svg width="748pt" height="86pt"
 viewBox="0.00 0.00 748.00 86.00" xmlns="http://www.w3.org/2000/svg" xmlns:xlink="http://www.w3.org/1999/xlink">
<g id="graph0" class="graph" transform="scale(1 1) rotate(0) translate(4 82)">
<title>lci::free_packet_pool_x::free_packet_pool_x</title>
<!-- Node1 -->
<g id="Node000001" class="node">
<title>Node1</title>
<g id="a_Node000001"><a xlink:title=" ">
<polygon fill="#999999" stroke="#666666" points="740,-54 612,-54 612,-24 740,-24 740,-54"/>
<text text-anchor="start" x="620" y="-42" font-family="Helvetica,sans-Serif" font-size="10.00">lci::free_packet_pool</text>
<text text-anchor="middle" x="676" y="-31" font-family="Helvetica,sans-Serif" font-size="10.00">_x::free_packet_pool_x</text>
</a>
</g>
</g>
<!-- Node2 -->
<g id="Node000002" class="node">
<title>Node2</title>
<g id="a_Node000002"><a xlink:href="../../dd/d21/classlci_1_1free__packet__pool__x.html#aeb2ef100986f29f6ec3ccc6d7846d2cb" target="_top" xlink:title=" ">
<polygon fill="white" stroke="#666666" points="576,-78 459,-78 459,-48 576,-48 576,-78"/>
<text text-anchor="start" x="467" y="-66" font-family="Helvetica,sans-Serif" font-size="10.00">lci::free_packet_pool</text>
<text text-anchor="middle" x="517.5" y="-55" font-family="Helvetica,sans-Serif" font-size="10.00">_x::packet_pool</text>
</a>
</g>
</g>
<!-- Node1&#45;&gt;Node2 -->
<g id="edge1_Node000001_Node000002" class="edge">
<title>Node1&#45;&gt;Node2</title>
<g id="a_edge1_Node000001_Node000002"><a xlink:title=" ">
<path fill="none" stroke="#63b8ff" d="M601.76,-50.23C593.16,-51.55 584.47,-52.88 576.13,-54.16"/>
<polygon fill="#63b8ff" stroke="#63b8ff" points="602.44,-53.67 611.8,-48.69 601.38,-46.75 602.44,-53.67"/>
</a>
</g>
</g>
<!-- Node7 -->
<g id="Node000007" class="node">
<title>Node7</title>
<g id="a_Node000007"><a xlink:href="../../dd/d21/classlci_1_1free__packet__pool__x.html#add7ed918f0c584786dcbdae91330a350" target="_top" xlink:title=" ">
<polygon fill="white" stroke="#666666" points="576,-30 459,-30 459,0 576,0 576,-30"/>
<text text-anchor="start" x="467" y="-18" font-family="Helvetica,sans-Serif" font-size="10.00">lci::free_packet_pool</text>
<text text-anchor="middle" x="517.5" y="-7" font-family="Helvetica,sans-Serif" font-size="10.00">_x::runtime</text>
</a>
</g>
</g>
<!-- Node1&#45;&gt;Node7 -->
<g id="edge7_Node000001_Node000007" class="edge">
<title>Node1&#45;&gt;Node7</title>
<g id="a_edge7_Node000001_Node000007"><a xlink:title=" ">
<path fill="none" stroke="#63b8ff" d="M601.76,-27.77C593.16,-26.45 584.47,-25.12 576.13,-23.84"/>
<polygon fill="#63b8ff" stroke="#63b8ff" points="601.38,-31.25 611.8,-29.31 602.44,-24.33 601.38,-31.25"/>
</a>
</g>
</g>
<!-- Node3 -->
<g id="Node000003" class="node">
<title>Node3</title>
<g id="a_Node000003"><a xlink:href="../../dd/d21/classlci_1_1free__packet__pool__x.html#a4741e22c036c3335ba81348389543b50" target="_top" xlink:title=" ">
<polygon fill="white" stroke="#666666" points="270,-54 153,-54 153,-24 270,-24 270,-54"/>
<text text-anchor="start" x="161" y="-42" font-family="Helvetica,sans-Serif" font-size="10.00">lci::free_packet_pool</text>
<text text-anchor="middle" x="211.5" y="-31" font-family="Helvetica,sans-Serif" font-size="10.00">_x::call</text>
</a>
</g>
</g>
<!-- Node2&#45;&gt;Node3 -->
<g id="edge2_Node000002_Node000003" class="edge">
<title>Node2&#45;&gt;Node3</title>
<g id="a_edge2_Node000002_Node000003"><a xlink:title=" ">
<path fill="none" stroke="#63b8ff" d="M448.4,-67.31C407.05,-68.86 353.3,-68.97 306,-63 291.37,-61.15 275.75,-57.74 261.55,-54.05"/>
<polygon fill="#63b8ff" stroke="#63b8ff" points="448.78,-70.8 458.63,-66.89 448.49,-63.8 448.78,-70.8"/>
</a>
</g>
</g>
<!-- Node6 -->
<g id="Node000006" class="node">
<title>Node6</title>
<g id="a_Node000006"><a xlink:href="../../dd/d21/classlci_1_1free__packet__pool__x.html#a4a99458357b44ced948ede7bb4b09cbf" target="_top" xlink:title=" ">
<polygon fill="white" stroke="#666666" points="423,-54 306,-54 306,-24 423,-24 423,-54"/>
<text text-anchor="start" x="314" y="-42" font-family="Helvetica,sans-Serif" font-size="10.00">lci::free_packet_pool</text>
<text text-anchor="middle" x="364.5" y="-31" font-family="Helvetica,sans-Serif" font-size="10.00">_x::call_impl</text>
</a>
</g>
</g>
<!-- Node2&#45;&gt;Node6 -->
<g id="edge5_Node000002_Node000006" class="edge">
<title>Node2&#45;&gt;Node6</title>
<g id="a_edge5_Node000002_Node000006"><a xlink:title=" ">
<path fill="none" stroke="#63b8ff" d="M448.95,-52.26C440.32,-50.89 431.56,-49.5 423.11,-48.16"/>
<polygon fill="#63b8ff" stroke="#63b8ff" points="448.56,-55.74 458.98,-53.86 449.66,-48.83 448.56,-55.74"/>
</a>
</g>
</g>
<!-- Node4 -->
<g id="Node000004" class="node">
<title>Node4</title>
<g id="a_Node000004"><a xlink:href="../../d5/dd3/namespacelci.html#a9e7048316c286050441b99cf50417155" target="_top" xlink:title=" ">
<polygon fill="white" stroke="#666666" points="117,-70.5 0,-70.5 0,-51.5 117,-51.5 117,-70.5"/>
<text text-anchor="middle" x="58.5" y="-58.5" font-family="Helvetica,sans-Serif" font-size="10.00">lci::free_packet_pool</text>
</a>
</g>
</g>
<!-- Node3&#45;&gt;Node4 -->
<g id="edge3_Node000003_Node000004" class="edge">
<title>Node3&#45;&gt;Node4</title>
<g id="a_edge3_Node000003_Node000004"><a xlink:title=" ">
<path fill="none" stroke="#63b8ff" d="M142.95,-48.84C134.32,-50.1 125.56,-51.38 117.11,-52.61"/>
<polygon fill="#63b8ff" stroke="#63b8ff" points="143.59,-52.29 152.98,-47.38 142.58,-45.36 143.59,-52.29"/>
</a>
</g>
</g>
<!-- Node5 -->
<g id="Node000005" class="node">
<title>Node5</title>
<g id="a_Node000005"><a xlink:href="../../dd/d21/classlci_1_1free__packet__pool__x.html#a138fbab5daceea75cec6170643446ddc" target="_top" xlink:title=" ">
<polygon fill="white" stroke="#666666" points="117,-33 0,-33 0,-3 117,-3 117,-33"/>
<text text-anchor="start" x="8" y="-21" font-family="Helvetica,sans-Serif" font-size="10.00">lci::free_packet_pool</text>
<text text-anchor="middle" x="58.5" y="-10" font-family="Helvetica,sans-Serif" font-size="10.00">_x::operator()</text>
</a>
</g>
</g>
<!-- Node3&#45;&gt;Node5 -->
<g id="edge4_Node000003_Node000005" class="edge">
<title>Node3&#45;&gt;Node5</title>
<g id="a_edge4_Node000003_Node000005"><a xlink:title=" ">
<path fill="none" stroke="#63b8ff" d="M142.95,-29.61C134.32,-28.41 125.56,-27.19 117.11,-26.01"/>
<polygon fill="#63b8ff" stroke="#63b8ff" points="142.6,-33.09 152.98,-31 143.56,-26.16 142.6,-33.09"/>
</a>
</g>
</g>
<!-- Node6&#45;&gt;Node3 -->
<g id="edge6_Node000006_Node000003" class="edge">
<title>Node6&#45;&gt;Node3</title>
<g id="a_edge6_Node000006_Node000003"><a xlink:title=" ">
<path fill="none" stroke="#63b8ff" d="M295.95,-39C287.32,-39 278.56,-39 270.11,-39"/>
<polygon fill="#63b8ff" stroke="#63b8ff" points="295.98,-42.5 305.98,-39 295.98,-35.5 295.98,-42.5"/>
</a>
</g>
</g>
<!-- Node7&#45;&gt;Node3 -->
<g id="edge8_Node000007_Node000003" class="edge">
<title>Node7&#45;&gt;Node3</title>
<g id="a_edge8_Node000007_Node000003"><a xlink:title=" ">
<path fill="none" stroke="#63b8ff" d="M448.4,-10.69C407.05,-9.14 353.3,-9.03 306,-15 291.37,-16.85 275.75,-20.26 261.55,-23.95"/>
<polygon fill="#63b8ff" stroke="#63b8ff" points="448.49,-14.2 458.63,-11.11 448.78,-7.2 448.49,-14.2"/>
</a>
</g>
</g>
<!-- Node7&#45;&gt;Node6 -->
<g id="edge9_Node000007_Node000006" class="edge">
<title>Node7&#45;&gt;Node6</title>
<g id="a_edge9_Node000007_Node000006"><a xlink:title=" ">
<path fill="none" stroke="#63b8ff" d="M448.95,-25.74C440.32,-27.11 431.56,-28.5 423.11,-29.84"/>
<polygon fill="#63b8ff" stroke="#63b8ff" points="449.66,-29.17 458.98,-24.14 448.56,-22.26 449.66,-29.17"/>
</a>
</g>
</g>
</g>
</svg>
