<?xml version="1.0" encoding="UTF-8" standalone="no"?>
<!DOCTYPE svg PUBLIC "-//W3C//DTD SVG 1.1//EN"
 "http://www.w3.org/Graphics/SVG/1.1/DTD/svg11.dtd">
<!-- Generated by graphviz version 2.43.0 (0)
 -->
<!-- Title: lci::post_recv_x::call Pages: 1 -->
<svg width="651pt" height="702pt"
 viewBox="0.00 0.00 651.00 701.58" xmlns="http://www.w3.org/2000/svg" xmlns:xlink="http://www.w3.org/1999/xlink">
<g id="graph0" class="graph" transform="scale(1 1) rotate(0) translate(4 697.58)">
<title>lci::post_recv_x::call</title>
<!-- Node1 -->
<g id="Node000001" class="node">
<title>Node1</title>
<g id="a_Node000001"><a xlink:title=" ">
<polygon fill="#999999" stroke="#666666" points="116,-351.58 0,-351.58 0,-332.58 116,-332.58 116,-351.58"/>
<text text-anchor="middle" x="58" y="-339.58" font-family="Helvetica,sans-Serif" font-size="10.00">lci::post_recv_x::call</text>
</a>
</g>
</g>
<!-- Node2 -->
<g id="Node000002" class="node">
<title>Node2</title>
<g id="a_Node000002"><a xlink:href="../../d7/df5/classlci_1_1post__recv__x.html#a1947446eaad7deef7777f457dcf39ddb" target="_top" xlink:title=" ">
<polygon fill="white" stroke="#666666" points="486.5,-693.58 332.5,-693.58 332.5,-674.58 486.5,-674.58 486.5,-693.58"/>
<text text-anchor="middle" x="409.5" y="-681.58" font-family="Helvetica,sans-Serif" font-size="10.00">lci::post_recv_x::allow_done</text>
</a>
</g>
</g>
<!-- Node1&#45;&gt;Node2 -->
<g id="edge1_Node000001_Node000002" class="edge">
<title>Node1&#45;&gt;Node2</title>
<g id="a_edge1_Node000001_Node000002"><a xlink:title=" ">
<path fill="none" stroke="#63b8ff" d="M59.18,-351.82C60.48,-391.3 70.76,-540.88 152,-617.08 197.59,-659.84 266.99,-676.08 322.11,-681.92"/>
<polygon fill="#63b8ff" stroke="#63b8ff" points="321.94,-685.42 332.22,-682.89 322.61,-678.45 321.94,-685.42"/>
</a>
</g>
</g>
<!-- Node4 -->
<g id="Node000004" class="node">
<title>Node4</title>
<g id="a_Node000004"><a xlink:href="../../d7/df5/classlci_1_1post__recv__x.html#a03c71a900079f2a09bca2663ba2af4ab" target="_top" xlink:title=" ">
<polygon fill="white" stroke="#666666" points="472,-656.08 347,-656.08 347,-626.08 472,-626.08 472,-656.08"/>
<text text-anchor="start" x="355" y="-644.08" font-family="Helvetica,sans-Serif" font-size="10.00">lci::post_recv_x::allow</text>
<text text-anchor="middle" x="409.5" y="-633.08" font-family="Helvetica,sans-Serif" font-size="10.00">_posted</text>
</a>
</g>
</g>
<!-- Node1&#45;&gt;Node4 -->
<g id="edge3_Node000001_Node000004" class="edge">
<title>Node1&#45;&gt;Node4</title>
<g id="a_edge3_Node000001_Node000004"><a xlink:title=" ">
<path fill="none" stroke="#63b8ff" d="M59.87,-351.71C63.59,-387.04 81.37,-510.68 152,-573.08 202.87,-618.02 280.14,-633.75 336.58,-639.02"/>
<polygon fill="#63b8ff" stroke="#63b8ff" points="336.6,-642.53 346.86,-639.88 337.19,-635.55 336.6,-642.53"/>
</a>
</g>
</g>
<!-- Node5 -->
<g id="Node000005" class="node">
<title>Node5</title>
<g id="a_Node000005"><a xlink:href="../../d7/df5/classlci_1_1post__recv__x.html#a8ca868991d765fd27ad39a0f912d019c" target="_top" xlink:title=" ">
<polygon fill="white" stroke="#666666" points="472,-608.08 347,-608.08 347,-578.08 472,-578.08 472,-608.08"/>
<text text-anchor="start" x="355" y="-596.08" font-family="Helvetica,sans-Serif" font-size="10.00">lci::post_recv_x::allow</text>
<text text-anchor="middle" x="409.5" y="-585.08" font-family="Helvetica,sans-Serif" font-size="10.00">_retry</text>
</a>
</g>
</g>
<!-- Node1&#45;&gt;Node5 -->
<g id="edge5_Node000001_Node000005" class="edge">
<title>Node1&#45;&gt;Node5</title>
<g id="a_edge5_Node000001_Node000005"><a xlink:title=" ">
<path fill="none" stroke="#63b8ff" d="M60.73,-351.78C66.87,-383.2 90.62,-483 152,-532.08 204.42,-574 280.93,-587.91 336.75,-592.14"/>
<polygon fill="#63b8ff" stroke="#63b8ff" points="336.71,-595.65 346.92,-592.83 337.18,-588.66 336.71,-595.65"/>
</a>
</g>
</g>
<!-- Node6 -->
<g id="Node000006" class="node">
<title>Node6</title>
<g id="a_Node000006"><a xlink:href="../../d7/df5/classlci_1_1post__recv__x.html#a5f9da9b31cf385aa7f112d2da94946e5" target="_top" xlink:title=" ">
<polygon fill="white" stroke="#666666" points="295,-370.58 152,-370.58 152,-351.58 295,-351.58 295,-370.58"/>
<text text-anchor="middle" x="223.5" y="-358.58" font-family="Helvetica,sans-Serif" font-size="10.00">lci::post_recv_x::call_impl</text>
</a>
</g>
</g>
<!-- Node1&#45;&gt;Node6 -->
<g id="edge7_Node000001_Node000006" class="edge">
<title>Node1&#45;&gt;Node6</title>
<g id="a_edge7_Node000001_Node000006"><a xlink:title=" ">
<path fill="none" stroke="#63b8ff" d="M116.18,-348.72C124.46,-349.69 133.1,-350.69 141.73,-351.69"/>
<polygon fill="#63b8ff" stroke="#63b8ff" points="141.49,-355.19 151.83,-352.87 142.3,-348.24 141.49,-355.19"/>
</a>
</g>
</g>
<!-- Node7 -->
<g id="Node000007" class="node">
<title>Node7</title>
<g id="a_Node000007"><a xlink:href="../../d7/df5/classlci_1_1post__recv__x.html#a915e9ab9980e2703666515e412f9a921" target="_top" xlink:title=" ">
<polygon fill="white" stroke="#666666" points="475,-559.58 344,-559.58 344,-540.58 475,-540.58 475,-559.58"/>
<text text-anchor="middle" x="409.5" y="-547.58" font-family="Helvetica,sans-Serif" font-size="10.00">lci::post_recv_x::device</text>
</a>
</g>
</g>
<!-- Node1&#45;&gt;Node7 -->
<g id="edge39_Node000001_Node000007" class="edge">
<title>Node1&#45;&gt;Node7</title>
<g id="a_edge39_Node000001_Node000007"><a xlink:title=" ">
<path fill="none" stroke="#63b8ff" d="M61.95,-351.71C70.77,-378.73 99.58,-455.76 152,-493.08 205.18,-530.94 279.04,-544.28 333.86,-548.69"/>
<polygon fill="#63b8ff" stroke="#63b8ff" points="333.64,-552.18 343.86,-549.41 334.14,-545.2 333.64,-552.18"/>
</a>
</g>
</g>
<!-- Node8 -->
<g id="Node000008" class="node">
<title>Node8</title>
<g id="a_Node000008"><a xlink:href="../../d7/df5/classlci_1_1post__recv__x.html#a6f1dea52919f69662a2fb21c0f6b810d" target="_top" xlink:title=" ">
<polygon fill="white" stroke="#666666" points="480,-522.58 339,-522.58 339,-503.58 480,-503.58 480,-522.58"/>
<text text-anchor="middle" x="409.5" y="-510.58" font-family="Helvetica,sans-Serif" font-size="10.00">lci::post_recv_x::endpoint</text>
</a>
</g>
</g>
<!-- Node1&#45;&gt;Node8 -->
<g id="edge40_Node000001_Node000008" class="edge">
<title>Node1&#45;&gt;Node8</title>
<g id="a_edge40_Node000001_Node000008"><a xlink:title=" ">
<path fill="none" stroke="#63b8ff" d="M63.98,-351.87C75.89,-374.22 108.3,-429.13 152,-456.08 205.35,-488.98 275.32,-502.98 328.7,-508.9"/>
<polygon fill="#63b8ff" stroke="#63b8ff" points="328.5,-512.39 338.8,-509.94 329.22,-505.43 328.5,-512.39"/>
</a>
</g>
</g>
<!-- Node9 -->
<g id="Node000009" class="node">
<title>Node9</title>
<g id="a_Node000009"><a xlink:href="../../d7/df5/classlci_1_1post__recv__x.html#a6b6cc0329cb5b129186ecbceac97c5c9" target="_top" xlink:title=" ">
<polygon fill="white" stroke="#666666" points="471,-485.08 348,-485.08 348,-455.08 471,-455.08 471,-485.08"/>
<text text-anchor="start" x="356" y="-473.08" font-family="Helvetica,sans-Serif" font-size="10.00">lci::post_recv_x::force</text>
<text text-anchor="middle" x="409.5" y="-462.08" font-family="Helvetica,sans-Serif" font-size="10.00">_zcopy</text>
</a>
</g>
</g>
<!-- Node1&#45;&gt;Node9 -->
<g id="edge41_Node000001_Node000009" class="edge">
<title>Node1&#45;&gt;Node9</title>
<g id="a_edge41_Node000001_Node000009"><a xlink:title=" ">
<path fill="none" stroke="#63b8ff" d="M66.82,-351.66C81.52,-368.98 115.16,-405.33 152,-423.08 210.72,-451.36 284.52,-462.7 337.87,-467.21"/>
<polygon fill="#63b8ff" stroke="#63b8ff" points="337.67,-470.7 347.92,-467.99 338.22,-463.72 337.67,-470.7"/>
</a>
</g>
</g>
<!-- Node10 -->
<g id="Node000010" class="node">
<title>Node10</title>
<g id="a_Node000010"><a xlink:href="../../d7/df5/classlci_1_1post__recv__x.html#ae8557d3e45cb7ada864ff6d7ed0450dc" target="_top" xlink:title=" ">
<polygon fill="white" stroke="#666666" points="470.5,-437.08 348.5,-437.08 348.5,-407.08 470.5,-407.08 470.5,-437.08"/>
<text text-anchor="start" x="356.5" y="-425.08" font-family="Helvetica,sans-Serif" font-size="10.00">lci::post_recv_x::local</text>
<text text-anchor="middle" x="409.5" y="-414.08" font-family="Helvetica,sans-Serif" font-size="10.00">_buffer</text>
</a>
</g>
</g>
<!-- Node1&#45;&gt;Node10 -->
<g id="edge42_Node000001_Node000010" class="edge">
<title>Node1&#45;&gt;Node10</title>
<g id="a_edge42_Node000001_Node000010"><a xlink:title=" ">
<path fill="none" stroke="#63b8ff" d="M70.76,-351.59C87.62,-364.62 120.13,-387.6 152,-398.08 212.74,-418.05 285.64,-423.2 338.17,-423.86"/>
<polygon fill="#63b8ff" stroke="#63b8ff" points="338.37,-427.36 348.4,-423.93 338.42,-420.36 338.37,-427.36"/>
</a>
</g>
</g>
<!-- Node11 -->
<g id="Node000011" class="node">
<title>Node11</title>
<g id="a_Node000011"><a xlink:href="../../d7/df5/classlci_1_1post__recv__x.html#adbb1b53ef004aa0acec76303833a8b6c" target="_top" xlink:title=" ">
<polygon fill="white" stroke="#666666" points="486.5,-388.58 332.5,-388.58 332.5,-369.58 486.5,-369.58 486.5,-388.58"/>
<text text-anchor="middle" x="409.5" y="-376.58" font-family="Helvetica,sans-Serif" font-size="10.00">lci::post_recv_x::local_comp</text>
</a>
</g>
</g>
<!-- Node1&#45;&gt;Node11 -->
<g id="edge43_Node000001_Node000011" class="edge">
<title>Node1&#45;&gt;Node11</title>
<g id="a_edge43_Node000001_Node000011"><a xlink:title=" ">
<path fill="none" stroke="#63b8ff" d="M76.53,-351.66C94.77,-361.03 124.45,-374.67 152,-380.08 207.9,-391.06 271.99,-390.82 322.12,-387.82"/>
<polygon fill="#63b8ff" stroke="#63b8ff" points="322.52,-391.3 332.28,-387.17 322.07,-384.32 322.52,-391.3"/>
</a>
</g>
</g>
<!-- Node12 -->
<g id="Node000012" class="node">
<title>Node12</title>
<g id="a_Node000012"><a xlink:href="../../d7/df5/classlci_1_1post__recv__x.html#a76de3f961791a8c279f4a3cc08b1864f" target="_top" xlink:title=" ">
<polygon fill="white" stroke="#666666" points="481.5,-351.08 337.5,-351.08 337.5,-321.08 481.5,-321.08 481.5,-351.08"/>
<text text-anchor="start" x="345.5" y="-339.08" font-family="Helvetica,sans-Serif" font-size="10.00">lci::post_recv_x::matching</text>
<text text-anchor="middle" x="409.5" y="-328.08" font-family="Helvetica,sans-Serif" font-size="10.00">_engine</text>
</a>
</g>
</g>
<!-- Node1&#45;&gt;Node12 -->
<g id="edge44_Node000001_Node000012" class="edge">
<title>Node1&#45;&gt;Node12</title>
<g id="a_edge44_Node000001_Node000012"><a xlink:title=" ">
<path fill="none" stroke="#63b8ff" d="M116.32,-341.1C173.67,-340.11 262.44,-338.59 327.08,-337.48"/>
<polygon fill="#63b8ff" stroke="#63b8ff" points="327.3,-340.97 337.24,-337.3 327.18,-333.97 327.3,-340.97"/>
</a>
</g>
</g>
<!-- Node13 -->
<g id="Node000013" class="node">
<title>Node13</title>
<g id="a_Node000013"><a xlink:href="../../d7/df5/classlci_1_1post__recv__x.html#ae7d42f2f368c4515abf46e9490c117c1" target="_top" xlink:title=" ">
<polygon fill="white" stroke="#666666" points="481.5,-303.08 337.5,-303.08 337.5,-273.08 481.5,-273.08 481.5,-303.08"/>
<text text-anchor="start" x="345.5" y="-291.08" font-family="Helvetica,sans-Serif" font-size="10.00">lci::post_recv_x::matching</text>
<text text-anchor="middle" x="409.5" y="-280.08" font-family="Helvetica,sans-Serif" font-size="10.00">_policy</text>
</a>
</g>
</g>
<!-- Node1&#45;&gt;Node13 -->
<g id="edge45_Node000001_Node000013" class="edge">
<title>Node1&#45;&gt;Node13</title>
<g id="a_edge45_Node000001_Node000013"><a xlink:title=" ">
<path fill="none" stroke="#63b8ff" d="M116.32,-333.22C173.67,-324.36 262.44,-310.65 327.08,-300.66"/>
<polygon fill="#63b8ff" stroke="#63b8ff" points="327.89,-304.08 337.24,-299.09 326.82,-297.16 327.89,-304.08"/>
</a>
</g>
</g>
<!-- Node14 -->
<g id="Node000014" class="node">
<title>Node14</title>
<g id="a_Node000014"><a xlink:href="../../d7/df5/classlci_1_1post__recv__x.html#a81500b0a4a099640f205288897358c98" target="_top" xlink:title=" ">
<polygon fill="white" stroke="#666666" points="465.5,-254.58 353.5,-254.58 353.5,-235.58 465.5,-235.58 465.5,-254.58"/>
<text text-anchor="middle" x="409.5" y="-242.58" font-family="Helvetica,sans-Serif" font-size="10.00">lci::post_recv_x::mr</text>
</a>
</g>
</g>
<!-- Node1&#45;&gt;Node14 -->
<g id="edge46_Node000001_Node000014" class="edge">
<title>Node1&#45;&gt;Node14</title>
<g id="a_edge46_Node000001_Node000014"><a xlink:title=" ">
<path fill="none" stroke="#63b8ff" d="M78.94,-332.52C97.51,-323.9 126.15,-311.35 152,-303.08 216.13,-282.55 291.51,-266.43 343.89,-256.44"/>
<polygon fill="#63b8ff" stroke="#63b8ff" points="344.54,-259.88 353.72,-254.59 343.24,-253 344.54,-259.88"/>
</a>
</g>
</g>
<!-- Node15 -->
<g id="Node000015" class="node">
<title>Node15</title>
<g id="a_Node000015"><a xlink:href="../../d7/df5/classlci_1_1post__recv__x.html#a2d1ee93d55d1c99e24a1c09ac28bad37" target="_top" xlink:title=" ">
<polygon fill="white" stroke="#666666" points="488,-217.58 331,-217.58 331,-198.58 488,-198.58 488,-217.58"/>
<text text-anchor="middle" x="409.5" y="-205.58" font-family="Helvetica,sans-Serif" font-size="10.00">lci::post_recv_x::packet_pool</text>
</a>
</g>
</g>
<!-- Node1&#45;&gt;Node15 -->
<g id="edge47_Node000001_Node000015" class="edge">
<title>Node1&#45;&gt;Node15</title>
<g id="a_edge47_Node000001_Node000015"><a xlink:title=" ">
<path fill="none" stroke="#63b8ff" d="M67.4,-332.31C82.51,-315.4 116.08,-280.77 152,-263.08 204.76,-237.09 269.56,-223.33 320.83,-216.07"/>
<polygon fill="#63b8ff" stroke="#63b8ff" points="321.46,-219.51 330.9,-214.7 320.52,-212.58 321.46,-219.51"/>
</a>
</g>
</g>
<!-- Node16 -->
<g id="Node000016" class="node">
<title>Node16</title>
<g id="a_Node000016"><a xlink:href="../../d7/df5/classlci_1_1post__recv__x.html#ab3a3f91b24b7e39b7bcd45602faec4ee" target="_top" xlink:title=" ">
<polygon fill="white" stroke="#666666" points="469.5,-180.58 349.5,-180.58 349.5,-161.58 469.5,-161.58 469.5,-180.58"/>
<text text-anchor="middle" x="409.5" y="-168.58" font-family="Helvetica,sans-Serif" font-size="10.00">lci::post_recv_x::rank</text>
</a>
</g>
</g>
<!-- Node1&#45;&gt;Node16 -->
<g id="edge48_Node000001_Node000016" class="edge">
<title>Node1&#45;&gt;Node16</title>
<g id="a_edge48_Node000001_Node000016"><a xlink:title=" ">
<path fill="none" stroke="#63b8ff" d="M62.96,-332.56C73.48,-308.57 104.61,-245.42 152,-216.08 208.43,-181.15 284.48,-171.48 339.09,-169.59"/>
<polygon fill="#63b8ff" stroke="#63b8ff" points="339.47,-173.08 349.38,-169.32 339.29,-166.08 339.47,-173.08"/>
</a>
</g>
</g>
<!-- Node17 -->
<g id="Node000017" class="node">
<title>Node17</title>
<g id="a_Node000017"><a xlink:href="../../d7/df5/classlci_1_1post__recv__x.html#a377ff95b56068a680c9f92db75bd9f5d" target="_top" xlink:title=" ">
<polygon fill="white" stroke="#666666" points="478,-143.58 341,-143.58 341,-124.58 478,-124.58 478,-143.58"/>
<text text-anchor="middle" x="409.5" y="-131.58" font-family="Helvetica,sans-Serif" font-size="10.00">lci::post_recv_x::runtime</text>
</a>
</g>
</g>
<!-- Node1&#45;&gt;Node17 -->
<g id="edge49_Node000001_Node000017" class="edge">
<title>Node1&#45;&gt;Node17</title>
<g id="a_edge49_Node000001_Node000017"><a xlink:title=" ">
<path fill="none" stroke="#63b8ff" d="M61.03,-332.16C67.8,-301.89 92.61,-210.29 152,-169.08 203.86,-133.1 276.02,-126.06 330.6,-127.04"/>
<polygon fill="#63b8ff" stroke="#63b8ff" points="330.83,-130.55 340.92,-127.32 331.02,-123.55 330.83,-130.55"/>
</a>
</g>
</g>
<!-- Node18 -->
<g id="Node000018" class="node">
<title>Node18</title>
<g id="a_Node000018"><a xlink:href="../../d7/df5/classlci_1_1post__recv__x.html#a4a01e7ab7a4d3004dfd31e39ba7df6fc" target="_top" xlink:title=" ">
<polygon fill="white" stroke="#666666" points="468.5,-106.58 350.5,-106.58 350.5,-87.58 468.5,-87.58 468.5,-106.58"/>
<text text-anchor="middle" x="409.5" y="-94.58" font-family="Helvetica,sans-Serif" font-size="10.00">lci::post_recv_x::size</text>
</a>
</g>
</g>
<!-- Node1&#45;&gt;Node18 -->
<g id="edge50_Node000001_Node000018" class="edge">
<title>Node1&#45;&gt;Node18</title>
<g id="a_edge50_Node000001_Node000018"><a xlink:title=" ">
<path fill="none" stroke="#63b8ff" d="M59.75,-332.57C63.04,-297.75 79.51,-176.5 152,-123.08 206.78,-82.71 286.96,-81.12 343.06,-86.49"/>
<polygon fill="#63b8ff" stroke="#63b8ff" points="342.92,-89.99 353.24,-87.56 343.66,-83.03 342.92,-89.99"/>
</a>
</g>
</g>
<!-- Node19 -->
<g id="Node000019" class="node">
<title>Node19</title>
<g id="a_Node000019"><a xlink:href="../../d7/df5/classlci_1_1post__recv__x.html#a21534b481f5e6fe3e63fe8e86c255b57" target="_top" xlink:title=" ">
<polygon fill="white" stroke="#666666" points="466.5,-69.58 352.5,-69.58 352.5,-50.58 466.5,-50.58 466.5,-69.58"/>
<text text-anchor="middle" x="409.5" y="-57.58" font-family="Helvetica,sans-Serif" font-size="10.00">lci::post_recv_x::tag</text>
</a>
</g>
</g>
<!-- Node1&#45;&gt;Node19 -->
<g id="edge51_Node000001_Node000019" class="edge">
<title>Node1&#45;&gt;Node19</title>
<g id="a_edge51_Node000001_Node000019"><a xlink:title=" ">
<path fill="none" stroke="#63b8ff" d="M58.99,-332.36C59.54,-293.08 67.33,-144.95 152,-80.08 210.41,-35.33 299.87,-39.89 356.23,-48.83"/>
<polygon fill="#63b8ff" stroke="#63b8ff" points="355.91,-52.33 366.35,-50.54 357.07,-45.42 355.91,-52.33"/>
</a>
</g>
</g>
<!-- Node20 -->
<g id="Node000020" class="node">
<title>Node20</title>
<g id="a_Node000020"><a xlink:href="../../d7/df5/classlci_1_1post__recv__x.html#a63075f18228e79db948fef48bb02fad5" target="_top" xlink:title=" ">
<polygon fill="white" stroke="#666666" points="469,-32.08 350,-32.08 350,-2.08 469,-2.08 469,-32.08"/>
<text text-anchor="start" x="358" y="-20.08" font-family="Helvetica,sans-Serif" font-size="10.00">lci::post_recv_x::user</text>
<text text-anchor="middle" x="409.5" y="-9.08" font-family="Helvetica,sans-Serif" font-size="10.00">_context</text>
</a>
</g>
</g>
<!-- Node1&#45;&gt;Node20 -->
<g id="edge52_Node000001_Node000020" class="edge">
<title>Node1&#45;&gt;Node20</title>
<g id="a_edge52_Node000001_Node000020"><a xlink:title=" ">
<path fill="none" stroke="#63b8ff" d="M58.49,-332.4C56.82,-289.65 56.32,-116.34 152,-39.08 204.16,3.04 283.25,3.35 339.81,-3.61"/>
<polygon fill="#63b8ff" stroke="#63b8ff" points="339.37,-7.08 349.74,-4.93 340.29,-0.14 339.37,-7.08"/>
</a>
</g>
</g>
<!-- Node3 -->
<g id="Node000003" class="node">
<title>Node3</title>
<g id="a_Node000003"><a xlink:href="../../d7/df5/classlci_1_1post__recv__x.html#aa788ee0f7e0f4b77c72b3209bf554433" target="_top" xlink:title=" ">
<polygon fill="white" stroke="#666666" points="643,-351.08 524,-351.08 524,-321.08 643,-321.08 643,-351.08"/>
<text text-anchor="start" x="532" y="-339.08" font-family="Helvetica,sans-Serif" font-size="10.00">lci::post_recv_x::post</text>
<text text-anchor="middle" x="583.5" y="-328.08" font-family="Helvetica,sans-Serif" font-size="10.00">_recv_x</text>
</a>
</g>
</g>
<!-- Node2&#45;&gt;Node3 -->
<g id="edge2_Node000002_Node000003" class="edge">
<title>Node2&#45;&gt;Node3</title>
<g id="a_edge2_Node000002_Node000003"><a xlink:title=" ">
<path fill="none" stroke="#63b8ff" d="M474.38,-674.53C479.37,-672.02 484.01,-668.92 488,-665.08 575.11,-581.33 583.46,-423.05 583.21,-361.48"/>
<polygon fill="#63b8ff" stroke="#63b8ff" points="586.7,-361.11 583.08,-351.15 579.7,-361.19 586.7,-361.11"/>
</a>
</g>
</g>
<!-- Node4&#45;&gt;Node3 -->
<g id="edge4_Node000004_Node000003" class="edge">
<title>Node4&#45;&gt;Node3</title>
<g id="a_edge4_Node000004_Node000003"><a xlink:title=" ">
<path fill="none" stroke="#63b8ff" d="M472.03,-628.26C477.89,-625.28 483.36,-621.61 488,-617.08 561.05,-545.77 577.63,-416.29 581.39,-361.57"/>
<polygon fill="#63b8ff" stroke="#63b8ff" points="584.9,-361.57 582,-351.37 577.91,-361.15 584.9,-361.57"/>
</a>
</g>
</g>
<!-- Node5&#45;&gt;Node3 -->
<g id="edge6_Node000005_Node000003" class="edge">
<title>Node5&#45;&gt;Node3</title>
<g id="a_edge6_Node000005_Node000003"><a xlink:title=" ">
<path fill="none" stroke="#63b8ff" d="M472.14,-579.78C477.91,-576.89 483.33,-573.37 488,-569.08 550.04,-512.1 572.24,-408.63 579.42,-361.14"/>
<polygon fill="#63b8ff" stroke="#63b8ff" points="582.9,-361.5 580.83,-351.1 575.97,-360.52 582.9,-361.5"/>
</a>
</g>
</g>
<!-- Node6&#45;&gt;Node2 -->
<g id="edge8_Node000006_Node000002" class="edge">
<title>Node6&#45;&gt;Node2</title>
<g id="a_edge8_Node000006_Node000002"><a xlink:title=" ">
<path fill="none" stroke="#63b8ff" d="M224.75,-370.75C226.38,-412.79 238.67,-581.26 331,-665.08 332.71,-666.63 334.52,-668.06 336.42,-669.38"/>
<polygon fill="#63b8ff" stroke="#63b8ff" points="334.82,-672.49 345.23,-674.46 338.32,-666.43 334.82,-672.49"/>
</a>
</g>
</g>
<!-- Node6&#45;&gt;Node4 -->
<g id="edge9_Node000006_Node000004" class="edge">
<title>Node6&#45;&gt;Node4</title>
<g id="a_edge9_Node000006_Node000004"><a xlink:title=" ">
<path fill="none" stroke="#63b8ff" d="M225.58,-370.61C230.32,-407.97 252.68,-545.79 331,-617.08 333.2,-619.08 335.56,-620.91 338.04,-622.59"/>
<polygon fill="#63b8ff" stroke="#63b8ff" points="336.49,-625.74 346.9,-627.74 340.01,-619.69 336.49,-625.74"/>
</a>
</g>
</g>
<!-- Node6&#45;&gt;Node5 -->
<g id="edge10_Node000006_Node000005" class="edge">
<title>Node6&#45;&gt;Node5</title>
<g id="a_edge10_Node000006_Node000005"><a xlink:title=" ">
<path fill="none" stroke="#63b8ff" d="M226.57,-370.6C234.22,-403.38 263.92,-512.7 331,-569.08 333.22,-570.95 335.59,-572.67 338.07,-574.26"/>
<polygon fill="#63b8ff" stroke="#63b8ff" points="336.41,-577.34 346.84,-579.17 339.82,-571.23 336.41,-577.34"/>
</a>
</g>
</g>
<!-- Node6&#45;&gt;Node7 -->
<g id="edge11_Node000006_Node000007" class="edge">
<title>Node6&#45;&gt;Node7</title>
<g id="a_edge11_Node000006_Node000007"><a xlink:title=" ">
<path fill="none" stroke="#63b8ff" d="M227.51,-370.67C237.23,-399.98 270.7,-488.94 331,-532.08 332.92,-533.45 334.92,-534.72 337,-535.89"/>
<polygon fill="#63b8ff" stroke="#63b8ff" points="335.94,-539.27 346.46,-540.45 338.97,-532.96 335.94,-539.27"/>
</a>
</g>
</g>
<!-- Node6&#45;&gt;Node8 -->
<g id="edge13_Node000006_Node000008" class="edge">
<title>Node6&#45;&gt;Node8</title>
<g id="a_edge13_Node000006_Node000008"><a xlink:title=" ">
<path fill="none" stroke="#63b8ff" d="M229.41,-370.93C242.34,-395.8 279.88,-461.46 331,-494.08 334.32,-496.2 337.86,-498.08 341.53,-499.75"/>
<polygon fill="#63b8ff" stroke="#63b8ff" points="340.28,-503.02 350.86,-503.5 342.88,-496.53 340.28,-503.02"/>
</a>
</g>
</g>
<!-- Node6&#45;&gt;Node9 -->
<g id="edge15_Node000006_Node000009" class="edge">
<title>Node6&#45;&gt;Node9</title>
<g id="a_edge15_Node000006_Node000009"><a xlink:title=" ">
<path fill="none" stroke="#63b8ff" d="M233.89,-370.65C251.44,-388.03 291.07,-424.94 331,-446.08 334.47,-447.92 338.11,-449.64 341.83,-451.25"/>
<polygon fill="#63b8ff" stroke="#63b8ff" points="340.63,-454.54 351.21,-455.02 343.24,-448.05 340.63,-454.54"/>
</a>
</g>
</g>
<!-- Node6&#45;&gt;Node10 -->
<g id="edge17_Node000006_Node000010" class="edge">
<title>Node6&#45;&gt;Node10</title>
<g id="a_edge17_Node000006_Node000010"><a xlink:title=" ">
<path fill="none" stroke="#63b8ff" d="M251.11,-370.61C272.61,-378.23 303.66,-389.1 331,-398.08 336.88,-400.01 343.03,-401.99 349.18,-403.94"/>
<polygon fill="#63b8ff" stroke="#63b8ff" points="348.22,-407.3 358.81,-406.97 350.32,-400.63 348.22,-407.3"/>
</a>
</g>
</g>
<!-- Node6&#45;&gt;Node11 -->
<g id="edge19_Node000006_Node000011" class="edge">
<title>Node6&#45;&gt;Node11</title>
<g id="a_edge19_Node000006_Node000011"><a xlink:title=" ">
<path fill="none" stroke="#63b8ff" d="M295.11,-367.99C303.95,-368.85 313.06,-369.74 322.11,-370.63"/>
<polygon fill="#63b8ff" stroke="#63b8ff" points="321.97,-374.13 332.27,-371.62 322.65,-367.16 321.97,-374.13"/>
</a>
</g>
</g>
<!-- Node6&#45;&gt;Node12 -->
<g id="edge21_Node000006_Node000012" class="edge">
<title>Node6&#45;&gt;Node12</title>
<g id="a_edge21_Node000006_Node000012"><a xlink:title=" ">
<path fill="none" stroke="#63b8ff" d="M294.59,-351.56C305.32,-350.1 316.47,-348.58 327.41,-347.1"/>
<polygon fill="#63b8ff" stroke="#63b8ff" points="327.95,-350.56 337.39,-345.74 327.01,-343.62 327.95,-350.56"/>
</a>
</g>
</g>
<!-- Node6&#45;&gt;Node13 -->
<g id="edge23_Node000006_Node000013" class="edge">
<title>Node6&#45;&gt;Node13</title>
<g id="a_edge23_Node000006_Node000013"><a xlink:title=" ">
<path fill="none" stroke="#63b8ff" d="M243.42,-351.46C264.46,-340.97 299.64,-324.09 331,-312.08 336.1,-310.13 341.43,-308.22 346.8,-306.38"/>
<polygon fill="#63b8ff" stroke="#63b8ff" points="348.1,-309.63 356.49,-303.16 345.89,-302.99 348.1,-309.63"/>
</a>
</g>
</g>
<!-- Node6&#45;&gt;Node14 -->
<g id="edge25_Node000006_Node000014" class="edge">
<title>Node6&#45;&gt;Node14</title>
<g id="a_edge25_Node000006_Node000014"><a xlink:title=" ">
<path fill="none" stroke="#63b8ff" d="M232.18,-351.39C248.29,-331.74 287.74,-287.13 331,-264.08 335.28,-261.8 339.84,-259.78 344.53,-258.01"/>
<polygon fill="#63b8ff" stroke="#63b8ff" points="345.93,-261.23 354.27,-254.69 343.67,-254.6 345.93,-261.23"/>
</a>
</g>
</g>
<!-- Node6&#45;&gt;Node15 -->
<g id="edge27_Node000006_Node000015" class="edge">
<title>Node6&#45;&gt;Node15</title>
<g id="a_edge27_Node000006_Node000015"><a xlink:title=" ">
<path fill="none" stroke="#63b8ff" d="M229.2,-351.52C241.9,-326.75 279.46,-260.11 331,-227.08 334.32,-224.95 337.85,-223.07 341.52,-221.39"/>
<polygon fill="#63b8ff" stroke="#63b8ff" points="342.87,-224.62 350.85,-217.64 340.26,-218.12 342.87,-224.62"/>
</a>
</g>
</g>
<!-- Node6&#45;&gt;Node16 -->
<g id="edge29_Node000006_Node000016" class="edge">
<title>Node6&#45;&gt;Node16</title>
<g id="a_edge29_Node000006_Node000016"><a xlink:title=" ">
<path fill="none" stroke="#63b8ff" d="M227.54,-351.52C237.33,-322.31 270.96,-233.59 331,-190.08 333.83,-188.03 336.86,-186.19 340.02,-184.56"/>
<polygon fill="#63b8ff" stroke="#63b8ff" points="341.51,-187.72 349.21,-180.44 338.65,-181.33 341.51,-187.72"/>
</a>
</g>
</g>
<!-- Node6&#45;&gt;Node17 -->
<g id="edge31_Node000006_Node000017" class="edge">
<title>Node6&#45;&gt;Node17</title>
<g id="a_edge31_Node000006_Node000017"><a xlink:title=" ">
<path fill="none" stroke="#63b8ff" d="M226.45,-351.41C233.7,-318.14 262.26,-207.43 331,-153.08 333.29,-151.27 335.73,-149.62 338.28,-148.14"/>
<polygon fill="#63b8ff" stroke="#63b8ff" points="339.91,-151.23 347.31,-143.64 336.8,-144.97 339.91,-151.23"/>
</a>
</g>
</g>
<!-- Node6&#45;&gt;Node18 -->
<g id="edge33_Node000006_Node000018" class="edge">
<title>Node6&#45;&gt;Node18</title>
<g id="a_edge33_Node000006_Node000018"><a xlink:title=" ">
<path fill="none" stroke="#63b8ff" d="M225.63,-351.56C230.51,-314.91 253.17,-181.71 331,-116.08 334.07,-113.49 337.44,-111.24 341,-109.3"/>
<polygon fill="#63b8ff" stroke="#63b8ff" points="342.58,-112.42 350.18,-105.04 339.63,-106.07 342.58,-112.42"/>
</a>
</g>
</g>
<!-- Node6&#45;&gt;Node19 -->
<g id="edge35_Node000006_Node000019" class="edge">
<title>Node6&#45;&gt;Node19</title>
<g id="a_edge35_Node000006_Node000019"><a xlink:title=" ">
<path fill="none" stroke="#63b8ff" d="M225.04,-351.56C227.81,-311.61 244.04,-156.13 331,-79.08 334.63,-75.86 338.72,-73.17 343.08,-70.92"/>
<polygon fill="#63b8ff" stroke="#63b8ff" points="344.55,-74.09 352.32,-66.89 341.75,-67.67 344.55,-74.09"/>
</a>
</g>
</g>
<!-- Node6&#45;&gt;Node20 -->
<g id="edge37_Node000006_Node000020" class="edge">
<title>Node6&#45;&gt;Node20</title>
<g id="a_edge37_Node000006_Node000020"><a xlink:title=" ">
<path fill="none" stroke="#63b8ff" d="M224.69,-351.34C226.08,-308.23 237.5,-132.64 331,-41.08 333.92,-38.22 337.17,-35.71 340.64,-33.49"/>
<polygon fill="#63b8ff" stroke="#63b8ff" points="342.55,-36.43 349.65,-28.57 339.2,-30.29 342.55,-36.43"/>
</a>
</g>
</g>
<!-- Node7&#45;&gt;Node3 -->
<g id="edge12_Node000007_Node000003" class="edge">
<title>Node7&#45;&gt;Node3</title>
<g id="a_edge12_Node000007_Node000003"><a xlink:title=" ">
<path fill="none" stroke="#63b8ff" d="M474.09,-540.46C479.07,-538.2 483.79,-535.45 488,-532.08 543.35,-487.79 568.33,-403.11 577.73,-361.05"/>
<polygon fill="#63b8ff" stroke="#63b8ff" points="581.19,-361.6 579.83,-351.09 574.34,-360.15 581.19,-361.6"/>
</a>
</g>
</g>
<!-- Node8&#45;&gt;Node3 -->
<g id="edge14_Node000008_Node000003" class="edge">
<title>Node8&#45;&gt;Node3</title>
<g id="a_edge14_Node000008_Node000003"><a xlink:title=" ">
<path fill="none" stroke="#63b8ff" d="M470.65,-503.5C476.84,-501.04 482.76,-497.95 488,-494.08 534.1,-460.03 561.98,-396.17 574.55,-360.96"/>
<polygon fill="#63b8ff" stroke="#63b8ff" points="577.89,-362.02 577.83,-351.43 571.27,-359.75 577.89,-362.02"/>
</a>
</g>
</g>
<!-- Node9&#45;&gt;Node3 -->
<g id="edge16_Node000009_Node000003" class="edge">
<title>Node9&#45;&gt;Node3</title>
<g id="a_edge16_Node000009_Node000003"><a xlink:title=" ">
<path fill="none" stroke="#63b8ff" d="M471.26,-454.96C477.13,-452.42 482.82,-449.48 488,-446.08 522.5,-423.45 551.55,-384.71 568,-359.77"/>
<polygon fill="#63b8ff" stroke="#63b8ff" points="571,-361.56 573.47,-351.26 565.12,-357.77 571,-361.56"/>
</a>
</g>
</g>
<!-- Node10&#45;&gt;Node3 -->
<g id="edge18_Node000010_Node000003" class="edge">
<title>Node10&#45;&gt;Node3</title>
<g id="a_edge18_Node000010_Node000003"><a xlink:title=" ">
<path fill="none" stroke="#63b8ff" d="M465.85,-407.04C473.42,-404.37 480.99,-401.38 488,-398.08 511.79,-386.86 536.58,-370.39 554.8,-357.24"/>
<polygon fill="#63b8ff" stroke="#63b8ff" points="557.19,-359.83 563.18,-351.1 553.05,-354.19 557.19,-359.83"/>
</a>
</g>
</g>
<!-- Node11&#45;&gt;Node3 -->
<g id="edge20_Node000011_Node000003" class="edge">
<title>Node11&#45;&gt;Node3</title>
<g id="a_edge20_Node000011_Node000003"><a xlink:title=" ">
<path fill="none" stroke="#63b8ff" d="M449.54,-369.57C461.85,-366.56 475.5,-363.2 488,-360.08 496.41,-357.98 505.24,-355.76 513.98,-353.55"/>
<polygon fill="#63b8ff" stroke="#63b8ff" points="514.96,-356.92 523.79,-351.07 513.24,-350.13 514.96,-356.92"/>
</a>
</g>
</g>
<!-- Node12&#45;&gt;Node3 -->
<g id="edge22_Node000012_Node000003" class="edge">
<title>Node12&#45;&gt;Node3</title>
<g id="a_edge22_Node000012_Node000003"><a xlink:title=" ">
<path fill="none" stroke="#63b8ff" d="M481.95,-336.08C492.4,-336.08 503.15,-336.08 513.55,-336.08"/>
<polygon fill="#63b8ff" stroke="#63b8ff" points="513.81,-339.58 523.81,-336.08 513.81,-332.58 513.81,-339.58"/>
</a>
</g>
</g>
<!-- Node13&#45;&gt;Node3 -->
<g id="edge24_Node000013_Node000003" class="edge">
<title>Node13&#45;&gt;Node3</title>
<g id="a_edge24_Node000013_Node000003"><a xlink:title=" ">
<path fill="none" stroke="#63b8ff" d="M464.45,-303.14C481.74,-307.96 501.05,-313.35 518.96,-318.35"/>
<polygon fill="#63b8ff" stroke="#63b8ff" points="518.17,-321.76 528.74,-321.08 520.05,-315.02 518.17,-321.76"/>
</a>
</g>
</g>
<!-- Node14&#45;&gt;Node3 -->
<g id="edge26_Node000014_Node000003" class="edge">
<title>Node14&#45;&gt;Node3</title>
<g id="a_edge26_Node000014_Node000003"><a xlink:title=" ">
<path fill="none" stroke="#63b8ff" d="M462.39,-254.66C471.16,-257.16 480,-260.26 488,-264.08 514.63,-276.8 541.01,-297.8 559.11,-313.84"/>
<polygon fill="#63b8ff" stroke="#63b8ff" points="557.05,-316.7 566.81,-320.82 561.75,-311.51 557.05,-316.7"/>
</a>
</g>
</g>
<!-- Node15&#45;&gt;Node3 -->
<g id="edge28_Node000015_Node000003" class="edge">
<title>Node15&#45;&gt;Node3</title>
<g id="a_edge28_Node000015_Node000003"><a xlink:title=" ">
<path fill="none" stroke="#63b8ff" d="M467.19,-217.61C474.48,-220.08 481.62,-223.18 488,-227.08 523.02,-248.48 551.93,-287.15 568.2,-312.21"/>
<polygon fill="#63b8ff" stroke="#63b8ff" points="565.31,-314.18 573.61,-320.76 571.23,-310.44 565.31,-314.18"/>
</a>
</g>
</g>
<!-- Node16&#45;&gt;Node3 -->
<g id="edge30_Node000016_Node000003" class="edge">
<title>Node16&#45;&gt;Node3</title>
<g id="a_edge30_Node000016_Node000003"><a xlink:title=" ">
<path fill="none" stroke="#63b8ff" d="M469.72,-180.54C476.22,-183.02 482.47,-186.14 488,-190.08 531.48,-221.01 559.96,-278.81 573.43,-311.64"/>
<polygon fill="#63b8ff" stroke="#63b8ff" points="570.19,-312.97 577.13,-320.98 576.7,-310.39 570.19,-312.97"/>
</a>
</g>
</g>
<!-- Node17&#45;&gt;Node3 -->
<g id="edge32_Node000017_Node000003" class="edge">
<title>Node17&#45;&gt;Node3</title>
<g id="a_edge32_Node000017_Node000003"><a xlink:title=" ">
<path fill="none" stroke="#63b8ff" d="M471.68,-143.66C477.53,-146.13 483.1,-149.22 488,-153.08 539.97,-194.02 566.18,-271.38 576.72,-311.13"/>
<polygon fill="#63b8ff" stroke="#63b8ff" points="573.39,-312.22 579.23,-321.05 580.17,-310.5 573.39,-312.22"/>
</a>
</g>
</g>
<!-- Node18&#45;&gt;Node3 -->
<g id="edge34_Node000018_Node000003" class="edge">
<title>Node18&#45;&gt;Node3</title>
<g id="a_edge34_Node000018_Node000003"><a xlink:title=" ">
<path fill="none" stroke="#63b8ff" d="M468.84,-105.02C475.79,-107.74 482.4,-111.33 488,-116.08 548.64,-167.44 571.41,-264.78 579.06,-310.78"/>
<polygon fill="#63b8ff" stroke="#63b8ff" points="575.62,-311.46 580.61,-320.81 582.54,-310.39 575.62,-311.46"/>
</a>
</g>
</g>
<!-- Node19&#45;&gt;Node3 -->
<g id="edge36_Node000019_Node000003" class="edge">
<title>Node19&#45;&gt;Node3</title>
<g id="a_edge36_Node000019_Node000003"><a xlink:title=" ">
<path fill="none" stroke="#63b8ff" d="M466.72,-66.84C474.5,-69.69 481.91,-73.63 488,-79.08 557.51,-141.21 575.98,-258.97 580.82,-310.67"/>
<polygon fill="#63b8ff" stroke="#63b8ff" points="577.35,-311.26 581.68,-320.93 584.33,-310.67 577.35,-311.26"/>
</a>
</g>
</g>
<!-- Node20&#45;&gt;Node3 -->
<g id="edge38_Node000020_Node000003" class="edge">
<title>Node20&#45;&gt;Node3</title>
<g id="a_edge38_Node000020_Node000003"><a xlink:title=" ">
<path fill="none" stroke="#63b8ff" d="M469.02,-28.33C476.02,-31.57 482.6,-35.73 488,-41.08 564.48,-116.82 579.14,-254.46 581.89,-310.9"/>
<polygon fill="#63b8ff" stroke="#63b8ff" points="578.4,-311.22 582.3,-321.07 585.39,-310.94 578.4,-311.22"/>
</a>
</g>
</g>
</g>
</svg>
