<?xml version="1.0" encoding="UTF-8" standalone="no"?>
<!DOCTYPE svg PUBLIC "-//W3C//DTD SVG 1.1//EN"
 "http://www.w3.org/Graphics/SVG/1.1/DTD/svg11.dtd">
<!-- Generated by graphviz version 2.43.0 (0)
 -->
<!-- Title: lci::post_recv_x::call_impl Pages: 1 -->
<svg width="486pt" height="64pt"
 viewBox="0.00 0.00 486.00 64.00" xmlns="http://www.w3.org/2000/svg" xmlns:xlink="http://www.w3.org/1999/xlink">
<g id="graph0" class="graph" transform="scale(1 1) rotate(0) translate(4 60)">
<title>lci::post_recv_x::call_impl</title>
<!-- Node1 -->
<g id="Node000001" class="node">
<title>Node1</title>
<g id="a_Node000001"><a xlink:title=" ">
<polygon fill="#999999" stroke="#666666" points="478,-37 335,-37 335,-18 478,-18 478,-37"/>
<text text-anchor="middle" x="406.5" y="-25" font-family="Helvetica,sans-Serif" font-size="10.00">lci::post_recv_x::call_impl</text>
</a>
</g>
</g>
<!-- Node2 -->
<g id="Node000002" class="node">
<title>Node2</title>
<g id="a_Node000002"><a xlink:href="../../d7/df5/classlci_1_1post__recv__x.html#af9eb537b71e94ae42ec4f8737c16582c" target="_top" xlink:title=" ">
<polygon fill="white" stroke="#666666" points="299,-37 183,-37 183,-18 299,-18 299,-37"/>
<text text-anchor="middle" x="241" y="-25" font-family="Helvetica,sans-Serif" font-size="10.00">lci::post_recv_x::call</text>
</a>
</g>
</g>
<!-- Node1&#45;&gt;Node2 -->
<g id="edge1_Node000001_Node000002" class="edge">
<title>Node1&#45;&gt;Node2</title>
<g id="a_edge1_Node000001_Node000002"><a xlink:title=" ">
<path fill="none" stroke="#63b8ff" d="M324.64,-27.5C316.01,-27.5 307.36,-27.5 299.09,-27.5"/>
<polygon fill="#63b8ff" stroke="#63b8ff" points="324.74,-31 334.74,-27.5 324.74,-24 324.74,-31"/>
</a>
</g>
</g>
<!-- Node3 -->
<g id="Node000003" class="node">
<title>Node3</title>
<g id="a_Node000003"><a xlink:href="../../d7/df5/classlci_1_1post__recv__x.html#a4f418206d59336125683d444a5b3e1a8" target="_top" xlink:title=" ">
<polygon fill="white" stroke="#666666" points="147,-56 0,-56 0,-37 147,-37 147,-56"/>
<text text-anchor="middle" x="73.5" y="-44" font-family="Helvetica,sans-Serif" font-size="10.00">lci::post_recv_x::operator()</text>
</a>
</g>
</g>
<!-- Node2&#45;&gt;Node3 -->
<g id="edge2_Node000002_Node000003" class="edge">
<title>Node2&#45;&gt;Node3</title>
<g id="a_edge2_Node000002_Node000003"><a xlink:title=" ">
<path fill="none" stroke="#63b8ff" d="M172.55,-35.24C164.22,-36.2 155.67,-37.18 147.27,-38.15"/>
<polygon fill="#63b8ff" stroke="#63b8ff" points="173.05,-38.71 182.58,-34.09 172.25,-31.76 173.05,-38.71"/>
</a>
</g>
</g>
<!-- Node4 -->
<g id="Node000004" class="node">
<title>Node4</title>
<g id="a_Node000004"><a xlink:href="../../d5/dd3/namespacelci.html#af1956c62d0f6291162988088abe93e73" target="_top" xlink:title=" ">
<polygon fill="white" stroke="#666666" points="114,-19 33,-19 33,0 114,0 114,-19"/>
<text text-anchor="middle" x="73.5" y="-7" font-family="Helvetica,sans-Serif" font-size="10.00">lci::post_recv</text>
</a>
</g>
</g>
<!-- Node2&#45;&gt;Node4 -->
<g id="edge3_Node000002_Node000004" class="edge">
<title>Node2&#45;&gt;Node4</title>
<g id="a_edge3_Node000002_Node000004"><a xlink:title=" ">
<path fill="none" stroke="#63b8ff" d="M172.63,-20.17C152.75,-18.01 131.65,-15.72 114.12,-13.81"/>
<polygon fill="#63b8ff" stroke="#63b8ff" points="172.26,-23.65 182.58,-21.25 173.02,-16.69 172.26,-23.65"/>
</a>
</g>
</g>
</g>
</svg>
