<?xml version="1.0" encoding="UTF-8" standalone="no"?>
<!DOCTYPE svg PUBLIC "-//W3C//DTD SVG 1.1//EN"
 "http://www.w3.org/Graphics/SVG/1.1/DTD/svg11.dtd">
<!-- Generated by graphviz version 2.43.0 (0)
 -->
<!-- Title: lci::post_recv_x::operator() Pages: 1 -->
<svg width="834pt" height="702pt"
 viewBox="0.00 0.00 834.00 701.58" xmlns="http://www.w3.org/2000/svg" xmlns:xlink="http://www.w3.org/1999/xlink">
<g id="graph0" class="graph" transform="scale(1 1) rotate(0) translate(4 697.58)">
<title>lci::post_recv_x::operator()</title>
<!-- Node1 -->
<g id="Node000001" class="node">
<title>Node1</title>
<g id="a_Node000001"><a xlink:title=" ">
<polygon fill="#999999" stroke="#666666" points="147,-351.58 0,-351.58 0,-332.58 147,-332.58 147,-351.58"/>
<text text-anchor="middle" x="73.5" y="-339.58" font-family="Helvetica,sans-Serif" font-size="10.00">lci::post_recv_x::operator()</text>
</a>
</g>
</g>
<!-- Node2 -->
<g id="Node000002" class="node">
<title>Node2</title>
<g id="a_Node000002"><a xlink:href="../../d7/df5/classlci_1_1post__recv__x.html#af9eb537b71e94ae42ec4f8737c16582c" target="_top" xlink:title=" ">
<polygon fill="white" stroke="#666666" points="299,-351.58 183,-351.58 183,-332.58 299,-332.58 299,-351.58"/>
<text text-anchor="middle" x="241" y="-339.58" font-family="Helvetica,sans-Serif" font-size="10.00">lci::post_recv_x::call</text>
</a>
</g>
</g>
<!-- Node1&#45;&gt;Node2 -->
<g id="edge1_Node000001_Node000002" class="edge">
<title>Node1&#45;&gt;Node2</title>
<g id="a_edge1_Node000001_Node000002"><a xlink:title=" ">
<path fill="none" stroke="#63b8ff" d="M147.09,-342.08C155.61,-342.08 164.28,-342.08 172.72,-342.08"/>
<polygon fill="#63b8ff" stroke="#63b8ff" points="172.89,-345.58 182.89,-342.08 172.89,-338.58 172.89,-345.58"/>
</a>
</g>
</g>
<!-- Node3 -->
<g id="Node000003" class="node">
<title>Node3</title>
<g id="a_Node000003"><a xlink:href="../../d7/df5/classlci_1_1post__recv__x.html#a1947446eaad7deef7777f457dcf39ddb" target="_top" xlink:title=" ">
<polygon fill="white" stroke="#666666" points="669.5,-693.58 515.5,-693.58 515.5,-674.58 669.5,-674.58 669.5,-693.58"/>
<text text-anchor="middle" x="592.5" y="-681.58" font-family="Helvetica,sans-Serif" font-size="10.00">lci::post_recv_x::allow_done</text>
</a>
</g>
</g>
<!-- Node2&#45;&gt;Node3 -->
<g id="edge2_Node000002_Node000003" class="edge">
<title>Node2&#45;&gt;Node3</title>
<g id="a_edge2_Node000002_Node000003"><a xlink:title=" ">
<path fill="none" stroke="#63b8ff" d="M242.18,-351.82C243.48,-391.3 253.76,-540.88 335,-617.08 380.59,-659.84 449.99,-676.08 505.11,-681.92"/>
<polygon fill="#63b8ff" stroke="#63b8ff" points="504.94,-685.42 515.22,-682.89 505.61,-678.45 504.94,-685.42"/>
</a>
</g>
</g>
<!-- Node5 -->
<g id="Node000005" class="node">
<title>Node5</title>
<g id="a_Node000005"><a xlink:href="../../d7/df5/classlci_1_1post__recv__x.html#a03c71a900079f2a09bca2663ba2af4ab" target="_top" xlink:title=" ">
<polygon fill="white" stroke="#666666" points="655,-656.08 530,-656.08 530,-626.08 655,-626.08 655,-656.08"/>
<text text-anchor="start" x="538" y="-644.08" font-family="Helvetica,sans-Serif" font-size="10.00">lci::post_recv_x::allow</text>
<text text-anchor="middle" x="592.5" y="-633.08" font-family="Helvetica,sans-Serif" font-size="10.00">_posted</text>
</a>
</g>
</g>
<!-- Node2&#45;&gt;Node5 -->
<g id="edge4_Node000002_Node000005" class="edge">
<title>Node2&#45;&gt;Node5</title>
<g id="a_edge4_Node000002_Node000005"><a xlink:title=" ">
<path fill="none" stroke="#63b8ff" d="M242.87,-351.71C246.59,-387.04 264.37,-510.68 335,-573.08 385.87,-618.02 463.14,-633.75 519.58,-639.02"/>
<polygon fill="#63b8ff" stroke="#63b8ff" points="519.6,-642.53 529.86,-639.88 520.19,-635.55 519.6,-642.53"/>
</a>
</g>
</g>
<!-- Node6 -->
<g id="Node000006" class="node">
<title>Node6</title>
<g id="a_Node000006"><a xlink:href="../../d7/df5/classlci_1_1post__recv__x.html#a8ca868991d765fd27ad39a0f912d019c" target="_top" xlink:title=" ">
<polygon fill="white" stroke="#666666" points="655,-608.08 530,-608.08 530,-578.08 655,-578.08 655,-608.08"/>
<text text-anchor="start" x="538" y="-596.08" font-family="Helvetica,sans-Serif" font-size="10.00">lci::post_recv_x::allow</text>
<text text-anchor="middle" x="592.5" y="-585.08" font-family="Helvetica,sans-Serif" font-size="10.00">_retry</text>
</a>
</g>
</g>
<!-- Node2&#45;&gt;Node6 -->
<g id="edge6_Node000002_Node000006" class="edge">
<title>Node2&#45;&gt;Node6</title>
<g id="a_edge6_Node000002_Node000006"><a xlink:title=" ">
<path fill="none" stroke="#63b8ff" d="M243.73,-351.78C249.87,-383.2 273.62,-483 335,-532.08 387.42,-574 463.93,-587.91 519.75,-592.14"/>
<polygon fill="#63b8ff" stroke="#63b8ff" points="519.71,-595.65 529.92,-592.83 520.18,-588.66 519.71,-595.65"/>
</a>
</g>
</g>
<!-- Node7 -->
<g id="Node000007" class="node">
<title>Node7</title>
<g id="a_Node000007"><a xlink:href="../../d7/df5/classlci_1_1post__recv__x.html#a5f9da9b31cf385aa7f112d2da94946e5" target="_top" xlink:title=" ">
<polygon fill="white" stroke="#666666" points="478,-370.58 335,-370.58 335,-351.58 478,-351.58 478,-370.58"/>
<text text-anchor="middle" x="406.5" y="-358.58" font-family="Helvetica,sans-Serif" font-size="10.00">lci::post_recv_x::call_impl</text>
</a>
</g>
</g>
<!-- Node2&#45;&gt;Node7 -->
<g id="edge8_Node000002_Node000007" class="edge">
<title>Node2&#45;&gt;Node7</title>
<g id="a_edge8_Node000002_Node000007"><a xlink:title=" ">
<path fill="none" stroke="#63b8ff" d="M299.18,-348.72C307.46,-349.69 316.1,-350.69 324.73,-351.69"/>
<polygon fill="#63b8ff" stroke="#63b8ff" points="324.49,-355.19 334.83,-352.87 325.3,-348.24 324.49,-355.19"/>
</a>
</g>
</g>
<!-- Node8 -->
<g id="Node000008" class="node">
<title>Node8</title>
<g id="a_Node000008"><a xlink:href="../../d7/df5/classlci_1_1post__recv__x.html#a915e9ab9980e2703666515e412f9a921" target="_top" xlink:title=" ">
<polygon fill="white" stroke="#666666" points="658,-559.58 527,-559.58 527,-540.58 658,-540.58 658,-559.58"/>
<text text-anchor="middle" x="592.5" y="-547.58" font-family="Helvetica,sans-Serif" font-size="10.00">lci::post_recv_x::device</text>
</a>
</g>
</g>
<!-- Node2&#45;&gt;Node8 -->
<g id="edge40_Node000002_Node000008" class="edge">
<title>Node2&#45;&gt;Node8</title>
<g id="a_edge40_Node000002_Node000008"><a xlink:title=" ">
<path fill="none" stroke="#63b8ff" d="M244.95,-351.71C253.77,-378.73 282.58,-455.76 335,-493.08 388.18,-530.94 462.04,-544.28 516.86,-548.69"/>
<polygon fill="#63b8ff" stroke="#63b8ff" points="516.64,-552.18 526.86,-549.41 517.14,-545.2 516.64,-552.18"/>
</a>
</g>
</g>
<!-- Node9 -->
<g id="Node000009" class="node">
<title>Node9</title>
<g id="a_Node000009"><a xlink:href="../../d7/df5/classlci_1_1post__recv__x.html#a6f1dea52919f69662a2fb21c0f6b810d" target="_top" xlink:title=" ">
<polygon fill="white" stroke="#666666" points="663,-522.58 522,-522.58 522,-503.58 663,-503.58 663,-522.58"/>
<text text-anchor="middle" x="592.5" y="-510.58" font-family="Helvetica,sans-Serif" font-size="10.00">lci::post_recv_x::endpoint</text>
</a>
</g>
</g>
<!-- Node2&#45;&gt;Node9 -->
<g id="edge41_Node000002_Node000009" class="edge">
<title>Node2&#45;&gt;Node9</title>
<g id="a_edge41_Node000002_Node000009"><a xlink:title=" ">
<path fill="none" stroke="#63b8ff" d="M246.98,-351.87C258.89,-374.22 291.3,-429.13 335,-456.08 388.35,-488.98 458.32,-502.98 511.7,-508.9"/>
<polygon fill="#63b8ff" stroke="#63b8ff" points="511.5,-512.39 521.8,-509.94 512.22,-505.43 511.5,-512.39"/>
</a>
</g>
</g>
<!-- Node10 -->
<g id="Node000010" class="node">
<title>Node10</title>
<g id="a_Node000010"><a xlink:href="../../d7/df5/classlci_1_1post__recv__x.html#a6b6cc0329cb5b129186ecbceac97c5c9" target="_top" xlink:title=" ">
<polygon fill="white" stroke="#666666" points="654,-485.08 531,-485.08 531,-455.08 654,-455.08 654,-485.08"/>
<text text-anchor="start" x="539" y="-473.08" font-family="Helvetica,sans-Serif" font-size="10.00">lci::post_recv_x::force</text>
<text text-anchor="middle" x="592.5" y="-462.08" font-family="Helvetica,sans-Serif" font-size="10.00">_zcopy</text>
</a>
</g>
</g>
<!-- Node2&#45;&gt;Node10 -->
<g id="edge42_Node000002_Node000010" class="edge">
<title>Node2&#45;&gt;Node10</title>
<g id="a_edge42_Node000002_Node000010"><a xlink:title=" ">
<path fill="none" stroke="#63b8ff" d="M249.82,-351.66C264.52,-368.98 298.16,-405.33 335,-423.08 393.72,-451.36 467.52,-462.7 520.87,-467.21"/>
<polygon fill="#63b8ff" stroke="#63b8ff" points="520.67,-470.7 530.92,-467.99 521.22,-463.72 520.67,-470.7"/>
</a>
</g>
</g>
<!-- Node11 -->
<g id="Node000011" class="node">
<title>Node11</title>
<g id="a_Node000011"><a xlink:href="../../d7/df5/classlci_1_1post__recv__x.html#ae8557d3e45cb7ada864ff6d7ed0450dc" target="_top" xlink:title=" ">
<polygon fill="white" stroke="#666666" points="653.5,-437.08 531.5,-437.08 531.5,-407.08 653.5,-407.08 653.5,-437.08"/>
<text text-anchor="start" x="539.5" y="-425.08" font-family="Helvetica,sans-Serif" font-size="10.00">lci::post_recv_x::local</text>
<text text-anchor="middle" x="592.5" y="-414.08" font-family="Helvetica,sans-Serif" font-size="10.00">_buffer</text>
</a>
</g>
</g>
<!-- Node2&#45;&gt;Node11 -->
<g id="edge43_Node000002_Node000011" class="edge">
<title>Node2&#45;&gt;Node11</title>
<g id="a_edge43_Node000002_Node000011"><a xlink:title=" ">
<path fill="none" stroke="#63b8ff" d="M253.76,-351.59C270.62,-364.62 303.13,-387.6 335,-398.08 395.74,-418.05 468.64,-423.2 521.17,-423.86"/>
<polygon fill="#63b8ff" stroke="#63b8ff" points="521.37,-427.36 531.4,-423.93 521.42,-420.36 521.37,-427.36"/>
</a>
</g>
</g>
<!-- Node12 -->
<g id="Node000012" class="node">
<title>Node12</title>
<g id="a_Node000012"><a xlink:href="../../d7/df5/classlci_1_1post__recv__x.html#adbb1b53ef004aa0acec76303833a8b6c" target="_top" xlink:title=" ">
<polygon fill="white" stroke="#666666" points="669.5,-388.58 515.5,-388.58 515.5,-369.58 669.5,-369.58 669.5,-388.58"/>
<text text-anchor="middle" x="592.5" y="-376.58" font-family="Helvetica,sans-Serif" font-size="10.00">lci::post_recv_x::local_comp</text>
</a>
</g>
</g>
<!-- Node2&#45;&gt;Node12 -->
<g id="edge44_Node000002_Node000012" class="edge">
<title>Node2&#45;&gt;Node12</title>
<g id="a_edge44_Node000002_Node000012"><a xlink:title=" ">
<path fill="none" stroke="#63b8ff" d="M259.53,-351.66C277.77,-361.03 307.45,-374.67 335,-380.08 390.9,-391.06 454.99,-390.82 505.12,-387.82"/>
<polygon fill="#63b8ff" stroke="#63b8ff" points="505.52,-391.3 515.28,-387.17 505.07,-384.32 505.52,-391.3"/>
</a>
</g>
</g>
<!-- Node13 -->
<g id="Node000013" class="node">
<title>Node13</title>
<g id="a_Node000013"><a xlink:href="../../d7/df5/classlci_1_1post__recv__x.html#a76de3f961791a8c279f4a3cc08b1864f" target="_top" xlink:title=" ">
<polygon fill="white" stroke="#666666" points="664.5,-351.08 520.5,-351.08 520.5,-321.08 664.5,-321.08 664.5,-351.08"/>
<text text-anchor="start" x="528.5" y="-339.08" font-family="Helvetica,sans-Serif" font-size="10.00">lci::post_recv_x::matching</text>
<text text-anchor="middle" x="592.5" y="-328.08" font-family="Helvetica,sans-Serif" font-size="10.00">_engine</text>
</a>
</g>
</g>
<!-- Node2&#45;&gt;Node13 -->
<g id="edge45_Node000002_Node000013" class="edge">
<title>Node2&#45;&gt;Node13</title>
<g id="a_edge45_Node000002_Node000013"><a xlink:title=" ">
<path fill="none" stroke="#63b8ff" d="M299.32,-341.1C356.67,-340.11 445.44,-338.59 510.08,-337.48"/>
<polygon fill="#63b8ff" stroke="#63b8ff" points="510.3,-340.97 520.24,-337.3 510.18,-333.97 510.3,-340.97"/>
</a>
</g>
</g>
<!-- Node14 -->
<g id="Node000014" class="node">
<title>Node14</title>
<g id="a_Node000014"><a xlink:href="../../d7/df5/classlci_1_1post__recv__x.html#ae7d42f2f368c4515abf46e9490c117c1" target="_top" xlink:title=" ">
<polygon fill="white" stroke="#666666" points="664.5,-303.08 520.5,-303.08 520.5,-273.08 664.5,-273.08 664.5,-303.08"/>
<text text-anchor="start" x="528.5" y="-291.08" font-family="Helvetica,sans-Serif" font-size="10.00">lci::post_recv_x::matching</text>
<text text-anchor="middle" x="592.5" y="-280.08" font-family="Helvetica,sans-Serif" font-size="10.00">_policy</text>
</a>
</g>
</g>
<!-- Node2&#45;&gt;Node14 -->
<g id="edge46_Node000002_Node000014" class="edge">
<title>Node2&#45;&gt;Node14</title>
<g id="a_edge46_Node000002_Node000014"><a xlink:title=" ">
<path fill="none" stroke="#63b8ff" d="M299.32,-333.22C356.67,-324.36 445.44,-310.65 510.08,-300.66"/>
<polygon fill="#63b8ff" stroke="#63b8ff" points="510.89,-304.08 520.24,-299.09 509.82,-297.16 510.89,-304.08"/>
</a>
</g>
</g>
<!-- Node15 -->
<g id="Node000015" class="node">
<title>Node15</title>
<g id="a_Node000015"><a xlink:href="../../d7/df5/classlci_1_1post__recv__x.html#a81500b0a4a099640f205288897358c98" target="_top" xlink:title=" ">
<polygon fill="white" stroke="#666666" points="648.5,-254.58 536.5,-254.58 536.5,-235.58 648.5,-235.58 648.5,-254.58"/>
<text text-anchor="middle" x="592.5" y="-242.58" font-family="Helvetica,sans-Serif" font-size="10.00">lci::post_recv_x::mr</text>
</a>
</g>
</g>
<!-- Node2&#45;&gt;Node15 -->
<g id="edge47_Node000002_Node000015" class="edge">
<title>Node2&#45;&gt;Node15</title>
<g id="a_edge47_Node000002_Node000015"><a xlink:title=" ">
<path fill="none" stroke="#63b8ff" d="M261.94,-332.52C280.51,-323.9 309.15,-311.35 335,-303.08 399.13,-282.55 474.51,-266.43 526.89,-256.44"/>
<polygon fill="#63b8ff" stroke="#63b8ff" points="527.54,-259.88 536.72,-254.59 526.24,-253 527.54,-259.88"/>
</a>
</g>
</g>
<!-- Node16 -->
<g id="Node000016" class="node">
<title>Node16</title>
<g id="a_Node000016"><a xlink:href="../../d7/df5/classlci_1_1post__recv__x.html#a2d1ee93d55d1c99e24a1c09ac28bad37" target="_top" xlink:title=" ">
<polygon fill="white" stroke="#666666" points="671,-217.58 514,-217.58 514,-198.58 671,-198.58 671,-217.58"/>
<text text-anchor="middle" x="592.5" y="-205.58" font-family="Helvetica,sans-Serif" font-size="10.00">lci::post_recv_x::packet_pool</text>
</a>
</g>
</g>
<!-- Node2&#45;&gt;Node16 -->
<g id="edge48_Node000002_Node000016" class="edge">
<title>Node2&#45;&gt;Node16</title>
<g id="a_edge48_Node000002_Node000016"><a xlink:title=" ">
<path fill="none" stroke="#63b8ff" d="M250.4,-332.31C265.51,-315.4 299.08,-280.77 335,-263.08 387.76,-237.09 452.56,-223.33 503.83,-216.07"/>
<polygon fill="#63b8ff" stroke="#63b8ff" points="504.46,-219.51 513.9,-214.7 503.52,-212.58 504.46,-219.51"/>
</a>
</g>
</g>
<!-- Node17 -->
<g id="Node000017" class="node">
<title>Node17</title>
<g id="a_Node000017"><a xlink:href="../../d7/df5/classlci_1_1post__recv__x.html#ab3a3f91b24b7e39b7bcd45602faec4ee" target="_top" xlink:title=" ">
<polygon fill="white" stroke="#666666" points="652.5,-180.58 532.5,-180.58 532.5,-161.58 652.5,-161.58 652.5,-180.58"/>
<text text-anchor="middle" x="592.5" y="-168.58" font-family="Helvetica,sans-Serif" font-size="10.00">lci::post_recv_x::rank</text>
</a>
</g>
</g>
<!-- Node2&#45;&gt;Node17 -->
<g id="edge49_Node000002_Node000017" class="edge">
<title>Node2&#45;&gt;Node17</title>
<g id="a_edge49_Node000002_Node000017"><a xlink:title=" ">
<path fill="none" stroke="#63b8ff" d="M245.96,-332.56C256.48,-308.57 287.61,-245.42 335,-216.08 391.43,-181.15 467.48,-171.48 522.09,-169.59"/>
<polygon fill="#63b8ff" stroke="#63b8ff" points="522.47,-173.08 532.38,-169.32 522.29,-166.08 522.47,-173.08"/>
</a>
</g>
</g>
<!-- Node18 -->
<g id="Node000018" class="node">
<title>Node18</title>
<g id="a_Node000018"><a xlink:href="../../d7/df5/classlci_1_1post__recv__x.html#a377ff95b56068a680c9f92db75bd9f5d" target="_top" xlink:title=" ">
<polygon fill="white" stroke="#666666" points="661,-143.58 524,-143.58 524,-124.58 661,-124.58 661,-143.58"/>
<text text-anchor="middle" x="592.5" y="-131.58" font-family="Helvetica,sans-Serif" font-size="10.00">lci::post_recv_x::runtime</text>
</a>
</g>
</g>
<!-- Node2&#45;&gt;Node18 -->
<g id="edge50_Node000002_Node000018" class="edge">
<title>Node2&#45;&gt;Node18</title>
<g id="a_edge50_Node000002_Node000018"><a xlink:title=" ">
<path fill="none" stroke="#63b8ff" d="M244.03,-332.16C250.8,-301.89 275.61,-210.29 335,-169.08 386.86,-133.1 459.02,-126.06 513.6,-127.04"/>
<polygon fill="#63b8ff" stroke="#63b8ff" points="513.83,-130.55 523.92,-127.32 514.02,-123.55 513.83,-130.55"/>
</a>
</g>
</g>
<!-- Node19 -->
<g id="Node000019" class="node">
<title>Node19</title>
<g id="a_Node000019"><a xlink:href="../../d7/df5/classlci_1_1post__recv__x.html#a4a01e7ab7a4d3004dfd31e39ba7df6fc" target="_top" xlink:title=" ">
<polygon fill="white" stroke="#666666" points="651.5,-106.58 533.5,-106.58 533.5,-87.58 651.5,-87.58 651.5,-106.58"/>
<text text-anchor="middle" x="592.5" y="-94.58" font-family="Helvetica,sans-Serif" font-size="10.00">lci::post_recv_x::size</text>
</a>
</g>
</g>
<!-- Node2&#45;&gt;Node19 -->
<g id="edge51_Node000002_Node000019" class="edge">
<title>Node2&#45;&gt;Node19</title>
<g id="a_edge51_Node000002_Node000019"><a xlink:title=" ">
<path fill="none" stroke="#63b8ff" d="M242.75,-332.57C246.04,-297.75 262.51,-176.5 335,-123.08 389.78,-82.71 469.96,-81.12 526.06,-86.49"/>
<polygon fill="#63b8ff" stroke="#63b8ff" points="525.92,-89.99 536.24,-87.56 526.66,-83.03 525.92,-89.99"/>
</a>
</g>
</g>
<!-- Node20 -->
<g id="Node000020" class="node">
<title>Node20</title>
<g id="a_Node000020"><a xlink:href="../../d7/df5/classlci_1_1post__recv__x.html#a21534b481f5e6fe3e63fe8e86c255b57" target="_top" xlink:title=" ">
<polygon fill="white" stroke="#666666" points="649.5,-69.58 535.5,-69.58 535.5,-50.58 649.5,-50.58 649.5,-69.58"/>
<text text-anchor="middle" x="592.5" y="-57.58" font-family="Helvetica,sans-Serif" font-size="10.00">lci::post_recv_x::tag</text>
</a>
</g>
</g>
<!-- Node2&#45;&gt;Node20 -->
<g id="edge52_Node000002_Node000020" class="edge">
<title>Node2&#45;&gt;Node20</title>
<g id="a_edge52_Node000002_Node000020"><a xlink:title=" ">
<path fill="none" stroke="#63b8ff" d="M241.99,-332.36C242.54,-293.08 250.33,-144.95 335,-80.08 393.41,-35.33 482.87,-39.89 539.23,-48.83"/>
<polygon fill="#63b8ff" stroke="#63b8ff" points="538.91,-52.33 549.35,-50.54 540.07,-45.42 538.91,-52.33"/>
</a>
</g>
</g>
<!-- Node21 -->
<g id="Node000021" class="node">
<title>Node21</title>
<g id="a_Node000021"><a xlink:href="../../d7/df5/classlci_1_1post__recv__x.html#a63075f18228e79db948fef48bb02fad5" target="_top" xlink:title=" ">
<polygon fill="white" stroke="#666666" points="652,-32.08 533,-32.08 533,-2.08 652,-2.08 652,-32.08"/>
<text text-anchor="start" x="541" y="-20.08" font-family="Helvetica,sans-Serif" font-size="10.00">lci::post_recv_x::user</text>
<text text-anchor="middle" x="592.5" y="-9.08" font-family="Helvetica,sans-Serif" font-size="10.00">_context</text>
</a>
</g>
</g>
<!-- Node2&#45;&gt;Node21 -->
<g id="edge53_Node000002_Node000021" class="edge">
<title>Node2&#45;&gt;Node21</title>
<g id="a_edge53_Node000002_Node000021"><a xlink:title=" ">
<path fill="none" stroke="#63b8ff" d="M241.49,-332.4C239.82,-289.65 239.32,-116.34 335,-39.08 387.16,3.04 466.25,3.35 522.81,-3.61"/>
<polygon fill="#63b8ff" stroke="#63b8ff" points="522.37,-7.08 532.74,-4.93 523.29,-0.14 522.37,-7.08"/>
</a>
</g>
</g>
<!-- Node4 -->
<g id="Node000004" class="node">
<title>Node4</title>
<g id="a_Node000004"><a xlink:href="../../d7/df5/classlci_1_1post__recv__x.html#aa788ee0f7e0f4b77c72b3209bf554433" target="_top" xlink:title=" ">
<polygon fill="white" stroke="#666666" points="826,-351.08 707,-351.08 707,-321.08 826,-321.08 826,-351.08"/>
<text text-anchor="start" x="715" y="-339.08" font-family="Helvetica,sans-Serif" font-size="10.00">lci::post_recv_x::post</text>
<text text-anchor="middle" x="766.5" y="-328.08" font-family="Helvetica,sans-Serif" font-size="10.00">_recv_x</text>
</a>
</g>
</g>
<!-- Node3&#45;&gt;Node4 -->
<g id="edge3_Node000003_Node000004" class="edge">
<title>Node3&#45;&gt;Node4</title>
<g id="a_edge3_Node000003_Node000004"><a xlink:title=" ">
<path fill="none" stroke="#63b8ff" d="M657.38,-674.53C662.37,-672.02 667.01,-668.92 671,-665.08 758.11,-581.33 766.46,-423.05 766.21,-361.48"/>
<polygon fill="#63b8ff" stroke="#63b8ff" points="769.7,-361.11 766.08,-351.15 762.7,-361.19 769.7,-361.11"/>
</a>
</g>
</g>
<!-- Node5&#45;&gt;Node4 -->
<g id="edge5_Node000005_Node000004" class="edge">
<title>Node5&#45;&gt;Node4</title>
<g id="a_edge5_Node000005_Node000004"><a xlink:title=" ">
<path fill="none" stroke="#63b8ff" d="M655.03,-628.26C660.89,-625.28 666.36,-621.61 671,-617.08 744.05,-545.77 760.63,-416.29 764.39,-361.57"/>
<polygon fill="#63b8ff" stroke="#63b8ff" points="767.9,-361.57 765,-351.37 760.91,-361.15 767.9,-361.57"/>
</a>
</g>
</g>
<!-- Node6&#45;&gt;Node4 -->
<g id="edge7_Node000006_Node000004" class="edge">
<title>Node6&#45;&gt;Node4</title>
<g id="a_edge7_Node000006_Node000004"><a xlink:title=" ">
<path fill="none" stroke="#63b8ff" d="M655.14,-579.78C660.91,-576.89 666.33,-573.37 671,-569.08 733.04,-512.1 755.24,-408.63 762.42,-361.14"/>
<polygon fill="#63b8ff" stroke="#63b8ff" points="765.9,-361.5 763.83,-351.1 758.97,-360.52 765.9,-361.5"/>
</a>
</g>
</g>
<!-- Node7&#45;&gt;Node3 -->
<g id="edge9_Node000007_Node000003" class="edge">
<title>Node7&#45;&gt;Node3</title>
<g id="a_edge9_Node000007_Node000003"><a xlink:title=" ">
<path fill="none" stroke="#63b8ff" d="M407.75,-370.75C409.38,-412.79 421.67,-581.26 514,-665.08 515.71,-666.63 517.52,-668.06 519.42,-669.38"/>
<polygon fill="#63b8ff" stroke="#63b8ff" points="517.82,-672.49 528.23,-674.46 521.32,-666.43 517.82,-672.49"/>
</a>
</g>
</g>
<!-- Node7&#45;&gt;Node5 -->
<g id="edge10_Node000007_Node000005" class="edge">
<title>Node7&#45;&gt;Node5</title>
<g id="a_edge10_Node000007_Node000005"><a xlink:title=" ">
<path fill="none" stroke="#63b8ff" d="M408.58,-370.61C413.32,-407.97 435.68,-545.79 514,-617.08 516.2,-619.08 518.56,-620.91 521.04,-622.59"/>
<polygon fill="#63b8ff" stroke="#63b8ff" points="519.49,-625.74 529.9,-627.74 523.01,-619.69 519.49,-625.74"/>
</a>
</g>
</g>
<!-- Node7&#45;&gt;Node6 -->
<g id="edge11_Node000007_Node000006" class="edge">
<title>Node7&#45;&gt;Node6</title>
<g id="a_edge11_Node000007_Node000006"><a xlink:title=" ">
<path fill="none" stroke="#63b8ff" d="M409.57,-370.6C417.22,-403.38 446.92,-512.7 514,-569.08 516.22,-570.95 518.59,-572.67 521.07,-574.26"/>
<polygon fill="#63b8ff" stroke="#63b8ff" points="519.41,-577.34 529.84,-579.17 522.82,-571.23 519.41,-577.34"/>
</a>
</g>
</g>
<!-- Node7&#45;&gt;Node8 -->
<g id="edge12_Node000007_Node000008" class="edge">
<title>Node7&#45;&gt;Node8</title>
<g id="a_edge12_Node000007_Node000008"><a xlink:title=" ">
<path fill="none" stroke="#63b8ff" d="M410.51,-370.67C420.23,-399.98 453.7,-488.94 514,-532.08 515.92,-533.45 517.92,-534.72 520,-535.89"/>
<polygon fill="#63b8ff" stroke="#63b8ff" points="518.94,-539.27 529.46,-540.45 521.97,-532.96 518.94,-539.27"/>
</a>
</g>
</g>
<!-- Node7&#45;&gt;Node9 -->
<g id="edge14_Node000007_Node000009" class="edge">
<title>Node7&#45;&gt;Node9</title>
<g id="a_edge14_Node000007_Node000009"><a xlink:title=" ">
<path fill="none" stroke="#63b8ff" d="M412.41,-370.93C425.34,-395.8 462.88,-461.46 514,-494.08 517.32,-496.2 520.86,-498.08 524.53,-499.75"/>
<polygon fill="#63b8ff" stroke="#63b8ff" points="523.28,-503.02 533.86,-503.5 525.88,-496.53 523.28,-503.02"/>
</a>
</g>
</g>
<!-- Node7&#45;&gt;Node10 -->
<g id="edge16_Node000007_Node000010" class="edge">
<title>Node7&#45;&gt;Node10</title>
<g id="a_edge16_Node000007_Node000010"><a xlink:title=" ">
<path fill="none" stroke="#63b8ff" d="M416.89,-370.65C434.44,-388.03 474.07,-424.94 514,-446.08 517.47,-447.92 521.11,-449.64 524.83,-451.25"/>
<polygon fill="#63b8ff" stroke="#63b8ff" points="523.63,-454.54 534.21,-455.02 526.24,-448.05 523.63,-454.54"/>
</a>
</g>
</g>
<!-- Node7&#45;&gt;Node11 -->
<g id="edge18_Node000007_Node000011" class="edge">
<title>Node7&#45;&gt;Node11</title>
<g id="a_edge18_Node000007_Node000011"><a xlink:title=" ">
<path fill="none" stroke="#63b8ff" d="M434.11,-370.61C455.61,-378.23 486.66,-389.1 514,-398.08 519.88,-400.01 526.03,-401.99 532.18,-403.94"/>
<polygon fill="#63b8ff" stroke="#63b8ff" points="531.22,-407.3 541.81,-406.97 533.32,-400.63 531.22,-407.3"/>
</a>
</g>
</g>
<!-- Node7&#45;&gt;Node12 -->
<g id="edge20_Node000007_Node000012" class="edge">
<title>Node7&#45;&gt;Node12</title>
<g id="a_edge20_Node000007_Node000012"><a xlink:title=" ">
<path fill="none" stroke="#63b8ff" d="M478.11,-367.99C486.95,-368.85 496.06,-369.74 505.11,-370.63"/>
<polygon fill="#63b8ff" stroke="#63b8ff" points="504.97,-374.13 515.27,-371.62 505.65,-367.16 504.97,-374.13"/>
</a>
</g>
</g>
<!-- Node7&#45;&gt;Node13 -->
<g id="edge22_Node000007_Node000013" class="edge">
<title>Node7&#45;&gt;Node13</title>
<g id="a_edge22_Node000007_Node000013"><a xlink:title=" ">
<path fill="none" stroke="#63b8ff" d="M477.59,-351.56C488.32,-350.1 499.47,-348.58 510.41,-347.1"/>
<polygon fill="#63b8ff" stroke="#63b8ff" points="510.95,-350.56 520.39,-345.74 510.01,-343.62 510.95,-350.56"/>
</a>
</g>
</g>
<!-- Node7&#45;&gt;Node14 -->
<g id="edge24_Node000007_Node000014" class="edge">
<title>Node7&#45;&gt;Node14</title>
<g id="a_edge24_Node000007_Node000014"><a xlink:title=" ">
<path fill="none" stroke="#63b8ff" d="M426.42,-351.46C447.46,-340.97 482.64,-324.09 514,-312.08 519.1,-310.13 524.43,-308.22 529.8,-306.38"/>
<polygon fill="#63b8ff" stroke="#63b8ff" points="531.1,-309.63 539.49,-303.16 528.89,-302.99 531.1,-309.63"/>
</a>
</g>
</g>
<!-- Node7&#45;&gt;Node15 -->
<g id="edge26_Node000007_Node000015" class="edge">
<title>Node7&#45;&gt;Node15</title>
<g id="a_edge26_Node000007_Node000015"><a xlink:title=" ">
<path fill="none" stroke="#63b8ff" d="M415.18,-351.39C431.29,-331.74 470.74,-287.13 514,-264.08 518.28,-261.8 522.84,-259.78 527.53,-258.01"/>
<polygon fill="#63b8ff" stroke="#63b8ff" points="528.93,-261.23 537.27,-254.69 526.67,-254.6 528.93,-261.23"/>
</a>
</g>
</g>
<!-- Node7&#45;&gt;Node16 -->
<g id="edge28_Node000007_Node000016" class="edge">
<title>Node7&#45;&gt;Node16</title>
<g id="a_edge28_Node000007_Node000016"><a xlink:title=" ">
<path fill="none" stroke="#63b8ff" d="M412.2,-351.52C424.9,-326.75 462.46,-260.11 514,-227.08 517.32,-224.95 520.85,-223.07 524.52,-221.39"/>
<polygon fill="#63b8ff" stroke="#63b8ff" points="525.87,-224.62 533.85,-217.64 523.26,-218.12 525.87,-224.62"/>
</a>
</g>
</g>
<!-- Node7&#45;&gt;Node17 -->
<g id="edge30_Node000007_Node000017" class="edge">
<title>Node7&#45;&gt;Node17</title>
<g id="a_edge30_Node000007_Node000017"><a xlink:title=" ">
<path fill="none" stroke="#63b8ff" d="M410.54,-351.52C420.33,-322.31 453.96,-233.59 514,-190.08 516.83,-188.03 519.86,-186.19 523.02,-184.56"/>
<polygon fill="#63b8ff" stroke="#63b8ff" points="524.51,-187.72 532.21,-180.44 521.65,-181.33 524.51,-187.72"/>
</a>
</g>
</g>
<!-- Node7&#45;&gt;Node18 -->
<g id="edge32_Node000007_Node000018" class="edge">
<title>Node7&#45;&gt;Node18</title>
<g id="a_edge32_Node000007_Node000018"><a xlink:title=" ">
<path fill="none" stroke="#63b8ff" d="M409.45,-351.41C416.7,-318.14 445.26,-207.43 514,-153.08 516.29,-151.27 518.73,-149.62 521.28,-148.14"/>
<polygon fill="#63b8ff" stroke="#63b8ff" points="522.91,-151.23 530.31,-143.64 519.8,-144.97 522.91,-151.23"/>
</a>
</g>
</g>
<!-- Node7&#45;&gt;Node19 -->
<g id="edge34_Node000007_Node000019" class="edge">
<title>Node7&#45;&gt;Node19</title>
<g id="a_edge34_Node000007_Node000019"><a xlink:title=" ">
<path fill="none" stroke="#63b8ff" d="M408.63,-351.56C413.51,-314.91 436.17,-181.71 514,-116.08 517.07,-113.49 520.44,-111.24 524,-109.3"/>
<polygon fill="#63b8ff" stroke="#63b8ff" points="525.58,-112.42 533.18,-105.04 522.63,-106.07 525.58,-112.42"/>
</a>
</g>
</g>
<!-- Node7&#45;&gt;Node20 -->
<g id="edge36_Node000007_Node000020" class="edge">
<title>Node7&#45;&gt;Node20</title>
<g id="a_edge36_Node000007_Node000020"><a xlink:title=" ">
<path fill="none" stroke="#63b8ff" d="M408.04,-351.56C410.81,-311.61 427.04,-156.13 514,-79.08 517.63,-75.86 521.72,-73.17 526.08,-70.92"/>
<polygon fill="#63b8ff" stroke="#63b8ff" points="527.55,-74.09 535.32,-66.89 524.75,-67.67 527.55,-74.09"/>
</a>
</g>
</g>
<!-- Node7&#45;&gt;Node21 -->
<g id="edge38_Node000007_Node000021" class="edge">
<title>Node7&#45;&gt;Node21</title>
<g id="a_edge38_Node000007_Node000021"><a xlink:title=" ">
<path fill="none" stroke="#63b8ff" d="M407.69,-351.34C409.08,-308.23 420.5,-132.64 514,-41.08 516.92,-38.22 520.17,-35.71 523.64,-33.49"/>
<polygon fill="#63b8ff" stroke="#63b8ff" points="525.55,-36.43 532.65,-28.57 522.2,-30.29 525.55,-36.43"/>
</a>
</g>
</g>
<!-- Node8&#45;&gt;Node4 -->
<g id="edge13_Node000008_Node000004" class="edge">
<title>Node8&#45;&gt;Node4</title>
<g id="a_edge13_Node000008_Node000004"><a xlink:title=" ">
<path fill="none" stroke="#63b8ff" d="M657.09,-540.46C662.07,-538.2 666.79,-535.45 671,-532.08 726.35,-487.79 751.33,-403.11 760.73,-361.05"/>
<polygon fill="#63b8ff" stroke="#63b8ff" points="764.19,-361.6 762.83,-351.09 757.34,-360.15 764.19,-361.6"/>
</a>
</g>
</g>
<!-- Node9&#45;&gt;Node4 -->
<g id="edge15_Node000009_Node000004" class="edge">
<title>Node9&#45;&gt;Node4</title>
<g id="a_edge15_Node000009_Node000004"><a xlink:title=" ">
<path fill="none" stroke="#63b8ff" d="M653.65,-503.5C659.84,-501.04 665.76,-497.95 671,-494.08 717.1,-460.03 744.98,-396.17 757.55,-360.96"/>
<polygon fill="#63b8ff" stroke="#63b8ff" points="760.89,-362.02 760.83,-351.43 754.27,-359.75 760.89,-362.02"/>
</a>
</g>
</g>
<!-- Node10&#45;&gt;Node4 -->
<g id="edge17_Node000010_Node000004" class="edge">
<title>Node10&#45;&gt;Node4</title>
<g id="a_edge17_Node000010_Node000004"><a xlink:title=" ">
<path fill="none" stroke="#63b8ff" d="M654.26,-454.96C660.13,-452.42 665.82,-449.48 671,-446.08 705.5,-423.45 734.55,-384.71 751,-359.77"/>
<polygon fill="#63b8ff" stroke="#63b8ff" points="754,-361.56 756.47,-351.26 748.12,-357.77 754,-361.56"/>
</a>
</g>
</g>
<!-- Node11&#45;&gt;Node4 -->
<g id="edge19_Node000011_Node000004" class="edge">
<title>Node11&#45;&gt;Node4</title>
<g id="a_edge19_Node000011_Node000004"><a xlink:title=" ">
<path fill="none" stroke="#63b8ff" d="M648.85,-407.04C656.42,-404.37 663.99,-401.38 671,-398.08 694.79,-386.86 719.58,-370.39 737.8,-357.24"/>
<polygon fill="#63b8ff" stroke="#63b8ff" points="740.19,-359.83 746.18,-351.1 736.05,-354.19 740.19,-359.83"/>
</a>
</g>
</g>
<!-- Node12&#45;&gt;Node4 -->
<g id="edge21_Node000012_Node000004" class="edge">
<title>Node12&#45;&gt;Node4</title>
<g id="a_edge21_Node000012_Node000004"><a xlink:title=" ">
<path fill="none" stroke="#63b8ff" d="M632.54,-369.57C644.85,-366.56 658.5,-363.2 671,-360.08 679.41,-357.98 688.24,-355.76 696.98,-353.55"/>
<polygon fill="#63b8ff" stroke="#63b8ff" points="697.96,-356.92 706.79,-351.07 696.24,-350.13 697.96,-356.92"/>
</a>
</g>
</g>
<!-- Node13&#45;&gt;Node4 -->
<g id="edge23_Node000013_Node000004" class="edge">
<title>Node13&#45;&gt;Node4</title>
<g id="a_edge23_Node000013_Node000004"><a xlink:title=" ">
<path fill="none" stroke="#63b8ff" d="M664.95,-336.08C675.4,-336.08 686.15,-336.08 696.55,-336.08"/>
<polygon fill="#63b8ff" stroke="#63b8ff" points="696.81,-339.58 706.81,-336.08 696.81,-332.58 696.81,-339.58"/>
</a>
</g>
</g>
<!-- Node14&#45;&gt;Node4 -->
<g id="edge25_Node000014_Node000004" class="edge">
<title>Node14&#45;&gt;Node4</title>
<g id="a_edge25_Node000014_Node000004"><a xlink:title=" ">
<path fill="none" stroke="#63b8ff" d="M647.45,-303.14C664.74,-307.96 684.05,-313.35 701.96,-318.35"/>
<polygon fill="#63b8ff" stroke="#63b8ff" points="701.17,-321.76 711.74,-321.08 703.05,-315.02 701.17,-321.76"/>
</a>
</g>
</g>
<!-- Node15&#45;&gt;Node4 -->
<g id="edge27_Node000015_Node000004" class="edge">
<title>Node15&#45;&gt;Node4</title>
<g id="a_edge27_Node000015_Node000004"><a xlink:title=" ">
<path fill="none" stroke="#63b8ff" d="M645.39,-254.66C654.16,-257.16 663,-260.26 671,-264.08 697.63,-276.8 724.01,-297.8 742.11,-313.84"/>
<polygon fill="#63b8ff" stroke="#63b8ff" points="740.05,-316.7 749.81,-320.82 744.75,-311.51 740.05,-316.7"/>
</a>
</g>
</g>
<!-- Node16&#45;&gt;Node4 -->
<g id="edge29_Node000016_Node000004" class="edge">
<title>Node16&#45;&gt;Node4</title>
<g id="a_edge29_Node000016_Node000004"><a xlink:title=" ">
<path fill="none" stroke="#63b8ff" d="M650.19,-217.61C657.48,-220.08 664.62,-223.18 671,-227.08 706.02,-248.48 734.93,-287.15 751.2,-312.21"/>
<polygon fill="#63b8ff" stroke="#63b8ff" points="748.31,-314.18 756.61,-320.76 754.23,-310.44 748.31,-314.18"/>
</a>
</g>
</g>
<!-- Node17&#45;&gt;Node4 -->
<g id="edge31_Node000017_Node000004" class="edge">
<title>Node17&#45;&gt;Node4</title>
<g id="a_edge31_Node000017_Node000004"><a xlink:title=" ">
<path fill="none" stroke="#63b8ff" d="M652.72,-180.54C659.22,-183.02 665.47,-186.14 671,-190.08 714.48,-221.01 742.96,-278.81 756.43,-311.64"/>
<polygon fill="#63b8ff" stroke="#63b8ff" points="753.19,-312.97 760.13,-320.98 759.7,-310.39 753.19,-312.97"/>
</a>
</g>
</g>
<!-- Node18&#45;&gt;Node4 -->
<g id="edge33_Node000018_Node000004" class="edge">
<title>Node18&#45;&gt;Node4</title>
<g id="a_edge33_Node000018_Node000004"><a xlink:title=" ">
<path fill="none" stroke="#63b8ff" d="M654.68,-143.66C660.53,-146.13 666.1,-149.22 671,-153.08 722.97,-194.02 749.18,-271.38 759.72,-311.13"/>
<polygon fill="#63b8ff" stroke="#63b8ff" points="756.39,-312.22 762.23,-321.05 763.17,-310.5 756.39,-312.22"/>
</a>
</g>
</g>
<!-- Node19&#45;&gt;Node4 -->
<g id="edge35_Node000019_Node000004" class="edge">
<title>Node19&#45;&gt;Node4</title>
<g id="a_edge35_Node000019_Node000004"><a xlink:title=" ">
<path fill="none" stroke="#63b8ff" d="M651.84,-105.02C658.79,-107.74 665.4,-111.33 671,-116.08 731.64,-167.44 754.41,-264.78 762.06,-310.78"/>
<polygon fill="#63b8ff" stroke="#63b8ff" points="758.62,-311.46 763.61,-320.81 765.54,-310.39 758.62,-311.46"/>
</a>
</g>
</g>
<!-- Node20&#45;&gt;Node4 -->
<g id="edge37_Node000020_Node000004" class="edge">
<title>Node20&#45;&gt;Node4</title>
<g id="a_edge37_Node000020_Node000004"><a xlink:title=" ">
<path fill="none" stroke="#63b8ff" d="M649.72,-66.84C657.5,-69.69 664.91,-73.63 671,-79.08 740.51,-141.21 758.98,-258.97 763.82,-310.67"/>
<polygon fill="#63b8ff" stroke="#63b8ff" points="760.35,-311.26 764.68,-320.93 767.33,-310.67 760.35,-311.26"/>
</a>
</g>
</g>
<!-- Node21&#45;&gt;Node4 -->
<g id="edge39_Node000021_Node000004" class="edge">
<title>Node21&#45;&gt;Node4</title>
<g id="a_edge39_Node000021_Node000004"><a xlink:title=" ">
<path fill="none" stroke="#63b8ff" d="M652.02,-28.33C659.02,-31.57 665.6,-35.73 671,-41.08 747.48,-116.82 762.14,-254.46 764.89,-310.9"/>
<polygon fill="#63b8ff" stroke="#63b8ff" points="761.4,-311.22 765.3,-321.07 768.39,-310.94 761.4,-311.22"/>
</a>
</g>
</g>
</g>
</svg>
