<?xml version="1.0" encoding="UTF-8" standalone="no"?>
<!DOCTYPE svg PUBLIC "-//W3C//DTD SVG 1.1//EN"
 "http://www.w3.org/Graphics/SVG/1.1/DTD/svg11.dtd">
<!-- Generated by graphviz version 2.43.0 (0)
 -->
<!-- Title: lci::post_recv_x::call_impl Pages: 1 -->
<svg width="499pt" height="652pt"
 viewBox="0.00 0.00 499.00 651.50" xmlns="http://www.w3.org/2000/svg" xmlns:xlink="http://www.w3.org/1999/xlink">
<g id="graph0" class="graph" transform="scale(1 1) rotate(0) translate(4 647.5)">
<title>lci::post_recv_x::call_impl</title>
<!-- Node1 -->
<g id="Node000001" class="node">
<title>Node1</title>
<g id="a_Node000001"><a xlink:title=" ">
<polygon fill="#999999" stroke="#666666" points="143,-319.5 0,-319.5 0,-300.5 143,-300.5 143,-319.5"/>
<text text-anchor="middle" x="71.5" y="-307.5" font-family="Helvetica,sans-Serif" font-size="10.00">lci::post_recv_x::call_impl</text>
</a>
</g>
</g>
<!-- Node2 -->
<g id="Node000002" class="node">
<title>Node2</title>
<g id="a_Node000002"><a xlink:href="../../d7/df5/classlci_1_1post__recv__x.html#a1947446eaad7deef7777f457dcf39ddb" target="_top" xlink:title=" ">
<polygon fill="white" stroke="#666666" points="334.5,-643.5 180.5,-643.5 180.5,-624.5 334.5,-624.5 334.5,-643.5"/>
<text text-anchor="middle" x="257.5" y="-631.5" font-family="Helvetica,sans-Serif" font-size="10.00">lci::post_recv_x::allow_done</text>
</a>
</g>
</g>
<!-- Node1&#45;&gt;Node2 -->
<g id="edge1_Node000001_Node000002" class="edge">
<title>Node1&#45;&gt;Node2</title>
<g id="a_edge1_Node000001_Node000002"><a xlink:title=" ">
<path fill="none" stroke="#63b8ff" d="M72.74,-319.7C74.32,-361.88 86.44,-530.88 179,-615 180.71,-616.55 182.52,-617.98 184.42,-619.3"/>
<polygon fill="#63b8ff" stroke="#63b8ff" points="182.81,-622.41 193.22,-624.39 186.32,-616.35 182.81,-622.41"/>
</a>
</g>
</g>
<!-- Node4 -->
<g id="Node000004" class="node">
<title>Node4</title>
<g id="a_Node000004"><a xlink:href="../../d7/df5/classlci_1_1post__recv__x.html#a03c71a900079f2a09bca2663ba2af4ab" target="_top" xlink:title=" ">
<polygon fill="white" stroke="#666666" points="320,-606 195,-606 195,-576 320,-576 320,-606"/>
<text text-anchor="start" x="203" y="-594" font-family="Helvetica,sans-Serif" font-size="10.00">lci::post_recv_x::allow</text>
<text text-anchor="middle" x="257.5" y="-583" font-family="Helvetica,sans-Serif" font-size="10.00">_posted</text>
</a>
</g>
</g>
<!-- Node1&#45;&gt;Node4 -->
<g id="edge3_Node000001_Node000004" class="edge">
<title>Node1&#45;&gt;Node4</title>
<g id="a_edge3_Node000001_Node000004"><a xlink:title=" ">
<path fill="none" stroke="#63b8ff" d="M73.57,-319.57C78.26,-357.07 100.47,-495.42 179,-567 181.2,-569 183.56,-570.84 186.04,-572.52"/>
<polygon fill="#63b8ff" stroke="#63b8ff" points="184.49,-575.66 194.89,-577.67 188,-569.61 184.49,-575.66"/>
</a>
</g>
</g>
<!-- Node5 -->
<g id="Node000005" class="node">
<title>Node5</title>
<g id="a_Node000005"><a xlink:href="../../d7/df5/classlci_1_1post__recv__x.html#a8ca868991d765fd27ad39a0f912d019c" target="_top" xlink:title=" ">
<polygon fill="white" stroke="#666666" points="320,-558 195,-558 195,-528 320,-528 320,-558"/>
<text text-anchor="start" x="203" y="-546" font-family="Helvetica,sans-Serif" font-size="10.00">lci::post_recv_x::allow</text>
<text text-anchor="middle" x="257.5" y="-535" font-family="Helvetica,sans-Serif" font-size="10.00">_retry</text>
</a>
</g>
</g>
<!-- Node1&#45;&gt;Node5 -->
<g id="edge5_Node000001_Node000005" class="edge">
<title>Node1&#45;&gt;Node5</title>
<g id="a_edge5_Node000001_Node000005"><a xlink:title=" ">
<path fill="none" stroke="#63b8ff" d="M74.56,-319.56C82.16,-352.5 111.72,-462.34 179,-519 181.22,-520.87 183.59,-522.6 186.06,-524.19"/>
<polygon fill="#63b8ff" stroke="#63b8ff" points="184.4,-527.27 194.83,-529.1 187.82,-521.16 184.4,-527.27"/>
</a>
</g>
</g>
<!-- Node6 -->
<g id="Node000006" class="node">
<title>Node6</title>
<g id="a_Node000006"><a xlink:href="../../d7/df5/classlci_1_1post__recv__x.html#a915e9ab9980e2703666515e412f9a921" target="_top" xlink:title=" ">
<polygon fill="white" stroke="#666666" points="323,-509.5 192,-509.5 192,-490.5 323,-490.5 323,-509.5"/>
<text text-anchor="middle" x="257.5" y="-497.5" font-family="Helvetica,sans-Serif" font-size="10.00">lci::post_recv_x::device</text>
</a>
</g>
</g>
<!-- Node1&#45;&gt;Node6 -->
<g id="edge7_Node000001_Node000006" class="edge">
<title>Node1&#45;&gt;Node6</title>
<g id="a_edge7_Node000001_Node000006"><a xlink:title=" ">
<path fill="none" stroke="#63b8ff" d="M75.5,-319.65C85.17,-349.12 118.5,-438.6 179,-482 180.92,-483.37 182.92,-484.64 184.99,-485.82"/>
<polygon fill="#63b8ff" stroke="#63b8ff" points="183.93,-489.19 194.46,-490.38 186.97,-482.89 183.93,-489.19"/>
</a>
</g>
</g>
<!-- Node7 -->
<g id="Node000007" class="node">
<title>Node7</title>
<g id="a_Node000007"><a xlink:href="../../d7/df5/classlci_1_1post__recv__x.html#a6f1dea52919f69662a2fb21c0f6b810d" target="_top" xlink:title=" ">
<polygon fill="white" stroke="#666666" points="328,-472.5 187,-472.5 187,-453.5 328,-453.5 328,-472.5"/>
<text text-anchor="middle" x="257.5" y="-460.5" font-family="Helvetica,sans-Serif" font-size="10.00">lci::post_recv_x::endpoint</text>
</a>
</g>
</g>
<!-- Node1&#45;&gt;Node7 -->
<g id="edge9_Node000001_Node000007" class="edge">
<title>Node1&#45;&gt;Node7</title>
<g id="a_edge9_Node000001_Node000007"><a xlink:title=" ">
<path fill="none" stroke="#63b8ff" d="M77.2,-319.56C89.9,-344.33 127.46,-410.97 179,-444 182.32,-446.13 185.85,-448.01 189.52,-449.69"/>
<polygon fill="#63b8ff" stroke="#63b8ff" points="188.26,-452.96 198.85,-453.44 190.87,-446.46 188.26,-452.96"/>
</a>
</g>
</g>
<!-- Node8 -->
<g id="Node000008" class="node">
<title>Node8</title>
<g id="a_Node000008"><a xlink:href="../../d7/df5/classlci_1_1post__recv__x.html#ae8557d3e45cb7ada864ff6d7ed0450dc" target="_top" xlink:title=" ">
<polygon fill="white" stroke="#666666" points="318.5,-435 196.5,-435 196.5,-405 318.5,-405 318.5,-435"/>
<text text-anchor="start" x="204.5" y="-423" font-family="Helvetica,sans-Serif" font-size="10.00">lci::post_recv_x::local</text>
<text text-anchor="middle" x="257.5" y="-412" font-family="Helvetica,sans-Serif" font-size="10.00">_buffer</text>
</a>
</g>
</g>
<!-- Node1&#45;&gt;Node8 -->
<g id="edge11_Node000001_Node000008" class="edge">
<title>Node1&#45;&gt;Node8</title>
<g id="a_edge11_Node000001_Node000008"><a xlink:title=" ">
<path fill="none" stroke="#63b8ff" d="M81.86,-319.69C99.38,-337.28 138.95,-374.65 179,-396 182.47,-397.85 186.1,-399.58 189.82,-401.19"/>
<polygon fill="#63b8ff" stroke="#63b8ff" points="188.61,-404.48 199.2,-404.98 191.23,-397.99 188.61,-404.48"/>
</a>
</g>
</g>
<!-- Node9 -->
<g id="Node000009" class="node">
<title>Node9</title>
<g id="a_Node000009"><a xlink:href="../../d7/df5/classlci_1_1post__recv__x.html#adbb1b53ef004aa0acec76303833a8b6c" target="_top" xlink:title=" ">
<polygon fill="white" stroke="#666666" points="334.5,-386.5 180.5,-386.5 180.5,-367.5 334.5,-367.5 334.5,-386.5"/>
<text text-anchor="middle" x="257.5" y="-374.5" font-family="Helvetica,sans-Serif" font-size="10.00">lci::post_recv_x::local_comp</text>
</a>
</g>
</g>
<!-- Node1&#45;&gt;Node9 -->
<g id="edge13_Node000001_Node000009" class="edge">
<title>Node1&#45;&gt;Node9</title>
<g id="a_edge13_Node000001_Node000009"><a xlink:title=" ">
<path fill="none" stroke="#63b8ff" d="M90.93,-319.56C111.84,-330.1 147.17,-347.03 179,-358 186.28,-360.51 194.04,-362.82 201.74,-364.91"/>
<polygon fill="#63b8ff" stroke="#63b8ff" points="200.87,-368.3 211.42,-367.43 202.63,-361.52 200.87,-368.3"/>
</a>
</g>
</g>
<!-- Node10 -->
<g id="Node000010" class="node">
<title>Node10</title>
<g id="a_Node000010"><a xlink:href="../../d7/df5/classlci_1_1post__recv__x.html#a76de3f961791a8c279f4a3cc08b1864f" target="_top" xlink:title=" ">
<polygon fill="white" stroke="#666666" points="329.5,-349 185.5,-349 185.5,-319 329.5,-319 329.5,-349"/>
<text text-anchor="start" x="193.5" y="-337" font-family="Helvetica,sans-Serif" font-size="10.00">lci::post_recv_x::matching</text>
<text text-anchor="middle" x="257.5" y="-326" font-family="Helvetica,sans-Serif" font-size="10.00">_engine</text>
</a>
</g>
</g>
<!-- Node1&#45;&gt;Node10 -->
<g id="edge15_Node000001_Node000010" class="edge">
<title>Node1&#45;&gt;Node10</title>
<g id="a_edge15_Node000001_Node000010"><a xlink:title=" ">
<path fill="none" stroke="#63b8ff" d="M143.11,-319.21C153.63,-320.58 164.55,-322.01 175.27,-323.4"/>
<polygon fill="#63b8ff" stroke="#63b8ff" points="175.1,-326.91 185.47,-324.73 176,-319.97 175.1,-326.91"/>
</a>
</g>
</g>
<!-- Node11 -->
<g id="Node000011" class="node">
<title>Node11</title>
<g id="a_Node000011"><a xlink:href="../../d7/df5/classlci_1_1post__recv__x.html#ae7d42f2f368c4515abf46e9490c117c1" target="_top" xlink:title=" ">
<polygon fill="white" stroke="#666666" points="329.5,-301 185.5,-301 185.5,-271 329.5,-271 329.5,-301"/>
<text text-anchor="start" x="193.5" y="-289" font-family="Helvetica,sans-Serif" font-size="10.00">lci::post_recv_x::matching</text>
<text text-anchor="middle" x="257.5" y="-278" font-family="Helvetica,sans-Serif" font-size="10.00">_policy</text>
</a>
</g>
</g>
<!-- Node1&#45;&gt;Node11 -->
<g id="edge17_Node000001_Node000011" class="edge">
<title>Node1&#45;&gt;Node11</title>
<g id="a_edge17_Node000001_Node000011"><a xlink:title=" ">
<path fill="none" stroke="#63b8ff" d="M143.11,-300.79C153.63,-299.42 164.55,-297.99 175.27,-296.6"/>
<polygon fill="#63b8ff" stroke="#63b8ff" points="176,-300.03 185.47,-295.27 175.1,-293.09 176,-300.03"/>
</a>
</g>
</g>
<!-- Node12 -->
<g id="Node000012" class="node">
<title>Node12</title>
<g id="a_Node000012"><a xlink:href="../../d7/df5/classlci_1_1post__recv__x.html#a81500b0a4a099640f205288897358c98" target="_top" xlink:title=" ">
<polygon fill="white" stroke="#666666" points="313.5,-252.5 201.5,-252.5 201.5,-233.5 313.5,-233.5 313.5,-252.5"/>
<text text-anchor="middle" x="257.5" y="-240.5" font-family="Helvetica,sans-Serif" font-size="10.00">lci::post_recv_x::mr</text>
</a>
</g>
</g>
<!-- Node1&#45;&gt;Node12 -->
<g id="edge19_Node000001_Node000012" class="edge">
<title>Node1&#45;&gt;Node12</title>
<g id="a_edge19_Node000001_Node000012"><a xlink:title=" ">
<path fill="none" stroke="#63b8ff" d="M90.93,-300.44C111.84,-289.9 147.17,-272.97 179,-262 186.28,-259.49 194.04,-257.18 201.74,-255.09"/>
<polygon fill="#63b8ff" stroke="#63b8ff" points="202.63,-258.48 211.42,-252.57 200.87,-251.7 202.63,-258.48"/>
</a>
</g>
</g>
<!-- Node13 -->
<g id="Node000013" class="node">
<title>Node13</title>
<g id="a_Node000013"><a xlink:href="../../d7/df5/classlci_1_1post__recv__x.html#a2d1ee93d55d1c99e24a1c09ac28bad37" target="_top" xlink:title=" ">
<polygon fill="white" stroke="#666666" points="336,-215.5 179,-215.5 179,-196.5 336,-196.5 336,-215.5"/>
<text text-anchor="middle" x="257.5" y="-203.5" font-family="Helvetica,sans-Serif" font-size="10.00">lci::post_recv_x::packet_pool</text>
</a>
</g>
</g>
<!-- Node1&#45;&gt;Node13 -->
<g id="edge21_Node000001_Node000013" class="edge">
<title>Node1&#45;&gt;Node13</title>
<g id="a_edge21_Node000001_Node000013"><a xlink:title=" ">
<path fill="none" stroke="#63b8ff" d="M81.5,-300.48C98.71,-282.83 138.24,-245.04 179,-225 183.89,-222.59 189.12,-220.48 194.45,-218.62"/>
<polygon fill="#63b8ff" stroke="#63b8ff" points="195.65,-221.91 204.13,-215.55 193.53,-215.24 195.65,-221.91"/>
</a>
</g>
</g>
<!-- Node14 -->
<g id="Node000014" class="node">
<title>Node14</title>
<g id="a_Node000014"><a xlink:href="../../d7/df5/classlci_1_1post__recv__x.html#ab3a3f91b24b7e39b7bcd45602faec4ee" target="_top" xlink:title=" ">
<polygon fill="white" stroke="#666666" points="317.5,-178.5 197.5,-178.5 197.5,-159.5 317.5,-159.5 317.5,-178.5"/>
<text text-anchor="middle" x="257.5" y="-166.5" font-family="Helvetica,sans-Serif" font-size="10.00">lci::post_recv_x::rank</text>
</a>
</g>
</g>
<!-- Node1&#45;&gt;Node14 -->
<g id="edge23_Node000001_Node000014" class="edge">
<title>Node1&#45;&gt;Node14</title>
<g id="a_edge23_Node000001_Node000014"><a xlink:title=" ">
<path fill="none" stroke="#63b8ff" d="M78.04,-300.29C91.85,-277 130.25,-217.67 179,-188 182.59,-185.81 186.43,-183.88 190.39,-182.16"/>
<polygon fill="#63b8ff" stroke="#63b8ff" points="191.74,-185.4 199.83,-178.56 189.24,-178.86 191.74,-185.4"/>
</a>
</g>
</g>
<!-- Node15 -->
<g id="Node000015" class="node">
<title>Node15</title>
<g id="a_Node000015"><a xlink:href="../../d7/df5/classlci_1_1post__recv__x.html#a377ff95b56068a680c9f92db75bd9f5d" target="_top" xlink:title=" ">
<polygon fill="white" stroke="#666666" points="326,-141.5 189,-141.5 189,-122.5 326,-122.5 326,-141.5"/>
<text text-anchor="middle" x="257.5" y="-129.5" font-family="Helvetica,sans-Serif" font-size="10.00">lci::post_recv_x::runtime</text>
</a>
</g>
</g>
<!-- Node1&#45;&gt;Node15 -->
<g id="edge25_Node000001_Node000015" class="edge">
<title>Node1&#45;&gt;Node15</title>
<g id="a_edge25_Node000001_Node000015"><a xlink:title=" ">
<path fill="none" stroke="#63b8ff" d="M76.04,-300.32C86.79,-272.37 121.83,-191 179,-151 181.87,-148.99 184.92,-147.2 188.1,-145.59"/>
<polygon fill="#63b8ff" stroke="#63b8ff" points="189.59,-148.76 197.34,-141.54 186.78,-142.35 189.59,-148.76"/>
</a>
</g>
</g>
<!-- Node16 -->
<g id="Node000016" class="node">
<title>Node16</title>
<g id="a_Node000016"><a xlink:href="../../d7/df5/classlci_1_1post__recv__x.html#a4a01e7ab7a4d3004dfd31e39ba7df6fc" target="_top" xlink:title=" ">
<polygon fill="white" stroke="#666666" points="316.5,-104.5 198.5,-104.5 198.5,-85.5 316.5,-85.5 316.5,-104.5"/>
<text text-anchor="middle" x="257.5" y="-92.5" font-family="Helvetica,sans-Serif" font-size="10.00">lci::post_recv_x::size</text>
</a>
</g>
</g>
<!-- Node1&#45;&gt;Node16 -->
<g id="edge27_Node000001_Node000016" class="edge">
<title>Node1&#45;&gt;Node16</title>
<g id="a_edge27_Node000001_Node000016"><a xlink:title=" ">
<path fill="none" stroke="#63b8ff" d="M74.75,-300.44C82.76,-268.53 113.06,-164.83 179,-114 182.03,-111.66 185.31,-109.61 188.75,-107.81"/>
<polygon fill="#63b8ff" stroke="#63b8ff" points="190.47,-110.87 198.16,-103.59 187.61,-104.48 190.47,-110.87"/>
</a>
</g>
</g>
<!-- Node17 -->
<g id="Node000017" class="node">
<title>Node17</title>
<g id="a_Node000017"><a xlink:href="../../d7/df5/classlci_1_1post__recv__x.html#a21534b481f5e6fe3e63fe8e86c255b57" target="_top" xlink:title=" ">
<polygon fill="white" stroke="#666666" points="314.5,-67.5 200.5,-67.5 200.5,-48.5 314.5,-48.5 314.5,-67.5"/>
<text text-anchor="middle" x="257.5" y="-55.5" font-family="Helvetica,sans-Serif" font-size="10.00">lci::post_recv_x::tag</text>
</a>
</g>
</g>
<!-- Node1&#45;&gt;Node17 -->
<g id="edge29_Node000001_Node000017" class="edge">
<title>Node1&#45;&gt;Node17</title>
<g id="a_edge29_Node000001_Node000017"><a xlink:title=" ">
<path fill="none" stroke="#63b8ff" d="M73.91,-300.21C79.59,-264.31 104.3,-138.81 179,-77 182.58,-74.04 186.55,-71.53 190.75,-69.4"/>
<polygon fill="#63b8ff" stroke="#63b8ff" points="192.43,-72.48 200.24,-65.32 189.67,-66.05 192.43,-72.48"/>
</a>
</g>
</g>
<!-- Node18 -->
<g id="Node000018" class="node">
<title>Node18</title>
<g id="a_Node000018"><a xlink:href="../../d7/df5/classlci_1_1post__recv__x.html#a63075f18228e79db948fef48bb02fad5" target="_top" xlink:title=" ">
<polygon fill="white" stroke="#666666" points="317,-30 198,-30 198,0 317,0 317,-30"/>
<text text-anchor="start" x="206" y="-18" font-family="Helvetica,sans-Serif" font-size="10.00">lci::post_recv_x::user</text>
<text text-anchor="middle" x="257.5" y="-7" font-family="Helvetica,sans-Serif" font-size="10.00">_context</text>
</a>
</g>
</g>
<!-- Node1&#45;&gt;Node18 -->
<g id="edge31_Node000001_Node000018" class="edge">
<title>Node1&#45;&gt;Node18</title>
<g id="a_edge31_Node000001_Node000018"><a xlink:title=" ">
<path fill="none" stroke="#63b8ff" d="M73.4,-300.25C77.52,-261.39 97.97,-116.03 179,-40 181.99,-37.2 185.29,-34.71 188.81,-32.5"/>
<polygon fill="#63b8ff" stroke="#63b8ff" points="190.78,-35.41 197.9,-27.56 187.44,-29.26 190.78,-35.41"/>
</a>
</g>
</g>
<!-- Node3 -->
<g id="Node000003" class="node">
<title>Node3</title>
<g id="a_Node000003"><a xlink:href="../../d7/df5/classlci_1_1post__recv__x.html#aa788ee0f7e0f4b77c72b3209bf554433" target="_top" xlink:title=" ">
<polygon fill="white" stroke="#666666" points="491,-325 372,-325 372,-295 491,-295 491,-325"/>
<text text-anchor="start" x="380" y="-313" font-family="Helvetica,sans-Serif" font-size="10.00">lci::post_recv_x::post</text>
<text text-anchor="middle" x="431.5" y="-302" font-family="Helvetica,sans-Serif" font-size="10.00">_recv_x</text>
</a>
</g>
</g>
<!-- Node2&#45;&gt;Node3 -->
<g id="edge2_Node000002_Node000003" class="edge">
<title>Node2&#45;&gt;Node3</title>
<g id="a_edge2_Node000002_Node000003"><a xlink:title=" ">
<path fill="none" stroke="#63b8ff" d="M322.3,-624.36C327.3,-621.87 331.97,-618.8 336,-615 417.32,-538.42 429.17,-393.42 430.53,-335.16"/>
<polygon fill="#63b8ff" stroke="#63b8ff" points="434.03,-335.07 430.68,-325.02 427.03,-334.97 434.03,-335.07"/>
</a>
</g>
</g>
<!-- Node4&#45;&gt;Node3 -->
<g id="edge4_Node000004_Node000003" class="edge">
<title>Node4&#45;&gt;Node3</title>
<g id="a_edge4_Node000004_Node000003"><a xlink:title=" ">
<path fill="none" stroke="#63b8ff" d="M320.29,-577.86C326.03,-574.93 331.4,-571.36 336,-567 403.45,-502.97 423,-386.7 428.47,-335.44"/>
<polygon fill="#63b8ff" stroke="#63b8ff" points="431.97,-335.55 429.46,-325.25 425.01,-334.87 431.97,-335.55"/>
</a>
</g>
</g>
<!-- Node5&#45;&gt;Node3 -->
<g id="edge6_Node000005_Node000003" class="edge">
<title>Node5&#45;&gt;Node3</title>
<g id="a_edge6_Node000005_Node000003"><a xlink:title=" ">
<path fill="none" stroke="#63b8ff" d="M320.36,-529.32C326.02,-526.5 331.35,-523.1 336,-519 392.42,-469.19 417.04,-379.03 426.06,-335.23"/>
<polygon fill="#63b8ff" stroke="#63b8ff" points="429.55,-335.63 428.03,-325.15 422.68,-334.29 429.55,-335.63"/>
</a>
</g>
</g>
<!-- Node6&#45;&gt;Node3 -->
<g id="edge8_Node000006_Node000003" class="edge">
<title>Node6&#45;&gt;Node3</title>
<g id="a_edge8_Node000006_Node000003"><a xlink:title=" ">
<path fill="none" stroke="#63b8ff" d="M321.12,-490.47C326.43,-488.21 331.49,-485.42 336,-482 385.65,-444.39 412.58,-372.78 423.92,-334.91"/>
<polygon fill="#63b8ff" stroke="#63b8ff" points="427.32,-335.76 426.71,-325.18 420.59,-333.83 427.32,-335.76"/>
</a>
</g>
</g>
<!-- Node7&#45;&gt;Node3 -->
<g id="edge10_Node000007_Node000003" class="edge">
<title>Node7&#45;&gt;Node3</title>
<g id="a_edge10_Node000007_Node000003"><a xlink:title=" ">
<path fill="none" stroke="#63b8ff" d="M317.17,-453.47C323.83,-451.01 330.28,-447.9 336,-444 376.57,-416.33 405.37,-365.11 419.85,-334.64"/>
<polygon fill="#63b8ff" stroke="#63b8ff" points="423.2,-335.71 424.2,-325.16 416.84,-332.79 423.2,-335.71"/>
</a>
</g>
</g>
<!-- Node8&#45;&gt;Node3 -->
<g id="edge12_Node000008_Node000003" class="edge">
<title>Node8&#45;&gt;Node3</title>
<g id="a_edge12_Node000008_Node000003"><a xlink:title=" ">
<path fill="none" stroke="#63b8ff" d="M317.22,-404.86C323.74,-402.3 330.13,-399.36 336,-396 365.28,-379.26 393.12,-352.07 410.89,-332.74"/>
<polygon fill="#63b8ff" stroke="#63b8ff" points="413.55,-335.02 417.65,-325.25 408.35,-330.34 413.55,-335.02"/>
</a>
</g>
</g>
<!-- Node9&#45;&gt;Node3 -->
<g id="edge14_Node000009_Node000003" class="edge">
<title>Node9&#45;&gt;Node3</title>
<g id="a_edge14_Node000009_Node000003"><a xlink:title=" ">
<path fill="none" stroke="#63b8ff" d="M304.92,-367.46C315.29,-364.82 326.13,-361.66 336,-358 356.38,-350.44 378.07,-339.64 395.53,-330.19"/>
<polygon fill="#63b8ff" stroke="#63b8ff" points="397.68,-333 404.75,-325.12 394.3,-326.87 397.68,-333"/>
</a>
</g>
</g>
<!-- Node10&#45;&gt;Node3 -->
<g id="edge16_Node000010_Node000003" class="edge">
<title>Node10&#45;&gt;Node3</title>
<g id="a_edge16_Node000010_Node000003"><a xlink:title=" ">
<path fill="none" stroke="#63b8ff" d="M329.95,-324.03C340.51,-322.56 351.37,-321.04 361.88,-319.58"/>
<polygon fill="#63b8ff" stroke="#63b8ff" points="362.39,-323.04 371.81,-318.19 361.43,-316.1 362.39,-323.04"/>
</a>
</g>
</g>
<!-- Node11&#45;&gt;Node3 -->
<g id="edge18_Node000011_Node000003" class="edge">
<title>Node11&#45;&gt;Node3</title>
<g id="a_edge18_Node000011_Node000003"><a xlink:title=" ">
<path fill="none" stroke="#63b8ff" d="M329.95,-295.97C340.51,-297.44 351.37,-298.96 361.88,-300.42"/>
<polygon fill="#63b8ff" stroke="#63b8ff" points="361.43,-303.9 371.81,-301.81 362.39,-296.96 361.43,-303.9"/>
</a>
</g>
</g>
<!-- Node12&#45;&gt;Node3 -->
<g id="edge20_Node000012_Node000003" class="edge">
<title>Node12&#45;&gt;Node3</title>
<g id="a_edge20_Node000012_Node000003"><a xlink:title=" ">
<path fill="none" stroke="#63b8ff" d="M304.92,-252.54C315.29,-255.18 326.13,-258.34 336,-262 356.38,-269.56 378.07,-280.36 395.53,-289.81"/>
<polygon fill="#63b8ff" stroke="#63b8ff" points="394.3,-293.13 404.75,-294.88 397.68,-287 394.3,-293.13"/>
</a>
</g>
</g>
<!-- Node13&#45;&gt;Node3 -->
<g id="edge22_Node000013_Node000003" class="edge">
<title>Node13&#45;&gt;Node3</title>
<g id="a_edge22_Node000013_Node000003"><a xlink:title=" ">
<path fill="none" stroke="#63b8ff" d="M312.3,-215.52C320.49,-218.01 328.65,-221.11 336,-225 365.83,-240.78 393.75,-268.04 411.39,-287.43"/>
<polygon fill="#63b8ff" stroke="#63b8ff" points="408.81,-289.8 418.07,-294.95 414.04,-285.15 408.81,-289.8"/>
</a>
</g>
</g>
<!-- Node14&#45;&gt;Node3 -->
<g id="edge24_Node000014_Node000003" class="edge">
<title>Node14&#45;&gt;Node3</title>
<g id="a_edge24_Node000014_Node000003"><a xlink:title=" ">
<path fill="none" stroke="#63b8ff" d="M316.6,-178.63C323.44,-181.08 330.08,-184.15 336,-188 373.98,-212.67 403.01,-257.97 418.35,-285.88"/>
<polygon fill="#63b8ff" stroke="#63b8ff" points="415.4,-287.8 423.2,-294.97 421.58,-284.5 415.4,-287.8"/>
</a>
</g>
</g>
<!-- Node15&#45;&gt;Node3 -->
<g id="edge26_Node000015_Node000003" class="edge">
<title>Node15&#45;&gt;Node3</title>
<g id="a_edge26_Node000015_Node000003"><a xlink:title=" ">
<path fill="none" stroke="#63b8ff" d="M318.66,-141.57C324.84,-144.03 330.77,-147.12 336,-151 382.27,-185.27 410.08,-249.53 422.59,-284.96"/>
<polygon fill="#63b8ff" stroke="#63b8ff" points="419.32,-286.21 425.86,-294.56 425.95,-283.96 419.32,-286.21"/>
</a>
</g>
</g>
<!-- Node16&#45;&gt;Node3 -->
<g id="edge28_Node000016_Node000003" class="edge">
<title>Node16&#45;&gt;Node3</title>
<g id="a_edge28_Node000016_Node000003"><a xlink:title=" ">
<path fill="none" stroke="#63b8ff" d="M316.65,-103.17C323.63,-105.85 330.3,-109.38 336,-114 390.95,-158.52 416.07,-242.74 425.6,-284.79"/>
<polygon fill="#63b8ff" stroke="#63b8ff" points="422.22,-285.72 427.74,-294.76 429.06,-284.25 422.22,-285.72"/>
</a>
</g>
</g>
<!-- Node17&#45;&gt;Node3 -->
<g id="edge30_Node000017_Node000003" class="edge">
<title>Node17&#45;&gt;Node3</title>
<g id="a_edge30_Node000017_Node000003"><a xlink:title=" ">
<path fill="none" stroke="#63b8ff" d="M314.56,-64.94C322.37,-67.76 329.82,-71.65 336,-77 399.72,-132.1 421.07,-236.52 427.72,-284.6"/>
<polygon fill="#63b8ff" stroke="#63b8ff" points="424.28,-285.29 429.02,-294.76 431.23,-284.4 424.28,-285.29"/>
</a>
</g>
</g>
<!-- Node18&#45;&gt;Node3 -->
<g id="edge32_Node000018_Node000003" class="edge">
<title>Node18&#45;&gt;Node3</title>
<g id="a_edge32_Node000018_Node000003"><a xlink:title=" ">
<path fill="none" stroke="#63b8ff" d="M317.29,-27.36C324.17,-30.63 330.64,-34.77 336,-40 406.02,-108.32 424.24,-231.37 428.91,-284.46"/>
<polygon fill="#63b8ff" stroke="#63b8ff" points="425.44,-284.99 429.72,-294.69 432.42,-284.44 425.44,-284.99"/>
</a>
</g>
</g>
</g>
</svg>
