<?xml version="1.0" encoding="UTF-8" standalone="no"?>
<!DOCTYPE svg PUBLIC "-//W3C//DTD SVG 1.1//EN"
 "http://www.w3.org/Graphics/SVG/1.1/DTD/svg11.dtd">
<!-- Generated by graphviz version 2.43.0 (0)
 -->
<!-- Title: lci::post_recv_x::call Pages: 1 -->
<svg width="651pt" height="653pt"
 viewBox="0.00 0.00 651.00 652.57" xmlns="http://www.w3.org/2000/svg" xmlns:xlink="http://www.w3.org/1999/xlink">
<g id="graph0" class="graph" transform="scale(1 1) rotate(0) translate(4 648.57)">
<title>lci::post_recv_x::call</title>
<!-- Node1 -->
<g id="Node000001" class="node">
<title>Node1</title>
<g id="a_Node000001"><a xlink:title=" ">
<polygon fill="#999999" stroke="#666666" points="116,-329.57 0,-329.57 0,-310.57 116,-310.57 116,-329.57"/>
<text text-anchor="middle" x="58" y="-317.57" font-family="Helvetica,sans-Serif" font-size="10.00">lci::post_recv_x::call</text>
</a>
</g>
</g>
<!-- Node2 -->
<g id="Node000002" class="node">
<title>Node2</title>
<g id="a_Node000002"><a xlink:href="../../d7/df5/classlci_1_1post__recv__x.html#a1947446eaad7deef7777f457dcf39ddb" target="_top" xlink:title=" ">
<polygon fill="white" stroke="#666666" points="486.5,-644.57 332.5,-644.57 332.5,-625.57 486.5,-625.57 486.5,-644.57"/>
<text text-anchor="middle" x="409.5" y="-632.57" font-family="Helvetica,sans-Serif" font-size="10.00">lci::post_recv_x::allow_done</text>
</a>
</g>
</g>
<!-- Node1&#45;&gt;Node2 -->
<g id="edge1_Node000001_Node000002" class="edge">
<title>Node1&#45;&gt;Node2</title>
<g id="a_edge1_Node000001_Node000002"><a xlink:title=" ">
<path fill="none" stroke="#63b8ff" d="M59.64,-329.77C62.61,-366.53 78.22,-498.58 152,-566.07 198.13,-608.26 267.33,-625.11 322.23,-631.64"/>
<polygon fill="#63b8ff" stroke="#63b8ff" points="321.99,-635.13 332.31,-632.74 322.75,-628.17 321.99,-635.13"/>
</a>
</g>
</g>
<!-- Node4 -->
<g id="Node000004" class="node">
<title>Node4</title>
<g id="a_Node000004"><a xlink:href="../../d7/df5/classlci_1_1post__recv__x.html#a03c71a900079f2a09bca2663ba2af4ab" target="_top" xlink:title=" ">
<polygon fill="white" stroke="#666666" points="472,-607.07 347,-607.07 347,-577.07 472,-577.07 472,-607.07"/>
<text text-anchor="start" x="355" y="-595.07" font-family="Helvetica,sans-Serif" font-size="10.00">lci::post_recv_x::allow</text>
<text text-anchor="middle" x="409.5" y="-584.07" font-family="Helvetica,sans-Serif" font-size="10.00">_posted</text>
</a>
</g>
</g>
<!-- Node1&#45;&gt;Node4 -->
<g id="edge3_Node000001_Node000004" class="edge">
<title>Node1&#45;&gt;Node4</title>
<g id="a_edge3_Node000001_Node000004"><a xlink:title=" ">
<path fill="none" stroke="#63b8ff" d="M60.52,-329.82C66.12,-362.4 88.67,-468.41 152,-522.07 203.72,-565.89 280.52,-582.47 336.59,-588.64"/>
<polygon fill="#63b8ff" stroke="#63b8ff" points="336.51,-592.15 346.81,-589.67 337.22,-585.18 336.51,-592.15"/>
</a>
</g>
</g>
<!-- Node5 -->
<g id="Node000005" class="node">
<title>Node5</title>
<g id="a_Node000005"><a xlink:href="../../d7/df5/classlci_1_1post__recv__x.html#a8ca868991d765fd27ad39a0f912d019c" target="_top" xlink:title=" ">
<polygon fill="white" stroke="#666666" points="472,-559.07 347,-559.07 347,-529.07 472,-529.07 472,-559.07"/>
<text text-anchor="start" x="355" y="-547.07" font-family="Helvetica,sans-Serif" font-size="10.00">lci::post_recv_x::allow</text>
<text text-anchor="middle" x="409.5" y="-536.07" font-family="Helvetica,sans-Serif" font-size="10.00">_retry</text>
</a>
</g>
</g>
<!-- Node1&#45;&gt;Node5 -->
<g id="edge5_Node000001_Node000005" class="edge">
<title>Node1&#45;&gt;Node5</title>
<g id="a_edge5_Node000001_Node000005"><a xlink:title=" ">
<path fill="none" stroke="#63b8ff" d="M61.65,-329.92C69.84,-358.37 97.51,-441.21 152,-482.07 205.48,-522.17 281.33,-536.7 336.67,-541.78"/>
<polygon fill="#63b8ff" stroke="#63b8ff" points="336.5,-545.28 346.76,-542.62 337.08,-538.3 336.5,-545.28"/>
</a>
</g>
</g>
<!-- Node6 -->
<g id="Node000006" class="node">
<title>Node6</title>
<g id="a_Node000006"><a xlink:href="../../d7/df5/classlci_1_1post__recv__x.html#a445182eaa52d7dc386e0638cf6e699c2" target="_top" xlink:title=" ">
<polygon fill="white" stroke="#666666" points="295,-329.57 152,-329.57 152,-310.57 295,-310.57 295,-329.57"/>
<text text-anchor="middle" x="223.5" y="-317.57" font-family="Helvetica,sans-Serif" font-size="10.00">lci::post_recv_x::call_impl</text>
</a>
</g>
</g>
<!-- Node1&#45;&gt;Node6 -->
<g id="edge7_Node000001_Node000006" class="edge">
<title>Node1&#45;&gt;Node6</title>
<g id="a_edge7_Node000001_Node000006"><a xlink:title=" ">
<path fill="none" stroke="#63b8ff" d="M116.18,-320.07C124.46,-320.07 133.1,-320.07 141.73,-320.07"/>
<polygon fill="#63b8ff" stroke="#63b8ff" points="141.83,-323.57 151.83,-320.07 141.83,-316.57 141.83,-323.57"/>
</a>
</g>
</g>
<!-- Node7 -->
<g id="Node000007" class="node">
<title>Node7</title>
<g id="a_Node000007"><a xlink:href="../../d7/df5/classlci_1_1post__recv__x.html#a915e9ab9980e2703666515e412f9a921" target="_top" xlink:title=" ">
<polygon fill="white" stroke="#666666" points="475,-510.57 344,-510.57 344,-491.57 475,-491.57 475,-510.57"/>
<text text-anchor="middle" x="409.5" y="-498.57" font-family="Helvetica,sans-Serif" font-size="10.00">lci::post_recv_x::device</text>
</a>
</g>
</g>
<!-- Node1&#45;&gt;Node7 -->
<g id="edge37_Node000001_Node000007" class="edge">
<title>Node1&#45;&gt;Node7</title>
<g id="a_edge37_Node000001_Node000007"><a xlink:title=" ">
<path fill="none" stroke="#63b8ff" d="M63.24,-329.65C74.2,-353.23 105.87,-414.3 152,-444.07 206.47,-479.21 279.49,-492.9 333.69,-498.12"/>
<polygon fill="#63b8ff" stroke="#63b8ff" points="333.66,-501.64 343.93,-499.03 334.28,-494.66 333.66,-501.64"/>
</a>
</g>
</g>
<!-- Node8 -->
<g id="Node000008" class="node">
<title>Node8</title>
<g id="a_Node000008"><a xlink:href="../../d7/df5/classlci_1_1post__recv__x.html#a6f1dea52919f69662a2fb21c0f6b810d" target="_top" xlink:title=" ">
<polygon fill="white" stroke="#666666" points="480,-473.57 339,-473.57 339,-454.57 480,-454.57 480,-473.57"/>
<text text-anchor="middle" x="409.5" y="-461.57" font-family="Helvetica,sans-Serif" font-size="10.00">lci::post_recv_x::endpoint</text>
</a>
</g>
</g>
<!-- Node1&#45;&gt;Node8 -->
<g id="edge38_Node000001_Node000008" class="edge">
<title>Node1&#45;&gt;Node8</title>
<g id="a_edge38_Node000001_Node000008"><a xlink:title=" ">
<path fill="none" stroke="#63b8ff" d="M66.23,-329.79C80.47,-348.18 114.07,-388.01 152,-408.07 206.98,-437.14 276.23,-451.13 328.91,-457.85"/>
<polygon fill="#63b8ff" stroke="#63b8ff" points="328.53,-461.33 338.88,-459.07 329.38,-454.39 328.53,-461.33"/>
</a>
</g>
</g>
<!-- Node9 -->
<g id="Node000009" class="node">
<title>Node9</title>
<g id="a_Node000009"><a xlink:href="../../d7/df5/classlci_1_1post__recv__x.html#ae8557d3e45cb7ada864ff6d7ed0450dc" target="_top" xlink:title=" ">
<polygon fill="white" stroke="#666666" points="470.5,-436.07 348.5,-436.07 348.5,-406.07 470.5,-406.07 470.5,-436.07"/>
<text text-anchor="start" x="356.5" y="-424.07" font-family="Helvetica,sans-Serif" font-size="10.00">lci::post_recv_x::local</text>
<text text-anchor="middle" x="409.5" y="-413.07" font-family="Helvetica,sans-Serif" font-size="10.00">_buffer</text>
</a>
</g>
</g>
<!-- Node1&#45;&gt;Node9 -->
<g id="edge39_Node000001_Node000009" class="edge">
<title>Node1&#45;&gt;Node9</title>
<g id="a_edge39_Node000001_Node000009"><a xlink:title=" ">
<path fill="none" stroke="#63b8ff" d="M70.82,-329.6C87.74,-342.72 120.32,-366.07 152,-378.07 212.47,-400.96 285.55,-411.69 338.21,-416.71"/>
<polygon fill="#63b8ff" stroke="#63b8ff" points="338.19,-420.22 348.46,-417.64 338.82,-413.25 338.19,-420.22"/>
</a>
</g>
</g>
<!-- Node10 -->
<g id="Node000010" class="node">
<title>Node10</title>
<g id="a_Node000010"><a xlink:href="../../d7/df5/classlci_1_1post__recv__x.html#adbb1b53ef004aa0acec76303833a8b6c" target="_top" xlink:title=" ">
<polygon fill="white" stroke="#666666" points="486.5,-387.57 332.5,-387.57 332.5,-368.57 486.5,-368.57 486.5,-387.57"/>
<text text-anchor="middle" x="409.5" y="-375.57" font-family="Helvetica,sans-Serif" font-size="10.00">lci::post_recv_x::local_comp</text>
</a>
</g>
</g>
<!-- Node1&#45;&gt;Node10 -->
<g id="edge40_Node000001_Node000010" class="edge">
<title>Node1&#45;&gt;Node10</title>
<g id="a_edge40_Node000001_Node000010"><a xlink:title=" ">
<path fill="none" stroke="#63b8ff" d="M79.55,-329.65C98.08,-337.83 126.27,-349.18 152,-355.07 207.86,-367.83 272.09,-373.58 322.29,-376.14"/>
<polygon fill="#63b8ff" stroke="#63b8ff" points="322.31,-379.64 332.46,-376.62 322.64,-372.65 322.31,-379.64"/>
</a>
</g>
</g>
<!-- Node11 -->
<g id="Node000011" class="node">
<title>Node11</title>
<g id="a_Node000011"><a xlink:href="../../d7/df5/classlci_1_1post__recv__x.html#a76de3f961791a8c279f4a3cc08b1864f" target="_top" xlink:title=" ">
<polygon fill="white" stroke="#666666" points="481.5,-350.07 337.5,-350.07 337.5,-320.07 481.5,-320.07 481.5,-350.07"/>
<text text-anchor="start" x="345.5" y="-338.07" font-family="Helvetica,sans-Serif" font-size="10.00">lci::post_recv_x::matching</text>
<text text-anchor="middle" x="409.5" y="-327.07" font-family="Helvetica,sans-Serif" font-size="10.00">_engine</text>
</a>
</g>
</g>
<!-- Node1&#45;&gt;Node11 -->
<g id="edge41_Node000001_Node000011" class="edge">
<title>Node1&#45;&gt;Node11</title>
<g id="a_edge41_Node000001_Node000011"><a xlink:title=" ">
<path fill="none" stroke="#63b8ff" d="M96.74,-329.58C113.54,-333.34 133.64,-337.21 152,-339.07 210.35,-344.96 276.53,-343.74 327.06,-341.15"/>
<polygon fill="#63b8ff" stroke="#63b8ff" points="327.47,-344.64 337.27,-340.6 327.1,-337.65 327.47,-344.64"/>
</a>
</g>
</g>
<!-- Node12 -->
<g id="Node000012" class="node">
<title>Node12</title>
<g id="a_Node000012"><a xlink:href="../../d7/df5/classlci_1_1post__recv__x.html#ae7d42f2f368c4515abf46e9490c117c1" target="_top" xlink:title=" ">
<polygon fill="white" stroke="#666666" points="481.5,-302.07 337.5,-302.07 337.5,-272.07 481.5,-272.07 481.5,-302.07"/>
<text text-anchor="start" x="345.5" y="-290.07" font-family="Helvetica,sans-Serif" font-size="10.00">lci::post_recv_x::matching</text>
<text text-anchor="middle" x="409.5" y="-279.07" font-family="Helvetica,sans-Serif" font-size="10.00">_policy</text>
</a>
</g>
</g>
<!-- Node1&#45;&gt;Node12 -->
<g id="edge42_Node000001_Node000012" class="edge">
<title>Node1&#45;&gt;Node12</title>
<g id="a_edge42_Node000001_Node000012"><a xlink:title=" ">
<path fill="none" stroke="#63b8ff" d="M101.87,-310.53C117.57,-307.37 135.52,-304.13 152,-302.07 210.28,-294.75 276.47,-291 327.01,-289.07"/>
<polygon fill="#63b8ff" stroke="#63b8ff" points="327.36,-292.56 337.23,-288.7 327.11,-285.56 327.36,-292.56"/>
</a>
</g>
</g>
<!-- Node13 -->
<g id="Node000013" class="node">
<title>Node13</title>
<g id="a_Node000013"><a xlink:href="../../d7/df5/classlci_1_1post__recv__x.html#a81500b0a4a099640f205288897358c98" target="_top" xlink:title=" ">
<polygon fill="white" stroke="#666666" points="465.5,-253.57 353.5,-253.57 353.5,-234.57 465.5,-234.57 465.5,-253.57"/>
<text text-anchor="middle" x="409.5" y="-241.57" font-family="Helvetica,sans-Serif" font-size="10.00">lci::post_recv_x::mr</text>
</a>
</g>
</g>
<!-- Node1&#45;&gt;Node13 -->
<g id="edge43_Node000001_Node000013" class="edge">
<title>Node1&#45;&gt;Node13</title>
<g id="a_edge43_Node000001_Node000013"><a xlink:title=" ">
<path fill="none" stroke="#63b8ff" d="M81.55,-310.46C100.15,-302.87 127.39,-292.52 152,-286.07 216.04,-269.28 290.93,-257.94 343.19,-251.31"/>
<polygon fill="#63b8ff" stroke="#63b8ff" points="343.84,-254.76 353.33,-250.05 342.98,-247.81 343.84,-254.76"/>
</a>
</g>
</g>
<!-- Node14 -->
<g id="Node000014" class="node">
<title>Node14</title>
<g id="a_Node000014"><a xlink:href="../../d7/df5/classlci_1_1post__recv__x.html#a2d1ee93d55d1c99e24a1c09ac28bad37" target="_top" xlink:title=" ">
<polygon fill="white" stroke="#666666" points="488,-216.57 331,-216.57 331,-197.57 488,-197.57 488,-216.57"/>
<text text-anchor="middle" x="409.5" y="-204.57" font-family="Helvetica,sans-Serif" font-size="10.00">lci::post_recv_x::packet_pool</text>
</a>
</g>
</g>
<!-- Node1&#45;&gt;Node14 -->
<g id="edge44_Node000001_Node000014" class="edge">
<title>Node1&#45;&gt;Node14</title>
<g id="a_edge44_Node000001_Node000014"><a xlink:title=" ">
<path fill="none" stroke="#63b8ff" d="M69.23,-310.46C85.44,-295.82 118.62,-268.15 152,-254.07 205.57,-231.46 269.96,-219.71 320.81,-213.61"/>
<polygon fill="#63b8ff" stroke="#63b8ff" points="321.26,-217.08 330.8,-212.46 320.46,-210.13 321.26,-217.08"/>
</a>
</g>
</g>
<!-- Node15 -->
<g id="Node000015" class="node">
<title>Node15</title>
<g id="a_Node000015"><a xlink:href="../../d7/df5/classlci_1_1post__recv__x.html#ab3a3f91b24b7e39b7bcd45602faec4ee" target="_top" xlink:title=" ">
<polygon fill="white" stroke="#666666" points="469.5,-179.57 349.5,-179.57 349.5,-160.57 469.5,-160.57 469.5,-179.57"/>
<text text-anchor="middle" x="409.5" y="-167.57" font-family="Helvetica,sans-Serif" font-size="10.00">lci::post_recv_x::rank</text>
</a>
</g>
</g>
<!-- Node1&#45;&gt;Node15 -->
<g id="edge45_Node000001_Node000015" class="edge">
<title>Node1&#45;&gt;Node15</title>
<g id="a_edge45_Node000001_Node000015"><a xlink:title=" ">
<path fill="none" stroke="#63b8ff" d="M64.21,-310.3C76.35,-288.57 108.84,-236.27 152,-212.07 209.5,-179.82 284.9,-170.7 339.05,-168.81"/>
<polygon fill="#63b8ff" stroke="#63b8ff" points="339.34,-172.31 349.24,-168.53 339.15,-165.31 339.34,-172.31"/>
</a>
</g>
</g>
<!-- Node16 -->
<g id="Node000016" class="node">
<title>Node16</title>
<g id="a_Node000016"><a xlink:href="../../d7/df5/classlci_1_1post__recv__x.html#a377ff95b56068a680c9f92db75bd9f5d" target="_top" xlink:title=" ">
<polygon fill="white" stroke="#666666" points="478,-142.57 341,-142.57 341,-123.57 478,-123.57 478,-142.57"/>
<text text-anchor="middle" x="409.5" y="-130.57" font-family="Helvetica,sans-Serif" font-size="10.00">lci::post_recv_x::runtime</text>
</a>
</g>
</g>
<!-- Node1&#45;&gt;Node16 -->
<g id="edge46_Node000001_Node000016" class="edge">
<title>Node1&#45;&gt;Node16</title>
<g id="a_edge46_Node000001_Node000016"><a xlink:title=" ">
<path fill="none" stroke="#63b8ff" d="M61.66,-310.55C69.87,-283.12 97.61,-203.6 152,-168.07 204.67,-133.66 276.43,-126.41 330.65,-126.91"/>
<polygon fill="#63b8ff" stroke="#63b8ff" points="330.85,-130.42 340.91,-127.1 330.98,-123.42 330.85,-130.42"/>
</a>
</g>
</g>
<!-- Node17 -->
<g id="Node000017" class="node">
<title>Node17</title>
<g id="a_Node000017"><a xlink:href="../../d7/df5/classlci_1_1post__recv__x.html#a4a01e7ab7a4d3004dfd31e39ba7df6fc" target="_top" xlink:title=" ">
<polygon fill="white" stroke="#666666" points="468.5,-105.57 350.5,-105.57 350.5,-86.57 468.5,-86.57 468.5,-105.57"/>
<text text-anchor="middle" x="409.5" y="-93.57" font-family="Helvetica,sans-Serif" font-size="10.00">lci::post_recv_x::size</text>
</a>
</g>
</g>
<!-- Node1&#45;&gt;Node17 -->
<g id="edge47_Node000001_Node000017" class="edge">
<title>Node1&#45;&gt;Node17</title>
<g id="a_edge47_Node000001_Node000017"><a xlink:title=" ">
<path fill="none" stroke="#63b8ff" d="M60.29,-310.15C65.16,-277.09 85.69,-170.13 152,-123.07 206.48,-84.39 284.59,-81.63 340.28,-86.05"/>
<polygon fill="#63b8ff" stroke="#63b8ff" points="340.13,-89.55 350.41,-86.95 340.76,-82.58 340.13,-89.55"/>
</a>
</g>
</g>
<!-- Node18 -->
<g id="Node000018" class="node">
<title>Node18</title>
<g id="a_Node000018"><a xlink:href="../../d7/df5/classlci_1_1post__recv__x.html#a21534b481f5e6fe3e63fe8e86c255b57" target="_top" xlink:title=" ">
<polygon fill="white" stroke="#666666" points="466.5,-68.57 352.5,-68.57 352.5,-49.57 466.5,-49.57 466.5,-68.57"/>
<text text-anchor="middle" x="409.5" y="-56.57" font-family="Helvetica,sans-Serif" font-size="10.00">lci::post_recv_x::tag</text>
</a>
</g>
</g>
<!-- Node1&#45;&gt;Node18 -->
<g id="edge48_Node000001_Node000018" class="edge">
<title>Node1&#45;&gt;Node18</title>
<g id="a_edge48_Node000001_Node000018"><a xlink:title=" ">
<path fill="none" stroke="#63b8ff" d="M59.34,-310.4C61.22,-273.24 73.41,-138.75 152,-80.07 209.97,-36.78 297.22,-39.85 353.52,-47.95"/>
<polygon fill="#63b8ff" stroke="#63b8ff" points="353.25,-51.45 363.66,-49.51 354.31,-44.53 353.25,-51.45"/>
</a>
</g>
</g>
<!-- Node19 -->
<g id="Node000019" class="node">
<title>Node19</title>
<g id="a_Node000019"><a xlink:href="../../d7/df5/classlci_1_1post__recv__x.html#a63075f18228e79db948fef48bb02fad5" target="_top" xlink:title=" ">
<polygon fill="white" stroke="#666666" points="469,-31.07 350,-31.07 350,-1.07 469,-1.07 469,-31.07"/>
<text text-anchor="start" x="358" y="-19.07" font-family="Helvetica,sans-Serif" font-size="10.00">lci::post_recv_x::user</text>
<text text-anchor="middle" x="409.5" y="-8.07" font-family="Helvetica,sans-Serif" font-size="10.00">_context</text>
</a>
</g>
</g>
<!-- Node1&#45;&gt;Node19 -->
<g id="edge49_Node000001_Node000019" class="edge">
<title>Node1&#45;&gt;Node19</title>
<g id="a_edge49_Node000001_Node000019"><a xlink:title=" ">
<path fill="none" stroke="#63b8ff" d="M58.76,-310.54C58.3,-269.92 62.4,-110.09 152,-39.07 204.44,2.51 283.25,3.33 339.66,-3.16"/>
<polygon fill="#63b8ff" stroke="#63b8ff" points="339.57,-6.68 349.92,-4.45 340.44,0.27 339.57,-6.68"/>
</a>
</g>
</g>
<!-- Node3 -->
<g id="Node000003" class="node">
<title>Node3</title>
<g id="a_Node000003"><a xlink:href="../../d7/df5/classlci_1_1post__recv__x.html#aa788ee0f7e0f4b77c72b3209bf554433" target="_top" xlink:title=" ">
<polygon fill="white" stroke="#666666" points="643,-326.07 524,-326.07 524,-296.07 643,-296.07 643,-326.07"/>
<text text-anchor="start" x="532" y="-314.07" font-family="Helvetica,sans-Serif" font-size="10.00">lci::post_recv_x::post</text>
<text text-anchor="middle" x="583.5" y="-303.07" font-family="Helvetica,sans-Serif" font-size="10.00">_recv_x</text>
</a>
</g>
</g>
<!-- Node2&#45;&gt;Node3 -->
<g id="edge2_Node000002_Node000003" class="edge">
<title>Node2&#45;&gt;Node3</title>
<g id="a_edge2_Node000002_Node000003"><a xlink:title=" ">
<path fill="none" stroke="#63b8ff" d="M474.3,-625.43C479.3,-622.94 483.97,-619.86 488,-616.07 569.32,-539.48 581.17,-394.48 582.53,-336.23"/>
<polygon fill="#63b8ff" stroke="#63b8ff" points="586.03,-336.14 582.68,-326.09 579.03,-336.03 586.03,-336.14"/>
</a>
</g>
</g>
<!-- Node4&#45;&gt;Node3 -->
<g id="edge4_Node000004_Node000003" class="edge">
<title>Node4&#45;&gt;Node3</title>
<g id="a_edge4_Node000004_Node000003"><a xlink:title=" ">
<path fill="none" stroke="#63b8ff" d="M472.29,-578.92C478.03,-576 483.4,-572.43 488,-568.07 555.45,-504.03 575,-387.77 580.47,-336.51"/>
<polygon fill="#63b8ff" stroke="#63b8ff" points="583.97,-336.61 581.46,-326.32 577.01,-335.93 583.97,-336.61"/>
</a>
</g>
</g>
<!-- Node5&#45;&gt;Node3 -->
<g id="edge6_Node000005_Node000003" class="edge">
<title>Node5&#45;&gt;Node3</title>
<g id="a_edge6_Node000005_Node000003"><a xlink:title=" ">
<path fill="none" stroke="#63b8ff" d="M472.36,-530.39C478.02,-527.57 483.35,-524.17 488,-520.07 544.42,-470.26 569.04,-380.09 578.06,-336.29"/>
<polygon fill="#63b8ff" stroke="#63b8ff" points="581.55,-336.7 580.03,-326.21 574.68,-335.36 581.55,-336.7"/>
</a>
</g>
</g>
<!-- Node6&#45;&gt;Node2 -->
<g id="edge8_Node000006_Node000002" class="edge">
<title>Node6&#45;&gt;Node2</title>
<g id="a_edge8_Node000006_Node000002"><a xlink:title=" ">
<path fill="none" stroke="#63b8ff" d="M224.85,-329.77C226.91,-371.19 240.69,-534.77 331,-616.07 332.71,-617.61 334.53,-619.03 336.44,-620.34"/>
<polygon fill="#63b8ff" stroke="#63b8ff" points="334.85,-623.47 345.26,-625.41 338.33,-617.4 334.85,-623.47"/>
</a>
</g>
</g>
<!-- Node6&#45;&gt;Node4 -->
<g id="edge9_Node000006_Node000004" class="edge">
<title>Node6&#45;&gt;Node4</title>
<g id="a_edge9_Node000006_Node000004"><a xlink:title=" ">
<path fill="none" stroke="#63b8ff" d="M225.75,-329.81C231.01,-366.73 254.72,-499.42 331,-568.07 333.21,-570.05 335.58,-571.88 338.07,-573.55"/>
<polygon fill="#63b8ff" stroke="#63b8ff" points="336.53,-576.7 346.94,-578.67 340.03,-570.64 336.53,-576.7"/>
</a>
</g>
</g>
<!-- Node6&#45;&gt;Node5 -->
<g id="edge10_Node000006_Node000005" class="edge">
<title>Node6&#45;&gt;Node5</title>
<g id="a_edge10_Node000006_Node000005"><a xlink:title=" ">
<path fill="none" stroke="#63b8ff" d="M226.8,-329.67C235,-361.73 265.82,-466.17 331,-520.07 333.24,-521.92 335.62,-523.63 338.11,-525.2"/>
<polygon fill="#63b8ff" stroke="#63b8ff" points="336.46,-528.29 346.91,-530.07 339.85,-522.17 336.46,-528.29"/>
</a>
</g>
</g>
<!-- Node6&#45;&gt;Node7 -->
<g id="edge11_Node000006_Node000007" class="edge">
<title>Node6&#45;&gt;Node7</title>
<g id="a_edge11_Node000006_Node000007"><a xlink:title=" ">
<path fill="none" stroke="#63b8ff" d="M227.8,-329.62C238.1,-357.97 272.54,-442.2 331,-483.07 333.13,-484.55 335.36,-485.92 337.68,-487.18"/>
<polygon fill="#63b8ff" stroke="#63b8ff" points="336.39,-490.44 346.93,-491.49 339.35,-484.09 336.39,-490.44"/>
</a>
</g>
</g>
<!-- Node6&#45;&gt;Node8 -->
<g id="edge13_Node000006_Node000008" class="edge">
<title>Node6&#45;&gt;Node8</title>
<g id="a_edge13_Node000006_Node000008"><a xlink:title=" ">
<path fill="none" stroke="#63b8ff" d="M229.77,-329.66C243.26,-353.28 281.5,-414.53 331,-445.07 334.42,-447.17 338.05,-449.05 341.82,-450.71"/>
<polygon fill="#63b8ff" stroke="#63b8ff" points="340.79,-454.07 351.38,-454.44 343.33,-447.55 340.79,-454.07"/>
</a>
</g>
</g>
<!-- Node6&#45;&gt;Node9 -->
<g id="edge15_Node000006_Node000009" class="edge">
<title>Node6&#45;&gt;Node9</title>
<g id="a_edge15_Node000006_Node000009"><a xlink:title=" ">
<path fill="none" stroke="#63b8ff" d="M235.22,-329.68C253.6,-345.7 292.83,-378 331,-397.07 334.76,-398.94 338.69,-400.71 342.71,-402.36"/>
<polygon fill="#63b8ff" stroke="#63b8ff" points="341.6,-405.68 352.19,-406.02 344.12,-399.15 341.6,-405.68"/>
</a>
</g>
</g>
<!-- Node6&#45;&gt;Node10 -->
<g id="edge17_Node000006_Node000010" class="edge">
<title>Node6&#45;&gt;Node10</title>
<g id="a_edge17_Node000006_Node000010"><a xlink:title=" ">
<path fill="none" stroke="#63b8ff" d="M248.35,-329.66C269.77,-338.07 302.18,-350.29 331,-359.07 339.1,-361.53 347.74,-363.9 356.21,-366.08"/>
<polygon fill="#63b8ff" stroke="#63b8ff" points="355.48,-369.51 366.04,-368.55 357.19,-362.72 355.48,-369.51"/>
</a>
</g>
</g>
<!-- Node6&#45;&gt;Node11 -->
<g id="edge19_Node000006_Node000011" class="edge">
<title>Node6&#45;&gt;Node11</title>
<g id="a_edge19_Node000006_Node000011"><a xlink:title=" ">
<path fill="none" stroke="#63b8ff" d="M295.11,-325.82C305.63,-326.68 316.55,-327.57 327.27,-328.44"/>
<polygon fill="#63b8ff" stroke="#63b8ff" points="327.22,-331.95 337.47,-329.27 327.79,-324.97 327.22,-331.95"/>
</a>
</g>
</g>
<!-- Node6&#45;&gt;Node12 -->
<g id="edge21_Node000006_Node000012" class="edge">
<title>Node6&#45;&gt;Node12</title>
<g id="a_edge21_Node000006_Node000012"><a xlink:title=" ">
<path fill="none" stroke="#63b8ff" d="M277.72,-310.52C293.1,-307.76 310.25,-304.69 326.94,-301.69"/>
<polygon fill="#63b8ff" stroke="#63b8ff" points="328.03,-305.05 337.25,-299.84 326.79,-298.16 328.03,-305.05"/>
</a>
</g>
</g>
<!-- Node6&#45;&gt;Node13 -->
<g id="edge23_Node000006_Node000013" class="edge">
<title>Node6&#45;&gt;Node13</title>
<g id="a_edge23_Node000006_Node000013"><a xlink:title=" ">
<path fill="none" stroke="#63b8ff" d="M239.45,-310.5C259.55,-298.01 296.73,-276.2 331,-263.07 337.43,-260.6 344.29,-258.38 351.16,-256.39"/>
<polygon fill="#63b8ff" stroke="#63b8ff" points="352.47,-259.66 361.2,-253.66 350.63,-252.91 352.47,-259.66"/>
</a>
</g>
</g>
<!-- Node6&#45;&gt;Node14 -->
<g id="edge25_Node000006_Node000014" class="edge">
<title>Node6&#45;&gt;Node14</title>
<g id="a_edge25_Node000006_Node000014"><a xlink:title=" ">
<path fill="none" stroke="#63b8ff" d="M232.5,-310.39C248.9,-291.22 288.38,-248.35 331,-226.07 335.49,-223.72 340.28,-221.65 345.18,-219.84"/>
<polygon fill="#63b8ff" stroke="#63b8ff" points="346.35,-223.14 354.73,-216.65 344.14,-216.5 346.35,-223.14"/>
</a>
</g>
</g>
<!-- Node6&#45;&gt;Node15 -->
<g id="edge27_Node000006_Node000015" class="edge">
<title>Node6&#45;&gt;Node15</title>
<g id="a_edge27_Node000006_Node000015"><a xlink:title=" ">
<path fill="none" stroke="#63b8ff" d="M229.45,-310.37C242.48,-285.87 280.23,-221.2 331,-189.07 334.33,-186.96 337.87,-185.09 341.55,-183.42"/>
<polygon fill="#63b8ff" stroke="#63b8ff" points="342.9,-186.65 350.89,-179.69 340.3,-180.15 342.9,-186.65"/>
</a>
</g>
</g>
<!-- Node6&#45;&gt;Node16 -->
<g id="edge29_Node000006_Node000016" class="edge">
<title>Node6&#45;&gt;Node16</title>
<g id="a_edge29_Node000006_Node000016"><a xlink:title=" ">
<path fill="none" stroke="#63b8ff" d="M227.73,-310.26C237.85,-281.14 271.83,-194.59 331,-152.07 333.7,-150.13 336.57,-148.38 339.57,-146.82"/>
<polygon fill="#63b8ff" stroke="#63b8ff" points="341.17,-149.93 348.85,-142.63 338.29,-143.55 341.17,-149.93"/>
</a>
</g>
</g>
<!-- Node6&#45;&gt;Node17 -->
<g id="edge31_Node000006_Node000017" class="edge">
<title>Node6&#45;&gt;Node17</title>
<g id="a_edge31_Node000006_Node000017"><a xlink:title=" ">
<path fill="none" stroke="#63b8ff" d="M226.5,-310.54C233.9,-277.73 262.88,-168.59 331,-115.07 334.16,-112.58 337.59,-110.42 341.2,-108.54"/>
<polygon fill="#63b8ff" stroke="#63b8ff" points="342.77,-111.67 350.48,-104.4 339.92,-105.28 342.77,-111.67"/>
</a>
</g>
</g>
<!-- Node6&#45;&gt;Node18 -->
<g id="edge33_Node000006_Node000018" class="edge">
<title>Node6&#45;&gt;Node18</title>
<g id="a_edge33_Node000006_Node000018"><a xlink:title=" ">
<path fill="none" stroke="#63b8ff" d="M225.71,-310.41C230.8,-273.85 254,-142.7 331,-78.07 334.56,-75.08 338.51,-72.55 342.7,-70.41"/>
<polygon fill="#63b8ff" stroke="#63b8ff" points="344.39,-73.49 352.18,-66.31 341.61,-67.07 344.39,-73.49"/>
</a>
</g>
</g>
<!-- Node6&#45;&gt;Node19 -->
<g id="edge35_Node000006_Node000019" class="edge">
<title>Node6&#45;&gt;Node19</title>
<g id="a_edge35_Node000006_Node000019"><a xlink:title=" ">
<path fill="none" stroke="#63b8ff" d="M225.21,-310.48C228.63,-270.93 247.01,-118.91 331,-40.07 333.98,-37.27 337.27,-34.8 340.78,-32.62"/>
<polygon fill="#63b8ff" stroke="#63b8ff" points="342.69,-35.57 349.86,-27.77 339.39,-29.39 342.69,-35.57"/>
</a>
</g>
</g>
<!-- Node7&#45;&gt;Node3 -->
<g id="edge12_Node000007_Node000003" class="edge">
<title>Node7&#45;&gt;Node3</title>
<g id="a_edge12_Node000007_Node000003"><a xlink:title=" ">
<path fill="none" stroke="#63b8ff" d="M473.12,-491.54C478.43,-489.27 483.49,-486.49 488,-483.07 537.65,-445.45 564.58,-373.85 575.92,-335.98"/>
<polygon fill="#63b8ff" stroke="#63b8ff" points="579.32,-336.83 578.71,-326.25 572.59,-334.9 579.32,-336.83"/>
</a>
</g>
</g>
<!-- Node8&#45;&gt;Node3 -->
<g id="edge14_Node000008_Node000003" class="edge">
<title>Node8&#45;&gt;Node3</title>
<g id="a_edge14_Node000008_Node000003"><a xlink:title=" ">
<path fill="none" stroke="#63b8ff" d="M469.17,-454.54C475.83,-452.07 482.28,-448.97 488,-445.07 528.57,-417.4 557.37,-366.18 571.85,-335.7"/>
<polygon fill="#63b8ff" stroke="#63b8ff" points="575.2,-336.78 576.2,-326.23 568.84,-333.85 575.2,-336.78"/>
</a>
</g>
</g>
<!-- Node9&#45;&gt;Node3 -->
<g id="edge16_Node000009_Node000003" class="edge">
<title>Node9&#45;&gt;Node3</title>
<g id="a_edge16_Node000009_Node000003"><a xlink:title=" ">
<path fill="none" stroke="#63b8ff" d="M469.22,-405.93C475.74,-403.36 482.13,-400.42 488,-397.07 517.28,-380.33 545.12,-353.13 562.89,-333.81"/>
<polygon fill="#63b8ff" stroke="#63b8ff" points="565.55,-336.09 569.65,-326.32 560.35,-331.4 565.55,-336.09"/>
</a>
</g>
</g>
<!-- Node10&#45;&gt;Node3 -->
<g id="edge18_Node000010_Node000003" class="edge">
<title>Node10&#45;&gt;Node3</title>
<g id="a_edge18_Node000010_Node000003"><a xlink:title=" ">
<path fill="none" stroke="#63b8ff" d="M456.92,-368.53C467.29,-365.89 478.13,-362.73 488,-359.07 508.38,-351.51 530.07,-340.7 547.53,-331.26"/>
<polygon fill="#63b8ff" stroke="#63b8ff" points="549.68,-334.07 556.75,-326.18 546.3,-327.94 549.68,-334.07"/>
</a>
</g>
</g>
<!-- Node11&#45;&gt;Node3 -->
<g id="edge20_Node000011_Node000003" class="edge">
<title>Node11&#45;&gt;Node3</title>
<g id="a_edge20_Node000011_Node000003"><a xlink:title=" ">
<path fill="none" stroke="#63b8ff" d="M481.95,-325.1C492.51,-323.62 503.37,-322.11 513.88,-320.64"/>
<polygon fill="#63b8ff" stroke="#63b8ff" points="514.39,-324.1 523.81,-319.25 513.43,-317.17 514.39,-324.1"/>
</a>
</g>
</g>
<!-- Node12&#45;&gt;Node3 -->
<g id="edge22_Node000012_Node000003" class="edge">
<title>Node12&#45;&gt;Node3</title>
<g id="a_edge22_Node000012_Node000003"><a xlink:title=" ">
<path fill="none" stroke="#63b8ff" d="M481.95,-297.04C492.51,-298.51 503.37,-300.02 513.88,-301.49"/>
<polygon fill="#63b8ff" stroke="#63b8ff" points="513.43,-304.96 523.81,-302.88 514.39,-298.03 513.43,-304.96"/>
</a>
</g>
</g>
<!-- Node13&#45;&gt;Node3 -->
<g id="edge24_Node000013_Node000003" class="edge">
<title>Node13&#45;&gt;Node3</title>
<g id="a_edge24_Node000013_Node000003"><a xlink:title=" ">
<path fill="none" stroke="#63b8ff" d="M456.92,-253.61C467.29,-256.24 478.13,-259.4 488,-263.07 508.38,-270.62 530.07,-281.43 547.53,-290.87"/>
<polygon fill="#63b8ff" stroke="#63b8ff" points="546.3,-294.19 556.75,-295.95 549.68,-288.06 546.3,-294.19"/>
</a>
</g>
</g>
<!-- Node14&#45;&gt;Node3 -->
<g id="edge26_Node000014_Node000003" class="edge">
<title>Node14&#45;&gt;Node3</title>
<g id="a_edge26_Node000014_Node000003"><a xlink:title=" ">
<path fill="none" stroke="#63b8ff" d="M464.3,-216.59C472.49,-219.07 480.65,-222.18 488,-226.07 517.83,-241.84 545.75,-269.1 563.39,-288.5"/>
<polygon fill="#63b8ff" stroke="#63b8ff" points="560.81,-290.87 570.07,-296.01 566.04,-286.22 560.81,-290.87"/>
</a>
</g>
</g>
<!-- Node15&#45;&gt;Node3 -->
<g id="edge28_Node000015_Node000003" class="edge">
<title>Node15&#45;&gt;Node3</title>
<g id="a_edge28_Node000015_Node000003"><a xlink:title=" ">
<path fill="none" stroke="#63b8ff" d="M468.6,-179.7C475.44,-182.15 482.08,-185.22 488,-189.07 525.98,-213.74 555.01,-259.03 570.35,-286.95"/>
<polygon fill="#63b8ff" stroke="#63b8ff" points="567.4,-288.86 575.2,-296.04 573.58,-285.57 567.4,-288.86"/>
</a>
</g>
</g>
<!-- Node16&#45;&gt;Node3 -->
<g id="edge30_Node000016_Node000003" class="edge">
<title>Node16&#45;&gt;Node3</title>
<g id="a_edge30_Node000016_Node000003"><a xlink:title=" ">
<path fill="none" stroke="#63b8ff" d="M470.66,-142.63C476.84,-145.1 482.77,-148.19 488,-152.07 534.27,-186.33 562.08,-250.6 574.59,-286.03"/>
<polygon fill="#63b8ff" stroke="#63b8ff" points="571.32,-287.28 577.86,-295.62 577.95,-285.03 571.32,-287.28"/>
</a>
</g>
</g>
<!-- Node17&#45;&gt;Node3 -->
<g id="edge32_Node000017_Node000003" class="edge">
<title>Node17&#45;&gt;Node3</title>
<g id="a_edge32_Node000017_Node000003"><a xlink:title=" ">
<path fill="none" stroke="#63b8ff" d="M468.65,-104.24C475.63,-106.92 482.3,-110.44 488,-115.07 542.95,-159.59 568.07,-243.81 577.6,-285.85"/>
<polygon fill="#63b8ff" stroke="#63b8ff" points="574.22,-286.78 579.74,-295.82 581.06,-285.31 574.22,-286.78"/>
</a>
</g>
</g>
<!-- Node18&#45;&gt;Node3 -->
<g id="edge34_Node000018_Node000003" class="edge">
<title>Node18&#45;&gt;Node3</title>
<g id="a_edge34_Node000018_Node000003"><a xlink:title=" ">
<path fill="none" stroke="#63b8ff" d="M466.56,-66.01C474.37,-68.83 481.82,-72.72 488,-78.07 551.72,-133.16 573.07,-237.58 579.72,-285.67"/>
<polygon fill="#63b8ff" stroke="#63b8ff" points="576.28,-286.35 581.02,-295.83 583.23,-285.46 576.28,-286.35"/>
</a>
</g>
</g>
<!-- Node19&#45;&gt;Node3 -->
<g id="edge36_Node000019_Node000003" class="edge">
<title>Node19&#45;&gt;Node3</title>
<g id="a_edge36_Node000019_Node000003"><a xlink:title=" ">
<path fill="none" stroke="#63b8ff" d="M469.28,-27.62C476.16,-30.81 482.63,-34.88 488,-40.07 558.78,-108.4 576.59,-232.54 581.04,-285.75"/>
<polygon fill="#63b8ff" stroke="#63b8ff" points="577.57,-286.27 581.8,-295.98 584.55,-285.75 577.57,-286.27"/>
</a>
</g>
</g>
</g>
</svg>
