<?xml version="1.0" encoding="UTF-8" standalone="no"?>
<!DOCTYPE svg PUBLIC "-//W3C//DTD SVG 1.1//EN"
 "http://www.w3.org/Graphics/SVG/1.1/DTD/svg11.dtd">
<!-- Generated by graphviz version 2.43.0 (0)
 -->
<!-- Title: lci::post_recv_x::call_impl Pages: 1 -->
<svg width="499pt" height="737pt"
 viewBox="0.00 0.00 499.00 736.50" xmlns="http://www.w3.org/2000/svg" xmlns:xlink="http://www.w3.org/1999/xlink">
<g id="graph0" class="graph" transform="scale(1 1) rotate(0) translate(4 732.5)">
<title>lci::post_recv_x::call_impl</title>
<!-- Node1 -->
<g id="Node000001" class="node">
<title>Node1</title>
<g id="a_Node000001"><a xlink:title=" ">
<polygon fill="#999999" stroke="#666666" points="143,-364.5 0,-364.5 0,-345.5 143,-345.5 143,-364.5"/>
<text text-anchor="middle" x="71.5" y="-352.5" font-family="Helvetica,sans-Serif" font-size="10.00">lci::post_recv_x::call_impl</text>
</a>
</g>
</g>
<!-- Node2 -->
<g id="Node000002" class="node">
<title>Node2</title>
<g id="a_Node000002"><a xlink:href="../../d7/df5/classlci_1_1post__recv__x.html#a1947446eaad7deef7777f457dcf39ddb" target="_top" xlink:title=" ">
<polygon fill="white" stroke="#666666" points="334.5,-728.5 180.5,-728.5 180.5,-709.5 334.5,-709.5 334.5,-728.5"/>
<text text-anchor="middle" x="257.5" y="-716.5" font-family="Helvetica,sans-Serif" font-size="10.00">lci::post_recv_x::allow_done</text>
</a>
</g>
</g>
<!-- Node1&#45;&gt;Node2 -->
<g id="edge1_Node000001_Node000002" class="edge">
<title>Node1&#45;&gt;Node2</title>
<g id="a_edge1_Node000001_Node000002"><a xlink:title=" ">
<path fill="none" stroke="#63b8ff" d="M72.29,-364.7C71.88,-410.07 76.37,-603.25 179,-700 180.51,-701.43 182.11,-702.75 183.79,-703.98"/>
<polygon fill="#63b8ff" stroke="#63b8ff" points="182.33,-707.19 192.7,-709.36 185.95,-701.2 182.33,-707.19"/>
</a>
</g>
</g>
<!-- Node4 -->
<g id="Node000004" class="node">
<title>Node4</title>
<g id="a_Node000004"><a xlink:href="../../d7/df5/classlci_1_1post__recv__x.html#a03c71a900079f2a09bca2663ba2af4ab" target="_top" xlink:title=" ">
<polygon fill="white" stroke="#666666" points="320,-691 195,-691 195,-661 320,-661 320,-691"/>
<text text-anchor="start" x="203" y="-679" font-family="Helvetica,sans-Serif" font-size="10.00">lci::post_recv_x::allow</text>
<text text-anchor="middle" x="257.5" y="-668" font-family="Helvetica,sans-Serif" font-size="10.00">_posted</text>
</a>
</g>
</g>
<!-- Node1&#45;&gt;Node4 -->
<g id="edge3_Node000001_Node000004" class="edge">
<title>Node1&#45;&gt;Node4</title>
<g id="a_edge3_Node000001_Node000004"><a xlink:title=" ">
<path fill="none" stroke="#63b8ff" d="M72.97,-364.6C75.5,-405.59 90.94,-567.73 179,-652 181.15,-654.05 183.47,-655.93 185.91,-657.65"/>
<polygon fill="#63b8ff" stroke="#63b8ff" points="184.3,-660.76 194.67,-662.9 187.89,-654.76 184.3,-660.76"/>
</a>
</g>
</g>
<!-- Node5 -->
<g id="Node000005" class="node">
<title>Node5</title>
<g id="a_Node000005"><a xlink:href="../../d7/df5/classlci_1_1post__recv__x.html#a8ca868991d765fd27ad39a0f912d019c" target="_top" xlink:title=" ">
<polygon fill="white" stroke="#666666" points="320,-643 195,-643 195,-613 320,-613 320,-643"/>
<text text-anchor="start" x="203" y="-631" font-family="Helvetica,sans-Serif" font-size="10.00">lci::post_recv_x::allow</text>
<text text-anchor="middle" x="257.5" y="-620" font-family="Helvetica,sans-Serif" font-size="10.00">_retry</text>
</a>
</g>
</g>
<!-- Node1&#45;&gt;Node5 -->
<g id="edge5_Node000001_Node000005" class="edge">
<title>Node1&#45;&gt;Node5</title>
<g id="a_edge5_Node000001_Node000005"><a xlink:title=" ">
<path fill="none" stroke="#63b8ff" d="M73.7,-364.53C78.84,-401.24 102.34,-534.91 179,-604 181.21,-605.99 183.58,-607.81 186.07,-609.49"/>
<polygon fill="#63b8ff" stroke="#63b8ff" points="184.53,-612.64 194.94,-614.61 188.03,-606.58 184.53,-612.64"/>
</a>
</g>
</g>
<!-- Node6 -->
<g id="Node000006" class="node">
<title>Node6</title>
<g id="a_Node000006"><a xlink:href="../../d7/df5/classlci_1_1post__recv__x.html#aaf84b33e1a84d62278251efb07944b6a" target="_top" xlink:title=" ">
<polygon fill="white" stroke="#666666" points="323.5,-594.5 191.5,-594.5 191.5,-575.5 323.5,-575.5 323.5,-594.5"/>
<text text-anchor="middle" x="257.5" y="-582.5" font-family="Helvetica,sans-Serif" font-size="10.00">lci::post_recv_x::buffers</text>
</a>
</g>
</g>
<!-- Node1&#45;&gt;Node6 -->
<g id="edge7_Node000001_Node000006" class="edge">
<title>Node1&#45;&gt;Node6</title>
<g id="a_edge7_Node000001_Node000006"><a xlink:title=" ">
<path fill="none" stroke="#63b8ff" d="M74.37,-364.88C81.33,-398.88 109.09,-511.98 179,-567 180.63,-568.28 182.33,-569.47 184.1,-570.58"/>
<polygon fill="#63b8ff" stroke="#63b8ff" points="182.88,-573.9 193.36,-575.48 186.15,-567.71 182.88,-573.9"/>
</a>
</g>
</g>
<!-- Node7 -->
<g id="Node000007" class="node">
<title>Node7</title>
<g id="a_Node000007"><a xlink:href="../../d7/df5/classlci_1_1post__recv__x.html#a915e9ab9980e2703666515e412f9a921" target="_top" xlink:title=" ">
<polygon fill="white" stroke="#666666" points="323,-557.5 192,-557.5 192,-538.5 323,-538.5 323,-557.5"/>
<text text-anchor="middle" x="257.5" y="-545.5" font-family="Helvetica,sans-Serif" font-size="10.00">lci::post_recv_x::device</text>
</a>
</g>
</g>
<!-- Node1&#45;&gt;Node7 -->
<g id="edge9_Node000001_Node000007" class="edge">
<title>Node1&#45;&gt;Node7</title>
<g id="a_edge9_Node000001_Node000007"><a xlink:title=" ">
<path fill="none" stroke="#63b8ff" d="M75.44,-364.82C84.96,-394.8 117.9,-485.81 179,-530 180.91,-531.38 182.91,-532.66 184.98,-533.84"/>
<polygon fill="#63b8ff" stroke="#63b8ff" points="183.9,-537.21 194.43,-538.42 186.96,-530.91 183.9,-537.21"/>
</a>
</g>
</g>
<!-- Node8 -->
<g id="Node000008" class="node">
<title>Node8</title>
<g id="a_Node000008"><a xlink:href="../../d7/df5/classlci_1_1post__recv__x.html#a6f1dea52919f69662a2fb21c0f6b810d" target="_top" xlink:title=" ">
<polygon fill="white" stroke="#666666" points="328,-520.5 187,-520.5 187,-501.5 328,-501.5 328,-520.5"/>
<text text-anchor="middle" x="257.5" y="-508.5" font-family="Helvetica,sans-Serif" font-size="10.00">lci::post_recv_x::endpoint</text>
</a>
</g>
</g>
<!-- Node1&#45;&gt;Node8 -->
<g id="edge11_Node000001_Node000008" class="edge">
<title>Node1&#45;&gt;Node8</title>
<g id="a_edge11_Node000001_Node000008"><a xlink:title=" ">
<path fill="none" stroke="#63b8ff" d="M77.14,-364.77C89.7,-390.1 126.93,-458.24 179,-492 182.31,-494.14 185.83,-496.04 189.49,-497.73"/>
<polygon fill="#63b8ff" stroke="#63b8ff" points="188.23,-500.99 198.81,-501.5 190.85,-494.51 188.23,-500.99"/>
</a>
</g>
</g>
<!-- Node9 -->
<g id="Node000009" class="node">
<title>Node9</title>
<g id="a_Node000009"><a xlink:href="../../d7/df5/classlci_1_1post__recv__x.html#a6b6cc0329cb5b129186ecbceac97c5c9" target="_top" xlink:title=" ">
<polygon fill="white" stroke="#666666" points="319,-483 196,-483 196,-453 319,-453 319,-483"/>
<text text-anchor="start" x="204" y="-471" font-family="Helvetica,sans-Serif" font-size="10.00">lci::post_recv_x::force</text>
<text text-anchor="middle" x="257.5" y="-460" font-family="Helvetica,sans-Serif" font-size="10.00">_zcopy</text>
</a>
</g>
</g>
<!-- Node1&#45;&gt;Node9 -->
<g id="edge13_Node000001_Node000009" class="edge">
<title>Node1&#45;&gt;Node9</title>
<g id="a_edge13_Node000001_Node000009"><a xlink:title=" ">
<path fill="none" stroke="#63b8ff" d="M81.52,-364.76C98.77,-382.88 138.36,-421.89 179,-444 182.29,-445.79 185.73,-447.46 189.25,-449.03"/>
<polygon fill="#63b8ff" stroke="#63b8ff" points="188.15,-452.36 198.73,-452.93 190.81,-445.89 188.15,-452.36"/>
</a>
</g>
</g>
<!-- Node10 -->
<g id="Node000010" class="node">
<title>Node10</title>
<g id="a_Node000010"><a xlink:href="../../d7/df5/classlci_1_1post__recv__x.html#ae8557d3e45cb7ada864ff6d7ed0450dc" target="_top" xlink:title=" ">
<polygon fill="white" stroke="#666666" points="318.5,-435 196.5,-435 196.5,-405 318.5,-405 318.5,-435"/>
<text text-anchor="start" x="204.5" y="-423" font-family="Helvetica,sans-Serif" font-size="10.00">lci::post_recv_x::local</text>
<text text-anchor="middle" x="257.5" y="-412" font-family="Helvetica,sans-Serif" font-size="10.00">_buffer</text>
</a>
</g>
</g>
<!-- Node1&#45;&gt;Node10 -->
<g id="edge15_Node000001_Node000010" class="edge">
<title>Node1&#45;&gt;Node10</title>
<g id="a_edge15_Node000001_Node000010"><a xlink:title=" ">
<path fill="none" stroke="#63b8ff" d="M96.02,-364.58C117.49,-373.19 150.17,-386 179,-396 184.63,-397.95 190.51,-399.91 196.41,-401.83"/>
<polygon fill="#63b8ff" stroke="#63b8ff" points="195.72,-405.28 206.31,-405 197.85,-398.62 195.72,-405.28"/>
</a>
</g>
</g>
<!-- Node11 -->
<g id="Node000011" class="node">
<title>Node11</title>
<g id="a_Node000011"><a xlink:href="../../d7/df5/classlci_1_1post__recv__x.html#adbb1b53ef004aa0acec76303833a8b6c" target="_top" xlink:title=" ">
<polygon fill="white" stroke="#666666" points="334.5,-386.5 180.5,-386.5 180.5,-367.5 334.5,-367.5 334.5,-386.5"/>
<text text-anchor="middle" x="257.5" y="-374.5" font-family="Helvetica,sans-Serif" font-size="10.00">lci::post_recv_x::local_comp</text>
</a>
</g>
</g>
<!-- Node1&#45;&gt;Node11 -->
<g id="edge17_Node000001_Node000011" class="edge">
<title>Node1&#45;&gt;Node11</title>
<g id="a_edge17_Node000001_Node000011"><a xlink:title=" ">
<path fill="none" stroke="#63b8ff" d="M143.11,-363.44C151.95,-364.5 161.06,-365.59 170.11,-366.67"/>
<polygon fill="#63b8ff" stroke="#63b8ff" points="169.92,-370.17 180.27,-367.89 170.75,-363.22 169.92,-370.17"/>
</a>
</g>
</g>
<!-- Node12 -->
<g id="Node000012" class="node">
<title>Node12</title>
<g id="a_Node000012"><a xlink:href="../../d7/df5/classlci_1_1post__recv__x.html#a76de3f961791a8c279f4a3cc08b1864f" target="_top" xlink:title=" ">
<polygon fill="white" stroke="#666666" points="329.5,-349 185.5,-349 185.5,-319 329.5,-319 329.5,-349"/>
<text text-anchor="start" x="193.5" y="-337" font-family="Helvetica,sans-Serif" font-size="10.00">lci::post_recv_x::matching</text>
<text text-anchor="middle" x="257.5" y="-326" font-family="Helvetica,sans-Serif" font-size="10.00">_engine</text>
</a>
</g>
</g>
<!-- Node1&#45;&gt;Node12 -->
<g id="edge19_Node000001_Node000012" class="edge">
<title>Node1&#45;&gt;Node12</title>
<g id="a_edge19_Node000001_Node000012"><a xlink:title=" ">
<path fill="none" stroke="#63b8ff" d="M143.11,-346.94C153.63,-345.74 164.55,-344.49 175.27,-343.27"/>
<polygon fill="#63b8ff" stroke="#63b8ff" points="175.93,-346.72 185.47,-342.11 175.14,-339.76 175.93,-346.72"/>
</a>
</g>
</g>
<!-- Node13 -->
<g id="Node000013" class="node">
<title>Node13</title>
<g id="a_Node000013"><a xlink:href="../../d7/df5/classlci_1_1post__recv__x.html#ae7d42f2f368c4515abf46e9490c117c1" target="_top" xlink:title=" ">
<polygon fill="white" stroke="#666666" points="329.5,-301 185.5,-301 185.5,-271 329.5,-271 329.5,-301"/>
<text text-anchor="start" x="193.5" y="-289" font-family="Helvetica,sans-Serif" font-size="10.00">lci::post_recv_x::matching</text>
<text text-anchor="middle" x="257.5" y="-278" font-family="Helvetica,sans-Serif" font-size="10.00">_policy</text>
</a>
</g>
</g>
<!-- Node1&#45;&gt;Node13 -->
<g id="edge21_Node000001_Node000013" class="edge">
<title>Node1&#45;&gt;Node13</title>
<g id="a_edge21_Node000001_Node000013"><a xlink:title=" ">
<path fill="none" stroke="#63b8ff" d="M93.47,-345.41C114.77,-335.84 148.83,-321.01 179,-310 184.42,-308.02 190.1,-306.06 195.81,-304.16"/>
<polygon fill="#63b8ff" stroke="#63b8ff" points="196.98,-307.46 205.4,-301.03 194.81,-300.8 196.98,-307.46"/>
</a>
</g>
</g>
<!-- Node14 -->
<g id="Node000014" class="node">
<title>Node14</title>
<g id="a_Node000014"><a xlink:href="../../d7/df5/classlci_1_1post__recv__x.html#a81500b0a4a099640f205288897358c98" target="_top" xlink:title=" ">
<polygon fill="white" stroke="#666666" points="313.5,-252.5 201.5,-252.5 201.5,-233.5 313.5,-233.5 313.5,-252.5"/>
<text text-anchor="middle" x="257.5" y="-240.5" font-family="Helvetica,sans-Serif" font-size="10.00">lci::post_recv_x::mr</text>
</a>
</g>
</g>
<!-- Node1&#45;&gt;Node14 -->
<g id="edge23_Node000001_Node000014" class="edge">
<title>Node1&#45;&gt;Node14</title>
<g id="a_edge23_Node000001_Node000014"><a xlink:title=" ">
<path fill="none" stroke="#63b8ff" d="M80.52,-345.43C96.96,-326.48 136.52,-284.07 179,-262 183.49,-259.66 188.29,-257.61 193.2,-255.8"/>
<polygon fill="#63b8ff" stroke="#63b8ff" points="194.37,-259.1 202.75,-252.62 192.15,-252.46 194.37,-259.1"/>
</a>
</g>
</g>
<!-- Node15 -->
<g id="Node000015" class="node">
<title>Node15</title>
<g id="a_Node000015"><a xlink:href="../../d7/df5/classlci_1_1post__recv__x.html#a2d1ee93d55d1c99e24a1c09ac28bad37" target="_top" xlink:title=" ">
<polygon fill="white" stroke="#666666" points="336,-215.5 179,-215.5 179,-196.5 336,-196.5 336,-215.5"/>
<text text-anchor="middle" x="257.5" y="-203.5" font-family="Helvetica,sans-Serif" font-size="10.00">lci::post_recv_x::packet_pool</text>
</a>
</g>
</g>
<!-- Node1&#45;&gt;Node15 -->
<g id="edge25_Node000001_Node000015" class="edge">
<title>Node1&#45;&gt;Node15</title>
<g id="a_edge25_Node000001_Node000015"><a xlink:title=" ">
<path fill="none" stroke="#63b8ff" d="M77.47,-345.37C90.55,-321.07 128.4,-256.89 179,-225 182.4,-222.86 186.02,-220.96 189.77,-219.27"/>
<polygon fill="#63b8ff" stroke="#63b8ff" points="191.29,-222.44 199.31,-215.51 188.72,-215.92 191.29,-222.44"/>
</a>
</g>
</g>
<!-- Node16 -->
<g id="Node000016" class="node">
<title>Node16</title>
<g id="a_Node000016"><a xlink:href="../../d7/df5/classlci_1_1post__recv__x.html#ab3a3f91b24b7e39b7bcd45602faec4ee" target="_top" xlink:title=" ">
<polygon fill="white" stroke="#666666" points="317.5,-178.5 197.5,-178.5 197.5,-159.5 317.5,-159.5 317.5,-178.5"/>
<text text-anchor="middle" x="257.5" y="-166.5" font-family="Helvetica,sans-Serif" font-size="10.00">lci::post_recv_x::rank</text>
</a>
</g>
</g>
<!-- Node1&#45;&gt;Node16 -->
<g id="edge27_Node000001_Node000016" class="edge">
<title>Node1&#45;&gt;Node16</title>
<g id="a_edge27_Node000001_Node000016"><a xlink:title=" ">
<path fill="none" stroke="#63b8ff" d="M75.75,-345.25C85.92,-316.31 120.02,-230.26 179,-188 181.85,-185.96 184.88,-184.14 188.05,-182.51"/>
<polygon fill="#63b8ff" stroke="#63b8ff" points="189.54,-185.68 197.25,-178.42 186.69,-179.29 189.54,-185.68"/>
</a>
</g>
</g>
<!-- Node17 -->
<g id="Node000017" class="node">
<title>Node17</title>
<g id="a_Node000017"><a xlink:href="../../d7/df5/classlci_1_1post__recv__x.html#a377ff95b56068a680c9f92db75bd9f5d" target="_top" xlink:title=" ">
<polygon fill="white" stroke="#666666" points="326,-141.5 189,-141.5 189,-122.5 326,-122.5 326,-141.5"/>
<text text-anchor="middle" x="257.5" y="-129.5" font-family="Helvetica,sans-Serif" font-size="10.00">lci::post_recv_x::runtime</text>
</a>
</g>
</g>
<!-- Node1&#45;&gt;Node17 -->
<g id="edge29_Node000001_Node000017" class="edge">
<title>Node1&#45;&gt;Node17</title>
<g id="a_edge29_Node000001_Node000017"><a xlink:title=" ">
<path fill="none" stroke="#63b8ff" d="M74.62,-345.06C82.23,-311.87 111.41,-204.01 179,-151 181.3,-149.2 183.75,-147.56 186.3,-146.08"/>
<polygon fill="#63b8ff" stroke="#63b8ff" points="187.93,-149.18 195.34,-141.61 184.82,-142.9 187.93,-149.18"/>
</a>
</g>
</g>
<!-- Node18 -->
<g id="Node000018" class="node">
<title>Node18</title>
<g id="a_Node000018"><a xlink:href="../../d7/df5/classlci_1_1post__recv__x.html#a4a01e7ab7a4d3004dfd31e39ba7df6fc" target="_top" xlink:title=" ">
<polygon fill="white" stroke="#666666" points="316.5,-104.5 198.5,-104.5 198.5,-85.5 316.5,-85.5 316.5,-104.5"/>
<text text-anchor="middle" x="257.5" y="-92.5" font-family="Helvetica,sans-Serif" font-size="10.00">lci::post_recv_x::size</text>
</a>
</g>
</g>
<!-- Node1&#45;&gt;Node18 -->
<g id="edge31_Node000001_Node000018" class="edge">
<title>Node1&#45;&gt;Node18</title>
<g id="a_edge31_Node000001_Node000018"><a xlink:title=" ">
<path fill="none" stroke="#63b8ff" d="M73.72,-345.38C78.87,-308.97 102.22,-178.35 179,-114 182.08,-111.42 185.45,-109.18 189.02,-107.24"/>
<polygon fill="#63b8ff" stroke="#63b8ff" points="190.59,-110.37 198.21,-103 187.66,-104.01 190.59,-110.37"/>
</a>
</g>
</g>
<!-- Node19 -->
<g id="Node000019" class="node">
<title>Node19</title>
<g id="a_Node000019"><a xlink:href="../../d7/df5/classlci_1_1post__recv__x.html#a21534b481f5e6fe3e63fe8e86c255b57" target="_top" xlink:title=" ">
<polygon fill="white" stroke="#666666" points="314.5,-67.5 200.5,-67.5 200.5,-48.5 314.5,-48.5 314.5,-67.5"/>
<text text-anchor="middle" x="257.5" y="-55.5" font-family="Helvetica,sans-Serif" font-size="10.00">lci::post_recv_x::tag</text>
</a>
</g>
</g>
<!-- Node1&#45;&gt;Node19 -->
<g id="edge33_Node000001_Node000019" class="edge">
<title>Node1&#45;&gt;Node19</title>
<g id="a_edge33_Node000001_Node000019"><a xlink:title=" ">
<path fill="none" stroke="#63b8ff" d="M73.1,-345.34C76.13,-305.53 93.14,-152.72 179,-77 182.64,-73.79 186.73,-71.1 191.09,-68.86"/>
<polygon fill="#63b8ff" stroke="#63b8ff" points="192.57,-72.03 200.34,-64.83 189.78,-65.61 192.57,-72.03"/>
</a>
</g>
</g>
<!-- Node20 -->
<g id="Node000020" class="node">
<title>Node20</title>
<g id="a_Node000020"><a xlink:href="../../d7/df5/classlci_1_1post__recv__x.html#a63075f18228e79db948fef48bb02fad5" target="_top" xlink:title=" ">
<polygon fill="white" stroke="#666666" points="317,-30 198,-30 198,0 317,0 317,-30"/>
<text text-anchor="start" x="206" y="-18" font-family="Helvetica,sans-Serif" font-size="10.00">lci::post_recv_x::user</text>
<text text-anchor="middle" x="257.5" y="-7" font-family="Helvetica,sans-Serif" font-size="10.00">_context</text>
</a>
</g>
</g>
<!-- Node1&#45;&gt;Node20 -->
<g id="edge35_Node000001_Node000020" class="edge">
<title>Node1&#45;&gt;Node20</title>
<g id="a_edge35_Node000001_Node000020"><a xlink:title=" ">
<path fill="none" stroke="#63b8ff" d="M72.77,-345.44C74.5,-303.1 87.13,-130.59 179,-40 181.92,-37.12 185.17,-34.58 188.64,-32.32"/>
<polygon fill="#63b8ff" stroke="#63b8ff" points="190.62,-35.23 197.65,-27.3 187.21,-29.11 190.62,-35.23"/>
</a>
</g>
</g>
<!-- Node3 -->
<g id="Node000003" class="node">
<title>Node3</title>
<g id="a_Node000003"><a xlink:href="../../d7/df5/classlci_1_1post__recv__x.html#aa788ee0f7e0f4b77c72b3209bf554433" target="_top" xlink:title=" ">
<polygon fill="white" stroke="#666666" points="491,-370 372,-370 372,-340 491,-340 491,-370"/>
<text text-anchor="start" x="380" y="-358" font-family="Helvetica,sans-Serif" font-size="10.00">lci::post_recv_x::post</text>
<text text-anchor="middle" x="431.5" y="-347" font-family="Helvetica,sans-Serif" font-size="10.00">_recv_x</text>
</a>
</g>
</g>
<!-- Node2&#45;&gt;Node3 -->
<g id="edge2_Node000002_Node000003" class="edge">
<title>Node2&#45;&gt;Node3</title>
<g id="a_edge2_Node000002_Node000003"><a xlink:title=" ">
<path fill="none" stroke="#63b8ff" d="M322.81,-709.31C327.64,-706.83 332.13,-703.77 336,-700 382.67,-654.57 416.3,-452.01 426.93,-380.28"/>
<polygon fill="#63b8ff" stroke="#63b8ff" points="430.4,-380.71 428.38,-370.31 423.48,-379.7 430.4,-380.71"/>
</a>
</g>
</g>
<!-- Node4&#45;&gt;Node3 -->
<g id="edge4_Node000004_Node000003" class="edge">
<title>Node4&#45;&gt;Node3</title>
<g id="a_edge4_Node000004_Node000003"><a xlink:title=" ">
<path fill="none" stroke="#63b8ff" d="M320.11,-663.26C325.95,-660.26 331.4,-656.56 336,-652 412.88,-575.71 427.31,-437.16 429.95,-380.34"/>
<polygon fill="#63b8ff" stroke="#63b8ff" points="433.45,-380.24 430.33,-370.11 426.46,-379.97 433.45,-380.24"/>
</a>
</g>
</g>
<!-- Node5&#45;&gt;Node3 -->
<g id="edge6_Node000005_Node000003" class="edge">
<title>Node5&#45;&gt;Node3</title>
<g id="a_edge6_Node000005_Node000003"><a xlink:title=" ">
<path fill="none" stroke="#63b8ff" d="M320.24,-614.81C325.99,-611.9 331.38,-608.34 336,-604 401.64,-542.34 422.1,-430.37 428.13,-380.34"/>
<polygon fill="#63b8ff" stroke="#63b8ff" points="431.64,-380.42 429.27,-370.1 424.69,-379.65 431.64,-380.42"/>
</a>
</g>
</g>
<!-- Node6&#45;&gt;Node3 -->
<g id="edge8_Node000006_Node000003" class="edge">
<title>Node6&#45;&gt;Node3</title>
<g id="a_edge8_Node000006_Node000003"><a xlink:title=" ">
<path fill="none" stroke="#63b8ff" d="M322.58,-575.34C327.4,-573.09 331.95,-570.34 336,-567 395.15,-518.19 418.58,-424.79 426.71,-380.07"/>
<polygon fill="#63b8ff" stroke="#63b8ff" points="430.19,-380.5 428.42,-370.06 423.29,-379.32 430.19,-380.5"/>
</a>
</g>
</g>
<!-- Node7&#45;&gt;Node3 -->
<g id="edge10_Node000007_Node000003" class="edge">
<title>Node7&#45;&gt;Node3</title>
<g id="a_edge10_Node000007_Node000003"><a xlink:title=" ">
<path fill="none" stroke="#63b8ff" d="M321.53,-538.34C326.7,-536.1 331.61,-533.35 336,-530 386.3,-491.61 413.01,-418.5 424.13,-380.05"/>
<polygon fill="#63b8ff" stroke="#63b8ff" points="427.57,-380.76 426.86,-370.19 420.82,-378.89 427.57,-380.76"/>
</a>
</g>
</g>
<!-- Node8&#45;&gt;Node3 -->
<g id="edge12_Node000008_Node000003" class="edge">
<title>Node8&#45;&gt;Node3</title>
<g id="a_edge12_Node000008_Node000003"><a xlink:title=" ">
<path fill="none" stroke="#63b8ff" d="M317.61,-501.38C324.12,-498.93 330.41,-495.85 336,-492 377.43,-463.43 406.22,-410.33 420.4,-379.3"/>
<polygon fill="#63b8ff" stroke="#63b8ff" points="423.64,-380.62 424.49,-370.06 417.24,-377.79 423.64,-380.62"/>
</a>
</g>
</g>
<!-- Node9&#45;&gt;Node3 -->
<g id="edge14_Node000009_Node000003" class="edge">
<title>Node9&#45;&gt;Node3</title>
<g id="a_edge14_Node000009_Node000003"><a xlink:title=" ">
<path fill="none" stroke="#63b8ff" d="M317.28,-452.96C323.78,-450.38 330.16,-447.41 336,-444 365.95,-426.54 394.02,-397.93 411.66,-377.88"/>
<polygon fill="#63b8ff" stroke="#63b8ff" points="414.46,-379.99 418.34,-370.13 409.16,-375.42 414.46,-379.99"/>
</a>
</g>
</g>
<!-- Node10&#45;&gt;Node3 -->
<g id="edge16_Node000010_Node000003" class="edge">
<title>Node10&#45;&gt;Node3</title>
<g id="a_edge16_Node000010_Node000003"><a xlink:title=" ">
<path fill="none" stroke="#63b8ff" d="M310.04,-404.9C318.76,-402.1 327.68,-399.08 336,-396 353.52,-389.51 372.49,-381.48 388.79,-374.26"/>
<polygon fill="#63b8ff" stroke="#63b8ff" points="390.36,-377.4 398.06,-370.12 387.5,-371.01 390.36,-377.4"/>
</a>
</g>
</g>
<!-- Node11&#45;&gt;Node3 -->
<g id="edge18_Node000011_Node000003" class="edge">
<title>Node11&#45;&gt;Node3</title>
<g id="a_edge18_Node000011_Node000003"><a xlink:title=" ">
<path fill="none" stroke="#63b8ff" d="M332.94,-367.48C342.48,-366.26 352.2,-365.01 361.64,-363.81"/>
<polygon fill="#63b8ff" stroke="#63b8ff" points="362.28,-367.25 371.75,-362.51 361.39,-360.31 362.28,-367.25"/>
</a>
</g>
</g>
<!-- Node12&#45;&gt;Node3 -->
<g id="edge20_Node000012_Node000003" class="edge">
<title>Node12&#45;&gt;Node3</title>
<g id="a_edge20_Node000012_Node000003"><a xlink:title=" ">
<path fill="none" stroke="#63b8ff" d="M329.95,-342.72C340.51,-344.01 351.37,-345.34 361.88,-346.62"/>
<polygon fill="#63b8ff" stroke="#63b8ff" points="361.46,-350.1 371.81,-347.83 362.31,-343.15 361.46,-350.1"/>
</a>
</g>
</g>
<!-- Node13&#45;&gt;Node3 -->
<g id="edge22_Node000013_Node000003" class="edge">
<title>Node13&#45;&gt;Node3</title>
<g id="a_edge22_Node000013_Node000003"><a xlink:title=" ">
<path fill="none" stroke="#63b8ff" d="M310.97,-301.12C319.41,-303.88 328,-306.87 336,-310 354.99,-317.42 375.49,-326.98 392.53,-335.38"/>
<polygon fill="#63b8ff" stroke="#63b8ff" points="391.1,-338.58 401.61,-339.91 394.22,-332.31 391.1,-338.58"/>
</a>
</g>
</g>
<!-- Node14&#45;&gt;Node3 -->
<g id="edge24_Node000014_Node000003" class="edge">
<title>Node14&#45;&gt;Node3</title>
<g id="a_edge24_Node000014_Node000003"><a xlink:title=" ">
<path fill="none" stroke="#63b8ff" d="M313.68,-252.62C321.44,-255.08 329.1,-258.15 336,-262 367.59,-279.62 396,-310.65 413.24,-331.99"/>
<polygon fill="#63b8ff" stroke="#63b8ff" points="410.55,-334.24 419.49,-339.92 416.05,-329.9 410.55,-334.24"/>
</a>
</g>
</g>
<!-- Node15&#45;&gt;Node3 -->
<g id="edge26_Node000015_Node000003" class="edge">
<title>Node15&#45;&gt;Node3</title>
<g id="a_edge26_Node000015_Node000003"><a xlink:title=" ">
<path fill="none" stroke="#63b8ff" d="M317.11,-215.61C323.79,-218.06 330.25,-221.14 336,-225 375.75,-251.69 404.67,-301.01 419.42,-330.63"/>
<polygon fill="#63b8ff" stroke="#63b8ff" points="416.38,-332.37 423.87,-339.86 422.68,-329.33 416.38,-332.37"/>
</a>
</g>
</g>
<!-- Node16&#45;&gt;Node3 -->
<g id="edge28_Node000016_Node000003" class="edge">
<title>Node16&#45;&gt;Node3</title>
<g id="a_edge28_Node000016_Node000003"><a xlink:title=" ">
<path fill="none" stroke="#63b8ff" d="M317.56,-177.99C324.16,-180.55 330.48,-183.82 336,-188 384.1,-224.43 411.44,-292.9 423.32,-329.84"/>
<polygon fill="#63b8ff" stroke="#63b8ff" points="420.1,-331.28 426.39,-339.8 426.79,-329.21 420.1,-331.28"/>
</a>
</g>
</g>
<!-- Node17&#45;&gt;Node3 -->
<g id="edge30_Node000017_Node000003" class="edge">
<title>Node17&#45;&gt;Node3</title>
<g id="a_edge30_Node000017_Node000003"><a xlink:title=" ">
<path fill="none" stroke="#63b8ff" d="M320.24,-141.54C325.92,-144.02 331.29,-147.13 336,-151 392.95,-197.88 417.32,-286.72 426.17,-330.02"/>
<polygon fill="#63b8ff" stroke="#63b8ff" points="422.76,-330.84 428.1,-339.99 429.64,-329.51 422.76,-330.84"/>
</a>
</g>
</g>
<!-- Node18&#45;&gt;Node3 -->
<g id="edge32_Node000018_Node000003" class="edge">
<title>Node18&#45;&gt;Node3</title>
<g id="a_edge32_Node000018_Node000003"><a xlink:title=" ">
<path fill="none" stroke="#63b8ff" d="M316.59,-102.62C323.67,-105.38 330.37,-109.07 336,-114 401.72,-171.5 422.12,-280.55 428.13,-329.77"/>
<polygon fill="#63b8ff" stroke="#63b8ff" points="424.67,-330.32 429.26,-339.87 431.63,-329.54 424.67,-330.32"/>
</a>
</g>
</g>
<!-- Node19&#45;&gt;Node3 -->
<g id="edge34_Node000019_Node000003" class="edge">
<title>Node19&#45;&gt;Node3</title>
<g id="a_edge34_Node000019_Node000003"><a xlink:title=" ">
<path fill="none" stroke="#63b8ff" d="M314.84,-64.63C322.61,-67.49 329.97,-71.48 336,-77 410.72,-145.47 426.38,-275.25 429.65,-329.82"/>
<polygon fill="#63b8ff" stroke="#63b8ff" points="426.16,-330.18 430.16,-339.99 433.15,-329.82 426.16,-330.18"/>
</a>
</g>
</g>
<!-- Node20&#45;&gt;Node3 -->
<g id="edge36_Node000020_Node000003" class="edge">
<title>Node20&#45;&gt;Node3</title>
<g id="a_edge36_Node000020_Node000003"><a xlink:title=" ">
<path fill="none" stroke="#63b8ff" d="M317.13,-26.95C324.12,-30.28 330.66,-34.55 336,-40 416.51,-122.19 428.83,-270.17 430.42,-329.43"/>
<polygon fill="#63b8ff" stroke="#63b8ff" points="426.93,-329.81 430.61,-339.75 433.93,-329.68 426.93,-329.81"/>
</a>
</g>
</g>
</g>
</svg>
