<?xml version="1.0" encoding="UTF-8" standalone="no"?>
<!DOCTYPE svg PUBLIC "-//W3C//DTD SVG 1.1//EN"
 "http://www.w3.org/Graphics/SVG/1.1/DTD/svg11.dtd">
<!-- Generated by graphviz version 2.43.0 (0)
 -->
<!-- Title: lci::post_recv_x::post_recv_x Pages: 1 -->
<svg width="834pt" height="653pt"
 viewBox="0.00 0.00 834.00 652.57" xmlns="http://www.w3.org/2000/svg" xmlns:xlink="http://www.w3.org/1999/xlink">
<g id="graph0" class="graph" transform="scale(1 1) rotate(0) translate(4 648.57)">
<title>lci::post_recv_x::post_recv_x</title>
<!-- Node1 -->
<g id="Node000001" class="node">
<title>Node1</title>
<g id="a_Node000001"><a xlink:title=" ">
<polygon fill="#999999" stroke="#666666" points="826,-326.07 707,-326.07 707,-296.07 826,-296.07 826,-326.07"/>
<text text-anchor="start" x="715" y="-314.07" font-family="Helvetica,sans-Serif" font-size="10.00">lci::post_recv_x::post</text>
<text text-anchor="middle" x="766.5" y="-303.07" font-family="Helvetica,sans-Serif" font-size="10.00">_recv_x</text>
</a>
</g>
</g>
<!-- Node2 -->
<g id="Node000002" class="node">
<title>Node2</title>
<g id="a_Node000002"><a xlink:href="../../d7/df5/classlci_1_1post__recv__x.html#a1947446eaad7deef7777f457dcf39ddb" target="_top" xlink:title=" ">
<polygon fill="white" stroke="#666666" points="669.5,-644.57 515.5,-644.57 515.5,-625.57 669.5,-625.57 669.5,-644.57"/>
<text text-anchor="middle" x="592.5" y="-632.57" font-family="Helvetica,sans-Serif" font-size="10.00">lci::post_recv_x::allow_done</text>
</a>
</g>
</g>
<!-- Node1&#45;&gt;Node2 -->
<g id="edge1_Node000001_Node000002" class="edge">
<title>Node1&#45;&gt;Node2</title>
<g id="a_edge1_Node000001_Node000002"><a xlink:title=" ">
<path fill="none" stroke="#63b8ff" d="M765.53,-336.23C764.17,-394.48 752.32,-539.48 671,-616.07 666.97,-619.86 662.3,-622.94 657.3,-625.43"/>
<polygon fill="#63b8ff" stroke="#63b8ff" points="769.03,-336.14 765.68,-326.09 762.03,-336.03 769.03,-336.14"/>
</a>
</g>
</g>
<!-- Node7 -->
<g id="Node000007" class="node">
<title>Node7</title>
<g id="a_Node000007"><a xlink:href="../../d7/df5/classlci_1_1post__recv__x.html#a03c71a900079f2a09bca2663ba2af4ab" target="_top" xlink:title=" ">
<polygon fill="white" stroke="#666666" points="655,-607.07 530,-607.07 530,-577.07 655,-577.07 655,-607.07"/>
<text text-anchor="start" x="538" y="-595.07" font-family="Helvetica,sans-Serif" font-size="10.00">lci::post_recv_x::allow</text>
<text text-anchor="middle" x="592.5" y="-584.07" font-family="Helvetica,sans-Serif" font-size="10.00">_posted</text>
</a>
</g>
</g>
<!-- Node1&#45;&gt;Node7 -->
<g id="edge7_Node000001_Node000007" class="edge">
<title>Node1&#45;&gt;Node7</title>
<g id="a_edge7_Node000001_Node000007"><a xlink:title=" ">
<path fill="none" stroke="#63b8ff" d="M763.47,-336.51C758,-387.77 738.45,-504.03 671,-568.07 666.4,-572.43 661.03,-576 655.29,-578.92"/>
<polygon fill="#63b8ff" stroke="#63b8ff" points="766.97,-336.61 764.46,-326.32 760.01,-335.93 766.97,-336.61"/>
</a>
</g>
</g>
<!-- Node8 -->
<g id="Node000008" class="node">
<title>Node8</title>
<g id="a_Node000008"><a xlink:href="../../d7/df5/classlci_1_1post__recv__x.html#a8ca868991d765fd27ad39a0f912d019c" target="_top" xlink:title=" ">
<polygon fill="white" stroke="#666666" points="655,-559.07 530,-559.07 530,-529.07 655,-529.07 655,-559.07"/>
<text text-anchor="start" x="538" y="-547.07" font-family="Helvetica,sans-Serif" font-size="10.00">lci::post_recv_x::allow</text>
<text text-anchor="middle" x="592.5" y="-536.07" font-family="Helvetica,sans-Serif" font-size="10.00">_retry</text>
</a>
</g>
</g>
<!-- Node1&#45;&gt;Node8 -->
<g id="edge10_Node000001_Node000008" class="edge">
<title>Node1&#45;&gt;Node8</title>
<g id="a_edge10_Node000001_Node000008"><a xlink:title=" ">
<path fill="none" stroke="#63b8ff" d="M761.06,-336.29C752.04,-380.09 727.42,-470.26 671,-520.07 666.35,-524.17 661.02,-527.57 655.36,-530.39"/>
<polygon fill="#63b8ff" stroke="#63b8ff" points="764.55,-336.7 763.03,-326.21 757.68,-335.36 764.55,-336.7"/>
</a>
</g>
</g>
<!-- Node9 -->
<g id="Node000009" class="node">
<title>Node9</title>
<g id="a_Node000009"><a xlink:href="../../d7/df5/classlci_1_1post__recv__x.html#a915e9ab9980e2703666515e412f9a921" target="_top" xlink:title=" ">
<polygon fill="white" stroke="#666666" points="658,-510.57 527,-510.57 527,-491.57 658,-491.57 658,-510.57"/>
<text text-anchor="middle" x="592.5" y="-498.57" font-family="Helvetica,sans-Serif" font-size="10.00">lci::post_recv_x::device</text>
</a>
</g>
</g>
<!-- Node1&#45;&gt;Node9 -->
<g id="edge13_Node000001_Node000009" class="edge">
<title>Node1&#45;&gt;Node9</title>
<g id="a_edge13_Node000001_Node000009"><a xlink:title=" ">
<path fill="none" stroke="#63b8ff" d="M758.92,-335.98C747.58,-373.85 720.65,-445.45 671,-483.07 666.49,-486.49 661.43,-489.27 656.12,-491.54"/>
<polygon fill="#63b8ff" stroke="#63b8ff" points="762.32,-336.83 761.71,-326.25 755.59,-334.9 762.32,-336.83"/>
</a>
</g>
</g>
<!-- Node10 -->
<g id="Node000010" class="node">
<title>Node10</title>
<g id="a_Node000010"><a xlink:href="../../d7/df5/classlci_1_1post__recv__x.html#a6f1dea52919f69662a2fb21c0f6b810d" target="_top" xlink:title=" ">
<polygon fill="white" stroke="#666666" points="663,-473.57 522,-473.57 522,-454.57 663,-454.57 663,-473.57"/>
<text text-anchor="middle" x="592.5" y="-461.57" font-family="Helvetica,sans-Serif" font-size="10.00">lci::post_recv_x::endpoint</text>
</a>
</g>
</g>
<!-- Node1&#45;&gt;Node10 -->
<g id="edge16_Node000001_Node000010" class="edge">
<title>Node1&#45;&gt;Node10</title>
<g id="a_edge16_Node000001_Node000010"><a xlink:title=" ">
<path fill="none" stroke="#63b8ff" d="M754.85,-335.7C740.37,-366.18 711.57,-417.4 671,-445.07 665.28,-448.97 658.83,-452.07 652.17,-454.54"/>
<polygon fill="#63b8ff" stroke="#63b8ff" points="758.2,-336.78 759.2,-326.23 751.84,-333.85 758.2,-336.78"/>
</a>
</g>
</g>
<!-- Node11 -->
<g id="Node000011" class="node">
<title>Node11</title>
<g id="a_Node000011"><a xlink:href="../../d7/df5/classlci_1_1post__recv__x.html#ae8557d3e45cb7ada864ff6d7ed0450dc" target="_top" xlink:title=" ">
<polygon fill="white" stroke="#666666" points="653.5,-436.07 531.5,-436.07 531.5,-406.07 653.5,-406.07 653.5,-436.07"/>
<text text-anchor="start" x="539.5" y="-424.07" font-family="Helvetica,sans-Serif" font-size="10.00">lci::post_recv_x::local</text>
<text text-anchor="middle" x="592.5" y="-413.07" font-family="Helvetica,sans-Serif" font-size="10.00">_buffer</text>
</a>
</g>
</g>
<!-- Node1&#45;&gt;Node11 -->
<g id="edge19_Node000001_Node000011" class="edge">
<title>Node1&#45;&gt;Node11</title>
<g id="a_edge19_Node000001_Node000011"><a xlink:title=" ">
<path fill="none" stroke="#63b8ff" d="M745.89,-333.81C728.12,-353.13 700.28,-380.33 671,-397.07 665.13,-400.42 658.74,-403.36 652.22,-405.93"/>
<polygon fill="#63b8ff" stroke="#63b8ff" points="748.55,-336.09 752.65,-326.32 743.35,-331.4 748.55,-336.09"/>
</a>
</g>
</g>
<!-- Node12 -->
<g id="Node000012" class="node">
<title>Node12</title>
<g id="a_Node000012"><a xlink:href="../../d7/df5/classlci_1_1post__recv__x.html#adbb1b53ef004aa0acec76303833a8b6c" target="_top" xlink:title=" ">
<polygon fill="white" stroke="#666666" points="669.5,-387.57 515.5,-387.57 515.5,-368.57 669.5,-368.57 669.5,-387.57"/>
<text text-anchor="middle" x="592.5" y="-375.57" font-family="Helvetica,sans-Serif" font-size="10.00">lci::post_recv_x::local_comp</text>
</a>
</g>
</g>
<!-- Node1&#45;&gt;Node12 -->
<g id="edge22_Node000001_Node000012" class="edge">
<title>Node1&#45;&gt;Node12</title>
<g id="a_edge22_Node000001_Node000012"><a xlink:title=" ">
<path fill="none" stroke="#63b8ff" d="M730.53,-331.26C713.07,-340.7 691.38,-351.51 671,-359.07 661.13,-362.73 650.29,-365.89 639.92,-368.53"/>
<polygon fill="#63b8ff" stroke="#63b8ff" points="732.68,-334.07 739.75,-326.18 729.3,-327.94 732.68,-334.07"/>
</a>
</g>
</g>
<!-- Node13 -->
<g id="Node000013" class="node">
<title>Node13</title>
<g id="a_Node000013"><a xlink:href="../../d7/df5/classlci_1_1post__recv__x.html#a76de3f961791a8c279f4a3cc08b1864f" target="_top" xlink:title=" ">
<polygon fill="white" stroke="#666666" points="664.5,-350.07 520.5,-350.07 520.5,-320.07 664.5,-320.07 664.5,-350.07"/>
<text text-anchor="start" x="528.5" y="-338.07" font-family="Helvetica,sans-Serif" font-size="10.00">lci::post_recv_x::matching</text>
<text text-anchor="middle" x="592.5" y="-327.07" font-family="Helvetica,sans-Serif" font-size="10.00">_engine</text>
</a>
</g>
</g>
<!-- Node1&#45;&gt;Node13 -->
<g id="edge25_Node000001_Node000013" class="edge">
<title>Node1&#45;&gt;Node13</title>
<g id="a_edge25_Node000001_Node000013"><a xlink:title=" ">
<path fill="none" stroke="#63b8ff" d="M696.81,-320.65C686.25,-322.12 675.34,-323.65 664.73,-325.13"/>
<polygon fill="#63b8ff" stroke="#63b8ff" points="697.37,-324.11 706.79,-319.26 696.4,-317.17 697.37,-324.11"/>
</a>
</g>
</g>
<!-- Node14 -->
<g id="Node000014" class="node">
<title>Node14</title>
<g id="a_Node000014"><a xlink:href="../../d7/df5/classlci_1_1post__recv__x.html#ae7d42f2f368c4515abf46e9490c117c1" target="_top" xlink:title=" ">
<polygon fill="white" stroke="#666666" points="664.5,-302.07 520.5,-302.07 520.5,-272.07 664.5,-272.07 664.5,-302.07"/>
<text text-anchor="start" x="528.5" y="-290.07" font-family="Helvetica,sans-Serif" font-size="10.00">lci::post_recv_x::matching</text>
<text text-anchor="middle" x="592.5" y="-279.07" font-family="Helvetica,sans-Serif" font-size="10.00">_policy</text>
</a>
</g>
</g>
<!-- Node1&#45;&gt;Node14 -->
<g id="edge28_Node000001_Node000014" class="edge">
<title>Node1&#45;&gt;Node14</title>
<g id="a_edge28_Node000001_Node000014"><a xlink:title=" ">
<path fill="none" stroke="#63b8ff" d="M696.81,-301.48C686.25,-300.01 675.34,-298.48 664.73,-297.01"/>
<polygon fill="#63b8ff" stroke="#63b8ff" points="696.4,-304.96 706.79,-302.87 697.37,-298.02 696.4,-304.96"/>
</a>
</g>
</g>
<!-- Node15 -->
<g id="Node000015" class="node">
<title>Node15</title>
<g id="a_Node000015"><a xlink:href="../../d7/df5/classlci_1_1post__recv__x.html#a81500b0a4a099640f205288897358c98" target="_top" xlink:title=" ">
<polygon fill="white" stroke="#666666" points="648.5,-253.57 536.5,-253.57 536.5,-234.57 648.5,-234.57 648.5,-253.57"/>
<text text-anchor="middle" x="592.5" y="-241.57" font-family="Helvetica,sans-Serif" font-size="10.00">lci::post_recv_x::mr</text>
</a>
</g>
</g>
<!-- Node1&#45;&gt;Node15 -->
<g id="edge31_Node000001_Node000015" class="edge">
<title>Node1&#45;&gt;Node15</title>
<g id="a_edge31_Node000001_Node000015"><a xlink:title=" ">
<path fill="none" stroke="#63b8ff" d="M730.53,-290.87C713.07,-281.43 691.38,-270.62 671,-263.07 661.13,-259.4 650.29,-256.24 639.92,-253.61"/>
<polygon fill="#63b8ff" stroke="#63b8ff" points="729.3,-294.19 739.75,-295.95 732.68,-288.06 729.3,-294.19"/>
</a>
</g>
</g>
<!-- Node16 -->
<g id="Node000016" class="node">
<title>Node16</title>
<g id="a_Node000016"><a xlink:href="../../d7/df5/classlci_1_1post__recv__x.html#a2d1ee93d55d1c99e24a1c09ac28bad37" target="_top" xlink:title=" ">
<polygon fill="white" stroke="#666666" points="671,-216.57 514,-216.57 514,-197.57 671,-197.57 671,-216.57"/>
<text text-anchor="middle" x="592.5" y="-204.57" font-family="Helvetica,sans-Serif" font-size="10.00">lci::post_recv_x::packet_pool</text>
</a>
</g>
</g>
<!-- Node1&#45;&gt;Node16 -->
<g id="edge34_Node000001_Node000016" class="edge">
<title>Node1&#45;&gt;Node16</title>
<g id="a_edge34_Node000001_Node000016"><a xlink:title=" ">
<path fill="none" stroke="#63b8ff" d="M746.39,-288.5C728.75,-269.1 700.83,-241.84 671,-226.07 663.65,-222.18 655.49,-219.07 647.3,-216.59"/>
<polygon fill="#63b8ff" stroke="#63b8ff" points="743.81,-290.87 753.07,-296.01 749.04,-286.22 743.81,-290.87"/>
</a>
</g>
</g>
<!-- Node17 -->
<g id="Node000017" class="node">
<title>Node17</title>
<g id="a_Node000017"><a xlink:href="../../d7/df5/classlci_1_1post__recv__x.html#ab3a3f91b24b7e39b7bcd45602faec4ee" target="_top" xlink:title=" ">
<polygon fill="white" stroke="#666666" points="652.5,-179.57 532.5,-179.57 532.5,-160.57 652.5,-160.57 652.5,-179.57"/>
<text text-anchor="middle" x="592.5" y="-167.57" font-family="Helvetica,sans-Serif" font-size="10.00">lci::post_recv_x::rank</text>
</a>
</g>
</g>
<!-- Node1&#45;&gt;Node17 -->
<g id="edge37_Node000001_Node000017" class="edge">
<title>Node1&#45;&gt;Node17</title>
<g id="a_edge37_Node000001_Node000017"><a xlink:title=" ">
<path fill="none" stroke="#63b8ff" d="M753.35,-286.95C738.01,-259.03 708.98,-213.74 671,-189.07 665.08,-185.22 658.44,-182.15 651.6,-179.7"/>
<polygon fill="#63b8ff" stroke="#63b8ff" points="750.4,-288.86 758.2,-296.04 756.58,-285.57 750.4,-288.86"/>
</a>
</g>
</g>
<!-- Node18 -->
<g id="Node000018" class="node">
<title>Node18</title>
<g id="a_Node000018"><a xlink:href="../../d7/df5/classlci_1_1post__recv__x.html#a377ff95b56068a680c9f92db75bd9f5d" target="_top" xlink:title=" ">
<polygon fill="white" stroke="#666666" points="661,-142.57 524,-142.57 524,-123.57 661,-123.57 661,-142.57"/>
<text text-anchor="middle" x="592.5" y="-130.57" font-family="Helvetica,sans-Serif" font-size="10.00">lci::post_recv_x::runtime</text>
</a>
</g>
</g>
<!-- Node1&#45;&gt;Node18 -->
<g id="edge40_Node000001_Node000018" class="edge">
<title>Node1&#45;&gt;Node18</title>
<g id="a_edge40_Node000001_Node000018"><a xlink:title=" ">
<path fill="none" stroke="#63b8ff" d="M757.59,-286.03C745.08,-250.6 717.27,-186.33 671,-152.07 665.77,-148.19 659.84,-145.1 653.66,-142.63"/>
<polygon fill="#63b8ff" stroke="#63b8ff" points="754.32,-287.28 760.86,-295.62 760.95,-285.03 754.32,-287.28"/>
</a>
</g>
</g>
<!-- Node19 -->
<g id="Node000019" class="node">
<title>Node19</title>
<g id="a_Node000019"><a xlink:href="../../d7/df5/classlci_1_1post__recv__x.html#a4a01e7ab7a4d3004dfd31e39ba7df6fc" target="_top" xlink:title=" ">
<polygon fill="white" stroke="#666666" points="651.5,-105.57 533.5,-105.57 533.5,-86.57 651.5,-86.57 651.5,-105.57"/>
<text text-anchor="middle" x="592.5" y="-93.57" font-family="Helvetica,sans-Serif" font-size="10.00">lci::post_recv_x::size</text>
</a>
</g>
</g>
<!-- Node1&#45;&gt;Node19 -->
<g id="edge43_Node000001_Node000019" class="edge">
<title>Node1&#45;&gt;Node19</title>
<g id="a_edge43_Node000001_Node000019"><a xlink:title=" ">
<path fill="none" stroke="#63b8ff" d="M760.6,-285.85C751.07,-243.81 725.95,-159.59 671,-115.07 665.3,-110.44 658.63,-106.92 651.65,-104.24"/>
<polygon fill="#63b8ff" stroke="#63b8ff" points="757.22,-286.78 762.74,-295.82 764.06,-285.31 757.22,-286.78"/>
</a>
</g>
</g>
<!-- Node20 -->
<g id="Node000020" class="node">
<title>Node20</title>
<g id="a_Node000020"><a xlink:href="../../d7/df5/classlci_1_1post__recv__x.html#a21534b481f5e6fe3e63fe8e86c255b57" target="_top" xlink:title=" ">
<polygon fill="white" stroke="#666666" points="649.5,-68.57 535.5,-68.57 535.5,-49.57 649.5,-49.57 649.5,-68.57"/>
<text text-anchor="middle" x="592.5" y="-56.57" font-family="Helvetica,sans-Serif" font-size="10.00">lci::post_recv_x::tag</text>
</a>
</g>
</g>
<!-- Node1&#45;&gt;Node20 -->
<g id="edge46_Node000001_Node000020" class="edge">
<title>Node1&#45;&gt;Node20</title>
<g id="a_edge46_Node000001_Node000020"><a xlink:title=" ">
<path fill="none" stroke="#63b8ff" d="M762.72,-285.67C756.07,-237.58 734.72,-133.16 671,-78.07 664.82,-72.72 657.37,-68.83 649.56,-66.01"/>
<polygon fill="#63b8ff" stroke="#63b8ff" points="759.28,-286.35 764.02,-295.83 766.23,-285.46 759.28,-286.35"/>
</a>
</g>
</g>
<!-- Node21 -->
<g id="Node000021" class="node">
<title>Node21</title>
<g id="a_Node000021"><a xlink:href="../../d7/df5/classlci_1_1post__recv__x.html#a63075f18228e79db948fef48bb02fad5" target="_top" xlink:title=" ">
<polygon fill="white" stroke="#666666" points="652,-31.07 533,-31.07 533,-1.07 652,-1.07 652,-31.07"/>
<text text-anchor="start" x="541" y="-19.07" font-family="Helvetica,sans-Serif" font-size="10.00">lci::post_recv_x::user</text>
<text text-anchor="middle" x="592.5" y="-8.07" font-family="Helvetica,sans-Serif" font-size="10.00">_context</text>
</a>
</g>
</g>
<!-- Node1&#45;&gt;Node21 -->
<g id="edge49_Node000001_Node000021" class="edge">
<title>Node1&#45;&gt;Node21</title>
<g id="a_edge49_Node000001_Node000021"><a xlink:title=" ">
<path fill="none" stroke="#63b8ff" d="M764.04,-285.75C759.59,-232.54 741.78,-108.4 671,-40.07 665.63,-34.88 659.16,-30.81 652.28,-27.62"/>
<polygon fill="#63b8ff" stroke="#63b8ff" points="760.57,-286.27 764.8,-295.98 767.55,-285.75 760.57,-286.27"/>
</a>
</g>
</g>
<!-- Node3 -->
<g id="Node000003" class="node">
<title>Node3</title>
<g id="a_Node000003"><a xlink:href="../../d7/df5/classlci_1_1post__recv__x.html#af9eb537b71e94ae42ec4f8737c16582c" target="_top" xlink:title=" ">
<polygon fill="white" stroke="#666666" points="299,-329.57 183,-329.57 183,-310.57 299,-310.57 299,-329.57"/>
<text text-anchor="middle" x="241" y="-317.57" font-family="Helvetica,sans-Serif" font-size="10.00">lci::post_recv_x::call</text>
</a>
</g>
</g>
<!-- Node2&#45;&gt;Node3 -->
<g id="edge2_Node000002_Node000003" class="edge">
<title>Node2&#45;&gt;Node3</title>
<g id="a_edge2_Node000002_Node000003"><a xlink:title=" ">
<path fill="none" stroke="#63b8ff" d="M505.23,-631.64C450.33,-625.11 381.13,-608.26 335,-566.07 261.22,-498.58 245.61,-366.53 242.64,-329.77"/>
<polygon fill="#63b8ff" stroke="#63b8ff" points="504.99,-635.13 515.31,-632.74 505.75,-628.17 504.99,-635.13"/>
</a>
</g>
</g>
<!-- Node6 -->
<g id="Node000006" class="node">
<title>Node6</title>
<g id="a_Node000006"><a xlink:href="../../d7/df5/classlci_1_1post__recv__x.html#aa1c6575fb46e6baa1c7e3d8f546d6226" target="_top" xlink:title=" ">
<polygon fill="white" stroke="#666666" points="478,-329.57 335,-329.57 335,-310.57 478,-310.57 478,-329.57"/>
<text text-anchor="middle" x="406.5" y="-317.57" font-family="Helvetica,sans-Serif" font-size="10.00">lci::post_recv_x::call_impl</text>
</a>
</g>
</g>
<!-- Node2&#45;&gt;Node6 -->
<g id="edge5_Node000002_Node000006" class="edge">
<title>Node2&#45;&gt;Node6</title>
<g id="a_edge5_Node000002_Node000006"><a xlink:title=" ">
<path fill="none" stroke="#63b8ff" d="M519.44,-620.34C517.53,-619.03 515.71,-617.61 514,-616.07 423.69,-534.77 409.91,-371.19 407.85,-329.77"/>
<polygon fill="#63b8ff" stroke="#63b8ff" points="517.85,-623.47 528.26,-625.41 521.33,-617.4 517.85,-623.47"/>
</a>
</g>
</g>
<!-- Node4 -->
<g id="Node000004" class="node">
<title>Node4</title>
<g id="a_Node000004"><a xlink:href="../../d7/df5/classlci_1_1post__recv__x.html#a4f418206d59336125683d444a5b3e1a8" target="_top" xlink:title=" ">
<polygon fill="white" stroke="#666666" points="147,-348.57 0,-348.57 0,-329.57 147,-329.57 147,-348.57"/>
<text text-anchor="middle" x="73.5" y="-336.57" font-family="Helvetica,sans-Serif" font-size="10.00">lci::post_recv_x::operator()</text>
</a>
</g>
</g>
<!-- Node3&#45;&gt;Node4 -->
<g id="edge3_Node000003_Node000004" class="edge">
<title>Node3&#45;&gt;Node4</title>
<g id="a_edge3_Node000003_Node000004"><a xlink:title=" ">
<path fill="none" stroke="#63b8ff" d="M172.55,-327.81C164.22,-328.77 155.67,-329.75 147.27,-330.71"/>
<polygon fill="#63b8ff" stroke="#63b8ff" points="173.05,-331.28 182.58,-326.66 172.25,-324.32 173.05,-331.28"/>
</a>
</g>
</g>
<!-- Node5 -->
<g id="Node000005" class="node">
<title>Node5</title>
<g id="a_Node000005"><a xlink:href="../../d5/dd3/namespacelci.html#af1956c62d0f6291162988088abe93e73" target="_top" xlink:title=" ">
<polygon fill="white" stroke="#666666" points="114,-311.57 33,-311.57 33,-292.57 114,-292.57 114,-311.57"/>
<text text-anchor="middle" x="73.5" y="-299.57" font-family="Helvetica,sans-Serif" font-size="10.00">lci::post_recv</text>
</a>
</g>
</g>
<!-- Node3&#45;&gt;Node5 -->
<g id="edge4_Node000003_Node000005" class="edge">
<title>Node3&#45;&gt;Node5</title>
<g id="a_edge4_Node000003_Node000005"><a xlink:title=" ">
<path fill="none" stroke="#63b8ff" d="M172.63,-312.74C152.75,-310.58 131.65,-308.28 114.12,-306.37"/>
<polygon fill="#63b8ff" stroke="#63b8ff" points="172.26,-316.22 182.58,-313.82 173.02,-309.26 172.26,-316.22"/>
</a>
</g>
</g>
<!-- Node6&#45;&gt;Node3 -->
<g id="edge6_Node000006_Node000003" class="edge">
<title>Node6&#45;&gt;Node3</title>
<g id="a_edge6_Node000006_Node000003"><a xlink:title=" ">
<path fill="none" stroke="#63b8ff" d="M324.64,-320.07C316.01,-320.07 307.36,-320.07 299.09,-320.07"/>
<polygon fill="#63b8ff" stroke="#63b8ff" points="324.74,-323.57 334.74,-320.07 324.74,-316.57 324.74,-323.57"/>
</a>
</g>
</g>
<!-- Node7&#45;&gt;Node3 -->
<g id="edge8_Node000007_Node000003" class="edge">
<title>Node7&#45;&gt;Node3</title>
<g id="a_edge8_Node000007_Node000003"><a xlink:title=" ">
<path fill="none" stroke="#63b8ff" d="M519.59,-588.64C463.52,-582.47 386.72,-565.89 335,-522.07 271.67,-468.41 249.12,-362.4 243.52,-329.82"/>
<polygon fill="#63b8ff" stroke="#63b8ff" points="519.51,-592.15 529.81,-589.67 520.22,-585.18 519.51,-592.15"/>
</a>
</g>
</g>
<!-- Node7&#45;&gt;Node6 -->
<g id="edge9_Node000007_Node000006" class="edge">
<title>Node7&#45;&gt;Node6</title>
<g id="a_edge9_Node000007_Node000006"><a xlink:title=" ">
<path fill="none" stroke="#63b8ff" d="M521.07,-573.55C518.58,-571.88 516.21,-570.05 514,-568.07 437.72,-499.42 414.01,-366.73 408.75,-329.81"/>
<polygon fill="#63b8ff" stroke="#63b8ff" points="519.53,-576.7 529.94,-578.67 523.03,-570.64 519.53,-576.7"/>
</a>
</g>
</g>
<!-- Node8&#45;&gt;Node3 -->
<g id="edge11_Node000008_Node000003" class="edge">
<title>Node8&#45;&gt;Node3</title>
<g id="a_edge11_Node000008_Node000003"><a xlink:title=" ">
<path fill="none" stroke="#63b8ff" d="M519.67,-541.78C464.33,-536.7 388.48,-522.17 335,-482.07 280.51,-441.21 252.84,-358.37 244.65,-329.92"/>
<polygon fill="#63b8ff" stroke="#63b8ff" points="519.5,-545.28 529.76,-542.62 520.08,-538.3 519.5,-545.28"/>
</a>
</g>
</g>
<!-- Node8&#45;&gt;Node6 -->
<g id="edge12_Node000008_Node000006" class="edge">
<title>Node8&#45;&gt;Node6</title>
<g id="a_edge12_Node000008_Node000006"><a xlink:title=" ">
<path fill="none" stroke="#63b8ff" d="M521.11,-525.2C518.62,-523.63 516.24,-521.92 514,-520.07 448.82,-466.17 418,-361.73 409.8,-329.67"/>
<polygon fill="#63b8ff" stroke="#63b8ff" points="519.46,-528.29 529.91,-530.07 522.85,-522.17 519.46,-528.29"/>
</a>
</g>
</g>
<!-- Node9&#45;&gt;Node3 -->
<g id="edge14_Node000009_Node000003" class="edge">
<title>Node9&#45;&gt;Node3</title>
<g id="a_edge14_Node000009_Node000003"><a xlink:title=" ">
<path fill="none" stroke="#63b8ff" d="M516.69,-498.12C462.49,-492.9 389.47,-479.21 335,-444.07 288.87,-414.3 257.2,-353.23 246.24,-329.65"/>
<polygon fill="#63b8ff" stroke="#63b8ff" points="516.66,-501.64 526.93,-499.03 517.28,-494.66 516.66,-501.64"/>
</a>
</g>
</g>
<!-- Node9&#45;&gt;Node6 -->
<g id="edge15_Node000009_Node000006" class="edge">
<title>Node9&#45;&gt;Node6</title>
<g id="a_edge15_Node000009_Node000006"><a xlink:title=" ">
<path fill="none" stroke="#63b8ff" d="M520.68,-487.18C518.36,-485.92 516.13,-484.55 514,-483.07 455.54,-442.2 421.1,-357.97 410.8,-329.62"/>
<polygon fill="#63b8ff" stroke="#63b8ff" points="519.39,-490.44 529.93,-491.49 522.35,-484.09 519.39,-490.44"/>
</a>
</g>
</g>
<!-- Node10&#45;&gt;Node3 -->
<g id="edge17_Node000010_Node000003" class="edge">
<title>Node10&#45;&gt;Node3</title>
<g id="a_edge17_Node000010_Node000003"><a xlink:title=" ">
<path fill="none" stroke="#63b8ff" d="M511.91,-457.85C459.23,-451.13 389.98,-437.14 335,-408.07 297.07,-388.01 263.47,-348.18 249.23,-329.79"/>
<polygon fill="#63b8ff" stroke="#63b8ff" points="511.53,-461.33 521.88,-459.07 512.38,-454.39 511.53,-461.33"/>
</a>
</g>
</g>
<!-- Node10&#45;&gt;Node6 -->
<g id="edge18_Node000010_Node000006" class="edge">
<title>Node10&#45;&gt;Node6</title>
<g id="a_edge18_Node000010_Node000006"><a xlink:title=" ">
<path fill="none" stroke="#63b8ff" d="M524.82,-450.71C521.05,-449.05 517.42,-447.17 514,-445.07 464.5,-414.53 426.26,-353.28 412.77,-329.66"/>
<polygon fill="#63b8ff" stroke="#63b8ff" points="523.79,-454.07 534.38,-454.44 526.33,-447.55 523.79,-454.07"/>
</a>
</g>
</g>
<!-- Node11&#45;&gt;Node3 -->
<g id="edge20_Node000011_Node000003" class="edge">
<title>Node11&#45;&gt;Node3</title>
<g id="a_edge20_Node000011_Node000003"><a xlink:title=" ">
<path fill="none" stroke="#63b8ff" d="M521.21,-416.71C468.55,-411.69 395.47,-400.96 335,-378.07 303.32,-366.07 270.74,-342.72 253.82,-329.6"/>
<polygon fill="#63b8ff" stroke="#63b8ff" points="521.19,-420.22 531.46,-417.64 521.82,-413.25 521.19,-420.22"/>
</a>
</g>
</g>
<!-- Node11&#45;&gt;Node6 -->
<g id="edge21_Node000011_Node000006" class="edge">
<title>Node11&#45;&gt;Node6</title>
<g id="a_edge21_Node000011_Node000006"><a xlink:title=" ">
<path fill="none" stroke="#63b8ff" d="M525.71,-402.36C521.69,-400.71 517.76,-398.94 514,-397.07 475.83,-378 436.6,-345.7 418.22,-329.68"/>
<polygon fill="#63b8ff" stroke="#63b8ff" points="524.6,-405.68 535.19,-406.02 527.12,-399.15 524.6,-405.68"/>
</a>
</g>
</g>
<!-- Node12&#45;&gt;Node3 -->
<g id="edge23_Node000012_Node000003" class="edge">
<title>Node12&#45;&gt;Node3</title>
<g id="a_edge23_Node000012_Node000003"><a xlink:title=" ">
<path fill="none" stroke="#63b8ff" d="M505.29,-376.14C455.09,-373.58 390.86,-367.83 335,-355.07 309.27,-349.18 281.08,-337.83 262.55,-329.65"/>
<polygon fill="#63b8ff" stroke="#63b8ff" points="505.31,-379.64 515.46,-376.62 505.64,-372.65 505.31,-379.64"/>
</a>
</g>
</g>
<!-- Node12&#45;&gt;Node6 -->
<g id="edge24_Node000012_Node000006" class="edge">
<title>Node12&#45;&gt;Node6</title>
<g id="a_edge24_Node000012_Node000006"><a xlink:title=" ">
<path fill="none" stroke="#63b8ff" d="M539.21,-366.08C530.74,-363.9 522.1,-361.53 514,-359.07 485.18,-350.29 452.77,-338.07 431.35,-329.66"/>
<polygon fill="#63b8ff" stroke="#63b8ff" points="538.48,-369.51 549.04,-368.55 540.19,-362.72 538.48,-369.51"/>
</a>
</g>
</g>
<!-- Node13&#45;&gt;Node3 -->
<g id="edge26_Node000013_Node000003" class="edge">
<title>Node13&#45;&gt;Node3</title>
<g id="a_edge26_Node000013_Node000003"><a xlink:title=" ">
<path fill="none" stroke="#63b8ff" d="M510.06,-341.15C459.53,-343.74 393.35,-344.96 335,-339.07 316.64,-337.21 296.54,-333.34 279.74,-329.58"/>
<polygon fill="#63b8ff" stroke="#63b8ff" points="510.47,-344.64 520.27,-340.6 510.1,-337.65 510.47,-344.64"/>
</a>
</g>
</g>
<!-- Node13&#45;&gt;Node6 -->
<g id="edge27_Node000013_Node000006" class="edge">
<title>Node13&#45;&gt;Node6</title>
<g id="a_edge27_Node000013_Node000006"><a xlink:title=" ">
<path fill="none" stroke="#63b8ff" d="M510.2,-328.44C499.51,-327.57 488.63,-326.68 478.15,-325.82"/>
<polygon fill="#63b8ff" stroke="#63b8ff" points="510.11,-331.94 520.36,-329.27 510.68,-324.97 510.11,-331.94"/>
</a>
</g>
</g>
<!-- Node14&#45;&gt;Node3 -->
<g id="edge29_Node000014_Node000003" class="edge">
<title>Node14&#45;&gt;Node3</title>
<g id="a_edge29_Node000014_Node000003"><a xlink:title=" ">
<path fill="none" stroke="#63b8ff" d="M510.01,-289.07C459.47,-291 393.28,-294.75 335,-302.07 318.52,-304.13 300.57,-307.37 284.87,-310.53"/>
<polygon fill="#63b8ff" stroke="#63b8ff" points="510.36,-292.56 520.23,-288.7 510.11,-285.56 510.36,-292.56"/>
</a>
</g>
</g>
<!-- Node14&#45;&gt;Node6 -->
<g id="edge30_Node000014_Node000006" class="edge">
<title>Node14&#45;&gt;Node6</title>
<g id="a_edge30_Node000014_Node000006"><a xlink:title=" ">
<path fill="none" stroke="#63b8ff" d="M510.46,-301.6C493.52,-304.64 476.08,-307.77 460.47,-310.57"/>
<polygon fill="#63b8ff" stroke="#63b8ff" points="511.14,-305.03 520.36,-299.82 509.9,-298.14 511.14,-305.03"/>
</a>
</g>
</g>
<!-- Node15&#45;&gt;Node3 -->
<g id="edge32_Node000015_Node000003" class="edge">
<title>Node15&#45;&gt;Node3</title>
<g id="a_edge32_Node000015_Node000003"><a xlink:title=" ">
<path fill="none" stroke="#63b8ff" d="M526.19,-251.31C473.93,-257.94 399.04,-269.28 335,-286.07 310.39,-292.52 283.15,-302.87 264.55,-310.46"/>
<polygon fill="#63b8ff" stroke="#63b8ff" points="526.84,-254.76 536.33,-250.05 525.98,-247.81 526.84,-254.76"/>
</a>
</g>
</g>
<!-- Node15&#45;&gt;Node6 -->
<g id="edge33_Node000015_Node000006" class="edge">
<title>Node15&#45;&gt;Node6</title>
<g id="a_edge33_Node000015_Node000006"><a xlink:title=" ">
<path fill="none" stroke="#63b8ff" d="M534.16,-256.39C527.29,-258.38 520.43,-260.6 514,-263.07 479.73,-276.2 442.55,-298.01 422.45,-310.5"/>
<polygon fill="#63b8ff" stroke="#63b8ff" points="535.47,-259.66 544.2,-253.66 533.63,-252.91 535.47,-259.66"/>
</a>
</g>
</g>
<!-- Node16&#45;&gt;Node3 -->
<g id="edge35_Node000016_Node000003" class="edge">
<title>Node16&#45;&gt;Node3</title>
<g id="a_edge35_Node000016_Node000003"><a xlink:title=" ">
<path fill="none" stroke="#63b8ff" d="M503.81,-213.61C452.96,-219.71 388.57,-231.46 335,-254.07 301.62,-268.15 268.44,-295.82 252.23,-310.46"/>
<polygon fill="#63b8ff" stroke="#63b8ff" points="504.26,-217.08 513.8,-212.46 503.46,-210.13 504.26,-217.08"/>
</a>
</g>
</g>
<!-- Node16&#45;&gt;Node6 -->
<g id="edge36_Node000016_Node000006" class="edge">
<title>Node16&#45;&gt;Node6</title>
<g id="a_edge36_Node000016_Node000006"><a xlink:title=" ">
<path fill="none" stroke="#63b8ff" d="M528.18,-219.84C523.28,-221.65 518.49,-223.72 514,-226.07 471.38,-248.35 431.9,-291.22 415.5,-310.39"/>
<polygon fill="#63b8ff" stroke="#63b8ff" points="529.35,-223.14 537.73,-216.65 527.14,-216.5 529.35,-223.14"/>
</a>
</g>
</g>
<!-- Node17&#45;&gt;Node3 -->
<g id="edge38_Node000017_Node000003" class="edge">
<title>Node17&#45;&gt;Node3</title>
<g id="a_edge38_Node000017_Node000003"><a xlink:title=" ">
<path fill="none" stroke="#63b8ff" d="M522.05,-168.81C467.9,-170.7 392.5,-179.82 335,-212.07 291.84,-236.27 259.35,-288.57 247.21,-310.3"/>
<polygon fill="#63b8ff" stroke="#63b8ff" points="522.34,-172.31 532.24,-168.53 522.15,-165.31 522.34,-172.31"/>
</a>
</g>
</g>
<!-- Node17&#45;&gt;Node6 -->
<g id="edge39_Node000017_Node000006" class="edge">
<title>Node17&#45;&gt;Node6</title>
<g id="a_edge39_Node000017_Node000006"><a xlink:title=" ">
<path fill="none" stroke="#63b8ff" d="M524.55,-183.42C520.87,-185.09 517.33,-186.96 514,-189.07 463.23,-221.2 425.48,-285.87 412.45,-310.37"/>
<polygon fill="#63b8ff" stroke="#63b8ff" points="525.9,-186.65 533.89,-179.69 523.3,-180.15 525.9,-186.65"/>
</a>
</g>
</g>
<!-- Node18&#45;&gt;Node3 -->
<g id="edge41_Node000018_Node000003" class="edge">
<title>Node18&#45;&gt;Node3</title>
<g id="a_edge41_Node000018_Node000003"><a xlink:title=" ">
<path fill="none" stroke="#63b8ff" d="M513.65,-126.91C459.43,-126.41 387.67,-133.66 335,-168.07 280.61,-203.6 252.87,-283.12 244.66,-310.55"/>
<polygon fill="#63b8ff" stroke="#63b8ff" points="513.85,-130.42 523.91,-127.1 513.98,-123.42 513.85,-130.42"/>
</a>
</g>
</g>
<!-- Node18&#45;&gt;Node6 -->
<g id="edge42_Node000018_Node000006" class="edge">
<title>Node18&#45;&gt;Node6</title>
<g id="a_edge42_Node000018_Node000006"><a xlink:title=" ">
<path fill="none" stroke="#63b8ff" d="M522.57,-146.82C519.57,-148.38 516.7,-150.13 514,-152.07 454.83,-194.59 420.85,-281.14 410.73,-310.26"/>
<polygon fill="#63b8ff" stroke="#63b8ff" points="524.17,-149.93 531.85,-142.63 521.29,-143.55 524.17,-149.93"/>
</a>
</g>
</g>
<!-- Node19&#45;&gt;Node3 -->
<g id="edge44_Node000019_Node000003" class="edge">
<title>Node19&#45;&gt;Node3</title>
<g id="a_edge44_Node000019_Node000003"><a xlink:title=" ">
<path fill="none" stroke="#63b8ff" d="M523.28,-86.05C467.59,-81.63 389.48,-84.39 335,-123.07 268.69,-170.13 248.16,-277.09 243.29,-310.15"/>
<polygon fill="#63b8ff" stroke="#63b8ff" points="523.13,-89.55 533.41,-86.95 523.76,-82.58 523.13,-89.55"/>
</a>
</g>
</g>
<!-- Node19&#45;&gt;Node6 -->
<g id="edge45_Node000019_Node000006" class="edge">
<title>Node19&#45;&gt;Node6</title>
<g id="a_edge45_Node000019_Node000006"><a xlink:title=" ">
<path fill="none" stroke="#63b8ff" d="M524.2,-108.54C520.59,-110.42 517.16,-112.58 514,-115.07 445.88,-168.59 416.9,-277.73 409.5,-310.54"/>
<polygon fill="#63b8ff" stroke="#63b8ff" points="525.77,-111.67 533.48,-104.4 522.92,-105.28 525.77,-111.67"/>
</a>
</g>
</g>
<!-- Node20&#45;&gt;Node3 -->
<g id="edge47_Node000020_Node000003" class="edge">
<title>Node20&#45;&gt;Node3</title>
<g id="a_edge47_Node000020_Node000003"><a xlink:title=" ">
<path fill="none" stroke="#63b8ff" d="M536.52,-47.95C480.22,-39.85 392.97,-36.78 335,-80.07 256.41,-138.75 244.22,-273.24 242.34,-310.4"/>
<polygon fill="#63b8ff" stroke="#63b8ff" points="536.25,-51.45 546.66,-49.51 537.31,-44.53 536.25,-51.45"/>
</a>
</g>
</g>
<!-- Node20&#45;&gt;Node6 -->
<g id="edge48_Node000020_Node000006" class="edge">
<title>Node20&#45;&gt;Node6</title>
<g id="a_edge48_Node000020_Node000006"><a xlink:title=" ">
<path fill="none" stroke="#63b8ff" d="M525.7,-70.41C521.51,-72.55 517.56,-75.08 514,-78.07 437,-142.7 413.8,-273.85 408.71,-310.41"/>
<polygon fill="#63b8ff" stroke="#63b8ff" points="527.39,-73.49 535.18,-66.31 524.61,-67.07 527.39,-73.49"/>
</a>
</g>
</g>
<!-- Node21&#45;&gt;Node3 -->
<g id="edge50_Node000021_Node000003" class="edge">
<title>Node21&#45;&gt;Node3</title>
<g id="a_edge50_Node000021_Node000003"><a xlink:title=" ">
<path fill="none" stroke="#63b8ff" d="M522.66,-3.16C466.25,3.33 387.44,2.51 335,-39.07 245.4,-110.09 241.3,-269.92 241.76,-310.54"/>
<polygon fill="#63b8ff" stroke="#63b8ff" points="522.57,-6.68 532.92,-4.45 523.44,0.27 522.57,-6.68"/>
</a>
</g>
</g>
<!-- Node21&#45;&gt;Node6 -->
<g id="edge51_Node000021_Node000006" class="edge">
<title>Node21&#45;&gt;Node6</title>
<g id="a_edge51_Node000021_Node000006"><a xlink:title=" ">
<path fill="none" stroke="#63b8ff" d="M523.78,-32.62C520.27,-34.8 516.98,-37.27 514,-40.07 430.01,-118.91 411.63,-270.93 408.21,-310.48"/>
<polygon fill="#63b8ff" stroke="#63b8ff" points="525.69,-35.57 532.86,-27.77 522.39,-29.39 525.69,-35.57"/>
</a>
</g>
</g>
</g>
</svg>
