<?xml version="1.0" encoding="UTF-8" standalone="no"?>
<!DOCTYPE svg PUBLIC "-//W3C//DTD SVG 1.1//EN"
 "http://www.w3.org/Graphics/SVG/1.1/DTD/svg11.dtd">
<!-- Generated by graphviz version 2.43.0 (0)
 -->
<!-- Title: lci::free_net_context_x::call_impl Pages: 1 -->
<svg width="428pt" height="76pt"
 viewBox="0.00 0.00 428.00 75.50" xmlns="http://www.w3.org/2000/svg" xmlns:xlink="http://www.w3.org/1999/xlink">
<g id="graph0" class="graph" transform="scale(1 1) rotate(0) translate(4 71.5)">
<title>lci::free_net_context_x::call_impl</title>
<!-- Node1 -->
<g id="Node000001" class="node">
<title>Node1</title>
<g id="a_Node000001"><a xlink:title=" ">
<polygon fill="#999999" stroke="#666666" points="420,-51 304,-51 304,-21 420,-21 420,-51"/>
<text text-anchor="start" x="312" y="-39" font-family="Helvetica,sans-Serif" font-size="10.00">lci::free_net_context</text>
<text text-anchor="middle" x="362" y="-28" font-family="Helvetica,sans-Serif" font-size="10.00">_x::call_impl</text>
</a>
</g>
</g>
<!-- Node2 -->
<g id="Node000002" class="node">
<title>Node2</title>
<g id="a_Node000002"><a xlink:href="../../d8/d7e/classlci_1_1free__net__context__x.html#aa8baf543ba29f222dcc6b1f7fb7a972a" target="_top" xlink:title=" ">
<polygon fill="white" stroke="#666666" points="268,-51 152,-51 152,-21 268,-21 268,-51"/>
<text text-anchor="start" x="160" y="-39" font-family="Helvetica,sans-Serif" font-size="10.00">lci::free_net_context</text>
<text text-anchor="middle" x="210" y="-28" font-family="Helvetica,sans-Serif" font-size="10.00">_x::call</text>
</a>
</g>
</g>
<!-- Node1&#45;&gt;Node2 -->
<g id="edge1_Node000001_Node000002" class="edge">
<title>Node1&#45;&gt;Node2</title>
<g id="a_edge1_Node000001_Node000002"><a xlink:title=" ">
<path fill="none" stroke="#63b8ff" d="M293.69,-36C285.27,-36 276.72,-36 268.47,-36"/>
<polygon fill="#63b8ff" stroke="#63b8ff" points="293.86,-39.5 303.86,-36 293.86,-32.5 293.86,-39.5"/>
</a>
</g>
</g>
<!-- Node3 -->
<g id="Node000003" class="node">
<title>Node3</title>
<g id="a_Node000003"><a xlink:href="../../d5/dd3/namespacelci.html#a1dd24917eb2046968b58169e1eb88ed9" target="_top" xlink:title=" ">
<polygon fill="white" stroke="#666666" points="116,-67.5 0,-67.5 0,-48.5 116,-48.5 116,-67.5"/>
<text text-anchor="middle" x="58" y="-55.5" font-family="Helvetica,sans-Serif" font-size="10.00">lci::free_net_context</text>
</a>
</g>
</g>
<!-- Node2&#45;&gt;Node3 -->
<g id="edge2_Node000002_Node000003" class="edge">
<title>Node2&#45;&gt;Node3</title>
<g id="a_edge2_Node000002_Node000003"><a xlink:title=" ">
<path fill="none" stroke="#63b8ff" d="M141.97,-45.83C133.46,-47.08 124.81,-48.35 116.47,-49.57"/>
<polygon fill="#63b8ff" stroke="#63b8ff" points="142.48,-49.29 151.86,-44.38 141.46,-42.37 142.48,-49.29"/>
</a>
</g>
</g>
<!-- Node4 -->
<g id="Node000004" class="node">
<title>Node4</title>
<g id="a_Node000004"><a xlink:href="../../d8/d7e/classlci_1_1free__net__context__x.html#a0d15abd279859a351915538ceb091f29" target="_top" xlink:title=" ">
<polygon fill="white" stroke="#666666" points="116,-30 0,-30 0,0 116,0 116,-30"/>
<text text-anchor="start" x="8" y="-18" font-family="Helvetica,sans-Serif" font-size="10.00">lci::free_net_context</text>
<text text-anchor="middle" x="58" y="-7" font-family="Helvetica,sans-Serif" font-size="10.00">_x::operator()</text>
</a>
</g>
</g>
<!-- Node2&#45;&gt;Node4 -->
<g id="edge3_Node000002_Node000004" class="edge">
<title>Node2&#45;&gt;Node4</title>
<g id="a_edge3_Node000002_Node000004"><a xlink:title=" ">
<path fill="none" stroke="#63b8ff" d="M141.69,-26.58C133.27,-25.4 124.72,-24.2 116.47,-23.05"/>
<polygon fill="#63b8ff" stroke="#63b8ff" points="141.47,-30.08 151.86,-28 142.45,-23.15 141.47,-30.08"/>
</a>
</g>
</g>
</g>
</svg>
