<?xml version="1.0" encoding="UTF-8" standalone="no"?>
<!DOCTYPE svg PUBLIC "-//W3C//DTD SVG 1.1//EN"
 "http://www.w3.org/Graphics/SVG/1.1/DTD/svg11.dtd">
<!-- Generated by graphviz version 2.43.0 (0)
 -->
<!-- Title: lci::net_post_put_x Pages: 1 -->
<svg width="527pt" height="209pt"
 viewBox="0.00 0.00 527.00 209.00" xmlns="http://www.w3.org/2000/svg" xmlns:xlink="http://www.w3.org/1999/xlink">
<g id="graph0" class="graph" transform="scale(1 1) rotate(0) translate(4 205)">
<title>lci::net_post_put_x</title>
<!-- Node1 -->
<g id="Node000001" class="node">
<title>Node1</title>
<g id="a_Node000001"><a xlink:title="The actual implementation for net_post_put.">
<polygon fill="#999999" stroke="#666666" points="519,-110 411,-110 411,-91 519,-91 519,-110"/>
<text text-anchor="middle" x="465" y="-98" font-family="Helvetica,sans-Serif" font-size="10.00">lci::net_post_put_x</text>
</a>
</g>
</g>
<!-- Node2 -->
<g id="Node000002" class="node">
<title>Node2</title>
<g id="a_Node000002"><a xlink:href="../../d7/d1a/classlci_1_1mr__t.html" target="_top" xlink:title="The actual implementation for RESOURCE mr.">
<polygon fill="white" stroke="#666666" points="258.5,-201 202.5,-201 202.5,-182 258.5,-182 258.5,-201"/>
<text text-anchor="middle" x="230.5" y="-189" font-family="Helvetica,sans-Serif" font-size="10.00">lci::mr_t</text>
</a>
</g>
</g>
<!-- Node2&#45;&gt;Node1 -->
<g id="edge1_Node000001_Node000002" class="edge">
<title>Node2&#45;&gt;Node1</title>
<g id="a_edge1_Node000001_Node000002"><a xlink:title=" ">
<path fill="none" stroke="#9a32cd" stroke-dasharray="5,2" d="M268.48,-184.54C301.95,-177.47 352.12,-164.92 393,-146.5 414.96,-136.61 437.92,-120.51 451.59,-110.22"/>
<polygon fill="#9a32cd" stroke="#9a32cd" points="267.75,-181.12 258.66,-186.56 269.16,-187.97 267.75,-181.12"/>
</a>
</g>
<text text-anchor="middle" x="352" y="-175.5" font-family="Helvetica,sans-Serif" font-size="10.00" fill="grey"> m_mr</text>
</g>
<!-- Node3 -->
<g id="Node000003" class="node">
<title>Node3</title>
<g id="a_Node000003"><a xlink:href="../../db/d20/structlci_1_1option__t.html" target="_top" xlink:title=" ">
<polygon fill="white" stroke="#666666" points="278.5,-163.5 182.5,-163.5 182.5,-133.5 278.5,-133.5 278.5,-163.5"/>
<text text-anchor="start" x="190.5" y="-151.5" font-family="Helvetica,sans-Serif" font-size="10.00">lci::option_t&lt; lci</text>
<text text-anchor="middle" x="230.5" y="-140.5" font-family="Helvetica,sans-Serif" font-size="10.00">::runtime_t &gt;</text>
</a>
</g>
</g>
<!-- Node3&#45;&gt;Node1 -->
<g id="edge2_Node000001_Node000003" class="edge">
<title>Node3&#45;&gt;Node1</title>
<g id="a_edge2_Node000001_Node000003"><a xlink:title=" ">
<path fill="none" stroke="#9a32cd" stroke-dasharray="5,2" d="M288.67,-136.91C319.57,-130.63 358.39,-122.69 393,-115.5 401.39,-113.76 410.33,-111.88 418.94,-110.07"/>
<polygon fill="#9a32cd" stroke="#9a32cd" points="287.61,-133.56 278.51,-138.98 289.01,-140.42 287.61,-133.56"/>
</a>
</g>
<text text-anchor="middle" x="352" y="-134.5" font-family="Helvetica,sans-Serif" font-size="10.00" fill="grey"> m_runtime</text>
</g>
<!-- Node4 -->
<g id="Node000004" class="node">
<title>Node4</title>
<g id="a_Node000004"><a xlink:href="../../dc/d5c/classlci_1_1runtime__t.html" target="_top" xlink:title="The actual implementation for RESOURCE runtime.">
<polygon fill="white" stroke="#666666" points="83.5,-158 2.5,-158 2.5,-139 83.5,-139 83.5,-158"/>
<text text-anchor="middle" x="43" y="-146" font-family="Helvetica,sans-Serif" font-size="10.00">lci::runtime_t</text>
</a>
</g>
</g>
<!-- Node4&#45;&gt;Node3 -->
<g id="edge3_Node000003_Node000004" class="edge">
<title>Node4&#45;&gt;Node3</title>
<g id="a_edge3_Node000003_Node000004"><a xlink:title=" ">
<path fill="none" stroke="#9a32cd" stroke-dasharray="5,2" d="M93.97,-148.5C121.4,-148.5 155.22,-148.5 182.22,-148.5"/>
<polygon fill="#9a32cd" stroke="#9a32cd" points="93.79,-145 83.79,-148.5 93.79,-152 93.79,-145"/>
</a>
</g>
<text text-anchor="middle" x="127" y="-151.5" font-family="Helvetica,sans-Serif" font-size="10.00" fill="grey"> m_value</text>
</g>
<!-- Node5 -->
<g id="Node000005" class="node">
<title>Node5</title>
<g id="a_Node000005"><a xlink:href="../../db/d20/structlci_1_1option__t.html" target="_top" xlink:title=" ">
<polygon fill="white" stroke="#666666" points="278.5,-115.5 182.5,-115.5 182.5,-85.5 278.5,-85.5 278.5,-115.5"/>
<text text-anchor="start" x="190.5" y="-103.5" font-family="Helvetica,sans-Serif" font-size="10.00">lci::option_t&lt; lci</text>
<text text-anchor="middle" x="230.5" y="-92.5" font-family="Helvetica,sans-Serif" font-size="10.00">::device_t &gt;</text>
</a>
</g>
</g>
<!-- Node5&#45;&gt;Node1 -->
<g id="edge4_Node000001_Node000005" class="edge">
<title>Node5&#45;&gt;Node1</title>
<g id="a_edge4_Node000001_Node000005"><a xlink:title=" ">
<path fill="none" stroke="#9a32cd" stroke-dasharray="5,2" d="M288.77,-100.5C326.1,-100.5 374.47,-100.5 410.93,-100.5"/>
<polygon fill="#9a32cd" stroke="#9a32cd" points="288.55,-97 278.55,-100.5 288.55,-104 288.55,-97"/>
</a>
</g>
<text text-anchor="middle" x="352" y="-103.5" font-family="Helvetica,sans-Serif" font-size="10.00" fill="grey"> m_device</text>
</g>
<!-- Node6 -->
<g id="Node000006" class="node">
<title>Node6</title>
<g id="a_Node000006"><a xlink:href="../../d6/d66/classlci_1_1device__t.html" target="_top" xlink:title="The actual implementation for RESOURCE device.">
<polygon fill="white" stroke="#666666" points="80.5,-110 5.5,-110 5.5,-91 80.5,-91 80.5,-110"/>
<text text-anchor="middle" x="43" y="-98" font-family="Helvetica,sans-Serif" font-size="10.00">lci::device_t</text>
</a>
</g>
</g>
<!-- Node6&#45;&gt;Node5 -->
<g id="edge5_Node000005_Node000006" class="edge">
<title>Node6&#45;&gt;Node5</title>
<g id="a_edge5_Node000005_Node000006"><a xlink:title=" ">
<path fill="none" stroke="#9a32cd" stroke-dasharray="5,2" d="M90.98,-100.5C118.95,-100.5 154.35,-100.5 182.35,-100.5"/>
<polygon fill="#9a32cd" stroke="#9a32cd" points="90.65,-97 80.65,-100.5 90.65,-104 90.65,-97"/>
</a>
</g>
<text text-anchor="middle" x="127" y="-103.5" font-family="Helvetica,sans-Serif" font-size="10.00" fill="grey"> m_value</text>
</g>
<!-- Node7 -->
<g id="Node000007" class="node">
<title>Node7</title>
<g id="a_Node000007"><a xlink:href="../../db/d20/structlci_1_1option__t.html" target="_top" xlink:title=" ">
<polygon fill="white" stroke="#666666" points="278.5,-67.5 182.5,-67.5 182.5,-37.5 278.5,-37.5 278.5,-67.5"/>
<text text-anchor="start" x="190.5" y="-55.5" font-family="Helvetica,sans-Serif" font-size="10.00">lci::option_t&lt; lci</text>
<text text-anchor="middle" x="230.5" y="-44.5" font-family="Helvetica,sans-Serif" font-size="10.00">::endpoint_t &gt;</text>
</a>
</g>
</g>
<!-- Node7&#45;&gt;Node1 -->
<g id="edge6_Node000001_Node000007" class="edge">
<title>Node7&#45;&gt;Node1</title>
<g id="a_edge6_Node000001_Node000007"><a xlink:title=" ">
<path fill="none" stroke="#9a32cd" stroke-dasharray="5,2" d="M288.67,-64.09C319.57,-70.37 358.39,-78.31 393,-85.5 401.39,-87.24 410.33,-89.12 418.94,-90.93"/>
<polygon fill="#9a32cd" stroke="#9a32cd" points="289.01,-60.58 278.51,-62.02 287.61,-67.44 289.01,-60.58"/>
</a>
</g>
<text text-anchor="middle" x="352" y="-88.5" font-family="Helvetica,sans-Serif" font-size="10.00" fill="grey"> m_endpoint</text>
</g>
<!-- Node8 -->
<g id="Node000008" class="node">
<title>Node8</title>
<g id="a_Node000008"><a xlink:href="../../de/d1b/classlci_1_1endpoint__t.html" target="_top" xlink:title="The actual implementation for RESOURCE endpoint.">
<polygon fill="white" stroke="#666666" points="86,-62 0,-62 0,-43 86,-43 86,-62"/>
<text text-anchor="middle" x="43" y="-50" font-family="Helvetica,sans-Serif" font-size="10.00">lci::endpoint_t</text>
</a>
</g>
</g>
<!-- Node8&#45;&gt;Node7 -->
<g id="edge7_Node000007_Node000008" class="edge">
<title>Node8&#45;&gt;Node7</title>
<g id="a_edge7_Node000007_Node000008"><a xlink:title=" ">
<path fill="none" stroke="#9a32cd" stroke-dasharray="5,2" d="M96.16,-52.5C123.23,-52.5 156.05,-52.5 182.35,-52.5"/>
<polygon fill="#9a32cd" stroke="#9a32cd" points="96.09,-49 86.09,-52.5 96.09,-56 96.09,-49"/>
</a>
</g>
<text text-anchor="middle" x="127" y="-55.5" font-family="Helvetica,sans-Serif" font-size="10.00" fill="grey"> m_value</text>
</g>
<!-- Node9 -->
<g id="Node000009" class="node">
<title>Node9</title>
<g id="a_Node000009"><a xlink:href="../../db/d20/structlci_1_1option__t.html" target="_top" xlink:title=" ">
<polygon fill="white" stroke="#666666" points="293,-19 168,-19 168,0 293,0 293,-19"/>
<text text-anchor="middle" x="230.5" y="-7" font-family="Helvetica,sans-Serif" font-size="10.00">lci::option_t&lt; void * &gt;</text>
</a>
</g>
</g>
<!-- Node9&#45;&gt;Node1 -->
<g id="edge8_Node000001_Node000009" class="edge">
<title>Node9&#45;&gt;Node1</title>
<g id="a_edge8_Node000001_Node000009"><a xlink:title=" ">
<path fill="none" stroke="#9a32cd" stroke-dasharray="5,2" d="M292.21,-21.21C323.19,-28.38 360.99,-39 393,-53.5 415.35,-63.63 438.57,-80.38 452.13,-90.91"/>
<polygon fill="#9a32cd" stroke="#9a32cd" points="292.93,-17.79 282.41,-19.01 291.4,-24.62 292.93,-17.79"/>
</a>
</g>
<text text-anchor="middle" x="352" y="-56.5" font-family="Helvetica,sans-Serif" font-size="10.00" fill="grey"> m_user_context</text>
</g>
</g>
</svg>
