<?xml version="1.0" encoding="UTF-8" standalone="no"?>
<!DOCTYPE svg PUBLIC "-//W3C//DTD SVG 1.1//EN"
 "http://www.w3.org/Graphics/SVG/1.1/DTD/svg11.dtd">
<!-- Generated by graphviz version 2.43.0 (0)
 -->
<!-- Title: lci::alloc_endpoint_x::alloc_endpoint_x Pages: 1 -->
<svg width="688pt" height="182pt"
 viewBox="0.00 0.00 688.00 182.00" xmlns="http://www.w3.org/2000/svg" xmlns:xlink="http://www.w3.org/1999/xlink">
<g id="graph0" class="graph" transform="scale(1 1) rotate(0) translate(4 178)">
<title>lci::alloc_endpoint_x::alloc_endpoint_x</title>
<!-- Node1 -->
<g id="Node000001" class="node">
<title>Node1</title>
<g id="a_Node000001"><a xlink:title=" ">
<polygon fill="#999999" stroke="#666666" points="680,-102 564,-102 564,-72 680,-72 680,-102"/>
<text text-anchor="start" x="572" y="-90" font-family="Helvetica,sans-Serif" font-size="10.00">lci::alloc_endpoint</text>
<text text-anchor="middle" x="622" y="-79" font-family="Helvetica,sans-Serif" font-size="10.00">_x::alloc_endpoint_x</text>
</a>
</g>
</g>
<!-- Node2 -->
<g id="Node000002" class="node">
<title>Node2</title>
<g id="a_Node000002"><a xlink:href="../../da/d10/classlci_1_1alloc__endpoint__x.html#ac4e164362bc0cbd656403523d0a9fefb" target="_top" xlink:title=" ">
<polygon fill="white" stroke="#666666" points="528,-174 423,-174 423,-144 528,-144 528,-174"/>
<text text-anchor="start" x="431" y="-162" font-family="Helvetica,sans-Serif" font-size="10.00">lci::alloc_endpoint</text>
<text text-anchor="middle" x="475.5" y="-151" font-family="Helvetica,sans-Serif" font-size="10.00">_x::device</text>
</a>
</g>
</g>
<!-- Node1&#45;&gt;Node2 -->
<g id="edge1_Node000001_Node000002" class="edge">
<title>Node1&#45;&gt;Node2</title>
<g id="a_edge1_Node000001_Node000002"><a xlink:title=" ">
<path fill="none" stroke="#63b8ff" d="M583.64,-106.72C566.73,-115.53 546.44,-125.95 528,-135 521.98,-137.96 515.52,-141.03 509.29,-143.96"/>
<polygon fill="#63b8ff" stroke="#63b8ff" points="585.42,-109.74 592.66,-102 582.18,-103.54 585.42,-109.74"/>
</a>
</g>
</g>
<!-- Node7 -->
<g id="Node000007" class="node">
<title>Node7</title>
<g id="a_Node000007"><a xlink:href="../../da/d10/classlci_1_1alloc__endpoint__x.html#af1b49279fa2dd626ac3949956a15858e" target="_top" xlink:title=" ">
<polygon fill="white" stroke="#666666" points="528,-126 423,-126 423,-96 528,-96 528,-126"/>
<text text-anchor="start" x="431" y="-114" font-family="Helvetica,sans-Serif" font-size="10.00">lci::alloc_endpoint</text>
<text text-anchor="middle" x="475.5" y="-103" font-family="Helvetica,sans-Serif" font-size="10.00">_x::name</text>
</a>
</g>
</g>
<!-- Node1&#45;&gt;Node7 -->
<g id="edge7_Node000001_Node000007" class="edge">
<title>Node1&#45;&gt;Node7</title>
<g id="a_edge7_Node000001_Node000007"><a xlink:title=" ">
<path fill="none" stroke="#63b8ff" d="M553.8,-98.16C545.14,-99.6 536.39,-101.05 528.04,-102.44"/>
<polygon fill="#63b8ff" stroke="#63b8ff" points="554.6,-101.58 563.89,-96.49 553.45,-94.67 554.6,-101.58"/>
</a>
</g>
</g>
<!-- Node8 -->
<g id="Node000008" class="node">
<title>Node8</title>
<g id="a_Node000008"><a xlink:href="../../da/d10/classlci_1_1alloc__endpoint__x.html#a31c728e1118669821a5ae1ad220cdd8f" target="_top" xlink:title=" ">
<polygon fill="white" stroke="#666666" points="528,-78 423,-78 423,-48 528,-48 528,-78"/>
<text text-anchor="start" x="431" y="-66" font-family="Helvetica,sans-Serif" font-size="10.00">lci::alloc_endpoint</text>
<text text-anchor="middle" x="475.5" y="-55" font-family="Helvetica,sans-Serif" font-size="10.00">_x::runtime</text>
</a>
</g>
</g>
<!-- Node1&#45;&gt;Node8 -->
<g id="edge10_Node000001_Node000008" class="edge">
<title>Node1&#45;&gt;Node8</title>
<g id="a_edge10_Node000001_Node000008"><a xlink:title=" ">
<path fill="none" stroke="#63b8ff" d="M553.8,-75.84C545.14,-74.4 536.39,-72.95 528.04,-71.56"/>
<polygon fill="#63b8ff" stroke="#63b8ff" points="553.45,-79.33 563.89,-77.51 554.6,-72.42 553.45,-79.33"/>
</a>
</g>
</g>
<!-- Node9 -->
<g id="Node000009" class="node">
<title>Node9</title>
<g id="a_Node000009"><a xlink:href="../../da/d10/classlci_1_1alloc__endpoint__x.html#aeae3ef5e7ba3d89bd13c4dd9847d552f" target="_top" xlink:title=" ">
<polygon fill="white" stroke="#666666" points="528,-30 423,-30 423,0 528,0 528,-30"/>
<text text-anchor="start" x="431" y="-18" font-family="Helvetica,sans-Serif" font-size="10.00">lci::alloc_endpoint</text>
<text text-anchor="middle" x="475.5" y="-7" font-family="Helvetica,sans-Serif" font-size="10.00">_x::user_context</text>
</a>
</g>
</g>
<!-- Node1&#45;&gt;Node9 -->
<g id="edge13_Node000001_Node000009" class="edge">
<title>Node1&#45;&gt;Node9</title>
<g id="a_edge13_Node000001_Node000009"><a xlink:title=" ">
<path fill="none" stroke="#63b8ff" d="M583.64,-67.28C566.73,-58.47 546.44,-48.05 528,-39 521.98,-36.04 515.52,-32.97 509.29,-30.04"/>
<polygon fill="#63b8ff" stroke="#63b8ff" points="582.18,-70.46 592.66,-72 585.42,-64.26 582.18,-70.46"/>
</a>
</g>
</g>
<!-- Node3 -->
<g id="Node000003" class="node">
<title>Node3</title>
<g id="a_Node000003"><a xlink:href="../../da/d10/classlci_1_1alloc__endpoint__x.html#a0ab70f81a6d219588d464bd26ec253fd" target="_top" xlink:title=" ">
<polygon fill="white" stroke="#666666" points="246,-102 141,-102 141,-72 246,-72 246,-102"/>
<text text-anchor="start" x="149" y="-90" font-family="Helvetica,sans-Serif" font-size="10.00">lci::alloc_endpoint</text>
<text text-anchor="middle" x="193.5" y="-79" font-family="Helvetica,sans-Serif" font-size="10.00">_x::call</text>
</a>
</g>
</g>
<!-- Node2&#45;&gt;Node3 -->
<g id="edge2_Node000002_Node000003" class="edge">
<title>Node2&#45;&gt;Node3</title>
<g id="a_edge2_Node000002_Node000003"><a xlink:title=" ">
<path fill="none" stroke="#63b8ff" d="M413.02,-152.97C374.75,-148.2 324.83,-140.1 282,-127 261.39,-120.7 239.34,-110.59 222.52,-102.11"/>
<polygon fill="#63b8ff" stroke="#63b8ff" points="412.64,-156.45 422.99,-154.18 413.48,-149.5 412.64,-156.45"/>
</a>
</g>
</g>
<!-- Node6 -->
<g id="Node000006" class="node">
<title>Node6</title>
<g id="a_Node000006"><a xlink:href="../../da/d10/classlci_1_1alloc__endpoint__x.html#a42b2f0770b1a53a176bfae6e1ad8e021" target="_top" xlink:title=" ">
<polygon fill="white" stroke="#666666" points="387,-102 282,-102 282,-72 387,-72 387,-102"/>
<text text-anchor="start" x="290" y="-90" font-family="Helvetica,sans-Serif" font-size="10.00">lci::alloc_endpoint</text>
<text text-anchor="middle" x="334.5" y="-79" font-family="Helvetica,sans-Serif" font-size="10.00">_x::call_impl</text>
</a>
</g>
</g>
<!-- Node2&#45;&gt;Node6 -->
<g id="edge5_Node000002_Node000006" class="edge">
<title>Node2&#45;&gt;Node6</title>
<g id="a_edge5_Node000002_Node000006"><a xlink:title=" ">
<path fill="none" stroke="#63b8ff" d="M432.1,-139.51C429.01,-138.01 425.95,-136.49 423,-135 402.29,-124.51 379.29,-111.85 362.06,-102.16"/>
<polygon fill="#63b8ff" stroke="#63b8ff" points="430.85,-142.79 441.38,-143.96 433.87,-136.48 430.85,-142.79"/>
</a>
</g>
</g>
<!-- Node4 -->
<g id="Node000004" class="node">
<title>Node4</title>
<g id="a_Node000004"><a xlink:href="../../d5/dd3/namespacelci.html#abaf61865c25910cf3cd75b0307394a96" target="_top" xlink:title=" ">
<polygon fill="white" stroke="#666666" points="105,-118.5 0,-118.5 0,-99.5 105,-99.5 105,-118.5"/>
<text text-anchor="middle" x="52.5" y="-106.5" font-family="Helvetica,sans-Serif" font-size="10.00">lci::alloc_endpoint</text>
</a>
</g>
</g>
<!-- Node3&#45;&gt;Node4 -->
<g id="edge3_Node000003_Node000004" class="edge">
<title>Node3&#45;&gt;Node4</title>
<g id="a_edge3_Node000003_Node000004"><a xlink:title=" ">
<path fill="none" stroke="#63b8ff" d="M130.84,-96.76C122.31,-98.11 113.62,-99.48 105.3,-100.8"/>
<polygon fill="#63b8ff" stroke="#63b8ff" points="131.41,-100.21 140.74,-95.19 130.32,-93.3 131.41,-100.21"/>
</a>
</g>
</g>
<!-- Node5 -->
<g id="Node000005" class="node">
<title>Node5</title>
<g id="a_Node000005"><a xlink:href="../../da/d10/classlci_1_1alloc__endpoint__x.html#ac9317d6855d2fa31e67a9f392742aefe" target="_top" xlink:title=" ">
<polygon fill="white" stroke="#666666" points="105,-81 0,-81 0,-51 105,-51 105,-81"/>
<text text-anchor="start" x="8" y="-69" font-family="Helvetica,sans-Serif" font-size="10.00">lci::alloc_endpoint</text>
<text text-anchor="middle" x="52.5" y="-58" font-family="Helvetica,sans-Serif" font-size="10.00">_x::operator()</text>
</a>
</g>
</g>
<!-- Node3&#45;&gt;Node5 -->
<g id="edge4_Node000003_Node000005" class="edge">
<title>Node3&#45;&gt;Node5</title>
<g id="a_edge4_Node000003_Node000005"><a xlink:title=" ">
<path fill="none" stroke="#63b8ff" d="M130.84,-77.68C122.31,-76.4 113.62,-75.08 105.3,-73.83"/>
<polygon fill="#63b8ff" stroke="#63b8ff" points="130.33,-81.15 140.74,-79.18 131.38,-74.23 130.33,-81.15"/>
</a>
</g>
</g>
<!-- Node6&#45;&gt;Node3 -->
<g id="edge6_Node000006_Node000003" class="edge">
<title>Node6&#45;&gt;Node3</title>
<g id="a_edge6_Node000006_Node000003"><a xlink:title=" ">
<path fill="none" stroke="#63b8ff" d="M271.56,-87C263.12,-87 254.53,-87 246.3,-87"/>
<polygon fill="#63b8ff" stroke="#63b8ff" points="271.74,-90.5 281.74,-87 271.74,-83.5 271.74,-90.5"/>
</a>
</g>
</g>
<!-- Node7&#45;&gt;Node3 -->
<g id="edge8_Node000007_Node000003" class="edge">
<title>Node7&#45;&gt;Node3</title>
<g id="a_edge8_Node000007_Node000003"><a xlink:title=" ">
<path fill="none" stroke="#63b8ff" d="M412.42,-115.19C374.56,-116.71 325.29,-116.83 282,-111 268.26,-109.15 253.63,-105.74 240.34,-102.05"/>
<polygon fill="#63b8ff" stroke="#63b8ff" points="412.94,-118.67 422.78,-114.73 412.63,-111.68 412.94,-118.67"/>
</a>
</g>
</g>
<!-- Node7&#45;&gt;Node6 -->
<g id="edge9_Node000007_Node000006" class="edge">
<title>Node7&#45;&gt;Node6</title>
<g id="a_edge9_Node000007_Node000006"><a xlink:title=" ">
<path fill="none" stroke="#63b8ff" d="M412.84,-100.35C404.31,-98.88 395.62,-97.38 387.3,-95.94"/>
<polygon fill="#63b8ff" stroke="#63b8ff" points="412.29,-103.81 422.74,-102.06 413.48,-96.91 412.29,-103.81"/>
</a>
</g>
</g>
<!-- Node8&#45;&gt;Node3 -->
<g id="edge11_Node000008_Node000003" class="edge">
<title>Node8&#45;&gt;Node3</title>
<g id="a_edge11_Node000008_Node000003"><a xlink:title=" ">
<path fill="none" stroke="#63b8ff" d="M412.42,-58.81C374.56,-57.29 325.29,-57.17 282,-63 268.26,-64.85 253.63,-68.26 240.34,-71.95"/>
<polygon fill="#63b8ff" stroke="#63b8ff" points="412.63,-62.32 422.78,-59.27 412.94,-55.33 412.63,-62.32"/>
</a>
</g>
</g>
<!-- Node8&#45;&gt;Node6 -->
<g id="edge12_Node000008_Node000006" class="edge">
<title>Node8&#45;&gt;Node6</title>
<g id="a_edge12_Node000008_Node000006"><a xlink:title=" ">
<path fill="none" stroke="#63b8ff" d="M412.84,-73.65C404.31,-75.12 395.62,-76.62 387.3,-78.06"/>
<polygon fill="#63b8ff" stroke="#63b8ff" points="413.48,-77.09 422.74,-71.94 412.29,-70.19 413.48,-77.09"/>
</a>
</g>
</g>
<!-- Node9&#45;&gt;Node3 -->
<g id="edge14_Node000009_Node000003" class="edge">
<title>Node9&#45;&gt;Node3</title>
<g id="a_edge14_Node000009_Node000003"><a xlink:title=" ">
<path fill="none" stroke="#63b8ff" d="M412.92,-24.32C374.81,-30.78 325.09,-40.48 282,-53 264.32,-58.14 245.19,-65.36 229.35,-71.84"/>
<polygon fill="#63b8ff" stroke="#63b8ff" points="413.56,-27.76 422.84,-22.66 412.4,-20.86 413.56,-27.76"/>
</a>
</g>
</g>
<!-- Node9&#45;&gt;Node6 -->
<g id="edge15_Node000009_Node000006" class="edge">
<title>Node9&#45;&gt;Node6</title>
<g id="a_edge15_Node000009_Node000006"><a xlink:title=" ">
<path fill="none" stroke="#63b8ff" d="M432.1,-34.49C429.01,-35.99 425.95,-37.51 423,-39 402.29,-49.49 379.29,-62.15 362.06,-71.84"/>
<polygon fill="#63b8ff" stroke="#63b8ff" points="433.87,-37.52 441.38,-30.04 430.85,-31.21 433.87,-37.52"/>
</a>
</g>
</g>
</g>
</svg>
