<?xml version="1.0" encoding="UTF-8" standalone="no"?>
<!DOCTYPE svg PUBLIC "-//W3C//DTD SVG 1.1//EN"
 "http://www.w3.org/Graphics/SVG/1.1/DTD/svg11.dtd">
<!-- Generated by graphviz version 2.43.0 (0)
 -->
<!-- Title: lci::alloc_endpoint_x::call Pages: 1 -->
<svg width="547pt" height="134pt"
 viewBox="0.00 0.00 547.00 134.00" xmlns="http://www.w3.org/2000/svg" xmlns:xlink="http://www.w3.org/1999/xlink">
<g id="graph0" class="graph" transform="scale(1 1) rotate(0) translate(4 130)">
<title>lci::alloc_endpoint_x::call</title>
<!-- Node1 -->
<g id="Node000001" class="node">
<title>Node1</title>
<g id="a_Node000001"><a xlink:title=" ">
<polygon fill="#999999" stroke="#666666" points="105,-75 0,-75 0,-45 105,-45 105,-75"/>
<text text-anchor="start" x="8" y="-63" font-family="Helvetica,sans-Serif" font-size="10.00">lci::alloc_endpoint</text>
<text text-anchor="middle" x="52.5" y="-52" font-family="Helvetica,sans-Serif" font-size="10.00">_x::call</text>
</a>
</g>
</g>
<!-- Node2 -->
<g id="Node000002" class="node">
<title>Node2</title>
<g id="a_Node000002"><a xlink:href="../../da/d10/classlci_1_1alloc__endpoint__x.html#a0d89d34f5185655e8171abf20b6e038a" target="_top" xlink:title=" ">
<polygon fill="white" stroke="#666666" points="246,-97 141,-97 141,-67 246,-67 246,-97"/>
<text text-anchor="start" x="149" y="-85" font-family="Helvetica,sans-Serif" font-size="10.00">lci::alloc_endpoint</text>
<text text-anchor="middle" x="193.5" y="-74" font-family="Helvetica,sans-Serif" font-size="10.00">_x::call_impl</text>
</a>
</g>
</g>
<!-- Node1&#45;&gt;Node2 -->
<g id="edge1_Node000001_Node000002" class="edge">
<title>Node1&#45;&gt;Node2</title>
<g id="a_edge1_Node000001_Node000002"><a xlink:title=" ">
<path fill="none" stroke="#63b8ff" d="M105.26,-68.19C113.58,-69.51 122.27,-70.88 130.79,-72.23"/>
<polygon fill="#63b8ff" stroke="#63b8ff" points="130.27,-75.69 140.7,-73.8 131.37,-68.78 130.27,-75.69"/>
</a>
</g>
</g>
<!-- Node3 -->
<g id="Node000003" class="node">
<title>Node3</title>
<g id="a_Node000003"><a xlink:href="../../da/d10/classlci_1_1alloc__endpoint__x.html#ac4e164362bc0cbd656403523d0a9fefb" target="_top" xlink:title=" ">
<polygon fill="white" stroke="#666666" points="387,-126 282,-126 282,-96 387,-96 387,-126"/>
<text text-anchor="start" x="290" y="-114" font-family="Helvetica,sans-Serif" font-size="10.00">lci::alloc_endpoint</text>
<text text-anchor="middle" x="334.5" y="-103" font-family="Helvetica,sans-Serif" font-size="10.00">_x::device</text>
</a>
</g>
</g>
<!-- Node1&#45;&gt;Node3 -->
<g id="edge8_Node000001_Node000003" class="edge">
<title>Node1&#45;&gt;Node3</title>
<g id="a_edge8_Node000001_Node000003"><a xlink:title=" ">
<path fill="none" stroke="#63b8ff" d="M75.36,-75.13C92.39,-85.99 117.09,-99.77 141,-106 183.58,-117.1 233.26,-118.11 271.49,-116.47"/>
<polygon fill="#63b8ff" stroke="#63b8ff" points="272.14,-119.94 281.95,-115.94 271.79,-112.95 272.14,-119.94"/>
</a>
</g>
</g>
<!-- Node5 -->
<g id="Node000005" class="node">
<title>Node5</title>
<g id="a_Node000005"><a xlink:href="../../da/d10/classlci_1_1alloc__endpoint__x.html#a31c728e1118669821a5ae1ad220cdd8f" target="_top" xlink:title=" ">
<polygon fill="white" stroke="#666666" points="387,-78 282,-78 282,-48 387,-48 387,-78"/>
<text text-anchor="start" x="290" y="-66" font-family="Helvetica,sans-Serif" font-size="10.00">lci::alloc_endpoint</text>
<text text-anchor="middle" x="334.5" y="-55" font-family="Helvetica,sans-Serif" font-size="10.00">_x::runtime</text>
</a>
</g>
</g>
<!-- Node1&#45;&gt;Node5 -->
<g id="edge9_Node000001_Node000005" class="edge">
<title>Node1&#45;&gt;Node5</title>
<g id="a_edge9_Node000001_Node000005"><a xlink:title=" ">
<path fill="none" stroke="#63b8ff" d="M105.39,-58.37C144.14,-57.41 198.39,-56.64 246,-58 254.31,-58.24 263.05,-58.6 271.67,-59.03"/>
<polygon fill="#63b8ff" stroke="#63b8ff" points="271.53,-62.52 281.7,-59.55 271.9,-55.53 271.53,-62.52"/>
</a>
</g>
</g>
<!-- Node6 -->
<g id="Node000006" class="node">
<title>Node6</title>
<g id="a_Node000006"><a xlink:href="../../da/d10/classlci_1_1alloc__endpoint__x.html#aeae3ef5e7ba3d89bd13c4dd9847d552f" target="_top" xlink:title=" ">
<polygon fill="white" stroke="#666666" points="387,-30 282,-30 282,0 387,0 387,-30"/>
<text text-anchor="start" x="290" y="-18" font-family="Helvetica,sans-Serif" font-size="10.00">lci::alloc_endpoint</text>
<text text-anchor="middle" x="334.5" y="-7" font-family="Helvetica,sans-Serif" font-size="10.00">_x::user_context</text>
</a>
</g>
</g>
<!-- Node1&#45;&gt;Node6 -->
<g id="edge10_Node000001_Node000006" class="edge">
<title>Node1&#45;&gt;Node6</title>
<g id="a_edge10_Node000001_Node000006"><a xlink:title=" ">
<path fill="none" stroke="#63b8ff" d="M105.18,-51.69C152.19,-44.14 221.66,-32.97 271.61,-24.95"/>
<polygon fill="#63b8ff" stroke="#63b8ff" points="272.33,-28.38 281.65,-23.33 271.22,-21.47 272.33,-28.38"/>
</a>
</g>
</g>
<!-- Node2&#45;&gt;Node3 -->
<g id="edge2_Node000002_Node000003" class="edge">
<title>Node2&#45;&gt;Node3</title>
<g id="a_edge2_Node000002_Node000003"><a xlink:title=" ">
<path fill="none" stroke="#63b8ff" d="M246.26,-92.8C254.58,-94.53 263.27,-96.35 271.79,-98.13"/>
<polygon fill="#63b8ff" stroke="#63b8ff" points="271.19,-101.58 281.7,-100.19 272.62,-94.72 271.19,-101.58"/>
</a>
</g>
</g>
<!-- Node2&#45;&gt;Node5 -->
<g id="edge4_Node000002_Node000005" class="edge">
<title>Node2&#45;&gt;Node5</title>
<g id="a_edge4_Node000002_Node000005"><a xlink:title=" ">
<path fill="none" stroke="#63b8ff" d="M246.26,-74.93C254.49,-73.8 263.08,-72.63 271.51,-71.47"/>
<polygon fill="#63b8ff" stroke="#63b8ff" points="272.26,-74.9 281.7,-70.08 271.32,-67.97 272.26,-74.9"/>
</a>
</g>
</g>
<!-- Node2&#45;&gt;Node6 -->
<g id="edge6_Node000002_Node000006" class="edge">
<title>Node2&#45;&gt;Node6</title>
<g id="a_edge6_Node000002_Node000006"><a xlink:title=" ">
<path fill="none" stroke="#63b8ff" d="M224.8,-66.92C241.61,-58.6 262.92,-48.13 282,-39 285.17,-37.48 288.45,-35.93 291.75,-34.37"/>
<polygon fill="#63b8ff" stroke="#63b8ff" points="293.47,-37.43 301.03,-30.01 290.5,-31.09 293.47,-37.43"/>
</a>
</g>
</g>
<!-- Node4 -->
<g id="Node000004" class="node">
<title>Node4</title>
<g id="a_Node000004"><a xlink:href="../../da/d10/classlci_1_1alloc__endpoint__x.html#a531dc54f2430678a56e456287dc8d473" target="_top" xlink:title=" ">
<polygon fill="white" stroke="#666666" points="539,-78 423,-78 423,-48 539,-48 539,-78"/>
<text text-anchor="start" x="431" y="-66" font-family="Helvetica,sans-Serif" font-size="10.00">lci::alloc_endpoint</text>
<text text-anchor="middle" x="481" y="-55" font-family="Helvetica,sans-Serif" font-size="10.00">_x::alloc_endpoint_x</text>
</a>
</g>
</g>
<!-- Node3&#45;&gt;Node4 -->
<g id="edge3_Node000003_Node000004" class="edge">
<title>Node3&#45;&gt;Node4</title>
<g id="a_edge3_Node000003_Node000004"><a xlink:title=" ">
<path fill="none" stroke="#63b8ff" d="M380.82,-95.94C394.81,-91.3 410.37,-86.13 424.94,-81.29"/>
<polygon fill="#63b8ff" stroke="#63b8ff" points="426.45,-84.48 434.84,-78 424.24,-77.83 426.45,-84.48"/>
</a>
</g>
</g>
<!-- Node5&#45;&gt;Node4 -->
<g id="edge5_Node000005_Node000004" class="edge">
<title>Node5&#45;&gt;Node4</title>
<g id="a_edge5_Node000005_Node000004"><a xlink:title=" ">
<path fill="none" stroke="#63b8ff" d="M387.26,-63C395.44,-63 403.99,-63 412.46,-63"/>
<polygon fill="#63b8ff" stroke="#63b8ff" points="412.72,-66.5 422.72,-63 412.72,-59.5 412.72,-66.5"/>
</a>
</g>
</g>
<!-- Node6&#45;&gt;Node4 -->
<g id="edge7_Node000006_Node000004" class="edge">
<title>Node6&#45;&gt;Node4</title>
<g id="a_edge7_Node000006_Node000004"><a xlink:title=" ">
<path fill="none" stroke="#63b8ff" d="M380.82,-30.06C394.81,-34.7 410.37,-39.87 424.94,-44.71"/>
<polygon fill="#63b8ff" stroke="#63b8ff" points="424.24,-48.17 434.84,-48 426.45,-41.52 424.24,-48.17"/>
</a>
</g>
</g>
</g>
</svg>
