<?xml version="1.0" encoding="UTF-8" standalone="no"?>
<!DOCTYPE svg PUBLIC "-//W3C//DTD SVG 1.1//EN"
 "http://www.w3.org/Graphics/SVG/1.1/DTD/svg11.dtd">
<!-- Generated by graphviz version 2.43.0 (0)
 -->
<!-- Title: lci::alloc_endpoint_x::call_impl Pages: 1 -->
<svg width="406pt" height="134pt"
 viewBox="0.00 0.00 406.00 134.00" xmlns="http://www.w3.org/2000/svg" xmlns:xlink="http://www.w3.org/1999/xlink">
<g id="graph0" class="graph" transform="scale(1 1) rotate(0) translate(4 130)">
<title>lci::alloc_endpoint_x::call_impl</title>
<!-- Node1 -->
<g id="Node000001" class="node">
<title>Node1</title>
<g id="a_Node000001"><a xlink:title=" ">
<polygon fill="#999999" stroke="#666666" points="105,-78 0,-78 0,-48 105,-48 105,-78"/>
<text text-anchor="start" x="8" y="-66" font-family="Helvetica,sans-Serif" font-size="10.00">lci::alloc_endpoint</text>
<text text-anchor="middle" x="52.5" y="-55" font-family="Helvetica,sans-Serif" font-size="10.00">_x::call_impl</text>
</a>
</g>
</g>
<!-- Node2 -->
<g id="Node000002" class="node">
<title>Node2</title>
<g id="a_Node000002"><a xlink:href="../../da/d10/classlci_1_1alloc__endpoint__x.html#ac4e164362bc0cbd656403523d0a9fefb" target="_top" xlink:title=" ">
<polygon fill="white" stroke="#666666" points="246,-126 141,-126 141,-96 246,-96 246,-126"/>
<text text-anchor="start" x="149" y="-114" font-family="Helvetica,sans-Serif" font-size="10.00">lci::alloc_endpoint</text>
<text text-anchor="middle" x="193.5" y="-103" font-family="Helvetica,sans-Serif" font-size="10.00">_x::device</text>
</a>
</g>
</g>
<!-- Node1&#45;&gt;Node2 -->
<g id="edge1_Node000001_Node000002" class="edge">
<title>Node1&#45;&gt;Node2</title>
<g id="a_edge1_Node000001_Node000002"><a xlink:title=" ">
<path fill="none" stroke="#63b8ff" d="M97.1,-78.06C110.55,-82.7 125.52,-87.87 139.54,-92.71"/>
<polygon fill="#63b8ff" stroke="#63b8ff" points="138.46,-96.04 149.06,-96 140.75,-89.43 138.46,-96.04"/>
</a>
</g>
</g>
<!-- Node4 -->
<g id="Node000004" class="node">
<title>Node4</title>
<g id="a_Node000004"><a xlink:href="../../da/d10/classlci_1_1alloc__endpoint__x.html#a31c728e1118669821a5ae1ad220cdd8f" target="_top" xlink:title=" ">
<polygon fill="white" stroke="#666666" points="246,-78 141,-78 141,-48 246,-48 246,-78"/>
<text text-anchor="start" x="149" y="-66" font-family="Helvetica,sans-Serif" font-size="10.00">lci::alloc_endpoint</text>
<text text-anchor="middle" x="193.5" y="-55" font-family="Helvetica,sans-Serif" font-size="10.00">_x::runtime</text>
</a>
</g>
</g>
<!-- Node1&#45;&gt;Node4 -->
<g id="edge3_Node000001_Node000004" class="edge">
<title>Node1&#45;&gt;Node4</title>
<g id="a_edge3_Node000001_Node000004"><a xlink:title=" ">
<path fill="none" stroke="#63b8ff" d="M105.26,-63C113.49,-63 122.08,-63 130.51,-63"/>
<polygon fill="#63b8ff" stroke="#63b8ff" points="130.7,-66.5 140.7,-63 130.7,-59.5 130.7,-66.5"/>
</a>
</g>
</g>
<!-- Node5 -->
<g id="Node000005" class="node">
<title>Node5</title>
<g id="a_Node000005"><a xlink:href="../../da/d10/classlci_1_1alloc__endpoint__x.html#aeae3ef5e7ba3d89bd13c4dd9847d552f" target="_top" xlink:title=" ">
<polygon fill="white" stroke="#666666" points="246,-30 141,-30 141,0 246,0 246,-30"/>
<text text-anchor="start" x="149" y="-18" font-family="Helvetica,sans-Serif" font-size="10.00">lci::alloc_endpoint</text>
<text text-anchor="middle" x="193.5" y="-7" font-family="Helvetica,sans-Serif" font-size="10.00">_x::user_context</text>
</a>
</g>
</g>
<!-- Node1&#45;&gt;Node5 -->
<g id="edge5_Node000001_Node000005" class="edge">
<title>Node1&#45;&gt;Node5</title>
<g id="a_edge5_Node000001_Node000005"><a xlink:title=" ">
<path fill="none" stroke="#63b8ff" d="M97.1,-47.94C110.55,-43.3 125.52,-38.13 139.54,-33.29"/>
<polygon fill="#63b8ff" stroke="#63b8ff" points="140.75,-36.57 149.06,-30 138.46,-29.96 140.75,-36.57"/>
</a>
</g>
</g>
<!-- Node3 -->
<g id="Node000003" class="node">
<title>Node3</title>
<g id="a_Node000003"><a xlink:href="../../da/d10/classlci_1_1alloc__endpoint__x.html#a531dc54f2430678a56e456287dc8d473" target="_top" xlink:title=" ">
<polygon fill="white" stroke="#666666" points="398,-78 282,-78 282,-48 398,-48 398,-78"/>
<text text-anchor="start" x="290" y="-66" font-family="Helvetica,sans-Serif" font-size="10.00">lci::alloc_endpoint</text>
<text text-anchor="middle" x="340" y="-55" font-family="Helvetica,sans-Serif" font-size="10.00">_x::alloc_endpoint_x</text>
</a>
</g>
</g>
<!-- Node2&#45;&gt;Node3 -->
<g id="edge2_Node000002_Node000003" class="edge">
<title>Node2&#45;&gt;Node3</title>
<g id="a_edge2_Node000002_Node000003"><a xlink:title=" ">
<path fill="none" stroke="#63b8ff" d="M239.82,-95.94C253.81,-91.3 269.37,-86.13 283.94,-81.29"/>
<polygon fill="#63b8ff" stroke="#63b8ff" points="285.45,-84.48 293.84,-78 283.24,-77.83 285.45,-84.48"/>
</a>
</g>
</g>
<!-- Node4&#45;&gt;Node3 -->
<g id="edge4_Node000004_Node000003" class="edge">
<title>Node4&#45;&gt;Node3</title>
<g id="a_edge4_Node000004_Node000003"><a xlink:title=" ">
<path fill="none" stroke="#63b8ff" d="M246.26,-63C254.44,-63 262.99,-63 271.46,-63"/>
<polygon fill="#63b8ff" stroke="#63b8ff" points="271.72,-66.5 281.72,-63 271.72,-59.5 271.72,-66.5"/>
</a>
</g>
</g>
<!-- Node5&#45;&gt;Node3 -->
<g id="edge6_Node000005_Node000003" class="edge">
<title>Node5&#45;&gt;Node3</title>
<g id="a_edge6_Node000005_Node000003"><a xlink:title=" ">
<path fill="none" stroke="#63b8ff" d="M239.82,-30.06C253.81,-34.7 269.37,-39.87 283.94,-44.71"/>
<polygon fill="#63b8ff" stroke="#63b8ff" points="283.24,-48.17 293.84,-48 285.45,-41.52 283.24,-48.17"/>
</a>
</g>
</g>
</g>
</svg>
