<?xml version="1.0" encoding="UTF-8" standalone="no"?>
<!DOCTYPE svg PUBLIC "-//W3C//DTD SVG 1.1//EN"
 "http://www.w3.org/Graphics/SVG/1.1/DTD/svg11.dtd">
<!-- Generated by graphviz version 2.43.0 (0)
 -->
<!-- Title: lci::data_t Pages: 1 -->
<svg width="131pt" height="159pt"
 viewBox="0.00 0.00 131.00 159.00" xmlns="http://www.w3.org/2000/svg" xmlns:xlink="http://www.w3.org/1999/xlink">
<g id="graph0" class="graph" transform="scale(1 1) rotate(0) translate(4 155)">
<title>lci::data_t</title>
<!-- Node1 -->
<g id="Node000001" class="node">
<title>Node1</title>
<g id="a_Node000001"><a xlink:title="A generic type for describing or holding data.">
<polygon fill="#999999" stroke="#666666" points="65,-19 0,-19 0,0 65,0 65,-19"/>
<text text-anchor="middle" x="32.5" y="-7" font-family="Helvetica,sans-Serif" font-size="10.00">lci::data_t</text>
</a>
</g>
</g>
<!-- Node2 -->
<g id="Node000002" class="node">
<title>Node2</title>
<g id="a_Node000002"><a xlink:href="../../d7/d1a/classlci_1_1mr__t.html" target="_top" xlink:title="The actual implementation for RESOURCE mr.">
<polygon fill="white" stroke="#666666" points="60.5,-151 4.5,-151 4.5,-132 60.5,-132 60.5,-151"/>
<text text-anchor="middle" x="32.5" y="-139" font-family="Helvetica,sans-Serif" font-size="10.00">lci::mr_t</text>
</a>
</g>
</g>
<!-- Node2&#45;&gt;Node1 -->
<g id="edge1_Node000001_Node000002" class="edge">
<title>Node2&#45;&gt;Node1</title>
<g id="a_edge1_Node000001_Node000002"><a xlink:title=" ">
<path fill="none" stroke="#9a32cd" stroke-dasharray="5,2" d="M29.1,-121.73C26.78,-106.68 24.31,-85.01 25.5,-66 26.55,-49.33 29.35,-30.01 31.07,-19.12"/>
<polygon fill="#9a32cd" stroke="#9a32cd" points="25.69,-122.51 30.79,-131.8 32.59,-121.36 25.69,-122.51"/>
</a>
</g>
<text text-anchor="middle" x="34" y="-73" font-family="Helvetica,sans-Serif" font-size="10.00" fill="grey"> mr</text>
</g>
<!-- Node3 -->
<g id="Node000003" class="node">
<title>Node3</title>
<g id="a_Node000003"><a xlink:href="../../de/d63/structlci_1_1buffer__t.html" target="_top" xlink:title="The type of a local buffer descriptor.">
<polygon fill="white" stroke="#666666" points="123,-85 52,-85 52,-66 123,-66 123,-85"/>
<text text-anchor="middle" x="87.5" y="-73" font-family="Helvetica,sans-Serif" font-size="10.00">lci::buffer_t</text>
</a>
</g>
</g>
<!-- Node2&#45;&gt;Node3 -->
<g id="edge3_Node000003_Node000002" class="edge">
<title>Node2&#45;&gt;Node3</title>
<g id="a_edge3_Node000003_Node000002"><a xlink:title=" ">
<path fill="none" stroke="#9a32cd" stroke-dasharray="5,2" d="M46.57,-124.12C57.16,-111.81 71.26,-95.39 79.85,-85.41"/>
<polygon fill="#9a32cd" stroke="#9a32cd" points="43.78,-122 39.92,-131.87 49.09,-126.57 43.78,-122"/>
</a>
</g>
<text text-anchor="middle" x="72" y="-106" font-family="Helvetica,sans-Serif" font-size="10.00" fill="grey"> mr</text>
</g>
<!-- Node3&#45;&gt;Node1 -->
<g id="edge2_Node000001_Node000003" class="edge">
<title>Node3&#45;&gt;Node1</title>
<g id="a_edge2_Node000001_Node000003"><a xlink:title=" ">
<path fill="none" stroke="#9a32cd" stroke-dasharray="5,2" d="M73.43,-58.12C62.84,-45.81 48.74,-29.39 40.15,-19.41"/>
<polygon fill="#9a32cd" stroke="#9a32cd" points="70.91,-60.57 80.08,-65.87 76.22,-56 70.91,-60.57"/>
</a>
</g>
<text text-anchor="middle" x="82" y="-40" font-family="Helvetica,sans-Serif" font-size="10.00" fill="grey"> buffers</text>
</g>
</g>
</svg>
