<?xml version="1.0" encoding="UTF-8" standalone="no"?>
<!DOCTYPE svg PUBLIC "-//W3C//DTD SVG 1.1//EN"
 "http://www.w3.org/Graphics/SVG/1.1/DTD/svg11.dtd">
<!-- Generated by graphviz version 2.43.0 (0)
 -->
<!-- Title: lci::net_post_recv_x::call Pages: 1 -->
<svg width="248pt" height="76pt"
 viewBox="0.00 0.00 248.00 75.50" xmlns="http://www.w3.org/2000/svg" xmlns:xlink="http://www.w3.org/1999/xlink">
<g id="graph0" class="graph" transform="scale(1 1) rotate(0) translate(4 71.5)">
<title>lci::net_post_recv_x::call</title>
<!-- Node1 -->
<g id="Node000001" class="node">
<title>Node1</title>
<g id="a_Node000001"><a xlink:title=" ">
<polygon fill="#999999" stroke="#666666" points="240,-51 138,-51 138,-21 240,-21 240,-51"/>
<text text-anchor="start" x="146" y="-39" font-family="Helvetica,sans-Serif" font-size="10.00">lci::net_post_recv</text>
<text text-anchor="middle" x="189" y="-28" font-family="Helvetica,sans-Serif" font-size="10.00">_x::call</text>
</a>
</g>
</g>
<!-- Node2 -->
<g id="Node000002" class="node">
<title>Node2</title>
<g id="a_Node000002"><a xlink:href="../../d5/dd3/namespacelci.html#a1e2b9c2226e6b094249b446f2ad95fea" target="_top" xlink:title=" ">
<polygon fill="white" stroke="#666666" points="102,-67.5 0,-67.5 0,-48.5 102,-48.5 102,-67.5"/>
<text text-anchor="middle" x="51" y="-55.5" font-family="Helvetica,sans-Serif" font-size="10.00">lci::net_post_recv</text>
</a>
</g>
</g>
<!-- Node1&#45;&gt;Node2 -->
<g id="edge1_Node000001_Node000002" class="edge">
<title>Node1&#45;&gt;Node2</title>
<g id="a_edge1_Node000001_Node000002"><a xlink:title=" ">
<path fill="none" stroke="#63b8ff" d="M127.77,-45.74C119.18,-47.13 110.42,-48.55 102.05,-49.9"/>
<polygon fill="#63b8ff" stroke="#63b8ff" points="128.43,-49.18 137.75,-44.13 127.31,-42.27 128.43,-49.18"/>
</a>
</g>
</g>
<!-- Node3 -->
<g id="Node000003" class="node">
<title>Node3</title>
<g id="a_Node000003"><a xlink:href="../../db/dd0/classlci_1_1net__post__recv__x.html#acb65830c8798948ffc0703c8589065fc" target="_top" xlink:title=" ">
<polygon fill="white" stroke="#666666" points="102,-30 0,-30 0,0 102,0 102,-30"/>
<text text-anchor="start" x="8" y="-18" font-family="Helvetica,sans-Serif" font-size="10.00">lci::net_post_recv</text>
<text text-anchor="middle" x="51" y="-7" font-family="Helvetica,sans-Serif" font-size="10.00">_x::operator()</text>
</a>
</g>
</g>
<!-- Node1&#45;&gt;Node3 -->
<g id="edge2_Node000001_Node000003" class="edge">
<title>Node1&#45;&gt;Node3</title>
<g id="a_edge2_Node000001_Node000003"><a xlink:title=" ">
<path fill="none" stroke="#63b8ff" d="M127.77,-26.7C119.18,-25.37 110.42,-24.02 102.05,-22.73"/>
<polygon fill="#63b8ff" stroke="#63b8ff" points="127.33,-30.17 137.75,-28.24 128.4,-23.25 127.33,-30.17"/>
</a>
</g>
</g>
</g>
</svg>
