<?xml version="1.0" encoding="UTF-8" standalone="no"?>
<!DOCTYPE svg PUBLIC "-//W3C//DTD SVG 1.1//EN"
 "http://www.w3.org/Graphics/SVG/1.1/DTD/svg11.dtd">
<!-- Generated by graphviz version 2.43.0 (0)
 -->
<!-- Title: lci::post_put_x::call Pages: 1 -->
<svg width="638pt" height="854pt"
 viewBox="0.00 0.00 638.00 854.30" xmlns="http://www.w3.org/2000/svg" xmlns:xlink="http://www.w3.org/1999/xlink">
<g id="graph0" class="graph" transform="scale(1 1) rotate(0) translate(4 850.3)">
<title>lci::post_put_x::call</title>
<!-- Node1 -->
<g id="Node000001" class="node">
<title>Node1</title>
<g id="a_Node000001"><a xlink:title=" ">
<polygon fill="#999999" stroke="#666666" points="110,-431.3 0,-431.3 0,-412.3 110,-412.3 110,-431.3"/>
<text text-anchor="middle" x="55" y="-419.3" font-family="Helvetica,sans-Serif" font-size="10.00">lci::post_put_x::call</text>
</a>
</g>
</g>
<!-- Node2 -->
<g id="Node000002" class="node">
<title>Node2</title>
<g id="a_Node000002"><a xlink:href="../../d7/d85/classlci_1_1post__put__x.html#a7c47be347b9cd58177cf852427875c1d" target="_top" xlink:title=" ">
<polygon fill="white" stroke="#666666" points="474,-846.3 325,-846.3 325,-827.3 474,-827.3 474,-846.3"/>
<text text-anchor="middle" x="399.5" y="-834.3" font-family="Helvetica,sans-Serif" font-size="10.00">lci::post_put_x::allow_done</text>
</a>
</g>
</g>
<!-- Node1&#45;&gt;Node2 -->
<g id="edge1_Node000001_Node000002" class="edge">
<title>Node1&#45;&gt;Node2</title>
<g id="a_edge1_Node000001_Node000002"><a xlink:title=" ">
<path fill="none" stroke="#63b8ff" d="M57.21,-431.52C63.76,-482.46 96.39,-718.08 146,-768.8 189.78,-813.56 259.67,-829.83 314.84,-835.31"/>
<polygon fill="#63b8ff" stroke="#63b8ff" points="314.68,-838.81 324.95,-836.22 315.3,-831.84 314.68,-838.81"/>
</a>
</g>
</g>
<!-- Node4 -->
<g id="Node000004" class="node">
<title>Node4</title>
<g id="a_Node000004"><a xlink:href="../../d7/d85/classlci_1_1post__put__x.html#afe193737cce6daaf2317f9bb6ea49c9d" target="_top" xlink:title=" ">
<polygon fill="white" stroke="#666666" points="459,-808.8 340,-808.8 340,-778.8 459,-778.8 459,-808.8"/>
<text text-anchor="start" x="348" y="-796.8" font-family="Helvetica,sans-Serif" font-size="10.00">lci::post_put_x::allow</text>
<text text-anchor="middle" x="399.5" y="-785.8" font-family="Helvetica,sans-Serif" font-size="10.00">_posted</text>
</a>
</g>
</g>
<!-- Node1&#45;&gt;Node4 -->
<g id="edge3_Node000001_Node000004" class="edge">
<title>Node1&#45;&gt;Node4</title>
<g id="a_edge3_Node000001_Node000004"><a xlink:title=" ">
<path fill="none" stroke="#63b8ff" d="M55.74,-431.34C55.16,-472.82 58.52,-639.22 146,-724.8 194.7,-772.44 272.96,-787.95 329.45,-792.62"/>
<polygon fill="#63b8ff" stroke="#63b8ff" points="329.5,-796.13 339.73,-793.37 330.01,-789.15 329.5,-796.13"/>
</a>
</g>
</g>
<!-- Node5 -->
<g id="Node000005" class="node">
<title>Node5</title>
<g id="a_Node000005"><a xlink:href="../../d7/d85/classlci_1_1post__put__x.html#a9c3eee39d20edda920f82a4f6824fc28" target="_top" xlink:title=" ">
<polygon fill="white" stroke="#666666" points="459,-760.8 340,-760.8 340,-730.8 459,-730.8 459,-760.8"/>
<text text-anchor="start" x="348" y="-748.8" font-family="Helvetica,sans-Serif" font-size="10.00">lci::post_put_x::allow</text>
<text text-anchor="middle" x="399.5" y="-737.8" font-family="Helvetica,sans-Serif" font-size="10.00">_retry</text>
</a>
</g>
</g>
<!-- Node1&#45;&gt;Node5 -->
<g id="edge5_Node000001_Node000005" class="edge">
<title>Node1&#45;&gt;Node5</title>
<g id="a_edge5_Node000001_Node000005"><a xlink:title=" ">
<path fill="none" stroke="#63b8ff" d="M56.22,-431.35C57.62,-469.37 68.07,-611.41 146,-682.8 195.79,-728.41 273.5,-742.24 329.56,-745.85"/>
<polygon fill="#63b8ff" stroke="#63b8ff" points="329.59,-749.35 339.77,-746.41 329.97,-742.36 329.59,-749.35"/>
</a>
</g>
</g>
<!-- Node6 -->
<g id="Node000006" class="node">
<title>Node6</title>
<g id="a_Node000006"><a xlink:href="../../d7/d85/classlci_1_1post__put__x.html#a7a7860a8c1743c159d558247509b673f" target="_top" xlink:title=" ">
<polygon fill="white" stroke="#666666" points="463,-712.3 336,-712.3 336,-693.3 463,-693.3 463,-712.3"/>
<text text-anchor="middle" x="399.5" y="-700.3" font-family="Helvetica,sans-Serif" font-size="10.00">lci::post_put_x::buffers</text>
</a>
</g>
</g>
<!-- Node1&#45;&gt;Node6 -->
<g id="edge7_Node000001_Node000006" class="edge">
<title>Node1&#45;&gt;Node6</title>
<g id="a_edge7_Node000001_Node000006"><a xlink:title=" ">
<path fill="none" stroke="#63b8ff" d="M56.9,-431.5C60.65,-465.93 78.11,-583.41 146,-641.8 195.73,-684.57 270.46,-698.43 325.73,-702.43"/>
<polygon fill="#63b8ff" stroke="#63b8ff" points="325.61,-705.93 335.81,-703.06 326.05,-698.94 325.61,-705.93"/>
</a>
</g>
</g>
<!-- Node7 -->
<g id="Node000007" class="node">
<title>Node7</title>
<g id="a_Node000007"><a xlink:href="../../d7/d85/classlci_1_1post__put__x.html#a6473aac2999a69f1165c785a4bfacde1" target="_top" xlink:title=" ">
<polygon fill="white" stroke="#666666" points="283,-450.3 146,-450.3 146,-431.3 283,-431.3 283,-450.3"/>
<text text-anchor="middle" x="214.5" y="-438.3" font-family="Helvetica,sans-Serif" font-size="10.00">lci::post_put_x::call_impl</text>
</a>
</g>
</g>
<!-- Node1&#45;&gt;Node7 -->
<g id="edge9_Node000001_Node000007" class="edge">
<title>Node1&#45;&gt;Node7</title>
<g id="a_edge9_Node000001_Node000007"><a xlink:title=" ">
<path fill="none" stroke="#63b8ff" d="M110.2,-428.34C118.45,-429.33 127.1,-430.38 135.74,-431.42"/>
<polygon fill="#63b8ff" stroke="#63b8ff" points="135.49,-434.91 145.84,-432.64 136.33,-427.96 135.49,-434.91"/>
</a>
</g>
</g>
<!-- Node8 -->
<g id="Node000008" class="node">
<title>Node8</title>
<g id="a_Node000008"><a xlink:href="../../d7/d85/classlci_1_1post__put__x.html#a8760591ebcfb437bc49000c47b473227" target="_top" xlink:title=" ">
<polygon fill="white" stroke="#666666" points="459.5,-674.8 339.5,-674.8 339.5,-644.8 459.5,-644.8 459.5,-674.8"/>
<text text-anchor="start" x="347.5" y="-662.8" font-family="Helvetica,sans-Serif" font-size="10.00">lci::post_put_x::comp</text>
<text text-anchor="middle" x="399.5" y="-651.8" font-family="Helvetica,sans-Serif" font-size="10.00">_semantic</text>
</a>
</g>
</g>
<!-- Node1&#45;&gt;Node8 -->
<g id="edge48_Node000001_Node000008" class="edge">
<title>Node1&#45;&gt;Node8</title>
<g id="a_edge48_Node000001_Node000008"><a xlink:title=" ">
<path fill="none" stroke="#63b8ff" d="M57.81,-431.43C64.04,-461.73 87.51,-555.79 146,-601.8 198.25,-642.9 274.34,-655.87 329.31,-659.5"/>
<polygon fill="#63b8ff" stroke="#63b8ff" points="329.14,-662.99 339.32,-660.07 329.54,-656.01 329.14,-662.99"/>
</a>
</g>
</g>
<!-- Node9 -->
<g id="Node000009" class="node">
<title>Node9</title>
<g id="a_Node000009"><a xlink:href="../../d7/d85/classlci_1_1post__put__x.html#a0d0c3eb11071c0039598976d9fd4dd39" target="_top" xlink:title=" ">
<polygon fill="white" stroke="#666666" points="462,-626.3 337,-626.3 337,-607.3 462,-607.3 462,-626.3"/>
<text text-anchor="middle" x="399.5" y="-614.3" font-family="Helvetica,sans-Serif" font-size="10.00">lci::post_put_x::device</text>
</a>
</g>
</g>
<!-- Node1&#45;&gt;Node9 -->
<g id="edge49_Node000001_Node000009" class="edge">
<title>Node1&#45;&gt;Node9</title>
<g id="a_edge49_Node000001_Node000009"><a xlink:title=" ">
<path fill="none" stroke="#63b8ff" d="M59.02,-431.33C67.78,-457.36 95.85,-530.04 146,-564.8 199.13,-601.63 272.69,-613.45 326.71,-616.76"/>
<polygon fill="#63b8ff" stroke="#63b8ff" points="326.73,-620.27 336.9,-617.3 327.1,-613.28 326.73,-620.27"/>
</a>
</g>
</g>
<!-- Node10 -->
<g id="Node000010" class="node">
<title>Node10</title>
<g id="a_Node000010"><a xlink:href="../../d7/d85/classlci_1_1post__put__x.html#a220f22ad49076dd1dbe975d750bebf4e" target="_top" xlink:title=" ">
<polygon fill="white" stroke="#666666" points="467.5,-589.3 331.5,-589.3 331.5,-570.3 467.5,-570.3 467.5,-589.3"/>
<text text-anchor="middle" x="399.5" y="-577.3" font-family="Helvetica,sans-Serif" font-size="10.00">lci::post_put_x::endpoint</text>
</a>
</g>
</g>
<!-- Node1&#45;&gt;Node10 -->
<g id="edge50_Node000001_Node000010" class="edge">
<title>Node1&#45;&gt;Node10</title>
<g id="a_edge50_Node000001_Node000010"><a xlink:title=" ">
<path fill="none" stroke="#63b8ff" d="M61.01,-431.46C72.7,-452.98 104.03,-504.88 146,-529.8 199.14,-561.35 268.54,-573.4 321.14,-577.82"/>
<polygon fill="#63b8ff" stroke="#63b8ff" points="321.18,-581.33 331.42,-578.6 321.72,-574.35 321.18,-581.33"/>
</a>
</g>
</g>
<!-- Node11 -->
<g id="Node000011" class="node">
<title>Node11</title>
<g id="a_Node000011"><a xlink:href="../../d7/d85/classlci_1_1post__put__x.html#a8d834babe24c1337fc4c9cf80e1a240f" target="_top" xlink:title=" ">
<polygon fill="white" stroke="#666666" points="458.5,-551.8 340.5,-551.8 340.5,-521.8 458.5,-521.8 458.5,-551.8"/>
<text text-anchor="start" x="348.5" y="-539.8" font-family="Helvetica,sans-Serif" font-size="10.00">lci::post_put_x::force</text>
<text text-anchor="middle" x="399.5" y="-528.8" font-family="Helvetica,sans-Serif" font-size="10.00">_zcopy</text>
</a>
</g>
</g>
<!-- Node1&#45;&gt;Node11 -->
<g id="edge51_Node000001_Node000011" class="edge">
<title>Node1&#45;&gt;Node11</title>
<g id="a_edge51_Node000001_Node000011"><a xlink:title=" ">
<path fill="none" stroke="#63b8ff" d="M63.74,-431.41C78.01,-448.39 110.29,-483.43 146,-499.8 204.43,-526.58 277.73,-534.89 330.28,-537.06"/>
<polygon fill="#63b8ff" stroke="#63b8ff" points="330.38,-540.57 340.5,-537.42 330.63,-533.57 330.38,-540.57"/>
</a>
</g>
</g>
<!-- Node12 -->
<g id="Node000012" class="node">
<title>Node12</title>
<g id="a_Node000012"><a xlink:href="../../d7/d85/classlci_1_1post__put__x.html#a58f72581ef272b40fd6e6d8e3abd0d41" target="_top" xlink:title=" ">
<polygon fill="white" stroke="#666666" points="457.5,-503.8 341.5,-503.8 341.5,-473.8 457.5,-473.8 457.5,-503.8"/>
<text text-anchor="start" x="349.5" y="-491.8" font-family="Helvetica,sans-Serif" font-size="10.00">lci::post_put_x::local</text>
<text text-anchor="middle" x="399.5" y="-480.8" font-family="Helvetica,sans-Serif" font-size="10.00">_buffer</text>
</a>
</g>
</g>
<!-- Node1&#45;&gt;Node12 -->
<g id="edge52_Node000001_Node000012" class="edge">
<title>Node1&#45;&gt;Node12</title>
<g id="a_edge52_Node000001_Node000012"><a xlink:title=" ">
<path fill="none" stroke="#63b8ff" d="M67.3,-431.34C83.5,-444.38 114.84,-467.23 146,-476.8 206.76,-495.46 279.6,-496.85 331.39,-494.53"/>
<polygon fill="#63b8ff" stroke="#63b8ff" points="331.65,-498.02 341.46,-494.02 331.3,-491.03 331.65,-498.02"/>
</a>
</g>
</g>
<!-- Node13 -->
<g id="Node000013" class="node">
<title>Node13</title>
<g id="a_Node000013"><a xlink:href="../../d7/d85/classlci_1_1post__put__x.html#ab566a71233e425c23cfe9b2d03e29c8c" target="_top" xlink:title=" ">
<polygon fill="white" stroke="#666666" points="474,-455.3 325,-455.3 325,-436.3 474,-436.3 474,-455.3"/>
<text text-anchor="middle" x="399.5" y="-443.3" font-family="Helvetica,sans-Serif" font-size="10.00">lci::post_put_x::local_comp</text>
</a>
</g>
</g>
<!-- Node1&#45;&gt;Node13 -->
<g id="edge53_Node000001_Node000013" class="edge">
<title>Node1&#45;&gt;Node13</title>
<g id="a_edge53_Node000001_Node000013"><a xlink:title=" ">
<path fill="none" stroke="#63b8ff" d="M72.93,-431.38C90.54,-440.75 119.24,-454.38 146,-459.8 212.36,-473.23 290.4,-465.4 341.97,-457.05"/>
<polygon fill="#63b8ff" stroke="#63b8ff" points="342.63,-460.49 351.92,-455.38 341.47,-453.58 342.63,-460.49"/>
</a>
</g>
</g>
<!-- Node14 -->
<g id="Node000014" class="node">
<title>Node14</title>
<g id="a_Node000014"><a xlink:href="../../d7/d85/classlci_1_1post__put__x.html#ade34aae8efdd4222af3a16bf0dc5da18" target="_top" xlink:title=" ">
<polygon fill="white" stroke="#666666" points="453,-418.3 346,-418.3 346,-399.3 453,-399.3 453,-418.3"/>
<text text-anchor="middle" x="399.5" y="-406.3" font-family="Helvetica,sans-Serif" font-size="10.00">lci::post_put_x::mr</text>
</a>
</g>
</g>
<!-- Node1&#45;&gt;Node14 -->
<g id="edge54_Node000001_Node000014" class="edge">
<title>Node1&#45;&gt;Node14</title>
<g id="a_edge54_Node000001_Node000014"><a xlink:title=" ">
<path fill="none" stroke="#63b8ff" d="M110.27,-419.74C171.59,-417.41 271.25,-413.63 335.84,-411.18"/>
<polygon fill="#63b8ff" stroke="#63b8ff" points="336.03,-414.67 345.89,-410.8 335.76,-407.68 336.03,-414.67"/>
</a>
</g>
</g>
<!-- Node15 -->
<g id="Node000015" class="node">
<title>Node15</title>
<g id="a_Node000015"><a xlink:href="../../d7/d85/classlci_1_1post__put__x.html#a6197b81f323b36c577bb1632ddbf043a" target="_top" xlink:title=" ">
<polygon fill="white" stroke="#666666" points="475.5,-381.3 323.5,-381.3 323.5,-362.3 475.5,-362.3 475.5,-381.3"/>
<text text-anchor="middle" x="399.5" y="-369.3" font-family="Helvetica,sans-Serif" font-size="10.00">lci::post_put_x::packet_pool</text>
</a>
</g>
</g>
<!-- Node1&#45;&gt;Node15 -->
<g id="edge55_Node000001_Node000015" class="edge">
<title>Node1&#45;&gt;Node15</title>
<g id="a_edge55_Node000001_Node000015"><a xlink:title=" ">
<path fill="none" stroke="#63b8ff" d="M110.27,-413.88C167.74,-405.49 258.89,-392.18 323.28,-382.78"/>
<polygon fill="#63b8ff" stroke="#63b8ff" points="323.98,-386.21 333.37,-381.31 322.97,-379.29 323.98,-386.21"/>
</a>
</g>
</g>
<!-- Node16 -->
<g id="Node000016" class="node">
<title>Node16</title>
<g id="a_Node000016"><a xlink:href="../../d7/d85/classlci_1_1post__put__x.html#a14eb2ef67f761ab5ea877afe67212fca" target="_top" xlink:title=" ">
<polygon fill="white" stroke="#666666" points="457,-344.3 342,-344.3 342,-325.3 457,-325.3 457,-344.3"/>
<text text-anchor="middle" x="399.5" y="-332.3" font-family="Helvetica,sans-Serif" font-size="10.00">lci::post_put_x::rank</text>
</a>
</g>
</g>
<!-- Node1&#45;&gt;Node16 -->
<g id="edge56_Node000001_Node000016" class="edge">
<title>Node1&#45;&gt;Node16</title>
<g id="a_edge56_Node000001_Node000016"><a xlink:title=" ">
<path fill="none" stroke="#63b8ff" d="M75.97,-412.27C93.94,-404.02 121.25,-392.26 146,-384.8 207.87,-366.15 280.41,-352.61 331.83,-344.37"/>
<polygon fill="#63b8ff" stroke="#63b8ff" points="332.49,-347.81 341.82,-342.79 331.4,-340.89 332.49,-347.81"/>
</a>
</g>
</g>
<!-- Node17 -->
<g id="Node000017" class="node">
<title>Node17</title>
<g id="a_Node000017"><a xlink:href="../../d7/d85/classlci_1_1post__put__x.html#a982c74e0cc559c2e2d3e33fe59b0761b" target="_top" xlink:title=" ">
<polygon fill="white" stroke="#666666" points="465,-307.3 334,-307.3 334,-288.3 465,-288.3 465,-307.3"/>
<text text-anchor="middle" x="399.5" y="-295.3" font-family="Helvetica,sans-Serif" font-size="10.00">lci::post_put_x::rbuffers</text>
</a>
</g>
</g>
<!-- Node1&#45;&gt;Node17 -->
<g id="edge57_Node000001_Node000017" class="edge">
<title>Node1&#45;&gt;Node17</title>
<g id="a_edge57_Node000001_Node000017"><a xlink:title=" ">
<path fill="none" stroke="#63b8ff" d="M64.67,-412.24C79.63,-396.4 111.97,-364.84 146,-348.8 202.23,-322.3 271.83,-309.54 323.7,-303.42"/>
<polygon fill="#63b8ff" stroke="#63b8ff" points="324.29,-306.87 333.83,-302.28 323.51,-299.92 324.29,-306.87"/>
</a>
</g>
</g>
<!-- Node18 -->
<g id="Node000018" class="node">
<title>Node18</title>
<g id="a_Node000018"><a xlink:href="../../d7/d85/classlci_1_1post__put__x.html#ade9717efe47757e92549b22b50bb6d14" target="_top" xlink:title=" ">
<polygon fill="white" stroke="#666666" points="463.5,-269.8 335.5,-269.8 335.5,-239.8 463.5,-239.8 463.5,-269.8"/>
<text text-anchor="start" x="343.5" y="-257.8" font-family="Helvetica,sans-Serif" font-size="10.00">lci::post_put_x::remote</text>
<text text-anchor="middle" x="399.5" y="-246.8" font-family="Helvetica,sans-Serif" font-size="10.00">_buffer</text>
</a>
</g>
</g>
<!-- Node1&#45;&gt;Node18 -->
<g id="edge58_Node000001_Node000018" class="edge">
<title>Node1&#45;&gt;Node18</title>
<g id="a_edge58_Node000001_Node000018"><a xlink:title=" ">
<path fill="none" stroke="#63b8ff" d="M60.45,-412.02C71.41,-389.16 102.01,-332.09 146,-304.8 200.05,-271.27 272.04,-259.57 325.33,-255.79"/>
<polygon fill="#63b8ff" stroke="#63b8ff" points="325.63,-259.27 335.39,-255.15 325.18,-252.29 325.63,-259.27"/>
</a>
</g>
</g>
<!-- Node19 -->
<g id="Node000019" class="node">
<title>Node19</title>
<g id="a_Node000019"><a xlink:href="../../d7/d85/classlci_1_1post__put__x.html#ad4bc08cb1aef1932ac79961748f76dd2" target="_top" xlink:title=" ">
<polygon fill="white" stroke="#666666" points="480,-221.3 319,-221.3 319,-202.3 480,-202.3 480,-221.3"/>
<text text-anchor="middle" x="399.5" y="-209.3" font-family="Helvetica,sans-Serif" font-size="10.00">lci::post_put_x::remote_comp</text>
</a>
</g>
</g>
<!-- Node1&#45;&gt;Node19 -->
<g id="edge59_Node000001_Node000019" class="edge">
<title>Node1&#45;&gt;Node19</title>
<g id="a_edge59_Node000001_Node000019"><a xlink:title=" ">
<path fill="none" stroke="#63b8ff" d="M58.19,-412.02C65.21,-383.03 90.12,-297.02 146,-256.8 192.75,-223.14 256.74,-212.01 308.6,-209.23"/>
<polygon fill="#63b8ff" stroke="#63b8ff" points="308.97,-212.72 318.8,-208.79 308.66,-205.73 308.97,-212.72"/>
</a>
</g>
</g>
<!-- Node20 -->
<g id="Node000020" class="node">
<title>Node20</title>
<g id="a_Node000020"><a xlink:href="../../d7/d85/classlci_1_1post__put__x.html#aae3220b86cd474558b37f2f7787a0f54" target="_top" xlink:title=" ">
<polygon fill="white" stroke="#666666" points="454.5,-184.3 344.5,-184.3 344.5,-165.3 454.5,-165.3 454.5,-184.3"/>
<text text-anchor="middle" x="399.5" y="-172.3" font-family="Helvetica,sans-Serif" font-size="10.00">lci::post_put_x::rmr</text>
</a>
</g>
</g>
<!-- Node1&#45;&gt;Node20 -->
<g id="edge60_Node000001_Node000020" class="edge">
<title>Node1&#45;&gt;Node20</title>
<g id="a_edge60_Node000001_Node000020"><a xlink:title=" ">
<path fill="none" stroke="#63b8ff" d="M56.76,-412.05C60.04,-377.48 76.11,-259.95 146,-206.8 199.64,-166 278.98,-162.46 334.36,-166.26"/>
<polygon fill="#63b8ff" stroke="#63b8ff" points="334.17,-169.75 344.42,-167.05 334.72,-162.78 334.17,-169.75"/>
</a>
</g>
</g>
<!-- Node21 -->
<g id="Node000021" class="node">
<title>Node21</title>
<g id="a_Node000021"><a xlink:href="../../d7/d85/classlci_1_1post__put__x.html#a1b9f0551ed3b7e0b726a15b8c4eb7315" target="_top" xlink:title=" ">
<polygon fill="white" stroke="#666666" points="465,-147.3 334,-147.3 334,-128.3 465,-128.3 465,-147.3"/>
<text text-anchor="middle" x="399.5" y="-135.3" font-family="Helvetica,sans-Serif" font-size="10.00">lci::post_put_x::runtime</text>
</a>
</g>
</g>
<!-- Node1&#45;&gt;Node21 -->
<g id="edge61_Node000001_Node000021" class="edge">
<title>Node1&#45;&gt;Node21</title>
<g id="a_edge61_Node000001_Node000021"><a xlink:title=" ">
<path fill="none" stroke="#63b8ff" d="M55.91,-412.16C56.13,-373.18 62.63,-226.14 146,-160.8 201.61,-117.21 286.75,-119.24 342.52,-126.82"/>
<polygon fill="#63b8ff" stroke="#63b8ff" points="342.18,-130.31 352.58,-128.29 343.2,-123.38 342.18,-130.31"/>
</a>
</g>
</g>
<!-- Node22 -->
<g id="Node000022" class="node">
<title>Node22</title>
<g id="a_Node000022"><a xlink:href="../../d7/d85/classlci_1_1post__put__x.html#a8e4a92835eb5373cd0c4a8f7d052ba3a" target="_top" xlink:title=" ">
<polygon fill="white" stroke="#666666" points="456,-110.3 343,-110.3 343,-91.3 456,-91.3 456,-110.3"/>
<text text-anchor="middle" x="399.5" y="-98.3" font-family="Helvetica,sans-Serif" font-size="10.00">lci::post_put_x::size</text>
</a>
</g>
</g>
<!-- Node1&#45;&gt;Node22 -->
<g id="edge62_Node000001_Node000022" class="edge">
<title>Node1&#45;&gt;Node22</title>
<g id="a_edge62_Node000001_Node000022"><a xlink:title=" ">
<path fill="none" stroke="#63b8ff" d="M57.37,-412.17C64.33,-364.75 97.34,-156.76 146,-117.8 203.96,-71.4 295.42,-78.85 350.9,-89.27"/>
<polygon fill="#63b8ff" stroke="#63b8ff" points="350.34,-92.73 360.83,-91.24 351.7,-85.86 350.34,-92.73"/>
</a>
</g>
</g>
<!-- Node23 -->
<g id="Node000023" class="node">
<title>Node23</title>
<g id="a_Node000023"><a xlink:href="../../d7/d85/classlci_1_1post__put__x.html#a763b19426bad9e0c38a368006cd9bdc6" target="_top" xlink:title=" ">
<polygon fill="white" stroke="#666666" points="454,-73.3 345,-73.3 345,-54.3 454,-54.3 454,-73.3"/>
<text text-anchor="middle" x="399.5" y="-61.3" font-family="Helvetica,sans-Serif" font-size="10.00">lci::post_put_x::tag</text>
</a>
</g>
</g>
<!-- Node1&#45;&gt;Node23 -->
<g id="edge63_Node000001_Node000023" class="edge">
<title>Node1&#45;&gt;Node23</title>
<g id="a_edge63_Node000001_Node000023"><a xlink:title=" ">
<path fill="none" stroke="#63b8ff" d="M56.99,-412.26C62.52,-361.25 91.17,-121.46 146,-76.8 204.95,-28.78 299.73,-39.79 354.86,-51.93"/>
<polygon fill="#63b8ff" stroke="#63b8ff" points="354.14,-55.36 364.68,-54.2 355.72,-48.54 354.14,-55.36"/>
</a>
</g>
</g>
<!-- Node24 -->
<g id="Node000024" class="node">
<title>Node24</title>
<g id="a_Node000024"><a xlink:href="../../d7/d85/classlci_1_1post__put__x.html#a0b3a2ef72e0d53ef059b56ba1db406ae" target="_top" xlink:title=" ">
<polygon fill="white" stroke="#666666" points="456.5,-35.8 342.5,-35.8 342.5,-5.8 456.5,-5.8 456.5,-35.8"/>
<text text-anchor="start" x="350.5" y="-23.8" font-family="Helvetica,sans-Serif" font-size="10.00">lci::post_put_x::user</text>
<text text-anchor="middle" x="399.5" y="-12.8" font-family="Helvetica,sans-Serif" font-size="10.00">_context</text>
</a>
</g>
</g>
<!-- Node1&#45;&gt;Node24 -->
<g id="edge64_Node000001_Node000024" class="edge">
<title>Node1&#45;&gt;Node24</title>
<g id="a_edge64_Node000001_Node000024"><a xlink:title=" ">
<path fill="none" stroke="#63b8ff" d="M56.74,-412.3C61.16,-358.11 85.97,-88.76 146,-37.8 196.76,5.3 275.93,3.32 332.07,-5.46"/>
<polygon fill="#63b8ff" stroke="#63b8ff" points="331.83,-8.97 342.27,-7.17 332.99,-2.07 331.83,-8.97"/>
</a>
</g>
</g>
<!-- Node3 -->
<g id="Node000003" class="node">
<title>Node3</title>
<g id="a_Node000003"><a xlink:href="../../d7/d85/classlci_1_1post__put__x.html#acd6573ce439a8cead4c0cce5c9757c41" target="_top" xlink:title=" ">
<polygon fill="white" stroke="#666666" points="630,-423.8 516,-423.8 516,-393.8 630,-393.8 630,-423.8"/>
<text text-anchor="start" x="524" y="-411.8" font-family="Helvetica,sans-Serif" font-size="10.00">lci::post_put_x::post</text>
<text text-anchor="middle" x="573" y="-400.8" font-family="Helvetica,sans-Serif" font-size="10.00">_put_x</text>
</a>
</g>
</g>
<!-- Node2&#45;&gt;Node3 -->
<g id="edge2_Node000002_Node000003" class="edge">
<title>Node2&#45;&gt;Node3</title>
<g id="a_edge2_Node000002_Node000003"><a xlink:title=" ">
<path fill="none" stroke="#63b8ff" d="M467.03,-827.28C471.8,-824.75 476.21,-821.64 480,-817.8 534.56,-762.51 562.1,-515.06 569.74,-434.35"/>
<polygon fill="#63b8ff" stroke="#63b8ff" points="573.25,-434.38 570.69,-424.1 566.28,-433.74 573.25,-434.38"/>
</a>
</g>
</g>
<!-- Node4&#45;&gt;Node3 -->
<g id="edge4_Node000004_Node000003" class="edge">
<title>Node4&#45;&gt;Node3</title>
<g id="a_edge4_Node000004_Node000003"><a xlink:title=" ">
<path fill="none" stroke="#63b8ff" d="M459.23,-783.78C466.97,-780.37 474.22,-775.84 480,-769.8 527.11,-720.58 558.99,-507.87 568.8,-434.1"/>
<polygon fill="#63b8ff" stroke="#63b8ff" points="572.31,-434.25 570.14,-423.88 565.37,-433.34 572.31,-434.25"/>
</a>
</g>
</g>
<!-- Node5&#45;&gt;Node3 -->
<g id="edge6_Node000005_Node000003" class="edge">
<title>Node5&#45;&gt;Node3</title>
<g id="a_edge6_Node000005_Node000003"><a xlink:title=" ">
<path fill="none" stroke="#63b8ff" d="M459.03,-735.59C466.81,-732.21 474.11,-727.73 480,-721.8 560.41,-640.8 571.23,-493.38 572.2,-434.29"/>
<polygon fill="#63b8ff" stroke="#63b8ff" points="575.7,-434.04 572.28,-424.01 568.7,-433.98 575.7,-434.04"/>
</a>
</g>
</g>
<!-- Node6&#45;&gt;Node3 -->
<g id="edge8_Node000006_Node000003" class="edge">
<title>Node6&#45;&gt;Node3</title>
<g id="a_edge8_Node000006_Node000003"><a xlink:title=" ">
<path fill="none" stroke="#63b8ff" d="M463.11,-694.49C469.29,-691.79 475.08,-688.3 480,-683.8 553.65,-616.38 568.4,-488.36 571.31,-434.11"/>
<polygon fill="#63b8ff" stroke="#63b8ff" points="574.81,-434.14 571.76,-423.99 567.82,-433.83 574.81,-434.14"/>
</a>
</g>
</g>
<!-- Node7&#45;&gt;Node2 -->
<g id="edge10_Node000007_Node000002" class="edge">
<title>Node7&#45;&gt;Node2</title>
<g id="a_edge10_Node000007_Node000002"><a xlink:title=" ">
<path fill="none" stroke="#63b8ff" d="M216.8,-450.34C224.23,-503.6 263.02,-763.65 319,-817.8 320.49,-819.24 322.07,-820.58 323.73,-821.83"/>
<polygon fill="#63b8ff" stroke="#63b8ff" points="322.2,-825 332.55,-827.28 325.88,-819.04 322.2,-825"/>
</a>
</g>
</g>
<!-- Node7&#45;&gt;Node4 -->
<g id="edge11_Node000007_Node000004" class="edge">
<title>Node7&#45;&gt;Node4</title>
<g id="a_edge11_Node000007_Node000004"><a xlink:title=" ">
<path fill="none" stroke="#63b8ff" d="M215.48,-450.52C215.91,-494.34 223.61,-675.51 319,-769.8 322.47,-773.23 326.41,-776.17 330.64,-778.7"/>
<polygon fill="#63b8ff" stroke="#63b8ff" points="329.17,-781.87 339.66,-783.31 332.35,-775.64 329.17,-781.87"/>
</a>
</g>
</g>
<!-- Node7&#45;&gt;Node5 -->
<g id="edge12_Node000007_Node000005" class="edge">
<title>Node7&#45;&gt;Node5</title>
<g id="a_edge12_Node000007_Node000005"><a xlink:title=" ">
<path fill="none" stroke="#63b8ff" d="M216.07,-450.43C218.92,-490.15 235.18,-642.84 319,-721.8 322.55,-725.14 326.55,-728.03 330.83,-730.5"/>
<polygon fill="#63b8ff" stroke="#63b8ff" points="329.4,-733.71 339.91,-735.05 332.54,-727.45 329.4,-733.71"/>
</a>
</g>
</g>
<!-- Node7&#45;&gt;Node6 -->
<g id="edge13_Node000007_Node000006" class="edge">
<title>Node7&#45;&gt;Node6</title>
<g id="a_edge13_Node000007_Node000006"><a xlink:title=" ">
<path fill="none" stroke="#63b8ff" d="M216.55,-450.5C221.08,-487.23 242.28,-619 319,-683.8 321.42,-685.84 324.01,-687.67 326.74,-689.31"/>
<polygon fill="#63b8ff" stroke="#63b8ff" points="325.34,-692.52 335.85,-693.92 328.51,-686.28 325.34,-692.52"/>
</a>
</g>
</g>
<!-- Node7&#45;&gt;Node8 -->
<g id="edge14_Node000007_Node000008" class="edge">
<title>Node7&#45;&gt;Node8</title>
<g id="a_edge14_Node000007_Node000008"><a xlink:title=" ">
<path fill="none" stroke="#63b8ff" d="M217.83,-450.62C225.88,-482.44 255.64,-583.72 319,-635.8 322.48,-638.66 326.29,-641.17 330.3,-643.39"/>
<polygon fill="#63b8ff" stroke="#63b8ff" points="328.83,-646.57 339.35,-647.79 331.88,-640.27 328.83,-646.57"/>
</a>
</g>
</g>
<!-- Node7&#45;&gt;Node9 -->
<g id="edge16_Node000007_Node000009" class="edge">
<title>Node7&#45;&gt;Node9</title>
<g id="a_edge16_Node000007_Node000009"><a xlink:title=" ">
<path fill="none" stroke="#63b8ff" d="M218.84,-450.47C229.02,-478.37 262.43,-559.53 319,-598.8 321.73,-600.7 324.63,-602.4 327.65,-603.92"/>
<polygon fill="#63b8ff" stroke="#63b8ff" points="326.41,-607.2 336.98,-607.98 329.21,-600.78 326.41,-607.2"/>
</a>
</g>
</g>
<!-- Node7&#45;&gt;Node10 -->
<g id="edge18_Node000007_Node000010" class="edge">
<title>Node7&#45;&gt;Node10</title>
<g id="a_edge18_Node000007_Node000010"><a xlink:title=" ">
<path fill="none" stroke="#63b8ff" d="M220.84,-450.37C234.17,-473.32 271.3,-531.76 319,-560.8 322.61,-563 326.46,-564.94 330.45,-566.66"/>
<polygon fill="#63b8ff" stroke="#63b8ff" points="329.34,-569.99 339.93,-570.28 331.84,-563.45 329.34,-569.99"/>
</a>
</g>
</g>
<!-- Node7&#45;&gt;Node11 -->
<g id="edge20_Node000007_Node000011" class="edge">
<title>Node7&#45;&gt;Node11</title>
<g id="a_edge20_Node000007_Node000011"><a xlink:title=" ">
<path fill="none" stroke="#63b8ff" d="M226.85,-450.52C245.14,-465.74 282.74,-495.26 319,-512.8 322.98,-514.72 327.14,-516.53 331.39,-518.22"/>
<polygon fill="#63b8ff" stroke="#63b8ff" points="330.2,-521.51 340.79,-521.74 332.65,-514.95 330.2,-521.51"/>
</a>
</g>
</g>
<!-- Node7&#45;&gt;Node12 -->
<g id="edge22_Node000007_Node000012" class="edge">
<title>Node7&#45;&gt;Node12</title>
<g id="a_edge22_Node000007_Node000012"><a xlink:title=" ">
<path fill="none" stroke="#63b8ff" d="M252.09,-450.4C274.85,-456.37 304.8,-464.22 331.68,-471.27"/>
<polygon fill="#63b8ff" stroke="#63b8ff" points="330.87,-474.68 341.43,-473.83 332.64,-467.91 330.87,-474.68"/>
</a>
</g>
</g>
<!-- Node7&#45;&gt;Node13 -->
<g id="edge24_Node000007_Node000013" class="edge">
<title>Node7&#45;&gt;Node13</title>
<g id="a_edge24_Node000007_Node000013"><a xlink:title=" ">
<path fill="none" stroke="#63b8ff" d="M283.12,-442.65C293.38,-442.93 304.08,-443.22 314.63,-443.51"/>
<polygon fill="#63b8ff" stroke="#63b8ff" points="314.6,-447.01 324.69,-443.78 314.79,-440.01 314.6,-447.01"/>
</a>
</g>
</g>
<!-- Node7&#45;&gt;Node14 -->
<g id="edge26_Node000007_Node000014" class="edge">
<title>Node7&#45;&gt;Node14</title>
<g id="a_edge26_Node000007_Node000014"><a xlink:title=" ">
<path fill="none" stroke="#63b8ff" d="M269.91,-431.28C290.65,-427.66 314.45,-423.5 335.88,-419.75"/>
<polygon fill="#63b8ff" stroke="#63b8ff" points="336.62,-423.17 345.87,-418 335.42,-416.28 336.62,-423.17"/>
</a>
</g>
</g>
<!-- Node7&#45;&gt;Node15 -->
<g id="edge28_Node000007_Node000015" class="edge">
<title>Node7&#45;&gt;Node15</title>
<g id="a_edge28_Node000007_Node000015"><a xlink:title=" ">
<path fill="none" stroke="#63b8ff" d="M232.59,-431.13C252.71,-420.07 287.42,-402.05 319,-390.8 326.06,-388.28 333.6,-385.99 341.11,-383.95"/>
<polygon fill="#63b8ff" stroke="#63b8ff" points="342.13,-387.3 350.93,-381.4 340.37,-380.53 342.13,-387.3"/>
</a>
</g>
</g>
<!-- Node7&#45;&gt;Node16 -->
<g id="edge30_Node000007_Node000016" class="edge">
<title>Node7&#45;&gt;Node16</title>
<g id="a_edge30_Node000007_Node000016"><a xlink:title=" ">
<path fill="none" stroke="#63b8ff" d="M223.87,-431.29C240.26,-413.28 278.54,-374.19 319,-353.8 323.63,-351.46 328.56,-349.41 333.61,-347.6"/>
<polygon fill="#63b8ff" stroke="#63b8ff" points="334.99,-350.83 343.43,-344.42 332.83,-344.17 334.99,-350.83"/>
</a>
</g>
</g>
<!-- Node7&#45;&gt;Node17 -->
<g id="edge32_Node000007_Node000017" class="edge">
<title>Node7&#45;&gt;Node17</title>
<g id="a_edge32_Node000007_Node000017"><a xlink:title=" ">
<path fill="none" stroke="#63b8ff" d="M220.56,-431.26C233.52,-407.78 270.38,-346.94 319,-316.8 322.43,-314.67 326.08,-312.78 329.86,-311.11"/>
<polygon fill="#63b8ff" stroke="#63b8ff" points="331.41,-314.26 339.46,-307.36 328.87,-307.74 331.41,-314.26"/>
</a>
</g>
</g>
<!-- Node7&#45;&gt;Node18 -->
<g id="edge34_Node000007_Node000018" class="edge">
<title>Node7&#45;&gt;Node18</title>
<g id="a_edge34_Node000007_Node000018"><a xlink:title=" ">
<path fill="none" stroke="#63b8ff" d="M218.95,-431.17C229.42,-403.36 263.54,-322.14 319,-279.8 321.45,-277.93 324.04,-276.19 326.74,-274.59"/>
<polygon fill="#63b8ff" stroke="#63b8ff" points="328.44,-277.65 335.65,-269.89 325.17,-271.46 328.44,-277.65"/>
</a>
</g>
</g>
<!-- Node7&#45;&gt;Node19 -->
<g id="edge36_Node000007_Node000019" class="edge">
<title>Node7&#45;&gt;Node19</title>
<g id="a_edge36_Node000007_Node000019"><a xlink:title=" ">
<path fill="none" stroke="#63b8ff" d="M217.27,-431.03C223.88,-397.42 250.39,-285.58 319,-230.8 321.09,-229.13 323.3,-227.61 325.6,-226.22"/>
<polygon fill="#63b8ff" stroke="#63b8ff" points="327.57,-229.14 334.88,-221.46 324.38,-222.91 327.57,-229.14"/>
</a>
</g>
</g>
<!-- Node7&#45;&gt;Node20 -->
<g id="edge38_Node000007_Node000020" class="edge">
<title>Node7&#45;&gt;Node20</title>
<g id="a_edge38_Node000007_Node000020"><a xlink:title=" ">
<path fill="none" stroke="#63b8ff" d="M216.47,-431.2C220.73,-394.23 241.23,-259.88 319,-193.8 323.64,-189.86 328.96,-186.7 334.6,-184.18"/>
<polygon fill="#63b8ff" stroke="#63b8ff" points="336.21,-187.31 344.33,-180.51 333.74,-180.76 336.21,-187.31"/>
</a>
</g>
</g>
<!-- Node7&#45;&gt;Node21 -->
<g id="edge40_Node000007_Node000021" class="edge">
<title>Node7&#45;&gt;Node21</title>
<g id="a_edge40_Node000007_Node000021"><a xlink:title=" ">
<path fill="none" stroke="#63b8ff" d="M215.89,-431.2C218.06,-390.96 232.03,-234.31 319,-156.8 320.76,-155.23 322.64,-153.78 324.59,-152.44"/>
<polygon fill="#63b8ff" stroke="#63b8ff" points="326.69,-155.28 333.66,-147.3 323.23,-149.19 326.69,-155.28"/>
</a>
</g>
</g>
<!-- Node7&#45;&gt;Node22 -->
<g id="edge42_Node000007_Node000022" class="edge">
<title>Node7&#45;&gt;Node22</title>
<g id="a_edge42_Node000007_Node000022"><a xlink:title=" ">
<path fill="none" stroke="#63b8ff" d="M215.44,-431.18C215.69,-387.84 222.74,-208.89 319,-119.8 323.17,-115.94 327.97,-112.83 333.11,-110.32"/>
<polygon fill="#63b8ff" stroke="#63b8ff" points="334.73,-113.44 342.67,-106.42 332.09,-106.96 334.73,-113.44"/>
</a>
</g>
</g>
<!-- Node7&#45;&gt;Node23 -->
<g id="edge44_Node000007_Node000023" class="edge">
<title>Node7&#45;&gt;Node23</title>
<g id="a_edge44_Node000007_Node000023"><a xlink:title=" ">
<path fill="none" stroke="#63b8ff" d="M215.06,-431.05C213.54,-384.58 213.45,-183.52 319,-82.8 323.72,-78.3 329.3,-74.8 335.29,-72.09"/>
<polygon fill="#63b8ff" stroke="#63b8ff" points="336.84,-75.25 344.96,-68.45 334.37,-68.7 336.84,-75.25"/>
</a>
</g>
</g>
<!-- Node7&#45;&gt;Node24 -->
<g id="edge46_Node000007_Node000024" class="edge">
<title>Node7&#45;&gt;Node24</title>
<g id="a_edge46_Node000007_Node000024"><a xlink:title=" ">
<path fill="none" stroke="#63b8ff" d="M216.73,-431.2C223.94,-376.4 262.31,-103.66 319,-44.8 323.1,-40.54 327.93,-37.03 333.14,-34.14"/>
<polygon fill="#63b8ff" stroke="#63b8ff" points="334.69,-37.28 342.22,-29.83 331.69,-30.96 334.69,-37.28"/>
</a>
</g>
</g>
<!-- Node8&#45;&gt;Node3 -->
<g id="edge15_Node000008_Node000003" class="edge">
<title>Node8&#45;&gt;Node3</title>
<g id="a_edge15_Node000008_Node000003"><a xlink:title=" ">
<path fill="none" stroke="#63b8ff" d="M459.73,-648.53C467.13,-645.3 474.14,-641.14 480,-635.8 540.21,-580.88 561.83,-480.98 568.9,-434.22"/>
<polygon fill="#63b8ff" stroke="#63b8ff" points="572.4,-434.44 570.33,-424.05 565.47,-433.46 572.4,-434.44"/>
</a>
</g>
</g>
<!-- Node9&#45;&gt;Node3 -->
<g id="edge17_Node000009_Node000003" class="edge">
<title>Node9&#45;&gt;Node3</title>
<g id="a_edge17_Node000009_Node000003"><a xlink:title=" ">
<path fill="none" stroke="#63b8ff" d="M462.13,-608.83C468.56,-606.3 474.68,-603.02 480,-598.8 533.48,-556.32 557.85,-475.01 567.15,-433.91"/>
<polygon fill="#63b8ff" stroke="#63b8ff" points="570.62,-434.42 569.29,-423.91 563.78,-432.95 570.62,-434.42"/>
</a>
</g>
</g>
<!-- Node10&#45;&gt;Node3 -->
<g id="edge19_Node000010_Node000003" class="edge">
<title>Node10&#45;&gt;Node3</title>
<g id="a_edge19_Node000010_Node000003"><a xlink:title=" ">
<path fill="none" stroke="#63b8ff" d="M462.58,-570.19C468.78,-567.73 474.73,-564.65 480,-560.8 524.25,-528.49 551.39,-467.84 563.85,-433.73"/>
<polygon fill="#63b8ff" stroke="#63b8ff" points="567.24,-434.65 567.26,-424.06 560.64,-432.33 567.24,-434.65"/>
</a>
</g>
</g>
<!-- Node11&#45;&gt;Node3 -->
<g id="edge21_Node000011_Node000003" class="edge">
<title>Node11&#45;&gt;Node3</title>
<g id="a_edge21_Node000011_Node000003"><a xlink:title=" ">
<path fill="none" stroke="#63b8ff" d="M458.64,-523.4C466.12,-520.5 473.44,-517 480,-512.8 512.76,-491.81 540.77,-455.95 557.01,-432.32"/>
<polygon fill="#63b8ff" stroke="#63b8ff" points="559.98,-434.17 562.64,-423.91 554.17,-430.27 559.98,-434.17"/>
</a>
</g>
</g>
<!-- Node12&#45;&gt;Node3 -->
<g id="edge23_Node000012_Node000003" class="edge">
<title>Node12&#45;&gt;Node3</title>
<g id="a_edge23_Node000012_Node000003"><a xlink:title=" ">
<path fill="none" stroke="#63b8ff" d="M456.75,-473.77C464.68,-471.09 472.63,-468.09 480,-464.8 501.66,-455.12 524.45,-441.28 541.93,-429.78"/>
<polygon fill="#63b8ff" stroke="#63b8ff" points="544.19,-432.49 550.55,-424.02 540.29,-426.67 544.19,-432.49"/>
</a>
</g>
</g>
<!-- Node13&#45;&gt;Node3 -->
<g id="edge25_Node000013_Node000003" class="edge">
<title>Node13&#45;&gt;Node3</title>
<g id="a_edge25_Node000013_Node000003"><a xlink:title=" ">
<path fill="none" stroke="#63b8ff" d="M444.67,-436.27C463.34,-432.24 485.5,-427.46 506.04,-423.03"/>
<polygon fill="#63b8ff" stroke="#63b8ff" points="506.94,-426.42 515.98,-420.88 505.47,-419.57 506.94,-426.42"/>
</a>
</g>
</g>
<!-- Node14&#45;&gt;Node3 -->
<g id="edge27_Node000014_Node000003" class="edge">
<title>Node14&#45;&gt;Node3</title>
<g id="a_edge27_Node000014_Node000003"><a xlink:title=" ">
<path fill="none" stroke="#63b8ff" d="M453.36,-408.8C469.89,-408.8 488.35,-408.8 505.69,-408.8"/>
<polygon fill="#63b8ff" stroke="#63b8ff" points="505.75,-412.3 515.75,-408.8 505.75,-405.3 505.75,-412.3"/>
</a>
</g>
</g>
<!-- Node15&#45;&gt;Node3 -->
<g id="edge29_Node000015_Node000003" class="edge">
<title>Node15&#45;&gt;Node3</title>
<g id="a_edge29_Node000015_Node000003"><a xlink:title=" ">
<path fill="none" stroke="#63b8ff" d="M444.67,-381.33C463.34,-385.36 485.5,-390.14 506.04,-394.57"/>
<polygon fill="#63b8ff" stroke="#63b8ff" points="505.47,-398.03 515.98,-396.71 506.94,-391.18 505.47,-398.03"/>
</a>
</g>
</g>
<!-- Node16&#45;&gt;Node3 -->
<g id="edge31_Node000016_Node000003" class="edge">
<title>Node16&#45;&gt;Node3</title>
<g id="a_edge31_Node000016_Node000003"><a xlink:title=" ">
<path fill="none" stroke="#63b8ff" d="M450.85,-344.38C460.69,-346.93 470.8,-350.05 480,-353.8 502.01,-362.76 524.96,-376.48 542.44,-387.96"/>
<polygon fill="#63b8ff" stroke="#63b8ff" points="540.78,-391.07 551.04,-393.73 544.68,-385.26 540.78,-391.07"/>
</a>
</g>
</g>
<!-- Node17&#45;&gt;Node3 -->
<g id="edge33_Node000017_Node000003" class="edge">
<title>Node17&#45;&gt;Node3</title>
<g id="a_edge33_Node000017_Node000003"><a xlink:title=" ">
<path fill="none" stroke="#63b8ff" d="M457.55,-307.37C465.36,-309.83 473.06,-312.92 480,-316.8 510.67,-333.95 538.04,-364.23 554.79,-385.35"/>
<polygon fill="#63b8ff" stroke="#63b8ff" points="552.21,-387.73 561.09,-393.5 557.74,-383.45 552.21,-387.73"/>
</a>
</g>
</g>
<!-- Node18&#45;&gt;Node3 -->
<g id="edge35_Node000018_Node000003" class="edge">
<title>Node18&#45;&gt;Node3</title>
<g id="a_edge35_Node000018_Node000003"><a xlink:title=" ">
<path fill="none" stroke="#63b8ff" d="M462.76,-269.96C468.86,-272.72 474.73,-275.97 480,-279.8 518,-307.39 546.23,-355.54 560.82,-384.57"/>
<polygon fill="#63b8ff" stroke="#63b8ff" points="557.71,-386.17 565.24,-393.62 564,-383.1 557.71,-386.17"/>
</a>
</g>
</g>
<!-- Node19&#45;&gt;Node3 -->
<g id="edge37_Node000019_Node000003" class="edge">
<title>Node19&#45;&gt;Node3</title>
<g id="a_edge37_Node000019_Node000003"><a xlink:title=" ">
<path fill="none" stroke="#63b8ff" d="M463.65,-221.39C469.51,-223.86 475.08,-226.95 480,-230.8 530.33,-270.19 555.8,-344.73 566.18,-383.67"/>
<polygon fill="#63b8ff" stroke="#63b8ff" points="562.86,-384.82 568.71,-393.65 569.64,-383.1 562.86,-384.82"/>
</a>
</g>
</g>
<!-- Node20&#45;&gt;Node3 -->
<g id="edge39_Node000020_Node000003" class="edge">
<title>Node20&#45;&gt;Node3</title>
<g id="a_edge39_Node000020_Node000003"><a xlink:title=" ">
<path fill="none" stroke="#63b8ff" d="M454.63,-180.55C463.82,-183.45 472.73,-187.67 480,-193.8 539.07,-243.61 561.16,-338.18 568.6,-383.43"/>
<polygon fill="#63b8ff" stroke="#63b8ff" points="565.18,-384.21 570.16,-393.57 572.1,-383.15 565.18,-384.21"/>
</a>
</g>
</g>
<!-- Node21&#45;&gt;Node3 -->
<g id="edge41_Node000021_Node000003" class="edge">
<title>Node21&#45;&gt;Node3</title>
<g id="a_edge41_Node000021_Node000003"><a xlink:title=" ">
<path fill="none" stroke="#63b8ff" d="M465.34,-147.3C470.66,-149.81 475.66,-152.93 480,-156.8 548.04,-217.41 565.82,-332.56 570.42,-383.49"/>
<polygon fill="#63b8ff" stroke="#63b8ff" points="566.94,-383.93 571.23,-393.61 573.92,-383.37 566.94,-383.93"/>
</a>
</g>
</g>
<!-- Node22&#45;&gt;Node3 -->
<g id="edge43_Node000022_Node000003" class="edge">
<title>Node22&#45;&gt;Node3</title>
<g id="a_edge43_Node000022_Node000003"><a xlink:title=" ">
<path fill="none" stroke="#63b8ff" d="M456.35,-106.4C465.05,-109.34 473.35,-113.62 480,-119.8 557.03,-191.36 569.87,-327.12 571.79,-383.39"/>
<polygon fill="#63b8ff" stroke="#63b8ff" points="568.29,-383.63 572.04,-393.54 575.29,-383.45 568.29,-383.63"/>
</a>
</g>
</g>
<!-- Node23&#45;&gt;Node3 -->
<g id="edge45_Node000023_Node000003" class="edge">
<title>Node23&#45;&gt;Node3</title>
<g id="a_edge45_Node000023_Node000003"><a xlink:title=" ">
<path fill="none" stroke="#63b8ff" d="M454.07,-68.42C463.64,-71.38 472.84,-75.92 480,-82.8 566.05,-165.44 573.49,-321.83 572.88,-383.18"/>
<polygon fill="#63b8ff" stroke="#63b8ff" points="569.37,-383.43 572.68,-393.49 576.37,-383.56 569.37,-383.43"/>
</a>
</g>
</g>
<!-- Node24&#45;&gt;Node3 -->
<g id="edge47_Node000024_Node000003" class="edge">
<title>Node24&#45;&gt;Node3</title>
<g id="a_edge47_Node000024_Node000003"><a xlink:title=" ">
<path fill="none" stroke="#63b8ff" d="M456.82,-29.79C465.47,-33.29 473.63,-38.13 480,-44.8 527.43,-94.45 559.1,-308.92 568.83,-383.29"/>
<polygon fill="#63b8ff" stroke="#63b8ff" points="565.41,-384.12 570.15,-393.59 572.35,-383.23 565.41,-384.12"/>
</a>
</g>
</g>
</g>
</svg>
