<?xml version="1.0" encoding="UTF-8" standalone="no"?>
<!DOCTYPE svg PUBLIC "-//W3C//DTD SVG 1.1//EN"
 "http://www.w3.org/Graphics/SVG/1.1/DTD/svg11.dtd">
<!-- Generated by graphviz version 2.43.0 (0)
 -->
<!-- Title: lci::post_put_x::call Pages: 1 -->
<svg width="638pt" height="765pt"
 viewBox="0.00 0.00 638.00 765.03" xmlns="http://www.w3.org/2000/svg" xmlns:xlink="http://www.w3.org/1999/xlink">
<g id="graph0" class="graph" transform="scale(1 1) rotate(0) translate(4 761.03)">
<title>lci::post_put_x::call</title>
<!-- Node1 -->
<g id="Node000001" class="node">
<title>Node1</title>
<g id="a_Node000001"><a xlink:title=" ">
<polygon fill="#999999" stroke="#666666" points="110,-387.03 0,-387.03 0,-368.03 110,-368.03 110,-387.03"/>
<text text-anchor="middle" x="55" y="-375.03" font-family="Helvetica,sans-Serif" font-size="10.00">lci::post_put_x::call</text>
</a>
</g>
</g>
<!-- Node2 -->
<g id="Node000002" class="node">
<title>Node2</title>
<g id="a_Node000002"><a xlink:href="../../d7/d85/classlci_1_1post__put__x.html#a7c47be347b9cd58177cf852427875c1d" target="_top" xlink:title=" ">
<polygon fill="white" stroke="#666666" points="474,-757.03 325,-757.03 325,-738.03 474,-738.03 474,-757.03"/>
<text text-anchor="middle" x="399.5" y="-745.03" font-family="Helvetica,sans-Serif" font-size="10.00">lci::post_put_x::allow_done</text>
</a>
</g>
</g>
<!-- Node1&#45;&gt;Node2 -->
<g id="edge1_Node000001_Node000002" class="edge">
<title>Node1&#45;&gt;Node2</title>
<g id="a_edge1_Node000001_Node000002"><a xlink:title=" ">
<path fill="none" stroke="#63b8ff" d="M55.81,-387.21C55.57,-428.57 60.24,-592.18 146,-677.53 190.32,-721.63 259.83,-738.56 314.71,-744.77"/>
<polygon fill="#63b8ff" stroke="#63b8ff" points="314.47,-748.26 324.78,-745.81 315.19,-741.3 314.47,-748.26"/>
</a>
</g>
</g>
<!-- Node4 -->
<g id="Node000004" class="node">
<title>Node4</title>
<g id="a_Node000004"><a xlink:href="../../d7/d85/classlci_1_1post__put__x.html#afe193737cce6daaf2317f9bb6ea49c9d" target="_top" xlink:title=" ">
<polygon fill="white" stroke="#666666" points="459,-719.53 340,-719.53 340,-689.53 459,-689.53 459,-719.53"/>
<text text-anchor="start" x="348" y="-707.53" font-family="Helvetica,sans-Serif" font-size="10.00">lci::post_put_x::allow</text>
<text text-anchor="middle" x="399.5" y="-696.53" font-family="Helvetica,sans-Serif" font-size="10.00">_posted</text>
</a>
</g>
</g>
<!-- Node1&#45;&gt;Node4 -->
<g id="edge3_Node000001_Node000004" class="edge">
<title>Node1&#45;&gt;Node4</title>
<g id="a_edge3_Node000001_Node000004"><a xlink:title=" ">
<path fill="none" stroke="#63b8ff" d="M56.35,-387.08C58.27,-424.52 70.41,-562.62 146,-633.53 195.71,-680.16 273.62,-696.53 329.75,-702.09"/>
<polygon fill="#63b8ff" stroke="#63b8ff" points="329.69,-705.6 339.96,-703.01 330.32,-698.63 329.69,-705.6"/>
</a>
</g>
</g>
<!-- Node5 -->
<g id="Node000005" class="node">
<title>Node5</title>
<g id="a_Node000005"><a xlink:href="../../d7/d85/classlci_1_1post__put__x.html#a9c3eee39d20edda920f82a4f6824fc28" target="_top" xlink:title=" ">
<polygon fill="white" stroke="#666666" points="459,-671.53 340,-671.53 340,-641.53 459,-641.53 459,-671.53"/>
<text text-anchor="start" x="348" y="-659.53" font-family="Helvetica,sans-Serif" font-size="10.00">lci::post_put_x::allow</text>
<text text-anchor="middle" x="399.5" y="-648.53" font-family="Helvetica,sans-Serif" font-size="10.00">_retry</text>
</a>
</g>
</g>
<!-- Node1&#45;&gt;Node5 -->
<g id="edge5_Node000001_Node000005" class="edge">
<title>Node1&#45;&gt;Node5</title>
<g id="a_edge5_Node000001_Node000005"><a xlink:title=" ">
<path fill="none" stroke="#63b8ff" d="M57.08,-387.4C61.34,-421.4 80.11,-534.63 146,-591.53 197.04,-635.6 274.19,-650.39 329.77,-655.05"/>
<polygon fill="#63b8ff" stroke="#63b8ff" points="329.65,-658.55 339.89,-655.81 330.17,-651.57 329.65,-658.55"/>
</a>
</g>
</g>
<!-- Node6 -->
<g id="Node000006" class="node">
<title>Node6</title>
<g id="a_Node000006"><a xlink:href="../../d7/d85/classlci_1_1post__put__x.html#a2bdcf8d5af7b4d06907d835f0ba1f12b" target="_top" xlink:title=" ">
<polygon fill="white" stroke="#666666" points="283,-406.03 146,-406.03 146,-387.03 283,-387.03 283,-406.03"/>
<text text-anchor="middle" x="214.5" y="-394.03" font-family="Helvetica,sans-Serif" font-size="10.00">lci::post_put_x::call_impl</text>
</a>
</g>
</g>
<!-- Node1&#45;&gt;Node6 -->
<g id="edge7_Node000001_Node000006" class="edge">
<title>Node1&#45;&gt;Node6</title>
<g id="a_edge7_Node000001_Node000006"><a xlink:title=" ">
<path fill="none" stroke="#63b8ff" d="M110.2,-384.07C118.45,-385.06 127.1,-386.1 135.74,-387.15"/>
<polygon fill="#63b8ff" stroke="#63b8ff" points="135.49,-390.64 145.84,-388.36 136.33,-383.69 135.49,-390.64"/>
</a>
</g>
</g>
<!-- Node7 -->
<g id="Node000007" class="node">
<title>Node7</title>
<g id="a_Node000007"><a xlink:href="../../d7/d85/classlci_1_1post__put__x.html#a8760591ebcfb437bc49000c47b473227" target="_top" xlink:title=" ">
<polygon fill="white" stroke="#666666" points="459.5,-623.53 339.5,-623.53 339.5,-593.53 459.5,-593.53 459.5,-623.53"/>
<text text-anchor="start" x="347.5" y="-611.53" font-family="Helvetica,sans-Serif" font-size="10.00">lci::post_put_x::comp</text>
<text text-anchor="middle" x="399.5" y="-600.53" font-family="Helvetica,sans-Serif" font-size="10.00">_semantic</text>
</a>
</g>
</g>
<!-- Node1&#45;&gt;Node7 -->
<g id="edge43_Node000001_Node000007" class="edge">
<title>Node1&#45;&gt;Node7</title>
<g id="a_edge43_Node000001_Node000007"><a xlink:title=" ">
<path fill="none" stroke="#63b8ff" d="M57.98,-387.34C64.56,-417.31 88.65,-508.29 146,-552.53 198.55,-593.06 274.59,-605.46 329.47,-608.69"/>
<polygon fill="#63b8ff" stroke="#63b8ff" points="329.3,-612.19 339.47,-609.2 329.65,-605.2 329.3,-612.19"/>
</a>
</g>
</g>
<!-- Node8 -->
<g id="Node000008" class="node">
<title>Node8</title>
<g id="a_Node000008"><a xlink:href="../../d7/d85/classlci_1_1post__put__x.html#a0d0c3eb11071c0039598976d9fd4dd39" target="_top" xlink:title=" ">
<polygon fill="white" stroke="#666666" points="462,-575.03 337,-575.03 337,-556.03 462,-556.03 462,-575.03"/>
<text text-anchor="middle" x="399.5" y="-563.03" font-family="Helvetica,sans-Serif" font-size="10.00">lci::post_put_x::device</text>
</a>
</g>
</g>
<!-- Node1&#45;&gt;Node8 -->
<g id="edge44_Node000001_Node000008" class="edge">
<title>Node1&#45;&gt;Node8</title>
<g id="a_edge44_Node000001_Node000008"><a xlink:title=" ">
<path fill="none" stroke="#63b8ff" d="M59.21,-387.19C68.28,-412.9 96.68,-483.22 146,-516.53 199.37,-552.56 272.73,-563.55 326.63,-566.27"/>
<polygon fill="#63b8ff" stroke="#63b8ff" points="326.66,-569.78 336.8,-566.7 326.95,-562.78 326.66,-569.78"/>
</a>
</g>
</g>
<!-- Node9 -->
<g id="Node000009" class="node">
<title>Node9</title>
<g id="a_Node000009"><a xlink:href="../../d7/d85/classlci_1_1post__put__x.html#a220f22ad49076dd1dbe975d750bebf4e" target="_top" xlink:title=" ">
<polygon fill="white" stroke="#666666" points="467.5,-538.03 331.5,-538.03 331.5,-519.03 467.5,-519.03 467.5,-538.03"/>
<text text-anchor="middle" x="399.5" y="-526.03" font-family="Helvetica,sans-Serif" font-size="10.00">lci::post_put_x::endpoint</text>
</a>
</g>
</g>
<!-- Node1&#45;&gt;Node9 -->
<g id="edge45_Node000001_Node000009" class="edge">
<title>Node1&#45;&gt;Node9</title>
<g id="a_edge45_Node000001_Node000009"><a xlink:title=" ">
<path fill="none" stroke="#63b8ff" d="M61.24,-387.29C73.16,-408.49 104.57,-458.74 146,-482.53 199.34,-513.15 268.58,-524.13 321.06,-527.73"/>
<polygon fill="#63b8ff" stroke="#63b8ff" points="321.13,-531.25 331.32,-528.36 321.55,-524.26 321.13,-531.25"/>
</a>
</g>
</g>
<!-- Node10 -->
<g id="Node000010" class="node">
<title>Node10</title>
<g id="a_Node000010"><a xlink:href="../../d7/d85/classlci_1_1post__put__x.html#a8d834babe24c1337fc4c9cf80e1a240f" target="_top" xlink:title=" ">
<polygon fill="white" stroke="#666666" points="458.5,-500.53 340.5,-500.53 340.5,-470.53 458.5,-470.53 458.5,-500.53"/>
<text text-anchor="start" x="348.5" y="-488.53" font-family="Helvetica,sans-Serif" font-size="10.00">lci::post_put_x::force</text>
<text text-anchor="middle" x="399.5" y="-477.53" font-family="Helvetica,sans-Serif" font-size="10.00">_zcopy</text>
</a>
</g>
</g>
<!-- Node1&#45;&gt;Node10 -->
<g id="edge46_Node000001_Node000010" class="edge">
<title>Node1&#45;&gt;Node10</title>
<g id="a_edge46_Node000001_Node000010"><a xlink:title=" ">
<path fill="none" stroke="#63b8ff" d="M63.99,-387.23C78.42,-403.97 110.61,-437.99 146,-453.53 204.6,-479.25 277.72,-486.11 330.17,-487.22"/>
<polygon fill="#63b8ff" stroke="#63b8ff" points="330.33,-490.72 340.38,-487.37 330.43,-483.72 330.33,-490.72"/>
</a>
</g>
</g>
<!-- Node11 -->
<g id="Node000011" class="node">
<title>Node11</title>
<g id="a_Node000011"><a xlink:href="../../d7/d85/classlci_1_1post__put__x.html#a58f72581ef272b40fd6e6d8e3abd0d41" target="_top" xlink:title=" ">
<polygon fill="white" stroke="#666666" points="457.5,-452.53 341.5,-452.53 341.5,-422.53 457.5,-422.53 457.5,-452.53"/>
<text text-anchor="start" x="349.5" y="-440.53" font-family="Helvetica,sans-Serif" font-size="10.00">lci::post_put_x::local</text>
<text text-anchor="middle" x="399.5" y="-429.53" font-family="Helvetica,sans-Serif" font-size="10.00">_buffer</text>
</a>
</g>
</g>
<!-- Node1&#45;&gt;Node11 -->
<g id="edge47_Node000001_Node000011" class="edge">
<title>Node1&#45;&gt;Node11</title>
<g id="a_edge47_Node000001_Node000011"><a xlink:title=" ">
<path fill="none" stroke="#63b8ff" d="M67.26,-387.19C83.42,-400.37 114.71,-423.39 146,-432.53 206.86,-450.3 279.53,-449.59 331.25,-445.61"/>
<polygon fill="#63b8ff" stroke="#63b8ff" points="331.63,-449.09 341.31,-444.77 331.05,-442.11 331.63,-449.09"/>
</a>
</g>
</g>
<!-- Node12 -->
<g id="Node000012" class="node">
<title>Node12</title>
<g id="a_Node000012"><a xlink:href="../../d7/d85/classlci_1_1post__put__x.html#ab566a71233e425c23cfe9b2d03e29c8c" target="_top" xlink:title=" ">
<polygon fill="white" stroke="#666666" points="474,-404.03 325,-404.03 325,-385.03 474,-385.03 474,-404.03"/>
<text text-anchor="middle" x="399.5" y="-392.03" font-family="Helvetica,sans-Serif" font-size="10.00">lci::post_put_x::local_comp</text>
</a>
</g>
</g>
<!-- Node1&#45;&gt;Node12 -->
<g id="edge48_Node000001_Node000012" class="edge">
<title>Node1&#45;&gt;Node12</title>
<g id="a_edge48_Node000001_Node000012"><a xlink:title=" ">
<path fill="none" stroke="#63b8ff" d="M72.93,-387.1C90.54,-396.47 119.24,-410.11 146,-415.53 216.59,-429.82 300.16,-417.24 351.24,-406.32"/>
<polygon fill="#63b8ff" stroke="#63b8ff" points="352.31,-409.66 361.32,-404.09 350.8,-402.83 352.31,-409.66"/>
</a>
</g>
</g>
<!-- Node13 -->
<g id="Node000013" class="node">
<title>Node13</title>
<g id="a_Node000013"><a xlink:href="../../d7/d85/classlci_1_1post__put__x.html#ade34aae8efdd4222af3a16bf0dc5da18" target="_top" xlink:title=" ">
<polygon fill="white" stroke="#666666" points="453,-367.03 346,-367.03 346,-348.03 453,-348.03 453,-367.03"/>
<text text-anchor="middle" x="399.5" y="-355.03" font-family="Helvetica,sans-Serif" font-size="10.00">lci::post_put_x::mr</text>
</a>
</g>
</g>
<!-- Node1&#45;&gt;Node13 -->
<g id="edge49_Node000001_Node000013" class="edge">
<title>Node1&#45;&gt;Node13</title>
<g id="a_edge49_Node000001_Node000013"><a xlink:title=" ">
<path fill="none" stroke="#63b8ff" d="M110.27,-374.36C171.59,-370.78 271.25,-364.96 335.84,-361.19"/>
<polygon fill="#63b8ff" stroke="#63b8ff" points="336.11,-364.68 345.89,-360.6 335.7,-357.69 336.11,-364.68"/>
</a>
</g>
</g>
<!-- Node14 -->
<g id="Node000014" class="node">
<title>Node14</title>
<g id="a_Node000014"><a xlink:href="../../d7/d85/classlci_1_1post__put__x.html#a6197b81f323b36c577bb1632ddbf043a" target="_top" xlink:title=" ">
<polygon fill="white" stroke="#666666" points="475.5,-330.03 323.5,-330.03 323.5,-311.03 475.5,-311.03 475.5,-330.03"/>
<text text-anchor="middle" x="399.5" y="-318.03" font-family="Helvetica,sans-Serif" font-size="10.00">lci::post_put_x::packet_pool</text>
</a>
</g>
</g>
<!-- Node1&#45;&gt;Node14 -->
<g id="edge50_Node000001_Node000014" class="edge">
<title>Node1&#45;&gt;Node14</title>
<g id="a_edge50_Node000001_Node000014"><a xlink:title=" ">
<path fill="none" stroke="#63b8ff" d="M105,-368C118.29,-365.49 132.68,-362.84 146,-360.53 206.14,-350.09 274.53,-339.32 324.96,-331.59"/>
<polygon fill="#63b8ff" stroke="#63b8ff" points="325.76,-335.01 335.11,-330.04 324.7,-328.09 325.76,-335.01"/>
</a>
</g>
</g>
<!-- Node15 -->
<g id="Node000015" class="node">
<title>Node15</title>
<g id="a_Node000015"><a xlink:href="../../d7/d85/classlci_1_1post__put__x.html#a14eb2ef67f761ab5ea877afe67212fca" target="_top" xlink:title=" ">
<polygon fill="white" stroke="#666666" points="457,-293.03 342,-293.03 342,-274.03 457,-274.03 457,-293.03"/>
<text text-anchor="middle" x="399.5" y="-281.03" font-family="Helvetica,sans-Serif" font-size="10.00">lci::post_put_x::rank</text>
</a>
</g>
</g>
<!-- Node1&#45;&gt;Node15 -->
<g id="edge51_Node000001_Node000015" class="edge">
<title>Node1&#45;&gt;Node15</title>
<g id="a_edge51_Node000001_Node000015"><a xlink:title=" ">
<path fill="none" stroke="#63b8ff" d="M72.73,-367.99C90.42,-358.28 119.39,-343.42 146,-334.53 207.44,-314 280.18,-300.37 331.78,-292.41"/>
<polygon fill="#63b8ff" stroke="#63b8ff" points="332.44,-295.85 341.8,-290.89 331.39,-288.93 332.44,-295.85"/>
</a>
</g>
</g>
<!-- Node16 -->
<g id="Node000016" class="node">
<title>Node16</title>
<g id="a_Node000016"><a xlink:href="../../d7/d85/classlci_1_1post__put__x.html#ad4bc08cb1aef1932ac79961748f76dd2" target="_top" xlink:title=" ">
<polygon fill="white" stroke="#666666" points="480,-256.03 319,-256.03 319,-237.03 480,-237.03 480,-256.03"/>
<text text-anchor="middle" x="399.5" y="-244.03" font-family="Helvetica,sans-Serif" font-size="10.00">lci::post_put_x::remote_comp</text>
</a>
</g>
</g>
<!-- Node1&#45;&gt;Node16 -->
<g id="edge52_Node000001_Node000016" class="edge">
<title>Node1&#45;&gt;Node16</title>
<g id="a_edge52_Node000001_Node000016"><a xlink:title=" ">
<path fill="none" stroke="#63b8ff" d="M63.52,-367.99C77.67,-350.74 110.1,-314.5 146,-296.53 196.47,-271.26 258.6,-258.75 308.6,-252.57"/>
<polygon fill="#63b8ff" stroke="#63b8ff" points="309.23,-256.02 318.75,-251.38 308.41,-249.07 309.23,-256.02"/>
</a>
</g>
</g>
<!-- Node17 -->
<g id="Node000017" class="node">
<title>Node17</title>
<g id="a_Node000017"><a xlink:href="../../d7/d85/classlci_1_1post__put__x.html#ab68827d739e8a3a96b85239b9ac54813" target="_top" xlink:title=" ">
<polygon fill="white" stroke="#666666" points="476.5,-219.03 322.5,-219.03 322.5,-200.03 476.5,-200.03 476.5,-219.03"/>
<text text-anchor="middle" x="399.5" y="-207.03" font-family="Helvetica,sans-Serif" font-size="10.00">lci::post_put_x::remote_disp</text>
</a>
</g>
</g>
<!-- Node1&#45;&gt;Node17 -->
<g id="edge53_Node000001_Node000017" class="edge">
<title>Node1&#45;&gt;Node17</title>
<g id="a_edge53_Node000001_Node000017"><a xlink:title=" ">
<path fill="none" stroke="#63b8ff" d="M59.9,-367.72C70.05,-343.63 99.71,-281.4 146,-252.53 195.52,-221.64 260.63,-211.12 312.34,-208.2"/>
<polygon fill="#63b8ff" stroke="#63b8ff" points="312.67,-211.69 322.49,-207.72 312.33,-204.7 312.67,-211.69"/>
</a>
</g>
</g>
<!-- Node18 -->
<g id="Node000018" class="node">
<title>Node18</title>
<g id="a_Node000018"><a xlink:href="../../d7/d85/classlci_1_1post__put__x.html#aae3220b86cd474558b37f2f7787a0f54" target="_top" xlink:title=" ">
<polygon fill="white" stroke="#666666" points="454.5,-182.03 344.5,-182.03 344.5,-163.03 454.5,-163.03 454.5,-182.03"/>
<text text-anchor="middle" x="399.5" y="-170.03" font-family="Helvetica,sans-Serif" font-size="10.00">lci::post_put_x::rmr</text>
</a>
</g>
</g>
<!-- Node1&#45;&gt;Node18 -->
<g id="edge54_Node000001_Node000018" class="edge">
<title>Node1&#45;&gt;Node18</title>
<g id="a_edge54_Node000001_Node000018"><a xlink:title=" ">
<path fill="none" stroke="#63b8ff" d="M57.9,-367.72C64.24,-337.8 87.71,-247.27 146,-206.53 200.92,-168.14 279.26,-163.27 334.07,-165.7"/>
<polygon fill="#63b8ff" stroke="#63b8ff" points="334.19,-169.22 344.36,-166.26 334.56,-162.23 334.19,-169.22"/>
</a>
</g>
</g>
<!-- Node19 -->
<g id="Node000019" class="node">
<title>Node19</title>
<g id="a_Node000019"><a xlink:href="../../d7/d85/classlci_1_1post__put__x.html#a1b9f0551ed3b7e0b726a15b8c4eb7315" target="_top" xlink:title=" ">
<polygon fill="white" stroke="#666666" points="465,-145.03 334,-145.03 334,-126.03 465,-126.03 465,-145.03"/>
<text text-anchor="middle" x="399.5" y="-133.03" font-family="Helvetica,sans-Serif" font-size="10.00">lci::post_put_x::runtime</text>
</a>
</g>
</g>
<!-- Node1&#45;&gt;Node19 -->
<g id="edge55_Node000001_Node000019" class="edge">
<title>Node1&#45;&gt;Node19</title>
<g id="a_edge55_Node000001_Node000019"><a xlink:title=" ">
<path fill="none" stroke="#63b8ff" d="M56.7,-367.68C59.78,-332.75 75.25,-214.12 146,-161.53 199.27,-121.92 277.27,-119.92 332.45,-124.98"/>
<polygon fill="#63b8ff" stroke="#63b8ff" points="332.18,-128.47 342.48,-126.01 332.88,-121.51 332.18,-128.47"/>
</a>
</g>
</g>
<!-- Node20 -->
<g id="Node000020" class="node">
<title>Node20</title>
<g id="a_Node000020"><a xlink:href="../../d7/d85/classlci_1_1post__put__x.html#a8e4a92835eb5373cd0c4a8f7d052ba3a" target="_top" xlink:title=" ">
<polygon fill="white" stroke="#666666" points="456,-108.03 343,-108.03 343,-89.03 456,-89.03 456,-108.03"/>
<text text-anchor="middle" x="399.5" y="-96.03" font-family="Helvetica,sans-Serif" font-size="10.00">lci::post_put_x::size</text>
</a>
</g>
</g>
<!-- Node1&#45;&gt;Node20 -->
<g id="edge56_Node000001_Node000020" class="edge">
<title>Node1&#45;&gt;Node20</title>
<g id="a_edge56_Node000001_Node000020"><a xlink:title=" ">
<path fill="none" stroke="#63b8ff" d="M55.92,-367.93C56.16,-329.13 62.74,-182.84 146,-118.53 203.01,-74.49 290.44,-78.62 346.02,-87.31"/>
<polygon fill="#63b8ff" stroke="#63b8ff" points="345.58,-90.78 356.02,-88.97 346.73,-83.88 345.58,-90.78"/>
</a>
</g>
</g>
<!-- Node21 -->
<g id="Node000021" class="node">
<title>Node21</title>
<g id="a_Node000021"><a xlink:href="../../d7/d85/classlci_1_1post__put__x.html#a763b19426bad9e0c38a368006cd9bdc6" target="_top" xlink:title=" ">
<polygon fill="white" stroke="#666666" points="454,-71.03 345,-71.03 345,-52.03 454,-52.03 454,-71.03"/>
<text text-anchor="middle" x="399.5" y="-59.03" font-family="Helvetica,sans-Serif" font-size="10.00">lci::post_put_x::tag</text>
</a>
</g>
</g>
<!-- Node1&#45;&gt;Node21 -->
<g id="edge57_Node000001_Node000021" class="edge">
<title>Node1&#45;&gt;Node21</title>
<g id="a_edge57_Node000001_Node000021"><a xlink:title=" ">
<path fill="none" stroke="#63b8ff" d="M57.39,-368.02C64.43,-321.2 97.78,-115.83 146,-77.53 204.44,-31.1 296.55,-39.26 351.88,-49.99"/>
<polygon fill="#63b8ff" stroke="#63b8ff" points="351.27,-53.44 361.77,-52.01 352.67,-46.58 351.27,-53.44"/>
</a>
</g>
</g>
<!-- Node22 -->
<g id="Node000022" class="node">
<title>Node22</title>
<g id="a_Node000022"><a xlink:href="../../d7/d85/classlci_1_1post__put__x.html#a0b3a2ef72e0d53ef059b56ba1db406ae" target="_top" xlink:title=" ">
<polygon fill="white" stroke="#666666" points="456.5,-33.53 342.5,-33.53 342.5,-3.53 456.5,-3.53 456.5,-33.53"/>
<text text-anchor="start" x="350.5" y="-21.53" font-family="Helvetica,sans-Serif" font-size="10.00">lci::post_put_x::user</text>
<text text-anchor="middle" x="399.5" y="-10.53" font-family="Helvetica,sans-Serif" font-size="10.00">_context</text>
</a>
</g>
</g>
<!-- Node1&#45;&gt;Node22 -->
<g id="edge58_Node000001_Node000022" class="edge">
<title>Node1&#45;&gt;Node22</title>
<g id="a_edge58_Node000001_Node000022"><a xlink:title=" ">
<path fill="none" stroke="#63b8ff" d="M57.08,-367.84C62.95,-317.15 92.69,-82.99 146,-38.53 197.18,4.16 276.27,3.31 332.28,-4.48"/>
<polygon fill="#63b8ff" stroke="#63b8ff" points="332.04,-7.99 342.45,-6.01 333.08,-1.06 332.04,-7.99"/>
</a>
</g>
</g>
<!-- Node3 -->
<g id="Node000003" class="node">
<title>Node3</title>
<g id="a_Node000003"><a xlink:href="../../d7/d85/classlci_1_1post__put__x.html#a749da98e07eaba33f7e0dacab337bb0e" target="_top" xlink:title=" ">
<polygon fill="white" stroke="#666666" points="630,-372.53 516,-372.53 516,-342.53 630,-342.53 630,-372.53"/>
<text text-anchor="start" x="524" y="-360.53" font-family="Helvetica,sans-Serif" font-size="10.00">lci::post_put_x::post</text>
<text text-anchor="middle" x="573" y="-349.53" font-family="Helvetica,sans-Serif" font-size="10.00">_put_x</text>
</a>
</g>
</g>
<!-- Node2&#45;&gt;Node3 -->
<g id="edge2_Node000002_Node000003" class="edge">
<title>Node2&#45;&gt;Node3</title>
<g id="a_edge2_Node000002_Node000003"><a xlink:title=" ">
<path fill="none" stroke="#63b8ff" d="M466.93,-737.92C471.73,-735.41 476.17,-732.32 480,-728.53 529.85,-679.09 560.15,-457.92 569.16,-382.68"/>
<polygon fill="#63b8ff" stroke="#63b8ff" points="572.64,-383.02 570.33,-372.68 565.69,-382.2 572.64,-383.02"/>
</a>
</g>
</g>
<!-- Node4&#45;&gt;Node3 -->
<g id="edge4_Node000004_Node000003" class="edge">
<title>Node4&#45;&gt;Node3</title>
<g id="a_edge4_Node000004_Node000003"><a xlink:title=" ">
<path fill="none" stroke="#63b8ff" d="M459.08,-694.36C466.84,-690.98 474.13,-686.49 480,-680.53 562.79,-596.43 572.18,-443.4 572.48,-383.01"/>
<polygon fill="#63b8ff" stroke="#63b8ff" points="575.98,-382.84 572.44,-372.85 568.98,-382.86 575.98,-382.84"/>
</a>
</g>
</g>
<!-- Node5&#45;&gt;Node3 -->
<g id="edge6_Node000005_Node000003" class="edge">
<title>Node5&#45;&gt;Node3</title>
<g id="a_edge6_Node000005_Node000003"><a xlink:title=" ">
<path fill="none" stroke="#63b8ff" d="M459.24,-645.94C466.89,-642.62 474.1,-638.25 480,-632.53 551.47,-563.14 567.42,-436.73 570.98,-382.89"/>
<polygon fill="#63b8ff" stroke="#63b8ff" points="574.48,-383.03 571.55,-372.84 567.49,-382.63 574.48,-383.03"/>
</a>
</g>
</g>
<!-- Node6&#45;&gt;Node2 -->
<g id="edge8_Node000006_Node000002" class="edge">
<title>Node6&#45;&gt;Node2</title>
<g id="a_edge8_Node000006_Node000002"><a xlink:title=" ">
<path fill="none" stroke="#63b8ff" d="M215.32,-406.17C215.03,-450.43 219.97,-635.98 319,-728.53 320.52,-729.94 322.12,-731.26 323.79,-732.48"/>
<polygon fill="#63b8ff" stroke="#63b8ff" points="322.32,-735.68 332.69,-737.86 325.94,-729.69 322.32,-735.68"/>
</a>
</g>
</g>
<!-- Node6&#45;&gt;Node4 -->
<g id="edge9_Node000006_Node000004" class="edge">
<title>Node6&#45;&gt;Node4</title>
<g id="a_edge9_Node000006_Node000004"><a xlink:title=" ">
<path fill="none" stroke="#63b8ff" d="M216.03,-406.26C218.75,-446.39 234.53,-600.68 319,-680.53 322.55,-683.88 326.54,-686.76 330.81,-689.25"/>
<polygon fill="#63b8ff" stroke="#63b8ff" points="329.39,-692.45 339.89,-693.8 332.52,-686.19 329.39,-692.45"/>
</a>
</g>
</g>
<!-- Node6&#45;&gt;Node5 -->
<g id="edge10_Node000006_Node000005" class="edge">
<title>Node6&#45;&gt;Node5</title>
<g id="a_edge10_Node000006_Node000005"><a xlink:title=" ">
<path fill="none" stroke="#63b8ff" d="M216.84,-406.31C222.28,-442.18 246.02,-567.82 319,-632.53 322.59,-635.71 326.58,-638.47 330.82,-640.86"/>
<polygon fill="#63b8ff" stroke="#63b8ff" points="329.29,-644.01 339.81,-645.28 332.38,-637.72 329.29,-644.01"/>
</a>
</g>
</g>
<!-- Node6&#45;&gt;Node7 -->
<g id="edge11_Node000006_Node000007" class="edge">
<title>Node6&#45;&gt;Node7</title>
<g id="a_edge11_Node000006_Node000007"><a xlink:title=" ">
<path fill="none" stroke="#63b8ff" d="M218.06,-406.43C226.63,-437.61 257.31,-534.6 319,-584.53 322.5,-587.36 326.33,-589.86 330.35,-592.06"/>
<polygon fill="#63b8ff" stroke="#63b8ff" points="328.9,-595.24 339.42,-596.43 331.93,-588.94 328.9,-595.24"/>
</a>
</g>
</g>
<!-- Node6&#45;&gt;Node8 -->
<g id="edge13_Node000006_Node000008" class="edge">
<title>Node6&#45;&gt;Node8</title>
<g id="a_edge13_Node000006_Node000008"><a xlink:title=" ">
<path fill="none" stroke="#63b8ff" d="M219.13,-406.15C229.83,-433.18 264.04,-510.22 319,-547.53 321.61,-549.3 324.37,-550.9 327.23,-552.34"/>
<polygon fill="#63b8ff" stroke="#63b8ff" points="326.09,-555.66 336.65,-556.44 328.88,-549.24 326.09,-555.66"/>
</a>
</g>
</g>
<!-- Node6&#45;&gt;Node9 -->
<g id="edge15_Node000006_Node000009" class="edge">
<title>Node6&#45;&gt;Node9</title>
<g id="a_edge15_Node000006_Node000009"><a xlink:title=" ">
<path fill="none" stroke="#63b8ff" d="M221.4,-406.18C235.39,-428.21 272.92,-482.41 319,-509.53 322.71,-511.71 326.67,-513.65 330.75,-515.36"/>
<polygon fill="#63b8ff" stroke="#63b8ff" points="329.86,-518.76 340.46,-518.97 332.3,-512.2 329.86,-518.76"/>
</a>
</g>
</g>
<!-- Node6&#45;&gt;Node10 -->
<g id="edge17_Node000006_Node000010" class="edge">
<title>Node6&#45;&gt;Node10</title>
<g id="a_edge17_Node000006_Node000010"><a xlink:title=" ">
<path fill="none" stroke="#63b8ff" d="M228.26,-406.13C247.19,-420 284.24,-445.71 319,-461.53 323.29,-463.48 327.77,-465.32 332.34,-467.05"/>
<polygon fill="#63b8ff" stroke="#63b8ff" points="331.19,-470.36 341.78,-470.45 333.55,-463.77 331.19,-470.36"/>
</a>
</g>
</g>
<!-- Node6&#45;&gt;Node11 -->
<g id="edge19_Node000006_Node000011" class="edge">
<title>Node6&#45;&gt;Node11</title>
<g id="a_edge19_Node000006_Node000011"><a xlink:title=" ">
<path fill="none" stroke="#63b8ff" d="M257.94,-406.04C279.75,-410.92 306.84,-416.99 331.4,-422.49"/>
<polygon fill="#63b8ff" stroke="#63b8ff" points="330.86,-425.96 341.38,-424.73 332.39,-419.13 330.86,-425.96"/>
</a>
</g>
</g>
<!-- Node6&#45;&gt;Node12 -->
<g id="edge21_Node000006_Node000012" class="edge">
<title>Node6&#45;&gt;Node12</title>
<g id="a_edge21_Node000006_Node000012"><a xlink:title=" ">
<path fill="none" stroke="#63b8ff" d="M283.12,-395.79C293.38,-395.68 304.08,-395.56 314.63,-395.44"/>
<polygon fill="#63b8ff" stroke="#63b8ff" points="314.73,-398.94 324.69,-395.33 314.66,-391.94 314.73,-398.94"/>
</a>
</g>
</g>
<!-- Node6&#45;&gt;Node13 -->
<g id="edge23_Node000006_Node000013" class="edge">
<title>Node6&#45;&gt;Node13</title>
<g id="a_edge23_Node000006_Node000013"><a xlink:title=" ">
<path fill="none" stroke="#63b8ff" d="M260.27,-386.99C285.51,-381.61 317.23,-374.85 343.92,-369.16"/>
<polygon fill="#63b8ff" stroke="#63b8ff" points="344.83,-372.54 353.88,-367.04 343.37,-365.7 344.83,-372.54"/>
</a>
</g>
</g>
<!-- Node6&#45;&gt;Node14 -->
<g id="edge25_Node000006_Node000014" class="edge">
<title>Node6&#45;&gt;Node14</title>
<g id="a_edge25_Node000006_Node000014"><a xlink:title=" ">
<path fill="none" stroke="#63b8ff" d="M229.97,-386.91C249.45,-374.36 285.52,-352.47 319,-339.53 325.64,-336.96 332.74,-334.67 339.85,-332.64"/>
<polygon fill="#63b8ff" stroke="#63b8ff" points="340.77,-336.02 349.52,-330.04 338.95,-329.26 340.77,-336.02"/>
</a>
</g>
</g>
<!-- Node6&#45;&gt;Node15 -->
<g id="edge27_Node000006_Node000015" class="edge">
<title>Node6&#45;&gt;Node15</title>
<g id="a_edge27_Node000006_Node000015"><a xlink:title=" ">
<path fill="none" stroke="#63b8ff" d="M223.2,-386.82C239,-367.6 277.15,-324.63 319,-302.53 323.32,-300.24 327.92,-298.23 332.64,-296.46"/>
<polygon fill="#63b8ff" stroke="#63b8ff" points="334.1,-299.66 342.45,-293.14 331.86,-293.03 334.1,-299.66"/>
</a>
</g>
</g>
<!-- Node6&#45;&gt;Node16 -->
<g id="edge29_Node000006_Node000016" class="edge">
<title>Node6&#45;&gt;Node16</title>
<g id="a_edge29_Node000006_Node000016"><a xlink:title=" ">
<path fill="none" stroke="#63b8ff" d="M220.22,-386.81C232.68,-362.27 268.92,-297.51 319,-265.53 322.34,-263.4 325.89,-261.5 329.57,-259.82"/>
<polygon fill="#63b8ff" stroke="#63b8ff" points="330.96,-263.04 338.94,-256.07 328.36,-256.54 330.96,-263.04"/>
</a>
</g>
</g>
<!-- Node6&#45;&gt;Node17 -->
<g id="edge31_Node000006_Node000017" class="edge">
<title>Node6&#45;&gt;Node17</title>
<g id="a_edge31_Node000006_Node000017"><a xlink:title=" ">
<path fill="none" stroke="#63b8ff" d="M218.54,-386.71C228.1,-357.56 260.45,-270.91 319,-228.53 321.56,-226.67 324.28,-225 327.11,-223.48"/>
<polygon fill="#63b8ff" stroke="#63b8ff" points="328.83,-226.54 336.45,-219.18 325.91,-220.18 328.83,-226.54"/>
</a>
</g>
</g>
<!-- Node6&#45;&gt;Node18 -->
<g id="edge33_Node000006_Node000018" class="edge">
<title>Node6&#45;&gt;Node18</title>
<g id="a_edge33_Node000006_Node000018"><a xlink:title=" ">
<path fill="none" stroke="#63b8ff" d="M217.34,-386.99C224.2,-354.16 251.44,-244.93 319,-191.53 323.71,-187.81 329.03,-184.8 334.63,-182.36"/>
<polygon fill="#63b8ff" stroke="#63b8ff" points="336.11,-185.55 344.27,-178.79 333.68,-178.98 336.11,-185.55"/>
</a>
</g>
</g>
<!-- Node6&#45;&gt;Node19 -->
<g id="edge35_Node000006_Node000019" class="edge">
<title>Node6&#45;&gt;Node19</title>
<g id="a_edge35_Node000006_Node000019"><a xlink:title=" ">
<path fill="none" stroke="#63b8ff" d="M216.57,-386.87C221.14,-350.28 242.5,-219.04 319,-154.53 320.99,-152.85 323.11,-151.31 325.32,-149.9"/>
<polygon fill="#63b8ff" stroke="#63b8ff" points="327.11,-152.91 334.27,-145.1 323.8,-146.75 327.11,-152.91"/>
</a>
</g>
</g>
<!-- Node6&#45;&gt;Node20 -->
<g id="edge37_Node000006_Node000020" class="edge">
<title>Node6&#45;&gt;Node20</title>
<g id="a_edge37_Node000006_Node000020"><a xlink:title=" ">
<path fill="none" stroke="#63b8ff" d="M215.97,-386.83C218.43,-346.85 233.35,-193.42 319,-117.53 323.25,-113.76 328.11,-110.71 333.29,-108.24"/>
<polygon fill="#63b8ff" stroke="#63b8ff" points="334.91,-111.36 342.89,-104.39 332.31,-104.86 334.91,-111.36"/>
</a>
</g>
</g>
<!-- Node6&#45;&gt;Node21 -->
<g id="edge39_Node000006_Node000021" class="edge">
<title>Node6&#45;&gt;Node21</title>
<g id="a_edge39_Node000006_Node000021"><a xlink:title=" ">
<path fill="none" stroke="#63b8ff" d="M215.49,-386.77C216.02,-343.58 224.11,-167.95 319,-80.53 323.73,-76.17 329.27,-72.76 335.19,-70.1"/>
<polygon fill="#63b8ff" stroke="#63b8ff" points="336.61,-73.31 344.74,-66.51 334.15,-66.76 336.61,-73.31"/>
</a>
</g>
</g>
<!-- Node6&#45;&gt;Node22 -->
<g id="edge41_Node000006_Node000022" class="edge">
<title>Node6&#45;&gt;Node22</title>
<g id="a_edge41_Node000006_Node000022"><a xlink:title=" ">
<path fill="none" stroke="#63b8ff" d="M215.23,-387.02C214.47,-341.63 217.35,-145.07 319,-42.53 323.16,-38.33 328.03,-34.86 333.27,-31.99"/>
<polygon fill="#63b8ff" stroke="#63b8ff" points="334.82,-35.13 342.38,-27.72 331.84,-28.8 334.82,-35.13"/>
</a>
</g>
</g>
<!-- Node7&#45;&gt;Node3 -->
<g id="edge12_Node000007_Node000003" class="edge">
<title>Node7&#45;&gt;Node3</title>
<g id="a_edge12_Node000007_Node000003"><a xlink:title=" ">
<path fill="none" stroke="#63b8ff" d="M459.73,-597.26C467.13,-594.03 474.14,-589.87 480,-584.53 540.21,-529.61 561.83,-429.71 568.9,-382.94"/>
<polygon fill="#63b8ff" stroke="#63b8ff" points="572.4,-383.16 570.33,-372.77 565.47,-382.19 572.4,-383.16"/>
</a>
</g>
</g>
<!-- Node8&#45;&gt;Node3 -->
<g id="edge14_Node000008_Node000003" class="edge">
<title>Node8&#45;&gt;Node3</title>
<g id="a_edge14_Node000008_Node000003"><a xlink:title=" ">
<path fill="none" stroke="#63b8ff" d="M462.13,-557.55C468.56,-555.02 474.68,-551.75 480,-547.53 533.48,-505.05 557.85,-423.74 567.15,-382.63"/>
<polygon fill="#63b8ff" stroke="#63b8ff" points="570.62,-383.15 569.29,-372.64 563.78,-381.68 570.62,-383.15"/>
</a>
</g>
</g>
<!-- Node9&#45;&gt;Node3 -->
<g id="edge16_Node000009_Node000003" class="edge">
<title>Node9&#45;&gt;Node3</title>
<g id="a_edge16_Node000009_Node000003"><a xlink:title=" ">
<path fill="none" stroke="#63b8ff" d="M462.58,-518.92C468.78,-516.45 474.73,-513.38 480,-509.53 524.25,-477.22 551.39,-416.57 563.85,-382.46"/>
<polygon fill="#63b8ff" stroke="#63b8ff" points="567.24,-383.38 567.26,-372.79 560.64,-381.06 567.24,-383.38"/>
</a>
</g>
</g>
<!-- Node10&#45;&gt;Node3 -->
<g id="edge18_Node000010_Node000003" class="edge">
<title>Node10&#45;&gt;Node3</title>
<g id="a_edge18_Node000010_Node000003"><a xlink:title=" ">
<path fill="none" stroke="#63b8ff" d="M458.64,-472.13C466.12,-469.22 473.44,-465.73 480,-461.53 512.76,-440.54 540.77,-404.68 557.01,-381.04"/>
<polygon fill="#63b8ff" stroke="#63b8ff" points="559.98,-382.89 562.64,-372.64 554.17,-379 559.98,-382.89"/>
</a>
</g>
</g>
<!-- Node11&#45;&gt;Node3 -->
<g id="edge20_Node000011_Node000003" class="edge">
<title>Node11&#45;&gt;Node3</title>
<g id="a_edge20_Node000011_Node000003"><a xlink:title=" ">
<path fill="none" stroke="#63b8ff" d="M456.75,-422.5C464.68,-419.82 472.63,-416.82 480,-413.53 501.66,-403.85 524.45,-390.01 541.93,-378.51"/>
<polygon fill="#63b8ff" stroke="#63b8ff" points="544.19,-381.21 550.55,-372.74 540.29,-375.39 544.19,-381.21"/>
</a>
</g>
</g>
<!-- Node12&#45;&gt;Node3 -->
<g id="edge22_Node000012_Node000003" class="edge">
<title>Node12&#45;&gt;Node3</title>
<g id="a_edge22_Node000012_Node000003"><a xlink:title=" ">
<path fill="none" stroke="#63b8ff" d="M444.67,-385C463.34,-380.97 485.5,-376.19 506.04,-371.76"/>
<polygon fill="#63b8ff" stroke="#63b8ff" points="506.94,-375.14 515.98,-369.61 505.47,-368.3 506.94,-375.14"/>
</a>
</g>
</g>
<!-- Node13&#45;&gt;Node3 -->
<g id="edge24_Node000013_Node000003" class="edge">
<title>Node13&#45;&gt;Node3</title>
<g id="a_edge24_Node000013_Node000003"><a xlink:title=" ">
<path fill="none" stroke="#63b8ff" d="M453.36,-357.53C469.89,-357.53 488.35,-357.53 505.69,-357.53"/>
<polygon fill="#63b8ff" stroke="#63b8ff" points="505.75,-361.03 515.75,-357.53 505.75,-354.03 505.75,-361.03"/>
</a>
</g>
</g>
<!-- Node14&#45;&gt;Node3 -->
<g id="edge26_Node000014_Node000003" class="edge">
<title>Node14&#45;&gt;Node3</title>
<g id="a_edge26_Node000014_Node000003"><a xlink:title=" ">
<path fill="none" stroke="#63b8ff" d="M444.67,-330.05C463.34,-334.08 485.5,-338.86 506.04,-343.3"/>
<polygon fill="#63b8ff" stroke="#63b8ff" points="505.47,-346.75 515.98,-345.44 506.94,-339.91 505.47,-346.75"/>
</a>
</g>
</g>
<!-- Node15&#45;&gt;Node3 -->
<g id="edge28_Node000015_Node000003" class="edge">
<title>Node15&#45;&gt;Node3</title>
<g id="a_edge28_Node000015_Node000003"><a xlink:title=" ">
<path fill="none" stroke="#63b8ff" d="M450.85,-293.11C460.69,-295.66 470.8,-298.78 480,-302.53 502.01,-311.49 524.96,-325.2 542.44,-336.69"/>
<polygon fill="#63b8ff" stroke="#63b8ff" points="540.78,-339.8 551.04,-342.46 544.68,-333.98 540.78,-339.8"/>
</a>
</g>
</g>
<!-- Node16&#45;&gt;Node3 -->
<g id="edge30_Node000016_Node000003" class="edge">
<title>Node16&#45;&gt;Node3</title>
<g id="a_edge30_Node000016_Node000003"><a xlink:title=" ">
<path fill="none" stroke="#63b8ff" d="M457.55,-256.09C465.36,-258.56 473.06,-261.65 480,-265.53 510.67,-282.68 538.04,-312.96 554.79,-334.08"/>
<polygon fill="#63b8ff" stroke="#63b8ff" points="552.21,-336.46 561.09,-342.23 557.74,-332.17 552.21,-336.46"/>
</a>
</g>
</g>
<!-- Node17&#45;&gt;Node3 -->
<g id="edge32_Node000017_Node000003" class="edge">
<title>Node17&#45;&gt;Node3</title>
<g id="a_edge32_Node000017_Node000003"><a xlink:title=" ">
<path fill="none" stroke="#63b8ff" d="M461.07,-219.08C467.76,-221.55 474.23,-224.64 480,-228.53 519.15,-254.9 547.15,-303.88 561.36,-333.31"/>
<polygon fill="#63b8ff" stroke="#63b8ff" points="558.24,-334.9 565.65,-342.48 564.58,-331.94 558.24,-334.9"/>
</a>
</g>
</g>
<!-- Node18&#45;&gt;Node3 -->
<g id="edge34_Node000018_Node000003" class="edge">
<title>Node18&#45;&gt;Node3</title>
<g id="a_edge34_Node000018_Node000003"><a xlink:title=" ">
<path fill="none" stroke="#63b8ff" d="M454.55,-179.03C463.65,-181.85 472.54,-185.86 480,-191.53 527.52,-227.63 553.85,-295.74 565.19,-332.49"/>
<polygon fill="#63b8ff" stroke="#63b8ff" points="561.93,-333.8 568.11,-342.4 568.64,-331.82 561.93,-333.8"/>
</a>
</g>
</g>
<!-- Node19&#45;&gt;Node3 -->
<g id="edge36_Node000019_Node000003" class="edge">
<title>Node19&#45;&gt;Node3</title>
<g id="a_edge36_Node000019_Node000003"><a xlink:title=" ">
<path fill="none" stroke="#63b8ff" d="M464.25,-145.03C469.93,-147.53 475.29,-150.64 480,-154.53 536.26,-200.96 559.55,-289.09 567.92,-332.33"/>
<polygon fill="#63b8ff" stroke="#63b8ff" points="564.5,-333.09 569.74,-342.3 571.39,-331.83 564.5,-333.09"/>
</a>
</g>
</g>
<!-- Node20&#45;&gt;Node3 -->
<g id="edge38_Node000020_Node000003" class="edge">
<title>Node20&#45;&gt;Node3</title>
<g id="a_edge38_Node000020_Node000003"><a xlink:title=" ">
<path fill="none" stroke="#63b8ff" d="M456.05,-104.46C464.79,-107.36 473.17,-111.54 480,-117.53 545.2,-174.68 564.43,-283.33 569.91,-332.39"/>
<polygon fill="#63b8ff" stroke="#63b8ff" points="566.44,-332.85 570.93,-342.44 573.4,-332.14 566.44,-332.85"/>
</a>
</g>
</g>
<!-- Node21&#45;&gt;Node3 -->
<g id="edge40_Node000021_Node000003" class="edge">
<title>Node21&#45;&gt;Node3</title>
<g id="a_edge40_Node000021_Node000003"><a xlink:title=" ">
<path fill="none" stroke="#63b8ff" d="M454.24,-66.53C463.68,-69.48 472.78,-73.91 480,-80.53 554.06,-148.47 568.59,-277.4 571.37,-332.04"/>
<polygon fill="#63b8ff" stroke="#63b8ff" points="567.88,-332.38 571.8,-342.23 574.88,-332.09 567.88,-332.38"/>
</a>
</g>
</g>
<!-- Node22&#45;&gt;Node3 -->
<g id="edge42_Node000022_Node000003" class="edge">
<title>Node22&#45;&gt;Node3</title>
<g id="a_edge42_Node000022_Node000003"><a xlink:title=" ">
<path fill="none" stroke="#63b8ff" d="M456.62,-27.72C465.29,-31.2 473.5,-35.97 480,-42.53 560.81,-124.07 571.41,-272.42 572.25,-331.87"/>
<polygon fill="#63b8ff" stroke="#63b8ff" points="568.76,-332.24 572.31,-342.22 575.76,-332.2 568.76,-332.24"/>
</a>
</g>
</g>
</g>
</svg>
