<?xml version="1.0" encoding="UTF-8" standalone="no"?>
<!DOCTYPE svg PUBLIC "-//W3C//DTD SVG 1.1//EN"
 "http://www.w3.org/Graphics/SVG/1.1/DTD/svg11.dtd">
<!-- Generated by graphviz version 2.43.0 (0)
 -->
<!-- Title: lci::post_put_x::operator() Pages: 1 -->
<svg width="816pt" height="765pt"
 viewBox="0.00 0.00 816.00 765.03" xmlns="http://www.w3.org/2000/svg" xmlns:xlink="http://www.w3.org/1999/xlink">
<g id="graph0" class="graph" transform="scale(1 1) rotate(0) translate(4 761.03)">
<title>lci::post_put_x::operator()</title>
<!-- Node1 -->
<g id="Node000001" class="node">
<title>Node1</title>
<g id="a_Node000001"><a xlink:title=" ">
<polygon fill="#999999" stroke="#666666" points="142,-387.03 0,-387.03 0,-368.03 142,-368.03 142,-387.03"/>
<text text-anchor="middle" x="71" y="-375.03" font-family="Helvetica,sans-Serif" font-size="10.00">lci::post_put_x::operator()</text>
</a>
</g>
</g>
<!-- Node2 -->
<g id="Node000002" class="node">
<title>Node2</title>
<g id="a_Node000002"><a xlink:href="../../d7/d85/classlci_1_1post__put__x.html#a8e042fb4a730b203593842d84209a739" target="_top" xlink:title=" ">
<polygon fill="white" stroke="#666666" points="288,-387.03 178,-387.03 178,-368.03 288,-368.03 288,-387.03"/>
<text text-anchor="middle" x="233" y="-375.03" font-family="Helvetica,sans-Serif" font-size="10.00">lci::post_put_x::call</text>
</a>
</g>
</g>
<!-- Node1&#45;&gt;Node2 -->
<g id="edge1_Node000001_Node000002" class="edge">
<title>Node1&#45;&gt;Node2</title>
<g id="a_edge1_Node000001_Node000002"><a xlink:title=" ">
<path fill="none" stroke="#63b8ff" d="M142.18,-377.53C150.65,-377.53 159.28,-377.53 167.67,-377.53"/>
<polygon fill="#63b8ff" stroke="#63b8ff" points="167.75,-381.03 177.75,-377.53 167.75,-374.03 167.75,-381.03"/>
</a>
</g>
</g>
<!-- Node3 -->
<g id="Node000003" class="node">
<title>Node3</title>
<g id="a_Node000003"><a xlink:href="../../d7/d85/classlci_1_1post__put__x.html#a7c47be347b9cd58177cf852427875c1d" target="_top" xlink:title=" ">
<polygon fill="white" stroke="#666666" points="652,-757.03 503,-757.03 503,-738.03 652,-738.03 652,-757.03"/>
<text text-anchor="middle" x="577.5" y="-745.03" font-family="Helvetica,sans-Serif" font-size="10.00">lci::post_put_x::allow_done</text>
</a>
</g>
</g>
<!-- Node2&#45;&gt;Node3 -->
<g id="edge2_Node000002_Node000003" class="edge">
<title>Node2&#45;&gt;Node3</title>
<g id="a_edge2_Node000002_Node000003"><a xlink:title=" ">
<path fill="none" stroke="#63b8ff" d="M233.81,-387.21C233.57,-428.57 238.24,-592.18 324,-677.53 368.32,-721.63 437.83,-738.56 492.71,-744.77"/>
<polygon fill="#63b8ff" stroke="#63b8ff" points="492.47,-748.26 502.78,-745.81 493.19,-741.3 492.47,-748.26"/>
</a>
</g>
</g>
<!-- Node5 -->
<g id="Node000005" class="node">
<title>Node5</title>
<g id="a_Node000005"><a xlink:href="../../d7/d85/classlci_1_1post__put__x.html#afe193737cce6daaf2317f9bb6ea49c9d" target="_top" xlink:title=" ">
<polygon fill="white" stroke="#666666" points="637,-719.53 518,-719.53 518,-689.53 637,-689.53 637,-719.53"/>
<text text-anchor="start" x="526" y="-707.53" font-family="Helvetica,sans-Serif" font-size="10.00">lci::post_put_x::allow</text>
<text text-anchor="middle" x="577.5" y="-696.53" font-family="Helvetica,sans-Serif" font-size="10.00">_posted</text>
</a>
</g>
</g>
<!-- Node2&#45;&gt;Node5 -->
<g id="edge4_Node000002_Node000005" class="edge">
<title>Node2&#45;&gt;Node5</title>
<g id="a_edge4_Node000002_Node000005"><a xlink:title=" ">
<path fill="none" stroke="#63b8ff" d="M234.35,-387.08C236.27,-424.52 248.41,-562.62 324,-633.53 373.71,-680.16 451.62,-696.53 507.75,-702.09"/>
<polygon fill="#63b8ff" stroke="#63b8ff" points="507.69,-705.6 517.96,-703.01 508.32,-698.63 507.69,-705.6"/>
</a>
</g>
</g>
<!-- Node6 -->
<g id="Node000006" class="node">
<title>Node6</title>
<g id="a_Node000006"><a xlink:href="../../d7/d85/classlci_1_1post__put__x.html#a9c3eee39d20edda920f82a4f6824fc28" target="_top" xlink:title=" ">
<polygon fill="white" stroke="#666666" points="637,-671.53 518,-671.53 518,-641.53 637,-641.53 637,-671.53"/>
<text text-anchor="start" x="526" y="-659.53" font-family="Helvetica,sans-Serif" font-size="10.00">lci::post_put_x::allow</text>
<text text-anchor="middle" x="577.5" y="-648.53" font-family="Helvetica,sans-Serif" font-size="10.00">_retry</text>
</a>
</g>
</g>
<!-- Node2&#45;&gt;Node6 -->
<g id="edge6_Node000002_Node000006" class="edge">
<title>Node2&#45;&gt;Node6</title>
<g id="a_edge6_Node000002_Node000006"><a xlink:title=" ">
<path fill="none" stroke="#63b8ff" d="M235.08,-387.4C239.34,-421.4 258.11,-534.63 324,-591.53 375.04,-635.6 452.19,-650.39 507.77,-655.05"/>
<polygon fill="#63b8ff" stroke="#63b8ff" points="507.65,-658.55 517.89,-655.81 508.17,-651.57 507.65,-658.55"/>
</a>
</g>
</g>
<!-- Node7 -->
<g id="Node000007" class="node">
<title>Node7</title>
<g id="a_Node000007"><a xlink:href="../../d7/d85/classlci_1_1post__put__x.html#a2bdcf8d5af7b4d06907d835f0ba1f12b" target="_top" xlink:title=" ">
<polygon fill="white" stroke="#666666" points="461,-406.03 324,-406.03 324,-387.03 461,-387.03 461,-406.03"/>
<text text-anchor="middle" x="392.5" y="-394.03" font-family="Helvetica,sans-Serif" font-size="10.00">lci::post_put_x::call_impl</text>
</a>
</g>
</g>
<!-- Node2&#45;&gt;Node7 -->
<g id="edge8_Node000002_Node000007" class="edge">
<title>Node2&#45;&gt;Node7</title>
<g id="a_edge8_Node000002_Node000007"><a xlink:title=" ">
<path fill="none" stroke="#63b8ff" d="M288.2,-384.07C296.45,-385.06 305.1,-386.1 313.74,-387.15"/>
<polygon fill="#63b8ff" stroke="#63b8ff" points="313.49,-390.64 323.84,-388.36 314.33,-383.69 313.49,-390.64"/>
</a>
</g>
</g>
<!-- Node8 -->
<g id="Node000008" class="node">
<title>Node8</title>
<g id="a_Node000008"><a xlink:href="../../d7/d85/classlci_1_1post__put__x.html#a8760591ebcfb437bc49000c47b473227" target="_top" xlink:title=" ">
<polygon fill="white" stroke="#666666" points="637.5,-623.53 517.5,-623.53 517.5,-593.53 637.5,-593.53 637.5,-623.53"/>
<text text-anchor="start" x="525.5" y="-611.53" font-family="Helvetica,sans-Serif" font-size="10.00">lci::post_put_x::comp</text>
<text text-anchor="middle" x="577.5" y="-600.53" font-family="Helvetica,sans-Serif" font-size="10.00">_semantic</text>
</a>
</g>
</g>
<!-- Node2&#45;&gt;Node8 -->
<g id="edge44_Node000002_Node000008" class="edge">
<title>Node2&#45;&gt;Node8</title>
<g id="a_edge44_Node000002_Node000008"><a xlink:title=" ">
<path fill="none" stroke="#63b8ff" d="M235.98,-387.34C242.56,-417.31 266.65,-508.29 324,-552.53 376.55,-593.06 452.59,-605.46 507.47,-608.69"/>
<polygon fill="#63b8ff" stroke="#63b8ff" points="507.3,-612.19 517.47,-609.2 507.65,-605.2 507.3,-612.19"/>
</a>
</g>
</g>
<!-- Node9 -->
<g id="Node000009" class="node">
<title>Node9</title>
<g id="a_Node000009"><a xlink:href="../../d7/d85/classlci_1_1post__put__x.html#a0d0c3eb11071c0039598976d9fd4dd39" target="_top" xlink:title=" ">
<polygon fill="white" stroke="#666666" points="640,-575.03 515,-575.03 515,-556.03 640,-556.03 640,-575.03"/>
<text text-anchor="middle" x="577.5" y="-563.03" font-family="Helvetica,sans-Serif" font-size="10.00">lci::post_put_x::device</text>
</a>
</g>
</g>
<!-- Node2&#45;&gt;Node9 -->
<g id="edge45_Node000002_Node000009" class="edge">
<title>Node2&#45;&gt;Node9</title>
<g id="a_edge45_Node000002_Node000009"><a xlink:title=" ">
<path fill="none" stroke="#63b8ff" d="M237.21,-387.19C246.28,-412.9 274.68,-483.22 324,-516.53 377.37,-552.56 450.73,-563.55 504.63,-566.27"/>
<polygon fill="#63b8ff" stroke="#63b8ff" points="504.66,-569.78 514.8,-566.7 504.95,-562.78 504.66,-569.78"/>
</a>
</g>
</g>
<!-- Node10 -->
<g id="Node000010" class="node">
<title>Node10</title>
<g id="a_Node000010"><a xlink:href="../../d7/d85/classlci_1_1post__put__x.html#a220f22ad49076dd1dbe975d750bebf4e" target="_top" xlink:title=" ">
<polygon fill="white" stroke="#666666" points="645.5,-538.03 509.5,-538.03 509.5,-519.03 645.5,-519.03 645.5,-538.03"/>
<text text-anchor="middle" x="577.5" y="-526.03" font-family="Helvetica,sans-Serif" font-size="10.00">lci::post_put_x::endpoint</text>
</a>
</g>
</g>
<!-- Node2&#45;&gt;Node10 -->
<g id="edge46_Node000002_Node000010" class="edge">
<title>Node2&#45;&gt;Node10</title>
<g id="a_edge46_Node000002_Node000010"><a xlink:title=" ">
<path fill="none" stroke="#63b8ff" d="M239.24,-387.29C251.16,-408.49 282.57,-458.74 324,-482.53 377.34,-513.15 446.58,-524.13 499.06,-527.73"/>
<polygon fill="#63b8ff" stroke="#63b8ff" points="499.13,-531.25 509.32,-528.36 499.55,-524.26 499.13,-531.25"/>
</a>
</g>
</g>
<!-- Node11 -->
<g id="Node000011" class="node">
<title>Node11</title>
<g id="a_Node000011"><a xlink:href="../../d7/d85/classlci_1_1post__put__x.html#a8d834babe24c1337fc4c9cf80e1a240f" target="_top" xlink:title=" ">
<polygon fill="white" stroke="#666666" points="636.5,-500.53 518.5,-500.53 518.5,-470.53 636.5,-470.53 636.5,-500.53"/>
<text text-anchor="start" x="526.5" y="-488.53" font-family="Helvetica,sans-Serif" font-size="10.00">lci::post_put_x::force</text>
<text text-anchor="middle" x="577.5" y="-477.53" font-family="Helvetica,sans-Serif" font-size="10.00">_zcopy</text>
</a>
</g>
</g>
<!-- Node2&#45;&gt;Node11 -->
<g id="edge47_Node000002_Node000011" class="edge">
<title>Node2&#45;&gt;Node11</title>
<g id="a_edge47_Node000002_Node000011"><a xlink:title=" ">
<path fill="none" stroke="#63b8ff" d="M241.99,-387.23C256.42,-403.97 288.61,-437.99 324,-453.53 382.6,-479.25 455.72,-486.11 508.17,-487.22"/>
<polygon fill="#63b8ff" stroke="#63b8ff" points="508.33,-490.72 518.38,-487.37 508.43,-483.72 508.33,-490.72"/>
</a>
</g>
</g>
<!-- Node12 -->
<g id="Node000012" class="node">
<title>Node12</title>
<g id="a_Node000012"><a xlink:href="../../d7/d85/classlci_1_1post__put__x.html#a58f72581ef272b40fd6e6d8e3abd0d41" target="_top" xlink:title=" ">
<polygon fill="white" stroke="#666666" points="635.5,-452.53 519.5,-452.53 519.5,-422.53 635.5,-422.53 635.5,-452.53"/>
<text text-anchor="start" x="527.5" y="-440.53" font-family="Helvetica,sans-Serif" font-size="10.00">lci::post_put_x::local</text>
<text text-anchor="middle" x="577.5" y="-429.53" font-family="Helvetica,sans-Serif" font-size="10.00">_buffer</text>
</a>
</g>
</g>
<!-- Node2&#45;&gt;Node12 -->
<g id="edge48_Node000002_Node000012" class="edge">
<title>Node2&#45;&gt;Node12</title>
<g id="a_edge48_Node000002_Node000012"><a xlink:title=" ">
<path fill="none" stroke="#63b8ff" d="M245.26,-387.19C261.42,-400.37 292.71,-423.39 324,-432.53 384.86,-450.3 457.53,-449.59 509.25,-445.61"/>
<polygon fill="#63b8ff" stroke="#63b8ff" points="509.63,-449.09 519.31,-444.77 509.05,-442.11 509.63,-449.09"/>
</a>
</g>
</g>
<!-- Node13 -->
<g id="Node000013" class="node">
<title>Node13</title>
<g id="a_Node000013"><a xlink:href="../../d7/d85/classlci_1_1post__put__x.html#ab566a71233e425c23cfe9b2d03e29c8c" target="_top" xlink:title=" ">
<polygon fill="white" stroke="#666666" points="652,-404.03 503,-404.03 503,-385.03 652,-385.03 652,-404.03"/>
<text text-anchor="middle" x="577.5" y="-392.03" font-family="Helvetica,sans-Serif" font-size="10.00">lci::post_put_x::local_comp</text>
</a>
</g>
</g>
<!-- Node2&#45;&gt;Node13 -->
<g id="edge49_Node000002_Node000013" class="edge">
<title>Node2&#45;&gt;Node13</title>
<g id="a_edge49_Node000002_Node000013"><a xlink:title=" ">
<path fill="none" stroke="#63b8ff" d="M250.93,-387.1C268.54,-396.47 297.24,-410.11 324,-415.53 394.59,-429.82 478.16,-417.24 529.24,-406.32"/>
<polygon fill="#63b8ff" stroke="#63b8ff" points="530.31,-409.66 539.32,-404.09 528.8,-402.83 530.31,-409.66"/>
</a>
</g>
</g>
<!-- Node14 -->
<g id="Node000014" class="node">
<title>Node14</title>
<g id="a_Node000014"><a xlink:href="../../d7/d85/classlci_1_1post__put__x.html#ade34aae8efdd4222af3a16bf0dc5da18" target="_top" xlink:title=" ">
<polygon fill="white" stroke="#666666" points="631,-367.03 524,-367.03 524,-348.03 631,-348.03 631,-367.03"/>
<text text-anchor="middle" x="577.5" y="-355.03" font-family="Helvetica,sans-Serif" font-size="10.00">lci::post_put_x::mr</text>
</a>
</g>
</g>
<!-- Node2&#45;&gt;Node14 -->
<g id="edge50_Node000002_Node000014" class="edge">
<title>Node2&#45;&gt;Node14</title>
<g id="a_edge50_Node000002_Node000014"><a xlink:title=" ">
<path fill="none" stroke="#63b8ff" d="M288.27,-374.36C349.59,-370.78 449.25,-364.96 513.84,-361.19"/>
<polygon fill="#63b8ff" stroke="#63b8ff" points="514.11,-364.68 523.89,-360.6 513.7,-357.69 514.11,-364.68"/>
</a>
</g>
</g>
<!-- Node15 -->
<g id="Node000015" class="node">
<title>Node15</title>
<g id="a_Node000015"><a xlink:href="../../d7/d85/classlci_1_1post__put__x.html#a6197b81f323b36c577bb1632ddbf043a" target="_top" xlink:title=" ">
<polygon fill="white" stroke="#666666" points="653.5,-330.03 501.5,-330.03 501.5,-311.03 653.5,-311.03 653.5,-330.03"/>
<text text-anchor="middle" x="577.5" y="-318.03" font-family="Helvetica,sans-Serif" font-size="10.00">lci::post_put_x::packet_pool</text>
</a>
</g>
</g>
<!-- Node2&#45;&gt;Node15 -->
<g id="edge51_Node000002_Node000015" class="edge">
<title>Node2&#45;&gt;Node15</title>
<g id="a_edge51_Node000002_Node000015"><a xlink:title=" ">
<path fill="none" stroke="#63b8ff" d="M283,-368C296.29,-365.49 310.68,-362.84 324,-360.53 384.14,-350.09 452.53,-339.32 502.96,-331.59"/>
<polygon fill="#63b8ff" stroke="#63b8ff" points="503.76,-335.01 513.11,-330.04 502.7,-328.09 503.76,-335.01"/>
</a>
</g>
</g>
<!-- Node16 -->
<g id="Node000016" class="node">
<title>Node16</title>
<g id="a_Node000016"><a xlink:href="../../d7/d85/classlci_1_1post__put__x.html#a14eb2ef67f761ab5ea877afe67212fca" target="_top" xlink:title=" ">
<polygon fill="white" stroke="#666666" points="635,-293.03 520,-293.03 520,-274.03 635,-274.03 635,-293.03"/>
<text text-anchor="middle" x="577.5" y="-281.03" font-family="Helvetica,sans-Serif" font-size="10.00">lci::post_put_x::rank</text>
</a>
</g>
</g>
<!-- Node2&#45;&gt;Node16 -->
<g id="edge52_Node000002_Node000016" class="edge">
<title>Node2&#45;&gt;Node16</title>
<g id="a_edge52_Node000002_Node000016"><a xlink:title=" ">
<path fill="none" stroke="#63b8ff" d="M250.73,-367.99C268.42,-358.28 297.39,-343.42 324,-334.53 385.44,-314 458.18,-300.37 509.78,-292.41"/>
<polygon fill="#63b8ff" stroke="#63b8ff" points="510.44,-295.85 519.8,-290.89 509.39,-288.93 510.44,-295.85"/>
</a>
</g>
</g>
<!-- Node17 -->
<g id="Node000017" class="node">
<title>Node17</title>
<g id="a_Node000017"><a xlink:href="../../d7/d85/classlci_1_1post__put__x.html#ad4bc08cb1aef1932ac79961748f76dd2" target="_top" xlink:title=" ">
<polygon fill="white" stroke="#666666" points="658,-256.03 497,-256.03 497,-237.03 658,-237.03 658,-256.03"/>
<text text-anchor="middle" x="577.5" y="-244.03" font-family="Helvetica,sans-Serif" font-size="10.00">lci::post_put_x::remote_comp</text>
</a>
</g>
</g>
<!-- Node2&#45;&gt;Node17 -->
<g id="edge53_Node000002_Node000017" class="edge">
<title>Node2&#45;&gt;Node17</title>
<g id="a_edge53_Node000002_Node000017"><a xlink:title=" ">
<path fill="none" stroke="#63b8ff" d="M241.52,-367.99C255.67,-350.74 288.1,-314.5 324,-296.53 374.47,-271.26 436.6,-258.75 486.6,-252.57"/>
<polygon fill="#63b8ff" stroke="#63b8ff" points="487.23,-256.02 496.75,-251.38 486.41,-249.07 487.23,-256.02"/>
</a>
</g>
</g>
<!-- Node18 -->
<g id="Node000018" class="node">
<title>Node18</title>
<g id="a_Node000018"><a xlink:href="../../d7/d85/classlci_1_1post__put__x.html#ab68827d739e8a3a96b85239b9ac54813" target="_top" xlink:title=" ">
<polygon fill="white" stroke="#666666" points="654.5,-219.03 500.5,-219.03 500.5,-200.03 654.5,-200.03 654.5,-219.03"/>
<text text-anchor="middle" x="577.5" y="-207.03" font-family="Helvetica,sans-Serif" font-size="10.00">lci::post_put_x::remote_disp</text>
</a>
</g>
</g>
<!-- Node2&#45;&gt;Node18 -->
<g id="edge54_Node000002_Node000018" class="edge">
<title>Node2&#45;&gt;Node18</title>
<g id="a_edge54_Node000002_Node000018"><a xlink:title=" ">
<path fill="none" stroke="#63b8ff" d="M237.9,-367.72C248.05,-343.63 277.71,-281.4 324,-252.53 373.52,-221.64 438.63,-211.12 490.34,-208.2"/>
<polygon fill="#63b8ff" stroke="#63b8ff" points="490.67,-211.69 500.49,-207.72 490.33,-204.7 490.67,-211.69"/>
</a>
</g>
</g>
<!-- Node19 -->
<g id="Node000019" class="node">
<title>Node19</title>
<g id="a_Node000019"><a xlink:href="../../d7/d85/classlci_1_1post__put__x.html#aae3220b86cd474558b37f2f7787a0f54" target="_top" xlink:title=" ">
<polygon fill="white" stroke="#666666" points="632.5,-182.03 522.5,-182.03 522.5,-163.03 632.5,-163.03 632.5,-182.03"/>
<text text-anchor="middle" x="577.5" y="-170.03" font-family="Helvetica,sans-Serif" font-size="10.00">lci::post_put_x::rmr</text>
</a>
</g>
</g>
<!-- Node2&#45;&gt;Node19 -->
<g id="edge55_Node000002_Node000019" class="edge">
<title>Node2&#45;&gt;Node19</title>
<g id="a_edge55_Node000002_Node000019"><a xlink:title=" ">
<path fill="none" stroke="#63b8ff" d="M235.9,-367.72C242.24,-337.8 265.71,-247.27 324,-206.53 378.92,-168.14 457.26,-163.27 512.07,-165.7"/>
<polygon fill="#63b8ff" stroke="#63b8ff" points="512.19,-169.22 522.36,-166.26 512.56,-162.23 512.19,-169.22"/>
</a>
</g>
</g>
<!-- Node20 -->
<g id="Node000020" class="node">
<title>Node20</title>
<g id="a_Node000020"><a xlink:href="../../d7/d85/classlci_1_1post__put__x.html#a1b9f0551ed3b7e0b726a15b8c4eb7315" target="_top" xlink:title=" ">
<polygon fill="white" stroke="#666666" points="643,-145.03 512,-145.03 512,-126.03 643,-126.03 643,-145.03"/>
<text text-anchor="middle" x="577.5" y="-133.03" font-family="Helvetica,sans-Serif" font-size="10.00">lci::post_put_x::runtime</text>
</a>
</g>
</g>
<!-- Node2&#45;&gt;Node20 -->
<g id="edge56_Node000002_Node000020" class="edge">
<title>Node2&#45;&gt;Node20</title>
<g id="a_edge56_Node000002_Node000020"><a xlink:title=" ">
<path fill="none" stroke="#63b8ff" d="M234.7,-367.68C237.78,-332.75 253.25,-214.12 324,-161.53 377.27,-121.92 455.27,-119.92 510.45,-124.98"/>
<polygon fill="#63b8ff" stroke="#63b8ff" points="510.18,-128.47 520.48,-126.01 510.88,-121.51 510.18,-128.47"/>
</a>
</g>
</g>
<!-- Node21 -->
<g id="Node000021" class="node">
<title>Node21</title>
<g id="a_Node000021"><a xlink:href="../../d7/d85/classlci_1_1post__put__x.html#a8e4a92835eb5373cd0c4a8f7d052ba3a" target="_top" xlink:title=" ">
<polygon fill="white" stroke="#666666" points="634,-108.03 521,-108.03 521,-89.03 634,-89.03 634,-108.03"/>
<text text-anchor="middle" x="577.5" y="-96.03" font-family="Helvetica,sans-Serif" font-size="10.00">lci::post_put_x::size</text>
</a>
</g>
</g>
<!-- Node2&#45;&gt;Node21 -->
<g id="edge57_Node000002_Node000021" class="edge">
<title>Node2&#45;&gt;Node21</title>
<g id="a_edge57_Node000002_Node000021"><a xlink:title=" ">
<path fill="none" stroke="#63b8ff" d="M233.92,-367.93C234.16,-329.13 240.74,-182.84 324,-118.53 381.01,-74.49 468.44,-78.62 524.02,-87.31"/>
<polygon fill="#63b8ff" stroke="#63b8ff" points="523.58,-90.78 534.02,-88.97 524.73,-83.88 523.58,-90.78"/>
</a>
</g>
</g>
<!-- Node22 -->
<g id="Node000022" class="node">
<title>Node22</title>
<g id="a_Node000022"><a xlink:href="../../d7/d85/classlci_1_1post__put__x.html#a763b19426bad9e0c38a368006cd9bdc6" target="_top" xlink:title=" ">
<polygon fill="white" stroke="#666666" points="632,-71.03 523,-71.03 523,-52.03 632,-52.03 632,-71.03"/>
<text text-anchor="middle" x="577.5" y="-59.03" font-family="Helvetica,sans-Serif" font-size="10.00">lci::post_put_x::tag</text>
</a>
</g>
</g>
<!-- Node2&#45;&gt;Node22 -->
<g id="edge58_Node000002_Node000022" class="edge">
<title>Node2&#45;&gt;Node22</title>
<g id="a_edge58_Node000002_Node000022"><a xlink:title=" ">
<path fill="none" stroke="#63b8ff" d="M235.39,-368.02C242.43,-321.2 275.78,-115.83 324,-77.53 382.44,-31.1 474.55,-39.26 529.88,-49.99"/>
<polygon fill="#63b8ff" stroke="#63b8ff" points="529.27,-53.44 539.77,-52.01 530.67,-46.58 529.27,-53.44"/>
</a>
</g>
</g>
<!-- Node23 -->
<g id="Node000023" class="node">
<title>Node23</title>
<g id="a_Node000023"><a xlink:href="../../d7/d85/classlci_1_1post__put__x.html#a0b3a2ef72e0d53ef059b56ba1db406ae" target="_top" xlink:title=" ">
<polygon fill="white" stroke="#666666" points="634.5,-33.53 520.5,-33.53 520.5,-3.53 634.5,-3.53 634.5,-33.53"/>
<text text-anchor="start" x="528.5" y="-21.53" font-family="Helvetica,sans-Serif" font-size="10.00">lci::post_put_x::user</text>
<text text-anchor="middle" x="577.5" y="-10.53" font-family="Helvetica,sans-Serif" font-size="10.00">_context</text>
</a>
</g>
</g>
<!-- Node2&#45;&gt;Node23 -->
<g id="edge59_Node000002_Node000023" class="edge">
<title>Node2&#45;&gt;Node23</title>
<g id="a_edge59_Node000002_Node000023"><a xlink:title=" ">
<path fill="none" stroke="#63b8ff" d="M235.08,-367.84C240.95,-317.15 270.69,-82.99 324,-38.53 375.18,4.16 454.27,3.31 510.28,-4.48"/>
<polygon fill="#63b8ff" stroke="#63b8ff" points="510.04,-7.99 520.45,-6.01 511.08,-1.06 510.04,-7.99"/>
</a>
</g>
</g>
<!-- Node4 -->
<g id="Node000004" class="node">
<title>Node4</title>
<g id="a_Node000004"><a xlink:href="../../d7/d85/classlci_1_1post__put__x.html#a749da98e07eaba33f7e0dacab337bb0e" target="_top" xlink:title=" ">
<polygon fill="white" stroke="#666666" points="808,-372.53 694,-372.53 694,-342.53 808,-342.53 808,-372.53"/>
<text text-anchor="start" x="702" y="-360.53" font-family="Helvetica,sans-Serif" font-size="10.00">lci::post_put_x::post</text>
<text text-anchor="middle" x="751" y="-349.53" font-family="Helvetica,sans-Serif" font-size="10.00">_put_x</text>
</a>
</g>
</g>
<!-- Node3&#45;&gt;Node4 -->
<g id="edge3_Node000003_Node000004" class="edge">
<title>Node3&#45;&gt;Node4</title>
<g id="a_edge3_Node000003_Node000004"><a xlink:title=" ">
<path fill="none" stroke="#63b8ff" d="M644.93,-737.92C649.73,-735.41 654.17,-732.32 658,-728.53 707.85,-679.09 738.15,-457.92 747.16,-382.68"/>
<polygon fill="#63b8ff" stroke="#63b8ff" points="750.64,-383.02 748.33,-372.68 743.69,-382.2 750.64,-383.02"/>
</a>
</g>
</g>
<!-- Node5&#45;&gt;Node4 -->
<g id="edge5_Node000005_Node000004" class="edge">
<title>Node5&#45;&gt;Node4</title>
<g id="a_edge5_Node000005_Node000004"><a xlink:title=" ">
<path fill="none" stroke="#63b8ff" d="M637.08,-694.36C644.84,-690.98 652.13,-686.49 658,-680.53 740.79,-596.43 750.18,-443.4 750.48,-383.01"/>
<polygon fill="#63b8ff" stroke="#63b8ff" points="753.98,-382.84 750.44,-372.85 746.98,-382.86 753.98,-382.84"/>
</a>
</g>
</g>
<!-- Node6&#45;&gt;Node4 -->
<g id="edge7_Node000006_Node000004" class="edge">
<title>Node6&#45;&gt;Node4</title>
<g id="a_edge7_Node000006_Node000004"><a xlink:title=" ">
<path fill="none" stroke="#63b8ff" d="M637.24,-645.94C644.89,-642.62 652.1,-638.25 658,-632.53 729.47,-563.14 745.42,-436.73 748.98,-382.89"/>
<polygon fill="#63b8ff" stroke="#63b8ff" points="752.48,-383.03 749.55,-372.84 745.49,-382.63 752.48,-383.03"/>
</a>
</g>
</g>
<!-- Node7&#45;&gt;Node3 -->
<g id="edge9_Node000007_Node000003" class="edge">
<title>Node7&#45;&gt;Node3</title>
<g id="a_edge9_Node000007_Node000003"><a xlink:title=" ">
<path fill="none" stroke="#63b8ff" d="M393.32,-406.17C393.03,-450.43 397.97,-635.98 497,-728.53 498.52,-729.94 500.12,-731.26 501.79,-732.48"/>
<polygon fill="#63b8ff" stroke="#63b8ff" points="500.32,-735.68 510.69,-737.86 503.94,-729.69 500.32,-735.68"/>
</a>
</g>
</g>
<!-- Node7&#45;&gt;Node5 -->
<g id="edge10_Node000007_Node000005" class="edge">
<title>Node7&#45;&gt;Node5</title>
<g id="a_edge10_Node000007_Node000005"><a xlink:title=" ">
<path fill="none" stroke="#63b8ff" d="M394.03,-406.26C396.75,-446.39 412.53,-600.68 497,-680.53 500.55,-683.88 504.54,-686.76 508.81,-689.25"/>
<polygon fill="#63b8ff" stroke="#63b8ff" points="507.39,-692.45 517.89,-693.8 510.52,-686.19 507.39,-692.45"/>
</a>
</g>
</g>
<!-- Node7&#45;&gt;Node6 -->
<g id="edge11_Node000007_Node000006" class="edge">
<title>Node7&#45;&gt;Node6</title>
<g id="a_edge11_Node000007_Node000006"><a xlink:title=" ">
<path fill="none" stroke="#63b8ff" d="M394.84,-406.31C400.28,-442.18 424.02,-567.82 497,-632.53 500.59,-635.71 504.58,-638.47 508.82,-640.86"/>
<polygon fill="#63b8ff" stroke="#63b8ff" points="507.29,-644.01 517.81,-645.28 510.38,-637.72 507.29,-644.01"/>
</a>
</g>
</g>
<!-- Node7&#45;&gt;Node8 -->
<g id="edge12_Node000007_Node000008" class="edge">
<title>Node7&#45;&gt;Node8</title>
<g id="a_edge12_Node000007_Node000008"><a xlink:title=" ">
<path fill="none" stroke="#63b8ff" d="M396.06,-406.43C404.63,-437.61 435.31,-534.6 497,-584.53 500.5,-587.36 504.33,-589.86 508.35,-592.06"/>
<polygon fill="#63b8ff" stroke="#63b8ff" points="506.9,-595.24 517.42,-596.43 509.93,-588.94 506.9,-595.24"/>
</a>
</g>
</g>
<!-- Node7&#45;&gt;Node9 -->
<g id="edge14_Node000007_Node000009" class="edge">
<title>Node7&#45;&gt;Node9</title>
<g id="a_edge14_Node000007_Node000009"><a xlink:title=" ">
<path fill="none" stroke="#63b8ff" d="M397.13,-406.15C407.83,-433.18 442.04,-510.22 497,-547.53 499.61,-549.3 502.37,-550.9 505.23,-552.34"/>
<polygon fill="#63b8ff" stroke="#63b8ff" points="504.09,-555.66 514.65,-556.44 506.88,-549.24 504.09,-555.66"/>
</a>
</g>
</g>
<!-- Node7&#45;&gt;Node10 -->
<g id="edge16_Node000007_Node000010" class="edge">
<title>Node7&#45;&gt;Node10</title>
<g id="a_edge16_Node000007_Node000010"><a xlink:title=" ">
<path fill="none" stroke="#63b8ff" d="M399.4,-406.18C413.39,-428.21 450.92,-482.41 497,-509.53 500.71,-511.71 504.67,-513.65 508.75,-515.36"/>
<polygon fill="#63b8ff" stroke="#63b8ff" points="507.86,-518.76 518.46,-518.97 510.3,-512.2 507.86,-518.76"/>
</a>
</g>
</g>
<!-- Node7&#45;&gt;Node11 -->
<g id="edge18_Node000007_Node000011" class="edge">
<title>Node7&#45;&gt;Node11</title>
<g id="a_edge18_Node000007_Node000011"><a xlink:title=" ">
<path fill="none" stroke="#63b8ff" d="M406.26,-406.13C425.19,-420 462.24,-445.71 497,-461.53 501.29,-463.48 505.77,-465.32 510.34,-467.05"/>
<polygon fill="#63b8ff" stroke="#63b8ff" points="509.19,-470.36 519.78,-470.45 511.55,-463.77 509.19,-470.36"/>
</a>
</g>
</g>
<!-- Node7&#45;&gt;Node12 -->
<g id="edge20_Node000007_Node000012" class="edge">
<title>Node7&#45;&gt;Node12</title>
<g id="a_edge20_Node000007_Node000012"><a xlink:title=" ">
<path fill="none" stroke="#63b8ff" d="M435.94,-406.04C457.75,-410.92 484.84,-416.99 509.4,-422.49"/>
<polygon fill="#63b8ff" stroke="#63b8ff" points="508.86,-425.96 519.38,-424.73 510.39,-419.13 508.86,-425.96"/>
</a>
</g>
</g>
<!-- Node7&#45;&gt;Node13 -->
<g id="edge22_Node000007_Node000013" class="edge">
<title>Node7&#45;&gt;Node13</title>
<g id="a_edge22_Node000007_Node000013"><a xlink:title=" ">
<path fill="none" stroke="#63b8ff" d="M461.12,-395.79C471.38,-395.68 482.08,-395.56 492.63,-395.44"/>
<polygon fill="#63b8ff" stroke="#63b8ff" points="492.73,-398.94 502.69,-395.33 492.66,-391.94 492.73,-398.94"/>
</a>
</g>
</g>
<!-- Node7&#45;&gt;Node14 -->
<g id="edge24_Node000007_Node000014" class="edge">
<title>Node7&#45;&gt;Node14</title>
<g id="a_edge24_Node000007_Node000014"><a xlink:title=" ">
<path fill="none" stroke="#63b8ff" d="M438.27,-386.99C463.51,-381.61 495.23,-374.85 521.92,-369.16"/>
<polygon fill="#63b8ff" stroke="#63b8ff" points="522.83,-372.54 531.88,-367.04 521.37,-365.7 522.83,-372.54"/>
</a>
</g>
</g>
<!-- Node7&#45;&gt;Node15 -->
<g id="edge26_Node000007_Node000015" class="edge">
<title>Node7&#45;&gt;Node15</title>
<g id="a_edge26_Node000007_Node000015"><a xlink:title=" ">
<path fill="none" stroke="#63b8ff" d="M407.97,-386.91C427.45,-374.36 463.52,-352.47 497,-339.53 503.64,-336.96 510.74,-334.67 517.85,-332.64"/>
<polygon fill="#63b8ff" stroke="#63b8ff" points="518.77,-336.02 527.52,-330.04 516.95,-329.26 518.77,-336.02"/>
</a>
</g>
</g>
<!-- Node7&#45;&gt;Node16 -->
<g id="edge28_Node000007_Node000016" class="edge">
<title>Node7&#45;&gt;Node16</title>
<g id="a_edge28_Node000007_Node000016"><a xlink:title=" ">
<path fill="none" stroke="#63b8ff" d="M401.2,-386.82C417,-367.6 455.15,-324.63 497,-302.53 501.32,-300.24 505.92,-298.23 510.64,-296.46"/>
<polygon fill="#63b8ff" stroke="#63b8ff" points="512.1,-299.66 520.45,-293.14 509.86,-293.03 512.1,-299.66"/>
</a>
</g>
</g>
<!-- Node7&#45;&gt;Node17 -->
<g id="edge30_Node000007_Node000017" class="edge">
<title>Node7&#45;&gt;Node17</title>
<g id="a_edge30_Node000007_Node000017"><a xlink:title=" ">
<path fill="none" stroke="#63b8ff" d="M398.22,-386.81C410.68,-362.27 446.92,-297.51 497,-265.53 500.34,-263.4 503.89,-261.5 507.57,-259.82"/>
<polygon fill="#63b8ff" stroke="#63b8ff" points="508.96,-263.04 516.94,-256.07 506.36,-256.54 508.96,-263.04"/>
</a>
</g>
</g>
<!-- Node7&#45;&gt;Node18 -->
<g id="edge32_Node000007_Node000018" class="edge">
<title>Node7&#45;&gt;Node18</title>
<g id="a_edge32_Node000007_Node000018"><a xlink:title=" ">
<path fill="none" stroke="#63b8ff" d="M396.54,-386.71C406.1,-357.56 438.45,-270.91 497,-228.53 499.56,-226.67 502.28,-225 505.11,-223.48"/>
<polygon fill="#63b8ff" stroke="#63b8ff" points="506.83,-226.54 514.45,-219.18 503.91,-220.18 506.83,-226.54"/>
</a>
</g>
</g>
<!-- Node7&#45;&gt;Node19 -->
<g id="edge34_Node000007_Node000019" class="edge">
<title>Node7&#45;&gt;Node19</title>
<g id="a_edge34_Node000007_Node000019"><a xlink:title=" ">
<path fill="none" stroke="#63b8ff" d="M395.34,-386.99C402.2,-354.16 429.44,-244.93 497,-191.53 501.71,-187.81 507.03,-184.8 512.63,-182.36"/>
<polygon fill="#63b8ff" stroke="#63b8ff" points="514.11,-185.55 522.27,-178.79 511.68,-178.98 514.11,-185.55"/>
</a>
</g>
</g>
<!-- Node7&#45;&gt;Node20 -->
<g id="edge36_Node000007_Node000020" class="edge">
<title>Node7&#45;&gt;Node20</title>
<g id="a_edge36_Node000007_Node000020"><a xlink:title=" ">
<path fill="none" stroke="#63b8ff" d="M394.57,-386.87C399.14,-350.28 420.5,-219.04 497,-154.53 498.99,-152.85 501.11,-151.31 503.32,-149.9"/>
<polygon fill="#63b8ff" stroke="#63b8ff" points="505.11,-152.91 512.27,-145.1 501.8,-146.75 505.11,-152.91"/>
</a>
</g>
</g>
<!-- Node7&#45;&gt;Node21 -->
<g id="edge38_Node000007_Node000021" class="edge">
<title>Node7&#45;&gt;Node21</title>
<g id="a_edge38_Node000007_Node000021"><a xlink:title=" ">
<path fill="none" stroke="#63b8ff" d="M393.97,-386.83C396.43,-346.85 411.35,-193.42 497,-117.53 501.25,-113.76 506.11,-110.71 511.29,-108.24"/>
<polygon fill="#63b8ff" stroke="#63b8ff" points="512.91,-111.36 520.89,-104.39 510.31,-104.86 512.91,-111.36"/>
</a>
</g>
</g>
<!-- Node7&#45;&gt;Node22 -->
<g id="edge40_Node000007_Node000022" class="edge">
<title>Node7&#45;&gt;Node22</title>
<g id="a_edge40_Node000007_Node000022"><a xlink:title=" ">
<path fill="none" stroke="#63b8ff" d="M393.49,-386.77C394.02,-343.58 402.11,-167.95 497,-80.53 501.73,-76.17 507.27,-72.76 513.19,-70.1"/>
<polygon fill="#63b8ff" stroke="#63b8ff" points="514.61,-73.31 522.74,-66.51 512.15,-66.76 514.61,-73.31"/>
</a>
</g>
</g>
<!-- Node7&#45;&gt;Node23 -->
<g id="edge42_Node000007_Node000023" class="edge">
<title>Node7&#45;&gt;Node23</title>
<g id="a_edge42_Node000007_Node000023"><a xlink:title=" ">
<path fill="none" stroke="#63b8ff" d="M393.23,-387.02C392.47,-341.63 395.35,-145.07 497,-42.53 501.16,-38.33 506.03,-34.86 511.27,-31.99"/>
<polygon fill="#63b8ff" stroke="#63b8ff" points="512.82,-35.13 520.38,-27.72 509.84,-28.8 512.82,-35.13"/>
</a>
</g>
</g>
<!-- Node8&#45;&gt;Node4 -->
<g id="edge13_Node000008_Node000004" class="edge">
<title>Node8&#45;&gt;Node4</title>
<g id="a_edge13_Node000008_Node000004"><a xlink:title=" ">
<path fill="none" stroke="#63b8ff" d="M637.73,-597.26C645.13,-594.03 652.14,-589.87 658,-584.53 718.21,-529.61 739.83,-429.71 746.9,-382.94"/>
<polygon fill="#63b8ff" stroke="#63b8ff" points="750.4,-383.16 748.33,-372.77 743.47,-382.19 750.4,-383.16"/>
</a>
</g>
</g>
<!-- Node9&#45;&gt;Node4 -->
<g id="edge15_Node000009_Node000004" class="edge">
<title>Node9&#45;&gt;Node4</title>
<g id="a_edge15_Node000009_Node000004"><a xlink:title=" ">
<path fill="none" stroke="#63b8ff" d="M640.13,-557.55C646.56,-555.02 652.68,-551.75 658,-547.53 711.48,-505.05 735.85,-423.74 745.15,-382.63"/>
<polygon fill="#63b8ff" stroke="#63b8ff" points="748.62,-383.15 747.29,-372.64 741.78,-381.68 748.62,-383.15"/>
</a>
</g>
</g>
<!-- Node10&#45;&gt;Node4 -->
<g id="edge17_Node000010_Node000004" class="edge">
<title>Node10&#45;&gt;Node4</title>
<g id="a_edge17_Node000010_Node000004"><a xlink:title=" ">
<path fill="none" stroke="#63b8ff" d="M640.58,-518.92C646.78,-516.45 652.73,-513.38 658,-509.53 702.25,-477.22 729.39,-416.57 741.85,-382.46"/>
<polygon fill="#63b8ff" stroke="#63b8ff" points="745.24,-383.38 745.26,-372.79 738.64,-381.06 745.24,-383.38"/>
</a>
</g>
</g>
<!-- Node11&#45;&gt;Node4 -->
<g id="edge19_Node000011_Node000004" class="edge">
<title>Node11&#45;&gt;Node4</title>
<g id="a_edge19_Node000011_Node000004"><a xlink:title=" ">
<path fill="none" stroke="#63b8ff" d="M636.64,-472.13C644.12,-469.22 651.44,-465.73 658,-461.53 690.76,-440.54 718.77,-404.68 735.01,-381.04"/>
<polygon fill="#63b8ff" stroke="#63b8ff" points="737.98,-382.89 740.64,-372.64 732.17,-379 737.98,-382.89"/>
</a>
</g>
</g>
<!-- Node12&#45;&gt;Node4 -->
<g id="edge21_Node000012_Node000004" class="edge">
<title>Node12&#45;&gt;Node4</title>
<g id="a_edge21_Node000012_Node000004"><a xlink:title=" ">
<path fill="none" stroke="#63b8ff" d="M634.75,-422.5C642.68,-419.82 650.63,-416.82 658,-413.53 679.66,-403.85 702.45,-390.01 719.93,-378.51"/>
<polygon fill="#63b8ff" stroke="#63b8ff" points="722.19,-381.21 728.55,-372.74 718.29,-375.39 722.19,-381.21"/>
</a>
</g>
</g>
<!-- Node13&#45;&gt;Node4 -->
<g id="edge23_Node000013_Node000004" class="edge">
<title>Node13&#45;&gt;Node4</title>
<g id="a_edge23_Node000013_Node000004"><a xlink:title=" ">
<path fill="none" stroke="#63b8ff" d="M622.67,-385C641.34,-380.97 663.5,-376.19 684.04,-371.76"/>
<polygon fill="#63b8ff" stroke="#63b8ff" points="684.94,-375.14 693.98,-369.61 683.47,-368.3 684.94,-375.14"/>
</a>
</g>
</g>
<!-- Node14&#45;&gt;Node4 -->
<g id="edge25_Node000014_Node000004" class="edge">
<title>Node14&#45;&gt;Node4</title>
<g id="a_edge25_Node000014_Node000004"><a xlink:title=" ">
<path fill="none" stroke="#63b8ff" d="M631.36,-357.53C647.89,-357.53 666.35,-357.53 683.69,-357.53"/>
<polygon fill="#63b8ff" stroke="#63b8ff" points="683.75,-361.03 693.75,-357.53 683.75,-354.03 683.75,-361.03"/>
</a>
</g>
</g>
<!-- Node15&#45;&gt;Node4 -->
<g id="edge27_Node000015_Node000004" class="edge">
<title>Node15&#45;&gt;Node4</title>
<g id="a_edge27_Node000015_Node000004"><a xlink:title=" ">
<path fill="none" stroke="#63b8ff" d="M622.67,-330.05C641.34,-334.08 663.5,-338.86 684.04,-343.3"/>
<polygon fill="#63b8ff" stroke="#63b8ff" points="683.47,-346.75 693.98,-345.44 684.94,-339.91 683.47,-346.75"/>
</a>
</g>
</g>
<!-- Node16&#45;&gt;Node4 -->
<g id="edge29_Node000016_Node000004" class="edge">
<title>Node16&#45;&gt;Node4</title>
<g id="a_edge29_Node000016_Node000004"><a xlink:title=" ">
<path fill="none" stroke="#63b8ff" d="M628.85,-293.11C638.69,-295.66 648.8,-298.78 658,-302.53 680.01,-311.49 702.96,-325.2 720.44,-336.69"/>
<polygon fill="#63b8ff" stroke="#63b8ff" points="718.78,-339.8 729.04,-342.46 722.68,-333.98 718.78,-339.8"/>
</a>
</g>
</g>
<!-- Node17&#45;&gt;Node4 -->
<g id="edge31_Node000017_Node000004" class="edge">
<title>Node17&#45;&gt;Node4</title>
<g id="a_edge31_Node000017_Node000004"><a xlink:title=" ">
<path fill="none" stroke="#63b8ff" d="M635.55,-256.09C643.36,-258.56 651.06,-261.65 658,-265.53 688.67,-282.68 716.04,-312.96 732.79,-334.08"/>
<polygon fill="#63b8ff" stroke="#63b8ff" points="730.21,-336.46 739.09,-342.23 735.74,-332.17 730.21,-336.46"/>
</a>
</g>
</g>
<!-- Node18&#45;&gt;Node4 -->
<g id="edge33_Node000018_Node000004" class="edge">
<title>Node18&#45;&gt;Node4</title>
<g id="a_edge33_Node000018_Node000004"><a xlink:title=" ">
<path fill="none" stroke="#63b8ff" d="M639.07,-219.08C645.76,-221.55 652.23,-224.64 658,-228.53 697.15,-254.9 725.15,-303.88 739.36,-333.31"/>
<polygon fill="#63b8ff" stroke="#63b8ff" points="736.24,-334.9 743.65,-342.48 742.58,-331.94 736.24,-334.9"/>
</a>
</g>
</g>
<!-- Node19&#45;&gt;Node4 -->
<g id="edge35_Node000019_Node000004" class="edge">
<title>Node19&#45;&gt;Node4</title>
<g id="a_edge35_Node000019_Node000004"><a xlink:title=" ">
<path fill="none" stroke="#63b8ff" d="M632.55,-179.03C641.65,-181.85 650.54,-185.86 658,-191.53 705.52,-227.63 731.85,-295.74 743.19,-332.49"/>
<polygon fill="#63b8ff" stroke="#63b8ff" points="739.93,-333.8 746.11,-342.4 746.64,-331.82 739.93,-333.8"/>
</a>
</g>
</g>
<!-- Node20&#45;&gt;Node4 -->
<g id="edge37_Node000020_Node000004" class="edge">
<title>Node20&#45;&gt;Node4</title>
<g id="a_edge37_Node000020_Node000004"><a xlink:title=" ">
<path fill="none" stroke="#63b8ff" d="M642.25,-145.03C647.93,-147.53 653.29,-150.64 658,-154.53 714.26,-200.96 737.55,-289.09 745.92,-332.33"/>
<polygon fill="#63b8ff" stroke="#63b8ff" points="742.5,-333.09 747.74,-342.3 749.39,-331.83 742.5,-333.09"/>
</a>
</g>
</g>
<!-- Node21&#45;&gt;Node4 -->
<g id="edge39_Node000021_Node000004" class="edge">
<title>Node21&#45;&gt;Node4</title>
<g id="a_edge39_Node000021_Node000004"><a xlink:title=" ">
<path fill="none" stroke="#63b8ff" d="M634.05,-104.46C642.79,-107.36 651.17,-111.54 658,-117.53 723.2,-174.68 742.43,-283.33 747.91,-332.39"/>
<polygon fill="#63b8ff" stroke="#63b8ff" points="744.44,-332.85 748.93,-342.44 751.4,-332.14 744.44,-332.85"/>
</a>
</g>
</g>
<!-- Node22&#45;&gt;Node4 -->
<g id="edge41_Node000022_Node000004" class="edge">
<title>Node22&#45;&gt;Node4</title>
<g id="a_edge41_Node000022_Node000004"><a xlink:title=" ">
<path fill="none" stroke="#63b8ff" d="M632.24,-66.53C641.68,-69.48 650.78,-73.91 658,-80.53 732.06,-148.47 746.59,-277.4 749.37,-332.04"/>
<polygon fill="#63b8ff" stroke="#63b8ff" points="745.88,-332.38 749.8,-342.23 752.88,-332.09 745.88,-332.38"/>
</a>
</g>
</g>
<!-- Node23&#45;&gt;Node4 -->
<g id="edge43_Node000023_Node000004" class="edge">
<title>Node23&#45;&gt;Node4</title>
<g id="a_edge43_Node000023_Node000004"><a xlink:title=" ">
<path fill="none" stroke="#63b8ff" d="M634.62,-27.72C643.29,-31.2 651.5,-35.97 658,-42.53 738.81,-124.07 749.41,-272.42 750.25,-331.87"/>
<polygon fill="#63b8ff" stroke="#63b8ff" points="746.76,-332.24 750.31,-342.22 753.76,-332.2 746.76,-332.24"/>
</a>
</g>
</g>
</g>
</svg>
