<?xml version="1.0" encoding="UTF-8" standalone="no"?>
<!DOCTYPE svg PUBLIC "-//W3C//DTD SVG 1.1//EN"
 "http://www.w3.org/Graphics/SVG/1.1/DTD/svg11.dtd">
<!-- Generated by graphviz version 2.43.0 (0)
 -->
<!-- Title: lci::post_put_x::post_put_x Pages: 1 -->
<svg width="816pt" height="854pt"
 viewBox="0.00 0.00 816.00 854.30" xmlns="http://www.w3.org/2000/svg" xmlns:xlink="http://www.w3.org/1999/xlink">
<g id="graph0" class="graph" transform="scale(1 1) rotate(0) translate(4 850.3)">
<title>lci::post_put_x::post_put_x</title>
<!-- Node1 -->
<g id="Node000001" class="node">
<title>Node1</title>
<g id="a_Node000001"><a xlink:title=" ">
<polygon fill="#999999" stroke="#666666" points="808,-423.8 694,-423.8 694,-393.8 808,-393.8 808,-423.8"/>
<text text-anchor="start" x="702" y="-411.8" font-family="Helvetica,sans-Serif" font-size="10.00">lci::post_put_x::post</text>
<text text-anchor="middle" x="751" y="-400.8" font-family="Helvetica,sans-Serif" font-size="10.00">_put_x</text>
</a>
</g>
</g>
<!-- Node2 -->
<g id="Node000002" class="node">
<title>Node2</title>
<g id="a_Node000002"><a xlink:href="../../d7/d85/classlci_1_1post__put__x.html#a7c47be347b9cd58177cf852427875c1d" target="_top" xlink:title=" ">
<polygon fill="white" stroke="#666666" points="652,-846.3 503,-846.3 503,-827.3 652,-827.3 652,-846.3"/>
<text text-anchor="middle" x="577.5" y="-834.3" font-family="Helvetica,sans-Serif" font-size="10.00">lci::post_put_x::allow_done</text>
</a>
</g>
</g>
<!-- Node1&#45;&gt;Node2 -->
<g id="edge1_Node000001_Node000002" class="edge">
<title>Node1&#45;&gt;Node2</title>
<g id="a_edge1_Node000001_Node000002"><a xlink:title=" ">
<path fill="none" stroke="#63b8ff" d="M747.74,-434.35C740.1,-515.06 712.56,-762.51 658,-817.8 654.21,-821.64 649.8,-824.75 645.03,-827.28"/>
<polygon fill="#63b8ff" stroke="#63b8ff" points="751.25,-434.38 748.69,-424.1 744.28,-433.74 751.25,-434.38"/>
</a>
</g>
</g>
<!-- Node7 -->
<g id="Node000007" class="node">
<title>Node7</title>
<g id="a_Node000007"><a xlink:href="../../d7/d85/classlci_1_1post__put__x.html#afe193737cce6daaf2317f9bb6ea49c9d" target="_top" xlink:title=" ">
<polygon fill="white" stroke="#666666" points="637,-808.8 518,-808.8 518,-778.8 637,-778.8 637,-808.8"/>
<text text-anchor="start" x="526" y="-796.8" font-family="Helvetica,sans-Serif" font-size="10.00">lci::post_put_x::allow</text>
<text text-anchor="middle" x="577.5" y="-785.8" font-family="Helvetica,sans-Serif" font-size="10.00">_posted</text>
</a>
</g>
</g>
<!-- Node1&#45;&gt;Node7 -->
<g id="edge7_Node000001_Node000007" class="edge">
<title>Node1&#45;&gt;Node7</title>
<g id="a_edge7_Node000001_Node000007"><a xlink:title=" ">
<path fill="none" stroke="#63b8ff" d="M746.8,-434.1C736.99,-507.87 705.11,-720.58 658,-769.8 652.22,-775.84 644.97,-780.37 637.23,-783.78"/>
<polygon fill="#63b8ff" stroke="#63b8ff" points="750.31,-434.25 748.14,-423.88 743.37,-433.34 750.31,-434.25"/>
</a>
</g>
</g>
<!-- Node8 -->
<g id="Node000008" class="node">
<title>Node8</title>
<g id="a_Node000008"><a xlink:href="../../d7/d85/classlci_1_1post__put__x.html#a9c3eee39d20edda920f82a4f6824fc28" target="_top" xlink:title=" ">
<polygon fill="white" stroke="#666666" points="637,-760.8 518,-760.8 518,-730.8 637,-730.8 637,-760.8"/>
<text text-anchor="start" x="526" y="-748.8" font-family="Helvetica,sans-Serif" font-size="10.00">lci::post_put_x::allow</text>
<text text-anchor="middle" x="577.5" y="-737.8" font-family="Helvetica,sans-Serif" font-size="10.00">_retry</text>
</a>
</g>
</g>
<!-- Node1&#45;&gt;Node8 -->
<g id="edge10_Node000001_Node000008" class="edge">
<title>Node1&#45;&gt;Node8</title>
<g id="a_edge10_Node000001_Node000008"><a xlink:title=" ">
<path fill="none" stroke="#63b8ff" d="M750.2,-434.29C749.23,-493.38 738.41,-640.8 658,-721.8 652.11,-727.73 644.81,-732.21 637.03,-735.59"/>
<polygon fill="#63b8ff" stroke="#63b8ff" points="753.7,-434.04 750.28,-424.01 746.7,-433.98 753.7,-434.04"/>
</a>
</g>
</g>
<!-- Node9 -->
<g id="Node000009" class="node">
<title>Node9</title>
<g id="a_Node000009"><a xlink:href="../../d7/d85/classlci_1_1post__put__x.html#a7a7860a8c1743c159d558247509b673f" target="_top" xlink:title=" ">
<polygon fill="white" stroke="#666666" points="641,-712.3 514,-712.3 514,-693.3 641,-693.3 641,-712.3"/>
<text text-anchor="middle" x="577.5" y="-700.3" font-family="Helvetica,sans-Serif" font-size="10.00">lci::post_put_x::buffers</text>
</a>
</g>
</g>
<!-- Node1&#45;&gt;Node9 -->
<g id="edge13_Node000001_Node000009" class="edge">
<title>Node1&#45;&gt;Node9</title>
<g id="a_edge13_Node000001_Node000009"><a xlink:title=" ">
<path fill="none" stroke="#63b8ff" d="M749.31,-434.11C746.4,-488.36 731.65,-616.38 658,-683.8 653.08,-688.3 647.29,-691.79 641.11,-694.49"/>
<polygon fill="#63b8ff" stroke="#63b8ff" points="752.81,-434.14 749.76,-423.99 745.82,-433.83 752.81,-434.14"/>
</a>
</g>
</g>
<!-- Node10 -->
<g id="Node000010" class="node">
<title>Node10</title>
<g id="a_Node000010"><a xlink:href="../../d7/d85/classlci_1_1post__put__x.html#a8760591ebcfb437bc49000c47b473227" target="_top" xlink:title=" ">
<polygon fill="white" stroke="#666666" points="637.5,-674.8 517.5,-674.8 517.5,-644.8 637.5,-644.8 637.5,-674.8"/>
<text text-anchor="start" x="525.5" y="-662.8" font-family="Helvetica,sans-Serif" font-size="10.00">lci::post_put_x::comp</text>
<text text-anchor="middle" x="577.5" y="-651.8" font-family="Helvetica,sans-Serif" font-size="10.00">_semantic</text>
</a>
</g>
</g>
<!-- Node1&#45;&gt;Node10 -->
<g id="edge16_Node000001_Node000010" class="edge">
<title>Node1&#45;&gt;Node10</title>
<g id="a_edge16_Node000001_Node000010"><a xlink:title=" ">
<path fill="none" stroke="#63b8ff" d="M746.9,-434.22C739.83,-480.98 718.21,-580.88 658,-635.8 652.14,-641.14 645.13,-645.3 637.73,-648.53"/>
<polygon fill="#63b8ff" stroke="#63b8ff" points="750.4,-434.44 748.33,-424.05 743.47,-433.46 750.4,-434.44"/>
</a>
</g>
</g>
<!-- Node11 -->
<g id="Node000011" class="node">
<title>Node11</title>
<g id="a_Node000011"><a xlink:href="../../d7/d85/classlci_1_1post__put__x.html#a0d0c3eb11071c0039598976d9fd4dd39" target="_top" xlink:title=" ">
<polygon fill="white" stroke="#666666" points="640,-626.3 515,-626.3 515,-607.3 640,-607.3 640,-626.3"/>
<text text-anchor="middle" x="577.5" y="-614.3" font-family="Helvetica,sans-Serif" font-size="10.00">lci::post_put_x::device</text>
</a>
</g>
</g>
<!-- Node1&#45;&gt;Node11 -->
<g id="edge19_Node000001_Node000011" class="edge">
<title>Node1&#45;&gt;Node11</title>
<g id="a_edge19_Node000001_Node000011"><a xlink:title=" ">
<path fill="none" stroke="#63b8ff" d="M745.15,-433.91C735.85,-475.01 711.48,-556.32 658,-598.8 652.68,-603.02 646.56,-606.3 640.13,-608.83"/>
<polygon fill="#63b8ff" stroke="#63b8ff" points="748.62,-434.42 747.29,-423.91 741.78,-432.95 748.62,-434.42"/>
</a>
</g>
</g>
<!-- Node12 -->
<g id="Node000012" class="node">
<title>Node12</title>
<g id="a_Node000012"><a xlink:href="../../d7/d85/classlci_1_1post__put__x.html#a220f22ad49076dd1dbe975d750bebf4e" target="_top" xlink:title=" ">
<polygon fill="white" stroke="#666666" points="645.5,-589.3 509.5,-589.3 509.5,-570.3 645.5,-570.3 645.5,-589.3"/>
<text text-anchor="middle" x="577.5" y="-577.3" font-family="Helvetica,sans-Serif" font-size="10.00">lci::post_put_x::endpoint</text>
</a>
</g>
</g>
<!-- Node1&#45;&gt;Node12 -->
<g id="edge22_Node000001_Node000012" class="edge">
<title>Node1&#45;&gt;Node12</title>
<g id="a_edge22_Node000001_Node000012"><a xlink:title=" ">
<path fill="none" stroke="#63b8ff" d="M741.85,-433.73C729.39,-467.84 702.25,-528.49 658,-560.8 652.73,-564.65 646.78,-567.73 640.58,-570.19"/>
<polygon fill="#63b8ff" stroke="#63b8ff" points="745.24,-434.65 745.26,-424.06 738.64,-432.33 745.24,-434.65"/>
</a>
</g>
</g>
<!-- Node13 -->
<g id="Node000013" class="node">
<title>Node13</title>
<g id="a_Node000013"><a xlink:href="../../d7/d85/classlci_1_1post__put__x.html#a8d834babe24c1337fc4c9cf80e1a240f" target="_top" xlink:title=" ">
<polygon fill="white" stroke="#666666" points="636.5,-551.8 518.5,-551.8 518.5,-521.8 636.5,-521.8 636.5,-551.8"/>
<text text-anchor="start" x="526.5" y="-539.8" font-family="Helvetica,sans-Serif" font-size="10.00">lci::post_put_x::force</text>
<text text-anchor="middle" x="577.5" y="-528.8" font-family="Helvetica,sans-Serif" font-size="10.00">_zcopy</text>
</a>
</g>
</g>
<!-- Node1&#45;&gt;Node13 -->
<g id="edge25_Node000001_Node000013" class="edge">
<title>Node1&#45;&gt;Node13</title>
<g id="a_edge25_Node000001_Node000013"><a xlink:title=" ">
<path fill="none" stroke="#63b8ff" d="M735.01,-432.32C718.77,-455.95 690.76,-491.81 658,-512.8 651.44,-517 644.12,-520.5 636.64,-523.4"/>
<polygon fill="#63b8ff" stroke="#63b8ff" points="737.98,-434.17 740.64,-423.91 732.17,-430.27 737.98,-434.17"/>
</a>
</g>
</g>
<!-- Node14 -->
<g id="Node000014" class="node">
<title>Node14</title>
<g id="a_Node000014"><a xlink:href="../../d7/d85/classlci_1_1post__put__x.html#a58f72581ef272b40fd6e6d8e3abd0d41" target="_top" xlink:title=" ">
<polygon fill="white" stroke="#666666" points="635.5,-503.8 519.5,-503.8 519.5,-473.8 635.5,-473.8 635.5,-503.8"/>
<text text-anchor="start" x="527.5" y="-491.8" font-family="Helvetica,sans-Serif" font-size="10.00">lci::post_put_x::local</text>
<text text-anchor="middle" x="577.5" y="-480.8" font-family="Helvetica,sans-Serif" font-size="10.00">_buffer</text>
</a>
</g>
</g>
<!-- Node1&#45;&gt;Node14 -->
<g id="edge28_Node000001_Node000014" class="edge">
<title>Node1&#45;&gt;Node14</title>
<g id="a_edge28_Node000001_Node000014"><a xlink:title=" ">
<path fill="none" stroke="#63b8ff" d="M719.93,-429.78C702.45,-441.28 679.66,-455.12 658,-464.8 650.63,-468.09 642.68,-471.09 634.75,-473.77"/>
<polygon fill="#63b8ff" stroke="#63b8ff" points="722.19,-432.49 728.55,-424.02 718.29,-426.67 722.19,-432.49"/>
</a>
</g>
</g>
<!-- Node15 -->
<g id="Node000015" class="node">
<title>Node15</title>
<g id="a_Node000015"><a xlink:href="../../d7/d85/classlci_1_1post__put__x.html#ab566a71233e425c23cfe9b2d03e29c8c" target="_top" xlink:title=" ">
<polygon fill="white" stroke="#666666" points="652,-455.3 503,-455.3 503,-436.3 652,-436.3 652,-455.3"/>
<text text-anchor="middle" x="577.5" y="-443.3" font-family="Helvetica,sans-Serif" font-size="10.00">lci::post_put_x::local_comp</text>
</a>
</g>
</g>
<!-- Node1&#45;&gt;Node15 -->
<g id="edge31_Node000001_Node000015" class="edge">
<title>Node1&#45;&gt;Node15</title>
<g id="a_edge31_Node000001_Node000015"><a xlink:title=" ">
<path fill="none" stroke="#63b8ff" d="M683.9,-423.06C663.35,-427.49 641.21,-432.27 622.54,-436.3"/>
<polygon fill="#63b8ff" stroke="#63b8ff" points="684.81,-426.44 693.84,-420.91 683.33,-419.6 684.81,-426.44"/>
</a>
</g>
</g>
<!-- Node16 -->
<g id="Node000016" class="node">
<title>Node16</title>
<g id="a_Node000016"><a xlink:href="../../d7/d85/classlci_1_1post__put__x.html#ade34aae8efdd4222af3a16bf0dc5da18" target="_top" xlink:title=" ">
<polygon fill="white" stroke="#666666" points="631,-418.3 524,-418.3 524,-399.3 631,-399.3 631,-418.3"/>
<text text-anchor="middle" x="577.5" y="-406.3" font-family="Helvetica,sans-Serif" font-size="10.00">lci::post_put_x::mr</text>
</a>
</g>
</g>
<!-- Node1&#45;&gt;Node16 -->
<g id="edge34_Node000001_Node000016" class="edge">
<title>Node1&#45;&gt;Node16</title>
<g id="a_edge34_Node000001_Node000016"><a xlink:title=" ">
<path fill="none" stroke="#63b8ff" d="M683.71,-408.8C666.24,-408.8 647.63,-408.8 631,-408.8"/>
<polygon fill="#63b8ff" stroke="#63b8ff" points="683.84,-412.3 693.84,-408.8 683.84,-405.3 683.84,-412.3"/>
</a>
</g>
</g>
<!-- Node17 -->
<g id="Node000017" class="node">
<title>Node17</title>
<g id="a_Node000017"><a xlink:href="../../d7/d85/classlci_1_1post__put__x.html#a6197b81f323b36c577bb1632ddbf043a" target="_top" xlink:title=" ">
<polygon fill="white" stroke="#666666" points="653.5,-381.3 501.5,-381.3 501.5,-362.3 653.5,-362.3 653.5,-381.3"/>
<text text-anchor="middle" x="577.5" y="-369.3" font-family="Helvetica,sans-Serif" font-size="10.00">lci::post_put_x::packet_pool</text>
</a>
</g>
</g>
<!-- Node1&#45;&gt;Node17 -->
<g id="edge37_Node000001_Node000017" class="edge">
<title>Node1&#45;&gt;Node17</title>
<g id="a_edge37_Node000001_Node000017"><a xlink:title=" ">
<path fill="none" stroke="#63b8ff" d="M683.9,-394.54C663.35,-390.11 641.21,-385.33 622.54,-381.3"/>
<polygon fill="#63b8ff" stroke="#63b8ff" points="683.33,-398 693.84,-396.68 684.81,-391.15 683.33,-398"/>
</a>
</g>
</g>
<!-- Node18 -->
<g id="Node000018" class="node">
<title>Node18</title>
<g id="a_Node000018"><a xlink:href="../../d7/d85/classlci_1_1post__put__x.html#a14eb2ef67f761ab5ea877afe67212fca" target="_top" xlink:title=" ">
<polygon fill="white" stroke="#666666" points="635,-344.3 520,-344.3 520,-325.3 635,-325.3 635,-344.3"/>
<text text-anchor="middle" x="577.5" y="-332.3" font-family="Helvetica,sans-Serif" font-size="10.00">lci::post_put_x::rank</text>
</a>
</g>
</g>
<!-- Node1&#45;&gt;Node18 -->
<g id="edge40_Node000001_Node000018" class="edge">
<title>Node1&#45;&gt;Node18</title>
<g id="a_edge40_Node000001_Node000018"><a xlink:title=" ">
<path fill="none" stroke="#63b8ff" d="M720.44,-387.96C702.96,-376.48 680.01,-362.76 658,-353.8 648.8,-350.05 638.69,-346.93 628.85,-344.38"/>
<polygon fill="#63b8ff" stroke="#63b8ff" points="718.78,-391.07 729.04,-393.73 722.68,-385.26 718.78,-391.07"/>
</a>
</g>
</g>
<!-- Node19 -->
<g id="Node000019" class="node">
<title>Node19</title>
<g id="a_Node000019"><a xlink:href="../../d7/d85/classlci_1_1post__put__x.html#a982c74e0cc559c2e2d3e33fe59b0761b" target="_top" xlink:title=" ">
<polygon fill="white" stroke="#666666" points="643,-307.3 512,-307.3 512,-288.3 643,-288.3 643,-307.3"/>
<text text-anchor="middle" x="577.5" y="-295.3" font-family="Helvetica,sans-Serif" font-size="10.00">lci::post_put_x::rbuffers</text>
</a>
</g>
</g>
<!-- Node1&#45;&gt;Node19 -->
<g id="edge43_Node000001_Node000019" class="edge">
<title>Node1&#45;&gt;Node19</title>
<g id="a_edge43_Node000001_Node000019"><a xlink:title=" ">
<path fill="none" stroke="#63b8ff" d="M732.79,-385.35C716.04,-364.23 688.67,-333.95 658,-316.8 651.06,-312.92 643.36,-309.83 635.55,-307.37"/>
<polygon fill="#63b8ff" stroke="#63b8ff" points="730.21,-387.73 739.09,-393.5 735.74,-383.45 730.21,-387.73"/>
</a>
</g>
</g>
<!-- Node20 -->
<g id="Node000020" class="node">
<title>Node20</title>
<g id="a_Node000020"><a xlink:href="../../d7/d85/classlci_1_1post__put__x.html#ade9717efe47757e92549b22b50bb6d14" target="_top" xlink:title=" ">
<polygon fill="white" stroke="#666666" points="641.5,-269.8 513.5,-269.8 513.5,-239.8 641.5,-239.8 641.5,-269.8"/>
<text text-anchor="start" x="521.5" y="-257.8" font-family="Helvetica,sans-Serif" font-size="10.00">lci::post_put_x::remote</text>
<text text-anchor="middle" x="577.5" y="-246.8" font-family="Helvetica,sans-Serif" font-size="10.00">_buffer</text>
</a>
</g>
</g>
<!-- Node1&#45;&gt;Node20 -->
<g id="edge46_Node000001_Node000020" class="edge">
<title>Node1&#45;&gt;Node20</title>
<g id="a_edge46_Node000001_Node000020"><a xlink:title=" ">
<path fill="none" stroke="#63b8ff" d="M738.82,-384.57C724.23,-355.54 696,-307.39 658,-279.8 652.73,-275.97 646.86,-272.72 640.76,-269.96"/>
<polygon fill="#63b8ff" stroke="#63b8ff" points="735.71,-386.17 743.24,-393.62 742,-383.1 735.71,-386.17"/>
</a>
</g>
</g>
<!-- Node21 -->
<g id="Node000021" class="node">
<title>Node21</title>
<g id="a_Node000021"><a xlink:href="../../d7/d85/classlci_1_1post__put__x.html#ad4bc08cb1aef1932ac79961748f76dd2" target="_top" xlink:title=" ">
<polygon fill="white" stroke="#666666" points="658,-221.3 497,-221.3 497,-202.3 658,-202.3 658,-221.3"/>
<text text-anchor="middle" x="577.5" y="-209.3" font-family="Helvetica,sans-Serif" font-size="10.00">lci::post_put_x::remote_comp</text>
</a>
</g>
</g>
<!-- Node1&#45;&gt;Node21 -->
<g id="edge49_Node000001_Node000021" class="edge">
<title>Node1&#45;&gt;Node21</title>
<g id="a_edge49_Node000001_Node000021"><a xlink:title=" ">
<path fill="none" stroke="#63b8ff" d="M744.18,-383.67C733.8,-344.73 708.33,-270.19 658,-230.8 653.08,-226.95 647.51,-223.86 641.65,-221.39"/>
<polygon fill="#63b8ff" stroke="#63b8ff" points="740.86,-384.82 746.71,-393.65 747.64,-383.1 740.86,-384.82"/>
</a>
</g>
</g>
<!-- Node22 -->
<g id="Node000022" class="node">
<title>Node22</title>
<g id="a_Node000022"><a xlink:href="../../d7/d85/classlci_1_1post__put__x.html#a53029bec1a2505722aa7d5db729993ce" target="_top" xlink:title=" ">
<polygon fill="white" stroke="#666666" points="634.5,-184.3 520.5,-184.3 520.5,-165.3 634.5,-165.3 634.5,-184.3"/>
<text text-anchor="middle" x="577.5" y="-172.3" font-family="Helvetica,sans-Serif" font-size="10.00">lci::post_put_x::rkey</text>
</a>
</g>
</g>
<!-- Node1&#45;&gt;Node22 -->
<g id="edge52_Node000001_Node000022" class="edge">
<title>Node1&#45;&gt;Node22</title>
<g id="a_edge52_Node000001_Node000022"><a xlink:title=" ">
<path fill="none" stroke="#63b8ff" d="M746.6,-383.43C739.16,-338.18 717.07,-243.61 658,-193.8 651.27,-188.13 643.14,-184.09 634.68,-181.22"/>
<polygon fill="#63b8ff" stroke="#63b8ff" points="743.18,-384.21 748.16,-393.57 750.1,-383.15 743.18,-384.21"/>
</a>
</g>
</g>
<!-- Node23 -->
<g id="Node000023" class="node">
<title>Node23</title>
<g id="a_Node000023"><a xlink:href="../../d7/d85/classlci_1_1post__put__x.html#a1b9f0551ed3b7e0b726a15b8c4eb7315" target="_top" xlink:title=" ">
<polygon fill="white" stroke="#666666" points="643,-147.3 512,-147.3 512,-128.3 643,-128.3 643,-147.3"/>
<text text-anchor="middle" x="577.5" y="-135.3" font-family="Helvetica,sans-Serif" font-size="10.00">lci::post_put_x::runtime</text>
</a>
</g>
</g>
<!-- Node1&#45;&gt;Node23 -->
<g id="edge55_Node000001_Node000023" class="edge">
<title>Node1&#45;&gt;Node23</title>
<g id="a_edge55_Node000001_Node000023"><a xlink:title=" ">
<path fill="none" stroke="#63b8ff" d="M748.42,-383.49C743.82,-332.56 726.04,-217.41 658,-156.8 653.66,-152.93 648.66,-149.81 643.34,-147.3"/>
<polygon fill="#63b8ff" stroke="#63b8ff" points="744.94,-383.93 749.23,-393.61 751.92,-383.37 744.94,-383.93"/>
</a>
</g>
</g>
<!-- Node24 -->
<g id="Node000024" class="node">
<title>Node24</title>
<g id="a_Node000024"><a xlink:href="../../d7/d85/classlci_1_1post__put__x.html#a8e4a92835eb5373cd0c4a8f7d052ba3a" target="_top" xlink:title=" ">
<polygon fill="white" stroke="#666666" points="634,-110.3 521,-110.3 521,-91.3 634,-91.3 634,-110.3"/>
<text text-anchor="middle" x="577.5" y="-98.3" font-family="Helvetica,sans-Serif" font-size="10.00">lci::post_put_x::size</text>
</a>
</g>
</g>
<!-- Node1&#45;&gt;Node24 -->
<g id="edge58_Node000001_Node000024" class="edge">
<title>Node1&#45;&gt;Node24</title>
<g id="a_edge58_Node000001_Node000024"><a xlink:title=" ">
<path fill="none" stroke="#63b8ff" d="M749.79,-383.39C747.87,-327.12 735.03,-191.36 658,-119.8 651.35,-113.62 643.05,-109.34 634.35,-106.4"/>
<polygon fill="#63b8ff" stroke="#63b8ff" points="746.29,-383.63 750.04,-393.54 753.29,-383.45 746.29,-383.63"/>
</a>
</g>
</g>
<!-- Node25 -->
<g id="Node000025" class="node">
<title>Node25</title>
<g id="a_Node000025"><a xlink:href="../../d7/d85/classlci_1_1post__put__x.html#a763b19426bad9e0c38a368006cd9bdc6" target="_top" xlink:title=" ">
<polygon fill="white" stroke="#666666" points="632,-73.3 523,-73.3 523,-54.3 632,-54.3 632,-73.3"/>
<text text-anchor="middle" x="577.5" y="-61.3" font-family="Helvetica,sans-Serif" font-size="10.00">lci::post_put_x::tag</text>
</a>
</g>
</g>
<!-- Node1&#45;&gt;Node25 -->
<g id="edge61_Node000001_Node000025" class="edge">
<title>Node1&#45;&gt;Node25</title>
<g id="a_edge61_Node000001_Node000025"><a xlink:title=" ">
<path fill="none" stroke="#63b8ff" d="M750.88,-383.18C751.49,-321.83 744.05,-165.44 658,-82.8 650.84,-75.92 641.64,-71.38 632.07,-68.42"/>
<polygon fill="#63b8ff" stroke="#63b8ff" points="747.37,-383.43 750.68,-393.49 754.37,-383.56 747.37,-383.43"/>
</a>
</g>
</g>
<!-- Node26 -->
<g id="Node000026" class="node">
<title>Node26</title>
<g id="a_Node000026"><a xlink:href="../../d7/d85/classlci_1_1post__put__x.html#a0b3a2ef72e0d53ef059b56ba1db406ae" target="_top" xlink:title=" ">
<polygon fill="white" stroke="#666666" points="634.5,-35.8 520.5,-35.8 520.5,-5.8 634.5,-5.8 634.5,-35.8"/>
<text text-anchor="start" x="528.5" y="-23.8" font-family="Helvetica,sans-Serif" font-size="10.00">lci::post_put_x::user</text>
<text text-anchor="middle" x="577.5" y="-12.8" font-family="Helvetica,sans-Serif" font-size="10.00">_context</text>
</a>
</g>
</g>
<!-- Node1&#45;&gt;Node26 -->
<g id="edge64_Node000001_Node000026" class="edge">
<title>Node1&#45;&gt;Node26</title>
<g id="a_edge64_Node000001_Node000026"><a xlink:title=" ">
<path fill="none" stroke="#63b8ff" d="M746.83,-383.29C737.1,-308.92 705.43,-94.45 658,-44.8 651.63,-38.13 643.47,-33.29 634.82,-29.79"/>
<polygon fill="#63b8ff" stroke="#63b8ff" points="743.41,-384.12 748.15,-393.59 750.35,-383.23 743.41,-384.12"/>
</a>
</g>
</g>
<!-- Node3 -->
<g id="Node000003" class="node">
<title>Node3</title>
<g id="a_Node000003"><a xlink:href="../../d7/d85/classlci_1_1post__put__x.html#a8e042fb4a730b203593842d84209a739" target="_top" xlink:title=" ">
<polygon fill="white" stroke="#666666" points="288,-431.3 178,-431.3 178,-412.3 288,-412.3 288,-431.3"/>
<text text-anchor="middle" x="233" y="-419.3" font-family="Helvetica,sans-Serif" font-size="10.00">lci::post_put_x::call</text>
</a>
</g>
</g>
<!-- Node2&#45;&gt;Node3 -->
<g id="edge2_Node000002_Node000003" class="edge">
<title>Node2&#45;&gt;Node3</title>
<g id="a_edge2_Node000002_Node000003"><a xlink:title=" ">
<path fill="none" stroke="#63b8ff" d="M492.84,-835.31C437.67,-829.83 367.78,-813.56 324,-768.8 274.39,-718.08 241.76,-482.46 235.21,-431.52"/>
<polygon fill="#63b8ff" stroke="#63b8ff" points="492.68,-838.81 502.95,-836.22 493.3,-831.84 492.68,-838.81"/>
</a>
</g>
</g>
<!-- Node6 -->
<g id="Node000006" class="node">
<title>Node6</title>
<g id="a_Node000006"><a xlink:href="../../d7/d85/classlci_1_1post__put__x.html#ad8059da8f0967fdd9a84351fc7fceb19" target="_top" xlink:title=" ">
<polygon fill="white" stroke="#666666" points="461,-450.3 324,-450.3 324,-431.3 461,-431.3 461,-450.3"/>
<text text-anchor="middle" x="392.5" y="-438.3" font-family="Helvetica,sans-Serif" font-size="10.00">lci::post_put_x::call_impl</text>
</a>
</g>
</g>
<!-- Node2&#45;&gt;Node6 -->
<g id="edge5_Node000002_Node000006" class="edge">
<title>Node2&#45;&gt;Node6</title>
<g id="a_edge5_Node000002_Node000006"><a xlink:title=" ">
<path fill="none" stroke="#63b8ff" d="M501.73,-821.83C500.07,-820.58 498.49,-819.24 497,-817.8 441.02,-763.65 402.23,-503.6 394.8,-450.34"/>
<polygon fill="#63b8ff" stroke="#63b8ff" points="500.2,-825 510.55,-827.28 503.88,-819.04 500.2,-825"/>
</a>
</g>
</g>
<!-- Node4 -->
<g id="Node000004" class="node">
<title>Node4</title>
<g id="a_Node000004"><a xlink:href="../../d7/d85/classlci_1_1post__put__x.html#a0e3d3681f9cc91b3d8e6417ad82f5916" target="_top" xlink:title=" ">
<polygon fill="white" stroke="#666666" points="142,-450.3 0,-450.3 0,-431.3 142,-431.3 142,-450.3"/>
<text text-anchor="middle" x="71" y="-438.3" font-family="Helvetica,sans-Serif" font-size="10.00">lci::post_put_x::operator()</text>
</a>
</g>
</g>
<!-- Node3&#45;&gt;Node4 -->
<g id="edge3_Node000003_Node000004" class="edge">
<title>Node3&#45;&gt;Node4</title>
<g id="a_edge3_Node000003_Node000004"><a xlink:title=" ">
<path fill="none" stroke="#63b8ff" d="M167.75,-429.43C159.37,-430.42 150.75,-431.45 142.28,-432.45"/>
<polygon fill="#63b8ff" stroke="#63b8ff" points="168.31,-432.89 177.83,-428.23 167.49,-425.94 168.31,-432.89"/>
</a>
</g>
</g>
<!-- Node5 -->
<g id="Node000005" class="node">
<title>Node5</title>
<g id="a_Node000005"><a xlink:href="../../d5/dd3/namespacelci.html#a14525f583c3c07caa57ca4571814f870" target="_top" xlink:title=" ">
<polygon fill="white" stroke="#666666" points="109,-413.3 33,-413.3 33,-394.3 109,-394.3 109,-413.3"/>
<text text-anchor="middle" x="71" y="-401.3" font-family="Helvetica,sans-Serif" font-size="10.00">lci::post_put</text>
</a>
</g>
</g>
<!-- Node3&#45;&gt;Node5 -->
<g id="edge4_Node000003_Node000005" class="edge">
<title>Node3&#45;&gt;Node5</title>
<g id="a_edge4_Node000003_Node000005"><a xlink:title=" ">
<path fill="none" stroke="#63b8ff" d="M167.64,-414.56C147.88,-412.34 126.79,-409.96 109.46,-408.01"/>
<polygon fill="#63b8ff" stroke="#63b8ff" points="167.5,-418.06 177.83,-415.7 168.29,-411.11 167.5,-418.06"/>
</a>
</g>
</g>
<!-- Node6&#45;&gt;Node3 -->
<g id="edge6_Node000006_Node000003" class="edge">
<title>Node6&#45;&gt;Node3</title>
<g id="a_edge6_Node000006_Node000003"><a xlink:title=" ">
<path fill="none" stroke="#63b8ff" d="M313.75,-431.42C305.16,-430.38 296.56,-429.35 288.35,-428.36"/>
<polygon fill="#63b8ff" stroke="#63b8ff" points="313.44,-434.91 323.79,-432.63 314.28,-427.96 313.44,-434.91"/>
</a>
</g>
</g>
<!-- Node7&#45;&gt;Node3 -->
<g id="edge8_Node000007_Node000003" class="edge">
<title>Node7&#45;&gt;Node3</title>
<g id="a_edge8_Node000007_Node000003"><a xlink:title=" ">
<path fill="none" stroke="#63b8ff" d="M507.45,-792.62C450.96,-787.95 372.7,-772.44 324,-724.8 236.52,-639.22 233.16,-472.82 233.74,-431.34"/>
<polygon fill="#63b8ff" stroke="#63b8ff" points="507.5,-796.13 517.73,-793.37 508.01,-789.15 507.5,-796.13"/>
</a>
</g>
</g>
<!-- Node7&#45;&gt;Node6 -->
<g id="edge9_Node000007_Node000006" class="edge">
<title>Node7&#45;&gt;Node6</title>
<g id="a_edge9_Node000007_Node000006"><a xlink:title=" ">
<path fill="none" stroke="#63b8ff" d="M508.64,-778.7C504.41,-776.17 500.47,-773.23 497,-769.8 401.61,-675.51 393.91,-494.34 393.48,-450.52"/>
<polygon fill="#63b8ff" stroke="#63b8ff" points="507.17,-781.87 517.66,-783.31 510.35,-775.64 507.17,-781.87"/>
</a>
</g>
</g>
<!-- Node8&#45;&gt;Node3 -->
<g id="edge11_Node000008_Node000003" class="edge">
<title>Node8&#45;&gt;Node3</title>
<g id="a_edge11_Node000008_Node000003"><a xlink:title=" ">
<path fill="none" stroke="#63b8ff" d="M507.56,-745.85C451.5,-742.24 373.79,-728.41 324,-682.8 246.07,-611.41 235.62,-469.37 234.22,-431.35"/>
<polygon fill="#63b8ff" stroke="#63b8ff" points="507.59,-749.35 517.77,-746.41 507.97,-742.36 507.59,-749.35"/>
</a>
</g>
</g>
<!-- Node8&#45;&gt;Node6 -->
<g id="edge12_Node000008_Node000006" class="edge">
<title>Node8&#45;&gt;Node6</title>
<g id="a_edge12_Node000008_Node000006"><a xlink:title=" ">
<path fill="none" stroke="#63b8ff" d="M508.83,-730.5C504.55,-728.03 500.55,-725.14 497,-721.8 413.18,-642.84 396.92,-490.15 394.07,-450.43"/>
<polygon fill="#63b8ff" stroke="#63b8ff" points="507.4,-733.71 517.91,-735.05 510.54,-727.45 507.4,-733.71"/>
</a>
</g>
</g>
<!-- Node9&#45;&gt;Node3 -->
<g id="edge14_Node000009_Node000003" class="edge">
<title>Node9&#45;&gt;Node3</title>
<g id="a_edge14_Node000009_Node000003"><a xlink:title=" ">
<path fill="none" stroke="#63b8ff" d="M503.73,-702.43C448.46,-698.43 373.73,-684.57 324,-641.8 256.11,-583.41 238.65,-465.93 234.9,-431.5"/>
<polygon fill="#63b8ff" stroke="#63b8ff" points="503.61,-705.93 513.81,-703.06 504.05,-698.94 503.61,-705.93"/>
</a>
</g>
</g>
<!-- Node9&#45;&gt;Node6 -->
<g id="edge15_Node000009_Node000006" class="edge">
<title>Node9&#45;&gt;Node6</title>
<g id="a_edge15_Node000009_Node000006"><a xlink:title=" ">
<path fill="none" stroke="#63b8ff" d="M504.74,-689.31C502.01,-687.67 499.42,-685.84 497,-683.8 420.28,-619 399.08,-487.23 394.55,-450.5"/>
<polygon fill="#63b8ff" stroke="#63b8ff" points="503.34,-692.52 513.85,-693.92 506.51,-686.28 503.34,-692.52"/>
</a>
</g>
</g>
<!-- Node10&#45;&gt;Node3 -->
<g id="edge17_Node000010_Node000003" class="edge">
<title>Node10&#45;&gt;Node3</title>
<g id="a_edge17_Node000010_Node000003"><a xlink:title=" ">
<path fill="none" stroke="#63b8ff" d="M507.31,-659.5C452.34,-655.87 376.25,-642.9 324,-601.8 265.51,-555.79 242.04,-461.73 235.81,-431.43"/>
<polygon fill="#63b8ff" stroke="#63b8ff" points="507.14,-662.99 517.32,-660.07 507.54,-656.01 507.14,-662.99"/>
</a>
</g>
</g>
<!-- Node10&#45;&gt;Node6 -->
<g id="edge18_Node000010_Node000006" class="edge">
<title>Node10&#45;&gt;Node6</title>
<g id="a_edge18_Node000010_Node000006"><a xlink:title=" ">
<path fill="none" stroke="#63b8ff" d="M508.3,-643.39C504.29,-641.17 500.48,-638.66 497,-635.8 433.64,-583.72 403.88,-482.44 395.83,-450.62"/>
<polygon fill="#63b8ff" stroke="#63b8ff" points="506.83,-646.57 517.35,-647.79 509.88,-640.27 506.83,-646.57"/>
</a>
</g>
</g>
<!-- Node11&#45;&gt;Node3 -->
<g id="edge20_Node000011_Node000003" class="edge">
<title>Node11&#45;&gt;Node3</title>
<g id="a_edge20_Node000011_Node000003"><a xlink:title=" ">
<path fill="none" stroke="#63b8ff" d="M504.71,-616.76C450.69,-613.45 377.13,-601.63 324,-564.8 273.85,-530.04 245.78,-457.36 237.02,-431.33"/>
<polygon fill="#63b8ff" stroke="#63b8ff" points="504.73,-620.27 514.9,-617.3 505.1,-613.28 504.73,-620.27"/>
</a>
</g>
</g>
<!-- Node11&#45;&gt;Node6 -->
<g id="edge21_Node000011_Node000006" class="edge">
<title>Node11&#45;&gt;Node6</title>
<g id="a_edge21_Node000011_Node000006"><a xlink:title=" ">
<path fill="none" stroke="#63b8ff" d="M505.65,-603.92C502.63,-602.4 499.73,-600.7 497,-598.8 440.43,-559.53 407.02,-478.37 396.84,-450.47"/>
<polygon fill="#63b8ff" stroke="#63b8ff" points="504.41,-607.2 514.98,-607.98 507.21,-600.78 504.41,-607.2"/>
</a>
</g>
</g>
<!-- Node12&#45;&gt;Node3 -->
<g id="edge23_Node000012_Node000003" class="edge">
<title>Node12&#45;&gt;Node3</title>
<g id="a_edge23_Node000012_Node000003"><a xlink:title=" ">
<path fill="none" stroke="#63b8ff" d="M499.14,-577.82C446.54,-573.4 377.14,-561.35 324,-529.8 282.03,-504.88 250.7,-452.98 239.01,-431.46"/>
<polygon fill="#63b8ff" stroke="#63b8ff" points="499.18,-581.33 509.42,-578.6 499.72,-574.35 499.18,-581.33"/>
</a>
</g>
</g>
<!-- Node12&#45;&gt;Node6 -->
<g id="edge24_Node000012_Node000006" class="edge">
<title>Node12&#45;&gt;Node6</title>
<g id="a_edge24_Node000012_Node000006"><a xlink:title=" ">
<path fill="none" stroke="#63b8ff" d="M508.45,-566.66C504.46,-564.94 500.61,-563 497,-560.8 449.3,-531.76 412.17,-473.32 398.84,-450.37"/>
<polygon fill="#63b8ff" stroke="#63b8ff" points="507.34,-569.99 517.93,-570.28 509.84,-563.45 507.34,-569.99"/>
</a>
</g>
</g>
<!-- Node13&#45;&gt;Node3 -->
<g id="edge26_Node000013_Node000003" class="edge">
<title>Node13&#45;&gt;Node3</title>
<g id="a_edge26_Node000013_Node000003"><a xlink:title=" ">
<path fill="none" stroke="#63b8ff" d="M508.28,-537.06C455.73,-534.89 382.43,-526.58 324,-499.8 288.29,-483.43 256.01,-448.39 241.74,-431.41"/>
<polygon fill="#63b8ff" stroke="#63b8ff" points="508.38,-540.57 518.5,-537.42 508.63,-533.57 508.38,-540.57"/>
</a>
</g>
</g>
<!-- Node13&#45;&gt;Node6 -->
<g id="edge27_Node000013_Node000006" class="edge">
<title>Node13&#45;&gt;Node6</title>
<g id="a_edge27_Node000013_Node000006"><a xlink:title=" ">
<path fill="none" stroke="#63b8ff" d="M509.39,-518.22C505.14,-516.53 500.98,-514.72 497,-512.8 460.74,-495.26 423.14,-465.74 404.85,-450.52"/>
<polygon fill="#63b8ff" stroke="#63b8ff" points="508.2,-521.51 518.79,-521.74 510.65,-514.95 508.2,-521.51"/>
</a>
</g>
</g>
<!-- Node14&#45;&gt;Node3 -->
<g id="edge29_Node000014_Node000003" class="edge">
<title>Node14&#45;&gt;Node3</title>
<g id="a_edge29_Node000014_Node000003"><a xlink:title=" ">
<path fill="none" stroke="#63b8ff" d="M509.39,-494.53C457.6,-496.85 384.76,-495.46 324,-476.8 292.84,-467.23 261.5,-444.38 245.3,-431.34"/>
<polygon fill="#63b8ff" stroke="#63b8ff" points="509.65,-498.02 519.46,-494.02 509.3,-491.03 509.65,-498.02"/>
</a>
</g>
</g>
<!-- Node14&#45;&gt;Node6 -->
<g id="edge30_Node000014_Node000006" class="edge">
<title>Node14&#45;&gt;Node6</title>
<g id="a_edge30_Node000014_Node000006"><a xlink:title=" ">
<path fill="none" stroke="#63b8ff" d="M509.57,-471.24C482.6,-464.17 452.55,-456.29 429.79,-450.32"/>
<polygon fill="#63b8ff" stroke="#63b8ff" points="508.79,-474.66 519.35,-473.81 510.57,-467.89 508.79,-474.66"/>
</a>
</g>
</g>
<!-- Node15&#45;&gt;Node3 -->
<g id="edge32_Node000015_Node000003" class="edge">
<title>Node15&#45;&gt;Node3</title>
<g id="a_edge32_Node000015_Node000003"><a xlink:title=" ">
<path fill="none" stroke="#63b8ff" d="M519.97,-457.05C468.4,-465.4 390.36,-473.23 324,-459.8 297.24,-454.38 268.54,-440.75 250.93,-431.38"/>
<polygon fill="#63b8ff" stroke="#63b8ff" points="520.63,-460.49 529.92,-455.38 519.47,-453.58 520.63,-460.49"/>
</a>
</g>
</g>
<!-- Node15&#45;&gt;Node6 -->
<g id="edge33_Node000015_Node000006" class="edge">
<title>Node15&#45;&gt;Node6</title>
<g id="a_edge33_Node000015_Node000006"><a xlink:title=" ">
<path fill="none" stroke="#63b8ff" d="M492.75,-443.51C482.14,-443.22 471.39,-442.93 461.07,-442.65"/>
<polygon fill="#63b8ff" stroke="#63b8ff" points="492.77,-447.01 502.86,-443.79 492.96,-440.01 492.77,-447.01"/>
</a>
</g>
</g>
<!-- Node16&#45;&gt;Node3 -->
<g id="edge35_Node000016_Node000003" class="edge">
<title>Node16&#45;&gt;Node3</title>
<g id="a_edge35_Node000016_Node000003"><a xlink:title=" ">
<path fill="none" stroke="#63b8ff" d="M513.68,-411.18C449.08,-413.64 349.51,-417.41 288.24,-419.74"/>
<polygon fill="#63b8ff" stroke="#63b8ff" points="513.87,-414.68 523.73,-410.8 513.61,-407.68 513.87,-414.68"/>
</a>
</g>
</g>
<!-- Node16&#45;&gt;Node6 -->
<g id="edge36_Node000016_Node000006" class="edge">
<title>Node16&#45;&gt;Node6</title>
<g id="a_edge36_Node000016_Node000006"><a xlink:title=" ">
<path fill="none" stroke="#63b8ff" d="M513.61,-419.8C492.24,-423.53 468.55,-427.68 447.9,-431.29"/>
<polygon fill="#63b8ff" stroke="#63b8ff" points="514.32,-423.22 523.57,-418.05 513.12,-416.33 514.32,-423.22"/>
</a>
</g>
</g>
<!-- Node17&#45;&gt;Node3 -->
<g id="edge38_Node000017_Node000003" class="edge">
<title>Node17&#45;&gt;Node3</title>
<g id="a_edge38_Node000017_Node000003"><a xlink:title=" ">
<path fill="none" stroke="#63b8ff" d="M501.16,-382.8C436.68,-392.21 345.43,-405.53 288,-413.92"/>
<polygon fill="#63b8ff" stroke="#63b8ff" points="501.88,-386.23 511.27,-381.32 500.87,-379.3 501.88,-386.23"/>
</a>
</g>
</g>
<!-- Node17&#45;&gt;Node6 -->
<g id="edge39_Node000017_Node000006" class="edge">
<title>Node17&#45;&gt;Node6</title>
<g id="a_edge39_Node000017_Node000006"><a xlink:title=" ">
<path fill="none" stroke="#63b8ff" d="M519.11,-383.95C511.6,-385.99 504.06,-388.28 497,-390.8 465.42,-402.05 430.71,-420.07 410.59,-431.13"/>
<polygon fill="#63b8ff" stroke="#63b8ff" points="520.13,-387.3 528.93,-381.4 518.37,-380.53 520.13,-387.3"/>
</a>
</g>
</g>
<!-- Node18&#45;&gt;Node3 -->
<g id="edge41_Node000018_Node000003" class="edge">
<title>Node18&#45;&gt;Node3</title>
<g id="a_edge41_Node000018_Node000003"><a xlink:title=" ">
<path fill="none" stroke="#63b8ff" d="M509.83,-344.37C458.41,-352.61 385.87,-366.15 324,-384.8 299.25,-392.26 271.94,-404.02 253.97,-412.27"/>
<polygon fill="#63b8ff" stroke="#63b8ff" points="510.49,-347.81 519.82,-342.79 509.4,-340.89 510.49,-347.81"/>
</a>
</g>
</g>
<!-- Node18&#45;&gt;Node6 -->
<g id="edge42_Node000018_Node000006" class="edge">
<title>Node18&#45;&gt;Node6</title>
<g id="a_edge42_Node000018_Node000006"><a xlink:title=" ">
<path fill="none" stroke="#63b8ff" d="M511.61,-347.6C506.56,-349.41 501.63,-351.46 497,-353.8 456.54,-374.19 418.26,-413.28 401.87,-431.29"/>
<polygon fill="#63b8ff" stroke="#63b8ff" points="512.99,-350.83 521.43,-344.42 510.83,-344.17 512.99,-350.83"/>
</a>
</g>
</g>
<!-- Node19&#45;&gt;Node3 -->
<g id="edge44_Node000019_Node000003" class="edge">
<title>Node19&#45;&gt;Node3</title>
<g id="a_edge44_Node000019_Node000003"><a xlink:title=" ">
<path fill="none" stroke="#63b8ff" d="M501.7,-303.42C449.83,-309.54 380.23,-322.3 324,-348.8 289.97,-364.84 257.63,-396.4 242.67,-412.24"/>
<polygon fill="#63b8ff" stroke="#63b8ff" points="502.29,-306.87 511.83,-302.28 501.51,-299.92 502.29,-306.87"/>
</a>
</g>
</g>
<!-- Node19&#45;&gt;Node6 -->
<g id="edge45_Node000019_Node000006" class="edge">
<title>Node19&#45;&gt;Node6</title>
<g id="a_edge45_Node000019_Node000006"><a xlink:title=" ">
<path fill="none" stroke="#63b8ff" d="M507.86,-311.11C504.08,-312.78 500.43,-314.67 497,-316.8 448.38,-346.94 411.52,-407.78 398.56,-431.26"/>
<polygon fill="#63b8ff" stroke="#63b8ff" points="509.41,-314.26 517.46,-307.36 506.87,-307.74 509.41,-314.26"/>
</a>
</g>
</g>
<!-- Node20&#45;&gt;Node3 -->
<g id="edge47_Node000020_Node000003" class="edge">
<title>Node20&#45;&gt;Node3</title>
<g id="a_edge47_Node000020_Node000003"><a xlink:title=" ">
<path fill="none" stroke="#63b8ff" d="M503.33,-255.79C450.04,-259.57 378.05,-271.27 324,-304.8 280.01,-332.09 249.41,-389.16 238.45,-412.02"/>
<polygon fill="#63b8ff" stroke="#63b8ff" points="503.63,-259.27 513.39,-255.15 503.18,-252.29 503.63,-259.27"/>
</a>
</g>
</g>
<!-- Node20&#45;&gt;Node6 -->
<g id="edge48_Node000020_Node000006" class="edge">
<title>Node20&#45;&gt;Node6</title>
<g id="a_edge48_Node000020_Node000006"><a xlink:title=" ">
<path fill="none" stroke="#63b8ff" d="M504.74,-274.59C502.04,-276.19 499.45,-277.93 497,-279.8 441.54,-322.14 407.42,-403.36 396.95,-431.17"/>
<polygon fill="#63b8ff" stroke="#63b8ff" points="506.44,-277.65 513.65,-269.89 503.17,-271.46 506.44,-277.65"/>
</a>
</g>
</g>
<!-- Node21&#45;&gt;Node3 -->
<g id="edge50_Node000021_Node000003" class="edge">
<title>Node21&#45;&gt;Node3</title>
<g id="a_edge50_Node000021_Node000003"><a xlink:title=" ">
<path fill="none" stroke="#63b8ff" d="M486.6,-209.23C434.74,-212.01 370.75,-223.14 324,-256.8 268.12,-297.02 243.21,-383.03 236.19,-412.02"/>
<polygon fill="#63b8ff" stroke="#63b8ff" points="486.97,-212.72 496.8,-208.79 486.66,-205.73 486.97,-212.72"/>
</a>
</g>
</g>
<!-- Node21&#45;&gt;Node6 -->
<g id="edge51_Node000021_Node000006" class="edge">
<title>Node21&#45;&gt;Node6</title>
<g id="a_edge51_Node000021_Node000006"><a xlink:title=" ">
<path fill="none" stroke="#63b8ff" d="M503.6,-226.22C501.3,-227.61 499.09,-229.13 497,-230.8 428.39,-285.58 401.88,-397.42 395.27,-431.03"/>
<polygon fill="#63b8ff" stroke="#63b8ff" points="505.57,-229.14 512.88,-221.46 502.38,-222.91 505.57,-229.14"/>
</a>
</g>
</g>
<!-- Node22&#45;&gt;Node3 -->
<g id="edge53_Node000022_Node000003" class="edge">
<title>Node22&#45;&gt;Node3</title>
<g id="a_edge53_Node000022_Node000003"><a xlink:title=" ">
<path fill="none" stroke="#63b8ff" d="M510.3,-166.12C455.03,-162.55 376.98,-166.51 324,-206.8 254.11,-259.95 238.04,-377.48 234.76,-412.05"/>
<polygon fill="#63b8ff" stroke="#63b8ff" points="510.12,-169.62 520.35,-166.87 510.64,-162.64 510.12,-169.62"/>
</a>
</g>
</g>
<!-- Node22&#45;&gt;Node6 -->
<g id="edge54_Node000022_Node000006" class="edge">
<title>Node22&#45;&gt;Node6</title>
<g id="a_edge54_Node000022_Node000006"><a xlink:title=" ">
<path fill="none" stroke="#63b8ff" d="M510.97,-184.93C505.93,-187.32 501.19,-190.24 497,-193.8 419.23,-259.88 398.73,-394.23 394.47,-431.2"/>
<polygon fill="#63b8ff" stroke="#63b8ff" points="512.31,-188.16 520.28,-181.18 509.7,-181.67 512.31,-188.16"/>
</a>
</g>
</g>
<!-- Node23&#45;&gt;Node3 -->
<g id="edge56_Node000023_Node000003" class="edge">
<title>Node23&#45;&gt;Node3</title>
<g id="a_edge56_Node000023_Node000003"><a xlink:title=" ">
<path fill="none" stroke="#63b8ff" d="M520.52,-126.82C464.75,-119.24 379.61,-117.21 324,-160.8 240.63,-226.14 234.13,-373.18 233.91,-412.16"/>
<polygon fill="#63b8ff" stroke="#63b8ff" points="520.18,-130.31 530.58,-128.29 521.2,-123.38 520.18,-130.31"/>
</a>
</g>
</g>
<!-- Node23&#45;&gt;Node6 -->
<g id="edge57_Node000023_Node000006" class="edge">
<title>Node23&#45;&gt;Node6</title>
<g id="a_edge57_Node000023_Node000006"><a xlink:title=" ">
<path fill="none" stroke="#63b8ff" d="M502.59,-152.44C500.64,-153.78 498.76,-155.23 497,-156.8 410.03,-234.31 396.06,-390.96 393.89,-431.2"/>
<polygon fill="#63b8ff" stroke="#63b8ff" points="504.69,-155.28 511.66,-147.3 501.23,-149.19 504.69,-155.28"/>
</a>
</g>
</g>
<!-- Node24&#45;&gt;Node3 -->
<g id="edge59_Node000024_Node000003" class="edge">
<title>Node24&#45;&gt;Node3</title>
<g id="a_edge59_Node000024_Node000003"><a xlink:title=" ">
<path fill="none" stroke="#63b8ff" d="M528.9,-89.27C473.42,-78.85 381.96,-71.4 324,-117.8 275.34,-156.76 242.33,-364.75 235.37,-412.17"/>
<polygon fill="#63b8ff" stroke="#63b8ff" points="528.34,-92.73 538.83,-91.24 529.7,-85.86 528.34,-92.73"/>
</a>
</g>
</g>
<!-- Node24&#45;&gt;Node6 -->
<g id="edge60_Node000024_Node000006" class="edge">
<title>Node24&#45;&gt;Node6</title>
<g id="a_edge60_Node000024_Node000006"><a xlink:title=" ">
<path fill="none" stroke="#63b8ff" d="M511.11,-110.32C505.97,-112.83 501.17,-115.94 497,-119.8 400.74,-208.89 393.69,-387.84 393.44,-431.18"/>
<polygon fill="#63b8ff" stroke="#63b8ff" points="512.73,-113.44 520.67,-106.42 510.09,-106.96 512.73,-113.44"/>
</a>
</g>
</g>
<!-- Node25&#45;&gt;Node3 -->
<g id="edge62_Node000025_Node000003" class="edge">
<title>Node25&#45;&gt;Node3</title>
<g id="a_edge62_Node000025_Node000003"><a xlink:title=" ">
<path fill="none" stroke="#63b8ff" d="M532.86,-51.93C477.73,-39.79 382.95,-28.78 324,-76.8 269.17,-121.46 240.52,-361.25 234.99,-412.26"/>
<polygon fill="#63b8ff" stroke="#63b8ff" points="532.14,-55.36 542.68,-54.2 533.72,-48.54 532.14,-55.36"/>
</a>
</g>
</g>
<!-- Node25&#45;&gt;Node6 -->
<g id="edge63_Node000025_Node000006" class="edge">
<title>Node25&#45;&gt;Node6</title>
<g id="a_edge63_Node000025_Node000006"><a xlink:title=" ">
<path fill="none" stroke="#63b8ff" d="M513.29,-72.09C507.3,-74.8 501.72,-78.3 497,-82.8 391.45,-183.52 391.54,-384.58 393.06,-431.05"/>
<polygon fill="#63b8ff" stroke="#63b8ff" points="514.84,-75.25 522.96,-68.45 512.37,-68.7 514.84,-75.25"/>
</a>
</g>
</g>
<!-- Node26&#45;&gt;Node3 -->
<g id="edge65_Node000026_Node000003" class="edge">
<title>Node26&#45;&gt;Node3</title>
<g id="a_edge65_Node000026_Node000003"><a xlink:title=" ">
<path fill="none" stroke="#63b8ff" d="M510.07,-5.46C453.93,3.32 374.76,5.3 324,-37.8 263.97,-88.76 239.16,-358.11 234.74,-412.3"/>
<polygon fill="#63b8ff" stroke="#63b8ff" points="509.83,-8.97 520.27,-7.17 510.99,-2.07 509.83,-8.97"/>
</a>
</g>
</g>
<!-- Node26&#45;&gt;Node6 -->
<g id="edge66_Node000026_Node000006" class="edge">
<title>Node26&#45;&gt;Node6</title>
<g id="a_edge66_Node000026_Node000006"><a xlink:title=" ">
<path fill="none" stroke="#63b8ff" d="M511.14,-34.14C505.93,-37.03 501.1,-40.54 497,-44.8 440.31,-103.66 401.94,-376.4 394.73,-431.2"/>
<polygon fill="#63b8ff" stroke="#63b8ff" points="512.69,-37.28 520.22,-29.83 509.69,-30.96 512.69,-37.28"/>
</a>
</g>
</g>
</g>
</svg>
