<?xml version="1.0" encoding="UTF-8" standalone="no"?>
<!DOCTYPE svg PUBLIC "-//W3C//DTD SVG 1.1//EN"
 "http://www.w3.org/Graphics/SVG/1.1/DTD/svg11.dtd">
<!-- Generated by graphviz version 2.43.0 (0)
 -->
<!-- Title: lci::alloc_net_context_x Pages: 1 -->
<svg width="612pt" height="437pt"
 viewBox="0.00 0.00 612.00 437.00" xmlns="http://www.w3.org/2000/svg" xmlns:xlink="http://www.w3.org/1999/xlink">
<g id="graph0" class="graph" transform="scale(1 1) rotate(0) translate(4 433)">
<title>lci::alloc_net_context_x</title>
<!-- Node1 -->
<g id="Node000001" class="node">
<title>Node1</title>
<g id="a_Node000001"><a xlink:title="The actual implementation for alloc_net_context.">
<polygon fill="#999999" stroke="#666666" points="604,-219.5 473,-219.5 473,-200.5 604,-200.5 604,-219.5"/>
<text text-anchor="middle" x="538.5" y="-207.5" font-family="Helvetica,sans-Serif" font-size="10.00">lci::alloc_net_context_x</text>
</a>
</g>
</g>
<!-- Node2 -->
<g id="Node000002" class="node">
<title>Node2</title>
<g id="a_Node000002"><a xlink:href="../../db/d20/structlci_1_1option__t.html" target="_top" xlink:title=" ">
<polygon fill="white" stroke="#666666" points="288.5,-425 186.5,-425 186.5,-395 288.5,-395 288.5,-425"/>
<text text-anchor="start" x="194.5" y="-413" font-family="Helvetica,sans-Serif" font-size="10.00">lci::option_t&lt; attr</text>
<text text-anchor="middle" x="237.5" y="-402" font-family="Helvetica,sans-Serif" font-size="10.00">_backend_t &gt;</text>
</a>
</g>
</g>
<!-- Node2&#45;&gt;Node1 -->
<g id="edge1_Node000001_Node000002" class="edge">
<title>Node2&#45;&gt;Node1</title>
<g id="a_edge1_Node000001_Node000002"><a xlink:title=" ">
<path fill="none" stroke="#9a32cd" stroke-dasharray="5,2" d="M298.95,-417.95C345.78,-420.83 410.04,-417.27 455,-385 513.12,-343.28 531.64,-249.84 536.22,-219.62"/>
<polygon fill="#9a32cd" stroke="#9a32cd" points="299.17,-414.45 288.94,-417.22 298.66,-421.44 299.17,-414.45"/>
</a>
</g>
<text text-anchor="middle" x="392.5" y="-421" font-family="Helvetica,sans-Serif" font-size="10.00" fill="grey"> m_backend</text>
</g>
<!-- Node3 -->
<g id="Node000003" class="node">
<title>Node3</title>
<g id="a_Node000003"><a xlink:href="../../db/d20/structlci_1_1option__t.html" target="_top" xlink:title=" ">
<polygon fill="white" stroke="#666666" points="287.5,-377 187.5,-377 187.5,-347 287.5,-347 287.5,-377"/>
<text text-anchor="start" x="195.5" y="-365" font-family="Helvetica,sans-Serif" font-size="10.00">lci::option_t&lt; std</text>
<text text-anchor="middle" x="237.5" y="-354" font-family="Helvetica,sans-Serif" font-size="10.00">::string &gt;</text>
</a>
</g>
</g>
<!-- Node3&#45;&gt;Node1 -->
<g id="edge2_Node000001_Node000003" class="edge">
<title>Node3&#45;&gt;Node1</title>
<g id="a_edge2_Node000001_Node000003"><a xlink:title=" ">
<path fill="none" stroke="#9a32cd" stroke-dasharray="5,2" d="M297.67,-369.34C343.88,-372.08 407.93,-369.07 455,-340 501.85,-311.06 526.72,-244.52 534.65,-219.63"/>
<polygon fill="#9a32cd" stroke="#9a32cd" points="297.73,-365.83 287.51,-368.62 297.24,-372.81 297.73,-365.83"/>
</a>
</g>
<text text-anchor="middle" x="392.5" y="-373" font-family="Helvetica,sans-Serif" font-size="10.00" fill="grey"> m_ofi_provider_name</text>
</g>
<!-- Node4 -->
<g id="Node000004" class="node">
<title>Node4</title>
<g id="a_Node000004"><a xlink:href="../../db/d20/structlci_1_1option__t.html" target="_top" xlink:title=" ">
<polygon fill="white" stroke="#666666" points="300,-327.5 175,-327.5 175,-308.5 300,-308.5 300,-327.5"/>
<text text-anchor="middle" x="237.5" y="-315.5" font-family="Helvetica,sans-Serif" font-size="10.00">lci::option_t&lt; size_t &gt;</text>
</a>
</g>
</g>
<!-- Node4&#45;&gt;Node1 -->
<g id="edge3_Node000001_Node000004" class="edge">
<title>Node4&#45;&gt;Node1</title>
<g id="a_edge3_Node000001_Node000004"><a xlink:title=" ">
<path fill="none" stroke="#9a32cd" stroke-dasharray="5,2" d="M310.23,-315.6C363.18,-312.87 430.18,-307.09 455,-295 490.69,-277.63 519.45,-238.14 531.45,-219.75"/>
<polygon fill="#9a32cd" stroke="#9a32cd" points="310,-312.11 300.18,-316.1 310.34,-319.1 310,-312.11"/>
</a>
</g>
<text text-anchor="middle" x="392.5" y="-328" font-family="Helvetica,sans-Serif" font-size="10.00" fill="grey"> m_max_inject_size</text>
<text text-anchor="middle" x="392.5" y="-317" font-family="Helvetica,sans-Serif" font-size="10.00" fill="grey">m_max_msg_size</text>
</g>
<!-- Node5 -->
<g id="Node000005" class="node">
<title>Node5</title>
<g id="a_Node000005"><a xlink:href="../../db/d20/structlci_1_1option__t.html" target="_top" xlink:title=" ">
<polygon fill="white" stroke="#666666" points="292,-290.5 183,-290.5 183,-271.5 292,-271.5 292,-290.5"/>
<text text-anchor="middle" x="237.5" y="-278.5" font-family="Helvetica,sans-Serif" font-size="10.00">lci::option_t&lt; int &gt;</text>
</a>
</g>
</g>
<!-- Node5&#45;&gt;Node1 -->
<g id="edge4_Node000001_Node000005" class="edge">
<title>Node5&#45;&gt;Node1</title>
<g id="a_edge4_Node000001_Node000005"><a xlink:title=" ">
<path fill="none" stroke="#9a32cd" stroke-dasharray="5,2" d="M302.66,-282.7C346.6,-282.05 405.62,-277.52 455,-261 482.63,-251.76 510.59,-231.72 525.82,-219.69"/>
<polygon fill="#9a32cd" stroke="#9a32cd" points="302.37,-279.21 292.4,-282.79 302.43,-286.21 302.37,-279.21"/>
</a>
</g>
<text text-anchor="middle" x="392.5" y="-284" font-family="Helvetica,sans-Serif" font-size="10.00" fill="grey"> m_ibv_gid_idx</text>
</g>
<!-- Node6 -->
<g id="Node000006" class="node">
<title>Node6</title>
<g id="a_Node000006"><a xlink:href="../../db/d20/structlci_1_1option__t.html" target="_top" xlink:title=" ">
<polygon fill="white" stroke="#666666" points="296,-249.5 179,-249.5 179,-230.5 296,-230.5 296,-249.5"/>
<text text-anchor="middle" x="237.5" y="-237.5" font-family="Helvetica,sans-Serif" font-size="10.00">lci::option_t&lt; bool &gt;</text>
</a>
</g>
</g>
<!-- Node6&#45;&gt;Node1 -->
<g id="edge5_Node000001_Node000006" class="edge">
<title>Node6&#45;&gt;Node1</title>
<g id="a_edge5_Node000001_Node000006"><a xlink:title=" ">
<path fill="none" stroke="#9a32cd" stroke-dasharray="5,2" d="M306.16,-230.79C314.19,-229.79 322.27,-228.84 330,-228 377.81,-222.79 431.95,-218.14 472.94,-214.87"/>
<polygon fill="#9a32cd" stroke="#9a32cd" points="305.53,-227.34 296.05,-232.06 306.41,-234.28 305.53,-227.34"/>
</a>
</g>
<text text-anchor="start" x="337" y="-253" font-family="Helvetica,sans-Serif" font-size="10.00" fill="grey"> m_ibv_force_gid_auto</text>
<text text-anchor="middle" x="392.5" y="-242" font-family="Helvetica,sans-Serif" font-size="10.00" fill="grey">_select</text>
<text text-anchor="middle" x="392.5" y="-231" font-family="Helvetica,sans-Serif" font-size="10.00" fill="grey">m_use_dmabuf</text>
</g>
<!-- Node7 -->
<g id="Node000007" class="node">
<title>Node7</title>
<g id="a_Node000007"><a xlink:href="../../db/d20/structlci_1_1option__t.html" target="_top" xlink:title=" ">
<polygon fill="white" stroke="#666666" points="300.5,-212 174.5,-212 174.5,-182 300.5,-182 300.5,-212"/>
<text text-anchor="start" x="182.5" y="-200" font-family="Helvetica,sans-Serif" font-size="10.00">lci::option_t&lt; attr</text>
<text text-anchor="middle" x="237.5" y="-189" font-family="Helvetica,sans-Serif" font-size="10.00">_ibv_odp_strategy_t &gt;</text>
</a>
</g>
</g>
<!-- Node7&#45;&gt;Node1 -->
<g id="edge6_Node000001_Node000007" class="edge">
<title>Node7&#45;&gt;Node1</title>
<g id="a_edge6_Node000001_Node000007"><a xlink:title=" ">
<path fill="none" stroke="#9a32cd" stroke-dasharray="5,2" d="M310.88,-192.05C353.02,-190.15 407.12,-189.4 455,-194 468.65,-195.31 483.4,-197.82 496.6,-200.46"/>
<polygon fill="#9a32cd" stroke="#9a32cd" points="310.53,-188.56 300.71,-192.54 310.86,-195.55 310.53,-188.56"/>
</a>
</g>
<text text-anchor="middle" x="392.5" y="-197" font-family="Helvetica,sans-Serif" font-size="10.00" fill="grey"> m_ibv_odp_strategy</text>
</g>
<!-- Node8 -->
<g id="Node000008" class="node">
<title>Node8</title>
<g id="a_Node000008"><a xlink:href="../../db/d20/structlci_1_1option__t.html" target="_top" xlink:title=" ">
<polygon fill="white" stroke="#666666" points="312,-164 163,-164 163,-134 312,-134 312,-164"/>
<text text-anchor="start" x="171" y="-152" font-family="Helvetica,sans-Serif" font-size="10.00">lci::option_t&lt; attr</text>
<text text-anchor="middle" x="237.5" y="-141" font-family="Helvetica,sans-Serif" font-size="10.00">_ibv_prefetch_strategy_t &gt;</text>
</a>
</g>
</g>
<!-- Node8&#45;&gt;Node1 -->
<g id="edge7_Node000001_Node000008" class="edge">
<title>Node8&#45;&gt;Node1</title>
<g id="a_edge7_Node000001_Node000008"><a xlink:title=" ">
<path fill="none" stroke="#9a32cd" stroke-dasharray="5,2" d="M322.26,-153.54C362.85,-157.13 412,-163.54 455,-175 477.85,-181.09 502.65,-192.29 519.03,-200.38"/>
<polygon fill="#9a32cd" stroke="#9a32cd" points="322.39,-150.04 312.13,-152.68 321.8,-157.01 322.39,-150.04"/>
</a>
</g>
<text text-anchor="middle" x="392.5" y="-178" font-family="Helvetica,sans-Serif" font-size="10.00" fill="grey"> m_ibv_prefetch_strategy</text>
</g>
<!-- Node9 -->
<g id="Node000009" class="node">
<title>Node9</title>
<g id="a_Node000009"><a xlink:href="../../db/d20/structlci_1_1option__t.html" target="_top" xlink:title=" ">
<polygon fill="white" stroke="#666666" points="293,-116 182,-116 182,-86 293,-86 293,-116"/>
<text text-anchor="start" x="190" y="-104" font-family="Helvetica,sans-Serif" font-size="10.00">lci::option_t&lt; const</text>
<text text-anchor="middle" x="237.5" y="-93" font-family="Helvetica,sans-Serif" font-size="10.00"> char * &gt;</text>
</a>
</g>
</g>
<!-- Node9&#45;&gt;Node1 -->
<g id="edge8_Node000001_Node000009" class="edge">
<title>Node9&#45;&gt;Node1</title>
<g id="a_edge8_Node000001_Node000009"><a xlink:title=" ">
<path fill="none" stroke="#9a32cd" stroke-dasharray="5,2" d="M303.53,-103.4C348.01,-107.15 407.32,-116.43 455,-139 486.77,-154.04 515.92,-184.71 529.49,-200.35"/>
<polygon fill="#9a32cd" stroke="#9a32cd" points="303.66,-99.89 293.42,-102.61 303.12,-106.87 303.66,-99.89"/>
</a>
</g>
<text text-anchor="middle" x="392.5" y="-142" font-family="Helvetica,sans-Serif" font-size="10.00" fill="grey"> m_name</text>
</g>
<!-- Node10 -->
<g id="Node000010" class="node">
<title>Node10</title>
<g id="a_Node000010"><a xlink:href="../../db/d20/structlci_1_1option__t.html" target="_top" xlink:title=" ">
<polygon fill="white" stroke="#666666" points="300,-67.5 175,-67.5 175,-48.5 300,-48.5 300,-67.5"/>
<text text-anchor="middle" x="237.5" y="-55.5" font-family="Helvetica,sans-Serif" font-size="10.00">lci::option_t&lt; void * &gt;</text>
</a>
</g>
</g>
<!-- Node10&#45;&gt;Node1 -->
<g id="edge9_Node000001_Node000010" class="edge">
<title>Node10&#45;&gt;Node1</title>
<g id="a_edge9_Node000001_Node000010"><a xlink:title=" ">
<path fill="none" stroke="#9a32cd" stroke-dasharray="5,2" d="M310.57,-54.99C355.23,-56.35 412.06,-64.2 455,-91 498.29,-118.02 524.8,-177.01 533.92,-200.28"/>
<polygon fill="#9a32cd" stroke="#9a32cd" points="310.44,-51.49 300.37,-54.78 310.29,-58.48 310.44,-51.49"/>
</a>
</g>
<text text-anchor="middle" x="392.5" y="-94" font-family="Helvetica,sans-Serif" font-size="10.00" fill="grey"> m_user_context</text>
</g>
<!-- Node11 -->
<g id="Node000011" class="node">
<title>Node11</title>
<g id="a_Node000011"><a xlink:href="../../db/d20/structlci_1_1option__t.html" target="_top" xlink:title=" ">
<polygon fill="white" stroke="#666666" points="285.5,-30 189.5,-30 189.5,0 285.5,0 285.5,-30"/>
<text text-anchor="start" x="197.5" y="-18" font-family="Helvetica,sans-Serif" font-size="10.00">lci::option_t&lt; lci</text>
<text text-anchor="middle" x="237.5" y="-7" font-family="Helvetica,sans-Serif" font-size="10.00">::runtime_t &gt;</text>
</a>
</g>
</g>
<!-- Node11&#45;&gt;Node1 -->
<g id="edge10_Node000001_Node000011" class="edge">
<title>Node11&#45;&gt;Node1</title>
<g id="a_edge10_Node000001_Node000011"><a xlink:title=" ">
<path fill="none" stroke="#9a32cd" stroke-dasharray="5,2" d="M295.76,-7.73C342.76,-4.84 408.87,-8.2 455,-41 511.41,-81.11 530.97,-170.69 536.03,-200.29"/>
<polygon fill="#9a32cd" stroke="#9a32cd" points="295.45,-4.24 285.73,-8.46 295.96,-11.22 295.45,-4.24"/>
</a>
</g>
<text text-anchor="middle" x="392.5" y="-44" font-family="Helvetica,sans-Serif" font-size="10.00" fill="grey"> m_runtime</text>
</g>
<!-- Node12 -->
<g id="Node000012" class="node">
<title>Node12</title>
<g id="a_Node000012"><a xlink:href="../../dc/d5c/classlci_1_1runtime__t.html" target="_top" xlink:title="The actual implementation for RESOURCE runtime.">
<polygon fill="white" stroke="#666666" points="81,-24.5 0,-24.5 0,-5.5 81,-5.5 81,-24.5"/>
<text text-anchor="middle" x="40.5" y="-12.5" font-family="Helvetica,sans-Serif" font-size="10.00">lci::runtime_t</text>
</a>
</g>
</g>
<!-- Node12&#45;&gt;Node11 -->
<g id="edge11_Node000011_Node000012" class="edge">
<title>Node12&#45;&gt;Node11</title>
<g id="a_edge11_Node000011_Node000012"><a xlink:title=" ">
<path fill="none" stroke="#9a32cd" stroke-dasharray="5,2" d="M91.72,-15C121.83,-15 159.88,-15 189.41,-15"/>
<polygon fill="#9a32cd" stroke="#9a32cd" points="91.43,-11.5 81.43,-15 91.43,-18.5 91.43,-11.5"/>
</a>
</g>
<text text-anchor="middle" x="122" y="-18" font-family="Helvetica,sans-Serif" font-size="10.00" fill="grey"> m_value</text>
</g>
</g>
</svg>
