<?xml version="1.0" encoding="UTF-8" standalone="no"?>
<!DOCTYPE svg PUBLIC "-//W3C//DTD SVG 1.1//EN"
 "http://www.w3.org/Graphics/SVG/1.1/DTD/svg11.dtd">
<!-- Generated by graphviz version 2.43.0 (0)
 -->
<!-- Title: Communication Posting Pages: 1 -->
<svg width="296pt" height="286pt"
 viewBox="0.00 0.00 296.00 286.00" xmlns="http://www.w3.org/2000/svg" xmlns:xlink="http://www.w3.org/1999/xlink">
<g id="graph0" class="graph" transform="scale(1 1) rotate(0) translate(4 282)">
<title>Communication Posting</title>
<!-- Node1 -->
<g id="Node000001" class="node">
<title>Node1</title>
<g id="a_Node000001"><a xlink:title="This section describes the LCI API for posting communication.">
<polygon fill="#999999" stroke="#666666" points="133,-148 0,-148 0,-129 133,-129 133,-148"/>
<text text-anchor="middle" x="66.5" y="-136" font-family="Helvetica,sans-Serif" font-size="10.00">Communication Posting</text>
</a>
</g>
</g>
<!-- Node2 -->
<g id="Node000002" class="node">
<title>Node2</title>
<g id="a_Node000002"><a xlink:href="../../dc/d9c/group__LCI__GET__MAX__BCOPY__SIZE.html" target="_top" xlink:title="Get the maximum message size for the buffer&#45;copy protocol.">
<polygon fill="white" stroke="#666666" points="288,-278 169,-278 169,-259 288,-259 288,-278"/>
<text text-anchor="middle" x="228.5" y="-266" font-family="Helvetica,sans-Serif" font-size="10.00">get_max_bcopy_size</text>
</a>
</g>
</g>
<!-- Node1&#45;&gt;Node2 -->
<g id="edge1" class="edge">
<title>Node1&#45;&gt;Node2</title>
<path fill="none" stroke="black" d="M79.24,-156.65C96.16,-181.4 129.73,-225.52 169,-250.5 174.29,-253.86 180.25,-256.63 186.29,-258.91"/>
<polygon fill="black" stroke="black" points="82.05,-154.56 73.59,-148.19 76.23,-158.45 82.05,-154.56"/>
</g>
<!-- Node4 -->
<g id="Node000004" class="node">
<title>Node4</title>
<g id="a_Node000004"><a xlink:href="../../dd/d27/group__LCI__POST__AM.html" target="_top" xlink:title="Post an active message communication operation.">
<polygon fill="white" stroke="#666666" points="258,-241 199,-241 199,-222 258,-222 258,-241"/>
<text text-anchor="middle" x="228.5" y="-229" font-family="Helvetica,sans-Serif" font-size="10.00">post_am</text>
</a>
</g>
</g>
<!-- Node1&#45;&gt;Node4 -->
<g id="edge3" class="edge">
<title>Node1&#45;&gt;Node4</title>
<path fill="none" stroke="black" d="M85.68,-154.93C105.07,-171.71 137.31,-197.5 169,-213.5 178.3,-218.19 189.05,-221.93 198.78,-224.76"/>
<polygon fill="black" stroke="black" points="87.78,-152.12 77.96,-148.14 83.15,-157.37 87.78,-152.12"/>
</g>
<!-- Node3 -->
<g id="Node000003" class="node">
<title>Node3</title>
<g id="a_Node000003"><a xlink:href="../../d5/d13/group__LCI__POST__COMM.html" target="_top" xlink:title="Post a generic communication operation.">
<polygon fill="white" stroke="#666666" points="265.5,-204 191.5,-204 191.5,-185 265.5,-185 265.5,-204"/>
<text text-anchor="middle" x="228.5" y="-192" font-family="Helvetica,sans-Serif" font-size="10.00">post_comm</text>
</a>
</g>
</g>
<!-- Node1&#45;&gt;Node3 -->
<g id="edge2" class="edge">
<title>Node1&#45;&gt;Node3</title>
<path fill="none" stroke="black" d="M101.4,-151.77C121.04,-159.31 146.3,-168.77 169,-176.5 177.45,-179.38 186.65,-182.31 195.2,-184.94"/>
<polygon fill="black" stroke="black" points="102.55,-148.46 91.96,-148.13 100.03,-154.99 102.55,-148.46"/>
</g>
<!-- Node8 -->
<g id="Node000008" class="node">
<title>Node8</title>
<g id="a_Node000008"><a xlink:href="../../de/d45/group__LCI__POST__GET.html" target="_top" xlink:title="Post a get (one&#45;sided read) communication operation.">
<polygon fill="white" stroke="#666666" points="258,-167 199,-167 199,-148 258,-148 258,-167"/>
<text text-anchor="middle" x="228.5" y="-155" font-family="Helvetica,sans-Serif" font-size="10.00">post_get</text>
</a>
</g>
</g>
<!-- Node1&#45;&gt;Node8 -->
<g id="edge7" class="edge">
<title>Node1&#45;&gt;Node8</title>
<path fill="none" stroke="black" d="M143.07,-147.47C162.98,-149.84 183.25,-152.24 198.93,-154.11"/>
<polygon fill="black" stroke="black" points="143.38,-143.99 133.04,-146.28 142.56,-150.94 143.38,-143.99"/>
</g>
<!-- Node7 -->
<g id="Node000007" class="node">
<title>Node7</title>
<g id="a_Node000007"><a xlink:href="../../d3/d01/group__LCI__POST__PUT.html" target="_top" xlink:title="Post a put (one&#45;sided write) communication operation.">
<polygon fill="white" stroke="#666666" points="258,-130 199,-130 199,-111 258,-111 258,-130"/>
<text text-anchor="middle" x="228.5" y="-118" font-family="Helvetica,sans-Serif" font-size="10.00">post_put</text>
</a>
</g>
</g>
<!-- Node1&#45;&gt;Node7 -->
<g id="edge6" class="edge">
<title>Node1&#45;&gt;Node7</title>
<path fill="none" stroke="black" d="M143.07,-130C162.98,-127.76 183.25,-125.48 198.93,-123.71"/>
<polygon fill="black" stroke="black" points="142.59,-126.53 133.04,-131.13 143.37,-133.49 142.59,-126.53"/>
</g>
<!-- Node6 -->
<g id="Node000006" class="node">
<title>Node6</title>
<g id="a_Node000006"><a xlink:href="../../d1/d0f/group__LCI__POST__RECV.html" target="_top" xlink:title="Post a receive communication operation.">
<polygon fill="white" stroke="#666666" points="260.5,-93 196.5,-93 196.5,-74 260.5,-74 260.5,-93"/>
<text text-anchor="middle" x="228.5" y="-81" font-family="Helvetica,sans-Serif" font-size="10.00">post_recv</text>
</a>
</g>
</g>
<!-- Node1&#45;&gt;Node6 -->
<g id="edge5" class="edge">
<title>Node1&#45;&gt;Node6</title>
<path fill="none" stroke="black" d="M103.36,-125.52C122.75,-118.56 147.14,-109.93 169,-102.5 178.3,-99.34 188.47,-96 197.69,-93.01"/>
<polygon fill="black" stroke="black" points="101.95,-122.31 93.72,-128.98 104.32,-128.89 101.95,-122.31"/>
</g>
<!-- Node5 -->
<g id="Node000005" class="node">
<title>Node5</title>
<g id="a_Node000005"><a xlink:href="../../db/dc3/group__LCI__POST__SEND.html" target="_top" xlink:title="Post a send communication operation.">
<polygon fill="white" stroke="#666666" points="261.5,-56 195.5,-56 195.5,-37 261.5,-37 261.5,-56"/>
<text text-anchor="middle" x="228.5" y="-44" font-family="Helvetica,sans-Serif" font-size="10.00">post_send</text>
</a>
</g>
</g>
<!-- Node1&#45;&gt;Node5 -->
<g id="edge4" class="edge">
<title>Node1&#45;&gt;Node5</title>
<path fill="none" stroke="black" d="M86.12,-122.37C105.65,-106.14 137.79,-81.3 169,-65.5 177.19,-61.35 186.48,-57.85 195.21,-55.02"/>
<polygon fill="black" stroke="black" points="83.71,-119.83 78.32,-128.96 88.22,-125.18 83.71,-119.83"/>
</g>
<!-- Node9 -->
<g id="Node000009" class="node">
<title>Node9</title>
<g id="a_Node000009"><a xlink:href="../../dd/d9e/group__LCI__PROGRESS.html" target="_top" xlink:title="Perform background work to advance the state of the pending communication.">
<polygon fill="white" stroke="#666666" points="258,-19 199,-19 199,0 258,0 258,-19"/>
<text text-anchor="middle" x="228.5" y="-7" font-family="Helvetica,sans-Serif" font-size="10.00">progress</text>
</a>
</g>
</g>
<!-- Node1&#45;&gt;Node9 -->
<g id="edge8" class="edge">
<title>Node1&#45;&gt;Node9</title>
<path fill="none" stroke="black" d="M79.63,-120.4C96.78,-96.13 130.39,-53.24 169,-28.5 177.99,-22.74 188.88,-18.58 198.82,-15.65"/>
<polygon fill="black" stroke="black" points="76.69,-118.5 73.88,-128.72 82.44,-122.48 76.69,-118.5"/>
</g>
</g>
</svg>
