<?xml version="1.0" encoding="UTF-8" standalone="no"?>
<!DOCTYPE svg PUBLIC "-//W3C//DTD SVG 1.1//EN"
 "http://www.w3.org/Graphics/SVG/1.1/DTD/svg11.dtd">
<!-- Generated by graphviz version 2.43.0 (0)
 -->
<!-- Title: lci::matching_engine_insert_x::key Pages: 1 -->
<svg width="588pt" height="86pt"
 viewBox="0.00 0.00 588.00 86.00" xmlns="http://www.w3.org/2000/svg" xmlns:xlink="http://www.w3.org/1999/xlink">
<g id="graph0" class="graph" transform="scale(1 1) rotate(0) translate(4 82)">
<title>lci::matching_engine_insert_x::key</title>
<!-- Node1 -->
<g id="Node000001" class="node">
<title>Node1</title>
<g id="a_Node000001"><a xlink:title=" ">
<polygon fill="#999999" stroke="#666666" points="580,-54 462,-54 462,-24 580,-24 580,-54"/>
<text text-anchor="start" x="470" y="-42" font-family="Helvetica,sans-Serif" font-size="10.00">lci::matching_engine</text>
<text text-anchor="middle" x="521" y="-31" font-family="Helvetica,sans-Serif" font-size="10.00">_insert_x::key</text>
</a>
</g>
</g>
<!-- Node2 -->
<g id="Node000002" class="node">
<title>Node2</title>
<g id="a_Node000002"><a xlink:href="../../da/d9f/classlci_1_1matching__engine__insert__x.html#a25487d217735c0fd7198282cb711edf4" target="_top" xlink:title=" ">
<polygon fill="white" stroke="#666666" points="272,-54 154,-54 154,-24 272,-24 272,-54"/>
<text text-anchor="start" x="162" y="-42" font-family="Helvetica,sans-Serif" font-size="10.00">lci::matching_engine</text>
<text text-anchor="middle" x="213" y="-31" font-family="Helvetica,sans-Serif" font-size="10.00">_insert_x::call</text>
</a>
</g>
</g>
<!-- Node1&#45;&gt;Node2 -->
<g id="edge1_Node000001_Node000002" class="edge">
<title>Node1&#45;&gt;Node2</title>
<g id="a_edge1_Node000001_Node000002"><a xlink:title=" ">
<path fill="none" stroke="#63b8ff" d="M451.74,-41.43C443.08,-41.67 434.33,-41.87 426,-42 373.56,-42.84 360.44,-42.84 308,-42 296.41,-41.82 284.02,-41.5 272.16,-41.15"/>
<polygon fill="#63b8ff" stroke="#63b8ff" points="451.94,-44.93 461.84,-41.15 451.74,-37.93 451.94,-44.93"/>
</a>
</g>
</g>
<!-- Node5 -->
<g id="Node000005" class="node">
<title>Node5</title>
<g id="a_Node000005"><a xlink:href="../../da/d9f/classlci_1_1matching__engine__insert__x.html#af27502ab7c5483d7d72d7f2d7bf8af18" target="_top" xlink:title=" ">
<polygon fill="white" stroke="#666666" points="426,-33 308,-33 308,-3 426,-3 426,-33"/>
<text text-anchor="start" x="316" y="-21" font-family="Helvetica,sans-Serif" font-size="10.00">lci::matching_engine</text>
<text text-anchor="middle" x="367" y="-10" font-family="Helvetica,sans-Serif" font-size="10.00">_insert_x::call_impl</text>
</a>
</g>
</g>
<!-- Node1&#45;&gt;Node5 -->
<g id="edge4_Node000001_Node000005" class="edge">
<title>Node1&#45;&gt;Node5</title>
<g id="a_edge4_Node000001_Node000005"><a xlink:title=" ">
<path fill="none" stroke="#63b8ff" d="M451.74,-29.57C443.2,-28.39 434.54,-27.19 426.18,-26.04"/>
<polygon fill="#63b8ff" stroke="#63b8ff" points="451.28,-33.04 461.67,-30.94 452.24,-26.11 451.28,-33.04"/>
</a>
</g>
</g>
<!-- Node3 -->
<g id="Node000003" class="node">
<title>Node3</title>
<g id="a_Node000003"><a xlink:href="../../d5/dd3/namespacelci.html#a331b14f059b8117f675b0a62a8554e82" target="_top" xlink:title=" ">
<polygon fill="white" stroke="#666666" points="118,-78 0,-78 0,-48 118,-48 118,-78"/>
<text text-anchor="start" x="8" y="-66" font-family="Helvetica,sans-Serif" font-size="10.00">lci::matching_engine</text>
<text text-anchor="middle" x="59" y="-55" font-family="Helvetica,sans-Serif" font-size="10.00">_insert</text>
</a>
</g>
</g>
<!-- Node2&#45;&gt;Node3 -->
<g id="edge2_Node000002_Node000003" class="edge">
<title>Node2&#45;&gt;Node3</title>
<g id="a_edge2_Node000002_Node000003"><a xlink:title=" ">
<path fill="none" stroke="#63b8ff" d="M143.74,-49.78C135.2,-51.13 126.54,-52.49 118.18,-53.81"/>
<polygon fill="#63b8ff" stroke="#63b8ff" points="144.34,-53.23 153.67,-48.21 143.24,-46.31 144.34,-53.23"/>
</a>
</g>
</g>
<!-- Node4 -->
<g id="Node000004" class="node">
<title>Node4</title>
<g id="a_Node000004"><a xlink:href="../../da/d9f/classlci_1_1matching__engine__insert__x.html#a1aba72b5160b189ed6396f7994c75242" target="_top" xlink:title=" ">
<polygon fill="white" stroke="#666666" points="118,-30 0,-30 0,0 118,0 118,-30"/>
<text text-anchor="start" x="8" y="-18" font-family="Helvetica,sans-Serif" font-size="10.00">lci::matching_engine</text>
<text text-anchor="middle" x="59" y="-7" font-family="Helvetica,sans-Serif" font-size="10.00">_insert_x::operator()</text>
</a>
</g>
</g>
<!-- Node2&#45;&gt;Node4 -->
<g id="edge3_Node000002_Node000004" class="edge">
<title>Node2&#45;&gt;Node4</title>
<g id="a_edge3_Node000002_Node000004"><a xlink:title=" ">
<path fill="none" stroke="#63b8ff" d="M143.74,-28.22C135.2,-26.87 126.54,-25.51 118.18,-24.19"/>
<polygon fill="#63b8ff" stroke="#63b8ff" points="143.24,-31.69 153.67,-29.79 144.34,-24.77 143.24,-31.69"/>
</a>
</g>
</g>
<!-- Node5&#45;&gt;Node2 -->
<g id="edge5_Node000005_Node000002" class="edge">
<title>Node5&#45;&gt;Node2</title>
<g id="a_edge5_Node000005_Node000002"><a xlink:title=" ">
<path fill="none" stroke="#63b8ff" d="M297.74,-27.43C289.2,-28.61 280.54,-29.81 272.18,-30.96"/>
<polygon fill="#63b8ff" stroke="#63b8ff" points="298.24,-30.89 307.67,-26.06 297.28,-23.96 298.24,-30.89"/>
</a>
</g>
</g>
</g>
</svg>
