<?xml version="1.0" encoding="UTF-8" standalone="no"?>
<!DOCTYPE svg PUBLIC "-//W3C//DTD SVG 1.1//EN"
 "http://www.w3.org/Graphics/SVG/1.1/DTD/svg11.dtd">
<!-- Generated by graphviz version 2.43.0 (0)
 -->
<!-- Title: lci::matching_engine_insert_x::matching_engine_insert_x Pages: 1 -->
<svg width="808pt" height="230pt"
 viewBox="0.00 0.00 808.00 230.00" xmlns="http://www.w3.org/2000/svg" xmlns:xlink="http://www.w3.org/1999/xlink">
<g id="graph0" class="graph" transform="scale(1 1) rotate(0) translate(4 226)">
<title>lci::matching_engine_insert_x::matching_engine_insert_x</title>
<!-- Node1 -->
<g id="Node000001" class="node">
<title>Node1</title>
<g id="a_Node000001"><a xlink:title=" ">
<polygon fill="#999999" stroke="#666666" points="800,-131.5 649,-131.5 649,-90.5 800,-90.5 800,-131.5"/>
<text text-anchor="start" x="657" y="-119.5" font-family="Helvetica,sans-Serif" font-size="10.00">lci::matching_engine</text>
<text text-anchor="start" x="657" y="-108.5" font-family="Helvetica,sans-Serif" font-size="10.00">_insert_x::matching_engine</text>
<text text-anchor="middle" x="724.5" y="-97.5" font-family="Helvetica,sans-Serif" font-size="10.00">_insert_x</text>
</a>
</g>
</g>
<!-- Node2 -->
<g id="Node000002" class="node">
<title>Node2</title>
<g id="a_Node000002"><a xlink:href="../../da/d9f/classlci_1_1matching__engine__insert__x.html#a2ea902af3e893885bf0aabe1ddf8119e" target="_top" xlink:title=" ">
<polygon fill="white" stroke="#666666" points="597,-222 478,-222 478,-192 597,-192 597,-222"/>
<text text-anchor="start" x="486" y="-210" font-family="Helvetica,sans-Serif" font-size="10.00">lci::matching_engine</text>
<text text-anchor="middle" x="537.5" y="-199" font-family="Helvetica,sans-Serif" font-size="10.00">_insert_x::entry_type</text>
</a>
</g>
</g>
<!-- Node1&#45;&gt;Node2 -->
<g id="edge1_Node000001_Node000002" class="edge">
<title>Node1&#45;&gt;Node2</title>
<g id="a_edge1_Node000001_Node000002"><a xlink:title=" ">
<path fill="none" stroke="#63b8ff" d="M687.82,-137.74C666.84,-152.55 639.34,-170.45 613,-183 606.13,-186.27 598.7,-189.26 591.29,-191.94"/>
<polygon fill="#63b8ff" stroke="#63b8ff" points="690,-140.48 696.1,-131.82 685.93,-134.79 690,-140.48"/>
</a>
</g>
</g>
<!-- Node7 -->
<g id="Node000007" class="node">
<title>Node7</title>
<g id="a_Node000007"><a xlink:href="../../da/d9f/classlci_1_1matching__engine__insert__x.html#aadcbf1c88aab238400f29a339c5f1d01" target="_top" xlink:title=" ">
<polygon fill="white" stroke="#666666" points="596.5,-174 478.5,-174 478.5,-144 596.5,-144 596.5,-174"/>
<text text-anchor="start" x="486.5" y="-162" font-family="Helvetica,sans-Serif" font-size="10.00">lci::matching_engine</text>
<text text-anchor="middle" x="537.5" y="-151" font-family="Helvetica,sans-Serif" font-size="10.00">_insert_x::key</text>
</a>
</g>
</g>
<!-- Node1&#45;&gt;Node7 -->
<g id="edge7_Node000001_Node000007" class="edge">
<title>Node1&#45;&gt;Node7</title>
<g id="a_edge7_Node000001_Node000007"><a xlink:title=" ">
<path fill="none" stroke="#63b8ff" d="M638.9,-132.95C624.53,-136.68 609.9,-140.47 596.42,-143.97"/>
<polygon fill="#63b8ff" stroke="#63b8ff" points="639.99,-136.28 648.79,-130.39 638.23,-129.51 639.99,-136.28"/>
</a>
</g>
</g>
<!-- Node8 -->
<g id="Node000008" class="node">
<title>Node8</title>
<g id="a_Node000008"><a xlink:href="../../da/d9f/classlci_1_1matching__engine__insert__x.html#a397ece5cebfb978a03efecb1d174c7d4" target="_top" xlink:title=" ">
<polygon fill="white" stroke="#666666" points="613,-126 462,-126 462,-96 613,-96 613,-126"/>
<text text-anchor="start" x="470" y="-114" font-family="Helvetica,sans-Serif" font-size="10.00">lci::matching_engine</text>
<text text-anchor="middle" x="537.5" y="-103" font-family="Helvetica,sans-Serif" font-size="10.00">_insert_x::matching_engine</text>
</a>
</g>
</g>
<!-- Node1&#45;&gt;Node8 -->
<g id="edge10_Node000001_Node000008" class="edge">
<title>Node1&#45;&gt;Node8</title>
<g id="a_edge10_Node000001_Node000008"><a xlink:title=" ">
<path fill="none" stroke="#63b8ff" d="M638.53,-111C630.07,-111 621.53,-111 613.19,-111"/>
<polygon fill="#63b8ff" stroke="#63b8ff" points="638.79,-114.5 648.79,-111 638.79,-107.5 638.79,-114.5"/>
</a>
</g>
</g>
<!-- Node9 -->
<g id="Node000009" class="node">
<title>Node9</title>
<g id="a_Node000009"><a xlink:href="../../da/d9f/classlci_1_1matching__engine__insert__x.html#a077db24da06dede96ebfb0f6a8ad6686" target="_top" xlink:title=" ">
<polygon fill="white" stroke="#666666" points="596.5,-78 478.5,-78 478.5,-48 596.5,-48 596.5,-78"/>
<text text-anchor="start" x="486.5" y="-66" font-family="Helvetica,sans-Serif" font-size="10.00">lci::matching_engine</text>
<text text-anchor="middle" x="537.5" y="-55" font-family="Helvetica,sans-Serif" font-size="10.00">_insert_x::runtime</text>
</a>
</g>
</g>
<!-- Node1&#45;&gt;Node9 -->
<g id="edge13_Node000001_Node000009" class="edge">
<title>Node1&#45;&gt;Node9</title>
<g id="a_edge13_Node000001_Node000009"><a xlink:title=" ">
<path fill="none" stroke="#63b8ff" d="M638.9,-89.05C624.53,-85.32 609.9,-81.53 596.42,-78.03"/>
<polygon fill="#63b8ff" stroke="#63b8ff" points="638.23,-92.49 648.79,-91.61 639.99,-85.72 638.23,-92.49"/>
</a>
</g>
</g>
<!-- Node10 -->
<g id="Node000010" class="node">
<title>Node10</title>
<g id="a_Node000010"><a xlink:href="../../da/d9f/classlci_1_1matching__engine__insert__x.html#a01cb5736288286b2e19a28397a4edb53" target="_top" xlink:title=" ">
<polygon fill="white" stroke="#666666" points="596.5,-30 478.5,-30 478.5,0 596.5,0 596.5,-30"/>
<text text-anchor="start" x="486.5" y="-18" font-family="Helvetica,sans-Serif" font-size="10.00">lci::matching_engine</text>
<text text-anchor="middle" x="537.5" y="-7" font-family="Helvetica,sans-Serif" font-size="10.00">_insert_x::value</text>
</a>
</g>
</g>
<!-- Node1&#45;&gt;Node10 -->
<g id="edge16_Node000001_Node000010" class="edge">
<title>Node1&#45;&gt;Node10</title>
<g id="a_edge16_Node000001_Node000010"><a xlink:title=" ">
<path fill="none" stroke="#63b8ff" d="M687.82,-84.26C666.84,-69.45 639.34,-51.55 613,-39 606.13,-35.73 598.7,-32.74 591.29,-30.06"/>
<polygon fill="#63b8ff" stroke="#63b8ff" points="685.93,-87.21 696.1,-90.18 690,-81.52 685.93,-87.21"/>
</a>
</g>
</g>
<!-- Node3 -->
<g id="Node000003" class="node">
<title>Node3</title>
<g id="a_Node000003"><a xlink:href="../../da/d9f/classlci_1_1matching__engine__insert__x.html#a25487d217735c0fd7198282cb711edf4" target="_top" xlink:title=" ">
<polygon fill="white" stroke="#666666" points="272,-123 154,-123 154,-93 272,-93 272,-123"/>
<text text-anchor="start" x="162" y="-111" font-family="Helvetica,sans-Serif" font-size="10.00">lci::matching_engine</text>
<text text-anchor="middle" x="213" y="-100" font-family="Helvetica,sans-Serif" font-size="10.00">_insert_x::call</text>
</a>
</g>
</g>
<!-- Node2&#45;&gt;Node3 -->
<g id="edge2_Node000002_Node000003" class="edge">
<title>Node2&#45;&gt;Node3</title>
<g id="a_edge2_Node000002_Node000003"><a xlink:title=" ">
<path fill="none" stroke="#63b8ff" d="M467.5,-205.38C421.01,-202.3 359.09,-194.27 308,-174 277.79,-162.01 247.94,-138.53 230.24,-123.06"/>
<polygon fill="#63b8ff" stroke="#63b8ff" points="467.58,-208.89 477.77,-205.99 468,-201.9 467.58,-208.89"/>
</a>
</g>
</g>
<!-- Node6 -->
<g id="Node000006" class="node">
<title>Node6</title>
<g id="a_Node000006"><a xlink:href="../../da/d9f/classlci_1_1matching__engine__insert__x.html#af27502ab7c5483d7d72d7f2d7bf8af18" target="_top" xlink:title=" ">
<polygon fill="white" stroke="#666666" points="426,-145 308,-145 308,-115 426,-115 426,-145"/>
<text text-anchor="start" x="316" y="-133" font-family="Helvetica,sans-Serif" font-size="10.00">lci::matching_engine</text>
<text text-anchor="middle" x="367" y="-122" font-family="Helvetica,sans-Serif" font-size="10.00">_insert_x::call_impl</text>
</a>
</g>
</g>
<!-- Node2&#45;&gt;Node6 -->
<g id="edge5_Node000002_Node000006" class="edge">
<title>Node2&#45;&gt;Node6</title>
<g id="a_edge5_Node000002_Node000006"><a xlink:title=" ">
<path fill="none" stroke="#63b8ff" d="M475.55,-188.49C470.92,-186.74 466.36,-184.91 462,-183 437.11,-172.11 410.26,-156.55 391.66,-145.11"/>
<polygon fill="#63b8ff" stroke="#63b8ff" points="474.5,-191.83 485.1,-191.95 476.88,-185.25 474.5,-191.83"/>
</a>
</g>
</g>
<!-- Node4 -->
<g id="Node000004" class="node">
<title>Node4</title>
<g id="a_Node000004"><a xlink:href="../../d5/dd3/namespacelci.html#a331b14f059b8117f675b0a62a8554e82" target="_top" xlink:title=" ">
<polygon fill="white" stroke="#666666" points="118,-147 0,-147 0,-117 118,-117 118,-147"/>
<text text-anchor="start" x="8" y="-135" font-family="Helvetica,sans-Serif" font-size="10.00">lci::matching_engine</text>
<text text-anchor="middle" x="59" y="-124" font-family="Helvetica,sans-Serif" font-size="10.00">_insert</text>
</a>
</g>
</g>
<!-- Node3&#45;&gt;Node4 -->
<g id="edge3_Node000003_Node000004" class="edge">
<title>Node3&#45;&gt;Node4</title>
<g id="a_edge3_Node000003_Node000004"><a xlink:title=" ">
<path fill="none" stroke="#63b8ff" d="M143.74,-118.78C135.2,-120.13 126.54,-121.49 118.18,-122.81"/>
<polygon fill="#63b8ff" stroke="#63b8ff" points="144.34,-122.23 153.67,-117.21 143.24,-115.31 144.34,-122.23"/>
</a>
</g>
</g>
<!-- Node5 -->
<g id="Node000005" class="node">
<title>Node5</title>
<g id="a_Node000005"><a xlink:href="../../da/d9f/classlci_1_1matching__engine__insert__x.html#a1aba72b5160b189ed6396f7994c75242" target="_top" xlink:title=" ">
<polygon fill="white" stroke="#666666" points="118,-99 0,-99 0,-69 118,-69 118,-99"/>
<text text-anchor="start" x="8" y="-87" font-family="Helvetica,sans-Serif" font-size="10.00">lci::matching_engine</text>
<text text-anchor="middle" x="59" y="-76" font-family="Helvetica,sans-Serif" font-size="10.00">_insert_x::operator()</text>
</a>
</g>
</g>
<!-- Node3&#45;&gt;Node5 -->
<g id="edge4_Node000003_Node000005" class="edge">
<title>Node3&#45;&gt;Node5</title>
<g id="a_edge4_Node000003_Node000005"><a xlink:title=" ">
<path fill="none" stroke="#63b8ff" d="M143.74,-97.22C135.2,-95.87 126.54,-94.51 118.18,-93.19"/>
<polygon fill="#63b8ff" stroke="#63b8ff" points="143.24,-100.69 153.67,-98.79 144.34,-93.77 143.24,-100.69"/>
</a>
</g>
</g>
<!-- Node6&#45;&gt;Node3 -->
<g id="edge6_Node000006_Node000003" class="edge">
<title>Node6&#45;&gt;Node3</title>
<g id="a_edge6_Node000006_Node000003"><a xlink:title=" ">
<path fill="none" stroke="#63b8ff" d="M297.74,-120.12C289.2,-118.88 280.54,-117.63 272.18,-116.42"/>
<polygon fill="#63b8ff" stroke="#63b8ff" points="297.27,-123.59 307.67,-121.56 298.27,-116.66 297.27,-123.59"/>
</a>
</g>
</g>
<!-- Node7&#45;&gt;Node3 -->
<g id="edge8_Node000007_Node000003" class="edge">
<title>Node7&#45;&gt;Node3</title>
<g id="a_edge8_Node000007_Node000003"><a xlink:title=" ">
<path fill="none" stroke="#63b8ff" d="M468.18,-165.1C422.25,-167.37 360.69,-166.81 308,-154 282.58,-147.82 256.01,-134.04 237.64,-123.16"/>
<polygon fill="#63b8ff" stroke="#63b8ff" points="468.53,-168.59 478.33,-164.55 468.15,-161.6 468.53,-168.59"/>
</a>
</g>
</g>
<!-- Node7&#45;&gt;Node6 -->
<g id="edge9_Node000007_Node000006" class="edge">
<title>Node7&#45;&gt;Node6</title>
<g id="a_edge9_Node000007_Node000006"><a xlink:title=" ">
<path fill="none" stroke="#63b8ff" d="M468.03,-147.22C454.11,-144.82 439.59,-142.32 426.07,-139.99"/>
<polygon fill="#63b8ff" stroke="#63b8ff" points="467.59,-150.69 478.04,-148.94 468.78,-143.79 467.59,-150.69"/>
</a>
</g>
</g>
<!-- Node8&#45;&gt;Node3 -->
<g id="edge11_Node000008_Node000003" class="edge">
<title>Node8&#45;&gt;Node3</title>
<g id="a_edge11_Node000008_Node000003"><a xlink:title=" ">
<path fill="none" stroke="#63b8ff" d="M451.74,-106.77C443.05,-106.46 434.35,-106.19 426,-106 373.57,-104.81 360.44,-105.44 308,-106 296.41,-106.12 284.02,-106.33 272.16,-106.57"/>
<polygon fill="#63b8ff" stroke="#63b8ff" points="451.79,-110.28 461.92,-107.17 452.06,-103.28 451.79,-110.28"/>
</a>
</g>
</g>
<!-- Node8&#45;&gt;Node6 -->
<g id="edge12_Node000008_Node000006" class="edge">
<title>Node8&#45;&gt;Node6</title>
<g id="a_edge12_Node000008_Node000006"><a xlink:title=" ">
<path fill="none" stroke="#63b8ff" d="M451.56,-120.58C442.99,-121.54 434.42,-122.51 426.22,-123.44"/>
<polygon fill="#63b8ff" stroke="#63b8ff" points="452.07,-124.04 461.61,-119.44 451.28,-117.09 452.07,-124.04"/>
</a>
</g>
</g>
<!-- Node9&#45;&gt;Node3 -->
<g id="edge14_Node000009_Node000003" class="edge">
<title>Node9&#45;&gt;Node3</title>
<g id="a_edge14_Node000009_Node000003"><a xlink:title=" ">
<path fill="none" stroke="#63b8ff" d="M468.26,-72.52C410.03,-80.65 327.22,-92.2 272.11,-99.89"/>
<polygon fill="#63b8ff" stroke="#63b8ff" points="469.05,-75.95 478.47,-71.1 468.08,-69.01 469.05,-75.95"/>
</a>
</g>
</g>
<!-- Node9&#45;&gt;Node6 -->
<g id="edge15_Node000009_Node000006" class="edge">
<title>Node9&#45;&gt;Node6</title>
<g id="a_edge15_Node000009_Node000006"><a xlink:title=" ">
<path fill="none" stroke="#63b8ff" d="M477.46,-81.31C472.2,-83.15 466.99,-85.06 462,-87 440.42,-95.38 416.72,-106.23 398.52,-114.94"/>
<polygon fill="#63b8ff" stroke="#63b8ff" points="478.6,-84.62 486.92,-78.07 476.33,-78 478.6,-84.62"/>
</a>
</g>
</g>
<!-- Node10&#45;&gt;Node3 -->
<g id="edge17_Node000010_Node000003" class="edge">
<title>Node10&#45;&gt;Node3</title>
<g id="a_edge17_Node000010_Node000003"><a xlink:title=" ">
<path fill="none" stroke="#63b8ff" d="M468.53,-30.77C422.83,-41.81 361.42,-57.48 308,-74 289.76,-79.64 269.84,-86.71 253.05,-92.94"/>
<polygon fill="#63b8ff" stroke="#63b8ff" points="469.42,-34.16 478.32,-28.42 467.78,-27.35 469.42,-34.16"/>
</a>
</g>
</g>
<!-- Node10&#45;&gt;Node6 -->
<g id="edge18_Node000010_Node000006" class="edge">
<title>Node10&#45;&gt;Node6</title>
<g id="a_edge18_Node000010_Node000006"><a xlink:title=" ">
<path fill="none" stroke="#63b8ff" d="M470.73,-34.27C467.72,-35.75 464.8,-37.32 462,-39 427.72,-59.57 396.15,-94.87 379.76,-114.92"/>
<polygon fill="#63b8ff" stroke="#63b8ff" points="472.26,-37.42 479.95,-30.14 469.4,-31.04 472.26,-37.42"/>
</a>
</g>
</g>
</g>
</svg>
