<?xml version="1.0" encoding="UTF-8" standalone="no"?>
<!DOCTYPE svg PUBLIC "-//W3C//DTD SVG 1.1//EN"
 "http://www.w3.org/Graphics/SVG/1.1/DTD/svg11.dtd">
<!-- Generated by graphviz version 2.43.0 (0)
 -->
<!-- Title: lci::get_default_packet_pool_x::call Pages: 1 -->
<svg width="324pt" height="76pt"
 viewBox="0.00 0.00 324.00 75.50" xmlns="http://www.w3.org/2000/svg" xmlns:xlink="http://www.w3.org/1999/xlink">
<g id="graph0" class="graph" transform="scale(1 1) rotate(0) translate(4 71.5)">
<title>lci::get_default_packet_pool_x::call</title>
<!-- Node1 -->
<g id="Node000001" class="node">
<title>Node1</title>
<g id="a_Node000001"><a xlink:title=" ">
<polygon fill="#999999" stroke="#666666" points="316,-51 189,-51 189,-21 316,-21 316,-51"/>
<text text-anchor="start" x="197" y="-39" font-family="Helvetica,sans-Serif" font-size="10.00">lci::get_default_packet</text>
<text text-anchor="middle" x="252.5" y="-28" font-family="Helvetica,sans-Serif" font-size="10.00">_pool_x::call</text>
</a>
</g>
</g>
<!-- Node2 -->
<g id="Node000002" class="node">
<title>Node2</title>
<g id="a_Node000002"><a xlink:href="../../d5/dd3/namespacelci.html#a8229fb5984fbe64a76ff6e0083c9d2a9" target="_top" xlink:title=" ">
<polygon fill="white" stroke="#666666" points="153,-67.5 0,-67.5 0,-48.5 153,-48.5 153,-67.5"/>
<text text-anchor="middle" x="76.5" y="-55.5" font-family="Helvetica,sans-Serif" font-size="10.00">lci::get_default_packet_pool</text>
</a>
</g>
</g>
<!-- Node1&#45;&gt;Node2 -->
<g id="edge1_Node000001_Node000002" class="edge">
<title>Node1&#45;&gt;Node2</title>
<g id="a_edge1_Node000001_Node000002"><a xlink:title=" ">
<path fill="none" stroke="#63b8ff" d="M178.7,-45.2C170.1,-46.29 161.31,-47.4 152.68,-48.49"/>
<polygon fill="#63b8ff" stroke="#63b8ff" points="179.2,-48.67 188.68,-43.94 178.32,-41.72 179.2,-48.67"/>
</a>
</g>
</g>
<!-- Node3 -->
<g id="Node000003" class="node">
<title>Node3</title>
<g id="a_Node000003"><a xlink:href="../../d2/d2a/classlci_1_1get__default__packet__pool__x.html#a426cbaf51da1ed76ceecb9c639d4c533" target="_top" xlink:title=" ">
<polygon fill="white" stroke="#666666" points="140,-30 13,-30 13,0 140,0 140,-30"/>
<text text-anchor="start" x="21" y="-18" font-family="Helvetica,sans-Serif" font-size="10.00">lci::get_default_packet</text>
<text text-anchor="middle" x="76.5" y="-7" font-family="Helvetica,sans-Serif" font-size="10.00">_pool_x::operator()</text>
</a>
</g>
</g>
<!-- Node1&#45;&gt;Node3 -->
<g id="edge2_Node000001_Node000003" class="edge">
<title>Node1&#45;&gt;Node3</title>
<g id="a_edge2_Node000001_Node000003"><a xlink:title=" ">
<path fill="none" stroke="#63b8ff" d="M178.57,-27.2C165.83,-25.66 152.67,-24.07 140.23,-22.57"/>
<polygon fill="#63b8ff" stroke="#63b8ff" points="178.33,-30.7 188.68,-28.42 179.17,-23.75 178.33,-30.7"/>
</a>
</g>
</g>
</g>
</svg>
