<?xml version="1.0" encoding="UTF-8" standalone="no"?>
<!DOCTYPE svg PUBLIC "-//W3C//DTD SVG 1.1//EN"
 "http://www.w3.org/Graphics/SVG/1.1/DTD/svg11.dtd">
<!-- Generated by graphviz version 2.43.0 (0)
 -->
<!-- Title: lci::reduce_scatter_x::reduce_scatter_x Pages: 1 -->
<svg width="705pt" height="566pt"
 viewBox="0.00 0.00 705.00 566.00" xmlns="http://www.w3.org/2000/svg" xmlns:xlink="http://www.w3.org/1999/xlink">
<g id="graph0" class="graph" transform="scale(1 1) rotate(0) translate(4 562)">
<title>lci::reduce_scatter_x::reduce_scatter_x</title>
<!-- Node1 -->
<g id="Node000001" class="node">
<title>Node1</title>
<g id="a_Node000001"><a xlink:title=" ">
<polygon fill="#999999" stroke="#666666" points="697,-294 580,-294 580,-264 697,-264 697,-294"/>
<text text-anchor="start" x="588" y="-282" font-family="Helvetica,sans-Serif" font-size="10.00">lci::reduce_scatter</text>
<text text-anchor="middle" x="638.5" y="-271" font-family="Helvetica,sans-Serif" font-size="10.00">_x::reduce_scatter_x</text>
</a>
</g>
</g>
<!-- Node2 -->
<g id="Node000002" class="node">
<title>Node2</title>
<g id="a_Node000002"><a xlink:href="../../da/ded/classlci_1_1reduce__scatter__x.html#ac0bf48eb953b465c15b3ccb98bbcd300" target="_top" xlink:title=" ">
<polygon fill="white" stroke="#666666" points="538,-558 432,-558 432,-528 538,-528 538,-558"/>
<text text-anchor="start" x="440" y="-546" font-family="Helvetica,sans-Serif" font-size="10.00">lci::reduce_scatter</text>
<text text-anchor="middle" x="485" y="-535" font-family="Helvetica,sans-Serif" font-size="10.00">_x::algorithm</text>
</a>
</g>
</g>
<!-- Node1&#45;&gt;Node2 -->
<g id="edge1_Node000001_Node000002" class="edge">
<title>Node1&#45;&gt;Node2</title>
<g id="a_edge1_Node000001_Node000002"><a xlink:title=" ">
<path fill="none" stroke="#63b8ff" d="M634.27,-304.27C626.86,-352.28 604.38,-457.35 544,-519 540.65,-522.43 536.73,-525.38 532.55,-527.93"/>
<polygon fill="#63b8ff" stroke="#63b8ff" points="637.76,-304.54 635.74,-294.14 630.84,-303.53 637.76,-304.54"/>
</a>
</g>
</g>
<!-- Node7 -->
<g id="Node000007" class="node">
<title>Node7</title>
<g id="a_Node000007"><a xlink:href="../../da/ded/classlci_1_1reduce__scatter__x.html#a3fb32944ac6ea7ef4d9daf050970eb6d" target="_top" xlink:title=" ">
<polygon fill="white" stroke="#666666" points="538,-510 432,-510 432,-480 538,-480 538,-510"/>
<text text-anchor="start" x="440" y="-498" font-family="Helvetica,sans-Serif" font-size="10.00">lci::reduce_scatter</text>
<text text-anchor="middle" x="485" y="-487" font-family="Helvetica,sans-Serif" font-size="10.00">_x::comp</text>
</a>
</g>
</g>
<!-- Node1&#45;&gt;Node7 -->
<g id="edge7_Node000001_Node000007" class="edge">
<title>Node1&#45;&gt;Node7</title>
<g id="a_edge7_Node000001_Node000007"><a xlink:title=" ">
<path fill="none" stroke="#63b8ff" d="M631.52,-303.99C620.66,-344.29 594.07,-423.89 544,-471 540.35,-474.44 536.14,-477.41 531.68,-479.98"/>
<polygon fill="#63b8ff" stroke="#63b8ff" points="634.94,-304.73 634.06,-294.17 628.16,-302.98 634.94,-304.73"/>
</a>
</g>
</g>
<!-- Node8 -->
<g id="Node000008" class="node">
<title>Node8</title>
<g id="a_Node000008"><a xlink:href="../../da/ded/classlci_1_1reduce__scatter__x.html#a349d7194a48022dde17f642f4cd21e4d" target="_top" xlink:title=" ">
<polygon fill="white" stroke="#666666" points="538,-462 432,-462 432,-432 538,-432 538,-462"/>
<text text-anchor="start" x="440" y="-450" font-family="Helvetica,sans-Serif" font-size="10.00">lci::reduce_scatter</text>
<text text-anchor="middle" x="485" y="-439" font-family="Helvetica,sans-Serif" font-size="10.00">_x::device</text>
</a>
</g>
</g>
<!-- Node1&#45;&gt;Node8 -->
<g id="edge10_Node000001_Node000008" class="edge">
<title>Node1&#45;&gt;Node8</title>
<g id="a_edge10_Node000001_Node000008"><a xlink:title=" ">
<path fill="none" stroke="#63b8ff" d="M627.18,-303.57C612.79,-335.14 583.92,-389.81 544,-423 539.89,-426.41 535.24,-429.4 530.39,-432"/>
<polygon fill="#63b8ff" stroke="#63b8ff" points="630.48,-304.75 631.34,-294.19 624.09,-301.91 630.48,-304.75"/>
</a>
</g>
</g>
<!-- Node9 -->
<g id="Node000009" class="node">
<title>Node9</title>
<g id="a_Node000009"><a xlink:href="../../da/ded/classlci_1_1reduce__scatter__x.html#ae9e2bf2847e02886b44b98b8f0d48c31" target="_top" xlink:title=" ">
<polygon fill="white" stroke="#666666" points="538,-414 432,-414 432,-384 538,-384 538,-414"/>
<text text-anchor="start" x="440" y="-402" font-family="Helvetica,sans-Serif" font-size="10.00">lci::reduce_scatter</text>
<text text-anchor="middle" x="485" y="-391" font-family="Helvetica,sans-Serif" font-size="10.00">_x::endpoint</text>
</a>
</g>
</g>
<!-- Node1&#45;&gt;Node9 -->
<g id="edge13_Node000001_Node000009" class="edge">
<title>Node1&#45;&gt;Node9</title>
<g id="a_edge13_Node000001_Node000009"><a xlink:title=" ">
<path fill="none" stroke="#63b8ff" d="M619.69,-302.08C602.29,-323.34 574.1,-354.61 544,-375 539.13,-378.3 533.73,-381.28 528.25,-383.92"/>
<polygon fill="#63b8ff" stroke="#63b8ff" points="622.49,-304.17 626.02,-294.19 617.03,-299.79 622.49,-304.17"/>
</a>
</g>
</g>
<!-- Node10 -->
<g id="Node000010" class="node">
<title>Node10</title>
<g id="a_Node000010"><a xlink:href="../../da/ded/classlci_1_1reduce__scatter__x.html#a14301a2f923b7e1c70e70e242816779a" target="_top" xlink:title=" ">
<polygon fill="white" stroke="#666666" points="538,-366 432,-366 432,-336 538,-336 538,-366"/>
<text text-anchor="start" x="440" y="-354" font-family="Helvetica,sans-Serif" font-size="10.00">lci::reduce_scatter</text>
<text text-anchor="middle" x="485" y="-343" font-family="Helvetica,sans-Serif" font-size="10.00">_x::item_size</text>
</a>
</g>
</g>
<!-- Node1&#45;&gt;Node10 -->
<g id="edge16_Node000001_Node000010" class="edge">
<title>Node1&#45;&gt;Node10</title>
<g id="a_edge16_Node000001_Node000010"><a xlink:title=" ">
<path fill="none" stroke="#63b8ff" d="M600.49,-298.88C583.45,-307.81 562.86,-318.27 544,-327 537.47,-330.02 530.46,-333.08 523.64,-335.95"/>
<polygon fill="#63b8ff" stroke="#63b8ff" points="602.35,-301.86 609.56,-294.1 599.09,-295.67 602.35,-301.86"/>
</a>
</g>
</g>
<!-- Node11 -->
<g id="Node000011" class="node">
<title>Node11</title>
<g id="a_Node000011"><a xlink:href="../../da/ded/classlci_1_1reduce__scatter__x.html#a227750d64cc8cd8b1c5e80424d76bba4" target="_top" xlink:title=" ">
<polygon fill="white" stroke="#666666" points="544,-318 426,-318 426,-288 544,-288 544,-318"/>
<text text-anchor="start" x="434" y="-306" font-family="Helvetica,sans-Serif" font-size="10.00">lci::reduce_scatter</text>
<text text-anchor="middle" x="485" y="-295" font-family="Helvetica,sans-Serif" font-size="10.00">_x::matching_engine</text>
</a>
</g>
</g>
<!-- Node1&#45;&gt;Node11 -->
<g id="edge19_Node000001_Node000011" class="edge">
<title>Node1&#45;&gt;Node11</title>
<g id="a_edge19_Node000001_Node000011"><a xlink:title=" ">
<path fill="none" stroke="#63b8ff" d="M569.8,-289.73C561.2,-291.09 552.47,-292.47 544.05,-293.8"/>
<polygon fill="#63b8ff" stroke="#63b8ff" points="570.46,-293.16 579.79,-288.14 569.37,-286.25 570.46,-293.16"/>
</a>
</g>
</g>
<!-- Node12 -->
<g id="Node000012" class="node">
<title>Node12</title>
<g id="a_Node000012"><a xlink:href="../../da/ded/classlci_1_1reduce__scatter__x.html#ab80a3d5c623390b6c6ad10a316a9794e" target="_top" xlink:title=" ">
<polygon fill="white" stroke="#666666" points="538,-270 432,-270 432,-240 538,-240 538,-270"/>
<text text-anchor="start" x="440" y="-258" font-family="Helvetica,sans-Serif" font-size="10.00">lci::reduce_scatter</text>
<text text-anchor="middle" x="485" y="-247" font-family="Helvetica,sans-Serif" font-size="10.00">_x::op</text>
</a>
</g>
</g>
<!-- Node1&#45;&gt;Node12 -->
<g id="edge22_Node000001_Node000012" class="edge">
<title>Node1&#45;&gt;Node12</title>
<g id="a_edge22_Node000001_Node000012"><a xlink:title=" ">
<path fill="none" stroke="#63b8ff" d="M569.71,-268.26C559.09,-266.58 548.27,-264.86 538.08,-263.25"/>
<polygon fill="#63b8ff" stroke="#63b8ff" points="569.37,-271.75 579.79,-269.86 570.46,-264.84 569.37,-271.75"/>
</a>
</g>
</g>
<!-- Node13 -->
<g id="Node000013" class="node">
<title>Node13</title>
<g id="a_Node000013"><a xlink:href="../../da/ded/classlci_1_1reduce__scatter__x.html#a080d33c7a8bfd0ffd6b387581aec3a52" target="_top" xlink:title=" ">
<polygon fill="white" stroke="#666666" points="538,-222 432,-222 432,-192 538,-192 538,-222"/>
<text text-anchor="start" x="440" y="-210" font-family="Helvetica,sans-Serif" font-size="10.00">lci::reduce_scatter</text>
<text text-anchor="middle" x="485" y="-199" font-family="Helvetica,sans-Serif" font-size="10.00">_x::recvbuf</text>
</a>
</g>
</g>
<!-- Node1&#45;&gt;Node13 -->
<g id="edge25_Node000001_Node000013" class="edge">
<title>Node1&#45;&gt;Node13</title>
<g id="a_edge25_Node000001_Node000013"><a xlink:title=" ">
<path fill="none" stroke="#63b8ff" d="M600.49,-259.12C583.45,-250.19 562.86,-239.73 544,-231 537.47,-227.98 530.46,-224.92 523.64,-222.05"/>
<polygon fill="#63b8ff" stroke="#63b8ff" points="599.09,-262.33 609.56,-263.9 602.35,-256.14 599.09,-262.33"/>
</a>
</g>
</g>
<!-- Node14 -->
<g id="Node000014" class="node">
<title>Node14</title>
<g id="a_Node000014"><a xlink:href="../../da/ded/classlci_1_1reduce__scatter__x.html#af709db49321dc1ed8c4d2e0fa4650766" target="_top" xlink:title=" ">
<polygon fill="white" stroke="#666666" points="538,-174 432,-174 432,-144 538,-144 538,-174"/>
<text text-anchor="start" x="440" y="-162" font-family="Helvetica,sans-Serif" font-size="10.00">lci::reduce_scatter</text>
<text text-anchor="middle" x="485" y="-151" font-family="Helvetica,sans-Serif" font-size="10.00">_x::recvcount</text>
</a>
</g>
</g>
<!-- Node1&#45;&gt;Node14 -->
<g id="edge28_Node000001_Node000014" class="edge">
<title>Node1&#45;&gt;Node14</title>
<g id="a_edge28_Node000001_Node000014"><a xlink:title=" ">
<path fill="none" stroke="#63b8ff" d="M619.69,-255.92C602.29,-234.66 574.1,-203.39 544,-183 539.13,-179.7 533.73,-176.72 528.25,-174.08"/>
<polygon fill="#63b8ff" stroke="#63b8ff" points="617.03,-258.21 626.02,-263.81 622.49,-253.83 617.03,-258.21"/>
</a>
</g>
</g>
<!-- Node15 -->
<g id="Node000015" class="node">
<title>Node15</title>
<g id="a_Node000015"><a xlink:href="../../da/ded/classlci_1_1reduce__scatter__x.html#af7a9b516df424bfb7189723c7cdbbf73" target="_top" xlink:title=" ">
<polygon fill="white" stroke="#666666" points="538,-126 432,-126 432,-96 538,-96 538,-126"/>
<text text-anchor="start" x="440" y="-114" font-family="Helvetica,sans-Serif" font-size="10.00">lci::reduce_scatter</text>
<text text-anchor="middle" x="485" y="-103" font-family="Helvetica,sans-Serif" font-size="10.00">_x::ring_nsteps</text>
</a>
</g>
</g>
<!-- Node1&#45;&gt;Node15 -->
<g id="edge31_Node000001_Node000015" class="edge">
<title>Node1&#45;&gt;Node15</title>
<g id="a_edge31_Node000001_Node000015"><a xlink:title=" ">
<path fill="none" stroke="#63b8ff" d="M627.18,-254.43C612.79,-222.86 583.92,-168.19 544,-135 539.89,-131.59 535.24,-128.6 530.39,-126"/>
<polygon fill="#63b8ff" stroke="#63b8ff" points="624.09,-256.09 631.34,-263.81 630.48,-253.25 624.09,-256.09"/>
</a>
</g>
</g>
<!-- Node16 -->
<g id="Node000016" class="node">
<title>Node16</title>
<g id="a_Node000016"><a xlink:href="../../da/ded/classlci_1_1reduce__scatter__x.html#ad3014b65bef1e842365242003b95907c" target="_top" xlink:title=" ">
<polygon fill="white" stroke="#666666" points="538,-78 432,-78 432,-48 538,-48 538,-78"/>
<text text-anchor="start" x="440" y="-66" font-family="Helvetica,sans-Serif" font-size="10.00">lci::reduce_scatter</text>
<text text-anchor="middle" x="485" y="-55" font-family="Helvetica,sans-Serif" font-size="10.00">_x::runtime</text>
</a>
</g>
</g>
<!-- Node1&#45;&gt;Node16 -->
<g id="edge34_Node000001_Node000016" class="edge">
<title>Node1&#45;&gt;Node16</title>
<g id="a_edge34_Node000001_Node000016"><a xlink:title=" ">
<path fill="none" stroke="#63b8ff" d="M631.52,-254.01C620.66,-213.71 594.07,-134.11 544,-87 540.35,-83.56 536.14,-80.59 531.68,-78.02"/>
<polygon fill="#63b8ff" stroke="#63b8ff" points="628.16,-255.02 634.06,-263.83 634.94,-253.27 628.16,-255.02"/>
</a>
</g>
</g>
<!-- Node17 -->
<g id="Node000017" class="node">
<title>Node17</title>
<g id="a_Node000017"><a xlink:href="../../da/ded/classlci_1_1reduce__scatter__x.html#a39b0ae3434fce9e36de55ff431fe6b56" target="_top" xlink:title=" ">
<polygon fill="white" stroke="#666666" points="538,-30 432,-30 432,0 538,0 538,-30"/>
<text text-anchor="start" x="440" y="-18" font-family="Helvetica,sans-Serif" font-size="10.00">lci::reduce_scatter</text>
<text text-anchor="middle" x="485" y="-7" font-family="Helvetica,sans-Serif" font-size="10.00">_x::sendbuf</text>
</a>
</g>
</g>
<!-- Node1&#45;&gt;Node17 -->
<g id="edge37_Node000001_Node000017" class="edge">
<title>Node1&#45;&gt;Node17</title>
<g id="a_edge37_Node000001_Node000017"><a xlink:title=" ">
<path fill="none" stroke="#63b8ff" d="M634.27,-253.73C626.86,-205.72 604.38,-100.65 544,-39 540.65,-35.57 536.73,-32.62 532.55,-30.07"/>
<polygon fill="#63b8ff" stroke="#63b8ff" points="630.84,-254.47 635.74,-263.86 637.76,-253.46 630.84,-254.47"/>
</a>
</g>
</g>
<!-- Node3 -->
<g id="Node000003" class="node">
<title>Node3</title>
<g id="a_Node000003"><a xlink:href="../../da/ded/classlci_1_1reduce__scatter__x.html#ad009b3d0c00b5951d0116485cc00a24c" target="_top" xlink:title=" ">
<polygon fill="white" stroke="#666666" points="248,-294 142,-294 142,-264 248,-264 248,-294"/>
<text text-anchor="start" x="150" y="-282" font-family="Helvetica,sans-Serif" font-size="10.00">lci::reduce_scatter</text>
<text text-anchor="middle" x="195" y="-271" font-family="Helvetica,sans-Serif" font-size="10.00">_x::call</text>
</a>
</g>
</g>
<!-- Node2&#45;&gt;Node3 -->
<g id="edge2_Node000002_Node000003" class="edge">
<title>Node2&#45;&gt;Node3</title>
<g id="a_edge2_Node000002_Node000003"><a xlink:title=" ">
<path fill="none" stroke="#63b8ff" d="M422.13,-527.3C378.98,-513.69 322.46,-490.21 284,-453 235.58,-406.16 209.26,-327 199.94,-294.07"/>
<polygon fill="#63b8ff" stroke="#63b8ff" points="421.37,-530.73 431.96,-530.3 423.41,-524.03 421.37,-530.73"/>
</a>
</g>
</g>
<!-- Node6 -->
<g id="Node000006" class="node">
<title>Node6</title>
<g id="a_Node000006"><a xlink:href="../../da/ded/classlci_1_1reduce__scatter__x.html#a7e6668260631b80b2f1d78f2d4510127" target="_top" xlink:title=" ">
<polygon fill="white" stroke="#666666" points="390,-294 284,-294 284,-264 390,-264 390,-294"/>
<text text-anchor="start" x="292" y="-282" font-family="Helvetica,sans-Serif" font-size="10.00">lci::reduce_scatter</text>
<text text-anchor="middle" x="337" y="-271" font-family="Helvetica,sans-Serif" font-size="10.00">_x::call_impl</text>
</a>
</g>
</g>
<!-- Node2&#45;&gt;Node6 -->
<g id="edge5_Node000002_Node000006" class="edge">
<title>Node2&#45;&gt;Node6</title>
<g id="a_edge5_Node000002_Node000006"><a xlink:title=" ">
<path fill="none" stroke="#63b8ff" d="M429.27,-522.1C428.13,-521.12 427.04,-520.08 426,-519 362.08,-452.41 343.93,-335.59 339.38,-294.12"/>
<polygon fill="#63b8ff" stroke="#63b8ff" points="427.24,-524.95 437.38,-528 431.35,-519.29 427.24,-524.95"/>
</a>
</g>
</g>
<!-- Node4 -->
<g id="Node000004" class="node">
<title>Node4</title>
<g id="a_Node000004"><a xlink:href="../../da/ded/classlci_1_1reduce__scatter__x.html#abdab5e752271b6d87e3d84bcd2fc943a" target="_top" xlink:title=" ">
<polygon fill="white" stroke="#666666" points="106,-316 0,-316 0,-286 106,-286 106,-316"/>
<text text-anchor="start" x="8" y="-304" font-family="Helvetica,sans-Serif" font-size="10.00">lci::reduce_scatter</text>
<text text-anchor="middle" x="53" y="-293" font-family="Helvetica,sans-Serif" font-size="10.00">_x::operator()</text>
</a>
</g>
</g>
<!-- Node3&#45;&gt;Node4 -->
<g id="edge3_Node000003_Node000004" class="edge">
<title>Node3&#45;&gt;Node4</title>
<g id="a_edge3_Node000003_Node000004"><a xlink:title=" ">
<path fill="none" stroke="#63b8ff" d="M131.89,-288.76C123.31,-290.11 114.56,-291.48 106.17,-292.8"/>
<polygon fill="#63b8ff" stroke="#63b8ff" points="132.53,-292.2 141.87,-287.19 131.45,-285.29 132.53,-292.2"/>
</a>
</g>
</g>
<!-- Node5 -->
<g id="Node000005" class="node">
<title>Node5</title>
<g id="a_Node000005"><a xlink:href="../../d5/dd3/namespacelci.html#ae125fcd92edea24a33fc3ad31df575ec" target="_top" xlink:title=" ">
<polygon fill="white" stroke="#666666" points="106,-267.5 0,-267.5 0,-248.5 106,-248.5 106,-267.5"/>
<text text-anchor="middle" x="53" y="-255.5" font-family="Helvetica,sans-Serif" font-size="10.00">lci::reduce_scatter</text>
</a>
</g>
</g>
<!-- Node3&#45;&gt;Node5 -->
<g id="edge4_Node000003_Node000005" class="edge">
<title>Node3&#45;&gt;Node5</title>
<g id="a_edge4_Node000003_Node000005"><a xlink:title=" ">
<path fill="none" stroke="#63b8ff" d="M131.89,-269.68C123.31,-268.4 114.56,-267.08 106.17,-265.83"/>
<polygon fill="#63b8ff" stroke="#63b8ff" points="131.46,-273.16 141.87,-271.18 132.5,-266.24 131.46,-273.16"/>
</a>
</g>
</g>
<!-- Node6&#45;&gt;Node3 -->
<g id="edge6_Node000006_Node000003" class="edge">
<title>Node6&#45;&gt;Node3</title>
<g id="a_edge6_Node000006_Node000003"><a xlink:title=" ">
<path fill="none" stroke="#63b8ff" d="M273.61,-279C265.12,-279 256.47,-279 248.17,-279"/>
<polygon fill="#63b8ff" stroke="#63b8ff" points="273.87,-282.5 283.87,-279 273.87,-275.5 273.87,-282.5"/>
</a>
</g>
</g>
<!-- Node7&#45;&gt;Node3 -->
<g id="edge8_Node000007_Node000003" class="edge">
<title>Node7&#45;&gt;Node3</title>
<g id="a_edge8_Node000007_Node000003"><a xlink:title=" ">
<path fill="none" stroke="#63b8ff" d="M422.26,-479.72C379.93,-466.92 324.35,-445.3 284,-412 243.43,-378.51 214.61,-321.47 202.44,-294.28"/>
<polygon fill="#63b8ff" stroke="#63b8ff" points="421.31,-483.1 431.9,-482.56 423.29,-476.38 421.31,-483.1"/>
</a>
</g>
</g>
<!-- Node7&#45;&gt;Node6 -->
<g id="edge9_Node000007_Node000006" class="edge">
<title>Node7&#45;&gt;Node6</title>
<g id="a_edge9_Node000007_Node000006"><a xlink:title=" ">
<path fill="none" stroke="#63b8ff" d="M429.46,-474.06C428.26,-473.08 427.1,-472.06 426,-471 372.65,-419.61 348.7,-329.78 340.97,-294.17"/>
<polygon fill="#63b8ff" stroke="#63b8ff" points="427.72,-477.11 437.94,-479.9 431.69,-471.34 427.72,-477.11"/>
</a>
</g>
</g>
<!-- Node8&#45;&gt;Node3 -->
<g id="edge11_Node000008_Node000003" class="edge">
<title>Node8&#45;&gt;Node3</title>
<g id="a_edge11_Node000008_Node000003"><a xlink:title=" ">
<path fill="none" stroke="#63b8ff" d="M422.3,-432.64C380.86,-421.11 326.32,-402.14 284,-374 250.86,-351.97 221.48,-314.99 206.5,-294.26"/>
<polygon fill="#63b8ff" stroke="#63b8ff" points="421.43,-436.03 432,-435.27 423.26,-429.28 421.43,-436.03"/>
</a>
</g>
</g>
<!-- Node8&#45;&gt;Node6 -->
<g id="edge12_Node000008_Node000006" class="edge">
<title>Node8&#45;&gt;Node6</title>
<g id="a_edge12_Node000008_Node000006"><a xlink:title=" ">
<path fill="none" stroke="#63b8ff" d="M430.69,-426.64C429.06,-425.49 427.49,-424.27 426,-423 383.02,-386.26 354.83,-323.07 343.56,-294.19"/>
<polygon fill="#63b8ff" stroke="#63b8ff" points="428.88,-429.65 439.23,-431.95 432.58,-423.7 428.88,-429.65"/>
</a>
</g>
</g>
<!-- Node9&#45;&gt;Node3 -->
<g id="edge14_Node000009_Node000003" class="edge">
<title>Node9&#45;&gt;Node3</title>
<g id="a_edge14_Node000009_Node000003"><a xlink:title=" ">
<path fill="none" stroke="#63b8ff" d="M421.61,-387.52C381.08,-378.64 327.83,-364.22 284,-343 257.14,-329.99 229.91,-308.66 213,-294.24"/>
<polygon fill="#63b8ff" stroke="#63b8ff" points="421.11,-391 431.62,-389.66 422.58,-384.15 421.11,-391"/>
</a>
</g>
</g>
<!-- Node9&#45;&gt;Node6 -->
<g id="edge15_Node000009_Node000006" class="edge">
<title>Node9&#45;&gt;Node6</title>
<g id="a_edge15_Node000009_Node000006"><a xlink:title=" ">
<path fill="none" stroke="#63b8ff" d="M432.48,-379.15C430.24,-377.83 428.07,-376.45 426,-375 393.21,-352.06 363.7,-314.95 348.6,-294.23"/>
<polygon fill="#63b8ff" stroke="#63b8ff" points="430.89,-382.27 441.36,-383.91 434.19,-376.1 430.89,-382.27"/>
</a>
</g>
</g>
<!-- Node10&#45;&gt;Node3 -->
<g id="edge17_Node000010_Node000003" class="edge">
<title>Node10&#45;&gt;Node3</title>
<g id="a_edge17_Node000010_Node000003"><a xlink:title=" ">
<path fill="none" stroke="#63b8ff" d="M421.63,-345.37C381.68,-340.71 329.07,-332.58 284,-319 263.27,-312.75 241.09,-302.65 224.18,-294.15"/>
<polygon fill="#63b8ff" stroke="#63b8ff" points="421.43,-348.87 431.76,-346.51 422.22,-341.91 421.43,-348.87"/>
</a>
</g>
</g>
<!-- Node10&#45;&gt;Node6 -->
<g id="edge18_Node000010_Node000006" class="edge">
<title>Node10&#45;&gt;Node6</title>
<g id="a_edge18_Node000010_Node000006"><a xlink:title=" ">
<path fill="none" stroke="#63b8ff" d="M436.5,-331.84C432.93,-330.24 429.4,-328.62 426,-327 404.65,-316.79 381.14,-303.89 363.8,-294.03"/>
<polygon fill="#63b8ff" stroke="#63b8ff" points="435.42,-335.18 445.99,-335.96 438.21,-328.76 435.42,-335.18"/>
</a>
</g>
</g>
<!-- Node11&#45;&gt;Node3 -->
<g id="edge20_Node000011_Node000003" class="edge">
<title>Node11&#45;&gt;Node3</title>
<g id="a_edge20_Node000011_Node000003"><a xlink:title=" ">
<path fill="none" stroke="#63b8ff" d="M415.83,-307.47C377.02,-308.9 327.6,-308.84 284,-303 270.19,-301.15 255.47,-297.74 242.11,-294.05"/>
<polygon fill="#63b8ff" stroke="#63b8ff" points="416.12,-310.96 425.97,-307.05 415.83,-303.97 416.12,-310.96"/>
</a>
</g>
</g>
<!-- Node11&#45;&gt;Node6 -->
<g id="edge21_Node000011_Node000006" class="edge">
<title>Node11&#45;&gt;Node6</title>
<g id="a_edge21_Node000011_Node000006"><a xlink:title=" ">
<path fill="none" stroke="#63b8ff" d="M415.85,-291.8C407.24,-290.38 398.55,-288.95 390.25,-287.59"/>
<polygon fill="#63b8ff" stroke="#63b8ff" points="415.44,-295.28 425.88,-293.45 416.58,-288.37 415.44,-295.28"/>
</a>
</g>
</g>
<!-- Node12&#45;&gt;Node3 -->
<g id="edge23_Node000012_Node000003" class="edge">
<title>Node12&#45;&gt;Node3</title>
<g id="a_edge23_Node000012_Node000003"><a xlink:title=" ">
<path fill="none" stroke="#63b8ff" d="M421.9,-250.77C382.27,-249.11 329.91,-248.85 284,-255 270.19,-256.85 255.47,-260.26 242.11,-263.95"/>
<polygon fill="#63b8ff" stroke="#63b8ff" points="421.8,-254.27 431.95,-251.23 422.12,-247.28 421.8,-254.27"/>
</a>
</g>
</g>
<!-- Node12&#45;&gt;Node6 -->
<g id="edge24_Node000012_Node000006" class="edge">
<title>Node12&#45;&gt;Node6</title>
<g id="a_edge24_Node000012_Node000006"><a xlink:title=" ">
<path fill="none" stroke="#63b8ff" d="M421.8,-265.22C411.35,-266.94 400.6,-268.71 390.42,-270.38"/>
<polygon fill="#63b8ff" stroke="#63b8ff" points="422.4,-268.67 431.7,-263.6 421.27,-261.77 422.4,-268.67"/>
</a>
</g>
</g>
<!-- Node13&#45;&gt;Node3 -->
<g id="edge26_Node000013_Node000003" class="edge">
<title>Node13&#45;&gt;Node3</title>
<g id="a_edge26_Node000013_Node000003"><a xlink:title=" ">
<path fill="none" stroke="#63b8ff" d="M421.51,-215.89C381.72,-222.28 329.33,-232.05 284,-245 266.05,-250.13 246.63,-257.43 230.62,-263.96"/>
<polygon fill="#63b8ff" stroke="#63b8ff" points="422.27,-219.31 431.6,-214.3 421.17,-212.4 422.27,-219.31"/>
</a>
</g>
</g>
<!-- Node13&#45;&gt;Node6 -->
<g id="edge27_Node000013_Node000006" class="edge">
<title>Node13&#45;&gt;Node6</title>
<g id="a_edge27_Node000013_Node000006"><a xlink:title=" ">
<path fill="none" stroke="#63b8ff" d="M436.5,-226.16C432.93,-227.76 429.4,-229.38 426,-231 404.65,-241.21 381.14,-254.11 363.8,-263.97"/>
<polygon fill="#63b8ff" stroke="#63b8ff" points="438.21,-229.24 445.99,-222.04 435.42,-222.82 438.21,-229.24"/>
</a>
</g>
</g>
<!-- Node14&#45;&gt;Node3 -->
<g id="edge29_Node000014_Node000003" class="edge">
<title>Node14&#45;&gt;Node3</title>
<g id="a_edge29_Node000014_Node000003"><a xlink:title=" ">
<path fill="none" stroke="#63b8ff" d="M421.73,-171.44C381.25,-180.87 328.01,-195.85 284,-217 257.72,-229.63 230.79,-249.89 213.76,-263.79"/>
<polygon fill="#63b8ff" stroke="#63b8ff" points="422.76,-174.8 431.73,-169.16 421.2,-167.97 422.76,-174.8"/>
</a>
</g>
</g>
<!-- Node14&#45;&gt;Node6 -->
<g id="edge30_Node000014_Node000006" class="edge">
<title>Node14&#45;&gt;Node6</title>
<g id="a_edge30_Node000014_Node000006"><a xlink:title=" ">
<path fill="none" stroke="#63b8ff" d="M432.48,-178.85C430.24,-180.17 428.07,-181.55 426,-183 393.21,-205.94 363.7,-243.05 348.6,-263.77"/>
<polygon fill="#63b8ff" stroke="#63b8ff" points="434.19,-181.9 441.36,-174.09 430.89,-175.73 434.19,-181.9"/>
</a>
</g>
</g>
<!-- Node15&#45;&gt;Node3 -->
<g id="edge32_Node000015_Node000003" class="edge">
<title>Node15&#45;&gt;Node3</title>
<g id="a_edge32_Node000015_Node000003"><a xlink:title=" ">
<path fill="none" stroke="#63b8ff" d="M421.66,-122.03C380.09,-131.51 325.65,-148.17 284,-176 248.6,-199.65 219.27,-241.35 205.12,-263.75"/>
<polygon fill="#63b8ff" stroke="#63b8ff" points="422.65,-125.39 431.67,-119.83 421.15,-118.56 422.65,-125.39"/>
</a>
</g>
</g>
<!-- Node15&#45;&gt;Node6 -->
<g id="edge33_Node000015_Node000006" class="edge">
<title>Node15&#45;&gt;Node6</title>
<g id="a_edge33_Node000015_Node000006"><a xlink:title=" ">
<path fill="none" stroke="#63b8ff" d="M430.69,-131.36C429.06,-132.51 427.49,-133.73 426,-135 383.02,-171.74 354.83,-234.93 343.56,-263.81"/>
<polygon fill="#63b8ff" stroke="#63b8ff" points="432.58,-134.3 439.23,-126.05 428.88,-128.35 432.58,-134.3"/>
</a>
</g>
</g>
<!-- Node16&#45;&gt;Node3 -->
<g id="edge35_Node000016_Node000003" class="edge">
<title>Node16&#45;&gt;Node3</title>
<g id="a_edge35_Node000016_Node000003"><a xlink:title=" ">
<path fill="none" stroke="#63b8ff" d="M421.88,-70.53C379.28,-78.38 323.54,-94.22 284,-126 237.19,-163.62 210.47,-233.32 200.52,-263.93"/>
<polygon fill="#63b8ff" stroke="#63b8ff" points="422.6,-73.96 431.85,-68.79 421.4,-67.06 422.6,-73.96"/>
</a>
</g>
</g>
<!-- Node16&#45;&gt;Node6 -->
<g id="edge36_Node000016_Node000006" class="edge">
<title>Node16&#45;&gt;Node6</title>
<g id="a_edge36_Node000016_Node000006"><a xlink:title=" ">
<path fill="none" stroke="#63b8ff" d="M429.46,-83.94C428.26,-84.92 427.1,-85.94 426,-87 372.65,-138.39 348.7,-228.22 340.97,-263.83"/>
<polygon fill="#63b8ff" stroke="#63b8ff" points="431.69,-86.66 437.94,-78.1 427.72,-80.89 431.69,-86.66"/>
</a>
</g>
</g>
<!-- Node17&#45;&gt;Node3 -->
<g id="edge38_Node000017_Node000003" class="edge">
<title>Node17&#45;&gt;Node3</title>
<g id="a_edge38_Node000017_Node000003"><a xlink:title=" ">
<path fill="none" stroke="#63b8ff" d="M421.6,-19.6C378.37,-25.81 321.97,-40.29 284,-74 224.77,-126.59 204.02,-225.97 198.06,-263.83"/>
<polygon fill="#63b8ff" stroke="#63b8ff" points="422.28,-23.04 431.73,-18.26 421.36,-16.1 422.28,-23.04"/>
</a>
</g>
</g>
<!-- Node17&#45;&gt;Node6 -->
<g id="edge39_Node000017_Node000006" class="edge">
<title>Node17&#45;&gt;Node6</title>
<g id="a_edge39_Node000017_Node000006"><a xlink:title=" ">
<path fill="none" stroke="#63b8ff" d="M429.27,-35.9C428.13,-36.88 427.04,-37.92 426,-39 362.08,-105.59 343.93,-222.41 339.38,-263.88"/>
<polygon fill="#63b8ff" stroke="#63b8ff" points="431.35,-38.71 437.38,-30 427.24,-33.05 431.35,-38.71"/>
</a>
</g>
</g>
</g>
</svg>
