<?xml version="1.0" encoding="UTF-8" standalone="no"?>
<!DOCTYPE svg PUBLIC "-//W3C//DTD SVG 1.1//EN"
 "http://www.w3.org/Graphics/SVG/1.1/DTD/svg11.dtd">
<!-- Generated by graphviz version 2.43.0 (0)
 -->
<!-- Title: lci::reduce_scatter_x::call Pages: 1 -->
<svg width="567pt" height="609pt"
 viewBox="0.00 0.00 567.00 609.00" xmlns="http://www.w3.org/2000/svg" xmlns:xlink="http://www.w3.org/1999/xlink">
<g id="graph0" class="graph" transform="scale(1 1) rotate(0) translate(4 605)">
<title>lci::reduce_scatter_x::call</title>
<!-- Node1 -->
<g id="Node000001" class="node">
<title>Node1</title>
<g id="a_Node000001"><a xlink:title=" ">
<polygon fill="#999999" stroke="#666666" points="106,-314 0,-314 0,-284 106,-284 106,-314"/>
<text text-anchor="start" x="8" y="-302" font-family="Helvetica,sans-Serif" font-size="10.00">lci::reduce_scatter</text>
<text text-anchor="middle" x="53" y="-291" font-family="Helvetica,sans-Serif" font-size="10.00">_x::call</text>
</a>
</g>
</g>
<!-- Node2 -->
<g id="Node000002" class="node">
<title>Node2</title>
<g id="a_Node000002"><a xlink:href="../../da/ded/classlci_1_1reduce__scatter__x.html#ac0bf48eb953b465c15b3ccb98bbcd300" target="_top" xlink:title=" ">
<polygon fill="white" stroke="#666666" points="398,-457 292,-457 292,-427 398,-427 398,-457"/>
<text text-anchor="start" x="300" y="-445" font-family="Helvetica,sans-Serif" font-size="10.00">lci::reduce_scatter</text>
<text text-anchor="middle" x="345" y="-434" font-family="Helvetica,sans-Serif" font-size="10.00">_x::algorithm</text>
</a>
</g>
</g>
<!-- Node1&#45;&gt;Node2 -->
<g id="edge1_Node000001_Node000002" class="edge">
<title>Node1&#45;&gt;Node2</title>
<g id="a_edge1_Node000001_Node000002"><a xlink:title=" ">
<path fill="none" stroke="#63b8ff" d="M64.31,-314.25C79.07,-334.87 108.2,-371.31 142,-391 184.88,-415.98 239.81,-428.83 281.56,-435.38"/>
<polygon fill="#63b8ff" stroke="#63b8ff" points="281.2,-438.87 291.61,-436.88 282.23,-431.94 281.2,-438.87"/>
</a>
</g>
</g>
<!-- Node4 -->
<g id="Node000004" class="node">
<title>Node4</title>
<g id="a_Node000004"><a xlink:href="../../da/ded/classlci_1_1reduce__scatter__x.html#a7e6668260631b80b2f1d78f2d4510127" target="_top" xlink:title=" ">
<polygon fill="white" stroke="#666666" points="248,-336 142,-336 142,-306 248,-306 248,-336"/>
<text text-anchor="start" x="150" y="-324" font-family="Helvetica,sans-Serif" font-size="10.00">lci::reduce_scatter</text>
<text text-anchor="middle" x="195" y="-313" font-family="Helvetica,sans-Serif" font-size="10.00">_x::call_impl</text>
</a>
</g>
</g>
<!-- Node1&#45;&gt;Node4 -->
<g id="edge3_Node000001_Node000004" class="edge">
<title>Node1&#45;&gt;Node4</title>
<g id="a_edge3_Node000001_Node000004"><a xlink:title=" ">
<path fill="none" stroke="#63b8ff" d="M106.13,-307.19C114.51,-308.51 123.26,-309.88 131.85,-311.23"/>
<polygon fill="#63b8ff" stroke="#63b8ff" points="131.4,-314.71 141.83,-312.8 132.49,-307.79 131.4,-314.71"/>
</a>
</g>
</g>
<!-- Node5 -->
<g id="Node000005" class="node">
<title>Node5</title>
<g id="a_Node000005"><a xlink:href="../../da/ded/classlci_1_1reduce__scatter__x.html#a3fb32944ac6ea7ef4d9daf050970eb6d" target="_top" xlink:title=" ">
<polygon fill="white" stroke="#666666" points="398,-409 292,-409 292,-379 398,-379 398,-409"/>
<text text-anchor="start" x="300" y="-397" font-family="Helvetica,sans-Serif" font-size="10.00">lci::reduce_scatter</text>
<text text-anchor="middle" x="345" y="-386" font-family="Helvetica,sans-Serif" font-size="10.00">_x::comp</text>
</a>
</g>
</g>
<!-- Node1&#45;&gt;Node5 -->
<g id="edge27_Node000001_Node000005" class="edge">
<title>Node1&#45;&gt;Node5</title>
<g id="a_edge27_Node000001_Node000005"><a xlink:title=" ">
<path fill="none" stroke="#63b8ff" d="M69.38,-314.1C85.88,-329.34 113.56,-352.25 142,-364 186.56,-382.41 240.77,-389.73 281.81,-392.54"/>
<polygon fill="#63b8ff" stroke="#63b8ff" points="281.75,-396.04 291.95,-393.16 282.18,-389.06 281.75,-396.04"/>
</a>
</g>
</g>
<!-- Node6 -->
<g id="Node000006" class="node">
<title>Node6</title>
<g id="a_Node000006"><a xlink:href="../../da/ded/classlci_1_1reduce__scatter__x.html#a349d7194a48022dde17f642f4cd21e4d" target="_top" xlink:title=" ">
<polygon fill="white" stroke="#666666" points="398,-361 292,-361 292,-331 398,-331 398,-361"/>
<text text-anchor="start" x="300" y="-349" font-family="Helvetica,sans-Serif" font-size="10.00">lci::reduce_scatter</text>
<text text-anchor="middle" x="345" y="-338" font-family="Helvetica,sans-Serif" font-size="10.00">_x::device</text>
</a>
</g>
</g>
<!-- Node1&#45;&gt;Node6 -->
<g id="edge28_Node000001_Node000006" class="edge">
<title>Node1&#45;&gt;Node6</title>
<g id="a_edge28_Node000001_Node000006"><a xlink:title=" ">
<path fill="none" stroke="#63b8ff" d="M75.6,-314.05C92.73,-325.02 117.74,-338.98 142,-345 187.81,-356.37 241.29,-356.06 281.71,-353.21"/>
<polygon fill="#63b8ff" stroke="#63b8ff" points="281.99,-356.7 291.69,-352.44 281.45,-349.72 281.99,-356.7"/>
</a>
</g>
</g>
<!-- Node7 -->
<g id="Node000007" class="node">
<title>Node7</title>
<g id="a_Node000007"><a xlink:href="../../da/ded/classlci_1_1reduce__scatter__x.html#ae9e2bf2847e02886b44b98b8f0d48c31" target="_top" xlink:title=" ">
<polygon fill="white" stroke="#666666" points="398,-313 292,-313 292,-283 398,-283 398,-313"/>
<text text-anchor="start" x="300" y="-301" font-family="Helvetica,sans-Serif" font-size="10.00">lci::reduce_scatter</text>
<text text-anchor="middle" x="345" y="-290" font-family="Helvetica,sans-Serif" font-size="10.00">_x::endpoint</text>
</a>
</g>
</g>
<!-- Node1&#45;&gt;Node7 -->
<g id="edge29_Node000001_Node000007" class="edge">
<title>Node1&#45;&gt;Node7</title>
<g id="a_edge29_Node000001_Node000007"><a xlink:title=" ">
<path fill="none" stroke="#63b8ff" d="M106.11,-297.62C117.91,-297.36 130.39,-297.13 142,-297 188.78,-296.47 241.65,-296.76 281.56,-297.17"/>
<polygon fill="#63b8ff" stroke="#63b8ff" points="281.65,-300.67 291.68,-297.27 281.72,-293.67 281.65,-300.67"/>
</a>
</g>
</g>
<!-- Node8 -->
<g id="Node000008" class="node">
<title>Node8</title>
<g id="a_Node000008"><a xlink:href="../../da/ded/classlci_1_1reduce__scatter__x.html#a14301a2f923b7e1c70e70e242816779a" target="_top" xlink:title=" ">
<polygon fill="white" stroke="#666666" points="398,-265 292,-265 292,-235 398,-235 398,-265"/>
<text text-anchor="start" x="300" y="-253" font-family="Helvetica,sans-Serif" font-size="10.00">lci::reduce_scatter</text>
<text text-anchor="middle" x="345" y="-242" font-family="Helvetica,sans-Serif" font-size="10.00">_x::item_size</text>
</a>
</g>
</g>
<!-- Node1&#45;&gt;Node8 -->
<g id="edge33_Node000001_Node000008" class="edge">
<title>Node1&#45;&gt;Node8</title>
<g id="a_edge33_Node000001_Node000008"><a xlink:title=" ">
<path fill="none" stroke="#63b8ff" d="M106.18,-290.18C155.41,-281.87 229.26,-269.39 281.58,-260.55"/>
<polygon fill="#63b8ff" stroke="#63b8ff" points="282.47,-263.95 291.75,-258.83 281.31,-257.04 282.47,-263.95"/>
</a>
</g>
</g>
<!-- Node9 -->
<g id="Node000009" class="node">
<title>Node9</title>
<g id="a_Node000009"><a xlink:href="../../da/ded/classlci_1_1reduce__scatter__x.html#a227750d64cc8cd8b1c5e80424d76bba4" target="_top" xlink:title=" ">
<polygon fill="white" stroke="#666666" points="404,-217 286,-217 286,-187 404,-187 404,-217"/>
<text text-anchor="start" x="294" y="-205" font-family="Helvetica,sans-Serif" font-size="10.00">lci::reduce_scatter</text>
<text text-anchor="middle" x="345" y="-194" font-family="Helvetica,sans-Serif" font-size="10.00">_x::matching_engine</text>
</a>
</g>
</g>
<!-- Node1&#45;&gt;Node9 -->
<g id="edge34_Node000001_Node000009" class="edge">
<title>Node1&#45;&gt;Node9</title>
<g id="a_edge34_Node000001_Node000009"><a xlink:title=" ">
<path fill="none" stroke="#63b8ff" d="M90.14,-283.86C105.95,-277.44 124.78,-270.05 142,-264 188.2,-247.75 241.14,-231.59 281.24,-219.84"/>
<polygon fill="#63b8ff" stroke="#63b8ff" points="282.26,-223.19 290.88,-217.03 280.3,-216.47 282.26,-223.19"/>
</a>
</g>
</g>
<!-- Node10 -->
<g id="Node000010" class="node">
<title>Node10</title>
<g id="a_Node000010"><a xlink:href="../../da/ded/classlci_1_1reduce__scatter__x.html#ab80a3d5c623390b6c6ad10a316a9794e" target="_top" xlink:title=" ">
<polygon fill="white" stroke="#666666" points="398,-169 292,-169 292,-139 398,-139 398,-169"/>
<text text-anchor="start" x="300" y="-157" font-family="Helvetica,sans-Serif" font-size="10.00">lci::reduce_scatter</text>
<text text-anchor="middle" x="345" y="-146" font-family="Helvetica,sans-Serif" font-size="10.00">_x::op</text>
</a>
</g>
</g>
<!-- Node1&#45;&gt;Node10 -->
<g id="edge35_Node000001_Node000010" class="edge">
<title>Node1&#45;&gt;Node10</title>
<g id="a_edge35_Node000001_Node000010"><a xlink:title=" ">
<path fill="none" stroke="#63b8ff" d="M69.02,-283.98C85.65,-268.03 113.85,-242.98 142,-227 186.28,-201.86 240.8,-182.77 282.03,-170.43"/>
<polygon fill="#63b8ff" stroke="#63b8ff" points="283.07,-173.77 291.68,-167.59 281.1,-167.06 283.07,-173.77"/>
</a>
</g>
</g>
<!-- Node11 -->
<g id="Node000011" class="node">
<title>Node11</title>
<g id="a_Node000011"><a xlink:href="../../da/ded/classlci_1_1reduce__scatter__x.html#a080d33c7a8bfd0ffd6b387581aec3a52" target="_top" xlink:title=" ">
<polygon fill="white" stroke="#666666" points="398,-121 292,-121 292,-91 398,-91 398,-121"/>
<text text-anchor="start" x="300" y="-109" font-family="Helvetica,sans-Serif" font-size="10.00">lci::reduce_scatter</text>
<text text-anchor="middle" x="345" y="-98" font-family="Helvetica,sans-Serif" font-size="10.00">_x::recvbuf</text>
</a>
</g>
</g>
<!-- Node1&#45;&gt;Node11 -->
<g id="edge36_Node000001_Node000011" class="edge">
<title>Node1&#45;&gt;Node11</title>
<g id="a_edge36_Node000001_Node000011"><a xlink:title=" ">
<path fill="none" stroke="#63b8ff" d="M61.3,-283.85C74.19,-258.63 103.32,-207.94 142,-179 183.46,-147.98 239.38,-129.13 281.87,-118.38"/>
<polygon fill="#63b8ff" stroke="#63b8ff" points="282.93,-121.72 291.82,-115.95 281.27,-114.92 282.93,-121.72"/>
</a>
</g>
</g>
<!-- Node12 -->
<g id="Node000012" class="node">
<title>Node12</title>
<g id="a_Node000012"><a xlink:href="../../da/ded/classlci_1_1reduce__scatter__x.html#af709db49321dc1ed8c4d2e0fa4650766" target="_top" xlink:title=" ">
<polygon fill="white" stroke="#666666" points="398,-73 292,-73 292,-43 398,-43 398,-73"/>
<text text-anchor="start" x="300" y="-61" font-family="Helvetica,sans-Serif" font-size="10.00">lci::reduce_scatter</text>
<text text-anchor="middle" x="345" y="-50" font-family="Helvetica,sans-Serif" font-size="10.00">_x::recvcount</text>
</a>
</g>
</g>
<!-- Node1&#45;&gt;Node12 -->
<g id="edge37_Node000001_Node000012" class="edge">
<title>Node1&#45;&gt;Node12</title>
<g id="a_edge37_Node000001_Node000012"><a xlink:title=" ">
<path fill="none" stroke="#63b8ff" d="M57.49,-283.76C65.98,-250.13 90.85,-169.09 142,-125 181.33,-91.09 238.37,-74.22 281.81,-65.9"/>
<polygon fill="#63b8ff" stroke="#63b8ff" points="282.48,-69.34 291.7,-64.11 281.23,-62.45 282.48,-69.34"/>
</a>
</g>
</g>
<!-- Node13 -->
<g id="Node000013" class="node">
<title>Node13</title>
<g id="a_Node000013"><a xlink:href="../../da/ded/classlci_1_1reduce__scatter__x.html#af7a9b516df424bfb7189723c7cdbbf73" target="_top" xlink:title=" ">
<polygon fill="white" stroke="#666666" points="398,-601 292,-601 292,-571 398,-571 398,-601"/>
<text text-anchor="start" x="300" y="-589" font-family="Helvetica,sans-Serif" font-size="10.00">lci::reduce_scatter</text>
<text text-anchor="middle" x="345" y="-578" font-family="Helvetica,sans-Serif" font-size="10.00">_x::ring_nsteps</text>
</a>
</g>
</g>
<!-- Node1&#45;&gt;Node13 -->
<g id="edge38_Node000001_Node000013" class="edge">
<title>Node1&#45;&gt;Node13</title>
<g id="a_edge38_Node000001_Node000013"><a xlink:title=" ">
<path fill="none" stroke="#63b8ff" d="M56.54,-314.26C63.48,-351.48 86.12,-447.87 142,-503 180.26,-540.75 238.1,-562.15 282.1,-573.72"/>
<polygon fill="#63b8ff" stroke="#63b8ff" points="281.27,-577.12 291.83,-576.18 282.99,-570.34 281.27,-577.12"/>
</a>
</g>
</g>
<!-- Node14 -->
<g id="Node000014" class="node">
<title>Node14</title>
<g id="a_Node000014"><a xlink:href="../../da/ded/classlci_1_1reduce__scatter__x.html#ad3014b65bef1e842365242003b95907c" target="_top" xlink:title=" ">
<polygon fill="white" stroke="#666666" points="398,-553 292,-553 292,-523 398,-523 398,-553"/>
<text text-anchor="start" x="300" y="-541" font-family="Helvetica,sans-Serif" font-size="10.00">lci::reduce_scatter</text>
<text text-anchor="middle" x="345" y="-530" font-family="Helvetica,sans-Serif" font-size="10.00">_x::runtime</text>
</a>
</g>
</g>
<!-- Node1&#45;&gt;Node14 -->
<g id="edge39_Node000001_Node000014" class="edge">
<title>Node1&#45;&gt;Node14</title>
<g id="a_edge39_Node000001_Node000014"><a xlink:title=" ">
<path fill="none" stroke="#63b8ff" d="M58.26,-314.34C67.89,-346.27 94.28,-420.33 142,-462 181.67,-496.64 238.67,-516.15 282.01,-526.71"/>
<polygon fill="#63b8ff" stroke="#63b8ff" points="281.34,-530.14 291.88,-529.01 282.94,-523.33 281.34,-530.14"/>
</a>
</g>
</g>
<!-- Node15 -->
<g id="Node000015" class="node">
<title>Node15</title>
<g id="a_Node000015"><a xlink:href="../../da/ded/classlci_1_1reduce__scatter__x.html#a39b0ae3434fce9e36de55ff431fe6b56" target="_top" xlink:title=" ">
<polygon fill="white" stroke="#666666" points="398,-505 292,-505 292,-475 398,-475 398,-505"/>
<text text-anchor="start" x="300" y="-493" font-family="Helvetica,sans-Serif" font-size="10.00">lci::reduce_scatter</text>
<text text-anchor="middle" x="345" y="-482" font-family="Helvetica,sans-Serif" font-size="10.00">_x::sendbuf</text>
</a>
</g>
</g>
<!-- Node1&#45;&gt;Node15 -->
<g id="edge40_Node000001_Node000015" class="edge">
<title>Node1&#45;&gt;Node15</title>
<g id="a_edge40_Node000001_Node000015"><a xlink:title=" ">
<path fill="none" stroke="#63b8ff" d="M60.59,-314.22C72.8,-340.64 101.44,-395.04 142,-425 183.15,-455.4 239.09,-471.94 281.68,-480.72"/>
<polygon fill="#63b8ff" stroke="#63b8ff" points="281.16,-484.18 291.64,-482.68 282.51,-477.32 281.16,-484.18"/>
</a>
</g>
</g>
<!-- Node16 -->
<g id="Node000016" class="node">
<title>Node16</title>
<g id="a_Node000016"><a xlink:href="../../d5/dd3/namespacelci.html#a6e99f95e9b71b259ea5078c23d0ff4b9" target="_top" xlink:title=" ">
<polygon fill="white" stroke="#666666" points="239,-35.5 151,-35.5 151,-16.5 239,-16.5 239,-35.5"/>
<text text-anchor="middle" x="195" y="-23.5" font-family="Helvetica,sans-Serif" font-size="10.00">lci::get_rank_n</text>
</a>
</g>
</g>
<!-- Node1&#45;&gt;Node16 -->
<g id="edge30_Node000001_Node000016" class="edge">
<title>Node1&#45;&gt;Node16</title>
<g id="a_edge30_Node000001_Node000016"><a xlink:title=" ">
<path fill="none" stroke="#63b8ff" d="M55.91,-283.93C61.78,-243.08 82.88,-128.49 142,-57 147.37,-50.51 154.47,-45.04 161.7,-40.6"/>
<polygon fill="#63b8ff" stroke="#63b8ff" points="163.78,-43.44 170.8,-35.51 160.36,-37.33 163.78,-43.44"/>
</a>
</g>
</g>
<!-- Node3 -->
<g id="Node000003" class="node">
<title>Node3</title>
<g id="a_Node000003"><a xlink:href="../../da/ded/classlci_1_1reduce__scatter__x.html#ae3c03bc50234e6ecd4211f97dca9106e" target="_top" xlink:title=" ">
<polygon fill="white" stroke="#666666" points="559,-337 442,-337 442,-307 559,-307 559,-337"/>
<text text-anchor="start" x="450" y="-325" font-family="Helvetica,sans-Serif" font-size="10.00">lci::reduce_scatter</text>
<text text-anchor="middle" x="500.5" y="-314" font-family="Helvetica,sans-Serif" font-size="10.00">_x::reduce_scatter_x</text>
</a>
</g>
</g>
<!-- Node2&#45;&gt;Node3 -->
<g id="edge2_Node000002_Node000003" class="edge">
<title>Node2&#45;&gt;Node3</title>
<g id="a_edge2_Node000002_Node000003"><a xlink:title=" ">
<path fill="none" stroke="#63b8ff" d="M390.03,-426.9C395.59,-424.27 401.06,-421.31 406,-418 436.22,-397.79 464.38,-366.48 481.74,-345.16"/>
<polygon fill="#63b8ff" stroke="#63b8ff" points="484.56,-347.24 488.06,-337.24 479.09,-342.87 484.56,-347.24"/>
</a>
</g>
</g>
<!-- Node4&#45;&gt;Node2 -->
<g id="edge4_Node000004_Node000002" class="edge">
<title>Node4&#45;&gt;Node2</title>
<g id="a_edge4_Node000004_Node000002"><a xlink:title=" ">
<path fill="none" stroke="#63b8ff" d="M206.27,-336.1C221.2,-357.03 250.76,-394.91 284,-418 286.1,-419.46 288.29,-420.84 290.56,-422.16"/>
<polygon fill="#63b8ff" stroke="#63b8ff" points="289.07,-425.34 299.55,-426.91 292.34,-419.15 289.07,-425.34"/>
</a>
</g>
</g>
<!-- Node4&#45;&gt;Node5 -->
<g id="edge5_Node000004_Node000005" class="edge">
<title>Node4&#45;&gt;Node5</title>
<g id="a_edge5_Node000004_Node000005"><a xlink:title=" ">
<path fill="none" stroke="#63b8ff" d="M220.97,-336.02C238.34,-346.2 262.21,-359.63 284,-370 287.55,-371.69 291.24,-373.36 294.98,-375"/>
<polygon fill="#63b8ff" stroke="#63b8ff" points="293.74,-378.27 304.32,-378.96 296.48,-371.83 293.74,-378.27"/>
</a>
</g>
</g>
<!-- Node4&#45;&gt;Node6 -->
<g id="edge7_Node000004_Node000006" class="edge">
<title>Node4&#45;&gt;Node6</title>
<g id="a_edge7_Node000004_Node000006"><a xlink:title=" ">
<path fill="none" stroke="#63b8ff" d="M248.18,-329.81C259.01,-331.64 270.53,-333.59 281.68,-335.47"/>
<polygon fill="#63b8ff" stroke="#63b8ff" points="281.35,-338.97 291.79,-337.18 282.52,-332.06 281.35,-338.97"/>
</a>
</g>
</g>
<!-- Node4&#45;&gt;Node7 -->
<g id="edge9_Node000004_Node000007" class="edge">
<title>Node4&#45;&gt;Node7</title>
<g id="a_edge9_Node000004_Node000007"><a xlink:title=" ">
<path fill="none" stroke="#63b8ff" d="M248.18,-312.89C259.01,-311.21 270.53,-309.42 281.68,-307.68"/>
<polygon fill="#63b8ff" stroke="#63b8ff" points="282.45,-311.11 291.79,-306.11 281.37,-304.19 282.45,-311.11"/>
</a>
</g>
</g>
<!-- Node4&#45;&gt;Node8 -->
<g id="edge11_Node000004_Node000008" class="edge">
<title>Node4&#45;&gt;Node8</title>
<g id="a_edge11_Node000004_Node000008"><a xlink:title=" ">
<path fill="none" stroke="#63b8ff" d="M222.57,-305.82C239.83,-296.21 262.96,-283.79 284,-274 287.62,-272.32 291.38,-270.64 295.19,-269"/>
<polygon fill="#63b8ff" stroke="#63b8ff" points="296.82,-272.11 304.68,-265.01 294.11,-265.66 296.82,-272.11"/>
</a>
</g>
</g>
<!-- Node4&#45;&gt;Node9 -->
<g id="edge13_Node000004_Node000009" class="edge">
<title>Node4&#45;&gt;Node9</title>
<g id="a_edge13_Node000004_Node000009"><a xlink:title=" ">
<path fill="none" stroke="#63b8ff" d="M206.6,-305.88C221.69,-285.32 251.2,-248.54 284,-226 286.1,-224.55 288.31,-223.18 290.58,-221.87"/>
<polygon fill="#63b8ff" stroke="#63b8ff" points="292.35,-224.88 299.58,-217.14 289.1,-218.69 292.35,-224.88"/>
</a>
</g>
</g>
<!-- Node4&#45;&gt;Node10 -->
<g id="edge15_Node000004_Node000010" class="edge">
<title>Node4&#45;&gt;Node10</title>
<g id="a_edge15_Node000004_Node000010"><a xlink:title=" ">
<path fill="none" stroke="#63b8ff" d="M201.55,-305.87C212.8,-277.11 240.96,-214.24 284,-178 285.51,-176.73 287.1,-175.51 288.75,-174.36"/>
<polygon fill="#63b8ff" stroke="#63b8ff" points="290.68,-177.28 297.39,-169.08 287.03,-171.31 290.68,-177.28"/>
</a>
</g>
</g>
<!-- Node4&#45;&gt;Node11 -->
<g id="edge17_Node000004_Node000011" class="edge">
<title>Node4&#45;&gt;Node11</title>
<g id="a_edge17_Node000004_Node000011"><a xlink:title=" ">
<path fill="none" stroke="#63b8ff" d="M198.96,-305.87C206.65,-270.35 230.53,-180.8 284,-130 285.12,-128.94 286.29,-127.92 287.51,-126.95"/>
<polygon fill="#63b8ff" stroke="#63b8ff" points="289.77,-129.64 296.07,-121.12 285.83,-123.85 289.77,-129.64"/>
</a>
</g>
</g>
<!-- Node4&#45;&gt;Node12 -->
<g id="edge19_Node000004_Node000012" class="edge">
<title>Node4&#45;&gt;Node12</title>
<g id="a_edge19_Node000004_Node000012"><a xlink:title=" ">
<path fill="none" stroke="#63b8ff" d="M197.36,-305.9C201.86,-264.5 219.87,-147.93 284,-82 285.05,-80.92 286.16,-79.89 287.31,-78.9"/>
<polygon fill="#63b8ff" stroke="#63b8ff" points="289.42,-81.69 295.5,-73.01 285.33,-76.01 289.42,-81.69"/>
</a>
</g>
</g>
<!-- Node4&#45;&gt;Node13 -->
<g id="edge21_Node000004_Node000013" class="edge">
<title>Node4&#45;&gt;Node13</title>
<g id="a_edge21_Node000004_Node000013"><a xlink:title=" ">
<path fill="none" stroke="#63b8ff" d="M197.32,-336.23C201.72,-377.96 219.49,-495.5 284,-562 285.05,-563.08 286.15,-564.12 287.31,-565.11"/>
<polygon fill="#63b8ff" stroke="#63b8ff" points="285.33,-567.99 295.49,-571 289.42,-562.31 285.33,-567.99"/>
</a>
</g>
</g>
<!-- Node4&#45;&gt;Node14 -->
<g id="edge23_Node000004_Node000014" class="edge">
<title>Node4&#45;&gt;Node14</title>
<g id="a_edge23_Node000004_Node000014"><a xlink:title=" ">
<path fill="none" stroke="#63b8ff" d="M198.85,-336.02C206.38,-371.73 230.04,-462.53 284,-514 285.12,-515.06 286.29,-516.08 287.5,-517.06"/>
<polygon fill="#63b8ff" stroke="#63b8ff" points="285.82,-520.15 296.06,-522.89 289.76,-514.37 285.82,-520.15"/>
</a>
</g>
</g>
<!-- Node4&#45;&gt;Node15 -->
<g id="edge25_Node000004_Node000015" class="edge">
<title>Node4&#45;&gt;Node15</title>
<g id="a_edge25_Node000004_Node000015"><a xlink:title=" ">
<path fill="none" stroke="#63b8ff" d="M201.49,-336.35C212.64,-365.5 240.64,-429.26 284,-466 285.51,-467.28 287.09,-468.49 288.74,-469.65"/>
<polygon fill="#63b8ff" stroke="#63b8ff" points="287.01,-472.7 297.37,-474.95 290.68,-466.73 287.01,-472.7"/>
</a>
</g>
</g>
<!-- Node5&#45;&gt;Node3 -->
<g id="edge6_Node000005_Node000003" class="edge">
<title>Node5&#45;&gt;Node3</title>
<g id="a_edge6_Node000005_Node000003"><a xlink:title=" ">
<path fill="none" stroke="#63b8ff" d="M385.28,-378.9C392.23,-376.06 399.36,-373.02 406,-370 424.91,-361.38 445.51,-350.93 462.54,-341.99"/>
<polygon fill="#63b8ff" stroke="#63b8ff" points="464.4,-344.96 471.61,-337.19 461.13,-338.77 464.4,-344.96"/>
</a>
</g>
</g>
<!-- Node6&#45;&gt;Node3 -->
<g id="edge8_Node000006_Node000003" class="edge">
<title>Node6&#45;&gt;Node3</title>
<g id="a_edge8_Node000006_Node000003"><a xlink:title=" ">
<path fill="none" stroke="#63b8ff" d="M398.4,-337.81C409.1,-336.13 420.51,-334.35 431.67,-332.61"/>
<polygon fill="#63b8ff" stroke="#63b8ff" points="432.48,-336.02 441.82,-331.02 431.4,-329.11 432.48,-336.02"/>
</a>
</g>
</g>
<!-- Node7&#45;&gt;Node3 -->
<g id="edge10_Node000007_Node000003" class="edge">
<title>Node7&#45;&gt;Node3</title>
<g id="a_edge10_Node000007_Node000003"><a xlink:title=" ">
<path fill="none" stroke="#63b8ff" d="M398.4,-306.19C409.1,-307.87 420.51,-309.65 431.67,-311.39"/>
<polygon fill="#63b8ff" stroke="#63b8ff" points="431.4,-314.89 441.82,-312.98 432.48,-307.98 431.4,-314.89"/>
</a>
</g>
</g>
<!-- Node8&#45;&gt;Node3 -->
<g id="edge12_Node000008_Node000003" class="edge">
<title>Node8&#45;&gt;Node3</title>
<g id="a_edge12_Node000008_Node000003"><a xlink:title=" ">
<path fill="none" stroke="#63b8ff" d="M385.28,-265.1C392.23,-267.94 399.36,-270.98 406,-274 424.91,-282.62 445.51,-293.07 462.54,-302.01"/>
<polygon fill="#63b8ff" stroke="#63b8ff" points="461.13,-305.23 471.61,-306.81 464.4,-299.04 461.13,-305.23"/>
</a>
</g>
</g>
<!-- Node9&#45;&gt;Node3 -->
<g id="edge14_Node000009_Node000003" class="edge">
<title>Node9&#45;&gt;Node3</title>
<g id="a_edge14_Node000009_Node000003"><a xlink:title=" ">
<path fill="none" stroke="#63b8ff" d="M390.03,-217.1C395.59,-219.73 401.06,-222.69 406,-226 436.22,-246.21 464.38,-277.52 481.74,-298.84"/>
<polygon fill="#63b8ff" stroke="#63b8ff" points="479.09,-301.13 488.06,-306.76 484.56,-296.76 479.09,-301.13"/>
</a>
</g>
</g>
<!-- Node10&#45;&gt;Node3 -->
<g id="edge16_Node000010_Node000003" class="edge">
<title>Node10&#45;&gt;Node3</title>
<g id="a_edge16_Node000010_Node000003"><a xlink:title=" ">
<path fill="none" stroke="#63b8ff" d="M392.22,-169.02C397.13,-171.6 401.84,-174.58 406,-178 446.11,-210.95 474.92,-265.71 489.24,-297.36"/>
<polygon fill="#63b8ff" stroke="#63b8ff" points="486.15,-299.02 493.38,-306.76 492.55,-296.2 486.15,-299.02"/>
</a>
</g>
</g>
<!-- Node11&#45;&gt;Node3 -->
<g id="edge18_Node000011_Node000003" class="edge">
<title>Node11&#45;&gt;Node3</title>
<g id="a_edge18_Node000011_Node000003"><a xlink:title=" ">
<path fill="none" stroke="#63b8ff" d="M393.55,-121.03C398.05,-123.59 402.3,-126.56 406,-130 456.35,-176.82 482.81,-256.55 493.58,-296.95"/>
<polygon fill="#63b8ff" stroke="#63b8ff" points="490.23,-297.96 496.1,-306.78 497.01,-296.23 490.23,-297.96"/>
</a>
</g>
</g>
<!-- Node12&#45;&gt;Node3 -->
<g id="edge20_Node000012_Node000003" class="edge">
<title>Node12&#45;&gt;Node3</title>
<g id="a_edge20_Node000012_Node000003"><a xlink:title=" ">
<path fill="none" stroke="#63b8ff" d="M394.44,-73.08C398.66,-75.62 402.6,-78.57 406,-82 466.74,-143.29 489.04,-248.55 496.33,-296.66"/>
<polygon fill="#63b8ff" stroke="#63b8ff" points="492.9,-297.41 497.78,-306.82 499.83,-296.43 492.9,-297.41"/>
</a>
</g>
</g>
<!-- Node13&#45;&gt;Node3 -->
<g id="edge22_Node000013_Node000003" class="edge">
<title>Node13&#45;&gt;Node3</title>
<g id="a_edge22_Node000013_Node000003"><a xlink:title=" ">
<path fill="none" stroke="#63b8ff" d="M394.44,-570.92C398.66,-568.38 402.6,-565.43 406,-562 466.74,-500.71 489.04,-395.45 496.33,-347.34"/>
<polygon fill="#63b8ff" stroke="#63b8ff" points="499.83,-347.57 497.78,-337.18 492.9,-346.59 499.83,-347.57"/>
</a>
</g>
</g>
<!-- Node14&#45;&gt;Node3 -->
<g id="edge24_Node000014_Node000003" class="edge">
<title>Node14&#45;&gt;Node3</title>
<g id="a_edge24_Node000014_Node000003"><a xlink:title=" ">
<path fill="none" stroke="#63b8ff" d="M393.55,-522.97C398.05,-520.41 402.3,-517.44 406,-514 456.35,-467.18 482.81,-387.45 493.58,-347.05"/>
<polygon fill="#63b8ff" stroke="#63b8ff" points="497.01,-347.77 496.1,-337.22 490.23,-346.04 497.01,-347.77"/>
</a>
</g>
</g>
<!-- Node15&#45;&gt;Node3 -->
<g id="edge26_Node000015_Node000003" class="edge">
<title>Node15&#45;&gt;Node3</title>
<g id="a_edge26_Node000015_Node000003"><a xlink:title=" ">
<path fill="none" stroke="#63b8ff" d="M392.22,-474.98C397.13,-472.4 401.84,-469.42 406,-466 446.11,-433.05 474.92,-378.29 489.24,-346.64"/>
<polygon fill="#63b8ff" stroke="#63b8ff" points="492.55,-347.8 493.38,-337.24 486.15,-344.98 492.55,-347.8"/>
</a>
</g>
</g>
<!-- Node17 -->
<g id="Node000017" class="node">
<title>Node17</title>
<g id="a_Node000017"><a xlink:href="../../db/db4/classlci_1_1get__rank__n__x.html#a93794a0207bdeb2f4ae0ec4b09a94ccf" target="_top" xlink:title=" ">
<polygon fill="white" stroke="#666666" points="406,-24.5 284,-24.5 284,-5.5 406,-5.5 406,-24.5"/>
<text text-anchor="middle" x="345" y="-12.5" font-family="Helvetica,sans-Serif" font-size="10.00">lci::get_rank_n_x::call</text>
</a>
</g>
</g>
<!-- Node16&#45;&gt;Node17 -->
<g id="edge31_Node000016_Node000017" class="edge">
<title>Node16&#45;&gt;Node17</title>
<g id="a_edge31_Node000016_Node000017"><a xlink:title=" ">
<path fill="none" stroke="#63b8ff" d="M239.21,-22.79C250.03,-21.98 261.92,-21.1 273.69,-20.23"/>
<polygon fill="#63b8ff" stroke="#63b8ff" points="274.25,-23.69 283.97,-19.46 273.73,-16.71 274.25,-23.69"/>
</a>
</g>
</g>
<!-- Node18 -->
<g id="Node000018" class="node">
<title>Node18</title>
<g id="a_Node000018"><a xlink:href="../../db/db4/classlci_1_1get__rank__n__x.html#a8e725bdd606fdf81f49ae8e859a4d99e" target="_top" xlink:title=" ">
<polygon fill="white" stroke="#666666" points="553,-30 448,-30 448,0 553,0 553,-30"/>
<text text-anchor="start" x="456" y="-18" font-family="Helvetica,sans-Serif" font-size="10.00">lci::get_rank_n_x::</text>
<text text-anchor="middle" x="500.5" y="-7" font-family="Helvetica,sans-Serif" font-size="10.00">call_impl</text>
</a>
</g>
</g>
<!-- Node17&#45;&gt;Node18 -->
<g id="edge32_Node000017_Node000018" class="edge">
<title>Node17&#45;&gt;Node18</title>
<g id="a_edge32_Node000017_Node000018"><a xlink:title=" ">
<path fill="none" stroke="#63b8ff" d="M406.23,-15C416.56,-15 427.31,-15 437.68,-15"/>
<polygon fill="#63b8ff" stroke="#63b8ff" points="437.9,-18.5 447.9,-15 437.9,-11.5 437.9,-18.5"/>
</a>
</g>
</g>
</g>
</svg>
