<?xml version="1.0" encoding="UTF-8" standalone="no"?>
<!DOCTYPE svg PUBLIC "-//W3C//DTD SVG 1.1//EN"
 "http://www.w3.org/Graphics/SVG/1.1/DTD/svg11.dtd">
<!-- Generated by graphviz version 2.43.0 (0)
 -->
<!-- Title: lci::reduce_scatter_x::operator() Pages: 1 -->
<svg width="705pt" height="569pt"
 viewBox="0.00 0.00 705.00 568.50" xmlns="http://www.w3.org/2000/svg" xmlns:xlink="http://www.w3.org/1999/xlink">
<g id="graph0" class="graph" transform="scale(1 1) rotate(0) translate(4 564.5)">
<title>lci::reduce_scatter_x::operator()</title>
<!-- Node1 -->
<g id="Node000001" class="node">
<title>Node1</title>
<g id="a_Node000001"><a xlink:title=" ">
<polygon fill="#999999" stroke="#666666" points="106,-273.5 0,-273.5 0,-243.5 106,-243.5 106,-273.5"/>
<text text-anchor="start" x="8" y="-261.5" font-family="Helvetica,sans-Serif" font-size="10.00">lci::reduce_scatter</text>
<text text-anchor="middle" x="53" y="-250.5" font-family="Helvetica,sans-Serif" font-size="10.00">_x::operator()</text>
</a>
</g>
</g>
<!-- Node2 -->
<g id="Node000002" class="node">
<title>Node2</title>
<g id="a_Node000002"><a xlink:href="../../da/ded/classlci_1_1reduce__scatter__x.html#ad009b3d0c00b5951d0116485cc00a24c" target="_top" xlink:title=" ">
<polygon fill="white" stroke="#666666" points="248,-273.5 142,-273.5 142,-243.5 248,-243.5 248,-273.5"/>
<text text-anchor="start" x="150" y="-261.5" font-family="Helvetica,sans-Serif" font-size="10.00">lci::reduce_scatter</text>
<text text-anchor="middle" x="195" y="-250.5" font-family="Helvetica,sans-Serif" font-size="10.00">_x::call</text>
</a>
</g>
</g>
<!-- Node1&#45;&gt;Node2 -->
<g id="edge1_Node000001_Node000002" class="edge">
<title>Node1&#45;&gt;Node2</title>
<g id="a_edge1_Node000001_Node000002"><a xlink:title=" ">
<path fill="none" stroke="#63b8ff" d="M106.13,-258.5C114.42,-258.5 123.07,-258.5 131.57,-258.5"/>
<polygon fill="#63b8ff" stroke="#63b8ff" points="131.83,-262 141.83,-258.5 131.83,-255 131.83,-262"/>
</a>
</g>
</g>
<!-- Node3 -->
<g id="Node000003" class="node">
<title>Node3</title>
<g id="a_Node000003"><a xlink:href="../../da/ded/classlci_1_1reduce__scatter__x.html#ac0bf48eb953b465c15b3ccb98bbcd300" target="_top" xlink:title=" ">
<polygon fill="white" stroke="#666666" points="538,-560.5 432,-560.5 432,-530.5 538,-530.5 538,-560.5"/>
<text text-anchor="start" x="440" y="-548.5" font-family="Helvetica,sans-Serif" font-size="10.00">lci::reduce_scatter</text>
<text text-anchor="middle" x="485" y="-537.5" font-family="Helvetica,sans-Serif" font-size="10.00">_x::algorithm</text>
</a>
</g>
</g>
<!-- Node2&#45;&gt;Node3 -->
<g id="edge2_Node000002_Node000003" class="edge">
<title>Node2&#45;&gt;Node3</title>
<g id="a_edge2_Node000002_Node000003"><a xlink:title=" ">
<path fill="none" stroke="#63b8ff" d="M198.62,-273.57C205.76,-310.34 228.82,-405.6 284,-460.5 321.72,-498.02 378.57,-520 422.03,-532.17"/>
<polygon fill="#63b8ff" stroke="#63b8ff" points="421.36,-535.61 431.92,-534.84 423.18,-528.86 421.36,-535.61"/>
</a>
</g>
</g>
<!-- Node5 -->
<g id="Node000005" class="node">
<title>Node5</title>
<g id="a_Node000005"><a xlink:href="../../da/ded/classlci_1_1reduce__scatter__x.html#a7e6668260631b80b2f1d78f2d4510127" target="_top" xlink:title=" ">
<polygon fill="white" stroke="#666666" points="390,-295.5 284,-295.5 284,-265.5 390,-265.5 390,-295.5"/>
<text text-anchor="start" x="292" y="-283.5" font-family="Helvetica,sans-Serif" font-size="10.00">lci::reduce_scatter</text>
<text text-anchor="middle" x="337" y="-272.5" font-family="Helvetica,sans-Serif" font-size="10.00">_x::call_impl</text>
</a>
</g>
</g>
<!-- Node2&#45;&gt;Node5 -->
<g id="edge4_Node000002_Node000005" class="edge">
<title>Node2&#45;&gt;Node5</title>
<g id="a_edge4_Node000002_Node000005"><a xlink:title=" ">
<path fill="none" stroke="#63b8ff" d="M248.13,-266.69C256.51,-268.01 265.26,-269.38 273.85,-270.73"/>
<polygon fill="#63b8ff" stroke="#63b8ff" points="273.4,-274.21 283.83,-272.3 274.49,-267.29 273.4,-274.21"/>
</a>
</g>
</g>
<!-- Node6 -->
<g id="Node000006" class="node">
<title>Node6</title>
<g id="a_Node000006"><a xlink:href="../../da/ded/classlci_1_1reduce__scatter__x.html#a3fb32944ac6ea7ef4d9daf050970eb6d" target="_top" xlink:title=" ">
<polygon fill="white" stroke="#666666" points="538,-512.5 432,-512.5 432,-482.5 538,-482.5 538,-512.5"/>
<text text-anchor="start" x="440" y="-500.5" font-family="Helvetica,sans-Serif" font-size="10.00">lci::reduce_scatter</text>
<text text-anchor="middle" x="485" y="-489.5" font-family="Helvetica,sans-Serif" font-size="10.00">_x::comp</text>
</a>
</g>
</g>
<!-- Node2&#45;&gt;Node6 -->
<g id="edge28_Node000002_Node000006" class="edge">
<title>Node2&#45;&gt;Node6</title>
<g id="a_edge28_Node000002_Node000006"><a xlink:title=" ">
<path fill="none" stroke="#63b8ff" d="M200.36,-273.61C210.17,-305.06 236.87,-378.06 284,-419.5 323.21,-453.97 379.4,-474.08 422.24,-485.21"/>
<polygon fill="#63b8ff" stroke="#63b8ff" points="421.44,-488.62 431.99,-487.65 423.14,-481.83 421.44,-488.62"/>
</a>
</g>
</g>
<!-- Node7 -->
<g id="Node000007" class="node">
<title>Node7</title>
<g id="a_Node000007"><a xlink:href="../../da/ded/classlci_1_1reduce__scatter__x.html#a349d7194a48022dde17f642f4cd21e4d" target="_top" xlink:title=" ">
<polygon fill="white" stroke="#666666" points="538,-464.5 432,-464.5 432,-434.5 538,-434.5 538,-464.5"/>
<text text-anchor="start" x="440" y="-452.5" font-family="Helvetica,sans-Serif" font-size="10.00">lci::reduce_scatter</text>
<text text-anchor="middle" x="485" y="-441.5" font-family="Helvetica,sans-Serif" font-size="10.00">_x::device</text>
</a>
</g>
</g>
<!-- Node2&#45;&gt;Node7 -->
<g id="edge29_Node000002_Node000007" class="edge">
<title>Node2&#45;&gt;Node7</title>
<g id="a_edge29_Node000002_Node000007"><a xlink:title=" ">
<path fill="none" stroke="#63b8ff" d="M202.94,-273.7C215.49,-299.53 244.37,-352.07 284,-381.5 324.75,-411.76 379.9,-429.18 421.96,-438.79"/>
<polygon fill="#63b8ff" stroke="#63b8ff" points="421.29,-442.23 431.81,-440.96 422.8,-435.39 421.29,-442.23"/>
</a>
</g>
</g>
<!-- Node8 -->
<g id="Node000008" class="node">
<title>Node8</title>
<g id="a_Node000008"><a xlink:href="../../da/ded/classlci_1_1reduce__scatter__x.html#ae9e2bf2847e02886b44b98b8f0d48c31" target="_top" xlink:title=" ">
<polygon fill="white" stroke="#666666" points="538,-416.5 432,-416.5 432,-386.5 538,-386.5 538,-416.5"/>
<text text-anchor="start" x="440" y="-404.5" font-family="Helvetica,sans-Serif" font-size="10.00">lci::reduce_scatter</text>
<text text-anchor="middle" x="485" y="-393.5" font-family="Helvetica,sans-Serif" font-size="10.00">_x::endpoint</text>
</a>
</g>
</g>
<!-- Node2&#45;&gt;Node8 -->
<g id="edge30_Node000002_Node000008" class="edge">
<title>Node2&#45;&gt;Node8</title>
<g id="a_edge30_Node000002_Node000008"><a xlink:title=" ">
<path fill="none" stroke="#63b8ff" d="M206.68,-273.7C221.64,-293.85 250.77,-329.13 284,-348.5 326.43,-373.24 380.59,-386.67 421.84,-393.81"/>
<polygon fill="#63b8ff" stroke="#63b8ff" points="421.33,-397.28 431.77,-395.46 422.47,-390.37 421.33,-397.28"/>
</a>
</g>
</g>
<!-- Node9 -->
<g id="Node000009" class="node">
<title>Node9</title>
<g id="a_Node000009"><a xlink:href="../../da/ded/classlci_1_1reduce__scatter__x.html#a14301a2f923b7e1c70e70e242816779a" target="_top" xlink:title=" ">
<polygon fill="white" stroke="#666666" points="538,-368.5 432,-368.5 432,-338.5 538,-338.5 538,-368.5"/>
<text text-anchor="start" x="440" y="-356.5" font-family="Helvetica,sans-Serif" font-size="10.00">lci::reduce_scatter</text>
<text text-anchor="middle" x="485" y="-345.5" font-family="Helvetica,sans-Serif" font-size="10.00">_x::item_size</text>
</a>
</g>
</g>
<!-- Node2&#45;&gt;Node9 -->
<g id="edge32_Node000002_Node000009" class="edge">
<title>Node2&#45;&gt;Node9</title>
<g id="a_edge32_Node000002_Node000009"><a xlink:title=" ">
<path fill="none" stroke="#63b8ff" d="M211.75,-273.61C228.33,-288.58 255.88,-310.9 284,-322.5 327.87,-340.6 381.11,-348.23 421.63,-351.4"/>
<polygon fill="#63b8ff" stroke="#63b8ff" points="421.42,-354.89 431.65,-352.11 421.92,-347.91 421.42,-354.89"/>
</a>
</g>
</g>
<!-- Node10 -->
<g id="Node000010" class="node">
<title>Node10</title>
<g id="a_Node000010"><a xlink:href="../../da/ded/classlci_1_1reduce__scatter__x.html#a227750d64cc8cd8b1c5e80424d76bba4" target="_top" xlink:title=" ">
<polygon fill="white" stroke="#666666" points="544,-320.5 426,-320.5 426,-290.5 544,-290.5 544,-320.5"/>
<text text-anchor="start" x="434" y="-308.5" font-family="Helvetica,sans-Serif" font-size="10.00">lci::reduce_scatter</text>
<text text-anchor="middle" x="485" y="-297.5" font-family="Helvetica,sans-Serif" font-size="10.00">_x::matching_engine</text>
</a>
</g>
</g>
<!-- Node2&#45;&gt;Node10 -->
<g id="edge33_Node000002_Node000010" class="edge">
<title>Node2&#45;&gt;Node10</title>
<g id="a_edge33_Node000002_Node000010"><a xlink:title=" ">
<path fill="none" stroke="#63b8ff" d="M217.6,-273.55C234.73,-284.52 259.74,-298.48 284,-304.5 326.85,-315.14 376.46,-315.45 415.56,-313.08"/>
<polygon fill="#63b8ff" stroke="#63b8ff" points="416.04,-316.56 425.78,-312.38 415.56,-309.57 416.04,-316.56"/>
</a>
</g>
</g>
<!-- Node11 -->
<g id="Node000011" class="node">
<title>Node11</title>
<g id="a_Node000011"><a xlink:href="../../da/ded/classlci_1_1reduce__scatter__x.html#ab80a3d5c623390b6c6ad10a316a9794e" target="_top" xlink:title=" ">
<polygon fill="white" stroke="#666666" points="538,-272.5 432,-272.5 432,-242.5 538,-242.5 538,-272.5"/>
<text text-anchor="start" x="440" y="-260.5" font-family="Helvetica,sans-Serif" font-size="10.00">lci::reduce_scatter</text>
<text text-anchor="middle" x="485" y="-249.5" font-family="Helvetica,sans-Serif" font-size="10.00">_x::op</text>
</a>
</g>
</g>
<!-- Node2&#45;&gt;Node11 -->
<g id="edge34_Node000002_Node000011" class="edge">
<title>Node2&#45;&gt;Node11</title>
<g id="a_edge34_Node000002_Node000011"><a xlink:title=" ">
<path fill="none" stroke="#63b8ff" d="M248.11,-257.12C259.91,-256.86 272.39,-256.63 284,-256.5 330.15,-255.98 382.3,-256.27 421.77,-256.67"/>
<polygon fill="#63b8ff" stroke="#63b8ff" points="421.74,-260.17 431.78,-256.77 421.82,-253.17 421.74,-260.17"/>
</a>
</g>
</g>
<!-- Node12 -->
<g id="Node000012" class="node">
<title>Node12</title>
<g id="a_Node000012"><a xlink:href="../../da/ded/classlci_1_1reduce__scatter__x.html#a080d33c7a8bfd0ffd6b387581aec3a52" target="_top" xlink:title=" ">
<polygon fill="white" stroke="#666666" points="538,-224.5 432,-224.5 432,-194.5 538,-194.5 538,-224.5"/>
<text text-anchor="start" x="440" y="-212.5" font-family="Helvetica,sans-Serif" font-size="10.00">lci::reduce_scatter</text>
<text text-anchor="middle" x="485" y="-201.5" font-family="Helvetica,sans-Serif" font-size="10.00">_x::recvbuf</text>
</a>
</g>
</g>
<!-- Node2&#45;&gt;Node12 -->
<g id="edge35_Node000002_Node000012" class="edge">
<title>Node2&#45;&gt;Node12</title>
<g id="a_edge35_Node000002_Node000012"><a xlink:title=" ">
<path fill="none" stroke="#63b8ff" d="M248.15,-249.63C296.94,-241.33 369.85,-228.92 421.68,-220.1"/>
<polygon fill="#63b8ff" stroke="#63b8ff" points="422.48,-223.52 431.75,-218.39 421.3,-216.62 422.48,-223.52"/>
</a>
</g>
</g>
<!-- Node13 -->
<g id="Node000013" class="node">
<title>Node13</title>
<g id="a_Node000013"><a xlink:href="../../da/ded/classlci_1_1reduce__scatter__x.html#af709db49321dc1ed8c4d2e0fa4650766" target="_top" xlink:title=" ">
<polygon fill="white" stroke="#666666" points="538,-176.5 432,-176.5 432,-146.5 538,-146.5 538,-176.5"/>
<text text-anchor="start" x="440" y="-164.5" font-family="Helvetica,sans-Serif" font-size="10.00">lci::reduce_scatter</text>
<text text-anchor="middle" x="485" y="-153.5" font-family="Helvetica,sans-Serif" font-size="10.00">_x::recvcount</text>
</a>
</g>
</g>
<!-- Node2&#45;&gt;Node13 -->
<g id="edge36_Node000002_Node000013" class="edge">
<title>Node2&#45;&gt;Node13</title>
<g id="a_edge36_Node000002_Node000013"><a xlink:title=" ">
<path fill="none" stroke="#63b8ff" d="M230.83,-243.39C246.88,-236.64 266.27,-228.81 284,-222.5 329.71,-206.22 382.22,-190.31 421.96,-178.82"/>
<polygon fill="#63b8ff" stroke="#63b8ff" points="423.13,-182.13 431.77,-176 421.19,-175.4 423.13,-182.13"/>
</a>
</g>
</g>
<!-- Node14 -->
<g id="Node000014" class="node">
<title>Node14</title>
<g id="a_Node000014"><a xlink:href="../../da/ded/classlci_1_1reduce__scatter__x.html#af7a9b516df424bfb7189723c7cdbbf73" target="_top" xlink:title=" ">
<polygon fill="white" stroke="#666666" points="538,-128.5 432,-128.5 432,-98.5 538,-98.5 538,-128.5"/>
<text text-anchor="start" x="440" y="-116.5" font-family="Helvetica,sans-Serif" font-size="10.00">lci::reduce_scatter</text>
<text text-anchor="middle" x="485" y="-105.5" font-family="Helvetica,sans-Serif" font-size="10.00">_x::ring_nsteps</text>
</a>
</g>
</g>
<!-- Node2&#45;&gt;Node14 -->
<g id="edge37_Node000002_Node000014" class="edge">
<title>Node2&#45;&gt;Node14</title>
<g id="a_edge37_Node000002_Node000014"><a xlink:title=" ">
<path fill="none" stroke="#63b8ff" d="M210.62,-243.3C227.12,-226.88 255.42,-200.87 284,-184.5 327.42,-159.63 381.05,-141.17 421.85,-129.31"/>
<polygon fill="#63b8ff" stroke="#63b8ff" points="423.01,-132.62 431.66,-126.51 421.09,-125.89 423.01,-132.62"/>
</a>
</g>
</g>
<!-- Node15 -->
<g id="Node000015" class="node">
<title>Node15</title>
<g id="a_Node000015"><a xlink:href="../../da/ded/classlci_1_1reduce__scatter__x.html#ad3014b65bef1e842365242003b95907c" target="_top" xlink:title=" ">
<polygon fill="white" stroke="#666666" points="538,-80.5 432,-80.5 432,-50.5 538,-50.5 538,-80.5"/>
<text text-anchor="start" x="440" y="-68.5" font-family="Helvetica,sans-Serif" font-size="10.00">lci::reduce_scatter</text>
<text text-anchor="middle" x="485" y="-57.5" font-family="Helvetica,sans-Serif" font-size="10.00">_x::runtime</text>
</a>
</g>
</g>
<!-- Node2&#45;&gt;Node15 -->
<g id="edge38_Node000002_Node000015" class="edge">
<title>Node2&#45;&gt;Node15</title>
<g id="a_edge38_Node000002_Node000015"><a xlink:title=" ">
<path fill="none" stroke="#63b8ff" d="M202.92,-243.2C215.44,-217.18 244.28,-164.25 284,-134.5 324.69,-104.02 379.84,-86.33 421.92,-76.51"/>
<polygon fill="#63b8ff" stroke="#63b8ff" points="422.79,-79.9 431.78,-74.3 421.25,-73.07 422.79,-79.9"/>
</a>
</g>
</g>
<!-- Node16 -->
<g id="Node000016" class="node">
<title>Node16</title>
<g id="a_Node000016"><a xlink:href="../../da/ded/classlci_1_1reduce__scatter__x.html#a39b0ae3434fce9e36de55ff431fe6b56" target="_top" xlink:title=" ">
<polygon fill="white" stroke="#666666" points="538,-32.5 432,-32.5 432,-2.5 538,-2.5 538,-32.5"/>
<text text-anchor="start" x="440" y="-20.5" font-family="Helvetica,sans-Serif" font-size="10.00">lci::reduce_scatter</text>
<text text-anchor="middle" x="485" y="-9.5" font-family="Helvetica,sans-Serif" font-size="10.00">_x::sendbuf</text>
</a>
</g>
</g>
<!-- Node2&#45;&gt;Node16 -->
<g id="edge39_Node000002_Node000016" class="edge">
<title>Node2&#45;&gt;Node16</title>
<g id="a_edge39_Node000002_Node000016"><a xlink:title=" ">
<path fill="none" stroke="#63b8ff" d="M199.25,-243.47C207.39,-209.51 231.8,-126.33 284,-81.5 322.66,-48.3 378.74,-32.27 421.68,-24.57"/>
<polygon fill="#63b8ff" stroke="#63b8ff" points="422.46,-27.98 431.74,-22.87 421.3,-21.08 422.46,-27.98"/>
</a>
</g>
</g>
<!-- Node17 -->
<g id="Node000017" class="node">
<title>Node17</title>
<g id="a_Node000017"><a xlink:href="../../d8/d33/group__LCI__BASIC.html#ga6e99f95e9b71b259ea5078c23d0ff4b9" target="_top" xlink:title="Get the number of ranks in the current application/job.">
<polygon fill="white" stroke="#666666" points="381,-19 293,-19 293,0 381,0 381,-19"/>
<text text-anchor="middle" x="337" y="-7" font-family="Helvetica,sans-Serif" font-size="10.00">lci::get_rank_n</text>
</a>
</g>
</g>
<!-- Node2&#45;&gt;Node17 -->
<g id="edge31_Node000002_Node000017" class="edge">
<title>Node2&#45;&gt;Node17</title>
<g id="a_edge31_Node000002_Node000017"><a xlink:title=" ">
<path fill="none" stroke="#63b8ff" d="M197.98,-243.3C203.87,-203.76 224.75,-96.39 284,-33.5 287.53,-29.75 291.76,-26.54 296.27,-23.79"/>
<polygon fill="#63b8ff" stroke="#63b8ff" points="297.95,-26.86 305.15,-19.09 294.67,-20.68 297.95,-26.86"/>
</a>
</g>
</g>
<!-- Node4 -->
<g id="Node000004" class="node">
<title>Node4</title>
<g id="a_Node000004"><a xlink:href="../../da/ded/classlci_1_1reduce__scatter__x.html#ae3c03bc50234e6ecd4211f97dca9106e" target="_top" xlink:title=" ">
<polygon fill="white" stroke="#666666" points="697,-296.5 580,-296.5 580,-266.5 697,-266.5 697,-296.5"/>
<text text-anchor="start" x="588" y="-284.5" font-family="Helvetica,sans-Serif" font-size="10.00">lci::reduce_scatter</text>
<text text-anchor="middle" x="638.5" y="-273.5" font-family="Helvetica,sans-Serif" font-size="10.00">_x::reduce_scatter_x</text>
</a>
</g>
</g>
<!-- Node3&#45;&gt;Node4 -->
<g id="edge3_Node000003_Node000004" class="edge">
<title>Node3&#45;&gt;Node4</title>
<g id="a_edge3_Node000003_Node000004"><a xlink:title=" ">
<path fill="none" stroke="#63b8ff" d="M532.55,-530.43C536.73,-527.88 540.65,-524.93 544,-521.5 604.38,-459.85 626.86,-354.78 634.27,-306.77"/>
<polygon fill="#63b8ff" stroke="#63b8ff" points="637.76,-307.04 635.74,-296.64 630.84,-306.03 637.76,-307.04"/>
</a>
</g>
</g>
<!-- Node5&#45;&gt;Node3 -->
<g id="edge5_Node000005_Node000003" class="edge">
<title>Node5&#45;&gt;Node3</title>
<g id="a_edge5_Node000005_Node000003"><a xlink:title=" ">
<path fill="none" stroke="#63b8ff" d="M339.36,-295.69C343.86,-337.32 361.89,-454.62 426,-521.5 426.91,-522.45 427.87,-523.37 428.86,-524.25"/>
<polygon fill="#63b8ff" stroke="#63b8ff" points="426.97,-527.2 437.09,-530.33 431.13,-521.57 426.97,-527.2"/>
</a>
</g>
</g>
<!-- Node5&#45;&gt;Node6 -->
<g id="edge6_Node000005_Node000006" class="edge">
<title>Node5&#45;&gt;Node6</title>
<g id="a_edge6_Node000005_Node000006"><a xlink:title=" ">
<path fill="none" stroke="#63b8ff" d="M340.95,-295.74C348.63,-331.54 372.48,-421.84 426,-473.5 427.1,-474.56 428.26,-475.58 429.46,-476.56"/>
<polygon fill="#63b8ff" stroke="#63b8ff" points="427.72,-479.61 437.94,-482.4 431.69,-473.85 427.72,-479.61"/>
</a>
</g>
</g>
<!-- Node5&#45;&gt;Node7 -->
<g id="edge8_Node000005_Node000007" class="edge">
<title>Node5&#45;&gt;Node7</title>
<g id="a_edge8_Node000005_Node000007"><a xlink:title=" ">
<path fill="none" stroke="#63b8ff" d="M343.53,-295.8C354.75,-324.88 382.86,-388.51 426,-425.5 427.49,-426.78 429.06,-427.99 430.68,-429.15"/>
<polygon fill="#63b8ff" stroke="#63b8ff" points="428.88,-432.15 439.22,-434.46 432.57,-426.21 428.88,-432.15"/>
</a>
</g>
</g>
<!-- Node5&#45;&gt;Node8 -->
<g id="edge10_Node000005_Node000008" class="edge">
<title>Node5&#45;&gt;Node8</title>
<g id="a_edge10_Node000005_Node000008"><a xlink:title=" ">
<path fill="none" stroke="#63b8ff" d="M348.31,-295.54C363.29,-316.41 392.9,-354.21 426,-377.5 428.07,-378.95 430.23,-380.34 432.47,-381.66"/>
<polygon fill="#63b8ff" stroke="#63b8ff" points="430.87,-384.78 441.34,-386.43 434.19,-378.61 430.87,-384.78"/>
</a>
</g>
</g>
<!-- Node5&#45;&gt;Node9 -->
<g id="edge12_Node000005_Node000009" class="edge">
<title>Node5&#45;&gt;Node9</title>
<g id="a_edge12_Node000005_Node000009"><a xlink:title=" ">
<path fill="none" stroke="#63b8ff" d="M363.38,-295.66C380.74,-305.78 404.43,-319.08 426,-329.5 429.34,-331.11 432.81,-332.72 436.32,-334.29"/>
<polygon fill="#63b8ff" stroke="#63b8ff" points="435.09,-337.58 445.66,-338.37 437.9,-331.16 435.09,-337.58"/>
</a>
</g>
</g>
<!-- Node5&#45;&gt;Node10 -->
<g id="edge14_Node000005_Node000010" class="edge">
<title>Node5&#45;&gt;Node10</title>
<g id="a_edge14_Node000005_Node000010"><a xlink:title=" ">
<path fill="none" stroke="#63b8ff" d="M390.3,-289.45C398.59,-290.87 407.27,-292.36 415.86,-293.83"/>
<polygon fill="#63b8ff" stroke="#63b8ff" points="415.43,-297.31 425.87,-295.55 416.61,-290.41 415.43,-297.31"/>
</a>
</g>
</g>
<!-- Node5&#45;&gt;Node11 -->
<g id="edge16_Node000005_Node000011" class="edge">
<title>Node5&#45;&gt;Node11</title>
<g id="a_edge16_Node000005_Node000011"><a xlink:title=" ">
<path fill="none" stroke="#63b8ff" d="M390.3,-272.26C400.47,-270.66 411.22,-268.97 421.67,-267.32"/>
<polygon fill="#63b8ff" stroke="#63b8ff" points="422.24,-270.77 431.58,-265.76 421.15,-263.86 422.24,-270.77"/>
</a>
</g>
</g>
<!-- Node5&#45;&gt;Node12 -->
<g id="edge18_Node000005_Node000012" class="edge">
<title>Node5&#45;&gt;Node12</title>
<g id="a_edge18_Node000005_Node000012"><a xlink:title=" ">
<path fill="none" stroke="#63b8ff" d="M364.61,-265.41C381.89,-255.83 405.02,-243.42 426,-233.5 429.4,-231.89 432.94,-230.28 436.52,-228.7"/>
<polygon fill="#63b8ff" stroke="#63b8ff" points="438.23,-231.77 446.01,-224.59 435.45,-225.35 438.23,-231.77"/>
</a>
</g>
</g>
<!-- Node5&#45;&gt;Node13 -->
<g id="edge20_Node000005_Node000013" class="edge">
<title>Node5&#45;&gt;Node13</title>
<g id="a_edge20_Node000005_Node000013"><a xlink:title=" ">
<path fill="none" stroke="#63b8ff" d="M348.64,-265.44C363.77,-244.94 393.34,-208.23 426,-185.5 428.07,-184.06 430.25,-182.68 432.49,-181.36"/>
<polygon fill="#63b8ff" stroke="#63b8ff" points="434.2,-184.42 441.37,-176.62 430.9,-178.24 434.2,-184.42"/>
</a>
</g>
</g>
<!-- Node5&#45;&gt;Node14 -->
<g id="edge22_Node000005_Node000014" class="edge">
<title>Node5&#45;&gt;Node14</title>
<g id="a_edge22_Node000005_Node000014"><a xlink:title=" ">
<path fill="none" stroke="#63b8ff" d="M343.59,-265.41C354.91,-236.74 383.18,-173.99 426,-137.5 427.49,-136.23 429.06,-135.02 430.69,-133.86"/>
<polygon fill="#63b8ff" stroke="#63b8ff" points="432.58,-136.81 439.24,-128.57 428.89,-130.86 432.58,-136.81"/>
</a>
</g>
</g>
<!-- Node5&#45;&gt;Node15 -->
<g id="edge24_Node000005_Node000015" class="edge">
<title>Node5&#45;&gt;Node15</title>
<g id="a_edge24_Node000005_Node000015"><a xlink:title=" ">
<path fill="none" stroke="#63b8ff" d="M341,-265.41C348.78,-229.98 372.83,-140.61 426,-89.5 427.1,-88.44 428.26,-87.42 429.47,-86.44"/>
<polygon fill="#63b8ff" stroke="#63b8ff" points="431.69,-89.16 437.95,-80.61 427.73,-83.39 431.69,-89.16"/>
</a>
</g>
</g>
<!-- Node5&#45;&gt;Node16 -->
<g id="edge26_Node000005_Node000016" class="edge">
<title>Node5&#45;&gt;Node16</title>
<g id="a_edge26_Node000005_Node000016"><a xlink:title=" ">
<path fill="none" stroke="#63b8ff" d="M339.4,-265.44C344.01,-224.14 362.27,-107.81 426,-41.5 427.04,-40.42 428.13,-39.39 429.27,-38.4"/>
<polygon fill="#63b8ff" stroke="#63b8ff" points="431.35,-41.21 437.39,-32.5 427.24,-35.55 431.35,-41.21"/>
</a>
</g>
</g>
<!-- Node6&#45;&gt;Node4 -->
<g id="edge7_Node000006_Node000004" class="edge">
<title>Node6&#45;&gt;Node4</title>
<g id="a_edge7_Node000006_Node000004"><a xlink:title=" ">
<path fill="none" stroke="#63b8ff" d="M531.68,-482.48C536.14,-479.91 540.35,-476.94 544,-473.5 594.07,-426.39 620.66,-346.79 631.52,-306.49"/>
<polygon fill="#63b8ff" stroke="#63b8ff" points="634.94,-307.23 634.06,-296.67 628.16,-305.48 634.94,-307.23"/>
</a>
</g>
</g>
<!-- Node7&#45;&gt;Node4 -->
<g id="edge9_Node000007_Node000004" class="edge">
<title>Node7&#45;&gt;Node4</title>
<g id="a_edge9_Node000007_Node000004"><a xlink:title=" ">
<path fill="none" stroke="#63b8ff" d="M530.39,-434.5C535.24,-431.9 539.89,-428.91 544,-425.5 583.92,-392.31 612.79,-337.64 627.18,-306.07"/>
<polygon fill="#63b8ff" stroke="#63b8ff" points="630.48,-307.25 631.34,-296.69 624.09,-304.41 630.48,-307.25"/>
</a>
</g>
</g>
<!-- Node8&#45;&gt;Node4 -->
<g id="edge11_Node000008_Node000004" class="edge">
<title>Node8&#45;&gt;Node4</title>
<g id="a_edge11_Node000008_Node000004"><a xlink:title=" ">
<path fill="none" stroke="#63b8ff" d="M528.25,-386.42C533.73,-383.78 539.13,-380.8 544,-377.5 574.1,-357.11 602.29,-325.84 619.69,-304.58"/>
<polygon fill="#63b8ff" stroke="#63b8ff" points="622.49,-306.67 626.02,-296.69 617.03,-302.29 622.49,-306.67"/>
</a>
</g>
</g>
<!-- Node9&#45;&gt;Node4 -->
<g id="edge13_Node000009_Node000004" class="edge">
<title>Node9&#45;&gt;Node4</title>
<g id="a_edge13_Node000009_Node000004"><a xlink:title=" ">
<path fill="none" stroke="#63b8ff" d="M523.64,-338.45C530.46,-335.58 537.47,-332.52 544,-329.5 562.86,-320.77 583.45,-310.31 600.49,-301.38"/>
<polygon fill="#63b8ff" stroke="#63b8ff" points="602.35,-304.36 609.56,-296.6 599.09,-298.17 602.35,-304.36"/>
</a>
</g>
</g>
<!-- Node10&#45;&gt;Node4 -->
<g id="edge15_Node000010_Node000004" class="edge">
<title>Node10&#45;&gt;Node4</title>
<g id="a_edge15_Node000010_Node000004"><a xlink:title=" ">
<path fill="none" stroke="#63b8ff" d="M544.14,-296.29C552.54,-294.96 561.24,-293.58 569.8,-292.22"/>
<polygon fill="#63b8ff" stroke="#63b8ff" points="570.44,-295.67 579.77,-290.65 569.34,-288.75 570.44,-295.67"/>
</a>
</g>
</g>
<!-- Node11&#45;&gt;Node4 -->
<g id="edge17_Node000011_Node000004" class="edge">
<title>Node11&#45;&gt;Node4</title>
<g id="a_edge17_Node000011_Node000004"><a xlink:title=" ">
<path fill="none" stroke="#63b8ff" d="M538.14,-265.76C548.32,-267.37 559.14,-269.09 569.74,-270.77"/>
<polygon fill="#63b8ff" stroke="#63b8ff" points="569.39,-274.25 579.82,-272.36 570.49,-267.34 569.39,-274.25"/>
</a>
</g>
</g>
<!-- Node12&#45;&gt;Node4 -->
<g id="edge19_Node000012_Node000004" class="edge">
<title>Node12&#45;&gt;Node4</title>
<g id="a_edge19_Node000012_Node000004"><a xlink:title=" ">
<path fill="none" stroke="#63b8ff" d="M523.64,-224.55C530.46,-227.42 537.47,-230.48 544,-233.5 562.86,-242.23 583.45,-252.69 600.49,-261.62"/>
<polygon fill="#63b8ff" stroke="#63b8ff" points="599.09,-264.83 609.56,-266.4 602.35,-258.64 599.09,-264.83"/>
</a>
</g>
</g>
<!-- Node13&#45;&gt;Node4 -->
<g id="edge21_Node000013_Node000004" class="edge">
<title>Node13&#45;&gt;Node4</title>
<g id="a_edge21_Node000013_Node000004"><a xlink:title=" ">
<path fill="none" stroke="#63b8ff" d="M528.25,-176.58C533.73,-179.22 539.13,-182.2 544,-185.5 574.1,-205.89 602.29,-237.16 619.69,-258.42"/>
<polygon fill="#63b8ff" stroke="#63b8ff" points="617.03,-260.71 626.02,-266.31 622.49,-256.33 617.03,-260.71"/>
</a>
</g>
</g>
<!-- Node14&#45;&gt;Node4 -->
<g id="edge23_Node000014_Node000004" class="edge">
<title>Node14&#45;&gt;Node4</title>
<g id="a_edge23_Node000014_Node000004"><a xlink:title=" ">
<path fill="none" stroke="#63b8ff" d="M530.39,-128.5C535.24,-131.1 539.89,-134.09 544,-137.5 583.92,-170.69 612.79,-225.36 627.18,-256.93"/>
<polygon fill="#63b8ff" stroke="#63b8ff" points="624.09,-258.59 631.34,-266.31 630.48,-255.75 624.09,-258.59"/>
</a>
</g>
</g>
<!-- Node15&#45;&gt;Node4 -->
<g id="edge25_Node000015_Node000004" class="edge">
<title>Node15&#45;&gt;Node4</title>
<g id="a_edge25_Node000015_Node000004"><a xlink:title=" ">
<path fill="none" stroke="#63b8ff" d="M531.68,-80.52C536.14,-83.09 540.35,-86.06 544,-89.5 594.07,-136.61 620.66,-216.21 631.52,-256.51"/>
<polygon fill="#63b8ff" stroke="#63b8ff" points="628.16,-257.52 634.06,-266.33 634.94,-255.77 628.16,-257.52"/>
</a>
</g>
</g>
<!-- Node16&#45;&gt;Node4 -->
<g id="edge27_Node000016_Node000004" class="edge">
<title>Node16&#45;&gt;Node4</title>
<g id="a_edge27_Node000016_Node000004"><a xlink:title=" ">
<path fill="none" stroke="#63b8ff" d="M532.55,-32.57C536.73,-35.12 540.65,-38.07 544,-41.5 604.38,-103.15 626.86,-208.22 634.27,-256.23"/>
<polygon fill="#63b8ff" stroke="#63b8ff" points="630.84,-256.97 635.74,-266.36 637.76,-255.96 630.84,-256.97"/>
</a>
</g>
</g>
</g>
</svg>
