<?xml version="1.0" encoding="UTF-8" standalone="no"?>
<!DOCTYPE svg PUBLIC "-//W3C//DTD SVG 1.1//EN"
 "http://www.w3.org/Graphics/SVG/1.1/DTD/svg11.dtd">
<!-- Generated by graphviz version 2.43.0 (0)
 -->
<!-- Title: lci::reduce_scatter_x::call_impl Pages: 1 -->
<svg width="398pt" height="76pt"
 viewBox="0.00 0.00 398.00 75.50" xmlns="http://www.w3.org/2000/svg" xmlns:xlink="http://www.w3.org/1999/xlink">
<g id="graph0" class="graph" transform="scale(1 1) rotate(0) translate(4 71.5)">
<title>lci::reduce_scatter_x::call_impl</title>
<!-- Node1 -->
<g id="Node000001" class="node">
<title>Node1</title>
<g id="a_Node000001"><a xlink:title=" ">
<polygon fill="#999999" stroke="#666666" points="390,-45.5 284,-45.5 284,-15.5 390,-15.5 390,-45.5"/>
<text text-anchor="start" x="292" y="-33.5" font-family="Helvetica,sans-Serif" font-size="10.00">lci::reduce_scatter</text>
<text text-anchor="middle" x="337" y="-22.5" font-family="Helvetica,sans-Serif" font-size="10.00">_x::call_impl</text>
</a>
</g>
</g>
<!-- Node2 -->
<g id="Node000002" class="node">
<title>Node2</title>
<g id="a_Node000002"><a xlink:href="../../da/ded/classlci_1_1reduce__scatter__x.html#ad009b3d0c00b5951d0116485cc00a24c" target="_top" xlink:title=" ">
<polygon fill="white" stroke="#666666" points="248,-45.5 142,-45.5 142,-15.5 248,-15.5 248,-45.5"/>
<text text-anchor="start" x="150" y="-33.5" font-family="Helvetica,sans-Serif" font-size="10.00">lci::reduce_scatter</text>
<text text-anchor="middle" x="195" y="-22.5" font-family="Helvetica,sans-Serif" font-size="10.00">_x::call</text>
</a>
</g>
</g>
<!-- Node1&#45;&gt;Node2 -->
<g id="edge1_Node000001_Node000002" class="edge">
<title>Node1&#45;&gt;Node2</title>
<g id="a_edge1_Node000001_Node000002"><a xlink:title=" ">
<path fill="none" stroke="#63b8ff" d="M273.61,-30.5C265.12,-30.5 256.47,-30.5 248.17,-30.5"/>
<polygon fill="#63b8ff" stroke="#63b8ff" points="273.87,-34 283.87,-30.5 273.87,-27 273.87,-34"/>
</a>
</g>
</g>
<!-- Node3 -->
<g id="Node000003" class="node">
<title>Node3</title>
<g id="a_Node000003"><a xlink:href="../../da/ded/classlci_1_1reduce__scatter__x.html#abdab5e752271b6d87e3d84bcd2fc943a" target="_top" xlink:title=" ">
<polygon fill="white" stroke="#666666" points="106,-67.5 0,-67.5 0,-37.5 106,-37.5 106,-67.5"/>
<text text-anchor="start" x="8" y="-55.5" font-family="Helvetica,sans-Serif" font-size="10.00">lci::reduce_scatter</text>
<text text-anchor="middle" x="53" y="-44.5" font-family="Helvetica,sans-Serif" font-size="10.00">_x::operator()</text>
</a>
</g>
</g>
<!-- Node2&#45;&gt;Node3 -->
<g id="edge2_Node000002_Node000003" class="edge">
<title>Node2&#45;&gt;Node3</title>
<g id="a_edge2_Node000002_Node000003"><a xlink:title=" ">
<path fill="none" stroke="#63b8ff" d="M131.89,-40.26C123.31,-41.61 114.56,-42.98 106.17,-44.3"/>
<polygon fill="#63b8ff" stroke="#63b8ff" points="132.53,-43.7 141.87,-38.69 131.45,-36.79 132.53,-43.7"/>
</a>
</g>
</g>
<!-- Node4 -->
<g id="Node000004" class="node">
<title>Node4</title>
<g id="a_Node000004"><a xlink:href="../../d5/dd3/namespacelci.html#ae125fcd92edea24a33fc3ad31df575ec" target="_top" xlink:title=" ">
<polygon fill="white" stroke="#666666" points="106,-19 0,-19 0,0 106,0 106,-19"/>
<text text-anchor="middle" x="53" y="-7" font-family="Helvetica,sans-Serif" font-size="10.00">lci::reduce_scatter</text>
</a>
</g>
</g>
<!-- Node2&#45;&gt;Node4 -->
<g id="edge3_Node000002_Node000004" class="edge">
<title>Node2&#45;&gt;Node4</title>
<g id="a_edge3_Node000002_Node000004"><a xlink:title=" ">
<path fill="none" stroke="#63b8ff" d="M131.89,-21.18C123.31,-19.9 114.56,-18.58 106.17,-17.33"/>
<polygon fill="#63b8ff" stroke="#63b8ff" points="131.46,-24.66 141.87,-22.68 132.5,-17.74 131.46,-24.66"/>
</a>
</g>
</g>
</g>
</svg>
