<?xml version="1.0" encoding="UTF-8" standalone="no"?>
<!DOCTYPE svg PUBLIC "-//W3C//DTD SVG 1.1//EN"
 "http://www.w3.org/Graphics/SVG/1.1/DTD/svg11.dtd">
<!-- Generated by graphviz version 2.43.0 (0)
 -->
<!-- Title: lci::put_upacket_x::call_impl Pages: 1 -->
<svg width="392pt" height="86pt"
 viewBox="0.00 0.00 392.00 86.00" xmlns="http://www.w3.org/2000/svg" xmlns:xlink="http://www.w3.org/1999/xlink">
<g id="graph0" class="graph" transform="scale(1 1) rotate(0) translate(4 82)">
<title>lci::put_upacket_x::call_impl</title>
<!-- Node1 -->
<g id="Node000001" class="node">
<title>Node1</title>
<g id="a_Node000001"><a xlink:title=" ">
<polygon fill="#999999" stroke="#666666" points="104,-54 0,-54 0,-24 104,-24 104,-54"/>
<text text-anchor="start" x="8" y="-42" font-family="Helvetica,sans-Serif" font-size="10.00">lci::put_upacket_x</text>
<text text-anchor="middle" x="52" y="-31" font-family="Helvetica,sans-Serif" font-size="10.00">::call_impl</text>
</a>
</g>
</g>
<!-- Node2 -->
<g id="Node000002" class="node">
<title>Node2</title>
<g id="a_Node000002"><a xlink:href="../../d3/d74/classlci_1_1put__upacket__x.html#a77acedfbf9598417ca4fa4b3f3814ac2" target="_top" xlink:title=" ">
<polygon fill="white" stroke="#666666" points="244,-78 140,-78 140,-48 244,-48 244,-78"/>
<text text-anchor="start" x="148" y="-66" font-family="Helvetica,sans-Serif" font-size="10.00">lci::put_upacket_x</text>
<text text-anchor="middle" x="192" y="-55" font-family="Helvetica,sans-Serif" font-size="10.00">::packet</text>
</a>
</g>
</g>
<!-- Node1&#45;&gt;Node2 -->
<g id="edge1_Node000001_Node000002" class="edge">
<title>Node1&#45;&gt;Node2</title>
<g id="a_edge1_Node000001_Node000002"><a xlink:title=" ">
<path fill="none" stroke="#63b8ff" d="M104.39,-47.94C112.56,-49.36 121.08,-50.84 129.46,-52.3"/>
<polygon fill="#63b8ff" stroke="#63b8ff" points="129.12,-55.79 139.57,-54.06 130.32,-48.89 129.12,-55.79"/>
</a>
</g>
</g>
<!-- Node4 -->
<g id="Node000004" class="node">
<title>Node4</title>
<g id="a_Node000004"><a xlink:href="../../d3/d74/classlci_1_1put__upacket__x.html#aaae5597c191cba45f5b166f7f9ada06b" target="_top" xlink:title=" ">
<polygon fill="white" stroke="#666666" points="244,-30 140,-30 140,0 244,0 244,-30"/>
<text text-anchor="start" x="148" y="-18" font-family="Helvetica,sans-Serif" font-size="10.00">lci::put_upacket_x</text>
<text text-anchor="middle" x="192" y="-7" font-family="Helvetica,sans-Serif" font-size="10.00">::runtime</text>
</a>
</g>
</g>
<!-- Node1&#45;&gt;Node4 -->
<g id="edge3_Node000001_Node000004" class="edge">
<title>Node1&#45;&gt;Node4</title>
<g id="a_edge3_Node000001_Node000004"><a xlink:title=" ">
<path fill="none" stroke="#63b8ff" d="M104.39,-30.06C112.56,-28.64 121.08,-27.16 129.46,-25.7"/>
<polygon fill="#63b8ff" stroke="#63b8ff" points="130.32,-29.11 139.57,-23.94 129.12,-22.21 130.32,-29.11"/>
</a>
</g>
</g>
<!-- Node3 -->
<g id="Node000003" class="node">
<title>Node3</title>
<g id="a_Node000003"><a xlink:href="../../d3/d74/classlci_1_1put__upacket__x.html#ab93e6b66baee29d3816200a8008e9020" target="_top" xlink:title=" ">
<polygon fill="white" stroke="#666666" points="384,-54 280,-54 280,-24 384,-24 384,-54"/>
<text text-anchor="start" x="288" y="-42" font-family="Helvetica,sans-Serif" font-size="10.00">lci::put_upacket_x</text>
<text text-anchor="middle" x="332" y="-31" font-family="Helvetica,sans-Serif" font-size="10.00">::put_upacket_x</text>
</a>
</g>
</g>
<!-- Node2&#45;&gt;Node3 -->
<g id="edge2_Node000002_Node000003" class="edge">
<title>Node2&#45;&gt;Node3</title>
<g id="a_edge2_Node000002_Node000003"><a xlink:title=" ">
<path fill="none" stroke="#63b8ff" d="M244.39,-54.06C252.56,-52.64 261.08,-51.16 269.46,-49.7"/>
<polygon fill="#63b8ff" stroke="#63b8ff" points="270.32,-53.11 279.57,-47.94 269.12,-46.21 270.32,-53.11"/>
</a>
</g>
</g>
<!-- Node4&#45;&gt;Node3 -->
<g id="edge4_Node000004_Node000003" class="edge">
<title>Node4&#45;&gt;Node3</title>
<g id="a_edge4_Node000004_Node000003"><a xlink:title=" ">
<path fill="none" stroke="#63b8ff" d="M244.39,-23.94C252.56,-25.36 261.08,-26.84 269.46,-28.3"/>
<polygon fill="#63b8ff" stroke="#63b8ff" points="269.12,-31.79 279.57,-30.06 270.32,-24.89 269.12,-31.79"/>
</a>
</g>
</g>
</g>
</svg>
