<?xml version="1.0" encoding="UTF-8" standalone="no"?>
<!DOCTYPE svg PUBLIC "-//W3C//DTD SVG 1.1//EN"
 "http://www.w3.org/Graphics/SVG/1.1/DTD/svg11.dtd">
<!-- Generated by graphviz version 2.43.0 (0)
 -->
<!-- Title: lci::progress_x Pages: 1 -->
<svg width="456pt" height="134pt"
 viewBox="0.00 0.00 456.00 134.00" xmlns="http://www.w3.org/2000/svg" xmlns:xlink="http://www.w3.org/1999/xlink">
<g id="graph0" class="graph" transform="scale(1 1) rotate(0) translate(4 130)">
<title>lci::progress_x</title>
<!-- Node1 -->
<g id="Node000001" class="node">
<title>Node1</title>
<g id="a_Node000001"><a xlink:title="The actual implementation for progress.">
<polygon fill="#999999" stroke="#666666" points="448,-72.5 361,-72.5 361,-53.5 448,-53.5 448,-72.5"/>
<text text-anchor="middle" x="404.5" y="-60.5" font-family="Helvetica,sans-Serif" font-size="10.00">lci::progress_x</text>
</a>
</g>
</g>
<!-- Node2 -->
<g id="Node000002" class="node">
<title>Node2</title>
<g id="a_Node000002"><a xlink:href="../../db/d20/structlci_1_1option__t.html" target="_top" xlink:title=" ">
<polygon fill="white" stroke="#666666" points="264,-126 168,-126 168,-96 264,-96 264,-126"/>
<text text-anchor="start" x="176" y="-114" font-family="Helvetica,sans-Serif" font-size="10.00">lci::option_t&lt; lci</text>
<text text-anchor="middle" x="216" y="-103" font-family="Helvetica,sans-Serif" font-size="10.00">::runtime_t &gt;</text>
</a>
</g>
</g>
<!-- Node2&#45;&gt;Node1 -->
<g id="edge1_Node000001_Node000002" class="edge">
<title>Node2&#45;&gt;Node1</title>
<g id="a_edge1_Node000001_Node000002"><a xlink:title=" ">
<path fill="none" stroke="#9a32cd" stroke-dasharray="5,2" d="M274,-96.33C304.05,-88.6 340.04,-79.33 366.44,-72.54"/>
<polygon fill="#9a32cd" stroke="#9a32cd" points="272.87,-93.01 264.06,-98.89 274.62,-99.78 272.87,-93.01"/>
</a>
</g>
<text text-anchor="middle" x="312.5" y="-97" font-family="Helvetica,sans-Serif" font-size="10.00" fill="grey"> m_runtime</text>
</g>
<!-- Node3 -->
<g id="Node000003" class="node">
<title>Node3</title>
<g id="a_Node000003"><a xlink:href="../../dc/d5c/classlci_1_1runtime__t.html" target="_top" xlink:title="The actual implementation for RESOURCE runtime.">
<polygon fill="white" stroke="#666666" points="83.5,-120.5 2.5,-120.5 2.5,-101.5 83.5,-101.5 83.5,-120.5"/>
<text text-anchor="middle" x="43" y="-108.5" font-family="Helvetica,sans-Serif" font-size="10.00">lci::runtime_t</text>
</a>
</g>
</g>
<!-- Node3&#45;&gt;Node2 -->
<g id="edge2_Node000002_Node000003" class="edge">
<title>Node3&#45;&gt;Node2</title>
<g id="a_edge2_Node000002_Node000003"><a xlink:title=" ">
<path fill="none" stroke="#9a32cd" stroke-dasharray="5,2" d="M93.74,-111C117.14,-111 144.91,-111 167.96,-111"/>
<polygon fill="#9a32cd" stroke="#9a32cd" points="93.66,-107.5 83.66,-111 93.66,-114.5 93.66,-107.5"/>
</a>
</g>
<text text-anchor="middle" x="127" y="-114" font-family="Helvetica,sans-Serif" font-size="10.00" fill="grey"> m_value</text>
</g>
<!-- Node4 -->
<g id="Node000004" class="node">
<title>Node4</title>
<g id="a_Node000004"><a xlink:href="../../db/d20/structlci_1_1option__t.html" target="_top" xlink:title=" ">
<polygon fill="white" stroke="#666666" points="264,-78 168,-78 168,-48 264,-48 264,-78"/>
<text text-anchor="start" x="176" y="-66" font-family="Helvetica,sans-Serif" font-size="10.00">lci::option_t&lt; lci</text>
<text text-anchor="middle" x="216" y="-55" font-family="Helvetica,sans-Serif" font-size="10.00">::device_t &gt;</text>
</a>
</g>
</g>
<!-- Node4&#45;&gt;Node1 -->
<g id="edge3_Node000001_Node000004" class="edge">
<title>Node4&#45;&gt;Node1</title>
<g id="a_edge3_Node000001_Node000004"><a xlink:title=" ">
<path fill="none" stroke="#9a32cd" stroke-dasharray="5,2" d="M274.11,-63C302.09,-63 335.2,-63 360.92,-63"/>
<polygon fill="#9a32cd" stroke="#9a32cd" points="274.06,-59.5 264.06,-63 274.06,-66.5 274.06,-59.5"/>
</a>
</g>
<text text-anchor="middle" x="312.5" y="-66" font-family="Helvetica,sans-Serif" font-size="10.00" fill="grey"> m_device</text>
</g>
<!-- Node5 -->
<g id="Node000005" class="node">
<title>Node5</title>
<g id="a_Node000005"><a xlink:href="../../d6/d66/classlci_1_1device__t.html" target="_top" xlink:title="The actual implementation for RESOURCE device.">
<polygon fill="white" stroke="#666666" points="80.5,-72.5 5.5,-72.5 5.5,-53.5 80.5,-53.5 80.5,-72.5"/>
<text text-anchor="middle" x="43" y="-60.5" font-family="Helvetica,sans-Serif" font-size="10.00">lci::device_t</text>
</a>
</g>
</g>
<!-- Node5&#45;&gt;Node4 -->
<g id="edge4_Node000004_Node000005" class="edge">
<title>Node5&#45;&gt;Node4</title>
<g id="a_edge4_Node000004_Node000005"><a xlink:title=" ">
<path fill="none" stroke="#9a32cd" stroke-dasharray="5,2" d="M90.95,-63C114.91,-63 143.98,-63 167.96,-63"/>
<polygon fill="#9a32cd" stroke="#9a32cd" points="90.68,-59.5 80.68,-63 90.68,-66.5 90.68,-59.5"/>
</a>
</g>
<text text-anchor="middle" x="127" y="-66" font-family="Helvetica,sans-Serif" font-size="10.00" fill="grey"> m_value</text>
</g>
<!-- Node6 -->
<g id="Node000006" class="node">
<title>Node6</title>
<g id="a_Node000006"><a xlink:href="../../db/d20/structlci_1_1option__t.html" target="_top" xlink:title=" ">
<polygon fill="white" stroke="#666666" points="264,-30 168,-30 168,0 264,0 264,-30"/>
<text text-anchor="start" x="176" y="-18" font-family="Helvetica,sans-Serif" font-size="10.00">lci::option_t&lt; lci</text>
<text text-anchor="middle" x="216" y="-7" font-family="Helvetica,sans-Serif" font-size="10.00">::endpoint_t &gt;</text>
</a>
</g>
</g>
<!-- Node6&#45;&gt;Node1 -->
<g id="edge5_Node000001_Node000006" class="edge">
<title>Node6&#45;&gt;Node1</title>
<g id="a_edge5_Node000001_Node000006"><a xlink:title=" ">
<path fill="none" stroke="#9a32cd" stroke-dasharray="5,2" d="M274,-29.67C304.05,-37.4 340.04,-46.67 366.44,-53.46"/>
<polygon fill="#9a32cd" stroke="#9a32cd" points="274.62,-26.22 264.06,-27.11 272.87,-32.99 274.62,-26.22"/>
</a>
</g>
<text text-anchor="middle" x="312.5" y="-49" font-family="Helvetica,sans-Serif" font-size="10.00" fill="grey"> m_endpoint</text>
</g>
<!-- Node7 -->
<g id="Node000007" class="node">
<title>Node7</title>
<g id="a_Node000007"><a xlink:href="../../de/d1b/classlci_1_1endpoint__t.html" target="_top" xlink:title="The actual implementation for RESOURCE endpoint.">
<polygon fill="white" stroke="#666666" points="86,-24.5 0,-24.5 0,-5.5 86,-5.5 86,-24.5"/>
<text text-anchor="middle" x="43" y="-12.5" font-family="Helvetica,sans-Serif" font-size="10.00">lci::endpoint_t</text>
</a>
</g>
</g>
<!-- Node7&#45;&gt;Node6 -->
<g id="edge6_Node000006_Node000007" class="edge">
<title>Node7&#45;&gt;Node6</title>
<g id="a_edge6_Node000006_Node000007"><a xlink:title=" ">
<path fill="none" stroke="#9a32cd" stroke-dasharray="5,2" d="M96.44,-15C119.2,-15 145.66,-15 167.8,-15"/>
<polygon fill="#9a32cd" stroke="#9a32cd" points="96.27,-11.5 86.27,-15 96.27,-18.5 96.27,-11.5"/>
</a>
</g>
<text text-anchor="middle" x="127" y="-18" font-family="Helvetica,sans-Serif" font-size="10.00" fill="grey"> m_value</text>
</g>
</g>
</svg>
