<?xml version="1.0" encoding="UTF-8" standalone="no"?>
<!DOCTYPE svg PUBLIC "-//W3C//DTD SVG 1.1//EN"
 "http://www.w3.org/Graphics/SVG/1.1/DTD/svg11.dtd">
<!-- Generated by graphviz version 2.43.0 (0)
 -->
<!-- Title: lci::allocator_base_t::allocate Pages: 1 -->
<svg width="271pt" height="138pt"
 viewBox="0.00 0.00 271.00 138.00" xmlns="http://www.w3.org/2000/svg" xmlns:xlink="http://www.w3.org/1999/xlink">
<g id="graph0" class="graph" transform="scale(1 1) rotate(0) translate(4 134)">
<title>lci::allocator_base_t::allocate</title>
<!-- Node1 -->
<g id="Node000001" class="node">
<title>Node1</title>
<g id="a_Node000001"><a xlink:title=" ">
<polygon fill="#999999" stroke="#666666" points="263,-79.5 158,-79.5 158,-49.5 263,-49.5 263,-79.5"/>
<text text-anchor="start" x="166" y="-67.5" font-family="Helvetica,sans-Serif" font-size="10.00">lci::allocator_base</text>
<text text-anchor="middle" x="210.5" y="-56.5" font-family="Helvetica,sans-Serif" font-size="10.00">_t::allocate</text>
</a>
</g>
</g>
<!-- Node2 -->
<g id="Node000002" class="node">
<title>Node2</title>
<g id="a_Node000002"><a xlink:href="../../da/d7c/structlci_1_1data__t.html#ad540474a8025b082887d746b5f5500c0" target="_top" xlink:title=" ">
<polygon fill="white" stroke="#666666" points="122,-130 0,-130 0,-111 122,-111 122,-130"/>
<text text-anchor="middle" x="61" y="-118" font-family="Helvetica,sans-Serif" font-size="10.00">lci::data_t::copy_from</text>
</a>
</g>
</g>
<!-- Node1&#45;&gt;Node2 -->
<g id="edge1_Node000001_Node000002" class="edge">
<title>Node1&#45;&gt;Node2</title>
<g id="a_edge1_Node000001_Node000002"><a xlink:title=" ">
<path fill="none" stroke="#63b8ff" d="M167.9,-83.76C153.51,-90.1 137.18,-96.95 122,-102.5 113.83,-105.49 104.91,-108.37 96.5,-110.91"/>
<polygon fill="#63b8ff" stroke="#63b8ff" points="169.34,-86.95 177.05,-79.69 166.49,-80.56 169.34,-86.95"/>
</a>
</g>
</g>
<!-- Node3 -->
<g id="Node000003" class="node">
<title>Node3</title>
<g id="a_Node000003"><a xlink:href="../../da/d7c/structlci_1_1data__t.html#a5486c4455aa5c01ea78e4d99e2168f7c" target="_top" xlink:title=" ">
<polygon fill="white" stroke="#666666" points="122,-93 0,-93 0,-74 122,-74 122,-93"/>
<text text-anchor="middle" x="61" y="-81" font-family="Helvetica,sans-Serif" font-size="10.00">lci::data_t::copy_from</text>
</a>
</g>
</g>
<!-- Node1&#45;&gt;Node3 -->
<g id="edge2_Node000001_Node000003" class="edge">
<title>Node1&#45;&gt;Node3</title>
<g id="a_edge2_Node000001_Node000003"><a xlink:title=" ">
<path fill="none" stroke="#63b8ff" d="M147.73,-72.46C139.27,-73.55 130.59,-74.66 122.16,-75.75"/>
<polygon fill="#63b8ff" stroke="#63b8ff" points="148.44,-75.89 157.91,-71.15 147.55,-68.95 148.44,-75.89"/>
</a>
</g>
</g>
<!-- Node4 -->
<g id="Node000004" class="node">
<title>Node4</title>
<g id="a_Node000004"><a xlink:href="../../da/d7c/structlci_1_1data__t.html#a328cb2966aa6ab47de29de785f199ca8" target="_top" xlink:title=" ">
<polygon fill="white" stroke="#666666" points="111.5,-56 10.5,-56 10.5,-37 111.5,-37 111.5,-56"/>
<text text-anchor="middle" x="61" y="-44" font-family="Helvetica,sans-Serif" font-size="10.00">lci::data_t::data_t</text>
</a>
</g>
</g>
<!-- Node1&#45;&gt;Node4 -->
<g id="edge3_Node000001_Node000004" class="edge">
<title>Node1&#45;&gt;Node4</title>
<g id="a_edge3_Node000001_Node000004"><a xlink:title=" ">
<path fill="none" stroke="#63b8ff" d="M147.94,-56.99C135.9,-55.52 123.42,-54 111.82,-52.58"/>
<polygon fill="#63b8ff" stroke="#63b8ff" points="147.56,-60.47 157.91,-58.2 148.41,-53.52 147.56,-60.47"/>
</a>
</g>
</g>
<!-- Node5 -->
<g id="Node000005" class="node">
<title>Node5</title>
<g id="a_Node000005"><a xlink:href="../../da/d7c/structlci_1_1data__t.html#ad8da24575985a0136a6e575b0c2d3f39" target="_top" xlink:title=" ">
<polygon fill="white" stroke="#666666" points="111.5,-19 10.5,-19 10.5,0 111.5,0 111.5,-19"/>
<text text-anchor="middle" x="61" y="-7" font-family="Helvetica,sans-Serif" font-size="10.00">lci::data_t::data_t</text>
</a>
</g>
</g>
<!-- Node1&#45;&gt;Node5 -->
<g id="edge4_Node000001_Node000005" class="edge">
<title>Node1&#45;&gt;Node5</title>
<g id="a_edge4_Node000001_Node000005"><a xlink:title=" ">
<path fill="none" stroke="#63b8ff" d="M165.55,-45.58C151.71,-39.84 136.3,-33.7 122,-28.5 112.96,-25.22 103.05,-21.95 93.93,-19.07"/>
<polygon fill="#63b8ff" stroke="#63b8ff" points="164.27,-48.84 174.85,-49.46 166.97,-42.38 164.27,-48.84"/>
</a>
</g>
</g>
</g>
</svg>
