<?xml version="1.0" encoding="UTF-8" standalone="no"?>
<!DOCTYPE svg PUBLIC "-//W3C//DTD SVG 1.1//EN"
 "http://www.w3.org/Graphics/SVG/1.1/DTD/svg11.dtd">
<!-- Generated by graphviz version 2.43.0 (0)
 -->
<!-- Title: lci::set_allocator_x::set_allocator_x Pages: 1 -->
<svg width="648pt" height="86pt"
 viewBox="0.00 0.00 648.00 86.00" xmlns="http://www.w3.org/2000/svg" xmlns:xlink="http://www.w3.org/1999/xlink">
<g id="graph0" class="graph" transform="scale(1 1) rotate(0) translate(4 82)">
<title>lci::set_allocator_x::set_allocator_x</title>
<!-- Node1 -->
<g id="Node000001" class="node">
<title>Node1</title>
<g id="a_Node000001"><a xlink:title=" ">
<polygon fill="#999999" stroke="#666666" points="640,-54 532,-54 532,-24 640,-24 640,-54"/>
<text text-anchor="start" x="540" y="-42" font-family="Helvetica,sans-Serif" font-size="10.00">lci::set_allocator</text>
<text text-anchor="middle" x="586" y="-31" font-family="Helvetica,sans-Serif" font-size="10.00">_x::set_allocator_x</text>
</a>
</g>
</g>
<!-- Node2 -->
<g id="Node000002" class="node">
<title>Node2</title>
<g id="a_Node000002"><a xlink:href="../../dc/d7e/classlci_1_1set__allocator__x.html#a8fbce476b35ce17ab9a33148e0fdb921" target="_top" xlink:title=" ">
<polygon fill="white" stroke="#666666" points="496,-78 399,-78 399,-48 496,-48 496,-78"/>
<text text-anchor="start" x="407" y="-66" font-family="Helvetica,sans-Serif" font-size="10.00">lci::set_allocator</text>
<text text-anchor="middle" x="447.5" y="-55" font-family="Helvetica,sans-Serif" font-size="10.00">_x::allocator</text>
</a>
</g>
</g>
<!-- Node1&#45;&gt;Node2 -->
<g id="edge1_Node000001_Node000002" class="edge">
<title>Node1&#45;&gt;Node2</title>
<g id="a_edge1_Node000001_Node000002"><a xlink:title=" ">
<path fill="none" stroke="#63b8ff" d="M521.87,-50.1C513.31,-51.61 504.64,-53.13 496.4,-54.58"/>
<polygon fill="#63b8ff" stroke="#63b8ff" points="522.59,-53.53 531.83,-48.35 521.38,-46.63 522.59,-53.53"/>
</a>
</g>
</g>
<!-- Node7 -->
<g id="Node000007" class="node">
<title>Node7</title>
<g id="a_Node000007"><a xlink:href="../../dc/d7e/classlci_1_1set__allocator__x.html#ab4521153f61dc0bae050214d836d9695" target="_top" xlink:title=" ">
<polygon fill="white" stroke="#666666" points="496,-30 399,-30 399,0 496,0 496,-30"/>
<text text-anchor="start" x="407" y="-18" font-family="Helvetica,sans-Serif" font-size="10.00">lci::set_allocator</text>
<text text-anchor="middle" x="447.5" y="-7" font-family="Helvetica,sans-Serif" font-size="10.00">_x::runtime</text>
</a>
</g>
</g>
<!-- Node1&#45;&gt;Node7 -->
<g id="edge7_Node000001_Node000007" class="edge">
<title>Node1&#45;&gt;Node7</title>
<g id="a_edge7_Node000001_Node000007"><a xlink:title=" ">
<path fill="none" stroke="#63b8ff" d="M521.87,-27.9C513.31,-26.39 504.64,-24.87 496.4,-23.42"/>
<polygon fill="#63b8ff" stroke="#63b8ff" points="521.38,-31.37 531.83,-29.65 522.59,-24.47 521.38,-31.37"/>
</a>
</g>
</g>
<!-- Node3 -->
<g id="Node000003" class="node">
<title>Node3</title>
<g id="a_Node000003"><a xlink:href="../../dc/d7e/classlci_1_1set__allocator__x.html#adc85a28c99191079ebbdb6ccc12782f0" target="_top" xlink:title=" ">
<polygon fill="white" stroke="#666666" points="230,-54 133,-54 133,-24 230,-24 230,-54"/>
<text text-anchor="start" x="141" y="-42" font-family="Helvetica,sans-Serif" font-size="10.00">lci::set_allocator</text>
<text text-anchor="middle" x="181.5" y="-31" font-family="Helvetica,sans-Serif" font-size="10.00">_x::call</text>
</a>
</g>
</g>
<!-- Node2&#45;&gt;Node3 -->
<g id="edge2_Node000002_Node000003" class="edge">
<title>Node2&#45;&gt;Node3</title>
<g id="a_edge2_Node000002_Node000003"><a xlink:title=" ">
<path fill="none" stroke="#63b8ff" d="M388.55,-67.09C353.01,-68.59 306.67,-68.73 266,-63 252.86,-61.15 238.88,-57.73 226.2,-54.05"/>
<polygon fill="#63b8ff" stroke="#63b8ff" points="388.92,-70.58 398.74,-66.61 388.59,-63.59 388.92,-70.58"/>
</a>
</g>
</g>
<!-- Node6 -->
<g id="Node000006" class="node">
<title>Node6</title>
<g id="a_Node000006"><a xlink:href="../../dc/d7e/classlci_1_1set__allocator__x.html#a910958746e579c9be73c6bef9c855382" target="_top" xlink:title=" ">
<polygon fill="white" stroke="#666666" points="363,-54 266,-54 266,-24 363,-24 363,-54"/>
<text text-anchor="start" x="274" y="-42" font-family="Helvetica,sans-Serif" font-size="10.00">lci::set_allocator</text>
<text text-anchor="middle" x="314.5" y="-31" font-family="Helvetica,sans-Serif" font-size="10.00">_x::call_impl</text>
</a>
</g>
</g>
<!-- Node2&#45;&gt;Node6 -->
<g id="edge5_Node000002_Node000006" class="edge">
<title>Node2&#45;&gt;Node6</title>
<g id="a_edge5_Node000002_Node000006"><a xlink:title=" ">
<path fill="none" stroke="#63b8ff" d="M388.93,-52.45C380.39,-50.89 371.66,-49.29 363.35,-47.77"/>
<polygon fill="#63b8ff" stroke="#63b8ff" points="388.37,-55.91 398.84,-54.27 389.63,-49.02 388.37,-55.91"/>
</a>
</g>
</g>
<!-- Node4 -->
<g id="Node000004" class="node">
<title>Node4</title>
<g id="a_Node000004"><a xlink:href="../../dc/d7e/classlci_1_1set__allocator__x.html#ae63cd29f8a3733ceb734a83dca3b4554" target="_top" xlink:title=" ">
<polygon fill="white" stroke="#666666" points="97,-76 0,-76 0,-46 97,-46 97,-76"/>
<text text-anchor="start" x="8" y="-64" font-family="Helvetica,sans-Serif" font-size="10.00">lci::set_allocator</text>
<text text-anchor="middle" x="48.5" y="-53" font-family="Helvetica,sans-Serif" font-size="10.00">_x::operator()</text>
</a>
</g>
</g>
<!-- Node3&#45;&gt;Node4 -->
<g id="edge3_Node000003_Node000004" class="edge">
<title>Node3&#45;&gt;Node4</title>
<g id="a_edge3_Node000003_Node000004"><a xlink:title=" ">
<path fill="none" stroke="#63b8ff" d="M122.93,-48.67C114.39,-50.1 105.66,-51.57 97.35,-52.96"/>
<polygon fill="#63b8ff" stroke="#63b8ff" points="123.55,-52.11 132.84,-47 122.39,-45.21 123.55,-52.11"/>
</a>
</g>
</g>
<!-- Node5 -->
<g id="Node000005" class="node">
<title>Node5</title>
<g id="a_Node000005"><a xlink:href="../../d5/dd3/namespacelci.html#a7fa38bf846ea01e9080dae7eb36a6472" target="_top" xlink:title=" ">
<polygon fill="white" stroke="#666666" points="97,-27.5 0,-27.5 0,-8.5 97,-8.5 97,-27.5"/>
<text text-anchor="middle" x="48.5" y="-15.5" font-family="Helvetica,sans-Serif" font-size="10.00">lci::set_allocator</text>
</a>
</g>
</g>
<!-- Node3&#45;&gt;Node5 -->
<g id="edge4_Node000003_Node000005" class="edge">
<title>Node3&#45;&gt;Node5</title>
<g id="a_edge4_Node000003_Node000005"><a xlink:title=" ">
<path fill="none" stroke="#63b8ff" d="M122.93,-29.77C114.39,-28.4 105.66,-27 97.35,-25.67"/>
<polygon fill="#63b8ff" stroke="#63b8ff" points="122.41,-33.23 132.84,-31.36 123.52,-26.32 122.41,-33.23"/>
</a>
</g>
</g>
<!-- Node6&#45;&gt;Node3 -->
<g id="edge6_Node000006_Node000003" class="edge">
<title>Node6&#45;&gt;Node3</title>
<g id="a_edge6_Node000006_Node000003"><a xlink:title=" ">
<path fill="none" stroke="#63b8ff" d="M255.65,-39C247.2,-39 238.57,-39 230.35,-39"/>
<polygon fill="#63b8ff" stroke="#63b8ff" points="255.84,-42.5 265.84,-39 255.84,-35.5 255.84,-42.5"/>
</a>
</g>
</g>
<!-- Node7&#45;&gt;Node3 -->
<g id="edge8_Node000007_Node000003" class="edge">
<title>Node7&#45;&gt;Node3</title>
<g id="a_edge8_Node000007_Node000003"><a xlink:title=" ">
<path fill="none" stroke="#63b8ff" d="M388.55,-10.91C353.01,-9.41 306.67,-9.27 266,-15 252.86,-16.85 238.88,-20.27 226.2,-23.95"/>
<polygon fill="#63b8ff" stroke="#63b8ff" points="388.59,-14.41 398.74,-11.39 388.92,-7.42 388.59,-14.41"/>
</a>
</g>
</g>
<!-- Node7&#45;&gt;Node6 -->
<g id="edge9_Node000007_Node000006" class="edge">
<title>Node7&#45;&gt;Node6</title>
<g id="a_edge9_Node000007_Node000006"><a xlink:title=" ">
<path fill="none" stroke="#63b8ff" d="M388.93,-25.55C380.39,-27.11 371.66,-28.71 363.35,-30.23"/>
<polygon fill="#63b8ff" stroke="#63b8ff" points="389.63,-28.98 398.84,-23.73 388.37,-22.09 389.63,-28.98"/>
</a>
</g>
</g>
</g>
</svg>
