<?xml version="1.0" encoding="UTF-8" standalone="no"?>
<!DOCTYPE svg PUBLIC "-//W3C//DTD SVG 1.1//EN"
 "http://www.w3.org/Graphics/SVG/1.1/DTD/svg11.dtd">
<!-- Generated by graphviz version 2.43.0 (0)
 -->
<!-- Title: lci::set_allocator_x::call_impl Pages: 1 -->
<svg width="382pt" height="86pt"
 viewBox="0.00 0.00 382.00 86.00" xmlns="http://www.w3.org/2000/svg" xmlns:xlink="http://www.w3.org/1999/xlink">
<g id="graph0" class="graph" transform="scale(1 1) rotate(0) translate(4 82)">
<title>lci::set_allocator_x::call_impl</title>
<!-- Node1 -->
<g id="Node000001" class="node">
<title>Node1</title>
<g id="a_Node000001"><a xlink:title=" ">
<polygon fill="#999999" stroke="#666666" points="97,-54 0,-54 0,-24 97,-24 97,-54"/>
<text text-anchor="start" x="8" y="-42" font-family="Helvetica,sans-Serif" font-size="10.00">lci::set_allocator</text>
<text text-anchor="middle" x="48.5" y="-31" font-family="Helvetica,sans-Serif" font-size="10.00">_x::call_impl</text>
</a>
</g>
</g>
<!-- Node2 -->
<g id="Node000002" class="node">
<title>Node2</title>
<g id="a_Node000002"><a xlink:href="../../dc/d7e/classlci_1_1set__allocator__x.html#a8fbce476b35ce17ab9a33148e0fdb921" target="_top" xlink:title=" ">
<polygon fill="white" stroke="#666666" points="230,-78 133,-78 133,-48 230,-48 230,-78"/>
<text text-anchor="start" x="141" y="-66" font-family="Helvetica,sans-Serif" font-size="10.00">lci::set_allocator</text>
<text text-anchor="middle" x="181.5" y="-55" font-family="Helvetica,sans-Serif" font-size="10.00">_x::allocator</text>
</a>
</g>
</g>
<!-- Node1&#45;&gt;Node2 -->
<g id="edge1_Node000001_Node000002" class="edge">
<title>Node1&#45;&gt;Node2</title>
<g id="a_edge1_Node000001_Node000002"><a xlink:title=" ">
<path fill="none" stroke="#63b8ff" d="M97.16,-47.73C105.47,-49.25 114.19,-50.85 122.74,-52.42"/>
<polygon fill="#63b8ff" stroke="#63b8ff" points="122.18,-55.87 132.65,-54.23 123.45,-48.99 122.18,-55.87"/>
</a>
</g>
</g>
<!-- Node4 -->
<g id="Node000004" class="node">
<title>Node4</title>
<g id="a_Node000004"><a xlink:href="../../dc/d7e/classlci_1_1set__allocator__x.html#ab4521153f61dc0bae050214d836d9695" target="_top" xlink:title=" ">
<polygon fill="white" stroke="#666666" points="230,-30 133,-30 133,0 230,0 230,-30"/>
<text text-anchor="start" x="141" y="-18" font-family="Helvetica,sans-Serif" font-size="10.00">lci::set_allocator</text>
<text text-anchor="middle" x="181.5" y="-7" font-family="Helvetica,sans-Serif" font-size="10.00">_x::runtime</text>
</a>
</g>
</g>
<!-- Node1&#45;&gt;Node4 -->
<g id="edge3_Node000001_Node000004" class="edge">
<title>Node1&#45;&gt;Node4</title>
<g id="a_edge3_Node000001_Node000004"><a xlink:title=" ">
<path fill="none" stroke="#63b8ff" d="M97.16,-30.27C105.47,-28.75 114.19,-27.15 122.74,-25.58"/>
<polygon fill="#63b8ff" stroke="#63b8ff" points="123.45,-29.01 132.65,-23.77 122.18,-22.13 123.45,-29.01"/>
</a>
</g>
</g>
<!-- Node3 -->
<g id="Node000003" class="node">
<title>Node3</title>
<g id="a_Node000003"><a xlink:href="../../dc/d7e/classlci_1_1set__allocator__x.html#a6af9a6b875a8bd0996e506eb912464b1" target="_top" xlink:title=" ">
<polygon fill="white" stroke="#666666" points="374,-54 266,-54 266,-24 374,-24 374,-54"/>
<text text-anchor="start" x="274" y="-42" font-family="Helvetica,sans-Serif" font-size="10.00">lci::set_allocator</text>
<text text-anchor="middle" x="320" y="-31" font-family="Helvetica,sans-Serif" font-size="10.00">_x::set_allocator_x</text>
</a>
</g>
</g>
<!-- Node2&#45;&gt;Node3 -->
<g id="edge2_Node000002_Node000003" class="edge">
<title>Node2&#45;&gt;Node3</title>
<g id="a_edge2_Node000002_Node000003"><a xlink:title=" ">
<path fill="none" stroke="#63b8ff" d="M230.24,-54.61C238.53,-53.15 247.26,-51.61 255.89,-50.1"/>
<polygon fill="#63b8ff" stroke="#63b8ff" points="256.68,-53.51 265.93,-48.33 255.47,-46.62 256.68,-53.51"/>
</a>
</g>
</g>
<!-- Node4&#45;&gt;Node3 -->
<g id="edge4_Node000004_Node000003" class="edge">
<title>Node4&#45;&gt;Node3</title>
<g id="a_edge4_Node000004_Node000003"><a xlink:title=" ">
<path fill="none" stroke="#63b8ff" d="M230.24,-23.39C238.53,-24.85 247.26,-26.39 255.89,-27.9"/>
<polygon fill="#63b8ff" stroke="#63b8ff" points="255.47,-31.38 265.93,-29.67 256.68,-24.49 255.47,-31.38"/>
</a>
</g>
</g>
</g>
</svg>
