<?xml version="1.0" encoding="UTF-8" standalone="no"?>
<!DOCTYPE svg PUBLIC "-//W3C//DTD SVG 1.1//EN"
 "http://www.w3.org/Graphics/SVG/1.1/DTD/svg11.dtd">
<!-- Generated by graphviz version 2.43.0 (0)
 -->
<!-- Title: lci::get_upacket_x::call Pages: 1 -->
<svg width="532pt" height="86pt"
 viewBox="0.00 0.00 532.00 86.00" xmlns="http://www.w3.org/2000/svg" xmlns:xlink="http://www.w3.org/1999/xlink">
<g id="graph0" class="graph" transform="scale(1 1) rotate(0) translate(4 82)">
<title>lci::get_upacket_x::call</title>
<!-- Node1 -->
<g id="Node000001" class="node">
<title>Node1</title>
<g id="a_Node000001"><a xlink:title=" ">
<polygon fill="#999999" stroke="#666666" points="104,-54 0,-54 0,-24 104,-24 104,-54"/>
<text text-anchor="start" x="8" y="-42" font-family="Helvetica,sans-Serif" font-size="10.00">lci::get_upacket_x</text>
<text text-anchor="middle" x="52" y="-31" font-family="Helvetica,sans-Serif" font-size="10.00">::call</text>
</a>
</g>
</g>
<!-- Node2 -->
<g id="Node000002" class="node">
<title>Node2</title>
<g id="a_Node000002"><a xlink:href="../../d1/d2e/classlci_1_1get__upacket__x.html#aaa7085f7d19f1c82a6b5b0dd5d25488c" target="_top" xlink:title=" ">
<polygon fill="white" stroke="#666666" points="244,-54 140,-54 140,-24 244,-24 244,-54"/>
<text text-anchor="start" x="148" y="-42" font-family="Helvetica,sans-Serif" font-size="10.00">lci::get_upacket_x</text>
<text text-anchor="middle" x="192" y="-31" font-family="Helvetica,sans-Serif" font-size="10.00">::call_impl</text>
</a>
</g>
</g>
<!-- Node1&#45;&gt;Node2 -->
<g id="edge1_Node000001_Node000002" class="edge">
<title>Node1&#45;&gt;Node2</title>
<g id="a_edge1_Node000001_Node000002"><a xlink:title=" ">
<path fill="none" stroke="#63b8ff" d="M104.39,-39C112.56,-39 121.08,-39 129.46,-39"/>
<polygon fill="#63b8ff" stroke="#63b8ff" points="129.57,-42.5 139.57,-39 129.57,-35.5 129.57,-42.5"/>
</a>
</g>
</g>
<!-- Node3 -->
<g id="Node000003" class="node">
<title>Node3</title>
<g id="a_Node000003"><a xlink:href="../../d1/d2e/classlci_1_1get__upacket__x.html#a0c6e737f2b57d06d17b0426ee2ef0a11" target="_top" xlink:title=" ">
<polygon fill="white" stroke="#666666" points="384,-78 280,-78 280,-48 384,-48 384,-78"/>
<text text-anchor="start" x="288" y="-66" font-family="Helvetica,sans-Serif" font-size="10.00">lci::get_upacket_x</text>
<text text-anchor="middle" x="332" y="-55" font-family="Helvetica,sans-Serif" font-size="10.00">::packet_pool</text>
</a>
</g>
</g>
<!-- Node1&#45;&gt;Node3 -->
<g id="edge6_Node000001_Node000003" class="edge">
<title>Node1&#45;&gt;Node3</title>
<g id="a_edge6_Node000001_Node000003"><a xlink:title=" ">
<path fill="none" stroke="#63b8ff" d="M98.57,-54.05C111.79,-57.74 126.34,-61.15 140,-63 182.95,-68.82 231.84,-68.69 269.4,-67.18"/>
<polygon fill="#63b8ff" stroke="#63b8ff" points="269.84,-70.66 279.68,-66.72 269.53,-63.67 269.84,-70.66"/>
</a>
</g>
</g>
<!-- Node5 -->
<g id="Node000005" class="node">
<title>Node5</title>
<g id="a_Node000005"><a xlink:href="../../d1/d2e/classlci_1_1get__upacket__x.html#a2de562469d5b01ee5278b34b3e8774fd" target="_top" xlink:title=" ">
<polygon fill="white" stroke="#666666" points="384,-30 280,-30 280,0 384,0 384,-30"/>
<text text-anchor="start" x="288" y="-18" font-family="Helvetica,sans-Serif" font-size="10.00">lci::get_upacket_x</text>
<text text-anchor="middle" x="332" y="-7" font-family="Helvetica,sans-Serif" font-size="10.00">::runtime</text>
</a>
</g>
</g>
<!-- Node1&#45;&gt;Node5 -->
<g id="edge7_Node000001_Node000005" class="edge">
<title>Node1&#45;&gt;Node5</title>
<g id="a_edge7_Node000001_Node000005"><a xlink:title=" ">
<path fill="none" stroke="#63b8ff" d="M98.57,-23.95C111.79,-20.26 126.34,-16.85 140,-15 182.95,-9.18 231.84,-9.31 269.4,-10.82"/>
<polygon fill="#63b8ff" stroke="#63b8ff" points="269.53,-14.33 279.68,-11.28 269.84,-7.34 269.53,-14.33"/>
</a>
</g>
</g>
<!-- Node2&#45;&gt;Node3 -->
<g id="edge2_Node000002_Node000003" class="edge">
<title>Node2&#45;&gt;Node3</title>
<g id="a_edge2_Node000002_Node000003"><a xlink:title=" ">
<path fill="none" stroke="#63b8ff" d="M244.39,-47.94C252.56,-49.36 261.08,-50.84 269.46,-52.3"/>
<polygon fill="#63b8ff" stroke="#63b8ff" points="269.12,-55.79 279.57,-54.06 270.32,-48.89 269.12,-55.79"/>
</a>
</g>
</g>
<!-- Node2&#45;&gt;Node5 -->
<g id="edge4_Node000002_Node000005" class="edge">
<title>Node2&#45;&gt;Node5</title>
<g id="a_edge4_Node000002_Node000005"><a xlink:title=" ">
<path fill="none" stroke="#63b8ff" d="M244.39,-30.06C252.56,-28.64 261.08,-27.16 269.46,-25.7"/>
<polygon fill="#63b8ff" stroke="#63b8ff" points="270.32,-29.11 279.57,-23.94 269.12,-22.21 270.32,-29.11"/>
</a>
</g>
</g>
<!-- Node4 -->
<g id="Node000004" class="node">
<title>Node4</title>
<g id="a_Node000004"><a xlink:href="../../d1/d2e/classlci_1_1get__upacket__x.html#adba0b56b64f63f382d30f3cc56e58539" target="_top" xlink:title=" ">
<polygon fill="white" stroke="#666666" points="524,-54 420,-54 420,-24 524,-24 524,-54"/>
<text text-anchor="start" x="428" y="-42" font-family="Helvetica,sans-Serif" font-size="10.00">lci::get_upacket_x</text>
<text text-anchor="middle" x="472" y="-31" font-family="Helvetica,sans-Serif" font-size="10.00">::get_upacket_x</text>
</a>
</g>
</g>
<!-- Node3&#45;&gt;Node4 -->
<g id="edge3_Node000003_Node000004" class="edge">
<title>Node3&#45;&gt;Node4</title>
<g id="a_edge3_Node000003_Node000004"><a xlink:title=" ">
<path fill="none" stroke="#63b8ff" d="M384.39,-54.06C392.56,-52.64 401.08,-51.16 409.46,-49.7"/>
<polygon fill="#63b8ff" stroke="#63b8ff" points="410.32,-53.11 419.57,-47.94 409.12,-46.21 410.32,-53.11"/>
</a>
</g>
</g>
<!-- Node5&#45;&gt;Node4 -->
<g id="edge5_Node000005_Node000004" class="edge">
<title>Node5&#45;&gt;Node4</title>
<g id="a_edge5_Node000005_Node000004"><a xlink:title=" ">
<path fill="none" stroke="#63b8ff" d="M384.39,-23.94C392.56,-25.36 401.08,-26.84 409.46,-28.3"/>
<polygon fill="#63b8ff" stroke="#63b8ff" points="409.12,-31.79 419.57,-30.06 410.32,-24.89 409.12,-31.79"/>
</a>
</g>
</g>
</g>
</svg>
