<?xml version="1.0" encoding="UTF-8" standalone="no"?>
<!DOCTYPE svg PUBLIC "-//W3C//DTD SVG 1.1//EN"
 "http://www.w3.org/Graphics/SVG/1.1/DTD/svg11.dtd">
<!-- Generated by graphviz version 2.43.0 (0)
 -->
<!-- Title: lci::get_upacket_x::get_upacket_x Pages: 1 -->
<svg width="672pt" height="86pt"
 viewBox="0.00 0.00 672.00 86.00" xmlns="http://www.w3.org/2000/svg" xmlns:xlink="http://www.w3.org/1999/xlink">
<g id="graph0" class="graph" transform="scale(1 1) rotate(0) translate(4 82)">
<title>lci::get_upacket_x::get_upacket_x</title>
<!-- Node1 -->
<g id="Node000001" class="node">
<title>Node1</title>
<g id="a_Node000001"><a xlink:title=" ">
<polygon fill="#999999" stroke="#666666" points="664,-54 560,-54 560,-24 664,-24 664,-54"/>
<text text-anchor="start" x="568" y="-42" font-family="Helvetica,sans-Serif" font-size="10.00">lci::get_upacket_x</text>
<text text-anchor="middle" x="612" y="-31" font-family="Helvetica,sans-Serif" font-size="10.00">::get_upacket_x</text>
</a>
</g>
</g>
<!-- Node2 -->
<g id="Node000002" class="node">
<title>Node2</title>
<g id="a_Node000002"><a xlink:href="../../d1/d2e/classlci_1_1get__upacket__x.html#a0c6e737f2b57d06d17b0426ee2ef0a11" target="_top" xlink:title=" ">
<polygon fill="white" stroke="#666666" points="524,-78 420,-78 420,-48 524,-48 524,-78"/>
<text text-anchor="start" x="428" y="-66" font-family="Helvetica,sans-Serif" font-size="10.00">lci::get_upacket_x</text>
<text text-anchor="middle" x="472" y="-55" font-family="Helvetica,sans-Serif" font-size="10.00">::packet_pool</text>
</a>
</g>
</g>
<!-- Node1&#45;&gt;Node2 -->
<g id="edge1_Node000001_Node000002" class="edge">
<title>Node1&#45;&gt;Node2</title>
<g id="a_edge1_Node000001_Node000002"><a xlink:title=" ">
<path fill="none" stroke="#63b8ff" d="M549.5,-49.69C541.13,-51.15 532.6,-52.63 524.43,-54.06"/>
<polygon fill="#63b8ff" stroke="#63b8ff" points="550.36,-53.1 559.61,-47.94 549.16,-46.2 550.36,-53.1"/>
</a>
</g>
</g>
<!-- Node7 -->
<g id="Node000007" class="node">
<title>Node7</title>
<g id="a_Node000007"><a xlink:href="../../d1/d2e/classlci_1_1get__upacket__x.html#a2de562469d5b01ee5278b34b3e8774fd" target="_top" xlink:title=" ">
<polygon fill="white" stroke="#666666" points="524,-30 420,-30 420,0 524,0 524,-30"/>
<text text-anchor="start" x="428" y="-18" font-family="Helvetica,sans-Serif" font-size="10.00">lci::get_upacket_x</text>
<text text-anchor="middle" x="472" y="-7" font-family="Helvetica,sans-Serif" font-size="10.00">::runtime</text>
</a>
</g>
</g>
<!-- Node1&#45;&gt;Node7 -->
<g id="edge7_Node000001_Node000007" class="edge">
<title>Node1&#45;&gt;Node7</title>
<g id="a_edge7_Node000001_Node000007"><a xlink:title=" ">
<path fill="none" stroke="#63b8ff" d="M549.5,-28.31C541.13,-26.85 532.6,-25.37 524.43,-23.94"/>
<polygon fill="#63b8ff" stroke="#63b8ff" points="549.16,-31.8 559.61,-30.06 550.36,-24.9 549.16,-31.8"/>
</a>
</g>
</g>
<!-- Node3 -->
<g id="Node000003" class="node">
<title>Node3</title>
<g id="a_Node000003"><a xlink:href="../../d1/d2e/classlci_1_1get__upacket__x.html#a14bbcaa127d3155267b27e3c8fd0dba7" target="_top" xlink:title=" ">
<polygon fill="white" stroke="#666666" points="244,-54 140,-54 140,-24 244,-24 244,-54"/>
<text text-anchor="start" x="148" y="-42" font-family="Helvetica,sans-Serif" font-size="10.00">lci::get_upacket_x</text>
<text text-anchor="middle" x="192" y="-31" font-family="Helvetica,sans-Serif" font-size="10.00">::call</text>
</a>
</g>
</g>
<!-- Node2&#45;&gt;Node3 -->
<g id="edge2_Node000002_Node000003" class="edge">
<title>Node2&#45;&gt;Node3</title>
<g id="a_edge2_Node000002_Node000003"><a xlink:title=" ">
<path fill="none" stroke="#63b8ff" d="M409.4,-67.18C371.84,-68.69 322.95,-68.82 280,-63 266.34,-61.15 251.79,-57.74 238.57,-54.05"/>
<polygon fill="#63b8ff" stroke="#63b8ff" points="409.84,-70.66 419.68,-66.72 409.53,-63.67 409.84,-70.66"/>
</a>
</g>
</g>
<!-- Node6 -->
<g id="Node000006" class="node">
<title>Node6</title>
<g id="a_Node000006"><a xlink:href="../../d1/d2e/classlci_1_1get__upacket__x.html#aaa7085f7d19f1c82a6b5b0dd5d25488c" target="_top" xlink:title=" ">
<polygon fill="white" stroke="#666666" points="384,-54 280,-54 280,-24 384,-24 384,-54"/>
<text text-anchor="start" x="288" y="-42" font-family="Helvetica,sans-Serif" font-size="10.00">lci::get_upacket_x</text>
<text text-anchor="middle" x="332" y="-31" font-family="Helvetica,sans-Serif" font-size="10.00">::call_impl</text>
</a>
</g>
</g>
<!-- Node2&#45;&gt;Node6 -->
<g id="edge5_Node000002_Node000006" class="edge">
<title>Node2&#45;&gt;Node6</title>
<g id="a_edge5_Node000002_Node000006"><a xlink:title=" ">
<path fill="none" stroke="#63b8ff" d="M409.5,-52.31C401.13,-50.85 392.6,-49.37 384.43,-47.94"/>
<polygon fill="#63b8ff" stroke="#63b8ff" points="409.16,-55.8 419.61,-54.06 410.36,-48.9 409.16,-55.8"/>
</a>
</g>
</g>
<!-- Node4 -->
<g id="Node000004" class="node">
<title>Node4</title>
<g id="a_Node000004"><a xlink:href="../../d5/dd3/namespacelci.html#af2164bffe59519281ed1dbea98c4ac5d" target="_top" xlink:title=" ">
<polygon fill="white" stroke="#666666" points="98.5,-70.5 5.5,-70.5 5.5,-51.5 98.5,-51.5 98.5,-70.5"/>
<text text-anchor="middle" x="52" y="-58.5" font-family="Helvetica,sans-Serif" font-size="10.00">lci::get_upacket</text>
</a>
</g>
</g>
<!-- Node3&#45;&gt;Node4 -->
<g id="edge3_Node000003_Node000004" class="edge">
<title>Node3&#45;&gt;Node4</title>
<g id="a_edge3_Node000003_Node000004"><a xlink:title=" ">
<path fill="none" stroke="#63b8ff" d="M129.68,-48.78C119.2,-50.45 108.49,-52.15 98.52,-53.74"/>
<polygon fill="#63b8ff" stroke="#63b8ff" points="130.29,-52.22 139.61,-47.19 129.19,-45.31 130.29,-52.22"/>
</a>
</g>
</g>
<!-- Node5 -->
<g id="Node000005" class="node">
<title>Node5</title>
<g id="a_Node000005"><a xlink:href="../../d1/d2e/classlci_1_1get__upacket__x.html#aa2b8c42ff7345f89a9606154c3ed46f2" target="_top" xlink:title=" ">
<polygon fill="white" stroke="#666666" points="104,-33 0,-33 0,-3 104,-3 104,-33"/>
<text text-anchor="start" x="8" y="-21" font-family="Helvetica,sans-Serif" font-size="10.00">lci::get_upacket_x</text>
<text text-anchor="middle" x="52" y="-10" font-family="Helvetica,sans-Serif" font-size="10.00">::operator()</text>
</a>
</g>
</g>
<!-- Node3&#45;&gt;Node5 -->
<g id="edge4_Node000003_Node000005" class="edge">
<title>Node3&#45;&gt;Node5</title>
<g id="a_edge4_Node000003_Node000005"><a xlink:title=" ">
<path fill="none" stroke="#63b8ff" d="M129.5,-29.64C121.13,-28.37 112.6,-27.07 104.43,-25.83"/>
<polygon fill="#63b8ff" stroke="#63b8ff" points="129.2,-33.14 139.61,-31.18 130.25,-26.22 129.2,-33.14"/>
</a>
</g>
</g>
<!-- Node6&#45;&gt;Node3 -->
<g id="edge6_Node000006_Node000003" class="edge">
<title>Node6&#45;&gt;Node3</title>
<g id="a_edge6_Node000006_Node000003"><a xlink:title=" ">
<path fill="none" stroke="#63b8ff" d="M269.5,-39C261.13,-39 252.6,-39 244.43,-39"/>
<polygon fill="#63b8ff" stroke="#63b8ff" points="269.61,-42.5 279.61,-39 269.61,-35.5 269.61,-42.5"/>
</a>
</g>
</g>
<!-- Node7&#45;&gt;Node3 -->
<g id="edge8_Node000007_Node000003" class="edge">
<title>Node7&#45;&gt;Node3</title>
<g id="a_edge8_Node000007_Node000003"><a xlink:title=" ">
<path fill="none" stroke="#63b8ff" d="M409.4,-10.82C371.84,-9.31 322.95,-9.18 280,-15 266.34,-16.85 251.79,-20.26 238.57,-23.95"/>
<polygon fill="#63b8ff" stroke="#63b8ff" points="409.53,-14.33 419.68,-11.28 409.84,-7.34 409.53,-14.33"/>
</a>
</g>
</g>
<!-- Node7&#45;&gt;Node6 -->
<g id="edge9_Node000007_Node000006" class="edge">
<title>Node7&#45;&gt;Node6</title>
<g id="a_edge9_Node000007_Node000006"><a xlink:title=" ">
<path fill="none" stroke="#63b8ff" d="M409.5,-25.69C401.13,-27.15 392.6,-28.63 384.43,-30.06"/>
<polygon fill="#63b8ff" stroke="#63b8ff" points="410.36,-29.1 419.61,-23.94 409.16,-22.2 410.36,-29.1"/>
</a>
</g>
</g>
</g>
</svg>
