<?xml version="1.0" encoding="UTF-8" standalone="no"?>
<!DOCTYPE svg PUBLIC "-//W3C//DTD SVG 1.1//EN"
 "http://www.w3.org/Graphics/SVG/1.1/DTD/svg11.dtd">
<!-- Generated by graphviz version 2.43.0 (0)
 -->
<!-- Title: lci::get_allocator_x::call Pages: 1 -->
<svg width="519pt" height="60pt"
 viewBox="0.00 0.00 519.00 60.00" xmlns="http://www.w3.org/2000/svg" xmlns:xlink="http://www.w3.org/1999/xlink">
<g id="graph0" class="graph" transform="scale(1 1) rotate(0) translate(4 56)">
<title>lci::get_allocator_x::call</title>
<!-- Node1 -->
<g id="Node000001" class="node">
<title>Node1</title>
<g id="a_Node000001"><a xlink:title=" ">
<polygon fill="#999999" stroke="#666666" points="98,-30 0,-30 0,0 98,0 98,-30"/>
<text text-anchor="start" x="8" y="-18" font-family="Helvetica,sans-Serif" font-size="10.00">lci::get_allocator</text>
<text text-anchor="middle" x="49" y="-7" font-family="Helvetica,sans-Serif" font-size="10.00">_x::call</text>
</a>
</g>
</g>
<!-- Node2 -->
<g id="Node000002" class="node">
<title>Node2</title>
<g id="a_Node000002"><a xlink:href="../../d2/d2d/classlci_1_1get__allocator__x.html#a1dca936a82487104c19d8fb12df55eb2" target="_top" xlink:title=" ">
<polygon fill="white" stroke="#666666" points="232,-52 134,-52 134,-22 232,-22 232,-52"/>
<text text-anchor="start" x="142" y="-40" font-family="Helvetica,sans-Serif" font-size="10.00">lci::get_allocator</text>
<text text-anchor="middle" x="183" y="-29" font-family="Helvetica,sans-Serif" font-size="10.00">_x::call_impl</text>
</a>
</g>
</g>
<!-- Node1&#45;&gt;Node2 -->
<g id="edge1_Node000001_Node000002" class="edge">
<title>Node1&#45;&gt;Node2</title>
<g id="a_edge1_Node000001_Node000002"><a xlink:title=" ">
<path fill="none" stroke="#63b8ff" d="M98.03,-23C106.4,-24.4 115.19,-25.86 123.8,-27.3"/>
<polygon fill="#63b8ff" stroke="#63b8ff" points="123.35,-30.77 133.79,-28.96 124.5,-23.87 123.35,-30.77"/>
</a>
</g>
</g>
<!-- Node3 -->
<g id="Node000003" class="node">
<title>Node3</title>
<g id="a_Node000003"><a xlink:href="../../d2/d2d/classlci_1_1get__allocator__x.html#aa86f08db3006bd17841007ffd669929c" target="_top" xlink:title=" ">
<polygon fill="white" stroke="#666666" points="366,-30 268,-30 268,0 366,0 366,-30"/>
<text text-anchor="start" x="276" y="-18" font-family="Helvetica,sans-Serif" font-size="10.00">lci::get_allocator</text>
<text text-anchor="middle" x="317" y="-7" font-family="Helvetica,sans-Serif" font-size="10.00">_x::runtime</text>
</a>
</g>
</g>
<!-- Node1&#45;&gt;Node3 -->
<g id="edge4_Node000001_Node000003" class="edge">
<title>Node1&#45;&gt;Node3</title>
<g id="a_edge4_Node000001_Node000003"><a xlink:title=" ">
<path fill="none" stroke="#63b8ff" d="M98.41,-13.65C110.07,-13.38 122.48,-13.14 134,-13 177.55,-12.48 188.45,-12.48 232,-13 240.19,-13.1 248.83,-13.25 257.33,-13.42"/>
<polygon fill="#63b8ff" stroke="#63b8ff" points="257.51,-16.93 267.59,-13.65 257.67,-9.93 257.51,-16.93"/>
</a>
</g>
</g>
<!-- Node2&#45;&gt;Node3 -->
<g id="edge2_Node000002_Node000003" class="edge">
<title>Node2&#45;&gt;Node3</title>
<g id="a_edge2_Node000002_Node000003"><a xlink:title=" ">
<path fill="none" stroke="#63b8ff" d="M232.03,-29C240.4,-27.6 249.19,-26.14 257.8,-24.7"/>
<polygon fill="#63b8ff" stroke="#63b8ff" points="258.5,-28.13 267.79,-23.04 257.35,-21.23 258.5,-28.13"/>
</a>
</g>
</g>
<!-- Node4 -->
<g id="Node000004" class="node">
<title>Node4</title>
<g id="a_Node000004"><a xlink:href="../../d2/d2d/classlci_1_1get__allocator__x.html#a939449d1384142d6319517a7dd582db3" target="_top" xlink:title=" ">
<polygon fill="white" stroke="#666666" points="511,-30 402,-30 402,0 511,0 511,-30"/>
<text text-anchor="start" x="410" y="-18" font-family="Helvetica,sans-Serif" font-size="10.00">lci::get_allocator</text>
<text text-anchor="middle" x="456.5" y="-7" font-family="Helvetica,sans-Serif" font-size="10.00">_x::get_allocator_x</text>
</a>
</g>
</g>
<!-- Node3&#45;&gt;Node4 -->
<g id="edge3_Node000003_Node000004" class="edge">
<title>Node3&#45;&gt;Node4</title>
<g id="a_edge3_Node000003_Node000004"><a xlink:title=" ">
<path fill="none" stroke="#63b8ff" d="M366.09,-15C374.24,-15 382.81,-15 391.3,-15"/>
<polygon fill="#63b8ff" stroke="#63b8ff" points="391.56,-18.5 401.56,-15 391.56,-11.5 391.56,-18.5"/>
</a>
</g>
</g>
</g>
</svg>
