<?xml version="1.0" encoding="UTF-8" standalone="no"?>
<!DOCTYPE svg PUBLIC "-//W3C//DTD SVG 1.1//EN"
 "http://www.w3.org/Graphics/SVG/1.1/DTD/svg11.dtd">
<!-- Generated by graphviz version 2.43.0 (0)
 -->
<!-- Title: lci::g_runtime_init_x Pages: 1 -->
<svg width="427pt" height="311pt"
 viewBox="0.00 0.00 427.00 311.00" xmlns="http://www.w3.org/2000/svg" xmlns:xlink="http://www.w3.org/1999/xlink">
<g id="graph0" class="graph" transform="scale(1 1) rotate(0) translate(4 307)">
<title>lci::g_runtime_init_x</title>
<!-- Node1 -->
<g id="Node000001" class="node">
<title>Node1</title>
<g id="a_Node000001"><a xlink:title="The actual implementation for g_runtime_init.">
<polygon fill="#999999" stroke="#666666" points="419,-144.5 303,-144.5 303,-125.5 419,-125.5 419,-144.5"/>
<text text-anchor="middle" x="361" y="-132.5" font-family="Helvetica,sans-Serif" font-size="10.00">lci::g_runtime_init_x</text>
</a>
</g>
</g>
<!-- Node2 -->
<g id="Node000002" class="node">
<title>Node2</title>
<g id="a_Node000002"><a xlink:href="../../db/d20/structlci_1_1option__t.html" target="_top" xlink:title=" ">
<polygon fill="white" stroke="#666666" points="125,-292.5 0,-292.5 0,-273.5 125,-273.5 125,-292.5"/>
<text text-anchor="middle" x="62.5" y="-280.5" font-family="Helvetica,sans-Serif" font-size="10.00">lci::option_t&lt; size_t &gt;</text>
</a>
</g>
</g>
<!-- Node2&#45;&gt;Node1 -->
<g id="edge1_Node000001_Node000002" class="edge">
<title>Node2&#45;&gt;Node1</title>
<g id="a_edge1_Node000001_Node000002"><a xlink:title=" ">
<path fill="none" stroke="#9a32cd" stroke-dasharray="5,2" d="M135.39,-291.65C181.55,-293.6 240.89,-289.05 285,-261 329.04,-232.99 350.64,-169.04 357.5,-144.68"/>
<polygon fill="#9a32cd" stroke="#9a32cd" points="135.33,-288.14 125.16,-291.11 134.96,-295.13 135.33,-288.14"/>
</a>
</g>
<text text-anchor="middle" x="214" y="-295" font-family="Helvetica,sans-Serif" font-size="10.00" fill="grey"> m_packet_return_threshold</text>
</g>
<!-- Node3 -->
<g id="Node000003" class="node">
<title>Node3</title>
<g id="a_Node000003"><a xlink:href="../../db/d20/structlci_1_1option__t.html" target="_top" xlink:title=" ">
<polygon fill="white" stroke="#666666" points="117,-251.5 8,-251.5 8,-232.5 117,-232.5 117,-251.5"/>
<text text-anchor="middle" x="62.5" y="-239.5" font-family="Helvetica,sans-Serif" font-size="10.00">lci::option_t&lt; int &gt;</text>
</a>
</g>
</g>
<!-- Node3&#45;&gt;Node1 -->
<g id="edge2_Node000001_Node000003" class="edge">
<title>Node3&#45;&gt;Node1</title>
<g id="a_edge2_Node000001_Node000003"><a xlink:title=" ">
<path fill="none" stroke="#9a32cd" stroke-dasharray="5,2" d="M127.12,-239.06C182.58,-235.62 258.21,-228.59 285,-215 317.43,-198.55 343.22,-162.11 354.22,-144.67"/>
<polygon fill="#9a32cd" stroke="#9a32cd" points="126.79,-235.57 117.02,-239.66 127.21,-242.56 126.79,-235.57"/>
</a>
</g>
<text text-anchor="middle" x="214" y="-251" font-family="Helvetica,sans-Serif" font-size="10.00" fill="grey"> m_imm_nbits_rcomp</text>
<text text-anchor="middle" x="214" y="-240" font-family="Helvetica,sans-Serif" font-size="10.00" fill="grey">m_imm_nbits_tag</text>
</g>
<!-- Node4 -->
<g id="Node000004" class="node">
<title>Node4</title>
<g id="a_Node000004"><a xlink:href="../../db/d20/structlci_1_1option__t.html" target="_top" xlink:title=" ">
<polygon fill="white" stroke="#666666" points="114,-214 11,-214 11,-184 114,-184 114,-214"/>
<text text-anchor="start" x="19" y="-202" font-family="Helvetica,sans-Serif" font-size="10.00">lci::option_t&lt; attr</text>
<text text-anchor="middle" x="62.5" y="-191" font-family="Helvetica,sans-Serif" font-size="10.00">_rdv_protocol_t &gt;</text>
</a>
</g>
</g>
<!-- Node4&#45;&gt;Node1 -->
<g id="edge3_Node000001_Node000004" class="edge">
<title>Node4&#45;&gt;Node1</title>
<g id="a_edge3_Node000001_Node000004"><a xlink:title=" ">
<path fill="none" stroke="#9a32cd" stroke-dasharray="5,2" d="M124.3,-201.1C169.64,-200.92 232.54,-196.98 285,-180 309.27,-172.15 333.99,-155.22 348.11,-144.51"/>
<polygon fill="#9a32cd" stroke="#9a32cd" points="124.05,-197.59 114.04,-201.07 124.03,-204.59 124.05,-197.59"/>
</a>
</g>
<text text-anchor="middle" x="214" y="-203" font-family="Helvetica,sans-Serif" font-size="10.00" fill="grey"> m_rdv_protocol</text>
</g>
<!-- Node5 -->
<g id="Node000005" class="node">
<title>Node5</title>
<g id="a_Node000005"><a xlink:href="../../db/d20/structlci_1_1option__t.html" target="_top" xlink:title=" ">
<polygon fill="white" stroke="#666666" points="121,-153.5 4,-153.5 4,-134.5 121,-134.5 121,-153.5"/>
<text text-anchor="middle" x="62.5" y="-141.5" font-family="Helvetica,sans-Serif" font-size="10.00">lci::option_t&lt; bool &gt;</text>
</a>
</g>
</g>
<!-- Node5&#45;&gt;Node1 -->
<g id="edge4_Node000001_Node000005" class="edge">
<title>Node5&#45;&gt;Node1</title>
<g id="a_edge4_Node000001_Node000005"><a xlink:title=" ">
<path fill="none" stroke="#9a32cd" stroke-dasharray="5,2" d="M131.17,-136.75C135.17,-136.46 139.14,-136.2 143,-136 197.18,-133.16 259.06,-133.19 302.85,-133.77"/>
<polygon fill="#9a32cd" stroke="#9a32cd" points="130.89,-133.26 121.2,-137.54 131.45,-140.24 130.89,-133.26"/>
</a>
</g>
<text text-anchor="middle" x="214" y="-172" font-family="Helvetica,sans-Serif" font-size="10.00" fill="grey"> m_alloc_default_device</text>
<text text-anchor="start" x="143" y="-161" font-family="Helvetica,sans-Serif" font-size="10.00" fill="grey">m_alloc_default_matching</text>
<text text-anchor="middle" x="214" y="-150" font-family="Helvetica,sans-Serif" font-size="10.00" fill="grey">_engine</text>
<text text-anchor="middle" x="214" y="-139" font-family="Helvetica,sans-Serif" font-size="10.00" fill="grey">m_alloc_default_packet_pool</text>
</g>
<!-- Node6 -->
<g id="Node000006" class="node">
<title>Node6</title>
<g id="a_Node000006"><a xlink:href="../../db/d20/structlci_1_1option__t.html" target="_top" xlink:title=" ">
<polygon fill="white" stroke="#666666" points="118,-116 7,-116 7,-86 118,-86 118,-116"/>
<text text-anchor="start" x="15" y="-104" font-family="Helvetica,sans-Serif" font-size="10.00">lci::option_t&lt; const</text>
<text text-anchor="middle" x="62.5" y="-93" font-family="Helvetica,sans-Serif" font-size="10.00"> char * &gt;</text>
</a>
</g>
</g>
<!-- Node6&#45;&gt;Node1 -->
<g id="edge5_Node000001_Node000006" class="edge">
<title>Node6&#45;&gt;Node1</title>
<g id="a_edge5_Node000001_Node000006"><a xlink:title=" ">
<path fill="none" stroke="#9a32cd" stroke-dasharray="5,2" d="M128.43,-103.48C172.73,-105.78 232.64,-110.1 285,-118 297.41,-119.87 310.82,-122.66 322.82,-125.44"/>
<polygon fill="#9a32cd" stroke="#9a32cd" points="128.53,-99.98 118.37,-102.98 128.18,-106.97 128.53,-99.98"/>
</a>
</g>
<text text-anchor="middle" x="214" y="-121" font-family="Helvetica,sans-Serif" font-size="10.00" fill="grey"> m_name</text>
</g>
<!-- Node7 -->
<g id="Node000007" class="node">
<title>Node7</title>
<g id="a_Node000007"><a xlink:href="../../db/d20/structlci_1_1option__t.html" target="_top" xlink:title=" ">
<polygon fill="white" stroke="#666666" points="125,-67.5 0,-67.5 0,-48.5 125,-48.5 125,-67.5"/>
<text text-anchor="middle" x="62.5" y="-55.5" font-family="Helvetica,sans-Serif" font-size="10.00">lci::option_t&lt; void * &gt;</text>
</a>
</g>
</g>
<!-- Node7&#45;&gt;Node1 -->
<g id="edge6_Node000001_Node000007" class="edge">
<title>Node7&#45;&gt;Node1</title>
<g id="a_edge6_Node000001_Node000007"><a xlink:title=" ">
<path fill="none" stroke="#9a32cd" stroke-dasharray="5,2" d="M135.37,-60.61C179.6,-64.01 236.85,-71.72 285,-89 309.01,-97.62 333.61,-114.57 347.81,-125.31"/>
<polygon fill="#9a32cd" stroke="#9a32cd" points="135.5,-57.11 125.28,-59.89 135,-64.09 135.5,-57.11"/>
</a>
</g>
<text text-anchor="middle" x="214" y="-92" font-family="Helvetica,sans-Serif" font-size="10.00" fill="grey"> m_user_context</text>
</g>
<!-- Node8 -->
<g id="Node000008" class="node">
<title>Node8</title>
<g id="a_Node000008"><a xlink:href="../../db/d20/structlci_1_1option__t.html" target="_top" xlink:title=" ">
<polygon fill="white" stroke="#666666" points="112.5,-30 12.5,-30 12.5,0 112.5,0 112.5,-30"/>
<text text-anchor="start" x="20.5" y="-18" font-family="Helvetica,sans-Serif" font-size="10.00">lci::option_t&lt; std</text>
<text text-anchor="middle" x="62.5" y="-7" font-family="Helvetica,sans-Serif" font-size="10.00">::string &gt;</text>
</a>
</g>
</g>
<!-- Node8&#45;&gt;Node1 -->
<g id="edge7_Node000001_Node000008" class="edge">
<title>Node8&#45;&gt;Node1</title>
<g id="a_edge7_Node000001_Node000008"><a xlink:title=" ">
<path fill="none" stroke="#9a32cd" stroke-dasharray="5,2" d="M123.15,-12.06C169.93,-12.32 235.24,-18.5 285,-46 319.49,-65.06 344.95,-106.72 355.13,-125.49"/>
<polygon fill="#9a32cd" stroke="#9a32cd" points="122.85,-8.56 112.87,-12.1 122.88,-15.56 122.85,-8.56"/>
</a>
</g>
<text text-anchor="middle" x="214" y="-49" font-family="Helvetica,sans-Serif" font-size="10.00" fill="grey"> m_device_name</text>
</g>
</g>
</svg>
