<?xml version="1.0" encoding="UTF-8" standalone="no"?>
<!DOCTYPE svg PUBLIC "-//W3C//DTD SVG 1.1//EN"
 "http://www.w3.org/Graphics/SVG/1.1/DTD/svg11.dtd">
<!-- Generated by graphviz version 2.43.0 (0)
 -->
<!-- Title: lci::g_runtime_init_x Pages: 1 -->
<svg width="500pt" height="126pt"
 viewBox="0.00 0.00 499.50 126.00" xmlns="http://www.w3.org/2000/svg" xmlns:xlink="http://www.w3.org/1999/xlink">
<g id="graph0" class="graph" transform="scale(1 1) rotate(0) translate(4 122)">
<title>lci::g_runtime_init_x</title>
<!-- Node1 -->
<g id="Node000001" class="node">
<title>Node1</title>
<g id="a_Node000001"><a xlink:title="The actual implementation for g_runtime_init.">
<polygon fill="#999999" stroke="#666666" points="279.5,-19 163.5,-19 163.5,0 279.5,0 279.5,-19"/>
<text text-anchor="middle" x="221.5" y="-7" font-family="Helvetica,sans-Serif" font-size="10.00">lci::g_runtime_init_x</text>
</a>
</g>
</g>
<!-- Node2 -->
<g id="Node000002" class="node">
<title>Node2</title>
<g id="a_Node000002"><a xlink:href="../../db/d20/structlci_1_1option__t.html" target="_top" xlink:title=" ">
<polygon fill="white" stroke="#666666" points="125,-118 0,-118 0,-99 125,-99 125,-118"/>
<text text-anchor="middle" x="62.5" y="-106" font-family="Helvetica,sans-Serif" font-size="10.00">lci::option_t&lt; size_t &gt;</text>
</a>
</g>
</g>
<!-- Node2&#45;&gt;Node1 -->
<g id="edge1_Node000001_Node000002" class="edge">
<title>Node2&#45;&gt;Node1</title>
<g id="a_edge1_Node000001_Node000002"><a xlink:title=" ">
<path fill="none" stroke="#9a32cd" stroke-dasharray="5,2" d="M62.38,-88.3C63.36,-72.28 67.43,-50.03 81.5,-37 93.48,-25.9 130.32,-19.2 163.21,-15.32"/>
<polygon fill="#9a32cd" stroke="#9a32cd" points="58.87,-88.56 62.11,-98.65 65.87,-88.74 58.87,-88.56"/>
</a>
</g>
<text text-anchor="middle" x="149.5" y="-56.5" font-family="Helvetica,sans-Serif" font-size="10.00" fill="grey"> m_packet_return_threshold</text>
</g>
<!-- Node3 -->
<g id="Node000003" class="node">
<title>Node3</title>
<g id="a_Node000003"><a xlink:href="../../db/d20/structlci_1_1option__t.html" target="_top" xlink:title=" ">
<polygon fill="white" stroke="#666666" points="276,-118 167,-118 167,-99 276,-99 276,-118"/>
<text text-anchor="middle" x="221.5" y="-106" font-family="Helvetica,sans-Serif" font-size="10.00">lci::option_t&lt; int &gt;</text>
</a>
</g>
</g>
<!-- Node3&#45;&gt;Node1 -->
<g id="edge2_Node000001_Node000003" class="edge">
<title>Node3&#45;&gt;Node1</title>
<g id="a_edge2_Node000001_Node000003"><a xlink:title=" ">
<path fill="none" stroke="#9a32cd" stroke-dasharray="5,2" d="M221.5,-88.68C221.5,-67.74 221.5,-34.81 221.5,-19.23"/>
<polygon fill="#9a32cd" stroke="#9a32cd" points="218,-88.89 221.5,-98.89 225,-88.89 218,-88.89"/>
</a>
</g>
<text text-anchor="middle" x="274.5" y="-62" font-family="Helvetica,sans-Serif" font-size="10.00" fill="grey"> m_imm_nbits_rcomp</text>
<text text-anchor="middle" x="274.5" y="-51" font-family="Helvetica,sans-Serif" font-size="10.00" fill="grey">m_imm_nbits_tag</text>
</g>
<!-- Node4 -->
<g id="Node000004" class="node">
<title>Node4</title>
<g id="a_Node000004"><a xlink:href="../../db/d20/structlci_1_1option__t.html" target="_top" xlink:title=" ">
<polygon fill="white" stroke="#666666" points="411,-118 294,-118 294,-99 411,-99 411,-118"/>
<text text-anchor="middle" x="352.5" y="-106" font-family="Helvetica,sans-Serif" font-size="10.00">lci::option_t&lt; bool &gt;</text>
</a>
</g>
</g>
<!-- Node4&#45;&gt;Node1 -->
<g id="edge3_Node000001_Node000004" class="edge">
<title>Node4&#45;&gt;Node1</title>
<g id="a_edge3_Node000001_Node000004"><a xlink:title=" ">
<path fill="none" stroke="#9a32cd" stroke-dasharray="5,2" d="M351.57,-88.42C349.76,-72.48 344.65,-50.27 330.5,-37 316.79,-24.14 297.93,-17.21 279.75,-13.57"/>
<polygon fill="#9a32cd" stroke="#9a32cd" points="348.11,-89.02 352.39,-98.71 355.08,-88.46 348.11,-89.02"/>
</a>
</g>
<text text-anchor="middle" x="420.5" y="-73" font-family="Helvetica,sans-Serif" font-size="10.00" fill="grey"> m_alloc_default_device</text>
<text text-anchor="start" x="349.5" y="-62" font-family="Helvetica,sans-Serif" font-size="10.00" fill="grey">m_alloc_default_matching</text>
<text text-anchor="middle" x="420.5" y="-51" font-family="Helvetica,sans-Serif" font-size="10.00" fill="grey">_engine</text>
<text text-anchor="middle" x="420.5" y="-40" font-family="Helvetica,sans-Serif" font-size="10.00" fill="grey">m_alloc_default_packet_pool</text>
</g>
</g>
</svg>
