<?xml version="1.0" encoding="UTF-8" standalone="no"?>
<!DOCTYPE svg PUBLIC "-//W3C//DTD SVG 1.1//EN"
 "http://www.w3.org/Graphics/SVG/1.1/DTD/svg11.dtd">
<!-- Generated by graphviz version 2.43.0 (0)
 -->
<!-- Title: lci::free_runtime_x::call Pages: 1 -->
<svg width="260pt" height="76pt"
 viewBox="0.00 0.00 260.00 75.50" xmlns="http://www.w3.org/2000/svg" xmlns:xlink="http://www.w3.org/1999/xlink">
<g id="graph0" class="graph" transform="scale(1 1) rotate(0) translate(4 71.5)">
<title>lci::free_runtime_x::call</title>
<!-- Node1 -->
<g id="Node000001" class="node">
<title>Node1</title>
<g id="a_Node000001"><a xlink:title=" ">
<polygon fill="#999999" stroke="#666666" points="252,-51 144,-51 144,-21 252,-21 252,-51"/>
<text text-anchor="start" x="152" y="-39" font-family="Helvetica,sans-Serif" font-size="10.00">lci::free_runtime_x</text>
<text text-anchor="middle" x="198" y="-28" font-family="Helvetica,sans-Serif" font-size="10.00">::call</text>
</a>
</g>
</g>
<!-- Node2 -->
<g id="Node000002" class="node">
<title>Node2</title>
<g id="a_Node000002"><a xlink:href="../../d5/dd3/namespacelci.html#a925ad203c126d3128e7e93d661a1a72b" target="_top" xlink:title=" ">
<polygon fill="white" stroke="#666666" points="102.5,-67.5 5.5,-67.5 5.5,-48.5 102.5,-48.5 102.5,-67.5"/>
<text text-anchor="middle" x="54" y="-55.5" font-family="Helvetica,sans-Serif" font-size="10.00">lci::free_runtime</text>
</a>
</g>
</g>
<!-- Node1&#45;&gt;Node2 -->
<g id="edge1_Node000001_Node000002" class="edge">
<title>Node1&#45;&gt;Node2</title>
<g id="a_edge1_Node000001_Node000002"><a xlink:title=" ">
<path fill="none" stroke="#63b8ff" d="M133.75,-45.8C123.26,-47.43 112.53,-49.09 102.5,-50.64"/>
<polygon fill="#63b8ff" stroke="#63b8ff" points="134.37,-49.24 143.72,-44.25 133.3,-42.33 134.37,-49.24"/>
</a>
</g>
</g>
<!-- Node3 -->
<g id="Node000003" class="node">
<title>Node3</title>
<g id="a_Node000003"><a xlink:href="../../df/d69/classlci_1_1free__runtime__x.html#ad07ebfea23fa2b29f7e9856c48aa35ad" target="_top" xlink:title=" ">
<polygon fill="white" stroke="#666666" points="108,-30 0,-30 0,0 108,0 108,-30"/>
<text text-anchor="start" x="8" y="-18" font-family="Helvetica,sans-Serif" font-size="10.00">lci::free_runtime_x</text>
<text text-anchor="middle" x="54" y="-7" font-family="Helvetica,sans-Serif" font-size="10.00">::operator()</text>
</a>
</g>
</g>
<!-- Node1&#45;&gt;Node3 -->
<g id="edge2_Node000001_Node000003" class="edge">
<title>Node1&#45;&gt;Node3</title>
<g id="a_edge2_Node000001_Node000003"><a xlink:title=" ">
<path fill="none" stroke="#63b8ff" d="M133.76,-26.65C125.19,-25.38 116.47,-24.09 108.11,-22.85"/>
<polygon fill="#63b8ff" stroke="#63b8ff" points="133.32,-30.12 143.72,-28.12 134.34,-23.2 133.32,-30.12"/>
</a>
</g>
</g>
</g>
</svg>
