<?xml version="1.0" encoding="UTF-8" standalone="no"?>
<!DOCTYPE svg PUBLIC "-//W3C//DTD SVG 1.1//EN"
 "http://www.w3.org/Graphics/SVG/1.1/DTD/svg11.dtd">
<!-- Generated by graphviz version 2.43.0 (0)
 -->
<!-- Title: lci::free_runtime_x::operator() Pages: 1 -->
<svg width="692pt" height="114pt"
 viewBox="0.00 0.00 692.00 113.50" xmlns="http://www.w3.org/2000/svg" xmlns:xlink="http://www.w3.org/1999/xlink">
<g id="graph0" class="graph" transform="scale(1 1) rotate(0) translate(4 109.5)">
<title>lci::free_runtime_x::operator()</title>
<!-- Node1 -->
<g id="Node000001" class="node">
<title>Node1</title>
<g id="a_Node000001"><a xlink:title=" ">
<polygon fill="#999999" stroke="#666666" points="108,-62.5 0,-62.5 0,-32.5 108,-32.5 108,-62.5"/>
<text text-anchor="start" x="8" y="-50.5" font-family="Helvetica,sans-Serif" font-size="10.00">lci::free_runtime_x</text>
<text text-anchor="middle" x="54" y="-39.5" font-family="Helvetica,sans-Serif" font-size="10.00">::operator()</text>
</a>
</g>
</g>
<!-- Node2 -->
<g id="Node000002" class="node">
<title>Node2</title>
<g id="a_Node000002"><a xlink:href="../../df/d69/classlci_1_1free__runtime__x.html#ae78914c01385df278a8c7fde850f7e6d" target="_top" xlink:title=" ">
<polygon fill="white" stroke="#666666" points="252,-62.5 144,-62.5 144,-32.5 252,-32.5 252,-62.5"/>
<text text-anchor="start" x="152" y="-50.5" font-family="Helvetica,sans-Serif" font-size="10.00">lci::free_runtime_x</text>
<text text-anchor="middle" x="198" y="-39.5" font-family="Helvetica,sans-Serif" font-size="10.00">::call</text>
</a>
</g>
</g>
<!-- Node1&#45;&gt;Node2 -->
<g id="edge1_Node000001_Node000002" class="edge">
<title>Node1&#45;&gt;Node2</title>
<g id="a_edge1_Node000001_Node000002"><a xlink:title=" ">
<path fill="none" stroke="#63b8ff" d="M108.28,-47.5C116.56,-47.5 125.18,-47.5 133.66,-47.5"/>
<polygon fill="#63b8ff" stroke="#63b8ff" points="133.89,-51 143.89,-47.5 133.89,-44 133.89,-51"/>
</a>
</g>
</g>
<!-- Node3 -->
<g id="Node000003" class="node">
<title>Node3</title>
<g id="a_Node000003"><a xlink:href="../../df/d69/classlci_1_1free__runtime__x.html#a22e4c593e0a89c13648fdd622357c63e" target="_top" xlink:title=" ">
<polygon fill="white" stroke="#666666" points="396,-105.5 288,-105.5 288,-75.5 396,-75.5 396,-105.5"/>
<text text-anchor="start" x="296" y="-93.5" font-family="Helvetica,sans-Serif" font-size="10.00">lci::free_runtime_x</text>
<text text-anchor="middle" x="342" y="-82.5" font-family="Helvetica,sans-Serif" font-size="10.00">::call_impl</text>
</a>
</g>
</g>
<!-- Node2&#45;&gt;Node3 -->
<g id="edge2_Node000002_Node000003" class="edge">
<title>Node2&#45;&gt;Node3</title>
<g id="a_edge2_Node000002_Node000003"><a xlink:title=" ">
<path fill="none" stroke="#63b8ff" d="M248.66,-62.54C259.2,-65.73 270.42,-69.13 281.28,-72.42"/>
<polygon fill="#63b8ff" stroke="#63b8ff" points="280.54,-75.85 291.12,-75.4 282.57,-69.15 280.54,-75.85"/>
</a>
</g>
</g>
<!-- Node4 -->
<g id="Node000004" class="node">
<title>Node4</title>
<g id="a_Node000004"><a xlink:href="../../df/d69/classlci_1_1free__runtime__x.html#acb0cbc9dde6fb287381d9027365dc7c0" target="_top" xlink:title=" ">
<polygon fill="white" stroke="#666666" points="540,-83.5 432,-83.5 432,-53.5 540,-53.5 540,-83.5"/>
<text text-anchor="start" x="440" y="-71.5" font-family="Helvetica,sans-Serif" font-size="10.00">lci::free_runtime_x</text>
<text text-anchor="middle" x="486" y="-60.5" font-family="Helvetica,sans-Serif" font-size="10.00">::runtime</text>
</a>
</g>
</g>
<!-- Node2&#45;&gt;Node4 -->
<g id="edge6_Node000002_Node000004" class="edge">
<title>Node2&#45;&gt;Node4</title>
<g id="a_edge6_Node000002_Node000004"><a xlink:title=" ">
<path fill="none" stroke="#63b8ff" d="M252.12,-51.4C300.03,-54.92 370.57,-60.1 421.45,-63.83"/>
<polygon fill="#63b8ff" stroke="#63b8ff" points="421.45,-67.34 431.68,-64.58 421.96,-60.36 421.45,-67.34"/>
</a>
</g>
</g>
<!-- Node6 -->
<g id="Node000006" class="node">
<title>Node6</title>
<g id="a_Node000006"><a xlink:href="../../d8/d33/group__LCI__BASIC.html#gabce215a9c6eea84dcee74d0179c34aab" target="_top" xlink:title="Global finalization for LCI.">
<polygon fill="white" stroke="#666666" points="394,-19 290,-19 290,0 394,0 394,-19"/>
<text text-anchor="middle" x="342" y="-7" font-family="Helvetica,sans-Serif" font-size="10.00">lci::global_finalize</text>
</a>
</g>
</g>
<!-- Node2&#45;&gt;Node6 -->
<g id="edge5_Node000002_Node000006" class="edge">
<title>Node2&#45;&gt;Node6</title>
<g id="a_edge5_Node000002_Node000006"><a xlink:title=" ">
<path fill="none" stroke="#63b8ff" d="M252.28,-33.24C266.46,-29.45 281.66,-25.38 295.39,-21.71"/>
<polygon fill="#63b8ff" stroke="#63b8ff" points="296.34,-25.07 305.1,-19.11 294.53,-18.31 296.34,-25.07"/>
</a>
</g>
</g>
<!-- Node3&#45;&gt;Node4 -->
<g id="edge3_Node000003_Node000004" class="edge">
<title>Node3&#45;&gt;Node4</title>
<g id="a_edge3_Node000003_Node000004"><a xlink:title=" ">
<path fill="none" stroke="#63b8ff" d="M396.28,-82.25C404.65,-80.95 413.37,-79.6 421.94,-78.27"/>
<polygon fill="#63b8ff" stroke="#63b8ff" points="422.55,-81.72 431.89,-76.73 421.48,-74.8 422.55,-81.72"/>
</a>
</g>
</g>
<!-- Node5 -->
<g id="Node000005" class="node">
<title>Node5</title>
<g id="a_Node000005"><a xlink:href="../../df/d69/classlci_1_1free__runtime__x.html#a5329406b4fb8005662401d9701f0c0bd" target="_top" xlink:title=" ">
<polygon fill="white" stroke="#666666" points="684,-83.5 576,-83.5 576,-53.5 684,-53.5 684,-83.5"/>
<text text-anchor="start" x="584" y="-71.5" font-family="Helvetica,sans-Serif" font-size="10.00">lci::free_runtime_x</text>
<text text-anchor="middle" x="630" y="-60.5" font-family="Helvetica,sans-Serif" font-size="10.00">::free_runtime_x</text>
</a>
</g>
</g>
<!-- Node4&#45;&gt;Node5 -->
<g id="edge4_Node000004_Node000005" class="edge">
<title>Node4&#45;&gt;Node5</title>
<g id="a_edge4_Node000004_Node000005"><a xlink:title=" ">
<path fill="none" stroke="#63b8ff" d="M540.28,-68.5C548.56,-68.5 557.18,-68.5 565.66,-68.5"/>
<polygon fill="#63b8ff" stroke="#63b8ff" points="565.89,-72 575.89,-68.5 565.89,-65 565.89,-72"/>
</a>
</g>
</g>
</g>
</svg>
