<?xml version="1.0" encoding="UTF-8" standalone="no"?>
<!DOCTYPE svg PUBLIC "-//W3C//DTD SVG 1.1//EN"
 "http://www.w3.org/Graphics/SVG/1.1/DTD/svg11.dtd">
<!-- Generated by graphviz version 2.43.0 (0)
 -->
<!-- Title: lci::free_runtime_x::call_impl Pages: 1 -->
<svg width="404pt" height="38pt"
 viewBox="0.00 0.00 404.00 38.00" xmlns="http://www.w3.org/2000/svg" xmlns:xlink="http://www.w3.org/1999/xlink">
<g id="graph0" class="graph" transform="scale(1 1) rotate(0) translate(4 34)">
<title>lci::free_runtime_x::call_impl</title>
<!-- Node1 -->
<g id="Node000001" class="node">
<title>Node1</title>
<g id="a_Node000001"><a xlink:title=" ">
<polygon fill="#999999" stroke="#666666" points="108,-30 0,-30 0,0 108,0 108,-30"/>
<text text-anchor="start" x="8" y="-18" font-family="Helvetica,sans-Serif" font-size="10.00">lci::free_runtime_x</text>
<text text-anchor="middle" x="54" y="-7" font-family="Helvetica,sans-Serif" font-size="10.00">::call_impl</text>
</a>
</g>
</g>
<!-- Node2 -->
<g id="Node000002" class="node">
<title>Node2</title>
<g id="a_Node000002"><a xlink:href="../../df/d69/classlci_1_1free__runtime__x.html#acb0cbc9dde6fb287381d9027365dc7c0" target="_top" xlink:title=" ">
<polygon fill="white" stroke="#666666" points="252,-30 144,-30 144,0 252,0 252,-30"/>
<text text-anchor="start" x="152" y="-18" font-family="Helvetica,sans-Serif" font-size="10.00">lci::free_runtime_x</text>
<text text-anchor="middle" x="198" y="-7" font-family="Helvetica,sans-Serif" font-size="10.00">::runtime</text>
</a>
</g>
</g>
<!-- Node1&#45;&gt;Node2 -->
<g id="edge1_Node000001_Node000002" class="edge">
<title>Node1&#45;&gt;Node2</title>
<g id="a_edge1_Node000001_Node000002"><a xlink:title=" ">
<path fill="none" stroke="#63b8ff" d="M108.28,-15C116.56,-15 125.18,-15 133.66,-15"/>
<polygon fill="#63b8ff" stroke="#63b8ff" points="133.89,-18.5 143.89,-15 133.89,-11.5 133.89,-18.5"/>
</a>
</g>
</g>
<!-- Node3 -->
<g id="Node000003" class="node">
<title>Node3</title>
<g id="a_Node000003"><a xlink:href="../../df/d69/classlci_1_1free__runtime__x.html#a5329406b4fb8005662401d9701f0c0bd" target="_top" xlink:title=" ">
<polygon fill="white" stroke="#666666" points="396,-30 288,-30 288,0 396,0 396,-30"/>
<text text-anchor="start" x="296" y="-18" font-family="Helvetica,sans-Serif" font-size="10.00">lci::free_runtime_x</text>
<text text-anchor="middle" x="342" y="-7" font-family="Helvetica,sans-Serif" font-size="10.00">::free_runtime_x</text>
</a>
</g>
</g>
<!-- Node2&#45;&gt;Node3 -->
<g id="edge2_Node000002_Node000003" class="edge">
<title>Node2&#45;&gt;Node3</title>
<g id="a_edge2_Node000002_Node000003"><a xlink:title=" ">
<path fill="none" stroke="#63b8ff" d="M252.28,-15C260.56,-15 269.18,-15 277.66,-15"/>
<polygon fill="#63b8ff" stroke="#63b8ff" points="277.89,-18.5 287.89,-15 277.89,-11.5 277.89,-18.5"/>
</a>
</g>
</g>
</g>
</svg>
