<?xml version="1.0" encoding="UTF-8" standalone="no"?>
<!DOCTYPE svg PUBLIC "-//W3C//DTD SVG 1.1//EN"
 "http://www.w3.org/Graphics/SVG/1.1/DTD/svg11.dtd">
<!-- Generated by graphviz version 2.43.0 (0)
 -->
<!-- Title: lci::alloc_packet_pool_x Pages: 1 -->
<svg width="391pt" height="181pt"
 viewBox="0.00 0.00 390.50 181.00" xmlns="http://www.w3.org/2000/svg" xmlns:xlink="http://www.w3.org/1999/xlink">
<g id="graph0" class="graph" transform="scale(1 1) rotate(0) translate(4 177)">
<title>lci::alloc_packet_pool_x</title>
<!-- Node1 -->
<g id="Node000001" class="node">
<title>Node1</title>
<g id="a_Node000001"><a xlink:title="The actual implementation for alloc_packet_pool.">
<polygon fill="#999999" stroke="#666666" points="243,-19 111,-19 111,0 243,0 243,-19"/>
<text text-anchor="middle" x="177" y="-7" font-family="Helvetica,sans-Serif" font-size="10.00">lci::alloc_packet_pool_x</text>
</a>
</g>
</g>
<!-- Node2 -->
<g id="Node000002" class="node">
<title>Node2</title>
<g id="a_Node000002"><a xlink:href="../../db/d20/structlci_1_1option__t.html" target="_top" xlink:title=" ">
<polygon fill="white" stroke="#666666" points="96,-107 0,-107 0,-77 96,-77 96,-107"/>
<text text-anchor="start" x="8" y="-95" font-family="Helvetica,sans-Serif" font-size="10.00">lci::option_t&lt; lci</text>
<text text-anchor="middle" x="48" y="-84" font-family="Helvetica,sans-Serif" font-size="10.00">::runtime_t &gt;</text>
</a>
</g>
</g>
<!-- Node2&#45;&gt;Node1 -->
<g id="edge1_Node000001_Node000002" class="edge">
<title>Node2&#45;&gt;Node1</title>
<g id="a_edge1_Node000001_Node000002"><a xlink:title=" ">
<path fill="none" stroke="#9a32cd" stroke-dasharray="5,2" d="M71.1,-70.16C83.77,-59.39 100.09,-46.54 116,-37 127.78,-29.93 141.79,-23.71 153.41,-19.07"/>
<polygon fill="#9a32cd" stroke="#9a32cd" points="68.61,-67.68 63.35,-76.88 73.2,-72.97 68.61,-67.68"/>
</a>
</g>
<text text-anchor="middle" x="144.5" y="-45.5" font-family="Helvetica,sans-Serif" font-size="10.00" fill="grey"> m_runtime</text>
</g>
<!-- Node3 -->
<g id="Node000003" class="node">
<title>Node3</title>
<g id="a_Node000003"><a xlink:href="../../dc/d5c/classlci_1_1runtime__t.html" target="_top" xlink:title="The actual implementation for RESOURCE runtime.">
<polygon fill="white" stroke="#666666" points="88.5,-173 7.5,-173 7.5,-154 88.5,-154 88.5,-173"/>
<text text-anchor="middle" x="48" y="-161" font-family="Helvetica,sans-Serif" font-size="10.00">lci::runtime_t</text>
</a>
</g>
</g>
<!-- Node3&#45;&gt;Node2 -->
<g id="edge2_Node000002_Node000003" class="edge">
<title>Node3&#45;&gt;Node2</title>
<g id="a_edge2_Node000002_Node000003"><a xlink:title=" ">
<path fill="none" stroke="#9a32cd" stroke-dasharray="5,2" d="M48,-143.71C48,-132.19 48,-117.68 48,-107.14"/>
<polygon fill="#9a32cd" stroke="#9a32cd" points="44.5,-143.98 48,-153.98 51.5,-143.98 44.5,-143.98"/>
</a>
</g>
<text text-anchor="middle" x="71" y="-128" font-family="Helvetica,sans-Serif" font-size="10.00" fill="grey"> m_value</text>
</g>
<!-- Node4 -->
<g id="Node000004" class="node">
<title>Node4</title>
<g id="a_Node000004"><a xlink:href="../../db/d20/structlci_1_1option__t.html" target="_top" xlink:title=" ">
<polygon fill="white" stroke="#666666" points="239.5,-101.5 114.5,-101.5 114.5,-82.5 239.5,-82.5 239.5,-101.5"/>
<text text-anchor="middle" x="177" y="-89.5" font-family="Helvetica,sans-Serif" font-size="10.00">lci::option_t&lt; size_t &gt;</text>
</a>
</g>
</g>
<!-- Node4&#45;&gt;Node1 -->
<g id="edge3_Node000001_Node000004" class="edge">
<title>Node4&#45;&gt;Node1</title>
<g id="a_edge3_Node000001_Node000004"><a xlink:title=" ">
<path fill="none" stroke="#9a32cd" stroke-dasharray="5,2" d="M177,-72.17C177,-55.51 177,-31.93 177,-19.3"/>
<polygon fill="#9a32cd" stroke="#9a32cd" points="173.5,-72.39 177,-82.39 180.5,-72.39 173.5,-72.39"/>
</a>
</g>
<text text-anchor="middle" x="213.5" y="-51" font-family="Helvetica,sans-Serif" font-size="10.00" fill="grey"> m_npackets</text>
<text text-anchor="middle" x="213.5" y="-40" font-family="Helvetica,sans-Serif" font-size="10.00" fill="grey">m_packet_size</text>
</g>
<!-- Node5 -->
<g id="Node000005" class="node">
<title>Node5</title>
<g id="a_Node000005"><a xlink:href="../../db/d20/structlci_1_1option__t.html" target="_top" xlink:title=" ">
<polygon fill="white" stroke="#666666" points="382.5,-101.5 257.5,-101.5 257.5,-82.5 382.5,-82.5 382.5,-101.5"/>
<text text-anchor="middle" x="320" y="-89.5" font-family="Helvetica,sans-Serif" font-size="10.00">lci::option_t&lt; void * &gt;</text>
</a>
</g>
</g>
<!-- Node5&#45;&gt;Node1 -->
<g id="edge4_Node000001_Node000005" class="edge">
<title>Node5&#45;&gt;Node1</title>
<g id="a_edge4_Node000001_Node000005"><a xlink:title=" ">
<path fill="none" stroke="#9a32cd" stroke-dasharray="5,2" d="M303.95,-75.09C291.27,-63.25 272.67,-47.41 254,-37 240.29,-29.36 224,-23.36 209.93,-19.02"/>
<polygon fill="#9a32cd" stroke="#9a32cd" points="301.72,-77.8 311.36,-82.19 306.56,-72.75 301.72,-77.8"/>
</a>
</g>
<text text-anchor="middle" x="325" y="-45.5" font-family="Helvetica,sans-Serif" font-size="10.00" fill="grey"> m_user_context</text>
</g>
</g>
</svg>
