<?xml version="1.0" encoding="UTF-8" standalone="no"?>
<!DOCTYPE svg PUBLIC "-//W3C//DTD SVG 1.1//EN"
 "http://www.w3.org/Graphics/SVG/1.1/DTD/svg11.dtd">
<!-- Generated by graphviz version 2.43.0 (0)
 -->
<!-- Title: lci::alloc_device_x::operator() Pages: 1 -->
<svg width="717pt" height="614pt"
 viewBox="0.00 0.00 717.00 614.00" xmlns="http://www.w3.org/2000/svg" xmlns:xlink="http://www.w3.org/1999/xlink">
<g id="graph0" class="graph" transform="scale(1 1) rotate(0) translate(4 610)">
<title>lci::alloc_device_x::operator()</title>
<!-- Node1 -->
<g id="Node000001" class="node">
<title>Node1</title>
<g id="a_Node000001"><a xlink:title=" ">
<polygon fill="#999999" stroke="#666666" points="106,-315 0,-315 0,-285 106,-285 106,-315"/>
<text text-anchor="start" x="8" y="-303" font-family="Helvetica,sans-Serif" font-size="10.00">lci::alloc_device_x</text>
<text text-anchor="middle" x="53" y="-292" font-family="Helvetica,sans-Serif" font-size="10.00">::operator()</text>
</a>
</g>
</g>
<!-- Node2 -->
<g id="Node000002" class="node">
<title>Node2</title>
<g id="a_Node000002"><a xlink:href="../../d9/d10/classlci_1_1alloc__device__x.html#accfc23b8c5a8d782aa772cc509749d14" target="_top" xlink:title=" ">
<polygon fill="white" stroke="#666666" points="248,-315 142,-315 142,-285 248,-285 248,-315"/>
<text text-anchor="start" x="150" y="-303" font-family="Helvetica,sans-Serif" font-size="10.00">lci::alloc_device_x</text>
<text text-anchor="middle" x="195" y="-292" font-family="Helvetica,sans-Serif" font-size="10.00">::call</text>
</a>
</g>
</g>
<!-- Node1&#45;&gt;Node2 -->
<g id="edge1_Node000001_Node000002" class="edge">
<title>Node1&#45;&gt;Node2</title>
<g id="a_edge1_Node000001_Node000002"><a xlink:title=" ">
<path fill="none" stroke="#63b8ff" d="M106.13,-300C114.42,-300 123.07,-300 131.57,-300"/>
<polygon fill="#63b8ff" stroke="#63b8ff" points="131.83,-303.5 141.83,-300 131.83,-296.5 131.83,-303.5"/>
</a>
</g>
</g>
<!-- Node3 -->
<g id="Node000003" class="node">
<title>Node3</title>
<g id="a_Node000003"><a xlink:href="../../d9/d10/classlci_1_1alloc__device__x.html#a0364c3bcc9d35c8c2dadd4a683e13b2b" target="_top" xlink:title=" ">
<polygon fill="white" stroke="#666666" points="563.5,-606 429.5,-606 429.5,-576 563.5,-576 563.5,-606"/>
<text text-anchor="start" x="437.5" y="-594" font-family="Helvetica,sans-Serif" font-size="10.00">lci::alloc_device_x</text>
<text text-anchor="middle" x="496.5" y="-583" font-family="Helvetica,sans-Serif" font-size="10.00">::alloc_default_endpoint</text>
</a>
</g>
</g>
<!-- Node2&#45;&gt;Node3 -->
<g id="edge2_Node000002_Node000003" class="edge">
<title>Node2&#45;&gt;Node3</title>
<g id="a_edge2_Node000002_Node000003"><a xlink:title=" ">
<path fill="none" stroke="#63b8ff" d="M198.62,-315.18C205.75,-352.21 228.78,-448.21 284,-504 320.48,-540.86 374.8,-562.76 419.25,-575.36"/>
<polygon fill="#63b8ff" stroke="#63b8ff" points="418.59,-578.81 429.15,-578.06 420.43,-572.05 418.59,-578.81"/>
</a>
</g>
</g>
<!-- Node5 -->
<g id="Node000005" class="node">
<title>Node5</title>
<g id="a_Node000005"><a xlink:href="../../d9/d10/classlci_1_1alloc__device__x.html#ab20e017d5404c44094f5926dfb6d49de" target="_top" xlink:title=" ">
<polygon fill="white" stroke="#666666" points="567,-558 426,-558 426,-528 567,-528 567,-558"/>
<text text-anchor="start" x="434" y="-546" font-family="Helvetica,sans-Serif" font-size="10.00">lci::alloc_device_x</text>
<text text-anchor="middle" x="496.5" y="-535" font-family="Helvetica,sans-Serif" font-size="10.00">::alloc_progress_endpoint</text>
</a>
</g>
</g>
<!-- Node2&#45;&gt;Node5 -->
<g id="edge4_Node000002_Node000005" class="edge">
<title>Node2&#45;&gt;Node5</title>
<g id="a_edge4_Node000002_Node000005"><a xlink:title=" ">
<path fill="none" stroke="#63b8ff" d="M200.32,-315.28C210.04,-347.09 236.61,-420.95 284,-463 321.05,-495.87 372.96,-515.77 416.07,-527.51"/>
<polygon fill="#63b8ff" stroke="#63b8ff" points="415.42,-530.95 425.98,-530.1 417.19,-524.18 415.42,-530.95"/>
</a>
</g>
</g>
<!-- Node6 -->
<g id="Node000006" class="node">
<title>Node6</title>
<g id="a_Node000006"><a xlink:href="../../d9/d10/classlci_1_1alloc__device__x.html#a3f4864158352a2931293f4b4ca5ddc18" target="_top" xlink:title=" ">
<polygon fill="white" stroke="#666666" points="390,-337 284,-337 284,-307 390,-307 390,-337"/>
<text text-anchor="start" x="292" y="-325" font-family="Helvetica,sans-Serif" font-size="10.00">lci::alloc_device_x</text>
<text text-anchor="middle" x="337" y="-314" font-family="Helvetica,sans-Serif" font-size="10.00">::call_impl</text>
</a>
</g>
</g>
<!-- Node2&#45;&gt;Node6 -->
<g id="edge6_Node000002_Node000006" class="edge">
<title>Node2&#45;&gt;Node6</title>
<g id="a_edge6_Node000002_Node000006"><a xlink:title=" ">
<path fill="none" stroke="#63b8ff" d="M248.13,-308.19C256.51,-309.51 265.26,-310.88 273.85,-312.23"/>
<polygon fill="#63b8ff" stroke="#63b8ff" points="273.4,-315.71 283.83,-313.8 274.49,-308.79 273.4,-315.71"/>
</a>
</g>
</g>
<!-- Node7 -->
<g id="Node000007" class="node">
<title>Node7</title>
<g id="a_Node000007"><a xlink:href="../../d9/d10/classlci_1_1alloc__device__x.html#ad24d73c79259e5dcba473f20adad64cd" target="_top" xlink:title=" ">
<polygon fill="white" stroke="#666666" points="549.5,-510 443.5,-510 443.5,-480 549.5,-480 549.5,-510"/>
<text text-anchor="start" x="451.5" y="-498" font-family="Helvetica,sans-Serif" font-size="10.00">lci::alloc_device_x</text>
<text text-anchor="middle" x="496.5" y="-487" font-family="Helvetica,sans-Serif" font-size="10.00">::ibv_td_strategy</text>
</a>
</g>
</g>
<!-- Node2&#45;&gt;Node7 -->
<g id="edge31_Node000002_Node000007" class="edge">
<title>Node2&#45;&gt;Node7</title>
<g id="a_edge31_Node000002_Node000007"><a xlink:title=" ">
<path fill="none" stroke="#63b8ff" d="M202.65,-315.06C214.95,-341.22 243.72,-395.1 284,-425 328.18,-457.79 388.56,-475.75 433.5,-485.24"/>
<polygon fill="#63b8ff" stroke="#63b8ff" points="432.92,-488.7 443.41,-487.25 434.31,-481.83 432.92,-488.7"/>
</a>
</g>
</g>
<!-- Node8 -->
<g id="Node000008" class="node">
<title>Node8</title>
<g id="a_Node000008"><a xlink:href="../../d9/d10/classlci_1_1alloc__device__x.html#a6f0be32f14a934810e8f358b24fe981f" target="_top" xlink:title=" ">
<polygon fill="white" stroke="#666666" points="549.5,-462 443.5,-462 443.5,-432 549.5,-432 549.5,-462"/>
<text text-anchor="start" x="451.5" y="-450" font-family="Helvetica,sans-Serif" font-size="10.00">lci::alloc_device_x</text>
<text text-anchor="middle" x="496.5" y="-439" font-family="Helvetica,sans-Serif" font-size="10.00">::name</text>
</a>
</g>
</g>
<!-- Node2&#45;&gt;Node8 -->
<g id="edge32_Node000002_Node000008" class="edge">
<title>Node2&#45;&gt;Node8</title>
<g id="a_edge32_Node000002_Node000008"><a xlink:title=" ">
<path fill="none" stroke="#63b8ff" d="M206.33,-315.22C221.11,-335.79 250.27,-372.19 284,-392 329.98,-419 389.23,-432.94 433.31,-440.01"/>
<polygon fill="#63b8ff" stroke="#63b8ff" points="432.91,-443.49 443.32,-441.54 433.97,-436.57 432.91,-443.49"/>
</a>
</g>
</g>
<!-- Node9 -->
<g id="Node000009" class="node">
<title>Node9</title>
<g id="a_Node000009"><a xlink:href="../../d9/d10/classlci_1_1alloc__device__x.html#abeaee68a26587c6b359320ab7cc7def1" target="_top" xlink:title=" ">
<polygon fill="white" stroke="#666666" points="549.5,-414 443.5,-414 443.5,-384 549.5,-384 549.5,-414"/>
<text text-anchor="start" x="451.5" y="-402" font-family="Helvetica,sans-Serif" font-size="10.00">lci::alloc_device_x</text>
<text text-anchor="middle" x="496.5" y="-391" font-family="Helvetica,sans-Serif" font-size="10.00">::net_context</text>
</a>
</g>
</g>
<!-- Node2&#45;&gt;Node9 -->
<g id="edge33_Node000002_Node000009" class="edge">
<title>Node2&#45;&gt;Node9</title>
<g id="a_edge33_Node000002_Node000009"><a xlink:title=" ">
<path fill="none" stroke="#63b8ff" d="M211.41,-315.03C227.93,-330.22 255.63,-353.08 284,-365 331.61,-385.01 389.8,-393.31 433.09,-396.72"/>
<polygon fill="#63b8ff" stroke="#63b8ff" points="432.97,-400.23 443.2,-397.45 433.48,-393.24 432.97,-400.23"/>
</a>
</g>
</g>
<!-- Node10 -->
<g id="Node000010" class="node">
<title>Node10</title>
<g id="a_Node000010"><a xlink:href="../../d9/d10/classlci_1_1alloc__device__x.html#acd2e7ade6e7e4c91b3144bd3068ead07" target="_top" xlink:title=" ">
<polygon fill="white" stroke="#666666" points="549.5,-366 443.5,-366 443.5,-336 549.5,-336 549.5,-366"/>
<text text-anchor="start" x="451.5" y="-354" font-family="Helvetica,sans-Serif" font-size="10.00">lci::alloc_device_x</text>
<text text-anchor="middle" x="496.5" y="-343" font-family="Helvetica,sans-Serif" font-size="10.00">::net_max_cqes</text>
</a>
</g>
</g>
<!-- Node2&#45;&gt;Node10 -->
<g id="edge34_Node000002_Node000010" class="edge">
<title>Node2&#45;&gt;Node10</title>
<g id="a_edge34_Node000002_Node000010"><a xlink:title=" ">
<path fill="none" stroke="#63b8ff" d="M217.99,-315.15C235.12,-326.02 259.96,-339.79 284,-346 332.95,-358.64 390.41,-359.13 433.07,-356.89"/>
<polygon fill="#63b8ff" stroke="#63b8ff" points="433.54,-360.36 443.31,-356.28 433.12,-353.38 433.54,-360.36"/>
</a>
</g>
</g>
<!-- Node11 -->
<g id="Node000011" class="node">
<title>Node11</title>
<g id="a_Node000011"><a xlink:href="../../d9/d10/classlci_1_1alloc__device__x.html#a4c8c86d9400791bb609b391aef165d68" target="_top" xlink:title=" ">
<polygon fill="white" stroke="#666666" points="549.5,-318 443.5,-318 443.5,-288 549.5,-288 549.5,-318"/>
<text text-anchor="start" x="451.5" y="-306" font-family="Helvetica,sans-Serif" font-size="10.00">lci::alloc_device_x</text>
<text text-anchor="middle" x="496.5" y="-295" font-family="Helvetica,sans-Serif" font-size="10.00">::net_max_recvs</text>
</a>
</g>
</g>
<!-- Node2&#45;&gt;Node11 -->
<g id="edge35_Node000002_Node000011" class="edge">
<title>Node2&#45;&gt;Node11</title>
<g id="a_edge35_Node000002_Node000011"><a xlink:title=" ">
<path fill="none" stroke="#63b8ff" d="M248.11,-298.62C259.91,-298.36 272.39,-298.13 284,-298 331.11,-297.46 342.9,-296.88 390,-298 404.01,-298.33 419.07,-298.91 433.29,-299.56"/>
<polygon fill="#63b8ff" stroke="#63b8ff" points="433.31,-303.07 443.47,-300.04 433.64,-296.07 433.31,-303.07"/>
</a>
</g>
</g>
<!-- Node12 -->
<g id="Node000012" class="node">
<title>Node12</title>
<g id="a_Node000012"><a xlink:href="../../d9/d10/classlci_1_1alloc__device__x.html#afe0d1c701b1611f00c3feaa22bd5f0cd" target="_top" xlink:title=" ">
<polygon fill="white" stroke="#666666" points="549.5,-270 443.5,-270 443.5,-240 549.5,-240 549.5,-270"/>
<text text-anchor="start" x="451.5" y="-258" font-family="Helvetica,sans-Serif" font-size="10.00">lci::alloc_device_x</text>
<text text-anchor="middle" x="496.5" y="-247" font-family="Helvetica,sans-Serif" font-size="10.00">::net_max_sends</text>
</a>
</g>
</g>
<!-- Node2&#45;&gt;Node12 -->
<g id="edge36_Node000002_Node000012" class="edge">
<title>Node2&#45;&gt;Node12</title>
<g id="a_edge36_Node000002_Node000012"><a xlink:title=" ">
<path fill="none" stroke="#63b8ff" d="M248.17,-292.16C299.76,-284.41 378.72,-272.55 433.49,-264.32"/>
<polygon fill="#63b8ff" stroke="#63b8ff" points="434.06,-267.77 443.43,-262.82 433.02,-260.85 434.06,-267.77"/>
</a>
</g>
</g>
<!-- Node13 -->
<g id="Node000013" class="node">
<title>Node13</title>
<g id="a_Node000013"><a xlink:href="../../d9/d10/classlci_1_1alloc__device__x.html#a9dccb87689be3fb6d329abb8111bdf6c" target="_top" xlink:title=" ">
<polygon fill="white" stroke="#666666" points="564,-222 429,-222 429,-192 564,-192 564,-222"/>
<text text-anchor="start" x="437" y="-210" font-family="Helvetica,sans-Serif" font-size="10.00">lci::alloc_device_x</text>
<text text-anchor="middle" x="496.5" y="-199" font-family="Helvetica,sans-Serif" font-size="10.00">::net_send_reserved_pct</text>
</a>
</g>
</g>
<!-- Node2&#45;&gt;Node13 -->
<g id="edge37_Node000002_Node000013" class="edge">
<title>Node2&#45;&gt;Node13</title>
<g id="a_edge37_Node000002_Node000013"><a xlink:title=" ">
<path fill="none" stroke="#63b8ff" d="M235.67,-284.93C250.72,-279.38 268.08,-273.18 284,-268 332.44,-252.23 387.79,-236.34 429.71,-224.73"/>
<polygon fill="#63b8ff" stroke="#63b8ff" points="430.81,-228.06 439.52,-222.03 428.95,-221.31 430.81,-228.06"/>
</a>
</g>
</g>
<!-- Node14 -->
<g id="Node000014" class="node">
<title>Node14</title>
<g id="a_Node000014"><a xlink:href="../../d9/d10/classlci_1_1alloc__device__x.html#a7d316853b54b2a870ea35c387c1006e4" target="_top" xlink:title=" ">
<polygon fill="white" stroke="#666666" points="549.5,-174 443.5,-174 443.5,-144 549.5,-144 549.5,-174"/>
<text text-anchor="start" x="451.5" y="-162" font-family="Helvetica,sans-Serif" font-size="10.00">lci::alloc_device_x</text>
<text text-anchor="middle" x="496.5" y="-151" font-family="Helvetica,sans-Serif" font-size="10.00">::ofi_lock_mode</text>
</a>
</g>
</g>
<!-- Node2&#45;&gt;Node14 -->
<g id="edge38_Node000002_Node000014" class="edge">
<title>Node2&#45;&gt;Node14</title>
<g id="a_edge38_Node000002_Node000014"><a xlink:title=" ">
<path fill="none" stroke="#63b8ff" d="M212.06,-284.96C228.89,-269.86 256.65,-246.77 284,-232 331.56,-206.32 389.91,-186.98 433.27,-174.69"/>
<polygon fill="#63b8ff" stroke="#63b8ff" points="434.42,-178 443.12,-171.94 432.54,-171.26 434.42,-178"/>
</a>
</g>
</g>
<!-- Node15 -->
<g id="Node000015" class="node">
<title>Node15</title>
<g id="a_Node000015"><a xlink:href="../../d9/d10/classlci_1_1alloc__device__x.html#a561a0ed83694bc3350a801b629e5bd21" target="_top" xlink:title=" ">
<polygon fill="white" stroke="#666666" points="549.5,-126 443.5,-126 443.5,-96 549.5,-96 549.5,-126"/>
<text text-anchor="start" x="451.5" y="-114" font-family="Helvetica,sans-Serif" font-size="10.00">lci::alloc_device_x</text>
<text text-anchor="middle" x="496.5" y="-103" font-family="Helvetica,sans-Serif" font-size="10.00">::packet_pool</text>
</a>
</g>
</g>
<!-- Node2&#45;&gt;Node15 -->
<g id="edge39_Node000002_Node000015" class="edge">
<title>Node2&#45;&gt;Node15</title>
<g id="a_edge39_Node000002_Node000015"><a xlink:title=" ">
<path fill="none" stroke="#63b8ff" d="M203.87,-284.68C217.17,-260.22 246.37,-212.33 284,-185 328.63,-152.59 388.69,-133.38 433.41,-122.69"/>
<polygon fill="#63b8ff" stroke="#63b8ff" points="434.33,-126.08 443.28,-120.41 432.75,-119.25 434.33,-126.08"/>
</a>
</g>
</g>
<!-- Node16 -->
<g id="Node000016" class="node">
<title>Node16</title>
<g id="a_Node000016"><a xlink:href="../../d9/d10/classlci_1_1alloc__device__x.html#a56912fff6daa357d714dbbf3bf67af85" target="_top" xlink:title=" ">
<polygon fill="white" stroke="#666666" points="549.5,-78 443.5,-78 443.5,-48 549.5,-48 549.5,-78"/>
<text text-anchor="start" x="451.5" y="-66" font-family="Helvetica,sans-Serif" font-size="10.00">lci::alloc_device_x</text>
<text text-anchor="middle" x="496.5" y="-55" font-family="Helvetica,sans-Serif" font-size="10.00">::runtime</text>
</a>
</g>
</g>
<!-- Node2&#45;&gt;Node16 -->
<g id="edge40_Node000002_Node000016" class="edge">
<title>Node2&#45;&gt;Node16</title>
<g id="a_edge40_Node000002_Node000016"><a xlink:title=" ">
<path fill="none" stroke="#63b8ff" d="M199.66,-284.91C208.42,-252.03 233.69,-173.45 284,-131 326.2,-95.39 387.35,-78.34 433.06,-70.23"/>
<polygon fill="#63b8ff" stroke="#63b8ff" points="433.86,-73.64 443.15,-68.54 432.71,-66.74 433.86,-73.64"/>
</a>
</g>
</g>
<!-- Node17 -->
<g id="Node000017" class="node">
<title>Node17</title>
<g id="a_Node000017"><a xlink:href="../../d9/d10/classlci_1_1alloc__device__x.html#a5508f2d5c851ff147e9f8cd40db1ade3" target="_top" xlink:title=" ">
<polygon fill="white" stroke="#666666" points="549.5,-30 443.5,-30 443.5,0 549.5,0 549.5,-30"/>
<text text-anchor="start" x="451.5" y="-18" font-family="Helvetica,sans-Serif" font-size="10.00">lci::alloc_device_x</text>
<text text-anchor="middle" x="496.5" y="-7" font-family="Helvetica,sans-Serif" font-size="10.00">::user_context</text>
</a>
</g>
</g>
<!-- Node2&#45;&gt;Node17 -->
<g id="edge41_Node000002_Node000017" class="edge">
<title>Node2&#45;&gt;Node17</title>
<g id="a_edge41_Node000002_Node000017"><a xlink:title=" ">
<path fill="none" stroke="#63b8ff" d="M197.48,-284.71C202.2,-244.51 220.53,-134.96 284,-77 324.8,-39.74 386.87,-24.79 433.23,-18.83"/>
<polygon fill="#63b8ff" stroke="#63b8ff" points="433.64,-22.31 443.16,-17.66 432.82,-15.36 433.64,-22.31"/>
</a>
</g>
</g>
<!-- Node4 -->
<g id="Node000004" class="node">
<title>Node4</title>
<g id="a_Node000004"><a xlink:href="../../d9/d10/classlci_1_1alloc__device__x.html#a12e57dde78668d47808506dbd65f011e" target="_top" xlink:title=" ">
<polygon fill="white" stroke="#666666" points="709,-318 603,-318 603,-288 709,-288 709,-318"/>
<text text-anchor="start" x="611" y="-306" font-family="Helvetica,sans-Serif" font-size="10.00">lci::alloc_device_x</text>
<text text-anchor="middle" x="656" y="-295" font-family="Helvetica,sans-Serif" font-size="10.00">::alloc_device_x</text>
</a>
</g>
</g>
<!-- Node3&#45;&gt;Node4 -->
<g id="edge3_Node000003_Node000004" class="edge">
<title>Node3&#45;&gt;Node4</title>
<g id="a_edge3_Node000003_Node000004"><a xlink:title=" ">
<path fill="none" stroke="#63b8ff" d="M555.44,-575.93C559.66,-573.4 563.59,-570.45 567,-567 633.77,-499.5 649.89,-380.06 653.77,-328.2"/>
<polygon fill="#63b8ff" stroke="#63b8ff" points="657.26,-328.41 654.43,-318.2 650.28,-327.95 657.26,-328.41"/>
</a>
</g>
</g>
<!-- Node5&#45;&gt;Node4 -->
<g id="edge5_Node000005_Node000004" class="edge">
<title>Node5&#45;&gt;Node4</title>
<g id="a_edge5_Node000005_Node000004"><a xlink:title=" ">
<path fill="none" stroke="#63b8ff" d="M554.86,-527.88C559.26,-525.36 563.39,-522.42 567,-519 622.82,-466.14 644.24,-372.89 651.59,-328.23"/>
<polygon fill="#63b8ff" stroke="#63b8ff" points="655.07,-328.64 653.13,-318.22 648.15,-327.57 655.07,-328.64"/>
</a>
</g>
</g>
<!-- Node6&#45;&gt;Node3 -->
<g id="edge7_Node000006_Node000003" class="edge">
<title>Node6&#45;&gt;Node3</title>
<g id="a_edge7_Node000006_Node000003"><a xlink:title=" ">
<path fill="none" stroke="#63b8ff" d="M339.01,-337.03C342.67,-379.33 358.8,-500.62 426,-567 427.08,-568.07 428.21,-569.08 429.38,-570.06"/>
<polygon fill="#63b8ff" stroke="#63b8ff" points="427.45,-572.98 437.65,-575.85 431.46,-567.24 427.45,-572.98"/>
</a>
</g>
</g>
<!-- Node6&#45;&gt;Node5 -->
<g id="edge8_Node000006_Node000005" class="edge">
<title>Node6&#45;&gt;Node5</title>
<g id="a_edge8_Node000006_Node000005"><a xlink:title=" ">
<path fill="none" stroke="#63b8ff" d="M340.54,-337.23C347.45,-373.86 369.93,-467.64 426,-519 427.29,-520.19 428.65,-521.31 430.06,-522.39"/>
<polygon fill="#63b8ff" stroke="#63b8ff" points="428.31,-525.42 438.6,-527.94 432.13,-519.56 428.31,-525.42"/>
</a>
</g>
</g>
<!-- Node6&#45;&gt;Node7 -->
<g id="edge9_Node000006_Node000007" class="edge">
<title>Node6&#45;&gt;Node7</title>
<g id="a_edge9_Node000006_Node000007"><a xlink:title=" ">
<path fill="none" stroke="#63b8ff" d="M342.88,-337.04C353.32,-366.89 380.63,-433.94 426,-471 428.57,-473.1 431.34,-475.02 434.23,-476.78"/>
<polygon fill="#63b8ff" stroke="#63b8ff" points="432.76,-479.96 443.23,-481.57 436.05,-473.78 432.76,-479.96"/>
</a>
</g>
</g>
<!-- Node6&#45;&gt;Node8 -->
<g id="edge11_Node000006_Node000008" class="edge">
<title>Node6&#45;&gt;Node8</title>
<g id="a_edge11_Node000006_Node000008"><a xlink:title=" ">
<path fill="none" stroke="#63b8ff" d="M347.49,-337.23C361.89,-359.17 391.29,-399.6 426,-423 428.56,-424.73 431.26,-426.34 434.05,-427.85"/>
<polygon fill="#63b8ff" stroke="#63b8ff" points="432.68,-431.08 443.2,-432.32 435.75,-424.79 432.68,-431.08"/>
</a>
</g>
</g>
<!-- Node6&#45;&gt;Node9 -->
<g id="edge13_Node000006_Node000009" class="edge">
<title>Node6&#45;&gt;Node9</title>
<g id="a_edge13_Node000006_Node000009"><a xlink:title=" ">
<path fill="none" stroke="#63b8ff" d="M360.07,-337.07C377.45,-348.5 402.57,-364.05 426,-375 429.84,-376.79 433.85,-378.53 437.92,-380.18"/>
<polygon fill="#63b8ff" stroke="#63b8ff" points="436.91,-383.54 447.49,-383.9 439.44,-377.02 436.91,-383.54"/>
</a>
</g>
</g>
<!-- Node6&#45;&gt;Node10 -->
<g id="edge15_Node000006_Node000010" class="edge">
<title>Node6&#45;&gt;Node10</title>
<g id="a_edge15_Node000006_Node000010"><a xlink:title=" ">
<path fill="none" stroke="#63b8ff" d="M390.01,-331.58C403.78,-334.11 418.79,-336.88 433.05,-339.5"/>
<polygon fill="#63b8ff" stroke="#63b8ff" points="432.81,-343.02 443.28,-341.38 434.08,-336.13 432.81,-343.02"/>
</a>
</g>
</g>
<!-- Node6&#45;&gt;Node11 -->
<g id="edge17_Node000006_Node000011" class="edge">
<title>Node6&#45;&gt;Node11</title>
<g id="a_edge17_Node000006_Node000011"><a xlink:title=" ">
<path fill="none" stroke="#63b8ff" d="M390.01,-315.73C403.78,-314.06 418.79,-312.25 433.05,-310.53"/>
<polygon fill="#63b8ff" stroke="#63b8ff" points="433.77,-313.97 443.28,-309.3 432.93,-307.02 433.77,-313.97"/>
</a>
</g>
</g>
<!-- Node6&#45;&gt;Node12 -->
<g id="edge19_Node000006_Node000012" class="edge">
<title>Node6&#45;&gt;Node12</title>
<g id="a_edge19_Node000006_Node000012"><a xlink:title=" ">
<path fill="none" stroke="#63b8ff" d="M366.53,-306.96C383.55,-298.26 405.74,-287.41 426,-279 430.41,-277.17 435.02,-275.36 439.66,-273.61"/>
<polygon fill="#63b8ff" stroke="#63b8ff" points="441.04,-276.83 449.22,-270.1 438.63,-270.26 441.04,-276.83"/>
</a>
</g>
</g>
<!-- Node6&#45;&gt;Node13 -->
<g id="edge21_Node000006_Node000013" class="edge">
<title>Node6&#45;&gt;Node13</title>
<g id="a_edge21_Node000006_Node000013"><a xlink:title=" ">
<path fill="none" stroke="#63b8ff" d="M348.85,-306.98C364.02,-287 393.38,-251.79 426,-231 428.47,-229.42 431.06,-227.94 433.72,-226.54"/>
<polygon fill="#63b8ff" stroke="#63b8ff" points="435.49,-229.57 443.01,-222.11 432.48,-223.26 435.49,-229.57"/>
</a>
</g>
</g>
<!-- Node6&#45;&gt;Node14 -->
<g id="edge23_Node000006_Node000014" class="edge">
<title>Node6&#45;&gt;Node14</title>
<g id="a_edge23_Node000006_Node000014"><a xlink:title=" ">
<path fill="none" stroke="#63b8ff" d="M343.69,-306.66C355,-278.2 383,-217.03 426,-183 428.6,-180.94 431.39,-179.05 434.31,-177.32"/>
<polygon fill="#63b8ff" stroke="#63b8ff" points="436.12,-180.32 443.35,-172.58 432.87,-174.12 436.12,-180.32"/>
</a>
</g>
</g>
<!-- Node6&#45;&gt;Node15 -->
<g id="edge25_Node000006_Node000015" class="edge">
<title>Node6&#45;&gt;Node15</title>
<g id="a_edge25_Node000006_Node000015"><a xlink:title=" ">
<path fill="none" stroke="#63b8ff" d="M340.95,-306.75C348.58,-271.42 372.21,-183.31 426,-135 428.6,-132.67 431.43,-130.56 434.42,-128.66"/>
<polygon fill="#63b8ff" stroke="#63b8ff" points="436.14,-131.71 443.2,-123.81 432.75,-125.58 436.14,-131.71"/>
</a>
</g>
</g>
<!-- Node6&#45;&gt;Node16 -->
<g id="edge27_Node000006_Node000016" class="edge">
<title>Node6&#45;&gt;Node16</title>
<g id="a_edge27_Node000006_Node000016"><a xlink:title=" ">
<path fill="none" stroke="#63b8ff" d="M339.28,-306.98C343.57,-265.85 361.1,-150.24 426,-87 428.55,-84.52 431.36,-82.29 434.35,-80.3"/>
<polygon fill="#63b8ff" stroke="#63b8ff" points="436.24,-83.25 443.19,-75.26 432.77,-77.17 436.24,-83.25"/>
</a>
</g>
</g>
<!-- Node6&#45;&gt;Node17 -->
<g id="edge29_Node000006_Node000017" class="edge">
<title>Node6&#45;&gt;Node17</title>
<g id="a_edge29_Node000006_Node000017"><a xlink:title=" ">
<path fill="none" stroke="#63b8ff" d="M338.18,-306.73C339.55,-260 350.08,-117.32 426,-39 428.6,-36.32 431.51,-33.94 434.62,-31.83"/>
<polygon fill="#63b8ff" stroke="#63b8ff" points="436.37,-34.86 443.28,-26.83 432.87,-28.8 436.37,-34.86"/>
</a>
</g>
</g>
<!-- Node7&#45;&gt;Node4 -->
<g id="edge10_Node000007_Node000004" class="edge">
<title>Node7&#45;&gt;Node4</title>
<g id="a_edge10_Node000007_Node000004"><a xlink:title=" ">
<path fill="none" stroke="#63b8ff" d="M549.62,-481.98C555.89,-479.03 561.87,-475.41 567,-471 611.98,-432.31 637.24,-364.84 648.26,-328.28"/>
<polygon fill="#63b8ff" stroke="#63b8ff" points="651.69,-328.99 651.11,-318.42 644.97,-327.05 651.69,-328.99"/>
</a>
</g>
</g>
<!-- Node8&#45;&gt;Node4 -->
<g id="edge12_Node000008_Node000004" class="edge">
<title>Node8&#45;&gt;Node4</title>
<g id="a_edge12_Node000008_Node000004"><a xlink:title=" ">
<path fill="none" stroke="#63b8ff" d="M549.74,-432.91C555.85,-430.14 561.76,-426.86 567,-423 601.63,-397.47 628.45,-354.37 642.96,-327.36"/>
<polygon fill="#63b8ff" stroke="#63b8ff" points="646.22,-328.69 647.74,-318.21 640.01,-325.45 646.22,-328.69"/>
</a>
</g>
</g>
<!-- Node9&#45;&gt;Node4 -->
<g id="edge14_Node000009_Node000004" class="edge">
<title>Node9&#45;&gt;Node4</title>
<g id="a_edge14_Node000009_Node000004"><a xlink:title=" ">
<path fill="none" stroke="#63b8ff" d="M548.15,-383.88C554.65,-381.26 561.09,-378.3 567,-375 591.29,-361.44 615.51,-340.99 632.37,-325.34"/>
<polygon fill="#63b8ff" stroke="#63b8ff" points="635.17,-327.51 640.03,-318.1 630.36,-322.43 635.17,-327.51"/>
</a>
</g>
</g>
<!-- Node10&#45;&gt;Node4 -->
<g id="edge16_Node000010_Node000004" class="edge">
<title>Node10&#45;&gt;Node4</title>
<g id="a_edge16_Node000010_Node000004"><a xlink:title=" ">
<path fill="none" stroke="#63b8ff" d="M546.9,-335.94C562.44,-331.21 579.76,-325.93 595.9,-321.01"/>
<polygon fill="#63b8ff" stroke="#63b8ff" points="597.23,-324.27 605.77,-318 595.19,-317.57 597.23,-324.27"/>
</a>
</g>
</g>
<!-- Node11&#45;&gt;Node4 -->
<g id="edge18_Node000011_Node000004" class="edge">
<title>Node11&#45;&gt;Node4</title>
<g id="a_edge18_Node000011_Node000004"><a xlink:title=" ">
<path fill="none" stroke="#63b8ff" d="M549.51,-303C563.28,-303 578.29,-303 592.55,-303"/>
<polygon fill="#63b8ff" stroke="#63b8ff" points="592.78,-306.5 602.78,-303 592.78,-299.5 592.78,-306.5"/>
</a>
</g>
</g>
<!-- Node12&#45;&gt;Node4 -->
<g id="edge20_Node000012_Node000004" class="edge">
<title>Node12&#45;&gt;Node4</title>
<g id="a_edge20_Node000012_Node000004"><a xlink:title=" ">
<path fill="none" stroke="#63b8ff" d="M546.9,-270.06C562.44,-274.79 579.76,-280.07 595.9,-284.99"/>
<polygon fill="#63b8ff" stroke="#63b8ff" points="595.19,-288.43 605.77,-288 597.23,-281.73 595.19,-288.43"/>
</a>
</g>
</g>
<!-- Node13&#45;&gt;Node4 -->
<g id="edge22_Node000013_Node000004" class="edge">
<title>Node13&#45;&gt;Node4</title>
<g id="a_edge22_Node000013_Node000004"><a xlink:title=" ">
<path fill="none" stroke="#63b8ff" d="M548.15,-222.12C554.65,-224.74 561.09,-227.7 567,-231 591.29,-244.56 615.51,-265.01 632.37,-280.66"/>
<polygon fill="#63b8ff" stroke="#63b8ff" points="630.36,-283.57 640.03,-287.9 635.17,-278.49 630.36,-283.57"/>
</a>
</g>
</g>
<!-- Node14&#45;&gt;Node4 -->
<g id="edge24_Node000014_Node000004" class="edge">
<title>Node14&#45;&gt;Node4</title>
<g id="a_edge24_Node000014_Node000004"><a xlink:title=" ">
<path fill="none" stroke="#63b8ff" d="M549.74,-173.09C555.85,-175.86 561.76,-179.14 567,-183 601.63,-208.53 628.45,-251.63 642.96,-278.64"/>
<polygon fill="#63b8ff" stroke="#63b8ff" points="640.01,-280.55 647.74,-287.79 646.22,-277.31 640.01,-280.55"/>
</a>
</g>
</g>
<!-- Node15&#45;&gt;Node4 -->
<g id="edge26_Node000015_Node000004" class="edge">
<title>Node15&#45;&gt;Node4</title>
<g id="a_edge26_Node000015_Node000004"><a xlink:title=" ">
<path fill="none" stroke="#63b8ff" d="M549.62,-124.02C555.89,-126.97 561.87,-130.59 567,-135 611.98,-173.69 637.24,-241.16 648.26,-277.72"/>
<polygon fill="#63b8ff" stroke="#63b8ff" points="644.97,-278.95 651.11,-287.58 651.69,-277.01 644.97,-278.95"/>
</a>
</g>
</g>
<!-- Node16&#45;&gt;Node4 -->
<g id="edge28_Node000016_Node000004" class="edge">
<title>Node16&#45;&gt;Node4</title>
<g id="a_edge28_Node000016_Node000004"><a xlink:title=" ">
<path fill="none" stroke="#63b8ff" d="M549.68,-75.39C556.01,-78.45 562,-82.26 567,-87 622.82,-139.86 644.24,-233.11 651.59,-277.77"/>
<polygon fill="#63b8ff" stroke="#63b8ff" points="648.15,-278.43 653.13,-287.78 655.07,-277.36 648.15,-278.43"/>
</a>
</g>
</g>
<!-- Node17&#45;&gt;Node4 -->
<g id="edge30_Node000017_Node000004" class="edge">
<title>Node17&#45;&gt;Node4</title>
<g id="a_edge30_Node000017_Node000004"><a xlink:title=" ">
<path fill="none" stroke="#63b8ff" d="M549.62,-26.92C556.04,-30.05 562.06,-34.01 567,-39 633.77,-106.5 649.89,-225.94 653.77,-277.8"/>
<polygon fill="#63b8ff" stroke="#63b8ff" points="650.28,-278.05 654.43,-287.8 657.26,-277.59 650.28,-278.05"/>
</a>
</g>
</g>
</g>
</svg>
