<?xml version="1.0" encoding="UTF-8" standalone="no"?>
<!DOCTYPE svg PUBLIC "-//W3C//DTD SVG 1.1//EN"
 "http://www.w3.org/Graphics/SVG/1.1/DTD/svg11.dtd">
<!-- Generated by graphviz version 2.43.0 (0)
 -->
<!-- Title: lci::alloc_device_x::call_impl Pages: 1 -->
<svg width="460pt" height="950pt"
 viewBox="0.00 0.00 460.00 950.00" xmlns="http://www.w3.org/2000/svg" xmlns:xlink="http://www.w3.org/1999/xlink">
<g id="graph0" class="graph" transform="scale(1 1) rotate(0) translate(4 946)">
<title>lci::alloc_device_x::call_impl</title>
<!-- Node1 -->
<g id="Node000001" class="node">
<title>Node1</title>
<g id="a_Node000001"><a xlink:title=" ">
<polygon fill="#999999" stroke="#666666" points="106,-486 0,-486 0,-456 106,-456 106,-486"/>
<text text-anchor="start" x="8" y="-474" font-family="Helvetica,sans-Serif" font-size="10.00">lci::alloc_device_x</text>
<text text-anchor="middle" x="53" y="-463" font-family="Helvetica,sans-Serif" font-size="10.00">::call_impl</text>
</a>
</g>
</g>
<!-- Node2 -->
<g id="Node000002" class="node">
<title>Node2</title>
<g id="a_Node000002"><a xlink:href="../../d9/d10/classlci_1_1alloc__device__x.html#a0364c3bcc9d35c8c2dadd4a683e13b2b" target="_top" xlink:title=" ">
<polygon fill="white" stroke="#666666" points="293,-942 159,-942 159,-912 293,-912 293,-942"/>
<text text-anchor="start" x="167" y="-930" font-family="Helvetica,sans-Serif" font-size="10.00">lci::alloc_device_x</text>
<text text-anchor="middle" x="226" y="-919" font-family="Helvetica,sans-Serif" font-size="10.00">::alloc_default_endpoint</text>
</a>
</g>
</g>
<!-- Node1&#45;&gt;Node2 -->
<g id="edge1_Node000001_Node000002" class="edge">
<title>Node1&#45;&gt;Node2</title>
<g id="a_edge1_Node000001_Node000002"><a xlink:title=" ">
<path fill="none" stroke="#63b8ff" d="M55.02,-486.14C59.99,-555.23 83.74,-839.85 142,-903 144.46,-905.67 147.21,-908.05 150.15,-910.17"/>
<polygon fill="#63b8ff" stroke="#63b8ff" points="148.56,-913.3 158.92,-915.49 152.19,-907.31 148.56,-913.3"/>
</a>
</g>
</g>
<!-- Node4 -->
<g id="Node000004" class="node">
<title>Node4</title>
<g id="a_Node000004"><a xlink:href="../../d9/d10/classlci_1_1alloc__device__x.html#ab20e017d5404c44094f5926dfb6d49de" target="_top" xlink:title=" ">
<polygon fill="white" stroke="#666666" points="296.5,-894 155.5,-894 155.5,-864 296.5,-864 296.5,-894"/>
<text text-anchor="start" x="163.5" y="-882" font-family="Helvetica,sans-Serif" font-size="10.00">lci::alloc_device_x</text>
<text text-anchor="middle" x="226" y="-871" font-family="Helvetica,sans-Serif" font-size="10.00">::alloc_progress_endpoint</text>
</a>
</g>
</g>
<!-- Node1&#45;&gt;Node4 -->
<g id="edge3_Node000001_Node000004" class="edge">
<title>Node1&#45;&gt;Node4</title>
<g id="a_edge3_Node000001_Node000004"><a xlink:title=" ">
<path fill="none" stroke="#63b8ff" d="M55.44,-486.17C61.84,-550.45 89.73,-799.71 142,-855 143.59,-856.68 145.29,-858.25 147.08,-859.71"/>
<polygon fill="#63b8ff" stroke="#63b8ff" points="145.23,-862.68 155.46,-865.44 149.18,-856.91 145.23,-862.68"/>
</a>
</g>
</g>
<!-- Node5 -->
<g id="Node000005" class="node">
<title>Node5</title>
<g id="a_Node000005"><a xlink:href="../../d9/d10/classlci_1_1alloc__device__x.html#ad24d73c79259e5dcba473f20adad64cd" target="_top" xlink:title=" ">
<polygon fill="white" stroke="#666666" points="279,-846 173,-846 173,-816 279,-816 279,-846"/>
<text text-anchor="start" x="181" y="-834" font-family="Helvetica,sans-Serif" font-size="10.00">lci::alloc_device_x</text>
<text text-anchor="middle" x="226" y="-823" font-family="Helvetica,sans-Serif" font-size="10.00">::ibv_td_strategy</text>
</a>
</g>
</g>
<!-- Node1&#45;&gt;Node5 -->
<g id="edge5_Node000001_Node000005" class="edge">
<title>Node1&#45;&gt;Node5</title>
<g id="a_edge5_Node000001_Node000005"><a xlink:title=" ">
<path fill="none" stroke="#63b8ff" d="M55.98,-486.25C63.99,-545.5 95.69,-759.51 142,-807 147.95,-813.1 155.34,-817.67 163.24,-821.1"/>
<polygon fill="#63b8ff" stroke="#63b8ff" points="162.1,-824.41 172.7,-824.61 164.54,-817.85 162.1,-824.41"/>
</a>
</g>
</g>
<!-- Node6 -->
<g id="Node000006" class="node">
<title>Node6</title>
<g id="a_Node000006"><a xlink:href="../../d9/d10/classlci_1_1alloc__device__x.html#a6f0be32f14a934810e8f358b24fe981f" target="_top" xlink:title=" ">
<polygon fill="white" stroke="#666666" points="279,-798 173,-798 173,-768 279,-768 279,-798"/>
<text text-anchor="start" x="181" y="-786" font-family="Helvetica,sans-Serif" font-size="10.00">lci::alloc_device_x</text>
<text text-anchor="middle" x="226" y="-775" font-family="Helvetica,sans-Serif" font-size="10.00">::name</text>
</a>
</g>
</g>
<!-- Node1&#45;&gt;Node6 -->
<g id="edge7_Node000001_Node000006" class="edge">
<title>Node1&#45;&gt;Node6</title>
<g id="a_edge7_Node000001_Node000006"><a xlink:title=" ">
<path fill="none" stroke="#63b8ff" d="M53.9,-486.03C54.43,-533.37 62.67,-680.85 142,-759 148.07,-764.98 155.53,-769.48 163.46,-772.88"/>
<polygon fill="#63b8ff" stroke="#63b8ff" points="162.35,-776.2 172.94,-776.37 164.77,-769.63 162.35,-776.2"/>
</a>
</g>
</g>
<!-- Node7 -->
<g id="Node000007" class="node">
<title>Node7</title>
<g id="a_Node000007"><a xlink:href="../../d9/d10/classlci_1_1alloc__device__x.html#abeaee68a26587c6b359320ab7cc7def1" target="_top" xlink:title=" ">
<polygon fill="white" stroke="#666666" points="279,-750 173,-750 173,-720 279,-720 279,-750"/>
<text text-anchor="start" x="181" y="-738" font-family="Helvetica,sans-Serif" font-size="10.00">lci::alloc_device_x</text>
<text text-anchor="middle" x="226" y="-727" font-family="Helvetica,sans-Serif" font-size="10.00">::net_context</text>
</a>
</g>
</g>
<!-- Node1&#45;&gt;Node7 -->
<g id="edge9_Node000001_Node000007" class="edge">
<title>Node1&#45;&gt;Node7</title>
<g id="a_edge9_Node000001_Node000007"><a xlink:title=" ">
<path fill="none" stroke="#63b8ff" d="M54.97,-486.2C58.51,-528.38 74.32,-647.9 142,-711 148.08,-716.67 155.43,-721.01 163.2,-724.33"/>
<polygon fill="#63b8ff" stroke="#63b8ff" points="162.24,-727.71 172.83,-727.9 164.67,-721.15 162.24,-727.71"/>
</a>
</g>
</g>
<!-- Node8 -->
<g id="Node000008" class="node">
<title>Node8</title>
<g id="a_Node000008"><a xlink:href="../../d9/d10/classlci_1_1alloc__device__x.html#acd2e7ade6e7e4c91b3144bd3068ead07" target="_top" xlink:title=" ">
<polygon fill="white" stroke="#666666" points="279,-702 173,-702 173,-672 279,-672 279,-702"/>
<text text-anchor="start" x="181" y="-690" font-family="Helvetica,sans-Serif" font-size="10.00">lci::alloc_device_x</text>
<text text-anchor="middle" x="226" y="-679" font-family="Helvetica,sans-Serif" font-size="10.00">::net_max_cqes</text>
</a>
</g>
</g>
<!-- Node1&#45;&gt;Node8 -->
<g id="edge11_Node000001_Node000008" class="edge">
<title>Node1&#45;&gt;Node8</title>
<g id="a_edge11_Node000001_Node000008"><a xlink:title=" ">
<path fill="none" stroke="#63b8ff" d="M56.5,-486.03C63.32,-522.15 85.61,-614.41 142,-663 148.22,-668.36 155.58,-672.53 163.3,-675.76"/>
<polygon fill="#63b8ff" stroke="#63b8ff" points="162.25,-679.11 172.84,-679.27 164.66,-672.53 162.25,-679.11"/>
</a>
</g>
</g>
<!-- Node9 -->
<g id="Node000009" class="node">
<title>Node9</title>
<g id="a_Node000009"><a xlink:href="../../d9/d10/classlci_1_1alloc__device__x.html#a4c8c86d9400791bb609b391aef165d68" target="_top" xlink:title=" ">
<polygon fill="white" stroke="#666666" points="279,-654 173,-654 173,-624 279,-624 279,-654"/>
<text text-anchor="start" x="181" y="-642" font-family="Helvetica,sans-Serif" font-size="10.00">lci::alloc_device_x</text>
<text text-anchor="middle" x="226" y="-631" font-family="Helvetica,sans-Serif" font-size="10.00">::net_max_recvs</text>
</a>
</g>
</g>
<!-- Node1&#45;&gt;Node9 -->
<g id="edge13_Node000001_Node000009" class="edge">
<title>Node1&#45;&gt;Node9</title>
<g id="a_edge13_Node000001_Node000009"><a xlink:title=" ">
<path fill="none" stroke="#63b8ff" d="M59.03,-486.18C69.58,-515.6 96.82,-580.52 142,-615 148.29,-619.8 155.51,-623.64 163.01,-626.71"/>
<polygon fill="#63b8ff" stroke="#63b8ff" points="162.02,-630.08 172.61,-630.21 164.41,-623.5 162.02,-630.08"/>
</a>
</g>
</g>
<!-- Node10 -->
<g id="Node000010" class="node">
<title>Node10</title>
<g id="a_Node000010"><a xlink:href="../../d9/d10/classlci_1_1alloc__device__x.html#afe0d1c701b1611f00c3feaa22bd5f0cd" target="_top" xlink:title=" ">
<polygon fill="white" stroke="#666666" points="279,-606 173,-606 173,-576 279,-576 279,-606"/>
<text text-anchor="start" x="181" y="-594" font-family="Helvetica,sans-Serif" font-size="10.00">lci::alloc_device_x</text>
<text text-anchor="middle" x="226" y="-583" font-family="Helvetica,sans-Serif" font-size="10.00">::net_max_sends</text>
</a>
</g>
</g>
<!-- Node1&#45;&gt;Node10 -->
<g id="edge15_Node000001_Node000010" class="edge">
<title>Node1&#45;&gt;Node10</title>
<g id="a_edge15_Node000001_Node000010"><a xlink:title=" ">
<path fill="none" stroke="#63b8ff" d="M63.76,-486.04C78.29,-507.23 107.61,-545.67 142,-567 148.54,-571.06 155.8,-574.45 163.22,-577.29"/>
<polygon fill="#63b8ff" stroke="#63b8ff" points="162.07,-580.6 172.66,-580.59 164.38,-573.99 162.07,-580.6"/>
</a>
</g>
</g>
<!-- Node11 -->
<g id="Node000011" class="node">
<title>Node11</title>
<g id="a_Node000011"><a xlink:href="../../d9/d10/classlci_1_1alloc__device__x.html#a9dccb87689be3fb6d329abb8111bdf6c" target="_top" xlink:title=" ">
<polygon fill="white" stroke="#666666" points="293.5,-558 158.5,-558 158.5,-528 293.5,-528 293.5,-558"/>
<text text-anchor="start" x="166.5" y="-546" font-family="Helvetica,sans-Serif" font-size="10.00">lci::alloc_device_x</text>
<text text-anchor="middle" x="226" y="-535" font-family="Helvetica,sans-Serif" font-size="10.00">::net_send_reserved_pct</text>
</a>
</g>
</g>
<!-- Node1&#45;&gt;Node11 -->
<g id="edge17_Node000001_Node000011" class="edge">
<title>Node1&#45;&gt;Node11</title>
<g id="a_edge17_Node000001_Node000011"><a xlink:title=" ">
<path fill="none" stroke="#63b8ff" d="M78.32,-486.15C95.61,-496.43 119.63,-509.79 142,-519 146.82,-520.98 151.86,-522.87 156.97,-524.65"/>
<polygon fill="#63b8ff" stroke="#63b8ff" points="156.25,-528.1 166.85,-527.94 158.46,-521.46 156.25,-528.1"/>
</a>
</g>
</g>
<!-- Node12 -->
<g id="Node000012" class="node">
<title>Node12</title>
<g id="a_Node000012"><a xlink:href="../../d9/d10/classlci_1_1alloc__device__x.html#a7d316853b54b2a870ea35c387c1006e4" target="_top" xlink:title=" ">
<polygon fill="white" stroke="#666666" points="279,-510 173,-510 173,-480 279,-480 279,-510"/>
<text text-anchor="start" x="181" y="-498" font-family="Helvetica,sans-Serif" font-size="10.00">lci::alloc_device_x</text>
<text text-anchor="middle" x="226" y="-487" font-family="Helvetica,sans-Serif" font-size="10.00">::ofi_lock_mode</text>
</a>
</g>
</g>
<!-- Node1&#45;&gt;Node12 -->
<g id="edge19_Node000001_Node000012" class="edge">
<title>Node1&#45;&gt;Node12</title>
<g id="a_edge19_Node000001_Node000012"><a xlink:title=" ">
<path fill="none" stroke="#63b8ff" d="M106.23,-478.33C124.05,-480.83 144.15,-483.65 162.68,-486.25"/>
<polygon fill="#63b8ff" stroke="#63b8ff" points="162.4,-489.75 172.79,-487.67 163.37,-482.82 162.4,-489.75"/>
</a>
</g>
</g>
<!-- Node13 -->
<g id="Node000013" class="node">
<title>Node13</title>
<g id="a_Node000013"><a xlink:href="../../d9/d10/classlci_1_1alloc__device__x.html#a561a0ed83694bc3350a801b629e5bd21" target="_top" xlink:title=" ">
<polygon fill="white" stroke="#666666" points="279,-462 173,-462 173,-432 279,-432 279,-462"/>
<text text-anchor="start" x="181" y="-450" font-family="Helvetica,sans-Serif" font-size="10.00">lci::alloc_device_x</text>
<text text-anchor="middle" x="226" y="-439" font-family="Helvetica,sans-Serif" font-size="10.00">::packet_pool</text>
</a>
</g>
</g>
<!-- Node1&#45;&gt;Node13 -->
<g id="edge21_Node000001_Node000013" class="edge">
<title>Node1&#45;&gt;Node13</title>
<g id="a_edge21_Node000001_Node000013"><a xlink:title=" ">
<path fill="none" stroke="#63b8ff" d="M106.23,-463.67C124.05,-461.17 144.15,-458.35 162.68,-455.75"/>
<polygon fill="#63b8ff" stroke="#63b8ff" points="163.37,-459.18 172.79,-454.33 162.4,-452.25 163.37,-459.18"/>
</a>
</g>
</g>
<!-- Node14 -->
<g id="Node000014" class="node">
<title>Node14</title>
<g id="a_Node000014"><a xlink:href="../../d9/d10/classlci_1_1alloc__device__x.html#a56912fff6daa357d714dbbf3bf67af85" target="_top" xlink:title=" ">
<polygon fill="white" stroke="#666666" points="279,-414 173,-414 173,-384 279,-384 279,-414"/>
<text text-anchor="start" x="181" y="-402" font-family="Helvetica,sans-Serif" font-size="10.00">lci::alloc_device_x</text>
<text text-anchor="middle" x="226" y="-391" font-family="Helvetica,sans-Serif" font-size="10.00">::runtime</text>
</a>
</g>
</g>
<!-- Node1&#45;&gt;Node14 -->
<g id="edge23_Node000001_Node000014" class="edge">
<title>Node1&#45;&gt;Node14</title>
<g id="a_edge23_Node000001_Node000014"><a xlink:title=" ">
<path fill="none" stroke="#63b8ff" d="M78.32,-455.85C95.61,-445.57 119.63,-432.21 142,-423 148.68,-420.25 155.77,-417.69 162.9,-415.34"/>
<polygon fill="#63b8ff" stroke="#63b8ff" points="164.12,-418.62 172.6,-412.27 162.01,-411.95 164.12,-418.62"/>
</a>
</g>
</g>
<!-- Node15 -->
<g id="Node000015" class="node">
<title>Node15</title>
<g id="a_Node000015"><a xlink:href="../../d9/d10/classlci_1_1alloc__device__x.html#aab6dc35fdfa0ee70e357aaf454663300" target="_top" xlink:title=" ">
<polygon fill="white" stroke="#666666" points="310,-366 142,-366 142,-336 310,-336 310,-366"/>
<text text-anchor="start" x="150" y="-354" font-family="Helvetica,sans-Serif" font-size="10.00">lci::alloc_device_x</text>
<text text-anchor="middle" x="226" y="-343" font-family="Helvetica,sans-Serif" font-size="10.00">::shm_consumer_cas_attempts</text>
</a>
</g>
</g>
<!-- Node1&#45;&gt;Node15 -->
<g id="edge25_Node000001_Node000015" class="edge">
<title>Node1&#45;&gt;Node15</title>
<g id="a_edge25_Node000001_Node000015"><a xlink:title=" ">
<path fill="none" stroke="#63b8ff" d="M63.76,-455.96C78.29,-434.77 107.61,-396.33 142,-375 144.66,-373.35 147.43,-371.82 150.28,-370.38"/>
<polygon fill="#63b8ff" stroke="#63b8ff" points="151.97,-373.46 159.62,-366.14 149.07,-367.09 151.97,-373.46"/>
</a>
</g>
</g>
<!-- Node16 -->
<g id="Node000016" class="node">
<title>Node16</title>
<g id="a_Node000016"><a xlink:href="../../d9/d10/classlci_1_1alloc__device__x.html#aee7bc0d2c78a1c90de44c34ad56f0d89" target="_top" xlink:title=" ">
<polygon fill="white" stroke="#666666" points="279,-318 173,-318 173,-288 279,-288 279,-318"/>
<text text-anchor="start" x="181" y="-306" font-family="Helvetica,sans-Serif" font-size="10.00">lci::alloc_device_x</text>
<text text-anchor="middle" x="226" y="-295" font-family="Helvetica,sans-Serif" font-size="10.00">::shm_enable</text>
</a>
</g>
</g>
<!-- Node1&#45;&gt;Node16 -->
<g id="edge27_Node000001_Node000016" class="edge">
<title>Node1&#45;&gt;Node16</title>
<g id="a_edge27_Node000001_Node000016"><a xlink:title=" ">
<path fill="none" stroke="#63b8ff" d="M59.03,-455.82C69.58,-426.4 96.82,-361.48 142,-327 148.29,-322.2 155.51,-318.36 163.01,-315.29"/>
<polygon fill="#63b8ff" stroke="#63b8ff" points="164.41,-318.5 172.61,-311.79 162.02,-311.92 164.41,-318.5"/>
</a>
</g>
</g>
<!-- Node17 -->
<g id="Node000017" class="node">
<title>Node17</title>
<g id="a_Node000017"><a xlink:href="../../d9/d10/classlci_1_1alloc__device__x.html#ac783d0612dd68f01eb460a393f42150b" target="_top" xlink:title=" ">
<polygon fill="white" stroke="#666666" points="279,-270 173,-270 173,-240 279,-240 279,-270"/>
<text text-anchor="start" x="181" y="-258" font-family="Helvetica,sans-Serif" font-size="10.00">lci::alloc_device_x</text>
<text text-anchor="middle" x="226" y="-247" font-family="Helvetica,sans-Serif" font-size="10.00">::shm_max_polls</text>
</a>
</g>
</g>
<!-- Node1&#45;&gt;Node17 -->
<g id="edge29_Node000001_Node000017" class="edge">
<title>Node1&#45;&gt;Node17</title>
<g id="a_edge29_Node000001_Node000017"><a xlink:title=" ">
<path fill="none" stroke="#63b8ff" d="M56.5,-455.97C63.32,-419.85 85.61,-327.59 142,-279 148.22,-273.64 155.58,-269.47 163.3,-266.24"/>
<polygon fill="#63b8ff" stroke="#63b8ff" points="164.66,-269.47 172.84,-262.73 162.25,-262.89 164.66,-269.47"/>
</a>
</g>
</g>
<!-- Node18 -->
<g id="Node000018" class="node">
<title>Node18</title>
<g id="a_Node000018"><a xlink:href="../../d9/d10/classlci_1_1alloc__device__x.html#aaccc2fbe1e01771a2b49ab639acf9289" target="_top" xlink:title=" ">
<polygon fill="white" stroke="#666666" points="307.5,-222 144.5,-222 144.5,-192 307.5,-192 307.5,-222"/>
<text text-anchor="start" x="152.5" y="-210" font-family="Helvetica,sans-Serif" font-size="10.00">lci::alloc_device_x</text>
<text text-anchor="middle" x="226" y="-199" font-family="Helvetica,sans-Serif" font-size="10.00">::shm_producer_cas_attempts</text>
</a>
</g>
</g>
<!-- Node1&#45;&gt;Node18 -->
<g id="edge31_Node000001_Node000018" class="edge">
<title>Node1&#45;&gt;Node18</title>
<g id="a_edge31_Node000001_Node000018"><a xlink:title=" ">
<path fill="none" stroke="#63b8ff" d="M54.97,-455.8C58.51,-413.62 74.32,-294.1 142,-231 143.13,-229.95 144.31,-228.94 145.52,-227.97"/>
<polygon fill="#63b8ff" stroke="#63b8ff" points="147.7,-230.72 154.02,-222.22 143.78,-224.92 147.7,-230.72"/>
</a>
</g>
</g>
<!-- Node19 -->
<g id="Node000019" class="node">
<title>Node19</title>
<g id="a_Node000019"><a xlink:href="../../d9/d10/classlci_1_1alloc__device__x.html#a08d8ac461c7857938a104835fa2161f2" target="_top" xlink:title=" ">
<polygon fill="white" stroke="#666666" points="279,-174 173,-174 173,-144 279,-144 279,-174"/>
<text text-anchor="start" x="181" y="-162" font-family="Helvetica,sans-Serif" font-size="10.00">lci::alloc_device_x</text>
<text text-anchor="middle" x="226" y="-151" font-family="Helvetica,sans-Serif" font-size="10.00">::shm_ring_size</text>
</a>
</g>
</g>
<!-- Node1&#45;&gt;Node19 -->
<g id="edge33_Node000001_Node000019" class="edge">
<title>Node1&#45;&gt;Node19</title>
<g id="a_edge33_Node000001_Node000019"><a xlink:title=" ">
<path fill="none" stroke="#63b8ff" d="M53.9,-455.97C54.43,-408.63 62.67,-261.15 142,-183 148.07,-177.02 155.53,-172.52 163.46,-169.12"/>
<polygon fill="#63b8ff" stroke="#63b8ff" points="164.77,-172.37 172.94,-165.63 162.35,-165.8 164.77,-172.37"/>
</a>
</g>
</g>
<!-- Node20 -->
<g id="Node000020" class="node">
<title>Node20</title>
<g id="a_Node000020"><a xlink:href="../../d9/d10/classlci_1_1alloc__device__x.html#aa7cb3edb79f77118413a7d7476129795" target="_top" xlink:title=" ">
<polygon fill="white" stroke="#666666" points="279,-126 173,-126 173,-96 279,-96 279,-126"/>
<text text-anchor="start" x="181" y="-114" font-family="Helvetica,sans-Serif" font-size="10.00">lci::alloc_device_x</text>
<text text-anchor="middle" x="226" y="-103" font-family="Helvetica,sans-Serif" font-size="10.00">::shm_slot_size</text>
</a>
</g>
</g>
<!-- Node1&#45;&gt;Node20 -->
<g id="edge35_Node000001_Node000020" class="edge">
<title>Node1&#45;&gt;Node20</title>
<g id="a_edge35_Node000001_Node000020"><a xlink:title=" ">
<path fill="none" stroke="#63b8ff" d="M55.98,-455.75C63.99,-396.5 95.69,-182.49 142,-135 147.95,-128.9 155.34,-124.33 163.24,-120.9"/>
<polygon fill="#63b8ff" stroke="#63b8ff" points="164.54,-124.15 172.7,-117.39 162.1,-117.59 164.54,-124.15"/>
</a>
</g>
</g>
<!-- Node21 -->
<g id="Node000021" class="node">
<title>Node21</title>
<g id="a_Node000021"><a xlink:href="../../d9/d10/classlci_1_1alloc__device__x.html#a6737b51602e702943e829c466e23f945" target="_top" xlink:title=" ">
<polygon fill="white" stroke="#666666" points="279,-78 173,-78 173,-48 279,-48 279,-78"/>
<text text-anchor="start" x="181" y="-66" font-family="Helvetica,sans-Serif" font-size="10.00">lci::alloc_device_x</text>
<text text-anchor="middle" x="226" y="-55" font-family="Helvetica,sans-Serif" font-size="10.00">::use_reg_cache</text>
</a>
</g>
</g>
<!-- Node1&#45;&gt;Node21 -->
<g id="edge37_Node000001_Node000021" class="edge">
<title>Node1&#45;&gt;Node21</title>
<g id="a_edge37_Node000001_Node000021"><a xlink:title=" ">
<path fill="none" stroke="#63b8ff" d="M55.44,-455.83C61.84,-391.55 89.73,-142.29 142,-87 147.93,-80.73 155.38,-76.07 163.37,-72.61"/>
<polygon fill="#63b8ff" stroke="#63b8ff" points="164.77,-75.82 172.94,-69.07 162.35,-69.25 164.77,-75.82"/>
</a>
</g>
</g>
<!-- Node22 -->
<g id="Node000022" class="node">
<title>Node22</title>
<g id="a_Node000022"><a xlink:href="../../d9/d10/classlci_1_1alloc__device__x.html#a5508f2d5c851ff147e9f8cd40db1ade3" target="_top" xlink:title=" ">
<polygon fill="white" stroke="#666666" points="279,-30 173,-30 173,0 279,0 279,-30"/>
<text text-anchor="start" x="181" y="-18" font-family="Helvetica,sans-Serif" font-size="10.00">lci::alloc_device_x</text>
<text text-anchor="middle" x="226" y="-7" font-family="Helvetica,sans-Serif" font-size="10.00">::user_context</text>
</a>
</g>
</g>
<!-- Node1&#45;&gt;Node22 -->
<g id="edge39_Node000001_Node000022" class="edge">
<title>Node1&#45;&gt;Node22</title>
<g id="a_edge39_Node000001_Node000022"><a xlink:title=" ">
<path fill="none" stroke="#63b8ff" d="M55.02,-455.86C59.99,-386.77 83.74,-102.15 142,-39 147.85,-32.66 155.26,-27.96 163.23,-24.48"/>
<polygon fill="#63b8ff" stroke="#63b8ff" points="164.63,-27.69 172.79,-20.93 162.2,-21.13 164.63,-27.69"/>
</a>
</g>
</g>
<!-- Node3 -->
<g id="Node000003" class="node">
<title>Node3</title>
<g id="a_Node000003"><a xlink:href="../../d9/d10/classlci_1_1alloc__device__x.html#a12e57dde78668d47808506dbd65f011e" target="_top" xlink:title=" ">
<polygon fill="white" stroke="#666666" points="452,-486 346,-486 346,-456 452,-456 452,-486"/>
<text text-anchor="start" x="354" y="-474" font-family="Helvetica,sans-Serif" font-size="10.00">lci::alloc_device_x</text>
<text text-anchor="middle" x="399" y="-463" font-family="Helvetica,sans-Serif" font-size="10.00">::alloc_device_x</text>
</a>
</g>
</g>
<!-- Node2&#45;&gt;Node3 -->
<g id="edge2_Node000002_Node000003" class="edge">
<title>Node2&#45;&gt;Node3</title>
<g id="a_edge2_Node000002_Node000003"><a xlink:title=" ">
<path fill="none" stroke="#63b8ff" d="M293.08,-915.49C299.4,-912.27 305.22,-908.18 310,-903 365.75,-842.57 389.91,-579.28 396.23,-496.21"/>
<polygon fill="#63b8ff" stroke="#63b8ff" points="399.73,-496.38 396.98,-486.14 392.75,-495.86 399.73,-496.38"/>
</a>
</g>
</g>
<!-- Node4&#45;&gt;Node3 -->
<g id="edge4_Node000004_Node000003" class="edge">
<title>Node4&#45;&gt;Node3</title>
<g id="a_edge4_Node000004_Node000003"><a xlink:title=" ">
<path fill="none" stroke="#63b8ff" d="M296.54,-865.44C301.5,-862.58 306.08,-859.14 310,-855 359.82,-802.3 387.49,-573.39 395.52,-496.39"/>
<polygon fill="#63b8ff" stroke="#63b8ff" points="399.03,-496.47 396.56,-486.17 392.06,-495.76 399.03,-496.47"/>
</a>
</g>
</g>
<!-- Node5&#45;&gt;Node3 -->
<g id="edge6_Node000005_Node000003" class="edge">
<title>Node5&#45;&gt;Node3</title>
<g id="a_edge6_Node000005_Node000003"><a xlink:title=" ">
<path fill="none" stroke="#63b8ff" d="M279.3,-824.61C290.66,-821.02 301.73,-815.48 310,-807 353.95,-761.92 384.76,-566.8 394.61,-496.43"/>
<polygon fill="#63b8ff" stroke="#63b8ff" points="398.12,-496.63 396.02,-486.25 391.19,-495.68 398.12,-496.63"/>
</a>
</g>
</g>
<!-- Node6&#45;&gt;Node3 -->
<g id="edge8_Node000006_Node000003" class="edge">
<title>Node6&#45;&gt;Node3</title>
<g id="a_edge8_Node000006_Node000003"><a xlink:title=" ">
<path fill="none" stroke="#63b8ff" d="M279.06,-776.37C290.42,-772.78 301.56,-767.32 310,-759 384.38,-685.74 396.26,-551.54 397.9,-496.04"/>
<polygon fill="#63b8ff" stroke="#63b8ff" points="401.4,-496.1 398.1,-486.03 394.4,-495.96 401.4,-496.1"/>
</a>
</g>
</g>
<!-- Node7&#45;&gt;Node3 -->
<g id="edge10_Node000007_Node000003" class="edge">
<title>Node7&#45;&gt;Node3</title>
<g id="a_edge10_Node000007_Node000003"><a xlink:title=" ">
<path fill="none" stroke="#63b8ff" d="M279.17,-727.9C290.39,-724.32 301.44,-718.98 310,-711 372.92,-652.34 391.01,-544.91 396.08,-496.2"/>
<polygon fill="#63b8ff" stroke="#63b8ff" points="399.57,-496.49 397.03,-486.2 392.6,-495.83 399.57,-496.49"/>
</a>
</g>
</g>
<!-- Node8&#45;&gt;Node3 -->
<g id="edge12_Node000008_Node000003" class="edge">
<title>Node8&#45;&gt;Node3</title>
<g id="a_edge12_Node000008_Node000003"><a xlink:title=" ">
<path fill="none" stroke="#63b8ff" d="M279.16,-679.27C290.26,-675.72 301.25,-670.54 310,-663 361.76,-618.4 384.8,-536.99 393.5,-496"/>
<polygon fill="#63b8ff" stroke="#63b8ff" points="396.96,-496.53 395.5,-486.03 390.1,-495.15 396.96,-496.53"/>
</a>
</g>
</g>
<!-- Node9&#45;&gt;Node3 -->
<g id="edge14_Node000009_Node000003" class="edge">
<title>Node9&#45;&gt;Node3</title>
<g id="a_edge14_Node000009_Node000003"><a xlink:title=" ">
<path fill="none" stroke="#63b8ff" d="M279.39,-630.21C290.23,-626.71 301.06,-621.83 310,-615 350.77,-583.88 376.93,-527.99 389.4,-495.75"/>
<polygon fill="#63b8ff" stroke="#63b8ff" points="392.75,-496.77 392.97,-486.18 386.19,-494.33 392.75,-496.77"/>
</a>
</g>
</g>
<!-- Node10&#45;&gt;Node3 -->
<g id="edge16_Node000010_Node000003" class="edge">
<title>Node10&#45;&gt;Node3</title>
<g id="a_edge16_Node000010_Node000003"><a xlink:title=" ">
<path fill="none" stroke="#63b8ff" d="M279.34,-580.59C289.95,-577.2 300.69,-572.77 310,-567 340.23,-548.25 366.54,-516.29 382.33,-494.44"/>
<polygon fill="#63b8ff" stroke="#63b8ff" points="385.35,-496.23 388.24,-486.04 379.62,-492.2 385.35,-496.23"/>
</a>
</g>
</g>
<!-- Node11&#45;&gt;Node3 -->
<g id="edge18_Node000011_Node000003" class="edge">
<title>Node11&#45;&gt;Node3</title>
<g id="a_edge18_Node000011_Node000003"><a xlink:title=" ">
<path fill="none" stroke="#63b8ff" d="M285.15,-527.94C293.59,-525.25 302.09,-522.25 310,-519 328.7,-511.3 348.55,-500.71 364.66,-491.43"/>
<polygon fill="#63b8ff" stroke="#63b8ff" points="366.82,-494.22 373.68,-486.15 363.28,-488.18 366.82,-494.22"/>
</a>
</g>
</g>
<!-- Node12&#45;&gt;Node3 -->
<g id="edge20_Node000012_Node000003" class="edge">
<title>Node12&#45;&gt;Node3</title>
<g id="a_edge20_Node000012_Node000003"><a xlink:title=" ">
<path fill="none" stroke="#63b8ff" d="M279.23,-487.67C297.05,-485.17 317.15,-482.35 335.68,-479.75"/>
<polygon fill="#63b8ff" stroke="#63b8ff" points="336.37,-483.18 345.79,-478.33 335.4,-476.25 336.37,-483.18"/>
</a>
</g>
</g>
<!-- Node13&#45;&gt;Node3 -->
<g id="edge22_Node000013_Node000003" class="edge">
<title>Node13&#45;&gt;Node3</title>
<g id="a_edge22_Node000013_Node000003"><a xlink:title=" ">
<path fill="none" stroke="#63b8ff" d="M279.23,-454.33C297.05,-456.83 317.15,-459.65 335.68,-462.25"/>
<polygon fill="#63b8ff" stroke="#63b8ff" points="335.4,-465.75 345.79,-463.67 336.37,-458.82 335.4,-465.75"/>
</a>
</g>
</g>
<!-- Node14&#45;&gt;Node3 -->
<g id="edge24_Node000014_Node000003" class="edge">
<title>Node14&#45;&gt;Node3</title>
<g id="a_edge24_Node000014_Node000003"><a xlink:title=" ">
<path fill="none" stroke="#63b8ff" d="M279.4,-412.27C289.68,-415.4 300.29,-419 310,-423 328.7,-430.7 348.55,-441.29 364.66,-450.57"/>
<polygon fill="#63b8ff" stroke="#63b8ff" points="363.28,-453.82 373.68,-455.85 366.82,-447.78 363.28,-453.82"/>
</a>
</g>
</g>
<!-- Node15&#45;&gt;Node3 -->
<g id="edge26_Node000015_Node000003" class="edge">
<title>Node15&#45;&gt;Node3</title>
<g id="a_edge26_Node000015_Node000003"><a xlink:title=" ">
<path fill="none" stroke="#63b8ff" d="M292.38,-366.14C298.54,-368.67 304.52,-371.6 310,-375 340.23,-393.75 366.54,-425.71 382.33,-447.56"/>
<polygon fill="#63b8ff" stroke="#63b8ff" points="379.62,-449.8 388.24,-455.96 385.35,-445.77 379.62,-449.8"/>
</a>
</g>
</g>
<!-- Node16&#45;&gt;Node3 -->
<g id="edge28_Node000016_Node000003" class="edge">
<title>Node16&#45;&gt;Node3</title>
<g id="a_edge28_Node000016_Node000003"><a xlink:title=" ">
<path fill="none" stroke="#63b8ff" d="M279.39,-311.79C290.23,-315.29 301.06,-320.17 310,-327 350.77,-358.12 376.93,-414.01 389.4,-446.25"/>
<polygon fill="#63b8ff" stroke="#63b8ff" points="386.19,-447.67 392.97,-455.82 392.75,-445.23 386.19,-447.67"/>
</a>
</g>
</g>
<!-- Node17&#45;&gt;Node3 -->
<g id="edge30_Node000017_Node000003" class="edge">
<title>Node17&#45;&gt;Node3</title>
<g id="a_edge30_Node000017_Node000003"><a xlink:title=" ">
<path fill="none" stroke="#63b8ff" d="M279.16,-262.73C290.26,-266.28 301.25,-271.46 310,-279 361.76,-323.6 384.8,-405.01 393.5,-446"/>
<polygon fill="#63b8ff" stroke="#63b8ff" points="390.1,-446.85 395.5,-455.97 396.96,-445.47 390.1,-446.85"/>
</a>
</g>
</g>
<!-- Node18&#45;&gt;Node3 -->
<g id="edge32_Node000018_Node000003" class="edge">
<title>Node18&#45;&gt;Node3</title>
<g id="a_edge32_Node000018_Node000003"><a xlink:title=" ">
<path fill="none" stroke="#63b8ff" d="M297.98,-222.22C302.31,-224.72 306.38,-227.62 310,-231 372.92,-289.66 391.01,-397.09 396.08,-445.8"/>
<polygon fill="#63b8ff" stroke="#63b8ff" points="392.6,-446.17 397.03,-455.8 399.57,-445.51 392.6,-446.17"/>
</a>
</g>
</g>
<!-- Node19&#45;&gt;Node3 -->
<g id="edge34_Node000019_Node000003" class="edge">
<title>Node19&#45;&gt;Node3</title>
<g id="a_edge34_Node000019_Node000003"><a xlink:title=" ">
<path fill="none" stroke="#63b8ff" d="M279.06,-165.63C290.42,-169.22 301.56,-174.68 310,-183 384.38,-256.26 396.26,-390.46 397.9,-445.96"/>
<polygon fill="#63b8ff" stroke="#63b8ff" points="394.4,-446.04 398.1,-455.97 401.4,-445.9 394.4,-446.04"/>
</a>
</g>
</g>
<!-- Node20&#45;&gt;Node3 -->
<g id="edge36_Node000020_Node000003" class="edge">
<title>Node20&#45;&gt;Node3</title>
<g id="a_edge36_Node000020_Node000003"><a xlink:title=" ">
<path fill="none" stroke="#63b8ff" d="M279.3,-117.39C290.66,-120.98 301.73,-126.52 310,-135 353.95,-180.08 384.76,-375.2 394.61,-445.57"/>
<polygon fill="#63b8ff" stroke="#63b8ff" points="391.19,-446.32 396.02,-455.75 398.12,-445.37 391.19,-446.32"/>
</a>
</g>
</g>
<!-- Node21&#45;&gt;Node3 -->
<g id="edge38_Node000021_Node000003" class="edge">
<title>Node21&#45;&gt;Node3</title>
<g id="a_edge38_Node000021_Node000003"><a xlink:title=" ">
<path fill="none" stroke="#63b8ff" d="M279.06,-69.07C290.56,-72.67 301.76,-78.28 310,-87 359.82,-139.7 387.49,-368.61 395.52,-445.61"/>
<polygon fill="#63b8ff" stroke="#63b8ff" points="392.06,-446.24 396.56,-455.83 399.03,-445.53 392.06,-446.24"/>
</a>
</g>
</g>
<!-- Node22&#45;&gt;Node3 -->
<g id="edge40_Node000022_Node000003" class="edge">
<title>Node22&#45;&gt;Node3</title>
<g id="a_edge40_Node000022_Node000003"><a xlink:title=" ">
<path fill="none" stroke="#63b8ff" d="M279.21,-20.93C290.71,-24.53 301.86,-30.18 310,-39 365.75,-99.43 389.91,-362.72 396.23,-445.79"/>
<polygon fill="#63b8ff" stroke="#63b8ff" points="392.75,-446.14 396.98,-455.86 399.73,-445.62 392.75,-446.14"/>
</a>
</g>
</g>
</g>
</svg>
