<?xml version="1.0" encoding="UTF-8" standalone="no"?>
<!DOCTYPE svg PUBLIC "-//W3C//DTD SVG 1.1//EN"
 "http://www.w3.org/Graphics/SVG/1.1/DTD/svg11.dtd">
<!-- Generated by graphviz version 2.43.0 (0)
 -->
<!-- Title: lci::alloc_device_x::call_impl Pages: 1 -->
<svg width="433pt" height="662pt"
 viewBox="0.00 0.00 433.00 662.00" xmlns="http://www.w3.org/2000/svg" xmlns:xlink="http://www.w3.org/1999/xlink">
<g id="graph0" class="graph" transform="scale(1 1) rotate(0) translate(4 658)">
<title>lci::alloc_device_x::call_impl</title>
<!-- Node1 -->
<g id="Node000001" class="node">
<title>Node1</title>
<g id="a_Node000001"><a xlink:title=" ">
<polygon fill="#999999" stroke="#666666" points="106,-342 0,-342 0,-312 106,-312 106,-342"/>
<text text-anchor="start" x="8" y="-330" font-family="Helvetica,sans-Serif" font-size="10.00">lci::alloc_device_x</text>
<text text-anchor="middle" x="53" y="-319" font-family="Helvetica,sans-Serif" font-size="10.00">::call_impl</text>
</a>
</g>
</g>
<!-- Node2 -->
<g id="Node000002" class="node">
<title>Node2</title>
<g id="a_Node000002"><a xlink:href="../../d9/d10/classlci_1_1alloc__device__x.html#a0364c3bcc9d35c8c2dadd4a683e13b2b" target="_top" xlink:title=" ">
<polygon fill="white" stroke="#666666" points="279.5,-654 145.5,-654 145.5,-624 279.5,-624 279.5,-654"/>
<text text-anchor="start" x="153.5" y="-642" font-family="Helvetica,sans-Serif" font-size="10.00">lci::alloc_device_x</text>
<text text-anchor="middle" x="212.5" y="-631" font-family="Helvetica,sans-Serif" font-size="10.00">::alloc_default_endpoint</text>
</a>
</g>
</g>
<!-- Node1&#45;&gt;Node2 -->
<g id="edge1_Node000001_Node000002" class="edge">
<title>Node1&#45;&gt;Node2</title>
<g id="a_edge1_Node000001_Node000002"><a xlink:title=" ">
<path fill="none" stroke="#63b8ff" d="M54.08,-342.19C55.15,-389.39 64.87,-535.04 142,-615 142.92,-615.96 143.88,-616.87 144.88,-617.76"/>
<polygon fill="#63b8ff" stroke="#63b8ff" points="143,-620.72 153.14,-623.82 147.15,-615.08 143,-620.72"/>
</a>
</g>
</g>
<!-- Node4 -->
<g id="Node000004" class="node">
<title>Node4</title>
<g id="a_Node000004"><a xlink:href="../../d9/d10/classlci_1_1alloc__device__x.html#ab20e017d5404c44094f5926dfb6d49de" target="_top" xlink:title=" ">
<polygon fill="white" stroke="#666666" points="283,-606 142,-606 142,-576 283,-576 283,-606"/>
<text text-anchor="start" x="150" y="-594" font-family="Helvetica,sans-Serif" font-size="10.00">lci::alloc_device_x</text>
<text text-anchor="middle" x="212.5" y="-583" font-family="Helvetica,sans-Serif" font-size="10.00">::alloc_progress_endpoint</text>
</a>
</g>
</g>
<!-- Node1&#45;&gt;Node4 -->
<g id="edge3_Node000001_Node000004" class="edge">
<title>Node1&#45;&gt;Node4</title>
<g id="a_edge3_Node000001_Node000004"><a xlink:title=" ">
<path fill="none" stroke="#63b8ff" d="M55.14,-342.03C59.12,-383.75 75.95,-502.19 142,-567 143.08,-568.06 144.21,-569.08 145.39,-570.05"/>
<polygon fill="#63b8ff" stroke="#63b8ff" points="143.47,-572.97 153.67,-575.82 147.47,-567.23 143.47,-572.97"/>
</a>
</g>
</g>
<!-- Node5 -->
<g id="Node000005" class="node">
<title>Node5</title>
<g id="a_Node000005"><a xlink:href="../../d9/d10/classlci_1_1alloc__device__x.html#ad24d73c79259e5dcba473f20adad64cd" target="_top" xlink:title=" ">
<polygon fill="white" stroke="#666666" points="265.5,-558 159.5,-558 159.5,-528 265.5,-528 265.5,-558"/>
<text text-anchor="start" x="167.5" y="-546" font-family="Helvetica,sans-Serif" font-size="10.00">lci::alloc_device_x</text>
<text text-anchor="middle" x="212.5" y="-535" font-family="Helvetica,sans-Serif" font-size="10.00">::ibv_td_strategy</text>
</a>
</g>
</g>
<!-- Node1&#45;&gt;Node5 -->
<g id="edge5_Node000001_Node000005" class="edge">
<title>Node1&#45;&gt;Node5</title>
<g id="a_edge5_Node000001_Node000005"><a xlink:title=" ">
<path fill="none" stroke="#63b8ff" d="M56.72,-342.11C63.95,-378.01 87.01,-469.11 142,-519 144.58,-521.34 147.41,-523.46 150.39,-525.37"/>
<polygon fill="#63b8ff" stroke="#63b8ff" points="148.71,-528.44 159.16,-530.24 152.11,-522.32 148.71,-528.44"/>
</a>
</g>
</g>
<!-- Node6 -->
<g id="Node000006" class="node">
<title>Node6</title>
<g id="a_Node000006"><a xlink:href="../../d9/d10/classlci_1_1alloc__device__x.html#a6f0be32f14a934810e8f358b24fe981f" target="_top" xlink:title=" ">
<polygon fill="white" stroke="#666666" points="265.5,-510 159.5,-510 159.5,-480 265.5,-480 265.5,-510"/>
<text text-anchor="start" x="167.5" y="-498" font-family="Helvetica,sans-Serif" font-size="10.00">lci::alloc_device_x</text>
<text text-anchor="middle" x="212.5" y="-487" font-family="Helvetica,sans-Serif" font-size="10.00">::name</text>
</a>
</g>
</g>
<!-- Node1&#45;&gt;Node6 -->
<g id="edge7_Node000001_Node000006" class="edge">
<title>Node1&#45;&gt;Node6</title>
<g id="a_edge7_Node000001_Node000006"><a xlink:title=" ">
<path fill="none" stroke="#63b8ff" d="M59.36,-342.43C70.3,-371.71 97.94,-435.56 142,-471 144.59,-473.08 147.36,-474.99 150.27,-476.73"/>
<polygon fill="#63b8ff" stroke="#63b8ff" points="148.81,-479.92 159.29,-481.49 152.08,-473.73 148.81,-479.92"/>
</a>
</g>
</g>
<!-- Node7 -->
<g id="Node000007" class="node">
<title>Node7</title>
<g id="a_Node000007"><a xlink:href="../../d9/d10/classlci_1_1alloc__device__x.html#abeaee68a26587c6b359320ab7cc7def1" target="_top" xlink:title=" ">
<polygon fill="white" stroke="#666666" points="265.5,-462 159.5,-462 159.5,-432 265.5,-432 265.5,-462"/>
<text text-anchor="start" x="167.5" y="-450" font-family="Helvetica,sans-Serif" font-size="10.00">lci::alloc_device_x</text>
<text text-anchor="middle" x="212.5" y="-439" font-family="Helvetica,sans-Serif" font-size="10.00">::net_context</text>
</a>
</g>
</g>
<!-- Node1&#45;&gt;Node7 -->
<g id="edge9_Node000001_Node000007" class="edge">
<title>Node1&#45;&gt;Node7</title>
<g id="a_edge9_Node000001_Node000007"><a xlink:title=" ">
<path fill="none" stroke="#63b8ff" d="M64.16,-342.16C78.95,-363.13 108.35,-400.92 142,-423 144.58,-424.7 147.3,-426.29 150.11,-427.77"/>
<polygon fill="#63b8ff" stroke="#63b8ff" points="148.76,-431.01 159.28,-432.19 151.79,-424.7 148.76,-431.01"/>
</a>
</g>
</g>
<!-- Node8 -->
<g id="Node000008" class="node">
<title>Node8</title>
<g id="a_Node000008"><a xlink:href="../../d9/d10/classlci_1_1alloc__device__x.html#acd2e7ade6e7e4c91b3144bd3068ead07" target="_top" xlink:title=" ">
<polygon fill="white" stroke="#666666" points="265.5,-414 159.5,-414 159.5,-384 265.5,-384 265.5,-414"/>
<text text-anchor="start" x="167.5" y="-402" font-family="Helvetica,sans-Serif" font-size="10.00">lci::alloc_device_x</text>
<text text-anchor="middle" x="212.5" y="-391" font-family="Helvetica,sans-Serif" font-size="10.00">::net_max_cqes</text>
</a>
</g>
</g>
<!-- Node1&#45;&gt;Node8 -->
<g id="edge11_Node000001_Node000008" class="edge">
<title>Node1&#45;&gt;Node8</title>
<g id="a_edge11_Node000001_Node000008"><a xlink:title=" ">
<path fill="none" stroke="#63b8ff" d="M78.85,-342.01C96.18,-352.11 120.03,-365.3 142,-375 146.12,-376.82 150.42,-378.59 154.78,-380.3"/>
<polygon fill="#63b8ff" stroke="#63b8ff" points="153.76,-383.66 164.36,-383.91 156.24,-377.11 153.76,-383.66"/>
</a>
</g>
</g>
<!-- Node9 -->
<g id="Node000009" class="node">
<title>Node9</title>
<g id="a_Node000009"><a xlink:href="../../d9/d10/classlci_1_1alloc__device__x.html#a4c8c86d9400791bb609b391aef165d68" target="_top" xlink:title=" ">
<polygon fill="white" stroke="#666666" points="265.5,-366 159.5,-366 159.5,-336 265.5,-336 265.5,-366"/>
<text text-anchor="start" x="167.5" y="-354" font-family="Helvetica,sans-Serif" font-size="10.00">lci::alloc_device_x</text>
<text text-anchor="middle" x="212.5" y="-343" font-family="Helvetica,sans-Serif" font-size="10.00">::net_max_recvs</text>
</a>
</g>
</g>
<!-- Node1&#45;&gt;Node9 -->
<g id="edge13_Node000001_Node000009" class="edge">
<title>Node1&#45;&gt;Node9</title>
<g id="a_edge13_Node000001_Node000009"><a xlink:title=" ">
<path fill="none" stroke="#63b8ff" d="M106.01,-334.93C119.78,-337.02 134.79,-339.31 149.05,-341.48"/>
<polygon fill="#63b8ff" stroke="#63b8ff" points="148.86,-345 159.28,-343.04 149.92,-338.08 148.86,-345"/>
</a>
</g>
</g>
<!-- Node10 -->
<g id="Node000010" class="node">
<title>Node10</title>
<g id="a_Node000010"><a xlink:href="../../d9/d10/classlci_1_1alloc__device__x.html#afe0d1c701b1611f00c3feaa22bd5f0cd" target="_top" xlink:title=" ">
<polygon fill="white" stroke="#666666" points="265.5,-318 159.5,-318 159.5,-288 265.5,-288 265.5,-318"/>
<text text-anchor="start" x="167.5" y="-306" font-family="Helvetica,sans-Serif" font-size="10.00">lci::alloc_device_x</text>
<text text-anchor="middle" x="212.5" y="-295" font-family="Helvetica,sans-Serif" font-size="10.00">::net_max_sends</text>
</a>
</g>
</g>
<!-- Node1&#45;&gt;Node10 -->
<g id="edge15_Node000001_Node000010" class="edge">
<title>Node1&#45;&gt;Node10</title>
<g id="a_edge15_Node000001_Node000010"><a xlink:title=" ">
<path fill="none" stroke="#63b8ff" d="M106.01,-319.07C119.78,-316.98 134.79,-314.69 149.05,-312.52"/>
<polygon fill="#63b8ff" stroke="#63b8ff" points="149.92,-315.92 159.28,-310.96 148.86,-309 149.92,-315.92"/>
</a>
</g>
</g>
<!-- Node11 -->
<g id="Node000011" class="node">
<title>Node11</title>
<g id="a_Node000011"><a xlink:href="../../d9/d10/classlci_1_1alloc__device__x.html#a9dccb87689be3fb6d329abb8111bdf6c" target="_top" xlink:title=" ">
<polygon fill="white" stroke="#666666" points="280,-270 145,-270 145,-240 280,-240 280,-270"/>
<text text-anchor="start" x="153" y="-258" font-family="Helvetica,sans-Serif" font-size="10.00">lci::alloc_device_x</text>
<text text-anchor="middle" x="212.5" y="-247" font-family="Helvetica,sans-Serif" font-size="10.00">::net_send_reserved_pct</text>
</a>
</g>
</g>
<!-- Node1&#45;&gt;Node11 -->
<g id="edge17_Node000001_Node000011" class="edge">
<title>Node1&#45;&gt;Node11</title>
<g id="a_edge17_Node000001_Node000011"><a xlink:title=" ">
<path fill="none" stroke="#63b8ff" d="M78.85,-311.99C96.18,-301.89 120.03,-288.7 142,-279 146.12,-277.18 150.42,-275.41 154.78,-273.7"/>
<polygon fill="#63b8ff" stroke="#63b8ff" points="156.24,-276.89 164.36,-270.09 153.76,-270.34 156.24,-276.89"/>
</a>
</g>
</g>
<!-- Node12 -->
<g id="Node000012" class="node">
<title>Node12</title>
<g id="a_Node000012"><a xlink:href="../../d9/d10/classlci_1_1alloc__device__x.html#a7d316853b54b2a870ea35c387c1006e4" target="_top" xlink:title=" ">
<polygon fill="white" stroke="#666666" points="265.5,-222 159.5,-222 159.5,-192 265.5,-192 265.5,-222"/>
<text text-anchor="start" x="167.5" y="-210" font-family="Helvetica,sans-Serif" font-size="10.00">lci::alloc_device_x</text>
<text text-anchor="middle" x="212.5" y="-199" font-family="Helvetica,sans-Serif" font-size="10.00">::ofi_lock_mode</text>
</a>
</g>
</g>
<!-- Node1&#45;&gt;Node12 -->
<g id="edge19_Node000001_Node000012" class="edge">
<title>Node1&#45;&gt;Node12</title>
<g id="a_edge19_Node000001_Node000012"><a xlink:title=" ">
<path fill="none" stroke="#63b8ff" d="M64.16,-311.84C78.95,-290.87 108.35,-253.08 142,-231 144.58,-229.3 147.3,-227.71 150.11,-226.23"/>
<polygon fill="#63b8ff" stroke="#63b8ff" points="151.79,-229.3 159.28,-221.81 148.76,-222.99 151.79,-229.3"/>
</a>
</g>
</g>
<!-- Node13 -->
<g id="Node000013" class="node">
<title>Node13</title>
<g id="a_Node000013"><a xlink:href="../../d9/d10/classlci_1_1alloc__device__x.html#a561a0ed83694bc3350a801b629e5bd21" target="_top" xlink:title=" ">
<polygon fill="white" stroke="#666666" points="265.5,-174 159.5,-174 159.5,-144 265.5,-144 265.5,-174"/>
<text text-anchor="start" x="167.5" y="-162" font-family="Helvetica,sans-Serif" font-size="10.00">lci::alloc_device_x</text>
<text text-anchor="middle" x="212.5" y="-151" font-family="Helvetica,sans-Serif" font-size="10.00">::packet_pool</text>
</a>
</g>
</g>
<!-- Node1&#45;&gt;Node13 -->
<g id="edge21_Node000001_Node000013" class="edge">
<title>Node1&#45;&gt;Node13</title>
<g id="a_edge21_Node000001_Node000013"><a xlink:title=" ">
<path fill="none" stroke="#63b8ff" d="M59.36,-311.57C70.3,-282.29 97.94,-218.44 142,-183 144.59,-180.92 147.36,-179.01 150.27,-177.27"/>
<polygon fill="#63b8ff" stroke="#63b8ff" points="152.08,-180.27 159.29,-172.51 148.81,-174.08 152.08,-180.27"/>
</a>
</g>
</g>
<!-- Node14 -->
<g id="Node000014" class="node">
<title>Node14</title>
<g id="a_Node000014"><a xlink:href="../../d9/d10/classlci_1_1alloc__device__x.html#a56912fff6daa357d714dbbf3bf67af85" target="_top" xlink:title=" ">
<polygon fill="white" stroke="#666666" points="265.5,-126 159.5,-126 159.5,-96 265.5,-96 265.5,-126"/>
<text text-anchor="start" x="167.5" y="-114" font-family="Helvetica,sans-Serif" font-size="10.00">lci::alloc_device_x</text>
<text text-anchor="middle" x="212.5" y="-103" font-family="Helvetica,sans-Serif" font-size="10.00">::runtime</text>
</a>
</g>
</g>
<!-- Node1&#45;&gt;Node14 -->
<g id="edge23_Node000001_Node000014" class="edge">
<title>Node1&#45;&gt;Node14</title>
<g id="a_edge23_Node000001_Node000014"><a xlink:title=" ">
<path fill="none" stroke="#63b8ff" d="M56.72,-311.89C63.95,-275.99 87.01,-184.89 142,-135 144.58,-132.66 147.41,-130.54 150.39,-128.63"/>
<polygon fill="#63b8ff" stroke="#63b8ff" points="152.11,-131.68 159.16,-123.76 148.71,-125.56 152.11,-131.68"/>
</a>
</g>
</g>
<!-- Node15 -->
<g id="Node000015" class="node">
<title>Node15</title>
<g id="a_Node000015"><a xlink:href="../../d9/d10/classlci_1_1alloc__device__x.html#a6737b51602e702943e829c466e23f945" target="_top" xlink:title=" ">
<polygon fill="white" stroke="#666666" points="265.5,-78 159.5,-78 159.5,-48 265.5,-48 265.5,-78"/>
<text text-anchor="start" x="167.5" y="-66" font-family="Helvetica,sans-Serif" font-size="10.00">lci::alloc_device_x</text>
<text text-anchor="middle" x="212.5" y="-55" font-family="Helvetica,sans-Serif" font-size="10.00">::use_reg_cache</text>
</a>
</g>
</g>
<!-- Node1&#45;&gt;Node15 -->
<g id="edge25_Node000001_Node000015" class="edge">
<title>Node1&#45;&gt;Node15</title>
<g id="a_edge25_Node000001_Node000015"><a xlink:title=" ">
<path fill="none" stroke="#63b8ff" d="M55.14,-311.97C59.12,-270.25 75.95,-151.81 142,-87 144.54,-84.51 147.34,-82.28 150.33,-80.28"/>
<polygon fill="#63b8ff" stroke="#63b8ff" points="152.22,-83.23 159.16,-75.23 148.74,-77.15 152.22,-83.23"/>
</a>
</g>
</g>
<!-- Node16 -->
<g id="Node000016" class="node">
<title>Node16</title>
<g id="a_Node000016"><a xlink:href="../../d9/d10/classlci_1_1alloc__device__x.html#a5508f2d5c851ff147e9f8cd40db1ade3" target="_top" xlink:title=" ">
<polygon fill="white" stroke="#666666" points="265.5,-30 159.5,-30 159.5,0 265.5,0 265.5,-30"/>
<text text-anchor="start" x="167.5" y="-18" font-family="Helvetica,sans-Serif" font-size="10.00">lci::alloc_device_x</text>
<text text-anchor="middle" x="212.5" y="-7" font-family="Helvetica,sans-Serif" font-size="10.00">::user_context</text>
</a>
</g>
</g>
<!-- Node1&#45;&gt;Node16 -->
<g id="edge27_Node000001_Node000016" class="edge">
<title>Node1&#45;&gt;Node16</title>
<g id="a_edge27_Node000001_Node000016"><a xlink:title=" ">
<path fill="none" stroke="#63b8ff" d="M54.08,-311.81C55.15,-264.61 64.87,-118.96 142,-39 144.51,-36.39 147.32,-34.07 150.33,-32"/>
<polygon fill="#63b8ff" stroke="#63b8ff" points="152.38,-34.86 159.26,-26.81 148.86,-28.81 152.38,-34.86"/>
</a>
</g>
</g>
<!-- Node3 -->
<g id="Node000003" class="node">
<title>Node3</title>
<g id="a_Node000003"><a xlink:href="../../d9/d10/classlci_1_1alloc__device__x.html#a12e57dde78668d47808506dbd65f011e" target="_top" xlink:title=" ">
<polygon fill="white" stroke="#666666" points="425,-342 319,-342 319,-312 425,-312 425,-342"/>
<text text-anchor="start" x="327" y="-330" font-family="Helvetica,sans-Serif" font-size="10.00">lci::alloc_device_x</text>
<text text-anchor="middle" x="372" y="-319" font-family="Helvetica,sans-Serif" font-size="10.00">::alloc_device_x</text>
</a>
</g>
</g>
<!-- Node2&#45;&gt;Node3 -->
<g id="edge2_Node000002_Node000003" class="edge">
<title>Node2&#45;&gt;Node3</title>
<g id="a_edge2_Node000002_Node000003"><a xlink:title=" ">
<path fill="none" stroke="#63b8ff" d="M271.86,-623.82C275.94,-621.32 279.72,-618.4 283,-615 355.16,-540.19 368.32,-407.89 370.59,-352.5"/>
<polygon fill="#63b8ff" stroke="#63b8ff" points="374.1,-352.3 370.92,-342.19 367.1,-352.08 374.1,-352.3"/>
</a>
</g>
</g>
<!-- Node4&#45;&gt;Node3 -->
<g id="edge4_Node000004_Node000003" class="edge">
<title>Node4&#45;&gt;Node3</title>
<g id="a_edge4_Node000004_Node000003"><a xlink:title=" ">
<path fill="none" stroke="#63b8ff" d="M271.33,-575.82C275.57,-573.31 279.54,-570.4 283,-567 344.27,-506.88 363.19,-400.59 368.78,-352.23"/>
<polygon fill="#63b8ff" stroke="#63b8ff" points="372.29,-352.34 369.86,-342.03 365.33,-351.61 372.29,-352.34"/>
</a>
</g>
</g>
<!-- Node5&#45;&gt;Node3 -->
<g id="edge6_Node000005_Node000003" class="edge">
<title>Node5&#45;&gt;Node3</title>
<g id="a_edge6_Node000005_Node000003"><a xlink:title=" ">
<path fill="none" stroke="#63b8ff" d="M265.84,-530.24C272.07,-527.24 277.99,-523.55 283,-519 333.48,-473.2 357.05,-392.68 366.17,-352.01"/>
<polygon fill="#63b8ff" stroke="#63b8ff" points="369.62,-352.62 368.28,-342.11 362.77,-351.17 369.62,-352.62"/>
</a>
</g>
</g>
<!-- Node6&#45;&gt;Node3 -->
<g id="edge8_Node000006_Node000003" class="edge">
<title>Node6&#45;&gt;Node3</title>
<g id="a_edge8_Node000006_Node000003"><a xlink:title=" ">
<path fill="none" stroke="#63b8ff" d="M265.71,-481.49C271.89,-478.62 277.83,-475.16 283,-471 322.76,-439.02 349.15,-383.91 361.96,-351.94"/>
<polygon fill="#63b8ff" stroke="#63b8ff" points="365.29,-353.02 365.64,-342.43 358.77,-350.49 365.29,-353.02"/>
</a>
</g>
</g>
<!-- Node7&#45;&gt;Node3 -->
<g id="edge10_Node000007_Node000003" class="edge">
<title>Node7&#45;&gt;Node3</title>
<g id="a_edge10_Node000007_Node000003"><a xlink:title=" ">
<path fill="none" stroke="#63b8ff" d="M265.72,-432.19C271.76,-429.55 277.66,-426.5 283,-423 312.57,-403.6 338.87,-372.06 354.84,-350.46"/>
<polygon fill="#63b8ff" stroke="#63b8ff" points="357.82,-352.31 360.84,-342.16 352.15,-348.21 357.82,-352.31"/>
</a>
</g>
</g>
<!-- Node8&#45;&gt;Node3 -->
<g id="edge12_Node000008_Node000003" class="edge">
<title>Node8&#45;&gt;Node3</title>
<g id="a_edge12_Node000008_Node000003"><a xlink:title=" ">
<path fill="none" stroke="#63b8ff" d="M260.64,-383.91C268.2,-381.16 275.88,-378.15 283,-375 301.36,-366.89 321.05,-356.34 337.13,-347.2"/>
<polygon fill="#63b8ff" stroke="#63b8ff" points="339.23,-350.03 346.15,-342.01 335.74,-343.96 339.23,-350.03"/>
</a>
</g>
</g>
<!-- Node9&#45;&gt;Node3 -->
<g id="edge14_Node000009_Node000003" class="edge">
<title>Node9&#45;&gt;Node3</title>
<g id="a_edge14_Node000009_Node000003"><a xlink:title=" ">
<path fill="none" stroke="#63b8ff" d="M265.51,-343.07C279.28,-340.98 294.29,-338.69 308.55,-336.52"/>
<polygon fill="#63b8ff" stroke="#63b8ff" points="309.42,-339.92 318.78,-334.96 308.36,-333 309.42,-339.92"/>
</a>
</g>
</g>
<!-- Node10&#45;&gt;Node3 -->
<g id="edge16_Node000010_Node000003" class="edge">
<title>Node10&#45;&gt;Node3</title>
<g id="a_edge16_Node000010_Node000003"><a xlink:title=" ">
<path fill="none" stroke="#63b8ff" d="M265.51,-310.93C279.28,-313.02 294.29,-315.31 308.55,-317.48"/>
<polygon fill="#63b8ff" stroke="#63b8ff" points="308.36,-321 318.78,-319.04 309.42,-314.08 308.36,-321"/>
</a>
</g>
</g>
<!-- Node11&#45;&gt;Node3 -->
<g id="edge18_Node000011_Node000003" class="edge">
<title>Node11&#45;&gt;Node3</title>
<g id="a_edge18_Node000011_Node000003"><a xlink:title=" ">
<path fill="none" stroke="#63b8ff" d="M260.64,-270.09C268.2,-272.84 275.88,-275.85 283,-279 301.36,-287.11 321.05,-297.66 337.13,-306.8"/>
<polygon fill="#63b8ff" stroke="#63b8ff" points="335.74,-310.04 346.15,-311.99 339.23,-303.97 335.74,-310.04"/>
</a>
</g>
</g>
<!-- Node12&#45;&gt;Node3 -->
<g id="edge20_Node000012_Node000003" class="edge">
<title>Node12&#45;&gt;Node3</title>
<g id="a_edge20_Node000012_Node000003"><a xlink:title=" ">
<path fill="none" stroke="#63b8ff" d="M265.72,-221.81C271.76,-224.45 277.66,-227.5 283,-231 312.57,-250.4 338.87,-281.94 354.84,-303.54"/>
<polygon fill="#63b8ff" stroke="#63b8ff" points="352.15,-305.79 360.84,-311.84 357.82,-301.69 352.15,-305.79"/>
</a>
</g>
</g>
<!-- Node13&#45;&gt;Node3 -->
<g id="edge22_Node000013_Node000003" class="edge">
<title>Node13&#45;&gt;Node3</title>
<g id="a_edge22_Node000013_Node000003"><a xlink:title=" ">
<path fill="none" stroke="#63b8ff" d="M265.71,-172.51C271.89,-175.38 277.83,-178.84 283,-183 322.76,-214.98 349.15,-270.09 361.96,-302.06"/>
<polygon fill="#63b8ff" stroke="#63b8ff" points="358.77,-303.51 365.64,-311.57 365.29,-300.98 358.77,-303.51"/>
</a>
</g>
</g>
<!-- Node14&#45;&gt;Node3 -->
<g id="edge24_Node000014_Node000003" class="edge">
<title>Node14&#45;&gt;Node3</title>
<g id="a_edge24_Node000014_Node000003"><a xlink:title=" ">
<path fill="none" stroke="#63b8ff" d="M265.84,-123.76C272.07,-126.76 277.99,-130.45 283,-135 333.48,-180.8 357.05,-261.32 366.17,-301.99"/>
<polygon fill="#63b8ff" stroke="#63b8ff" points="362.77,-302.83 368.28,-311.89 369.62,-301.38 362.77,-302.83"/>
</a>
</g>
</g>
<!-- Node15&#45;&gt;Node3 -->
<g id="edge26_Node000015_Node000003" class="edge">
<title>Node15&#45;&gt;Node3</title>
<g id="a_edge26_Node000015_Node000003"><a xlink:title=" ">
<path fill="none" stroke="#63b8ff" d="M265.84,-75.23C272.14,-78.31 278.08,-82.17 283,-87 344.27,-147.12 363.19,-253.41 368.78,-301.77"/>
<polygon fill="#63b8ff" stroke="#63b8ff" points="365.33,-302.39 369.86,-311.97 372.29,-301.66 365.33,-302.39"/>
</a>
</g>
</g>
<!-- Node16&#45;&gt;Node3 -->
<g id="edge28_Node000016_Node000003" class="edge">
<title>Node16&#45;&gt;Node3</title>
<g id="a_edge28_Node000016_Node000003"><a xlink:title=" ">
<path fill="none" stroke="#63b8ff" d="M265.74,-26.81C272.14,-29.96 278.13,-33.95 283,-39 355.16,-113.81 368.32,-246.11 370.59,-301.5"/>
<polygon fill="#63b8ff" stroke="#63b8ff" points="367.1,-301.92 370.92,-311.81 374.1,-301.7 367.1,-301.92"/>
</a>
</g>
</g>
</g>
</svg>
