<?xml version="1.0" encoding="UTF-8" standalone="no"?>
<!DOCTYPE svg PUBLIC "-//W3C//DTD SVG 1.1//EN"
 "http://www.w3.org/Graphics/SVG/1.1/DTD/svg11.dtd">
<!-- Generated by graphviz version 2.43.0 (0)
 -->
<!-- Title: lci::alloc_device_x::call Pages: 1 -->
<svg width="569pt" height="566pt"
 viewBox="0.00 0.00 569.00 566.00" xmlns="http://www.w3.org/2000/svg" xmlns:xlink="http://www.w3.org/1999/xlink">
<g id="graph0" class="graph" transform="scale(1 1) rotate(0) translate(4 562)">
<title>lci::alloc_device_x::call</title>
<!-- Node1 -->
<g id="Node000001" class="node">
<title>Node1</title>
<g id="a_Node000001"><a xlink:title=" ">
<polygon fill="#999999" stroke="#666666" points="106,-294 0,-294 0,-264 106,-264 106,-294"/>
<text text-anchor="start" x="8" y="-282" font-family="Helvetica,sans-Serif" font-size="10.00">lci::alloc_device_x</text>
<text text-anchor="middle" x="53" y="-271" font-family="Helvetica,sans-Serif" font-size="10.00">::call</text>
</a>
</g>
</g>
<!-- Node2 -->
<g id="Node000002" class="node">
<title>Node2</title>
<g id="a_Node000002"><a xlink:href="../../d9/d10/classlci_1_1alloc__device__x.html#a0364c3bcc9d35c8c2dadd4a683e13b2b" target="_top" xlink:title=" ">
<polygon fill="white" stroke="#666666" points="418.5,-558 284.5,-558 284.5,-528 418.5,-528 418.5,-558"/>
<text text-anchor="start" x="292.5" y="-546" font-family="Helvetica,sans-Serif" font-size="10.00">lci::alloc_device_x</text>
<text text-anchor="middle" x="351.5" y="-535" font-family="Helvetica,sans-Serif" font-size="10.00">::alloc_default_endpoint</text>
</a>
</g>
</g>
<!-- Node1&#45;&gt;Node2 -->
<g id="edge1_Node000001_Node000002" class="edge">
<title>Node1&#45;&gt;Node2</title>
<g id="a_edge1_Node000001_Node000002"><a xlink:title=" ">
<path fill="none" stroke="#63b8ff" d="M57.94,-294.07C67.26,-327 93.58,-406.16 142,-453 178.88,-488.68 232.16,-511.34 275.62,-525"/>
<polygon fill="#63b8ff" stroke="#63b8ff" points="274.72,-528.39 285.3,-527.95 276.76,-521.69 274.72,-528.39"/>
</a>
</g>
</g>
<!-- Node4 -->
<g id="Node000004" class="node">
<title>Node4</title>
<g id="a_Node000004"><a xlink:href="../../d9/d10/classlci_1_1alloc__device__x.html#a2e812c594a7a05b7ef708dbf39e58611" target="_top" xlink:title=" ">
<polygon fill="white" stroke="#666666" points="248,-294 142,-294 142,-264 248,-264 248,-294"/>
<text text-anchor="start" x="150" y="-282" font-family="Helvetica,sans-Serif" font-size="10.00">lci::alloc_device_x</text>
<text text-anchor="middle" x="195" y="-271" font-family="Helvetica,sans-Serif" font-size="10.00">::call_impl</text>
</a>
</g>
</g>
<!-- Node1&#45;&gt;Node4 -->
<g id="edge3_Node000001_Node000004" class="edge">
<title>Node1&#45;&gt;Node4</title>
<g id="a_edge3_Node000001_Node000004"><a xlink:title=" ">
<path fill="none" stroke="#63b8ff" d="M106.13,-279C114.42,-279 123.07,-279 131.57,-279"/>
<polygon fill="#63b8ff" stroke="#63b8ff" points="131.83,-282.5 141.83,-279 131.83,-275.5 131.83,-282.5"/>
</a>
</g>
</g>
<!-- Node5 -->
<g id="Node000005" class="node">
<title>Node5</title>
<g id="a_Node000005"><a xlink:href="../../d9/d10/classlci_1_1alloc__device__x.html#ad24d73c79259e5dcba473f20adad64cd" target="_top" xlink:title=" ">
<polygon fill="white" stroke="#666666" points="404.5,-510 298.5,-510 298.5,-480 404.5,-480 404.5,-510"/>
<text text-anchor="start" x="306.5" y="-498" font-family="Helvetica,sans-Serif" font-size="10.00">lci::alloc_device_x</text>
<text text-anchor="middle" x="351.5" y="-487" font-family="Helvetica,sans-Serif" font-size="10.00">::ibv_td_strategy</text>
</a>
</g>
</g>
<!-- Node1&#45;&gt;Node5 -->
<g id="edge27_Node000001_Node000005" class="edge">
<title>Node1&#45;&gt;Node5</title>
<g id="a_edge27_Node000001_Node000005"><a xlink:title=" ">
<path fill="none" stroke="#63b8ff" d="M60.44,-294.28C72.61,-321.47 101.43,-378.51 142,-412 184.6,-447.16 243.97,-468.83 288.46,-481.17"/>
<polygon fill="#63b8ff" stroke="#63b8ff" points="287.72,-484.6 298.29,-483.82 289.54,-477.84 287.72,-484.6"/>
</a>
</g>
</g>
<!-- Node6 -->
<g id="Node000006" class="node">
<title>Node6</title>
<g id="a_Node000006"><a xlink:href="../../d9/d10/classlci_1_1alloc__device__x.html#a6f0be32f14a934810e8f358b24fe981f" target="_top" xlink:title=" ">
<polygon fill="white" stroke="#666666" points="404.5,-462 298.5,-462 298.5,-432 404.5,-432 404.5,-462"/>
<text text-anchor="start" x="306.5" y="-450" font-family="Helvetica,sans-Serif" font-size="10.00">lci::alloc_device_x</text>
<text text-anchor="middle" x="351.5" y="-439" font-family="Helvetica,sans-Serif" font-size="10.00">::name</text>
</a>
</g>
</g>
<!-- Node1&#45;&gt;Node6 -->
<g id="edge28_Node000001_Node000006" class="edge">
<title>Node1&#45;&gt;Node6</title>
<g id="a_edge28_Node000001_Node000006"><a xlink:title=" ">
<path fill="none" stroke="#63b8ff" d="M64.16,-294.16C78.95,-315.13 108.35,-352.92 142,-375 186.85,-404.43 245.05,-423.21 288.56,-434.19"/>
<polygon fill="#63b8ff" stroke="#63b8ff" points="287.9,-437.63 298.45,-436.61 289.57,-430.83 287.9,-437.63"/>
</a>
</g>
</g>
<!-- Node7 -->
<g id="Node000007" class="node">
<title>Node7</title>
<g id="a_Node000007"><a xlink:href="../../d9/d10/classlci_1_1alloc__device__x.html#abeaee68a26587c6b359320ab7cc7def1" target="_top" xlink:title=" ">
<polygon fill="white" stroke="#666666" points="404.5,-414 298.5,-414 298.5,-384 404.5,-384 404.5,-414"/>
<text text-anchor="start" x="306.5" y="-402" font-family="Helvetica,sans-Serif" font-size="10.00">lci::alloc_device_x</text>
<text text-anchor="middle" x="351.5" y="-391" font-family="Helvetica,sans-Serif" font-size="10.00">::net_context</text>
</a>
</g>
</g>
<!-- Node1&#45;&gt;Node7 -->
<g id="edge29_Node000001_Node000007" class="edge">
<title>Node1&#45;&gt;Node7</title>
<g id="a_edge29_Node000001_Node000007"><a xlink:title=" ">
<path fill="none" stroke="#63b8ff" d="M70.65,-294.03C87.51,-308.5 114.9,-330.05 142,-343 188.65,-365.28 245.57,-379.81 288.14,-388.47"/>
<polygon fill="#63b8ff" stroke="#63b8ff" points="287.6,-391.93 298.09,-390.44 288.96,-385.07 287.6,-391.93"/>
</a>
</g>
</g>
<!-- Node8 -->
<g id="Node000008" class="node">
<title>Node8</title>
<g id="a_Node000008"><a xlink:href="../../d9/d10/classlci_1_1alloc__device__x.html#acd2e7ade6e7e4c91b3144bd3068ead07" target="_top" xlink:title=" ">
<polygon fill="white" stroke="#666666" points="404.5,-366 298.5,-366 298.5,-336 404.5,-336 404.5,-366"/>
<text text-anchor="start" x="306.5" y="-354" font-family="Helvetica,sans-Serif" font-size="10.00">lci::alloc_device_x</text>
<text text-anchor="middle" x="351.5" y="-343" font-family="Helvetica,sans-Serif" font-size="10.00">::net_max_cqes</text>
</a>
</g>
</g>
<!-- Node1&#45;&gt;Node8 -->
<g id="edge30_Node000001_Node000008" class="edge">
<title>Node1&#45;&gt;Node8</title>
<g id="a_edge30_Node000001_Node000008"><a xlink:title=" ">
<path fill="none" stroke="#63b8ff" d="M81.77,-294.01C98.72,-302.56 121.09,-312.77 142,-319 189.99,-333.29 246.19,-341.45 288.15,-345.94"/>
<polygon fill="#63b8ff" stroke="#63b8ff" points="287.91,-349.44 298.22,-346.98 288.63,-342.47 287.91,-349.44"/>
</a>
</g>
</g>
<!-- Node9 -->
<g id="Node000009" class="node">
<title>Node9</title>
<g id="a_Node000009"><a xlink:href="../../d9/d10/classlci_1_1alloc__device__x.html#a4c8c86d9400791bb609b391aef165d68" target="_top" xlink:title=" ">
<polygon fill="white" stroke="#666666" points="404.5,-318 298.5,-318 298.5,-288 404.5,-288 404.5,-318"/>
<text text-anchor="start" x="306.5" y="-306" font-family="Helvetica,sans-Serif" font-size="10.00">lci::alloc_device_x</text>
<text text-anchor="middle" x="351.5" y="-295" font-family="Helvetica,sans-Serif" font-size="10.00">::net_max_recvs</text>
</a>
</g>
</g>
<!-- Node1&#45;&gt;Node9 -->
<g id="edge31_Node000001_Node000009" class="edge">
<title>Node1&#45;&gt;Node9</title>
<g id="a_edge31_Node000001_Node000009"><a xlink:title=" ">
<path fill="none" stroke="#63b8ff" d="M100.11,-294.05C113.47,-297.74 128.19,-301.15 142,-303 190.89,-309.55 246.81,-309.12 288.42,-307.3"/>
<polygon fill="#63b8ff" stroke="#63b8ff" points="288.58,-310.79 298.41,-306.82 288.25,-303.8 288.58,-310.79"/>
</a>
</g>
</g>
<!-- Node10 -->
<g id="Node000010" class="node">
<title>Node10</title>
<g id="a_Node000010"><a xlink:href="../../d9/d10/classlci_1_1alloc__device__x.html#afe0d1c701b1611f00c3feaa22bd5f0cd" target="_top" xlink:title=" ">
<polygon fill="white" stroke="#666666" points="404.5,-270 298.5,-270 298.5,-240 404.5,-240 404.5,-270"/>
<text text-anchor="start" x="306.5" y="-258" font-family="Helvetica,sans-Serif" font-size="10.00">lci::alloc_device_x</text>
<text text-anchor="middle" x="351.5" y="-247" font-family="Helvetica,sans-Serif" font-size="10.00">::net_max_sends</text>
</a>
</g>
</g>
<!-- Node1&#45;&gt;Node10 -->
<g id="edge32_Node000001_Node000010" class="edge">
<title>Node1&#45;&gt;Node10</title>
<g id="a_edge32_Node000001_Node000010"><a xlink:title=" ">
<path fill="none" stroke="#63b8ff" d="M100.11,-263.95C113.47,-260.26 128.19,-256.85 142,-255 190.89,-248.45 246.81,-248.88 288.42,-250.7"/>
<polygon fill="#63b8ff" stroke="#63b8ff" points="288.25,-254.2 298.41,-251.18 288.58,-247.21 288.25,-254.2"/>
</a>
</g>
</g>
<!-- Node11 -->
<g id="Node000011" class="node">
<title>Node11</title>
<g id="a_Node000011"><a xlink:href="../../d9/d10/classlci_1_1alloc__device__x.html#a9dccb87689be3fb6d329abb8111bdf6c" target="_top" xlink:title=" ">
<polygon fill="white" stroke="#666666" points="419,-222 284,-222 284,-192 419,-192 419,-222"/>
<text text-anchor="start" x="292" y="-210" font-family="Helvetica,sans-Serif" font-size="10.00">lci::alloc_device_x</text>
<text text-anchor="middle" x="351.5" y="-199" font-family="Helvetica,sans-Serif" font-size="10.00">::net_send_reserved_pct</text>
</a>
</g>
</g>
<!-- Node1&#45;&gt;Node11 -->
<g id="edge33_Node000001_Node000011" class="edge">
<title>Node1&#45;&gt;Node11</title>
<g id="a_edge33_Node000001_Node000011"><a xlink:title=" ">
<path fill="none" stroke="#63b8ff" d="M88.6,-263.89C104.61,-257.36 124.03,-250.06 142,-245 184.93,-232.91 233.96,-223.75 273.68,-217.45"/>
<polygon fill="#63b8ff" stroke="#63b8ff" points="274.23,-220.91 283.57,-215.92 273.15,-213.99 274.23,-220.91"/>
</a>
</g>
</g>
<!-- Node12 -->
<g id="Node000012" class="node">
<title>Node12</title>
<g id="a_Node000012"><a xlink:href="../../d9/d10/classlci_1_1alloc__device__x.html#a7d316853b54b2a870ea35c387c1006e4" target="_top" xlink:title=" ">
<polygon fill="white" stroke="#666666" points="404.5,-174 298.5,-174 298.5,-144 404.5,-144 404.5,-174"/>
<text text-anchor="start" x="306.5" y="-162" font-family="Helvetica,sans-Serif" font-size="10.00">lci::alloc_device_x</text>
<text text-anchor="middle" x="351.5" y="-151" font-family="Helvetica,sans-Serif" font-size="10.00">::ofi_lock_mode</text>
</a>
</g>
</g>
<!-- Node1&#45;&gt;Node12 -->
<g id="edge34_Node000001_Node000012" class="edge">
<title>Node1&#45;&gt;Node12</title>
<g id="a_edge34_Node000001_Node000012"><a xlink:title=" ">
<path fill="none" stroke="#63b8ff" d="M72.12,-263.75C89.18,-250.07 115.94,-230.3 142,-218 188.93,-195.85 245.82,-180.44 288.31,-170.94"/>
<polygon fill="#63b8ff" stroke="#63b8ff" points="289.22,-174.32 298.24,-168.77 287.73,-167.49 289.22,-174.32"/>
</a>
</g>
</g>
<!-- Node13 -->
<g id="Node000013" class="node">
<title>Node13</title>
<g id="a_Node000013"><a xlink:href="../../d9/d10/classlci_1_1alloc__device__x.html#a561a0ed83694bc3350a801b629e5bd21" target="_top" xlink:title=" ">
<polygon fill="white" stroke="#666666" points="404.5,-126 298.5,-126 298.5,-96 404.5,-96 404.5,-126"/>
<text text-anchor="start" x="306.5" y="-114" font-family="Helvetica,sans-Serif" font-size="10.00">lci::alloc_device_x</text>
<text text-anchor="middle" x="351.5" y="-103" font-family="Helvetica,sans-Serif" font-size="10.00">::packet_pool</text>
</a>
</g>
</g>
<!-- Node1&#45;&gt;Node13 -->
<g id="edge35_Node000001_Node000013" class="edge">
<title>Node1&#45;&gt;Node13</title>
<g id="a_edge35_Node000001_Node000013"><a xlink:title=" ">
<path fill="none" stroke="#63b8ff" d="M63.08,-263.69C77.19,-241.22 106.46,-199.44 142,-176 186.34,-146.76 244.59,-130.06 288.25,-120.93"/>
<polygon fill="#63b8ff" stroke="#63b8ff" points="289.06,-124.33 298.17,-118.93 287.67,-117.47 289.06,-124.33"/>
</a>
</g>
</g>
<!-- Node14 -->
<g id="Node000014" class="node">
<title>Node14</title>
<g id="a_Node000014"><a xlink:href="../../d9/d10/classlci_1_1alloc__device__x.html#a56912fff6daa357d714dbbf3bf67af85" target="_top" xlink:title=" ">
<polygon fill="white" stroke="#666666" points="404.5,-78 298.5,-78 298.5,-48 404.5,-48 404.5,-78"/>
<text text-anchor="start" x="306.5" y="-66" font-family="Helvetica,sans-Serif" font-size="10.00">lci::alloc_device_x</text>
<text text-anchor="middle" x="351.5" y="-55" font-family="Helvetica,sans-Serif" font-size="10.00">::runtime</text>
</a>
</g>
</g>
<!-- Node1&#45;&gt;Node14 -->
<g id="edge36_Node000001_Node000014" class="edge">
<title>Node1&#45;&gt;Node14</title>
<g id="a_edge36_Node000001_Node000014"><a xlink:title=" ">
<path fill="none" stroke="#63b8ff" d="M58.53,-264C68.49,-233.54 95.23,-164.2 142,-127 184.15,-93.47 243.83,-77.44 288.55,-69.82"/>
<polygon fill="#63b8ff" stroke="#63b8ff" points="289.11,-73.28 298.42,-68.23 287.99,-66.36 289.11,-73.28"/>
</a>
</g>
</g>
<!-- Node15 -->
<g id="Node000015" class="node">
<title>Node15</title>
<g id="a_Node000015"><a xlink:href="../../d9/d10/classlci_1_1alloc__device__x.html#a5508f2d5c851ff147e9f8cd40db1ade3" target="_top" xlink:title=" ">
<polygon fill="white" stroke="#666666" points="404.5,-30 298.5,-30 298.5,0 404.5,0 404.5,-30"/>
<text text-anchor="start" x="306.5" y="-18" font-family="Helvetica,sans-Serif" font-size="10.00">lci::alloc_device_x</text>
<text text-anchor="middle" x="351.5" y="-7" font-family="Helvetica,sans-Serif" font-size="10.00">::user_context</text>
</a>
</g>
</g>
<!-- Node1&#45;&gt;Node15 -->
<g id="edge37_Node000001_Node000015" class="edge">
<title>Node1&#45;&gt;Node15</title>
<g id="a_edge37_Node000001_Node000015"><a xlink:title=" ">
<path fill="none" stroke="#63b8ff" d="M56.06,-263.88C62.02,-226.15 82.8,-127.12 142,-75 182.48,-39.36 242.89,-24.82 288.29,-18.92"/>
<polygon fill="#63b8ff" stroke="#63b8ff" points="288.8,-22.39 298.31,-17.73 287.97,-15.44 288.8,-22.39"/>
</a>
</g>
</g>
<!-- Node3 -->
<g id="Node000003" class="node">
<title>Node3</title>
<g id="a_Node000003"><a xlink:href="../../d9/d10/classlci_1_1alloc__device__x.html#a12e57dde78668d47808506dbd65f011e" target="_top" xlink:title=" ">
<polygon fill="white" stroke="#666666" points="561,-294 455,-294 455,-264 561,-264 561,-294"/>
<text text-anchor="start" x="463" y="-282" font-family="Helvetica,sans-Serif" font-size="10.00">lci::alloc_device_x</text>
<text text-anchor="middle" x="508" y="-271" font-family="Helvetica,sans-Serif" font-size="10.00">::alloc_device_x</text>
</a>
</g>
</g>
<!-- Node2&#45;&gt;Node3 -->
<g id="edge2_Node000002_Node000003" class="edge">
<title>Node2&#45;&gt;Node3</title>
<g id="a_edge2_Node000002_Node000003"><a xlink:title=" ">
<path fill="none" stroke="#63b8ff" d="M407.2,-527.97C411.5,-525.43 415.52,-522.46 419,-519 479.71,-458.6 498.9,-352.89 504.66,-304.5"/>
<polygon fill="#63b8ff" stroke="#63b8ff" points="508.17,-304.6 505.78,-294.28 501.21,-303.84 508.17,-304.6"/>
</a>
</g>
</g>
<!-- Node4&#45;&gt;Node2 -->
<g id="edge4_Node000004_Node000002" class="edge">
<title>Node4&#45;&gt;Node2</title>
<g id="a_edge4_Node000004_Node000002"><a xlink:title=" ">
<path fill="none" stroke="#63b8ff" d="M197.22,-294.28C201.37,-336.15 218.56,-453.89 284,-519 285.09,-520.08 286.23,-521.12 287.41,-522.1"/>
<polygon fill="#63b8ff" stroke="#63b8ff" points="285.6,-525.1 295.8,-527.97 289.61,-519.37 285.6,-525.1"/>
</a>
</g>
</g>
<!-- Node4&#45;&gt;Node5 -->
<g id="edge5_Node000004_Node000005" class="edge">
<title>Node4&#45;&gt;Node5</title>
<g id="a_edge5_Node000004_Node000005"><a xlink:title=" ">
<path fill="none" stroke="#63b8ff" d="M198.76,-294.07C206.1,-329.85 229.35,-420.73 284,-471 285.72,-472.59 287.56,-474.07 289.49,-475.46"/>
<polygon fill="#63b8ff" stroke="#63b8ff" points="288.04,-478.68 298.39,-480.94 291.71,-472.72 288.04,-478.68"/>
</a>
</g>
</g>
<!-- Node4&#45;&gt;Node6 -->
<g id="edge7_Node000004_Node000006" class="edge">
<title>Node4&#45;&gt;Node6</title>
<g id="a_edge7_Node000004_Node000006"><a xlink:title=" ">
<path fill="none" stroke="#63b8ff" d="M201.4,-294.38C212.42,-323.56 240.18,-387.26 284,-423 285.74,-424.42 287.57,-425.76 289.47,-427.02"/>
<polygon fill="#63b8ff" stroke="#63b8ff" points="287.76,-430.08 298.16,-432.08 291.28,-424.03 287.76,-430.08"/>
</a>
</g>
</g>
<!-- Node4&#45;&gt;Node7 -->
<g id="edge9_Node000004_Node000007" class="edge">
<title>Node4&#45;&gt;Node7</title>
<g id="a_edge9_Node000004_Node000007"><a xlink:title=" ">
<path fill="none" stroke="#63b8ff" d="M206.2,-294.09C221.04,-314.99 250.51,-352.69 284,-375 286.39,-376.59 288.91,-378.1 291.5,-379.52"/>
<polygon fill="#63b8ff" stroke="#63b8ff" points="290.03,-382.69 300.54,-384 293.14,-376.42 290.03,-382.69"/>
</a>
</g>
</g>
<!-- Node4&#45;&gt;Node8 -->
<g id="edge11_Node000004_Node000008" class="edge">
<title>Node4&#45;&gt;Node8</title>
<g id="a_edge11_Node000004_Node000008"><a xlink:title=" ">
<path fill="none" stroke="#63b8ff" d="M221.27,-294.13C238.58,-304.16 262.26,-317.22 284,-327 288.01,-328.81 292.2,-330.58 296.45,-332.29"/>
<polygon fill="#63b8ff" stroke="#63b8ff" points="295.18,-335.55 305.77,-335.92 297.72,-329.03 295.18,-335.55"/>
</a>
</g>
</g>
<!-- Node4&#45;&gt;Node9 -->
<g id="edge13_Node000004_Node000009" class="edge">
<title>Node4&#45;&gt;Node9</title>
<g id="a_edge13_Node000004_Node000009"><a xlink:title=" ">
<path fill="none" stroke="#63b8ff" d="M248.31,-287.13C261.14,-289.12 275.01,-291.27 288.26,-293.33"/>
<polygon fill="#63b8ff" stroke="#63b8ff" points="287.83,-296.81 298.25,-294.88 288.9,-289.89 287.83,-296.81"/>
</a>
</g>
</g>
<!-- Node4&#45;&gt;Node10 -->
<g id="edge15_Node000004_Node000010" class="edge">
<title>Node4&#45;&gt;Node10</title>
<g id="a_edge15_Node000004_Node000010"><a xlink:title=" ">
<path fill="none" stroke="#63b8ff" d="M248.31,-270.87C261.14,-268.88 275.01,-266.73 288.26,-264.67"/>
<polygon fill="#63b8ff" stroke="#63b8ff" points="288.9,-268.11 298.25,-263.12 287.83,-261.19 288.9,-268.11"/>
</a>
</g>
</g>
<!-- Node4&#45;&gt;Node11 -->
<g id="edge17_Node000004_Node000011" class="edge">
<title>Node4&#45;&gt;Node11</title>
<g id="a_edge17_Node000004_Node000011"><a xlink:title=" ">
<path fill="none" stroke="#63b8ff" d="M221.27,-263.87C238.58,-253.84 262.26,-240.78 284,-231 288.01,-229.19 292.2,-227.42 296.45,-225.71"/>
<polygon fill="#63b8ff" stroke="#63b8ff" points="297.72,-228.97 305.77,-222.08 295.18,-222.45 297.72,-228.97"/>
</a>
</g>
</g>
<!-- Node4&#45;&gt;Node12 -->
<g id="edge19_Node000004_Node000012" class="edge">
<title>Node4&#45;&gt;Node12</title>
<g id="a_edge19_Node000004_Node000012"><a xlink:title=" ">
<path fill="none" stroke="#63b8ff" d="M206.2,-263.91C221.04,-243.01 250.51,-205.31 284,-183 286.39,-181.41 288.91,-179.9 291.5,-178.48"/>
<polygon fill="#63b8ff" stroke="#63b8ff" points="293.14,-181.58 300.54,-174 290.03,-175.31 293.14,-181.58"/>
</a>
</g>
</g>
<!-- Node4&#45;&gt;Node13 -->
<g id="edge21_Node000004_Node000013" class="edge">
<title>Node4&#45;&gt;Node13</title>
<g id="a_edge21_Node000004_Node000013"><a xlink:title=" ">
<path fill="none" stroke="#63b8ff" d="M201.4,-263.62C212.42,-234.44 240.18,-170.74 284,-135 285.74,-133.58 287.57,-132.24 289.47,-130.98"/>
<polygon fill="#63b8ff" stroke="#63b8ff" points="291.28,-133.97 298.16,-125.92 287.76,-127.92 291.28,-133.97"/>
</a>
</g>
</g>
<!-- Node4&#45;&gt;Node14 -->
<g id="edge23_Node000004_Node000014" class="edge">
<title>Node4&#45;&gt;Node14</title>
<g id="a_edge23_Node000004_Node000014"><a xlink:title=" ">
<path fill="none" stroke="#63b8ff" d="M198.76,-263.93C206.1,-228.15 229.35,-137.27 284,-87 285.72,-85.41 287.56,-83.93 289.49,-82.54"/>
<polygon fill="#63b8ff" stroke="#63b8ff" points="291.71,-85.28 298.39,-77.06 288.04,-79.32 291.71,-85.28"/>
</a>
</g>
</g>
<!-- Node4&#45;&gt;Node15 -->
<g id="edge25_Node000004_Node000015" class="edge">
<title>Node4&#45;&gt;Node15</title>
<g id="a_edge25_Node000004_Node000015"><a xlink:title=" ">
<path fill="none" stroke="#63b8ff" d="M197.22,-263.72C201.37,-221.85 218.56,-104.11 284,-39 285.83,-37.18 287.8,-35.5 289.89,-33.95"/>
<polygon fill="#63b8ff" stroke="#63b8ff" points="291.83,-36.86 298.41,-28.56 288.09,-30.94 291.83,-36.86"/>
</a>
</g>
</g>
<!-- Node5&#45;&gt;Node3 -->
<g id="edge6_Node000005_Node000003" class="edge">
<title>Node5&#45;&gt;Node3</title>
<g id="a_edge6_Node000005_Node000003"><a xlink:title=" ">
<path fill="none" stroke="#63b8ff" d="M404.61,-480.94C409.83,-478.19 414.75,-474.91 419,-471 469.16,-424.85 492.88,-344.49 502.1,-303.93"/>
<polygon fill="#63b8ff" stroke="#63b8ff" points="505.54,-304.58 504.24,-294.07 498.7,-303.1 505.54,-304.58"/>
</a>
</g>
</g>
<!-- Node6&#45;&gt;Node3 -->
<g id="edge8_Node000006_Node000003" class="edge">
<title>Node6&#45;&gt;Node3</title>
<g id="a_edge8_Node000006_Node000003"><a xlink:title=" ">
<path fill="none" stroke="#63b8ff" d="M404.84,-432.08C409.89,-429.5 414.72,-426.49 419,-423 458.54,-390.75 485.01,-335.73 497.89,-303.86"/>
<polygon fill="#63b8ff" stroke="#63b8ff" points="501.21,-304.96 501.6,-294.38 494.7,-302.42 501.21,-304.96"/>
</a>
</g>
</g>
<!-- Node7&#45;&gt;Node3 -->
<g id="edge10_Node000007_Node000003" class="edge">
<title>Node7&#45;&gt;Node3</title>
<g id="a_edge10_Node000007_Node000003"><a xlink:title=" ">
<path fill="none" stroke="#63b8ff" d="M402.46,-384C408.24,-381.39 413.89,-378.4 419,-375 448.44,-355.39 474.76,-323.9 490.78,-302.37"/>
<polygon fill="#63b8ff" stroke="#63b8ff" points="493.75,-304.24 496.8,-294.09 488.09,-300.12 493.75,-304.24"/>
</a>
</g>
</g>
<!-- Node8&#45;&gt;Node3 -->
<g id="edge12_Node000008_Node000003" class="edge">
<title>Node8&#45;&gt;Node3</title>
<g id="a_edge12_Node000008_Node000003"><a xlink:title=" ">
<path fill="none" stroke="#63b8ff" d="M397.23,-335.92C404.58,-333.14 412.06,-330.12 419,-327 437.17,-318.82 456.7,-308.35 472.73,-299.28"/>
<polygon fill="#63b8ff" stroke="#63b8ff" points="474.79,-302.14 481.73,-294.13 471.31,-296.06 474.79,-302.14"/>
</a>
</g>
</g>
<!-- Node9&#45;&gt;Node3 -->
<g id="edge14_Node000009_Node000003" class="edge">
<title>Node9&#45;&gt;Node3</title>
<g id="a_edge14_Node000009_Node000003"><a xlink:title=" ">
<path fill="none" stroke="#63b8ff" d="M404.81,-294.87C417.64,-292.88 431.51,-290.73 444.76,-288.67"/>
<polygon fill="#63b8ff" stroke="#63b8ff" points="445.4,-292.11 454.75,-287.12 444.33,-285.19 445.4,-292.11"/>
</a>
</g>
</g>
<!-- Node10&#45;&gt;Node3 -->
<g id="edge16_Node000010_Node000003" class="edge">
<title>Node10&#45;&gt;Node3</title>
<g id="a_edge16_Node000010_Node000003"><a xlink:title=" ">
<path fill="none" stroke="#63b8ff" d="M404.81,-263.13C417.64,-265.12 431.51,-267.27 444.76,-269.33"/>
<polygon fill="#63b8ff" stroke="#63b8ff" points="444.33,-272.81 454.75,-270.88 445.4,-265.89 444.33,-272.81"/>
</a>
</g>
</g>
<!-- Node11&#45;&gt;Node3 -->
<g id="edge18_Node000011_Node000003" class="edge">
<title>Node11&#45;&gt;Node3</title>
<g id="a_edge18_Node000011_Node000003"><a xlink:title=" ">
<path fill="none" stroke="#63b8ff" d="M397.23,-222.08C404.58,-224.86 412.06,-227.88 419,-231 437.17,-239.18 456.7,-249.65 472.73,-258.72"/>
<polygon fill="#63b8ff" stroke="#63b8ff" points="471.31,-261.94 481.73,-263.87 474.79,-255.86 471.31,-261.94"/>
</a>
</g>
</g>
<!-- Node12&#45;&gt;Node3 -->
<g id="edge20_Node000012_Node000003" class="edge">
<title>Node12&#45;&gt;Node3</title>
<g id="a_edge20_Node000012_Node000003"><a xlink:title=" ">
<path fill="none" stroke="#63b8ff" d="M402.46,-174C408.24,-176.61 413.89,-179.6 419,-183 448.44,-202.61 474.76,-234.1 490.78,-255.63"/>
<polygon fill="#63b8ff" stroke="#63b8ff" points="488.09,-257.88 496.8,-263.91 493.75,-253.76 488.09,-257.88"/>
</a>
</g>
</g>
<!-- Node13&#45;&gt;Node3 -->
<g id="edge22_Node000013_Node000003" class="edge">
<title>Node13&#45;&gt;Node3</title>
<g id="a_edge22_Node000013_Node000003"><a xlink:title=" ">
<path fill="none" stroke="#63b8ff" d="M404.84,-125.92C409.89,-128.5 414.72,-131.51 419,-135 458.54,-167.25 485.01,-222.27 497.89,-254.14"/>
<polygon fill="#63b8ff" stroke="#63b8ff" points="494.7,-255.58 501.6,-263.62 501.21,-253.04 494.7,-255.58"/>
</a>
</g>
</g>
<!-- Node14&#45;&gt;Node3 -->
<g id="edge24_Node000014_Node000003" class="edge">
<title>Node14&#45;&gt;Node3</title>
<g id="a_edge24_Node000014_Node000003"><a xlink:title=" ">
<path fill="none" stroke="#63b8ff" d="M404.61,-77.06C409.83,-79.81 414.75,-83.09 419,-87 469.16,-133.15 492.88,-213.51 502.1,-254.07"/>
<polygon fill="#63b8ff" stroke="#63b8ff" points="498.7,-254.9 504.24,-263.93 505.54,-253.42 498.7,-254.9"/>
</a>
</g>
</g>
<!-- Node15&#45;&gt;Node3 -->
<g id="edge26_Node000015_Node000003" class="edge">
<title>Node15&#45;&gt;Node3</title>
<g id="a_edge26_Node000015_Node000003"><a xlink:title=" ">
<path fill="none" stroke="#63b8ff" d="M404.59,-28.56C409.88,-31.4 414.82,-34.84 419,-39 479.71,-99.4 498.9,-205.11 504.66,-253.5"/>
<polygon fill="#63b8ff" stroke="#63b8ff" points="501.21,-254.16 505.78,-263.72 508.17,-253.4 501.21,-254.16"/>
</a>
</g>
</g>
</g>
</svg>
