<?xml version="1.0" encoding="UTF-8" standalone="no"?>
<!DOCTYPE svg PUBLIC "-//W3C//DTD SVG 1.1//EN"
 "http://www.w3.org/Graphics/SVG/1.1/DTD/svg11.dtd">
<!-- Generated by graphviz version 2.43.0 (0)
 -->
<!-- Title: lci::alloc_device_x::call_impl Pages: 1 -->
<svg width="426pt" height="470pt"
 viewBox="0.00 0.00 426.00 470.00" xmlns="http://www.w3.org/2000/svg" xmlns:xlink="http://www.w3.org/1999/xlink">
<g id="graph0" class="graph" transform="scale(1 1) rotate(0) translate(4 466)">
<title>lci::alloc_device_x::call_impl</title>
<!-- Node1 -->
<g id="Node000001" class="node">
<title>Node1</title>
<g id="a_Node000001"><a xlink:title=" ">
<polygon fill="#999999" stroke="#666666" points="106,-246 0,-246 0,-216 106,-216 106,-246"/>
<text text-anchor="start" x="8" y="-234" font-family="Helvetica,sans-Serif" font-size="10.00">lci::alloc_device_x</text>
<text text-anchor="middle" x="53" y="-223" font-family="Helvetica,sans-Serif" font-size="10.00">::call_impl</text>
</a>
</g>
</g>
<!-- Node2 -->
<g id="Node000002" class="node">
<title>Node2</title>
<g id="a_Node000002"><a xlink:href="../../d9/d10/classlci_1_1alloc__device__x.html#a0364c3bcc9d35c8c2dadd4a683e13b2b" target="_top" xlink:title=" ">
<polygon fill="white" stroke="#666666" points="276,-462 142,-462 142,-432 276,-432 276,-462"/>
<text text-anchor="start" x="150" y="-450" font-family="Helvetica,sans-Serif" font-size="10.00">lci::alloc_device_x</text>
<text text-anchor="middle" x="209" y="-439" font-family="Helvetica,sans-Serif" font-size="10.00">::alloc_default_endpoint</text>
</a>
</g>
</g>
<!-- Node1&#45;&gt;Node2 -->
<g id="edge1_Node000001_Node000002" class="edge">
<title>Node1&#45;&gt;Node2</title>
<g id="a_edge1_Node000001_Node000002"><a xlink:title=" ">
<path fill="none" stroke="#63b8ff" d="M56.77,-246.06C64.12,-281.83 87.41,-372.66 142,-423 143.15,-424.06 144.35,-425.07 145.59,-426.04"/>
<polygon fill="#63b8ff" stroke="#63b8ff" points="144.04,-429.22 154.31,-431.82 147.91,-423.38 144.04,-429.22"/>
</a>
</g>
</g>
<!-- Node4 -->
<g id="Node000004" class="node">
<title>Node4</title>
<g id="a_Node000004"><a xlink:href="../../d9/d10/classlci_1_1alloc__device__x.html#ad24d73c79259e5dcba473f20adad64cd" target="_top" xlink:title=" ">
<polygon fill="white" stroke="#666666" points="262,-414 156,-414 156,-384 262,-384 262,-414"/>
<text text-anchor="start" x="164" y="-402" font-family="Helvetica,sans-Serif" font-size="10.00">lci::alloc_device_x</text>
<text text-anchor="middle" x="209" y="-391" font-family="Helvetica,sans-Serif" font-size="10.00">::ibv_td_strategy</text>
</a>
</g>
</g>
<!-- Node1&#45;&gt;Node4 -->
<g id="edge3_Node000001_Node000004" class="edge">
<title>Node1&#45;&gt;Node4</title>
<g id="a_edge3_Node000001_Node000004"><a xlink:title=" ">
<path fill="none" stroke="#63b8ff" d="M59.41,-246.37C70.44,-275.53 98.23,-339.2 142,-375 143.56,-376.27 145.19,-377.48 146.88,-378.63"/>
<polygon fill="#63b8ff" stroke="#63b8ff" points="145.34,-381.79 155.72,-383.87 148.9,-375.76 145.34,-381.79"/>
</a>
</g>
</g>
<!-- Node5 -->
<g id="Node000005" class="node">
<title>Node5</title>
<g id="a_Node000005"><a xlink:href="../../d9/d10/classlci_1_1alloc__device__x.html#abeaee68a26587c6b359320ab7cc7def1" target="_top" xlink:title=" ">
<polygon fill="white" stroke="#666666" points="262,-366 156,-366 156,-336 262,-336 262,-366"/>
<text text-anchor="start" x="164" y="-354" font-family="Helvetica,sans-Serif" font-size="10.00">lci::alloc_device_x</text>
<text text-anchor="middle" x="209" y="-343" font-family="Helvetica,sans-Serif" font-size="10.00">::net_context</text>
</a>
</g>
</g>
<!-- Node1&#45;&gt;Node5 -->
<g id="edge5_Node000001_Node000005" class="edge">
<title>Node1&#45;&gt;Node5</title>
<g id="a_edge5_Node000001_Node000005"><a xlink:title=" ">
<path fill="none" stroke="#63b8ff" d="M64.21,-246.08C79.06,-266.97 108.53,-304.65 142,-327 144.38,-328.59 146.87,-330.08 149.44,-331.5"/>
<polygon fill="#63b8ff" stroke="#63b8ff" points="147.91,-334.64 158.42,-335.97 151.03,-328.37 147.91,-334.64"/>
</a>
</g>
</g>
<!-- Node6 -->
<g id="Node000006" class="node">
<title>Node6</title>
<g id="a_Node000006"><a xlink:href="../../d9/d10/classlci_1_1alloc__device__x.html#acd2e7ade6e7e4c91b3144bd3068ead07" target="_top" xlink:title=" ">
<polygon fill="white" stroke="#666666" points="262,-318 156,-318 156,-288 262,-288 262,-318"/>
<text text-anchor="start" x="164" y="-306" font-family="Helvetica,sans-Serif" font-size="10.00">lci::alloc_device_x</text>
<text text-anchor="middle" x="209" y="-295" font-family="Helvetica,sans-Serif" font-size="10.00">::net_max_cqes</text>
</a>
</g>
</g>
<!-- Node1&#45;&gt;Node6 -->
<g id="edge7_Node000001_Node000006" class="edge">
<title>Node1&#45;&gt;Node6</title>
<g id="a_edge7_Node000001_Node000006"><a xlink:title=" ">
<path fill="none" stroke="#63b8ff" d="M79.28,-246.11C96.6,-256.13 120.27,-269.19 142,-279 145.88,-280.75 149.92,-282.47 154.02,-284.13"/>
<polygon fill="#63b8ff" stroke="#63b8ff" points="153.02,-287.5 163.61,-287.9 155.58,-280.99 153.02,-287.5"/>
</a>
</g>
</g>
<!-- Node7 -->
<g id="Node000007" class="node">
<title>Node7</title>
<g id="a_Node000007"><a xlink:href="../../d9/d10/classlci_1_1alloc__device__x.html#a4c8c86d9400791bb609b391aef165d68" target="_top" xlink:title=" ">
<polygon fill="white" stroke="#666666" points="262,-270 156,-270 156,-240 262,-240 262,-270"/>
<text text-anchor="start" x="164" y="-258" font-family="Helvetica,sans-Serif" font-size="10.00">lci::alloc_device_x</text>
<text text-anchor="middle" x="209" y="-247" font-family="Helvetica,sans-Serif" font-size="10.00">::net_max_recvs</text>
</a>
</g>
</g>
<!-- Node1&#45;&gt;Node7 -->
<g id="edge9_Node000001_Node000007" class="edge">
<title>Node1&#45;&gt;Node7</title>
<g id="a_edge9_Node000001_Node000007"><a xlink:title=" ">
<path fill="none" stroke="#63b8ff" d="M106.14,-239.13C118.93,-241.12 132.75,-243.27 145.96,-245.33"/>
<polygon fill="#63b8ff" stroke="#63b8ff" points="145.5,-248.8 155.92,-246.88 146.57,-241.88 145.5,-248.8"/>
</a>
</g>
</g>
<!-- Node8 -->
<g id="Node000008" class="node">
<title>Node8</title>
<g id="a_Node000008"><a xlink:href="../../d9/d10/classlci_1_1alloc__device__x.html#afe0d1c701b1611f00c3feaa22bd5f0cd" target="_top" xlink:title=" ">
<polygon fill="white" stroke="#666666" points="262,-222 156,-222 156,-192 262,-192 262,-222"/>
<text text-anchor="start" x="164" y="-210" font-family="Helvetica,sans-Serif" font-size="10.00">lci::alloc_device_x</text>
<text text-anchor="middle" x="209" y="-199" font-family="Helvetica,sans-Serif" font-size="10.00">::net_max_sends</text>
</a>
</g>
</g>
<!-- Node1&#45;&gt;Node8 -->
<g id="edge11_Node000001_Node000008" class="edge">
<title>Node1&#45;&gt;Node8</title>
<g id="a_edge11_Node000001_Node000008"><a xlink:title=" ">
<path fill="none" stroke="#63b8ff" d="M106.14,-222.87C118.93,-220.88 132.75,-218.73 145.96,-216.67"/>
<polygon fill="#63b8ff" stroke="#63b8ff" points="146.57,-220.12 155.92,-215.12 145.5,-213.2 146.57,-220.12"/>
</a>
</g>
</g>
<!-- Node9 -->
<g id="Node000009" class="node">
<title>Node9</title>
<g id="a_Node000009"><a xlink:href="../../d9/d10/classlci_1_1alloc__device__x.html#a7d316853b54b2a870ea35c387c1006e4" target="_top" xlink:title=" ">
<polygon fill="white" stroke="#666666" points="262,-174 156,-174 156,-144 262,-144 262,-174"/>
<text text-anchor="start" x="164" y="-162" font-family="Helvetica,sans-Serif" font-size="10.00">lci::alloc_device_x</text>
<text text-anchor="middle" x="209" y="-151" font-family="Helvetica,sans-Serif" font-size="10.00">::ofi_lock_mode</text>
</a>
</g>
</g>
<!-- Node1&#45;&gt;Node9 -->
<g id="edge13_Node000001_Node000009" class="edge">
<title>Node1&#45;&gt;Node9</title>
<g id="a_edge13_Node000001_Node000009"><a xlink:title=" ">
<path fill="none" stroke="#63b8ff" d="M79.28,-215.89C96.6,-205.87 120.27,-192.81 142,-183 145.88,-181.25 149.92,-179.53 154.02,-177.87"/>
<polygon fill="#63b8ff" stroke="#63b8ff" points="155.58,-181.01 163.61,-174.1 153.02,-174.5 155.58,-181.01"/>
</a>
</g>
</g>
<!-- Node10 -->
<g id="Node000010" class="node">
<title>Node10</title>
<g id="a_Node000010"><a xlink:href="../../d9/d10/classlci_1_1alloc__device__x.html#a561a0ed83694bc3350a801b629e5bd21" target="_top" xlink:title=" ">
<polygon fill="white" stroke="#666666" points="262,-126 156,-126 156,-96 262,-96 262,-126"/>
<text text-anchor="start" x="164" y="-114" font-family="Helvetica,sans-Serif" font-size="10.00">lci::alloc_device_x</text>
<text text-anchor="middle" x="209" y="-103" font-family="Helvetica,sans-Serif" font-size="10.00">::packet_pool</text>
</a>
</g>
</g>
<!-- Node1&#45;&gt;Node10 -->
<g id="edge15_Node000001_Node000010" class="edge">
<title>Node1&#45;&gt;Node10</title>
<g id="a_edge15_Node000001_Node000010"><a xlink:title=" ">
<path fill="none" stroke="#63b8ff" d="M64.21,-215.92C79.06,-195.03 108.53,-157.35 142,-135 144.38,-133.41 146.87,-131.92 149.44,-130.5"/>
<polygon fill="#63b8ff" stroke="#63b8ff" points="151.03,-133.63 158.42,-126.03 147.91,-127.36 151.03,-133.63"/>
</a>
</g>
</g>
<!-- Node11 -->
<g id="Node000011" class="node">
<title>Node11</title>
<g id="a_Node000011"><a xlink:href="../../d9/d10/classlci_1_1alloc__device__x.html#a56912fff6daa357d714dbbf3bf67af85" target="_top" xlink:title=" ">
<polygon fill="white" stroke="#666666" points="262,-78 156,-78 156,-48 262,-48 262,-78"/>
<text text-anchor="start" x="164" y="-66" font-family="Helvetica,sans-Serif" font-size="10.00">lci::alloc_device_x</text>
<text text-anchor="middle" x="209" y="-55" font-family="Helvetica,sans-Serif" font-size="10.00">::runtime</text>
</a>
</g>
</g>
<!-- Node1&#45;&gt;Node11 -->
<g id="edge17_Node000001_Node000011" class="edge">
<title>Node1&#45;&gt;Node11</title>
<g id="a_edge17_Node000001_Node000011"><a xlink:title=" ">
<path fill="none" stroke="#63b8ff" d="M59.41,-215.63C70.44,-186.47 98.23,-122.8 142,-87 143.56,-85.73 145.19,-84.52 146.88,-83.37"/>
<polygon fill="#63b8ff" stroke="#63b8ff" points="148.9,-86.24 155.72,-78.13 145.34,-80.21 148.9,-86.24"/>
</a>
</g>
</g>
<!-- Node12 -->
<g id="Node000012" class="node">
<title>Node12</title>
<g id="a_Node000012"><a xlink:href="../../d9/d10/classlci_1_1alloc__device__x.html#a5508f2d5c851ff147e9f8cd40db1ade3" target="_top" xlink:title=" ">
<polygon fill="white" stroke="#666666" points="262,-30 156,-30 156,0 262,0 262,-30"/>
<text text-anchor="start" x="164" y="-18" font-family="Helvetica,sans-Serif" font-size="10.00">lci::alloc_device_x</text>
<text text-anchor="middle" x="209" y="-7" font-family="Helvetica,sans-Serif" font-size="10.00">::user_context</text>
</a>
</g>
</g>
<!-- Node1&#45;&gt;Node12 -->
<g id="edge19_Node000001_Node000012" class="edge">
<title>Node1&#45;&gt;Node12</title>
<g id="a_edge19_Node000001_Node000012"><a xlink:title=" ">
<path fill="none" stroke="#63b8ff" d="M56.77,-215.94C64.12,-180.17 87.41,-89.34 142,-39 143.68,-37.46 145.46,-36.01 147.32,-34.65"/>
<polygon fill="#63b8ff" stroke="#63b8ff" points="149.31,-37.54 155.95,-29.28 145.61,-31.59 149.31,-37.54"/>
</a>
</g>
</g>
<!-- Node3 -->
<g id="Node000003" class="node">
<title>Node3</title>
<g id="a_Node000003"><a xlink:href="../../d9/d10/classlci_1_1alloc__device__x.html#a12e57dde78668d47808506dbd65f011e" target="_top" xlink:title=" ">
<polygon fill="white" stroke="#666666" points="418,-246 312,-246 312,-216 418,-216 418,-246"/>
<text text-anchor="start" x="320" y="-234" font-family="Helvetica,sans-Serif" font-size="10.00">lci::alloc_device_x</text>
<text text-anchor="middle" x="365" y="-223" font-family="Helvetica,sans-Serif" font-size="10.00">::alloc_device_x</text>
</a>
</g>
</g>
<!-- Node2&#45;&gt;Node3 -->
<g id="edge2_Node000002_Node000003" class="edge">
<title>Node2&#45;&gt;Node3</title>
<g id="a_edge2_Node000002_Node000003"><a xlink:title=" ">
<path fill="none" stroke="#63b8ff" d="M263.69,-431.82C268.13,-429.31 272.33,-426.39 276,-423 326.11,-376.79 349.85,-296.46 359.09,-255.92"/>
<polygon fill="#63b8ff" stroke="#63b8ff" points="362.53,-256.57 361.23,-246.06 355.69,-255.09 362.53,-256.57"/>
</a>
</g>
</g>
<!-- Node4&#45;&gt;Node3 -->
<g id="edge4_Node000004_Node000003" class="edge">
<title>Node4&#45;&gt;Node3</title>
<g id="a_edge4_Node000004_Node000003"><a xlink:title=" ">
<path fill="none" stroke="#63b8ff" d="M262.28,-383.87C267.17,-381.33 271.85,-378.4 276,-375 315.5,-342.7 341.98,-287.7 354.88,-255.84"/>
<polygon fill="#63b8ff" stroke="#63b8ff" points="358.2,-256.95 358.59,-246.37 351.68,-254.4 358.2,-256.95"/>
</a>
</g>
</g>
<!-- Node5&#45;&gt;Node3 -->
<g id="edge6_Node000005_Node000003" class="edge">
<title>Node5&#45;&gt;Node3</title>
<g id="a_edge6_Node000005_Node000003"><a xlink:title=" ">
<path fill="none" stroke="#63b8ff" d="M259.58,-335.97C265.32,-333.36 270.93,-330.39 276,-327 305.41,-307.36 331.74,-275.87 347.77,-254.35"/>
<polygon fill="#63b8ff" stroke="#63b8ff" points="350.74,-256.23 353.79,-246.08 345.08,-252.11 350.74,-256.23"/>
</a>
</g>
</g>
<!-- Node6&#45;&gt;Node3 -->
<g id="edge8_Node000006_Node000003" class="edge">
<title>Node6&#45;&gt;Node3</title>
<g id="a_edge8_Node000006_Node000003"><a xlink:title=" ">
<path fill="none" stroke="#63b8ff" d="M254.39,-287.9C261.69,-285.12 269.11,-282.11 276,-279 294.16,-270.8 313.69,-260.33 329.72,-251.26"/>
<polygon fill="#63b8ff" stroke="#63b8ff" points="331.78,-254.12 338.72,-246.11 328.3,-248.04 331.78,-254.12"/>
</a>
</g>
</g>
<!-- Node7&#45;&gt;Node3 -->
<g id="edge10_Node000007_Node000003" class="edge">
<title>Node7&#45;&gt;Node3</title>
<g id="a_edge10_Node000007_Node000003"><a xlink:title=" ">
<path fill="none" stroke="#63b8ff" d="M262.14,-246.87C274.93,-244.88 288.75,-242.73 301.96,-240.67"/>
<polygon fill="#63b8ff" stroke="#63b8ff" points="302.57,-244.12 311.92,-239.12 301.5,-237.2 302.57,-244.12"/>
</a>
</g>
</g>
<!-- Node8&#45;&gt;Node3 -->
<g id="edge12_Node000008_Node000003" class="edge">
<title>Node8&#45;&gt;Node3</title>
<g id="a_edge12_Node000008_Node000003"><a xlink:title=" ">
<path fill="none" stroke="#63b8ff" d="M262.14,-215.13C274.93,-217.12 288.75,-219.27 301.96,-221.33"/>
<polygon fill="#63b8ff" stroke="#63b8ff" points="301.5,-224.8 311.92,-222.88 302.57,-217.88 301.5,-224.8"/>
</a>
</g>
</g>
<!-- Node9&#45;&gt;Node3 -->
<g id="edge14_Node000009_Node000003" class="edge">
<title>Node9&#45;&gt;Node3</title>
<g id="a_edge14_Node000009_Node000003"><a xlink:title=" ">
<path fill="none" stroke="#63b8ff" d="M254.39,-174.1C261.69,-176.88 269.11,-179.89 276,-183 294.16,-191.2 313.69,-201.67 329.72,-210.74"/>
<polygon fill="#63b8ff" stroke="#63b8ff" points="328.3,-213.96 338.72,-215.89 331.78,-207.88 328.3,-213.96"/>
</a>
</g>
</g>
<!-- Node10&#45;&gt;Node3 -->
<g id="edge16_Node000010_Node000003" class="edge">
<title>Node10&#45;&gt;Node3</title>
<g id="a_edge16_Node000010_Node000003"><a xlink:title=" ">
<path fill="none" stroke="#63b8ff" d="M259.58,-126.03C265.32,-128.64 270.93,-131.61 276,-135 305.41,-154.64 331.74,-186.13 347.77,-207.65"/>
<polygon fill="#63b8ff" stroke="#63b8ff" points="345.08,-209.89 353.79,-215.92 350.74,-205.77 345.08,-209.89"/>
</a>
</g>
</g>
<!-- Node11&#45;&gt;Node3 -->
<g id="edge18_Node000011_Node000003" class="edge">
<title>Node11&#45;&gt;Node3</title>
<g id="a_edge18_Node000011_Node000003"><a xlink:title=" ">
<path fill="none" stroke="#63b8ff" d="M262.28,-78.13C267.17,-80.67 271.85,-83.6 276,-87 315.5,-119.3 341.98,-174.3 354.88,-206.16"/>
<polygon fill="#63b8ff" stroke="#63b8ff" points="351.68,-207.6 358.59,-215.63 358.2,-205.05 351.68,-207.6"/>
</a>
</g>
</g>
<!-- Node12&#45;&gt;Node3 -->
<g id="edge20_Node000012_Node000003" class="edge">
<title>Node12&#45;&gt;Node3</title>
<g id="a_edge20_Node000012_Node000003"><a xlink:title=" ">
<path fill="none" stroke="#63b8ff" d="M262.05,-29.28C267.1,-31.99 271.88,-35.2 276,-39 326.11,-85.21 349.85,-165.54 359.09,-206.08"/>
<polygon fill="#63b8ff" stroke="#63b8ff" points="355.69,-206.91 361.23,-215.94 362.53,-205.43 355.69,-206.91"/>
</a>
</g>
</g>
</g>
</svg>
