<?xml version="1.0" encoding="UTF-8" standalone="no"?>
<!DOCTYPE svg PUBLIC "-//W3C//DTD SVG 1.1//EN"
 "http://www.w3.org/Graphics/SVG/1.1/DTD/svg11.dtd">
<!-- Generated by graphviz version 2.43.0 (0)
 -->
<!-- Title: lci::alloc_device_x::call_impl Pages: 1 -->
<svg width="433pt" height="614pt"
 viewBox="0.00 0.00 433.00 614.00" xmlns="http://www.w3.org/2000/svg" xmlns:xlink="http://www.w3.org/1999/xlink">
<g id="graph0" class="graph" transform="scale(1 1) rotate(0) translate(4 610)">
<title>lci::alloc_device_x::call_impl</title>
<!-- Node1 -->
<g id="Node000001" class="node">
<title>Node1</title>
<g id="a_Node000001"><a xlink:title=" ">
<polygon fill="#999999" stroke="#666666" points="106,-318 0,-318 0,-288 106,-288 106,-318"/>
<text text-anchor="start" x="8" y="-306" font-family="Helvetica,sans-Serif" font-size="10.00">lci::alloc_device_x</text>
<text text-anchor="middle" x="53" y="-295" font-family="Helvetica,sans-Serif" font-size="10.00">::call_impl</text>
</a>
</g>
</g>
<!-- Node2 -->
<g id="Node000002" class="node">
<title>Node2</title>
<g id="a_Node000002"><a xlink:href="../../d9/d10/classlci_1_1alloc__device__x.html#a0364c3bcc9d35c8c2dadd4a683e13b2b" target="_top" xlink:title=" ">
<polygon fill="white" stroke="#666666" points="279.5,-606 145.5,-606 145.5,-576 279.5,-576 279.5,-606"/>
<text text-anchor="start" x="153.5" y="-594" font-family="Helvetica,sans-Serif" font-size="10.00">lci::alloc_device_x</text>
<text text-anchor="middle" x="212.5" y="-583" font-family="Helvetica,sans-Serif" font-size="10.00">::alloc_default_endpoint</text>
</a>
</g>
</g>
<!-- Node1&#45;&gt;Node2 -->
<g id="edge1_Node000001_Node000002" class="edge">
<title>Node1&#45;&gt;Node2</title>
<g id="a_edge1_Node000001_Node000002"><a xlink:title=" ">
<path fill="none" stroke="#63b8ff" d="M54.57,-318.2C57.08,-362.8 70.48,-494.7 142,-567 143.07,-568.08 144.18,-569.11 145.34,-570.09"/>
<polygon fill="#63b8ff" stroke="#63b8ff" points="143.38,-572.99 153.56,-575.93 147.44,-567.28 143.38,-572.99"/>
</a>
</g>
</g>
<!-- Node4 -->
<g id="Node000004" class="node">
<title>Node4</title>
<g id="a_Node000004"><a xlink:href="../../d9/d10/classlci_1_1alloc__device__x.html#ab20e017d5404c44094f5926dfb6d49de" target="_top" xlink:title=" ">
<polygon fill="white" stroke="#666666" points="283,-558 142,-558 142,-528 283,-528 283,-558"/>
<text text-anchor="start" x="150" y="-546" font-family="Helvetica,sans-Serif" font-size="10.00">lci::alloc_device_x</text>
<text text-anchor="middle" x="212.5" y="-535" font-family="Helvetica,sans-Serif" font-size="10.00">::alloc_progress_endpoint</text>
</a>
</g>
</g>
<!-- Node1&#45;&gt;Node4 -->
<g id="edge3_Node000001_Node000004" class="edge">
<title>Node1&#45;&gt;Node4</title>
<g id="a_edge3_Node000001_Node000004"><a xlink:title=" ">
<path fill="none" stroke="#63b8ff" d="M55.87,-318.22C61.46,-357.24 81.58,-461.78 142,-519 143.13,-520.07 144.31,-521.09 145.53,-522.07"/>
<polygon fill="#63b8ff" stroke="#63b8ff" points="143.89,-525.19 154.14,-527.88 147.81,-519.38 143.89,-525.19"/>
</a>
</g>
</g>
<!-- Node5 -->
<g id="Node000005" class="node">
<title>Node5</title>
<g id="a_Node000005"><a xlink:href="../../d9/d10/classlci_1_1alloc__device__x.html#ad24d73c79259e5dcba473f20adad64cd" target="_top" xlink:title=" ">
<polygon fill="white" stroke="#666666" points="265.5,-510 159.5,-510 159.5,-480 265.5,-480 265.5,-510"/>
<text text-anchor="start" x="167.5" y="-498" font-family="Helvetica,sans-Serif" font-size="10.00">lci::alloc_device_x</text>
<text text-anchor="middle" x="212.5" y="-487" font-family="Helvetica,sans-Serif" font-size="10.00">::ibv_td_strategy</text>
</a>
</g>
</g>
<!-- Node1&#45;&gt;Node5 -->
<g id="edge5_Node000001_Node000005" class="edge">
<title>Node1&#45;&gt;Node5</title>
<g id="a_edge5_Node000001_Node000005"><a xlink:title=" ">
<path fill="none" stroke="#63b8ff" d="M57.89,-318.42C66.96,-351.24 92.58,-428.49 142,-471 144.64,-473.27 147.52,-475.34 150.54,-477.21"/>
<polygon fill="#63b8ff" stroke="#63b8ff" points="148.92,-480.31 159.38,-481.98 152.24,-474.15 148.92,-480.31"/>
</a>
</g>
</g>
<!-- Node6 -->
<g id="Node000006" class="node">
<title>Node6</title>
<g id="a_Node000006"><a xlink:href="../../d9/d10/classlci_1_1alloc__device__x.html#a6f0be32f14a934810e8f358b24fe981f" target="_top" xlink:title=" ">
<polygon fill="white" stroke="#666666" points="265.5,-462 159.5,-462 159.5,-432 265.5,-432 265.5,-462"/>
<text text-anchor="start" x="167.5" y="-450" font-family="Helvetica,sans-Serif" font-size="10.00">lci::alloc_device_x</text>
<text text-anchor="middle" x="212.5" y="-439" font-family="Helvetica,sans-Serif" font-size="10.00">::name</text>
</a>
</g>
</g>
<!-- Node1&#45;&gt;Node6 -->
<g id="edge7_Node000001_Node000006" class="edge">
<title>Node1&#45;&gt;Node6</title>
<g id="a_edge7_Node000001_Node000006"><a xlink:title=" ">
<path fill="none" stroke="#63b8ff" d="M61.26,-318.21C74.08,-343.52 103.11,-394.33 142,-423 144.62,-424.93 147.41,-426.72 150.3,-428.36"/>
<polygon fill="#63b8ff" stroke="#63b8ff" points="148.76,-431.5 159.26,-432.91 151.92,-425.26 148.76,-431.5"/>
</a>
</g>
</g>
<!-- Node7 -->
<g id="Node000007" class="node">
<title>Node7</title>
<g id="a_Node000007"><a xlink:href="../../d9/d10/classlci_1_1alloc__device__x.html#abeaee68a26587c6b359320ab7cc7def1" target="_top" xlink:title=" ">
<polygon fill="white" stroke="#666666" points="265.5,-414 159.5,-414 159.5,-384 265.5,-384 265.5,-414"/>
<text text-anchor="start" x="167.5" y="-402" font-family="Helvetica,sans-Serif" font-size="10.00">lci::alloc_device_x</text>
<text text-anchor="middle" x="212.5" y="-391" font-family="Helvetica,sans-Serif" font-size="10.00">::net_context</text>
</a>
</g>
</g>
<!-- Node1&#45;&gt;Node7 -->
<g id="edge9_Node000001_Node000007" class="edge">
<title>Node1&#45;&gt;Node7</title>
<g id="a_edge9_Node000001_Node000007"><a xlink:title=" ">
<path fill="none" stroke="#63b8ff" d="M68.97,-318.1C85.57,-334.11 113.73,-359.22 142,-375 145.05,-376.7 148.23,-378.31 151.5,-379.83"/>
<polygon fill="#63b8ff" stroke="#63b8ff" points="150.28,-383.12 160.85,-383.88 153.06,-376.69 150.28,-383.12"/>
</a>
</g>
</g>
<!-- Node8 -->
<g id="Node000008" class="node">
<title>Node8</title>
<g id="a_Node000008"><a xlink:href="../../d9/d10/classlci_1_1alloc__device__x.html#acd2e7ade6e7e4c91b3144bd3068ead07" target="_top" xlink:title=" ">
<polygon fill="white" stroke="#666666" points="265.5,-366 159.5,-366 159.5,-336 265.5,-336 265.5,-366"/>
<text text-anchor="start" x="167.5" y="-354" font-family="Helvetica,sans-Serif" font-size="10.00">lci::alloc_device_x</text>
<text text-anchor="middle" x="212.5" y="-343" font-family="Helvetica,sans-Serif" font-size="10.00">::net_max_cqes</text>
</a>
</g>
</g>
<!-- Node1&#45;&gt;Node8 -->
<g id="edge11_Node000001_Node000008" class="edge">
<title>Node1&#45;&gt;Node8</title>
<g id="a_edge11_Node000001_Node000008"><a xlink:title=" ">
<path fill="none" stroke="#63b8ff" d="M103.4,-318.06C118.94,-322.79 136.26,-328.07 152.4,-332.99"/>
<polygon fill="#63b8ff" stroke="#63b8ff" points="151.69,-336.43 162.27,-336 153.73,-329.73 151.69,-336.43"/>
</a>
</g>
</g>
<!-- Node9 -->
<g id="Node000009" class="node">
<title>Node9</title>
<g id="a_Node000009"><a xlink:href="../../d9/d10/classlci_1_1alloc__device__x.html#a4c8c86d9400791bb609b391aef165d68" target="_top" xlink:title=" ">
<polygon fill="white" stroke="#666666" points="265.5,-318 159.5,-318 159.5,-288 265.5,-288 265.5,-318"/>
<text text-anchor="start" x="167.5" y="-306" font-family="Helvetica,sans-Serif" font-size="10.00">lci::alloc_device_x</text>
<text text-anchor="middle" x="212.5" y="-295" font-family="Helvetica,sans-Serif" font-size="10.00">::net_max_recvs</text>
</a>
</g>
</g>
<!-- Node1&#45;&gt;Node9 -->
<g id="edge13_Node000001_Node000009" class="edge">
<title>Node1&#45;&gt;Node9</title>
<g id="a_edge13_Node000001_Node000009"><a xlink:title=" ">
<path fill="none" stroke="#63b8ff" d="M106.01,-303C119.78,-303 134.79,-303 149.05,-303"/>
<polygon fill="#63b8ff" stroke="#63b8ff" points="149.28,-306.5 159.28,-303 149.28,-299.5 149.28,-306.5"/>
</a>
</g>
</g>
<!-- Node10 -->
<g id="Node000010" class="node">
<title>Node10</title>
<g id="a_Node000010"><a xlink:href="../../d9/d10/classlci_1_1alloc__device__x.html#afe0d1c701b1611f00c3feaa22bd5f0cd" target="_top" xlink:title=" ">
<polygon fill="white" stroke="#666666" points="265.5,-270 159.5,-270 159.5,-240 265.5,-240 265.5,-270"/>
<text text-anchor="start" x="167.5" y="-258" font-family="Helvetica,sans-Serif" font-size="10.00">lci::alloc_device_x</text>
<text text-anchor="middle" x="212.5" y="-247" font-family="Helvetica,sans-Serif" font-size="10.00">::net_max_sends</text>
</a>
</g>
</g>
<!-- Node1&#45;&gt;Node10 -->
<g id="edge15_Node000001_Node000010" class="edge">
<title>Node1&#45;&gt;Node10</title>
<g id="a_edge15_Node000001_Node000010"><a xlink:title=" ">
<path fill="none" stroke="#63b8ff" d="M103.4,-287.94C118.94,-283.21 136.26,-277.93 152.4,-273.01"/>
<polygon fill="#63b8ff" stroke="#63b8ff" points="153.73,-276.27 162.27,-270 151.69,-269.57 153.73,-276.27"/>
</a>
</g>
</g>
<!-- Node11 -->
<g id="Node000011" class="node">
<title>Node11</title>
<g id="a_Node000011"><a xlink:href="../../d9/d10/classlci_1_1alloc__device__x.html#a9dccb87689be3fb6d329abb8111bdf6c" target="_top" xlink:title=" ">
<polygon fill="white" stroke="#666666" points="280,-222 145,-222 145,-192 280,-192 280,-222"/>
<text text-anchor="start" x="153" y="-210" font-family="Helvetica,sans-Serif" font-size="10.00">lci::alloc_device_x</text>
<text text-anchor="middle" x="212.5" y="-199" font-family="Helvetica,sans-Serif" font-size="10.00">::net_send_reserved_pct</text>
</a>
</g>
</g>
<!-- Node1&#45;&gt;Node11 -->
<g id="edge17_Node000001_Node000011" class="edge">
<title>Node1&#45;&gt;Node11</title>
<g id="a_edge17_Node000001_Node000011"><a xlink:title=" ">
<path fill="none" stroke="#63b8ff" d="M68.97,-287.9C85.57,-271.89 113.73,-246.78 142,-231 145.05,-229.3 148.23,-227.69 151.5,-226.17"/>
<polygon fill="#63b8ff" stroke="#63b8ff" points="153.06,-229.31 160.85,-222.12 150.28,-222.88 153.06,-229.31"/>
</a>
</g>
</g>
<!-- Node12 -->
<g id="Node000012" class="node">
<title>Node12</title>
<g id="a_Node000012"><a xlink:href="../../d9/d10/classlci_1_1alloc__device__x.html#a7d316853b54b2a870ea35c387c1006e4" target="_top" xlink:title=" ">
<polygon fill="white" stroke="#666666" points="265.5,-174 159.5,-174 159.5,-144 265.5,-144 265.5,-174"/>
<text text-anchor="start" x="167.5" y="-162" font-family="Helvetica,sans-Serif" font-size="10.00">lci::alloc_device_x</text>
<text text-anchor="middle" x="212.5" y="-151" font-family="Helvetica,sans-Serif" font-size="10.00">::ofi_lock_mode</text>
</a>
</g>
</g>
<!-- Node1&#45;&gt;Node12 -->
<g id="edge19_Node000001_Node000012" class="edge">
<title>Node1&#45;&gt;Node12</title>
<g id="a_edge19_Node000001_Node000012"><a xlink:title=" ">
<path fill="none" stroke="#63b8ff" d="M61.26,-287.79C74.08,-262.48 103.11,-211.67 142,-183 144.62,-181.07 147.41,-179.28 150.3,-177.64"/>
<polygon fill="#63b8ff" stroke="#63b8ff" points="151.92,-180.74 159.26,-173.09 148.76,-174.5 151.92,-180.74"/>
</a>
</g>
</g>
<!-- Node13 -->
<g id="Node000013" class="node">
<title>Node13</title>
<g id="a_Node000013"><a xlink:href="../../d9/d10/classlci_1_1alloc__device__x.html#a561a0ed83694bc3350a801b629e5bd21" target="_top" xlink:title=" ">
<polygon fill="white" stroke="#666666" points="265.5,-126 159.5,-126 159.5,-96 265.5,-96 265.5,-126"/>
<text text-anchor="start" x="167.5" y="-114" font-family="Helvetica,sans-Serif" font-size="10.00">lci::alloc_device_x</text>
<text text-anchor="middle" x="212.5" y="-103" font-family="Helvetica,sans-Serif" font-size="10.00">::packet_pool</text>
</a>
</g>
</g>
<!-- Node1&#45;&gt;Node13 -->
<g id="edge21_Node000001_Node000013" class="edge">
<title>Node1&#45;&gt;Node13</title>
<g id="a_edge21_Node000001_Node000013"><a xlink:title=" ">
<path fill="none" stroke="#63b8ff" d="M57.89,-287.58C66.96,-254.76 92.58,-177.51 142,-135 144.64,-132.73 147.52,-130.66 150.54,-128.79"/>
<polygon fill="#63b8ff" stroke="#63b8ff" points="152.24,-131.85 159.38,-124.02 148.92,-125.69 152.24,-131.85"/>
</a>
</g>
</g>
<!-- Node14 -->
<g id="Node000014" class="node">
<title>Node14</title>
<g id="a_Node000014"><a xlink:href="../../d9/d10/classlci_1_1alloc__device__x.html#a56912fff6daa357d714dbbf3bf67af85" target="_top" xlink:title=" ">
<polygon fill="white" stroke="#666666" points="265.5,-78 159.5,-78 159.5,-48 265.5,-48 265.5,-78"/>
<text text-anchor="start" x="167.5" y="-66" font-family="Helvetica,sans-Serif" font-size="10.00">lci::alloc_device_x</text>
<text text-anchor="middle" x="212.5" y="-55" font-family="Helvetica,sans-Serif" font-size="10.00">::runtime</text>
</a>
</g>
</g>
<!-- Node1&#45;&gt;Node14 -->
<g id="edge23_Node000001_Node000014" class="edge">
<title>Node1&#45;&gt;Node14</title>
<g id="a_edge23_Node000001_Node000014"><a xlink:title=" ">
<path fill="none" stroke="#63b8ff" d="M55.87,-287.78C61.46,-248.76 81.58,-144.22 142,-87 144.58,-84.56 147.42,-82.36 150.44,-80.39"/>
<polygon fill="#63b8ff" stroke="#63b8ff" points="152.32,-83.34 159.32,-75.39 148.89,-77.24 152.32,-83.34"/>
</a>
</g>
</g>
<!-- Node15 -->
<g id="Node000015" class="node">
<title>Node15</title>
<g id="a_Node000015"><a xlink:href="../../d9/d10/classlci_1_1alloc__device__x.html#a5508f2d5c851ff147e9f8cd40db1ade3" target="_top" xlink:title=" ">
<polygon fill="white" stroke="#666666" points="265.5,-30 159.5,-30 159.5,0 265.5,0 265.5,-30"/>
<text text-anchor="start" x="167.5" y="-18" font-family="Helvetica,sans-Serif" font-size="10.00">lci::alloc_device_x</text>
<text text-anchor="middle" x="212.5" y="-7" font-family="Helvetica,sans-Serif" font-size="10.00">::user_context</text>
</a>
</g>
</g>
<!-- Node1&#45;&gt;Node15 -->
<g id="edge25_Node000001_Node000015" class="edge">
<title>Node1&#45;&gt;Node15</title>
<g id="a_edge25_Node000001_Node000015"><a xlink:title=" ">
<path fill="none" stroke="#63b8ff" d="M54.57,-287.8C57.08,-243.2 70.48,-111.3 142,-39 144.62,-36.35 147.55,-33.99 150.69,-31.89"/>
<polygon fill="#63b8ff" stroke="#63b8ff" points="152.43,-34.92 159.38,-26.92 148.96,-28.85 152.43,-34.92"/>
</a>
</g>
</g>
<!-- Node3 -->
<g id="Node000003" class="node">
<title>Node3</title>
<g id="a_Node000003"><a xlink:href="../../d9/d10/classlci_1_1alloc__device__x.html#a12e57dde78668d47808506dbd65f011e" target="_top" xlink:title=" ">
<polygon fill="white" stroke="#666666" points="425,-318 319,-318 319,-288 425,-288 425,-318"/>
<text text-anchor="start" x="327" y="-306" font-family="Helvetica,sans-Serif" font-size="10.00">lci::alloc_device_x</text>
<text text-anchor="middle" x="372" y="-295" font-family="Helvetica,sans-Serif" font-size="10.00">::alloc_device_x</text>
</a>
</g>
</g>
<!-- Node2&#45;&gt;Node3 -->
<g id="edge2_Node000002_Node000003" class="edge">
<title>Node2&#45;&gt;Node3</title>
<g id="a_edge2_Node000002_Node000003"><a xlink:title=" ">
<path fill="none" stroke="#63b8ff" d="M271.44,-575.93C275.66,-573.4 279.59,-570.45 283,-567 349.77,-499.5 365.89,-380.06 369.77,-328.2"/>
<polygon fill="#63b8ff" stroke="#63b8ff" points="373.26,-328.41 370.43,-318.2 366.28,-327.95 373.26,-328.41"/>
</a>
</g>
</g>
<!-- Node4&#45;&gt;Node3 -->
<g id="edge4_Node000004_Node000003" class="edge">
<title>Node4&#45;&gt;Node3</title>
<g id="a_edge4_Node000004_Node000003"><a xlink:title=" ">
<path fill="none" stroke="#63b8ff" d="M270.86,-527.88C275.26,-525.36 279.39,-522.42 283,-519 338.82,-466.14 360.24,-372.89 367.59,-328.23"/>
<polygon fill="#63b8ff" stroke="#63b8ff" points="371.07,-328.64 369.13,-318.22 364.15,-327.57 371.07,-328.64"/>
</a>
</g>
</g>
<!-- Node5&#45;&gt;Node3 -->
<g id="edge6_Node000005_Node000003" class="edge">
<title>Node5&#45;&gt;Node3</title>
<g id="a_edge6_Node000005_Node000003"><a xlink:title=" ">
<path fill="none" stroke="#63b8ff" d="M265.62,-481.98C271.89,-479.03 277.87,-475.41 283,-471 327.98,-432.31 353.24,-364.84 364.26,-328.28"/>
<polygon fill="#63b8ff" stroke="#63b8ff" points="367.69,-328.99 367.11,-318.42 360.97,-327.05 367.69,-328.99"/>
</a>
</g>
</g>
<!-- Node6&#45;&gt;Node3 -->
<g id="edge8_Node000006_Node000003" class="edge">
<title>Node6&#45;&gt;Node3</title>
<g id="a_edge8_Node000006_Node000003"><a xlink:title=" ">
<path fill="none" stroke="#63b8ff" d="M265.74,-432.91C271.85,-430.14 277.76,-426.86 283,-423 317.63,-397.47 344.45,-354.37 358.96,-327.36"/>
<polygon fill="#63b8ff" stroke="#63b8ff" points="362.22,-328.69 363.74,-318.21 356.01,-325.45 362.22,-328.69"/>
</a>
</g>
</g>
<!-- Node7&#45;&gt;Node3 -->
<g id="edge10_Node000007_Node000003" class="edge">
<title>Node7&#45;&gt;Node3</title>
<g id="a_edge10_Node000007_Node000003"><a xlink:title=" ">
<path fill="none" stroke="#63b8ff" d="M264.15,-383.88C270.65,-381.26 277.09,-378.3 283,-375 307.29,-361.44 331.51,-340.99 348.37,-325.34"/>
<polygon fill="#63b8ff" stroke="#63b8ff" points="351.17,-327.51 356.03,-318.1 346.36,-322.43 351.17,-327.51"/>
</a>
</g>
</g>
<!-- Node8&#45;&gt;Node3 -->
<g id="edge12_Node000008_Node000003" class="edge">
<title>Node8&#45;&gt;Node3</title>
<g id="a_edge12_Node000008_Node000003"><a xlink:title=" ">
<path fill="none" stroke="#63b8ff" d="M262.9,-335.94C278.44,-331.21 295.76,-325.93 311.9,-321.01"/>
<polygon fill="#63b8ff" stroke="#63b8ff" points="313.23,-324.27 321.77,-318 311.19,-317.57 313.23,-324.27"/>
</a>
</g>
</g>
<!-- Node9&#45;&gt;Node3 -->
<g id="edge14_Node000009_Node000003" class="edge">
<title>Node9&#45;&gt;Node3</title>
<g id="a_edge14_Node000009_Node000003"><a xlink:title=" ">
<path fill="none" stroke="#63b8ff" d="M265.51,-303C279.28,-303 294.29,-303 308.55,-303"/>
<polygon fill="#63b8ff" stroke="#63b8ff" points="308.78,-306.5 318.78,-303 308.78,-299.5 308.78,-306.5"/>
</a>
</g>
</g>
<!-- Node10&#45;&gt;Node3 -->
<g id="edge16_Node000010_Node000003" class="edge">
<title>Node10&#45;&gt;Node3</title>
<g id="a_edge16_Node000010_Node000003"><a xlink:title=" ">
<path fill="none" stroke="#63b8ff" d="M262.9,-270.06C278.44,-274.79 295.76,-280.07 311.9,-284.99"/>
<polygon fill="#63b8ff" stroke="#63b8ff" points="311.19,-288.43 321.77,-288 313.23,-281.73 311.19,-288.43"/>
</a>
</g>
</g>
<!-- Node11&#45;&gt;Node3 -->
<g id="edge18_Node000011_Node000003" class="edge">
<title>Node11&#45;&gt;Node3</title>
<g id="a_edge18_Node000011_Node000003"><a xlink:title=" ">
<path fill="none" stroke="#63b8ff" d="M264.15,-222.12C270.65,-224.74 277.09,-227.7 283,-231 307.29,-244.56 331.51,-265.01 348.37,-280.66"/>
<polygon fill="#63b8ff" stroke="#63b8ff" points="346.36,-283.57 356.03,-287.9 351.17,-278.49 346.36,-283.57"/>
</a>
</g>
</g>
<!-- Node12&#45;&gt;Node3 -->
<g id="edge20_Node000012_Node000003" class="edge">
<title>Node12&#45;&gt;Node3</title>
<g id="a_edge20_Node000012_Node000003"><a xlink:title=" ">
<path fill="none" stroke="#63b8ff" d="M265.74,-173.09C271.85,-175.86 277.76,-179.14 283,-183 317.63,-208.53 344.45,-251.63 358.96,-278.64"/>
<polygon fill="#63b8ff" stroke="#63b8ff" points="356.01,-280.55 363.74,-287.79 362.22,-277.31 356.01,-280.55"/>
</a>
</g>
</g>
<!-- Node13&#45;&gt;Node3 -->
<g id="edge22_Node000013_Node000003" class="edge">
<title>Node13&#45;&gt;Node3</title>
<g id="a_edge22_Node000013_Node000003"><a xlink:title=" ">
<path fill="none" stroke="#63b8ff" d="M265.62,-124.02C271.89,-126.97 277.87,-130.59 283,-135 327.98,-173.69 353.24,-241.16 364.26,-277.72"/>
<polygon fill="#63b8ff" stroke="#63b8ff" points="360.97,-278.95 367.11,-287.58 367.69,-277.01 360.97,-278.95"/>
</a>
</g>
</g>
<!-- Node14&#45;&gt;Node3 -->
<g id="edge24_Node000014_Node000003" class="edge">
<title>Node14&#45;&gt;Node3</title>
<g id="a_edge24_Node000014_Node000003"><a xlink:title=" ">
<path fill="none" stroke="#63b8ff" d="M265.68,-75.39C272.01,-78.45 278,-82.26 283,-87 338.82,-139.86 360.24,-233.11 367.59,-277.77"/>
<polygon fill="#63b8ff" stroke="#63b8ff" points="364.15,-278.43 369.13,-287.78 371.07,-277.36 364.15,-278.43"/>
</a>
</g>
</g>
<!-- Node15&#45;&gt;Node3 -->
<g id="edge26_Node000015_Node000003" class="edge">
<title>Node15&#45;&gt;Node3</title>
<g id="a_edge26_Node000015_Node000003"><a xlink:title=" ">
<path fill="none" stroke="#63b8ff" d="M265.62,-26.92C272.04,-30.05 278.06,-34.01 283,-39 349.77,-106.5 365.89,-225.94 369.77,-277.8"/>
<polygon fill="#63b8ff" stroke="#63b8ff" points="366.28,-278.05 370.43,-287.8 373.26,-277.59 366.28,-278.05"/>
</a>
</g>
</g>
</g>
</svg>
