<?xml version="1.0" encoding="UTF-8" standalone="no"?>
<!DOCTYPE svg PUBLIC "-//W3C//DTD SVG 1.1//EN"
 "http://www.w3.org/Graphics/SVG/1.1/DTD/svg11.dtd">
<!-- Generated by graphviz version 2.43.0 (0)
 -->
<!-- Title: lci::alloc_device_x::call Pages: 1 -->
<svg width="575pt" height="614pt"
 viewBox="0.00 0.00 575.00 614.00" xmlns="http://www.w3.org/2000/svg" xmlns:xlink="http://www.w3.org/1999/xlink">
<g id="graph0" class="graph" transform="scale(1 1) rotate(0) translate(4 610)">
<title>lci::alloc_device_x::call</title>
<!-- Node1 -->
<g id="Node000001" class="node">
<title>Node1</title>
<g id="a_Node000001"><a xlink:title=" ">
<polygon fill="#999999" stroke="#666666" points="106,-315 0,-315 0,-285 106,-285 106,-315"/>
<text text-anchor="start" x="8" y="-303" font-family="Helvetica,sans-Serif" font-size="10.00">lci::alloc_device_x</text>
<text text-anchor="middle" x="53" y="-292" font-family="Helvetica,sans-Serif" font-size="10.00">::call</text>
</a>
</g>
</g>
<!-- Node2 -->
<g id="Node000002" class="node">
<title>Node2</title>
<g id="a_Node000002"><a xlink:href="../../d9/d10/classlci_1_1alloc__device__x.html#a0364c3bcc9d35c8c2dadd4a683e13b2b" target="_top" xlink:title=" ">
<polygon fill="white" stroke="#666666" points="421.5,-606 287.5,-606 287.5,-576 421.5,-576 421.5,-606"/>
<text text-anchor="start" x="295.5" y="-594" font-family="Helvetica,sans-Serif" font-size="10.00">lci::alloc_device_x</text>
<text text-anchor="middle" x="354.5" y="-583" font-family="Helvetica,sans-Serif" font-size="10.00">::alloc_default_endpoint</text>
</a>
</g>
</g>
<!-- Node1&#45;&gt;Node2 -->
<g id="edge1_Node000001_Node000002" class="edge">
<title>Node1&#45;&gt;Node2</title>
<g id="a_edge1_Node000001_Node000002"><a xlink:title=" ">
<path fill="none" stroke="#63b8ff" d="M56.62,-315.18C63.75,-352.21 86.78,-448.21 142,-504 178.48,-540.86 232.8,-562.76 277.25,-575.36"/>
<polygon fill="#63b8ff" stroke="#63b8ff" points="276.59,-578.81 287.15,-578.06 278.43,-572.05 276.59,-578.81"/>
</a>
</g>
</g>
<!-- Node4 -->
<g id="Node000004" class="node">
<title>Node4</title>
<g id="a_Node000004"><a xlink:href="../../d9/d10/classlci_1_1alloc__device__x.html#ab20e017d5404c44094f5926dfb6d49de" target="_top" xlink:title=" ">
<polygon fill="white" stroke="#666666" points="425,-558 284,-558 284,-528 425,-528 425,-558"/>
<text text-anchor="start" x="292" y="-546" font-family="Helvetica,sans-Serif" font-size="10.00">lci::alloc_device_x</text>
<text text-anchor="middle" x="354.5" y="-535" font-family="Helvetica,sans-Serif" font-size="10.00">::alloc_progress_endpoint</text>
</a>
</g>
</g>
<!-- Node1&#45;&gt;Node4 -->
<g id="edge3_Node000001_Node000004" class="edge">
<title>Node1&#45;&gt;Node4</title>
<g id="a_edge3_Node000001_Node000004"><a xlink:title=" ">
<path fill="none" stroke="#63b8ff" d="M58.32,-315.28C68.04,-347.09 94.61,-420.95 142,-463 179.05,-495.87 230.96,-515.77 274.07,-527.51"/>
<polygon fill="#63b8ff" stroke="#63b8ff" points="273.42,-530.95 283.98,-530.1 275.19,-524.18 273.42,-530.95"/>
</a>
</g>
</g>
<!-- Node5 -->
<g id="Node000005" class="node">
<title>Node5</title>
<g id="a_Node000005"><a xlink:href="../../d9/d10/classlci_1_1alloc__device__x.html#a3f4864158352a2931293f4b4ca5ddc18" target="_top" xlink:title=" ">
<polygon fill="white" stroke="#666666" points="248,-337 142,-337 142,-307 248,-307 248,-337"/>
<text text-anchor="start" x="150" y="-325" font-family="Helvetica,sans-Serif" font-size="10.00">lci::alloc_device_x</text>
<text text-anchor="middle" x="195" y="-314" font-family="Helvetica,sans-Serif" font-size="10.00">::call_impl</text>
</a>
</g>
</g>
<!-- Node1&#45;&gt;Node5 -->
<g id="edge5_Node000001_Node000005" class="edge">
<title>Node1&#45;&gt;Node5</title>
<g id="a_edge5_Node000001_Node000005"><a xlink:title=" ">
<path fill="none" stroke="#63b8ff" d="M106.13,-308.19C114.51,-309.51 123.26,-310.88 131.85,-312.23"/>
<polygon fill="#63b8ff" stroke="#63b8ff" points="131.4,-315.71 141.83,-313.8 132.49,-308.79 131.4,-315.71"/>
</a>
</g>
</g>
<!-- Node6 -->
<g id="Node000006" class="node">
<title>Node6</title>
<g id="a_Node000006"><a xlink:href="../../d9/d10/classlci_1_1alloc__device__x.html#ad24d73c79259e5dcba473f20adad64cd" target="_top" xlink:title=" ">
<polygon fill="white" stroke="#666666" points="407.5,-510 301.5,-510 301.5,-480 407.5,-480 407.5,-510"/>
<text text-anchor="start" x="309.5" y="-498" font-family="Helvetica,sans-Serif" font-size="10.00">lci::alloc_device_x</text>
<text text-anchor="middle" x="354.5" y="-487" font-family="Helvetica,sans-Serif" font-size="10.00">::ibv_td_strategy</text>
</a>
</g>
</g>
<!-- Node1&#45;&gt;Node6 -->
<g id="edge30_Node000001_Node000006" class="edge">
<title>Node1&#45;&gt;Node6</title>
<g id="a_edge30_Node000001_Node000006"><a xlink:title=" ">
<path fill="none" stroke="#63b8ff" d="M60.65,-315.06C72.95,-341.22 101.72,-395.1 142,-425 186.18,-457.79 246.56,-475.75 291.5,-485.24"/>
<polygon fill="#63b8ff" stroke="#63b8ff" points="290.92,-488.7 301.41,-487.25 292.31,-481.83 290.92,-488.7"/>
</a>
</g>
</g>
<!-- Node7 -->
<g id="Node000007" class="node">
<title>Node7</title>
<g id="a_Node000007"><a xlink:href="../../d9/d10/classlci_1_1alloc__device__x.html#a6f0be32f14a934810e8f358b24fe981f" target="_top" xlink:title=" ">
<polygon fill="white" stroke="#666666" points="407.5,-462 301.5,-462 301.5,-432 407.5,-432 407.5,-462"/>
<text text-anchor="start" x="309.5" y="-450" font-family="Helvetica,sans-Serif" font-size="10.00">lci::alloc_device_x</text>
<text text-anchor="middle" x="354.5" y="-439" font-family="Helvetica,sans-Serif" font-size="10.00">::name</text>
</a>
</g>
</g>
<!-- Node1&#45;&gt;Node7 -->
<g id="edge31_Node000001_Node000007" class="edge">
<title>Node1&#45;&gt;Node7</title>
<g id="a_edge31_Node000001_Node000007"><a xlink:title=" ">
<path fill="none" stroke="#63b8ff" d="M64.33,-315.22C79.11,-335.79 108.27,-372.19 142,-392 187.98,-419 247.23,-432.94 291.31,-440.01"/>
<polygon fill="#63b8ff" stroke="#63b8ff" points="290.91,-443.49 301.32,-441.54 291.97,-436.57 290.91,-443.49"/>
</a>
</g>
</g>
<!-- Node8 -->
<g id="Node000008" class="node">
<title>Node8</title>
<g id="a_Node000008"><a xlink:href="../../d9/d10/classlci_1_1alloc__device__x.html#abeaee68a26587c6b359320ab7cc7def1" target="_top" xlink:title=" ">
<polygon fill="white" stroke="#666666" points="407.5,-414 301.5,-414 301.5,-384 407.5,-384 407.5,-414"/>
<text text-anchor="start" x="309.5" y="-402" font-family="Helvetica,sans-Serif" font-size="10.00">lci::alloc_device_x</text>
<text text-anchor="middle" x="354.5" y="-391" font-family="Helvetica,sans-Serif" font-size="10.00">::net_context</text>
</a>
</g>
</g>
<!-- Node1&#45;&gt;Node8 -->
<g id="edge32_Node000001_Node000008" class="edge">
<title>Node1&#45;&gt;Node8</title>
<g id="a_edge32_Node000001_Node000008"><a xlink:title=" ">
<path fill="none" stroke="#63b8ff" d="M69.41,-315.03C85.93,-330.22 113.63,-353.08 142,-365 189.61,-385.01 247.8,-393.31 291.09,-396.72"/>
<polygon fill="#63b8ff" stroke="#63b8ff" points="290.97,-400.23 301.2,-397.45 291.48,-393.24 290.97,-400.23"/>
</a>
</g>
</g>
<!-- Node9 -->
<g id="Node000009" class="node">
<title>Node9</title>
<g id="a_Node000009"><a xlink:href="../../d9/d10/classlci_1_1alloc__device__x.html#acd2e7ade6e7e4c91b3144bd3068ead07" target="_top" xlink:title=" ">
<polygon fill="white" stroke="#666666" points="407.5,-366 301.5,-366 301.5,-336 407.5,-336 407.5,-366"/>
<text text-anchor="start" x="309.5" y="-354" font-family="Helvetica,sans-Serif" font-size="10.00">lci::alloc_device_x</text>
<text text-anchor="middle" x="354.5" y="-343" font-family="Helvetica,sans-Serif" font-size="10.00">::net_max_cqes</text>
</a>
</g>
</g>
<!-- Node1&#45;&gt;Node9 -->
<g id="edge33_Node000001_Node000009" class="edge">
<title>Node1&#45;&gt;Node9</title>
<g id="a_edge33_Node000001_Node000009"><a xlink:title=" ">
<path fill="none" stroke="#63b8ff" d="M75.99,-315.15C93.12,-326.02 117.96,-339.79 142,-346 190.95,-358.64 248.41,-359.13 291.07,-356.89"/>
<polygon fill="#63b8ff" stroke="#63b8ff" points="291.54,-360.36 301.31,-356.28 291.12,-353.38 291.54,-360.36"/>
</a>
</g>
</g>
<!-- Node10 -->
<g id="Node000010" class="node">
<title>Node10</title>
<g id="a_Node000010"><a xlink:href="../../d9/d10/classlci_1_1alloc__device__x.html#a4c8c86d9400791bb609b391aef165d68" target="_top" xlink:title=" ">
<polygon fill="white" stroke="#666666" points="407.5,-318 301.5,-318 301.5,-288 407.5,-288 407.5,-318"/>
<text text-anchor="start" x="309.5" y="-306" font-family="Helvetica,sans-Serif" font-size="10.00">lci::alloc_device_x</text>
<text text-anchor="middle" x="354.5" y="-295" font-family="Helvetica,sans-Serif" font-size="10.00">::net_max_recvs</text>
</a>
</g>
</g>
<!-- Node1&#45;&gt;Node10 -->
<g id="edge34_Node000001_Node000010" class="edge">
<title>Node1&#45;&gt;Node10</title>
<g id="a_edge34_Node000001_Node000010"><a xlink:title=" ">
<path fill="none" stroke="#63b8ff" d="M106.11,-298.62C117.91,-298.36 130.39,-298.13 142,-298 189.11,-297.46 200.9,-296.88 248,-298 262.01,-298.33 277.07,-298.91 291.29,-299.56"/>
<polygon fill="#63b8ff" stroke="#63b8ff" points="291.31,-303.07 301.47,-300.04 291.64,-296.07 291.31,-303.07"/>
</a>
</g>
</g>
<!-- Node11 -->
<g id="Node000011" class="node">
<title>Node11</title>
<g id="a_Node000011"><a xlink:href="../../d9/d10/classlci_1_1alloc__device__x.html#afe0d1c701b1611f00c3feaa22bd5f0cd" target="_top" xlink:title=" ">
<polygon fill="white" stroke="#666666" points="407.5,-270 301.5,-270 301.5,-240 407.5,-240 407.5,-270"/>
<text text-anchor="start" x="309.5" y="-258" font-family="Helvetica,sans-Serif" font-size="10.00">lci::alloc_device_x</text>
<text text-anchor="middle" x="354.5" y="-247" font-family="Helvetica,sans-Serif" font-size="10.00">::net_max_sends</text>
</a>
</g>
</g>
<!-- Node1&#45;&gt;Node11 -->
<g id="edge35_Node000001_Node000011" class="edge">
<title>Node1&#45;&gt;Node11</title>
<g id="a_edge35_Node000001_Node000011"><a xlink:title=" ">
<path fill="none" stroke="#63b8ff" d="M106.17,-292.16C157.76,-284.41 236.72,-272.55 291.49,-264.32"/>
<polygon fill="#63b8ff" stroke="#63b8ff" points="292.06,-267.77 301.43,-262.82 291.02,-260.85 292.06,-267.77"/>
</a>
</g>
</g>
<!-- Node12 -->
<g id="Node000012" class="node">
<title>Node12</title>
<g id="a_Node000012"><a xlink:href="../../d9/d10/classlci_1_1alloc__device__x.html#a9dccb87689be3fb6d329abb8111bdf6c" target="_top" xlink:title=" ">
<polygon fill="white" stroke="#666666" points="422,-222 287,-222 287,-192 422,-192 422,-222"/>
<text text-anchor="start" x="295" y="-210" font-family="Helvetica,sans-Serif" font-size="10.00">lci::alloc_device_x</text>
<text text-anchor="middle" x="354.5" y="-199" font-family="Helvetica,sans-Serif" font-size="10.00">::net_send_reserved_pct</text>
</a>
</g>
</g>
<!-- Node1&#45;&gt;Node12 -->
<g id="edge36_Node000001_Node000012" class="edge">
<title>Node1&#45;&gt;Node12</title>
<g id="a_edge36_Node000001_Node000012"><a xlink:title=" ">
<path fill="none" stroke="#63b8ff" d="M93.67,-284.93C108.72,-279.38 126.08,-273.18 142,-268 190.44,-252.23 245.79,-236.34 287.71,-224.73"/>
<polygon fill="#63b8ff" stroke="#63b8ff" points="288.81,-228.06 297.52,-222.03 286.95,-221.31 288.81,-228.06"/>
</a>
</g>
</g>
<!-- Node13 -->
<g id="Node000013" class="node">
<title>Node13</title>
<g id="a_Node000013"><a xlink:href="../../d9/d10/classlci_1_1alloc__device__x.html#a7d316853b54b2a870ea35c387c1006e4" target="_top" xlink:title=" ">
<polygon fill="white" stroke="#666666" points="407.5,-174 301.5,-174 301.5,-144 407.5,-144 407.5,-174"/>
<text text-anchor="start" x="309.5" y="-162" font-family="Helvetica,sans-Serif" font-size="10.00">lci::alloc_device_x</text>
<text text-anchor="middle" x="354.5" y="-151" font-family="Helvetica,sans-Serif" font-size="10.00">::ofi_lock_mode</text>
</a>
</g>
</g>
<!-- Node1&#45;&gt;Node13 -->
<g id="edge37_Node000001_Node000013" class="edge">
<title>Node1&#45;&gt;Node13</title>
<g id="a_edge37_Node000001_Node000013"><a xlink:title=" ">
<path fill="none" stroke="#63b8ff" d="M70.06,-284.96C86.89,-269.86 114.65,-246.77 142,-232 189.56,-206.32 247.91,-186.98 291.27,-174.69"/>
<polygon fill="#63b8ff" stroke="#63b8ff" points="292.42,-178 301.12,-171.94 290.54,-171.26 292.42,-178"/>
</a>
</g>
</g>
<!-- Node14 -->
<g id="Node000014" class="node">
<title>Node14</title>
<g id="a_Node000014"><a xlink:href="../../d9/d10/classlci_1_1alloc__device__x.html#a561a0ed83694bc3350a801b629e5bd21" target="_top" xlink:title=" ">
<polygon fill="white" stroke="#666666" points="407.5,-126 301.5,-126 301.5,-96 407.5,-96 407.5,-126"/>
<text text-anchor="start" x="309.5" y="-114" font-family="Helvetica,sans-Serif" font-size="10.00">lci::alloc_device_x</text>
<text text-anchor="middle" x="354.5" y="-103" font-family="Helvetica,sans-Serif" font-size="10.00">::packet_pool</text>
</a>
</g>
</g>
<!-- Node1&#45;&gt;Node14 -->
<g id="edge38_Node000001_Node000014" class="edge">
<title>Node1&#45;&gt;Node14</title>
<g id="a_edge38_Node000001_Node000014"><a xlink:title=" ">
<path fill="none" stroke="#63b8ff" d="M61.87,-284.68C75.17,-260.22 104.37,-212.33 142,-185 186.63,-152.59 246.69,-133.38 291.41,-122.69"/>
<polygon fill="#63b8ff" stroke="#63b8ff" points="292.33,-126.08 301.28,-120.41 290.75,-119.25 292.33,-126.08"/>
</a>
</g>
</g>
<!-- Node15 -->
<g id="Node000015" class="node">
<title>Node15</title>
<g id="a_Node000015"><a xlink:href="../../d9/d10/classlci_1_1alloc__device__x.html#a56912fff6daa357d714dbbf3bf67af85" target="_top" xlink:title=" ">
<polygon fill="white" stroke="#666666" points="407.5,-78 301.5,-78 301.5,-48 407.5,-48 407.5,-78"/>
<text text-anchor="start" x="309.5" y="-66" font-family="Helvetica,sans-Serif" font-size="10.00">lci::alloc_device_x</text>
<text text-anchor="middle" x="354.5" y="-55" font-family="Helvetica,sans-Serif" font-size="10.00">::runtime</text>
</a>
</g>
</g>
<!-- Node1&#45;&gt;Node15 -->
<g id="edge39_Node000001_Node000015" class="edge">
<title>Node1&#45;&gt;Node15</title>
<g id="a_edge39_Node000001_Node000015"><a xlink:title=" ">
<path fill="none" stroke="#63b8ff" d="M57.66,-284.91C66.42,-252.03 91.69,-173.45 142,-131 184.2,-95.39 245.35,-78.34 291.06,-70.23"/>
<polygon fill="#63b8ff" stroke="#63b8ff" points="291.86,-73.64 301.15,-68.54 290.71,-66.74 291.86,-73.64"/>
</a>
</g>
</g>
<!-- Node16 -->
<g id="Node000016" class="node">
<title>Node16</title>
<g id="a_Node000016"><a xlink:href="../../d9/d10/classlci_1_1alloc__device__x.html#a5508f2d5c851ff147e9f8cd40db1ade3" target="_top" xlink:title=" ">
<polygon fill="white" stroke="#666666" points="407.5,-30 301.5,-30 301.5,0 407.5,0 407.5,-30"/>
<text text-anchor="start" x="309.5" y="-18" font-family="Helvetica,sans-Serif" font-size="10.00">lci::alloc_device_x</text>
<text text-anchor="middle" x="354.5" y="-7" font-family="Helvetica,sans-Serif" font-size="10.00">::user_context</text>
</a>
</g>
</g>
<!-- Node1&#45;&gt;Node16 -->
<g id="edge40_Node000001_Node000016" class="edge">
<title>Node1&#45;&gt;Node16</title>
<g id="a_edge40_Node000001_Node000016"><a xlink:title=" ">
<path fill="none" stroke="#63b8ff" d="M55.48,-284.71C60.2,-244.51 78.53,-134.96 142,-77 182.8,-39.74 244.87,-24.79 291.23,-18.83"/>
<polygon fill="#63b8ff" stroke="#63b8ff" points="291.64,-22.31 301.16,-17.66 290.82,-15.36 291.64,-22.31"/>
</a>
</g>
</g>
<!-- Node3 -->
<g id="Node000003" class="node">
<title>Node3</title>
<g id="a_Node000003"><a xlink:href="../../d9/d10/classlci_1_1alloc__device__x.html#a12e57dde78668d47808506dbd65f011e" target="_top" xlink:title=" ">
<polygon fill="white" stroke="#666666" points="567,-318 461,-318 461,-288 567,-288 567,-318"/>
<text text-anchor="start" x="469" y="-306" font-family="Helvetica,sans-Serif" font-size="10.00">lci::alloc_device_x</text>
<text text-anchor="middle" x="514" y="-295" font-family="Helvetica,sans-Serif" font-size="10.00">::alloc_device_x</text>
</a>
</g>
</g>
<!-- Node2&#45;&gt;Node3 -->
<g id="edge2_Node000002_Node000003" class="edge">
<title>Node2&#45;&gt;Node3</title>
<g id="a_edge2_Node000002_Node000003"><a xlink:title=" ">
<path fill="none" stroke="#63b8ff" d="M413.44,-575.93C417.66,-573.4 421.59,-570.45 425,-567 491.77,-499.5 507.89,-380.06 511.77,-328.2"/>
<polygon fill="#63b8ff" stroke="#63b8ff" points="515.26,-328.41 512.43,-318.2 508.28,-327.95 515.26,-328.41"/>
</a>
</g>
</g>
<!-- Node4&#45;&gt;Node3 -->
<g id="edge4_Node000004_Node000003" class="edge">
<title>Node4&#45;&gt;Node3</title>
<g id="a_edge4_Node000004_Node000003"><a xlink:title=" ">
<path fill="none" stroke="#63b8ff" d="M412.86,-527.88C417.26,-525.36 421.39,-522.42 425,-519 480.82,-466.14 502.24,-372.89 509.59,-328.23"/>
<polygon fill="#63b8ff" stroke="#63b8ff" points="513.07,-328.64 511.13,-318.22 506.15,-327.57 513.07,-328.64"/>
</a>
</g>
</g>
<!-- Node5&#45;&gt;Node2 -->
<g id="edge6_Node000005_Node000002" class="edge">
<title>Node5&#45;&gt;Node2</title>
<g id="a_edge6_Node000005_Node000002"><a xlink:title=" ">
<path fill="none" stroke="#63b8ff" d="M197.01,-337.03C200.67,-379.33 216.8,-500.62 284,-567 285.08,-568.07 286.21,-569.08 287.38,-570.06"/>
<polygon fill="#63b8ff" stroke="#63b8ff" points="285.45,-572.98 295.65,-575.85 289.46,-567.24 285.45,-572.98"/>
</a>
</g>
</g>
<!-- Node5&#45;&gt;Node4 -->
<g id="edge7_Node000005_Node000004" class="edge">
<title>Node5&#45;&gt;Node4</title>
<g id="a_edge7_Node000005_Node000004"><a xlink:title=" ">
<path fill="none" stroke="#63b8ff" d="M198.54,-337.23C205.45,-373.86 227.93,-467.64 284,-519 285.29,-520.19 286.65,-521.31 288.06,-522.39"/>
<polygon fill="#63b8ff" stroke="#63b8ff" points="286.31,-525.42 296.6,-527.94 290.13,-519.56 286.31,-525.42"/>
</a>
</g>
</g>
<!-- Node5&#45;&gt;Node6 -->
<g id="edge8_Node000005_Node000006" class="edge">
<title>Node5&#45;&gt;Node6</title>
<g id="a_edge8_Node000005_Node000006"><a xlink:title=" ">
<path fill="none" stroke="#63b8ff" d="M200.88,-337.04C211.32,-366.89 238.63,-433.94 284,-471 286.57,-473.1 289.34,-475.02 292.23,-476.78"/>
<polygon fill="#63b8ff" stroke="#63b8ff" points="290.76,-479.96 301.23,-481.57 294.05,-473.78 290.76,-479.96"/>
</a>
</g>
</g>
<!-- Node5&#45;&gt;Node7 -->
<g id="edge10_Node000005_Node000007" class="edge">
<title>Node5&#45;&gt;Node7</title>
<g id="a_edge10_Node000005_Node000007"><a xlink:title=" ">
<path fill="none" stroke="#63b8ff" d="M205.49,-337.23C219.89,-359.17 249.29,-399.6 284,-423 286.56,-424.73 289.26,-426.34 292.05,-427.85"/>
<polygon fill="#63b8ff" stroke="#63b8ff" points="290.68,-431.08 301.2,-432.32 293.75,-424.79 290.68,-431.08"/>
</a>
</g>
</g>
<!-- Node5&#45;&gt;Node8 -->
<g id="edge12_Node000005_Node000008" class="edge">
<title>Node5&#45;&gt;Node8</title>
<g id="a_edge12_Node000005_Node000008"><a xlink:title=" ">
<path fill="none" stroke="#63b8ff" d="M218.07,-337.07C235.45,-348.5 260.57,-364.05 284,-375 287.84,-376.79 291.85,-378.53 295.92,-380.18"/>
<polygon fill="#63b8ff" stroke="#63b8ff" points="294.91,-383.54 305.49,-383.9 297.44,-377.02 294.91,-383.54"/>
</a>
</g>
</g>
<!-- Node5&#45;&gt;Node9 -->
<g id="edge14_Node000005_Node000009" class="edge">
<title>Node5&#45;&gt;Node9</title>
<g id="a_edge14_Node000005_Node000009"><a xlink:title=" ">
<path fill="none" stroke="#63b8ff" d="M248.01,-331.58C261.78,-334.11 276.79,-336.88 291.05,-339.5"/>
<polygon fill="#63b8ff" stroke="#63b8ff" points="290.81,-343.02 301.28,-341.38 292.08,-336.13 290.81,-343.02"/>
</a>
</g>
</g>
<!-- Node5&#45;&gt;Node10 -->
<g id="edge16_Node000005_Node000010" class="edge">
<title>Node5&#45;&gt;Node10</title>
<g id="a_edge16_Node000005_Node000010"><a xlink:title=" ">
<path fill="none" stroke="#63b8ff" d="M248.01,-315.73C261.78,-314.06 276.79,-312.25 291.05,-310.53"/>
<polygon fill="#63b8ff" stroke="#63b8ff" points="291.77,-313.97 301.28,-309.3 290.93,-307.02 291.77,-313.97"/>
</a>
</g>
</g>
<!-- Node5&#45;&gt;Node11 -->
<g id="edge18_Node000005_Node000011" class="edge">
<title>Node5&#45;&gt;Node11</title>
<g id="a_edge18_Node000005_Node000011"><a xlink:title=" ">
<path fill="none" stroke="#63b8ff" d="M224.53,-306.96C241.55,-298.26 263.74,-287.41 284,-279 288.41,-277.17 293.02,-275.36 297.66,-273.61"/>
<polygon fill="#63b8ff" stroke="#63b8ff" points="299.04,-276.83 307.22,-270.1 296.63,-270.26 299.04,-276.83"/>
</a>
</g>
</g>
<!-- Node5&#45;&gt;Node12 -->
<g id="edge20_Node000005_Node000012" class="edge">
<title>Node5&#45;&gt;Node12</title>
<g id="a_edge20_Node000005_Node000012"><a xlink:title=" ">
<path fill="none" stroke="#63b8ff" d="M206.85,-306.98C222.02,-287 251.38,-251.79 284,-231 286.47,-229.42 289.06,-227.94 291.72,-226.54"/>
<polygon fill="#63b8ff" stroke="#63b8ff" points="293.49,-229.57 301.01,-222.11 290.48,-223.26 293.49,-229.57"/>
</a>
</g>
</g>
<!-- Node5&#45;&gt;Node13 -->
<g id="edge22_Node000005_Node000013" class="edge">
<title>Node5&#45;&gt;Node13</title>
<g id="a_edge22_Node000005_Node000013"><a xlink:title=" ">
<path fill="none" stroke="#63b8ff" d="M201.69,-306.66C213,-278.2 241,-217.03 284,-183 286.6,-180.94 289.39,-179.05 292.31,-177.32"/>
<polygon fill="#63b8ff" stroke="#63b8ff" points="294.12,-180.32 301.35,-172.58 290.87,-174.12 294.12,-180.32"/>
</a>
</g>
</g>
<!-- Node5&#45;&gt;Node14 -->
<g id="edge24_Node000005_Node000014" class="edge">
<title>Node5&#45;&gt;Node14</title>
<g id="a_edge24_Node000005_Node000014"><a xlink:title=" ">
<path fill="none" stroke="#63b8ff" d="M198.95,-306.75C206.58,-271.42 230.21,-183.31 284,-135 286.6,-132.67 289.43,-130.56 292.42,-128.66"/>
<polygon fill="#63b8ff" stroke="#63b8ff" points="294.14,-131.71 301.2,-123.81 290.75,-125.58 294.14,-131.71"/>
</a>
</g>
</g>
<!-- Node5&#45;&gt;Node15 -->
<g id="edge26_Node000005_Node000015" class="edge">
<title>Node5&#45;&gt;Node15</title>
<g id="a_edge26_Node000005_Node000015"><a xlink:title=" ">
<path fill="none" stroke="#63b8ff" d="M197.28,-306.98C201.57,-265.85 219.1,-150.24 284,-87 286.55,-84.52 289.36,-82.29 292.35,-80.3"/>
<polygon fill="#63b8ff" stroke="#63b8ff" points="294.24,-83.25 301.19,-75.26 290.77,-77.17 294.24,-83.25"/>
</a>
</g>
</g>
<!-- Node5&#45;&gt;Node16 -->
<g id="edge28_Node000005_Node000016" class="edge">
<title>Node5&#45;&gt;Node16</title>
<g id="a_edge28_Node000005_Node000016"><a xlink:title=" ">
<path fill="none" stroke="#63b8ff" d="M196.18,-306.73C197.55,-260 208.08,-117.32 284,-39 286.6,-36.32 289.51,-33.94 292.62,-31.83"/>
<polygon fill="#63b8ff" stroke="#63b8ff" points="294.37,-34.86 301.28,-26.83 290.87,-28.8 294.37,-34.86"/>
</a>
</g>
</g>
<!-- Node6&#45;&gt;Node3 -->
<g id="edge9_Node000006_Node000003" class="edge">
<title>Node6&#45;&gt;Node3</title>
<g id="a_edge9_Node000006_Node000003"><a xlink:title=" ">
<path fill="none" stroke="#63b8ff" d="M407.62,-481.98C413.89,-479.03 419.87,-475.41 425,-471 469.98,-432.31 495.24,-364.84 506.26,-328.28"/>
<polygon fill="#63b8ff" stroke="#63b8ff" points="509.69,-328.99 509.11,-318.42 502.97,-327.05 509.69,-328.99"/>
</a>
</g>
</g>
<!-- Node7&#45;&gt;Node3 -->
<g id="edge11_Node000007_Node000003" class="edge">
<title>Node7&#45;&gt;Node3</title>
<g id="a_edge11_Node000007_Node000003"><a xlink:title=" ">
<path fill="none" stroke="#63b8ff" d="M407.74,-432.91C413.85,-430.14 419.76,-426.86 425,-423 459.63,-397.47 486.45,-354.37 500.96,-327.36"/>
<polygon fill="#63b8ff" stroke="#63b8ff" points="504.22,-328.69 505.74,-318.21 498.01,-325.45 504.22,-328.69"/>
</a>
</g>
</g>
<!-- Node8&#45;&gt;Node3 -->
<g id="edge13_Node000008_Node000003" class="edge">
<title>Node8&#45;&gt;Node3</title>
<g id="a_edge13_Node000008_Node000003"><a xlink:title=" ">
<path fill="none" stroke="#63b8ff" d="M406.15,-383.88C412.65,-381.26 419.09,-378.3 425,-375 449.29,-361.44 473.51,-340.99 490.37,-325.34"/>
<polygon fill="#63b8ff" stroke="#63b8ff" points="493.17,-327.51 498.03,-318.1 488.36,-322.43 493.17,-327.51"/>
</a>
</g>
</g>
<!-- Node9&#45;&gt;Node3 -->
<g id="edge15_Node000009_Node000003" class="edge">
<title>Node9&#45;&gt;Node3</title>
<g id="a_edge15_Node000009_Node000003"><a xlink:title=" ">
<path fill="none" stroke="#63b8ff" d="M404.9,-335.94C420.44,-331.21 437.76,-325.93 453.9,-321.01"/>
<polygon fill="#63b8ff" stroke="#63b8ff" points="455.23,-324.27 463.77,-318 453.19,-317.57 455.23,-324.27"/>
</a>
</g>
</g>
<!-- Node10&#45;&gt;Node3 -->
<g id="edge17_Node000010_Node000003" class="edge">
<title>Node10&#45;&gt;Node3</title>
<g id="a_edge17_Node000010_Node000003"><a xlink:title=" ">
<path fill="none" stroke="#63b8ff" d="M407.51,-303C421.28,-303 436.29,-303 450.55,-303"/>
<polygon fill="#63b8ff" stroke="#63b8ff" points="450.78,-306.5 460.78,-303 450.78,-299.5 450.78,-306.5"/>
</a>
</g>
</g>
<!-- Node11&#45;&gt;Node3 -->
<g id="edge19_Node000011_Node000003" class="edge">
<title>Node11&#45;&gt;Node3</title>
<g id="a_edge19_Node000011_Node000003"><a xlink:title=" ">
<path fill="none" stroke="#63b8ff" d="M404.9,-270.06C420.44,-274.79 437.76,-280.07 453.9,-284.99"/>
<polygon fill="#63b8ff" stroke="#63b8ff" points="453.19,-288.43 463.77,-288 455.23,-281.73 453.19,-288.43"/>
</a>
</g>
</g>
<!-- Node12&#45;&gt;Node3 -->
<g id="edge21_Node000012_Node000003" class="edge">
<title>Node12&#45;&gt;Node3</title>
<g id="a_edge21_Node000012_Node000003"><a xlink:title=" ">
<path fill="none" stroke="#63b8ff" d="M406.15,-222.12C412.65,-224.74 419.09,-227.7 425,-231 449.29,-244.56 473.51,-265.01 490.37,-280.66"/>
<polygon fill="#63b8ff" stroke="#63b8ff" points="488.36,-283.57 498.03,-287.9 493.17,-278.49 488.36,-283.57"/>
</a>
</g>
</g>
<!-- Node13&#45;&gt;Node3 -->
<g id="edge23_Node000013_Node000003" class="edge">
<title>Node13&#45;&gt;Node3</title>
<g id="a_edge23_Node000013_Node000003"><a xlink:title=" ">
<path fill="none" stroke="#63b8ff" d="M407.74,-173.09C413.85,-175.86 419.76,-179.14 425,-183 459.63,-208.53 486.45,-251.63 500.96,-278.64"/>
<polygon fill="#63b8ff" stroke="#63b8ff" points="498.01,-280.55 505.74,-287.79 504.22,-277.31 498.01,-280.55"/>
</a>
</g>
</g>
<!-- Node14&#45;&gt;Node3 -->
<g id="edge25_Node000014_Node000003" class="edge">
<title>Node14&#45;&gt;Node3</title>
<g id="a_edge25_Node000014_Node000003"><a xlink:title=" ">
<path fill="none" stroke="#63b8ff" d="M407.62,-124.02C413.89,-126.97 419.87,-130.59 425,-135 469.98,-173.69 495.24,-241.16 506.26,-277.72"/>
<polygon fill="#63b8ff" stroke="#63b8ff" points="502.97,-278.95 509.11,-287.58 509.69,-277.01 502.97,-278.95"/>
</a>
</g>
</g>
<!-- Node15&#45;&gt;Node3 -->
<g id="edge27_Node000015_Node000003" class="edge">
<title>Node15&#45;&gt;Node3</title>
<g id="a_edge27_Node000015_Node000003"><a xlink:title=" ">
<path fill="none" stroke="#63b8ff" d="M407.68,-75.39C414.01,-78.45 420,-82.26 425,-87 480.82,-139.86 502.24,-233.11 509.59,-277.77"/>
<polygon fill="#63b8ff" stroke="#63b8ff" points="506.15,-278.43 511.13,-287.78 513.07,-277.36 506.15,-278.43"/>
</a>
</g>
</g>
<!-- Node16&#45;&gt;Node3 -->
<g id="edge29_Node000016_Node000003" class="edge">
<title>Node16&#45;&gt;Node3</title>
<g id="a_edge29_Node000016_Node000003"><a xlink:title=" ">
<path fill="none" stroke="#63b8ff" d="M407.62,-26.92C414.04,-30.05 420.06,-34.01 425,-39 491.77,-106.5 507.89,-225.94 511.77,-277.8"/>
<polygon fill="#63b8ff" stroke="#63b8ff" points="508.28,-278.05 512.43,-287.8 515.26,-277.59 508.28,-278.05"/>
</a>
</g>
</g>
</g>
</svg>
