<?xml version="1.0" encoding="UTF-8" standalone="no"?>
<!DOCTYPE svg PUBLIC "-//W3C//DTD SVG 1.1//EN"
 "http://www.w3.org/Graphics/SVG/1.1/DTD/svg11.dtd">
<!-- Generated by graphviz version 2.43.0 (0)
 -->
<!-- Title: lci::alloc_device_x::alloc_device_x Pages: 1 -->
<svg width="717pt" height="614pt"
 viewBox="0.00 0.00 717.00 614.00" xmlns="http://www.w3.org/2000/svg" xmlns:xlink="http://www.w3.org/1999/xlink">
<g id="graph0" class="graph" transform="scale(1 1) rotate(0) translate(4 610)">
<title>lci::alloc_device_x::alloc_device_x</title>
<!-- Node1 -->
<g id="Node000001" class="node">
<title>Node1</title>
<g id="a_Node000001"><a xlink:title=" ">
<polygon fill="#999999" stroke="#666666" points="709,-318 603,-318 603,-288 709,-288 709,-318"/>
<text text-anchor="start" x="611" y="-306" font-family="Helvetica,sans-Serif" font-size="10.00">lci::alloc_device_x</text>
<text text-anchor="middle" x="656" y="-295" font-family="Helvetica,sans-Serif" font-size="10.00">::alloc_device_x</text>
</a>
</g>
</g>
<!-- Node2 -->
<g id="Node000002" class="node">
<title>Node2</title>
<g id="a_Node000002"><a xlink:href="../../d9/d10/classlci_1_1alloc__device__x.html#a0364c3bcc9d35c8c2dadd4a683e13b2b" target="_top" xlink:title=" ">
<polygon fill="white" stroke="#666666" points="563.5,-606 429.5,-606 429.5,-576 563.5,-576 563.5,-606"/>
<text text-anchor="start" x="437.5" y="-594" font-family="Helvetica,sans-Serif" font-size="10.00">lci::alloc_device_x</text>
<text text-anchor="middle" x="496.5" y="-583" font-family="Helvetica,sans-Serif" font-size="10.00">::alloc_default_endpoint</text>
</a>
</g>
</g>
<!-- Node1&#45;&gt;Node2 -->
<g id="edge1_Node000001_Node000002" class="edge">
<title>Node1&#45;&gt;Node2</title>
<g id="a_edge1_Node000001_Node000002"><a xlink:title=" ">
<path fill="none" stroke="#63b8ff" d="M653.77,-328.2C649.89,-380.06 633.77,-499.5 567,-567 563.59,-570.45 559.66,-573.4 555.44,-575.93"/>
<polygon fill="#63b8ff" stroke="#63b8ff" points="657.26,-328.41 654.43,-318.2 650.28,-327.95 657.26,-328.41"/>
</a>
</g>
</g>
<!-- Node7 -->
<g id="Node000007" class="node">
<title>Node7</title>
<g id="a_Node000007"><a xlink:href="../../d9/d10/classlci_1_1alloc__device__x.html#ab20e017d5404c44094f5926dfb6d49de" target="_top" xlink:title=" ">
<polygon fill="white" stroke="#666666" points="567,-558 426,-558 426,-528 567,-528 567,-558"/>
<text text-anchor="start" x="434" y="-546" font-family="Helvetica,sans-Serif" font-size="10.00">lci::alloc_device_x</text>
<text text-anchor="middle" x="496.5" y="-535" font-family="Helvetica,sans-Serif" font-size="10.00">::alloc_progress_endpoint</text>
</a>
</g>
</g>
<!-- Node1&#45;&gt;Node7 -->
<g id="edge7_Node000001_Node000007" class="edge">
<title>Node1&#45;&gt;Node7</title>
<g id="a_edge7_Node000001_Node000007"><a xlink:title=" ">
<path fill="none" stroke="#63b8ff" d="M651.59,-328.23C644.24,-372.89 622.82,-466.14 567,-519 563.39,-522.42 559.26,-525.36 554.86,-527.88"/>
<polygon fill="#63b8ff" stroke="#63b8ff" points="655.07,-328.64 653.13,-318.22 648.15,-327.57 655.07,-328.64"/>
</a>
</g>
</g>
<!-- Node8 -->
<g id="Node000008" class="node">
<title>Node8</title>
<g id="a_Node000008"><a xlink:href="../../d9/d10/classlci_1_1alloc__device__x.html#ad24d73c79259e5dcba473f20adad64cd" target="_top" xlink:title=" ">
<polygon fill="white" stroke="#666666" points="549.5,-510 443.5,-510 443.5,-480 549.5,-480 549.5,-510"/>
<text text-anchor="start" x="451.5" y="-498" font-family="Helvetica,sans-Serif" font-size="10.00">lci::alloc_device_x</text>
<text text-anchor="middle" x="496.5" y="-487" font-family="Helvetica,sans-Serif" font-size="10.00">::ibv_td_strategy</text>
</a>
</g>
</g>
<!-- Node1&#45;&gt;Node8 -->
<g id="edge10_Node000001_Node000008" class="edge">
<title>Node1&#45;&gt;Node8</title>
<g id="a_edge10_Node000001_Node000008"><a xlink:title=" ">
<path fill="none" stroke="#63b8ff" d="M648.26,-328.28C637.24,-364.84 611.98,-432.31 567,-471 561.87,-475.41 555.89,-479.03 549.62,-481.98"/>
<polygon fill="#63b8ff" stroke="#63b8ff" points="651.69,-328.99 651.11,-318.42 644.97,-327.05 651.69,-328.99"/>
</a>
</g>
</g>
<!-- Node9 -->
<g id="Node000009" class="node">
<title>Node9</title>
<g id="a_Node000009"><a xlink:href="../../d9/d10/classlci_1_1alloc__device__x.html#a6f0be32f14a934810e8f358b24fe981f" target="_top" xlink:title=" ">
<polygon fill="white" stroke="#666666" points="549.5,-462 443.5,-462 443.5,-432 549.5,-432 549.5,-462"/>
<text text-anchor="start" x="451.5" y="-450" font-family="Helvetica,sans-Serif" font-size="10.00">lci::alloc_device_x</text>
<text text-anchor="middle" x="496.5" y="-439" font-family="Helvetica,sans-Serif" font-size="10.00">::name</text>
</a>
</g>
</g>
<!-- Node1&#45;&gt;Node9 -->
<g id="edge13_Node000001_Node000009" class="edge">
<title>Node1&#45;&gt;Node9</title>
<g id="a_edge13_Node000001_Node000009"><a xlink:title=" ">
<path fill="none" stroke="#63b8ff" d="M642.96,-327.36C628.45,-354.37 601.63,-397.47 567,-423 561.76,-426.86 555.85,-430.14 549.74,-432.91"/>
<polygon fill="#63b8ff" stroke="#63b8ff" points="646.22,-328.69 647.74,-318.21 640.01,-325.45 646.22,-328.69"/>
</a>
</g>
</g>
<!-- Node10 -->
<g id="Node000010" class="node">
<title>Node10</title>
<g id="a_Node000010"><a xlink:href="../../d9/d10/classlci_1_1alloc__device__x.html#abeaee68a26587c6b359320ab7cc7def1" target="_top" xlink:title=" ">
<polygon fill="white" stroke="#666666" points="549.5,-414 443.5,-414 443.5,-384 549.5,-384 549.5,-414"/>
<text text-anchor="start" x="451.5" y="-402" font-family="Helvetica,sans-Serif" font-size="10.00">lci::alloc_device_x</text>
<text text-anchor="middle" x="496.5" y="-391" font-family="Helvetica,sans-Serif" font-size="10.00">::net_context</text>
</a>
</g>
</g>
<!-- Node1&#45;&gt;Node10 -->
<g id="edge16_Node000001_Node000010" class="edge">
<title>Node1&#45;&gt;Node10</title>
<g id="a_edge16_Node000001_Node000010"><a xlink:title=" ">
<path fill="none" stroke="#63b8ff" d="M632.37,-325.34C615.51,-340.99 591.29,-361.44 567,-375 561.09,-378.3 554.65,-381.26 548.15,-383.88"/>
<polygon fill="#63b8ff" stroke="#63b8ff" points="635.17,-327.51 640.03,-318.1 630.36,-322.43 635.17,-327.51"/>
</a>
</g>
</g>
<!-- Node11 -->
<g id="Node000011" class="node">
<title>Node11</title>
<g id="a_Node000011"><a xlink:href="../../d9/d10/classlci_1_1alloc__device__x.html#acd2e7ade6e7e4c91b3144bd3068ead07" target="_top" xlink:title=" ">
<polygon fill="white" stroke="#666666" points="549.5,-366 443.5,-366 443.5,-336 549.5,-336 549.5,-366"/>
<text text-anchor="start" x="451.5" y="-354" font-family="Helvetica,sans-Serif" font-size="10.00">lci::alloc_device_x</text>
<text text-anchor="middle" x="496.5" y="-343" font-family="Helvetica,sans-Serif" font-size="10.00">::net_max_cqes</text>
</a>
</g>
</g>
<!-- Node1&#45;&gt;Node11 -->
<g id="edge19_Node000001_Node000011" class="edge">
<title>Node1&#45;&gt;Node11</title>
<g id="a_edge19_Node000001_Node000011"><a xlink:title=" ">
<path fill="none" stroke="#63b8ff" d="M595.72,-321.07C579.57,-325.99 562.25,-331.27 546.73,-336"/>
<polygon fill="#63b8ff" stroke="#63b8ff" points="597.05,-324.32 605.6,-318.06 595.01,-317.62 597.05,-324.32"/>
</a>
</g>
</g>
<!-- Node12 -->
<g id="Node000012" class="node">
<title>Node12</title>
<g id="a_Node000012"><a xlink:href="../../d9/d10/classlci_1_1alloc__device__x.html#a4c8c86d9400791bb609b391aef165d68" target="_top" xlink:title=" ">
<polygon fill="white" stroke="#666666" points="549.5,-318 443.5,-318 443.5,-288 549.5,-288 549.5,-318"/>
<text text-anchor="start" x="451.5" y="-306" font-family="Helvetica,sans-Serif" font-size="10.00">lci::alloc_device_x</text>
<text text-anchor="middle" x="496.5" y="-295" font-family="Helvetica,sans-Serif" font-size="10.00">::net_max_recvs</text>
</a>
</g>
</g>
<!-- Node1&#45;&gt;Node12 -->
<g id="edge22_Node000001_Node000012" class="edge">
<title>Node1&#45;&gt;Node12</title>
<g id="a_edge22_Node000001_Node000012"><a xlink:title=" ">
<path fill="none" stroke="#63b8ff" d="M592.77,-303C578.52,-303 563.51,-303 549.72,-303"/>
<polygon fill="#63b8ff" stroke="#63b8ff" points="592.99,-306.5 602.99,-303 592.99,-299.5 592.99,-306.5"/>
</a>
</g>
</g>
<!-- Node13 -->
<g id="Node000013" class="node">
<title>Node13</title>
<g id="a_Node000013"><a xlink:href="../../d9/d10/classlci_1_1alloc__device__x.html#afe0d1c701b1611f00c3feaa22bd5f0cd" target="_top" xlink:title=" ">
<polygon fill="white" stroke="#666666" points="549.5,-270 443.5,-270 443.5,-240 549.5,-240 549.5,-270"/>
<text text-anchor="start" x="451.5" y="-258" font-family="Helvetica,sans-Serif" font-size="10.00">lci::alloc_device_x</text>
<text text-anchor="middle" x="496.5" y="-247" font-family="Helvetica,sans-Serif" font-size="10.00">::net_max_sends</text>
</a>
</g>
</g>
<!-- Node1&#45;&gt;Node13 -->
<g id="edge25_Node000001_Node000013" class="edge">
<title>Node1&#45;&gt;Node13</title>
<g id="a_edge25_Node000001_Node000013"><a xlink:title=" ">
<path fill="none" stroke="#63b8ff" d="M595.72,-284.93C579.57,-280.01 562.25,-274.73 546.73,-270"/>
<polygon fill="#63b8ff" stroke="#63b8ff" points="595.01,-288.38 605.6,-287.94 597.05,-281.68 595.01,-288.38"/>
</a>
</g>
</g>
<!-- Node14 -->
<g id="Node000014" class="node">
<title>Node14</title>
<g id="a_Node000014"><a xlink:href="../../d9/d10/classlci_1_1alloc__device__x.html#a9dccb87689be3fb6d329abb8111bdf6c" target="_top" xlink:title=" ">
<polygon fill="white" stroke="#666666" points="564,-222 429,-222 429,-192 564,-192 564,-222"/>
<text text-anchor="start" x="437" y="-210" font-family="Helvetica,sans-Serif" font-size="10.00">lci::alloc_device_x</text>
<text text-anchor="middle" x="496.5" y="-199" font-family="Helvetica,sans-Serif" font-size="10.00">::net_send_reserved_pct</text>
</a>
</g>
</g>
<!-- Node1&#45;&gt;Node14 -->
<g id="edge28_Node000001_Node000014" class="edge">
<title>Node1&#45;&gt;Node14</title>
<g id="a_edge28_Node000001_Node000014"><a xlink:title=" ">
<path fill="none" stroke="#63b8ff" d="M632.37,-280.66C615.51,-265.01 591.29,-244.56 567,-231 561.09,-227.7 554.65,-224.74 548.15,-222.12"/>
<polygon fill="#63b8ff" stroke="#63b8ff" points="630.36,-283.57 640.03,-287.9 635.17,-278.49 630.36,-283.57"/>
</a>
</g>
</g>
<!-- Node15 -->
<g id="Node000015" class="node">
<title>Node15</title>
<g id="a_Node000015"><a xlink:href="../../d9/d10/classlci_1_1alloc__device__x.html#a7d316853b54b2a870ea35c387c1006e4" target="_top" xlink:title=" ">
<polygon fill="white" stroke="#666666" points="549.5,-174 443.5,-174 443.5,-144 549.5,-144 549.5,-174"/>
<text text-anchor="start" x="451.5" y="-162" font-family="Helvetica,sans-Serif" font-size="10.00">lci::alloc_device_x</text>
<text text-anchor="middle" x="496.5" y="-151" font-family="Helvetica,sans-Serif" font-size="10.00">::ofi_lock_mode</text>
</a>
</g>
</g>
<!-- Node1&#45;&gt;Node15 -->
<g id="edge31_Node000001_Node000015" class="edge">
<title>Node1&#45;&gt;Node15</title>
<g id="a_edge31_Node000001_Node000015"><a xlink:title=" ">
<path fill="none" stroke="#63b8ff" d="M642.96,-278.64C628.45,-251.63 601.63,-208.53 567,-183 561.76,-179.14 555.85,-175.86 549.74,-173.09"/>
<polygon fill="#63b8ff" stroke="#63b8ff" points="640.01,-280.55 647.74,-287.79 646.22,-277.31 640.01,-280.55"/>
</a>
</g>
</g>
<!-- Node16 -->
<g id="Node000016" class="node">
<title>Node16</title>
<g id="a_Node000016"><a xlink:href="../../d9/d10/classlci_1_1alloc__device__x.html#a561a0ed83694bc3350a801b629e5bd21" target="_top" xlink:title=" ">
<polygon fill="white" stroke="#666666" points="549.5,-126 443.5,-126 443.5,-96 549.5,-96 549.5,-126"/>
<text text-anchor="start" x="451.5" y="-114" font-family="Helvetica,sans-Serif" font-size="10.00">lci::alloc_device_x</text>
<text text-anchor="middle" x="496.5" y="-103" font-family="Helvetica,sans-Serif" font-size="10.00">::packet_pool</text>
</a>
</g>
</g>
<!-- Node1&#45;&gt;Node16 -->
<g id="edge34_Node000001_Node000016" class="edge">
<title>Node1&#45;&gt;Node16</title>
<g id="a_edge34_Node000001_Node000016"><a xlink:title=" ">
<path fill="none" stroke="#63b8ff" d="M648.26,-277.72C637.24,-241.16 611.98,-173.69 567,-135 561.87,-130.59 555.89,-126.97 549.62,-124.02"/>
<polygon fill="#63b8ff" stroke="#63b8ff" points="644.97,-278.95 651.11,-287.58 651.69,-277.01 644.97,-278.95"/>
</a>
</g>
</g>
<!-- Node17 -->
<g id="Node000017" class="node">
<title>Node17</title>
<g id="a_Node000017"><a xlink:href="../../d9/d10/classlci_1_1alloc__device__x.html#a56912fff6daa357d714dbbf3bf67af85" target="_top" xlink:title=" ">
<polygon fill="white" stroke="#666666" points="549.5,-78 443.5,-78 443.5,-48 549.5,-48 549.5,-78"/>
<text text-anchor="start" x="451.5" y="-66" font-family="Helvetica,sans-Serif" font-size="10.00">lci::alloc_device_x</text>
<text text-anchor="middle" x="496.5" y="-55" font-family="Helvetica,sans-Serif" font-size="10.00">::runtime</text>
</a>
</g>
</g>
<!-- Node1&#45;&gt;Node17 -->
<g id="edge37_Node000001_Node000017" class="edge">
<title>Node1&#45;&gt;Node17</title>
<g id="a_edge37_Node000001_Node000017"><a xlink:title=" ">
<path fill="none" stroke="#63b8ff" d="M651.59,-277.77C644.24,-233.11 622.82,-139.86 567,-87 562,-82.26 556.01,-78.45 549.68,-75.39"/>
<polygon fill="#63b8ff" stroke="#63b8ff" points="648.15,-278.43 653.13,-287.78 655.07,-277.36 648.15,-278.43"/>
</a>
</g>
</g>
<!-- Node18 -->
<g id="Node000018" class="node">
<title>Node18</title>
<g id="a_Node000018"><a xlink:href="../../d9/d10/classlci_1_1alloc__device__x.html#a5508f2d5c851ff147e9f8cd40db1ade3" target="_top" xlink:title=" ">
<polygon fill="white" stroke="#666666" points="549.5,-30 443.5,-30 443.5,0 549.5,0 549.5,-30"/>
<text text-anchor="start" x="451.5" y="-18" font-family="Helvetica,sans-Serif" font-size="10.00">lci::alloc_device_x</text>
<text text-anchor="middle" x="496.5" y="-7" font-family="Helvetica,sans-Serif" font-size="10.00">::user_context</text>
</a>
</g>
</g>
<!-- Node1&#45;&gt;Node18 -->
<g id="edge40_Node000001_Node000018" class="edge">
<title>Node1&#45;&gt;Node18</title>
<g id="a_edge40_Node000001_Node000018"><a xlink:title=" ">
<path fill="none" stroke="#63b8ff" d="M653.77,-277.8C649.89,-225.94 633.77,-106.5 567,-39 562.06,-34.01 556.04,-30.05 549.62,-26.92"/>
<polygon fill="#63b8ff" stroke="#63b8ff" points="650.28,-278.05 654.43,-287.8 657.26,-277.59 650.28,-278.05"/>
</a>
</g>
</g>
<!-- Node3 -->
<g id="Node000003" class="node">
<title>Node3</title>
<g id="a_Node000003"><a xlink:href="../../d9/d10/classlci_1_1alloc__device__x.html#accfc23b8c5a8d782aa772cc509749d14" target="_top" xlink:title=" ">
<polygon fill="white" stroke="#666666" points="248,-313 142,-313 142,-283 248,-283 248,-313"/>
<text text-anchor="start" x="150" y="-301" font-family="Helvetica,sans-Serif" font-size="10.00">lci::alloc_device_x</text>
<text text-anchor="middle" x="195" y="-290" font-family="Helvetica,sans-Serif" font-size="10.00">::call</text>
</a>
</g>
</g>
<!-- Node2&#45;&gt;Node3 -->
<g id="edge2_Node000002_Node000003" class="edge">
<title>Node2&#45;&gt;Node3</title>
<g id="a_edge2_Node000002_Node000003"><a xlink:title=" ">
<path fill="none" stroke="#63b8ff" d="M419.19,-575.02C374.72,-562.21 320.4,-540.06 284,-503 228.77,-446.77 205.74,-350.4 198.62,-313.23"/>
<polygon fill="#63b8ff" stroke="#63b8ff" points="418.53,-578.47 429.1,-577.77 420.4,-571.72 418.53,-578.47"/>
</a>
</g>
</g>
<!-- Node6 -->
<g id="Node000006" class="node">
<title>Node6</title>
<g id="a_Node000006"><a xlink:href="../../d9/d10/classlci_1_1alloc__device__x.html#a3f4864158352a2931293f4b4ca5ddc18" target="_top" xlink:title=" ">
<polygon fill="white" stroke="#666666" points="390,-335 284,-335 284,-305 390,-305 390,-335"/>
<text text-anchor="start" x="292" y="-323" font-family="Helvetica,sans-Serif" font-size="10.00">lci::alloc_device_x</text>
<text text-anchor="middle" x="337" y="-312" font-family="Helvetica,sans-Serif" font-size="10.00">::call_impl</text>
</a>
</g>
</g>
<!-- Node2&#45;&gt;Node6 -->
<g id="edge5_Node000002_Node000006" class="edge">
<title>Node2&#45;&gt;Node6</title>
<g id="a_edge5_Node000002_Node000006"><a xlink:title=" ">
<path fill="none" stroke="#63b8ff" d="M429.37,-570.06C428.2,-569.09 427.08,-568.07 426,-567 358.4,-500.05 342.52,-377.79 338.97,-335.15"/>
<polygon fill="#63b8ff" stroke="#63b8ff" points="427.44,-572.98 437.64,-575.85 431.46,-567.25 427.44,-572.98"/>
</a>
</g>
</g>
<!-- Node4 -->
<g id="Node000004" class="node">
<title>Node4</title>
<g id="a_Node000004"><a xlink:href="../../d5/dd3/namespacelci.html#a1b2bde330a483b62792ab033887af4ab" target="_top" xlink:title=" ">
<polygon fill="white" stroke="#666666" points="100.5,-329.5 5.5,-329.5 5.5,-310.5 100.5,-310.5 100.5,-329.5"/>
<text text-anchor="middle" x="53" y="-317.5" font-family="Helvetica,sans-Serif" font-size="10.00">lci::alloc_device</text>
</a>
</g>
</g>
<!-- Node3&#45;&gt;Node4 -->
<g id="edge3_Node000003_Node000004" class="edge">
<title>Node3&#45;&gt;Node4</title>
<g id="a_edge3_Node000003_Node000004"><a xlink:title=" ">
<path fill="none" stroke="#63b8ff" d="M131.9,-307.76C121.4,-309.41 110.66,-311.1 100.64,-312.67"/>
<polygon fill="#63b8ff" stroke="#63b8ff" points="132.53,-311.2 141.87,-306.19 131.45,-304.29 132.53,-311.2"/>
</a>
</g>
</g>
<!-- Node5 -->
<g id="Node000005" class="node">
<title>Node5</title>
<g id="a_Node000005"><a xlink:href="../../d9/d10/classlci_1_1alloc__device__x.html#ac9b81fdbabe3537b17f464715054d45f" target="_top" xlink:title=" ">
<polygon fill="white" stroke="#666666" points="106,-292 0,-292 0,-262 106,-262 106,-292"/>
<text text-anchor="start" x="8" y="-280" font-family="Helvetica,sans-Serif" font-size="10.00">lci::alloc_device_x</text>
<text text-anchor="middle" x="53" y="-269" font-family="Helvetica,sans-Serif" font-size="10.00">::operator()</text>
</a>
</g>
</g>
<!-- Node3&#45;&gt;Node5 -->
<g id="edge4_Node000003_Node000005" class="edge">
<title>Node3&#45;&gt;Node5</title>
<g id="a_edge4_Node000003_Node000005"><a xlink:title=" ">
<path fill="none" stroke="#63b8ff" d="M131.89,-288.68C123.31,-287.4 114.56,-286.08 106.17,-284.83"/>
<polygon fill="#63b8ff" stroke="#63b8ff" points="131.46,-292.16 141.87,-290.18 132.5,-285.24 131.46,-292.16"/>
</a>
</g>
</g>
<!-- Node6&#45;&gt;Node3 -->
<g id="edge6_Node000006_Node000003" class="edge">
<title>Node6&#45;&gt;Node3</title>
<g id="a_edge6_Node000006_Node000003"><a xlink:title=" ">
<path fill="none" stroke="#63b8ff" d="M273.89,-310.24C265.31,-308.89 256.56,-307.52 248.17,-306.2"/>
<polygon fill="#63b8ff" stroke="#63b8ff" points="273.45,-313.71 283.87,-311.81 274.53,-306.8 273.45,-313.71"/>
</a>
</g>
</g>
<!-- Node7&#45;&gt;Node3 -->
<g id="edge8_Node000007_Node000003" class="edge">
<title>Node7&#45;&gt;Node3</title>
<g id="a_edge8_Node000007_Node000003"><a xlink:title=" ">
<path fill="none" stroke="#63b8ff" d="M416.01,-527.16C372.87,-515.23 320.97,-495.08 284,-462 236.57,-419.55 210.02,-345.32 200.31,-313.35"/>
<polygon fill="#63b8ff" stroke="#63b8ff" points="415.35,-530.61 425.92,-529.8 417.16,-523.84 415.35,-530.61"/>
</a>
</g>
</g>
<!-- Node7&#45;&gt;Node6 -->
<g id="edge9_Node000007_Node000006" class="edge">
<title>Node7&#45;&gt;Node6</title>
<g id="a_edge9_Node000007_Node000006"><a xlink:title=" ">
<path fill="none" stroke="#63b8ff" d="M430.05,-522.39C428.65,-521.32 427.29,-520.19 426,-519 369.41,-466.97 347.18,-371.91 340.45,-335.11"/>
<polygon fill="#63b8ff" stroke="#63b8ff" points="428.3,-525.43 438.59,-527.96 432.12,-519.56 428.3,-525.43"/>
</a>
</g>
</g>
<!-- Node8&#45;&gt;Node3 -->
<g id="edge11_Node000008_Node000003" class="edge">
<title>Node8&#45;&gt;Node3</title>
<g id="a_edge11_Node000008_Node000003"><a xlink:title=" ">
<path fill="none" stroke="#63b8ff" d="M433.46,-484.96C388.5,-475.26 328.11,-457.01 284,-424 243.63,-393.78 214.9,-339.51 202.63,-313.16"/>
<polygon fill="#63b8ff" stroke="#63b8ff" points="432.88,-488.41 443.38,-487.01 434.3,-481.56 432.88,-488.41"/>
</a>
</g>
</g>
<!-- Node8&#45;&gt;Node6 -->
<g id="edge12_Node000008_Node000006" class="edge">
<title>Node8&#45;&gt;Node6</title>
<g id="a_edge12_Node000008_Node000006"><a xlink:title=" ">
<path fill="none" stroke="#63b8ff" d="M434.21,-476.79C431.32,-475.03 428.56,-473.11 426,-471 380.29,-433.44 353.16,-365.49 342.82,-335.24"/>
<polygon fill="#63b8ff" stroke="#63b8ff" points="432.74,-479.97 443.21,-481.6 436.04,-473.8 432.74,-479.97"/>
</a>
</g>
</g>
<!-- Node9&#45;&gt;Node3 -->
<g id="edge14_Node000009_Node000003" class="edge">
<title>Node9&#45;&gt;Node3</title>
<g id="a_edge14_Node000009_Node000003"><a xlink:title=" ">
<path fill="none" stroke="#63b8ff" d="M433.26,-439.74C389.15,-432.47 329.9,-418.26 284,-391 249.98,-370.8 220.73,-333.73 206.06,-313.01"/>
<polygon fill="#63b8ff" stroke="#63b8ff" points="432.86,-443.22 443.28,-441.31 433.94,-436.3 432.86,-443.22"/>
</a>
</g>
</g>
<!-- Node9&#45;&gt;Node6 -->
<g id="edge15_Node000009_Node000006" class="edge">
<title>Node9&#45;&gt;Node6</title>
<g id="a_edge15_Node000009_Node000006"><a xlink:title=" ">
<path fill="none" stroke="#63b8ff" d="M434.03,-427.88C431.25,-426.37 428.55,-424.74 426,-423 390.82,-399.03 361.4,-357.47 347.18,-335.17"/>
<polygon fill="#63b8ff" stroke="#63b8ff" points="432.65,-431.1 443.16,-432.37 435.73,-424.82 432.65,-431.1"/>
</a>
</g>
</g>
<!-- Node10&#45;&gt;Node3 -->
<g id="edge17_Node000010_Node000003" class="edge">
<title>Node10&#45;&gt;Node3</title>
<g id="a_edge17_Node000010_Node000003"><a xlink:title=" ">
<path fill="none" stroke="#63b8ff" d="M433.04,-396.48C389.73,-392.88 331.53,-384.3 284,-364 255.55,-351.85 227.87,-328.64 211.37,-313.24"/>
<polygon fill="#63b8ff" stroke="#63b8ff" points="432.91,-399.98 443.15,-397.25 433.45,-393 432.91,-399.98"/>
</a>
</g>
</g>
<!-- Node10&#45;&gt;Node6 -->
<g id="edge18_Node000010_Node000006" class="edge">
<title>Node10&#45;&gt;Node6</title>
<g id="a_edge18_Node000010_Node000006"><a xlink:title=" ">
<path fill="none" stroke="#63b8ff" d="M437.68,-380.17C433.69,-378.52 429.76,-376.79 426,-375 402.1,-363.59 376.63,-347.15 359.28,-335.21"/>
<polygon fill="#63b8ff" stroke="#63b8ff" points="436.49,-383.46 447.08,-383.86 439.05,-376.95 436.49,-383.46"/>
</a>
</g>
</g>
<!-- Node11&#45;&gt;Node3 -->
<g id="edge20_Node000011_Node000003" class="edge">
<title>Node11&#45;&gt;Node3</title>
<g id="a_edge20_Node000011_Node000003"><a xlink:title=" ">
<path fill="none" stroke="#63b8ff" d="M433.04,-356.15C390.37,-357.93 332.91,-356.87 284,-344 259.99,-337.68 235.15,-323.92 218.01,-313.08"/>
<polygon fill="#63b8ff" stroke="#63b8ff" points="433.46,-359.63 443.29,-355.66 433.13,-352.64 433.46,-359.63"/>
</a>
</g>
</g>
<!-- Node11&#45;&gt;Node6 -->
<g id="edge21_Node000011_Node000006" class="edge">
<title>Node11&#45;&gt;Node6</title>
<g id="a_edge21_Node000011_Node000006"><a xlink:title=" ">
<path fill="none" stroke="#63b8ff" d="M433.27,-338.75C419.02,-335.95 404.01,-332.99 390.22,-330.28"/>
<polygon fill="#63b8ff" stroke="#63b8ff" points="433,-342.27 443.49,-340.76 434.36,-335.4 433,-342.27"/>
</a>
</g>
</g>
<!-- Node12&#45;&gt;Node3 -->
<g id="edge23_Node000012_Node000003" class="edge">
<title>Node12&#45;&gt;Node3</title>
<g id="a_edge23_Node000012_Node000003"><a xlink:title=" ">
<path fill="none" stroke="#63b8ff" d="M433.3,-298.19C419.08,-297.28 404.02,-296.46 390,-296 342.91,-294.44 331.11,-295.46 284,-296 272.39,-296.13 259.91,-296.36 248.11,-296.62"/>
<polygon fill="#63b8ff" stroke="#63b8ff" points="433.27,-301.69 443.48,-298.86 433.74,-294.71 433.27,-301.69"/>
</a>
</g>
</g>
<!-- Node12&#45;&gt;Node6 -->
<g id="edge24_Node000012_Node000006" class="edge">
<title>Node12&#45;&gt;Node6</title>
<g id="a_edge24_Node000012_Node000006"><a xlink:title=" ">
<path fill="none" stroke="#63b8ff" d="M433.27,-309.72C419.02,-311.26 404.01,-312.88 390.22,-314.36"/>
<polygon fill="#63b8ff" stroke="#63b8ff" points="433.93,-313.17 443.49,-308.61 433.17,-306.21 433.93,-313.17"/>
</a>
</g>
</g>
<!-- Node13&#45;&gt;Node3 -->
<g id="edge26_Node000013_Node000003" class="edge">
<title>Node13&#45;&gt;Node3</title>
<g id="a_edge26_Node000013_Node000003"><a xlink:title=" ">
<path fill="none" stroke="#63b8ff" d="M433.39,-263.92C378.59,-271.78 299.63,-283.12 248.07,-290.52"/>
<polygon fill="#63b8ff" stroke="#63b8ff" points="433.93,-267.38 443.33,-262.49 432.94,-260.45 433.93,-267.38"/>
</a>
</g>
</g>
<!-- Node13&#45;&gt;Node6 -->
<g id="edge27_Node000013_Node000006" class="edge">
<title>Node13&#45;&gt;Node6</title>
<g id="a_edge27_Node000013_Node000006"><a xlink:title=" ">
<path fill="none" stroke="#63b8ff" d="M439.92,-273.61C435.19,-275.37 430.5,-277.18 426,-279 406.47,-286.9 385.03,-296.86 368.2,-304.98"/>
<polygon fill="#63b8ff" stroke="#63b8ff" points="441.44,-276.79 449.64,-270.08 439.05,-270.21 441.44,-276.79"/>
</a>
</g>
</g>
<!-- Node14&#45;&gt;Node3 -->
<g id="edge29_Node000014_Node000003" class="edge">
<title>Node14&#45;&gt;Node3</title>
<g id="a_edge29_Node000014_Node000003"><a xlink:title=" ">
<path fill="none" stroke="#63b8ff" d="M428.87,-224.76C387.07,-236.18 332.16,-251.7 284,-267 268.56,-271.9 251.76,-277.71 237.01,-282.96"/>
<polygon fill="#63b8ff" stroke="#63b8ff" points="429.93,-228.1 438.66,-222.09 428.09,-221.34 429.93,-228.1"/>
</a>
</g>
</g>
<!-- Node14&#45;&gt;Node6 -->
<g id="edge30_Node000014_Node000006" class="edge">
<title>Node14&#45;&gt;Node6</title>
<g id="a_edge30_Node000014_Node000006"><a xlink:title=" ">
<path fill="none" stroke="#63b8ff" d="M434.18,-226.35C431.36,-227.8 428.62,-229.35 426,-231 393.82,-251.26 364.51,-285.41 349.19,-304.99"/>
<polygon fill="#63b8ff" stroke="#63b8ff" points="435.85,-229.43 443.41,-222.01 432.87,-223.09 435.85,-229.43"/>
</a>
</g>
</g>
<!-- Node15&#45;&gt;Node3 -->
<g id="edge32_Node000015_Node000003" class="edge">
<title>Node15&#45;&gt;Node3</title>
<g id="a_edge32_Node000015_Node000003"><a xlink:title=" ">
<path fill="none" stroke="#63b8ff" d="M433.38,-174.9C390.08,-187.3 331.75,-206.66 284,-232 257.18,-246.23 229.73,-268.25 212.78,-282.88"/>
<polygon fill="#63b8ff" stroke="#63b8ff" points="434.54,-178.21 443.22,-172.13 432.64,-171.48 434.54,-178.21"/>
</a>
</g>
</g>
<!-- Node15&#45;&gt;Node6 -->
<g id="edge33_Node000015_Node000006" class="edge">
<title>Node15&#45;&gt;Node6</title>
<g id="a_edge33_Node000015_Node000006"><a xlink:title=" ">
<path fill="none" stroke="#63b8ff" d="M434.32,-177.34C431.41,-179.07 428.61,-180.95 426,-183 383.33,-216.54 355.16,-276.83 343.75,-304.88"/>
<polygon fill="#63b8ff" stroke="#63b8ff" points="436.13,-180.35 443.38,-172.62 432.89,-174.14 436.13,-180.35"/>
</a>
</g>
</g>
<!-- Node16&#45;&gt;Node3 -->
<g id="edge35_Node000016_Node000003" class="edge">
<title>Node16&#45;&gt;Node3</title>
<g id="a_edge35_Node000016_Node000003"><a xlink:title=" ">
<path fill="none" stroke="#63b8ff" d="M433.49,-122.81C388.82,-133.55 328.76,-152.78 284,-185 246.66,-211.87 217.33,-258.92 203.94,-282.95"/>
<polygon fill="#63b8ff" stroke="#63b8ff" points="434.41,-126.19 443.35,-120.51 432.82,-119.37 434.41,-126.19"/>
</a>
</g>
</g>
<!-- Node16&#45;&gt;Node6 -->
<g id="edge36_Node000016_Node000006" class="edge">
<title>Node16&#45;&gt;Node6</title>
<g id="a_edge36_Node000016_Node000006"><a xlink:title=" ">
<path fill="none" stroke="#63b8ff" d="M434.43,-128.67C431.44,-130.57 428.6,-132.67 426,-135 372.58,-182.77 348.73,-269.96 341,-304.91"/>
<polygon fill="#63b8ff" stroke="#63b8ff" points="436.15,-131.72 443.22,-123.83 432.77,-125.59 436.15,-131.72"/>
</a>
</g>
</g>
<!-- Node17&#45;&gt;Node3 -->
<g id="edge38_Node000017_Node000003" class="edge">
<title>Node17&#45;&gt;Node3</title>
<g id="a_edge38_Node000017_Node000003"><a xlink:title=" ">
<path fill="none" stroke="#63b8ff" d="M433.11,-70.29C387.43,-78.43 326.29,-95.49 284,-131 234.31,-172.73 208.84,-249.81 199.85,-282.59"/>
<polygon fill="#63b8ff" stroke="#63b8ff" points="433.91,-73.7 443.19,-68.59 432.75,-66.8 433.91,-73.7"/>
</a>
</g>
</g>
<!-- Node17&#45;&gt;Node6 -->
<g id="edge39_Node000017_Node000006" class="edge">
<title>Node17&#45;&gt;Node6</title>
<g id="a_edge39_Node000017_Node000006"><a xlink:title=" ">
<path fill="none" stroke="#63b8ff" d="M434.36,-80.31C431.37,-82.3 428.55,-84.52 426,-87 361.65,-149.53 343.8,-263.77 339.35,-304.81"/>
<polygon fill="#63b8ff" stroke="#63b8ff" points="436.25,-83.26 443.21,-75.27 432.78,-77.18 436.25,-83.26"/>
</a>
</g>
</g>
<!-- Node18&#45;&gt;Node3 -->
<g id="edge41_Node000018_Node000003" class="edge">
<title>Node18&#45;&gt;Node3</title>
<g id="a_edge41_Node000018_Node000003"><a xlink:title=" ">
<path fill="none" stroke="#63b8ff" d="M433.26,-18.87C386.92,-24.84 324.86,-39.8 284,-77 220.94,-134.41 202.35,-243 197.52,-282.85"/>
<polygon fill="#63b8ff" stroke="#63b8ff" points="433.67,-22.34 443.19,-17.69 432.85,-15.39 433.67,-22.34"/>
</a>
</g>
</g>
<!-- Node18&#45;&gt;Node6 -->
<g id="edge42_Node000018_Node000006" class="edge">
<title>Node18&#45;&gt;Node6</title>
<g id="a_edge42_Node000018_Node000006"><a xlink:title=" ">
<path fill="none" stroke="#63b8ff" d="M434.63,-31.83C431.51,-33.95 428.6,-36.32 426,-39 350.49,-116.74 339.69,-258.43 338.21,-304.84"/>
<polygon fill="#63b8ff" stroke="#63b8ff" points="436.38,-34.87 443.29,-26.84 432.88,-28.8 436.38,-34.87"/>
</a>
</g>
</g>
</g>
</svg>
