<?xml version="1.0" encoding="UTF-8" standalone="no"?>
<!DOCTYPE svg PUBLIC "-//W3C//DTD SVG 1.1//EN"
 "http://www.w3.org/Graphics/SVG/1.1/DTD/svg11.dtd">
<!-- Generated by graphviz version 2.43.0 (0)
 -->
<!-- Title: lci::alloc_device_x::operator() Pages: 1 -->
<svg width="717pt" height="662pt"
 viewBox="0.00 0.00 717.00 662.00" xmlns="http://www.w3.org/2000/svg" xmlns:xlink="http://www.w3.org/1999/xlink">
<g id="graph0" class="graph" transform="scale(1 1) rotate(0) translate(4 658)">
<title>lci::alloc_device_x::operator()</title>
<!-- Node1 -->
<g id="Node000001" class="node">
<title>Node1</title>
<g id="a_Node000001"><a xlink:title=" ">
<polygon fill="#999999" stroke="#666666" points="106,-342 0,-342 0,-312 106,-312 106,-342"/>
<text text-anchor="start" x="8" y="-330" font-family="Helvetica,sans-Serif" font-size="10.00">lci::alloc_device_x</text>
<text text-anchor="middle" x="53" y="-319" font-family="Helvetica,sans-Serif" font-size="10.00">::operator()</text>
</a>
</g>
</g>
<!-- Node2 -->
<g id="Node000002" class="node">
<title>Node2</title>
<g id="a_Node000002"><a xlink:href="../../d9/d10/classlci_1_1alloc__device__x.html#accfc23b8c5a8d782aa772cc509749d14" target="_top" xlink:title=" ">
<polygon fill="white" stroke="#666666" points="248,-342 142,-342 142,-312 248,-312 248,-342"/>
<text text-anchor="start" x="150" y="-330" font-family="Helvetica,sans-Serif" font-size="10.00">lci::alloc_device_x</text>
<text text-anchor="middle" x="195" y="-319" font-family="Helvetica,sans-Serif" font-size="10.00">::call</text>
</a>
</g>
</g>
<!-- Node1&#45;&gt;Node2 -->
<g id="edge1_Node000001_Node000002" class="edge">
<title>Node1&#45;&gt;Node2</title>
<g id="a_edge1_Node000001_Node000002"><a xlink:title=" ">
<path fill="none" stroke="#63b8ff" d="M106.13,-327C114.42,-327 123.07,-327 131.57,-327"/>
<polygon fill="#63b8ff" stroke="#63b8ff" points="131.83,-330.5 141.83,-327 131.83,-323.5 131.83,-330.5"/>
</a>
</g>
</g>
<!-- Node3 -->
<g id="Node000003" class="node">
<title>Node3</title>
<g id="a_Node000003"><a xlink:href="../../d9/d10/classlci_1_1alloc__device__x.html#a0364c3bcc9d35c8c2dadd4a683e13b2b" target="_top" xlink:title=" ">
<polygon fill="white" stroke="#666666" points="563.5,-654 429.5,-654 429.5,-624 563.5,-624 563.5,-654"/>
<text text-anchor="start" x="437.5" y="-642" font-family="Helvetica,sans-Serif" font-size="10.00">lci::alloc_device_x</text>
<text text-anchor="middle" x="496.5" y="-631" font-family="Helvetica,sans-Serif" font-size="10.00">::alloc_default_endpoint</text>
</a>
</g>
</g>
<!-- Node2&#45;&gt;Node3 -->
<g id="edge2_Node000002_Node000003" class="edge">
<title>Node2&#45;&gt;Node3</title>
<g id="a_edge2_Node000002_Node000003"><a xlink:title=" ">
<path fill="none" stroke="#63b8ff" d="M198.35,-342.12C205.03,-380.47 227.42,-482.81 284,-544 319.9,-582.83 374.64,-606.82 419.44,-620.98"/>
<polygon fill="#63b8ff" stroke="#63b8ff" points="418.54,-624.37 429.13,-623.94 420.59,-617.67 418.54,-624.37"/>
</a>
</g>
</g>
<!-- Node5 -->
<g id="Node000005" class="node">
<title>Node5</title>
<g id="a_Node000005"><a xlink:href="../../d9/d10/classlci_1_1alloc__device__x.html#ab20e017d5404c44094f5926dfb6d49de" target="_top" xlink:title=" ">
<polygon fill="white" stroke="#666666" points="567,-606 426,-606 426,-576 567,-576 567,-606"/>
<text text-anchor="start" x="434" y="-594" font-family="Helvetica,sans-Serif" font-size="10.00">lci::alloc_device_x</text>
<text text-anchor="middle" x="496.5" y="-583" font-family="Helvetica,sans-Serif" font-size="10.00">::alloc_progress_endpoint</text>
</a>
</g>
</g>
<!-- Node2&#45;&gt;Node5 -->
<g id="edge4_Node000002_Node000005" class="edge">
<title>Node2&#45;&gt;Node5</title>
<g id="a_edge4_Node000002_Node000005"><a xlink:title=" ">
<path fill="none" stroke="#63b8ff" d="M200.13,-342.46C209.67,-375.45 236.13,-453.53 284,-500 321.33,-536.24 375.37,-559.15 419.49,-572.92"/>
<polygon fill="#63b8ff" stroke="#63b8ff" points="418.73,-576.35 429.31,-575.89 420.75,-569.65 418.73,-576.35"/>
</a>
</g>
</g>
<!-- Node6 -->
<g id="Node000006" class="node">
<title>Node6</title>
<g id="a_Node000006"><a xlink:href="../../d9/d10/classlci_1_1alloc__device__x.html#aa3a3a24a9e92713a3f25a7717283ce7f" target="_top" xlink:title=" ">
<polygon fill="white" stroke="#666666" points="390,-342 284,-342 284,-312 390,-312 390,-342"/>
<text text-anchor="start" x="292" y="-330" font-family="Helvetica,sans-Serif" font-size="10.00">lci::alloc_device_x</text>
<text text-anchor="middle" x="337" y="-319" font-family="Helvetica,sans-Serif" font-size="10.00">::call_impl</text>
</a>
</g>
</g>
<!-- Node2&#45;&gt;Node6 -->
<g id="edge6_Node000002_Node000006" class="edge">
<title>Node2&#45;&gt;Node6</title>
<g id="a_edge6_Node000002_Node000006"><a xlink:title=" ">
<path fill="none" stroke="#63b8ff" d="M248.13,-327C256.42,-327 265.07,-327 273.57,-327"/>
<polygon fill="#63b8ff" stroke="#63b8ff" points="273.83,-330.5 283.83,-327 273.83,-323.5 273.83,-330.5"/>
</a>
</g>
</g>
<!-- Node7 -->
<g id="Node000007" class="node">
<title>Node7</title>
<g id="a_Node000007"><a xlink:href="../../d9/d10/classlci_1_1alloc__device__x.html#ad24d73c79259e5dcba473f20adad64cd" target="_top" xlink:title=" ">
<polygon fill="white" stroke="#666666" points="549.5,-558 443.5,-558 443.5,-528 549.5,-528 549.5,-558"/>
<text text-anchor="start" x="451.5" y="-546" font-family="Helvetica,sans-Serif" font-size="10.00">lci::alloc_device_x</text>
<text text-anchor="middle" x="496.5" y="-535" font-family="Helvetica,sans-Serif" font-size="10.00">::ibv_td_strategy</text>
</a>
</g>
</g>
<!-- Node2&#45;&gt;Node7 -->
<g id="edge33_Node000002_Node000007" class="edge">
<title>Node2&#45;&gt;Node7</title>
<g id="a_edge33_Node000002_Node000007"><a xlink:title=" ">
<path fill="none" stroke="#63b8ff" d="M202.49,-342.14C214.74,-369.09 243.68,-425.64 284,-459 327.53,-495.02 388.43,-517.01 433.7,-529.4"/>
<polygon fill="#63b8ff" stroke="#63b8ff" points="432.84,-532.8 443.4,-531.98 434.64,-526.03 432.84,-532.8"/>
</a>
</g>
</g>
<!-- Node8 -->
<g id="Node000008" class="node">
<title>Node8</title>
<g id="a_Node000008"><a xlink:href="../../d9/d10/classlci_1_1alloc__device__x.html#a6f0be32f14a934810e8f358b24fe981f" target="_top" xlink:title=" ">
<polygon fill="white" stroke="#666666" points="549.5,-510 443.5,-510 443.5,-480 549.5,-480 549.5,-510"/>
<text text-anchor="start" x="451.5" y="-498" font-family="Helvetica,sans-Serif" font-size="10.00">lci::alloc_device_x</text>
<text text-anchor="middle" x="496.5" y="-487" font-family="Helvetica,sans-Serif" font-size="10.00">::name</text>
</a>
</g>
</g>
<!-- Node2&#45;&gt;Node8 -->
<g id="edge34_Node000002_Node000008" class="edge">
<title>Node2&#45;&gt;Node8</title>
<g id="a_edge34_Node000002_Node000008"><a xlink:title=" ">
<path fill="none" stroke="#63b8ff" d="M206.45,-342.35C221.36,-363.17 250.67,-400.26 284,-422 329.82,-451.89 389.25,-470.99 433.43,-482.12"/>
<polygon fill="#63b8ff" stroke="#63b8ff" points="432.64,-485.53 443.18,-484.51 434.31,-478.73 432.64,-485.53"/>
</a>
</g>
</g>
<!-- Node9 -->
<g id="Node000009" class="node">
<title>Node9</title>
<g id="a_Node000009"><a xlink:href="../../d9/d10/classlci_1_1alloc__device__x.html#abeaee68a26587c6b359320ab7cc7def1" target="_top" xlink:title=" ">
<polygon fill="white" stroke="#666666" points="549.5,-462 443.5,-462 443.5,-432 549.5,-432 549.5,-462"/>
<text text-anchor="start" x="451.5" y="-450" font-family="Helvetica,sans-Serif" font-size="10.00">lci::alloc_device_x</text>
<text text-anchor="middle" x="496.5" y="-439" font-family="Helvetica,sans-Serif" font-size="10.00">::net_context</text>
</a>
</g>
</g>
<!-- Node2&#45;&gt;Node9 -->
<g id="edge35_Node000002_Node000009" class="edge">
<title>Node2&#45;&gt;Node9</title>
<g id="a_edge35_Node000002_Node000009"><a xlink:title=" ">
<path fill="none" stroke="#63b8ff" d="M212.64,-342.05C229.5,-356.54 256.87,-378.1 284,-391 331.74,-413.7 390.07,-428.27 433.38,-436.84"/>
<polygon fill="#63b8ff" stroke="#63b8ff" points="432.73,-440.28 443.21,-438.73 434.05,-433.4 432.73,-440.28"/>
</a>
</g>
</g>
<!-- Node10 -->
<g id="Node000010" class="node">
<title>Node10</title>
<g id="a_Node000010"><a xlink:href="../../d9/d10/classlci_1_1alloc__device__x.html#acd2e7ade6e7e4c91b3144bd3068ead07" target="_top" xlink:title=" ">
<polygon fill="white" stroke="#666666" points="549.5,-414 443.5,-414 443.5,-384 549.5,-384 549.5,-414"/>
<text text-anchor="start" x="451.5" y="-402" font-family="Helvetica,sans-Serif" font-size="10.00">lci::alloc_device_x</text>
<text text-anchor="middle" x="496.5" y="-391" font-family="Helvetica,sans-Serif" font-size="10.00">::net_max_cqes</text>
</a>
</g>
</g>
<!-- Node2&#45;&gt;Node10 -->
<g id="edge36_Node000002_Node000010" class="edge">
<title>Node2&#45;&gt;Node10</title>
<g id="a_edge36_Node000002_Node000010"><a xlink:title=" ">
<path fill="none" stroke="#63b8ff" d="M223.77,-342.02C240.72,-350.58 263.08,-360.8 284,-367 333.11,-381.57 390.7,-389.73 433.38,-394.16"/>
<polygon fill="#63b8ff" stroke="#63b8ff" points="433.05,-397.64 443.34,-395.15 433.74,-390.67 433.05,-397.64"/>
</a>
</g>
</g>
<!-- Node11 -->
<g id="Node000011" class="node">
<title>Node11</title>
<g id="a_Node000011"><a xlink:href="../../d9/d10/classlci_1_1alloc__device__x.html#a4c8c86d9400791bb609b391aef165d68" target="_top" xlink:title=" ">
<polygon fill="white" stroke="#666666" points="549.5,-366 443.5,-366 443.5,-336 549.5,-336 549.5,-366"/>
<text text-anchor="start" x="451.5" y="-354" font-family="Helvetica,sans-Serif" font-size="10.00">lci::alloc_device_x</text>
<text text-anchor="middle" x="496.5" y="-343" font-family="Helvetica,sans-Serif" font-size="10.00">::net_max_recvs</text>
</a>
</g>
</g>
<!-- Node2&#45;&gt;Node11 -->
<g id="edge37_Node000002_Node000011" class="edge">
<title>Node2&#45;&gt;Node11</title>
<g id="a_edge37_Node000002_Node000011"><a xlink:title=" ">
<path fill="none" stroke="#63b8ff" d="M242.11,-342.05C255.47,-345.74 270.19,-349.15 284,-351 333.76,-357.66 390.7,-357.21 432.95,-355.34"/>
<polygon fill="#63b8ff" stroke="#63b8ff" points="433.27,-358.83 443.09,-354.85 432.94,-351.84 433.27,-358.83"/>
</a>
</g>
</g>
<!-- Node12 -->
<g id="Node000012" class="node">
<title>Node12</title>
<g id="a_Node000012"><a xlink:href="../../d9/d10/classlci_1_1alloc__device__x.html#afe0d1c701b1611f00c3feaa22bd5f0cd" target="_top" xlink:title=" ">
<polygon fill="white" stroke="#666666" points="549.5,-318 443.5,-318 443.5,-288 549.5,-288 549.5,-318"/>
<text text-anchor="start" x="451.5" y="-306" font-family="Helvetica,sans-Serif" font-size="10.00">lci::alloc_device_x</text>
<text text-anchor="middle" x="496.5" y="-295" font-family="Helvetica,sans-Serif" font-size="10.00">::net_max_sends</text>
</a>
</g>
</g>
<!-- Node2&#45;&gt;Node12 -->
<g id="edge38_Node000002_Node000012" class="edge">
<title>Node2&#45;&gt;Node12</title>
<g id="a_edge38_Node000002_Node000012"><a xlink:title=" ">
<path fill="none" stroke="#63b8ff" d="M242.11,-311.95C255.47,-308.26 270.19,-304.85 284,-303 333.76,-296.34 390.7,-296.79 432.95,-298.66"/>
<polygon fill="#63b8ff" stroke="#63b8ff" points="432.94,-302.16 443.09,-299.15 433.27,-295.17 432.94,-302.16"/>
</a>
</g>
</g>
<!-- Node13 -->
<g id="Node000013" class="node">
<title>Node13</title>
<g id="a_Node000013"><a xlink:href="../../d9/d10/classlci_1_1alloc__device__x.html#a9dccb87689be3fb6d329abb8111bdf6c" target="_top" xlink:title=" ">
<polygon fill="white" stroke="#666666" points="564,-270 429,-270 429,-240 564,-240 564,-270"/>
<text text-anchor="start" x="437" y="-258" font-family="Helvetica,sans-Serif" font-size="10.00">lci::alloc_device_x</text>
<text text-anchor="middle" x="496.5" y="-247" font-family="Helvetica,sans-Serif" font-size="10.00">::net_send_reserved_pct</text>
</a>
</g>
</g>
<!-- Node2&#45;&gt;Node13 -->
<g id="edge39_Node000002_Node000013" class="edge">
<title>Node2&#45;&gt;Node13</title>
<g id="a_edge39_Node000002_Node000013"><a xlink:title=" ">
<path fill="none" stroke="#63b8ff" d="M230.59,-311.87C246.6,-305.33 266.02,-298.04 284,-293 327.88,-280.7 378.04,-271.49 418.49,-265.22"/>
<polygon fill="#63b8ff" stroke="#63b8ff" points="419.2,-268.65 428.56,-263.69 418.14,-261.73 419.2,-268.65"/>
</a>
</g>
</g>
<!-- Node14 -->
<g id="Node000014" class="node">
<title>Node14</title>
<g id="a_Node000014"><a xlink:href="../../d9/d10/classlci_1_1alloc__device__x.html#a7d316853b54b2a870ea35c387c1006e4" target="_top" xlink:title=" ">
<polygon fill="white" stroke="#666666" points="549.5,-222 443.5,-222 443.5,-192 549.5,-192 549.5,-222"/>
<text text-anchor="start" x="451.5" y="-210" font-family="Helvetica,sans-Serif" font-size="10.00">lci::alloc_device_x</text>
<text text-anchor="middle" x="496.5" y="-199" font-family="Helvetica,sans-Serif" font-size="10.00">::ofi_lock_mode</text>
</a>
</g>
</g>
<!-- Node2&#45;&gt;Node14 -->
<g id="edge40_Node000002_Node000014" class="edge">
<title>Node2&#45;&gt;Node14</title>
<g id="a_edge40_Node000002_Node000014"><a xlink:title=" ">
<path fill="none" stroke="#63b8ff" d="M213.78,-311.99C230.82,-298.28 257.75,-278.33 284,-266 332.02,-243.45 390.33,-227.98 433.55,-218.56"/>
<polygon fill="#63b8ff" stroke="#63b8ff" points="434.32,-221.97 443.37,-216.47 432.86,-215.13 434.32,-221.97"/>
</a>
</g>
</g>
<!-- Node15 -->
<g id="Node000015" class="node">
<title>Node15</title>
<g id="a_Node000015"><a xlink:href="../../d9/d10/classlci_1_1alloc__device__x.html#a561a0ed83694bc3350a801b629e5bd21" target="_top" xlink:title=" ">
<polygon fill="white" stroke="#666666" points="549.5,-174 443.5,-174 443.5,-144 549.5,-144 549.5,-174"/>
<text text-anchor="start" x="451.5" y="-162" font-family="Helvetica,sans-Serif" font-size="10.00">lci::alloc_device_x</text>
<text text-anchor="middle" x="496.5" y="-151" font-family="Helvetica,sans-Serif" font-size="10.00">::packet_pool</text>
</a>
</g>
</g>
<!-- Node2&#45;&gt;Node15 -->
<g id="edge41_Node000002_Node000015" class="edge">
<title>Node2&#45;&gt;Node15</title>
<g id="a_edge41_Node000002_Node000015"><a xlink:title=" ">
<path fill="none" stroke="#63b8ff" d="M205.41,-311.65C219.71,-289.56 248.99,-248.96 284,-226 329.42,-196.21 388.98,-178.91 433.31,-169.38"/>
<polygon fill="#63b8ff" stroke="#63b8ff" points="434.3,-172.75 443.38,-167.29 432.88,-165.9 434.3,-172.75"/>
</a>
</g>
</g>
<!-- Node16 -->
<g id="Node000016" class="node">
<title>Node16</title>
<g id="a_Node000016"><a xlink:href="../../d9/d10/classlci_1_1alloc__device__x.html#a56912fff6daa357d714dbbf3bf67af85" target="_top" xlink:title=" ">
<polygon fill="white" stroke="#666666" points="549.5,-126 443.5,-126 443.5,-96 549.5,-96 549.5,-126"/>
<text text-anchor="start" x="451.5" y="-114" font-family="Helvetica,sans-Serif" font-size="10.00">lci::alloc_device_x</text>
<text text-anchor="middle" x="496.5" y="-103" font-family="Helvetica,sans-Serif" font-size="10.00">::runtime</text>
</a>
</g>
</g>
<!-- Node2&#45;&gt;Node16 -->
<g id="edge42_Node000002_Node000016" class="edge">
<title>Node2&#45;&gt;Node16</title>
<g id="a_edge42_Node000002_Node000016"><a xlink:title=" ">
<path fill="none" stroke="#63b8ff" d="M200.71,-311.63C210.85,-281.14 237.65,-212.77 284,-176 326.95,-141.93 387.74,-125.65 433.13,-117.91"/>
<polygon fill="#63b8ff" stroke="#63b8ff" points="433.83,-121.34 443.15,-116.29 432.72,-114.43 433.83,-121.34"/>
</a>
</g>
</g>
<!-- Node17 -->
<g id="Node000017" class="node">
<title>Node17</title>
<g id="a_Node000017"><a xlink:href="../../d9/d10/classlci_1_1alloc__device__x.html#a6737b51602e702943e829c466e23f945" target="_top" xlink:title=" ">
<polygon fill="white" stroke="#666666" points="549.5,-78 443.5,-78 443.5,-48 549.5,-48 549.5,-78"/>
<text text-anchor="start" x="451.5" y="-66" font-family="Helvetica,sans-Serif" font-size="10.00">lci::alloc_device_x</text>
<text text-anchor="middle" x="496.5" y="-55" font-family="Helvetica,sans-Serif" font-size="10.00">::use_reg_cache</text>
</a>
</g>
</g>
<!-- Node2&#45;&gt;Node17 -->
<g id="edge43_Node000002_Node000017" class="edge">
<title>Node2&#45;&gt;Node17</title>
<g id="a_edge43_Node000002_Node000017"><a xlink:title=" ">
<path fill="none" stroke="#63b8ff" d="M198.09,-311.96C204.11,-274.41 225.01,-175.87 284,-124 325.35,-87.64 387.17,-72.88 433.3,-66.93"/>
<polygon fill="#63b8ff" stroke="#63b8ff" points="433.97,-70.38 443.49,-65.73 433.14,-63.43 433.97,-70.38"/>
</a>
</g>
</g>
<!-- Node18 -->
<g id="Node000018" class="node">
<title>Node18</title>
<g id="a_Node000018"><a xlink:href="../../d9/d10/classlci_1_1alloc__device__x.html#a5508f2d5c851ff147e9f8cd40db1ade3" target="_top" xlink:title=" ">
<polygon fill="white" stroke="#666666" points="549.5,-30 443.5,-30 443.5,0 549.5,0 549.5,-30"/>
<text text-anchor="start" x="451.5" y="-18" font-family="Helvetica,sans-Serif" font-size="10.00">lci::alloc_device_x</text>
<text text-anchor="middle" x="496.5" y="-7" font-family="Helvetica,sans-Serif" font-size="10.00">::user_context</text>
</a>
</g>
</g>
<!-- Node2&#45;&gt;Node18 -->
<g id="edge44_Node000002_Node000018" class="edge">
<title>Node2&#45;&gt;Node18</title>
<g id="a_edge44_Node000002_Node000018"><a xlink:title=" ">
<path fill="none" stroke="#63b8ff" d="M196.49,-312C198.75,-268.04 211.57,-138.38 284,-71 324.29,-33.52 386.71,-20.53 433.31,-16.31"/>
<polygon fill="#63b8ff" stroke="#63b8ff" points="433.61,-19.8 443.3,-15.52 433.05,-12.82 433.61,-19.8"/>
</a>
</g>
</g>
<!-- Node4 -->
<g id="Node000004" class="node">
<title>Node4</title>
<g id="a_Node000004"><a xlink:href="../../d9/d10/classlci_1_1alloc__device__x.html#a12e57dde78668d47808506dbd65f011e" target="_top" xlink:title=" ">
<polygon fill="white" stroke="#666666" points="709,-342 603,-342 603,-312 709,-312 709,-342"/>
<text text-anchor="start" x="611" y="-330" font-family="Helvetica,sans-Serif" font-size="10.00">lci::alloc_device_x</text>
<text text-anchor="middle" x="656" y="-319" font-family="Helvetica,sans-Serif" font-size="10.00">::alloc_device_x</text>
</a>
</g>
</g>
<!-- Node3&#45;&gt;Node4 -->
<g id="edge3_Node000003_Node000004" class="edge">
<title>Node3&#45;&gt;Node4</title>
<g id="a_edge3_Node000003_Node000004"><a xlink:title=" ">
<path fill="none" stroke="#63b8ff" d="M555.86,-623.82C559.94,-621.32 563.72,-618.4 567,-615 639.16,-540.19 652.32,-407.89 654.59,-352.5"/>
<polygon fill="#63b8ff" stroke="#63b8ff" points="658.1,-352.3 654.92,-342.19 651.1,-352.08 658.1,-352.3"/>
</a>
</g>
</g>
<!-- Node5&#45;&gt;Node4 -->
<g id="edge5_Node000005_Node000004" class="edge">
<title>Node5&#45;&gt;Node4</title>
<g id="a_edge5_Node000005_Node000004"><a xlink:title=" ">
<path fill="none" stroke="#63b8ff" d="M555.33,-575.82C559.57,-573.31 563.54,-570.4 567,-567 628.27,-506.88 647.19,-400.59 652.78,-352.23"/>
<polygon fill="#63b8ff" stroke="#63b8ff" points="656.29,-352.34 653.86,-342.03 649.33,-351.61 656.29,-352.34"/>
</a>
</g>
</g>
<!-- Node6&#45;&gt;Node3 -->
<g id="edge7_Node000006_Node000003" class="edge">
<title>Node6&#45;&gt;Node3</title>
<g id="a_edge7_Node000006_Node000003"><a xlink:title=" ">
<path fill="none" stroke="#63b8ff" d="M338.08,-342.19C339.15,-389.39 348.87,-535.04 426,-615 426.92,-615.96 427.88,-616.87 428.88,-617.76"/>
<polygon fill="#63b8ff" stroke="#63b8ff" points="427,-620.72 437.14,-623.82 431.15,-615.08 427,-620.72"/>
</a>
</g>
</g>
<!-- Node6&#45;&gt;Node5 -->
<g id="edge8_Node000006_Node000005" class="edge">
<title>Node6&#45;&gt;Node5</title>
<g id="a_edge8_Node000006_Node000005"><a xlink:title=" ">
<path fill="none" stroke="#63b8ff" d="M339.14,-342.03C343.12,-383.75 359.95,-502.19 426,-567 427.08,-568.06 428.21,-569.08 429.39,-570.05"/>
<polygon fill="#63b8ff" stroke="#63b8ff" points="427.47,-572.97 437.67,-575.82 431.47,-567.23 427.47,-572.97"/>
</a>
</g>
</g>
<!-- Node6&#45;&gt;Node7 -->
<g id="edge9_Node000006_Node000007" class="edge">
<title>Node6&#45;&gt;Node7</title>
<g id="a_edge9_Node000006_Node000007"><a xlink:title=" ">
<path fill="none" stroke="#63b8ff" d="M340.72,-342.11C347.95,-378.01 371.01,-469.11 426,-519 428.58,-521.34 431.41,-523.46 434.39,-525.37"/>
<polygon fill="#63b8ff" stroke="#63b8ff" points="432.71,-528.44 443.16,-530.24 436.11,-522.32 432.71,-528.44"/>
</a>
</g>
</g>
<!-- Node6&#45;&gt;Node8 -->
<g id="edge11_Node000006_Node000008" class="edge">
<title>Node6&#45;&gt;Node8</title>
<g id="a_edge11_Node000006_Node000008"><a xlink:title=" ">
<path fill="none" stroke="#63b8ff" d="M343.36,-342.43C354.3,-371.71 381.94,-435.56 426,-471 428.59,-473.08 431.36,-474.99 434.27,-476.73"/>
<polygon fill="#63b8ff" stroke="#63b8ff" points="432.81,-479.92 443.29,-481.49 436.08,-473.73 432.81,-479.92"/>
</a>
</g>
</g>
<!-- Node6&#45;&gt;Node9 -->
<g id="edge13_Node000006_Node000009" class="edge">
<title>Node6&#45;&gt;Node9</title>
<g id="a_edge13_Node000006_Node000009"><a xlink:title=" ">
<path fill="none" stroke="#63b8ff" d="M348.16,-342.16C362.95,-363.13 392.35,-400.92 426,-423 428.58,-424.7 431.3,-426.29 434.11,-427.77"/>
<polygon fill="#63b8ff" stroke="#63b8ff" points="432.76,-431.01 443.28,-432.19 435.79,-424.7 432.76,-431.01"/>
</a>
</g>
</g>
<!-- Node6&#45;&gt;Node10 -->
<g id="edge15_Node000006_Node000010" class="edge">
<title>Node6&#45;&gt;Node10</title>
<g id="a_edge15_Node000006_Node000010"><a xlink:title=" ">
<path fill="none" stroke="#63b8ff" d="M362.85,-342.01C380.18,-352.11 404.03,-365.3 426,-375 430.12,-376.82 434.42,-378.59 438.78,-380.3"/>
<polygon fill="#63b8ff" stroke="#63b8ff" points="437.76,-383.66 448.36,-383.91 440.24,-377.11 437.76,-383.66"/>
</a>
</g>
</g>
<!-- Node6&#45;&gt;Node11 -->
<g id="edge17_Node000006_Node000011" class="edge">
<title>Node6&#45;&gt;Node11</title>
<g id="a_edge17_Node000006_Node000011"><a xlink:title=" ">
<path fill="none" stroke="#63b8ff" d="M390.01,-334.93C403.78,-337.02 418.79,-339.31 433.05,-341.48"/>
<polygon fill="#63b8ff" stroke="#63b8ff" points="432.86,-345 443.28,-343.04 433.92,-338.08 432.86,-345"/>
</a>
</g>
</g>
<!-- Node6&#45;&gt;Node12 -->
<g id="edge19_Node000006_Node000012" class="edge">
<title>Node6&#45;&gt;Node12</title>
<g id="a_edge19_Node000006_Node000012"><a xlink:title=" ">
<path fill="none" stroke="#63b8ff" d="M390.01,-319.07C403.78,-316.98 418.79,-314.69 433.05,-312.52"/>
<polygon fill="#63b8ff" stroke="#63b8ff" points="433.92,-315.92 443.28,-310.96 432.86,-309 433.92,-315.92"/>
</a>
</g>
</g>
<!-- Node6&#45;&gt;Node13 -->
<g id="edge21_Node000006_Node000013" class="edge">
<title>Node6&#45;&gt;Node13</title>
<g id="a_edge21_Node000006_Node000013"><a xlink:title=" ">
<path fill="none" stroke="#63b8ff" d="M362.85,-311.99C380.18,-301.89 404.03,-288.7 426,-279 430.12,-277.18 434.42,-275.41 438.78,-273.7"/>
<polygon fill="#63b8ff" stroke="#63b8ff" points="440.24,-276.89 448.36,-270.09 437.76,-270.34 440.24,-276.89"/>
</a>
</g>
</g>
<!-- Node6&#45;&gt;Node14 -->
<g id="edge23_Node000006_Node000014" class="edge">
<title>Node6&#45;&gt;Node14</title>
<g id="a_edge23_Node000006_Node000014"><a xlink:title=" ">
<path fill="none" stroke="#63b8ff" d="M348.16,-311.84C362.95,-290.87 392.35,-253.08 426,-231 428.58,-229.3 431.3,-227.71 434.11,-226.23"/>
<polygon fill="#63b8ff" stroke="#63b8ff" points="435.79,-229.3 443.28,-221.81 432.76,-222.99 435.79,-229.3"/>
</a>
</g>
</g>
<!-- Node6&#45;&gt;Node15 -->
<g id="edge25_Node000006_Node000015" class="edge">
<title>Node6&#45;&gt;Node15</title>
<g id="a_edge25_Node000006_Node000015"><a xlink:title=" ">
<path fill="none" stroke="#63b8ff" d="M343.36,-311.57C354.3,-282.29 381.94,-218.44 426,-183 428.59,-180.92 431.36,-179.01 434.27,-177.27"/>
<polygon fill="#63b8ff" stroke="#63b8ff" points="436.08,-180.27 443.29,-172.51 432.81,-174.08 436.08,-180.27"/>
</a>
</g>
</g>
<!-- Node6&#45;&gt;Node16 -->
<g id="edge27_Node000006_Node000016" class="edge">
<title>Node6&#45;&gt;Node16</title>
<g id="a_edge27_Node000006_Node000016"><a xlink:title=" ">
<path fill="none" stroke="#63b8ff" d="M340.72,-311.89C347.95,-275.99 371.01,-184.89 426,-135 428.58,-132.66 431.41,-130.54 434.39,-128.63"/>
<polygon fill="#63b8ff" stroke="#63b8ff" points="436.11,-131.68 443.16,-123.76 432.71,-125.56 436.11,-131.68"/>
</a>
</g>
</g>
<!-- Node6&#45;&gt;Node17 -->
<g id="edge29_Node000006_Node000017" class="edge">
<title>Node6&#45;&gt;Node17</title>
<g id="a_edge29_Node000006_Node000017"><a xlink:title=" ">
<path fill="none" stroke="#63b8ff" d="M339.14,-311.97C343.12,-270.25 359.95,-151.81 426,-87 428.54,-84.51 431.34,-82.28 434.33,-80.28"/>
<polygon fill="#63b8ff" stroke="#63b8ff" points="436.22,-83.23 443.16,-75.23 432.74,-77.15 436.22,-83.23"/>
</a>
</g>
</g>
<!-- Node6&#45;&gt;Node18 -->
<g id="edge31_Node000006_Node000018" class="edge">
<title>Node6&#45;&gt;Node18</title>
<g id="a_edge31_Node000006_Node000018"><a xlink:title=" ">
<path fill="none" stroke="#63b8ff" d="M338.08,-311.81C339.15,-264.61 348.87,-118.96 426,-39 428.51,-36.39 431.32,-34.07 434.33,-32"/>
<polygon fill="#63b8ff" stroke="#63b8ff" points="436.38,-34.86 443.26,-26.81 432.86,-28.81 436.38,-34.86"/>
</a>
</g>
</g>
<!-- Node7&#45;&gt;Node4 -->
<g id="edge10_Node000007_Node000004" class="edge">
<title>Node7&#45;&gt;Node4</title>
<g id="a_edge10_Node000007_Node000004"><a xlink:title=" ">
<path fill="none" stroke="#63b8ff" d="M549.84,-530.24C556.07,-527.24 561.99,-523.55 567,-519 617.48,-473.2 641.05,-392.68 650.17,-352.01"/>
<polygon fill="#63b8ff" stroke="#63b8ff" points="653.62,-352.62 652.28,-342.11 646.77,-351.17 653.62,-352.62"/>
</a>
</g>
</g>
<!-- Node8&#45;&gt;Node4 -->
<g id="edge12_Node000008_Node000004" class="edge">
<title>Node8&#45;&gt;Node4</title>
<g id="a_edge12_Node000008_Node000004"><a xlink:title=" ">
<path fill="none" stroke="#63b8ff" d="M549.71,-481.49C555.89,-478.62 561.83,-475.16 567,-471 606.76,-439.02 633.15,-383.91 645.96,-351.94"/>
<polygon fill="#63b8ff" stroke="#63b8ff" points="649.29,-353.02 649.64,-342.43 642.77,-350.49 649.29,-353.02"/>
</a>
</g>
</g>
<!-- Node9&#45;&gt;Node4 -->
<g id="edge14_Node000009_Node000004" class="edge">
<title>Node9&#45;&gt;Node4</title>
<g id="a_edge14_Node000009_Node000004"><a xlink:title=" ">
<path fill="none" stroke="#63b8ff" d="M549.72,-432.19C555.76,-429.55 561.66,-426.5 567,-423 596.57,-403.6 622.87,-372.06 638.84,-350.46"/>
<polygon fill="#63b8ff" stroke="#63b8ff" points="641.82,-352.31 644.84,-342.16 636.15,-348.21 641.82,-352.31"/>
</a>
</g>
</g>
<!-- Node10&#45;&gt;Node4 -->
<g id="edge16_Node000010_Node000004" class="edge">
<title>Node10&#45;&gt;Node4</title>
<g id="a_edge16_Node000010_Node000004"><a xlink:title=" ">
<path fill="none" stroke="#63b8ff" d="M544.64,-383.91C552.2,-381.16 559.88,-378.15 567,-375 585.36,-366.89 605.05,-356.34 621.13,-347.2"/>
<polygon fill="#63b8ff" stroke="#63b8ff" points="623.23,-350.03 630.15,-342.01 619.74,-343.96 623.23,-350.03"/>
</a>
</g>
</g>
<!-- Node11&#45;&gt;Node4 -->
<g id="edge18_Node000011_Node000004" class="edge">
<title>Node11&#45;&gt;Node4</title>
<g id="a_edge18_Node000011_Node000004"><a xlink:title=" ">
<path fill="none" stroke="#63b8ff" d="M549.51,-343.07C563.28,-340.98 578.29,-338.69 592.55,-336.52"/>
<polygon fill="#63b8ff" stroke="#63b8ff" points="593.42,-339.92 602.78,-334.96 592.36,-333 593.42,-339.92"/>
</a>
</g>
</g>
<!-- Node12&#45;&gt;Node4 -->
<g id="edge20_Node000012_Node000004" class="edge">
<title>Node12&#45;&gt;Node4</title>
<g id="a_edge20_Node000012_Node000004"><a xlink:title=" ">
<path fill="none" stroke="#63b8ff" d="M549.51,-310.93C563.28,-313.02 578.29,-315.31 592.55,-317.48"/>
<polygon fill="#63b8ff" stroke="#63b8ff" points="592.36,-321 602.78,-319.04 593.42,-314.08 592.36,-321"/>
</a>
</g>
</g>
<!-- Node13&#45;&gt;Node4 -->
<g id="edge22_Node000013_Node000004" class="edge">
<title>Node13&#45;&gt;Node4</title>
<g id="a_edge22_Node000013_Node000004"><a xlink:title=" ">
<path fill="none" stroke="#63b8ff" d="M544.64,-270.09C552.2,-272.84 559.88,-275.85 567,-279 585.36,-287.11 605.05,-297.66 621.13,-306.8"/>
<polygon fill="#63b8ff" stroke="#63b8ff" points="619.74,-310.04 630.15,-311.99 623.23,-303.97 619.74,-310.04"/>
</a>
</g>
</g>
<!-- Node14&#45;&gt;Node4 -->
<g id="edge24_Node000014_Node000004" class="edge">
<title>Node14&#45;&gt;Node4</title>
<g id="a_edge24_Node000014_Node000004"><a xlink:title=" ">
<path fill="none" stroke="#63b8ff" d="M549.72,-221.81C555.76,-224.45 561.66,-227.5 567,-231 596.57,-250.4 622.87,-281.94 638.84,-303.54"/>
<polygon fill="#63b8ff" stroke="#63b8ff" points="636.15,-305.79 644.84,-311.84 641.82,-301.69 636.15,-305.79"/>
</a>
</g>
</g>
<!-- Node15&#45;&gt;Node4 -->
<g id="edge26_Node000015_Node000004" class="edge">
<title>Node15&#45;&gt;Node4</title>
<g id="a_edge26_Node000015_Node000004"><a xlink:title=" ">
<path fill="none" stroke="#63b8ff" d="M549.71,-172.51C555.89,-175.38 561.83,-178.84 567,-183 606.76,-214.98 633.15,-270.09 645.96,-302.06"/>
<polygon fill="#63b8ff" stroke="#63b8ff" points="642.77,-303.51 649.64,-311.57 649.29,-300.98 642.77,-303.51"/>
</a>
</g>
</g>
<!-- Node16&#45;&gt;Node4 -->
<g id="edge28_Node000016_Node000004" class="edge">
<title>Node16&#45;&gt;Node4</title>
<g id="a_edge28_Node000016_Node000004"><a xlink:title=" ">
<path fill="none" stroke="#63b8ff" d="M549.84,-123.76C556.07,-126.76 561.99,-130.45 567,-135 617.48,-180.8 641.05,-261.32 650.17,-301.99"/>
<polygon fill="#63b8ff" stroke="#63b8ff" points="646.77,-302.83 652.28,-311.89 653.62,-301.38 646.77,-302.83"/>
</a>
</g>
</g>
<!-- Node17&#45;&gt;Node4 -->
<g id="edge30_Node000017_Node000004" class="edge">
<title>Node17&#45;&gt;Node4</title>
<g id="a_edge30_Node000017_Node000004"><a xlink:title=" ">
<path fill="none" stroke="#63b8ff" d="M549.84,-75.23C556.14,-78.31 562.08,-82.17 567,-87 628.27,-147.12 647.19,-253.41 652.78,-301.77"/>
<polygon fill="#63b8ff" stroke="#63b8ff" points="649.33,-302.39 653.86,-311.97 656.29,-301.66 649.33,-302.39"/>
</a>
</g>
</g>
<!-- Node18&#45;&gt;Node4 -->
<g id="edge32_Node000018_Node000004" class="edge">
<title>Node18&#45;&gt;Node4</title>
<g id="a_edge32_Node000018_Node000004"><a xlink:title=" ">
<path fill="none" stroke="#63b8ff" d="M549.74,-26.81C556.14,-29.96 562.13,-33.95 567,-39 639.16,-113.81 652.32,-246.11 654.59,-301.5"/>
<polygon fill="#63b8ff" stroke="#63b8ff" points="651.1,-301.92 654.92,-311.81 658.1,-301.7 651.1,-301.92"/>
</a>
</g>
</g>
</g>
</svg>
