<?xml version="1.0" encoding="UTF-8" standalone="no"?>
<!DOCTYPE svg PUBLIC "-//W3C//DTD SVG 1.1//EN"
 "http://www.w3.org/Graphics/SVG/1.1/DTD/svg11.dtd">
<!-- Generated by graphviz version 2.43.0 (0)
 -->
<!-- Title: lci::alloc_device_x::alloc_device_x Pages: 1 -->
<svg width="710pt" height="470pt"
 viewBox="0.00 0.00 710.00 470.00" xmlns="http://www.w3.org/2000/svg" xmlns:xlink="http://www.w3.org/1999/xlink">
<g id="graph0" class="graph" transform="scale(1 1) rotate(0) translate(4 466)">
<title>lci::alloc_device_x::alloc_device_x</title>
<!-- Node1 -->
<g id="Node000001" class="node">
<title>Node1</title>
<g id="a_Node000001"><a xlink:title=" ">
<polygon fill="#999999" stroke="#666666" points="702,-246 596,-246 596,-216 702,-216 702,-246"/>
<text text-anchor="start" x="604" y="-234" font-family="Helvetica,sans-Serif" font-size="10.00">lci::alloc_device_x</text>
<text text-anchor="middle" x="649" y="-223" font-family="Helvetica,sans-Serif" font-size="10.00">::alloc_device_x</text>
</a>
</g>
</g>
<!-- Node2 -->
<g id="Node000002" class="node">
<title>Node2</title>
<g id="a_Node000002"><a xlink:href="../../d9/d10/classlci_1_1alloc__device__x.html#a0364c3bcc9d35c8c2dadd4a683e13b2b" target="_top" xlink:title=" ">
<polygon fill="white" stroke="#666666" points="560,-462 426,-462 426,-432 560,-432 560,-462"/>
<text text-anchor="start" x="434" y="-450" font-family="Helvetica,sans-Serif" font-size="10.00">lci::alloc_device_x</text>
<text text-anchor="middle" x="493" y="-439" font-family="Helvetica,sans-Serif" font-size="10.00">::alloc_default_endpoint</text>
</a>
</g>
</g>
<!-- Node1&#45;&gt;Node2 -->
<g id="edge1_Node000001_Node000002" class="edge">
<title>Node1&#45;&gt;Node2</title>
<g id="a_edge1_Node000001_Node000002"><a xlink:title=" ">
<path fill="none" stroke="#63b8ff" d="M643.09,-255.92C633.85,-296.46 610.11,-376.79 560,-423 556.33,-426.39 552.13,-429.31 547.69,-431.82"/>
<polygon fill="#63b8ff" stroke="#63b8ff" points="646.53,-256.57 645.23,-246.06 639.69,-255.09 646.53,-256.57"/>
</a>
</g>
</g>
<!-- Node7 -->
<g id="Node000007" class="node">
<title>Node7</title>
<g id="a_Node000007"><a xlink:href="../../d9/d10/classlci_1_1alloc__device__x.html#ad24d73c79259e5dcba473f20adad64cd" target="_top" xlink:title=" ">
<polygon fill="white" stroke="#666666" points="546,-414 440,-414 440,-384 546,-384 546,-414"/>
<text text-anchor="start" x="448" y="-402" font-family="Helvetica,sans-Serif" font-size="10.00">lci::alloc_device_x</text>
<text text-anchor="middle" x="493" y="-391" font-family="Helvetica,sans-Serif" font-size="10.00">::ibv_td_strategy</text>
</a>
</g>
</g>
<!-- Node1&#45;&gt;Node7 -->
<g id="edge7_Node000001_Node000007" class="edge">
<title>Node1&#45;&gt;Node7</title>
<g id="a_edge7_Node000001_Node000007"><a xlink:title=" ">
<path fill="none" stroke="#63b8ff" d="M638.88,-255.84C625.98,-287.7 599.5,-342.7 560,-375 555.85,-378.4 551.17,-381.33 546.28,-383.87"/>
<polygon fill="#63b8ff" stroke="#63b8ff" points="642.2,-256.95 642.59,-246.37 635.68,-254.4 642.2,-256.95"/>
</a>
</g>
</g>
<!-- Node8 -->
<g id="Node000008" class="node">
<title>Node8</title>
<g id="a_Node000008"><a xlink:href="../../d9/d10/classlci_1_1alloc__device__x.html#abeaee68a26587c6b359320ab7cc7def1" target="_top" xlink:title=" ">
<polygon fill="white" stroke="#666666" points="546,-366 440,-366 440,-336 546,-336 546,-366"/>
<text text-anchor="start" x="448" y="-354" font-family="Helvetica,sans-Serif" font-size="10.00">lci::alloc_device_x</text>
<text text-anchor="middle" x="493" y="-343" font-family="Helvetica,sans-Serif" font-size="10.00">::net_context</text>
</a>
</g>
</g>
<!-- Node1&#45;&gt;Node8 -->
<g id="edge10_Node000001_Node000008" class="edge">
<title>Node1&#45;&gt;Node8</title>
<g id="a_edge10_Node000001_Node000008"><a xlink:title=" ">
<path fill="none" stroke="#63b8ff" d="M631.77,-254.35C615.74,-275.87 589.41,-307.36 560,-327 554.93,-330.39 549.32,-333.36 543.58,-335.97"/>
<polygon fill="#63b8ff" stroke="#63b8ff" points="634.74,-256.23 637.79,-246.08 629.08,-252.11 634.74,-256.23"/>
</a>
</g>
</g>
<!-- Node9 -->
<g id="Node000009" class="node">
<title>Node9</title>
<g id="a_Node000009"><a xlink:href="../../d9/d10/classlci_1_1alloc__device__x.html#acd2e7ade6e7e4c91b3144bd3068ead07" target="_top" xlink:title=" ">
<polygon fill="white" stroke="#666666" points="546,-318 440,-318 440,-288 546,-288 546,-318"/>
<text text-anchor="start" x="448" y="-306" font-family="Helvetica,sans-Serif" font-size="10.00">lci::alloc_device_x</text>
<text text-anchor="middle" x="493" y="-295" font-family="Helvetica,sans-Serif" font-size="10.00">::net_max_cqes</text>
</a>
</g>
</g>
<!-- Node1&#45;&gt;Node9 -->
<g id="edge13_Node000001_Node000009" class="edge">
<title>Node1&#45;&gt;Node9</title>
<g id="a_edge13_Node000001_Node000009"><a xlink:title=" ">
<path fill="none" stroke="#63b8ff" d="M613.72,-251.26C597.69,-260.33 578.16,-270.8 560,-279 553.11,-282.11 545.69,-285.12 538.39,-287.9"/>
<polygon fill="#63b8ff" stroke="#63b8ff" points="615.78,-254.12 622.72,-246.11 612.3,-248.04 615.78,-254.12"/>
</a>
</g>
</g>
<!-- Node10 -->
<g id="Node000010" class="node">
<title>Node10</title>
<g id="a_Node000010"><a xlink:href="../../d9/d10/classlci_1_1alloc__device__x.html#a4c8c86d9400791bb609b391aef165d68" target="_top" xlink:title=" ">
<polygon fill="white" stroke="#666666" points="546,-270 440,-270 440,-240 546,-240 546,-270"/>
<text text-anchor="start" x="448" y="-258" font-family="Helvetica,sans-Serif" font-size="10.00">lci::alloc_device_x</text>
<text text-anchor="middle" x="493" y="-247" font-family="Helvetica,sans-Serif" font-size="10.00">::net_max_recvs</text>
</a>
</g>
</g>
<!-- Node1&#45;&gt;Node10 -->
<g id="edge16_Node000001_Node000010" class="edge">
<title>Node1&#45;&gt;Node10</title>
<g id="a_edge16_Node000001_Node000010"><a xlink:title=" ">
<path fill="none" stroke="#63b8ff" d="M585.91,-240.68C572.69,-242.74 558.88,-244.89 546.08,-246.88"/>
<polygon fill="#63b8ff" stroke="#63b8ff" points="586.52,-244.12 595.86,-239.13 585.44,-237.21 586.52,-244.12"/>
</a>
</g>
</g>
<!-- Node11 -->
<g id="Node000011" class="node">
<title>Node11</title>
<g id="a_Node000011"><a xlink:href="../../d9/d10/classlci_1_1alloc__device__x.html#afe0d1c701b1611f00c3feaa22bd5f0cd" target="_top" xlink:title=" ">
<polygon fill="white" stroke="#666666" points="546,-222 440,-222 440,-192 546,-192 546,-222"/>
<text text-anchor="start" x="448" y="-210" font-family="Helvetica,sans-Serif" font-size="10.00">lci::alloc_device_x</text>
<text text-anchor="middle" x="493" y="-199" font-family="Helvetica,sans-Serif" font-size="10.00">::net_max_sends</text>
</a>
</g>
</g>
<!-- Node1&#45;&gt;Node11 -->
<g id="edge19_Node000001_Node000011" class="edge">
<title>Node1&#45;&gt;Node11</title>
<g id="a_edge19_Node000001_Node000011"><a xlink:title=" ">
<path fill="none" stroke="#63b8ff" d="M585.91,-221.32C572.69,-219.26 558.88,-217.11 546.08,-215.12"/>
<polygon fill="#63b8ff" stroke="#63b8ff" points="585.44,-224.79 595.86,-222.87 586.52,-217.88 585.44,-224.79"/>
</a>
</g>
</g>
<!-- Node12 -->
<g id="Node000012" class="node">
<title>Node12</title>
<g id="a_Node000012"><a xlink:href="../../d9/d10/classlci_1_1alloc__device__x.html#a7d316853b54b2a870ea35c387c1006e4" target="_top" xlink:title=" ">
<polygon fill="white" stroke="#666666" points="546,-174 440,-174 440,-144 546,-144 546,-174"/>
<text text-anchor="start" x="448" y="-162" font-family="Helvetica,sans-Serif" font-size="10.00">lci::alloc_device_x</text>
<text text-anchor="middle" x="493" y="-151" font-family="Helvetica,sans-Serif" font-size="10.00">::ofi_lock_mode</text>
</a>
</g>
</g>
<!-- Node1&#45;&gt;Node12 -->
<g id="edge22_Node000001_Node000012" class="edge">
<title>Node1&#45;&gt;Node12</title>
<g id="a_edge22_Node000001_Node000012"><a xlink:title=" ">
<path fill="none" stroke="#63b8ff" d="M613.72,-210.74C597.69,-201.67 578.16,-191.2 560,-183 553.11,-179.89 545.69,-176.88 538.39,-174.1"/>
<polygon fill="#63b8ff" stroke="#63b8ff" points="612.3,-213.96 622.72,-215.89 615.78,-207.88 612.3,-213.96"/>
</a>
</g>
</g>
<!-- Node13 -->
<g id="Node000013" class="node">
<title>Node13</title>
<g id="a_Node000013"><a xlink:href="../../d9/d10/classlci_1_1alloc__device__x.html#a561a0ed83694bc3350a801b629e5bd21" target="_top" xlink:title=" ">
<polygon fill="white" stroke="#666666" points="546,-126 440,-126 440,-96 546,-96 546,-126"/>
<text text-anchor="start" x="448" y="-114" font-family="Helvetica,sans-Serif" font-size="10.00">lci::alloc_device_x</text>
<text text-anchor="middle" x="493" y="-103" font-family="Helvetica,sans-Serif" font-size="10.00">::packet_pool</text>
</a>
</g>
</g>
<!-- Node1&#45;&gt;Node13 -->
<g id="edge25_Node000001_Node000013" class="edge">
<title>Node1&#45;&gt;Node13</title>
<g id="a_edge25_Node000001_Node000013"><a xlink:title=" ">
<path fill="none" stroke="#63b8ff" d="M631.77,-207.65C615.74,-186.13 589.41,-154.64 560,-135 554.93,-131.61 549.32,-128.64 543.58,-126.03"/>
<polygon fill="#63b8ff" stroke="#63b8ff" points="629.08,-209.89 637.79,-215.92 634.74,-205.77 629.08,-209.89"/>
</a>
</g>
</g>
<!-- Node14 -->
<g id="Node000014" class="node">
<title>Node14</title>
<g id="a_Node000014"><a xlink:href="../../d9/d10/classlci_1_1alloc__device__x.html#a56912fff6daa357d714dbbf3bf67af85" target="_top" xlink:title=" ">
<polygon fill="white" stroke="#666666" points="546,-78 440,-78 440,-48 546,-48 546,-78"/>
<text text-anchor="start" x="448" y="-66" font-family="Helvetica,sans-Serif" font-size="10.00">lci::alloc_device_x</text>
<text text-anchor="middle" x="493" y="-55" font-family="Helvetica,sans-Serif" font-size="10.00">::runtime</text>
</a>
</g>
</g>
<!-- Node1&#45;&gt;Node14 -->
<g id="edge28_Node000001_Node000014" class="edge">
<title>Node1&#45;&gt;Node14</title>
<g id="a_edge28_Node000001_Node000014"><a xlink:title=" ">
<path fill="none" stroke="#63b8ff" d="M638.88,-206.16C625.98,-174.3 599.5,-119.3 560,-87 555.85,-83.6 551.17,-80.67 546.28,-78.13"/>
<polygon fill="#63b8ff" stroke="#63b8ff" points="635.68,-207.6 642.59,-215.63 642.2,-205.05 635.68,-207.6"/>
</a>
</g>
</g>
<!-- Node15 -->
<g id="Node000015" class="node">
<title>Node15</title>
<g id="a_Node000015"><a xlink:href="../../d9/d10/classlci_1_1alloc__device__x.html#a5508f2d5c851ff147e9f8cd40db1ade3" target="_top" xlink:title=" ">
<polygon fill="white" stroke="#666666" points="546,-30 440,-30 440,0 546,0 546,-30"/>
<text text-anchor="start" x="448" y="-18" font-family="Helvetica,sans-Serif" font-size="10.00">lci::alloc_device_x</text>
<text text-anchor="middle" x="493" y="-7" font-family="Helvetica,sans-Serif" font-size="10.00">::user_context</text>
</a>
</g>
</g>
<!-- Node1&#45;&gt;Node15 -->
<g id="edge31_Node000001_Node000015" class="edge">
<title>Node1&#45;&gt;Node15</title>
<g id="a_edge31_Node000001_Node000015"><a xlink:title=" ">
<path fill="none" stroke="#63b8ff" d="M643.09,-206.08C633.85,-165.54 610.11,-85.21 560,-39 555.88,-35.2 551.1,-31.99 546.05,-29.28"/>
<polygon fill="#63b8ff" stroke="#63b8ff" points="639.69,-206.91 645.23,-215.94 646.53,-205.43 639.69,-206.91"/>
</a>
</g>
</g>
<!-- Node3 -->
<g id="Node000003" class="node">
<title>Node3</title>
<g id="a_Node000003"><a xlink:href="../../d9/d10/classlci_1_1alloc__device__x.html#accfc23b8c5a8d782aa772cc509749d14" target="_top" xlink:title=" ">
<polygon fill="white" stroke="#666666" points="248,-246 142,-246 142,-216 248,-216 248,-246"/>
<text text-anchor="start" x="150" y="-234" font-family="Helvetica,sans-Serif" font-size="10.00">lci::alloc_device_x</text>
<text text-anchor="middle" x="195" y="-223" font-family="Helvetica,sans-Serif" font-size="10.00">::call</text>
</a>
</g>
</g>
<!-- Node2&#45;&gt;Node3 -->
<g id="edge2_Node000002_Node000003" class="edge">
<title>Node2&#45;&gt;Node3</title>
<g id="a_edge2_Node000002_Node000003"><a xlink:title=" ">
<path fill="none" stroke="#63b8ff" d="M416.35,-429.13C374.03,-416.29 322.25,-395.57 284,-364 243.43,-330.51 214.61,-273.47 202.44,-246.28"/>
<polygon fill="#63b8ff" stroke="#63b8ff" points="415.48,-432.52 426.06,-431.99 417.46,-425.8 415.48,-432.52"/>
</a>
</g>
</g>
<!-- Node6 -->
<g id="Node000006" class="node">
<title>Node6</title>
<g id="a_Node000006"><a xlink:href="../../d9/d10/classlci_1_1alloc__device__x.html#a2c16de05605919626f83700604664fef" target="_top" xlink:title=" ">
<polygon fill="white" stroke="#666666" points="390,-246 284,-246 284,-216 390,-216 390,-246"/>
<text text-anchor="start" x="292" y="-234" font-family="Helvetica,sans-Serif" font-size="10.00">lci::alloc_device_x</text>
<text text-anchor="middle" x="337" y="-223" font-family="Helvetica,sans-Serif" font-size="10.00">::call_impl</text>
</a>
</g>
</g>
<!-- Node2&#45;&gt;Node6 -->
<g id="edge5_Node000002_Node000006" class="edge">
<title>Node2&#45;&gt;Node6</title>
<g id="a_edge5_Node000002_Node000006"><a xlink:title=" ">
<path fill="none" stroke="#63b8ff" d="M429.59,-426.04C428.35,-425.07 427.15,-424.06 426,-423 371.41,-372.66 348.12,-281.83 340.77,-246.06"/>
<polygon fill="#63b8ff" stroke="#63b8ff" points="428.04,-429.22 438.31,-431.82 431.91,-423.38 428.04,-429.22"/>
</a>
</g>
</g>
<!-- Node4 -->
<g id="Node000004" class="node">
<title>Node4</title>
<g id="a_Node000004"><a xlink:href="../../d5/dd3/namespacelci.html#a1b2bde330a483b62792ab033887af4ab" target="_top" xlink:title=" ">
<polygon fill="white" stroke="#666666" points="100.5,-262.5 5.5,-262.5 5.5,-243.5 100.5,-243.5 100.5,-262.5"/>
<text text-anchor="middle" x="53" y="-250.5" font-family="Helvetica,sans-Serif" font-size="10.00">lci::alloc_device</text>
</a>
</g>
</g>
<!-- Node3&#45;&gt;Node4 -->
<g id="edge3_Node000003_Node000004" class="edge">
<title>Node3&#45;&gt;Node4</title>
<g id="a_edge3_Node000003_Node000004"><a xlink:title=" ">
<path fill="none" stroke="#63b8ff" d="M131.9,-240.76C121.4,-242.41 110.66,-244.1 100.64,-245.67"/>
<polygon fill="#63b8ff" stroke="#63b8ff" points="132.53,-244.2 141.87,-239.19 131.45,-237.29 132.53,-244.2"/>
</a>
</g>
</g>
<!-- Node5 -->
<g id="Node000005" class="node">
<title>Node5</title>
<g id="a_Node000005"><a xlink:href="../../d9/d10/classlci_1_1alloc__device__x.html#ac9b81fdbabe3537b17f464715054d45f" target="_top" xlink:title=" ">
<polygon fill="white" stroke="#666666" points="106,-225 0,-225 0,-195 106,-195 106,-225"/>
<text text-anchor="start" x="8" y="-213" font-family="Helvetica,sans-Serif" font-size="10.00">lci::alloc_device_x</text>
<text text-anchor="middle" x="53" y="-202" font-family="Helvetica,sans-Serif" font-size="10.00">::operator()</text>
</a>
</g>
</g>
<!-- Node3&#45;&gt;Node5 -->
<g id="edge4_Node000003_Node000005" class="edge">
<title>Node3&#45;&gt;Node5</title>
<g id="a_edge4_Node000003_Node000005"><a xlink:title=" ">
<path fill="none" stroke="#63b8ff" d="M131.89,-221.68C123.31,-220.4 114.56,-219.08 106.17,-217.83"/>
<polygon fill="#63b8ff" stroke="#63b8ff" points="131.46,-225.16 141.87,-223.18 132.5,-218.24 131.46,-225.16"/>
</a>
</g>
</g>
<!-- Node6&#45;&gt;Node3 -->
<g id="edge6_Node000006_Node000003" class="edge">
<title>Node6&#45;&gt;Node3</title>
<g id="a_edge6_Node000006_Node000003"><a xlink:title=" ">
<path fill="none" stroke="#63b8ff" d="M273.61,-231C265.12,-231 256.47,-231 248.17,-231"/>
<polygon fill="#63b8ff" stroke="#63b8ff" points="273.87,-234.5 283.87,-231 273.87,-227.5 273.87,-234.5"/>
</a>
</g>
</g>
<!-- Node7&#45;&gt;Node3 -->
<g id="edge8_Node000007_Node000003" class="edge">
<title>Node7&#45;&gt;Node3</title>
<g id="a_edge8_Node000007_Node000003"><a xlink:title=" ">
<path fill="none" stroke="#63b8ff" d="M429.78,-386.05C386.42,-375.04 328.6,-356.29 284,-327 250.36,-304.91 220.96,-267.13 206.16,-246.15"/>
<polygon fill="#63b8ff" stroke="#63b8ff" points="429.09,-389.48 439.63,-388.48 430.76,-382.68 429.09,-389.48"/>
</a>
</g>
</g>
<!-- Node7&#45;&gt;Node6 -->
<g id="edge9_Node000007_Node000006" class="edge">
<title>Node7&#45;&gt;Node6</title>
<g id="a_edge9_Node000007_Node000006"><a xlink:title=" ">
<path fill="none" stroke="#63b8ff" d="M430.88,-378.63C429.19,-377.48 427.56,-376.27 426,-375 382.23,-339.2 354.44,-275.53 343.41,-246.37"/>
<polygon fill="#63b8ff" stroke="#63b8ff" points="429.34,-381.79 439.72,-383.87 432.9,-375.76 429.34,-381.79"/>
</a>
</g>
</g>
<!-- Node8&#45;&gt;Node3 -->
<g id="edge11_Node000008_Node000003" class="edge">
<title>Node8&#45;&gt;Node3</title>
<g id="a_edge11_Node000008_Node000003"><a xlink:title=" ">
<path fill="none" stroke="#63b8ff" d="M429.79,-340.45C387.32,-331.78 330.54,-317.25 284,-295 256.9,-282.05 229.52,-260.5 212.66,-246.02"/>
<polygon fill="#63b8ff" stroke="#63b8ff" points="429.22,-343.91 439.71,-342.42 430.59,-337.04 429.22,-343.91"/>
</a>
</g>
</g>
<!-- Node8&#45;&gt;Node6 -->
<g id="edge12_Node000008_Node000006" class="edge">
<title>Node8&#45;&gt;Node6</title>
<g id="a_edge12_Node000008_Node000006"><a xlink:title=" ">
<path fill="none" stroke="#63b8ff" d="M433.44,-331.5C430.87,-330.08 428.38,-328.59 426,-327 392.53,-304.65 363.06,-266.97 348.21,-246.08"/>
<polygon fill="#63b8ff" stroke="#63b8ff" points="431.91,-334.64 442.42,-335.97 435.03,-328.37 431.91,-334.64"/>
</a>
</g>
</g>
<!-- Node9&#45;&gt;Node3 -->
<g id="edge14_Node000009_Node000003" class="edge">
<title>Node9&#45;&gt;Node3</title>
<g id="a_edge14_Node000009_Node000003"><a xlink:title=" ">
<path fill="none" stroke="#63b8ff" d="M429.8,-297.92C387.94,-293.42 331.87,-285.27 284,-271 263.09,-264.77 240.73,-254.55 223.77,-246"/>
<polygon fill="#63b8ff" stroke="#63b8ff" points="429.54,-301.42 439.85,-298.97 430.26,-294.45 429.54,-301.42"/>
</a>
</g>
</g>
<!-- Node9&#45;&gt;Node6 -->
<g id="edge15_Node000009_Node000006" class="edge">
<title>Node9&#45;&gt;Node6</title>
<g id="a_edge15_Node000009_Node000006"><a xlink:title=" ">
<path fill="none" stroke="#63b8ff" d="M438.02,-284.13C433.92,-282.47 429.88,-280.75 426,-279 404.27,-269.19 380.6,-256.13 363.28,-246.11"/>
<polygon fill="#63b8ff" stroke="#63b8ff" points="437.02,-287.5 447.61,-287.9 439.58,-280.99 437.02,-287.5"/>
</a>
</g>
</g>
<!-- Node10&#45;&gt;Node3 -->
<g id="edge17_Node000010_Node000003" class="edge">
<title>Node10&#45;&gt;Node3</title>
<g id="a_edge17_Node000010_Node000003"><a xlink:title=" ">
<path fill="none" stroke="#63b8ff" d="M429.38,-259.32C387.94,-261.11 332.5,-261.5 284,-255 270.19,-253.15 255.47,-249.74 242.11,-246.05"/>
<polygon fill="#63b8ff" stroke="#63b8ff" points="429.78,-262.8 439.6,-258.83 429.45,-255.81 429.78,-262.8"/>
</a>
</g>
</g>
<!-- Node10&#45;&gt;Node6 -->
<g id="edge18_Node000010_Node000006" class="edge">
<title>Node10&#45;&gt;Node6</title>
<g id="a_edge18_Node000010_Node000006"><a xlink:title=" ">
<path fill="none" stroke="#63b8ff" d="M429.91,-245.32C416.69,-243.26 402.88,-241.11 390.08,-239.12"/>
<polygon fill="#63b8ff" stroke="#63b8ff" points="429.44,-248.79 439.86,-246.87 430.52,-241.88 429.44,-248.79"/>
</a>
</g>
</g>
<!-- Node11&#45;&gt;Node3 -->
<g id="edge20_Node000011_Node000003" class="edge">
<title>Node11&#45;&gt;Node3</title>
<g id="a_edge20_Node000011_Node000003"><a xlink:title=" ">
<path fill="none" stroke="#63b8ff" d="M429.38,-202.68C387.94,-200.89 332.5,-200.5 284,-207 270.19,-208.85 255.47,-212.26 242.11,-215.95"/>
<polygon fill="#63b8ff" stroke="#63b8ff" points="429.45,-206.19 439.6,-203.17 429.78,-199.2 429.45,-206.19"/>
</a>
</g>
</g>
<!-- Node11&#45;&gt;Node6 -->
<g id="edge21_Node000011_Node000006" class="edge">
<title>Node11&#45;&gt;Node6</title>
<g id="a_edge21_Node000011_Node000006"><a xlink:title=" ">
<path fill="none" stroke="#63b8ff" d="M429.91,-216.68C416.69,-218.74 402.88,-220.89 390.08,-222.88"/>
<polygon fill="#63b8ff" stroke="#63b8ff" points="430.52,-220.12 439.86,-215.13 429.44,-213.21 430.52,-220.12"/>
</a>
</g>
</g>
<!-- Node12&#45;&gt;Node3 -->
<g id="edge23_Node000012_Node000003" class="edge">
<title>Node12&#45;&gt;Node3</title>
<g id="a_edge23_Node000012_Node000003"><a xlink:title=" ">
<path fill="none" stroke="#63b8ff" d="M429.66,-167.26C387.97,-173.54 332.15,-183.43 284,-197 266.03,-202.06 246.61,-209.36 230.6,-215.9"/>
<polygon fill="#63b8ff" stroke="#63b8ff" points="430.29,-170.7 439.67,-165.78 429.26,-163.78 430.29,-170.7"/>
</a>
</g>
</g>
<!-- Node12&#45;&gt;Node6 -->
<g id="edge24_Node000012_Node000006" class="edge">
<title>Node12&#45;&gt;Node6</title>
<g id="a_edge24_Node000012_Node000006"><a xlink:title=" ">
<path fill="none" stroke="#63b8ff" d="M438.02,-177.87C433.92,-179.53 429.88,-181.25 426,-183 404.27,-192.81 380.6,-205.87 363.28,-215.89"/>
<polygon fill="#63b8ff" stroke="#63b8ff" points="439.58,-181.01 447.61,-174.1 437.02,-174.5 439.58,-181.01"/>
</a>
</g>
</g>
<!-- Node13&#45;&gt;Node3 -->
<g id="edge26_Node000013_Node000003" class="edge">
<title>Node13&#45;&gt;Node3</title>
<g id="a_edge26_Node000013_Node000003"><a xlink:title=" ">
<path fill="none" stroke="#63b8ff" d="M429.96,-122.96C387.57,-132.47 330.82,-147.89 284,-170 257.95,-182.31 231.18,-202.07 214.12,-215.75"/>
<polygon fill="#63b8ff" stroke="#63b8ff" points="430.85,-126.35 439.87,-120.79 429.35,-119.51 430.85,-126.35"/>
</a>
</g>
</g>
<!-- Node13&#45;&gt;Node6 -->
<g id="edge27_Node000013_Node000006" class="edge">
<title>Node13&#45;&gt;Node6</title>
<g id="a_edge27_Node000013_Node000006"><a xlink:title=" ">
<path fill="none" stroke="#63b8ff" d="M433.44,-130.5C430.87,-131.92 428.38,-133.41 426,-135 392.53,-157.35 363.06,-195.03 348.21,-215.92"/>
<polygon fill="#63b8ff" stroke="#63b8ff" points="435.03,-133.63 442.42,-126.03 431.91,-127.36 435.03,-133.63"/>
</a>
</g>
</g>
<!-- Node14&#45;&gt;Node3 -->
<g id="edge29_Node000014_Node000003" class="edge">
<title>Node14&#45;&gt;Node3</title>
<g id="a_edge29_Node000014_Node000003"><a xlink:title=" ">
<path fill="none" stroke="#63b8ff" d="M429.89,-72.96C386.34,-82.1 328.24,-98.81 284,-128 248.47,-151.45 219.19,-193.23 205.08,-215.7"/>
<polygon fill="#63b8ff" stroke="#63b8ff" points="430.69,-76.37 439.79,-70.95 429.3,-69.51 430.69,-76.37"/>
</a>
</g>
</g>
<!-- Node14&#45;&gt;Node6 -->
<g id="edge30_Node000014_Node000006" class="edge">
<title>Node14&#45;&gt;Node6</title>
<g id="a_edge30_Node000014_Node000006"><a xlink:title=" ">
<path fill="none" stroke="#63b8ff" d="M430.88,-83.37C429.19,-84.52 427.56,-85.73 426,-87 382.23,-122.8 354.44,-186.47 343.41,-215.63"/>
<polygon fill="#63b8ff" stroke="#63b8ff" points="432.9,-86.24 439.72,-78.13 429.34,-80.21 432.9,-86.24"/>
</a>
</g>
</g>
<!-- Node15&#45;&gt;Node3 -->
<g id="edge32_Node000015_Node000003" class="edge">
<title>Node15&#45;&gt;Node3</title>
<g id="a_edge32_Node000015_Node000003"><a xlink:title=" ">
<path fill="none" stroke="#63b8ff" d="M429.48,-21.98C384.95,-29.67 325.82,-45.71 284,-79 237.24,-116.22 210.5,-185.55 200.53,-216"/>
<polygon fill="#63b8ff" stroke="#63b8ff" points="430.29,-25.39 439.6,-20.33 429.17,-18.48 430.29,-25.39"/>
</a>
</g>
</g>
<!-- Node15&#45;&gt;Node6 -->
<g id="edge33_Node000015_Node000006" class="edge">
<title>Node15&#45;&gt;Node6</title>
<g id="a_edge33_Node000015_Node000006"><a xlink:title=" ">
<path fill="none" stroke="#63b8ff" d="M431.32,-34.65C429.46,-36.01 427.68,-37.46 426,-39 371.41,-89.34 348.12,-180.17 340.77,-215.94"/>
<polygon fill="#63b8ff" stroke="#63b8ff" points="433.31,-37.54 439.95,-29.28 429.61,-31.59 433.31,-37.54"/>
</a>
</g>
</g>
</g>
</svg>
