<?xml version="1.0" encoding="UTF-8" standalone="no"?>
<!DOCTYPE svg PUBLIC "-//W3C//DTD SVG 1.1//EN"
 "http://www.w3.org/Graphics/SVG/1.1/DTD/svg11.dtd">
<!-- Generated by graphviz version 2.43.0 (0)
 -->
<!-- Title: lci::free_endpoint_x::call Pages: 1 -->
<svg width="532pt" height="86pt"
 viewBox="0.00 0.00 532.00 86.00" xmlns="http://www.w3.org/2000/svg" xmlns:xlink="http://www.w3.org/1999/xlink">
<g id="graph0" class="graph" transform="scale(1 1) rotate(0) translate(4 82)">
<title>lci::free_endpoint_x::call</title>
<!-- Node1 -->
<g id="Node000001" class="node">
<title>Node1</title>
<g id="a_Node000001"><a xlink:title=" ">
<polygon fill="#999999" stroke="#666666" points="101,-54 0,-54 0,-24 101,-24 101,-54"/>
<text text-anchor="start" x="8" y="-42" font-family="Helvetica,sans-Serif" font-size="10.00">lci::free_endpoint</text>
<text text-anchor="middle" x="50.5" y="-31" font-family="Helvetica,sans-Serif" font-size="10.00">_x::call</text>
</a>
</g>
</g>
<!-- Node2 -->
<g id="Node000002" class="node">
<title>Node2</title>
<g id="a_Node000002"><a xlink:href="../../db/d53/classlci_1_1free__endpoint__x.html#aa0d7624e5fbccebfeaa952395d417008" target="_top" xlink:title=" ">
<polygon fill="white" stroke="#666666" points="238,-54 137,-54 137,-24 238,-24 238,-54"/>
<text text-anchor="start" x="145" y="-42" font-family="Helvetica,sans-Serif" font-size="10.00">lci::free_endpoint</text>
<text text-anchor="middle" x="187.5" y="-31" font-family="Helvetica,sans-Serif" font-size="10.00">_x::call_impl</text>
</a>
</g>
</g>
<!-- Node1&#45;&gt;Node2 -->
<g id="edge1_Node000001_Node000002" class="edge">
<title>Node1&#45;&gt;Node2</title>
<g id="a_edge1_Node000001_Node000002"><a xlink:title=" ">
<path fill="none" stroke="#63b8ff" d="M101,-39C109.24,-39 117.87,-39 126.34,-39"/>
<polygon fill="#63b8ff" stroke="#63b8ff" points="126.55,-42.5 136.55,-39 126.55,-35.5 126.55,-42.5"/>
</a>
</g>
</g>
<!-- Node3 -->
<g id="Node000003" class="node">
<title>Node3</title>
<g id="a_Node000003"><a xlink:href="../../db/d53/classlci_1_1free__endpoint__x.html#a6a97c1c61ac7f407c05593feea545549" target="_top" xlink:title=" ">
<polygon fill="white" stroke="#666666" points="375,-78 274,-78 274,-48 375,-48 375,-78"/>
<text text-anchor="start" x="282" y="-66" font-family="Helvetica,sans-Serif" font-size="10.00">lci::free_endpoint</text>
<text text-anchor="middle" x="324.5" y="-55" font-family="Helvetica,sans-Serif" font-size="10.00">_x::endpoint</text>
</a>
</g>
</g>
<!-- Node1&#45;&gt;Node3 -->
<g id="edge6_Node000001_Node000003" class="edge">
<title>Node1&#45;&gt;Node3</title>
<g id="a_edge6_Node000001_Node000003"><a xlink:title=" ">
<path fill="none" stroke="#63b8ff" d="M96.27,-54.05C109.26,-57.74 123.56,-61.15 137,-63 179.07,-68.79 226.99,-68.65 263.72,-67.13"/>
<polygon fill="#63b8ff" stroke="#63b8ff" points="263.94,-70.63 273.77,-66.67 263.62,-63.63 263.94,-70.63"/>
</a>
</g>
</g>
<!-- Node5 -->
<g id="Node000005" class="node">
<title>Node5</title>
<g id="a_Node000005"><a xlink:href="../../db/d53/classlci_1_1free__endpoint__x.html#ae61125161b694cd1ecf972f35f133cf1" target="_top" xlink:title=" ">
<polygon fill="white" stroke="#666666" points="375,-30 274,-30 274,0 375,0 375,-30"/>
<text text-anchor="start" x="282" y="-18" font-family="Helvetica,sans-Serif" font-size="10.00">lci::free_endpoint</text>
<text text-anchor="middle" x="324.5" y="-7" font-family="Helvetica,sans-Serif" font-size="10.00">_x::runtime</text>
</a>
</g>
</g>
<!-- Node1&#45;&gt;Node5 -->
<g id="edge7_Node000001_Node000005" class="edge">
<title>Node1&#45;&gt;Node5</title>
<g id="a_edge7_Node000001_Node000005"><a xlink:title=" ">
<path fill="none" stroke="#63b8ff" d="M96.27,-23.95C109.26,-20.26 123.56,-16.85 137,-15 179.07,-9.21 226.99,-9.35 263.72,-10.87"/>
<polygon fill="#63b8ff" stroke="#63b8ff" points="263.62,-14.37 273.77,-11.33 263.94,-7.37 263.62,-14.37"/>
</a>
</g>
</g>
<!-- Node2&#45;&gt;Node3 -->
<g id="edge2_Node000002_Node000003" class="edge">
<title>Node2&#45;&gt;Node3</title>
<g id="a_edge2_Node000002_Node000003"><a xlink:title=" ">
<path fill="none" stroke="#63b8ff" d="M238,-47.8C246.33,-49.28 255.06,-50.83 263.61,-52.35"/>
<polygon fill="#63b8ff" stroke="#63b8ff" points="263.09,-55.82 273.55,-54.12 264.32,-48.92 263.09,-55.82"/>
</a>
</g>
</g>
<!-- Node2&#45;&gt;Node5 -->
<g id="edge4_Node000002_Node000005" class="edge">
<title>Node2&#45;&gt;Node5</title>
<g id="a_edge4_Node000002_Node000005"><a xlink:title=" ">
<path fill="none" stroke="#63b8ff" d="M238,-30.2C246.33,-28.72 255.06,-27.17 263.61,-25.65"/>
<polygon fill="#63b8ff" stroke="#63b8ff" points="264.32,-29.08 273.55,-23.88 263.09,-22.18 264.32,-29.08"/>
</a>
</g>
</g>
<!-- Node4 -->
<g id="Node000004" class="node">
<title>Node4</title>
<g id="a_Node000004"><a xlink:href="../../db/d53/classlci_1_1free__endpoint__x.html#a81aa49f26f9c391f207ec349ba200332" target="_top" xlink:title=" ">
<polygon fill="white" stroke="#666666" points="524,-54 411,-54 411,-24 524,-24 524,-54"/>
<text text-anchor="start" x="419" y="-42" font-family="Helvetica,sans-Serif" font-size="10.00">lci::free_endpoint</text>
<text text-anchor="middle" x="467.5" y="-31" font-family="Helvetica,sans-Serif" font-size="10.00">_x::free_endpoint_x</text>
</a>
</g>
</g>
<!-- Node3&#45;&gt;Node4 -->
<g id="edge3_Node000003_Node000004" class="edge">
<title>Node3&#45;&gt;Node4</title>
<g id="a_edge3_Node000003_Node000004"><a xlink:title=" ">
<path fill="none" stroke="#63b8ff" d="M375.21,-54.54C383.53,-53.12 392.28,-51.63 400.92,-50.16"/>
<polygon fill="#63b8ff" stroke="#63b8ff" points="401.72,-53.58 410.99,-48.45 400.55,-46.68 401.72,-53.58"/>
</a>
</g>
</g>
<!-- Node5&#45;&gt;Node4 -->
<g id="edge5_Node000005_Node000004" class="edge">
<title>Node5&#45;&gt;Node4</title>
<g id="a_edge5_Node000005_Node000004"><a xlink:title=" ">
<path fill="none" stroke="#63b8ff" d="M375.21,-23.46C383.53,-24.88 392.28,-26.37 400.92,-27.84"/>
<polygon fill="#63b8ff" stroke="#63b8ff" points="400.55,-31.32 410.99,-29.55 401.72,-24.42 400.55,-31.32"/>
</a>
</g>
</g>
</g>
</svg>
