<?xml version="1.0" encoding="UTF-8" standalone="no"?>
<!DOCTYPE svg PUBLIC "-//W3C//DTD SVG 1.1//EN"
 "http://www.w3.org/Graphics/SVG/1.1/DTD/svg11.dtd">
<!-- Generated by graphviz version 2.43.0 (0)
 -->
<!-- Title: lci::net_post_send_x::net_post_send_x Pages: 1 -->
<svg width="684pt" height="422pt"
 viewBox="0.00 0.00 684.00 422.00" xmlns="http://www.w3.org/2000/svg" xmlns:xlink="http://www.w3.org/1999/xlink">
<g id="graph0" class="graph" transform="scale(1 1) rotate(0) translate(4 418)">
<title>lci::net_post_send_x::net_post_send_x</title>
<!-- Node1 -->
<g id="Node000001" class="node">
<title>Node1</title>
<g id="a_Node000001"><a xlink:title=" ">
<polygon fill="#999999" stroke="#666666" points="676,-222 560,-222 560,-192 676,-192 676,-222"/>
<text text-anchor="start" x="568" y="-210" font-family="Helvetica,sans-Serif" font-size="10.00">lci::net_post_send</text>
<text text-anchor="middle" x="618" y="-199" font-family="Helvetica,sans-Serif" font-size="10.00">_x::net_post_send_x</text>
</a>
</g>
</g>
<!-- Node2 -->
<g id="Node000002" class="node">
<title>Node2</title>
<g id="a_Node000002"><a xlink:href="../../d8/ddd/classlci_1_1net__post__send__x.html#a6283f6069ed0588800193e12f309fdca" target="_top" xlink:title=" ">
<polygon fill="white" stroke="#666666" points="524,-414 420,-414 420,-384 524,-384 524,-414"/>
<text text-anchor="start" x="428" y="-402" font-family="Helvetica,sans-Serif" font-size="10.00">lci::net_post_send</text>
<text text-anchor="middle" x="472" y="-391" font-family="Helvetica,sans-Serif" font-size="10.00">_x::buffer</text>
</a>
</g>
</g>
<!-- Node1&#45;&gt;Node2 -->
<g id="edge1_Node000001_Node000002" class="edge">
<title>Node1&#45;&gt;Node2</title>
<g id="a_edge1_Node000001_Node000002"><a xlink:title=" ">
<path fill="none" stroke="#63b8ff" d="M608.9,-231.66C596.05,-267.44 567.85,-333.94 524,-375 520.43,-378.34 516.31,-381.3 511.99,-383.89"/>
<polygon fill="#63b8ff" stroke="#63b8ff" points="612.28,-232.61 612.26,-222.02 605.67,-230.31 612.28,-232.61"/>
</a>
</g>
</g>
<!-- Node7 -->
<g id="Node000007" class="node">
<title>Node7</title>
<g id="a_Node000007"><a xlink:href="../../d8/ddd/classlci_1_1net__post__send__x.html#abce3b7b47b735af18ec0f1d2f13f1c8e" target="_top" xlink:title=" ">
<polygon fill="white" stroke="#666666" points="524,-366 420,-366 420,-336 524,-336 524,-366"/>
<text text-anchor="start" x="428" y="-354" font-family="Helvetica,sans-Serif" font-size="10.00">lci::net_post_send</text>
<text text-anchor="middle" x="472" y="-343" font-family="Helvetica,sans-Serif" font-size="10.00">_x::device</text>
</a>
</g>
</g>
<!-- Node1&#45;&gt;Node7 -->
<g id="edge7_Node000001_Node000007" class="edge">
<title>Node1&#45;&gt;Node7</title>
<g id="a_edge7_Node000001_Node000007"><a xlink:title=" ">
<path fill="none" stroke="#63b8ff" d="M603.37,-230.74C587.24,-257.11 558.22,-299.57 524,-327 519.88,-330.3 515.22,-333.28 510.45,-335.93"/>
<polygon fill="#63b8ff" stroke="#63b8ff" points="606.39,-232.51 608.52,-222.13 600.38,-228.91 606.39,-232.51"/>
</a>
</g>
</g>
<!-- Node8 -->
<g id="Node000008" class="node">
<title>Node8</title>
<g id="a_Node000008"><a xlink:href="../../d8/ddd/classlci_1_1net__post__send__x.html#ac77f3e2e661538803decf449bb17ff0d" target="_top" xlink:title=" ">
<polygon fill="white" stroke="#666666" points="524,-318 420,-318 420,-288 524,-288 524,-318"/>
<text text-anchor="start" x="428" y="-306" font-family="Helvetica,sans-Serif" font-size="10.00">lci::net_post_send</text>
<text text-anchor="middle" x="472" y="-295" font-family="Helvetica,sans-Serif" font-size="10.00">_x::endpoint</text>
</a>
</g>
</g>
<!-- Node1&#45;&gt;Node8 -->
<g id="edge10_Node000001_Node000008" class="edge">
<title>Node1&#45;&gt;Node8</title>
<g id="a_edge10_Node000001_Node000008"><a xlink:title=" ">
<path fill="none" stroke="#63b8ff" d="M592.23,-228.6C574.09,-243.8 548.47,-264.02 524,-279 518.83,-282.17 513.17,-285.21 507.56,-288"/>
<polygon fill="#63b8ff" stroke="#63b8ff" points="594.64,-231.14 600,-222.01 590.11,-225.8 594.64,-231.14"/>
</a>
</g>
</g>
<!-- Node9 -->
<g id="Node000009" class="node">
<title>Node9</title>
<g id="a_Node000009"><a xlink:href="../../d8/ddd/classlci_1_1net__post__send__x.html#a15e8070dc9363ae4469d8b7b8f68e10b" target="_top" xlink:title=" ">
<polygon fill="white" stroke="#666666" points="524,-270 420,-270 420,-240 524,-240 524,-270"/>
<text text-anchor="start" x="428" y="-258" font-family="Helvetica,sans-Serif" font-size="10.00">lci::net_post_send</text>
<text text-anchor="middle" x="472" y="-247" font-family="Helvetica,sans-Serif" font-size="10.00">_x::imm_data</text>
</a>
</g>
</g>
<!-- Node1&#45;&gt;Node9 -->
<g id="edge13_Node000001_Node000009" class="edge">
<title>Node1&#45;&gt;Node9</title>
<g id="a_edge13_Node000001_Node000009"><a xlink:title=" ">
<path fill="none" stroke="#63b8ff" d="M561.96,-225.35C547.44,-230.19 531.93,-235.36 518.01,-240"/>
<polygon fill="#63b8ff" stroke="#63b8ff" points="563.45,-228.54 571.83,-222.06 561.24,-221.9 563.45,-228.54"/>
</a>
</g>
</g>
<!-- Node10 -->
<g id="Node000010" class="node">
<title>Node10</title>
<g id="a_Node000010"><a xlink:href="../../d8/ddd/classlci_1_1net__post__send__x.html#ab8e0258941b103c81dcab9c247404a3f" target="_top" xlink:title=" ">
<polygon fill="white" stroke="#666666" points="524,-222 420,-222 420,-192 524,-192 524,-222"/>
<text text-anchor="start" x="428" y="-210" font-family="Helvetica,sans-Serif" font-size="10.00">lci::net_post_send</text>
<text text-anchor="middle" x="472" y="-199" font-family="Helvetica,sans-Serif" font-size="10.00">_x::mr</text>
</a>
</g>
</g>
<!-- Node1&#45;&gt;Node10 -->
<g id="edge16_Node000001_Node000010" class="edge">
<title>Node1&#45;&gt;Node10</title>
<g id="a_edge16_Node000001_Node000010"><a xlink:title=" ">
<path fill="none" stroke="#63b8ff" d="M549.65,-207C541.05,-207 532.36,-207 524.07,-207"/>
<polygon fill="#63b8ff" stroke="#63b8ff" points="549.67,-210.5 559.67,-207 549.67,-203.5 549.67,-210.5"/>
</a>
</g>
</g>
<!-- Node11 -->
<g id="Node000011" class="node">
<title>Node11</title>
<g id="a_Node000011"><a xlink:href="../../d8/ddd/classlci_1_1net__post__send__x.html#aec89b8c935f893989b7f24dd2aea3e4f" target="_top" xlink:title=" ">
<polygon fill="white" stroke="#666666" points="524,-174 420,-174 420,-144 524,-144 524,-174"/>
<text text-anchor="start" x="428" y="-162" font-family="Helvetica,sans-Serif" font-size="10.00">lci::net_post_send</text>
<text text-anchor="middle" x="472" y="-151" font-family="Helvetica,sans-Serif" font-size="10.00">_x::rank</text>
</a>
</g>
</g>
<!-- Node1&#45;&gt;Node11 -->
<g id="edge19_Node000001_Node000011" class="edge">
<title>Node1&#45;&gt;Node11</title>
<g id="a_edge19_Node000001_Node000011"><a xlink:title=" ">
<path fill="none" stroke="#63b8ff" d="M561.96,-188.65C547.44,-183.81 531.93,-178.64 518.01,-174"/>
<polygon fill="#63b8ff" stroke="#63b8ff" points="561.24,-192.1 571.83,-191.94 563.45,-185.46 561.24,-192.1"/>
</a>
</g>
</g>
<!-- Node12 -->
<g id="Node000012" class="node">
<title>Node12</title>
<g id="a_Node000012"><a xlink:href="../../d8/ddd/classlci_1_1net__post__send__x.html#a1c39b0d356cb57df0d4e3950db73e09a" target="_top" xlink:title=" ">
<polygon fill="white" stroke="#666666" points="524,-126 420,-126 420,-96 524,-96 524,-126"/>
<text text-anchor="start" x="428" y="-114" font-family="Helvetica,sans-Serif" font-size="10.00">lci::net_post_send</text>
<text text-anchor="middle" x="472" y="-103" font-family="Helvetica,sans-Serif" font-size="10.00">_x::runtime</text>
</a>
</g>
</g>
<!-- Node1&#45;&gt;Node12 -->
<g id="edge22_Node000001_Node000012" class="edge">
<title>Node1&#45;&gt;Node12</title>
<g id="a_edge22_Node000001_Node000012"><a xlink:title=" ">
<path fill="none" stroke="#63b8ff" d="M592.23,-185.4C574.09,-170.2 548.47,-149.98 524,-135 518.83,-131.83 513.17,-128.79 507.56,-126"/>
<polygon fill="#63b8ff" stroke="#63b8ff" points="590.11,-188.2 600,-191.99 594.64,-182.86 590.11,-188.2"/>
</a>
</g>
</g>
<!-- Node13 -->
<g id="Node000013" class="node">
<title>Node13</title>
<g id="a_Node000013"><a xlink:href="../../d8/ddd/classlci_1_1net__post__send__x.html#a945c3e9aeed4f91eb2ef1a6c128678b3" target="_top" xlink:title=" ">
<polygon fill="white" stroke="#666666" points="524,-78 420,-78 420,-48 524,-48 524,-78"/>
<text text-anchor="start" x="428" y="-66" font-family="Helvetica,sans-Serif" font-size="10.00">lci::net_post_send</text>
<text text-anchor="middle" x="472" y="-55" font-family="Helvetica,sans-Serif" font-size="10.00">_x::size</text>
</a>
</g>
</g>
<!-- Node1&#45;&gt;Node13 -->
<g id="edge25_Node000001_Node000013" class="edge">
<title>Node1&#45;&gt;Node13</title>
<g id="a_edge25_Node000001_Node000013"><a xlink:title=" ">
<path fill="none" stroke="#63b8ff" d="M603.37,-183.26C587.24,-156.89 558.22,-114.43 524,-87 519.88,-83.7 515.22,-80.72 510.45,-78.07"/>
<polygon fill="#63b8ff" stroke="#63b8ff" points="600.38,-185.09 608.52,-191.87 606.39,-181.49 600.38,-185.09"/>
</a>
</g>
</g>
<!-- Node14 -->
<g id="Node000014" class="node">
<title>Node14</title>
<g id="a_Node000014"><a xlink:href="../../d8/ddd/classlci_1_1net__post__send__x.html#aeda95c7c76d38e42b89312536df0ce21" target="_top" xlink:title=" ">
<polygon fill="white" stroke="#666666" points="524,-30 420,-30 420,0 524,0 524,-30"/>
<text text-anchor="start" x="428" y="-18" font-family="Helvetica,sans-Serif" font-size="10.00">lci::net_post_send</text>
<text text-anchor="middle" x="472" y="-7" font-family="Helvetica,sans-Serif" font-size="10.00">_x::user_context</text>
</a>
</g>
</g>
<!-- Node1&#45;&gt;Node14 -->
<g id="edge28_Node000001_Node000014" class="edge">
<title>Node1&#45;&gt;Node14</title>
<g id="a_edge28_Node000001_Node000014"><a xlink:title=" ">
<path fill="none" stroke="#63b8ff" d="M608.9,-182.34C596.05,-146.56 567.85,-80.06 524,-39 520.43,-35.66 516.31,-32.7 511.99,-30.11"/>
<polygon fill="#63b8ff" stroke="#63b8ff" points="605.67,-183.69 612.26,-191.98 612.28,-181.39 605.67,-183.69"/>
</a>
</g>
</g>
<!-- Node3 -->
<g id="Node000003" class="node">
<title>Node3</title>
<g id="a_Node000003"><a xlink:href="../../d8/ddd/classlci_1_1net__post__send__x.html#a97d776c93f7286bfe1f46022b1f6d108" target="_top" xlink:title=" ">
<polygon fill="white" stroke="#666666" points="244,-217 140,-217 140,-187 244,-187 244,-217"/>
<text text-anchor="start" x="148" y="-205" font-family="Helvetica,sans-Serif" font-size="10.00">lci::net_post_send</text>
<text text-anchor="middle" x="192" y="-194" font-family="Helvetica,sans-Serif" font-size="10.00">_x::call</text>
</a>
</g>
</g>
<!-- Node2&#45;&gt;Node3 -->
<g id="edge2_Node000002_Node000003" class="edge">
<title>Node2&#45;&gt;Node3</title>
<g id="a_edge2_Node000002_Node000003"><a xlink:title=" ">
<path fill="none" stroke="#63b8ff" d="M409.86,-386.4C369.84,-375.85 318.1,-357.64 280,-328 240.35,-297.15 211.82,-243.17 199.61,-217.03"/>
<polygon fill="#63b8ff" stroke="#63b8ff" points="409.21,-389.85 419.76,-388.92 410.94,-383.06 409.21,-389.85"/>
</a>
</g>
</g>
<!-- Node6 -->
<g id="Node000006" class="node">
<title>Node6</title>
<g id="a_Node000006"><a xlink:href="../../d8/ddd/classlci_1_1net__post__send__x.html#acbc868fe9581599397eb6f24bd916022" target="_top" xlink:title=" ">
<polygon fill="white" stroke="#666666" points="384,-239 280,-239 280,-209 384,-209 384,-239"/>
<text text-anchor="start" x="288" y="-227" font-family="Helvetica,sans-Serif" font-size="10.00">lci::net_post_send</text>
<text text-anchor="middle" x="332" y="-216" font-family="Helvetica,sans-Serif" font-size="10.00">_x::call_impl</text>
</a>
</g>
</g>
<!-- Node2&#45;&gt;Node6 -->
<g id="edge5_Node000002_Node000006" class="edge">
<title>Node2&#45;&gt;Node6</title>
<g id="a_edge5_Node000002_Node000006"><a xlink:title=" ">
<path fill="none" stroke="#63b8ff" d="M423.97,-378.35C422.59,-377.28 421.26,-376.16 420,-375 376.81,-335.25 349.12,-269.03 338.24,-239.29"/>
<polygon fill="#63b8ff" stroke="#63b8ff" points="422.08,-381.29 432.33,-383.98 425.99,-375.49 422.08,-381.29"/>
</a>
</g>
</g>
<!-- Node4 -->
<g id="Node000004" class="node">
<title>Node4</title>
<g id="a_Node000004"><a xlink:href="../../d5/dd3/namespacelci.html#a03e8e9b69fac72556c2f1f1d7d574cba" target="_top" xlink:title=" ">
<polygon fill="white" stroke="#666666" points="104,-233.5 0,-233.5 0,-214.5 104,-214.5 104,-233.5"/>
<text text-anchor="middle" x="52" y="-221.5" font-family="Helvetica,sans-Serif" font-size="10.00">lci::net_post_send</text>
</a>
</g>
</g>
<!-- Node3&#45;&gt;Node4 -->
<g id="edge3_Node000003_Node000004" class="edge">
<title>Node3&#45;&gt;Node4</title>
<g id="a_edge3_Node000003_Node000004"><a xlink:title=" ">
<path fill="none" stroke="#63b8ff" d="M129.5,-211.8C121.13,-213.14 112.6,-214.5 104.43,-215.8"/>
<polygon fill="#63b8ff" stroke="#63b8ff" points="130.29,-215.22 139.61,-210.19 129.19,-208.31 130.29,-215.22"/>
</a>
</g>
</g>
<!-- Node5 -->
<g id="Node000005" class="node">
<title>Node5</title>
<g id="a_Node000005"><a xlink:href="../../d8/ddd/classlci_1_1net__post__send__x.html#ae45e6ae165594f9e0cafe00a2958ee75" target="_top" xlink:title=" ">
<polygon fill="white" stroke="#666666" points="104,-196 0,-196 0,-166 104,-166 104,-196"/>
<text text-anchor="start" x="8" y="-184" font-family="Helvetica,sans-Serif" font-size="10.00">lci::net_post_send</text>
<text text-anchor="middle" x="52" y="-173" font-family="Helvetica,sans-Serif" font-size="10.00">_x::operator()</text>
</a>
</g>
</g>
<!-- Node3&#45;&gt;Node5 -->
<g id="edge4_Node000003_Node000005" class="edge">
<title>Node3&#45;&gt;Node5</title>
<g id="a_edge4_Node000003_Node000005"><a xlink:title=" ">
<path fill="none" stroke="#63b8ff" d="M129.5,-192.64C121.13,-191.37 112.6,-190.07 104.43,-188.83"/>
<polygon fill="#63b8ff" stroke="#63b8ff" points="129.2,-196.14 139.61,-194.18 130.25,-189.22 129.2,-196.14"/>
</a>
</g>
</g>
<!-- Node6&#45;&gt;Node3 -->
<g id="edge6_Node000006_Node000003" class="edge">
<title>Node6&#45;&gt;Node3</title>
<g id="a_edge6_Node000006_Node000003"><a xlink:title=" ">
<path fill="none" stroke="#63b8ff" d="M269.5,-214.2C261.13,-212.86 252.6,-211.5 244.43,-210.2"/>
<polygon fill="#63b8ff" stroke="#63b8ff" points="269.19,-217.69 279.61,-215.81 270.29,-210.78 269.19,-217.69"/>
</a>
</g>
</g>
<!-- Node7&#45;&gt;Node3 -->
<g id="edge8_Node000007_Node000003" class="edge">
<title>Node7&#45;&gt;Node3</title>
<g id="a_edge8_Node000007_Node000003"><a xlink:title=" ">
<path fill="none" stroke="#63b8ff" d="M409.79,-341.2C370.55,-332.95 319.72,-318.44 280,-294 246.86,-273.61 217.96,-237.43 203.27,-217.05"/>
<polygon fill="#63b8ff" stroke="#63b8ff" points="409.26,-344.67 419.76,-343.22 410.65,-337.81 409.26,-344.67"/>
</a>
</g>
</g>
<!-- Node7&#45;&gt;Node6 -->
<g id="edge9_Node000007_Node000006" class="edge">
<title>Node7&#45;&gt;Node6</title>
<g id="a_edge9_Node000007_Node000006"><a xlink:title=" ">
<path fill="none" stroke="#63b8ff" d="M425,-330.56C423.28,-329.42 421.6,-328.23 420,-327 386.58,-301.35 357.14,-260.85 342.61,-239.06"/>
<polygon fill="#63b8ff" stroke="#63b8ff" points="423.57,-333.78 433.95,-335.91 427.16,-327.77 423.57,-333.78"/>
</a>
</g>
</g>
<!-- Node8&#45;&gt;Node3 -->
<g id="edge11_Node000008_Node000003" class="edge">
<title>Node8&#45;&gt;Node3</title>
<g id="a_edge11_Node000008_Node000003"><a xlink:title=" ">
<path fill="none" stroke="#63b8ff" d="M409.64,-298.57C371.12,-294.08 321.12,-285.07 280,-267 252.21,-254.79 224.96,-232.23 208.57,-217.17"/>
<polygon fill="#63b8ff" stroke="#63b8ff" points="409.36,-302.06 419.68,-299.67 410.12,-295.1 409.36,-302.06"/>
</a>
</g>
</g>
<!-- Node8&#45;&gt;Node6 -->
<g id="edge12_Node000008_Node000006" class="edge">
<title>Node8&#45;&gt;Node6</title>
<g id="a_edge12_Node000008_Node000006"><a xlink:title=" ">
<path fill="none" stroke="#63b8ff" d="M428.36,-283.42C425.51,-281.96 422.7,-280.48 420,-279 397.28,-266.54 372.39,-250.55 355.07,-239.02"/>
<polygon fill="#63b8ff" stroke="#63b8ff" points="426.99,-286.65 437.51,-287.97 430.11,-280.38 426.99,-286.65"/>
</a>
</g>
</g>
<!-- Node9&#45;&gt;Node3 -->
<g id="edge14_Node000009_Node000003" class="edge">
<title>Node9&#45;&gt;Node3</title>
<g id="a_edge14_Node000009_Node000003"><a xlink:title=" ">
<path fill="none" stroke="#63b8ff" d="M409.43,-259.64C371.49,-260.82 322.19,-259.29 280,-248 256.23,-241.64 231.68,-227.88 214.74,-217.06"/>
<polygon fill="#63b8ff" stroke="#63b8ff" points="409.96,-263.13 419.82,-259.25 409.69,-256.13 409.96,-263.13"/>
</a>
</g>
</g>
<!-- Node9&#45;&gt;Node6 -->
<g id="edge15_Node000009_Node000006" class="edge">
<title>Node9&#45;&gt;Node6</title>
<g id="a_edge15_Node000009_Node000006"><a xlink:title=" ">
<path fill="none" stroke="#63b8ff" d="M409.78,-241.25C401.32,-239.35 392.69,-237.41 384.43,-235.55"/>
<polygon fill="#63b8ff" stroke="#63b8ff" points="409.09,-244.68 419.61,-243.46 410.62,-237.85 409.09,-244.68"/>
</a>
</g>
</g>
<!-- Node10&#45;&gt;Node3 -->
<g id="edge17_Node000010_Node000003" class="edge">
<title>Node10&#45;&gt;Node3</title>
<g id="a_edge17_Node000010_Node000003"><a xlink:title=" ">
<path fill="none" stroke="#63b8ff" d="M409.88,-201.46C401.2,-200.85 392.38,-200.34 384,-200 336.62,-198.1 282.57,-198.94 244.09,-200.06"/>
<polygon fill="#63b8ff" stroke="#63b8ff" points="409.75,-204.96 419.98,-202.21 410.26,-197.98 409.75,-204.96"/>
</a>
</g>
</g>
<!-- Node10&#45;&gt;Node6 -->
<g id="edge18_Node000010_Node000006" class="edge">
<title>Node10&#45;&gt;Node6</title>
<g id="a_edge18_Node000010_Node000006"><a xlink:title=" ">
<path fill="none" stroke="#63b8ff" d="M409.5,-214.58C401.13,-215.61 392.6,-216.66 384.43,-217.66"/>
<polygon fill="#63b8ff" stroke="#63b8ff" points="410.12,-218.03 419.61,-213.33 409.26,-211.08 410.12,-218.03"/>
</a>
</g>
</g>
<!-- Node11&#45;&gt;Node3 -->
<g id="edge20_Node000011_Node000003" class="edge">
<title>Node11&#45;&gt;Node3</title>
<g id="a_edge20_Node000011_Node000003"><a xlink:title=" ">
<path fill="none" stroke="#63b8ff" d="M409.7,-168.48C359.99,-176.17 290.74,-186.88 244.01,-194.11"/>
<polygon fill="#63b8ff" stroke="#63b8ff" points="410.34,-171.92 419.69,-166.94 409.27,-165.01 410.34,-171.92"/>
</a>
</g>
</g>
<!-- Node11&#45;&gt;Node6 -->
<g id="edge21_Node000011_Node000006" class="edge">
<title>Node11&#45;&gt;Node6</title>
<g id="a_edge21_Node000011_Node000006"><a xlink:title=" ">
<path fill="none" stroke="#63b8ff" d="M429.69,-178.44C426.41,-179.98 423.15,-181.52 420,-183 401.87,-191.54 381.62,-201.08 365.22,-208.81"/>
<polygon fill="#63b8ff" stroke="#63b8ff" points="431.34,-181.53 438.9,-174.1 428.36,-175.2 431.34,-181.53"/>
</a>
</g>
</g>
<!-- Node12&#45;&gt;Node3 -->
<g id="edge23_Node000012_Node000003" class="edge">
<title>Node12&#45;&gt;Node3</title>
<g id="a_edge23_Node000012_Node000003"><a xlink:title=" ">
<path fill="none" stroke="#63b8ff" d="M410.14,-127.77C372.42,-138.51 323.11,-153.17 280,-168 263.29,-173.75 245.03,-180.77 229.58,-186.93"/>
<polygon fill="#63b8ff" stroke="#63b8ff" points="411.3,-131.08 419.97,-124.99 409.39,-124.35 411.3,-131.08"/>
</a>
</g>
</g>
<!-- Node12&#45;&gt;Node6 -->
<g id="edge24_Node000012_Node000006" class="edge">
<title>Node12&#45;&gt;Node6</title>
<g id="a_edge24_Node000012_Node000006"><a xlink:title=" ">
<path fill="none" stroke="#63b8ff" d="M425.76,-131.19C423.78,-132.41 421.85,-133.69 420,-135 389.54,-156.67 360.52,-189.69 344.9,-208.83"/>
<polygon fill="#63b8ff" stroke="#63b8ff" points="427.74,-134.09 434.7,-126.1 424.28,-128 427.74,-134.09"/>
</a>
</g>
</g>
<!-- Node13&#45;&gt;Node3 -->
<g id="edge26_Node000013_Node000003" class="edge">
<title>Node13&#45;&gt;Node3</title>
<g id="a_edge26_Node000013_Node000003"><a xlink:title=" ">
<path fill="none" stroke="#63b8ff" d="M409.83,-78.94C371.17,-90.41 320.96,-107.92 280,-131 252.32,-146.6 224.62,-171.12 208.14,-186.88"/>
<polygon fill="#63b8ff" stroke="#63b8ff" points="411.27,-82.17 419.9,-76.02 409.32,-75.45 411.27,-82.17"/>
</a>
</g>
</g>
<!-- Node13&#45;&gt;Node6 -->
<g id="edge27_Node000013_Node000006" class="edge">
<title>Node13&#45;&gt;Node6</title>
<g id="a_edge27_Node000013_Node000006"><a xlink:title=" ">
<path fill="none" stroke="#63b8ff" d="M424.12,-83.66C422.69,-84.73 421.31,-85.84 420,-87 379.63,-122.58 351.07,-181.33 339.17,-208.87"/>
<polygon fill="#63b8ff" stroke="#63b8ff" points="426.28,-86.43 432.73,-78.02 422.45,-80.57 426.28,-86.43"/>
</a>
</g>
</g>
<!-- Node14&#45;&gt;Node3 -->
<g id="edge29_Node000014_Node000003" class="edge">
<title>Node14&#45;&gt;Node3</title>
<g id="a_edge29_Node000014_Node000003"><a xlink:title=" ">
<path fill="none" stroke="#63b8ff" d="M410.12,-26.86C370.21,-36.87 318.5,-54.29 280,-83 241.64,-111.61 212.9,-161.92 200.19,-186.96"/>
<polygon fill="#63b8ff" stroke="#63b8ff" points="411.1,-30.22 420,-24.47 409.46,-23.42 411.1,-30.22"/>
</a>
</g>
</g>
<!-- Node14&#45;&gt;Node6 -->
<g id="edge30_Node000014_Node000006" class="edge">
<title>Node14&#45;&gt;Node6</title>
<g id="a_edge30_Node000014_Node000006"><a xlink:title=" ">
<path fill="none" stroke="#63b8ff" d="M423.33,-35.94C422.17,-36.92 421.06,-37.94 420,-39 369.69,-89.33 344.82,-174.3 336.4,-208.78"/>
<polygon fill="#63b8ff" stroke="#63b8ff" points="425.46,-38.72 431.54,-30.05 421.38,-33.04 425.46,-38.72"/>
</a>
</g>
</g>
</g>
</svg>
