<?xml version="1.0" encoding="UTF-8" standalone="no"?>
<!DOCTYPE svg PUBLIC "-//W3C//DTD SVG 1.1//EN"
 "http://www.w3.org/Graphics/SVG/1.1/DTD/svg11.dtd">
<!-- Generated by graphviz version 2.43.0 (0)
 -->
<!-- Title: lci::net_post_send_x::call Pages: 1 -->
<svg width="544pt" height="422pt"
 viewBox="0.00 0.00 544.00 422.00" xmlns="http://www.w3.org/2000/svg" xmlns:xlink="http://www.w3.org/1999/xlink">
<g id="graph0" class="graph" transform="scale(1 1) rotate(0) translate(4 418)">
<title>lci::net_post_send_x::call</title>
<!-- Node1 -->
<g id="Node000001" class="node">
<title>Node1</title>
<g id="a_Node000001"><a xlink:title=" ">
<polygon fill="#999999" stroke="#666666" points="104,-219 0,-219 0,-189 104,-189 104,-219"/>
<text text-anchor="start" x="8" y="-207" font-family="Helvetica,sans-Serif" font-size="10.00">lci::net_post_send</text>
<text text-anchor="middle" x="52" y="-196" font-family="Helvetica,sans-Serif" font-size="10.00">_x::call</text>
</a>
</g>
</g>
<!-- Node2 -->
<g id="Node000002" class="node">
<title>Node2</title>
<g id="a_Node000002"><a xlink:href="../../d8/ddd/classlci_1_1net__post__send__x.html#a6283f6069ed0588800193e12f309fdca" target="_top" xlink:title=" ">
<polygon fill="white" stroke="#666666" points="384,-414 280,-414 280,-384 384,-384 384,-414"/>
<text text-anchor="start" x="288" y="-402" font-family="Helvetica,sans-Serif" font-size="10.00">lci::net_post_send</text>
<text text-anchor="middle" x="332" y="-391" font-family="Helvetica,sans-Serif" font-size="10.00">_x::buffer</text>
</a>
</g>
</g>
<!-- Node1&#45;&gt;Node2 -->
<g id="edge1_Node000001_Node000002" class="edge">
<title>Node1&#45;&gt;Node2</title>
<g id="a_edge1_Node000001_Node000002"><a xlink:title=" ">
<path fill="none" stroke="#63b8ff" d="M59.82,-219.35C72.17,-245.46 100.64,-298.64 140,-329 178.15,-358.43 229.89,-376.37 269.9,-386.71"/>
<polygon fill="#63b8ff" stroke="#63b8ff" points="269.25,-390.16 279.8,-389.18 270.94,-383.37 269.25,-390.16"/>
</a>
</g>
</g>
<!-- Node4 -->
<g id="Node000004" class="node">
<title>Node4</title>
<g id="a_Node000004"><a xlink:href="../../d8/ddd/classlci_1_1net__post__send__x.html#acbc868fe9581599397eb6f24bd916022" target="_top" xlink:title=" ">
<polygon fill="white" stroke="#666666" points="244,-241 140,-241 140,-211 244,-211 244,-241"/>
<text text-anchor="start" x="148" y="-229" font-family="Helvetica,sans-Serif" font-size="10.00">lci::net_post_send</text>
<text text-anchor="middle" x="192" y="-218" font-family="Helvetica,sans-Serif" font-size="10.00">_x::call_impl</text>
</a>
</g>
</g>
<!-- Node1&#45;&gt;Node4 -->
<g id="edge3_Node000001_Node000004" class="edge">
<title>Node1&#45;&gt;Node4</title>
<g id="a_edge3_Node000001_Node000004"><a xlink:title=" ">
<path fill="none" stroke="#63b8ff" d="M104.39,-212.19C112.56,-213.49 121.08,-214.85 129.46,-216.19"/>
<polygon fill="#63b8ff" stroke="#63b8ff" points="129.14,-219.68 139.57,-217.8 130.25,-212.77 129.14,-219.68"/>
</a>
</g>
</g>
<!-- Node5 -->
<g id="Node000005" class="node">
<title>Node5</title>
<g id="a_Node000005"><a xlink:href="../../d8/ddd/classlci_1_1net__post__send__x.html#abce3b7b47b735af18ec0f1d2f13f1c8e" target="_top" xlink:title=" ">
<polygon fill="white" stroke="#666666" points="384,-366 280,-366 280,-336 384,-336 384,-366"/>
<text text-anchor="start" x="288" y="-354" font-family="Helvetica,sans-Serif" font-size="10.00">lci::net_post_send</text>
<text text-anchor="middle" x="332" y="-343" font-family="Helvetica,sans-Serif" font-size="10.00">_x::device</text>
</a>
</g>
</g>
<!-- Node1&#45;&gt;Node5 -->
<g id="edge21_Node000001_Node000005" class="edge">
<title>Node1&#45;&gt;Node5</title>
<g id="a_edge21_Node000001_Node000005"><a xlink:title=" ">
<path fill="none" stroke="#63b8ff" d="M63.25,-219.1C77.9,-239.53 106.76,-275.77 140,-296 179.72,-320.18 230.56,-334.15 269.79,-341.95"/>
<polygon fill="#63b8ff" stroke="#63b8ff" points="269.28,-345.41 279.76,-343.85 270.59,-338.54 269.28,-345.41"/>
</a>
</g>
</g>
<!-- Node6 -->
<g id="Node000006" class="node">
<title>Node6</title>
<g id="a_Node000006"><a xlink:href="../../d8/ddd/classlci_1_1net__post__send__x.html#ac77f3e2e661538803decf449bb17ff0d" target="_top" xlink:title=" ">
<polygon fill="white" stroke="#666666" points="384,-318 280,-318 280,-288 384,-288 384,-318"/>
<text text-anchor="start" x="288" y="-306" font-family="Helvetica,sans-Serif" font-size="10.00">lci::net_post_send</text>
<text text-anchor="middle" x="332" y="-295" font-family="Helvetica,sans-Serif" font-size="10.00">_x::endpoint</text>
</a>
</g>
</g>
<!-- Node1&#45;&gt;Node6 -->
<g id="edge22_Node000001_Node000006" class="edge">
<title>Node1&#45;&gt;Node6</title>
<g id="a_edge22_Node000001_Node000006"><a xlink:title=" ">
<path fill="none" stroke="#63b8ff" d="M68.54,-219.22C84.92,-234.33 112.15,-256.93 140,-269 181.14,-286.83 231.13,-295.31 269.65,-299.34"/>
<polygon fill="#63b8ff" stroke="#63b8ff" points="269.39,-302.83 279.69,-300.32 270.07,-295.87 269.39,-302.83"/>
</a>
</g>
</g>
<!-- Node7 -->
<g id="Node000007" class="node">
<title>Node7</title>
<g id="a_Node000007"><a xlink:href="../../d8/ddd/classlci_1_1net__post__send__x.html#a15e8070dc9363ae4469d8b7b8f68e10b" target="_top" xlink:title=" ">
<polygon fill="white" stroke="#666666" points="384,-270 280,-270 280,-240 384,-240 384,-270"/>
<text text-anchor="start" x="288" y="-258" font-family="Helvetica,sans-Serif" font-size="10.00">lci::net_post_send</text>
<text text-anchor="middle" x="332" y="-247" font-family="Helvetica,sans-Serif" font-size="10.00">_x::imm_data</text>
</a>
</g>
</g>
<!-- Node1&#45;&gt;Node7 -->
<g id="edge23_Node000001_Node000007" class="edge">
<title>Node1&#45;&gt;Node7</title>
<g id="a_edge23_Node000001_Node000007"><a xlink:title=" ">
<path fill="none" stroke="#63b8ff" d="M74.72,-219.13C91.65,-229.99 116.2,-243.76 140,-250 182.24,-261.07 231.53,-262.08 269.46,-260.44"/>
<polygon fill="#63b8ff" stroke="#63b8ff" points="270.03,-263.92 279.85,-259.92 269.68,-256.93 270.03,-263.92"/>
</a>
</g>
</g>
<!-- Node8 -->
<g id="Node000008" class="node">
<title>Node8</title>
<g id="a_Node000008"><a xlink:href="../../d8/ddd/classlci_1_1net__post__send__x.html#ab8e0258941b103c81dcab9c247404a3f" target="_top" xlink:title=" ">
<polygon fill="white" stroke="#666666" points="384,-222 280,-222 280,-192 384,-192 384,-222"/>
<text text-anchor="start" x="288" y="-210" font-family="Helvetica,sans-Serif" font-size="10.00">lci::net_post_send</text>
<text text-anchor="middle" x="332" y="-199" font-family="Helvetica,sans-Serif" font-size="10.00">_x::mr</text>
</a>
</g>
</g>
<!-- Node1&#45;&gt;Node8 -->
<g id="edge24_Node000001_Node000008" class="edge">
<title>Node1&#45;&gt;Node8</title>
<g id="a_edge24_Node000001_Node000008"><a xlink:title=" ">
<path fill="none" stroke="#63b8ff" d="M104.08,-202.38C142.56,-201.42 196.6,-200.64 244,-202 252.37,-202.24 261.19,-202.61 269.87,-203.04"/>
<polygon fill="#63b8ff" stroke="#63b8ff" points="269.79,-206.54 279.96,-203.58 270.16,-199.55 269.79,-206.54"/>
</a>
</g>
</g>
<!-- Node9 -->
<g id="Node000009" class="node">
<title>Node9</title>
<g id="a_Node000009"><a xlink:href="../../d8/ddd/classlci_1_1net__post__send__x.html#aec89b8c935f893989b7f24dd2aea3e4f" target="_top" xlink:title=" ">
<polygon fill="white" stroke="#666666" points="384,-174 280,-174 280,-144 384,-144 384,-174"/>
<text text-anchor="start" x="288" y="-162" font-family="Helvetica,sans-Serif" font-size="10.00">lci::net_post_send</text>
<text text-anchor="middle" x="332" y="-151" font-family="Helvetica,sans-Serif" font-size="10.00">_x::rank</text>
</a>
</g>
</g>
<!-- Node1&#45;&gt;Node9 -->
<g id="edge25_Node000001_Node000009" class="edge">
<title>Node1&#45;&gt;Node9</title>
<g id="a_edge25_Node000001_Node000009"><a xlink:title=" ">
<path fill="none" stroke="#63b8ff" d="M104.31,-195.69C151.13,-188.11 220.39,-176.9 270.02,-168.87"/>
<polygon fill="#63b8ff" stroke="#63b8ff" points="270.67,-172.31 279.99,-167.26 269.56,-165.4 270.67,-172.31"/>
</a>
</g>
</g>
<!-- Node10 -->
<g id="Node000010" class="node">
<title>Node10</title>
<g id="a_Node000010"><a xlink:href="../../d8/ddd/classlci_1_1net__post__send__x.html#a1c39b0d356cb57df0d4e3950db73e09a" target="_top" xlink:title=" ">
<polygon fill="white" stroke="#666666" points="384,-126 280,-126 280,-96 384,-96 384,-126"/>
<text text-anchor="start" x="288" y="-114" font-family="Helvetica,sans-Serif" font-size="10.00">lci::net_post_send</text>
<text text-anchor="middle" x="332" y="-103" font-family="Helvetica,sans-Serif" font-size="10.00">_x::runtime</text>
</a>
</g>
</g>
<!-- Node1&#45;&gt;Node10 -->
<g id="edge26_Node000001_Node000010" class="edge">
<title>Node1&#45;&gt;Node10</title>
<g id="a_edge26_Node000001_Node000010"><a xlink:title=" ">
<path fill="none" stroke="#63b8ff" d="M88.29,-188.99C104,-182.51 122.8,-175.06 140,-169 183.06,-153.83 232.38,-138.92 270.11,-128.01"/>
<polygon fill="#63b8ff" stroke="#63b8ff" points="271.29,-131.31 279.94,-125.19 269.36,-124.59 271.29,-131.31"/>
</a>
</g>
</g>
<!-- Node11 -->
<g id="Node000011" class="node">
<title>Node11</title>
<g id="a_Node000011"><a xlink:href="../../d8/ddd/classlci_1_1net__post__send__x.html#a945c3e9aeed4f91eb2ef1a6c128678b3" target="_top" xlink:title=" ">
<polygon fill="white" stroke="#666666" points="384,-78 280,-78 280,-48 384,-48 384,-78"/>
<text text-anchor="start" x="288" y="-66" font-family="Helvetica,sans-Serif" font-size="10.00">lci::net_post_send</text>
<text text-anchor="middle" x="332" y="-55" font-family="Helvetica,sans-Serif" font-size="10.00">_x::size</text>
</a>
</g>
</g>
<!-- Node1&#45;&gt;Node11 -->
<g id="edge27_Node000001_Node000011" class="edge">
<title>Node1&#45;&gt;Node11</title>
<g id="a_edge27_Node000001_Node000011"><a xlink:title=" ">
<path fill="none" stroke="#63b8ff" d="M67.76,-188.72C84.13,-172.51 111.94,-147.07 140,-131 180.8,-107.64 231.02,-90.14 269.72,-78.75"/>
<polygon fill="#63b8ff" stroke="#63b8ff" points="271.16,-81.98 279.8,-75.85 269.23,-75.25 271.16,-81.98"/>
</a>
</g>
</g>
<!-- Node12 -->
<g id="Node000012" class="node">
<title>Node12</title>
<g id="a_Node000012"><a xlink:href="../../d8/ddd/classlci_1_1net__post__send__x.html#aeda95c7c76d38e42b89312536df0ce21" target="_top" xlink:title=" ">
<polygon fill="white" stroke="#666666" points="384,-30 280,-30 280,0 384,0 384,-30"/>
<text text-anchor="start" x="288" y="-18" font-family="Helvetica,sans-Serif" font-size="10.00">lci::net_post_send</text>
<text text-anchor="middle" x="332" y="-7" font-family="Helvetica,sans-Serif" font-size="10.00">_x::user_context</text>
</a>
</g>
</g>
<!-- Node1&#45;&gt;Node12 -->
<g id="edge28_Node000001_Node000012" class="edge">
<title>Node1&#45;&gt;Node12</title>
<g id="a_edge28_Node000001_Node000012"><a xlink:title=" ">
<path fill="none" stroke="#63b8ff" d="M60.13,-188.7C72.73,-163.24 101.33,-112.08 140,-83 178.38,-54.14 230.11,-36.73 270.05,-26.76"/>
<polygon fill="#63b8ff" stroke="#63b8ff" points="271.03,-30.12 279.93,-24.38 269.39,-23.31 271.03,-30.12"/>
</a>
</g>
</g>
<!-- Node3 -->
<g id="Node000003" class="node">
<title>Node3</title>
<g id="a_Node000003"><a xlink:href="../../d8/ddd/classlci_1_1net__post__send__x.html#ac79b59fb402331c8022eb5a4815a4fe7" target="_top" xlink:title=" ">
<polygon fill="white" stroke="#666666" points="536,-222 420,-222 420,-192 536,-192 536,-222"/>
<text text-anchor="start" x="428" y="-210" font-family="Helvetica,sans-Serif" font-size="10.00">lci::net_post_send</text>
<text text-anchor="middle" x="478" y="-199" font-family="Helvetica,sans-Serif" font-size="10.00">_x::net_post_send_x</text>
</a>
</g>
</g>
<!-- Node2&#45;&gt;Node3 -->
<g id="edge2_Node000002_Node000003" class="edge">
<title>Node2&#45;&gt;Node3</title>
<g id="a_edge2_Node000002_Node000003"><a xlink:title=" ">
<path fill="none" stroke="#63b8ff" d="M371.99,-383.89C376.31,-381.3 380.43,-378.34 384,-375 427.85,-333.94 456.05,-267.44 468.9,-231.66"/>
<polygon fill="#63b8ff" stroke="#63b8ff" points="472.28,-232.61 472.26,-222.02 465.67,-230.31 472.28,-232.61"/>
</a>
</g>
</g>
<!-- Node4&#45;&gt;Node2 -->
<g id="edge4_Node000004_Node000002" class="edge">
<title>Node4&#45;&gt;Node2</title>
<g id="a_edge4_Node000004_Node000002"><a xlink:title=" ">
<path fill="none" stroke="#63b8ff" d="M198.29,-241.08C209.27,-270.43 237.13,-335.77 280,-375 281.27,-376.16 282.6,-377.27 283.98,-378.34"/>
<polygon fill="#63b8ff" stroke="#63b8ff" points="282.1,-381.29 292.35,-383.96 286,-375.48 282.1,-381.29"/>
</a>
</g>
</g>
<!-- Node4&#45;&gt;Node5 -->
<g id="edge5_Node000004_Node000005" class="edge">
<title>Node4&#45;&gt;Node5</title>
<g id="a_edge5_Node000004_Node000005"><a xlink:title=" ">
<path fill="none" stroke="#63b8ff" d="M202.93,-241.11C217.62,-262.54 247.02,-301.94 280,-327 281.61,-328.22 283.29,-329.4 285.02,-330.54"/>
<polygon fill="#63b8ff" stroke="#63b8ff" points="283.59,-333.76 293.98,-335.87 287.17,-327.75 283.59,-333.76"/>
</a>
</g>
</g>
<!-- Node4&#45;&gt;Node6 -->
<g id="edge7_Node000004_Node000006" class="edge">
<title>Node4&#45;&gt;Node6</title>
<g id="a_edge7_Node000004_Node000006"><a xlink:title=" ">
<path fill="none" stroke="#63b8ff" d="M216.23,-241.09C233.53,-252.1 257.88,-267.1 280,-279 282.71,-280.46 285.53,-281.92 288.39,-283.37"/>
<polygon fill="#63b8ff" stroke="#63b8ff" points="287.03,-286.6 297.55,-287.89 290.13,-280.32 287.03,-286.6"/>
</a>
</g>
</g>
<!-- Node4&#45;&gt;Node7 -->
<g id="edge9_Node000004_Node000007" class="edge">
<title>Node4&#45;&gt;Node7</title>
<g id="a_edge9_Node000004_Node000007"><a xlink:title=" ">
<path fill="none" stroke="#63b8ff" d="M244.39,-236.8C252.65,-238.53 261.27,-240.35 269.74,-242.13"/>
<polygon fill="#63b8ff" stroke="#63b8ff" points="269.06,-245.56 279.57,-244.19 270.5,-238.71 269.06,-245.56"/>
</a>
</g>
</g>
<!-- Node4&#45;&gt;Node8 -->
<g id="edge11_Node000004_Node000008" class="edge">
<title>Node4&#45;&gt;Node8</title>
<g id="a_edge11_Node000004_Node000008"><a xlink:title=" ">
<path fill="none" stroke="#63b8ff" d="M244.39,-218.93C252.56,-217.8 261.08,-216.63 269.46,-215.47"/>
<polygon fill="#63b8ff" stroke="#63b8ff" points="270.14,-218.91 279.57,-214.08 269.19,-211.98 270.14,-218.91"/>
</a>
</g>
</g>
<!-- Node4&#45;&gt;Node9 -->
<g id="edge13_Node000004_Node000009" class="edge">
<title>Node4&#45;&gt;Node9</title>
<g id="a_edge13_Node000004_Node000009"><a xlink:title=" ">
<path fill="none" stroke="#63b8ff" d="M223.13,-210.93C239.84,-202.62 261.03,-192.15 280,-183 283.14,-181.49 286.38,-179.93 289.66,-178.37"/>
<polygon fill="#63b8ff" stroke="#63b8ff" points="291.32,-181.46 298.85,-174.01 288.32,-175.14 291.32,-181.46"/>
</a>
</g>
</g>
<!-- Node4&#45;&gt;Node10 -->
<g id="edge15_Node000004_Node000010" class="edge">
<title>Node4&#45;&gt;Node10</title>
<g id="a_edge15_Node000004_Node000010"><a xlink:title=" ">
<path fill="none" stroke="#63b8ff" d="M204.56,-210.81C220.03,-191.27 249.13,-157.22 280,-135 281.84,-133.68 283.76,-132.4 285.74,-131.16"/>
<polygon fill="#63b8ff" stroke="#63b8ff" points="287.72,-134.06 294.67,-126.05 284.25,-127.98 287.72,-134.06"/>
</a>
</g>
</g>
<!-- Node4&#45;&gt;Node11 -->
<g id="edge17_Node000004_Node000011" class="edge">
<title>Node4&#45;&gt;Node11</title>
<g id="a_edge17_Node000004_Node000011"><a xlink:title=" ">
<path fill="none" stroke="#63b8ff" d="M199.11,-210.65C210.92,-182.7 239.32,-123.09 280,-87 281.28,-85.86 282.63,-84.77 284.03,-83.71"/>
<polygon fill="#63b8ff" stroke="#63b8ff" points="286.03,-86.58 292.45,-78.15 282.17,-80.74 286.03,-86.58"/>
</a>
</g>
</g>
<!-- Node4&#45;&gt;Node12 -->
<g id="edge19_Node000004_Node000012" class="edge">
<title>Node4&#45;&gt;Node12</title>
<g id="a_edge19_Node000004_Node000012"><a xlink:title=" ">
<path fill="none" stroke="#63b8ff" d="M196.29,-210.88C204.55,-176.2 229.22,-90 280,-39 281.06,-37.94 282.17,-36.92 283.33,-35.94"/>
<polygon fill="#63b8ff" stroke="#63b8ff" points="285.46,-38.72 291.53,-30.03 281.37,-33.04 285.46,-38.72"/>
</a>
</g>
</g>
<!-- Node5&#45;&gt;Node3 -->
<g id="edge6_Node000005_Node000003" class="edge">
<title>Node5&#45;&gt;Node3</title>
<g id="a_edge6_Node000005_Node000003"><a xlink:title=" ">
<path fill="none" stroke="#63b8ff" d="M370.45,-335.93C375.22,-333.28 379.88,-330.3 384,-327 418.22,-299.57 447.24,-257.11 463.37,-230.74"/>
<polygon fill="#63b8ff" stroke="#63b8ff" points="466.39,-232.51 468.52,-222.13 460.38,-228.91 466.39,-232.51"/>
</a>
</g>
</g>
<!-- Node6&#45;&gt;Node3 -->
<g id="edge8_Node000006_Node000003" class="edge">
<title>Node6&#45;&gt;Node3</title>
<g id="a_edge8_Node000006_Node000003"><a xlink:title=" ">
<path fill="none" stroke="#63b8ff" d="M367.56,-288C373.17,-285.21 378.83,-282.17 384,-279 408.47,-264.02 434.09,-243.8 452.23,-228.6"/>
<polygon fill="#63b8ff" stroke="#63b8ff" points="454.64,-231.14 460,-222.01 450.11,-225.8 454.64,-231.14"/>
</a>
</g>
</g>
<!-- Node7&#45;&gt;Node3 -->
<g id="edge10_Node000007_Node000003" class="edge">
<title>Node7&#45;&gt;Node3</title>
<g id="a_edge10_Node000007_Node000003"><a xlink:title=" ">
<path fill="none" stroke="#63b8ff" d="M378.17,-239.94C392.11,-235.3 407.61,-230.13 422.13,-225.29"/>
<polygon fill="#63b8ff" stroke="#63b8ff" points="423.61,-228.49 431.99,-222 421.4,-221.84 423.61,-228.49"/>
</a>
</g>
</g>
<!-- Node8&#45;&gt;Node3 -->
<g id="edge12_Node000008_Node000003" class="edge">
<title>Node8&#45;&gt;Node3</title>
<g id="a_edge12_Node000008_Node000003"><a xlink:title=" ">
<path fill="none" stroke="#63b8ff" d="M384.17,-207C392.34,-207 400.89,-207 409.36,-207"/>
<polygon fill="#63b8ff" stroke="#63b8ff" points="409.62,-210.5 419.62,-207 409.62,-203.5 409.62,-210.5"/>
</a>
</g>
</g>
<!-- Node9&#45;&gt;Node3 -->
<g id="edge14_Node000009_Node000003" class="edge">
<title>Node9&#45;&gt;Node3</title>
<g id="a_edge14_Node000009_Node000003"><a xlink:title=" ">
<path fill="none" stroke="#63b8ff" d="M378.17,-174.06C392.11,-178.7 407.61,-183.87 422.13,-188.71"/>
<polygon fill="#63b8ff" stroke="#63b8ff" points="421.4,-192.16 431.99,-192 423.61,-185.51 421.4,-192.16"/>
</a>
</g>
</g>
<!-- Node10&#45;&gt;Node3 -->
<g id="edge16_Node000010_Node000003" class="edge">
<title>Node10&#45;&gt;Node3</title>
<g id="a_edge16_Node000010_Node000003"><a xlink:title=" ">
<path fill="none" stroke="#63b8ff" d="M367.56,-126C373.17,-128.79 378.83,-131.83 384,-135 408.47,-149.98 434.09,-170.2 452.23,-185.4"/>
<polygon fill="#63b8ff" stroke="#63b8ff" points="450.11,-188.2 460,-191.99 454.64,-182.86 450.11,-188.2"/>
</a>
</g>
</g>
<!-- Node11&#45;&gt;Node3 -->
<g id="edge18_Node000011_Node000003" class="edge">
<title>Node11&#45;&gt;Node3</title>
<g id="a_edge18_Node000011_Node000003"><a xlink:title=" ">
<path fill="none" stroke="#63b8ff" d="M370.45,-78.07C375.22,-80.72 379.88,-83.7 384,-87 418.22,-114.43 447.24,-156.89 463.37,-183.26"/>
<polygon fill="#63b8ff" stroke="#63b8ff" points="460.38,-185.09 468.52,-191.87 466.39,-181.49 460.38,-185.09"/>
</a>
</g>
</g>
<!-- Node12&#45;&gt;Node3 -->
<g id="edge20_Node000012_Node000003" class="edge">
<title>Node12&#45;&gt;Node3</title>
<g id="a_edge20_Node000012_Node000003"><a xlink:title=" ">
<path fill="none" stroke="#63b8ff" d="M371.99,-30.11C376.31,-32.7 380.43,-35.66 384,-39 427.85,-80.06 456.05,-146.56 468.9,-182.34"/>
<polygon fill="#63b8ff" stroke="#63b8ff" points="465.67,-183.69 472.26,-191.98 472.28,-181.39 465.67,-183.69"/>
</a>
</g>
</g>
</g>
</svg>
