<?xml version="1.0" encoding="UTF-8" standalone="no"?>
<!DOCTYPE svg PUBLIC "-//W3C//DTD SVG 1.1//EN"
 "http://www.w3.org/Graphics/SVG/1.1/DTD/svg11.dtd">
<!-- Generated by graphviz version 2.43.0 (0)
 -->
<!-- Title: lci::counter_set_x::call Pages: 1 -->
<svg width="524pt" height="134pt"
 viewBox="0.00 0.00 524.00 134.00" xmlns="http://www.w3.org/2000/svg" xmlns:xlink="http://www.w3.org/1999/xlink">
<g id="graph0" class="graph" transform="scale(1 1) rotate(0) translate(4 130)">
<title>lci::counter_set_x::call</title>
<!-- Node1 -->
<g id="Node000001" class="node">
<title>Node1</title>
<g id="a_Node000001"><a xlink:title=" ">
<polygon fill="#999999" stroke="#666666" points="102,-75 0,-75 0,-45 102,-45 102,-75"/>
<text text-anchor="start" x="8" y="-63" font-family="Helvetica,sans-Serif" font-size="10.00">lci::counter_set_x</text>
<text text-anchor="middle" x="51" y="-52" font-family="Helvetica,sans-Serif" font-size="10.00">::call</text>
</a>
</g>
</g>
<!-- Node2 -->
<g id="Node000002" class="node">
<title>Node2</title>
<g id="a_Node000002"><a xlink:href="../../d7/d56/classlci_1_1counter__set__x.html#a877d08d60886f207f5f89ec4d3f7bd27" target="_top" xlink:title=" ">
<polygon fill="white" stroke="#666666" points="240,-97 138,-97 138,-67 240,-67 240,-97"/>
<text text-anchor="start" x="146" y="-85" font-family="Helvetica,sans-Serif" font-size="10.00">lci::counter_set_x</text>
<text text-anchor="middle" x="189" y="-74" font-family="Helvetica,sans-Serif" font-size="10.00">::call_impl</text>
</a>
</g>
</g>
<!-- Node1&#45;&gt;Node2 -->
<g id="edge1_Node000001_Node000002" class="edge">
<title>Node1&#45;&gt;Node2</title>
<g id="a_edge1_Node000001_Node000002"><a xlink:title=" ">
<path fill="none" stroke="#63b8ff" d="M102.25,-68.13C110.63,-69.48 119.39,-70.9 127.98,-72.29"/>
<polygon fill="#63b8ff" stroke="#63b8ff" points="127.52,-75.76 137.95,-73.9 128.64,-68.85 127.52,-75.76"/>
</a>
</g>
</g>
<!-- Node3 -->
<g id="Node000003" class="node">
<title>Node3</title>
<g id="a_Node000003"><a xlink:href="../../d7/d56/classlci_1_1counter__set__x.html#a8b29e2a602be908d5bc23ecc9c47206e" target="_top" xlink:title=" ">
<polygon fill="white" stroke="#666666" points="378,-126 276,-126 276,-96 378,-96 378,-126"/>
<text text-anchor="start" x="284" y="-114" font-family="Helvetica,sans-Serif" font-size="10.00">lci::counter_set_x</text>
<text text-anchor="middle" x="327" y="-103" font-family="Helvetica,sans-Serif" font-size="10.00">::comp</text>
</a>
</g>
</g>
<!-- Node1&#45;&gt;Node3 -->
<g id="edge8_Node000001_Node000003" class="edge">
<title>Node1&#45;&gt;Node3</title>
<g id="a_edge8_Node000001_Node000003"><a xlink:title=" ">
<path fill="none" stroke="#63b8ff" d="M73.45,-75.13C90.17,-85.98 114.43,-99.76 138,-106 179.54,-117 228.07,-118.01 265.41,-116.4"/>
<polygon fill="#63b8ff" stroke="#63b8ff" points="265.82,-119.88 275.63,-115.88 265.47,-112.89 265.82,-119.88"/>
</a>
</g>
</g>
<!-- Node5 -->
<g id="Node000005" class="node">
<title>Node5</title>
<g id="a_Node000005"><a xlink:href="../../d7/d56/classlci_1_1counter__set__x.html#a886cd92ec7618bc186139dafc8848c85" target="_top" xlink:title=" ">
<polygon fill="white" stroke="#666666" points="378,-78 276,-78 276,-48 378,-48 378,-78"/>
<text text-anchor="start" x="284" y="-66" font-family="Helvetica,sans-Serif" font-size="10.00">lci::counter_set_x</text>
<text text-anchor="middle" x="327" y="-55" font-family="Helvetica,sans-Serif" font-size="10.00">::runtime</text>
</a>
</g>
</g>
<!-- Node1&#45;&gt;Node5 -->
<g id="edge9_Node000001_Node000005" class="edge">
<title>Node1&#45;&gt;Node5</title>
<g id="a_edge9_Node000001_Node000005"><a xlink:title=" ">
<path fill="none" stroke="#63b8ff" d="M102.28,-58.38C140.15,-57.43 193.34,-56.64 240,-58 248.38,-58.24 257.22,-58.62 265.9,-59.06"/>
<polygon fill="#63b8ff" stroke="#63b8ff" points="265.83,-62.56 276,-59.6 266.2,-55.57 265.83,-62.56"/>
</a>
</g>
</g>
<!-- Node6 -->
<g id="Node000006" class="node">
<title>Node6</title>
<g id="a_Node000006"><a xlink:href="../../d7/d56/classlci_1_1counter__set__x.html#ae91bd4bb6183eacde4e6f81bfdfc6946" target="_top" xlink:title=" ">
<polygon fill="white" stroke="#666666" points="378,-30 276,-30 276,0 378,0 378,-30"/>
<text text-anchor="start" x="284" y="-18" font-family="Helvetica,sans-Serif" font-size="10.00">lci::counter_set_x</text>
<text text-anchor="middle" x="327" y="-7" font-family="Helvetica,sans-Serif" font-size="10.00">::value</text>
</a>
</g>
</g>
<!-- Node1&#45;&gt;Node6 -->
<g id="edge10_Node000001_Node000006" class="edge">
<title>Node1&#45;&gt;Node6</title>
<g id="a_edge10_Node000001_Node000006"><a xlink:title=" ">
<path fill="none" stroke="#63b8ff" d="M102.26,-51.75C148.27,-44.19 216.45,-32.99 265.45,-24.94"/>
<polygon fill="#63b8ff" stroke="#63b8ff" points="266.3,-28.35 275.6,-23.28 265.16,-21.44 266.3,-28.35"/>
</a>
</g>
</g>
<!-- Node2&#45;&gt;Node3 -->
<g id="edge2_Node000002_Node000003" class="edge">
<title>Node2&#45;&gt;Node3</title>
<g id="a_edge2_Node000002_Node000003"><a xlink:title=" ">
<path fill="none" stroke="#63b8ff" d="M240.25,-92.72C248.63,-94.5 257.39,-96.37 265.98,-98.2"/>
<polygon fill="#63b8ff" stroke="#63b8ff" points="265.44,-101.67 275.95,-100.33 266.9,-94.82 265.44,-101.67"/>
</a>
</g>
</g>
<!-- Node2&#45;&gt;Node5 -->
<g id="edge4_Node000002_Node000005" class="edge">
<title>Node2&#45;&gt;Node5</title>
<g id="a_edge4_Node000002_Node000005"><a xlink:title=" ">
<path fill="none" stroke="#63b8ff" d="M240.25,-74.98C248.63,-73.81 257.39,-72.58 265.98,-71.38"/>
<polygon fill="#63b8ff" stroke="#63b8ff" points="266.53,-74.84 275.95,-69.99 265.56,-67.91 266.53,-74.84"/>
</a>
</g>
</g>
<!-- Node2&#45;&gt;Node6 -->
<g id="edge6_Node000002_Node000006" class="edge">
<title>Node2&#45;&gt;Node6</title>
<g id="a_edge6_Node000002_Node000006"><a xlink:title=" ">
<path fill="none" stroke="#63b8ff" d="M219.79,-66.96C236.32,-58.65 257.26,-48.18 276,-39 279.08,-37.49 282.26,-35.94 285.47,-34.39"/>
<polygon fill="#63b8ff" stroke="#63b8ff" points="287.01,-37.53 294.49,-30.03 283.96,-31.23 287.01,-37.53"/>
</a>
</g>
</g>
<!-- Node4 -->
<g id="Node000004" class="node">
<title>Node4</title>
<g id="a_Node000004"><a xlink:href="../../d7/d56/classlci_1_1counter__set__x.html#a08d406dab9cf01c3e33afffbfb70985a" target="_top" xlink:title=" ">
<polygon fill="white" stroke="#666666" points="516,-78 414,-78 414,-48 516,-48 516,-78"/>
<text text-anchor="start" x="422" y="-66" font-family="Helvetica,sans-Serif" font-size="10.00">lci::counter_set_x</text>
<text text-anchor="middle" x="465" y="-55" font-family="Helvetica,sans-Serif" font-size="10.00">::counter_set_x</text>
</a>
</g>
</g>
<!-- Node3&#45;&gt;Node4 -->
<g id="edge3_Node000003_Node000004" class="edge">
<title>Node3&#45;&gt;Node4</title>
<g id="a_edge3_Node000003_Node000004"><a xlink:title=" ">
<path fill="none" stroke="#63b8ff" d="M370.66,-95.94C383.7,-91.34 398.19,-86.23 411.78,-81.43"/>
<polygon fill="#63b8ff" stroke="#63b8ff" points="413.23,-84.63 421.49,-78 410.9,-78.03 413.23,-84.63"/>
</a>
</g>
</g>
<!-- Node5&#45;&gt;Node4 -->
<g id="edge5_Node000005_Node000004" class="edge">
<title>Node5&#45;&gt;Node4</title>
<g id="a_edge5_Node000005_Node000004"><a xlink:title=" ">
<path fill="none" stroke="#63b8ff" d="M378.25,-63C386.54,-63 395.2,-63 403.7,-63"/>
<polygon fill="#63b8ff" stroke="#63b8ff" points="403.95,-66.5 413.95,-63 403.95,-59.5 403.95,-66.5"/>
</a>
</g>
</g>
<!-- Node6&#45;&gt;Node4 -->
<g id="edge7_Node000006_Node000004" class="edge">
<title>Node6&#45;&gt;Node4</title>
<g id="a_edge7_Node000006_Node000004"><a xlink:title=" ">
<path fill="none" stroke="#63b8ff" d="M370.66,-30.06C383.7,-34.66 398.19,-39.77 411.78,-44.57"/>
<polygon fill="#63b8ff" stroke="#63b8ff" points="410.9,-47.97 421.49,-48 413.23,-41.37 410.9,-47.97"/>
</a>
</g>
</g>
</g>
</svg>
