<?xml version="1.0" encoding="UTF-8" standalone="no"?>
<!DOCTYPE svg PUBLIC "-//W3C//DTD SVG 1.1//EN"
 "http://www.w3.org/Graphics/SVG/1.1/DTD/svg11.dtd">
<!-- Generated by graphviz version 2.43.0 (0)
 -->
<!-- Title: lci::alloc_cq_x::call Pages: 1 -->
<svg width="292pt" height="64pt"
 viewBox="0.00 0.00 292.00 64.00" xmlns="http://www.w3.org/2000/svg" xmlns:xlink="http://www.w3.org/1999/xlink">
<g id="graph0" class="graph" transform="scale(1 1) rotate(0) translate(4 60)">
<title>lci::alloc_cq_x::call</title>
<!-- Node1 -->
<g id="Node000001" class="node">
<title>Node1</title>
<g id="a_Node000001"><a xlink:title=" ">
<polygon fill="#999999" stroke="#666666" points="284,-37 176,-37 176,-18 284,-18 284,-37"/>
<text text-anchor="middle" x="230" y="-25" font-family="Helvetica,sans-Serif" font-size="10.00">lci::alloc_cq_x::call</text>
</a>
</g>
</g>
<!-- Node2 -->
<g id="Node000002" class="node">
<title>Node2</title>
<g id="a_Node000002"><a xlink:href="../../d5/dd3/namespacelci.html#a6f475a6e5ce001cca691795999bdb46f" target="_top" xlink:title=" ">
<polygon fill="white" stroke="#666666" points="107,-56 33,-56 33,-37 107,-37 107,-56"/>
<text text-anchor="middle" x="70" y="-44" font-family="Helvetica,sans-Serif" font-size="10.00">lci::alloc_cq</text>
</a>
</g>
</g>
<!-- Node1&#45;&gt;Node2 -->
<g id="edge1_Node000001_Node000002" class="edge">
<title>Node1&#45;&gt;Node2</title>
<g id="a_edge1_Node000001_Node000002"><a xlink:title=" ">
<path fill="none" stroke="#63b8ff" d="M165.98,-35.08C146.02,-37.48 124.64,-40.05 107.23,-42.14"/>
<polygon fill="#63b8ff" stroke="#63b8ff" points="166.44,-38.55 175.95,-33.88 165.6,-31.6 166.44,-38.55"/>
</a>
</g>
</g>
<!-- Node3 -->
<g id="Node000003" class="node">
<title>Node3</title>
<g id="a_Node000003"><a xlink:href="../../d9/dcc/classlci_1_1alloc__cq__x.html#a322042229c6e4113bf3255bf6afc1556" target="_top" xlink:title=" ">
<polygon fill="white" stroke="#666666" points="140,-19 0,-19 0,0 140,0 140,-19"/>
<text text-anchor="middle" x="70" y="-7" font-family="Helvetica,sans-Serif" font-size="10.00">lci::alloc_cq_x::operator()</text>
</a>
</g>
</g>
<!-- Node1&#45;&gt;Node3 -->
<g id="edge2_Node000001_Node000003" class="edge">
<title>Node1&#45;&gt;Node3</title>
<g id="a_edge2_Node000001_Node000003"><a xlink:title=" ">
<path fill="none" stroke="#63b8ff" d="M165.82,-20.3C157.39,-19.34 148.71,-18.35 140.19,-17.38"/>
<polygon fill="#63b8ff" stroke="#63b8ff" points="165.62,-23.8 175.95,-21.46 166.41,-16.85 165.62,-23.8"/>
</a>
</g>
</g>
</g>
</svg>
