<?xml version="1.0" encoding="UTF-8" standalone="no"?>
<!DOCTYPE svg PUBLIC "-//W3C//DTD SVG 1.1//EN"
 "http://www.w3.org/Graphics/SVG/1.1/DTD/svg11.dtd">
<!-- Generated by graphviz version 2.43.0 (0)
 -->
<!-- Title: lci::alloc_cq_x::operator() Pages: 1 -->
<svg width="806pt" height="210pt"
 viewBox="0.00 0.00 806.00 209.50" xmlns="http://www.w3.org/2000/svg" xmlns:xlink="http://www.w3.org/1999/xlink">
<g id="graph0" class="graph" transform="scale(1 1) rotate(0) translate(4 205.5)">
<title>lci::alloc_cq_x::operator()</title>
<!-- Node1 -->
<g id="Node000001" class="node">
<title>Node1</title>
<g id="a_Node000001"><a xlink:title=" ">
<polygon fill="#999999" stroke="#666666" points="140,-113.5 0,-113.5 0,-94.5 140,-94.5 140,-113.5"/>
<text text-anchor="middle" x="70" y="-101.5" font-family="Helvetica,sans-Serif" font-size="10.00">lci::alloc_cq_x::operator()</text>
</a>
</g>
</g>
<!-- Node2 -->
<g id="Node000002" class="node">
<title>Node2</title>
<g id="a_Node000002"><a xlink:href="../../d9/dcc/classlci_1_1alloc__cq__x.html#a843c6066dd437c46e908012355010db7" target="_top" xlink:title=" ">
<polygon fill="white" stroke="#666666" points="284,-113.5 176,-113.5 176,-94.5 284,-94.5 284,-113.5"/>
<text text-anchor="middle" x="230" y="-101.5" font-family="Helvetica,sans-Serif" font-size="10.00">lci::alloc_cq_x::call</text>
</a>
</g>
</g>
<!-- Node1&#45;&gt;Node2 -->
<g id="edge1_Node000001_Node000002" class="edge">
<title>Node1&#45;&gt;Node2</title>
<g id="a_edge1_Node000001_Node000002"><a xlink:title=" ">
<path fill="none" stroke="#63b8ff" d="M140.3,-104C148.79,-104 157.43,-104 165.82,-104"/>
<polygon fill="#63b8ff" stroke="#63b8ff" points="165.91,-107.5 175.91,-104 165.91,-100.5 165.91,-107.5"/>
</a>
</g>
</g>
<!-- Node3 -->
<g id="Node000003" class="node">
<title>Node3</title>
<g id="a_Node000003"><a xlink:href="../../d9/dcc/classlci_1_1alloc__cq__x.html#ad457b9581e944657d99ee974020866f5" target="_top" xlink:title=" ">
<polygon fill="white" stroke="#666666" points="455,-132.5 320,-132.5 320,-113.5 455,-113.5 455,-132.5"/>
<text text-anchor="middle" x="387.5" y="-120.5" font-family="Helvetica,sans-Serif" font-size="10.00">lci::alloc_cq_x::call_impl</text>
</a>
</g>
</g>
<!-- Node2&#45;&gt;Node3 -->
<g id="edge2_Node000002_Node000003" class="edge">
<title>Node2&#45;&gt;Node3</title>
<g id="a_edge2_Node000002_Node000003"><a xlink:title=" ">
<path fill="none" stroke="#63b8ff" d="M284.08,-110.49C292.36,-111.5 301.06,-112.56 309.75,-113.62"/>
<polygon fill="#63b8ff" stroke="#63b8ff" points="309.56,-117.12 319.91,-114.86 310.41,-110.18 309.56,-117.12"/>
</a>
</g>
</g>
<!-- Node4 -->
<g id="Node000004" class="node">
<title>Node4</title>
<g id="a_Node000004"><a xlink:href="../../d9/dcc/classlci_1_1alloc__cq__x.html#a19f2e1f3e74e7aa72b6581c5663a8b56" target="_top" xlink:title=" ">
<polygon fill="white" stroke="#666666" points="620,-201.5 491,-201.5 491,-182.5 620,-182.5 620,-201.5"/>
<text text-anchor="middle" x="555.5" y="-189.5" font-family="Helvetica,sans-Serif" font-size="10.00">lci::alloc_cq_x::cq_type</text>
</a>
</g>
</g>
<!-- Node2&#45;&gt;Node4 -->
<g id="edge13_Node000002_Node000004" class="edge">
<title>Node2&#45;&gt;Node4</title>
<g id="a_edge13_Node000002_Node000004"><a xlink:title=" ">
<path fill="none" stroke="#63b8ff" d="M242.17,-113.72C258.2,-127.05 289.19,-150.67 320,-162 371.68,-181 433.59,-188.33 480.82,-191"/>
<polygon fill="#63b8ff" stroke="#63b8ff" points="480.81,-194.5 490.97,-191.51 481.16,-187.51 480.81,-194.5"/>
</a>
</g>
</g>
<!-- Node6 -->
<g id="Node000006" class="node">
<title>Node6</title>
<g id="a_Node000006"><a xlink:href="../../d9/dcc/classlci_1_1alloc__cq__x.html#a72025203cede01375dddf1d9c18dcc19" target="_top" xlink:title=" ">
<polygon fill="white" stroke="#666666" points="618,-164 493,-164 493,-134 618,-134 618,-164"/>
<text text-anchor="start" x="501" y="-152" font-family="Helvetica,sans-Serif" font-size="10.00">lci::alloc_cq_x::default</text>
<text text-anchor="middle" x="555.5" y="-141" font-family="Helvetica,sans-Serif" font-size="10.00">_length</text>
</a>
</g>
</g>
<!-- Node2&#45;&gt;Node6 -->
<g id="edge14_Node000002_Node000006" class="edge">
<title>Node2&#45;&gt;Node6</title>
<g id="a_edge14_Node000002_Node000006"><a xlink:title=" ">
<path fill="none" stroke="#63b8ff" d="M248.08,-113.59C265.54,-122.82 293.75,-136.22 320,-142 373.55,-153.79 435.63,-155.11 482.45,-153.72"/>
<polygon fill="#63b8ff" stroke="#63b8ff" points="482.63,-157.22 492.51,-153.37 482.39,-150.22 482.63,-157.22"/>
</a>
</g>
</g>
<!-- Node7 -->
<g id="Node000007" class="node">
<title>Node7</title>
<g id="a_Node000007"><a xlink:href="../../d9/dcc/classlci_1_1alloc__cq__x.html#ac2f17c7b6be490a78796abe917935c72" target="_top" xlink:title=" ">
<polygon fill="white" stroke="#666666" points="620,-115.5 491,-115.5 491,-96.5 620,-96.5 620,-115.5"/>
<text text-anchor="middle" x="555.5" y="-103.5" font-family="Helvetica,sans-Serif" font-size="10.00">lci::alloc_cq_x::runtime</text>
</a>
</g>
</g>
<!-- Node2&#45;&gt;Node7 -->
<g id="edge15_Node000002_Node000007" class="edge">
<title>Node2&#45;&gt;Node7</title>
<g id="a_edge15_Node000002_Node000007"><a xlink:title=" ">
<path fill="none" stroke="#63b8ff" d="M284.41,-104.15C329.79,-104.31 396.67,-104.58 455,-105 463.32,-105.06 472.03,-105.13 480.69,-105.21"/>
<polygon fill="#63b8ff" stroke="#63b8ff" points="480.77,-108.71 490.8,-105.31 480.84,-101.71 480.77,-108.71"/>
</a>
</g>
</g>
<!-- Node8 -->
<g id="Node000008" class="node">
<title>Node8</title>
<g id="a_Node000008"><a xlink:href="../../d9/dcc/classlci_1_1alloc__cq__x.html#ab0b1ae308a08b8397e25a53b0b9420df" target="_top" xlink:title=" ">
<polygon fill="white" stroke="#666666" points="611.5,-78 499.5,-78 499.5,-48 611.5,-48 611.5,-78"/>
<text text-anchor="start" x="507.5" y="-66" font-family="Helvetica,sans-Serif" font-size="10.00">lci::alloc_cq_x::user</text>
<text text-anchor="middle" x="555.5" y="-55" font-family="Helvetica,sans-Serif" font-size="10.00">_context</text>
</a>
</g>
</g>
<!-- Node2&#45;&gt;Node8 -->
<g id="edge16_Node000002_Node000008" class="edge">
<title>Node2&#45;&gt;Node8</title>
<g id="a_edge16_Node000002_Node000008"><a xlink:title=" ">
<path fill="none" stroke="#63b8ff" d="M284.06,-97.28C340.14,-90.17 428.68,-78.95 489.06,-71.29"/>
<polygon fill="#63b8ff" stroke="#63b8ff" points="489.77,-74.73 499.25,-70 488.89,-67.79 489.77,-74.73"/>
</a>
</g>
</g>
<!-- Node9 -->
<g id="Node000009" class="node">
<title>Node9</title>
<g id="a_Node000009"><a xlink:href="../../d9/dcc/classlci_1_1alloc__cq__x.html#a2624007487c5ea0e802af4e3b82746e2" target="_top" xlink:title=" ">
<polygon fill="white" stroke="#666666" points="611.5,-30 499.5,-30 499.5,0 611.5,0 611.5,-30"/>
<text text-anchor="start" x="507.5" y="-18" font-family="Helvetica,sans-Serif" font-size="10.00">lci::alloc_cq_x::zero</text>
<text text-anchor="middle" x="555.5" y="-7" font-family="Helvetica,sans-Serif" font-size="10.00">_copy_am</text>
</a>
</g>
</g>
<!-- Node2&#45;&gt;Node9 -->
<g id="edge17_Node000002_Node000009" class="edge">
<title>Node2&#45;&gt;Node9</title>
<g id="a_edge17_Node000002_Node000009"><a xlink:title=" ">
<path fill="none" stroke="#63b8ff" d="M255.32,-94.46C273.08,-87.69 297.83,-78.66 320,-72 376.57,-55.01 441.94,-39.45 489.28,-28.89"/>
<polygon fill="#63b8ff" stroke="#63b8ff" points="490.09,-32.3 499.09,-26.72 488.57,-25.46 490.09,-32.3"/>
</a>
</g>
</g>
<!-- Node3&#45;&gt;Node4 -->
<g id="edge3_Node000003_Node000004" class="edge">
<title>Node3&#45;&gt;Node4</title>
<g id="a_edge3_Node000003_Node000004"><a xlink:title=" ">
<path fill="none" stroke="#63b8ff" d="M405.88,-132.57C425.97,-143.36 460.2,-160.97 491,-173 496.84,-175.28 503.07,-177.45 509.26,-179.45"/>
<polygon fill="#63b8ff" stroke="#63b8ff" points="508.3,-182.82 518.89,-182.46 510.38,-176.14 508.3,-182.82"/>
</a>
</g>
</g>
<!-- Node3&#45;&gt;Node6 -->
<g id="edge5_Node000003_Node000006" class="edge">
<title>Node3&#45;&gt;Node6</title>
<g id="a_edge5_Node000003_Node000006"><a xlink:title=" ">
<path fill="none" stroke="#63b8ff" d="M449.37,-132.53C460.21,-134.23 471.59,-136.01 482.7,-137.75"/>
<polygon fill="#63b8ff" stroke="#63b8ff" points="482.38,-141.25 492.8,-139.34 483.47,-134.33 482.38,-141.25"/>
</a>
</g>
</g>
<!-- Node3&#45;&gt;Node7 -->
<g id="edge7_Node000003_Node000007" class="edge">
<title>Node3&#45;&gt;Node7</title>
<g id="a_edge7_Node000003_Node000007"><a xlink:title=" ">
<path fill="none" stroke="#63b8ff" d="M455.06,-116.18C463.55,-115.31 472.29,-114.42 480.88,-113.54"/>
<polygon fill="#63b8ff" stroke="#63b8ff" points="481.3,-117.01 490.89,-112.51 480.58,-110.05 481.3,-117.01"/>
</a>
</g>
</g>
<!-- Node3&#45;&gt;Node8 -->
<g id="edge9_Node000003_Node000008" class="edge">
<title>Node3&#45;&gt;Node8</title>
<g id="a_edge9_Node000003_Node000008"><a xlink:title=" ">
<path fill="none" stroke="#63b8ff" d="M414.8,-113.49C438.46,-104.94 473.88,-92.14 503.14,-81.56"/>
<polygon fill="#63b8ff" stroke="#63b8ff" points="504.58,-84.76 512.8,-78.07 502.2,-78.18 504.58,-84.76"/>
</a>
</g>
</g>
<!-- Node3&#45;&gt;Node9 -->
<g id="edge11_Node000003_Node000009" class="edge">
<title>Node3&#45;&gt;Node9</title>
<g id="a_edge11_Node000003_Node000009"><a xlink:title=" ">
<path fill="none" stroke="#63b8ff" d="M397.88,-113.49C415.02,-96.55 453.15,-60.87 491,-39 493.86,-37.35 496.85,-35.77 499.91,-34.27"/>
<polygon fill="#63b8ff" stroke="#63b8ff" points="501.61,-37.35 509.25,-30.01 498.7,-30.98 501.61,-37.35"/>
</a>
</g>
</g>
<!-- Node5 -->
<g id="Node000005" class="node">
<title>Node5</title>
<g id="a_Node000005"><a xlink:href="../../d9/dcc/classlci_1_1alloc__cq__x.html#a766ca548293630408f6e7192b1efce0f" target="_top" xlink:title=" ">
<polygon fill="white" stroke="#666666" points="798,-115.5 656,-115.5 656,-96.5 798,-96.5 798,-115.5"/>
<text text-anchor="middle" x="727" y="-103.5" font-family="Helvetica,sans-Serif" font-size="10.00">lci::alloc_cq_x::alloc_cq_x</text>
</a>
</g>
</g>
<!-- Node4&#45;&gt;Node5 -->
<g id="edge4_Node000004_Node000005" class="edge">
<title>Node4&#45;&gt;Node5</title>
<g id="a_edge4_Node000004_Node000005"><a xlink:title=" ">
<path fill="none" stroke="#63b8ff" d="M594.73,-182.4C603.21,-179.77 612.04,-176.62 620,-173 651.24,-158.78 684.21,-136.66 704.92,-121.77"/>
<polygon fill="#63b8ff" stroke="#63b8ff" points="707.25,-124.4 713.27,-115.68 703.13,-118.74 707.25,-124.4"/>
</a>
</g>
</g>
<!-- Node6&#45;&gt;Node5 -->
<g id="edge6_Node000006_Node000005" class="edge">
<title>Node6&#45;&gt;Node5</title>
<g id="a_edge6_Node000006_Node000005"><a xlink:title=" ">
<path fill="none" stroke="#63b8ff" d="M615.78,-133.96C636.35,-128.74 659.12,-122.97 678.61,-118.02"/>
<polygon fill="#63b8ff" stroke="#63b8ff" points="679.63,-121.37 688.46,-115.52 677.91,-114.59 679.63,-121.37"/>
</a>
</g>
</g>
<!-- Node7&#45;&gt;Node5 -->
<g id="edge8_Node000007_Node000005" class="edge">
<title>Node7&#45;&gt;Node5</title>
<g id="a_edge8_Node000007_Node000005"><a xlink:title=" ">
<path fill="none" stroke="#63b8ff" d="M620.1,-106C628.47,-106 637.14,-106 645.74,-106"/>
<polygon fill="#63b8ff" stroke="#63b8ff" points="645.79,-109.5 655.79,-106 645.79,-102.5 645.79,-109.5"/>
</a>
</g>
</g>
<!-- Node8&#45;&gt;Node5 -->
<g id="edge10_Node000008_Node000005" class="edge">
<title>Node8&#45;&gt;Node5</title>
<g id="a_edge10_Node000008_Node000005"><a xlink:title=" ">
<path fill="none" stroke="#63b8ff" d="M611.53,-76.96C633.13,-82.44 657.68,-88.67 678.49,-93.95"/>
<polygon fill="#63b8ff" stroke="#63b8ff" points="677.82,-97.39 688.37,-96.45 679.54,-90.6 677.82,-97.39"/>
</a>
</g>
</g>
<!-- Node9&#45;&gt;Node5 -->
<g id="edge12_Node000009_Node000005" class="edge">
<title>Node9&#45;&gt;Node5</title>
<g id="a_edge12_Node000009_Node000005"><a xlink:title=" ">
<path fill="none" stroke="#63b8ff" d="M600.04,-30.11C606.82,-32.85 613.67,-35.84 620,-39 650.55,-54.23 683.44,-75.94 704.35,-90.48"/>
<polygon fill="#63b8ff" stroke="#63b8ff" points="702.6,-93.53 712.79,-96.41 706.63,-87.8 702.6,-93.53"/>
</a>
</g>
</g>
</g>
</svg>
