<?xml version="1.0" encoding="UTF-8" standalone="no"?>
<!DOCTYPE svg PUBLIC "-//W3C//DTD SVG 1.1//EN"
 "http://www.w3.org/Graphics/SVG/1.1/DTD/svg11.dtd">
<!-- Generated by graphviz version 2.43.0 (0)
 -->
<!-- Title: lci::alloc_cq_x::operator() Pages: 1 -->
<svg width="806pt" height="247pt"
 viewBox="0.00 0.00 806.00 246.50" xmlns="http://www.w3.org/2000/svg" xmlns:xlink="http://www.w3.org/1999/xlink">
<g id="graph0" class="graph" transform="scale(1 1) rotate(0) translate(4 242.5)">
<title>lci::alloc_cq_x::operator()</title>
<!-- Node1 -->
<g id="Node000001" class="node">
<title>Node1</title>
<g id="a_Node000001"><a xlink:title=" ">
<polygon fill="#999999" stroke="#666666" points="140,-131.5 0,-131.5 0,-112.5 140,-112.5 140,-131.5"/>
<text text-anchor="middle" x="70" y="-119.5" font-family="Helvetica,sans-Serif" font-size="10.00">lci::alloc_cq_x::operator()</text>
</a>
</g>
</g>
<!-- Node2 -->
<g id="Node000002" class="node">
<title>Node2</title>
<g id="a_Node000002"><a xlink:href="../../d9/dcc/classlci_1_1alloc__cq__x.html#a843c6066dd437c46e908012355010db7" target="_top" xlink:title=" ">
<polygon fill="white" stroke="#666666" points="284,-131.5 176,-131.5 176,-112.5 284,-112.5 284,-131.5"/>
<text text-anchor="middle" x="230" y="-119.5" font-family="Helvetica,sans-Serif" font-size="10.00">lci::alloc_cq_x::call</text>
</a>
</g>
</g>
<!-- Node1&#45;&gt;Node2 -->
<g id="edge1_Node000001_Node000002" class="edge">
<title>Node1&#45;&gt;Node2</title>
<g id="a_edge1_Node000001_Node000002"><a xlink:title=" ">
<path fill="none" stroke="#63b8ff" d="M140.3,-122C148.79,-122 157.43,-122 165.82,-122"/>
<polygon fill="#63b8ff" stroke="#63b8ff" points="165.91,-125.5 175.91,-122 165.91,-118.5 165.91,-125.5"/>
</a>
</g>
</g>
<!-- Node3 -->
<g id="Node000003" class="node">
<title>Node3</title>
<g id="a_Node000003"><a xlink:href="../../d9/dcc/classlci_1_1alloc__cq__x.html#a7275ec9d3ce579f2e26184c8072bc981" target="_top" xlink:title=" ">
<polygon fill="white" stroke="#666666" points="455,-131.5 320,-131.5 320,-112.5 455,-112.5 455,-131.5"/>
<text text-anchor="middle" x="387.5" y="-119.5" font-family="Helvetica,sans-Serif" font-size="10.00">lci::alloc_cq_x::call_impl</text>
</a>
</g>
</g>
<!-- Node2&#45;&gt;Node3 -->
<g id="edge2_Node000002_Node000003" class="edge">
<title>Node2&#45;&gt;Node3</title>
<g id="a_edge2_Node000002_Node000003"><a xlink:title=" ">
<path fill="none" stroke="#63b8ff" d="M284.08,-122C292.36,-122 301.06,-122 309.75,-122"/>
<polygon fill="#63b8ff" stroke="#63b8ff" points="309.91,-125.5 319.91,-122 309.91,-118.5 309.91,-125.5"/>
</a>
</g>
</g>
<!-- Node4 -->
<g id="Node000004" class="node">
<title>Node4</title>
<g id="a_Node000004"><a xlink:href="../../d9/dcc/classlci_1_1alloc__cq__x.html#a19f2e1f3e74e7aa72b6581c5663a8b56" target="_top" xlink:title=" ">
<polygon fill="white" stroke="#666666" points="620,-238.5 491,-238.5 491,-219.5 620,-219.5 620,-238.5"/>
<text text-anchor="middle" x="555.5" y="-226.5" font-family="Helvetica,sans-Serif" font-size="10.00">lci::alloc_cq_x::cq_type</text>
</a>
</g>
</g>
<!-- Node2&#45;&gt;Node4 -->
<g id="edge15_Node000002_Node000004" class="edge">
<title>Node2&#45;&gt;Node4</title>
<g id="a_edge15_Node000002_Node000004"><a xlink:title=" ">
<path fill="none" stroke="#63b8ff" d="M241.96,-131.53C257.97,-144.94 289.22,-169.15 320,-182 371.4,-203.46 433.33,-215.34 480.64,-221.78"/>
<polygon fill="#63b8ff" stroke="#63b8ff" points="480.43,-225.28 490.8,-223.11 481.34,-218.34 480.43,-225.28"/>
</a>
</g>
</g>
<!-- Node6 -->
<g id="Node000006" class="node">
<title>Node6</title>
<g id="a_Node000006"><a xlink:href="../../d9/dcc/classlci_1_1alloc__cq__x.html#a72025203cede01375dddf1d9c18dcc19" target="_top" xlink:title=" ">
<polygon fill="white" stroke="#666666" points="618,-201 493,-201 493,-171 618,-171 618,-201"/>
<text text-anchor="start" x="501" y="-189" font-family="Helvetica,sans-Serif" font-size="10.00">lci::alloc_cq_x::default</text>
<text text-anchor="middle" x="555.5" y="-178" font-family="Helvetica,sans-Serif" font-size="10.00">_length</text>
</a>
</g>
</g>
<!-- Node2&#45;&gt;Node6 -->
<g id="edge16_Node000002_Node000006" class="edge">
<title>Node2&#45;&gt;Node6</title>
<g id="a_edge16_Node000002_Node000006"><a xlink:title=" ">
<path fill="none" stroke="#63b8ff" d="M251.02,-131.56C268.75,-139.61 295.54,-150.78 320,-157 373.71,-170.65 436.03,-177.97 482.92,-181.84"/>
<polygon fill="#63b8ff" stroke="#63b8ff" points="482.74,-185.33 492.99,-182.63 483.29,-178.36 482.74,-185.33"/>
</a>
</g>
</g>
<!-- Node7 -->
<g id="Node000007" class="node">
<title>Node7</title>
<g id="a_Node000007"><a xlink:href="../../d9/dcc/classlci_1_1alloc__cq__x.html#a736d190259b4d9b14e3b6844512c50a4" target="_top" xlink:title=" ">
<polygon fill="white" stroke="#666666" points="615,-152.5 496,-152.5 496,-133.5 615,-133.5 615,-152.5"/>
<text text-anchor="middle" x="555.5" y="-140.5" font-family="Helvetica,sans-Serif" font-size="10.00">lci::alloc_cq_x::name</text>
</a>
</g>
</g>
<!-- Node2&#45;&gt;Node7 -->
<g id="edge17_Node000002_Node000007" class="edge">
<title>Node2&#45;&gt;Node7</title>
<g id="a_edge17_Node000002_Node000007"><a xlink:title=" ">
<path fill="none" stroke="#63b8ff" d="M267.54,-131.54C283.52,-135.26 302.57,-139.08 320,-141 375.42,-147.09 438.66,-147.24 485.49,-146.06"/>
<polygon fill="#63b8ff" stroke="#63b8ff" points="485.62,-149.55 495.52,-145.78 485.43,-142.56 485.62,-149.55"/>
</a>
</g>
</g>
<!-- Node8 -->
<g id="Node000008" class="node">
<title>Node8</title>
<g id="a_Node000008"><a xlink:href="../../d9/dcc/classlci_1_1alloc__cq__x.html#ac2f17c7b6be490a78796abe917935c72" target="_top" xlink:title=" ">
<polygon fill="white" stroke="#666666" points="620,-115.5 491,-115.5 491,-96.5 620,-96.5 620,-115.5"/>
<text text-anchor="middle" x="555.5" y="-103.5" font-family="Helvetica,sans-Serif" font-size="10.00">lci::alloc_cq_x::runtime</text>
</a>
</g>
</g>
<!-- Node2&#45;&gt;Node8 -->
<g id="edge18_Node000002_Node000008" class="edge">
<title>Node2&#45;&gt;Node8</title>
<g id="a_edge18_Node000002_Node000008"><a xlink:title=" ">
<path fill="none" stroke="#63b8ff" d="M269.73,-112.42C285.26,-109.04 303.37,-105.66 320,-104 373.48,-98.65 434.16,-99.35 480.4,-101.28"/>
<polygon fill="#63b8ff" stroke="#63b8ff" points="480.49,-104.79 490.63,-101.74 480.8,-97.79 480.49,-104.79"/>
</a>
</g>
</g>
<!-- Node9 -->
<g id="Node000009" class="node">
<title>Node9</title>
<g id="a_Node000009"><a xlink:href="../../d9/dcc/classlci_1_1alloc__cq__x.html#ab0b1ae308a08b8397e25a53b0b9420df" target="_top" xlink:title=" ">
<polygon fill="white" stroke="#666666" points="611.5,-78 499.5,-78 499.5,-48 611.5,-48 611.5,-78"/>
<text text-anchor="start" x="507.5" y="-66" font-family="Helvetica,sans-Serif" font-size="10.00">lci::alloc_cq_x::user</text>
<text text-anchor="middle" x="555.5" y="-55" font-family="Helvetica,sans-Serif" font-size="10.00">_context</text>
</a>
</g>
</g>
<!-- Node2&#45;&gt;Node9 -->
<g id="edge19_Node000002_Node000009" class="edge">
<title>Node2&#45;&gt;Node9</title>
<g id="a_edge19_Node000002_Node000009"><a xlink:title=" ">
<path fill="none" stroke="#63b8ff" d="M258.36,-112.46C275.82,-106.69 299.02,-99.58 320,-95 376.47,-82.66 441.69,-74.22 488.99,-69.12"/>
<polygon fill="#63b8ff" stroke="#63b8ff" points="489.53,-72.58 499.1,-68.05 488.79,-65.62 489.53,-72.58"/>
</a>
</g>
</g>
<!-- Node10 -->
<g id="Node000010" class="node">
<title>Node10</title>
<g id="a_Node000010"><a xlink:href="../../d9/dcc/classlci_1_1alloc__cq__x.html#a2624007487c5ea0e802af4e3b82746e2" target="_top" xlink:title=" ">
<polygon fill="white" stroke="#666666" points="611.5,-30 499.5,-30 499.5,0 611.5,0 611.5,-30"/>
<text text-anchor="start" x="507.5" y="-18" font-family="Helvetica,sans-Serif" font-size="10.00">lci::alloc_cq_x::zero</text>
<text text-anchor="middle" x="555.5" y="-7" font-family="Helvetica,sans-Serif" font-size="10.00">_copy_am</text>
</a>
</g>
</g>
<!-- Node2&#45;&gt;Node10 -->
<g id="edge20_Node000002_Node000010" class="edge">
<title>Node2&#45;&gt;Node10</title>
<g id="a_edge20_Node000002_Node000010"><a xlink:title=" ">
<path fill="none" stroke="#63b8ff" d="M244.19,-112.35C260.99,-100.49 291.29,-80.52 320,-69 375.2,-46.84 441.53,-32.63 489.54,-24.38"/>
<polygon fill="#63b8ff" stroke="#63b8ff" points="490.21,-27.81 499.5,-22.7 489.05,-20.91 490.21,-27.81"/>
</a>
</g>
</g>
<!-- Node3&#45;&gt;Node4 -->
<g id="edge3_Node000003_Node000004" class="edge">
<title>Node3&#45;&gt;Node4</title>
<g id="a_edge3_Node000003_Node000004"><a xlink:title=" ">
<path fill="none" stroke="#63b8ff" d="M397.11,-131.7C413.59,-149.7 451.48,-188.41 491,-210 495.03,-212.2 499.34,-214.18 503.76,-215.95"/>
<polygon fill="#63b8ff" stroke="#63b8ff" points="502.91,-219.36 513.51,-219.49 505.3,-212.78 502.91,-219.36"/>
</a>
</g>
</g>
<!-- Node3&#45;&gt;Node6 -->
<g id="edge5_Node000003_Node000006" class="edge">
<title>Node3&#45;&gt;Node6</title>
<g id="a_edge5_Node000003_Node000006"><a xlink:title=" ">
<path fill="none" stroke="#63b8ff" d="M412.91,-131.61C433.66,-139.76 464.25,-151.73 491,-162 495.51,-163.73 500.2,-165.52 504.9,-167.31"/>
<polygon fill="#63b8ff" stroke="#63b8ff" points="503.91,-170.68 514.5,-170.96 506.4,-164.14 503.91,-170.68"/>
</a>
</g>
</g>
<!-- Node3&#45;&gt;Node7 -->
<g id="edge7_Node000003_Node000007" class="edge">
<title>Node3&#45;&gt;Node7</title>
<g id="a_edge7_Node000003_Node000007"><a xlink:title=" ">
<path fill="none" stroke="#63b8ff" d="M455.06,-130.42C465.21,-131.7 475.7,-133.03 485.89,-134.32"/>
<polygon fill="#63b8ff" stroke="#63b8ff" points="485.6,-137.81 495.96,-135.59 486.47,-130.87 485.6,-137.81"/>
</a>
</g>
</g>
<!-- Node3&#45;&gt;Node8 -->
<g id="edge9_Node000003_Node000008" class="edge">
<title>Node3&#45;&gt;Node8</title>
<g id="a_edge9_Node000003_Node000008"><a xlink:title=" ">
<path fill="none" stroke="#63b8ff" d="M455.06,-115.58C463.55,-114.77 472.29,-113.92 480.88,-113.1"/>
<polygon fill="#63b8ff" stroke="#63b8ff" points="481.27,-116.57 490.89,-112.13 480.6,-109.61 481.27,-116.57"/>
</a>
</g>
</g>
<!-- Node3&#45;&gt;Node9 -->
<g id="edge11_Node000003_Node000009" class="edge">
<title>Node3&#45;&gt;Node9</title>
<g id="a_edge11_Node000003_Node000009"><a xlink:title=" ">
<path fill="none" stroke="#63b8ff" d="M415.54,-112.39C439.06,-104.03 473.81,-91.68 502.68,-81.42"/>
<polygon fill="#63b8ff" stroke="#63b8ff" points="503.97,-84.68 512.22,-78.03 501.62,-78.08 503.97,-84.68"/>
</a>
</g>
</g>
<!-- Node3&#45;&gt;Node10 -->
<g id="edge13_Node000003_Node000010" class="edge">
<title>Node3&#45;&gt;Node10</title>
<g id="a_edge13_Node000003_Node000010"><a xlink:title=" ">
<path fill="none" stroke="#63b8ff" d="M398.17,-112.35C415.48,-95.52 453.47,-60.54 491,-39 493.86,-37.36 496.86,-35.79 499.92,-34.29"/>
<polygon fill="#63b8ff" stroke="#63b8ff" points="501.61,-37.37 509.27,-30.04 498.72,-31 501.61,-37.37"/>
</a>
</g>
</g>
<!-- Node5 -->
<g id="Node000005" class="node">
<title>Node5</title>
<g id="a_Node000005"><a xlink:href="../../d9/dcc/classlci_1_1alloc__cq__x.html#a766ca548293630408f6e7192b1efce0f" target="_top" xlink:title=" ">
<polygon fill="white" stroke="#666666" points="798,-133.5 656,-133.5 656,-114.5 798,-114.5 798,-133.5"/>
<text text-anchor="middle" x="727" y="-121.5" font-family="Helvetica,sans-Serif" font-size="10.00">lci::alloc_cq_x::alloc_cq_x</text>
</a>
</g>
</g>
<!-- Node4&#45;&gt;Node5 -->
<g id="edge4_Node000004_Node000005" class="edge">
<title>Node4&#45;&gt;Node5</title>
<g id="a_edge4_Node000004_Node000005"><a xlink:title=" ">
<path fill="none" stroke="#63b8ff" d="M597.07,-219.45C604.9,-216.89 612.88,-213.76 620,-210 655.17,-191.41 689.8,-160.22 709.47,-140.95"/>
<polygon fill="#63b8ff" stroke="#63b8ff" points="712.1,-143.27 716.71,-133.73 707.16,-138.31 712.1,-143.27"/>
</a>
</g>
</g>
<!-- Node6&#45;&gt;Node5 -->
<g id="edge6_Node000006_Node000005" class="edge">
<title>Node6&#45;&gt;Node5</title>
<g id="a_edge6_Node000006_Node000005"><a xlink:title=" ">
<path fill="none" stroke="#63b8ff" d="M597.53,-170.99C625.89,-160.62 663.24,-146.95 690.36,-137.04"/>
<polygon fill="#63b8ff" stroke="#63b8ff" points="691.66,-140.29 699.85,-133.57 689.26,-133.71 691.66,-140.29"/>
</a>
</g>
</g>
<!-- Node7&#45;&gt;Node5 -->
<g id="edge8_Node000007_Node000005" class="edge">
<title>Node7&#45;&gt;Node5</title>
<g id="a_edge8_Node000007_Node000005"><a xlink:title=" ">
<path fill="none" stroke="#63b8ff" d="M615.31,-136.41C625.13,-135.31 635.47,-134.15 645.72,-133"/>
<polygon fill="#63b8ff" stroke="#63b8ff" points="646.38,-136.45 655.92,-131.86 645.6,-129.49 646.38,-136.45"/>
</a>
</g>
</g>
<!-- Node8&#45;&gt;Node5 -->
<g id="edge10_Node000008_Node000005" class="edge">
<title>Node8&#45;&gt;Node5</title>
<g id="a_edge10_Node000008_Node000005"><a xlink:title=" ">
<path fill="none" stroke="#63b8ff" d="M620.1,-112.75C628.47,-113.64 637.14,-114.56 645.74,-115.48"/>
<polygon fill="#63b8ff" stroke="#63b8ff" points="645.48,-118.97 655.79,-116.54 646.22,-112.01 645.48,-118.97"/>
</a>
</g>
</g>
<!-- Node9&#45;&gt;Node5 -->
<g id="edge12_Node000009_Node000005" class="edge">
<title>Node9&#45;&gt;Node5</title>
<g id="a_edge12_Node000009_Node000005"><a xlink:title=" ">
<path fill="none" stroke="#63b8ff" d="M598.4,-78.08C626.39,-88.15 662.84,-101.27 689.62,-110.91"/>
<polygon fill="#63b8ff" stroke="#63b8ff" points="688.77,-114.32 699.37,-114.42 691.14,-107.74 688.77,-114.32"/>
</a>
</g>
</g>
<!-- Node10&#45;&gt;Node5 -->
<g id="edge14_Node000010_Node000005" class="edge">
<title>Node10&#45;&gt;Node5</title>
<g id="a_edge14_Node000010_Node000005"><a xlink:title=" ">
<path fill="none" stroke="#63b8ff" d="M601.72,-30.07C608.01,-32.74 614.27,-35.73 620,-39 654.21,-58.53 688.89,-88.75 708.88,-107.4"/>
<polygon fill="#63b8ff" stroke="#63b8ff" points="706.59,-110.06 716.26,-114.39 711.41,-104.98 706.59,-110.06"/>
</a>
</g>
</g>
</g>
</svg>
