<?xml version="1.0" encoding="UTF-8" standalone="no"?>
<!DOCTYPE svg PUBLIC "-//W3C//DTD SVG 1.1//EN"
 "http://www.w3.org/Graphics/SVG/1.1/DTD/svg11.dtd">
<!-- Generated by graphviz version 2.43.0 (0)
 -->
<!-- Title: lci::alloc_cq_x::alloc_cq_x Pages: 1 -->
<svg width="806pt" height="210pt"
 viewBox="0.00 0.00 806.00 209.50" xmlns="http://www.w3.org/2000/svg" xmlns:xlink="http://www.w3.org/1999/xlink">
<g id="graph0" class="graph" transform="scale(1 1) rotate(0) translate(4 205.5)">
<title>lci::alloc_cq_x::alloc_cq_x</title>
<!-- Node1 -->
<g id="Node000001" class="node">
<title>Node1</title>
<g id="a_Node000001"><a xlink:title=" ">
<polygon fill="#999999" stroke="#666666" points="798,-115.5 656,-115.5 656,-96.5 798,-96.5 798,-115.5"/>
<text text-anchor="middle" x="727" y="-103.5" font-family="Helvetica,sans-Serif" font-size="10.00">lci::alloc_cq_x::alloc_cq_x</text>
</a>
</g>
</g>
<!-- Node2 -->
<g id="Node000002" class="node">
<title>Node2</title>
<g id="a_Node000002"><a xlink:href="../../d9/dcc/classlci_1_1alloc__cq__x.html#a19f2e1f3e74e7aa72b6581c5663a8b56" target="_top" xlink:title=" ">
<polygon fill="white" stroke="#666666" points="620,-201.5 491,-201.5 491,-182.5 620,-182.5 620,-201.5"/>
<text text-anchor="middle" x="555.5" y="-189.5" font-family="Helvetica,sans-Serif" font-size="10.00">lci::alloc_cq_x::cq_type</text>
</a>
</g>
</g>
<!-- Node1&#45;&gt;Node2 -->
<g id="edge1_Node000001_Node000002" class="edge">
<title>Node1&#45;&gt;Node2</title>
<g id="a_edge1_Node000001_Node000002"><a xlink:title=" ">
<path fill="none" stroke="#63b8ff" d="M704.92,-121.77C684.21,-136.66 651.24,-158.78 620,-173 612.04,-176.62 603.21,-179.77 594.73,-182.4"/>
<polygon fill="#63b8ff" stroke="#63b8ff" points="707.25,-124.4 713.27,-115.68 703.13,-118.74 707.25,-124.4"/>
</a>
</g>
</g>
<!-- Node7 -->
<g id="Node000007" class="node">
<title>Node7</title>
<g id="a_Node000007"><a xlink:href="../../d9/dcc/classlci_1_1alloc__cq__x.html#a72025203cede01375dddf1d9c18dcc19" target="_top" xlink:title=" ">
<polygon fill="white" stroke="#666666" points="618,-164 493,-164 493,-134 618,-134 618,-164"/>
<text text-anchor="start" x="501" y="-152" font-family="Helvetica,sans-Serif" font-size="10.00">lci::alloc_cq_x::default</text>
<text text-anchor="middle" x="555.5" y="-141" font-family="Helvetica,sans-Serif" font-size="10.00">_length</text>
</a>
</g>
</g>
<!-- Node1&#45;&gt;Node7 -->
<g id="edge7_Node000001_Node000007" class="edge">
<title>Node1&#45;&gt;Node7</title>
<g id="a_edge7_Node000001_Node000007"><a xlink:title=" ">
<path fill="none" stroke="#63b8ff" d="M678.51,-118.05C659.01,-122.99 636.22,-128.78 615.65,-133.99"/>
<polygon fill="#63b8ff" stroke="#63b8ff" points="679.55,-121.39 688.38,-115.54 677.83,-114.61 679.55,-121.39"/>
</a>
</g>
</g>
<!-- Node8 -->
<g id="Node000008" class="node">
<title>Node8</title>
<g id="a_Node000008"><a xlink:href="../../d9/dcc/classlci_1_1alloc__cq__x.html#ac2f17c7b6be490a78796abe917935c72" target="_top" xlink:title=" ">
<polygon fill="white" stroke="#666666" points="620,-115.5 491,-115.5 491,-96.5 620,-96.5 620,-115.5"/>
<text text-anchor="middle" x="555.5" y="-103.5" font-family="Helvetica,sans-Serif" font-size="10.00">lci::alloc_cq_x::runtime</text>
</a>
</g>
</g>
<!-- Node1&#45;&gt;Node8 -->
<g id="edge10_Node000001_Node000008" class="edge">
<title>Node1&#45;&gt;Node8</title>
<g id="a_edge10_Node000001_Node000008"><a xlink:title=" ">
<path fill="none" stroke="#63b8ff" d="M645.34,-106C636.9,-106 628.41,-106 620.19,-106"/>
<polygon fill="#63b8ff" stroke="#63b8ff" points="645.59,-109.5 655.59,-106 645.59,-102.5 645.59,-109.5"/>
</a>
</g>
</g>
<!-- Node9 -->
<g id="Node000009" class="node">
<title>Node9</title>
<g id="a_Node000009"><a xlink:href="../../d9/dcc/classlci_1_1alloc__cq__x.html#ab0b1ae308a08b8397e25a53b0b9420df" target="_top" xlink:title=" ">
<polygon fill="white" stroke="#666666" points="611.5,-78 499.5,-78 499.5,-48 611.5,-48 611.5,-78"/>
<text text-anchor="start" x="507.5" y="-66" font-family="Helvetica,sans-Serif" font-size="10.00">lci::alloc_cq_x::user</text>
<text text-anchor="middle" x="555.5" y="-55" font-family="Helvetica,sans-Serif" font-size="10.00">_context</text>
</a>
</g>
</g>
<!-- Node1&#45;&gt;Node9 -->
<g id="edge13_Node000001_Node000009" class="edge">
<title>Node1&#45;&gt;Node9</title>
<g id="a_edge13_Node000001_Node000009"><a xlink:title=" ">
<path fill="none" stroke="#63b8ff" d="M678.52,-93.95C657.76,-88.69 633.28,-82.48 611.71,-77.01"/>
<polygon fill="#63b8ff" stroke="#63b8ff" points="677.83,-97.39 688.38,-96.46 679.55,-90.61 677.83,-97.39"/>
</a>
</g>
</g>
<!-- Node10 -->
<g id="Node000010" class="node">
<title>Node10</title>
<g id="a_Node000010"><a xlink:href="../../d9/dcc/classlci_1_1alloc__cq__x.html#a2624007487c5ea0e802af4e3b82746e2" target="_top" xlink:title=" ">
<polygon fill="white" stroke="#666666" points="611.5,-30 499.5,-30 499.5,0 611.5,0 611.5,-30"/>
<text text-anchor="start" x="507.5" y="-18" font-family="Helvetica,sans-Serif" font-size="10.00">lci::alloc_cq_x::zero</text>
<text text-anchor="middle" x="555.5" y="-7" font-family="Helvetica,sans-Serif" font-size="10.00">_copy_am</text>
</a>
</g>
</g>
<!-- Node1&#45;&gt;Node10 -->
<g id="edge16_Node000001_Node000010" class="edge">
<title>Node1&#45;&gt;Node10</title>
<g id="a_edge16_Node000001_Node000010"><a xlink:title=" ">
<path fill="none" stroke="#63b8ff" d="M704.35,-90.48C683.44,-75.94 650.55,-54.23 620,-39 613.67,-35.84 606.82,-32.85 600.04,-30.11"/>
<polygon fill="#63b8ff" stroke="#63b8ff" points="702.6,-93.53 712.79,-96.41 706.63,-87.8 702.6,-93.53"/>
</a>
</g>
</g>
<!-- Node3 -->
<g id="Node000003" class="node">
<title>Node3</title>
<g id="a_Node000003"><a xlink:href="../../d9/dcc/classlci_1_1alloc__cq__x.html#a843c6066dd437c46e908012355010db7" target="_top" xlink:title=" ">
<polygon fill="white" stroke="#666666" points="284,-113.5 176,-113.5 176,-94.5 284,-94.5 284,-113.5"/>
<text text-anchor="middle" x="230" y="-101.5" font-family="Helvetica,sans-Serif" font-size="10.00">lci::alloc_cq_x::call</text>
</a>
</g>
</g>
<!-- Node2&#45;&gt;Node3 -->
<g id="edge2_Node000002_Node000003" class="edge">
<title>Node2&#45;&gt;Node3</title>
<g id="a_edge2_Node000002_Node000003"><a xlink:title=" ">
<path fill="none" stroke="#63b8ff" d="M480.82,-191C433.59,-188.33 371.68,-181 320,-162 289.19,-150.67 258.2,-127.05 242.17,-113.72"/>
<polygon fill="#63b8ff" stroke="#63b8ff" points="480.81,-194.5 490.97,-191.51 481.16,-187.51 480.81,-194.5"/>
</a>
</g>
</g>
<!-- Node6 -->
<g id="Node000006" class="node">
<title>Node6</title>
<g id="a_Node000006"><a xlink:href="../../d9/dcc/classlci_1_1alloc__cq__x.html#ad457b9581e944657d99ee974020866f5" target="_top" xlink:title=" ">
<polygon fill="white" stroke="#666666" points="455,-132.5 320,-132.5 320,-113.5 455,-113.5 455,-132.5"/>
<text text-anchor="middle" x="387.5" y="-120.5" font-family="Helvetica,sans-Serif" font-size="10.00">lci::alloc_cq_x::call_impl</text>
</a>
</g>
</g>
<!-- Node2&#45;&gt;Node6 -->
<g id="edge5_Node000002_Node000006" class="edge">
<title>Node2&#45;&gt;Node6</title>
<g id="a_edge5_Node000002_Node000006"><a xlink:title=" ">
<path fill="none" stroke="#63b8ff" d="M509.26,-179.45C503.07,-177.45 496.84,-175.28 491,-173 460.2,-160.97 425.97,-143.36 405.88,-132.57"/>
<polygon fill="#63b8ff" stroke="#63b8ff" points="508.3,-182.82 518.89,-182.46 510.38,-176.14 508.3,-182.82"/>
</a>
</g>
</g>
<!-- Node4 -->
<g id="Node000004" class="node">
<title>Node4</title>
<g id="a_Node000004"><a xlink:href="../../d5/dd3/namespacelci.html#a6f475a6e5ce001cca691795999bdb46f" target="_top" xlink:title=" ">
<polygon fill="white" stroke="#666666" points="107,-132.5 33,-132.5 33,-113.5 107,-113.5 107,-132.5"/>
<text text-anchor="middle" x="70" y="-120.5" font-family="Helvetica,sans-Serif" font-size="10.00">lci::alloc_cq</text>
</a>
</g>
</g>
<!-- Node3&#45;&gt;Node4 -->
<g id="edge3_Node000003_Node000004" class="edge">
<title>Node3&#45;&gt;Node4</title>
<g id="a_edge3_Node000003_Node000004"><a xlink:title=" ">
<path fill="none" stroke="#63b8ff" d="M165.98,-111.58C146.02,-113.98 124.64,-116.55 107.23,-118.64"/>
<polygon fill="#63b8ff" stroke="#63b8ff" points="166.44,-115.05 175.95,-110.38 165.6,-108.1 166.44,-115.05"/>
</a>
</g>
</g>
<!-- Node5 -->
<g id="Node000005" class="node">
<title>Node5</title>
<g id="a_Node000005"><a xlink:href="../../d9/dcc/classlci_1_1alloc__cq__x.html#a322042229c6e4113bf3255bf6afc1556" target="_top" xlink:title=" ">
<polygon fill="white" stroke="#666666" points="140,-95.5 0,-95.5 0,-76.5 140,-76.5 140,-95.5"/>
<text text-anchor="middle" x="70" y="-83.5" font-family="Helvetica,sans-Serif" font-size="10.00">lci::alloc_cq_x::operator()</text>
</a>
</g>
</g>
<!-- Node3&#45;&gt;Node5 -->
<g id="edge4_Node000003_Node000005" class="edge">
<title>Node3&#45;&gt;Node5</title>
<g id="a_edge4_Node000003_Node000005"><a xlink:title=" ">
<path fill="none" stroke="#63b8ff" d="M165.82,-96.8C157.39,-95.84 148.71,-94.85 140.19,-93.88"/>
<polygon fill="#63b8ff" stroke="#63b8ff" points="165.62,-100.3 175.95,-97.96 166.41,-93.35 165.62,-100.3"/>
</a>
</g>
</g>
<!-- Node6&#45;&gt;Node3 -->
<g id="edge6_Node000006_Node000003" class="edge">
<title>Node6&#45;&gt;Node3</title>
<g id="a_edge6_Node000006_Node000003"><a xlink:title=" ">
<path fill="none" stroke="#63b8ff" d="M309.59,-113.6C301,-112.55 292.39,-111.5 284.19,-110.5"/>
<polygon fill="#63b8ff" stroke="#63b8ff" points="309.3,-117.09 319.65,-114.83 310.15,-110.14 309.3,-117.09"/>
</a>
</g>
</g>
<!-- Node7&#45;&gt;Node3 -->
<g id="edge8_Node000007_Node000003" class="edge">
<title>Node7&#45;&gt;Node3</title>
<g id="a_edge8_Node000007_Node000003"><a xlink:title=" ">
<path fill="none" stroke="#63b8ff" d="M482.45,-153.72C435.63,-155.11 373.55,-153.79 320,-142 293.75,-136.22 265.54,-122.82 248.08,-113.59"/>
<polygon fill="#63b8ff" stroke="#63b8ff" points="482.63,-157.22 492.51,-153.37 482.39,-150.22 482.63,-157.22"/>
</a>
</g>
</g>
<!-- Node7&#45;&gt;Node6 -->
<g id="edge9_Node000007_Node000006" class="edge">
<title>Node7&#45;&gt;Node6</title>
<g id="a_edge9_Node000007_Node000006"><a xlink:title=" ">
<path fill="none" stroke="#63b8ff" d="M482.58,-137.74C471.47,-136 460.09,-134.21 449.26,-132.52"/>
<polygon fill="#63b8ff" stroke="#63b8ff" points="482.27,-141.23 492.69,-139.32 483.35,-134.31 482.27,-141.23"/>
</a>
</g>
</g>
<!-- Node8&#45;&gt;Node3 -->
<g id="edge11_Node000008_Node000003" class="edge">
<title>Node8&#45;&gt;Node3</title>
<g id="a_edge11_Node000008_Node000003"><a xlink:title=" ">
<path fill="none" stroke="#63b8ff" d="M480.69,-105.21C472.03,-105.13 463.32,-105.06 455,-105 396.67,-104.58 329.79,-104.31 284.41,-104.15"/>
<polygon fill="#63b8ff" stroke="#63b8ff" points="480.77,-108.71 490.8,-105.31 480.84,-101.71 480.77,-108.71"/>
</a>
</g>
</g>
<!-- Node8&#45;&gt;Node6 -->
<g id="edge12_Node000008_Node000006" class="edge">
<title>Node8&#45;&gt;Node6</title>
<g id="a_edge12_Node000008_Node000006"><a xlink:title=" ">
<path fill="none" stroke="#63b8ff" d="M480.81,-113.55C472.24,-114.42 463.53,-115.32 455.06,-116.18"/>
<polygon fill="#63b8ff" stroke="#63b8ff" points="481.2,-117.02 490.79,-112.52 480.49,-110.06 481.2,-117.02"/>
</a>
</g>
</g>
<!-- Node9&#45;&gt;Node3 -->
<g id="edge14_Node000009_Node000003" class="edge">
<title>Node9&#45;&gt;Node3</title>
<g id="a_edge14_Node000009_Node000003"><a xlink:title=" ">
<path fill="none" stroke="#63b8ff" d="M489.08,-71.29C428.73,-78.94 340.23,-90.16 284.14,-97.27"/>
<polygon fill="#63b8ff" stroke="#63b8ff" points="489.78,-74.73 499.26,-70 488.9,-67.79 489.78,-74.73"/>
</a>
</g>
</g>
<!-- Node9&#45;&gt;Node6 -->
<g id="edge15_Node000009_Node000006" class="edge">
<title>Node9&#45;&gt;Node6</title>
<g id="a_edge15_Node000009_Node000006"><a xlink:title=" ">
<path fill="none" stroke="#63b8ff" d="M502.96,-81.63C473.74,-92.19 438.41,-104.96 414.8,-113.49"/>
<polygon fill="#63b8ff" stroke="#63b8ff" points="504.4,-84.83 512.61,-78.14 502.02,-78.25 504.4,-84.83"/>
</a>
</g>
</g>
<!-- Node10&#45;&gt;Node3 -->
<g id="edge17_Node000010_Node000003" class="edge">
<title>Node10&#45;&gt;Node3</title>
<g id="a_edge17_Node000010_Node000003"><a xlink:title=" ">
<path fill="none" stroke="#63b8ff" d="M489.28,-28.89C441.94,-39.45 376.57,-55.01 320,-72 297.83,-78.66 273.08,-87.69 255.32,-94.46"/>
<polygon fill="#63b8ff" stroke="#63b8ff" points="490.09,-32.3 499.09,-26.72 488.57,-25.46 490.09,-32.3"/>
</a>
</g>
</g>
<!-- Node10&#45;&gt;Node6 -->
<g id="edge18_Node000010_Node000006" class="edge">
<title>Node10&#45;&gt;Node6</title>
<g id="a_edge18_Node000010_Node000006"><a xlink:title=" ">
<path fill="none" stroke="#63b8ff" d="M499.91,-34.27C496.85,-35.77 493.86,-37.35 491,-39 453.15,-60.87 415.02,-96.55 397.88,-113.49"/>
<polygon fill="#63b8ff" stroke="#63b8ff" points="501.61,-37.35 509.25,-30.01 498.7,-30.98 501.61,-37.35"/>
</a>
</g>
</g>
</g>
</svg>
