<?xml version="1.0" encoding="UTF-8" standalone="no"?>
<!DOCTYPE svg PUBLIC "-//W3C//DTD SVG 1.1//EN"
 "http://www.w3.org/Graphics/SVG/1.1/DTD/svg11.dtd">
<!-- Generated by graphviz version 2.43.0 (0)
 -->
<!-- Title: lci::sync_wait_x::sync_wait_x Pages: 1 -->
<svg width="822pt" height="187pt"
 viewBox="0.00 0.00 822.00 187.00" xmlns="http://www.w3.org/2000/svg" xmlns:xlink="http://www.w3.org/1999/xlink">
<g id="graph0" class="graph" transform="scale(1 1) rotate(0) translate(4 183)">
<title>lci::sync_wait_x::sync_wait_x</title>
<!-- Node1 -->
<g id="Node000001" class="node">
<title>Node1</title>
<g id="a_Node000001"><a xlink:title=" ">
<polygon fill="#999999" stroke="#666666" points="814,-104.5 692,-104.5 692,-74.5 814,-74.5 814,-104.5"/>
<text text-anchor="start" x="700" y="-92.5" font-family="Helvetica,sans-Serif" font-size="10.00">lci::sync_wait_x::sync</text>
<text text-anchor="middle" x="753" y="-81.5" font-family="Helvetica,sans-Serif" font-size="10.00">_wait_x</text>
</a>
</g>
</g>
<!-- Node2 -->
<g id="Node000002" class="node">
<title>Node2</title>
<g id="a_Node000002"><a xlink:href="../../dd/d0b/classlci_1_1sync__wait__x.html#af7084c4171774b7ef58d0e1d8f50d580" target="_top" xlink:title=" ">
<polygon fill="white" stroke="#666666" points="650.5,-179 523.5,-179 523.5,-160 650.5,-160 650.5,-179"/>
<text text-anchor="middle" x="587" y="-167" font-family="Helvetica,sans-Serif" font-size="10.00">lci::sync_wait_x::comp</text>
</a>
</g>
</g>
<!-- Node1&#45;&gt;Node2 -->
<g id="edge1_Node000001_Node000002" class="edge">
<title>Node1&#45;&gt;Node2</title>
<g id="a_edge1_Node000001_Node000002"><a xlink:title=" ">
<path fill="none" stroke="#63b8ff" d="M724.22,-110.8C705.73,-124.1 680.44,-140.7 656,-151.5 648.52,-154.81 640.29,-157.62 632.23,-159.96"/>
<polygon fill="#63b8ff" stroke="#63b8ff" points="726.46,-113.5 732.46,-104.76 722.32,-107.85 726.46,-113.5"/>
</a>
</g>
</g>
<!-- Node7 -->
<g id="Node000007" class="node">
<title>Node7</title>
<g id="a_Node000007"><a xlink:href="../../dd/d0b/classlci_1_1sync__wait__x.html#ab958af8902a382fae70511fcea31398a" target="_top" xlink:title=" ">
<polygon fill="white" stroke="#666666" points="653,-142 521,-142 521,-123 653,-123 653,-142"/>
<text text-anchor="middle" x="587" y="-130" font-family="Helvetica,sans-Serif" font-size="10.00">lci::sync_wait_x::device</text>
</a>
</g>
</g>
<!-- Node1&#45;&gt;Node7 -->
<g id="edge7_Node000001_Node000007" class="edge">
<title>Node1&#45;&gt;Node7</title>
<g id="a_edge7_Node000001_Node000007"><a xlink:title=" ">
<path fill="none" stroke="#63b8ff" d="M684.95,-107.08C664.31,-112.49 642.35,-118.25 624.56,-122.91"/>
<polygon fill="#63b8ff" stroke="#63b8ff" points="685.86,-110.46 694.64,-104.54 684.08,-103.69 685.86,-110.46"/>
</a>
</g>
</g>
<!-- Node8 -->
<g id="Node000008" class="node">
<title>Node8</title>
<g id="a_Node000008"><a xlink:href="../../dd/d0b/classlci_1_1sync__wait__x.html#abb8063623552fa193bfda6ab9c2c9cfe" target="_top" xlink:title=" ">
<polygon fill="white" stroke="#666666" points="643,-104.5 531,-104.5 531,-74.5 643,-74.5 643,-104.5"/>
<text text-anchor="start" x="539" y="-92.5" font-family="Helvetica,sans-Serif" font-size="10.00">lci::sync_wait_x::do</text>
<text text-anchor="middle" x="587" y="-81.5" font-family="Helvetica,sans-Serif" font-size="10.00">_progress</text>
</a>
</g>
</g>
<!-- Node1&#45;&gt;Node8 -->
<g id="edge10_Node000001_Node000008" class="edge">
<title>Node1&#45;&gt;Node8</title>
<g id="a_edge10_Node000001_Node000008"><a xlink:title=" ">
<path fill="none" stroke="#63b8ff" d="M681.66,-89.5C668.81,-89.5 655.57,-89.5 643.23,-89.5"/>
<polygon fill="#63b8ff" stroke="#63b8ff" points="681.86,-93 691.86,-89.5 681.86,-86 681.86,-93"/>
</a>
</g>
</g>
<!-- Node9 -->
<g id="Node000009" class="node">
<title>Node9</title>
<g id="a_Node000009"><a xlink:href="../../dd/d0b/classlci_1_1sync__wait__x.html#a1f06a5d161c0ae293c076938586a502b" target="_top" xlink:title=" ">
<polygon fill="white" stroke="#666666" points="650.5,-56 523.5,-56 523.5,-37 650.5,-37 650.5,-56"/>
<text text-anchor="middle" x="587" y="-44" font-family="Helvetica,sans-Serif" font-size="10.00">lci::sync_wait_x::p_out</text>
</a>
</g>
</g>
<!-- Node1&#45;&gt;Node9 -->
<g id="edge13_Node000001_Node000009" class="edge">
<title>Node1&#45;&gt;Node9</title>
<g id="a_edge13_Node000001_Node000009"><a xlink:title=" ">
<path fill="none" stroke="#63b8ff" d="M684.95,-71.92C664.31,-66.51 642.35,-60.75 624.56,-56.09"/>
<polygon fill="#63b8ff" stroke="#63b8ff" points="684.08,-75.31 694.64,-74.46 685.86,-68.54 684.08,-75.31"/>
</a>
</g>
</g>
<!-- Node10 -->
<g id="Node000010" class="node">
<title>Node10</title>
<g id="a_Node000010"><a xlink:href="../../dd/d0b/classlci_1_1sync__wait__x.html#a33c94ca9708dafc0873caecc7e0fd20e" target="_top" xlink:title=" ">
<polygon fill="white" stroke="#666666" points="656,-19 518,-19 518,0 656,0 656,-19"/>
<text text-anchor="middle" x="587" y="-7" font-family="Helvetica,sans-Serif" font-size="10.00">lci::sync_wait_x::runtime</text>
</a>
</g>
</g>
<!-- Node1&#45;&gt;Node10 -->
<g id="edge16_Node000001_Node000010" class="edge">
<title>Node1&#45;&gt;Node10</title>
<g id="a_edge16_Node000001_Node000010"><a xlink:title=" ">
<path fill="none" stroke="#63b8ff" d="M724.22,-68.2C705.73,-54.9 680.44,-38.3 656,-27.5 648.52,-24.19 640.29,-21.38 632.23,-19.04"/>
<polygon fill="#63b8ff" stroke="#63b8ff" points="722.32,-71.15 732.46,-74.24 726.46,-65.5 722.32,-71.15"/>
</a>
</g>
</g>
<!-- Node3 -->
<g id="Node000003" class="node">
<title>Node3</title>
<g id="a_Node000003"><a xlink:href="../../dd/d0b/classlci_1_1sync__wait__x.html#a6326ef1b07f7d2e76cbf58ab20bb09ee" target="_top" xlink:title=" ">
<polygon fill="white" stroke="#666666" points="302,-99 185,-99 185,-80 302,-80 302,-99"/>
<text text-anchor="middle" x="243.5" y="-87" font-family="Helvetica,sans-Serif" font-size="10.00">lci::sync_wait_x::call</text>
</a>
</g>
</g>
<!-- Node2&#45;&gt;Node3 -->
<g id="edge2_Node000002_Node000003" class="edge">
<title>Node2&#45;&gt;Node3</title>
<g id="a_edge2_Node000002_Node000003"><a xlink:title=" ">
<path fill="none" stroke="#63b8ff" d="M513.11,-171.32C462.74,-170.52 394.83,-165.33 338,-146.5 305.88,-135.86 273.22,-112.46 256.3,-99.19"/>
<polygon fill="#63b8ff" stroke="#63b8ff" points="513.23,-174.82 523.26,-171.42 513.3,-167.82 513.23,-174.82"/>
</a>
</g>
</g>
<!-- Node6 -->
<g id="Node000006" class="node">
<title>Node6</title>
<g id="a_Node000006"><a xlink:href="../../dd/d0b/classlci_1_1sync__wait__x.html#ad8533043e94a44f07f0ad8addab8bfd6" target="_top" xlink:title=" ">
<polygon fill="white" stroke="#666666" points="482,-118 338,-118 338,-99 482,-99 482,-118"/>
<text text-anchor="middle" x="410" y="-106" font-family="Helvetica,sans-Serif" font-size="10.00">lci::sync_wait_x::call_impl</text>
</a>
</g>
</g>
<!-- Node2&#45;&gt;Node6 -->
<g id="edge5_Node000002_Node000006" class="edge">
<title>Node2&#45;&gt;Node6</title>
<g id="a_edge5_Node000002_Node000006"><a xlink:title=" ">
<path fill="none" stroke="#63b8ff" d="M536.7,-157.22C530.37,-155.42 524.01,-153.49 518,-151.5 487.79,-141.47 453.83,-127.31 432.43,-118.02"/>
<polygon fill="#63b8ff" stroke="#63b8ff" points="535.99,-160.66 546.56,-159.94 537.85,-153.91 535.99,-160.66"/>
</a>
</g>
</g>
<!-- Node4 -->
<g id="Node000004" class="node">
<title>Node4</title>
<g id="a_Node000004"><a xlink:href="../../dd/d0b/classlci_1_1sync__wait__x.html#aeec71cda63872f6d37a2d2253eb02c00" target="_top" xlink:title=" ">
<polygon fill="white" stroke="#666666" points="149,-118 0,-118 0,-99 149,-99 149,-118"/>
<text text-anchor="middle" x="74.5" y="-106" font-family="Helvetica,sans-Serif" font-size="10.00">lci::sync_wait_x::operator()</text>
</a>
</g>
</g>
<!-- Node3&#45;&gt;Node4 -->
<g id="edge3_Node000003_Node000004" class="edge">
<title>Node3&#45;&gt;Node4</title>
<g id="a_edge3_Node000003_Node000004"><a xlink:title=" ">
<path fill="none" stroke="#63b8ff" d="M174.52,-97.23C166.19,-98.18 157.64,-99.16 149.22,-100.11"/>
<polygon fill="#63b8ff" stroke="#63b8ff" points="175.02,-100.7 184.56,-96.09 174.23,-93.74 175.02,-100.7"/>
</a>
</g>
</g>
<!-- Node5 -->
<g id="Node000005" class="node">
<title>Node5</title>
<g id="a_Node000005"><a xlink:href="../../d5/dd3/namespacelci.html#a420877a3c976eb6a6dd692616e18899d" target="_top" xlink:title=" ">
<polygon fill="white" stroke="#666666" points="116,-81 33,-81 33,-62 116,-62 116,-81"/>
<text text-anchor="middle" x="74.5" y="-69" font-family="Helvetica,sans-Serif" font-size="10.00">lci::sync_wait</text>
</a>
</g>
</g>
<!-- Node3&#45;&gt;Node5 -->
<g id="edge4_Node000003_Node000005" class="edge">
<title>Node3&#45;&gt;Node5</title>
<g id="a_edge4_Node000003_Node000005"><a xlink:title=" ">
<path fill="none" stroke="#63b8ff" d="M174.38,-82.16C154.65,-80.03 133.74,-77.78 116.25,-75.89"/>
<polygon fill="#63b8ff" stroke="#63b8ff" points="174.24,-85.66 184.56,-83.25 174.99,-78.7 174.24,-85.66"/>
</a>
</g>
</g>
<!-- Node6&#45;&gt;Node3 -->
<g id="edge6_Node000006_Node000003" class="edge">
<title>Node6&#45;&gt;Node3</title>
<g id="a_edge6_Node000006_Node000003"><a xlink:title=" ">
<path fill="none" stroke="#63b8ff" d="M327.72,-99.11C319.1,-98.12 310.46,-97.12 302.19,-96.16"/>
<polygon fill="#63b8ff" stroke="#63b8ff" points="327.47,-102.61 337.8,-100.28 328.27,-95.65 327.47,-102.61"/>
</a>
</g>
</g>
<!-- Node7&#45;&gt;Node3 -->
<g id="edge8_Node000007_Node000003" class="edge">
<title>Node7&#45;&gt;Node3</title>
<g id="a_edge8_Node000007_Node000003"><a xlink:title=" ">
<path fill="none" stroke="#63b8ff" d="M510.79,-138.05C461.2,-139.98 395.12,-139.26 338,-127.5 310.54,-121.85 280.88,-108.42 262.5,-99.14"/>
<polygon fill="#63b8ff" stroke="#63b8ff" points="510.95,-141.54 520.79,-137.61 510.65,-134.55 510.95,-141.54"/>
</a>
</g>
</g>
<!-- Node7&#45;&gt;Node6 -->
<g id="edge9_Node000007_Node000006" class="edge">
<title>Node7&#45;&gt;Node6</title>
<g id="a_edge9_Node000007_Node000006"><a xlink:title=" ">
<path fill="none" stroke="#63b8ff" d="M510.81,-122.19C500.68,-120.8 490.34,-119.38 480.32,-118.01"/>
<polygon fill="#63b8ff" stroke="#63b8ff" points="510.45,-125.67 520.84,-123.56 511.4,-118.74 510.45,-125.67"/>
</a>
</g>
</g>
<!-- Node8&#45;&gt;Node3 -->
<g id="edge11_Node000008_Node000003" class="edge">
<title>Node8&#45;&gt;Node3</title>
<g id="a_edge11_Node000008_Node000003"><a xlink:title=" ">
<path fill="none" stroke="#63b8ff" d="M520.51,-89.5C457.34,-89.5 362.65,-89.5 302.24,-89.5"/>
<polygon fill="#63b8ff" stroke="#63b8ff" points="520.75,-93 530.75,-89.5 520.75,-86 520.75,-93"/>
</a>
</g>
</g>
<!-- Node8&#45;&gt;Node6 -->
<g id="edge12_Node000008_Node000006" class="edge">
<title>Node8&#45;&gt;Node6</title>
<g id="a_edge12_Node000008_Node000006"><a xlink:title=" ">
<path fill="none" stroke="#63b8ff" d="M520.69,-96.59C508.08,-97.96 494.83,-99.4 482.05,-100.79"/>
<polygon fill="#63b8ff" stroke="#63b8ff" points="521.07,-100.07 530.63,-95.51 520.31,-93.11 521.07,-100.07"/>
</a>
</g>
</g>
<!-- Node9&#45;&gt;Node3 -->
<g id="edge14_Node000009_Node000003" class="edge">
<title>Node9&#45;&gt;Node3</title>
<g id="a_edge14_Node000009_Node000003"><a xlink:title=" ">
<path fill="none" stroke="#63b8ff" d="M513.1,-55.68C450.11,-63.61 360.29,-74.92 302.19,-82.24"/>
<polygon fill="#63b8ff" stroke="#63b8ff" points="513.88,-59.11 523.36,-54.39 513,-52.16 513.88,-59.11"/>
</a>
</g>
</g>
<!-- Node9&#45;&gt;Node6 -->
<g id="edge15_Node000009_Node000006" class="edge">
<title>Node9&#45;&gt;Node6</title>
<g id="a_edge15_Node000009_Node000006"><a xlink:title=" ">
<path fill="none" stroke="#63b8ff" d="M539.38,-58.79C532.18,-60.9 524.86,-63.17 518,-65.5 488.05,-75.67 454.31,-89.67 432.87,-98.89"/>
<polygon fill="#63b8ff" stroke="#63b8ff" points="540.42,-62.14 549.07,-56.02 538.5,-55.41 540.42,-62.14"/>
</a>
</g>
</g>
<!-- Node10&#45;&gt;Node3 -->
<g id="edge17_Node000010_Node000003" class="edge">
<title>Node10&#45;&gt;Node3</title>
<g id="a_edge17_Node000010_Node000003"><a xlink:title=" ">
<path fill="none" stroke="#63b8ff" d="M508.01,-20.57C458.79,-28.39 394.13,-40.2 338,-55.5 313.5,-62.18 286.31,-72.4 267.59,-79.89"/>
<polygon fill="#63b8ff" stroke="#63b8ff" points="508.62,-24.02 517.95,-19.01 507.53,-17.11 508.62,-24.02"/>
</a>
</g>
</g>
<!-- Node10&#45;&gt;Node6 -->
<g id="edge18_Node000010_Node000006" class="edge">
<title>Node10&#45;&gt;Node6</title>
<g id="a_edge18_Node000010_Node000006"><a xlink:title=" ">
<path fill="none" stroke="#63b8ff" d="M530.56,-22.21C526.24,-23.79 522,-25.55 518,-27.5 478.2,-46.89 438.54,-82.12 420.73,-98.99"/>
<polygon fill="#63b8ff" stroke="#63b8ff" points="531.74,-25.51 540.12,-19.02 529.53,-18.87 531.74,-25.51"/>
</a>
</g>
</g>
</g>
</svg>
