<?xml version="1.0" encoding="UTF-8" standalone="no"?>
<!DOCTYPE svg PUBLIC "-//W3C//DTD SVG 1.1//EN"
 "http://www.w3.org/Graphics/SVG/1.1/DTD/svg11.dtd">
<!-- Generated by graphviz version 2.43.0 (0)
 -->
<!-- Title: lci::sync_wait_x::operator() Pages: 1 -->
<svg width="822pt" height="102pt"
 viewBox="0.00 0.00 822.00 102.14" xmlns="http://www.w3.org/2000/svg" xmlns:xlink="http://www.w3.org/1999/xlink">
<g id="graph0" class="graph" transform="scale(1 1) rotate(0) translate(4 98.14)">
<title>lci::sync_wait_x::operator()</title>
<!-- Node1 -->
<g id="Node000001" class="node">
<title>Node1</title>
<g id="a_Node000001"><a xlink:title=" ">
<polygon fill="#999999" stroke="#666666" points="149,-56 0,-56 0,-37 149,-37 149,-56"/>
<text text-anchor="middle" x="74.5" y="-44" font-family="Helvetica,sans-Serif" font-size="10.00">lci::sync_wait_x::operator()</text>
</a>
</g>
</g>
<!-- Node2 -->
<g id="Node000002" class="node">
<title>Node2</title>
<g id="a_Node000002"><a xlink:href="../../dd/d0b/classlci_1_1sync__wait__x.html#a6326ef1b07f7d2e76cbf58ab20bb09ee" target="_top" xlink:title=" ">
<polygon fill="white" stroke="#666666" points="302,-56 185,-56 185,-37 302,-37 302,-56"/>
<text text-anchor="middle" x="243.5" y="-44" font-family="Helvetica,sans-Serif" font-size="10.00">lci::sync_wait_x::call</text>
</a>
</g>
</g>
<!-- Node1&#45;&gt;Node2 -->
<g id="edge1_Node000001_Node000002" class="edge">
<title>Node1&#45;&gt;Node2</title>
<g id="a_edge1_Node000001_Node000002"><a xlink:title=" ">
<path fill="none" stroke="#63b8ff" d="M149.23,-46.5C157.75,-46.5 166.39,-46.5 174.82,-46.5"/>
<polygon fill="#63b8ff" stroke="#63b8ff" points="174.96,-50 184.96,-46.5 174.96,-43 174.96,-50"/>
</a>
</g>
</g>
<!-- Node3 -->
<g id="Node000003" class="node">
<title>Node3</title>
<g id="a_Node000003"><a xlink:href="../../dd/d0b/classlci_1_1sync__wait__x.html#aa81e88615035810dcc441eda980bab9b" target="_top" xlink:title=" ">
<polygon fill="white" stroke="#666666" points="482,-75 338,-75 338,-56 482,-56 482,-75"/>
<text text-anchor="middle" x="410" y="-63" font-family="Helvetica,sans-Serif" font-size="10.00">lci::sync_wait_x::call_impl</text>
</a>
</g>
</g>
<!-- Node2&#45;&gt;Node3 -->
<g id="edge2_Node000002_Node000003" class="edge">
<title>Node2&#45;&gt;Node3</title>
<g id="a_edge2_Node000002_Node000003"><a xlink:title=" ">
<path fill="none" stroke="#63b8ff" d="M302.03,-53.15C310.36,-54.11 319.05,-55.11 327.74,-56.11"/>
<polygon fill="#63b8ff" stroke="#63b8ff" points="327.56,-59.62 337.9,-57.29 328.37,-52.66 327.56,-59.62"/>
</a>
</g>
</g>
<!-- Node4 -->
<g id="Node000004" class="node">
<title>Node4</title>
<g id="a_Node000004"><a xlink:href="../../dd/d0b/classlci_1_1sync__wait__x.html#af7084c4171774b7ef58d0e1d8f50d580" target="_top" xlink:title=" ">
<polygon fill="white" stroke="#666666" points="650.5,-93 523.5,-93 523.5,-74 650.5,-74 650.5,-93"/>
<text text-anchor="middle" x="587" y="-81" font-family="Helvetica,sans-Serif" font-size="10.00">lci::sync_wait_x::comp</text>
</a>
</g>
</g>
<!-- Node2&#45;&gt;Node4 -->
<g id="edge9_Node000002_Node000004" class="edge">
<title>Node2&#45;&gt;Node4</title>
<g id="a_edge9_Node000002_Node000004"><a xlink:title=" ">
<path fill="none" stroke="#63b8ff" d="M262.13,-56.08C280.47,-65.45 310.31,-79.09 338,-84.5 396.21,-95.88 463.59,-94.72 513.41,-91.22"/>
<polygon fill="#63b8ff" stroke="#63b8ff" points="513.74,-94.71 523.45,-90.47 513.21,-87.73 513.74,-94.71"/>
</a>
</g>
</g>
<!-- Node6 -->
<g id="Node000006" class="node">
<title>Node6</title>
<g id="a_Node000006"><a xlink:href="../../dd/d0b/classlci_1_1sync__wait__x.html#a1f06a5d161c0ae293c076938586a502b" target="_top" xlink:title=" ">
<polygon fill="white" stroke="#666666" points="650.5,-56 523.5,-56 523.5,-37 650.5,-37 650.5,-56"/>
<text text-anchor="middle" x="587" y="-44" font-family="Helvetica,sans-Serif" font-size="10.00">lci::sync_wait_x::p_out</text>
</a>
</g>
</g>
<!-- Node2&#45;&gt;Node6 -->
<g id="edge10_Node000002_Node000006" class="edge">
<title>Node2&#45;&gt;Node6</title>
<g id="a_edge10_Node000002_Node000006"><a xlink:title=" ">
<path fill="none" stroke="#63b8ff" d="M302.04,-46.5C360.12,-46.5 449.98,-46.5 513.02,-46.5"/>
<polygon fill="#63b8ff" stroke="#63b8ff" points="513.29,-50 523.29,-46.5 513.29,-43 513.29,-50"/>
</a>
</g>
</g>
<!-- Node7 -->
<g id="Node000007" class="node">
<title>Node7</title>
<g id="a_Node000007"><a xlink:href="../../dd/d0b/classlci_1_1sync__wait__x.html#a33c94ca9708dafc0873caecc7e0fd20e" target="_top" xlink:title=" ">
<polygon fill="white" stroke="#666666" points="656,-19 518,-19 518,0 656,0 656,-19"/>
<text text-anchor="middle" x="587" y="-7" font-family="Helvetica,sans-Serif" font-size="10.00">lci::sync_wait_x::runtime</text>
</a>
</g>
</g>
<!-- Node2&#45;&gt;Node7 -->
<g id="edge11_Node000002_Node000007" class="edge">
<title>Node2&#45;&gt;Node7</title>
<g id="a_edge11_Node000002_Node000007"><a xlink:title=" ">
<path fill="none" stroke="#63b8ff" d="M302.04,-40.27C358.49,-34.15 444.99,-24.78 507.68,-17.99"/>
<polygon fill="#63b8ff" stroke="#63b8ff" points="508.36,-21.43 517.92,-16.88 507.6,-14.47 508.36,-21.43"/>
</a>
</g>
</g>
<!-- Node3&#45;&gt;Node4 -->
<g id="edge3_Node000003_Node000004" class="edge">
<title>Node3&#45;&gt;Node4</title>
<g id="a_edge3_Node000003_Node000004"><a xlink:title=" ">
<path fill="none" stroke="#63b8ff" d="M482.18,-72.82C492.4,-73.87 502.93,-74.96 513.18,-76.01"/>
<polygon fill="#63b8ff" stroke="#63b8ff" points="513.01,-79.51 523.32,-77.05 513.73,-72.55 513.01,-79.51"/>
</a>
</g>
</g>
<!-- Node3&#45;&gt;Node6 -->
<g id="edge5_Node000003_Node000006" class="edge">
<title>Node3&#45;&gt;Node6</title>
<g id="a_edge5_Node000003_Node000006"><a xlink:title=" ">
<path fill="none" stroke="#63b8ff" d="M482.18,-57.77C492.4,-56.66 502.93,-55.52 513.18,-54.41"/>
<polygon fill="#63b8ff" stroke="#63b8ff" points="513.75,-57.86 523.32,-53.31 513,-50.91 513.75,-57.86"/>
</a>
</g>
</g>
<!-- Node3&#45;&gt;Node7 -->
<g id="edge7_Node000003_Node000007" class="edge">
<title>Node3&#45;&gt;Node7</title>
<g id="a_edge7_Node000003_Node000007"><a xlink:title=" ">
<path fill="none" stroke="#63b8ff" d="M437.24,-55.93C458.81,-48.18 490.23,-37.17 518,-28.5 525.24,-26.24 532.95,-23.96 540.49,-21.81"/>
<polygon fill="#63b8ff" stroke="#63b8ff" points="541.56,-25.14 550.24,-19.06 539.66,-18.4 541.56,-25.14"/>
</a>
</g>
</g>
<!-- Node5 -->
<g id="Node000005" class="node">
<title>Node5</title>
<g id="a_Node000005"><a xlink:href="../../dd/d0b/classlci_1_1sync__wait__x.html#a1b82908c8a1e781860e9a95db7916df1" target="_top" xlink:title=" ">
<polygon fill="white" stroke="#666666" points="814,-61.5 692,-61.5 692,-31.5 814,-31.5 814,-61.5"/>
<text text-anchor="start" x="700" y="-49.5" font-family="Helvetica,sans-Serif" font-size="10.00">lci::sync_wait_x::sync</text>
<text text-anchor="middle" x="753" y="-38.5" font-family="Helvetica,sans-Serif" font-size="10.00">_wait_x</text>
</a>
</g>
</g>
<!-- Node4&#45;&gt;Node5 -->
<g id="edge4_Node000004_Node000005" class="edge">
<title>Node4&#45;&gt;Node5</title>
<g id="a_edge4_Node000004_Node000005"><a xlink:title=" ">
<path fill="none" stroke="#63b8ff" d="M630.23,-73.97C645.94,-70.43 664.22,-66.3 681.76,-62.35"/>
<polygon fill="#63b8ff" stroke="#63b8ff" points="683,-65.66 691.98,-60.04 681.46,-58.83 683,-65.66"/>
</a>
</g>
</g>
<!-- Node6&#45;&gt;Node5 -->
<g id="edge6_Node000006_Node000005" class="edge">
<title>Node6&#45;&gt;Node5</title>
<g id="a_edge6_Node000006_Node000005"><a xlink:title=" ">
<path fill="none" stroke="#63b8ff" d="M650.94,-46.5C661.03,-46.5 671.53,-46.5 681.79,-46.5"/>
<polygon fill="#63b8ff" stroke="#63b8ff" points="681.93,-50 691.93,-46.5 681.93,-43 681.93,-50"/>
</a>
</g>
</g>
<!-- Node7&#45;&gt;Node5 -->
<g id="edge8_Node000007_Node000005" class="edge">
<title>Node7&#45;&gt;Node5</title>
<g id="a_edge8_Node000007_Node000005"><a xlink:title=" ">
<path fill="none" stroke="#63b8ff" d="M630.23,-19.03C645.94,-22.57 664.22,-26.7 681.76,-30.65"/>
<polygon fill="#63b8ff" stroke="#63b8ff" points="681.46,-34.17 691.98,-32.96 683,-27.34 681.46,-34.17"/>
</a>
</g>
</g>
</g>
</svg>
