<?xml version="1.0" encoding="UTF-8" standalone="no"?>
<!DOCTYPE svg PUBLIC "-//W3C//DTD SVG 1.1//EN"
 "http://www.w3.org/Graphics/SVG/1.1/DTD/svg11.dtd">
<!-- Generated by graphviz version 2.43.0 (0)
 -->
<!-- Title: lci::sync_wait_x::sync_wait_x Pages: 1 -->
<svg width="822pt" height="102pt"
 viewBox="0.00 0.00 822.00 102.14" xmlns="http://www.w3.org/2000/svg" xmlns:xlink="http://www.w3.org/1999/xlink">
<g id="graph0" class="graph" transform="scale(1 1) rotate(0) translate(4 98.14)">
<title>lci::sync_wait_x::sync_wait_x</title>
<!-- Node1 -->
<g id="Node000001" class="node">
<title>Node1</title>
<g id="a_Node000001"><a xlink:title=" ">
<polygon fill="#999999" stroke="#666666" points="814,-61.5 692,-61.5 692,-31.5 814,-31.5 814,-61.5"/>
<text text-anchor="start" x="700" y="-49.5" font-family="Helvetica,sans-Serif" font-size="10.00">lci::sync_wait_x::sync</text>
<text text-anchor="middle" x="753" y="-38.5" font-family="Helvetica,sans-Serif" font-size="10.00">_wait_x</text>
</a>
</g>
</g>
<!-- Node2 -->
<g id="Node000002" class="node">
<title>Node2</title>
<g id="a_Node000002"><a xlink:href="../../dd/d0b/classlci_1_1sync__wait__x.html#af7084c4171774b7ef58d0e1d8f50d580" target="_top" xlink:title=" ">
<polygon fill="white" stroke="#666666" points="650.5,-93 523.5,-93 523.5,-74 650.5,-74 650.5,-93"/>
<text text-anchor="middle" x="587" y="-81" font-family="Helvetica,sans-Serif" font-size="10.00">lci::sync_wait_x::comp</text>
</a>
</g>
</g>
<!-- Node1&#45;&gt;Node2 -->
<g id="edge1_Node000001_Node000002" class="edge">
<title>Node1&#45;&gt;Node2</title>
<g id="a_edge1_Node000001_Node000002"><a xlink:title=" ">
<path fill="none" stroke="#63b8ff" d="M681.65,-62.37C664.12,-66.33 645.87,-70.44 630.18,-73.98"/>
<polygon fill="#63b8ff" stroke="#63b8ff" points="682.88,-65.68 691.86,-60.07 681.34,-58.85 682.88,-65.68"/>
</a>
</g>
</g>
<!-- Node7 -->
<g id="Node000007" class="node">
<title>Node7</title>
<g id="a_Node000007"><a xlink:href="../../dd/d0b/classlci_1_1sync__wait__x.html#a1f06a5d161c0ae293c076938586a502b" target="_top" xlink:title=" ">
<polygon fill="white" stroke="#666666" points="650.5,-56 523.5,-56 523.5,-37 650.5,-37 650.5,-56"/>
<text text-anchor="middle" x="587" y="-44" font-family="Helvetica,sans-Serif" font-size="10.00">lci::sync_wait_x::p_out</text>
</a>
</g>
</g>
<!-- Node1&#45;&gt;Node7 -->
<g id="edge7_Node000001_Node000007" class="edge">
<title>Node1&#45;&gt;Node7</title>
<g id="a_edge7_Node000001_Node000007"><a xlink:title=" ">
<path fill="none" stroke="#63b8ff" d="M681.65,-46.5C671.33,-46.5 660.76,-46.5 650.61,-46.5"/>
<polygon fill="#63b8ff" stroke="#63b8ff" points="681.86,-50 691.86,-46.5 681.86,-43 681.86,-50"/>
</a>
</g>
</g>
<!-- Node8 -->
<g id="Node000008" class="node">
<title>Node8</title>
<g id="a_Node000008"><a xlink:href="../../dd/d0b/classlci_1_1sync__wait__x.html#a33c94ca9708dafc0873caecc7e0fd20e" target="_top" xlink:title=" ">
<polygon fill="white" stroke="#666666" points="656,-19 518,-19 518,0 656,0 656,-19"/>
<text text-anchor="middle" x="587" y="-7" font-family="Helvetica,sans-Serif" font-size="10.00">lci::sync_wait_x::runtime</text>
</a>
</g>
</g>
<!-- Node1&#45;&gt;Node8 -->
<g id="edge10_Node000001_Node000008" class="edge">
<title>Node1&#45;&gt;Node8</title>
<g id="a_edge10_Node000001_Node000008"><a xlink:title=" ">
<path fill="none" stroke="#63b8ff" d="M681.65,-30.63C664.12,-26.67 645.87,-22.56 630.18,-19.02"/>
<polygon fill="#63b8ff" stroke="#63b8ff" points="681.34,-34.15 691.86,-32.93 682.88,-27.32 681.34,-34.15"/>
</a>
</g>
</g>
<!-- Node3 -->
<g id="Node000003" class="node">
<title>Node3</title>
<g id="a_Node000003"><a xlink:href="../../dd/d0b/classlci_1_1sync__wait__x.html#a6326ef1b07f7d2e76cbf58ab20bb09ee" target="_top" xlink:title=" ">
<polygon fill="white" stroke="#666666" points="302,-56 185,-56 185,-37 302,-37 302,-56"/>
<text text-anchor="middle" x="243.5" y="-44" font-family="Helvetica,sans-Serif" font-size="10.00">lci::sync_wait_x::call</text>
</a>
</g>
</g>
<!-- Node2&#45;&gt;Node3 -->
<g id="edge2_Node000002_Node000003" class="edge">
<title>Node2&#45;&gt;Node3</title>
<g id="a_edge2_Node000002_Node000003"><a xlink:title=" ">
<path fill="none" stroke="#63b8ff" d="M513.41,-91.22C463.59,-94.72 396.21,-95.88 338,-84.5 310.31,-79.09 280.47,-65.45 262.13,-56.08"/>
<polygon fill="#63b8ff" stroke="#63b8ff" points="513.74,-94.71 523.45,-90.47 513.21,-87.73 513.74,-94.71"/>
</a>
</g>
</g>
<!-- Node6 -->
<g id="Node000006" class="node">
<title>Node6</title>
<g id="a_Node000006"><a xlink:href="../../dd/d0b/classlci_1_1sync__wait__x.html#aa81e88615035810dcc441eda980bab9b" target="_top" xlink:title=" ">
<polygon fill="white" stroke="#666666" points="482,-75 338,-75 338,-56 482,-56 482,-75"/>
<text text-anchor="middle" x="410" y="-63" font-family="Helvetica,sans-Serif" font-size="10.00">lci::sync_wait_x::call_impl</text>
</a>
</g>
</g>
<!-- Node2&#45;&gt;Node6 -->
<g id="edge5_Node000002_Node000006" class="edge">
<title>Node2&#45;&gt;Node6</title>
<g id="a_edge5_Node000002_Node000006"><a xlink:title=" ">
<path fill="none" stroke="#63b8ff" d="M513.18,-76.01C502.92,-74.95 492.39,-73.87 482.17,-72.82"/>
<polygon fill="#63b8ff" stroke="#63b8ff" points="513.01,-79.51 523.32,-77.05 513.73,-72.55 513.01,-79.51"/>
</a>
</g>
</g>
<!-- Node4 -->
<g id="Node000004" class="node">
<title>Node4</title>
<g id="a_Node000004"><a xlink:href="../../dd/d0b/classlci_1_1sync__wait__x.html#aeec71cda63872f6d37a2d2253eb02c00" target="_top" xlink:title=" ">
<polygon fill="white" stroke="#666666" points="149,-75 0,-75 0,-56 149,-56 149,-75"/>
<text text-anchor="middle" x="74.5" y="-63" font-family="Helvetica,sans-Serif" font-size="10.00">lci::sync_wait_x::operator()</text>
</a>
</g>
</g>
<!-- Node3&#45;&gt;Node4 -->
<g id="edge3_Node000003_Node000004" class="edge">
<title>Node3&#45;&gt;Node4</title>
<g id="a_edge3_Node000003_Node000004"><a xlink:title=" ">
<path fill="none" stroke="#63b8ff" d="M174.52,-54.23C166.19,-55.18 157.64,-56.16 149.22,-57.11"/>
<polygon fill="#63b8ff" stroke="#63b8ff" points="175.02,-57.7 184.56,-53.09 174.23,-50.74 175.02,-57.7"/>
</a>
</g>
</g>
<!-- Node5 -->
<g id="Node000005" class="node">
<title>Node5</title>
<g id="a_Node000005"><a xlink:href="../../d5/dd3/namespacelci.html#a420877a3c976eb6a6dd692616e18899d" target="_top" xlink:title=" ">
<polygon fill="white" stroke="#666666" points="116,-38 33,-38 33,-19 116,-19 116,-38"/>
<text text-anchor="middle" x="74.5" y="-26" font-family="Helvetica,sans-Serif" font-size="10.00">lci::sync_wait</text>
</a>
</g>
</g>
<!-- Node3&#45;&gt;Node5 -->
<g id="edge4_Node000003_Node000005" class="edge">
<title>Node3&#45;&gt;Node5</title>
<g id="a_edge4_Node000003_Node000005"><a xlink:title=" ">
<path fill="none" stroke="#63b8ff" d="M174.38,-39.16C154.65,-37.03 133.74,-34.78 116.25,-32.89"/>
<polygon fill="#63b8ff" stroke="#63b8ff" points="174.24,-42.66 184.56,-40.25 174.99,-35.7 174.24,-42.66"/>
</a>
</g>
</g>
<!-- Node6&#45;&gt;Node3 -->
<g id="edge6_Node000006_Node000003" class="edge">
<title>Node6&#45;&gt;Node3</title>
<g id="a_edge6_Node000006_Node000003"><a xlink:title=" ">
<path fill="none" stroke="#63b8ff" d="M327.72,-56.11C319.1,-55.12 310.46,-54.12 302.19,-53.16"/>
<polygon fill="#63b8ff" stroke="#63b8ff" points="327.47,-59.61 337.8,-57.28 328.27,-52.65 327.47,-59.61"/>
</a>
</g>
</g>
<!-- Node7&#45;&gt;Node3 -->
<g id="edge8_Node000007_Node000003" class="edge">
<title>Node7&#45;&gt;Node3</title>
<g id="a_edge8_Node000007_Node000003"><a xlink:title=" ">
<path fill="none" stroke="#63b8ff" d="M513.1,-46.5C450.11,-46.5 360.29,-46.5 302.19,-46.5"/>
<polygon fill="#63b8ff" stroke="#63b8ff" points="513.36,-50 523.36,-46.5 513.36,-43 513.36,-50"/>
</a>
</g>
</g>
<!-- Node7&#45;&gt;Node6 -->
<g id="edge9_Node000007_Node000006" class="edge">
<title>Node7&#45;&gt;Node6</title>
<g id="a_edge9_Node000007_Node000006"><a xlink:title=" ">
<path fill="none" stroke="#63b8ff" d="M513.18,-54.41C502.92,-55.52 492.39,-56.66 482.17,-57.77"/>
<polygon fill="#63b8ff" stroke="#63b8ff" points="513.75,-57.86 523.32,-53.31 513,-50.91 513.75,-57.86"/>
</a>
</g>
</g>
<!-- Node8&#45;&gt;Node3 -->
<g id="edge11_Node000008_Node000003" class="edge">
<title>Node8&#45;&gt;Node3</title>
<g id="a_edge11_Node000008_Node000003"><a xlink:title=" ">
<path fill="none" stroke="#63b8ff" d="M507.48,-18.01C444.85,-24.79 358.57,-34.14 302.17,-40.25"/>
<polygon fill="#63b8ff" stroke="#63b8ff" points="508.15,-21.46 517.71,-16.9 507.39,-14.5 508.15,-21.46"/>
</a>
</g>
</g>
<!-- Node8&#45;&gt;Node6 -->
<g id="edge12_Node000008_Node000006" class="edge">
<title>Node8&#45;&gt;Node6</title>
<g id="a_edge12_Node000008_Node000006"><a xlink:title=" ">
<path fill="none" stroke="#63b8ff" d="M540.49,-21.81C532.95,-23.96 525.24,-26.24 518,-28.5 490.23,-37.17 458.81,-48.18 437.24,-55.93"/>
<polygon fill="#63b8ff" stroke="#63b8ff" points="541.56,-25.14 550.24,-19.06 539.66,-18.4 541.56,-25.14"/>
</a>
</g>
</g>
</g>
</svg>
