<?xml version="1.0" encoding="UTF-8" standalone="no"?>
<!DOCTYPE svg PUBLIC "-//W3C//DTD SVG 1.1//EN"
 "http://www.w3.org/Graphics/SVG/1.1/DTD/svg11.dtd">
<!-- Generated by graphviz version 2.43.0 (0)
 -->
<!-- Title: lci::sync_wait_x::call Pages: 1 -->
<svg width="637pt" height="187pt"
 viewBox="0.00 0.00 637.00 187.00" xmlns="http://www.w3.org/2000/svg" xmlns:xlink="http://www.w3.org/1999/xlink">
<g id="graph0" class="graph" transform="scale(1 1) rotate(0) translate(4 183)">
<title>lci::sync_wait_x::call</title>
<!-- Node1 -->
<g id="Node000001" class="node">
<title>Node1</title>
<g id="a_Node000001"><a xlink:title=" ">
<polygon fill="#999999" stroke="#666666" points="117,-99 0,-99 0,-80 117,-80 117,-99"/>
<text text-anchor="middle" x="58.5" y="-87" font-family="Helvetica,sans-Serif" font-size="10.00">lci::sync_wait_x::call</text>
</a>
</g>
</g>
<!-- Node2 -->
<g id="Node000002" class="node">
<title>Node2</title>
<g id="a_Node000002"><a xlink:href="../../dd/d0b/classlci_1_1sync__wait__x.html#ad8533043e94a44f07f0ad8addab8bfd6" target="_top" xlink:title=" ">
<polygon fill="white" stroke="#666666" points="297,-118 153,-118 153,-99 297,-99 297,-118"/>
<text text-anchor="middle" x="225" y="-106" font-family="Helvetica,sans-Serif" font-size="10.00">lci::sync_wait_x::call_impl</text>
</a>
</g>
</g>
<!-- Node1&#45;&gt;Node2 -->
<g id="edge1_Node000001_Node000002" class="edge">
<title>Node1&#45;&gt;Node2</title>
<g id="a_edge1_Node000001_Node000002"><a xlink:title=" ">
<path fill="none" stroke="#63b8ff" d="M117.03,-96.15C125.36,-97.11 134.05,-98.11 142.74,-99.11"/>
<polygon fill="#63b8ff" stroke="#63b8ff" points="142.56,-102.62 152.9,-100.29 143.37,-95.66 142.56,-102.62"/>
</a>
</g>
</g>
<!-- Node3 -->
<g id="Node000003" class="node">
<title>Node3</title>
<g id="a_Node000003"><a xlink:href="../../dd/d0b/classlci_1_1sync__wait__x.html#af7084c4171774b7ef58d0e1d8f50d580" target="_top" xlink:title=" ">
<polygon fill="white" stroke="#666666" points="465.5,-179 338.5,-179 338.5,-160 465.5,-160 465.5,-179"/>
<text text-anchor="middle" x="402" y="-167" font-family="Helvetica,sans-Serif" font-size="10.00">lci::sync_wait_x::comp</text>
</a>
</g>
</g>
<!-- Node1&#45;&gt;Node3 -->
<g id="edge12_Node000001_Node000003" class="edge">
<title>Node1&#45;&gt;Node3</title>
<g id="a_edge12_Node000001_Node000003"><a xlink:title=" ">
<path fill="none" stroke="#63b8ff" d="M71.3,-99.19C88.22,-112.46 120.88,-135.86 153,-146.5 209.83,-165.33 277.74,-170.52 328.11,-171.32"/>
<polygon fill="#63b8ff" stroke="#63b8ff" points="328.23,-174.82 338.26,-171.42 328.3,-167.82 328.23,-174.82"/>
</a>
</g>
</g>
<!-- Node5 -->
<g id="Node000005" class="node">
<title>Node5</title>
<g id="a_Node000005"><a xlink:href="../../dd/d0b/classlci_1_1sync__wait__x.html#ab958af8902a382fae70511fcea31398a" target="_top" xlink:title=" ">
<polygon fill="white" stroke="#666666" points="468,-142 336,-142 336,-123 468,-123 468,-142"/>
<text text-anchor="middle" x="402" y="-130" font-family="Helvetica,sans-Serif" font-size="10.00">lci::sync_wait_x::device</text>
</a>
</g>
</g>
<!-- Node1&#45;&gt;Node5 -->
<g id="edge13_Node000001_Node000005" class="edge">
<title>Node1&#45;&gt;Node5</title>
<g id="a_edge13_Node000001_Node000005"><a xlink:title=" ">
<path fill="none" stroke="#63b8ff" d="M77.5,-99.14C95.88,-108.42 125.54,-121.85 153,-127.5 210.12,-139.26 276.2,-139.98 325.79,-138.05"/>
<polygon fill="#63b8ff" stroke="#63b8ff" points="325.95,-141.54 335.79,-137.61 325.65,-134.55 325.95,-141.54"/>
</a>
</g>
</g>
<!-- Node6 -->
<g id="Node000006" class="node">
<title>Node6</title>
<g id="a_Node000006"><a xlink:href="../../dd/d0b/classlci_1_1sync__wait__x.html#abb8063623552fa193bfda6ab9c2c9cfe" target="_top" xlink:title=" ">
<polygon fill="white" stroke="#666666" points="458,-104.5 346,-104.5 346,-74.5 458,-74.5 458,-104.5"/>
<text text-anchor="start" x="354" y="-92.5" font-family="Helvetica,sans-Serif" font-size="10.00">lci::sync_wait_x::do</text>
<text text-anchor="middle" x="402" y="-81.5" font-family="Helvetica,sans-Serif" font-size="10.00">_progress</text>
</a>
</g>
</g>
<!-- Node1&#45;&gt;Node6 -->
<g id="edge14_Node000001_Node000006" class="edge">
<title>Node1&#45;&gt;Node6</title>
<g id="a_edge14_Node000001_Node000006"><a xlink:title=" ">
<path fill="none" stroke="#63b8ff" d="M117.04,-89.5C177.46,-89.5 272.28,-89.5 335.51,-89.5"/>
<polygon fill="#63b8ff" stroke="#63b8ff" points="335.77,-93 345.77,-89.5 335.77,-86 335.77,-93"/>
</a>
</g>
</g>
<!-- Node7 -->
<g id="Node000007" class="node">
<title>Node7</title>
<g id="a_Node000007"><a xlink:href="../../dd/d0b/classlci_1_1sync__wait__x.html#a1f06a5d161c0ae293c076938586a502b" target="_top" xlink:title=" ">
<polygon fill="white" stroke="#666666" points="465.5,-56 338.5,-56 338.5,-37 465.5,-37 465.5,-56"/>
<text text-anchor="middle" x="402" y="-44" font-family="Helvetica,sans-Serif" font-size="10.00">lci::sync_wait_x::p_out</text>
</a>
</g>
</g>
<!-- Node1&#45;&gt;Node7 -->
<g id="edge15_Node000001_Node000007" class="edge">
<title>Node1&#45;&gt;Node7</title>
<g id="a_edge15_Node000001_Node000007"><a xlink:title=" ">
<path fill="none" stroke="#63b8ff" d="M117.04,-82.25C175.12,-74.94 264.98,-63.63 328.02,-55.69"/>
<polygon fill="#63b8ff" stroke="#63b8ff" points="328.81,-59.12 338.29,-54.4 327.93,-52.17 328.81,-59.12"/>
</a>
</g>
</g>
<!-- Node8 -->
<g id="Node000008" class="node">
<title>Node8</title>
<g id="a_Node000008"><a xlink:href="../../dd/d0b/classlci_1_1sync__wait__x.html#a33c94ca9708dafc0873caecc7e0fd20e" target="_top" xlink:title=" ">
<polygon fill="white" stroke="#666666" points="471,-19 333,-19 333,0 471,0 471,-19"/>
<text text-anchor="middle" x="402" y="-7" font-family="Helvetica,sans-Serif" font-size="10.00">lci::sync_wait_x::runtime</text>
</a>
</g>
</g>
<!-- Node1&#45;&gt;Node8 -->
<g id="edge16_Node000001_Node000008" class="edge">
<title>Node1&#45;&gt;Node8</title>
<g id="a_edge16_Node000001_Node000008"><a xlink:title=" ">
<path fill="none" stroke="#63b8ff" d="M82.59,-79.89C101.31,-72.4 128.5,-62.18 153,-55.5 209.13,-40.2 273.79,-28.39 323.01,-20.57"/>
<polygon fill="#63b8ff" stroke="#63b8ff" points="323.62,-24.02 332.95,-19.01 322.53,-17.11 323.62,-24.02"/>
</a>
</g>
</g>
<!-- Node2&#45;&gt;Node3 -->
<g id="edge2_Node000002_Node000003" class="edge">
<title>Node2&#45;&gt;Node3</title>
<g id="a_edge2_Node000002_Node000003"><a xlink:title=" ">
<path fill="none" stroke="#63b8ff" d="M247.43,-118.02C268.83,-127.31 302.79,-141.47 333,-151.5 339.01,-153.49 345.37,-155.42 351.7,-157.22"/>
<polygon fill="#63b8ff" stroke="#63b8ff" points="350.99,-160.66 361.56,-159.94 352.85,-153.91 350.99,-160.66"/>
</a>
</g>
</g>
<!-- Node2&#45;&gt;Node5 -->
<g id="edge4_Node000002_Node000005" class="edge">
<title>Node2&#45;&gt;Node5</title>
<g id="a_edge4_Node000002_Node000005"><a xlink:title=" ">
<path fill="none" stroke="#63b8ff" d="M295.42,-118.02C305.44,-119.39 315.79,-120.81 325.91,-122.2"/>
<polygon fill="#63b8ff" stroke="#63b8ff" points="325.56,-125.69 335.94,-123.58 326.51,-118.75 325.56,-125.69"/>
</a>
</g>
</g>
<!-- Node2&#45;&gt;Node6 -->
<g id="edge6_Node000002_Node000006" class="edge">
<title>Node2&#45;&gt;Node6</title>
<g id="a_edge6_Node000002_Node000006"><a xlink:title=" ">
<path fill="none" stroke="#63b8ff" d="M297.18,-100.77C310.02,-99.38 323.35,-97.93 336.01,-96.56"/>
<polygon fill="#63b8ff" stroke="#63b8ff" points="336.43,-100.03 345.99,-95.47 335.67,-93.07 336.43,-100.03"/>
</a>
</g>
</g>
<!-- Node2&#45;&gt;Node7 -->
<g id="edge8_Node000002_Node000007" class="edge">
<title>Node2&#45;&gt;Node7</title>
<g id="a_edge8_Node000002_Node000007"><a xlink:title=" ">
<path fill="none" stroke="#63b8ff" d="M247.87,-98.89C269.31,-89.67 303.05,-75.67 333,-65.5 339.86,-63.17 347.18,-60.9 354.38,-58.79"/>
<polygon fill="#63b8ff" stroke="#63b8ff" points="355.42,-62.14 364.07,-56.02 353.5,-55.41 355.42,-62.14"/>
</a>
</g>
</g>
<!-- Node2&#45;&gt;Node8 -->
<g id="edge10_Node000002_Node000008" class="edge">
<title>Node2&#45;&gt;Node8</title>
<g id="a_edge10_Node000002_Node000008"><a xlink:title=" ">
<path fill="none" stroke="#63b8ff" d="M236.07,-98.91C254.09,-82.23 293.67,-47.85 333,-28.5 337.69,-26.19 342.71,-24.13 347.81,-22.28"/>
<polygon fill="#63b8ff" stroke="#63b8ff" points="349.27,-25.49 357.67,-19.02 347.07,-18.84 349.27,-25.49"/>
</a>
</g>
</g>
<!-- Node4 -->
<g id="Node000004" class="node">
<title>Node4</title>
<g id="a_Node000004"><a xlink:href="../../dd/d0b/classlci_1_1sync__wait__x.html#a1b82908c8a1e781860e9a95db7916df1" target="_top" xlink:title=" ">
<polygon fill="white" stroke="#666666" points="629,-104.5 507,-104.5 507,-74.5 629,-74.5 629,-104.5"/>
<text text-anchor="start" x="515" y="-92.5" font-family="Helvetica,sans-Serif" font-size="10.00">lci::sync_wait_x::sync</text>
<text text-anchor="middle" x="568" y="-81.5" font-family="Helvetica,sans-Serif" font-size="10.00">_wait_x</text>
</a>
</g>
</g>
<!-- Node3&#45;&gt;Node4 -->
<g id="edge3_Node000003_Node000004" class="edge">
<title>Node3&#45;&gt;Node4</title>
<g id="a_edge3_Node000003_Node000004"><a xlink:title=" ">
<path fill="none" stroke="#63b8ff" d="M447.23,-159.96C455.29,-157.62 463.52,-154.81 471,-151.5 495.44,-140.7 520.73,-124.1 539.22,-110.8"/>
<polygon fill="#63b8ff" stroke="#63b8ff" points="541.46,-113.5 547.46,-104.76 537.32,-107.85 541.46,-113.5"/>
</a>
</g>
</g>
<!-- Node5&#45;&gt;Node4 -->
<g id="edge5_Node000005_Node000004" class="edge">
<title>Node5&#45;&gt;Node4</title>
<g id="a_edge5_Node000005_Node000004"><a xlink:title=" ">
<path fill="none" stroke="#63b8ff" d="M439.4,-122.96C457.24,-118.28 479.3,-112.49 500.04,-107.06"/>
<polygon fill="#63b8ff" stroke="#63b8ff" points="500.98,-110.43 509.77,-104.51 499.21,-103.66 500.98,-110.43"/>
</a>
</g>
</g>
<!-- Node6&#45;&gt;Node4 -->
<g id="edge7_Node000006_Node000004" class="edge">
<title>Node6&#45;&gt;Node4</title>
<g id="a_edge7_Node000006_Node000004"><a xlink:title=" ">
<path fill="none" stroke="#63b8ff" d="M458.07,-89.5C470.4,-89.5 483.65,-89.5 496.52,-89.5"/>
<polygon fill="#63b8ff" stroke="#63b8ff" points="496.73,-93 506.73,-89.5 496.73,-86 496.73,-93"/>
</a>
</g>
</g>
<!-- Node7&#45;&gt;Node4 -->
<g id="edge9_Node000007_Node000004" class="edge">
<title>Node7&#45;&gt;Node4</title>
<g id="a_edge9_Node000007_Node000004"><a xlink:title=" ">
<path fill="none" stroke="#63b8ff" d="M439.4,-56.04C457.24,-60.72 479.3,-66.51 500.04,-71.94"/>
<polygon fill="#63b8ff" stroke="#63b8ff" points="499.21,-75.34 509.77,-74.49 500.98,-68.57 499.21,-75.34"/>
</a>
</g>
</g>
<!-- Node8&#45;&gt;Node4 -->
<g id="edge11_Node000008_Node000004" class="edge">
<title>Node8&#45;&gt;Node4</title>
<g id="a_edge11_Node000008_Node000004"><a xlink:title=" ">
<path fill="none" stroke="#63b8ff" d="M444.68,-19.06C453.54,-21.66 462.71,-24.81 471,-28.5 495.13,-39.26 520.27,-55.43 538.76,-68.43"/>
<polygon fill="#63b8ff" stroke="#63b8ff" points="536.85,-71.36 547.02,-74.33 540.92,-65.66 536.85,-71.36"/>
</a>
</g>
</g>
</g>
</svg>
