<?xml version="1.0" encoding="UTF-8" standalone="no"?>
<!DOCTYPE svg PUBLIC "-//W3C//DTD SVG 1.1//EN"
 "http://www.w3.org/Graphics/SVG/1.1/DTD/svg11.dtd">
<!-- Generated by graphviz version 2.43.0 (0)
 -->
<!-- Title: lci::alloc_matching_engine_x::call Pages: 1 -->
<svg width="621pt" height="194pt"
 viewBox="0.00 0.00 621.00 193.50" xmlns="http://www.w3.org/2000/svg" xmlns:xlink="http://www.w3.org/1999/xlink">
<g id="graph0" class="graph" transform="scale(1 1) rotate(0) translate(4 189.5)">
<title>lci::alloc_matching_engine_x::call</title>
<!-- Node1 -->
<g id="Node000001" class="node">
<title>Node1</title>
<g id="a_Node000001"><a xlink:title=" ">
<polygon fill="#999999" stroke="#666666" points="108,-105 0,-105 0,-75 108,-75 108,-105"/>
<text text-anchor="start" x="8" y="-93" font-family="Helvetica,sans-Serif" font-size="10.00">lci::alloc_matching</text>
<text text-anchor="middle" x="54" y="-82" font-family="Helvetica,sans-Serif" font-size="10.00">_engine_x::call</text>
</a>
</g>
</g>
<!-- Node2 -->
<g id="Node000002" class="node">
<title>Node2</title>
<g id="a_Node000002"><a xlink:href="../../d6/dc8/classlci_1_1alloc__matching__engine__x.html#a86266bdf60cf982105ec634387515a9b" target="_top" xlink:title=" ">
<polygon fill="white" stroke="#666666" points="260,-105 144,-105 144,-75 260,-75 260,-105"/>
<text text-anchor="start" x="152" y="-93" font-family="Helvetica,sans-Serif" font-size="10.00">lci::alloc_matching</text>
<text text-anchor="middle" x="202" y="-82" font-family="Helvetica,sans-Serif" font-size="10.00">_engine_x::call_impl</text>
</a>
</g>
</g>
<!-- Node1&#45;&gt;Node2 -->
<g id="edge1_Node000001_Node000002" class="edge">
<title>Node1&#45;&gt;Node2</title>
<g id="a_edge1_Node000001_Node000002"><a xlink:title=" ">
<path fill="none" stroke="#63b8ff" d="M108.12,-90C116.44,-90 125.14,-90 133.73,-90"/>
<polygon fill="#63b8ff" stroke="#63b8ff" points="133.73,-93.5 143.73,-90 133.73,-86.5 133.73,-93.5"/>
</a>
</g>
</g>
<!-- Node3 -->
<g id="Node000003" class="node">
<title>Node3</title>
<g id="a_Node000003"><a xlink:href="../../d6/dc8/classlci_1_1alloc__matching__engine__x.html#aa17797fcb21822e0dea10c346d425f03" target="_top" xlink:title=" ">
<polygon fill="white" stroke="#666666" points="422.5,-185.5 304.5,-185.5 304.5,-144.5 422.5,-144.5 422.5,-185.5"/>
<text text-anchor="start" x="312.5" y="-173.5" font-family="Helvetica,sans-Serif" font-size="10.00">lci::alloc_matching</text>
<text text-anchor="start" x="312.5" y="-162.5" font-family="Helvetica,sans-Serif" font-size="10.00">_engine_x::matching</text>
<text text-anchor="middle" x="363.5" y="-151.5" font-family="Helvetica,sans-Serif" font-size="10.00">_engine_type</text>
</a>
</g>
</g>
<!-- Node1&#45;&gt;Node3 -->
<g id="edge10_Node000001_Node000003" class="edge">
<title>Node1&#45;&gt;Node3</title>
<g id="a_edge10_Node000001_Node000003"><a xlink:title=" ">
<path fill="none" stroke="#63b8ff" d="M83.52,-105.14C100.63,-113.63 123.06,-123.74 144,-130 193.07,-144.68 250.28,-153.56 293.86,-158.7"/>
<polygon fill="#63b8ff" stroke="#63b8ff" points="293.73,-162.21 304.06,-159.87 294.52,-155.25 293.73,-162.21"/>
</a>
</g>
</g>
<!-- Node5 -->
<g id="Node000005" class="node">
<title>Node5</title>
<g id="a_Node000005"><a xlink:href="../../d6/dc8/classlci_1_1alloc__matching__engine__x.html#a686fc8ceb561a2e5ed2361db808f8426" target="_top" xlink:title=" ">
<polygon fill="white" stroke="#666666" points="417.5,-126 309.5,-126 309.5,-96 417.5,-96 417.5,-126"/>
<text text-anchor="start" x="317.5" y="-114" font-family="Helvetica,sans-Serif" font-size="10.00">lci::alloc_matching</text>
<text text-anchor="middle" x="363.5" y="-103" font-family="Helvetica,sans-Serif" font-size="10.00">_engine_x::name</text>
</a>
</g>
</g>
<!-- Node1&#45;&gt;Node5 -->
<g id="edge11_Node000001_Node000005" class="edge">
<title>Node1&#45;&gt;Node5</title>
<g id="a_edge11_Node000001_Node000005"><a xlink:title=" ">
<path fill="none" stroke="#63b8ff" d="M101.64,-105.05C115.16,-108.74 130.04,-112.15 144,-114 195.88,-120.87 255.29,-119.47 299.05,-116.71"/>
<polygon fill="#63b8ff" stroke="#63b8ff" points="299.52,-120.19 309.26,-116.02 299.05,-113.2 299.52,-120.19"/>
</a>
</g>
</g>
<!-- Node6 -->
<g id="Node000006" class="node">
<title>Node6</title>
<g id="a_Node000006"><a xlink:href="../../d6/dc8/classlci_1_1alloc__matching__engine__x.html#a62b63a7ada248f218316743a43d3d4dd" target="_top" xlink:title=" ">
<polygon fill="white" stroke="#666666" points="418.5,-78 308.5,-78 308.5,-48 418.5,-48 418.5,-78"/>
<text text-anchor="start" x="316.5" y="-66" font-family="Helvetica,sans-Serif" font-size="10.00">lci::alloc_matching</text>
<text text-anchor="middle" x="363.5" y="-55" font-family="Helvetica,sans-Serif" font-size="10.00">_engine_x::runtime</text>
</a>
</g>
</g>
<!-- Node1&#45;&gt;Node6 -->
<g id="edge12_Node000001_Node000006" class="edge">
<title>Node1&#45;&gt;Node6</title>
<g id="a_edge12_Node000001_Node000006"><a xlink:title=" ">
<path fill="none" stroke="#63b8ff" d="M102.12,-74.95C115.51,-71.31 130.21,-67.92 144,-66 195.48,-58.82 254.45,-58.47 298.14,-59.69"/>
<polygon fill="#63b8ff" stroke="#63b8ff" points="298.23,-63.19 308.34,-60.01 298.45,-56.2 298.23,-63.19"/>
</a>
</g>
</g>
<!-- Node7 -->
<g id="Node000007" class="node">
<title>Node7</title>
<g id="a_Node000007"><a xlink:href="../../d6/dc8/classlci_1_1alloc__matching__engine__x.html#a1f2ab4de552f8a3da7facd383da722ee" target="_top" xlink:title=" ">
<polygon fill="white" stroke="#666666" points="431,-30 296,-30 296,0 431,0 431,-30"/>
<text text-anchor="start" x="304" y="-18" font-family="Helvetica,sans-Serif" font-size="10.00">lci::alloc_matching</text>
<text text-anchor="middle" x="363.5" y="-7" font-family="Helvetica,sans-Serif" font-size="10.00">_engine_x::user_context</text>
</a>
</g>
</g>
<!-- Node1&#45;&gt;Node7 -->
<g id="edge13_Node000001_Node000007" class="edge">
<title>Node1&#45;&gt;Node7</title>
<g id="a_edge13_Node000001_Node000007"><a xlink:title=" ">
<path fill="none" stroke="#63b8ff" d="M88.7,-74.96C105.12,-68.1 125.32,-60.33 144,-55 190.35,-41.78 243.52,-31.93 285.81,-25.32"/>
<polygon fill="#63b8ff" stroke="#63b8ff" points="286.4,-28.77 295.76,-23.79 285.34,-21.85 286.4,-28.77"/>
</a>
</g>
</g>
<!-- Node2&#45;&gt;Node3 -->
<g id="edge2_Node000002_Node000003" class="edge">
<title>Node2&#45;&gt;Node3</title>
<g id="a_edge2_Node000002_Node000003"><a xlink:title=" ">
<path fill="none" stroke="#63b8ff" d="M233.48,-105C251.59,-113.85 275.04,-125.2 296,-135 299.58,-136.67 303.27,-138.38 306.99,-140.09"/>
<polygon fill="#63b8ff" stroke="#63b8ff" points="305.73,-143.36 316.28,-144.34 308.64,-137 305.73,-143.36"/>
</a>
</g>
</g>
<!-- Node2&#45;&gt;Node5 -->
<g id="edge4_Node000002_Node000005" class="edge">
<title>Node2&#45;&gt;Node5</title>
<g id="a_edge4_Node000002_Node000005"><a xlink:title=" ">
<path fill="none" stroke="#63b8ff" d="M260.13,-97.52C272.83,-99.19 286.36,-100.98 299.28,-102.68"/>
<polygon fill="#63b8ff" stroke="#63b8ff" points="299.12,-106.19 309.49,-104.02 300.03,-99.25 299.12,-106.19"/>
</a>
</g>
</g>
<!-- Node2&#45;&gt;Node6 -->
<g id="edge6_Node000002_Node000006" class="edge">
<title>Node2&#45;&gt;Node6</title>
<g id="a_edge6_Node000002_Node000006"><a xlink:title=" ">
<path fill="none" stroke="#63b8ff" d="M260.13,-80.33C272.55,-78.23 285.76,-75.99 298.42,-73.85"/>
<polygon fill="#63b8ff" stroke="#63b8ff" points="299.16,-77.27 308.43,-72.15 297.99,-70.37 299.16,-77.27"/>
</a>
</g>
</g>
<!-- Node2&#45;&gt;Node7 -->
<g id="edge8_Node000002_Node000007" class="edge">
<title>Node2&#45;&gt;Node7</title>
<g id="a_edge8_Node000002_Node000007"><a xlink:title=" ">
<path fill="none" stroke="#63b8ff" d="M228.11,-74.84C246.53,-64.07 272.33,-49.68 296,-39 300.01,-37.19 304.2,-35.42 308.44,-33.7"/>
<polygon fill="#63b8ff" stroke="#63b8ff" points="309.72,-36.96 317.76,-30.07 307.17,-30.44 309.72,-36.96"/>
</a>
</g>
</g>
<!-- Node4 -->
<g id="Node000004" class="node">
<title>Node4</title>
<g id="a_Node000004"><a xlink:href="../../d6/dc8/classlci_1_1alloc__matching__engine__x.html#af8991cfa93661f173f17d17e55a175b9" target="_top" xlink:title=" ">
<polygon fill="white" stroke="#666666" points="613,-107.5 467,-107.5 467,-66.5 613,-66.5 613,-107.5"/>
<text text-anchor="start" x="475" y="-95.5" font-family="Helvetica,sans-Serif" font-size="10.00">lci::alloc_matching</text>
<text text-anchor="start" x="475" y="-84.5" font-family="Helvetica,sans-Serif" font-size="10.00">_engine_x::alloc_matching</text>
<text text-anchor="middle" x="540" y="-73.5" font-family="Helvetica,sans-Serif" font-size="10.00">_engine_x</text>
</a>
</g>
</g>
<!-- Node3&#45;&gt;Node4 -->
<g id="edge3_Node000003_Node000004" class="edge">
<title>Node3&#45;&gt;Node4</title>
<g id="a_edge3_Node000003_Node000004"><a xlink:title=" ">
<path fill="none" stroke="#63b8ff" d="M410.8,-144.3C433.27,-134.26 460.41,-122.13 483.93,-111.62"/>
<polygon fill="#63b8ff" stroke="#63b8ff" points="485.38,-114.8 493.08,-107.52 482.53,-108.41 485.38,-114.8"/>
</a>
</g>
</g>
<!-- Node5&#45;&gt;Node4 -->
<g id="edge5_Node000005_Node000004" class="edge">
<title>Node5&#45;&gt;Node4</title>
<g id="a_edge5_Node000005_Node000004"><a xlink:title=" ">
<path fill="none" stroke="#63b8ff" d="M417.8,-103.67C430.1,-101.98 443.47,-100.14 456.69,-98.32"/>
<polygon fill="#63b8ff" stroke="#63b8ff" points="457.31,-101.77 466.74,-96.94 456.36,-94.83 457.31,-101.77"/>
</a>
</g>
</g>
<!-- Node6&#45;&gt;Node4 -->
<g id="edge7_Node000006_Node000004" class="edge">
<title>Node6&#45;&gt;Node4</title>
<g id="a_edge7_Node000006_Node000004"><a xlink:title=" ">
<path fill="none" stroke="#63b8ff" d="M418.76,-70.46C430.76,-72.11 443.73,-73.9 456.57,-75.66"/>
<polygon fill="#63b8ff" stroke="#63b8ff" points="456.43,-79.18 466.81,-77.07 457.38,-72.24 456.43,-79.18"/>
</a>
</g>
</g>
<!-- Node7&#45;&gt;Node4 -->
<g id="edge9_Node000007_Node000004" class="edge">
<title>Node7&#45;&gt;Node4</title>
<g id="a_edge9_Node000007_Node000004"><a xlink:title=" ">
<path fill="none" stroke="#63b8ff" d="M407.6,-30.04C415.42,-32.92 423.48,-35.98 431,-39 448.83,-46.17 468.07,-54.52 485.3,-62.22"/>
<polygon fill="#63b8ff" stroke="#63b8ff" points="484.09,-65.51 494.64,-66.42 486.96,-59.13 484.09,-65.51"/>
</a>
</g>
</g>
</g>
</svg>
