<?xml version="1.0" encoding="UTF-8" standalone="no"?>
<!DOCTYPE svg PUBLIC "-//W3C//DTD SVG 1.1//EN"
 "http://www.w3.org/Graphics/SVG/1.1/DTD/svg11.dtd">
<!-- Generated by graphviz version 2.43.0 (0)
 -->
<!-- Title: lci::net_post_putImms_x Pages: 1 -->
<svg width="555pt" height="257pt"
 viewBox="0.00 0.00 555.00 257.00" xmlns="http://www.w3.org/2000/svg" xmlns:xlink="http://www.w3.org/1999/xlink">
<g id="graph0" class="graph" transform="scale(1 1) rotate(0) translate(4 253)">
<title>lci::net_post_putImms_x</title>
<!-- Node1 -->
<g id="Node000001" class="node">
<title>Node1</title>
<g id="a_Node000001"><a xlink:title="The actual implementation for net_post_putImms.">
<polygon fill="#999999" stroke="#666666" points="547,-137 411,-137 411,-118 547,-118 547,-137"/>
<text text-anchor="middle" x="479" y="-125" font-family="Helvetica,sans-Serif" font-size="10.00">lci::net_post_putImms_x</text>
</a>
</g>
</g>
<!-- Node2 -->
<g id="Node000002" class="node">
<title>Node2</title>
<g id="a_Node000002"><a xlink:href="../../da/d8d/structlci_1_1rmr__t.html" target="_top" xlink:title="The type of remote memory region.">
<polygon fill="white" stroke="#666666" points="260.5,-249 200.5,-249 200.5,-230 260.5,-230 260.5,-249"/>
<text text-anchor="middle" x="230.5" y="-237" font-family="Helvetica,sans-Serif" font-size="10.00">lci::rmr_t</text>
</a>
</g>
</g>
<!-- Node2&#45;&gt;Node1 -->
<g id="edge1_Node000001_Node000002" class="edge">
<title>Node2&#45;&gt;Node1</title>
<g id="a_edge1_Node000001_Node000002"><a xlink:title=" ">
<path fill="none" stroke="#9a32cd" stroke-dasharray="5,2" d="M270.63,-232.35C304.31,-225.23 353.56,-212.44 393,-192.5 422.84,-177.41 452.74,-151.41 467.86,-137.3"/>
<polygon fill="#9a32cd" stroke="#9a32cd" points="269.8,-228.95 260.71,-234.38 271.2,-235.81 269.8,-228.95"/>
</a>
</g>
<text text-anchor="middle" x="352" y="-224.5" font-family="Helvetica,sans-Serif" font-size="10.00" fill="grey"> m_rmr</text>
</g>
<!-- Node3 -->
<g id="Node000003" class="node">
<title>Node3</title>
<g id="a_Node000003"><a xlink:href="../../db/d20/structlci_1_1option__t.html" target="_top" xlink:title=" ">
<polygon fill="white" stroke="#666666" points="278.5,-211.5 182.5,-211.5 182.5,-181.5 278.5,-181.5 278.5,-211.5"/>
<text text-anchor="start" x="190.5" y="-199.5" font-family="Helvetica,sans-Serif" font-size="10.00">lci::option_t&lt; lci</text>
<text text-anchor="middle" x="230.5" y="-188.5" font-family="Helvetica,sans-Serif" font-size="10.00">::runtime_t &gt;</text>
</a>
</g>
</g>
<!-- Node3&#45;&gt;Node1 -->
<g id="edge2_Node000001_Node000003" class="edge">
<title>Node3&#45;&gt;Node1</title>
<g id="a_edge2_Node000001_Node000003"><a xlink:title=" ">
<path fill="none" stroke="#9a32cd" stroke-dasharray="5,2" d="M288.57,-183.63C319.62,-176.31 358.61,-166.6 393,-156.5 412.9,-150.65 435.06,-143.05 451.77,-137.1"/>
<polygon fill="#9a32cd" stroke="#9a32cd" points="287.72,-180.23 278.78,-185.92 289.32,-187.05 287.72,-180.23"/>
</a>
</g>
<text text-anchor="middle" x="352" y="-180.5" font-family="Helvetica,sans-Serif" font-size="10.00" fill="grey"> m_runtime</text>
</g>
<!-- Node4 -->
<g id="Node000004" class="node">
<title>Node4</title>
<g id="a_Node000004"><a xlink:href="../../dc/d5c/classlci_1_1runtime__t.html" target="_top" xlink:title="The actual implementation for RESOURCE runtime.">
<polygon fill="white" stroke="#666666" points="83.5,-206 2.5,-206 2.5,-187 83.5,-187 83.5,-206"/>
<text text-anchor="middle" x="43" y="-194" font-family="Helvetica,sans-Serif" font-size="10.00">lci::runtime_t</text>
</a>
</g>
</g>
<!-- Node4&#45;&gt;Node3 -->
<g id="edge3_Node000003_Node000004" class="edge">
<title>Node4&#45;&gt;Node3</title>
<g id="a_edge3_Node000003_Node000004"><a xlink:title=" ">
<path fill="none" stroke="#9a32cd" stroke-dasharray="5,2" d="M93.97,-196.5C121.4,-196.5 155.22,-196.5 182.22,-196.5"/>
<polygon fill="#9a32cd" stroke="#9a32cd" points="93.79,-193 83.79,-196.5 93.79,-200 93.79,-193"/>
</a>
</g>
<text text-anchor="middle" x="127" y="-199.5" font-family="Helvetica,sans-Serif" font-size="10.00" fill="grey"> m_value</text>
</g>
<!-- Node5 -->
<g id="Node000005" class="node">
<title>Node5</title>
<g id="a_Node000005"><a xlink:href="../../db/d20/structlci_1_1option__t.html" target="_top" xlink:title=" ">
<polygon fill="white" stroke="#666666" points="278.5,-163.5 182.5,-163.5 182.5,-133.5 278.5,-133.5 278.5,-163.5"/>
<text text-anchor="start" x="190.5" y="-151.5" font-family="Helvetica,sans-Serif" font-size="10.00">lci::option_t&lt; lci</text>
<text text-anchor="middle" x="230.5" y="-140.5" font-family="Helvetica,sans-Serif" font-size="10.00">::device_t &gt;</text>
</a>
</g>
</g>
<!-- Node5&#45;&gt;Node1 -->
<g id="edge4_Node000001_Node000005" class="edge">
<title>Node5&#45;&gt;Node1</title>
<g id="a_edge4_Node000001_Node000005"><a xlink:title=" ">
<path fill="none" stroke="#9a32cd" stroke-dasharray="5,2" d="M288.72,-143.63C325.2,-140.52 372.64,-136.48 410.89,-133.22"/>
<polygon fill="#9a32cd" stroke="#9a32cd" points="288.4,-140.14 278.74,-144.48 289,-147.11 288.4,-140.14"/>
</a>
</g>
<text text-anchor="middle" x="352" y="-144.5" font-family="Helvetica,sans-Serif" font-size="10.00" fill="grey"> m_device</text>
</g>
<!-- Node6 -->
<g id="Node000006" class="node">
<title>Node6</title>
<g id="a_Node000006"><a xlink:href="../../d6/d66/classlci_1_1device__t.html" target="_top" xlink:title="The actual implementation for RESOURCE device.">
<polygon fill="white" stroke="#666666" points="80.5,-158 5.5,-158 5.5,-139 80.5,-139 80.5,-158"/>
<text text-anchor="middle" x="43" y="-146" font-family="Helvetica,sans-Serif" font-size="10.00">lci::device_t</text>
</a>
</g>
</g>
<!-- Node6&#45;&gt;Node5 -->
<g id="edge5_Node000005_Node000006" class="edge">
<title>Node6&#45;&gt;Node5</title>
<g id="a_edge5_Node000005_Node000006"><a xlink:title=" ">
<path fill="none" stroke="#9a32cd" stroke-dasharray="5,2" d="M90.98,-148.5C118.95,-148.5 154.35,-148.5 182.35,-148.5"/>
<polygon fill="#9a32cd" stroke="#9a32cd" points="90.65,-145 80.65,-148.5 90.65,-152 90.65,-145"/>
</a>
</g>
<text text-anchor="middle" x="127" y="-151.5" font-family="Helvetica,sans-Serif" font-size="10.00" fill="grey"> m_value</text>
</g>
<!-- Node7 -->
<g id="Node000007" class="node">
<title>Node7</title>
<g id="a_Node000007"><a xlink:href="../../db/d20/structlci_1_1option__t.html" target="_top" xlink:title=" ">
<polygon fill="white" stroke="#666666" points="278.5,-115.5 182.5,-115.5 182.5,-85.5 278.5,-85.5 278.5,-115.5"/>
<text text-anchor="start" x="190.5" y="-103.5" font-family="Helvetica,sans-Serif" font-size="10.00">lci::option_t&lt; lci</text>
<text text-anchor="middle" x="230.5" y="-92.5" font-family="Helvetica,sans-Serif" font-size="10.00">::endpoint_t &gt;</text>
</a>
</g>
</g>
<!-- Node7&#45;&gt;Node1 -->
<g id="edge6_Node000001_Node000007" class="edge">
<title>Node7&#45;&gt;Node1</title>
<g id="a_edge6_Node000001_Node000007"><a xlink:title=" ">
<path fill="none" stroke="#9a32cd" stroke-dasharray="5,2" d="M288.72,-106.77C325.2,-110.76 372.64,-115.96 410.89,-120.15"/>
<polygon fill="#9a32cd" stroke="#9a32cd" points="289.06,-103.28 278.74,-105.67 288.3,-110.24 289.06,-103.28"/>
</a>
</g>
<text text-anchor="middle" x="352" y="-120.5" font-family="Helvetica,sans-Serif" font-size="10.00" fill="grey"> m_endpoint</text>
</g>
<!-- Node8 -->
<g id="Node000008" class="node">
<title>Node8</title>
<g id="a_Node000008"><a xlink:href="../../de/d1b/classlci_1_1endpoint__t.html" target="_top" xlink:title="The actual implementation for RESOURCE endpoint.">
<polygon fill="white" stroke="#666666" points="86,-110 0,-110 0,-91 86,-91 86,-110"/>
<text text-anchor="middle" x="43" y="-98" font-family="Helvetica,sans-Serif" font-size="10.00">lci::endpoint_t</text>
</a>
</g>
</g>
<!-- Node8&#45;&gt;Node7 -->
<g id="edge7_Node000007_Node000008" class="edge">
<title>Node8&#45;&gt;Node7</title>
<g id="a_edge7_Node000007_Node000008"><a xlink:title=" ">
<path fill="none" stroke="#9a32cd" stroke-dasharray="5,2" d="M96.16,-100.5C123.23,-100.5 156.05,-100.5 182.35,-100.5"/>
<polygon fill="#9a32cd" stroke="#9a32cd" points="96.09,-97 86.09,-100.5 96.09,-104 96.09,-97"/>
</a>
</g>
<text text-anchor="middle" x="127" y="-103.5" font-family="Helvetica,sans-Serif" font-size="10.00" fill="grey"> m_value</text>
</g>
<!-- Node9 -->
<g id="Node000009" class="node">
<title>Node9</title>
<g id="a_Node000009"><a xlink:href="../../db/d20/structlci_1_1option__t.html" target="_top" xlink:title=" ">
<polygon fill="white" stroke="#666666" points="281,-67.5 180,-67.5 180,-37.5 281,-37.5 281,-67.5"/>
<text text-anchor="start" x="188" y="-55.5" font-family="Helvetica,sans-Serif" font-size="10.00">lci::option_t&lt; net</text>
<text text-anchor="middle" x="230.5" y="-44.5" font-family="Helvetica,sans-Serif" font-size="10.00">_imm_data_t &gt;</text>
</a>
</g>
</g>
<!-- Node9&#45;&gt;Node1 -->
<g id="edge8_Node000001_Node000009" class="edge">
<title>Node9&#45;&gt;Node1</title>
<g id="a_edge8_Node000001_Node000009"><a xlink:title=" ">
<path fill="none" stroke="#9a32cd" stroke-dasharray="5,2" d="M291.22,-65.67C321.92,-72.94 359.76,-82.68 393,-93.5 414.92,-100.63 439.27,-110.59 456.28,-117.89"/>
<polygon fill="#9a32cd" stroke="#9a32cd" points="291.64,-62.18 281.1,-63.3 290.04,-68.99 291.64,-62.18"/>
</a>
</g>
<text text-anchor="middle" x="352" y="-96.5" font-family="Helvetica,sans-Serif" font-size="10.00" fill="grey"> m_imm_data</text>
</g>
<!-- Node10 -->
<g id="Node000010" class="node">
<title>Node10</title>
<g id="a_Node000010"><a xlink:href="../../db/d20/structlci_1_1option__t.html" target="_top" xlink:title=" ">
<polygon fill="white" stroke="#666666" points="293,-19 168,-19 168,0 293,0 293,-19"/>
<text text-anchor="middle" x="230.5" y="-7" font-family="Helvetica,sans-Serif" font-size="10.00">lci::option_t&lt; void * &gt;</text>
</a>
</g>
</g>
<!-- Node10&#45;&gt;Node1 -->
<g id="edge9_Node000001_Node000010" class="edge">
<title>Node10&#45;&gt;Node1</title>
<g id="a_edge9_Node000001_Node000010"><a xlink:title=" ">
<path fill="none" stroke="#9a32cd" stroke-dasharray="5,2" d="M296.53,-21.38C326.99,-28.58 363.07,-39.53 393,-55.5 424.4,-72.25 454.57,-102.12 469.06,-117.59"/>
<polygon fill="#9a32cd" stroke="#9a32cd" points="296.96,-17.89 286.43,-19.08 295.4,-24.71 296.96,-17.89"/>
</a>
</g>
<text text-anchor="middle" x="352" y="-58.5" font-family="Helvetica,sans-Serif" font-size="10.00" fill="grey"> m_user_context</text>
</g>
</g>
</svg>
