<?xml version="1.0" encoding="UTF-8" standalone="no"?>
<!DOCTYPE svg PUBLIC "-//W3C//DTD SVG 1.1//EN"
 "http://www.w3.org/Graphics/SVG/1.1/DTD/svg11.dtd">
<!-- Generated by graphviz version 2.43.0 (0)
 -->
<!-- Title: lci::g_runtime_fina_x::operator() Pages: 1 -->
<svg width="401pt" height="76pt"
 viewBox="0.00 0.00 401.00 75.50" xmlns="http://www.w3.org/2000/svg" xmlns:xlink="http://www.w3.org/1999/xlink">
<g id="graph0" class="graph" transform="scale(1 1) rotate(0) translate(4 71.5)">
<title>lci::g_runtime_fina_x::operator()</title>
<!-- Node1 -->
<g id="Node000001" class="node">
<title>Node1</title>
<g id="a_Node000001"><a xlink:title=" ">
<polygon fill="#999999" stroke="#666666" points="107,-45.5 0,-45.5 0,-15.5 107,-15.5 107,-45.5"/>
<text text-anchor="start" x="8" y="-33.5" font-family="Helvetica,sans-Serif" font-size="10.00">lci::g_runtime_fina</text>
<text text-anchor="middle" x="53.5" y="-22.5" font-family="Helvetica,sans-Serif" font-size="10.00">_x::operator()</text>
</a>
</g>
</g>
<!-- Node2 -->
<g id="Node000002" class="node">
<title>Node2</title>
<g id="a_Node000002"><a xlink:href="../../d0/df3/classlci_1_1g__runtime__fina__x.html#a55d7504c60755e62a792ce51b0702749" target="_top" xlink:title=" ">
<polygon fill="white" stroke="#666666" points="250,-45.5 143,-45.5 143,-15.5 250,-15.5 250,-45.5"/>
<text text-anchor="start" x="151" y="-33.5" font-family="Helvetica,sans-Serif" font-size="10.00">lci::g_runtime_fina</text>
<text text-anchor="middle" x="196.5" y="-22.5" font-family="Helvetica,sans-Serif" font-size="10.00">_x::call</text>
</a>
</g>
</g>
<!-- Node1&#45;&gt;Node2 -->
<g id="edge1_Node000001_Node000002" class="edge">
<title>Node1&#45;&gt;Node2</title>
<g id="a_edge1_Node000001_Node000002"><a xlink:title=" ">
<path fill="none" stroke="#63b8ff" d="M107,-30.5C115.44,-30.5 124.26,-30.5 132.9,-30.5"/>
<polygon fill="#63b8ff" stroke="#63b8ff" points="132.95,-34 142.95,-30.5 132.95,-27 132.95,-34"/>
</a>
</g>
</g>
<!-- Node3 -->
<g id="Node000003" class="node">
<title>Node3</title>
<g id="a_Node000003"><a xlink:href="../../d0/df3/classlci_1_1g__runtime__fina__x.html#a6060cd8bb8cdedacfe2cdf1ea11c0264" target="_top" xlink:title=" ">
<polygon fill="white" stroke="#666666" points="393,-67.5 286,-67.5 286,-37.5 393,-37.5 393,-67.5"/>
<text text-anchor="start" x="294" y="-55.5" font-family="Helvetica,sans-Serif" font-size="10.00">lci::g_runtime_fina</text>
<text text-anchor="middle" x="339.5" y="-44.5" font-family="Helvetica,sans-Serif" font-size="10.00">_x::call_impl</text>
</a>
</g>
</g>
<!-- Node2&#45;&gt;Node3 -->
<g id="edge2_Node000002_Node000003" class="edge">
<title>Node2&#45;&gt;Node3</title>
<g id="a_edge2_Node000002_Node000003"><a xlink:title=" ">
<path fill="none" stroke="#63b8ff" d="M250,-38.69C258.44,-40.01 267.26,-41.38 275.9,-42.73"/>
<polygon fill="#63b8ff" stroke="#63b8ff" points="275.53,-46.22 285.95,-44.3 276.61,-39.3 275.53,-46.22"/>
</a>
</g>
</g>
<!-- Node4 -->
<g id="Node000004" class="node">
<title>Node4</title>
<g id="a_Node000004"><a xlink:href="../../d8/d33/group__LCI__BASIC.html#gabce215a9c6eea84dcee74d0179c34aab" target="_top" xlink:title="Global finalization for LCI.">
<polygon fill="white" stroke="#666666" points="391.5,-19 287.5,-19 287.5,0 391.5,0 391.5,-19"/>
<text text-anchor="middle" x="339.5" y="-7" font-family="Helvetica,sans-Serif" font-size="10.00">lci::global_finalize</text>
</a>
</g>
</g>
<!-- Node2&#45;&gt;Node4 -->
<g id="edge3_Node000002_Node000004" class="edge">
<title>Node2&#45;&gt;Node4</title>
<g id="a_edge3_Node000002_Node000004"><a xlink:title=" ">
<path fill="none" stroke="#63b8ff" d="M250,-22.68C258.88,-21.36 268.16,-19.98 277.23,-18.62"/>
<polygon fill="#63b8ff" stroke="#63b8ff" points="277.98,-22.05 287.36,-17.12 276.95,-15.13 277.98,-22.05"/>
</a>
</g>
</g>
</g>
</svg>
