<?xml version="1.0" encoding="UTF-8" standalone="no"?>
<!DOCTYPE svg PUBLIC "-//W3C//DTD SVG 1.1//EN"
 "http://www.w3.org/Graphics/SVG/1.1/DTD/svg11.dtd">
<!-- Generated by graphviz version 2.43.0 (0)
 -->
<!-- Title: lci::post_am_x Pages: 1 -->
<svg width="698pt" height="501pt"
 viewBox="0.00 0.00 698.00 501.23" xmlns="http://www.w3.org/2000/svg" xmlns:xlink="http://www.w3.org/1999/xlink">
<g id="graph0" class="graph" transform="scale(1 1) rotate(0) translate(4 497.23)">
<title>lci::post_am_x</title>
<!-- Node1 -->
<g id="Node000001" class="node">
<title>Node1</title>
<g id="a_Node000001"><a xlink:title="The actual implementation for post_am.">
<polygon fill="#999999" stroke="#666666" points="690,-254.73 603,-254.73 603,-235.73 690,-235.73 690,-254.73"/>
<text text-anchor="middle" x="646.5" y="-242.73" font-family="Helvetica,sans-Serif" font-size="10.00">lci::post_am_x</text>
</a>
</g>
</g>
<!-- Node2 -->
<g id="Node000002" class="node">
<title>Node2</title>
<g id="a_Node000002"><a xlink:href="../../d1/da7/classlci_1_1comp__t.html" target="_top" xlink:title="The actual implementation for RESOURCE comp.">
<polygon fill="white" stroke="#666666" points="436.5,-489.73 366.5,-489.73 366.5,-470.73 436.5,-470.73 436.5,-489.73"/>
<text text-anchor="middle" x="401.5" y="-477.73" font-family="Helvetica,sans-Serif" font-size="10.00">lci::comp_t</text>
</a>
</g>
</g>
<!-- Node2&#45;&gt;Node1 -->
<g id="edge1_Node000001_Node000002" class="edge">
<title>Node2&#45;&gt;Node1</title>
<g id="a_edge1_Node000001_Node000002"><a xlink:title=" ">
<path fill="none" stroke="#9a32cd" stroke-dasharray="5,2" d="M446.85,-484.09C487.7,-485.12 547.49,-479.89 585,-446.23 643.32,-393.91 646.35,-287.7 645.83,-255.02"/>
<polygon fill="#9a32cd" stroke="#9a32cd" points="446.77,-480.58 436.64,-483.69 446.5,-487.57 446.77,-480.58"/>
</a>
</g>
<text text-anchor="middle" x="537" y="-485.23" font-family="Helvetica,sans-Serif" font-size="10.00" fill="grey"> m_local_comp</text>
</g>
<!-- Node3 -->
<g id="Node000003" class="node">
<title>Node3</title>
<g id="a_Node000003"><a xlink:href="../../d9/d97/classlci_1_1comp__impl__t.html" target="_top" xlink:title="Completion object implementation base type.">
<polygon fill="white" stroke="#666666" points="248,-489.73 151,-489.73 151,-470.73 248,-470.73 248,-489.73"/>
<text text-anchor="middle" x="199.5" y="-477.73" font-family="Helvetica,sans-Serif" font-size="10.00">lci::comp_impl_t</text>
</a>
</g>
</g>
<!-- Node3&#45;&gt;Node2 -->
<g id="edge2_Node000002_Node000003" class="edge">
<title>Node3&#45;&gt;Node2</title>
<g id="a_edge2_Node000002_Node000003"><a xlink:title=" ">
<path fill="none" stroke="#9a32cd" stroke-dasharray="5,2" d="M258.25,-480.23C293.27,-480.23 336.75,-480.23 366.36,-480.23"/>
<polygon fill="#9a32cd" stroke="#9a32cd" points="258.15,-476.73 248.15,-480.23 258.15,-483.73 258.15,-476.73"/>
</a>
</g>
<text text-anchor="middle" x="291" y="-483.23" font-family="Helvetica,sans-Serif" font-size="10.00" fill="grey"> p_impl</text>
</g>
<!-- Node4 -->
<g id="Node000004" class="node">
<title>Node4</title>
<g id="a_Node000004"><a xlink:href="../../dc/da6/structlci_1_1comp__attr__t.html" target="_top" xlink:title=" ">
<polygon fill="white" stroke="#666666" points="92,-489.73 0,-489.73 0,-470.73 92,-470.73 92,-489.73"/>
<text text-anchor="middle" x="46" y="-477.73" font-family="Helvetica,sans-Serif" font-size="10.00">lci::comp_attr_t</text>
</a>
</g>
</g>
<!-- Node4&#45;&gt;Node3 -->
<g id="edge3_Node000003_Node000004" class="edge">
<title>Node4&#45;&gt;Node3</title>
<g id="a_edge3_Node000003_Node000004"><a xlink:title=" ">
<path fill="none" stroke="#9a32cd" stroke-dasharray="5,2" d="M102.31,-480.23C118.28,-480.23 135.55,-480.23 151,-480.23"/>
<polygon fill="#9a32cd" stroke="#9a32cd" points="102.04,-476.73 92.04,-480.23 102.04,-483.73 102.04,-476.73"/>
</a>
</g>
<text text-anchor="middle" x="120.5" y="-483.23" font-family="Helvetica,sans-Serif" font-size="10.00" fill="grey"> attr</text>
</g>
<!-- Node5 -->
<g id="Node000005" class="node">
<title>Node5</title>
<g id="a_Node000005"><a xlink:href="../../db/d20/structlci_1_1option__t.html" target="_top" xlink:title=" ">
<polygon fill="white" stroke="#666666" points="449.5,-452.23 353.5,-452.23 353.5,-422.23 449.5,-422.23 449.5,-452.23"/>
<text text-anchor="start" x="361.5" y="-440.23" font-family="Helvetica,sans-Serif" font-size="10.00">lci::option_t&lt; lci</text>
<text text-anchor="middle" x="401.5" y="-429.23" font-family="Helvetica,sans-Serif" font-size="10.00">::runtime_t &gt;</text>
</a>
</g>
</g>
<!-- Node5&#45;&gt;Node1 -->
<g id="edge4_Node000001_Node000005" class="edge">
<title>Node5&#45;&gt;Node1</title>
<g id="a_edge4_Node000001_Node000005"><a xlink:title=" ">
<path fill="none" stroke="#9a32cd" stroke-dasharray="5,2" d="M459.78,-436.62C499.18,-433.31 550.43,-422.93 585,-393.23 628.8,-355.61 641.36,-281.42 644.54,-254.92"/>
<polygon fill="#9a32cd" stroke="#9a32cd" points="459.51,-433.13 449.78,-437.33 460,-440.11 459.51,-433.13"/>
</a>
</g>
<text text-anchor="middle" x="537" y="-434.23" font-family="Helvetica,sans-Serif" font-size="10.00" fill="grey"> m_runtime</text>
</g>
<!-- Node6 -->
<g id="Node000006" class="node">
<title>Node6</title>
<g id="a_Node000006"><a xlink:href="../../dc/d5c/classlci_1_1runtime__t.html" target="_top" xlink:title="The actual implementation for RESOURCE runtime.">
<polygon fill="white" stroke="#666666" points="240,-446.73 159,-446.73 159,-427.73 240,-427.73 240,-446.73"/>
<text text-anchor="middle" x="199.5" y="-434.73" font-family="Helvetica,sans-Serif" font-size="10.00">lci::runtime_t</text>
</a>
</g>
</g>
<!-- Node6&#45;&gt;Node5 -->
<g id="edge5_Node000005_Node000006" class="edge">
<title>Node6&#45;&gt;Node5</title>
<g id="a_edge5_Node000005_Node000006"><a xlink:title=" ">
<path fill="none" stroke="#9a32cd" stroke-dasharray="5,2" d="M250.33,-437.23C281.85,-437.23 322.34,-437.23 353.33,-437.23"/>
<polygon fill="#9a32cd" stroke="#9a32cd" points="250.01,-433.73 240.01,-437.23 250.01,-440.73 250.01,-433.73"/>
</a>
</g>
<text text-anchor="middle" x="291" y="-440.23" font-family="Helvetica,sans-Serif" font-size="10.00" fill="grey"> m_value</text>
</g>
<!-- Node7 -->
<g id="Node000007" class="node">
<title>Node7</title>
<g id="a_Node000007"><a xlink:href="../../db/d20/structlci_1_1option__t.html" target="_top" xlink:title=" ">
<polygon fill="white" stroke="#666666" points="452,-404.23 351,-404.23 351,-374.23 452,-374.23 452,-404.23"/>
<text text-anchor="start" x="359" y="-392.23" font-family="Helvetica,sans-Serif" font-size="10.00">lci::option_t&lt; lci</text>
<text text-anchor="middle" x="401.5" y="-381.23" font-family="Helvetica,sans-Serif" font-size="10.00">::packet_pool_t &gt;</text>
</a>
</g>
</g>
<!-- Node7&#45;&gt;Node1 -->
<g id="edge6_Node000001_Node000007" class="edge">
<title>Node7&#45;&gt;Node1</title>
<g id="a_edge6_Node000001_Node000007"><a xlink:title=" ">
<path fill="none" stroke="#9a32cd" stroke-dasharray="5,2" d="M461.97,-383.92C500.16,-378.02 549.14,-365.55 585,-339.23 615.51,-316.84 634.64,-274.02 642.03,-254.89"/>
<polygon fill="#9a32cd" stroke="#9a32cd" points="461.41,-380.47 452.01,-385.35 462.4,-387.4 461.41,-380.47"/>
</a>
</g>
<text text-anchor="middle" x="537" y="-381.23" font-family="Helvetica,sans-Serif" font-size="10.00" fill="grey"> m_packet_pool</text>
</g>
<!-- Node8 -->
<g id="Node000008" class="node">
<title>Node8</title>
<g id="a_Node000008"><a xlink:href="../../db/dec/classlci_1_1packet__pool__t.html" target="_top" xlink:title="The actual implementation for RESOURCE packet_pool.">
<polygon fill="white" stroke="#666666" points="250,-398.73 149,-398.73 149,-379.73 250,-379.73 250,-398.73"/>
<text text-anchor="middle" x="199.5" y="-386.73" font-family="Helvetica,sans-Serif" font-size="10.00">lci::packet_pool_t</text>
</a>
</g>
</g>
<!-- Node8&#45;&gt;Node7 -->
<g id="edge7_Node000007_Node000008" class="edge">
<title>Node8&#45;&gt;Node7</title>
<g id="a_edge7_Node000007_Node000008"><a xlink:title=" ">
<path fill="none" stroke="#9a32cd" stroke-dasharray="5,2" d="M260.54,-389.23C289.32,-389.23 323.39,-389.23 350.71,-389.23"/>
<polygon fill="#9a32cd" stroke="#9a32cd" points="260.2,-385.73 250.2,-389.23 260.2,-392.73 260.2,-385.73"/>
</a>
</g>
<text text-anchor="middle" x="291" y="-392.23" font-family="Helvetica,sans-Serif" font-size="10.00" fill="grey"> m_value</text>
</g>
<!-- Node9 -->
<g id="Node000009" class="node">
<title>Node9</title>
<g id="a_Node000009"><a xlink:href="../../db/d20/structlci_1_1option__t.html" target="_top" xlink:title=" ">
<polygon fill="white" stroke="#666666" points="449.5,-356.23 353.5,-356.23 353.5,-326.23 449.5,-326.23 449.5,-356.23"/>
<text text-anchor="start" x="361.5" y="-344.23" font-family="Helvetica,sans-Serif" font-size="10.00">lci::option_t&lt; lci</text>
<text text-anchor="middle" x="401.5" y="-333.23" font-family="Helvetica,sans-Serif" font-size="10.00">::device_t &gt;</text>
</a>
</g>
</g>
<!-- Node9&#45;&gt;Node1 -->
<g id="edge8_Node000001_Node000009" class="edge">
<title>Node9&#45;&gt;Node1</title>
<g id="a_edge8_Node000001_Node000009"><a xlink:title=" ">
<path fill="none" stroke="#9a32cd" stroke-dasharray="5,2" d="M459.91,-332.44C496.98,-325.26 545.5,-313 585,-293.23 605.14,-283.15 624.9,-265.63 636.11,-254.78"/>
<polygon fill="#9a32cd" stroke="#9a32cd" points="458.96,-329.05 449.77,-334.33 460.24,-335.93 458.96,-329.05"/>
</a>
</g>
<text text-anchor="middle" x="537" y="-327.23" font-family="Helvetica,sans-Serif" font-size="10.00" fill="grey"> m_device</text>
</g>
<!-- Node10 -->
<g id="Node000010" class="node">
<title>Node10</title>
<g id="a_Node000010"><a xlink:href="../../d6/d66/classlci_1_1device__t.html" target="_top" xlink:title="The actual implementation for RESOURCE device.">
<polygon fill="white" stroke="#666666" points="237,-350.73 162,-350.73 162,-331.73 237,-331.73 237,-350.73"/>
<text text-anchor="middle" x="199.5" y="-338.73" font-family="Helvetica,sans-Serif" font-size="10.00">lci::device_t</text>
</a>
</g>
</g>
<!-- Node10&#45;&gt;Node9 -->
<g id="edge9_Node000009_Node000010" class="edge">
<title>Node10&#45;&gt;Node9</title>
<g id="a_edge9_Node000009_Node000010"><a xlink:title=" ">
<path fill="none" stroke="#9a32cd" stroke-dasharray="5,2" d="M247.59,-341.23C279.52,-341.23 321.55,-341.23 353.46,-341.23"/>
<polygon fill="#9a32cd" stroke="#9a32cd" points="247.18,-337.73 237.18,-341.23 247.18,-344.73 247.18,-337.73"/>
</a>
</g>
<text text-anchor="middle" x="291" y="-344.23" font-family="Helvetica,sans-Serif" font-size="10.00" fill="grey"> m_value</text>
</g>
<!-- Node11 -->
<g id="Node000011" class="node">
<title>Node11</title>
<g id="a_Node000011"><a xlink:href="../../db/d20/structlci_1_1option__t.html" target="_top" xlink:title=" ">
<polygon fill="white" stroke="#666666" points="449.5,-308.23 353.5,-308.23 353.5,-278.23 449.5,-278.23 449.5,-308.23"/>
<text text-anchor="start" x="361.5" y="-296.23" font-family="Helvetica,sans-Serif" font-size="10.00">lci::option_t&lt; lci</text>
<text text-anchor="middle" x="401.5" y="-285.23" font-family="Helvetica,sans-Serif" font-size="10.00">::endpoint_t &gt;</text>
</a>
</g>
</g>
<!-- Node11&#45;&gt;Node1 -->
<g id="edge10_Node000001_Node000011" class="edge">
<title>Node11&#45;&gt;Node1</title>
<g id="a_edge10_Node000001_Node000011"><a xlink:title=" ">
<path fill="none" stroke="#9a32cd" stroke-dasharray="5,2" d="M459.41,-283.91C495.51,-277.76 543.13,-269.2 585,-260.23 592.72,-258.58 600.96,-256.65 608.79,-254.73"/>
<polygon fill="#9a32cd" stroke="#9a32cd" points="458.82,-280.46 449.55,-285.58 459.99,-287.36 458.82,-280.46"/>
</a>
</g>
<text text-anchor="middle" x="537" y="-281.23" font-family="Helvetica,sans-Serif" font-size="10.00" fill="grey"> m_endpoint</text>
</g>
<!-- Node12 -->
<g id="Node000012" class="node">
<title>Node12</title>
<g id="a_Node000012"><a xlink:href="../../de/d1b/classlci_1_1endpoint__t.html" target="_top" xlink:title="The actual implementation for RESOURCE endpoint.">
<polygon fill="white" stroke="#666666" points="242.5,-302.73 156.5,-302.73 156.5,-283.73 242.5,-283.73 242.5,-302.73"/>
<text text-anchor="middle" x="199.5" y="-290.73" font-family="Helvetica,sans-Serif" font-size="10.00">lci::endpoint_t</text>
</a>
</g>
</g>
<!-- Node12&#45;&gt;Node11 -->
<g id="edge11_Node000011_Node000012" class="edge">
<title>Node12&#45;&gt;Node11</title>
<g id="a_edge11_Node000011_Node000012"><a xlink:title=" ">
<path fill="none" stroke="#9a32cd" stroke-dasharray="5,2" d="M253.12,-293.23C284.18,-293.23 323.17,-293.23 353.25,-293.23"/>
<polygon fill="#9a32cd" stroke="#9a32cd" points="252.91,-289.73 242.91,-293.23 252.91,-296.73 252.91,-289.73"/>
</a>
</g>
<text text-anchor="middle" x="291" y="-296.23" font-family="Helvetica,sans-Serif" font-size="10.00" fill="grey"> m_value</text>
</g>
<!-- Node13 -->
<g id="Node000013" class="node">
<title>Node13</title>
<g id="a_Node000013"><a xlink:href="../../db/d20/structlci_1_1option__t.html" target="_top" xlink:title=" ">
<polygon fill="white" stroke="#666666" points="457.5,-260.23 345.5,-260.23 345.5,-230.23 457.5,-230.23 457.5,-260.23"/>
<text text-anchor="start" x="353.5" y="-248.23" font-family="Helvetica,sans-Serif" font-size="10.00">lci::option_t&lt; comp</text>
<text text-anchor="middle" x="401.5" y="-237.23" font-family="Helvetica,sans-Serif" font-size="10.00">_semantic_t &gt;</text>
</a>
</g>
</g>
<!-- Node13&#45;&gt;Node1 -->
<g id="edge12_Node000001_Node000013" class="edge">
<title>Node13&#45;&gt;Node1</title>
<g id="a_edge12_Node000001_Node000013"><a xlink:title=" ">
<path fill="none" stroke="#9a32cd" stroke-dasharray="5,2" d="M467.69,-245.23C510.51,-245.23 565.3,-245.23 602.67,-245.23"/>
<polygon fill="#9a32cd" stroke="#9a32cd" points="467.64,-241.73 457.64,-245.23 467.64,-248.73 467.64,-241.73"/>
</a>
</g>
<text text-anchor="middle" x="537" y="-248.23" font-family="Helvetica,sans-Serif" font-size="10.00" fill="grey"> m_comp_semantic</text>
</g>
<!-- Node14 -->
<g id="Node000014" class="node">
<title>Node14</title>
<g id="a_Node000014"><a xlink:href="../../db/d20/structlci_1_1option__t.html" target="_top" xlink:title=" ">
<polygon fill="white" stroke="#666666" points="449.5,-212.23 353.5,-212.23 353.5,-182.23 449.5,-182.23 449.5,-212.23"/>
<text text-anchor="start" x="361.5" y="-200.23" font-family="Helvetica,sans-Serif" font-size="10.00">lci::option_t&lt; lci</text>
<text text-anchor="middle" x="401.5" y="-189.23" font-family="Helvetica,sans-Serif" font-size="10.00">::mr_t &gt;</text>
</a>
</g>
</g>
<!-- Node14&#45;&gt;Node1 -->
<g id="edge13_Node000001_Node000014" class="edge">
<title>Node14&#45;&gt;Node1</title>
<g id="a_edge13_Node000001_Node000014"><a xlink:title=" ">
<path fill="none" stroke="#9a32cd" stroke-dasharray="5,2" d="M459.41,-206.56C495.51,-212.71 543.13,-221.27 585,-230.23 592.72,-231.89 600.96,-233.82 608.79,-235.73"/>
<polygon fill="#9a32cd" stroke="#9a32cd" points="459.99,-203.11 449.55,-204.89 458.82,-210.01 459.99,-203.11"/>
</a>
</g>
<text text-anchor="middle" x="537" y="-233.23" font-family="Helvetica,sans-Serif" font-size="10.00" fill="grey"> m_mr</text>
</g>
<!-- Node15 -->
<g id="Node000015" class="node">
<title>Node15</title>
<g id="a_Node000015"><a xlink:href="../../d7/d1a/classlci_1_1mr__t.html" target="_top" xlink:title="The actual implementation for RESOURCE mr.">
<polygon fill="white" stroke="#666666" points="227.5,-206.73 171.5,-206.73 171.5,-187.73 227.5,-187.73 227.5,-206.73"/>
<text text-anchor="middle" x="199.5" y="-194.73" font-family="Helvetica,sans-Serif" font-size="10.00">lci::mr_t</text>
</a>
</g>
</g>
<!-- Node15&#45;&gt;Node14 -->
<g id="edge14_Node000014_Node000015" class="edge">
<title>Node15&#45;&gt;Node14</title>
<g id="a_edge14_Node000014_Node000015"><a xlink:title=" ">
<path fill="none" stroke="#9a32cd" stroke-dasharray="5,2" d="M237.91,-197.23C270.49,-197.23 317.9,-197.23 353.12,-197.23"/>
<polygon fill="#9a32cd" stroke="#9a32cd" points="237.89,-193.73 227.89,-197.23 237.89,-200.73 237.89,-193.73"/>
</a>
</g>
<text text-anchor="middle" x="291" y="-200.23" font-family="Helvetica,sans-Serif" font-size="10.00" fill="grey"> m_value</text>
</g>
<!-- Node16 -->
<g id="Node000016" class="node">
<title>Node16</title>
<g id="a_Node000016"><a xlink:href="../../db/d20/structlci_1_1option__t.html" target="_top" xlink:title=" ">
<polygon fill="white" stroke="#666666" points="462,-163.73 341,-163.73 341,-144.73 462,-144.73 462,-163.73"/>
<text text-anchor="middle" x="401.5" y="-151.73" font-family="Helvetica,sans-Serif" font-size="10.00">lci::option_t&lt; tag_t &gt;</text>
</a>
</g>
</g>
<!-- Node16&#45;&gt;Node1 -->
<g id="edge15_Node000001_Node000016" class="edge">
<title>Node16&#45;&gt;Node1</title>
<g id="a_edge15_Node000001_Node000016"><a xlink:title=" ">
<path fill="none" stroke="#9a32cd" stroke-dasharray="5,2" d="M472.48,-162.71C507.54,-168.82 549.89,-179.12 585,-196.23 605.41,-206.18 625.09,-224.17 636.2,-235.37"/>
<polygon fill="#9a32cd" stroke="#9a32cd" points="472.76,-159.21 462.32,-161.02 471.61,-166.11 472.76,-159.21"/>
</a>
</g>
<text text-anchor="middle" x="537" y="-199.23" font-family="Helvetica,sans-Serif" font-size="10.00" fill="grey"> m_tag</text>
</g>
<!-- Node17 -->
<g id="Node000017" class="node">
<title>Node17</title>
<g id="a_Node000017"><a xlink:href="../../db/d20/structlci_1_1option__t.html" target="_top" xlink:title=" ">
<polygon fill="white" stroke="#666666" points="464,-126.73 339,-126.73 339,-107.73 464,-107.73 464,-126.73"/>
<text text-anchor="middle" x="401.5" y="-114.73" font-family="Helvetica,sans-Serif" font-size="10.00">lci::option_t&lt; void * &gt;</text>
</a>
</g>
</g>
<!-- Node17&#45;&gt;Node1 -->
<g id="edge16_Node000001_Node000017" class="edge">
<title>Node17&#45;&gt;Node1</title>
<g id="a_edge16_Node000001_Node000017"><a xlink:title=" ">
<path fill="none" stroke="#9a32cd" stroke-dasharray="5,2" d="M474.58,-117.52C510.37,-120.76 552.74,-129.56 585,-151.23 616.57,-172.45 635.26,-216.28 642.29,-235.66"/>
<polygon fill="#9a32cd" stroke="#9a32cd" points="474.43,-113.99 464.19,-116.71 473.89,-120.97 474.43,-113.99"/>
</a>
</g>
<text text-anchor="middle" x="537" y="-154.23" font-family="Helvetica,sans-Serif" font-size="10.00" fill="grey"> m_user_context</text>
</g>
<!-- Node18 -->
<g id="Node000018" class="node">
<title>Node18</title>
<g id="a_Node000018"><a xlink:href="../../db/d20/structlci_1_1option__t.html" target="_top" xlink:title=" ">
<polygon fill="white" stroke="#666666" points="471,-89.73 332,-89.73 332,-70.73 471,-70.73 471,-89.73"/>
<text text-anchor="middle" x="401.5" y="-77.73" font-family="Helvetica,sans-Serif" font-size="10.00">lci::option_t&lt; buffers_t &gt;</text>
</a>
</g>
</g>
<!-- Node18&#45;&gt;Node1 -->
<g id="edge17_Node000001_Node000018" class="edge">
<title>Node18&#45;&gt;Node1</title>
<g id="a_edge17_Node000001_Node000018"><a xlink:title=" ">
<path fill="none" stroke="#9a32cd" stroke-dasharray="5,2" d="M481.23,-73.87C516.12,-74.99 555.78,-82.11 585,-104.23 628.96,-137.52 641.38,-209.17 644.53,-235.37"/>
<polygon fill="#9a32cd" stroke="#9a32cd" points="481.11,-70.37 471.05,-73.71 481,-77.37 481.11,-70.37"/>
</a>
</g>
<text text-anchor="middle" x="537" y="-107.23" font-family="Helvetica,sans-Serif" font-size="10.00" fill="grey"> m_buffers</text>
</g>
<!-- Node19 -->
<g id="Node000019" class="node">
<title>Node19</title>
<g id="a_Node000019"><a xlink:href="../../db/d20/structlci_1_1option__t.html" target="_top" xlink:title=" ">
<polygon fill="white" stroke="#666666" points="460,-24.73 343,-24.73 343,-5.73 460,-5.73 460,-24.73"/>
<text text-anchor="middle" x="401.5" y="-12.73" font-family="Helvetica,sans-Serif" font-size="10.00">lci::option_t&lt; bool &gt;</text>
</a>
</g>
</g>
<!-- Node19&#45;&gt;Node1 -->
<g id="edge18_Node000001_Node000019" class="edge">
<title>Node19&#45;&gt;Node1</title>
<g id="a_edge18_Node000001_Node000019"><a xlink:title=" ">
<path fill="none" stroke="#9a32cd" stroke-dasharray="5,2" d="M450.84,-4.01C491.16,2.34 547.82,3.88 585,-26.23 618.87,-53.67 639.35,-196.94 644.32,-235.61"/>
<polygon fill="#9a32cd" stroke="#9a32cd" points="450.23,-0.56 440.97,-5.71 451.41,-7.46 450.23,-0.56"/>
</a>
</g>
<text text-anchor="middle" x="537" y="-62.23" font-family="Helvetica,sans-Serif" font-size="10.00" fill="grey"> m_allow_done</text>
<text text-anchor="middle" x="537" y="-51.23" font-family="Helvetica,sans-Serif" font-size="10.00" fill="grey">m_allow_posted</text>
<text text-anchor="middle" x="537" y="-40.23" font-family="Helvetica,sans-Serif" font-size="10.00" fill="grey">m_allow_retry</text>
<text text-anchor="middle" x="537" y="-29.23" font-family="Helvetica,sans-Serif" font-size="10.00" fill="grey">m_force_zcopy</text>
</g>
</g>
</svg>
