<?xml version="1.0" encoding="UTF-8" standalone="no"?>
<!DOCTYPE svg PUBLIC "-//W3C//DTD SVG 1.1//EN"
 "http://www.w3.org/Graphics/SVG/1.1/DTD/svg11.dtd">
<!-- Generated by graphviz version 2.43.0 (0)
 -->
<!-- Title: lci::post_am_x Pages: 1 -->
<svg width="684pt" height="447pt"
 viewBox="0.00 0.00 684.00 446.93" xmlns="http://www.w3.org/2000/svg" xmlns:xlink="http://www.w3.org/1999/xlink">
<g id="graph0" class="graph" transform="scale(1 1) rotate(0) translate(4 442.93)">
<title>lci::post_am_x</title>
<!-- Node1 -->
<g id="Node000001" class="node">
<title>Node1</title>
<g id="a_Node000001"><a xlink:title="The actual implementation for post_am.">
<polygon fill="#999999" stroke="#666666" points="676,-219.43 589,-219.43 589,-200.43 676,-200.43 676,-219.43"/>
<text text-anchor="middle" x="632.5" y="-207.43" font-family="Helvetica,sans-Serif" font-size="10.00">lci::post_am_x</text>
</a>
</g>
</g>
<!-- Node2 -->
<g id="Node000002" class="node">
<title>Node2</title>
<g id="a_Node000002"><a xlink:href="../../d1/da7/classlci_1_1comp__t.html" target="_top" xlink:title="The actual implementation for RESOURCE comp.">
<polygon fill="white" stroke="#666666" points="429.5,-437.43 359.5,-437.43 359.5,-418.43 429.5,-418.43 429.5,-437.43"/>
<text text-anchor="middle" x="394.5" y="-425.43" font-family="Helvetica,sans-Serif" font-size="10.00">lci::comp_t</text>
</a>
</g>
</g>
<!-- Node2&#45;&gt;Node1 -->
<g id="edge1_Node000001_Node000002" class="edge">
<title>Node2&#45;&gt;Node1</title>
<g id="a_edge1_Node000001_Node000002"><a xlink:title=" ">
<path fill="none" stroke="#9a32cd" stroke-dasharray="5,2" d="M439.65,-430.79C478.77,-430.87 535.11,-424.67 571,-392.93 624.39,-345.71 630.82,-250.38 631.47,-219.69"/>
<polygon fill="#9a32cd" stroke="#9a32cd" points="439.65,-427.29 429.6,-430.63 439.54,-434.28 439.65,-427.29"/>
</a>
</g>
<text text-anchor="middle" x="523" y="-430.93" font-family="Helvetica,sans-Serif" font-size="10.00" fill="grey"> m_local_comp</text>
</g>
<!-- Node3 -->
<g id="Node000003" class="node">
<title>Node3</title>
<g id="a_Node000003"><a xlink:href="../../d9/d97/classlci_1_1comp__impl__t.html" target="_top" xlink:title="Completion object implementation base type.">
<polygon fill="white" stroke="#666666" points="248,-437.43 151,-437.43 151,-418.43 248,-418.43 248,-437.43"/>
<text text-anchor="middle" x="199.5" y="-425.43" font-family="Helvetica,sans-Serif" font-size="10.00">lci::comp_impl_t</text>
</a>
</g>
</g>
<!-- Node3&#45;&gt;Node2 -->
<g id="edge2_Node000002_Node000003" class="edge">
<title>Node3&#45;&gt;Node2</title>
<g id="a_edge2_Node000002_Node000003"><a xlink:title=" ">
<path fill="none" stroke="#9a32cd" stroke-dasharray="5,2" d="M258.61,-427.93C291.5,-427.93 331.49,-427.93 359.36,-427.93"/>
<polygon fill="#9a32cd" stroke="#9a32cd" points="258.21,-424.43 248.21,-427.93 258.21,-431.43 258.21,-424.43"/>
</a>
</g>
<text text-anchor="middle" x="291" y="-430.93" font-family="Helvetica,sans-Serif" font-size="10.00" fill="grey"> p_impl</text>
</g>
<!-- Node4 -->
<g id="Node000004" class="node">
<title>Node4</title>
<g id="a_Node000004"><a xlink:href="../../dc/da6/structlci_1_1comp__attr__t.html" target="_top" xlink:title=" ">
<polygon fill="white" stroke="#666666" points="92,-437.43 0,-437.43 0,-418.43 92,-418.43 92,-437.43"/>
<text text-anchor="middle" x="46" y="-425.43" font-family="Helvetica,sans-Serif" font-size="10.00">lci::comp_attr_t</text>
</a>
</g>
</g>
<!-- Node4&#45;&gt;Node3 -->
<g id="edge3_Node000003_Node000004" class="edge">
<title>Node4&#45;&gt;Node3</title>
<g id="a_edge3_Node000003_Node000004"><a xlink:title=" ">
<path fill="none" stroke="#9a32cd" stroke-dasharray="5,2" d="M102.31,-427.93C118.28,-427.93 135.55,-427.93 151,-427.93"/>
<polygon fill="#9a32cd" stroke="#9a32cd" points="102.04,-424.43 92.04,-427.93 102.04,-431.43 102.04,-424.43"/>
</a>
</g>
<text text-anchor="middle" x="120.5" y="-430.93" font-family="Helvetica,sans-Serif" font-size="10.00" fill="grey"> attr</text>
</g>
<!-- Node5 -->
<g id="Node000005" class="node">
<title>Node5</title>
<g id="a_Node000005"><a xlink:href="../../db/d20/structlci_1_1option__t.html" target="_top" xlink:title=" ">
<polygon fill="white" stroke="#666666" points="442.5,-399.93 346.5,-399.93 346.5,-369.93 442.5,-369.93 442.5,-399.93"/>
<text text-anchor="start" x="354.5" y="-387.93" font-family="Helvetica,sans-Serif" font-size="10.00">lci::option_t&lt; lci</text>
<text text-anchor="middle" x="394.5" y="-376.93" font-family="Helvetica,sans-Serif" font-size="10.00">::runtime_t &gt;</text>
</a>
</g>
</g>
<!-- Node5&#45;&gt;Node1 -->
<g id="edge4_Node000001_Node000005" class="edge">
<title>Node5&#45;&gt;Node1</title>
<g id="a_edge4_Node000001_Node000005"><a xlink:title=" ">
<path fill="none" stroke="#9a32cd" stroke-dasharray="5,2" d="M452.81,-382.62C490.16,-378.36 537.93,-367.39 571,-339.93 610.26,-307.32 625.44,-243.58 629.93,-219.47"/>
<polygon fill="#9a32cd" stroke="#9a32cd" points="452.17,-379.16 442.57,-383.65 452.87,-386.13 452.17,-379.16"/>
</a>
</g>
<text text-anchor="middle" x="523" y="-380.93" font-family="Helvetica,sans-Serif" font-size="10.00" fill="grey"> m_runtime</text>
</g>
<!-- Node6 -->
<g id="Node000006" class="node">
<title>Node6</title>
<g id="a_Node000006"><a xlink:href="../../dc/d5c/classlci_1_1runtime__t.html" target="_top" xlink:title="The actual implementation for RESOURCE runtime.">
<polygon fill="white" stroke="#666666" points="240,-394.43 159,-394.43 159,-375.43 240,-375.43 240,-394.43"/>
<text text-anchor="middle" x="199.5" y="-382.43" font-family="Helvetica,sans-Serif" font-size="10.00">lci::runtime_t</text>
</a>
</g>
</g>
<!-- Node6&#45;&gt;Node5 -->
<g id="edge5_Node000005_Node000006" class="edge">
<title>Node6&#45;&gt;Node5</title>
<g id="a_edge5_Node000005_Node000006"><a xlink:title=" ">
<path fill="none" stroke="#9a32cd" stroke-dasharray="5,2" d="M250.13,-384.93C279.71,-384.93 317.04,-384.93 346.19,-384.93"/>
<polygon fill="#9a32cd" stroke="#9a32cd" points="250.02,-381.43 240.02,-384.93 250.02,-388.43 250.02,-381.43"/>
</a>
</g>
<text text-anchor="middle" x="291" y="-387.93" font-family="Helvetica,sans-Serif" font-size="10.00" fill="grey"> m_value</text>
</g>
<!-- Node7 -->
<g id="Node000007" class="node">
<title>Node7</title>
<g id="a_Node000007"><a xlink:href="../../db/d20/structlci_1_1option__t.html" target="_top" xlink:title=" ">
<polygon fill="white" stroke="#666666" points="442.5,-351.93 346.5,-351.93 346.5,-321.93 442.5,-321.93 442.5,-351.93"/>
<text text-anchor="start" x="354.5" y="-339.93" font-family="Helvetica,sans-Serif" font-size="10.00">lci::option_t&lt; lci</text>
<text text-anchor="middle" x="394.5" y="-328.93" font-family="Helvetica,sans-Serif" font-size="10.00">::device_t &gt;</text>
</a>
</g>
</g>
<!-- Node7&#45;&gt;Node1 -->
<g id="edge6_Node000001_Node000007" class="edge">
<title>Node7&#45;&gt;Node1</title>
<g id="a_edge6_Node000001_Node000007"><a xlink:title=" ">
<path fill="none" stroke="#9a32cd" stroke-dasharray="5,2" d="M452.81,-330.31C489.13,-323.96 535.72,-311.64 571,-287.93 597.88,-269.86 618.05,-235.96 626.76,-219.45"/>
<polygon fill="#9a32cd" stroke="#9a32cd" points="452.16,-326.87 442.86,-331.95 453.3,-333.78 452.16,-326.87"/>
</a>
</g>
<text text-anchor="middle" x="523" y="-327.93" font-family="Helvetica,sans-Serif" font-size="10.00" fill="grey"> m_device</text>
</g>
<!-- Node8 -->
<g id="Node000008" class="node">
<title>Node8</title>
<g id="a_Node000008"><a xlink:href="../../d6/d66/classlci_1_1device__t.html" target="_top" xlink:title="The actual implementation for RESOURCE device.">
<polygon fill="white" stroke="#666666" points="237,-346.43 162,-346.43 162,-327.43 237,-327.43 237,-346.43"/>
<text text-anchor="middle" x="199.5" y="-334.43" font-family="Helvetica,sans-Serif" font-size="10.00">lci::device_t</text>
</a>
</g>
</g>
<!-- Node8&#45;&gt;Node7 -->
<g id="edge7_Node000007_Node000008" class="edge">
<title>Node8&#45;&gt;Node7</title>
<g id="a_edge7_Node000007_Node000008"><a xlink:title=" ">
<path fill="none" stroke="#9a32cd" stroke-dasharray="5,2" d="M247.47,-336.93C277.47,-336.93 316.22,-336.93 346.27,-336.93"/>
<polygon fill="#9a32cd" stroke="#9a32cd" points="247.26,-333.43 237.26,-336.93 247.26,-340.43 247.26,-333.43"/>
</a>
</g>
<text text-anchor="middle" x="291" y="-339.93" font-family="Helvetica,sans-Serif" font-size="10.00" fill="grey"> m_value</text>
</g>
<!-- Node9 -->
<g id="Node000009" class="node">
<title>Node9</title>
<g id="a_Node000009"><a xlink:href="../../db/d20/structlci_1_1option__t.html" target="_top" xlink:title=" ">
<polygon fill="white" stroke="#666666" points="442.5,-303.93 346.5,-303.93 346.5,-273.93 442.5,-273.93 442.5,-303.93"/>
<text text-anchor="start" x="354.5" y="-291.93" font-family="Helvetica,sans-Serif" font-size="10.00">lci::option_t&lt; lci</text>
<text text-anchor="middle" x="394.5" y="-280.93" font-family="Helvetica,sans-Serif" font-size="10.00">::endpoint_t &gt;</text>
</a>
</g>
</g>
<!-- Node9&#45;&gt;Node1 -->
<g id="edge8_Node000001_Node000009" class="edge">
<title>Node9&#45;&gt;Node1</title>
<g id="a_edge8_Node000001_Node000009"><a xlink:title=" ">
<path fill="none" stroke="#9a32cd" stroke-dasharray="5,2" d="M452.84,-278.77C487.76,-271.56 532.85,-260.39 571,-244.93 587.87,-238.09 605.74,-227.25 617.65,-219.45"/>
<polygon fill="#9a32cd" stroke="#9a32cd" points="451.92,-275.38 442.81,-280.79 453.31,-282.25 451.92,-275.38"/>
</a>
</g>
<text text-anchor="middle" x="523" y="-275.93" font-family="Helvetica,sans-Serif" font-size="10.00" fill="grey"> m_endpoint</text>
</g>
<!-- Node10 -->
<g id="Node000010" class="node">
<title>Node10</title>
<g id="a_Node000010"><a xlink:href="../../de/d1b/classlci_1_1endpoint__t.html" target="_top" xlink:title="The actual implementation for RESOURCE endpoint.">
<polygon fill="white" stroke="#666666" points="242.5,-298.43 156.5,-298.43 156.5,-279.43 242.5,-279.43 242.5,-298.43"/>
<text text-anchor="middle" x="199.5" y="-286.43" font-family="Helvetica,sans-Serif" font-size="10.00">lci::endpoint_t</text>
</a>
</g>
</g>
<!-- Node10&#45;&gt;Node9 -->
<g id="edge9_Node000009_Node000010" class="edge">
<title>Node10&#45;&gt;Node9</title>
<g id="a_edge9_Node000009_Node000010"><a xlink:title=" ">
<path fill="none" stroke="#9a32cd" stroke-dasharray="5,2" d="M253.22,-288.93C282.27,-288.93 318.02,-288.93 346.16,-288.93"/>
<polygon fill="#9a32cd" stroke="#9a32cd" points="252.85,-285.43 242.85,-288.93 252.85,-292.43 252.85,-285.43"/>
</a>
</g>
<text text-anchor="middle" x="291" y="-291.93" font-family="Helvetica,sans-Serif" font-size="10.00" fill="grey"> m_value</text>
</g>
<!-- Node11 -->
<g id="Node000011" class="node">
<title>Node11</title>
<g id="a_Node000011"><a xlink:href="../../db/d20/structlci_1_1option__t.html" target="_top" xlink:title=" ">
<polygon fill="white" stroke="#666666" points="445,-255.93 344,-255.93 344,-225.93 445,-225.93 445,-255.93"/>
<text text-anchor="start" x="352" y="-243.93" font-family="Helvetica,sans-Serif" font-size="10.00">lci::option_t&lt; lci</text>
<text text-anchor="middle" x="394.5" y="-232.93" font-family="Helvetica,sans-Serif" font-size="10.00">::packet_pool_t &gt;</text>
</a>
</g>
</g>
<!-- Node11&#45;&gt;Node1 -->
<g id="edge10_Node000001_Node000011" class="edge">
<title>Node11&#45;&gt;Node1</title>
<g id="a_edge10_Node000001_Node000011"><a xlink:title=" ">
<path fill="none" stroke="#9a32cd" stroke-dasharray="5,2" d="M455.29,-233.08C496.99,-227.6 551.61,-220.42 588.92,-215.52"/>
<polygon fill="#9a32cd" stroke="#9a32cd" points="454.72,-229.62 445.26,-234.39 455.63,-236.56 454.72,-229.62"/>
</a>
</g>
<text text-anchor="middle" x="523" y="-232.93" font-family="Helvetica,sans-Serif" font-size="10.00" fill="grey"> m_packet_pool</text>
</g>
<!-- Node12 -->
<g id="Node000012" class="node">
<title>Node12</title>
<g id="a_Node000012"><a xlink:href="../../db/dec/classlci_1_1packet__pool__t.html" target="_top" xlink:title="The actual implementation for RESOURCE packet_pool.">
<polygon fill="white" stroke="#666666" points="250,-250.43 149,-250.43 149,-231.43 250,-231.43 250,-250.43"/>
<text text-anchor="middle" x="199.5" y="-238.43" font-family="Helvetica,sans-Serif" font-size="10.00">lci::packet_pool_t</text>
</a>
</g>
</g>
<!-- Node12&#45;&gt;Node11 -->
<g id="edge11_Node000011_Node000012" class="edge">
<title>Node12&#45;&gt;Node11</title>
<g id="a_edge11_Node000011_Node000012"><a xlink:title=" ">
<path fill="none" stroke="#9a32cd" stroke-dasharray="5,2" d="M260.26,-240.93C287.12,-240.93 318.44,-240.93 343.97,-240.93"/>
<polygon fill="#9a32cd" stroke="#9a32cd" points="260.2,-237.43 250.2,-240.93 260.2,-244.43 260.2,-237.43"/>
</a>
</g>
<text text-anchor="middle" x="291" y="-243.93" font-family="Helvetica,sans-Serif" font-size="10.00" fill="grey"> m_value</text>
</g>
<!-- Node13 -->
<g id="Node000013" class="node">
<title>Node13</title>
<g id="a_Node000013"><a xlink:href="../../db/d20/structlci_1_1option__t.html" target="_top" xlink:title=" ">
<polygon fill="white" stroke="#666666" points="450.5,-207.93 338.5,-207.93 338.5,-177.93 450.5,-177.93 450.5,-207.93"/>
<text text-anchor="start" x="346.5" y="-195.93" font-family="Helvetica,sans-Serif" font-size="10.00">lci::option_t&lt; comp</text>
<text text-anchor="middle" x="394.5" y="-184.93" font-family="Helvetica,sans-Serif" font-size="10.00">_semantic_t &gt;</text>
</a>
</g>
</g>
<!-- Node13&#45;&gt;Node1 -->
<g id="edge12_Node000001_Node000013" class="edge">
<title>Node13&#45;&gt;Node1</title>
<g id="a_edge12_Node000001_Node000013"><a xlink:title=" ">
<path fill="none" stroke="#9a32cd" stroke-dasharray="5,2" d="M460.56,-194.31C493.68,-195.42 534.55,-197.4 571,-200.93 576.81,-201.49 582.92,-202.23 588.93,-203.04"/>
<polygon fill="#9a32cd" stroke="#9a32cd" points="460.65,-190.81 450.54,-194 460.42,-197.81 460.65,-190.81"/>
</a>
</g>
<text text-anchor="middle" x="523" y="-203.93" font-family="Helvetica,sans-Serif" font-size="10.00" fill="grey"> m_comp_semantic</text>
</g>
<!-- Node14 -->
<g id="Node000014" class="node">
<title>Node14</title>
<g id="a_Node000014"><a xlink:href="../../db/d20/structlci_1_1option__t.html" target="_top" xlink:title=" ">
<polygon fill="white" stroke="#666666" points="442.5,-159.93 346.5,-159.93 346.5,-129.93 442.5,-129.93 442.5,-159.93"/>
<text text-anchor="start" x="354.5" y="-147.93" font-family="Helvetica,sans-Serif" font-size="10.00">lci::option_t&lt; lci</text>
<text text-anchor="middle" x="394.5" y="-136.93" font-family="Helvetica,sans-Serif" font-size="10.00">::mr_t &gt;</text>
</a>
</g>
</g>
<!-- Node14&#45;&gt;Node1 -->
<g id="edge13_Node000001_Node000014" class="edge">
<title>Node14&#45;&gt;Node1</title>
<g id="a_edge13_Node000001_Node000014"><a xlink:title=" ">
<path fill="none" stroke="#9a32cd" stroke-dasharray="5,2" d="M452.63,-151.84C487.47,-157.06 532.55,-165.66 571,-178.93 586.95,-184.44 603.96,-193.47 615.87,-200.36"/>
<polygon fill="#9a32cd" stroke="#9a32cd" points="453.02,-148.36 442.63,-150.38 452.02,-155.28 453.02,-148.36"/>
</a>
</g>
<text text-anchor="middle" x="523" y="-181.93" font-family="Helvetica,sans-Serif" font-size="10.00" fill="grey"> m_mr</text>
</g>
<!-- Node15 -->
<g id="Node000015" class="node">
<title>Node15</title>
<g id="a_Node000015"><a xlink:href="../../d7/d1a/classlci_1_1mr__t.html" target="_top" xlink:title="The actual implementation for RESOURCE mr.">
<polygon fill="white" stroke="#666666" points="227.5,-154.43 171.5,-154.43 171.5,-135.43 227.5,-135.43 227.5,-154.43"/>
<text text-anchor="middle" x="199.5" y="-142.43" font-family="Helvetica,sans-Serif" font-size="10.00">lci::mr_t</text>
</a>
</g>
</g>
<!-- Node15&#45;&gt;Node14 -->
<g id="edge14_Node000014_Node000015" class="edge">
<title>Node15&#45;&gt;Node14</title>
<g id="a_edge14_Node000014_Node000015"><a xlink:title=" ">
<path fill="none" stroke="#9a32cd" stroke-dasharray="5,2" d="M238.1,-144.93C269.02,-144.93 313.02,-144.93 346.31,-144.93"/>
<polygon fill="#9a32cd" stroke="#9a32cd" points="237.74,-141.43 227.74,-144.93 237.74,-148.43 237.74,-141.43"/>
</a>
</g>
<text text-anchor="middle" x="291" y="-147.93" font-family="Helvetica,sans-Serif" font-size="10.00" fill="grey"> m_value</text>
</g>
<!-- Node16 -->
<g id="Node000016" class="node">
<title>Node16</title>
<g id="a_Node000016"><a xlink:href="../../db/d20/structlci_1_1option__t.html" target="_top" xlink:title=" ">
<polygon fill="white" stroke="#666666" points="455,-111.43 334,-111.43 334,-92.43 455,-92.43 455,-111.43"/>
<text text-anchor="middle" x="394.5" y="-99.43" font-family="Helvetica,sans-Serif" font-size="10.00">lci::option_t&lt; tag_t &gt;</text>
</a>
</g>
</g>
<!-- Node16&#45;&gt;Node1 -->
<g id="edge15_Node000001_Node000016" class="edge">
<title>Node16&#45;&gt;Node1</title>
<g id="a_edge15_Node000001_Node000016"><a xlink:title=" ">
<path fill="none" stroke="#9a32cd" stroke-dasharray="5,2" d="M465.32,-106.7C499.12,-111.5 539.17,-121.04 571,-139.93 596.42,-155.02 616.55,-184.58 625.87,-200.01"/>
<polygon fill="#9a32cd" stroke="#9a32cd" points="465.42,-103.18 455.05,-105.35 464.51,-110.12 465.42,-103.18"/>
</a>
</g>
<text text-anchor="middle" x="523" y="-142.93" font-family="Helvetica,sans-Serif" font-size="10.00" fill="grey"> m_tag</text>
</g>
<!-- Node17 -->
<g id="Node000017" class="node">
<title>Node17</title>
<g id="a_Node000017"><a xlink:href="../../db/d20/structlci_1_1option__t.html" target="_top" xlink:title=" ">
<polygon fill="white" stroke="#666666" points="457,-74.43 332,-74.43 332,-55.43 457,-55.43 457,-74.43"/>
<text text-anchor="middle" x="394.5" y="-62.43" font-family="Helvetica,sans-Serif" font-size="10.00">lci::option_t&lt; void * &gt;</text>
</a>
</g>
</g>
<!-- Node17&#45;&gt;Node1 -->
<g id="edge16_Node000001_Node000017" class="edge">
<title>Node17&#45;&gt;Node1</title>
<g id="a_edge16_Node000001_Node000017"><a xlink:title=" ">
<path fill="none" stroke="#9a32cd" stroke-dasharray="5,2" d="M467.56,-62.48C501.72,-64.69 541.42,-72.5 571,-93.93 608.16,-120.85 624.34,-177.51 629.52,-200.22"/>
<polygon fill="#9a32cd" stroke="#9a32cd" points="467.31,-58.96 457.15,-61.96 466.96,-65.95 467.31,-58.96"/>
</a>
</g>
<text text-anchor="middle" x="523" y="-96.93" font-family="Helvetica,sans-Serif" font-size="10.00" fill="grey"> m_user_context</text>
</g>
<!-- Node18 -->
<g id="Node000018" class="node">
<title>Node18</title>
<g id="a_Node000018"><a xlink:href="../../db/d20/structlci_1_1option__t.html" target="_top" xlink:title=" ">
<polygon fill="white" stroke="#666666" points="453,-20.43 336,-20.43 336,-1.43 453,-1.43 453,-20.43"/>
<text text-anchor="middle" x="394.5" y="-8.43" font-family="Helvetica,sans-Serif" font-size="10.00">lci::option_t&lt; bool &gt;</text>
</a>
</g>
</g>
<!-- Node18&#45;&gt;Node1 -->
<g id="edge17_Node000001_Node000018" class="edge">
<title>Node18&#45;&gt;Node1</title>
<g id="a_edge17_Node000001_Node000018"><a xlink:title=" ">
<path fill="none" stroke="#9a32cd" stroke-dasharray="5,2" d="M460.28,-0.66C496.48,1.42 540.34,-2.58 571,-26.93 627.07,-71.47 631.68,-169.42 631.68,-200.37"/>
<polygon fill="#9a32cd" stroke="#9a32cd" points="460,2.83 450.29,-1.4 460.52,-4.15 460,2.83"/>
</a>
</g>
<text text-anchor="middle" x="523" y="-51.93" font-family="Helvetica,sans-Serif" font-size="10.00" fill="grey"> m_allow_done</text>
<text text-anchor="middle" x="523" y="-40.93" font-family="Helvetica,sans-Serif" font-size="10.00" fill="grey">m_allow_posted</text>
<text text-anchor="middle" x="523" y="-29.93" font-family="Helvetica,sans-Serif" font-size="10.00" fill="grey">m_allow_retry</text>
</g>
</g>
</svg>
