<?xml version="1.0" encoding="UTF-8" standalone="no"?>
<!DOCTYPE svg PUBLIC "-//W3C//DTD SVG 1.1//EN"
 "http://www.w3.org/Graphics/SVG/1.1/DTD/svg11.dtd">
<!-- Generated by graphviz version 2.43.0 (0)
 -->
<!-- Title: lci::alloc_endpoint Pages: 1 -->
<svg width="688pt" height="134pt"
 viewBox="0.00 0.00 688.00 134.00" xmlns="http://www.w3.org/2000/svg" xmlns:xlink="http://www.w3.org/1999/xlink">
<g id="graph0" class="graph" transform="scale(1 1) rotate(0) translate(4 130)">
<title>lci::alloc_endpoint</title>
<!-- Node1 -->
<g id="Node000001" class="node">
<title>Node1</title>
<g id="a_Node000001"><a xlink:title=" ">
<polygon fill="#999999" stroke="#666666" points="105,-69.5 0,-69.5 0,-50.5 105,-50.5 105,-69.5"/>
<text text-anchor="middle" x="52.5" y="-57.5" font-family="Helvetica,sans-Serif" font-size="10.00">lci::alloc_endpoint</text>
</a>
</g>
</g>
<!-- Node2 -->
<g id="Node000002" class="node">
<title>Node2</title>
<g id="a_Node000002"><a xlink:href="../../da/d10/classlci_1_1alloc__endpoint__x.html#a0ab70f81a6d219588d464bd26ec253fd" target="_top" xlink:title=" ">
<polygon fill="white" stroke="#666666" points="246,-75 141,-75 141,-45 246,-45 246,-75"/>
<text text-anchor="start" x="149" y="-63" font-family="Helvetica,sans-Serif" font-size="10.00">lci::alloc_endpoint</text>
<text text-anchor="middle" x="193.5" y="-52" font-family="Helvetica,sans-Serif" font-size="10.00">_x::call</text>
</a>
</g>
</g>
<!-- Node1&#45;&gt;Node2 -->
<g id="edge1_Node000001_Node000002" class="edge">
<title>Node1&#45;&gt;Node2</title>
<g id="a_edge1_Node000001_Node000002"><a xlink:title=" ">
<path fill="none" stroke="#63b8ff" d="M105.26,-60C113.49,-60 122.08,-60 130.51,-60"/>
<polygon fill="#63b8ff" stroke="#63b8ff" points="130.7,-63.5 140.7,-60 130.7,-56.5 130.7,-63.5"/>
</a>
</g>
</g>
<!-- Node3 -->
<g id="Node000003" class="node">
<title>Node3</title>
<g id="a_Node000003"><a xlink:href="../../da/d10/classlci_1_1alloc__endpoint__x.html#a0d89d34f5185655e8171abf20b6e038a" target="_top" xlink:title=" ">
<polygon fill="white" stroke="#666666" points="387,-97 282,-97 282,-67 387,-67 387,-97"/>
<text text-anchor="start" x="290" y="-85" font-family="Helvetica,sans-Serif" font-size="10.00">lci::alloc_endpoint</text>
<text text-anchor="middle" x="334.5" y="-74" font-family="Helvetica,sans-Serif" font-size="10.00">_x::call_impl</text>
</a>
</g>
</g>
<!-- Node2&#45;&gt;Node3 -->
<g id="edge2_Node000002_Node000003" class="edge">
<title>Node2&#45;&gt;Node3</title>
<g id="a_edge2_Node000002_Node000003"><a xlink:title=" ">
<path fill="none" stroke="#63b8ff" d="M246.26,-68.19C254.58,-69.51 263.27,-70.88 271.79,-72.23"/>
<polygon fill="#63b8ff" stroke="#63b8ff" points="271.27,-75.69 281.7,-73.8 272.37,-68.78 271.27,-75.69"/>
</a>
</g>
</g>
<!-- Node4 -->
<g id="Node000004" class="node">
<title>Node4</title>
<g id="a_Node000004"><a xlink:href="../../da/d10/classlci_1_1alloc__endpoint__x.html#ac4e164362bc0cbd656403523d0a9fefb" target="_top" xlink:title=" ">
<polygon fill="white" stroke="#666666" points="528,-126 423,-126 423,-96 528,-96 528,-126"/>
<text text-anchor="start" x="431" y="-114" font-family="Helvetica,sans-Serif" font-size="10.00">lci::alloc_endpoint</text>
<text text-anchor="middle" x="475.5" y="-103" font-family="Helvetica,sans-Serif" font-size="10.00">_x::device</text>
</a>
</g>
</g>
<!-- Node2&#45;&gt;Node4 -->
<g id="edge9_Node000002_Node000004" class="edge">
<title>Node2&#45;&gt;Node4</title>
<g id="a_edge9_Node000002_Node000004"><a xlink:title=" ">
<path fill="none" stroke="#63b8ff" d="M216.36,-75.13C233.39,-85.99 258.09,-99.77 282,-106 324.58,-117.1 374.26,-118.11 412.49,-116.47"/>
<polygon fill="#63b8ff" stroke="#63b8ff" points="413.14,-119.94 422.95,-115.94 412.79,-112.95 413.14,-119.94"/>
</a>
</g>
</g>
<!-- Node6 -->
<g id="Node000006" class="node">
<title>Node6</title>
<g id="a_Node000006"><a xlink:href="../../da/d10/classlci_1_1alloc__endpoint__x.html#a31c728e1118669821a5ae1ad220cdd8f" target="_top" xlink:title=" ">
<polygon fill="white" stroke="#666666" points="528,-78 423,-78 423,-48 528,-48 528,-78"/>
<text text-anchor="start" x="431" y="-66" font-family="Helvetica,sans-Serif" font-size="10.00">lci::alloc_endpoint</text>
<text text-anchor="middle" x="475.5" y="-55" font-family="Helvetica,sans-Serif" font-size="10.00">_x::runtime</text>
</a>
</g>
</g>
<!-- Node2&#45;&gt;Node6 -->
<g id="edge10_Node000002_Node000006" class="edge">
<title>Node2&#45;&gt;Node6</title>
<g id="a_edge10_Node000002_Node000006"><a xlink:title=" ">
<path fill="none" stroke="#63b8ff" d="M246.39,-58.37C285.14,-57.41 339.39,-56.64 387,-58 395.31,-58.24 404.05,-58.6 412.67,-59.03"/>
<polygon fill="#63b8ff" stroke="#63b8ff" points="412.53,-62.52 422.7,-59.55 412.9,-55.53 412.53,-62.52"/>
</a>
</g>
</g>
<!-- Node7 -->
<g id="Node000007" class="node">
<title>Node7</title>
<g id="a_Node000007"><a xlink:href="../../da/d10/classlci_1_1alloc__endpoint__x.html#aeae3ef5e7ba3d89bd13c4dd9847d552f" target="_top" xlink:title=" ">
<polygon fill="white" stroke="#666666" points="528,-30 423,-30 423,0 528,0 528,-30"/>
<text text-anchor="start" x="431" y="-18" font-family="Helvetica,sans-Serif" font-size="10.00">lci::alloc_endpoint</text>
<text text-anchor="middle" x="475.5" y="-7" font-family="Helvetica,sans-Serif" font-size="10.00">_x::user_context</text>
</a>
</g>
</g>
<!-- Node2&#45;&gt;Node7 -->
<g id="edge11_Node000002_Node000007" class="edge">
<title>Node2&#45;&gt;Node7</title>
<g id="a_edge11_Node000002_Node000007"><a xlink:title=" ">
<path fill="none" stroke="#63b8ff" d="M246.18,-51.69C293.19,-44.14 362.66,-32.97 412.61,-24.95"/>
<polygon fill="#63b8ff" stroke="#63b8ff" points="413.33,-28.38 422.65,-23.33 412.22,-21.47 413.33,-28.38"/>
</a>
</g>
</g>
<!-- Node3&#45;&gt;Node4 -->
<g id="edge3_Node000003_Node000004" class="edge">
<title>Node3&#45;&gt;Node4</title>
<g id="a_edge3_Node000003_Node000004"><a xlink:title=" ">
<path fill="none" stroke="#63b8ff" d="M387.26,-92.8C395.58,-94.53 404.27,-96.35 412.79,-98.13"/>
<polygon fill="#63b8ff" stroke="#63b8ff" points="412.19,-101.58 422.7,-100.19 413.62,-94.72 412.19,-101.58"/>
</a>
</g>
</g>
<!-- Node3&#45;&gt;Node6 -->
<g id="edge5_Node000003_Node000006" class="edge">
<title>Node3&#45;&gt;Node6</title>
<g id="a_edge5_Node000003_Node000006"><a xlink:title=" ">
<path fill="none" stroke="#63b8ff" d="M387.26,-74.93C395.49,-73.8 404.08,-72.63 412.51,-71.47"/>
<polygon fill="#63b8ff" stroke="#63b8ff" points="413.26,-74.9 422.7,-70.08 412.32,-67.97 413.26,-74.9"/>
</a>
</g>
</g>
<!-- Node3&#45;&gt;Node7 -->
<g id="edge7_Node000003_Node000007" class="edge">
<title>Node3&#45;&gt;Node7</title>
<g id="a_edge7_Node000003_Node000007"><a xlink:title=" ">
<path fill="none" stroke="#63b8ff" d="M365.8,-66.92C382.61,-58.6 403.92,-48.13 423,-39 426.17,-37.48 429.45,-35.93 432.75,-34.37"/>
<polygon fill="#63b8ff" stroke="#63b8ff" points="434.47,-37.43 442.03,-30.01 431.5,-31.09 434.47,-37.43"/>
</a>
</g>
</g>
<!-- Node5 -->
<g id="Node000005" class="node">
<title>Node5</title>
<g id="a_Node000005"><a xlink:href="../../da/d10/classlci_1_1alloc__endpoint__x.html#a531dc54f2430678a56e456287dc8d473" target="_top" xlink:title=" ">
<polygon fill="white" stroke="#666666" points="680,-78 564,-78 564,-48 680,-48 680,-78"/>
<text text-anchor="start" x="572" y="-66" font-family="Helvetica,sans-Serif" font-size="10.00">lci::alloc_endpoint</text>
<text text-anchor="middle" x="622" y="-55" font-family="Helvetica,sans-Serif" font-size="10.00">_x::alloc_endpoint_x</text>
</a>
</g>
</g>
<!-- Node4&#45;&gt;Node5 -->
<g id="edge4_Node000004_Node000005" class="edge">
<title>Node4&#45;&gt;Node5</title>
<g id="a_edge4_Node000004_Node000005"><a xlink:title=" ">
<path fill="none" stroke="#63b8ff" d="M521.82,-95.94C535.81,-91.3 551.37,-86.13 565.94,-81.29"/>
<polygon fill="#63b8ff" stroke="#63b8ff" points="567.45,-84.48 575.84,-78 565.24,-77.83 567.45,-84.48"/>
</a>
</g>
</g>
<!-- Node6&#45;&gt;Node5 -->
<g id="edge6_Node000006_Node000005" class="edge">
<title>Node6&#45;&gt;Node5</title>
<g id="a_edge6_Node000006_Node000005"><a xlink:title=" ">
<path fill="none" stroke="#63b8ff" d="M528.26,-63C536.44,-63 544.99,-63 553.46,-63"/>
<polygon fill="#63b8ff" stroke="#63b8ff" points="553.72,-66.5 563.72,-63 553.72,-59.5 553.72,-66.5"/>
</a>
</g>
</g>
<!-- Node7&#45;&gt;Node5 -->
<g id="edge8_Node000007_Node000005" class="edge">
<title>Node7&#45;&gt;Node5</title>
<g id="a_edge8_Node000007_Node000005"><a xlink:title=" ">
<path fill="none" stroke="#63b8ff" d="M521.82,-30.06C535.81,-34.7 551.37,-39.87 565.94,-44.71"/>
<polygon fill="#63b8ff" stroke="#63b8ff" points="565.24,-48.17 575.84,-48 567.45,-41.52 565.24,-48.17"/>
</a>
</g>
</g>
</g>
</svg>
