<?xml version="1.0" encoding="UTF-8" standalone="no"?>
<!DOCTYPE svg PUBLIC "-//W3C//DTD SVG 1.1//EN"
 "http://www.w3.org/Graphics/SVG/1.1/DTD/svg11.dtd">
<!-- Generated by graphviz version 2.43.0 (0)
 -->
<!-- Title: lci::post_send Pages: 1 -->
<svg width="779pt" height="702pt"
 viewBox="0.00 0.00 779.00 701.83" xmlns="http://www.w3.org/2000/svg" xmlns:xlink="http://www.w3.org/1999/xlink">
<g id="graph0" class="graph" transform="scale(1 1) rotate(0) translate(4 697.83)">
<title>lci::post_send</title>
<!-- Node1 -->
<g id="Node000001" class="node">
<title>Node1</title>
<g id="a_Node000001"><a xlink:title=" ">
<polygon fill="#999999" stroke="#666666" points="83,-350.83 0,-350.83 0,-331.83 83,-331.83 83,-350.83"/>
<text text-anchor="middle" x="41.5" y="-338.83" font-family="Helvetica,sans-Serif" font-size="10.00">lci::post_send</text>
</a>
</g>
</g>
<!-- Node2 -->
<g id="Node000002" class="node">
<title>Node2</title>
<g id="a_Node000002"><a xlink:href="../../d6/de4/classlci_1_1post__send__x.html#a0328930ab332396960520f2a6d34ca07" target="_top" xlink:title=" ">
<polygon fill="white" stroke="#666666" points="237,-350.83 119,-350.83 119,-331.83 237,-331.83 237,-350.83"/>
<text text-anchor="middle" x="178" y="-338.83" font-family="Helvetica,sans-Serif" font-size="10.00">lci::post_send_x::call</text>
</a>
</g>
</g>
<!-- Node1&#45;&gt;Node2 -->
<g id="edge1_Node000001_Node000002" class="edge">
<title>Node1&#45;&gt;Node2</title>
<g id="a_edge1_Node000001_Node000002"><a xlink:title=" ">
<path fill="none" stroke="#63b8ff" d="M83.22,-341.33C91.22,-341.33 99.82,-341.33 108.45,-341.33"/>
<polygon fill="#63b8ff" stroke="#63b8ff" points="108.56,-344.83 118.56,-341.33 108.56,-337.83 108.56,-344.83"/>
</a>
</g>
</g>
<!-- Node3 -->
<g id="Node000003" class="node">
<title>Node3</title>
<g id="a_Node000003"><a xlink:href="../../d6/de4/classlci_1_1post__send__x.html#a019816cfc58183503a89bdb7af53f8d0" target="_top" xlink:title=" ">
<polygon fill="white" stroke="#666666" points="611.5,-693.83 455.5,-693.83 455.5,-674.83 611.5,-674.83 611.5,-693.83"/>
<text text-anchor="middle" x="533.5" y="-681.83" font-family="Helvetica,sans-Serif" font-size="10.00">lci::post_send_x::allow_done</text>
</a>
</g>
</g>
<!-- Node2&#45;&gt;Node3 -->
<g id="edge2_Node000002_Node000003" class="edge">
<title>Node2&#45;&gt;Node3</title>
<g id="a_edge2_Node000002_Node000003"><a xlink:title=" ">
<path fill="none" stroke="#63b8ff" d="M179.27,-350.98C180.93,-390.08 192.47,-538.26 273,-614.33 319.06,-657.84 389.28,-674.89 445.06,-681.31"/>
<polygon fill="#63b8ff" stroke="#63b8ff" points="444.99,-684.82 455.3,-682.38 445.72,-677.86 444.99,-684.82"/>
</a>
</g>
</g>
<!-- Node5 -->
<g id="Node000005" class="node">
<title>Node5</title>
<g id="a_Node000005"><a xlink:href="../../d6/de4/classlci_1_1post__send__x.html#a9fa9a0346810e6539fe790ec2becbb6a" target="_top" xlink:title=" ">
<polygon fill="white" stroke="#666666" points="597,-656.33 470,-656.33 470,-626.33 597,-626.33 597,-656.33"/>
<text text-anchor="start" x="478" y="-644.33" font-family="Helvetica,sans-Serif" font-size="10.00">lci::post_send_x::allow</text>
<text text-anchor="middle" x="533.5" y="-633.33" font-family="Helvetica,sans-Serif" font-size="10.00">_posted</text>
</a>
</g>
</g>
<!-- Node2&#45;&gt;Node5 -->
<g id="edge4_Node000002_Node000005" class="edge">
<title>Node2&#45;&gt;Node5</title>
<g id="a_edge4_Node000002_Node000005"><a xlink:title=" ">
<path fill="none" stroke="#63b8ff" d="M179.96,-350.87C184,-385.84 202.82,-508.26 273,-570.33 324.57,-615.94 402.78,-632.57 459.86,-638.47"/>
<polygon fill="#63b8ff" stroke="#63b8ff" points="459.62,-641.96 469.91,-639.42 460.28,-634.99 459.62,-641.96"/>
</a>
</g>
</g>
<!-- Node6 -->
<g id="Node000006" class="node">
<title>Node6</title>
<g id="a_Node000006"><a xlink:href="../../d6/de4/classlci_1_1post__send__x.html#a6befe5ff6cfde91858f4581fae6eb006" target="_top" xlink:title=" ">
<polygon fill="white" stroke="#666666" points="597,-608.33 470,-608.33 470,-578.33 597,-578.33 597,-608.33"/>
<text text-anchor="start" x="478" y="-596.33" font-family="Helvetica,sans-Serif" font-size="10.00">lci::post_send_x::allow</text>
<text text-anchor="middle" x="533.5" y="-585.33" font-family="Helvetica,sans-Serif" font-size="10.00">_retry</text>
</a>
</g>
</g>
<!-- Node2&#45;&gt;Node6 -->
<g id="edge6_Node000002_Node000006" class="edge">
<title>Node2&#45;&gt;Node6</title>
<g id="a_edge6_Node000002_Node000006"><a xlink:title=" ">
<path fill="none" stroke="#63b8ff" d="M180.86,-350.86C187.4,-381.71 212.3,-479.73 273,-528.33 326.07,-570.83 403.3,-585.98 459.71,-591.16"/>
<polygon fill="#63b8ff" stroke="#63b8ff" points="459.73,-594.67 469.98,-592.02 460.31,-587.7 459.73,-594.67"/>
</a>
</g>
</g>
<!-- Node7 -->
<g id="Node000007" class="node">
<title>Node7</title>
<g id="a_Node000007"><a xlink:href="../../d6/de4/classlci_1_1post__send__x.html#a7c3cd022b4e5e396012732fc0bd52bbe" target="_top" xlink:title=" ">
<polygon fill="white" stroke="#666666" points="418,-369.83 273,-369.83 273,-350.83 418,-350.83 418,-369.83"/>
<text text-anchor="middle" x="345.5" y="-357.83" font-family="Helvetica,sans-Serif" font-size="10.00">lci::post_send_x::call_impl</text>
</a>
</g>
</g>
<!-- Node2&#45;&gt;Node7 -->
<g id="edge8_Node000002_Node000007" class="edge">
<title>Node2&#45;&gt;Node7</title>
<g id="a_edge8_Node000002_Node000007"><a xlink:title=" ">
<path fill="none" stroke="#63b8ff" d="M237.35,-348.03C245.58,-348.97 254.16,-349.96 262.72,-350.94"/>
<polygon fill="#63b8ff" stroke="#63b8ff" points="262.42,-354.43 272.75,-352.09 263.22,-347.48 262.42,-354.43"/>
</a>
</g>
</g>
<!-- Node8 -->
<g id="Node000008" class="node">
<title>Node8</title>
<g id="a_Node000008"><a xlink:href="../../d6/de4/classlci_1_1post__send__x.html#a981b3319667587e5c38a5b972e1f1475" target="_top" xlink:title=" ">
<polygon fill="white" stroke="#666666" points="597.5,-560.33 469.5,-560.33 469.5,-530.33 597.5,-530.33 597.5,-560.33"/>
<text text-anchor="start" x="477.5" y="-548.33" font-family="Helvetica,sans-Serif" font-size="10.00">lci::post_send_x::comp</text>
<text text-anchor="middle" x="533.5" y="-537.33" font-family="Helvetica,sans-Serif" font-size="10.00">_semantic</text>
</a>
</g>
</g>
<!-- Node2&#45;&gt;Node8 -->
<g id="edge40_Node000002_Node000008" class="edge">
<title>Node2&#45;&gt;Node8</title>
<g id="a_edge40_Node000002_Node000008"><a xlink:title=" ">
<path fill="none" stroke="#63b8ff" d="M182.04,-350.86C191.09,-377.6 220.55,-453.79 273,-490.33 327.78,-528.49 403.74,-541.07 459.32,-544.8"/>
<polygon fill="#63b8ff" stroke="#63b8ff" points="459.27,-548.31 469.46,-545.4 459.68,-541.32 459.27,-548.31"/>
</a>
</g>
</g>
<!-- Node9 -->
<g id="Node000009" class="node">
<title>Node9</title>
<g id="a_Node000009"><a xlink:href="../../d6/de4/classlci_1_1post__send__x.html#af83844d6f633050ce6fa86b54059d9ab" target="_top" xlink:title=" ">
<polygon fill="white" stroke="#666666" points="600,-511.83 467,-511.83 467,-492.83 600,-492.83 600,-511.83"/>
<text text-anchor="middle" x="533.5" y="-499.83" font-family="Helvetica,sans-Serif" font-size="10.00">lci::post_send_x::device</text>
</a>
</g>
</g>
<!-- Node2&#45;&gt;Node9 -->
<g id="edge41_Node000002_Node000009" class="edge">
<title>Node2&#45;&gt;Node9</title>
<g id="a_edge41_Node000002_Node000009"><a xlink:title=" ">
<path fill="none" stroke="#63b8ff" d="M183.82,-350.91C195.61,-373.3 228.3,-429.13 273,-455.33 328.85,-488.07 402.16,-498.98 456.61,-502.19"/>
<polygon fill="#63b8ff" stroke="#63b8ff" points="456.73,-505.7 466.9,-502.72 457.09,-498.71 456.73,-505.7"/>
</a>
</g>
</g>
<!-- Node10 -->
<g id="Node000010" class="node">
<title>Node10</title>
<g id="a_Node000010"><a xlink:href="../../d6/de4/classlci_1_1post__send__x.html#a1725404618abbfc3bcf3007ff17aea58" target="_top" xlink:title=" ">
<polygon fill="white" stroke="#666666" points="605,-474.83 462,-474.83 462,-455.83 605,-455.83 605,-474.83"/>
<text text-anchor="middle" x="533.5" y="-462.83" font-family="Helvetica,sans-Serif" font-size="10.00">lci::post_send_x::endpoint</text>
</a>
</g>
</g>
<!-- Node2&#45;&gt;Node10 -->
<g id="edge42_Node000002_Node000010" class="edge">
<title>Node2&#45;&gt;Node10</title>
<g id="a_edge42_Node000002_Node000010"><a xlink:title=" ">
<path fill="none" stroke="#63b8ff" d="M186.86,-351.11C201.66,-368.76 235.56,-405.75 273,-423.33 329.18,-449.7 398.9,-459.91 451.92,-463.68"/>
<polygon fill="#63b8ff" stroke="#63b8ff" points="451.75,-467.18 461.95,-464.33 452.2,-460.19 451.75,-467.18"/>
</a>
</g>
</g>
<!-- Node11 -->
<g id="Node000011" class="node">
<title>Node11</title>
<g id="a_Node000011"><a xlink:href="../../d6/de4/classlci_1_1post__send__x.html#a3e8715f3060364c226ef73de62f25e3f" target="_top" xlink:title=" ">
<polygon fill="white" stroke="#666666" points="595.5,-437.33 471.5,-437.33 471.5,-407.33 595.5,-407.33 595.5,-437.33"/>
<text text-anchor="start" x="479.5" y="-425.33" font-family="Helvetica,sans-Serif" font-size="10.00">lci::post_send_x::local</text>
<text text-anchor="middle" x="533.5" y="-414.33" font-family="Helvetica,sans-Serif" font-size="10.00">_buffer</text>
</a>
</g>
</g>
<!-- Node2&#45;&gt;Node11 -->
<g id="edge43_Node000002_Node000011" class="edge">
<title>Node2&#45;&gt;Node11</title>
<g id="a_edge43_Node000002_Node000011"><a xlink:title=" ">
<path fill="none" stroke="#63b8ff" d="M191.2,-351.05C208.34,-364.1 241.05,-386.86 273,-397.33 334.52,-417.49 408.3,-422.93 461.44,-423.8"/>
<polygon fill="#63b8ff" stroke="#63b8ff" points="461.41,-427.3 471.45,-423.91 461.49,-420.3 461.41,-427.3"/>
</a>
</g>
</g>
<!-- Node12 -->
<g id="Node000012" class="node">
<title>Node12</title>
<g id="a_Node000012"><a xlink:href="../../d6/de4/classlci_1_1post__send__x.html#a0199101f52023dc7c9573175c621e82e" target="_top" xlink:title=" ">
<polygon fill="white" stroke="#666666" points="611.5,-388.83 455.5,-388.83 455.5,-369.83 611.5,-369.83 611.5,-388.83"/>
<text text-anchor="middle" x="533.5" y="-376.83" font-family="Helvetica,sans-Serif" font-size="10.00">lci::post_send_x::local_comp</text>
</a>
</g>
</g>
<!-- Node2&#45;&gt;Node12 -->
<g id="edge44_Node000002_Node000012" class="edge">
<title>Node2&#45;&gt;Node12</title>
<g id="a_edge44_Node000002_Node000012"><a xlink:title=" ">
<path fill="none" stroke="#63b8ff" d="M196.73,-350.91C215.17,-360.29 245.18,-373.92 273,-379.33 329.58,-390.34 394.42,-390.34 445.13,-387.59"/>
<polygon fill="#63b8ff" stroke="#63b8ff" points="445.62,-391.07 455.4,-386.99 445.21,-384.08 445.62,-391.07"/>
</a>
</g>
</g>
<!-- Node13 -->
<g id="Node000013" class="node">
<title>Node13</title>
<g id="a_Node000013"><a xlink:href="../../d6/de4/classlci_1_1post__send__x.html#a7b8658ea0241beb8090cd0a2b2296ca6" target="_top" xlink:title=" ">
<polygon fill="white" stroke="#666666" points="606.5,-351.33 460.5,-351.33 460.5,-321.33 606.5,-321.33 606.5,-351.33"/>
<text text-anchor="start" x="468.5" y="-339.33" font-family="Helvetica,sans-Serif" font-size="10.00">lci::post_send_x::matching</text>
<text text-anchor="middle" x="533.5" y="-328.33" font-family="Helvetica,sans-Serif" font-size="10.00">_engine</text>
</a>
</g>
</g>
<!-- Node2&#45;&gt;Node13 -->
<g id="edge45_Node000002_Node000013" class="edge">
<title>Node2&#45;&gt;Node13</title>
<g id="a_edge45_Node000002_Node000013"><a xlink:title=" ">
<path fill="none" stroke="#63b8ff" d="M237.37,-340.51C295.36,-339.69 384.8,-338.42 450.02,-337.5"/>
<polygon fill="#63b8ff" stroke="#63b8ff" points="450.33,-340.99 460.27,-337.35 450.23,-334 450.33,-340.99"/>
</a>
</g>
</g>
<!-- Node14 -->
<g id="Node000014" class="node">
<title>Node14</title>
<g id="a_Node000014"><a xlink:href="../../d6/de4/classlci_1_1post__send__x.html#ac8971b8e65a93350aaee529612687cdb" target="_top" xlink:title=" ">
<polygon fill="white" stroke="#666666" points="606.5,-303.33 460.5,-303.33 460.5,-273.33 606.5,-273.33 606.5,-303.33"/>
<text text-anchor="start" x="468.5" y="-291.33" font-family="Helvetica,sans-Serif" font-size="10.00">lci::post_send_x::matching</text>
<text text-anchor="middle" x="533.5" y="-280.33" font-family="Helvetica,sans-Serif" font-size="10.00">_policy</text>
</a>
</g>
</g>
<!-- Node2&#45;&gt;Node14 -->
<g id="edge46_Node000002_Node000014" class="edge">
<title>Node2&#45;&gt;Node14</title>
<g id="a_edge46_Node000002_Node000014"><a xlink:title=" ">
<path fill="none" stroke="#63b8ff" d="M237.37,-332.58C295.36,-323.89 384.8,-310.48 450.02,-300.7"/>
<polygon fill="#63b8ff" stroke="#63b8ff" points="450.9,-304.1 460.27,-299.16 449.87,-297.18 450.9,-304.1"/>
</a>
</g>
</g>
<!-- Node15 -->
<g id="Node000015" class="node">
<title>Node15</title>
<g id="a_Node000015"><a xlink:href="../../d6/de4/classlci_1_1post__send__x.html#a2e62e9494b0b5583444ef84fa583af67" target="_top" xlink:title=" ">
<polygon fill="white" stroke="#666666" points="590.5,-254.83 476.5,-254.83 476.5,-235.83 590.5,-235.83 590.5,-254.83"/>
<text text-anchor="middle" x="533.5" y="-242.83" font-family="Helvetica,sans-Serif" font-size="10.00">lci::post_send_x::mr</text>
</a>
</g>
</g>
<!-- Node2&#45;&gt;Node15 -->
<g id="edge47_Node000002_Node000015" class="edge">
<title>Node2&#45;&gt;Node15</title>
<g id="a_edge47_Node000002_Node000015"><a xlink:title=" ">
<path fill="none" stroke="#63b8ff" d="M199.15,-331.75C217.93,-323.11 246.88,-310.55 273,-302.33 337.59,-282.02 413.43,-266.26 466.38,-256.51"/>
<polygon fill="#63b8ff" stroke="#63b8ff" points="467.11,-259.93 476.32,-254.7 465.86,-253.05 467.11,-259.93"/>
</a>
</g>
</g>
<!-- Node16 -->
<g id="Node000016" class="node">
<title>Node16</title>
<g id="a_Node000016"><a xlink:href="../../d6/de4/classlci_1_1post__send__x.html#af151218ec4a44e6b623a192494ac2061" target="_top" xlink:title=" ">
<polygon fill="white" stroke="#666666" points="613,-217.83 454,-217.83 454,-198.83 613,-198.83 613,-217.83"/>
<text text-anchor="middle" x="533.5" y="-205.83" font-family="Helvetica,sans-Serif" font-size="10.00">lci::post_send_x::packet_pool</text>
</a>
</g>
</g>
<!-- Node2&#45;&gt;Node16 -->
<g id="edge48_Node000002_Node000016" class="edge">
<title>Node2&#45;&gt;Node16</title>
<g id="a_edge48_Node000002_Node000016"><a xlink:title=" ">
<path fill="none" stroke="#63b8ff" d="M187.26,-331.81C202.43,-314.97 236.57,-280.02 273,-262.33 326.36,-236.42 391.78,-222.91 443.58,-215.89"/>
<polygon fill="#63b8ff" stroke="#63b8ff" points="444.29,-219.32 453.76,-214.57 443.39,-212.38 444.29,-219.32"/>
</a>
</g>
</g>
<!-- Node17 -->
<g id="Node000017" class="node">
<title>Node17</title>
<g id="a_Node000017"><a xlink:href="../../d6/de4/classlci_1_1post__send__x.html#a5bb620bb23efa9ecd9bb5ccc414d0faa" target="_top" xlink:title=" ">
<polygon fill="white" stroke="#666666" points="594.5,-180.83 472.5,-180.83 472.5,-161.83 594.5,-161.83 594.5,-180.83"/>
<text text-anchor="middle" x="533.5" y="-168.83" font-family="Helvetica,sans-Serif" font-size="10.00">lci::post_send_x::rank</text>
</a>
</g>
</g>
<!-- Node2&#45;&gt;Node17 -->
<g id="edge49_Node000002_Node000017" class="edge">
<title>Node2&#45;&gt;Node17</title>
<g id="a_edge49_Node000002_Node000017"><a xlink:title=" ">
<path fill="none" stroke="#63b8ff" d="M183.02,-331.8C193.71,-307.76 225.27,-244.52 273,-215.33 330.25,-180.32 407.21,-171 462.43,-169.41"/>
<polygon fill="#63b8ff" stroke="#63b8ff" points="462.56,-172.91 472.48,-169.2 462.41,-165.91 462.56,-172.91"/>
</a>
</g>
</g>
<!-- Node18 -->
<g id="Node000018" class="node">
<title>Node18</title>
<g id="a_Node000018"><a xlink:href="../../d6/de4/classlci_1_1post__send__x.html#a62b983582fc79337c41ce970921d8234" target="_top" xlink:title=" ">
<polygon fill="white" stroke="#666666" points="603,-143.83 464,-143.83 464,-124.83 603,-124.83 603,-143.83"/>
<text text-anchor="middle" x="533.5" y="-131.83" font-family="Helvetica,sans-Serif" font-size="10.00">lci::post_send_x::runtime</text>
</a>
</g>
</g>
<!-- Node2&#45;&gt;Node18 -->
<g id="edge50_Node000002_Node000018" class="edge">
<title>Node2&#45;&gt;Node18</title>
<g id="a_edge50_Node000002_Node000018"><a xlink:title=" ">
<path fill="none" stroke="#63b8ff" d="M180.99,-331.82C187.76,-301.94 212.98,-209.54 273,-168.33 325.63,-132.2 398.66,-125.48 453.84,-126.78"/>
<polygon fill="#63b8ff" stroke="#63b8ff" points="453.82,-130.28 463.93,-127.11 454.05,-123.29 453.82,-130.28"/>
</a>
</g>
</g>
<!-- Node19 -->
<g id="Node000019" class="node">
<title>Node19</title>
<g id="a_Node000019"><a xlink:href="../../d6/de4/classlci_1_1post__send__x.html#a442c9810cbc06c288134a7b38b5796a5" target="_top" xlink:title=" ">
<polygon fill="white" stroke="#666666" points="593.5,-106.83 473.5,-106.83 473.5,-87.83 593.5,-87.83 593.5,-106.83"/>
<text text-anchor="middle" x="533.5" y="-94.83" font-family="Helvetica,sans-Serif" font-size="10.00">lci::post_send_x::size</text>
</a>
</g>
</g>
<!-- Node2&#45;&gt;Node19 -->
<g id="edge51_Node000002_Node000019" class="edge">
<title>Node2&#45;&gt;Node19</title>
<g id="a_edge51_Node000002_Node000019"><a xlink:title=" ">
<path fill="none" stroke="#63b8ff" d="M179.85,-331.37C183.47,-296.06 200.83,-176.15 273,-123.33 328.9,-82.43 410.65,-81.12 467.4,-86.7"/>
<polygon fill="#63b8ff" stroke="#63b8ff" points="467.38,-90.22 477.7,-87.81 468.13,-83.26 467.38,-90.22"/>
</a>
</g>
</g>
<!-- Node20 -->
<g id="Node000020" class="node">
<title>Node20</title>
<g id="a_Node000020"><a xlink:href="../../d6/de4/classlci_1_1post__send__x.html#ac787ac7cd8c9ce0a02f2e4e69715c708" target="_top" xlink:title=" ">
<polygon fill="white" stroke="#666666" points="591.5,-69.83 475.5,-69.83 475.5,-50.83 591.5,-50.83 591.5,-69.83"/>
<text text-anchor="middle" x="533.5" y="-57.83" font-family="Helvetica,sans-Serif" font-size="10.00">lci::post_send_x::tag</text>
</a>
</g>
</g>
<!-- Node2&#45;&gt;Node20 -->
<g id="edge52_Node000002_Node000020" class="edge">
<title>Node2&#45;&gt;Node20</title>
<g id="a_edge52_Node000002_Node000020"><a xlink:title=" ">
<path fill="none" stroke="#63b8ff" d="M179.04,-331.65C179.79,-292.48 188.33,-144.83 273,-80.33 332.51,-35 423.58,-39.94 480.5,-49.08"/>
<polygon fill="#63b8ff" stroke="#63b8ff" points="479.93,-52.53 490.37,-50.77 481.1,-45.63 479.93,-52.53"/>
</a>
</g>
</g>
<!-- Node21 -->
<g id="Node000021" class="node">
<title>Node21</title>
<g id="a_Node000021"><a xlink:href="../../d6/de4/classlci_1_1post__send__x.html#aaf2656ce27f04830a7df38e7ca71f701" target="_top" xlink:title=" ">
<polygon fill="white" stroke="#666666" points="594.5,-32.33 472.5,-32.33 472.5,-2.33 594.5,-2.33 594.5,-32.33"/>
<text text-anchor="start" x="480.5" y="-20.33" font-family="Helvetica,sans-Serif" font-size="10.00">lci::post_send_x::user</text>
<text text-anchor="middle" x="533.5" y="-9.33" font-family="Helvetica,sans-Serif" font-size="10.00">_context</text>
</a>
</g>
</g>
<!-- Node2&#45;&gt;Node21 -->
<g id="edge53_Node000002_Node000021" class="edge">
<title>Node2&#45;&gt;Node21</title>
<g id="a_edge53_Node000002_Node000021"><a xlink:title=" ">
<path fill="none" stroke="#63b8ff" d="M178.53,-331.68C177.06,-289.04 177.32,-116.2 273,-39.33 325.62,2.94 405.12,3.39 462.25,-3.58"/>
<polygon fill="#63b8ff" stroke="#63b8ff" points="461.91,-7.06 472.29,-4.9 462.83,-0.12 461.91,-7.06"/>
</a>
</g>
</g>
<!-- Node4 -->
<g id="Node000004" class="node">
<title>Node4</title>
<g id="a_Node000004"><a xlink:href="../../d6/de4/classlci_1_1post__send__x.html#a4cbc2854edcef90b2464f247d68225b5" target="_top" xlink:title=" ">
<polygon fill="white" stroke="#666666" points="771,-351.33 649,-351.33 649,-321.33 771,-321.33 771,-351.33"/>
<text text-anchor="start" x="657" y="-339.33" font-family="Helvetica,sans-Serif" font-size="10.00">lci::post_send_x::post</text>
<text text-anchor="middle" x="710" y="-328.33" font-family="Helvetica,sans-Serif" font-size="10.00">_send_x</text>
</a>
</g>
</g>
<!-- Node3&#45;&gt;Node4 -->
<g id="edge3_Node000003_Node000004" class="edge">
<title>Node3&#45;&gt;Node4</title>
<g id="a_edge3_Node000003_Node000004"><a xlink:title=" ">
<path fill="none" stroke="#63b8ff" d="M599.56,-674.66C604.47,-672.17 609.04,-669.11 613,-665.33 700.52,-581.79 709.57,-423.39 709.59,-361.76"/>
<polygon fill="#63b8ff" stroke="#63b8ff" points="713.09,-361.39 709.51,-351.42 706.09,-361.45 713.09,-361.39"/>
</a>
</g>
</g>
<!-- Node5&#45;&gt;Node4 -->
<g id="edge5_Node000005_Node000004" class="edge">
<title>Node5&#45;&gt;Node4</title>
<g id="a_edge5_Node000005_Node000004"><a xlink:title=" ">
<path fill="none" stroke="#63b8ff" d="M597.19,-628.39C602.98,-625.43 608.39,-621.79 613,-617.33 686.47,-546.22 703.72,-416.63 707.76,-361.86"/>
<polygon fill="#63b8ff" stroke="#63b8ff" points="711.27,-361.85 708.43,-351.64 704.29,-361.4 711.27,-361.85"/>
</a>
</g>
</g>
<!-- Node6&#45;&gt;Node4 -->
<g id="edge7_Node000006_Node000004" class="edge">
<title>Node6&#45;&gt;Node4</title>
<g id="a_edge7_Node000006_Node000004"><a xlink:title=" ">
<path fill="none" stroke="#63b8ff" d="M597.3,-579.9C603,-577.03 608.36,-573.55 613,-569.33 675.44,-512.51 698.29,-408.96 705.76,-361.42"/>
<polygon fill="#63b8ff" stroke="#63b8ff" points="709.25,-361.78 707.24,-351.37 702.32,-360.76 709.25,-361.78"/>
</a>
</g>
</g>
<!-- Node7&#45;&gt;Node3 -->
<g id="edge9_Node000007_Node000003" class="edge">
<title>Node7&#45;&gt;Node3</title>
<g id="a_edge9_Node000007_Node000003"><a xlink:title=" ">
<path fill="none" stroke="#63b8ff" d="M346.77,-370.05C348.48,-412.26 361.1,-581.4 454,-665.33 455.73,-666.9 457.57,-668.34 459.5,-669.67"/>
<polygon fill="#63b8ff" stroke="#63b8ff" points="458.01,-672.85 468.42,-674.79 461.49,-666.78 458.01,-672.85"/>
</a>
</g>
</g>
<!-- Node7&#45;&gt;Node5 -->
<g id="edge10_Node000007_Node000005" class="edge">
<title>Node7&#45;&gt;Node5</title>
<g id="a_edge10_Node000007_Node000005"><a xlink:title=" ">
<path fill="none" stroke="#63b8ff" d="M347.6,-369.91C352.42,-407.45 375.12,-545.93 454,-617.33 456.18,-619.3 458.52,-621.11 460.97,-622.78"/>
<polygon fill="#63b8ff" stroke="#63b8ff" points="459.32,-625.86 469.72,-627.87 462.84,-619.82 459.32,-625.86"/>
</a>
</g>
</g>
<!-- Node7&#45;&gt;Node6 -->
<g id="edge11_Node000007_Node000006" class="edge">
<title>Node7&#45;&gt;Node6</title>
<g id="a_edge11_Node000007_Node000006"><a xlink:title=" ">
<path fill="none" stroke="#63b8ff" d="M348.6,-369.9C356.34,-402.88 386.38,-512.81 454,-569.33 456.06,-571.05 458.24,-572.65 460.51,-574.13"/>
<polygon fill="#63b8ff" stroke="#63b8ff" points="459.24,-577.43 469.67,-579.3 462.68,-571.33 459.24,-577.43"/>
</a>
</g>
</g>
<!-- Node7&#45;&gt;Node8 -->
<g id="edge12_Node000007_Node000008" class="edge">
<title>Node7&#45;&gt;Node8</title>
<g id="a_edge12_Node000007_Node000008"><a xlink:title=" ">
<path fill="none" stroke="#63b8ff" d="M350.18,-369.98C361.31,-397.86 397.36,-479.22 454,-521.33 456.05,-522.86 458.2,-524.29 460.42,-525.63"/>
<polygon fill="#63b8ff" stroke="#63b8ff" points="458.85,-528.75 469.32,-530.36 462.13,-522.57 458.85,-528.75"/>
</a>
</g>
</g>
<!-- Node7&#45;&gt;Node9 -->
<g id="edge14_Node000007_Node000009" class="edge">
<title>Node7&#45;&gt;Node9</title>
<g id="a_edge14_Node000007_Node000009"><a xlink:title=" ">
<path fill="none" stroke="#63b8ff" d="M351.84,-369.9C365.5,-393.43 404.18,-454.4 454,-484.33 456.82,-486.02 459.78,-487.56 462.83,-488.95"/>
<polygon fill="#63b8ff" stroke="#63b8ff" points="461.65,-492.24 472.23,-492.7 464.24,-485.74 461.65,-492.24"/>
</a>
</g>
</g>
<!-- Node7&#45;&gt;Node10 -->
<g id="edge16_Node000007_Node000010" class="edge">
<title>Node7&#45;&gt;Node10</title>
<g id="a_edge16_Node000007_Node000010"><a xlink:title=" ">
<path fill="none" stroke="#63b8ff" d="M355.57,-369.98C372.93,-387.85 412.8,-426.12 454,-446.33 458.88,-448.72 464.08,-450.83 469.39,-452.68"/>
<polygon fill="#63b8ff" stroke="#63b8ff" points="468.44,-456.05 479.03,-455.73 470.55,-449.37 468.44,-456.05"/>
</a>
</g>
</g>
<!-- Node7&#45;&gt;Node11 -->
<g id="edge18_Node000007_Node000011" class="edge">
<title>Node7&#45;&gt;Node11</title>
<g id="a_edge18_Node000007_Node000011"><a xlink:title=" ">
<path fill="none" stroke="#63b8ff" d="M372.46,-369.86C394.17,-377.74 425.99,-389.1 454,-398.33 459.95,-400.29 466.17,-402.29 472.4,-404.25"/>
<polygon fill="#63b8ff" stroke="#63b8ff" points="471.56,-407.65 482.15,-407.29 473.64,-400.97 471.56,-407.65"/>
</a>
</g>
</g>
<!-- Node7&#45;&gt;Node12 -->
<g id="edge20_Node000007_Node000012" class="edge">
<title>Node7&#45;&gt;Node12</title>
<g id="a_edge20_Node000007_Node000012"><a xlink:title=" ">
<path fill="none" stroke="#63b8ff" d="M418.15,-367.65C426.99,-368.55 436.12,-369.49 445.16,-370.41"/>
<polygon fill="#63b8ff" stroke="#63b8ff" points="445.03,-373.91 455.33,-371.45 445.74,-366.95 445.03,-373.91"/>
</a>
</g>
</g>
<!-- Node7&#45;&gt;Node13 -->
<g id="edge22_Node000007_Node000013" class="edge">
<title>Node7&#45;&gt;Node13</title>
<g id="a_edge22_Node000007_Node000013"><a xlink:title=" ">
<path fill="none" stroke="#63b8ff" d="M418.15,-351.09C428.62,-349.74 439.47,-348.34 450.13,-346.96"/>
<polygon fill="#63b8ff" stroke="#63b8ff" points="450.81,-350.4 460.28,-345.65 449.91,-343.46 450.81,-350.4"/>
</a>
</g>
</g>
<!-- Node7&#45;&gt;Node14 -->
<g id="edge24_Node000007_Node000014" class="edge">
<title>Node7&#45;&gt;Node14</title>
<g id="a_edge24_Node000007_Node000014"><a xlink:title=" ">
<path fill="none" stroke="#63b8ff" d="M366.01,-350.74C387.32,-340.48 422.61,-324.09 454,-312.33 459.17,-310.39 464.58,-308.49 470.02,-306.66"/>
<polygon fill="#63b8ff" stroke="#63b8ff" points="471.42,-309.89 479.84,-303.45 469.25,-303.24 471.42,-309.89"/>
</a>
</g>
</g>
<!-- Node7&#45;&gt;Node15 -->
<g id="edge26_Node000007_Node000015" class="edge">
<title>Node7&#45;&gt;Node15</title>
<g id="a_edge26_Node000007_Node000015"><a xlink:title=" ">
<path fill="none" stroke="#63b8ff" d="M354.29,-350.74C370.63,-331.29 410.57,-287.12 454,-264.33 458.46,-261.99 463.22,-259.93 468.1,-258.12"/>
<polygon fill="#63b8ff" stroke="#63b8ff" points="469.23,-261.44 477.6,-254.94 467.01,-254.8 469.23,-261.44"/>
</a>
</g>
</g>
<!-- Node7&#45;&gt;Node16 -->
<g id="edge28_Node000007_Node000016" class="edge">
<title>Node7&#45;&gt;Node16</title>
<g id="a_edge28_Node000007_Node000016"><a xlink:title=" ">
<path fill="none" stroke="#63b8ff" d="M351.48,-350.47C364.57,-325.59 402.57,-259.88 454,-227.33 457.37,-225.2 460.96,-223.31 464.68,-221.63"/>
<polygon fill="#63b8ff" stroke="#63b8ff" points="466.14,-224.81 474.14,-217.87 463.55,-218.31 466.14,-224.81"/>
</a>
</g>
</g>
<!-- Node7&#45;&gt;Node17 -->
<g id="edge30_Node000007_Node000017" class="edge">
<title>Node7&#45;&gt;Node17</title>
<g id="a_edge30_Node000007_Node000017"><a xlink:title=" ">
<path fill="none" stroke="#63b8ff" d="M349.6,-350.82C359.6,-321.75 393.84,-233.48 454,-190.33 456.88,-188.27 459.95,-186.42 463.16,-184.78"/>
<polygon fill="#63b8ff" stroke="#63b8ff" points="464.75,-187.9 472.48,-180.66 461.92,-181.5 464.75,-187.9"/>
</a>
</g>
</g>
<!-- Node7&#45;&gt;Node18 -->
<g id="edge32_Node000007_Node000018" class="edge">
<title>Node7&#45;&gt;Node18</title>
<g id="a_edge32_Node000007_Node000018"><a xlink:title=" ">
<path fill="none" stroke="#63b8ff" d="M348.51,-350.7C355.95,-317.56 385.15,-207.28 454,-153.33 456.33,-151.51 458.81,-149.85 461.39,-148.36"/>
<polygon fill="#63b8ff" stroke="#63b8ff" points="463.12,-151.41 470.55,-143.85 460.03,-145.13 463.12,-151.41"/>
</a>
</g>
</g>
<!-- Node7&#45;&gt;Node19 -->
<g id="edge34_Node000007_Node000019" class="edge">
<title>Node7&#45;&gt;Node19</title>
<g id="a_edge34_Node000007_Node000019"><a xlink:title=" ">
<path fill="none" stroke="#63b8ff" d="M347.71,-350.59C352.85,-313.7 376.24,-181.38 454,-116.33 457.12,-113.72 460.53,-111.46 464.14,-109.5"/>
<polygon fill="#63b8ff" stroke="#63b8ff" points="465.83,-112.58 473.45,-105.23 462.91,-106.22 465.83,-112.58"/>
</a>
</g>
</g>
<!-- Node7&#45;&gt;Node20 -->
<g id="edge36_Node000007_Node000020" class="edge">
<title>Node7&#45;&gt;Node20</title>
<g id="a_edge36_Node000007_Node000020"><a xlink:title=" ">
<path fill="none" stroke="#63b8ff" d="M347.08,-350.83C350.03,-310.99 366.93,-155.92 454,-79.33 457.63,-76.14 461.7,-73.47 466.03,-71.23"/>
<polygon fill="#63b8ff" stroke="#63b8ff" points="467.46,-74.42 475.22,-67.21 464.66,-68.01 467.46,-74.42"/>
</a>
</g>
</g>
<!-- Node7&#45;&gt;Node21 -->
<g id="edge38_Node000007_Node000021" class="edge">
<title>Node7&#45;&gt;Node21</title>
<g id="a_edge38_Node000007_Node000021"><a xlink:title=" ">
<path fill="none" stroke="#63b8ff" d="M346.73,-350.62C348.28,-307.59 360.34,-132.37 454,-41.33 456.77,-38.64 459.83,-36.25 463.09,-34.13"/>
<polygon fill="#63b8ff" stroke="#63b8ff" points="465.09,-37.02 472.13,-29.11 461.69,-30.9 465.09,-37.02"/>
</a>
</g>
</g>
<!-- Node8&#45;&gt;Node4 -->
<g id="edge13_Node000008_Node000004" class="edge">
<title>Node8&#45;&gt;Node4</title>
<g id="a_edge13_Node000008_Node000004"><a xlink:title=" ">
<path fill="none" stroke="#63b8ff" d="M597.71,-531.09C603.2,-528.38 608.4,-525.16 613,-521.33 664.43,-478.5 691.66,-400.98 702.81,-361.26"/>
<polygon fill="#63b8ff" stroke="#63b8ff" points="706.2,-362.14 705.42,-351.57 699.44,-360.32 706.2,-362.14"/>
</a>
</g>
</g>
<!-- Node9&#45;&gt;Node4 -->
<g id="edge15_Node000009_Node000004" class="edge">
<title>Node9&#45;&gt;Node4</title>
<g id="a_edge15_Node000009_Node000004"><a xlink:title=" ">
<path fill="none" stroke="#63b8ff" d="M597.27,-492.68C602.84,-490.44 608.19,-487.7 613,-484.33 657.35,-453.31 686.22,-394.59 699.84,-361.2"/>
<polygon fill="#63b8ff" stroke="#63b8ff" points="703.17,-362.29 703.58,-351.71 696.66,-359.73 703.17,-362.29"/>
</a>
</g>
</g>
<!-- Node10&#45;&gt;Node4 -->
<g id="edge17_Node000010_Node000004" class="edge">
<title>Node10&#45;&gt;Node4</title>
<g id="a_edge17_Node000010_Node000004"><a xlink:title=" ">
<path fill="none" stroke="#63b8ff" d="M592.31,-455.71C599.56,-453.26 606.65,-450.19 613,-446.33 648.71,-424.67 678.22,-385.32 694.72,-360.03"/>
<polygon fill="#63b8ff" stroke="#63b8ff" points="697.79,-361.73 700.19,-351.41 691.88,-357.97 697.79,-361.73"/>
</a>
</g>
</g>
<!-- Node11&#45;&gt;Node4 -->
<g id="edge19_Node000011_Node000004" class="edge">
<title>Node11&#45;&gt;Node4</title>
<g id="a_edge19_Node000011_Node000004"><a xlink:title=" ">
<path fill="none" stroke="#63b8ff" d="M590.54,-407.29C598.21,-404.63 605.89,-401.64 613,-398.33 637.23,-387.07 662.53,-370.5 681.08,-357.32"/>
<polygon fill="#63b8ff" stroke="#63b8ff" points="683.29,-360.04 689.35,-351.35 679.19,-354.37 683.29,-360.04"/>
</a>
</g>
</g>
<!-- Node12&#45;&gt;Node4 -->
<g id="edge21_Node000012_Node000004" class="edge">
<title>Node12&#45;&gt;Node4</title>
<g id="a_edge21_Node000012_Node000004"><a xlink:title=" ">
<path fill="none" stroke="#63b8ff" d="M574.05,-369.82C586.51,-366.81 600.34,-363.45 613,-360.33 621.48,-358.24 630.39,-356.04 639.21,-353.85"/>
<polygon fill="#63b8ff" stroke="#63b8ff" points="640.24,-357.19 649.1,-351.38 638.55,-350.4 640.24,-357.19"/>
</a>
</g>
</g>
<!-- Node13&#45;&gt;Node4 -->
<g id="edge23_Node000013_Node000004" class="edge">
<title>Node13&#45;&gt;Node4</title>
<g id="a_edge23_Node000013_Node000004"><a xlink:title=" ">
<path fill="none" stroke="#63b8ff" d="M606.74,-336.33C617.21,-336.33 627.99,-336.33 638.43,-336.33"/>
<polygon fill="#63b8ff" stroke="#63b8ff" points="638.74,-339.83 648.74,-336.33 638.74,-332.83 638.74,-339.83"/>
</a>
</g>
</g>
<!-- Node14&#45;&gt;Node4 -->
<g id="edge25_Node000014_Node000004" class="edge">
<title>Node14&#45;&gt;Node4</title>
<g id="a_edge25_Node000014_Node000004"><a xlink:title=" ">
<path fill="none" stroke="#63b8ff" d="M589.23,-303.39C606.86,-308.23 626.54,-313.65 644.79,-318.67"/>
<polygon fill="#63b8ff" stroke="#63b8ff" points="643.89,-322.05 654.46,-321.33 645.75,-315.3 643.89,-322.05"/>
</a>
</g>
</g>
<!-- Node15&#45;&gt;Node4 -->
<g id="edge27_Node000015_Node000004" class="edge">
<title>Node15&#45;&gt;Node4</title>
<g id="a_edge27_Node000015_Node000004"><a xlink:title=" ">
<path fill="none" stroke="#63b8ff" d="M587.04,-254.91C595.92,-257.4 604.88,-260.51 613,-264.33 639.96,-277.04 666.78,-298.04 685.18,-314.08"/>
<polygon fill="#63b8ff" stroke="#63b8ff" points="683.22,-317.03 693.02,-321.06 687.88,-311.8 683.22,-317.03"/>
</a>
</g>
</g>
<!-- Node16&#45;&gt;Node4 -->
<g id="edge29_Node000016_Node000004" class="edge">
<title>Node16&#45;&gt;Node4</title>
<g id="a_edge29_Node000016_Node000004"><a xlink:title=" ">
<path fill="none" stroke="#63b8ff" d="M591.89,-217.84C599.28,-220.31 606.52,-223.42 613,-227.33 648.38,-248.69 677.8,-287.37 694.4,-312.44"/>
<polygon fill="#63b8ff" stroke="#63b8ff" points="691.56,-314.5 699.92,-321.01 697.44,-310.7 691.56,-314.5"/>
</a>
</g>
</g>
<!-- Node17&#45;&gt;Node4 -->
<g id="edge31_Node000017_Node000004" class="edge">
<title>Node17&#45;&gt;Node4</title>
<g id="a_edge31_Node000017_Node000004"><a xlink:title=" ">
<path fill="none" stroke="#63b8ff" d="M594.86,-180.91C601.3,-183.37 607.5,-186.46 613,-190.33 656.84,-221.19 685.9,-279.02 699.69,-311.87"/>
<polygon fill="#63b8ff" stroke="#63b8ff" points="696.48,-313.26 703.49,-321.21 702.97,-310.63 696.48,-313.26"/>
</a>
</g>
</g>
<!-- Node18&#45;&gt;Node4 -->
<g id="edge33_Node000018_Node000004" class="edge">
<title>Node18&#45;&gt;Node4</title>
<g id="a_edge33_Node000018_Node000004"><a xlink:title=" ">
<path fill="none" stroke="#63b8ff" d="M596.44,-143.87C602.37,-146.35 608.03,-149.45 613,-153.33 665.45,-194.26 692.29,-271.91 703.09,-311.61"/>
<polygon fill="#63b8ff" stroke="#63b8ff" points="699.71,-312.49 705.61,-321.29 706.48,-310.73 699.71,-312.49"/>
</a>
</g>
</g>
<!-- Node19&#45;&gt;Node4 -->
<g id="edge35_Node000019_Node000004" class="edge">
<title>Node19&#45;&gt;Node4</title>
<g id="a_edge35_Node000019_Node000004"><a xlink:title=" ">
<path fill="none" stroke="#63b8ff" d="M593.56,-105.21C600.61,-107.94 607.31,-111.55 613,-116.33 674.01,-167.56 697.44,-264.96 705.39,-311.01"/>
<polygon fill="#63b8ff" stroke="#63b8ff" points="701.96,-311.73 707.01,-321.04 708.87,-310.61 701.96,-311.73"/>
</a>
</g>
</g>
<!-- Node20&#45;&gt;Node4 -->
<g id="edge37_Node000020_Node000004" class="edge">
<title>Node20&#45;&gt;Node4</title>
<g id="a_edge37_Node000020_Node000004"><a xlink:title=" ">
<path fill="none" stroke="#63b8ff" d="M591.82,-67.16C599.56,-70.01 606.91,-73.94 613,-79.33 682.89,-141.3 702.04,-259.14 707.17,-310.89"/>
<polygon fill="#63b8ff" stroke="#63b8ff" points="703.71,-311.52 708.09,-321.17 710.69,-310.89 703.71,-311.52"/>
</a>
</g>
</g>
<!-- Node21&#45;&gt;Node4 -->
<g id="edge39_Node000021_Node000004" class="edge">
<title>Node21&#45;&gt;Node4</title>
<g id="a_edge39_Node000021_Node000004"><a xlink:title=" ">
<path fill="none" stroke="#63b8ff" d="M594.53,-28.87C601.34,-32.07 607.71,-36.14 613,-41.33 689.91,-116.87 705.24,-254.62 708.27,-311.13"/>
<polygon fill="#63b8ff" stroke="#63b8ff" points="704.78,-311.47 708.72,-321.3 711.77,-311.16 704.78,-311.47"/>
</a>
</g>
</g>
</g>
</svg>
