<?xml version="1.0" encoding="UTF-8" standalone="no"?>
<!DOCTYPE svg PUBLIC "-//W3C//DTD SVG 1.1//EN"
 "http://www.w3.org/Graphics/SVG/1.1/DTD/svg11.dtd">
<!-- Generated by graphviz version 2.43.0 (0)
 -->
<!-- Title: lci::alloc_cq Pages: 1 -->
<svg width="740pt" height="210pt"
 viewBox="0.00 0.00 740.00 209.50" xmlns="http://www.w3.org/2000/svg" xmlns:xlink="http://www.w3.org/1999/xlink">
<g id="graph0" class="graph" transform="scale(1 1) rotate(0) translate(4 205.5)">
<title>lci::alloc_cq</title>
<!-- Node1 -->
<g id="Node000001" class="node">
<title>Node1</title>
<g id="a_Node000001"><a xlink:title=" ">
<polygon fill="#999999" stroke="#666666" points="74,-113.5 0,-113.5 0,-94.5 74,-94.5 74,-113.5"/>
<text text-anchor="middle" x="37" y="-101.5" font-family="Helvetica,sans-Serif" font-size="10.00">lci::alloc_cq</text>
</a>
</g>
</g>
<!-- Node2 -->
<g id="Node000002" class="node">
<title>Node2</title>
<g id="a_Node000002"><a xlink:href="../../d9/dcc/classlci_1_1alloc__cq__x.html#a843c6066dd437c46e908012355010db7" target="_top" xlink:title=" ">
<polygon fill="white" stroke="#666666" points="218,-113.5 110,-113.5 110,-94.5 218,-94.5 218,-113.5"/>
<text text-anchor="middle" x="164" y="-101.5" font-family="Helvetica,sans-Serif" font-size="10.00">lci::alloc_cq_x::call</text>
</a>
</g>
</g>
<!-- Node1&#45;&gt;Node2 -->
<g id="edge1_Node000001_Node000002" class="edge">
<title>Node1&#45;&gt;Node2</title>
<g id="a_edge1_Node000001_Node000002"><a xlink:title=" ">
<path fill="none" stroke="#63b8ff" d="M74.16,-104C82.14,-104 90.82,-104 99.53,-104"/>
<polygon fill="#63b8ff" stroke="#63b8ff" points="99.72,-107.5 109.72,-104 99.72,-100.5 99.72,-107.5"/>
</a>
</g>
</g>
<!-- Node3 -->
<g id="Node000003" class="node">
<title>Node3</title>
<g id="a_Node000003"><a xlink:href="../../d9/dcc/classlci_1_1alloc__cq__x.html#ad457b9581e944657d99ee974020866f5" target="_top" xlink:title=" ">
<polygon fill="white" stroke="#666666" points="389,-132.5 254,-132.5 254,-113.5 389,-113.5 389,-132.5"/>
<text text-anchor="middle" x="321.5" y="-120.5" font-family="Helvetica,sans-Serif" font-size="10.00">lci::alloc_cq_x::call_impl</text>
</a>
</g>
</g>
<!-- Node2&#45;&gt;Node3 -->
<g id="edge2_Node000002_Node000003" class="edge">
<title>Node2&#45;&gt;Node3</title>
<g id="a_edge2_Node000002_Node000003"><a xlink:title=" ">
<path fill="none" stroke="#63b8ff" d="M218.08,-110.49C226.36,-111.5 235.06,-112.56 243.75,-113.62"/>
<polygon fill="#63b8ff" stroke="#63b8ff" points="243.56,-117.12 253.91,-114.86 244.41,-110.18 243.56,-117.12"/>
</a>
</g>
</g>
<!-- Node4 -->
<g id="Node000004" class="node">
<title>Node4</title>
<g id="a_Node000004"><a xlink:href="../../d9/dcc/classlci_1_1alloc__cq__x.html#a19f2e1f3e74e7aa72b6581c5663a8b56" target="_top" xlink:title=" ">
<polygon fill="white" stroke="#666666" points="554,-201.5 425,-201.5 425,-182.5 554,-182.5 554,-201.5"/>
<text text-anchor="middle" x="489.5" y="-189.5" font-family="Helvetica,sans-Serif" font-size="10.00">lci::alloc_cq_x::cq_type</text>
</a>
</g>
</g>
<!-- Node2&#45;&gt;Node4 -->
<g id="edge13_Node000002_Node000004" class="edge">
<title>Node2&#45;&gt;Node4</title>
<g id="a_edge13_Node000002_Node000004"><a xlink:title=" ">
<path fill="none" stroke="#63b8ff" d="M176.17,-113.72C192.2,-127.05 223.19,-150.67 254,-162 305.68,-181 367.59,-188.33 414.82,-191"/>
<polygon fill="#63b8ff" stroke="#63b8ff" points="414.81,-194.5 424.97,-191.51 415.16,-187.51 414.81,-194.5"/>
</a>
</g>
</g>
<!-- Node6 -->
<g id="Node000006" class="node">
<title>Node6</title>
<g id="a_Node000006"><a xlink:href="../../d9/dcc/classlci_1_1alloc__cq__x.html#a72025203cede01375dddf1d9c18dcc19" target="_top" xlink:title=" ">
<polygon fill="white" stroke="#666666" points="552,-164 427,-164 427,-134 552,-134 552,-164"/>
<text text-anchor="start" x="435" y="-152" font-family="Helvetica,sans-Serif" font-size="10.00">lci::alloc_cq_x::default</text>
<text text-anchor="middle" x="489.5" y="-141" font-family="Helvetica,sans-Serif" font-size="10.00">_length</text>
</a>
</g>
</g>
<!-- Node2&#45;&gt;Node6 -->
<g id="edge14_Node000002_Node000006" class="edge">
<title>Node2&#45;&gt;Node6</title>
<g id="a_edge14_Node000002_Node000006"><a xlink:title=" ">
<path fill="none" stroke="#63b8ff" d="M182.08,-113.59C199.54,-122.82 227.75,-136.22 254,-142 307.55,-153.79 369.63,-155.11 416.45,-153.72"/>
<polygon fill="#63b8ff" stroke="#63b8ff" points="416.63,-157.22 426.51,-153.37 416.39,-150.22 416.63,-157.22"/>
</a>
</g>
</g>
<!-- Node7 -->
<g id="Node000007" class="node">
<title>Node7</title>
<g id="a_Node000007"><a xlink:href="../../d9/dcc/classlci_1_1alloc__cq__x.html#ac2f17c7b6be490a78796abe917935c72" target="_top" xlink:title=" ">
<polygon fill="white" stroke="#666666" points="554,-115.5 425,-115.5 425,-96.5 554,-96.5 554,-115.5"/>
<text text-anchor="middle" x="489.5" y="-103.5" font-family="Helvetica,sans-Serif" font-size="10.00">lci::alloc_cq_x::runtime</text>
</a>
</g>
</g>
<!-- Node2&#45;&gt;Node7 -->
<g id="edge15_Node000002_Node000007" class="edge">
<title>Node2&#45;&gt;Node7</title>
<g id="a_edge15_Node000002_Node000007"><a xlink:title=" ">
<path fill="none" stroke="#63b8ff" d="M218.41,-104.15C263.79,-104.31 330.67,-104.58 389,-105 397.32,-105.06 406.03,-105.13 414.69,-105.21"/>
<polygon fill="#63b8ff" stroke="#63b8ff" points="414.77,-108.71 424.8,-105.31 414.84,-101.71 414.77,-108.71"/>
</a>
</g>
</g>
<!-- Node8 -->
<g id="Node000008" class="node">
<title>Node8</title>
<g id="a_Node000008"><a xlink:href="../../d9/dcc/classlci_1_1alloc__cq__x.html#ab0b1ae308a08b8397e25a53b0b9420df" target="_top" xlink:title=" ">
<polygon fill="white" stroke="#666666" points="545.5,-78 433.5,-78 433.5,-48 545.5,-48 545.5,-78"/>
<text text-anchor="start" x="441.5" y="-66" font-family="Helvetica,sans-Serif" font-size="10.00">lci::alloc_cq_x::user</text>
<text text-anchor="middle" x="489.5" y="-55" font-family="Helvetica,sans-Serif" font-size="10.00">_context</text>
</a>
</g>
</g>
<!-- Node2&#45;&gt;Node8 -->
<g id="edge16_Node000002_Node000008" class="edge">
<title>Node2&#45;&gt;Node8</title>
<g id="a_edge16_Node000002_Node000008"><a xlink:title=" ">
<path fill="none" stroke="#63b8ff" d="M218.06,-97.28C274.14,-90.17 362.68,-78.95 423.06,-71.29"/>
<polygon fill="#63b8ff" stroke="#63b8ff" points="423.77,-74.73 433.25,-70 422.89,-67.79 423.77,-74.73"/>
</a>
</g>
</g>
<!-- Node9 -->
<g id="Node000009" class="node">
<title>Node9</title>
<g id="a_Node000009"><a xlink:href="../../d9/dcc/classlci_1_1alloc__cq__x.html#a2624007487c5ea0e802af4e3b82746e2" target="_top" xlink:title=" ">
<polygon fill="white" stroke="#666666" points="545.5,-30 433.5,-30 433.5,0 545.5,0 545.5,-30"/>
<text text-anchor="start" x="441.5" y="-18" font-family="Helvetica,sans-Serif" font-size="10.00">lci::alloc_cq_x::zero</text>
<text text-anchor="middle" x="489.5" y="-7" font-family="Helvetica,sans-Serif" font-size="10.00">_copy_am</text>
</a>
</g>
</g>
<!-- Node2&#45;&gt;Node9 -->
<g id="edge17_Node000002_Node000009" class="edge">
<title>Node2&#45;&gt;Node9</title>
<g id="a_edge17_Node000002_Node000009"><a xlink:title=" ">
<path fill="none" stroke="#63b8ff" d="M189.32,-94.46C207.08,-87.69 231.83,-78.66 254,-72 310.57,-55.01 375.94,-39.45 423.28,-28.89"/>
<polygon fill="#63b8ff" stroke="#63b8ff" points="424.09,-32.3 433.09,-26.72 422.57,-25.46 424.09,-32.3"/>
</a>
</g>
</g>
<!-- Node3&#45;&gt;Node4 -->
<g id="edge3_Node000003_Node000004" class="edge">
<title>Node3&#45;&gt;Node4</title>
<g id="a_edge3_Node000003_Node000004"><a xlink:title=" ">
<path fill="none" stroke="#63b8ff" d="M339.88,-132.57C359.97,-143.36 394.2,-160.97 425,-173 430.84,-175.28 437.07,-177.45 443.26,-179.45"/>
<polygon fill="#63b8ff" stroke="#63b8ff" points="442.3,-182.82 452.89,-182.46 444.38,-176.14 442.3,-182.82"/>
</a>
</g>
</g>
<!-- Node3&#45;&gt;Node6 -->
<g id="edge5_Node000003_Node000006" class="edge">
<title>Node3&#45;&gt;Node6</title>
<g id="a_edge5_Node000003_Node000006"><a xlink:title=" ">
<path fill="none" stroke="#63b8ff" d="M383.37,-132.53C394.21,-134.23 405.59,-136.01 416.7,-137.75"/>
<polygon fill="#63b8ff" stroke="#63b8ff" points="416.38,-141.25 426.8,-139.34 417.47,-134.33 416.38,-141.25"/>
</a>
</g>
</g>
<!-- Node3&#45;&gt;Node7 -->
<g id="edge7_Node000003_Node000007" class="edge">
<title>Node3&#45;&gt;Node7</title>
<g id="a_edge7_Node000003_Node000007"><a xlink:title=" ">
<path fill="none" stroke="#63b8ff" d="M389.06,-116.18C397.55,-115.31 406.29,-114.42 414.88,-113.54"/>
<polygon fill="#63b8ff" stroke="#63b8ff" points="415.3,-117.01 424.89,-112.51 414.58,-110.05 415.3,-117.01"/>
</a>
</g>
</g>
<!-- Node3&#45;&gt;Node8 -->
<g id="edge9_Node000003_Node000008" class="edge">
<title>Node3&#45;&gt;Node8</title>
<g id="a_edge9_Node000003_Node000008"><a xlink:title=" ">
<path fill="none" stroke="#63b8ff" d="M348.8,-113.49C372.46,-104.94 407.88,-92.14 437.14,-81.56"/>
<polygon fill="#63b8ff" stroke="#63b8ff" points="438.58,-84.76 446.8,-78.07 436.2,-78.18 438.58,-84.76"/>
</a>
</g>
</g>
<!-- Node3&#45;&gt;Node9 -->
<g id="edge11_Node000003_Node000009" class="edge">
<title>Node3&#45;&gt;Node9</title>
<g id="a_edge11_Node000003_Node000009"><a xlink:title=" ">
<path fill="none" stroke="#63b8ff" d="M331.88,-113.49C349.02,-96.55 387.15,-60.87 425,-39 427.86,-37.35 430.85,-35.77 433.91,-34.27"/>
<polygon fill="#63b8ff" stroke="#63b8ff" points="435.61,-37.35 443.25,-30.01 432.7,-30.98 435.61,-37.35"/>
</a>
</g>
</g>
<!-- Node5 -->
<g id="Node000005" class="node">
<title>Node5</title>
<g id="a_Node000005"><a xlink:href="../../d9/dcc/classlci_1_1alloc__cq__x.html#a766ca548293630408f6e7192b1efce0f" target="_top" xlink:title=" ">
<polygon fill="white" stroke="#666666" points="732,-115.5 590,-115.5 590,-96.5 732,-96.5 732,-115.5"/>
<text text-anchor="middle" x="661" y="-103.5" font-family="Helvetica,sans-Serif" font-size="10.00">lci::alloc_cq_x::alloc_cq_x</text>
</a>
</g>
</g>
<!-- Node4&#45;&gt;Node5 -->
<g id="edge4_Node000004_Node000005" class="edge">
<title>Node4&#45;&gt;Node5</title>
<g id="a_edge4_Node000004_Node000005"><a xlink:title=" ">
<path fill="none" stroke="#63b8ff" d="M528.73,-182.4C537.21,-179.77 546.04,-176.62 554,-173 585.24,-158.78 618.21,-136.66 638.92,-121.77"/>
<polygon fill="#63b8ff" stroke="#63b8ff" points="641.25,-124.4 647.27,-115.68 637.13,-118.74 641.25,-124.4"/>
</a>
</g>
</g>
<!-- Node6&#45;&gt;Node5 -->
<g id="edge6_Node000006_Node000005" class="edge">
<title>Node6&#45;&gt;Node5</title>
<g id="a_edge6_Node000006_Node000005"><a xlink:title=" ">
<path fill="none" stroke="#63b8ff" d="M549.78,-133.96C570.35,-128.74 593.12,-122.97 612.61,-118.02"/>
<polygon fill="#63b8ff" stroke="#63b8ff" points="613.63,-121.37 622.46,-115.52 611.91,-114.59 613.63,-121.37"/>
</a>
</g>
</g>
<!-- Node7&#45;&gt;Node5 -->
<g id="edge8_Node000007_Node000005" class="edge">
<title>Node7&#45;&gt;Node5</title>
<g id="a_edge8_Node000007_Node000005"><a xlink:title=" ">
<path fill="none" stroke="#63b8ff" d="M554.1,-106C562.47,-106 571.14,-106 579.74,-106"/>
<polygon fill="#63b8ff" stroke="#63b8ff" points="579.79,-109.5 589.79,-106 579.79,-102.5 579.79,-109.5"/>
</a>
</g>
</g>
<!-- Node8&#45;&gt;Node5 -->
<g id="edge10_Node000008_Node000005" class="edge">
<title>Node8&#45;&gt;Node5</title>
<g id="a_edge10_Node000008_Node000005"><a xlink:title=" ">
<path fill="none" stroke="#63b8ff" d="M545.53,-76.96C567.13,-82.44 591.68,-88.67 612.49,-93.95"/>
<polygon fill="#63b8ff" stroke="#63b8ff" points="611.82,-97.39 622.37,-96.45 613.54,-90.6 611.82,-97.39"/>
</a>
</g>
</g>
<!-- Node9&#45;&gt;Node5 -->
<g id="edge12_Node000009_Node000005" class="edge">
<title>Node9&#45;&gt;Node5</title>
<g id="a_edge12_Node000009_Node000005"><a xlink:title=" ">
<path fill="none" stroke="#63b8ff" d="M534.04,-30.11C540.82,-32.85 547.67,-35.84 554,-39 584.55,-54.23 617.44,-75.94 638.35,-90.48"/>
<polygon fill="#63b8ff" stroke="#63b8ff" points="636.6,-93.53 646.79,-96.41 640.63,-87.8 636.6,-93.53"/>
</a>
</g>
</g>
</g>
</svg>
