<?xml version="1.0" encoding="UTF-8" standalone="no"?>
<!DOCTYPE svg PUBLIC "-//W3C//DTD SVG 1.1//EN"
 "http://www.w3.org/Graphics/SVG/1.1/DTD/svg11.dtd">
<!-- Generated by graphviz version 2.43.0 (0)
 -->
<!-- Title: lci::get_default_device Pages: 1 -->
<svg width="798pt" height="60pt"
 viewBox="0.00 0.00 798.00 60.00" xmlns="http://www.w3.org/2000/svg" xmlns:xlink="http://www.w3.org/1999/xlink">
<g id="graph0" class="graph" transform="scale(1 1) rotate(0) translate(4 56)">
<title>lci::get_default_device</title>
<!-- Node1 -->
<g id="Node000001" class="node">
<title>Node1</title>
<g id="a_Node000001"><a xlink:title=" ">
<polygon fill="#999999" stroke="#666666" points="127,-24.5 0,-24.5 0,-5.5 127,-5.5 127,-24.5"/>
<text text-anchor="middle" x="63.5" y="-12.5" font-family="Helvetica,sans-Serif" font-size="10.00">lci::get_default_device</text>
</a>
</g>
</g>
<!-- Node2 -->
<g id="Node000002" class="node">
<title>Node2</title>
<g id="a_Node000002"><a xlink:href="../../dd/de8/classlci_1_1get__default__device__x.html#a7984aed6475406b4d40d19f510f3972d" target="_top" xlink:title=" ">
<polygon fill="white" stroke="#666666" points="290,-30 163,-30 163,0 290,0 290,-30"/>
<text text-anchor="start" x="171" y="-18" font-family="Helvetica,sans-Serif" font-size="10.00">lci::get_default_device</text>
<text text-anchor="middle" x="226.5" y="-7" font-family="Helvetica,sans-Serif" font-size="10.00">_x::call</text>
</a>
</g>
</g>
<!-- Node1&#45;&gt;Node2 -->
<g id="edge1_Node000001_Node000002" class="edge">
<title>Node1&#45;&gt;Node2</title>
<g id="a_edge1_Node000001_Node000002"><a xlink:title=" ">
<path fill="none" stroke="#63b8ff" d="M127.21,-15C135.65,-15 144.36,-15 152.96,-15"/>
<polygon fill="#63b8ff" stroke="#63b8ff" points="152.96,-18.5 162.96,-15 152.96,-11.5 152.96,-18.5"/>
</a>
</g>
</g>
<!-- Node3 -->
<g id="Node000003" class="node">
<title>Node3</title>
<g id="a_Node000003"><a xlink:href="../../dd/de8/classlci_1_1get__default__device__x.html#a010bb390d5cb368e07942eaade4e80e6" target="_top" xlink:title=" ">
<polygon fill="white" stroke="#666666" points="453,-52 326,-52 326,-22 453,-22 453,-52"/>
<text text-anchor="start" x="334" y="-40" font-family="Helvetica,sans-Serif" font-size="10.00">lci::get_default_device</text>
<text text-anchor="middle" x="389.5" y="-29" font-family="Helvetica,sans-Serif" font-size="10.00">_x::call_impl</text>
</a>
</g>
</g>
<!-- Node2&#45;&gt;Node3 -->
<g id="edge2_Node000002_Node000003" class="edge">
<title>Node2&#45;&gt;Node3</title>
<g id="a_edge2_Node000002_Node000003"><a xlink:title=" ">
<path fill="none" stroke="#63b8ff" d="M290.21,-23.57C298.65,-24.72 307.36,-25.91 315.96,-27.09"/>
<polygon fill="#63b8ff" stroke="#63b8ff" points="315.58,-30.57 325.96,-28.45 316.53,-23.63 315.58,-30.57"/>
</a>
</g>
</g>
<!-- Node4 -->
<g id="Node000004" class="node">
<title>Node4</title>
<g id="a_Node000004"><a xlink:href="../../dd/de8/classlci_1_1get__default__device__x.html#a3fa2b1fac09f47eaf62b45c2c0e9bd69" target="_top" xlink:title=" ">
<polygon fill="white" stroke="#666666" points="616,-30 489,-30 489,0 616,0 616,-30"/>
<text text-anchor="start" x="497" y="-18" font-family="Helvetica,sans-Serif" font-size="10.00">lci::get_default_device</text>
<text text-anchor="middle" x="552.5" y="-7" font-family="Helvetica,sans-Serif" font-size="10.00">_x::runtime</text>
</a>
</g>
</g>
<!-- Node2&#45;&gt;Node4 -->
<g id="edge5_Node000002_Node000004" class="edge">
<title>Node2&#45;&gt;Node4</title>
<g id="a_edge5_Node000002_Node000004"><a xlink:title=" ">
<path fill="none" stroke="#63b8ff" d="M290.03,-13.54C301.97,-13.31 314.37,-13.12 326,-13 382.44,-12.43 396.56,-12.43 453,-13 461.36,-13.08 470.12,-13.21 478.82,-13.36"/>
<polygon fill="#63b8ff" stroke="#63b8ff" points="478.91,-16.86 488.97,-13.54 479.04,-9.86 478.91,-16.86"/>
</a>
</g>
</g>
<!-- Node3&#45;&gt;Node4 -->
<g id="edge3_Node000003_Node000004" class="edge">
<title>Node3&#45;&gt;Node4</title>
<g id="a_edge3_Node000003_Node000004"><a xlink:title=" ">
<path fill="none" stroke="#63b8ff" d="M453.21,-28.43C461.65,-27.28 470.36,-26.09 478.96,-24.91"/>
<polygon fill="#63b8ff" stroke="#63b8ff" points="479.53,-28.37 488.96,-23.55 478.58,-21.43 479.53,-28.37"/>
</a>
</g>
</g>
<!-- Node5 -->
<g id="Node000005" class="node">
<title>Node5</title>
<g id="a_Node000005"><a xlink:href="../../dd/de8/classlci_1_1get__default__device__x.html#ac3a03fed1e8aee08c45e51d378291827" target="_top" xlink:title=" ">
<polygon fill="white" stroke="#666666" points="790,-30 652,-30 652,0 790,0 790,-30"/>
<text text-anchor="start" x="660" y="-18" font-family="Helvetica,sans-Serif" font-size="10.00">lci::get_default_device</text>
<text text-anchor="middle" x="721" y="-7" font-family="Helvetica,sans-Serif" font-size="10.00">_x::get_default_device_x</text>
</a>
</g>
</g>
<!-- Node4&#45;&gt;Node5 -->
<g id="edge4_Node000004_Node000005" class="edge">
<title>Node4&#45;&gt;Node5</title>
<g id="a_edge4_Node000004_Node000005"><a xlink:title=" ">
<path fill="none" stroke="#63b8ff" d="M616.45,-15C624.7,-15 633.23,-15 641.69,-15"/>
<polygon fill="#63b8ff" stroke="#63b8ff" points="641.96,-18.5 651.96,-15 641.96,-11.5 641.96,-18.5"/>
</a>
</g>
</g>
</g>
</svg>
