<?xml version="1.0" encoding="UTF-8" standalone="no"?>
<!DOCTYPE svg PUBLIC "-//W3C//DTD SVG 1.1//EN"
 "http://www.w3.org/Graphics/SVG/1.1/DTD/svg11.dtd">
<!-- Generated by graphviz version 2.43.0 (0)
 -->
<!-- Title: lci::g_runtime_init Pages: 1 -->
<svg width="741pt" height="290pt"
 viewBox="0.00 0.00 741.00 290.00" xmlns="http://www.w3.org/2000/svg" xmlns:xlink="http://www.w3.org/1999/xlink">
<g id="graph0" class="graph" transform="scale(1 1) rotate(0) translate(4 286)">
<title>lci::g_runtime_init</title>
<!-- Node1 -->
<g id="Node000001" class="node">
<title>Node1</title>
<g id="a_Node000001"><a xlink:title=" ">
<polygon fill="#999999" stroke="#666666" points="104,-150.5 0,-150.5 0,-131.5 104,-131.5 104,-150.5"/>
<text text-anchor="middle" x="52" y="-138.5" font-family="Helvetica,sans-Serif" font-size="10.00">lci::g_runtime_init</text>
</a>
</g>
</g>
<!-- Node2 -->
<g id="Node000002" class="node">
<title>Node2</title>
<g id="a_Node000002"><a xlink:href="../../d1/dcd/classlci_1_1g__runtime__init__x.html#a4546a02fdb888fea05297c60830aa1ad" target="_top" xlink:title=" ">
<polygon fill="white" stroke="#666666" points="244,-156 140,-156 140,-126 244,-126 244,-156"/>
<text text-anchor="start" x="148" y="-144" font-family="Helvetica,sans-Serif" font-size="10.00">lci::g_runtime_init</text>
<text text-anchor="middle" x="192" y="-133" font-family="Helvetica,sans-Serif" font-size="10.00">_x::call</text>
</a>
</g>
</g>
<!-- Node1&#45;&gt;Node2 -->
<g id="edge1_Node000001_Node000002" class="edge">
<title>Node1&#45;&gt;Node2</title>
<g id="a_edge1_Node000001_Node000002"><a xlink:title=" ">
<path fill="none" stroke="#63b8ff" d="M104.39,-141C112.56,-141 121.08,-141 129.46,-141"/>
<polygon fill="#63b8ff" stroke="#63b8ff" points="129.57,-144.5 139.57,-141 129.57,-137.5 129.57,-144.5"/>
</a>
</g>
</g>
<!-- Node3 -->
<g id="Node000003" class="node">
<title>Node3</title>
<g id="a_Node000003"><a xlink:href="../../d1/dcd/classlci_1_1g__runtime__init__x.html#ad72fab3463ebf56743a418966751b9cc" target="_top" xlink:title=" ">
<polygon fill="white" stroke="#666666" points="567.5,-282 433.5,-282 433.5,-252 567.5,-252 567.5,-282"/>
<text text-anchor="start" x="441.5" y="-270" font-family="Helvetica,sans-Serif" font-size="10.00">lci::g_runtime_init</text>
<text text-anchor="middle" x="500.5" y="-259" font-family="Helvetica,sans-Serif" font-size="10.00">_x::alloc_default_device</text>
</a>
</g>
</g>
<!-- Node2&#45;&gt;Node3 -->
<g id="edge2_Node000002_Node000003" class="edge">
<title>Node2&#45;&gt;Node3</title>
<g id="a_edge2_Node000002_Node000003"><a xlink:title=" ">
<path fill="none" stroke="#63b8ff" d="M209.79,-156.23C226.48,-170.66 253.38,-191.99 280,-205 325.38,-227.19 380.04,-242.66 423.46,-252.6"/>
<polygon fill="#63b8ff" stroke="#63b8ff" points="422.87,-256.05 433.39,-254.82 424.39,-249.22 422.87,-256.05"/>
</a>
</g>
</g>
<!-- Node5 -->
<g id="Node000005" class="node">
<title>Node5</title>
<g id="a_Node000005"><a xlink:href="../../d1/dcd/classlci_1_1g__runtime__init__x.html#a918d1c83be5991b72b5a1aee076e0b29" target="_top" xlink:title=" ">
<polygon fill="white" stroke="#666666" points="574.5,-233.5 426.5,-233.5 426.5,-192.5 574.5,-192.5 574.5,-233.5"/>
<text text-anchor="start" x="434.5" y="-221.5" font-family="Helvetica,sans-Serif" font-size="10.00">lci::g_runtime_init</text>
<text text-anchor="start" x="434.5" y="-210.5" font-family="Helvetica,sans-Serif" font-size="10.00">_x::alloc_default_matching</text>
<text text-anchor="middle" x="500.5" y="-199.5" font-family="Helvetica,sans-Serif" font-size="10.00">_engine</text>
</a>
</g>
</g>
<!-- Node2&#45;&gt;Node5 -->
<g id="edge4_Node000002_Node000005" class="edge">
<title>Node2&#45;&gt;Node5</title>
<g id="a_edge4_Node000002_Node000005"><a xlink:title=" ">
<path fill="none" stroke="#63b8ff" d="M220.42,-156.07C237.17,-164.65 259.28,-174.86 280,-181 324.09,-194.05 374.8,-201.89 416.37,-206.54"/>
<polygon fill="#63b8ff" stroke="#63b8ff" points="416.14,-210.04 426.46,-207.63 416.89,-203.08 416.14,-210.04"/>
</a>
</g>
</g>
<!-- Node6 -->
<g id="Node000006" class="node">
<title>Node6</title>
<g id="a_Node000006"><a xlink:href="../../d1/dcd/classlci_1_1g__runtime__init__x.html#a17f340060d3d0c0d0776d4c658110b9a" target="_top" xlink:title=" ">
<polygon fill="white" stroke="#666666" points="581,-174 420,-174 420,-144 581,-144 581,-174"/>
<text text-anchor="start" x="428" y="-162" font-family="Helvetica,sans-Serif" font-size="10.00">lci::g_runtime_init</text>
<text text-anchor="middle" x="500.5" y="-151" font-family="Helvetica,sans-Serif" font-size="10.00">_x::alloc_default_packet_pool</text>
</a>
</g>
</g>
<!-- Node2&#45;&gt;Node6 -->
<g id="edge6_Node000002_Node000006" class="edge">
<title>Node2&#45;&gt;Node6</title>
<g id="a_edge6_Node000002_Node000006"><a xlink:title=" ">
<path fill="none" stroke="#63b8ff" d="M238.57,-156.05C251.79,-159.74 266.34,-163.15 280,-165 322.49,-170.75 370.01,-170.29 409.94,-167.97"/>
<polygon fill="#63b8ff" stroke="#63b8ff" points="410.16,-171.46 419.92,-167.34 409.72,-164.48 410.16,-171.46"/>
</a>
</g>
</g>
<!-- Node7 -->
<g id="Node000007" class="node">
<title>Node7</title>
<g id="a_Node000007"><a xlink:href="../../d1/dcd/classlci_1_1g__runtime__init__x.html#a76f9d7d56d33f356110b3a416ce260ce" target="_top" xlink:title=" ">
<polygon fill="white" stroke="#666666" points="384,-156 280,-156 280,-126 384,-126 384,-156"/>
<text text-anchor="start" x="288" y="-144" font-family="Helvetica,sans-Serif" font-size="10.00">lci::g_runtime_init</text>
<text text-anchor="middle" x="332" y="-133" font-family="Helvetica,sans-Serif" font-size="10.00">_x::call_impl</text>
</a>
</g>
</g>
<!-- Node2&#45;&gt;Node7 -->
<g id="edge8_Node000002_Node000007" class="edge">
<title>Node2&#45;&gt;Node7</title>
<g id="a_edge8_Node000002_Node000007"><a xlink:title=" ">
<path fill="none" stroke="#63b8ff" d="M244.39,-141C252.56,-141 261.08,-141 269.46,-141"/>
<polygon fill="#63b8ff" stroke="#63b8ff" points="269.57,-144.5 279.57,-141 269.57,-137.5 269.57,-144.5"/>
</a>
</g>
</g>
<!-- Node8 -->
<g id="Node000008" class="node">
<title>Node8</title>
<g id="a_Node000008"><a xlink:href="../../d1/dcd/classlci_1_1g__runtime__init__x.html#a147824472fe6dc5645fd75e92ddfe273" target="_top" xlink:title=" ">
<polygon fill="white" stroke="#666666" points="561.5,-126 439.5,-126 439.5,-96 561.5,-96 561.5,-126"/>
<text text-anchor="start" x="447.5" y="-114" font-family="Helvetica,sans-Serif" font-size="10.00">lci::g_runtime_init</text>
<text text-anchor="middle" x="500.5" y="-103" font-family="Helvetica,sans-Serif" font-size="10.00">_x::imm_nbits_rcomp</text>
</a>
</g>
</g>
<!-- Node2&#45;&gt;Node8 -->
<g id="edge18_Node000002_Node000008" class="edge">
<title>Node2&#45;&gt;Node8</title>
<g id="a_edge18_Node000002_Node000008"><a xlink:title=" ">
<path fill="none" stroke="#63b8ff" d="M239.51,-125.94C252.48,-122.35 266.67,-118.99 280,-117 329.39,-109.62 385.71,-108.23 428.93,-108.62"/>
<polygon fill="#63b8ff" stroke="#63b8ff" points="429.02,-112.12 439.07,-108.75 429.11,-105.12 429.02,-112.12"/>
</a>
</g>
</g>
<!-- Node9 -->
<g id="Node000009" class="node">
<title>Node9</title>
<g id="a_Node000009"><a xlink:href="../../d1/dcd/classlci_1_1g__runtime__init__x.html#a1972dee68f2838da07aba5b464f732dd" target="_top" xlink:title=" ">
<polygon fill="white" stroke="#666666" points="554,-78 447,-78 447,-48 554,-48 554,-78"/>
<text text-anchor="start" x="455" y="-66" font-family="Helvetica,sans-Serif" font-size="10.00">lci::g_runtime_init</text>
<text text-anchor="middle" x="500.5" y="-55" font-family="Helvetica,sans-Serif" font-size="10.00">_x::imm_nbits_tag</text>
</a>
</g>
</g>
<!-- Node2&#45;&gt;Node9 -->
<g id="edge19_Node000002_Node000009" class="edge">
<title>Node2&#45;&gt;Node9</title>
<g id="a_edge19_Node000002_Node000009"><a xlink:title=" ">
<path fill="none" stroke="#63b8ff" d="M223.8,-125.96C240.17,-118.47 260.83,-109.79 280,-104 331.81,-88.35 392.4,-77.57 436.78,-71.01"/>
<polygon fill="#63b8ff" stroke="#63b8ff" points="437.45,-74.45 446.85,-69.55 436.45,-67.52 437.45,-74.45"/>
</a>
</g>
</g>
<!-- Node10 -->
<g id="Node000010" class="node">
<title>Node10</title>
<g id="a_Node000010"><a xlink:href="../../d1/dcd/classlci_1_1g__runtime__init__x.html#af2f7a0791a72ac3c8b8546c354ed7081" target="_top" xlink:title=" ">
<polygon fill="white" stroke="#666666" points="576.5,-30 424.5,-30 424.5,0 576.5,0 576.5,-30"/>
<text text-anchor="start" x="432.5" y="-18" font-family="Helvetica,sans-Serif" font-size="10.00">lci::g_runtime_init</text>
<text text-anchor="middle" x="500.5" y="-7" font-family="Helvetica,sans-Serif" font-size="10.00">_x::packet_return_threshold</text>
</a>
</g>
</g>
<!-- Node2&#45;&gt;Node10 -->
<g id="edge20_Node000002_Node000010" class="edge">
<title>Node2&#45;&gt;Node10</title>
<g id="a_edge20_Node000002_Node000010"><a xlink:title=" ">
<path fill="none" stroke="#63b8ff" d="M209.42,-125.77C226.05,-111.09 253.09,-89.21 280,-76 322.24,-55.26 372.62,-40.63 414.45,-30.9"/>
<polygon fill="#63b8ff" stroke="#63b8ff" points="415.37,-34.28 424.34,-28.65 413.82,-27.46 415.37,-34.28"/>
</a>
</g>
</g>
<!-- Node4 -->
<g id="Node000004" class="node">
<title>Node4</title>
<g id="a_Node000004"><a xlink:href="../../d1/dcd/classlci_1_1g__runtime__init__x.html#ac50115eace47c7d8766aa04214978bc1" target="_top" xlink:title=" ">
<polygon fill="white" stroke="#666666" points="733,-150 617,-150 617,-120 733,-120 733,-150"/>
<text text-anchor="start" x="625" y="-138" font-family="Helvetica,sans-Serif" font-size="10.00">lci::g_runtime_init</text>
<text text-anchor="middle" x="675" y="-127" font-family="Helvetica,sans-Serif" font-size="10.00">_x::g_runtime_init_x</text>
</a>
</g>
</g>
<!-- Node3&#45;&gt;Node4 -->
<g id="edge3_Node000003_Node000004" class="edge">
<title>Node3&#45;&gt;Node4</title>
<g id="a_edge3_Node000003_Node000004"><a xlink:title=" ">
<path fill="none" stroke="#63b8ff" d="M563.82,-252C569.84,-249.44 575.68,-246.46 581,-243 614.66,-221.11 643.02,-183.58 659.27,-159.03"/>
<polygon fill="#63b8ff" stroke="#63b8ff" points="662.41,-160.62 664.89,-150.32 656.52,-156.82 662.41,-160.62"/>
</a>
</g>
</g>
<!-- Node5&#45;&gt;Node4 -->
<g id="edge5_Node000005_Node000004" class="edge">
<title>Node5&#45;&gt;Node4</title>
<g id="a_edge5_Node000005_Node000004"><a xlink:title=" ">
<path fill="none" stroke="#63b8ff" d="M558.29,-192.49C565.98,-189.45 573.72,-186.24 581,-183 600.05,-174.52 620.71,-164 637.7,-154.97"/>
<polygon fill="#63b8ff" stroke="#63b8ff" points="639.58,-157.94 646.74,-150.13 636.27,-151.77 639.58,-157.94"/>
</a>
</g>
</g>
<!-- Node6&#45;&gt;Node4 -->
<g id="edge7_Node000006_Node000004" class="edge">
<title>Node6&#45;&gt;Node4</title>
<g id="a_edge7_Node000006_Node000004"><a xlink:title=" ">
<path fill="none" stroke="#63b8ff" d="M581.19,-147.91C589.72,-146.73 598.34,-145.53 606.71,-144.36"/>
<polygon fill="#63b8ff" stroke="#63b8ff" points="607.35,-147.81 616.78,-142.96 606.39,-140.87 607.35,-147.81"/>
</a>
</g>
</g>
<!-- Node7&#45;&gt;Node3 -->
<g id="edge9_Node000007_Node000003" class="edge">
<title>Node7&#45;&gt;Node3</title>
<g id="a_edge9_Node000007_Node000003"><a xlink:title=" ">
<path fill="none" stroke="#63b8ff" d="M341.95,-156.2C355.85,-178.51 384.74,-219.95 420,-243 422.43,-244.59 424.97,-246.08 427.59,-247.47"/>
<polygon fill="#63b8ff" stroke="#63b8ff" points="426.22,-250.69 436.75,-251.85 429.24,-244.38 426.22,-250.69"/>
</a>
</g>
</g>
<!-- Node7&#45;&gt;Node5 -->
<g id="edge10_Node000007_Node000005" class="edge">
<title>Node7&#45;&gt;Node5</title>
<g id="a_edge10_Node000007_Node000005"><a xlink:title=" ">
<path fill="none" stroke="#63b8ff" d="M362.5,-156.05C379.2,-164.36 400.58,-174.67 420,-183 424.43,-184.9 429.02,-186.8 433.66,-188.68"/>
<polygon fill="#63b8ff" stroke="#63b8ff" points="432.64,-192.04 443.22,-192.48 435.22,-185.53 432.64,-192.04"/>
</a>
</g>
</g>
<!-- Node7&#45;&gt;Node6 -->
<g id="edge11_Node000007_Node000006" class="edge">
<title>Node7&#45;&gt;Node6</title>
<g id="a_edge11_Node000007_Node000006"><a xlink:title=" ">
<path fill="none" stroke="#63b8ff" d="M384.31,-146.55C392.42,-147.42 401,-148.35 409.67,-149.29"/>
<polygon fill="#63b8ff" stroke="#63b8ff" points="409.56,-152.8 419.88,-150.39 410.31,-145.84 409.56,-152.8"/>
</a>
</g>
</g>
<!-- Node7&#45;&gt;Node8 -->
<g id="edge12_Node000007_Node000008" class="edge">
<title>Node7&#45;&gt;Node8</title>
<g id="a_edge12_Node000007_Node000008"><a xlink:title=" ">
<path fill="none" stroke="#63b8ff" d="M384.31,-131.75C398.58,-129.18 414.32,-126.35 429.46,-123.62"/>
<polygon fill="#63b8ff" stroke="#63b8ff" points="430.08,-127.06 439.3,-121.85 428.84,-120.18 430.08,-127.06"/>
</a>
</g>
</g>
<!-- Node7&#45;&gt;Node9 -->
<g id="edge14_Node000007_Node000009" class="edge">
<title>Node7&#45;&gt;Node9</title>
<g id="a_edge14_Node000007_Node000009"><a xlink:title=" ">
<path fill="none" stroke="#63b8ff" d="M353.93,-125.82C371.03,-113.97 396.19,-97.76 420,-87 425.39,-84.57 431.09,-82.3 436.86,-80.2"/>
<polygon fill="#63b8ff" stroke="#63b8ff" points="438.3,-83.41 446.61,-76.84 436.02,-76.79 438.3,-83.41"/>
</a>
</g>
</g>
<!-- Node7&#45;&gt;Node10 -->
<g id="edge16_Node000007_Node000010" class="edge">
<title>Node7&#45;&gt;Node10</title>
<g id="a_edge16_Node000007_Node000010"><a xlink:title=" ">
<path fill="none" stroke="#63b8ff" d="M341.95,-125.8C355.85,-103.49 384.74,-62.05 420,-39 422.43,-37.41 424.97,-35.92 427.59,-34.53"/>
<polygon fill="#63b8ff" stroke="#63b8ff" points="429.24,-37.62 436.75,-30.15 426.22,-31.31 429.24,-37.62"/>
</a>
</g>
</g>
<!-- Node8&#45;&gt;Node4 -->
<g id="edge13_Node000008_Node000004" class="edge">
<title>Node8&#45;&gt;Node4</title>
<g id="a_edge13_Node000008_Node000004"><a xlink:title=" ">
<path fill="none" stroke="#63b8ff" d="M561.83,-119.39C576.36,-121.41 591.96,-123.59 606.78,-125.65"/>
<polygon fill="#63b8ff" stroke="#63b8ff" points="606.5,-129.14 616.89,-127.05 607.47,-122.21 606.5,-129.14"/>
</a>
</g>
</g>
<!-- Node9&#45;&gt;Node4 -->
<g id="edge15_Node000009_Node000004" class="edge">
<title>Node9&#45;&gt;Node4</title>
<g id="a_edge15_Node000009_Node000004"><a xlink:title=" ">
<path fill="none" stroke="#63b8ff" d="M554.15,-77.4C563.2,-80.3 572.45,-83.54 581,-87 600.61,-94.94 621.62,-105.59 638.7,-114.84"/>
<polygon fill="#63b8ff" stroke="#63b8ff" points="637.3,-118.06 647.75,-119.81 640.67,-111.93 637.3,-118.06"/>
</a>
</g>
</g>
<!-- Node10&#45;&gt;Node4 -->
<g id="edge17_Node000010_Node000004" class="edge">
<title>Node10&#45;&gt;Node4</title>
<g id="a_edge17_Node000010_Node000004"><a xlink:title=" ">
<path fill="none" stroke="#63b8ff" d="M563.2,-30.16C569.41,-32.69 575.46,-35.62 581,-39 612.14,-57.97 640.09,-89.83 657.04,-111.6"/>
<polygon fill="#63b8ff" stroke="#63b8ff" points="654.34,-113.84 663.18,-119.68 659.92,-109.6 654.34,-113.84"/>
</a>
</g>
</g>
</g>
</svg>
