<?xml version="1.0" encoding="UTF-8" standalone="no"?>
<!DOCTYPE svg PUBLIC "-//W3C//DTD SVG 1.1//EN"
 "http://www.w3.org/Graphics/SVG/1.1/DTD/svg11.dtd">
<!-- Generated by graphviz version 2.43.0 (0)
 -->
<!-- Title: lci::post_put Pages: 1 -->
<svg width="750pt" height="854pt"
 viewBox="0.00 0.00 750.00 854.30" xmlns="http://www.w3.org/2000/svg" xmlns:xlink="http://www.w3.org/1999/xlink">
<g id="graph0" class="graph" transform="scale(1 1) rotate(0) translate(4 850.3)">
<title>lci::post_put</title>
<!-- Node1 -->
<g id="Node000001" class="node">
<title>Node1</title>
<g id="a_Node000001"><a xlink:title=" ">
<polygon fill="#999999" stroke="#666666" points="76,-431.3 0,-431.3 0,-412.3 76,-412.3 76,-431.3"/>
<text text-anchor="middle" x="38" y="-419.3" font-family="Helvetica,sans-Serif" font-size="10.00">lci::post_put</text>
</a>
</g>
</g>
<!-- Node2 -->
<g id="Node000002" class="node">
<title>Node2</title>
<g id="a_Node000002"><a xlink:href="../../d7/d85/classlci_1_1post__put__x.html#a8e042fb4a730b203593842d84209a739" target="_top" xlink:title=" ">
<polygon fill="white" stroke="#666666" points="222,-431.3 112,-431.3 112,-412.3 222,-412.3 222,-431.3"/>
<text text-anchor="middle" x="167" y="-419.3" font-family="Helvetica,sans-Serif" font-size="10.00">lci::post_put_x::call</text>
</a>
</g>
</g>
<!-- Node1&#45;&gt;Node2 -->
<g id="edge1_Node000001_Node000002" class="edge">
<title>Node1&#45;&gt;Node2</title>
<g id="a_edge1_Node000001_Node000002"><a xlink:title=" ">
<path fill="none" stroke="#63b8ff" d="M76.08,-421.8C84.07,-421.8 92.75,-421.8 101.46,-421.8"/>
<polygon fill="#63b8ff" stroke="#63b8ff" points="101.65,-425.3 111.65,-421.8 101.65,-418.3 101.65,-425.3"/>
</a>
</g>
</g>
<!-- Node3 -->
<g id="Node000003" class="node">
<title>Node3</title>
<g id="a_Node000003"><a xlink:href="../../d7/d85/classlci_1_1post__put__x.html#a7c47be347b9cd58177cf852427875c1d" target="_top" xlink:title=" ">
<polygon fill="white" stroke="#666666" points="586,-846.3 437,-846.3 437,-827.3 586,-827.3 586,-846.3"/>
<text text-anchor="middle" x="511.5" y="-834.3" font-family="Helvetica,sans-Serif" font-size="10.00">lci::post_put_x::allow_done</text>
</a>
</g>
</g>
<!-- Node2&#45;&gt;Node3 -->
<g id="edge2_Node000002_Node000003" class="edge">
<title>Node2&#45;&gt;Node3</title>
<g id="a_edge2_Node000002_Node000003"><a xlink:title=" ">
<path fill="none" stroke="#63b8ff" d="M169.21,-431.52C175.76,-482.46 208.39,-718.08 258,-768.8 301.78,-813.56 371.67,-829.83 426.84,-835.31"/>
<polygon fill="#63b8ff" stroke="#63b8ff" points="426.68,-838.81 436.95,-836.22 427.3,-831.84 426.68,-838.81"/>
</a>
</g>
</g>
<!-- Node5 -->
<g id="Node000005" class="node">
<title>Node5</title>
<g id="a_Node000005"><a xlink:href="../../d7/d85/classlci_1_1post__put__x.html#afe193737cce6daaf2317f9bb6ea49c9d" target="_top" xlink:title=" ">
<polygon fill="white" stroke="#666666" points="571,-808.8 452,-808.8 452,-778.8 571,-778.8 571,-808.8"/>
<text text-anchor="start" x="460" y="-796.8" font-family="Helvetica,sans-Serif" font-size="10.00">lci::post_put_x::allow</text>
<text text-anchor="middle" x="511.5" y="-785.8" font-family="Helvetica,sans-Serif" font-size="10.00">_posted</text>
</a>
</g>
</g>
<!-- Node2&#45;&gt;Node5 -->
<g id="edge4_Node000002_Node000005" class="edge">
<title>Node2&#45;&gt;Node5</title>
<g id="a_edge4_Node000002_Node000005"><a xlink:title=" ">
<path fill="none" stroke="#63b8ff" d="M167.74,-431.34C167.16,-472.82 170.52,-639.22 258,-724.8 306.7,-772.44 384.96,-787.95 441.45,-792.62"/>
<polygon fill="#63b8ff" stroke="#63b8ff" points="441.5,-796.13 451.73,-793.37 442.01,-789.15 441.5,-796.13"/>
</a>
</g>
</g>
<!-- Node6 -->
<g id="Node000006" class="node">
<title>Node6</title>
<g id="a_Node000006"><a xlink:href="../../d7/d85/classlci_1_1post__put__x.html#a9c3eee39d20edda920f82a4f6824fc28" target="_top" xlink:title=" ">
<polygon fill="white" stroke="#666666" points="571,-760.8 452,-760.8 452,-730.8 571,-730.8 571,-760.8"/>
<text text-anchor="start" x="460" y="-748.8" font-family="Helvetica,sans-Serif" font-size="10.00">lci::post_put_x::allow</text>
<text text-anchor="middle" x="511.5" y="-737.8" font-family="Helvetica,sans-Serif" font-size="10.00">_retry</text>
</a>
</g>
</g>
<!-- Node2&#45;&gt;Node6 -->
<g id="edge6_Node000002_Node000006" class="edge">
<title>Node2&#45;&gt;Node6</title>
<g id="a_edge6_Node000002_Node000006"><a xlink:title=" ">
<path fill="none" stroke="#63b8ff" d="M168.22,-431.35C169.62,-469.37 180.07,-611.41 258,-682.8 307.79,-728.41 385.5,-742.24 441.56,-745.85"/>
<polygon fill="#63b8ff" stroke="#63b8ff" points="441.59,-749.35 451.77,-746.41 441.97,-742.36 441.59,-749.35"/>
</a>
</g>
</g>
<!-- Node7 -->
<g id="Node000007" class="node">
<title>Node7</title>
<g id="a_Node000007"><a xlink:href="../../d7/d85/classlci_1_1post__put__x.html#a7a7860a8c1743c159d558247509b673f" target="_top" xlink:title=" ">
<polygon fill="white" stroke="#666666" points="575,-712.3 448,-712.3 448,-693.3 575,-693.3 575,-712.3"/>
<text text-anchor="middle" x="511.5" y="-700.3" font-family="Helvetica,sans-Serif" font-size="10.00">lci::post_put_x::buffers</text>
</a>
</g>
</g>
<!-- Node2&#45;&gt;Node7 -->
<g id="edge8_Node000002_Node000007" class="edge">
<title>Node2&#45;&gt;Node7</title>
<g id="a_edge8_Node000002_Node000007"><a xlink:title=" ">
<path fill="none" stroke="#63b8ff" d="M168.9,-431.5C172.65,-465.93 190.11,-583.41 258,-641.8 307.73,-684.57 382.46,-698.43 437.73,-702.43"/>
<polygon fill="#63b8ff" stroke="#63b8ff" points="437.61,-705.93 447.81,-703.06 438.05,-698.94 437.61,-705.93"/>
</a>
</g>
</g>
<!-- Node8 -->
<g id="Node000008" class="node">
<title>Node8</title>
<g id="a_Node000008"><a xlink:href="../../d7/d85/classlci_1_1post__put__x.html#a6473aac2999a69f1165c785a4bfacde1" target="_top" xlink:title=" ">
<polygon fill="white" stroke="#666666" points="395,-450.3 258,-450.3 258,-431.3 395,-431.3 395,-450.3"/>
<text text-anchor="middle" x="326.5" y="-438.3" font-family="Helvetica,sans-Serif" font-size="10.00">lci::post_put_x::call_impl</text>
</a>
</g>
</g>
<!-- Node2&#45;&gt;Node8 -->
<g id="edge10_Node000002_Node000008" class="edge">
<title>Node2&#45;&gt;Node8</title>
<g id="a_edge10_Node000002_Node000008"><a xlink:title=" ">
<path fill="none" stroke="#63b8ff" d="M222.2,-428.34C230.45,-429.33 239.1,-430.38 247.74,-431.42"/>
<polygon fill="#63b8ff" stroke="#63b8ff" points="247.49,-434.91 257.84,-432.64 248.33,-427.96 247.49,-434.91"/>
</a>
</g>
</g>
<!-- Node9 -->
<g id="Node000009" class="node">
<title>Node9</title>
<g id="a_Node000009"><a xlink:href="../../d7/d85/classlci_1_1post__put__x.html#a8760591ebcfb437bc49000c47b473227" target="_top" xlink:title=" ">
<polygon fill="white" stroke="#666666" points="571.5,-674.8 451.5,-674.8 451.5,-644.8 571.5,-644.8 571.5,-674.8"/>
<text text-anchor="start" x="459.5" y="-662.8" font-family="Helvetica,sans-Serif" font-size="10.00">lci::post_put_x::comp</text>
<text text-anchor="middle" x="511.5" y="-651.8" font-family="Helvetica,sans-Serif" font-size="10.00">_semantic</text>
</a>
</g>
</g>
<!-- Node2&#45;&gt;Node9 -->
<g id="edge49_Node000002_Node000009" class="edge">
<title>Node2&#45;&gt;Node9</title>
<g id="a_edge49_Node000002_Node000009"><a xlink:title=" ">
<path fill="none" stroke="#63b8ff" d="M169.81,-431.43C176.04,-461.73 199.51,-555.79 258,-601.8 310.25,-642.9 386.34,-655.87 441.31,-659.5"/>
<polygon fill="#63b8ff" stroke="#63b8ff" points="441.14,-662.99 451.32,-660.07 441.54,-656.01 441.14,-662.99"/>
</a>
</g>
</g>
<!-- Node10 -->
<g id="Node000010" class="node">
<title>Node10</title>
<g id="a_Node000010"><a xlink:href="../../d7/d85/classlci_1_1post__put__x.html#a0d0c3eb11071c0039598976d9fd4dd39" target="_top" xlink:title=" ">
<polygon fill="white" stroke="#666666" points="574,-626.3 449,-626.3 449,-607.3 574,-607.3 574,-626.3"/>
<text text-anchor="middle" x="511.5" y="-614.3" font-family="Helvetica,sans-Serif" font-size="10.00">lci::post_put_x::device</text>
</a>
</g>
</g>
<!-- Node2&#45;&gt;Node10 -->
<g id="edge50_Node000002_Node000010" class="edge">
<title>Node2&#45;&gt;Node10</title>
<g id="a_edge50_Node000002_Node000010"><a xlink:title=" ">
<path fill="none" stroke="#63b8ff" d="M171.02,-431.33C179.78,-457.36 207.85,-530.04 258,-564.8 311.13,-601.63 384.69,-613.45 438.71,-616.76"/>
<polygon fill="#63b8ff" stroke="#63b8ff" points="438.73,-620.27 448.9,-617.3 439.1,-613.28 438.73,-620.27"/>
</a>
</g>
</g>
<!-- Node11 -->
<g id="Node000011" class="node">
<title>Node11</title>
<g id="a_Node000011"><a xlink:href="../../d7/d85/classlci_1_1post__put__x.html#a220f22ad49076dd1dbe975d750bebf4e" target="_top" xlink:title=" ">
<polygon fill="white" stroke="#666666" points="579.5,-589.3 443.5,-589.3 443.5,-570.3 579.5,-570.3 579.5,-589.3"/>
<text text-anchor="middle" x="511.5" y="-577.3" font-family="Helvetica,sans-Serif" font-size="10.00">lci::post_put_x::endpoint</text>
</a>
</g>
</g>
<!-- Node2&#45;&gt;Node11 -->
<g id="edge51_Node000002_Node000011" class="edge">
<title>Node2&#45;&gt;Node11</title>
<g id="a_edge51_Node000002_Node000011"><a xlink:title=" ">
<path fill="none" stroke="#63b8ff" d="M173.01,-431.46C184.7,-452.98 216.03,-504.88 258,-529.8 311.14,-561.35 380.54,-573.4 433.14,-577.82"/>
<polygon fill="#63b8ff" stroke="#63b8ff" points="433.18,-581.33 443.42,-578.6 433.72,-574.35 433.18,-581.33"/>
</a>
</g>
</g>
<!-- Node12 -->
<g id="Node000012" class="node">
<title>Node12</title>
<g id="a_Node000012"><a xlink:href="../../d7/d85/classlci_1_1post__put__x.html#a8d834babe24c1337fc4c9cf80e1a240f" target="_top" xlink:title=" ">
<polygon fill="white" stroke="#666666" points="570.5,-551.8 452.5,-551.8 452.5,-521.8 570.5,-521.8 570.5,-551.8"/>
<text text-anchor="start" x="460.5" y="-539.8" font-family="Helvetica,sans-Serif" font-size="10.00">lci::post_put_x::force</text>
<text text-anchor="middle" x="511.5" y="-528.8" font-family="Helvetica,sans-Serif" font-size="10.00">_zcopy</text>
</a>
</g>
</g>
<!-- Node2&#45;&gt;Node12 -->
<g id="edge52_Node000002_Node000012" class="edge">
<title>Node2&#45;&gt;Node12</title>
<g id="a_edge52_Node000002_Node000012"><a xlink:title=" ">
<path fill="none" stroke="#63b8ff" d="M175.74,-431.41C190.01,-448.39 222.29,-483.43 258,-499.8 316.43,-526.58 389.73,-534.89 442.28,-537.06"/>
<polygon fill="#63b8ff" stroke="#63b8ff" points="442.38,-540.57 452.5,-537.42 442.63,-533.57 442.38,-540.57"/>
</a>
</g>
</g>
<!-- Node13 -->
<g id="Node000013" class="node">
<title>Node13</title>
<g id="a_Node000013"><a xlink:href="../../d7/d85/classlci_1_1post__put__x.html#a58f72581ef272b40fd6e6d8e3abd0d41" target="_top" xlink:title=" ">
<polygon fill="white" stroke="#666666" points="569.5,-503.8 453.5,-503.8 453.5,-473.8 569.5,-473.8 569.5,-503.8"/>
<text text-anchor="start" x="461.5" y="-491.8" font-family="Helvetica,sans-Serif" font-size="10.00">lci::post_put_x::local</text>
<text text-anchor="middle" x="511.5" y="-480.8" font-family="Helvetica,sans-Serif" font-size="10.00">_buffer</text>
</a>
</g>
</g>
<!-- Node2&#45;&gt;Node13 -->
<g id="edge53_Node000002_Node000013" class="edge">
<title>Node2&#45;&gt;Node13</title>
<g id="a_edge53_Node000002_Node000013"><a xlink:title=" ">
<path fill="none" stroke="#63b8ff" d="M179.3,-431.34C195.5,-444.38 226.84,-467.23 258,-476.8 318.76,-495.46 391.6,-496.85 443.39,-494.53"/>
<polygon fill="#63b8ff" stroke="#63b8ff" points="443.65,-498.02 453.46,-494.02 443.3,-491.03 443.65,-498.02"/>
</a>
</g>
</g>
<!-- Node14 -->
<g id="Node000014" class="node">
<title>Node14</title>
<g id="a_Node000014"><a xlink:href="../../d7/d85/classlci_1_1post__put__x.html#ab566a71233e425c23cfe9b2d03e29c8c" target="_top" xlink:title=" ">
<polygon fill="white" stroke="#666666" points="586,-455.3 437,-455.3 437,-436.3 586,-436.3 586,-455.3"/>
<text text-anchor="middle" x="511.5" y="-443.3" font-family="Helvetica,sans-Serif" font-size="10.00">lci::post_put_x::local_comp</text>
</a>
</g>
</g>
<!-- Node2&#45;&gt;Node14 -->
<g id="edge54_Node000002_Node000014" class="edge">
<title>Node2&#45;&gt;Node14</title>
<g id="a_edge54_Node000002_Node000014"><a xlink:title=" ">
<path fill="none" stroke="#63b8ff" d="M184.93,-431.38C202.54,-440.75 231.24,-454.38 258,-459.8 324.36,-473.23 402.4,-465.4 453.97,-457.05"/>
<polygon fill="#63b8ff" stroke="#63b8ff" points="454.63,-460.49 463.92,-455.38 453.47,-453.58 454.63,-460.49"/>
</a>
</g>
</g>
<!-- Node15 -->
<g id="Node000015" class="node">
<title>Node15</title>
<g id="a_Node000015"><a xlink:href="../../d7/d85/classlci_1_1post__put__x.html#ade34aae8efdd4222af3a16bf0dc5da18" target="_top" xlink:title=" ">
<polygon fill="white" stroke="#666666" points="565,-418.3 458,-418.3 458,-399.3 565,-399.3 565,-418.3"/>
<text text-anchor="middle" x="511.5" y="-406.3" font-family="Helvetica,sans-Serif" font-size="10.00">lci::post_put_x::mr</text>
</a>
</g>
</g>
<!-- Node2&#45;&gt;Node15 -->
<g id="edge55_Node000002_Node000015" class="edge">
<title>Node2&#45;&gt;Node15</title>
<g id="a_edge55_Node000002_Node000015"><a xlink:title=" ">
<path fill="none" stroke="#63b8ff" d="M222.27,-419.74C283.59,-417.41 383.25,-413.63 447.84,-411.18"/>
<polygon fill="#63b8ff" stroke="#63b8ff" points="448.03,-414.67 457.89,-410.8 447.76,-407.68 448.03,-414.67"/>
</a>
</g>
</g>
<!-- Node16 -->
<g id="Node000016" class="node">
<title>Node16</title>
<g id="a_Node000016"><a xlink:href="../../d7/d85/classlci_1_1post__put__x.html#a6197b81f323b36c577bb1632ddbf043a" target="_top" xlink:title=" ">
<polygon fill="white" stroke="#666666" points="587.5,-381.3 435.5,-381.3 435.5,-362.3 587.5,-362.3 587.5,-381.3"/>
<text text-anchor="middle" x="511.5" y="-369.3" font-family="Helvetica,sans-Serif" font-size="10.00">lci::post_put_x::packet_pool</text>
</a>
</g>
</g>
<!-- Node2&#45;&gt;Node16 -->
<g id="edge56_Node000002_Node000016" class="edge">
<title>Node2&#45;&gt;Node16</title>
<g id="a_edge56_Node000002_Node000016"><a xlink:title=" ">
<path fill="none" stroke="#63b8ff" d="M222.27,-413.88C279.74,-405.49 370.89,-392.18 435.28,-382.78"/>
<polygon fill="#63b8ff" stroke="#63b8ff" points="435.98,-386.21 445.37,-381.31 434.97,-379.29 435.98,-386.21"/>
</a>
</g>
</g>
<!-- Node17 -->
<g id="Node000017" class="node">
<title>Node17</title>
<g id="a_Node000017"><a xlink:href="../../d7/d85/classlci_1_1post__put__x.html#a14eb2ef67f761ab5ea877afe67212fca" target="_top" xlink:title=" ">
<polygon fill="white" stroke="#666666" points="569,-344.3 454,-344.3 454,-325.3 569,-325.3 569,-344.3"/>
<text text-anchor="middle" x="511.5" y="-332.3" font-family="Helvetica,sans-Serif" font-size="10.00">lci::post_put_x::rank</text>
</a>
</g>
</g>
<!-- Node2&#45;&gt;Node17 -->
<g id="edge57_Node000002_Node000017" class="edge">
<title>Node2&#45;&gt;Node17</title>
<g id="a_edge57_Node000002_Node000017"><a xlink:title=" ">
<path fill="none" stroke="#63b8ff" d="M187.97,-412.27C205.94,-404.02 233.25,-392.26 258,-384.8 319.87,-366.15 392.41,-352.61 443.83,-344.37"/>
<polygon fill="#63b8ff" stroke="#63b8ff" points="444.49,-347.81 453.82,-342.79 443.4,-340.89 444.49,-347.81"/>
</a>
</g>
</g>
<!-- Node18 -->
<g id="Node000018" class="node">
<title>Node18</title>
<g id="a_Node000018"><a xlink:href="../../d7/d85/classlci_1_1post__put__x.html#a982c74e0cc559c2e2d3e33fe59b0761b" target="_top" xlink:title=" ">
<polygon fill="white" stroke="#666666" points="577,-307.3 446,-307.3 446,-288.3 577,-288.3 577,-307.3"/>
<text text-anchor="middle" x="511.5" y="-295.3" font-family="Helvetica,sans-Serif" font-size="10.00">lci::post_put_x::rbuffers</text>
</a>
</g>
</g>
<!-- Node2&#45;&gt;Node18 -->
<g id="edge58_Node000002_Node000018" class="edge">
<title>Node2&#45;&gt;Node18</title>
<g id="a_edge58_Node000002_Node000018"><a xlink:title=" ">
<path fill="none" stroke="#63b8ff" d="M176.67,-412.24C191.63,-396.4 223.97,-364.84 258,-348.8 314.23,-322.3 383.83,-309.54 435.7,-303.42"/>
<polygon fill="#63b8ff" stroke="#63b8ff" points="436.29,-306.87 445.83,-302.28 435.51,-299.92 436.29,-306.87"/>
</a>
</g>
</g>
<!-- Node19 -->
<g id="Node000019" class="node">
<title>Node19</title>
<g id="a_Node000019"><a xlink:href="../../d7/d85/classlci_1_1post__put__x.html#ade9717efe47757e92549b22b50bb6d14" target="_top" xlink:title=" ">
<polygon fill="white" stroke="#666666" points="575.5,-269.8 447.5,-269.8 447.5,-239.8 575.5,-239.8 575.5,-269.8"/>
<text text-anchor="start" x="455.5" y="-257.8" font-family="Helvetica,sans-Serif" font-size="10.00">lci::post_put_x::remote</text>
<text text-anchor="middle" x="511.5" y="-246.8" font-family="Helvetica,sans-Serif" font-size="10.00">_buffer</text>
</a>
</g>
</g>
<!-- Node2&#45;&gt;Node19 -->
<g id="edge59_Node000002_Node000019" class="edge">
<title>Node2&#45;&gt;Node19</title>
<g id="a_edge59_Node000002_Node000019"><a xlink:title=" ">
<path fill="none" stroke="#63b8ff" d="M172.45,-412.02C183.41,-389.16 214.01,-332.09 258,-304.8 312.05,-271.27 384.04,-259.57 437.33,-255.79"/>
<polygon fill="#63b8ff" stroke="#63b8ff" points="437.63,-259.27 447.39,-255.15 437.18,-252.29 437.63,-259.27"/>
</a>
</g>
</g>
<!-- Node20 -->
<g id="Node000020" class="node">
<title>Node20</title>
<g id="a_Node000020"><a xlink:href="../../d7/d85/classlci_1_1post__put__x.html#ad4bc08cb1aef1932ac79961748f76dd2" target="_top" xlink:title=" ">
<polygon fill="white" stroke="#666666" points="592,-221.3 431,-221.3 431,-202.3 592,-202.3 592,-221.3"/>
<text text-anchor="middle" x="511.5" y="-209.3" font-family="Helvetica,sans-Serif" font-size="10.00">lci::post_put_x::remote_comp</text>
</a>
</g>
</g>
<!-- Node2&#45;&gt;Node20 -->
<g id="edge60_Node000002_Node000020" class="edge">
<title>Node2&#45;&gt;Node20</title>
<g id="a_edge60_Node000002_Node000020"><a xlink:title=" ">
<path fill="none" stroke="#63b8ff" d="M170.19,-412.02C177.21,-383.03 202.12,-297.02 258,-256.8 304.75,-223.14 368.74,-212.01 420.6,-209.23"/>
<polygon fill="#63b8ff" stroke="#63b8ff" points="420.97,-212.72 430.8,-208.79 420.66,-205.73 420.97,-212.72"/>
</a>
</g>
</g>
<!-- Node21 -->
<g id="Node000021" class="node">
<title>Node21</title>
<g id="a_Node000021"><a xlink:href="../../d7/d85/classlci_1_1post__put__x.html#aae3220b86cd474558b37f2f7787a0f54" target="_top" xlink:title=" ">
<polygon fill="white" stroke="#666666" points="566.5,-184.3 456.5,-184.3 456.5,-165.3 566.5,-165.3 566.5,-184.3"/>
<text text-anchor="middle" x="511.5" y="-172.3" font-family="Helvetica,sans-Serif" font-size="10.00">lci::post_put_x::rmr</text>
</a>
</g>
</g>
<!-- Node2&#45;&gt;Node21 -->
<g id="edge61_Node000002_Node000021" class="edge">
<title>Node2&#45;&gt;Node21</title>
<g id="a_edge61_Node000002_Node000021"><a xlink:title=" ">
<path fill="none" stroke="#63b8ff" d="M168.76,-412.05C172.04,-377.48 188.11,-259.95 258,-206.8 311.64,-166 390.98,-162.46 446.36,-166.26"/>
<polygon fill="#63b8ff" stroke="#63b8ff" points="446.17,-169.75 456.42,-167.05 446.72,-162.78 446.17,-169.75"/>
</a>
</g>
</g>
<!-- Node22 -->
<g id="Node000022" class="node">
<title>Node22</title>
<g id="a_Node000022"><a xlink:href="../../d7/d85/classlci_1_1post__put__x.html#a1b9f0551ed3b7e0b726a15b8c4eb7315" target="_top" xlink:title=" ">
<polygon fill="white" stroke="#666666" points="577,-147.3 446,-147.3 446,-128.3 577,-128.3 577,-147.3"/>
<text text-anchor="middle" x="511.5" y="-135.3" font-family="Helvetica,sans-Serif" font-size="10.00">lci::post_put_x::runtime</text>
</a>
</g>
</g>
<!-- Node2&#45;&gt;Node22 -->
<g id="edge62_Node000002_Node000022" class="edge">
<title>Node2&#45;&gt;Node22</title>
<g id="a_edge62_Node000002_Node000022"><a xlink:title=" ">
<path fill="none" stroke="#63b8ff" d="M167.91,-412.16C168.13,-373.18 174.63,-226.14 258,-160.8 313.61,-117.21 398.75,-119.24 454.52,-126.82"/>
<polygon fill="#63b8ff" stroke="#63b8ff" points="454.18,-130.31 464.58,-128.29 455.2,-123.38 454.18,-130.31"/>
</a>
</g>
</g>
<!-- Node23 -->
<g id="Node000023" class="node">
<title>Node23</title>
<g id="a_Node000023"><a xlink:href="../../d7/d85/classlci_1_1post__put__x.html#a8e4a92835eb5373cd0c4a8f7d052ba3a" target="_top" xlink:title=" ">
<polygon fill="white" stroke="#666666" points="568,-110.3 455,-110.3 455,-91.3 568,-91.3 568,-110.3"/>
<text text-anchor="middle" x="511.5" y="-98.3" font-family="Helvetica,sans-Serif" font-size="10.00">lci::post_put_x::size</text>
</a>
</g>
</g>
<!-- Node2&#45;&gt;Node23 -->
<g id="edge63_Node000002_Node000023" class="edge">
<title>Node2&#45;&gt;Node23</title>
<g id="a_edge63_Node000002_Node000023"><a xlink:title=" ">
<path fill="none" stroke="#63b8ff" d="M169.37,-412.17C176.33,-364.75 209.34,-156.76 258,-117.8 315.96,-71.4 407.42,-78.85 462.9,-89.27"/>
<polygon fill="#63b8ff" stroke="#63b8ff" points="462.34,-92.73 472.83,-91.24 463.7,-85.86 462.34,-92.73"/>
</a>
</g>
</g>
<!-- Node24 -->
<g id="Node000024" class="node">
<title>Node24</title>
<g id="a_Node000024"><a xlink:href="../../d7/d85/classlci_1_1post__put__x.html#a763b19426bad9e0c38a368006cd9bdc6" target="_top" xlink:title=" ">
<polygon fill="white" stroke="#666666" points="566,-73.3 457,-73.3 457,-54.3 566,-54.3 566,-73.3"/>
<text text-anchor="middle" x="511.5" y="-61.3" font-family="Helvetica,sans-Serif" font-size="10.00">lci::post_put_x::tag</text>
</a>
</g>
</g>
<!-- Node2&#45;&gt;Node24 -->
<g id="edge64_Node000002_Node000024" class="edge">
<title>Node2&#45;&gt;Node24</title>
<g id="a_edge64_Node000002_Node000024"><a xlink:title=" ">
<path fill="none" stroke="#63b8ff" d="M168.99,-412.26C174.52,-361.25 203.17,-121.46 258,-76.8 316.95,-28.78 411.73,-39.79 466.86,-51.93"/>
<polygon fill="#63b8ff" stroke="#63b8ff" points="466.14,-55.36 476.68,-54.2 467.72,-48.54 466.14,-55.36"/>
</a>
</g>
</g>
<!-- Node25 -->
<g id="Node000025" class="node">
<title>Node25</title>
<g id="a_Node000025"><a xlink:href="../../d7/d85/classlci_1_1post__put__x.html#a0b3a2ef72e0d53ef059b56ba1db406ae" target="_top" xlink:title=" ">
<polygon fill="white" stroke="#666666" points="568.5,-35.8 454.5,-35.8 454.5,-5.8 568.5,-5.8 568.5,-35.8"/>
<text text-anchor="start" x="462.5" y="-23.8" font-family="Helvetica,sans-Serif" font-size="10.00">lci::post_put_x::user</text>
<text text-anchor="middle" x="511.5" y="-12.8" font-family="Helvetica,sans-Serif" font-size="10.00">_context</text>
</a>
</g>
</g>
<!-- Node2&#45;&gt;Node25 -->
<g id="edge65_Node000002_Node000025" class="edge">
<title>Node2&#45;&gt;Node25</title>
<g id="a_edge65_Node000002_Node000025"><a xlink:title=" ">
<path fill="none" stroke="#63b8ff" d="M168.74,-412.3C173.16,-358.11 197.97,-88.76 258,-37.8 308.76,5.3 387.93,3.32 444.07,-5.46"/>
<polygon fill="#63b8ff" stroke="#63b8ff" points="443.83,-8.97 454.27,-7.17 444.99,-2.07 443.83,-8.97"/>
</a>
</g>
</g>
<!-- Node4 -->
<g id="Node000004" class="node">
<title>Node4</title>
<g id="a_Node000004"><a xlink:href="../../d7/d85/classlci_1_1post__put__x.html#acd6573ce439a8cead4c0cce5c9757c41" target="_top" xlink:title=" ">
<polygon fill="white" stroke="#666666" points="742,-423.8 628,-423.8 628,-393.8 742,-393.8 742,-423.8"/>
<text text-anchor="start" x="636" y="-411.8" font-family="Helvetica,sans-Serif" font-size="10.00">lci::post_put_x::post</text>
<text text-anchor="middle" x="685" y="-400.8" font-family="Helvetica,sans-Serif" font-size="10.00">_put_x</text>
</a>
</g>
</g>
<!-- Node3&#45;&gt;Node4 -->
<g id="edge3_Node000003_Node000004" class="edge">
<title>Node3&#45;&gt;Node4</title>
<g id="a_edge3_Node000003_Node000004"><a xlink:title=" ">
<path fill="none" stroke="#63b8ff" d="M579.03,-827.28C583.8,-824.75 588.21,-821.64 592,-817.8 646.56,-762.51 674.1,-515.06 681.74,-434.35"/>
<polygon fill="#63b8ff" stroke="#63b8ff" points="685.25,-434.38 682.69,-424.1 678.28,-433.74 685.25,-434.38"/>
</a>
</g>
</g>
<!-- Node5&#45;&gt;Node4 -->
<g id="edge5_Node000005_Node000004" class="edge">
<title>Node5&#45;&gt;Node4</title>
<g id="a_edge5_Node000005_Node000004"><a xlink:title=" ">
<path fill="none" stroke="#63b8ff" d="M571.23,-783.78C578.97,-780.37 586.22,-775.84 592,-769.8 639.11,-720.58 670.99,-507.87 680.8,-434.1"/>
<polygon fill="#63b8ff" stroke="#63b8ff" points="684.31,-434.25 682.14,-423.88 677.37,-433.34 684.31,-434.25"/>
</a>
</g>
</g>
<!-- Node6&#45;&gt;Node4 -->
<g id="edge7_Node000006_Node000004" class="edge">
<title>Node6&#45;&gt;Node4</title>
<g id="a_edge7_Node000006_Node000004"><a xlink:title=" ">
<path fill="none" stroke="#63b8ff" d="M571.03,-735.59C578.81,-732.21 586.11,-727.73 592,-721.8 672.41,-640.8 683.23,-493.38 684.2,-434.29"/>
<polygon fill="#63b8ff" stroke="#63b8ff" points="687.7,-434.04 684.28,-424.01 680.7,-433.98 687.7,-434.04"/>
</a>
</g>
</g>
<!-- Node7&#45;&gt;Node4 -->
<g id="edge9_Node000007_Node000004" class="edge">
<title>Node7&#45;&gt;Node4</title>
<g id="a_edge9_Node000007_Node000004"><a xlink:title=" ">
<path fill="none" stroke="#63b8ff" d="M575.11,-694.49C581.29,-691.79 587.08,-688.3 592,-683.8 665.65,-616.38 680.4,-488.36 683.31,-434.11"/>
<polygon fill="#63b8ff" stroke="#63b8ff" points="686.81,-434.14 683.76,-423.99 679.82,-433.83 686.81,-434.14"/>
</a>
</g>
</g>
<!-- Node8&#45;&gt;Node3 -->
<g id="edge11_Node000008_Node000003" class="edge">
<title>Node8&#45;&gt;Node3</title>
<g id="a_edge11_Node000008_Node000003"><a xlink:title=" ">
<path fill="none" stroke="#63b8ff" d="M328.8,-450.34C336.23,-503.6 375.02,-763.65 431,-817.8 432.49,-819.24 434.07,-820.58 435.73,-821.83"/>
<polygon fill="#63b8ff" stroke="#63b8ff" points="434.2,-825 444.55,-827.28 437.88,-819.04 434.2,-825"/>
</a>
</g>
</g>
<!-- Node8&#45;&gt;Node5 -->
<g id="edge12_Node000008_Node000005" class="edge">
<title>Node8&#45;&gt;Node5</title>
<g id="a_edge12_Node000008_Node000005"><a xlink:title=" ">
<path fill="none" stroke="#63b8ff" d="M327.48,-450.52C327.91,-494.34 335.61,-675.51 431,-769.8 434.47,-773.23 438.41,-776.17 442.64,-778.7"/>
<polygon fill="#63b8ff" stroke="#63b8ff" points="441.17,-781.87 451.66,-783.31 444.35,-775.64 441.17,-781.87"/>
</a>
</g>
</g>
<!-- Node8&#45;&gt;Node6 -->
<g id="edge13_Node000008_Node000006" class="edge">
<title>Node8&#45;&gt;Node6</title>
<g id="a_edge13_Node000008_Node000006"><a xlink:title=" ">
<path fill="none" stroke="#63b8ff" d="M328.07,-450.43C330.92,-490.15 347.18,-642.84 431,-721.8 434.55,-725.14 438.55,-728.03 442.83,-730.5"/>
<polygon fill="#63b8ff" stroke="#63b8ff" points="441.4,-733.71 451.91,-735.05 444.54,-727.45 441.4,-733.71"/>
</a>
</g>
</g>
<!-- Node8&#45;&gt;Node7 -->
<g id="edge14_Node000008_Node000007" class="edge">
<title>Node8&#45;&gt;Node7</title>
<g id="a_edge14_Node000008_Node000007"><a xlink:title=" ">
<path fill="none" stroke="#63b8ff" d="M328.55,-450.5C333.08,-487.23 354.28,-619 431,-683.8 433.42,-685.84 436.01,-687.67 438.74,-689.31"/>
<polygon fill="#63b8ff" stroke="#63b8ff" points="437.34,-692.52 447.85,-693.92 440.51,-686.28 437.34,-692.52"/>
</a>
</g>
</g>
<!-- Node8&#45;&gt;Node9 -->
<g id="edge15_Node000008_Node000009" class="edge">
<title>Node8&#45;&gt;Node9</title>
<g id="a_edge15_Node000008_Node000009"><a xlink:title=" ">
<path fill="none" stroke="#63b8ff" d="M329.83,-450.62C337.88,-482.44 367.64,-583.72 431,-635.8 434.48,-638.66 438.29,-641.17 442.3,-643.39"/>
<polygon fill="#63b8ff" stroke="#63b8ff" points="440.83,-646.57 451.35,-647.79 443.88,-640.27 440.83,-646.57"/>
</a>
</g>
</g>
<!-- Node8&#45;&gt;Node10 -->
<g id="edge17_Node000008_Node000010" class="edge">
<title>Node8&#45;&gt;Node10</title>
<g id="a_edge17_Node000008_Node000010"><a xlink:title=" ">
<path fill="none" stroke="#63b8ff" d="M330.84,-450.47C341.02,-478.37 374.43,-559.53 431,-598.8 433.73,-600.7 436.63,-602.4 439.65,-603.92"/>
<polygon fill="#63b8ff" stroke="#63b8ff" points="438.41,-607.2 448.98,-607.98 441.21,-600.78 438.41,-607.2"/>
</a>
</g>
</g>
<!-- Node8&#45;&gt;Node11 -->
<g id="edge19_Node000008_Node000011" class="edge">
<title>Node8&#45;&gt;Node11</title>
<g id="a_edge19_Node000008_Node000011"><a xlink:title=" ">
<path fill="none" stroke="#63b8ff" d="M332.84,-450.37C346.17,-473.32 383.3,-531.76 431,-560.8 434.61,-563 438.46,-564.94 442.45,-566.66"/>
<polygon fill="#63b8ff" stroke="#63b8ff" points="441.34,-569.99 451.93,-570.28 443.84,-563.45 441.34,-569.99"/>
</a>
</g>
</g>
<!-- Node8&#45;&gt;Node12 -->
<g id="edge21_Node000008_Node000012" class="edge">
<title>Node8&#45;&gt;Node12</title>
<g id="a_edge21_Node000008_Node000012"><a xlink:title=" ">
<path fill="none" stroke="#63b8ff" d="M338.85,-450.52C357.14,-465.74 394.74,-495.26 431,-512.8 434.98,-514.72 439.14,-516.53 443.39,-518.22"/>
<polygon fill="#63b8ff" stroke="#63b8ff" points="442.2,-521.51 452.79,-521.74 444.65,-514.95 442.2,-521.51"/>
</a>
</g>
</g>
<!-- Node8&#45;&gt;Node13 -->
<g id="edge23_Node000008_Node000013" class="edge">
<title>Node8&#45;&gt;Node13</title>
<g id="a_edge23_Node000008_Node000013"><a xlink:title=" ">
<path fill="none" stroke="#63b8ff" d="M364.09,-450.4C386.85,-456.37 416.8,-464.22 443.68,-471.27"/>
<polygon fill="#63b8ff" stroke="#63b8ff" points="442.87,-474.68 453.43,-473.83 444.64,-467.91 442.87,-474.68"/>
</a>
</g>
</g>
<!-- Node8&#45;&gt;Node14 -->
<g id="edge25_Node000008_Node000014" class="edge">
<title>Node8&#45;&gt;Node14</title>
<g id="a_edge25_Node000008_Node000014"><a xlink:title=" ">
<path fill="none" stroke="#63b8ff" d="M395.12,-442.65C405.38,-442.93 416.08,-443.22 426.63,-443.51"/>
<polygon fill="#63b8ff" stroke="#63b8ff" points="426.6,-447.01 436.69,-443.78 426.79,-440.01 426.6,-447.01"/>
</a>
</g>
</g>
<!-- Node8&#45;&gt;Node15 -->
<g id="edge27_Node000008_Node000015" class="edge">
<title>Node8&#45;&gt;Node15</title>
<g id="a_edge27_Node000008_Node000015"><a xlink:title=" ">
<path fill="none" stroke="#63b8ff" d="M381.91,-431.28C402.65,-427.66 426.45,-423.5 447.88,-419.75"/>
<polygon fill="#63b8ff" stroke="#63b8ff" points="448.62,-423.17 457.87,-418 447.42,-416.28 448.62,-423.17"/>
</a>
</g>
</g>
<!-- Node8&#45;&gt;Node16 -->
<g id="edge29_Node000008_Node000016" class="edge">
<title>Node8&#45;&gt;Node16</title>
<g id="a_edge29_Node000008_Node000016"><a xlink:title=" ">
<path fill="none" stroke="#63b8ff" d="M344.59,-431.13C364.71,-420.07 399.42,-402.05 431,-390.8 438.06,-388.28 445.6,-385.99 453.11,-383.95"/>
<polygon fill="#63b8ff" stroke="#63b8ff" points="454.13,-387.3 462.93,-381.4 452.37,-380.53 454.13,-387.3"/>
</a>
</g>
</g>
<!-- Node8&#45;&gt;Node17 -->
<g id="edge31_Node000008_Node000017" class="edge">
<title>Node8&#45;&gt;Node17</title>
<g id="a_edge31_Node000008_Node000017"><a xlink:title=" ">
<path fill="none" stroke="#63b8ff" d="M335.87,-431.29C352.26,-413.28 390.54,-374.19 431,-353.8 435.63,-351.46 440.56,-349.41 445.61,-347.6"/>
<polygon fill="#63b8ff" stroke="#63b8ff" points="446.99,-350.83 455.43,-344.42 444.83,-344.17 446.99,-350.83"/>
</a>
</g>
</g>
<!-- Node8&#45;&gt;Node18 -->
<g id="edge33_Node000008_Node000018" class="edge">
<title>Node8&#45;&gt;Node18</title>
<g id="a_edge33_Node000008_Node000018"><a xlink:title=" ">
<path fill="none" stroke="#63b8ff" d="M332.56,-431.26C345.52,-407.78 382.38,-346.94 431,-316.8 434.43,-314.67 438.08,-312.78 441.86,-311.11"/>
<polygon fill="#63b8ff" stroke="#63b8ff" points="443.41,-314.26 451.46,-307.36 440.87,-307.74 443.41,-314.26"/>
</a>
</g>
</g>
<!-- Node8&#45;&gt;Node19 -->
<g id="edge35_Node000008_Node000019" class="edge">
<title>Node8&#45;&gt;Node19</title>
<g id="a_edge35_Node000008_Node000019"><a xlink:title=" ">
<path fill="none" stroke="#63b8ff" d="M330.95,-431.17C341.42,-403.36 375.54,-322.14 431,-279.8 433.45,-277.93 436.04,-276.19 438.74,-274.59"/>
<polygon fill="#63b8ff" stroke="#63b8ff" points="440.44,-277.65 447.65,-269.89 437.17,-271.46 440.44,-277.65"/>
</a>
</g>
</g>
<!-- Node8&#45;&gt;Node20 -->
<g id="edge37_Node000008_Node000020" class="edge">
<title>Node8&#45;&gt;Node20</title>
<g id="a_edge37_Node000008_Node000020"><a xlink:title=" ">
<path fill="none" stroke="#63b8ff" d="M329.27,-431.03C335.88,-397.42 362.39,-285.58 431,-230.8 433.09,-229.13 435.3,-227.61 437.6,-226.22"/>
<polygon fill="#63b8ff" stroke="#63b8ff" points="439.57,-229.14 446.88,-221.46 436.38,-222.91 439.57,-229.14"/>
</a>
</g>
</g>
<!-- Node8&#45;&gt;Node21 -->
<g id="edge39_Node000008_Node000021" class="edge">
<title>Node8&#45;&gt;Node21</title>
<g id="a_edge39_Node000008_Node000021"><a xlink:title=" ">
<path fill="none" stroke="#63b8ff" d="M328.47,-431.2C332.73,-394.23 353.23,-259.88 431,-193.8 435.64,-189.86 440.96,-186.7 446.6,-184.18"/>
<polygon fill="#63b8ff" stroke="#63b8ff" points="448.21,-187.31 456.33,-180.51 445.74,-180.76 448.21,-187.31"/>
</a>
</g>
</g>
<!-- Node8&#45;&gt;Node22 -->
<g id="edge41_Node000008_Node000022" class="edge">
<title>Node8&#45;&gt;Node22</title>
<g id="a_edge41_Node000008_Node000022"><a xlink:title=" ">
<path fill="none" stroke="#63b8ff" d="M327.89,-431.2C330.06,-390.96 344.03,-234.31 431,-156.8 432.76,-155.23 434.64,-153.78 436.59,-152.44"/>
<polygon fill="#63b8ff" stroke="#63b8ff" points="438.69,-155.28 445.66,-147.3 435.23,-149.19 438.69,-155.28"/>
</a>
</g>
</g>
<!-- Node8&#45;&gt;Node23 -->
<g id="edge43_Node000008_Node000023" class="edge">
<title>Node8&#45;&gt;Node23</title>
<g id="a_edge43_Node000008_Node000023"><a xlink:title=" ">
<path fill="none" stroke="#63b8ff" d="M327.44,-431.18C327.69,-387.84 334.74,-208.89 431,-119.8 435.17,-115.94 439.97,-112.83 445.11,-110.32"/>
<polygon fill="#63b8ff" stroke="#63b8ff" points="446.73,-113.44 454.67,-106.42 444.09,-106.96 446.73,-113.44"/>
</a>
</g>
</g>
<!-- Node8&#45;&gt;Node24 -->
<g id="edge45_Node000008_Node000024" class="edge">
<title>Node8&#45;&gt;Node24</title>
<g id="a_edge45_Node000008_Node000024"><a xlink:title=" ">
<path fill="none" stroke="#63b8ff" d="M327.06,-431.05C325.54,-384.58 325.45,-183.52 431,-82.8 435.72,-78.3 441.3,-74.8 447.29,-72.09"/>
<polygon fill="#63b8ff" stroke="#63b8ff" points="448.84,-75.25 456.96,-68.45 446.37,-68.7 448.84,-75.25"/>
</a>
</g>
</g>
<!-- Node8&#45;&gt;Node25 -->
<g id="edge47_Node000008_Node000025" class="edge">
<title>Node8&#45;&gt;Node25</title>
<g id="a_edge47_Node000008_Node000025"><a xlink:title=" ">
<path fill="none" stroke="#63b8ff" d="M328.73,-431.2C335.94,-376.4 374.31,-103.66 431,-44.8 435.1,-40.54 439.93,-37.03 445.14,-34.14"/>
<polygon fill="#63b8ff" stroke="#63b8ff" points="446.69,-37.28 454.22,-29.83 443.69,-30.96 446.69,-37.28"/>
</a>
</g>
</g>
<!-- Node9&#45;&gt;Node4 -->
<g id="edge16_Node000009_Node000004" class="edge">
<title>Node9&#45;&gt;Node4</title>
<g id="a_edge16_Node000009_Node000004"><a xlink:title=" ">
<path fill="none" stroke="#63b8ff" d="M571.73,-648.53C579.13,-645.3 586.14,-641.14 592,-635.8 652.21,-580.88 673.83,-480.98 680.9,-434.22"/>
<polygon fill="#63b8ff" stroke="#63b8ff" points="684.4,-434.44 682.33,-424.05 677.47,-433.46 684.4,-434.44"/>
</a>
</g>
</g>
<!-- Node10&#45;&gt;Node4 -->
<g id="edge18_Node000010_Node000004" class="edge">
<title>Node10&#45;&gt;Node4</title>
<g id="a_edge18_Node000010_Node000004"><a xlink:title=" ">
<path fill="none" stroke="#63b8ff" d="M574.13,-608.83C580.56,-606.3 586.68,-603.02 592,-598.8 645.48,-556.32 669.85,-475.01 679.15,-433.91"/>
<polygon fill="#63b8ff" stroke="#63b8ff" points="682.62,-434.42 681.29,-423.91 675.78,-432.95 682.62,-434.42"/>
</a>
</g>
</g>
<!-- Node11&#45;&gt;Node4 -->
<g id="edge20_Node000011_Node000004" class="edge">
<title>Node11&#45;&gt;Node4</title>
<g id="a_edge20_Node000011_Node000004"><a xlink:title=" ">
<path fill="none" stroke="#63b8ff" d="M574.58,-570.19C580.78,-567.73 586.73,-564.65 592,-560.8 636.25,-528.49 663.39,-467.84 675.85,-433.73"/>
<polygon fill="#63b8ff" stroke="#63b8ff" points="679.24,-434.65 679.26,-424.06 672.64,-432.33 679.24,-434.65"/>
</a>
</g>
</g>
<!-- Node12&#45;&gt;Node4 -->
<g id="edge22_Node000012_Node000004" class="edge">
<title>Node12&#45;&gt;Node4</title>
<g id="a_edge22_Node000012_Node000004"><a xlink:title=" ">
<path fill="none" stroke="#63b8ff" d="M570.64,-523.4C578.12,-520.5 585.44,-517 592,-512.8 624.76,-491.81 652.77,-455.95 669.01,-432.32"/>
<polygon fill="#63b8ff" stroke="#63b8ff" points="671.98,-434.17 674.64,-423.91 666.17,-430.27 671.98,-434.17"/>
</a>
</g>
</g>
<!-- Node13&#45;&gt;Node4 -->
<g id="edge24_Node000013_Node000004" class="edge">
<title>Node13&#45;&gt;Node4</title>
<g id="a_edge24_Node000013_Node000004"><a xlink:title=" ">
<path fill="none" stroke="#63b8ff" d="M568.75,-473.77C576.68,-471.09 584.63,-468.09 592,-464.8 613.66,-455.12 636.45,-441.28 653.93,-429.78"/>
<polygon fill="#63b8ff" stroke="#63b8ff" points="656.19,-432.49 662.55,-424.02 652.29,-426.67 656.19,-432.49"/>
</a>
</g>
</g>
<!-- Node14&#45;&gt;Node4 -->
<g id="edge26_Node000014_Node000004" class="edge">
<title>Node14&#45;&gt;Node4</title>
<g id="a_edge26_Node000014_Node000004"><a xlink:title=" ">
<path fill="none" stroke="#63b8ff" d="M556.67,-436.27C575.34,-432.24 597.5,-427.46 618.04,-423.03"/>
<polygon fill="#63b8ff" stroke="#63b8ff" points="618.94,-426.42 627.98,-420.88 617.47,-419.57 618.94,-426.42"/>
</a>
</g>
</g>
<!-- Node15&#45;&gt;Node4 -->
<g id="edge28_Node000015_Node000004" class="edge">
<title>Node15&#45;&gt;Node4</title>
<g id="a_edge28_Node000015_Node000004"><a xlink:title=" ">
<path fill="none" stroke="#63b8ff" d="M565.36,-408.8C581.89,-408.8 600.35,-408.8 617.69,-408.8"/>
<polygon fill="#63b8ff" stroke="#63b8ff" points="617.75,-412.3 627.75,-408.8 617.75,-405.3 617.75,-412.3"/>
</a>
</g>
</g>
<!-- Node16&#45;&gt;Node4 -->
<g id="edge30_Node000016_Node000004" class="edge">
<title>Node16&#45;&gt;Node4</title>
<g id="a_edge30_Node000016_Node000004"><a xlink:title=" ">
<path fill="none" stroke="#63b8ff" d="M556.67,-381.33C575.34,-385.36 597.5,-390.14 618.04,-394.57"/>
<polygon fill="#63b8ff" stroke="#63b8ff" points="617.47,-398.03 627.98,-396.71 618.94,-391.18 617.47,-398.03"/>
</a>
</g>
</g>
<!-- Node17&#45;&gt;Node4 -->
<g id="edge32_Node000017_Node000004" class="edge">
<title>Node17&#45;&gt;Node4</title>
<g id="a_edge32_Node000017_Node000004"><a xlink:title=" ">
<path fill="none" stroke="#63b8ff" d="M562.85,-344.38C572.69,-346.93 582.8,-350.05 592,-353.8 614.01,-362.76 636.96,-376.48 654.44,-387.96"/>
<polygon fill="#63b8ff" stroke="#63b8ff" points="652.78,-391.07 663.04,-393.73 656.68,-385.26 652.78,-391.07"/>
</a>
</g>
</g>
<!-- Node18&#45;&gt;Node4 -->
<g id="edge34_Node000018_Node000004" class="edge">
<title>Node18&#45;&gt;Node4</title>
<g id="a_edge34_Node000018_Node000004"><a xlink:title=" ">
<path fill="none" stroke="#63b8ff" d="M569.55,-307.37C577.36,-309.83 585.06,-312.92 592,-316.8 622.67,-333.95 650.04,-364.23 666.79,-385.35"/>
<polygon fill="#63b8ff" stroke="#63b8ff" points="664.21,-387.73 673.09,-393.5 669.74,-383.45 664.21,-387.73"/>
</a>
</g>
</g>
<!-- Node19&#45;&gt;Node4 -->
<g id="edge36_Node000019_Node000004" class="edge">
<title>Node19&#45;&gt;Node4</title>
<g id="a_edge36_Node000019_Node000004"><a xlink:title=" ">
<path fill="none" stroke="#63b8ff" d="M574.76,-269.96C580.86,-272.72 586.73,-275.97 592,-279.8 630,-307.39 658.23,-355.54 672.82,-384.57"/>
<polygon fill="#63b8ff" stroke="#63b8ff" points="669.71,-386.17 677.24,-393.62 676,-383.1 669.71,-386.17"/>
</a>
</g>
</g>
<!-- Node20&#45;&gt;Node4 -->
<g id="edge38_Node000020_Node000004" class="edge">
<title>Node20&#45;&gt;Node4</title>
<g id="a_edge38_Node000020_Node000004"><a xlink:title=" ">
<path fill="none" stroke="#63b8ff" d="M575.65,-221.39C581.51,-223.86 587.08,-226.95 592,-230.8 642.33,-270.19 667.8,-344.73 678.18,-383.67"/>
<polygon fill="#63b8ff" stroke="#63b8ff" points="674.86,-384.82 680.71,-393.65 681.64,-383.1 674.86,-384.82"/>
</a>
</g>
</g>
<!-- Node21&#45;&gt;Node4 -->
<g id="edge40_Node000021_Node000004" class="edge">
<title>Node21&#45;&gt;Node4</title>
<g id="a_edge40_Node000021_Node000004"><a xlink:title=" ">
<path fill="none" stroke="#63b8ff" d="M566.63,-180.55C575.82,-183.45 584.73,-187.67 592,-193.8 651.07,-243.61 673.16,-338.18 680.6,-383.43"/>
<polygon fill="#63b8ff" stroke="#63b8ff" points="677.18,-384.21 682.16,-393.57 684.1,-383.15 677.18,-384.21"/>
</a>
</g>
</g>
<!-- Node22&#45;&gt;Node4 -->
<g id="edge42_Node000022_Node000004" class="edge">
<title>Node22&#45;&gt;Node4</title>
<g id="a_edge42_Node000022_Node000004"><a xlink:title=" ">
<path fill="none" stroke="#63b8ff" d="M577.34,-147.3C582.66,-149.81 587.66,-152.93 592,-156.8 660.04,-217.41 677.82,-332.56 682.42,-383.49"/>
<polygon fill="#63b8ff" stroke="#63b8ff" points="678.94,-383.93 683.23,-393.61 685.92,-383.37 678.94,-383.93"/>
</a>
</g>
</g>
<!-- Node23&#45;&gt;Node4 -->
<g id="edge44_Node000023_Node000004" class="edge">
<title>Node23&#45;&gt;Node4</title>
<g id="a_edge44_Node000023_Node000004"><a xlink:title=" ">
<path fill="none" stroke="#63b8ff" d="M568.35,-106.4C577.05,-109.34 585.35,-113.62 592,-119.8 669.03,-191.36 681.87,-327.12 683.79,-383.39"/>
<polygon fill="#63b8ff" stroke="#63b8ff" points="680.29,-383.63 684.04,-393.54 687.29,-383.45 680.29,-383.63"/>
</a>
</g>
</g>
<!-- Node24&#45;&gt;Node4 -->
<g id="edge46_Node000024_Node000004" class="edge">
<title>Node24&#45;&gt;Node4</title>
<g id="a_edge46_Node000024_Node000004"><a xlink:title=" ">
<path fill="none" stroke="#63b8ff" d="M566.07,-68.42C575.64,-71.38 584.84,-75.92 592,-82.8 678.05,-165.44 685.49,-321.83 684.88,-383.18"/>
<polygon fill="#63b8ff" stroke="#63b8ff" points="681.37,-383.43 684.68,-393.49 688.37,-383.56 681.37,-383.43"/>
</a>
</g>
</g>
<!-- Node25&#45;&gt;Node4 -->
<g id="edge48_Node000025_Node000004" class="edge">
<title>Node25&#45;&gt;Node4</title>
<g id="a_edge48_Node000025_Node000004"><a xlink:title=" ">
<path fill="none" stroke="#63b8ff" d="M568.82,-29.79C577.47,-33.29 585.63,-38.13 592,-44.8 639.43,-94.45 671.1,-308.92 680.83,-383.29"/>
<polygon fill="#63b8ff" stroke="#63b8ff" points="677.41,-384.12 682.15,-393.59 684.35,-383.23 677.41,-384.12"/>
</a>
</g>
</g>
</g>
</svg>
