<?xml version="1.0" encoding="UTF-8" standalone="no"?>
<!DOCTYPE svg PUBLIC "-//W3C//DTD SVG 1.1//EN"
 "http://www.w3.org/Graphics/SVG/1.1/DTD/svg11.dtd">
<!-- Generated by graphviz version 2.43.0 (0)
 -->
<!-- Title: lci::alloc_handler Pages: 1 -->
<svg width="663pt" height="230pt"
 viewBox="0.00 0.00 663.00 230.00" xmlns="http://www.w3.org/2000/svg" xmlns:xlink="http://www.w3.org/1999/xlink">
<g id="graph0" class="graph" transform="scale(1 1) rotate(0) translate(4 226)">
<title>lci::alloc_handler</title>
<!-- Node1 -->
<g id="Node000001" class="node">
<title>Node1</title>
<g id="a_Node000001"><a xlink:title=" ">
<polygon fill="#999999" stroke="#666666" points="99,-117.5 0,-117.5 0,-98.5 99,-98.5 99,-117.5"/>
<text text-anchor="middle" x="49.5" y="-105.5" font-family="Helvetica,sans-Serif" font-size="10.00">lci::alloc_handler</text>
</a>
</g>
</g>
<!-- Node2 -->
<g id="Node000002" class="node">
<title>Node2</title>
<g id="a_Node000002"><a xlink:href="../../d7/d0f/classlci_1_1alloc__handler__x.html#a98a745346a11df34aed2588b9301f129" target="_top" xlink:title=" ">
<polygon fill="white" stroke="#666666" points="234,-123 135,-123 135,-93 234,-93 234,-123"/>
<text text-anchor="start" x="143" y="-111" font-family="Helvetica,sans-Serif" font-size="10.00">lci::alloc_handler</text>
<text text-anchor="middle" x="184.5" y="-100" font-family="Helvetica,sans-Serif" font-size="10.00">_x::call</text>
</a>
</g>
</g>
<!-- Node1&#45;&gt;Node2 -->
<g id="edge1_Node000001_Node000002" class="edge">
<title>Node1&#45;&gt;Node2</title>
<g id="a_edge1_Node000001_Node000002"><a xlink:title=" ">
<path fill="none" stroke="#63b8ff" d="M99.27,-108C107.49,-108 116.1,-108 124.55,-108"/>
<polygon fill="#63b8ff" stroke="#63b8ff" points="124.74,-111.5 134.74,-108 124.74,-104.5 124.74,-111.5"/>
</a>
</g>
</g>
<!-- Node3 -->
<g id="Node000003" class="node">
<title>Node3</title>
<g id="a_Node000003"><a xlink:href="../../d7/d0f/classlci_1_1alloc__handler__x.html#a1a72379ff6879720626b22cfea0c07d5" target="_top" xlink:title=" ">
<polygon fill="white" stroke="#666666" points="369,-145 270,-145 270,-115 369,-115 369,-145"/>
<text text-anchor="start" x="278" y="-133" font-family="Helvetica,sans-Serif" font-size="10.00">lci::alloc_handler</text>
<text text-anchor="middle" x="319.5" y="-122" font-family="Helvetica,sans-Serif" font-size="10.00">_x::call_impl</text>
</a>
</g>
</g>
<!-- Node2&#45;&gt;Node3 -->
<g id="edge2_Node000002_Node000003" class="edge">
<title>Node2&#45;&gt;Node3</title>
<g id="a_edge2_Node000002_Node000003"><a xlink:title=" ">
<path fill="none" stroke="#63b8ff" d="M234.27,-116.07C242.58,-117.44 251.29,-118.88 259.83,-120.3"/>
<polygon fill="#63b8ff" stroke="#63b8ff" points="259.3,-123.75 269.74,-121.93 260.44,-116.85 259.3,-123.75"/>
</a>
</g>
</g>
<!-- Node4 -->
<g id="Node000004" class="node">
<title>Node4</title>
<g id="a_Node000004"><a xlink:href="../../d7/d0f/classlci_1_1alloc__handler__x.html#a74c492d00d0420108aef0dd08c455584" target="_top" xlink:title=" ">
<polygon fill="white" stroke="#666666" points="506.5,-222 407.5,-222 407.5,-192 506.5,-192 506.5,-222"/>
<text text-anchor="start" x="415.5" y="-210" font-family="Helvetica,sans-Serif" font-size="10.00">lci::alloc_handler</text>
<text text-anchor="middle" x="457" y="-199" font-family="Helvetica,sans-Serif" font-size="10.00">_x::handler</text>
</a>
</g>
</g>
<!-- Node2&#45;&gt;Node4 -->
<g id="edge13_Node000002_Node000004" class="edge">
<title>Node2&#45;&gt;Node4</title>
<g id="a_edge13_Node000002_Node000004"><a xlink:title=" ">
<path fill="none" stroke="#63b8ff" d="M200.52,-123.21C216.37,-138.31 242.77,-160.9 270,-173 310.17,-190.85 359.21,-199.33 396.85,-203.36"/>
<polygon fill="#63b8ff" stroke="#63b8ff" points="396.85,-206.88 407.14,-204.38 397.54,-199.91 396.85,-206.88"/>
</a>
</g>
</g>
<!-- Node6 -->
<g id="Node000006" class="node">
<title>Node6</title>
<g id="a_Node000006"><a xlink:href="../../d7/d0f/classlci_1_1alloc__handler__x.html#ab598385f5a81a6bc376ef01f32bec8ce" target="_top" xlink:title=" ">
<polygon fill="white" stroke="#666666" points="506.5,-174 407.5,-174 407.5,-144 506.5,-144 506.5,-174"/>
<text text-anchor="start" x="415.5" y="-162" font-family="Helvetica,sans-Serif" font-size="10.00">lci::alloc_handler</text>
<text text-anchor="middle" x="457" y="-151" font-family="Helvetica,sans-Serif" font-size="10.00">_x::name</text>
</a>
</g>
</g>
<!-- Node2&#45;&gt;Node6 -->
<g id="edge14_Node000002_Node000006" class="edge">
<title>Node2&#45;&gt;Node6</title>
<g id="a_edge14_Node000002_Node000006"><a xlink:title=" ">
<path fill="none" stroke="#63b8ff" d="M206.53,-123.12C222.94,-133.98 246.77,-147.75 270,-154 311.49,-165.16 360.07,-166.07 397.18,-164.37"/>
<polygon fill="#63b8ff" stroke="#63b8ff" points="397.52,-167.86 407.32,-163.83 397.15,-160.87 397.52,-167.86"/>
</a>
</g>
</g>
<!-- Node7 -->
<g id="Node000007" class="node">
<title>Node7</title>
<g id="a_Node000007"><a xlink:href="../../d7/d0f/classlci_1_1alloc__handler__x.html#ae233b40436dde8dc698934ea9b7ec5d9" target="_top" xlink:title=" ">
<polygon fill="white" stroke="#666666" points="506.5,-126 407.5,-126 407.5,-96 506.5,-96 506.5,-126"/>
<text text-anchor="start" x="415.5" y="-114" font-family="Helvetica,sans-Serif" font-size="10.00">lci::alloc_handler</text>
<text text-anchor="middle" x="457" y="-103" font-family="Helvetica,sans-Serif" font-size="10.00">_x::runtime</text>
</a>
</g>
</g>
<!-- Node2&#45;&gt;Node7 -->
<g id="edge15_Node000002_Node000007" class="edge">
<title>Node2&#45;&gt;Node7</title>
<g id="a_edge15_Node000002_Node000007"><a xlink:title=" ">
<path fill="none" stroke="#63b8ff" d="M234.2,-106.65C245.92,-106.38 258.41,-106.14 270,-106 314,-105.48 325.02,-104.74 369,-106 378.11,-106.26 387.74,-106.68 397.16,-107.16"/>
<polygon fill="#63b8ff" stroke="#63b8ff" points="397.07,-110.66 407.25,-107.7 397.45,-103.67 397.07,-110.66"/>
</a>
</g>
</g>
<!-- Node8 -->
<g id="Node000008" class="node">
<title>Node8</title>
<g id="a_Node000008"><a xlink:href="../../d7/d0f/classlci_1_1alloc__handler__x.html#ad126b5378856f59cf0d96e109bf5b8f6" target="_top" xlink:title=" ">
<polygon fill="white" stroke="#666666" points="506.5,-78 407.5,-78 407.5,-48 506.5,-48 506.5,-78"/>
<text text-anchor="start" x="415.5" y="-66" font-family="Helvetica,sans-Serif" font-size="10.00">lci::alloc_handler</text>
<text text-anchor="middle" x="457" y="-55" font-family="Helvetica,sans-Serif" font-size="10.00">_x::user_context</text>
</a>
</g>
</g>
<!-- Node2&#45;&gt;Node8 -->
<g id="edge16_Node000002_Node000008" class="edge">
<title>Node2&#45;&gt;Node8</title>
<g id="a_edge16_Node000002_Node000008"><a xlink:title=" ">
<path fill="none" stroke="#63b8ff" d="M234.17,-99.9C279.9,-92.3 348.4,-80.9 397.17,-72.79"/>
<polygon fill="#63b8ff" stroke="#63b8ff" points="397.97,-76.2 407.26,-71.11 396.82,-69.3 397.97,-76.2"/>
</a>
</g>
</g>
<!-- Node9 -->
<g id="Node000009" class="node">
<title>Node9</title>
<g id="a_Node000009"><a xlink:href="../../d7/d0f/classlci_1_1alloc__handler__x.html#a9b606b63467ecf4c1ccead21470f3d14" target="_top" xlink:title=" ">
<polygon fill="white" stroke="#666666" points="509,-30 405,-30 405,0 509,0 509,-30"/>
<text text-anchor="start" x="413" y="-18" font-family="Helvetica,sans-Serif" font-size="10.00">lci::alloc_handler</text>
<text text-anchor="middle" x="457" y="-7" font-family="Helvetica,sans-Serif" font-size="10.00">_x::zero_copy_am</text>
</a>
</g>
</g>
<!-- Node2&#45;&gt;Node9 -->
<g id="edge17_Node000002_Node000009" class="edge">
<title>Node2&#45;&gt;Node9</title>
<g id="a_edge17_Node000002_Node000009"><a xlink:title=" ">
<path fill="none" stroke="#63b8ff" d="M219.76,-92.98C235.01,-86.51 253.28,-79.06 270,-73 311.13,-58.1 358.18,-43.45 394.67,-32.6"/>
<polygon fill="#63b8ff" stroke="#63b8ff" points="396.07,-35.84 404.67,-29.65 394.08,-29.13 396.07,-35.84"/>
</a>
</g>
</g>
<!-- Node3&#45;&gt;Node4 -->
<g id="edge3_Node000003_Node000004" class="edge">
<title>Node3&#45;&gt;Node4</title>
<g id="a_edge3_Node000003_Node000004"><a xlink:title=" ">
<path fill="none" stroke="#63b8ff" d="M343.01,-145.16C359.78,-156.19 383.42,-171.21 405,-183 407.7,-184.48 410.51,-185.95 413.36,-187.41"/>
<polygon fill="#63b8ff" stroke="#63b8ff" points="412,-190.64 422.52,-191.95 415.11,-184.37 412,-190.64"/>
</a>
</g>
</g>
<!-- Node3&#45;&gt;Node6 -->
<g id="edge5_Node000003_Node000006" class="edge">
<title>Node3&#45;&gt;Node6</title>
<g id="a_edge5_Node000003_Node000006"><a xlink:title=" ">
<path fill="none" stroke="#63b8ff" d="M369.04,-140.39C378.28,-142.37 388.04,-144.46 397.56,-146.49"/>
<polygon fill="#63b8ff" stroke="#63b8ff" points="396.84,-149.92 407.35,-148.59 398.3,-143.07 396.84,-149.92"/>
</a>
</g>
</g>
<!-- Node3&#45;&gt;Node7 -->
<g id="edge7_Node000003_Node000007" class="edge">
<title>Node3&#45;&gt;Node7</title>
<g id="a_edge7_Node000003_Node000007"><a xlink:title=" ">
<path fill="none" stroke="#63b8ff" d="M369.04,-123.19C378.18,-121.91 387.84,-120.56 397.26,-119.24"/>
<polygon fill="#63b8ff" stroke="#63b8ff" points="397.93,-122.68 407.35,-117.82 396.96,-115.74 397.93,-122.68"/>
</a>
</g>
</g>
<!-- Node3&#45;&gt;Node8 -->
<g id="edge9_Node000003_Node000008" class="edge">
<title>Node3&#45;&gt;Node8</title>
<g id="a_edge9_Node000003_Node000008"><a xlink:title=" ">
<path fill="none" stroke="#63b8ff" d="M349.72,-114.85C365.94,-106.51 386.52,-96.05 405,-87 408.08,-85.49 411.28,-83.95 414.49,-82.4"/>
<polygon fill="#63b8ff" stroke="#63b8ff" points="416.03,-85.55 423.55,-78.09 413.02,-79.23 416.03,-85.55"/>
</a>
</g>
</g>
<!-- Node3&#45;&gt;Node9 -->
<g id="edge11_Node000003_Node000009" class="edge">
<title>Node3&#45;&gt;Node9</title>
<g id="a_edge11_Node000003_Node000009"><a xlink:title=" ">
<path fill="none" stroke="#63b8ff" d="M331.63,-114.78C346.56,-95.22 374.71,-61.14 405,-39 406.8,-37.69 408.68,-36.42 410.61,-35.19"/>
<polygon fill="#63b8ff" stroke="#63b8ff" points="412.45,-38.17 419.35,-30.14 408.95,-32.11 412.45,-38.17"/>
</a>
</g>
</g>
<!-- Node5 -->
<g id="Node000005" class="node">
<title>Node5</title>
<g id="a_Node000005"><a xlink:href="../../d7/d0f/classlci_1_1alloc__handler__x.html#a759210aeef489d9e163ca71ec5e0ea25" target="_top" xlink:title=" ">
<polygon fill="white" stroke="#666666" points="655,-126 545,-126 545,-96 655,-96 655,-126"/>
<text text-anchor="start" x="553" y="-114" font-family="Helvetica,sans-Serif" font-size="10.00">lci::alloc_handler</text>
<text text-anchor="middle" x="600" y="-103" font-family="Helvetica,sans-Serif" font-size="10.00">_x::alloc_handler_x</text>
</a>
</g>
</g>
<!-- Node4&#45;&gt;Node5 -->
<g id="edge4_Node000004_Node000005" class="edge">
<title>Node4&#45;&gt;Node5</title>
<g id="a_edge4_Node000004_Node000005"><a xlink:title=" ">
<path fill="none" stroke="#63b8ff" d="M492.87,-191.93C498.39,-189.17 503.93,-186.16 509,-183 532.64,-168.27 557.19,-148.26 574.66,-133.08"/>
<polygon fill="#63b8ff" stroke="#63b8ff" points="577.44,-135.29 582.64,-126.06 572.82,-130.04 577.44,-135.29"/>
</a>
</g>
</g>
<!-- Node6&#45;&gt;Node5 -->
<g id="edge6_Node000006_Node000005" class="edge">
<title>Node6&#45;&gt;Node5</title>
<g id="a_edge6_Node000006_Node000005"><a xlink:title=" ">
<path fill="none" stroke="#63b8ff" d="M502.23,-143.94C515.88,-139.3 531.06,-134.13 545.27,-129.29"/>
<polygon fill="#63b8ff" stroke="#63b8ff" points="546.59,-132.54 554.93,-126 544.34,-125.91 546.59,-132.54"/>
</a>
</g>
</g>
<!-- Node7&#45;&gt;Node5 -->
<g id="edge8_Node000007_Node000005" class="edge">
<title>Node7&#45;&gt;Node5</title>
<g id="a_edge8_Node000007_Node000005"><a xlink:title=" ">
<path fill="none" stroke="#63b8ff" d="M506.52,-111C515.53,-111 525.07,-111 534.47,-111"/>
<polygon fill="#63b8ff" stroke="#63b8ff" points="534.58,-114.5 544.58,-111 534.58,-107.5 534.58,-114.5"/>
</a>
</g>
</g>
<!-- Node8&#45;&gt;Node5 -->
<g id="edge10_Node000008_Node000005" class="edge">
<title>Node8&#45;&gt;Node5</title>
<g id="a_edge10_Node000008_Node000005"><a xlink:title=" ">
<path fill="none" stroke="#63b8ff" d="M502.23,-78.06C515.88,-82.7 531.06,-87.87 545.27,-92.71"/>
<polygon fill="#63b8ff" stroke="#63b8ff" points="544.34,-96.09 554.93,-96 546.59,-89.46 544.34,-96.09"/>
</a>
</g>
</g>
<!-- Node9&#45;&gt;Node5 -->
<g id="edge12_Node000009_Node000005" class="edge">
<title>Node9&#45;&gt;Node5</title>
<g id="a_edge12_Node000009_Node000005"><a xlink:title=" ">
<path fill="none" stroke="#63b8ff" d="M492.87,-30.07C498.39,-32.83 503.93,-35.84 509,-39 532.64,-53.73 557.19,-73.74 574.66,-88.92"/>
<polygon fill="#63b8ff" stroke="#63b8ff" points="572.82,-91.96 582.64,-95.94 577.44,-86.71 572.82,-91.96"/>
</a>
</g>
</g>
</g>
</svg>
