<?xml version="1.0" encoding="UTF-8" standalone="no"?>
<!DOCTYPE svg PUBLIC "-//W3C//DTD SVG 1.1//EN"
 "http://www.w3.org/Graphics/SVG/1.1/DTD/svg11.dtd">
<!-- Generated by graphviz version 2.43.0 (0)
 -->
<!-- Title: lci::alloc_matching_engine Pages: 1 -->
<svg width="765pt" height="146pt"
 viewBox="0.00 0.00 765.00 145.50" xmlns="http://www.w3.org/2000/svg" xmlns:xlink="http://www.w3.org/1999/xlink">
<g id="graph0" class="graph" transform="scale(1 1) rotate(0) translate(4 141.5)">
<title>lci::alloc_matching_engine</title>
<!-- Node1 -->
<g id="Node000001" class="node">
<title>Node1</title>
<g id="a_Node000001"><a xlink:title=" ">
<polygon fill="#999999" stroke="#666666" points="108,-78 0,-78 0,-48 108,-48 108,-78"/>
<text text-anchor="start" x="8" y="-66" font-family="Helvetica,sans-Serif" font-size="10.00">lci::alloc_matching</text>
<text text-anchor="middle" x="54" y="-55" font-family="Helvetica,sans-Serif" font-size="10.00">_engine</text>
</a>
</g>
</g>
<!-- Node2 -->
<g id="Node000002" class="node">
<title>Node2</title>
<g id="a_Node000002"><a xlink:href="../../d6/dc8/classlci_1_1alloc__matching__engine__x.html#a16f74d06d91529140083019dd1e1720b" target="_top" xlink:title=" ">
<polygon fill="white" stroke="#666666" points="252,-78 144,-78 144,-48 252,-48 252,-78"/>
<text text-anchor="start" x="152" y="-66" font-family="Helvetica,sans-Serif" font-size="10.00">lci::alloc_matching</text>
<text text-anchor="middle" x="198" y="-55" font-family="Helvetica,sans-Serif" font-size="10.00">_engine_x::call</text>
</a>
</g>
</g>
<!-- Node1&#45;&gt;Node2 -->
<g id="edge1_Node000001_Node000002" class="edge">
<title>Node1&#45;&gt;Node2</title>
<g id="a_edge1_Node000001_Node000002"><a xlink:title=" ">
<path fill="none" stroke="#63b8ff" d="M108.28,-63C116.56,-63 125.18,-63 133.66,-63"/>
<polygon fill="#63b8ff" stroke="#63b8ff" points="133.89,-66.5 143.89,-63 133.89,-59.5 133.89,-66.5"/>
</a>
</g>
</g>
<!-- Node3 -->
<g id="Node000003" class="node">
<title>Node3</title>
<g id="a_Node000003"><a xlink:href="../../d6/dc8/classlci_1_1alloc__matching__engine__x.html#a4b4e302ad7bf82cf66999450de550dec" target="_top" xlink:title=" ">
<polygon fill="white" stroke="#666666" points="404,-100 288,-100 288,-70 404,-70 404,-100"/>
<text text-anchor="start" x="296" y="-88" font-family="Helvetica,sans-Serif" font-size="10.00">lci::alloc_matching</text>
<text text-anchor="middle" x="346" y="-77" font-family="Helvetica,sans-Serif" font-size="10.00">_engine_x::call_impl</text>
</a>
</g>
</g>
<!-- Node2&#45;&gt;Node3 -->
<g id="edge2_Node000002_Node000003" class="edge">
<title>Node2&#45;&gt;Node3</title>
<g id="a_edge2_Node000002_Node000003"><a xlink:title=" ">
<path fill="none" stroke="#63b8ff" d="M252.12,-71C260.44,-72.26 269.14,-73.57 277.73,-74.86"/>
<polygon fill="#63b8ff" stroke="#63b8ff" points="277.32,-78.34 287.73,-76.37 278.36,-71.42 277.32,-78.34"/>
</a>
</g>
</g>
<!-- Node4 -->
<g id="Node000004" class="node">
<title>Node4</title>
<g id="a_Node000004"><a xlink:href="../../d6/dc8/classlci_1_1alloc__matching__engine__x.html#aa17797fcb21822e0dea10c346d425f03" target="_top" xlink:title=" ">
<polygon fill="white" stroke="#666666" points="566.5,-137.5 448.5,-137.5 448.5,-96.5 566.5,-96.5 566.5,-137.5"/>
<text text-anchor="start" x="456.5" y="-125.5" font-family="Helvetica,sans-Serif" font-size="10.00">lci::alloc_matching</text>
<text text-anchor="start" x="456.5" y="-114.5" font-family="Helvetica,sans-Serif" font-size="10.00">_engine_x::matching</text>
<text text-anchor="middle" x="507.5" y="-103.5" font-family="Helvetica,sans-Serif" font-size="10.00">_engine_type</text>
</a>
</g>
</g>
<!-- Node2&#45;&gt;Node4 -->
<g id="edge9_Node000002_Node000004" class="edge">
<title>Node2&#45;&gt;Node4</title>
<g id="a_edge9_Node000002_Node000004"><a xlink:title=" ">
<path fill="none" stroke="#63b8ff" d="M221.29,-78.06C238.64,-88.88 263.78,-102.64 288,-109 337.11,-121.9 394.56,-123.5 438.23,-122.09"/>
<polygon fill="#63b8ff" stroke="#63b8ff" points="438.59,-125.58 448.45,-121.7 438.32,-118.58 438.59,-125.58"/>
</a>
</g>
</g>
<!-- Node6 -->
<g id="Node000006" class="node">
<title>Node6</title>
<g id="a_Node000006"><a xlink:href="../../d6/dc8/classlci_1_1alloc__matching__engine__x.html#a62b63a7ada248f218316743a43d3d4dd" target="_top" xlink:title=" ">
<polygon fill="white" stroke="#666666" points="562.5,-78 452.5,-78 452.5,-48 562.5,-48 562.5,-78"/>
<text text-anchor="start" x="460.5" y="-66" font-family="Helvetica,sans-Serif" font-size="10.00">lci::alloc_matching</text>
<text text-anchor="middle" x="507.5" y="-55" font-family="Helvetica,sans-Serif" font-size="10.00">_engine_x::runtime</text>
</a>
</g>
</g>
<!-- Node2&#45;&gt;Node6 -->
<g id="edge10_Node000002_Node000006" class="edge">
<title>Node2&#45;&gt;Node6</title>
<g id="a_edge10_Node000002_Node000006"><a xlink:title=" ">
<path fill="none" stroke="#63b8ff" d="M252.18,-61.61C263.97,-61.36 276.41,-61.13 288,-61 339.55,-60.42 352.45,-60.5 404,-61 416.36,-61.12 429.55,-61.32 442.22,-61.55"/>
<polygon fill="#63b8ff" stroke="#63b8ff" points="442.18,-65.05 452.24,-61.74 442.31,-58.05 442.18,-65.05"/>
</a>
</g>
</g>
<!-- Node7 -->
<g id="Node000007" class="node">
<title>Node7</title>
<g id="a_Node000007"><a xlink:href="../../d6/dc8/classlci_1_1alloc__matching__engine__x.html#a1f2ab4de552f8a3da7facd383da722ee" target="_top" xlink:title=" ">
<polygon fill="white" stroke="#666666" points="575,-30 440,-30 440,0 575,0 575,-30"/>
<text text-anchor="start" x="448" y="-18" font-family="Helvetica,sans-Serif" font-size="10.00">lci::alloc_matching</text>
<text text-anchor="middle" x="507.5" y="-7" font-family="Helvetica,sans-Serif" font-size="10.00">_engine_x::user_context</text>
</a>
</g>
</g>
<!-- Node2&#45;&gt;Node7 -->
<g id="edge11_Node000002_Node000007" class="edge">
<title>Node2&#45;&gt;Node7</title>
<g id="a_edge11_Node000002_Node000007"><a xlink:title=" ">
<path fill="none" stroke="#63b8ff" d="M252.21,-54.69C301.16,-47.05 374.33,-35.63 429.63,-27"/>
<polygon fill="#63b8ff" stroke="#63b8ff" points="430.39,-30.42 439.73,-25.42 429.31,-23.51 430.39,-30.42"/>
</a>
</g>
</g>
<!-- Node3&#45;&gt;Node4 -->
<g id="edge3_Node000003_Node000004" class="edge">
<title>Node3&#45;&gt;Node4</title>
<g id="a_edge3_Node000003_Node000004"><a xlink:title=" ">
<path fill="none" stroke="#63b8ff" d="M404.13,-96.46C415.26,-98.7 427.04,-101.06 438.48,-103.35"/>
<polygon fill="#63b8ff" stroke="#63b8ff" points="437.93,-106.81 448.42,-105.35 439.31,-99.95 437.93,-106.81"/>
</a>
</g>
</g>
<!-- Node3&#45;&gt;Node6 -->
<g id="edge5_Node000003_Node000006" class="edge">
<title>Node3&#45;&gt;Node6</title>
<g id="a_edge5_Node000003_Node000006"><a xlink:title=" ">
<path fill="none" stroke="#63b8ff" d="M404.13,-77.12C416.55,-75.41 429.76,-73.59 442.42,-71.84"/>
<polygon fill="#63b8ff" stroke="#63b8ff" points="443,-75.29 452.43,-70.46 442.05,-68.36 443,-75.29"/>
</a>
</g>
</g>
<!-- Node3&#45;&gt;Node7 -->
<g id="edge7_Node000003_Node000007" class="edge">
<title>Node3&#45;&gt;Node7</title>
<g id="a_edge7_Node000003_Node000007"><a xlink:title=" ">
<path fill="none" stroke="#63b8ff" d="M375.51,-69.85C393.72,-60.44 417.96,-48.39 440,-39 444.18,-37.22 448.54,-35.45 452.94,-33.73"/>
<polygon fill="#63b8ff" stroke="#63b8ff" points="454.49,-36.89 462.59,-30.05 451.99,-30.35 454.49,-36.89"/>
</a>
</g>
</g>
<!-- Node5 -->
<g id="Node000005" class="node">
<title>Node5</title>
<g id="a_Node000005"><a xlink:href="../../d6/dc8/classlci_1_1alloc__matching__engine__x.html#af8991cfa93661f173f17d17e55a175b9" target="_top" xlink:title=" ">
<polygon fill="white" stroke="#666666" points="757,-83.5 611,-83.5 611,-42.5 757,-42.5 757,-83.5"/>
<text text-anchor="start" x="619" y="-71.5" font-family="Helvetica,sans-Serif" font-size="10.00">lci::alloc_matching</text>
<text text-anchor="start" x="619" y="-60.5" font-family="Helvetica,sans-Serif" font-size="10.00">_engine_x::alloc_matching</text>
<text text-anchor="middle" x="684" y="-49.5" font-family="Helvetica,sans-Serif" font-size="10.00">_engine_x</text>
</a>
</g>
</g>
<!-- Node4&#45;&gt;Node5 -->
<g id="edge4_Node000004_Node000005" class="edge">
<title>Node4&#45;&gt;Node5</title>
<g id="a_edge4_Node000004_Node000005"><a xlink:title=" ">
<path fill="none" stroke="#63b8ff" d="M566.61,-99.02C579.53,-95.02 593.42,-90.72 606.94,-86.54"/>
<polygon fill="#63b8ff" stroke="#63b8ff" points="608.19,-89.81 616.71,-83.51 606.12,-83.13 608.19,-89.81"/>
</a>
</g>
</g>
<!-- Node6&#45;&gt;Node5 -->
<g id="edge6_Node000006_Node000005" class="edge">
<title>Node6&#45;&gt;Node5</title>
<g id="a_edge6_Node000006_Node000005"><a xlink:title=" ">
<path fill="none" stroke="#63b8ff" d="M562.76,-63C574.76,-63 587.73,-63 600.57,-63"/>
<polygon fill="#63b8ff" stroke="#63b8ff" points="600.81,-66.5 610.81,-63 600.81,-59.5 600.81,-66.5"/>
</a>
</g>
</g>
<!-- Node7&#45;&gt;Node5 -->
<g id="edge8_Node000007_Node000005" class="edge">
<title>Node7&#45;&gt;Node5</title>
<g id="a_edge8_Node000007_Node000005"><a xlink:title=" ">
<path fill="none" stroke="#63b8ff" d="M563.23,-30.06C575.26,-33.36 588.25,-36.94 601.08,-40.47"/>
<polygon fill="#63b8ff" stroke="#63b8ff" points="600.28,-43.88 610.85,-43.15 602.14,-37.13 600.28,-43.88"/>
</a>
</g>
</g>
</g>
</svg>
