<?xml version="1.0" encoding="UTF-8" standalone="no"?>
<!DOCTYPE svg PUBLIC "-//W3C//DTD SVG 1.1//EN"
 "http://www.w3.org/Graphics/SVG/1.1/DTD/svg11.dtd">
<!-- Generated by graphviz version 2.43.0 (0)
 -->
<!-- Title: lci::post_comm Pages: 1 -->
<svg width="825pt" height="853pt"
 viewBox="0.00 0.00 825.00 853.26" xmlns="http://www.w3.org/2000/svg" xmlns:xlink="http://www.w3.org/1999/xlink">
<g id="graph0" class="graph" transform="scale(1 1) rotate(0) translate(4 849.26)">
<title>lci::post_comm</title>
<!-- Node1 -->
<g id="Node000001" class="node">
<title>Node1</title>
<g id="a_Node000001"><a xlink:title=" ">
<polygon fill="#999999" stroke="#666666" points="91,-429.26 0,-429.26 0,-410.26 91,-410.26 91,-429.26"/>
<text text-anchor="middle" x="45.5" y="-417.26" font-family="Helvetica,sans-Serif" font-size="10.00">lci::post_comm</text>
</a>
</g>
</g>
<!-- Node2 -->
<g id="Node000002" class="node">
<title>Node2</title>
<g id="a_Node000002"><a xlink:href="../../d8/d48/classlci_1_1post__comm__x.html#a0e18f25200cd26b05cceda73dd2cfab9" target="_top" xlink:title=" ">
<polygon fill="white" stroke="#666666" points="252,-429.26 127,-429.26 127,-410.26 252,-410.26 252,-429.26"/>
<text text-anchor="middle" x="189.5" y="-417.26" font-family="Helvetica,sans-Serif" font-size="10.00">lci::post_comm_x::call</text>
</a>
</g>
</g>
<!-- Node1&#45;&gt;Node2 -->
<g id="edge1_Node000001_Node000002" class="edge">
<title>Node1&#45;&gt;Node2</title>
<g id="a_edge1_Node000001_Node000002"><a xlink:title=" ">
<path fill="none" stroke="#63b8ff" d="M91.04,-419.76C99.22,-419.76 107.96,-419.76 116.7,-419.76"/>
<polygon fill="#63b8ff" stroke="#63b8ff" points="116.95,-423.26 126.95,-419.76 116.95,-416.26 116.95,-423.26"/>
</a>
</g>
</g>
<!-- Node3 -->
<g id="Node000003" class="node">
<title>Node3</title>
<g id="a_Node000003"><a xlink:href="../../d8/d48/classlci_1_1post__comm__x.html#a9d02814a94c01ec00d6dc0bca83d3f1e" target="_top" xlink:title=" ">
<polygon fill="white" stroke="#666666" points="646,-845.26 482,-845.26 482,-826.26 646,-826.26 646,-845.26"/>
<text text-anchor="middle" x="564" y="-833.26" font-family="Helvetica,sans-Serif" font-size="10.00">lci::post_comm_x::allow_done</text>
</a>
</g>
</g>
<!-- Node2&#45;&gt;Node3 -->
<g id="edge2_Node000002_Node000003" class="edge">
<title>Node2&#45;&gt;Node3</title>
<g id="a_edge2_Node000002_Node000003"><a xlink:title=" ">
<path fill="none" stroke="#63b8ff" d="M191.84,-429.3C199.18,-480.31 236.12,-720.46 288,-770.76 336.36,-817.64 411.96,-832.93 471.66,-837.03"/>
<polygon fill="#63b8ff" stroke="#63b8ff" points="471.66,-840.54 481.85,-837.64 472.08,-833.55 471.66,-840.54"/>
</a>
</g>
</g>
<!-- Node5 -->
<g id="Node000005" class="node">
<title>Node5</title>
<g id="a_Node000005"><a xlink:href="../../d8/d48/classlci_1_1post__comm__x.html#ae3d784bab8848569e70f6caa5d0d3c9d" target="_top" xlink:title=" ">
<polygon fill="white" stroke="#666666" points="631,-807.76 497,-807.76 497,-777.76 631,-777.76 631,-807.76"/>
<text text-anchor="start" x="505" y="-795.76" font-family="Helvetica,sans-Serif" font-size="10.00">lci::post_comm_x::allow</text>
<text text-anchor="middle" x="564" y="-784.76" font-family="Helvetica,sans-Serif" font-size="10.00">_posted</text>
</a>
</g>
</g>
<!-- Node2&#45;&gt;Node5 -->
<g id="edge4_Node000002_Node000005" class="edge">
<title>Node2&#45;&gt;Node5</title>
<g id="a_edge4_Node000002_Node000005"><a xlink:title=" ">
<path fill="none" stroke="#63b8ff" d="M190.41,-429.47C190.58,-471.7 197.08,-640.94 288,-725.76 341.44,-775.61 425.6,-790.15 486.75,-793.58"/>
<polygon fill="#63b8ff" stroke="#63b8ff" points="486.58,-797.08 496.74,-794.06 486.92,-790.09 486.58,-797.08"/>
</a>
</g>
</g>
<!-- Node6 -->
<g id="Node000006" class="node">
<title>Node6</title>
<g id="a_Node000006"><a xlink:href="../../d8/d48/classlci_1_1post__comm__x.html#af2e9941ebbea16b2eaf5e1971b7c0e2a" target="_top" xlink:title=" ">
<polygon fill="white" stroke="#666666" points="631,-759.76 497,-759.76 497,-729.76 631,-729.76 631,-759.76"/>
<text text-anchor="start" x="505" y="-747.76" font-family="Helvetica,sans-Serif" font-size="10.00">lci::post_comm_x::allow</text>
<text text-anchor="middle" x="564" y="-736.76" font-family="Helvetica,sans-Serif" font-size="10.00">_retry</text>
</a>
</g>
</g>
<!-- Node2&#45;&gt;Node6 -->
<g id="edge6_Node000002_Node000006" class="edge">
<title>Node2&#45;&gt;Node6</title>
<g id="a_edge6_Node000002_Node000006"><a xlink:title=" ">
<path fill="none" stroke="#63b8ff" d="M190.94,-429.45C193.25,-468.03 207.19,-612.05 288,-682.76 342.49,-730.43 425.84,-743.71 486.5,-746.42"/>
<polygon fill="#63b8ff" stroke="#63b8ff" points="486.67,-749.93 496.79,-746.79 486.92,-742.94 486.67,-749.93"/>
</a>
</g>
</g>
<!-- Node7 -->
<g id="Node000007" class="node">
<title>Node7</title>
<g id="a_Node000007"><a xlink:href="../../d8/d48/classlci_1_1post__comm__x.html#a1804443a75b19c67e21bf7bd14a2e806" target="_top" xlink:title=" ">
<polygon fill="white" stroke="#666666" points="440,-448.26 288,-448.26 288,-429.26 440,-429.26 440,-448.26"/>
<text text-anchor="middle" x="364" y="-436.26" font-family="Helvetica,sans-Serif" font-size="10.00">lci::post_comm_x::call_impl</text>
</a>
</g>
</g>
<!-- Node2&#45;&gt;Node7 -->
<g id="edge8_Node000002_Node000007" class="edge">
<title>Node2&#45;&gt;Node7</title>
<g id="a_edge8_Node000002_Node000007"><a xlink:title=" ">
<path fill="none" stroke="#63b8ff" d="M252.29,-426.56C260.56,-427.47 269.15,-428.42 277.74,-429.36"/>
<polygon fill="#63b8ff" stroke="#63b8ff" points="277.46,-432.86 287.78,-430.47 278.23,-425.9 277.46,-432.86"/>
</a>
</g>
</g>
<!-- Node8 -->
<g id="Node000008" class="node">
<title>Node8</title>
<g id="a_Node000008"><a xlink:href="../../d8/d48/classlci_1_1post__comm__x.html#ae7b576a0cfbce10d5b9d83f3df130397" target="_top" xlink:title=" ">
<polygon fill="white" stroke="#666666" points="631.5,-711.76 496.5,-711.76 496.5,-681.76 631.5,-681.76 631.5,-711.76"/>
<text text-anchor="start" x="504.5" y="-699.76" font-family="Helvetica,sans-Serif" font-size="10.00">lci::post_comm_x::comp</text>
<text text-anchor="middle" x="564" y="-688.76" font-family="Helvetica,sans-Serif" font-size="10.00">_semantic</text>
</a>
</g>
</g>
<!-- Node2&#45;&gt;Node8 -->
<g id="edge48_Node000002_Node000008" class="edge">
<title>Node2&#45;&gt;Node8</title>
<g id="a_edge48_Node000002_Node000008"><a xlink:title=" ">
<path fill="none" stroke="#63b8ff" d="M191.62,-429.71C196.16,-465.04 216.49,-585.37 288,-642.76 343.78,-687.52 426.17,-698.68 486.22,-700.07"/>
<polygon fill="#63b8ff" stroke="#63b8ff" points="486.36,-703.57 496.41,-700.22 486.46,-696.57 486.36,-703.57"/>
</a>
</g>
</g>
<!-- Node9 -->
<g id="Node000009" class="node">
<title>Node9</title>
<g id="a_Node000009"><a xlink:href="../../d8/d48/classlci_1_1post__comm__x.html#aeba95544c83eb0d890dbba7bc3216629" target="_top" xlink:title=" ">
<polygon fill="white" stroke="#666666" points="634,-663.26 494,-663.26 494,-644.26 634,-644.26 634,-663.26"/>
<text text-anchor="middle" x="564" y="-651.26" font-family="Helvetica,sans-Serif" font-size="10.00">lci::post_comm_x::device</text>
</a>
</g>
</g>
<!-- Node2&#45;&gt;Node9 -->
<g id="edge49_Node000002_Node000009" class="edge">
<title>Node2&#45;&gt;Node9</title>
<g id="a_edge49_Node000002_Node000009"><a xlink:title=" ">
<path fill="none" stroke="#63b8ff" d="M192.45,-429.36C199.28,-460.44 225.27,-558.92 288,-604.76 344.45,-646 424.53,-656.33 483.72,-657.49"/>
<polygon fill="#63b8ff" stroke="#63b8ff" points="483.74,-660.99 493.78,-657.6 483.82,-653.99 483.74,-660.99"/>
</a>
</g>
</g>
<!-- Node10 -->
<g id="Node000010" class="node">
<title>Node10</title>
<g id="a_Node000010"><a xlink:href="../../d8/d48/classlci_1_1post__comm__x.html#acff8c179998df3f0403b417e0e21bb6c" target="_top" xlink:title=" ">
<polygon fill="white" stroke="#666666" points="639.5,-626.26 488.5,-626.26 488.5,-607.26 639.5,-607.26 639.5,-626.26"/>
<text text-anchor="middle" x="564" y="-614.26" font-family="Helvetica,sans-Serif" font-size="10.00">lci::post_comm_x::direction</text>
</a>
</g>
</g>
<!-- Node2&#45;&gt;Node10 -->
<g id="edge50_Node000002_Node000010" class="edge">
<title>Node2&#45;&gt;Node10</title>
<g id="a_edge50_Node000002_Node000010"><a xlink:title=" ">
<path fill="none" stroke="#63b8ff" d="M193.89,-429.63C203.69,-456.57 234.81,-531.71 288,-566.76 344.2,-603.77 420.2,-615.36 478.07,-618.2"/>
<polygon fill="#63b8ff" stroke="#63b8ff" points="478.15,-621.71 488.29,-618.62 478.44,-614.71 478.15,-621.71"/>
</a>
</g>
</g>
<!-- Node11 -->
<g id="Node000011" class="node">
<title>Node11</title>
<g id="a_Node000011"><a xlink:href="../../d8/d48/classlci_1_1post__comm__x.html#ae0c9922b3e26b41b2233e1ad7c544285" target="_top" xlink:title=" ">
<polygon fill="white" stroke="#666666" points="639.5,-589.26 488.5,-589.26 488.5,-570.26 639.5,-570.26 639.5,-589.26"/>
<text text-anchor="middle" x="564" y="-577.26" font-family="Helvetica,sans-Serif" font-size="10.00">lci::post_comm_x::endpoint</text>
</a>
</g>
</g>
<!-- Node2&#45;&gt;Node11 -->
<g id="edge51_Node000002_Node000011" class="edge">
<title>Node2&#45;&gt;Node11</title>
<g id="a_edge51_Node000002_Node000011"><a xlink:title=" ">
<path fill="none" stroke="#63b8ff" d="M195.85,-429.42C208.6,-451.45 243.09,-505.44 288,-530.76 346.19,-563.55 421.36,-575.24 478.41,-579.04"/>
<polygon fill="#63b8ff" stroke="#63b8ff" points="478.29,-582.54 488.48,-579.64 478.7,-575.55 478.29,-582.54"/>
</a>
</g>
</g>
<!-- Node12 -->
<g id="Node000012" class="node">
<title>Node12</title>
<g id="a_Node000012"><a xlink:href="../../d8/d48/classlci_1_1post__comm__x.html#a5fbebcb64ab56a952dee33be796101b5" target="_top" xlink:title=" ">
<polygon fill="white" stroke="#666666" points="629.5,-551.76 498.5,-551.76 498.5,-521.76 629.5,-521.76 629.5,-551.76"/>
<text text-anchor="start" x="506.5" y="-539.76" font-family="Helvetica,sans-Serif" font-size="10.00">lci::post_comm_x::local</text>
<text text-anchor="middle" x="564" y="-528.76" font-family="Helvetica,sans-Serif" font-size="10.00">_buffer</text>
</a>
</g>
</g>
<!-- Node2&#45;&gt;Node12 -->
<g id="edge52_Node000002_Node000012" class="edge">
<title>Node2&#45;&gt;Node12</title>
<g id="a_edge52_Node000002_Node000012"><a xlink:title=" ">
<path fill="none" stroke="#63b8ff" d="M198.75,-429.38C214.25,-446.75 249.65,-483.07 288,-499.76 351.86,-527.54 431.29,-535.75 488.35,-537.62"/>
<polygon fill="#63b8ff" stroke="#63b8ff" points="488.28,-541.12 498.37,-537.9 488.47,-534.12 488.28,-541.12"/>
</a>
</g>
</g>
<!-- Node13 -->
<g id="Node000013" class="node">
<title>Node13</title>
<g id="a_Node000013"><a xlink:href="../../d8/d48/classlci_1_1post__comm__x.html#ac305197d2165dae6d99957db8a10b1ec" target="_top" xlink:title=" ">
<polygon fill="white" stroke="#666666" points="646,-503.26 482,-503.26 482,-484.26 646,-484.26 646,-503.26"/>
<text text-anchor="middle" x="564" y="-491.26" font-family="Helvetica,sans-Serif" font-size="10.00">lci::post_comm_x::local_comp</text>
</a>
</g>
</g>
<!-- Node2&#45;&gt;Node13 -->
<g id="edge53_Node000002_Node000013" class="edge">
<title>Node2&#45;&gt;Node13</title>
<g id="a_edge53_Node000002_Node000013"><a xlink:title=" ">
<path fill="none" stroke="#63b8ff" d="M202.87,-429.39C220.59,-442.56 254.74,-465.71 288,-475.76 347.38,-493.69 417.14,-498.08 471.55,-498.04"/>
<polygon fill="#63b8ff" stroke="#63b8ff" points="471.89,-501.54 481.87,-497.98 471.85,-494.54 471.89,-501.54"/>
</a>
</g>
</g>
<!-- Node14 -->
<g id="Node000014" class="node">
<title>Node14</title>
<g id="a_Node000014"><a xlink:href="../../d8/d48/classlci_1_1post__comm__x.html#a3b0aeb006ad6399eead4c36de986bfe9" target="_top" xlink:title=" ">
<polygon fill="white" stroke="#666666" points="641,-465.76 487,-465.76 487,-435.76 641,-435.76 641,-465.76"/>
<text text-anchor="start" x="495" y="-453.76" font-family="Helvetica,sans-Serif" font-size="10.00">lci::post_comm_x::matching</text>
<text text-anchor="middle" x="564" y="-442.76" font-family="Helvetica,sans-Serif" font-size="10.00">_engine</text>
</a>
</g>
</g>
<!-- Node2&#45;&gt;Node14 -->
<g id="edge54_Node000002_Node000014" class="edge">
<title>Node2&#45;&gt;Node14</title>
<g id="a_edge54_Node000002_Node000014"><a xlink:title=" ">
<path fill="none" stroke="#63b8ff" d="M208.94,-429.34C228.1,-438.72 259.25,-452.35 288,-457.76 350.41,-469.49 422.18,-467.14 476.75,-462.18"/>
<polygon fill="#63b8ff" stroke="#63b8ff" points="477.11,-465.66 486.74,-461.23 476.45,-458.69 477.11,-465.66"/>
</a>
</g>
</g>
<!-- Node15 -->
<g id="Node000015" class="node">
<title>Node15</title>
<g id="a_Node000015"><a xlink:href="../../d8/d48/classlci_1_1post__comm__x.html#af4a99ff113c37ad6618b8c0ead4961de" target="_top" xlink:title=" ">
<polygon fill="white" stroke="#666666" points="641,-417.76 487,-417.76 487,-387.76 641,-387.76 641,-417.76"/>
<text text-anchor="start" x="495" y="-405.76" font-family="Helvetica,sans-Serif" font-size="10.00">lci::post_comm_x::matching</text>
<text text-anchor="middle" x="564" y="-394.76" font-family="Helvetica,sans-Serif" font-size="10.00">_policy</text>
</a>
</g>
</g>
<!-- Node2&#45;&gt;Node15 -->
<g id="edge55_Node000002_Node000015" class="edge">
<title>Node2&#45;&gt;Node15</title>
<g id="a_edge55_Node000002_Node000015"><a xlink:title=" ">
<path fill="none" stroke="#63b8ff" d="M252.01,-416.95C313.24,-414.15 407.75,-409.84 476.51,-406.7"/>
<polygon fill="#63b8ff" stroke="#63b8ff" points="477.06,-410.18 486.89,-406.23 476.74,-403.19 477.06,-410.18"/>
</a>
</g>
</g>
<!-- Node16 -->
<g id="Node000016" class="node">
<title>Node16</title>
<g id="a_Node000016"><a xlink:href="../../d8/d48/classlci_1_1post__comm__x.html#acc7a3e0f3f2f3b4f60c1cbf721955430" target="_top" xlink:title=" ">
<polygon fill="white" stroke="#666666" points="625,-369.26 503,-369.26 503,-350.26 625,-350.26 625,-369.26"/>
<text text-anchor="middle" x="564" y="-357.26" font-family="Helvetica,sans-Serif" font-size="10.00">lci::post_comm_x::mr</text>
</a>
</g>
</g>
<!-- Node2&#45;&gt;Node16 -->
<g id="edge56_Node000002_Node000016" class="edge">
<title>Node2&#45;&gt;Node16</title>
<g id="a_edge56_Node000002_Node000016"><a xlink:title=" ">
<path fill="none" stroke="#63b8ff" d="M248.24,-410.24C261.31,-408.1 275.13,-405.84 288,-403.76 357.76,-392.45 437.5,-379.71 493.08,-370.86"/>
<polygon fill="#63b8ff" stroke="#63b8ff" points="493.85,-374.29 503.18,-369.26 492.75,-367.37 493.85,-374.29"/>
</a>
</g>
</g>
<!-- Node17 -->
<g id="Node000017" class="node">
<title>Node17</title>
<g id="a_Node000017"><a xlink:href="../../d8/d48/classlci_1_1post__comm__x.html#a97897d1d8d6b9536ed256043814d2326" target="_top" xlink:title=" ">
<polygon fill="white" stroke="#666666" points="647.5,-332.26 480.5,-332.26 480.5,-313.26 647.5,-313.26 647.5,-332.26"/>
<text text-anchor="middle" x="564" y="-320.26" font-family="Helvetica,sans-Serif" font-size="10.00">lci::post_comm_x::packet_pool</text>
</a>
</g>
</g>
<!-- Node2&#45;&gt;Node17 -->
<g id="edge57_Node000002_Node000017" class="edge">
<title>Node2&#45;&gt;Node17</title>
<g id="a_edge57_Node000002_Node000017"><a xlink:title=" ">
<path fill="none" stroke="#63b8ff" d="M207.94,-410.11C227.06,-399.92 258.88,-384.07 288,-374.76 349.21,-355.17 420.58,-341.94 475.27,-333.73"/>
<polygon fill="#63b8ff" stroke="#63b8ff" points="475.9,-337.18 485.28,-332.26 474.88,-330.25 475.9,-337.18"/>
</a>
</g>
</g>
<!-- Node18 -->
<g id="Node000018" class="node">
<title>Node18</title>
<g id="a_Node000018"><a xlink:href="../../d8/d48/classlci_1_1post__comm__x.html#a585bbb73afe075d1ee694782f3790ba3" target="_top" xlink:title=" ">
<polygon fill="white" stroke="#666666" points="629,-295.26 499,-295.26 499,-276.26 629,-276.26 629,-295.26"/>
<text text-anchor="middle" x="564" y="-283.26" font-family="Helvetica,sans-Serif" font-size="10.00">lci::post_comm_x::rank</text>
</a>
</g>
</g>
<!-- Node2&#45;&gt;Node18 -->
<g id="edge58_Node000002_Node000018" class="edge">
<title>Node2&#45;&gt;Node18</title>
<g id="a_edge58_Node000002_Node000018"><a xlink:title=" ">
<path fill="none" stroke="#63b8ff" d="M198.48,-410.1C213.8,-392.25 249.29,-354.24 288,-335.76 351.62,-305.38 431.59,-293.38 488.87,-288.68"/>
<polygon fill="#63b8ff" stroke="#63b8ff" points="489.23,-292.16 498.94,-287.91 488.7,-285.18 489.23,-292.16"/>
</a>
</g>
</g>
<!-- Node19 -->
<g id="Node000019" class="node">
<title>Node19</title>
<g id="a_Node000019"><a xlink:href="../../d8/d48/classlci_1_1post__comm__x.html#a2e7b0182c47448aba2ac476d0515b204" target="_top" xlink:title=" ">
<polygon fill="white" stroke="#666666" points="652,-258.26 476,-258.26 476,-239.26 652,-239.26 652,-258.26"/>
<text text-anchor="middle" x="564" y="-246.26" font-family="Helvetica,sans-Serif" font-size="10.00">lci::post_comm_x::remote_comp</text>
</a>
</g>
</g>
<!-- Node2&#45;&gt;Node19 -->
<g id="edge59_Node000002_Node000019" class="edge">
<title>Node2&#45;&gt;Node19</title>
<g id="a_edge59_Node000002_Node000019"><a xlink:title=" ">
<path fill="none" stroke="#63b8ff" d="M194.68,-409.95C205.78,-385.22 238.57,-320.22 288,-290.76 341.21,-259.04 410.14,-248.56 465.67,-246"/>
<polygon fill="#63b8ff" stroke="#63b8ff" points="466.02,-249.49 475.88,-245.61 465.75,-242.49 466.02,-249.49"/>
</a>
</g>
</g>
<!-- Node20 -->
<g id="Node000020" class="node">
<title>Node20</title>
<g id="a_Node000020"><a xlink:href="../../d8/d48/classlci_1_1post__comm__x.html#aff40e0501e1d3575d07f5daa1e62131e" target="_top" xlink:title=" ">
<polygon fill="white" stroke="#666666" points="648.5,-221.26 479.5,-221.26 479.5,-202.26 648.5,-202.26 648.5,-221.26"/>
<text text-anchor="middle" x="564" y="-209.26" font-family="Helvetica,sans-Serif" font-size="10.00">lci::post_comm_x::remote_disp</text>
</a>
</g>
</g>
<!-- Node2&#45;&gt;Node20 -->
<g id="edge60_Node000002_Node000020" class="edge">
<title>Node2&#45;&gt;Node20</title>
<g id="a_edge60_Node000002_Node000020"><a xlink:title=" ">
<path fill="none" stroke="#63b8ff" d="M192.6,-410.03C199.74,-379.51 226.19,-285.17 288,-243.76 340.73,-208.42 412.25,-201.03 469.13,-202.15"/>
<polygon fill="#63b8ff" stroke="#63b8ff" points="469.12,-205.65 479.21,-202.44 469.32,-198.65 469.12,-205.65"/>
</a>
</g>
</g>
<!-- Node21 -->
<g id="Node000021" class="node">
<title>Node21</title>
<g id="a_Node000021"><a xlink:href="../../d8/d48/classlci_1_1post__comm__x.html#ac7c8004a77938b1252e4d6c00be2ecb1" target="_top" xlink:title=" ">
<polygon fill="white" stroke="#666666" points="626.5,-184.26 501.5,-184.26 501.5,-165.26 626.5,-165.26 626.5,-184.26"/>
<text text-anchor="middle" x="564" y="-172.26" font-family="Helvetica,sans-Serif" font-size="10.00">lci::post_comm_x::rmr</text>
</a>
</g>
</g>
<!-- Node2&#45;&gt;Node21 -->
<g id="edge61_Node000002_Node000021" class="edge">
<title>Node2&#45;&gt;Node21</title>
<g id="a_edge61_Node000002_Node000021"><a xlink:title=" ">
<path fill="none" stroke="#63b8ff" d="M191.37,-410.06C195.13,-374.58 213.32,-251.09 288,-197.76 351.76,-152.22 446.28,-155.48 506.25,-163.77"/>
<polygon fill="#63b8ff" stroke="#63b8ff" points="505.89,-167.25 516.29,-165.25 506.91,-160.33 505.89,-167.25"/>
</a>
</g>
</g>
<!-- Node22 -->
<g id="Node000022" class="node">
<title>Node22</title>
<g id="a_Node000022"><a xlink:href="../../d8/d48/classlci_1_1post__comm__x.html#a5e0a01b764e117c34c93ca67b4ac4ea1" target="_top" xlink:title=" ">
<polygon fill="white" stroke="#666666" points="637,-147.26 491,-147.26 491,-128.26 637,-128.26 637,-147.26"/>
<text text-anchor="middle" x="564" y="-135.26" font-family="Helvetica,sans-Serif" font-size="10.00">lci::post_comm_x::runtime</text>
</a>
</g>
</g>
<!-- Node2&#45;&gt;Node22 -->
<g id="edge62_Node000002_Node000022" class="edge">
<title>Node2&#45;&gt;Node22</title>
<g id="a_edge62_Node000002_Node000022"><a xlink:title=" ">
<path fill="none" stroke="#63b8ff" d="M190.59,-410.15C191.53,-370.62 200.9,-219.6 288,-154.76 354.01,-105.61 455.5,-114.84 514.97,-126.18"/>
<polygon fill="#63b8ff" stroke="#63b8ff" points="514.36,-129.63 524.85,-128.16 515.74,-122.77 514.36,-129.63"/>
</a>
</g>
</g>
<!-- Node23 -->
<g id="Node000023" class="node">
<title>Node23</title>
<g id="a_Node000023"><a xlink:href="../../d8/d48/classlci_1_1post__comm__x.html#ad5675593b1c63c632d12b4d829cfc17a" target="_top" xlink:title=" ">
<polygon fill="white" stroke="#666666" points="628,-110.26 500,-110.26 500,-91.26 628,-91.26 628,-110.26"/>
<text text-anchor="middle" x="564" y="-98.26" font-family="Helvetica,sans-Serif" font-size="10.00">lci::post_comm_x::size</text>
</a>
</g>
</g>
<!-- Node2&#45;&gt;Node23 -->
<g id="edge63_Node000002_Node000023" class="edge">
<title>Node2&#45;&gt;Node23</title>
<g id="a_edge63_Node000002_Node000023"><a xlink:title=" ">
<path fill="none" stroke="#63b8ff" d="M190.03,-410.13C188.49,-366.84 188.54,-188.91 288,-112.76 318.47,-89.43 418.94,-90.65 489.59,-94.79"/>
<polygon fill="#63b8ff" stroke="#63b8ff" points="489.59,-98.3 499.78,-95.43 490.02,-91.31 489.59,-98.3"/>
</a>
</g>
</g>
<!-- Node24 -->
<g id="Node000024" class="node">
<title>Node24</title>
<g id="a_Node000024"><a xlink:href="../../d8/d48/classlci_1_1post__comm__x.html#ac61d3e4ae9c78551510080c9080181af" target="_top" xlink:title=" ">
<polygon fill="white" stroke="#666666" points="626,-73.26 502,-73.26 502,-54.26 626,-54.26 626,-73.26"/>
<text text-anchor="middle" x="564" y="-61.26" font-family="Helvetica,sans-Serif" font-size="10.00">lci::post_comm_x::tag</text>
</a>
</g>
</g>
<!-- Node2&#45;&gt;Node24 -->
<g id="edge64_Node000002_Node000024" class="edge">
<title>Node2&#45;&gt;Node24</title>
<g id="a_edge64_Node000002_Node000024"><a xlink:title=" ">
<path fill="none" stroke="#63b8ff" d="M191.89,-409.94C199.23,-359.59 235.13,-131.05 288,-87.76 350.74,-36.38 450.69,-42.44 511.24,-52.45"/>
<polygon fill="#63b8ff" stroke="#63b8ff" points="510.89,-55.94 521.34,-54.21 512.1,-49.04 510.89,-55.94"/>
</a>
</g>
</g>
<!-- Node25 -->
<g id="Node000025" class="node">
<title>Node25</title>
<g id="a_Node000025"><a xlink:href="../../d8/d48/classlci_1_1post__comm__x.html#a77cf8049d80a743e5793fe1bfe47037b" target="_top" xlink:title=" ">
<polygon fill="white" stroke="#666666" points="628.5,-35.76 499.5,-35.76 499.5,-5.76 628.5,-5.76 628.5,-35.76"/>
<text text-anchor="start" x="507.5" y="-23.76" font-family="Helvetica,sans-Serif" font-size="10.00">lci::post_comm_x::user</text>
<text text-anchor="middle" x="564" y="-12.76" font-family="Helvetica,sans-Serif" font-size="10.00">_context</text>
</a>
</g>
</g>
<!-- Node2&#45;&gt;Node25 -->
<g id="edge65_Node000002_Node000025" class="edge">
<title>Node2&#45;&gt;Node25</title>
<g id="a_edge65_Node000002_Node000025"><a xlink:title=" ">
<path fill="none" stroke="#63b8ff" d="M191.5,-410.05C197.3,-355.89 228.38,-91.69 288,-41.76 343.2,4.48 428.44,3.64 489.38,-4.92"/>
<polygon fill="#63b8ff" stroke="#63b8ff" points="488.91,-8.39 499.32,-6.41 489.95,-1.47 488.91,-8.39"/>
</a>
</g>
</g>
<!-- Node4 -->
<g id="Node000004" class="node">
<title>Node4</title>
<g id="a_Node000004"><a xlink:href="../../d8/d48/classlci_1_1post__comm__x.html#a80b57b5b1a98ae641edbaca6cd109883" target="_top" xlink:title=" ">
<polygon fill="white" stroke="#666666" points="817,-417.76 688,-417.76 688,-387.76 817,-387.76 817,-417.76"/>
<text text-anchor="start" x="696" y="-405.76" font-family="Helvetica,sans-Serif" font-size="10.00">lci::post_comm_x::post</text>
<text text-anchor="middle" x="752.5" y="-394.76" font-family="Helvetica,sans-Serif" font-size="10.00">_comm_x</text>
</a>
</g>
</g>
<!-- Node3&#45;&gt;Node4 -->
<g id="edge3_Node000003_Node000004" class="edge">
<title>Node3&#45;&gt;Node4</title>
<g id="a_edge3_Node000003_Node000004"><a xlink:title=" ">
<path fill="none" stroke="#63b8ff" d="M638.92,-826.19C643.7,-823.65 648.13,-820.54 652,-816.76 708.49,-761.43 740.05,-509.44 748.9,-428.13"/>
<polygon fill="#63b8ff" stroke="#63b8ff" points="752.42,-428.14 750,-417.83 745.46,-427.4 752.42,-428.14"/>
</a>
</g>
</g>
<!-- Node5&#45;&gt;Node4 -->
<g id="edge5_Node000005_Node000004" class="edge">
<title>Node5&#45;&gt;Node4</title>
<g id="a_edge5_Node000005_Node000004"><a xlink:title=" ">
<path fill="none" stroke="#63b8ff" d="M631.3,-782.51C638.98,-779.11 646.14,-774.64 652,-768.76 701.06,-719.51 736.87,-502.58 747.92,-428.02"/>
<polygon fill="#63b8ff" stroke="#63b8ff" points="751.39,-428.49 749.37,-418.09 744.46,-427.48 751.39,-428.49"/>
</a>
</g>
</g>
<!-- Node6&#45;&gt;Node4 -->
<g id="edge7_Node000006_Node000004" class="edge">
<title>Node6&#45;&gt;Node4</title>
<g id="a_edge7_Node000006_Node000004"><a xlink:title=" ">
<path fill="none" stroke="#63b8ff" d="M631.09,-734.3C638.8,-730.94 646.03,-726.53 652,-720.76 736.19,-639.39 749.45,-487.9 751.31,-428.04"/>
<polygon fill="#63b8ff" stroke="#63b8ff" points="754.81,-428.04 751.54,-417.96 747.82,-427.88 754.81,-428.04"/>
</a>
</g>
</g>
<!-- Node7&#45;&gt;Node3 -->
<g id="edge9_Node000007_Node000003" class="edge">
<title>Node7&#45;&gt;Node3</title>
<g id="a_edge9_Node000007_Node000003"><a xlink:title=" ">
<path fill="none" stroke="#63b8ff" d="M364.57,-448.45C362.99,-496.51 362.66,-711.15 476,-816.76 477.53,-818.18 479.13,-819.5 480.81,-820.74"/>
<polygon fill="#63b8ff" stroke="#63b8ff" points="479.34,-823.94 489.7,-826.18 483,-817.98 479.34,-823.94"/>
</a>
</g>
</g>
<!-- Node7&#45;&gt;Node5 -->
<g id="edge10_Node000007_Node000005" class="edge">
<title>Node7&#45;&gt;Node5</title>
<g id="a_edge10_Node000007_Node000005"><a xlink:title=" ">
<path fill="none" stroke="#63b8ff" d="M365.15,-448.28C366.38,-492.02 377.43,-675.49 476,-768.76 479.51,-772.08 483.45,-774.95 487.64,-777.43"/>
<polygon fill="#63b8ff" stroke="#63b8ff" points="486.09,-780.57 496.59,-781.99 489.27,-774.33 486.09,-780.57"/>
</a>
</g>
</g>
<!-- Node7&#45;&gt;Node6 -->
<g id="edge11_Node000007_Node000006" class="edge">
<title>Node7&#45;&gt;Node6</title>
<g id="a_edge11_Node000007_Node000006"><a xlink:title=" ">
<path fill="none" stroke="#63b8ff" d="M365.78,-448.49C369.55,-488.64 389.35,-642.82 476,-720.76 479.6,-723.99 483.59,-726.79 487.84,-729.22"/>
<polygon fill="#63b8ff" stroke="#63b8ff" points="486.34,-732.39 496.85,-733.7 489.45,-726.12 486.34,-732.39"/>
</a>
</g>
</g>
<!-- Node7&#45;&gt;Node8 -->
<g id="edge12_Node000007_Node000008" class="edge">
<title>Node7&#45;&gt;Node8</title>
<g id="a_edge12_Node000007_Node000008"><a xlink:title=" ">
<path fill="none" stroke="#63b8ff" d="M366.65,-448.53C373.22,-484.35 400.94,-609.72 476,-672.76 479.47,-675.67 483.26,-678.23 487.27,-680.48"/>
<polygon fill="#63b8ff" stroke="#63b8ff" points="485.8,-683.66 496.31,-684.93 488.89,-677.38 485.8,-683.66"/>
</a>
</g>
</g>
<!-- Node7&#45;&gt;Node9 -->
<g id="edge14_Node000007_Node000009" class="edge">
<title>Node7&#45;&gt;Node9</title>
<g id="a_edge14_Node000007_Node000009"><a xlink:title=" ">
<path fill="none" stroke="#63b8ff" d="M367.38,-448.47C375.88,-480.86 407.84,-585.97 476,-635.76 478.68,-637.71 481.52,-639.47 484.48,-641.04"/>
<polygon fill="#63b8ff" stroke="#63b8ff" points="483.11,-644.26 493.66,-645.23 486.02,-637.9 483.11,-644.26"/>
</a>
</g>
</g>
<!-- Node7&#45;&gt;Node10 -->
<g id="edge16_Node000007_Node000010" class="edge">
<title>Node7&#45;&gt;Node10</title>
<g id="a_edge16_Node000007_Node000010"><a xlink:title=" ">
<path fill="none" stroke="#63b8ff" d="M368.73,-448.6C380.02,-477.02 416.78,-559.6 476,-598.76 478.41,-600.35 480.94,-601.81 483.55,-603.14"/>
<polygon fill="#63b8ff" stroke="#63b8ff" points="482.14,-606.35 492.7,-607.2 484.98,-599.95 482.14,-606.35"/>
</a>
</g>
</g>
<!-- Node7&#45;&gt;Node11 -->
<g id="edge18_Node000007_Node000011" class="edge">
<title>Node7&#45;&gt;Node11</title>
<g id="a_edge18_Node000007_Node000011"><a xlink:title=" ">
<path fill="none" stroke="#63b8ff" d="M370.83,-448.54C385.36,-472 425.66,-531.68 476,-560.76 479.87,-562.99 483.97,-564.96 488.21,-566.7"/>
<polygon fill="#63b8ff" stroke="#63b8ff" points="487.07,-570.01 497.66,-570.16 489.47,-563.44 487.07,-570.01"/>
</a>
</g>
</g>
<!-- Node7&#45;&gt;Node12 -->
<g id="edge20_Node000007_Node000012" class="edge">
<title>Node7&#45;&gt;Node12</title>
<g id="a_edge20_Node000007_Node000012"><a xlink:title=" ">
<path fill="none" stroke="#63b8ff" d="M376.57,-448.31C395.98,-463.9 436.82,-494.85 476,-512.76 480.32,-514.73 484.83,-516.57 489.43,-518.28"/>
<polygon fill="#63b8ff" stroke="#63b8ff" points="488.37,-521.62 498.96,-521.62 490.68,-515.01 488.37,-521.62"/>
</a>
</g>
</g>
<!-- Node7&#45;&gt;Node13 -->
<g id="edge22_Node000007_Node000013" class="edge">
<title>Node7&#45;&gt;Node13</title>
<g id="a_edge22_Node000007_Node000013"><a xlink:title=" ">
<path fill="none" stroke="#63b8ff" d="M392.14,-448.39C414.48,-456.11 447.06,-466.92 476,-474.76 485.51,-477.33 495.68,-479.8 505.59,-482.06"/>
<polygon fill="#63b8ff" stroke="#63b8ff" points="504.86,-485.48 515.38,-484.24 506.39,-478.65 504.86,-485.48"/>
</a>
</g>
</g>
<!-- Node7&#45;&gt;Node14 -->
<g id="edge24_Node000007_Node000014" class="edge">
<title>Node7&#45;&gt;Node14</title>
<g id="a_edge24_Node000007_Node000014"><a xlink:title=" ">
<path fill="none" stroke="#63b8ff" d="M440.14,-443.31C452.1,-444.03 464.56,-444.79 476.76,-445.53"/>
<polygon fill="#63b8ff" stroke="#63b8ff" points="476.73,-449.03 486.93,-446.15 477.16,-442.05 476.73,-449.03"/>
</a>
</g>
</g>
<!-- Node7&#45;&gt;Node15 -->
<g id="edge26_Node000007_Node000015" class="edge">
<title>Node7&#45;&gt;Node15</title>
<g id="a_edge26_Node000007_Node000015"><a xlink:title=" ">
<path fill="none" stroke="#63b8ff" d="M417.28,-429.25C435.6,-425.92 456.68,-422.09 477.01,-418.39"/>
<polygon fill="#63b8ff" stroke="#63b8ff" points="477.71,-421.82 486.92,-416.59 476.46,-414.93 477.71,-421.82"/>
</a>
</g>
</g>
<!-- Node7&#45;&gt;Node16 -->
<g id="edge28_Node000007_Node000016" class="edge">
<title>Node7&#45;&gt;Node16</title>
<g id="a_edge28_Node000007_Node000016"><a xlink:title=" ">
<path fill="none" stroke="#63b8ff" d="M379.45,-429.22C400.06,-416.03 439.44,-392.32 476,-378.76 483.05,-376.14 490.57,-373.83 498.12,-371.81"/>
<polygon fill="#63b8ff" stroke="#63b8ff" points="499.18,-375.15 508.03,-369.31 497.47,-368.36 499.18,-375.15"/>
</a>
</g>
</g>
<!-- Node7&#45;&gt;Node17 -->
<g id="edge30_Node000007_Node000017" class="edge">
<title>Node7&#45;&gt;Node17</title>
<g id="a_edge30_Node000007_Node000017"><a xlink:title=" ">
<path fill="none" stroke="#63b8ff" d="M373.05,-428.99C389.93,-409.19 431.2,-364.32 476,-341.76 480.83,-339.32 485.97,-337.2 491.24,-335.35"/>
<polygon fill="#63b8ff" stroke="#63b8ff" points="492.36,-338.66 500.83,-332.29 490.24,-331.99 492.36,-338.66"/>
</a>
</g>
</g>
<!-- Node7&#45;&gt;Node18 -->
<g id="edge32_Node000007_Node000018" class="edge">
<title>Node7&#45;&gt;Node18</title>
<g id="a_edge32_Node000007_Node000018"><a xlink:title=" ">
<path fill="none" stroke="#63b8ff" d="M369.97,-429.12C383.36,-404.17 422.85,-337.12 476,-304.76 480.16,-302.23 484.6,-300.03 489.21,-298.13"/>
<polygon fill="#63b8ff" stroke="#63b8ff" points="490.65,-301.33 498.84,-294.61 488.25,-294.75 490.65,-301.33"/>
</a>
</g>
</g>
<!-- Node7&#45;&gt;Node19 -->
<g id="edge34_Node000007_Node000019" class="edge">
<title>Node7&#45;&gt;Node19</title>
<g id="a_edge34_Node000007_Node000019"><a xlink:title=" ">
<path fill="none" stroke="#63b8ff" d="M368.24,-429.12C378.66,-399.7 414.29,-310.43 476,-267.76 478.88,-265.76 481.94,-263.97 485.12,-262.36"/>
<polygon fill="#63b8ff" stroke="#63b8ff" points="486.6,-265.54 494.34,-258.3 483.78,-259.13 486.6,-265.54"/>
</a>
</g>
</g>
<!-- Node7&#45;&gt;Node20 -->
<g id="edge36_Node000007_Node000020" class="edge">
<title>Node7&#45;&gt;Node20</title>
<g id="a_edge36_Node000007_Node000020"><a xlink:title=" ">
<path fill="none" stroke="#63b8ff" d="M367.12,-429.02C374.95,-395.51 405.5,-284.11 476,-230.76 478.37,-228.96 480.87,-227.33 483.48,-225.85"/>
<polygon fill="#63b8ff" stroke="#63b8ff" points="485.23,-228.89 492.68,-221.36 482.15,-222.6 485.23,-228.89"/>
</a>
</g>
</g>
<!-- Node7&#45;&gt;Node21 -->
<g id="edge38_Node000007_Node000021" class="edge">
<title>Node7&#45;&gt;Node21</title>
<g id="a_edge38_Node000007_Node000021"><a xlink:title=" ">
<path fill="none" stroke="#63b8ff" d="M366.27,-429.17C371.67,-392.26 396.31,-258.22 476,-193.76 480.7,-189.96 485.99,-186.87 491.58,-184.38"/>
<polygon fill="#63b8ff" stroke="#63b8ff" points="493.12,-187.54 501.23,-180.71 490.64,-180.99 493.12,-187.54"/>
</a>
</g>
</g>
<!-- Node7&#45;&gt;Node22 -->
<g id="edge40_Node000007_Node000022" class="edge">
<title>Node7&#45;&gt;Node22</title>
<g id="a_edge40_Node000007_Node000022"><a xlink:title=" ">
<path fill="none" stroke="#63b8ff" d="M365.65,-429.16C368.9,-388.94 387.07,-232.49 476,-156.76 477.82,-155.21 479.73,-153.78 481.72,-152.46"/>
<polygon fill="#63b8ff" stroke="#63b8ff" points="483.88,-155.26 490.91,-147.34 480.47,-149.15 483.88,-155.26"/>
</a>
</g>
</g>
<!-- Node7&#45;&gt;Node23 -->
<g id="edge42_Node000007_Node000023" class="edge">
<title>Node7&#45;&gt;Node23</title>
<g id="a_edge42_Node000007_Node000023"><a xlink:title=" ">
<path fill="none" stroke="#63b8ff" d="M365.16,-429.13C366.45,-385.78 377.73,-206.91 476,-119.76 480.27,-115.97 485.11,-112.89 490.27,-110.37"/>
<polygon fill="#63b8ff" stroke="#63b8ff" points="491.93,-113.47 499.86,-106.44 489.28,-107 491.93,-113.47"/>
</a>
</g>
</g>
<!-- Node7&#45;&gt;Node24 -->
<g id="edge44_Node000007_Node000024" class="edge">
<title>Node7&#45;&gt;Node24</title>
<g id="a_edge44_Node000007_Node000024"><a xlink:title=" ">
<path fill="none" stroke="#63b8ff" d="M364.77,-429C364.23,-382.48 368.37,-181.39 476,-82.76 480.79,-78.37 486.35,-74.91 492.29,-72.19"/>
<polygon fill="#63b8ff" stroke="#63b8ff" points="493.82,-75.36 501.9,-68.51 491.31,-68.82 493.82,-75.36"/>
</a>
</g>
</g>
<!-- Node7&#45;&gt;Node25 -->
<g id="edge46_Node000007_Node000025" class="edge">
<title>Node7&#45;&gt;Node25</title>
<g id="a_edge46_Node000007_Node000025"><a xlink:title=" ">
<path fill="none" stroke="#63b8ff" d="M364.55,-429.11C362.81,-380.32 361.62,-158.51 476,-44.76 480.2,-40.58 485.05,-37.11 490.28,-34.24"/>
<polygon fill="#63b8ff" stroke="#63b8ff" points="491.83,-37.38 499.38,-29.94 488.84,-31.05 491.83,-37.38"/>
</a>
</g>
</g>
<!-- Node8&#45;&gt;Node4 -->
<g id="edge13_Node000008_Node000004" class="edge">
<title>Node8&#45;&gt;Node4</title>
<g id="a_edge13_Node000008_Node000004"><a xlink:title=" ">
<path fill="none" stroke="#63b8ff" d="M631.7,-685.64C639.13,-682.37 646.12,-678.16 652,-672.76 724.61,-605.99 744.41,-481.59 749.66,-428.18"/>
<polygon fill="#63b8ff" stroke="#63b8ff" points="753.18,-428.18 750.58,-417.91 746.2,-427.56 753.18,-428.18"/>
</a>
</g>
</g>
<!-- Node9&#45;&gt;Node4 -->
<g id="edge15_Node000009_Node000004" class="edge">
<title>Node9&#45;&gt;Node4</title>
<g id="a_edge15_Node000009_Node000004"><a xlink:title=" ">
<path fill="none" stroke="#63b8ff" d="M634.37,-646.01C640.73,-643.4 646.75,-640.05 652,-635.76 718,-581.77 741.1,-475.95 748.42,-427.75"/>
<polygon fill="#63b8ff" stroke="#63b8ff" points="751.89,-428.24 749.83,-417.85 744.96,-427.26 751.89,-428.24"/>
</a>
</g>
</g>
<!-- Node10&#45;&gt;Node4 -->
<g id="edge17_Node000010_Node000004" class="edge">
<title>Node10&#45;&gt;Node4</title>
<g id="a_edge17_Node000010_Node000004"><a xlink:title=" ">
<path fill="none" stroke="#63b8ff" d="M637.55,-607.19C642.7,-604.91 647.59,-602.13 652,-598.76 709.02,-555.18 735.96,-469.85 746.24,-427.63"/>
<polygon fill="#63b8ff" stroke="#63b8ff" points="749.66,-428.41 748.51,-417.88 742.84,-426.83 749.66,-428.41"/>
</a>
</g>
</g>
<!-- Node11&#45;&gt;Node4 -->
<g id="edge19_Node000011_Node000004" class="edge">
<title>Node11&#45;&gt;Node4</title>
<g id="a_edge19_Node000011_Node000004"><a xlink:title=" ">
<path fill="none" stroke="#63b8ff" d="M634.16,-570.11C640.49,-567.65 646.56,-564.57 652,-560.76 699.58,-527.37 729.32,-463.24 742.87,-427.81"/>
<polygon fill="#63b8ff" stroke="#63b8ff" points="746.23,-428.81 746.41,-418.22 739.66,-426.39 746.23,-428.81"/>
</a>
</g>
</g>
<!-- Node12&#45;&gt;Node4 -->
<g id="edge21_Node000012_Node000004" class="edge">
<title>Node12&#45;&gt;Node4</title>
<g id="a_edge21_Node000012_Node000004"><a xlink:title=" ">
<path fill="none" stroke="#63b8ff" d="M629.93,-523.3C637.65,-520.42 645.2,-516.95 652,-512.76 687.92,-490.62 718.63,-451.75 736.07,-426.64"/>
<polygon fill="#63b8ff" stroke="#63b8ff" points="739.17,-428.31 741.89,-418.07 733.38,-424.38 739.17,-428.31"/>
</a>
</g>
</g>
<!-- Node13&#45;&gt;Node4 -->
<g id="edge23_Node000013_Node000004" class="edge">
<title>Node13&#45;&gt;Node4</title>
<g id="a_edge23_Node000013_Node000004"><a xlink:title=" ">
<path fill="none" stroke="#63b8ff" d="M624.55,-484.18C633.95,-481.7 643.39,-478.61 652,-474.76 680.27,-462.11 708.49,-440.63 727.62,-424.42"/>
<polygon fill="#63b8ff" stroke="#63b8ff" points="729.96,-427.02 735.23,-417.84 725.38,-421.73 729.96,-427.02"/>
</a>
</g>
</g>
<!-- Node14&#45;&gt;Node4 -->
<g id="edge25_Node000014_Node000004" class="edge">
<title>Node14&#45;&gt;Node4</title>
<g id="a_edge25_Node000014_Node000004"><a xlink:title=" ">
<path fill="none" stroke="#63b8ff" d="M623.5,-435.7C642.51,-430.81 663.76,-425.34 683.41,-420.28"/>
<polygon fill="#63b8ff" stroke="#63b8ff" points="684.4,-423.64 693.21,-417.76 682.65,-416.86 684.4,-423.64"/>
</a>
</g>
</g>
<!-- Node15&#45;&gt;Node4 -->
<g id="edge27_Node000015_Node000004" class="edge">
<title>Node15&#45;&gt;Node4</title>
<g id="a_edge27_Node000015_Node000004"><a xlink:title=" ">
<path fill="none" stroke="#63b8ff" d="M641.13,-402.76C653.24,-402.76 665.76,-402.76 677.82,-402.76"/>
<polygon fill="#63b8ff" stroke="#63b8ff" points="677.83,-406.26 687.83,-402.76 677.83,-399.26 677.83,-406.26"/>
</a>
</g>
</g>
<!-- Node16&#45;&gt;Node4 -->
<g id="edge29_Node000016_Node000004" class="edge">
<title>Node16&#45;&gt;Node4</title>
<g id="a_edge29_Node000016_Node000004"><a xlink:title=" ">
<path fill="none" stroke="#63b8ff" d="M609.75,-369.33C623.33,-372.29 638.29,-375.61 652,-378.76 661.13,-380.85 670.71,-383.1 680.18,-385.36"/>
<polygon fill="#63b8ff" stroke="#63b8ff" points="679.44,-388.78 689.98,-387.7 681.07,-381.97 679.44,-388.78"/>
</a>
</g>
</g>
<!-- Node17&#45;&gt;Node4 -->
<g id="edge31_Node000017_Node000004" class="edge">
<title>Node17&#45;&gt;Node4</title>
<g id="a_edge31_Node000017_Node000004"><a xlink:title=" ">
<path fill="none" stroke="#63b8ff" d="M621.99,-332.33C632.17,-334.84 642.53,-337.95 652,-341.76 677.43,-351.99 703.77,-368.44 722.95,-381.68"/>
<polygon fill="#63b8ff" stroke="#63b8ff" points="721.04,-384.62 731.24,-387.5 725.07,-378.89 721.04,-384.62"/>
</a>
</g>
</g>
<!-- Node18&#45;&gt;Node4 -->
<g id="edge33_Node000018_Node000004" class="edge">
<title>Node18&#45;&gt;Node4</title>
<g id="a_edge33_Node000018_Node000004"><a xlink:title=" ">
<path fill="none" stroke="#63b8ff" d="M628.77,-295.29C636.84,-297.75 644.8,-300.85 652,-304.76 686.03,-323.19 716.3,-356.73 734.28,-379.38"/>
<polygon fill="#63b8ff" stroke="#63b8ff" points="731.65,-381.71 740.55,-387.47 737.19,-377.42 731.65,-381.71"/>
</a>
</g>
</g>
<!-- Node19&#45;&gt;Node4 -->
<g id="edge35_Node000019_Node000004" class="edge">
<title>Node19&#45;&gt;Node4</title>
<g id="a_edge35_Node000019_Node000004"><a xlink:title=" ">
<path fill="none" stroke="#63b8ff" d="M632.54,-258.32C639.4,-260.79 646.03,-263.89 652,-267.76 694.32,-295.2 724.93,-347.33 740.3,-378.16"/>
<polygon fill="#63b8ff" stroke="#63b8ff" points="737.24,-379.89 744.75,-387.37 743.55,-376.84 737.24,-379.89"/>
</a>
</g>
</g>
<!-- Node20&#45;&gt;Node4 -->
<g id="edge37_Node000020_Node000004" class="edge">
<title>Node20&#45;&gt;Node4</title>
<g id="a_edge37_Node000020_Node000004"><a xlink:title=" ">
<path fill="none" stroke="#63b8ff" d="M634.75,-221.36C640.89,-223.84 646.76,-226.93 652,-230.76 702.93,-267.95 731.86,-339.73 744.24,-377.74"/>
<polygon fill="#63b8ff" stroke="#63b8ff" points="740.97,-379.01 747.3,-387.51 747.65,-376.92 740.97,-379.01"/>
</a>
</g>
</g>
<!-- Node21&#45;&gt;Node4 -->
<g id="edge39_Node000021_Node000004" class="edge">
<title>Node21&#45;&gt;Node4</title>
<g id="a_edge39_Node000021_Node000004"><a xlink:title=" ">
<path fill="none" stroke="#63b8ff" d="M626.68,-180.83C635.81,-183.75 644.61,-187.89 652,-193.76 711.77,-241.18 737.61,-333.2 746.97,-377.6"/>
<polygon fill="#63b8ff" stroke="#63b8ff" points="743.57,-378.44 748.96,-387.56 750.44,-377.07 743.57,-378.44"/>
</a>
</g>
</g>
<!-- Node22&#45;&gt;Node4 -->
<g id="edge41_Node000022_Node000004" class="edge">
<title>Node22&#45;&gt;Node4</title>
<g id="a_edge41_Node000022_Node000004"><a xlink:title=" ">
<path fill="none" stroke="#63b8ff" d="M637.05,-147.38C642.44,-149.89 647.51,-152.97 652,-156.76 720.73,-214.73 742.5,-327.3 748.96,-377.51"/>
<polygon fill="#63b8ff" stroke="#63b8ff" points="745.49,-378 750.15,-387.52 752.44,-377.17 745.49,-378"/>
</a>
</g>
</g>
<!-- Node23&#45;&gt;Node4 -->
<g id="edge43_Node000023_Node000004" class="edge">
<title>Node23&#45;&gt;Node4</title>
<g id="a_edge43_Node000023_Node000004"><a xlink:title=" ">
<path fill="none" stroke="#63b8ff" d="M628.13,-106.46C636.86,-109.45 645.17,-113.71 652,-119.76 729.92,-188.63 746.82,-322.25 750.49,-377.7"/>
<polygon fill="#63b8ff" stroke="#63b8ff" points="746.99,-377.92 751.06,-387.7 753.98,-377.52 746.99,-377.92"/>
</a>
</g>
</g>
<!-- Node24&#45;&gt;Node4 -->
<g id="edge45_Node000024_Node000004" class="edge">
<title>Node24&#45;&gt;Node4</title>
<g id="a_edge45_Node000024_Node000004"><a xlink:title=" ">
<path fill="none" stroke="#63b8ff" d="M626.1,-68.5C635.62,-71.54 644.71,-76.07 652,-82.76 738.99,-162.53 750.59,-316.83 751.66,-377.44"/>
<polygon fill="#63b8ff" stroke="#63b8ff" points="748.16,-377.66 751.76,-387.63 755.16,-377.59 748.16,-377.66"/>
</a>
</g>
</g>
<!-- Node25&#45;&gt;Node4 -->
<g id="edge47_Node000025_Node000004" class="edge">
<title>Node25&#45;&gt;Node4</title>
<g id="a_edge47_Node000025_Node000004"><a xlink:title=" ">
<path fill="none" stroke="#63b8ff" d="M628.64,-29.92C637.31,-33.43 645.46,-38.23 652,-44.76 745.88,-138.45 753.14,-312.57 752.36,-377.49"/>
<polygon fill="#63b8ff" stroke="#63b8ff" points="748.86,-377.56 752.16,-387.63 755.86,-377.7 748.86,-377.56"/>
</a>
</g>
</g>
</g>
</svg>
