<?xml version="1.0" encoding="UTF-8" standalone="no"?>
<!DOCTYPE svg PUBLIC "-//W3C//DTD SVG 1.1//EN"
 "http://www.w3.org/Graphics/SVG/1.1/DTD/svg11.dtd">
<!-- Generated by graphviz version 2.43.0 (0)
 -->
<!-- Title: lci::post_comm Pages: 1 -->
<svg width="825pt" height="988pt"
 viewBox="0.00 0.00 825.00 988.41" xmlns="http://www.w3.org/2000/svg" xmlns:xlink="http://www.w3.org/1999/xlink">
<g id="graph0" class="graph" transform="scale(1 1) rotate(0) translate(4 984.41)">
<title>lci::post_comm</title>
<!-- Node1 -->
<g id="Node000001" class="node">
<title>Node1</title>
<g id="a_Node000001"><a xlink:title=" ">
<polygon fill="#999999" stroke="#666666" points="91,-494.41 0,-494.41 0,-475.41 91,-475.41 91,-494.41"/>
<text text-anchor="middle" x="45.5" y="-482.41" font-family="Helvetica,sans-Serif" font-size="10.00">lci::post_comm</text>
</a>
</g>
</g>
<!-- Node2 -->
<g id="Node000002" class="node">
<title>Node2</title>
<g id="a_Node000002"><a xlink:href="../../d8/d48/classlci_1_1post__comm__x.html#a0e18f25200cd26b05cceda73dd2cfab9" target="_top" xlink:title=" ">
<polygon fill="white" stroke="#666666" points="252,-494.41 127,-494.41 127,-475.41 252,-475.41 252,-494.41"/>
<text text-anchor="middle" x="189.5" y="-482.41" font-family="Helvetica,sans-Serif" font-size="10.00">lci::post_comm_x::call</text>
</a>
</g>
</g>
<!-- Node1&#45;&gt;Node2 -->
<g id="edge1_Node000001_Node000002" class="edge">
<title>Node1&#45;&gt;Node2</title>
<g id="a_edge1_Node000001_Node000002"><a xlink:title=" ">
<path fill="none" stroke="#63b8ff" d="M91.04,-484.91C99.22,-484.91 107.96,-484.91 116.7,-484.91"/>
<polygon fill="#63b8ff" stroke="#63b8ff" points="116.95,-488.41 126.95,-484.91 116.95,-481.41 116.95,-488.41"/>
</a>
</g>
</g>
<!-- Node3 -->
<g id="Node000003" class="node">
<title>Node3</title>
<g id="a_Node000003"><a xlink:href="../../d8/d48/classlci_1_1post__comm__x.html#a9d02814a94c01ec00d6dc0bca83d3f1e" target="_top" xlink:title=" ">
<polygon fill="white" stroke="#666666" points="646,-980.41 482,-980.41 482,-961.41 646,-961.41 646,-980.41"/>
<text text-anchor="middle" x="564" y="-968.41" font-family="Helvetica,sans-Serif" font-size="10.00">lci::post_comm_x::allow_done</text>
</a>
</g>
</g>
<!-- Node2&#45;&gt;Node3 -->
<g id="edge2_Node000002_Node000003" class="edge">
<title>Node2&#45;&gt;Node3</title>
<g id="a_edge2_Node000002_Node000003"><a xlink:title=" ">
<path fill="none" stroke="#63b8ff" d="M191.35,-494.46C196.61,-551.45 226.55,-846.26 288,-907.91 335.64,-955.71 411.65,-970.31 471.7,-973.59"/>
<polygon fill="#63b8ff" stroke="#63b8ff" points="471.81,-977.1 481.96,-974.06 472.13,-970.11 471.81,-977.1"/>
</a>
</g>
</g>
<!-- Node5 -->
<g id="Node000005" class="node">
<title>Node5</title>
<g id="a_Node000005"><a xlink:href="../../d8/d48/classlci_1_1post__comm__x.html#ae3d784bab8848569e70f6caa5d0d3c9d" target="_top" xlink:title=" ">
<polygon fill="white" stroke="#666666" points="631,-942.91 497,-942.91 497,-912.91 631,-912.91 631,-942.91"/>
<text text-anchor="start" x="505" y="-930.91" font-family="Helvetica,sans-Serif" font-size="10.00">lci::post_comm_x::allow</text>
<text text-anchor="middle" x="564" y="-919.91" font-family="Helvetica,sans-Serif" font-size="10.00">_posted</text>
</a>
</g>
</g>
<!-- Node2&#45;&gt;Node5 -->
<g id="edge4_Node000002_Node000005" class="edge">
<title>Node2&#45;&gt;Node5</title>
<g id="a_edge4_Node000002_Node000005"><a xlink:title=" ">
<path fill="none" stroke="#63b8ff" d="M191.63,-494.47C198.14,-547.85 232.45,-808.48 288,-862.91 340.36,-914.22 425.29,-927.77 486.93,-930.17"/>
<polygon fill="#63b8ff" stroke="#63b8ff" points="486.9,-933.67 497,-930.47 487.11,-926.67 486.9,-933.67"/>
</a>
</g>
</g>
<!-- Node6 -->
<g id="Node000006" class="node">
<title>Node6</title>
<g id="a_Node000006"><a xlink:href="../../d8/d48/classlci_1_1post__comm__x.html#af2e9941ebbea16b2eaf5e1971b7c0e2a" target="_top" xlink:title=" ">
<polygon fill="white" stroke="#666666" points="631,-894.91 497,-894.91 497,-864.91 631,-864.91 631,-894.91"/>
<text text-anchor="start" x="505" y="-882.91" font-family="Helvetica,sans-Serif" font-size="10.00">lci::post_comm_x::allow</text>
<text text-anchor="middle" x="564" y="-871.91" font-family="Helvetica,sans-Serif" font-size="10.00">_retry</text>
</a>
</g>
</g>
<!-- Node2&#45;&gt;Node6 -->
<g id="edge6_Node000002_Node000006" class="edge">
<title>Node2&#45;&gt;Node6</title>
<g id="a_edge6_Node000002_Node000006"><a xlink:title=" ">
<path fill="none" stroke="#63b8ff" d="M190.07,-494.63C188.66,-539.24 189.01,-726.22 288,-818.91 341.17,-868.7 425.57,-881.2 486.86,-882.95"/>
<polygon fill="#63b8ff" stroke="#63b8ff" points="486.8,-886.45 496.87,-883.15 486.94,-879.45 486.8,-886.45"/>
</a>
</g>
</g>
<!-- Node7 -->
<g id="Node000007" class="node">
<title>Node7</title>
<g id="a_Node000007"><a xlink:href="../../d8/d48/classlci_1_1post__comm__x.html#afb8fa49b57ef32da67e8686b33eca31a" target="_top" xlink:title=" ">
<polygon fill="white" stroke="#666666" points="635,-846.41 493,-846.41 493,-827.41 635,-827.41 635,-846.41"/>
<text text-anchor="middle" x="564" y="-834.41" font-family="Helvetica,sans-Serif" font-size="10.00">lci::post_comm_x::buffers</text>
</a>
</g>
</g>
<!-- Node2&#45;&gt;Node7 -->
<g id="edge8_Node000002_Node000007" class="edge">
<title>Node2&#45;&gt;Node7</title>
<g id="a_edge8_Node000002_Node000007"><a xlink:title=" ">
<path fill="none" stroke="#63b8ff" d="M190.57,-494.43C191.42,-535.09 200.38,-695.6 288,-774.91 340.65,-822.57 421.97,-836.12 482.54,-838.92"/>
<polygon fill="#63b8ff" stroke="#63b8ff" points="482.71,-842.42 492.83,-839.3 482.97,-835.43 482.71,-842.42"/>
</a>
</g>
</g>
<!-- Node8 -->
<g id="Node000008" class="node">
<title>Node8</title>
<g id="a_Node000008"><a xlink:href="../../d8/d48/classlci_1_1post__comm__x.html#a4cf7ea64cdd3772453cc0fb3b5d62b28" target="_top" xlink:title=" ">
<polygon fill="white" stroke="#666666" points="440,-494.41 288,-494.41 288,-475.41 440,-475.41 440,-494.41"/>
<text text-anchor="middle" x="364" y="-482.41" font-family="Helvetica,sans-Serif" font-size="10.00">lci::post_comm_x::call_impl</text>
</a>
</g>
</g>
<!-- Node2&#45;&gt;Node8 -->
<g id="edge10_Node000002_Node000008" class="edge">
<title>Node2&#45;&gt;Node8</title>
<g id="a_edge10_Node000002_Node000008"><a xlink:title=" ">
<path fill="none" stroke="#63b8ff" d="M252.29,-484.91C260.56,-484.91 269.15,-484.91 277.74,-484.91"/>
<polygon fill="#63b8ff" stroke="#63b8ff" points="277.78,-488.41 287.78,-484.91 277.78,-481.41 277.78,-488.41"/>
</a>
</g>
</g>
<!-- Node9 -->
<g id="Node000009" class="node">
<title>Node9</title>
<g id="a_Node000009"><a xlink:href="../../d8/d48/classlci_1_1post__comm__x.html#ae7b576a0cfbce10d5b9d83f3df130397" target="_top" xlink:title=" ">
<polygon fill="white" stroke="#666666" points="631.5,-808.91 496.5,-808.91 496.5,-778.91 631.5,-778.91 631.5,-808.91"/>
<text text-anchor="start" x="504.5" y="-796.91" font-family="Helvetica,sans-Serif" font-size="10.00">lci::post_comm_x::comp</text>
<text text-anchor="middle" x="564" y="-785.91" font-family="Helvetica,sans-Serif" font-size="10.00">_semantic</text>
</a>
</g>
</g>
<!-- Node2&#45;&gt;Node9 -->
<g id="edge55_Node000002_Node000009" class="edge">
<title>Node2&#45;&gt;Node9</title>
<g id="a_edge55_Node000002_Node000009"><a xlink:title=" ">
<path fill="none" stroke="#63b8ff" d="M191.17,-494.57C194.31,-531.77 210.81,-666.93 288,-732.91 342.82,-779.77 425.74,-792.88 486.19,-795.58"/>
<polygon fill="#63b8ff" stroke="#63b8ff" points="486.32,-799.09 496.44,-795.95 486.58,-792.09 486.32,-799.09"/>
</a>
</g>
</g>
<!-- Node10 -->
<g id="Node000010" class="node">
<title>Node10</title>
<g id="a_Node000010"><a xlink:href="../../d8/d48/classlci_1_1post__comm__x.html#aeba95544c83eb0d890dbba7bc3216629" target="_top" xlink:title=" ">
<polygon fill="white" stroke="#666666" points="634,-760.41 494,-760.41 494,-741.41 634,-741.41 634,-760.41"/>
<text text-anchor="middle" x="564" y="-748.41" font-family="Helvetica,sans-Serif" font-size="10.00">lci::post_comm_x::device</text>
</a>
</g>
</g>
<!-- Node2&#45;&gt;Node10 -->
<g id="edge56_Node000002_Node000010" class="edge">
<title>Node2&#45;&gt;Node10</title>
<g id="a_edge56_Node000002_Node000010"><a xlink:title=" ">
<path fill="none" stroke="#63b8ff" d="M191.98,-494.58C197.62,-527.84 220.89,-638.45 288,-691.91 343.33,-735.99 424.1,-749.07 483.8,-752.13"/>
<polygon fill="#63b8ff" stroke="#63b8ff" points="483.8,-755.63 493.95,-752.56 484.1,-748.64 483.8,-755.63"/>
</a>
</g>
</g>
<!-- Node11 -->
<g id="Node000011" class="node">
<title>Node11</title>
<g id="a_Node000011"><a xlink:href="../../d8/d48/classlci_1_1post__comm__x.html#acff8c179998df3f0403b417e0e21bb6c" target="_top" xlink:title=" ">
<polygon fill="white" stroke="#666666" points="639.5,-723.41 488.5,-723.41 488.5,-704.41 639.5,-704.41 639.5,-723.41"/>
<text text-anchor="middle" x="564" y="-711.41" font-family="Helvetica,sans-Serif" font-size="10.00">lci::post_comm_x::direction</text>
</a>
</g>
</g>
<!-- Node2&#45;&gt;Node11 -->
<g id="edge57_Node000002_Node000011" class="edge">
<title>Node2&#45;&gt;Node11</title>
<g id="a_edge57_Node000002_Node000011"><a xlink:title=" ">
<path fill="none" stroke="#63b8ff" d="M193.22,-494.61C201.84,-523.39 231.32,-608.95 288,-650.91 342.87,-691.53 419.51,-706.6 477.95,-711.89"/>
<polygon fill="#63b8ff" stroke="#63b8ff" points="478.02,-715.41 488.27,-712.74 478.59,-708.43 478.02,-715.41"/>
</a>
</g>
</g>
<!-- Node12 -->
<g id="Node000012" class="node">
<title>Node12</title>
<g id="a_Node000012"><a xlink:href="../../d8/d48/classlci_1_1post__comm__x.html#ae0c9922b3e26b41b2233e1ad7c544285" target="_top" xlink:title=" ">
<polygon fill="white" stroke="#666666" points="639.5,-686.41 488.5,-686.41 488.5,-667.41 639.5,-667.41 639.5,-686.41"/>
<text text-anchor="middle" x="564" y="-674.41" font-family="Helvetica,sans-Serif" font-size="10.00">lci::post_comm_x::endpoint</text>
</a>
</g>
</g>
<!-- Node2&#45;&gt;Node12 -->
<g id="edge58_Node000002_Node000012" class="edge">
<title>Node2&#45;&gt;Node12</title>
<g id="a_edge58_Node000002_Node000012"><a xlink:title=" ">
<path fill="none" stroke="#63b8ff" d="M195.12,-494.48C207,-518.05 241.01,-579.18 288,-609.91 344.93,-647.14 420.71,-663.7 478.3,-671.06"/>
<polygon fill="#63b8ff" stroke="#63b8ff" points="478.12,-674.56 488.47,-672.28 478.96,-667.61 478.12,-674.56"/>
</a>
</g>
</g>
<!-- Node13 -->
<g id="Node000013" class="node">
<title>Node13</title>
<g id="a_Node000013"><a xlink:href="../../d8/d48/classlci_1_1post__comm__x.html#ab8750ce06a3cd00c64d39ad5315827e2" target="_top" xlink:title=" ">
<polygon fill="white" stroke="#666666" points="630.5,-648.91 497.5,-648.91 497.5,-618.91 630.5,-618.91 630.5,-648.91"/>
<text text-anchor="start" x="505.5" y="-636.91" font-family="Helvetica,sans-Serif" font-size="10.00">lci::post_comm_x::force</text>
<text text-anchor="middle" x="564" y="-625.91" font-family="Helvetica,sans-Serif" font-size="10.00">_zcopy</text>
</a>
</g>
</g>
<!-- Node2&#45;&gt;Node13 -->
<g id="edge59_Node000002_Node000013" class="edge">
<title>Node2&#45;&gt;Node13</title>
<g id="a_edge59_Node000002_Node000013"><a xlink:title=" ">
<path fill="none" stroke="#63b8ff" d="M198.2,-494.61C213.33,-512.96 248.89,-552.73 288,-572.91 350.63,-605.22 429.88,-620.48 487.2,-627.65"/>
<polygon fill="#63b8ff" stroke="#63b8ff" points="486.94,-631.15 497.28,-628.86 487.77,-624.2 486.94,-631.15"/>
</a>
</g>
</g>
<!-- Node14 -->
<g id="Node000014" class="node">
<title>Node14</title>
<g id="a_Node000014"><a xlink:href="../../d8/d48/classlci_1_1post__comm__x.html#a5fbebcb64ab56a952dee33be796101b5" target="_top" xlink:title=" ">
<polygon fill="white" stroke="#666666" points="629.5,-600.91 498.5,-600.91 498.5,-570.91 629.5,-570.91 629.5,-600.91"/>
<text text-anchor="start" x="506.5" y="-588.91" font-family="Helvetica,sans-Serif" font-size="10.00">lci::post_comm_x::local</text>
<text text-anchor="middle" x="564" y="-577.91" font-family="Helvetica,sans-Serif" font-size="10.00">_buffer</text>
</a>
</g>
</g>
<!-- Node2&#45;&gt;Node14 -->
<g id="edge60_Node000002_Node000014" class="edge">
<title>Node2&#45;&gt;Node14</title>
<g id="a_edge60_Node000002_Node000014"><a xlink:title=" ">
<path fill="none" stroke="#63b8ff" d="M202.95,-494.47C220.76,-507.63 255.02,-531.03 288,-542.91 353.27,-566.43 431.82,-577.09 488.23,-581.92"/>
<polygon fill="#63b8ff" stroke="#63b8ff" points="488.24,-585.44 498.49,-582.76 488.81,-578.46 488.24,-585.44"/>
</a>
</g>
</g>
<!-- Node15 -->
<g id="Node000015" class="node">
<title>Node15</title>
<g id="a_Node000015"><a xlink:href="../../d8/d48/classlci_1_1post__comm__x.html#ac305197d2165dae6d99957db8a10b1ec" target="_top" xlink:title=" ">
<polygon fill="white" stroke="#666666" points="646,-552.41 482,-552.41 482,-533.41 646,-533.41 646,-552.41"/>
<text text-anchor="middle" x="564" y="-540.41" font-family="Helvetica,sans-Serif" font-size="10.00">lci::post_comm_x::local_comp</text>
</a>
</g>
</g>
<!-- Node2&#45;&gt;Node15 -->
<g id="edge61_Node000002_Node000015" class="edge">
<title>Node2&#45;&gt;Node15</title>
<g id="a_edge61_Node000002_Node000015"><a xlink:title=" ">
<path fill="none" stroke="#63b8ff" d="M212.09,-494.51C231.54,-502.71 261.11,-514.07 288,-519.91 348.37,-533.03 417.69,-538.77 471.63,-541.23"/>
<polygon fill="#63b8ff" stroke="#63b8ff" points="471.72,-544.74 481.86,-541.67 472.02,-537.75 471.72,-544.74"/>
</a>
</g>
</g>
<!-- Node16 -->
<g id="Node000016" class="node">
<title>Node16</title>
<g id="a_Node000016"><a xlink:href="../../d8/d48/classlci_1_1post__comm__x.html#a3b0aeb006ad6399eead4c36de986bfe9" target="_top" xlink:title=" ">
<polygon fill="white" stroke="#666666" points="641,-514.91 487,-514.91 487,-484.91 641,-484.91 641,-514.91"/>
<text text-anchor="start" x="495" y="-502.91" font-family="Helvetica,sans-Serif" font-size="10.00">lci::post_comm_x::matching</text>
<text text-anchor="middle" x="564" y="-491.91" font-family="Helvetica,sans-Serif" font-size="10.00">_engine</text>
</a>
</g>
</g>
<!-- Node2&#45;&gt;Node16 -->
<g id="edge62_Node000002_Node000016" class="edge">
<title>Node2&#45;&gt;Node16</title>
<g id="a_edge62_Node000002_Node000016"><a xlink:title=" ">
<path fill="none" stroke="#63b8ff" d="M230.09,-494.42C247.71,-498.19 268.77,-502.05 288,-503.91 350.96,-509.99 422.39,-508.7 476.67,-506.05"/>
<polygon fill="#63b8ff" stroke="#63b8ff" points="477.14,-509.53 486.94,-505.52 476.78,-502.54 477.14,-509.53"/>
</a>
</g>
</g>
<!-- Node17 -->
<g id="Node000017" class="node">
<title>Node17</title>
<g id="a_Node000017"><a xlink:href="../../d8/d48/classlci_1_1post__comm__x.html#af4a99ff113c37ad6618b8c0ead4961de" target="_top" xlink:title=" ">
<polygon fill="white" stroke="#666666" points="641,-466.91 487,-466.91 487,-436.91 641,-436.91 641,-466.91"/>
<text text-anchor="start" x="495" y="-454.91" font-family="Helvetica,sans-Serif" font-size="10.00">lci::post_comm_x::matching</text>
<text text-anchor="middle" x="564" y="-443.91" font-family="Helvetica,sans-Serif" font-size="10.00">_policy</text>
</a>
</g>
</g>
<!-- Node2&#45;&gt;Node17 -->
<g id="edge63_Node000002_Node000017" class="edge">
<title>Node2&#45;&gt;Node17</title>
<g id="a_edge63_Node000002_Node000017"><a xlink:title=" ">
<path fill="none" stroke="#63b8ff" d="M235.46,-475.37C251.92,-472.2 270.74,-468.97 288,-466.91 350.89,-459.42 422.33,-455.67 476.63,-453.79"/>
<polygon fill="#63b8ff" stroke="#63b8ff" points="477.02,-457.28 486.9,-453.45 476.79,-450.28 477.02,-457.28"/>
</a>
</g>
</g>
<!-- Node18 -->
<g id="Node000018" class="node">
<title>Node18</title>
<g id="a_Node000018"><a xlink:href="../../d8/d48/classlci_1_1post__comm__x.html#acc7a3e0f3f2f3b4f60c1cbf721955430" target="_top" xlink:title=" ">
<polygon fill="white" stroke="#666666" points="625,-418.41 503,-418.41 503,-399.41 625,-399.41 625,-418.41"/>
<text text-anchor="middle" x="564" y="-406.41" font-family="Helvetica,sans-Serif" font-size="10.00">lci::post_comm_x::mr</text>
</a>
</g>
</g>
<!-- Node2&#45;&gt;Node18 -->
<g id="edge64_Node000002_Node000018" class="edge">
<title>Node2&#45;&gt;Node18</title>
<g id="a_edge64_Node000002_Node000018"><a xlink:title=" ">
<path fill="none" stroke="#63b8ff" d="M214.17,-475.28C233.69,-467.67 262.25,-457.31 288,-450.91 356.61,-433.86 436.68,-422.58 492.66,-416.04"/>
<polygon fill="#63b8ff" stroke="#63b8ff" points="493.29,-419.49 502.83,-414.87 492.49,-412.54 493.29,-419.49"/>
</a>
</g>
</g>
<!-- Node19 -->
<g id="Node000019" class="node">
<title>Node19</title>
<g id="a_Node000019"><a xlink:href="../../d8/d48/classlci_1_1post__comm__x.html#a97897d1d8d6b9536ed256043814d2326" target="_top" xlink:title=" ">
<polygon fill="white" stroke="#666666" points="647.5,-381.41 480.5,-381.41 480.5,-362.41 647.5,-362.41 647.5,-381.41"/>
<text text-anchor="middle" x="564" y="-369.41" font-family="Helvetica,sans-Serif" font-size="10.00">lci::post_comm_x::packet_pool</text>
</a>
</g>
</g>
<!-- Node2&#45;&gt;Node19 -->
<g id="edge65_Node000002_Node000019" class="edge">
<title>Node2&#45;&gt;Node19</title>
<g id="a_edge65_Node000002_Node000019"><a xlink:title=" ">
<path fill="none" stroke="#63b8ff" d="M201.3,-475.27C218.38,-460.59 253.29,-432.86 288,-418.91 346.07,-395.57 415.57,-383.82 470.18,-377.9"/>
<polygon fill="#63b8ff" stroke="#63b8ff" points="470.61,-381.38 480.2,-376.86 469.89,-374.41 470.61,-381.38"/>
</a>
</g>
</g>
<!-- Node20 -->
<g id="Node000020" class="node">
<title>Node20</title>
<g id="a_Node000020"><a xlink:href="../../d8/d48/classlci_1_1post__comm__x.html#a585bbb73afe075d1ee694782f3790ba3" target="_top" xlink:title=" ">
<polygon fill="white" stroke="#666666" points="629,-344.41 499,-344.41 499,-325.41 629,-325.41 629,-344.41"/>
<text text-anchor="middle" x="564" y="-332.41" font-family="Helvetica,sans-Serif" font-size="10.00">lci::post_comm_x::rank</text>
</a>
</g>
</g>
<!-- Node2&#45;&gt;Node20 -->
<g id="edge66_Node000002_Node000020" class="edge">
<title>Node2&#45;&gt;Node20</title>
<g id="a_edge66_Node000002_Node000020"><a xlink:title=" ">
<path fill="none" stroke="#63b8ff" d="M196.1,-475.21C209.12,-453.63 243.73,-401.72 288,-377.91 350.13,-344.5 430.83,-335.21 488.71,-333.4"/>
<polygon fill="#63b8ff" stroke="#63b8ff" points="488.97,-336.89 498.88,-333.15 488.8,-329.89 488.97,-336.89"/>
</a>
</g>
</g>
<!-- Node21 -->
<g id="Node000021" class="node">
<title>Node21</title>
<g id="a_Node000021"><a xlink:href="../../d8/d48/classlci_1_1post__comm__x.html#a93dcbd1dd8c9601aae5b1a790168fa7a" target="_top" xlink:title=" ">
<polygon fill="white" stroke="#666666" points="637,-307.41 491,-307.41 491,-288.41 637,-288.41 637,-307.41"/>
<text text-anchor="middle" x="564" y="-295.41" font-family="Helvetica,sans-Serif" font-size="10.00">lci::post_comm_x::rbuffers</text>
</a>
</g>
</g>
<!-- Node2&#45;&gt;Node21 -->
<g id="edge67_Node000002_Node000021" class="edge">
<title>Node2&#45;&gt;Node21</title>
<g id="a_edge67_Node000002_Node000021"><a xlink:title=" ">
<path fill="none" stroke="#63b8ff" d="M193.4,-475.29C202.29,-447.56 232.07,-367.23 288,-331.91 345.17,-295.81 422.47,-289.1 480.55,-290.39"/>
<polygon fill="#63b8ff" stroke="#63b8ff" points="480.7,-293.9 490.8,-290.71 480.91,-286.9 480.7,-293.9"/>
</a>
</g>
</g>
<!-- Node22 -->
<g id="Node000022" class="node">
<title>Node22</title>
<g id="a_Node000022"><a xlink:href="../../d8/d48/classlci_1_1post__comm__x.html#a7f19aac1efed9d92dc5455e3a9b2bb03" target="_top" xlink:title=" ">
<polygon fill="white" stroke="#666666" points="635.5,-269.91 492.5,-269.91 492.5,-239.91 635.5,-239.91 635.5,-269.91"/>
<text text-anchor="start" x="500.5" y="-257.91" font-family="Helvetica,sans-Serif" font-size="10.00">lci::post_comm_x::remote</text>
<text text-anchor="middle" x="564" y="-246.91" font-family="Helvetica,sans-Serif" font-size="10.00">_buffer</text>
</a>
</g>
</g>
<!-- Node2&#45;&gt;Node22 -->
<g id="edge68_Node000002_Node000022" class="edge">
<title>Node2&#45;&gt;Node22</title>
<g id="a_edge68_Node000002_Node000022"><a xlink:title=" ">
<path fill="none" stroke="#63b8ff" d="M192.02,-474.96C197.67,-441.78 220.69,-334.41 288,-286.91 344.15,-247.29 423.36,-241.94 482.36,-244.95"/>
<polygon fill="#63b8ff" stroke="#63b8ff" points="482.19,-248.44 492.39,-245.55 482.61,-241.45 482.19,-248.44"/>
</a>
</g>
</g>
<!-- Node23 -->
<g id="Node000023" class="node">
<title>Node23</title>
<g id="a_Node000023"><a xlink:href="../../d8/d48/classlci_1_1post__comm__x.html#a2e7b0182c47448aba2ac476d0515b204" target="_top" xlink:title=" ">
<polygon fill="white" stroke="#666666" points="652,-221.41 476,-221.41 476,-202.41 652,-202.41 652,-221.41"/>
<text text-anchor="middle" x="564" y="-209.41" font-family="Helvetica,sans-Serif" font-size="10.00">lci::post_comm_x::remote_comp</text>
</a>
</g>
</g>
<!-- Node2&#45;&gt;Node23 -->
<g id="edge69_Node000002_Node000023" class="edge">
<title>Node2&#45;&gt;Node23</title>
<g id="a_edge69_Node000002_Node000023"><a xlink:title=" ">
<path fill="none" stroke="#63b8ff" d="M190.97,-475.34C193.39,-437.92 207.63,-300.6 288,-239.91 349,-193.85 440.56,-194.27 501.03,-201.16"/>
<polygon fill="#63b8ff" stroke="#63b8ff" points="500.84,-204.66 511.2,-202.41 501.7,-197.71 500.84,-204.66"/>
</a>
</g>
</g>
<!-- Node24 -->
<g id="Node000024" class="node">
<title>Node24</title>
<g id="a_Node000024"><a xlink:href="../../d8/d48/classlci_1_1post__comm__x.html#ac7c8004a77938b1252e4d6c00be2ecb1" target="_top" xlink:title=" ">
<polygon fill="white" stroke="#666666" points="626.5,-184.41 501.5,-184.41 501.5,-165.41 626.5,-165.41 626.5,-184.41"/>
<text text-anchor="middle" x="564" y="-172.41" font-family="Helvetica,sans-Serif" font-size="10.00">lci::post_comm_x::rmr</text>
</a>
</g>
</g>
<!-- Node2&#45;&gt;Node24 -->
<g id="edge70_Node000002_Node000024" class="edge">
<title>Node2&#45;&gt;Node24</title>
<g id="a_edge70_Node000002_Node000024"><a xlink:title=" ">
<path fill="none" stroke="#63b8ff" d="M190.26,-475.27C189.78,-433.46 194.01,-266.59 288,-193.91 318.63,-170.23 420.38,-168.89 491.13,-171.11"/>
<polygon fill="#63b8ff" stroke="#63b8ff" points="491.21,-174.62 501.33,-171.47 491.46,-167.62 491.21,-174.62"/>
</a>
</g>
</g>
<!-- Node25 -->
<g id="Node000025" class="node">
<title>Node25</title>
<g id="a_Node000025"><a xlink:href="../../d8/d48/classlci_1_1post__comm__x.html#a5e0a01b764e117c34c93ca67b4ac4ea1" target="_top" xlink:title=" ">
<polygon fill="white" stroke="#666666" points="637,-147.41 491,-147.41 491,-128.41 637,-128.41 637,-147.41"/>
<text text-anchor="middle" x="564" y="-135.41" font-family="Helvetica,sans-Serif" font-size="10.00">lci::post_comm_x::runtime</text>
</a>
</g>
</g>
<!-- Node2&#45;&gt;Node25 -->
<g id="edge71_Node000002_Node000025" class="edge">
<title>Node2&#45;&gt;Node25</title>
<g id="a_edge71_Node000002_Node000025"><a xlink:title=" ">
<path fill="none" stroke="#63b8ff" d="M190,-475.36C188.3,-431.55 187.55,-248.45 288,-165.91 348.99,-115.8 445.13,-118.52 506.08,-126.87"/>
<polygon fill="#63b8ff" stroke="#63b8ff" points="505.89,-130.38 516.29,-128.37 506.9,-123.46 505.89,-130.38"/>
</a>
</g>
</g>
<!-- Node26 -->
<g id="Node000026" class="node">
<title>Node26</title>
<g id="a_Node000026"><a xlink:href="../../d8/d48/classlci_1_1post__comm__x.html#ad5675593b1c63c632d12b4d829cfc17a" target="_top" xlink:title=" ">
<polygon fill="white" stroke="#666666" points="628,-110.41 500,-110.41 500,-91.41 628,-91.41 628,-110.41"/>
<text text-anchor="middle" x="564" y="-98.41" font-family="Helvetica,sans-Serif" font-size="10.00">lci::post_comm_x::size</text>
</a>
</g>
</g>
<!-- Node2&#45;&gt;Node26 -->
<g id="edge72_Node000002_Node000026" class="edge">
<title>Node2&#45;&gt;Node26</title>
<g id="a_edge72_Node000002_Node000026"><a xlink:title=" ">
<path fill="none" stroke="#63b8ff" d="M191.58,-475.12C197.67,-421.67 229.61,-165.75 288,-117.91 317.76,-93.53 418.67,-93.07 489.59,-96.1"/>
<polygon fill="#63b8ff" stroke="#63b8ff" points="489.67,-99.61 499.82,-96.57 489.99,-92.62 489.67,-99.61"/>
</a>
</g>
</g>
<!-- Node27 -->
<g id="Node000027" class="node">
<title>Node27</title>
<g id="a_Node000027"><a xlink:href="../../d8/d48/classlci_1_1post__comm__x.html#ac61d3e4ae9c78551510080c9080181af" target="_top" xlink:title=" ">
<polygon fill="white" stroke="#666666" points="626,-73.41 502,-73.41 502,-54.41 626,-54.41 626,-73.41"/>
<text text-anchor="middle" x="564" y="-61.41" font-family="Helvetica,sans-Serif" font-size="10.00">lci::post_comm_x::tag</text>
</a>
</g>
</g>
<!-- Node2&#45;&gt;Node27 -->
<g id="edge73_Node000002_Node000027" class="edge">
<title>Node2&#45;&gt;Node27</title>
<g id="a_edge73_Node000002_Node000027"><a xlink:title=" ">
<path fill="none" stroke="#63b8ff" d="M191.41,-475.16C196.8,-419.53 226.48,-142.95 288,-89.91 349.46,-36.92 449.82,-42.62 510.8,-52.58"/>
<polygon fill="#63b8ff" stroke="#63b8ff" points="510.52,-56.08 520.97,-54.34 511.72,-49.19 510.52,-56.08"/>
</a>
</g>
</g>
<!-- Node28 -->
<g id="Node000028" class="node">
<title>Node28</title>
<g id="a_Node000028"><a xlink:href="../../d8/d48/classlci_1_1post__comm__x.html#a77cf8049d80a743e5793fe1bfe47037b" target="_top" xlink:title=" ">
<polygon fill="white" stroke="#666666" points="628.5,-35.91 499.5,-35.91 499.5,-5.91 628.5,-5.91 628.5,-35.91"/>
<text text-anchor="start" x="507.5" y="-23.91" font-family="Helvetica,sans-Serif" font-size="10.00">lci::post_comm_x::user</text>
<text text-anchor="middle" x="564" y="-12.91" font-family="Helvetica,sans-Serif" font-size="10.00">_context</text>
</a>
</g>
</g>
<!-- Node2&#45;&gt;Node28 -->
<g id="edge74_Node000002_Node000028" class="edge">
<title>Node2&#45;&gt;Node28</title>
<g id="a_edge74_Node000002_Node000028"><a xlink:title=" ">
<path fill="none" stroke="#63b8ff" d="M191.12,-475.18C195.14,-415.79 219.42,-102.66 288,-42.91 342.47,4.55 428.24,3.72 489.5,-4.97"/>
<polygon fill="#63b8ff" stroke="#63b8ff" points="489.08,-8.45 499.49,-6.49 490.13,-1.53 489.08,-8.45"/>
</a>
</g>
</g>
<!-- Node4 -->
<g id="Node000004" class="node">
<title>Node4</title>
<g id="a_Node000004"><a xlink:href="../../d8/d48/classlci_1_1post__comm__x.html#a80b57b5b1a98ae641edbaca6cd109883" target="_top" xlink:title=" ">
<polygon fill="white" stroke="#666666" points="817,-490.91 688,-490.91 688,-460.91 817,-460.91 817,-490.91"/>
<text text-anchor="start" x="696" y="-478.91" font-family="Helvetica,sans-Serif" font-size="10.00">lci::post_comm_x::post</text>
<text text-anchor="middle" x="752.5" y="-467.91" font-family="Helvetica,sans-Serif" font-size="10.00">_comm_x</text>
</a>
</g>
</g>
<!-- Node3&#45;&gt;Node4 -->
<g id="edge3_Node000003_Node000004" class="edge">
<title>Node3&#45;&gt;Node4</title>
<g id="a_edge3_Node000003_Node000004"><a xlink:title=" ">
<path fill="none" stroke="#63b8ff" d="M639.46,-961.25C644.05,-958.72 648.3,-955.64 652,-951.91 716.47,-886.86 743.13,-590.2 749.76,-501.22"/>
<polygon fill="#63b8ff" stroke="#63b8ff" points="753.25,-501.42 750.49,-491.2 746.27,-500.92 753.25,-501.42"/>
</a>
</g>
</g>
<!-- Node5&#45;&gt;Node4 -->
<g id="edge5_Node000005_Node000004" class="edge">
<title>Node5&#45;&gt;Node4</title>
<g id="a_edge5_Node000005_Node000004"><a xlink:title=" ">
<path fill="none" stroke="#63b8ff" d="M631.08,-918.06C638.88,-914.61 646.14,-910.01 652,-903.91 708.76,-844.79 740.33,-583.43 749.01,-500.95"/>
<polygon fill="#63b8ff" stroke="#63b8ff" points="752.5,-501.26 750.05,-490.95 745.54,-500.54 752.5,-501.26"/>
</a>
</g>
</g>
<!-- Node6&#45;&gt;Node4 -->
<g id="edge7_Node000006_Node000004" class="edge">
<title>Node6&#45;&gt;Node4</title>
<g id="a_edge7_Node000006_Node000004"><a xlink:title=" ">
<path fill="none" stroke="#63b8ff" d="M631.35,-869.72C639.02,-866.31 646.17,-861.82 652,-855.91 702.8,-804.45 737.72,-577.47 748.2,-501.09"/>
<polygon fill="#63b8ff" stroke="#63b8ff" points="751.7,-501.33 749.57,-490.96 744.77,-500.4 751.7,-501.33"/>
</a>
</g>
</g>
<!-- Node7&#45;&gt;Node4 -->
<g id="edge9_Node000007_Node000004" class="edge">
<title>Node7&#45;&gt;Node4</title>
<g id="a_edge9_Node000007_Node000004"><a xlink:title=" ">
<path fill="none" stroke="#63b8ff" d="M635.37,-828.76C641.46,-826 647.14,-822.45 652,-817.91 744.51,-731.5 752.69,-564.6 752.26,-501.19"/>
<polygon fill="#63b8ff" stroke="#63b8ff" points="755.75,-500.87 752.1,-490.93 748.75,-500.98 755.75,-500.87"/>
</a>
</g>
</g>
<!-- Node8&#45;&gt;Node3 -->
<g id="edge11_Node000008_Node000003" class="edge">
<title>Node8&#45;&gt;Node3</title>
<g id="a_edge11_Node000008_Node000003"><a xlink:title=" ">
<path fill="none" stroke="#63b8ff" d="M365.93,-494.67C371.9,-555.67 407.02,-884.19 476,-951.91 477.45,-953.33 478.98,-954.66 480.57,-955.89"/>
<polygon fill="#63b8ff" stroke="#63b8ff" points="478.76,-958.89 489.07,-961.35 482.55,-953 478.76,-958.89"/>
</a>
</g>
</g>
<!-- Node8&#45;&gt;Node5 -->
<g id="edge12_Node000008_Node000005" class="edge">
<title>Node8&#45;&gt;Node5</title>
<g id="a_edge12_Node000008_Node000005"><a xlink:title=" ">
<path fill="none" stroke="#63b8ff" d="M366.27,-494.72C373.86,-551.95 414.99,-842.27 476,-903.91 479.47,-907.41 483.4,-910.42 487.63,-913"/>
<polygon fill="#63b8ff" stroke="#63b8ff" points="486.18,-916.19 496.66,-917.7 489.41,-909.98 486.18,-916.19"/>
</a>
</g>
</g>
<!-- Node8&#45;&gt;Node6 -->
<g id="edge13_Node000008_Node000006" class="edge">
<title>Node8&#45;&gt;Node6</title>
<g id="a_edge13_Node000008_Node000006"><a xlink:title=" ">
<path fill="none" stroke="#63b8ff" d="M364.74,-494.62C364.04,-541.86 367.41,-749.64 476,-855.91 479.52,-859.36 483.5,-862.32 487.75,-864.87"/>
<polygon fill="#63b8ff" stroke="#63b8ff" points="486.34,-868.08 496.84,-869.53 489.54,-861.85 486.34,-868.08"/>
</a>
</g>
</g>
<!-- Node8&#45;&gt;Node7 -->
<g id="edge14_Node000008_Node000007" class="edge">
<title>Node8&#45;&gt;Node7</title>
<g id="a_edge14_Node000008_Node000007"><a xlink:title=" ">
<path fill="none" stroke="#63b8ff" d="M365.01,-494.64C365.59,-539.32 374.24,-726.47 476,-817.91 478.47,-820.13 481.14,-822.11 483.96,-823.88"/>
<polygon fill="#63b8ff" stroke="#63b8ff" points="482.33,-826.98 492.81,-828.57 485.61,-820.79 482.33,-826.98"/>
</a>
</g>
</g>
<!-- Node8&#45;&gt;Node9 -->
<g id="edge15_Node000008_Node000009" class="edge">
<title>Node8&#45;&gt;Node9</title>
<g id="a_edge15_Node000008_Node000009"><a xlink:title=" ">
<path fill="none" stroke="#63b8ff" d="M365.72,-494.48C369.28,-534.61 388.5,-690.92 476,-769.91 479.43,-773.01 483.22,-775.71 487.25,-778.06"/>
<polygon fill="#63b8ff" stroke="#63b8ff" points="485.89,-781.3 496.39,-782.69 489.05,-775.05 485.89,-781.3"/>
</a>
</g>
</g>
<!-- Node8&#45;&gt;Node10 -->
<g id="edge17_Node000008_Node000010" class="edge">
<title>Node8&#45;&gt;Node10</title>
<g id="a_edge17_Node000008_Node000010"><a xlink:title=" ">
<path fill="none" stroke="#63b8ff" d="M366.2,-494.64C371.38,-532.09 395.29,-668.05 476,-732.91 478.64,-735.04 481.48,-736.93 484.45,-738.61"/>
<polygon fill="#63b8ff" stroke="#63b8ff" points="483.18,-741.89 493.71,-743.07 486.22,-735.58 483.18,-741.89"/>
</a>
</g>
</g>
<!-- Node8&#45;&gt;Node11 -->
<g id="edge19_Node000008_Node000011" class="edge">
<title>Node8&#45;&gt;Node11</title>
<g id="a_edge19_Node000008_Node000011"><a xlink:title=" ">
<path fill="none" stroke="#63b8ff" d="M367.05,-494.82C374.66,-528.89 404.57,-642.14 476,-695.91 477.66,-697.16 479.39,-698.33 481.18,-699.43"/>
<polygon fill="#63b8ff" stroke="#63b8ff" points="480.02,-702.77 490.51,-704.28 483.25,-696.56 480.02,-702.77"/>
</a>
</g>
</g>
<!-- Node8&#45;&gt;Node12 -->
<g id="edge21_Node000008_Node000012" class="edge">
<title>Node8&#45;&gt;Node12</title>
<g id="a_edge21_Node000008_Node000012"><a xlink:title=" ">
<path fill="none" stroke="#63b8ff" d="M368.21,-494.66C378.53,-524.42 413.89,-614.72 476,-657.91 478.88,-659.91 481.93,-661.71 485.1,-663.32"/>
<polygon fill="#63b8ff" stroke="#63b8ff" points="483.76,-666.55 494.32,-667.39 486.58,-660.15 483.76,-666.55"/>
</a>
</g>
</g>
<!-- Node8&#45;&gt;Node13 -->
<g id="edge23_Node000008_Node000013" class="edge">
<title>Node8&#45;&gt;Node13</title>
<g id="a_edge23_Node000008_Node000013"><a xlink:title=" ">
<path fill="none" stroke="#63b8ff" d="M370.66,-494.41C385.1,-517.82 425.74,-578.62 476,-609.91 479.77,-612.26 483.77,-614.38 487.9,-616.29"/>
<polygon fill="#63b8ff" stroke="#63b8ff" points="486.55,-619.52 497.13,-620.17 489.26,-613.07 486.55,-619.52"/>
</a>
</g>
</g>
<!-- Node8&#45;&gt;Node14 -->
<g id="edge25_Node000008_Node000014" class="edge">
<title>Node8&#45;&gt;Node14</title>
<g id="a_edge25_Node000008_Node000014"><a xlink:title=" ">
<path fill="none" stroke="#63b8ff" d="M376.19,-494.62C395.36,-510.8 436.28,-543.32 476,-561.91 480.3,-563.92 484.79,-565.79 489.39,-567.53"/>
<polygon fill="#63b8ff" stroke="#63b8ff" points="488.31,-570.86 498.91,-570.91 490.65,-564.26 488.31,-570.86"/>
</a>
</g>
</g>
<!-- Node8&#45;&gt;Node15 -->
<g id="edge27_Node000008_Node000015" class="edge">
<title>Node8&#45;&gt;Node15</title>
<g id="a_edge27_Node000008_Node000015"><a xlink:title=" ">
<path fill="none" stroke="#63b8ff" d="M389.41,-494.46C411.72,-502.96 445.74,-515.33 476,-523.91 485.16,-526.51 494.95,-528.96 504.54,-531.18"/>
<polygon fill="#63b8ff" stroke="#63b8ff" points="503.89,-534.62 514.42,-533.41 505.43,-527.79 503.89,-534.62"/>
</a>
</g>
</g>
<!-- Node8&#45;&gt;Node16 -->
<g id="edge29_Node000008_Node000016" class="edge">
<title>Node8&#45;&gt;Node16</title>
<g id="a_edge29_Node000008_Node000016"><a xlink:title=" ">
<path fill="none" stroke="#63b8ff" d="M440.14,-490.6C452.1,-491.51 464.56,-492.45 476.76,-493.38"/>
<polygon fill="#63b8ff" stroke="#63b8ff" points="476.69,-496.88 486.93,-494.15 477.22,-489.9 476.69,-496.88"/>
</a>
</g>
</g>
<!-- Node8&#45;&gt;Node17 -->
<g id="edge31_Node000008_Node000017" class="edge">
<title>Node8&#45;&gt;Node17</title>
<g id="a_edge31_Node000008_Node000017"><a xlink:title=" ">
<path fill="none" stroke="#63b8ff" d="M422,-475.41C439.14,-472.55 458.35,-469.35 476.93,-466.26"/>
<polygon fill="#63b8ff" stroke="#63b8ff" points="477.59,-469.69 486.88,-464.6 476.44,-462.79 477.59,-469.69"/>
</a>
</g>
</g>
<!-- Node8&#45;&gt;Node18 -->
<g id="edge33_Node000008_Node000018" class="edge">
<title>Node8&#45;&gt;Node18</title>
<g id="a_edge33_Node000008_Node000018"><a xlink:title=" ">
<path fill="none" stroke="#63b8ff" d="M380.59,-475.25C401.55,-462.65 440.32,-440.72 476,-427.91 483.37,-425.27 491.22,-422.92 499.08,-420.87"/>
<polygon fill="#63b8ff" stroke="#63b8ff" points="500.14,-424.21 509.01,-418.42 498.46,-417.42 500.14,-424.21"/>
</a>
</g>
</g>
<!-- Node8&#45;&gt;Node19 -->
<g id="edge35_Node000008_Node000019" class="edge">
<title>Node8&#45;&gt;Node19</title>
<g id="a_edge35_Node000008_Node000019"><a xlink:title=" ">
<path fill="none" stroke="#63b8ff" d="M373.38,-475.16C390.56,-455.84 431.85,-412.72 476,-390.91 480.94,-388.47 486.19,-386.34 491.56,-384.49"/>
<polygon fill="#63b8ff" stroke="#63b8ff" points="492.84,-387.75 501.34,-381.43 490.75,-381.07 492.84,-387.75"/>
</a>
</g>
</g>
<!-- Node8&#45;&gt;Node20 -->
<g id="edge37_Node000008_Node000020" class="edge">
<title>Node8&#45;&gt;Node20</title>
<g id="a_edge37_Node000008_Node000020"><a xlink:title=" ">
<path fill="none" stroke="#63b8ff" d="M370.23,-475.13C383.96,-450.46 423.63,-385.4 476,-353.91 480.17,-351.4 484.63,-349.23 489.24,-347.33"/>
<polygon fill="#63b8ff" stroke="#63b8ff" points="490.68,-350.54 498.89,-343.84 488.29,-343.95 490.68,-350.54"/>
</a>
</g>
</g>
<!-- Node8&#45;&gt;Node21 -->
<g id="edge39_Node000008_Node000021" class="edge">
<title>Node8&#45;&gt;Node21</title>
<g id="a_edge39_Node000008_Node000021"><a xlink:title=" ">
<path fill="none" stroke="#63b8ff" d="M368.44,-475.03C379.21,-445.7 415.16,-358.62 476,-316.91 478.89,-314.93 481.96,-313.15 485.14,-311.55"/>
<polygon fill="#63b8ff" stroke="#63b8ff" points="486.61,-314.72 494.37,-307.51 483.81,-308.31 486.61,-314.72"/>
</a>
</g>
</g>
<!-- Node8&#45;&gt;Node22 -->
<g id="edge41_Node000008_Node000022" class="edge">
<title>Node8&#45;&gt;Node22</title>
<g id="a_edge41_Node000008_Node000022"><a xlink:title=" ">
<path fill="none" stroke="#63b8ff" d="M367.41,-475.02C375.99,-441.97 408.18,-334.43 476,-279.91 478.3,-278.06 480.72,-276.35 483.25,-274.77"/>
<polygon fill="#63b8ff" stroke="#63b8ff" points="485.1,-277.75 492.17,-269.86 481.72,-271.62 485.1,-277.75"/>
</a>
</g>
</g>
<!-- Node8&#45;&gt;Node23 -->
<g id="edge43_Node000008_Node000023" class="edge">
<title>Node8&#45;&gt;Node23</title>
<g id="a_edge43_Node000008_Node000023"><a xlink:title=" ">
<path fill="none" stroke="#63b8ff" d="M366.11,-475.24C371,-437.38 394.14,-298.05 476,-230.91 478.04,-229.24 480.19,-227.7 482.44,-226.3"/>
<polygon fill="#63b8ff" stroke="#63b8ff" points="484.31,-229.27 491.49,-221.48 481.02,-223.09 484.31,-229.27"/>
</a>
</g>
</g>
<!-- Node8&#45;&gt;Node24 -->
<g id="edge45_Node000008_Node000024" class="edge">
<title>Node8&#45;&gt;Node24</title>
<g id="a_edge45_Node000008_Node000024"><a xlink:title=" ">
<path fill="none" stroke="#63b8ff" d="M365.52,-475.3C368.29,-434.27 384.82,-272.4 476,-193.91 480.77,-189.81 486.22,-186.53 492.01,-183.91"/>
<polygon fill="#63b8ff" stroke="#63b8ff" points="493.27,-187.18 501.35,-180.33 490.76,-180.65 493.27,-187.18"/>
</a>
</g>
</g>
<!-- Node8&#45;&gt;Node25 -->
<g id="edge47_Node000008_Node000025" class="edge">
<title>Node8&#45;&gt;Node25</title>
<g id="a_edge47_Node000008_Node000025"><a xlink:title=" ">
<path fill="none" stroke="#63b8ff" d="M365.06,-475.32C365.88,-431.3 375.41,-246.89 476,-156.91 477.78,-155.32 479.66,-153.85 481.62,-152.5"/>
<polygon fill="#63b8ff" stroke="#63b8ff" points="483.79,-155.29 490.71,-147.26 480.3,-149.22 483.79,-155.29"/>
</a>
</g>
</g>
<!-- Node8&#45;&gt;Node26 -->
<g id="edge49_Node000008_Node000026" class="edge">
<title>Node8&#45;&gt;Node26</title>
<g id="a_edge49_Node000008_Node000026"><a xlink:title=" ">
<path fill="none" stroke="#63b8ff" d="M364.68,-475.23C363.71,-428.17 366,-221.43 476,-119.91 480.19,-116.04 484.98,-112.9 490.1,-110.34"/>
<polygon fill="#63b8ff" stroke="#63b8ff" points="491.76,-113.44 499.64,-106.36 489.07,-106.98 491.76,-113.44"/>
</a>
</g>
</g>
<!-- Node8&#45;&gt;Node27 -->
<g id="edge51_Node000008_Node000027" class="edge">
<title>Node8&#45;&gt;Node27</title>
<g id="a_edge51_Node000008_Node000027"><a xlink:title=" ">
<path fill="none" stroke="#63b8ff" d="M366.33,-475.08C374.12,-419.03 415.54,-140.16 476,-82.91 480.71,-78.45 486.22,-74.93 492.14,-72.18"/>
<polygon fill="#63b8ff" stroke="#63b8ff" points="493.66,-75.35 501.72,-68.46 491.13,-68.82 493.66,-75.35"/>
</a>
</g>
</g>
<!-- Node8&#45;&gt;Node28 -->
<g id="edge53_Node000008_Node000028" class="edge">
<title>Node8&#45;&gt;Node28</title>
<g id="a_edge53_Node000008_Node000028"><a xlink:title=" ">
<path fill="none" stroke="#63b8ff" d="M366.1,-475.38C373.02,-417.2 412.23,-110.1 476,-44.91 480.14,-40.68 484.96,-37.17 490.16,-34.27"/>
<polygon fill="#63b8ff" stroke="#63b8ff" points="491.71,-37.41 499.22,-29.93 488.69,-31.09 491.71,-37.41"/>
</a>
</g>
</g>
<!-- Node9&#45;&gt;Node4 -->
<g id="edge16_Node000009_Node000004" class="edge">
<title>Node9&#45;&gt;Node4</title>
<g id="a_edge16_Node000009_Node000004"><a xlink:title=" ">
<path fill="none" stroke="#63b8ff" d="M631.84,-782.94C639.24,-779.65 646.19,-775.4 652,-769.91 730.41,-695.86 747.04,-557.88 750.56,-501.21"/>
<polygon fill="#63b8ff" stroke="#63b8ff" points="754.06,-501.17 751.1,-491 747.07,-500.8 754.06,-501.17"/>
</a>
</g>
</g>
<!-- Node10&#45;&gt;Node4 -->
<g id="edge18_Node000010_Node000004" class="edge">
<title>Node10&#45;&gt;Node4</title>
<g id="a_edge18_Node000010_Node000004"><a xlink:title=" ">
<path fill="none" stroke="#63b8ff" d="M634.09,-743.53C640.58,-740.86 646.7,-737.4 652,-732.91 723.75,-672.14 743.98,-553.22 749.5,-501.24"/>
<polygon fill="#63b8ff" stroke="#63b8ff" points="752.99,-501.5 750.47,-491.21 746.03,-500.83 752.99,-501.5"/>
</a>
</g>
</g>
<!-- Node11&#45;&gt;Node4 -->
<g id="edge20_Node000011_Node000004" class="edge">
<title>Node11&#45;&gt;Node4</title>
<g id="a_edge20_Node000011_Node000004"><a xlink:title=" ">
<path fill="none" stroke="#63b8ff" d="M638.14,-704.37C643.1,-702.07 647.79,-699.28 652,-695.91 714.71,-645.71 739.29,-547.39 747.69,-501.12"/>
<polygon fill="#63b8ff" stroke="#63b8ff" points="751.17,-501.49 749.4,-491.05 744.27,-500.31 751.17,-501.49"/>
</a>
</g>
</g>
<!-- Node12&#45;&gt;Node4 -->
<g id="edge22_Node000012_Node000004" class="edge">
<title>Node12&#45;&gt;Node4</title>
<g id="a_edge22_Node000012_Node000004"><a xlink:title=" ">
<path fill="none" stroke="#63b8ff" d="M635.28,-667.26C641.25,-664.78 646.93,-661.71 652,-657.91 705.45,-617.89 733.67,-540.36 745.17,-500.65"/>
<polygon fill="#63b8ff" stroke="#63b8ff" points="748.56,-501.54 747.86,-490.97 741.81,-499.67 748.56,-501.54"/>
</a>
</g>
</g>
<!-- Node13&#45;&gt;Node4 -->
<g id="edge24_Node000013_Node000004" class="edge">
<title>Node13&#45;&gt;Node4</title>
<g id="a_edge24_Node000013_Node000004"><a xlink:title=" ">
<path fill="none" stroke="#63b8ff" d="M630.79,-620.9C638.28,-617.95 645.54,-614.34 652,-609.91 693.41,-581.54 724.35,-530.2 740.01,-499.97"/>
<polygon fill="#63b8ff" stroke="#63b8ff" points="743.18,-501.46 744.56,-490.95 736.93,-498.31 743.18,-501.46"/>
</a>
</g>
</g>
<!-- Node14&#45;&gt;Node4 -->
<g id="edge26_Node000014_Node000004" class="edge">
<title>Node14&#45;&gt;Node4</title>
<g id="a_edge26_Node000014_Node000004"><a xlink:title=" ">
<path fill="none" stroke="#63b8ff" d="M629.92,-571.47C637.56,-568.77 645.09,-565.6 652,-561.91 682.93,-545.37 712.57,-517.72 731.32,-498.24"/>
<polygon fill="#63b8ff" stroke="#63b8ff" points="733.88,-500.64 738.2,-490.96 728.79,-495.83 733.88,-500.64"/>
</a>
</g>
</g>
<!-- Node15&#45;&gt;Node4 -->
<g id="edge28_Node000015_Node000004" class="edge">
<title>Node15&#45;&gt;Node4</title>
<g id="a_edge28_Node000015_Node000004"><a xlink:title=" ">
<path fill="none" stroke="#63b8ff" d="M618.46,-533.31C629.67,-530.72 641.33,-527.59 652,-523.91 673.87,-516.37 697.22,-505.27 715.8,-495.65"/>
<polygon fill="#63b8ff" stroke="#63b8ff" points="717.56,-498.68 724.78,-490.93 714.3,-492.49 717.56,-498.68"/>
</a>
</g>
</g>
<!-- Node16&#45;&gt;Node4 -->
<g id="edge30_Node000016_Node000004" class="edge">
<title>Node16&#45;&gt;Node4</title>
<g id="a_edge30_Node000016_Node000004"><a xlink:title=" ">
<path fill="none" stroke="#63b8ff" d="M641.13,-490.11C653.24,-488.55 665.76,-486.94 677.82,-485.39"/>
<polygon fill="#63b8ff" stroke="#63b8ff" points="678.35,-488.85 687.83,-484.1 677.46,-481.91 678.35,-488.85"/>
</a>
</g>
</g>
<!-- Node17&#45;&gt;Node4 -->
<g id="edge32_Node000017_Node000004" class="edge">
<title>Node17&#45;&gt;Node4</title>
<g id="a_edge32_Node000017_Node000004"><a xlink:title=" ">
<path fill="none" stroke="#63b8ff" d="M641.13,-461.71C653.24,-463.27 665.76,-464.88 677.82,-466.43"/>
<polygon fill="#63b8ff" stroke="#63b8ff" points="677.46,-469.91 687.83,-467.72 678.35,-462.97 677.46,-469.91"/>
</a>
</g>
</g>
<!-- Node18&#45;&gt;Node4 -->
<g id="edge34_Node000018_Node000004" class="edge">
<title>Node18&#45;&gt;Node4</title>
<g id="a_edge34_Node000018_Node000004"><a xlink:title=" ">
<path fill="none" stroke="#63b8ff" d="M618.46,-418.51C629.67,-421.1 641.33,-424.23 652,-427.91 673.87,-435.46 697.22,-446.55 715.8,-456.17"/>
<polygon fill="#63b8ff" stroke="#63b8ff" points="714.3,-459.33 724.78,-460.89 717.56,-453.14 714.3,-459.33"/>
</a>
</g>
</g>
<!-- Node19&#45;&gt;Node4 -->
<g id="edge36_Node000019_Node000004" class="edge">
<title>Node19&#45;&gt;Node4</title>
<g id="a_edge36_Node000019_Node000004"><a xlink:title=" ">
<path fill="none" stroke="#63b8ff" d="M627.13,-381.53C635.72,-383.98 644.25,-387.06 652,-390.91 683.12,-406.37 712.57,-433.69 731.23,-453.19"/>
<polygon fill="#63b8ff" stroke="#63b8ff" points="728.92,-455.84 738.31,-460.75 734.03,-451.05 728.92,-455.84"/>
</a>
</g>
</g>
<!-- Node20&#45;&gt;Node4 -->
<g id="edge38_Node000020_Node000004" class="edge">
<title>Node20&#45;&gt;Node4</title>
<g id="a_edge38_Node000020_Node000004"><a xlink:title=" ">
<path fill="none" stroke="#63b8ff" d="M629.19,-343.71C637.2,-346.29 645.02,-349.62 652,-353.91 691.55,-378.2 722.41,-423.94 738.71,-451.99"/>
<polygon fill="#63b8ff" stroke="#63b8ff" points="735.7,-453.79 743.67,-460.77 741.79,-450.34 735.7,-453.79"/>
</a>
</g>
</g>
<!-- Node21&#45;&gt;Node4 -->
<g id="edge40_Node000021_Node000004" class="edge">
<title>Node21&#45;&gt;Node4</title>
<g id="a_edge40_Node000021_Node000004"><a xlink:title=" ">
<path fill="none" stroke="#63b8ff" d="M634.17,-307.54C640.5,-310.01 646.56,-313.08 652,-316.91 699.99,-350.69 729.72,-415.7 743.12,-451.24"/>
<polygon fill="#63b8ff" stroke="#63b8ff" points="739.9,-452.64 746.61,-460.84 746.48,-450.25 739.9,-452.64"/>
</a>
</g>
</g>
<!-- Node22&#45;&gt;Node4 -->
<g id="edge42_Node000022_Node000004" class="edge">
<title>Node22&#45;&gt;Node4</title>
<g id="a_edge42_Node000022_Node000004"><a xlink:title=" ">
<path fill="none" stroke="#63b8ff" d="M635.51,-269.51C641.42,-272.38 647.03,-275.81 652,-279.91 707.08,-325.41 734.81,-409.18 745.74,-450.91"/>
<polygon fill="#63b8ff" stroke="#63b8ff" points="742.39,-451.95 748.22,-460.8 749.18,-450.25 742.39,-451.95"/>
</a>
</g>
</g>
<!-- Node23&#45;&gt;Node4 -->
<g id="edge44_Node000023_Node000004" class="edge">
<title>Node23&#45;&gt;Node4</title>
<g id="a_edge44_Node000023_Node000004"><a xlink:title=" ">
<path fill="none" stroke="#63b8ff" d="M637.04,-221.55C642.43,-224.05 647.51,-227.13 652,-230.91 720.53,-288.64 742.4,-400.75 748.92,-450.77"/>
<polygon fill="#63b8ff" stroke="#63b8ff" points="745.45,-451.22 750.13,-460.73 752.4,-450.38 745.45,-451.22"/>
</a>
</g>
</g>
<!-- Node24&#45;&gt;Node4 -->
<g id="edge46_Node000024_Node000004" class="edge">
<title>Node24&#45;&gt;Node4</title>
<g id="a_edge46_Node000024_Node000004"><a xlink:title=" ">
<path fill="none" stroke="#63b8ff" d="M626.78,-180.18C636.01,-183.18 644.81,-187.57 652,-193.91 729.55,-262.38 746.66,-395.12 750.43,-450.59"/>
<polygon fill="#63b8ff" stroke="#63b8ff" points="746.96,-451.13 751.04,-460.91 753.95,-450.72 746.96,-451.13"/>
</a>
</g>
</g>
<!-- Node25&#45;&gt;Node4 -->
<g id="edge48_Node000025_Node000004" class="edge">
<title>Node25&#45;&gt;Node4</title>
<g id="a_edge48_Node000025_Node000004"><a xlink:title=" ">
<path fill="none" stroke="#63b8ff" d="M637.4,-147.14C642.71,-149.73 647.67,-152.94 652,-156.91 738.78,-236.42 750.5,-390.25 751.63,-450.67"/>
<polygon fill="#63b8ff" stroke="#63b8ff" points="748.14,-450.86 751.74,-460.83 755.14,-450.79 748.14,-450.86"/>
</a>
</g>
</g>
<!-- Node26&#45;&gt;Node4 -->
<g id="edge50_Node000026_Node000004" class="edge">
<title>Node26&#45;&gt;Node4</title>
<g id="a_edge50_Node000026_Node000004"><a xlink:title=" ">
<path fill="none" stroke="#63b8ff" d="M628.04,-106.07C636.89,-109.12 645.25,-113.54 652,-119.91 701.05,-166.21 736.63,-376.51 747.8,-450.26"/>
<polygon fill="#63b8ff" stroke="#63b8ff" points="744.39,-451.12 749.32,-460.5 751.31,-450.09 744.39,-451.12"/>
</a>
</g>
</g>
<!-- Node27&#45;&gt;Node4 -->
<g id="edge52_Node000027_Node000004" class="edge">
<title>Node27&#45;&gt;Node4</title>
<g id="a_edge52_Node000027_Node000004"><a xlink:title=" ">
<path fill="none" stroke="#63b8ff" d="M626.41,-68.33C635.9,-71.4 644.89,-76.03 652,-82.91 705.86,-135.03 738.97,-372.45 748.58,-450.76"/>
<polygon fill="#63b8ff" stroke="#63b8ff" points="745.11,-451.21 749.78,-460.72 752.06,-450.38 745.11,-451.21"/>
</a>
</g>
</g>
<!-- Node28&#45;&gt;Node4 -->
<g id="edge54_Node000028_Node000004" class="edge">
<title>Node28&#45;&gt;Node4</title>
<g id="a_edge54_Node000028_Node000004"><a xlink:title=" ">
<path fill="none" stroke="#63b8ff" d="M628.9,-29.82C637.53,-33.37 645.6,-38.24 652,-44.91 709.09,-104.47 740.44,-367.64 749.04,-450.7"/>
<polygon fill="#63b8ff" stroke="#63b8ff" points="745.57,-451.17 750.06,-460.77 752.53,-450.46 745.57,-451.17"/>
</a>
</g>
</g>
</g>
</svg>
