<?xml version="1.0" encoding="UTF-8" standalone="no"?>
<!DOCTYPE svg PUBLIC "-//W3C//DTD SVG 1.1//EN"
 "http://www.w3.org/Graphics/SVG/1.1/DTD/svg11.dtd">
<!-- Generated by graphviz version 2.43.0 (0)
 -->
<!-- Title: lci::post_get Pages: 1 -->
<svg width="750pt" height="792pt"
 viewBox="0.00 0.00 750.00 792.42" xmlns="http://www.w3.org/2000/svg" xmlns:xlink="http://www.w3.org/1999/xlink">
<g id="graph0" class="graph" transform="scale(1 1) rotate(0) translate(4 788.42)">
<title>lci::post_get</title>
<!-- Node1 -->
<g id="Node000001" class="node">
<title>Node1</title>
<g id="a_Node000001"><a xlink:title=" ">
<polygon fill="#999999" stroke="#666666" points="76,-405.42 0,-405.42 0,-386.42 76,-386.42 76,-405.42"/>
<text text-anchor="middle" x="38" y="-393.42" font-family="Helvetica,sans-Serif" font-size="10.00">lci::post_get</text>
</a>
</g>
</g>
<!-- Node2 -->
<g id="Node000002" class="node">
<title>Node2</title>
<g id="a_Node000002"><a xlink:href="../../db/d54/classlci_1_1post__get__x.html#adadc688f0e9e014ac2f0d2a49ab89ce7" target="_top" xlink:title=" ">
<polygon fill="white" stroke="#666666" points="222,-405.42 112,-405.42 112,-386.42 222,-386.42 222,-405.42"/>
<text text-anchor="middle" x="167" y="-393.42" font-family="Helvetica,sans-Serif" font-size="10.00">lci::post_get_x::call</text>
</a>
</g>
</g>
<!-- Node1&#45;&gt;Node2 -->
<g id="edge1_Node000001_Node000002" class="edge">
<title>Node1&#45;&gt;Node2</title>
<g id="a_edge1_Node000001_Node000002"><a xlink:title=" ">
<path fill="none" stroke="#63b8ff" d="M76.08,-395.92C84.07,-395.92 92.75,-395.92 101.46,-395.92"/>
<polygon fill="#63b8ff" stroke="#63b8ff" points="101.65,-399.42 111.65,-395.92 101.65,-392.42 101.65,-399.42"/>
</a>
</g>
</g>
<!-- Node3 -->
<g id="Node000003" class="node">
<title>Node3</title>
<g id="a_Node000003"><a xlink:href="../../db/d54/classlci_1_1post__get__x.html#a29495aee6145a53bd30973c7aab3ef4f" target="_top" xlink:title=" ">
<polygon fill="white" stroke="#666666" points="586,-784.42 437,-784.42 437,-765.42 586,-765.42 586,-784.42"/>
<text text-anchor="middle" x="511.5" y="-772.42" font-family="Helvetica,sans-Serif" font-size="10.00">lci::post_get_x::allow_done</text>
</a>
</g>
</g>
<!-- Node2&#45;&gt;Node3 -->
<g id="edge2_Node000002_Node000003" class="edge">
<title>Node2&#45;&gt;Node3</title>
<g id="a_edge2_Node000002_Node000003"><a xlink:title=" ">
<path fill="none" stroke="#63b8ff" d="M167.65,-405.44C166.66,-447.61 168.45,-619.28 258,-707.92 302.3,-751.78 371.82,-767.85 426.7,-773.34"/>
<polygon fill="#63b8ff" stroke="#63b8ff" points="426.5,-776.83 436.77,-774.24 427.13,-769.86 426.5,-776.83"/>
</a>
</g>
</g>
<!-- Node5 -->
<g id="Node000005" class="node">
<title>Node5</title>
<g id="a_Node000005"><a xlink:href="../../db/d54/classlci_1_1post__get__x.html#aae33e9f61a69952f9e96d79a3a7d07c3" target="_top" xlink:title=" ">
<polygon fill="white" stroke="#666666" points="571,-746.92 452,-746.92 452,-716.92 571,-716.92 571,-746.92"/>
<text text-anchor="start" x="460" y="-734.92" font-family="Helvetica,sans-Serif" font-size="10.00">lci::post_get_x::allow</text>
<text text-anchor="middle" x="511.5" y="-723.92" font-family="Helvetica,sans-Serif" font-size="10.00">_posted</text>
</a>
</g>
</g>
<!-- Node2&#45;&gt;Node5 -->
<g id="edge4_Node000002_Node000005" class="edge">
<title>Node2&#45;&gt;Node5</title>
<g id="a_edge4_Node000002_Node000005"><a xlink:title=" ">
<path fill="none" stroke="#63b8ff" d="M168.14,-405.46C169.23,-444.08 178.64,-590.45 258,-664.92 307.5,-711.38 385.44,-726.41 441.64,-730.89"/>
<polygon fill="#63b8ff" stroke="#63b8ff" points="441.65,-734.4 451.87,-731.61 442.14,-727.42 441.65,-734.4"/>
</a>
</g>
</g>
<!-- Node6 -->
<g id="Node000006" class="node">
<title>Node6</title>
<g id="a_Node000006"><a xlink:href="../../db/d54/classlci_1_1post__get__x.html#afa8dc94772275fcea9a20a5c5c890480" target="_top" xlink:title=" ">
<polygon fill="white" stroke="#666666" points="571,-698.92 452,-698.92 452,-668.92 571,-668.92 571,-698.92"/>
<text text-anchor="start" x="460" y="-686.92" font-family="Helvetica,sans-Serif" font-size="10.00">lci::post_get_x::allow</text>
<text text-anchor="middle" x="511.5" y="-675.92" font-family="Helvetica,sans-Serif" font-size="10.00">_retry</text>
</a>
</g>
</g>
<!-- Node2&#45;&gt;Node6 -->
<g id="edge6_Node000002_Node000006" class="edge">
<title>Node2&#45;&gt;Node6</title>
<g id="a_edge6_Node000002_Node000006"><a xlink:title=" ">
<path fill="none" stroke="#63b8ff" d="M168.73,-405.49C171.92,-440.55 187.89,-563.16 258,-623.92 308.73,-667.88 385.92,-681 441.61,-684.28"/>
<polygon fill="#63b8ff" stroke="#63b8ff" points="441.58,-687.78 451.74,-684.78 441.93,-680.79 441.58,-687.78"/>
</a>
</g>
</g>
<!-- Node7 -->
<g id="Node000007" class="node">
<title>Node7</title>
<g id="a_Node000007"><a xlink:href="../../db/d54/classlci_1_1post__get__x.html#a850f6fec0cedba401af4faa762f65ca7" target="_top" xlink:title=" ">
<polygon fill="white" stroke="#666666" points="575,-650.42 448,-650.42 448,-631.42 575,-631.42 575,-650.42"/>
<text text-anchor="middle" x="511.5" y="-638.42" font-family="Helvetica,sans-Serif" font-size="10.00">lci::post_get_x::buffers</text>
</a>
</g>
</g>
<!-- Node2&#45;&gt;Node7 -->
<g id="edge8_Node000002_Node000007" class="edge">
<title>Node2&#45;&gt;Node7</title>
<g id="a_edge8_Node000002_Node000007"><a xlink:title=" ">
<path fill="none" stroke="#63b8ff" d="M169.58,-405.54C175.24,-436.71 197.45,-535.64 258,-583.92 308.94,-624.54 383.16,-637.44 437.96,-640.98"/>
<polygon fill="#63b8ff" stroke="#63b8ff" points="437.78,-644.47 447.96,-641.54 438.17,-637.48 437.78,-644.47"/>
</a>
</g>
</g>
<!-- Node8 -->
<g id="Node000008" class="node">
<title>Node8</title>
<g id="a_Node000008"><a xlink:href="../../db/d54/classlci_1_1post__get__x.html#aa2ef562fc6f5a9f490bfc6fa3c0d7e66" target="_top" xlink:title=" ">
<polygon fill="white" stroke="#666666" points="395,-405.42 258,-405.42 258,-386.42 395,-386.42 395,-405.42"/>
<text text-anchor="middle" x="326.5" y="-393.42" font-family="Helvetica,sans-Serif" font-size="10.00">lci::post_get_x::call_impl</text>
</a>
</g>
</g>
<!-- Node2&#45;&gt;Node8 -->
<g id="edge10_Node000002_Node000008" class="edge">
<title>Node2&#45;&gt;Node8</title>
<g id="a_edge10_Node000002_Node000008"><a xlink:title=" ">
<path fill="none" stroke="#63b8ff" d="M222.2,-395.92C230.45,-395.92 239.1,-395.92 247.74,-395.92"/>
<polygon fill="#63b8ff" stroke="#63b8ff" points="247.84,-399.42 257.84,-395.92 247.84,-392.42 247.84,-399.42"/>
</a>
</g>
</g>
<!-- Node9 -->
<g id="Node000009" class="node">
<title>Node9</title>
<g id="a_Node000009"><a xlink:href="../../db/d54/classlci_1_1post__get__x.html#ae5063e804814ece1bcf5720cd9b78b94" target="_top" xlink:title=" ">
<polygon fill="white" stroke="#666666" points="574,-613.42 449,-613.42 449,-594.42 574,-594.42 574,-613.42"/>
<text text-anchor="middle" x="511.5" y="-601.42" font-family="Helvetica,sans-Serif" font-size="10.00">lci::post_get_x::device</text>
</a>
</g>
</g>
<!-- Node2&#45;&gt;Node9 -->
<g id="edge47_Node000002_Node000009" class="edge">
<title>Node2&#45;&gt;Node9</title>
<g id="a_edge47_Node000002_Node000009"><a xlink:title=" ">
<path fill="none" stroke="#63b8ff" d="M170.95,-405.77C179.54,-432.67 207.21,-507.89 258,-544.92 310.62,-583.3 384.41,-597.14 438.64,-601.92"/>
<polygon fill="#63b8ff" stroke="#63b8ff" points="438.62,-605.43 448.87,-602.74 439.18,-598.46 438.62,-605.43"/>
</a>
</g>
</g>
<!-- Node10 -->
<g id="Node000010" class="node">
<title>Node10</title>
<g id="a_Node000010"><a xlink:href="../../db/d54/classlci_1_1post__get__x.html#ada8d3a7d775a52e72afd83366507af07" target="_top" xlink:title=" ">
<polygon fill="white" stroke="#666666" points="579.5,-576.42 443.5,-576.42 443.5,-557.42 579.5,-557.42 579.5,-576.42"/>
<text text-anchor="middle" x="511.5" y="-564.42" font-family="Helvetica,sans-Serif" font-size="10.00">lci::post_get_x::endpoint</text>
</a>
</g>
</g>
<!-- Node2&#45;&gt;Node10 -->
<g id="edge48_Node000002_Node000010" class="edge">
<title>Node2&#45;&gt;Node10</title>
<g id="a_edge48_Node000002_Node000010"><a xlink:title=" ">
<path fill="none" stroke="#63b8ff" d="M172.8,-405.51C184.28,-427.4 215.57,-481.22 258,-507.92 310.88,-541.2 380.65,-555.74 433.45,-562.07"/>
<polygon fill="#63b8ff" stroke="#63b8ff" points="433.11,-565.56 443.43,-563.2 433.89,-558.6 433.11,-565.56"/>
</a>
</g>
</g>
<!-- Node11 -->
<g id="Node000011" class="node">
<title>Node11</title>
<g id="a_Node000011"><a xlink:href="../../db/d54/classlci_1_1post__get__x.html#a807f8d570a90508b7fc4913ed305a1b6" target="_top" xlink:title=" ">
<polygon fill="white" stroke="#666666" points="570.5,-538.92 452.5,-538.92 452.5,-508.92 570.5,-508.92 570.5,-538.92"/>
<text text-anchor="start" x="460.5" y="-526.92" font-family="Helvetica,sans-Serif" font-size="10.00">lci::post_get_x::force</text>
<text text-anchor="middle" x="511.5" y="-515.92" font-family="Helvetica,sans-Serif" font-size="10.00">_zcopy</text>
</a>
</g>
</g>
<!-- Node2&#45;&gt;Node11 -->
<g id="edge49_Node000002_Node000011" class="edge">
<title>Node2&#45;&gt;Node11</title>
<g id="a_edge49_Node000002_Node000011"><a xlink:title=" ">
<path fill="none" stroke="#63b8ff" d="M175.79,-405.5C190.14,-422.44 222.53,-457.53 258,-474.92 316.16,-503.45 389.5,-515.38 442.13,-520.37"/>
<polygon fill="#63b8ff" stroke="#63b8ff" points="442.1,-523.88 452.36,-521.27 442.71,-516.9 442.1,-523.88"/>
</a>
</g>
</g>
<!-- Node12 -->
<g id="Node000012" class="node">
<title>Node12</title>
<g id="a_Node000012"><a xlink:href="../../db/d54/classlci_1_1post__get__x.html#a9e32fa2a7456e522a28fd65df221313e" target="_top" xlink:title=" ">
<polygon fill="white" stroke="#666666" points="569.5,-490.92 453.5,-490.92 453.5,-460.92 569.5,-460.92 569.5,-490.92"/>
<text text-anchor="start" x="461.5" y="-478.92" font-family="Helvetica,sans-Serif" font-size="10.00">lci::post_get_x::local</text>
<text text-anchor="middle" x="511.5" y="-467.92" font-family="Helvetica,sans-Serif" font-size="10.00">_buffer</text>
</a>
</g>
</g>
<!-- Node2&#45;&gt;Node12 -->
<g id="edge50_Node000002_Node000012" class="edge">
<title>Node2&#45;&gt;Node12</title>
<g id="a_edge50_Node000002_Node000012"><a xlink:title=" ">
<path fill="none" stroke="#63b8ff" d="M180.28,-405.49C196.88,-417.85 227.87,-438.96 258,-448.92 318.63,-468.97 391.48,-474.98 443.32,-476.41"/>
<polygon fill="#63b8ff" stroke="#63b8ff" points="443.32,-479.91 453.39,-476.64 443.48,-472.91 443.32,-479.91"/>
</a>
</g>
</g>
<!-- Node13 -->
<g id="Node000013" class="node">
<title>Node13</title>
<g id="a_Node000013"><a xlink:href="../../db/d54/classlci_1_1post__get__x.html#ae638454abf3d3c1dfa4eb39929f8fb80" target="_top" xlink:title=" ">
<polygon fill="white" stroke="#666666" points="586,-442.42 437,-442.42 437,-423.42 586,-423.42 586,-442.42"/>
<text text-anchor="middle" x="511.5" y="-430.42" font-family="Helvetica,sans-Serif" font-size="10.00">lci::post_get_x::local_comp</text>
</a>
</g>
</g>
<!-- Node2&#45;&gt;Node13 -->
<g id="edge51_Node000002_Node000013" class="edge">
<title>Node2&#45;&gt;Node13</title>
<g id="a_edge51_Node000002_Node000013"><a xlink:title=" ">
<path fill="none" stroke="#63b8ff" d="M186.71,-405.52C204.51,-414.08 232.31,-426 258,-430.92 313.59,-441.58 377.33,-441.99 426.86,-439.79"/>
<polygon fill="#63b8ff" stroke="#63b8ff" points="427.07,-443.28 436.89,-439.3 426.73,-436.29 427.07,-443.28"/>
</a>
</g>
</g>
<!-- Node14 -->
<g id="Node000014" class="node">
<title>Node14</title>
<g id="a_Node000014"><a xlink:href="../../db/d54/classlci_1_1post__get__x.html#a678b29957db320f2f8e7e85d25d38a15" target="_top" xlink:title=" ">
<polygon fill="white" stroke="#666666" points="565,-405.42 458,-405.42 458,-386.42 565,-386.42 565,-405.42"/>
<text text-anchor="middle" x="511.5" y="-393.42" font-family="Helvetica,sans-Serif" font-size="10.00">lci::post_get_x::mr</text>
</a>
</g>
</g>
<!-- Node2&#45;&gt;Node14 -->
<g id="edge52_Node000002_Node000014" class="edge">
<title>Node2&#45;&gt;Node14</title>
<g id="a_edge52_Node000002_Node000014"><a xlink:title=" ">
<path fill="none" stroke="#63b8ff" d="M204.51,-405.43C220.76,-409.2 240.21,-413.06 258,-414.92 318.56,-421.24 334.31,-419.88 395,-414.92 414.14,-413.36 434.89,-410.36 453.45,-407.2"/>
<polygon fill="#63b8ff" stroke="#63b8ff" points="454.27,-410.61 463.51,-405.43 453.06,-403.71 454.27,-410.61"/>
</a>
</g>
</g>
<!-- Node15 -->
<g id="Node000015" class="node">
<title>Node15</title>
<g id="a_Node000015"><a xlink:href="../../db/d54/classlci_1_1post__get__x.html#ab533de3b7fe1493b65171af6f8cd1fc3" target="_top" xlink:title=" ">
<polygon fill="white" stroke="#666666" points="587.5,-368.42 435.5,-368.42 435.5,-349.42 587.5,-349.42 587.5,-368.42"/>
<text text-anchor="middle" x="511.5" y="-356.42" font-family="Helvetica,sans-Serif" font-size="10.00">lci::post_get_x::packet_pool</text>
</a>
</g>
</g>
<!-- Node2&#45;&gt;Node15 -->
<g id="edge53_Node000002_Node000015" class="edge">
<title>Node2&#45;&gt;Node15</title>
<g id="a_edge53_Node000002_Node000015"><a xlink:title=" ">
<path fill="none" stroke="#63b8ff" d="M210.4,-386.33C225.37,-383.24 242.37,-380.06 258,-377.92 313.4,-370.33 376.09,-365.59 425.14,-362.74"/>
<polygon fill="#63b8ff" stroke="#63b8ff" points="425.61,-366.22 435.39,-362.16 425.21,-359.23 425.61,-366.22"/>
</a>
</g>
</g>
<!-- Node16 -->
<g id="Node000016" class="node">
<title>Node16</title>
<g id="a_Node000016"><a xlink:href="../../db/d54/classlci_1_1post__get__x.html#ae00c61e2bc754a0ed46625ca9d44b04e" target="_top" xlink:title=" ">
<polygon fill="white" stroke="#666666" points="569,-331.42 454,-331.42 454,-312.42 569,-312.42 569,-331.42"/>
<text text-anchor="middle" x="511.5" y="-319.42" font-family="Helvetica,sans-Serif" font-size="10.00">lci::post_get_x::rank</text>
</a>
</g>
</g>
<!-- Node2&#45;&gt;Node16 -->
<g id="edge54_Node000002_Node000016" class="edge">
<title>Node2&#45;&gt;Node16</title>
<g id="a_edge54_Node000002_Node000016"><a xlink:title=" ">
<path fill="none" stroke="#63b8ff" d="M188.66,-386.4C206.63,-378.48 233.55,-367.48 258,-360.92 319.95,-344.3 392.48,-334.02 443.87,-328.21"/>
<polygon fill="#63b8ff" stroke="#63b8ff" points="444.31,-331.68 453.86,-327.11 443.54,-324.72 444.31,-331.68"/>
</a>
</g>
</g>
<!-- Node17 -->
<g id="Node000017" class="node">
<title>Node17</title>
<g id="a_Node000017"><a xlink:href="../../db/d54/classlci_1_1post__get__x.html#a4a5fcb0069be2cc6db139283432e6b10" target="_top" xlink:title=" ">
<polygon fill="white" stroke="#666666" points="577,-294.42 446,-294.42 446,-275.42 577,-275.42 577,-294.42"/>
<text text-anchor="middle" x="511.5" y="-282.42" font-family="Helvetica,sans-Serif" font-size="10.00">lci::post_get_x::rbuffers</text>
</a>
</g>
</g>
<!-- Node2&#45;&gt;Node17 -->
<g id="edge55_Node000002_Node000017" class="edge">
<title>Node2&#45;&gt;Node17</title>
<g id="a_edge55_Node000002_Node000017"><a xlink:title=" ">
<path fill="none" stroke="#63b8ff" d="M177.83,-386.29C193.42,-371.61 225.4,-343.88 258,-329.92 314.79,-305.6 384.2,-294.43 435.86,-289.29"/>
<polygon fill="#63b8ff" stroke="#63b8ff" points="436.32,-292.76 445.95,-288.34 435.66,-285.79 436.32,-292.76"/>
</a>
</g>
</g>
<!-- Node18 -->
<g id="Node000018" class="node">
<title>Node18</title>
<g id="a_Node000018"><a xlink:href="../../db/d54/classlci_1_1post__get__x.html#a9fcca224387844ef97c4437af444faec" target="_top" xlink:title=" ">
<polygon fill="white" stroke="#666666" points="592,-257.42 431,-257.42 431,-238.42 592,-238.42 592,-257.42"/>
<text text-anchor="middle" x="511.5" y="-245.42" font-family="Helvetica,sans-Serif" font-size="10.00">lci::post_get_x::remote_comp</text>
</a>
</g>
</g>
<!-- Node2&#45;&gt;Node18 -->
<g id="edge56_Node000002_Node000018" class="edge">
<title>Node2&#45;&gt;Node18</title>
<g id="a_edge56_Node000002_Node000018"><a xlink:title=" ">
<path fill="none" stroke="#63b8ff" d="M173.01,-386.34C184.69,-365.04 216,-313.74 258,-289.92 307.18,-262.03 369.85,-251.49 420.45,-247.94"/>
<polygon fill="#63b8ff" stroke="#63b8ff" points="420.96,-251.42 430.73,-247.3 420.53,-244.43 420.96,-251.42"/>
</a>
</g>
</g>
<!-- Node19 -->
<g id="Node000019" class="node">
<title>Node19</title>
<g id="a_Node000019"><a xlink:href="../../db/d54/classlci_1_1post__get__x.html#a46c613bb21ea1b3ad3c42334e831ee51" target="_top" xlink:title=" ">
<polygon fill="white" stroke="#666666" points="588.5,-220.42 434.5,-220.42 434.5,-201.42 588.5,-201.42 588.5,-220.42"/>
<text text-anchor="middle" x="511.5" y="-208.42" font-family="Helvetica,sans-Serif" font-size="10.00">lci::post_get_x::remote_disp</text>
</a>
</g>
</g>
<!-- Node2&#45;&gt;Node19 -->
<g id="edge57_Node000002_Node000019" class="edge">
<title>Node2&#45;&gt;Node19</title>
<g id="a_edge57_Node000002_Node000019"><a xlink:title=" ">
<path fill="none" stroke="#63b8ff" d="M170.63,-386.15C178.57,-358.75 205.05,-280.92 258,-245.92 306.63,-213.78 372.06,-205.45 424.13,-204.93"/>
<polygon fill="#63b8ff" stroke="#63b8ff" points="424.36,-208.43 434.36,-204.93 424.36,-201.43 424.36,-208.43"/>
</a>
</g>
</g>
<!-- Node20 -->
<g id="Node000020" class="node">
<title>Node20</title>
<g id="a_Node000020"><a xlink:href="../../db/d54/classlci_1_1post__get__x.html#a96066c719819fe7d159096f611f3ce40" target="_top" xlink:title=" ">
<polygon fill="white" stroke="#666666" points="566.5,-183.42 456.5,-183.42 456.5,-164.42 566.5,-164.42 566.5,-183.42"/>
<text text-anchor="middle" x="511.5" y="-171.42" font-family="Helvetica,sans-Serif" font-size="10.00">lci::post_get_x::rmr</text>
</a>
</g>
</g>
<!-- Node2&#45;&gt;Node20 -->
<g id="edge58_Node000002_Node000020" class="edge">
<title>Node2&#45;&gt;Node20</title>
<g id="a_edge58_Node000002_Node000020"><a xlink:title=" ">
<path fill="none" stroke="#63b8ff" d="M169.2,-386.17C173.76,-353.69 193.19,-248.53 258,-201.92 312.44,-162.77 391.28,-160.25 446.33,-164.65"/>
<polygon fill="#63b8ff" stroke="#63b8ff" points="446.05,-168.14 456.32,-165.55 446.67,-161.17 446.05,-168.14"/>
</a>
</g>
</g>
<!-- Node21 -->
<g id="Node000021" class="node">
<title>Node21</title>
<g id="a_Node000021"><a xlink:href="../../db/d54/classlci_1_1post__get__x.html#ac3b93ca830abcb7bb56e268915fad980" target="_top" xlink:title=" ">
<polygon fill="white" stroke="#666666" points="577,-146.42 446,-146.42 446,-127.42 577,-127.42 577,-146.42"/>
<text text-anchor="middle" x="511.5" y="-134.42" font-family="Helvetica,sans-Serif" font-size="10.00">lci::post_get_x::runtime</text>
</a>
</g>
</g>
<!-- Node2&#45;&gt;Node21 -->
<g id="edge59_Node000002_Node000021" class="edge">
<title>Node2&#45;&gt;Node21</title>
<g id="a_edge59_Node000002_Node000021"><a xlink:title=" ">
<path fill="none" stroke="#63b8ff" d="M168.27,-386.4C169.86,-349.77 180.94,-217.19 258,-158.92 314.01,-116.58 398.3,-118.47 453.85,-125.91"/>
<polygon fill="#63b8ff" stroke="#63b8ff" points="453.48,-129.39 463.87,-127.35 454.48,-122.46 453.48,-129.39"/>
</a>
</g>
</g>
<!-- Node22 -->
<g id="Node000022" class="node">
<title>Node22</title>
<g id="a_Node000022"><a xlink:href="../../db/d54/classlci_1_1post__get__x.html#acd5ead27a3560139798f7c39431cbdf4" target="_top" xlink:title=" ">
<polygon fill="white" stroke="#666666" points="568,-109.42 455,-109.42 455,-90.42 568,-90.42 568,-109.42"/>
<text text-anchor="middle" x="511.5" y="-97.42" font-family="Helvetica,sans-Serif" font-size="10.00">lci::post_get_x::size</text>
</a>
</g>
</g>
<!-- Node2&#45;&gt;Node22 -->
<g id="edge60_Node000002_Node000022" class="edge">
<title>Node2&#45;&gt;Node22</title>
<g id="a_edge60_Node000002_Node000022"><a xlink:title=" ">
<path fill="none" stroke="#63b8ff" d="M167.64,-386.42C166.65,-345.92 168.75,-186.62 258,-116.92 316.19,-71.48 406.78,-78.37 462.17,-88.47"/>
<polygon fill="#63b8ff" stroke="#63b8ff" points="461.6,-91.93 472.08,-90.38 462.93,-85.05 461.6,-91.93"/>
</a>
</g>
</g>
<!-- Node23 -->
<g id="Node000023" class="node">
<title>Node23</title>
<g id="a_Node000023"><a xlink:href="../../db/d54/classlci_1_1post__get__x.html#a2a87093d9d3e41f5fc2da87df7a4db28" target="_top" xlink:title=" ">
<polygon fill="white" stroke="#666666" points="566,-72.42 457,-72.42 457,-53.42 566,-53.42 566,-72.42"/>
<text text-anchor="middle" x="511.5" y="-60.42" font-family="Helvetica,sans-Serif" font-size="10.00">lci::post_get_x::tag</text>
</a>
</g>
</g>
<!-- Node2&#45;&gt;Node23 -->
<g id="edge61_Node000002_Node000023" class="edge">
<title>Node2&#45;&gt;Node23</title>
<g id="a_edge61_Node000002_Node000023"><a xlink:title=" ">
<path fill="none" stroke="#63b8ff" d="M169.24,-386.14C175.69,-337 207.03,-117.77 258,-76.92 316.86,-29.75 410.44,-39.59 465.63,-51.16"/>
<polygon fill="#63b8ff" stroke="#63b8ff" points="464.95,-54.6 475.47,-53.33 466.46,-47.76 464.95,-54.6"/>
</a>
</g>
</g>
<!-- Node24 -->
<g id="Node000024" class="node">
<title>Node24</title>
<g id="a_Node000024"><a xlink:href="../../db/d54/classlci_1_1post__get__x.html#ae8ab8b05f92e3637b69c694780a1f02e" target="_top" xlink:title=" ">
<polygon fill="white" stroke="#666666" points="568.5,-34.92 454.5,-34.92 454.5,-4.92 568.5,-4.92 568.5,-34.92"/>
<text text-anchor="start" x="462.5" y="-22.92" font-family="Helvetica,sans-Serif" font-size="10.00">lci::post_get_x::user</text>
<text text-anchor="middle" x="511.5" y="-11.92" font-family="Helvetica,sans-Serif" font-size="10.00">_context</text>
</a>
</g>
</g>
<!-- Node2&#45;&gt;Node24 -->
<g id="edge62_Node000002_Node000024" class="edge">
<title>Node2&#45;&gt;Node24</title>
<g id="a_edge62_Node000002_Node000024"><a xlink:title=" ">
<path fill="none" stroke="#63b8ff" d="M168.92,-386.39C174.12,-334.33 201.77,-85.07 258,-37.92 309.04,4.88 388.15,3.31 444.2,-5.1"/>
<polygon fill="#63b8ff" stroke="#63b8ff" points="443.96,-8.6 454.39,-6.74 445.07,-1.69 443.96,-8.6"/>
</a>
</g>
</g>
<!-- Node4 -->
<g id="Node000004" class="node">
<title>Node4</title>
<g id="a_Node000004"><a xlink:href="../../db/d54/classlci_1_1post__get__x.html#a544592613caf9d08e85c26374f00f0a5" target="_top" xlink:title=" ">
<polygon fill="white" stroke="#666666" points="742,-391.92 628,-391.92 628,-361.92 742,-361.92 742,-391.92"/>
<text text-anchor="start" x="636" y="-379.92" font-family="Helvetica,sans-Serif" font-size="10.00">lci::post_get_x::post</text>
<text text-anchor="middle" x="685" y="-368.92" font-family="Helvetica,sans-Serif" font-size="10.00">_get_x</text>
</a>
</g>
</g>
<!-- Node3&#45;&gt;Node4 -->
<g id="edge3_Node000003_Node000004" class="edge">
<title>Node3&#45;&gt;Node4</title>
<g id="a_edge3_Node000003_Node000004"><a xlink:title=" ">
<path fill="none" stroke="#63b8ff" d="M578.96,-765.33C583.74,-762.82 588.18,-759.73 592,-755.92 642.86,-705.24 672.59,-478.44 681.3,-402.1"/>
<polygon fill="#63b8ff" stroke="#63b8ff" points="684.8,-402.29 682.43,-391.96 677.84,-401.51 684.8,-402.29"/>
</a>
</g>
</g>
<!-- Node5&#45;&gt;Node4 -->
<g id="edge5_Node000005_Node000004" class="edge">
<title>Node5&#45;&gt;Node4</title>
<g id="a_edge5_Node000005_Node000004"><a xlink:title=" ">
<path fill="none" stroke="#63b8ff" d="M571.11,-721.79C578.87,-718.4 586.15,-713.9 592,-707.92 676.61,-621.42 684.9,-464.15 684.69,-402.6"/>
<polygon fill="#63b8ff" stroke="#63b8ff" points="688.19,-402.21 684.57,-392.25 681.19,-402.29 688.19,-402.21"/>
</a>
</g>
</g>
<!-- Node6&#45;&gt;Node4 -->
<g id="edge7_Node000006_Node000004" class="edge">
<title>Node6&#45;&gt;Node4</title>
<g id="a_edge7_Node000006_Node000004"><a xlink:title=" ">
<path fill="none" stroke="#63b8ff" d="M571.29,-673.38C578.93,-670.05 586.13,-665.67 592,-659.92 665.39,-588.07 680.28,-457.14 683.26,-402.23"/>
<polygon fill="#63b8ff" stroke="#63b8ff" points="686.77,-402.15 683.73,-392.01 679.78,-401.84 686.77,-402.15"/>
</a>
</g>
</g>
<!-- Node7&#45;&gt;Node4 -->
<g id="edge9_Node000007_Node000004" class="edge">
<title>Node7&#45;&gt;Node4</title>
<g id="a_edge9_Node000007_Node000004"><a xlink:title=" ">
<path fill="none" stroke="#63b8ff" d="M575.32,-633.1C581.39,-630.53 587.1,-627.2 592,-622.92 659.04,-564.39 677.33,-452.11 682.24,-402.07"/>
<polygon fill="#63b8ff" stroke="#63b8ff" points="685.73,-402.37 683.12,-392.1 678.75,-401.76 685.73,-402.37"/>
</a>
</g>
</g>
<!-- Node8&#45;&gt;Node3 -->
<g id="edge11_Node000008_Node000003" class="edge">
<title>Node8&#45;&gt;Node3</title>
<g id="a_edge11_Node000008_Node000003"><a xlink:title=" ">
<path fill="none" stroke="#63b8ff" d="M327.04,-405.72C325.43,-452.45 324.98,-654.61 431,-755.92 432.5,-757.36 434.09,-758.69 435.75,-759.93"/>
<polygon fill="#63b8ff" stroke="#63b8ff" points="434.24,-763.11 444.6,-765.35 437.9,-757.14 434.24,-763.11"/>
</a>
</g>
</g>
<!-- Node8&#45;&gt;Node5 -->
<g id="edge12_Node000008_Node000005" class="edge">
<title>Node8&#45;&gt;Node5</title>
<g id="a_edge12_Node000008_Node000005"><a xlink:title=" ">
<path fill="none" stroke="#63b8ff" d="M327.66,-405.43C328.9,-447.52 339.59,-618.96 431,-707.92 434.5,-711.33 438.46,-714.25 442.7,-716.76"/>
<polygon fill="#63b8ff" stroke="#63b8ff" points="441.24,-719.94 451.74,-721.35 444.41,-713.7 441.24,-719.94"/>
</a>
</g>
</g>
<!-- Node8&#45;&gt;Node6 -->
<g id="edge13_Node000008_Node000006" class="edge">
<title>Node8&#45;&gt;Node6</title>
<g id="a_edge13_Node000008_Node000006"><a xlink:title=" ">
<path fill="none" stroke="#63b8ff" d="M328.32,-405.5C332.09,-443.65 351.22,-586.31 431,-659.92 434.43,-663.09 438.26,-665.84 442.35,-668.22"/>
<polygon fill="#63b8ff" stroke="#63b8ff" points="441.11,-671.52 451.61,-672.89 444.26,-665.27 441.11,-671.52"/>
</a>
</g>
</g>
<!-- Node8&#45;&gt;Node7 -->
<g id="edge14_Node000008_Node000007" class="edge">
<title>Node8&#45;&gt;Node7</title>
<g id="a_edge14_Node000008_Node000007"><a xlink:title=" ">
<path fill="none" stroke="#63b8ff" d="M328.82,-405.5C334.2,-440.62 357.75,-563.34 431,-622.92 433.45,-624.91 436.07,-626.69 438.82,-628.28"/>
<polygon fill="#63b8ff" stroke="#63b8ff" points="437.45,-631.51 447.97,-632.75 440.52,-625.22 437.45,-631.51"/>
</a>
</g>
</g>
<!-- Node8&#45;&gt;Node9 -->
<g id="edge15_Node000008_Node000009" class="edge">
<title>Node8&#45;&gt;Node9</title>
<g id="a_edge15_Node000008_Node000009"><a xlink:title=" ">
<path fill="none" stroke="#63b8ff" d="M329.77,-405.67C337.63,-437.25 366.88,-537.45 431,-585.92 433.65,-587.93 436.49,-589.72 439.45,-591.31"/>
<polygon fill="#63b8ff" stroke="#63b8ff" points="438.12,-594.55 448.66,-595.54 441.04,-588.19 438.12,-594.55"/>
</a>
</g>
</g>
<!-- Node8&#45;&gt;Node10 -->
<g id="edge17_Node000008_Node000010" class="edge">
<title>Node8&#45;&gt;Node10</title>
<g id="a_edge17_Node000008_Node000010"><a xlink:title=" ">
<path fill="none" stroke="#63b8ff" d="M331.13,-405.58C341.85,-432.7 376.07,-510.04 431,-547.92 433.89,-549.92 436.97,-551.7 440.16,-553.3"/>
<polygon fill="#63b8ff" stroke="#63b8ff" points="438.88,-556.56 449.44,-557.33 441.67,-550.14 438.88,-556.56"/>
</a>
</g>
</g>
<!-- Node8&#45;&gt;Node11 -->
<g id="edge19_Node000008_Node000011" class="edge">
<title>Node8&#45;&gt;Node11</title>
<g id="a_edge19_Node000008_Node000011"><a xlink:title=" ">
<path fill="none" stroke="#63b8ff" d="M334.37,-405.52C349.49,-425.95 387.75,-473.97 431,-499.92 434.69,-502.13 438.59,-504.16 442.61,-506"/>
<polygon fill="#63b8ff" stroke="#63b8ff" points="441.6,-509.37 452.17,-510 444.3,-502.91 441.6,-509.37"/>
</a>
</g>
</g>
<!-- Node8&#45;&gt;Node12 -->
<g id="edge21_Node000008_Node000012" class="edge">
<title>Node8&#45;&gt;Node12</title>
<g id="a_edge21_Node000008_Node000012"><a xlink:title=" ">
<path fill="none" stroke="#63b8ff" d="M342.79,-405.48C362.58,-417.54 398.37,-438.34 431,-451.92 435.7,-453.88 440.62,-455.76 445.61,-457.53"/>
<polygon fill="#63b8ff" stroke="#63b8ff" points="444.65,-460.9 455.25,-460.83 446.92,-454.28 444.65,-460.9"/>
</a>
</g>
</g>
<!-- Node8&#45;&gt;Node13 -->
<g id="edge23_Node000008_Node000013" class="edge">
<title>Node8&#45;&gt;Node13</title>
<g id="a_edge23_Node000008_Node000013"><a xlink:title=" ">
<path fill="none" stroke="#63b8ff" d="M374.63,-405.45C398.65,-410.31 428.07,-416.26 453.38,-421.37"/>
<polygon fill="#63b8ff" stroke="#63b8ff" points="452.72,-424.81 463.21,-423.36 454.11,-417.95 452.72,-424.81"/>
</a>
</g>
</g>
<!-- Node8&#45;&gt;Node14 -->
<g id="edge25_Node000008_Node000014" class="edge">
<title>Node8&#45;&gt;Node14</title>
<g id="a_edge25_Node000008_Node000014"><a xlink:title=" ">
<path fill="none" stroke="#63b8ff" d="M395.12,-395.92C412.24,-395.92 430.55,-395.92 447.43,-395.92"/>
<polygon fill="#63b8ff" stroke="#63b8ff" points="447.74,-399.42 457.74,-395.92 447.74,-392.42 447.74,-399.42"/>
</a>
</g>
</g>
<!-- Node8&#45;&gt;Node15 -->
<g id="edge27_Node000008_Node000015" class="edge">
<title>Node8&#45;&gt;Node15</title>
<g id="a_edge27_Node000008_Node000015"><a xlink:title=" ">
<path fill="none" stroke="#63b8ff" d="M374.63,-386.39C398.65,-381.54 428.07,-375.59 453.38,-370.47"/>
<polygon fill="#63b8ff" stroke="#63b8ff" points="454.11,-373.89 463.21,-368.48 452.72,-367.03 454.11,-373.89"/>
</a>
</g>
</g>
<!-- Node8&#45;&gt;Node16 -->
<g id="edge29_Node000008_Node000016" class="edge">
<title>Node8&#45;&gt;Node16</title>
<g id="a_edge29_Node000008_Node000016"><a xlink:title=" ">
<path fill="none" stroke="#63b8ff" d="M342.7,-386.25C362.38,-374.11 398.07,-353.37 431,-340.92 437.75,-338.37 444.96,-336.08 452.18,-334.05"/>
<polygon fill="#63b8ff" stroke="#63b8ff" points="453.22,-337.4 461.98,-331.45 451.42,-330.63 453.22,-337.4"/>
</a>
</g>
</g>
<!-- Node8&#45;&gt;Node17 -->
<g id="edge31_Node000008_Node000017" class="edge">
<title>Node8&#45;&gt;Node17</title>
<g id="a_edge31_Node000008_Node000017"><a xlink:title=" ">
<path fill="none" stroke="#63b8ff" d="M335.49,-386.14C351.53,-367.2 389.64,-325.49 431,-303.92 435.52,-301.56 440.35,-299.49 445.29,-297.67"/>
<polygon fill="#63b8ff" stroke="#63b8ff" points="446.52,-300.95 454.91,-294.48 444.32,-294.31 446.52,-300.95"/>
</a>
</g>
</g>
<!-- Node8&#45;&gt;Node18 -->
<g id="edge33_Node000008_Node000018" class="edge">
<title>Node8&#45;&gt;Node18</title>
<g id="a_edge33_Node000008_Node000018"><a xlink:title=" ">
<path fill="none" stroke="#63b8ff" d="M332.27,-386.35C344.82,-362.19 381.27,-298.42 431,-266.92 434.34,-264.8 437.9,-262.92 441.59,-261.25"/>
<polygon fill="#63b8ff" stroke="#63b8ff" points="442.98,-264.46 450.97,-257.51 440.39,-257.96 442.98,-264.46"/>
</a>
</g>
</g>
<!-- Node8&#45;&gt;Node19 -->
<g id="edge35_Node000008_Node000019" class="edge">
<title>Node8&#45;&gt;Node19</title>
<g id="a_edge35_Node000008_Node000019"><a xlink:title=" ">
<path fill="none" stroke="#63b8ff" d="M330.58,-386.22C340.24,-357.41 372.84,-271.79 431,-229.92 433.71,-227.97 436.59,-226.22 439.58,-224.65"/>
<polygon fill="#63b8ff" stroke="#63b8ff" points="441.21,-227.76 448.88,-220.44 438.33,-221.38 441.21,-227.76"/>
</a>
</g>
</g>
<!-- Node8&#45;&gt;Node20 -->
<g id="edge37_Node000008_Node000020" class="edge">
<title>Node8&#45;&gt;Node20</title>
<g id="a_edge37_Node000008_Node000020"><a xlink:title=" ">
<path fill="none" stroke="#63b8ff" d="M329.47,-386.02C336.59,-352.96 364.17,-245.53 431,-192.92 435.71,-189.21 441.04,-186.21 446.65,-183.78"/>
<polygon fill="#63b8ff" stroke="#63b8ff" points="448.12,-186.96 456.29,-180.21 445.7,-180.4 448.12,-186.96"/>
</a>
</g>
</g>
<!-- Node8&#45;&gt;Node21 -->
<g id="edge39_Node000008_Node000021" class="edge">
<title>Node8&#45;&gt;Node21</title>
<g id="a_edge39_Node000008_Node000021"><a xlink:title=" ">
<path fill="none" stroke="#63b8ff" d="M328.59,-386.34C333.27,-350.05 354.94,-219.87 431,-155.92 433,-154.24 435.11,-152.71 437.33,-151.3"/>
<polygon fill="#63b8ff" stroke="#63b8ff" points="439.12,-154.32 446.28,-146.51 435.81,-148.15 439.12,-154.32"/>
</a>
</g>
</g>
<!-- Node8&#45;&gt;Node22 -->
<g id="edge41_Node000008_Node000022" class="edge">
<title>Node8&#45;&gt;Node22</title>
<g id="a_edge41_Node000008_Node000022"><a xlink:title=" ">
<path fill="none" stroke="#63b8ff" d="M327.99,-386.29C330.55,-346.59 345.8,-194.24 431,-118.92 435.25,-115.16 440.12,-112.11 445.3,-109.65"/>
<polygon fill="#63b8ff" stroke="#63b8ff" points="446.92,-112.77 454.9,-105.8 444.32,-106.27 446.92,-112.77"/>
</a>
</g>
</g>
<!-- Node8&#45;&gt;Node23 -->
<g id="edge43_Node000008_Node000023" class="edge">
<title>Node8&#45;&gt;Node23</title>
<g id="a_edge43_Node000008_Node000023"><a xlink:title=" ">
<path fill="none" stroke="#63b8ff" d="M327.51,-386.22C328.13,-343.3 336.57,-168.75 431,-81.92 435.73,-77.57 441.27,-74.17 447.2,-71.51"/>
<polygon fill="#63b8ff" stroke="#63b8ff" points="448.62,-74.71 456.75,-67.92 446.16,-68.16 448.62,-74.71"/>
</a>
</g>
</g>
<!-- Node8&#45;&gt;Node24 -->
<g id="edge45_Node000008_Node000024" class="edge">
<title>Node8&#45;&gt;Node24</title>
<g id="a_edge45_Node000008_Node000024"><a xlink:title=" ">
<path fill="none" stroke="#63b8ff" d="M327.24,-386.16C326.59,-340.47 330.02,-145.63 431,-43.92 435.16,-39.73 440.03,-36.26 445.28,-33.4"/>
<polygon fill="#63b8ff" stroke="#63b8ff" points="446.82,-36.54 454.39,-29.12 443.85,-30.2 446.82,-36.54"/>
</a>
</g>
</g>
<!-- Node9&#45;&gt;Node4 -->
<g id="edge16_Node000009_Node000004" class="edge">
<title>Node9&#45;&gt;Node4</title>
<g id="a_edge16_Node000009_Node000004"><a xlink:title=" ">
<path fill="none" stroke="#63b8ff" d="M574.28,-596.14C580.69,-593.58 586.76,-590.24 592,-585.92 650.08,-538.05 672.61,-446.24 680.38,-401.99"/>
<polygon fill="#63b8ff" stroke="#63b8ff" points="683.84,-402.5 682.01,-392.06 676.93,-401.36 683.84,-402.5"/>
</a>
</g>
</g>
<!-- Node10&#45;&gt;Node4 -->
<g id="edge18_Node000010_Node000004" class="edge">
<title>Node10&#45;&gt;Node4</title>
<g id="a_edge18_Node000010_Node000004"><a xlink:title=" ">
<path fill="none" stroke="#63b8ff" d="M575.18,-557.41C581.2,-554.93 586.94,-551.82 592,-547.92 640.84,-510.34 666.84,-439.23 677.72,-401.64"/>
<polygon fill="#63b8ff" stroke="#63b8ff" points="681.1,-402.56 680.39,-391.99 674.35,-400.69 681.1,-402.56"/>
</a>
</g>
</g>
<!-- Node11&#45;&gt;Node4 -->
<g id="edge20_Node000011_Node000004" class="edge">
<title>Node11&#45;&gt;Node4</title>
<g id="a_edge20_Node000011_Node000004"><a xlink:title=" ">
<path fill="none" stroke="#63b8ff" d="M570.56,-511.18C578.13,-508.17 585.5,-504.47 592,-499.92 628.73,-474.2 656.91,-429.19 671.92,-401.34"/>
<polygon fill="#63b8ff" stroke="#63b8ff" points="675.13,-402.74 676.67,-392.26 668.93,-399.5 675.13,-402.74"/>
</a>
</g>
</g>
<!-- Node12&#45;&gt;Node4 -->
<g id="edge22_Node000012_Node000004" class="edge">
<title>Node12&#45;&gt;Node4</title>
<g id="a_edge22_Node000012_Node000004"><a xlink:title=" ">
<path fill="none" stroke="#63b8ff" d="M569.62,-461.65C577.34,-458.87 585,-455.64 592,-451.92 618.35,-437.91 644.33,-415.75 661.93,-399.15"/>
<polygon fill="#63b8ff" stroke="#63b8ff" points="664.62,-401.41 669.39,-391.96 659.76,-396.37 664.62,-401.41"/>
</a>
</g>
</g>
<!-- Node13&#45;&gt;Node4 -->
<g id="edge24_Node000013_Node000004" class="edge">
<title>Node13&#45;&gt;Node4</title>
<g id="a_edge24_Node000013_Node000004"><a xlink:title=" ">
<path fill="none" stroke="#63b8ff" d="M560.78,-423.37C571.16,-420.93 582.02,-418.09 592,-414.92 608.64,-409.64 626.48,-402.61 641.97,-396.03"/>
<polygon fill="#63b8ff" stroke="#63b8ff" points="643.49,-399.19 651.29,-392.02 640.72,-392.76 643.49,-399.19"/>
</a>
</g>
</g>
<!-- Node14&#45;&gt;Node4 -->
<g id="edge26_Node000014_Node000004" class="edge">
<title>Node14&#45;&gt;Node4</title>
<g id="a_edge26_Node000014_Node000004"><a xlink:title=" ">
<path fill="none" stroke="#63b8ff" d="M565.36,-390.07C581.89,-388.23 600.35,-386.19 617.69,-384.27"/>
<polygon fill="#63b8ff" stroke="#63b8ff" points="618.2,-387.73 627.75,-383.15 617.43,-380.78 618.2,-387.73"/>
</a>
</g>
</g>
<!-- Node15&#45;&gt;Node4 -->
<g id="edge28_Node000015_Node000004" class="edge">
<title>Node15&#45;&gt;Node4</title>
<g id="a_edge28_Node000015_Node000004"><a xlink:title=" ">
<path fill="none" stroke="#63b8ff" d="M587.72,-366.82C597.74,-367.87 607.96,-368.94 617.81,-369.97"/>
<polygon fill="#63b8ff" stroke="#63b8ff" points="617.61,-373.47 627.92,-371.04 618.34,-366.51 617.61,-373.47"/>
</a>
</g>
</g>
<!-- Node16&#45;&gt;Node4 -->
<g id="edge30_Node000016_Node000004" class="edge">
<title>Node16&#45;&gt;Node4</title>
<g id="a_edge30_Node000016_Node000004"><a xlink:title=" ">
<path fill="none" stroke="#63b8ff" d="M557.37,-331.5C568.75,-334.24 580.9,-337.44 592,-340.92 607.71,-345.85 624.57,-352.14 639.51,-358.08"/>
<polygon fill="#63b8ff" stroke="#63b8ff" points="638.44,-361.42 649.02,-361.92 641.06,-354.93 638.44,-361.42"/>
</a>
</g>
</g>
<!-- Node17&#45;&gt;Node4 -->
<g id="edge32_Node000017_Node000004" class="edge">
<title>Node17&#45;&gt;Node4</title>
<g id="a_edge32_Node000017_Node000004"><a xlink:title=" ">
<path fill="none" stroke="#63b8ff" d="M566.64,-294.49C575.35,-296.98 584.09,-300.07 592,-303.92 618.4,-316.76 644.2,-338.24 661.72,-354.59"/>
<polygon fill="#63b8ff" stroke="#63b8ff" points="659.52,-357.32 669.17,-361.69 664.35,-352.25 659.52,-357.32"/>
</a>
</g>
</g>
<!-- Node18&#45;&gt;Node4 -->
<g id="edge34_Node000018_Node000004" class="edge">
<title>Node18&#45;&gt;Node4</title>
<g id="a_edge34_Node000018_Node000004"><a xlink:title=" ">
<path fill="none" stroke="#63b8ff" d="M571.54,-257.49C578.72,-259.95 585.73,-263.04 592,-266.92 626.88,-288.52 654.97,-327.88 670.56,-353.2"/>
<polygon fill="#63b8ff" stroke="#63b8ff" points="667.59,-355.05 675.73,-361.83 673.6,-351.45 667.59,-355.05"/>
</a>
</g>
</g>
<!-- Node19&#45;&gt;Node4 -->
<g id="edge36_Node000019_Node000004" class="edge">
<title>Node19&#45;&gt;Node4</title>
<g id="a_edge36_Node000019_Node000004"><a xlink:title=" ">
<path fill="none" stroke="#63b8ff" d="M574.11,-220.45C580.48,-222.93 586.58,-226.03 592,-229.92 635.21,-260.97 662.6,-319.2 675.43,-352.29"/>
<polygon fill="#63b8ff" stroke="#63b8ff" points="672.16,-353.55 678.94,-361.7 678.72,-351.1 672.16,-353.55"/>
</a>
</g>
</g>
<!-- Node20&#45;&gt;Node4 -->
<g id="edge38_Node000020_Node000004" class="edge">
<title>Node20&#45;&gt;Node4</title>
<g id="a_edge38_Node000020_Node000004"><a xlink:title=" ">
<path fill="none" stroke="#63b8ff" d="M566.75,-180.16C575.83,-183.02 584.66,-187.1 592,-192.92 643.76,-234.01 668.76,-311.83 678.64,-351.81"/>
<polygon fill="#63b8ff" stroke="#63b8ff" points="675.3,-352.87 680.99,-361.8 682.11,-351.27 675.3,-352.87"/>
</a>
</g>
</g>
<!-- Node21&#45;&gt;Node4 -->
<g id="edge40_Node000021_Node000004" class="edge">
<title>Node21&#45;&gt;Node4</title>
<g id="a_edge40_Node000021_Node000004"><a xlink:title=" ">
<path fill="none" stroke="#63b8ff" d="M576.77,-146.45C582.27,-148.95 587.46,-152.06 592,-155.92 652.63,-207.56 674.04,-305.73 680.98,-351.83"/>
<polygon fill="#63b8ff" stroke="#63b8ff" points="677.53,-352.44 682.38,-361.86 684.46,-351.47 677.53,-352.44"/>
</a>
</g>
</g>
<!-- Node22&#45;&gt;Node4 -->
<g id="edge42_Node000022_Node000004" class="edge">
<title>Node22&#45;&gt;Node4</title>
<g id="a_edge42_Node000022_Node000004"><a xlink:title=" ">
<path fill="none" stroke="#63b8ff" d="M568.17,-105.72C576.89,-108.64 585.24,-112.86 592,-118.92 661.55,-181.34 678.53,-299.97 682.67,-351.72"/>
<polygon fill="#63b8ff" stroke="#63b8ff" points="679.18,-351.98 683.37,-361.71 686.16,-351.48 679.18,-351.98"/>
</a>
</g>
</g>
<!-- Node23&#45;&gt;Node4 -->
<g id="edge44_Node000023_Node000004" class="edge">
<title>Node23&#45;&gt;Node4</title>
<g id="a_edge44_Node000023_Node000004"><a xlink:title=" ">
<path fill="none" stroke="#63b8ff" d="M566.33,-67.82C575.77,-70.77 584.85,-75.24 592,-81.92 670.46,-155.24 682.47,-294.24 683.98,-351.4"/>
<polygon fill="#63b8ff" stroke="#63b8ff" points="680.48,-351.76 684.15,-361.7 687.48,-351.64 680.48,-351.76"/>
</a>
</g>
</g>
<!-- Node24&#45;&gt;Node4 -->
<g id="edge46_Node000024_Node000004" class="edge">
<title>Node24&#45;&gt;Node4</title>
<g id="a_edge46_Node000024_Node000004"><a xlink:title=" ">
<path fill="none" stroke="#63b8ff" d="M568.7,-29.03C577.36,-32.52 585.55,-37.32 592,-43.92 677.22,-131.18 685.1,-289.92 684.74,-351.53"/>
<polygon fill="#63b8ff" stroke="#63b8ff" points="681.24,-351.81 684.59,-361.86 688.24,-351.91 681.24,-351.81"/>
</a>
</g>
</g>
</g>
</svg>
