<?xml version="1.0" encoding="UTF-8" standalone="no"?>
<!DOCTYPE svg PUBLIC "-//W3C//DTD SVG 1.1//EN"
 "http://www.w3.org/Graphics/SVG/1.1/DTD/svg11.dtd">
<!-- Generated by graphviz version 2.43.0 (0)
 -->
<!-- Title: lci::wait_drained Pages: 1 -->
<svg width="681pt" height="86pt"
 viewBox="0.00 0.00 681.00 86.00" xmlns="http://www.w3.org/2000/svg" xmlns:xlink="http://www.w3.org/1999/xlink">
<g id="graph0" class="graph" transform="scale(1 1) rotate(0) translate(4 82)">
<title>lci::wait_drained</title>
<!-- Node1 -->
<g id="Node000001" class="node">
<title>Node1</title>
<g id="a_Node000001"><a xlink:title=" ">
<polygon fill="#999999" stroke="#666666" points="97,-48.5 0,-48.5 0,-29.5 97,-29.5 97,-48.5"/>
<text text-anchor="middle" x="48.5" y="-36.5" font-family="Helvetica,sans-Serif" font-size="10.00">lci::wait_drained</text>
</a>
</g>
</g>
<!-- Node2 -->
<g id="Node000002" class="node">
<title>Node2</title>
<g id="a_Node000002"><a xlink:href="../../dc/d66/classlci_1_1wait__drained__x.html#a83a8a20034a60ba86d4e7814b9a4146a" target="_top" xlink:title=" ">
<polygon fill="white" stroke="#666666" points="241,-54 133,-54 133,-24 241,-24 241,-54"/>
<text text-anchor="start" x="141" y="-42" font-family="Helvetica,sans-Serif" font-size="10.00">lci::wait_drained_x</text>
<text text-anchor="middle" x="187" y="-31" font-family="Helvetica,sans-Serif" font-size="10.00">::call</text>
</a>
</g>
</g>
<!-- Node1&#45;&gt;Node2 -->
<g id="edge1_Node000001_Node000002" class="edge">
<title>Node1&#45;&gt;Node2</title>
<g id="a_edge1_Node000001_Node000002"><a xlink:title=" ">
<path fill="none" stroke="#63b8ff" d="M97.24,-39C105.53,-39 114.26,-39 122.89,-39"/>
<polygon fill="#63b8ff" stroke="#63b8ff" points="122.93,-42.5 132.93,-39 122.93,-35.5 122.93,-42.5"/>
</a>
</g>
</g>
<!-- Node3 -->
<g id="Node000003" class="node">
<title>Node3</title>
<g id="a_Node000003"><a xlink:href="../../dc/d66/classlci_1_1wait__drained__x.html#a90cce4e34b7fe85e73eed4e7a9c6c122" target="_top" xlink:title=" ">
<polygon fill="white" stroke="#666666" points="385,-54 277,-54 277,-24 385,-24 385,-54"/>
<text text-anchor="start" x="285" y="-42" font-family="Helvetica,sans-Serif" font-size="10.00">lci::wait_drained_x</text>
<text text-anchor="middle" x="331" y="-31" font-family="Helvetica,sans-Serif" font-size="10.00">::call_impl</text>
</a>
</g>
</g>
<!-- Node2&#45;&gt;Node3 -->
<g id="edge2_Node000002_Node000003" class="edge">
<title>Node2&#45;&gt;Node3</title>
<g id="a_edge2_Node000002_Node000003"><a xlink:title=" ">
<path fill="none" stroke="#63b8ff" d="M241.28,-39C249.56,-39 258.18,-39 266.66,-39"/>
<polygon fill="#63b8ff" stroke="#63b8ff" points="266.89,-42.5 276.89,-39 266.89,-35.5 266.89,-42.5"/>
</a>
</g>
</g>
<!-- Node4 -->
<g id="Node000004" class="node">
<title>Node4</title>
<g id="a_Node000004"><a xlink:href="../../dc/d66/classlci_1_1wait__drained__x.html#af88838156172b62b1f3b6ae3138b742b" target="_top" xlink:title=" ">
<polygon fill="white" stroke="#666666" points="529,-78 421,-78 421,-48 529,-48 529,-78"/>
<text text-anchor="start" x="429" y="-66" font-family="Helvetica,sans-Serif" font-size="10.00">lci::wait_drained_x</text>
<text text-anchor="middle" x="475" y="-55" font-family="Helvetica,sans-Serif" font-size="10.00">::device</text>
</a>
</g>
</g>
<!-- Node2&#45;&gt;Node4 -->
<g id="edge7_Node000002_Node000004" class="edge">
<title>Node2&#45;&gt;Node4</title>
<g id="a_edge7_Node000002_Node000004"><a xlink:title=" ">
<path fill="none" stroke="#63b8ff" d="M234.64,-54.05C248.16,-57.74 263.04,-61.15 277,-63 321.35,-68.88 371.81,-68.75 410.56,-67.21"/>
<polygon fill="#63b8ff" stroke="#63b8ff" points="410.82,-70.71 420.66,-66.77 410.51,-63.71 410.82,-70.71"/>
</a>
</g>
</g>
<!-- Node6 -->
<g id="Node000006" class="node">
<title>Node6</title>
<g id="a_Node000006"><a xlink:href="../../dc/d66/classlci_1_1wait__drained__x.html#aadc24fbfbf078f099990cdca2b7e31a3" target="_top" xlink:title=" ">
<polygon fill="white" stroke="#666666" points="529,-30 421,-30 421,0 529,0 529,-30"/>
<text text-anchor="start" x="429" y="-18" font-family="Helvetica,sans-Serif" font-size="10.00">lci::wait_drained_x</text>
<text text-anchor="middle" x="475" y="-7" font-family="Helvetica,sans-Serif" font-size="10.00">::runtime</text>
</a>
</g>
</g>
<!-- Node2&#45;&gt;Node6 -->
<g id="edge8_Node000002_Node000006" class="edge">
<title>Node2&#45;&gt;Node6</title>
<g id="a_edge8_Node000002_Node000006"><a xlink:title=" ">
<path fill="none" stroke="#63b8ff" d="M234.64,-23.95C248.16,-20.26 263.04,-16.85 277,-15 321.35,-9.12 371.81,-9.25 410.56,-10.79"/>
<polygon fill="#63b8ff" stroke="#63b8ff" points="410.51,-14.29 420.66,-11.23 410.82,-7.29 410.51,-14.29"/>
</a>
</g>
</g>
<!-- Node3&#45;&gt;Node4 -->
<g id="edge3_Node000003_Node000004" class="edge">
<title>Node3&#45;&gt;Node4</title>
<g id="a_edge3_Node000003_Node000004"><a xlink:title=" ">
<path fill="none" stroke="#63b8ff" d="M385.28,-48C393.65,-49.42 402.37,-50.89 410.94,-52.34"/>
<polygon fill="#63b8ff" stroke="#63b8ff" points="410.45,-55.81 420.89,-54.02 411.62,-48.91 410.45,-55.81"/>
</a>
</g>
</g>
<!-- Node3&#45;&gt;Node6 -->
<g id="edge5_Node000003_Node000006" class="edge">
<title>Node3&#45;&gt;Node6</title>
<g id="a_edge5_Node000003_Node000006"><a xlink:title=" ">
<path fill="none" stroke="#63b8ff" d="M385.28,-30C393.65,-28.58 402.37,-27.11 410.94,-25.66"/>
<polygon fill="#63b8ff" stroke="#63b8ff" points="411.62,-29.09 420.89,-23.98 410.45,-22.19 411.62,-29.09"/>
</a>
</g>
</g>
<!-- Node5 -->
<g id="Node000005" class="node">
<title>Node5</title>
<g id="a_Node000005"><a xlink:href="../../dc/d66/classlci_1_1wait__drained__x.html#a65fffdc82bfedd0e8f5e24de228e3f20" target="_top" xlink:title=" ">
<polygon fill="white" stroke="#666666" points="673,-54 565,-54 565,-24 673,-24 673,-54"/>
<text text-anchor="start" x="573" y="-42" font-family="Helvetica,sans-Serif" font-size="10.00">lci::wait_drained_x</text>
<text text-anchor="middle" x="619" y="-31" font-family="Helvetica,sans-Serif" font-size="10.00">::wait_drained_x</text>
</a>
</g>
</g>
<!-- Node4&#45;&gt;Node5 -->
<g id="edge4_Node000004_Node000005" class="edge">
<title>Node4&#45;&gt;Node5</title>
<g id="a_edge4_Node000004_Node000005"><a xlink:title=" ">
<path fill="none" stroke="#63b8ff" d="M529.28,-54C537.65,-52.58 546.37,-51.11 554.94,-49.66"/>
<polygon fill="#63b8ff" stroke="#63b8ff" points="555.62,-53.09 564.89,-47.98 554.45,-46.19 555.62,-53.09"/>
</a>
</g>
</g>
<!-- Node6&#45;&gt;Node5 -->
<g id="edge6_Node000006_Node000005" class="edge">
<title>Node6&#45;&gt;Node5</title>
<g id="a_edge6_Node000006_Node000005"><a xlink:title=" ">
<path fill="none" stroke="#63b8ff" d="M529.28,-24C537.65,-25.42 546.37,-26.89 554.94,-28.34"/>
<polygon fill="#63b8ff" stroke="#63b8ff" points="554.45,-31.81 564.89,-30.02 555.62,-24.91 554.45,-31.81"/>
</a>
</g>
</g>
</g>
</svg>
