<?xml version="1.0" encoding="UTF-8" standalone="no"?>
<!DOCTYPE svg PUBLIC "-//W3C//DTD SVG 1.1//EN"
 "http://www.w3.org/Graphics/SVG/1.1/DTD/svg11.dtd">
<!-- Generated by graphviz version 2.43.0 (0)
 -->
<!-- Title: lci::alloc_sync Pages: 1 -->
<svg width="662pt" height="182pt"
 viewBox="0.00 0.00 662.00 182.00" xmlns="http://www.w3.org/2000/svg" xmlns:xlink="http://www.w3.org/1999/xlink">
<g id="graph0" class="graph" transform="scale(1 1) rotate(0) translate(4 178)">
<title>lci::alloc_sync</title>
<!-- Node1 -->
<g id="Node000001" class="node">
<title>Node1</title>
<g id="a_Node000001"><a xlink:title=" ">
<polygon fill="#999999" stroke="#666666" points="85,-96.5 0,-96.5 0,-77.5 85,-77.5 85,-96.5"/>
<text text-anchor="middle" x="42.5" y="-84.5" font-family="Helvetica,sans-Serif" font-size="10.00">lci::alloc_sync</text>
</a>
</g>
</g>
<!-- Node2 -->
<g id="Node000002" class="node">
<title>Node2</title>
<g id="a_Node000002"><a xlink:href="../../dd/da4/classlci_1_1alloc__sync__x.html#aea27f019360a2dd1224bcdbe304a6460" target="_top" xlink:title=" ">
<polygon fill="white" stroke="#666666" points="240,-96.5 121,-96.5 121,-77.5 240,-77.5 240,-96.5"/>
<text text-anchor="middle" x="180.5" y="-84.5" font-family="Helvetica,sans-Serif" font-size="10.00">lci::alloc_sync_x::call</text>
</a>
</g>
</g>
<!-- Node1&#45;&gt;Node2 -->
<g id="edge1_Node000001_Node000002" class="edge">
<title>Node1&#45;&gt;Node2</title>
<g id="a_edge1_Node000001_Node000002"><a xlink:title=" ">
<path fill="none" stroke="#63b8ff" d="M85.04,-87C93.13,-87 101.8,-87 110.5,-87"/>
<polygon fill="#63b8ff" stroke="#63b8ff" points="110.69,-90.5 120.69,-87 110.69,-83.5 110.69,-90.5"/>
</a>
</g>
</g>
<!-- Node3 -->
<g id="Node000003" class="node">
<title>Node3</title>
<g id="a_Node000003"><a xlink:href="../../dd/da4/classlci_1_1alloc__sync__x.html#ae2322a9972986c8ad66ef3b7a908eab0" target="_top" xlink:title=" ">
<polygon fill="white" stroke="#666666" points="378,-102 276,-102 276,-72 378,-72 378,-102"/>
<text text-anchor="start" x="284" y="-90" font-family="Helvetica,sans-Serif" font-size="10.00">lci::alloc_sync_x::</text>
<text text-anchor="middle" x="327" y="-79" font-family="Helvetica,sans-Serif" font-size="10.00">call_impl</text>
</a>
</g>
</g>
<!-- Node2&#45;&gt;Node3 -->
<g id="edge2_Node000002_Node000003" class="edge">
<title>Node2&#45;&gt;Node3</title>
<g id="a_edge2_Node000002_Node000003"><a xlink:title=" ">
<path fill="none" stroke="#63b8ff" d="M240.27,-87C248.61,-87 257.19,-87 265.55,-87"/>
<polygon fill="#63b8ff" stroke="#63b8ff" points="265.61,-90.5 275.61,-87 265.61,-83.5 265.61,-90.5"/>
</a>
</g>
</g>
<!-- Node4 -->
<g id="Node000004" class="node">
<title>Node4</title>
<g id="a_Node000004"><a xlink:href="../../dd/da4/classlci_1_1alloc__sync__x.html#ad8f0f3393c34235ca17c4c617df5eb7a" target="_top" xlink:title=" ">
<polygon fill="white" stroke="#666666" points="516,-174 414,-174 414,-144 516,-144 516,-174"/>
<text text-anchor="start" x="422" y="-162" font-family="Helvetica,sans-Serif" font-size="10.00">lci::alloc_sync_x::</text>
<text text-anchor="middle" x="465" y="-151" font-family="Helvetica,sans-Serif" font-size="10.00">runtime</text>
</a>
</g>
</g>
<!-- Node2&#45;&gt;Node4 -->
<g id="edge11_Node000002_Node000004" class="edge">
<title>Node2&#45;&gt;Node4</title>
<g id="a_edge11_Node000002_Node000004"><a xlink:title=" ">
<path fill="none" stroke="#63b8ff" d="M200.57,-96.62C219.32,-105.71 248.98,-119.1 276,-127 317.83,-139.23 366.34,-147.34 403.61,-152.34"/>
<polygon fill="#63b8ff" stroke="#63b8ff" points="403.44,-155.85 413.81,-153.67 404.34,-148.91 403.44,-155.85"/>
</a>
</g>
</g>
<!-- Node6 -->
<g id="Node000006" class="node">
<title>Node6</title>
<g id="a_Node000006"><a xlink:href="../../dd/da4/classlci_1_1alloc__sync__x.html#a778a0249d3afc6949b987d0caf3fcc78" target="_top" xlink:title=" ">
<polygon fill="white" stroke="#666666" points="516,-126 414,-126 414,-96 516,-96 516,-126"/>
<text text-anchor="start" x="422" y="-114" font-family="Helvetica,sans-Serif" font-size="10.00">lci::alloc_sync_x::</text>
<text text-anchor="middle" x="465" y="-103" font-family="Helvetica,sans-Serif" font-size="10.00">threshold</text>
</a>
</g>
</g>
<!-- Node2&#45;&gt;Node6 -->
<g id="edge12_Node000002_Node000006" class="edge">
<title>Node2&#45;&gt;Node6</title>
<g id="a_edge12_Node000002_Node000006"><a xlink:title=" ">
<path fill="none" stroke="#63b8ff" d="M211.35,-96.61C229.77,-102.03 254,-108.25 276,-111 318.48,-116.31 366.79,-116.18 403.79,-114.79"/>
<polygon fill="#63b8ff" stroke="#63b8ff" points="404.07,-118.28 413.92,-114.37 403.78,-111.29 404.07,-118.28"/>
</a>
</g>
</g>
<!-- Node7 -->
<g id="Node000007" class="node">
<title>Node7</title>
<g id="a_Node000007"><a xlink:href="../../dd/da4/classlci_1_1alloc__sync__x.html#a589c751f02bc852f638e0038473a4576" target="_top" xlink:title=" ">
<polygon fill="white" stroke="#666666" points="516,-78 414,-78 414,-48 516,-48 516,-78"/>
<text text-anchor="start" x="422" y="-66" font-family="Helvetica,sans-Serif" font-size="10.00">lci::alloc_sync_x::</text>
<text text-anchor="middle" x="465" y="-55" font-family="Helvetica,sans-Serif" font-size="10.00">user_context</text>
</a>
</g>
</g>
<!-- Node2&#45;&gt;Node7 -->
<g id="edge13_Node000002_Node000007" class="edge">
<title>Node2&#45;&gt;Node7</title>
<g id="a_edge13_Node000002_Node000007"><a xlink:title=" ">
<path fill="none" stroke="#63b8ff" d="M211.35,-77.39C229.77,-71.97 254,-65.75 276,-63 318.48,-57.69 366.79,-57.82 403.79,-59.21"/>
<polygon fill="#63b8ff" stroke="#63b8ff" points="403.78,-62.71 413.92,-59.63 404.07,-55.72 403.78,-62.71"/>
</a>
</g>
</g>
<!-- Node8 -->
<g id="Node000008" class="node">
<title>Node8</title>
<g id="a_Node000008"><a xlink:href="../../dd/da4/classlci_1_1alloc__sync__x.html#ad6712174ab3ca0b0a6ebf6e51ec311e9" target="_top" xlink:title=" ">
<polygon fill="white" stroke="#666666" points="516,-30 414,-30 414,0 516,0 516,-30"/>
<text text-anchor="start" x="422" y="-18" font-family="Helvetica,sans-Serif" font-size="10.00">lci::alloc_sync_x::</text>
<text text-anchor="middle" x="465" y="-7" font-family="Helvetica,sans-Serif" font-size="10.00">zero_copy_am</text>
</a>
</g>
</g>
<!-- Node2&#45;&gt;Node8 -->
<g id="edge14_Node000002_Node000008" class="edge">
<title>Node2&#45;&gt;Node8</title>
<g id="a_edge14_Node000002_Node000008"><a xlink:title=" ">
<path fill="none" stroke="#63b8ff" d="M206.09,-77.41C225,-70.29 251.88,-60.68 276,-54 318.14,-42.33 366.45,-32.38 403.55,-25.45"/>
<polygon fill="#63b8ff" stroke="#63b8ff" points="404.5,-28.83 413.7,-23.58 403.23,-21.95 404.5,-28.83"/>
</a>
</g>
</g>
<!-- Node3&#45;&gt;Node4 -->
<g id="edge3_Node000003_Node000004" class="edge">
<title>Node3&#45;&gt;Node4</title>
<g id="a_edge3_Node000003_Node000004"><a xlink:title=" ">
<path fill="none" stroke="#63b8ff" d="M354.12,-102.13C371.05,-111.8 393.66,-124.45 414,-135 416.86,-136.48 419.83,-137.99 422.83,-139.49"/>
<polygon fill="#63b8ff" stroke="#63b8ff" points="421.33,-142.65 431.85,-143.93 424.42,-136.37 421.33,-142.65"/>
</a>
</g>
</g>
<!-- Node3&#45;&gt;Node6 -->
<g id="edge5_Node000003_Node000006" class="edge">
<title>Node3&#45;&gt;Node6</title>
<g id="a_edge5_Node000003_Node000006"><a xlink:title=" ">
<path fill="none" stroke="#63b8ff" d="M378.25,-95.87C386.63,-97.35 395.39,-98.89 403.98,-100.41"/>
<polygon fill="#63b8ff" stroke="#63b8ff" points="403.5,-103.88 413.95,-102.17 404.71,-96.98 403.5,-103.88"/>
</a>
</g>
</g>
<!-- Node3&#45;&gt;Node7 -->
<g id="edge7_Node000003_Node000007" class="edge">
<title>Node3&#45;&gt;Node7</title>
<g id="a_edge7_Node000003_Node000007"><a xlink:title=" ">
<path fill="none" stroke="#63b8ff" d="M378.25,-78.13C386.63,-76.65 395.39,-75.11 403.98,-73.59"/>
<polygon fill="#63b8ff" stroke="#63b8ff" points="404.71,-77.02 413.95,-71.83 403.5,-70.12 404.71,-77.02"/>
</a>
</g>
</g>
<!-- Node3&#45;&gt;Node8 -->
<g id="edge9_Node000003_Node000008" class="edge">
<title>Node3&#45;&gt;Node8</title>
<g id="a_edge9_Node000003_Node000008"><a xlink:title=" ">
<path fill="none" stroke="#63b8ff" d="M354.12,-71.87C371.05,-62.2 393.66,-49.55 414,-39 416.86,-37.52 419.83,-36.01 422.83,-34.51"/>
<polygon fill="#63b8ff" stroke="#63b8ff" points="424.42,-37.63 431.85,-30.07 421.33,-31.35 424.42,-37.63"/>
</a>
</g>
</g>
<!-- Node5 -->
<g id="Node000005" class="node">
<title>Node5</title>
<g id="a_Node000005"><a xlink:href="../../dd/da4/classlci_1_1alloc__sync__x.html#acc4a0596c809f2fa20c4f202282e30fc" target="_top" xlink:title=" ">
<polygon fill="white" stroke="#666666" points="654,-102 552,-102 552,-72 654,-72 654,-102"/>
<text text-anchor="start" x="560" y="-90" font-family="Helvetica,sans-Serif" font-size="10.00">lci::alloc_sync_x::</text>
<text text-anchor="middle" x="603" y="-79" font-family="Helvetica,sans-Serif" font-size="10.00">alloc_sync_x</text>
</a>
</g>
</g>
<!-- Node4&#45;&gt;Node5 -->
<g id="edge4_Node000004_Node000005" class="edge">
<title>Node4&#45;&gt;Node5</title>
<g id="a_edge4_Node000004_Node000005"><a xlink:title=" ">
<path fill="none" stroke="#63b8ff" d="M498.15,-143.93C504.12,-141.03 510.27,-137.97 516,-135 533,-126.18 551.59,-115.89 567.12,-107.11"/>
<polygon fill="#63b8ff" stroke="#63b8ff" points="568.92,-110.11 575.88,-102.13 565.46,-104.03 568.92,-110.11"/>
</a>
</g>
</g>
<!-- Node6&#45;&gt;Node5 -->
<g id="edge6_Node000006_Node000005" class="edge">
<title>Node6&#45;&gt;Node5</title>
<g id="a_edge6_Node000006_Node000005"><a xlink:title=" ">
<path fill="none" stroke="#63b8ff" d="M516.25,-102.13C524.63,-100.65 533.39,-99.11 541.98,-97.59"/>
<polygon fill="#63b8ff" stroke="#63b8ff" points="542.71,-101.02 551.95,-95.83 541.5,-94.12 542.71,-101.02"/>
</a>
</g>
</g>
<!-- Node7&#45;&gt;Node5 -->
<g id="edge8_Node000007_Node000005" class="edge">
<title>Node7&#45;&gt;Node5</title>
<g id="a_edge8_Node000007_Node000005"><a xlink:title=" ">
<path fill="none" stroke="#63b8ff" d="M516.25,-71.87C524.63,-73.35 533.39,-74.89 541.98,-76.41"/>
<polygon fill="#63b8ff" stroke="#63b8ff" points="541.5,-79.88 551.95,-78.17 542.71,-72.98 541.5,-79.88"/>
</a>
</g>
</g>
<!-- Node8&#45;&gt;Node5 -->
<g id="edge10_Node000008_Node000005" class="edge">
<title>Node8&#45;&gt;Node5</title>
<g id="a_edge10_Node000008_Node000005"><a xlink:title=" ">
<path fill="none" stroke="#63b8ff" d="M498.15,-30.07C504.12,-32.97 510.27,-36.03 516,-39 533,-47.82 551.59,-58.11 567.12,-66.89"/>
<polygon fill="#63b8ff" stroke="#63b8ff" points="565.46,-69.97 575.88,-71.87 568.92,-63.89 565.46,-69.97"/>
</a>
</g>
</g>
</g>
</svg>
