<?xml version="1.0" encoding="UTF-8" standalone="no"?>
<!DOCTYPE svg PUBLIC "-//W3C//DTD SVG 1.1//EN"
 "http://www.w3.org/Graphics/SVG/1.1/DTD/svg11.dtd">
<!-- Generated by graphviz version 2.43.0 (0)
 -->
<!-- Title: lci::reduce Pages: 1 -->
<svg width="707pt" height="372pt"
 viewBox="0.00 0.00 707.00 372.00" xmlns="http://www.w3.org/2000/svg" xmlns:xlink="http://www.w3.org/1999/xlink">
<g id="graph0" class="graph" transform="scale(1 1) rotate(0) translate(4 368)">
<title>lci::reduce</title>
<!-- Node1 -->
<g id="Node000001" class="node">
<title>Node1</title>
<g id="a_Node000001"><a xlink:title=" ">
<polygon fill="#999999" stroke="#666666" points="67,-191 0,-191 0,-172 67,-172 67,-191"/>
<text text-anchor="middle" x="33.5" y="-179" font-family="Helvetica,sans-Serif" font-size="10.00">lci::reduce</text>
</a>
</g>
</g>
<!-- Node2 -->
<g id="Node000002" class="node">
<title>Node2</title>
<g id="a_Node000002"><a xlink:href="../../d9/ddd/classlci_1_1reduce__x.html#aec4d1c94bf45729462cbbe22f39cfb50" target="_top" xlink:title=" ">
<polygon fill="white" stroke="#666666" points="204,-191 103,-191 103,-172 204,-172 204,-191"/>
<text text-anchor="middle" x="153.5" y="-179" font-family="Helvetica,sans-Serif" font-size="10.00">lci::reduce_x::call</text>
</a>
</g>
</g>
<!-- Node1&#45;&gt;Node2 -->
<g id="edge1_Node000001_Node000002" class="edge">
<title>Node1&#45;&gt;Node2</title>
<g id="a_edge1_Node000001_Node000002"><a xlink:title=" ">
<path fill="none" stroke="#63b8ff" d="M67.06,-181.5C75,-181.5 83.75,-181.5 92.53,-181.5"/>
<polygon fill="#63b8ff" stroke="#63b8ff" points="92.8,-185 102.8,-181.5 92.8,-178 92.8,-185"/>
</a>
</g>
</g>
<!-- Node3 -->
<g id="Node000003" class="node">
<title>Node3</title>
<g id="a_Node000003"><a xlink:href="../../d9/ddd/classlci_1_1reduce__x.html#a8830551d57b4362aa138713c6a15e8cb" target="_top" xlink:title=" ">
<polygon fill="white" stroke="#666666" points="368,-191 240,-191 240,-172 368,-172 368,-191"/>
<text text-anchor="middle" x="304" y="-179" font-family="Helvetica,sans-Serif" font-size="10.00">lci::reduce_x::call_impl</text>
</a>
</g>
</g>
<!-- Node2&#45;&gt;Node3 -->
<g id="edge2_Node000002_Node000003" class="edge">
<title>Node2&#45;&gt;Node3</title>
<g id="a_edge2_Node000002_Node000003"><a xlink:title=" ">
<path fill="none" stroke="#63b8ff" d="M204.36,-181.5C212.54,-181.5 221.16,-181.5 229.76,-181.5"/>
<polygon fill="#63b8ff" stroke="#63b8ff" points="229.82,-185 239.82,-181.5 229.82,-178 229.82,-185"/>
</a>
</g>
</g>
<!-- Node4 -->
<g id="Node000004" class="node">
<title>Node4</title>
<g id="a_Node000004"><a xlink:href="../../d9/ddd/classlci_1_1reduce__x.html#a7aca1befa0c52177756625f02314c4a7" target="_top" xlink:title=" ">
<polygon fill="white" stroke="#666666" points="525,-364 414,-364 414,-345 525,-345 525,-364"/>
<text text-anchor="middle" x="469.5" y="-352" font-family="Helvetica,sans-Serif" font-size="10.00">lci::reduce_x::count</text>
</a>
</g>
</g>
<!-- Node2&#45;&gt;Node4 -->
<g id="edge23_Node000002_Node000004" class="edge">
<title>Node2&#45;&gt;Node4</title>
<g id="a_edge23_Node000002_Node000004"><a xlink:title=" ">
<path fill="none" stroke="#63b8ff" d="M158.4,-191.18C168.27,-214.39 196.6,-273.46 240,-302.5 288.77,-335.13 355.12,-347.5 403.76,-352.08"/>
<polygon fill="#63b8ff" stroke="#63b8ff" points="403.6,-355.58 413.86,-352.94 404.19,-348.6 403.6,-355.58"/>
</a>
</g>
</g>
<!-- Node6 -->
<g id="Node000006" class="node">
<title>Node6</title>
<g id="a_Node000006"><a xlink:href="../../d9/ddd/classlci_1_1reduce__x.html#a84a20df5cfa83e3b0872dcd6c5e407e8" target="_top" xlink:title=" ">
<polygon fill="white" stroke="#666666" points="527.5,-327 411.5,-327 411.5,-308 527.5,-308 527.5,-327"/>
<text text-anchor="middle" x="469.5" y="-315" font-family="Helvetica,sans-Serif" font-size="10.00">lci::reduce_x::device</text>
</a>
</g>
</g>
<!-- Node2&#45;&gt;Node6 -->
<g id="edge24_Node000002_Node000006" class="edge">
<title>Node2&#45;&gt;Node6</title>
<g id="a_edge24_Node000002_Node000006"><a xlink:title=" ">
<path fill="none" stroke="#63b8ff" d="M160.94,-191.26C173.68,-209.72 203.99,-249.67 240,-269.5 289.78,-296.92 353.58,-308.7 401.1,-313.75"/>
<polygon fill="#63b8ff" stroke="#63b8ff" points="401,-317.26 411.29,-314.76 401.68,-310.29 401,-317.26"/>
</a>
</g>
</g>
<!-- Node7 -->
<g id="Node000007" class="node">
<title>Node7</title>
<g id="a_Node000007"><a xlink:href="../../d9/ddd/classlci_1_1reduce__x.html#acbed6deff6c1b0fde5e2bad0252960ec" target="_top" xlink:title=" ">
<polygon fill="white" stroke="#666666" points="533,-290 406,-290 406,-271 533,-271 533,-290"/>
<text text-anchor="middle" x="469.5" y="-278" font-family="Helvetica,sans-Serif" font-size="10.00">lci::reduce_x::endpoint</text>
</a>
</g>
</g>
<!-- Node2&#45;&gt;Node7 -->
<g id="edge25_Node000002_Node000007" class="edge">
<title>Node2&#45;&gt;Node7</title>
<g id="a_edge25_Node000002_Node000007"><a xlink:title=" ">
<path fill="none" stroke="#63b8ff" d="M165.2,-191.21C180.56,-204.56 210.29,-228.33 240,-240.5 289.72,-260.86 349.68,-270.86 395.69,-275.77"/>
<polygon fill="#63b8ff" stroke="#63b8ff" points="395.59,-279.28 405.89,-276.8 396.29,-272.32 395.59,-279.28"/>
</a>
</g>
</g>
<!-- Node8 -->
<g id="Node000008" class="node">
<title>Node8</title>
<g id="a_Node000008"><a xlink:href="../../d9/ddd/classlci_1_1reduce__x.html#abf51eef924cb7e1c771a65fd4dfd1ed4" target="_top" xlink:title=" ">
<polygon fill="white" stroke="#666666" points="535,-253 404,-253 404,-234 535,-234 535,-253"/>
<text text-anchor="middle" x="469.5" y="-241" font-family="Helvetica,sans-Serif" font-size="10.00">lci::reduce_x::item_size</text>
</a>
</g>
</g>
<!-- Node2&#45;&gt;Node8 -->
<g id="edge26_Node000002_Node000008" class="edge">
<title>Node2&#45;&gt;Node8</title>
<g id="a_edge26_Node000002_Node000008"><a xlink:title=" ">
<path fill="none" stroke="#63b8ff" d="M173.68,-191.11C190.68,-199.2 216.4,-210.4 240,-216.5 290.34,-229.52 348.55,-236.28 393.63,-239.78"/>
<polygon fill="#63b8ff" stroke="#63b8ff" points="393.39,-243.27 403.62,-240.52 393.91,-236.29 393.39,-243.27"/>
</a>
</g>
</g>
<!-- Node9 -->
<g id="Node000009" class="node">
<title>Node9</title>
<g id="a_Node000009"><a xlink:href="../../d9/ddd/classlci_1_1reduce__x.html#a338dddedb36c8d70190c84304081b74e" target="_top" xlink:title=" ">
<polygon fill="white" stroke="#666666" points="534.5,-215.5 404.5,-215.5 404.5,-185.5 534.5,-185.5 534.5,-215.5"/>
<text text-anchor="start" x="412.5" y="-203.5" font-family="Helvetica,sans-Serif" font-size="10.00">lci::reduce_x::matching</text>
<text text-anchor="middle" x="469.5" y="-192.5" font-family="Helvetica,sans-Serif" font-size="10.00">_engine</text>
</a>
</g>
</g>
<!-- Node2&#45;&gt;Node9 -->
<g id="edge27_Node000002_Node000009" class="edge">
<title>Node2&#45;&gt;Node9</title>
<g id="a_edge27_Node000002_Node000009"><a xlink:title=" ">
<path fill="none" stroke="#63b8ff" d="M189.15,-191.01C204.59,-194.77 223.07,-198.64 240,-200.5 291.22,-206.12 349.28,-206.04 394.06,-204.59"/>
<polygon fill="#63b8ff" stroke="#63b8ff" points="394.4,-208.08 404.27,-204.23 394.16,-201.09 394.4,-208.08"/>
</a>
</g>
</g>
<!-- Node10 -->
<g id="Node000010" class="node">
<title>Node10</title>
<g id="a_Node000010"><a xlink:href="../../d9/ddd/classlci_1_1reduce__x.html#a318938f15581bf8ebbc9c3f663b9a1d1" target="_top" xlink:title=" ">
<polygon fill="white" stroke="#666666" points="517.5,-167 421.5,-167 421.5,-148 517.5,-148 517.5,-167"/>
<text text-anchor="middle" x="469.5" y="-155" font-family="Helvetica,sans-Serif" font-size="10.00">lci::reduce_x::op</text>
</a>
</g>
</g>
<!-- Node2&#45;&gt;Node10 -->
<g id="edge28_Node000002_Node000010" class="edge">
<title>Node2&#45;&gt;Node10</title>
<g id="a_edge28_Node000002_Node000010"><a xlink:title=" ">
<path fill="none" stroke="#63b8ff" d="M192.56,-171.94C207.28,-168.66 224.33,-165.34 240,-163.5 298.08,-156.68 365,-155.72 411.35,-156.14"/>
<polygon fill="#63b8ff" stroke="#63b8ff" points="411.46,-159.64 421.5,-156.26 411.54,-152.64 411.46,-159.64"/>
</a>
</g>
</g>
<!-- Node11 -->
<g id="Node000011" class="node">
<title>Node11</title>
<g id="a_Node000011"><a xlink:href="../../d9/ddd/classlci_1_1reduce__x.html#a59d4bc702e8e4a3a1a4f66fa8d9c1ba7" target="_top" xlink:title=" ">
<polygon fill="white" stroke="#666666" points="530,-130 409,-130 409,-111 530,-111 530,-130"/>
<text text-anchor="middle" x="469.5" y="-118" font-family="Helvetica,sans-Serif" font-size="10.00">lci::reduce_x::recvbuf</text>
</a>
</g>
</g>
<!-- Node2&#45;&gt;Node11 -->
<g id="edge29_Node000002_Node000011" class="edge">
<title>Node2&#45;&gt;Node11</title>
<g id="a_edge29_Node000002_Node000011"><a xlink:title=" ">
<path fill="none" stroke="#63b8ff" d="M177.7,-171.92C194.69,-165.26 218.43,-156.69 240,-151.5 292.47,-138.87 353.04,-130.95 398.63,-126.28"/>
<polygon fill="#63b8ff" stroke="#63b8ff" points="399.11,-129.75 408.71,-125.27 398.41,-122.78 399.11,-129.75"/>
</a>
</g>
</g>
<!-- Node12 -->
<g id="Node000012" class="node">
<title>Node12</title>
<g id="a_Node000012"><a xlink:href="../../d9/ddd/classlci_1_1reduce__x.html#ae0f4ad61512f89f97f0d5c40cc9d9e43" target="_top" xlink:title=" ">
<polygon fill="white" stroke="#666666" points="521.5,-93 417.5,-93 417.5,-74 521.5,-74 521.5,-93"/>
<text text-anchor="middle" x="469.5" y="-81" font-family="Helvetica,sans-Serif" font-size="10.00">lci::reduce_x::root</text>
</a>
</g>
</g>
<!-- Node2&#45;&gt;Node12 -->
<g id="edge30_Node000002_Node000012" class="edge">
<title>Node2&#45;&gt;Node12</title>
<g id="a_edge30_Node000002_Node000012"><a xlink:title=" ">
<path fill="none" stroke="#63b8ff" d="M165.84,-171.91C181.47,-159.22 211.01,-137.11 240,-125.5 294.25,-103.78 360.27,-93.19 407.37,-88.09"/>
<polygon fill="#63b8ff" stroke="#63b8ff" points="407.84,-91.57 417.42,-87.06 407.12,-84.6 407.84,-91.57"/>
</a>
</g>
</g>
<!-- Node13 -->
<g id="Node000013" class="node">
<title>Node13</title>
<g id="a_Node000013"><a xlink:href="../../d9/ddd/classlci_1_1reduce__x.html#aafae2f2b0fe794ff2bcfe97a0f56d4b8" target="_top" xlink:title=" ">
<polygon fill="white" stroke="#666666" points="530.5,-56 408.5,-56 408.5,-37 530.5,-37 530.5,-56"/>
<text text-anchor="middle" x="469.5" y="-44" font-family="Helvetica,sans-Serif" font-size="10.00">lci::reduce_x::runtime</text>
</a>
</g>
</g>
<!-- Node2&#45;&gt;Node13 -->
<g id="edge31_Node000002_Node000013" class="edge">
<title>Node2&#45;&gt;Node13</title>
<g id="a_edge31_Node000002_Node000013"><a xlink:title=" ">
<path fill="none" stroke="#63b8ff" d="M160.19,-171.99C172.24,-152.76 202.37,-109.28 240,-88.5 288.52,-61.7 350.79,-51.57 398.07,-47.94"/>
<polygon fill="#63b8ff" stroke="#63b8ff" points="398.49,-51.42 408.22,-47.24 398,-44.43 398.49,-51.42"/>
</a>
</g>
</g>
<!-- Node14 -->
<g id="Node000014" class="node">
<title>Node14</title>
<g id="a_Node000014"><a xlink:href="../../d9/ddd/classlci_1_1reduce__x.html#aa7695750263bdcab348971ed16df5dca" target="_top" xlink:title=" ">
<polygon fill="white" stroke="#666666" points="531,-19 408,-19 408,0 531,0 531,-19"/>
<text text-anchor="middle" x="469.5" y="-7" font-family="Helvetica,sans-Serif" font-size="10.00">lci::reduce_x::sendbuf</text>
</a>
</g>
</g>
<!-- Node2&#45;&gt;Node14 -->
<g id="edge32_Node000002_Node000014" class="edge">
<title>Node2&#45;&gt;Node14</title>
<g id="a_edge32_Node000002_Node000014"><a xlink:title=" ">
<path fill="none" stroke="#63b8ff" d="M157.55,-171.66C166.01,-146.21 192.3,-77.98 240,-46.5 286.5,-15.81 349.65,-7.51 397.78,-6.35"/>
<polygon fill="#63b8ff" stroke="#63b8ff" points="397.86,-9.85 407.81,-6.2 397.76,-2.85 397.86,-9.85"/>
</a>
</g>
</g>
<!-- Node3&#45;&gt;Node4 -->
<g id="edge3_Node000003_Node000004" class="edge">
<title>Node3&#45;&gt;Node4</title>
<g id="a_edge3_Node000003_Node000004"><a xlink:title=" ">
<path fill="none" stroke="#63b8ff" d="M308.36,-191.24C318.32,-218.61 350.36,-296.79 404,-336.5 405.86,-337.88 407.82,-339.15 409.86,-340.32"/>
<polygon fill="#63b8ff" stroke="#63b8ff" points="408.64,-343.63 419.17,-344.87 411.72,-337.34 408.64,-343.63"/>
</a>
</g>
</g>
<!-- Node3&#45;&gt;Node6 -->
<g id="edge5_Node000003_Node000006" class="edge">
<title>Node3&#45;&gt;Node6</title>
<g id="a_edge5_Node000003_Node000006"><a xlink:title=" ">
<path fill="none" stroke="#63b8ff" d="M310.3,-191.13C323.21,-213.69 358.59,-270.24 404,-299.5 406.47,-301.09 409.09,-302.55 411.79,-303.88"/>
<polygon fill="#63b8ff" stroke="#63b8ff" points="410.68,-307.21 421.26,-307.92 413.43,-300.77 410.68,-307.21"/>
</a>
</g>
</g>
<!-- Node3&#45;&gt;Node7 -->
<g id="edge7_Node000003_Node000007" class="edge">
<title>Node3&#45;&gt;Node7</title>
<g id="a_edge7_Node000003_Node000007"><a xlink:title=" ">
<path fill="none" stroke="#63b8ff" d="M314.14,-191.27C330.54,-208.23 366.75,-243.16 404,-262.5 407.55,-264.35 411.32,-266.02 415.18,-267.54"/>
<polygon fill="#63b8ff" stroke="#63b8ff" points="414.29,-270.94 424.88,-270.99 416.63,-264.34 414.29,-270.94"/>
</a>
</g>
</g>
<!-- Node3&#45;&gt;Node8 -->
<g id="edge9_Node000003_Node000008" class="edge">
<title>Node3&#45;&gt;Node8</title>
<g id="a_edge9_Node000003_Node000008"><a xlink:title=" ">
<path fill="none" stroke="#63b8ff" d="M325.18,-191.14C344.98,-200.39 376.17,-214.4 404,-224.5 410.12,-226.72 416.64,-228.88 423.09,-230.89"/>
<polygon fill="#63b8ff" stroke="#63b8ff" points="422.51,-234.37 433.1,-233.92 424.54,-227.67 422.51,-234.37"/>
</a>
</g>
</g>
<!-- Node3&#45;&gt;Node9 -->
<g id="edge11_Node000003_Node000009" class="edge">
<title>Node3&#45;&gt;Node9</title>
<g id="a_edge11_Node000003_Node000009"><a xlink:title=" ">
<path fill="none" stroke="#63b8ff" d="M368.21,-188.85C376.74,-189.84 385.55,-190.86 394.24,-191.87"/>
<polygon fill="#63b8ff" stroke="#63b8ff" points="394.04,-195.37 404.38,-193.05 394.85,-188.42 394.04,-195.37"/>
</a>
</g>
</g>
<!-- Node3&#45;&gt;Node10 -->
<g id="edge13_Node000003_Node000010" class="edge">
<title>Node3&#45;&gt;Node10</title>
<g id="a_edge13_Node000003_Node000010"><a xlink:title=" ">
<path fill="none" stroke="#63b8ff" d="M368.21,-172.22C382.46,-170.13 397.5,-167.92 411.47,-165.87"/>
<polygon fill="#63b8ff" stroke="#63b8ff" points="412.05,-169.32 421.43,-164.41 411.03,-162.4 412.05,-169.32"/>
</a>
</g>
</g>
<!-- Node3&#45;&gt;Node11 -->
<g id="edge15_Node000003_Node000011" class="edge">
<title>Node3&#45;&gt;Node11</title>
<g id="a_edge15_Node000003_Node000011"><a xlink:title=" ">
<path fill="none" stroke="#63b8ff" d="M325.58,-171.95C345.42,-162.94 376.4,-149.38 404,-139.5 410.35,-137.23 417.12,-135.01 423.8,-132.94"/>
<polygon fill="#63b8ff" stroke="#63b8ff" points="424.89,-136.27 433.45,-130.03 422.87,-129.57 424.89,-136.27"/>
</a>
</g>
</g>
<!-- Node3&#45;&gt;Node12 -->
<g id="edge17_Node000003_Node000012" class="edge">
<title>Node3&#45;&gt;Node12</title>
<g id="a_edge17_Node000003_Node000012"><a xlink:title=" ">
<path fill="none" stroke="#63b8ff" d="M314.48,-171.78C331.13,-155.25 367.33,-121.59 404,-102.5 408.3,-100.26 412.91,-98.25 417.61,-96.44"/>
<polygon fill="#63b8ff" stroke="#63b8ff" points="419.03,-99.65 427.31,-93.04 416.71,-93.05 419.03,-99.65"/>
</a>
</g>
</g>
<!-- Node3&#45;&gt;Node13 -->
<g id="edge19_Node000003_Node000013" class="edge">
<title>Node3&#45;&gt;Node13</title>
<g id="a_edge19_Node000003_Node000013"><a xlink:title=" ">
<path fill="none" stroke="#63b8ff" d="M310.56,-171.75C323.78,-149.45 359.35,-94.46 404,-65.5 407.17,-63.44 410.58,-61.6 414.1,-59.95"/>
<polygon fill="#63b8ff" stroke="#63b8ff" points="415.72,-63.07 423.64,-56.03 413.06,-56.6 415.72,-63.07"/>
</a>
</g>
</g>
<!-- Node3&#45;&gt;Node14 -->
<g id="edge21_Node000003_Node000014" class="edge">
<title>Node3&#45;&gt;Node14</title>
<g id="a_edge21_Node000003_Node000014"><a xlink:title=" ">
<path fill="none" stroke="#63b8ff" d="M308.43,-171.92C318.56,-145.01 351.02,-68.07 404,-28.5 406.62,-26.54 409.44,-24.79 412.38,-23.21"/>
<polygon fill="#63b8ff" stroke="#63b8ff" points="413.88,-26.37 421.5,-19.01 410.95,-20.02 413.88,-26.37"/>
</a>
</g>
</g>
<!-- Node5 -->
<g id="Node000005" class="node">
<title>Node5</title>
<g id="a_Node000005"><a xlink:href="../../d9/ddd/classlci_1_1reduce__x.html#a276de3f176805fc25e729f53a7081798" target="_top" xlink:title=" ">
<polygon fill="white" stroke="#666666" points="699,-188 571,-188 571,-169 699,-169 699,-188"/>
<text text-anchor="middle" x="635" y="-176" font-family="Helvetica,sans-Serif" font-size="10.00">lci::reduce_x::reduce_x</text>
</a>
</g>
</g>
<!-- Node4&#45;&gt;Node5 -->
<g id="edge4_Node000004_Node000005" class="edge">
<title>Node4&#45;&gt;Node5</title>
<g id="a_edge4_Node000004_Node000005"><a xlink:title=" ">
<path fill="none" stroke="#63b8ff" d="M519.86,-344.91C525.26,-342.67 530.44,-339.91 535,-336.5 584.14,-299.79 614.78,-230.86 627.38,-197.52"/>
<polygon fill="#63b8ff" stroke="#63b8ff" points="630.7,-198.62 630.83,-188.03 624.12,-196.23 630.7,-198.62"/>
</a>
</g>
</g>
<!-- Node6&#45;&gt;Node5 -->
<g id="edge6_Node000006_Node000005" class="edge">
<title>Node6&#45;&gt;Node5</title>
<g id="a_edge6_Node000006_Node000005"><a xlink:title=" ">
<path fill="none" stroke="#63b8ff" d="M517.78,-307.98C523.84,-305.72 529.74,-302.93 535,-299.5 576.08,-272.66 608.52,-223.38 624.03,-196.74"/>
<polygon fill="#63b8ff" stroke="#63b8ff" points="627.07,-198.46 628.96,-188.04 620.98,-195.01 627.07,-198.46"/>
</a>
</g>
</g>
<!-- Node7&#45;&gt;Node5 -->
<g id="edge8_Node000007_Node000005" class="edge">
<title>Node7&#45;&gt;Node5</title>
<g id="a_edge8_Node000007_Node000005"><a xlink:title=" ">
<path fill="none" stroke="#63b8ff" d="M514.51,-270.98C521.57,-268.68 528.63,-265.88 535,-262.5 568.28,-244.84 600.3,-214.44 618.52,-195.46"/>
<polygon fill="#63b8ff" stroke="#63b8ff" points="621.15,-197.77 625.45,-188.09 616.05,-192.98 621.15,-197.77"/>
</a>
</g>
</g>
<!-- Node8&#45;&gt;Node5 -->
<g id="edge10_Node000008_Node000005" class="edge">
<title>Node8&#45;&gt;Node5</title>
<g id="a_edge10_Node000008_Node000005"><a xlink:title=" ">
<path fill="none" stroke="#63b8ff" d="M506.3,-233.98C515.73,-231.2 525.83,-227.96 535,-224.5 559.69,-215.19 586.8,-202.4 606.4,-192.67"/>
<polygon fill="#63b8ff" stroke="#63b8ff" points="608.01,-195.78 615.38,-188.17 604.87,-189.52 608.01,-195.78"/>
</a>
</g>
</g>
<!-- Node9&#45;&gt;Node5 -->
<g id="edge12_Node000009_Node000005" class="edge">
<title>Node9&#45;&gt;Node5</title>
<g id="a_edge12_Node000009_Node000005"><a xlink:title=" ">
<path fill="none" stroke="#63b8ff" d="M534.65,-191.87C543.2,-190.72 552.02,-189.53 560.72,-188.36"/>
<polygon fill="#63b8ff" stroke="#63b8ff" points="561.39,-191.8 570.84,-187 560.46,-184.86 561.39,-191.8"/>
</a>
</g>
</g>
<!-- Node10&#45;&gt;Node5 -->
<g id="edge14_Node000010_Node000005" class="edge">
<title>Node10&#45;&gt;Node5</title>
<g id="a_edge14_Node000010_Node000005"><a xlink:title=" ">
<path fill="none" stroke="#63b8ff" d="M517.79,-163.57C531.28,-165.31 546.3,-167.24 560.94,-169.12"/>
<polygon fill="#63b8ff" stroke="#63b8ff" points="560.63,-172.6 570.99,-170.41 561.52,-165.66 560.63,-172.6"/>
</a>
</g>
</g>
<!-- Node11&#45;&gt;Node5 -->
<g id="edge16_Node000011_Node000005" class="edge">
<title>Node11&#45;&gt;Node5</title>
<g id="a_edge16_Node000011_Node000005"><a xlink:title=" ">
<path fill="none" stroke="#63b8ff" d="M505.16,-130.09C514.87,-132.95 525.39,-136.2 535,-139.5 557.61,-147.27 582.67,-157.15 601.92,-165.02"/>
<polygon fill="#63b8ff" stroke="#63b8ff" points="600.83,-168.36 611.41,-168.94 603.5,-161.89 600.83,-168.36"/>
</a>
</g>
</g>
<!-- Node12&#45;&gt;Node5 -->
<g id="edge18_Node000012_Node000005" class="edge">
<title>Node12&#45;&gt;Node5</title>
<g id="a_edge18_Node000012_Node000005"><a xlink:title=" ">
<path fill="none" stroke="#63b8ff" d="M511.29,-93.04C519.36,-95.61 527.61,-98.74 535,-102.5 566.46,-118.5 597.97,-144.91 616.72,-162"/>
<polygon fill="#63b8ff" stroke="#63b8ff" points="614.46,-164.68 624.17,-168.92 619.22,-159.55 614.46,-164.68"/>
</a>
</g>
</g>
<!-- Node13&#45;&gt;Node5 -->
<g id="edge20_Node000013_Node000005" class="edge">
<title>Node13&#45;&gt;Node5</title>
<g id="a_edge20_Node000013_Node000005"><a xlink:title=" ">
<path fill="none" stroke="#63b8ff" d="M515.32,-56.1C522.2,-58.58 529,-61.66 535,-65.5 573.97,-90.42 606.46,-135.04 622.74,-160.11"/>
<polygon fill="#63b8ff" stroke="#63b8ff" points="619.86,-162.1 628.17,-168.68 625.78,-158.36 619.86,-162.1"/>
</a>
</g>
</g>
<!-- Node14&#45;&gt;Node5 -->
<g id="edge22_Node000014_Node000005" class="edge">
<title>Node14&#45;&gt;Node5</title>
<g id="a_edge22_Node000014_Node000005"><a xlink:title=" ">
<path fill="none" stroke="#63b8ff" d="M517.47,-19.05C523.7,-21.52 529.74,-24.61 535,-28.5 581.88,-63.18 613.07,-127.16 626.5,-159.18"/>
<polygon fill="#63b8ff" stroke="#63b8ff" points="623.37,-160.78 630.37,-168.73 629.85,-158.15 623.37,-160.78"/>
</a>
</g>
</g>
</g>
</svg>
