<?xml version="1.0" encoding="UTF-8" standalone="no"?>
<!DOCTYPE svg PUBLIC "-//W3C//DTD SVG 1.1//EN"
 "http://www.w3.org/Graphics/SVG/1.1/DTD/svg11.dtd">
<!-- Generated by graphviz version 2.43.0 (0)
 -->
<!-- Title: lci::counter_get Pages: 1 -->
<svg width="656pt" height="86pt"
 viewBox="0.00 0.00 656.00 86.00" xmlns="http://www.w3.org/2000/svg" xmlns:xlink="http://www.w3.org/1999/xlink">
<g id="graph0" class="graph" transform="scale(1 1) rotate(0) translate(4 82)">
<title>lci::counter_get</title>
<!-- Node1 -->
<g id="Node000001" class="node">
<title>Node1</title>
<g id="a_Node000001"><a xlink:title=" ">
<polygon fill="#999999" stroke="#666666" points="92,-48.5 0,-48.5 0,-29.5 92,-29.5 92,-48.5"/>
<text text-anchor="middle" x="46" y="-36.5" font-family="Helvetica,sans-Serif" font-size="10.00">lci::counter_get</text>
</a>
</g>
</g>
<!-- Node2 -->
<g id="Node000002" class="node">
<title>Node2</title>
<g id="a_Node000002"><a xlink:href="../../d4/d46/classlci_1_1counter__get__x.html#a92428f54dd0b7041c7c1c0fa82ef4647" target="_top" xlink:title=" ">
<polygon fill="white" stroke="#666666" points="231,-54 128,-54 128,-24 231,-24 231,-54"/>
<text text-anchor="start" x="136" y="-42" font-family="Helvetica,sans-Serif" font-size="10.00">lci::counter_get_x</text>
<text text-anchor="middle" x="179.5" y="-31" font-family="Helvetica,sans-Serif" font-size="10.00">::call</text>
</a>
</g>
</g>
<!-- Node1&#45;&gt;Node2 -->
<g id="edge1_Node000001_Node000002" class="edge">
<title>Node1&#45;&gt;Node2</title>
<g id="a_edge1_Node000001_Node000002"><a xlink:title=" ">
<path fill="none" stroke="#63b8ff" d="M92.25,-39C100.39,-39 108.99,-39 117.48,-39"/>
<polygon fill="#63b8ff" stroke="#63b8ff" points="117.75,-42.5 127.75,-39 117.75,-35.5 117.75,-42.5"/>
</a>
</g>
</g>
<!-- Node3 -->
<g id="Node000003" class="node">
<title>Node3</title>
<g id="a_Node000003"><a xlink:href="../../d4/d46/classlci_1_1counter__get__x.html#a2b9855b3396ce43f7d9cb1b826ece3b0" target="_top" xlink:title=" ">
<polygon fill="white" stroke="#666666" points="370,-54 267,-54 267,-24 370,-24 370,-54"/>
<text text-anchor="start" x="275" y="-42" font-family="Helvetica,sans-Serif" font-size="10.00">lci::counter_get_x</text>
<text text-anchor="middle" x="318.5" y="-31" font-family="Helvetica,sans-Serif" font-size="10.00">::call_impl</text>
</a>
</g>
</g>
<!-- Node2&#45;&gt;Node3 -->
<g id="edge2_Node000002_Node000003" class="edge">
<title>Node2&#45;&gt;Node3</title>
<g id="a_edge2_Node000002_Node000003"><a xlink:title=" ">
<path fill="none" stroke="#63b8ff" d="M231.12,-39C239.36,-39 247.97,-39 256.42,-39"/>
<polygon fill="#63b8ff" stroke="#63b8ff" points="256.63,-42.5 266.63,-39 256.63,-35.5 256.63,-42.5"/>
</a>
</g>
</g>
<!-- Node4 -->
<g id="Node000004" class="node">
<title>Node4</title>
<g id="a_Node000004"><a xlink:href="../../d4/d46/classlci_1_1counter__get__x.html#afaa2174ec09f060606046aa8c5d59053" target="_top" xlink:title=" ">
<polygon fill="white" stroke="#666666" points="509,-78 406,-78 406,-48 509,-48 509,-78"/>
<text text-anchor="start" x="414" y="-66" font-family="Helvetica,sans-Serif" font-size="10.00">lci::counter_get_x</text>
<text text-anchor="middle" x="457.5" y="-55" font-family="Helvetica,sans-Serif" font-size="10.00">::comp</text>
</a>
</g>
</g>
<!-- Node2&#45;&gt;Node4 -->
<g id="edge7_Node000002_Node000004" class="edge">
<title>Node2&#45;&gt;Node4</title>
<g id="a_edge7_Node000002_Node000004"><a xlink:title=" ">
<path fill="none" stroke="#63b8ff" d="M225.81,-54.05C238.94,-57.74 253.41,-61.15 267,-63 309.76,-68.82 358.45,-68.68 395.77,-67.15"/>
<polygon fill="#63b8ff" stroke="#63b8ff" points="396.15,-70.64 405.98,-66.69 395.83,-63.65 396.15,-70.64"/>
</a>
</g>
</g>
<!-- Node6 -->
<g id="Node000006" class="node">
<title>Node6</title>
<g id="a_Node000006"><a xlink:href="../../d4/d46/classlci_1_1counter__get__x.html#aa94cdfeb52477e195e6a445227467a76" target="_top" xlink:title=" ">
<polygon fill="white" stroke="#666666" points="509,-30 406,-30 406,0 509,0 509,-30"/>
<text text-anchor="start" x="414" y="-18" font-family="Helvetica,sans-Serif" font-size="10.00">lci::counter_get_x</text>
<text text-anchor="middle" x="457.5" y="-7" font-family="Helvetica,sans-Serif" font-size="10.00">::runtime</text>
</a>
</g>
</g>
<!-- Node2&#45;&gt;Node6 -->
<g id="edge8_Node000002_Node000006" class="edge">
<title>Node2&#45;&gt;Node6</title>
<g id="a_edge8_Node000002_Node000006"><a xlink:title=" ">
<path fill="none" stroke="#63b8ff" d="M225.81,-23.95C238.94,-20.26 253.41,-16.85 267,-15 309.76,-9.18 358.45,-9.32 395.77,-10.85"/>
<polygon fill="#63b8ff" stroke="#63b8ff" points="395.83,-14.35 405.98,-11.31 396.15,-7.36 395.83,-14.35"/>
</a>
</g>
</g>
<!-- Node3&#45;&gt;Node4 -->
<g id="edge3_Node000003_Node000004" class="edge">
<title>Node3&#45;&gt;Node4</title>
<g id="a_edge3_Node000003_Node000004"><a xlink:title=" ">
<path fill="none" stroke="#63b8ff" d="M370.12,-47.87C378.45,-49.33 387.16,-50.85 395.7,-52.35"/>
<polygon fill="#63b8ff" stroke="#63b8ff" points="395.17,-55.81 405.63,-54.09 396.38,-48.91 395.17,-55.81"/>
</a>
</g>
</g>
<!-- Node3&#45;&gt;Node6 -->
<g id="edge5_Node000003_Node000006" class="edge">
<title>Node3&#45;&gt;Node6</title>
<g id="a_edge5_Node000003_Node000006"><a xlink:title=" ">
<path fill="none" stroke="#63b8ff" d="M370.12,-30.13C378.45,-28.67 387.16,-27.15 395.7,-25.65"/>
<polygon fill="#63b8ff" stroke="#63b8ff" points="396.38,-29.09 405.63,-23.91 395.17,-22.19 396.38,-29.09"/>
</a>
</g>
</g>
<!-- Node5 -->
<g id="Node000005" class="node">
<title>Node5</title>
<g id="a_Node000005"><a xlink:href="../../d4/d46/classlci_1_1counter__get__x.html#a8c0145a82621d6519282ccb9fb977d71" target="_top" xlink:title=" ">
<polygon fill="white" stroke="#666666" points="648,-54 545,-54 545,-24 648,-24 648,-54"/>
<text text-anchor="start" x="553" y="-42" font-family="Helvetica,sans-Serif" font-size="10.00">lci::counter_get_x</text>
<text text-anchor="middle" x="596.5" y="-31" font-family="Helvetica,sans-Serif" font-size="10.00">::counter_get_x</text>
</a>
</g>
</g>
<!-- Node4&#45;&gt;Node5 -->
<g id="edge4_Node000004_Node000005" class="edge">
<title>Node4&#45;&gt;Node5</title>
<g id="a_edge4_Node000004_Node000005"><a xlink:title=" ">
<path fill="none" stroke="#63b8ff" d="M509.12,-54.13C517.45,-52.67 526.16,-51.15 534.7,-49.65"/>
<polygon fill="#63b8ff" stroke="#63b8ff" points="535.38,-53.09 544.63,-47.91 534.17,-46.19 535.38,-53.09"/>
</a>
</g>
</g>
<!-- Node6&#45;&gt;Node5 -->
<g id="edge6_Node000006_Node000005" class="edge">
<title>Node6&#45;&gt;Node5</title>
<g id="a_edge6_Node000006_Node000005"><a xlink:title=" ">
<path fill="none" stroke="#63b8ff" d="M509.12,-23.87C517.45,-25.33 526.16,-26.85 534.7,-28.35"/>
<polygon fill="#63b8ff" stroke="#63b8ff" points="534.17,-31.81 544.63,-30.09 535.38,-24.91 534.17,-31.81"/>
</a>
</g>
</g>
</g>
</svg>
