<?xml version="1.0" encoding="UTF-8" standalone="no"?>
<!DOCTYPE svg PUBLIC "-//W3C//DTD SVG 1.1//EN"
 "http://www.w3.org/Graphics/SVG/1.1/DTD/svg11.dtd">
<!-- Generated by graphviz version 2.43.0 (0)
 -->
<!-- Title: lci::alloc_runtime Pages: 1 -->
<svg width="738pt" height="407pt"
 viewBox="0.00 0.00 738.00 406.50" xmlns="http://www.w3.org/2000/svg" xmlns:xlink="http://www.w3.org/1999/xlink">
<g id="graph0" class="graph" transform="scale(1 1) rotate(0) translate(4 402.5)">
<title>lci::alloc_runtime</title>
<!-- Node1 -->
<g id="Node000001" class="node">
<title>Node1</title>
<g id="a_Node000001"><a xlink:title=" ">
<polygon fill="#999999" stroke="#666666" points="101,-192 0,-192 0,-173 101,-173 101,-192"/>
<text text-anchor="middle" x="50.5" y="-180" font-family="Helvetica,sans-Serif" font-size="10.00">lci::alloc_runtime</text>
</a>
</g>
</g>
<!-- Node2 -->
<g id="Node000002" class="node">
<title>Node2</title>
<g id="a_Node000002"><a xlink:href="../../d4/d5c/classlci_1_1alloc__runtime__x.html#a37daf1686fc2ea110af2470457aa2455" target="_top" xlink:title=" ">
<polygon fill="white" stroke="#666666" points="238,-197.5 137,-197.5 137,-167.5 238,-167.5 238,-197.5"/>
<text text-anchor="start" x="145" y="-185.5" font-family="Helvetica,sans-Serif" font-size="10.00">lci::alloc_runtime</text>
<text text-anchor="middle" x="187.5" y="-174.5" font-family="Helvetica,sans-Serif" font-size="10.00">_x::call</text>
</a>
</g>
</g>
<!-- Node1&#45;&gt;Node2 -->
<g id="edge1_Node000001_Node000002" class="edge">
<title>Node1&#45;&gt;Node2</title>
<g id="a_edge1_Node000001_Node000002"><a xlink:title=" ">
<path fill="none" stroke="#63b8ff" d="M101,-182.5C109.24,-182.5 117.87,-182.5 126.34,-182.5"/>
<polygon fill="#63b8ff" stroke="#63b8ff" points="126.55,-186 136.55,-182.5 126.55,-179 126.55,-186"/>
</a>
</g>
</g>
<!-- Node3 -->
<g id="Node000003" class="node">
<title>Node3</title>
<g id="a_Node000003"><a xlink:href="../../d4/d5c/classlci_1_1alloc__runtime__x.html#a6b7476a4eed1ff2a53f98adfd29bbce6" target="_top" xlink:title=" ">
<polygon fill="white" stroke="#666666" points="568.5,-398.5 434.5,-398.5 434.5,-368.5 568.5,-368.5 568.5,-398.5"/>
<text text-anchor="start" x="442.5" y="-386.5" font-family="Helvetica,sans-Serif" font-size="10.00">lci::alloc_runtime</text>
<text text-anchor="middle" x="501.5" y="-375.5" font-family="Helvetica,sans-Serif" font-size="10.00">_x::alloc_default_device</text>
</a>
</g>
</g>
<!-- Node2&#45;&gt;Node3 -->
<g id="edge2_Node000002_Node000003" class="edge">
<title>Node2&#45;&gt;Node3</title>
<g id="a_edge2_Node000002_Node000003"><a xlink:title=" ">
<path fill="none" stroke="#63b8ff" d="M195.15,-197.75C207.2,-223.68 235.06,-276.49 274,-306.5 317.84,-340.29 377.42,-359.76 424.47,-370.67"/>
<polygon fill="#63b8ff" stroke="#63b8ff" points="423.79,-374.11 434.31,-372.87 425.31,-367.28 423.79,-374.11"/>
</a>
</g>
</g>
<!-- Node5 -->
<g id="Node000005" class="node">
<title>Node5</title>
<g id="a_Node000005"><a xlink:href="../../d4/d5c/classlci_1_1alloc__runtime__x.html#a616c5f548d9dd3c5da745a2292f4cfb7" target="_top" xlink:title=" ">
<polygon fill="white" stroke="#666666" points="575.5,-350 427.5,-350 427.5,-309 575.5,-309 575.5,-350"/>
<text text-anchor="start" x="435.5" y="-338" font-family="Helvetica,sans-Serif" font-size="10.00">lci::alloc_runtime</text>
<text text-anchor="start" x="435.5" y="-327" font-family="Helvetica,sans-Serif" font-size="10.00">_x::alloc_default_matching</text>
<text text-anchor="middle" x="501.5" y="-316" font-family="Helvetica,sans-Serif" font-size="10.00">_engine</text>
</a>
</g>
</g>
<!-- Node2&#45;&gt;Node5 -->
<g id="edge4_Node000002_Node000005" class="edge">
<title>Node2&#45;&gt;Node5</title>
<g id="a_edge4_Node000002_Node000005"><a xlink:title=" ">
<path fill="none" stroke="#63b8ff" d="M198.44,-197.61C212.69,-218.04 240.88,-254.12 274,-273.5 317.63,-299.03 372.56,-312.98 417.4,-320.57"/>
<polygon fill="#63b8ff" stroke="#63b8ff" points="416.95,-324.05 427.39,-322.19 418.07,-317.14 416.95,-324.05"/>
</a>
</g>
</g>
<!-- Node6 -->
<g id="Node000006" class="node">
<title>Node6</title>
<g id="a_Node000006"><a xlink:href="../../d4/d5c/classlci_1_1alloc__runtime__x.html#a3fa440edec4465125be1e82bd94ef588" target="_top" xlink:title=" ">
<polygon fill="white" stroke="#666666" points="582,-290.5 421,-290.5 421,-260.5 582,-260.5 582,-290.5"/>
<text text-anchor="start" x="429" y="-278.5" font-family="Helvetica,sans-Serif" font-size="10.00">lci::alloc_runtime</text>
<text text-anchor="middle" x="501.5" y="-267.5" font-family="Helvetica,sans-Serif" font-size="10.00">_x::alloc_default_packet_pool</text>
</a>
</g>
</g>
<!-- Node2&#45;&gt;Node6 -->
<g id="edge6_Node000002_Node000006" class="edge">
<title>Node2&#45;&gt;Node6</title>
<g id="a_edge6_Node000002_Node000006"><a xlink:title=" ">
<path fill="none" stroke="#63b8ff" d="M203.3,-197.75C219.21,-213.11 246.02,-236.11 274,-247.5 316.98,-264.99 368.04,-272.34 410.79,-275.16"/>
<polygon fill="#63b8ff" stroke="#63b8ff" points="410.71,-278.66 420.9,-275.76 411.12,-271.68 410.71,-278.66"/>
</a>
</g>
</g>
<!-- Node7 -->
<g id="Node000007" class="node">
<title>Node7</title>
<g id="a_Node000007"><a xlink:href="../../d4/d5c/classlci_1_1alloc__runtime__x.html#ab3eee28cace86873b5cd6a177d953b86" target="_top" xlink:title=" ">
<polygon fill="white" stroke="#666666" points="380,-219.5 279,-219.5 279,-189.5 380,-189.5 380,-219.5"/>
<text text-anchor="start" x="287" y="-207.5" font-family="Helvetica,sans-Serif" font-size="10.00">lci::alloc_runtime</text>
<text text-anchor="middle" x="329.5" y="-196.5" font-family="Helvetica,sans-Serif" font-size="10.00">_x::call_impl</text>
</a>
</g>
</g>
<!-- Node2&#45;&gt;Node7 -->
<g id="edge8_Node000002_Node000007" class="edge">
<title>Node2&#45;&gt;Node7</title>
<g id="a_edge8_Node000002_Node000007"><a xlink:title=" ">
<path fill="none" stroke="#63b8ff" d="M238.25,-190.32C248.16,-191.87 258.65,-193.52 268.85,-195.13"/>
<polygon fill="#63b8ff" stroke="#63b8ff" points="268.49,-198.61 278.91,-196.71 269.57,-191.7 268.49,-198.61"/>
</a>
</g>
</g>
<!-- Node8 -->
<g id="Node000008" class="node">
<title>Node8</title>
<g id="a_Node000008"><a xlink:href="../../d4/d5c/classlci_1_1alloc__runtime__x.html#a07a500a193d6a0cdc690619a79d56162" target="_top" xlink:title=" ">
<polygon fill="white" stroke="#666666" points="562.5,-242.5 440.5,-242.5 440.5,-212.5 562.5,-212.5 562.5,-242.5"/>
<text text-anchor="start" x="448.5" y="-230.5" font-family="Helvetica,sans-Serif" font-size="10.00">lci::alloc_runtime</text>
<text text-anchor="middle" x="501.5" y="-219.5" font-family="Helvetica,sans-Serif" font-size="10.00">_x::imm_nbits_rcomp</text>
</a>
</g>
</g>
<!-- Node2&#45;&gt;Node8 -->
<g id="edge23_Node000002_Node000008" class="edge">
<title>Node2&#45;&gt;Node8</title>
<g id="a_edge23_Node000002_Node000008"><a xlink:title=" ">
<path fill="none" stroke="#63b8ff" d="M209.42,-197.58C226.02,-208.56 250.3,-222.53 274,-228.5 325.23,-241.41 385.06,-240.49 430.37,-236.71"/>
<polygon fill="#63b8ff" stroke="#63b8ff" points="430.74,-240.19 440.38,-235.8 430.11,-233.22 430.74,-240.19"/>
</a>
</g>
</g>
<!-- Node9 -->
<g id="Node000009" class="node">
<title>Node9</title>
<g id="a_Node000009"><a xlink:href="../../d4/d5c/classlci_1_1alloc__runtime__x.html#a00ed631363e3dab1d966be0197724877" target="_top" xlink:title=" ">
<polygon fill="white" stroke="#666666" points="555,-194.5 448,-194.5 448,-164.5 555,-164.5 555,-194.5"/>
<text text-anchor="start" x="456" y="-182.5" font-family="Helvetica,sans-Serif" font-size="10.00">lci::alloc_runtime</text>
<text text-anchor="middle" x="501.5" y="-171.5" font-family="Helvetica,sans-Serif" font-size="10.00">_x::imm_nbits_tag</text>
</a>
</g>
</g>
<!-- Node2&#45;&gt;Node9 -->
<g id="edge24_Node000002_Node000009" class="edge">
<title>Node2&#45;&gt;Node9</title>
<g id="a_edge24_Node000002_Node000009"><a xlink:title=" ">
<path fill="none" stroke="#63b8ff" d="M238.23,-181.18C249.96,-180.91 262.42,-180.66 274,-180.5 329.38,-179.73 392.38,-179.5 437.86,-179.46"/>
<polygon fill="#63b8ff" stroke="#63b8ff" points="437.87,-182.96 447.87,-179.45 437.86,-175.96 437.87,-182.96"/>
</a>
</g>
</g>
<!-- Node10 -->
<g id="Node000010" class="node">
<title>Node10</title>
<g id="a_Node000010"><a xlink:href="../../d4/d5c/classlci_1_1alloc__runtime__x.html#a26b1954bfc37c38448b319e074f709fd" target="_top" xlink:title=" ">
<polygon fill="white" stroke="#666666" points="552,-146.5 451,-146.5 451,-116.5 552,-116.5 552,-146.5"/>
<text text-anchor="start" x="459" y="-134.5" font-family="Helvetica,sans-Serif" font-size="10.00">lci::alloc_runtime</text>
<text text-anchor="middle" x="501.5" y="-123.5" font-family="Helvetica,sans-Serif" font-size="10.00">_x::name</text>
</a>
</g>
</g>
<!-- Node2&#45;&gt;Node10 -->
<g id="edge25_Node000002_Node000010" class="edge">
<title>Node2&#45;&gt;Node10</title>
<g id="a_edge25_Node000002_Node000010"><a xlink:title=" ">
<path fill="none" stroke="#63b8ff" d="M238.28,-174.36C293.42,-165.35 382.26,-150.83 441.01,-141.22"/>
<polygon fill="#63b8ff" stroke="#63b8ff" points="441.59,-144.68 450.9,-139.61 440.46,-137.77 441.59,-144.68"/>
</a>
</g>
</g>
<!-- Node11 -->
<g id="Node000011" class="node">
<title>Node11</title>
<g id="a_Node000011"><a xlink:href="../../d4/d5c/classlci_1_1alloc__runtime__x.html#a921ab7268efe6f74cdb024e8b699c804" target="_top" xlink:title=" ">
<polygon fill="white" stroke="#666666" points="577.5,-98.5 425.5,-98.5 425.5,-68.5 577.5,-68.5 577.5,-98.5"/>
<text text-anchor="start" x="433.5" y="-86.5" font-family="Helvetica,sans-Serif" font-size="10.00">lci::alloc_runtime</text>
<text text-anchor="middle" x="501.5" y="-75.5" font-family="Helvetica,sans-Serif" font-size="10.00">_x::packet_return_threshold</text>
</a>
</g>
</g>
<!-- Node2&#45;&gt;Node11 -->
<g id="edge26_Node000002_Node000011" class="edge">
<title>Node2&#45;&gt;Node11</title>
<g id="a_edge26_Node000002_Node000011"><a xlink:title=" ">
<path fill="none" stroke="#63b8ff" d="M221.41,-167.49C237.15,-160.61 256.36,-152.64 274,-146.5 324.89,-128.79 383.53,-112.59 428.39,-101.06"/>
<polygon fill="#63b8ff" stroke="#63b8ff" points="429.5,-104.38 438.32,-98.52 427.77,-97.6 429.5,-104.38"/>
</a>
</g>
</g>
<!-- Node12 -->
<g id="Node000012" class="node">
<title>Node12</title>
<g id="a_Node000012"><a xlink:href="../../d4/d5c/classlci_1_1alloc__runtime__x.html#ab0541b4242b9721143c68b40ae16654d" target="_top" xlink:title=" ">
<polygon fill="white" stroke="#666666" points="552,-50.5 451,-50.5 451,-20.5 552,-20.5 552,-50.5"/>
<text text-anchor="start" x="459" y="-38.5" font-family="Helvetica,sans-Serif" font-size="10.00">lci::alloc_runtime</text>
<text text-anchor="middle" x="501.5" y="-27.5" font-family="Helvetica,sans-Serif" font-size="10.00">_x::user_context</text>
</a>
</g>
</g>
<!-- Node2&#45;&gt;Node12 -->
<g id="edge27_Node000002_Node000012" class="edge">
<title>Node2&#45;&gt;Node12</title>
<g id="a_edge27_Node000002_Node000012"><a xlink:title=" ">
<path fill="none" stroke="#63b8ff" d="M202.27,-167.47C218.14,-150.95 245.68,-124.62 274,-108.5 326.79,-78.44 393.66,-58.83 441.02,-47.58"/>
<polygon fill="#63b8ff" stroke="#63b8ff" points="441.87,-50.98 450.82,-45.31 440.29,-44.16 441.87,-50.98"/>
</a>
</g>
</g>
<!-- Node13 -->
<g id="Node000013" class="node">
<title>Node13</title>
<g id="a_Node000013"><a xlink:href="../../d8/d33/group__LCI__BASIC.html#ga36d0ced682287237e138b1153b490e53" target="_top" xlink:title="Global initialization for LCI, including rank_me, rank_n, and g_default_attr.">
<polygon fill="white" stroke="#666666" points="385,-19 274,-19 274,0 385,0 385,-19"/>
<text text-anchor="middle" x="329.5" y="-7" font-family="Helvetica,sans-Serif" font-size="10.00">lci::global_initialize</text>
</a>
</g>
</g>
<!-- Node2&#45;&gt;Node13 -->
<g id="edge22_Node000002_Node000013" class="edge">
<title>Node2&#45;&gt;Node13</title>
<g id="a_edge22_Node000002_Node000013"><a xlink:title=" ">
<path fill="none" stroke="#63b8ff" d="M193.54,-167.32C204.06,-137.81 230.97,-72.18 274,-33.5 278.23,-29.7 283.16,-26.42 288.29,-23.62"/>
<polygon fill="#63b8ff" stroke="#63b8ff" points="290.17,-26.6 297.63,-19.08 287.11,-20.3 290.17,-26.6"/>
</a>
</g>
</g>
<!-- Node4 -->
<g id="Node000004" class="node">
<title>Node4</title>
<g id="a_Node000004"><a xlink:href="../../d4/d5c/classlci_1_1alloc__runtime__x.html#a4e4d9b2a0c1eb72a1a9b594414a6f026" target="_top" xlink:title=" ">
<polygon fill="white" stroke="#666666" points="730,-218.5 618,-218.5 618,-188.5 730,-188.5 730,-218.5"/>
<text text-anchor="start" x="626" y="-206.5" font-family="Helvetica,sans-Serif" font-size="10.00">lci::alloc_runtime</text>
<text text-anchor="middle" x="674" y="-195.5" font-family="Helvetica,sans-Serif" font-size="10.00">_x::alloc_runtime_x</text>
</a>
</g>
</g>
<!-- Node3&#45;&gt;Node4 -->
<g id="edge3_Node000003_Node000004" class="edge">
<title>Node3&#45;&gt;Node4</title>
<g id="a_edge3_Node000003_Node000004"><a xlink:title=" ">
<path fill="none" stroke="#63b8ff" d="M567.91,-368.31C572.92,-365.81 577.7,-362.89 582,-359.5 625.72,-325 652.58,-263.28 664.93,-228.71"/>
<polygon fill="#63b8ff" stroke="#63b8ff" points="668.36,-229.51 668.3,-218.92 661.74,-227.24 668.36,-229.51"/>
</a>
</g>
</g>
<!-- Node5&#45;&gt;Node4 -->
<g id="edge5_Node000005_Node000004" class="edge">
<title>Node5&#45;&gt;Node4</title>
<g id="a_edge5_Node000005_Node000004"><a xlink:title=" ">
<path fill="none" stroke="#63b8ff" d="M565.46,-308.85C571.23,-306.04 576.84,-302.93 582,-299.5 612.06,-279.53 639.5,-247.9 656.22,-226.46"/>
<polygon fill="#63b8ff" stroke="#63b8ff" points="659,-228.58 662.29,-218.5 653.44,-224.33 659,-228.58"/>
</a>
</g>
</g>
<!-- Node6&#45;&gt;Node4 -->
<g id="edge7_Node000006_Node000004" class="edge">
<title>Node6&#45;&gt;Node4</title>
<g id="a_edge7_Node000006_Node000004"><a xlink:title=" ">
<path fill="none" stroke="#63b8ff" d="M557.3,-260.47C565.67,-257.74 574.13,-254.73 582,-251.5 601.38,-243.55 622.1,-232.81 638.87,-223.5"/>
<polygon fill="#63b8ff" stroke="#63b8ff" points="640.75,-226.46 647.74,-218.51 637.31,-220.36 640.75,-226.46"/>
</a>
</g>
</g>
<!-- Node7&#45;&gt;Node3 -->
<g id="edge9_Node000007_Node000003" class="edge">
<title>Node7&#45;&gt;Node3</title>
<g id="a_edge9_Node000007_Node000003"><a xlink:title=" ">
<path fill="none" stroke="#63b8ff" d="M335.18,-219.82C345.47,-250.91 373.04,-321.68 421,-359.5 422.61,-360.77 424.29,-361.98 426.03,-363.12"/>
<polygon fill="#63b8ff" stroke="#63b8ff" points="424.68,-366.38 435.09,-368.31 428.15,-360.3 424.68,-366.38"/>
</a>
</g>
</g>
<!-- Node7&#45;&gt;Node5 -->
<g id="edge10_Node000007_Node000005" class="edge">
<title>Node7&#45;&gt;Node5</title>
<g id="a_edge10_Node000007_Node000005"><a xlink:title=" ">
<path fill="none" stroke="#63b8ff" d="M341.43,-219.69C356.99,-240.34 387.39,-277.23 421,-299.5 423.42,-301.1 425.94,-302.64 428.53,-304.11"/>
<polygon fill="#63b8ff" stroke="#63b8ff" points="427.06,-307.29 437.54,-308.83 430.31,-301.09 427.06,-307.29"/>
</a>
</g>
</g>
<!-- Node7&#45;&gt;Node6 -->
<g id="edge11_Node000007_Node000006" class="edge">
<title>Node7&#45;&gt;Node6</title>
<g id="a_edge11_Node000007_Node000006"><a xlink:title=" ">
<path fill="none" stroke="#63b8ff" d="M356.42,-219.6C374.19,-229.55 398.53,-242.37 421,-251.5 425.8,-253.45 430.82,-255.33 435.91,-257.11"/>
<polygon fill="#63b8ff" stroke="#63b8ff" points="435.13,-260.54 445.72,-260.43 437.37,-253.91 435.13,-260.54"/>
</a>
</g>
</g>
<!-- Node7&#45;&gt;Node8 -->
<g id="edge12_Node000007_Node000008" class="edge">
<title>Node7&#45;&gt;Node8</title>
<g id="a_edge12_Node000007_Node000008"><a xlink:title=" ">
<path fill="none" stroke="#63b8ff" d="M380.13,-211.21C395.71,-213.32 413.22,-215.69 429.97,-217.96"/>
<polygon fill="#63b8ff" stroke="#63b8ff" points="429.89,-221.48 440.27,-219.35 430.82,-214.54 429.89,-221.48"/>
</a>
</g>
</g>
<!-- Node7&#45;&gt;Node9 -->
<g id="edge14_Node000007_Node000009" class="edge">
<title>Node7&#45;&gt;Node9</title>
<g id="a_edge14_Node000007_Node000009"><a xlink:title=" ">
<path fill="none" stroke="#63b8ff" d="M380.13,-197.2C398.15,-194.55 418.77,-191.52 437.78,-188.72"/>
<polygon fill="#63b8ff" stroke="#63b8ff" points="438.46,-192.16 447.85,-187.24 437.44,-185.24 438.46,-192.16"/>
</a>
</g>
</g>
<!-- Node7&#45;&gt;Node10 -->
<g id="edge16_Node000007_Node000010" class="edge">
<title>Node7&#45;&gt;Node10</title>
<g id="a_edge16_Node000007_Node000010"><a xlink:title=" ">
<path fill="none" stroke="#63b8ff" d="M355.18,-189.36C373.01,-178.87 397.91,-165.12 421,-155.5 427.35,-152.86 434.09,-150.36 440.86,-148.06"/>
<polygon fill="#63b8ff" stroke="#63b8ff" points="442.34,-151.26 450.76,-144.82 440.16,-144.6 442.34,-151.26"/>
</a>
</g>
</g>
<!-- Node7&#45;&gt;Node11 -->
<g id="edge18_Node000007_Node000011" class="edge">
<title>Node7&#45;&gt;Node11</title>
<g id="a_edge18_Node000007_Node000011"><a xlink:title=" ">
<path fill="none" stroke="#63b8ff" d="M340.64,-189.36C355.7,-168.03 386,-129.28 421,-107.5 423.75,-105.79 426.64,-104.19 429.61,-102.7"/>
<polygon fill="#63b8ff" stroke="#63b8ff" points="431.08,-105.88 438.73,-98.55 428.18,-99.5 431.08,-105.88"/>
</a>
</g>
</g>
<!-- Node7&#45;&gt;Node12 -->
<g id="edge20_Node000007_Node000012" class="edge">
<title>Node7&#45;&gt;Node12</title>
<g id="a_edge20_Node000007_Node000012"><a xlink:title=" ">
<path fill="none" stroke="#63b8ff" d="M335.81,-189.26C346.88,-159.71 375.28,-94.48 421,-59.5 426.98,-54.92 433.84,-51.21 440.95,-48.21"/>
<polygon fill="#63b8ff" stroke="#63b8ff" points="442.63,-51.32 450.77,-44.54 440.18,-44.77 442.63,-51.32"/>
</a>
</g>
</g>
<!-- Node8&#45;&gt;Node4 -->
<g id="edge13_Node000008_Node000004" class="edge">
<title>Node8&#45;&gt;Node4</title>
<g id="a_edge13_Node000008_Node000004"><a xlink:title=" ">
<path fill="none" stroke="#63b8ff" d="M562.61,-219.04C577.26,-216.98 592.99,-214.76 607.86,-212.67"/>
<polygon fill="#63b8ff" stroke="#63b8ff" points="608.57,-216.1 617.99,-211.24 607.6,-209.17 608.57,-216.1"/>
</a>
</g>
</g>
<!-- Node9&#45;&gt;Node4 -->
<g id="edge15_Node000009_Node000004" class="edge">
<title>Node9&#45;&gt;Node4</title>
<g id="a_edge15_Node000009_Node000004"><a xlink:title=" ">
<path fill="none" stroke="#63b8ff" d="M555.05,-186.9C571.73,-189.25 590.39,-191.87 607.85,-194.33"/>
<polygon fill="#63b8ff" stroke="#63b8ff" points="607.58,-197.83 617.97,-195.75 608.56,-190.89 607.58,-197.83"/>
</a>
</g>
</g>
<!-- Node10&#45;&gt;Node4 -->
<g id="edge17_Node000010_Node000004" class="edge">
<title>Node10&#45;&gt;Node4</title>
<g id="a_edge17_Node000010_Node000004"><a xlink:title=" ">
<path fill="none" stroke="#63b8ff" d="M552.21,-144.9C562.2,-148.04 572.53,-151.62 582,-155.5 601.38,-163.45 622.1,-174.19 638.87,-183.5"/>
<polygon fill="#63b8ff" stroke="#63b8ff" points="637.31,-186.64 647.74,-188.49 640.75,-180.54 637.31,-186.64"/>
</a>
</g>
</g>
<!-- Node11&#45;&gt;Node4 -->
<g id="edge19_Node000011_Node000004" class="edge">
<title>Node11&#45;&gt;Node4</title>
<g id="a_edge19_Node000011_Node000004"><a xlink:title=" ">
<path fill="none" stroke="#63b8ff" d="M564.24,-98.59C570.44,-101.14 576.48,-104.09 582,-107.5 612.71,-126.44 640.01,-158.3 656.51,-180.08"/>
<polygon fill="#63b8ff" stroke="#63b8ff" points="653.73,-182.21 662.49,-188.17 659.36,-178.05 653.73,-182.21"/>
</a>
</g>
</g>
<!-- Node12&#45;&gt;Node4 -->
<g id="edge21_Node000012_Node000004" class="edge">
<title>Node12&#45;&gt;Node4</title>
<g id="a_edge21_Node000012_Node000004"><a xlink:title=" ">
<path fill="none" stroke="#63b8ff" d="M552.2,-44.57C562.73,-48.06 573.28,-52.87 582,-59.5 623.21,-90.84 650.61,-146.65 663.82,-178.81"/>
<polygon fill="#63b8ff" stroke="#63b8ff" points="660.67,-180.36 667.61,-188.36 667.17,-177.78 660.67,-180.36"/>
</a>
</g>
</g>
</g>
</svg>
