<?xml version="1.0" encoding="UTF-8" standalone="no"?>
<!DOCTYPE svg PUBLIC "-//W3C//DTD SVG 1.1//EN"
 "http://www.w3.org/Graphics/SVG/1.1/DTD/svg11.dtd">
<!-- Generated by graphviz version 2.43.0 (0)
 -->
<!-- Title: lci::alloc_device Pages: 1 -->
<svg width="699pt" height="518pt"
 viewBox="0.00 0.00 699.00 518.00" xmlns="http://www.w3.org/2000/svg" xmlns:xlink="http://www.w3.org/1999/xlink">
<g id="graph0" class="graph" transform="scale(1 1) rotate(0) translate(4 514)">
<title>lci::alloc_device</title>
<!-- Node1 -->
<g id="Node000001" class="node">
<title>Node1</title>
<g id="a_Node000001"><a xlink:title=" ">
<polygon fill="#999999" stroke="#666666" points="95,-261.5 0,-261.5 0,-242.5 95,-242.5 95,-261.5"/>
<text text-anchor="middle" x="47.5" y="-249.5" font-family="Helvetica,sans-Serif" font-size="10.00">lci::alloc_device</text>
</a>
</g>
</g>
<!-- Node2 -->
<g id="Node000002" class="node">
<title>Node2</title>
<g id="a_Node000002"><a xlink:href="../../d9/d10/classlci_1_1alloc__device__x.html#accfc23b8c5a8d782aa772cc509749d14" target="_top" xlink:title=" ">
<polygon fill="white" stroke="#666666" points="237,-267 131,-267 131,-237 237,-237 237,-267"/>
<text text-anchor="start" x="139" y="-255" font-family="Helvetica,sans-Serif" font-size="10.00">lci::alloc_device_x</text>
<text text-anchor="middle" x="184" y="-244" font-family="Helvetica,sans-Serif" font-size="10.00">::call</text>
</a>
</g>
</g>
<!-- Node1&#45;&gt;Node2 -->
<g id="edge1_Node000001_Node000002" class="edge">
<title>Node1&#45;&gt;Node2</title>
<g id="a_edge1_Node000001_Node000002"><a xlink:title=" ">
<path fill="none" stroke="#63b8ff" d="M95.16,-252C103.45,-252 112.2,-252 120.84,-252"/>
<polygon fill="#63b8ff" stroke="#63b8ff" points="120.9,-255.5 130.9,-252 120.9,-248.5 120.9,-255.5"/>
</a>
</g>
</g>
<!-- Node3 -->
<g id="Node000003" class="node">
<title>Node3</title>
<g id="a_Node000003"><a xlink:href="../../d9/d10/classlci_1_1alloc__device__x.html#a0364c3bcc9d35c8c2dadd4a683e13b2b" target="_top" xlink:title=" ">
<polygon fill="white" stroke="#666666" points="549,-510 415,-510 415,-480 549,-480 549,-510"/>
<text text-anchor="start" x="423" y="-498" font-family="Helvetica,sans-Serif" font-size="10.00">lci::alloc_device_x</text>
<text text-anchor="middle" x="482" y="-487" font-family="Helvetica,sans-Serif" font-size="10.00">::alloc_default_endpoint</text>
</a>
</g>
</g>
<!-- Node2&#45;&gt;Node3 -->
<g id="edge2_Node000002_Node000003" class="edge">
<title>Node2&#45;&gt;Node3</title>
<g id="a_edge2_Node000002_Node000003"><a xlink:title=" ">
<path fill="none" stroke="#63b8ff" d="M189.32,-267.28C199.04,-299.09 225.61,-372.95 273,-415 310.05,-447.87 362.07,-467.88 404.81,-479.66"/>
<polygon fill="#63b8ff" stroke="#63b8ff" points="404.06,-483.08 414.62,-482.26 405.85,-476.31 404.06,-483.08"/>
</a>
</g>
</g>
<!-- Node5 -->
<g id="Node000005" class="node">
<title>Node5</title>
<g id="a_Node000005"><a xlink:href="../../d9/d10/classlci_1_1alloc__device__x.html#ab5d03529820530ecbb0c886ffbba885f" target="_top" xlink:title=" ">
<polygon fill="white" stroke="#666666" points="379,-289 273,-289 273,-259 379,-259 379,-289"/>
<text text-anchor="start" x="281" y="-277" font-family="Helvetica,sans-Serif" font-size="10.00">lci::alloc_device_x</text>
<text text-anchor="middle" x="326" y="-266" font-family="Helvetica,sans-Serif" font-size="10.00">::call_impl</text>
</a>
</g>
</g>
<!-- Node2&#45;&gt;Node5 -->
<g id="edge4_Node000002_Node000005" class="edge">
<title>Node2&#45;&gt;Node5</title>
<g id="a_edge4_Node000002_Node000005"><a xlink:title=" ">
<path fill="none" stroke="#63b8ff" d="M237.13,-260.19C245.51,-261.51 254.26,-262.88 262.85,-264.23"/>
<polygon fill="#63b8ff" stroke="#63b8ff" points="262.4,-267.71 272.83,-265.8 263.49,-260.79 262.4,-267.71"/>
</a>
</g>
</g>
<!-- Node6 -->
<g id="Node000006" class="node">
<title>Node6</title>
<g id="a_Node000006"><a xlink:href="../../d9/d10/classlci_1_1alloc__device__x.html#ad24d73c79259e5dcba473f20adad64cd" target="_top" xlink:title=" ">
<polygon fill="white" stroke="#666666" points="535,-462 429,-462 429,-432 535,-432 535,-462"/>
<text text-anchor="start" x="437" y="-450" font-family="Helvetica,sans-Serif" font-size="10.00">lci::alloc_device_x</text>
<text text-anchor="middle" x="482" y="-439" font-family="Helvetica,sans-Serif" font-size="10.00">::ibv_td_strategy</text>
</a>
</g>
</g>
<!-- Node2&#45;&gt;Node6 -->
<g id="edge26_Node000002_Node000006" class="edge">
<title>Node2&#45;&gt;Node6</title>
<g id="a_edge26_Node000002_Node000006"><a xlink:title=" ">
<path fill="none" stroke="#63b8ff" d="M191.67,-267.04C203.99,-293.17 232.8,-347 273,-377 316.06,-409.13 374.8,-427.1 418.87,-436.77"/>
<polygon fill="#63b8ff" stroke="#63b8ff" points="418.38,-440.24 428.89,-438.88 419.83,-433.39 418.38,-440.24"/>
</a>
</g>
</g>
<!-- Node7 -->
<g id="Node000007" class="node">
<title>Node7</title>
<g id="a_Node000007"><a xlink:href="../../d9/d10/classlci_1_1alloc__device__x.html#a6f0be32f14a934810e8f358b24fe981f" target="_top" xlink:title=" ">
<polygon fill="white" stroke="#666666" points="535,-414 429,-414 429,-384 535,-384 535,-414"/>
<text text-anchor="start" x="437" y="-402" font-family="Helvetica,sans-Serif" font-size="10.00">lci::alloc_device_x</text>
<text text-anchor="middle" x="482" y="-391" font-family="Helvetica,sans-Serif" font-size="10.00">::name</text>
</a>
</g>
</g>
<!-- Node2&#45;&gt;Node7 -->
<g id="edge27_Node000002_Node000007" class="edge">
<title>Node2&#45;&gt;Node7</title>
<g id="a_edge27_Node000002_Node000007"><a xlink:title=" ">
<path fill="none" stroke="#63b8ff" d="M195.34,-267.2C210.14,-287.75 239.31,-324.12 273,-344 317.82,-370.45 375.47,-384.4 418.7,-391.62"/>
<polygon fill="#63b8ff" stroke="#63b8ff" points="418.38,-395.11 428.81,-393.23 419.48,-388.2 418.38,-395.11"/>
</a>
</g>
</g>
<!-- Node8 -->
<g id="Node000008" class="node">
<title>Node8</title>
<g id="a_Node000008"><a xlink:href="../../d9/d10/classlci_1_1alloc__device__x.html#abeaee68a26587c6b359320ab7cc7def1" target="_top" xlink:title=" ">
<polygon fill="white" stroke="#666666" points="535,-366 429,-366 429,-336 535,-336 535,-366"/>
<text text-anchor="start" x="437" y="-354" font-family="Helvetica,sans-Serif" font-size="10.00">lci::alloc_device_x</text>
<text text-anchor="middle" x="482" y="-343" font-family="Helvetica,sans-Serif" font-size="10.00">::net_context</text>
</a>
</g>
</g>
<!-- Node2&#45;&gt;Node8 -->
<g id="edge28_Node000002_Node000008" class="edge">
<title>Node2&#45;&gt;Node8</title>
<g id="a_edge28_Node000002_Node000008"><a xlink:title=" ">
<path fill="none" stroke="#63b8ff" d="M200.41,-267.02C216.94,-282.19 244.65,-305.04 273,-317 319.41,-336.57 376.05,-344.93 418.49,-348.47"/>
<polygon fill="#63b8ff" stroke="#63b8ff" points="418.45,-351.98 428.69,-349.25 418.99,-345 418.45,-351.98"/>
</a>
</g>
</g>
<!-- Node9 -->
<g id="Node000009" class="node">
<title>Node9</title>
<g id="a_Node000009"><a xlink:href="../../d9/d10/classlci_1_1alloc__device__x.html#acd2e7ade6e7e4c91b3144bd3068ead07" target="_top" xlink:title=" ">
<polygon fill="white" stroke="#666666" points="535,-318 429,-318 429,-288 535,-288 535,-318"/>
<text text-anchor="start" x="437" y="-306" font-family="Helvetica,sans-Serif" font-size="10.00">lci::alloc_device_x</text>
<text text-anchor="middle" x="482" y="-295" font-family="Helvetica,sans-Serif" font-size="10.00">::net_max_cqes</text>
</a>
</g>
</g>
<!-- Node2&#45;&gt;Node9 -->
<g id="edge29_Node000002_Node000009" class="edge">
<title>Node2&#45;&gt;Node9</title>
<g id="a_edge29_Node000002_Node000009"><a xlink:title=" ">
<path fill="none" stroke="#63b8ff" d="M206.99,-267.14C224.13,-278.01 248.96,-291.79 273,-298 320.82,-310.35 376.89,-310.94 418.76,-308.8"/>
<polygon fill="#63b8ff" stroke="#63b8ff" points="419.03,-312.29 428.81,-308.22 418.63,-305.3 419.03,-312.29"/>
</a>
</g>
</g>
<!-- Node10 -->
<g id="Node000010" class="node">
<title>Node10</title>
<g id="a_Node000010"><a xlink:href="../../d9/d10/classlci_1_1alloc__device__x.html#a4c8c86d9400791bb609b391aef165d68" target="_top" xlink:title=" ">
<polygon fill="white" stroke="#666666" points="535,-270 429,-270 429,-240 535,-240 535,-270"/>
<text text-anchor="start" x="437" y="-258" font-family="Helvetica,sans-Serif" font-size="10.00">lci::alloc_device_x</text>
<text text-anchor="middle" x="482" y="-247" font-family="Helvetica,sans-Serif" font-size="10.00">::net_max_recvs</text>
</a>
</g>
</g>
<!-- Node2&#45;&gt;Node10 -->
<g id="edge30_Node000002_Node000010" class="edge">
<title>Node2&#45;&gt;Node10</title>
<g id="a_edge30_Node000002_Node000010"><a xlink:title=" ">
<path fill="none" stroke="#63b8ff" d="M237.11,-250.62C248.91,-250.36 261.39,-250.13 273,-250 320.11,-249.46 331.9,-248.85 379,-250 391.8,-250.31 405.49,-250.85 418.55,-251.45"/>
<polygon fill="#63b8ff" stroke="#63b8ff" points="418.71,-254.97 428.87,-251.95 419.05,-247.97 418.71,-254.97"/>
</a>
</g>
</g>
<!-- Node11 -->
<g id="Node000011" class="node">
<title>Node11</title>
<g id="a_Node000011"><a xlink:href="../../d9/d10/classlci_1_1alloc__device__x.html#afe0d1c701b1611f00c3feaa22bd5f0cd" target="_top" xlink:title=" ">
<polygon fill="white" stroke="#666666" points="535,-222 429,-222 429,-192 535,-192 535,-222"/>
<text text-anchor="start" x="437" y="-210" font-family="Helvetica,sans-Serif" font-size="10.00">lci::alloc_device_x</text>
<text text-anchor="middle" x="482" y="-199" font-family="Helvetica,sans-Serif" font-size="10.00">::net_max_sends</text>
</a>
</g>
</g>
<!-- Node2&#45;&gt;Node11 -->
<g id="edge31_Node000002_Node000011" class="edge">
<title>Node2&#45;&gt;Node11</title>
<g id="a_edge31_Node000002_Node000011"><a xlink:title=" ">
<path fill="none" stroke="#63b8ff" d="M237.24,-244.06C287.91,-236.35 364.83,-224.66 418.68,-216.47"/>
<polygon fill="#63b8ff" stroke="#63b8ff" points="419.43,-219.9 428.79,-214.94 418.38,-212.98 419.43,-219.9"/>
</a>
</g>
</g>
<!-- Node12 -->
<g id="Node000012" class="node">
<title>Node12</title>
<g id="a_Node000012"><a xlink:href="../../d9/d10/classlci_1_1alloc__device__x.html#a7d316853b54b2a870ea35c387c1006e4" target="_top" xlink:title=" ">
<polygon fill="white" stroke="#666666" points="535,-174 429,-174 429,-144 535,-144 535,-174"/>
<text text-anchor="start" x="437" y="-162" font-family="Helvetica,sans-Serif" font-size="10.00">lci::alloc_device_x</text>
<text text-anchor="middle" x="482" y="-151" font-family="Helvetica,sans-Serif" font-size="10.00">::ofi_lock_mode</text>
</a>
</g>
</g>
<!-- Node2&#45;&gt;Node12 -->
<g id="edge32_Node000002_Node000012" class="edge">
<title>Node2&#45;&gt;Node12</title>
<g id="a_edge32_Node000002_Node000012"><a xlink:title=" ">
<path fill="none" stroke="#63b8ff" d="M221.98,-236.84C237.6,-230.66 256.07,-223.66 273,-218 321.61,-201.75 377.55,-186.05 419.16,-174.94"/>
<polygon fill="#63b8ff" stroke="#63b8ff" points="420.11,-178.3 428.88,-172.35 418.32,-171.54 420.11,-178.3"/>
</a>
</g>
</g>
<!-- Node13 -->
<g id="Node000013" class="node">
<title>Node13</title>
<g id="a_Node000013"><a xlink:href="../../d9/d10/classlci_1_1alloc__device__x.html#a561a0ed83694bc3350a801b629e5bd21" target="_top" xlink:title=" ">
<polygon fill="white" stroke="#666666" points="535,-126 429,-126 429,-96 535,-96 535,-126"/>
<text text-anchor="start" x="437" y="-114" font-family="Helvetica,sans-Serif" font-size="10.00">lci::alloc_device_x</text>
<text text-anchor="middle" x="482" y="-103" font-family="Helvetica,sans-Serif" font-size="10.00">::packet_pool</text>
</a>
</g>
</g>
<!-- Node2&#45;&gt;Node13 -->
<g id="edge33_Node000002_Node000013" class="edge">
<title>Node2&#45;&gt;Node13</title>
<g id="a_edge33_Node000002_Node000013"><a xlink:title=" ">
<path fill="none" stroke="#63b8ff" d="M201.02,-236.73C217.83,-221.39 245.56,-197.96 273,-183 319.38,-157.72 376.32,-138.74 418.89,-126.64"/>
<polygon fill="#63b8ff" stroke="#63b8ff" points="419.88,-130 428.56,-123.94 417.99,-123.26 419.88,-130"/>
</a>
</g>
</g>
<!-- Node14 -->
<g id="Node000014" class="node">
<title>Node14</title>
<g id="a_Node000014"><a xlink:href="../../d9/d10/classlci_1_1alloc__device__x.html#a56912fff6daa357d714dbbf3bf67af85" target="_top" xlink:title=" ">
<polygon fill="white" stroke="#666666" points="535,-78 429,-78 429,-48 535,-48 535,-78"/>
<text text-anchor="start" x="437" y="-66" font-family="Helvetica,sans-Serif" font-size="10.00">lci::alloc_device_x</text>
<text text-anchor="middle" x="482" y="-55" font-family="Helvetica,sans-Serif" font-size="10.00">::runtime</text>
</a>
</g>
</g>
<!-- Node2&#45;&gt;Node14 -->
<g id="edge34_Node000002_Node000014" class="edge">
<title>Node2&#45;&gt;Node14</title>
<g id="a_edge34_Node000002_Node000014"><a xlink:title=" ">
<path fill="none" stroke="#63b8ff" d="M192.57,-236.78C205.65,-211.99 234.79,-162.84 273,-135 316.41,-103.38 374.85,-84.77 418.73,-74.43"/>
<polygon fill="#63b8ff" stroke="#63b8ff" points="419.74,-77.79 428.71,-72.16 418.18,-70.96 419.74,-77.79"/>
</a>
</g>
</g>
<!-- Node15 -->
<g id="Node000015" class="node">
<title>Node15</title>
<g id="a_Node000015"><a xlink:href="../../d9/d10/classlci_1_1alloc__device__x.html#a5508f2d5c851ff147e9f8cd40db1ade3" target="_top" xlink:title=" ">
<polygon fill="white" stroke="#666666" points="535,-30 429,-30 429,0 535,0 535,-30"/>
<text text-anchor="start" x="437" y="-18" font-family="Helvetica,sans-Serif" font-size="10.00">lci::alloc_device_x</text>
<text text-anchor="middle" x="482" y="-7" font-family="Helvetica,sans-Serif" font-size="10.00">::user_context</text>
</a>
</g>
</g>
<!-- Node2&#45;&gt;Node15 -->
<g id="edge35_Node000002_Node000015" class="edge">
<title>Node2&#45;&gt;Node15</title>
<g id="a_edge35_Node000002_Node000015"><a xlink:title=" ">
<path fill="none" stroke="#63b8ff" d="M188.64,-236.82C197.34,-203.75 222.52,-124.73 273,-82 314.19,-47.14 373.82,-30.33 418.69,-22.28"/>
<polygon fill="#63b8ff" stroke="#63b8ff" points="419.32,-25.72 428.6,-20.6 418.15,-18.82 419.32,-25.72"/>
</a>
</g>
</g>
<!-- Node4 -->
<g id="Node000004" class="node">
<title>Node4</title>
<g id="a_Node000004"><a xlink:href="../../d9/d10/classlci_1_1alloc__device__x.html#a12e57dde78668d47808506dbd65f011e" target="_top" xlink:title=" ">
<polygon fill="white" stroke="#666666" points="691,-270 585,-270 585,-240 691,-240 691,-270"/>
<text text-anchor="start" x="593" y="-258" font-family="Helvetica,sans-Serif" font-size="10.00">lci::alloc_device_x</text>
<text text-anchor="middle" x="638" y="-247" font-family="Helvetica,sans-Serif" font-size="10.00">::alloc_device_x</text>
</a>
</g>
</g>
<!-- Node3&#45;&gt;Node4 -->
<g id="edge3_Node000003_Node000004" class="edge">
<title>Node3&#45;&gt;Node4</title>
<g id="a_edge3_Node000003_Node000004"><a xlink:title=" ">
<path fill="none" stroke="#63b8ff" d="M536.84,-479.99C541.26,-477.44 545.4,-474.47 549,-471 604.38,-417.69 626.02,-324.66 633.5,-280.14"/>
<polygon fill="#63b8ff" stroke="#63b8ff" points="636.98,-280.59 635.08,-270.16 630.06,-279.5 636.98,-280.59"/>
</a>
</g>
</g>
<!-- Node5&#45;&gt;Node3 -->
<g id="edge5_Node000005_Node000003" class="edge">
<title>Node5&#45;&gt;Node3</title>
<g id="a_edge5_Node000005_Node000003"><a xlink:title=" ">
<path fill="none" stroke="#63b8ff" d="M329.6,-289.17C336.62,-325.67 359.35,-419.18 415,-471 416.14,-472.06 417.34,-473.08 418.57,-474.06"/>
<polygon fill="#63b8ff" stroke="#63b8ff" points="417.02,-477.22 427.28,-479.86 420.9,-471.4 417.02,-477.22"/>
</a>
</g>
</g>
<!-- Node5&#45;&gt;Node6 -->
<g id="edge6_Node000005_Node000006" class="edge">
<title>Node5&#45;&gt;Node6</title>
<g id="a_edge6_Node000005_Node000006"><a xlink:title=" ">
<path fill="none" stroke="#63b8ff" d="M332.09,-289.43C342.75,-319.4 370.16,-385.76 415,-423 416.55,-424.29 418.17,-425.5 419.85,-426.66"/>
<polygon fill="#63b8ff" stroke="#63b8ff" points="418.29,-429.81 428.67,-431.93 421.88,-423.8 418.29,-429.81"/>
</a>
</g>
</g>
<!-- Node5&#45;&gt;Node7 -->
<g id="edge8_Node000005_Node000007" class="edge">
<title>Node5&#45;&gt;Node7</title>
<g id="a_edge8_Node000005_Node000007"><a xlink:title=" ">
<path fill="none" stroke="#63b8ff" d="M336.54,-289.16C351,-311 380.48,-351.31 415,-375 417.16,-376.48 419.41,-377.88 421.74,-379.2"/>
<polygon fill="#63b8ff" stroke="#63b8ff" points="420.49,-382.5 430.99,-383.93 423.68,-376.26 420.49,-382.5"/>
</a>
</g>
</g>
<!-- Node5&#45;&gt;Node8 -->
<g id="edge10_Node000005_Node000008" class="edge">
<title>Node5&#45;&gt;Node8</title>
<g id="a_edge10_Node000005_Node000008"><a xlink:title=" ">
<path fill="none" stroke="#63b8ff" d="M349.48,-289.2C366.88,-300.55 391.82,-315.94 415,-327 418.61,-328.72 422.38,-330.4 426.21,-332.01"/>
<polygon fill="#63b8ff" stroke="#63b8ff" points="425.2,-335.38 435.79,-335.88 427.82,-328.89 425.2,-335.38"/>
</a>
</g>
</g>
<!-- Node5&#45;&gt;Node9 -->
<g id="edge12_Node000005_Node000009" class="edge">
<title>Node5&#45;&gt;Node9</title>
<g id="a_edge12_Node000005_Node000009"><a xlink:title=" ">
<path fill="none" stroke="#63b8ff" d="M379.14,-283.82C391.93,-286.23 405.75,-288.83 418.96,-291.32"/>
<polygon fill="#63b8ff" stroke="#63b8ff" points="418.44,-294.78 428.92,-293.19 419.74,-287.9 418.44,-294.78"/>
</a>
</g>
</g>
<!-- Node5&#45;&gt;Node10 -->
<g id="edge14_Node000005_Node000010" class="edge">
<title>Node5&#45;&gt;Node10</title>
<g id="a_edge14_Node000005_Node000010"><a xlink:title=" ">
<path fill="none" stroke="#63b8ff" d="M379.14,-267.57C391.93,-265.99 405.75,-264.28 418.96,-262.65"/>
<polygon fill="#63b8ff" stroke="#63b8ff" points="419.42,-266.12 428.92,-261.43 418.56,-259.18 419.42,-266.12"/>
</a>
</g>
</g>
<!-- Node5&#45;&gt;Node11 -->
<g id="edge16_Node000005_Node000011" class="edge">
<title>Node5&#45;&gt;Node11</title>
<g id="a_edge16_Node000005_Node000011"><a xlink:title=" ">
<path fill="none" stroke="#63b8ff" d="M355.98,-258.88C372.97,-250.26 394.97,-239.51 415,-231 419.15,-229.24 423.48,-227.48 427.85,-225.77"/>
<polygon fill="#63b8ff" stroke="#63b8ff" points="429.34,-228.95 437.43,-222.1 426.84,-222.41 429.34,-228.95"/>
</a>
</g>
</g>
<!-- Node5&#45;&gt;Node12 -->
<g id="edge18_Node000005_Node000012" class="edge">
<title>Node5&#45;&gt;Node12</title>
<g id="a_edge18_Node000005_Node000012"><a xlink:title=" ">
<path fill="none" stroke="#63b8ff" d="M338.16,-258.72C353.46,-238.77 382.73,-203.93 415,-183 417.45,-181.41 420.01,-179.91 422.65,-178.5"/>
<polygon fill="#63b8ff" stroke="#63b8ff" points="424.4,-181.54 431.85,-174.01 421.33,-175.25 424.4,-181.54"/>
</a>
</g>
</g>
<!-- Node5&#45;&gt;Node13 -->
<g id="edge20_Node000005_Node000013" class="edge">
<title>Node5&#45;&gt;Node13</title>
<g id="a_edge20_Node000005_Node000013"><a xlink:title=" ">
<path fill="none" stroke="#63b8ff" d="M332.74,-258.73C344.14,-230.38 372.28,-169.38 415,-135 416.74,-133.6 418.56,-132.28 420.45,-131.04"/>
<polygon fill="#63b8ff" stroke="#63b8ff" points="422.21,-134.06 429.11,-126.03 418.7,-128 422.21,-134.06"/>
</a>
</g>
</g>
<!-- Node5&#45;&gt;Node14 -->
<g id="edge22_Node000005_Node000014" class="edge">
<title>Node5&#45;&gt;Node14</title>
<g id="a_edge22_Node000005_Node000014"><a xlink:title=" ">
<path fill="none" stroke="#63b8ff" d="M330.01,-258.81C337.74,-223.61 361.6,-135.74 415,-87 416.68,-85.46 418.47,-84.02 420.34,-82.67"/>
<polygon fill="#63b8ff" stroke="#63b8ff" points="422.33,-85.56 428.99,-77.32 418.64,-79.61 422.33,-85.56"/>
</a>
</g>
</g>
<!-- Node5&#45;&gt;Node15 -->
<g id="edge24_Node000005_Node000015" class="edge">
<title>Node5&#45;&gt;Node15</title>
<g id="a_edge24_Node000005_Node000015"><a xlink:title=" ">
<path fill="none" stroke="#63b8ff" d="M328.36,-258.74C332.85,-217.5 350.77,-102.62 415,-39 416.65,-37.36 418.43,-35.83 420.3,-34.41"/>
<polygon fill="#63b8ff" stroke="#63b8ff" points="422.49,-37.16 429,-28.81 418.7,-31.28 422.49,-37.16"/>
</a>
</g>
</g>
<!-- Node6&#45;&gt;Node4 -->
<g id="edge7_Node000006_Node000004" class="edge">
<title>Node6&#45;&gt;Node4</title>
<g id="a_edge7_Node000006_Node000004"><a xlink:title=" ">
<path fill="none" stroke="#63b8ff" d="M535.18,-432.32C540.15,-429.7 544.87,-426.61 549,-423 593.67,-383.94 619.06,-316.62 630.17,-280.19"/>
<polygon fill="#63b8ff" stroke="#63b8ff" points="633.6,-280.94 633.05,-270.35 626.88,-278.97 633.6,-280.94"/>
</a>
</g>
</g>
<!-- Node7&#45;&gt;Node4 -->
<g id="edge9_Node000007_Node000004" class="edge">
<title>Node7&#45;&gt;Node4</title>
<g id="a_edge9_Node000007_Node000004"><a xlink:title=" ">
<path fill="none" stroke="#63b8ff" d="M534.31,-383.84C539.51,-381.3 544.51,-378.36 549,-375 583.42,-349.19 610.3,-306.17 624.88,-279.26"/>
<polygon fill="#63b8ff" stroke="#63b8ff" points="628.13,-280.62 629.69,-270.14 621.93,-277.35 628.13,-280.62"/>
</a>
</g>
</g>
<!-- Node8&#45;&gt;Node4 -->
<g id="edge11_Node000008_Node000004" class="edge">
<title>Node8&#45;&gt;Node4</title>
<g id="a_edge11_Node000008_Node000004"><a xlink:title=" ">
<path fill="none" stroke="#63b8ff" d="M530.39,-335.98C536.8,-333.31 543.17,-330.32 549,-327 573.18,-313.24 597.41,-292.81 614.3,-277.22"/>
<polygon fill="#63b8ff" stroke="#63b8ff" points="617.09,-279.41 621.98,-270.01 612.29,-274.31 617.09,-279.41"/>
</a>
</g>
</g>
<!-- Node9&#45;&gt;Node4 -->
<g id="edge13_Node000009_Node000004" class="edge">
<title>Node9&#45;&gt;Node4</title>
<g id="a_edge13_Node000009_Node000004"><a xlink:title=" ">
<path fill="none" stroke="#63b8ff" d="M531.3,-287.94C546.5,-283.21 563.43,-277.93 579.21,-273.01"/>
<polygon fill="#63b8ff" stroke="#63b8ff" points="580.36,-276.32 588.87,-270 578.28,-269.64 580.36,-276.32"/>
</a>
</g>
</g>
<!-- Node10&#45;&gt;Node4 -->
<g id="edge15_Node000010_Node000004" class="edge">
<title>Node10&#45;&gt;Node4</title>
<g id="a_edge15_Node000010_Node000004"><a xlink:title=" ">
<path fill="none" stroke="#63b8ff" d="M535.14,-255C547.81,-255 561.48,-255 574.57,-255"/>
<polygon fill="#63b8ff" stroke="#63b8ff" points="574.92,-258.5 584.92,-255 574.92,-251.5 574.92,-258.5"/>
</a>
</g>
</g>
<!-- Node11&#45;&gt;Node4 -->
<g id="edge17_Node000011_Node000004" class="edge">
<title>Node11&#45;&gt;Node4</title>
<g id="a_edge17_Node000011_Node000004"><a xlink:title=" ">
<path fill="none" stroke="#63b8ff" d="M531.3,-222.06C546.5,-226.79 563.43,-232.07 579.21,-236.99"/>
<polygon fill="#63b8ff" stroke="#63b8ff" points="578.28,-240.36 588.87,-240 580.36,-233.68 578.28,-240.36"/>
</a>
</g>
</g>
<!-- Node12&#45;&gt;Node4 -->
<g id="edge19_Node000012_Node000004" class="edge">
<title>Node12&#45;&gt;Node4</title>
<g id="a_edge19_Node000012_Node000004"><a xlink:title=" ">
<path fill="none" stroke="#63b8ff" d="M530.39,-174.02C536.8,-176.69 543.17,-179.68 549,-183 573.18,-196.76 597.41,-217.19 614.3,-232.78"/>
<polygon fill="#63b8ff" stroke="#63b8ff" points="612.29,-235.69 621.98,-239.99 617.09,-230.59 612.29,-235.69"/>
</a>
</g>
</g>
<!-- Node13&#45;&gt;Node4 -->
<g id="edge21_Node000013_Node000004" class="edge">
<title>Node13&#45;&gt;Node4</title>
<g id="a_edge21_Node000013_Node000004"><a xlink:title=" ">
<path fill="none" stroke="#63b8ff" d="M534.31,-126.16C539.51,-128.7 544.51,-131.64 549,-135 583.42,-160.81 610.3,-203.83 624.88,-230.74"/>
<polygon fill="#63b8ff" stroke="#63b8ff" points="621.93,-232.65 629.69,-239.86 628.13,-229.38 621.93,-232.65"/>
</a>
</g>
</g>
<!-- Node14&#45;&gt;Node4 -->
<g id="edge23_Node000014_Node000004" class="edge">
<title>Node14&#45;&gt;Node4</title>
<g id="a_edge23_Node000014_Node000004"><a xlink:title=" ">
<path fill="none" stroke="#63b8ff" d="M535.18,-77.68C540.15,-80.3 544.87,-83.39 549,-87 593.67,-126.06 619.06,-193.38 630.17,-229.81"/>
<polygon fill="#63b8ff" stroke="#63b8ff" points="626.88,-231.03 633.05,-239.65 633.6,-229.06 626.88,-231.03"/>
</a>
</g>
</g>
<!-- Node15&#45;&gt;Node4 -->
<g id="edge25_Node000015_Node000004" class="edge">
<title>Node15&#45;&gt;Node4</title>
<g id="a_edge25_Node000015_Node000004"><a xlink:title=" ">
<path fill="none" stroke="#63b8ff" d="M535.22,-29.1C540.24,-31.84 544.96,-35.11 549,-39 604.38,-92.31 626.02,-185.34 633.5,-229.86"/>
<polygon fill="#63b8ff" stroke="#63b8ff" points="630.06,-230.5 635.08,-239.84 636.98,-229.41 630.06,-230.5"/>
</a>
</g>
</g>
</g>
</svg>
