<?xml version="1.0" encoding="UTF-8" standalone="no"?>
<!DOCTYPE svg PUBLIC "-//W3C//DTD SVG 1.1//EN"
 "http://www.w3.org/Graphics/SVG/1.1/DTD/svg11.dtd">
<!-- Generated by graphviz version 2.43.0 (0)
 -->
<!-- Title: lci::post_comm Pages: 1 -->
<svg width="825pt" height="896pt"
 viewBox="0.00 0.00 825.00 895.50" xmlns="http://www.w3.org/2000/svg" xmlns:xlink="http://www.w3.org/1999/xlink">
<g id="graph0" class="graph" transform="scale(1 1) rotate(0) translate(4 891.5)">
<title>lci::post_comm</title>
<!-- Node1 -->
<g id="Node000001" class="node">
<title>Node1</title>
<g id="a_Node000001"><a xlink:title=" ">
<polygon fill="#999999" stroke="#666666" points="91,-442.5 0,-442.5 0,-423.5 91,-423.5 91,-442.5"/>
<text text-anchor="middle" x="45.5" y="-430.5" font-family="Helvetica,sans-Serif" font-size="10.00">lci::post_comm</text>
</a>
</g>
</g>
<!-- Node2 -->
<g id="Node000002" class="node">
<title>Node2</title>
<g id="a_Node000002"><a xlink:href="../../d8/d48/classlci_1_1post__comm__x.html#a0e18f25200cd26b05cceda73dd2cfab9" target="_top" xlink:title=" ">
<polygon fill="white" stroke="#666666" points="252,-442.5 127,-442.5 127,-423.5 252,-423.5 252,-442.5"/>
<text text-anchor="middle" x="189.5" y="-430.5" font-family="Helvetica,sans-Serif" font-size="10.00">lci::post_comm_x::call</text>
</a>
</g>
</g>
<!-- Node1&#45;&gt;Node2 -->
<g id="edge1_Node000001_Node000002" class="edge">
<title>Node1&#45;&gt;Node2</title>
<g id="a_edge1_Node000001_Node000002"><a xlink:title=" ">
<path fill="none" stroke="#63b8ff" d="M91.04,-433C99.22,-433 107.96,-433 116.7,-433"/>
<polygon fill="#63b8ff" stroke="#63b8ff" points="116.95,-436.5 126.95,-433 116.95,-429.5 116.95,-436.5"/>
</a>
</g>
</g>
<!-- Node3 -->
<g id="Node000003" class="node">
<title>Node3</title>
<g id="a_Node000003"><a xlink:href="../../d8/d48/classlci_1_1post__comm__x.html#a9d02814a94c01ec00d6dc0bca83d3f1e" target="_top" xlink:title=" ">
<polygon fill="white" stroke="#666666" points="646,-887.5 482,-887.5 482,-868.5 646,-868.5 646,-887.5"/>
<text text-anchor="middle" x="564" y="-875.5" font-family="Helvetica,sans-Serif" font-size="10.00">lci::post_comm_x::allow_done</text>
</a>
</g>
</g>
<!-- Node2&#45;&gt;Node3 -->
<g id="edge2_Node000002_Node000003" class="edge">
<title>Node2&#45;&gt;Node3</title>
<g id="a_edge2_Node000002_Node000003"><a xlink:title=" ">
<path fill="none" stroke="#63b8ff" d="M191.64,-442.58C198.19,-496.03 232.68,-757.06 288,-812 335.91,-859.59 411.73,-875.09 471.63,-879.25"/>
<polygon fill="#63b8ff" stroke="#63b8ff" points="471.66,-882.76 481.85,-879.86 472.08,-875.77 471.66,-882.76"/>
</a>
</g>
</g>
<!-- Node5 -->
<g id="Node000005" class="node">
<title>Node5</title>
<g id="a_Node000005"><a xlink:href="../../d8/d48/classlci_1_1post__comm__x.html#ae3d784bab8848569e70f6caa5d0d3c9d" target="_top" xlink:title=" ">
<polygon fill="white" stroke="#666666" points="631,-850 497,-850 497,-820 631,-820 631,-850"/>
<text text-anchor="start" x="505" y="-838" font-family="Helvetica,sans-Serif" font-size="10.00">lci::post_comm_x::allow</text>
<text text-anchor="middle" x="564" y="-827" font-family="Helvetica,sans-Serif" font-size="10.00">_posted</text>
</a>
</g>
</g>
<!-- Node2&#45;&gt;Node5 -->
<g id="edge4_Node000002_Node000005" class="edge">
<title>Node2&#45;&gt;Node5</title>
<g id="a_edge4_Node000002_Node000005"><a xlink:title=" ">
<path fill="none" stroke="#63b8ff" d="M190.14,-442.63C189.03,-486.84 190.53,-672.26 288,-766 340.85,-816.83 425.3,-831.86 486.69,-835.56"/>
<polygon fill="#63b8ff" stroke="#63b8ff" points="486.55,-839.05 496.71,-836.07 486.91,-832.06 486.55,-839.05"/>
</a>
</g>
</g>
<!-- Node6 -->
<g id="Node000006" class="node">
<title>Node6</title>
<g id="a_Node000006"><a xlink:href="../../d8/d48/classlci_1_1post__comm__x.html#af2e9941ebbea16b2eaf5e1971b7c0e2a" target="_top" xlink:title=" ">
<polygon fill="white" stroke="#666666" points="631,-802 497,-802 497,-772 631,-772 631,-802"/>
<text text-anchor="start" x="505" y="-790" font-family="Helvetica,sans-Serif" font-size="10.00">lci::post_comm_x::allow</text>
<text text-anchor="middle" x="564" y="-779" font-family="Helvetica,sans-Serif" font-size="10.00">_retry</text>
</a>
</g>
</g>
<!-- Node2&#45;&gt;Node6 -->
<g id="edge6_Node000002_Node000006" class="edge">
<title>Node2&#45;&gt;Node6</title>
<g id="a_edge6_Node000002_Node000006"><a xlink:title=" ">
<path fill="none" stroke="#63b8ff" d="M190.62,-442.71C191.69,-483.43 201.46,-641.99 288,-721 341.81,-770.13 425.66,-784.48 486.63,-787.86"/>
<polygon fill="#63b8ff" stroke="#63b8ff" points="486.82,-791.37 496.97,-788.34 487.14,-784.38 486.82,-791.37"/>
</a>
</g>
</g>
<!-- Node7 -->
<g id="Node000007" class="node">
<title>Node7</title>
<g id="a_Node000007"><a xlink:href="../../d8/d48/classlci_1_1post__comm__x.html#a3fd9ef07356921c94169a7b4a29edd80" target="_top" xlink:title=" ">
<polygon fill="white" stroke="#666666" points="440,-442.5 288,-442.5 288,-423.5 440,-423.5 440,-442.5"/>
<text text-anchor="middle" x="364" y="-430.5" font-family="Helvetica,sans-Serif" font-size="10.00">lci::post_comm_x::call_impl</text>
</a>
</g>
</g>
<!-- Node2&#45;&gt;Node7 -->
<g id="edge8_Node000002_Node000007" class="edge">
<title>Node2&#45;&gt;Node7</title>
<g id="a_edge8_Node000002_Node000007"><a xlink:title=" ">
<path fill="none" stroke="#63b8ff" d="M252.29,-433C260.56,-433 269.15,-433 277.74,-433"/>
<polygon fill="#63b8ff" stroke="#63b8ff" points="277.78,-436.5 287.78,-433 277.78,-429.5 277.78,-436.5"/>
</a>
</g>
</g>
<!-- Node8 -->
<g id="Node000008" class="node">
<title>Node8</title>
<g id="a_Node000008"><a xlink:href="../../d8/d48/classlci_1_1post__comm__x.html#ae7b576a0cfbce10d5b9d83f3df130397" target="_top" xlink:title=" ">
<polygon fill="white" stroke="#666666" points="631.5,-754 496.5,-754 496.5,-724 631.5,-724 631.5,-754"/>
<text text-anchor="start" x="504.5" y="-742" font-family="Helvetica,sans-Serif" font-size="10.00">lci::post_comm_x::comp</text>
<text text-anchor="middle" x="564" y="-731" font-family="Helvetica,sans-Serif" font-size="10.00">_semantic</text>
</a>
</g>
</g>
<!-- Node2&#45;&gt;Node8 -->
<g id="edge50_Node000002_Node000008" class="edge">
<title>Node2&#45;&gt;Node8</title>
<g id="a_edge50_Node000002_Node000008"><a xlink:title=" ">
<path fill="none" stroke="#63b8ff" d="M191.19,-442.6C194.4,-479.53 211.14,-613.72 288,-679 342.92,-725.65 425.82,-738.47 486.24,-740.95"/>
<polygon fill="#63b8ff" stroke="#63b8ff" points="486.39,-744.45 496.49,-741.28 486.61,-737.46 486.39,-744.45"/>
</a>
</g>
</g>
<!-- Node9 -->
<g id="Node000009" class="node">
<title>Node9</title>
<g id="a_Node000009"><a xlink:href="../../d8/d48/classlci_1_1post__comm__x.html#aeba95544c83eb0d890dbba7bc3216629" target="_top" xlink:title=" ">
<polygon fill="white" stroke="#666666" points="634,-705.5 494,-705.5 494,-686.5 634,-686.5 634,-705.5"/>
<text text-anchor="middle" x="564" y="-693.5" font-family="Helvetica,sans-Serif" font-size="10.00">lci::post_comm_x::device</text>
</a>
</g>
</g>
<!-- Node2&#45;&gt;Node9 -->
<g id="edge51_Node000002_Node000009" class="edge">
<title>Node2&#45;&gt;Node9</title>
<g id="a_edge51_Node000002_Node000009"><a xlink:title=" ">
<path fill="none" stroke="#63b8ff" d="M192,-442.59C197.71,-475.57 221.18,-585.25 288,-638 343.39,-681.73 423.97,-694.56 483.6,-697.45"/>
<polygon fill="#63b8ff" stroke="#63b8ff" points="483.6,-700.95 493.73,-697.85 483.88,-693.95 483.6,-700.95"/>
</a>
</g>
</g>
<!-- Node10 -->
<g id="Node000010" class="node">
<title>Node10</title>
<g id="a_Node000010"><a xlink:href="../../d8/d48/classlci_1_1post__comm__x.html#acff8c179998df3f0403b417e0e21bb6c" target="_top" xlink:title=" ">
<polygon fill="white" stroke="#666666" points="639.5,-668.5 488.5,-668.5 488.5,-649.5 639.5,-649.5 639.5,-668.5"/>
<text text-anchor="middle" x="564" y="-656.5" font-family="Helvetica,sans-Serif" font-size="10.00">lci::post_comm_x::direction</text>
</a>
</g>
</g>
<!-- Node2&#45;&gt;Node10 -->
<g id="edge52_Node000002_Node000010" class="edge">
<title>Node2&#45;&gt;Node10</title>
<g id="a_edge52_Node000002_Node000010"><a xlink:title=" ">
<path fill="none" stroke="#63b8ff" d="M193.25,-442.59C201.94,-471.07 231.61,-555.7 288,-597 343.03,-637.31 419.66,-652.1 478.05,-657.22"/>
<polygon fill="#63b8ff" stroke="#63b8ff" points="478.12,-660.73 488.36,-658.04 478.67,-653.76 478.12,-660.73"/>
</a>
</g>
</g>
<!-- Node11 -->
<g id="Node000011" class="node">
<title>Node11</title>
<g id="a_Node000011"><a xlink:href="../../d8/d48/classlci_1_1post__comm__x.html#ae0c9922b3e26b41b2233e1ad7c544285" target="_top" xlink:title=" ">
<polygon fill="white" stroke="#666666" points="639.5,-631.5 488.5,-631.5 488.5,-612.5 639.5,-612.5 639.5,-631.5"/>
<text text-anchor="middle" x="564" y="-619.5" font-family="Helvetica,sans-Serif" font-size="10.00">lci::post_comm_x::endpoint</text>
</a>
</g>
</g>
<!-- Node2&#45;&gt;Node11 -->
<g id="edge53_Node000002_Node000011" class="edge">
<title>Node2&#45;&gt;Node11</title>
<g id="a_edge53_Node000002_Node000011"><a xlink:title=" ">
<path fill="none" stroke="#63b8ff" d="M195.33,-442.78C207.44,-466.24 241.51,-526.02 288,-556 345.03,-592.77 420.63,-609.08 478.13,-616.3"/>
<polygon fill="#63b8ff" stroke="#63b8ff" points="477.94,-619.8 488.28,-617.5 478.76,-612.85 477.94,-619.8"/>
</a>
</g>
</g>
<!-- Node12 -->
<g id="Node000012" class="node">
<title>Node12</title>
<g id="a_Node000012"><a xlink:href="../../d8/d48/classlci_1_1post__comm__x.html#ab8750ce06a3cd00c64d39ad5315827e2" target="_top" xlink:title=" ">
<polygon fill="white" stroke="#666666" points="630.5,-594 497.5,-594 497.5,-564 630.5,-564 630.5,-594"/>
<text text-anchor="start" x="505.5" y="-582" font-family="Helvetica,sans-Serif" font-size="10.00">lci::post_comm_x::force</text>
<text text-anchor="middle" x="564" y="-571" font-family="Helvetica,sans-Serif" font-size="10.00">_zcopy</text>
</a>
</g>
</g>
<!-- Node2&#45;&gt;Node12 -->
<g id="edge54_Node000002_Node000012" class="edge">
<title>Node2&#45;&gt;Node12</title>
<g id="a_edge54_Node000002_Node000012"><a xlink:title=" ">
<path fill="none" stroke="#63b8ff" d="M198.22,-442.61C213.37,-460.79 248.96,-500.17 288,-520 350.73,-551.86 429.98,-566.55 487.26,-573.3"/>
<polygon fill="#63b8ff" stroke="#63b8ff" points="487.01,-576.79 497.34,-574.43 487.79,-569.84 487.01,-576.79"/>
</a>
</g>
</g>
<!-- Node13 -->
<g id="Node000013" class="node">
<title>Node13</title>
<g id="a_Node000013"><a xlink:href="../../d8/d48/classlci_1_1post__comm__x.html#a5fbebcb64ab56a952dee33be796101b5" target="_top" xlink:title=" ">
<polygon fill="white" stroke="#666666" points="629.5,-546 498.5,-546 498.5,-516 629.5,-516 629.5,-546"/>
<text text-anchor="start" x="506.5" y="-534" font-family="Helvetica,sans-Serif" font-size="10.00">lci::post_comm_x::local</text>
<text text-anchor="middle" x="564" y="-523" font-family="Helvetica,sans-Serif" font-size="10.00">_buffer</text>
</a>
</g>
</g>
<!-- Node2&#45;&gt;Node13 -->
<g id="edge55_Node000002_Node000013" class="edge">
<title>Node2&#45;&gt;Node13</title>
<g id="a_edge55_Node000002_Node000013"><a xlink:title=" ">
<path fill="none" stroke="#63b8ff" d="M203.27,-442.64C221.19,-455.64 255.26,-478.47 288,-490 353.26,-512.98 431.65,-523.08 488.01,-527.52"/>
<polygon fill="#63b8ff" stroke="#63b8ff" points="488.03,-531.03 498.26,-528.28 488.55,-524.05 488.03,-531.03"/>
</a>
</g>
</g>
<!-- Node14 -->
<g id="Node000014" class="node">
<title>Node14</title>
<g id="a_Node000014"><a xlink:href="../../d8/d48/classlci_1_1post__comm__x.html#ac305197d2165dae6d99957db8a10b1ec" target="_top" xlink:title=" ">
<polygon fill="white" stroke="#666666" points="646,-497.5 482,-497.5 482,-478.5 646,-478.5 646,-497.5"/>
<text text-anchor="middle" x="564" y="-485.5" font-family="Helvetica,sans-Serif" font-size="10.00">lci::post_comm_x::local_comp</text>
</a>
</g>
</g>
<!-- Node2&#45;&gt;Node14 -->
<g id="edge56_Node000002_Node000014" class="edge">
<title>Node2&#45;&gt;Node14</title>
<g id="a_edge56_Node000002_Node000014"><a xlink:title=" ">
<path fill="none" stroke="#63b8ff" d="M212.49,-442.52C231.96,-450.49 261.33,-461.43 288,-467 348.44,-479.62 417.75,-484.86 471.68,-486.94"/>
<polygon fill="#63b8ff" stroke="#63b8ff" points="471.79,-490.45 481.91,-487.31 472.04,-483.45 471.79,-490.45"/>
</a>
</g>
</g>
<!-- Node15 -->
<g id="Node000015" class="node">
<title>Node15</title>
<g id="a_Node000015"><a xlink:href="../../d8/d48/classlci_1_1post__comm__x.html#a3b0aeb006ad6399eead4c36de986bfe9" target="_top" xlink:title=" ">
<polygon fill="white" stroke="#666666" points="641,-460 487,-460 487,-430 641,-430 641,-460"/>
<text text-anchor="start" x="495" y="-448" font-family="Helvetica,sans-Serif" font-size="10.00">lci::post_comm_x::matching</text>
<text text-anchor="middle" x="564" y="-437" font-family="Helvetica,sans-Serif" font-size="10.00">_engine</text>
</a>
</g>
</g>
<!-- Node2&#45;&gt;Node15 -->
<g id="edge57_Node000002_Node000015" class="edge">
<title>Node2&#45;&gt;Node15</title>
<g id="a_edge57_Node000002_Node000015"><a xlink:title=" ">
<path fill="none" stroke="#63b8ff" d="M230.09,-442.51C247.71,-446.28 268.77,-450.14 288,-452 350.97,-458.08 422.4,-455.99 476.68,-452.56"/>
<polygon fill="#63b8ff" stroke="#63b8ff" points="477.21,-456.04 486.95,-451.89 476.74,-449.05 477.21,-456.04"/>
</a>
</g>
</g>
<!-- Node16 -->
<g id="Node000016" class="node">
<title>Node16</title>
<g id="a_Node000016"><a xlink:href="../../d8/d48/classlci_1_1post__comm__x.html#af4a99ff113c37ad6618b8c0ead4961de" target="_top" xlink:title=" ">
<polygon fill="white" stroke="#666666" points="641,-412 487,-412 487,-382 641,-382 641,-412"/>
<text text-anchor="start" x="495" y="-400" font-family="Helvetica,sans-Serif" font-size="10.00">lci::post_comm_x::matching</text>
<text text-anchor="middle" x="564" y="-389" font-family="Helvetica,sans-Serif" font-size="10.00">_policy</text>
</a>
</g>
</g>
<!-- Node2&#45;&gt;Node16 -->
<g id="edge58_Node000002_Node000016" class="edge">
<title>Node2&#45;&gt;Node16</title>
<g id="a_edge58_Node000002_Node000016"><a xlink:title=" ">
<path fill="none" stroke="#63b8ff" d="M235.96,-423.46C252.31,-420.34 270.92,-417.13 288,-415 350.89,-407.16 422.33,-402.62 476.62,-400.06"/>
<polygon fill="#63b8ff" stroke="#63b8ff" points="477.07,-403.54 486.9,-399.58 476.75,-396.55 477.07,-403.54"/>
</a>
</g>
</g>
<!-- Node17 -->
<g id="Node000017" class="node">
<title>Node17</title>
<g id="a_Node000017"><a xlink:href="../../d8/d48/classlci_1_1post__comm__x.html#acc7a3e0f3f2f3b4f60c1cbf721955430" target="_top" xlink:title=" ">
<polygon fill="white" stroke="#666666" points="625,-363.5 503,-363.5 503,-344.5 625,-344.5 625,-363.5"/>
<text text-anchor="middle" x="564" y="-351.5" font-family="Helvetica,sans-Serif" font-size="10.00">lci::post_comm_x::mr</text>
</a>
</g>
</g>
<!-- Node2&#45;&gt;Node17 -->
<g id="edge59_Node000002_Node000017" class="edge">
<title>Node2&#45;&gt;Node17</title>
<g id="a_edge59_Node000002_Node000017"><a xlink:title=" ">
<path fill="none" stroke="#63b8ff" d="M213.37,-423.42C232.89,-415.58 261.87,-404.72 288,-398 356.55,-380.38 436.62,-368.52 492.63,-361.6"/>
<polygon fill="#63b8ff" stroke="#63b8ff" points="493.29,-365.04 502.8,-360.36 492.45,-358.09 493.29,-365.04"/>
</a>
</g>
</g>
<!-- Node18 -->
<g id="Node000018" class="node">
<title>Node18</title>
<g id="a_Node000018"><a xlink:href="../../d8/d48/classlci_1_1post__comm__x.html#a97897d1d8d6b9536ed256043814d2326" target="_top" xlink:title=" ">
<polygon fill="white" stroke="#666666" points="647.5,-326.5 480.5,-326.5 480.5,-307.5 647.5,-307.5 647.5,-326.5"/>
<text text-anchor="middle" x="564" y="-314.5" font-family="Helvetica,sans-Serif" font-size="10.00">lci::post_comm_x::packet_pool</text>
</a>
</g>
</g>
<!-- Node2&#45;&gt;Node18 -->
<g id="edge60_Node000002_Node000018" class="edge">
<title>Node2&#45;&gt;Node18</title>
<g id="a_edge60_Node000002_Node000018"><a xlink:title=" ">
<path fill="none" stroke="#63b8ff" d="M200.97,-423.32C217.88,-408.27 252.89,-379.47 288,-365 346,-341.1 415.66,-329.09 470.35,-323.07"/>
<polygon fill="#63b8ff" stroke="#63b8ff" points="470.81,-326.54 480.38,-322.01 470.07,-319.58 470.81,-326.54"/>
</a>
</g>
</g>
<!-- Node19 -->
<g id="Node000019" class="node">
<title>Node19</title>
<g id="a_Node000019"><a xlink:href="../../d8/d48/classlci_1_1post__comm__x.html#a585bbb73afe075d1ee694782f3790ba3" target="_top" xlink:title=" ">
<polygon fill="white" stroke="#666666" points="629,-289.5 499,-289.5 499,-270.5 629,-270.5 629,-289.5"/>
<text text-anchor="middle" x="564" y="-277.5" font-family="Helvetica,sans-Serif" font-size="10.00">lci::post_comm_x::rank</text>
</a>
</g>
</g>
<!-- Node2&#45;&gt;Node19 -->
<g id="edge61_Node000002_Node000019" class="edge">
<title>Node2&#45;&gt;Node19</title>
<g id="a_edge61_Node000002_Node000019"><a xlink:title=" ">
<path fill="none" stroke="#63b8ff" d="M195.84,-423.36C208.56,-401.38 242.99,-347.61 288,-323 349.9,-289.16 430.63,-279.93 488.58,-278.25"/>
<polygon fill="#63b8ff" stroke="#63b8ff" points="488.85,-281.74 498.77,-278.02 488.69,-274.75 488.85,-281.74"/>
</a>
</g>
</g>
<!-- Node20 -->
<g id="Node000020" class="node">
<title>Node20</title>
<g id="a_Node000020"><a xlink:href="../../d8/d48/classlci_1_1post__comm__x.html#a2e7b0182c47448aba2ac476d0515b204" target="_top" xlink:title=" ">
<polygon fill="white" stroke="#666666" points="652,-252.5 476,-252.5 476,-233.5 652,-233.5 652,-252.5"/>
<text text-anchor="middle" x="564" y="-240.5" font-family="Helvetica,sans-Serif" font-size="10.00">lci::post_comm_x::remote_comp</text>
</a>
</g>
</g>
<!-- Node2&#45;&gt;Node20 -->
<g id="edge62_Node000002_Node000020" class="edge">
<title>Node2&#45;&gt;Node20</title>
<g id="a_edge62_Node000002_Node000020"><a xlink:title=" ">
<path fill="none" stroke="#63b8ff" d="M193.33,-423.19C202.07,-394.93 231.45,-313.06 288,-277 340.22,-243.7 409.46,-235.3 465.4,-235.17"/>
<polygon fill="#63b8ff" stroke="#63b8ff" points="465.66,-238.67 475.69,-235.24 465.71,-231.67 465.66,-238.67"/>
</a>
</g>
</g>
<!-- Node21 -->
<g id="Node000021" class="node">
<title>Node21</title>
<g id="a_Node000021"><a xlink:href="../../d8/d48/classlci_1_1post__comm__x.html#aff40e0501e1d3575d07f5daa1e62131e" target="_top" xlink:title=" ">
<polygon fill="white" stroke="#666666" points="648.5,-215.5 479.5,-215.5 479.5,-196.5 648.5,-196.5 648.5,-215.5"/>
<text text-anchor="middle" x="564" y="-203.5" font-family="Helvetica,sans-Serif" font-size="10.00">lci::post_comm_x::remote_disp</text>
</a>
</g>
</g>
<!-- Node2&#45;&gt;Node21 -->
<g id="edge63_Node000002_Node000021" class="edge">
<title>Node2&#45;&gt;Node21</title>
<g id="a_edge63_Node000002_Node000021"><a xlink:title=" ">
<path fill="none" stroke="#63b8ff" d="M191.83,-423.25C196.98,-389.78 218.86,-278.9 288,-231 350.3,-187.84 440.54,-188.45 500.45,-195.24"/>
<polygon fill="#63b8ff" stroke="#63b8ff" points="500.18,-198.73 510.53,-196.47 501.02,-191.78 500.18,-198.73"/>
</a>
</g>
</g>
<!-- Node22 -->
<g id="Node000022" class="node">
<title>Node22</title>
<g id="a_Node000022"><a xlink:href="../../d8/d48/classlci_1_1post__comm__x.html#ac7c8004a77938b1252e4d6c00be2ecb1" target="_top" xlink:title=" ">
<polygon fill="white" stroke="#666666" points="626.5,-178.5 501.5,-178.5 501.5,-159.5 626.5,-159.5 626.5,-178.5"/>
<text text-anchor="middle" x="564" y="-166.5" font-family="Helvetica,sans-Serif" font-size="10.00">lci::post_comm_x::rmr</text>
</a>
</g>
</g>
<!-- Node2&#45;&gt;Node22 -->
<g id="edge64_Node000002_Node000022" class="edge">
<title>Node2&#45;&gt;Node22</title>
<g id="a_edge64_Node000002_Node000022"><a xlink:title=" ">
<path fill="none" stroke="#63b8ff" d="M190.89,-423.3C193.02,-385.41 206.3,-246.5 288,-187 353.81,-139.08 453.63,-146.91 513.17,-157.55"/>
<polygon fill="#63b8ff" stroke="#63b8ff" points="512.61,-161 523.09,-159.41 513.91,-154.12 512.61,-161"/>
</a>
</g>
</g>
<!-- Node23 -->
<g id="Node000023" class="node">
<title>Node23</title>
<g id="a_Node000023"><a xlink:href="../../d8/d48/classlci_1_1post__comm__x.html#a5e0a01b764e117c34c93ca67b4ac4ea1" target="_top" xlink:title=" ">
<polygon fill="white" stroke="#666666" points="637,-141.5 491,-141.5 491,-122.5 637,-122.5 637,-141.5"/>
<text text-anchor="middle" x="564" y="-129.5" font-family="Helvetica,sans-Serif" font-size="10.00">lci::post_comm_x::runtime</text>
</a>
</g>
</g>
<!-- Node2&#45;&gt;Node23 -->
<g id="edge65_Node000002_Node000023" class="edge">
<title>Node2&#45;&gt;Node23</title>
<g id="a_edge65_Node000002_Node000023"><a xlink:title=" ">
<path fill="none" stroke="#63b8ff" d="M190.26,-423.41C189.78,-381.8 193.99,-215.85 288,-145 317.38,-122.86 410.85,-122.65 480.72,-125.99"/>
<polygon fill="#63b8ff" stroke="#63b8ff" points="480.68,-129.5 490.85,-126.51 481.04,-122.5 480.68,-129.5"/>
</a>
</g>
</g>
<!-- Node24 -->
<g id="Node000024" class="node">
<title>Node24</title>
<g id="a_Node000024"><a xlink:href="../../d8/d48/classlci_1_1post__comm__x.html#ad5675593b1c63c632d12b4d829cfc17a" target="_top" xlink:title=" ">
<polygon fill="white" stroke="#666666" points="628,-104.5 500,-104.5 500,-85.5 628,-85.5 628,-104.5"/>
<text text-anchor="middle" x="564" y="-92.5" font-family="Helvetica,sans-Serif" font-size="10.00">lci::post_comm_x::size</text>
</a>
</g>
</g>
<!-- Node2&#45;&gt;Node24 -->
<g id="edge66_Node000002_Node000024" class="edge">
<title>Node2&#45;&gt;Node24</title>
<g id="a_edge66_Node000002_Node000024"><a xlink:title=" ">
<path fill="none" stroke="#63b8ff" d="M190.04,-423.31C188.56,-379.68 188.85,-200.14 288,-120 350.47,-69.51 448.97,-74.4 509.58,-83.81"/>
<polygon fill="#63b8ff" stroke="#63b8ff" points="509.27,-87.31 519.7,-85.48 510.41,-80.4 509.27,-87.31"/>
</a>
</g>
</g>
<!-- Node25 -->
<g id="Node000025" class="node">
<title>Node25</title>
<g id="a_Node000025"><a xlink:href="../../d8/d48/classlci_1_1post__comm__x.html#ac61d3e4ae9c78551510080c9080181af" target="_top" xlink:title=" ">
<polygon fill="white" stroke="#666666" points="626,-67.5 502,-67.5 502,-48.5 626,-48.5 626,-67.5"/>
<text text-anchor="middle" x="564" y="-55.5" font-family="Helvetica,sans-Serif" font-size="10.00">lci::post_comm_x::tag</text>
</a>
</g>
</g>
<!-- Node2&#45;&gt;Node25 -->
<g id="edge67_Node000002_Node000025" class="edge">
<title>Node2&#45;&gt;Node25</title>
<g id="a_edge67_Node000002_Node000025"><a xlink:title=" ">
<path fill="none" stroke="#63b8ff" d="M191.6,-423.39C197.83,-370.91 230.37,-119.64 288,-73 318.16,-48.59 420.57,-49.1 491.53,-52.75"/>
<polygon fill="#63b8ff" stroke="#63b8ff" points="491.58,-56.25 501.76,-53.3 491.96,-49.26 491.58,-56.25"/>
</a>
</g>
</g>
<!-- Node26 -->
<g id="Node000026" class="node">
<title>Node26</title>
<g id="a_Node000026"><a xlink:href="../../d8/d48/classlci_1_1post__comm__x.html#a77cf8049d80a743e5793fe1bfe47037b" target="_top" xlink:title=" ">
<polygon fill="white" stroke="#666666" points="628.5,-30 499.5,-30 499.5,0 628.5,0 628.5,-30"/>
<text text-anchor="start" x="507.5" y="-18" font-family="Helvetica,sans-Serif" font-size="10.00">lci::post_comm_x::user</text>
<text text-anchor="middle" x="564" y="-7" font-family="Helvetica,sans-Serif" font-size="10.00">_context</text>
</a>
</g>
</g>
<!-- Node2&#45;&gt;Node26 -->
<g id="edge68_Node000002_Node000026" class="edge">
<title>Node2&#45;&gt;Node26</title>
<g id="a_edge68_Node000002_Node000026"><a xlink:title=" ">
<path fill="none" stroke="#63b8ff" d="M191.46,-423.49C197.16,-369.22 228.22,-99.39 288,-47 342.44,0.71 428.01,3.36 489.24,-2.55"/>
<polygon fill="#63b8ff" stroke="#63b8ff" points="488.92,-6.03 499.23,-3.61 489.65,0.93 488.92,-6.03"/>
</a>
</g>
</g>
<!-- Node4 -->
<g id="Node000004" class="node">
<title>Node4</title>
<g id="a_Node000004"><a xlink:href="../../d8/d48/classlci_1_1post__comm__x.html#a80b57b5b1a98ae641edbaca6cd109883" target="_top" xlink:title=" ">
<polygon fill="white" stroke="#666666" points="817,-436 688,-436 688,-406 817,-406 817,-436"/>
<text text-anchor="start" x="696" y="-424" font-family="Helvetica,sans-Serif" font-size="10.00">lci::post_comm_x::post</text>
<text text-anchor="middle" x="752.5" y="-413" font-family="Helvetica,sans-Serif" font-size="10.00">_comm_x</text>
</a>
</g>
</g>
<!-- Node3&#45;&gt;Node4 -->
<g id="edge3_Node000003_Node000004" class="edge">
<title>Node3&#45;&gt;Node4</title>
<g id="a_edge3_Node000003_Node000004"><a xlink:title=" ">
<path fill="none" stroke="#63b8ff" d="M638.98,-868.49C643.74,-865.93 648.16,-862.81 652,-859 711.54,-799.95 741.27,-530.97 749.25,-446.48"/>
<polygon fill="#63b8ff" stroke="#63b8ff" points="752.74,-446.74 750.17,-436.46 745.77,-446.1 752.74,-446.74"/>
</a>
</g>
</g>
<!-- Node5&#45;&gt;Node4 -->
<g id="edge5_Node000005_Node000004" class="edge">
<title>Node5&#45;&gt;Node4</title>
<g id="a_edge5_Node000005_Node000004"><a xlink:title=" ">
<path fill="none" stroke="#63b8ff" d="M631.39,-824.84C639.05,-821.43 646.19,-816.93 652,-811 703.99,-757.99 738.23,-524.25 748.36,-446.36"/>
<polygon fill="#63b8ff" stroke="#63b8ff" points="751.83,-446.8 749.63,-436.44 744.89,-445.91 751.83,-446.8"/>
</a>
</g>
</g>
<!-- Node6&#45;&gt;Node4 -->
<g id="edge7_Node000006_Node000004" class="edge">
<title>Node6&#45;&gt;Node4</title>
<g id="a_edge7_Node000006_Node000004"><a xlink:title=" ">
<path fill="none" stroke="#63b8ff" d="M631.2,-776.66C638.89,-773.28 646.09,-768.83 652,-763 741.92,-674.32 751.7,-509.46 751.97,-446.42"/>
<polygon fill="#63b8ff" stroke="#63b8ff" points="755.47,-446.19 751.93,-436.2 748.47,-446.21 755.47,-446.19"/>
</a>
</g>
</g>
<!-- Node7&#45;&gt;Node3 -->
<g id="edge9_Node000007_Node000003" class="edge">
<title>Node7&#45;&gt;Node3</title>
<g id="a_edge9_Node000007_Node000003"><a xlink:title=" ">
<path fill="none" stroke="#63b8ff" d="M366.15,-442.64C373.19,-500.19 412.35,-797.84 476,-859 477.46,-860.41 479,-861.72 480.61,-862.94"/>
<polygon fill="#63b8ff" stroke="#63b8ff" points="478.84,-865.96 489.16,-868.35 482.58,-860.04 478.84,-865.96"/>
</a>
</g>
</g>
<!-- Node7&#45;&gt;Node5 -->
<g id="edge10_Node000007_Node000005" class="edge">
<title>Node7&#45;&gt;Node5</title>
<g id="a_edge10_Node000007_Node000005"><a xlink:title=" ">
<path fill="none" stroke="#63b8ff" d="M364.68,-442.57C363.66,-490.06 365.56,-702.36 476,-811 479.52,-814.46 483.48,-817.43 487.73,-819.98"/>
<polygon fill="#63b8ff" stroke="#63b8ff" points="486.32,-823.19 496.81,-824.65 489.52,-816.96 486.32,-823.19"/>
</a>
</g>
</g>
<!-- Node7&#45;&gt;Node6 -->
<g id="edge11_Node000007_Node000006" class="edge">
<title>Node7&#45;&gt;Node6</title>
<g id="a_edge11_Node000007_Node000006"><a xlink:title=" ">
<path fill="none" stroke="#63b8ff" d="M365.15,-442.52C366.38,-486.26 377.43,-669.73 476,-763 479.51,-766.32 483.45,-769.2 487.64,-771.68"/>
<polygon fill="#63b8ff" stroke="#63b8ff" points="486.09,-774.81 496.59,-776.24 489.27,-768.58 486.09,-774.81"/>
</a>
</g>
</g>
<!-- Node7&#45;&gt;Node8 -->
<g id="edge12_Node000007_Node000008" class="edge">
<title>Node7&#45;&gt;Node8</title>
<g id="a_edge12_Node000007_Node000008"><a xlink:title=" ">
<path fill="none" stroke="#63b8ff" d="M365.78,-442.74C369.55,-482.88 389.35,-637.07 476,-715 479.43,-718.09 483.23,-720.79 487.26,-723.14"/>
<polygon fill="#63b8ff" stroke="#63b8ff" points="485.91,-726.37 496.41,-727.76 489.06,-720.13 485.91,-726.37"/>
</a>
</g>
</g>
<!-- Node7&#45;&gt;Node9 -->
<g id="edge14_Node000007_Node000009" class="edge">
<title>Node7&#45;&gt;Node9</title>
<g id="a_edge14_Node000007_Node000009"><a xlink:title=" ">
<path fill="none" stroke="#63b8ff" d="M366.24,-442.62C371.57,-479.62 395.96,-613.97 476,-678 478.65,-680.12 481.49,-682.01 484.46,-683.69"/>
<polygon fill="#63b8ff" stroke="#63b8ff" points="483.2,-686.97 493.73,-688.13 486.23,-680.65 483.2,-686.97"/>
</a>
</g>
</g>
<!-- Node7&#45;&gt;Node10 -->
<g id="edge16_Node000007_Node000010" class="edge">
<title>Node7&#45;&gt;Node10</title>
<g id="a_edge16_Node000007_Node000010"><a xlink:title=" ">
<path fill="none" stroke="#63b8ff" d="M367.1,-442.77C374.85,-476.37 405.21,-588.04 476,-641 477.67,-642.25 479.4,-643.41 481.19,-644.5"/>
<polygon fill="#63b8ff" stroke="#63b8ff" points="480.04,-647.85 490.53,-649.34 483.26,-641.63 480.04,-647.85"/>
</a>
</g>
</g>
<!-- Node7&#45;&gt;Node11 -->
<g id="edge18_Node000007_Node000011" class="edge">
<title>Node7&#45;&gt;Node11</title>
<g id="a_edge18_Node000007_Node000011"><a xlink:title=" ">
<path fill="none" stroke="#63b8ff" d="M368.26,-442.58C378.73,-471.83 414.48,-560.58 476,-603 478.89,-604.99 481.95,-606.78 485.12,-608.38"/>
<polygon fill="#63b8ff" stroke="#63b8ff" points="483.79,-611.62 494.35,-612.44 486.6,-605.21 483.79,-611.62"/>
</a>
</g>
</g>
<!-- Node7&#45;&gt;Node12 -->
<g id="edge20_Node000007_Node000012" class="edge">
<title>Node7&#45;&gt;Node12</title>
<g id="a_edge20_Node000007_Node000012"><a xlink:title=" ">
<path fill="none" stroke="#63b8ff" d="M370.93,-442.61C385.69,-465.69 426.47,-524.57 476,-555 479.78,-557.32 483.79,-559.43 487.93,-561.33"/>
<polygon fill="#63b8ff" stroke="#63b8ff" points="486.6,-564.56 497.17,-565.18 489.29,-558.1 486.6,-564.56"/>
</a>
</g>
</g>
<!-- Node7&#45;&gt;Node13 -->
<g id="edge22_Node000007_Node000013" class="edge">
<title>Node7&#45;&gt;Node13</title>
<g id="a_edge22_Node000007_Node000013"><a xlink:title=" ">
<path fill="none" stroke="#63b8ff" d="M376.57,-442.56C395.98,-458.15 436.82,-489.1 476,-507 480.32,-508.97 484.83,-510.81 489.43,-512.53"/>
<polygon fill="#63b8ff" stroke="#63b8ff" points="488.37,-515.86 498.96,-515.87 490.68,-509.26 488.37,-515.86"/>
</a>
</g>
</g>
<!-- Node7&#45;&gt;Node14 -->
<g id="edge24_Node000007_Node000014" class="edge">
<title>Node7&#45;&gt;Node14</title>
<g id="a_edge24_Node000007_Node000014"><a xlink:title=" ">
<path fill="none" stroke="#63b8ff" d="M392.14,-442.63C414.48,-450.36 447.06,-461.17 476,-469 485.51,-471.57 495.68,-474.05 505.59,-476.3"/>
<polygon fill="#63b8ff" stroke="#63b8ff" points="504.86,-479.73 515.38,-478.49 506.39,-472.89 504.86,-479.73"/>
</a>
</g>
</g>
<!-- Node7&#45;&gt;Node15 -->
<g id="edge26_Node000007_Node000015" class="edge">
<title>Node7&#45;&gt;Node15</title>
<g id="a_edge26_Node000007_Node000015"><a xlink:title=" ">
<path fill="none" stroke="#63b8ff" d="M440.14,-437.55C452.1,-438.28 464.56,-439.03 476.76,-439.77"/>
<polygon fill="#63b8ff" stroke="#63b8ff" points="476.73,-443.28 486.93,-440.39 477.16,-436.29 476.73,-443.28"/>
</a>
</g>
</g>
<!-- Node7&#45;&gt;Node16 -->
<g id="edge28_Node000007_Node000016" class="edge">
<title>Node7&#45;&gt;Node16</title>
<g id="a_edge28_Node000007_Node000016"><a xlink:title=" ">
<path fill="none" stroke="#63b8ff" d="M417.28,-423.49C435.6,-420.16 456.68,-416.33 477.01,-412.63"/>
<polygon fill="#63b8ff" stroke="#63b8ff" points="477.71,-416.07 486.92,-410.83 476.46,-409.18 477.71,-416.07"/>
</a>
</g>
</g>
<!-- Node7&#45;&gt;Node17 -->
<g id="edge30_Node000007_Node000017" class="edge">
<title>Node7&#45;&gt;Node17</title>
<g id="a_edge30_Node000007_Node000017"><a xlink:title=" ">
<path fill="none" stroke="#63b8ff" d="M379.45,-423.46C400.06,-410.27 439.44,-386.56 476,-373 483.05,-370.38 490.57,-368.07 498.12,-366.05"/>
<polygon fill="#63b8ff" stroke="#63b8ff" points="499.18,-369.39 508.03,-363.55 497.47,-362.6 499.18,-369.39"/>
</a>
</g>
</g>
<!-- Node7&#45;&gt;Node18 -->
<g id="edge32_Node000007_Node000018" class="edge">
<title>Node7&#45;&gt;Node18</title>
<g id="a_edge32_Node000007_Node000018"><a xlink:title=" ">
<path fill="none" stroke="#63b8ff" d="M373.05,-423.23C389.93,-403.44 431.2,-358.57 476,-336 480.83,-333.57 485.97,-331.44 491.24,-329.59"/>
<polygon fill="#63b8ff" stroke="#63b8ff" points="492.36,-332.91 500.83,-326.54 490.24,-326.24 492.36,-332.91"/>
</a>
</g>
</g>
<!-- Node7&#45;&gt;Node19 -->
<g id="edge34_Node000007_Node000019" class="edge">
<title>Node7&#45;&gt;Node19</title>
<g id="a_edge34_Node000007_Node000019"><a xlink:title=" ">
<path fill="none" stroke="#63b8ff" d="M369.97,-423.37C383.36,-398.41 422.85,-331.37 476,-299 480.16,-296.47 484.6,-294.27 489.21,-292.37"/>
<polygon fill="#63b8ff" stroke="#63b8ff" points="490.65,-295.57 498.84,-288.85 488.25,-288.99 490.65,-295.57"/>
</a>
</g>
</g>
<!-- Node7&#45;&gt;Node20 -->
<g id="edge36_Node000007_Node000020" class="edge">
<title>Node7&#45;&gt;Node20</title>
<g id="a_edge36_Node000007_Node000020"><a xlink:title=" ">
<path fill="none" stroke="#63b8ff" d="M368.24,-423.36C378.66,-393.94 414.29,-304.68 476,-262 478.88,-260 481.94,-258.21 485.12,-256.61"/>
<polygon fill="#63b8ff" stroke="#63b8ff" points="486.6,-259.78 494.34,-252.55 483.78,-253.37 486.6,-259.78"/>
</a>
</g>
</g>
<!-- Node7&#45;&gt;Node21 -->
<g id="edge38_Node000007_Node000021" class="edge">
<title>Node7&#45;&gt;Node21</title>
<g id="a_edge38_Node000007_Node000021"><a xlink:title=" ">
<path fill="none" stroke="#63b8ff" d="M367.12,-423.26C374.95,-389.75 405.5,-278.35 476,-225 478.37,-223.21 480.87,-221.58 483.48,-220.09"/>
<polygon fill="#63b8ff" stroke="#63b8ff" points="485.23,-223.13 492.68,-215.6 482.15,-216.84 485.23,-223.13"/>
</a>
</g>
</g>
<!-- Node7&#45;&gt;Node22 -->
<g id="edge40_Node000007_Node000022" class="edge">
<title>Node7&#45;&gt;Node22</title>
<g id="a_edge40_Node000007_Node000022"><a xlink:title=" ">
<path fill="none" stroke="#63b8ff" d="M366.27,-423.41C371.67,-386.5 396.31,-252.47 476,-188 480.7,-184.2 485.99,-181.12 491.58,-178.62"/>
<polygon fill="#63b8ff" stroke="#63b8ff" points="493.12,-181.78 501.23,-174.95 490.64,-175.24 493.12,-181.78"/>
</a>
</g>
</g>
<!-- Node7&#45;&gt;Node23 -->
<g id="edge42_Node000007_Node000023" class="edge">
<title>Node7&#45;&gt;Node23</title>
<g id="a_edge42_Node000007_Node000023"><a xlink:title=" ">
<path fill="none" stroke="#63b8ff" d="M365.65,-423.41C368.9,-383.18 387.07,-226.73 476,-151 477.82,-149.45 479.73,-148.02 481.72,-146.7"/>
<polygon fill="#63b8ff" stroke="#63b8ff" points="483.88,-149.51 490.91,-141.58 480.47,-143.39 483.88,-149.51"/>
</a>
</g>
</g>
<!-- Node7&#45;&gt;Node24 -->
<g id="edge44_Node000007_Node000024" class="edge">
<title>Node7&#45;&gt;Node24</title>
<g id="a_edge44_Node000007_Node000024"><a xlink:title=" ">
<path fill="none" stroke="#63b8ff" d="M365.16,-423.38C366.45,-380.02 377.73,-201.15 476,-114 480.27,-110.22 485.11,-107.13 490.27,-104.62"/>
<polygon fill="#63b8ff" stroke="#63b8ff" points="491.93,-107.72 499.86,-100.69 489.28,-101.24 491.93,-107.72"/>
</a>
</g>
</g>
<!-- Node7&#45;&gt;Node25 -->
<g id="edge46_Node000007_Node000025" class="edge">
<title>Node7&#45;&gt;Node25</title>
<g id="a_edge46_Node000007_Node000025"><a xlink:title=" ">
<path fill="none" stroke="#63b8ff" d="M364.77,-423.24C364.23,-376.73 368.37,-175.63 476,-77 480.79,-72.61 486.35,-69.15 492.29,-66.44"/>
<polygon fill="#63b8ff" stroke="#63b8ff" points="493.82,-69.6 501.9,-62.75 491.31,-63.06 493.82,-69.6"/>
</a>
</g>
</g>
<!-- Node7&#45;&gt;Node26 -->
<g id="edge48_Node000007_Node000026" class="edge">
<title>Node7&#45;&gt;Node26</title>
<g id="a_edge48_Node000007_Node000026"><a xlink:title=" ">
<path fill="none" stroke="#63b8ff" d="M364.55,-423.36C362.81,-374.56 361.62,-152.76 476,-39 480.2,-34.82 485.05,-31.36 490.28,-28.48"/>
<polygon fill="#63b8ff" stroke="#63b8ff" points="491.83,-31.62 499.38,-24.18 488.84,-25.29 491.83,-31.62"/>
</a>
</g>
</g>
<!-- Node8&#45;&gt;Node4 -->
<g id="edge13_Node000008_Node000004" class="edge">
<title>Node8&#45;&gt;Node4</title>
<g id="a_edge13_Node000008_Node000004"><a xlink:title=" ">
<path fill="none" stroke="#63b8ff" d="M631.84,-728.03C639.24,-724.74 646.19,-720.49 652,-715 730.41,-640.95 747.04,-502.97 750.56,-446.29"/>
<polygon fill="#63b8ff" stroke="#63b8ff" points="754.06,-446.26 751.1,-436.09 747.07,-445.89 754.06,-446.26"/>
</a>
</g>
</g>
<!-- Node9&#45;&gt;Node4 -->
<g id="edge15_Node000009_Node000004" class="edge">
<title>Node9&#45;&gt;Node4</title>
<g id="a_edge15_Node000009_Node000004"><a xlink:title=" ">
<path fill="none" stroke="#63b8ff" d="M634.09,-688.62C640.58,-685.95 646.7,-682.49 652,-678 723.75,-617.23 743.98,-498.31 749.5,-446.33"/>
<polygon fill="#63b8ff" stroke="#63b8ff" points="752.99,-446.59 750.47,-436.3 746.03,-445.92 752.99,-446.59"/>
</a>
</g>
</g>
<!-- Node10&#45;&gt;Node4 -->
<g id="edge17_Node000010_Node000004" class="edge">
<title>Node10&#45;&gt;Node4</title>
<g id="a_edge17_Node000010_Node000004"><a xlink:title=" ">
<path fill="none" stroke="#63b8ff" d="M638.14,-649.46C643.1,-647.16 647.79,-644.37 652,-641 714.71,-590.8 739.29,-492.47 747.69,-446.21"/>
<polygon fill="#63b8ff" stroke="#63b8ff" points="751.17,-446.58 749.4,-436.13 744.27,-445.4 751.17,-446.58"/>
</a>
</g>
</g>
<!-- Node11&#45;&gt;Node4 -->
<g id="edge19_Node000011_Node000004" class="edge">
<title>Node11&#45;&gt;Node4</title>
<g id="a_edge19_Node000011_Node000004"><a xlink:title=" ">
<path fill="none" stroke="#63b8ff" d="M635.28,-612.35C641.25,-609.87 646.93,-606.8 652,-603 705.45,-562.98 733.67,-485.44 745.17,-445.74"/>
<polygon fill="#63b8ff" stroke="#63b8ff" points="748.56,-446.63 747.86,-436.06 741.81,-444.76 748.56,-446.63"/>
</a>
</g>
</g>
<!-- Node12&#45;&gt;Node4 -->
<g id="edge21_Node000012_Node000004" class="edge">
<title>Node12&#45;&gt;Node4</title>
<g id="a_edge21_Node000012_Node000004"><a xlink:title=" ">
<path fill="none" stroke="#63b8ff" d="M630.79,-565.99C638.28,-563.04 645.54,-559.43 652,-555 693.41,-526.63 724.35,-475.29 740.01,-445.06"/>
<polygon fill="#63b8ff" stroke="#63b8ff" points="743.18,-446.55 744.56,-436.04 736.93,-443.4 743.18,-446.55"/>
</a>
</g>
</g>
<!-- Node13&#45;&gt;Node4 -->
<g id="edge23_Node000013_Node000004" class="edge">
<title>Node13&#45;&gt;Node4</title>
<g id="a_edge23_Node000013_Node000004"><a xlink:title=" ">
<path fill="none" stroke="#63b8ff" d="M629.92,-516.56C637.56,-513.86 645.09,-510.69 652,-507 682.93,-490.46 712.57,-462.81 731.32,-443.33"/>
<polygon fill="#63b8ff" stroke="#63b8ff" points="733.88,-445.73 738.2,-436.05 728.79,-440.92 733.88,-445.73"/>
</a>
</g>
</g>
<!-- Node14&#45;&gt;Node4 -->
<g id="edge25_Node000014_Node000004" class="edge">
<title>Node14&#45;&gt;Node4</title>
<g id="a_edge25_Node000014_Node000004"><a xlink:title=" ">
<path fill="none" stroke="#63b8ff" d="M618.46,-478.4C629.67,-475.81 641.33,-472.68 652,-469 673.87,-461.45 697.22,-450.36 715.8,-440.74"/>
<polygon fill="#63b8ff" stroke="#63b8ff" points="717.56,-443.77 724.78,-436.02 714.3,-437.58 717.56,-443.77"/>
</a>
</g>
</g>
<!-- Node15&#45;&gt;Node4 -->
<g id="edge27_Node000015_Node000004" class="edge">
<title>Node15&#45;&gt;Node4</title>
<g id="a_edge27_Node000015_Node000004"><a xlink:title=" ">
<path fill="none" stroke="#63b8ff" d="M641.13,-435.2C653.24,-433.64 665.76,-432.03 677.82,-430.48"/>
<polygon fill="#63b8ff" stroke="#63b8ff" points="678.35,-433.94 687.83,-429.19 677.46,-427 678.35,-433.94"/>
</a>
</g>
</g>
<!-- Node16&#45;&gt;Node4 -->
<g id="edge29_Node000016_Node000004" class="edge">
<title>Node16&#45;&gt;Node4</title>
<g id="a_edge29_Node000016_Node000004"><a xlink:title=" ">
<path fill="none" stroke="#63b8ff" d="M641.13,-406.8C653.24,-408.36 665.76,-409.97 677.82,-411.52"/>
<polygon fill="#63b8ff" stroke="#63b8ff" points="677.46,-415 687.83,-412.81 678.35,-408.06 677.46,-415"/>
</a>
</g>
</g>
<!-- Node17&#45;&gt;Node4 -->
<g id="edge31_Node000017_Node000004" class="edge">
<title>Node17&#45;&gt;Node4</title>
<g id="a_edge31_Node000017_Node000004"><a xlink:title=" ">
<path fill="none" stroke="#63b8ff" d="M618.46,-363.6C629.67,-366.19 641.33,-369.32 652,-373 673.87,-380.55 697.22,-391.64 715.8,-401.26"/>
<polygon fill="#63b8ff" stroke="#63b8ff" points="714.3,-404.42 724.78,-405.98 717.56,-398.23 714.3,-404.42"/>
</a>
</g>
</g>
<!-- Node18&#45;&gt;Node4 -->
<g id="edge33_Node000018_Node000004" class="edge">
<title>Node18&#45;&gt;Node4</title>
<g id="a_edge33_Node000018_Node000004"><a xlink:title=" ">
<path fill="none" stroke="#63b8ff" d="M627.13,-326.62C635.72,-329.07 644.25,-332.15 652,-336 683.12,-351.46 712.57,-378.78 731.23,-398.28"/>
<polygon fill="#63b8ff" stroke="#63b8ff" points="728.92,-400.93 738.31,-405.84 734.03,-396.14 728.92,-400.93"/>
</a>
</g>
</g>
<!-- Node19&#45;&gt;Node4 -->
<g id="edge35_Node000019_Node000004" class="edge">
<title>Node19&#45;&gt;Node4</title>
<g id="a_edge35_Node000019_Node000004"><a xlink:title=" ">
<path fill="none" stroke="#63b8ff" d="M629.19,-288.8C637.2,-291.38 645.02,-294.71 652,-299 691.55,-323.29 722.41,-369.03 738.71,-397.08"/>
<polygon fill="#63b8ff" stroke="#63b8ff" points="735.7,-398.88 743.67,-405.86 741.79,-395.43 735.7,-398.88"/>
</a>
</g>
</g>
<!-- Node20&#45;&gt;Node4 -->
<g id="edge37_Node000020_Node000004" class="edge">
<title>Node20&#45;&gt;Node4</title>
<g id="a_edge37_Node000020_Node000004"><a xlink:title=" ">
<path fill="none" stroke="#63b8ff" d="M634.17,-252.63C640.5,-255.1 646.56,-258.17 652,-262 699.99,-295.78 729.72,-360.79 743.12,-396.33"/>
<polygon fill="#63b8ff" stroke="#63b8ff" points="739.9,-397.73 746.61,-405.93 746.48,-395.33 739.9,-397.73"/>
</a>
</g>
</g>
<!-- Node21&#45;&gt;Node4 -->
<g id="edge39_Node000021_Node000004" class="edge">
<title>Node21&#45;&gt;Node4</title>
<g id="a_edge39_Node000021_Node000004"><a xlink:title=" ">
<path fill="none" stroke="#63b8ff" d="M635.84,-215.68C641.62,-218.15 647.11,-221.22 652,-225 708.66,-268.8 735.72,-353.71 746.13,-395.92"/>
<polygon fill="#63b8ff" stroke="#63b8ff" points="742.78,-396.98 748.48,-405.92 749.6,-395.38 742.78,-396.98"/>
</a>
</g>
</g>
<!-- Node22&#45;&gt;Node4 -->
<g id="edge41_Node000022_Node000004" class="edge">
<title>Node22&#45;&gt;Node4</title>
<g id="a_edge41_Node000022_Node000004"><a xlink:title=" ">
<path fill="none" stroke="#63b8ff" d="M626.89,-174.81C635.99,-177.76 644.73,-181.99 652,-188 717.56,-242.23 740.85,-347.53 748.32,-395.77"/>
<polygon fill="#63b8ff" stroke="#63b8ff" points="744.9,-396.55 749.79,-405.95 751.83,-395.55 744.9,-396.55"/>
</a>
</g>
</g>
<!-- Node23&#45;&gt;Node4 -->
<g id="edge43_Node000023_Node000004" class="edge">
<title>Node23&#45;&gt;Node4</title>
<g id="a_edge43_Node000023_Node000004"><a xlink:title=" ">
<path fill="none" stroke="#63b8ff" d="M637.18,-141.48C642.54,-144.01 647.57,-147.14 652,-151 726.73,-216.06 745.39,-342.37 750,-395.98"/>
<polygon fill="#63b8ff" stroke="#63b8ff" points="746.52,-396.27 750.77,-405.98 753.5,-395.74 746.52,-396.27"/>
</a>
</g>
</g>
<!-- Node24&#45;&gt;Node4 -->
<g id="edge45_Node000024_Node000004" class="edge">
<title>Node24&#45;&gt;Node4</title>
<g id="a_edge45_Node000024_Node000004"><a xlink:title=" ">
<path fill="none" stroke="#63b8ff" d="M628.26,-100.56C636.98,-103.56 645.24,-107.88 652,-114 735.66,-189.81 749.27,-336.49 751.27,-395.5"/>
<polygon fill="#63b8ff" stroke="#63b8ff" points="747.77,-395.87 751.52,-405.77 754.77,-395.69 747.77,-395.87"/>
</a>
</g>
</g>
<!-- Node25&#45;&gt;Node4 -->
<g id="edge47_Node000025_Node000004" class="edge">
<title>Node25&#45;&gt;Node4</title>
<g id="a_edge47_Node000025_Node000004"><a xlink:title=" ">
<path fill="none" stroke="#63b8ff" d="M626.21,-62.62C635.72,-65.67 644.77,-70.24 652,-77 744.94,-163.95 752.86,-331.81 752.31,-395.58"/>
<polygon fill="#63b8ff" stroke="#63b8ff" points="748.81,-395.84 752.14,-405.9 755.8,-395.96 748.81,-395.84"/>
</a>
</g>
</g>
<!-- Node26&#45;&gt;Node4 -->
<g id="edge49_Node000026_Node000004" class="edge">
<title>Node26&#45;&gt;Node4</title>
<g id="a_edge49_Node000026_Node000004"><a xlink:title=" ">
<path fill="none" stroke="#63b8ff" d="M628.74,-24.07C637.39,-27.59 645.51,-32.42 652,-39 703.01,-90.75 737.79,-318.91 748.22,-395.69"/>
<polygon fill="#63b8ff" stroke="#63b8ff" points="744.79,-396.43 749.58,-405.88 751.73,-395.5 744.79,-396.43"/>
</a>
</g>
</g>
</g>
</svg>
