<?xml version="1.0" encoding="UTF-8" standalone="no"?>
<!DOCTYPE svg PUBLIC "-//W3C//DTD SVG 1.1//EN"
 "http://www.w3.org/Graphics/SVG/1.1/DTD/svg11.dtd">
<!-- Generated by graphviz version 2.43.0 (0)
 -->
<!-- Title: lci::free_matching_engine Pages: 1 -->
<svg width="737pt" height="98pt"
 viewBox="0.00 0.00 737.00 97.50" xmlns="http://www.w3.org/2000/svg" xmlns:xlink="http://www.w3.org/1999/xlink">
<g id="graph0" class="graph" transform="scale(1 1) rotate(0) translate(4 93.5)">
<title>lci::free_matching_engine</title>
<!-- Node1 -->
<g id="Node000001" class="node">
<title>Node1</title>
<g id="a_Node000001"><a xlink:title=" ">
<polygon fill="#999999" stroke="#666666" points="104,-57 0,-57 0,-27 104,-27 104,-57"/>
<text text-anchor="start" x="8" y="-45" font-family="Helvetica,sans-Serif" font-size="10.00">lci::free_matching</text>
<text text-anchor="middle" x="52" y="-34" font-family="Helvetica,sans-Serif" font-size="10.00">_engine</text>
</a>
</g>
</g>
<!-- Node2 -->
<g id="Node000002" class="node">
<title>Node2</title>
<g id="a_Node000002"><a xlink:href="../../d3/ddc/classlci_1_1free__matching__engine__x.html#ad16ea9cbd5b3ef92621aff51935b404f" target="_top" xlink:title=" ">
<polygon fill="white" stroke="#666666" points="244,-57 140,-57 140,-27 244,-27 244,-57"/>
<text text-anchor="start" x="148" y="-45" font-family="Helvetica,sans-Serif" font-size="10.00">lci::free_matching</text>
<text text-anchor="middle" x="192" y="-34" font-family="Helvetica,sans-Serif" font-size="10.00">_engine_x::call</text>
</a>
</g>
</g>
<!-- Node1&#45;&gt;Node2 -->
<g id="edge1_Node000001_Node000002" class="edge">
<title>Node1&#45;&gt;Node2</title>
<g id="a_edge1_Node000001_Node000002"><a xlink:title=" ">
<path fill="none" stroke="#63b8ff" d="M104.39,-42C112.56,-42 121.08,-42 129.46,-42"/>
<polygon fill="#63b8ff" stroke="#63b8ff" points="129.57,-45.5 139.57,-42 129.57,-38.5 129.57,-45.5"/>
</a>
</g>
</g>
<!-- Node3 -->
<g id="Node000003" class="node">
<title>Node3</title>
<g id="a_Node000003"><a xlink:href="../../d3/ddc/classlci_1_1free__matching__engine__x.html#a2a5ca7abee7278740c94701904fe8ef2" target="_top" xlink:title=" ">
<polygon fill="white" stroke="#666666" points="396,-57 280,-57 280,-27 396,-27 396,-57"/>
<text text-anchor="start" x="288" y="-45" font-family="Helvetica,sans-Serif" font-size="10.00">lci::free_matching</text>
<text text-anchor="middle" x="338" y="-34" font-family="Helvetica,sans-Serif" font-size="10.00">_engine_x::call_impl</text>
</a>
</g>
</g>
<!-- Node2&#45;&gt;Node3 -->
<g id="edge2_Node000002_Node000003" class="edge">
<title>Node2&#45;&gt;Node3</title>
<g id="a_edge2_Node000002_Node000003"><a xlink:title=" ">
<path fill="none" stroke="#63b8ff" d="M244.17,-42C252.34,-42 260.89,-42 269.36,-42"/>
<polygon fill="#63b8ff" stroke="#63b8ff" points="269.62,-45.5 279.62,-42 269.62,-38.5 269.62,-45.5"/>
</a>
</g>
</g>
<!-- Node4 -->
<g id="Node000004" class="node">
<title>Node4</title>
<g id="a_Node000004"><a xlink:href="../../d3/ddc/classlci_1_1free__matching__engine__x.html#a46a1ed7d273c9e53193d7a53fddb8252" target="_top" xlink:title=" ">
<polygon fill="white" stroke="#666666" points="550,-89.5 432,-89.5 432,-48.5 550,-48.5 550,-89.5"/>
<text text-anchor="start" x="440" y="-77.5" font-family="Helvetica,sans-Serif" font-size="10.00">lci::free_matching</text>
<text text-anchor="start" x="440" y="-66.5" font-family="Helvetica,sans-Serif" font-size="10.00">_engine_x::matching</text>
<text text-anchor="middle" x="491" y="-55.5" font-family="Helvetica,sans-Serif" font-size="10.00">_engine</text>
</a>
</g>
</g>
<!-- Node2&#45;&gt;Node4 -->
<g id="edge7_Node000002_Node000004" class="edge">
<title>Node2&#45;&gt;Node4</title>
<g id="a_edge7_Node000002_Node000004"><a xlink:title=" ">
<path fill="none" stroke="#63b8ff" d="M239.04,-57.05C252.13,-60.69 266.51,-64.07 280,-66 326.92,-72.69 380.33,-73.36 421.55,-72.4"/>
<polygon fill="#63b8ff" stroke="#63b8ff" points="421.85,-75.89 431.75,-72.12 421.66,-68.9 421.85,-75.89"/>
</a>
</g>
</g>
<!-- Node6 -->
<g id="Node000006" class="node">
<title>Node6</title>
<g id="a_Node000006"><a xlink:href="../../d3/ddc/classlci_1_1free__matching__engine__x.html#add2948fd34a2752a6fe328b8a03ffdb0" target="_top" xlink:title=" ">
<polygon fill="white" stroke="#666666" points="546,-30 436,-30 436,0 546,0 546,-30"/>
<text text-anchor="start" x="444" y="-18" font-family="Helvetica,sans-Serif" font-size="10.00">lci::free_matching</text>
<text text-anchor="middle" x="491" y="-7" font-family="Helvetica,sans-Serif" font-size="10.00">_engine_x::runtime</text>
</a>
</g>
</g>
<!-- Node2&#45;&gt;Node6 -->
<g id="edge8_Node000002_Node000006" class="edge">
<title>Node2&#45;&gt;Node6</title>
<g id="a_edge8_Node000002_Node000006"><a xlink:title=" ">
<path fill="none" stroke="#63b8ff" d="M239.04,-26.95C252.13,-23.31 266.51,-19.93 280,-18 328.52,-11.08 383.98,-10.6 425.72,-11.7"/>
<polygon fill="#63b8ff" stroke="#63b8ff" points="425.65,-15.2 435.75,-12.01 425.87,-8.21 425.65,-15.2"/>
</a>
</g>
</g>
<!-- Node3&#45;&gt;Node4 -->
<g id="edge3_Node000003_Node000004" class="edge">
<title>Node3&#45;&gt;Node4</title>
<g id="a_edge3_Node000003_Node000004"><a xlink:title=" ">
<path fill="none" stroke="#63b8ff" d="M396.09,-52.21C404.49,-53.71 413.22,-55.27 421.82,-56.81"/>
<polygon fill="#63b8ff" stroke="#63b8ff" points="421.37,-60.28 431.83,-58.6 422.6,-53.39 421.37,-60.28"/>
</a>
</g>
</g>
<!-- Node3&#45;&gt;Node6 -->
<g id="edge5_Node000003_Node000006" class="edge">
<title>Node3&#45;&gt;Node6</title>
<g id="a_edge5_Node000003_Node000006"><a xlink:title=" ">
<path fill="none" stroke="#63b8ff" d="M396.09,-31.79C405.76,-30.06 415.86,-28.26 425.69,-26.5"/>
<polygon fill="#63b8ff" stroke="#63b8ff" points="426.6,-29.89 435.83,-24.69 425.37,-23 426.6,-29.89"/>
</a>
</g>
</g>
<!-- Node5 -->
<g id="Node000005" class="node">
<title>Node5</title>
<g id="a_Node000005"><a xlink:href="../../d3/ddc/classlci_1_1free__matching__engine__x.html#a8be2679816d249b3b56b0fed7abf316a" target="_top" xlink:title=" ">
<polygon fill="white" stroke="#666666" points="729,-62.5 586,-62.5 586,-21.5 729,-21.5 729,-62.5"/>
<text text-anchor="start" x="594" y="-50.5" font-family="Helvetica,sans-Serif" font-size="10.00">lci::free_matching</text>
<text text-anchor="start" x="594" y="-39.5" font-family="Helvetica,sans-Serif" font-size="10.00">_engine_x::free_matching</text>
<text text-anchor="middle" x="657.5" y="-28.5" font-family="Helvetica,sans-Serif" font-size="10.00">_engine_x</text>
</a>
</g>
</g>
<!-- Node4&#45;&gt;Node5 -->
<g id="edge4_Node000004_Node000005" class="edge">
<title>Node4&#45;&gt;Node5</title>
<g id="a_edge4_Node000004_Node000005"><a xlink:title=" ">
<path fill="none" stroke="#63b8ff" d="M550.46,-59.4C558.69,-58.05 567.27,-56.65 575.82,-55.24"/>
<polygon fill="#63b8ff" stroke="#63b8ff" points="576.53,-58.67 585.83,-53.6 575.4,-51.76 576.53,-58.67"/>
</a>
</g>
</g>
<!-- Node6&#45;&gt;Node5 -->
<g id="edge6_Node000006_Node000005" class="edge">
<title>Node6&#45;&gt;Node5</title>
<g id="a_edge6_Node000006_Node000005"><a xlink:title=" ">
<path fill="none" stroke="#63b8ff" d="M546.32,-23.92C555.79,-25.47 565.83,-27.12 575.84,-28.76"/>
<polygon fill="#63b8ff" stroke="#63b8ff" points="575.37,-32.23 585.81,-30.4 576.51,-25.32 575.37,-32.23"/>
</a>
</g>
</g>
</g>
</svg>
