<?xml version="1.0" encoding="UTF-8" standalone="no"?>
<!DOCTYPE svg PUBLIC "-//W3C//DTD SVG 1.1//EN"
 "http://www.w3.org/Graphics/SVG/1.1/DTD/svg11.dtd">
<!-- Generated by graphviz version 2.43.0 (0)
 -->
<!-- Title: lci::post_send Pages: 1 -->
<svg width="779pt" height="751pt"
 viewBox="0.00 0.00 779.00 751.38" xmlns="http://www.w3.org/2000/svg" xmlns:xlink="http://www.w3.org/1999/xlink">
<g id="graph0" class="graph" transform="scale(1 1) rotate(0) translate(4 747.38)">
<title>lci::post_send</title>
<!-- Node1 -->
<g id="Node000001" class="node">
<title>Node1</title>
<g id="a_Node000001"><a xlink:title=" ">
<polygon fill="#999999" stroke="#666666" points="83,-372.38 0,-372.38 0,-353.38 83,-353.38 83,-372.38"/>
<text text-anchor="middle" x="41.5" y="-360.38" font-family="Helvetica,sans-Serif" font-size="10.00">lci::post_send</text>
</a>
</g>
</g>
<!-- Node2 -->
<g id="Node000002" class="node">
<title>Node2</title>
<g id="a_Node000002"><a xlink:href="../../d6/de4/classlci_1_1post__send__x.html#a0328930ab332396960520f2a6d34ca07" target="_top" xlink:title=" ">
<polygon fill="white" stroke="#666666" points="237,-372.38 119,-372.38 119,-353.38 237,-353.38 237,-372.38"/>
<text text-anchor="middle" x="178" y="-360.38" font-family="Helvetica,sans-Serif" font-size="10.00">lci::post_send_x::call</text>
</a>
</g>
</g>
<!-- Node1&#45;&gt;Node2 -->
<g id="edge1_Node000001_Node000002" class="edge">
<title>Node1&#45;&gt;Node2</title>
<g id="a_edge1_Node000001_Node000002"><a xlink:title=" ">
<path fill="none" stroke="#63b8ff" d="M83.22,-362.88C91.22,-362.88 99.82,-362.88 108.45,-362.88"/>
<polygon fill="#63b8ff" stroke="#63b8ff" points="108.56,-366.38 118.56,-362.88 108.56,-359.38 108.56,-366.38"/>
</a>
</g>
</g>
<!-- Node3 -->
<g id="Node000003" class="node">
<title>Node3</title>
<g id="a_Node000003"><a xlink:href="../../d6/de4/classlci_1_1post__send__x.html#a019816cfc58183503a89bdb7af53f8d0" target="_top" xlink:title=" ">
<polygon fill="white" stroke="#666666" points="611.5,-743.38 455.5,-743.38 455.5,-724.38 611.5,-724.38 611.5,-743.38"/>
<text text-anchor="middle" x="533.5" y="-731.38" font-family="Helvetica,sans-Serif" font-size="10.00">lci::post_send_x::allow_done</text>
</a>
</g>
</g>
<!-- Node2&#45;&gt;Node3 -->
<g id="edge2_Node000002_Node000003" class="edge">
<title>Node2&#45;&gt;Node3</title>
<g id="a_edge2_Node000002_Node000003"><a xlink:title=" ">
<path fill="none" stroke="#63b8ff" d="M178.99,-372.5C179.48,-413.61 186.99,-576.2 273,-660.88 318.54,-705.71 389.33,-723.49 445.48,-730.31"/>
<polygon fill="#63b8ff" stroke="#63b8ff" points="445.1,-733.79 455.42,-731.43 445.88,-726.84 445.1,-733.79"/>
</a>
</g>
</g>
<!-- Node5 -->
<g id="Node000005" class="node">
<title>Node5</title>
<g id="a_Node000005"><a xlink:href="../../d6/de4/classlci_1_1post__send__x.html#a9fa9a0346810e6539fe790ec2becbb6a" target="_top" xlink:title=" ">
<polygon fill="white" stroke="#666666" points="597,-705.88 470,-705.88 470,-675.88 597,-675.88 597,-705.88"/>
<text text-anchor="start" x="478" y="-693.88" font-family="Helvetica,sans-Serif" font-size="10.00">lci::post_send_x::allow</text>
<text text-anchor="middle" x="533.5" y="-682.88" font-family="Helvetica,sans-Serif" font-size="10.00">_posted</text>
</a>
</g>
</g>
<!-- Node2&#45;&gt;Node5 -->
<g id="edge4_Node000002_Node000005" class="edge">
<title>Node2&#45;&gt;Node5</title>
<g id="a_edge4_Node000002_Node000005"><a xlink:title=" ">
<path fill="none" stroke="#63b8ff" d="M179.61,-372.53C182.5,-409.71 197.96,-545.06 273,-614.88 323.74,-662.09 402.26,-680.12 459.65,-686.93"/>
<polygon fill="#63b8ff" stroke="#63b8ff" points="459.42,-690.43 469.75,-688.04 460.19,-683.47 459.42,-690.43"/>
</a>
</g>
</g>
<!-- Node6 -->
<g id="Node000006" class="node">
<title>Node6</title>
<g id="a_Node000006"><a xlink:href="../../d6/de4/classlci_1_1post__send__x.html#a6befe5ff6cfde91858f4581fae6eb006" target="_top" xlink:title=" ">
<polygon fill="white" stroke="#666666" points="597,-657.88 470,-657.88 470,-627.88 597,-627.88 597,-657.88"/>
<text text-anchor="start" x="478" y="-645.88" font-family="Helvetica,sans-Serif" font-size="10.00">lci::post_send_x::allow</text>
<text text-anchor="middle" x="533.5" y="-634.88" font-family="Helvetica,sans-Serif" font-size="10.00">_retry</text>
</a>
</g>
</g>
<!-- Node2&#45;&gt;Node6 -->
<g id="edge6_Node000002_Node000006" class="edge">
<title>Node2&#45;&gt;Node6</title>
<g id="a_edge6_Node000002_Node000006"><a xlink:title=" ">
<path fill="none" stroke="#63b8ff" d="M180.41,-372.45C185.77,-405.4 208,-515.18 273,-570.88 325.25,-615.65 403.18,-632.74 460,-639.18"/>
<polygon fill="#63b8ff" stroke="#63b8ff" points="459.69,-642.67 470,-640.23 460.42,-635.7 459.69,-642.67"/>
</a>
</g>
</g>
<!-- Node7 -->
<g id="Node000007" class="node">
<title>Node7</title>
<g id="a_Node000007"><a xlink:href="../../d6/de4/classlci_1_1post__send__x.html#ad7f6fb99b9793a78cb5e6ef86b2af923" target="_top" xlink:title=" ">
<polygon fill="white" stroke="#666666" points="418,-372.38 273,-372.38 273,-353.38 418,-353.38 418,-372.38"/>
<text text-anchor="middle" x="345.5" y="-360.38" font-family="Helvetica,sans-Serif" font-size="10.00">lci::post_send_x::call_impl</text>
</a>
</g>
</g>
<!-- Node2&#45;&gt;Node7 -->
<g id="edge8_Node000002_Node000007" class="edge">
<title>Node2&#45;&gt;Node7</title>
<g id="a_edge8_Node000002_Node000007"><a xlink:title=" ">
<path fill="none" stroke="#63b8ff" d="M237.35,-362.88C245.58,-362.88 254.16,-362.88 262.72,-362.88"/>
<polygon fill="#63b8ff" stroke="#63b8ff" points="262.75,-366.38 272.75,-362.88 262.75,-359.38 262.75,-366.38"/>
</a>
</g>
</g>
<!-- Node8 -->
<g id="Node000008" class="node">
<title>Node8</title>
<g id="a_Node000008"><a xlink:href="../../d6/de4/classlci_1_1post__send__x.html#a981b3319667587e5c38a5b972e1f1475" target="_top" xlink:title=" ">
<polygon fill="white" stroke="#666666" points="597.5,-609.88 469.5,-609.88 469.5,-579.88 597.5,-579.88 597.5,-609.88"/>
<text text-anchor="start" x="477.5" y="-597.88" font-family="Helvetica,sans-Serif" font-size="10.00">lci::post_send_x::comp</text>
<text text-anchor="middle" x="533.5" y="-586.88" font-family="Helvetica,sans-Serif" font-size="10.00">_semantic</text>
</a>
</g>
</g>
<!-- Node2&#45;&gt;Node8 -->
<g id="edge42_Node000002_Node000008" class="edge">
<title>Node2&#45;&gt;Node8</title>
<g id="a_edge42_Node000002_Node000008"><a xlink:title=" ">
<path fill="none" stroke="#63b8ff" d="M181.52,-372.6C189.52,-401.46 217.19,-487.3 273,-529.88 326.7,-570.86 403.15,-586.25 459.16,-591.91"/>
<polygon fill="#63b8ff" stroke="#63b8ff" points="459.09,-595.42 469.37,-592.85 459.74,-588.45 459.09,-595.42"/>
</a>
</g>
</g>
<!-- Node9 -->
<g id="Node000009" class="node">
<title>Node9</title>
<g id="a_Node000009"><a xlink:href="../../d6/de4/classlci_1_1post__send__x.html#af83844d6f633050ce6fa86b54059d9ab" target="_top" xlink:title=" ">
<polygon fill="white" stroke="#666666" points="600,-561.38 467,-561.38 467,-542.38 600,-542.38 600,-561.38"/>
<text text-anchor="middle" x="533.5" y="-549.38" font-family="Helvetica,sans-Serif" font-size="10.00">lci::post_send_x::device</text>
</a>
</g>
</g>
<!-- Node2&#45;&gt;Node9 -->
<g id="edge43_Node000002_Node000009" class="edge">
<title>Node2&#45;&gt;Node9</title>
<g id="a_edge43_Node000002_Node000009"><a xlink:title=" ">
<path fill="none" stroke="#63b8ff" d="M183.26,-372.73C194.26,-396.97 226.12,-459.81 273,-490.88 327.84,-527.22 401.79,-542.01 456.72,-547.98"/>
<polygon fill="#63b8ff" stroke="#63b8ff" points="456.44,-551.47 466.74,-549 457.15,-544.51 456.44,-551.47"/>
</a>
</g>
</g>
<!-- Node10 -->
<g id="Node000010" class="node">
<title>Node10</title>
<g id="a_Node000010"><a xlink:href="../../d6/de4/classlci_1_1post__send__x.html#a1725404618abbfc3bcf3007ff17aea58" target="_top" xlink:title=" ">
<polygon fill="white" stroke="#666666" points="605,-524.38 462,-524.38 462,-505.38 605,-505.38 605,-524.38"/>
<text text-anchor="middle" x="533.5" y="-512.38" font-family="Helvetica,sans-Serif" font-size="10.00">lci::post_send_x::endpoint</text>
</a>
</g>
</g>
<!-- Node2&#45;&gt;Node10 -->
<g id="edge44_Node000002_Node000010" class="edge">
<title>Node2&#45;&gt;Node10</title>
<g id="a_edge44_Node000002_Node000010"><a xlink:title=" ">
<path fill="none" stroke="#63b8ff" d="M186.07,-372.59C200.29,-391.39 234.33,-432.75 273,-453.88 328.42,-484.16 398.49,-499.49 451.84,-507.2"/>
<polygon fill="#63b8ff" stroke="#63b8ff" points="451.56,-510.7 461.94,-508.6 452.52,-503.76 451.56,-510.7"/>
</a>
</g>
</g>
<!-- Node11 -->
<g id="Node000011" class="node">
<title>Node11</title>
<g id="a_Node000011"><a xlink:href="../../d6/de4/classlci_1_1post__send__x.html#a7b6fcb7c161018b81683ead41d447c5d" target="_top" xlink:title=" ">
<polygon fill="white" stroke="#666666" points="596,-486.88 471,-486.88 471,-456.88 596,-456.88 596,-486.88"/>
<text text-anchor="start" x="479" y="-474.88" font-family="Helvetica,sans-Serif" font-size="10.00">lci::post_send_x::force</text>
<text text-anchor="middle" x="533.5" y="-463.88" font-family="Helvetica,sans-Serif" font-size="10.00">_zcopy</text>
</a>
</g>
</g>
<!-- Node2&#45;&gt;Node11 -->
<g id="edge45_Node000002_Node000011" class="edge">
<title>Node2&#45;&gt;Node11</title>
<g id="a_edge45_Node000002_Node000011"><a xlink:title=" ">
<path fill="none" stroke="#63b8ff" d="M190.98,-372.47C208.11,-385.69 241.09,-409.3 273,-421.88 333.95,-445.9 407.65,-458.68 460.9,-465.29"/>
<polygon fill="#63b8ff" stroke="#63b8ff" points="460.59,-468.77 470.94,-466.49 461.43,-461.82 460.59,-468.77"/>
</a>
</g>
</g>
<!-- Node12 -->
<g id="Node000012" class="node">
<title>Node12</title>
<g id="a_Node000012"><a xlink:href="../../d6/de4/classlci_1_1post__send__x.html#a3e8715f3060364c226ef73de62f25e3f" target="_top" xlink:title=" ">
<polygon fill="white" stroke="#666666" points="595.5,-438.88 471.5,-438.88 471.5,-408.88 595.5,-408.88 595.5,-438.88"/>
<text text-anchor="start" x="479.5" y="-426.88" font-family="Helvetica,sans-Serif" font-size="10.00">lci::post_send_x::local</text>
<text text-anchor="middle" x="533.5" y="-415.88" font-family="Helvetica,sans-Serif" font-size="10.00">_buffer</text>
</a>
</g>
</g>
<!-- Node2&#45;&gt;Node12 -->
<g id="edge46_Node000002_Node000012" class="edge">
<title>Node2&#45;&gt;Node12</title>
<g id="a_edge46_Node000002_Node000012"><a xlink:title=" ">
<path fill="none" stroke="#63b8ff" d="M199.8,-372.39C218.54,-380.53 247.05,-391.85 273,-397.88 335.64,-412.42 408.65,-418.83 461.25,-421.66"/>
<polygon fill="#63b8ff" stroke="#63b8ff" points="461.32,-425.16 471.48,-422.17 461.67,-418.17 461.32,-425.16"/>
</a>
</g>
</g>
<!-- Node13 -->
<g id="Node000013" class="node">
<title>Node13</title>
<g id="a_Node000013"><a xlink:href="../../d6/de4/classlci_1_1post__send__x.html#a0199101f52023dc7c9573175c621e82e" target="_top" xlink:title=" ">
<polygon fill="white" stroke="#666666" points="611.5,-390.38 455.5,-390.38 455.5,-371.38 611.5,-371.38 611.5,-390.38"/>
<text text-anchor="middle" x="533.5" y="-378.38" font-family="Helvetica,sans-Serif" font-size="10.00">lci::post_send_x::local_comp</text>
</a>
</g>
</g>
<!-- Node2&#45;&gt;Node13 -->
<g id="edge47_Node000002_Node000013" class="edge">
<title>Node2&#45;&gt;Node13</title>
<g id="a_edge47_Node000002_Node000013"><a xlink:title=" ">
<path fill="none" stroke="#63b8ff" d="M217.15,-372.39C234.13,-376.15 254.45,-380.02 273,-381.88 330.14,-387.6 394.72,-387.37 445.15,-385.71"/>
<polygon fill="#63b8ff" stroke="#63b8ff" points="445.5,-389.2 455.37,-385.34 445.25,-382.2 445.5,-389.2"/>
</a>
</g>
</g>
<!-- Node14 -->
<g id="Node000014" class="node">
<title>Node14</title>
<g id="a_Node000014"><a xlink:href="../../d6/de4/classlci_1_1post__send__x.html#a7b8658ea0241beb8090cd0a2b2296ca6" target="_top" xlink:title=" ">
<polygon fill="white" stroke="#666666" points="606.5,-352.88 460.5,-352.88 460.5,-322.88 606.5,-322.88 606.5,-352.88"/>
<text text-anchor="start" x="468.5" y="-340.88" font-family="Helvetica,sans-Serif" font-size="10.00">lci::post_send_x::matching</text>
<text text-anchor="middle" x="533.5" y="-329.88" font-family="Helvetica,sans-Serif" font-size="10.00">_engine</text>
</a>
</g>
</g>
<!-- Node2&#45;&gt;Node14 -->
<g id="edge48_Node000002_Node000014" class="edge">
<title>Node2&#45;&gt;Node14</title>
<g id="a_edge48_Node000002_Node000014"><a xlink:title=" ">
<path fill="none" stroke="#63b8ff" d="M220.89,-353.35C237.09,-350.06 255.82,-346.74 273,-344.88 332.12,-338.46 399.24,-336.8 450.4,-336.7"/>
<polygon fill="#63b8ff" stroke="#63b8ff" points="450.42,-340.2 460.42,-336.7 450.42,-333.2 450.42,-340.2"/>
</a>
</g>
</g>
<!-- Node15 -->
<g id="Node000015" class="node">
<title>Node15</title>
<g id="a_Node000015"><a xlink:href="../../d6/de4/classlci_1_1post__send__x.html#ac8971b8e65a93350aaee529612687cdb" target="_top" xlink:title=" ">
<polygon fill="white" stroke="#666666" points="606.5,-304.88 460.5,-304.88 460.5,-274.88 606.5,-274.88 606.5,-304.88"/>
<text text-anchor="start" x="468.5" y="-292.88" font-family="Helvetica,sans-Serif" font-size="10.00">lci::post_send_x::matching</text>
<text text-anchor="middle" x="533.5" y="-281.88" font-family="Helvetica,sans-Serif" font-size="10.00">_policy</text>
</a>
</g>
</g>
<!-- Node2&#45;&gt;Node15 -->
<g id="edge49_Node000002_Node000015" class="edge">
<title>Node2&#45;&gt;Node15</title>
<g id="a_edge49_Node000002_Node000015"><a xlink:title=" ">
<path fill="none" stroke="#63b8ff" d="M205.45,-353.3C224.13,-346.82 249.85,-338.46 273,-332.88 331.68,-318.73 398.95,-307.73 450.3,-300.4"/>
<polygon fill="#63b8ff" stroke="#63b8ff" points="450.93,-303.84 460.34,-298.98 449.95,-296.91 450.93,-303.84"/>
</a>
</g>
</g>
<!-- Node16 -->
<g id="Node000016" class="node">
<title>Node16</title>
<g id="a_Node000016"><a xlink:href="../../d6/de4/classlci_1_1post__send__x.html#a2e62e9494b0b5583444ef84fa583af67" target="_top" xlink:title=" ">
<polygon fill="white" stroke="#666666" points="590.5,-256.38 476.5,-256.38 476.5,-237.38 590.5,-237.38 590.5,-256.38"/>
<text text-anchor="middle" x="533.5" y="-244.38" font-family="Helvetica,sans-Serif" font-size="10.00">lci::post_send_x::mr</text>
</a>
</g>
</g>
<!-- Node2&#45;&gt;Node16 -->
<g id="edge50_Node000002_Node000016" class="edge">
<title>Node2&#45;&gt;Node16</title>
<g id="a_edge50_Node000002_Node000016"><a xlink:title=" ">
<path fill="none" stroke="#63b8ff" d="M190.66,-353.26C207.69,-339.71 240.82,-315.19 273,-301.88 335.87,-275.87 412.59,-261.57 466.25,-254.12"/>
<polygon fill="#63b8ff" stroke="#63b8ff" points="466.88,-257.56 476.32,-252.76 465.94,-250.62 466.88,-257.56"/>
</a>
</g>
</g>
<!-- Node17 -->
<g id="Node000017" class="node">
<title>Node17</title>
<g id="a_Node000017"><a xlink:href="../../d6/de4/classlci_1_1post__send__x.html#af151218ec4a44e6b623a192494ac2061" target="_top" xlink:title=" ">
<polygon fill="white" stroke="#666666" points="613,-219.38 454,-219.38 454,-200.38 613,-200.38 613,-219.38"/>
<text text-anchor="middle" x="533.5" y="-207.38" font-family="Helvetica,sans-Serif" font-size="10.00">lci::post_send_x::packet_pool</text>
</a>
</g>
</g>
<!-- Node2&#45;&gt;Node17 -->
<g id="edge51_Node000002_Node000017" class="edge">
<title>Node2&#45;&gt;Node17</title>
<g id="a_edge51_Node000002_Node000017"><a xlink:title=" ">
<path fill="none" stroke="#63b8ff" d="M184.62,-353.23C197.39,-332.27 230.76,-282.57 273,-258.88 325.12,-229.64 391.44,-217.47 443.99,-212.57"/>
<polygon fill="#63b8ff" stroke="#63b8ff" points="444.31,-216.06 453.97,-211.71 443.71,-209.08 444.31,-216.06"/>
</a>
</g>
</g>
<!-- Node18 -->
<g id="Node000018" class="node">
<title>Node18</title>
<g id="a_Node000018"><a xlink:href="../../d6/de4/classlci_1_1post__send__x.html#a5bb620bb23efa9ecd9bb5ccc414d0faa" target="_top" xlink:title=" ">
<polygon fill="white" stroke="#666666" points="594.5,-182.38 472.5,-182.38 472.5,-163.38 594.5,-163.38 594.5,-182.38"/>
<text text-anchor="middle" x="533.5" y="-170.38" font-family="Helvetica,sans-Serif" font-size="10.00">lci::post_send_x::rank</text>
</a>
</g>
</g>
<!-- Node2&#45;&gt;Node18 -->
<g id="edge52_Node000002_Node000018" class="edge">
<title>Node2&#45;&gt;Node18</title>
<g id="a_edge52_Node000002_Node000018"><a xlink:title=" ">
<path fill="none" stroke="#63b8ff" d="M181.86,-352.99C190.45,-325.26 218.8,-246.48 273,-210.88 329.07,-174.05 406.55,-167.03 462.23,-167.7"/>
<polygon fill="#63b8ff" stroke="#63b8ff" points="462.29,-171.2 472.36,-167.91 462.44,-164.2 462.29,-171.2"/>
</a>
</g>
</g>
<!-- Node19 -->
<g id="Node000019" class="node">
<title>Node19</title>
<g id="a_Node000019"><a xlink:href="../../d6/de4/classlci_1_1post__send__x.html#a62b983582fc79337c41ce970921d8234" target="_top" xlink:title=" ">
<polygon fill="white" stroke="#666666" points="603,-145.38 464,-145.38 464,-126.38 603,-126.38 603,-145.38"/>
<text text-anchor="middle" x="533.5" y="-133.38" font-family="Helvetica,sans-Serif" font-size="10.00">lci::post_send_x::runtime</text>
</a>
</g>
</g>
<!-- Node2&#45;&gt;Node19 -->
<g id="edge53_Node000002_Node000019" class="edge">
<title>Node2&#45;&gt;Node19</title>
<g id="a_edge53_Node000002_Node000019"><a xlink:title=" ">
<path fill="none" stroke="#63b8ff" d="M180.34,-352.92C185.36,-319.75 206.39,-212.38 273,-164.88 325.12,-127.71 398.7,-122.73 454.2,-125.73"/>
<polygon fill="#63b8ff" stroke="#63b8ff" points="454.15,-129.23 464.35,-126.37 454.59,-122.24 454.15,-129.23"/>
</a>
</g>
</g>
<!-- Node20 -->
<g id="Node000020" class="node">
<title>Node20</title>
<g id="a_Node000020"><a xlink:href="../../d6/de4/classlci_1_1post__send__x.html#a442c9810cbc06c288134a7b38b5796a5" target="_top" xlink:title=" ">
<polygon fill="white" stroke="#666666" points="593.5,-108.38 473.5,-108.38 473.5,-89.38 593.5,-89.38 593.5,-108.38"/>
<text text-anchor="middle" x="533.5" y="-96.38" font-family="Helvetica,sans-Serif" font-size="10.00">lci::post_send_x::size</text>
</a>
</g>
</g>
<!-- Node2&#45;&gt;Node20 -->
<g id="edge54_Node000002_Node000020" class="edge">
<title>Node2&#45;&gt;Node20</title>
<g id="a_edge54_Node000002_Node000020"><a xlink:title=" ">
<path fill="none" stroke="#63b8ff" d="M179.36,-353.14C181.31,-315.69 193.79,-180.15 273,-120.88 331.57,-77.05 419.75,-79.83 476.73,-87.82"/>
<polygon fill="#63b8ff" stroke="#63b8ff" points="476.23,-91.28 486.64,-89.3 477.27,-84.36 476.23,-91.28"/>
</a>
</g>
</g>
<!-- Node21 -->
<g id="Node000021" class="node">
<title>Node21</title>
<g id="a_Node000021"><a xlink:href="../../d6/de4/classlci_1_1post__send__x.html#ac787ac7cd8c9ce0a02f2e4e69715c708" target="_top" xlink:title=" ">
<polygon fill="white" stroke="#666666" points="591.5,-71.38 475.5,-71.38 475.5,-52.38 591.5,-52.38 591.5,-71.38"/>
<text text-anchor="middle" x="533.5" y="-59.38" font-family="Helvetica,sans-Serif" font-size="10.00">lci::post_send_x::tag</text>
</a>
</g>
</g>
<!-- Node2&#45;&gt;Node21 -->
<g id="edge55_Node000002_Node000021" class="edge">
<title>Node2&#45;&gt;Node21</title>
<g id="a_edge55_Node000002_Node000021"><a xlink:title=" ">
<path fill="none" stroke="#63b8ff" d="M178.71,-353.19C178.07,-311.92 181.59,-149.57 273,-78.88 333.52,-32.08 427.62,-39.78 484.33,-50.35"/>
<polygon fill="#63b8ff" stroke="#63b8ff" points="483.98,-53.84 494.46,-52.34 485.33,-46.98 483.98,-53.84"/>
</a>
</g>
</g>
<!-- Node22 -->
<g id="Node000022" class="node">
<title>Node22</title>
<g id="a_Node000022"><a xlink:href="../../d6/de4/classlci_1_1post__send__x.html#aaf2656ce27f04830a7df38e7ca71f701" target="_top" xlink:title=" ">
<polygon fill="white" stroke="#666666" points="594.5,-33.88 472.5,-33.88 472.5,-3.88 594.5,-3.88 594.5,-33.88"/>
<text text-anchor="start" x="480.5" y="-21.88" font-family="Helvetica,sans-Serif" font-size="10.00">lci::post_send_x::user</text>
<text text-anchor="middle" x="533.5" y="-10.88" font-family="Helvetica,sans-Serif" font-size="10.00">_context</text>
</a>
</g>
</g>
<!-- Node2&#45;&gt;Node22 -->
<g id="edge56_Node000002_Node000022" class="edge">
<title>Node2&#45;&gt;Node22</title>
<g id="a_edge56_Node000002_Node000022"><a xlink:title=" ">
<path fill="none" stroke="#63b8ff" d="M180.31,-353.29C187.26,-304.11 221.31,-80.91 273,-38.88 325.42,3.74 405.13,3.4 462.37,-4.26"/>
<polygon fill="#63b8ff" stroke="#63b8ff" points="462.03,-7.75 472.43,-5.71 463.03,-0.82 462.03,-7.75"/>
</a>
</g>
</g>
<!-- Node4 -->
<g id="Node000004" class="node">
<title>Node4</title>
<g id="a_Node000004"><a xlink:href="../../d6/de4/classlci_1_1post__send__x.html#a4cbc2854edcef90b2464f247d68225b5" target="_top" xlink:title=" ">
<polygon fill="white" stroke="#666666" points="771,-373.88 649,-373.88 649,-343.88 771,-343.88 771,-373.88"/>
<text text-anchor="start" x="657" y="-361.88" font-family="Helvetica,sans-Serif" font-size="10.00">lci::post_send_x::post</text>
<text text-anchor="middle" x="710" y="-350.88" font-family="Helvetica,sans-Serif" font-size="10.00">_send_x</text>
</a>
</g>
</g>
<!-- Node3&#45;&gt;Node4 -->
<g id="edge3_Node000003_Node000004" class="edge">
<title>Node3&#45;&gt;Node4</title>
<g id="a_edge3_Node000003_Node000004"><a xlink:title=" ">
<path fill="none" stroke="#63b8ff" d="M599.65,-724.29C604.54,-721.79 609.08,-718.7 613,-714.88 661.19,-667.92 694.97,-458.05 705.51,-384.47"/>
<polygon fill="#63b8ff" stroke="#63b8ff" points="709.02,-384.64 706.95,-374.25 702.09,-383.67 709.02,-384.64"/>
</a>
</g>
</g>
<!-- Node5&#45;&gt;Node4 -->
<g id="edge5_Node000005_Node000004" class="edge">
<title>Node5&#45;&gt;Node4</title>
<g id="a_edge5_Node000005_Node000004"><a xlink:title=" ">
<path fill="none" stroke="#63b8ff" d="M597.31,-678.06C603.08,-675.08 608.45,-671.4 613,-666.88 692.84,-587.47 706.49,-442.83 708.67,-384.39"/>
<polygon fill="#63b8ff" stroke="#63b8ff" points="712.17,-384.3 708.96,-374.2 705.17,-384.1 712.17,-384.3"/>
</a>
</g>
</g>
<!-- Node6&#45;&gt;Node4 -->
<g id="edge7_Node000006_Node000004" class="edge">
<title>Node6&#45;&gt;Node4</title>
<g id="a_edge7_Node000006_Node000004"><a xlink:title=" ">
<path fill="none" stroke="#63b8ff" d="M597.07,-629.82C602.89,-626.88 608.34,-623.28 613,-618.88 681.6,-554.08 701.43,-435.98 706.96,-384.27"/>
<polygon fill="#63b8ff" stroke="#63b8ff" points="710.47,-384.3 707.96,-374.01 703.51,-383.62 710.47,-384.3"/>
</a>
</g>
</g>
<!-- Node7&#45;&gt;Node3 -->
<g id="edge9_Node000007_Node000003" class="edge">
<title>Node7&#45;&gt;Node3</title>
<g id="a_edge9_Node000007_Node000003"><a xlink:title=" ">
<path fill="none" stroke="#63b8ff" d="M346.25,-372.47C345.61,-418.21 349.16,-616.04 454,-714.88 455.66,-716.44 457.42,-717.88 459.27,-719.21"/>
<polygon fill="#63b8ff" stroke="#63b8ff" points="457.49,-722.22 467.87,-724.34 461.07,-716.21 457.49,-722.22"/>
</a>
</g>
</g>
<!-- Node7&#45;&gt;Node5 -->
<g id="edge10_Node000007_Node000005" class="edge">
<title>Node7&#45;&gt;Node5</title>
<g id="a_edge10_Node000007_Node000005"><a xlink:title=" ">
<path fill="none" stroke="#63b8ff" d="M346.9,-372.43C349.18,-413.94 363.84,-580.53 454,-666.88 456.17,-668.96 458.52,-670.86 461,-672.59"/>
<polygon fill="#63b8ff" stroke="#63b8ff" points="459.48,-675.77 469.86,-677.88 463.07,-669.75 459.48,-675.77"/>
</a>
</g>
</g>
<!-- Node7&#45;&gt;Node6 -->
<g id="edge11_Node000007_Node000006" class="edge">
<title>Node7&#45;&gt;Node6</title>
<g id="a_edge11_Node000007_Node000006"><a xlink:title=" ">
<path fill="none" stroke="#63b8ff" d="M347.61,-372.42C352.48,-409.82 375.33,-547.77 454,-618.88 456.18,-620.85 458.52,-622.66 460.98,-624.32"/>
<polygon fill="#63b8ff" stroke="#63b8ff" points="459.33,-627.41 469.73,-629.41 462.85,-621.36 459.33,-627.41"/>
</a>
</g>
</g>
<!-- Node7&#45;&gt;Node8 -->
<g id="edge12_Node000007_Node000008" class="edge">
<title>Node7&#45;&gt;Node8</title>
<g id="a_edge12_Node000007_Node000008"><a xlink:title=" ">
<path fill="none" stroke="#63b8ff" d="M348.62,-372.41C356.4,-405.22 386.58,-514.64 454,-570.88 456.01,-572.56 458.14,-574.12 460.35,-575.57"/>
<polygon fill="#63b8ff" stroke="#63b8ff" points="458.86,-578.74 469.28,-580.64 462.32,-572.66 458.86,-578.74"/>
</a>
</g>
</g>
<!-- Node7&#45;&gt;Node9 -->
<g id="edge14_Node000007_Node000009" class="edge">
<title>Node7&#45;&gt;Node9</title>
<g id="a_edge14_Node000007_Node000009"><a xlink:title=" ">
<path fill="none" stroke="#63b8ff" d="M349.56,-372.48C359.44,-401.81 393.39,-490.84 454,-533.88 456.09,-535.37 458.29,-536.73 460.57,-537.99"/>
<polygon fill="#63b8ff" stroke="#63b8ff" points="459.15,-541.19 469.68,-542.3 462.14,-534.86 459.15,-541.19"/>
</a>
</g>
</g>
<!-- Node7&#45;&gt;Node10 -->
<g id="edge16_Node000007_Node000010" class="edge">
<title>Node7&#45;&gt;Node10</title>
<g id="a_edge16_Node000007_Node000010"><a xlink:title=" ">
<path fill="none" stroke="#63b8ff" d="M351.48,-372.74C364.57,-397.62 402.57,-463.33 454,-495.88 457.37,-498.01 460.96,-499.9 464.68,-501.59"/>
<polygon fill="#63b8ff" stroke="#63b8ff" points="463.55,-504.9 474.14,-505.34 466.14,-498.4 463.55,-504.9"/>
</a>
</g>
</g>
<!-- Node7&#45;&gt;Node11 -->
<g id="edge18_Node000007_Node000011" class="edge">
<title>Node7&#45;&gt;Node11</title>
<g id="a_edge18_Node000007_Node000011"><a xlink:title=" ">
<path fill="none" stroke="#63b8ff" d="M355.99,-372.45C373.72,-389.85 413.75,-426.78 454,-447.88 457.52,-449.72 461.21,-451.45 464.98,-453.07"/>
<polygon fill="#63b8ff" stroke="#63b8ff" points="463.9,-456.41 474.49,-456.85 466.49,-449.9 463.9,-456.41"/>
</a>
</g>
</g>
<!-- Node7&#45;&gt;Node12 -->
<g id="edge20_Node000007_Node000012" class="edge">
<title>Node7&#45;&gt;Node12</title>
<g id="a_edge20_Node000007_Node000012"><a xlink:title=" ">
<path fill="none" stroke="#63b8ff" d="M373.36,-372.41C395.06,-380.05 426.41,-390.91 454,-399.88 459.96,-401.81 466.19,-403.79 472.42,-405.74"/>
<polygon fill="#63b8ff" stroke="#63b8ff" points="471.58,-409.15 482.17,-408.77 473.66,-402.46 471.58,-409.15"/>
</a>
</g>
</g>
<!-- Node7&#45;&gt;Node13 -->
<g id="edge22_Node000007_Node000013" class="edge">
<title>Node7&#45;&gt;Node13</title>
<g id="a_edge22_Node000007_Node000013"><a xlink:title=" ">
<path fill="none" stroke="#63b8ff" d="M418.15,-369.81C426.99,-370.67 436.12,-371.55 445.16,-372.43"/>
<polygon fill="#63b8ff" stroke="#63b8ff" points="445.04,-375.93 455.33,-373.41 445.72,-368.96 445.04,-375.93"/>
</a>
</g>
</g>
<!-- Node7&#45;&gt;Node14 -->
<g id="edge24_Node000007_Node000014" class="edge">
<title>Node7&#45;&gt;Node14</title>
<g id="a_edge24_Node000007_Node000014"><a xlink:title=" ">
<path fill="none" stroke="#63b8ff" d="M417.35,-353.36C428.12,-351.91 439.31,-350.4 450.29,-348.93"/>
<polygon fill="#63b8ff" stroke="#63b8ff" points="450.86,-352.38 460.31,-347.58 449.93,-345.45 450.86,-352.38"/>
</a>
</g>
</g>
<!-- Node7&#45;&gt;Node15 -->
<g id="edge26_Node000007_Node000015" class="edge">
<title>Node7&#45;&gt;Node15</title>
<g id="a_edge26_Node000007_Node000015"><a xlink:title=" ">
<path fill="none" stroke="#63b8ff" d="M365.6,-353.25C386.84,-342.76 422.35,-325.87 454,-313.88 459.16,-311.92 464.56,-310.01 470.01,-308.17"/>
<polygon fill="#63b8ff" stroke="#63b8ff" points="471.41,-311.39 479.82,-304.94 469.22,-304.74 471.41,-311.39"/>
</a>
</g>
</g>
<!-- Node7&#45;&gt;Node16 -->
<g id="edge28_Node000007_Node000016" class="edge">
<title>Node7&#45;&gt;Node16</title>
<g id="a_edge28_Node000007_Node000016"><a xlink:title=" ">
<path fill="none" stroke="#63b8ff" d="M354.27,-353.18C370.56,-333.52 410.43,-288.88 454,-265.88 458.46,-263.53 463.21,-261.46 468.09,-259.64"/>
<polygon fill="#63b8ff" stroke="#63b8ff" points="469.22,-262.96 477.58,-256.45 466.99,-256.32 469.22,-262.96"/>
</a>
</g>
</g>
<!-- Node7&#45;&gt;Node17 -->
<g id="edge30_Node000007_Node000017" class="edge">
<title>Node7&#45;&gt;Node17</title>
<g id="a_edge30_Node000007_Node000017"><a xlink:title=" ">
<path fill="none" stroke="#63b8ff" d="M351.27,-353.31C364.14,-328.52 402.14,-261.83 454,-228.88 457.37,-226.74 460.95,-224.84 464.67,-223.16"/>
<polygon fill="#63b8ff" stroke="#63b8ff" points="466.13,-226.34 474.12,-219.4 463.54,-219.84 466.13,-226.34"/>
</a>
</g>
</g>
<!-- Node7&#45;&gt;Node18 -->
<g id="edge32_Node000007_Node000018" class="edge">
<title>Node7&#45;&gt;Node18</title>
<g id="a_edge32_Node000007_Node000018"><a xlink:title=" ">
<path fill="none" stroke="#63b8ff" d="M349.59,-353.31C359.53,-324.07 393.65,-235.29 454,-191.88 456.88,-189.81 459.95,-187.96 463.15,-186.32"/>
<polygon fill="#63b8ff" stroke="#63b8ff" points="464.75,-189.44 472.47,-182.19 461.91,-183.04 464.75,-189.44"/>
</a>
</g>
</g>
<!-- Node7&#45;&gt;Node19 -->
<g id="edge34_Node000007_Node000019" class="edge">
<title>Node7&#45;&gt;Node19</title>
<g id="a_edge34_Node000007_Node000019"><a xlink:title=" ">
<path fill="none" stroke="#63b8ff" d="M348.5,-353.2C355.89,-319.9 384.94,-209.1 454,-154.88 456.33,-153.05 458.8,-151.4 461.39,-149.9"/>
<polygon fill="#63b8ff" stroke="#63b8ff" points="463.12,-152.95 470.54,-145.38 460.02,-146.67 463.12,-152.95"/>
</a>
</g>
</g>
<!-- Node7&#45;&gt;Node20 -->
<g id="edge36_Node000007_Node000020" class="edge">
<title>Node7&#45;&gt;Node20</title>
<g id="a_edge36_Node000007_Node000020"><a xlink:title=" ">
<path fill="none" stroke="#63b8ff" d="M347.67,-353.35C352.68,-316.67 375.85,-183.36 454,-117.88 457.12,-115.27 460.53,-113.01 464.14,-111.05"/>
<polygon fill="#63b8ff" stroke="#63b8ff" points="465.82,-114.13 473.45,-106.77 462.9,-107.76 465.82,-114.13"/>
</a>
</g>
</g>
<!-- Node7&#45;&gt;Node21 -->
<g id="edge38_Node000007_Node000021" class="edge">
<title>Node7&#45;&gt;Node21</title>
<g id="a_edge38_Node000007_Node000021"><a xlink:title=" ">
<path fill="none" stroke="#63b8ff" d="M347.07,-353.35C349.97,-313.37 366.71,-157.75 454,-80.88 457.62,-77.69 461.69,-75.01 466.02,-72.77"/>
<polygon fill="#63b8ff" stroke="#63b8ff" points="467.46,-75.96 475.22,-68.75 464.65,-69.55 467.46,-75.96"/>
</a>
</g>
</g>
<!-- Node7&#45;&gt;Node22 -->
<g id="edge40_Node000007_Node000022" class="edge">
<title>Node7&#45;&gt;Node22</title>
<g id="a_edge40_Node000007_Node000022"><a xlink:title=" ">
<path fill="none" stroke="#63b8ff" d="M346.72,-353.13C348.23,-309.98 360.12,-134.22 454,-42.88 456.77,-40.19 459.83,-37.79 463.09,-35.67"/>
<polygon fill="#63b8ff" stroke="#63b8ff" points="465.08,-38.57 472.13,-30.65 461.69,-32.45 465.08,-38.57"/>
</a>
</g>
</g>
<!-- Node8&#45;&gt;Node4 -->
<g id="edge13_Node000008_Node000004" class="edge">
<title>Node8&#45;&gt;Node4</title>
<g id="a_edge13_Node000008_Node000004"><a xlink:title=" ">
<path fill="none" stroke="#63b8ff" d="M597.54,-581.09C603.13,-578.29 608.4,-574.92 613,-570.88 670.61,-520.23 695.57,-428.11 704.62,-383.89"/>
<polygon fill="#63b8ff" stroke="#63b8ff" points="708.08,-384.46 706.55,-373.97 701.2,-383.12 708.08,-384.46"/>
</a>
</g>
</g>
<!-- Node9&#45;&gt;Node4 -->
<g id="edge15_Node000009_Node000004" class="edge">
<title>Node9&#45;&gt;Node4</title>
<g id="a_edge15_Node000009_Node000004"><a xlink:title=" ">
<path fill="none" stroke="#63b8ff" d="M598.32,-542.26C603.55,-540.01 608.54,-537.25 613,-533.88 663.66,-495.58 690.99,-422.43 702.43,-383.96"/>
<polygon fill="#63b8ff" stroke="#63b8ff" points="705.86,-384.66 705.24,-374.08 699.13,-382.74 705.86,-384.66"/>
</a>
</g>
</g>
<!-- Node10&#45;&gt;Node4 -->
<g id="edge17_Node000010_Node000004" class="edge">
<title>Node10&#45;&gt;Node4</title>
<g id="a_edge17_Node000010_Node000004"><a xlink:title=" ">
<path fill="none" stroke="#63b8ff" d="M594.34,-505.29C600.94,-502.84 607.32,-499.75 613,-495.88 654.79,-467.38 684.15,-414.26 698.65,-383.2"/>
<polygon fill="#63b8ff" stroke="#63b8ff" points="701.9,-384.5 702.83,-373.95 695.52,-381.62 701.9,-384.5"/>
</a>
</g>
</g>
<!-- Node11&#45;&gt;Node4 -->
<g id="edge19_Node000011_Node000004" class="edge">
<title>Node11&#45;&gt;Node4</title>
<g id="a_edge19_Node000011_Node000004"><a xlink:title=" ">
<path fill="none" stroke="#63b8ff" d="M594.01,-456.85C600.61,-454.27 607.07,-451.29 613,-447.88 643.3,-430.44 671.84,-401.83 689.8,-381.77"/>
<polygon fill="#63b8ff" stroke="#63b8ff" points="692.64,-383.84 696.6,-374.01 687.38,-379.23 692.64,-383.84"/>
</a>
</g>
</g>
<!-- Node12&#45;&gt;Node4 -->
<g id="edge21_Node000012_Node000004" class="edge">
<title>Node12&#45;&gt;Node4</title>
<g id="a_edge21_Node000012_Node000004"><a xlink:title=" ">
<path fill="none" stroke="#63b8ff" d="M586.7,-408.78C595.53,-405.98 604.57,-402.96 613,-399.88 630.79,-393.38 650.05,-385.36 666.62,-378.14"/>
<polygon fill="#63b8ff" stroke="#63b8ff" points="668.29,-381.23 676.03,-373.99 665.47,-374.82 668.29,-381.23"/>
</a>
</g>
</g>
<!-- Node13&#45;&gt;Node4 -->
<g id="edge23_Node000013_Node000004" class="edge">
<title>Node13&#45;&gt;Node4</title>
<g id="a_edge23_Node000013_Node000004"><a xlink:title=" ">
<path fill="none" stroke="#63b8ff" d="M610.02,-371.36C619.56,-370.15 629.29,-368.93 638.74,-367.74"/>
<polygon fill="#63b8ff" stroke="#63b8ff" points="639.38,-371.18 648.87,-366.46 638.51,-364.24 639.38,-371.18"/>
</a>
</g>
</g>
<!-- Node14&#45;&gt;Node4 -->
<g id="edge25_Node000014_Node000004" class="edge">
<title>Node14&#45;&gt;Node4</title>
<g id="a_edge25_Node000014_Node000004"><a xlink:title=" ">
<path fill="none" stroke="#63b8ff" d="M606.74,-346.57C617.32,-347.85 628.21,-349.16 638.76,-350.43"/>
<polygon fill="#63b8ff" stroke="#63b8ff" points="638.4,-353.91 648.74,-351.63 639.23,-346.96 638.4,-353.91"/>
</a>
</g>
</g>
<!-- Node15&#45;&gt;Node4 -->
<g id="edge27_Node000015_Node000004" class="edge">
<title>Node15&#45;&gt;Node4</title>
<g id="a_edge27_Node000015_Node000004"><a xlink:title=" ">
<path fill="none" stroke="#63b8ff" d="M587.63,-305C596.18,-307.76 604.89,-310.76 613,-313.88 632.28,-321.3 653.1,-330.86 670.41,-339.26"/>
<polygon fill="#63b8ff" stroke="#63b8ff" points="669.11,-342.53 679.63,-343.79 672.2,-336.24 669.11,-342.53"/>
</a>
</g>
</g>
<!-- Node16&#45;&gt;Node4 -->
<g id="edge29_Node000016_Node000004" class="edge">
<title>Node16&#45;&gt;Node4</title>
<g id="a_edge29_Node000016_Node000004"><a xlink:title=" ">
<path fill="none" stroke="#63b8ff" d="M590.37,-256.48C598.22,-258.94 606,-262.02 613,-265.88 644.94,-283.47 673.84,-314.51 691.4,-335.86"/>
<polygon fill="#63b8ff" stroke="#63b8ff" points="688.78,-338.18 697.77,-343.79 694.24,-333.8 688.78,-338.18"/>
</a>
</g>
</g>
<!-- Node17&#45;&gt;Node4 -->
<g id="edge31_Node000017_Node000004" class="edge">
<title>Node17&#45;&gt;Node4</title>
<g id="a_edge31_Node000017_Node000004"><a xlink:title=" ">
<path fill="none" stroke="#63b8ff" d="M593.84,-219.45C600.61,-221.91 607.16,-225 613,-228.88 653.11,-255.51 682.58,-304.85 697.66,-334.49"/>
<polygon fill="#63b8ff" stroke="#63b8ff" points="694.65,-336.3 702.21,-343.72 700.93,-333.21 694.65,-336.3"/>
</a>
</g>
</g>
<!-- Node18&#45;&gt;Node4 -->
<g id="edge33_Node000018_Node000004" class="edge">
<title>Node18&#45;&gt;Node4</title>
<g id="a_edge33_Node000018_Node000004"><a xlink:title=" ">
<path fill="none" stroke="#63b8ff" d="M594.69,-181.97C601.23,-184.52 607.5,-187.76 613,-191.88 661.46,-228.21 689.41,-296.73 701.6,-333.7"/>
<polygon fill="#63b8ff" stroke="#63b8ff" points="698.4,-335.19 704.76,-343.67 705.08,-333.07 698.4,-335.19"/>
</a>
</g>
</g>
<!-- Node19&#45;&gt;Node4 -->
<g id="edge35_Node000019_Node000004" class="edge">
<title>Node19&#45;&gt;Node4</title>
<g id="a_edge35_Node000019_Node000004"><a xlink:title=" ">
<path fill="none" stroke="#63b8ff" d="M597.4,-145.54C603.01,-148 608.33,-151.07 613,-154.88 670.32,-201.63 695.33,-290.53 704.49,-333.87"/>
<polygon fill="#63b8ff" stroke="#63b8ff" points="701.1,-334.74 706.49,-343.85 707.96,-333.36 701.1,-334.74"/>
</a>
</g>
</g>
<!-- Node20&#45;&gt;Node4 -->
<g id="edge37_Node000020_Node000004" class="edge">
<title>Node20&#45;&gt;Node4</title>
<g id="a_edge37_Node000020_Node000004"><a xlink:title=" ">
<path fill="none" stroke="#63b8ff" d="M593.71,-106.59C600.73,-109.34 607.39,-113.01 613,-117.88 679.1,-175.23 700.16,-284.36 706.48,-333.63"/>
<polygon fill="#63b8ff" stroke="#63b8ff" points="703.02,-334.21 707.67,-343.73 709.97,-333.39 703.02,-334.21"/>
</a>
</g>
</g>
<!-- Node21&#45;&gt;Node4 -->
<g id="edge39_Node000021_Node000004" class="edge">
<title>Node21&#45;&gt;Node4</title>
<g id="a_edge39_Node000021_Node000004"><a xlink:title=" ">
<path fill="none" stroke="#63b8ff" d="M591.54,-68.43C599.41,-71.3 606.88,-75.31 613,-80.88 688.11,-149.17 704.46,-279.05 708.01,-333.67"/>
<polygon fill="#63b8ff" stroke="#63b8ff" points="704.53,-334.06 708.58,-343.85 711.52,-333.67 704.53,-334.06"/>
</a>
</g>
</g>
<!-- Node22&#45;&gt;Node4 -->
<g id="edge41_Node000022_Node000004" class="edge">
<title>Node22&#45;&gt;Node4</title>
<g id="a_edge41_Node000022_Node000004"><a xlink:title=" ">
<path fill="none" stroke="#63b8ff" d="M594.63,-30.32C601.42,-33.53 607.76,-37.63 613,-42.88 694.82,-124.84 707.29,-274.18 708.91,-333.56"/>
<polygon fill="#63b8ff" stroke="#63b8ff" points="705.42,-333.94 709.1,-343.87 712.41,-333.81 705.42,-333.94"/>
</a>
</g>
</g>
</g>
</svg>
