<?xml version="1.0" encoding="UTF-8" standalone="no"?>
<!DOCTYPE svg PUBLIC "-//W3C//DTD SVG 1.1//EN"
 "http://www.w3.org/Graphics/SVG/1.1/DTD/svg11.dtd">
<!-- Generated by graphviz version 2.43.0 (0)
 -->
<!-- Title: lci::broadcast Pages: 1 -->
<svg width="797pt" height="432pt"
 viewBox="0.00 0.00 797.00 432.00" xmlns="http://www.w3.org/2000/svg" xmlns:xlink="http://www.w3.org/1999/xlink">
<g id="graph0" class="graph" transform="scale(1 1) rotate(0) translate(4 428)">
<title>lci::broadcast</title>
<!-- Node1 -->
<g id="Node000001" class="node">
<title>Node1</title>
<g id="a_Node000001"><a xlink:title=" ">
<polygon fill="#999999" stroke="#666666" points="82,-228 0,-228 0,-209 82,-209 82,-228"/>
<text text-anchor="middle" x="41" y="-216" font-family="Helvetica,sans-Serif" font-size="10.00">lci::broadcast</text>
</a>
</g>
</g>
<!-- Node2 -->
<g id="Node000002" class="node">
<title>Node2</title>
<g id="a_Node000002"><a xlink:href="../../d2/d49/classlci_1_1broadcast__x.html#a2cf8cbe7f7e9184c613d00170606979d" target="_top" xlink:title=" ">
<polygon fill="white" stroke="#666666" points="234,-228 118,-228 118,-209 234,-209 234,-228"/>
<text text-anchor="middle" x="176" y="-216" font-family="Helvetica,sans-Serif" font-size="10.00">lci::broadcast_x::call</text>
</a>
</g>
</g>
<!-- Node1&#45;&gt;Node2 -->
<g id="edge1_Node000001_Node000002" class="edge">
<title>Node1&#45;&gt;Node2</title>
<g id="a_edge1_Node000001_Node000002"><a xlink:title=" ">
<path fill="none" stroke="#63b8ff" d="M82.27,-218.5C90.29,-218.5 98.92,-218.5 107.57,-218.5"/>
<polygon fill="#63b8ff" stroke="#63b8ff" points="107.7,-222 117.7,-218.5 107.7,-215 107.7,-222"/>
</a>
</g>
</g>
<!-- Node3 -->
<g id="Node000003" class="node">
<title>Node3</title>
<g id="a_Node000003"><a xlink:href="../../d2/d49/classlci_1_1broadcast__x.html#ae02e77204732b37ca314fd2a13ff838f" target="_top" xlink:title=" ">
<polygon fill="white" stroke="#666666" points="595,-424 449,-424 449,-405 595,-405 595,-424"/>
<text text-anchor="middle" x="522" y="-412" font-family="Helvetica,sans-Serif" font-size="10.00">lci::broadcast_x::algorithm</text>
</a>
</g>
</g>
<!-- Node2&#45;&gt;Node3 -->
<g id="edge2_Node000002_Node000003" class="edge">
<title>Node2&#45;&gt;Node3</title>
<g id="a_edge2_Node000002_Node000003"><a xlink:title=" ">
<path fill="none" stroke="#63b8ff" d="M179.93,-228.09C188.69,-255 217.36,-331.57 270,-367.5 319.35,-401.18 386.3,-412.43 438.64,-415.52"/>
<polygon fill="#63b8ff" stroke="#63b8ff" points="438.74,-419.03 448.91,-416.04 439.09,-412.04 438.74,-419.03"/>
</a>
</g>
</g>
<!-- Node5 -->
<g id="Node000005" class="node">
<title>Node5</title>
<g id="a_Node000005"><a xlink:href="../../d2/d49/classlci_1_1broadcast__x.html#ade77c1eb386a7e5b50de50c3f74a9328" target="_top" xlink:title=" ">
<polygon fill="white" stroke="#666666" points="586,-387 458,-387 458,-368 586,-368 586,-387"/>
<text text-anchor="middle" x="522" y="-375" font-family="Helvetica,sans-Serif" font-size="10.00">lci::broadcast_x::buffer</text>
</a>
</g>
</g>
<!-- Node2&#45;&gt;Node5 -->
<g id="edge4_Node000002_Node000005" class="edge">
<title>Node2&#45;&gt;Node5</title>
<g id="a_edge4_Node000002_Node000005"><a xlink:title=" ">
<path fill="none" stroke="#63b8ff" d="M181.7,-228.18C193.24,-250.8 225.31,-307.18 270,-333.5 323.88,-365.22 394.77,-375.33 447.46,-378.02"/>
<polygon fill="#63b8ff" stroke="#63b8ff" points="447.61,-381.53 457.75,-378.46 447.91,-374.54 447.61,-381.53"/>
</a>
</g>
</g>
<!-- Node6 -->
<g id="Node000006" class="node">
<title>Node6</title>
<g id="a_Node000006"><a xlink:href="../../d2/d49/classlci_1_1broadcast__x.html#a8f4620527fae11155f0b52a5ec370de3" target="_top" xlink:title=" ">
<polygon fill="white" stroke="#666666" points="413,-247 270,-247 270,-228 413,-228 413,-247"/>
<text text-anchor="middle" x="341.5" y="-235" font-family="Helvetica,sans-Serif" font-size="10.00">lci::broadcast_x::call_impl</text>
</a>
</g>
</g>
<!-- Node2&#45;&gt;Node6 -->
<g id="edge6_Node000002_Node000006" class="edge">
<title>Node2&#45;&gt;Node6</title>
<g id="a_edge6_Node000002_Node000006"><a xlink:title=" ">
<path fill="none" stroke="#63b8ff" d="M234.18,-225.15C242.46,-226.11 251.1,-227.11 259.73,-228.11"/>
<polygon fill="#63b8ff" stroke="#63b8ff" points="259.49,-231.61 269.83,-229.29 260.3,-224.66 259.49,-231.61"/>
</a>
</g>
</g>
<!-- Node7 -->
<g id="Node000007" class="node">
<title>Node7</title>
<g id="a_Node000007"><a xlink:href="../../d2/d49/classlci_1_1broadcast__x.html#a5512cd5d9649ff6abce9bda2ae86b3a9" target="_top" xlink:title=" ">
<polygon fill="white" stroke="#666666" points="585,-350 459,-350 459,-331 585,-331 585,-350"/>
<text text-anchor="middle" x="522" y="-338" font-family="Helvetica,sans-Serif" font-size="10.00">lci::broadcast_x::comp</text>
</a>
</g>
</g>
<!-- Node2&#45;&gt;Node7 -->
<g id="edge25_Node000002_Node000007" class="edge">
<title>Node2&#45;&gt;Node7</title>
<g id="a_edge25_Node000002_Node000007"><a xlink:title=" ">
<path fill="none" stroke="#63b8ff" d="M184.45,-228.27C198.81,-246.31 232.25,-284.62 270,-302.5 326.2,-329.12 396.69,-337.94 448.66,-340.5"/>
<polygon fill="#63b8ff" stroke="#63b8ff" points="448.65,-344 458.79,-340.93 448.95,-337.01 448.65,-344"/>
</a>
</g>
</g>
<!-- Node8 -->
<g id="Node000008" class="node">
<title>Node8</title>
<g id="a_Node000008"><a xlink:href="../../d2/d49/classlci_1_1broadcast__x.html#aaaf36a09c5f5629819c625533ffed024" target="_top" xlink:title=" ">
<polygon fill="white" stroke="#666666" points="587.5,-313 456.5,-313 456.5,-294 587.5,-294 587.5,-313"/>
<text text-anchor="middle" x="522" y="-301" font-family="Helvetica,sans-Serif" font-size="10.00">lci::broadcast_x::device</text>
</a>
</g>
</g>
<!-- Node2&#45;&gt;Node8 -->
<g id="edge26_Node000002_Node000008" class="edge">
<title>Node2&#45;&gt;Node8</title>
<g id="a_edge26_Node000002_Node000008"><a xlink:title=" ">
<path fill="none" stroke="#63b8ff" d="M188.44,-228.07C205.16,-241.46 237.8,-265.39 270,-276.5 326.98,-296.17 395.17,-302.5 446.09,-304.14"/>
<polygon fill="#63b8ff" stroke="#63b8ff" points="446.27,-307.65 456.36,-304.42 446.46,-300.65 446.27,-307.65"/>
</a>
</g>
</g>
<!-- Node9 -->
<g id="Node000009" class="node">
<title>Node9</title>
<g id="a_Node000009"><a xlink:href="../../d2/d49/classlci_1_1broadcast__x.html#aedda990f51e10283c461d58ae06c6c27" target="_top" xlink:title=" ">
<polygon fill="white" stroke="#666666" points="593,-276 451,-276 451,-257 593,-257 593,-276"/>
<text text-anchor="middle" x="522" y="-264" font-family="Helvetica,sans-Serif" font-size="10.00">lci::broadcast_x::endpoint</text>
</a>
</g>
</g>
<!-- Node2&#45;&gt;Node9 -->
<g id="edge27_Node000002_Node000009" class="edge">
<title>Node2&#45;&gt;Node9</title>
<g id="a_edge27_Node000002_Node000009"><a xlink:title=" ">
<path fill="none" stroke="#63b8ff" d="M194.92,-228.02C213.22,-237.21 242.73,-250.58 270,-256.5 326.22,-268.71 391.14,-270.99 440.88,-270.34"/>
<polygon fill="#63b8ff" stroke="#63b8ff" points="440.99,-273.83 450.93,-270.16 440.87,-266.83 440.99,-273.83"/>
</a>
</g>
</g>
<!-- Node10 -->
<g id="Node000010" class="node">
<title>Node10</title>
<g id="a_Node000010"><a xlink:href="../../d2/d49/classlci_1_1broadcast__x.html#a1d69a09a45da2685f83674feb8b89a52" target="_top" xlink:title=" ">
<polygon fill="white" stroke="#666666" points="594.5,-238.5 449.5,-238.5 449.5,-208.5 594.5,-208.5 594.5,-238.5"/>
<text text-anchor="start" x="457.5" y="-226.5" font-family="Helvetica,sans-Serif" font-size="10.00">lci::broadcast_x::matching</text>
<text text-anchor="middle" x="522" y="-215.5" font-family="Helvetica,sans-Serif" font-size="10.00">_engine</text>
</a>
</g>
</g>
<!-- Node2&#45;&gt;Node10 -->
<g id="edge29_Node000002_Node000010" class="edge">
<title>Node2&#45;&gt;Node10</title>
<g id="a_edge29_Node000002_Node000010"><a xlink:title=" ">
<path fill="none" stroke="#63b8ff" d="M234.23,-218.22C282.03,-218.11 351.96,-218.24 413,-219.5 421.43,-219.67 430.22,-219.91 439,-220.18"/>
<polygon fill="#63b8ff" stroke="#63b8ff" points="439.16,-223.69 449.26,-220.51 439.38,-216.69 439.16,-223.69"/>
</a>
</g>
</g>
<!-- Node11 -->
<g id="Node000011" class="node">
<title>Node11</title>
<g id="a_Node000011"><a xlink:href="../../d2/d49/classlci_1_1broadcast__x.html#a5983dc25d25181269707101f408d34f3" target="_top" xlink:title=" ">
<polygon fill="white" stroke="#666666" points="581,-190.5 463,-190.5 463,-160.5 581,-160.5 581,-190.5"/>
<text text-anchor="start" x="471" y="-178.5" font-family="Helvetica,sans-Serif" font-size="10.00">lci::broadcast_x::ring</text>
<text text-anchor="middle" x="522" y="-167.5" font-family="Helvetica,sans-Serif" font-size="10.00">_nsteps</text>
</a>
</g>
</g>
<!-- Node2&#45;&gt;Node11 -->
<g id="edge30_Node000002_Node000011" class="edge">
<title>Node2&#45;&gt;Node11</title>
<g id="a_edge30_Node000002_Node000011"><a xlink:title=" ">
<path fill="none" stroke="#63b8ff" d="M234.19,-211.35C294.31,-203.84 388.86,-192.02 452.82,-184.02"/>
<polygon fill="#63b8ff" stroke="#63b8ff" points="453.32,-187.49 462.81,-182.77 452.45,-180.54 453.32,-187.49"/>
</a>
</g>
</g>
<!-- Node12 -->
<g id="Node000012" class="node">
<title>Node12</title>
<g id="a_Node000012"><a xlink:href="../../d2/d49/classlci_1_1broadcast__x.html#a4d8f8c6d161b522b1ed10367301a1b1e" target="_top" xlink:title=" ">
<polygon fill="white" stroke="#666666" points="581.5,-142 462.5,-142 462.5,-123 581.5,-123 581.5,-142"/>
<text text-anchor="middle" x="522" y="-130" font-family="Helvetica,sans-Serif" font-size="10.00">lci::broadcast_x::root</text>
</a>
</g>
</g>
<!-- Node2&#45;&gt;Node12 -->
<g id="edge31_Node000002_Node000012" class="edge">
<title>Node2&#45;&gt;Node12</title>
<g id="a_edge31_Node000002_Node000012"><a xlink:title=" ">
<path fill="none" stroke="#63b8ff" d="M200.39,-208.87C219.01,-201.47 245.86,-191.37 270,-184.5 331.19,-167.08 402.32,-152.9 453.2,-143.77"/>
<polygon fill="#63b8ff" stroke="#63b8ff" points="453.86,-147.21 463.1,-142.01 452.64,-140.32 453.86,-147.21"/>
</a>
</g>
</g>
<!-- Node13 -->
<g id="Node000013" class="node">
<title>Node13</title>
<g id="a_Node000013"><a xlink:href="../../d2/d49/classlci_1_1broadcast__x.html#a577fe39525f3f807ae05a4a82d342748" target="_top" xlink:title=" ">
<polygon fill="white" stroke="#666666" points="590.5,-105 453.5,-105 453.5,-86 590.5,-86 590.5,-105"/>
<text text-anchor="middle" x="522" y="-93" font-family="Helvetica,sans-Serif" font-size="10.00">lci::broadcast_x::runtime</text>
</a>
</g>
</g>
<!-- Node2&#45;&gt;Node13 -->
<g id="edge32_Node000002_Node000013" class="edge">
<title>Node2&#45;&gt;Node13</title>
<g id="a_edge32_Node000002_Node000013"><a xlink:title=" ">
<path fill="none" stroke="#63b8ff" d="M186.31,-208.84C202.02,-193.16 235.47,-162.32 270,-146.5 324.95,-121.32 392.32,-108.5 443.42,-102.02"/>
<polygon fill="#63b8ff" stroke="#63b8ff" points="443.91,-105.48 453.42,-100.8 443.07,-98.53 443.91,-105.48"/>
</a>
</g>
</g>
<!-- Node14 -->
<g id="Node000014" class="node">
<title>Node14</title>
<g id="a_Node000014"><a xlink:href="../../d2/d49/classlci_1_1broadcast__x.html#a781ac63cbe086142460dbb1ea68843ea" target="_top" xlink:title=" ">
<polygon fill="white" stroke="#666666" points="581.5,-68 462.5,-68 462.5,-49 581.5,-49 581.5,-68"/>
<text text-anchor="middle" x="522" y="-56" font-family="Helvetica,sans-Serif" font-size="10.00">lci::broadcast_x::size</text>
</a>
</g>
</g>
<!-- Node2&#45;&gt;Node14 -->
<g id="edge33_Node000002_Node000014" class="edge">
<title>Node2&#45;&gt;Node14</title>
<g id="a_edge33_Node000002_Node000014"><a xlink:title=" ">
<path fill="none" stroke="#63b8ff" d="M181.68,-208.74C193.17,-185.92 225.13,-129.05 270,-102.5 325.53,-69.64 399.26,-59.94 452.43,-57.68"/>
<polygon fill="#63b8ff" stroke="#63b8ff" points="452.57,-61.18 462.44,-57.33 452.32,-54.18 452.57,-61.18"/>
</a>
</g>
</g>
<!-- Node15 -->
<g id="Node000015" class="node">
<title>Node15</title>
<g id="a_Node000015"><a xlink:href="../../d8/d33/group__LCI__BASIC.html#ga6e99f95e9b71b259ea5078c23d0ff4b9" target="_top" xlink:title="Get the number of ranks in the current application/job.">
<polygon fill="white" stroke="#666666" points="385.5,-19 297.5,-19 297.5,0 385.5,0 385.5,-19"/>
<text text-anchor="middle" x="341.5" y="-7" font-family="Helvetica,sans-Serif" font-size="10.00">lci::get_rank_n</text>
</a>
</g>
</g>
<!-- Node2&#45;&gt;Node15 -->
<g id="edge28_Node000002_Node000015" class="edge">
<title>Node2&#45;&gt;Node15</title>
<g id="a_edge28_Node000002_Node000015"><a xlink:title=" ">
<path fill="none" stroke="#63b8ff" d="M179.1,-208.85C186.22,-178.47 212.26,-83.79 270,-33.5 275.24,-28.94 281.39,-25.23 287.83,-22.22"/>
<polygon fill="#63b8ff" stroke="#63b8ff" points="289.48,-25.33 297.41,-18.3 286.83,-18.85 289.48,-25.33"/>
</a>
</g>
</g>
<!-- Node4 -->
<g id="Node000004" class="node">
<title>Node4</title>
<g id="a_Node000004"><a xlink:href="../../d2/d49/classlci_1_1broadcast__x.html#a95bdda8f651ab3b80bff3aba0acae48c" target="_top" xlink:title=" ">
<polygon fill="white" stroke="#666666" points="789,-254 631,-254 631,-235 789,-235 789,-254"/>
<text text-anchor="middle" x="710" y="-242" font-family="Helvetica,sans-Serif" font-size="10.00">lci::broadcast_x::broadcast_x</text>
</a>
</g>
</g>
<!-- Node3&#45;&gt;Node4 -->
<g id="edge3_Node000003_Node000004" class="edge">
<title>Node3&#45;&gt;Node4</title>
<g id="a_edge3_Node000003_Node000004"><a xlink:title=" ">
<path fill="none" stroke="#63b8ff" d="M578.15,-404.94C584.1,-402.69 589.85,-399.92 595,-396.5 646.82,-362.09 684.16,-295.89 700.23,-263.41"/>
<polygon fill="#63b8ff" stroke="#63b8ff" points="703.51,-264.66 704.69,-254.13 697.2,-261.63 703.51,-264.66"/>
</a>
</g>
</g>
<!-- Node5&#45;&gt;Node4 -->
<g id="edge5_Node000005_Node000004" class="edge">
<title>Node5&#45;&gt;Node4</title>
<g id="a_edge5_Node000005_Node000004"><a xlink:title=" ">
<path fill="none" stroke="#63b8ff" d="M575.45,-367.99C582.25,-365.73 588.95,-362.94 595,-359.5 638.74,-334.61 677.05,-288.3 696.14,-262.69"/>
<polygon fill="#63b8ff" stroke="#63b8ff" points="699.21,-264.42 702.28,-254.27 693.56,-260.29 699.21,-264.42"/>
</a>
</g>
</g>
<!-- Node6&#45;&gt;Node3 -->
<g id="edge7_Node000006_Node000003" class="edge">
<title>Node6&#45;&gt;Node3</title>
<g id="a_edge7_Node000006_Node000003"><a xlink:title=" ">
<path fill="none" stroke="#63b8ff" d="M346.05,-247.17C356.82,-275.09 391.92,-356.37 449,-396.5 451.12,-397.99 453.35,-399.36 455.67,-400.61"/>
<polygon fill="#63b8ff" stroke="#63b8ff" points="454.38,-403.88 464.93,-404.92 457.33,-397.53 454.38,-403.88"/>
</a>
</g>
</g>
<!-- Node6&#45;&gt;Node5 -->
<g id="edge8_Node000006_Node000005" class="edge">
<title>Node6&#45;&gt;Node5</title>
<g id="a_edge8_Node000006_Node000005"><a xlink:title=" ">
<path fill="none" stroke="#63b8ff" d="M348.04,-247.19C361.87,-270.45 400.31,-329.71 449,-359.5 451.8,-361.21 454.76,-362.77 457.82,-364.17"/>
<polygon fill="#63b8ff" stroke="#63b8ff" points="456.63,-367.47 467.22,-367.96 459.25,-360.97 456.63,-367.47"/>
</a>
</g>
</g>
<!-- Node6&#45;&gt;Node7 -->
<g id="edge9_Node000006_Node000007" class="edge">
<title>Node6&#45;&gt;Node7</title>
<g id="a_edge9_Node000006_Node000007"><a xlink:title=" ">
<path fill="none" stroke="#63b8ff" d="M351.51,-247.01C368.74,-264.62 408.29,-302.36 449,-322.5 452.83,-324.4 456.88,-326.1 461.03,-327.64"/>
<polygon fill="#63b8ff" stroke="#63b8ff" points="460.22,-331.06 470.82,-330.91 462.44,-324.42 460.22,-331.06"/>
</a>
</g>
</g>
<!-- Node6&#45;&gt;Node8 -->
<g id="edge11_Node000006_Node000008" class="edge">
<title>Node6&#45;&gt;Node8</title>
<g id="a_edge11_Node000006_Node000008"><a xlink:title=" ">
<path fill="none" stroke="#63b8ff" d="M360.94,-247.03C381.86,-257.55 417.2,-274.46 449,-285.5 454.99,-287.58 461.34,-289.53 467.69,-291.31"/>
<polygon fill="#63b8ff" stroke="#63b8ff" points="467.04,-294.76 477.61,-293.98 468.86,-288 467.04,-294.76"/>
</a>
</g>
</g>
<!-- Node6&#45;&gt;Node9 -->
<g id="edge13_Node000006_Node000009" class="edge">
<title>Node6&#45;&gt;Node9</title>
<g id="a_edge13_Node000006_Node000009"><a xlink:title=" ">
<path fill="none" stroke="#63b8ff" d="M401.44,-247.08C417.67,-249.71 435.42,-252.6 452.16,-255.32"/>
<polygon fill="#63b8ff" stroke="#63b8ff" points="451.99,-258.83 462.42,-256.98 453.11,-251.93 451.99,-258.83"/>
</a>
</g>
</g>
<!-- Node6&#45;&gt;Node10 -->
<g id="edge15_Node000006_Node000010" class="edge">
<title>Node6&#45;&gt;Node10</title>
<g id="a_edge15_Node000006_Node000010"><a xlink:title=" ">
<path fill="none" stroke="#63b8ff" d="M413.05,-231.97C421.59,-231.3 430.38,-230.61 439.07,-229.93"/>
<polygon fill="#63b8ff" stroke="#63b8ff" points="439.51,-233.4 449.21,-229.13 438.97,-226.42 439.51,-233.4"/>
</a>
</g>
</g>
<!-- Node6&#45;&gt;Node11 -->
<g id="edge17_Node000006_Node000011" class="edge">
<title>Node6&#45;&gt;Node11</title>
<g id="a_edge17_Node000006_Node000011"><a xlink:title=" ">
<path fill="none" stroke="#63b8ff" d="M368.71,-227.98C390.23,-220.2 421.53,-208.98 449,-199.5 454.43,-197.63 460.09,-195.7 465.75,-193.78"/>
<polygon fill="#63b8ff" stroke="#63b8ff" points="466.88,-197.1 475.24,-190.59 464.65,-190.46 466.88,-197.1"/>
</a>
</g>
</g>
<!-- Node6&#45;&gt;Node12 -->
<g id="edge19_Node000006_Node000012" class="edge">
<title>Node6&#45;&gt;Node12</title>
<g id="a_edge19_Node000006_Node000012"><a xlink:title=" ">
<path fill="none" stroke="#63b8ff" d="M351.51,-227.93C368.74,-210.18 408.29,-172.11 449,-151.5 453.57,-149.19 458.45,-147.14 463.43,-145.32"/>
<polygon fill="#63b8ff" stroke="#63b8ff" points="464.7,-148.58 473.09,-142.11 462.49,-141.94 464.7,-148.58"/>
</a>
</g>
</g>
<!-- Node6&#45;&gt;Node13 -->
<g id="edge21_Node000006_Node000013" class="edge">
<title>Node6&#45;&gt;Node13</title>
<g id="a_edge21_Node000006_Node000013"><a xlink:title=" ">
<path fill="none" stroke="#63b8ff" d="M348.05,-227.77C361.89,-204.41 400.34,-144.84 449,-114.5 452.42,-112.37 456.07,-110.47 459.85,-108.79"/>
<polygon fill="#63b8ff" stroke="#63b8ff" points="461.42,-111.93 469.45,-105.03 458.87,-105.42 461.42,-111.93"/>
</a>
</g>
</g>
<!-- Node6&#45;&gt;Node14 -->
<g id="edge23_Node000006_Node000014" class="edge">
<title>Node6&#45;&gt;Node14</title>
<g id="a_edge23_Node000006_Node000014"><a xlink:title=" ">
<path fill="none" stroke="#63b8ff" d="M346.01,-227.71C356.69,-199.45 391.54,-117.14 449,-76.5 451.12,-75 453.35,-73.63 455.66,-72.37"/>
<polygon fill="#63b8ff" stroke="#63b8ff" points="457.32,-75.45 464.91,-68.06 454.36,-69.11 457.32,-75.45"/>
</a>
</g>
</g>
<!-- Node7&#45;&gt;Node4 -->
<g id="edge10_Node000007_Node000004" class="edge">
<title>Node7&#45;&gt;Node4</title>
<g id="a_edge10_Node000007_Node000004"><a xlink:title=" ">
<path fill="none" stroke="#63b8ff" d="M571.44,-330.91C579.48,-328.61 587.6,-325.83 595,-322.5 631.3,-306.18 668.45,-278.24 690.09,-260.6"/>
<polygon fill="#63b8ff" stroke="#63b8ff" points="692.38,-263.25 697.85,-254.17 687.91,-257.86 692.38,-263.25"/>
</a>
</g>
</g>
<!-- Node8&#45;&gt;Node4 -->
<g id="edge12_Node000008_Node000004" class="edge">
<title>Node8&#45;&gt;Node4</title>
<g id="a_edge12_Node000008_Node000004"><a xlink:title=" ">
<path fill="none" stroke="#63b8ff" d="M564.32,-293.93C574.41,-291.38 585.14,-288.5 595,-285.5 622.35,-277.19 652.78,-266.15 675.32,-257.62"/>
<polygon fill="#63b8ff" stroke="#63b8ff" points="676.68,-260.85 684.78,-254.01 674.18,-254.31 676.68,-260.85"/>
</a>
</g>
</g>
<!-- Node9&#45;&gt;Node4 -->
<g id="edge14_Node000009_Node000004" class="edge">
<title>Node9&#45;&gt;Node4</title>
<g id="a_edge14_Node000009_Node000004"><a xlink:title=" ">
<path fill="none" stroke="#63b8ff" d="M593.05,-258.21C602.13,-257.14 611.51,-256.03 620.84,-254.93"/>
<polygon fill="#63b8ff" stroke="#63b8ff" points="621.39,-258.39 630.91,-253.74 620.56,-251.44 621.39,-258.39"/>
</a>
</g>
</g>
<!-- Node10&#45;&gt;Node4 -->
<g id="edge16_Node000010_Node000004" class="edge">
<title>Node10&#45;&gt;Node4</title>
<g id="a_edge16_Node000010_Node000004"><a xlink:title=" ">
<path fill="none" stroke="#63b8ff" d="M594.65,-231.59C603.18,-232.55 611.96,-233.54 620.7,-234.53"/>
<polygon fill="#63b8ff" stroke="#63b8ff" points="620.57,-238.04 630.9,-235.68 621.36,-231.08 620.57,-238.04"/>
</a>
</g>
</g>
<!-- Node11&#45;&gt;Node4 -->
<g id="edge18_Node000011_Node000004" class="edge">
<title>Node11&#45;&gt;Node4</title>
<g id="a_edge18_Node000011_Node000004"><a xlink:title=" ">
<path fill="none" stroke="#63b8ff" d="M569.61,-190.62C578.08,-193.49 586.83,-196.53 595,-199.5 622.7,-209.57 653.79,-221.92 676.5,-231.13"/>
<polygon fill="#63b8ff" stroke="#63b8ff" points="675.41,-234.47 686,-234.99 678.05,-227.98 675.41,-234.47"/>
</a>
</g>
</g>
<!-- Node12&#45;&gt;Node4 -->
<g id="edge20_Node000012_Node000004" class="edge">
<title>Node12&#45;&gt;Node4</title>
<g id="a_edge20_Node000012_Node000004"><a xlink:title=" ">
<path fill="none" stroke="#63b8ff" d="M570.93,-142.08C579.19,-144.58 587.51,-147.69 595,-151.5 634.15,-171.44 672.16,-206.58 692.89,-227.48"/>
<polygon fill="#63b8ff" stroke="#63b8ff" points="690.46,-230.01 699.95,-234.74 695.48,-225.13 690.46,-230.01"/>
</a>
</g>
</g>
<!-- Node13&#45;&gt;Node4 -->
<g id="edge22_Node000013_Node000004" class="edge">
<title>Node13&#45;&gt;Node4</title>
<g id="a_edge22_Node000013_Node000004"><a xlink:title=" ">
<path fill="none" stroke="#63b8ff" d="M574.52,-105.06C581.69,-107.53 588.73,-110.62 595,-114.5 642,-143.61 680.38,-198.12 698.22,-226.42"/>
<polygon fill="#63b8ff" stroke="#63b8ff" points="695.24,-228.25 703.46,-234.93 701.2,-224.58 695.24,-228.25"/>
</a>
</g>
</g>
<!-- Node14&#45;&gt;Node4 -->
<g id="edge24_Node000014_Node000004" class="edge">
<title>Node14&#45;&gt;Node4</title>
<g id="a_edge24_Node000014_Node000004"><a xlink:title=" ">
<path fill="none" stroke="#63b8ff" d="M579.05,-68.11C584.7,-70.35 590.14,-73.11 595,-76.5 650.25,-115.1 686.57,-189.77 701.41,-225.09"/>
<polygon fill="#63b8ff" stroke="#63b8ff" points="698.31,-226.76 705.32,-234.7 704.79,-224.12 698.31,-226.76"/>
</a>
</g>
</g>
</g>
</svg>
