<?xml version="1.0" encoding="UTF-8" standalone="no"?>
<!DOCTYPE svg PUBLIC "-//W3C//DTD SVG 1.1//EN"
 "http://www.w3.org/Graphics/SVG/1.1/DTD/svg11.dtd">
<!-- Generated by graphviz version 2.43.0 (0)
 -->
<!-- Title: lci::register_memory Pages: 1 -->
<svg width="753pt" height="182pt"
 viewBox="0.00 0.00 753.00 182.00" xmlns="http://www.w3.org/2000/svg" xmlns:xlink="http://www.w3.org/1999/xlink">
<g id="graph0" class="graph" transform="scale(1 1) rotate(0) translate(4 178)">
<title>lci::register_memory</title>
<!-- Node1 -->
<g id="Node000001" class="node">
<title>Node1</title>
<g id="a_Node000001"><a xlink:title=" ">
<polygon fill="#999999" stroke="#666666" points="118,-96.5 0,-96.5 0,-77.5 118,-77.5 118,-96.5"/>
<text text-anchor="middle" x="59" y="-84.5" font-family="Helvetica,sans-Serif" font-size="10.00">lci::register_memory</text>
</a>
</g>
</g>
<!-- Node2 -->
<g id="Node000002" class="node">
<title>Node2</title>
<g id="a_Node000002"><a xlink:href="../../d0/d73/classlci_1_1register__memory__x.html#aef62bcfd25206c0880ec037a18b938b2" target="_top" xlink:title=" ">
<polygon fill="white" stroke="#666666" points="272,-102 154,-102 154,-72 272,-72 272,-102"/>
<text text-anchor="start" x="162" y="-90" font-family="Helvetica,sans-Serif" font-size="10.00">lci::register_memory</text>
<text text-anchor="middle" x="213" y="-79" font-family="Helvetica,sans-Serif" font-size="10.00">_x::call</text>
</a>
</g>
</g>
<!-- Node1&#45;&gt;Node2 -->
<g id="edge1_Node000001_Node000002" class="edge">
<title>Node1&#45;&gt;Node2</title>
<g id="a_edge1_Node000001_Node000002"><a xlink:title=" ">
<path fill="none" stroke="#63b8ff" d="M118.33,-87C126.61,-87 135.17,-87 143.62,-87"/>
<polygon fill="#63b8ff" stroke="#63b8ff" points="143.82,-90.5 153.82,-87 143.82,-83.5 143.82,-90.5"/>
</a>
</g>
</g>
<!-- Node3 -->
<g id="Node000003" class="node">
<title>Node3</title>
<g id="a_Node000003"><a xlink:href="../../d0/d73/classlci_1_1register__memory__x.html#a1311697d2ab63d99da7dec91cc918410" target="_top" xlink:title=" ">
<polygon fill="white" stroke="#666666" points="580,-174 462,-174 462,-144 580,-144 580,-174"/>
<text text-anchor="start" x="470" y="-162" font-family="Helvetica,sans-Serif" font-size="10.00">lci::register_memory</text>
<text text-anchor="middle" x="521" y="-151" font-family="Helvetica,sans-Serif" font-size="10.00">_x::address</text>
</a>
</g>
</g>
<!-- Node2&#45;&gt;Node3 -->
<g id="edge2_Node000002_Node000003" class="edge">
<title>Node2&#45;&gt;Node3</title>
<g id="a_edge2_Node000002_Node000003"><a xlink:title=" ">
<path fill="none" stroke="#63b8ff" d="M244.2,-102.16C262.29,-110.66 285.99,-120.76 308,-127 354.98,-140.31 409.48,-148.38 451.46,-153.09"/>
<polygon fill="#63b8ff" stroke="#63b8ff" points="451.26,-156.59 461.58,-154.19 452.01,-149.63 451.26,-156.59"/>
</a>
</g>
</g>
<!-- Node5 -->
<g id="Node000005" class="node">
<title>Node5</title>
<g id="a_Node000005"><a xlink:href="../../d0/d73/classlci_1_1register__memory__x.html#a396a39298e09cb152edfed607dfe2041" target="_top" xlink:title=" ">
<polygon fill="white" stroke="#666666" points="426,-102 308,-102 308,-72 426,-72 426,-102"/>
<text text-anchor="start" x="316" y="-90" font-family="Helvetica,sans-Serif" font-size="10.00">lci::register_memory</text>
<text text-anchor="middle" x="367" y="-79" font-family="Helvetica,sans-Serif" font-size="10.00">_x::call_impl</text>
</a>
</g>
</g>
<!-- Node2&#45;&gt;Node5 -->
<g id="edge4_Node000002_Node000005" class="edge">
<title>Node2&#45;&gt;Node5</title>
<g id="a_edge4_Node000002_Node000005"><a xlink:title=" ">
<path fill="none" stroke="#63b8ff" d="M272.33,-87C280.61,-87 289.17,-87 297.62,-87"/>
<polygon fill="#63b8ff" stroke="#63b8ff" points="297.82,-90.5 307.82,-87 297.82,-83.5 297.82,-90.5"/>
</a>
</g>
</g>
<!-- Node6 -->
<g id="Node000006" class="node">
<title>Node6</title>
<g id="a_Node000006"><a xlink:href="../../d0/d73/classlci_1_1register__memory__x.html#a1c21f328e209be70eb918afcac78f443" target="_top" xlink:title=" ">
<polygon fill="white" stroke="#666666" points="580,-126 462,-126 462,-96 580,-96 580,-126"/>
<text text-anchor="start" x="470" y="-114" font-family="Helvetica,sans-Serif" font-size="10.00">lci::register_memory</text>
<text text-anchor="middle" x="521" y="-103" font-family="Helvetica,sans-Serif" font-size="10.00">_x::device</text>
</a>
</g>
</g>
<!-- Node2&#45;&gt;Node6 -->
<g id="edge12_Node000002_Node000006" class="edge">
<title>Node2&#45;&gt;Node6</title>
<g id="a_edge12_Node000002_Node000006"><a xlink:title=" ">
<path fill="none" stroke="#63b8ff" d="M263.31,-102.05C277.59,-105.74 293.29,-109.15 308,-111 355.74,-117 410,-116.87 451.68,-115.31"/>
<polygon fill="#63b8ff" stroke="#63b8ff" points="451.87,-118.8 461.72,-114.9 451.58,-111.81 451.87,-118.8"/>
</a>
</g>
</g>
<!-- Node7 -->
<g id="Node000007" class="node">
<title>Node7</title>
<g id="a_Node000007"><a xlink:href="../../d0/d73/classlci_1_1register__memory__x.html#acea5e15e35ec33ea9f9e9078bfcec645" target="_top" xlink:title=" ">
<polygon fill="white" stroke="#666666" points="580,-78 462,-78 462,-48 580,-48 580,-78"/>
<text text-anchor="start" x="470" y="-66" font-family="Helvetica,sans-Serif" font-size="10.00">lci::register_memory</text>
<text text-anchor="middle" x="521" y="-55" font-family="Helvetica,sans-Serif" font-size="10.00">_x::runtime</text>
</a>
</g>
</g>
<!-- Node2&#45;&gt;Node7 -->
<g id="edge13_Node000002_Node000007" class="edge">
<title>Node2&#45;&gt;Node7</title>
<g id="a_edge13_Node000002_Node000007"><a xlink:title=" ">
<path fill="none" stroke="#63b8ff" d="M263.31,-71.95C277.59,-68.26 293.29,-64.85 308,-63 355.74,-57 410,-57.13 451.68,-58.69"/>
<polygon fill="#63b8ff" stroke="#63b8ff" points="451.58,-62.19 461.72,-59.1 451.87,-55.2 451.58,-62.19"/>
</a>
</g>
</g>
<!-- Node8 -->
<g id="Node000008" class="node">
<title>Node8</title>
<g id="a_Node000008"><a xlink:href="../../d0/d73/classlci_1_1register__memory__x.html#a7476c52c223d352cda4407cf005ba436" target="_top" xlink:title=" ">
<polygon fill="white" stroke="#666666" points="580,-30 462,-30 462,0 580,0 580,-30"/>
<text text-anchor="start" x="470" y="-18" font-family="Helvetica,sans-Serif" font-size="10.00">lci::register_memory</text>
<text text-anchor="middle" x="521" y="-7" font-family="Helvetica,sans-Serif" font-size="10.00">_x::size</text>
</a>
</g>
</g>
<!-- Node2&#45;&gt;Node8 -->
<g id="edge14_Node000002_Node000008" class="edge">
<title>Node2&#45;&gt;Node8</title>
<g id="a_edge14_Node000002_Node000008"><a xlink:title=" ">
<path fill="none" stroke="#63b8ff" d="M251.04,-71.96C268.16,-65.43 288.89,-58.13 308,-53 355.38,-40.28 409.87,-30.62 451.74,-24.22"/>
<polygon fill="#63b8ff" stroke="#63b8ff" points="452.46,-27.65 461.83,-22.71 451.42,-20.73 452.46,-27.65"/>
</a>
</g>
</g>
<!-- Node4 -->
<g id="Node000004" class="node">
<title>Node4</title>
<g id="a_Node000004"><a xlink:href="../../d0/d73/classlci_1_1register__memory__x.html#ae43dcb30961d8154e8df03c89d9c2752" target="_top" xlink:title=" ">
<polygon fill="white" stroke="#666666" points="745,-102 616,-102 616,-72 745,-72 745,-102"/>
<text text-anchor="start" x="624" y="-90" font-family="Helvetica,sans-Serif" font-size="10.00">lci::register_memory</text>
<text text-anchor="middle" x="680.5" y="-79" font-family="Helvetica,sans-Serif" font-size="10.00">_x::register_memory_x</text>
</a>
</g>
</g>
<!-- Node3&#45;&gt;Node4 -->
<g id="edge3_Node000003_Node000004" class="edge">
<title>Node3&#45;&gt;Node4</title>
<g id="a_edge3_Node000003_Node000004"><a xlink:title=" ">
<path fill="none" stroke="#63b8ff" d="M559.26,-143.95C566.19,-141.05 573.34,-137.98 580,-135 599.98,-126.06 621.91,-115.55 640.09,-106.65"/>
<polygon fill="#63b8ff" stroke="#63b8ff" points="641.8,-109.71 649.23,-102.16 638.71,-103.43 641.8,-109.71"/>
</a>
</g>
</g>
<!-- Node5&#45;&gt;Node3 -->
<g id="edge5_Node000005_Node000003" class="edge">
<title>Node5&#45;&gt;Node3</title>
<g id="a_edge5_Node000005_Node000003"><a xlink:title=" ">
<path fill="none" stroke="#63b8ff" d="M396.09,-102.09C414.63,-111.86 439.54,-124.64 462,-135 465.57,-136.65 469.29,-138.31 473.04,-139.94"/>
<polygon fill="#63b8ff" stroke="#63b8ff" points="471.8,-143.22 482.37,-143.94 474.56,-136.79 471.8,-143.22"/>
</a>
</g>
</g>
<!-- Node5&#45;&gt;Node6 -->
<g id="edge6_Node000005_Node000006" class="edge">
<title>Node5&#45;&gt;Node6</title>
<g id="a_edge6_Node000005_Node000006"><a xlink:title=" ">
<path fill="none" stroke="#63b8ff" d="M426.33,-96.21C434.7,-97.53 443.36,-98.9 451.9,-100.25"/>
<polygon fill="#63b8ff" stroke="#63b8ff" points="451.4,-103.71 461.82,-101.81 452.49,-96.8 451.4,-103.71"/>
</a>
</g>
</g>
<!-- Node5&#45;&gt;Node7 -->
<g id="edge8_Node000005_Node000007" class="edge">
<title>Node5&#45;&gt;Node7</title>
<g id="a_edge8_Node000005_Node000007"><a xlink:title=" ">
<path fill="none" stroke="#63b8ff" d="M426.33,-77.79C434.7,-76.47 443.36,-75.1 451.9,-73.75"/>
<polygon fill="#63b8ff" stroke="#63b8ff" points="452.49,-77.2 461.82,-72.19 451.4,-70.29 452.49,-77.2"/>
</a>
</g>
</g>
<!-- Node5&#45;&gt;Node8 -->
<g id="edge10_Node000005_Node000008" class="edge">
<title>Node5&#45;&gt;Node8</title>
<g id="a_edge10_Node000005_Node000008"><a xlink:title=" ">
<path fill="none" stroke="#63b8ff" d="M396.09,-71.91C414.63,-62.14 439.54,-49.36 462,-39 465.57,-37.35 469.29,-35.69 473.04,-34.06"/>
<polygon fill="#63b8ff" stroke="#63b8ff" points="474.56,-37.21 482.37,-30.06 471.8,-30.78 474.56,-37.21"/>
</a>
</g>
</g>
<!-- Node6&#45;&gt;Node4 -->
<g id="edge7_Node000006_Node000004" class="edge">
<title>Node6&#45;&gt;Node4</title>
<g id="a_edge7_Node000006_Node000004"><a xlink:title=" ">
<path fill="none" stroke="#63b8ff" d="M580.2,-102.13C588.58,-100.86 597.29,-99.53 605.91,-98.21"/>
<polygon fill="#63b8ff" stroke="#63b8ff" points="606.62,-101.65 615.98,-96.68 605.57,-94.73 606.62,-101.65"/>
</a>
</g>
</g>
<!-- Node7&#45;&gt;Node4 -->
<g id="edge9_Node000007_Node000004" class="edge">
<title>Node7&#45;&gt;Node4</title>
<g id="a_edge9_Node000007_Node000004"><a xlink:title=" ">
<path fill="none" stroke="#63b8ff" d="M580.2,-71.87C588.58,-73.14 597.29,-74.47 605.91,-75.79"/>
<polygon fill="#63b8ff" stroke="#63b8ff" points="605.57,-79.27 615.98,-77.32 606.62,-72.35 605.57,-79.27"/>
</a>
</g>
</g>
<!-- Node8&#45;&gt;Node4 -->
<g id="edge11_Node000008_Node000004" class="edge">
<title>Node8&#45;&gt;Node4</title>
<g id="a_edge11_Node000008_Node000004"><a xlink:title=" ">
<path fill="none" stroke="#63b8ff" d="M559.26,-30.05C566.19,-32.95 573.34,-36.02 580,-39 599.98,-47.94 621.91,-58.45 640.09,-67.35"/>
<polygon fill="#63b8ff" stroke="#63b8ff" points="638.71,-70.57 649.23,-71.84 641.8,-64.29 638.71,-70.57"/>
</a>
</g>
</g>
</g>
</svg>
