<?xml version="1.0" encoding="UTF-8" standalone="no"?>
<!DOCTYPE svg PUBLIC "-//W3C//DTD SVG 1.1//EN"
 "http://www.w3.org/Graphics/SVG/1.1/DTD/svg11.dtd">
<!-- Generated by graphviz version 2.43.0 (0)
 -->
<!-- Title: lci::get_rank_n Pages: 1 -->
<svg width="432pt" height="224pt"
 viewBox="0.00 0.00 432.00 224.00" xmlns="http://www.w3.org/2000/svg" xmlns:xlink="http://www.w3.org/1999/xlink">
<g id="graph0" class="graph" transform="scale(1 1) rotate(0) translate(4 220)">
<title>lci::get_rank_n</title>
<!-- Node1 -->
<g id="Node000001" class="node">
<title>Node1</title>
<g id="a_Node000001"><a xlink:title=" ">
<polygon fill="#999999" stroke="#666666" points="424,-124 336,-124 336,-105 424,-105 424,-124"/>
<text text-anchor="middle" x="380" y="-112" font-family="Helvetica,sans-Serif" font-size="10.00">lci::get_rank_n</text>
</a>
</g>
</g>
<!-- Node2 -->
<g id="Node000002" class="node">
<title>Node2</title>
<g id="a_Node000002"><a xlink:href="../../dc/d4c/classlci_1_1allreduce__x.html#ad70970fdb1d158340fbd6f67704cbc0b" target="_top" xlink:title=" ">
<polygon fill="white" stroke="#666666" points="298.5,-179 185.5,-179 185.5,-160 298.5,-160 298.5,-179"/>
<text text-anchor="middle" x="242" y="-167" font-family="Helvetica,sans-Serif" font-size="10.00">lci::allreduce_x::call</text>
</a>
</g>
</g>
<!-- Node1&#45;&gt;Node2 -->
<g id="edge1_Node000001_Node000002" class="edge">
<title>Node1&#45;&gt;Node2</title>
<g id="a_edge1_Node000001_Node000002"><a xlink:title=" ">
<path fill="none" stroke="#63b8ff" d="M345.73,-127.95C321.32,-137.83 288.74,-151 266.87,-159.84"/>
<polygon fill="#63b8ff" stroke="#63b8ff" points="347.35,-131.07 355.31,-124.08 344.73,-124.58 347.35,-131.07"/>
</a>
</g>
</g>
<!-- Node5 -->
<g id="Node000005" class="node">
<title>Node5</title>
<g id="a_Node000005"><a xlink:href="../../d2/d49/classlci_1_1broadcast__x.html#a2cf8cbe7f7e9184c613d00170606979d" target="_top" xlink:title=" ">
<polygon fill="white" stroke="#666666" points="300,-124 184,-124 184,-105 300,-105 300,-124"/>
<text text-anchor="middle" x="242" y="-112" font-family="Helvetica,sans-Serif" font-size="10.00">lci::broadcast_x::call</text>
</a>
</g>
</g>
<!-- Node1&#45;&gt;Node5 -->
<g id="edge4_Node000001_Node000005" class="edge">
<title>Node1&#45;&gt;Node5</title>
<g id="a_edge4_Node000001_Node000005"><a xlink:title=" ">
<path fill="none" stroke="#63b8ff" d="M325.88,-114.5C317.45,-114.5 308.7,-114.5 300.18,-114.5"/>
<polygon fill="#63b8ff" stroke="#63b8ff" points="325.97,-118 335.97,-114.5 325.97,-111 325.97,-118"/>
</a>
</g>
</g>
<!-- Node8 -->
<g id="Node000008" class="node">
<title>Node8</title>
<g id="a_Node000008"><a xlink:href="../../da/ded/classlci_1_1reduce__scatter__x.html#ad009b3d0c00b5951d0116485cc00a24c" target="_top" xlink:title=" ">
<polygon fill="white" stroke="#666666" points="295,-67.5 189,-67.5 189,-37.5 295,-37.5 295,-67.5"/>
<text text-anchor="start" x="197" y="-55.5" font-family="Helvetica,sans-Serif" font-size="10.00">lci::reduce_scatter</text>
<text text-anchor="middle" x="242" y="-44.5" font-family="Helvetica,sans-Serif" font-size="10.00">_x::call</text>
</a>
</g>
</g>
<!-- Node1&#45;&gt;Node8 -->
<g id="edge7_Node000001_Node000008" class="edge">
<title>Node1&#45;&gt;Node8</title>
<g id="a_edge7_Node000001_Node000008"><a xlink:title=" ">
<path fill="none" stroke="#63b8ff" d="M348.73,-100.7C327.21,-90.89 298.3,-77.71 276.16,-67.62"/>
<polygon fill="#63b8ff" stroke="#63b8ff" points="347.5,-103.98 358.05,-104.95 350.4,-97.62 347.5,-103.98"/>
</a>
</g>
</g>
<!-- Node3 -->
<g id="Node000003" class="node">
<title>Node3</title>
<g id="a_Node000003"><a xlink:href="../../d5/dd3/namespacelci.html#ac8ef1bed5031bfdf08b7d80a33809d40" target="_top" xlink:title=" ">
<polygon fill="white" stroke="#666666" points="113.5,-216 34.5,-216 34.5,-197 113.5,-197 113.5,-216"/>
<text text-anchor="middle" x="74" y="-204" font-family="Helvetica,sans-Serif" font-size="10.00">lci::allreduce</text>
</a>
</g>
</g>
<!-- Node2&#45;&gt;Node3 -->
<g id="edge2_Node000002_Node000003" class="edge">
<title>Node2&#45;&gt;Node3</title>
<g id="a_edge2_Node000002_Node000003"><a xlink:title=" ">
<path fill="none" stroke="#63b8ff" d="M188.48,-181.21C164.21,-186.62 135.9,-192.93 113.63,-197.89"/>
<polygon fill="#63b8ff" stroke="#63b8ff" points="189.25,-184.62 198.25,-179.03 187.73,-177.79 189.25,-184.62"/>
</a>
</g>
</g>
<!-- Node4 -->
<g id="Node000004" class="node">
<title>Node4</title>
<g id="a_Node000004"><a xlink:href="../../dc/d4c/classlci_1_1allreduce__x.html#a246221d4fb66fae97d9b84458d9362d3" target="_top" xlink:title=" ">
<polygon fill="white" stroke="#666666" points="146.5,-179 1.5,-179 1.5,-160 146.5,-160 146.5,-179"/>
<text text-anchor="middle" x="74" y="-167" font-family="Helvetica,sans-Serif" font-size="10.00">lci::allreduce_x::operator()</text>
</a>
</g>
</g>
<!-- Node2&#45;&gt;Node4 -->
<g id="edge3_Node000002_Node000004" class="edge">
<title>Node2&#45;&gt;Node4</title>
<g id="a_edge3_Node000002_Node000004"><a xlink:title=" ">
<path fill="none" stroke="#63b8ff" d="M175.19,-169.5C165.76,-169.5 156.03,-169.5 146.51,-169.5"/>
<polygon fill="#63b8ff" stroke="#63b8ff" points="175.26,-173 185.26,-169.5 175.26,-166 175.26,-173"/>
</a>
</g>
</g>
<!-- Node6 -->
<g id="Node000006" class="node">
<title>Node6</title>
<g id="a_Node000006"><a xlink:href="../../d5/dd3/namespacelci.html#a16edb894b126be5a60737362cea89af5" target="_top" xlink:title=" ">
<polygon fill="white" stroke="#666666" points="115,-142 33,-142 33,-123 115,-123 115,-142"/>
<text text-anchor="middle" x="74" y="-130" font-family="Helvetica,sans-Serif" font-size="10.00">lci::broadcast</text>
</a>
</g>
</g>
<!-- Node5&#45;&gt;Node6 -->
<g id="edge5_Node000005_Node000006" class="edge">
<title>Node5&#45;&gt;Node6</title>
<g id="a_edge5_Node000005_Node000006"><a xlink:title=" ">
<path fill="none" stroke="#63b8ff" d="M173.92,-121.77C154.02,-123.93 132.85,-126.23 115.22,-128.14"/>
<polygon fill="#63b8ff" stroke="#63b8ff" points="174.31,-125.25 183.87,-120.69 173.55,-118.29 174.31,-125.25"/>
</a>
</g>
</g>
<!-- Node7 -->
<g id="Node000007" class="node">
<title>Node7</title>
<g id="a_Node000007"><a xlink:href="../../d2/d49/classlci_1_1broadcast__x.html#a38dee647c6e537e46e491de5fc4ba047" target="_top" xlink:title=" ">
<polygon fill="white" stroke="#666666" points="148,-105 0,-105 0,-86 148,-86 148,-105"/>
<text text-anchor="middle" x="74" y="-93" font-family="Helvetica,sans-Serif" font-size="10.00">lci::broadcast_x::operator()</text>
</a>
</g>
</g>
<!-- Node5&#45;&gt;Node7 -->
<g id="edge6_Node000005_Node000007" class="edge">
<title>Node5&#45;&gt;Node7</title>
<g id="a_edge6_Node000005_Node000007"><a xlink:title=" ">
<path fill="none" stroke="#63b8ff" d="M173.71,-106.8C165.26,-105.83 156.59,-104.84 148.06,-103.86"/>
<polygon fill="#63b8ff" stroke="#63b8ff" points="173.54,-110.3 183.87,-107.96 174.34,-103.35 173.54,-110.3"/>
</a>
</g>
</g>
<!-- Node9 -->
<g id="Node000009" class="node">
<title>Node9</title>
<g id="a_Node000009"><a xlink:href="../../da/ded/classlci_1_1reduce__scatter__x.html#abdab5e752271b6d87e3d84bcd2fc943a" target="_top" xlink:title=" ">
<polygon fill="white" stroke="#666666" points="127,-67.5 21,-67.5 21,-37.5 127,-37.5 127,-67.5"/>
<text text-anchor="start" x="29" y="-55.5" font-family="Helvetica,sans-Serif" font-size="10.00">lci::reduce_scatter</text>
<text text-anchor="middle" x="74" y="-44.5" font-family="Helvetica,sans-Serif" font-size="10.00">_x::operator()</text>
</a>
</g>
</g>
<!-- Node8&#45;&gt;Node9 -->
<g id="edge8_Node000008_Node000009" class="edge">
<title>Node8&#45;&gt;Node9</title>
<g id="a_edge8_Node000008_Node000009"><a xlink:title=" ">
<path fill="none" stroke="#63b8ff" d="M178.57,-52.5C161.63,-52.5 143.48,-52.5 127.17,-52.5"/>
<polygon fill="#63b8ff" stroke="#63b8ff" points="178.93,-56 188.93,-52.5 178.93,-49 178.93,-56"/>
</a>
</g>
</g>
<!-- Node10 -->
<g id="Node000010" class="node">
<title>Node10</title>
<g id="a_Node000010"><a xlink:href="../../d5/dd3/namespacelci.html#ae125fcd92edea24a33fc3ad31df575ec" target="_top" xlink:title=" ">
<polygon fill="white" stroke="#666666" points="127,-19 21,-19 21,0 127,0 127,-19"/>
<text text-anchor="middle" x="74" y="-7" font-family="Helvetica,sans-Serif" font-size="10.00">lci::reduce_scatter</text>
</a>
</g>
</g>
<!-- Node8&#45;&gt;Node10 -->
<g id="edge9_Node000008_Node000010" class="edge">
<title>Node8&#45;&gt;Node10</title>
<g id="a_edge9_Node000008_Node000010"><a xlink:title=" ">
<path fill="none" stroke="#63b8ff" d="M179.07,-36.46C156.46,-30.6 131.63,-24.17 111.89,-19.05"/>
<polygon fill="#63b8ff" stroke="#63b8ff" points="178.37,-39.89 188.93,-39.01 180.13,-33.12 178.37,-39.89"/>
</a>
</g>
</g>
</g>
</svg>
