<?xml version="1.0" encoding="UTF-8" standalone="no"?>
<!DOCTYPE svg PUBLIC "-//W3C//DTD SVG 1.1//EN"
 "http://www.w3.org/Graphics/SVG/1.1/DTD/svg11.dtd">
<!-- Generated by graphviz version 2.43.0 (0)
 -->
<!-- Title: lci::free_comp Pages: 1 -->
<svg width="768pt" height="64pt"
 viewBox="0.00 0.00 768.00 64.00" xmlns="http://www.w3.org/2000/svg" xmlns:xlink="http://www.w3.org/1999/xlink">
<g id="graph0" class="graph" transform="scale(1 1) rotate(0) translate(4 60)">
<title>lci::free_comp</title>
<!-- Node1 -->
<g id="Node000001" class="node">
<title>Node1</title>
<g id="a_Node000001"><a xlink:title=" ">
<polygon fill="#999999" stroke="#666666" points="86,-38 0,-38 0,-19 86,-19 86,-38"/>
<text text-anchor="middle" x="43" y="-26" font-family="Helvetica,sans-Serif" font-size="10.00">lci::free_comp</text>
</a>
</g>
</g>
<!-- Node2 -->
<g id="Node000002" class="node">
<title>Node2</title>
<g id="a_Node000002"><a xlink:href="../../dd/de2/classlci_1_1free__comp__x.html#a5e4da1b1fd991c0e68c49d80f6f946ec" target="_top" xlink:title=" ">
<polygon fill="white" stroke="#666666" points="242,-38 122,-38 122,-19 242,-19 242,-38"/>
<text text-anchor="middle" x="182" y="-26" font-family="Helvetica,sans-Serif" font-size="10.00">lci::free_comp_x::call</text>
</a>
</g>
</g>
<!-- Node1&#45;&gt;Node2 -->
<g id="edge1_Node000001_Node000002" class="edge">
<title>Node1&#45;&gt;Node2</title>
<g id="a_edge1_Node000001_Node000002"><a xlink:title=" ">
<path fill="none" stroke="#63b8ff" d="M86.22,-28.5C94.3,-28.5 102.96,-28.5 111.63,-28.5"/>
<polygon fill="#63b8ff" stroke="#63b8ff" points="111.79,-32 121.79,-28.5 111.79,-25 111.79,-32"/>
</a>
</g>
</g>
<!-- Node3 -->
<g id="Node000003" class="node">
<title>Node3</title>
<g id="a_Node000003"><a xlink:href="../../dd/de2/classlci_1_1free__comp__x.html#acae44fd35f3f58febe545b78d41c5a5a" target="_top" xlink:title=" ">
<polygon fill="white" stroke="#666666" points="425,-38 278,-38 278,-19 425,-19 425,-38"/>
<text text-anchor="middle" x="351.5" y="-26" font-family="Helvetica,sans-Serif" font-size="10.00">lci::free_comp_x::call_impl</text>
</a>
</g>
</g>
<!-- Node2&#45;&gt;Node3 -->
<g id="edge2_Node000002_Node000003" class="edge">
<title>Node2&#45;&gt;Node3</title>
<g id="a_edge2_Node000002_Node000003"><a xlink:title=" ">
<path fill="none" stroke="#63b8ff" d="M242.05,-28.5C250.38,-28.5 259.07,-28.5 267.74,-28.5"/>
<polygon fill="#63b8ff" stroke="#63b8ff" points="267.89,-32 277.89,-28.5 267.89,-25 267.89,-32"/>
</a>
</g>
</g>
<!-- Node4 -->
<g id="Node000004" class="node">
<title>Node4</title>
<g id="a_Node000004"><a xlink:href="../../dd/de2/classlci_1_1free__comp__x.html#a3407fb6ccbf46e27104172ee8da40109" target="_top" xlink:title=" ">
<polygon fill="white" stroke="#666666" points="596.5,-56 466.5,-56 466.5,-37 596.5,-37 596.5,-56"/>
<text text-anchor="middle" x="531.5" y="-44" font-family="Helvetica,sans-Serif" font-size="10.00">lci::free_comp_x::comp</text>
</a>
</g>
</g>
<!-- Node2&#45;&gt;Node4 -->
<g id="edge7_Node000002_Node000004" class="edge">
<title>Node2&#45;&gt;Node4</title>
<g id="a_edge7_Node000002_Node000004"><a xlink:title=" ">
<path fill="none" stroke="#63b8ff" d="M221.57,-38.01C238.73,-41.77 259.25,-45.64 278,-47.5 337.69,-53.41 405.7,-52.72 456.09,-50.79"/>
<polygon fill="#63b8ff" stroke="#63b8ff" points="456.4,-54.28 466.25,-50.38 456.11,-47.29 456.4,-54.28"/>
</a>
</g>
</g>
<!-- Node6 -->
<g id="Node000006" class="node">
<title>Node6</title>
<g id="a_Node000006"><a xlink:href="../../dd/de2/classlci_1_1free__comp__x.html#a9c66e96adfcd9999c9c4172cee11264d" target="_top" xlink:title=" ">
<polygon fill="white" stroke="#666666" points="602,-19 461,-19 461,0 602,0 602,-19"/>
<text text-anchor="middle" x="531.5" y="-7" font-family="Helvetica,sans-Serif" font-size="10.00">lci::free_comp_x::runtime</text>
</a>
</g>
</g>
<!-- Node2&#45;&gt;Node6 -->
<g id="edge8_Node000002_Node000006" class="edge">
<title>Node2&#45;&gt;Node6</title>
<g id="a_edge8_Node000002_Node000006"><a xlink:title=" ">
<path fill="none" stroke="#63b8ff" d="M224.38,-18.95C240.96,-15.58 260.29,-12.2 278,-10.5 335.66,-4.97 401.08,-4.88 450.87,-6.09"/>
<polygon fill="#63b8ff" stroke="#63b8ff" points="450.85,-9.59 460.94,-6.36 451.03,-2.6 450.85,-9.59"/>
</a>
</g>
</g>
<!-- Node3&#45;&gt;Node4 -->
<g id="edge3_Node000003_Node000004" class="edge">
<title>Node3&#45;&gt;Node4</title>
<g id="a_edge3_Node000003_Node000004"><a xlink:title=" ">
<path fill="none" stroke="#63b8ff" d="M425.16,-35.85C435.39,-36.88 445.93,-37.95 456.2,-38.99"/>
<polygon fill="#63b8ff" stroke="#63b8ff" points="456.06,-42.49 466.36,-40.01 456.76,-35.53 456.06,-42.49"/>
</a>
</g>
</g>
<!-- Node3&#45;&gt;Node6 -->
<g id="edge5_Node000003_Node000006" class="edge">
<title>Node3&#45;&gt;Node6</title>
<g id="a_edge5_Node000003_Node000006"><a xlink:title=" ">
<path fill="none" stroke="#63b8ff" d="M425.16,-20.74C433.65,-19.84 442.36,-18.91 450.95,-17.99"/>
<polygon fill="#63b8ff" stroke="#63b8ff" points="451.38,-21.47 460.95,-16.92 450.64,-14.51 451.38,-21.47"/>
</a>
</g>
</g>
<!-- Node5 -->
<g id="Node000005" class="node">
<title>Node5</title>
<g id="a_Node000005"><a xlink:href="../../dd/de2/classlci_1_1free__comp__x.html#a0f0b05da28950bb56bd2636e96801260" target="_top" xlink:title=" ">
<polygon fill="white" stroke="#666666" points="760,-42.5 638,-42.5 638,-12.5 760,-12.5 760,-42.5"/>
<text text-anchor="start" x="646" y="-30.5" font-family="Helvetica,sans-Serif" font-size="10.00">lci::free_comp_x::free</text>
<text text-anchor="middle" x="699" y="-19.5" font-family="Helvetica,sans-Serif" font-size="10.00">_comp_x</text>
</a>
</g>
</g>
<!-- Node4&#45;&gt;Node5 -->
<g id="edge4_Node000004_Node000005" class="edge">
<title>Node4&#45;&gt;Node5</title>
<g id="a_edge4_Node000004_Node000005"><a xlink:title=" ">
<path fill="none" stroke="#63b8ff" d="M596.96,-39.1C607.03,-37.94 617.49,-36.74 627.69,-35.57"/>
<polygon fill="#63b8ff" stroke="#63b8ff" points="628.24,-39.03 637.78,-34.41 627.44,-32.08 628.24,-39.03"/>
</a>
</g>
</g>
<!-- Node6&#45;&gt;Node5 -->
<g id="edge6_Node000006_Node000005" class="edge">
<title>Node6&#45;&gt;Node5</title>
<g id="a_edge6_Node000006_Node000005"><a xlink:title=" ">
<path fill="none" stroke="#63b8ff" d="M602.21,-17.08C610.62,-18 619.22,-18.93 627.65,-19.85"/>
<polygon fill="#63b8ff" stroke="#63b8ff" points="627.49,-23.35 637.81,-20.95 628.25,-16.39 627.49,-23.35"/>
</a>
</g>
</g>
</g>
</svg>
