<?xml version="1.0" encoding="UTF-8" standalone="no"?>
<!DOCTYPE svg PUBLIC "-//W3C//DTD SVG 1.1//EN"
 "http://www.w3.org/Graphics/SVG/1.1/DTD/svg11.dtd">
<!-- Generated by graphviz version 2.43.0 (0)
 -->
<!-- Title: lci::post_am Pages: 1 -->
<svg width="782pt" height="689pt"
 viewBox="0.00 0.00 782.00 688.70" xmlns="http://www.w3.org/2000/svg" xmlns:xlink="http://www.w3.org/1999/xlink">
<g id="graph0" class="graph" transform="scale(1 1) rotate(0) translate(4 684.7)">
<title>lci::post_am</title>
<!-- Node1 -->
<g id="Node000001" class="node">
<title>Node1</title>
<g id="a_Node000001"><a xlink:title=" ">
<polygon fill="#999999" stroke="#666666" points="76,-348.7 0,-348.7 0,-329.7 76,-329.7 76,-348.7"/>
<text text-anchor="middle" x="38" y="-336.7" font-family="Helvetica,sans-Serif" font-size="10.00">lci::post_am</text>
</a>
</g>
</g>
<!-- Node2 -->
<g id="Node000002" class="node">
<title>Node2</title>
<g id="a_Node000002"><a xlink:href="../../d2/ddb/classlci_1_1post__am__x.html#a843d9780baee743b821b8e2e255f87fc" target="_top" xlink:title=" ">
<polygon fill="white" stroke="#666666" points="222,-348.7 112,-348.7 112,-329.7 222,-329.7 222,-348.7"/>
<text text-anchor="middle" x="167" y="-336.7" font-family="Helvetica,sans-Serif" font-size="10.00">lci::post_am_x::call</text>
</a>
</g>
</g>
<!-- Node1&#45;&gt;Node2 -->
<g id="edge1_Node000001_Node000002" class="edge">
<title>Node1&#45;&gt;Node2</title>
<g id="a_edge1_Node000001_Node000002"><a xlink:title=" ">
<path fill="none" stroke="#63b8ff" d="M76.08,-339.2C84.07,-339.2 92.75,-339.2 101.46,-339.2"/>
<polygon fill="#63b8ff" stroke="#63b8ff" points="101.65,-342.7 111.65,-339.2 101.65,-335.7 101.65,-342.7"/>
</a>
</g>
</g>
<!-- Node3 -->
<g id="Node000003" class="node">
<title>Node3</title>
<g id="a_Node000003"><a xlink:href="../../d2/ddb/classlci_1_1post__am__x.html#a2920bced8b8d6503d252b85cdaebb144" target="_top" xlink:title=" ">
<polygon fill="white" stroke="#666666" points="586,-680.7 437,-680.7 437,-661.7 586,-661.7 586,-680.7"/>
<text text-anchor="middle" x="511.5" y="-668.7" font-family="Helvetica,sans-Serif" font-size="10.00">lci::post_am_x::allow_done</text>
</a>
</g>
</g>
<!-- Node2&#45;&gt;Node3 -->
<g id="edge2_Node000002_Node000003" class="edge">
<title>Node2&#45;&gt;Node3</title>
<g id="a_edge2_Node000002_Node000003"><a xlink:title=" ">
<path fill="none" stroke="#63b8ff" d="M168.3,-348.94C170.03,-387.13 181.55,-528.05 258,-601.2 303.1,-644.35 372.39,-661.35 426.99,-667.84"/>
<polygon fill="#63b8ff" stroke="#63b8ff" points="426.68,-671.33 437,-668.93 427.44,-664.37 426.68,-671.33"/>
</a>
</g>
</g>
<!-- Node5 -->
<g id="Node000005" class="node">
<title>Node5</title>
<g id="a_Node000005"><a xlink:href="../../d2/ddb/classlci_1_1post__am__x.html#ac229a59965469231cb481ffadf8f8196" target="_top" xlink:title=" ">
<polygon fill="white" stroke="#666666" points="571,-643.2 452,-643.2 452,-613.2 571,-613.2 571,-643.2"/>
<text text-anchor="start" x="460" y="-631.2" font-family="Helvetica,sans-Serif" font-size="10.00">lci::post_am_x::allow</text>
<text text-anchor="middle" x="511.5" y="-620.2" font-family="Helvetica,sans-Serif" font-size="10.00">_posted</text>
</a>
</g>
</g>
<!-- Node2&#45;&gt;Node5 -->
<g id="edge4_Node000002_Node000005" class="edge">
<title>Node2&#45;&gt;Node5</title>
<g id="a_edge4_Node000002_Node000005"><a xlink:title=" ">
<path fill="none" stroke="#63b8ff" d="M168.98,-348.78C173,-382.81 191.27,-499 258,-558.2 308.78,-603.24 386.14,-619.56 441.85,-625.33"/>
<polygon fill="#63b8ff" stroke="#63b8ff" points="441.71,-628.83 451.99,-626.29 442.37,-621.87 441.71,-628.83"/>
</a>
</g>
</g>
<!-- Node6 -->
<g id="Node000006" class="node">
<title>Node6</title>
<g id="a_Node000006"><a xlink:href="../../d2/ddb/classlci_1_1post__am__x.html#abe88cff263705edebb3007476f52fb2e" target="_top" xlink:title=" ">
<polygon fill="white" stroke="#666666" points="571,-595.2 452,-595.2 452,-565.2 571,-565.2 571,-595.2"/>
<text text-anchor="start" x="460" y="-583.2" font-family="Helvetica,sans-Serif" font-size="10.00">lci::post_am_x::allow</text>
<text text-anchor="middle" x="511.5" y="-572.2" font-family="Helvetica,sans-Serif" font-size="10.00">_retry</text>
</a>
</g>
</g>
<!-- Node2&#45;&gt;Node6 -->
<g id="edge6_Node000002_Node000006" class="edge">
<title>Node2&#45;&gt;Node6</title>
<g id="a_edge6_Node000002_Node000006"><a xlink:title=" ">
<path fill="none" stroke="#63b8ff" d="M169.98,-349.11C176.56,-379.39 200.62,-471.4 258,-517.2 310.36,-558.99 386.77,-573.5 441.81,-578.32"/>
<polygon fill="#63b8ff" stroke="#63b8ff" points="441.58,-581.81 451.82,-579.11 442.13,-574.83 441.58,-581.81"/>
</a>
</g>
</g>
<!-- Node7 -->
<g id="Node000007" class="node">
<title>Node7</title>
<g id="a_Node000007"><a xlink:href="../../d2/ddb/classlci_1_1post__am__x.html#aade9414b023a4db248ab25121bdfc75e" target="_top" xlink:title=" ">
<polygon fill="white" stroke="#666666" points="395,-367.7 258,-367.7 258,-348.7 395,-348.7 395,-367.7"/>
<text text-anchor="middle" x="326.5" y="-355.7" font-family="Helvetica,sans-Serif" font-size="10.00">lci::post_am_x::call_impl</text>
</a>
</g>
</g>
<!-- Node2&#45;&gt;Node7 -->
<g id="edge8_Node000002_Node000007" class="edge">
<title>Node2&#45;&gt;Node7</title>
<g id="a_edge8_Node000002_Node000007"><a xlink:title=" ">
<path fill="none" stroke="#63b8ff" d="M222.2,-345.74C230.45,-346.73 239.1,-347.78 247.74,-348.82"/>
<polygon fill="#63b8ff" stroke="#63b8ff" points="247.49,-352.31 257.84,-350.04 248.33,-345.36 247.49,-352.31"/>
</a>
</g>
</g>
<!-- Node8 -->
<g id="Node000008" class="node">
<title>Node8</title>
<g id="a_Node000008"><a xlink:href="../../d2/ddb/classlci_1_1post__am__x.html#a8205661fa251b74c0d95812908a126b7" target="_top" xlink:title=" ">
<polygon fill="white" stroke="#666666" points="571.5,-547.2 451.5,-547.2 451.5,-517.2 571.5,-517.2 571.5,-547.2"/>
<text text-anchor="start" x="459.5" y="-535.2" font-family="Helvetica,sans-Serif" font-size="10.00">lci::post_am_x::comp</text>
<text text-anchor="middle" x="511.5" y="-524.2" font-family="Helvetica,sans-Serif" font-size="10.00">_semantic</text>
</a>
</g>
</g>
<!-- Node2&#45;&gt;Node8 -->
<g id="edge40_Node000002_Node000008" class="edge">
<title>Node2&#45;&gt;Node8</title>
<g id="a_edge40_Node000002_Node000008"><a xlink:title=" ">
<path fill="none" stroke="#63b8ff" d="M171.19,-348.97C180.2,-374.96 208.48,-446.11 258,-480.2 312.03,-517.39 386.95,-529.04 441.13,-532.21"/>
<polygon fill="#63b8ff" stroke="#63b8ff" points="441.18,-535.71 451.34,-532.72 441.53,-528.72 441.18,-535.71"/>
</a>
</g>
</g>
<!-- Node9 -->
<g id="Node000009" class="node">
<title>Node9</title>
<g id="a_Node000009"><a xlink:href="../../d2/ddb/classlci_1_1post__am__x.html#ad6c306765380107207fab8aa45ad4527" target="_top" xlink:title=" ">
<polygon fill="white" stroke="#666666" points="574,-498.7 449,-498.7 449,-479.7 574,-479.7 574,-498.7"/>
<text text-anchor="middle" x="511.5" y="-486.7" font-family="Helvetica,sans-Serif" font-size="10.00">lci::post_am_x::device</text>
</a>
</g>
</g>
<!-- Node2&#45;&gt;Node9 -->
<g id="edge41_Node000002_Node000009" class="edge">
<title>Node2&#45;&gt;Node9</title>
<g id="a_edge41_Node000002_Node000009"><a xlink:title=" ">
<path fill="none" stroke="#63b8ff" d="M172.96,-348.96C184.54,-370.66 215.65,-422.92 258,-447.2 313.24,-478.86 385.73,-488.23 438.86,-490.35"/>
<polygon fill="#63b8ff" stroke="#63b8ff" points="438.78,-493.85 448.89,-490.68 439.01,-486.86 438.78,-493.85"/>
</a>
</g>
</g>
<!-- Node10 -->
<g id="Node000010" class="node">
<title>Node10</title>
<g id="a_Node000010"><a xlink:href="../../d2/ddb/classlci_1_1post__am__x.html#acaf827f67cb784ceba676bf9437f0f82" target="_top" xlink:title=" ">
<polygon fill="white" stroke="#666666" points="579.5,-461.7 443.5,-461.7 443.5,-442.7 579.5,-442.7 579.5,-461.7"/>
<text text-anchor="middle" x="511.5" y="-449.7" font-family="Helvetica,sans-Serif" font-size="10.00">lci::post_am_x::endpoint</text>
</a>
</g>
</g>
<!-- Node2&#45;&gt;Node10 -->
<g id="edge42_Node000002_Node000010" class="edge">
<title>Node2&#45;&gt;Node10</title>
<g id="a_edge42_Node000002_Node000010"><a xlink:title=" ">
<path fill="none" stroke="#63b8ff" d="M175.73,-348.84C189.98,-365.86 222.22,-400.97 258,-417.2 313.16,-442.22 381.52,-450.49 433.19,-452.77"/>
<polygon fill="#63b8ff" stroke="#63b8ff" points="433.17,-456.27 443.3,-453.15 433.44,-449.28 433.17,-456.27"/>
</a>
</g>
</g>
<!-- Node11 -->
<g id="Node000011" class="node">
<title>Node11</title>
<g id="a_Node000011"><a xlink:href="../../d2/ddb/classlci_1_1post__am__x.html#ae570501aa28c5e42f9b96d3c7995235c" target="_top" xlink:title=" ">
<polygon fill="white" stroke="#666666" points="570.5,-424.2 452.5,-424.2 452.5,-394.2 570.5,-394.2 570.5,-424.2"/>
<text text-anchor="start" x="460.5" y="-412.2" font-family="Helvetica,sans-Serif" font-size="10.00">lci::post_am_x::force</text>
<text text-anchor="middle" x="511.5" y="-401.2" font-family="Helvetica,sans-Serif" font-size="10.00">_zcopy</text>
</a>
</g>
</g>
<!-- Node2&#45;&gt;Node11 -->
<g id="edge43_Node000002_Node000011" class="edge">
<title>Node2&#45;&gt;Node11</title>
<g id="a_edge43_Node000002_Node000011"><a xlink:title=" ">
<path fill="none" stroke="#63b8ff" d="M179.59,-348.91C195.89,-361.92 227.07,-384.5 258,-394.2 318.3,-413.11 390.59,-415.5 442.34,-413.97"/>
<polygon fill="#63b8ff" stroke="#63b8ff" points="442.54,-417.46 452.41,-413.61 442.29,-410.47 442.54,-417.46"/>
</a>
</g>
</g>
<!-- Node12 -->
<g id="Node000012" class="node">
<title>Node12</title>
<g id="a_Node000012"><a xlink:href="../../d2/ddb/classlci_1_1post__am__x.html#ac31b1bb89a7cb58adbc19c3697467915" target="_top" xlink:title=" ">
<polygon fill="white" stroke="#666666" points="569.5,-376.2 453.5,-376.2 453.5,-346.2 569.5,-346.2 569.5,-376.2"/>
<text text-anchor="start" x="461.5" y="-364.2" font-family="Helvetica,sans-Serif" font-size="10.00">lci::post_am_x::local</text>
<text text-anchor="middle" x="511.5" y="-353.2" font-family="Helvetica,sans-Serif" font-size="10.00">_buffer</text>
</a>
</g>
</g>
<!-- Node2&#45;&gt;Node12 -->
<g id="edge44_Node000002_Node000012" class="edge">
<title>Node2&#45;&gt;Node12</title>
<g id="a_edge44_Node000002_Node000012"><a xlink:title=" ">
<path fill="none" stroke="#63b8ff" d="M184.93,-348.77C202.54,-358.15 231.24,-371.78 258,-377.2 319.95,-389.74 392.04,-383.13 443.3,-374.93"/>
<polygon fill="#63b8ff" stroke="#63b8ff" points="443.97,-378.36 453.26,-373.27 442.82,-371.46 443.97,-378.36"/>
</a>
</g>
</g>
<!-- Node13 -->
<g id="Node000013" class="node">
<title>Node13</title>
<g id="a_Node000013"><a xlink:href="../../d2/ddb/classlci_1_1post__am__x.html#ae6732b5adb0b66abb9fb55ab45e2f54c" target="_top" xlink:title=" ">
<polygon fill="white" stroke="#666666" points="586,-327.7 437,-327.7 437,-308.7 586,-308.7 586,-327.7"/>
<text text-anchor="middle" x="511.5" y="-315.7" font-family="Helvetica,sans-Serif" font-size="10.00">lci::post_am_x::local_comp</text>
</a>
</g>
</g>
<!-- Node2&#45;&gt;Node13 -->
<g id="edge45_Node000002_Node000013" class="edge">
<title>Node2&#45;&gt;Node13</title>
<g id="a_edge45_Node000002_Node000013"><a xlink:title=" ">
<path fill="none" stroke="#63b8ff" d="M222.27,-335.87C277.24,-332.5 363,-327.24 426.7,-323.34"/>
<polygon fill="#63b8ff" stroke="#63b8ff" points="426.96,-326.83 436.73,-322.72 426.54,-319.84 426.96,-326.83"/>
</a>
</g>
</g>
<!-- Node14 -->
<g id="Node000014" class="node">
<title>Node14</title>
<g id="a_Node000014"><a xlink:href="../../d2/ddb/classlci_1_1post__am__x.html#a9ea4030e492e23e423e08a231ad8cecd" target="_top" xlink:title=" ">
<polygon fill="white" stroke="#666666" points="565,-290.7 458,-290.7 458,-271.7 565,-271.7 565,-290.7"/>
<text text-anchor="middle" x="511.5" y="-278.7" font-family="Helvetica,sans-Serif" font-size="10.00">lci::post_am_x::mr</text>
</a>
</g>
</g>
<!-- Node2&#45;&gt;Node14 -->
<g id="edge46_Node000002_Node000014" class="edge">
<title>Node2&#45;&gt;Node14</title>
<g id="a_edge46_Node000002_Node000014"><a xlink:title=" ">
<path fill="none" stroke="#63b8ff" d="M213.72,-329.68C227.89,-326.83 243.57,-323.78 258,-321.2 322.51,-309.64 396.6,-298.11 447.77,-290.42"/>
<polygon fill="#63b8ff" stroke="#63b8ff" points="448.31,-293.87 457.68,-288.93 447.27,-286.95 448.31,-293.87"/>
</a>
</g>
</g>
<!-- Node15 -->
<g id="Node000015" class="node">
<title>Node15</title>
<g id="a_Node000015"><a xlink:href="../../d2/ddb/classlci_1_1post__am__x.html#a09278f7a7d6075f7379a7a4205d23505" target="_top" xlink:title=" ">
<polygon fill="white" stroke="#666666" points="587.5,-253.7 435.5,-253.7 435.5,-234.7 587.5,-234.7 587.5,-253.7"/>
<text text-anchor="middle" x="511.5" y="-241.7" font-family="Helvetica,sans-Serif" font-size="10.00">lci::post_am_x::packet_pool</text>
</a>
</g>
</g>
<!-- Node2&#45;&gt;Node15 -->
<g id="edge47_Node000002_Node000015" class="edge">
<title>Node2&#45;&gt;Node15</title>
<g id="a_edge47_Node000002_Node000015"><a xlink:title=" ">
<path fill="none" stroke="#63b8ff" d="M184.37,-329.6C202.01,-319.65 231.15,-304.3 258,-295.2 313.47,-276.38 378.28,-263.47 428.34,-255.35"/>
<polygon fill="#63b8ff" stroke="#63b8ff" points="429.15,-258.76 438.47,-253.73 428.05,-251.85 429.15,-258.76"/>
</a>
</g>
</g>
<!-- Node16 -->
<g id="Node000016" class="node">
<title>Node16</title>
<g id="a_Node000016"><a xlink:href="../../d2/ddb/classlci_1_1post__am__x.html#a6795ef889135b11c73c5994039dd31d5" target="_top" xlink:title=" ">
<polygon fill="white" stroke="#666666" points="569,-216.7 454,-216.7 454,-197.7 569,-197.7 569,-216.7"/>
<text text-anchor="middle" x="511.5" y="-204.7" font-family="Helvetica,sans-Serif" font-size="10.00">lci::post_am_x::rank</text>
</a>
</g>
</g>
<!-- Node2&#45;&gt;Node16 -->
<g id="edge48_Node000002_Node000016" class="edge">
<title>Node2&#45;&gt;Node16</title>
<g id="a_edge48_Node000002_Node000016"><a xlink:title=" ">
<path fill="none" stroke="#63b8ff" d="M175.49,-329.54C189.6,-312.08 221.95,-275.38 258,-257.2 316.45,-227.71 390.68,-215.6 443.5,-210.63"/>
<polygon fill="#63b8ff" stroke="#63b8ff" points="444.11,-214.09 453.76,-209.73 443.49,-207.12 444.11,-214.09"/>
</a>
</g>
</g>
<!-- Node17 -->
<g id="Node000017" class="node">
<title>Node17</title>
<g id="a_Node000017"><a xlink:href="../../d2/ddb/classlci_1_1post__am__x.html#af744f7f42ad85bca3a711ff1455dca3f" target="_top" xlink:title=" ">
<polygon fill="white" stroke="#666666" points="592,-179.7 431,-179.7 431,-160.7 592,-160.7 592,-179.7"/>
<text text-anchor="middle" x="511.5" y="-167.7" font-family="Helvetica,sans-Serif" font-size="10.00">lci::post_am_x::remote_comp</text>
</a>
</g>
</g>
<!-- Node2&#45;&gt;Node17 -->
<g id="edge49_Node000002_Node000017" class="edge">
<title>Node2&#45;&gt;Node17</title>
<g id="a_edge49_Node000002_Node000017"><a xlink:title=" ">
<path fill="none" stroke="#63b8ff" d="M171.73,-329.67C181.68,-305.65 211.3,-242.45 258,-213.2 306.31,-182.93 369.56,-172.2 420.67,-169.02"/>
<polygon fill="#63b8ff" stroke="#63b8ff" points="420.92,-172.51 430.72,-168.48 420.55,-165.52 420.92,-172.51"/>
</a>
</g>
</g>
<!-- Node18 -->
<g id="Node000018" class="node">
<title>Node18</title>
<g id="a_Node000018"><a xlink:href="../../d2/ddb/classlci_1_1post__am__x.html#a46bcb5e0dbe32aa1c7cbb6b92e92f822" target="_top" xlink:title=" ">
<polygon fill="white" stroke="#666666" points="577,-142.7 446,-142.7 446,-123.7 577,-123.7 577,-142.7"/>
<text text-anchor="middle" x="511.5" y="-130.7" font-family="Helvetica,sans-Serif" font-size="10.00">lci::post_am_x::runtime</text>
</a>
</g>
</g>
<!-- Node2&#45;&gt;Node18 -->
<g id="edge50_Node000002_Node000018" class="edge">
<title>Node2&#45;&gt;Node18</title>
<g id="a_edge50_Node000002_Node000018"><a xlink:title=" ">
<path fill="none" stroke="#63b8ff" d="M169.88,-329.34C176.17,-299.25 199.49,-208.2 258,-167.2 309.47,-131.13 381.59,-124.62 435.59,-125.98"/>
<polygon fill="#63b8ff" stroke="#63b8ff" points="435.67,-129.48 445.79,-126.33 435.92,-122.49 435.67,-129.48"/>
</a>
</g>
</g>
<!-- Node19 -->
<g id="Node000019" class="node">
<title>Node19</title>
<g id="a_Node000019"><a xlink:href="../../d2/ddb/classlci_1_1post__am__x.html#a372f4a43383d28c4727b13c046c04ccd" target="_top" xlink:title=" ">
<polygon fill="white" stroke="#666666" points="568,-105.7 455,-105.7 455,-86.7 568,-86.7 568,-105.7"/>
<text text-anchor="middle" x="511.5" y="-93.7" font-family="Helvetica,sans-Serif" font-size="10.00">lci::post_am_x::size</text>
</a>
</g>
</g>
<!-- Node2&#45;&gt;Node19 -->
<g id="edge51_Node000002_Node000019" class="edge">
<title>Node2&#45;&gt;Node19</title>
<g id="a_edge51_Node000002_Node000019"><a xlink:title=" ">
<path fill="none" stroke="#63b8ff" d="M168.69,-329.3C171.71,-294.22 187.02,-175.06 258,-122.2 311.4,-82.43 389.73,-80.55 444.95,-85.68"/>
<polygon fill="#63b8ff" stroke="#63b8ff" points="444.68,-89.17 454.98,-86.72 445.39,-82.21 444.68,-89.17"/>
</a>
</g>
</g>
<!-- Node20 -->
<g id="Node000020" class="node">
<title>Node20</title>
<g id="a_Node000020"><a xlink:href="../../d2/ddb/classlci_1_1post__am__x.html#a4c83ce67927a5be8e3ab827e601c0c64" target="_top" xlink:title=" ">
<polygon fill="white" stroke="#666666" points="566,-68.7 457,-68.7 457,-49.7 566,-49.7 566,-68.7"/>
<text text-anchor="middle" x="511.5" y="-56.7" font-family="Helvetica,sans-Serif" font-size="10.00">lci::post_am_x::tag</text>
</a>
</g>
</g>
<!-- Node2&#45;&gt;Node20 -->
<g id="edge52_Node000002_Node000020" class="edge">
<title>Node2&#45;&gt;Node20</title>
<g id="a_edge52_Node000002_Node000020"><a xlink:title=" ">
<path fill="none" stroke="#63b8ff" d="M167.9,-329.57C168.09,-290.62 174.49,-143.78 258,-79.2 314.98,-35.13 402.42,-39.27 458.01,-47.96"/>
<polygon fill="#63b8ff" stroke="#63b8ff" points="457.57,-51.44 468.01,-49.63 458.72,-44.53 457.57,-51.44"/>
</a>
</g>
</g>
<!-- Node21 -->
<g id="Node000021" class="node">
<title>Node21</title>
<g id="a_Node000021"><a xlink:href="../../d2/ddb/classlci_1_1post__am__x.html#ae2a269c75aadd6fbd5cf1b9b42302946" target="_top" xlink:title=" ">
<polygon fill="white" stroke="#666666" points="568.5,-31.2 454.5,-31.2 454.5,-1.2 568.5,-1.2 568.5,-31.2"/>
<text text-anchor="start" x="462.5" y="-19.2" font-family="Helvetica,sans-Serif" font-size="10.00">lci::post_am_x::user</text>
<text text-anchor="middle" x="511.5" y="-8.2" font-family="Helvetica,sans-Serif" font-size="10.00">_context</text>
</a>
</g>
</g>
<!-- Node2&#45;&gt;Node21 -->
<g id="edge53_Node000002_Node000021" class="edge">
<title>Node2&#45;&gt;Node21</title>
<g id="a_edge53_Node000002_Node000021"><a xlink:title=" ">
<path fill="none" stroke="#63b8ff" d="M169.46,-329.41C176.71,-282.12 210.42,-78.08 258,-39.2 309.58,2.95 388.42,3.31 444.26,-3.45"/>
<polygon fill="#63b8ff" stroke="#63b8ff" points="444.03,-6.95 454.4,-4.79 444.94,-0.01 444.03,-6.95"/>
</a>
</g>
</g>
<!-- Node4 -->
<g id="Node000004" class="node">
<title>Node4</title>
<g id="a_Node000004"><a xlink:href="../../d2/ddb/classlci_1_1post__am__x.html#a16720960b7be9f65a6ac7b4c47c6c6f2" target="_top" xlink:title=" ">
<polygon fill="white" stroke="#666666" points="774,-327.7 628,-327.7 628,-308.7 774,-308.7 774,-327.7"/>
<text text-anchor="middle" x="701" y="-315.7" font-family="Helvetica,sans-Serif" font-size="10.00">lci::post_am_x::post_am_x</text>
</a>
</g>
</g>
<!-- Node3&#45;&gt;Node4 -->
<g id="edge3_Node000003_Node000004" class="edge">
<title>Node3&#45;&gt;Node4</title>
<g id="a_edge3_Node000003_Node000004"><a xlink:title=" ">
<path fill="none" stroke="#63b8ff" d="M577.88,-661.68C583.03,-659.16 587.83,-656.05 592,-652.2 685.97,-565.29 698.45,-396.17 699.89,-338.23"/>
<polygon fill="#63b8ff" stroke="#63b8ff" points="703.4,-337.96 700.06,-327.9 696.4,-337.85 703.4,-337.96"/>
</a>
</g>
</g>
<!-- Node5&#45;&gt;Node4 -->
<g id="edge5_Node000005_Node000004" class="edge">
<title>Node5&#45;&gt;Node4</title>
<g id="a_edge5_Node000005_Node000004"><a xlink:title=" ">
<path fill="none" stroke="#63b8ff" d="M571.05,-617.41C578.72,-614.11 586,-609.81 592,-604.2 672.04,-529.41 693.22,-389.32 698.42,-337.83"/>
<polygon fill="#63b8ff" stroke="#63b8ff" points="701.92,-338.01 699.35,-327.74 694.95,-337.37 701.92,-338.01"/>
</a>
</g>
</g>
<!-- Node6&#45;&gt;Node4 -->
<g id="edge7_Node000006_Node000004" class="edge">
<title>Node6&#45;&gt;Node4</title>
<g id="a_edge7_Node000006_Node000004"><a xlink:title=" ">
<path fill="none" stroke="#63b8ff" d="M571.13,-568.88C578.7,-565.65 585.92,-561.52 592,-556.2 660.62,-496.14 688.06,-383.7 696.69,-338.14"/>
<polygon fill="#63b8ff" stroke="#63b8ff" points="700.17,-338.53 698.49,-328.07 693.28,-337.29 700.17,-338.53"/>
</a>
</g>
</g>
<!-- Node7&#45;&gt;Node3 -->
<g id="edge9_Node000007_Node000003" class="edge">
<title>Node7&#45;&gt;Node3</title>
<g id="a_edge9_Node000007_Node000003"><a xlink:title=" ">
<path fill="none" stroke="#63b8ff" d="M327.76,-367.84C329.41,-409.01 341.56,-571.6 431,-652.2 432.71,-653.74 434.53,-655.17 436.43,-656.48"/>
<polygon fill="#63b8ff" stroke="#63b8ff" points="434.81,-659.59 445.22,-661.56 438.31,-653.53 434.81,-659.59"/>
</a>
</g>
</g>
<!-- Node7&#45;&gt;Node5 -->
<g id="edge10_Node000007_Node000005" class="edge">
<title>Node7&#45;&gt;Node5</title>
<g id="a_edge10_Node000007_Node000005"><a xlink:title=" ">
<path fill="none" stroke="#63b8ff" d="M328.63,-367.87C333.45,-404.55 355.58,-536.31 431,-604.2 434.56,-607.4 438.54,-610.18 442.77,-612.59"/>
<polygon fill="#63b8ff" stroke="#63b8ff" points="441.22,-615.73 451.74,-617.03 444.33,-609.46 441.22,-615.73"/>
</a>
</g>
</g>
<!-- Node7&#45;&gt;Node6 -->
<g id="edge11_Node000007_Node000006" class="edge">
<title>Node7&#45;&gt;Node6</title>
<g id="a_edge11_Node000007_Node000006"><a xlink:title=" ">
<path fill="none" stroke="#63b8ff" d="M329.67,-367.72C337.42,-399.51 366.74,-503.04 431,-556.2 434.53,-559.12 438.41,-561.69 442.5,-563.94"/>
<polygon fill="#63b8ff" stroke="#63b8ff" points="441.2,-567.2 451.73,-568.39 444.25,-560.9 441.2,-567.2"/>
</a>
</g>
</g>
<!-- Node7&#45;&gt;Node8 -->
<g id="edge12_Node000007_Node000008" class="edge">
<title>Node7&#45;&gt;Node8</title>
<g id="a_edge12_Node000007_Node000008"><a xlink:title=" ">
<path fill="none" stroke="#63b8ff" d="M331.44,-367.95C342.73,-394.63 377.82,-469.43 431,-508.2 434.47,-510.73 438.22,-513 442.12,-515.03"/>
<polygon fill="#63b8ff" stroke="#63b8ff" points="440.91,-518.33 451.46,-519.35 443.85,-511.97 440.91,-518.33"/>
</a>
</g>
</g>
<!-- Node7&#45;&gt;Node9 -->
<g id="edge14_Node000007_Node000009" class="edge">
<title>Node7&#45;&gt;Node9</title>
<g id="a_edge14_Node000007_Node000009"><a xlink:title=" ">
<path fill="none" stroke="#63b8ff" d="M333.38,-367.89C347.32,-390 384.75,-444.35 431,-471.2 434.03,-472.96 437.22,-474.54 440.5,-475.97"/>
<polygon fill="#63b8ff" stroke="#63b8ff" points="439.38,-479.29 449.97,-479.61 441.89,-472.76 439.38,-479.29"/>
</a>
</g>
</g>
<!-- Node7&#45;&gt;Node10 -->
<g id="edge16_Node000007_Node000010" class="edge">
<title>Node7&#45;&gt;Node10</title>
<g id="a_edge16_Node000007_Node000010"><a xlink:title=" ">
<path fill="none" stroke="#63b8ff" d="M337.79,-367.83C355.45,-383.84 393.3,-415.87 431,-433.2 436.37,-435.67 442.1,-437.83 447.92,-439.73"/>
<polygon fill="#63b8ff" stroke="#63b8ff" points="447.19,-443.17 457.77,-442.68 449.19,-436.46 447.19,-443.17"/>
</a>
</g>
</g>
<!-- Node7&#45;&gt;Node11 -->
<g id="edge18_Node000007_Node000011" class="edge">
<title>Node7&#45;&gt;Node11</title>
<g id="a_edge18_Node000007_Node000011"><a xlink:title=" ">
<path fill="none" stroke="#63b8ff" d="M361.92,-367.79C385.72,-374.42 418.11,-383.45 446.56,-391.38"/>
<polygon fill="#63b8ff" stroke="#63b8ff" points="445.87,-394.82 456.45,-394.13 447.75,-388.08 445.87,-394.82"/>
</a>
</g>
</g>
<!-- Node7&#45;&gt;Node12 -->
<g id="edge20_Node000007_Node000012" class="edge">
<title>Node7&#45;&gt;Node12</title>
<g id="a_edge20_Node000007_Node000012"><a xlink:title=" ">
<path fill="none" stroke="#63b8ff" d="M395.12,-359.31C410.82,-359.56 427.54,-359.84 443.22,-360.09"/>
<polygon fill="#63b8ff" stroke="#63b8ff" points="443.31,-363.6 453.36,-360.26 443.42,-356.6 443.31,-363.6"/>
</a>
</g>
</g>
<!-- Node7&#45;&gt;Node13 -->
<g id="edge22_Node000007_Node000013" class="edge">
<title>Node7&#45;&gt;Node13</title>
<g id="a_edge22_Node000007_Node000013"><a xlink:title=" ">
<path fill="none" stroke="#63b8ff" d="M371.33,-348.62C397.14,-342.98 429.96,-335.8 457.25,-329.84"/>
<polygon fill="#63b8ff" stroke="#63b8ff" points="458,-333.26 467.02,-327.7 456.51,-326.42 458,-333.26"/>
</a>
</g>
</g>
<!-- Node7&#45;&gt;Node14 -->
<g id="edge24_Node000007_Node000014" class="edge">
<title>Node7&#45;&gt;Node14</title>
<g id="a_edge24_Node000007_Node000014"><a xlink:title=" ">
<path fill="none" stroke="#63b8ff" d="M341.61,-348.61C360.98,-335.86 397.24,-313.4 431,-300.2 437.39,-297.7 444.21,-295.46 451.06,-293.49"/>
<polygon fill="#63b8ff" stroke="#63b8ff" points="452.34,-296.76 461.08,-290.77 450.51,-290.01 452.34,-296.76"/>
</a>
</g>
</g>
<!-- Node7&#45;&gt;Node15 -->
<g id="edge26_Node000007_Node000015" class="edge">
<title>Node7&#45;&gt;Node15</title>
<g id="a_edge26_Node000007_Node000015"><a xlink:title=" ">
<path fill="none" stroke="#63b8ff" d="M334.93,-348.69C350.54,-329.4 388.79,-285.64 431,-263.2 435.32,-260.9 439.91,-258.88 444.63,-257.1"/>
<polygon fill="#63b8ff" stroke="#63b8ff" points="446.09,-260.3 454.44,-253.78 443.84,-253.67 446.09,-260.3"/>
</a>
</g>
</g>
<!-- Node7&#45;&gt;Node16 -->
<g id="edge28_Node000007_Node000016" class="edge">
<title>Node7&#45;&gt;Node16</title>
<g id="a_edge28_Node000007_Node000016"><a xlink:title=" ">
<path fill="none" stroke="#63b8ff" d="M332.2,-348.41C344.61,-323.68 380.75,-258.42 431,-226.2 435.11,-223.56 439.56,-221.29 444.17,-219.33"/>
<polygon fill="#63b8ff" stroke="#63b8ff" points="445.67,-222.51 453.83,-215.74 443.23,-215.95 445.67,-222.51"/>
</a>
</g>
</g>
<!-- Node7&#45;&gt;Node17 -->
<g id="edge30_Node000007_Node000017" class="edge">
<title>Node7&#45;&gt;Node17</title>
<g id="a_edge30_Node000007_Node000017"><a xlink:title=" ">
<path fill="none" stroke="#63b8ff" d="M330.52,-348.32C340.04,-319 372.25,-231.85 431,-189.2 433.56,-187.34 436.27,-185.66 439.1,-184.15"/>
<polygon fill="#63b8ff" stroke="#63b8ff" points="440.83,-187.2 448.44,-179.84 437.9,-180.85 440.83,-187.2"/>
</a>
</g>
</g>
<!-- Node7&#45;&gt;Node18 -->
<g id="edge32_Node000007_Node000018" class="edge">
<title>Node7&#45;&gt;Node18</title>
<g id="a_edge32_Node000007_Node000018"><a xlink:title=" ">
<path fill="none" stroke="#63b8ff" d="M329.33,-348.61C336.14,-315.63 363.23,-205.88 431,-152.2 433.29,-150.38 435.73,-148.73 438.28,-147.24"/>
<polygon fill="#63b8ff" stroke="#63b8ff" points="439.93,-150.33 447.31,-142.73 436.8,-144.07 439.93,-150.33"/>
</a>
</g>
</g>
<!-- Node7&#45;&gt;Node19 -->
<g id="edge34_Node000007_Node000019" class="edge">
<title>Node7&#45;&gt;Node19</title>
<g id="a_edge34_Node000007_Node000019"><a xlink:title=" ">
<path fill="none" stroke="#63b8ff" d="M328.55,-348.5C333.08,-311.76 354.28,-180 431,-115.2 435.27,-111.59 440.11,-108.65 445.23,-106.24"/>
<polygon fill="#63b8ff" stroke="#63b8ff" points="446.72,-109.42 454.72,-102.48 444.13,-102.91 446.72,-109.42"/>
</a>
</g>
</g>
<!-- Node7&#45;&gt;Node20 -->
<g id="edge36_Node000007_Node000020" class="edge">
<title>Node7&#45;&gt;Node20</title>
<g id="a_edge36_Node000007_Node000020"><a xlink:title=" ">
<path fill="none" stroke="#63b8ff" d="M327.95,-348.46C330.37,-308.35 345.13,-154.38 431,-78.2 435.81,-73.93 441.4,-70.58 447.35,-67.96"/>
<polygon fill="#63b8ff" stroke="#63b8ff" points="448.78,-71.16 456.94,-64.4 446.35,-64.6 448.78,-71.16"/>
</a>
</g>
</g>
<!-- Node7&#45;&gt;Node21 -->
<g id="edge38_Node000007_Node000021" class="edge">
<title>Node7&#45;&gt;Node21</title>
<g id="a_edge38_Node000007_Node000021"><a xlink:title=" ">
<path fill="none" stroke="#63b8ff" d="M327.6,-348.51C328.57,-305.63 338.26,-130.96 431,-40.2 435.06,-36.23 439.75,-32.91 444.78,-30.14"/>
<polygon fill="#63b8ff" stroke="#63b8ff" points="446.59,-33.15 454.14,-25.72 443.61,-26.82 446.59,-33.15"/>
</a>
</g>
</g>
<!-- Node8&#45;&gt;Node4 -->
<g id="edge13_Node000008_Node000004" class="edge">
<title>Node8&#45;&gt;Node4</title>
<g id="a_edge13_Node000008_Node000004"><a xlink:title=" ">
<path fill="none" stroke="#63b8ff" d="M571.51,-520.02C578.86,-516.93 585.91,-513.05 592,-508.2 649.76,-462.1 682.15,-376.16 694.33,-337.69"/>
<polygon fill="#63b8ff" stroke="#63b8ff" points="697.79,-338.36 697.36,-327.77 691.09,-336.32 697.79,-338.36"/>
</a>
</g>
</g>
<!-- Node9&#45;&gt;Node4 -->
<g id="edge15_Node000009_Node000004" class="edge">
<title>Node9&#45;&gt;Node4</title>
<g id="a_edge15_Node000009_Node000004"><a xlink:title=" ">
<path fill="none" stroke="#63b8ff" d="M574.3,-480.04C580.56,-477.72 586.59,-474.82 592,-471.2 642.97,-437.11 677.45,-370.22 692.08,-337.35"/>
<polygon fill="#63b8ff" stroke="#63b8ff" points="695.38,-338.52 696.13,-327.96 688.96,-335.75 695.38,-338.52"/>
</a>
</g>
</g>
<!-- Node10&#45;&gt;Node4 -->
<g id="edge17_Node000010_Node000004" class="edge">
<title>Node10&#45;&gt;Node4</title>
<g id="a_edge17_Node000010_Node000004"><a xlink:title=" ">
<path fill="none" stroke="#63b8ff" d="M570.08,-442.7C577.73,-440.22 585.25,-437.11 592,-433.2 634.41,-408.59 670.32,-362.17 688.08,-336.47"/>
<polygon fill="#63b8ff" stroke="#63b8ff" points="691.09,-338.26 693.78,-328.02 685.29,-334.35 691.09,-338.26"/>
</a>
</g>
</g>
<!-- Node11&#45;&gt;Node4 -->
<g id="edge19_Node000011_Node000004" class="edge">
<title>Node11&#45;&gt;Node4</title>
<g id="a_edge19_Node000011_Node000004"><a xlink:title=" ">
<path fill="none" stroke="#63b8ff" d="M569.2,-394.08C576.98,-391.43 584.77,-388.46 592,-385.2 623.85,-370.81 657.63,-348.58 678.76,-333.72"/>
<polygon fill="#63b8ff" stroke="#63b8ff" points="680.88,-336.5 686.99,-327.85 676.82,-330.8 680.88,-336.5"/>
</a>
</g>
</g>
<!-- Node12&#45;&gt;Node4 -->
<g id="edge21_Node000012_Node000004" class="edge">
<title>Node12&#45;&gt;Node4</title>
<g id="a_edge21_Node000012_Node000004"><a xlink:title=" ">
<path fill="none" stroke="#63b8ff" d="M569.52,-348.12C594.71,-342.34 624.1,-335.6 648.6,-329.98"/>
<polygon fill="#63b8ff" stroke="#63b8ff" points="649.46,-333.38 658.43,-327.73 647.9,-326.56 649.46,-333.38"/>
</a>
</g>
</g>
<!-- Node13&#45;&gt;Node4 -->
<g id="edge23_Node000013_Node000004" class="edge">
<title>Node13&#45;&gt;Node4</title>
<g id="a_edge23_Node000013_Node000004"><a xlink:title=" ">
<path fill="none" stroke="#63b8ff" d="M586.07,-318.2C596.49,-318.2 607.25,-318.2 617.82,-318.2"/>
<polygon fill="#63b8ff" stroke="#63b8ff" points="617.87,-321.7 627.87,-318.2 617.87,-314.7 617.87,-321.7"/>
</a>
</g>
</g>
<!-- Node14&#45;&gt;Node4 -->
<g id="edge25_Node000014_Node000004" class="edge">
<title>Node14&#45;&gt;Node4</title>
<g id="a_edge25_Node000014_Node000004"><a xlink:title=" ">
<path fill="none" stroke="#63b8ff" d="M560.79,-290.73C585.4,-295.58 615.54,-301.53 641.47,-306.65"/>
<polygon fill="#63b8ff" stroke="#63b8ff" points="641.06,-310.13 651.55,-308.64 642.42,-303.27 641.06,-310.13"/>
</a>
</g>
</g>
<!-- Node15&#45;&gt;Node4 -->
<g id="edge27_Node000015_Node000004" class="edge">
<title>Node15&#45;&gt;Node4</title>
<g id="a_edge27_Node000015_Node000004"><a xlink:title=" ">
<path fill="none" stroke="#63b8ff" d="M560.55,-253.75C571.05,-256.37 582.01,-259.52 592,-263.2 621.76,-274.15 653.9,-291.27 675.32,-303.5"/>
<polygon fill="#63b8ff" stroke="#63b8ff" points="673.67,-306.59 684.08,-308.57 677.18,-300.53 673.67,-306.59"/>
</a>
</g>
</g>
<!-- Node16&#45;&gt;Node4 -->
<g id="edge29_Node000016_Node000004" class="edge">
<title>Node16&#45;&gt;Node4</title>
<g id="a_edge29_Node000016_Node000004"><a xlink:title=" ">
<path fill="none" stroke="#63b8ff" d="M567.6,-216.77C576.01,-219.25 584.41,-222.34 592,-226.2 629.61,-245.31 665.23,-280.02 684.7,-300.91"/>
<polygon fill="#63b8ff" stroke="#63b8ff" points="682.23,-303.41 691.56,-308.43 687.4,-298.69 682.23,-303.41"/>
</a>
</g>
</g>
<!-- Node17&#45;&gt;Node4 -->
<g id="edge31_Node000017_Node000004" class="edge">
<title>Node17&#45;&gt;Node4</title>
<g id="a_edge31_Node000017_Node000004"><a xlink:title=" ">
<path fill="none" stroke="#63b8ff" d="M571.54,-179.77C578.72,-182.22 585.73,-185.31 592,-189.2 637.55,-217.38 673.26,-271.38 689.85,-299.75"/>
<polygon fill="#63b8ff" stroke="#63b8ff" points="686.92,-301.67 694.91,-308.63 693,-298.21 686.92,-301.67"/>
</a>
</g>
</g>
<!-- Node18&#45;&gt;Node4 -->
<g id="edge33_Node000018_Node000004" class="edge">
<title>Node18&#45;&gt;Node4</title>
<g id="a_edge33_Node000018_Node000004"><a xlink:title=" ">
<path fill="none" stroke="#63b8ff" d="M574.05,-142.82C580.42,-145.28 586.55,-148.35 592,-152.2 645.73,-190.09 679.45,-263.99 693.07,-298.97"/>
<polygon fill="#63b8ff" stroke="#63b8ff" points="689.86,-300.36 696.66,-308.49 696.41,-297.9 689.86,-300.36"/>
</a>
</g>
</g>
<!-- Node19&#45;&gt;Node4 -->
<g id="edge35_Node000019_Node000004" class="edge">
<title>Node19&#45;&gt;Node4</title>
<g id="a_edge35_Node000019_Node000004"><a xlink:title=" ">
<path fill="none" stroke="#63b8ff" d="M568.28,-103.12C576.79,-105.93 585.04,-109.82 592,-115.2 654.19,-163.29 684.61,-257.53 695.34,-298.45"/>
<polygon fill="#63b8ff" stroke="#63b8ff" points="691.98,-299.43 697.8,-308.28 698.77,-297.73 691.98,-299.43"/>
</a>
</g>
</g>
<!-- Node20&#45;&gt;Node4 -->
<g id="edge37_Node000020_Node000004" class="edge">
<title>Node20&#45;&gt;Node4</title>
<g id="a_edge37_Node000020_Node000004"><a xlink:title=" ">
<path fill="none" stroke="#63b8ff" d="M566.12,-64.93C575.47,-67.82 584.57,-72.05 592,-78.2 663.07,-137.01 689.21,-252.32 697.09,-298.45"/>
<polygon fill="#63b8ff" stroke="#63b8ff" points="693.68,-299.28 698.72,-308.6 700.59,-298.18 693.68,-299.28"/>
</a>
</g>
</g>
<!-- Node21&#45;&gt;Node4 -->
<g id="edge39_Node000021_Node000004" class="edge">
<title>Node21&#45;&gt;Node4</title>
<g id="a_edge39_Node000021_Node000004"><a xlink:title=" ">
<path fill="none" stroke="#63b8ff" d="M568.56,-26.03C577.13,-29.44 585.33,-34.03 592,-40.2 670.09,-112.47 692.4,-247.84 698.17,-298.44"/>
<polygon fill="#63b8ff" stroke="#63b8ff" points="694.71,-299.07 699.23,-308.66 701.67,-298.35 694.71,-299.07"/>
</a>
</g>
</g>
</g>
</svg>
