<?xml version="1.0" encoding="UTF-8" standalone="no"?>
<!DOCTYPE svg PUBLIC "-//W3C//DTD SVG 1.1//EN"
 "http://www.w3.org/Graphics/SVG/1.1/DTD/svg11.dtd">
<!-- Generated by graphviz version 2.43.0 (0)
 -->
<!-- Title: lci::sync_test Pages: 1 -->
<svg width="745pt" height="102pt"
 viewBox="0.00 0.00 745.00 102.11" xmlns="http://www.w3.org/2000/svg" xmlns:xlink="http://www.w3.org/1999/xlink">
<g id="graph0" class="graph" transform="scale(1 1) rotate(0) translate(4 98.11)">
<title>lci::sync_test</title>
<!-- Node1 -->
<g id="Node000001" class="node">
<title>Node1</title>
<g id="a_Node000001"><a xlink:title=" ">
<polygon fill="#999999" stroke="#666666" points="80,-56 0,-56 0,-37 80,-37 80,-56"/>
<text text-anchor="middle" x="40" y="-44" font-family="Helvetica,sans-Serif" font-size="10.00">lci::sync_test</text>
</a>
</g>
</g>
<!-- Node2 -->
<g id="Node000002" class="node">
<title>Node2</title>
<g id="a_Node000002"><a xlink:href="../../d4/d6a/classlci_1_1sync__test__x.html#af3349c0b13699b4b4e64cf2cff8dfe0d" target="_top" xlink:title=" ">
<polygon fill="white" stroke="#666666" points="231,-56 116,-56 116,-37 231,-37 231,-56"/>
<text text-anchor="middle" x="173.5" y="-44" font-family="Helvetica,sans-Serif" font-size="10.00">lci::sync_test_x::call</text>
</a>
</g>
</g>
<!-- Node1&#45;&gt;Node2 -->
<g id="edge1_Node000001_Node000002" class="edge">
<title>Node1&#45;&gt;Node2</title>
<g id="a_edge1_Node000001_Node000002"><a xlink:title=" ">
<path fill="none" stroke="#63b8ff" d="M80.1,-46.5C88.15,-46.5 96.85,-46.5 105.57,-46.5"/>
<polygon fill="#63b8ff" stroke="#63b8ff" points="105.79,-50 115.79,-46.5 105.79,-43 105.79,-50"/>
</a>
</g>
</g>
<!-- Node3 -->
<g id="Node000003" class="node">
<title>Node3</title>
<g id="a_Node000003"><a xlink:href="../../d4/d6a/classlci_1_1sync__test__x.html#a529339a482a285cb608923887b26ec8f" target="_top" xlink:title=" ">
<polygon fill="white" stroke="#666666" points="409,-75 267,-75 267,-56 409,-56 409,-75"/>
<text text-anchor="middle" x="338" y="-63" font-family="Helvetica,sans-Serif" font-size="10.00">lci::sync_test_x::call_impl</text>
</a>
</g>
</g>
<!-- Node2&#45;&gt;Node3 -->
<g id="edge2_Node000002_Node000003" class="edge">
<title>Node2&#45;&gt;Node3</title>
<g id="a_edge2_Node000002_Node000003"><a xlink:title=" ">
<path fill="none" stroke="#63b8ff" d="M231.33,-53.15C239.56,-54.11 248.15,-55.11 256.72,-56.11"/>
<polygon fill="#63b8ff" stroke="#63b8ff" points="256.42,-59.6 266.76,-57.29 257.24,-52.65 256.42,-59.6"/>
</a>
</g>
</g>
<!-- Node4 -->
<g id="Node000004" class="node">
<title>Node4</title>
<g id="a_Node000004"><a xlink:href="../../d4/d6a/classlci_1_1sync__test__x.html#acfaebe7e174325699f1c1e68529d38e1" target="_top" xlink:title=" ">
<polygon fill="white" stroke="#666666" points="575.5,-93 450.5,-93 450.5,-74 575.5,-74 575.5,-93"/>
<text text-anchor="middle" x="513" y="-81" font-family="Helvetica,sans-Serif" font-size="10.00">lci::sync_test_x::comp</text>
</a>
</g>
</g>
<!-- Node2&#45;&gt;Node4 -->
<g id="edge9_Node000002_Node000004" class="edge">
<title>Node2&#45;&gt;Node4</title>
<g id="a_edge9_Node000002_Node000004"><a xlink:title=" ">
<path fill="none" stroke="#63b8ff" d="M191.93,-56.08C210.06,-65.45 239.58,-79.09 267,-84.5 324.46,-95.84 391,-94.69 440.22,-91.21"/>
<polygon fill="#63b8ff" stroke="#63b8ff" points="440.74,-94.68 450.45,-90.43 440.21,-87.7 440.74,-94.68"/>
</a>
</g>
</g>
<!-- Node6 -->
<g id="Node000006" class="node">
<title>Node6</title>
<g id="a_Node000006"><a xlink:href="../../d4/d6a/classlci_1_1sync__test__x.html#a5bdcd945b9c2c435a73ad85cfc431005" target="_top" xlink:title=" ">
<polygon fill="white" stroke="#666666" points="575.5,-56 450.5,-56 450.5,-37 575.5,-37 575.5,-56"/>
<text text-anchor="middle" x="513" y="-44" font-family="Helvetica,sans-Serif" font-size="10.00">lci::sync_test_x::p_out</text>
</a>
</g>
</g>
<!-- Node2&#45;&gt;Node6 -->
<g id="edge10_Node000002_Node000006" class="edge">
<title>Node2&#45;&gt;Node6</title>
<g id="a_edge10_Node000002_Node000006"><a xlink:title=" ">
<path fill="none" stroke="#63b8ff" d="M231.37,-46.5C288.85,-46.5 377.85,-46.5 440.17,-46.5"/>
<polygon fill="#63b8ff" stroke="#63b8ff" points="440.32,-50 450.32,-46.5 440.32,-43 440.32,-50"/>
</a>
</g>
</g>
<!-- Node7 -->
<g id="Node000007" class="node">
<title>Node7</title>
<g id="a_Node000007"><a xlink:href="../../d4/d6a/classlci_1_1sync__test__x.html#a5fe02a51c7806dbcf59f006d2f88a685" target="_top" xlink:title=" ">
<polygon fill="white" stroke="#666666" points="581,-19 445,-19 445,0 581,0 581,-19"/>
<text text-anchor="middle" x="513" y="-7" font-family="Helvetica,sans-Serif" font-size="10.00">lci::sync_test_x::runtime</text>
</a>
</g>
</g>
<!-- Node2&#45;&gt;Node7 -->
<g id="edge11_Node000002_Node000007" class="edge">
<title>Node2&#45;&gt;Node7</title>
<g id="a_edge11_Node000002_Node000007"><a xlink:title=" ">
<path fill="none" stroke="#63b8ff" d="M231.37,-40.27C287.16,-34.15 372.64,-24.78 434.6,-17.99"/>
<polygon fill="#63b8ff" stroke="#63b8ff" points="435.16,-21.44 444.72,-16.88 434.4,-14.49 435.16,-21.44"/>
</a>
</g>
</g>
<!-- Node3&#45;&gt;Node4 -->
<g id="edge3_Node000003_Node000004" class="edge">
<title>Node3&#45;&gt;Node4</title>
<g id="a_edge3_Node000003_Node000004"><a xlink:title=" ">
<path fill="none" stroke="#63b8ff" d="M409.37,-72.82C419.54,-73.88 430.02,-74.97 440.22,-76.03"/>
<polygon fill="#63b8ff" stroke="#63b8ff" points="440,-79.53 450.31,-77.08 440.72,-72.56 440,-79.53"/>
</a>
</g>
</g>
<!-- Node3&#45;&gt;Node6 -->
<g id="edge5_Node000003_Node000006" class="edge">
<title>Node3&#45;&gt;Node6</title>
<g id="a_edge5_Node000003_Node000006"><a xlink:title=" ">
<path fill="none" stroke="#63b8ff" d="M409.37,-57.77C419.54,-56.65 430.02,-55.5 440.22,-54.38"/>
<polygon fill="#63b8ff" stroke="#63b8ff" points="440.75,-57.85 450.31,-53.28 439.98,-50.89 440.75,-57.85"/>
</a>
</g>
</g>
<!-- Node3&#45;&gt;Node7 -->
<g id="edge7_Node000003_Node000007" class="edge">
<title>Node3&#45;&gt;Node7</title>
<g id="a_edge7_Node000003_Node000007"><a xlink:title=" ">
<path fill="none" stroke="#63b8ff" d="M364.99,-55.94C386.36,-48.2 417.49,-37.19 445,-28.5 452.05,-26.27 459.56,-24.02 466.91,-21.89"/>
<polygon fill="#63b8ff" stroke="#63b8ff" points="468.11,-25.19 476.76,-19.07 466.19,-18.46 468.11,-25.19"/>
</a>
</g>
</g>
<!-- Node5 -->
<g id="Node000005" class="node">
<title>Node5</title>
<g id="a_Node000005"><a xlink:href="../../d4/d6a/classlci_1_1sync__test__x.html#aab626d317440f18eff0790defa537407" target="_top" xlink:title=" ">
<polygon fill="white" stroke="#666666" points="737,-61.5 617,-61.5 617,-31.5 737,-31.5 737,-61.5"/>
<text text-anchor="start" x="625" y="-49.5" font-family="Helvetica,sans-Serif" font-size="10.00">lci::sync_test_x::sync</text>
<text text-anchor="middle" x="677" y="-38.5" font-family="Helvetica,sans-Serif" font-size="10.00">_test_x</text>
</a>
</g>
</g>
<!-- Node4&#45;&gt;Node5 -->
<g id="edge4_Node000004_Node000005" class="edge">
<title>Node4&#45;&gt;Node5</title>
<g id="a_edge4_Node000004_Node000005"><a xlink:title=" ">
<path fill="none" stroke="#63b8ff" d="M555.72,-73.97C571.24,-70.43 589.29,-66.3 606.62,-62.35"/>
<polygon fill="#63b8ff" stroke="#63b8ff" points="607.75,-65.68 616.72,-60.04 606.19,-58.85 607.75,-65.68"/>
</a>
</g>
</g>
<!-- Node6&#45;&gt;Node5 -->
<g id="edge6_Node000006_Node000005" class="edge">
<title>Node6&#45;&gt;Node5</title>
<g id="a_edge6_Node000006_Node000005"><a xlink:title=" ">
<path fill="none" stroke="#63b8ff" d="M575.71,-46.5C585.83,-46.5 596.39,-46.5 606.68,-46.5"/>
<polygon fill="#63b8ff" stroke="#63b8ff" points="606.87,-50 616.87,-46.5 606.87,-43 606.87,-50"/>
</a>
</g>
</g>
<!-- Node7&#45;&gt;Node5 -->
<g id="edge8_Node000007_Node000005" class="edge">
<title>Node7&#45;&gt;Node5</title>
<g id="a_edge8_Node000007_Node000005"><a xlink:title=" ">
<path fill="none" stroke="#63b8ff" d="M555.72,-19.03C571.24,-22.57 589.29,-26.7 606.62,-30.65"/>
<polygon fill="#63b8ff" stroke="#63b8ff" points="606.19,-34.15 616.72,-32.96 607.75,-27.32 606.19,-34.15"/>
</a>
</g>
</g>
</g>
</svg>
