<?xml version="1.0" encoding="UTF-8" standalone="no"?>
<!DOCTYPE svg PUBLIC "-//W3C//DTD SVG 1.1//EN"
 "http://www.w3.org/Graphics/SVG/1.1/DTD/svg11.dtd">
<!-- Generated by graphviz version 2.43.0 (0)
 -->
<!-- Title: lci::post_put Pages: 1 -->
<svg width="750pt" height="842pt"
 viewBox="0.00 0.00 750.00 842.24" xmlns="http://www.w3.org/2000/svg" xmlns:xlink="http://www.w3.org/1999/xlink">
<g id="graph0" class="graph" transform="scale(1 1) rotate(0) translate(4 838.24)">
<title>lci::post_put</title>
<!-- Node1 -->
<g id="Node000001" class="node">
<title>Node1</title>
<g id="a_Node000001"><a xlink:title=" ">
<polygon fill="#999999" stroke="#666666" points="76,-426.24 0,-426.24 0,-407.24 76,-407.24 76,-426.24"/>
<text text-anchor="middle" x="38" y="-414.24" font-family="Helvetica,sans-Serif" font-size="10.00">lci::post_put</text>
</a>
</g>
</g>
<!-- Node2 -->
<g id="Node000002" class="node">
<title>Node2</title>
<g id="a_Node000002"><a xlink:href="../../d7/d85/classlci_1_1post__put__x.html#a8e042fb4a730b203593842d84209a739" target="_top" xlink:title=" ">
<polygon fill="white" stroke="#666666" points="222,-426.24 112,-426.24 112,-407.24 222,-407.24 222,-426.24"/>
<text text-anchor="middle" x="167" y="-414.24" font-family="Helvetica,sans-Serif" font-size="10.00">lci::post_put_x::call</text>
</a>
</g>
</g>
<!-- Node1&#45;&gt;Node2 -->
<g id="edge1_Node000001_Node000002" class="edge">
<title>Node1&#45;&gt;Node2</title>
<g id="a_edge1_Node000001_Node000002"><a xlink:title=" ">
<path fill="none" stroke="#63b8ff" d="M76.08,-416.74C84.07,-416.74 92.75,-416.74 101.46,-416.74"/>
<polygon fill="#63b8ff" stroke="#63b8ff" points="101.65,-420.24 111.65,-416.74 101.65,-413.24 101.65,-420.24"/>
</a>
</g>
</g>
<!-- Node3 -->
<g id="Node000003" class="node">
<title>Node3</title>
<g id="a_Node000003"><a xlink:href="../../d7/d85/classlci_1_1post__put__x.html#a7c47be347b9cd58177cf852427875c1d" target="_top" xlink:title=" ">
<polygon fill="white" stroke="#666666" points="586,-834.24 437,-834.24 437,-815.24 586,-815.24 586,-834.24"/>
<text text-anchor="middle" x="511.5" y="-822.24" font-family="Helvetica,sans-Serif" font-size="10.00">lci::post_put_x::allow_done</text>
</a>
</g>
</g>
<!-- Node2&#45;&gt;Node3 -->
<g id="edge2_Node000002_Node000003" class="edge">
<title>Node2&#45;&gt;Node3</title>
<g id="a_edge2_Node000002_Node000003"><a xlink:title=" ">
<path fill="none" stroke="#63b8ff" d="M169.23,-426.31C175.88,-476.39 208.96,-708.08 258,-757.74 301.88,-802.18 371.59,-818.19 426.66,-823.51"/>
<polygon fill="#63b8ff" stroke="#63b8ff" points="426.5,-827.01 436.77,-824.38 427.1,-820.04 426.5,-827.01"/>
</a>
</g>
</g>
<!-- Node5 -->
<g id="Node000005" class="node">
<title>Node5</title>
<g id="a_Node000005"><a xlink:href="../../d7/d85/classlci_1_1post__put__x.html#afe193737cce6daaf2317f9bb6ea49c9d" target="_top" xlink:title=" ">
<polygon fill="white" stroke="#666666" points="571,-796.74 452,-796.74 452,-766.74 571,-766.74 571,-796.74"/>
<text text-anchor="start" x="460" y="-784.74" font-family="Helvetica,sans-Serif" font-size="10.00">lci::post_put_x::allow</text>
<text text-anchor="middle" x="511.5" y="-773.74" font-family="Helvetica,sans-Serif" font-size="10.00">_posted</text>
</a>
</g>
</g>
<!-- Node2&#45;&gt;Node5 -->
<g id="edge4_Node000002_Node000005" class="edge">
<title>Node2&#45;&gt;Node5</title>
<g id="a_edge4_Node000002_Node000005"><a xlink:title=" ">
<path fill="none" stroke="#63b8ff" d="M167.8,-426.38C167.49,-467.55 171.92,-630.31 258,-713.74 306.87,-761.11 385.1,-776.32 441.54,-780.79"/>
<polygon fill="#63b8ff" stroke="#63b8ff" points="441.59,-784.31 451.81,-781.51 442.08,-777.32 441.59,-784.31"/>
</a>
</g>
</g>
<!-- Node6 -->
<g id="Node000006" class="node">
<title>Node6</title>
<g id="a_Node000006"><a xlink:href="../../d7/d85/classlci_1_1post__put__x.html#a9c3eee39d20edda920f82a4f6824fc28" target="_top" xlink:title=" ">
<polygon fill="white" stroke="#666666" points="571,-748.74 452,-748.74 452,-718.74 571,-718.74 571,-748.74"/>
<text text-anchor="start" x="460" y="-736.74" font-family="Helvetica,sans-Serif" font-size="10.00">lci::post_put_x::allow</text>
<text text-anchor="middle" x="511.5" y="-725.74" font-family="Helvetica,sans-Serif" font-size="10.00">_retry</text>
</a>
</g>
</g>
<!-- Node2&#45;&gt;Node6 -->
<g id="edge6_Node000002_Node000006" class="edge">
<title>Node2&#45;&gt;Node6</title>
<g id="a_edge6_Node000002_Node000006"><a xlink:title=" ">
<path fill="none" stroke="#63b8ff" d="M168.3,-426.34C170.01,-463.92 181.46,-602.4 258,-671.74 307.99,-717.04 385.67,-730.58 441.67,-734"/>
<polygon fill="#63b8ff" stroke="#63b8ff" points="441.69,-737.51 451.86,-734.53 442.05,-730.52 441.69,-737.51"/>
</a>
</g>
</g>
<!-- Node7 -->
<g id="Node000007" class="node">
<title>Node7</title>
<g id="a_Node000007"><a xlink:href="../../d7/d85/classlci_1_1post__put__x.html#a7a7860a8c1743c159d558247509b673f" target="_top" xlink:title=" ">
<polygon fill="white" stroke="#666666" points="575,-700.24 448,-700.24 448,-681.24 575,-681.24 575,-700.24"/>
<text text-anchor="middle" x="511.5" y="-688.24" font-family="Helvetica,sans-Serif" font-size="10.00">lci::post_put_x::buffers</text>
</a>
</g>
</g>
<!-- Node2&#45;&gt;Node7 -->
<g id="edge8_Node000002_Node000007" class="edge">
<title>Node2&#45;&gt;Node7</title>
<g id="a_edge8_Node000002_Node000007"><a xlink:title=" ">
<path fill="none" stroke="#63b8ff" d="M169.04,-426.66C173.17,-460.81 191.58,-574.46 258,-630.74 308,-673.11 382.69,-686.71 437.88,-690.54"/>
<polygon fill="#63b8ff" stroke="#63b8ff" points="437.75,-694.04 447.94,-691.15 438.17,-687.06 437.75,-694.04"/>
</a>
</g>
</g>
<!-- Node8 -->
<g id="Node000008" class="node">
<title>Node8</title>
<g id="a_Node000008"><a xlink:href="../../d7/d85/classlci_1_1post__put__x.html#acdda1c4df16be4c490ea5b4b4749b7cf" target="_top" xlink:title=" ">
<polygon fill="white" stroke="#666666" points="395,-445.24 258,-445.24 258,-426.24 395,-426.24 395,-445.24"/>
<text text-anchor="middle" x="326.5" y="-433.24" font-family="Helvetica,sans-Serif" font-size="10.00">lci::post_put_x::call_impl</text>
</a>
</g>
</g>
<!-- Node2&#45;&gt;Node8 -->
<g id="edge10_Node000002_Node000008" class="edge">
<title>Node2&#45;&gt;Node8</title>
<g id="a_edge10_Node000002_Node000008"><a xlink:title=" ">
<path fill="none" stroke="#63b8ff" d="M222.2,-423.28C230.45,-424.28 239.1,-425.32 247.74,-426.36"/>
<polygon fill="#63b8ff" stroke="#63b8ff" points="247.49,-429.86 257.84,-427.58 248.33,-422.91 247.49,-429.86"/>
</a>
</g>
</g>
<!-- Node9 -->
<g id="Node000009" class="node">
<title>Node9</title>
<g id="a_Node000009"><a xlink:href="../../d7/d85/classlci_1_1post__put__x.html#a8760591ebcfb437bc49000c47b473227" target="_top" xlink:title=" ">
<polygon fill="white" stroke="#666666" points="571.5,-662.74 451.5,-662.74 451.5,-632.74 571.5,-632.74 571.5,-662.74"/>
<text text-anchor="start" x="459.5" y="-650.74" font-family="Helvetica,sans-Serif" font-size="10.00">lci::post_put_x::comp</text>
<text text-anchor="middle" x="511.5" y="-639.74" font-family="Helvetica,sans-Serif" font-size="10.00">_semantic</text>
</a>
</g>
</g>
<!-- Node2&#45;&gt;Node9 -->
<g id="edge49_Node000002_Node000009" class="edge">
<title>Node2&#45;&gt;Node9</title>
<g id="a_edge49_Node000002_Node000009"><a xlink:title=" ">
<path fill="none" stroke="#63b8ff" d="M169.98,-426.56C176.56,-456.52 200.65,-547.51 258,-591.74 310.55,-632.28 386.59,-644.67 441.47,-647.91"/>
<polygon fill="#63b8ff" stroke="#63b8ff" points="441.3,-651.41 451.47,-648.41 441.65,-644.42 441.3,-651.41"/>
</a>
</g>
</g>
<!-- Node10 -->
<g id="Node000010" class="node">
<title>Node10</title>
<g id="a_Node000010"><a xlink:href="../../d7/d85/classlci_1_1post__put__x.html#a0d0c3eb11071c0039598976d9fd4dd39" target="_top" xlink:title=" ">
<polygon fill="white" stroke="#666666" points="574,-614.24 449,-614.24 449,-595.24 574,-595.24 574,-614.24"/>
<text text-anchor="middle" x="511.5" y="-602.24" font-family="Helvetica,sans-Serif" font-size="10.00">lci::post_put_x::device</text>
</a>
</g>
</g>
<!-- Node2&#45;&gt;Node10 -->
<g id="edge50_Node000002_Node000010" class="edge">
<title>Node2&#45;&gt;Node10</title>
<g id="a_edge50_Node000002_Node000010"><a xlink:title=" ">
<path fill="none" stroke="#63b8ff" d="M171.21,-426.41C180.28,-452.11 208.68,-522.44 258,-555.74 311.37,-591.78 384.73,-602.77 438.63,-605.49"/>
<polygon fill="#63b8ff" stroke="#63b8ff" points="438.66,-608.99 448.8,-605.92 438.95,-602 438.66,-608.99"/>
</a>
</g>
</g>
<!-- Node11 -->
<g id="Node000011" class="node">
<title>Node11</title>
<g id="a_Node000011"><a xlink:href="../../d7/d85/classlci_1_1post__put__x.html#a220f22ad49076dd1dbe975d750bebf4e" target="_top" xlink:title=" ">
<polygon fill="white" stroke="#666666" points="579.5,-577.24 443.5,-577.24 443.5,-558.24 579.5,-558.24 579.5,-577.24"/>
<text text-anchor="middle" x="511.5" y="-565.24" font-family="Helvetica,sans-Serif" font-size="10.00">lci::post_put_x::endpoint</text>
</a>
</g>
</g>
<!-- Node2&#45;&gt;Node11 -->
<g id="edge51_Node000002_Node000011" class="edge">
<title>Node2&#45;&gt;Node11</title>
<g id="a_edge51_Node000002_Node000011"><a xlink:title=" ">
<path fill="none" stroke="#63b8ff" d="M173.24,-426.5C185.16,-447.7 216.57,-497.95 258,-521.74 311.34,-552.37 380.58,-563.34 433.06,-566.95"/>
<polygon fill="#63b8ff" stroke="#63b8ff" points="433.13,-570.46 443.32,-567.58 433.55,-563.48 433.13,-570.46"/>
</a>
</g>
</g>
<!-- Node12 -->
<g id="Node000012" class="node">
<title>Node12</title>
<g id="a_Node000012"><a xlink:href="../../d7/d85/classlci_1_1post__put__x.html#a8d834babe24c1337fc4c9cf80e1a240f" target="_top" xlink:title=" ">
<polygon fill="white" stroke="#666666" points="570.5,-539.74 452.5,-539.74 452.5,-509.74 570.5,-509.74 570.5,-539.74"/>
<text text-anchor="start" x="460.5" y="-527.74" font-family="Helvetica,sans-Serif" font-size="10.00">lci::post_put_x::force</text>
<text text-anchor="middle" x="511.5" y="-516.74" font-family="Helvetica,sans-Serif" font-size="10.00">_zcopy</text>
</a>
</g>
</g>
<!-- Node2&#45;&gt;Node12 -->
<g id="edge52_Node000002_Node000012" class="edge">
<title>Node2&#45;&gt;Node12</title>
<g id="a_edge52_Node000002_Node000012"><a xlink:title=" ">
<path fill="none" stroke="#63b8ff" d="M175.99,-426.44C190.42,-443.19 222.61,-477.21 258,-492.74 316.6,-518.47 389.72,-525.33 442.17,-526.43"/>
<polygon fill="#63b8ff" stroke="#63b8ff" points="442.33,-529.94 452.38,-526.58 442.43,-522.94 442.33,-529.94"/>
</a>
</g>
</g>
<!-- Node13 -->
<g id="Node000013" class="node">
<title>Node13</title>
<g id="a_Node000013"><a xlink:href="../../d7/d85/classlci_1_1post__put__x.html#a58f72581ef272b40fd6e6d8e3abd0d41" target="_top" xlink:title=" ">
<polygon fill="white" stroke="#666666" points="569.5,-491.74 453.5,-491.74 453.5,-461.74 569.5,-461.74 569.5,-491.74"/>
<text text-anchor="start" x="461.5" y="-479.74" font-family="Helvetica,sans-Serif" font-size="10.00">lci::post_put_x::local</text>
<text text-anchor="middle" x="511.5" y="-468.74" font-family="Helvetica,sans-Serif" font-size="10.00">_buffer</text>
</a>
</g>
</g>
<!-- Node2&#45;&gt;Node13 -->
<g id="edge53_Node000002_Node000013" class="edge">
<title>Node2&#45;&gt;Node13</title>
<g id="a_edge53_Node000002_Node000013"><a xlink:title=" ">
<path fill="none" stroke="#63b8ff" d="M179.26,-426.4C195.42,-439.58 226.71,-462.61 258,-471.74 318.86,-489.52 391.53,-488.81 443.25,-484.82"/>
<polygon fill="#63b8ff" stroke="#63b8ff" points="443.63,-488.31 453.31,-483.99 443.05,-481.33 443.63,-488.31"/>
</a>
</g>
</g>
<!-- Node14 -->
<g id="Node000014" class="node">
<title>Node14</title>
<g id="a_Node000014"><a xlink:href="../../d7/d85/classlci_1_1post__put__x.html#ab566a71233e425c23cfe9b2d03e29c8c" target="_top" xlink:title=" ">
<polygon fill="white" stroke="#666666" points="586,-443.24 437,-443.24 437,-424.24 586,-424.24 586,-443.24"/>
<text text-anchor="middle" x="511.5" y="-431.24" font-family="Helvetica,sans-Serif" font-size="10.00">lci::post_put_x::local_comp</text>
</a>
</g>
</g>
<!-- Node2&#45;&gt;Node14 -->
<g id="edge54_Node000002_Node000014" class="edge">
<title>Node2&#45;&gt;Node14</title>
<g id="a_edge54_Node000002_Node000014"><a xlink:title=" ">
<path fill="none" stroke="#63b8ff" d="M184.93,-426.32C202.54,-435.69 231.24,-449.33 258,-454.74 328.59,-469.03 412.16,-456.46 463.24,-445.53"/>
<polygon fill="#63b8ff" stroke="#63b8ff" points="464.31,-448.88 473.32,-443.31 462.8,-442.05 464.31,-448.88"/>
</a>
</g>
</g>
<!-- Node15 -->
<g id="Node000015" class="node">
<title>Node15</title>
<g id="a_Node000015"><a xlink:href="../../d7/d85/classlci_1_1post__put__x.html#ade34aae8efdd4222af3a16bf0dc5da18" target="_top" xlink:title=" ">
<polygon fill="white" stroke="#666666" points="565,-406.24 458,-406.24 458,-387.24 565,-387.24 565,-406.24"/>
<text text-anchor="middle" x="511.5" y="-394.24" font-family="Helvetica,sans-Serif" font-size="10.00">lci::post_put_x::mr</text>
</a>
</g>
</g>
<!-- Node2&#45;&gt;Node15 -->
<g id="edge55_Node000002_Node000015" class="edge">
<title>Node2&#45;&gt;Node15</title>
<g id="a_edge55_Node000002_Node000015"><a xlink:title=" ">
<path fill="none" stroke="#63b8ff" d="M222.27,-413.57C283.59,-409.99 383.25,-404.17 447.84,-400.4"/>
<polygon fill="#63b8ff" stroke="#63b8ff" points="448.11,-403.89 457.89,-399.82 447.7,-396.9 448.11,-403.89"/>
</a>
</g>
</g>
<!-- Node16 -->
<g id="Node000016" class="node">
<title>Node16</title>
<g id="a_Node000016"><a xlink:href="../../d7/d85/classlci_1_1post__put__x.html#a6197b81f323b36c577bb1632ddbf043a" target="_top" xlink:title=" ">
<polygon fill="white" stroke="#666666" points="587.5,-369.24 435.5,-369.24 435.5,-350.24 587.5,-350.24 587.5,-369.24"/>
<text text-anchor="middle" x="511.5" y="-357.24" font-family="Helvetica,sans-Serif" font-size="10.00">lci::post_put_x::packet_pool</text>
</a>
</g>
</g>
<!-- Node2&#45;&gt;Node16 -->
<g id="edge56_Node000002_Node000016" class="edge">
<title>Node2&#45;&gt;Node16</title>
<g id="a_edge56_Node000002_Node000016"><a xlink:title=" ">
<path fill="none" stroke="#63b8ff" d="M217,-407.22C230.29,-404.71 244.68,-402.06 258,-399.74 318.14,-389.3 386.53,-378.54 436.96,-370.81"/>
<polygon fill="#63b8ff" stroke="#63b8ff" points="437.76,-374.23 447.11,-369.25 436.7,-367.31 437.76,-374.23"/>
</a>
</g>
</g>
<!-- Node17 -->
<g id="Node000017" class="node">
<title>Node17</title>
<g id="a_Node000017"><a xlink:href="../../d7/d85/classlci_1_1post__put__x.html#a14eb2ef67f761ab5ea877afe67212fca" target="_top" xlink:title=" ">
<polygon fill="white" stroke="#666666" points="569,-332.24 454,-332.24 454,-313.24 569,-313.24 569,-332.24"/>
<text text-anchor="middle" x="511.5" y="-320.24" font-family="Helvetica,sans-Serif" font-size="10.00">lci::post_put_x::rank</text>
</a>
</g>
</g>
<!-- Node2&#45;&gt;Node17 -->
<g id="edge57_Node000002_Node000017" class="edge">
<title>Node2&#45;&gt;Node17</title>
<g id="a_edge57_Node000002_Node000017"><a xlink:title=" ">
<path fill="none" stroke="#63b8ff" d="M184.73,-407.21C202.42,-397.49 231.39,-382.64 258,-373.74 319.44,-353.21 392.18,-339.59 443.78,-331.63"/>
<polygon fill="#63b8ff" stroke="#63b8ff" points="444.44,-335.07 453.8,-330.11 443.39,-328.15 444.44,-335.07"/>
</a>
</g>
</g>
<!-- Node18 -->
<g id="Node000018" class="node">
<title>Node18</title>
<g id="a_Node000018"><a xlink:href="../../d7/d85/classlci_1_1post__put__x.html#a982c74e0cc559c2e2d3e33fe59b0761b" target="_top" xlink:title=" ">
<polygon fill="white" stroke="#666666" points="577,-295.24 446,-295.24 446,-276.24 577,-276.24 577,-295.24"/>
<text text-anchor="middle" x="511.5" y="-283.24" font-family="Helvetica,sans-Serif" font-size="10.00">lci::post_put_x::rbuffers</text>
</a>
</g>
</g>
<!-- Node2&#45;&gt;Node18 -->
<g id="edge58_Node000002_Node000018" class="edge">
<title>Node2&#45;&gt;Node18</title>
<g id="a_edge58_Node000002_Node000018"><a xlink:title=" ">
<path fill="none" stroke="#63b8ff" d="M175.52,-407.21C189.67,-389.96 222.1,-353.72 258,-335.74 313.73,-307.85 383.67,-295.5 435.8,-290.05"/>
<polygon fill="#63b8ff" stroke="#63b8ff" points="436.37,-293.51 445.98,-289.05 435.68,-286.55 436.37,-293.51"/>
</a>
</g>
</g>
<!-- Node19 -->
<g id="Node000019" class="node">
<title>Node19</title>
<g id="a_Node000019"><a xlink:href="../../d7/d85/classlci_1_1post__put__x.html#ad4bc08cb1aef1932ac79961748f76dd2" target="_top" xlink:title=" ">
<polygon fill="white" stroke="#666666" points="592,-258.24 431,-258.24 431,-239.24 592,-239.24 592,-258.24"/>
<text text-anchor="middle" x="511.5" y="-246.24" font-family="Helvetica,sans-Serif" font-size="10.00">lci::post_put_x::remote_comp</text>
</a>
</g>
</g>
<!-- Node2&#45;&gt;Node19 -->
<g id="edge59_Node000002_Node000019" class="edge">
<title>Node2&#45;&gt;Node19</title>
<g id="a_edge59_Node000002_Node000019"><a xlink:title=" ">
<path fill="none" stroke="#63b8ff" d="M171.9,-406.94C182.05,-382.85 211.71,-320.62 258,-291.74 306.37,-261.57 369.62,-250.83 420.71,-247.63"/>
<polygon fill="#63b8ff" stroke="#63b8ff" points="420.97,-251.13 430.76,-247.09 420.59,-244.14 420.97,-251.13"/>
</a>
</g>
</g>
<!-- Node20 -->
<g id="Node000020" class="node">
<title>Node20</title>
<g id="a_Node000020"><a xlink:href="../../d7/d85/classlci_1_1post__put__x.html#ab68827d739e8a3a96b85239b9ac54813" target="_top" xlink:title=" ">
<polygon fill="white" stroke="#666666" points="588.5,-221.24 434.5,-221.24 434.5,-202.24 588.5,-202.24 588.5,-221.24"/>
<text text-anchor="middle" x="511.5" y="-209.24" font-family="Helvetica,sans-Serif" font-size="10.00">lci::post_put_x::remote_disp</text>
</a>
</g>
</g>
<!-- Node2&#45;&gt;Node20 -->
<g id="edge60_Node000002_Node000020" class="edge">
<title>Node2&#45;&gt;Node20</title>
<g id="a_edge60_Node000002_Node000020"><a xlink:title=" ">
<path fill="none" stroke="#63b8ff" d="M169.9,-406.94C176.24,-377.02 199.71,-286.49 258,-245.74 305.92,-212.24 371.68,-204.27 424.07,-204.4"/>
<polygon fill="#63b8ff" stroke="#63b8ff" points="424.32,-207.91 434.36,-204.53 424.41,-200.91 424.32,-207.91"/>
</a>
</g>
</g>
<!-- Node21 -->
<g id="Node000021" class="node">
<title>Node21</title>
<g id="a_Node000021"><a xlink:href="../../d7/d85/classlci_1_1post__put__x.html#aae3220b86cd474558b37f2f7787a0f54" target="_top" xlink:title=" ">
<polygon fill="white" stroke="#666666" points="566.5,-184.24 456.5,-184.24 456.5,-165.24 566.5,-165.24 566.5,-184.24"/>
<text text-anchor="middle" x="511.5" y="-172.24" font-family="Helvetica,sans-Serif" font-size="10.00">lci::post_put_x::rmr</text>
</a>
</g>
</g>
<!-- Node2&#45;&gt;Node21 -->
<g id="edge61_Node000002_Node000021" class="edge">
<title>Node2&#45;&gt;Node21</title>
<g id="a_edge61_Node000002_Node000021"><a xlink:title=" ">
<path fill="none" stroke="#63b8ff" d="M168.7,-406.89C171.78,-371.97 187.25,-253.34 258,-200.74 311.85,-160.71 390.98,-159.1 446.25,-164.37"/>
<polygon fill="#63b8ff" stroke="#63b8ff" points="445.98,-167.86 456.29,-165.43 446.71,-160.9 445.98,-167.86"/>
</a>
</g>
</g>
<!-- Node22 -->
<g id="Node000022" class="node">
<title>Node22</title>
<g id="a_Node000022"><a xlink:href="../../d7/d85/classlci_1_1post__put__x.html#a1b9f0551ed3b7e0b726a15b8c4eb7315" target="_top" xlink:title=" ">
<polygon fill="white" stroke="#666666" points="577,-147.24 446,-147.24 446,-128.24 577,-128.24 577,-147.24"/>
<text text-anchor="middle" x="511.5" y="-135.24" font-family="Helvetica,sans-Serif" font-size="10.00">lci::post_put_x::runtime</text>
</a>
</g>
</g>
<!-- Node2&#45;&gt;Node22 -->
<g id="edge62_Node000002_Node000022" class="edge">
<title>Node2&#45;&gt;Node22</title>
<g id="a_edge62_Node000002_Node000022"><a xlink:title=" ">
<path fill="none" stroke="#63b8ff" d="M167.92,-407.15C168.16,-368.35 174.74,-222.05 258,-157.74 315.01,-113.71 402.44,-117.84 458.02,-126.52"/>
<polygon fill="#63b8ff" stroke="#63b8ff" points="457.58,-130 468.02,-128.19 458.73,-123.09 457.58,-130"/>
</a>
</g>
</g>
<!-- Node23 -->
<g id="Node000023" class="node">
<title>Node23</title>
<g id="a_Node000023"><a xlink:href="../../d7/d85/classlci_1_1post__put__x.html#a8e4a92835eb5373cd0c4a8f7d052ba3a" target="_top" xlink:title=" ">
<polygon fill="white" stroke="#666666" points="568,-110.24 455,-110.24 455,-91.24 568,-91.24 568,-110.24"/>
<text text-anchor="middle" x="511.5" y="-98.24" font-family="Helvetica,sans-Serif" font-size="10.00">lci::post_put_x::size</text>
</a>
</g>
</g>
<!-- Node2&#45;&gt;Node23 -->
<g id="edge63_Node000002_Node000023" class="edge">
<title>Node2&#45;&gt;Node23</title>
<g id="a_edge63_Node000002_Node000023"><a xlink:title=" ">
<path fill="none" stroke="#63b8ff" d="M169.39,-407.24C176.43,-360.41 209.78,-155.05 258,-116.74 316.44,-70.32 408.55,-78.47 463.88,-89.21"/>
<polygon fill="#63b8ff" stroke="#63b8ff" points="463.27,-92.66 473.77,-91.23 464.67,-85.8 463.27,-92.66"/>
</a>
</g>
</g>
<!-- Node24 -->
<g id="Node000024" class="node">
<title>Node24</title>
<g id="a_Node000024"><a xlink:href="../../d7/d85/classlci_1_1post__put__x.html#a763b19426bad9e0c38a368006cd9bdc6" target="_top" xlink:title=" ">
<polygon fill="white" stroke="#666666" points="566,-73.24 457,-73.24 457,-54.24 566,-54.24 566,-73.24"/>
<text text-anchor="middle" x="511.5" y="-61.24" font-family="Helvetica,sans-Serif" font-size="10.00">lci::post_put_x::tag</text>
</a>
</g>
</g>
<!-- Node2&#45;&gt;Node24 -->
<g id="edge64_Node000002_Node000024" class="edge">
<title>Node2&#45;&gt;Node24</title>
<g id="a_edge64_Node000002_Node000024"><a xlink:title=" ">
<path fill="none" stroke="#63b8ff" d="M169.05,-407.01C174.79,-356.03 203.95,-120.61 258,-76.74 317.04,-28.83 411.79,-39.81 466.89,-51.91"/>
<polygon fill="#63b8ff" stroke="#63b8ff" points="466.17,-55.34 476.7,-54.17 467.74,-48.52 466.17,-55.34"/>
</a>
</g>
</g>
<!-- Node25 -->
<g id="Node000025" class="node">
<title>Node25</title>
<g id="a_Node000025"><a xlink:href="../../d7/d85/classlci_1_1post__put__x.html#a0b3a2ef72e0d53ef059b56ba1db406ae" target="_top" xlink:title=" ">
<polygon fill="white" stroke="#666666" points="568.5,-35.74 454.5,-35.74 454.5,-5.74 568.5,-5.74 568.5,-35.74"/>
<text text-anchor="start" x="462.5" y="-23.74" font-family="Helvetica,sans-Serif" font-size="10.00">lci::post_put_x::user</text>
<text text-anchor="middle" x="511.5" y="-12.74" font-family="Helvetica,sans-Serif" font-size="10.00">_context</text>
</a>
</g>
</g>
<!-- Node2&#45;&gt;Node25 -->
<g id="edge65_Node000002_Node000025" class="edge">
<title>Node2&#45;&gt;Node25</title>
<g id="a_edge65_Node000002_Node000025"><a xlink:title=" ">
<path fill="none" stroke="#63b8ff" d="M168.79,-407.01C173.41,-352.72 198.77,-87.88 258,-37.74 308.83,5.28 387.98,3.32 444.1,-5.44"/>
<polygon fill="#63b8ff" stroke="#63b8ff" points="443.86,-8.95 454.3,-7.15 445.01,-2.05 443.86,-8.95"/>
</a>
</g>
</g>
<!-- Node4 -->
<g id="Node000004" class="node">
<title>Node4</title>
<g id="a_Node000004"><a xlink:href="../../d7/d85/classlci_1_1post__put__x.html#a749da98e07eaba33f7e0dacab337bb0e" target="_top" xlink:title=" ">
<polygon fill="white" stroke="#666666" points="742,-411.74 628,-411.74 628,-381.74 742,-381.74 742,-411.74"/>
<text text-anchor="start" x="636" y="-399.74" font-family="Helvetica,sans-Serif" font-size="10.00">lci::post_put_x::post</text>
<text text-anchor="middle" x="685" y="-388.74" font-family="Helvetica,sans-Serif" font-size="10.00">_put_x</text>
</a>
</g>
</g>
<!-- Node3&#45;&gt;Node4 -->
<g id="edge3_Node000003_Node000004" class="edge">
<title>Node3&#45;&gt;Node4</title>
<g id="a_edge3_Node000003_Node000004"><a xlink:title=" ">
<path fill="none" stroke="#63b8ff" d="M579.03,-815.23C583.8,-812.7 588.21,-809.58 592,-805.74 646.56,-750.45 674.1,-503 681.74,-422.29"/>
<polygon fill="#63b8ff" stroke="#63b8ff" points="685.25,-422.33 682.69,-412.05 678.28,-421.68 685.25,-422.33"/>
</a>
</g>
</g>
<!-- Node5&#45;&gt;Node4 -->
<g id="edge5_Node000005_Node000004" class="edge">
<title>Node5&#45;&gt;Node4</title>
<g id="a_edge5_Node000005_Node000004"><a xlink:title=" ">
<path fill="none" stroke="#63b8ff" d="M571.23,-771.72C578.97,-768.32 586.22,-763.78 592,-757.74 639.11,-708.53 670.99,-495.81 680.8,-422.05"/>
<polygon fill="#63b8ff" stroke="#63b8ff" points="684.31,-422.2 682.14,-411.83 677.37,-421.29 684.31,-422.2"/>
</a>
</g>
</g>
<!-- Node6&#45;&gt;Node4 -->
<g id="edge7_Node000006_Node000004" class="edge">
<title>Node6&#45;&gt;Node4</title>
<g id="a_edge7_Node000006_Node000004"><a xlink:title=" ">
<path fill="none" stroke="#63b8ff" d="M571.03,-723.53C578.81,-720.16 586.11,-715.68 592,-709.74 672.41,-628.74 683.23,-481.32 684.2,-422.24"/>
<polygon fill="#63b8ff" stroke="#63b8ff" points="687.7,-421.98 684.28,-411.96 680.7,-421.93 687.7,-421.98"/>
</a>
</g>
</g>
<!-- Node7&#45;&gt;Node4 -->
<g id="edge9_Node000007_Node000004" class="edge">
<title>Node7&#45;&gt;Node4</title>
<g id="a_edge9_Node000007_Node000004"><a xlink:title=" ">
<path fill="none" stroke="#63b8ff" d="M575.11,-682.43C581.29,-679.74 587.08,-676.25 592,-671.74 665.65,-604.32 680.4,-476.31 683.31,-422.05"/>
<polygon fill="#63b8ff" stroke="#63b8ff" points="686.81,-422.08 683.76,-411.94 679.82,-421.77 686.81,-422.08"/>
</a>
</g>
</g>
<!-- Node8&#45;&gt;Node3 -->
<g id="edge11_Node000008_Node000003" class="edge">
<title>Node8&#45;&gt;Node3</title>
<g id="a_edge11_Node000008_Node000003"><a xlink:title=" ">
<path fill="none" stroke="#63b8ff" d="M328.87,-445.46C336.57,-498.5 375.97,-752.78 431,-805.74 432.5,-807.18 434.08,-808.52 435.74,-809.76"/>
<polygon fill="#63b8ff" stroke="#63b8ff" points="434.22,-812.94 444.57,-815.21 437.89,-806.98 434.22,-812.94"/>
</a>
</g>
</g>
<!-- Node8&#45;&gt;Node5 -->
<g id="edge12_Node000008_Node000005" class="edge">
<title>Node8&#45;&gt;Node5</title>
<g id="a_edge12_Node000008_Node000005"><a xlink:title=" ">
<path fill="none" stroke="#63b8ff" d="M327.55,-445.26C328.3,-488.17 337.17,-665.57 431,-757.74 434.48,-761.16 438.43,-764.1 442.66,-766.62"/>
<polygon fill="#63b8ff" stroke="#63b8ff" points="441.2,-769.8 451.7,-771.22 444.38,-763.56 441.2,-769.8"/>
</a>
</g>
</g>
<!-- Node8&#45;&gt;Node6 -->
<g id="edge13_Node000008_Node000006" class="edge">
<title>Node8&#45;&gt;Node6</title>
<g id="a_edge13_Node000008_Node000006"><a xlink:title=" ">
<path fill="none" stroke="#63b8ff" d="M328.17,-445.41C331.41,-484.57 348.88,-633.03 431,-709.74 434.57,-713.07 438.58,-715.94 442.86,-718.42"/>
<polygon fill="#63b8ff" stroke="#63b8ff" points="441.44,-721.62 451.95,-722.95 444.57,-715.36 441.44,-721.62"/>
</a>
</g>
</g>
<!-- Node8&#45;&gt;Node7 -->
<g id="edge14_Node000008_Node000007" class="edge">
<title>Node8&#45;&gt;Node7</title>
<g id="a_edge14_Node000008_Node000007"><a xlink:title=" ">
<path fill="none" stroke="#63b8ff" d="M328.72,-445.67C333.73,-482.04 356.16,-609.21 431,-671.74 433.43,-673.77 436.03,-675.59 438.77,-677.22"/>
<polygon fill="#63b8ff" stroke="#63b8ff" points="437.38,-680.44 447.89,-681.81 440.53,-674.19 437.38,-680.44"/>
</a>
</g>
</g>
<!-- Node8&#45;&gt;Node9 -->
<g id="edge15_Node000008_Node000009" class="edge">
<title>Node8&#45;&gt;Node9</title>
<g id="a_edge15_Node000008_Node000009"><a xlink:title=" ">
<path fill="none" stroke="#63b8ff" d="M330.06,-445.65C338.63,-476.82 369.31,-573.82 431,-623.74 434.5,-626.58 438.33,-629.07 442.35,-631.28"/>
<polygon fill="#63b8ff" stroke="#63b8ff" points="440.9,-634.46 451.42,-635.64 443.93,-628.15 440.9,-634.46"/>
</a>
</g>
</g>
<!-- Node8&#45;&gt;Node10 -->
<g id="edge17_Node000008_Node000010" class="edge">
<title>Node8&#45;&gt;Node10</title>
<g id="a_edge17_Node000008_Node000010"><a xlink:title=" ">
<path fill="none" stroke="#63b8ff" d="M331.13,-445.37C341.83,-472.4 376.04,-549.44 431,-586.74 433.61,-588.51 436.37,-590.11 439.23,-591.56"/>
<polygon fill="#63b8ff" stroke="#63b8ff" points="438.09,-594.88 448.65,-595.66 440.88,-588.46 438.09,-594.88"/>
</a>
</g>
</g>
<!-- Node8&#45;&gt;Node11 -->
<g id="edge19_Node000008_Node000011" class="edge">
<title>Node8&#45;&gt;Node11</title>
<g id="a_edge19_Node000008_Node000011"><a xlink:title=" ">
<path fill="none" stroke="#63b8ff" d="M333.4,-445.39C347.39,-467.43 384.92,-521.62 431,-548.74 434.71,-550.93 438.67,-552.86 442.75,-554.58"/>
<polygon fill="#63b8ff" stroke="#63b8ff" points="441.86,-557.98 452.46,-558.18 444.3,-551.42 441.86,-557.98"/>
</a>
</g>
</g>
<!-- Node8&#45;&gt;Node12 -->
<g id="edge21_Node000008_Node000012" class="edge">
<title>Node8&#45;&gt;Node12</title>
<g id="a_edge21_Node000008_Node000012"><a xlink:title=" ">
<path fill="none" stroke="#63b8ff" d="M340.26,-445.35C359.19,-459.22 396.24,-484.93 431,-500.74 435.29,-502.69 439.77,-504.54 444.34,-506.27"/>
<polygon fill="#63b8ff" stroke="#63b8ff" points="443.19,-509.57 453.78,-509.66 445.55,-502.99 443.19,-509.57"/>
</a>
</g>
</g>
<!-- Node8&#45;&gt;Node13 -->
<g id="edge23_Node000008_Node000013" class="edge">
<title>Node8&#45;&gt;Node13</title>
<g id="a_edge23_Node000008_Node000013"><a xlink:title=" ">
<path fill="none" stroke="#63b8ff" d="M369.94,-445.25C391.75,-450.14 418.84,-456.21 443.4,-461.71"/>
<polygon fill="#63b8ff" stroke="#63b8ff" points="442.86,-465.18 453.38,-463.95 444.39,-458.35 442.86,-465.18"/>
</a>
</g>
</g>
<!-- Node8&#45;&gt;Node14 -->
<g id="edge25_Node000008_Node000014" class="edge">
<title>Node8&#45;&gt;Node14</title>
<g id="a_edge25_Node000008_Node000014"><a xlink:title=" ">
<path fill="none" stroke="#63b8ff" d="M395.12,-435C405.38,-434.89 416.08,-434.78 426.63,-434.66"/>
<polygon fill="#63b8ff" stroke="#63b8ff" points="426.73,-438.16 436.69,-434.55 426.66,-431.16 426.73,-438.16"/>
</a>
</g>
</g>
<!-- Node8&#45;&gt;Node15 -->
<g id="edge27_Node000008_Node000015" class="edge">
<title>Node8&#45;&gt;Node15</title>
<g id="a_edge27_Node000008_Node000015"><a xlink:title=" ">
<path fill="none" stroke="#63b8ff" d="M372.27,-426.2C397.51,-420.82 429.23,-414.06 455.92,-408.38"/>
<polygon fill="#63b8ff" stroke="#63b8ff" points="456.83,-411.76 465.88,-406.25 455.37,-404.91 456.83,-411.76"/>
</a>
</g>
</g>
<!-- Node8&#45;&gt;Node16 -->
<g id="edge29_Node000008_Node000016" class="edge">
<title>Node8&#45;&gt;Node16</title>
<g id="a_edge29_Node000008_Node000016"><a xlink:title=" ">
<path fill="none" stroke="#63b8ff" d="M341.97,-426.12C361.45,-413.57 397.52,-391.69 431,-378.74 437.64,-376.17 444.74,-373.88 451.85,-371.86"/>
<polygon fill="#63b8ff" stroke="#63b8ff" points="452.77,-375.24 461.52,-369.26 450.95,-368.48 452.77,-375.24"/>
</a>
</g>
</g>
<!-- Node8&#45;&gt;Node17 -->
<g id="edge31_Node000008_Node000017" class="edge">
<title>Node8&#45;&gt;Node17</title>
<g id="a_edge31_Node000008_Node000017"><a xlink:title=" ">
<path fill="none" stroke="#63b8ff" d="M335.2,-426.04C351,-406.82 389.15,-363.85 431,-341.74 435.32,-339.46 439.92,-337.45 444.64,-335.68"/>
<polygon fill="#63b8ff" stroke="#63b8ff" points="446.1,-338.88 454.45,-332.36 443.86,-332.24 446.1,-338.88"/>
</a>
</g>
</g>
<!-- Node8&#45;&gt;Node18 -->
<g id="edge33_Node000008_Node000018" class="edge">
<title>Node8&#45;&gt;Node18</title>
<g id="a_edge33_Node000008_Node000018"><a xlink:title=" ">
<path fill="none" stroke="#63b8ff" d="M332.22,-426.03C344.68,-401.49 380.92,-336.73 431,-304.74 434.34,-302.61 437.89,-300.72 441.57,-299.04"/>
<polygon fill="#63b8ff" stroke="#63b8ff" points="442.96,-302.26 450.94,-295.29 440.36,-295.76 442.96,-302.26"/>
</a>
</g>
</g>
<!-- Node8&#45;&gt;Node19 -->
<g id="edge35_Node000008_Node000019" class="edge">
<title>Node8&#45;&gt;Node19</title>
<g id="a_edge35_Node000008_Node000019"><a xlink:title=" ">
<path fill="none" stroke="#63b8ff" d="M330.54,-425.92C340.1,-396.77 372.45,-310.13 431,-267.74 433.56,-265.89 436.28,-264.21 439.11,-262.7"/>
<polygon fill="#63b8ff" stroke="#63b8ff" points="440.83,-265.76 448.45,-258.4 437.91,-259.4 440.83,-265.76"/>
</a>
</g>
</g>
<!-- Node8&#45;&gt;Node20 -->
<g id="edge37_Node000008_Node000020" class="edge">
<title>Node8&#45;&gt;Node20</title>
<g id="a_edge37_Node000008_Node000020"><a xlink:title=" ">
<path fill="none" stroke="#63b8ff" d="M329.34,-426.2C336.2,-393.38 363.44,-284.15 431,-230.74 433.3,-228.93 435.74,-227.28 438.29,-225.79"/>
<polygon fill="#63b8ff" stroke="#63b8ff" points="439.93,-228.88 447.32,-221.29 436.81,-222.62 439.93,-228.88"/>
</a>
</g>
</g>
<!-- Node8&#45;&gt;Node21 -->
<g id="edge39_Node000008_Node000021" class="edge">
<title>Node8&#45;&gt;Node21</title>
<g id="a_edge39_Node000008_Node000021"><a xlink:title=" ">
<path fill="none" stroke="#63b8ff" d="M328.57,-426.08C333.14,-389.49 354.5,-258.26 431,-193.74 435.66,-189.82 440.99,-186.67 446.63,-184.16"/>
<polygon fill="#63b8ff" stroke="#63b8ff" points="448.24,-187.29 456.37,-180.5 445.78,-180.74 448.24,-187.29"/>
</a>
</g>
</g>
<!-- Node8&#45;&gt;Node22 -->
<g id="edge41_Node000008_Node000022" class="edge">
<title>Node8&#45;&gt;Node22</title>
<g id="a_edge41_Node000008_Node000022"><a xlink:title=" ">
<path fill="none" stroke="#63b8ff" d="M327.97,-426.04C330.43,-386.07 345.35,-232.64 431,-156.74 432.77,-155.18 434.64,-153.73 436.6,-152.4"/>
<polygon fill="#63b8ff" stroke="#63b8ff" points="438.7,-155.24 445.68,-147.27 435.25,-149.15 438.7,-155.24"/>
</a>
</g>
</g>
<!-- Node8&#45;&gt;Node23 -->
<g id="edge43_Node000008_Node000023" class="edge">
<title>Node8&#45;&gt;Node23</title>
<g id="a_edge43_Node000008_Node000023"><a xlink:title=" ">
<path fill="none" stroke="#63b8ff" d="M327.49,-425.98C328.02,-382.8 336.11,-207.16 431,-119.74 435.17,-115.9 439.99,-112.79 445.13,-110.28"/>
<polygon fill="#63b8ff" stroke="#63b8ff" points="446.75,-113.4 454.69,-106.39 444.11,-106.92 446.75,-113.4"/>
</a>
</g>
</g>
<!-- Node8&#45;&gt;Node24 -->
<g id="edge45_Node000008_Node000024" class="edge">
<title>Node8&#45;&gt;Node24</title>
<g id="a_edge45_Node000008_Node000024"><a xlink:title=" ">
<path fill="none" stroke="#63b8ff" d="M327.11,-426.13C325.82,-380.28 326.62,-181.97 431,-82.74 435.72,-78.25 441.31,-74.76 447.3,-72.06"/>
<polygon fill="#63b8ff" stroke="#63b8ff" points="448.85,-75.21 456.98,-68.42 446.39,-68.66 448.85,-75.21"/>
</a>
</g>
</g>
<!-- Node8&#45;&gt;Node25 -->
<g id="edge47_Node000008_Node000025" class="edge">
<title>Node8&#45;&gt;Node25</title>
<g id="a_edge47_Node000008_Node000025"><a xlink:title=" ">
<path fill="none" stroke="#63b8ff" d="M328.8,-425.9C336.23,-370.98 375.01,-102.69 431,-44.74 435.11,-40.49 439.94,-36.99 445.16,-34.1"/>
<polygon fill="#63b8ff" stroke="#63b8ff" points="446.7,-37.24 454.24,-29.8 443.71,-30.91 446.7,-37.24"/>
</a>
</g>
</g>
<!-- Node9&#45;&gt;Node4 -->
<g id="edge16_Node000009_Node000004" class="edge">
<title>Node9&#45;&gt;Node4</title>
<g id="a_edge16_Node000009_Node000004"><a xlink:title=" ">
<path fill="none" stroke="#63b8ff" d="M571.73,-636.47C579.13,-633.24 586.14,-629.09 592,-623.74 652.21,-568.83 673.83,-468.93 680.9,-422.16"/>
<polygon fill="#63b8ff" stroke="#63b8ff" points="684.4,-422.38 682.33,-411.99 677.47,-421.4 684.4,-422.38"/>
</a>
</g>
</g>
<!-- Node10&#45;&gt;Node4 -->
<g id="edge18_Node000010_Node000004" class="edge">
<title>Node10&#45;&gt;Node4</title>
<g id="a_edge18_Node000010_Node000004"><a xlink:title=" ">
<path fill="none" stroke="#63b8ff" d="M574.13,-596.77C580.56,-594.24 586.68,-590.97 592,-586.74 645.48,-544.27 669.85,-462.95 679.15,-421.85"/>
<polygon fill="#63b8ff" stroke="#63b8ff" points="682.62,-422.36 681.29,-411.85 675.78,-420.9 682.62,-422.36"/>
</a>
</g>
</g>
<!-- Node11&#45;&gt;Node4 -->
<g id="edge20_Node000011_Node000004" class="edge">
<title>Node11&#45;&gt;Node4</title>
<g id="a_edge20_Node000011_Node000004"><a xlink:title=" ">
<path fill="none" stroke="#63b8ff" d="M574.58,-558.13C580.78,-555.67 586.73,-552.59 592,-548.74 636.25,-516.44 663.39,-455.79 675.85,-421.68"/>
<polygon fill="#63b8ff" stroke="#63b8ff" points="679.24,-422.6 679.26,-412 672.64,-420.28 679.24,-422.6"/>
</a>
</g>
</g>
<!-- Node12&#45;&gt;Node4 -->
<g id="edge22_Node000012_Node000004" class="edge">
<title>Node12&#45;&gt;Node4</title>
<g id="a_edge22_Node000012_Node000004"><a xlink:title=" ">
<path fill="none" stroke="#63b8ff" d="M570.64,-511.34C578.12,-508.44 585.44,-504.94 592,-500.74 624.76,-479.75 652.77,-443.9 669.01,-420.26"/>
<polygon fill="#63b8ff" stroke="#63b8ff" points="671.98,-422.11 674.64,-411.86 666.17,-418.22 671.98,-422.11"/>
</a>
</g>
</g>
<!-- Node13&#45;&gt;Node4 -->
<g id="edge24_Node000013_Node000004" class="edge">
<title>Node13&#45;&gt;Node4</title>
<g id="a_edge24_Node000013_Node000004"><a xlink:title=" ">
<path fill="none" stroke="#63b8ff" d="M568.75,-461.71C576.68,-459.04 584.63,-456.04 592,-452.74 613.66,-443.07 636.45,-429.23 653.93,-417.73"/>
<polygon fill="#63b8ff" stroke="#63b8ff" points="656.19,-420.43 662.55,-411.96 652.29,-414.61 656.19,-420.43"/>
</a>
</g>
</g>
<!-- Node14&#45;&gt;Node4 -->
<g id="edge26_Node000014_Node000004" class="edge">
<title>Node14&#45;&gt;Node4</title>
<g id="a_edge26_Node000014_Node000004"><a xlink:title=" ">
<path fill="none" stroke="#63b8ff" d="M556.67,-424.22C575.34,-420.19 597.5,-415.41 618.04,-410.97"/>
<polygon fill="#63b8ff" stroke="#63b8ff" points="618.94,-414.36 627.98,-408.83 617.47,-407.52 618.94,-414.36"/>
</a>
</g>
</g>
<!-- Node15&#45;&gt;Node4 -->
<g id="edge28_Node000015_Node000004" class="edge">
<title>Node15&#45;&gt;Node4</title>
<g id="a_edge28_Node000015_Node000004"><a xlink:title=" ">
<path fill="none" stroke="#63b8ff" d="M565.36,-396.74C581.89,-396.74 600.35,-396.74 617.69,-396.74"/>
<polygon fill="#63b8ff" stroke="#63b8ff" points="617.75,-400.24 627.75,-396.74 617.75,-393.24 617.75,-400.24"/>
</a>
</g>
</g>
<!-- Node16&#45;&gt;Node4 -->
<g id="edge30_Node000016_Node000004" class="edge">
<title>Node16&#45;&gt;Node4</title>
<g id="a_edge30_Node000016_Node000004"><a xlink:title=" ">
<path fill="none" stroke="#63b8ff" d="M556.67,-369.27C575.34,-373.3 597.5,-378.08 618.04,-382.51"/>
<polygon fill="#63b8ff" stroke="#63b8ff" points="617.47,-385.97 627.98,-384.66 618.94,-379.13 617.47,-385.97"/>
</a>
</g>
</g>
<!-- Node17&#45;&gt;Node4 -->
<g id="edge32_Node000017_Node000004" class="edge">
<title>Node17&#45;&gt;Node4</title>
<g id="a_edge32_Node000017_Node000004"><a xlink:title=" ">
<path fill="none" stroke="#63b8ff" d="M562.85,-332.33C572.69,-334.88 582.8,-338 592,-341.74 614.01,-350.71 636.96,-364.42 654.44,-375.91"/>
<polygon fill="#63b8ff" stroke="#63b8ff" points="652.78,-379.02 663.04,-381.68 656.68,-373.2 652.78,-379.02"/>
</a>
</g>
</g>
<!-- Node18&#45;&gt;Node4 -->
<g id="edge34_Node000018_Node000004" class="edge">
<title>Node18&#45;&gt;Node4</title>
<g id="a_edge34_Node000018_Node000004"><a xlink:title=" ">
<path fill="none" stroke="#63b8ff" d="M569.55,-295.31C577.36,-297.77 585.06,-300.86 592,-304.74 622.67,-321.9 650.04,-352.18 666.79,-373.29"/>
<polygon fill="#63b8ff" stroke="#63b8ff" points="664.21,-375.67 673.09,-381.44 669.74,-371.39 664.21,-375.67"/>
</a>
</g>
</g>
<!-- Node19&#45;&gt;Node4 -->
<g id="edge36_Node000019_Node000004" class="edge">
<title>Node19&#45;&gt;Node4</title>
<g id="a_edge36_Node000019_Node000004"><a xlink:title=" ">
<path fill="none" stroke="#63b8ff" d="M573.07,-258.3C579.76,-260.76 586.23,-263.86 592,-267.74 631.15,-294.12 659.15,-343.1 673.36,-372.53"/>
<polygon fill="#63b8ff" stroke="#63b8ff" points="670.24,-374.12 677.65,-381.7 676.58,-371.15 670.24,-374.12"/>
</a>
</g>
</g>
<!-- Node20&#45;&gt;Node4 -->
<g id="edge38_Node000020_Node000004" class="edge">
<title>Node20&#45;&gt;Node4</title>
<g id="a_edge38_Node000020_Node000004"><a xlink:title=" ">
<path fill="none" stroke="#63b8ff" d="M575.13,-221.32C581.16,-223.79 586.92,-226.88 592,-230.74 639.52,-266.84 665.85,-334.96 677.19,-371.71"/>
<polygon fill="#63b8ff" stroke="#63b8ff" points="673.93,-373.02 680.11,-381.62 680.64,-371.04 673.93,-373.02"/>
</a>
</g>
</g>
<!-- Node21&#45;&gt;Node4 -->
<g id="edge40_Node000021_Node000004" class="edge">
<title>Node21&#45;&gt;Node4</title>
<g id="a_edge40_Node000021_Node000004"><a xlink:title=" ">
<path fill="none" stroke="#63b8ff" d="M566.52,-180.63C575.73,-183.51 584.67,-187.69 592,-193.74 648.26,-240.17 671.55,-328.31 679.92,-371.55"/>
<polygon fill="#63b8ff" stroke="#63b8ff" points="676.5,-372.31 681.74,-381.52 683.39,-371.05 676.5,-372.31"/>
</a>
</g>
</g>
<!-- Node22&#45;&gt;Node4 -->
<g id="edge42_Node000022_Node000004" class="edge">
<title>Node22&#45;&gt;Node4</title>
<g id="a_edge42_Node000022_Node000004"><a xlink:title=" ">
<path fill="none" stroke="#63b8ff" d="M577.28,-147.32C582.61,-149.81 587.62,-152.91 592,-156.74 657.2,-213.89 676.43,-322.55 681.91,-371.6"/>
<polygon fill="#63b8ff" stroke="#63b8ff" points="678.44,-372.07 682.93,-381.66 685.4,-371.36 678.44,-372.07"/>
</a>
</g>
</g>
<!-- Node23&#45;&gt;Node4 -->
<g id="edge44_Node000023_Node000004" class="edge">
<title>Node23&#45;&gt;Node4</title>
<g id="a_edge44_Node000023_Node000004"><a xlink:title=" ">
<path fill="none" stroke="#63b8ff" d="M568.28,-106.41C576.99,-109.35 585.31,-113.6 592,-119.74 666.06,-187.69 680.59,-316.62 683.37,-371.25"/>
<polygon fill="#63b8ff" stroke="#63b8ff" points="679.88,-371.6 683.8,-381.44 686.88,-371.31 679.88,-371.6"/>
</a>
</g>
</g>
<!-- Node24&#45;&gt;Node4 -->
<g id="edge46_Node000024_Node000004" class="edge">
<title>Node24&#45;&gt;Node4</title>
<g id="a_edge46_Node000024_Node000004"><a xlink:title=" ">
<path fill="none" stroke="#63b8ff" d="M566.02,-68.42C575.6,-71.38 584.8,-75.9 592,-82.74 675.32,-161.97 684.4,-312.2 684.55,-371.63"/>
<polygon fill="#63b8ff" stroke="#63b8ff" points="681.05,-371.62 684.49,-381.64 688.05,-371.66 681.05,-371.62"/>
</a>
</g>
</g>
<!-- Node25&#45;&gt;Node4 -->
<g id="edge48_Node000025_Node000004" class="edge">
<title>Node25&#45;&gt;Node4</title>
<g id="a_edge48_Node000025_Node000004"><a xlink:title=" ">
<path fill="none" stroke="#63b8ff" d="M568.78,-29.78C577.43,-33.27 585.6,-38.1 592,-44.74 638.05,-92.56 670.51,-299.19 680.64,-371.58"/>
<polygon fill="#63b8ff" stroke="#63b8ff" points="677.19,-372.19 682.03,-381.62 684.13,-371.24 677.19,-372.19"/>
</a>
</g>
</g>
</g>
</svg>
