<?xml version="1.0" encoding="UTF-8" standalone="no"?>
<!DOCTYPE svg PUBLIC "-//W3C//DTD SVG 1.1//EN"
 "http://www.w3.org/Graphics/SVG/1.1/DTD/svg11.dtd">
<!-- Generated by graphviz version 2.43.0 (0)
 -->
<!-- Title: lci::free_endpoint Pages: 1 -->
<svg width="669pt" height="86pt"
 viewBox="0.00 0.00 669.00 86.00" xmlns="http://www.w3.org/2000/svg" xmlns:xlink="http://www.w3.org/1999/xlink">
<g id="graph0" class="graph" transform="scale(1 1) rotate(0) translate(4 82)">
<title>lci::free_endpoint</title>
<!-- Node1 -->
<g id="Node000001" class="node">
<title>Node1</title>
<g id="a_Node000001"><a xlink:title=" ">
<polygon fill="#999999" stroke="#666666" points="101,-48.5 0,-48.5 0,-29.5 101,-29.5 101,-48.5"/>
<text text-anchor="middle" x="50.5" y="-36.5" font-family="Helvetica,sans-Serif" font-size="10.00">lci::free_endpoint</text>
</a>
</g>
</g>
<!-- Node2 -->
<g id="Node000002" class="node">
<title>Node2</title>
<g id="a_Node000002"><a xlink:href="../../db/d53/classlci_1_1free__endpoint__x.html#ab5eec783f80adc027b729ab5821ea960" target="_top" xlink:title=" ">
<polygon fill="white" stroke="#666666" points="238,-54 137,-54 137,-24 238,-24 238,-54"/>
<text text-anchor="start" x="145" y="-42" font-family="Helvetica,sans-Serif" font-size="10.00">lci::free_endpoint</text>
<text text-anchor="middle" x="187.5" y="-31" font-family="Helvetica,sans-Serif" font-size="10.00">_x::call</text>
</a>
</g>
</g>
<!-- Node1&#45;&gt;Node2 -->
<g id="edge1_Node000001_Node000002" class="edge">
<title>Node1&#45;&gt;Node2</title>
<g id="a_edge1_Node000001_Node000002"><a xlink:title=" ">
<path fill="none" stroke="#63b8ff" d="M101,-39C109.24,-39 117.87,-39 126.34,-39"/>
<polygon fill="#63b8ff" stroke="#63b8ff" points="126.55,-42.5 136.55,-39 126.55,-35.5 126.55,-42.5"/>
</a>
</g>
</g>
<!-- Node3 -->
<g id="Node000003" class="node">
<title>Node3</title>
<g id="a_Node000003"><a xlink:href="../../db/d53/classlci_1_1free__endpoint__x.html#aa0d7624e5fbccebfeaa952395d417008" target="_top" xlink:title=" ">
<polygon fill="white" stroke="#666666" points="375,-54 274,-54 274,-24 375,-24 375,-54"/>
<text text-anchor="start" x="282" y="-42" font-family="Helvetica,sans-Serif" font-size="10.00">lci::free_endpoint</text>
<text text-anchor="middle" x="324.5" y="-31" font-family="Helvetica,sans-Serif" font-size="10.00">_x::call_impl</text>
</a>
</g>
</g>
<!-- Node2&#45;&gt;Node3 -->
<g id="edge2_Node000002_Node000003" class="edge">
<title>Node2&#45;&gt;Node3</title>
<g id="a_edge2_Node000002_Node000003"><a xlink:title=" ">
<path fill="none" stroke="#63b8ff" d="M238,-39C246.24,-39 254.87,-39 263.34,-39"/>
<polygon fill="#63b8ff" stroke="#63b8ff" points="263.55,-42.5 273.55,-39 263.55,-35.5 263.55,-42.5"/>
</a>
</g>
</g>
<!-- Node4 -->
<g id="Node000004" class="node">
<title>Node4</title>
<g id="a_Node000004"><a xlink:href="../../db/d53/classlci_1_1free__endpoint__x.html#a6a97c1c61ac7f407c05593feea545549" target="_top" xlink:title=" ">
<polygon fill="white" stroke="#666666" points="512,-78 411,-78 411,-48 512,-48 512,-78"/>
<text text-anchor="start" x="419" y="-66" font-family="Helvetica,sans-Serif" font-size="10.00">lci::free_endpoint</text>
<text text-anchor="middle" x="461.5" y="-55" font-family="Helvetica,sans-Serif" font-size="10.00">_x::endpoint</text>
</a>
</g>
</g>
<!-- Node2&#45;&gt;Node4 -->
<g id="edge7_Node000002_Node000004" class="edge">
<title>Node2&#45;&gt;Node4</title>
<g id="a_edge7_Node000002_Node000004"><a xlink:title=" ">
<path fill="none" stroke="#63b8ff" d="M233.27,-54.05C246.26,-57.74 260.56,-61.15 274,-63 316.07,-68.79 363.99,-68.65 400.72,-67.13"/>
<polygon fill="#63b8ff" stroke="#63b8ff" points="400.94,-70.63 410.77,-66.67 400.62,-63.63 400.94,-70.63"/>
</a>
</g>
</g>
<!-- Node6 -->
<g id="Node000006" class="node">
<title>Node6</title>
<g id="a_Node000006"><a xlink:href="../../db/d53/classlci_1_1free__endpoint__x.html#ae61125161b694cd1ecf972f35f133cf1" target="_top" xlink:title=" ">
<polygon fill="white" stroke="#666666" points="512,-30 411,-30 411,0 512,0 512,-30"/>
<text text-anchor="start" x="419" y="-18" font-family="Helvetica,sans-Serif" font-size="10.00">lci::free_endpoint</text>
<text text-anchor="middle" x="461.5" y="-7" font-family="Helvetica,sans-Serif" font-size="10.00">_x::runtime</text>
</a>
</g>
</g>
<!-- Node2&#45;&gt;Node6 -->
<g id="edge8_Node000002_Node000006" class="edge">
<title>Node2&#45;&gt;Node6</title>
<g id="a_edge8_Node000002_Node000006"><a xlink:title=" ">
<path fill="none" stroke="#63b8ff" d="M233.27,-23.95C246.26,-20.26 260.56,-16.85 274,-15 316.07,-9.21 363.99,-9.35 400.72,-10.87"/>
<polygon fill="#63b8ff" stroke="#63b8ff" points="400.62,-14.37 410.77,-11.33 400.94,-7.37 400.62,-14.37"/>
</a>
</g>
</g>
<!-- Node3&#45;&gt;Node4 -->
<g id="edge3_Node000003_Node000004" class="edge">
<title>Node3&#45;&gt;Node4</title>
<g id="a_edge3_Node000003_Node000004"><a xlink:title=" ">
<path fill="none" stroke="#63b8ff" d="M375,-47.8C383.33,-49.28 392.06,-50.83 400.61,-52.35"/>
<polygon fill="#63b8ff" stroke="#63b8ff" points="400.09,-55.82 410.55,-54.12 401.32,-48.92 400.09,-55.82"/>
</a>
</g>
</g>
<!-- Node3&#45;&gt;Node6 -->
<g id="edge5_Node000003_Node000006" class="edge">
<title>Node3&#45;&gt;Node6</title>
<g id="a_edge5_Node000003_Node000006"><a xlink:title=" ">
<path fill="none" stroke="#63b8ff" d="M375,-30.2C383.33,-28.72 392.06,-27.17 400.61,-25.65"/>
<polygon fill="#63b8ff" stroke="#63b8ff" points="401.32,-29.08 410.55,-23.88 400.09,-22.18 401.32,-29.08"/>
</a>
</g>
</g>
<!-- Node5 -->
<g id="Node000005" class="node">
<title>Node5</title>
<g id="a_Node000005"><a xlink:href="../../db/d53/classlci_1_1free__endpoint__x.html#a81aa49f26f9c391f207ec349ba200332" target="_top" xlink:title=" ">
<polygon fill="white" stroke="#666666" points="661,-54 548,-54 548,-24 661,-24 661,-54"/>
<text text-anchor="start" x="556" y="-42" font-family="Helvetica,sans-Serif" font-size="10.00">lci::free_endpoint</text>
<text text-anchor="middle" x="604.5" y="-31" font-family="Helvetica,sans-Serif" font-size="10.00">_x::free_endpoint_x</text>
</a>
</g>
</g>
<!-- Node4&#45;&gt;Node5 -->
<g id="edge4_Node000004_Node000005" class="edge">
<title>Node4&#45;&gt;Node5</title>
<g id="a_edge4_Node000004_Node000005"><a xlink:title=" ">
<path fill="none" stroke="#63b8ff" d="M512.21,-54.54C520.53,-53.12 529.28,-51.63 537.92,-50.16"/>
<polygon fill="#63b8ff" stroke="#63b8ff" points="538.72,-53.58 547.99,-48.45 537.55,-46.68 538.72,-53.58"/>
</a>
</g>
</g>
<!-- Node6&#45;&gt;Node5 -->
<g id="edge6_Node000006_Node000005" class="edge">
<title>Node6&#45;&gt;Node5</title>
<g id="a_edge6_Node000006_Node000005"><a xlink:title=" ">
<path fill="none" stroke="#63b8ff" d="M512.21,-23.46C520.53,-24.88 529.28,-26.37 537.92,-27.84"/>
<polygon fill="#63b8ff" stroke="#63b8ff" points="537.55,-31.32 547.99,-29.55 538.72,-24.42 537.55,-31.32"/>
</a>
</g>
</g>
</g>
</svg>
