<?xml version="1.0" encoding="UTF-8" standalone="no"?>
<!DOCTYPE svg PUBLIC "-//W3C//DTD SVG 1.1//EN"
 "http://www.w3.org/Graphics/SVG/1.1/DTD/svg11.dtd">
<!-- Generated by graphviz version 2.43.0 (0)
 -->
<!-- Title: lci::net_post_send Pages: 1 -->
<svg width="684pt" height="422pt"
 viewBox="0.00 0.00 684.00 422.00" xmlns="http://www.w3.org/2000/svg" xmlns:xlink="http://www.w3.org/1999/xlink">
<g id="graph0" class="graph" transform="scale(1 1) rotate(0) translate(4 418)">
<title>lci::net_post_send</title>
<!-- Node1 -->
<g id="Node000001" class="node">
<title>Node1</title>
<g id="a_Node000001"><a xlink:title=" ">
<polygon fill="#999999" stroke="#666666" points="104,-213.5 0,-213.5 0,-194.5 104,-194.5 104,-213.5"/>
<text text-anchor="middle" x="52" y="-201.5" font-family="Helvetica,sans-Serif" font-size="10.00">lci::net_post_send</text>
</a>
</g>
</g>
<!-- Node2 -->
<g id="Node000002" class="node">
<title>Node2</title>
<g id="a_Node000002"><a xlink:href="../../d8/ddd/classlci_1_1net__post__send__x.html#a97d776c93f7286bfe1f46022b1f6d108" target="_top" xlink:title=" ">
<polygon fill="white" stroke="#666666" points="244,-219 140,-219 140,-189 244,-189 244,-219"/>
<text text-anchor="start" x="148" y="-207" font-family="Helvetica,sans-Serif" font-size="10.00">lci::net_post_send</text>
<text text-anchor="middle" x="192" y="-196" font-family="Helvetica,sans-Serif" font-size="10.00">_x::call</text>
</a>
</g>
</g>
<!-- Node1&#45;&gt;Node2 -->
<g id="edge1_Node000001_Node000002" class="edge">
<title>Node1&#45;&gt;Node2</title>
<g id="a_edge1_Node000001_Node000002"><a xlink:title=" ">
<path fill="none" stroke="#63b8ff" d="M104.39,-204C112.56,-204 121.08,-204 129.46,-204"/>
<polygon fill="#63b8ff" stroke="#63b8ff" points="129.57,-207.5 139.57,-204 129.57,-200.5 129.57,-207.5"/>
</a>
</g>
</g>
<!-- Node3 -->
<g id="Node000003" class="node">
<title>Node3</title>
<g id="a_Node000003"><a xlink:href="../../d8/ddd/classlci_1_1net__post__send__x.html#a6283f6069ed0588800193e12f309fdca" target="_top" xlink:title=" ">
<polygon fill="white" stroke="#666666" points="524,-414 420,-414 420,-384 524,-384 524,-414"/>
<text text-anchor="start" x="428" y="-402" font-family="Helvetica,sans-Serif" font-size="10.00">lci::net_post_send</text>
<text text-anchor="middle" x="472" y="-391" font-family="Helvetica,sans-Serif" font-size="10.00">_x::buffer</text>
</a>
</g>
</g>
<!-- Node2&#45;&gt;Node3 -->
<g id="edge2_Node000002_Node000003" class="edge">
<title>Node2&#45;&gt;Node3</title>
<g id="a_edge2_Node000002_Node000003"><a xlink:title=" ">
<path fill="none" stroke="#63b8ff" d="M199.82,-219.35C212.17,-245.46 240.64,-298.64 280,-329 318.15,-358.43 369.89,-376.37 409.9,-386.71"/>
<polygon fill="#63b8ff" stroke="#63b8ff" points="409.25,-390.16 419.8,-389.18 410.94,-383.37 409.25,-390.16"/>
</a>
</g>
</g>
<!-- Node5 -->
<g id="Node000005" class="node">
<title>Node5</title>
<g id="a_Node000005"><a xlink:href="../../d8/ddd/classlci_1_1net__post__send__x.html#acbc868fe9581599397eb6f24bd916022" target="_top" xlink:title=" ">
<polygon fill="white" stroke="#666666" points="384,-241 280,-241 280,-211 384,-211 384,-241"/>
<text text-anchor="start" x="288" y="-229" font-family="Helvetica,sans-Serif" font-size="10.00">lci::net_post_send</text>
<text text-anchor="middle" x="332" y="-218" font-family="Helvetica,sans-Serif" font-size="10.00">_x::call_impl</text>
</a>
</g>
</g>
<!-- Node2&#45;&gt;Node5 -->
<g id="edge4_Node000002_Node000005" class="edge">
<title>Node2&#45;&gt;Node5</title>
<g id="a_edge4_Node000002_Node000005"><a xlink:title=" ">
<path fill="none" stroke="#63b8ff" d="M244.39,-212.19C252.56,-213.49 261.08,-214.85 269.46,-216.19"/>
<polygon fill="#63b8ff" stroke="#63b8ff" points="269.14,-219.68 279.57,-217.8 270.25,-212.77 269.14,-219.68"/>
</a>
</g>
</g>
<!-- Node6 -->
<g id="Node000006" class="node">
<title>Node6</title>
<g id="a_Node000006"><a xlink:href="../../d8/ddd/classlci_1_1net__post__send__x.html#abce3b7b47b735af18ec0f1d2f13f1c8e" target="_top" xlink:title=" ">
<polygon fill="white" stroke="#666666" points="524,-366 420,-366 420,-336 524,-336 524,-366"/>
<text text-anchor="start" x="428" y="-354" font-family="Helvetica,sans-Serif" font-size="10.00">lci::net_post_send</text>
<text text-anchor="middle" x="472" y="-343" font-family="Helvetica,sans-Serif" font-size="10.00">_x::device</text>
</a>
</g>
</g>
<!-- Node2&#45;&gt;Node6 -->
<g id="edge22_Node000002_Node000006" class="edge">
<title>Node2&#45;&gt;Node6</title>
<g id="a_edge22_Node000002_Node000006"><a xlink:title=" ">
<path fill="none" stroke="#63b8ff" d="M203.25,-219.1C217.9,-239.53 246.76,-275.77 280,-296 319.72,-320.18 370.56,-334.15 409.79,-341.95"/>
<polygon fill="#63b8ff" stroke="#63b8ff" points="409.28,-345.41 419.76,-343.85 410.59,-338.54 409.28,-345.41"/>
</a>
</g>
</g>
<!-- Node7 -->
<g id="Node000007" class="node">
<title>Node7</title>
<g id="a_Node000007"><a xlink:href="../../d8/ddd/classlci_1_1net__post__send__x.html#ac77f3e2e661538803decf449bb17ff0d" target="_top" xlink:title=" ">
<polygon fill="white" stroke="#666666" points="524,-318 420,-318 420,-288 524,-288 524,-318"/>
<text text-anchor="start" x="428" y="-306" font-family="Helvetica,sans-Serif" font-size="10.00">lci::net_post_send</text>
<text text-anchor="middle" x="472" y="-295" font-family="Helvetica,sans-Serif" font-size="10.00">_x::endpoint</text>
</a>
</g>
</g>
<!-- Node2&#45;&gt;Node7 -->
<g id="edge23_Node000002_Node000007" class="edge">
<title>Node2&#45;&gt;Node7</title>
<g id="a_edge23_Node000002_Node000007"><a xlink:title=" ">
<path fill="none" stroke="#63b8ff" d="M208.54,-219.22C224.92,-234.33 252.15,-256.93 280,-269 321.14,-286.83 371.13,-295.31 409.65,-299.34"/>
<polygon fill="#63b8ff" stroke="#63b8ff" points="409.39,-302.83 419.69,-300.32 410.07,-295.87 409.39,-302.83"/>
</a>
</g>
</g>
<!-- Node8 -->
<g id="Node000008" class="node">
<title>Node8</title>
<g id="a_Node000008"><a xlink:href="../../d8/ddd/classlci_1_1net__post__send__x.html#a15e8070dc9363ae4469d8b7b8f68e10b" target="_top" xlink:title=" ">
<polygon fill="white" stroke="#666666" points="524,-270 420,-270 420,-240 524,-240 524,-270"/>
<text text-anchor="start" x="428" y="-258" font-family="Helvetica,sans-Serif" font-size="10.00">lci::net_post_send</text>
<text text-anchor="middle" x="472" y="-247" font-family="Helvetica,sans-Serif" font-size="10.00">_x::imm_data</text>
</a>
</g>
</g>
<!-- Node2&#45;&gt;Node8 -->
<g id="edge24_Node000002_Node000008" class="edge">
<title>Node2&#45;&gt;Node8</title>
<g id="a_edge24_Node000002_Node000008"><a xlink:title=" ">
<path fill="none" stroke="#63b8ff" d="M214.72,-219.13C231.65,-229.99 256.2,-243.76 280,-250 322.24,-261.07 371.53,-262.08 409.46,-260.44"/>
<polygon fill="#63b8ff" stroke="#63b8ff" points="410.03,-263.92 419.85,-259.92 409.68,-256.93 410.03,-263.92"/>
</a>
</g>
</g>
<!-- Node9 -->
<g id="Node000009" class="node">
<title>Node9</title>
<g id="a_Node000009"><a xlink:href="../../d8/ddd/classlci_1_1net__post__send__x.html#ab8e0258941b103c81dcab9c247404a3f" target="_top" xlink:title=" ">
<polygon fill="white" stroke="#666666" points="524,-222 420,-222 420,-192 524,-192 524,-222"/>
<text text-anchor="start" x="428" y="-210" font-family="Helvetica,sans-Serif" font-size="10.00">lci::net_post_send</text>
<text text-anchor="middle" x="472" y="-199" font-family="Helvetica,sans-Serif" font-size="10.00">_x::mr</text>
</a>
</g>
</g>
<!-- Node2&#45;&gt;Node9 -->
<g id="edge25_Node000002_Node000009" class="edge">
<title>Node2&#45;&gt;Node9</title>
<g id="a_edge25_Node000002_Node000009"><a xlink:title=" ">
<path fill="none" stroke="#63b8ff" d="M244.08,-202.38C282.56,-201.42 336.6,-200.64 384,-202 392.37,-202.24 401.19,-202.61 409.87,-203.04"/>
<polygon fill="#63b8ff" stroke="#63b8ff" points="409.79,-206.54 419.96,-203.58 410.16,-199.55 409.79,-206.54"/>
</a>
</g>
</g>
<!-- Node10 -->
<g id="Node000010" class="node">
<title>Node10</title>
<g id="a_Node000010"><a xlink:href="../../d8/ddd/classlci_1_1net__post__send__x.html#aec89b8c935f893989b7f24dd2aea3e4f" target="_top" xlink:title=" ">
<polygon fill="white" stroke="#666666" points="524,-174 420,-174 420,-144 524,-144 524,-174"/>
<text text-anchor="start" x="428" y="-162" font-family="Helvetica,sans-Serif" font-size="10.00">lci::net_post_send</text>
<text text-anchor="middle" x="472" y="-151" font-family="Helvetica,sans-Serif" font-size="10.00">_x::rank</text>
</a>
</g>
</g>
<!-- Node2&#45;&gt;Node10 -->
<g id="edge26_Node000002_Node000010" class="edge">
<title>Node2&#45;&gt;Node10</title>
<g id="a_edge26_Node000002_Node000010"><a xlink:title=" ">
<path fill="none" stroke="#63b8ff" d="M244.31,-195.69C291.13,-188.11 360.39,-176.9 410.02,-168.87"/>
<polygon fill="#63b8ff" stroke="#63b8ff" points="410.67,-172.31 419.99,-167.26 409.56,-165.4 410.67,-172.31"/>
</a>
</g>
</g>
<!-- Node11 -->
<g id="Node000011" class="node">
<title>Node11</title>
<g id="a_Node000011"><a xlink:href="../../d8/ddd/classlci_1_1net__post__send__x.html#a1c39b0d356cb57df0d4e3950db73e09a" target="_top" xlink:title=" ">
<polygon fill="white" stroke="#666666" points="524,-126 420,-126 420,-96 524,-96 524,-126"/>
<text text-anchor="start" x="428" y="-114" font-family="Helvetica,sans-Serif" font-size="10.00">lci::net_post_send</text>
<text text-anchor="middle" x="472" y="-103" font-family="Helvetica,sans-Serif" font-size="10.00">_x::runtime</text>
</a>
</g>
</g>
<!-- Node2&#45;&gt;Node11 -->
<g id="edge27_Node000002_Node000011" class="edge">
<title>Node2&#45;&gt;Node11</title>
<g id="a_edge27_Node000002_Node000011"><a xlink:title=" ">
<path fill="none" stroke="#63b8ff" d="M228.29,-188.99C244,-182.51 262.8,-175.06 280,-169 323.06,-153.83 372.38,-138.92 410.11,-128.01"/>
<polygon fill="#63b8ff" stroke="#63b8ff" points="411.29,-131.31 419.94,-125.19 409.36,-124.59 411.29,-131.31"/>
</a>
</g>
</g>
<!-- Node12 -->
<g id="Node000012" class="node">
<title>Node12</title>
<g id="a_Node000012"><a xlink:href="../../d8/ddd/classlci_1_1net__post__send__x.html#a945c3e9aeed4f91eb2ef1a6c128678b3" target="_top" xlink:title=" ">
<polygon fill="white" stroke="#666666" points="524,-78 420,-78 420,-48 524,-48 524,-78"/>
<text text-anchor="start" x="428" y="-66" font-family="Helvetica,sans-Serif" font-size="10.00">lci::net_post_send</text>
<text text-anchor="middle" x="472" y="-55" font-family="Helvetica,sans-Serif" font-size="10.00">_x::size</text>
</a>
</g>
</g>
<!-- Node2&#45;&gt;Node12 -->
<g id="edge28_Node000002_Node000012" class="edge">
<title>Node2&#45;&gt;Node12</title>
<g id="a_edge28_Node000002_Node000012"><a xlink:title=" ">
<path fill="none" stroke="#63b8ff" d="M207.76,-188.72C224.13,-172.51 251.94,-147.07 280,-131 320.8,-107.64 371.02,-90.14 409.72,-78.75"/>
<polygon fill="#63b8ff" stroke="#63b8ff" points="411.16,-81.98 419.8,-75.85 409.23,-75.25 411.16,-81.98"/>
</a>
</g>
</g>
<!-- Node13 -->
<g id="Node000013" class="node">
<title>Node13</title>
<g id="a_Node000013"><a xlink:href="../../d8/ddd/classlci_1_1net__post__send__x.html#aeda95c7c76d38e42b89312536df0ce21" target="_top" xlink:title=" ">
<polygon fill="white" stroke="#666666" points="524,-30 420,-30 420,0 524,0 524,-30"/>
<text text-anchor="start" x="428" y="-18" font-family="Helvetica,sans-Serif" font-size="10.00">lci::net_post_send</text>
<text text-anchor="middle" x="472" y="-7" font-family="Helvetica,sans-Serif" font-size="10.00">_x::user_context</text>
</a>
</g>
</g>
<!-- Node2&#45;&gt;Node13 -->
<g id="edge29_Node000002_Node000013" class="edge">
<title>Node2&#45;&gt;Node13</title>
<g id="a_edge29_Node000002_Node000013"><a xlink:title=" ">
<path fill="none" stroke="#63b8ff" d="M200.13,-188.7C212.73,-163.24 241.33,-112.08 280,-83 318.38,-54.14 370.11,-36.73 410.05,-26.76"/>
<polygon fill="#63b8ff" stroke="#63b8ff" points="411.03,-30.12 419.93,-24.38 409.39,-23.31 411.03,-30.12"/>
</a>
</g>
</g>
<!-- Node4 -->
<g id="Node000004" class="node">
<title>Node4</title>
<g id="a_Node000004"><a xlink:href="../../d8/ddd/classlci_1_1net__post__send__x.html#ac79b59fb402331c8022eb5a4815a4fe7" target="_top" xlink:title=" ">
<polygon fill="white" stroke="#666666" points="676,-222 560,-222 560,-192 676,-192 676,-222"/>
<text text-anchor="start" x="568" y="-210" font-family="Helvetica,sans-Serif" font-size="10.00">lci::net_post_send</text>
<text text-anchor="middle" x="618" y="-199" font-family="Helvetica,sans-Serif" font-size="10.00">_x::net_post_send_x</text>
</a>
</g>
</g>
<!-- Node3&#45;&gt;Node4 -->
<g id="edge3_Node000003_Node000004" class="edge">
<title>Node3&#45;&gt;Node4</title>
<g id="a_edge3_Node000003_Node000004"><a xlink:title=" ">
<path fill="none" stroke="#63b8ff" d="M511.99,-383.89C516.31,-381.3 520.43,-378.34 524,-375 567.85,-333.94 596.05,-267.44 608.9,-231.66"/>
<polygon fill="#63b8ff" stroke="#63b8ff" points="612.28,-232.61 612.26,-222.02 605.67,-230.31 612.28,-232.61"/>
</a>
</g>
</g>
<!-- Node5&#45;&gt;Node3 -->
<g id="edge5_Node000005_Node000003" class="edge">
<title>Node5&#45;&gt;Node3</title>
<g id="a_edge5_Node000005_Node000003"><a xlink:title=" ">
<path fill="none" stroke="#63b8ff" d="M338.29,-241.08C349.27,-270.43 377.13,-335.77 420,-375 421.27,-376.16 422.6,-377.27 423.98,-378.34"/>
<polygon fill="#63b8ff" stroke="#63b8ff" points="422.1,-381.29 432.35,-383.96 426,-375.48 422.1,-381.29"/>
</a>
</g>
</g>
<!-- Node5&#45;&gt;Node6 -->
<g id="edge6_Node000005_Node000006" class="edge">
<title>Node5&#45;&gt;Node6</title>
<g id="a_edge6_Node000005_Node000006"><a xlink:title=" ">
<path fill="none" stroke="#63b8ff" d="M342.93,-241.11C357.62,-262.54 387.02,-301.94 420,-327 421.61,-328.22 423.29,-329.4 425.02,-330.54"/>
<polygon fill="#63b8ff" stroke="#63b8ff" points="423.59,-333.76 433.98,-335.87 427.17,-327.75 423.59,-333.76"/>
</a>
</g>
</g>
<!-- Node5&#45;&gt;Node7 -->
<g id="edge8_Node000005_Node000007" class="edge">
<title>Node5&#45;&gt;Node7</title>
<g id="a_edge8_Node000005_Node000007"><a xlink:title=" ">
<path fill="none" stroke="#63b8ff" d="M356.23,-241.09C373.53,-252.1 397.88,-267.1 420,-279 422.71,-280.46 425.53,-281.92 428.39,-283.37"/>
<polygon fill="#63b8ff" stroke="#63b8ff" points="427.03,-286.6 437.55,-287.89 430.13,-280.32 427.03,-286.6"/>
</a>
</g>
</g>
<!-- Node5&#45;&gt;Node8 -->
<g id="edge10_Node000005_Node000008" class="edge">
<title>Node5&#45;&gt;Node8</title>
<g id="a_edge10_Node000005_Node000008"><a xlink:title=" ">
<path fill="none" stroke="#63b8ff" d="M384.39,-236.8C392.65,-238.53 401.27,-240.35 409.74,-242.13"/>
<polygon fill="#63b8ff" stroke="#63b8ff" points="409.06,-245.56 419.57,-244.19 410.5,-238.71 409.06,-245.56"/>
</a>
</g>
</g>
<!-- Node5&#45;&gt;Node9 -->
<g id="edge12_Node000005_Node000009" class="edge">
<title>Node5&#45;&gt;Node9</title>
<g id="a_edge12_Node000005_Node000009"><a xlink:title=" ">
<path fill="none" stroke="#63b8ff" d="M384.39,-218.93C392.56,-217.8 401.08,-216.63 409.46,-215.47"/>
<polygon fill="#63b8ff" stroke="#63b8ff" points="410.14,-218.91 419.57,-214.08 409.19,-211.98 410.14,-218.91"/>
</a>
</g>
</g>
<!-- Node5&#45;&gt;Node10 -->
<g id="edge14_Node000005_Node000010" class="edge">
<title>Node5&#45;&gt;Node10</title>
<g id="a_edge14_Node000005_Node000010"><a xlink:title=" ">
<path fill="none" stroke="#63b8ff" d="M363.13,-210.93C379.84,-202.62 401.03,-192.15 420,-183 423.14,-181.49 426.38,-179.93 429.66,-178.37"/>
<polygon fill="#63b8ff" stroke="#63b8ff" points="431.32,-181.46 438.85,-174.01 428.32,-175.14 431.32,-181.46"/>
</a>
</g>
</g>
<!-- Node5&#45;&gt;Node11 -->
<g id="edge16_Node000005_Node000011" class="edge">
<title>Node5&#45;&gt;Node11</title>
<g id="a_edge16_Node000005_Node000011"><a xlink:title=" ">
<path fill="none" stroke="#63b8ff" d="M344.56,-210.81C360.03,-191.27 389.13,-157.22 420,-135 421.84,-133.68 423.76,-132.4 425.74,-131.16"/>
<polygon fill="#63b8ff" stroke="#63b8ff" points="427.72,-134.06 434.67,-126.05 424.25,-127.98 427.72,-134.06"/>
</a>
</g>
</g>
<!-- Node5&#45;&gt;Node12 -->
<g id="edge18_Node000005_Node000012" class="edge">
<title>Node5&#45;&gt;Node12</title>
<g id="a_edge18_Node000005_Node000012"><a xlink:title=" ">
<path fill="none" stroke="#63b8ff" d="M339.11,-210.65C350.92,-182.7 379.32,-123.09 420,-87 421.28,-85.86 422.63,-84.77 424.03,-83.71"/>
<polygon fill="#63b8ff" stroke="#63b8ff" points="426.03,-86.58 432.45,-78.15 422.17,-80.74 426.03,-86.58"/>
</a>
</g>
</g>
<!-- Node5&#45;&gt;Node13 -->
<g id="edge20_Node000005_Node000013" class="edge">
<title>Node5&#45;&gt;Node13</title>
<g id="a_edge20_Node000005_Node000013"><a xlink:title=" ">
<path fill="none" stroke="#63b8ff" d="M336.29,-210.88C344.55,-176.2 369.22,-90 420,-39 421.06,-37.94 422.17,-36.92 423.33,-35.94"/>
<polygon fill="#63b8ff" stroke="#63b8ff" points="425.46,-38.72 431.53,-30.03 421.37,-33.04 425.46,-38.72"/>
</a>
</g>
</g>
<!-- Node6&#45;&gt;Node4 -->
<g id="edge7_Node000006_Node000004" class="edge">
<title>Node6&#45;&gt;Node4</title>
<g id="a_edge7_Node000006_Node000004"><a xlink:title=" ">
<path fill="none" stroke="#63b8ff" d="M510.45,-335.93C515.22,-333.28 519.88,-330.3 524,-327 558.22,-299.57 587.24,-257.11 603.37,-230.74"/>
<polygon fill="#63b8ff" stroke="#63b8ff" points="606.39,-232.51 608.52,-222.13 600.38,-228.91 606.39,-232.51"/>
</a>
</g>
</g>
<!-- Node7&#45;&gt;Node4 -->
<g id="edge9_Node000007_Node000004" class="edge">
<title>Node7&#45;&gt;Node4</title>
<g id="a_edge9_Node000007_Node000004"><a xlink:title=" ">
<path fill="none" stroke="#63b8ff" d="M507.56,-288C513.17,-285.21 518.83,-282.17 524,-279 548.47,-264.02 574.09,-243.8 592.23,-228.6"/>
<polygon fill="#63b8ff" stroke="#63b8ff" points="594.64,-231.14 600,-222.01 590.11,-225.8 594.64,-231.14"/>
</a>
</g>
</g>
<!-- Node8&#45;&gt;Node4 -->
<g id="edge11_Node000008_Node000004" class="edge">
<title>Node8&#45;&gt;Node4</title>
<g id="a_edge11_Node000008_Node000004"><a xlink:title=" ">
<path fill="none" stroke="#63b8ff" d="M518.17,-239.94C532.11,-235.3 547.61,-230.13 562.13,-225.29"/>
<polygon fill="#63b8ff" stroke="#63b8ff" points="563.61,-228.49 571.99,-222 561.4,-221.84 563.61,-228.49"/>
</a>
</g>
</g>
<!-- Node9&#45;&gt;Node4 -->
<g id="edge13_Node000009_Node000004" class="edge">
<title>Node9&#45;&gt;Node4</title>
<g id="a_edge13_Node000009_Node000004"><a xlink:title=" ">
<path fill="none" stroke="#63b8ff" d="M524.17,-207C532.34,-207 540.89,-207 549.36,-207"/>
<polygon fill="#63b8ff" stroke="#63b8ff" points="549.62,-210.5 559.62,-207 549.62,-203.5 549.62,-210.5"/>
</a>
</g>
</g>
<!-- Node10&#45;&gt;Node4 -->
<g id="edge15_Node000010_Node000004" class="edge">
<title>Node10&#45;&gt;Node4</title>
<g id="a_edge15_Node000010_Node000004"><a xlink:title=" ">
<path fill="none" stroke="#63b8ff" d="M518.17,-174.06C532.11,-178.7 547.61,-183.87 562.13,-188.71"/>
<polygon fill="#63b8ff" stroke="#63b8ff" points="561.4,-192.16 571.99,-192 563.61,-185.51 561.4,-192.16"/>
</a>
</g>
</g>
<!-- Node11&#45;&gt;Node4 -->
<g id="edge17_Node000011_Node000004" class="edge">
<title>Node11&#45;&gt;Node4</title>
<g id="a_edge17_Node000011_Node000004"><a xlink:title=" ">
<path fill="none" stroke="#63b8ff" d="M507.56,-126C513.17,-128.79 518.83,-131.83 524,-135 548.47,-149.98 574.09,-170.2 592.23,-185.4"/>
<polygon fill="#63b8ff" stroke="#63b8ff" points="590.11,-188.2 600,-191.99 594.64,-182.86 590.11,-188.2"/>
</a>
</g>
</g>
<!-- Node12&#45;&gt;Node4 -->
<g id="edge19_Node000012_Node000004" class="edge">
<title>Node12&#45;&gt;Node4</title>
<g id="a_edge19_Node000012_Node000004"><a xlink:title=" ">
<path fill="none" stroke="#63b8ff" d="M510.45,-78.07C515.22,-80.72 519.88,-83.7 524,-87 558.22,-114.43 587.24,-156.89 603.37,-183.26"/>
<polygon fill="#63b8ff" stroke="#63b8ff" points="600.38,-185.09 608.52,-191.87 606.39,-181.49 600.38,-185.09"/>
</a>
</g>
</g>
<!-- Node13&#45;&gt;Node4 -->
<g id="edge21_Node000013_Node000004" class="edge">
<title>Node13&#45;&gt;Node4</title>
<g id="a_edge21_Node000013_Node000004"><a xlink:title=" ">
<path fill="none" stroke="#63b8ff" d="M511.99,-30.11C516.31,-32.7 520.43,-35.66 524,-39 567.85,-80.06 596.05,-146.56 608.9,-182.34"/>
<polygon fill="#63b8ff" stroke="#63b8ff" points="605.67,-183.69 612.26,-191.98 612.28,-181.39 605.67,-183.69"/>
</a>
</g>
</g>
</g>
</svg>
