<?xml version="1.0" encoding="UTF-8" standalone="no"?>
<!DOCTYPE svg PUBLIC "-//W3C//DTD SVG 1.1//EN"
 "http://www.w3.org/Graphics/SVG/1.1/DTD/svg11.dtd">
<!-- Generated by graphviz version 2.43.0 (0)
 -->
<!-- Title: lci::alloc_net_context Pages: 1 -->
<svg width="783pt" height="482pt"
 viewBox="0.00 0.00 783.00 482.00" xmlns="http://www.w3.org/2000/svg" xmlns:xlink="http://www.w3.org/1999/xlink">
<g id="graph0" class="graph" transform="scale(1 1) rotate(0) translate(4 478)">
<title>lci::alloc_net_context</title>
<!-- Node1 -->
<g id="Node000001" class="node">
<title>Node1</title>
<g id="a_Node000001"><a xlink:title=" ">
<polygon fill="#999999" stroke="#666666" points="120,-240.5 0,-240.5 0,-221.5 120,-221.5 120,-240.5"/>
<text text-anchor="middle" x="60" y="-228.5" font-family="Helvetica,sans-Serif" font-size="10.00">lci::alloc_net_context</text>
</a>
</g>
</g>
<!-- Node2 -->
<g id="Node000002" class="node">
<title>Node2</title>
<g id="a_Node000002"><a xlink:href="../../d9/d2c/classlci_1_1alloc__net__context__x.html#ad70070ae0aaa12a3a7ab0be8f9f84dbc" target="_top" xlink:title=" ">
<polygon fill="white" stroke="#666666" points="276,-246 156,-246 156,-216 276,-216 276,-246"/>
<text text-anchor="start" x="164" y="-234" font-family="Helvetica,sans-Serif" font-size="10.00">lci::alloc_net_context</text>
<text text-anchor="middle" x="216" y="-223" font-family="Helvetica,sans-Serif" font-size="10.00">_x::call</text>
</a>
</g>
</g>
<!-- Node1&#45;&gt;Node2 -->
<g id="edge1_Node000001_Node000002" class="edge">
<title>Node1&#45;&gt;Node2</title>
<g id="a_edge1_Node000001_Node000002"><a xlink:title=" ">
<path fill="none" stroke="#63b8ff" d="M120.1,-231C128.42,-231 137.04,-231 145.53,-231"/>
<polygon fill="#63b8ff" stroke="#63b8ff" points="145.8,-234.5 155.8,-231 145.8,-227.5 145.8,-234.5"/>
</a>
</g>
</g>
<!-- Node3 -->
<g id="Node000003" class="node">
<title>Node3</title>
<g id="a_Node000003"><a xlink:href="../../d9/d2c/classlci_1_1alloc__net__context__x.html#a924ac87bf6d7c2eb6b52768734dee344" target="_top" xlink:title=" ">
<polygon fill="white" stroke="#666666" points="598,-474 478,-474 478,-444 598,-444 598,-474"/>
<text text-anchor="start" x="486" y="-462" font-family="Helvetica,sans-Serif" font-size="10.00">lci::alloc_net_context</text>
<text text-anchor="middle" x="538" y="-451" font-family="Helvetica,sans-Serif" font-size="10.00">_x::backend</text>
</a>
</g>
</g>
<!-- Node2&#45;&gt;Node3 -->
<g id="edge2_Node000002_Node000003" class="edge">
<title>Node2&#45;&gt;Node3</title>
<g id="a_edge2_Node000002_Node000003"><a xlink:title=" ">
<path fill="none" stroke="#63b8ff" d="M224.03,-246.11C237.5,-273.6 269.44,-332.15 312,-367 357.67,-404.39 420.6,-428.39 468.29,-442.46"/>
<polygon fill="#63b8ff" stroke="#63b8ff" points="467.35,-445.83 477.92,-445.23 469.28,-439.11 467.35,-445.83"/>
</a>
</g>
</g>
<!-- Node5 -->
<g id="Node000005" class="node">
<title>Node5</title>
<g id="a_Node000005"><a xlink:href="../../d9/d2c/classlci_1_1alloc__net__context__x.html#a037ffe1c580c67e693fddc84bf9e4de7" target="_top" xlink:title=" ">
<polygon fill="white" stroke="#666666" points="432,-246 312,-246 312,-216 432,-216 432,-246"/>
<text text-anchor="start" x="320" y="-234" font-family="Helvetica,sans-Serif" font-size="10.00">lci::alloc_net_context</text>
<text text-anchor="middle" x="372" y="-223" font-family="Helvetica,sans-Serif" font-size="10.00">_x::call_impl</text>
</a>
</g>
</g>
<!-- Node2&#45;&gt;Node5 -->
<g id="edge4_Node000002_Node000005" class="edge">
<title>Node2&#45;&gt;Node5</title>
<g id="a_edge4_Node000002_Node000005"><a xlink:title=" ">
<path fill="none" stroke="#63b8ff" d="M276.1,-231C284.42,-231 293.04,-231 301.53,-231"/>
<polygon fill="#63b8ff" stroke="#63b8ff" points="301.8,-234.5 311.8,-231 301.8,-227.5 301.8,-234.5"/>
</a>
</g>
</g>
<!-- Node6 -->
<g id="Node000006" class="node">
<title>Node6</title>
<g id="a_Node000006"><a xlink:href="../../d9/d2c/classlci_1_1alloc__net__context__x.html#a9fe41e79d8eb835bbe41fc713b0971cf" target="_top" xlink:title=" ">
<polygon fill="white" stroke="#666666" points="601,-425.5 475,-425.5 475,-384.5 601,-384.5 601,-425.5"/>
<text text-anchor="start" x="483" y="-413.5" font-family="Helvetica,sans-Serif" font-size="10.00">lci::alloc_net_context</text>
<text text-anchor="start" x="483" y="-402.5" font-family="Helvetica,sans-Serif" font-size="10.00">_x::ibv_force_gid_auto</text>
<text text-anchor="middle" x="538" y="-391.5" font-family="Helvetica,sans-Serif" font-size="10.00">_select</text>
</a>
</g>
</g>
<!-- Node2&#45;&gt;Node6 -->
<g id="edge24_Node000002_Node000006" class="edge">
<title>Node2&#45;&gt;Node6</title>
<g id="a_edge24_Node000002_Node000006"><a xlink:title=" ">
<path fill="none" stroke="#63b8ff" d="M228.2,-246.29C244.45,-267.46 276.51,-305.61 312,-328 359.01,-357.65 418.8,-377.41 464.93,-389.48"/>
<polygon fill="#63b8ff" stroke="#63b8ff" points="464.29,-392.93 474.85,-392.02 466.03,-386.15 464.29,-392.93"/>
</a>
</g>
</g>
<!-- Node7 -->
<g id="Node000007" class="node">
<title>Node7</title>
<g id="a_Node000007"><a xlink:href="../../d9/d2c/classlci_1_1alloc__net__context__x.html#a41c846e3f23a79c2ed6832493cfbdf32" target="_top" xlink:title=" ">
<polygon fill="white" stroke="#666666" points="598,-366 478,-366 478,-336 598,-336 598,-366"/>
<text text-anchor="start" x="486" y="-354" font-family="Helvetica,sans-Serif" font-size="10.00">lci::alloc_net_context</text>
<text text-anchor="middle" x="538" y="-343" font-family="Helvetica,sans-Serif" font-size="10.00">_x::ibv_gid_idx</text>
</a>
</g>
</g>
<!-- Node2&#45;&gt;Node7 -->
<g id="edge25_Node000002_Node000007" class="edge">
<title>Node2&#45;&gt;Node7</title>
<g id="a_edge25_Node000002_Node000007"><a xlink:title=" ">
<path fill="none" stroke="#63b8ff" d="M234.74,-246.07C252.99,-260.83 282.8,-282.97 312,-296 361.84,-318.25 422.08,-332.37 467.68,-340.72"/>
<polygon fill="#63b8ff" stroke="#63b8ff" points="467.31,-344.21 477.77,-342.52 468.54,-337.32 467.31,-344.21"/>
</a>
</g>
</g>
<!-- Node8 -->
<g id="Node000008" class="node">
<title>Node8</title>
<g id="a_Node000008"><a xlink:href="../../d9/d2c/classlci_1_1alloc__net__context__x.html#aaad66599526eca49a9ee0dada3f8e35c" target="_top" xlink:title=" ">
<polygon fill="white" stroke="#666666" points="598,-318 478,-318 478,-288 598,-288 598,-318"/>
<text text-anchor="start" x="486" y="-306" font-family="Helvetica,sans-Serif" font-size="10.00">lci::alloc_net_context</text>
<text text-anchor="middle" x="538" y="-295" font-family="Helvetica,sans-Serif" font-size="10.00">_x::ibv_odp_strategy</text>
</a>
</g>
</g>
<!-- Node2&#45;&gt;Node8 -->
<g id="edge26_Node000002_Node000008" class="edge">
<title>Node2&#45;&gt;Node8</title>
<g id="a_edge26_Node000002_Node000008"><a xlink:title=" ">
<path fill="none" stroke="#63b8ff" d="M247.09,-246.02C265.43,-254.58 289.58,-264.8 312,-271 363.15,-285.15 422.68,-293.27 467.65,-297.78"/>
<polygon fill="#63b8ff" stroke="#63b8ff" points="467.59,-301.29 477.88,-298.77 468.26,-294.32 467.59,-301.29"/>
</a>
</g>
</g>
<!-- Node9 -->
<g id="Node000009" class="node">
<title>Node9</title>
<g id="a_Node000009"><a xlink:href="../../d9/d2c/classlci_1_1alloc__net__context__x.html#a2c1d71a830f38024cb6193d55e088fb8" target="_top" xlink:title=" ">
<polygon fill="white" stroke="#666666" points="608,-270 468,-270 468,-240 608,-240 608,-270"/>
<text text-anchor="start" x="476" y="-258" font-family="Helvetica,sans-Serif" font-size="10.00">lci::alloc_net_context</text>
<text text-anchor="middle" x="538" y="-247" font-family="Helvetica,sans-Serif" font-size="10.00">_x::ibv_prefetch_strategy</text>
</a>
</g>
</g>
<!-- Node2&#45;&gt;Node9 -->
<g id="edge27_Node000002_Node000009" class="edge">
<title>Node2&#45;&gt;Node9</title>
<g id="a_edge27_Node000002_Node000009"><a xlink:title=" ">
<path fill="none" stroke="#63b8ff" d="M266.85,-246.05C281.28,-249.74 297.14,-253.15 312,-255 360.09,-260.98 414.41,-261.16 457.62,-259.77"/>
<polygon fill="#63b8ff" stroke="#63b8ff" points="457.93,-263.26 467.8,-259.4 457.68,-256.26 457.93,-263.26"/>
</a>
</g>
</g>
<!-- Node10 -->
<g id="Node000010" class="node">
<title>Node10</title>
<g id="a_Node000010"><a xlink:href="../../d9/d2c/classlci_1_1alloc__net__context__x.html#a6654c9eac4872fca14364abd71f579f1" target="_top" xlink:title=" ">
<polygon fill="white" stroke="#666666" points="598,-222 478,-222 478,-192 598,-192 598,-222"/>
<text text-anchor="start" x="486" y="-210" font-family="Helvetica,sans-Serif" font-size="10.00">lci::alloc_net_context</text>
<text text-anchor="middle" x="538" y="-199" font-family="Helvetica,sans-Serif" font-size="10.00">_x::max_inject_size</text>
</a>
</g>
</g>
<!-- Node2&#45;&gt;Node10 -->
<g id="edge28_Node000002_Node000010" class="edge">
<title>Node2&#45;&gt;Node10</title>
<g id="a_edge28_Node000002_Node000010"><a xlink:title=" ">
<path fill="none" stroke="#63b8ff" d="M266.85,-215.95C281.28,-212.26 297.14,-208.85 312,-207 363.79,-200.56 422.8,-200.84 467.39,-202.58"/>
<polygon fill="#63b8ff" stroke="#63b8ff" points="467.4,-206.09 477.54,-203.01 467.69,-199.09 467.4,-206.09"/>
</a>
</g>
</g>
<!-- Node11 -->
<g id="Node000011" class="node">
<title>Node11</title>
<g id="a_Node000011"><a xlink:href="../../d9/d2c/classlci_1_1alloc__net__context__x.html#ad264e33dba3328ba304b8727d91fea36" target="_top" xlink:title=" ">
<polygon fill="white" stroke="#666666" points="598,-174 478,-174 478,-144 598,-144 598,-174"/>
<text text-anchor="start" x="486" y="-162" font-family="Helvetica,sans-Serif" font-size="10.00">lci::alloc_net_context</text>
<text text-anchor="middle" x="538" y="-151" font-family="Helvetica,sans-Serif" font-size="10.00">_x::max_msg_size</text>
</a>
</g>
</g>
<!-- Node2&#45;&gt;Node11 -->
<g id="edge29_Node000002_Node000011" class="edge">
<title>Node2&#45;&gt;Node11</title>
<g id="a_edge29_Node000002_Node000011"><a xlink:title=" ">
<path fill="none" stroke="#63b8ff" d="M254.43,-215.88C271.73,-209.34 292.68,-202.05 312,-197 363.49,-183.55 422.9,-173.75 467.74,-167.48"/>
<polygon fill="#63b8ff" stroke="#63b8ff" points="468.22,-170.94 477.65,-166.11 467.27,-164.01 468.22,-170.94"/>
</a>
</g>
</g>
<!-- Node12 -->
<g id="Node000012" class="node">
<title>Node12</title>
<g id="a_Node000012"><a xlink:href="../../d9/d2c/classlci_1_1alloc__net__context__x.html#a11c33085d6c48cc3684d45ae1f91b354" target="_top" xlink:title=" ">
<polygon fill="white" stroke="#666666" points="600.5,-126 475.5,-126 475.5,-96 600.5,-96 600.5,-126"/>
<text text-anchor="start" x="483.5" y="-114" font-family="Helvetica,sans-Serif" font-size="10.00">lci::alloc_net_context</text>
<text text-anchor="middle" x="538" y="-103" font-family="Helvetica,sans-Serif" font-size="10.00">_x::ofi_provider_name</text>
</a>
</g>
</g>
<!-- Node2&#45;&gt;Node12 -->
<g id="edge30_Node000002_Node000012" class="edge">
<title>Node2&#45;&gt;Node12</title>
<g id="a_edge30_Node000002_Node000012"><a xlink:title=" ">
<path fill="none" stroke="#63b8ff" d="M235.94,-215.95C254.39,-201.97 283.71,-181.47 312,-169 361.07,-147.36 419.86,-132.56 465.03,-123.32"/>
<polygon fill="#63b8ff" stroke="#63b8ff" points="465.92,-126.72 475.04,-121.32 464.55,-119.85 465.92,-126.72"/>
</a>
</g>
</g>
<!-- Node13 -->
<g id="Node000013" class="node">
<title>Node13</title>
<g id="a_Node000013"><a xlink:href="../../d9/d2c/classlci_1_1alloc__net__context__x.html#a3cc9f4bac3c372009fe44dbd77153c19" target="_top" xlink:title=" ">
<polygon fill="white" stroke="#666666" points="598,-78 478,-78 478,-48 598,-48 598,-78"/>
<text text-anchor="start" x="486" y="-66" font-family="Helvetica,sans-Serif" font-size="10.00">lci::alloc_net_context</text>
<text text-anchor="middle" x="538" y="-55" font-family="Helvetica,sans-Serif" font-size="10.00">_x::runtime</text>
</a>
</g>
</g>
<!-- Node2&#45;&gt;Node13 -->
<g id="edge31_Node000002_Node000013" class="edge">
<title>Node2&#45;&gt;Node13</title>
<g id="a_edge31_Node000002_Node000013"><a xlink:title=" ">
<path fill="none" stroke="#63b8ff" d="M226.74,-215.82C242.1,-193.1 274.15,-150.41 312,-127 359.63,-97.55 421.22,-81.26 467.92,-72.49"/>
<polygon fill="#63b8ff" stroke="#63b8ff" points="468.73,-75.9 477.95,-70.68 467.48,-69.01 468.73,-75.9"/>
</a>
</g>
</g>
<!-- Node14 -->
<g id="Node000014" class="node">
<title>Node14</title>
<g id="a_Node000014"><a xlink:href="../../d9/d2c/classlci_1_1alloc__net__context__x.html#a875d4f78abda2116a3ea1982116165a3" target="_top" xlink:title=" ">
<polygon fill="white" stroke="#666666" points="598,-30 478,-30 478,0 598,0 598,-30"/>
<text text-anchor="start" x="486" y="-18" font-family="Helvetica,sans-Serif" font-size="10.00">lci::alloc_net_context</text>
<text text-anchor="middle" x="538" y="-7" font-family="Helvetica,sans-Serif" font-size="10.00">_x::user_context</text>
</a>
</g>
</g>
<!-- Node2&#45;&gt;Node14 -->
<g id="edge32_Node000002_Node000014" class="edge">
<title>Node2&#45;&gt;Node14</title>
<g id="a_edge32_Node000002_Node000014"><a xlink:title=" ">
<path fill="none" stroke="#63b8ff" d="M222.05,-215.56C233.1,-184.24 262.49,-113.08 312,-76 357.21,-42.14 420.01,-27.07 467.77,-20.36"/>
<polygon fill="#63b8ff" stroke="#63b8ff" points="468.26,-23.83 477.72,-19.05 467.35,-16.89 468.26,-23.83"/>
</a>
</g>
</g>
<!-- Node4 -->
<g id="Node000004" class="node">
<title>Node4</title>
<g id="a_Node000004"><a xlink:href="../../d9/d2c/classlci_1_1alloc__net__context__x.html#a4906e72fa75cb21741c0248836701237" target="_top" xlink:title=" ">
<polygon fill="white" stroke="#666666" points="775,-246 644,-246 644,-216 775,-216 775,-246"/>
<text text-anchor="start" x="652" y="-234" font-family="Helvetica,sans-Serif" font-size="10.00">lci::alloc_net_context</text>
<text text-anchor="middle" x="709.5" y="-223" font-family="Helvetica,sans-Serif" font-size="10.00">_x::alloc_net_context_x</text>
</a>
</g>
</g>
<!-- Node3&#45;&gt;Node4 -->
<g id="edge3_Node000003_Node000004" class="edge">
<title>Node3&#45;&gt;Node4</title>
<g id="a_edge3_Node000003_Node000004"><a xlink:title=" ">
<path fill="none" stroke="#63b8ff" d="M595.01,-443.94C599.69,-441.4 604.1,-438.44 608,-435 663.63,-385.82 691.76,-298.81 702.78,-256.09"/>
<polygon fill="#63b8ff" stroke="#63b8ff" points="706.21,-256.78 705.21,-246.23 699.42,-255.1 706.21,-256.78"/>
</a>
</g>
</g>
<!-- Node5&#45;&gt;Node3 -->
<g id="edge5_Node000005_Node000003" class="edge">
<title>Node5&#45;&gt;Node3</title>
<g id="a_edge5_Node000005_Node000003"><a xlink:title=" ">
<path fill="none" stroke="#63b8ff" d="M375.85,-246.22C383.65,-283.75 408.87,-381.56 468,-435 469.29,-436.17 470.65,-437.28 472.05,-438.34"/>
<polygon fill="#63b8ff" stroke="#63b8ff" points="470.27,-441.36 480.57,-443.84 474.06,-435.47 470.27,-441.36"/>
</a>
</g>
</g>
<!-- Node5&#45;&gt;Node6 -->
<g id="edge6_Node000005_Node000006" class="edge">
<title>Node5&#45;&gt;Node6</title>
<g id="a_edge6_Node000005_Node000006"><a xlink:title=" ">
<path fill="none" stroke="#63b8ff" d="M379.39,-246.11C392.22,-274.85 423.75,-337.81 468,-375 469.54,-376.29 471.14,-377.54 472.79,-378.74"/>
<polygon fill="#63b8ff" stroke="#63b8ff" points="471.13,-381.83 481.42,-384.35 474.95,-375.96 471.13,-381.83"/>
</a>
</g>
</g>
<!-- Node5&#45;&gt;Node7 -->
<g id="edge8_Node000005_Node000007" class="edge">
<title>Node5&#45;&gt;Node7</title>
<g id="a_edge8_Node000005_Node000007"><a xlink:title=" ">
<path fill="none" stroke="#63b8ff" d="M384.25,-246.1C400.56,-267.02 432.7,-304.73 468,-327 470.6,-328.64 473.32,-330.18 476.13,-331.63"/>
<polygon fill="#63b8ff" stroke="#63b8ff" points="474.75,-334.86 485.29,-335.96 477.74,-328.53 474.75,-334.86"/>
</a>
</g>
</g>
<!-- Node5&#45;&gt;Node8 -->
<g id="edge10_Node000005_Node000008" class="edge">
<title>Node5&#45;&gt;Node8</title>
<g id="a_edge10_Node000005_Node000008"><a xlink:title=" ">
<path fill="none" stroke="#63b8ff" d="M400.39,-246.06C419.13,-256.06 444.7,-269.11 468,-279 472.37,-280.85 476.93,-282.68 481.54,-284.44"/>
<polygon fill="#63b8ff" stroke="#63b8ff" points="480.43,-287.76 491.02,-287.97 482.87,-281.2 480.43,-287.76"/>
</a>
</g>
</g>
<!-- Node5&#45;&gt;Node9 -->
<g id="edge12_Node000005_Node000009" class="edge">
<title>Node5&#45;&gt;Node9</title>
<g id="a_edge12_Node000005_Node000009"><a xlink:title=" ">
<path fill="none" stroke="#63b8ff" d="M432.21,-239.66C440.52,-240.88 449.17,-242.15 457.77,-243.41"/>
<polygon fill="#63b8ff" stroke="#63b8ff" points="457.43,-246.89 467.84,-244.88 458.45,-239.97 457.43,-246.89"/>
</a>
</g>
</g>
<!-- Node5&#45;&gt;Node10 -->
<g id="edge14_Node000005_Node000010" class="edge">
<title>Node5&#45;&gt;Node10</title>
<g id="a_edge14_Node000005_Node000010"><a xlink:title=" ">
<path fill="none" stroke="#63b8ff" d="M432.21,-222.34C443.7,-220.65 455.85,-218.88 467.64,-217.15"/>
<polygon fill="#63b8ff" stroke="#63b8ff" points="468.49,-220.56 477.88,-215.65 467.48,-213.64 468.49,-220.56"/>
</a>
</g>
</g>
<!-- Node5&#45;&gt;Node11 -->
<g id="edge16_Node000005_Node000011" class="edge">
<title>Node5&#45;&gt;Node11</title>
<g id="a_edge16_Node000005_Node000011"><a xlink:title=" ">
<path fill="none" stroke="#63b8ff" d="M400.39,-215.94C419.13,-205.94 444.7,-192.89 468,-183 472.37,-181.15 476.93,-179.32 481.54,-177.56"/>
<polygon fill="#63b8ff" stroke="#63b8ff" points="482.87,-180.8 491.02,-174.03 480.43,-174.24 482.87,-180.8"/>
</a>
</g>
</g>
<!-- Node5&#45;&gt;Node12 -->
<g id="edge18_Node000005_Node000012" class="edge">
<title>Node5&#45;&gt;Node12</title>
<g id="a_edge18_Node000005_Node000012"><a xlink:title=" ">
<path fill="none" stroke="#63b8ff" d="M384.25,-215.9C400.56,-194.98 432.7,-157.27 468,-135 470.6,-133.36 473.32,-131.82 476.13,-130.37"/>
<polygon fill="#63b8ff" stroke="#63b8ff" points="477.74,-133.47 485.29,-126.04 474.75,-127.14 477.74,-133.47"/>
</a>
</g>
</g>
<!-- Node5&#45;&gt;Node13 -->
<g id="edge20_Node000005_Node000013" class="edge">
<title>Node5&#45;&gt;Node13</title>
<g id="a_edge20_Node000005_Node000013"><a xlink:title=" ">
<path fill="none" stroke="#63b8ff" d="M379.14,-215.58C391.55,-186.32 422.38,-122.49 468,-87 469.79,-85.61 471.67,-84.29 473.61,-83.05"/>
<polygon fill="#63b8ff" stroke="#63b8ff" points="475.47,-86.02 482.48,-78.07 472.04,-79.92 475.47,-86.02"/>
</a>
</g>
</g>
<!-- Node5&#45;&gt;Node14 -->
<g id="edge22_Node000005_Node000014" class="edge">
<title>Node5&#45;&gt;Node14</title>
<g id="a_edge22_Node000005_Node000014"><a xlink:title=" ">
<path fill="none" stroke="#63b8ff" d="M376.31,-215.88C384.96,-179.96 411.53,-88.83 468,-39 469.34,-37.82 470.74,-36.69 472.19,-35.62"/>
<polygon fill="#63b8ff" stroke="#63b8ff" points="474.4,-38.37 480.99,-30.07 470.67,-32.45 474.4,-38.37"/>
</a>
</g>
</g>
<!-- Node6&#45;&gt;Node4 -->
<g id="edge7_Node000006_Node000004" class="edge">
<title>Node6&#45;&gt;Node4</title>
<g id="a_edge7_Node000006_Node000004"><a xlink:title=" ">
<path fill="none" stroke="#63b8ff" d="M594.14,-384.44C599.04,-381.62 603.75,-378.47 608,-375 649.09,-341.38 680.78,-286.86 696.85,-255.44"/>
<polygon fill="#63b8ff" stroke="#63b8ff" points="700.18,-256.61 701.51,-246.1 693.91,-253.48 700.18,-256.61"/>
</a>
</g>
</g>
<!-- Node7&#45;&gt;Node4 -->
<g id="edge9_Node000007_Node000004" class="edge">
<title>Node7&#45;&gt;Node4</title>
<g id="a_edge9_Node000007_Node000004"><a xlink:title=" ">
<path fill="none" stroke="#63b8ff" d="M590.26,-335.97C596.42,-333.36 602.48,-330.37 608,-327 640.5,-307.14 671.12,-275.28 689.84,-253.76"/>
<polygon fill="#63b8ff" stroke="#63b8ff" points="692.57,-255.95 696.4,-246.07 687.25,-251.4 692.57,-255.95"/>
</a>
</g>
</g>
<!-- Node8&#45;&gt;Node4 -->
<g id="edge11_Node000008_Node000004" class="edge">
<title>Node8&#45;&gt;Node4</title>
<g id="a_edge11_Node000008_Node000004"><a xlink:title=" ">
<path fill="none" stroke="#63b8ff" d="M584.55,-287.96C592.43,-285.13 600.49,-282.09 608,-279 628.81,-270.44 651.46,-259.75 669.98,-250.63"/>
<polygon fill="#63b8ff" stroke="#63b8ff" points="671.59,-253.74 678.99,-246.16 668.47,-247.47 671.59,-253.74"/>
</a>
</g>
</g>
<!-- Node9&#45;&gt;Node4 -->
<g id="edge13_Node000009_Node000004" class="edge">
<title>Node9&#45;&gt;Node4</title>
<g id="a_edge13_Node000009_Node000004"><a xlink:title=" ">
<path fill="none" stroke="#63b8ff" d="M608.43,-245.17C616.75,-243.99 625.27,-242.78 633.67,-241.6"/>
<polygon fill="#63b8ff" stroke="#63b8ff" points="634.4,-245.03 643.81,-240.16 633.42,-238.1 634.4,-245.03"/>
</a>
</g>
</g>
<!-- Node10&#45;&gt;Node4 -->
<g id="edge15_Node000010_Node000004" class="edge">
<title>Node10&#45;&gt;Node4</title>
<g id="a_edge15_Node000010_Node000004"><a xlink:title=" ">
<path fill="none" stroke="#63b8ff" d="M598.28,-215.39C609.77,-217.02 621.94,-218.74 633.85,-220.43"/>
<polygon fill="#63b8ff" stroke="#63b8ff" points="633.37,-223.9 643.76,-221.83 634.35,-216.97 633.37,-223.9"/>
</a>
</g>
</g>
<!-- Node11&#45;&gt;Node4 -->
<g id="edge17_Node000011_Node000004" class="edge">
<title>Node11&#45;&gt;Node4</title>
<g id="a_edge17_Node000011_Node000004"><a xlink:title=" ">
<path fill="none" stroke="#63b8ff" d="M584.55,-174.04C592.43,-176.87 600.49,-179.91 608,-183 628.81,-191.56 651.46,-202.25 669.98,-211.37"/>
<polygon fill="#63b8ff" stroke="#63b8ff" points="668.47,-214.53 678.99,-215.84 671.59,-208.26 668.47,-214.53"/>
</a>
</g>
</g>
<!-- Node12&#45;&gt;Node4 -->
<g id="edge19_Node000012_Node000004" class="edge">
<title>Node12&#45;&gt;Node4</title>
<g id="a_edge19_Node000012_Node000004"><a xlink:title=" ">
<path fill="none" stroke="#63b8ff" d="M590.26,-126.03C596.42,-128.64 602.48,-131.63 608,-135 640.5,-154.86 671.12,-186.72 689.84,-208.24"/>
<polygon fill="#63b8ff" stroke="#63b8ff" points="687.25,-210.6 696.4,-215.93 692.57,-206.05 687.25,-210.6"/>
</a>
</g>
</g>
<!-- Node13&#45;&gt;Node4 -->
<g id="edge21_Node000013_Node000004" class="edge">
<title>Node13&#45;&gt;Node4</title>
<g id="a_edge21_Node000013_Node000004"><a xlink:title=" ">
<path fill="none" stroke="#63b8ff" d="M593.08,-78.01C598.37,-80.58 603.45,-83.55 608,-87 650.51,-119.19 681.85,-174.61 697.43,-206.5"/>
<polygon fill="#63b8ff" stroke="#63b8ff" points="694.3,-208.06 701.76,-215.58 700.62,-205.05 694.3,-208.06"/>
</a>
</g>
</g>
<!-- Node14&#45;&gt;Node4 -->
<g id="edge23_Node000014_Node000004" class="edge">
<title>Node14&#45;&gt;Node4</title>
<g id="a_edge23_Node000014_Node000004"><a xlink:title=" ">
<path fill="none" stroke="#63b8ff" d="M594.92,-30.16C599.62,-32.68 604.06,-35.6 608,-39 661.08,-84.77 690.12,-165.6 702.01,-206.22"/>
<polygon fill="#63b8ff" stroke="#63b8ff" points="698.65,-207.19 704.73,-215.87 705.38,-205.29 698.65,-207.19"/>
</a>
</g>
</g>
</g>
</svg>
