<?xml version="1.0" encoding="UTF-8" standalone="no"?>
<!DOCTYPE svg PUBLIC "-//W3C//DTD SVG 1.1//EN"
 "http://www.w3.org/Graphics/SVG/1.1/DTD/svg11.dtd">
<!-- Generated by graphviz version 2.43.0 (0)
 -->
<!-- Title: lci::alloc_device Pages: 1 -->
<svg width="706pt" height="662pt"
 viewBox="0.00 0.00 706.00 662.00" xmlns="http://www.w3.org/2000/svg" xmlns:xlink="http://www.w3.org/1999/xlink">
<g id="graph0" class="graph" transform="scale(1 1) rotate(0) translate(4 658)">
<title>lci::alloc_device</title>
<!-- Node1 -->
<g id="Node000001" class="node">
<title>Node1</title>
<g id="a_Node000001"><a xlink:title=" ">
<polygon fill="#999999" stroke="#666666" points="95,-336.5 0,-336.5 0,-317.5 95,-317.5 95,-336.5"/>
<text text-anchor="middle" x="47.5" y="-324.5" font-family="Helvetica,sans-Serif" font-size="10.00">lci::alloc_device</text>
</a>
</g>
</g>
<!-- Node2 -->
<g id="Node000002" class="node">
<title>Node2</title>
<g id="a_Node000002"><a xlink:href="../../d9/d10/classlci_1_1alloc__device__x.html#accfc23b8c5a8d782aa772cc509749d14" target="_top" xlink:title=" ">
<polygon fill="white" stroke="#666666" points="237,-342 131,-342 131,-312 237,-312 237,-342"/>
<text text-anchor="start" x="139" y="-330" font-family="Helvetica,sans-Serif" font-size="10.00">lci::alloc_device_x</text>
<text text-anchor="middle" x="184" y="-319" font-family="Helvetica,sans-Serif" font-size="10.00">::call</text>
</a>
</g>
</g>
<!-- Node1&#45;&gt;Node2 -->
<g id="edge1_Node000001_Node000002" class="edge">
<title>Node1&#45;&gt;Node2</title>
<g id="a_edge1_Node000001_Node000002"><a xlink:title=" ">
<path fill="none" stroke="#63b8ff" d="M95.16,-327C103.45,-327 112.2,-327 120.84,-327"/>
<polygon fill="#63b8ff" stroke="#63b8ff" points="120.9,-330.5 130.9,-327 120.9,-323.5 120.9,-330.5"/>
</a>
</g>
</g>
<!-- Node3 -->
<g id="Node000003" class="node">
<title>Node3</title>
<g id="a_Node000003"><a xlink:href="../../d9/d10/classlci_1_1alloc__device__x.html#a0364c3bcc9d35c8c2dadd4a683e13b2b" target="_top" xlink:title=" ">
<polygon fill="white" stroke="#666666" points="552.5,-654 418.5,-654 418.5,-624 552.5,-624 552.5,-654"/>
<text text-anchor="start" x="426.5" y="-642" font-family="Helvetica,sans-Serif" font-size="10.00">lci::alloc_device_x</text>
<text text-anchor="middle" x="485.5" y="-631" font-family="Helvetica,sans-Serif" font-size="10.00">::alloc_default_endpoint</text>
</a>
</g>
</g>
<!-- Node2&#45;&gt;Node3 -->
<g id="edge2_Node000002_Node000003" class="edge">
<title>Node2&#45;&gt;Node3</title>
<g id="a_edge2_Node000002_Node000003"><a xlink:title=" ">
<path fill="none" stroke="#63b8ff" d="M187.35,-342.12C194.03,-380.47 216.42,-482.81 273,-544 308.9,-582.83 363.64,-606.82 408.44,-620.98"/>
<polygon fill="#63b8ff" stroke="#63b8ff" points="407.54,-624.37 418.13,-623.94 409.59,-617.67 407.54,-624.37"/>
</a>
</g>
</g>
<!-- Node5 -->
<g id="Node000005" class="node">
<title>Node5</title>
<g id="a_Node000005"><a xlink:href="../../d9/d10/classlci_1_1alloc__device__x.html#ab20e017d5404c44094f5926dfb6d49de" target="_top" xlink:title=" ">
<polygon fill="white" stroke="#666666" points="556,-606 415,-606 415,-576 556,-576 556,-606"/>
<text text-anchor="start" x="423" y="-594" font-family="Helvetica,sans-Serif" font-size="10.00">lci::alloc_device_x</text>
<text text-anchor="middle" x="485.5" y="-583" font-family="Helvetica,sans-Serif" font-size="10.00">::alloc_progress_endpoint</text>
</a>
</g>
</g>
<!-- Node2&#45;&gt;Node5 -->
<g id="edge4_Node000002_Node000005" class="edge">
<title>Node2&#45;&gt;Node5</title>
<g id="a_edge4_Node000002_Node000005"><a xlink:title=" ">
<path fill="none" stroke="#63b8ff" d="M189.13,-342.46C198.67,-375.45 225.13,-453.53 273,-500 310.33,-536.24 364.37,-559.15 408.49,-572.92"/>
<polygon fill="#63b8ff" stroke="#63b8ff" points="407.73,-576.35 418.31,-575.89 409.75,-569.65 407.73,-576.35"/>
</a>
</g>
</g>
<!-- Node6 -->
<g id="Node000006" class="node">
<title>Node6</title>
<g id="a_Node000006"><a xlink:href="../../d9/d10/classlci_1_1alloc__device__x.html#aa3a3a24a9e92713a3f25a7717283ce7f" target="_top" xlink:title=" ">
<polygon fill="white" stroke="#666666" points="379,-342 273,-342 273,-312 379,-312 379,-342"/>
<text text-anchor="start" x="281" y="-330" font-family="Helvetica,sans-Serif" font-size="10.00">lci::alloc_device_x</text>
<text text-anchor="middle" x="326" y="-319" font-family="Helvetica,sans-Serif" font-size="10.00">::call_impl</text>
</a>
</g>
</g>
<!-- Node2&#45;&gt;Node6 -->
<g id="edge6_Node000002_Node000006" class="edge">
<title>Node2&#45;&gt;Node6</title>
<g id="a_edge6_Node000002_Node000006"><a xlink:title=" ">
<path fill="none" stroke="#63b8ff" d="M237.13,-327C245.42,-327 254.07,-327 262.57,-327"/>
<polygon fill="#63b8ff" stroke="#63b8ff" points="262.83,-330.5 272.83,-327 262.83,-323.5 262.83,-330.5"/>
</a>
</g>
</g>
<!-- Node7 -->
<g id="Node000007" class="node">
<title>Node7</title>
<g id="a_Node000007"><a xlink:href="../../d9/d10/classlci_1_1alloc__device__x.html#ad24d73c79259e5dcba473f20adad64cd" target="_top" xlink:title=" ">
<polygon fill="white" stroke="#666666" points="538.5,-558 432.5,-558 432.5,-528 538.5,-528 538.5,-558"/>
<text text-anchor="start" x="440.5" y="-546" font-family="Helvetica,sans-Serif" font-size="10.00">lci::alloc_device_x</text>
<text text-anchor="middle" x="485.5" y="-535" font-family="Helvetica,sans-Serif" font-size="10.00">::ibv_td_strategy</text>
</a>
</g>
</g>
<!-- Node2&#45;&gt;Node7 -->
<g id="edge33_Node000002_Node000007" class="edge">
<title>Node2&#45;&gt;Node7</title>
<g id="a_edge33_Node000002_Node000007"><a xlink:title=" ">
<path fill="none" stroke="#63b8ff" d="M191.49,-342.14C203.74,-369.09 232.68,-425.64 273,-459 316.53,-495.02 377.43,-517.01 422.7,-529.4"/>
<polygon fill="#63b8ff" stroke="#63b8ff" points="421.84,-532.8 432.4,-531.98 423.64,-526.03 421.84,-532.8"/>
</a>
</g>
</g>
<!-- Node8 -->
<g id="Node000008" class="node">
<title>Node8</title>
<g id="a_Node000008"><a xlink:href="../../d9/d10/classlci_1_1alloc__device__x.html#a6f0be32f14a934810e8f358b24fe981f" target="_top" xlink:title=" ">
<polygon fill="white" stroke="#666666" points="538.5,-510 432.5,-510 432.5,-480 538.5,-480 538.5,-510"/>
<text text-anchor="start" x="440.5" y="-498" font-family="Helvetica,sans-Serif" font-size="10.00">lci::alloc_device_x</text>
<text text-anchor="middle" x="485.5" y="-487" font-family="Helvetica,sans-Serif" font-size="10.00">::name</text>
</a>
</g>
</g>
<!-- Node2&#45;&gt;Node8 -->
<g id="edge34_Node000002_Node000008" class="edge">
<title>Node2&#45;&gt;Node8</title>
<g id="a_edge34_Node000002_Node000008"><a xlink:title=" ">
<path fill="none" stroke="#63b8ff" d="M195.45,-342.35C210.36,-363.17 239.67,-400.26 273,-422 318.82,-451.89 378.25,-470.99 422.43,-482.12"/>
<polygon fill="#63b8ff" stroke="#63b8ff" points="421.64,-485.53 432.18,-484.51 423.31,-478.73 421.64,-485.53"/>
</a>
</g>
</g>
<!-- Node9 -->
<g id="Node000009" class="node">
<title>Node9</title>
<g id="a_Node000009"><a xlink:href="../../d9/d10/classlci_1_1alloc__device__x.html#abeaee68a26587c6b359320ab7cc7def1" target="_top" xlink:title=" ">
<polygon fill="white" stroke="#666666" points="538.5,-462 432.5,-462 432.5,-432 538.5,-432 538.5,-462"/>
<text text-anchor="start" x="440.5" y="-450" font-family="Helvetica,sans-Serif" font-size="10.00">lci::alloc_device_x</text>
<text text-anchor="middle" x="485.5" y="-439" font-family="Helvetica,sans-Serif" font-size="10.00">::net_context</text>
</a>
</g>
</g>
<!-- Node2&#45;&gt;Node9 -->
<g id="edge35_Node000002_Node000009" class="edge">
<title>Node2&#45;&gt;Node9</title>
<g id="a_edge35_Node000002_Node000009"><a xlink:title=" ">
<path fill="none" stroke="#63b8ff" d="M201.64,-342.05C218.5,-356.54 245.87,-378.1 273,-391 320.74,-413.7 379.07,-428.27 422.38,-436.84"/>
<polygon fill="#63b8ff" stroke="#63b8ff" points="421.73,-440.28 432.21,-438.73 423.05,-433.4 421.73,-440.28"/>
</a>
</g>
</g>
<!-- Node10 -->
<g id="Node000010" class="node">
<title>Node10</title>
<g id="a_Node000010"><a xlink:href="../../d9/d10/classlci_1_1alloc__device__x.html#acd2e7ade6e7e4c91b3144bd3068ead07" target="_top" xlink:title=" ">
<polygon fill="white" stroke="#666666" points="538.5,-414 432.5,-414 432.5,-384 538.5,-384 538.5,-414"/>
<text text-anchor="start" x="440.5" y="-402" font-family="Helvetica,sans-Serif" font-size="10.00">lci::alloc_device_x</text>
<text text-anchor="middle" x="485.5" y="-391" font-family="Helvetica,sans-Serif" font-size="10.00">::net_max_cqes</text>
</a>
</g>
</g>
<!-- Node2&#45;&gt;Node10 -->
<g id="edge36_Node000002_Node000010" class="edge">
<title>Node2&#45;&gt;Node10</title>
<g id="a_edge36_Node000002_Node000010"><a xlink:title=" ">
<path fill="none" stroke="#63b8ff" d="M212.77,-342.02C229.72,-350.58 252.08,-360.8 273,-367 322.11,-381.57 379.7,-389.73 422.38,-394.16"/>
<polygon fill="#63b8ff" stroke="#63b8ff" points="422.05,-397.64 432.34,-395.15 422.74,-390.67 422.05,-397.64"/>
</a>
</g>
</g>
<!-- Node11 -->
<g id="Node000011" class="node">
<title>Node11</title>
<g id="a_Node000011"><a xlink:href="../../d9/d10/classlci_1_1alloc__device__x.html#a4c8c86d9400791bb609b391aef165d68" target="_top" xlink:title=" ">
<polygon fill="white" stroke="#666666" points="538.5,-366 432.5,-366 432.5,-336 538.5,-336 538.5,-366"/>
<text text-anchor="start" x="440.5" y="-354" font-family="Helvetica,sans-Serif" font-size="10.00">lci::alloc_device_x</text>
<text text-anchor="middle" x="485.5" y="-343" font-family="Helvetica,sans-Serif" font-size="10.00">::net_max_recvs</text>
</a>
</g>
</g>
<!-- Node2&#45;&gt;Node11 -->
<g id="edge37_Node000002_Node000011" class="edge">
<title>Node2&#45;&gt;Node11</title>
<g id="a_edge37_Node000002_Node000011"><a xlink:title=" ">
<path fill="none" stroke="#63b8ff" d="M231.11,-342.05C244.47,-345.74 259.19,-349.15 273,-351 322.76,-357.66 379.7,-357.21 421.95,-355.34"/>
<polygon fill="#63b8ff" stroke="#63b8ff" points="422.27,-358.83 432.09,-354.85 421.94,-351.84 422.27,-358.83"/>
</a>
</g>
</g>
<!-- Node12 -->
<g id="Node000012" class="node">
<title>Node12</title>
<g id="a_Node000012"><a xlink:href="../../d9/d10/classlci_1_1alloc__device__x.html#afe0d1c701b1611f00c3feaa22bd5f0cd" target="_top" xlink:title=" ">
<polygon fill="white" stroke="#666666" points="538.5,-318 432.5,-318 432.5,-288 538.5,-288 538.5,-318"/>
<text text-anchor="start" x="440.5" y="-306" font-family="Helvetica,sans-Serif" font-size="10.00">lci::alloc_device_x</text>
<text text-anchor="middle" x="485.5" y="-295" font-family="Helvetica,sans-Serif" font-size="10.00">::net_max_sends</text>
</a>
</g>
</g>
<!-- Node2&#45;&gt;Node12 -->
<g id="edge38_Node000002_Node000012" class="edge">
<title>Node2&#45;&gt;Node12</title>
<g id="a_edge38_Node000002_Node000012"><a xlink:title=" ">
<path fill="none" stroke="#63b8ff" d="M231.11,-311.95C244.47,-308.26 259.19,-304.85 273,-303 322.76,-296.34 379.7,-296.79 421.95,-298.66"/>
<polygon fill="#63b8ff" stroke="#63b8ff" points="421.94,-302.16 432.09,-299.15 422.27,-295.17 421.94,-302.16"/>
</a>
</g>
</g>
<!-- Node13 -->
<g id="Node000013" class="node">
<title>Node13</title>
<g id="a_Node000013"><a xlink:href="../../d9/d10/classlci_1_1alloc__device__x.html#a9dccb87689be3fb6d329abb8111bdf6c" target="_top" xlink:title=" ">
<polygon fill="white" stroke="#666666" points="553,-270 418,-270 418,-240 553,-240 553,-270"/>
<text text-anchor="start" x="426" y="-258" font-family="Helvetica,sans-Serif" font-size="10.00">lci::alloc_device_x</text>
<text text-anchor="middle" x="485.5" y="-247" font-family="Helvetica,sans-Serif" font-size="10.00">::net_send_reserved_pct</text>
</a>
</g>
</g>
<!-- Node2&#45;&gt;Node13 -->
<g id="edge39_Node000002_Node000013" class="edge">
<title>Node2&#45;&gt;Node13</title>
<g id="a_edge39_Node000002_Node000013"><a xlink:title=" ">
<path fill="none" stroke="#63b8ff" d="M219.59,-311.87C235.6,-305.33 255.02,-298.04 273,-293 316.88,-280.7 367.04,-271.49 407.49,-265.22"/>
<polygon fill="#63b8ff" stroke="#63b8ff" points="408.2,-268.65 417.56,-263.69 407.14,-261.73 408.2,-268.65"/>
</a>
</g>
</g>
<!-- Node14 -->
<g id="Node000014" class="node">
<title>Node14</title>
<g id="a_Node000014"><a xlink:href="../../d9/d10/classlci_1_1alloc__device__x.html#a7d316853b54b2a870ea35c387c1006e4" target="_top" xlink:title=" ">
<polygon fill="white" stroke="#666666" points="538.5,-222 432.5,-222 432.5,-192 538.5,-192 538.5,-222"/>
<text text-anchor="start" x="440.5" y="-210" font-family="Helvetica,sans-Serif" font-size="10.00">lci::alloc_device_x</text>
<text text-anchor="middle" x="485.5" y="-199" font-family="Helvetica,sans-Serif" font-size="10.00">::ofi_lock_mode</text>
</a>
</g>
</g>
<!-- Node2&#45;&gt;Node14 -->
<g id="edge40_Node000002_Node000014" class="edge">
<title>Node2&#45;&gt;Node14</title>
<g id="a_edge40_Node000002_Node000014"><a xlink:title=" ">
<path fill="none" stroke="#63b8ff" d="M202.78,-311.99C219.82,-298.28 246.75,-278.33 273,-266 321.02,-243.45 379.33,-227.98 422.55,-218.56"/>
<polygon fill="#63b8ff" stroke="#63b8ff" points="423.32,-221.97 432.37,-216.47 421.86,-215.13 423.32,-221.97"/>
</a>
</g>
</g>
<!-- Node15 -->
<g id="Node000015" class="node">
<title>Node15</title>
<g id="a_Node000015"><a xlink:href="../../d9/d10/classlci_1_1alloc__device__x.html#a561a0ed83694bc3350a801b629e5bd21" target="_top" xlink:title=" ">
<polygon fill="white" stroke="#666666" points="538.5,-174 432.5,-174 432.5,-144 538.5,-144 538.5,-174"/>
<text text-anchor="start" x="440.5" y="-162" font-family="Helvetica,sans-Serif" font-size="10.00">lci::alloc_device_x</text>
<text text-anchor="middle" x="485.5" y="-151" font-family="Helvetica,sans-Serif" font-size="10.00">::packet_pool</text>
</a>
</g>
</g>
<!-- Node2&#45;&gt;Node15 -->
<g id="edge41_Node000002_Node000015" class="edge">
<title>Node2&#45;&gt;Node15</title>
<g id="a_edge41_Node000002_Node000015"><a xlink:title=" ">
<path fill="none" stroke="#63b8ff" d="M194.41,-311.65C208.71,-289.56 237.99,-248.96 273,-226 318.42,-196.21 377.98,-178.91 422.31,-169.38"/>
<polygon fill="#63b8ff" stroke="#63b8ff" points="423.3,-172.75 432.38,-167.29 421.88,-165.9 423.3,-172.75"/>
</a>
</g>
</g>
<!-- Node16 -->
<g id="Node000016" class="node">
<title>Node16</title>
<g id="a_Node000016"><a xlink:href="../../d9/d10/classlci_1_1alloc__device__x.html#a56912fff6daa357d714dbbf3bf67af85" target="_top" xlink:title=" ">
<polygon fill="white" stroke="#666666" points="538.5,-126 432.5,-126 432.5,-96 538.5,-96 538.5,-126"/>
<text text-anchor="start" x="440.5" y="-114" font-family="Helvetica,sans-Serif" font-size="10.00">lci::alloc_device_x</text>
<text text-anchor="middle" x="485.5" y="-103" font-family="Helvetica,sans-Serif" font-size="10.00">::runtime</text>
</a>
</g>
</g>
<!-- Node2&#45;&gt;Node16 -->
<g id="edge42_Node000002_Node000016" class="edge">
<title>Node2&#45;&gt;Node16</title>
<g id="a_edge42_Node000002_Node000016"><a xlink:title=" ">
<path fill="none" stroke="#63b8ff" d="M189.71,-311.63C199.85,-281.14 226.65,-212.77 273,-176 315.95,-141.93 376.74,-125.65 422.13,-117.91"/>
<polygon fill="#63b8ff" stroke="#63b8ff" points="422.83,-121.34 432.15,-116.29 421.72,-114.43 422.83,-121.34"/>
</a>
</g>
</g>
<!-- Node17 -->
<g id="Node000017" class="node">
<title>Node17</title>
<g id="a_Node000017"><a xlink:href="../../d9/d10/classlci_1_1alloc__device__x.html#a6737b51602e702943e829c466e23f945" target="_top" xlink:title=" ">
<polygon fill="white" stroke="#666666" points="538.5,-78 432.5,-78 432.5,-48 538.5,-48 538.5,-78"/>
<text text-anchor="start" x="440.5" y="-66" font-family="Helvetica,sans-Serif" font-size="10.00">lci::alloc_device_x</text>
<text text-anchor="middle" x="485.5" y="-55" font-family="Helvetica,sans-Serif" font-size="10.00">::use_reg_cache</text>
</a>
</g>
</g>
<!-- Node2&#45;&gt;Node17 -->
<g id="edge43_Node000002_Node000017" class="edge">
<title>Node2&#45;&gt;Node17</title>
<g id="a_edge43_Node000002_Node000017"><a xlink:title=" ">
<path fill="none" stroke="#63b8ff" d="M187.09,-311.96C193.11,-274.41 214.01,-175.87 273,-124 314.35,-87.64 376.17,-72.88 422.3,-66.93"/>
<polygon fill="#63b8ff" stroke="#63b8ff" points="422.97,-70.38 432.49,-65.73 422.14,-63.43 422.97,-70.38"/>
</a>
</g>
</g>
<!-- Node18 -->
<g id="Node000018" class="node">
<title>Node18</title>
<g id="a_Node000018"><a xlink:href="../../d9/d10/classlci_1_1alloc__device__x.html#a5508f2d5c851ff147e9f8cd40db1ade3" target="_top" xlink:title=" ">
<polygon fill="white" stroke="#666666" points="538.5,-30 432.5,-30 432.5,0 538.5,0 538.5,-30"/>
<text text-anchor="start" x="440.5" y="-18" font-family="Helvetica,sans-Serif" font-size="10.00">lci::alloc_device_x</text>
<text text-anchor="middle" x="485.5" y="-7" font-family="Helvetica,sans-Serif" font-size="10.00">::user_context</text>
</a>
</g>
</g>
<!-- Node2&#45;&gt;Node18 -->
<g id="edge44_Node000002_Node000018" class="edge">
<title>Node2&#45;&gt;Node18</title>
<g id="a_edge44_Node000002_Node000018"><a xlink:title=" ">
<path fill="none" stroke="#63b8ff" d="M185.49,-312C187.75,-268.04 200.57,-138.38 273,-71 313.29,-33.52 375.71,-20.53 422.31,-16.31"/>
<polygon fill="#63b8ff" stroke="#63b8ff" points="422.61,-19.8 432.3,-15.52 422.05,-12.82 422.61,-19.8"/>
</a>
</g>
</g>
<!-- Node4 -->
<g id="Node000004" class="node">
<title>Node4</title>
<g id="a_Node000004"><a xlink:href="../../d9/d10/classlci_1_1alloc__device__x.html#a12e57dde78668d47808506dbd65f011e" target="_top" xlink:title=" ">
<polygon fill="white" stroke="#666666" points="698,-342 592,-342 592,-312 698,-312 698,-342"/>
<text text-anchor="start" x="600" y="-330" font-family="Helvetica,sans-Serif" font-size="10.00">lci::alloc_device_x</text>
<text text-anchor="middle" x="645" y="-319" font-family="Helvetica,sans-Serif" font-size="10.00">::alloc_device_x</text>
</a>
</g>
</g>
<!-- Node3&#45;&gt;Node4 -->
<g id="edge3_Node000003_Node000004" class="edge">
<title>Node3&#45;&gt;Node4</title>
<g id="a_edge3_Node000003_Node000004"><a xlink:title=" ">
<path fill="none" stroke="#63b8ff" d="M544.86,-623.82C548.94,-621.32 552.72,-618.4 556,-615 628.16,-540.19 641.32,-407.89 643.59,-352.5"/>
<polygon fill="#63b8ff" stroke="#63b8ff" points="647.1,-352.3 643.92,-342.19 640.1,-352.08 647.1,-352.3"/>
</a>
</g>
</g>
<!-- Node5&#45;&gt;Node4 -->
<g id="edge5_Node000005_Node000004" class="edge">
<title>Node5&#45;&gt;Node4</title>
<g id="a_edge5_Node000005_Node000004"><a xlink:title=" ">
<path fill="none" stroke="#63b8ff" d="M544.33,-575.82C548.57,-573.31 552.54,-570.4 556,-567 617.27,-506.88 636.19,-400.59 641.78,-352.23"/>
<polygon fill="#63b8ff" stroke="#63b8ff" points="645.29,-352.34 642.86,-342.03 638.33,-351.61 645.29,-352.34"/>
</a>
</g>
</g>
<!-- Node6&#45;&gt;Node3 -->
<g id="edge7_Node000006_Node000003" class="edge">
<title>Node6&#45;&gt;Node3</title>
<g id="a_edge7_Node000006_Node000003"><a xlink:title=" ">
<path fill="none" stroke="#63b8ff" d="M327.08,-342.19C328.15,-389.39 337.87,-535.04 415,-615 415.92,-615.96 416.88,-616.87 417.88,-617.76"/>
<polygon fill="#63b8ff" stroke="#63b8ff" points="416,-620.72 426.14,-623.82 420.15,-615.08 416,-620.72"/>
</a>
</g>
</g>
<!-- Node6&#45;&gt;Node5 -->
<g id="edge8_Node000006_Node000005" class="edge">
<title>Node6&#45;&gt;Node5</title>
<g id="a_edge8_Node000006_Node000005"><a xlink:title=" ">
<path fill="none" stroke="#63b8ff" d="M328.14,-342.03C332.12,-383.75 348.95,-502.19 415,-567 416.08,-568.06 417.21,-569.08 418.39,-570.05"/>
<polygon fill="#63b8ff" stroke="#63b8ff" points="416.47,-572.97 426.67,-575.82 420.47,-567.23 416.47,-572.97"/>
</a>
</g>
</g>
<!-- Node6&#45;&gt;Node7 -->
<g id="edge9_Node000006_Node000007" class="edge">
<title>Node6&#45;&gt;Node7</title>
<g id="a_edge9_Node000006_Node000007"><a xlink:title=" ">
<path fill="none" stroke="#63b8ff" d="M329.72,-342.11C336.95,-378.01 360.01,-469.11 415,-519 417.58,-521.34 420.41,-523.46 423.39,-525.37"/>
<polygon fill="#63b8ff" stroke="#63b8ff" points="421.71,-528.44 432.16,-530.24 425.11,-522.32 421.71,-528.44"/>
</a>
</g>
</g>
<!-- Node6&#45;&gt;Node8 -->
<g id="edge11_Node000006_Node000008" class="edge">
<title>Node6&#45;&gt;Node8</title>
<g id="a_edge11_Node000006_Node000008"><a xlink:title=" ">
<path fill="none" stroke="#63b8ff" d="M332.36,-342.43C343.3,-371.71 370.94,-435.56 415,-471 417.59,-473.08 420.36,-474.99 423.27,-476.73"/>
<polygon fill="#63b8ff" stroke="#63b8ff" points="421.81,-479.92 432.29,-481.49 425.08,-473.73 421.81,-479.92"/>
</a>
</g>
</g>
<!-- Node6&#45;&gt;Node9 -->
<g id="edge13_Node000006_Node000009" class="edge">
<title>Node6&#45;&gt;Node9</title>
<g id="a_edge13_Node000006_Node000009"><a xlink:title=" ">
<path fill="none" stroke="#63b8ff" d="M337.16,-342.16C351.95,-363.13 381.35,-400.92 415,-423 417.58,-424.7 420.3,-426.29 423.11,-427.77"/>
<polygon fill="#63b8ff" stroke="#63b8ff" points="421.76,-431.01 432.28,-432.19 424.79,-424.7 421.76,-431.01"/>
</a>
</g>
</g>
<!-- Node6&#45;&gt;Node10 -->
<g id="edge15_Node000006_Node000010" class="edge">
<title>Node6&#45;&gt;Node10</title>
<g id="a_edge15_Node000006_Node000010"><a xlink:title=" ">
<path fill="none" stroke="#63b8ff" d="M351.85,-342.01C369.18,-352.11 393.03,-365.3 415,-375 419.12,-376.82 423.42,-378.59 427.78,-380.3"/>
<polygon fill="#63b8ff" stroke="#63b8ff" points="426.76,-383.66 437.36,-383.91 429.24,-377.11 426.76,-383.66"/>
</a>
</g>
</g>
<!-- Node6&#45;&gt;Node11 -->
<g id="edge17_Node000006_Node000011" class="edge">
<title>Node6&#45;&gt;Node11</title>
<g id="a_edge17_Node000006_Node000011"><a xlink:title=" ">
<path fill="none" stroke="#63b8ff" d="M379.01,-334.93C392.78,-337.02 407.79,-339.31 422.05,-341.48"/>
<polygon fill="#63b8ff" stroke="#63b8ff" points="421.86,-345 432.28,-343.04 422.92,-338.08 421.86,-345"/>
</a>
</g>
</g>
<!-- Node6&#45;&gt;Node12 -->
<g id="edge19_Node000006_Node000012" class="edge">
<title>Node6&#45;&gt;Node12</title>
<g id="a_edge19_Node000006_Node000012"><a xlink:title=" ">
<path fill="none" stroke="#63b8ff" d="M379.01,-319.07C392.78,-316.98 407.79,-314.69 422.05,-312.52"/>
<polygon fill="#63b8ff" stroke="#63b8ff" points="422.92,-315.92 432.28,-310.96 421.86,-309 422.92,-315.92"/>
</a>
</g>
</g>
<!-- Node6&#45;&gt;Node13 -->
<g id="edge21_Node000006_Node000013" class="edge">
<title>Node6&#45;&gt;Node13</title>
<g id="a_edge21_Node000006_Node000013"><a xlink:title=" ">
<path fill="none" stroke="#63b8ff" d="M351.85,-311.99C369.18,-301.89 393.03,-288.7 415,-279 419.12,-277.18 423.42,-275.41 427.78,-273.7"/>
<polygon fill="#63b8ff" stroke="#63b8ff" points="429.24,-276.89 437.36,-270.09 426.76,-270.34 429.24,-276.89"/>
</a>
</g>
</g>
<!-- Node6&#45;&gt;Node14 -->
<g id="edge23_Node000006_Node000014" class="edge">
<title>Node6&#45;&gt;Node14</title>
<g id="a_edge23_Node000006_Node000014"><a xlink:title=" ">
<path fill="none" stroke="#63b8ff" d="M337.16,-311.84C351.95,-290.87 381.35,-253.08 415,-231 417.58,-229.3 420.3,-227.71 423.11,-226.23"/>
<polygon fill="#63b8ff" stroke="#63b8ff" points="424.79,-229.3 432.28,-221.81 421.76,-222.99 424.79,-229.3"/>
</a>
</g>
</g>
<!-- Node6&#45;&gt;Node15 -->
<g id="edge25_Node000006_Node000015" class="edge">
<title>Node6&#45;&gt;Node15</title>
<g id="a_edge25_Node000006_Node000015"><a xlink:title=" ">
<path fill="none" stroke="#63b8ff" d="M332.36,-311.57C343.3,-282.29 370.94,-218.44 415,-183 417.59,-180.92 420.36,-179.01 423.27,-177.27"/>
<polygon fill="#63b8ff" stroke="#63b8ff" points="425.08,-180.27 432.29,-172.51 421.81,-174.08 425.08,-180.27"/>
</a>
</g>
</g>
<!-- Node6&#45;&gt;Node16 -->
<g id="edge27_Node000006_Node000016" class="edge">
<title>Node6&#45;&gt;Node16</title>
<g id="a_edge27_Node000006_Node000016"><a xlink:title=" ">
<path fill="none" stroke="#63b8ff" d="M329.72,-311.89C336.95,-275.99 360.01,-184.89 415,-135 417.58,-132.66 420.41,-130.54 423.39,-128.63"/>
<polygon fill="#63b8ff" stroke="#63b8ff" points="425.11,-131.68 432.16,-123.76 421.71,-125.56 425.11,-131.68"/>
</a>
</g>
</g>
<!-- Node6&#45;&gt;Node17 -->
<g id="edge29_Node000006_Node000017" class="edge">
<title>Node6&#45;&gt;Node17</title>
<g id="a_edge29_Node000006_Node000017"><a xlink:title=" ">
<path fill="none" stroke="#63b8ff" d="M328.14,-311.97C332.12,-270.25 348.95,-151.81 415,-87 417.54,-84.51 420.34,-82.28 423.33,-80.28"/>
<polygon fill="#63b8ff" stroke="#63b8ff" points="425.22,-83.23 432.16,-75.23 421.74,-77.15 425.22,-83.23"/>
</a>
</g>
</g>
<!-- Node6&#45;&gt;Node18 -->
<g id="edge31_Node000006_Node000018" class="edge">
<title>Node6&#45;&gt;Node18</title>
<g id="a_edge31_Node000006_Node000018"><a xlink:title=" ">
<path fill="none" stroke="#63b8ff" d="M327.08,-311.81C328.15,-264.61 337.87,-118.96 415,-39 417.51,-36.39 420.32,-34.07 423.33,-32"/>
<polygon fill="#63b8ff" stroke="#63b8ff" points="425.38,-34.86 432.26,-26.81 421.86,-28.81 425.38,-34.86"/>
</a>
</g>
</g>
<!-- Node7&#45;&gt;Node4 -->
<g id="edge10_Node000007_Node000004" class="edge">
<title>Node7&#45;&gt;Node4</title>
<g id="a_edge10_Node000007_Node000004"><a xlink:title=" ">
<path fill="none" stroke="#63b8ff" d="M538.84,-530.24C545.07,-527.24 550.99,-523.55 556,-519 606.48,-473.2 630.05,-392.68 639.17,-352.01"/>
<polygon fill="#63b8ff" stroke="#63b8ff" points="642.62,-352.62 641.28,-342.11 635.77,-351.17 642.62,-352.62"/>
</a>
</g>
</g>
<!-- Node8&#45;&gt;Node4 -->
<g id="edge12_Node000008_Node000004" class="edge">
<title>Node8&#45;&gt;Node4</title>
<g id="a_edge12_Node000008_Node000004"><a xlink:title=" ">
<path fill="none" stroke="#63b8ff" d="M538.71,-481.49C544.89,-478.62 550.83,-475.16 556,-471 595.76,-439.02 622.15,-383.91 634.96,-351.94"/>
<polygon fill="#63b8ff" stroke="#63b8ff" points="638.29,-353.02 638.64,-342.43 631.77,-350.49 638.29,-353.02"/>
</a>
</g>
</g>
<!-- Node9&#45;&gt;Node4 -->
<g id="edge14_Node000009_Node000004" class="edge">
<title>Node9&#45;&gt;Node4</title>
<g id="a_edge14_Node000009_Node000004"><a xlink:title=" ">
<path fill="none" stroke="#63b8ff" d="M538.72,-432.19C544.76,-429.55 550.66,-426.5 556,-423 585.57,-403.6 611.87,-372.06 627.84,-350.46"/>
<polygon fill="#63b8ff" stroke="#63b8ff" points="630.82,-352.31 633.84,-342.16 625.15,-348.21 630.82,-352.31"/>
</a>
</g>
</g>
<!-- Node10&#45;&gt;Node4 -->
<g id="edge16_Node000010_Node000004" class="edge">
<title>Node10&#45;&gt;Node4</title>
<g id="a_edge16_Node000010_Node000004"><a xlink:title=" ">
<path fill="none" stroke="#63b8ff" d="M533.64,-383.91C541.2,-381.16 548.88,-378.15 556,-375 574.36,-366.89 594.05,-356.34 610.13,-347.2"/>
<polygon fill="#63b8ff" stroke="#63b8ff" points="612.23,-350.03 619.15,-342.01 608.74,-343.96 612.23,-350.03"/>
</a>
</g>
</g>
<!-- Node11&#45;&gt;Node4 -->
<g id="edge18_Node000011_Node000004" class="edge">
<title>Node11&#45;&gt;Node4</title>
<g id="a_edge18_Node000011_Node000004"><a xlink:title=" ">
<path fill="none" stroke="#63b8ff" d="M538.51,-343.07C552.28,-340.98 567.29,-338.69 581.55,-336.52"/>
<polygon fill="#63b8ff" stroke="#63b8ff" points="582.42,-339.92 591.78,-334.96 581.36,-333 582.42,-339.92"/>
</a>
</g>
</g>
<!-- Node12&#45;&gt;Node4 -->
<g id="edge20_Node000012_Node000004" class="edge">
<title>Node12&#45;&gt;Node4</title>
<g id="a_edge20_Node000012_Node000004"><a xlink:title=" ">
<path fill="none" stroke="#63b8ff" d="M538.51,-310.93C552.28,-313.02 567.29,-315.31 581.55,-317.48"/>
<polygon fill="#63b8ff" stroke="#63b8ff" points="581.36,-321 591.78,-319.04 582.42,-314.08 581.36,-321"/>
</a>
</g>
</g>
<!-- Node13&#45;&gt;Node4 -->
<g id="edge22_Node000013_Node000004" class="edge">
<title>Node13&#45;&gt;Node4</title>
<g id="a_edge22_Node000013_Node000004"><a xlink:title=" ">
<path fill="none" stroke="#63b8ff" d="M533.64,-270.09C541.2,-272.84 548.88,-275.85 556,-279 574.36,-287.11 594.05,-297.66 610.13,-306.8"/>
<polygon fill="#63b8ff" stroke="#63b8ff" points="608.74,-310.04 619.15,-311.99 612.23,-303.97 608.74,-310.04"/>
</a>
</g>
</g>
<!-- Node14&#45;&gt;Node4 -->
<g id="edge24_Node000014_Node000004" class="edge">
<title>Node14&#45;&gt;Node4</title>
<g id="a_edge24_Node000014_Node000004"><a xlink:title=" ">
<path fill="none" stroke="#63b8ff" d="M538.72,-221.81C544.76,-224.45 550.66,-227.5 556,-231 585.57,-250.4 611.87,-281.94 627.84,-303.54"/>
<polygon fill="#63b8ff" stroke="#63b8ff" points="625.15,-305.79 633.84,-311.84 630.82,-301.69 625.15,-305.79"/>
</a>
</g>
</g>
<!-- Node15&#45;&gt;Node4 -->
<g id="edge26_Node000015_Node000004" class="edge">
<title>Node15&#45;&gt;Node4</title>
<g id="a_edge26_Node000015_Node000004"><a xlink:title=" ">
<path fill="none" stroke="#63b8ff" d="M538.71,-172.51C544.89,-175.38 550.83,-178.84 556,-183 595.76,-214.98 622.15,-270.09 634.96,-302.06"/>
<polygon fill="#63b8ff" stroke="#63b8ff" points="631.77,-303.51 638.64,-311.57 638.29,-300.98 631.77,-303.51"/>
</a>
</g>
</g>
<!-- Node16&#45;&gt;Node4 -->
<g id="edge28_Node000016_Node000004" class="edge">
<title>Node16&#45;&gt;Node4</title>
<g id="a_edge28_Node000016_Node000004"><a xlink:title=" ">
<path fill="none" stroke="#63b8ff" d="M538.84,-123.76C545.07,-126.76 550.99,-130.45 556,-135 606.48,-180.8 630.05,-261.32 639.17,-301.99"/>
<polygon fill="#63b8ff" stroke="#63b8ff" points="635.77,-302.83 641.28,-311.89 642.62,-301.38 635.77,-302.83"/>
</a>
</g>
</g>
<!-- Node17&#45;&gt;Node4 -->
<g id="edge30_Node000017_Node000004" class="edge">
<title>Node17&#45;&gt;Node4</title>
<g id="a_edge30_Node000017_Node000004"><a xlink:title=" ">
<path fill="none" stroke="#63b8ff" d="M538.84,-75.23C545.14,-78.31 551.08,-82.17 556,-87 617.27,-147.12 636.19,-253.41 641.78,-301.77"/>
<polygon fill="#63b8ff" stroke="#63b8ff" points="638.33,-302.39 642.86,-311.97 645.29,-301.66 638.33,-302.39"/>
</a>
</g>
</g>
<!-- Node18&#45;&gt;Node4 -->
<g id="edge32_Node000018_Node000004" class="edge">
<title>Node18&#45;&gt;Node4</title>
<g id="a_edge32_Node000018_Node000004"><a xlink:title=" ">
<path fill="none" stroke="#63b8ff" d="M538.74,-26.81C545.14,-29.96 551.13,-33.95 556,-39 628.16,-113.81 641.32,-246.11 643.59,-301.5"/>
<polygon fill="#63b8ff" stroke="#63b8ff" points="640.1,-301.92 643.92,-311.81 647.1,-301.7 640.1,-301.92"/>
</a>
</g>
</g>
</g>
</svg>
