<?xml version="1.0" encoding="UTF-8" standalone="no"?>
<!DOCTYPE svg PUBLIC "-//W3C//DTD SVG 1.1//EN"
 "http://www.w3.org/Graphics/SVG/1.1/DTD/svg11.dtd">
<!-- Generated by graphviz version 2.43.0 (0)
 -->
<!-- Title: lci::alltoall Pages: 1 -->
<svg width="712pt" height="310pt"
 viewBox="0.00 0.00 712.00 309.50" xmlns="http://www.w3.org/2000/svg" xmlns:xlink="http://www.w3.org/1999/xlink">
<g id="graph0" class="graph" transform="scale(1 1) rotate(0) translate(4 305.5)">
<title>lci::alltoall</title>
<!-- Node1 -->
<g id="Node000001" class="node">
<title>Node1</title>
<g id="a_Node000001"><a xlink:title=" ">
<polygon fill="#999999" stroke="#666666" points="68,-156 0,-156 0,-137 68,-137 68,-156"/>
<text text-anchor="middle" x="34" y="-144" font-family="Helvetica,sans-Serif" font-size="10.00">lci::alltoall</text>
</a>
</g>
</g>
<!-- Node2 -->
<g id="Node000002" class="node">
<title>Node2</title>
<g id="a_Node000002"><a xlink:href="../../dc/de4/classlci_1_1alltoall__x.html#a16f2e3dd4be00496842917d412a4bdcd" target="_top" xlink:title=" ">
<polygon fill="white" stroke="#666666" points="206,-156 104,-156 104,-137 206,-137 206,-156"/>
<text text-anchor="middle" x="155" y="-144" font-family="Helvetica,sans-Serif" font-size="10.00">lci::alltoall_x::call</text>
</a>
</g>
</g>
<!-- Node1&#45;&gt;Node2 -->
<g id="edge1_Node000001_Node000002" class="edge">
<title>Node1&#45;&gt;Node2</title>
<g id="a_edge1_Node000001_Node000002"><a xlink:title=" ">
<path fill="none" stroke="#63b8ff" d="M68.15,-146.5C76.06,-146.5 84.74,-146.5 93.46,-146.5"/>
<polygon fill="#63b8ff" stroke="#63b8ff" points="93.66,-150 103.66,-146.5 93.66,-143 93.66,-150"/>
</a>
</g>
</g>
<!-- Node3 -->
<g id="Node000003" class="node">
<title>Node3</title>
<g id="a_Node000003"><a xlink:href="../../dc/de4/classlci_1_1alltoall__x.html#af5d3b724ba1799bb4c9bd02922722a16" target="_top" xlink:title=" ">
<polygon fill="white" stroke="#666666" points="371,-156 242,-156 242,-137 371,-137 371,-156"/>
<text text-anchor="middle" x="306.5" y="-144" font-family="Helvetica,sans-Serif" font-size="10.00">lci::alltoall_x::call_impl</text>
</a>
</g>
</g>
<!-- Node2&#45;&gt;Node3 -->
<g id="edge2_Node000002_Node000003" class="edge">
<title>Node2&#45;&gt;Node3</title>
<g id="a_edge2_Node000002_Node000003"><a xlink:title=" ">
<path fill="none" stroke="#63b8ff" d="M206.2,-146.5C214.43,-146.5 223.11,-146.5 231.77,-146.5"/>
<polygon fill="#63b8ff" stroke="#63b8ff" points="231.89,-150 241.89,-146.5 231.89,-143 231.89,-150"/>
</a>
</g>
</g>
<!-- Node4 -->
<g id="Node000004" class="node">
<title>Node4</title>
<g id="a_Node000004"><a xlink:href="../../dc/de4/classlci_1_1alltoall__x.html#ad34567fe45c43f861cca5dc032a3386f" target="_top" xlink:title=" ">
<polygon fill="white" stroke="#666666" points="528.5,-301.5 416.5,-301.5 416.5,-271.5 528.5,-271.5 528.5,-301.5"/>
<text text-anchor="start" x="424.5" y="-289.5" font-family="Helvetica,sans-Serif" font-size="10.00">lci::alltoall_x::comp</text>
<text text-anchor="middle" x="472.5" y="-278.5" font-family="Helvetica,sans-Serif" font-size="10.00">_semantic</text>
</a>
</g>
</g>
<!-- Node2&#45;&gt;Node4 -->
<g id="edge19_Node000002_Node000004" class="edge">
<title>Node2&#45;&gt;Node4</title>
<g id="a_edge19_Node000002_Node000004"><a xlink:title=" ">
<path fill="none" stroke="#63b8ff" d="M162.56,-156.08C175.5,-174.22 206.21,-213.52 242,-233.5 293,-261.97 358.54,-275.17 406.51,-281.27"/>
<polygon fill="#63b8ff" stroke="#63b8ff" points="406.13,-284.75 416.47,-282.47 406.96,-277.8 406.13,-284.75"/>
</a>
</g>
</g>
<!-- Node6 -->
<g id="Node000006" class="node">
<title>Node6</title>
<g id="a_Node000006"><a xlink:href="../../dc/de4/classlci_1_1alltoall__x.html#a1fb83f4c2992b583aaf8ee34c99cea6b" target="_top" xlink:title=" ">
<polygon fill="white" stroke="#666666" points="531,-253 414,-253 414,-234 531,-234 531,-253"/>
<text text-anchor="middle" x="472.5" y="-241" font-family="Helvetica,sans-Serif" font-size="10.00">lci::alltoall_x::device</text>
</a>
</g>
</g>
<!-- Node2&#45;&gt;Node6 -->
<g id="edge20_Node000002_Node000006" class="edge">
<title>Node2&#45;&gt;Node6</title>
<g id="a_edge20_Node000002_Node000006"><a xlink:title=" ">
<path fill="none" stroke="#63b8ff" d="M166.8,-156.05C182.29,-169.2 212.24,-192.58 242,-204.5 293.91,-225.28 356.74,-234.99 403.53,-239.53"/>
<polygon fill="#63b8ff" stroke="#63b8ff" points="403.28,-243.02 413.56,-240.45 403.92,-236.05 403.28,-243.02"/>
</a>
</g>
</g>
<!-- Node7 -->
<g id="Node000007" class="node">
<title>Node7</title>
<g id="a_Node000007"><a xlink:href="../../dc/de4/classlci_1_1alltoall__x.html#a95daea4dabf6e25c1e6587860671d6f3" target="_top" xlink:title=" ">
<polygon fill="white" stroke="#666666" points="536.5,-216 408.5,-216 408.5,-197 536.5,-197 536.5,-216"/>
<text text-anchor="middle" x="472.5" y="-204" font-family="Helvetica,sans-Serif" font-size="10.00">lci::alltoall_x::endpoint</text>
</a>
</g>
</g>
<!-- Node2&#45;&gt;Node7 -->
<g id="edge21_Node000002_Node000007" class="edge">
<title>Node2&#45;&gt;Node7</title>
<g id="a_edge21_Node000002_Node000007"><a xlink:title=" ">
<path fill="none" stroke="#63b8ff" d="M174.95,-156C192.04,-164.14 218.09,-175.46 242,-181.5 293.3,-194.46 352.72,-200.7 398.25,-203.71"/>
<polygon fill="#63b8ff" stroke="#63b8ff" points="398.13,-207.21 408.33,-204.34 398.56,-200.22 398.13,-207.21"/>
</a>
</g>
</g>
<!-- Node8 -->
<g id="Node000008" class="node">
<title>Node8</title>
<g id="a_Node000008"><a xlink:href="../../dc/de4/classlci_1_1alltoall__x.html#a92f149fc6b919ba63400773e8cb89020" target="_top" xlink:title=" ">
<polygon fill="white" stroke="#666666" points="538,-178.5 407,-178.5 407,-148.5 538,-148.5 538,-178.5"/>
<text text-anchor="start" x="415" y="-166.5" font-family="Helvetica,sans-Serif" font-size="10.00">lci::alltoall_x::matching</text>
<text text-anchor="middle" x="472.5" y="-155.5" font-family="Helvetica,sans-Serif" font-size="10.00">_engine</text>
</a>
</g>
</g>
<!-- Node2&#45;&gt;Node8 -->
<g id="edge22_Node000002_Node000008" class="edge">
<title>Node2&#45;&gt;Node8</title>
<g id="a_edge22_Node000002_Node000008"><a xlink:title=" ">
<path fill="none" stroke="#63b8ff" d="M190.86,-156.01C206.39,-159.77 224.98,-163.64 242,-165.5 293.45,-171.12 351.77,-170.52 396.74,-168.57"/>
<polygon fill="#63b8ff" stroke="#63b8ff" points="397.17,-172.05 407,-168.09 396.85,-165.06 397.17,-172.05"/>
</a>
</g>
</g>
<!-- Node9 -->
<g id="Node000009" class="node">
<title>Node9</title>
<g id="a_Node000009"><a xlink:href="../../dc/de4/classlci_1_1alltoall__x.html#a6764df532d3a7dad34894783413ac39e" target="_top" xlink:title=" ">
<polygon fill="white" stroke="#666666" points="533.5,-130 411.5,-130 411.5,-111 533.5,-111 533.5,-130"/>
<text text-anchor="middle" x="472.5" y="-118" font-family="Helvetica,sans-Serif" font-size="10.00">lci::alltoall_x::recvbuf</text>
</a>
</g>
</g>
<!-- Node2&#45;&gt;Node9 -->
<g id="edge23_Node000002_Node000009" class="edge">
<title>Node2&#45;&gt;Node9</title>
<g id="a_edge23_Node000002_Node000009"><a xlink:title=" ">
<path fill="none" stroke="#63b8ff" d="M194.72,-136.92C209.43,-133.67 226.4,-130.39 242,-128.5 295.17,-122.06 355.74,-120.17 401.29,-119.84"/>
<polygon fill="#63b8ff" stroke="#63b8ff" points="401.38,-123.34 411.36,-119.79 401.35,-116.34 401.38,-123.34"/>
</a>
</g>
</g>
<!-- Node10 -->
<g id="Node000010" class="node">
<title>Node10</title>
<g id="a_Node000010"><a xlink:href="../../dc/de4/classlci_1_1alltoall__x.html#a9c18befd13d2d41639a27b531a634da7" target="_top" xlink:title=" ">
<polygon fill="white" stroke="#666666" points="534,-93 411,-93 411,-74 534,-74 534,-93"/>
<text text-anchor="middle" x="472.5" y="-81" font-family="Helvetica,sans-Serif" font-size="10.00">lci::alltoall_x::runtime</text>
</a>
</g>
</g>
<!-- Node2&#45;&gt;Node10 -->
<g id="edge24_Node000002_Node000010" class="edge">
<title>Node2&#45;&gt;Node10</title>
<g id="a_edge24_Node000002_Node000010"><a xlink:title=" ">
<path fill="none" stroke="#63b8ff" d="M178.6,-136.89C195.71,-129.98 219.97,-120.94 242,-115.5 294.47,-102.54 355.07,-94.37 400.82,-89.53"/>
<polygon fill="#63b8ff" stroke="#63b8ff" points="401.34,-92.99 410.93,-88.49 400.63,-86.03 401.34,-92.99"/>
</a>
</g>
</g>
<!-- Node11 -->
<g id="Node000011" class="node">
<title>Node11</title>
<g id="a_Node000011"><a xlink:href="../../dc/de4/classlci_1_1alltoall__x.html#ab6c9dc7450bfed6178e69c9b73af7a0a" target="_top" xlink:title=" ">
<polygon fill="white" stroke="#666666" points="534.5,-56 410.5,-56 410.5,-37 534.5,-37 534.5,-56"/>
<text text-anchor="middle" x="472.5" y="-44" font-family="Helvetica,sans-Serif" font-size="10.00">lci::alltoall_x::sendbuf</text>
</a>
</g>
</g>
<!-- Node2&#45;&gt;Node11 -->
<g id="edge25_Node000002_Node000011" class="edge">
<title>Node2&#45;&gt;Node11</title>
<g id="a_edge25_Node000002_Node000011"><a xlink:title=" ">
<path fill="none" stroke="#63b8ff" d="M167.12,-136.97C182.75,-124.1 212.62,-101.41 242,-89.5 292.75,-68.92 353.84,-58.09 400.23,-52.44"/>
<polygon fill="#63b8ff" stroke="#63b8ff" points="400.67,-55.92 410.2,-51.28 399.86,-48.96 400.67,-55.92"/>
</a>
</g>
</g>
<!-- Node12 -->
<g id="Node000012" class="node">
<title>Node12</title>
<g id="a_Node000012"><a xlink:href="../../dc/de4/classlci_1_1alltoall__x.html#a4e05793db09ec7c7664b5aa5a5eb9bad" target="_top" xlink:title=" ">
<polygon fill="white" stroke="#666666" points="524.5,-19 420.5,-19 420.5,0 524.5,0 524.5,-19"/>
<text text-anchor="middle" x="472.5" y="-7" font-family="Helvetica,sans-Serif" font-size="10.00">lci::alltoall_x::size</text>
</a>
</g>
</g>
<!-- Node2&#45;&gt;Node12 -->
<g id="edge26_Node000002_Node000012" class="edge">
<title>Node2&#45;&gt;Node12</title>
<g id="a_edge26_Node000002_Node000012"><a xlink:title=" ">
<path fill="none" stroke="#63b8ff" d="M161.71,-136.9C173.83,-117.48 204.11,-73.57 242,-52.5 294.09,-23.53 362.06,-13.65 410.48,-10.49"/>
<polygon fill="#63b8ff" stroke="#63b8ff" points="410.72,-13.99 420.5,-9.92 410.31,-7 410.72,-13.99"/>
</a>
</g>
</g>
<!-- Node3&#45;&gt;Node4 -->
<g id="edge3_Node000003_Node000004" class="edge">
<title>Node3&#45;&gt;Node4</title>
<g id="a_edge3_Node000003_Node000004"><a xlink:title=" ">
<path fill="none" stroke="#63b8ff" d="M313.25,-156.04C326.87,-177.88 363.26,-231.99 407,-262.5 409.1,-263.97 411.3,-265.35 413.57,-266.67"/>
<polygon fill="#63b8ff" stroke="#63b8ff" points="412.12,-269.86 422.6,-271.37 415.35,-263.65 412.12,-269.86"/>
</a>
</g>
</g>
<!-- Node3&#45;&gt;Node6 -->
<g id="edge5_Node000003_Node000006" class="edge">
<title>Node3&#45;&gt;Node6</title>
<g id="a_edge5_Node000003_Node000006"><a xlink:title=" ">
<path fill="none" stroke="#63b8ff" d="M316.75,-156.01C333.33,-172.53 369.86,-206.56 407,-225.5 410.57,-227.32 414.34,-228.98 418.21,-230.48"/>
<polygon fill="#63b8ff" stroke="#63b8ff" points="417.33,-233.88 427.92,-233.91 419.66,-227.28 417.33,-233.88"/>
</a>
</g>
</g>
<!-- Node3&#45;&gt;Node7 -->
<g id="edge7_Node000003_Node000007" class="edge">
<title>Node3&#45;&gt;Node7</title>
<g id="a_edge7_Node000003_Node000007"><a xlink:title=" ">
<path fill="none" stroke="#63b8ff" d="M328.99,-156.12C348.97,-164.88 379.69,-177.88 407,-187.5 413.36,-189.74 420.14,-191.94 426.82,-194"/>
<polygon fill="#63b8ff" stroke="#63b8ff" points="425.89,-197.37 436.47,-196.9 427.91,-190.67 425.89,-197.37"/>
</a>
</g>
</g>
<!-- Node3&#45;&gt;Node8 -->
<g id="edge9_Node000003_Node000008" class="edge">
<title>Node3&#45;&gt;Node8</title>
<g id="a_edge9_Node000003_Node000008"><a xlink:title=" ">
<path fill="none" stroke="#63b8ff" d="M371.38,-153.12C379.78,-153.99 388.45,-154.89 397.01,-155.78"/>
<polygon fill="#63b8ff" stroke="#63b8ff" points="396.68,-159.26 406.99,-156.81 397.4,-152.3 396.68,-159.26"/>
</a>
</g>
</g>
<!-- Node3&#45;&gt;Node9 -->
<g id="edge11_Node000003_Node000009" class="edge">
<title>Node3&#45;&gt;Node9</title>
<g id="a_edge11_Node000003_Node000009"><a xlink:title=" ">
<path fill="none" stroke="#63b8ff" d="M367.64,-136.97C378.55,-135.24 390.03,-133.42 401.21,-131.64"/>
<polygon fill="#63b8ff" stroke="#63b8ff" points="402.04,-135.06 411.37,-130.03 400.95,-128.14 402.04,-135.06"/>
</a>
</g>
</g>
<!-- Node3&#45;&gt;Node10 -->
<g id="edge13_Node000003_Node000010" class="edge">
<title>Node3&#45;&gt;Node10</title>
<g id="a_edge13_Node000003_Node000010"><a xlink:title=" ">
<path fill="none" stroke="#63b8ff" d="M327.01,-136.97C346.85,-127.49 378.63,-112.9 407,-102.5 413.11,-100.26 419.63,-98.09 426.07,-96.07"/>
<polygon fill="#63b8ff" stroke="#63b8ff" points="427.53,-99.29 436.08,-93.04 425.5,-92.59 427.53,-99.29"/>
</a>
</g>
</g>
<!-- Node3&#45;&gt;Node11 -->
<g id="edge15_Node000003_Node000011" class="edge">
<title>Node3&#45;&gt;Node11</title>
<g id="a_edge15_Node000003_Node000011"><a xlink:title=" ">
<path fill="none" stroke="#63b8ff" d="M316.73,-136.79C333.27,-119.92 369.75,-85.12 407,-65.5 411.23,-63.27 415.76,-61.27 420.38,-59.48"/>
<polygon fill="#63b8ff" stroke="#63b8ff" points="421.68,-62.73 429.94,-56.09 419.34,-56.13 421.68,-62.73"/>
</a>
</g>
</g>
<!-- Node3&#45;&gt;Node12 -->
<g id="edge17_Node000003_Node000012" class="edge">
<title>Node3&#45;&gt;Node12</title>
<g id="a_edge17_Node000003_Node000012"><a xlink:title=" ">
<path fill="none" stroke="#63b8ff" d="M312.86,-136.91C325.93,-114.45 361.67,-58.09 407,-28.5 410.17,-26.43 413.57,-24.58 417.09,-22.93"/>
<polygon fill="#63b8ff" stroke="#63b8ff" points="418.71,-26.05 426.62,-19 416.04,-19.58 418.71,-26.05"/>
</a>
</g>
</g>
<!-- Node5 -->
<g id="Node000005" class="node">
<title>Node5</title>
<g id="a_Node000005"><a xlink:href="../../dc/de4/classlci_1_1alltoall__x.html#a631f159f788f1b9da3ae723171937a82" target="_top" xlink:title=" ">
<polygon fill="white" stroke="#666666" points="704,-151 574,-151 574,-132 704,-132 704,-151"/>
<text text-anchor="middle" x="639" y="-139" font-family="Helvetica,sans-Serif" font-size="10.00">lci::alltoall_x::alltoall_x</text>
</a>
</g>
</g>
<!-- Node4&#45;&gt;Node5 -->
<g id="edge4_Node000004_Node000005" class="edge">
<title>Node4&#45;&gt;Node5</title>
<g id="a_edge4_Node000004_Node000005"><a xlink:title=" ">
<path fill="none" stroke="#63b8ff" d="M522.46,-271.46C527.92,-268.87 533.23,-265.89 538,-262.5 577.96,-234.09 611.14,-185.85 627.34,-159.68"/>
<polygon fill="#63b8ff" stroke="#63b8ff" points="630.34,-161.49 632.52,-151.12 624.35,-157.87 630.34,-161.49"/>
</a>
</g>
</g>
<!-- Node6&#45;&gt;Node5 -->
<g id="edge6_Node000006_Node000005" class="edge">
<title>Node6&#45;&gt;Node5</title>
<g id="a_edge6_Node000006_Node000005"><a xlink:title=" ">
<path fill="none" stroke="#63b8ff" d="M517.5,-233.95C524.55,-231.65 531.62,-228.86 538,-225.5 571.52,-207.82 603.89,-177.42 622.33,-158.45"/>
<polygon fill="#63b8ff" stroke="#63b8ff" points="624.98,-160.74 629.34,-151.09 619.91,-155.92 624.98,-160.74"/>
</a>
</g>
</g>
<!-- Node7&#45;&gt;Node5 -->
<g id="edge8_Node000007_Node000005" class="edge">
<title>Node7&#45;&gt;Node5</title>
<g id="a_edge8_Node000007_Node000005"><a xlink:title=" ">
<path fill="none" stroke="#63b8ff" d="M509.29,-196.96C518.72,-194.17 528.82,-190.94 538,-187.5 562.91,-178.16 590.3,-165.37 610.11,-155.65"/>
<polygon fill="#63b8ff" stroke="#63b8ff" points="611.77,-158.73 619.18,-151.15 608.66,-152.46 611.77,-158.73"/>
</a>
</g>
</g>
<!-- Node8&#45;&gt;Node5 -->
<g id="edge10_Node000008_Node000005" class="edge">
<title>Node8&#45;&gt;Node5</title>
<g id="a_edge10_Node000008_Node000005"><a xlink:title=" ">
<path fill="none" stroke="#63b8ff" d="M538.04,-154.87C546.52,-153.73 555.26,-152.57 563.87,-151.41"/>
<polygon fill="#63b8ff" stroke="#63b8ff" points="564.47,-154.87 573.91,-150.07 563.54,-147.93 564.47,-154.87"/>
</a>
</g>
</g>
<!-- Node9&#45;&gt;Node5 -->
<g id="edge12_Node000009_Node000005" class="edge">
<title>Node9&#45;&gt;Node5</title>
<g id="a_edge12_Node000009_Node000005"><a xlink:title=" ">
<path fill="none" stroke="#63b8ff" d="M533.82,-128.2C543.59,-129.45 553.8,-130.75 563.84,-132.03"/>
<polygon fill="#63b8ff" stroke="#63b8ff" points="563.45,-135.51 573.81,-133.31 564.34,-128.57 563.45,-135.51"/>
</a>
</g>
</g>
<!-- Node10&#45;&gt;Node5 -->
<g id="edge14_Node000010_Node000005" class="edge">
<title>Node10&#45;&gt;Node5</title>
<g id="a_edge14_Node000010_Node000005"><a xlink:title=" ">
<path fill="none" stroke="#63b8ff" d="M507.82,-93.02C517.62,-95.9 528.28,-99.18 538,-102.5 560.93,-110.33 586.37,-120.27 605.85,-128.15"/>
<polygon fill="#63b8ff" stroke="#63b8ff" points="604.59,-131.42 615.17,-131.95 607.23,-124.94 604.59,-131.42"/>
</a>
</g>
</g>
<!-- Node11&#45;&gt;Node5 -->
<g id="edge16_Node000011_Node000005" class="edge">
<title>Node11&#45;&gt;Node5</title>
<g id="a_edge16_Node000011_Node000005"><a xlink:title=" ">
<path fill="none" stroke="#63b8ff" d="M514.28,-56.07C522.35,-58.63 530.6,-61.76 538,-65.5 569.7,-81.53 601.55,-107.93 620.52,-125.01"/>
<polygon fill="#63b8ff" stroke="#63b8ff" points="618.32,-127.74 628.05,-131.92 623.05,-122.59 618.32,-127.74"/>
</a>
</g>
</g>
<!-- Node12&#45;&gt;Node5 -->
<g id="edge18_Node000012_Node000005" class="edge">
<title>Node12&#45;&gt;Node5</title>
<g id="a_edge18_Node000012_Node000005"><a xlink:title=" ">
<path fill="none" stroke="#63b8ff" d="M517.96,-19.01C524.96,-21.5 531.89,-24.62 538,-28.5 577.2,-53.43 610.08,-98.05 626.58,-123.11"/>
<polygon fill="#63b8ff" stroke="#63b8ff" points="623.74,-125.16 632.08,-131.68 629.63,-121.37 623.74,-125.16"/>
</a>
</g>
</g>
</g>
</svg>
