<?xml version="1.0" encoding="UTF-8" standalone="no"?>
<!DOCTYPE svg PUBLIC "-//W3C//DTD SVG 1.1//EN"
 "http://www.w3.org/Graphics/SVG/1.1/DTD/svg11.dtd">
<!-- Generated by graphviz version 2.43.0 (0)
 -->
<!-- Title: lci::get_default_matching_engine_x::operator() Pages: 1 -->
<svg width="852pt" height="66pt"
 viewBox="0.00 0.00 852.00 65.50" xmlns="http://www.w3.org/2000/svg" xmlns:xlink="http://www.w3.org/1999/xlink">
<g id="graph0" class="graph" transform="scale(1 1) rotate(0) translate(4 61.5)">
<title>lci::get_default_matching_engine_x::operator()</title>
<!-- Node1 -->
<g id="Node000001" class="node">
<title>Node1</title>
<g id="a_Node000001"><a xlink:title=" ">
<polygon fill="#999999" stroke="#666666" points="140,-35.5 0,-35.5 0,-5.5 140,-5.5 140,-35.5"/>
<text text-anchor="start" x="8" y="-23.5" font-family="Helvetica,sans-Serif" font-size="10.00">lci::get_default_matching</text>
<text text-anchor="middle" x="70" y="-12.5" font-family="Helvetica,sans-Serif" font-size="10.00">_engine_x::operator()</text>
</a>
</g>
</g>
<!-- Node2 -->
<g id="Node000002" class="node">
<title>Node2</title>
<g id="a_Node000002"><a xlink:href="../../d0/d10/classlci_1_1get__default__matching__engine__x.html#ab0ae907913ea0813b734d9c96adcd195" target="_top" xlink:title=" ">
<polygon fill="white" stroke="#666666" points="316,-35.5 176,-35.5 176,-5.5 316,-5.5 316,-35.5"/>
<text text-anchor="start" x="184" y="-23.5" font-family="Helvetica,sans-Serif" font-size="10.00">lci::get_default_matching</text>
<text text-anchor="middle" x="246" y="-12.5" font-family="Helvetica,sans-Serif" font-size="10.00">_engine_x::call</text>
</a>
</g>
</g>
<!-- Node1&#45;&gt;Node2 -->
<g id="edge1_Node000001_Node000002" class="edge">
<title>Node1&#45;&gt;Node2</title>
<g id="a_edge1_Node000001_Node000002"><a xlink:title=" ">
<path fill="none" stroke="#63b8ff" d="M140.02,-20.5C148.48,-20.5 157.17,-20.5 165.76,-20.5"/>
<polygon fill="#63b8ff" stroke="#63b8ff" points="165.78,-24 175.78,-20.5 165.78,-17 165.78,-24"/>
</a>
</g>
</g>
<!-- Node3 -->
<g id="Node000003" class="node">
<title>Node3</title>
<g id="a_Node000003"><a xlink:href="../../d0/d10/classlci_1_1get__default__matching__engine__x.html#ad7f326c442db68b4f3477732412f827d" target="_top" xlink:title=" ">
<polygon fill="white" stroke="#666666" points="492,-57.5 352,-57.5 352,-27.5 492,-27.5 492,-57.5"/>
<text text-anchor="start" x="360" y="-45.5" font-family="Helvetica,sans-Serif" font-size="10.00">lci::get_default_matching</text>
<text text-anchor="middle" x="422" y="-34.5" font-family="Helvetica,sans-Serif" font-size="10.00">_engine_x::call_impl</text>
</a>
</g>
</g>
<!-- Node2&#45;&gt;Node3 -->
<g id="edge2_Node000002_Node000003" class="edge">
<title>Node2&#45;&gt;Node3</title>
<g id="a_edge2_Node000002_Node000003"><a xlink:title=" ">
<path fill="none" stroke="#63b8ff" d="M316.02,-29.23C324.48,-30.3 333.17,-31.39 341.76,-32.48"/>
<polygon fill="#63b8ff" stroke="#63b8ff" points="341.42,-35.97 351.78,-33.75 342.3,-29.02 341.42,-35.97"/>
</a>
</g>
</g>
<!-- Node4 -->
<g id="Node000004" class="node">
<title>Node4</title>
<g id="a_Node000004"><a xlink:href="../../d0/d10/classlci_1_1get__default__matching__engine__x.html#ae80a022b05213df7467a0762b1ebcbb1" target="_top" xlink:title=" ">
<polygon fill="white" stroke="#666666" points="668,-35.5 528,-35.5 528,-5.5 668,-5.5 668,-35.5"/>
<text text-anchor="start" x="536" y="-23.5" font-family="Helvetica,sans-Serif" font-size="10.00">lci::get_default_matching</text>
<text text-anchor="middle" x="598" y="-12.5" font-family="Helvetica,sans-Serif" font-size="10.00">_engine_x::runtime</text>
</a>
</g>
</g>
<!-- Node2&#45;&gt;Node4 -->
<g id="edge5_Node000002_Node000004" class="edge">
<title>Node2&#45;&gt;Node4</title>
<g id="a_edge5_Node000002_Node000004"><a xlink:title=" ">
<path fill="none" stroke="#63b8ff" d="M316.19,-19C328.13,-18.79 340.42,-18.61 352,-18.5 414.22,-17.91 429.78,-17.91 492,-18.5 500.32,-18.58 509.01,-18.69 517.68,-18.83"/>
<polygon fill="#63b8ff" stroke="#63b8ff" points="517.76,-22.33 527.81,-19 517.87,-15.33 517.76,-22.33"/>
</a>
</g>
</g>
<!-- Node3&#45;&gt;Node4 -->
<g id="edge3_Node000003_Node000004" class="edge">
<title>Node3&#45;&gt;Node4</title>
<g id="a_edge3_Node000003_Node000004"><a xlink:title=" ">
<path fill="none" stroke="#63b8ff" d="M492.02,-33.77C500.48,-32.7 509.17,-31.61 517.76,-30.52"/>
<polygon fill="#63b8ff" stroke="#63b8ff" points="518.3,-33.98 527.78,-29.25 517.42,-27.03 518.3,-33.98"/>
</a>
</g>
</g>
<!-- Node5 -->
<g id="Node000005" class="node">
<title>Node5</title>
<g id="a_Node000005"><a xlink:href="../../d0/d10/classlci_1_1get__default__matching__engine__x.html#a47c6eddf7edc3df762947a128ca33ac5" target="_top" xlink:title=" ">
<polygon fill="white" stroke="#666666" points="844,-41 704,-41 704,0 844,0 844,-41"/>
<text text-anchor="start" x="712" y="-29" font-family="Helvetica,sans-Serif" font-size="10.00">lci::get_default_matching</text>
<text text-anchor="start" x="712" y="-18" font-family="Helvetica,sans-Serif" font-size="10.00">_engine_x::get_default</text>
<text text-anchor="middle" x="774" y="-7" font-family="Helvetica,sans-Serif" font-size="10.00">_matching_engine_x</text>
</a>
</g>
</g>
<!-- Node4&#45;&gt;Node5 -->
<g id="edge4_Node000004_Node000005" class="edge">
<title>Node4&#45;&gt;Node5</title>
<g id="a_edge4_Node000004_Node000005"><a xlink:title=" ">
<path fill="none" stroke="#63b8ff" d="M668.02,-20.5C676.48,-20.5 685.17,-20.5 693.76,-20.5"/>
<polygon fill="#63b8ff" stroke="#63b8ff" points="693.78,-24 703.78,-20.5 693.78,-17 693.78,-24"/>
</a>
</g>
</g>
</g>
</svg>
