<?xml version="1.0" encoding="UTF-8" standalone="no"?>
<!DOCTYPE svg PUBLIC "-//W3C//DTD SVG 1.1//EN"
 "http://www.w3.org/Graphics/SVG/1.1/DTD/svg11.dtd">
<!-- Generated by graphviz version 2.43.0 (0)
 -->
<!-- Title: lci::get_default_matching_engine_x::runtime Pages: 1 -->
<svg width="676pt" height="86pt"
 viewBox="0.00 0.00 676.00 86.00" xmlns="http://www.w3.org/2000/svg" xmlns:xlink="http://www.w3.org/1999/xlink">
<g id="graph0" class="graph" transform="scale(1 1) rotate(0) translate(4 82)">
<title>lci::get_default_matching_engine_x::runtime</title>
<!-- Node1 -->
<g id="Node000001" class="node">
<title>Node1</title>
<g id="a_Node000001"><a xlink:title=" ">
<polygon fill="#999999" stroke="#666666" points="668,-54 528,-54 528,-24 668,-24 668,-54"/>
<text text-anchor="start" x="536" y="-42" font-family="Helvetica,sans-Serif" font-size="10.00">lci::get_default_matching</text>
<text text-anchor="middle" x="598" y="-31" font-family="Helvetica,sans-Serif" font-size="10.00">_engine_x::runtime</text>
</a>
</g>
</g>
<!-- Node2 -->
<g id="Node000002" class="node">
<title>Node2</title>
<g id="a_Node000002"><a xlink:href="../../d0/d10/classlci_1_1get__default__matching__engine__x.html#ab0ae907913ea0813b734d9c96adcd195" target="_top" xlink:title=" ">
<polygon fill="white" stroke="#666666" points="316,-54 176,-54 176,-24 316,-24 316,-54"/>
<text text-anchor="start" x="184" y="-42" font-family="Helvetica,sans-Serif" font-size="10.00">lci::get_default_matching</text>
<text text-anchor="middle" x="246" y="-31" font-family="Helvetica,sans-Serif" font-size="10.00">_engine_x::call</text>
</a>
</g>
</g>
<!-- Node1&#45;&gt;Node2 -->
<g id="edge1_Node000001_Node000002" class="edge">
<title>Node1&#45;&gt;Node2</title>
<g id="a_edge1_Node000001_Node000002"><a xlink:title=" ">
<path fill="none" stroke="#63b8ff" d="M517.68,-41.51C509.01,-41.71 500.32,-41.88 492,-42 429.78,-42.89 414.22,-42.89 352,-42 340.42,-41.83 328.13,-41.57 316.18,-41.26"/>
<polygon fill="#63b8ff" stroke="#63b8ff" points="517.91,-45 527.82,-41.26 517.73,-38 517.91,-45"/>
</a>
</g>
</g>
<!-- Node5 -->
<g id="Node000005" class="node">
<title>Node5</title>
<g id="a_Node000005"><a xlink:href="../../d0/d10/classlci_1_1get__default__matching__engine__x.html#ad7f326c442db68b4f3477732412f827d" target="_top" xlink:title=" ">
<polygon fill="white" stroke="#666666" points="492,-33 352,-33 352,-3 492,-3 492,-33"/>
<text text-anchor="start" x="360" y="-21" font-family="Helvetica,sans-Serif" font-size="10.00">lci::get_default_matching</text>
<text text-anchor="middle" x="422" y="-10" font-family="Helvetica,sans-Serif" font-size="10.00">_engine_x::call_impl</text>
</a>
</g>
</g>
<!-- Node1&#45;&gt;Node5 -->
<g id="edge4_Node000001_Node000005" class="edge">
<title>Node1&#45;&gt;Node5</title>
<g id="a_edge4_Node000001_Node000005"><a xlink:title=" ">
<path fill="none" stroke="#63b8ff" d="M517.97,-29.46C509.38,-28.42 500.68,-27.38 492.22,-26.35"/>
<polygon fill="#63b8ff" stroke="#63b8ff" points="517.63,-32.95 527.98,-30.67 518.47,-26 517.63,-32.95"/>
</a>
</g>
</g>
<!-- Node3 -->
<g id="Node000003" class="node">
<title>Node3</title>
<g id="a_Node000003"><a xlink:href="../../d5/dd3/namespacelci.html#a58b421565c0370ee7d041aab583f2e56" target="_top" xlink:title=" ">
<polygon fill="white" stroke="#666666" points="140,-78 0,-78 0,-48 140,-48 140,-78"/>
<text text-anchor="start" x="8" y="-66" font-family="Helvetica,sans-Serif" font-size="10.00">lci::get_default_matching</text>
<text text-anchor="middle" x="70" y="-55" font-family="Helvetica,sans-Serif" font-size="10.00">_engine</text>
</a>
</g>
</g>
<!-- Node2&#45;&gt;Node3 -->
<g id="edge2_Node000002_Node000003" class="edge">
<title>Node2&#45;&gt;Node3</title>
<g id="a_edge2_Node000002_Node000003"><a xlink:title=" ">
<path fill="none" stroke="#63b8ff" d="M165.97,-49.9C157.38,-51.09 148.68,-52.29 140.22,-53.45"/>
<polygon fill="#63b8ff" stroke="#63b8ff" points="166.55,-53.35 175.98,-48.52 165.6,-46.42 166.55,-53.35"/>
</a>
</g>
</g>
<!-- Node4 -->
<g id="Node000004" class="node">
<title>Node4</title>
<g id="a_Node000004"><a xlink:href="../../d0/d10/classlci_1_1get__default__matching__engine__x.html#ad9869cd1bcc450a46c77c87b258dd87c" target="_top" xlink:title=" ">
<polygon fill="white" stroke="#666666" points="140,-30 0,-30 0,0 140,0 140,-30"/>
<text text-anchor="start" x="8" y="-18" font-family="Helvetica,sans-Serif" font-size="10.00">lci::get_default_matching</text>
<text text-anchor="middle" x="70" y="-7" font-family="Helvetica,sans-Serif" font-size="10.00">_engine_x::operator()</text>
</a>
</g>
</g>
<!-- Node2&#45;&gt;Node4 -->
<g id="edge3_Node000002_Node000004" class="edge">
<title>Node2&#45;&gt;Node4</title>
<g id="a_edge3_Node000002_Node000004"><a xlink:title=" ">
<path fill="none" stroke="#63b8ff" d="M165.97,-28.1C157.38,-26.91 148.68,-25.71 140.22,-24.55"/>
<polygon fill="#63b8ff" stroke="#63b8ff" points="165.6,-31.58 175.98,-29.48 166.55,-24.65 165.6,-31.58"/>
</a>
</g>
</g>
<!-- Node5&#45;&gt;Node2 -->
<g id="edge5_Node000005_Node000002" class="edge">
<title>Node5&#45;&gt;Node2</title>
<g id="a_edge5_Node000005_Node000002"><a xlink:title=" ">
<path fill="none" stroke="#63b8ff" d="M341.97,-27.54C333.38,-28.58 324.68,-29.62 316.22,-30.65"/>
<polygon fill="#63b8ff" stroke="#63b8ff" points="342.47,-31 351.98,-26.33 341.63,-24.05 342.47,-31"/>
</a>
</g>
</g>
</g>
</svg>
