<?xml version="1.0" encoding="UTF-8" standalone="no"?>
<!DOCTYPE svg PUBLIC "-//W3C//DTD SVG 1.1//EN"
 "http://www.w3.org/Graphics/SVG/1.1/DTD/svg11.dtd">
<!-- Generated by graphviz version 2.43.0 (0)
 -->
<!-- Title: lci::alloc_counter_x::call_impl Pages: 1 -->
<svg width="388pt" height="134pt"
 viewBox="0.00 0.00 388.00 134.00" xmlns="http://www.w3.org/2000/svg" xmlns:xlink="http://www.w3.org/1999/xlink">
<g id="graph0" class="graph" transform="scale(1 1) rotate(0) translate(4 130)">
<title>lci::alloc_counter_x::call_impl</title>
<!-- Node1 -->
<g id="Node000001" class="node">
<title>Node1</title>
<g id="a_Node000001"><a xlink:title=" ">
<polygon fill="#999999" stroke="#666666" points="99,-78 0,-78 0,-48 99,-48 99,-78"/>
<text text-anchor="start" x="8" y="-66" font-family="Helvetica,sans-Serif" font-size="10.00">lci::alloc_counter</text>
<text text-anchor="middle" x="49.5" y="-55" font-family="Helvetica,sans-Serif" font-size="10.00">_x::call_impl</text>
</a>
</g>
</g>
<!-- Node2 -->
<g id="Node000002" class="node">
<title>Node2</title>
<g id="a_Node000002"><a xlink:href="../../d9/d3a/classlci_1_1alloc__counter__x.html#ae1c01a1311b9091f7c6fee1dd5b0ee42" target="_top" xlink:title=" ">
<polygon fill="white" stroke="#666666" points="234,-126 135,-126 135,-96 234,-96 234,-126"/>
<text text-anchor="start" x="143" y="-114" font-family="Helvetica,sans-Serif" font-size="10.00">lci::alloc_counter</text>
<text text-anchor="middle" x="184.5" y="-103" font-family="Helvetica,sans-Serif" font-size="10.00">_x::name</text>
</a>
</g>
</g>
<!-- Node1&#45;&gt;Node2 -->
<g id="edge1_Node000001_Node000002" class="edge">
<title>Node1&#45;&gt;Node2</title>
<g id="a_edge1_Node000001_Node000002"><a xlink:title=" ">
<path fill="none" stroke="#63b8ff" d="M92.22,-78.06C104.97,-82.66 119.14,-87.77 132.43,-92.57"/>
<polygon fill="#63b8ff" stroke="#63b8ff" points="131.34,-95.9 141.93,-96 133.71,-89.31 131.34,-95.9"/>
</a>
</g>
</g>
<!-- Node4 -->
<g id="Node000004" class="node">
<title>Node4</title>
<g id="a_Node000004"><a xlink:href="../../d9/d3a/classlci_1_1alloc__counter__x.html#a03d91b2306cdc25971f13957d5f0df2e" target="_top" xlink:title=" ">
<polygon fill="white" stroke="#666666" points="234,-78 135,-78 135,-48 234,-48 234,-78"/>
<text text-anchor="start" x="143" y="-66" font-family="Helvetica,sans-Serif" font-size="10.00">lci::alloc_counter</text>
<text text-anchor="middle" x="184.5" y="-55" font-family="Helvetica,sans-Serif" font-size="10.00">_x::runtime</text>
</a>
</g>
</g>
<!-- Node1&#45;&gt;Node4 -->
<g id="edge3_Node000001_Node000004" class="edge">
<title>Node1&#45;&gt;Node4</title>
<g id="a_edge3_Node000001_Node000004"><a xlink:title=" ">
<path fill="none" stroke="#63b8ff" d="M99.27,-63C107.49,-63 116.1,-63 124.55,-63"/>
<polygon fill="#63b8ff" stroke="#63b8ff" points="124.74,-66.5 134.74,-63 124.74,-59.5 124.74,-66.5"/>
</a>
</g>
</g>
<!-- Node5 -->
<g id="Node000005" class="node">
<title>Node5</title>
<g id="a_Node000005"><a xlink:href="../../d9/d3a/classlci_1_1alloc__counter__x.html#a1dc52f4e744accd3532f255b0e8ad02d" target="_top" xlink:title=" ">
<polygon fill="white" stroke="#666666" points="234,-30 135,-30 135,0 234,0 234,-30"/>
<text text-anchor="start" x="143" y="-18" font-family="Helvetica,sans-Serif" font-size="10.00">lci::alloc_counter</text>
<text text-anchor="middle" x="184.5" y="-7" font-family="Helvetica,sans-Serif" font-size="10.00">_x::user_context</text>
</a>
</g>
</g>
<!-- Node1&#45;&gt;Node5 -->
<g id="edge5_Node000001_Node000005" class="edge">
<title>Node1&#45;&gt;Node5</title>
<g id="a_edge5_Node000001_Node000005"><a xlink:title=" ">
<path fill="none" stroke="#63b8ff" d="M92.22,-47.94C104.97,-43.34 119.14,-38.23 132.43,-33.43"/>
<polygon fill="#63b8ff" stroke="#63b8ff" points="133.71,-36.69 141.93,-30 131.34,-30.1 133.71,-36.69"/>
</a>
</g>
</g>
<!-- Node3 -->
<g id="Node000003" class="node">
<title>Node3</title>
<g id="a_Node000003"><a xlink:href="../../d9/d3a/classlci_1_1alloc__counter__x.html#aef7b73b0fcf89502b34566fce7f8d88c" target="_top" xlink:title=" ">
<polygon fill="white" stroke="#666666" points="380,-78 270,-78 270,-48 380,-48 380,-78"/>
<text text-anchor="start" x="278" y="-66" font-family="Helvetica,sans-Serif" font-size="10.00">lci::alloc_counter</text>
<text text-anchor="middle" x="325" y="-55" font-family="Helvetica,sans-Serif" font-size="10.00">_x::alloc_counter_x</text>
</a>
</g>
</g>
<!-- Node2&#45;&gt;Node3 -->
<g id="edge2_Node000002_Node000003" class="edge">
<title>Node2&#45;&gt;Node3</title>
<g id="a_edge2_Node000002_Node000003"><a xlink:title=" ">
<path fill="none" stroke="#63b8ff" d="M228.94,-95.94C242.35,-91.3 257.26,-86.13 271.23,-81.29"/>
<polygon fill="#63b8ff" stroke="#63b8ff" points="272.41,-84.58 280.71,-78 270.12,-77.97 272.41,-84.58"/>
</a>
</g>
</g>
<!-- Node4&#45;&gt;Node3 -->
<g id="edge4_Node000004_Node000003" class="edge">
<title>Node4&#45;&gt;Node3</title>
<g id="a_edge4_Node000004_Node000003"><a xlink:title=" ">
<path fill="none" stroke="#63b8ff" d="M234.33,-63C242.61,-63 251.33,-63 259.93,-63"/>
<polygon fill="#63b8ff" stroke="#63b8ff" points="259.95,-66.5 269.95,-63 259.95,-59.5 259.95,-66.5"/>
</a>
</g>
</g>
<!-- Node5&#45;&gt;Node3 -->
<g id="edge6_Node000005_Node000003" class="edge">
<title>Node5&#45;&gt;Node3</title>
<g id="a_edge6_Node000005_Node000003"><a xlink:title=" ">
<path fill="none" stroke="#63b8ff" d="M228.94,-30.06C242.35,-34.7 257.26,-39.87 271.23,-44.71"/>
<polygon fill="#63b8ff" stroke="#63b8ff" points="270.12,-48.03 280.71,-48 272.41,-41.42 270.12,-48.03"/>
</a>
</g>
</g>
</g>
</svg>
