<?xml version="1.0" encoding="UTF-8" standalone="no"?>
<!DOCTYPE svg PUBLIC "-//W3C//DTD SVG 1.1//EN"
 "http://www.w3.org/Graphics/SVG/1.1/DTD/svg11.dtd">
<!-- Generated by graphviz version 2.43.0 (0)
 -->
<!-- Title: lci::alloc_counter_x::call Pages: 1 -->
<svg width="523pt" height="60pt"
 viewBox="0.00 0.00 523.00 60.00" xmlns="http://www.w3.org/2000/svg" xmlns:xlink="http://www.w3.org/1999/xlink">
<g id="graph0" class="graph" transform="scale(1 1) rotate(0) translate(4 56)">
<title>lci::alloc_counter_x::call</title>
<!-- Node1 -->
<g id="Node000001" class="node">
<title>Node1</title>
<g id="a_Node000001"><a xlink:title=" ">
<polygon fill="#999999" stroke="#666666" points="99,-30 0,-30 0,0 99,0 99,-30"/>
<text text-anchor="start" x="8" y="-18" font-family="Helvetica,sans-Serif" font-size="10.00">lci::alloc_counter</text>
<text text-anchor="middle" x="49.5" y="-7" font-family="Helvetica,sans-Serif" font-size="10.00">_x::call</text>
</a>
</g>
</g>
<!-- Node2 -->
<g id="Node000002" class="node">
<title>Node2</title>
<g id="a_Node000002"><a xlink:href="../../d9/d3a/classlci_1_1alloc__counter__x.html#a8234abf0568d3fe0d3872021db0452d5" target="_top" xlink:title=" ">
<polygon fill="white" stroke="#666666" points="234,-52 135,-52 135,-22 234,-22 234,-52"/>
<text text-anchor="start" x="143" y="-40" font-family="Helvetica,sans-Serif" font-size="10.00">lci::alloc_counter</text>
<text text-anchor="middle" x="184.5" y="-29" font-family="Helvetica,sans-Serif" font-size="10.00">_x::call_impl</text>
</a>
</g>
</g>
<!-- Node1&#45;&gt;Node2 -->
<g id="edge1_Node000001_Node000002" class="edge">
<title>Node1&#45;&gt;Node2</title>
<g id="a_edge1_Node000001_Node000002"><a xlink:title=" ">
<path fill="none" stroke="#63b8ff" d="M99.27,-23.07C107.58,-24.44 116.29,-25.88 124.83,-27.3"/>
<polygon fill="#63b8ff" stroke="#63b8ff" points="124.3,-30.75 134.74,-28.93 125.44,-23.85 124.3,-30.75"/>
</a>
</g>
</g>
<!-- Node3 -->
<g id="Node000003" class="node">
<title>Node3</title>
<g id="a_Node000003"><a xlink:href="../../d9/d3a/classlci_1_1alloc__counter__x.html#a03d91b2306cdc25971f13957d5f0df2e" target="_top" xlink:title=" ">
<polygon fill="white" stroke="#666666" points="369,-30 270,-30 270,0 369,0 369,-30"/>
<text text-anchor="start" x="278" y="-18" font-family="Helvetica,sans-Serif" font-size="10.00">lci::alloc_counter</text>
<text text-anchor="middle" x="319.5" y="-7" font-family="Helvetica,sans-Serif" font-size="10.00">_x::runtime</text>
</a>
</g>
</g>
<!-- Node1&#45;&gt;Node3 -->
<g id="edge4_Node000001_Node000003" class="edge">
<title>Node1&#45;&gt;Node3</title>
<g id="a_edge4_Node000001_Node000003"><a xlink:title=" ">
<path fill="none" stroke="#63b8ff" d="M99.2,-13.65C110.92,-13.38 123.41,-13.14 135,-13 179,-12.48 190,-12.48 234,-13 242.33,-13.1 251.12,-13.25 259.76,-13.43"/>
<polygon fill="#63b8ff" stroke="#63b8ff" points="259.72,-16.93 269.8,-13.65 259.88,-9.93 259.72,-16.93"/>
</a>
</g>
</g>
<!-- Node2&#45;&gt;Node3 -->
<g id="edge2_Node000002_Node000003" class="edge">
<title>Node2&#45;&gt;Node3</title>
<g id="a_edge2_Node000002_Node000003"><a xlink:title=" ">
<path fill="none" stroke="#63b8ff" d="M234.27,-28.93C242.58,-27.56 251.29,-26.12 259.83,-24.7"/>
<polygon fill="#63b8ff" stroke="#63b8ff" points="260.44,-28.15 269.74,-23.07 259.3,-21.25 260.44,-28.15"/>
</a>
</g>
</g>
<!-- Node4 -->
<g id="Node000004" class="node">
<title>Node4</title>
<g id="a_Node000004"><a xlink:href="../../d9/d3a/classlci_1_1alloc__counter__x.html#aef7b73b0fcf89502b34566fce7f8d88c" target="_top" xlink:title=" ">
<polygon fill="white" stroke="#666666" points="515,-30 405,-30 405,0 515,0 515,-30"/>
<text text-anchor="start" x="413" y="-18" font-family="Helvetica,sans-Serif" font-size="10.00">lci::alloc_counter</text>
<text text-anchor="middle" x="460" y="-7" font-family="Helvetica,sans-Serif" font-size="10.00">_x::alloc_counter_x</text>
</a>
</g>
</g>
<!-- Node3&#45;&gt;Node4 -->
<g id="edge3_Node000003_Node000004" class="edge">
<title>Node3&#45;&gt;Node4</title>
<g id="a_edge3_Node000003_Node000004"><a xlink:title=" ">
<path fill="none" stroke="#63b8ff" d="M369.33,-15C377.61,-15 386.33,-15 394.93,-15"/>
<polygon fill="#63b8ff" stroke="#63b8ff" points="394.95,-18.5 404.95,-15 394.95,-11.5 394.95,-18.5"/>
</a>
</g>
</g>
</g>
</svg>
