<?xml version="1.0" encoding="UTF-8" standalone="no"?>
<!DOCTYPE svg PUBLIC "-//W3C//DTD SVG 1.1//EN"
 "http://www.w3.org/Graphics/SVG/1.1/DTD/svg11.dtd">
<!-- Generated by graphviz version 2.43.0 (0)
 -->
<!-- Title: lci::net_post_recv_x Pages: 1 -->
<svg width="527pt" height="161pt"
 viewBox="0.00 0.00 527.00 161.00" xmlns="http://www.w3.org/2000/svg" xmlns:xlink="http://www.w3.org/1999/xlink">
<g id="graph0" class="graph" transform="scale(1 1) rotate(0) translate(4 157)">
<title>lci::net_post_recv_x</title>
<!-- Node1 -->
<g id="Node000001" class="node">
<title>Node1</title>
<g id="a_Node000001"><a xlink:title="The actual implementation for net_post_recv.">
<polygon fill="#999999" stroke="#666666" points="519,-89 406,-89 406,-70 519,-70 519,-89"/>
<text text-anchor="middle" x="462.5" y="-77" font-family="Helvetica,sans-Serif" font-size="10.00">lci::net_post_recv_x</text>
</a>
</g>
</g>
<!-- Node2 -->
<g id="Node000002" class="node">
<title>Node2</title>
<g id="a_Node000002"><a xlink:href="../../d7/d1a/classlci_1_1mr__t.html" target="_top" xlink:title="The actual implementation for RESOURCE mr.">
<polygon fill="white" stroke="#666666" points="253.5,-153 197.5,-153 197.5,-134 253.5,-134 253.5,-153"/>
<text text-anchor="middle" x="225.5" y="-141" font-family="Helvetica,sans-Serif" font-size="10.00">lci::mr_t</text>
</a>
</g>
</g>
<!-- Node2&#45;&gt;Node1 -->
<g id="edge1_Node000001_Node000002" class="edge">
<title>Node2&#45;&gt;Node1</title>
<g id="a_edge1_Node000001_Node000002"><a xlink:title=" ">
<path fill="none" stroke="#9a32cd" stroke-dasharray="5,2" d="M263.78,-136.78C296.77,-130.46 346.04,-120.1 388,-107.5 405.39,-102.28 424.55,-94.92 438.95,-89.06"/>
<polygon fill="#9a32cd" stroke="#9a32cd" points="262.85,-133.4 253.67,-138.69 264.14,-140.27 262.85,-133.4"/>
</a>
</g>
<text text-anchor="middle" x="347" y="-129.5" font-family="Helvetica,sans-Serif" font-size="10.00" fill="grey"> m_mr</text>
</g>
<!-- Node3 -->
<g id="Node000003" class="node">
<title>Node3</title>
<g id="a_Node000003"><a xlink:href="../../db/d20/structlci_1_1option__t.html" target="_top" xlink:title=" ">
<polygon fill="white" stroke="#666666" points="273.5,-115.5 177.5,-115.5 177.5,-85.5 273.5,-85.5 273.5,-115.5"/>
<text text-anchor="start" x="185.5" y="-103.5" font-family="Helvetica,sans-Serif" font-size="10.00">lci::option_t&lt; lci</text>
<text text-anchor="middle" x="225.5" y="-92.5" font-family="Helvetica,sans-Serif" font-size="10.00">::runtime_t &gt;</text>
</a>
</g>
</g>
<!-- Node3&#45;&gt;Node1 -->
<g id="edge2_Node000001_Node000003" class="edge">
<title>Node3&#45;&gt;Node1</title>
<g id="a_edge2_Node000001_Node000003"><a xlink:title=" ">
<path fill="none" stroke="#9a32cd" stroke-dasharray="5,2" d="M283.91,-95.37C320.95,-92.06 368.89,-87.78 405.62,-84.49"/>
<polygon fill="#9a32cd" stroke="#9a32cd" points="283.42,-91.9 273.77,-96.28 284.04,-98.87 283.42,-91.9"/>
</a>
</g>
<text text-anchor="middle" x="347" y="-95.5" font-family="Helvetica,sans-Serif" font-size="10.00" fill="grey"> m_runtime</text>
</g>
<!-- Node4 -->
<g id="Node000004" class="node">
<title>Node4</title>
<g id="a_Node000004"><a xlink:href="../../dc/d5c/classlci_1_1runtime__t.html" target="_top" xlink:title="The actual implementation for RESOURCE runtime.">
<polygon fill="white" stroke="#666666" points="81,-110 0,-110 0,-91 81,-91 81,-110"/>
<text text-anchor="middle" x="40.5" y="-98" font-family="Helvetica,sans-Serif" font-size="10.00">lci::runtime_t</text>
</a>
</g>
</g>
<!-- Node4&#45;&gt;Node3 -->
<g id="edge3_Node000003_Node000004" class="edge">
<title>Node4&#45;&gt;Node3</title>
<g id="a_edge3_Node000003_Node000004"><a xlink:title=" ">
<path fill="none" stroke="#9a32cd" stroke-dasharray="5,2" d="M91.53,-100.5C118.31,-100.5 151.1,-100.5 177.42,-100.5"/>
<polygon fill="#9a32cd" stroke="#9a32cd" points="91.21,-97 81.21,-100.5 91.21,-104 91.21,-97"/>
</a>
</g>
<text text-anchor="middle" x="122" y="-103.5" font-family="Helvetica,sans-Serif" font-size="10.00" fill="grey"> m_value</text>
</g>
<!-- Node5 -->
<g id="Node000005" class="node">
<title>Node5</title>
<g id="a_Node000005"><a xlink:href="../../db/d20/structlci_1_1option__t.html" target="_top" xlink:title=" ">
<polygon fill="white" stroke="#666666" points="273.5,-67.5 177.5,-67.5 177.5,-37.5 273.5,-37.5 273.5,-67.5"/>
<text text-anchor="start" x="185.5" y="-55.5" font-family="Helvetica,sans-Serif" font-size="10.00">lci::option_t&lt; lci</text>
<text text-anchor="middle" x="225.5" y="-44.5" font-family="Helvetica,sans-Serif" font-size="10.00">::device_t &gt;</text>
</a>
</g>
</g>
<!-- Node5&#45;&gt;Node1 -->
<g id="edge4_Node000001_Node000005" class="edge">
<title>Node5&#45;&gt;Node1</title>
<g id="a_edge4_Node000001_Node000005"><a xlink:title=" ">
<path fill="none" stroke="#9a32cd" stroke-dasharray="5,2" d="M283.67,-58.72C314.57,-62.12 353.38,-66.45 388,-70.5 393.75,-71.17 399.74,-71.89 405.73,-72.61"/>
<polygon fill="#9a32cd" stroke="#9a32cd" points="283.83,-55.22 273.51,-57.6 283.07,-62.17 283.83,-55.22"/>
</a>
</g>
<text text-anchor="middle" x="347" y="-73.5" font-family="Helvetica,sans-Serif" font-size="10.00" fill="grey"> m_device</text>
</g>
<!-- Node6 -->
<g id="Node000006" class="node">
<title>Node6</title>
<g id="a_Node000006"><a xlink:href="../../d6/d66/classlci_1_1device__t.html" target="_top" xlink:title="The actual implementation for RESOURCE device.">
<polygon fill="white" stroke="#666666" points="78,-62 3,-62 3,-43 78,-43 78,-62"/>
<text text-anchor="middle" x="40.5" y="-50" font-family="Helvetica,sans-Serif" font-size="10.00">lci::device_t</text>
</a>
</g>
</g>
<!-- Node6&#45;&gt;Node5 -->
<g id="edge5_Node000005_Node000006" class="edge">
<title>Node6&#45;&gt;Node5</title>
<g id="a_edge5_Node000005_Node000006"><a xlink:title=" ">
<path fill="none" stroke="#9a32cd" stroke-dasharray="5,2" d="M88.17,-52.5C115.46,-52.5 149.8,-52.5 177.19,-52.5"/>
<polygon fill="#9a32cd" stroke="#9a32cd" points="88.09,-49 78.09,-52.5 88.09,-56 88.09,-49"/>
</a>
</g>
<text text-anchor="middle" x="122" y="-55.5" font-family="Helvetica,sans-Serif" font-size="10.00" fill="grey"> m_value</text>
</g>
<!-- Node7 -->
<g id="Node000007" class="node">
<title>Node7</title>
<g id="a_Node000007"><a xlink:href="../../db/d20/structlci_1_1option__t.html" target="_top" xlink:title=" ">
<polygon fill="white" stroke="#666666" points="288,-19 163,-19 163,0 288,0 288,-19"/>
<text text-anchor="middle" x="225.5" y="-7" font-family="Helvetica,sans-Serif" font-size="10.00">lci::option_t&lt; void * &gt;</text>
</a>
</g>
</g>
<!-- Node7&#45;&gt;Node1 -->
<g id="edge6_Node000001_Node000007" class="edge">
<title>Node7&#45;&gt;Node1</title>
<g id="a_edge6_Node000001_Node000007"><a xlink:title=" ">
<path fill="none" stroke="#9a32cd" stroke-dasharray="5,2" d="M293.18,-21.03C322.64,-26.97 357.45,-35.16 388,-45.5 407.58,-52.12 428.91,-62.35 443.52,-69.86"/>
<polygon fill="#9a32cd" stroke="#9a32cd" points="293.48,-17.52 282.99,-19.02 292.13,-24.39 293.48,-17.52"/>
</a>
</g>
<text text-anchor="middle" x="347" y="-48.5" font-family="Helvetica,sans-Serif" font-size="10.00" fill="grey"> m_user_context</text>
</g>
</g>
</svg>
