<?xml version="1.0" encoding="UTF-8" standalone="no"?>
<!DOCTYPE svg PUBLIC "-//W3C//DTD SVG 1.1//EN"
 "http://www.w3.org/Graphics/SVG/1.1/DTD/svg11.dtd">
<!-- Generated by graphviz version 2.43.0 (0)
 -->
<!-- Title: Network&#45;Layer Communication Pages: 1 -->
<svg width="320pt" height="323pt"
 viewBox="0.00 0.00 320.00 323.00" xmlns="http://www.w3.org/2000/svg" xmlns:xlink="http://www.w3.org/1999/xlink">
<g id="graph0" class="graph" transform="scale(1 1) rotate(0) translate(4 319)">
<title>Network&#45;Layer Communication</title>
<!-- Node1 -->
<g id="Node000001" class="node">
<title>Node1</title>
<g id="a_Node000001"><a xlink:title="This section describes the LCI API for network&#45;layer communication.">
<polygon fill="#999999" stroke="#666666" points="169,-167 0,-167 0,-148 169,-148 169,-167"/>
<text text-anchor="middle" x="84.5" y="-155" font-family="Helvetica,sans-Serif" font-size="10.00">Network&#45;Layer Communication</text>
</a>
</g>
</g>
<!-- Node2 -->
<g id="Node000002" class="node">
<title>Node2</title>
<g id="a_Node000002"><a xlink:href="../../df/d01/group__LCI__NET__POLL__CQ.html" target="_top" xlink:title="Poll the network completion queue.">
<polygon fill="white" stroke="#666666" points="294.5,-315 222.5,-315 222.5,-296 294.5,-296 294.5,-315"/>
<text text-anchor="middle" x="258.5" y="-303" font-family="Helvetica,sans-Serif" font-size="10.00">net_poll_cq</text>
</a>
</g>
</g>
<!-- Node1&#45;&gt;Node2 -->
<g id="edge1" class="edge">
<title>Node1&#45;&gt;Node2</title>
<path fill="none" stroke="black" d="M97.56,-175.57C117.03,-203.4 157.97,-256.76 205,-287.5 210.32,-290.98 216.39,-293.86 222.47,-296.22"/>
<polygon fill="black" stroke="black" points="100.35,-173.44 91.81,-167.18 94.58,-177.4 100.35,-173.44"/>
</g>
<!-- Node10 -->
<g id="Node000010" class="node">
<title>Node10</title>
<g id="a_Node000010"><a xlink:href="../../df/d29/group__LCI__NET__POST__GET.html" target="_top" xlink:title="Post a network get operation.">
<polygon fill="white" stroke="#666666" points="298.5,-278 218.5,-278 218.5,-259 298.5,-259 298.5,-278"/>
<text text-anchor="middle" x="258.5" y="-266" font-family="Helvetica,sans-Serif" font-size="10.00">net_post_get</text>
</a>
</g>
</g>
<!-- Node1&#45;&gt;Node10 -->
<g id="edge9" class="edge">
<title>Node1&#45;&gt;Node10</title>
<path fill="none" stroke="black" d="M103.14,-174.33C125.36,-194.75 165.43,-229.1 205,-250.5 211.02,-253.75 217.74,-256.59 224.3,-258.98"/>
<polygon fill="black" stroke="black" points="105.24,-171.5 95.54,-167.24 100.47,-176.62 105.24,-171.5"/>
</g>
<!-- Node7 -->
<g id="Node000007" class="node">
<title>Node7</title>
<g id="a_Node000007"><a xlink:href="../../d1/d41/group__LCI__NET__POST__PUT.html" target="_top" xlink:title="Post a network put operation.">
<polygon fill="white" stroke="#666666" points="298.5,-241 218.5,-241 218.5,-222 298.5,-222 298.5,-241"/>
<text text-anchor="middle" x="258.5" y="-229" font-family="Helvetica,sans-Serif" font-size="10.00">net_post_put</text>
</a>
</g>
</g>
<!-- Node1&#45;&gt;Node7 -->
<g id="edge6" class="edge">
<title>Node1&#45;&gt;Node7</title>
<path fill="none" stroke="black" d="M113.47,-171.66C137.45,-183.54 173.08,-200.59 205,-213.5 212.32,-216.46 220.34,-219.37 227.86,-221.96"/>
<polygon fill="black" stroke="black" points="114.77,-168.39 104.26,-167.06 111.65,-174.66 114.77,-168.39"/>
</g>
<!-- Node9 -->
<g id="Node000009" class="node">
<title>Node9</title>
<g id="a_Node000009"><a xlink:href="../../dd/d69/group__LCI__NET__POST__PUTIMM.html" target="_top" xlink:title="Post a network put with immediate data operation.">
<polygon fill="white" stroke="#666666" points="309.5,-204 207.5,-204 207.5,-185 309.5,-185 309.5,-204"/>
<text text-anchor="middle" x="258.5" y="-192" font-family="Helvetica,sans-Serif" font-size="10.00">net_post_putImm</text>
</a>
</g>
</g>
<!-- Node1&#45;&gt;Node9 -->
<g id="edge8" class="edge">
<title>Node1&#45;&gt;Node9</title>
<path fill="none" stroke="black" d="M139.67,-169.15C163.29,-174.23 190.65,-180.12 213.06,-184.94"/>
<polygon fill="black" stroke="black" points="140.31,-165.71 129.79,-167.03 138.83,-172.55 140.31,-165.71"/>
</g>
<!-- Node8 -->
<g id="Node000008" class="node">
<title>Node8</title>
<g id="a_Node000008"><a xlink:href="../../db/d21/group__LCI__NET__POST__PUTIMMS.html" target="_top" xlink:title="Post a network short put with immediate data operation.">
<polygon fill="white" stroke="#666666" points="312,-167 205,-167 205,-148 312,-148 312,-167"/>
<text text-anchor="middle" x="258.5" y="-155" font-family="Helvetica,sans-Serif" font-size="10.00">net_post_putImms</text>
</a>
</g>
</g>
<!-- Node1&#45;&gt;Node8 -->
<g id="edge7" class="edge">
<title>Node1&#45;&gt;Node8</title>
<path fill="none" stroke="black" d="M179.46,-157.5C188.15,-157.5 196.73,-157.5 204.84,-157.5"/>
<polygon fill="black" stroke="black" points="179.23,-154 169.23,-157.5 179.23,-161 179.23,-154"/>
</g>
<!-- Node6 -->
<g id="Node000006" class="node">
<title>Node6</title>
<g id="a_Node000006"><a xlink:href="../../d8/d02/group__LCI__NET__POST__PUTS.html" target="_top" xlink:title="Post a network short put operation.">
<polygon fill="white" stroke="#666666" points="301,-130 216,-130 216,-111 301,-111 301,-130"/>
<text text-anchor="middle" x="258.5" y="-118" font-family="Helvetica,sans-Serif" font-size="10.00">net_post_puts</text>
</a>
</g>
</g>
<!-- Node1&#45;&gt;Node6 -->
<g id="edge5" class="edge">
<title>Node1&#45;&gt;Node6</title>
<path fill="none" stroke="black" d="M139.69,-145.84C164.26,-140.56 192.86,-134.41 215.72,-129.49"/>
<polygon fill="black" stroke="black" points="138.83,-142.45 129.79,-147.97 140.31,-149.29 138.83,-142.45"/>
</g>
<!-- Node3 -->
<g id="Node000003" class="node">
<title>Node3</title>
<g id="a_Node000003"><a xlink:href="../../d4/d0a/group__LCI__NET__POST__RECV.html" target="_top" xlink:title="Post a network receive operation.">
<polygon fill="white" stroke="#666666" points="301,-93 216,-93 216,-74 301,-74 301,-93"/>
<text text-anchor="middle" x="258.5" y="-81" font-family="Helvetica,sans-Serif" font-size="10.00">net_post_recv</text>
</a>
</g>
</g>
<!-- Node1&#45;&gt;Node3 -->
<g id="edge2" class="edge">
<title>Node1&#45;&gt;Node3</title>
<path fill="none" stroke="black" d="M114.4,-143.37C138.42,-131.83 173.62,-115.38 205,-102.5 212.98,-99.23 221.76,-95.93 229.81,-93.03"/>
<polygon fill="black" stroke="black" points="112.63,-140.34 105.15,-147.84 115.68,-146.64 112.63,-140.34"/>
</g>
<!-- Node5 -->
<g id="Node000005" class="node">
<title>Node5</title>
<g id="a_Node000005"><a xlink:href="../../dc/d80/group__LCI__NET__POST__SEND.html" target="_top" xlink:title="Post a network send operation.">
<polygon fill="white" stroke="#666666" points="302,-56 215,-56 215,-37 302,-37 302,-56"/>
<text text-anchor="middle" x="258.5" y="-44" font-family="Helvetica,sans-Serif" font-size="10.00">net_post_send</text>
</a>
</g>
</g>
<!-- Node1&#45;&gt;Node5 -->
<g id="edge4" class="edge">
<title>Node1&#45;&gt;Node5</title>
<path fill="none" stroke="black" d="M103.24,-140.98C125.55,-120.9 165.71,-87.05 205,-65.5 211.63,-61.86 219.09,-58.68 226.27,-56.01"/>
<polygon fill="black" stroke="black" points="100.63,-138.62 95.6,-147.94 105.35,-143.79 100.63,-138.62"/>
</g>
<!-- Node4 -->
<g id="Node000004" class="node">
<title>Node4</title>
<g id="a_Node000004"><a xlink:href="../../de/d9f/group__LCI__NET__POST__SENDS.html" target="_top" xlink:title="Post a network short send operation.">
<polygon fill="white" stroke="#666666" points="304.5,-19 212.5,-19 212.5,0 304.5,0 304.5,-19"/>
<text text-anchor="middle" x="258.5" y="-7" font-family="Helvetica,sans-Serif" font-size="10.00">net_post_sends</text>
</a>
</g>
</g>
<!-- Node1&#45;&gt;Node4 -->
<g id="edge3" class="edge">
<title>Node1&#45;&gt;Node4</title>
<path fill="none" stroke="black" d="M97.66,-139.67C117.25,-112.19 158.36,-59.42 205,-28.5 210.66,-24.75 217.14,-21.63 223.59,-19.08"/>
<polygon fill="black" stroke="black" points="94.73,-137.75 91.86,-147.95 100.46,-141.77 94.73,-137.75"/>
</g>
</g>
</svg>
