<?xml version="1.0" encoding="UTF-8" standalone="no"?>
<!DOCTYPE svg PUBLIC "-//W3C//DTD SVG 1.1//EN"
 "http://www.w3.org/Graphics/SVG/1.1/DTD/svg11.dtd">
<!-- Generated by graphviz version 2.43.0 (0)
 -->
<!-- Title: lci::post_comm_x Pages: 1 -->
<svg width="750pt" height="748pt"
 viewBox="0.00 0.00 750.00 748.24" xmlns="http://www.w3.org/2000/svg" xmlns:xlink="http://www.w3.org/1999/xlink">
<g id="graph0" class="graph" transform="scale(1 1) rotate(0) translate(4 744.24)">
<title>lci::post_comm_x</title>
<!-- Node1 -->
<g id="Node000001" class="node">
<title>Node1</title>
<g id="a_Node000001"><a xlink:title="The actual implementation for post_comm.">
<polygon fill="#999999" stroke="#666666" points="742,-362.74 640,-362.74 640,-343.74 742,-343.74 742,-362.74"/>
<text text-anchor="middle" x="691" y="-350.74" font-family="Helvetica,sans-Serif" font-size="10.00">lci::post_comm_x</text>
</a>
</g>
</g>
<!-- Node2 -->
<g id="Node000002" class="node">
<title>Node2</title>
<g id="a_Node000002"><a xlink:href="../../d1/da7/classlci_1_1comp__t.html" target="_top" xlink:title="The actual implementation for RESOURCE comp.">
<polygon fill="white" stroke="#666666" points="464.5,-736.74 394.5,-736.74 394.5,-717.74 464.5,-717.74 464.5,-736.74"/>
<text text-anchor="middle" x="429.5" y="-724.74" font-family="Helvetica,sans-Serif" font-size="10.00">lci::comp_t</text>
</a>
</g>
</g>
<!-- Node2&#45;&gt;Node1 -->
<g id="edge1_Node000001_Node000002" class="edge">
<title>Node2&#45;&gt;Node1</title>
<g id="a_edge1_Node000001_Node000002"><a xlink:title=" ">
<path fill="none" stroke="#9a32cd" stroke-dasharray="5,2" d="M474.75,-731.36C518.25,-732.8 583.54,-727.55 622,-689.24 669.96,-641.46 686.38,-413.25 689.44,-363.03"/>
<polygon fill="#9a32cd" stroke="#9a32cd" points="474.89,-727.86 464.74,-730.9 474.56,-734.85 474.89,-727.86"/>
</a>
</g>
<text text-anchor="middle" x="570.5" y="-732.24" font-family="Helvetica,sans-Serif" font-size="10.00" fill="grey"> m_local_comp</text>
</g>
<!-- Node3 -->
<g id="Node000003" class="node">
<title>Node3</title>
<g id="a_Node000003"><a xlink:href="../../d9/d97/classlci_1_1comp__impl__t.html" target="_top" xlink:title="Completion object implementation base type.">
<polygon fill="white" stroke="#666666" points="261,-736.74 164,-736.74 164,-717.74 261,-717.74 261,-736.74"/>
<text text-anchor="middle" x="212.5" y="-724.74" font-family="Helvetica,sans-Serif" font-size="10.00">lci::comp_impl_t</text>
</a>
</g>
</g>
<!-- Node3&#45;&gt;Node2 -->
<g id="edge2_Node000002_Node000003" class="edge">
<title>Node3&#45;&gt;Node2</title>
<g id="a_edge2_Node000002_Node000003"><a xlink:title=" ">
<path fill="none" stroke="#9a32cd" stroke-dasharray="5,2" d="M271.45,-727.24C310.72,-727.24 361.29,-727.24 394.28,-727.24"/>
<polygon fill="#9a32cd" stroke="#9a32cd" points="271.22,-723.74 261.22,-727.24 271.22,-730.74 271.22,-723.74"/>
</a>
</g>
<text text-anchor="middle" x="317" y="-730.24" font-family="Helvetica,sans-Serif" font-size="10.00" fill="grey"> p_impl</text>
</g>
<!-- Node4 -->
<g id="Node000004" class="node">
<title>Node4</title>
<g id="a_Node000004"><a xlink:href="../../dc/da6/structlci_1_1comp__attr__t.html" target="_top" xlink:title=" ">
<polygon fill="white" stroke="#666666" points="92,-736.74 0,-736.74 0,-717.74 92,-717.74 92,-736.74"/>
<text text-anchor="middle" x="46" y="-724.74" font-family="Helvetica,sans-Serif" font-size="10.00">lci::comp_attr_t</text>
</a>
</g>
</g>
<!-- Node4&#45;&gt;Node3 -->
<g id="edge3_Node000003_Node000004" class="edge">
<title>Node4&#45;&gt;Node3</title>
<g id="a_edge3_Node000003_Node000004"><a xlink:title=" ">
<path fill="none" stroke="#9a32cd" stroke-dasharray="5,2" d="M102.57,-727.24C122.5,-727.24 144.78,-727.24 163.97,-727.24"/>
<polygon fill="#9a32cd" stroke="#9a32cd" points="102.39,-723.74 92.39,-727.24 102.39,-730.74 102.39,-723.74"/>
</a>
</g>
<text text-anchor="middle" x="120.5" y="-730.24" font-family="Helvetica,sans-Serif" font-size="10.00" fill="grey"> attr</text>
</g>
<!-- Node5 -->
<g id="Node000005" class="node">
<title>Node5</title>
<g id="a_Node000005"><a xlink:href="../../db/d20/structlci_1_1option__t.html" target="_top" xlink:title=" ">
<polygon fill="white" stroke="#666666" points="477.5,-699.24 381.5,-699.24 381.5,-669.24 477.5,-669.24 477.5,-699.24"/>
<text text-anchor="start" x="389.5" y="-687.24" font-family="Helvetica,sans-Serif" font-size="10.00">lci::option_t&lt; lci</text>
<text text-anchor="middle" x="429.5" y="-676.24" font-family="Helvetica,sans-Serif" font-size="10.00">::runtime_t &gt;</text>
</a>
</g>
</g>
<!-- Node5&#45;&gt;Node1 -->
<g id="edge4_Node000001_Node000005" class="edge">
<title>Node5&#45;&gt;Node1</title>
<g id="a_edge4_Node000001_Node000005"><a xlink:title=" ">
<path fill="none" stroke="#9a32cd" stroke-dasharray="5,2" d="M488.09,-678.69C537.37,-672.76 603.25,-661.63 622,-643.24 663.63,-602.41 684.68,-408.5 689.11,-362.87"/>
<polygon fill="#9a32cd" stroke="#9a32cd" points="487.38,-675.25 477.85,-679.88 488.18,-682.2 487.38,-675.25"/>
</a>
</g>
<text text-anchor="middle" x="570.5" y="-677.24" font-family="Helvetica,sans-Serif" font-size="10.00" fill="grey"> m_runtime</text>
</g>
<!-- Node6 -->
<g id="Node000006" class="node">
<title>Node6</title>
<g id="a_Node000006"><a xlink:href="../../dc/d5c/classlci_1_1runtime__t.html" target="_top" xlink:title="The actual implementation for RESOURCE runtime.">
<polygon fill="white" stroke="#666666" points="253,-693.74 172,-693.74 172,-674.74 253,-674.74 253,-693.74"/>
<text text-anchor="middle" x="212.5" y="-681.74" font-family="Helvetica,sans-Serif" font-size="10.00">lci::runtime_t</text>
</a>
</g>
</g>
<!-- Node6&#45;&gt;Node5 -->
<g id="edge5_Node000005_Node000006" class="edge">
<title>Node6&#45;&gt;Node5</title>
<g id="a_edge5_Node000005_Node000006"><a xlink:title=" ">
<path fill="none" stroke="#9a32cd" stroke-dasharray="5,2" d="M263.33,-684.24C298.83,-684.24 346.25,-684.24 381.17,-684.24"/>
<polygon fill="#9a32cd" stroke="#9a32cd" points="263.18,-680.74 253.18,-684.24 263.18,-687.74 263.18,-680.74"/>
</a>
</g>
<text text-anchor="middle" x="317" y="-687.24" font-family="Helvetica,sans-Serif" font-size="10.00" fill="grey"> m_value</text>
</g>
<!-- Node7 -->
<g id="Node000007" class="node">
<title>Node7</title>
<g id="a_Node000007"><a xlink:href="../../db/d20/structlci_1_1option__t.html" target="_top" xlink:title=" ">
<polygon fill="white" stroke="#666666" points="480,-651.24 379,-651.24 379,-621.24 480,-621.24 480,-651.24"/>
<text text-anchor="start" x="387" y="-639.24" font-family="Helvetica,sans-Serif" font-size="10.00">lci::option_t&lt; lci</text>
<text text-anchor="middle" x="429.5" y="-628.24" font-family="Helvetica,sans-Serif" font-size="10.00">::packet_pool_t &gt;</text>
</a>
</g>
</g>
<!-- Node7&#45;&gt;Node1 -->
<g id="edge6_Node000001_Node000007" class="edge">
<title>Node7&#45;&gt;Node1</title>
<g id="a_edge6_Node000001_Node000007"><a xlink:title=" ">
<path fill="none" stroke="#9a32cd" stroke-dasharray="5,2" d="M490.55,-631.84C539.36,-627.04 603.12,-617.62 622,-600.24 658.49,-566.65 683.01,-404.16 688.72,-362.82"/>
<polygon fill="#9a32cd" stroke="#9a32cd" points="490.01,-628.37 480.38,-632.79 490.67,-635.34 490.01,-628.37"/>
</a>
</g>
<text text-anchor="middle" x="570.5" y="-631.24" font-family="Helvetica,sans-Serif" font-size="10.00" fill="grey"> m_packet_pool</text>
</g>
<!-- Node8 -->
<g id="Node000008" class="node">
<title>Node8</title>
<g id="a_Node000008"><a xlink:href="../../db/dec/classlci_1_1packet__pool__t.html" target="_top" xlink:title="The actual implementation for RESOURCE packet_pool.">
<polygon fill="white" stroke="#666666" points="263,-645.74 162,-645.74 162,-626.74 263,-626.74 263,-645.74"/>
<text text-anchor="middle" x="212.5" y="-633.74" font-family="Helvetica,sans-Serif" font-size="10.00">lci::packet_pool_t</text>
</a>
</g>
</g>
<!-- Node8&#45;&gt;Node7 -->
<g id="edge7_Node000007_Node000008" class="edge">
<title>Node8&#45;&gt;Node7</title>
<g id="a_edge7_Node000007_Node000008"><a xlink:title=" ">
<path fill="none" stroke="#9a32cd" stroke-dasharray="5,2" d="M273.15,-636.24C306.38,-636.24 347.29,-636.24 378.78,-636.24"/>
<polygon fill="#9a32cd" stroke="#9a32cd" points="273.1,-632.74 263.1,-636.24 273.1,-639.74 273.1,-632.74"/>
</a>
</g>
<text text-anchor="middle" x="317" y="-639.24" font-family="Helvetica,sans-Serif" font-size="10.00" fill="grey"> m_value</text>
</g>
<!-- Node9 -->
<g id="Node000009" class="node">
<title>Node9</title>
<g id="a_Node000009"><a xlink:href="../../db/d20/structlci_1_1option__t.html" target="_top" xlink:title=" ">
<polygon fill="white" stroke="#666666" points="477.5,-603.24 381.5,-603.24 381.5,-573.24 477.5,-573.24 477.5,-603.24"/>
<text text-anchor="start" x="389.5" y="-591.24" font-family="Helvetica,sans-Serif" font-size="10.00">lci::option_t&lt; lci</text>
<text text-anchor="middle" x="429.5" y="-580.24" font-family="Helvetica,sans-Serif" font-size="10.00">::device_t &gt;</text>
</a>
</g>
</g>
<!-- Node9&#45;&gt;Node1 -->
<g id="edge8_Node000001_Node000009" class="edge">
<title>Node9&#45;&gt;Node1</title>
<g id="a_edge8_Node000001_Node000009"><a xlink:title=" ">
<path fill="none" stroke="#9a32cd" stroke-dasharray="5,2" d="M487.57,-591.2C529.49,-590.29 585.3,-582.24 622,-550.24 680.63,-499.11 688.74,-394.91 689.84,-362.85"/>
<polygon fill="#9a32cd" stroke="#9a32cd" points="487.47,-587.7 477.5,-591.28 487.53,-594.7 487.47,-587.7"/>
</a>
</g>
<text text-anchor="middle" x="570.5" y="-591.24" font-family="Helvetica,sans-Serif" font-size="10.00" fill="grey"> m_device</text>
</g>
<!-- Node10 -->
<g id="Node000010" class="node">
<title>Node10</title>
<g id="a_Node000010"><a xlink:href="../../d6/d66/classlci_1_1device__t.html" target="_top" xlink:title="The actual implementation for RESOURCE device.">
<polygon fill="white" stroke="#666666" points="250,-597.74 175,-597.74 175,-578.74 250,-578.74 250,-597.74"/>
<text text-anchor="middle" x="212.5" y="-585.74" font-family="Helvetica,sans-Serif" font-size="10.00">lci::device_t</text>
</a>
</g>
</g>
<!-- Node10&#45;&gt;Node9 -->
<g id="edge9_Node000009_Node000010" class="edge">
<title>Node10&#45;&gt;Node9</title>
<g id="a_edge9_Node000009_Node000010"><a xlink:title=" ">
<path fill="none" stroke="#9a32cd" stroke-dasharray="5,2" d="M260.64,-588.24C296.39,-588.24 345.31,-588.24 381.12,-588.24"/>
<polygon fill="#9a32cd" stroke="#9a32cd" points="260.46,-584.74 250.46,-588.24 260.46,-591.74 260.46,-584.74"/>
</a>
</g>
<text text-anchor="middle" x="317" y="-591.24" font-family="Helvetica,sans-Serif" font-size="10.00" fill="grey"> m_value</text>
</g>
<!-- Node11 -->
<g id="Node000011" class="node">
<title>Node11</title>
<g id="a_Node000011"><a xlink:href="../../db/d20/structlci_1_1option__t.html" target="_top" xlink:title=" ">
<polygon fill="white" stroke="#666666" points="477.5,-555.24 381.5,-555.24 381.5,-525.24 477.5,-525.24 477.5,-555.24"/>
<text text-anchor="start" x="389.5" y="-543.24" font-family="Helvetica,sans-Serif" font-size="10.00">lci::option_t&lt; lci</text>
<text text-anchor="middle" x="429.5" y="-532.24" font-family="Helvetica,sans-Serif" font-size="10.00">::endpoint_t &gt;</text>
</a>
</g>
</g>
<!-- Node11&#45;&gt;Node1 -->
<g id="edge10_Node000001_Node000011" class="edge">
<title>Node11&#45;&gt;Node1</title>
<g id="a_edge10_Node000001_Node000011"><a xlink:title=" ">
<path fill="none" stroke="#9a32cd" stroke-dasharray="5,2" d="M487.76,-539.9C529.1,-536.84 584.11,-526.65 622,-496.24 666.38,-460.62 683.45,-389.11 688.36,-363.04"/>
<polygon fill="#9a32cd" stroke="#9a32cd" points="487.32,-536.42 477.56,-540.53 487.75,-543.41 487.32,-536.42"/>
</a>
</g>
<text text-anchor="middle" x="570.5" y="-538.24" font-family="Helvetica,sans-Serif" font-size="10.00" fill="grey"> m_endpoint</text>
</g>
<!-- Node12 -->
<g id="Node000012" class="node">
<title>Node12</title>
<g id="a_Node000012"><a xlink:href="../../de/d1b/classlci_1_1endpoint__t.html" target="_top" xlink:title="The actual implementation for RESOURCE endpoint.">
<polygon fill="white" stroke="#666666" points="255.5,-549.74 169.5,-549.74 169.5,-530.74 255.5,-530.74 255.5,-549.74"/>
<text text-anchor="middle" x="212.5" y="-537.74" font-family="Helvetica,sans-Serif" font-size="10.00">lci::endpoint_t</text>
</a>
</g>
</g>
<!-- Node12&#45;&gt;Node11 -->
<g id="edge11_Node000011_Node000012" class="edge">
<title>Node12&#45;&gt;Node11</title>
<g id="a_edge11_Node000011_Node000012"><a xlink:title=" ">
<path fill="none" stroke="#9a32cd" stroke-dasharray="5,2" d="M265.8,-540.24C301,-540.24 347.03,-540.24 381.14,-540.24"/>
<polygon fill="#9a32cd" stroke="#9a32cd" points="265.72,-536.74 255.72,-540.24 265.72,-543.74 265.72,-536.74"/>
</a>
</g>
<text text-anchor="middle" x="317" y="-543.24" font-family="Helvetica,sans-Serif" font-size="10.00" fill="grey"> m_value</text>
</g>
<!-- Node13 -->
<g id="Node000013" class="node">
<title>Node13</title>
<g id="a_Node000013"><a xlink:href="../../db/d20/structlci_1_1option__t.html" target="_top" xlink:title=" ">
<polygon fill="white" stroke="#666666" points="493,-507.24 366,-507.24 366,-477.24 493,-477.24 493,-507.24"/>
<text text-anchor="start" x="374" y="-495.24" font-family="Helvetica,sans-Serif" font-size="10.00">lci::option_t&lt; lci</text>
<text text-anchor="middle" x="429.5" y="-484.24" font-family="Helvetica,sans-Serif" font-size="10.00">::matching_engine_t &gt;</text>
</a>
</g>
</g>
<!-- Node13&#45;&gt;Node1 -->
<g id="edge12_Node000001_Node000013" class="edge">
<title>Node13&#45;&gt;Node1</title>
<g id="a_edge12_Node000001_Node000013"><a xlink:title=" ">
<path fill="none" stroke="#9a32cd" stroke-dasharray="5,2" d="M503.01,-485.82C540.98,-479.68 586.77,-467.69 622,-444.24 653.85,-423.04 676.48,-381.71 685.57,-362.94"/>
<polygon fill="#9a32cd" stroke="#9a32cd" points="502.4,-482.37 493.03,-487.33 503.44,-489.29 502.4,-482.37"/>
</a>
</g>
<text text-anchor="middle" x="570.5" y="-484.24" font-family="Helvetica,sans-Serif" font-size="10.00" fill="grey"> m_matching_engine</text>
</g>
<!-- Node14 -->
<g id="Node000014" class="node">
<title>Node14</title>
<g id="a_Node000014"><a xlink:href="../../d8/d3f/classlci_1_1matching__engine__t.html" target="_top" xlink:title="The actual implementation for RESOURCE matching_engine.">
<polygon fill="white" stroke="#666666" points="276,-501.74 149,-501.74 149,-482.74 276,-482.74 276,-501.74"/>
<text text-anchor="middle" x="212.5" y="-489.74" font-family="Helvetica,sans-Serif" font-size="10.00">lci::matching_engine_t</text>
</a>
</g>
</g>
<!-- Node14&#45;&gt;Node13 -->
<g id="edge13_Node000013_Node000014" class="edge">
<title>Node14&#45;&gt;Node13</title>
<g id="a_edge13_Node000013_Node000014"><a xlink:title=" ">
<path fill="none" stroke="#9a32cd" stroke-dasharray="5,2" d="M286.35,-492.24C312.09,-492.24 340.81,-492.24 365.66,-492.24"/>
<polygon fill="#9a32cd" stroke="#9a32cd" points="286.26,-488.74 276.26,-492.24 286.26,-495.74 286.26,-488.74"/>
</a>
</g>
<text text-anchor="middle" x="317" y="-495.24" font-family="Helvetica,sans-Serif" font-size="10.00" fill="grey"> m_value</text>
</g>
<!-- Node15 -->
<g id="Node000015" class="node">
<title>Node15</title>
<g id="a_Node000015"><a xlink:href="../../db/d20/structlci_1_1option__t.html" target="_top" xlink:title=" ">
<polygon fill="white" stroke="#666666" points="485.5,-459.24 373.5,-459.24 373.5,-429.24 485.5,-429.24 485.5,-459.24"/>
<text text-anchor="start" x="381.5" y="-447.24" font-family="Helvetica,sans-Serif" font-size="10.00">lci::option_t&lt; comp</text>
<text text-anchor="middle" x="429.5" y="-436.24" font-family="Helvetica,sans-Serif" font-size="10.00">_semantic_t &gt;</text>
</a>
</g>
</g>
<!-- Node15&#45;&gt;Node1 -->
<g id="edge14_Node000001_Node000015" class="edge">
<title>Node15&#45;&gt;Node1</title>
<g id="a_edge14_Node000001_Node000015"><a xlink:title=" ">
<path fill="none" stroke="#9a32cd" stroke-dasharray="5,2" d="M495.69,-434.41C533.6,-427.28 581.7,-415.76 622,-398.24 643.29,-388.98 665.21,-373.12 678.21,-362.91"/>
<polygon fill="#9a32cd" stroke="#9a32cd" points="494.99,-430.98 485.78,-436.22 496.25,-437.87 494.99,-430.98"/>
</a>
</g>
<text text-anchor="middle" x="570.5" y="-432.24" font-family="Helvetica,sans-Serif" font-size="10.00" fill="grey"> m_comp_semantic</text>
</g>
<!-- Node16 -->
<g id="Node000016" class="node">
<title>Node16</title>
<g id="a_Node000016"><a xlink:href="../../db/d20/structlci_1_1option__t.html" target="_top" xlink:title=" ">
<polygon fill="white" stroke="#666666" points="477.5,-411.24 381.5,-411.24 381.5,-381.24 477.5,-381.24 477.5,-411.24"/>
<text text-anchor="start" x="389.5" y="-399.24" font-family="Helvetica,sans-Serif" font-size="10.00">lci::option_t&lt; lci</text>
<text text-anchor="middle" x="429.5" y="-388.24" font-family="Helvetica,sans-Serif" font-size="10.00">::mr_t &gt;</text>
</a>
</g>
</g>
<!-- Node16&#45;&gt;Node1 -->
<g id="edge15_Node000001_Node000016" class="edge">
<title>Node16&#45;&gt;Node1</title>
<g id="a_edge15_Node000001_Node000016"><a xlink:title=" ">
<path fill="none" stroke="#9a32cd" stroke-dasharray="5,2" d="M488.26,-388.9C526.36,-383.78 577.29,-376.43 622,-368.24 630.8,-366.63 640.19,-364.69 649.1,-362.76"/>
<polygon fill="#9a32cd" stroke="#9a32cd" points="487.33,-385.49 477.87,-390.28 488.25,-392.43 487.33,-385.49"/>
</a>
</g>
<text text-anchor="middle" x="570.5" y="-386.24" font-family="Helvetica,sans-Serif" font-size="10.00" fill="grey"> m_mr</text>
</g>
<!-- Node17 -->
<g id="Node000017" class="node">
<title>Node17</title>
<g id="a_Node000017"><a xlink:href="../../d7/d1a/classlci_1_1mr__t.html" target="_top" xlink:title="The actual implementation for RESOURCE mr.">
<polygon fill="white" stroke="#666666" points="240.5,-405.74 184.5,-405.74 184.5,-386.74 240.5,-386.74 240.5,-405.74"/>
<text text-anchor="middle" x="212.5" y="-393.74" font-family="Helvetica,sans-Serif" font-size="10.00">lci::mr_t</text>
</a>
</g>
</g>
<!-- Node17&#45;&gt;Node16 -->
<g id="edge16_Node000016_Node000017" class="edge">
<title>Node17&#45;&gt;Node16</title>
<g id="a_edge16_Node000016_Node000017"><a xlink:title=" ">
<path fill="none" stroke="#9a32cd" stroke-dasharray="5,2" d="M250.88,-396.24C287.14,-396.24 342.27,-396.24 381.48,-396.24"/>
<polygon fill="#9a32cd" stroke="#9a32cd" points="250.73,-392.74 240.73,-396.24 250.73,-399.74 250.73,-392.74"/>
</a>
</g>
<text text-anchor="middle" x="317" y="-399.24" font-family="Helvetica,sans-Serif" font-size="10.00" fill="grey"> m_value</text>
</g>
<!-- Node18 -->
<g id="Node000018" class="node">
<title>Node18</title>
<g id="a_Node000018"><a xlink:href="../../db/d20/structlci_1_1option__t.html" target="_top" xlink:title=" ">
<polygon fill="white" stroke="#666666" points="498,-362.74 361,-362.74 361,-343.74 498,-343.74 498,-362.74"/>
<text text-anchor="middle" x="429.5" y="-350.74" font-family="Helvetica,sans-Serif" font-size="10.00">lci::option_t&lt; uintptr_t &gt;</text>
</a>
</g>
</g>
<!-- Node18&#45;&gt;Node1 -->
<g id="edge17_Node000001_Node000018" class="edge">
<title>Node18&#45;&gt;Node1</title>
<g id="a_edge17_Node000001_Node000018"><a xlink:title=" ">
<path fill="none" stroke="#9a32cd" stroke-dasharray="5,2" d="M508.06,-353.24C550.67,-353.24 602.29,-353.24 639.64,-353.24"/>
<polygon fill="#9a32cd" stroke="#9a32cd" points="508,-349.74 498,-353.24 508,-356.74 508,-349.74"/>
</a>
</g>
<text text-anchor="middle" x="570.5" y="-356.24" font-family="Helvetica,sans-Serif" font-size="10.00" fill="grey"> m_remote_buffer</text>
</g>
<!-- Node19 -->
<g id="Node000019" class="node">
<title>Node19</title>
<g id="a_Node000019"><a xlink:href="../../db/d20/structlci_1_1option__t.html" target="_top" xlink:title=" ">
<polygon fill="white" stroke="#666666" points="492.5,-325.74 366.5,-325.74 366.5,-306.74 492.5,-306.74 492.5,-325.74"/>
<text text-anchor="middle" x="429.5" y="-313.74" font-family="Helvetica,sans-Serif" font-size="10.00">lci::option_t&lt; rkey_t &gt;</text>
</a>
</g>
</g>
<!-- Node19&#45;&gt;Node1 -->
<g id="edge18_Node000001_Node000019" class="edge">
<title>Node19&#45;&gt;Node1</title>
<g id="a_edge18_Node000001_Node000019"><a xlink:title=" ">
<path fill="none" stroke="#9a32cd" stroke-dasharray="5,2" d="M503.2,-322.82C539.09,-326.51 582.95,-331.71 622,-338.24 631.06,-339.76 640.74,-341.69 649.86,-343.67"/>
<polygon fill="#9a32cd" stroke="#9a32cd" points="503.12,-319.29 492.82,-321.77 502.42,-326.25 503.12,-319.29"/>
</a>
</g>
<text text-anchor="middle" x="570.5" y="-341.24" font-family="Helvetica,sans-Serif" font-size="10.00" fill="grey"> m_rkey</text>
</g>
<!-- Node20 -->
<g id="Node000020" class="node">
<title>Node20</title>
<g id="a_Node000020"><a xlink:href="../../db/d20/structlci_1_1option__t.html" target="_top" xlink:title=" ">
<polygon fill="white" stroke="#666666" points="490,-288.74 369,-288.74 369,-269.74 490,-269.74 490,-288.74"/>
<text text-anchor="middle" x="429.5" y="-276.74" font-family="Helvetica,sans-Serif" font-size="10.00">lci::option_t&lt; tag_t &gt;</text>
</a>
</g>
</g>
<!-- Node20&#45;&gt;Node1 -->
<g id="edge19_Node000001_Node000020" class="edge">
<title>Node20&#45;&gt;Node1</title>
<g id="a_edge19_Node000001_Node000020"><a xlink:title=" ">
<path fill="none" stroke="#9a32cd" stroke-dasharray="5,2" d="M500.6,-283.16C537.66,-286.97 583.35,-294.48 622,-309.24 643.54,-317.47 665.39,-333.21 678.31,-343.46"/>
<polygon fill="#9a32cd" stroke="#9a32cd" points="500.68,-279.66 490.39,-282.18 500.01,-286.62 500.68,-279.66"/>
</a>
</g>
<text text-anchor="middle" x="570.5" y="-312.24" font-family="Helvetica,sans-Serif" font-size="10.00" fill="grey"> m_tag</text>
</g>
<!-- Node21 -->
<g id="Node000021" class="node">
<title>Node21</title>
<g id="a_Node000021"><a xlink:href="../../db/d20/structlci_1_1option__t.html" target="_top" xlink:title=" ">
<polygon fill="white" stroke="#666666" points="497.5,-251.74 361.5,-251.74 361.5,-232.74 497.5,-232.74 497.5,-251.74"/>
<text text-anchor="middle" x="429.5" y="-239.74" font-family="Helvetica,sans-Serif" font-size="10.00">lci::option_t&lt; rcomp_t &gt;</text>
</a>
</g>
</g>
<!-- Node21&#45;&gt;Node1 -->
<g id="edge20_Node000001_Node000021" class="edge">
<title>Node21&#45;&gt;Node1</title>
<g id="a_edge20_Node000001_Node000021"><a xlink:title=" ">
<path fill="none" stroke="#9a32cd" stroke-dasharray="5,2" d="M507.87,-240.89C544.51,-243.31 587.65,-250.81 622,-270.24 653.13,-287.85 675.82,-325.73 685.21,-343.57"/>
<polygon fill="#9a32cd" stroke="#9a32cd" points="507.9,-237.39 497.72,-240.34 507.52,-244.38 507.9,-237.39"/>
</a>
</g>
<text text-anchor="middle" x="570.5" y="-273.24" font-family="Helvetica,sans-Serif" font-size="10.00" fill="grey"> m_remote_comp</text>
</g>
<!-- Node22 -->
<g id="Node000022" class="node">
<title>Node22</title>
<g id="a_Node000022"><a xlink:href="../../db/d20/structlci_1_1option__t.html" target="_top" xlink:title=" ">
<polygon fill="white" stroke="#666666" points="492,-214.74 367,-214.74 367,-195.74 492,-195.74 492,-214.74"/>
<text text-anchor="middle" x="429.5" y="-202.74" font-family="Helvetica,sans-Serif" font-size="10.00">lci::option_t&lt; void * &gt;</text>
</a>
</g>
</g>
<!-- Node22&#45;&gt;Node1 -->
<g id="edge21_Node000001_Node000022" class="edge">
<title>Node22&#45;&gt;Node1</title>
<g id="a_edge21_Node000001_Node000022"><a xlink:title=" ">
<path fill="none" stroke="#9a32cd" stroke-dasharray="5,2" d="M502.55,-197.72C541.01,-197.29 587.4,-202.86 622,-226.24 664.48,-254.94 682.53,-319.12 688.04,-343.54"/>
<polygon fill="#9a32cd" stroke="#9a32cd" points="502.35,-194.22 492.44,-197.97 502.52,-201.22 502.35,-194.22"/>
</a>
</g>
<text text-anchor="middle" x="570.5" y="-229.24" font-family="Helvetica,sans-Serif" font-size="10.00" fill="grey"> m_user_context</text>
</g>
<!-- Node23 -->
<g id="Node000023" class="node">
<title>Node23</title>
<g id="a_Node000023"><a xlink:href="../../db/d20/structlci_1_1option__t.html" target="_top" xlink:title=" ">
<polygon fill="white" stroke="#666666" points="499,-177.74 360,-177.74 360,-158.74 499,-158.74 499,-177.74"/>
<text text-anchor="middle" x="429.5" y="-165.74" font-family="Helvetica,sans-Serif" font-size="10.00">lci::option_t&lt; buffers_t &gt;</text>
</a>
</g>
</g>
<!-- Node23&#45;&gt;Node1 -->
<g id="edge22_Node000001_Node000023" class="edge">
<title>Node23&#45;&gt;Node1</title>
<g id="a_edge22_Node000001_Node000023"><a xlink:title=" ">
<path fill="none" stroke="#9a32cd" stroke-dasharray="5,2" d="M487.52,-157.49C528.75,-153 583.71,-154.17 622,-182.24 676.62,-222.29 687.41,-313.28 689.51,-343.37"/>
<polygon fill="#9a32cd" stroke="#9a32cd" points="486.85,-154.04 477.35,-158.74 487.7,-160.99 486.85,-154.04"/>
</a>
</g>
<text text-anchor="middle" x="570.5" y="-185.24" font-family="Helvetica,sans-Serif" font-size="10.00" fill="grey"> m_buffers</text>
</g>
<!-- Node24 -->
<g id="Node000024" class="node">
<title>Node24</title>
<g id="a_Node000024"><a xlink:href="../../db/d20/structlci_1_1option__t.html" target="_top" xlink:title=" ">
<polygon fill="white" stroke="#666666" points="501,-140.74 358,-140.74 358,-121.74 501,-121.74 501,-140.74"/>
<text text-anchor="middle" x="429.5" y="-128.74" font-family="Helvetica,sans-Serif" font-size="10.00">lci::option_t&lt; rbuffers_t &gt;</text>
</a>
</g>
</g>
<!-- Node24&#45;&gt;Node1 -->
<g id="edge23_Node000001_Node000024" class="edge">
<title>Node24&#45;&gt;Node1</title>
<g id="a_edge23_Node000001_Node000024"><a xlink:title=" ">
<path fill="none" stroke="#9a32cd" stroke-dasharray="5,2" d="M476.75,-119.77C518.97,-112.19 580.89,-108.7 622,-140.24 688.83,-191.51 691.22,-308.91 690.4,-343.48"/>
<polygon fill="#9a32cd" stroke="#9a32cd" points="475.88,-116.37 466.73,-121.71 477.21,-123.25 475.88,-116.37"/>
</a>
</g>
<text text-anchor="middle" x="570.5" y="-143.24" font-family="Helvetica,sans-Serif" font-size="10.00" fill="grey"> m_rbuffers</text>
</g>
<!-- Node25 -->
<g id="Node000025" class="node">
<title>Node25</title>
<g id="a_Node000025"><a xlink:href="../../db/d20/structlci_1_1option__t.html" target="_top" xlink:title=" ">
<polygon fill="white" stroke="#666666" points="495,-103.24 364,-103.24 364,-73.24 495,-73.24 495,-103.24"/>
<text text-anchor="start" x="372" y="-91.24" font-family="Helvetica,sans-Serif" font-size="10.00">lci::option_t&lt; matching</text>
<text text-anchor="middle" x="429.5" y="-80.24" font-family="Helvetica,sans-Serif" font-size="10.00">_policy_t &gt;</text>
</a>
</g>
</g>
<!-- Node25&#45;&gt;Node1 -->
<g id="edge24_Node000001_Node000025" class="edge">
<title>Node25&#45;&gt;Node1</title>
<g id="a_edge24_Node000001_Node000025"><a xlink:title=" ">
<path fill="none" stroke="#9a32cd" stroke-dasharray="5,2" d="M505.26,-73.2C544.1,-69.78 590,-73.18 622,-99.24 661.56,-131.45 683.88,-301.02 688.9,-343.55"/>
<polygon fill="#9a32cd" stroke="#9a32cd" points="504.62,-69.74 495.04,-74.27 505.35,-76.71 504.62,-69.74"/>
</a>
</g>
<text text-anchor="middle" x="570.5" y="-102.24" font-family="Helvetica,sans-Serif" font-size="10.00" fill="grey"> m_matching_policy</text>
</g>
<!-- Node26 -->
<g id="Node000026" class="node">
<title>Node26</title>
<g id="a_Node000026"><a xlink:href="../../db/d20/structlci_1_1option__t.html" target="_top" xlink:title=" ">
<polygon fill="white" stroke="#666666" points="488,-35.74 371,-35.74 371,-16.74 488,-16.74 488,-35.74"/>
<text text-anchor="middle" x="429.5" y="-23.74" font-family="Helvetica,sans-Serif" font-size="10.00">lci::option_t&lt; bool &gt;</text>
</a>
</g>
</g>
<!-- Node26&#45;&gt;Node1 -->
<g id="edge25_Node000001_Node000026" class="edge">
<title>Node26&#45;&gt;Node1</title>
<g id="a_edge25_Node000001_Node000026"><a xlink:title=" ">
<path fill="none" stroke="#9a32cd" stroke-dasharray="5,2" d="M465.04,-13.65C507.06,-0.77 577.85,12.74 622,-23.24 673.58,-65.27 687.19,-293.21 689.58,-343.44"/>
<polygon fill="#9a32cd" stroke="#9a32cd" points="463.97,-10.32 455.52,-16.71 466.11,-16.98 463.97,-10.32"/>
</a>
</g>
<text text-anchor="middle" x="570.5" y="-59.24" font-family="Helvetica,sans-Serif" font-size="10.00" fill="grey"> m_allow_done</text>
<text text-anchor="middle" x="570.5" y="-48.24" font-family="Helvetica,sans-Serif" font-size="10.00" fill="grey">m_allow_posted</text>
<text text-anchor="middle" x="570.5" y="-37.24" font-family="Helvetica,sans-Serif" font-size="10.00" fill="grey">m_allow_retry</text>
<text text-anchor="middle" x="570.5" y="-26.24" font-family="Helvetica,sans-Serif" font-size="10.00" fill="grey">m_force_zcopy</text>
</g>
</g>
</svg>
