<?xml version="1.0" encoding="UTF-8" standalone="no"?>
<!DOCTYPE svg PUBLIC "-//W3C//DTD SVG 1.1//EN"
 "http://www.w3.org/Graphics/SVG/1.1/DTD/svg11.dtd">
<!-- Generated by graphviz version 2.43.0 (0)
 -->
<!-- Title: lci::free_packet_pool_x Pages: 1 -->
<svg width="224pt" height="170pt"
 viewBox="0.00 0.00 223.50 170.00" xmlns="http://www.w3.org/2000/svg" xmlns:xlink="http://www.w3.org/1999/xlink">
<g id="graph0" class="graph" transform="scale(1 1) rotate(0) translate(4 166)">
<title>lci::free_packet_pool_x</title>
<!-- Node1 -->
<g id="Node000001" class="node">
<title>Node1</title>
<g id="a_Node000001"><a xlink:title="The actual implementation for free_packet_pool.">
<polygon fill="#999999" stroke="#666666" points="164.5,-19 36.5,-19 36.5,0 164.5,0 164.5,-19"/>
<text text-anchor="middle" x="100.5" y="-7" font-family="Helvetica,sans-Serif" font-size="10.00">lci::free_packet_pool_x</text>
</a>
</g>
</g>
<!-- Node2 -->
<g id="Node000002" class="node">
<title>Node2</title>
<g id="a_Node000002"><a xlink:href="../../db/dec/classlci_1_1packet__pool__t.html" target="_top" xlink:title="The actual implementation for RESOURCE packet_pool.">
<polygon fill="white" stroke="#666666" points="101,-90.5 0,-90.5 0,-71.5 101,-71.5 101,-90.5"/>
<text text-anchor="middle" x="50.5" y="-78.5" font-family="Helvetica,sans-Serif" font-size="10.00">lci::packet_pool_t</text>
</a>
</g>
</g>
<!-- Node2&#45;&gt;Node1 -->
<g id="edge1_Node000001_Node000002" class="edge">
<title>Node2&#45;&gt;Node1</title>
<g id="a_edge1_Node000001_Node000002"><a xlink:title=" ">
<path fill="none" stroke="#9a32cd" stroke-dasharray="5,2" d="M51.23,-61.34C52.31,-53.28 54.63,-44.09 59.5,-37 64.78,-29.31 73.09,-23.34 80.85,-19.03"/>
<polygon fill="#9a32cd" stroke="#9a32cd" points="47.74,-61.07 50.41,-71.33 54.71,-61.65 47.74,-61.07"/>
</a>
</g>
<text text-anchor="middle" x="98" y="-40" font-family="Helvetica,sans-Serif" font-size="10.00" fill="grey"> m_packet_pool</text>
</g>
<!-- Node3 -->
<g id="Node000003" class="node">
<title>Node3</title>
<g id="a_Node000003"><a xlink:href="../../db/d20/structlci_1_1option__t.html" target="_top" xlink:title=" ">
<polygon fill="white" stroke="#666666" points="215.5,-96 119.5,-96 119.5,-66 215.5,-66 215.5,-96"/>
<text text-anchor="start" x="127.5" y="-84" font-family="Helvetica,sans-Serif" font-size="10.00">lci::option_t&lt; lci</text>
<text text-anchor="middle" x="167.5" y="-73" font-family="Helvetica,sans-Serif" font-size="10.00">::runtime_t &gt;</text>
</a>
</g>
</g>
<!-- Node3&#45;&gt;Node1 -->
<g id="edge2_Node000001_Node000003" class="edge">
<title>Node3&#45;&gt;Node1</title>
<g id="a_edge2_Node000001_Node000003"><a xlink:title=" ">
<path fill="none" stroke="#9a32cd" stroke-dasharray="5,2" d="M153.32,-57.57C148.41,-50.61 142.6,-43.16 136.5,-37 129.84,-30.27 121.35,-23.94 114.29,-19.15"/>
<polygon fill="#9a32cd" stroke="#9a32cd" points="150.5,-59.66 159,-65.98 156.3,-55.74 150.5,-59.66"/>
</a>
</g>
<text text-anchor="middle" x="175" y="-40" font-family="Helvetica,sans-Serif" font-size="10.00" fill="grey"> m_runtime</text>
</g>
<!-- Node4 -->
<g id="Node000004" class="node">
<title>Node4</title>
<g id="a_Node000004"><a xlink:href="../../dc/d5c/classlci_1_1runtime__t.html" target="_top" xlink:title="The actual implementation for RESOURCE runtime.">
<polygon fill="white" stroke="#666666" points="208,-162 127,-162 127,-143 208,-143 208,-162"/>
<text text-anchor="middle" x="167.5" y="-150" font-family="Helvetica,sans-Serif" font-size="10.00">lci::runtime_t</text>
</a>
</g>
</g>
<!-- Node4&#45;&gt;Node3 -->
<g id="edge3_Node000003_Node000004" class="edge">
<title>Node4&#45;&gt;Node3</title>
<g id="a_edge3_Node000003_Node000004"><a xlink:title=" ">
<path fill="none" stroke="#9a32cd" stroke-dasharray="5,2" d="M167.5,-132.71C167.5,-121.19 167.5,-106.68 167.5,-96.14"/>
<polygon fill="#9a32cd" stroke="#9a32cd" points="164,-132.98 167.5,-142.98 171,-132.98 164,-132.98"/>
</a>
</g>
<text text-anchor="middle" x="190.5" y="-117" font-family="Helvetica,sans-Serif" font-size="10.00" fill="grey"> m_value</text>
</g>
</g>
</svg>
