<?xml version="1.0" encoding="UTF-8" standalone="no"?>
<!DOCTYPE svg PUBLIC "-//W3C//DTD SVG 1.1//EN"
 "http://www.w3.org/Graphics/SVG/1.1/DTD/svg11.dtd">
<!-- Generated by graphviz version 2.43.0 (0)
 -->
<!-- Title: lci::graph_start_x::graph_start_x Pages: 1 -->
<svg width="657pt" height="86pt"
 viewBox="0.00 0.00 657.00 86.00" xmlns="http://www.w3.org/2000/svg" xmlns:xlink="http://www.w3.org/1999/xlink">
<g id="graph0" class="graph" transform="scale(1 1) rotate(0) translate(4 82)">
<title>lci::graph_start_x::graph_start_x</title>
<!-- Node1 -->
<g id="Node000001" class="node">
<title>Node1</title>
<g id="a_Node000001"><a xlink:title=" ">
<polygon fill="#999999" stroke="#666666" points="649,-54 548,-54 548,-24 649,-24 649,-54"/>
<text text-anchor="start" x="556" y="-42" font-family="Helvetica,sans-Serif" font-size="10.00">lci::graph_start_x</text>
<text text-anchor="middle" x="598.5" y="-31" font-family="Helvetica,sans-Serif" font-size="10.00">::graph_start_x</text>
</a>
</g>
</g>
<!-- Node2 -->
<g id="Node000002" class="node">
<title>Node2</title>
<g id="a_Node000002"><a xlink:href="../../d1/d39/classlci_1_1graph__start__x.html#af2831dfb3454ea867f27ab3918aa1c36" target="_top" xlink:title=" ">
<polygon fill="white" stroke="#666666" points="512,-78 411,-78 411,-48 512,-48 512,-78"/>
<text text-anchor="start" x="419" y="-66" font-family="Helvetica,sans-Serif" font-size="10.00">lci::graph_start_x</text>
<text text-anchor="middle" x="461.5" y="-55" font-family="Helvetica,sans-Serif" font-size="10.00">::comp</text>
</a>
</g>
</g>
<!-- Node1&#45;&gt;Node2 -->
<g id="edge1_Node000001_Node000002" class="edge">
<title>Node1&#45;&gt;Node2</title>
<g id="a_edge1_Node000001_Node000002"><a xlink:title=" ">
<path fill="none" stroke="#63b8ff" d="M538.07,-49.57C529.52,-51.09 520.79,-52.64 512.45,-54.12"/>
<polygon fill="#63b8ff" stroke="#63b8ff" points="538.76,-53 548,-47.8 537.54,-46.1 538.76,-53"/>
</a>
</g>
</g>
<!-- Node7 -->
<g id="Node000007" class="node">
<title>Node7</title>
<g id="a_Node000007"><a xlink:href="../../d1/d39/classlci_1_1graph__start__x.html#a0fb04c217170b7944b7744da481b4ad0" target="_top" xlink:title=" ">
<polygon fill="white" stroke="#666666" points="512,-30 411,-30 411,0 512,0 512,-30"/>
<text text-anchor="start" x="419" y="-18" font-family="Helvetica,sans-Serif" font-size="10.00">lci::graph_start_x</text>
<text text-anchor="middle" x="461.5" y="-7" font-family="Helvetica,sans-Serif" font-size="10.00">::runtime</text>
</a>
</g>
</g>
<!-- Node1&#45;&gt;Node7 -->
<g id="edge7_Node000001_Node000007" class="edge">
<title>Node1&#45;&gt;Node7</title>
<g id="a_edge7_Node000001_Node000007"><a xlink:title=" ">
<path fill="none" stroke="#63b8ff" d="M538.07,-28.43C529.52,-26.91 520.79,-25.36 512.45,-23.88"/>
<polygon fill="#63b8ff" stroke="#63b8ff" points="537.54,-31.9 548,-30.2 538.76,-25 537.54,-31.9"/>
</a>
</g>
</g>
<!-- Node3 -->
<g id="Node000003" class="node">
<title>Node3</title>
<g id="a_Node000003"><a xlink:href="../../d1/d39/classlci_1_1graph__start__x.html#ab83d1e21f950fed24d7840bf5d703a60" target="_top" xlink:title=" ">
<polygon fill="white" stroke="#666666" points="238,-54 137,-54 137,-24 238,-24 238,-54"/>
<text text-anchor="start" x="145" y="-42" font-family="Helvetica,sans-Serif" font-size="10.00">lci::graph_start_x</text>
<text text-anchor="middle" x="187.5" y="-31" font-family="Helvetica,sans-Serif" font-size="10.00">::call</text>
</a>
</g>
</g>
<!-- Node2&#45;&gt;Node3 -->
<g id="edge2_Node000002_Node000003" class="edge">
<title>Node2&#45;&gt;Node3</title>
<g id="a_edge2_Node000002_Node000003"><a xlink:title=" ">
<path fill="none" stroke="#63b8ff" d="M400.72,-67.13C363.99,-68.65 316.07,-68.79 274,-63 260.56,-61.15 246.26,-57.74 233.27,-54.05"/>
<polygon fill="#63b8ff" stroke="#63b8ff" points="400.94,-70.63 410.77,-66.67 400.62,-63.63 400.94,-70.63"/>
</a>
</g>
</g>
<!-- Node6 -->
<g id="Node000006" class="node">
<title>Node6</title>
<g id="a_Node000006"><a xlink:href="../../d1/d39/classlci_1_1graph__start__x.html#a82221ae6e9392af13c2e469c415438d1" target="_top" xlink:title=" ">
<polygon fill="white" stroke="#666666" points="375,-54 274,-54 274,-24 375,-24 375,-54"/>
<text text-anchor="start" x="282" y="-42" font-family="Helvetica,sans-Serif" font-size="10.00">lci::graph_start_x</text>
<text text-anchor="middle" x="324.5" y="-31" font-family="Helvetica,sans-Serif" font-size="10.00">::call_impl</text>
</a>
</g>
</g>
<!-- Node2&#45;&gt;Node6 -->
<g id="edge5_Node000002_Node000006" class="edge">
<title>Node2&#45;&gt;Node6</title>
<g id="a_edge5_Node000002_Node000006"><a xlink:title=" ">
<path fill="none" stroke="#63b8ff" d="M401.07,-52.43C392.52,-50.91 383.79,-49.36 375.45,-47.88"/>
<polygon fill="#63b8ff" stroke="#63b8ff" points="400.54,-55.9 411,-54.2 401.76,-49 400.54,-55.9"/>
</a>
</g>
</g>
<!-- Node4 -->
<g id="Node000004" class="node">
<title>Node4</title>
<g id="a_Node000004"><a xlink:href="../../d5/dd3/namespacelci.html#a62817277dc599edc5864356a4192d312" target="_top" xlink:title=" ">
<polygon fill="white" stroke="#666666" points="95,-70.5 6,-70.5 6,-51.5 95,-51.5 95,-70.5"/>
<text text-anchor="middle" x="50.5" y="-58.5" font-family="Helvetica,sans-Serif" font-size="10.00">lci::graph_start</text>
</a>
</g>
</g>
<!-- Node3&#45;&gt;Node4 -->
<g id="edge3_Node000003_Node000004" class="edge">
<title>Node3&#45;&gt;Node4</title>
<g id="a_edge3_Node000003_Node000004"><a xlink:title=" ">
<path fill="none" stroke="#63b8ff" d="M126.89,-48.71C116.23,-50.45 105.31,-52.23 95.2,-53.88"/>
<polygon fill="#63b8ff" stroke="#63b8ff" points="127.69,-52.13 137,-47.07 126.56,-45.22 127.69,-52.13"/>
</a>
</g>
</g>
<!-- Node5 -->
<g id="Node000005" class="node">
<title>Node5</title>
<g id="a_Node000005"><a xlink:href="../../d1/d39/classlci_1_1graph__start__x.html#add9faaae04e5c5921699ccda5de79395" target="_top" xlink:title=" ">
<polygon fill="white" stroke="#666666" points="101,-33 0,-33 0,-3 101,-3 101,-33"/>
<text text-anchor="start" x="8" y="-21" font-family="Helvetica,sans-Serif" font-size="10.00">lci::graph_start_x</text>
<text text-anchor="middle" x="50.5" y="-10" font-family="Helvetica,sans-Serif" font-size="10.00">::operator()</text>
</a>
</g>
</g>
<!-- Node3&#45;&gt;Node5 -->
<g id="edge4_Node000003_Node000005" class="edge">
<title>Node3&#45;&gt;Node5</title>
<g id="a_edge4_Node000003_Node000005"><a xlink:title=" ">
<path fill="none" stroke="#63b8ff" d="M127.07,-29.76C118.52,-28.43 109.79,-27.07 101.45,-25.77"/>
<polygon fill="#63b8ff" stroke="#63b8ff" points="126.58,-33.22 137,-31.3 127.65,-26.3 126.58,-33.22"/>
</a>
</g>
</g>
<!-- Node6&#45;&gt;Node3 -->
<g id="edge6_Node000006_Node000003" class="edge">
<title>Node6&#45;&gt;Node3</title>
<g id="a_edge6_Node000006_Node000003"><a xlink:title=" ">
<path fill="none" stroke="#63b8ff" d="M263.79,-39C255.33,-39 246.7,-39 238.45,-39"/>
<polygon fill="#63b8ff" stroke="#63b8ff" points="264,-42.5 274,-39 264,-35.5 264,-42.5"/>
</a>
</g>
</g>
<!-- Node7&#45;&gt;Node3 -->
<g id="edge8_Node000007_Node000003" class="edge">
<title>Node7&#45;&gt;Node3</title>
<g id="a_edge8_Node000007_Node000003"><a xlink:title=" ">
<path fill="none" stroke="#63b8ff" d="M400.72,-10.87C363.99,-9.35 316.07,-9.21 274,-15 260.56,-16.85 246.26,-20.26 233.27,-23.95"/>
<polygon fill="#63b8ff" stroke="#63b8ff" points="400.62,-14.37 410.77,-11.33 400.94,-7.37 400.62,-14.37"/>
</a>
</g>
</g>
<!-- Node7&#45;&gt;Node6 -->
<g id="edge9_Node000007_Node000006" class="edge">
<title>Node7&#45;&gt;Node6</title>
<g id="a_edge9_Node000007_Node000006"><a xlink:title=" ">
<path fill="none" stroke="#63b8ff" d="M401.07,-25.57C392.52,-27.09 383.79,-28.64 375.45,-30.12"/>
<polygon fill="#63b8ff" stroke="#63b8ff" points="401.76,-29 411,-23.8 400.54,-22.1 401.76,-29"/>
</a>
</g>
</g>
</g>
</svg>
