<?xml version="1.0" encoding="UTF-8" standalone="no"?>
<!DOCTYPE svg PUBLIC "-//W3C//DTD SVG 1.1//EN"
 "http://www.w3.org/Graphics/SVG/1.1/DTD/svg11.dtd">
<!-- Generated by graphviz version 2.43.0 (0)
 -->
<!-- Title: lci::post_recv_x Pages: 1 -->
<svg width="728pt" height="466pt"
 viewBox="0.00 0.00 728.00 465.62" xmlns="http://www.w3.org/2000/svg" xmlns:xlink="http://www.w3.org/1999/xlink">
<g id="graph0" class="graph" transform="scale(1 1) rotate(0) translate(4 461.62)">
<title>lci::post_recv_x</title>
<!-- Node1 -->
<g id="Node000001" class="node">
<title>Node1</title>
<g id="a_Node000001"><a xlink:title="The actual implementation for post_recv.">
<polygon fill="#999999" stroke="#666666" points="720,-238.12 628,-238.12 628,-219.12 720,-219.12 720,-238.12"/>
<text text-anchor="middle" x="674" y="-226.12" font-family="Helvetica,sans-Serif" font-size="10.00">lci::post_recv_x</text>
</a>
</g>
</g>
<!-- Node2 -->
<g id="Node000002" class="node">
<title>Node2</title>
<g id="a_Node000002"><a xlink:href="../../d1/da7/classlci_1_1comp__t.html" target="_top" xlink:title="The actual implementation for RESOURCE comp.">
<polygon fill="white" stroke="#666666" points="458.5,-453.12 388.5,-453.12 388.5,-434.12 458.5,-434.12 458.5,-453.12"/>
<text text-anchor="middle" x="423.5" y="-441.12" font-family="Helvetica,sans-Serif" font-size="10.00">lci::comp_t</text>
</a>
</g>
</g>
<!-- Node2&#45;&gt;Node1 -->
<g id="edge1_Node000001_Node000002" class="edge">
<title>Node2&#45;&gt;Node1</title>
<g id="a_edge1_Node000001_Node000002"><a xlink:title=" ">
<path fill="none" stroke="#9a32cd" stroke-dasharray="5,2" d="M468.61,-447.59C509.89,-448.84 570.9,-444.01 610,-410.62 664.16,-364.37 671.81,-269.09 672.85,-238.39"/>
<polygon fill="#9a32cd" stroke="#9a32cd" points="468.7,-444.09 458.56,-447.16 468.4,-451.09 468.7,-444.09"/>
</a>
</g>
<text text-anchor="middle" x="558.5" y="-449.62" font-family="Helvetica,sans-Serif" font-size="10.00" fill="grey"> m_local_comp</text>
</g>
<!-- Node3 -->
<g id="Node000003" class="node">
<title>Node3</title>
<g id="a_Node000003"><a xlink:href="../../d9/d97/classlci_1_1comp__impl__t.html" target="_top" xlink:title="Completion object implementation base type.">
<polygon fill="white" stroke="#666666" points="261,-453.12 164,-453.12 164,-434.12 261,-434.12 261,-453.12"/>
<text text-anchor="middle" x="212.5" y="-441.12" font-family="Helvetica,sans-Serif" font-size="10.00">lci::comp_impl_t</text>
</a>
</g>
</g>
<!-- Node3&#45;&gt;Node2 -->
<g id="edge2_Node000002_Node000003" class="edge">
<title>Node3&#45;&gt;Node2</title>
<g id="a_edge2_Node000002_Node000003"><a xlink:title=" ">
<path fill="none" stroke="#9a32cd" stroke-dasharray="5,2" d="M271.5,-443.62C309.09,-443.62 356.75,-443.62 388.37,-443.62"/>
<polygon fill="#9a32cd" stroke="#9a32cd" points="271.19,-440.12 261.19,-443.62 271.19,-447.12 271.19,-440.12"/>
</a>
</g>
<text text-anchor="middle" x="317" y="-446.62" font-family="Helvetica,sans-Serif" font-size="10.00" fill="grey"> p_impl</text>
</g>
<!-- Node4 -->
<g id="Node000004" class="node">
<title>Node4</title>
<g id="a_Node000004"><a xlink:href="../../dc/da6/structlci_1_1comp__attr__t.html" target="_top" xlink:title=" ">
<polygon fill="white" stroke="#666666" points="92,-453.12 0,-453.12 0,-434.12 92,-434.12 92,-453.12"/>
<text text-anchor="middle" x="46" y="-441.12" font-family="Helvetica,sans-Serif" font-size="10.00">lci::comp_attr_t</text>
</a>
</g>
</g>
<!-- Node4&#45;&gt;Node3 -->
<g id="edge3_Node000003_Node000004" class="edge">
<title>Node4&#45;&gt;Node3</title>
<g id="a_edge3_Node000003_Node000004"><a xlink:title=" ">
<path fill="none" stroke="#9a32cd" stroke-dasharray="5,2" d="M102.57,-443.62C122.5,-443.62 144.78,-443.62 163.97,-443.62"/>
<polygon fill="#9a32cd" stroke="#9a32cd" points="102.39,-440.12 92.39,-443.62 102.39,-447.12 102.39,-440.12"/>
</a>
</g>
<text text-anchor="middle" x="120.5" y="-446.62" font-family="Helvetica,sans-Serif" font-size="10.00" fill="grey"> attr</text>
</g>
<!-- Node5 -->
<g id="Node000005" class="node">
<title>Node5</title>
<g id="a_Node000005"><a xlink:href="../../db/d20/structlci_1_1option__t.html" target="_top" xlink:title=" ">
<polygon fill="white" stroke="#666666" points="471.5,-415.62 375.5,-415.62 375.5,-385.62 471.5,-385.62 471.5,-415.62"/>
<text text-anchor="start" x="383.5" y="-403.62" font-family="Helvetica,sans-Serif" font-size="10.00">lci::option_t&lt; lci</text>
<text text-anchor="middle" x="423.5" y="-392.62" font-family="Helvetica,sans-Serif" font-size="10.00">::runtime_t &gt;</text>
</a>
</g>
</g>
<!-- Node5&#45;&gt;Node1 -->
<g id="edge4_Node000001_Node000005" class="edge">
<title>Node5&#45;&gt;Node1</title>
<g id="a_edge4_Node000001_Node000005"><a xlink:title=" ">
<path fill="none" stroke="#9a32cd" stroke-dasharray="5,2" d="M481.68,-399.52C521.47,-396.01 573.7,-385.57 610,-356.62 649.5,-325.12 666.05,-262.54 671.15,-238.42"/>
<polygon fill="#9a32cd" stroke="#9a32cd" points="481.3,-396.04 471.59,-400.29 481.83,-403.02 481.3,-396.04"/>
</a>
</g>
<text text-anchor="middle" x="558.5" y="-398.62" font-family="Helvetica,sans-Serif" font-size="10.00" fill="grey"> m_runtime</text>
</g>
<!-- Node6 -->
<g id="Node000006" class="node">
<title>Node6</title>
<g id="a_Node000006"><a xlink:href="../../dc/d5c/classlci_1_1runtime__t.html" target="_top" xlink:title="The actual implementation for RESOURCE runtime.">
<polygon fill="white" stroke="#666666" points="253,-410.12 172,-410.12 172,-391.12 253,-391.12 253,-410.12"/>
<text text-anchor="middle" x="212.5" y="-398.12" font-family="Helvetica,sans-Serif" font-size="10.00">lci::runtime_t</text>
</a>
</g>
</g>
<!-- Node6&#45;&gt;Node5 -->
<g id="edge5_Node000005_Node000006" class="edge">
<title>Node6&#45;&gt;Node5</title>
<g id="a_edge5_Node000005_Node000006"><a xlink:title=" ">
<path fill="none" stroke="#9a32cd" stroke-dasharray="5,2" d="M263.45,-400.62C297.33,-400.62 341.85,-400.62 375.16,-400.62"/>
<polygon fill="#9a32cd" stroke="#9a32cd" points="263.3,-397.12 253.3,-400.62 263.3,-404.12 263.3,-397.12"/>
</a>
</g>
<text text-anchor="middle" x="317" y="-403.62" font-family="Helvetica,sans-Serif" font-size="10.00" fill="grey"> m_value</text>
</g>
<!-- Node7 -->
<g id="Node000007" class="node">
<title>Node7</title>
<g id="a_Node000007"><a xlink:href="../../db/d20/structlci_1_1option__t.html" target="_top" xlink:title=" ">
<polygon fill="white" stroke="#666666" points="474,-367.62 373,-367.62 373,-337.62 474,-337.62 474,-367.62"/>
<text text-anchor="start" x="381" y="-355.62" font-family="Helvetica,sans-Serif" font-size="10.00">lci::option_t&lt; lci</text>
<text text-anchor="middle" x="423.5" y="-344.62" font-family="Helvetica,sans-Serif" font-size="10.00">::packet_pool_t &gt;</text>
</a>
</g>
</g>
<!-- Node7&#45;&gt;Node1 -->
<g id="edge6_Node000001_Node000007" class="edge">
<title>Node7&#45;&gt;Node1</title>
<g id="a_edge6_Node000001_Node000007"><a xlink:title=" ">
<path fill="none" stroke="#9a32cd" stroke-dasharray="5,2" d="M484.25,-346.26C522.56,-340 572.04,-327.7 610,-303.62 636.85,-286.59 658.09,-254.42 667.59,-238.32"/>
<polygon fill="#9a32cd" stroke="#9a32cd" points="483.61,-342.82 474.26,-347.8 484.68,-349.74 483.61,-342.82"/>
</a>
</g>
<text text-anchor="middle" x="558.5" y="-344.62" font-family="Helvetica,sans-Serif" font-size="10.00" fill="grey"> m_packet_pool</text>
</g>
<!-- Node8 -->
<g id="Node000008" class="node">
<title>Node8</title>
<g id="a_Node000008"><a xlink:href="../../db/dec/classlci_1_1packet__pool__t.html" target="_top" xlink:title="The actual implementation for RESOURCE packet_pool.">
<polygon fill="white" stroke="#666666" points="263,-362.12 162,-362.12 162,-343.12 263,-343.12 263,-362.12"/>
<text text-anchor="middle" x="212.5" y="-350.12" font-family="Helvetica,sans-Serif" font-size="10.00">lci::packet_pool_t</text>
</a>
</g>
</g>
<!-- Node8&#45;&gt;Node7 -->
<g id="edge7_Node000007_Node000008" class="edge">
<title>Node8&#45;&gt;Node7</title>
<g id="a_edge7_Node000007_Node000008"><a xlink:title=" ">
<path fill="none" stroke="#9a32cd" stroke-dasharray="5,2" d="M273.03,-352.62C304.63,-352.62 343.01,-352.62 372.96,-352.62"/>
<polygon fill="#9a32cd" stroke="#9a32cd" points="273.03,-349.12 263.03,-352.62 273.03,-356.12 273.03,-349.12"/>
</a>
</g>
<text text-anchor="middle" x="317" y="-355.62" font-family="Helvetica,sans-Serif" font-size="10.00" fill="grey"> m_value</text>
</g>
<!-- Node9 -->
<g id="Node000009" class="node">
<title>Node9</title>
<g id="a_Node000009"><a xlink:href="../../db/d20/structlci_1_1option__t.html" target="_top" xlink:title=" ">
<polygon fill="white" stroke="#666666" points="471.5,-319.62 375.5,-319.62 375.5,-289.62 471.5,-289.62 471.5,-319.62"/>
<text text-anchor="start" x="383.5" y="-307.62" font-family="Helvetica,sans-Serif" font-size="10.00">lci::option_t&lt; lci</text>
<text text-anchor="middle" x="423.5" y="-296.62" font-family="Helvetica,sans-Serif" font-size="10.00">::device_t &gt;</text>
</a>
</g>
</g>
<!-- Node9&#45;&gt;Node1 -->
<g id="edge8_Node000001_Node000009" class="edge">
<title>Node9&#45;&gt;Node1</title>
<g id="a_edge8_Node000001_Node000009"><a xlink:title=" ">
<path fill="none" stroke="#9a32cd" stroke-dasharray="5,2" d="M481.75,-295.26C518.99,-288.22 568.21,-277.12 610,-261.62 626.9,-255.35 645.02,-245.5 657.46,-238.19"/>
<polygon fill="#9a32cd" stroke="#9a32cd" points="480.78,-291.88 471.58,-297.13 482.05,-298.76 480.78,-291.88"/>
</a>
</g>
<text text-anchor="middle" x="558.5" y="-291.62" font-family="Helvetica,sans-Serif" font-size="10.00" fill="grey"> m_device</text>
</g>
<!-- Node10 -->
<g id="Node000010" class="node">
<title>Node10</title>
<g id="a_Node000010"><a xlink:href="../../d6/d66/classlci_1_1device__t.html" target="_top" xlink:title="The actual implementation for RESOURCE device.">
<polygon fill="white" stroke="#666666" points="250,-314.12 175,-314.12 175,-295.12 250,-295.12 250,-314.12"/>
<text text-anchor="middle" x="212.5" y="-302.12" font-family="Helvetica,sans-Serif" font-size="10.00">lci::device_t</text>
</a>
</g>
</g>
<!-- Node10&#45;&gt;Node9 -->
<g id="edge9_Node000009_Node000010" class="edge">
<title>Node10&#45;&gt;Node9</title>
<g id="a_edge9_Node000009_Node000010"><a xlink:title=" ">
<path fill="none" stroke="#9a32cd" stroke-dasharray="5,2" d="M260.61,-304.62C294.87,-304.62 341.08,-304.62 375.35,-304.62"/>
<polygon fill="#9a32cd" stroke="#9a32cd" points="260.38,-301.12 250.38,-304.62 260.38,-308.12 260.38,-301.12"/>
</a>
</g>
<text text-anchor="middle" x="317" y="-307.62" font-family="Helvetica,sans-Serif" font-size="10.00" fill="grey"> m_value</text>
</g>
<!-- Node11 -->
<g id="Node000011" class="node">
<title>Node11</title>
<g id="a_Node000011"><a xlink:href="../../db/d20/structlci_1_1option__t.html" target="_top" xlink:title=" ">
<polygon fill="white" stroke="#666666" points="471.5,-271.62 375.5,-271.62 375.5,-241.62 471.5,-241.62 471.5,-271.62"/>
<text text-anchor="start" x="383.5" y="-259.62" font-family="Helvetica,sans-Serif" font-size="10.00">lci::option_t&lt; lci</text>
<text text-anchor="middle" x="423.5" y="-248.62" font-family="Helvetica,sans-Serif" font-size="10.00">::endpoint_t &gt;</text>
</a>
</g>
</g>
<!-- Node11&#45;&gt;Node1 -->
<g id="edge10_Node000001_Node000011" class="edge">
<title>Node11&#45;&gt;Node1</title>
<g id="a_edge10_Node000001_Node000011"><a xlink:title=" ">
<path fill="none" stroke="#9a32cd" stroke-dasharray="5,2" d="M481.6,-250.19C526.01,-245.18 586.78,-238.34 627.83,-233.71"/>
<polygon fill="#9a32cd" stroke="#9a32cd" points="481.08,-246.72 471.53,-251.32 481.86,-253.68 481.08,-246.72"/>
</a>
</g>
<text text-anchor="middle" x="558.5" y="-249.62" font-family="Helvetica,sans-Serif" font-size="10.00" fill="grey"> m_endpoint</text>
</g>
<!-- Node12 -->
<g id="Node000012" class="node">
<title>Node12</title>
<g id="a_Node000012"><a xlink:href="../../de/d1b/classlci_1_1endpoint__t.html" target="_top" xlink:title="The actual implementation for RESOURCE endpoint.">
<polygon fill="white" stroke="#666666" points="255.5,-266.12 169.5,-266.12 169.5,-247.12 255.5,-247.12 255.5,-266.12"/>
<text text-anchor="middle" x="212.5" y="-254.12" font-family="Helvetica,sans-Serif" font-size="10.00">lci::endpoint_t</text>
</a>
</g>
</g>
<!-- Node12&#45;&gt;Node11 -->
<g id="edge11_Node000011_Node000012" class="edge">
<title>Node12&#45;&gt;Node11</title>
<g id="a_edge11_Node000011_Node000012"><a xlink:title=" ">
<path fill="none" stroke="#9a32cd" stroke-dasharray="5,2" d="M265.66,-256.62C299.34,-256.62 342.8,-256.62 375.42,-256.62"/>
<polygon fill="#9a32cd" stroke="#9a32cd" points="265.54,-253.12 255.54,-256.62 265.54,-260.12 265.54,-253.12"/>
</a>
</g>
<text text-anchor="middle" x="317" y="-259.62" font-family="Helvetica,sans-Serif" font-size="10.00" fill="grey"> m_value</text>
</g>
<!-- Node13 -->
<g id="Node000013" class="node">
<title>Node13</title>
<g id="a_Node000013"><a xlink:href="../../db/d20/structlci_1_1option__t.html" target="_top" xlink:title=" ">
<polygon fill="white" stroke="#666666" points="487,-223.62 360,-223.62 360,-193.62 487,-193.62 487,-223.62"/>
<text text-anchor="start" x="368" y="-211.62" font-family="Helvetica,sans-Serif" font-size="10.00">lci::option_t&lt; lci</text>
<text text-anchor="middle" x="423.5" y="-200.62" font-family="Helvetica,sans-Serif" font-size="10.00">::matching_engine_t &gt;</text>
</a>
</g>
</g>
<!-- Node13&#45;&gt;Node1 -->
<g id="edge12_Node000001_Node000013" class="edge">
<title>Node13&#45;&gt;Node1</title>
<g id="a_edge12_Node000001_Node000013"><a xlink:title=" ">
<path fill="none" stroke="#9a32cd" stroke-dasharray="5,2" d="M497.65,-211.56C531.84,-213.3 573.06,-215.89 610,-219.62 615.83,-220.21 621.94,-220.94 627.97,-221.73"/>
<polygon fill="#9a32cd" stroke="#9a32cd" points="497.44,-208.05 487.28,-211.05 497.1,-215.04 497.44,-208.05"/>
</a>
</g>
<text text-anchor="middle" x="558.5" y="-222.62" font-family="Helvetica,sans-Serif" font-size="10.00" fill="grey"> m_matching_engine</text>
</g>
<!-- Node14 -->
<g id="Node000014" class="node">
<title>Node14</title>
<g id="a_Node000014"><a xlink:href="../../d8/d3f/classlci_1_1matching__engine__t.html" target="_top" xlink:title="The actual implementation for RESOURCE matching_engine.">
<polygon fill="white" stroke="#666666" points="276,-218.12 149,-218.12 149,-199.12 276,-199.12 276,-218.12"/>
<text text-anchor="middle" x="212.5" y="-206.12" font-family="Helvetica,sans-Serif" font-size="10.00">lci::matching_engine_t</text>
</a>
</g>
</g>
<!-- Node14&#45;&gt;Node13 -->
<g id="edge13_Node000013_Node000014" class="edge">
<title>Node14&#45;&gt;Node13</title>
<g id="a_edge13_Node000013_Node000014"><a xlink:title=" ">
<path fill="none" stroke="#9a32cd" stroke-dasharray="5,2" d="M286.31,-208.62C310.28,-208.62 336.7,-208.62 359.84,-208.62"/>
<polygon fill="#9a32cd" stroke="#9a32cd" points="286.21,-205.12 276.21,-208.62 286.21,-212.12 286.21,-205.12"/>
</a>
</g>
<text text-anchor="middle" x="317" y="-211.62" font-family="Helvetica,sans-Serif" font-size="10.00" fill="grey"> m_value</text>
</g>
<!-- Node15 -->
<g id="Node000015" class="node">
<title>Node15</title>
<g id="a_Node000015"><a xlink:href="../../db/d20/structlci_1_1option__t.html" target="_top" xlink:title=" ">
<polygon fill="white" stroke="#666666" points="471.5,-175.62 375.5,-175.62 375.5,-145.62 471.5,-145.62 471.5,-175.62"/>
<text text-anchor="start" x="383.5" y="-163.62" font-family="Helvetica,sans-Serif" font-size="10.00">lci::option_t&lt; lci</text>
<text text-anchor="middle" x="423.5" y="-152.62" font-family="Helvetica,sans-Serif" font-size="10.00">::mr_t &gt;</text>
</a>
</g>
</g>
<!-- Node15&#45;&gt;Node1 -->
<g id="edge14_Node000001_Node000015" class="edge">
<title>Node15&#45;&gt;Node1</title>
<g id="a_edge14_Node000001_Node000015"><a xlink:title=" ">
<path fill="none" stroke="#9a32cd" stroke-dasharray="5,2" d="M481.72,-167.53C518.95,-173.04 568.17,-182.25 610,-196.62 626.82,-202.4 644.8,-211.9 657.23,-219.05"/>
<polygon fill="#9a32cd" stroke="#9a32cd" points="481.95,-164.02 471.56,-166.07 480.96,-170.95 481.95,-164.02"/>
</a>
</g>
<text text-anchor="middle" x="558.5" y="-199.62" font-family="Helvetica,sans-Serif" font-size="10.00" fill="grey"> m_mr</text>
</g>
<!-- Node16 -->
<g id="Node000016" class="node">
<title>Node16</title>
<g id="a_Node000016"><a xlink:href="../../d7/d1a/classlci_1_1mr__t.html" target="_top" xlink:title="The actual implementation for RESOURCE mr.">
<polygon fill="white" stroke="#666666" points="240.5,-170.12 184.5,-170.12 184.5,-151.12 240.5,-151.12 240.5,-170.12"/>
<text text-anchor="middle" x="212.5" y="-158.12" font-family="Helvetica,sans-Serif" font-size="10.00">lci::mr_t</text>
</a>
</g>
</g>
<!-- Node16&#45;&gt;Node15 -->
<g id="edge15_Node000015_Node000016" class="edge">
<title>Node16&#45;&gt;Node15</title>
<g id="a_edge15_Node000015_Node000016"><a xlink:title=" ">
<path fill="none" stroke="#9a32cd" stroke-dasharray="5,2" d="M251.03,-160.62C285.78,-160.62 337.61,-160.62 375.19,-160.62"/>
<polygon fill="#9a32cd" stroke="#9a32cd" points="250.82,-157.12 240.82,-160.62 250.82,-164.12 250.82,-157.12"/>
</a>
</g>
<text text-anchor="middle" x="317" y="-163.62" font-family="Helvetica,sans-Serif" font-size="10.00" fill="grey"> m_value</text>
</g>
<!-- Node17 -->
<g id="Node000017" class="node">
<title>Node17</title>
<g id="a_Node000017"><a xlink:href="../../db/d20/structlci_1_1option__t.html" target="_top" xlink:title=" ">
<polygon fill="white" stroke="#666666" points="486,-127.12 361,-127.12 361,-108.12 486,-108.12 486,-127.12"/>
<text text-anchor="middle" x="423.5" y="-115.12" font-family="Helvetica,sans-Serif" font-size="10.00">lci::option_t&lt; void * &gt;</text>
</a>
</g>
</g>
<!-- Node17&#45;&gt;Node1 -->
<g id="edge16_Node000001_Node000017" class="edge">
<title>Node17&#45;&gt;Node1</title>
<g id="a_edge16_Node000001_Node000017"><a xlink:title=" ">
<path fill="none" stroke="#9a32cd" stroke-dasharray="5,2" d="M496.08,-121.92C532.23,-126.67 575.6,-136.49 610,-156.62 636.66,-172.23 657.84,-203.17 667.43,-218.92"/>
<polygon fill="#9a32cd" stroke="#9a32cd" points="496.44,-118.44 486.09,-120.71 495.59,-125.39 496.44,-118.44"/>
</a>
</g>
<text text-anchor="middle" x="558.5" y="-159.62" font-family="Helvetica,sans-Serif" font-size="10.00" fill="grey"> m_user_context</text>
</g>
<!-- Node18 -->
<g id="Node000018" class="node">
<title>Node18</title>
<g id="a_Node000018"><a xlink:href="../../db/d20/structlci_1_1option__t.html" target="_top" xlink:title=" ">
<polygon fill="white" stroke="#666666" points="489,-89.62 358,-89.62 358,-59.62 489,-59.62 489,-89.62"/>
<text text-anchor="start" x="366" y="-77.62" font-family="Helvetica,sans-Serif" font-size="10.00">lci::option_t&lt; matching</text>
<text text-anchor="middle" x="423.5" y="-66.62" font-family="Helvetica,sans-Serif" font-size="10.00">_policy_t &gt;</text>
</a>
</g>
</g>
<!-- Node18&#45;&gt;Node1 -->
<g id="edge17_Node000001_Node000018" class="edge">
<title>Node18&#45;&gt;Node1</title>
<g id="a_edge17_Node000001_Node000018"><a xlink:title=" ">
<path fill="none" stroke="#9a32cd" stroke-dasharray="5,2" d="M499.37,-74.02C535.79,-77.18 578.41,-86.34 610,-109.62 648.2,-137.78 665.43,-196.11 670.93,-219.05"/>
<polygon fill="#9a32cd" stroke="#9a32cd" points="499.5,-70.52 489.27,-73.29 498.99,-77.51 499.5,-70.52"/>
</a>
</g>
<text text-anchor="middle" x="558.5" y="-112.62" font-family="Helvetica,sans-Serif" font-size="10.00" fill="grey"> m_matching_policy</text>
</g>
<!-- Node19 -->
<g id="Node000019" class="node">
<title>Node19</title>
<g id="a_Node000019"><a xlink:href="../../db/d20/structlci_1_1option__t.html" target="_top" xlink:title=" ">
<polygon fill="white" stroke="#666666" points="482,-22.12 365,-22.12 365,-3.12 482,-3.12 482,-22.12"/>
<text text-anchor="middle" x="423.5" y="-10.12" font-family="Helvetica,sans-Serif" font-size="10.00">lci::option_t&lt; bool &gt;</text>
</a>
</g>
</g>
<!-- Node19&#45;&gt;Node1 -->
<g id="edge18_Node000001_Node000019" class="edge">
<title>Node19&#45;&gt;Node1</title>
<g id="a_edge18_Node000001_Node000019"><a xlink:title=" ">
<path fill="none" stroke="#9a32cd" stroke-dasharray="5,2" d="M480.79,-1.86C521.02,2.49 574.16,1 610,-27.62 671.72,-76.91 674.14,-186.12 673.39,-219.04"/>
<polygon fill="#9a32cd" stroke="#9a32cd" points="480.36,1.61 470.86,-3.08 481.21,-5.34 480.36,1.61"/>
</a>
</g>
<text text-anchor="middle" x="558.5" y="-63.62" font-family="Helvetica,sans-Serif" font-size="10.00" fill="grey"> m_allow_done</text>
<text text-anchor="middle" x="558.5" y="-52.62" font-family="Helvetica,sans-Serif" font-size="10.00" fill="grey">m_allow_posted</text>
<text text-anchor="middle" x="558.5" y="-41.62" font-family="Helvetica,sans-Serif" font-size="10.00" fill="grey">m_allow_retry</text>
<text text-anchor="middle" x="558.5" y="-30.62" font-family="Helvetica,sans-Serif" font-size="10.00" fill="grey">m_force_zcopy</text>
</g>
</g>
</svg>
