<?xml version="1.0" encoding="UTF-8" standalone="no"?>
<!DOCTYPE svg PUBLIC "-//W3C//DTD SVG 1.1//EN"
 "http://www.w3.org/Graphics/SVG/1.1/DTD/svg11.dtd">
<!-- Generated by graphviz version 2.43.0 (0)
 -->
<!-- Title: lci::post_recv_x Pages: 1 -->
<svg width="736pt" height="506pt"
 viewBox="0.00 0.00 736.00 506.26" xmlns="http://www.w3.org/2000/svg" xmlns:xlink="http://www.w3.org/1999/xlink">
<g id="graph0" class="graph" transform="scale(1 1) rotate(0) translate(4 502.26)">
<title>lci::post_recv_x</title>
<!-- Node1 -->
<g id="Node000001" class="node">
<title>Node1</title>
<g id="a_Node000001"><a xlink:title="The actual implementation for post_recv.">
<polygon fill="#999999" stroke="#666666" points="728,-259.76 636,-259.76 636,-240.76 728,-240.76 728,-259.76"/>
<text text-anchor="middle" x="682" y="-247.76" font-family="Helvetica,sans-Serif" font-size="10.00">lci::post_recv_x</text>
</a>
</g>
</g>
<!-- Node2 -->
<g id="Node000002" class="node">
<title>Node2</title>
<g id="a_Node000002"><a xlink:href="../../d1/da7/classlci_1_1comp__t.html" target="_top" xlink:title="The actual implementation for RESOURCE comp.">
<polygon fill="white" stroke="#666666" points="462.5,-494.76 392.5,-494.76 392.5,-475.76 462.5,-475.76 462.5,-494.76"/>
<text text-anchor="middle" x="427.5" y="-482.76" font-family="Helvetica,sans-Serif" font-size="10.00">lci::comp_t</text>
</a>
</g>
</g>
<!-- Node2&#45;&gt;Node1 -->
<g id="edge1_Node000001_Node000002" class="edge">
<title>Node2&#45;&gt;Node1</title>
<g id="a_edge1_Node000001_Node000002"><a xlink:title=" ">
<path fill="none" stroke="#9a32cd" stroke-dasharray="5,2" d="M472.78,-489.47C515.13,-490.97 578.27,-486.27 618,-451.26 676.99,-399.28 681.33,-292.84 681.21,-260.08"/>
<polygon fill="#9a32cd" stroke="#9a32cd" points="472.91,-485.97 462.75,-488.98 472.57,-492.96 472.91,-485.97"/>
</a>
</g>
<text text-anchor="middle" x="566.5" y="-490.26" font-family="Helvetica,sans-Serif" font-size="10.00" fill="grey"> m_local_comp</text>
</g>
<!-- Node3 -->
<g id="Node000003" class="node">
<title>Node3</title>
<g id="a_Node000003"><a xlink:href="../../d9/d97/classlci_1_1comp__impl__t.html" target="_top" xlink:title="Completion object implementation base type.">
<polygon fill="white" stroke="#666666" points="261,-494.76 164,-494.76 164,-475.76 261,-475.76 261,-494.76"/>
<text text-anchor="middle" x="212.5" y="-482.76" font-family="Helvetica,sans-Serif" font-size="10.00">lci::comp_impl_t</text>
</a>
</g>
</g>
<!-- Node3&#45;&gt;Node2 -->
<g id="edge2_Node000002_Node000003" class="edge">
<title>Node3&#45;&gt;Node2</title>
<g id="a_edge2_Node000002_Node000003"><a xlink:title=" ">
<path fill="none" stroke="#9a32cd" stroke-dasharray="5,2" d="M271.15,-485.26C309.92,-485.26 359.73,-485.26 392.35,-485.26"/>
<polygon fill="#9a32cd" stroke="#9a32cd" points="271.04,-481.76 261.04,-485.26 271.04,-488.76 271.04,-481.76"/>
</a>
</g>
<text text-anchor="middle" x="317" y="-488.26" font-family="Helvetica,sans-Serif" font-size="10.00" fill="grey"> p_impl</text>
</g>
<!-- Node4 -->
<g id="Node000004" class="node">
<title>Node4</title>
<g id="a_Node000004"><a xlink:href="../../dc/da6/structlci_1_1comp__attr__t.html" target="_top" xlink:title=" ">
<polygon fill="white" stroke="#666666" points="92,-494.76 0,-494.76 0,-475.76 92,-475.76 92,-494.76"/>
<text text-anchor="middle" x="46" y="-482.76" font-family="Helvetica,sans-Serif" font-size="10.00">lci::comp_attr_t</text>
</a>
</g>
</g>
<!-- Node4&#45;&gt;Node3 -->
<g id="edge3_Node000003_Node000004" class="edge">
<title>Node4&#45;&gt;Node3</title>
<g id="a_edge3_Node000003_Node000004"><a xlink:title=" ">
<path fill="none" stroke="#9a32cd" stroke-dasharray="5,2" d="M102.57,-485.26C122.5,-485.26 144.78,-485.26 163.97,-485.26"/>
<polygon fill="#9a32cd" stroke="#9a32cd" points="102.39,-481.76 92.39,-485.26 102.39,-488.76 102.39,-481.76"/>
</a>
</g>
<text text-anchor="middle" x="120.5" y="-488.26" font-family="Helvetica,sans-Serif" font-size="10.00" fill="grey"> attr</text>
</g>
<!-- Node5 -->
<g id="Node000005" class="node">
<title>Node5</title>
<g id="a_Node000005"><a xlink:href="../../db/d20/structlci_1_1option__t.html" target="_top" xlink:title=" ">
<polygon fill="white" stroke="#666666" points="475.5,-457.26 379.5,-457.26 379.5,-427.26 475.5,-427.26 475.5,-457.26"/>
<text text-anchor="start" x="387.5" y="-445.26" font-family="Helvetica,sans-Serif" font-size="10.00">lci::option_t&lt; lci</text>
<text text-anchor="middle" x="427.5" y="-434.26" font-family="Helvetica,sans-Serif" font-size="10.00">::runtime_t &gt;</text>
</a>
</g>
</g>
<!-- Node5&#45;&gt;Node1 -->
<g id="edge4_Node000001_Node000005" class="edge">
<title>Node5&#45;&gt;Node1</title>
<g id="a_edge4_Node000001_Node000005"><a xlink:title=" ">
<path fill="none" stroke="#9a32cd" stroke-dasharray="5,2" d="M485.94,-442.94C527,-440.49 581.28,-430.92 618,-400.26 663.1,-362.61 676.5,-287.12 679.94,-260.13"/>
<polygon fill="#9a32cd" stroke="#9a32cd" points="485.63,-439.45 475.81,-443.41 485.96,-446.44 485.63,-439.45"/>
</a>
</g>
<text text-anchor="middle" x="566.5" y="-442.26" font-family="Helvetica,sans-Serif" font-size="10.00" fill="grey"> m_runtime</text>
</g>
<!-- Node6 -->
<g id="Node000006" class="node">
<title>Node6</title>
<g id="a_Node000006"><a xlink:href="../../dc/d5c/classlci_1_1runtime__t.html" target="_top" xlink:title="The actual implementation for RESOURCE runtime.">
<polygon fill="white" stroke="#666666" points="253,-451.76 172,-451.76 172,-432.76 253,-432.76 253,-451.76"/>
<text text-anchor="middle" x="212.5" y="-439.76" font-family="Helvetica,sans-Serif" font-size="10.00">lci::runtime_t</text>
</a>
</g>
</g>
<!-- Node6&#45;&gt;Node5 -->
<g id="edge5_Node000005_Node000006" class="edge">
<title>Node6&#45;&gt;Node5</title>
<g id="a_edge5_Node000005_Node000006"><a xlink:title=" ">
<path fill="none" stroke="#9a32cd" stroke-dasharray="5,2" d="M263.08,-442.26C298.14,-442.26 344.84,-442.26 379.34,-442.26"/>
<polygon fill="#9a32cd" stroke="#9a32cd" points="263.06,-438.76 253.06,-442.26 263.06,-445.76 263.06,-438.76"/>
</a>
</g>
<text text-anchor="middle" x="317" y="-445.26" font-family="Helvetica,sans-Serif" font-size="10.00" fill="grey"> m_value</text>
</g>
<!-- Node7 -->
<g id="Node000007" class="node">
<title>Node7</title>
<g id="a_Node000007"><a xlink:href="../../db/d20/structlci_1_1option__t.html" target="_top" xlink:title=" ">
<polygon fill="white" stroke="#666666" points="478,-409.26 377,-409.26 377,-379.26 478,-379.26 478,-409.26"/>
<text text-anchor="start" x="385" y="-397.26" font-family="Helvetica,sans-Serif" font-size="10.00">lci::option_t&lt; lci</text>
<text text-anchor="middle" x="427.5" y="-386.26" font-family="Helvetica,sans-Serif" font-size="10.00">::packet_pool_t &gt;</text>
</a>
</g>
</g>
<!-- Node7&#45;&gt;Node1 -->
<g id="edge6_Node000001_Node000007" class="edge">
<title>Node7&#45;&gt;Node1</title>
<g id="a_edge6_Node000001_Node000007"><a xlink:title=" ">
<path fill="none" stroke="#9a32cd" stroke-dasharray="5,2" d="M488.27,-390.34C528.13,-385.18 579.99,-373.35 618,-346.26 649.82,-323.59 669.85,-279.36 677.48,-259.88"/>
<polygon fill="#9a32cd" stroke="#9a32cd" points="487.67,-386.89 478.15,-391.54 488.49,-393.84 487.67,-386.89"/>
</a>
</g>
<text text-anchor="middle" x="566.5" y="-388.26" font-family="Helvetica,sans-Serif" font-size="10.00" fill="grey"> m_packet_pool</text>
</g>
<!-- Node8 -->
<g id="Node000008" class="node">
<title>Node8</title>
<g id="a_Node000008"><a xlink:href="../../db/dec/classlci_1_1packet__pool__t.html" target="_top" xlink:title="The actual implementation for RESOURCE packet_pool.">
<polygon fill="white" stroke="#666666" points="263,-403.76 162,-403.76 162,-384.76 263,-384.76 263,-403.76"/>
<text text-anchor="middle" x="212.5" y="-391.76" font-family="Helvetica,sans-Serif" font-size="10.00">lci::packet_pool_t</text>
</a>
</g>
</g>
<!-- Node8&#45;&gt;Node7 -->
<g id="edge7_Node000007_Node000008" class="edge">
<title>Node8&#45;&gt;Node7</title>
<g id="a_edge7_Node000007_Node000008"><a xlink:title=" ">
<path fill="none" stroke="#9a32cd" stroke-dasharray="5,2" d="M273.48,-394.26C306.07,-394.26 345.9,-394.26 376.75,-394.26"/>
<polygon fill="#9a32cd" stroke="#9a32cd" points="273.17,-390.76 263.17,-394.26 273.17,-397.76 273.17,-390.76"/>
</a>
</g>
<text text-anchor="middle" x="317" y="-397.26" font-family="Helvetica,sans-Serif" font-size="10.00" fill="grey"> m_value</text>
</g>
<!-- Node9 -->
<g id="Node000009" class="node">
<title>Node9</title>
<g id="a_Node000009"><a xlink:href="../../db/d20/structlci_1_1option__t.html" target="_top" xlink:title=" ">
<polygon fill="white" stroke="#666666" points="475.5,-361.26 379.5,-361.26 379.5,-331.26 475.5,-331.26 475.5,-361.26"/>
<text text-anchor="start" x="387.5" y="-349.26" font-family="Helvetica,sans-Serif" font-size="10.00">lci::option_t&lt; lci</text>
<text text-anchor="middle" x="427.5" y="-338.26" font-family="Helvetica,sans-Serif" font-size="10.00">::device_t &gt;</text>
</a>
</g>
</g>
<!-- Node9&#45;&gt;Node1 -->
<g id="edge8_Node000001_Node000009" class="edge">
<title>Node9&#45;&gt;Node1</title>
<g id="a_edge8_Node000001_Node000009"><a xlink:title=" ">
<path fill="none" stroke="#9a32cd" stroke-dasharray="5,2" d="M485.61,-338.49C524.37,-331.7 576.02,-319.65 618,-299.26 638.94,-289.09 659.53,-271.17 671.21,-260.05"/>
<polygon fill="#9a32cd" stroke="#9a32cd" points="484.82,-335.07 475.54,-340.19 485.98,-341.98 484.82,-335.07"/>
</a>
</g>
<text text-anchor="middle" x="566.5" y="-334.26" font-family="Helvetica,sans-Serif" font-size="10.00" fill="grey"> m_device</text>
</g>
<!-- Node10 -->
<g id="Node000010" class="node">
<title>Node10</title>
<g id="a_Node000010"><a xlink:href="../../d6/d66/classlci_1_1device__t.html" target="_top" xlink:title="The actual implementation for RESOURCE device.">
<polygon fill="white" stroke="#666666" points="250,-355.76 175,-355.76 175,-336.76 250,-336.76 250,-355.76"/>
<text text-anchor="middle" x="212.5" y="-343.76" font-family="Helvetica,sans-Serif" font-size="10.00">lci::device_t</text>
</a>
</g>
</g>
<!-- Node10&#45;&gt;Node9 -->
<g id="edge9_Node000009_Node000010" class="edge">
<title>Node10&#45;&gt;Node9</title>
<g id="a_edge9_Node000009_Node000010"><a xlink:title=" ">
<path fill="none" stroke="#9a32cd" stroke-dasharray="5,2" d="M260.16,-346.26C295.45,-346.26 343.72,-346.26 379.17,-346.26"/>
<polygon fill="#9a32cd" stroke="#9a32cd" points="260.12,-342.76 250.12,-346.26 260.12,-349.76 260.12,-342.76"/>
</a>
</g>
<text text-anchor="middle" x="317" y="-349.26" font-family="Helvetica,sans-Serif" font-size="10.00" fill="grey"> m_value</text>
</g>
<!-- Node11 -->
<g id="Node000011" class="node">
<title>Node11</title>
<g id="a_Node000011"><a xlink:href="../../db/d20/structlci_1_1option__t.html" target="_top" xlink:title=" ">
<polygon fill="white" stroke="#666666" points="475.5,-313.26 379.5,-313.26 379.5,-283.26 475.5,-283.26 475.5,-313.26"/>
<text text-anchor="start" x="387.5" y="-301.26" font-family="Helvetica,sans-Serif" font-size="10.00">lci::option_t&lt; lci</text>
<text text-anchor="middle" x="427.5" y="-290.26" font-family="Helvetica,sans-Serif" font-size="10.00">::endpoint_t &gt;</text>
</a>
</g>
</g>
<!-- Node11&#45;&gt;Node1 -->
<g id="edge10_Node000001_Node000011" class="edge">
<title>Node11&#45;&gt;Node1</title>
<g id="a_edge10_Node000001_Node000011"><a xlink:title=" ">
<path fill="none" stroke="#9a32cd" stroke-dasharray="5,2" d="M486.04,-289.19C523.69,-283.01 573.9,-274.34 618,-265.26 625.93,-263.63 634.38,-261.73 642.44,-259.84"/>
<polygon fill="#9a32cd" stroke="#9a32cd" points="485.07,-285.8 475.77,-290.86 486.2,-292.7 485.07,-285.8"/>
</a>
</g>
<text text-anchor="middle" x="566.5" y="-287.26" font-family="Helvetica,sans-Serif" font-size="10.00" fill="grey"> m_endpoint</text>
</g>
<!-- Node12 -->
<g id="Node000012" class="node">
<title>Node12</title>
<g id="a_Node000012"><a xlink:href="../../de/d1b/classlci_1_1endpoint__t.html" target="_top" xlink:title="The actual implementation for RESOURCE endpoint.">
<polygon fill="white" stroke="#666666" points="255.5,-307.76 169.5,-307.76 169.5,-288.76 255.5,-288.76 255.5,-307.76"/>
<text text-anchor="middle" x="212.5" y="-295.76" font-family="Helvetica,sans-Serif" font-size="10.00">lci::endpoint_t</text>
</a>
</g>
</g>
<!-- Node12&#45;&gt;Node11 -->
<g id="edge11_Node000011_Node000012" class="edge">
<title>Node12&#45;&gt;Node11</title>
<g id="a_edge11_Node000011_Node000012"><a xlink:title=" ">
<path fill="none" stroke="#9a32cd" stroke-dasharray="5,2" d="M265.99,-298.26C300.68,-298.26 345.76,-298.26 379.32,-298.26"/>
<polygon fill="#9a32cd" stroke="#9a32cd" points="265.58,-294.76 255.58,-298.26 265.58,-301.76 265.58,-294.76"/>
</a>
</g>
<text text-anchor="middle" x="317" y="-301.26" font-family="Helvetica,sans-Serif" font-size="10.00" fill="grey"> m_value</text>
</g>
<!-- Node13 -->
<g id="Node000013" class="node">
<title>Node13</title>
<g id="a_Node000013"><a xlink:href="../../db/d20/structlci_1_1option__t.html" target="_top" xlink:title=" ">
<polygon fill="white" stroke="#666666" points="491,-265.26 364,-265.26 364,-235.26 491,-235.26 491,-265.26"/>
<text text-anchor="start" x="372" y="-253.26" font-family="Helvetica,sans-Serif" font-size="10.00">lci::option_t&lt; lci</text>
<text text-anchor="middle" x="427.5" y="-242.26" font-family="Helvetica,sans-Serif" font-size="10.00">::matching_engine_t &gt;</text>
</a>
</g>
</g>
<!-- Node13&#45;&gt;Node1 -->
<g id="edge12_Node000001_Node000013" class="edge">
<title>Node13&#45;&gt;Node1</title>
<g id="a_edge12_Node000001_Node000013"><a xlink:title=" ">
<path fill="none" stroke="#9a32cd" stroke-dasharray="5,2" d="M501.45,-250.26C544.78,-250.26 598.36,-250.26 635.66,-250.26"/>
<polygon fill="#9a32cd" stroke="#9a32cd" points="501.24,-246.76 491.24,-250.26 501.24,-253.76 501.24,-246.76"/>
</a>
</g>
<text text-anchor="middle" x="566.5" y="-253.26" font-family="Helvetica,sans-Serif" font-size="10.00" fill="grey"> m_matching_engine</text>
</g>
<!-- Node14 -->
<g id="Node000014" class="node">
<title>Node14</title>
<g id="a_Node000014"><a xlink:href="../../d8/d3f/classlci_1_1matching__engine__t.html" target="_top" xlink:title="The actual implementation for RESOURCE matching_engine.">
<polygon fill="white" stroke="#666666" points="276,-259.76 149,-259.76 149,-240.76 276,-240.76 276,-259.76"/>
<text text-anchor="middle" x="212.5" y="-247.76" font-family="Helvetica,sans-Serif" font-size="10.00">lci::matching_engine_t</text>
</a>
</g>
</g>
<!-- Node14&#45;&gt;Node13 -->
<g id="edge13_Node000013_Node000014" class="edge">
<title>Node14&#45;&gt;Node13</title>
<g id="a_edge13_Node000013_Node000014"><a xlink:title=" ">
<path fill="none" stroke="#9a32cd" stroke-dasharray="5,2" d="M286.48,-250.26C311.63,-250.26 339.57,-250.26 363.83,-250.26"/>
<polygon fill="#9a32cd" stroke="#9a32cd" points="286.26,-246.76 276.25,-250.26 286.25,-253.76 286.26,-246.76"/>
</a>
</g>
<text text-anchor="middle" x="317" y="-253.26" font-family="Helvetica,sans-Serif" font-size="10.00" fill="grey"> m_value</text>
</g>
<!-- Node15 -->
<g id="Node000015" class="node">
<title>Node15</title>
<g id="a_Node000015"><a xlink:href="../../db/d20/structlci_1_1option__t.html" target="_top" xlink:title=" ">
<polygon fill="white" stroke="#666666" points="475.5,-217.26 379.5,-217.26 379.5,-187.26 475.5,-187.26 475.5,-217.26"/>
<text text-anchor="start" x="387.5" y="-205.26" font-family="Helvetica,sans-Serif" font-size="10.00">lci::option_t&lt; lci</text>
<text text-anchor="middle" x="427.5" y="-194.26" font-family="Helvetica,sans-Serif" font-size="10.00">::mr_t &gt;</text>
</a>
</g>
</g>
<!-- Node15&#45;&gt;Node1 -->
<g id="edge14_Node000001_Node000015" class="edge">
<title>Node15&#45;&gt;Node1</title>
<g id="a_edge14_Node000001_Node000015"><a xlink:title=" ">
<path fill="none" stroke="#9a32cd" stroke-dasharray="5,2" d="M486.04,-211.34C523.69,-217.51 573.9,-226.18 618,-235.26 625.93,-236.9 634.38,-238.8 642.44,-240.69"/>
<polygon fill="#9a32cd" stroke="#9a32cd" points="486.2,-207.82 475.77,-209.67 485.07,-214.73 486.2,-207.82"/>
</a>
</g>
<text text-anchor="middle" x="566.5" y="-238.26" font-family="Helvetica,sans-Serif" font-size="10.00" fill="grey"> m_mr</text>
</g>
<!-- Node16 -->
<g id="Node000016" class="node">
<title>Node16</title>
<g id="a_Node000016"><a xlink:href="../../d7/d1a/classlci_1_1mr__t.html" target="_top" xlink:title="The actual implementation for RESOURCE mr.">
<polygon fill="white" stroke="#666666" points="240.5,-211.76 184.5,-211.76 184.5,-192.76 240.5,-192.76 240.5,-211.76"/>
<text text-anchor="middle" x="212.5" y="-199.76" font-family="Helvetica,sans-Serif" font-size="10.00">lci::mr_t</text>
</a>
</g>
</g>
<!-- Node16&#45;&gt;Node15 -->
<g id="edge15_Node000015_Node000016" class="edge">
<title>Node16&#45;&gt;Node15</title>
<g id="a_edge15_Node000015_Node000016"><a xlink:title=" ">
<path fill="none" stroke="#9a32cd" stroke-dasharray="5,2" d="M250.93,-202.26C286.66,-202.26 340.64,-202.26 379.31,-202.26"/>
<polygon fill="#9a32cd" stroke="#9a32cd" points="250.91,-198.76 240.91,-202.26 250.91,-205.76 250.91,-198.76"/>
</a>
</g>
<text text-anchor="middle" x="317" y="-205.26" font-family="Helvetica,sans-Serif" font-size="10.00" fill="grey"> m_value</text>
</g>
<!-- Node17 -->
<g id="Node000017" class="node">
<title>Node17</title>
<g id="a_Node000017"><a xlink:href="../../db/d20/structlci_1_1option__t.html" target="_top" xlink:title=" ">
<polygon fill="white" stroke="#666666" points="490,-168.76 365,-168.76 365,-149.76 490,-149.76 490,-168.76"/>
<text text-anchor="middle" x="427.5" y="-156.76" font-family="Helvetica,sans-Serif" font-size="10.00">lci::option_t&lt; void * &gt;</text>
</a>
</g>
</g>
<!-- Node17&#45;&gt;Node1 -->
<g id="edge16_Node000001_Node000017" class="edge">
<title>Node17&#45;&gt;Node1</title>
<g id="a_edge16_Node000001_Node000017"><a xlink:title=" ">
<path fill="none" stroke="#9a32cd" stroke-dasharray="5,2" d="M500.2,-166.89C536.75,-172.71 581.15,-182.83 618,-200.26 639.46,-210.42 660.2,-229.13 671.71,-240.56"/>
<polygon fill="#9a32cd" stroke="#9a32cd" points="500.52,-163.4 490.11,-165.36 499.47,-170.32 500.52,-163.4"/>
</a>
</g>
<text text-anchor="middle" x="566.5" y="-203.26" font-family="Helvetica,sans-Serif" font-size="10.00" fill="grey"> m_user_context</text>
</g>
<!-- Node18 -->
<g id="Node000018" class="node">
<title>Node18</title>
<g id="a_Node000018"><a xlink:href="../../db/d20/structlci_1_1option__t.html" target="_top" xlink:title=" ">
<polygon fill="white" stroke="#666666" points="497,-131.76 358,-131.76 358,-112.76 497,-112.76 497,-131.76"/>
<text text-anchor="middle" x="427.5" y="-119.76" font-family="Helvetica,sans-Serif" font-size="10.00">lci::option_t&lt; buffers_t &gt;</text>
</a>
</g>
</g>
<!-- Node18&#45;&gt;Node1 -->
<g id="edge17_Node000001_Node000018" class="edge">
<title>Node18&#45;&gt;Node1</title>
<g id="a_edge17_Node000001_Node000018"><a xlink:title=" ">
<path fill="none" stroke="#9a32cd" stroke-dasharray="5,2" d="M507.38,-121.51C543.59,-124.53 585.57,-133.08 618,-154.26 650.88,-175.74 670.46,-221.01 677.74,-240.74"/>
<polygon fill="#9a32cd" stroke="#9a32cd" points="507.56,-118.01 497.34,-120.8 507.06,-124.99 507.56,-118.01"/>
</a>
</g>
<text text-anchor="middle" x="566.5" y="-157.26" font-family="Helvetica,sans-Serif" font-size="10.00" fill="grey"> m_buffers</text>
</g>
<!-- Node19 -->
<g id="Node000019" class="node">
<title>Node19</title>
<g id="a_Node000019"><a xlink:href="../../db/d20/structlci_1_1option__t.html" target="_top" xlink:title=" ">
<polygon fill="white" stroke="#666666" points="493,-94.26 362,-94.26 362,-64.26 493,-64.26 493,-94.26"/>
<text text-anchor="start" x="370" y="-82.26" font-family="Helvetica,sans-Serif" font-size="10.00">lci::option_t&lt; matching</text>
<text text-anchor="middle" x="427.5" y="-71.26" font-family="Helvetica,sans-Serif" font-size="10.00">_policy_t &gt;</text>
</a>
</g>
</g>
<!-- Node19&#45;&gt;Node1 -->
<g id="edge18_Node000001_Node000019" class="edge">
<title>Node19&#45;&gt;Node1</title>
<g id="a_edge18_Node000001_Node000019"><a xlink:title=" ">
<path fill="none" stroke="#9a32cd" stroke-dasharray="5,2" d="M503.78,-74.04C541.49,-75.21 585.85,-82.76 618,-107.26 662.88,-141.47 676.42,-214.49 679.92,-240.67"/>
<polygon fill="#9a32cd" stroke="#9a32cd" points="503.39,-70.54 493.34,-73.87 503.28,-77.54 503.39,-70.54"/>
</a>
</g>
<text text-anchor="middle" x="566.5" y="-110.26" font-family="Helvetica,sans-Serif" font-size="10.00" fill="grey"> m_matching_policy</text>
</g>
<!-- Node20 -->
<g id="Node000020" class="node">
<title>Node20</title>
<g id="a_Node000020"><a xlink:href="../../db/d20/structlci_1_1option__t.html" target="_top" xlink:title=" ">
<polygon fill="white" stroke="#666666" points="486,-26.76 369,-26.76 369,-7.76 486,-7.76 486,-26.76"/>
<text text-anchor="middle" x="427.5" y="-14.76" font-family="Helvetica,sans-Serif" font-size="10.00">lci::option_t&lt; bool &gt;</text>
</a>
</g>
</g>
<!-- Node20&#45;&gt;Node1 -->
<g id="edge19_Node000001_Node000020" class="edge">
<title>Node20&#45;&gt;Node1</title>
<g id="a_edge19_Node000001_Node000020"><a xlink:title=" ">
<path fill="none" stroke="#9a32cd" stroke-dasharray="5,2" d="M473.78,-5.75C515.75,2.04 577.64,5.85 618,-26.26 653.01,-54.12 674.6,-201.46 679.78,-240.67"/>
<polygon fill="#9a32cd" stroke="#9a32cd" points="472.94,-2.35 463.82,-7.75 474.31,-9.22 472.94,-2.35"/>
</a>
</g>
<text text-anchor="middle" x="566.5" y="-62.26" font-family="Helvetica,sans-Serif" font-size="10.00" fill="grey"> m_allow_done</text>
<text text-anchor="middle" x="566.5" y="-51.26" font-family="Helvetica,sans-Serif" font-size="10.00" fill="grey">m_allow_posted</text>
<text text-anchor="middle" x="566.5" y="-40.26" font-family="Helvetica,sans-Serif" font-size="10.00" fill="grey">m_allow_retry</text>
<text text-anchor="middle" x="566.5" y="-29.26" font-family="Helvetica,sans-Serif" font-size="10.00" fill="grey">m_force_zcopy</text>
</g>
</g>
</svg>
