<?xml version="1.0" encoding="UTF-8" standalone="no"?>
<!DOCTYPE svg PUBLIC "-//W3C//DTD SVG 1.1//EN"
 "http://www.w3.org/Graphics/SVG/1.1/DTD/svg11.dtd">
<!-- Generated by graphviz version 2.43.0 (0)
 -->
<!-- Title: lci::progress_x::progress_x Pages: 1 -->
<svg width="823pt" height="102pt"
 viewBox="0.00 0.00 823.00 102.16" xmlns="http://www.w3.org/2000/svg" xmlns:xlink="http://www.w3.org/1999/xlink">
<g id="graph0" class="graph" transform="scale(1 1) rotate(0) translate(4 98.16)">
<title>lci::progress_x::progress_x</title>
<!-- Node1 -->
<g id="Node000001" class="node">
<title>Node1</title>
<g id="a_Node000001"><a xlink:title=" ">
<polygon fill="#999999" stroke="#666666" points="815,-56 669,-56 669,-37 815,-37 815,-56"/>
<text text-anchor="middle" x="742" y="-44" font-family="Helvetica,sans-Serif" font-size="10.00">lci::progress_x::progress_x</text>
</a>
</g>
</g>
<!-- Node2 -->
<g id="Node000002" class="node">
<title>Node2</title>
<g id="a_Node000002"><a xlink:href="../../df/dd2/classlci_1_1progress__x.html#a48c1029e1e0f41f220ae43586fba5d1b" target="_top" xlink:title=" ">
<polygon fill="white" stroke="#666666" points="627.5,-93 502.5,-93 502.5,-74 627.5,-74 627.5,-93"/>
<text text-anchor="middle" x="565" y="-81" font-family="Helvetica,sans-Serif" font-size="10.00">lci::progress_x::device</text>
</a>
</g>
</g>
<!-- Node1&#45;&gt;Node2 -->
<g id="edge1_Node000001_Node000002" class="edge">
<title>Node1&#45;&gt;Node2</title>
<g id="a_edge1_Node000001_Node000002"><a xlink:title=" ">
<path fill="none" stroke="#63b8ff" d="M685.89,-58.15C661.85,-63.23 634.01,-69.12 611.22,-73.94"/>
<polygon fill="#63b8ff" stroke="#63b8ff" points="686.87,-61.52 695.93,-56.03 685.43,-54.67 686.87,-61.52"/>
</a>
</g>
</g>
<!-- Node7 -->
<g id="Node000007" class="node">
<title>Node7</title>
<g id="a_Node000007"><a xlink:href="../../df/dd2/classlci_1_1progress__x.html#ac5d787e0012e36f3dec33d7f1c5b62f9" target="_top" xlink:title=" ">
<polygon fill="white" stroke="#666666" points="633,-56 497,-56 497,-37 633,-37 633,-56"/>
<text text-anchor="middle" x="565" y="-44" font-family="Helvetica,sans-Serif" font-size="10.00">lci::progress_x::endpoint</text>
</a>
</g>
</g>
<!-- Node1&#45;&gt;Node7 -->
<g id="edge7_Node000001_Node000007" class="edge">
<title>Node1&#45;&gt;Node7</title>
<g id="a_edge7_Node000001_Node000007"><a xlink:title=" ">
<path fill="none" stroke="#63b8ff" d="M658.81,-46.5C650.25,-46.5 641.62,-46.5 633.25,-46.5"/>
<polygon fill="#63b8ff" stroke="#63b8ff" points="658.81,-50 668.81,-46.5 658.81,-43 658.81,-50"/>
</a>
</g>
</g>
<!-- Node8 -->
<g id="Node000008" class="node">
<title>Node8</title>
<g id="a_Node000008"><a xlink:href="../../df/dd2/classlci_1_1progress__x.html#a960d4b9b3d39692eb49c1e7761ebd771" target="_top" xlink:title=" ">
<polygon fill="white" stroke="#666666" points="630.5,-19 499.5,-19 499.5,0 630.5,0 630.5,-19"/>
<text text-anchor="middle" x="565" y="-7" font-family="Helvetica,sans-Serif" font-size="10.00">lci::progress_x::runtime</text>
</a>
</g>
</g>
<!-- Node1&#45;&gt;Node8 -->
<g id="edge10_Node000001_Node000008" class="edge">
<title>Node1&#45;&gt;Node8</title>
<g id="a_edge10_Node000001_Node000008"><a xlink:title=" ">
<path fill="none" stroke="#63b8ff" d="M685.89,-34.85C661.85,-29.77 634.01,-23.88 611.22,-19.06"/>
<polygon fill="#63b8ff" stroke="#63b8ff" points="685.43,-38.33 695.93,-36.97 686.87,-31.48 685.43,-38.33"/>
</a>
</g>
</g>
<!-- Node3 -->
<g id="Node000003" class="node">
<title>Node3</title>
<g id="a_Node000003"><a xlink:href="../../df/dd2/classlci_1_1progress__x.html#a14c14787d39228afd84c970021dc6922" target="_top" xlink:title=" ">
<polygon fill="white" stroke="#666666" points="288,-56 178,-56 178,-37 288,-37 288,-56"/>
<text text-anchor="middle" x="233" y="-44" font-family="Helvetica,sans-Serif" font-size="10.00">lci::progress_x::call</text>
</a>
</g>
</g>
<!-- Node2&#45;&gt;Node3 -->
<g id="edge2_Node000002_Node000003" class="edge">
<title>Node2&#45;&gt;Node3</title>
<g id="a_edge2_Node000002_Node000003"><a xlink:title=" ">
<path fill="none" stroke="#63b8ff" d="M492.17,-91.34C444.09,-94.76 379.66,-95.77 324,-84.5 297.24,-79.08 268.54,-65.45 250.93,-56.08"/>
<polygon fill="#63b8ff" stroke="#63b8ff" points="492.47,-94.83 502.17,-90.58 491.93,-87.85 492.47,-94.83"/>
</a>
</g>
</g>
<!-- Node6 -->
<g id="Node000006" class="node">
<title>Node6</title>
<g id="a_Node000006"><a xlink:href="../../df/dd2/classlci_1_1progress__x.html#abc4c1990c814550076bfb9d7b2548eaf" target="_top" xlink:title=" ">
<polygon fill="white" stroke="#666666" points="461,-75 324,-75 324,-56 461,-56 461,-75"/>
<text text-anchor="middle" x="392.5" y="-63" font-family="Helvetica,sans-Serif" font-size="10.00">lci::progress_x::call_impl</text>
</a>
</g>
</g>
<!-- Node2&#45;&gt;Node6 -->
<g id="edge5_Node000002_Node000006" class="edge">
<title>Node2&#45;&gt;Node6</title>
<g id="a_edge5_Node000002_Node000006"><a xlink:title=" ">
<path fill="none" stroke="#63b8ff" d="M492.22,-75.92C481.88,-74.83 471.27,-73.71 461.02,-72.63"/>
<polygon fill="#63b8ff" stroke="#63b8ff" points="492.13,-79.43 502.45,-77 492.87,-72.47 492.13,-79.43"/>
</a>
</g>
</g>
<!-- Node4 -->
<g id="Node000004" class="node">
<title>Node4</title>
<g id="a_Node000004"><a xlink:href="../../df/dd2/classlci_1_1progress__x.html#a8ecfbe2320a5110666dcc67d21014f4c" target="_top" xlink:title=" ">
<polygon fill="white" stroke="#666666" points="142,-75 0,-75 0,-56 142,-56 142,-75"/>
<text text-anchor="middle" x="71" y="-63" font-family="Helvetica,sans-Serif" font-size="10.00">lci::progress_x::operator()</text>
</a>
</g>
</g>
<!-- Node3&#45;&gt;Node4 -->
<g id="edge3_Node000003_Node000004" class="edge">
<title>Node3&#45;&gt;Node4</title>
<g id="a_edge3_Node000003_Node000004"><a xlink:title=" ">
<path fill="none" stroke="#63b8ff" d="M167.75,-54.13C159.37,-55.12 150.75,-56.15 142.28,-57.15"/>
<polygon fill="#63b8ff" stroke="#63b8ff" points="168.31,-57.59 177.83,-52.93 167.49,-50.64 168.31,-57.59"/>
</a>
</g>
</g>
<!-- Node5 -->
<g id="Node000005" class="node">
<title>Node5</title>
<g id="a_Node000005"><a xlink:href="../../d5/dd3/namespacelci.html#ad55bf2fa3c43f989f8f382fa8c41a387" target="_top" xlink:title=" ">
<polygon fill="white" stroke="#666666" points="109,-38 33,-38 33,-19 109,-19 109,-38"/>
<text text-anchor="middle" x="71" y="-26" font-family="Helvetica,sans-Serif" font-size="10.00">lci::progress</text>
</a>
</g>
</g>
<!-- Node3&#45;&gt;Node5 -->
<g id="edge4_Node000003_Node000005" class="edge">
<title>Node3&#45;&gt;Node5</title>
<g id="a_edge4_Node000003_Node000005"><a xlink:title=" ">
<path fill="none" stroke="#63b8ff" d="M167.64,-39.26C147.88,-37.04 126.79,-34.66 109.46,-32.71"/>
<polygon fill="#63b8ff" stroke="#63b8ff" points="167.5,-42.77 177.83,-40.41 168.29,-35.81 167.5,-42.77"/>
</a>
</g>
</g>
<!-- Node6&#45;&gt;Node3 -->
<g id="edge6_Node000006_Node000003" class="edge">
<title>Node6&#45;&gt;Node3</title>
<g id="a_edge6_Node000006_Node000003"><a xlink:title=" ">
<path fill="none" stroke="#63b8ff" d="M313.75,-56.12C305.16,-55.08 296.56,-54.05 288.35,-53.06"/>
<polygon fill="#63b8ff" stroke="#63b8ff" points="313.44,-59.61 323.79,-57.33 314.28,-52.66 313.44,-59.61"/>
</a>
</g>
</g>
<!-- Node7&#45;&gt;Node3 -->
<g id="edge8_Node000007_Node000003" class="edge">
<title>Node7&#45;&gt;Node3</title>
<g id="a_edge8_Node000007_Node000003"><a xlink:title=" ">
<path fill="none" stroke="#63b8ff" d="M486.47,-46.5C425.44,-46.5 341.96,-46.5 288.01,-46.5"/>
<polygon fill="#63b8ff" stroke="#63b8ff" points="486.82,-50 496.82,-46.5 486.82,-43 486.82,-50"/>
</a>
</g>
</g>
<!-- Node7&#45;&gt;Node6 -->
<g id="edge9_Node000007_Node000006" class="edge">
<title>Node7&#45;&gt;Node6</title>
<g id="a_edge9_Node000007_Node000006"><a xlink:title=" ">
<path fill="none" stroke="#63b8ff" d="M486.43,-55.14C478.02,-56.08 469.51,-57.03 461.23,-57.95"/>
<polygon fill="#63b8ff" stroke="#63b8ff" points="487.06,-58.6 496.61,-54.01 486.29,-51.64 487.06,-58.6"/>
</a>
</g>
</g>
<!-- Node8&#45;&gt;Node3 -->
<g id="edge11_Node000008_Node000003" class="edge">
<title>Node8&#45;&gt;Node3</title>
<g id="a_edge11_Node000008_Node000003"><a xlink:title=" ">
<path fill="none" stroke="#63b8ff" d="M489.2,-17.89C427.96,-24.75 342.78,-34.3 288.01,-40.44"/>
<polygon fill="#63b8ff" stroke="#63b8ff" points="489.65,-21.36 499.2,-16.77 488.87,-14.4 489.65,-21.36"/>
</a>
</g>
</g>
<!-- Node8&#45;&gt;Node6 -->
<g id="edge12_Node000008_Node000006" class="edge">
<title>Node8&#45;&gt;Node6</title>
<g id="a_edge12_Node000008_Node000006"><a xlink:title=" ">
<path fill="none" stroke="#63b8ff" d="M518.89,-21.84C511.55,-23.98 504.05,-26.24 497,-28.5 470.1,-37.11 439.71,-48.13 418.86,-55.9"/>
<polygon fill="#63b8ff" stroke="#63b8ff" points="520.1,-25.14 528.75,-19.02 518.17,-18.41 520.1,-25.14"/>
</a>
</g>
</g>
</g>
</svg>
