<?xml version="1.0" encoding="UTF-8" standalone="no"?>
<!DOCTYPE svg PUBLIC "-//W3C//DTD SVG 1.1//EN"
 "http://www.w3.org/Graphics/SVG/1.1/DTD/svg11.dtd">
<!-- Generated by graphviz version 2.43.0 (0)
 -->
<!-- Title: lci::progress_x::call_impl Pages: 1 -->
<svg width="499pt" height="101pt"
 viewBox="0.00 0.00 499.00 101.00" xmlns="http://www.w3.org/2000/svg" xmlns:xlink="http://www.w3.org/1999/xlink">
<g id="graph0" class="graph" transform="scale(1 1) rotate(0) translate(4 97)">
<title>lci::progress_x::call_impl</title>
<!-- Node1 -->
<g id="Node000001" class="node">
<title>Node1</title>
<g id="a_Node000001"><a xlink:title=" ">
<polygon fill="#999999" stroke="#666666" points="137,-56 0,-56 0,-37 137,-37 137,-56"/>
<text text-anchor="middle" x="68.5" y="-44" font-family="Helvetica,sans-Serif" font-size="10.00">lci::progress_x::call_impl</text>
</a>
</g>
</g>
<!-- Node2 -->
<g id="Node000002" class="node">
<title>Node2</title>
<g id="a_Node000002"><a xlink:href="../../df/dd2/classlci_1_1progress__x.html#a48c1029e1e0f41f220ae43586fba5d1b" target="_top" xlink:title=" ">
<polygon fill="white" stroke="#666666" points="303.5,-93 178.5,-93 178.5,-74 303.5,-74 303.5,-93"/>
<text text-anchor="middle" x="241" y="-81" font-family="Helvetica,sans-Serif" font-size="10.00">lci::progress_x::device</text>
</a>
</g>
</g>
<!-- Node1&#45;&gt;Node2 -->
<g id="edge1_Node000001_Node000002" class="edge">
<title>Node1&#45;&gt;Node2</title>
<g id="a_edge1_Node000001_Node000002"><a xlink:title=" ">
<path fill="none" stroke="#63b8ff" d="M113.41,-56.03C135.6,-60.84 162.71,-66.73 186.15,-71.81"/>
<polygon fill="#63b8ff" stroke="#63b8ff" points="185.43,-75.24 195.94,-73.94 186.91,-68.4 185.43,-75.24"/>
</a>
</g>
</g>
<!-- Node4 -->
<g id="Node000004" class="node">
<title>Node4</title>
<g id="a_Node000004"><a xlink:href="../../df/dd2/classlci_1_1progress__x.html#ac5d787e0012e36f3dec33d7f1c5b62f9" target="_top" xlink:title=" ">
<polygon fill="white" stroke="#666666" points="309,-56 173,-56 173,-37 309,-37 309,-56"/>
<text text-anchor="middle" x="241" y="-44" font-family="Helvetica,sans-Serif" font-size="10.00">lci::progress_x::endpoint</text>
</a>
</g>
</g>
<!-- Node1&#45;&gt;Node4 -->
<g id="edge3_Node000001_Node000004" class="edge">
<title>Node1&#45;&gt;Node4</title>
<g id="a_edge3_Node000001_Node000004"><a xlink:title=" ">
<path fill="none" stroke="#63b8ff" d="M137.38,-46.5C145.69,-46.5 154.24,-46.5 162.69,-46.5"/>
<polygon fill="#63b8ff" stroke="#63b8ff" points="162.91,-50 172.91,-46.5 162.91,-43 162.91,-50"/>
</a>
</g>
</g>
<!-- Node5 -->
<g id="Node000005" class="node">
<title>Node5</title>
<g id="a_Node000005"><a xlink:href="../../df/dd2/classlci_1_1progress__x.html#a960d4b9b3d39692eb49c1e7761ebd771" target="_top" xlink:title=" ">
<polygon fill="white" stroke="#666666" points="306.5,-19 175.5,-19 175.5,0 306.5,0 306.5,-19"/>
<text text-anchor="middle" x="241" y="-7" font-family="Helvetica,sans-Serif" font-size="10.00">lci::progress_x::runtime</text>
</a>
</g>
</g>
<!-- Node1&#45;&gt;Node5 -->
<g id="edge5_Node000001_Node000005" class="edge">
<title>Node1&#45;&gt;Node5</title>
<g id="a_edge5_Node000001_Node000005"><a xlink:title=" ">
<path fill="none" stroke="#63b8ff" d="M113.41,-36.97C135.6,-32.16 162.71,-26.27 186.15,-21.19"/>
<polygon fill="#63b8ff" stroke="#63b8ff" points="186.91,-24.6 195.94,-19.06 185.43,-17.76 186.91,-24.6"/>
</a>
</g>
</g>
<!-- Node3 -->
<g id="Node000003" class="node">
<title>Node3</title>
<g id="a_Node000003"><a xlink:href="../../df/dd2/classlci_1_1progress__x.html#a36df9afd1e7ec42e7bb5fe88e1a519af" target="_top" xlink:title=" ">
<polygon fill="white" stroke="#666666" points="491,-56 345,-56 345,-37 491,-37 491,-56"/>
<text text-anchor="middle" x="418" y="-44" font-family="Helvetica,sans-Serif" font-size="10.00">lci::progress_x::progress_x</text>
</a>
</g>
</g>
<!-- Node2&#45;&gt;Node3 -->
<g id="edge2_Node000002_Node000003" class="edge">
<title>Node2&#45;&gt;Node3</title>
<g id="a_edge2_Node000002_Node000003"><a xlink:title=" ">
<path fill="none" stroke="#63b8ff" d="M287.07,-73.97C309.84,-69.16 337.67,-63.27 361.73,-58.19"/>
<polygon fill="#63b8ff" stroke="#63b8ff" points="362.72,-61.55 371.78,-56.06 361.27,-54.7 362.72,-61.55"/>
</a>
</g>
</g>
<!-- Node4&#45;&gt;Node3 -->
<g id="edge4_Node000004_Node000003" class="edge">
<title>Node4&#45;&gt;Node3</title>
<g id="a_edge4_Node000004_Node000003"><a xlink:title=" ">
<path fill="none" stroke="#63b8ff" d="M309.16,-46.5C317.54,-46.5 326.19,-46.5 334.77,-46.5"/>
<polygon fill="#63b8ff" stroke="#63b8ff" points="334.79,-50 344.79,-46.5 334.79,-43 334.79,-50"/>
</a>
</g>
</g>
<!-- Node5&#45;&gt;Node3 -->
<g id="edge6_Node000005_Node000003" class="edge">
<title>Node5&#45;&gt;Node3</title>
<g id="a_edge6_Node000005_Node000003"><a xlink:title=" ">
<path fill="none" stroke="#63b8ff" d="M287.07,-19.03C309.84,-23.84 337.67,-29.73 361.73,-34.81"/>
<polygon fill="#63b8ff" stroke="#63b8ff" points="361.27,-38.3 371.78,-36.94 362.72,-31.45 361.27,-38.3"/>
</a>
</g>
</g>
</g>
</svg>
