<?xml version="1.0" encoding="UTF-8" standalone="no"?>
<!DOCTYPE svg PUBLIC "-//W3C//DTD SVG 1.1//EN"
 "http://www.w3.org/Graphics/SVG/1.1/DTD/svg11.dtd">
<!-- Generated by graphviz version 2.43.0 (0)
 -->
<!-- Title: lci::status_t Pages: 1 -->
<svg width="206pt" height="225pt"
 viewBox="0.00 0.00 205.50 225.00" xmlns="http://www.w3.org/2000/svg" xmlns:xlink="http://www.w3.org/1999/xlink">
<g id="graph0" class="graph" transform="scale(1 1) rotate(0) translate(4 221)">
<title>lci::status_t</title>
<!-- Node1 -->
<g id="Node000001" class="node">
<title>Node1</title>
<g id="a_Node000001"><a xlink:title="The type of the completion desciptor for a posted communication.">
<polygon fill="#999999" stroke="#666666" points="94.5,-19 21.5,-19 21.5,0 94.5,0 94.5,-19"/>
<text text-anchor="middle" x="58" y="-7" font-family="Helvetica,sans-Serif" font-size="10.00">lci::status_t</text>
</a>
</g>
</g>
<!-- Node2 -->
<g id="Node000002" class="node">
<title>Node2</title>
<g id="a_Node000002"><a xlink:href="../../d2/d46/structlci_1_1error__t.html" target="_top" xlink:title="Wrapper class for error code.">
<polygon fill="white" stroke="#666666" points="66,-85 0,-85 0,-66 66,-66 66,-85"/>
<text text-anchor="middle" x="33" y="-73" font-family="Helvetica,sans-Serif" font-size="10.00">lci::error_t</text>
</a>
</g>
</g>
<!-- Node2&#45;&gt;Node1 -->
<g id="edge1_Node000001_Node000002" class="edge">
<title>Node2&#45;&gt;Node1</title>
<g id="a_edge1_Node000001_Node000002"><a xlink:title=" ">
<path fill="none" stroke="#9a32cd" stroke-dasharray="5,2" d="M40.1,-56.32C44.82,-44.24 50.81,-28.91 54.52,-19.41"/>
<polygon fill="#9a32cd" stroke="#9a32cd" points="36.75,-55.28 36.37,-65.87 43.27,-57.83 36.75,-55.28"/>
</a>
</g>
<text text-anchor="middle" x="60.5" y="-40" font-family="Helvetica,sans-Serif" font-size="10.00" fill="grey"> error</text>
</g>
<!-- Node3 -->
<g id="Node000003" class="node">
<title>Node3</title>
<g id="a_Node000003"><a xlink:href="../../da/d7c/structlci_1_1data__t.html" target="_top" xlink:title="A generic type for describing or holding data.">
<polygon fill="white" stroke="#666666" points="149.5,-85 84.5,-85 84.5,-66 149.5,-66 149.5,-85"/>
<text text-anchor="middle" x="117" y="-73" font-family="Helvetica,sans-Serif" font-size="10.00">lci::data_t</text>
</a>
</g>
</g>
<!-- Node3&#45;&gt;Node1 -->
<g id="edge2_Node000001_Node000003" class="edge">
<title>Node3&#45;&gt;Node1</title>
<g id="a_edge2_Node000001_Node000003"><a xlink:title=" ">
<path fill="none" stroke="#9a32cd" stroke-dasharray="5,2" d="M102.23,-58.48C90.84,-46.12 75.51,-29.49 66.21,-19.41"/>
<polygon fill="#9a32cd" stroke="#9a32cd" points="99.69,-60.89 109.04,-65.87 104.84,-56.14 99.69,-60.89"/>
</a>
</g>
<text text-anchor="middle" x="104.5" y="-40" font-family="Helvetica,sans-Serif" font-size="10.00" fill="grey"> data</text>
</g>
<!-- Node4 -->
<g id="Node000004" class="node">
<title>Node4</title>
<g id="a_Node000004"><a xlink:href="../../d7/d1a/classlci_1_1mr__t.html" target="_top" xlink:title="The actual implementation for RESOURCE mr.">
<polygon fill="white" stroke="#666666" points="135,-217 79,-217 79,-198 135,-198 135,-217"/>
<text text-anchor="middle" x="107" y="-205" font-family="Helvetica,sans-Serif" font-size="10.00">lci::mr_t</text>
</a>
</g>
</g>
<!-- Node4&#45;&gt;Node3 -->
<g id="edge3_Node000003_Node000004" class="edge">
<title>Node4&#45;&gt;Node3</title>
<g id="a_edge3_Node000003_Node000004"><a xlink:title=" ">
<path fill="none" stroke="#9a32cd" stroke-dasharray="5,2" d="M103.19,-187.64C100.69,-172.54 98.34,-150.84 101,-132 103.38,-115.12 109.66,-96.18 113.6,-85.37"/>
<polygon fill="#9a32cd" stroke="#9a32cd" points="99.8,-188.54 105.05,-197.75 106.68,-187.28 99.8,-188.54"/>
</a>
</g>
<text text-anchor="middle" x="109.5" y="-139" font-family="Helvetica,sans-Serif" font-size="10.00" fill="grey"> mr</text>
</g>
<!-- Node5 -->
<g id="Node000005" class="node">
<title>Node5</title>
<g id="a_Node000005"><a xlink:href="../../de/d63/structlci_1_1buffer__t.html" target="_top" xlink:title="The type of a local buffer descriptor.">
<polygon fill="white" stroke="#666666" points="197.5,-151 126.5,-151 126.5,-132 197.5,-132 197.5,-151"/>
<text text-anchor="middle" x="162" y="-139" font-family="Helvetica,sans-Serif" font-size="10.00">lci::buffer_t</text>
</a>
</g>
</g>
<!-- Node4&#45;&gt;Node5 -->
<g id="edge5_Node000005_Node000004" class="edge">
<title>Node4&#45;&gt;Node5</title>
<g id="a_edge5_Node000005_Node000004"><a xlink:title=" ">
<path fill="none" stroke="#9a32cd" stroke-dasharray="5,2" d="M121.07,-190.12C131.66,-177.81 145.76,-161.39 154.35,-151.41"/>
<polygon fill="#9a32cd" stroke="#9a32cd" points="118.28,-188 114.42,-197.87 123.59,-192.57 118.28,-188"/>
</a>
</g>
<text text-anchor="middle" x="145.5" y="-172" font-family="Helvetica,sans-Serif" font-size="10.00" fill="grey"> mr</text>
</g>
<!-- Node5&#45;&gt;Node3 -->
<g id="edge4_Node000003_Node000005" class="edge">
<title>Node5&#45;&gt;Node3</title>
<g id="a_edge4_Node000003_Node000005"><a xlink:title=" ">
<path fill="none" stroke="#9a32cd" stroke-dasharray="5,2" d="M149.98,-123.41C141.38,-111.18 130.15,-95.2 123.26,-85.41"/>
<polygon fill="#9a32cd" stroke="#9a32cd" points="147.32,-125.7 155.93,-131.87 153.04,-121.68 147.32,-125.7"/>
</a>
</g>
<text text-anchor="middle" x="160.5" y="-106" font-family="Helvetica,sans-Serif" font-size="10.00" fill="grey"> buffers</text>
</g>
</g>
</svg>
