<?xml version="1.0" encoding="UTF-8" standalone="no"?>
<!DOCTYPE svg PUBLIC "-//W3C//DTD SVG 1.1//EN"
 "http://www.w3.org/Graphics/SVG/1.1/DTD/svg11.dtd">
<!-- Generated by graphviz version 2.43.0 (0)
 -->
<!-- Title: lci::net_poll_cq_x::operator() Pages: 1 -->
<svg width="657pt" height="182pt"
 viewBox="0.00 0.00 657.00 182.00" xmlns="http://www.w3.org/2000/svg" xmlns:xlink="http://www.w3.org/1999/xlink">
<g id="graph0" class="graph" transform="scale(1 1) rotate(0) translate(4 178)">
<title>lci::net_poll_cq_x::operator()</title>
<!-- Node1 -->
<g id="Node000001" class="node">
<title>Node1</title>
<g id="a_Node000001"><a xlink:title=" ">
<polygon fill="#999999" stroke="#666666" points="101,-102 0,-102 0,-72 101,-72 101,-102"/>
<text text-anchor="start" x="8" y="-90" font-family="Helvetica,sans-Serif" font-size="10.00">lci::net_poll_cq_x</text>
<text text-anchor="middle" x="50.5" y="-79" font-family="Helvetica,sans-Serif" font-size="10.00">::operator()</text>
</a>
</g>
</g>
<!-- Node2 -->
<g id="Node000002" class="node">
<title>Node2</title>
<g id="a_Node000002"><a xlink:href="../../dc/d7f/classlci_1_1net__poll__cq__x.html#a75777806ff24d630ab36bfe214962585" target="_top" xlink:title=" ">
<polygon fill="white" stroke="#666666" points="238,-102 137,-102 137,-72 238,-72 238,-102"/>
<text text-anchor="start" x="145" y="-90" font-family="Helvetica,sans-Serif" font-size="10.00">lci::net_poll_cq_x</text>
<text text-anchor="middle" x="187.5" y="-79" font-family="Helvetica,sans-Serif" font-size="10.00">::call</text>
</a>
</g>
</g>
<!-- Node1&#45;&gt;Node2 -->
<g id="edge1_Node000001_Node000002" class="edge">
<title>Node1&#45;&gt;Node2</title>
<g id="a_edge1_Node000001_Node000002"><a xlink:title=" ">
<path fill="none" stroke="#63b8ff" d="M101,-87C109.24,-87 117.87,-87 126.34,-87"/>
<polygon fill="#63b8ff" stroke="#63b8ff" points="126.55,-90.5 136.55,-87 126.55,-83.5 126.55,-90.5"/>
</a>
</g>
</g>
<!-- Node3 -->
<g id="Node000003" class="node">
<title>Node3</title>
<g id="a_Node000003"><a xlink:href="../../dc/d7f/classlci_1_1net__poll__cq__x.html#a98dc7550c5f62a367de52eb4d123cc5d" target="_top" xlink:title=" ">
<polygon fill="white" stroke="#666666" points="375,-102 274,-102 274,-72 375,-72 375,-102"/>
<text text-anchor="start" x="282" y="-90" font-family="Helvetica,sans-Serif" font-size="10.00">lci::net_poll_cq_x</text>
<text text-anchor="middle" x="324.5" y="-79" font-family="Helvetica,sans-Serif" font-size="10.00">::call_impl</text>
</a>
</g>
</g>
<!-- Node2&#45;&gt;Node3 -->
<g id="edge2_Node000002_Node000003" class="edge">
<title>Node2&#45;&gt;Node3</title>
<g id="a_edge2_Node000002_Node000003"><a xlink:title=" ">
<path fill="none" stroke="#63b8ff" d="M238,-87C246.24,-87 254.87,-87 263.34,-87"/>
<polygon fill="#63b8ff" stroke="#63b8ff" points="263.55,-90.5 273.55,-87 263.55,-83.5 263.55,-90.5"/>
</a>
</g>
</g>
<!-- Node4 -->
<g id="Node000004" class="node">
<title>Node4</title>
<g id="a_Node000004"><a xlink:href="../../dc/d7f/classlci_1_1net__poll__cq__x.html#a0142ca1ec143fd74ec3d5fa08cbf8567" target="_top" xlink:title=" ">
<polygon fill="white" stroke="#666666" points="512,-174 411,-174 411,-144 512,-144 512,-174"/>
<text text-anchor="start" x="419" y="-162" font-family="Helvetica,sans-Serif" font-size="10.00">lci::net_poll_cq_x</text>
<text text-anchor="middle" x="461.5" y="-151" font-family="Helvetica,sans-Serif" font-size="10.00">::device</text>
</a>
</g>
</g>
<!-- Node2&#45;&gt;Node4 -->
<g id="edge11_Node000002_Node000004" class="edge">
<title>Node2&#45;&gt;Node4</title>
<g id="a_edge11_Node000002_Node000004"><a xlink:title=" ">
<path fill="none" stroke="#63b8ff" d="M215.86,-102.1C232.27,-110.57 253.83,-120.68 274,-127 315.4,-139.98 363.73,-148.08 400.81,-152.89"/>
<polygon fill="#63b8ff" stroke="#63b8ff" points="400.6,-156.39 410.96,-154.16 401.47,-149.44 400.6,-156.39"/>
</a>
</g>
</g>
<!-- Node6 -->
<g id="Node000006" class="node">
<title>Node6</title>
<g id="a_Node000006"><a xlink:href="../../dc/d7f/classlci_1_1net__poll__cq__x.html#a7aa04bc2f46d07acfb8d72710802785b" target="_top" xlink:title=" ">
<polygon fill="white" stroke="#666666" points="512,-126 411,-126 411,-96 512,-96 512,-126"/>
<text text-anchor="start" x="419" y="-114" font-family="Helvetica,sans-Serif" font-size="10.00">lci::net_poll_cq_x</text>
<text text-anchor="middle" x="461.5" y="-103" font-family="Helvetica,sans-Serif" font-size="10.00">::max_polls</text>
</a>
</g>
</g>
<!-- Node2&#45;&gt;Node6 -->
<g id="edge12_Node000002_Node000006" class="edge">
<title>Node2&#45;&gt;Node6</title>
<g id="a_edge12_Node000002_Node000006"><a xlink:title=" ">
<path fill="none" stroke="#63b8ff" d="M233.27,-102.05C246.26,-105.74 260.56,-109.15 274,-111 316.07,-116.79 363.99,-116.65 400.72,-115.13"/>
<polygon fill="#63b8ff" stroke="#63b8ff" points="400.94,-118.63 410.77,-114.67 400.62,-111.63 400.94,-118.63"/>
</a>
</g>
</g>
<!-- Node7 -->
<g id="Node000007" class="node">
<title>Node7</title>
<g id="a_Node000007"><a xlink:href="../../dc/d7f/classlci_1_1net__poll__cq__x.html#a22dfbb609ab051a64248642988195793" target="_top" xlink:title=" ">
<polygon fill="white" stroke="#666666" points="512,-78 411,-78 411,-48 512,-48 512,-78"/>
<text text-anchor="start" x="419" y="-66" font-family="Helvetica,sans-Serif" font-size="10.00">lci::net_poll_cq_x</text>
<text text-anchor="middle" x="461.5" y="-55" font-family="Helvetica,sans-Serif" font-size="10.00">::runtime</text>
</a>
</g>
</g>
<!-- Node2&#45;&gt;Node7 -->
<g id="edge13_Node000002_Node000007" class="edge">
<title>Node2&#45;&gt;Node7</title>
<g id="a_edge13_Node000002_Node000007"><a xlink:title=" ">
<path fill="none" stroke="#63b8ff" d="M233.27,-71.95C246.26,-68.26 260.56,-64.85 274,-63 316.07,-57.21 363.99,-57.35 400.72,-58.87"/>
<polygon fill="#63b8ff" stroke="#63b8ff" points="400.62,-62.37 410.77,-59.33 400.94,-55.37 400.62,-62.37"/>
</a>
</g>
</g>
<!-- Node8 -->
<g id="Node000008" class="node">
<title>Node8</title>
<g id="a_Node000008"><a xlink:href="../../dc/d7f/classlci_1_1net__poll__cq__x.html#a427c42c030640b87cf2fafb6b989ccd6" target="_top" xlink:title=" ">
<polygon fill="white" stroke="#666666" points="512,-30 411,-30 411,0 512,0 512,-30"/>
<text text-anchor="start" x="419" y="-18" font-family="Helvetica,sans-Serif" font-size="10.00">lci::net_poll_cq_x</text>
<text text-anchor="middle" x="461.5" y="-7" font-family="Helvetica,sans-Serif" font-size="10.00">::statuses</text>
</a>
</g>
</g>
<!-- Node2&#45;&gt;Node8 -->
<g id="edge14_Node000002_Node000008" class="edge">
<title>Node2&#45;&gt;Node8</title>
<g id="a_edge14_Node000002_Node000008"><a xlink:title=" ">
<path fill="none" stroke="#63b8ff" d="M222.54,-71.85C238.02,-65.39 256.7,-58.16 274,-53 315.68,-40.57 363.8,-30.88 400.73,-24.39"/>
<polygon fill="#63b8ff" stroke="#63b8ff" points="401.57,-27.8 410.83,-22.65 400.38,-20.9 401.57,-27.8"/>
</a>
</g>
</g>
<!-- Node3&#45;&gt;Node4 -->
<g id="edge3_Node000003_Node000004" class="edge">
<title>Node3&#45;&gt;Node4</title>
<g id="a_edge3_Node000003_Node000004"><a xlink:title=" ">
<path fill="none" stroke="#63b8ff" d="M351.47,-102.12C368.3,-111.78 390.78,-124.44 411,-135 413.75,-136.44 416.59,-137.89 419.47,-139.34"/>
<polygon fill="#63b8ff" stroke="#63b8ff" points="418.16,-142.6 428.67,-143.92 421.27,-136.33 418.16,-142.6"/>
</a>
</g>
</g>
<!-- Node3&#45;&gt;Node6 -->
<g id="edge5_Node000003_Node000006" class="edge">
<title>Node3&#45;&gt;Node6</title>
<g id="a_edge5_Node000003_Node000006"><a xlink:title=" ">
<path fill="none" stroke="#63b8ff" d="M375,-95.8C383.33,-97.28 392.06,-98.83 400.61,-100.35"/>
<polygon fill="#63b8ff" stroke="#63b8ff" points="400.09,-103.82 410.55,-102.12 401.32,-96.92 400.09,-103.82"/>
</a>
</g>
</g>
<!-- Node3&#45;&gt;Node7 -->
<g id="edge7_Node000003_Node000007" class="edge">
<title>Node3&#45;&gt;Node7</title>
<g id="a_edge7_Node000003_Node000007"><a xlink:title=" ">
<path fill="none" stroke="#63b8ff" d="M375,-78.2C383.33,-76.72 392.06,-75.17 400.61,-73.65"/>
<polygon fill="#63b8ff" stroke="#63b8ff" points="401.32,-77.08 410.55,-71.88 400.09,-70.18 401.32,-77.08"/>
</a>
</g>
</g>
<!-- Node3&#45;&gt;Node8 -->
<g id="edge9_Node000003_Node000008" class="edge">
<title>Node3&#45;&gt;Node8</title>
<g id="a_edge9_Node000003_Node000008"><a xlink:title=" ">
<path fill="none" stroke="#63b8ff" d="M351.47,-71.88C368.3,-62.22 390.78,-49.56 411,-39 413.75,-37.56 416.59,-36.11 419.47,-34.66"/>
<polygon fill="#63b8ff" stroke="#63b8ff" points="421.27,-37.67 428.67,-30.08 418.16,-31.4 421.27,-37.67"/>
</a>
</g>
</g>
<!-- Node5 -->
<g id="Node000005" class="node">
<title>Node5</title>
<g id="a_Node000005"><a xlink:href="../../dc/d7f/classlci_1_1net__poll__cq__x.html#a2ce22a560e50db661a54f1a61981cf1d" target="_top" xlink:title=" ">
<polygon fill="white" stroke="#666666" points="649,-102 548,-102 548,-72 649,-72 649,-102"/>
<text text-anchor="start" x="556" y="-90" font-family="Helvetica,sans-Serif" font-size="10.00">lci::net_poll_cq_x</text>
<text text-anchor="middle" x="598.5" y="-79" font-family="Helvetica,sans-Serif" font-size="10.00">::net_poll_cq_x</text>
</a>
</g>
</g>
<!-- Node4&#45;&gt;Node5 -->
<g id="edge4_Node000004_Node000005" class="edge">
<title>Node4&#45;&gt;Node5</title>
<g id="a_edge4_Node000004_Node000005"><a xlink:title=" ">
<path fill="none" stroke="#63b8ff" d="M494.33,-143.92C500.24,-141.02 506.33,-137.96 512,-135 528.9,-126.17 547.38,-115.88 562.82,-107.09"/>
<polygon fill="#63b8ff" stroke="#63b8ff" points="564.58,-110.12 571.53,-102.12 561.11,-104.04 564.58,-110.12"/>
</a>
</g>
</g>
<!-- Node6&#45;&gt;Node5 -->
<g id="edge6_Node000006_Node000005" class="edge">
<title>Node6&#45;&gt;Node5</title>
<g id="a_edge6_Node000006_Node000005"><a xlink:title=" ">
<path fill="none" stroke="#63b8ff" d="M512,-102.2C520.33,-100.72 529.06,-99.17 537.61,-97.65"/>
<polygon fill="#63b8ff" stroke="#63b8ff" points="538.32,-101.08 547.55,-95.88 537.09,-94.18 538.32,-101.08"/>
</a>
</g>
</g>
<!-- Node7&#45;&gt;Node5 -->
<g id="edge8_Node000007_Node000005" class="edge">
<title>Node7&#45;&gt;Node5</title>
<g id="a_edge8_Node000007_Node000005"><a xlink:title=" ">
<path fill="none" stroke="#63b8ff" d="M512,-71.8C520.33,-73.28 529.06,-74.83 537.61,-76.35"/>
<polygon fill="#63b8ff" stroke="#63b8ff" points="537.09,-79.82 547.55,-78.12 538.32,-72.92 537.09,-79.82"/>
</a>
</g>
</g>
<!-- Node8&#45;&gt;Node5 -->
<g id="edge10_Node000008_Node000005" class="edge">
<title>Node8&#45;&gt;Node5</title>
<g id="a_edge10_Node000008_Node000005"><a xlink:title=" ">
<path fill="none" stroke="#63b8ff" d="M494.33,-30.08C500.24,-32.98 506.33,-36.04 512,-39 528.9,-47.83 547.38,-58.12 562.82,-66.91"/>
<polygon fill="#63b8ff" stroke="#63b8ff" points="561.11,-69.96 571.53,-71.88 564.58,-63.88 561.11,-69.96"/>
</a>
</g>
</g>
</g>
</svg>
