<?xml version="1.0" encoding="UTF-8" standalone="no"?>
<!DOCTYPE svg PUBLIC "-//W3C//DTD SVG 1.1//EN"
 "http://www.w3.org/Graphics/SVG/1.1/DTD/svg11.dtd">
<!-- Generated by graphviz version 2.43.0 (0)
 -->
<!-- Title: lci::net_poll_cq_x::max_polls Pages: 1 -->
<svg width="520pt" height="76pt"
 viewBox="0.00 0.00 520.00 75.50" xmlns="http://www.w3.org/2000/svg" xmlns:xlink="http://www.w3.org/1999/xlink">
<g id="graph0" class="graph" transform="scale(1 1) rotate(0) translate(4 71.5)">
<title>lci::net_poll_cq_x::max_polls</title>
<!-- Node1 -->
<g id="Node000001" class="node">
<title>Node1</title>
<g id="a_Node000001"><a xlink:title=" ">
<polygon fill="#999999" stroke="#666666" points="512,-51 411,-51 411,-21 512,-21 512,-51"/>
<text text-anchor="start" x="419" y="-39" font-family="Helvetica,sans-Serif" font-size="10.00">lci::net_poll_cq_x</text>
<text text-anchor="middle" x="461.5" y="-28" font-family="Helvetica,sans-Serif" font-size="10.00">::max_polls</text>
</a>
</g>
</g>
<!-- Node2 -->
<g id="Node000002" class="node">
<title>Node2</title>
<g id="a_Node000002"><a xlink:href="../../dc/d7f/classlci_1_1net__poll__cq__x.html#a75777806ff24d630ab36bfe214962585" target="_top" xlink:title=" ">
<polygon fill="white" stroke="#666666" points="238,-51 137,-51 137,-21 238,-21 238,-51"/>
<text text-anchor="start" x="145" y="-39" font-family="Helvetica,sans-Serif" font-size="10.00">lci::net_poll_cq_x</text>
<text text-anchor="middle" x="187.5" y="-28" font-family="Helvetica,sans-Serif" font-size="10.00">::call</text>
</a>
</g>
</g>
<!-- Node1&#45;&gt;Node2 -->
<g id="edge1_Node000001_Node000002" class="edge">
<title>Node1&#45;&gt;Node2</title>
<g id="a_edge1_Node000001_Node000002"><a xlink:title=" ">
<path fill="none" stroke="#63b8ff" d="M400.74,-38.36C392.11,-38.63 383.33,-38.85 375,-39 330.12,-39.79 318.88,-39.79 274,-39 262.42,-38.8 249.95,-38.44 238.22,-38.04"/>
<polygon fill="#63b8ff" stroke="#63b8ff" points="400.89,-41.86 410.78,-38.04 400.67,-34.86 400.89,-41.86"/>
</a>
</g>
</g>
<!-- Node5 -->
<g id="Node000005" class="node">
<title>Node5</title>
<g id="a_Node000005"><a xlink:href="../../dc/d7f/classlci_1_1net__poll__cq__x.html#a98dc7550c5f62a367de52eb4d123cc5d" target="_top" xlink:title=" ">
<polygon fill="white" stroke="#666666" points="375,-30 274,-30 274,0 375,0 375,-30"/>
<text text-anchor="start" x="282" y="-18" font-family="Helvetica,sans-Serif" font-size="10.00">lci::net_poll_cq_x</text>
<text text-anchor="middle" x="324.5" y="-7" font-family="Helvetica,sans-Serif" font-size="10.00">::call_impl</text>
</a>
</g>
</g>
<!-- Node1&#45;&gt;Node5 -->
<g id="edge4_Node000001_Node000005" class="edge">
<title>Node1&#45;&gt;Node5</title>
<g id="a_edge4_Node000001_Node000005"><a xlink:title=" ">
<path fill="none" stroke="#63b8ff" d="M401.07,-26.76C392.52,-25.43 383.79,-24.07 375.45,-22.77"/>
<polygon fill="#63b8ff" stroke="#63b8ff" points="400.58,-30.22 411,-28.3 401.65,-23.3 400.58,-30.22"/>
</a>
</g>
</g>
<!-- Node3 -->
<g id="Node000003" class="node">
<title>Node3</title>
<g id="a_Node000003"><a xlink:href="../../d5/dd3/namespacelci.html#a5c88c592948ba1dc74cfcce5a1f8491f" target="_top" xlink:title=" ">
<polygon fill="white" stroke="#666666" points="95,-67.5 6,-67.5 6,-48.5 95,-48.5 95,-67.5"/>
<text text-anchor="middle" x="50.5" y="-55.5" font-family="Helvetica,sans-Serif" font-size="10.00">lci::net_poll_cq</text>
</a>
</g>
</g>
<!-- Node2&#45;&gt;Node3 -->
<g id="edge2_Node000002_Node000003" class="edge">
<title>Node2&#45;&gt;Node3</title>
<g id="a_edge2_Node000002_Node000003"><a xlink:title=" ">
<path fill="none" stroke="#63b8ff" d="M126.89,-45.71C116.23,-47.45 105.31,-49.23 95.2,-50.88"/>
<polygon fill="#63b8ff" stroke="#63b8ff" points="127.69,-49.13 137,-44.07 126.56,-42.22 127.69,-49.13"/>
</a>
</g>
</g>
<!-- Node4 -->
<g id="Node000004" class="node">
<title>Node4</title>
<g id="a_Node000004"><a xlink:href="../../dc/d7f/classlci_1_1net__poll__cq__x.html#a632d4f2040e0b7391828d5b604eee2d1" target="_top" xlink:title=" ">
<polygon fill="white" stroke="#666666" points="101,-30 0,-30 0,0 101,0 101,-30"/>
<text text-anchor="start" x="8" y="-18" font-family="Helvetica,sans-Serif" font-size="10.00">lci::net_poll_cq_x</text>
<text text-anchor="middle" x="50.5" y="-7" font-family="Helvetica,sans-Serif" font-size="10.00">::operator()</text>
</a>
</g>
</g>
<!-- Node2&#45;&gt;Node4 -->
<g id="edge3_Node000002_Node000004" class="edge">
<title>Node2&#45;&gt;Node4</title>
<g id="a_edge3_Node000002_Node000004"><a xlink:title=" ">
<path fill="none" stroke="#63b8ff" d="M127.07,-26.76C118.52,-25.43 109.79,-24.07 101.45,-22.77"/>
<polygon fill="#63b8ff" stroke="#63b8ff" points="126.58,-30.22 137,-28.3 127.65,-23.3 126.58,-30.22"/>
</a>
</g>
</g>
<!-- Node5&#45;&gt;Node2 -->
<g id="edge5_Node000005_Node000002" class="edge">
<title>Node5&#45;&gt;Node2</title>
<g id="a_edge5_Node000005_Node000002"><a xlink:title=" ">
<path fill="none" stroke="#63b8ff" d="M264.07,-24.24C255.52,-25.57 246.79,-26.93 238.45,-28.23"/>
<polygon fill="#63b8ff" stroke="#63b8ff" points="264.65,-27.7 274,-22.7 263.58,-20.78 264.65,-27.7"/>
</a>
</g>
</g>
</g>
</svg>
