<?xml version="1.0" encoding="UTF-8" standalone="no"?>
<!DOCTYPE svg PUBLIC "-//W3C//DTD SVG 1.1//EN"
 "http://www.w3.org/Graphics/SVG/1.1/DTD/svg11.dtd">
<!-- Generated by graphviz version 2.43.0 (0)
 -->
<!-- Title: lci::alloc_device_x Pages: 1 -->
<svg width="599pt" height="412pt"
 viewBox="0.00 0.00 599.00 412.00" xmlns="http://www.w3.org/2000/svg" xmlns:xlink="http://www.w3.org/1999/xlink">
<g id="graph0" class="graph" transform="scale(1 1) rotate(0) translate(4 408)">
<title>lci::alloc_device_x</title>
<!-- Node1 -->
<g id="Node000001" class="node">
<title>Node1</title>
<g id="a_Node000001"><a xlink:title="The actual implementation for alloc_device.">
<polygon fill="#999999" stroke="#666666" points="591,-206.5 485,-206.5 485,-187.5 591,-187.5 591,-206.5"/>
<text text-anchor="middle" x="538" y="-194.5" font-family="Helvetica,sans-Serif" font-size="10.00">lci::alloc_device_x</text>
</a>
</g>
</g>
<!-- Node2 -->
<g id="Node000002" class="node">
<title>Node2</title>
<g id="a_Node000002"><a xlink:href="../../db/d20/structlci_1_1option__t.html" target="_top" xlink:title=" ">
<polygon fill="white" stroke="#666666" points="313.5,-371.5 188.5,-371.5 188.5,-352.5 313.5,-352.5 313.5,-371.5"/>
<text text-anchor="middle" x="251" y="-359.5" font-family="Helvetica,sans-Serif" font-size="10.00">lci::option_t&lt; size_t &gt;</text>
</a>
</g>
</g>
<!-- Node2&#45;&gt;Node1 -->
<g id="edge1_Node000001_Node000002" class="edge">
<title>Node2&#45;&gt;Node1</title>
<g id="a_edge1_Node000001_Node000002"><a xlink:title=" ">
<path fill="none" stroke="#9a32cd" stroke-dasharray="5,2" d="M323.5,-371.35C368.49,-373.46 425.65,-368.83 467,-340 514.17,-307.12 530.9,-233.27 535.51,-206.73"/>
<polygon fill="#9a32cd" stroke="#9a32cd" points="323.7,-367.85 313.52,-370.76 323.29,-374.84 323.7,-367.85"/>
</a>
</g>
<text text-anchor="middle" x="402" y="-396" font-family="Helvetica,sans-Serif" font-size="10.00" fill="grey"> m_net_max_cqes</text>
<text text-anchor="middle" x="402" y="-385" font-family="Helvetica,sans-Serif" font-size="10.00" fill="grey">m_net_max_recvs</text>
<text text-anchor="middle" x="402" y="-374" font-family="Helvetica,sans-Serif" font-size="10.00" fill="grey">m_net_max_sends</text>
</g>
<!-- Node3 -->
<g id="Node000003" class="node">
<title>Node3</title>
<g id="a_Node000003"><a xlink:href="../../db/d20/structlci_1_1option__t.html" target="_top" xlink:title=" ">
<polygon fill="white" stroke="#666666" points="319,-334.5 183,-334.5 183,-315.5 319,-315.5 319,-334.5"/>
<text text-anchor="middle" x="251" y="-322.5" font-family="Helvetica,sans-Serif" font-size="10.00">lci::option_t&lt; uint64_t &gt;</text>
</a>
</g>
</g>
<!-- Node3&#45;&gt;Node1 -->
<g id="edge2_Node000001_Node000003" class="edge">
<title>Node3&#45;&gt;Node1</title>
<g id="a_edge2_Node000001_Node000003"><a xlink:title=" ">
<path fill="none" stroke="#9a32cd" stroke-dasharray="5,2" d="M329.25,-328.23C372.55,-326.67 425.93,-318.86 467,-294 502,-272.81 524.58,-226.79 533.14,-206.71"/>
<polygon fill="#9a32cd" stroke="#9a32cd" points="328.95,-324.73 319.04,-328.49 329.13,-331.73 328.95,-324.73"/>
</a>
</g>
<text text-anchor="middle" x="402" y="-330" font-family="Helvetica,sans-Serif" font-size="10.00" fill="grey"> m_ofi_lock_mode</text>
</g>
<!-- Node4 -->
<g id="Node000004" class="node">
<title>Node4</title>
<g id="a_Node000004"><a xlink:href="../../db/d20/structlci_1_1option__t.html" target="_top" xlink:title=" ">
<polygon fill="white" stroke="#666666" points="309.5,-297.5 192.5,-297.5 192.5,-278.5 309.5,-278.5 309.5,-297.5"/>
<text text-anchor="middle" x="251" y="-285.5" font-family="Helvetica,sans-Serif" font-size="10.00">lci::option_t&lt; bool &gt;</text>
</a>
</g>
</g>
<!-- Node4&#45;&gt;Node1 -->
<g id="edge3_Node000001_Node000004" class="edge">
<title>Node4&#45;&gt;Node1</title>
<g id="a_edge3_Node000001_Node000004"><a xlink:title=" ">
<path fill="none" stroke="#9a32cd" stroke-dasharray="5,2" d="M319.82,-282.62C363.27,-277.36 420.1,-267.07 467,-247 490.34,-237.01 513.55,-218.24 526.51,-206.76"/>
<polygon fill="#9a32cd" stroke="#9a32cd" points="319.18,-279.17 309.64,-283.79 319.97,-286.12 319.18,-279.17"/>
</a>
</g>
<text text-anchor="middle" x="402" y="-282" font-family="Helvetica,sans-Serif" font-size="10.00" fill="grey"> m_alloc_default_endpoint</text>
</g>
<!-- Node5 -->
<g id="Node000005" class="node">
<title>Node5</title>
<g id="a_Node000005"><a xlink:href="../../db/d20/structlci_1_1option__t.html" target="_top" xlink:title=" ">
<polygon fill="white" stroke="#666666" points="310,-260 192,-260 192,-230 310,-230 310,-260"/>
<text text-anchor="start" x="200" y="-248" font-family="Helvetica,sans-Serif" font-size="10.00">lci::option_t&lt; attr</text>
<text text-anchor="middle" x="251" y="-237" font-family="Helvetica,sans-Serif" font-size="10.00">_ibv_td_strategy_t &gt;</text>
</a>
</g>
</g>
<!-- Node5&#45;&gt;Node1 -->
<g id="edge4_Node000001_Node000005" class="edge">
<title>Node5&#45;&gt;Node1</title>
<g id="a_edge4_Node000001_Node000005"><a xlink:title=" ">
<path fill="none" stroke="#9a32cd" stroke-dasharray="5,2" d="M320.03,-235.6C362.41,-229.49 418,-221 467,-212 475.92,-210.36 485.45,-208.44 494.51,-206.52"/>
<polygon fill="#9a32cd" stroke="#9a32cd" points="319.5,-232.14 310.1,-237.03 320.5,-239.07 319.5,-232.14"/>
</a>
</g>
<text text-anchor="middle" x="402" y="-235" font-family="Helvetica,sans-Serif" font-size="10.00" fill="grey"> m_ibv_td_strategy</text>
</g>
<!-- Node6 -->
<g id="Node000006" class="node">
<title>Node6</title>
<g id="a_Node000006"><a xlink:href="../../db/d20/structlci_1_1option__t.html" target="_top" xlink:title=" ">
<polygon fill="white" stroke="#666666" points="306.5,-212 195.5,-212 195.5,-182 306.5,-182 306.5,-212"/>
<text text-anchor="start" x="203.5" y="-200" font-family="Helvetica,sans-Serif" font-size="10.00">lci::option_t&lt; const</text>
<text text-anchor="middle" x="251" y="-189" font-family="Helvetica,sans-Serif" font-size="10.00"> char * &gt;</text>
</a>
</g>
</g>
<!-- Node6&#45;&gt;Node1 -->
<g id="edge5_Node000001_Node000006" class="edge">
<title>Node6&#45;&gt;Node1</title>
<g id="a_edge5_Node000001_Node000006"><a xlink:title=" ">
<path fill="none" stroke="#9a32cd" stroke-dasharray="5,2" d="M316.85,-197C367.76,-197 437.69,-197 484.97,-197"/>
<polygon fill="#9a32cd" stroke="#9a32cd" points="316.61,-193.5 306.61,-197 316.61,-200.5 316.61,-193.5"/>
</a>
</g>
<text text-anchor="middle" x="402" y="-200" font-family="Helvetica,sans-Serif" font-size="10.00" fill="grey"> m_name</text>
</g>
<!-- Node7 -->
<g id="Node000007" class="node">
<title>Node7</title>
<g id="a_Node000007"><a xlink:href="../../db/d20/structlci_1_1option__t.html" target="_top" xlink:title=" ">
<polygon fill="white" stroke="#666666" points="313.5,-163.5 188.5,-163.5 188.5,-144.5 313.5,-144.5 313.5,-163.5"/>
<text text-anchor="middle" x="251" y="-151.5" font-family="Helvetica,sans-Serif" font-size="10.00">lci::option_t&lt; void * &gt;</text>
</a>
</g>
</g>
<!-- Node7&#45;&gt;Node1 -->
<g id="edge6_Node000001_Node000007" class="edge">
<title>Node7&#45;&gt;Node1</title>
<g id="a_edge6_Node000001_Node000007"><a xlink:title=" ">
<path fill="none" stroke="#9a32cd" stroke-dasharray="5,2" d="M323.94,-161.88C365.81,-166.84 419.53,-173.84 467,-182 476.19,-183.58 486,-185.52 495.28,-187.48"/>
<polygon fill="#9a32cd" stroke="#9a32cd" points="324.17,-158.39 313.83,-160.7 323.35,-165.34 324.17,-158.39"/>
</a>
</g>
<text text-anchor="middle" x="402" y="-185" font-family="Helvetica,sans-Serif" font-size="10.00" fill="grey"> m_user_context</text>
</g>
<!-- Node8 -->
<g id="Node000008" class="node">
<title>Node8</title>
<g id="a_Node000008"><a xlink:href="../../db/d20/structlci_1_1option__t.html" target="_top" xlink:title=" ">
<polygon fill="white" stroke="#666666" points="299,-126 203,-126 203,-96 299,-96 299,-126"/>
<text text-anchor="start" x="211" y="-114" font-family="Helvetica,sans-Serif" font-size="10.00">lci::option_t&lt; lci</text>
<text text-anchor="middle" x="251" y="-103" font-family="Helvetica,sans-Serif" font-size="10.00">::runtime_t &gt;</text>
</a>
</g>
</g>
<!-- Node8&#45;&gt;Node1 -->
<g id="edge7_Node000001_Node000008" class="edge">
<title>Node8&#45;&gt;Node1</title>
<g id="a_edge7_Node000001_Node000008"><a xlink:title=" ">
<path fill="none" stroke="#9a32cd" stroke-dasharray="5,2" d="M309.39,-114.03C353.82,-117.97 416.15,-127.06 467,-148 490.32,-157.6 513.54,-176.06 526.5,-187.38"/>
<polygon fill="#9a32cd" stroke="#9a32cd" points="309.6,-110.53 299.35,-113.2 309.03,-117.51 309.6,-110.53"/>
</a>
</g>
<text text-anchor="middle" x="402" y="-151" font-family="Helvetica,sans-Serif" font-size="10.00" fill="grey"> m_runtime</text>
</g>
<!-- Node9 -->
<g id="Node000009" class="node">
<title>Node9</title>
<g id="a_Node000009"><a xlink:href="../../dc/d5c/classlci_1_1runtime__t.html" target="_top" xlink:title="The actual implementation for RESOURCE runtime.">
<polygon fill="white" stroke="#666666" points="91,-120.5 10,-120.5 10,-101.5 91,-101.5 91,-120.5"/>
<text text-anchor="middle" x="50.5" y="-108.5" font-family="Helvetica,sans-Serif" font-size="10.00">lci::runtime_t</text>
</a>
</g>
</g>
<!-- Node9&#45;&gt;Node8 -->
<g id="edge8_Node000008_Node000009" class="edge">
<title>Node9&#45;&gt;Node8</title>
<g id="a_edge8_Node000008_Node000009"><a xlink:title=" ">
<path fill="none" stroke="#9a32cd" stroke-dasharray="5,2" d="M101.37,-111C132.42,-111 172.13,-111 202.69,-111"/>
<polygon fill="#9a32cd" stroke="#9a32cd" points="101.19,-107.5 91.19,-111 101.19,-114.5 101.19,-107.5"/>
</a>
</g>
<text text-anchor="middle" x="142" y="-114" font-family="Helvetica,sans-Serif" font-size="10.00" fill="grey"> m_value</text>
</g>
<!-- Node10 -->
<g id="Node000010" class="node">
<title>Node10</title>
<g id="a_Node000010"><a xlink:href="../../db/d20/structlci_1_1option__t.html" target="_top" xlink:title=" ">
<polygon fill="white" stroke="#666666" points="301.5,-78 200.5,-78 200.5,-48 301.5,-48 301.5,-78"/>
<text text-anchor="start" x="208.5" y="-66" font-family="Helvetica,sans-Serif" font-size="10.00">lci::option_t&lt; lci</text>
<text text-anchor="middle" x="251" y="-55" font-family="Helvetica,sans-Serif" font-size="10.00">::net_context_t &gt;</text>
</a>
</g>
</g>
<!-- Node10&#45;&gt;Node1 -->
<g id="edge9_Node000001_Node000010" class="edge">
<title>Node10&#45;&gt;Node1</title>
<g id="a_edge9_Node000001_Node000010"><a xlink:title=" ">
<path fill="none" stroke="#9a32cd" stroke-dasharray="5,2" d="M311.86,-62.22C357.52,-64.24 420.32,-72.89 467,-102 501.07,-123.25 524,-167.65 532.88,-187.29"/>
<polygon fill="#9a32cd" stroke="#9a32cd" points="311.92,-58.72 301.8,-61.87 311.67,-65.72 311.92,-58.72"/>
</a>
</g>
<text text-anchor="middle" x="402" y="-105" font-family="Helvetica,sans-Serif" font-size="10.00" fill="grey"> m_net_context</text>
</g>
<!-- Node11 -->
<g id="Node000011" class="node">
<title>Node11</title>
<g id="a_Node000011"><a xlink:href="../../dc/d98/classlci_1_1net__context__t.html" target="_top" xlink:title="The actual implementation for RESOURCE net_context.">
<polygon fill="white" stroke="#666666" points="101,-72.5 0,-72.5 0,-53.5 101,-53.5 101,-72.5"/>
<text text-anchor="middle" x="50.5" y="-60.5" font-family="Helvetica,sans-Serif" font-size="10.00">lci::net_context_t</text>
</a>
</g>
</g>
<!-- Node11&#45;&gt;Node10 -->
<g id="edge10_Node000010_Node000011" class="edge">
<title>Node11&#45;&gt;Node10</title>
<g id="a_edge10_Node000010_Node000011"><a xlink:title=" ">
<path fill="none" stroke="#9a32cd" stroke-dasharray="5,2" d="M111.3,-63C139.75,-63 173.36,-63 200.37,-63"/>
<polygon fill="#9a32cd" stroke="#9a32cd" points="111.08,-59.5 101.08,-63 111.08,-66.5 111.08,-59.5"/>
</a>
</g>
<text text-anchor="middle" x="142" y="-66" font-family="Helvetica,sans-Serif" font-size="10.00" fill="grey"> m_value</text>
</g>
<!-- Node12 -->
<g id="Node000012" class="node">
<title>Node12</title>
<g id="a_Node000012"><a xlink:href="../../db/d20/structlci_1_1option__t.html" target="_top" xlink:title=" ">
<polygon fill="white" stroke="#666666" points="301.5,-30 200.5,-30 200.5,0 301.5,0 301.5,-30"/>
<text text-anchor="start" x="208.5" y="-18" font-family="Helvetica,sans-Serif" font-size="10.00">lci::option_t&lt; lci</text>
<text text-anchor="middle" x="251" y="-7" font-family="Helvetica,sans-Serif" font-size="10.00">::packet_pool_t &gt;</text>
</a>
</g>
</g>
<!-- Node12&#45;&gt;Node1 -->
<g id="edge11_Node000001_Node000012" class="edge">
<title>Node12&#45;&gt;Node1</title>
<g id="a_edge11_Node000001_Node000012"><a xlink:title=" ">
<path fill="none" stroke="#9a32cd" stroke-dasharray="5,2" d="M312.11,-10.12C358.75,-9.48 422.71,-15.82 467,-49 514.54,-84.62 531.11,-160.72 535.6,-187.47"/>
<polygon fill="#9a32cd" stroke="#9a32cd" points="311.75,-6.63 301.84,-10.38 311.92,-13.63 311.75,-6.63"/>
</a>
</g>
<text text-anchor="middle" x="402" y="-52" font-family="Helvetica,sans-Serif" font-size="10.00" fill="grey"> m_packet_pool</text>
</g>
<!-- Node13 -->
<g id="Node000013" class="node">
<title>Node13</title>
<g id="a_Node000013"><a xlink:href="../../db/dec/classlci_1_1packet__pool__t.html" target="_top" xlink:title="The actual implementation for RESOURCE packet_pool.">
<polygon fill="white" stroke="#666666" points="101,-24.5 0,-24.5 0,-5.5 101,-5.5 101,-24.5"/>
<text text-anchor="middle" x="50.5" y="-12.5" font-family="Helvetica,sans-Serif" font-size="10.00">lci::packet_pool_t</text>
</a>
</g>
</g>
<!-- Node13&#45;&gt;Node12 -->
<g id="edge12_Node000012_Node000013" class="edge">
<title>Node13&#45;&gt;Node12</title>
<g id="a_edge12_Node000012_Node000013"><a xlink:title=" ">
<path fill="none" stroke="#9a32cd" stroke-dasharray="5,2" d="M111.3,-15C139.75,-15 173.36,-15 200.37,-15"/>
<polygon fill="#9a32cd" stroke="#9a32cd" points="111.08,-11.5 101.08,-15 111.08,-18.5 111.08,-11.5"/>
</a>
</g>
<text text-anchor="middle" x="142" y="-18" font-family="Helvetica,sans-Serif" font-size="10.00" fill="grey"> m_value</text>
</g>
</g>
</svg>
