<?xml version="1.0" encoding="UTF-8" standalone="no"?>
<!DOCTYPE svg PUBLIC "-//W3C//DTD SVG 1.1//EN"
 "http://www.w3.org/Graphics/SVG/1.1/DTD/svg11.dtd">
<!-- Generated by graphviz version 2.43.0 (0)
 -->
<!-- Title: lci::alloc_device_x Pages: 1 -->
<svg width="599pt" height="347pt"
 viewBox="0.00 0.00 599.00 347.00" xmlns="http://www.w3.org/2000/svg" xmlns:xlink="http://www.w3.org/1999/xlink">
<g id="graph0" class="graph" transform="scale(1 1) rotate(0) translate(4 343)">
<title>lci::alloc_device_x</title>
<!-- Node1 -->
<g id="Node000001" class="node">
<title>Node1</title>
<g id="a_Node000001"><a xlink:title="The actual implementation for alloc_device.">
<polygon fill="#999999" stroke="#666666" points="591,-179.5 485,-179.5 485,-160.5 591,-160.5 591,-179.5"/>
<text text-anchor="middle" x="538" y="-167.5" font-family="Helvetica,sans-Serif" font-size="10.00">lci::alloc_device_x</text>
</a>
</g>
</g>
<!-- Node2 -->
<g id="Node000002" class="node">
<title>Node2</title>
<g id="a_Node000002"><a xlink:href="../../db/d20/structlci_1_1option__t.html" target="_top" xlink:title=" ">
<polygon fill="white" stroke="#666666" points="299,-335 203,-335 203,-305 299,-305 299,-335"/>
<text text-anchor="start" x="211" y="-323" font-family="Helvetica,sans-Serif" font-size="10.00">lci::option_t&lt; lci</text>
<text text-anchor="middle" x="251" y="-312" font-family="Helvetica,sans-Serif" font-size="10.00">::runtime_t &gt;</text>
</a>
</g>
</g>
<!-- Node2&#45;&gt;Node1 -->
<g id="edge1_Node000001_Node000002" class="edge">
<title>Node2&#45;&gt;Node1</title>
<g id="a_edge1_Node000001_Node000002"><a xlink:title=" ">
<path fill="none" stroke="#9a32cd" stroke-dasharray="5,2" d="M309.54,-327.22C355.85,-330.03 420.64,-326.87 467,-296 509.7,-267.57 528.9,-203.87 534.86,-179.62"/>
<polygon fill="#9a32cd" stroke="#9a32cd" points="309.59,-323.72 299.36,-326.49 309.09,-330.7 309.59,-323.72"/>
</a>
</g>
<text text-anchor="middle" x="402" y="-331" font-family="Helvetica,sans-Serif" font-size="10.00" fill="grey"> m_runtime</text>
</g>
<!-- Node3 -->
<g id="Node000003" class="node">
<title>Node3</title>
<g id="a_Node000003"><a xlink:href="../../dc/d5c/classlci_1_1runtime__t.html" target="_top" xlink:title="The actual implementation for RESOURCE runtime.">
<polygon fill="white" stroke="#666666" points="91,-329.5 10,-329.5 10,-310.5 91,-310.5 91,-329.5"/>
<text text-anchor="middle" x="50.5" y="-317.5" font-family="Helvetica,sans-Serif" font-size="10.00">lci::runtime_t</text>
</a>
</g>
</g>
<!-- Node3&#45;&gt;Node2 -->
<g id="edge2_Node000002_Node000003" class="edge">
<title>Node3&#45;&gt;Node2</title>
<g id="a_edge2_Node000002_Node000003"><a xlink:title=" ">
<path fill="none" stroke="#9a32cd" stroke-dasharray="5,2" d="M101.37,-320C132.42,-320 172.13,-320 202.69,-320"/>
<polygon fill="#9a32cd" stroke="#9a32cd" points="101.19,-316.5 91.19,-320 101.19,-323.5 101.19,-316.5"/>
</a>
</g>
<text text-anchor="middle" x="142" y="-323" font-family="Helvetica,sans-Serif" font-size="10.00" fill="grey"> m_value</text>
</g>
<!-- Node4 -->
<g id="Node000004" class="node">
<title>Node4</title>
<g id="a_Node000004"><a xlink:href="../../db/d20/structlci_1_1option__t.html" target="_top" xlink:title=" ">
<polygon fill="white" stroke="#666666" points="313.5,-275.5 188.5,-275.5 188.5,-256.5 313.5,-256.5 313.5,-275.5"/>
<text text-anchor="middle" x="251" y="-263.5" font-family="Helvetica,sans-Serif" font-size="10.00">lci::option_t&lt; size_t &gt;</text>
</a>
</g>
</g>
<!-- Node4&#45;&gt;Node1 -->
<g id="edge3_Node000001_Node000004" class="edge">
<title>Node4&#45;&gt;Node1</title>
<g id="a_edge3_Node000001_Node000004"><a xlink:title=" ">
<path fill="none" stroke="#9a32cd" stroke-dasharray="5,2" d="M323.98,-260.67C376.38,-255.91 442.31,-247.84 467,-236 494.71,-222.71 518.75,-194.43 530.08,-179.57"/>
<polygon fill="#9a32cd" stroke="#9a32cd" points="323.35,-257.21 313.69,-261.58 323.96,-264.18 323.35,-257.21"/>
</a>
</g>
<text text-anchor="middle" x="402" y="-284" font-family="Helvetica,sans-Serif" font-size="10.00" fill="grey"> m_net_max_cqes</text>
<text text-anchor="middle" x="402" y="-273" font-family="Helvetica,sans-Serif" font-size="10.00" fill="grey">m_net_max_recvs</text>
<text text-anchor="middle" x="402" y="-262" font-family="Helvetica,sans-Serif" font-size="10.00" fill="grey">m_net_max_sends</text>
</g>
<!-- Node5 -->
<g id="Node000005" class="node">
<title>Node5</title>
<g id="a_Node000005"><a xlink:href="../../db/d20/structlci_1_1option__t.html" target="_top" xlink:title=" ">
<polygon fill="white" stroke="#666666" points="319,-238.5 183,-238.5 183,-219.5 319,-219.5 319,-238.5"/>
<text text-anchor="middle" x="251" y="-226.5" font-family="Helvetica,sans-Serif" font-size="10.00">lci::option_t&lt; uint64_t &gt;</text>
</a>
</g>
</g>
<!-- Node5&#45;&gt;Node1 -->
<g id="edge4_Node000001_Node000005" class="edge">
<title>Node5&#45;&gt;Node1</title>
<g id="a_edge4_Node000001_Node000005"><a xlink:title=" ">
<path fill="none" stroke="#9a32cd" stroke-dasharray="5,2" d="M329.24,-223.01C370.61,-218.61 422.15,-211.21 467,-199 484.64,-194.2 503.76,-186.06 517.56,-179.63"/>
<polygon fill="#9a32cd" stroke="#9a32cd" points="328.82,-219.54 319.23,-224.04 329.53,-226.5 328.82,-219.54"/>
</a>
</g>
<text text-anchor="middle" x="402" y="-224" font-family="Helvetica,sans-Serif" font-size="10.00" fill="grey"> m_ofi_lock_mode</text>
</g>
<!-- Node6 -->
<g id="Node000006" class="node">
<title>Node6</title>
<g id="a_Node000006"><a xlink:href="../../db/d20/structlci_1_1option__t.html" target="_top" xlink:title=" ">
<polygon fill="white" stroke="#666666" points="309.5,-201.5 192.5,-201.5 192.5,-182.5 309.5,-182.5 309.5,-201.5"/>
<text text-anchor="middle" x="251" y="-189.5" font-family="Helvetica,sans-Serif" font-size="10.00">lci::option_t&lt; bool &gt;</text>
</a>
</g>
</g>
<!-- Node6&#45;&gt;Node1 -->
<g id="edge5_Node000001_Node000006" class="edge">
<title>Node6&#45;&gt;Node1</title>
<g id="a_edge5_Node000001_Node000006"><a xlink:title=" ">
<path fill="none" stroke="#9a32cd" stroke-dasharray="5,2" d="M319.85,-186.76C370.38,-182.86 438.34,-177.62 484.69,-174.04"/>
<polygon fill="#9a32cd" stroke="#9a32cd" points="319.37,-183.29 309.67,-187.55 319.91,-190.27 319.37,-183.29"/>
</a>
</g>
<text text-anchor="middle" x="402" y="-187" font-family="Helvetica,sans-Serif" font-size="10.00" fill="grey"> m_alloc_default_endpoint</text>
</g>
<!-- Node7 -->
<g id="Node000007" class="node">
<title>Node7</title>
<g id="a_Node000007"><a xlink:href="../../db/d20/structlci_1_1option__t.html" target="_top" xlink:title=" ">
<polygon fill="white" stroke="#666666" points="310,-164 192,-164 192,-134 310,-134 310,-164"/>
<text text-anchor="start" x="200" y="-152" font-family="Helvetica,sans-Serif" font-size="10.00">lci::option_t&lt; attr</text>
<text text-anchor="middle" x="251" y="-141" font-family="Helvetica,sans-Serif" font-size="10.00">_ibv_td_strategy_t &gt;</text>
</a>
</g>
</g>
<!-- Node7&#45;&gt;Node1 -->
<g id="edge6_Node000001_Node000007" class="edge">
<title>Node7&#45;&gt;Node1</title>
<g id="a_edge6_Node000001_Node000007"><a xlink:title=" ">
<path fill="none" stroke="#9a32cd" stroke-dasharray="5,2" d="M320.26,-150.27C362.6,-151.53 418.06,-154.03 467,-159 472.75,-159.58 478.75,-160.32 484.71,-161.14"/>
<polygon fill="#9a32cd" stroke="#9a32cd" points="320.17,-146.77 310.07,-149.98 319.97,-153.76 320.17,-146.77"/>
</a>
</g>
<text text-anchor="middle" x="402" y="-162" font-family="Helvetica,sans-Serif" font-size="10.00" fill="grey"> m_ibv_td_strategy</text>
</g>
<!-- Node8 -->
<g id="Node000008" class="node">
<title>Node8</title>
<g id="a_Node000008"><a xlink:href="../../db/d20/structlci_1_1option__t.html" target="_top" xlink:title=" ">
<polygon fill="white" stroke="#666666" points="313.5,-115.5 188.5,-115.5 188.5,-96.5 313.5,-96.5 313.5,-115.5"/>
<text text-anchor="middle" x="251" y="-103.5" font-family="Helvetica,sans-Serif" font-size="10.00">lci::option_t&lt; void * &gt;</text>
</a>
</g>
</g>
<!-- Node8&#45;&gt;Node1 -->
<g id="edge7_Node000001_Node000008" class="edge">
<title>Node8&#45;&gt;Node1</title>
<g id="a_edge7_Node000001_Node000008"><a xlink:title=" ">
<path fill="none" stroke="#9a32cd" stroke-dasharray="5,2" d="M324.08,-109.78C366.44,-113.46 420.61,-120.71 467,-135 486.74,-141.08 507.71,-152.28 521.5,-160.37"/>
<polygon fill="#9a32cd" stroke="#9a32cd" points="324.11,-106.27 313.86,-108.94 323.54,-113.25 324.11,-106.27"/>
</a>
</g>
<text text-anchor="middle" x="402" y="-138" font-family="Helvetica,sans-Serif" font-size="10.00" fill="grey"> m_user_context</text>
</g>
<!-- Node9 -->
<g id="Node000009" class="node">
<title>Node9</title>
<g id="a_Node000009"><a xlink:href="../../db/d20/structlci_1_1option__t.html" target="_top" xlink:title=" ">
<polygon fill="white" stroke="#666666" points="301.5,-78 200.5,-78 200.5,-48 301.5,-48 301.5,-78"/>
<text text-anchor="start" x="208.5" y="-66" font-family="Helvetica,sans-Serif" font-size="10.00">lci::option_t&lt; lci</text>
<text text-anchor="middle" x="251" y="-55" font-family="Helvetica,sans-Serif" font-size="10.00">::net_context_t &gt;</text>
</a>
</g>
</g>
<!-- Node9&#45;&gt;Node1 -->
<g id="edge8_Node000001_Node000009" class="edge">
<title>Node9&#45;&gt;Node1</title>
<g id="a_edge8_Node000001_Node000009"><a xlink:title=" ">
<path fill="none" stroke="#9a32cd" stroke-dasharray="5,2" d="M311.98,-61.93C357,-63.49 418.9,-70.79 467,-96 496.45,-111.43 520.4,-144.11 531.04,-160.38"/>
<polygon fill="#9a32cd" stroke="#9a32cd" points="311.87,-58.43 301.78,-61.67 311.69,-65.43 311.87,-58.43"/>
</a>
</g>
<text text-anchor="middle" x="402" y="-99" font-family="Helvetica,sans-Serif" font-size="10.00" fill="grey"> m_net_context</text>
</g>
<!-- Node10 -->
<g id="Node000010" class="node">
<title>Node10</title>
<g id="a_Node000010"><a xlink:href="../../dc/d98/classlci_1_1net__context__t.html" target="_top" xlink:title="The actual implementation for RESOURCE net_context.">
<polygon fill="white" stroke="#666666" points="101,-72.5 0,-72.5 0,-53.5 101,-53.5 101,-72.5"/>
<text text-anchor="middle" x="50.5" y="-60.5" font-family="Helvetica,sans-Serif" font-size="10.00">lci::net_context_t</text>
</a>
</g>
</g>
<!-- Node10&#45;&gt;Node9 -->
<g id="edge9_Node000009_Node000010" class="edge">
<title>Node10&#45;&gt;Node9</title>
<g id="a_edge9_Node000009_Node000010"><a xlink:title=" ">
<path fill="none" stroke="#9a32cd" stroke-dasharray="5,2" d="M111.3,-63C139.75,-63 173.36,-63 200.37,-63"/>
<polygon fill="#9a32cd" stroke="#9a32cd" points="111.08,-59.5 101.08,-63 111.08,-66.5 111.08,-59.5"/>
</a>
</g>
<text text-anchor="middle" x="142" y="-66" font-family="Helvetica,sans-Serif" font-size="10.00" fill="grey"> m_value</text>
</g>
<!-- Node11 -->
<g id="Node000011" class="node">
<title>Node11</title>
<g id="a_Node000011"><a xlink:href="../../db/d20/structlci_1_1option__t.html" target="_top" xlink:title=" ">
<polygon fill="white" stroke="#666666" points="301.5,-30 200.5,-30 200.5,0 301.5,0 301.5,-30"/>
<text text-anchor="start" x="208.5" y="-18" font-family="Helvetica,sans-Serif" font-size="10.00">lci::option_t&lt; lci</text>
<text text-anchor="middle" x="251" y="-7" font-family="Helvetica,sans-Serif" font-size="10.00">::packet_pool_t &gt;</text>
</a>
</g>
</g>
<!-- Node11&#45;&gt;Node1 -->
<g id="edge10_Node000001_Node000011" class="edge">
<title>Node11&#45;&gt;Node1</title>
<g id="a_edge10_Node000001_Node000011"><a xlink:title=" ">
<path fill="none" stroke="#9a32cd" stroke-dasharray="5,2" d="M311.82,-10.77C358.03,-10.47 421.54,-16.83 467,-48 508.08,-76.17 528.14,-136.92 534.59,-160.43"/>
<polygon fill="#9a32cd" stroke="#9a32cd" points="311.59,-7.27 301.65,-10.94 311.71,-14.27 311.59,-7.27"/>
</a>
</g>
<text text-anchor="middle" x="402" y="-51" font-family="Helvetica,sans-Serif" font-size="10.00" fill="grey"> m_packet_pool</text>
</g>
<!-- Node12 -->
<g id="Node000012" class="node">
<title>Node12</title>
<g id="a_Node000012"><a xlink:href="../../db/dec/classlci_1_1packet__pool__t.html" target="_top" xlink:title="The actual implementation for RESOURCE packet_pool.">
<polygon fill="white" stroke="#666666" points="101,-24.5 0,-24.5 0,-5.5 101,-5.5 101,-24.5"/>
<text text-anchor="middle" x="50.5" y="-12.5" font-family="Helvetica,sans-Serif" font-size="10.00">lci::packet_pool_t</text>
</a>
</g>
</g>
<!-- Node12&#45;&gt;Node11 -->
<g id="edge11_Node000011_Node000012" class="edge">
<title>Node12&#45;&gt;Node11</title>
<g id="a_edge11_Node000011_Node000012"><a xlink:title=" ">
<path fill="none" stroke="#9a32cd" stroke-dasharray="5,2" d="M111.3,-15C139.75,-15 173.36,-15 200.37,-15"/>
<polygon fill="#9a32cd" stroke="#9a32cd" points="111.08,-11.5 101.08,-15 111.08,-18.5 111.08,-11.5"/>
</a>
</g>
<text text-anchor="middle" x="142" y="-18" font-family="Helvetica,sans-Serif" font-size="10.00" fill="grey"> m_value</text>
</g>
</g>
</svg>
