<?xml version="1.0" encoding="UTF-8" standalone="no"?>
<!DOCTYPE svg PUBLIC "-//W3C//DTD SVG 1.1//EN"
 "http://www.w3.org/Graphics/SVG/1.1/DTD/svg11.dtd">
<!-- Generated by graphviz version 2.43.0 (0)
 -->
<!-- Title: lci::g_runtime_init_x::call_impl Pages: 1 -->
<svg width="461pt" height="338pt"
 viewBox="0.00 0.00 461.00 338.00" xmlns="http://www.w3.org/2000/svg" xmlns:xlink="http://www.w3.org/1999/xlink">
<g id="graph0" class="graph" transform="scale(1 1) rotate(0) translate(4 334)">
<title>lci::g_runtime_init_x::call_impl</title>
<!-- Node1 -->
<g id="Node000001" class="node">
<title>Node1</title>
<g id="a_Node000001"><a xlink:title=" ">
<polygon fill="#999999" stroke="#666666" points="104,-174 0,-174 0,-144 104,-144 104,-174"/>
<text text-anchor="start" x="8" y="-162" font-family="Helvetica,sans-Serif" font-size="10.00">lci::g_runtime_init</text>
<text text-anchor="middle" x="52" y="-151" font-family="Helvetica,sans-Serif" font-size="10.00">_x::call_impl</text>
</a>
</g>
</g>
<!-- Node2 -->
<g id="Node000002" class="node">
<title>Node2</title>
<g id="a_Node000002"><a xlink:href="../../d1/dcd/classlci_1_1g__runtime__init__x.html#ad72fab3463ebf56743a418966751b9cc" target="_top" xlink:title=" ">
<polygon fill="white" stroke="#666666" points="287.5,-330 153.5,-330 153.5,-300 287.5,-300 287.5,-330"/>
<text text-anchor="start" x="161.5" y="-318" font-family="Helvetica,sans-Serif" font-size="10.00">lci::g_runtime_init</text>
<text text-anchor="middle" x="220.5" y="-307" font-family="Helvetica,sans-Serif" font-size="10.00">_x::alloc_default_device</text>
</a>
</g>
</g>
<!-- Node1&#45;&gt;Node2 -->
<g id="edge1_Node000001_Node000002" class="edge">
<title>Node1&#45;&gt;Node2</title>
<g id="a_edge1_Node000001_Node000002"><a xlink:title=" ">
<path fill="none" stroke="#63b8ff" d="M58.85,-174.15C70.23,-201.61 97.97,-259.67 140,-291 141.88,-292.4 143.84,-293.72 145.86,-294.96"/>
<polygon fill="#63b8ff" stroke="#63b8ff" points="144.63,-298.27 155.09,-299.94 147.95,-292.11 144.63,-298.27"/>
</a>
</g>
</g>
<!-- Node4 -->
<g id="Node000004" class="node">
<title>Node4</title>
<g id="a_Node000004"><a xlink:href="../../d1/dcd/classlci_1_1g__runtime__init__x.html#a918d1c83be5991b72b5a1aee076e0b29" target="_top" xlink:title=" ">
<polygon fill="white" stroke="#666666" points="294.5,-281.5 146.5,-281.5 146.5,-240.5 294.5,-240.5 294.5,-281.5"/>
<text text-anchor="start" x="154.5" y="-269.5" font-family="Helvetica,sans-Serif" font-size="10.00">lci::g_runtime_init</text>
<text text-anchor="start" x="154.5" y="-258.5" font-family="Helvetica,sans-Serif" font-size="10.00">_x::alloc_default_matching</text>
<text text-anchor="middle" x="220.5" y="-247.5" font-family="Helvetica,sans-Serif" font-size="10.00">_engine</text>
</a>
</g>
</g>
<!-- Node1&#45;&gt;Node4 -->
<g id="edge3_Node000001_Node000004" class="edge">
<title>Node1&#45;&gt;Node4</title>
<g id="a_edge3_Node000001_Node000004"><a xlink:title=" ">
<path fill="none" stroke="#63b8ff" d="M68.16,-174.25C84.65,-190.15 112.36,-214.95 140,-231 143.03,-232.76 146.17,-234.45 149.39,-236.06"/>
<polygon fill="#63b8ff" stroke="#63b8ff" points="148.09,-239.32 158.62,-240.44 151.09,-232.99 148.09,-239.32"/>
</a>
</g>
</g>
<!-- Node5 -->
<g id="Node000005" class="node">
<title>Node5</title>
<g id="a_Node000005"><a xlink:href="../../d1/dcd/classlci_1_1g__runtime__init__x.html#a17f340060d3d0c0d0776d4c658110b9a" target="_top" xlink:title=" ">
<polygon fill="white" stroke="#666666" points="301,-222 140,-222 140,-192 301,-192 301,-222"/>
<text text-anchor="start" x="148" y="-210" font-family="Helvetica,sans-Serif" font-size="10.00">lci::g_runtime_init</text>
<text text-anchor="middle" x="220.5" y="-199" font-family="Helvetica,sans-Serif" font-size="10.00">_x::alloc_default_packet_pool</text>
</a>
</g>
</g>
<!-- Node1&#45;&gt;Node5 -->
<g id="edge5_Node000001_Node000005" class="edge">
<title>Node1&#45;&gt;Node5</title>
<g id="a_edge5_Node000001_Node000005"><a xlink:title=" ">
<path fill="none" stroke="#63b8ff" d="M104.31,-173.79C121.01,-178.61 139.72,-184 157.13,-189.02"/>
<polygon fill="#63b8ff" stroke="#63b8ff" points="156.63,-192.52 167.21,-191.92 158.57,-185.79 156.63,-192.52"/>
</a>
</g>
</g>
<!-- Node6 -->
<g id="Node000006" class="node">
<title>Node6</title>
<g id="a_Node000006"><a xlink:href="../../d1/dcd/classlci_1_1g__runtime__init__x.html#a147824472fe6dc5645fd75e92ddfe273" target="_top" xlink:title=" ">
<polygon fill="white" stroke="#666666" points="281.5,-174 159.5,-174 159.5,-144 281.5,-144 281.5,-174"/>
<text text-anchor="start" x="167.5" y="-162" font-family="Helvetica,sans-Serif" font-size="10.00">lci::g_runtime_init</text>
<text text-anchor="middle" x="220.5" y="-151" font-family="Helvetica,sans-Serif" font-size="10.00">_x::imm_nbits_rcomp</text>
</a>
</g>
</g>
<!-- Node1&#45;&gt;Node6 -->
<g id="edge7_Node000001_Node000006" class="edge">
<title>Node1&#45;&gt;Node6</title>
<g id="a_edge7_Node000001_Node000006"><a xlink:title=" ">
<path fill="none" stroke="#63b8ff" d="M104.31,-159C118.44,-159 134.02,-159 149.03,-159"/>
<polygon fill="#63b8ff" stroke="#63b8ff" points="149.3,-162.5 159.3,-159 149.3,-155.5 149.3,-162.5"/>
</a>
</g>
</g>
<!-- Node7 -->
<g id="Node000007" class="node">
<title>Node7</title>
<g id="a_Node000007"><a xlink:href="../../d1/dcd/classlci_1_1g__runtime__init__x.html#a1972dee68f2838da07aba5b464f732dd" target="_top" xlink:title=" ">
<polygon fill="white" stroke="#666666" points="274,-126 167,-126 167,-96 274,-96 274,-126"/>
<text text-anchor="start" x="175" y="-114" font-family="Helvetica,sans-Serif" font-size="10.00">lci::g_runtime_init</text>
<text text-anchor="middle" x="220.5" y="-103" font-family="Helvetica,sans-Serif" font-size="10.00">_x::imm_nbits_tag</text>
</a>
</g>
</g>
<!-- Node1&#45;&gt;Node7 -->
<g id="edge9_Node000001_Node000007" class="edge">
<title>Node1&#45;&gt;Node7</title>
<g id="a_edge9_Node000001_Node000007"><a xlink:title=" ">
<path fill="none" stroke="#63b8ff" d="M104.31,-144.21C121.01,-139.39 139.72,-134 157.13,-128.98"/>
<polygon fill="#63b8ff" stroke="#63b8ff" points="158.57,-132.21 167.21,-126.08 156.63,-125.48 158.57,-132.21"/>
</a>
</g>
</g>
<!-- Node8 -->
<g id="Node000008" class="node">
<title>Node8</title>
<g id="a_Node000008"><a xlink:href="../../d1/dcd/classlci_1_1g__runtime__init__x.html#af2f7a0791a72ac3c8b8546c354ed7081" target="_top" xlink:title=" ">
<polygon fill="white" stroke="#666666" points="296.5,-78 144.5,-78 144.5,-48 296.5,-48 296.5,-78"/>
<text text-anchor="start" x="152.5" y="-66" font-family="Helvetica,sans-Serif" font-size="10.00">lci::g_runtime_init</text>
<text text-anchor="middle" x="220.5" y="-55" font-family="Helvetica,sans-Serif" font-size="10.00">_x::packet_return_threshold</text>
</a>
</g>
</g>
<!-- Node1&#45;&gt;Node8 -->
<g id="edge11_Node000001_Node000008" class="edge">
<title>Node1&#45;&gt;Node8</title>
<g id="a_edge11_Node000001_Node000008"><a xlink:title=" ">
<path fill="none" stroke="#63b8ff" d="M67.36,-143.97C83.59,-127.78 111.49,-102.29 140,-87 143.31,-85.23 146.76,-83.57 150.31,-82.01"/>
<polygon fill="#63b8ff" stroke="#63b8ff" points="151.88,-85.15 159.83,-78.15 149.25,-78.66 151.88,-85.15"/>
</a>
</g>
</g>
<!-- Node9 -->
<g id="Node000009" class="node">
<title>Node9</title>
<g id="a_Node000009"><a xlink:href="../../d1/dcd/classlci_1_1g__runtime__init__x.html#affea33547edd45282533e817747f4b66" target="_top" xlink:title=" ">
<polygon fill="white" stroke="#666666" points="272.5,-30 168.5,-30 168.5,0 272.5,0 272.5,-30"/>
<text text-anchor="start" x="176.5" y="-18" font-family="Helvetica,sans-Serif" font-size="10.00">lci::g_runtime_init</text>
<text text-anchor="middle" x="220.5" y="-7" font-family="Helvetica,sans-Serif" font-size="10.00">_x::rdv_protocol</text>
</a>
</g>
</g>
<!-- Node1&#45;&gt;Node9 -->
<g id="edge13_Node000001_Node000009" class="edge">
<title>Node1&#45;&gt;Node9</title>
<g id="a_edge13_Node000001_Node000009"><a xlink:title=" ">
<path fill="none" stroke="#63b8ff" d="M60.01,-143.63C72.44,-118.07 100.79,-66.89 140,-39 145.68,-34.96 152.06,-31.59 158.66,-28.77"/>
<polygon fill="#63b8ff" stroke="#63b8ff" points="160.34,-31.88 168.44,-25.05 157.85,-25.34 160.34,-31.88"/>
</a>
</g>
</g>
<!-- Node3 -->
<g id="Node000003" class="node">
<title>Node3</title>
<g id="a_Node000003"><a xlink:href="../../d1/dcd/classlci_1_1g__runtime__init__x.html#ac50115eace47c7d8766aa04214978bc1" target="_top" xlink:title=" ">
<polygon fill="white" stroke="#666666" points="453,-174 337,-174 337,-144 453,-144 453,-174"/>
<text text-anchor="start" x="345" y="-162" font-family="Helvetica,sans-Serif" font-size="10.00">lci::g_runtime_init</text>
<text text-anchor="middle" x="395" y="-151" font-family="Helvetica,sans-Serif" font-size="10.00">_x::g_runtime_init_x</text>
</a>
</g>
</g>
<!-- Node2&#45;&gt;Node3 -->
<g id="edge2_Node000002_Node000003" class="edge">
<title>Node2&#45;&gt;Node3</title>
<g id="a_edge2_Node000002_Node000003"><a xlink:title=" ">
<path fill="none" stroke="#63b8ff" d="M285.39,-299.97C290.91,-297.43 296.21,-294.46 301,-291 340.01,-262.85 368.51,-213.13 383.06,-183.4"/>
<polygon fill="#63b8ff" stroke="#63b8ff" points="386.33,-184.68 387.46,-174.15 380,-181.68 386.33,-184.68"/>
</a>
</g>
</g>
<!-- Node4&#45;&gt;Node3 -->
<g id="edge4_Node000004_Node000003" class="edge">
<title>Node4&#45;&gt;Node3</title>
<g id="a_edge4_Node000004_Node000003"><a xlink:title=" ">
<path fill="none" stroke="#63b8ff" d="M281.84,-240.43C288.44,-237.54 294.95,-234.38 301,-231 326.19,-216.91 351.92,-196.43 369.91,-180.91"/>
<polygon fill="#63b8ff" stroke="#63b8ff" points="372.39,-183.39 377.6,-174.17 367.77,-178.13 372.39,-183.39"/>
</a>
</g>
</g>
<!-- Node5&#45;&gt;Node3 -->
<g id="edge6_Node000005_Node000003" class="edge">
<title>Node5&#45;&gt;Node3</title>
<g id="a_edge6_Node000005_Node000003"><a xlink:title=" ">
<path fill="none" stroke="#63b8ff" d="M275.61,-191.94C292.95,-187.12 312.31,-181.73 330.27,-176.73"/>
<polygon fill="#63b8ff" stroke="#63b8ff" points="331.39,-180.06 340.09,-174 329.51,-173.31 331.39,-180.06"/>
</a>
</g>
</g>
<!-- Node6&#45;&gt;Node3 -->
<g id="edge8_Node000006_Node000003" class="edge">
<title>Node6&#45;&gt;Node3</title>
<g id="a_edge8_Node000006_Node000003"><a xlink:title=" ">
<path fill="none" stroke="#63b8ff" d="M281.83,-159C296.36,-159 311.96,-159 326.78,-159"/>
<polygon fill="#63b8ff" stroke="#63b8ff" points="326.89,-162.5 336.89,-159 326.89,-155.5 326.89,-162.5"/>
</a>
</g>
</g>
<!-- Node7&#45;&gt;Node3 -->
<g id="edge10_Node000007_Node000003" class="edge">
<title>Node7&#45;&gt;Node3</title>
<g id="a_edge10_Node000007_Node000003"><a xlink:title=" ">
<path fill="none" stroke="#63b8ff" d="M274.19,-125.66C291.83,-130.57 311.69,-136.09 330.08,-141.21"/>
<polygon fill="#63b8ff" stroke="#63b8ff" points="329.27,-144.62 339.84,-143.93 331.15,-137.88 329.27,-144.62"/>
</a>
</g>
</g>
<!-- Node8&#45;&gt;Node3 -->
<g id="edge12_Node000008_Node000003" class="edge">
<title>Node8&#45;&gt;Node3</title>
<g id="a_edge12_Node000008_Node000003"><a xlink:title=" ">
<path fill="none" stroke="#63b8ff" d="M280.22,-78.04C287.38,-80.65 294.46,-83.63 301,-87 326.81,-100.31 352.65,-121.05 370.51,-136.86"/>
<polygon fill="#63b8ff" stroke="#63b8ff" points="368.36,-139.63 378.13,-143.73 373.05,-134.44 368.36,-139.63"/>
</a>
</g>
</g>
<!-- Node9&#45;&gt;Node3 -->
<g id="edge14_Node000009_Node000003" class="edge">
<title>Node9&#45;&gt;Node3</title>
<g id="a_edge14_Node000009_Node000003"><a xlink:title=" ">
<path fill="none" stroke="#63b8ff" d="M272.83,-25.4C282.69,-28.77 292.57,-33.2 301,-39 337.33,-63.98 365.89,-107.55 381.32,-134.75"/>
<polygon fill="#63b8ff" stroke="#63b8ff" points="378.33,-136.57 386.23,-143.63 384.46,-133.19 378.33,-136.57"/>
</a>
</g>
</g>
</g>
</svg>
