<?xml version="1.0" encoding="UTF-8" standalone="no"?>
<!DOCTYPE svg PUBLIC "-//W3C//DTD SVG 1.1//EN"
 "http://www.w3.org/Graphics/SVG/1.1/DTD/svg11.dtd">
<!-- Generated by graphviz version 2.43.0 (0)
 -->
<!-- Title: lci::g_runtime_init_x::operator() Pages: 1 -->
<svg width="748pt" height="495pt"
 viewBox="0.00 0.00 748.00 494.50" xmlns="http://www.w3.org/2000/svg" xmlns:xlink="http://www.w3.org/1999/xlink">
<g id="graph0" class="graph" transform="scale(1 1) rotate(0) translate(4 490.5)">
<title>lci::g_runtime_init_x::operator()</title>
<!-- Node1 -->
<g id="Node000001" class="node">
<title>Node1</title>
<g id="a_Node000001"><a xlink:title=" ">
<polygon fill="#999999" stroke="#666666" points="104,-235.5 0,-235.5 0,-205.5 104,-205.5 104,-235.5"/>
<text text-anchor="start" x="8" y="-223.5" font-family="Helvetica,sans-Serif" font-size="10.00">lci::g_runtime_init</text>
<text text-anchor="middle" x="52" y="-212.5" font-family="Helvetica,sans-Serif" font-size="10.00">_x::operator()</text>
</a>
</g>
</g>
<!-- Node2 -->
<g id="Node000002" class="node">
<title>Node2</title>
<g id="a_Node000002"><a xlink:href="../../d1/dcd/classlci_1_1g__runtime__init__x.html#aa20ea5973d0c21b602c7f9da734c47a2" target="_top" xlink:title=" ">
<polygon fill="white" stroke="#666666" points="244,-235.5 140,-235.5 140,-205.5 244,-205.5 244,-235.5"/>
<text text-anchor="start" x="148" y="-223.5" font-family="Helvetica,sans-Serif" font-size="10.00">lci::g_runtime_init</text>
<text text-anchor="middle" x="192" y="-212.5" font-family="Helvetica,sans-Serif" font-size="10.00">_x::call</text>
</a>
</g>
</g>
<!-- Node1&#45;&gt;Node2 -->
<g id="edge1_Node000001_Node000002" class="edge">
<title>Node1&#45;&gt;Node2</title>
<g id="a_edge1_Node000001_Node000002"><a xlink:title=" ">
<path fill="none" stroke="#63b8ff" d="M104.39,-220.5C112.56,-220.5 121.08,-220.5 129.46,-220.5"/>
<polygon fill="#63b8ff" stroke="#63b8ff" points="129.57,-224 139.57,-220.5 129.57,-217 129.57,-224"/>
</a>
</g>
</g>
<!-- Node3 -->
<g id="Node000003" class="node">
<title>Node3</title>
<g id="a_Node000003"><a xlink:href="../../d1/dcd/classlci_1_1g__runtime__init__x.html#ad72fab3463ebf56743a418966751b9cc" target="_top" xlink:title=" ">
<polygon fill="white" stroke="#666666" points="574.5,-486.5 440.5,-486.5 440.5,-456.5 574.5,-456.5 574.5,-486.5"/>
<text text-anchor="start" x="448.5" y="-474.5" font-family="Helvetica,sans-Serif" font-size="10.00">lci::g_runtime_init</text>
<text text-anchor="middle" x="507.5" y="-463.5" font-family="Helvetica,sans-Serif" font-size="10.00">_x::alloc_default_device</text>
</a>
</g>
</g>
<!-- Node2&#45;&gt;Node3 -->
<g id="edge2_Node000002_Node000003" class="edge">
<title>Node2&#45;&gt;Node3</title>
<g id="a_edge2_Node000002_Node000003"><a xlink:title=" ">
<path fill="none" stroke="#63b8ff" d="M197.38,-235.54C207.21,-266.87 233.86,-339.76 280,-382.5 321.83,-421.25 382.5,-443.87 430.52,-456.61"/>
<polygon fill="#63b8ff" stroke="#63b8ff" points="429.7,-460.01 440.26,-459.1 431.44,-453.23 429.7,-460.01"/>
</a>
</g>
</g>
<!-- Node5 -->
<g id="Node000005" class="node">
<title>Node5</title>
<g id="a_Node000005"><a xlink:href="../../d1/dcd/classlci_1_1g__runtime__init__x.html#a918d1c83be5991b72b5a1aee076e0b29" target="_top" xlink:title=" ">
<polygon fill="white" stroke="#666666" points="581.5,-438 433.5,-438 433.5,-397 581.5,-397 581.5,-438"/>
<text text-anchor="start" x="441.5" y="-426" font-family="Helvetica,sans-Serif" font-size="10.00">lci::g_runtime_init</text>
<text text-anchor="start" x="441.5" y="-415" font-family="Helvetica,sans-Serif" font-size="10.00">_x::alloc_default_matching</text>
<text text-anchor="middle" x="507.5" y="-404" font-family="Helvetica,sans-Serif" font-size="10.00">_engine</text>
</a>
</g>
</g>
<!-- Node2&#45;&gt;Node5 -->
<g id="edge4_Node000002_Node000005" class="edge">
<title>Node2&#45;&gt;Node5</title>
<g id="a_edge4_Node000002_Node000005"><a xlink:title=" ">
<path fill="none" stroke="#63b8ff" d="M199.78,-235.75C212.06,-261.66 240.43,-314.31 280,-343.5 322.11,-374.55 377.89,-392.99 423.56,-403.69"/>
<polygon fill="#63b8ff" stroke="#63b8ff" points="422.91,-407.13 433.44,-405.92 424.46,-400.3 422.91,-407.13"/>
</a>
</g>
</g>
<!-- Node6 -->
<g id="Node000006" class="node">
<title>Node6</title>
<g id="a_Node000006"><a xlink:href="../../d1/dcd/classlci_1_1g__runtime__init__x.html#a17f340060d3d0c0d0776d4c658110b9a" target="_top" xlink:title=" ">
<polygon fill="white" stroke="#666666" points="588,-378.5 427,-378.5 427,-348.5 588,-348.5 588,-378.5"/>
<text text-anchor="start" x="435" y="-366.5" font-family="Helvetica,sans-Serif" font-size="10.00">lci::g_runtime_init</text>
<text text-anchor="middle" x="507.5" y="-355.5" font-family="Helvetica,sans-Serif" font-size="10.00">_x::alloc_default_packet_pool</text>
</a>
</g>
</g>
<!-- Node2&#45;&gt;Node6 -->
<g id="edge6_Node000002_Node000006" class="edge">
<title>Node2&#45;&gt;Node6</title>
<g id="a_edge6_Node000002_Node000006"><a xlink:title=" ">
<path fill="none" stroke="#63b8ff" d="M203.13,-235.69C217.65,-256.2 246.36,-292.39 280,-311.5 321.65,-335.17 373.4,-348.07 416.91,-355.1"/>
<polygon fill="#63b8ff" stroke="#63b8ff" points="416.51,-358.58 426.92,-356.64 417.57,-351.66 416.51,-358.58"/>
</a>
</g>
</g>
<!-- Node7 -->
<g id="Node000007" class="node">
<title>Node7</title>
<g id="a_Node000007"><a xlink:href="../../d1/dcd/classlci_1_1g__runtime__init__x.html#a1b6fe4670ec793da1f9ba6cec22b0654" target="_top" xlink:title=" ">
<polygon fill="white" stroke="#666666" points="387.5,-257.5 283.5,-257.5 283.5,-227.5 387.5,-227.5 387.5,-257.5"/>
<text text-anchor="start" x="291.5" y="-245.5" font-family="Helvetica,sans-Serif" font-size="10.00">lci::g_runtime_init</text>
<text text-anchor="middle" x="335.5" y="-234.5" font-family="Helvetica,sans-Serif" font-size="10.00">_x::call_impl</text>
</a>
</g>
</g>
<!-- Node2&#45;&gt;Node7 -->
<g id="edge8_Node000002_Node000007" class="edge">
<title>Node2&#45;&gt;Node7</title>
<g id="a_edge8_Node000002_Node000007"><a xlink:title=" ">
<path fill="none" stroke="#63b8ff" d="M244.08,-228.44C253.6,-229.92 263.64,-231.48 273.42,-233"/>
<polygon fill="#63b8ff" stroke="#63b8ff" points="273.07,-236.49 283.49,-234.57 274.15,-229.57 273.07,-236.49"/>
</a>
</g>
</g>
<!-- Node8 -->
<g id="Node000008" class="node">
<title>Node8</title>
<g id="a_Node000008"><a xlink:href="../../d1/dcd/classlci_1_1g__runtime__init__x.html#aa4d8340132c02199d52b71662ac2d2d7" target="_top" xlink:title=" ">
<polygon fill="white" stroke="#666666" points="559.5,-330.5 455.5,-330.5 455.5,-300.5 559.5,-300.5 559.5,-330.5"/>
<text text-anchor="start" x="463.5" y="-318.5" font-family="Helvetica,sans-Serif" font-size="10.00">lci::g_runtime_init</text>
<text text-anchor="middle" x="507.5" y="-307.5" font-family="Helvetica,sans-Serif" font-size="10.00">_x::device_name</text>
</a>
</g>
</g>
<!-- Node2&#45;&gt;Node8 -->
<g id="edge26_Node000002_Node000008" class="edge">
<title>Node2&#45;&gt;Node8</title>
<g id="a_edge26_Node000002_Node000008"><a xlink:title=" ">
<path fill="none" stroke="#63b8ff" d="M208.13,-235.7C224.39,-251.01 251.71,-273.98 280,-285.5 333.05,-307.1 398.32,-313.88 445.15,-315.68"/>
<polygon fill="#63b8ff" stroke="#63b8ff" points="445.04,-319.18 455.14,-316 445.26,-312.18 445.04,-319.18"/>
</a>
</g>
</g>
<!-- Node9 -->
<g id="Node000009" class="node">
<title>Node9</title>
<g id="a_Node000009"><a xlink:href="../../d1/dcd/classlci_1_1g__runtime__init__x.html#a147824472fe6dc5645fd75e92ddfe273" target="_top" xlink:title=" ">
<polygon fill="white" stroke="#666666" points="568.5,-282.5 446.5,-282.5 446.5,-252.5 568.5,-252.5 568.5,-282.5"/>
<text text-anchor="start" x="454.5" y="-270.5" font-family="Helvetica,sans-Serif" font-size="10.00">lci::g_runtime_init</text>
<text text-anchor="middle" x="507.5" y="-259.5" font-family="Helvetica,sans-Serif" font-size="10.00">_x::imm_nbits_rcomp</text>
</a>
</g>
</g>
<!-- Node2&#45;&gt;Node9 -->
<g id="edge28_Node000002_Node000009" class="edge">
<title>Node2&#45;&gt;Node9</title>
<g id="a_edge28_Node000002_Node000009"><a xlink:title=" ">
<path fill="none" stroke="#63b8ff" d="M214.33,-235.55C231.25,-246.52 255.97,-260.48 280,-266.5 331.24,-279.33 391.08,-278.97 436.38,-275.73"/>
<polygon fill="#63b8ff" stroke="#63b8ff" points="436.7,-279.22 446.4,-274.95 436.15,-272.24 436.7,-279.22"/>
</a>
</g>
</g>
<!-- Node10 -->
<g id="Node000010" class="node">
<title>Node10</title>
<g id="a_Node000010"><a xlink:href="../../d1/dcd/classlci_1_1g__runtime__init__x.html#a1972dee68f2838da07aba5b464f732dd" target="_top" xlink:title=" ">
<polygon fill="white" stroke="#666666" points="561,-234.5 454,-234.5 454,-204.5 561,-204.5 561,-234.5"/>
<text text-anchor="start" x="462" y="-222.5" font-family="Helvetica,sans-Serif" font-size="10.00">lci::g_runtime_init</text>
<text text-anchor="middle" x="507.5" y="-211.5" font-family="Helvetica,sans-Serif" font-size="10.00">_x::imm_nbits_tag</text>
</a>
</g>
</g>
<!-- Node2&#45;&gt;Node10 -->
<g id="edge29_Node000002_Node000010" class="edge">
<title>Node2&#45;&gt;Node10</title>
<g id="a_edge29_Node000002_Node000010"><a xlink:title=" ">
<path fill="none" stroke="#63b8ff" d="M244.06,-219.13C255.86,-218.87 268.37,-218.63 280,-218.5 335.38,-217.86 398.39,-218.23 443.86,-218.69"/>
<polygon fill="#63b8ff" stroke="#63b8ff" points="443.83,-222.19 453.87,-218.79 443.9,-215.19 443.83,-222.19"/>
</a>
</g>
</g>
<!-- Node11 -->
<g id="Node000011" class="node">
<title>Node11</title>
<g id="a_Node000011"><a xlink:href="../../d1/dcd/classlci_1_1g__runtime__init__x.html#a4133d17e093270c82a01e72c05cdcd59" target="_top" xlink:title=" ">
<polygon fill="white" stroke="#666666" points="559.5,-186.5 455.5,-186.5 455.5,-156.5 559.5,-156.5 559.5,-186.5"/>
<text text-anchor="start" x="463.5" y="-174.5" font-family="Helvetica,sans-Serif" font-size="10.00">lci::g_runtime_init</text>
<text text-anchor="middle" x="507.5" y="-163.5" font-family="Helvetica,sans-Serif" font-size="10.00">_x::name</text>
</a>
</g>
</g>
<!-- Node2&#45;&gt;Node11 -->
<g id="edge30_Node000002_Node000011" class="edge">
<title>Node2&#45;&gt;Node11</title>
<g id="a_edge30_Node000002_Node000011"><a xlink:title=" ">
<path fill="none" stroke="#63b8ff" d="M244.07,-212.52C299.06,-203.92 386.54,-190.25 445.21,-181.08"/>
<polygon fill="#63b8ff" stroke="#63b8ff" points="446.12,-184.48 455.45,-179.48 445.03,-177.56 446.12,-184.48"/>
</a>
</g>
</g>
<!-- Node12 -->
<g id="Node000012" class="node">
<title>Node12</title>
<g id="a_Node000012"><a xlink:href="../../d1/dcd/classlci_1_1g__runtime__init__x.html#af2f7a0791a72ac3c8b8546c354ed7081" target="_top" xlink:title=" ">
<polygon fill="white" stroke="#666666" points="583.5,-138.5 431.5,-138.5 431.5,-108.5 583.5,-108.5 583.5,-138.5"/>
<text text-anchor="start" x="439.5" y="-126.5" font-family="Helvetica,sans-Serif" font-size="10.00">lci::g_runtime_init</text>
<text text-anchor="middle" x="507.5" y="-115.5" font-family="Helvetica,sans-Serif" font-size="10.00">_x::packet_return_threshold</text>
</a>
</g>
</g>
<!-- Node2&#45;&gt;Node12 -->
<g id="edge31_Node000002_Node000012" class="edge">
<title>Node2&#45;&gt;Node12</title>
<g id="a_edge31_Node000002_Node000012"><a xlink:title=" ">
<path fill="none" stroke="#63b8ff" d="M227.79,-205.43C243.57,-198.88 262.57,-191.37 280,-185.5 330.83,-168.38 389.23,-152.49 434,-141.07"/>
<polygon fill="#63b8ff" stroke="#63b8ff" points="435.08,-144.41 443.91,-138.56 433.36,-137.63 435.08,-144.41"/>
</a>
</g>
</g>
<!-- Node13 -->
<g id="Node000013" class="node">
<title>Node13</title>
<g id="a_Node000013"><a xlink:href="../../d1/dcd/classlci_1_1g__runtime__init__x.html#affea33547edd45282533e817747f4b66" target="_top" xlink:title=" ">
<polygon fill="white" stroke="#666666" points="559.5,-90.5 455.5,-90.5 455.5,-60.5 559.5,-60.5 559.5,-90.5"/>
<text text-anchor="start" x="463.5" y="-78.5" font-family="Helvetica,sans-Serif" font-size="10.00">lci::g_runtime_init</text>
<text text-anchor="middle" x="507.5" y="-67.5" font-family="Helvetica,sans-Serif" font-size="10.00">_x::rdv_protocol</text>
</a>
</g>
</g>
<!-- Node2&#45;&gt;Node13 -->
<g id="edge32_Node000002_Node000013" class="edge">
<title>Node2&#45;&gt;Node13</title>
<g id="a_edge32_Node000002_Node000013"><a xlink:title=" ">
<path fill="none" stroke="#63b8ff" d="M207.38,-205.37C223.64,-189.05 251.56,-163.29 280,-147.5 332.37,-118.42 398.18,-99.17 445.35,-87.95"/>
<polygon fill="#63b8ff" stroke="#63b8ff" points="446.17,-91.35 455.12,-85.68 444.59,-84.53 446.17,-91.35"/>
</a>
</g>
</g>
<!-- Node14 -->
<g id="Node000014" class="node">
<title>Node14</title>
<g id="a_Node000014"><a xlink:href="../../d1/dcd/classlci_1_1g__runtime__init__x.html#a71bbc1bd89ec75a90230d026b303aa91" target="_top" xlink:title=" ">
<polygon fill="white" stroke="#666666" points="559.5,-42.5 455.5,-42.5 455.5,-12.5 559.5,-12.5 559.5,-42.5"/>
<text text-anchor="start" x="463.5" y="-30.5" font-family="Helvetica,sans-Serif" font-size="10.00">lci::g_runtime_init</text>
<text text-anchor="middle" x="507.5" y="-19.5" font-family="Helvetica,sans-Serif" font-size="10.00">_x::user_context</text>
</a>
</g>
</g>
<!-- Node2&#45;&gt;Node14 -->
<g id="edge33_Node000002_Node000014" class="edge">
<title>Node2&#45;&gt;Node14</title>
<g id="a_edge33_Node000002_Node000014"><a xlink:title=" ">
<path fill="none" stroke="#63b8ff" d="M200.04,-205.09C212.53,-179.46 240.95,-128.06 280,-99.5 329.13,-63.57 396.84,-45.14 445.41,-35.97"/>
<polygon fill="#63b8ff" stroke="#63b8ff" points="446.25,-39.38 455.47,-34.15 445.01,-32.49 446.25,-39.38"/>
</a>
</g>
</g>
<!-- Node15 -->
<g id="Node000015" class="node">
<title>Node15</title>
<g id="a_Node000015"><a xlink:href="../../d8/d33/group__LCI__BASIC.html#ga36d0ced682287237e138b1153b490e53" target="_top" xlink:title="Global initialization for LCI, including rank_me, rank_n, and g_default_attr.">
<polygon fill="white" stroke="#666666" points="391,-19 280,-19 280,0 391,0 391,-19"/>
<text text-anchor="middle" x="335.5" y="-7" font-family="Helvetica,sans-Serif" font-size="10.00">lci::global_initialize</text>
</a>
</g>
</g>
<!-- Node2&#45;&gt;Node15 -->
<g id="edge27_Node000002_Node000015" class="edge">
<title>Node2&#45;&gt;Node15</title>
<g id="a_edge27_Node000002_Node000015"><a xlink:title=" ">
<path fill="none" stroke="#63b8ff" d="M196.2,-205.29C204.28,-170.42 228.59,-83.86 280,-33.5 283.92,-29.66 288.57,-26.37 293.46,-23.59"/>
<polygon fill="#63b8ff" stroke="#63b8ff" points="295.07,-26.7 302.44,-19.09 291.93,-20.44 295.07,-26.7"/>
</a>
</g>
</g>
<!-- Node4 -->
<g id="Node000004" class="node">
<title>Node4</title>
<g id="a_Node000004"><a xlink:href="../../d1/dcd/classlci_1_1g__runtime__init__x.html#ac50115eace47c7d8766aa04214978bc1" target="_top" xlink:title=" ">
<polygon fill="white" stroke="#666666" points="740,-258.5 624,-258.5 624,-228.5 740,-228.5 740,-258.5"/>
<text text-anchor="start" x="632" y="-246.5" font-family="Helvetica,sans-Serif" font-size="10.00">lci::g_runtime_init</text>
<text text-anchor="middle" x="682" y="-235.5" font-family="Helvetica,sans-Serif" font-size="10.00">_x::g_runtime_init_x</text>
</a>
</g>
</g>
<!-- Node3&#45;&gt;Node4 -->
<g id="edge3_Node000003_Node000004" class="edge">
<title>Node3&#45;&gt;Node4</title>
<g id="a_edge3_Node000003_Node000004"><a xlink:title=" ">
<path fill="none" stroke="#63b8ff" d="M574.68,-456.57C579.47,-454.01 583.98,-451.01 588,-447.5 643.26,-399.22 667.56,-311.42 676.54,-268.48"/>
<polygon fill="#63b8ff" stroke="#63b8ff" points="679.99,-269.08 678.5,-258.59 673.12,-267.72 679.99,-269.08"/>
</a>
</g>
</g>
<!-- Node5&#45;&gt;Node4 -->
<g id="edge5_Node000005_Node000004" class="edge">
<title>Node5&#45;&gt;Node4</title>
<g id="a_edge5_Node000005_Node000004"><a xlink:title=" ">
<path fill="none" stroke="#63b8ff" d="M573.78,-396.95C578.82,-394.16 583.64,-391.02 588,-387.5 628.33,-354.95 656.83,-300.04 670.93,-268.26"/>
<polygon fill="#63b8ff" stroke="#63b8ff" points="674.25,-269.38 675,-258.82 667.83,-266.62 674.25,-269.38"/>
</a>
</g>
</g>
<!-- Node6&#45;&gt;Node4 -->
<g id="edge7_Node000006_Node000004" class="edge">
<title>Node6&#45;&gt;Node4</title>
<g id="a_edge7_Node000006_Node000004"><a xlink:title=" ">
<path fill="none" stroke="#63b8ff" d="M570.2,-348.34C576.41,-345.81 582.46,-342.88 588,-339.5 619.14,-320.53 647.09,-288.67 664.04,-266.9"/>
<polygon fill="#63b8ff" stroke="#63b8ff" points="666.92,-268.9 670.18,-258.82 661.34,-264.66 666.92,-268.9"/>
</a>
</g>
</g>
<!-- Node7&#45;&gt;Node3 -->
<g id="edge9_Node000007_Node000003" class="edge">
<title>Node7&#45;&gt;Node3</title>
<g id="a_edge9_Node000007_Node000003"><a xlink:title=" ">
<path fill="none" stroke="#63b8ff" d="M338.78,-257.65C345.27,-295.48 367.4,-394.79 427,-447.5 428.5,-448.83 430.07,-450.08 431.7,-451.26"/>
<polygon fill="#63b8ff" stroke="#63b8ff" points="429.94,-454.29 440.27,-456.62 433.65,-448.35 429.94,-454.29"/>
</a>
</g>
</g>
<!-- Node7&#45;&gt;Node5 -->
<g id="edge10_Node000007_Node000005" class="edge">
<title>Node7&#45;&gt;Node5</title>
<g id="a_edge10_Node000007_Node000005"><a xlink:title=" ">
<path fill="none" stroke="#63b8ff" d="M342.2,-257.92C353.77,-287.21 382.71,-351.18 427,-387.5 428.58,-388.8 430.23,-390.04 431.92,-391.24"/>
<polygon fill="#63b8ff" stroke="#63b8ff" points="430.44,-394.44 440.77,-396.8 434.16,-388.51 430.44,-394.44"/>
</a>
</g>
</g>
<!-- Node7&#45;&gt;Node6 -->
<g id="edge11_Node000007_Node000006" class="edge">
<title>Node7&#45;&gt;Node6</title>
<g id="a_edge11_Node000007_Node000006"><a xlink:title=" ">
<path fill="none" stroke="#63b8ff" d="M346.64,-257.64C361.7,-278.97 392,-317.72 427,-339.5 429.75,-341.21 432.64,-342.81 435.61,-344.3"/>
<polygon fill="#63b8ff" stroke="#63b8ff" points="434.18,-347.5 444.73,-348.45 437.08,-341.12 434.18,-347.5"/>
</a>
</g>
</g>
<!-- Node7&#45;&gt;Node8 -->
<g id="edge12_Node000007_Node000008" class="edge">
<title>Node7&#45;&gt;Node8</title>
<g id="a_edge12_Node000007_Node000008"><a xlink:title=" ">
<path fill="none" stroke="#63b8ff" d="M361.18,-257.64C379.01,-268.13 403.91,-281.88 427,-291.5 432.94,-293.97 439.22,-296.31 445.55,-298.49"/>
<polygon fill="#63b8ff" stroke="#63b8ff" points="444.9,-301.96 455.49,-301.78 447.09,-295.32 444.9,-301.96"/>
</a>
</g>
</g>
<!-- Node7&#45;&gt;Node9 -->
<g id="edge14_Node000007_Node000009" class="edge">
<title>Node7&#45;&gt;Node9</title>
<g id="a_edge14_Node000007_Node000009"><a xlink:title=" ">
<path fill="none" stroke="#63b8ff" d="M387.51,-250C402.81,-252.25 419.88,-254.76 436.2,-257.16"/>
<polygon fill="#63b8ff" stroke="#63b8ff" points="435.85,-260.65 446.25,-258.64 436.86,-253.72 435.85,-260.65"/>
</a>
</g>
</g>
<!-- Node7&#45;&gt;Node10 -->
<g id="edge16_Node000007_Node000010" class="edge">
<title>Node7&#45;&gt;Node10</title>
<g id="a_edge16_Node000007_Node000010"><a xlink:title=" ">
<path fill="none" stroke="#63b8ff" d="M387.51,-235.6C405.16,-233.21 425.17,-230.5 443.67,-228"/>
<polygon fill="#63b8ff" stroke="#63b8ff" points="444.32,-231.44 453.76,-226.64 443.38,-224.51 444.32,-231.44"/>
</a>
</g>
</g>
<!-- Node7&#45;&gt;Node11 -->
<g id="edge18_Node000007_Node000011" class="edge">
<title>Node7&#45;&gt;Node11</title>
<g id="a_edge18_Node000007_Node000011"><a xlink:title=" ">
<path fill="none" stroke="#63b8ff" d="M362.42,-227.4C380.19,-217.45 404.53,-204.63 427,-195.5 432.87,-193.11 439.07,-190.84 445.32,-188.71"/>
<polygon fill="#63b8ff" stroke="#63b8ff" points="446.71,-191.93 455.12,-185.48 444.53,-185.28 446.71,-191.93"/>
</a>
</g>
</g>
<!-- Node7&#45;&gt;Node12 -->
<g id="edge20_Node000007_Node000012" class="edge">
<title>Node7&#45;&gt;Node12</title>
<g id="a_edge20_Node000007_Node000012"><a xlink:title=" ">
<path fill="none" stroke="#63b8ff" d="M346.97,-227.33C362.2,-206.37 392.46,-168.74 427,-147.5 429.76,-145.8 432.65,-144.21 435.63,-142.73"/>
<polygon fill="#63b8ff" stroke="#63b8ff" points="437.09,-145.91 444.77,-138.61 434.21,-139.53 437.09,-145.91"/>
</a>
</g>
</g>
<!-- Node7&#45;&gt;Node13 -->
<g id="edge22_Node000007_Node000013" class="edge">
<title>Node7&#45;&gt;Node13</title>
<g id="a_edge22_Node000007_Node000013"><a xlink:title=" ">
<path fill="none" stroke="#63b8ff" d="M341.87,-227.47C353.05,-198.33 381.62,-133.99 427,-99.5 432.55,-95.28 438.85,-91.8 445.4,-88.93"/>
<polygon fill="#63b8ff" stroke="#63b8ff" points="447.09,-92.03 455.14,-85.14 444.55,-85.5 447.09,-92.03"/>
</a>
</g>
</g>
<!-- Node7&#45;&gt;Node14 -->
<g id="edge24_Node000007_Node000014" class="edge">
<title>Node7&#45;&gt;Node14</title>
<g id="a_edge24_Node000007_Node000014"><a xlink:title=" ">
<path fill="none" stroke="#63b8ff" d="M339.33,-227.31C346.84,-191.27 370.69,-99.98 427,-51.5 432.56,-46.71 439.05,-42.88 445.88,-39.82"/>
<polygon fill="#63b8ff" stroke="#63b8ff" points="447.32,-43.01 455.35,-36.09 444.76,-36.49 447.32,-43.01"/>
</a>
</g>
</g>
<!-- Node8&#45;&gt;Node4 -->
<g id="edge13_Node000008_Node000004" class="edge">
<title>Node8&#45;&gt;Node4</title>
<g id="a_edge13_Node000008_Node000004"><a xlink:title=" ">
<path fill="none" stroke="#63b8ff" d="M559.87,-301.5C569.33,-298.5 579.05,-295.13 588,-291.5 607.61,-283.56 628.62,-272.91 645.7,-263.66"/>
<polygon fill="#63b8ff" stroke="#63b8ff" points="647.67,-266.57 654.75,-258.69 644.3,-260.44 647.67,-266.57"/>
</a>
</g>
</g>
<!-- Node9&#45;&gt;Node4 -->
<g id="edge15_Node000009_Node000004" class="edge">
<title>Node9&#45;&gt;Node4</title>
<g id="a_edge15_Node000009_Node000004"><a xlink:title=" ">
<path fill="none" stroke="#63b8ff" d="M568.83,-259.11C583.36,-257.09 598.96,-254.91 613.78,-252.85"/>
<polygon fill="#63b8ff" stroke="#63b8ff" points="614.47,-256.29 623.89,-251.45 613.5,-249.36 614.47,-256.29"/>
</a>
</g>
</g>
<!-- Node10&#45;&gt;Node4 -->
<g id="edge17_Node000010_Node000004" class="edge">
<title>Node10&#45;&gt;Node4</title>
<g id="a_edge17_Node000010_Node000004"><a xlink:title=" ">
<path fill="none" stroke="#63b8ff" d="M561.19,-226.83C577.76,-229.14 596.28,-231.71 613.71,-234.14"/>
<polygon fill="#63b8ff" stroke="#63b8ff" points="613.44,-237.63 623.83,-235.55 614.41,-230.7 613.44,-237.63"/>
</a>
</g>
</g>
<!-- Node11&#45;&gt;Node4 -->
<g id="edge19_Node000011_Node000004" class="edge">
<title>Node11&#45;&gt;Node4</title>
<g id="a_edge19_Node000011_Node000004"><a xlink:title=" ">
<path fill="none" stroke="#63b8ff" d="M559.87,-185.5C569.33,-188.5 579.05,-191.87 588,-195.5 607.61,-203.44 628.62,-214.09 645.7,-223.34"/>
<polygon fill="#63b8ff" stroke="#63b8ff" points="644.3,-226.56 654.75,-228.31 647.67,-220.43 644.3,-226.56"/>
</a>
</g>
</g>
<!-- Node12&#45;&gt;Node4 -->
<g id="edge21_Node000012_Node000004" class="edge">
<title>Node12&#45;&gt;Node4</title>
<g id="a_edge21_Node000012_Node000004"><a xlink:title=" ">
<path fill="none" stroke="#63b8ff" d="M570.2,-138.66C576.41,-141.19 582.46,-144.12 588,-147.5 619.14,-166.47 647.09,-198.33 664.04,-220.1"/>
<polygon fill="#63b8ff" stroke="#63b8ff" points="661.34,-222.34 670.18,-228.18 666.92,-218.1 661.34,-222.34"/>
</a>
</g>
</g>
<!-- Node13&#45;&gt;Node4 -->
<g id="edge23_Node000013_Node000004" class="edge">
<title>Node13&#45;&gt;Node4</title>
<g id="a_edge23_Node000013_Node000004"><a xlink:title=" ">
<path fill="none" stroke="#63b8ff" d="M559.82,-85.2C569.79,-88.63 579.71,-93.26 588,-99.5 629.62,-130.83 657.81,-186.65 671.47,-218.81"/>
<polygon fill="#63b8ff" stroke="#63b8ff" points="668.36,-220.44 675.39,-228.36 674.83,-217.78 668.36,-220.44"/>
</a>
</g>
</g>
<!-- Node14&#45;&gt;Node4 -->
<g id="edge25_Node000014_Node000004" class="edge">
<title>Node14&#45;&gt;Node4</title>
<g id="a_edge25_Node000014_Node000004"><a xlink:title=" ">
<path fill="none" stroke="#63b8ff" d="M559.61,-36.14C569.82,-39.65 579.88,-44.57 588,-51.5 640.5,-96.3 665.85,-177.61 675.75,-218.54"/>
<polygon fill="#63b8ff" stroke="#63b8ff" points="672.39,-219.54 678.05,-228.49 679.21,-217.96 672.39,-219.54"/>
</a>
</g>
</g>
</g>
</svg>
