<?xml version="1.0" encoding="UTF-8" standalone="no"?>
<!DOCTYPE svg PUBLIC "-//W3C//DTD SVG 1.1//EN"
 "http://www.w3.org/Graphics/SVG/1.1/DTD/svg11.dtd">
<!-- Generated by graphviz version 2.43.0 (0)
 -->
<!-- Title: lci::g_runtime_init_x::g_runtime_init_x Pages: 1 -->
<svg width="741pt" height="482pt"
 viewBox="0.00 0.00 741.00 482.00" xmlns="http://www.w3.org/2000/svg" xmlns:xlink="http://www.w3.org/1999/xlink">
<g id="graph0" class="graph" transform="scale(1 1) rotate(0) translate(4 478)">
<title>lci::g_runtime_init_x::g_runtime_init_x</title>
<!-- Node1 -->
<g id="Node000001" class="node">
<title>Node1</title>
<g id="a_Node000001"><a xlink:title=" ">
<polygon fill="#999999" stroke="#666666" points="733,-246 617,-246 617,-216 733,-216 733,-246"/>
<text text-anchor="start" x="625" y="-234" font-family="Helvetica,sans-Serif" font-size="10.00">lci::g_runtime_init</text>
<text text-anchor="middle" x="675" y="-223" font-family="Helvetica,sans-Serif" font-size="10.00">_x::g_runtime_init_x</text>
</a>
</g>
</g>
<!-- Node2 -->
<g id="Node000002" class="node">
<title>Node2</title>
<g id="a_Node000002"><a xlink:href="../../d1/dcd/classlci_1_1g__runtime__init__x.html#ad72fab3463ebf56743a418966751b9cc" target="_top" xlink:title=" ">
<polygon fill="white" stroke="#666666" points="567.5,-474 433.5,-474 433.5,-444 567.5,-444 567.5,-474"/>
<text text-anchor="start" x="441.5" y="-462" font-family="Helvetica,sans-Serif" font-size="10.00">lci::g_runtime_init</text>
<text text-anchor="middle" x="500.5" y="-451" font-family="Helvetica,sans-Serif" font-size="10.00">_x::alloc_default_device</text>
</a>
</g>
</g>
<!-- Node1&#45;&gt;Node2 -->
<g id="edge1_Node000001_Node000002" class="edge">
<title>Node1&#45;&gt;Node2</title>
<g id="a_edge1_Node000001_Node000002"><a xlink:title=" ">
<path fill="none" stroke="#63b8ff" d="M669.54,-255.98C660.56,-298.92 636.26,-386.72 581,-435 576.98,-438.51 572.47,-441.51 567.68,-444.07"/>
<polygon fill="#63b8ff" stroke="#63b8ff" points="672.99,-256.58 671.5,-246.09 666.12,-255.22 672.99,-256.58"/>
</a>
</g>
</g>
<!-- Node7 -->
<g id="Node000007" class="node">
<title>Node7</title>
<g id="a_Node000007"><a xlink:href="../../d1/dcd/classlci_1_1g__runtime__init__x.html#a918d1c83be5991b72b5a1aee076e0b29" target="_top" xlink:title=" ">
<polygon fill="white" stroke="#666666" points="574.5,-425.5 426.5,-425.5 426.5,-384.5 574.5,-384.5 574.5,-425.5"/>
<text text-anchor="start" x="434.5" y="-413.5" font-family="Helvetica,sans-Serif" font-size="10.00">lci::g_runtime_init</text>
<text text-anchor="start" x="434.5" y="-402.5" font-family="Helvetica,sans-Serif" font-size="10.00">_x::alloc_default_matching</text>
<text text-anchor="middle" x="500.5" y="-391.5" font-family="Helvetica,sans-Serif" font-size="10.00">_engine</text>
</a>
</g>
</g>
<!-- Node1&#45;&gt;Node7 -->
<g id="edge7_Node000001_Node000007" class="edge">
<title>Node1&#45;&gt;Node7</title>
<g id="a_edge7_Node000001_Node000007"><a xlink:title=" ">
<path fill="none" stroke="#63b8ff" d="M663.93,-255.76C649.83,-287.54 621.33,-342.45 581,-375 576.64,-378.52 571.82,-381.66 566.78,-384.45"/>
<polygon fill="#63b8ff" stroke="#63b8ff" points="667.25,-256.88 668,-246.32 660.83,-254.12 667.25,-256.88"/>
</a>
</g>
</g>
<!-- Node8 -->
<g id="Node000008" class="node">
<title>Node8</title>
<g id="a_Node000008"><a xlink:href="../../d1/dcd/classlci_1_1g__runtime__init__x.html#a17f340060d3d0c0d0776d4c658110b9a" target="_top" xlink:title=" ">
<polygon fill="white" stroke="#666666" points="581,-366 420,-366 420,-336 581,-336 581,-366"/>
<text text-anchor="start" x="428" y="-354" font-family="Helvetica,sans-Serif" font-size="10.00">lci::g_runtime_init</text>
<text text-anchor="middle" x="500.5" y="-343" font-family="Helvetica,sans-Serif" font-size="10.00">_x::alloc_default_packet_pool</text>
</a>
</g>
</g>
<!-- Node1&#45;&gt;Node8 -->
<g id="edge10_Node000001_Node000008" class="edge">
<title>Node1&#45;&gt;Node8</title>
<g id="a_edge10_Node000001_Node000008"><a xlink:title=" ">
<path fill="none" stroke="#63b8ff" d="M657.04,-254.4C640.09,-276.17 612.14,-308.03 581,-327 575.46,-330.38 569.41,-333.31 563.2,-335.84"/>
<polygon fill="#63b8ff" stroke="#63b8ff" points="659.92,-256.4 663.18,-246.32 654.34,-252.16 659.92,-256.4"/>
</a>
</g>
</g>
<!-- Node9 -->
<g id="Node000009" class="node">
<title>Node9</title>
<g id="a_Node000009"><a xlink:href="../../d1/dcd/classlci_1_1g__runtime__init__x.html#aa4d8340132c02199d52b71662ac2d2d7" target="_top" xlink:title=" ">
<polygon fill="white" stroke="#666666" points="552.5,-318 448.5,-318 448.5,-288 552.5,-288 552.5,-318"/>
<text text-anchor="start" x="456.5" y="-306" font-family="Helvetica,sans-Serif" font-size="10.00">lci::g_runtime_init</text>
<text text-anchor="middle" x="500.5" y="-295" font-family="Helvetica,sans-Serif" font-size="10.00">_x::device_name</text>
</a>
</g>
</g>
<!-- Node1&#45;&gt;Node9 -->
<g id="edge13_Node000001_Node000009" class="edge">
<title>Node1&#45;&gt;Node9</title>
<g id="a_edge13_Node000001_Node000009"><a xlink:title=" ">
<path fill="none" stroke="#63b8ff" d="M638.7,-251.16C621.62,-260.41 600.61,-271.06 581,-279 572.05,-282.63 562.33,-286 552.87,-289"/>
<polygon fill="#63b8ff" stroke="#63b8ff" points="640.67,-254.07 647.75,-246.19 637.3,-247.94 640.67,-254.07"/>
</a>
</g>
</g>
<!-- Node10 -->
<g id="Node000010" class="node">
<title>Node10</title>
<g id="a_Node000010"><a xlink:href="../../d1/dcd/classlci_1_1g__runtime__init__x.html#a147824472fe6dc5645fd75e92ddfe273" target="_top" xlink:title=" ">
<polygon fill="white" stroke="#666666" points="561.5,-270 439.5,-270 439.5,-240 561.5,-240 561.5,-270"/>
<text text-anchor="start" x="447.5" y="-258" font-family="Helvetica,sans-Serif" font-size="10.00">lci::g_runtime_init</text>
<text text-anchor="middle" x="500.5" y="-247" font-family="Helvetica,sans-Serif" font-size="10.00">_x::imm_nbits_rcomp</text>
</a>
</g>
</g>
<!-- Node1&#45;&gt;Node10 -->
<g id="edge16_Node000001_Node000010" class="edge">
<title>Node1&#45;&gt;Node10</title>
<g id="a_edge16_Node000001_Node000010"><a xlink:title=" ">
<path fill="none" stroke="#63b8ff" d="M606.47,-240.4C591.68,-242.45 576.12,-244.62 561.64,-246.63"/>
<polygon fill="#63b8ff" stroke="#63b8ff" points="607.14,-243.84 616.56,-238.99 606.17,-236.9 607.14,-243.84"/>
</a>
</g>
</g>
<!-- Node11 -->
<g id="Node000011" class="node">
<title>Node11</title>
<g id="a_Node000011"><a xlink:href="../../d1/dcd/classlci_1_1g__runtime__init__x.html#a1972dee68f2838da07aba5b464f732dd" target="_top" xlink:title=" ">
<polygon fill="white" stroke="#666666" points="554,-222 447,-222 447,-192 554,-192 554,-222"/>
<text text-anchor="start" x="455" y="-210" font-family="Helvetica,sans-Serif" font-size="10.00">lci::g_runtime_init</text>
<text text-anchor="middle" x="500.5" y="-199" font-family="Helvetica,sans-Serif" font-size="10.00">_x::imm_nbits_tag</text>
</a>
</g>
</g>
<!-- Node1&#45;&gt;Node11 -->
<g id="edge19_Node000001_Node000011" class="edge">
<title>Node1&#45;&gt;Node11</title>
<g id="a_edge19_Node000001_Node000011"><a xlink:title=" ">
<path fill="none" stroke="#63b8ff" d="M606.45,-221.6C589.04,-219.18 570.56,-216.61 554.04,-214.31"/>
<polygon fill="#63b8ff" stroke="#63b8ff" points="606.17,-225.1 616.56,-223.01 607.14,-218.16 606.17,-225.1"/>
</a>
</g>
</g>
<!-- Node12 -->
<g id="Node000012" class="node">
<title>Node12</title>
<g id="a_Node000012"><a xlink:href="../../d1/dcd/classlci_1_1g__runtime__init__x.html#a4133d17e093270c82a01e72c05cdcd59" target="_top" xlink:title=" ">
<polygon fill="white" stroke="#666666" points="552.5,-174 448.5,-174 448.5,-144 552.5,-144 552.5,-174"/>
<text text-anchor="start" x="456.5" y="-162" font-family="Helvetica,sans-Serif" font-size="10.00">lci::g_runtime_init</text>
<text text-anchor="middle" x="500.5" y="-151" font-family="Helvetica,sans-Serif" font-size="10.00">_x::name</text>
</a>
</g>
</g>
<!-- Node1&#45;&gt;Node12 -->
<g id="edge22_Node000001_Node000012" class="edge">
<title>Node1&#45;&gt;Node12</title>
<g id="a_edge22_Node000001_Node000012"><a xlink:title=" ">
<path fill="none" stroke="#63b8ff" d="M638.7,-210.84C621.62,-201.59 600.61,-190.94 581,-183 572.05,-179.37 562.33,-176 552.87,-173"/>
<polygon fill="#63b8ff" stroke="#63b8ff" points="637.3,-214.06 647.75,-215.81 640.67,-207.93 637.3,-214.06"/>
</a>
</g>
</g>
<!-- Node13 -->
<g id="Node000013" class="node">
<title>Node13</title>
<g id="a_Node000013"><a xlink:href="../../d1/dcd/classlci_1_1g__runtime__init__x.html#af2f7a0791a72ac3c8b8546c354ed7081" target="_top" xlink:title=" ">
<polygon fill="white" stroke="#666666" points="576.5,-126 424.5,-126 424.5,-96 576.5,-96 576.5,-126"/>
<text text-anchor="start" x="432.5" y="-114" font-family="Helvetica,sans-Serif" font-size="10.00">lci::g_runtime_init</text>
<text text-anchor="middle" x="500.5" y="-103" font-family="Helvetica,sans-Serif" font-size="10.00">_x::packet_return_threshold</text>
</a>
</g>
</g>
<!-- Node1&#45;&gt;Node13 -->
<g id="edge25_Node000001_Node000013" class="edge">
<title>Node1&#45;&gt;Node13</title>
<g id="a_edge25_Node000001_Node000013"><a xlink:title=" ">
<path fill="none" stroke="#63b8ff" d="M657.04,-207.6C640.09,-185.83 612.14,-153.97 581,-135 575.46,-131.62 569.41,-128.69 563.2,-126.16"/>
<polygon fill="#63b8ff" stroke="#63b8ff" points="654.34,-209.84 663.18,-215.68 659.92,-205.6 654.34,-209.84"/>
</a>
</g>
</g>
<!-- Node14 -->
<g id="Node000014" class="node">
<title>Node14</title>
<g id="a_Node000014"><a xlink:href="../../d1/dcd/classlci_1_1g__runtime__init__x.html#affea33547edd45282533e817747f4b66" target="_top" xlink:title=" ">
<polygon fill="white" stroke="#666666" points="552.5,-78 448.5,-78 448.5,-48 552.5,-48 552.5,-78"/>
<text text-anchor="start" x="456.5" y="-66" font-family="Helvetica,sans-Serif" font-size="10.00">lci::g_runtime_init</text>
<text text-anchor="middle" x="500.5" y="-55" font-family="Helvetica,sans-Serif" font-size="10.00">_x::rdv_protocol</text>
</a>
</g>
</g>
<!-- Node1&#45;&gt;Node14 -->
<g id="edge28_Node000001_Node000014" class="edge">
<title>Node1&#45;&gt;Node14</title>
<g id="a_edge28_Node000001_Node000014"><a xlink:title=" ">
<path fill="none" stroke="#63b8ff" d="M664.47,-206.31C650.81,-174.15 622.62,-118.33 581,-87 572.71,-80.76 562.79,-76.13 552.82,-72.7"/>
<polygon fill="#63b8ff" stroke="#63b8ff" points="661.36,-207.94 668.39,-215.86 667.83,-205.28 661.36,-207.94"/>
</a>
</g>
</g>
<!-- Node15 -->
<g id="Node000015" class="node">
<title>Node15</title>
<g id="a_Node000015"><a xlink:href="../../d1/dcd/classlci_1_1g__runtime__init__x.html#a71bbc1bd89ec75a90230d026b303aa91" target="_top" xlink:title=" ">
<polygon fill="white" stroke="#666666" points="552.5,-30 448.5,-30 448.5,0 552.5,0 552.5,-30"/>
<text text-anchor="start" x="456.5" y="-18" font-family="Helvetica,sans-Serif" font-size="10.00">lci::g_runtime_init</text>
<text text-anchor="middle" x="500.5" y="-7" font-family="Helvetica,sans-Serif" font-size="10.00">_x::user_context</text>
</a>
</g>
</g>
<!-- Node1&#45;&gt;Node15 -->
<g id="edge31_Node000001_Node000015" class="edge">
<title>Node1&#45;&gt;Node15</title>
<g id="a_edge31_Node000001_Node000015"><a xlink:title=" ">
<path fill="none" stroke="#63b8ff" d="M668.75,-206.04C658.85,-165.11 633.5,-83.8 581,-39 572.88,-32.07 562.82,-27.15 552.61,-23.64"/>
<polygon fill="#63b8ff" stroke="#63b8ff" points="665.39,-207.04 671.05,-215.99 672.21,-205.46 665.39,-207.04"/>
</a>
</g>
</g>
<!-- Node3 -->
<g id="Node000003" class="node">
<title>Node3</title>
<g id="a_Node000003"><a xlink:href="../../d1/dcd/classlci_1_1g__runtime__init__x.html#aa20ea5973d0c21b602c7f9da734c47a2" target="_top" xlink:title=" ">
<polygon fill="white" stroke="#666666" points="244,-246 140,-246 140,-216 244,-216 244,-246"/>
<text text-anchor="start" x="148" y="-234" font-family="Helvetica,sans-Serif" font-size="10.00">lci::g_runtime_init</text>
<text text-anchor="middle" x="192" y="-223" font-family="Helvetica,sans-Serif" font-size="10.00">_x::call</text>
</a>
</g>
</g>
<!-- Node2&#45;&gt;Node3 -->
<g id="edge2_Node000002_Node000003" class="edge">
<title>Node2&#45;&gt;Node3</title>
<g id="a_edge2_Node000002_Node000003"><a xlink:title=" ">
<path fill="none" stroke="#63b8ff" d="M428.07,-440.88C381.65,-426.24 322.16,-401.76 280,-364 241.16,-329.21 212.25,-273.3 199.78,-246.41"/>
<polygon fill="#63b8ff" stroke="#63b8ff" points="427.17,-444.27 437.76,-443.86 429.23,-437.58 427.17,-444.27"/>
</a>
</g>
</g>
<!-- Node6 -->
<g id="Node000006" class="node">
<title>Node6</title>
<g id="a_Node000006"><a xlink:href="../../d1/dcd/classlci_1_1g__runtime__init__x.html#a1b6fe4670ec793da1f9ba6cec22b0654" target="_top" xlink:title=" ">
<polygon fill="white" stroke="#666666" points="384,-246 280,-246 280,-216 384,-216 384,-246"/>
<text text-anchor="start" x="288" y="-234" font-family="Helvetica,sans-Serif" font-size="10.00">lci::g_runtime_init</text>
<text text-anchor="middle" x="332" y="-223" font-family="Helvetica,sans-Serif" font-size="10.00">_x::call_impl</text>
</a>
</g>
</g>
<!-- Node2&#45;&gt;Node6 -->
<g id="edge5_Node000002_Node000006" class="edge">
<title>Node2&#45;&gt;Node6</title>
<g id="a_edge5_Node000002_Node000006"><a xlink:title=" ">
<path fill="none" stroke="#63b8ff" d="M424.67,-438.79C423.05,-437.6 421.49,-436.33 420,-435 361.35,-382.47 340.89,-283.69 335.03,-246.07"/>
<polygon fill="#63b8ff" stroke="#63b8ff" points="422.9,-441.8 433.23,-444.17 426.63,-435.88 422.9,-441.8"/>
</a>
</g>
</g>
<!-- Node4 -->
<g id="Node000004" class="node">
<title>Node4</title>
<g id="a_Node000004"><a xlink:href="../../d5/dd3/namespacelci.html#aa5e55e1f0fc77dae56773ee7fe89c096" target="_top" xlink:title=" ">
<polygon fill="white" stroke="#666666" points="104,-262.5 0,-262.5 0,-243.5 104,-243.5 104,-262.5"/>
<text text-anchor="middle" x="52" y="-250.5" font-family="Helvetica,sans-Serif" font-size="10.00">lci::g_runtime_init</text>
</a>
</g>
</g>
<!-- Node3&#45;&gt;Node4 -->
<g id="edge3_Node000003_Node000004" class="edge">
<title>Node3&#45;&gt;Node4</title>
<g id="a_edge3_Node000003_Node000004"><a xlink:title=" ">
<path fill="none" stroke="#63b8ff" d="M129.5,-240.8C121.13,-242.14 112.6,-243.5 104.43,-244.8"/>
<polygon fill="#63b8ff" stroke="#63b8ff" points="130.29,-244.22 139.61,-239.19 129.19,-237.31 130.29,-244.22"/>
</a>
</g>
</g>
<!-- Node5 -->
<g id="Node000005" class="node">
<title>Node5</title>
<g id="a_Node000005"><a xlink:href="../../d1/dcd/classlci_1_1g__runtime__init__x.html#aff7f73ac25ad8c385a446d96d4114ab2" target="_top" xlink:title=" ">
<polygon fill="white" stroke="#666666" points="104,-225 0,-225 0,-195 104,-195 104,-225"/>
<text text-anchor="start" x="8" y="-213" font-family="Helvetica,sans-Serif" font-size="10.00">lci::g_runtime_init</text>
<text text-anchor="middle" x="52" y="-202" font-family="Helvetica,sans-Serif" font-size="10.00">_x::operator()</text>
</a>
</g>
</g>
<!-- Node3&#45;&gt;Node5 -->
<g id="edge4_Node000003_Node000005" class="edge">
<title>Node3&#45;&gt;Node5</title>
<g id="a_edge4_Node000003_Node000005"><a xlink:title=" ">
<path fill="none" stroke="#63b8ff" d="M129.5,-221.64C121.13,-220.37 112.6,-219.07 104.43,-217.83"/>
<polygon fill="#63b8ff" stroke="#63b8ff" points="129.2,-225.14 139.61,-223.18 130.25,-218.22 129.2,-225.14"/>
</a>
</g>
</g>
<!-- Node6&#45;&gt;Node3 -->
<g id="edge6_Node000006_Node000003" class="edge">
<title>Node6&#45;&gt;Node3</title>
<g id="a_edge6_Node000006_Node000003"><a xlink:title=" ">
<path fill="none" stroke="#63b8ff" d="M269.5,-231C261.13,-231 252.6,-231 244.43,-231"/>
<polygon fill="#63b8ff" stroke="#63b8ff" points="269.61,-234.5 279.61,-231 269.61,-227.5 269.61,-234.5"/>
</a>
</g>
</g>
<!-- Node7&#45;&gt;Node3 -->
<g id="edge8_Node000007_Node000003" class="edge">
<title>Node7&#45;&gt;Node3</title>
<g id="a_edge8_Node000007_Node000003"><a xlink:title=" ">
<path fill="none" stroke="#63b8ff" d="M416.85,-385.53C373.72,-372.91 321.45,-353.6 280,-326 247.05,-304.06 218.07,-267.05 203.33,-246.29"/>
<polygon fill="#63b8ff" stroke="#63b8ff" points="415.89,-388.89 426.47,-388.28 417.81,-382.16 415.89,-388.89"/>
</a>
</g>
</g>
<!-- Node7&#45;&gt;Node6 -->
<g id="edge9_Node000007_Node000006" class="edge">
<title>Node7&#45;&gt;Node6</title>
<g id="a_edge9_Node000007_Node000006"><a xlink:title=" ">
<path fill="none" stroke="#63b8ff" d="M424.9,-378.77C423.21,-377.56 421.57,-376.31 420,-375 376.67,-338.94 349.22,-275.41 338.34,-246.32"/>
<polygon fill="#63b8ff" stroke="#63b8ff" points="423.39,-381.96 433.71,-384.36 427.15,-376.05 423.39,-381.96"/>
</a>
</g>
</g>
<!-- Node8&#45;&gt;Node3 -->
<g id="edge11_Node000008_Node000003" class="edge">
<title>Node8&#45;&gt;Node3</title>
<g id="a_edge11_Node000008_Node000003"><a xlink:title=" ">
<path fill="none" stroke="#63b8ff" d="M409.82,-336.25C368.95,-327.51 320.72,-314.27 280,-295 253.05,-282.25 226.02,-260.65 209.4,-246.11"/>
<polygon fill="#63b8ff" stroke="#63b8ff" points="409.26,-339.71 419.77,-338.33 410.69,-332.86 409.26,-339.71"/>
</a>
</g>
</g>
<!-- Node8&#45;&gt;Node6 -->
<g id="edge12_Node000008_Node000006" class="edge">
<title>Node8&#45;&gt;Node6</title>
<g id="a_edge12_Node000008_Node000006"><a xlink:title=" ">
<path fill="none" stroke="#63b8ff" d="M428.11,-331.61C425.31,-330.18 422.6,-328.64 420,-327 386.16,-305.6 357.32,-267.55 342.88,-246.35"/>
<polygon fill="#63b8ff" stroke="#63b8ff" points="426.72,-334.83 437.27,-335.86 429.67,-328.48 426.72,-334.83"/>
</a>
</g>
</g>
<!-- Node9&#45;&gt;Node3 -->
<g id="edge14_Node000009_Node000003" class="edge">
<title>Node9&#45;&gt;Node3</title>
<g id="a_edge14_Node000009_Node000003"><a xlink:title=" ">
<path fill="none" stroke="#63b8ff" d="M438.39,-298.8C393.78,-294.61 332.24,-286.47 280,-271 259.28,-264.86 237.17,-254.65 220.42,-246.07"/>
<polygon fill="#63b8ff" stroke="#63b8ff" points="438.22,-302.3 448.49,-299.71 438.84,-295.33 438.22,-302.3"/>
</a>
</g>
</g>
<!-- Node9&#45;&gt;Node6 -->
<g id="edge15_Node000009_Node000006" class="edge">
<title>Node9&#45;&gt;Node6</title>
<g id="a_edge15_Node000009_Node000006"><a xlink:title=" ">
<path fill="none" stroke="#63b8ff" d="M438.53,-286.04C432.21,-283.85 425.93,-281.5 420,-279 397.9,-269.69 374.15,-256.34 357.06,-246.08"/>
<polygon fill="#63b8ff" stroke="#63b8ff" points="437.87,-289.51 448.47,-289.34 440.08,-282.87 437.87,-289.51"/>
</a>
</g>
</g>
<!-- Node10&#45;&gt;Node3 -->
<g id="edge17_Node000010_Node000003" class="edge">
<title>Node10&#45;&gt;Node3</title>
<g id="a_edge17_Node000010_Node000003"><a xlink:title=" ">
<path fill="none" stroke="#63b8ff" d="M428.99,-259.79C385.79,-261.54 329.47,-261.7 280,-255 266.34,-253.15 251.79,-249.74 238.57,-246.05"/>
<polygon fill="#63b8ff" stroke="#63b8ff" points="429.28,-263.28 439.12,-259.34 428.97,-256.29 429.28,-263.28"/>
</a>
</g>
</g>
<!-- Node10&#45;&gt;Node6 -->
<g id="edge18_Node000010_Node000006" class="edge">
<title>Node10&#45;&gt;Node6</title>
<g id="a_edge18_Node000010_Node000006"><a xlink:title=" ">
<path fill="none" stroke="#63b8ff" d="M429.08,-244.85C414.03,-242.68 398.4,-240.43 384.23,-238.38"/>
<polygon fill="#63b8ff" stroke="#63b8ff" points="428.99,-248.37 439.39,-246.34 429.99,-241.44 428.99,-248.37"/>
</a>
</g>
</g>
<!-- Node11&#45;&gt;Node3 -->
<g id="edge20_Node000011_Node000003" class="edge">
<title>Node11&#45;&gt;Node3</title>
<g id="a_edge20_Node000011_Node000003"><a xlink:title=" ">
<path fill="none" stroke="#63b8ff" d="M436.91,-202.55C392.83,-200.5 332.55,-199.88 280,-207 266.34,-208.85 251.79,-212.26 238.57,-215.95"/>
<polygon fill="#63b8ff" stroke="#63b8ff" points="436.74,-206.05 446.9,-203.06 437.09,-199.06 436.74,-206.05"/>
</a>
</g>
</g>
<!-- Node11&#45;&gt;Node6 -->
<g id="edge21_Node000011_Node000006" class="edge">
<title>Node11&#45;&gt;Node6</title>
<g id="a_edge21_Node000011_Node000006"><a xlink:title=" ">
<path fill="none" stroke="#63b8ff" d="M436.77,-216.04C419.43,-218.54 400.81,-221.23 384.2,-223.62"/>
<polygon fill="#63b8ff" stroke="#63b8ff" points="437.42,-219.48 446.82,-214.59 436.42,-212.56 437.42,-219.48"/>
</a>
</g>
</g>
<!-- Node12&#45;&gt;Node3 -->
<g id="edge23_Node000012_Node000003" class="edge">
<title>Node12&#45;&gt;Node3</title>
<g id="a_edge23_Node000012_Node000003"><a xlink:title=" ">
<path fill="none" stroke="#63b8ff" d="M438.23,-166.24C393.79,-172.31 332.53,-182.35 280,-197 262.04,-202.01 242.66,-209.38 226.76,-215.98"/>
<polygon fill="#63b8ff" stroke="#63b8ff" points="438.84,-169.69 448.29,-164.9 437.92,-162.76 438.84,-169.69"/>
</a>
</g>
</g>
<!-- Node12&#45;&gt;Node6 -->
<g id="edge24_Node000012_Node000006" class="edge">
<title>Node12&#45;&gt;Node6</title>
<g id="a_edge24_Node000012_Node000006"><a xlink:title=" ">
<path fill="none" stroke="#63b8ff" d="M438.53,-175.96C432.21,-178.15 425.93,-180.5 420,-183 397.9,-192.31 374.15,-205.66 357.06,-215.92"/>
<polygon fill="#63b8ff" stroke="#63b8ff" points="440.08,-179.13 448.47,-172.66 437.87,-172.49 440.08,-179.13"/>
</a>
</g>
</g>
<!-- Node13&#45;&gt;Node3 -->
<g id="edge26_Node000013_Node000003" class="edge">
<title>Node13&#45;&gt;Node3</title>
<g id="a_edge26_Node000013_Node000003"><a xlink:title=" ">
<path fill="none" stroke="#63b8ff" d="M414.46,-126.59C372.74,-136.04 322.45,-150.17 280,-170 253.93,-182.18 227.32,-202.17 210.52,-215.92"/>
<polygon fill="#63b8ff" stroke="#63b8ff" points="415.32,-129.99 424.33,-124.41 413.81,-123.15 415.32,-129.99"/>
</a>
</g>
</g>
<!-- Node13&#45;&gt;Node6 -->
<g id="edge27_Node000013_Node000006" class="edge">
<title>Node13&#45;&gt;Node6</title>
<g id="a_edge27_Node000013_Node000006"><a xlink:title=" ">
<path fill="none" stroke="#63b8ff" d="M428.11,-130.39C425.31,-131.82 422.6,-133.36 420,-135 386.16,-156.4 357.32,-194.45 342.88,-215.65"/>
<polygon fill="#63b8ff" stroke="#63b8ff" points="429.67,-133.52 437.27,-126.14 426.72,-127.17 429.67,-133.52"/>
</a>
</g>
</g>
<!-- Node14&#45;&gt;Node3 -->
<g id="edge29_Node000014_Node000003" class="edge">
<title>Node14&#45;&gt;Node3</title>
<g id="a_edge29_Node000014_Node000003"><a xlink:title=" ">
<path fill="none" stroke="#63b8ff" d="M438.21,-72.51C391.86,-81.85 328.2,-99.45 280,-131 245.34,-153.69 216.41,-193.91 202.29,-215.79"/>
<polygon fill="#63b8ff" stroke="#63b8ff" points="438.97,-75.93 448.12,-70.59 437.64,-69.06 438.97,-75.93"/>
</a>
</g>
</g>
<!-- Node14&#45;&gt;Node6 -->
<g id="edge30_Node000014_Node000006" class="edge">
<title>Node14&#45;&gt;Node6</title>
<g id="a_edge30_Node000014_Node000006"><a xlink:title=" ">
<path fill="none" stroke="#63b8ff" d="M439.05,-75.99C432.24,-78.94 425.72,-82.56 420,-87 375.24,-121.75 348.36,-186.53 337.96,-215.87"/>
<polygon fill="#63b8ff" stroke="#63b8ff" points="440.38,-79.23 448.45,-72.36 437.86,-72.7 440.38,-79.23"/>
</a>
</g>
</g>
<!-- Node15&#45;&gt;Node3 -->
<g id="edge32_Node000015_Node000003" class="edge">
<title>Node15&#45;&gt;Node3</title>
<g id="a_edge32_Node000015_Node000003"><a xlink:title=" ">
<path fill="none" stroke="#63b8ff" d="M438.26,-21.43C390.81,-29.1 325.67,-45.8 280,-82 234.22,-118.28 207.7,-185.74 197.67,-215.83"/>
<polygon fill="#63b8ff" stroke="#63b8ff" points="439.05,-24.85 448.41,-19.88 437.99,-17.93 439.05,-24.85"/>
</a>
</g>
</g>
<!-- Node15&#45;&gt;Node6 -->
<g id="edge33_Node000015_Node000006" class="edge">
<title>Node15&#45;&gt;Node6</title>
<g id="a_edge33_Node000015_Node000006"><a xlink:title=" ">
<path fill="none" stroke="#63b8ff" d="M438.8,-27.23C431.98,-30.31 425.52,-34.17 420,-39 364.25,-87.82 342.26,-179.54 335.51,-215.75"/>
<polygon fill="#63b8ff" stroke="#63b8ff" points="440.25,-30.42 448.26,-23.49 437.67,-23.91 440.25,-30.42"/>
</a>
</g>
</g>
</g>
</svg>
