<?xml version="1.0" encoding="UTF-8" standalone="no"?>
<!DOCTYPE svg PUBLIC "-//W3C//DTD SVG 1.1//EN"
 "http://www.w3.org/Graphics/SVG/1.1/DTD/svg11.dtd">
<!-- Generated by graphviz version 2.43.0 (0)
 -->
<!-- Title: lci::g_runtime_init_x::call_impl Pages: 1 -->
<svg width="461pt" height="434pt"
 viewBox="0.00 0.00 461.00 434.00" xmlns="http://www.w3.org/2000/svg" xmlns:xlink="http://www.w3.org/1999/xlink">
<g id="graph0" class="graph" transform="scale(1 1) rotate(0) translate(4 430)">
<title>lci::g_runtime_init_x::call_impl</title>
<!-- Node1 -->
<g id="Node000001" class="node">
<title>Node1</title>
<g id="a_Node000001"><a xlink:title=" ">
<polygon fill="#999999" stroke="#666666" points="104,-222 0,-222 0,-192 104,-192 104,-222"/>
<text text-anchor="start" x="8" y="-210" font-family="Helvetica,sans-Serif" font-size="10.00">lci::g_runtime_init</text>
<text text-anchor="middle" x="52" y="-199" font-family="Helvetica,sans-Serif" font-size="10.00">_x::call_impl</text>
</a>
</g>
</g>
<!-- Node2 -->
<g id="Node000002" class="node">
<title>Node2</title>
<g id="a_Node000002"><a xlink:href="../../d1/dcd/classlci_1_1g__runtime__init__x.html#ad72fab3463ebf56743a418966751b9cc" target="_top" xlink:title=" ">
<polygon fill="white" stroke="#666666" points="287.5,-426 153.5,-426 153.5,-396 287.5,-396 287.5,-426"/>
<text text-anchor="start" x="161.5" y="-414" font-family="Helvetica,sans-Serif" font-size="10.00">lci::g_runtime_init</text>
<text text-anchor="middle" x="220.5" y="-403" font-family="Helvetica,sans-Serif" font-size="10.00">_x::alloc_default_device</text>
</a>
</g>
</g>
<!-- Node1&#45;&gt;Node2 -->
<g id="edge1_Node000001_Node000002" class="edge">
<title>Node1&#45;&gt;Node2</title>
<g id="a_edge1_Node000001_Node000002"><a xlink:title=" ">
<path fill="none" stroke="#63b8ff" d="M55.98,-222.08C63.57,-256.57 86.95,-341.69 140,-387 141.52,-388.3 143.11,-389.53 144.76,-390.69"/>
<polygon fill="#63b8ff" stroke="#63b8ff" points="143.05,-393.75 153.41,-395.97 146.69,-387.77 143.05,-393.75"/>
</a>
</g>
</g>
<!-- Node4 -->
<g id="Node000004" class="node">
<title>Node4</title>
<g id="a_Node000004"><a xlink:href="../../d1/dcd/classlci_1_1g__runtime__init__x.html#a918d1c83be5991b72b5a1aee076e0b29" target="_top" xlink:title=" ">
<polygon fill="white" stroke="#666666" points="294.5,-377.5 146.5,-377.5 146.5,-336.5 294.5,-336.5 294.5,-377.5"/>
<text text-anchor="start" x="154.5" y="-365.5" font-family="Helvetica,sans-Serif" font-size="10.00">lci::g_runtime_init</text>
<text text-anchor="start" x="154.5" y="-354.5" font-family="Helvetica,sans-Serif" font-size="10.00">_x::alloc_default_matching</text>
<text text-anchor="middle" x="220.5" y="-343.5" font-family="Helvetica,sans-Serif" font-size="10.00">_engine</text>
</a>
</g>
</g>
<!-- Node1&#45;&gt;Node4 -->
<g id="edge3_Node000001_Node000004" class="edge">
<title>Node1&#45;&gt;Node4</title>
<g id="a_edge3_Node000001_Node000004"><a xlink:title=" ">
<path fill="none" stroke="#63b8ff" d="M60.22,-222.09C72.96,-247.23 101.76,-297.8 140,-327 141.86,-328.42 143.79,-329.78 145.78,-331.08"/>
<polygon fill="#63b8ff" stroke="#63b8ff" points="144.44,-334.35 154.83,-336.4 147.99,-328.31 144.44,-334.35"/>
</a>
</g>
</g>
<!-- Node5 -->
<g id="Node000005" class="node">
<title>Node5</title>
<g id="a_Node000005"><a xlink:href="../../d1/dcd/classlci_1_1g__runtime__init__x.html#a17f340060d3d0c0d0776d4c658110b9a" target="_top" xlink:title=" ">
<polygon fill="white" stroke="#666666" points="301,-318 140,-318 140,-288 301,-288 301,-318"/>
<text text-anchor="start" x="148" y="-306" font-family="Helvetica,sans-Serif" font-size="10.00">lci::g_runtime_init</text>
<text text-anchor="middle" x="220.5" y="-295" font-family="Helvetica,sans-Serif" font-size="10.00">_x::alloc_default_packet_pool</text>
</a>
</g>
</g>
<!-- Node1&#45;&gt;Node5 -->
<g id="edge5_Node000001_Node000005" class="edge">
<title>Node1&#45;&gt;Node5</title>
<g id="a_edge5_Node000001_Node000005"><a xlink:title=" ">
<path fill="none" stroke="#63b8ff" d="M67.36,-222.03C83.59,-238.22 111.49,-263.71 140,-279 143.31,-280.77 146.76,-282.43 150.31,-283.99"/>
<polygon fill="#63b8ff" stroke="#63b8ff" points="149.25,-287.34 159.83,-287.85 151.88,-280.85 149.25,-287.34"/>
</a>
</g>
</g>
<!-- Node6 -->
<g id="Node000006" class="node">
<title>Node6</title>
<g id="a_Node000006"><a xlink:href="../../d1/dcd/classlci_1_1g__runtime__init__x.html#a147824472fe6dc5645fd75e92ddfe273" target="_top" xlink:title=" ">
<polygon fill="white" stroke="#666666" points="281.5,-270 159.5,-270 159.5,-240 281.5,-240 281.5,-270"/>
<text text-anchor="start" x="167.5" y="-258" font-family="Helvetica,sans-Serif" font-size="10.00">lci::g_runtime_init</text>
<text text-anchor="middle" x="220.5" y="-247" font-family="Helvetica,sans-Serif" font-size="10.00">_x::imm_nbits_rcomp</text>
</a>
</g>
</g>
<!-- Node1&#45;&gt;Node6 -->
<g id="edge7_Node000001_Node000006" class="edge">
<title>Node1&#45;&gt;Node6</title>
<g id="a_edge7_Node000001_Node000006"><a xlink:title=" ">
<path fill="none" stroke="#63b8ff" d="M104.31,-221.79C121.01,-226.61 139.72,-232 157.13,-237.02"/>
<polygon fill="#63b8ff" stroke="#63b8ff" points="156.63,-240.52 167.21,-239.92 158.57,-233.79 156.63,-240.52"/>
</a>
</g>
</g>
<!-- Node7 -->
<g id="Node000007" class="node">
<title>Node7</title>
<g id="a_Node000007"><a xlink:href="../../d1/dcd/classlci_1_1g__runtime__init__x.html#a1972dee68f2838da07aba5b464f732dd" target="_top" xlink:title=" ">
<polygon fill="white" stroke="#666666" points="274,-222 167,-222 167,-192 274,-192 274,-222"/>
<text text-anchor="start" x="175" y="-210" font-family="Helvetica,sans-Serif" font-size="10.00">lci::g_runtime_init</text>
<text text-anchor="middle" x="220.5" y="-199" font-family="Helvetica,sans-Serif" font-size="10.00">_x::imm_nbits_tag</text>
</a>
</g>
</g>
<!-- Node1&#45;&gt;Node7 -->
<g id="edge9_Node000001_Node000007" class="edge">
<title>Node1&#45;&gt;Node7</title>
<g id="a_edge9_Node000001_Node000007"><a xlink:title=" ">
<path fill="none" stroke="#63b8ff" d="M104.31,-207C120.93,-207 139.54,-207 156.88,-207"/>
<polygon fill="#63b8ff" stroke="#63b8ff" points="156.92,-210.5 166.92,-207 156.92,-203.5 156.92,-210.5"/>
</a>
</g>
</g>
<!-- Node8 -->
<g id="Node000008" class="node">
<title>Node8</title>
<g id="a_Node000008"><a xlink:href="../../d1/dcd/classlci_1_1g__runtime__init__x.html#a4133d17e093270c82a01e72c05cdcd59" target="_top" xlink:title=" ">
<polygon fill="white" stroke="#666666" points="272.5,-174 168.5,-174 168.5,-144 272.5,-144 272.5,-174"/>
<text text-anchor="start" x="176.5" y="-162" font-family="Helvetica,sans-Serif" font-size="10.00">lci::g_runtime_init</text>
<text text-anchor="middle" x="220.5" y="-151" font-family="Helvetica,sans-Serif" font-size="10.00">_x::name</text>
</a>
</g>
</g>
<!-- Node1&#45;&gt;Node8 -->
<g id="edge11_Node000001_Node000008" class="edge">
<title>Node1&#45;&gt;Node8</title>
<g id="a_edge11_Node000001_Node000008"><a xlink:title=" ">
<path fill="none" stroke="#63b8ff" d="M104.31,-192.21C121.49,-187.26 140.8,-181.69 158.63,-176.55"/>
<polygon fill="#63b8ff" stroke="#63b8ff" points="159.72,-179.88 168.36,-173.74 157.78,-173.15 159.72,-179.88"/>
</a>
</g>
</g>
<!-- Node9 -->
<g id="Node000009" class="node">
<title>Node9</title>
<g id="a_Node000009"><a xlink:href="../../d1/dcd/classlci_1_1g__runtime__init__x.html#af2f7a0791a72ac3c8b8546c354ed7081" target="_top" xlink:title=" ">
<polygon fill="white" stroke="#666666" points="296.5,-126 144.5,-126 144.5,-96 296.5,-96 296.5,-126"/>
<text text-anchor="start" x="152.5" y="-114" font-family="Helvetica,sans-Serif" font-size="10.00">lci::g_runtime_init</text>
<text text-anchor="middle" x="220.5" y="-103" font-family="Helvetica,sans-Serif" font-size="10.00">_x::packet_return_threshold</text>
</a>
</g>
</g>
<!-- Node1&#45;&gt;Node9 -->
<g id="edge13_Node000001_Node000009" class="edge">
<title>Node1&#45;&gt;Node9</title>
<g id="a_edge13_Node000001_Node000009"><a xlink:title=" ">
<path fill="none" stroke="#63b8ff" d="M67.36,-191.97C83.59,-175.78 111.49,-150.29 140,-135 143.31,-133.23 146.76,-131.57 150.31,-130.01"/>
<polygon fill="#63b8ff" stroke="#63b8ff" points="151.88,-133.15 159.83,-126.15 149.25,-126.66 151.88,-133.15"/>
</a>
</g>
</g>
<!-- Node10 -->
<g id="Node000010" class="node">
<title>Node10</title>
<g id="a_Node000010"><a xlink:href="../../d1/dcd/classlci_1_1g__runtime__init__x.html#affea33547edd45282533e817747f4b66" target="_top" xlink:title=" ">
<polygon fill="white" stroke="#666666" points="272.5,-78 168.5,-78 168.5,-48 272.5,-48 272.5,-78"/>
<text text-anchor="start" x="176.5" y="-66" font-family="Helvetica,sans-Serif" font-size="10.00">lci::g_runtime_init</text>
<text text-anchor="middle" x="220.5" y="-55" font-family="Helvetica,sans-Serif" font-size="10.00">_x::rdv_protocol</text>
</a>
</g>
</g>
<!-- Node1&#45;&gt;Node10 -->
<g id="edge15_Node000001_Node000010" class="edge">
<title>Node1&#45;&gt;Node10</title>
<g id="a_edge15_Node000001_Node000010"><a xlink:title=" ">
<path fill="none" stroke="#63b8ff" d="M60.01,-191.63C72.44,-166.07 100.79,-114.89 140,-87 145.68,-82.96 152.06,-79.59 158.66,-76.77"/>
<polygon fill="#63b8ff" stroke="#63b8ff" points="160.34,-79.88 168.44,-73.05 157.85,-73.34 160.34,-79.88"/>
</a>
</g>
</g>
<!-- Node11 -->
<g id="Node000011" class="node">
<title>Node11</title>
<g id="a_Node000011"><a xlink:href="../../d1/dcd/classlci_1_1g__runtime__init__x.html#a71bbc1bd89ec75a90230d026b303aa91" target="_top" xlink:title=" ">
<polygon fill="white" stroke="#666666" points="272.5,-30 168.5,-30 168.5,0 272.5,0 272.5,-30"/>
<text text-anchor="start" x="176.5" y="-18" font-family="Helvetica,sans-Serif" font-size="10.00">lci::g_runtime_init</text>
<text text-anchor="middle" x="220.5" y="-7" font-family="Helvetica,sans-Serif" font-size="10.00">_x::user_context</text>
</a>
</g>
</g>
<!-- Node1&#45;&gt;Node11 -->
<g id="edge17_Node000001_Node000011" class="edge">
<title>Node1&#45;&gt;Node11</title>
<g id="a_edge17_Node000001_Node000011"><a xlink:title=" ">
<path fill="none" stroke="#63b8ff" d="M56.54,-191.93C65.04,-159.11 89.72,-80.76 140,-39 145.57,-34.38 152.01,-30.64 158.76,-27.63"/>
<polygon fill="#63b8ff" stroke="#63b8ff" points="160.09,-30.87 168.12,-23.95 157.53,-24.35 160.09,-30.87"/>
</a>
</g>
</g>
<!-- Node3 -->
<g id="Node000003" class="node">
<title>Node3</title>
<g id="a_Node000003"><a xlink:href="../../d1/dcd/classlci_1_1g__runtime__init__x.html#ac50115eace47c7d8766aa04214978bc1" target="_top" xlink:title=" ">
<polygon fill="white" stroke="#666666" points="453,-222 337,-222 337,-192 453,-192 453,-222"/>
<text text-anchor="start" x="345" y="-210" font-family="Helvetica,sans-Serif" font-size="10.00">lci::g_runtime_init</text>
<text text-anchor="middle" x="395" y="-199" font-family="Helvetica,sans-Serif" font-size="10.00">_x::g_runtime_init_x</text>
</a>
</g>
</g>
<!-- Node2&#45;&gt;Node3 -->
<g id="edge2_Node000002_Node000003" class="edge">
<title>Node2&#45;&gt;Node3</title>
<g id="a_edge2_Node000002_Node000003"><a xlink:title=" ">
<path fill="none" stroke="#63b8ff" d="M287.49,-395.85C292.32,-393.34 296.9,-390.41 301,-387 350.7,-345.69 376.96,-270.96 387.83,-232.06"/>
<polygon fill="#63b8ff" stroke="#63b8ff" points="391.29,-232.66 390.49,-222.1 384.53,-230.85 391.29,-232.66"/>
</a>
</g>
</g>
<!-- Node4&#45;&gt;Node3 -->
<g id="edge4_Node000004_Node000003" class="edge">
<title>Node4&#45;&gt;Node3</title>
<g id="a_edge4_Node000004_Node000003"><a xlink:title=" ">
<path fill="none" stroke="#63b8ff" d="M285.65,-336.46C291.05,-333.65 296.25,-330.51 301,-327 336.47,-300.81 365.29,-257.61 381.01,-230.81"/>
<polygon fill="#63b8ff" stroke="#63b8ff" points="384.08,-232.49 386.01,-222.07 378.01,-229.01 384.08,-232.49"/>
</a>
</g>
</g>
<!-- Node5&#45;&gt;Node3 -->
<g id="edge6_Node000005_Node000003" class="edge">
<title>Node5&#45;&gt;Node3</title>
<g id="a_edge6_Node000005_Node000003"><a xlink:title=" ">
<path fill="none" stroke="#63b8ff" d="M280.22,-287.96C287.38,-285.35 294.46,-282.37 301,-279 326.81,-265.69 352.65,-244.95 370.51,-229.14"/>
<polygon fill="#63b8ff" stroke="#63b8ff" points="373.05,-231.56 378.13,-222.27 368.36,-226.37 373.05,-231.56"/>
</a>
</g>
</g>
<!-- Node6&#45;&gt;Node3 -->
<g id="edge8_Node000006_Node000003" class="edge">
<title>Node6&#45;&gt;Node3</title>
<g id="a_edge8_Node000006_Node000003"><a xlink:title=" ">
<path fill="none" stroke="#63b8ff" d="M275.61,-239.94C292.95,-235.12 312.31,-229.73 330.27,-224.73"/>
<polygon fill="#63b8ff" stroke="#63b8ff" points="331.39,-228.06 340.09,-222 329.51,-221.31 331.39,-228.06"/>
</a>
</g>
</g>
<!-- Node7&#45;&gt;Node3 -->
<g id="edge10_Node000007_Node000003" class="edge">
<title>Node7&#45;&gt;Node3</title>
<g id="a_edge10_Node000007_Node000003"><a xlink:title=" ">
<path fill="none" stroke="#63b8ff" d="M274.19,-207C290.76,-207 309.28,-207 326.71,-207"/>
<polygon fill="#63b8ff" stroke="#63b8ff" points="326.83,-210.5 336.83,-207 326.83,-203.5 326.83,-210.5"/>
</a>
</g>
</g>
<!-- Node8&#45;&gt;Node3 -->
<g id="edge12_Node000008_Node000003" class="edge">
<title>Node8&#45;&gt;Node3</title>
<g id="a_edge12_Node000008_Node000003"><a xlink:title=" ">
<path fill="none" stroke="#63b8ff" d="M272.79,-173.27C290.8,-178.28 311.27,-183.98 330.18,-189.24"/>
<polygon fill="#63b8ff" stroke="#63b8ff" points="329.34,-192.64 339.91,-191.95 331.22,-185.9 329.34,-192.64"/>
</a>
</g>
</g>
<!-- Node9&#45;&gt;Node3 -->
<g id="edge14_Node000009_Node000003" class="edge">
<title>Node9&#45;&gt;Node3</title>
<g id="a_edge14_Node000009_Node000003"><a xlink:title=" ">
<path fill="none" stroke="#63b8ff" d="M280.22,-126.04C287.38,-128.65 294.46,-131.63 301,-135 326.81,-148.31 352.65,-169.05 370.51,-184.86"/>
<polygon fill="#63b8ff" stroke="#63b8ff" points="368.36,-187.63 378.13,-191.73 373.05,-182.44 368.36,-187.63"/>
</a>
</g>
</g>
<!-- Node10&#45;&gt;Node3 -->
<g id="edge16_Node000010_Node000003" class="edge">
<title>Node10&#45;&gt;Node3</title>
<g id="a_edge16_Node000010_Node000003"><a xlink:title=" ">
<path fill="none" stroke="#63b8ff" d="M272.83,-73.4C282.69,-76.77 292.57,-81.2 301,-87 337.33,-111.98 365.89,-155.55 381.32,-182.75"/>
<polygon fill="#63b8ff" stroke="#63b8ff" points="378.33,-184.57 386.23,-191.63 384.46,-181.19 378.33,-184.57"/>
</a>
</g>
</g>
<!-- Node11&#45;&gt;Node3 -->
<g id="edge18_Node000011_Node000003" class="edge">
<title>Node11&#45;&gt;Node3</title>
<g id="a_edge18_Node000011_Node000003"><a xlink:title=" ">
<path fill="none" stroke="#63b8ff" d="M272.74,-24.12C282.83,-27.6 292.81,-32.39 301,-39 347.98,-76.93 375.04,-145.28 386.84,-182.02"/>
<polygon fill="#63b8ff" stroke="#63b8ff" points="383.6,-183.4 389.9,-191.92 390.29,-181.33 383.6,-183.4"/>
</a>
</g>
</g>
</g>
</svg>
