<?xml version="1.0" encoding="UTF-8" standalone="no"?>
<!DOCTYPE svg PUBLIC "-//W3C//DTD SVG 1.1//EN"
 "http://www.w3.org/Graphics/SVG/1.1/DTD/svg11.dtd">
<!-- Generated by graphviz version 2.43.0 (0)
 -->
<!-- Title: lci::g_runtime_init_x::g_runtime_init_x Pages: 1 -->
<svg width="741pt" height="386pt"
 viewBox="0.00 0.00 741.00 386.00" xmlns="http://www.w3.org/2000/svg" xmlns:xlink="http://www.w3.org/1999/xlink">
<g id="graph0" class="graph" transform="scale(1 1) rotate(0) translate(4 382)">
<title>lci::g_runtime_init_x::g_runtime_init_x</title>
<!-- Node1 -->
<g id="Node000001" class="node">
<title>Node1</title>
<g id="a_Node000001"><a xlink:title=" ">
<polygon fill="#999999" stroke="#666666" points="733,-198 617,-198 617,-168 733,-168 733,-198"/>
<text text-anchor="start" x="625" y="-186" font-family="Helvetica,sans-Serif" font-size="10.00">lci::g_runtime_init</text>
<text text-anchor="middle" x="675" y="-175" font-family="Helvetica,sans-Serif" font-size="10.00">_x::g_runtime_init_x</text>
</a>
</g>
</g>
<!-- Node2 -->
<g id="Node000002" class="node">
<title>Node2</title>
<g id="a_Node000002"><a xlink:href="../../d1/dcd/classlci_1_1g__runtime__init__x.html#ad72fab3463ebf56743a418966751b9cc" target="_top" xlink:title=" ">
<polygon fill="white" stroke="#666666" points="567.5,-378 433.5,-378 433.5,-348 567.5,-348 567.5,-378"/>
<text text-anchor="start" x="441.5" y="-366" font-family="Helvetica,sans-Serif" font-size="10.00">lci::g_runtime_init</text>
<text text-anchor="middle" x="500.5" y="-355" font-family="Helvetica,sans-Serif" font-size="10.00">_x::alloc_default_device</text>
</a>
</g>
</g>
<!-- Node1&#45;&gt;Node2 -->
<g id="edge1_Node000001_Node000002" class="edge">
<title>Node1&#45;&gt;Node2</title>
<g id="a_edge1_Node000001_Node000002"><a xlink:title=" ">
<path fill="none" stroke="#63b8ff" d="M665.6,-208.22C652.8,-242.79 625.13,-304.52 581,-339 576.57,-342.46 571.64,-345.43 566.48,-347.96"/>
<polygon fill="#63b8ff" stroke="#63b8ff" points="669.03,-209.02 669.09,-198.42 662.44,-206.66 669.03,-209.02"/>
</a>
</g>
</g>
<!-- Node7 -->
<g id="Node000007" class="node">
<title>Node7</title>
<g id="a_Node000007"><a xlink:href="../../d1/dcd/classlci_1_1g__runtime__init__x.html#a918d1c83be5991b72b5a1aee076e0b29" target="_top" xlink:title=" ">
<polygon fill="white" stroke="#666666" points="574.5,-329.5 426.5,-329.5 426.5,-288.5 574.5,-288.5 574.5,-329.5"/>
<text text-anchor="start" x="434.5" y="-317.5" font-family="Helvetica,sans-Serif" font-size="10.00">lci::g_runtime_init</text>
<text text-anchor="start" x="434.5" y="-306.5" font-family="Helvetica,sans-Serif" font-size="10.00">_x::alloc_default_matching</text>
<text text-anchor="middle" x="500.5" y="-295.5" font-family="Helvetica,sans-Serif" font-size="10.00">_engine</text>
</a>
</g>
</g>
<!-- Node1&#45;&gt;Node7 -->
<g id="edge7_Node000001_Node000007" class="edge">
<title>Node1&#45;&gt;Node7</title>
<g id="a_edge7_Node000001_Node000007"><a xlink:title=" ">
<path fill="none" stroke="#63b8ff" d="M656.45,-206.3C639.27,-227.72 611.31,-259.1 581,-279 575.7,-282.48 569.93,-285.64 564.01,-288.49"/>
<polygon fill="#63b8ff" stroke="#63b8ff" points="659.28,-208.37 662.71,-198.34 653.77,-204.04 659.28,-208.37"/>
</a>
</g>
</g>
<!-- Node8 -->
<g id="Node000008" class="node">
<title>Node8</title>
<g id="a_Node000008"><a xlink:href="../../d1/dcd/classlci_1_1g__runtime__init__x.html#a17f340060d3d0c0d0776d4c658110b9a" target="_top" xlink:title=" ">
<polygon fill="white" stroke="#666666" points="581,-270 420,-270 420,-240 581,-240 581,-270"/>
<text text-anchor="start" x="428" y="-258" font-family="Helvetica,sans-Serif" font-size="10.00">lci::g_runtime_init</text>
<text text-anchor="middle" x="500.5" y="-247" font-family="Helvetica,sans-Serif" font-size="10.00">_x::alloc_default_packet_pool</text>
</a>
</g>
</g>
<!-- Node1&#45;&gt;Node8 -->
<g id="edge10_Node000001_Node000008" class="edge">
<title>Node1&#45;&gt;Node8</title>
<g id="a_edge10_Node000001_Node000008"><a xlink:title=" ">
<path fill="none" stroke="#63b8ff" d="M638.7,-203.16C621.62,-212.41 600.61,-223.06 581,-231 573.12,-234.19 564.64,-237.19 556.27,-239.91"/>
<polygon fill="#63b8ff" stroke="#63b8ff" points="640.67,-206.07 647.75,-198.19 637.3,-199.94 640.67,-206.07"/>
</a>
</g>
</g>
<!-- Node9 -->
<g id="Node000009" class="node">
<title>Node9</title>
<g id="a_Node000009"><a xlink:href="../../d1/dcd/classlci_1_1g__runtime__init__x.html#a147824472fe6dc5645fd75e92ddfe273" target="_top" xlink:title=" ">
<polygon fill="white" stroke="#666666" points="561.5,-222 439.5,-222 439.5,-192 561.5,-192 561.5,-222"/>
<text text-anchor="start" x="447.5" y="-210" font-family="Helvetica,sans-Serif" font-size="10.00">lci::g_runtime_init</text>
<text text-anchor="middle" x="500.5" y="-199" font-family="Helvetica,sans-Serif" font-size="10.00">_x::imm_nbits_rcomp</text>
</a>
</g>
</g>
<!-- Node1&#45;&gt;Node9 -->
<g id="edge13_Node000001_Node000009" class="edge">
<title>Node1&#45;&gt;Node9</title>
<g id="a_edge13_Node000001_Node000009"><a xlink:title=" ">
<path fill="none" stroke="#63b8ff" d="M606.47,-192.4C591.68,-194.45 576.12,-196.62 561.64,-198.63"/>
<polygon fill="#63b8ff" stroke="#63b8ff" points="607.14,-195.84 616.56,-190.99 606.17,-188.9 607.14,-195.84"/>
</a>
</g>
</g>
<!-- Node10 -->
<g id="Node000010" class="node">
<title>Node10</title>
<g id="a_Node000010"><a xlink:href="../../d1/dcd/classlci_1_1g__runtime__init__x.html#a1972dee68f2838da07aba5b464f732dd" target="_top" xlink:title=" ">
<polygon fill="white" stroke="#666666" points="554,-174 447,-174 447,-144 554,-144 554,-174"/>
<text text-anchor="start" x="455" y="-162" font-family="Helvetica,sans-Serif" font-size="10.00">lci::g_runtime_init</text>
<text text-anchor="middle" x="500.5" y="-151" font-family="Helvetica,sans-Serif" font-size="10.00">_x::imm_nbits_tag</text>
</a>
</g>
</g>
<!-- Node1&#45;&gt;Node10 -->
<g id="edge16_Node000001_Node000010" class="edge">
<title>Node1&#45;&gt;Node10</title>
<g id="a_edge16_Node000001_Node000010"><a xlink:title=" ">
<path fill="none" stroke="#63b8ff" d="M606.45,-173.6C589.04,-171.18 570.56,-168.61 554.04,-166.31"/>
<polygon fill="#63b8ff" stroke="#63b8ff" points="606.17,-177.1 616.56,-175.01 607.14,-170.16 606.17,-177.1"/>
</a>
</g>
</g>
<!-- Node11 -->
<g id="Node000011" class="node">
<title>Node11</title>
<g id="a_Node000011"><a xlink:href="../../d1/dcd/classlci_1_1g__runtime__init__x.html#a4133d17e093270c82a01e72c05cdcd59" target="_top" xlink:title=" ">
<polygon fill="white" stroke="#666666" points="552.5,-126 448.5,-126 448.5,-96 552.5,-96 552.5,-126"/>
<text text-anchor="start" x="456.5" y="-114" font-family="Helvetica,sans-Serif" font-size="10.00">lci::g_runtime_init</text>
<text text-anchor="middle" x="500.5" y="-103" font-family="Helvetica,sans-Serif" font-size="10.00">_x::name</text>
</a>
</g>
</g>
<!-- Node1&#45;&gt;Node11 -->
<g id="edge19_Node000001_Node000011" class="edge">
<title>Node1&#45;&gt;Node11</title>
<g id="a_edge19_Node000001_Node000011"><a xlink:title=" ">
<path fill="none" stroke="#63b8ff" d="M638.7,-162.84C621.62,-153.59 600.61,-142.94 581,-135 572.05,-131.37 562.33,-128 552.87,-125"/>
<polygon fill="#63b8ff" stroke="#63b8ff" points="637.3,-166.06 647.75,-167.81 640.67,-159.93 637.3,-166.06"/>
</a>
</g>
</g>
<!-- Node12 -->
<g id="Node000012" class="node">
<title>Node12</title>
<g id="a_Node000012"><a xlink:href="../../d1/dcd/classlci_1_1g__runtime__init__x.html#af2f7a0791a72ac3c8b8546c354ed7081" target="_top" xlink:title=" ">
<polygon fill="white" stroke="#666666" points="576.5,-78 424.5,-78 424.5,-48 576.5,-48 576.5,-78"/>
<text text-anchor="start" x="432.5" y="-66" font-family="Helvetica,sans-Serif" font-size="10.00">lci::g_runtime_init</text>
<text text-anchor="middle" x="500.5" y="-55" font-family="Helvetica,sans-Serif" font-size="10.00">_x::packet_return_threshold</text>
</a>
</g>
</g>
<!-- Node1&#45;&gt;Node12 -->
<g id="edge22_Node000001_Node000012" class="edge">
<title>Node1&#45;&gt;Node12</title>
<g id="a_edge22_Node000001_Node000012"><a xlink:title=" ">
<path fill="none" stroke="#63b8ff" d="M657.04,-159.6C640.09,-137.83 612.14,-105.97 581,-87 575.46,-83.62 569.41,-80.69 563.2,-78.16"/>
<polygon fill="#63b8ff" stroke="#63b8ff" points="654.34,-161.84 663.18,-167.68 659.92,-157.6 654.34,-161.84"/>
</a>
</g>
</g>
<!-- Node13 -->
<g id="Node000013" class="node">
<title>Node13</title>
<g id="a_Node000013"><a xlink:href="../../d1/dcd/classlci_1_1g__runtime__init__x.html#a71bbc1bd89ec75a90230d026b303aa91" target="_top" xlink:title=" ">
<polygon fill="white" stroke="#666666" points="552.5,-30 448.5,-30 448.5,0 552.5,0 552.5,-30"/>
<text text-anchor="start" x="456.5" y="-18" font-family="Helvetica,sans-Serif" font-size="10.00">lci::g_runtime_init</text>
<text text-anchor="middle" x="500.5" y="-7" font-family="Helvetica,sans-Serif" font-size="10.00">_x::user_context</text>
</a>
</g>
</g>
<!-- Node1&#45;&gt;Node13 -->
<g id="edge25_Node000001_Node000013" class="edge">
<title>Node1&#45;&gt;Node13</title>
<g id="a_edge25_Node000001_Node000013"><a xlink:title=" ">
<path fill="none" stroke="#63b8ff" d="M664.47,-158.31C650.81,-126.15 622.62,-70.33 581,-39 572.71,-32.76 562.79,-28.13 552.82,-24.7"/>
<polygon fill="#63b8ff" stroke="#63b8ff" points="661.36,-159.94 668.39,-167.86 667.83,-157.28 661.36,-159.94"/>
</a>
</g>
</g>
<!-- Node3 -->
<g id="Node000003" class="node">
<title>Node3</title>
<g id="a_Node000003"><a xlink:href="../../d1/dcd/classlci_1_1g__runtime__init__x.html#aa20ea5973d0c21b602c7f9da734c47a2" target="_top" xlink:title=" ">
<polygon fill="white" stroke="#666666" points="244,-202 140,-202 140,-172 244,-172 244,-202"/>
<text text-anchor="start" x="148" y="-190" font-family="Helvetica,sans-Serif" font-size="10.00">lci::g_runtime_init</text>
<text text-anchor="middle" x="192" y="-179" font-family="Helvetica,sans-Serif" font-size="10.00">_x::call</text>
</a>
</g>
</g>
<!-- Node2&#45;&gt;Node3 -->
<g id="edge2_Node000002_Node000003" class="edge">
<title>Node2&#45;&gt;Node3</title>
<g id="a_edge2_Node000002_Node000003"><a xlink:title=" ">
<path fill="none" stroke="#63b8ff" d="M424.78,-345.2C380.09,-332.18 323.69,-311.43 280,-281 247.89,-258.63 218.81,-222.59 203.77,-202.25"/>
<polygon fill="#63b8ff" stroke="#63b8ff" points="423.84,-348.57 434.42,-347.94 425.75,-341.83 423.84,-348.57"/>
</a>
</g>
</g>
<!-- Node6 -->
<g id="Node000006" class="node">
<title>Node6</title>
<g id="a_Node000006"><a xlink:href="../../d1/dcd/classlci_1_1g__runtime__init__x.html#ac6d2cbdc174a73fcc4be67e75b0e76f2" target="_top" xlink:title=" ">
<polygon fill="white" stroke="#666666" points="384,-202 280,-202 280,-172 384,-172 384,-202"/>
<text text-anchor="start" x="288" y="-190" font-family="Helvetica,sans-Serif" font-size="10.00">lci::g_runtime_init</text>
<text text-anchor="middle" x="332" y="-179" font-family="Helvetica,sans-Serif" font-size="10.00">_x::call_impl</text>
</a>
</g>
</g>
<!-- Node2&#45;&gt;Node6 -->
<g id="edge5_Node000002_Node000006" class="edge">
<title>Node2&#45;&gt;Node6</title>
<g id="a_edge5_Node000002_Node000006"><a xlink:title=" ">
<path fill="none" stroke="#63b8ff" d="M425.01,-342.64C423.28,-341.49 421.61,-340.28 420,-339 373.36,-301.9 347.14,-232.51 337.41,-202.02"/>
<polygon fill="#63b8ff" stroke="#63b8ff" points="423.65,-345.89 434.06,-347.85 427.14,-339.83 423.65,-345.89"/>
</a>
</g>
</g>
<!-- Node4 -->
<g id="Node000004" class="node">
<title>Node4</title>
<g id="a_Node000004"><a xlink:href="../../d5/dd3/namespacelci.html#aa5e55e1f0fc77dae56773ee7fe89c096" target="_top" xlink:title=" ">
<polygon fill="white" stroke="#666666" points="104,-218.5 0,-218.5 0,-199.5 104,-199.5 104,-218.5"/>
<text text-anchor="middle" x="52" y="-206.5" font-family="Helvetica,sans-Serif" font-size="10.00">lci::g_runtime_init</text>
</a>
</g>
</g>
<!-- Node3&#45;&gt;Node4 -->
<g id="edge3_Node000003_Node000004" class="edge">
<title>Node3&#45;&gt;Node4</title>
<g id="a_edge3_Node000003_Node000004"><a xlink:title=" ">
<path fill="none" stroke="#63b8ff" d="M129.5,-196.8C121.13,-198.14 112.6,-199.5 104.43,-200.8"/>
<polygon fill="#63b8ff" stroke="#63b8ff" points="130.29,-200.22 139.61,-195.19 129.19,-193.31 130.29,-200.22"/>
</a>
</g>
</g>
<!-- Node5 -->
<g id="Node000005" class="node">
<title>Node5</title>
<g id="a_Node000005"><a xlink:href="../../d1/dcd/classlci_1_1g__runtime__init__x.html#aff7f73ac25ad8c385a446d96d4114ab2" target="_top" xlink:title=" ">
<polygon fill="white" stroke="#666666" points="104,-181 0,-181 0,-151 104,-151 104,-181"/>
<text text-anchor="start" x="8" y="-169" font-family="Helvetica,sans-Serif" font-size="10.00">lci::g_runtime_init</text>
<text text-anchor="middle" x="52" y="-158" font-family="Helvetica,sans-Serif" font-size="10.00">_x::operator()</text>
</a>
</g>
</g>
<!-- Node3&#45;&gt;Node5 -->
<g id="edge4_Node000003_Node000005" class="edge">
<title>Node3&#45;&gt;Node5</title>
<g id="a_edge4_Node000003_Node000005"><a xlink:title=" ">
<path fill="none" stroke="#63b8ff" d="M129.5,-177.64C121.13,-176.37 112.6,-175.07 104.43,-173.83"/>
<polygon fill="#63b8ff" stroke="#63b8ff" points="129.2,-181.14 139.61,-179.18 130.25,-174.22 129.2,-181.14"/>
</a>
</g>
</g>
<!-- Node6&#45;&gt;Node3 -->
<g id="edge6_Node000006_Node000003" class="edge">
<title>Node6&#45;&gt;Node3</title>
<g id="a_edge6_Node000006_Node000003"><a xlink:title=" ">
<path fill="none" stroke="#63b8ff" d="M269.5,-187C261.13,-187 252.6,-187 244.43,-187"/>
<polygon fill="#63b8ff" stroke="#63b8ff" points="269.61,-190.5 279.61,-187 269.61,-183.5 269.61,-190.5"/>
</a>
</g>
</g>
<!-- Node7&#45;&gt;Node3 -->
<g id="edge8_Node000007_Node000003" class="edge">
<title>Node7&#45;&gt;Node3</title>
<g id="a_edge8_Node000007_Node000003"><a xlink:title=" ">
<path fill="none" stroke="#63b8ff" d="M416.52,-294.17C374.34,-284.8 323.04,-270.51 280,-250 253.4,-237.33 226.49,-216.3 209.79,-202.06"/>
<polygon fill="#63b8ff" stroke="#63b8ff" points="415.97,-297.64 426.48,-296.33 417.45,-290.79 415.97,-297.64"/>
</a>
</g>
</g>
<!-- Node7&#45;&gt;Node6 -->
<g id="edge9_Node000007_Node000006" class="edge">
<title>Node7&#45;&gt;Node6</title>
<g id="a_edge9_Node000007_Node000006"><a xlink:title=" ">
<path fill="none" stroke="#63b8ff" d="M427.52,-283.62C424.93,-282.15 422.42,-280.61 420,-279 387.79,-257.57 358.75,-222.12 343.74,-202.06"/>
<polygon fill="#63b8ff" stroke="#63b8ff" points="426.05,-286.8 436.53,-288.35 429.31,-280.6 426.05,-286.8"/>
</a>
</g>
</g>
<!-- Node8&#45;&gt;Node3 -->
<g id="edge11_Node000008_Node000003" class="edge">
<title>Node8&#45;&gt;Node3</title>
<g id="a_edge11_Node000008_Node000003"><a xlink:title=" ">
<path fill="none" stroke="#63b8ff" d="M409.78,-249.75C369.53,-245.83 321.79,-238.97 280,-227 259.06,-221 236.77,-210.67 220,-202.01"/>
<polygon fill="#63b8ff" stroke="#63b8ff" points="409.57,-253.25 419.85,-250.69 410.22,-246.28 409.57,-253.25"/>
</a>
</g>
</g>
<!-- Node8&#45;&gt;Node6 -->
<g id="edge12_Node000008_Node000006" class="edge">
<title>Node8&#45;&gt;Node6</title>
<g id="a_edge12_Node000008_Node000006"><a xlink:title=" ">
<path fill="none" stroke="#63b8ff" d="M435.59,-236.78C430.27,-234.94 425.02,-233.01 420,-231 399.26,-222.7 376.78,-211.26 359.86,-202.13"/>
<polygon fill="#63b8ff" stroke="#63b8ff" points="434.58,-240.14 445.18,-239.99 436.8,-233.5 434.58,-240.14"/>
</a>
</g>
</g>
<!-- Node9&#45;&gt;Node3 -->
<g id="edge14_Node000009_Node000003" class="edge">
<title>Node9&#45;&gt;Node3</title>
<g id="a_edge14_Node000009_Node000003"><a xlink:title=" ">
<path fill="none" stroke="#63b8ff" d="M429,-213.72C385.79,-216.49 329.48,-217.7 280,-211 266.34,-209.15 251.79,-205.74 238.57,-202.05"/>
<polygon fill="#63b8ff" stroke="#63b8ff" points="429.38,-217.2 439.12,-213.03 428.91,-210.22 429.38,-217.2"/>
</a>
</g>
</g>
<!-- Node9&#45;&gt;Node6 -->
<g id="edge15_Node000009_Node000006" class="edge">
<title>Node9&#45;&gt;Node6</title>
<g id="a_edge15_Node000009_Node000006"><a xlink:title=" ">
<path fill="none" stroke="#63b8ff" d="M429.08,-198.54C414.03,-196.73 398.4,-194.86 384.23,-193.15"/>
<polygon fill="#63b8ff" stroke="#63b8ff" points="429.04,-202.06 439.39,-199.78 429.88,-195.11 429.04,-202.06"/>
</a>
</g>
</g>
<!-- Node10&#45;&gt;Node3 -->
<g id="edge17_Node000010_Node000003" class="edge">
<title>Node10&#45;&gt;Node3</title>
<g id="a_edge17_Node000010_Node000003"><a xlink:title=" ">
<path fill="none" stroke="#63b8ff" d="M436.87,-155.99C392.78,-154.88 332.49,-155.4 280,-163 266.51,-164.95 252.14,-168.35 239.05,-171.98"/>
<polygon fill="#63b8ff" stroke="#63b8ff" points="436.77,-159.49 446.87,-156.28 436.97,-152.49 436.77,-159.49"/>
</a>
</g>
</g>
<!-- Node10&#45;&gt;Node6 -->
<g id="edge18_Node000010_Node000006" class="edge">
<title>Node10&#45;&gt;Node6</title>
<g id="a_edge18_Node000010_Node000006"><a xlink:title=" ">
<path fill="none" stroke="#63b8ff" d="M436.77,-169.55C419.43,-172.47 400.81,-175.6 384.2,-178.39"/>
<polygon fill="#63b8ff" stroke="#63b8ff" points="437.54,-172.97 446.82,-167.86 436.38,-166.07 437.54,-172.97"/>
</a>
</g>
</g>
<!-- Node11&#45;&gt;Node3 -->
<g id="edge20_Node000011_Node000003" class="edge">
<title>Node11&#45;&gt;Node3</title>
<g id="a_edge20_Node000011_Node000003"><a xlink:title=" ">
<path fill="none" stroke="#63b8ff" d="M438.15,-118.62C393.67,-125.01 332.4,-135.57 280,-151 261.34,-156.49 241.23,-164.66 225.05,-171.82"/>
<polygon fill="#63b8ff" stroke="#63b8ff" points="438.8,-122.07 448.22,-117.21 437.83,-115.13 438.8,-122.07"/>
</a>
</g>
</g>
<!-- Node11&#45;&gt;Node6 -->
<g id="edge21_Node000011_Node000006" class="edge">
<title>Node11&#45;&gt;Node6</title>
<g id="a_edge21_Node000011_Node000006"><a xlink:title=" ">
<path fill="none" stroke="#63b8ff" d="M438.44,-127.75C432.13,-129.98 425.89,-132.4 420,-135 396.66,-145.31 371.85,-160.62 354.72,-171.96"/>
<polygon fill="#63b8ff" stroke="#63b8ff" points="440,-130.92 448.36,-124.41 437.76,-124.28 440,-130.92"/>
</a>
</g>
</g>
<!-- Node12&#45;&gt;Node3 -->
<g id="edge23_Node000012_Node000003" class="edge">
<title>Node12&#45;&gt;Node3</title>
<g id="a_edge23_Node000012_Node000003"><a xlink:title=" ">
<path fill="none" stroke="#63b8ff" d="M414.52,-78.58C372.69,-88.13 322.31,-102.54 280,-123 253.16,-135.98 226.1,-157.53 209.45,-171.99"/>
<polygon fill="#63b8ff" stroke="#63b8ff" points="415.4,-81.97 424.4,-76.37 413.88,-75.14 415.4,-81.97"/>
</a>
</g>
</g>
<!-- Node12&#45;&gt;Node6 -->
<g id="edge24_Node000012_Node000006" class="edge">
<title>Node12&#45;&gt;Node6</title>
<g id="a_edge24_Node000012_Node000006"><a xlink:title=" ">
<path fill="none" stroke="#63b8ff" d="M428.07,-82.32C425.28,-83.77 422.58,-85.33 420,-87 385.22,-109.49 356.34,-149.79 342.25,-171.74"/>
<polygon fill="#63b8ff" stroke="#63b8ff" points="429.64,-85.45 437.2,-78.03 426.66,-79.12 429.64,-85.45"/>
</a>
</g>
</g>
<!-- Node13&#45;&gt;Node3 -->
<g id="edge26_Node000013_Node000003" class="edge">
<title>Node13&#45;&gt;Node3</title>
<g id="a_edge26_Node000013_Node000003"><a xlink:title=" ">
<path fill="none" stroke="#63b8ff" d="M438.48,-24.16C392.01,-33.33 328.05,-50.88 280,-83 244.38,-106.81 215.44,-149.33 201.68,-171.92"/>
<polygon fill="#63b8ff" stroke="#63b8ff" points="439.25,-27.57 448.42,-22.27 437.94,-20.7 439.25,-27.57"/>
</a>
</g>
</g>
<!-- Node13&#45;&gt;Node6 -->
<g id="edge27_Node000013_Node000006" class="edge">
<title>Node13&#45;&gt;Node6</title>
<g id="a_edge27_Node000013_Node000006"><a xlink:title=" ">
<path fill="none" stroke="#63b8ff" d="M439,-27.92C432.2,-30.89 425.69,-34.53 420,-39 374.31,-74.92 347.75,-141.99 337.68,-171.91"/>
<polygon fill="#63b8ff" stroke="#63b8ff" points="440.33,-31.16 448.39,-24.29 437.8,-24.63 440.33,-31.16"/>
</a>
</g>
</g>
</g>
</svg>
