<?xml version="1.0" encoding="UTF-8" standalone="no"?>
<!DOCTYPE svg PUBLIC "-//W3C//DTD SVG 1.1//EN"
 "http://www.w3.org/Graphics/SVG/1.1/DTD/svg11.dtd">
<!-- Generated by graphviz version 2.43.0 (0)
 -->
<!-- Title: lci::g_runtime_init_x::call Pages: 1 -->
<svg width="252pt" height="76pt"
 viewBox="0.00 0.00 252.00 75.50" xmlns="http://www.w3.org/2000/svg" xmlns:xlink="http://www.w3.org/1999/xlink">
<g id="graph0" class="graph" transform="scale(1 1) rotate(0) translate(4 71.5)">
<title>lci::g_runtime_init_x::call</title>
<!-- Node1 -->
<g id="Node000001" class="node">
<title>Node1</title>
<g id="a_Node000001"><a xlink:title=" ">
<polygon fill="#999999" stroke="#666666" points="244,-51 140,-51 140,-21 244,-21 244,-51"/>
<text text-anchor="start" x="148" y="-39" font-family="Helvetica,sans-Serif" font-size="10.00">lci::g_runtime_init</text>
<text text-anchor="middle" x="192" y="-28" font-family="Helvetica,sans-Serif" font-size="10.00">_x::call</text>
</a>
</g>
</g>
<!-- Node2 -->
<g id="Node000002" class="node">
<title>Node2</title>
<g id="a_Node000002"><a xlink:href="../../d5/dd3/namespacelci.html#aee337a8c81cb3397461d8cd00a2d8f71" target="_top" xlink:title=" ">
<polygon fill="white" stroke="#666666" points="104,-67.5 0,-67.5 0,-48.5 104,-48.5 104,-67.5"/>
<text text-anchor="middle" x="52" y="-55.5" font-family="Helvetica,sans-Serif" font-size="10.00">lci::g_runtime_init</text>
</a>
</g>
</g>
<!-- Node1&#45;&gt;Node2 -->
<g id="edge1_Node000001_Node000002" class="edge">
<title>Node1&#45;&gt;Node2</title>
<g id="a_edge1_Node000001_Node000002"><a xlink:title=" ">
<path fill="none" stroke="#63b8ff" d="M129.5,-45.8C121.13,-47.14 112.6,-48.5 104.43,-49.8"/>
<polygon fill="#63b8ff" stroke="#63b8ff" points="130.29,-49.22 139.61,-44.19 129.19,-42.31 130.29,-49.22"/>
</a>
</g>
</g>
<!-- Node3 -->
<g id="Node000003" class="node">
<title>Node3</title>
<g id="a_Node000003"><a xlink:href="../../d1/dcd/classlci_1_1g__runtime__init__x.html#a258cd9cdf97f4bb9f838d71e1af570de" target="_top" xlink:title=" ">
<polygon fill="white" stroke="#666666" points="104,-30 0,-30 0,0 104,0 104,-30"/>
<text text-anchor="start" x="8" y="-18" font-family="Helvetica,sans-Serif" font-size="10.00">lci::g_runtime_init</text>
<text text-anchor="middle" x="52" y="-7" font-family="Helvetica,sans-Serif" font-size="10.00">_x::operator()</text>
</a>
</g>
</g>
<!-- Node1&#45;&gt;Node3 -->
<g id="edge2_Node000001_Node000003" class="edge">
<title>Node1&#45;&gt;Node3</title>
<g id="a_edge2_Node000001_Node000003"><a xlink:title=" ">
<path fill="none" stroke="#63b8ff" d="M129.5,-26.64C121.13,-25.37 112.6,-24.07 104.43,-22.83"/>
<polygon fill="#63b8ff" stroke="#63b8ff" points="129.2,-30.14 139.61,-28.18 130.25,-23.22 129.2,-30.14"/>
</a>
</g>
</g>
</g>
</svg>
