<?xml version="1.0" encoding="UTF-8" standalone="no"?>
<!DOCTYPE svg PUBLIC "-//W3C//DTD SVG 1.1//EN"
 "http://www.w3.org/Graphics/SVG/1.1/DTD/svg11.dtd">
<!-- Generated by graphviz version 2.43.0 (0)
 -->
<!-- Title: lci::net_post_putImm_x Pages: 1 -->
<svg width="550pt" height="294pt"
 viewBox="0.00 0.00 550.00 294.00" xmlns="http://www.w3.org/2000/svg" xmlns:xlink="http://www.w3.org/1999/xlink">
<g id="graph0" class="graph" transform="scale(1 1) rotate(0) translate(4 290)">
<title>lci::net_post_putImm_x</title>
<!-- Node1 -->
<g id="Node000001" class="node">
<title>Node1</title>
<g id="a_Node000001"><a xlink:title="The actual implementation for net_post_putImm.">
<polygon fill="#999999" stroke="#666666" points="542,-158 411,-158 411,-139 542,-139 542,-158"/>
<text text-anchor="middle" x="476.5" y="-146" font-family="Helvetica,sans-Serif" font-size="10.00">lci::net_post_putImm_x</text>
</a>
</g>
</g>
<!-- Node2 -->
<g id="Node000002" class="node">
<title>Node2</title>
<g id="a_Node000002"><a xlink:href="../../d7/d1a/classlci_1_1mr__t.html" target="_top" xlink:title="The actual implementation for RESOURCE mr.">
<polygon fill="white" stroke="#666666" points="258.5,-286 202.5,-286 202.5,-267 258.5,-267 258.5,-286"/>
<text text-anchor="middle" x="230.5" y="-274" font-family="Helvetica,sans-Serif" font-size="10.00">lci::mr_t</text>
</a>
</g>
</g>
<!-- Node2&#45;&gt;Node1 -->
<g id="edge1_Node000001_Node000002" class="edge">
<title>Node2&#45;&gt;Node1</title>
<g id="a_edge1_Node000001_Node000002"><a xlink:title=" ">
<path fill="none" stroke="#9a32cd" stroke-dasharray="5,2" d="M268.71,-272.69C302.95,-267.88 354.16,-257.27 393,-234.5 427.27,-214.41 456.54,-176.08 469.03,-158.17"/>
<polygon fill="#9a32cd" stroke="#9a32cd" points="268.12,-269.24 258.66,-274.01 269.03,-276.18 268.12,-269.24"/>
</a>
</g>
<text text-anchor="middle" x="352" y="-267.5" font-family="Helvetica,sans-Serif" font-size="10.00" fill="grey"> m_mr</text>
</g>
<!-- Node3 -->
<g id="Node000003" class="node">
<title>Node3</title>
<g id="a_Node000003"><a xlink:href="../../da/d8d/structlci_1_1rmr__t.html" target="_top" xlink:title="The type of remote memory region.">
<polygon fill="white" stroke="#666666" points="260.5,-249 200.5,-249 200.5,-230 260.5,-230 260.5,-249"/>
<text text-anchor="middle" x="230.5" y="-237" font-family="Helvetica,sans-Serif" font-size="10.00">lci::rmr_t</text>
</a>
</g>
</g>
<!-- Node3&#45;&gt;Node1 -->
<g id="edge2_Node000001_Node000003" class="edge">
<title>Node3&#45;&gt;Node1</title>
<g id="a_edge2_Node000001_Node000003"><a xlink:title=" ">
<path fill="none" stroke="#9a32cd" stroke-dasharray="5,2" d="M270.58,-231.35C303.83,-223.78 352.5,-211.16 393,-194.5 417.87,-184.27 444.74,-168.27 460.83,-158.09"/>
<polygon fill="#9a32cd" stroke="#9a32cd" points="269.78,-227.94 260.78,-233.54 271.3,-234.78 269.78,-227.94"/>
</a>
</g>
<text text-anchor="middle" x="352" y="-222.5" font-family="Helvetica,sans-Serif" font-size="10.00" fill="grey"> m_rmr</text>
</g>
<!-- Node4 -->
<g id="Node000004" class="node">
<title>Node4</title>
<g id="a_Node000004"><a xlink:href="../../db/d20/structlci_1_1option__t.html" target="_top" xlink:title=" ">
<polygon fill="white" stroke="#666666" points="278.5,-211.5 182.5,-211.5 182.5,-181.5 278.5,-181.5 278.5,-211.5"/>
<text text-anchor="start" x="190.5" y="-199.5" font-family="Helvetica,sans-Serif" font-size="10.00">lci::option_t&lt; lci</text>
<text text-anchor="middle" x="230.5" y="-188.5" font-family="Helvetica,sans-Serif" font-size="10.00">::runtime_t &gt;</text>
</a>
</g>
</g>
<!-- Node4&#45;&gt;Node1 -->
<g id="edge3_Node000001_Node000004" class="edge">
<title>Node4&#45;&gt;Node1</title>
<g id="a_edge3_Node000001_Node000004"><a xlink:title=" ">
<path fill="none" stroke="#9a32cd" stroke-dasharray="5,2" d="M288.62,-185.26C330.62,-177 387.09,-165.89 426.93,-158.06"/>
<polygon fill="#9a32cd" stroke="#9a32cd" points="287.68,-181.88 278.55,-187.25 289.03,-188.75 287.68,-181.88"/>
</a>
</g>
<text text-anchor="middle" x="352" y="-182.5" font-family="Helvetica,sans-Serif" font-size="10.00" fill="grey"> m_runtime</text>
</g>
<!-- Node5 -->
<g id="Node000005" class="node">
<title>Node5</title>
<g id="a_Node000005"><a xlink:href="../../dc/d5c/classlci_1_1runtime__t.html" target="_top" xlink:title="The actual implementation for RESOURCE runtime.">
<polygon fill="white" stroke="#666666" points="83.5,-206 2.5,-206 2.5,-187 83.5,-187 83.5,-206"/>
<text text-anchor="middle" x="43" y="-194" font-family="Helvetica,sans-Serif" font-size="10.00">lci::runtime_t</text>
</a>
</g>
</g>
<!-- Node5&#45;&gt;Node4 -->
<g id="edge4_Node000004_Node000005" class="edge">
<title>Node5&#45;&gt;Node4</title>
<g id="a_edge4_Node000004_Node000005"><a xlink:title=" ">
<path fill="none" stroke="#9a32cd" stroke-dasharray="5,2" d="M93.97,-196.5C121.4,-196.5 155.22,-196.5 182.22,-196.5"/>
<polygon fill="#9a32cd" stroke="#9a32cd" points="93.79,-193 83.79,-196.5 93.79,-200 93.79,-193"/>
</a>
</g>
<text text-anchor="middle" x="127" y="-199.5" font-family="Helvetica,sans-Serif" font-size="10.00" fill="grey"> m_value</text>
</g>
<!-- Node6 -->
<g id="Node000006" class="node">
<title>Node6</title>
<g id="a_Node000006"><a xlink:href="../../db/d20/structlci_1_1option__t.html" target="_top" xlink:title=" ">
<polygon fill="white" stroke="#666666" points="278.5,-163.5 182.5,-163.5 182.5,-133.5 278.5,-133.5 278.5,-163.5"/>
<text text-anchor="start" x="190.5" y="-151.5" font-family="Helvetica,sans-Serif" font-size="10.00">lci::option_t&lt; lci</text>
<text text-anchor="middle" x="230.5" y="-140.5" font-family="Helvetica,sans-Serif" font-size="10.00">::device_t &gt;</text>
</a>
</g>
</g>
<!-- Node6&#45;&gt;Node1 -->
<g id="edge5_Node000001_Node000006" class="edge">
<title>Node6&#45;&gt;Node1</title>
<g id="a_edge5_Node000001_Node000006"><a xlink:title=" ">
<path fill="none" stroke="#9a32cd" stroke-dasharray="5,2" d="M288.55,-148.5C325.1,-148.5 372.63,-148.5 410.61,-148.5"/>
<polygon fill="#9a32cd" stroke="#9a32cd" points="288.55,-145 278.55,-148.5 288.55,-152 288.55,-145"/>
</a>
</g>
<text text-anchor="middle" x="352" y="-151.5" font-family="Helvetica,sans-Serif" font-size="10.00" fill="grey"> m_device</text>
</g>
<!-- Node7 -->
<g id="Node000007" class="node">
<title>Node7</title>
<g id="a_Node000007"><a xlink:href="../../d6/d66/classlci_1_1device__t.html" target="_top" xlink:title="The actual implementation for RESOURCE device.">
<polygon fill="white" stroke="#666666" points="80.5,-158 5.5,-158 5.5,-139 80.5,-139 80.5,-158"/>
<text text-anchor="middle" x="43" y="-146" font-family="Helvetica,sans-Serif" font-size="10.00">lci::device_t</text>
</a>
</g>
</g>
<!-- Node7&#45;&gt;Node6 -->
<g id="edge6_Node000006_Node000007" class="edge">
<title>Node7&#45;&gt;Node6</title>
<g id="a_edge6_Node000006_Node000007"><a xlink:title=" ">
<path fill="none" stroke="#9a32cd" stroke-dasharray="5,2" d="M90.98,-148.5C118.95,-148.5 154.35,-148.5 182.35,-148.5"/>
<polygon fill="#9a32cd" stroke="#9a32cd" points="90.65,-145 80.65,-148.5 90.65,-152 90.65,-145"/>
</a>
</g>
<text text-anchor="middle" x="127" y="-151.5" font-family="Helvetica,sans-Serif" font-size="10.00" fill="grey"> m_value</text>
</g>
<!-- Node8 -->
<g id="Node000008" class="node">
<title>Node8</title>
<g id="a_Node000008"><a xlink:href="../../db/d20/structlci_1_1option__t.html" target="_top" xlink:title=" ">
<polygon fill="white" stroke="#666666" points="278.5,-115.5 182.5,-115.5 182.5,-85.5 278.5,-85.5 278.5,-115.5"/>
<text text-anchor="start" x="190.5" y="-103.5" font-family="Helvetica,sans-Serif" font-size="10.00">lci::option_t&lt; lci</text>
<text text-anchor="middle" x="230.5" y="-92.5" font-family="Helvetica,sans-Serif" font-size="10.00">::endpoint_t &gt;</text>
</a>
</g>
</g>
<!-- Node8&#45;&gt;Node1 -->
<g id="edge7_Node000001_Node000008" class="edge">
<title>Node8&#45;&gt;Node1</title>
<g id="a_edge7_Node000001_Node000008"><a xlink:title=" ">
<path fill="none" stroke="#9a32cd" stroke-dasharray="5,2" d="M288.62,-111.74C330.62,-120 387.09,-131.11 426.93,-138.94"/>
<polygon fill="#9a32cd" stroke="#9a32cd" points="289.03,-108.25 278.55,-109.75 287.68,-115.12 289.03,-108.25"/>
</a>
</g>
<text text-anchor="middle" x="352" y="-134.5" font-family="Helvetica,sans-Serif" font-size="10.00" fill="grey"> m_endpoint</text>
</g>
<!-- Node9 -->
<g id="Node000009" class="node">
<title>Node9</title>
<g id="a_Node000009"><a xlink:href="../../de/d1b/classlci_1_1endpoint__t.html" target="_top" xlink:title="The actual implementation for RESOURCE endpoint.">
<polygon fill="white" stroke="#666666" points="86,-110 0,-110 0,-91 86,-91 86,-110"/>
<text text-anchor="middle" x="43" y="-98" font-family="Helvetica,sans-Serif" font-size="10.00">lci::endpoint_t</text>
</a>
</g>
</g>
<!-- Node9&#45;&gt;Node8 -->
<g id="edge8_Node000008_Node000009" class="edge">
<title>Node9&#45;&gt;Node8</title>
<g id="a_edge8_Node000008_Node000009"><a xlink:title=" ">
<path fill="none" stroke="#9a32cd" stroke-dasharray="5,2" d="M96.16,-100.5C123.23,-100.5 156.05,-100.5 182.35,-100.5"/>
<polygon fill="#9a32cd" stroke="#9a32cd" points="96.09,-97 86.09,-100.5 96.09,-104 96.09,-97"/>
</a>
</g>
<text text-anchor="middle" x="127" y="-103.5" font-family="Helvetica,sans-Serif" font-size="10.00" fill="grey"> m_value</text>
</g>
<!-- Node10 -->
<g id="Node000010" class="node">
<title>Node10</title>
<g id="a_Node000010"><a xlink:href="../../db/d20/structlci_1_1option__t.html" target="_top" xlink:title=" ">
<polygon fill="white" stroke="#666666" points="281,-67.5 180,-67.5 180,-37.5 281,-37.5 281,-67.5"/>
<text text-anchor="start" x="188" y="-55.5" font-family="Helvetica,sans-Serif" font-size="10.00">lci::option_t&lt; net</text>
<text text-anchor="middle" x="230.5" y="-44.5" font-family="Helvetica,sans-Serif" font-size="10.00">_imm_data_t &gt;</text>
</a>
</g>
</g>
<!-- Node10&#45;&gt;Node1 -->
<g id="edge9_Node000001_Node000010" class="edge">
<title>Node10&#45;&gt;Node1</title>
<g id="a_edge9_Node000001_Node000010"><a xlink:title=" ">
<path fill="none" stroke="#9a32cd" stroke-dasharray="5,2" d="M291.07,-67.15C322.06,-75.62 360.21,-87.4 393,-101.5 417.99,-112.25 445.04,-128.67 461.11,-138.98"/>
<polygon fill="#9a32cd" stroke="#9a32cd" points="291.85,-63.73 281.28,-64.52 290.03,-70.49 291.85,-63.73"/>
</a>
</g>
<text text-anchor="middle" x="352" y="-104.5" font-family="Helvetica,sans-Serif" font-size="10.00" fill="grey"> m_imm_data</text>
</g>
<!-- Node11 -->
<g id="Node000011" class="node">
<title>Node11</title>
<g id="a_Node000011"><a xlink:href="../../db/d20/structlci_1_1option__t.html" target="_top" xlink:title=" ">
<polygon fill="white" stroke="#666666" points="293,-19 168,-19 168,0 293,0 293,-19"/>
<text text-anchor="middle" x="230.5" y="-7" font-family="Helvetica,sans-Serif" font-size="10.00">lci::option_t&lt; void * &gt;</text>
</a>
</g>
</g>
<!-- Node11&#45;&gt;Node1 -->
<g id="edge10_Node000001_Node000011" class="edge">
<title>Node11&#45;&gt;Node1</title>
<g id="a_edge10_Node000001_Node000011"><a xlink:title=" ">
<path fill="none" stroke="#9a32cd" stroke-dasharray="5,2" d="M298.56,-21.39C329,-28.84 364.48,-40.55 393,-58.5 427.62,-80.29 456.93,-120.38 469.26,-138.79"/>
<polygon fill="#9a32cd" stroke="#9a32cd" points="298.98,-17.89 288.44,-19.02 297.38,-24.71 298.98,-17.89"/>
</a>
</g>
<text text-anchor="middle" x="352" y="-61.5" font-family="Helvetica,sans-Serif" font-size="10.00" fill="grey"> m_user_context</text>
</g>
</g>
</svg>
