<?xml version="1.0" encoding="UTF-8" standalone="no"?>
<!DOCTYPE svg PUBLIC "-//W3C//DTD SVG 1.1//EN"
 "http://www.w3.org/Graphics/SVG/1.1/DTD/svg11.dtd">
<!-- Generated by graphviz version 2.43.0 (0)
 -->
<!-- Title: lci::net_post_putImms_x::call Pages: 1 -->
<svg width="627pt" height="422pt"
 viewBox="0.00 0.00 627.00 422.00" xmlns="http://www.w3.org/2000/svg" xmlns:xlink="http://www.w3.org/1999/xlink">
<g id="graph0" class="graph" transform="scale(1 1) rotate(0) translate(4 418)">
<title>lci::net_post_putImms_x::call</title>
<!-- Node1 -->
<g id="Node000001" class="node">
<title>Node1</title>
<g id="a_Node000001"><a xlink:title=" ">
<polygon fill="#999999" stroke="#666666" points="125,-219 0,-219 0,-189 125,-189 125,-219"/>
<text text-anchor="start" x="8" y="-207" font-family="Helvetica,sans-Serif" font-size="10.00">lci::net_post_putImms</text>
<text text-anchor="middle" x="62.5" y="-196" font-family="Helvetica,sans-Serif" font-size="10.00">_x::call</text>
</a>
</g>
</g>
<!-- Node2 -->
<g id="Node000002" class="node">
<title>Node2</title>
<g id="a_Node000002"><a xlink:href="../../d2/d4c/classlci_1_1net__post__putImms__x.html#a006b9fc6c0e8ffdec86faf0dde5940d7" target="_top" xlink:title=" ">
<polygon fill="white" stroke="#666666" points="447,-414 322,-414 322,-384 447,-384 447,-414"/>
<text text-anchor="start" x="330" y="-402" font-family="Helvetica,sans-Serif" font-size="10.00">lci::net_post_putImms</text>
<text text-anchor="middle" x="384.5" y="-391" font-family="Helvetica,sans-Serif" font-size="10.00">_x::buffer</text>
</a>
</g>
</g>
<!-- Node1&#45;&gt;Node2 -->
<g id="edge1_Node000001_Node000002" class="edge">
<title>Node1&#45;&gt;Node2</title>
<g id="a_edge1_Node000001_Node000002"><a xlink:title=" ">
<path fill="none" stroke="#63b8ff" d="M71.17,-219.39C85.26,-246.11 117.83,-301.06 161,-331 205.99,-362.2 265.72,-379.43 311.97,-388.73"/>
<polygon fill="#63b8ff" stroke="#63b8ff" points="311.43,-392.19 321.92,-390.65 312.76,-385.32 311.43,-392.19"/>
</a>
</g>
</g>
<!-- Node4 -->
<g id="Node000004" class="node">
<title>Node4</title>
<g id="a_Node000004"><a xlink:href="../../d2/d4c/classlci_1_1net__post__putImms__x.html#a7d7b014931071f940eaff54f5874c2f6" target="_top" xlink:title=" ">
<polygon fill="white" stroke="#666666" points="286,-241 161,-241 161,-211 286,-211 286,-241"/>
<text text-anchor="start" x="169" y="-229" font-family="Helvetica,sans-Serif" font-size="10.00">lci::net_post_putImms</text>
<text text-anchor="middle" x="223.5" y="-218" font-family="Helvetica,sans-Serif" font-size="10.00">_x::call_impl</text>
</a>
</g>
</g>
<!-- Node1&#45;&gt;Node4 -->
<g id="edge3_Node000001_Node000004" class="edge">
<title>Node1&#45;&gt;Node4</title>
<g id="a_edge3_Node000001_Node000004"><a xlink:title=" ">
<path fill="none" stroke="#63b8ff" d="M125.43,-212.57C133.67,-213.71 142.18,-214.89 150.58,-216.05"/>
<polygon fill="#63b8ff" stroke="#63b8ff" points="150.35,-219.55 160.74,-217.45 151.31,-212.62 150.35,-219.55"/>
</a>
</g>
</g>
<!-- Node5 -->
<g id="Node000005" class="node">
<title>Node5</title>
<g id="a_Node000005"><a xlink:href="../../d2/d4c/classlci_1_1net__post__putImms__x.html#a0f2127d0c6d4637c5a0210880f109684" target="_top" xlink:title=" ">
<polygon fill="white" stroke="#666666" points="447,-366 322,-366 322,-336 447,-336 447,-366"/>
<text text-anchor="start" x="330" y="-354" font-family="Helvetica,sans-Serif" font-size="10.00">lci::net_post_putImms</text>
<text text-anchor="middle" x="384.5" y="-343" font-family="Helvetica,sans-Serif" font-size="10.00">_x::device</text>
</a>
</g>
</g>
<!-- Node1&#45;&gt;Node5 -->
<g id="edge21_Node000001_Node000005" class="edge">
<title>Node1&#45;&gt;Node5</title>
<g id="a_edge21_Node000001_Node000005"><a xlink:title=" ">
<path fill="none" stroke="#63b8ff" d="M74.96,-219.08C91.59,-239.87 124.46,-277.04 161,-297 207.7,-322.51 266.41,-336.11 311.79,-343.27"/>
<polygon fill="#63b8ff" stroke="#63b8ff" points="311.44,-346.76 321.85,-344.79 312.48,-339.84 311.44,-346.76"/>
</a>
</g>
</g>
<!-- Node6 -->
<g id="Node000006" class="node">
<title>Node6</title>
<g id="a_Node000006"><a xlink:href="../../d2/d4c/classlci_1_1net__post__putImms__x.html#abd4f521ac3733e446b2e2a9357c05954" target="_top" xlink:title=" ">
<polygon fill="white" stroke="#666666" points="447,-318 322,-318 322,-288 447,-288 447,-318"/>
<text text-anchor="start" x="330" y="-306" font-family="Helvetica,sans-Serif" font-size="10.00">lci::net_post_putImms</text>
<text text-anchor="middle" x="384.5" y="-295" font-family="Helvetica,sans-Serif" font-size="10.00">_x::endpoint</text>
</a>
</g>
</g>
<!-- Node1&#45;&gt;Node6 -->
<g id="edge22_Node000001_Node000006" class="edge">
<title>Node1&#45;&gt;Node6</title>
<g id="a_edge22_Node000001_Node000006"><a xlink:title=" ">
<path fill="none" stroke="#63b8ff" d="M80.85,-219.04C99.39,-234.22 130.27,-257.09 161,-269 209.17,-287.67 266.92,-296.13 311.52,-299.94"/>
<polygon fill="#63b8ff" stroke="#63b8ff" points="311.44,-303.44 321.69,-300.75 312,-296.46 311.44,-303.44"/>
</a>
</g>
</g>
<!-- Node7 -->
<g id="Node000007" class="node">
<title>Node7</title>
<g id="a_Node000007"><a xlink:href="../../d2/d4c/classlci_1_1net__post__putImms__x.html#ad019b6794d122988706ddd7cf58cee67" target="_top" xlink:title=" ">
<polygon fill="white" stroke="#666666" points="447,-270 322,-270 322,-240 447,-240 447,-270"/>
<text text-anchor="start" x="330" y="-258" font-family="Helvetica,sans-Serif" font-size="10.00">lci::net_post_putImms</text>
<text text-anchor="middle" x="384.5" y="-247" font-family="Helvetica,sans-Serif" font-size="10.00">_x::imm_data</text>
</a>
</g>
</g>
<!-- Node1&#45;&gt;Node7 -->
<g id="edge23_Node000001_Node000007" class="edge">
<title>Node1&#45;&gt;Node7</title>
<g id="a_edge23_Node000001_Node000007"><a xlink:title=" ">
<path fill="none" stroke="#63b8ff" d="M88.09,-219.16C107.2,-230.03 134.77,-243.81 161,-250 210.37,-261.64 267.61,-262.66 311.67,-260.89"/>
<polygon fill="#63b8ff" stroke="#63b8ff" points="311.89,-264.38 321.72,-260.43 311.57,-257.39 311.89,-264.38"/>
</a>
</g>
</g>
<!-- Node8 -->
<g id="Node000008" class="node">
<title>Node8</title>
<g id="a_Node000008"><a xlink:href="../../d2/d4c/classlci_1_1net__post__putImms__x.html#a7cf1fbb5b227c9afd1ab864314cc35d8" target="_top" xlink:title=" ">
<polygon fill="white" stroke="#666666" points="447,-222 322,-222 322,-192 447,-192 447,-222"/>
<text text-anchor="start" x="330" y="-210" font-family="Helvetica,sans-Serif" font-size="10.00">lci::net_post_putImms</text>
<text text-anchor="middle" x="384.5" y="-199" font-family="Helvetica,sans-Serif" font-size="10.00">_x::offset</text>
</a>
</g>
</g>
<!-- Node1&#45;&gt;Node8 -->
<g id="edge24_Node000001_Node000008" class="edge">
<title>Node1&#45;&gt;Node8</title>
<g id="a_edge24_Node000001_Node000008"><a xlink:title=" ">
<path fill="none" stroke="#63b8ff" d="M125.37,-202.3C170.02,-201.35 231.74,-200.61 286,-202 294.34,-202.21 303.08,-202.53 311.76,-202.9"/>
<polygon fill="#63b8ff" stroke="#63b8ff" points="311.74,-206.4 321.89,-203.36 312.05,-199.41 311.74,-206.4"/>
</a>
</g>
</g>
<!-- Node9 -->
<g id="Node000009" class="node">
<title>Node9</title>
<g id="a_Node000009"><a xlink:href="../../d2/d4c/classlci_1_1net__post__putImms__x.html#a4ac1ce93083e9a758f7bd5b3bacecae8" target="_top" xlink:title=" ">
<polygon fill="white" stroke="#666666" points="447,-174 322,-174 322,-144 447,-144 447,-174"/>
<text text-anchor="start" x="330" y="-162" font-family="Helvetica,sans-Serif" font-size="10.00">lci::net_post_putImms</text>
<text text-anchor="middle" x="384.5" y="-151" font-family="Helvetica,sans-Serif" font-size="10.00">_x::rank</text>
</a>
</g>
</g>
<!-- Node1&#45;&gt;Node9 -->
<g id="edge25_Node000001_Node000009" class="edge">
<title>Node1&#45;&gt;Node9</title>
<g id="a_edge25_Node000001_Node000009"><a xlink:title=" ">
<path fill="none" stroke="#63b8ff" d="M125.2,-195.32C178.54,-187.82 255.69,-176.97 311.77,-169.09"/>
<polygon fill="#63b8ff" stroke="#63b8ff" points="312.58,-172.51 321.99,-167.65 311.6,-165.58 312.58,-172.51"/>
</a>
</g>
</g>
<!-- Node10 -->
<g id="Node000010" class="node">
<title>Node10</title>
<g id="a_Node000010"><a xlink:href="../../d2/d4c/classlci_1_1net__post__putImms__x.html#a33c3f3f50aa9976c0f2f78631c389c6c" target="_top" xlink:title=" ">
<polygon fill="white" stroke="#666666" points="447,-126 322,-126 322,-96 447,-96 447,-126"/>
<text text-anchor="start" x="330" y="-114" font-family="Helvetica,sans-Serif" font-size="10.00">lci::net_post_putImms</text>
<text text-anchor="middle" x="384.5" y="-103" font-family="Helvetica,sans-Serif" font-size="10.00">_x::rmr</text>
</a>
</g>
</g>
<!-- Node1&#45;&gt;Node10 -->
<g id="edge26_Node000001_Node000010" class="edge">
<title>Node1&#45;&gt;Node10</title>
<g id="a_edge26_Node000001_Node000010"><a xlink:title=" ">
<path fill="none" stroke="#63b8ff" d="M103.08,-188.88C120.69,-182.39 141.76,-174.95 161,-169 210.99,-153.54 268.13,-138.71 311.98,-127.91"/>
<polygon fill="#63b8ff" stroke="#63b8ff" points="312.81,-131.31 321.7,-125.53 311.15,-124.51 312.81,-131.31"/>
</a>
</g>
</g>
<!-- Node11 -->
<g id="Node000011" class="node">
<title>Node11</title>
<g id="a_Node000011"><a xlink:href="../../d2/d4c/classlci_1_1net__post__putImms__x.html#ad8aff6cb53172406774e6dd2f6e934aa" target="_top" xlink:title=" ">
<polygon fill="white" stroke="#666666" points="447,-78 322,-78 322,-48 447,-48 447,-78"/>
<text text-anchor="start" x="330" y="-66" font-family="Helvetica,sans-Serif" font-size="10.00">lci::net_post_putImms</text>
<text text-anchor="middle" x="384.5" y="-55" font-family="Helvetica,sans-Serif" font-size="10.00">_x::runtime</text>
</a>
</g>
</g>
<!-- Node1&#45;&gt;Node11 -->
<g id="edge27_Node000001_Node000011" class="edge">
<title>Node1&#45;&gt;Node11</title>
<g id="a_edge27_Node000001_Node000011"><a xlink:title=" ">
<path fill="none" stroke="#63b8ff" d="M79.91,-188.87C98.38,-172.55 129.89,-146.79 161,-131 208.89,-106.7 267.04,-89.3 311.89,-78.18"/>
<polygon fill="#63b8ff" stroke="#63b8ff" points="312.93,-81.53 321.82,-75.77 311.28,-74.73 312.93,-81.53"/>
</a>
</g>
</g>
<!-- Node12 -->
<g id="Node000012" class="node">
<title>Node12</title>
<g id="a_Node000012"><a xlink:href="../../d2/d4c/classlci_1_1net__post__putImms__x.html#a85287777b53e7c6fafcaadf3a211eb07" target="_top" xlink:title=" ">
<polygon fill="white" stroke="#666666" points="447,-30 322,-30 322,0 447,0 447,-30"/>
<text text-anchor="start" x="330" y="-18" font-family="Helvetica,sans-Serif" font-size="10.00">lci::net_post_putImms</text>
<text text-anchor="middle" x="384.5" y="-7" font-family="Helvetica,sans-Serif" font-size="10.00">_x::size</text>
</a>
</g>
</g>
<!-- Node1&#45;&gt;Node12 -->
<g id="edge28_Node000001_Node000012" class="edge">
<title>Node1&#45;&gt;Node12</title>
<g id="a_edge28_Node000001_Node000012"><a xlink:title=" ">
<path fill="none" stroke="#63b8ff" d="M71.5,-188.65C85.87,-162.58 118.56,-109.69 161,-81 206.09,-50.52 265.55,-33.83 311.66,-24.86"/>
<polygon fill="#63b8ff" stroke="#63b8ff" points="312.39,-28.28 321.58,-23.01 311.11,-21.4 312.39,-28.28"/>
</a>
</g>
</g>
<!-- Node3 -->
<g id="Node000003" class="node">
<title>Node3</title>
<g id="a_Node000003"><a xlink:href="../../d2/d4c/classlci_1_1net__post__putImms__x.html#af5167ebc0c18c05148d0fb2e34496796" target="_top" xlink:title=" ">
<polygon fill="white" stroke="#666666" points="619,-222 483,-222 483,-192 619,-192 619,-222"/>
<text text-anchor="start" x="491" y="-210" font-family="Helvetica,sans-Serif" font-size="10.00">lci::net_post_putImms</text>
<text text-anchor="middle" x="551" y="-199" font-family="Helvetica,sans-Serif" font-size="10.00">_x::net_post_putImms_x</text>
</a>
</g>
</g>
<!-- Node2&#45;&gt;Node3 -->
<g id="edge2_Node000002_Node000003" class="edge">
<title>Node2&#45;&gt;Node3</title>
<g id="a_edge2_Node000002_Node000003"><a xlink:title=" ">
<path fill="none" stroke="#63b8ff" d="M433.59,-383.87C438.38,-381.32 442.96,-378.38 447,-375 494.5,-335.28 526.32,-267.75 540.89,-231.59"/>
<polygon fill="#63b8ff" stroke="#63b8ff" points="544.15,-232.86 544.54,-222.27 537.63,-230.31 544.15,-232.86"/>
</a>
</g>
</g>
<!-- Node4&#45;&gt;Node2 -->
<g id="edge4_Node000004_Node000002" class="edge">
<title>Node4&#45;&gt;Node2</title>
<g id="a_edge4_Node000004_Node000002"><a xlink:title=" ">
<path fill="none" stroke="#63b8ff" d="M230.69,-241.34C243.45,-271.13 275.43,-337.21 322,-375 323.57,-376.27 325.21,-377.48 326.91,-378.64"/>
<polygon fill="#63b8ff" stroke="#63b8ff" points="325.43,-381.83 335.82,-383.92 329,-375.81 325.43,-381.83"/>
</a>
</g>
</g>
<!-- Node4&#45;&gt;Node5 -->
<g id="edge5_Node000004_Node000005" class="edge">
<title>Node4&#45;&gt;Node5</title>
<g id="a_edge5_Node000004_Node000005"><a xlink:title=" ">
<path fill="none" stroke="#63b8ff" d="M235.8,-241.35C252.49,-263.07 285.69,-302.82 322,-327 324.25,-328.5 326.6,-329.92 329.03,-331.27"/>
<polygon fill="#63b8ff" stroke="#63b8ff" points="327.53,-334.44 338.03,-335.86 330.71,-328.2 327.53,-334.44"/>
</a>
</g>
</g>
<!-- Node4&#45;&gt;Node6 -->
<g id="edge7_Node000004_Node000006" class="edge">
<title>Node4&#45;&gt;Node6</title>
<g id="a_edge7_Node000004_Node000006"><a xlink:title=" ">
<path fill="none" stroke="#63b8ff" d="M250.12,-241.08C269.52,-252.21 297.01,-267.39 322,-279 325.64,-280.69 329.43,-282.37 333.27,-284"/>
<polygon fill="#63b8ff" stroke="#63b8ff" points="332.26,-287.37 342.83,-287.97 334.94,-280.91 332.26,-287.37"/>
</a>
</g>
</g>
<!-- Node4&#45;&gt;Node7 -->
<g id="edge9_Node000004_Node000007" class="edge">
<title>Node4&#45;&gt;Node7</title>
<g id="a_edge9_Node000004_Node000007"><a xlink:title=" ">
<path fill="none" stroke="#63b8ff" d="M286.43,-237.3C294.76,-238.82 303.37,-240.39 311.86,-241.93"/>
<polygon fill="#63b8ff" stroke="#63b8ff" points="311.27,-245.38 321.74,-243.74 312.53,-238.5 311.27,-245.38"/>
</a>
</g>
</g>
<!-- Node4&#45;&gt;Node8 -->
<g id="edge11_Node000004_Node000008" class="edge">
<title>Node4&#45;&gt;Node8</title>
<g id="a_edge11_Node000004_Node000008"><a xlink:title=" ">
<path fill="none" stroke="#63b8ff" d="M286.43,-218.6C294.67,-217.61 303.18,-216.6 311.58,-215.59"/>
<polygon fill="#63b8ff" stroke="#63b8ff" points="312.23,-219.04 321.74,-214.38 311.4,-212.09 312.23,-219.04"/>
</a>
</g>
</g>
<!-- Node4&#45;&gt;Node9 -->
<g id="edge13_Node000004_Node000009" class="edge">
<title>Node4&#45;&gt;Node9</title>
<g id="a_edge13_Node000004_Node000009"><a xlink:title=" ">
<path fill="none" stroke="#63b8ff" d="M257.74,-210.91C276.52,-202.5 300.47,-191.94 322,-183 326.1,-181.3 330.37,-179.56 334.66,-177.84"/>
<polygon fill="#63b8ff" stroke="#63b8ff" points="336.03,-181.06 344.03,-174.11 333.44,-174.55 336.03,-181.06"/>
</a>
</g>
</g>
<!-- Node4&#45;&gt;Node10 -->
<g id="edge15_Node000004_Node000010" class="edge">
<title>Node4&#45;&gt;Node10</title>
<g id="a_edge15_Node000004_Node000010"><a xlink:title=" ">
<path fill="none" stroke="#63b8ff" d="M237.3,-210.91C254.73,-191.18 287.7,-156.58 322,-135 324.46,-133.46 327.03,-131.98 329.67,-130.58"/>
<polygon fill="#63b8ff" stroke="#63b8ff" points="331.4,-133.63 338.84,-126.09 328.32,-127.34 331.4,-133.63"/>
</a>
</g>
</g>
<!-- Node4&#45;&gt;Node11 -->
<g id="edge17_Node000004_Node000011" class="edge">
<title>Node4&#45;&gt;Node11</title>
<g id="a_edge17_Node000004_Node000011"><a xlink:title=" ">
<path fill="none" stroke="#63b8ff" d="M231.39,-210.83C244.9,-182.66 277.48,-121.95 322,-87 323.76,-85.62 325.6,-84.31 327.52,-83.07"/>
<polygon fill="#63b8ff" stroke="#63b8ff" points="329.32,-86.07 336.25,-78.06 325.83,-80 329.32,-86.07"/>
</a>
</g>
</g>
<!-- Node4&#45;&gt;Node12 -->
<g id="edge19_Node000004_Node000012" class="edge">
<title>Node4&#45;&gt;Node12</title>
<g id="a_edge19_Node000004_Node000012"><a xlink:title=" ">
<path fill="none" stroke="#63b8ff" d="M228.41,-210.88C238.21,-175.83 267.08,-88.26 322,-39 323.32,-37.82 324.7,-36.69 326.14,-35.61"/>
<polygon fill="#63b8ff" stroke="#63b8ff" points="328.33,-38.37 334.86,-30.02 324.55,-32.47 328.33,-38.37"/>
</a>
</g>
</g>
<!-- Node5&#45;&gt;Node3 -->
<g id="edge6_Node000005_Node000003" class="edge">
<title>Node5&#45;&gt;Node3</title>
<g id="a_edge6_Node000005_Node000003"><a xlink:title=" ">
<path fill="none" stroke="#63b8ff" d="M431.48,-335.98C436.92,-333.37 442.23,-330.38 447,-327 484.43,-300.46 516.88,-257.44 534.91,-230.76"/>
<polygon fill="#63b8ff" stroke="#63b8ff" points="537.85,-232.65 540.45,-222.38 532.01,-228.79 537.85,-232.65"/>
</a>
</g>
</g>
<!-- Node6&#45;&gt;Node3 -->
<g id="edge8_Node000006_Node000003" class="edge">
<title>Node6&#45;&gt;Node3</title>
<g id="a_edge8_Node000006_Node000003"><a xlink:title=" ">
<path fill="none" stroke="#63b8ff" d="M428.11,-287.9C434.56,-285.18 441.04,-282.19 447,-279 474.27,-264.42 502.92,-243.91 523.06,-228.51"/>
<polygon fill="#63b8ff" stroke="#63b8ff" points="525.38,-231.14 531.14,-222.25 521.09,-225.6 525.38,-231.14"/>
</a>
</g>
</g>
<!-- Node7&#45;&gt;Node3 -->
<g id="edge10_Node000007_Node000003" class="edge">
<title>Node7&#45;&gt;Node3</title>
<g id="a_edge10_Node000007_Node000003"><a xlink:title=" ">
<path fill="none" stroke="#63b8ff" d="M437.1,-239.94C453.48,-235.16 471.76,-229.83 488.75,-224.87"/>
<polygon fill="#63b8ff" stroke="#63b8ff" points="489.97,-228.16 498.59,-222 488.01,-221.44 489.97,-228.16"/>
</a>
</g>
</g>
<!-- Node8&#45;&gt;Node3 -->
<g id="edge12_Node000008_Node000003" class="edge">
<title>Node8&#45;&gt;Node3</title>
<g id="a_edge12_Node000008_Node000003"><a xlink:title=" ">
<path fill="none" stroke="#63b8ff" d="M447.22,-207C455.61,-207 464.3,-207 472.92,-207"/>
<polygon fill="#63b8ff" stroke="#63b8ff" points="472.97,-210.5 482.97,-207 472.97,-203.5 472.97,-210.5"/>
</a>
</g>
</g>
<!-- Node9&#45;&gt;Node3 -->
<g id="edge14_Node000009_Node000003" class="edge">
<title>Node9&#45;&gt;Node3</title>
<g id="a_edge14_Node000009_Node000003"><a xlink:title=" ">
<path fill="none" stroke="#63b8ff" d="M437.1,-174.06C453.48,-178.84 471.76,-184.17 488.75,-189.13"/>
<polygon fill="#63b8ff" stroke="#63b8ff" points="488.01,-192.56 498.59,-192 489.97,-185.84 488.01,-192.56"/>
</a>
</g>
</g>
<!-- Node10&#45;&gt;Node3 -->
<g id="edge16_Node000010_Node000003" class="edge">
<title>Node10&#45;&gt;Node3</title>
<g id="a_edge16_Node000010_Node000003"><a xlink:title=" ">
<path fill="none" stroke="#63b8ff" d="M428.11,-126.1C434.56,-128.82 441.04,-131.81 447,-135 474.27,-149.58 502.92,-170.09 523.06,-185.49"/>
<polygon fill="#63b8ff" stroke="#63b8ff" points="521.09,-188.4 531.14,-191.75 525.38,-182.86 521.09,-188.4"/>
</a>
</g>
</g>
<!-- Node11&#45;&gt;Node3 -->
<g id="edge18_Node000011_Node000003" class="edge">
<title>Node11&#45;&gt;Node3</title>
<g id="a_edge18_Node000011_Node000003"><a xlink:title=" ">
<path fill="none" stroke="#63b8ff" d="M431.48,-78.02C436.92,-80.63 442.23,-83.62 447,-87 484.43,-113.54 516.88,-156.56 534.91,-183.24"/>
<polygon fill="#63b8ff" stroke="#63b8ff" points="532.01,-185.21 540.45,-191.62 537.85,-181.35 532.01,-185.21"/>
</a>
</g>
</g>
<!-- Node12&#45;&gt;Node3 -->
<g id="edge20_Node000012_Node000003" class="edge">
<title>Node12&#45;&gt;Node3</title>
<g id="a_edge20_Node000012_Node000003"><a xlink:title=" ">
<path fill="none" stroke="#63b8ff" d="M433.59,-30.13C438.38,-32.68 442.96,-35.62 447,-39 494.5,-78.72 526.32,-146.25 540.89,-182.41"/>
<polygon fill="#63b8ff" stroke="#63b8ff" points="537.63,-183.69 544.54,-191.73 544.15,-181.14 537.63,-183.69"/>
</a>
</g>
</g>
</g>
</svg>
