<?xml version="1.0" encoding="UTF-8" standalone="no"?>
<!DOCTYPE svg PUBLIC "-//W3C//DTD SVG 1.1//EN"
 "http://www.w3.org/Graphics/SVG/1.1/DTD/svg11.dtd">
<!-- Generated by graphviz version 2.43.0 (0)
 -->
<!-- Title: lci::get_default_net_context_x::runtime Pages: 1 -->
<svg width="585pt" height="86pt"
 viewBox="0.00 0.00 585.00 86.00" xmlns="http://www.w3.org/2000/svg" xmlns:xlink="http://www.w3.org/1999/xlink">
<g id="graph0" class="graph" transform="scale(1 1) rotate(0) translate(4 82)">
<title>lci::get_default_net_context_x::runtime</title>
<!-- Node1 -->
<g id="Node000001" class="node">
<title>Node1</title>
<g id="a_Node000001"><a xlink:title=" ">
<polygon fill="#999999" stroke="#666666" points="577,-54 463,-54 463,-24 577,-24 577,-54"/>
<text text-anchor="start" x="471" y="-42" font-family="Helvetica,sans-Serif" font-size="10.00">lci::get_default_net</text>
<text text-anchor="middle" x="520" y="-31" font-family="Helvetica,sans-Serif" font-size="10.00">_context_x::runtime</text>
</a>
</g>
</g>
<!-- Node2 -->
<g id="Node000002" class="node">
<title>Node2</title>
<g id="a_Node000002"><a xlink:href="../../d7/d1c/classlci_1_1get__default__net__context__x.html#ac47b3559a92c4dcbdcaf511b376fccb9" target="_top" xlink:title=" ">
<polygon fill="white" stroke="#666666" points="271,-54 161,-54 161,-24 271,-24 271,-54"/>
<text text-anchor="start" x="169" y="-42" font-family="Helvetica,sans-Serif" font-size="10.00">lci::get_default_net</text>
<text text-anchor="middle" x="216" y="-31" font-family="Helvetica,sans-Serif" font-size="10.00">_context_x::call</text>
</a>
</g>
</g>
<!-- Node1&#45;&gt;Node2 -->
<g id="edge1_Node000001_Node000002" class="edge">
<title>Node1&#45;&gt;Node2</title>
<g id="a_edge1_Node000001_Node000002"><a xlink:title=" ">
<path fill="none" stroke="#63b8ff" d="M452.55,-41.42C443.95,-41.66 435.27,-41.87 427,-42 373.67,-42.87 360.33,-42.89 307,-42 295.43,-41.81 283.03,-41.48 271.25,-41.1"/>
<polygon fill="#63b8ff" stroke="#63b8ff" points="452.68,-44.92 462.57,-41.13 452.47,-37.93 452.68,-44.92"/>
</a>
</g>
</g>
<!-- Node5 -->
<g id="Node000005" class="node">
<title>Node5</title>
<g id="a_Node000005"><a xlink:href="../../d7/d1c/classlci_1_1get__default__net__context__x.html#ab4f78e22015086ef84d163efe079d4f0" target="_top" xlink:title=" ">
<polygon fill="white" stroke="#666666" points="427,-33 307,-33 307,-3 427,-3 427,-33"/>
<text text-anchor="start" x="315" y="-21" font-family="Helvetica,sans-Serif" font-size="10.00">lci::get_default_net</text>
<text text-anchor="middle" x="367" y="-10" font-family="Helvetica,sans-Serif" font-size="10.00">_context_x::call_impl</text>
</a>
</g>
</g>
<!-- Node1&#45;&gt;Node5 -->
<g id="edge4_Node000001_Node000005" class="edge">
<title>Node1&#45;&gt;Node5</title>
<g id="a_edge4_Node000001_Node000005"><a xlink:title=" ">
<path fill="none" stroke="#63b8ff" d="M452.81,-29.79C444.24,-28.6 435.5,-27.39 427.05,-26.21"/>
<polygon fill="#63b8ff" stroke="#63b8ff" points="452.39,-33.27 462.77,-31.18 453.35,-26.34 452.39,-33.27"/>
</a>
</g>
</g>
<!-- Node3 -->
<g id="Node000003" class="node">
<title>Node3</title>
<g id="a_Node000003"><a xlink:href="../../d5/dd3/namespacelci.html#a8176d8068b0e5b405250c5a8d33cd22b" target="_top" xlink:title=" ">
<polygon fill="white" stroke="#666666" points="117.5,-78 7.5,-78 7.5,-48 117.5,-48 117.5,-78"/>
<text text-anchor="start" x="15.5" y="-66" font-family="Helvetica,sans-Serif" font-size="10.00">lci::get_default_net</text>
<text text-anchor="middle" x="62.5" y="-55" font-family="Helvetica,sans-Serif" font-size="10.00">_context</text>
</a>
</g>
</g>
<!-- Node2&#45;&gt;Node3 -->
<g id="edge2_Node000002_Node000003" class="edge">
<title>Node2&#45;&gt;Node3</title>
<g id="a_edge2_Node000002_Node000003"><a xlink:title=" ">
<path fill="none" stroke="#63b8ff" d="M150.73,-49.18C139.71,-50.93 128.36,-52.72 117.64,-54.42"/>
<polygon fill="#63b8ff" stroke="#63b8ff" points="151.4,-52.62 160.73,-47.6 150.31,-45.7 151.4,-52.62"/>
</a>
</g>
</g>
<!-- Node4 -->
<g id="Node000004" class="node">
<title>Node4</title>
<g id="a_Node000004"><a xlink:href="../../d7/d1c/classlci_1_1get__default__net__context__x.html#a48e890288533023620d8177eb2da51b9" target="_top" xlink:title=" ">
<polygon fill="white" stroke="#666666" points="125,-30 0,-30 0,0 125,0 125,-30"/>
<text text-anchor="start" x="8" y="-18" font-family="Helvetica,sans-Serif" font-size="10.00">lci::get_default_net</text>
<text text-anchor="middle" x="62.5" y="-7" font-family="Helvetica,sans-Serif" font-size="10.00">_context_x::operator()</text>
</a>
</g>
</g>
<!-- Node2&#45;&gt;Node4 -->
<g id="edge3_Node000002_Node000004" class="edge">
<title>Node2&#45;&gt;Node4</title>
<g id="a_edge3_Node000002_Node000004"><a xlink:title=" ">
<path fill="none" stroke="#63b8ff" d="M150.84,-28.84C142.32,-27.49 133.59,-26.1 125.11,-24.76"/>
<polygon fill="#63b8ff" stroke="#63b8ff" points="150.31,-32.3 160.73,-30.4 151.4,-25.38 150.31,-32.3"/>
</a>
</g>
</g>
<!-- Node5&#45;&gt;Node2 -->
<g id="edge5_Node000005_Node000002" class="edge">
<title>Node5&#45;&gt;Node2</title>
<g id="a_edge5_Node000005_Node000002"><a xlink:title=" ">
<path fill="none" stroke="#63b8ff" d="M296.73,-27.76C288.19,-28.97 279.55,-30.18 271.28,-31.35"/>
<polygon fill="#63b8ff" stroke="#63b8ff" points="297.27,-31.22 306.68,-26.36 296.29,-24.29 297.27,-31.22"/>
</a>
</g>
</g>
</g>
</svg>
