<?xml version="1.0" encoding="UTF-8" standalone="no"?>
<!DOCTYPE svg PUBLIC "-//W3C//DTD SVG 1.1//EN"
 "http://www.w3.org/Graphics/SVG/1.1/DTD/svg11.dtd">
<!-- Generated by graphviz version 2.43.0 (0)
 -->
<!-- Title: lci::free_device_x::call Pages: 1 -->
<svg width="524pt" height="86pt"
 viewBox="0.00 0.00 524.00 86.00" xmlns="http://www.w3.org/2000/svg" xmlns:xlink="http://www.w3.org/1999/xlink">
<g id="graph0" class="graph" transform="scale(1 1) rotate(0) translate(4 82)">
<title>lci::free_device_x::call</title>
<!-- Node1 -->
<g id="Node000001" class="node">
<title>Node1</title>
<g id="a_Node000001"><a xlink:title=" ">
<polygon fill="#999999" stroke="#666666" points="102,-54 0,-54 0,-24 102,-24 102,-54"/>
<text text-anchor="start" x="8" y="-42" font-family="Helvetica,sans-Serif" font-size="10.00">lci::free_device_x</text>
<text text-anchor="middle" x="51" y="-31" font-family="Helvetica,sans-Serif" font-size="10.00">::call</text>
</a>
</g>
</g>
<!-- Node2 -->
<g id="Node000002" class="node">
<title>Node2</title>
<g id="a_Node000002"><a xlink:href="../../d1/d36/classlci_1_1free__device__x.html#a0de8e66ad2fdbd4dc4fee793b6ab4a0f" target="_top" xlink:title=" ">
<polygon fill="white" stroke="#666666" points="240,-54 138,-54 138,-24 240,-24 240,-54"/>
<text text-anchor="start" x="146" y="-42" font-family="Helvetica,sans-Serif" font-size="10.00">lci::free_device_x</text>
<text text-anchor="middle" x="189" y="-31" font-family="Helvetica,sans-Serif" font-size="10.00">::call_impl</text>
</a>
</g>
</g>
<!-- Node1&#45;&gt;Node2 -->
<g id="edge1_Node000001_Node000002" class="edge">
<title>Node1&#45;&gt;Node2</title>
<g id="a_edge1_Node000001_Node000002"><a xlink:title=" ">
<path fill="none" stroke="#63b8ff" d="M102.25,-39C110.54,-39 119.2,-39 127.7,-39"/>
<polygon fill="#63b8ff" stroke="#63b8ff" points="127.95,-42.5 137.95,-39 127.95,-35.5 127.95,-42.5"/>
</a>
</g>
</g>
<!-- Node3 -->
<g id="Node000003" class="node">
<title>Node3</title>
<g id="a_Node000003"><a xlink:href="../../d1/d36/classlci_1_1free__device__x.html#a2b652115537683eb6b286ed357d6a41a" target="_top" xlink:title=" ">
<polygon fill="white" stroke="#666666" points="378,-78 276,-78 276,-48 378,-48 378,-78"/>
<text text-anchor="start" x="284" y="-66" font-family="Helvetica,sans-Serif" font-size="10.00">lci::free_device_x</text>
<text text-anchor="middle" x="327" y="-55" font-family="Helvetica,sans-Serif" font-size="10.00">::device</text>
</a>
</g>
</g>
<!-- Node1&#45;&gt;Node3 -->
<g id="edge6_Node000001_Node000003" class="edge">
<title>Node1&#45;&gt;Node3</title>
<g id="a_edge6_Node000001_Node000003"><a xlink:title=" ">
<path fill="none" stroke="#63b8ff" d="M97.04,-54.05C110.1,-57.74 124.49,-61.15 138,-63 180.42,-68.81 228.72,-68.66 265.75,-67.14"/>
<polygon fill="#63b8ff" stroke="#63b8ff" points="266.04,-70.63 275.88,-66.68 265.73,-63.64 266.04,-70.63"/>
</a>
</g>
</g>
<!-- Node5 -->
<g id="Node000005" class="node">
<title>Node5</title>
<g id="a_Node000005"><a xlink:href="../../d1/d36/classlci_1_1free__device__x.html#af6b679dfadc6ce5d59e979cfd8e4f64a" target="_top" xlink:title=" ">
<polygon fill="white" stroke="#666666" points="378,-30 276,-30 276,0 378,0 378,-30"/>
<text text-anchor="start" x="284" y="-18" font-family="Helvetica,sans-Serif" font-size="10.00">lci::free_device_x</text>
<text text-anchor="middle" x="327" y="-7" font-family="Helvetica,sans-Serif" font-size="10.00">::runtime</text>
</a>
</g>
</g>
<!-- Node1&#45;&gt;Node5 -->
<g id="edge7_Node000001_Node000005" class="edge">
<title>Node1&#45;&gt;Node5</title>
<g id="a_edge7_Node000001_Node000005"><a xlink:title=" ">
<path fill="none" stroke="#63b8ff" d="M97.04,-23.95C110.1,-20.26 124.49,-16.85 138,-15 180.42,-9.19 228.72,-9.34 265.75,-10.86"/>
<polygon fill="#63b8ff" stroke="#63b8ff" points="265.73,-14.36 275.88,-11.32 266.04,-7.37 265.73,-14.36"/>
</a>
</g>
</g>
<!-- Node2&#45;&gt;Node3 -->
<g id="edge2_Node000002_Node000003" class="edge">
<title>Node2&#45;&gt;Node3</title>
<g id="a_edge2_Node000002_Node000003"><a xlink:title=" ">
<path fill="none" stroke="#63b8ff" d="M240.25,-47.87C248.63,-49.35 257.39,-50.89 265.98,-52.41"/>
<polygon fill="#63b8ff" stroke="#63b8ff" points="265.5,-55.88 275.95,-54.17 266.71,-48.98 265.5,-55.88"/>
</a>
</g>
</g>
<!-- Node2&#45;&gt;Node5 -->
<g id="edge4_Node000002_Node000005" class="edge">
<title>Node2&#45;&gt;Node5</title>
<g id="a_edge4_Node000002_Node000005"><a xlink:title=" ">
<path fill="none" stroke="#63b8ff" d="M240.25,-30.13C248.63,-28.65 257.39,-27.11 265.98,-25.59"/>
<polygon fill="#63b8ff" stroke="#63b8ff" points="266.71,-29.02 275.95,-23.83 265.5,-22.12 266.71,-29.02"/>
</a>
</g>
</g>
<!-- Node4 -->
<g id="Node000004" class="node">
<title>Node4</title>
<g id="a_Node000004"><a xlink:href="../../d1/d36/classlci_1_1free__device__x.html#acf7a2e638e723f7a659bf039d8673190" target="_top" xlink:title=" ">
<polygon fill="white" stroke="#666666" points="516,-54 414,-54 414,-24 516,-24 516,-54"/>
<text text-anchor="start" x="422" y="-42" font-family="Helvetica,sans-Serif" font-size="10.00">lci::free_device_x</text>
<text text-anchor="middle" x="465" y="-31" font-family="Helvetica,sans-Serif" font-size="10.00">::free_device_x</text>
</a>
</g>
</g>
<!-- Node3&#45;&gt;Node4 -->
<g id="edge3_Node000003_Node000004" class="edge">
<title>Node3&#45;&gt;Node4</title>
<g id="a_edge3_Node000003_Node000004"><a xlink:title=" ">
<path fill="none" stroke="#63b8ff" d="M378.25,-54.13C386.63,-52.65 395.39,-51.11 403.98,-49.59"/>
<polygon fill="#63b8ff" stroke="#63b8ff" points="404.71,-53.02 413.95,-47.83 403.5,-46.12 404.71,-53.02"/>
</a>
</g>
</g>
<!-- Node5&#45;&gt;Node4 -->
<g id="edge5_Node000005_Node000004" class="edge">
<title>Node5&#45;&gt;Node4</title>
<g id="a_edge5_Node000005_Node000004"><a xlink:title=" ">
<path fill="none" stroke="#63b8ff" d="M378.25,-23.87C386.63,-25.35 395.39,-26.89 403.98,-28.41"/>
<polygon fill="#63b8ff" stroke="#63b8ff" points="403.5,-31.88 413.95,-30.17 404.71,-24.98 403.5,-31.88"/>
</a>
</g>
</g>
</g>
</svg>
