<?xml version="1.0" encoding="UTF-8" standalone="no"?>
<!DOCTYPE svg PUBLIC "-//W3C//DTD SVG 1.1//EN"
 "http://www.w3.org/Graphics/SVG/1.1/DTD/svg11.dtd">
<!-- Generated by graphviz version 2.43.0 (0)
 -->
<!-- Title: lci::get_default_endpoint_x::runtime Pages: 1 -->
<svg width="664pt" height="76pt"
 viewBox="0.00 0.00 664.00 75.50" xmlns="http://www.w3.org/2000/svg" xmlns:xlink="http://www.w3.org/1999/xlink">
<g id="graph0" class="graph" transform="scale(1 1) rotate(0) translate(4 71.5)">
<title>lci::get_default_endpoint_x::runtime</title>
<!-- Node1 -->
<g id="Node000001" class="node">
<title>Node1</title>
<g id="a_Node000001"><a xlink:title=" ">
<polygon fill="#999999" stroke="#666666" points="656,-51 519,-51 519,-21 656,-21 656,-51"/>
<text text-anchor="start" x="527" y="-39" font-family="Helvetica,sans-Serif" font-size="10.00">lci::get_default_endpoint</text>
<text text-anchor="middle" x="587.5" y="-28" font-family="Helvetica,sans-Serif" font-size="10.00">_x::runtime</text>
</a>
</g>
</g>
<!-- Node2 -->
<g id="Node000002" class="node">
<title>Node2</title>
<g id="a_Node000002"><a xlink:href="../../df/d43/classlci_1_1get__default__endpoint__x.html#a58556b4bdc63a366564dd9a1eead52a9" target="_top" xlink:title=" ">
<polygon fill="white" stroke="#666666" points="310,-51 173,-51 173,-21 310,-21 310,-51"/>
<text text-anchor="start" x="181" y="-39" font-family="Helvetica,sans-Serif" font-size="10.00">lci::get_default_endpoint</text>
<text text-anchor="middle" x="241.5" y="-28" font-family="Helvetica,sans-Serif" font-size="10.00">_x::call</text>
</a>
</g>
</g>
<!-- Node1&#45;&gt;Node2 -->
<g id="edge1_Node000001_Node000002" class="edge">
<title>Node1&#45;&gt;Node2</title>
<g id="a_edge1_Node000001_Node000002"><a xlink:title=" ">
<path fill="none" stroke="#63b8ff" d="M508.72,-38.5C500.04,-38.7 491.33,-38.88 483,-39 422.12,-39.88 406.88,-39.88 346,-39 334.41,-38.83 322.08,-38.56 310.14,-38.24"/>
<polygon fill="#63b8ff" stroke="#63b8ff" points="508.95,-41.99 518.86,-38.24 508.78,-35 508.95,-41.99"/>
</a>
</g>
</g>
<!-- Node5 -->
<g id="Node000005" class="node">
<title>Node5</title>
<g id="a_Node000005"><a xlink:href="../../df/d43/classlci_1_1get__default__endpoint__x.html#a1e5bd3bc524eeaafaca1e8b439dbbb6b" target="_top" xlink:title=" ">
<polygon fill="white" stroke="#666666" points="483,-30 346,-30 346,0 483,0 483,-30"/>
<text text-anchor="start" x="354" y="-18" font-family="Helvetica,sans-Serif" font-size="10.00">lci::get_default_endpoint</text>
<text text-anchor="middle" x="414.5" y="-7" font-family="Helvetica,sans-Serif" font-size="10.00">_x::call_impl</text>
</a>
</g>
</g>
<!-- Node1&#45;&gt;Node5 -->
<g id="edge4_Node000001_Node000005" class="edge">
<title>Node1&#45;&gt;Node5</title>
<g id="a_edge4_Node000001_Node000005"><a xlink:title=" ">
<path fill="none" stroke="#63b8ff" d="M508.9,-26.47C500.31,-25.42 491.61,-24.35 483.15,-23.31"/>
<polygon fill="#63b8ff" stroke="#63b8ff" points="508.56,-29.96 518.92,-27.7 509.42,-23.01 508.56,-29.96"/>
</a>
</g>
</g>
<!-- Node3 -->
<g id="Node000003" class="node">
<title>Node3</title>
<g id="a_Node000003"><a xlink:href="../../d5/dd3/namespacelci.html#ac77557d1d9e46f3f85366b89ddff3c6d" target="_top" xlink:title=" ">
<polygon fill="white" stroke="#666666" points="137,-67.5 0,-67.5 0,-48.5 137,-48.5 137,-67.5"/>
<text text-anchor="middle" x="68.5" y="-55.5" font-family="Helvetica,sans-Serif" font-size="10.00">lci::get_default_endpoint</text>
</a>
</g>
</g>
<!-- Node2&#45;&gt;Node3 -->
<g id="edge2_Node000002_Node000003" class="edge">
<title>Node2&#45;&gt;Node3</title>
<g id="a_edge2_Node000002_Node000003"><a xlink:title=" ">
<path fill="none" stroke="#63b8ff" d="M162.9,-45.98C154.31,-47.09 145.61,-48.21 137.15,-49.3"/>
<polygon fill="#63b8ff" stroke="#63b8ff" points="163.44,-49.44 172.92,-44.69 162.55,-42.5 163.44,-49.44"/>
</a>
</g>
</g>
<!-- Node4 -->
<g id="Node000004" class="node">
<title>Node4</title>
<g id="a_Node000004"><a xlink:href="../../df/d43/classlci_1_1get__default__endpoint__x.html#a559ab21de2f80502213c3bb0d9e9d494" target="_top" xlink:title=" ">
<polygon fill="white" stroke="#666666" points="137,-30 0,-30 0,0 137,0 137,-30"/>
<text text-anchor="start" x="8" y="-18" font-family="Helvetica,sans-Serif" font-size="10.00">lci::get_default_endpoint</text>
<text text-anchor="middle" x="68.5" y="-7" font-family="Helvetica,sans-Serif" font-size="10.00">_x::operator()</text>
</a>
</g>
</g>
<!-- Node2&#45;&gt;Node4 -->
<g id="edge3_Node000002_Node000004" class="edge">
<title>Node2&#45;&gt;Node4</title>
<g id="a_edge3_Node000002_Node000004"><a xlink:title=" ">
<path fill="none" stroke="#63b8ff" d="M162.9,-26.47C154.31,-25.42 145.61,-24.35 137.15,-23.31"/>
<polygon fill="#63b8ff" stroke="#63b8ff" points="162.56,-29.96 172.92,-27.7 163.42,-23.01 162.56,-29.96"/>
</a>
</g>
</g>
<!-- Node5&#45;&gt;Node2 -->
<g id="edge5_Node000005_Node000002" class="edge">
<title>Node5&#45;&gt;Node2</title>
<g id="a_edge5_Node000005_Node000002"><a xlink:title=" ">
<path fill="none" stroke="#63b8ff" d="M335.9,-24.53C327.31,-25.58 318.61,-26.65 310.15,-27.69"/>
<polygon fill="#63b8ff" stroke="#63b8ff" points="336.42,-27.99 345.92,-23.3 335.56,-21.04 336.42,-27.99"/>
</a>
</g>
</g>
</g>
</svg>
