<?xml version="1.0" encoding="UTF-8" standalone="no"?>
<!DOCTYPE svg PUBLIC "-//W3C//DTD SVG 1.1//EN"
 "http://www.w3.org/Graphics/SVG/1.1/DTD/svg11.dtd">
<!-- Generated by graphviz version 2.43.0 (0)
 -->
<!-- Title: lci::alloc_packet_pool_x::call_impl Pages: 1 -->
<svg width="454pt" height="182pt"
 viewBox="0.00 0.00 454.00 182.00" xmlns="http://www.w3.org/2000/svg" xmlns:xlink="http://www.w3.org/1999/xlink">
<g id="graph0" class="graph" transform="scale(1 1) rotate(0) translate(4 178)">
<title>lci::alloc_packet_pool_x::call_impl</title>
<!-- Node1 -->
<g id="Node000001" class="node">
<title>Node1</title>
<g id="a_Node000001"><a xlink:title=" ">
<polygon fill="#999999" stroke="#666666" points="121,-102 0,-102 0,-72 121,-72 121,-102"/>
<text text-anchor="start" x="8" y="-90" font-family="Helvetica,sans-Serif" font-size="10.00">lci::alloc_packet_pool</text>
<text text-anchor="middle" x="60.5" y="-79" font-family="Helvetica,sans-Serif" font-size="10.00">_x::call_impl</text>
</a>
</g>
</g>
<!-- Node2 -->
<g id="Node000002" class="node">
<title>Node2</title>
<g id="a_Node000002"><a xlink:href="../../d7/dc4/classlci_1_1alloc__packet__pool__x.html#a56908abd9c45b04a24253477caa1b23d" target="_top" xlink:title=" ">
<polygon fill="white" stroke="#666666" points="278,-174 157,-174 157,-144 278,-144 278,-174"/>
<text text-anchor="start" x="165" y="-162" font-family="Helvetica,sans-Serif" font-size="10.00">lci::alloc_packet_pool</text>
<text text-anchor="middle" x="217.5" y="-151" font-family="Helvetica,sans-Serif" font-size="10.00">_x::npackets</text>
</a>
</g>
</g>
<!-- Node1&#45;&gt;Node2 -->
<g id="edge1_Node000001_Node000002" class="edge">
<title>Node1&#45;&gt;Node2</title>
<g id="a_edge1_Node000001_Node000002"><a xlink:title=" ">
<path fill="none" stroke="#63b8ff" d="M90.04,-102.12C108.86,-111.9 134.17,-124.68 157,-135 160.77,-136.7 164.69,-138.42 168.65,-140.1"/>
<polygon fill="#63b8ff" stroke="#63b8ff" points="167.32,-143.34 177.9,-143.97 170.02,-136.88 167.32,-143.34"/>
</a>
</g>
</g>
<!-- Node4 -->
<g id="Node000004" class="node">
<title>Node4</title>
<g id="a_Node000004"><a xlink:href="../../d7/dc4/classlci_1_1alloc__packet__pool__x.html#a68a2e5285d0bf24dce79507297bcf060" target="_top" xlink:title=" ">
<polygon fill="white" stroke="#666666" points="278,-126 157,-126 157,-96 278,-96 278,-126"/>
<text text-anchor="start" x="165" y="-114" font-family="Helvetica,sans-Serif" font-size="10.00">lci::alloc_packet_pool</text>
<text text-anchor="middle" x="217.5" y="-103" font-family="Helvetica,sans-Serif" font-size="10.00">_x::packet_size</text>
</a>
</g>
</g>
<!-- Node1&#45;&gt;Node4 -->
<g id="edge3_Node000001_Node000004" class="edge">
<title>Node1&#45;&gt;Node4</title>
<g id="a_edge3_Node000001_Node000004"><a xlink:title=" ">
<path fill="none" stroke="#63b8ff" d="M121.43,-96.28C129.82,-97.58 138.49,-98.92 147.04,-100.24"/>
<polygon fill="#63b8ff" stroke="#63b8ff" points="146.57,-103.71 156.99,-101.79 147.64,-96.8 146.57,-103.71"/>
</a>
</g>
</g>
<!-- Node5 -->
<g id="Node000005" class="node">
<title>Node5</title>
<g id="a_Node000005"><a xlink:href="../../d7/dc4/classlci_1_1alloc__packet__pool__x.html#aa729d4d710daac187aa1bbcd4f640dcb" target="_top" xlink:title=" ">
<polygon fill="white" stroke="#666666" points="278,-78 157,-78 157,-48 278,-48 278,-78"/>
<text text-anchor="start" x="165" y="-66" font-family="Helvetica,sans-Serif" font-size="10.00">lci::alloc_packet_pool</text>
<text text-anchor="middle" x="217.5" y="-55" font-family="Helvetica,sans-Serif" font-size="10.00">_x::runtime</text>
</a>
</g>
</g>
<!-- Node1&#45;&gt;Node5 -->
<g id="edge5_Node000001_Node000005" class="edge">
<title>Node1&#45;&gt;Node5</title>
<g id="a_edge5_Node000001_Node000005"><a xlink:title=" ">
<path fill="none" stroke="#63b8ff" d="M121.43,-77.72C129.82,-76.42 138.49,-75.08 147.04,-73.76"/>
<polygon fill="#63b8ff" stroke="#63b8ff" points="147.64,-77.2 156.99,-72.21 146.57,-70.29 147.64,-77.2"/>
</a>
</g>
</g>
<!-- Node6 -->
<g id="Node000006" class="node">
<title>Node6</title>
<g id="a_Node000006"><a xlink:href="../../d7/dc4/classlci_1_1alloc__packet__pool__x.html#a5b1a895bcd18e6ae997c597b022aa6e2" target="_top" xlink:title=" ">
<polygon fill="white" stroke="#666666" points="278,-30 157,-30 157,0 278,0 278,-30"/>
<text text-anchor="start" x="165" y="-18" font-family="Helvetica,sans-Serif" font-size="10.00">lci::alloc_packet_pool</text>
<text text-anchor="middle" x="217.5" y="-7" font-family="Helvetica,sans-Serif" font-size="10.00">_x::user_context</text>
</a>
</g>
</g>
<!-- Node1&#45;&gt;Node6 -->
<g id="edge7_Node000001_Node000006" class="edge">
<title>Node1&#45;&gt;Node6</title>
<g id="a_edge7_Node000001_Node000006"><a xlink:title=" ">
<path fill="none" stroke="#63b8ff" d="M90.04,-71.88C108.86,-62.1 134.17,-49.32 157,-39 160.77,-37.3 164.69,-35.58 168.65,-33.9"/>
<polygon fill="#63b8ff" stroke="#63b8ff" points="170.02,-37.12 177.9,-30.03 167.32,-30.66 170.02,-37.12"/>
</a>
</g>
</g>
<!-- Node3 -->
<g id="Node000003" class="node">
<title>Node3</title>
<g id="a_Node000003"><a xlink:href="../../d7/dc4/classlci_1_1alloc__packet__pool__x.html#a27e32f2a730b17fc35e8a1adc5fd8b7a" target="_top" xlink:title=" ">
<polygon fill="white" stroke="#666666" points="446,-102 314,-102 314,-72 446,-72 446,-102"/>
<text text-anchor="start" x="322" y="-90" font-family="Helvetica,sans-Serif" font-size="10.00">lci::alloc_packet_pool</text>
<text text-anchor="middle" x="380" y="-79" font-family="Helvetica,sans-Serif" font-size="10.00">_x::alloc_packet_pool_x</text>
</a>
</g>
</g>
<!-- Node2&#45;&gt;Node3 -->
<g id="edge2_Node000002_Node000003" class="edge">
<title>Node2&#45;&gt;Node3</title>
<g id="a_edge2_Node000002_Node000003"><a xlink:title=" ">
<path fill="none" stroke="#63b8ff" d="M256.73,-143.97C263.83,-141.07 271.17,-138 278,-135 298.38,-126.06 320.76,-115.5 339.26,-106.56"/>
<polygon fill="#63b8ff" stroke="#63b8ff" points="340.81,-109.7 348.28,-102.19 337.75,-103.41 340.81,-109.7"/>
</a>
</g>
</g>
<!-- Node4&#45;&gt;Node3 -->
<g id="edge4_Node000004_Node000003" class="edge">
<title>Node4&#45;&gt;Node3</title>
<g id="a_edge4_Node000004_Node000003"><a xlink:title=" ">
<path fill="none" stroke="#63b8ff" d="M278.26,-102.06C286.59,-100.82 295.24,-99.53 303.8,-98.24"/>
<polygon fill="#63b8ff" stroke="#63b8ff" points="304.43,-101.69 313.8,-96.75 303.39,-94.77 304.43,-101.69"/>
</a>
</g>
</g>
<!-- Node5&#45;&gt;Node3 -->
<g id="edge6_Node000005_Node000003" class="edge">
<title>Node5&#45;&gt;Node3</title>
<g id="a_edge6_Node000005_Node000003"><a xlink:title=" ">
<path fill="none" stroke="#63b8ff" d="M278.26,-71.94C286.59,-73.18 295.24,-74.47 303.8,-75.76"/>
<polygon fill="#63b8ff" stroke="#63b8ff" points="303.39,-79.23 313.8,-77.25 304.43,-72.31 303.39,-79.23"/>
</a>
</g>
</g>
<!-- Node6&#45;&gt;Node3 -->
<g id="edge8_Node000006_Node000003" class="edge">
<title>Node6&#45;&gt;Node3</title>
<g id="a_edge8_Node000006_Node000003"><a xlink:title=" ">
<path fill="none" stroke="#63b8ff" d="M256.73,-30.03C263.83,-32.93 271.17,-36 278,-39 298.38,-47.94 320.76,-58.5 339.26,-67.44"/>
<polygon fill="#63b8ff" stroke="#63b8ff" points="337.75,-70.59 348.28,-71.81 340.81,-64.3 337.75,-70.59"/>
</a>
</g>
</g>
</g>
</svg>
