<?xml version="1.0" encoding="UTF-8" standalone="no"?>
<!DOCTYPE svg PUBLIC "-//W3C//DTD SVG 1.1//EN"
 "http://www.w3.org/Graphics/SVG/1.1/DTD/svg11.dtd">
<!-- Generated by graphviz version 2.43.0 (0)
 -->
<!-- Title: lci::alloc_packet_pool_x::call_impl Pages: 1 -->
<svg width="454pt" height="230pt"
 viewBox="0.00 0.00 454.00 230.00" xmlns="http://www.w3.org/2000/svg" xmlns:xlink="http://www.w3.org/1999/xlink">
<g id="graph0" class="graph" transform="scale(1 1) rotate(0) translate(4 226)">
<title>lci::alloc_packet_pool_x::call_impl</title>
<!-- Node1 -->
<g id="Node000001" class="node">
<title>Node1</title>
<g id="a_Node000001"><a xlink:title=" ">
<polygon fill="#999999" stroke="#666666" points="121,-126 0,-126 0,-96 121,-96 121,-126"/>
<text text-anchor="start" x="8" y="-114" font-family="Helvetica,sans-Serif" font-size="10.00">lci::alloc_packet_pool</text>
<text text-anchor="middle" x="60.5" y="-103" font-family="Helvetica,sans-Serif" font-size="10.00">_x::call_impl</text>
</a>
</g>
</g>
<!-- Node2 -->
<g id="Node000002" class="node">
<title>Node2</title>
<g id="a_Node000002"><a xlink:href="../../d7/dc4/classlci_1_1alloc__packet__pool__x.html#a8ca763f6785808d741e2176291496a90" target="_top" xlink:title=" ">
<polygon fill="white" stroke="#666666" points="278,-222 157,-222 157,-192 278,-192 278,-222"/>
<text text-anchor="start" x="165" y="-210" font-family="Helvetica,sans-Serif" font-size="10.00">lci::alloc_packet_pool</text>
<text text-anchor="middle" x="217.5" y="-199" font-family="Helvetica,sans-Serif" font-size="10.00">_x::name</text>
</a>
</g>
</g>
<!-- Node1&#45;&gt;Node2 -->
<g id="edge1_Node000001_Node000002" class="edge">
<title>Node1&#45;&gt;Node2</title>
<g id="a_edge1_Node000001_Node000002"><a xlink:title=" ">
<path fill="none" stroke="#63b8ff" d="M78.49,-126.01C96.88,-141.7 127.54,-166.34 157,-183 159.86,-184.62 162.85,-186.18 165.91,-187.68"/>
<polygon fill="#63b8ff" stroke="#63b8ff" points="164.64,-190.95 175.19,-191.98 167.59,-184.6 164.64,-190.95"/>
</a>
</g>
</g>
<!-- Node4 -->
<g id="Node000004" class="node">
<title>Node4</title>
<g id="a_Node000004"><a xlink:href="../../d7/dc4/classlci_1_1alloc__packet__pool__x.html#a56908abd9c45b04a24253477caa1b23d" target="_top" xlink:title=" ">
<polygon fill="white" stroke="#666666" points="278,-174 157,-174 157,-144 278,-144 278,-174"/>
<text text-anchor="start" x="165" y="-162" font-family="Helvetica,sans-Serif" font-size="10.00">lci::alloc_packet_pool</text>
<text text-anchor="middle" x="217.5" y="-151" font-family="Helvetica,sans-Serif" font-size="10.00">_x::npackets</text>
</a>
</g>
</g>
<!-- Node1&#45;&gt;Node4 -->
<g id="edge3_Node000001_Node000004" class="edge">
<title>Node1&#45;&gt;Node4</title>
<g id="a_edge3_Node000001_Node000004"><a xlink:title=" ">
<path fill="none" stroke="#63b8ff" d="M110.12,-126.06C125.41,-130.79 142.45,-136.07 158.34,-140.99"/>
<polygon fill="#63b8ff" stroke="#63b8ff" points="157.47,-144.38 168.05,-144 159.54,-137.7 157.47,-144.38"/>
</a>
</g>
</g>
<!-- Node5 -->
<g id="Node000005" class="node">
<title>Node5</title>
<g id="a_Node000005"><a xlink:href="../../d7/dc4/classlci_1_1alloc__packet__pool__x.html#a68a2e5285d0bf24dce79507297bcf060" target="_top" xlink:title=" ">
<polygon fill="white" stroke="#666666" points="278,-126 157,-126 157,-96 278,-96 278,-126"/>
<text text-anchor="start" x="165" y="-114" font-family="Helvetica,sans-Serif" font-size="10.00">lci::alloc_packet_pool</text>
<text text-anchor="middle" x="217.5" y="-103" font-family="Helvetica,sans-Serif" font-size="10.00">_x::packet_size</text>
</a>
</g>
</g>
<!-- Node1&#45;&gt;Node5 -->
<g id="edge5_Node000001_Node000005" class="edge">
<title>Node1&#45;&gt;Node5</title>
<g id="a_edge5_Node000001_Node000005"><a xlink:title=" ">
<path fill="none" stroke="#63b8ff" d="M121.43,-111C129.72,-111 138.31,-111 146.76,-111"/>
<polygon fill="#63b8ff" stroke="#63b8ff" points="146.99,-114.5 156.99,-111 146.99,-107.5 146.99,-114.5"/>
</a>
</g>
</g>
<!-- Node6 -->
<g id="Node000006" class="node">
<title>Node6</title>
<g id="a_Node000006"><a xlink:href="../../d7/dc4/classlci_1_1alloc__packet__pool__x.html#aa729d4d710daac187aa1bbcd4f640dcb" target="_top" xlink:title=" ">
<polygon fill="white" stroke="#666666" points="278,-78 157,-78 157,-48 278,-48 278,-78"/>
<text text-anchor="start" x="165" y="-66" font-family="Helvetica,sans-Serif" font-size="10.00">lci::alloc_packet_pool</text>
<text text-anchor="middle" x="217.5" y="-55" font-family="Helvetica,sans-Serif" font-size="10.00">_x::runtime</text>
</a>
</g>
</g>
<!-- Node1&#45;&gt;Node6 -->
<g id="edge7_Node000001_Node000006" class="edge">
<title>Node1&#45;&gt;Node6</title>
<g id="a_edge7_Node000001_Node000006"><a xlink:title=" ">
<path fill="none" stroke="#63b8ff" d="M110.12,-95.94C125.41,-91.21 142.45,-85.93 158.34,-81.01"/>
<polygon fill="#63b8ff" stroke="#63b8ff" points="159.54,-84.3 168.05,-78 157.47,-77.62 159.54,-84.3"/>
</a>
</g>
</g>
<!-- Node7 -->
<g id="Node000007" class="node">
<title>Node7</title>
<g id="a_Node000007"><a xlink:href="../../d7/dc4/classlci_1_1alloc__packet__pool__x.html#a5b1a895bcd18e6ae997c597b022aa6e2" target="_top" xlink:title=" ">
<polygon fill="white" stroke="#666666" points="278,-30 157,-30 157,0 278,0 278,-30"/>
<text text-anchor="start" x="165" y="-18" font-family="Helvetica,sans-Serif" font-size="10.00">lci::alloc_packet_pool</text>
<text text-anchor="middle" x="217.5" y="-7" font-family="Helvetica,sans-Serif" font-size="10.00">_x::user_context</text>
</a>
</g>
</g>
<!-- Node1&#45;&gt;Node7 -->
<g id="edge9_Node000001_Node000007" class="edge">
<title>Node1&#45;&gt;Node7</title>
<g id="a_edge9_Node000001_Node000007"><a xlink:title=" ">
<path fill="none" stroke="#63b8ff" d="M78.49,-95.99C96.88,-80.3 127.54,-55.66 157,-39 159.86,-37.38 162.85,-35.82 165.91,-34.32"/>
<polygon fill="#63b8ff" stroke="#63b8ff" points="167.59,-37.4 175.19,-30.02 164.64,-31.05 167.59,-37.4"/>
</a>
</g>
</g>
<!-- Node3 -->
<g id="Node000003" class="node">
<title>Node3</title>
<g id="a_Node000003"><a xlink:href="../../d7/dc4/classlci_1_1alloc__packet__pool__x.html#a27e32f2a730b17fc35e8a1adc5fd8b7a" target="_top" xlink:title=" ">
<polygon fill="white" stroke="#666666" points="446,-126 314,-126 314,-96 446,-96 446,-126"/>
<text text-anchor="start" x="322" y="-114" font-family="Helvetica,sans-Serif" font-size="10.00">lci::alloc_packet_pool</text>
<text text-anchor="middle" x="380" y="-103" font-family="Helvetica,sans-Serif" font-size="10.00">_x::alloc_packet_pool_x</text>
</a>
</g>
</g>
<!-- Node2&#45;&gt;Node3 -->
<g id="edge2_Node000002_Node000003" class="edge">
<title>Node2&#45;&gt;Node3</title>
<g id="a_edge2_Node000002_Node000003"><a xlink:title=" ">
<path fill="none" stroke="#63b8ff" d="M259.42,-191.99C265.76,-189.24 272.14,-186.21 278,-183 304.77,-168.33 332.86,-147.83 352.6,-132.46"/>
<polygon fill="#63b8ff" stroke="#63b8ff" points="354.83,-135.15 360.52,-126.21 350.5,-129.65 354.83,-135.15"/>
</a>
</g>
</g>
<!-- Node4&#45;&gt;Node3 -->
<g id="edge4_Node000004_Node000003" class="edge">
<title>Node4&#45;&gt;Node3</title>
<g id="a_edge4_Node000004_Node000003"><a xlink:title=" ">
<path fill="none" stroke="#63b8ff" d="M268.84,-143.94C284.83,-139.16 302.66,-133.83 319.24,-128.87"/>
<polygon fill="#63b8ff" stroke="#63b8ff" points="320.26,-132.22 328.84,-126 318.25,-125.51 320.26,-132.22"/>
</a>
</g>
</g>
<!-- Node5&#45;&gt;Node3 -->
<g id="edge6_Node000005_Node000003" class="edge">
<title>Node5&#45;&gt;Node3</title>
<g id="a_edge6_Node000005_Node000003"><a xlink:title=" ">
<path fill="none" stroke="#63b8ff" d="M278.26,-111C286.5,-111 295.05,-111 303.52,-111"/>
<polygon fill="#63b8ff" stroke="#63b8ff" points="303.8,-114.5 313.8,-111 303.8,-107.5 303.8,-114.5"/>
</a>
</g>
</g>
<!-- Node6&#45;&gt;Node3 -->
<g id="edge8_Node000006_Node000003" class="edge">
<title>Node6&#45;&gt;Node3</title>
<g id="a_edge8_Node000006_Node000003"><a xlink:title=" ">
<path fill="none" stroke="#63b8ff" d="M268.84,-78.06C284.83,-82.84 302.66,-88.17 319.24,-93.13"/>
<polygon fill="#63b8ff" stroke="#63b8ff" points="318.25,-96.49 328.84,-96 320.26,-89.78 318.25,-96.49"/>
</a>
</g>
</g>
<!-- Node7&#45;&gt;Node3 -->
<g id="edge10_Node000007_Node000003" class="edge">
<title>Node7&#45;&gt;Node3</title>
<g id="a_edge10_Node000007_Node000003"><a xlink:title=" ">
<path fill="none" stroke="#63b8ff" d="M259.42,-30.01C265.76,-32.76 272.14,-35.79 278,-39 304.77,-53.67 332.86,-74.17 352.6,-89.54"/>
<polygon fill="#63b8ff" stroke="#63b8ff" points="350.5,-92.35 360.52,-95.79 354.83,-86.85 350.5,-92.35"/>
</a>
</g>
</g>
</g>
</svg>
