<?xml version="1.0" encoding="UTF-8" standalone="no"?>
<!DOCTYPE svg PUBLIC "-//W3C//DTD SVG 1.1//EN"
 "http://www.w3.org/Graphics/SVG/1.1/DTD/svg11.dtd">
<!-- Generated by graphviz version 2.43.0 (0)
 -->
<!-- Title: lci::alloc_handler_x::alloc_handler_x Pages: 1 -->
<svg width="663pt" height="182pt"
 viewBox="0.00 0.00 663.00 182.00" xmlns="http://www.w3.org/2000/svg" xmlns:xlink="http://www.w3.org/1999/xlink">
<g id="graph0" class="graph" transform="scale(1 1) rotate(0) translate(4 178)">
<title>lci::alloc_handler_x::alloc_handler_x</title>
<!-- Node1 -->
<g id="Node000001" class="node">
<title>Node1</title>
<g id="a_Node000001"><a xlink:title=" ">
<polygon fill="#999999" stroke="#666666" points="655,-102 545,-102 545,-72 655,-72 655,-102"/>
<text text-anchor="start" x="553" y="-90" font-family="Helvetica,sans-Serif" font-size="10.00">lci::alloc_handler</text>
<text text-anchor="middle" x="600" y="-79" font-family="Helvetica,sans-Serif" font-size="10.00">_x::alloc_handler_x</text>
</a>
</g>
</g>
<!-- Node2 -->
<g id="Node000002" class="node">
<title>Node2</title>
<g id="a_Node000002"><a xlink:href="../../d7/d0f/classlci_1_1alloc__handler__x.html#a74c492d00d0420108aef0dd08c455584" target="_top" xlink:title=" ">
<polygon fill="white" stroke="#666666" points="506.5,-174 407.5,-174 407.5,-144 506.5,-144 506.5,-174"/>
<text text-anchor="start" x="415.5" y="-162" font-family="Helvetica,sans-Serif" font-size="10.00">lci::alloc_handler</text>
<text text-anchor="middle" x="457" y="-151" font-family="Helvetica,sans-Serif" font-size="10.00">_x::handler</text>
</a>
</g>
</g>
<!-- Node1&#45;&gt;Node2 -->
<g id="edge1_Node000001_Node000002" class="edge">
<title>Node1&#45;&gt;Node2</title>
<g id="a_edge1_Node000001_Node000002"><a xlink:title=" ">
<path fill="none" stroke="#63b8ff" d="M562.44,-107.03C546.18,-115.81 526.73,-126.11 509,-135 503.14,-137.94 496.85,-140.98 490.77,-143.88"/>
<polygon fill="#63b8ff" stroke="#63b8ff" points="564.49,-109.91 571.61,-102.07 561.15,-103.75 564.49,-109.91"/>
</a>
</g>
</g>
<!-- Node7 -->
<g id="Node000007" class="node">
<title>Node7</title>
<g id="a_Node000007"><a xlink:href="../../d7/d0f/classlci_1_1alloc__handler__x.html#ae233b40436dde8dc698934ea9b7ec5d9" target="_top" xlink:title=" ">
<polygon fill="white" stroke="#666666" points="506.5,-126 407.5,-126 407.5,-96 506.5,-96 506.5,-126"/>
<text text-anchor="start" x="415.5" y="-114" font-family="Helvetica,sans-Serif" font-size="10.00">lci::alloc_handler</text>
<text text-anchor="middle" x="457" y="-103" font-family="Helvetica,sans-Serif" font-size="10.00">_x::runtime</text>
</a>
</g>
</g>
<!-- Node1&#45;&gt;Node7 -->
<g id="edge7_Node000001_Node000007" class="edge">
<title>Node1&#45;&gt;Node7</title>
<g id="a_edge7_Node000001_Node000007"><a xlink:title=" ">
<path fill="none" stroke="#63b8ff" d="M534.74,-97.94C525.3,-99.54 515.71,-101.18 506.66,-102.72"/>
<polygon fill="#63b8ff" stroke="#63b8ff" points="535.62,-101.34 544.89,-96.21 534.44,-94.44 535.62,-101.34"/>
</a>
</g>
</g>
<!-- Node8 -->
<g id="Node000008" class="node">
<title>Node8</title>
<g id="a_Node000008"><a xlink:href="../../d7/d0f/classlci_1_1alloc__handler__x.html#ad126b5378856f59cf0d96e109bf5b8f6" target="_top" xlink:title=" ">
<polygon fill="white" stroke="#666666" points="506.5,-78 407.5,-78 407.5,-48 506.5,-48 506.5,-78"/>
<text text-anchor="start" x="415.5" y="-66" font-family="Helvetica,sans-Serif" font-size="10.00">lci::alloc_handler</text>
<text text-anchor="middle" x="457" y="-55" font-family="Helvetica,sans-Serif" font-size="10.00">_x::user_context</text>
</a>
</g>
</g>
<!-- Node1&#45;&gt;Node8 -->
<g id="edge10_Node000001_Node000008" class="edge">
<title>Node1&#45;&gt;Node8</title>
<g id="a_edge10_Node000001_Node000008"><a xlink:title=" ">
<path fill="none" stroke="#63b8ff" d="M534.74,-76.06C525.3,-74.46 515.71,-72.82 506.66,-71.28"/>
<polygon fill="#63b8ff" stroke="#63b8ff" points="534.44,-79.56 544.89,-77.79 535.62,-72.66 534.44,-79.56"/>
</a>
</g>
</g>
<!-- Node9 -->
<g id="Node000009" class="node">
<title>Node9</title>
<g id="a_Node000009"><a xlink:href="../../d7/d0f/classlci_1_1alloc__handler__x.html#a9b606b63467ecf4c1ccead21470f3d14" target="_top" xlink:title=" ">
<polygon fill="white" stroke="#666666" points="509,-30 405,-30 405,0 509,0 509,-30"/>
<text text-anchor="start" x="413" y="-18" font-family="Helvetica,sans-Serif" font-size="10.00">lci::alloc_handler</text>
<text text-anchor="middle" x="457" y="-7" font-family="Helvetica,sans-Serif" font-size="10.00">_x::zero_copy_am</text>
</a>
</g>
</g>
<!-- Node1&#45;&gt;Node9 -->
<g id="edge13_Node000001_Node000009" class="edge">
<title>Node1&#45;&gt;Node9</title>
<g id="a_edge13_Node000001_Node000009"><a xlink:title=" ">
<path fill="none" stroke="#63b8ff" d="M562.44,-66.97C546.18,-58.19 526.73,-47.89 509,-39 503.14,-36.06 496.85,-33.02 490.77,-30.12"/>
<polygon fill="#63b8ff" stroke="#63b8ff" points="561.15,-70.25 571.61,-71.93 564.49,-64.09 561.15,-70.25"/>
</a>
</g>
</g>
<!-- Node3 -->
<g id="Node000003" class="node">
<title>Node3</title>
<g id="a_Node000003"><a xlink:href="../../d7/d0f/classlci_1_1alloc__handler__x.html#a98a745346a11df34aed2588b9301f129" target="_top" xlink:title=" ">
<polygon fill="white" stroke="#666666" points="234,-102 135,-102 135,-72 234,-72 234,-102"/>
<text text-anchor="start" x="143" y="-90" font-family="Helvetica,sans-Serif" font-size="10.00">lci::alloc_handler</text>
<text text-anchor="middle" x="184.5" y="-79" font-family="Helvetica,sans-Serif" font-size="10.00">_x::call</text>
</a>
</g>
</g>
<!-- Node2&#45;&gt;Node3 -->
<g id="edge2_Node000002_Node000003" class="edge">
<title>Node2&#45;&gt;Node3</title>
<g id="a_edge2_Node000002_Node000003"><a xlink:title=" ">
<path fill="none" stroke="#63b8ff" d="M397.22,-153.04C360.13,-148.26 311.55,-140.14 270,-127 250.04,-120.69 228.74,-110.58 212.52,-102.11"/>
<polygon fill="#63b8ff" stroke="#63b8ff" points="397.01,-156.54 407.36,-154.29 397.87,-149.59 397.01,-156.54"/>
</a>
</g>
</g>
<!-- Node6 -->
<g id="Node000006" class="node">
<title>Node6</title>
<g id="a_Node000006"><a xlink:href="../../d7/d0f/classlci_1_1alloc__handler__x.html#ac58a137b4adfbd9b7da7a364540cbe30" target="_top" xlink:title=" ">
<polygon fill="white" stroke="#666666" points="369,-102 270,-102 270,-72 369,-72 369,-102"/>
<text text-anchor="start" x="278" y="-90" font-family="Helvetica,sans-Serif" font-size="10.00">lci::alloc_handler</text>
<text text-anchor="middle" x="319.5" y="-79" font-family="Helvetica,sans-Serif" font-size="10.00">_x::call_impl</text>
</a>
</g>
</g>
<!-- Node2&#45;&gt;Node6 -->
<g id="edge5_Node000002_Node000006" class="edge">
<title>Node2&#45;&gt;Node6</title>
<g id="a_edge5_Node000002_Node000006"><a xlink:title=" ">
<path fill="none" stroke="#63b8ff" d="M413.85,-139.48C410.84,-137.99 407.87,-136.49 405,-135 384.78,-124.52 362.39,-111.74 345.73,-102.01"/>
<polygon fill="#63b8ff" stroke="#63b8ff" points="412.37,-142.65 422.9,-143.87 415.43,-136.35 412.37,-142.65"/>
</a>
</g>
</g>
<!-- Node4 -->
<g id="Node000004" class="node">
<title>Node4</title>
<g id="a_Node000004"><a xlink:href="../../d5/dd3/namespacelci.html#a9a4b7e4a4222bd6d51f71150a927ac28" target="_top" xlink:title=" ">
<polygon fill="white" stroke="#666666" points="99,-118.5 0,-118.5 0,-99.5 99,-99.5 99,-118.5"/>
<text text-anchor="middle" x="49.5" y="-106.5" font-family="Helvetica,sans-Serif" font-size="10.00">lci::alloc_handler</text>
</a>
</g>
</g>
<!-- Node3&#45;&gt;Node4 -->
<g id="edge3_Node000003_Node000004" class="edge">
<title>Node3&#45;&gt;Node4</title>
<g id="a_edge3_Node000003_Node000004"><a xlink:title=" ">
<path fill="none" stroke="#63b8ff" d="M124.82,-96.71C116.29,-98.12 107.58,-99.56 99.26,-100.93"/>
<polygon fill="#63b8ff" stroke="#63b8ff" points="125.44,-100.15 134.73,-95.07 124.29,-93.25 125.44,-100.15"/>
</a>
</g>
</g>
<!-- Node5 -->
<g id="Node000005" class="node">
<title>Node5</title>
<g id="a_Node000005"><a xlink:href="../../d7/d0f/classlci_1_1alloc__handler__x.html#a9a0c54897d9543cb402989d68adec538" target="_top" xlink:title=" ">
<polygon fill="white" stroke="#666666" points="99,-81 0,-81 0,-51 99,-51 99,-81"/>
<text text-anchor="start" x="8" y="-69" font-family="Helvetica,sans-Serif" font-size="10.00">lci::alloc_handler</text>
<text text-anchor="middle" x="49.5" y="-58" font-family="Helvetica,sans-Serif" font-size="10.00">_x::operator()</text>
</a>
</g>
</g>
<!-- Node3&#45;&gt;Node5 -->
<g id="edge4_Node000003_Node000005" class="edge">
<title>Node3&#45;&gt;Node5</title>
<g id="a_edge4_Node000003_Node000005"><a xlink:title=" ">
<path fill="none" stroke="#63b8ff" d="M124.82,-77.74C116.29,-76.39 107.58,-75.01 99.26,-73.7"/>
<polygon fill="#63b8ff" stroke="#63b8ff" points="124.31,-81.2 134.73,-79.3 125.4,-74.28 124.31,-81.2"/>
</a>
</g>
</g>
<!-- Node6&#45;&gt;Node3 -->
<g id="edge6_Node000006_Node000003" class="edge">
<title>Node6&#45;&gt;Node3</title>
<g id="a_edge6_Node000006_Node000003"><a xlink:title=" ">
<path fill="none" stroke="#63b8ff" d="M259.55,-87C251.1,-87 242.49,-87 234.26,-87"/>
<polygon fill="#63b8ff" stroke="#63b8ff" points="259.73,-90.5 269.73,-87 259.73,-83.5 259.73,-90.5"/>
</a>
</g>
</g>
<!-- Node7&#45;&gt;Node3 -->
<g id="edge8_Node000007_Node000003" class="edge">
<title>Node7&#45;&gt;Node3</title>
<g id="a_edge8_Node000007_Node000003"><a xlink:title=" ">
<path fill="none" stroke="#63b8ff" d="M397.14,-115.14C360.41,-116.7 312.24,-116.88 270,-111 256.71,-109.15 242.57,-105.73 229.74,-102.05"/>
<polygon fill="#63b8ff" stroke="#63b8ff" points="397.36,-118.63 407.18,-114.66 397.03,-111.64 397.36,-118.63"/>
</a>
</g>
</g>
<!-- Node7&#45;&gt;Node6 -->
<g id="edge9_Node000007_Node000006" class="edge">
<title>Node7&#45;&gt;Node6</title>
<g id="a_edge9_Node000007_Node000006"><a xlink:title=" ">
<path fill="none" stroke="#63b8ff" d="M397.38,-100.62C387.96,-98.95 378.3,-97.24 369.15,-95.62"/>
<polygon fill="#63b8ff" stroke="#63b8ff" points="397.01,-104.11 407.46,-102.4 398.23,-97.21 397.01,-104.11"/>
</a>
</g>
</g>
<!-- Node8&#45;&gt;Node3 -->
<g id="edge11_Node000008_Node000003" class="edge">
<title>Node8&#45;&gt;Node3</title>
<g id="a_edge11_Node000008_Node000003"><a xlink:title=" ">
<path fill="none" stroke="#63b8ff" d="M397.14,-58.86C360.41,-57.3 312.24,-57.12 270,-63 256.71,-64.85 242.57,-68.27 229.74,-71.95"/>
<polygon fill="#63b8ff" stroke="#63b8ff" points="397.03,-62.36 407.18,-59.34 397.36,-55.37 397.03,-62.36"/>
</a>
</g>
</g>
<!-- Node8&#45;&gt;Node6 -->
<g id="edge12_Node000008_Node000006" class="edge">
<title>Node8&#45;&gt;Node6</title>
<g id="a_edge12_Node000008_Node000006"><a xlink:title=" ">
<path fill="none" stroke="#63b8ff" d="M397.38,-73.38C387.96,-75.05 378.3,-76.76 369.15,-78.38"/>
<polygon fill="#63b8ff" stroke="#63b8ff" points="398.23,-76.79 407.46,-71.6 397.01,-69.89 398.23,-76.79"/>
</a>
</g>
</g>
<!-- Node9&#45;&gt;Node3 -->
<g id="edge14_Node000009_Node000003" class="edge">
<title>Node9&#45;&gt;Node3</title>
<g id="a_edge14_Node000009_Node000003"><a xlink:title=" ">
<path fill="none" stroke="#63b8ff" d="M394.83,-24.62C358.21,-31.09 310.97,-40.68 270,-53 252.89,-58.14 234.42,-65.37 219.12,-71.84"/>
<polygon fill="#63b8ff" stroke="#63b8ff" points="395.61,-28.04 404.86,-22.88 394.41,-21.14 395.61,-28.04"/>
</a>
</g>
</g>
<!-- Node9&#45;&gt;Node6 -->
<g id="edge15_Node000009_Node000006" class="edge">
<title>Node9&#45;&gt;Node6</title>
<g id="a_edge15_Node000009_Node000006"><a xlink:title=" ">
<path fill="none" stroke="#63b8ff" d="M413.85,-34.52C410.84,-36.01 407.87,-37.51 405,-39 384.78,-49.48 362.39,-62.26 345.73,-71.99"/>
<polygon fill="#63b8ff" stroke="#63b8ff" points="415.43,-37.65 422.9,-30.13 412.37,-31.35 415.43,-37.65"/>
</a>
</g>
</g>
</g>
</svg>
