<?xml version="1.0" encoding="UTF-8" standalone="no"?>
<!DOCTYPE svg PUBLIC "-//W3C//DTD SVG 1.1//EN"
 "http://www.w3.org/Graphics/SVG/1.1/DTD/svg11.dtd">
<!-- Generated by graphviz version 2.43.0 (0)
 -->
<!-- Title: lci::alloc_handler_x::alloc_handler_x Pages: 1 -->
<svg width="663pt" height="230pt"
 viewBox="0.00 0.00 663.00 230.00" xmlns="http://www.w3.org/2000/svg" xmlns:xlink="http://www.w3.org/1999/xlink">
<g id="graph0" class="graph" transform="scale(1 1) rotate(0) translate(4 226)">
<title>lci::alloc_handler_x::alloc_handler_x</title>
<!-- Node1 -->
<g id="Node000001" class="node">
<title>Node1</title>
<g id="a_Node000001"><a xlink:title=" ">
<polygon fill="#999999" stroke="#666666" points="655,-126 545,-126 545,-96 655,-96 655,-126"/>
<text text-anchor="start" x="553" y="-114" font-family="Helvetica,sans-Serif" font-size="10.00">lci::alloc_handler</text>
<text text-anchor="middle" x="600" y="-103" font-family="Helvetica,sans-Serif" font-size="10.00">_x::alloc_handler_x</text>
</a>
</g>
</g>
<!-- Node2 -->
<g id="Node000002" class="node">
<title>Node2</title>
<g id="a_Node000002"><a xlink:href="../../d7/d0f/classlci_1_1alloc__handler__x.html#a74c492d00d0420108aef0dd08c455584" target="_top" xlink:title=" ">
<polygon fill="white" stroke="#666666" points="506.5,-222 407.5,-222 407.5,-192 506.5,-192 506.5,-222"/>
<text text-anchor="start" x="415.5" y="-210" font-family="Helvetica,sans-Serif" font-size="10.00">lci::alloc_handler</text>
<text text-anchor="middle" x="457" y="-199" font-family="Helvetica,sans-Serif" font-size="10.00">_x::handler</text>
</a>
</g>
</g>
<!-- Node1&#45;&gt;Node2 -->
<g id="edge1_Node000001_Node000002" class="edge">
<title>Node1&#45;&gt;Node2</title>
<g id="a_edge1_Node000001_Node000002"><a xlink:title=" ">
<path fill="none" stroke="#63b8ff" d="M574.66,-133.08C557.19,-148.26 532.64,-168.27 509,-183 503.93,-186.16 498.39,-189.17 492.87,-191.93"/>
<polygon fill="#63b8ff" stroke="#63b8ff" points="577.44,-135.29 582.64,-126.06 572.82,-130.04 577.44,-135.29"/>
</a>
</g>
</g>
<!-- Node7 -->
<g id="Node000007" class="node">
<title>Node7</title>
<g id="a_Node000007"><a xlink:href="../../d7/d0f/classlci_1_1alloc__handler__x.html#ab598385f5a81a6bc376ef01f32bec8ce" target="_top" xlink:title=" ">
<polygon fill="white" stroke="#666666" points="506.5,-174 407.5,-174 407.5,-144 506.5,-144 506.5,-174"/>
<text text-anchor="start" x="415.5" y="-162" font-family="Helvetica,sans-Serif" font-size="10.00">lci::alloc_handler</text>
<text text-anchor="middle" x="457" y="-151" font-family="Helvetica,sans-Serif" font-size="10.00">_x::name</text>
</a>
</g>
</g>
<!-- Node1&#45;&gt;Node7 -->
<g id="edge7_Node000001_Node000007" class="edge">
<title>Node1&#45;&gt;Node7</title>
<g id="a_edge7_Node000001_Node000007"><a xlink:title=" ">
<path fill="none" stroke="#63b8ff" d="M545.11,-129.35C530.89,-134.19 515.71,-139.36 502.07,-144"/>
<polygon fill="#63b8ff" stroke="#63b8ff" points="546.44,-132.59 554.77,-126.06 544.18,-125.97 546.44,-132.59"/>
</a>
</g>
</g>
<!-- Node8 -->
<g id="Node000008" class="node">
<title>Node8</title>
<g id="a_Node000008"><a xlink:href="../../d7/d0f/classlci_1_1alloc__handler__x.html#ae233b40436dde8dc698934ea9b7ec5d9" target="_top" xlink:title=" ">
<polygon fill="white" stroke="#666666" points="506.5,-126 407.5,-126 407.5,-96 506.5,-96 506.5,-126"/>
<text text-anchor="start" x="415.5" y="-114" font-family="Helvetica,sans-Serif" font-size="10.00">lci::alloc_handler</text>
<text text-anchor="middle" x="457" y="-103" font-family="Helvetica,sans-Serif" font-size="10.00">_x::runtime</text>
</a>
</g>
</g>
<!-- Node1&#45;&gt;Node8 -->
<g id="edge10_Node000001_Node000008" class="edge">
<title>Node1&#45;&gt;Node8</title>
<g id="a_edge10_Node000001_Node000008"><a xlink:title=" ">
<path fill="none" stroke="#63b8ff" d="M534.74,-111C525.3,-111 515.71,-111 506.66,-111"/>
<polygon fill="#63b8ff" stroke="#63b8ff" points="534.89,-114.5 544.89,-111 534.89,-107.5 534.89,-114.5"/>
</a>
</g>
</g>
<!-- Node9 -->
<g id="Node000009" class="node">
<title>Node9</title>
<g id="a_Node000009"><a xlink:href="../../d7/d0f/classlci_1_1alloc__handler__x.html#ad126b5378856f59cf0d96e109bf5b8f6" target="_top" xlink:title=" ">
<polygon fill="white" stroke="#666666" points="506.5,-78 407.5,-78 407.5,-48 506.5,-48 506.5,-78"/>
<text text-anchor="start" x="415.5" y="-66" font-family="Helvetica,sans-Serif" font-size="10.00">lci::alloc_handler</text>
<text text-anchor="middle" x="457" y="-55" font-family="Helvetica,sans-Serif" font-size="10.00">_x::user_context</text>
</a>
</g>
</g>
<!-- Node1&#45;&gt;Node9 -->
<g id="edge13_Node000001_Node000009" class="edge">
<title>Node1&#45;&gt;Node9</title>
<g id="a_edge13_Node000001_Node000009"><a xlink:title=" ">
<path fill="none" stroke="#63b8ff" d="M545.11,-92.65C530.89,-87.81 515.71,-82.64 502.07,-78"/>
<polygon fill="#63b8ff" stroke="#63b8ff" points="544.18,-96.03 554.77,-95.94 546.44,-89.41 544.18,-96.03"/>
</a>
</g>
</g>
<!-- Node10 -->
<g id="Node000010" class="node">
<title>Node10</title>
<g id="a_Node000010"><a xlink:href="../../d7/d0f/classlci_1_1alloc__handler__x.html#a9b606b63467ecf4c1ccead21470f3d14" target="_top" xlink:title=" ">
<polygon fill="white" stroke="#666666" points="509,-30 405,-30 405,0 509,0 509,-30"/>
<text text-anchor="start" x="413" y="-18" font-family="Helvetica,sans-Serif" font-size="10.00">lci::alloc_handler</text>
<text text-anchor="middle" x="457" y="-7" font-family="Helvetica,sans-Serif" font-size="10.00">_x::zero_copy_am</text>
</a>
</g>
</g>
<!-- Node1&#45;&gt;Node10 -->
<g id="edge16_Node000001_Node000010" class="edge">
<title>Node1&#45;&gt;Node10</title>
<g id="a_edge16_Node000001_Node000010"><a xlink:title=" ">
<path fill="none" stroke="#63b8ff" d="M574.66,-88.92C557.19,-73.74 532.64,-53.73 509,-39 503.93,-35.84 498.39,-32.83 492.87,-30.07"/>
<polygon fill="#63b8ff" stroke="#63b8ff" points="572.82,-91.96 582.64,-95.94 577.44,-86.71 572.82,-91.96"/>
</a>
</g>
</g>
<!-- Node3 -->
<g id="Node000003" class="node">
<title>Node3</title>
<g id="a_Node000003"><a xlink:href="../../d7/d0f/classlci_1_1alloc__handler__x.html#a98a745346a11df34aed2588b9301f129" target="_top" xlink:title=" ">
<polygon fill="white" stroke="#666666" points="234,-123 135,-123 135,-93 234,-93 234,-123"/>
<text text-anchor="start" x="143" y="-111" font-family="Helvetica,sans-Serif" font-size="10.00">lci::alloc_handler</text>
<text text-anchor="middle" x="184.5" y="-100" font-family="Helvetica,sans-Serif" font-size="10.00">_x::call</text>
</a>
</g>
</g>
<!-- Node2&#45;&gt;Node3 -->
<g id="edge2_Node000002_Node000003" class="edge">
<title>Node2&#45;&gt;Node3</title>
<g id="a_edge2_Node000002_Node000003"><a xlink:title=" ">
<path fill="none" stroke="#63b8ff" d="M396.85,-203.36C359.21,-199.33 310.17,-190.85 270,-173 242.77,-160.9 216.37,-138.31 200.52,-123.21"/>
<polygon fill="#63b8ff" stroke="#63b8ff" points="396.85,-206.88 407.14,-204.38 397.54,-199.91 396.85,-206.88"/>
</a>
</g>
</g>
<!-- Node6 -->
<g id="Node000006" class="node">
<title>Node6</title>
<g id="a_Node000006"><a xlink:href="../../d7/d0f/classlci_1_1alloc__handler__x.html#a1a72379ff6879720626b22cfea0c07d5" target="_top" xlink:title=" ">
<polygon fill="white" stroke="#666666" points="369,-145 270,-145 270,-115 369,-115 369,-145"/>
<text text-anchor="start" x="278" y="-133" font-family="Helvetica,sans-Serif" font-size="10.00">lci::alloc_handler</text>
<text text-anchor="middle" x="319.5" y="-122" font-family="Helvetica,sans-Serif" font-size="10.00">_x::call_impl</text>
</a>
</g>
</g>
<!-- Node2&#45;&gt;Node6 -->
<g id="edge5_Node000002_Node000006" class="edge">
<title>Node2&#45;&gt;Node6</title>
<g id="a_edge5_Node000002_Node000006"><a xlink:title=" ">
<path fill="none" stroke="#63b8ff" d="M413.36,-187.41C410.51,-185.95 407.7,-184.48 405,-183 383.42,-171.21 359.78,-156.19 343.01,-145.16"/>
<polygon fill="#63b8ff" stroke="#63b8ff" points="412,-190.64 422.52,-191.95 415.11,-184.37 412,-190.64"/>
</a>
</g>
</g>
<!-- Node4 -->
<g id="Node000004" class="node">
<title>Node4</title>
<g id="a_Node000004"><a xlink:href="../../d5/dd3/namespacelci.html#a9a4b7e4a4222bd6d51f71150a927ac28" target="_top" xlink:title=" ">
<polygon fill="white" stroke="#666666" points="99,-139.5 0,-139.5 0,-120.5 99,-120.5 99,-139.5"/>
<text text-anchor="middle" x="49.5" y="-127.5" font-family="Helvetica,sans-Serif" font-size="10.00">lci::alloc_handler</text>
</a>
</g>
</g>
<!-- Node3&#45;&gt;Node4 -->
<g id="edge3_Node000003_Node000004" class="edge">
<title>Node3&#45;&gt;Node4</title>
<g id="a_edge3_Node000003_Node000004"><a xlink:title=" ">
<path fill="none" stroke="#63b8ff" d="M124.82,-117.71C116.29,-119.12 107.58,-120.56 99.26,-121.93"/>
<polygon fill="#63b8ff" stroke="#63b8ff" points="125.44,-121.15 134.73,-116.07 124.29,-114.25 125.44,-121.15"/>
</a>
</g>
</g>
<!-- Node5 -->
<g id="Node000005" class="node">
<title>Node5</title>
<g id="a_Node000005"><a xlink:href="../../d7/d0f/classlci_1_1alloc__handler__x.html#a9a0c54897d9543cb402989d68adec538" target="_top" xlink:title=" ">
<polygon fill="white" stroke="#666666" points="99,-102 0,-102 0,-72 99,-72 99,-102"/>
<text text-anchor="start" x="8" y="-90" font-family="Helvetica,sans-Serif" font-size="10.00">lci::alloc_handler</text>
<text text-anchor="middle" x="49.5" y="-79" font-family="Helvetica,sans-Serif" font-size="10.00">_x::operator()</text>
</a>
</g>
</g>
<!-- Node3&#45;&gt;Node5 -->
<g id="edge4_Node000003_Node000005" class="edge">
<title>Node3&#45;&gt;Node5</title>
<g id="a_edge4_Node000003_Node000005"><a xlink:title=" ">
<path fill="none" stroke="#63b8ff" d="M124.82,-98.74C116.29,-97.39 107.58,-96.01 99.26,-94.7"/>
<polygon fill="#63b8ff" stroke="#63b8ff" points="124.31,-102.2 134.73,-100.3 125.4,-95.28 124.31,-102.2"/>
</a>
</g>
</g>
<!-- Node6&#45;&gt;Node3 -->
<g id="edge6_Node000006_Node000003" class="edge">
<title>Node6&#45;&gt;Node3</title>
<g id="a_edge6_Node000006_Node000003"><a xlink:title=" ">
<path fill="none" stroke="#63b8ff" d="M259.82,-120.29C251.29,-118.88 242.58,-117.44 234.26,-116.07"/>
<polygon fill="#63b8ff" stroke="#63b8ff" points="259.29,-123.75 269.73,-121.93 260.44,-116.85 259.29,-123.75"/>
</a>
</g>
</g>
<!-- Node7&#45;&gt;Node3 -->
<g id="edge8_Node000007_Node000003" class="edge">
<title>Node7&#45;&gt;Node3</title>
<g id="a_edge8_Node000007_Node000003"><a xlink:title=" ">
<path fill="none" stroke="#63b8ff" d="M397.18,-164.37C360.07,-166.07 311.49,-165.16 270,-154 246.77,-147.75 222.94,-133.98 206.53,-123.12"/>
<polygon fill="#63b8ff" stroke="#63b8ff" points="397.52,-167.86 407.32,-163.83 397.15,-160.87 397.52,-167.86"/>
</a>
</g>
</g>
<!-- Node7&#45;&gt;Node6 -->
<g id="edge9_Node000007_Node000006" class="edge">
<title>Node7&#45;&gt;Node6</title>
<g id="a_edge9_Node000007_Node000006"><a xlink:title=" ">
<path fill="none" stroke="#63b8ff" d="M397.68,-146.52C388.16,-144.48 378.4,-142.39 369.15,-140.41"/>
<polygon fill="#63b8ff" stroke="#63b8ff" points="396.95,-149.94 407.46,-148.61 398.42,-143.1 396.95,-149.94"/>
</a>
</g>
</g>
<!-- Node8&#45;&gt;Node3 -->
<g id="edge11_Node000008_Node000003" class="edge">
<title>Node8&#45;&gt;Node3</title>
<g id="a_edge11_Node000008_Node000003"><a xlink:title=" ">
<path fill="none" stroke="#63b8ff" d="M397.16,-107.16C387.74,-106.68 378.11,-106.26 369,-106 325.02,-104.74 314,-105.48 270,-106 258.41,-106.14 245.92,-106.38 234.2,-106.65"/>
<polygon fill="#63b8ff" stroke="#63b8ff" points="397.07,-110.66 407.25,-107.7 397.45,-103.67 397.07,-110.66"/>
</a>
</g>
</g>
<!-- Node8&#45;&gt;Node6 -->
<g id="edge12_Node000008_Node000006" class="edge">
<title>Node8&#45;&gt;Node6</title>
<g id="a_edge12_Node000008_Node000006"><a xlink:title=" ">
<path fill="none" stroke="#63b8ff" d="M397.38,-119.22C387.96,-120.54 378.3,-121.89 369.15,-123.18"/>
<polygon fill="#63b8ff" stroke="#63b8ff" points="398.05,-122.66 407.46,-117.81 397.07,-115.73 398.05,-122.66"/>
</a>
</g>
</g>
<!-- Node9&#45;&gt;Node3 -->
<g id="edge14_Node000009_Node000003" class="edge">
<title>Node9&#45;&gt;Node3</title>
<g id="a_edge14_Node000009_Node000003"><a xlink:title=" ">
<path fill="none" stroke="#63b8ff" d="M397.24,-72.78C348.49,-80.89 279.98,-92.28 234.24,-99.89"/>
<polygon fill="#63b8ff" stroke="#63b8ff" points="398.04,-76.19 407.33,-71.1 396.89,-69.29 398.04,-76.19"/>
</a>
</g>
</g>
<!-- Node9&#45;&gt;Node6 -->
<g id="edge15_Node000009_Node000006" class="edge">
<title>Node9&#45;&gt;Node6</title>
<g id="a_edge15_Node000009_Node000006"><a xlink:title=" ">
<path fill="none" stroke="#63b8ff" d="M414.49,-82.4C411.28,-83.95 408.08,-85.49 405,-87 386.52,-96.05 365.94,-106.51 349.72,-114.85"/>
<polygon fill="#63b8ff" stroke="#63b8ff" points="416.03,-85.55 423.55,-78.09 413.02,-79.23 416.03,-85.55"/>
</a>
</g>
</g>
<!-- Node10&#45;&gt;Node3 -->
<g id="edge17_Node000010_Node000003" class="edge">
<title>Node10&#45;&gt;Node3</title>
<g id="a_edge17_Node000010_Node000003"><a xlink:title=" ">
<path fill="none" stroke="#63b8ff" d="M394.67,-32.6C358.18,-43.45 311.13,-58.1 270,-73 253.28,-79.06 235.01,-86.51 219.76,-92.98"/>
<polygon fill="#63b8ff" stroke="#63b8ff" points="396.07,-35.84 404.67,-29.65 394.08,-29.13 396.07,-35.84"/>
</a>
</g>
</g>
<!-- Node10&#45;&gt;Node6 -->
<g id="edge18_Node000010_Node000006" class="edge">
<title>Node10&#45;&gt;Node6</title>
<g id="a_edge18_Node000010_Node000006"><a xlink:title=" ">
<path fill="none" stroke="#63b8ff" d="M410.61,-35.19C408.68,-36.42 406.8,-37.69 405,-39 374.71,-61.14 346.56,-95.22 331.63,-114.78"/>
<polygon fill="#63b8ff" stroke="#63b8ff" points="412.45,-38.17 419.35,-30.14 408.95,-32.11 412.45,-38.17"/>
</a>
</g>
</g>
</g>
</svg>
