<?xml version="1.0" encoding="UTF-8" standalone="no"?>
<!DOCTYPE svg PUBLIC "-//W3C//DTD SVG 1.1//EN"
 "http://www.w3.org/Graphics/SVG/1.1/DTD/svg11.dtd">
<!-- Generated by graphviz version 2.43.0 (0)
 -->
<!-- Title: lci::get_rkey_x::call_impl Pages: 1 -->
<svg width="457pt" height="64pt"
 viewBox="0.00 0.00 457.00 64.00" xmlns="http://www.w3.org/2000/svg" xmlns:xlink="http://www.w3.org/1999/xlink">
<g id="graph0" class="graph" transform="scale(1 1) rotate(0) translate(4 60)">
<title>lci::get_rkey_x::call_impl</title>
<!-- Node1 -->
<g id="Node000001" class="node">
<title>Node1</title>
<g id="a_Node000001"><a xlink:title=" ">
<polygon fill="#999999" stroke="#666666" points="137,-37 0,-37 0,-18 137,-18 137,-37"/>
<text text-anchor="middle" x="68.5" y="-25" font-family="Helvetica,sans-Serif" font-size="10.00">lci::get_rkey_x::call_impl</text>
</a>
</g>
</g>
<!-- Node2 -->
<g id="Node000002" class="node">
<title>Node2</title>
<g id="a_Node000002"><a xlink:href="../../da/d99/classlci_1_1get__rkey__x.html#a75661299b47d9286cfa7ba4df4a6161e" target="_top" xlink:title=" ">
<polygon fill="white" stroke="#666666" points="292,-56 185,-56 185,-37 292,-37 292,-56"/>
<text text-anchor="middle" x="238.5" y="-44" font-family="Helvetica,sans-Serif" font-size="10.00">lci::get_rkey_x::mr</text>
</a>
</g>
</g>
<!-- Node1&#45;&gt;Node2 -->
<g id="edge1_Node000001_Node000002" class="edge">
<title>Node1&#45;&gt;Node2</title>
<g id="a_edge1_Node000001_Node000002"><a xlink:title=" ">
<path fill="none" stroke="#63b8ff" d="M137.35,-35.17C149.73,-36.57 162.59,-38.03 174.81,-39.41"/>
<polygon fill="#63b8ff" stroke="#63b8ff" points="174.57,-42.91 184.9,-40.55 175.36,-35.95 174.57,-42.91"/>
</a>
</g>
</g>
<!-- Node4 -->
<g id="Node000004" class="node">
<title>Node4</title>
<g id="a_Node000004"><a xlink:href="../../da/d99/classlci_1_1get__rkey__x.html#a0246912b872620c84a50dbecfb7cc464" target="_top" xlink:title=" ">
<polygon fill="white" stroke="#666666" points="304,-19 173,-19 173,0 304,0 304,-19"/>
<text text-anchor="middle" x="238.5" y="-7" font-family="Helvetica,sans-Serif" font-size="10.00">lci::get_rkey_x::runtime</text>
</a>
</g>
</g>
<!-- Node1&#45;&gt;Node4 -->
<g id="edge3_Node000001_Node000004" class="edge">
<title>Node1&#45;&gt;Node4</title>
<g id="a_edge3_Node000001_Node000004"><a xlink:title=" ">
<path fill="none" stroke="#63b8ff" d="M137.35,-20.23C145.7,-19.34 154.27,-18.42 162.72,-17.51"/>
<polygon fill="#63b8ff" stroke="#63b8ff" points="163.37,-20.96 172.94,-16.42 162.62,-14 163.37,-20.96"/>
</a>
</g>
</g>
<!-- Node3 -->
<g id="Node000003" class="node">
<title>Node3</title>
<g id="a_Node000003"><a xlink:href="../../da/d99/classlci_1_1get__rkey__x.html#a496ad3a83d99fee900dbd44ae4f01408" target="_top" xlink:title=" ">
<polygon fill="white" stroke="#666666" points="449,-42.5 340,-42.5 340,-12.5 449,-12.5 449,-42.5"/>
<text text-anchor="start" x="348" y="-30.5" font-family="Helvetica,sans-Serif" font-size="10.00">lci::get_rkey_x::get</text>
<text text-anchor="middle" x="394.5" y="-19.5" font-family="Helvetica,sans-Serif" font-size="10.00">_rkey_x</text>
</a>
</g>
</g>
<!-- Node2&#45;&gt;Node3 -->
<g id="edge2_Node000002_Node000003" class="edge">
<title>Node2&#45;&gt;Node3</title>
<g id="a_edge2_Node000002_Node000003"><a xlink:title=" ">
<path fill="none" stroke="#63b8ff" d="M292.07,-40.01C304.24,-38.51 317.31,-36.9 329.9,-35.35"/>
<polygon fill="#63b8ff" stroke="#63b8ff" points="330.36,-38.82 339.86,-34.12 329.51,-31.87 330.36,-38.82"/>
</a>
</g>
</g>
<!-- Node4&#45;&gt;Node3 -->
<g id="edge4_Node000004_Node000003" class="edge">
<title>Node4&#45;&gt;Node3</title>
<g id="a_edge4_Node000004_Node000003"><a xlink:title=" ">
<path fill="none" stroke="#63b8ff" d="M304.36,-17.08C312.78,-18.07 321.39,-19.07 329.79,-20.05"/>
<polygon fill="#63b8ff" stroke="#63b8ff" points="329.56,-23.55 339.89,-21.23 330.37,-16.6 329.56,-23.55"/>
</a>
</g>
</g>
</g>
</svg>
