<?xml version="1.0" encoding="UTF-8" standalone="no"?>
<!DOCTYPE svg PUBLIC "-//W3C//DTD SVG 1.1//EN"
 "http://www.w3.org/Graphics/SVG/1.1/DTD/svg11.dtd">
<!-- Generated by graphviz version 2.43.0 (0)
 -->
<!-- Title: lci::get_rkey_x::mr Pages: 1 -->
<svg width="612pt" height="65pt"
 viewBox="0.00 0.00 612.00 65.00" xmlns="http://www.w3.org/2000/svg" xmlns:xlink="http://www.w3.org/1999/xlink">
<g id="graph0" class="graph" transform="scale(1 1) rotate(0) translate(4 61)">
<title>lci::get_rkey_x::mr</title>
<!-- Node1 -->
<g id="Node000001" class="node">
<title>Node1</title>
<g id="a_Node000001"><a xlink:title=" ">
<polygon fill="#999999" stroke="#666666" points="604,-38 497,-38 497,-19 604,-19 604,-38"/>
<text text-anchor="middle" x="550.5" y="-26" font-family="Helvetica,sans-Serif" font-size="10.00">lci::get_rkey_x::mr</text>
</a>
</g>
</g>
<!-- Node2 -->
<g id="Node000002" class="node">
<title>Node2</title>
<g id="a_Node000002"><a xlink:href="../../da/d99/classlci_1_1get__rkey__x.html#a5921220a1fed63ab4ec50b2cfd0a6594" target="_top" xlink:title=" ">
<polygon fill="white" stroke="#666666" points="288,-38 178,-38 178,-19 288,-19 288,-38"/>
<text text-anchor="middle" x="233" y="-26" font-family="Helvetica,sans-Serif" font-size="10.00">lci::get_rkey_x::call</text>
</a>
</g>
</g>
<!-- Node1&#45;&gt;Node2 -->
<g id="edge1_Node000001_Node000002" class="edge">
<title>Node1&#45;&gt;Node2</title>
<g id="a_edge1_Node000001_Node000002"><a xlink:title=" ">
<path fill="none" stroke="#63b8ff" d="M486.54,-28.5C428.45,-28.5 343.1,-28.5 288.04,-28.5"/>
<polygon fill="#63b8ff" stroke="#63b8ff" points="486.69,-32 496.69,-28.5 486.69,-25 486.69,-32"/>
</a>
</g>
</g>
<!-- Node5 -->
<g id="Node000005" class="node">
<title>Node5</title>
<g id="a_Node000005"><a xlink:href="../../da/d99/classlci_1_1get__rkey__x.html#a15e5574f6f05f9fc7e565a881dd6d7b8" target="_top" xlink:title=" ">
<polygon fill="white" stroke="#666666" points="461,-19 324,-19 324,0 461,0 461,-19"/>
<text text-anchor="middle" x="392.5" y="-7" font-family="Helvetica,sans-Serif" font-size="10.00">lci::get_rkey_x::call_impl</text>
</a>
</g>
</g>
<!-- Node1&#45;&gt;Node5 -->
<g id="edge4_Node000001_Node000005" class="edge">
<title>Node1&#45;&gt;Node5</title>
<g id="a_edge4_Node000001_Node000005"><a xlink:title=" ">
<path fill="none" stroke="#63b8ff" d="M486.62,-20.84C478.25,-19.82 469.64,-18.77 461.19,-17.74"/>
<polygon fill="#63b8ff" stroke="#63b8ff" points="486.34,-24.33 496.69,-22.07 487.18,-17.38 486.34,-24.33"/>
</a>
</g>
</g>
<!-- Node3 -->
<g id="Node000003" class="node">
<title>Node3</title>
<g id="a_Node000003"><a xlink:href="../../d5/dd3/namespacelci.html#a212403ab006700b31870c64a754b4d13" target="_top" xlink:title=" ">
<polygon fill="white" stroke="#666666" points="109,-57 33,-57 33,-38 109,-38 109,-57"/>
<text text-anchor="middle" x="71" y="-45" font-family="Helvetica,sans-Serif" font-size="10.00">lci::get_rkey</text>
</a>
</g>
</g>
<!-- Node2&#45;&gt;Node3 -->
<g id="edge2_Node000002_Node000003" class="edge">
<title>Node2&#45;&gt;Node3</title>
<g id="a_edge2_Node000002_Node000003"><a xlink:title=" ">
<path fill="none" stroke="#63b8ff" d="M167.64,-36.14C147.88,-38.49 126.79,-40.99 109.46,-43.05"/>
<polygon fill="#63b8ff" stroke="#63b8ff" points="168.31,-39.59 177.83,-34.93 167.49,-32.64 168.31,-39.59"/>
</a>
</g>
</g>
<!-- Node4 -->
<g id="Node000004" class="node">
<title>Node4</title>
<g id="a_Node000004"><a xlink:href="../../da/d99/classlci_1_1get__rkey__x.html#a03e70a8386786871c1c301eb8ecfa4d6" target="_top" xlink:title=" ">
<polygon fill="white" stroke="#666666" points="142,-20 0,-20 0,-1 142,-1 142,-20"/>
<text text-anchor="middle" x="71" y="-8" font-family="Helvetica,sans-Serif" font-size="10.00">lci::get_rkey_x::operator()</text>
</a>
</g>
</g>
<!-- Node2&#45;&gt;Node4 -->
<g id="edge3_Node000002_Node000004" class="edge">
<title>Node2&#45;&gt;Node4</title>
<g id="a_edge3_Node000002_Node000004"><a xlink:title=" ">
<path fill="none" stroke="#63b8ff" d="M167.75,-21.27C159.37,-20.33 150.75,-19.36 142.28,-18.41"/>
<polygon fill="#63b8ff" stroke="#63b8ff" points="167.5,-24.77 177.83,-22.41 168.29,-17.81 167.5,-24.77"/>
</a>
</g>
</g>
<!-- Node5&#45;&gt;Node2 -->
<g id="edge5_Node000005_Node000002" class="edge">
<title>Node5&#45;&gt;Node2</title>
<g id="a_edge5_Node000005_Node000002"><a xlink:title=" ">
<path fill="none" stroke="#63b8ff" d="M313.75,-18.88C305.16,-19.92 296.56,-20.95 288.35,-21.94"/>
<polygon fill="#63b8ff" stroke="#63b8ff" points="314.28,-22.34 323.79,-17.67 313.44,-15.39 314.28,-22.34"/>
</a>
</g>
</g>
</g>
</svg>
