<?xml version="1.0" encoding="UTF-8" standalone="no"?>
<!DOCTYPE svg PUBLIC "-//W3C//DTD SVG 1.1//EN"
 "http://www.w3.org/Graphics/SVG/1.1/DTD/svg11.dtd">
<!-- Generated by graphviz version 2.43.0 (0)
 -->
<!-- Title: lci::deregister_packet_pool_x::packet_pool Pages: 1 -->
<svg width="626pt" height="76pt"
 viewBox="0.00 0.00 626.00 75.50" xmlns="http://www.w3.org/2000/svg" xmlns:xlink="http://www.w3.org/1999/xlink">
<g id="graph0" class="graph" transform="scale(1 1) rotate(0) translate(4 71.5)">
<title>lci::deregister_packet_pool_x::packet_pool</title>
<!-- Node1 -->
<g id="Node000001" class="node">
<title>Node1</title>
<g id="a_Node000001"><a xlink:title=" ">
<polygon fill="#999999" stroke="#666666" points="618,-51 497,-51 497,-21 618,-21 618,-51"/>
<text text-anchor="start" x="505" y="-39" font-family="Helvetica,sans-Serif" font-size="10.00">lci::deregister_packet</text>
<text text-anchor="middle" x="557.5" y="-28" font-family="Helvetica,sans-Serif" font-size="10.00">_pool_x::packet_pool</text>
</a>
</g>
</g>
<!-- Node2 -->
<g id="Node000002" class="node">
<title>Node2</title>
<g id="a_Node000002"><a xlink:href="../../d1/d14/classlci_1_1deregister__packet__pool__x.html#aaf2701b138b8263d33191eb3dcf07a5f" target="_top" xlink:title=" ">
<polygon fill="white" stroke="#666666" points="304,-51 183,-51 183,-21 304,-21 304,-51"/>
<text text-anchor="start" x="191" y="-39" font-family="Helvetica,sans-Serif" font-size="10.00">lci::deregister_packet</text>
<text text-anchor="middle" x="243.5" y="-28" font-family="Helvetica,sans-Serif" font-size="10.00">_pool_x::call</text>
</a>
</g>
</g>
<!-- Node1&#45;&gt;Node2 -->
<g id="edge1_Node000001_Node000002" class="edge">
<title>Node1&#45;&gt;Node2</title>
<g id="a_edge1_Node000001_Node000002"><a xlink:title=" ">
<path fill="none" stroke="#63b8ff" d="M486.78,-38.44C478.1,-38.67 469.34,-38.87 461,-39 407.23,-39.84 393.77,-39.84 340,-39 328.39,-38.82 315.99,-38.51 304.1,-38.16"/>
<polygon fill="#63b8ff" stroke="#63b8ff" points="487,-41.94 496.9,-38.16 486.81,-34.94 487,-41.94"/>
</a>
</g>
</g>
<!-- Node5 -->
<g id="Node000005" class="node">
<title>Node5</title>
<g id="a_Node000005"><a xlink:href="../../d1/d14/classlci_1_1deregister__packet__pool__x.html#a2b1d6736bfba4b64f8d6c960581b6e8f" target="_top" xlink:title=" ">
<polygon fill="white" stroke="#666666" points="461,-30 340,-30 340,0 461,0 461,-30"/>
<text text-anchor="start" x="348" y="-18" font-family="Helvetica,sans-Serif" font-size="10.00">lci::deregister_packet</text>
<text text-anchor="middle" x="400.5" y="-7" font-family="Helvetica,sans-Serif" font-size="10.00">_pool_x::call_impl</text>
</a>
</g>
</g>
<!-- Node1&#45;&gt;Node5 -->
<g id="edge4_Node000001_Node000005" class="edge">
<title>Node1&#45;&gt;Node5</title>
<g id="a_edge4_Node000001_Node000005"><a xlink:title=" ">
<path fill="none" stroke="#63b8ff" d="M486.62,-26.53C478.07,-25.37 469.39,-24.2 461.01,-23.06"/>
<polygon fill="#63b8ff" stroke="#63b8ff" points="486.19,-30.01 496.57,-27.88 487.13,-23.07 486.19,-30.01"/>
</a>
</g>
</g>
<!-- Node3 -->
<g id="Node000003" class="node">
<title>Node3</title>
<g id="a_Node000003"><a xlink:href="../../d5/dd3/namespacelci.html#aa1e1e2af4789aa255f3df338292970c2" target="_top" xlink:title=" ">
<polygon fill="white" stroke="#666666" points="147,-67.5 0,-67.5 0,-48.5 147,-48.5 147,-67.5"/>
<text text-anchor="middle" x="73.5" y="-55.5" font-family="Helvetica,sans-Serif" font-size="10.00">lci::deregister_packet_pool</text>
</a>
</g>
</g>
<!-- Node2&#45;&gt;Node3 -->
<g id="edge2_Node000002_Node000003" class="edge">
<title>Node2&#45;&gt;Node3</title>
<g id="a_edge2_Node000002_Node000003"><a xlink:title=" ">
<path fill="none" stroke="#63b8ff" d="M172.68,-45.14C164.28,-46.24 155.69,-47.37 147.25,-48.47"/>
<polygon fill="#63b8ff" stroke="#63b8ff" points="173.34,-48.59 182.8,-43.82 172.43,-41.65 173.34,-48.59"/>
</a>
</g>
</g>
<!-- Node4 -->
<g id="Node000004" class="node">
<title>Node4</title>
<g id="a_Node000004"><a xlink:href="../../d1/d14/classlci_1_1deregister__packet__pool__x.html#a8934844630a2ec6e4fd41366dd71fbc9" target="_top" xlink:title=" ">
<polygon fill="white" stroke="#666666" points="134,-30 13,-30 13,0 134,0 134,-30"/>
<text text-anchor="start" x="21" y="-18" font-family="Helvetica,sans-Serif" font-size="10.00">lci::deregister_packet</text>
<text text-anchor="middle" x="73.5" y="-7" font-family="Helvetica,sans-Serif" font-size="10.00">_pool_x::operator()</text>
</a>
</g>
</g>
<!-- Node2&#45;&gt;Node4 -->
<g id="edge3_Node000002_Node000004" class="edge">
<title>Node2&#45;&gt;Node4</title>
<g id="a_edge3_Node000002_Node000004"><a xlink:title=" ">
<path fill="none" stroke="#63b8ff" d="M172.63,-27.27C159.79,-25.66 146.51,-24 134.01,-22.44"/>
<polygon fill="#63b8ff" stroke="#63b8ff" points="172.44,-30.77 182.8,-28.54 173.31,-23.82 172.44,-30.77"/>
</a>
</g>
</g>
<!-- Node5&#45;&gt;Node2 -->
<g id="edge5_Node000005_Node000002" class="edge">
<title>Node5&#45;&gt;Node2</title>
<g id="a_edge5_Node000005_Node000002"><a xlink:title=" ">
<path fill="none" stroke="#63b8ff" d="M329.62,-24.47C321.07,-25.63 312.39,-26.8 304.01,-27.94"/>
<polygon fill="#63b8ff" stroke="#63b8ff" points="330.13,-27.93 339.57,-23.12 329.19,-20.99 330.13,-27.93"/>
</a>
</g>
</g>
</g>
</svg>
