<?xml version="1.0" encoding="UTF-8" standalone="no"?>
<!DOCTYPE svg PUBLIC "-//W3C//DTD SVG 1.1//EN"
 "http://www.w3.org/Graphics/SVG/1.1/DTD/svg11.dtd">
<!-- Generated by graphviz version 2.43.0 (0)
 -->
<!-- Title: lci::deregister_packet_pool_x::operator() Pages: 1 -->
<svg width="783pt" height="134pt"
 viewBox="0.00 0.00 783.00 134.00" xmlns="http://www.w3.org/2000/svg" xmlns:xlink="http://www.w3.org/1999/xlink">
<g id="graph0" class="graph" transform="scale(1 1) rotate(0) translate(4 130)">
<title>lci::deregister_packet_pool_x::operator()</title>
<!-- Node1 -->
<g id="Node000001" class="node">
<title>Node1</title>
<g id="a_Node000001"><a xlink:title=" ">
<polygon fill="#999999" stroke="#666666" points="121,-75 0,-75 0,-45 121,-45 121,-75"/>
<text text-anchor="start" x="8" y="-63" font-family="Helvetica,sans-Serif" font-size="10.00">lci::deregister_packet</text>
<text text-anchor="middle" x="60.5" y="-52" font-family="Helvetica,sans-Serif" font-size="10.00">_pool_x::operator()</text>
</a>
</g>
</g>
<!-- Node2 -->
<g id="Node000002" class="node">
<title>Node2</title>
<g id="a_Node000002"><a xlink:href="../../d1/d14/classlci_1_1deregister__packet__pool__x.html#aaf2701b138b8263d33191eb3dcf07a5f" target="_top" xlink:title=" ">
<polygon fill="white" stroke="#666666" points="278,-75 157,-75 157,-45 278,-45 278,-75"/>
<text text-anchor="start" x="165" y="-63" font-family="Helvetica,sans-Serif" font-size="10.00">lci::deregister_packet</text>
<text text-anchor="middle" x="217.5" y="-52" font-family="Helvetica,sans-Serif" font-size="10.00">_pool_x::call</text>
</a>
</g>
</g>
<!-- Node1&#45;&gt;Node2 -->
<g id="edge1_Node000001_Node000002" class="edge">
<title>Node1&#45;&gt;Node2</title>
<g id="a_edge1_Node000001_Node000002"><a xlink:title=" ">
<path fill="none" stroke="#63b8ff" d="M121.43,-60C129.72,-60 138.31,-60 146.76,-60"/>
<polygon fill="#63b8ff" stroke="#63b8ff" points="146.99,-63.5 156.99,-60 146.99,-56.5 146.99,-63.5"/>
</a>
</g>
</g>
<!-- Node3 -->
<g id="Node000003" class="node">
<title>Node3</title>
<g id="a_Node000003"><a xlink:href="../../d1/d14/classlci_1_1deregister__packet__pool__x.html#a2b1d6736bfba4b64f8d6c960581b6e8f" target="_top" xlink:title=" ">
<polygon fill="white" stroke="#666666" points="435,-97 314,-97 314,-67 435,-67 435,-97"/>
<text text-anchor="start" x="322" y="-85" font-family="Helvetica,sans-Serif" font-size="10.00">lci::deregister_packet</text>
<text text-anchor="middle" x="374.5" y="-74" font-family="Helvetica,sans-Serif" font-size="10.00">_pool_x::call_impl</text>
</a>
</g>
</g>
<!-- Node2&#45;&gt;Node3 -->
<g id="edge2_Node000002_Node000003" class="edge">
<title>Node2&#45;&gt;Node3</title>
<g id="a_edge2_Node000002_Node000003"><a xlink:title=" ">
<path fill="none" stroke="#63b8ff" d="M278.43,-68.51C286.82,-69.7 295.49,-70.93 304.04,-72.14"/>
<polygon fill="#63b8ff" stroke="#63b8ff" points="303.6,-75.61 313.99,-73.55 304.58,-68.68 303.6,-75.61"/>
</a>
</g>
</g>
<!-- Node4 -->
<g id="Node000004" class="node">
<title>Node4</title>
<g id="a_Node000004"><a xlink:href="../../d1/d14/classlci_1_1deregister__packet__pool__x.html#acc51753200ff6b768517862edbdec401" target="_top" xlink:title=" ">
<polygon fill="white" stroke="#666666" points="592,-126 471,-126 471,-96 592,-96 592,-126"/>
<text text-anchor="start" x="479" y="-114" font-family="Helvetica,sans-Serif" font-size="10.00">lci::deregister_packet</text>
<text text-anchor="middle" x="531.5" y="-103" font-family="Helvetica,sans-Serif" font-size="10.00">_pool_x::device</text>
</a>
</g>
</g>
<!-- Node2&#45;&gt;Node4 -->
<g id="edge9_Node000002_Node000004" class="edge">
<title>Node2&#45;&gt;Node4</title>
<g id="a_edge9_Node000002_Node000004"><a xlink:title=" ">
<path fill="none" stroke="#63b8ff" d="M242.55,-75.15C261.24,-86.02 288.23,-99.8 314,-106 362.06,-117.56 417.85,-118.56 460.76,-116.81"/>
<polygon fill="#63b8ff" stroke="#63b8ff" points="460.99,-120.3 470.82,-116.33 460.67,-113.31 460.99,-120.3"/>
</a>
</g>
</g>
<!-- Node6 -->
<g id="Node000006" class="node">
<title>Node6</title>
<g id="a_Node000006"><a xlink:href="../../d1/d14/classlci_1_1deregister__packet__pool__x.html#a0504c0295eb990a2ea205d6a143b9060" target="_top" xlink:title=" ">
<polygon fill="white" stroke="#666666" points="592,-78 471,-78 471,-48 592,-48 592,-78"/>
<text text-anchor="start" x="479" y="-66" font-family="Helvetica,sans-Serif" font-size="10.00">lci::deregister_packet</text>
<text text-anchor="middle" x="531.5" y="-55" font-family="Helvetica,sans-Serif" font-size="10.00">_pool_x::packet_pool</text>
</a>
</g>
</g>
<!-- Node2&#45;&gt;Node6 -->
<g id="edge10_Node000002_Node000006" class="edge">
<title>Node2&#45;&gt;Node6</title>
<g id="a_edge10_Node000002_Node000006"><a xlink:title=" ">
<path fill="none" stroke="#63b8ff" d="M278.24,-58.31C321.72,-57.36 382.02,-56.61 435,-58 443.35,-58.22 452.11,-58.54 460.79,-58.93"/>
<polygon fill="#63b8ff" stroke="#63b8ff" points="460.76,-62.43 470.92,-59.4 461.09,-55.44 460.76,-62.43"/>
</a>
</g>
</g>
<!-- Node7 -->
<g id="Node000007" class="node">
<title>Node7</title>
<g id="a_Node000007"><a xlink:href="../../d1/d14/classlci_1_1deregister__packet__pool__x.html#ae97abbef47dda0aecc0c013a3edb8e49" target="_top" xlink:title=" ">
<polygon fill="white" stroke="#666666" points="592,-30 471,-30 471,0 592,0 592,-30"/>
<text text-anchor="start" x="479" y="-18" font-family="Helvetica,sans-Serif" font-size="10.00">lci::deregister_packet</text>
<text text-anchor="middle" x="531.5" y="-7" font-family="Helvetica,sans-Serif" font-size="10.00">_pool_x::runtime</text>
</a>
</g>
</g>
<!-- Node2&#45;&gt;Node7 -->
<g id="edge11_Node000002_Node000007" class="edge">
<title>Node2&#45;&gt;Node7</title>
<g id="a_edge11_Node000002_Node000007"><a xlink:title=" ">
<path fill="none" stroke="#63b8ff" d="M278.29,-51.38C330.43,-43.86 406.09,-32.94 460.93,-25.03"/>
<polygon fill="#63b8ff" stroke="#63b8ff" points="461.52,-28.49 470.91,-23.59 460.52,-21.56 461.52,-28.49"/>
</a>
</g>
</g>
<!-- Node3&#45;&gt;Node4 -->
<g id="edge3_Node000003_Node000004" class="edge">
<title>Node3&#45;&gt;Node4</title>
<g id="a_edge3_Node000003_Node000004"><a xlink:title=" ">
<path fill="none" stroke="#63b8ff" d="M435.43,-93.21C443.82,-94.78 452.49,-96.41 461.04,-98"/>
<polygon fill="#63b8ff" stroke="#63b8ff" points="460.51,-101.47 470.99,-99.87 461.8,-94.59 460.51,-101.47"/>
</a>
</g>
</g>
<!-- Node3&#45;&gt;Node6 -->
<g id="edge5_Node000003_Node000006" class="edge">
<title>Node3&#45;&gt;Node6</title>
<g id="a_edge5_Node000003_Node000006"><a xlink:title=" ">
<path fill="none" stroke="#63b8ff" d="M435.43,-74.65C443.82,-73.63 452.49,-72.56 461.04,-71.51"/>
<polygon fill="#63b8ff" stroke="#63b8ff" points="461.49,-74.99 470.99,-70.3 460.64,-68.04 461.49,-74.99"/>
</a>
</g>
</g>
<!-- Node3&#45;&gt;Node7 -->
<g id="edge7_Node000003_Node000007" class="edge">
<title>Node3&#45;&gt;Node7</title>
<g id="a_edge7_Node000003_Node000007"><a xlink:title=" ">
<path fill="none" stroke="#63b8ff" d="M408.07,-66.95C426.46,-58.55 449.93,-47.99 471,-39 474.92,-37.33 478.99,-35.62 483.09,-33.92"/>
<polygon fill="#63b8ff" stroke="#63b8ff" points="484.71,-37.04 492.64,-30.01 482.06,-30.57 484.71,-37.04"/>
</a>
</g>
</g>
<!-- Node5 -->
<g id="Node000005" class="node">
<title>Node5</title>
<g id="a_Node000005"><a xlink:href="../../d1/d14/classlci_1_1deregister__packet__pool__x.html#af9b157ca4b87c578f278c2ca9c23a749" target="_top" xlink:title=" ">
<polygon fill="white" stroke="#666666" points="775,-83.5 628,-83.5 628,-42.5 775,-42.5 775,-83.5"/>
<text text-anchor="start" x="636" y="-71.5" font-family="Helvetica,sans-Serif" font-size="10.00">lci::deregister_packet</text>
<text text-anchor="start" x="636" y="-60.5" font-family="Helvetica,sans-Serif" font-size="10.00">_pool_x::deregister_packet</text>
<text text-anchor="middle" x="701.5" y="-49.5" font-family="Helvetica,sans-Serif" font-size="10.00">_pool_x</text>
</a>
</g>
</g>
<!-- Node4&#45;&gt;Node5 -->
<g id="edge4_Node000004_Node000005" class="edge">
<title>Node4&#45;&gt;Node5</title>
<g id="a_edge4_Node000004_Node000005"><a xlink:title=" ">
<path fill="none" stroke="#63b8ff" d="M585.2,-95.94C595.95,-92.87 607.49,-89.57 618.98,-86.29"/>
<polygon fill="#63b8ff" stroke="#63b8ff" points="619.94,-89.66 628.6,-83.54 618.02,-82.93 619.94,-89.66"/>
</a>
</g>
</g>
<!-- Node6&#45;&gt;Node5 -->
<g id="edge6_Node000006_Node000005" class="edge">
<title>Node6&#45;&gt;Node5</title>
<g id="a_edge6_Node000006_Node000005"><a xlink:title=" ">
<path fill="none" stroke="#63b8ff" d="M592.2,-63C600.47,-63 609.09,-63 617.68,-63"/>
<polygon fill="#63b8ff" stroke="#63b8ff" points="617.75,-66.5 627.75,-63 617.75,-59.5 617.75,-66.5"/>
</a>
</g>
</g>
<!-- Node7&#45;&gt;Node5 -->
<g id="edge8_Node000007_Node000005" class="edge">
<title>Node7&#45;&gt;Node5</title>
<g id="a_edge8_Node000007_Node000005"><a xlink:title=" ">
<path fill="none" stroke="#63b8ff" d="M585.2,-30.06C595.95,-33.13 607.49,-36.43 618.98,-39.71"/>
<polygon fill="#63b8ff" stroke="#63b8ff" points="618.02,-43.07 628.6,-42.46 619.94,-36.34 618.02,-43.07"/>
</a>
</g>
</g>
</g>
</svg>
