<?xml version="1.0" encoding="UTF-8" standalone="no"?>
<!DOCTYPE svg PUBLIC "-//W3C//DTD SVG 1.1//EN"
 "http://www.w3.org/Graphics/SVG/1.1/DTD/svg11.dtd">
<!-- Generated by graphviz version 2.43.0 (0)
 -->
<!-- Title: lci::allreduce_x::operator() Pages: 1 -->
<svg width="845pt" height="506pt"
 viewBox="0.00 0.00 845.00 506.00" xmlns="http://www.w3.org/2000/svg" xmlns:xlink="http://www.w3.org/1999/xlink">
<g id="graph0" class="graph" transform="scale(1 1) rotate(0) translate(4 502)">
<title>lci::allreduce_x::operator()</title>
<!-- Node1 -->
<g id="Node000001" class="node">
<title>Node1</title>
<g id="a_Node000001"><a xlink:title=" ">
<polygon fill="#999999" stroke="#666666" points="145,-266 0,-266 0,-247 145,-247 145,-266"/>
<text text-anchor="middle" x="72.5" y="-254" font-family="Helvetica,sans-Serif" font-size="10.00">lci::allreduce_x::operator()</text>
</a>
</g>
</g>
<!-- Node2 -->
<g id="Node000002" class="node">
<title>Node2</title>
<g id="a_Node000002"><a xlink:href="../../dc/d4c/classlci_1_1allreduce__x.html#ad70970fdb1d158340fbd6f67704cbc0b" target="_top" xlink:title=" ">
<polygon fill="white" stroke="#666666" points="294,-266 181,-266 181,-247 294,-247 294,-266"/>
<text text-anchor="middle" x="237.5" y="-254" font-family="Helvetica,sans-Serif" font-size="10.00">lci::allreduce_x::call</text>
</a>
</g>
</g>
<!-- Node1&#45;&gt;Node2 -->
<g id="edge1_Node000001_Node000002" class="edge">
<title>Node1&#45;&gt;Node2</title>
<g id="a_edge1_Node000001_Node000002"><a xlink:title=" ">
<path fill="none" stroke="#63b8ff" d="M145.47,-256.5C153.74,-256.5 162.15,-256.5 170.35,-256.5"/>
<polygon fill="#63b8ff" stroke="#63b8ff" points="170.58,-260 180.58,-256.5 170.58,-253 170.58,-260"/>
</a>
</g>
</g>
<!-- Node3 -->
<g id="Node000003" class="node">
<title>Node3</title>
<g id="a_Node000003"><a xlink:href="../../dc/d4c/classlci_1_1allreduce__x.html#aaa02abfa8800fa52e9dbc6e02f2d8a3e" target="_top" xlink:title=" ">
<polygon fill="white" stroke="#666666" points="649,-498 506,-498 506,-479 649,-479 649,-498"/>
<text text-anchor="middle" x="577.5" y="-486" font-family="Helvetica,sans-Serif" font-size="10.00">lci::allreduce_x::algorithm</text>
</a>
</g>
</g>
<!-- Node2&#45;&gt;Node3 -->
<g id="edge2_Node000002_Node000003" class="edge">
<title>Node2&#45;&gt;Node3</title>
<g id="a_edge2_Node000002_Node000003"><a xlink:title=" ">
<path fill="none" stroke="#63b8ff" d="M240.15,-266.06C246.03,-297 268.95,-395.1 330,-441.5 377.07,-477.28 443.5,-488.33 495.54,-490.82"/>
<polygon fill="#63b8ff" stroke="#63b8ff" points="495.62,-494.32 505.75,-491.21 495.89,-487.33 495.62,-494.32"/>
</a>
</g>
</g>
<!-- Node5 -->
<g id="Node000005" class="node">
<title>Node5</title>
<g id="a_Node000005"><a xlink:href="../../dc/d4c/classlci_1_1allreduce__x.html#a090d4943f2b1af89557645f09eb85673" target="_top" xlink:title=" ">
<polygon fill="white" stroke="#666666" points="470,-285 330,-285 330,-266 470,-266 470,-285"/>
<text text-anchor="middle" x="400" y="-273" font-family="Helvetica,sans-Serif" font-size="10.00">lci::allreduce_x::call_impl</text>
</a>
</g>
</g>
<!-- Node2&#45;&gt;Node5 -->
<g id="edge4_Node000002_Node000005" class="edge">
<title>Node2&#45;&gt;Node5</title>
<g id="a_edge4_Node000002_Node000005"><a xlink:title=" ">
<path fill="none" stroke="#63b8ff" d="M294.18,-263.09C302.45,-264.07 311.1,-265.09 319.73,-266.12"/>
<polygon fill="#63b8ff" stroke="#63b8ff" points="319.5,-269.61 329.84,-267.31 320.32,-262.66 319.5,-269.61"/>
</a>
</g>
</g>
<!-- Node6 -->
<g id="Node000006" class="node">
<title>Node6</title>
<g id="a_Node000006"><a xlink:href="../../dc/d4c/classlci_1_1allreduce__x.html#ad18164e8ebd3183408116e7f6bcf8394" target="_top" xlink:title=" ">
<polygon fill="white" stroke="#666666" points="639,-461 516,-461 516,-442 639,-442 639,-461"/>
<text text-anchor="middle" x="577.5" y="-449" font-family="Helvetica,sans-Serif" font-size="10.00">lci::allreduce_x::comp</text>
</a>
</g>
</g>
<!-- Node2&#45;&gt;Node6 -->
<g id="edge28_Node000002_Node000006" class="edge">
<title>Node2&#45;&gt;Node6</title>
<g id="a_edge28_Node000002_Node000006"><a xlink:title=" ">
<path fill="none" stroke="#63b8ff" d="M241.33,-266.09C249.82,-292.99 277.72,-369.56 330,-405.5 381.54,-440.93 452.87,-451.08 505.54,-453.17"/>
<polygon fill="#63b8ff" stroke="#63b8ff" points="505.71,-456.68 515.82,-453.48 505.93,-449.68 505.71,-456.68"/>
</a>
</g>
</g>
<!-- Node7 -->
<g id="Node000007" class="node">
<title>Node7</title>
<g id="a_Node000007"><a xlink:href="../../dc/d4c/classlci_1_1allreduce__x.html#a6dc69a1ad59049bb9c82821d2104b13d" target="_top" xlink:title=" ">
<polygon fill="white" stroke="#666666" points="639,-424 516,-424 516,-405 639,-405 639,-424"/>
<text text-anchor="middle" x="577.5" y="-412" font-family="Helvetica,sans-Serif" font-size="10.00">lci::allreduce_x::count</text>
</a>
</g>
</g>
<!-- Node2&#45;&gt;Node7 -->
<g id="edge29_Node000002_Node000007" class="edge">
<title>Node2&#45;&gt;Node7</title>
<g id="a_edge29_Node000002_Node000007"><a xlink:title=" ">
<path fill="none" stroke="#63b8ff" d="M243.08,-266.18C254.33,-288.8 285.68,-345.19 330,-371.5 383.32,-403.15 453.81,-412.87 505.75,-415.28"/>
<polygon fill="#63b8ff" stroke="#63b8ff" points="505.75,-418.79 515.88,-415.67 506.02,-411.79 505.75,-418.79"/>
</a>
</g>
</g>
<!-- Node8 -->
<g id="Node000008" class="node">
<title>Node8</title>
<g id="a_Node000008"><a xlink:href="../../dc/d4c/classlci_1_1allreduce__x.html#a4e2aabe081a2b878fa64298adf18d9fb" target="_top" xlink:title=" ">
<polygon fill="white" stroke="#666666" points="641.5,-387 513.5,-387 513.5,-368 641.5,-368 641.5,-387"/>
<text text-anchor="middle" x="577.5" y="-375" font-family="Helvetica,sans-Serif" font-size="10.00">lci::allreduce_x::device</text>
</a>
</g>
</g>
<!-- Node2&#45;&gt;Node8 -->
<g id="edge30_Node000002_Node000008" class="edge">
<title>Node2&#45;&gt;Node8</title>
<g id="a_edge30_Node000002_Node000008"><a xlink:title=" ">
<path fill="none" stroke="#63b8ff" d="M245.79,-266.28C259.85,-284.32 292.64,-322.65 330,-340.5 384.24,-366.42 452.21,-375.11 503.03,-377.63"/>
<polygon fill="#63b8ff" stroke="#63b8ff" points="503.14,-381.14 513.28,-378.07 503.44,-374.14 503.14,-381.14"/>
</a>
</g>
</g>
<!-- Node9 -->
<g id="Node000009" class="node">
<title>Node9</title>
<g id="a_Node000009"><a xlink:href="../../dc/d4c/classlci_1_1allreduce__x.html#a9036135db8cdc5297ca8d952847c8e8d" target="_top" xlink:title=" ">
<polygon fill="white" stroke="#666666" points="647,-350 508,-350 508,-331 647,-331 647,-350"/>
<text text-anchor="middle" x="577.5" y="-338" font-family="Helvetica,sans-Serif" font-size="10.00">lci::allreduce_x::endpoint</text>
</a>
</g>
</g>
<!-- Node2&#45;&gt;Node9 -->
<g id="edge31_Node000002_Node000009" class="edge">
<title>Node2&#45;&gt;Node9</title>
<g id="a_edge31_Node000002_Node000009"><a xlink:title=" ">
<path fill="none" stroke="#63b8ff" d="M249.72,-266.08C266.14,-279.48 298.21,-303.43 330,-314.5 384.08,-333.33 448.55,-339.61 497.99,-341.3"/>
<polygon fill="#63b8ff" stroke="#63b8ff" points="497.89,-344.8 507.99,-341.58 498.09,-337.8 497.89,-344.8"/>
</a>
</g>
</g>
<!-- Node10 -->
<g id="Node000010" class="node">
<title>Node10</title>
<g id="a_Node000010"><a xlink:href="../../dc/d4c/classlci_1_1allreduce__x.html#a0a274f3de7b0cfd9ac00150970cf7182" target="_top" xlink:title=" ">
<polygon fill="white" stroke="#666666" points="649,-313 506,-313 506,-294 649,-294 649,-313"/>
<text text-anchor="middle" x="577.5" y="-301" font-family="Helvetica,sans-Serif" font-size="10.00">lci::allreduce_x::item_size</text>
</a>
</g>
</g>
<!-- Node2&#45;&gt;Node10 -->
<g id="edge33_Node000002_Node000010" class="edge">
<title>Node2&#45;&gt;Node10</title>
<g id="a_edge33_Node000002_Node000010"><a xlink:title=" ">
<path fill="none" stroke="#63b8ff" d="M256.11,-266.05C274.09,-275.25 303.11,-288.63 330,-294.5 384.39,-306.38 447.11,-308.52 495.67,-307.74"/>
<polygon fill="#63b8ff" stroke="#63b8ff" points="495.88,-311.24 505.81,-307.53 495.74,-304.24 495.88,-311.24"/>
</a>
</g>
</g>
<!-- Node11 -->
<g id="Node000011" class="node">
<title>Node11</title>
<g id="a_Node000011"><a xlink:href="../../dc/d4c/classlci_1_1allreduce__x.html#ad7ceb3f3938928c3d44dfe6238dd461b" target="_top" xlink:title=" ">
<polygon fill="white" stroke="#666666" points="648.5,-275.5 506.5,-275.5 506.5,-245.5 648.5,-245.5 648.5,-275.5"/>
<text text-anchor="start" x="514.5" y="-263.5" font-family="Helvetica,sans-Serif" font-size="10.00">lci::allreduce_x::matching</text>
<text text-anchor="middle" x="577.5" y="-252.5" font-family="Helvetica,sans-Serif" font-size="10.00">_engine</text>
</a>
</g>
</g>
<!-- Node2&#45;&gt;Node11 -->
<g id="edge34_Node000002_Node000011" class="edge">
<title>Node2&#45;&gt;Node11</title>
<g id="a_edge34_Node000002_Node000011"><a xlink:title=" ">
<path fill="none" stroke="#63b8ff" d="M294.17,-256.37C341.06,-256.35 409.92,-256.52 470,-257.5 478.44,-257.64 487.26,-257.82 496.05,-258.03"/>
<polygon fill="#63b8ff" stroke="#63b8ff" points="496.24,-261.54 506.33,-258.29 496.42,-254.54 496.24,-261.54"/>
</a>
</g>
</g>
<!-- Node12 -->
<g id="Node000012" class="node">
<title>Node12</title>
<g id="a_Node000012"><a xlink:href="../../dc/d4c/classlci_1_1allreduce__x.html#a9df0ae40e18b56514e45be5d88bcb3be" target="_top" xlink:title=" ">
<polygon fill="white" stroke="#666666" points="631.5,-227 523.5,-227 523.5,-208 631.5,-208 631.5,-227"/>
<text text-anchor="middle" x="577.5" y="-215" font-family="Helvetica,sans-Serif" font-size="10.00">lci::allreduce_x::op</text>
</a>
</g>
</g>
<!-- Node2&#45;&gt;Node12 -->
<g id="edge35_Node000002_Node000012" class="edge">
<title>Node2&#45;&gt;Node12</title>
<g id="a_edge35_Node000002_Node000012"><a xlink:title=" ">
<path fill="none" stroke="#63b8ff" d="M294.31,-250.06C354.53,-243.11 450.21,-232.07 513.19,-224.81"/>
<polygon fill="#63b8ff" stroke="#63b8ff" points="513.86,-228.25 523.39,-223.63 513.06,-221.3 513.86,-228.25"/>
</a>
</g>
</g>
<!-- Node13 -->
<g id="Node000013" class="node">
<title>Node13</title>
<g id="a_Node000013"><a xlink:href="../../dc/d4c/classlci_1_1allreduce__x.html#a881c09308572b9cde55789f3b91a6c2c" target="_top" xlink:title=" ">
<polygon fill="white" stroke="#666666" points="644,-190 511,-190 511,-171 644,-171 644,-190"/>
<text text-anchor="middle" x="577.5" y="-178" font-family="Helvetica,sans-Serif" font-size="10.00">lci::allreduce_x::recvbuf</text>
</a>
</g>
</g>
<!-- Node2&#45;&gt;Node13 -->
<g id="edge36_Node000002_Node000013" class="edge">
<title>Node2&#45;&gt;Node13</title>
<g id="a_edge36_Node000002_Node000013"><a xlink:title=" ">
<path fill="none" stroke="#63b8ff" d="M263.45,-246.95C281.68,-240.24 307.11,-231.43 330,-225.5 386.63,-210.82 451.79,-199.15 500.89,-191.37"/>
<polygon fill="#63b8ff" stroke="#63b8ff" points="501.46,-194.82 510.8,-189.82 500.38,-187.91 501.46,-194.82"/>
</a>
</g>
</g>
<!-- Node14 -->
<g id="Node000014" class="node">
<title>Node14</title>
<g id="a_Node000014"><a xlink:href="../../dc/d4c/classlci_1_1allreduce__x.html#abd311ac1652d6a75b24db36827058bec" target="_top" xlink:title=" ">
<polygon fill="white" stroke="#666666" points="635,-152.5 520,-152.5 520,-122.5 635,-122.5 635,-152.5"/>
<text text-anchor="start" x="528" y="-140.5" font-family="Helvetica,sans-Serif" font-size="10.00">lci::allreduce_x::ring</text>
<text text-anchor="middle" x="577.5" y="-129.5" font-family="Helvetica,sans-Serif" font-size="10.00">_nsteps</text>
</a>
</g>
</g>
<!-- Node2&#45;&gt;Node14 -->
<g id="edge37_Node000002_Node000014" class="edge">
<title>Node2&#45;&gt;Node14</title>
<g id="a_edge37_Node000002_Node000014"><a xlink:title=" ">
<path fill="none" stroke="#63b8ff" d="M249.19,-246.88C265.45,-232.78 297.89,-206.65 330,-192.5 387.93,-166.98 458.92,-152.75 509.82,-145.2"/>
<polygon fill="#63b8ff" stroke="#63b8ff" points="510.32,-148.66 519.72,-143.77 509.32,-141.73 510.32,-148.66"/>
</a>
</g>
</g>
<!-- Node15 -->
<g id="Node000015" class="node">
<title>Node15</title>
<g id="a_Node000015"><a xlink:href="../../dc/d4c/classlci_1_1allreduce__x.html#aa8f47fb900a1ea8212ac5ab9a522335b" target="_top" xlink:title=" ">
<polygon fill="white" stroke="#666666" points="644.5,-104 510.5,-104 510.5,-85 644.5,-85 644.5,-104"/>
<text text-anchor="middle" x="577.5" y="-92" font-family="Helvetica,sans-Serif" font-size="10.00">lci::allreduce_x::runtime</text>
</a>
</g>
</g>
<!-- Node2&#45;&gt;Node15 -->
<g id="edge38_Node000002_Node000015" class="edge">
<title>Node2&#45;&gt;Node15</title>
<g id="a_edge38_Node000002_Node000015"><a xlink:title=" ">
<path fill="none" stroke="#63b8ff" d="M243.64,-246.79C255.63,-225.18 287.67,-173 330,-147.5 381.68,-116.38 449.15,-103.4 500.44,-98.06"/>
<polygon fill="#63b8ff" stroke="#63b8ff" points="500.85,-101.53 510.47,-97.09 500.18,-94.57 500.85,-101.53"/>
</a>
</g>
</g>
<!-- Node16 -->
<g id="Node000016" class="node">
<title>Node16</title>
<g id="a_Node000016"><a xlink:href="../../dc/d4c/classlci_1_1allreduce__x.html#a318bceb6a271281169ce5884479d20de" target="_top" xlink:title=" ">
<polygon fill="white" stroke="#666666" points="645,-67 510,-67 510,-48 645,-48 645,-67"/>
<text text-anchor="middle" x="577.5" y="-55" font-family="Helvetica,sans-Serif" font-size="10.00">lci::allreduce_x::sendbuf</text>
</a>
</g>
</g>
<!-- Node2&#45;&gt;Node16 -->
<g id="edge39_Node000002_Node000016" class="edge">
<title>Node2&#45;&gt;Node16</title>
<g id="a_edge39_Node000002_Node000016"><a xlink:title=" ">
<path fill="none" stroke="#63b8ff" d="M241,-246.7C248.76,-218.43 275.26,-136.38 330,-98.5 379.41,-64.3 447.52,-55.11 499.63,-53.87"/>
<polygon fill="#63b8ff" stroke="#63b8ff" points="499.87,-57.37 509.82,-53.73 499.77,-50.37 499.87,-57.37"/>
</a>
</g>
</g>
<!-- Node17 -->
<g id="Node000017" class="node">
<title>Node17</title>
<g id="a_Node000017"><a xlink:href="../../d8/d33/group__LCI__BASIC.html#ga6e99f95e9b71b259ea5078c23d0ff4b9" target="_top" xlink:title="Get the number of ranks in the current application/job.">
<polygon fill="white" stroke="#666666" points="444,-19 356,-19 356,0 444,0 444,-19"/>
<text text-anchor="middle" x="400" y="-7" font-family="Helvetica,sans-Serif" font-size="10.00">lci::get_rank_n</text>
</a>
</g>
</g>
<!-- Node2&#45;&gt;Node17 -->
<g id="edge32_Node000002_Node000017" class="edge">
<title>Node2&#45;&gt;Node17</title>
<g id="a_edge32_Node000002_Node000017"><a xlink:title=" ">
<path fill="none" stroke="#63b8ff" d="M239.63,-246.9C244.16,-212.75 264.06,-95.93 330,-33.5 334.71,-29.04 340.3,-25.4 346.23,-22.43"/>
<polygon fill="#63b8ff" stroke="#63b8ff" points="347.95,-25.5 355.73,-18.31 345.17,-19.08 347.95,-25.5"/>
</a>
</g>
</g>
<!-- Node4 -->
<g id="Node000004" class="node">
<title>Node4</title>
<g id="a_Node000004"><a xlink:href="../../dc/d4c/classlci_1_1allreduce__x.html#a475f8fadb56c2f6c8c712e62ebda04b6" target="_top" xlink:title=" ">
<polygon fill="white" stroke="#666666" points="837,-291 685,-291 685,-272 837,-272 837,-291"/>
<text text-anchor="middle" x="761" y="-279" font-family="Helvetica,sans-Serif" font-size="10.00">lci::allreduce_x::allreduce_x</text>
</a>
</g>
</g>
<!-- Node3&#45;&gt;Node4 -->
<g id="edge3_Node000003_Node000004" class="edge">
<title>Node3&#45;&gt;Node4</title>
<g id="a_edge3_Node000003_Node000004"><a xlink:title=" ">
<path fill="none" stroke="#63b8ff" d="M633.97,-478.94C639.33,-476.69 644.46,-473.92 649,-470.5 708.23,-425.95 741.59,-339.78 754.15,-301.12"/>
<polygon fill="#63b8ff" stroke="#63b8ff" points="757.63,-301.73 757.27,-291.14 750.95,-299.64 757.63,-301.73"/>
</a>
</g>
</g>
<!-- Node5&#45;&gt;Node3 -->
<g id="edge5_Node000005_Node000003" class="edge">
<title>Node5&#45;&gt;Node3</title>
<g id="a_edge5_Node000005_Node000003"><a xlink:title=" ">
<path fill="none" stroke="#63b8ff" d="M403.32,-285.43C411.35,-317.61 441.17,-419.83 506,-470.5 507.78,-471.89 509.65,-473.17 511.6,-474.36"/>
<polygon fill="#63b8ff" stroke="#63b8ff" points="510.05,-477.5 520.54,-478.95 513.25,-471.27 510.05,-477.5"/>
</a>
</g>
</g>
<!-- Node5&#45;&gt;Node6 -->
<g id="edge6_Node000005_Node000006" class="edge">
<title>Node5&#45;&gt;Node6</title>
<g id="a_edge6_Node000005_Node000006"><a xlink:title=" ">
<path fill="none" stroke="#63b8ff" d="M404.49,-285.09C415.07,-312.8 449.59,-393.48 506,-433.5 508.12,-435 510.35,-436.38 512.67,-437.64"/>
<polygon fill="#63b8ff" stroke="#63b8ff" points="511.4,-440.91 521.94,-441.97 514.35,-434.57 511.4,-440.91"/>
</a>
</g>
</g>
<!-- Node5&#45;&gt;Node7 -->
<g id="edge8_Node000005_Node000007" class="edge">
<title>Node5&#45;&gt;Node7</title>
<g id="a_edge8_Node000005_Node000007"><a xlink:title=" ">
<path fill="none" stroke="#63b8ff" d="M406.46,-285.1C420.08,-308.14 457.95,-366.84 506,-396.5 508.79,-398.23 511.75,-399.79 514.8,-401.2"/>
<polygon fill="#63b8ff" stroke="#63b8ff" points="513.61,-404.49 524.19,-405 516.24,-398 513.61,-404.49"/>
</a>
</g>
</g>
<!-- Node5&#45;&gt;Node8 -->
<g id="edge10_Node000005_Node000008" class="edge">
<title>Node5&#45;&gt;Node8</title>
<g id="a_edge10_Node000005_Node000008"><a xlink:title=" ">
<path fill="none" stroke="#63b8ff" d="M410.15,-285.15C427.29,-302.64 466.09,-339.61 506,-359.5 509.82,-361.4 513.85,-363.11 517.98,-364.66"/>
<polygon fill="#63b8ff" stroke="#63b8ff" points="517.14,-368.07 527.73,-367.95 519.38,-361.43 517.14,-368.07"/>
</a>
</g>
</g>
<!-- Node5&#45;&gt;Node9 -->
<g id="edge12_Node000005_Node000009" class="edge">
<title>Node5&#45;&gt;Node9</title>
<g id="a_edge12_Node000005_Node000009"><a xlink:title=" ">
<path fill="none" stroke="#63b8ff" d="M419.95,-285.17C440.68,-295.46 475.07,-311.72 506,-322.5 511.87,-324.55 518.09,-326.47 524.31,-328.25"/>
<polygon fill="#63b8ff" stroke="#63b8ff" points="523.45,-331.64 534.02,-330.91 525.3,-324.89 523.45,-331.64"/>
</a>
</g>
</g>
<!-- Node5&#45;&gt;Node10 -->
<g id="edge14_Node000005_Node000010" class="edge">
<title>Node5&#45;&gt;Node10</title>
<g id="a_edge14_Node000005_Node000010"><a xlink:title=" ">
<path fill="none" stroke="#63b8ff" d="M460.91,-285.06C475.73,-287.42 491.74,-289.98 506.98,-292.41"/>
<polygon fill="#63b8ff" stroke="#63b8ff" points="506.44,-295.87 516.86,-293.99 507.54,-288.95 506.44,-295.87"/>
</a>
</g>
</g>
<!-- Node5&#45;&gt;Node11 -->
<g id="edge16_Node000005_Node000011" class="edge">
<title>Node5&#45;&gt;Node11</title>
<g id="a_edge16_Node000005_Node000011"><a xlink:title=" ">
<path fill="none" stroke="#63b8ff" d="M470.11,-269.59C478.66,-268.86 487.46,-268.11 496.15,-267.37"/>
<polygon fill="#63b8ff" stroke="#63b8ff" points="496.63,-270.84 506.3,-266.5 496.04,-263.86 496.63,-270.84"/>
</a>
</g>
</g>
<!-- Node5&#45;&gt;Node12 -->
<g id="edge18_Node000005_Node000012" class="edge">
<title>Node5&#45;&gt;Node12</title>
<g id="a_edge18_Node000005_Node000012"><a xlink:title=" ">
<path fill="none" stroke="#63b8ff" d="M424.97,-265.88C446.11,-257.56 477.85,-245.5 506,-236.5 513.3,-234.16 521.09,-231.87 528.73,-229.73"/>
<polygon fill="#63b8ff" stroke="#63b8ff" points="529.91,-233.04 538.63,-227.02 528.06,-226.29 529.91,-233.04"/>
</a>
</g>
</g>
<!-- Node5&#45;&gt;Node13 -->
<g id="edge20_Node000005_Node000013" class="edge">
<title>Node5&#45;&gt;Node13</title>
<g id="a_edge20_Node000005_Node000013"><a xlink:title=" ">
<path fill="none" stroke="#63b8ff" d="M411.49,-265.86C429.5,-249.81 468.02,-217.61 506,-199.5 510.93,-197.15 516.21,-195.05 521.56,-193.18"/>
<polygon fill="#63b8ff" stroke="#63b8ff" points="522.79,-196.47 531.24,-190.08 520.65,-189.8 522.79,-196.47"/>
</a>
</g>
</g>
<!-- Node5&#45;&gt;Node14 -->
<g id="edge22_Node000005_Node000014" class="edge">
<title>Node5&#45;&gt;Node14</title>
<g id="a_edge22_Node000005_Node000014"><a xlink:title=" ">
<path fill="none" stroke="#63b8ff" d="M407.45,-265.87C422.33,-244.34 461.24,-191.92 506,-162.5 508.97,-160.55 512.1,-158.73 515.34,-157.04"/>
<polygon fill="#63b8ff" stroke="#63b8ff" points="517.14,-160.06 524.66,-152.6 514.13,-153.74 517.14,-160.06"/>
</a>
</g>
</g>
<!-- Node5&#45;&gt;Node15 -->
<g id="edge24_Node000005_Node000015" class="edge">
<title>Node5&#45;&gt;Node15</title>
<g id="a_edge24_Node000005_Node000015"><a xlink:title=" ">
<path fill="none" stroke="#63b8ff" d="M404.44,-265.7C414.9,-237.4 449.11,-154.94 506,-113.5 508.66,-111.56 511.51,-109.82 514.49,-108.25"/>
<polygon fill="#63b8ff" stroke="#63b8ff" points="516.04,-111.39 523.7,-104.07 513.14,-105.02 516.04,-111.39"/>
</a>
</g>
</g>
<!-- Node5&#45;&gt;Node16 -->
<g id="edge26_Node000005_Node000016" class="edge">
<title>Node5&#45;&gt;Node16</title>
<g id="a_edge26_Node000005_Node000016"><a xlink:title=" ">
<path fill="none" stroke="#63b8ff" d="M403.13,-265.78C410.75,-233.31 439.84,-127.77 506,-75.5 507.6,-74.24 509.27,-73.06 511.01,-71.97"/>
<polygon fill="#63b8ff" stroke="#63b8ff" points="512.94,-74.91 520.15,-67.15 509.67,-68.72 512.94,-74.91"/>
</a>
</g>
</g>
<!-- Node6&#45;&gt;Node4 -->
<g id="edge7_Node000006_Node000004" class="edge">
<title>Node6&#45;&gt;Node4</title>
<g id="a_edge7_Node000006_Node000004"><a xlink:title=" ">
<path fill="none" stroke="#63b8ff" d="M632.55,-441.89C638.36,-439.66 643.98,-436.9 649,-433.5 700.03,-398.96 736.12,-332.82 751.58,-300.38"/>
<polygon fill="#63b8ff" stroke="#63b8ff" points="754.84,-301.66 755.87,-291.12 748.49,-298.72 754.84,-301.66"/>
</a>
</g>
</g>
<!-- Node7&#45;&gt;Node4 -->
<g id="edge9_Node000007_Node000004" class="edge">
<title>Node7&#45;&gt;Node4</title>
<g id="a_edge9_Node000007_Node000004"><a xlink:title=" ">
<path fill="none" stroke="#63b8ff" d="M629.9,-404.97C636.56,-402.71 643.1,-399.93 649,-396.5 691.95,-371.54 729.11,-325.25 747.57,-299.67"/>
<polygon fill="#63b8ff" stroke="#63b8ff" points="750.6,-301.45 753.51,-291.26 744.88,-297.42 750.6,-301.45"/>
</a>
</g>
</g>
<!-- Node8&#45;&gt;Node4 -->
<g id="edge11_Node000008_Node000004" class="edge">
<title>Node8&#45;&gt;Node4</title>
<g id="a_edge11_Node000008_Node000004"><a xlink:title=" ">
<path fill="none" stroke="#63b8ff" d="M625.97,-367.91C633.83,-365.61 641.77,-362.83 649,-359.5 684.35,-343.23 720.31,-315.47 741.37,-297.83"/>
<polygon fill="#63b8ff" stroke="#63b8ff" points="743.84,-300.32 749.18,-291.17 739.3,-294.99 743.84,-300.32"/>
</a>
</g>
</g>
<!-- Node9&#45;&gt;Node4 -->
<g id="edge13_Node000009_Node000004" class="edge">
<title>Node9&#45;&gt;Node4</title>
<g id="a_edge13_Node000009_Node000004"><a xlink:title=" ">
<path fill="none" stroke="#63b8ff" d="M618.97,-330.94C628.85,-328.39 639.35,-325.5 649,-322.5 675.53,-314.24 705.02,-303.26 726.93,-294.74"/>
<polygon fill="#63b8ff" stroke="#63b8ff" points="728.39,-297.93 736.43,-291.02 725.84,-291.41 728.39,-297.93"/>
</a>
</g>
</g>
<!-- Node10&#45;&gt;Node4 -->
<g id="edge15_Node000010_Node000004" class="edge">
<title>Node10&#45;&gt;Node4</title>
<g id="a_edge15_Node000010_Node000004"><a xlink:title=" ">
<path fill="none" stroke="#63b8ff" d="M649.19,-294.93C657.56,-293.92 666.17,-292.87 674.72,-291.84"/>
<polygon fill="#63b8ff" stroke="#63b8ff" points="675.19,-295.31 684.7,-290.63 674.35,-288.36 675.19,-295.31"/>
</a>
</g>
</g>
<!-- Node11&#45;&gt;Node4 -->
<g id="edge17_Node000011_Node000004" class="edge">
<title>Node11&#45;&gt;Node4</title>
<g id="a_edge17_Node000011_Node000004"><a xlink:title=" ">
<path fill="none" stroke="#63b8ff" d="M648.67,-268.62C657.2,-269.61 665.99,-270.62 674.71,-271.63"/>
<polygon fill="#63b8ff" stroke="#63b8ff" points="674.56,-275.14 684.9,-272.81 675.37,-268.18 674.56,-275.14"/>
</a>
</g>
</g>
<!-- Node12&#45;&gt;Node4 -->
<g id="edge19_Node000012_Node000004" class="edge">
<title>Node12&#45;&gt;Node4</title>
<g id="a_edge19_Node000012_Node000004"><a xlink:title=" ">
<path fill="none" stroke="#63b8ff" d="M617.17,-227.01C627.58,-229.82 638.79,-233.07 649,-236.5 676.64,-245.79 707.31,-258.41 729.4,-267.92"/>
<polygon fill="#63b8ff" stroke="#63b8ff" points="728.03,-271.14 738.6,-271.91 730.82,-264.72 728.03,-271.14"/>
</a>
</g>
</g>
<!-- Node13&#45;&gt;Node4 -->
<g id="edge21_Node000013_Node000004" class="edge">
<title>Node13&#45;&gt;Node4</title>
<g id="a_edge21_Node000013_Node000004"><a xlink:title=" ">
<path fill="none" stroke="#63b8ff" d="M623.79,-190.02C632.37,-192.56 641.12,-195.7 649,-199.5 685.03,-216.89 721.29,-246.49 742.14,-264.96"/>
<polygon fill="#63b8ff" stroke="#63b8ff" points="740.07,-267.81 749.85,-271.91 744.76,-262.61 740.07,-267.81"/>
</a>
</g>
</g>
<!-- Node14&#45;&gt;Node4 -->
<g id="edge23_Node000014_Node000004" class="edge">
<title>Node14&#45;&gt;Node4</title>
<g id="a_edge23_Node000014_Node000004"><a xlink:title=" ">
<path fill="none" stroke="#63b8ff" d="M630.33,-152.61C636.85,-155.44 643.24,-158.73 649,-162.5 691.29,-190.24 728.71,-237.37 747.4,-263.21"/>
<polygon fill="#63b8ff" stroke="#63b8ff" points="744.77,-265.56 753.41,-271.69 750.48,-261.51 744.77,-265.56"/>
</a>
</g>
</g>
<!-- Node15&#45;&gt;Node4 -->
<g id="edge25_Node000015_Node000004" class="edge">
<title>Node15&#45;&gt;Node4</title>
<g id="a_edge25_Node000015_Node000004"><a xlink:title=" ">
<path fill="none" stroke="#63b8ff" d="M631.27,-104.12C637.57,-106.57 643.65,-109.64 649,-113.5 703.21,-152.62 738.36,-227.03 752.69,-262.19"/>
<polygon fill="#63b8ff" stroke="#63b8ff" points="749.54,-263.73 756.46,-271.75 756.05,-261.17 749.54,-263.73"/>
</a>
</g>
</g>
<!-- Node16&#45;&gt;Node4 -->
<g id="edge27_Node000016_Node000004" class="edge">
<title>Node16&#45;&gt;Node4</title>
<g id="a_edge27_Node000016_Node000004"><a xlink:title=" ">
<path fill="none" stroke="#63b8ff" d="M634.46,-67.05C639.66,-69.3 644.62,-72.08 649,-75.5 712.34,-124.99 744.08,-221.04 755.23,-262.11"/>
<polygon fill="#63b8ff" stroke="#63b8ff" points="751.88,-263.14 757.78,-271.94 758.65,-261.38 751.88,-263.14"/>
</a>
</g>
</g>
</g>
</svg>
