<?xml version="1.0" encoding="UTF-8" standalone="no"?>
<!DOCTYPE svg PUBLIC "-//W3C//DTD SVG 1.1//EN"
 "http://www.w3.org/Graphics/SVG/1.1/DTD/svg11.dtd">
<!-- Generated by graphviz version 2.43.0 (0)
 -->
<!-- Title: lci::allreduce_x::call Pages: 1 -->
<svg width="302pt" height="64pt"
 viewBox="0.00 0.00 302.00 64.00" xmlns="http://www.w3.org/2000/svg" xmlns:xlink="http://www.w3.org/1999/xlink">
<g id="graph0" class="graph" transform="scale(1 1) rotate(0) translate(4 60)">
<title>lci::allreduce_x::call</title>
<!-- Node1 -->
<g id="Node000001" class="node">
<title>Node1</title>
<g id="a_Node000001"><a xlink:title=" ">
<polygon fill="#999999" stroke="#666666" points="294,-37 181,-37 181,-18 294,-18 294,-37"/>
<text text-anchor="middle" x="237.5" y="-25" font-family="Helvetica,sans-Serif" font-size="10.00">lci::allreduce_x::call</text>
</a>
</g>
</g>
<!-- Node2 -->
<g id="Node000002" class="node">
<title>Node2</title>
<g id="a_Node000002"><a xlink:href="../../d5/dd3/namespacelci.html#ac8ef1bed5031bfdf08b7d80a33809d40" target="_top" xlink:title=" ">
<polygon fill="white" stroke="#666666" points="112,-56 33,-56 33,-37 112,-37 112,-56"/>
<text text-anchor="middle" x="72.5" y="-44" font-family="Helvetica,sans-Serif" font-size="10.00">lci::allreduce</text>
</a>
</g>
</g>
<!-- Node1&#45;&gt;Node2 -->
<g id="edge1_Node000001_Node000002" class="edge">
<title>Node1&#45;&gt;Node2</title>
<g id="a_edge1_Node000001_Node000002"><a xlink:title=" ">
<path fill="none" stroke="#63b8ff" d="M170.9,-35.15C150.98,-37.47 129.75,-39.94 112.2,-41.99"/>
<polygon fill="#63b8ff" stroke="#63b8ff" points="171.33,-38.62 180.86,-33.99 170.52,-31.67 171.33,-38.62"/>
</a>
</g>
</g>
<!-- Node3 -->
<g id="Node000003" class="node">
<title>Node3</title>
<g id="a_Node000003"><a xlink:href="../../dc/d4c/classlci_1_1allreduce__x.html#a246221d4fb66fae97d9b84458d9362d3" target="_top" xlink:title=" ">
<polygon fill="white" stroke="#666666" points="145,-19 0,-19 0,0 145,0 145,-19"/>
<text text-anchor="middle" x="72.5" y="-7" font-family="Helvetica,sans-Serif" font-size="10.00">lci::allreduce_x::operator()</text>
</a>
</g>
</g>
<!-- Node1&#45;&gt;Node3 -->
<g id="edge2_Node000001_Node000003" class="edge">
<title>Node1&#45;&gt;Node3</title>
<g id="a_edge2_Node000001_Node000003"><a xlink:title=" ">
<path fill="none" stroke="#63b8ff" d="M170.7,-20.23C162.25,-19.3 153.56,-18.34 145.03,-17.4"/>
<polygon fill="#63b8ff" stroke="#63b8ff" points="170.54,-23.74 180.86,-21.36 171.31,-16.78 170.54,-23.74"/>
</a>
</g>
</g>
</g>
</svg>
