<?xml version="1.0" encoding="UTF-8" standalone="no"?>
<!DOCTYPE svg PUBLIC "-//W3C//DTD SVG 1.1//EN"
 "http://www.w3.org/Graphics/SVG/1.1/DTD/svg11.dtd">
<!-- Generated by graphviz version 2.43.0 (0)
 -->
<!-- Title: lci::allreduce_x::call_impl Pages: 1 -->
<svg width="515pt" height="458pt"
 viewBox="0.00 0.00 515.00 458.00" xmlns="http://www.w3.org/2000/svg" xmlns:xlink="http://www.w3.org/1999/xlink">
<g id="graph0" class="graph" transform="scale(1 1) rotate(0) translate(4 454)">
<title>lci::allreduce_x::call_impl</title>
<!-- Node1 -->
<g id="Node000001" class="node">
<title>Node1</title>
<g id="a_Node000001"><a xlink:title=" ">
<polygon fill="#999999" stroke="#666666" points="140,-243 0,-243 0,-224 140,-224 140,-243"/>
<text text-anchor="middle" x="70" y="-231" font-family="Helvetica,sans-Serif" font-size="10.00">lci::allreduce_x::call_impl</text>
</a>
</g>
</g>
<!-- Node2 -->
<g id="Node000002" class="node">
<title>Node2</title>
<g id="a_Node000002"><a xlink:href="../../dc/d4c/classlci_1_1allreduce__x.html#aaa02abfa8800fa52e9dbc6e02f2d8a3e" target="_top" xlink:title=" ">
<polygon fill="white" stroke="#666666" points="319,-450 176,-450 176,-431 319,-431 319,-450"/>
<text text-anchor="middle" x="247.5" y="-438" font-family="Helvetica,sans-Serif" font-size="10.00">lci::allreduce_x::algorithm</text>
</a>
</g>
</g>
<!-- Node1&#45;&gt;Node2 -->
<g id="edge1_Node000001_Node000002" class="edge">
<title>Node1&#45;&gt;Node2</title>
<g id="a_edge1_Node000001_Node000002"><a xlink:title=" ">
<path fill="none" stroke="#63b8ff" d="M73.41,-243.13C81.75,-274.33 112.39,-373.45 176,-422.5 177.79,-423.88 179.67,-425.15 181.62,-426.33"/>
<polygon fill="#63b8ff" stroke="#63b8ff" points="180.09,-429.48 190.59,-430.89 183.27,-423.24 180.09,-429.48"/>
</a>
</g>
</g>
<!-- Node4 -->
<g id="Node000004" class="node">
<title>Node4</title>
<g id="a_Node000004"><a xlink:href="../../dc/d4c/classlci_1_1allreduce__x.html#ad18164e8ebd3183408116e7f6bcf8394" target="_top" xlink:title=" ">
<polygon fill="white" stroke="#666666" points="309,-413 186,-413 186,-394 309,-394 309,-413"/>
<text text-anchor="middle" x="247.5" y="-401" font-family="Helvetica,sans-Serif" font-size="10.00">lci::allreduce_x::comp</text>
</a>
</g>
</g>
<!-- Node1&#45;&gt;Node4 -->
<g id="edge3_Node000001_Node000004" class="edge">
<title>Node1&#45;&gt;Node4</title>
<g id="a_edge3_Node000001_Node000004"><a xlink:title=" ">
<path fill="none" stroke="#63b8ff" d="M74.75,-243.12C85.81,-270.13 120.99,-347.2 176,-385.5 178.13,-386.98 180.38,-388.35 182.7,-389.6"/>
<polygon fill="#63b8ff" stroke="#63b8ff" points="181.45,-392.87 192,-393.88 184.38,-386.52 181.45,-392.87"/>
</a>
</g>
</g>
<!-- Node5 -->
<g id="Node000005" class="node">
<title>Node5</title>
<g id="a_Node000005"><a xlink:href="../../dc/d4c/classlci_1_1allreduce__x.html#a6dc69a1ad59049bb9c82821d2104b13d" target="_top" xlink:title=" ">
<polygon fill="white" stroke="#666666" points="309,-376 186,-376 186,-357 309,-357 309,-376"/>
<text text-anchor="middle" x="247.5" y="-364" font-family="Helvetica,sans-Serif" font-size="10.00">lci::allreduce_x::count</text>
</a>
</g>
</g>
<!-- Node1&#45;&gt;Node5 -->
<g id="edge5_Node000001_Node000005" class="edge">
<title>Node1&#45;&gt;Node5</title>
<g id="a_edge5_Node000001_Node000005"><a xlink:title=" ">
<path fill="none" stroke="#63b8ff" d="M77,-243.27C91.25,-265.59 129.4,-320.54 176,-348.5 178.96,-350.28 182.09,-351.88 185.32,-353.32"/>
<polygon fill="#63b8ff" stroke="#63b8ff" points="184.06,-356.59 194.64,-356.99 186.62,-350.07 184.06,-356.59"/>
</a>
</g>
</g>
<!-- Node6 -->
<g id="Node000006" class="node">
<title>Node6</title>
<g id="a_Node000006"><a xlink:href="../../dc/d4c/classlci_1_1allreduce__x.html#a4e2aabe081a2b878fa64298adf18d9fb" target="_top" xlink:title=" ">
<polygon fill="white" stroke="#666666" points="311.5,-339 183.5,-339 183.5,-320 311.5,-320 311.5,-339"/>
<text text-anchor="middle" x="247.5" y="-327" font-family="Helvetica,sans-Serif" font-size="10.00">lci::allreduce_x::device</text>
</a>
</g>
</g>
<!-- Node1&#45;&gt;Node6 -->
<g id="edge7_Node000001_Node000006" class="edge">
<title>Node1&#45;&gt;Node6</title>
<g id="a_edge7_Node000001_Node000006"><a xlink:title=" ">
<path fill="none" stroke="#63b8ff" d="M81.13,-243.2C98.9,-259.68 137.46,-293.14 176,-311.5 180.09,-313.45 184.41,-315.2 188.83,-316.78"/>
<polygon fill="#63b8ff" stroke="#63b8ff" points="187.99,-320.19 198.58,-319.96 190.16,-313.53 187.99,-320.19"/>
</a>
</g>
</g>
<!-- Node7 -->
<g id="Node000007" class="node">
<title>Node7</title>
<g id="a_Node000007"><a xlink:href="../../dc/d4c/classlci_1_1allreduce__x.html#a9036135db8cdc5297ca8d952847c8e8d" target="_top" xlink:title=" ">
<polygon fill="white" stroke="#666666" points="317,-302 178,-302 178,-283 317,-283 317,-302"/>
<text text-anchor="middle" x="247.5" y="-290" font-family="Helvetica,sans-Serif" font-size="10.00">lci::allreduce_x::endpoint</text>
</a>
</g>
</g>
<!-- Node1&#45;&gt;Node7 -->
<g id="edge9_Node000001_Node000007" class="edge">
<title>Node1&#45;&gt;Node7</title>
<g id="a_edge9_Node000001_Node000007"><a xlink:title=" ">
<path fill="none" stroke="#63b8ff" d="M93.24,-243.1C114.3,-251.97 146.94,-265.15 176,-274.5 182.38,-276.55 189.15,-278.53 195.87,-280.37"/>
<polygon fill="#63b8ff" stroke="#63b8ff" points="195.06,-283.78 205.62,-282.97 196.86,-277.01 195.06,-283.78"/>
</a>
</g>
</g>
<!-- Node8 -->
<g id="Node000008" class="node">
<title>Node8</title>
<g id="a_Node000008"><a xlink:href="../../dc/d4c/classlci_1_1allreduce__x.html#a0a274f3de7b0cfd9ac00150970cf7182" target="_top" xlink:title=" ">
<polygon fill="white" stroke="#666666" points="319,-265 176,-265 176,-246 319,-246 319,-265"/>
<text text-anchor="middle" x="247.5" y="-253" font-family="Helvetica,sans-Serif" font-size="10.00">lci::allreduce_x::item_size</text>
</a>
</g>
</g>
<!-- Node1&#45;&gt;Node8 -->
<g id="edge11_Node000001_Node000008" class="edge">
<title>Node1&#45;&gt;Node8</title>
<g id="a_edge11_Node000001_Node000008"><a xlink:title=" ">
<path fill="none" stroke="#63b8ff" d="M140.11,-242.16C148.52,-243.22 157.17,-244.3 165.73,-245.38"/>
<polygon fill="#63b8ff" stroke="#63b8ff" points="165.37,-248.86 175.72,-246.63 166.24,-241.91 165.37,-248.86"/>
</a>
</g>
</g>
<!-- Node9 -->
<g id="Node000009" class="node">
<title>Node9</title>
<g id="a_Node000009"><a xlink:href="../../dc/d4c/classlci_1_1allreduce__x.html#ad7ceb3f3938928c3d44dfe6238dd461b" target="_top" xlink:title=" ">
<polygon fill="white" stroke="#666666" points="318.5,-227.5 176.5,-227.5 176.5,-197.5 318.5,-197.5 318.5,-227.5"/>
<text text-anchor="start" x="184.5" y="-215.5" font-family="Helvetica,sans-Serif" font-size="10.00">lci::allreduce_x::matching</text>
<text text-anchor="middle" x="247.5" y="-204.5" font-family="Helvetica,sans-Serif" font-size="10.00">_engine</text>
</a>
</g>
</g>
<!-- Node1&#45;&gt;Node9 -->
<g id="edge13_Node000001_Node000009" class="edge">
<title>Node1&#45;&gt;Node9</title>
<g id="a_edge13_Node000001_Node000009"><a xlink:title=" ">
<path fill="none" stroke="#63b8ff" d="M140.11,-225.23C148.66,-224.21 157.46,-223.15 166.15,-222.11"/>
<polygon fill="#63b8ff" stroke="#63b8ff" points="166.79,-225.56 176.3,-220.9 165.96,-218.61 166.79,-225.56"/>
</a>
</g>
</g>
<!-- Node10 -->
<g id="Node000010" class="node">
<title>Node10</title>
<g id="a_Node000010"><a xlink:href="../../dc/d4c/classlci_1_1allreduce__x.html#a9df0ae40e18b56514e45be5d88bcb3be" target="_top" xlink:title=" ">
<polygon fill="white" stroke="#666666" points="301.5,-179 193.5,-179 193.5,-160 301.5,-160 301.5,-179"/>
<text text-anchor="middle" x="247.5" y="-167" font-family="Helvetica,sans-Serif" font-size="10.00">lci::allreduce_x::op</text>
</a>
</g>
</g>
<!-- Node1&#45;&gt;Node10 -->
<g id="edge15_Node000001_Node000010" class="edge">
<title>Node1&#45;&gt;Node10</title>
<g id="a_edge15_Node000001_Node000010"><a xlink:title=" ">
<path fill="none" stroke="#63b8ff" d="M91.18,-223.83C112.08,-214.07 145.83,-198.97 176,-188.5 182.83,-186.13 190.12,-183.87 197.33,-181.79"/>
<polygon fill="#63b8ff" stroke="#63b8ff" points="198.36,-185.14 207.04,-179.08 196.47,-178.4 198.36,-185.14"/>
</a>
</g>
</g>
<!-- Node11 -->
<g id="Node000011" class="node">
<title>Node11</title>
<g id="a_Node000011"><a xlink:href="../../dc/d4c/classlci_1_1allreduce__x.html#a881c09308572b9cde55789f3b91a6c2c" target="_top" xlink:title=" ">
<polygon fill="white" stroke="#666666" points="314,-142 181,-142 181,-123 314,-123 314,-142"/>
<text text-anchor="middle" x="247.5" y="-130" font-family="Helvetica,sans-Serif" font-size="10.00">lci::allreduce_x::recvbuf</text>
</a>
</g>
</g>
<!-- Node1&#45;&gt;Node11 -->
<g id="edge17_Node000001_Node000011" class="edge">
<title>Node1&#45;&gt;Node11</title>
<g id="a_edge17_Node000001_Node000011"><a xlink:title=" ">
<path fill="none" stroke="#63b8ff" d="M80.5,-223.87C97.89,-206.79 136.68,-171.13 176,-151.5 180.63,-149.19 185.58,-147.13 190.62,-145.3"/>
<polygon fill="#63b8ff" stroke="#63b8ff" points="191.99,-148.54 200.38,-142.07 189.79,-141.89 191.99,-148.54"/>
</a>
</g>
</g>
<!-- Node12 -->
<g id="Node000012" class="node">
<title>Node12</title>
<g id="a_Node000012"><a xlink:href="../../dc/d4c/classlci_1_1allreduce__x.html#abd311ac1652d6a75b24db36827058bec" target="_top" xlink:title=" ">
<polygon fill="white" stroke="#666666" points="305,-104.5 190,-104.5 190,-74.5 305,-74.5 305,-104.5"/>
<text text-anchor="start" x="198" y="-92.5" font-family="Helvetica,sans-Serif" font-size="10.00">lci::allreduce_x::ring</text>
<text text-anchor="middle" x="247.5" y="-81.5" font-family="Helvetica,sans-Serif" font-size="10.00">_nsteps</text>
</a>
</g>
</g>
<!-- Node1&#45;&gt;Node12 -->
<g id="edge19_Node000001_Node000012" class="edge">
<title>Node1&#45;&gt;Node12</title>
<g id="a_edge19_Node000001_Node000012"><a xlink:title=" ">
<path fill="none" stroke="#63b8ff" d="M77.1,-223.68C91.55,-201.18 130.12,-145.51 176,-114.5 178.88,-112.55 181.94,-110.73 185.09,-109.05"/>
<polygon fill="#63b8ff" stroke="#63b8ff" points="186.74,-112.14 194.2,-104.62 183.68,-105.84 186.74,-112.14"/>
</a>
</g>
</g>
<!-- Node13 -->
<g id="Node000013" class="node">
<title>Node13</title>
<g id="a_Node000013"><a xlink:href="../../dc/d4c/classlci_1_1allreduce__x.html#aa8f47fb900a1ea8212ac5ab9a522335b" target="_top" xlink:title=" ">
<polygon fill="white" stroke="#666666" points="314.5,-56 180.5,-56 180.5,-37 314.5,-37 314.5,-56"/>
<text text-anchor="middle" x="247.5" y="-44" font-family="Helvetica,sans-Serif" font-size="10.00">lci::allreduce_x::runtime</text>
</a>
</g>
</g>
<!-- Node1&#45;&gt;Node13 -->
<g id="edge21_Node000001_Node000013" class="edge">
<title>Node1&#45;&gt;Node13</title>
<g id="a_edge21_Node000001_Node000013"><a xlink:title=" ">
<path fill="none" stroke="#63b8ff" d="M74.19,-223.76C84.17,-194.82 117.69,-108.71 176,-65.5 178.52,-63.64 181.2,-61.95 184,-60.44"/>
<polygon fill="#63b8ff" stroke="#63b8ff" points="185.68,-63.52 193.27,-56.13 182.73,-57.17 185.68,-63.52"/>
</a>
</g>
</g>
<!-- Node14 -->
<g id="Node000014" class="node">
<title>Node14</title>
<g id="a_Node000014"><a xlink:href="../../dc/d4c/classlci_1_1allreduce__x.html#a318bceb6a271281169ce5884479d20de" target="_top" xlink:title=" ">
<polygon fill="white" stroke="#666666" points="315,-19 180,-19 180,0 315,0 315,-19"/>
<text text-anchor="middle" x="247.5" y="-7" font-family="Helvetica,sans-Serif" font-size="10.00">lci::allreduce_x::sendbuf</text>
</a>
</g>
</g>
<!-- Node1&#45;&gt;Node14 -->
<g id="edge23_Node000001_Node000014" class="edge">
<title>Node1&#45;&gt;Node14</title>
<g id="a_edge23_Node000001_Node000014"><a xlink:title=" ">
<path fill="none" stroke="#63b8ff" d="M73.07,-223.57C80.53,-190.42 109.17,-82.58 176,-28.5 178.26,-26.67 180.69,-25.01 183.23,-23.52"/>
<polygon fill="#63b8ff" stroke="#63b8ff" points="184.85,-26.62 192.23,-19.01 181.72,-20.36 184.85,-26.62"/>
</a>
</g>
</g>
<!-- Node3 -->
<g id="Node000003" class="node">
<title>Node3</title>
<g id="a_Node000003"><a xlink:href="../../dc/d4c/classlci_1_1allreduce__x.html#a475f8fadb56c2f6c8c712e62ebda04b6" target="_top" xlink:title=" ">
<polygon fill="white" stroke="#666666" points="507,-243 355,-243 355,-224 507,-224 507,-243"/>
<text text-anchor="middle" x="431" y="-231" font-family="Helvetica,sans-Serif" font-size="10.00">lci::allreduce_x::allreduce_x</text>
</a>
</g>
</g>
<!-- Node2&#45;&gt;Node3 -->
<g id="edge2_Node000002_Node000003" class="edge">
<title>Node2&#45;&gt;Node3</title>
<g id="a_edge2_Node000002_Node000003"><a xlink:title=" ">
<path fill="none" stroke="#63b8ff" d="M303.97,-430.94C309.33,-428.69 314.46,-425.92 319,-422.5 378.23,-377.95 411.59,-291.78 424.15,-253.12"/>
<polygon fill="#63b8ff" stroke="#63b8ff" points="427.63,-253.73 427.27,-243.14 420.95,-251.64 427.63,-253.73"/>
</a>
</g>
</g>
<!-- Node4&#45;&gt;Node3 -->
<g id="edge4_Node000004_Node000003" class="edge">
<title>Node4&#45;&gt;Node3</title>
<g id="a_edge4_Node000004_Node000003"><a xlink:title=" ">
<path fill="none" stroke="#63b8ff" d="M302.55,-393.89C308.36,-391.66 313.98,-388.9 319,-385.5 370.03,-350.96 406.12,-284.82 421.58,-252.38"/>
<polygon fill="#63b8ff" stroke="#63b8ff" points="424.84,-253.66 425.87,-243.12 418.49,-250.72 424.84,-253.66"/>
</a>
</g>
</g>
<!-- Node5&#45;&gt;Node3 -->
<g id="edge6_Node000005_Node000003" class="edge">
<title>Node5&#45;&gt;Node3</title>
<g id="a_edge6_Node000005_Node000003"><a xlink:title=" ">
<path fill="none" stroke="#63b8ff" d="M299.9,-356.97C306.56,-354.71 313.1,-351.93 319,-348.5 361.95,-323.54 399.11,-277.25 417.57,-251.67"/>
<polygon fill="#63b8ff" stroke="#63b8ff" points="420.6,-253.45 423.51,-243.26 414.88,-249.42 420.6,-253.45"/>
</a>
</g>
</g>
<!-- Node6&#45;&gt;Node3 -->
<g id="edge8_Node000006_Node000003" class="edge">
<title>Node6&#45;&gt;Node3</title>
<g id="a_edge8_Node000006_Node000003"><a xlink:title=" ">
<path fill="none" stroke="#63b8ff" d="M295.97,-319.91C303.83,-317.61 311.77,-314.83 319,-311.5 354.35,-295.23 390.31,-267.47 411.37,-249.83"/>
<polygon fill="#63b8ff" stroke="#63b8ff" points="413.84,-252.32 419.18,-243.17 409.3,-246.99 413.84,-252.32"/>
</a>
</g>
</g>
<!-- Node7&#45;&gt;Node3 -->
<g id="edge10_Node000007_Node000003" class="edge">
<title>Node7&#45;&gt;Node3</title>
<g id="a_edge10_Node000007_Node000003"><a xlink:title=" ">
<path fill="none" stroke="#63b8ff" d="M288.97,-282.94C298.85,-280.39 309.35,-277.5 319,-274.5 345.53,-266.24 375.02,-255.26 396.93,-246.74"/>
<polygon fill="#63b8ff" stroke="#63b8ff" points="398.39,-249.93 406.43,-243.02 395.84,-243.41 398.39,-249.93"/>
</a>
</g>
</g>
<!-- Node8&#45;&gt;Node3 -->
<g id="edge12_Node000008_Node000003" class="edge">
<title>Node8&#45;&gt;Node3</title>
<g id="a_edge12_Node000008_Node000003"><a xlink:title=" ">
<path fill="none" stroke="#63b8ff" d="M319.19,-246.93C327.56,-245.92 336.17,-244.87 344.72,-243.84"/>
<polygon fill="#63b8ff" stroke="#63b8ff" points="345.19,-247.31 354.7,-242.63 344.35,-240.36 345.19,-247.31"/>
</a>
</g>
</g>
<!-- Node9&#45;&gt;Node3 -->
<g id="edge14_Node000009_Node000003" class="edge">
<title>Node9&#45;&gt;Node3</title>
<g id="a_edge14_Node000009_Node000003"><a xlink:title=" ">
<path fill="none" stroke="#63b8ff" d="M318.67,-220.62C327.2,-221.61 335.99,-222.62 344.71,-223.63"/>
<polygon fill="#63b8ff" stroke="#63b8ff" points="344.56,-227.14 354.9,-224.81 345.37,-220.18 344.56,-227.14"/>
</a>
</g>
</g>
<!-- Node10&#45;&gt;Node3 -->
<g id="edge16_Node000010_Node000003" class="edge">
<title>Node10&#45;&gt;Node3</title>
<g id="a_edge16_Node000010_Node000003"><a xlink:title=" ">
<path fill="none" stroke="#63b8ff" d="M287.17,-179.01C297.58,-181.82 308.79,-185.07 319,-188.5 346.64,-197.79 377.31,-210.41 399.4,-219.92"/>
<polygon fill="#63b8ff" stroke="#63b8ff" points="398.03,-223.14 408.6,-223.91 400.82,-216.72 398.03,-223.14"/>
</a>
</g>
</g>
<!-- Node11&#45;&gt;Node3 -->
<g id="edge18_Node000011_Node000003" class="edge">
<title>Node11&#45;&gt;Node3</title>
<g id="a_edge18_Node000011_Node000003"><a xlink:title=" ">
<path fill="none" stroke="#63b8ff" d="M293.79,-142.02C302.37,-144.56 311.12,-147.7 319,-151.5 355.03,-168.89 391.29,-198.49 412.14,-216.96"/>
<polygon fill="#63b8ff" stroke="#63b8ff" points="410.07,-219.81 419.85,-223.91 414.76,-214.61 410.07,-219.81"/>
</a>
</g>
</g>
<!-- Node12&#45;&gt;Node3 -->
<g id="edge20_Node000012_Node000003" class="edge">
<title>Node12&#45;&gt;Node3</title>
<g id="a_edge20_Node000012_Node000003"><a xlink:title=" ">
<path fill="none" stroke="#63b8ff" d="M300.33,-104.61C306.85,-107.44 313.24,-110.73 319,-114.5 361.29,-142.24 398.71,-189.37 417.4,-215.21"/>
<polygon fill="#63b8ff" stroke="#63b8ff" points="414.77,-217.56 423.41,-223.69 420.48,-213.51 414.77,-217.56"/>
</a>
</g>
</g>
<!-- Node13&#45;&gt;Node3 -->
<g id="edge22_Node000013_Node000003" class="edge">
<title>Node13&#45;&gt;Node3</title>
<g id="a_edge22_Node000013_Node000003"><a xlink:title=" ">
<path fill="none" stroke="#63b8ff" d="M301.27,-56.12C307.57,-58.57 313.65,-61.64 319,-65.5 373.21,-104.62 408.36,-179.03 422.69,-214.19"/>
<polygon fill="#63b8ff" stroke="#63b8ff" points="419.54,-215.73 426.46,-223.75 426.05,-213.17 419.54,-215.73"/>
</a>
</g>
</g>
<!-- Node14&#45;&gt;Node3 -->
<g id="edge24_Node000014_Node000003" class="edge">
<title>Node14&#45;&gt;Node3</title>
<g id="a_edge24_Node000014_Node000003"><a xlink:title=" ">
<path fill="none" stroke="#63b8ff" d="M302.68,-19.12C308.54,-21.57 314.13,-24.65 319,-28.5 381.53,-77.93 413.54,-172.63 424.99,-213.7"/>
<polygon fill="#63b8ff" stroke="#63b8ff" points="421.66,-214.8 427.62,-223.56 428.42,-213 421.66,-214.8"/>
</a>
</g>
</g>
</g>
</svg>
