<?xml version="1.0" encoding="UTF-8" standalone="no"?>
<!DOCTYPE svg PUBLIC "-//W3C//DTD SVG 1.1//EN"
 "http://www.w3.org/Graphics/SVG/1.1/DTD/svg11.dtd">
<!-- Generated by graphviz version 2.43.0 (0)
 -->
<!-- Title: lci::allreduce_x::call Pages: 1 -->
<svg width="664pt" height="517pt"
 viewBox="0.00 0.00 664.00 517.00" xmlns="http://www.w3.org/2000/svg" xmlns:xlink="http://www.w3.org/1999/xlink">
<g id="graph0" class="graph" transform="scale(1 1) rotate(0) translate(4 513)">
<title>lci::allreduce_x::call</title>
<!-- Node1 -->
<g id="Node000001" class="node">
<title>Node1</title>
<g id="a_Node000001"><a xlink:title=" ">
<polygon fill="#999999" stroke="#666666" points="113,-271.5 0,-271.5 0,-252.5 113,-252.5 113,-271.5"/>
<text text-anchor="middle" x="56.5" y="-259.5" font-family="Helvetica,sans-Serif" font-size="10.00">lci::allreduce_x::call</text>
</a>
</g>
</g>
<!-- Node2 -->
<g id="Node000002" class="node">
<title>Node2</title>
<g id="a_Node000002"><a xlink:href="../../dc/d4c/classlci_1_1allreduce__x.html#aaa02abfa8800fa52e9dbc6e02f2d8a3e" target="_top" xlink:title=" ">
<polygon fill="white" stroke="#666666" points="468,-386.5 325,-386.5 325,-367.5 468,-367.5 468,-386.5"/>
<text text-anchor="middle" x="396.5" y="-374.5" font-family="Helvetica,sans-Serif" font-size="10.00">lci::allreduce_x::algorithm</text>
</a>
</g>
</g>
<!-- Node1&#45;&gt;Node2 -->
<g id="edge1_Node000001_Node000002" class="edge">
<title>Node1&#45;&gt;Node2</title>
<g id="a_edge1_Node000001_Node000002"><a xlink:title=" ">
<path fill="none" stroke="#63b8ff" d="M64.79,-271.73C78.84,-289.67 111.62,-327.72 149,-345 200.86,-368.97 265,-376.7 314.85,-378.59"/>
<polygon fill="#63b8ff" stroke="#63b8ff" points="314.84,-382.09 324.94,-378.9 315.05,-375.09 314.84,-382.09"/>
</a>
</g>
</g>
<!-- Node4 -->
<g id="Node000004" class="node">
<title>Node4</title>
<g id="a_Node000004"><a xlink:href="../../dc/d4c/classlci_1_1allreduce__x.html#a090d4943f2b1af89557645f09eb85673" target="_top" xlink:title=" ">
<polygon fill="white" stroke="#666666" points="289,-290.5 149,-290.5 149,-271.5 289,-271.5 289,-290.5"/>
<text text-anchor="middle" x="219" y="-278.5" font-family="Helvetica,sans-Serif" font-size="10.00">lci::allreduce_x::call_impl</text>
</a>
</g>
</g>
<!-- Node1&#45;&gt;Node4 -->
<g id="edge3_Node000001_Node000004" class="edge">
<title>Node1&#45;&gt;Node4</title>
<g id="a_edge3_Node000001_Node000004"><a xlink:title=" ">
<path fill="none" stroke="#63b8ff" d="M113.18,-268.59C121.45,-269.57 130.1,-270.59 138.73,-271.62"/>
<polygon fill="#63b8ff" stroke="#63b8ff" points="138.5,-275.11 148.84,-272.81 139.32,-268.16 138.5,-275.11"/>
</a>
</g>
</g>
<!-- Node5 -->
<g id="Node000005" class="node">
<title>Node5</title>
<g id="a_Node000005"><a xlink:href="../../dc/d4c/classlci_1_1allreduce__x.html#ad18164e8ebd3183408116e7f6bcf8394" target="_top" xlink:title=" ">
<polygon fill="white" stroke="#666666" points="458,-349.5 335,-349.5 335,-330.5 458,-330.5 458,-349.5"/>
<text text-anchor="middle" x="396.5" y="-337.5" font-family="Helvetica,sans-Serif" font-size="10.00">lci::allreduce_x::comp</text>
</a>
</g>
</g>
<!-- Node1&#45;&gt;Node5 -->
<g id="edge27_Node000001_Node000005" class="edge">
<title>Node1&#45;&gt;Node5</title>
<g id="a_edge27_Node000001_Node000005"><a xlink:title=" ">
<path fill="none" stroke="#63b8ff" d="M69,-271.72C85.5,-285.04 117.39,-308.49 149,-319 206.1,-337.99 274.53,-342.48 324.78,-342.66"/>
<polygon fill="#63b8ff" stroke="#63b8ff" points="324.91,-346.16 334.9,-342.64 324.89,-339.16 324.91,-346.16"/>
</a>
</g>
</g>
<!-- Node6 -->
<g id="Node000006" class="node">
<title>Node6</title>
<g id="a_Node000006"><a xlink:href="../../dc/d4c/classlci_1_1allreduce__x.html#a6dc69a1ad59049bb9c82821d2104b13d" target="_top" xlink:title=" ">
<polygon fill="white" stroke="#666666" points="458,-312.5 335,-312.5 335,-293.5 458,-293.5 458,-312.5"/>
<text text-anchor="middle" x="396.5" y="-300.5" font-family="Helvetica,sans-Serif" font-size="10.00">lci::allreduce_x::count</text>
</a>
</g>
</g>
<!-- Node1&#45;&gt;Node6 -->
<g id="edge28_Node000001_Node000006" class="edge">
<title>Node1&#45;&gt;Node6</title>
<g id="a_edge28_Node000001_Node000006"><a xlink:title=" ">
<path fill="none" stroke="#63b8ff" d="M75.45,-271.58C93.47,-280.62 122.3,-293.58 149,-299 207.37,-310.85 275.12,-311 324.81,-308.66"/>
<polygon fill="#63b8ff" stroke="#63b8ff" points="325,-312.16 334.81,-308.15 324.64,-305.17 325,-312.16"/>
</a>
</g>
</g>
<!-- Node7 -->
<g id="Node000007" class="node">
<title>Node7</title>
<g id="a_Node000007"><a xlink:href="../../dc/d4c/classlci_1_1allreduce__x.html#a4e2aabe081a2b878fa64298adf18d9fb" target="_top" xlink:title=" ">
<polygon fill="white" stroke="#666666" points="460.5,-275.5 332.5,-275.5 332.5,-256.5 460.5,-256.5 460.5,-275.5"/>
<text text-anchor="middle" x="396.5" y="-263.5" font-family="Helvetica,sans-Serif" font-size="10.00">lci::allreduce_x::device</text>
</a>
</g>
</g>
<!-- Node1&#45;&gt;Node7 -->
<g id="edge29_Node000001_Node000007" class="edge">
<title>Node1&#45;&gt;Node7</title>
<g id="a_edge29_Node000001_Node000007"><a xlink:title=" ">
<path fill="none" stroke="#63b8ff" d="M113.17,-261.41C160.07,-261.06 228.93,-260.87 289,-262 299.76,-262.2 311.14,-262.52 322.29,-262.89"/>
<polygon fill="#63b8ff" stroke="#63b8ff" points="322.32,-266.39 332.44,-263.24 322.57,-259.4 322.32,-266.39"/>
</a>
</g>
</g>
<!-- Node8 -->
<g id="Node000008" class="node">
<title>Node8</title>
<g id="a_Node000008"><a xlink:href="../../dc/d4c/classlci_1_1allreduce__x.html#a9036135db8cdc5297ca8d952847c8e8d" target="_top" xlink:title=" ">
<polygon fill="white" stroke="#666666" points="466,-238.5 327,-238.5 327,-219.5 466,-219.5 466,-238.5"/>
<text text-anchor="middle" x="396.5" y="-226.5" font-family="Helvetica,sans-Serif" font-size="10.00">lci::allreduce_x::endpoint</text>
</a>
</g>
</g>
<!-- Node1&#45;&gt;Node8 -->
<g id="edge30_Node000001_Node000008" class="edge">
<title>Node1&#45;&gt;Node8</title>
<g id="a_edge30_Node000001_Node000008"><a xlink:title=" ">
<path fill="none" stroke="#63b8ff" d="M113.31,-256.55C168.73,-251.14 254.2,-242.8 316.55,-236.71"/>
<polygon fill="#63b8ff" stroke="#63b8ff" points="317.13,-240.17 326.74,-235.71 316.45,-233.2 317.13,-240.17"/>
</a>
</g>
</g>
<!-- Node9 -->
<g id="Node000009" class="node">
<title>Node9</title>
<g id="a_Node000009"><a xlink:href="../../dc/d4c/classlci_1_1allreduce__x.html#a0a274f3de7b0cfd9ac00150970cf7182" target="_top" xlink:title=" ">
<polygon fill="white" stroke="#666666" points="468,-201.5 325,-201.5 325,-182.5 468,-182.5 468,-201.5"/>
<text text-anchor="middle" x="396.5" y="-189.5" font-family="Helvetica,sans-Serif" font-size="10.00">lci::allreduce_x::item_size</text>
</a>
</g>
</g>
<!-- Node1&#45;&gt;Node9 -->
<g id="edge34_Node000001_Node000009" class="edge">
<title>Node1&#45;&gt;Node9</title>
<g id="a_edge34_Node000001_Node000009"><a xlink:title=" ">
<path fill="none" stroke="#63b8ff" d="M88.22,-252.44C105.89,-247.15 128.56,-240.71 149,-236 206.76,-222.67 272.92,-211.06 322.15,-203.12"/>
<polygon fill="#63b8ff" stroke="#63b8ff" points="322.75,-206.56 332.07,-201.53 321.65,-199.65 322.75,-206.56"/>
</a>
</g>
</g>
<!-- Node10 -->
<g id="Node000010" class="node">
<title>Node10</title>
<g id="a_Node000010"><a xlink:href="../../dc/d4c/classlci_1_1allreduce__x.html#ad7ceb3f3938928c3d44dfe6238dd461b" target="_top" xlink:title=" ">
<polygon fill="white" stroke="#666666" points="467.5,-164 325.5,-164 325.5,-134 467.5,-134 467.5,-164"/>
<text text-anchor="start" x="333.5" y="-152" font-family="Helvetica,sans-Serif" font-size="10.00">lci::allreduce_x::matching</text>
<text text-anchor="middle" x="396.5" y="-141" font-family="Helvetica,sans-Serif" font-size="10.00">_engine</text>
</a>
</g>
</g>
<!-- Node1&#45;&gt;Node10 -->
<g id="edge35_Node000001_Node000010" class="edge">
<title>Node1&#45;&gt;Node10</title>
<g id="a_edge35_Node000001_Node000010"><a xlink:title=" ">
<path fill="none" stroke="#63b8ff" d="M69.8,-252.45C86.71,-239.77 118.54,-217.53 149,-205 202.44,-183.02 266.12,-168.83 315.37,-160.24"/>
<polygon fill="#63b8ff" stroke="#63b8ff" points="316.07,-163.67 325.34,-158.54 314.89,-156.77 316.07,-163.67"/>
</a>
</g>
</g>
<!-- Node11 -->
<g id="Node000011" class="node">
<title>Node11</title>
<g id="a_Node000011"><a xlink:href="../../dc/d4c/classlci_1_1allreduce__x.html#a9df0ae40e18b56514e45be5d88bcb3be" target="_top" xlink:title=" ">
<polygon fill="white" stroke="#666666" points="450.5,-115.5 342.5,-115.5 342.5,-96.5 450.5,-96.5 450.5,-115.5"/>
<text text-anchor="middle" x="396.5" y="-103.5" font-family="Helvetica,sans-Serif" font-size="10.00">lci::allreduce_x::op</text>
</a>
</g>
</g>
<!-- Node1&#45;&gt;Node11 -->
<g id="edge36_Node000001_Node000011" class="edge">
<title>Node1&#45;&gt;Node11</title>
<g id="a_edge36_Node000001_Node000011"><a xlink:title=" ">
<path fill="none" stroke="#63b8ff" d="M63.45,-252.23C76.34,-231.96 108.92,-185.3 149,-162 205.56,-129.12 279.82,-115.55 332,-109.94"/>
<polygon fill="#63b8ff" stroke="#63b8ff" points="332.53,-113.41 342.13,-108.92 331.83,-106.44 332.53,-113.41"/>
</a>
</g>
</g>
<!-- Node12 -->
<g id="Node000012" class="node">
<title>Node12</title>
<g id="a_Node000012"><a xlink:href="../../dc/d4c/classlci_1_1allreduce__x.html#a881c09308572b9cde55789f3b91a6c2c" target="_top" xlink:title=" ">
<polygon fill="white" stroke="#666666" points="463,-78.5 330,-78.5 330,-59.5 463,-59.5 463,-78.5"/>
<text text-anchor="middle" x="396.5" y="-66.5" font-family="Helvetica,sans-Serif" font-size="10.00">lci::allreduce_x::recvbuf</text>
</a>
</g>
</g>
<!-- Node1&#45;&gt;Node12 -->
<g id="edge37_Node000001_Node000012" class="edge">
<title>Node1&#45;&gt;Node12</title>
<g id="a_edge37_Node000001_Node000012"><a xlink:title=" ">
<path fill="none" stroke="#63b8ff" d="M60.32,-252.39C68.76,-225.43 96.58,-148.74 149,-113 199.01,-78.91 267.52,-68.88 319.63,-66.83"/>
<polygon fill="#63b8ff" stroke="#63b8ff" points="319.93,-70.33 329.82,-66.52 319.72,-63.33 319.93,-70.33"/>
</a>
</g>
</g>
<!-- Node13 -->
<g id="Node000013" class="node">
<title>Node13</title>
<g id="a_Node000013"><a xlink:href="../../dc/d4c/classlci_1_1allreduce__x.html#abd311ac1652d6a75b24db36827058bec" target="_top" xlink:title=" ">
<polygon fill="white" stroke="#666666" points="454,-509 339,-509 339,-479 454,-479 454,-509"/>
<text text-anchor="start" x="347" y="-497" font-family="Helvetica,sans-Serif" font-size="10.00">lci::allreduce_x::ring</text>
<text text-anchor="middle" x="396.5" y="-486" font-family="Helvetica,sans-Serif" font-size="10.00">_nsteps</text>
</a>
</g>
</g>
<!-- Node1&#45;&gt;Node13 -->
<g id="edge38_Node000001_Node000013" class="edge">
<title>Node1&#45;&gt;Node13</title>
<g id="a_edge38_Node000001_Node000013"><a xlink:title=" ">
<path fill="none" stroke="#63b8ff" d="M59.31,-271.81C65.55,-302.64 89.15,-398.26 149,-444 200.5,-483.36 275.15,-493.88 328.79,-495.78"/>
<polygon fill="#63b8ff" stroke="#63b8ff" points="328.8,-499.28 338.89,-496.05 328.98,-492.28 328.8,-499.28"/>
</a>
</g>
</g>
<!-- Node14 -->
<g id="Node000014" class="node">
<title>Node14</title>
<g id="a_Node000014"><a xlink:href="../../dc/d4c/classlci_1_1allreduce__x.html#aa8f47fb900a1ea8212ac5ab9a522335b" target="_top" xlink:title=" ">
<polygon fill="white" stroke="#666666" points="463.5,-460.5 329.5,-460.5 329.5,-441.5 463.5,-441.5 463.5,-460.5"/>
<text text-anchor="middle" x="396.5" y="-448.5" font-family="Helvetica,sans-Serif" font-size="10.00">lci::allreduce_x::runtime</text>
</a>
</g>
</g>
<!-- Node1&#45;&gt;Node14 -->
<g id="edge39_Node000001_Node000014" class="edge">
<title>Node1&#45;&gt;Node14</title>
<g id="a_edge39_Node000001_Node000014"><a xlink:title=" ">
<path fill="none" stroke="#63b8ff" d="M60.35,-271.5C68.86,-298.16 96.84,-373.97 149,-409 199,-442.58 267.22,-452.1 319.21,-453.77"/>
<polygon fill="#63b8ff" stroke="#63b8ff" points="319.3,-457.28 329.38,-454.01 319.46,-450.28 319.3,-457.28"/>
</a>
</g>
</g>
<!-- Node15 -->
<g id="Node000015" class="node">
<title>Node15</title>
<g id="a_Node000015"><a xlink:href="../../dc/d4c/classlci_1_1allreduce__x.html#a318bceb6a271281169ce5884479d20de" target="_top" xlink:title=" ">
<polygon fill="white" stroke="#666666" points="464,-423.5 329,-423.5 329,-404.5 464,-404.5 464,-423.5"/>
<text text-anchor="middle" x="396.5" y="-411.5" font-family="Helvetica,sans-Serif" font-size="10.00">lci::allreduce_x::sendbuf</text>
</a>
</g>
</g>
<!-- Node1&#45;&gt;Node15 -->
<g id="edge40_Node000001_Node000015" class="edge">
<title>Node1&#45;&gt;Node15</title>
<g id="a_edge40_Node000001_Node000015"><a xlink:title=" ">
<path fill="none" stroke="#63b8ff" d="M62.1,-271.56C73.4,-293.89 104.84,-349.51 149,-375 200.54,-404.75 267.73,-413.8 318.94,-415.81"/>
<polygon fill="#63b8ff" stroke="#63b8ff" points="318.85,-419.3 328.96,-416.12 319.07,-412.31 318.85,-419.3"/>
</a>
</g>
</g>
<!-- Node16 -->
<g id="Node000016" class="node">
<title>Node16</title>
<g id="a_Node000016"><a xlink:href="../../d5/dd3/namespacelci.html#a6e99f95e9b71b259ea5078c23d0ff4b9" target="_top" xlink:title=" ">
<polygon fill="white" stroke="#666666" points="263,-24.5 175,-24.5 175,-5.5 263,-5.5 263,-24.5"/>
<text text-anchor="middle" x="219" y="-12.5" font-family="Helvetica,sans-Serif" font-size="10.00">lci::get_rank_n</text>
</a>
</g>
</g>
<!-- Node1&#45;&gt;Node16 -->
<g id="edge31_Node000001_Node000016" class="edge">
<title>Node1&#45;&gt;Node16</title>
<g id="a_edge31_Node000001_Node000016"><a xlink:title=" ">
<path fill="none" stroke="#63b8ff" d="M58.63,-252.4C63.16,-218.25 83.06,-101.43 149,-39 153.71,-34.54 159.3,-30.9 165.23,-27.93"/>
<polygon fill="#63b8ff" stroke="#63b8ff" points="166.95,-31 174.73,-23.81 164.17,-24.58 166.95,-31"/>
</a>
</g>
</g>
<!-- Node3 -->
<g id="Node000003" class="node">
<title>Node3</title>
<g id="a_Node000003"><a xlink:href="../../dc/d4c/classlci_1_1allreduce__x.html#a475f8fadb56c2f6c8c712e62ebda04b6" target="_top" xlink:title=" ">
<polygon fill="white" stroke="#666666" points="656,-293.5 504,-293.5 504,-274.5 656,-274.5 656,-293.5"/>
<text text-anchor="middle" x="580" y="-281.5" font-family="Helvetica,sans-Serif" font-size="10.00">lci::allreduce_x::allreduce_x</text>
</a>
</g>
</g>
<!-- Node2&#45;&gt;Node3 -->
<g id="edge2_Node000002_Node000003" class="edge">
<title>Node2&#45;&gt;Node3</title>
<g id="a_edge2_Node000002_Node000003"><a xlink:title=" ">
<path fill="none" stroke="#63b8ff" d="M441.9,-367.4C450.73,-364.83 459.8,-361.72 468,-358 502.48,-342.37 538.19,-316.52 559.5,-299.89"/>
<polygon fill="#63b8ff" stroke="#63b8ff" points="561.78,-302.54 567.44,-293.58 557.43,-297.06 561.78,-302.54"/>
</a>
</g>
</g>
<!-- Node4&#45;&gt;Node2 -->
<g id="edge4_Node000004_Node000002" class="edge">
<title>Node4&#45;&gt;Node2</title>
<g id="a_edge4_Node000004_Node000002"><a xlink:title=" ">
<path fill="none" stroke="#63b8ff" d="M230.18,-290.52C248.02,-306.69 286.7,-339.59 325,-358 329.93,-360.37 335.19,-362.48 340.55,-364.35"/>
<polygon fill="#63b8ff" stroke="#63b8ff" points="339.63,-367.73 350.22,-367.46 341.78,-361.07 339.63,-367.73"/>
</a>
</g>
</g>
<!-- Node4&#45;&gt;Node5 -->
<g id="edge5_Node000004_Node000005" class="edge">
<title>Node4&#45;&gt;Node5</title>
<g id="a_edge5_Node000004_Node000005"><a xlink:title=" ">
<path fill="none" stroke="#63b8ff" d="M243.11,-290.58C264.23,-299.14 296.42,-311.73 325,-321 332.21,-323.34 339.9,-325.62 347.45,-327.75"/>
<polygon fill="#63b8ff" stroke="#63b8ff" points="346.67,-331.16 357.24,-330.44 348.53,-324.41 346.67,-331.16"/>
</a>
</g>
</g>
<!-- Node4&#45;&gt;Node6 -->
<g id="edge7_Node000004_Node000006" class="edge">
<title>Node4&#45;&gt;Node6</title>
<g id="a_edge7_Node000004_Node000006"><a xlink:title=" ">
<path fill="none" stroke="#63b8ff" d="M289.11,-289.66C300.83,-291.13 313.02,-292.66 324.78,-294.14"/>
<polygon fill="#63b8ff" stroke="#63b8ff" points="324.63,-297.64 334.99,-295.41 325.5,-290.7 324.63,-297.64"/>
</a>
</g>
</g>
<!-- Node4&#45;&gt;Node7 -->
<g id="edge9_Node000004_Node000007" class="edge">
<title>Node4&#45;&gt;Node7</title>
<g id="a_edge9_Node000004_Node000007"><a xlink:title=" ">
<path fill="none" stroke="#63b8ff" d="M289.11,-275.09C300.05,-274.16 311.4,-273.19 322.43,-272.25"/>
<polygon fill="#63b8ff" stroke="#63b8ff" points="322.78,-275.73 332.45,-271.39 322.19,-268.75 322.78,-275.73"/>
</a>
</g>
</g>
<!-- Node4&#45;&gt;Node8 -->
<g id="edge11_Node000004_Node000008" class="edge">
<title>Node4&#45;&gt;Node8</title>
<g id="a_edge11_Node000004_Node000008"><a xlink:title=" ">
<path fill="none" stroke="#63b8ff" d="M247.93,-271.42C269,-264.33 298.68,-254.61 325,-247 331.92,-245 339.26,-242.99 346.49,-241.09"/>
<polygon fill="#63b8ff" stroke="#63b8ff" points="347.43,-244.46 356.23,-238.56 345.67,-237.69 347.43,-244.46"/>
</a>
</g>
</g>
<!-- Node4&#45;&gt;Node9 -->
<g id="edge13_Node000004_Node000009" class="edge">
<title>Node4&#45;&gt;Node9</title>
<g id="a_edge13_Node000004_Node000009"><a xlink:title=" ">
<path fill="none" stroke="#63b8ff" d="M231.18,-271.5C249.57,-256.33 287.87,-226.68 325,-210 329.38,-208.03 334.01,-206.25 338.72,-204.65"/>
<polygon fill="#63b8ff" stroke="#63b8ff" points="339.96,-207.93 348.46,-201.6 337.87,-201.25 339.96,-207.93"/>
</a>
</g>
</g>
<!-- Node4&#45;&gt;Node10 -->
<g id="edge15_Node000004_Node000010" class="edge">
<title>Node4&#45;&gt;Node10</title>
<g id="a_edge15_Node000004_Node000010"><a xlink:title=" ">
<path fill="none" stroke="#63b8ff" d="M226.76,-271.46C241.96,-250.64 281.01,-200.81 325,-173 327.59,-171.36 330.31,-169.82 333.11,-168.37"/>
<polygon fill="#63b8ff" stroke="#63b8ff" points="334.71,-171.49 342.26,-164.06 331.73,-165.15 334.71,-171.49"/>
</a>
</g>
</g>
<!-- Node4&#45;&gt;Node11 -->
<g id="edge17_Node000004_Node000011" class="edge">
<title>Node4&#45;&gt;Node11</title>
<g id="a_edge17_Node000004_Node000011"><a xlink:title=" ">
<path fill="none" stroke="#63b8ff" d="M223.71,-271.17C234.64,-243.55 269.5,-164.69 325,-125 327.73,-123.05 330.65,-121.29 333.7,-119.72"/>
<polygon fill="#63b8ff" stroke="#63b8ff" points="335.41,-122.79 343.12,-115.52 332.56,-116.39 335.41,-122.79"/>
</a>
</g>
</g>
<!-- Node4&#45;&gt;Node12 -->
<g id="edge19_Node000004_Node000012" class="edge">
<title>Node4&#45;&gt;Node12</title>
<g id="a_edge19_Node000004_Node000012"><a xlink:title=" ">
<path fill="none" stroke="#63b8ff" d="M222.33,-271.12C230.42,-239.1 260.37,-137.4 325,-87 326.78,-85.61 328.66,-84.33 330.6,-83.14"/>
<polygon fill="#63b8ff" stroke="#63b8ff" points="332.25,-86.23 339.55,-78.56 329.05,-80.01 332.25,-86.23"/>
</a>
</g>
</g>
<!-- Node4&#45;&gt;Node13 -->
<g id="edge21_Node000004_Node000013" class="edge">
<title>Node4&#45;&gt;Node13</title>
<g id="a_edge21_Node000004_Node000013"><a xlink:title=" ">
<path fill="none" stroke="#63b8ff" d="M222.7,-290.87C231.7,-321.94 263.64,-418.74 325,-470 326.56,-471.31 328.2,-472.54 329.9,-473.71"/>
<polygon fill="#63b8ff" stroke="#63b8ff" points="328.43,-476.91 338.81,-479.02 332.01,-470.9 328.43,-476.91"/>
</a>
</g>
</g>
<!-- Node4&#45;&gt;Node14 -->
<g id="edge23_Node000004_Node000014" class="edge">
<title>Node4&#45;&gt;Node14</title>
<g id="a_edge23_Node000004_Node000014"><a xlink:title=" ">
<path fill="none" stroke="#63b8ff" d="M223.75,-290.62C234.81,-317.63 269.99,-394.7 325,-433 327.13,-434.48 329.38,-435.85 331.7,-437.1"/>
<polygon fill="#63b8ff" stroke="#63b8ff" points="330.45,-440.37 341,-441.38 333.38,-434.02 330.45,-440.37"/>
</a>
</g>
</g>
<!-- Node4&#45;&gt;Node15 -->
<g id="edge25_Node000004_Node000015" class="edge">
<title>Node4&#45;&gt;Node15</title>
<g id="a_edge25_Node000004_Node000015"><a xlink:title=" ">
<path fill="none" stroke="#63b8ff" d="M226.05,-290.64C240.4,-312.68 278.75,-366.97 325,-395 328.6,-397.18 332.45,-399.11 336.42,-400.83"/>
<polygon fill="#63b8ff" stroke="#63b8ff" points="335.28,-404.14 345.87,-404.45 337.78,-397.6 335.28,-404.14"/>
</a>
</g>
</g>
<!-- Node5&#45;&gt;Node3 -->
<g id="edge6_Node000005_Node000003" class="edge">
<title>Node5&#45;&gt;Node3</title>
<g id="a_edge6_Node000005_Node000003"><a xlink:title=" ">
<path fill="none" stroke="#63b8ff" d="M434.57,-330.45C445.38,-327.54 457.2,-324.25 468,-321 492.85,-313.52 520.54,-304.29 542.05,-296.92"/>
<polygon fill="#63b8ff" stroke="#63b8ff" points="543.46,-300.14 551.77,-293.57 541.18,-293.52 543.46,-300.14"/>
</a>
</g>
</g>
<!-- Node6&#45;&gt;Node3 -->
<g id="edge8_Node000006_Node000003" class="edge">
<title>Node6&#45;&gt;Node3</title>
<g id="a_edge8_Node000006_Node000003"><a xlink:title=" ">
<path fill="none" stroke="#63b8ff" d="M458.19,-296.65C469.62,-295.45 481.77,-294.18 493.79,-292.92"/>
<polygon fill="#63b8ff" stroke="#63b8ff" points="494.26,-296.39 503.84,-291.87 493.53,-289.43 494.26,-296.39"/>
</a>
</g>
</g>
<!-- Node7&#45;&gt;Node3 -->
<g id="edge10_Node000007_Node000003" class="edge">
<title>Node7&#45;&gt;Node3</title>
<g id="a_edge10_Node000007_Node000003"><a xlink:title=" ">
<path fill="none" stroke="#63b8ff" d="M460.73,-272.27C471.38,-273.33 482.59,-274.44 493.69,-275.54"/>
<polygon fill="#63b8ff" stroke="#63b8ff" points="493.54,-279.04 503.84,-276.55 494.23,-272.08 493.54,-279.04"/>
</a>
</g>
</g>
<!-- Node8&#45;&gt;Node3 -->
<g id="edge12_Node000008_Node000003" class="edge">
<title>Node8&#45;&gt;Node3</title>
<g id="a_edge12_Node000008_Node000003"><a xlink:title=" ">
<path fill="none" stroke="#63b8ff" d="M437.16,-238.59C447.26,-241.18 458.06,-244.08 468,-247 493.07,-254.37 520.97,-263.67 542.53,-271.11"/>
<polygon fill="#63b8ff" stroke="#63b8ff" points="541.66,-274.51 552.25,-274.48 543.96,-267.9 541.66,-274.51"/>
</a>
</g>
</g>
<!-- Node9&#45;&gt;Node3 -->
<g id="edge14_Node000009_Node000003" class="edge">
<title>Node9&#45;&gt;Node3</title>
<g id="a_edge14_Node000009_Node000003"><a xlink:title=" ">
<path fill="none" stroke="#63b8ff" d="M444.15,-201.53C452.26,-203.85 460.5,-206.66 468,-210 502.59,-225.4 538.27,-251.31 559.54,-268.02"/>
<polygon fill="#63b8ff" stroke="#63b8ff" points="557.47,-270.85 567.47,-274.36 561.84,-265.38 557.47,-270.85"/>
</a>
</g>
</g>
<!-- Node10&#45;&gt;Node3 -->
<g id="edge16_Node000010_Node000003" class="edge">
<title>Node10&#45;&gt;Node3</title>
<g id="a_edge16_Node000010_Node000003"><a xlink:title=" ">
<path fill="none" stroke="#63b8ff" d="M450.69,-164.13C456.72,-166.71 462.62,-169.65 468,-173 509.01,-198.52 546.44,-241.91 565.59,-266.19"/>
<polygon fill="#63b8ff" stroke="#63b8ff" points="562.9,-268.44 571.79,-274.2 568.44,-264.15 562.9,-268.44"/>
</a>
</g>
</g>
<!-- Node11&#45;&gt;Node3 -->
<g id="edge18_Node000011_Node000003" class="edge">
<title>Node11&#45;&gt;Node3</title>
<g id="a_edge18_Node000011_Node000003"><a xlink:title=" ">
<path fill="none" stroke="#63b8ff" d="M449.81,-115.61C456.26,-118.06 462.5,-121.14 468,-125 520.2,-161.66 555.94,-231.17 570.99,-264.81"/>
<polygon fill="#63b8ff" stroke="#63b8ff" points="567.95,-266.6 575.14,-274.38 574.37,-263.81 567.95,-266.6"/>
</a>
</g>
</g>
<!-- Node12&#45;&gt;Node3 -->
<g id="edge20_Node000012_Node000003" class="edge">
<title>Node12&#45;&gt;Node3</title>
<g id="a_edge20_Node000012_Node000003"><a xlink:title=" ">
<path fill="none" stroke="#63b8ff" d="M453.39,-78.63C458.61,-80.87 463.59,-83.62 468,-87 529.24,-133.92 561.87,-224.9 573.73,-264.64"/>
<polygon fill="#63b8ff" stroke="#63b8ff" points="570.41,-265.76 576.53,-274.41 577.14,-263.83 570.41,-265.76"/>
</a>
</g>
</g>
<!-- Node13&#45;&gt;Node3 -->
<g id="edge22_Node000013_Node000003" class="edge">
<title>Node13&#45;&gt;Node3</title>
<g id="a_edge22_Node000013_Node000003"><a xlink:title=" ">
<path fill="none" stroke="#63b8ff" d="M454.08,-478.89C459.05,-476.36 463.78,-473.42 468,-470 524.67,-424.14 559.16,-341.07 572.57,-303.45"/>
<polygon fill="#63b8ff" stroke="#63b8ff" points="575.98,-304.31 575.93,-293.72 569.36,-302.03 575.98,-304.31"/>
</a>
</g>
</g>
<!-- Node14&#45;&gt;Node3 -->
<g id="edge24_Node000014_Node000003" class="edge">
<title>Node14&#45;&gt;Node3</title>
<g id="a_edge24_Node000014_Node000003"><a xlink:title=" ">
<path fill="none" stroke="#63b8ff" d="M451.15,-441.48C457.1,-439.23 462.86,-436.45 468,-433 518.3,-399.3 554.51,-334.93 570.25,-302.97"/>
<polygon fill="#63b8ff" stroke="#63b8ff" points="573.47,-304.34 574.64,-293.81 567.16,-301.32 573.47,-304.34"/>
</a>
</g>
</g>
<!-- Node15&#45;&gt;Node3 -->
<g id="edge26_Node000015_Node000003" class="edge">
<title>Node15&#45;&gt;Node3</title>
<g id="a_edge26_Node000015_Node000003"><a xlink:title=" ">
<path fill="none" stroke="#63b8ff" d="M446.25,-404.46C453.8,-401.98 461.31,-398.87 468,-395 510.02,-370.7 547.31,-326.47 566.1,-301.82"/>
<polygon fill="#63b8ff" stroke="#63b8ff" points="568.99,-303.8 572.16,-293.69 563.38,-299.62 568.99,-303.8"/>
</a>
</g>
</g>
<!-- Node17 -->
<g id="Node000017" class="node">
<title>Node17</title>
<g id="a_Node000017"><a xlink:href="../../db/db4/classlci_1_1get__rank__n__x.html#a93794a0207bdeb2f4ae0ec4b09a94ccf" target="_top" xlink:title=" ">
<polygon fill="white" stroke="#666666" points="457.5,-24.5 335.5,-24.5 335.5,-5.5 457.5,-5.5 457.5,-24.5"/>
<text text-anchor="middle" x="396.5" y="-12.5" font-family="Helvetica,sans-Serif" font-size="10.00">lci::get_rank_n_x::call</text>
</a>
</g>
</g>
<!-- Node16&#45;&gt;Node17 -->
<g id="edge32_Node000016_Node000017" class="edge">
<title>Node16&#45;&gt;Node17</title>
<g id="a_edge32_Node000016_Node000017"><a xlink:title=" ">
<path fill="none" stroke="#63b8ff" d="M263.38,-15C282.05,-15 304.35,-15 325.27,-15"/>
<polygon fill="#63b8ff" stroke="#63b8ff" points="325.41,-18.5 335.41,-15 325.41,-11.5 325.41,-18.5"/>
</a>
</g>
</g>
<!-- Node18 -->
<g id="Node000018" class="node">
<title>Node18</title>
<g id="a_Node000018"><a xlink:href="../../db/db4/classlci_1_1get__rank__n__x.html#a8e725bdd606fdf81f49ae8e859a4d99e" target="_top" xlink:title=" ">
<polygon fill="white" stroke="#666666" points="632.5,-30 527.5,-30 527.5,0 632.5,0 632.5,-30"/>
<text text-anchor="start" x="535.5" y="-18" font-family="Helvetica,sans-Serif" font-size="10.00">lci::get_rank_n_x::</text>
<text text-anchor="middle" x="580" y="-7" font-family="Helvetica,sans-Serif" font-size="10.00">call_impl</text>
</a>
</g>
</g>
<!-- Node17&#45;&gt;Node18 -->
<g id="edge33_Node000017_Node000018" class="edge">
<title>Node17&#45;&gt;Node18</title>
<g id="a_edge33_Node000017_Node000018"><a xlink:title=" ">
<path fill="none" stroke="#63b8ff" d="M457.68,-15C476.84,-15 498.05,-15 517.31,-15"/>
<polygon fill="#63b8ff" stroke="#63b8ff" points="517.49,-18.5 527.49,-15 517.49,-11.5 517.49,-18.5"/>
</a>
</g>
</g>
</g>
</svg>
