<?xml version="1.0" encoding="UTF-8" standalone="no"?>
<!DOCTYPE svg PUBLIC "-//W3C//DTD SVG 1.1//EN"
 "http://www.w3.org/Graphics/SVG/1.1/DTD/svg11.dtd">
<!-- Generated by graphviz version 2.43.0 (0)
 -->
<!-- Title: lci::reduce_x::call Pages: 1 -->
<svg width="278pt" height="64pt"
 viewBox="0.00 0.00 278.00 64.00" xmlns="http://www.w3.org/2000/svg" xmlns:xlink="http://www.w3.org/1999/xlink">
<g id="graph0" class="graph" transform="scale(1 1) rotate(0) translate(4 60)">
<title>lci::reduce_x::call</title>
<!-- Node1 -->
<g id="Node000001" class="node">
<title>Node1</title>
<g id="a_Node000001"><a xlink:title=" ">
<polygon fill="#999999" stroke="#666666" points="270,-37 169,-37 169,-18 270,-18 270,-37"/>
<text text-anchor="middle" x="219.5" y="-25" font-family="Helvetica,sans-Serif" font-size="10.00">lci::reduce_x::call</text>
</a>
</g>
</g>
<!-- Node2 -->
<g id="Node000002" class="node">
<title>Node2</title>
<g id="a_Node000002"><a xlink:href="../../d9/ddd/classlci_1_1reduce__x.html#a0c3b6960bc1cd623b9b746bae3450eaf" target="_top" xlink:title=" ">
<polygon fill="white" stroke="#666666" points="133,-56 0,-56 0,-37 133,-37 133,-56"/>
<text text-anchor="middle" x="66.5" y="-44" font-family="Helvetica,sans-Serif" font-size="10.00">lci::reduce_x::operator()</text>
</a>
</g>
</g>
<!-- Node1&#45;&gt;Node2 -->
<g id="edge1_Node000001_Node000002" class="edge">
<title>Node1&#45;&gt;Node2</title>
<g id="a_edge1_Node000001_Node000002"><a xlink:title=" ">
<path fill="none" stroke="#63b8ff" d="M158.61,-35.04C150.26,-36.09 141.65,-37.17 133.2,-38.23"/>
<polygon fill="#63b8ff" stroke="#63b8ff" points="159.15,-38.5 168.64,-33.77 158.28,-31.55 159.15,-38.5"/>
</a>
</g>
</g>
<!-- Node3 -->
<g id="Node000003" class="node">
<title>Node3</title>
<g id="a_Node000003"><a xlink:href="../../d5/dd3/namespacelci.html#a9f94f4e818f924738372be1f91b8e62c" target="_top" xlink:title=" ">
<polygon fill="white" stroke="#666666" points="100,-19 33,-19 33,0 100,0 100,-19"/>
<text text-anchor="middle" x="66.5" y="-7" font-family="Helvetica,sans-Serif" font-size="10.00">lci::reduce</text>
</a>
</g>
</g>
<!-- Node1&#45;&gt;Node3 -->
<g id="edge2_Node000001_Node000003" class="edge">
<title>Node1&#45;&gt;Node3</title>
<g id="a_edge2_Node000001_Node000003"><a xlink:title=" ">
<path fill="none" stroke="#63b8ff" d="M158.69,-20.37C138.75,-17.99 117.29,-15.43 100.19,-13.4"/>
<polygon fill="#63b8ff" stroke="#63b8ff" points="158.29,-23.85 168.64,-21.56 159.12,-16.9 158.29,-23.85"/>
</a>
</g>
</g>
</g>
</svg>
