<?xml version="1.0" encoding="UTF-8" standalone="no"?>
<!DOCTYPE svg PUBLIC "-//W3C//DTD SVG 1.1//EN"
 "http://www.w3.org/Graphics/SVG/1.1/DTD/svg11.dtd">
<!-- Generated by graphviz version 2.43.0 (0)
 -->
<!-- Title: lci::deregister_memory_x::call Pages: 1 -->
<svg width="647pt" height="86pt"
 viewBox="0.00 0.00 647.00 86.00" xmlns="http://www.w3.org/2000/svg" xmlns:xlink="http://www.w3.org/1999/xlink">
<g id="graph0" class="graph" transform="scale(1 1) rotate(0) translate(4 82)">
<title>lci::deregister_memory_x::call</title>
<!-- Node1 -->
<g id="Node000001" class="node">
<title>Node1</title>
<g id="a_Node000001"><a xlink:title=" ">
<polygon fill="#999999" stroke="#666666" points="130,-54 0,-54 0,-24 130,-24 130,-54"/>
<text text-anchor="start" x="8" y="-42" font-family="Helvetica,sans-Serif" font-size="10.00">lci::deregister_memory</text>
<text text-anchor="middle" x="65" y="-31" font-family="Helvetica,sans-Serif" font-size="10.00">_x::call</text>
</a>
</g>
</g>
<!-- Node2 -->
<g id="Node000002" class="node">
<title>Node2</title>
<g id="a_Node000002"><a xlink:href="../../d8/dc0/classlci_1_1deregister__memory__x.html#ac4e51b8d03f49531f68dd4928763a66a" target="_top" xlink:title=" ">
<polygon fill="white" stroke="#666666" points="296,-54 166,-54 166,-24 296,-24 296,-54"/>
<text text-anchor="start" x="174" y="-42" font-family="Helvetica,sans-Serif" font-size="10.00">lci::deregister_memory</text>
<text text-anchor="middle" x="231" y="-31" font-family="Helvetica,sans-Serif" font-size="10.00">_x::call_impl</text>
</a>
</g>
</g>
<!-- Node1&#45;&gt;Node2 -->
<g id="edge1_Node000001_Node000002" class="edge">
<title>Node1&#45;&gt;Node2</title>
<g id="a_edge1_Node000001_Node000002"><a xlink:title=" ">
<path fill="none" stroke="#63b8ff" d="M130.35,-39C138.64,-39 147.19,-39 155.62,-39"/>
<polygon fill="#63b8ff" stroke="#63b8ff" points="155.84,-42.5 165.84,-39 155.84,-35.5 155.84,-42.5"/>
</a>
</g>
</g>
<!-- Node3 -->
<g id="Node000003" class="node">
<title>Node3</title>
<g id="a_Node000003"><a xlink:href="../../d8/dc0/classlci_1_1deregister__memory__x.html#a2d4f7e5252faaf7be799ba80db37d0e4" target="_top" xlink:title=" ">
<polygon fill="white" stroke="#666666" points="462,-78 332,-78 332,-48 462,-48 462,-78"/>
<text text-anchor="start" x="340" y="-66" font-family="Helvetica,sans-Serif" font-size="10.00">lci::deregister_memory</text>
<text text-anchor="middle" x="397" y="-55" font-family="Helvetica,sans-Serif" font-size="10.00">_x::mr</text>
</a>
</g>
</g>
<!-- Node1&#45;&gt;Node3 -->
<g id="edge6_Node000001_Node000003" class="edge">
<title>Node1&#45;&gt;Node3</title>
<g id="a_edge6_Node000001_Node000003"><a xlink:title=" ">
<path fill="none" stroke="#63b8ff" d="M118.52,-54.06C133.7,-57.74 150.4,-61.15 166,-63 217.8,-69.13 276.61,-69 321.8,-67.41"/>
<polygon fill="#63b8ff" stroke="#63b8ff" points="321.96,-70.91 331.81,-67.03 321.69,-63.91 321.96,-70.91"/>
</a>
</g>
</g>
<!-- Node5 -->
<g id="Node000005" class="node">
<title>Node5</title>
<g id="a_Node000005"><a xlink:href="../../d8/dc0/classlci_1_1deregister__memory__x.html#a63903b0d84b3c5c07d795461cf2c5a1a" target="_top" xlink:title=" ">
<polygon fill="white" stroke="#666666" points="462,-30 332,-30 332,0 462,0 462,-30"/>
<text text-anchor="start" x="340" y="-18" font-family="Helvetica,sans-Serif" font-size="10.00">lci::deregister_memory</text>
<text text-anchor="middle" x="397" y="-7" font-family="Helvetica,sans-Serif" font-size="10.00">_x::runtime</text>
</a>
</g>
</g>
<!-- Node1&#45;&gt;Node5 -->
<g id="edge7_Node000001_Node000005" class="edge">
<title>Node1&#45;&gt;Node5</title>
<g id="a_edge7_Node000001_Node000005"><a xlink:title=" ">
<path fill="none" stroke="#63b8ff" d="M118.52,-23.94C133.7,-20.26 150.4,-16.85 166,-15 217.8,-8.87 276.61,-9 321.8,-10.59"/>
<polygon fill="#63b8ff" stroke="#63b8ff" points="321.69,-14.09 331.81,-10.97 321.96,-7.09 321.69,-14.09"/>
</a>
</g>
</g>
<!-- Node2&#45;&gt;Node3 -->
<g id="edge2_Node000002_Node000003" class="edge">
<title>Node2&#45;&gt;Node3</title>
<g id="a_edge2_Node000002_Node000003"><a xlink:title=" ">
<path fill="none" stroke="#63b8ff" d="M296.35,-48.42C304.73,-49.64 313.37,-50.91 321.9,-52.16"/>
<polygon fill="#63b8ff" stroke="#63b8ff" points="321.44,-55.63 331.84,-53.61 322.45,-48.7 321.44,-55.63"/>
</a>
</g>
</g>
<!-- Node2&#45;&gt;Node5 -->
<g id="edge4_Node000002_Node000005" class="edge">
<title>Node2&#45;&gt;Node5</title>
<g id="a_edge4_Node000002_Node000005"><a xlink:title=" ">
<path fill="none" stroke="#63b8ff" d="M296.35,-29.58C304.73,-28.36 313.37,-27.09 321.9,-25.84"/>
<polygon fill="#63b8ff" stroke="#63b8ff" points="322.45,-29.3 331.84,-24.39 321.44,-22.37 322.45,-29.3"/>
</a>
</g>
</g>
<!-- Node4 -->
<g id="Node000004" class="node">
<title>Node4</title>
<g id="a_Node000004"><a xlink:href="../../d8/dc0/classlci_1_1deregister__memory__x.html#adb969ad74a88fb97b6593727a30accbe" target="_top" xlink:title=" ">
<polygon fill="white" stroke="#666666" points="639,-54 498,-54 498,-24 639,-24 639,-54"/>
<text text-anchor="start" x="506" y="-42" font-family="Helvetica,sans-Serif" font-size="10.00">lci::deregister_memory</text>
<text text-anchor="middle" x="568.5" y="-31" font-family="Helvetica,sans-Serif" font-size="10.00">_x::deregister_memory_x</text>
</a>
</g>
</g>
<!-- Node3&#45;&gt;Node4 -->
<g id="edge3_Node000003_Node000004" class="edge">
<title>Node3&#45;&gt;Node4</title>
<g id="a_edge3_Node000003_Node000004"><a xlink:title=" ">
<path fill="none" stroke="#63b8ff" d="M462.08,-53.93C470.5,-52.73 479.22,-51.5 487.86,-50.28"/>
<polygon fill="#63b8ff" stroke="#63b8ff" points="488.54,-53.72 497.95,-48.85 487.56,-46.78 488.54,-53.72"/>
</a>
</g>
</g>
<!-- Node5&#45;&gt;Node4 -->
<g id="edge5_Node000005_Node000004" class="edge">
<title>Node5&#45;&gt;Node4</title>
<g id="a_edge5_Node000005_Node000004"><a xlink:title=" ">
<path fill="none" stroke="#63b8ff" d="M462.08,-24.07C470.5,-25.27 479.22,-26.5 487.86,-27.72"/>
<polygon fill="#63b8ff" stroke="#63b8ff" points="487.56,-31.22 497.95,-29.15 488.54,-24.28 487.56,-31.22"/>
</a>
</g>
</g>
</g>
</svg>
