<?xml version="1.0" encoding="UTF-8" standalone="no"?>
<!DOCTYPE svg PUBLIC "-//W3C//DTD SVG 1.1//EN"
 "http://www.w3.org/Graphics/SVG/1.1/DTD/svg11.dtd">
<!-- Generated by graphviz version 2.43.0 (0)
 -->
<!-- Title: lci::deregister_memory_x::call Pages: 1 -->
<svg width="304pt" height="76pt"
 viewBox="0.00 0.00 304.00 75.50" xmlns="http://www.w3.org/2000/svg" xmlns:xlink="http://www.w3.org/1999/xlink">
<g id="graph0" class="graph" transform="scale(1 1) rotate(0) translate(4 71.5)">
<title>lci::deregister_memory_x::call</title>
<!-- Node1 -->
<g id="Node000001" class="node">
<title>Node1</title>
<g id="a_Node000001"><a xlink:title=" ">
<polygon fill="#999999" stroke="#666666" points="296,-51 166,-51 166,-21 296,-21 296,-51"/>
<text text-anchor="start" x="174" y="-39" font-family="Helvetica,sans-Serif" font-size="10.00">lci::deregister_memory</text>
<text text-anchor="middle" x="231" y="-28" font-family="Helvetica,sans-Serif" font-size="10.00">_x::call</text>
</a>
</g>
</g>
<!-- Node2 -->
<g id="Node000002" class="node">
<title>Node2</title>
<g id="a_Node000002"><a xlink:href="../../d5/dd3/namespacelci.html#a24873f5ddc295cfc7f7a6109c0687788" target="_top" xlink:title=" ">
<polygon fill="white" stroke="#666666" points="130,-67.5 0,-67.5 0,-48.5 130,-48.5 130,-67.5"/>
<text text-anchor="middle" x="65" y="-55.5" font-family="Helvetica,sans-Serif" font-size="10.00">lci::deregister_memory</text>
</a>
</g>
</g>
<!-- Node1&#45;&gt;Node2 -->
<g id="edge1_Node000001_Node000002" class="edge">
<title>Node1&#45;&gt;Node2</title>
<g id="a_edge1_Node000001_Node000002"><a xlink:title=" ">
<path fill="none" stroke="#63b8ff" d="M155.71,-45.97C147.18,-47.11 138.54,-48.27 130.16,-49.39"/>
<polygon fill="#63b8ff" stroke="#63b8ff" points="156.21,-49.43 165.65,-44.63 155.28,-42.49 156.21,-49.43"/>
</a>
</g>
</g>
<!-- Node3 -->
<g id="Node000003" class="node">
<title>Node3</title>
<g id="a_Node000003"><a xlink:href="../../d8/dc0/classlci_1_1deregister__memory__x.html#a034a7d21ff84befc2ee6ceaa9572802b" target="_top" xlink:title=" ">
<polygon fill="white" stroke="#666666" points="130,-30 0,-30 0,0 130,0 130,-30"/>
<text text-anchor="start" x="8" y="-18" font-family="Helvetica,sans-Serif" font-size="10.00">lci::deregister_memory</text>
<text text-anchor="middle" x="65" y="-7" font-family="Helvetica,sans-Serif" font-size="10.00">_x::operator()</text>
</a>
</g>
</g>
<!-- Node1&#45;&gt;Node3 -->
<g id="edge2_Node000001_Node000003" class="edge">
<title>Node1&#45;&gt;Node3</title>
<g id="a_edge2_Node000001_Node000003"><a xlink:title=" ">
<path fill="none" stroke="#63b8ff" d="M155.71,-26.49C147.18,-25.4 138.54,-24.29 130.16,-23.22"/>
<polygon fill="#63b8ff" stroke="#63b8ff" points="155.29,-29.96 165.65,-27.76 156.18,-23.02 155.29,-29.96"/>
</a>
</g>
</g>
</g>
</svg>
