<?xml version="1.0" encoding="UTF-8" standalone="no"?>
<!DOCTYPE svg PUBLIC "-//W3C//DTD SVG 1.1//EN"
 "http://www.w3.org/Graphics/SVG/1.1/DTD/svg11.dtd">
<!-- Generated by graphviz version 2.43.0 (0)
 -->
<!-- Title: lci::barrier_x Pages: 1 -->
<svg width="879pt" height="278pt"
 viewBox="0.00 0.00 879.00 278.00" xmlns="http://www.w3.org/2000/svg" xmlns:xlink="http://www.w3.org/1999/xlink">
<g id="graph0" class="graph" transform="scale(1 1) rotate(0) translate(4 274)">
<title>lci::barrier_x</title>
<!-- Node1 -->
<g id="Node000001" class="node">
<title>Node1</title>
<g id="a_Node000001"><a xlink:title="The actual implementation for barrier.">
<polygon fill="#999999" stroke="#666666" points="871,-144.5 794,-144.5 794,-125.5 871,-125.5 871,-144.5"/>
<text text-anchor="middle" x="832.5" y="-132.5" font-family="Helvetica,sans-Serif" font-size="10.00">lci::barrier_x</text>
</a>
</g>
</g>
<!-- Node2 -->
<g id="Node000002" class="node">
<title>Node2</title>
<g id="a_Node000002"><a xlink:href="../../db/d20/structlci_1_1option__t.html" target="_top" xlink:title=" ">
<polygon fill="white" stroke="#666666" points="639.5,-270 543.5,-270 543.5,-240 639.5,-240 639.5,-270"/>
<text text-anchor="start" x="551.5" y="-258" font-family="Helvetica,sans-Serif" font-size="10.00">lci::option_t&lt; lci</text>
<text text-anchor="middle" x="591.5" y="-247" font-family="Helvetica,sans-Serif" font-size="10.00">::runtime_t &gt;</text>
</a>
</g>
</g>
<!-- Node2&#45;&gt;Node1 -->
<g id="edge1_Node000001_Node000002" class="edge">
<title>Node2&#45;&gt;Node1</title>
<g id="a_edge1_Node000001_Node000002"><a xlink:title=" ">
<path fill="none" stroke="#9a32cd" stroke-dasharray="5,2" d="M649.63,-249.76C687.97,-244.03 738.2,-232.04 776,-207 800.47,-190.79 818.68,-160.13 826.81,-144.57"/>
<polygon fill="#9a32cd" stroke="#9a32cd" points="649.07,-246.31 639.65,-251.15 650.04,-253.24 649.07,-246.31"/>
</a>
</g>
<text text-anchor="middle" x="724.5" y="-248" font-family="Helvetica,sans-Serif" font-size="10.00" fill="grey"> m_runtime</text>
</g>
<!-- Node3 -->
<g id="Node000003" class="node">
<title>Node3</title>
<g id="a_Node000003"><a xlink:href="../../dc/d5c/classlci_1_1runtime__t.html" target="_top" xlink:title="The actual implementation for RESOURCE runtime.">
<polygon fill="white" stroke="#666666" points="423,-264.5 342,-264.5 342,-245.5 423,-245.5 423,-264.5"/>
<text text-anchor="middle" x="382.5" y="-252.5" font-family="Helvetica,sans-Serif" font-size="10.00">lci::runtime_t</text>
</a>
</g>
</g>
<!-- Node3&#45;&gt;Node2 -->
<g id="edge2_Node000002_Node000003" class="edge">
<title>Node3&#45;&gt;Node2</title>
<g id="a_edge2_Node000002_Node000003"><a xlink:title=" ">
<path fill="none" stroke="#9a32cd" stroke-dasharray="5,2" d="M433.44,-255C466.89,-255 510.64,-255 543.46,-255"/>
<polygon fill="#9a32cd" stroke="#9a32cd" points="433.41,-251.5 423.41,-255 433.41,-258.5 433.41,-251.5"/>
</a>
</g>
<text text-anchor="middle" x="487" y="-258" font-family="Helvetica,sans-Serif" font-size="10.00" fill="grey"> m_value</text>
</g>
<!-- Node4 -->
<g id="Node000004" class="node">
<title>Node4</title>
<g id="a_Node000004"><a xlink:href="../../db/d20/structlci_1_1option__t.html" target="_top" xlink:title=" ">
<polygon fill="white" stroke="#666666" points="639.5,-222 543.5,-222 543.5,-192 639.5,-192 639.5,-222"/>
<text text-anchor="start" x="551.5" y="-210" font-family="Helvetica,sans-Serif" font-size="10.00">lci::option_t&lt; lci</text>
<text text-anchor="middle" x="591.5" y="-199" font-family="Helvetica,sans-Serif" font-size="10.00">::device_t &gt;</text>
</a>
</g>
</g>
<!-- Node4&#45;&gt;Node1 -->
<g id="edge3_Node000001_Node000004" class="edge">
<title>Node4&#45;&gt;Node1</title>
<g id="a_edge3_Node000001_Node000004"><a xlink:title=" ">
<path fill="none" stroke="#9a32cd" stroke-dasharray="5,2" d="M649.58,-198.05C686.4,-191.28 734.91,-180.48 776,-165 790.35,-159.59 805.6,-151.13 816.48,-144.57"/>
<polygon fill="#9a32cd" stroke="#9a32cd" points="648.75,-194.64 639.52,-199.85 649.98,-201.53 648.75,-194.64"/>
</a>
</g>
<text text-anchor="middle" x="724.5" y="-195" font-family="Helvetica,sans-Serif" font-size="10.00" fill="grey"> m_device</text>
</g>
<!-- Node5 -->
<g id="Node000005" class="node">
<title>Node5</title>
<g id="a_Node000005"><a xlink:href="../../d6/d66/classlci_1_1device__t.html" target="_top" xlink:title="The actual implementation for RESOURCE device.">
<polygon fill="white" stroke="#666666" points="420,-216.5 345,-216.5 345,-197.5 420,-197.5 420,-216.5"/>
<text text-anchor="middle" x="382.5" y="-204.5" font-family="Helvetica,sans-Serif" font-size="10.00">lci::device_t</text>
</a>
</g>
</g>
<!-- Node5&#45;&gt;Node4 -->
<g id="edge4_Node000004_Node000005" class="edge">
<title>Node5&#45;&gt;Node4</title>
<g id="a_edge4_Node000004_Node000005"><a xlink:title=" ">
<path fill="none" stroke="#9a32cd" stroke-dasharray="5,2" d="M430.12,-207C463.94,-207 509.5,-207 543.42,-207"/>
<polygon fill="#9a32cd" stroke="#9a32cd" points="430.03,-203.5 420.03,-207 430.03,-210.5 430.03,-203.5"/>
</a>
</g>
<text text-anchor="middle" x="487" y="-210" font-family="Helvetica,sans-Serif" font-size="10.00" fill="grey"> m_value</text>
</g>
<!-- Node6 -->
<g id="Node000006" class="node">
<title>Node6</title>
<g id="a_Node000006"><a xlink:href="../../db/d20/structlci_1_1option__t.html" target="_top" xlink:title=" ">
<polygon fill="white" stroke="#666666" points="639.5,-174 543.5,-174 543.5,-144 639.5,-144 639.5,-174"/>
<text text-anchor="start" x="551.5" y="-162" font-family="Helvetica,sans-Serif" font-size="10.00">lci::option_t&lt; lci</text>
<text text-anchor="middle" x="591.5" y="-151" font-family="Helvetica,sans-Serif" font-size="10.00">::endpoint_t &gt;</text>
</a>
</g>
</g>
<!-- Node6&#45;&gt;Node1 -->
<g id="edge5_Node000001_Node000006" class="edge">
<title>Node6&#45;&gt;Node1</title>
<g id="a_edge5_Node000001_Node000006"><a xlink:title=" ">
<path fill="none" stroke="#9a32cd" stroke-dasharray="5,2" d="M649.84,-153.24C694.47,-148.76 755.13,-142.67 793.8,-138.79"/>
<polygon fill="#9a32cd" stroke="#9a32cd" points="649.32,-149.78 639.72,-154.26 650.02,-156.74 649.32,-149.78"/>
</a>
</g>
<text text-anchor="middle" x="724.5" y="-153" font-family="Helvetica,sans-Serif" font-size="10.00" fill="grey"> m_endpoint</text>
</g>
<!-- Node7 -->
<g id="Node000007" class="node">
<title>Node7</title>
<g id="a_Node000007"><a xlink:href="../../de/d1b/classlci_1_1endpoint__t.html" target="_top" xlink:title="The actual implementation for RESOURCE endpoint.">
<polygon fill="white" stroke="#666666" points="425.5,-168.5 339.5,-168.5 339.5,-149.5 425.5,-149.5 425.5,-168.5"/>
<text text-anchor="middle" x="382.5" y="-156.5" font-family="Helvetica,sans-Serif" font-size="10.00">lci::endpoint_t</text>
</a>
</g>
</g>
<!-- Node7&#45;&gt;Node6 -->
<g id="edge6_Node000006_Node000007" class="edge">
<title>Node7&#45;&gt;Node6</title>
<g id="a_edge6_Node000006_Node000007"><a xlink:title=" ">
<path fill="none" stroke="#9a32cd" stroke-dasharray="5,2" d="M436.02,-159C469.08,-159 511.38,-159 543.36,-159"/>
<polygon fill="#9a32cd" stroke="#9a32cd" points="435.64,-155.5 425.64,-159 435.64,-162.5 435.64,-155.5"/>
</a>
</g>
<text text-anchor="middle" x="487" y="-162" font-family="Helvetica,sans-Serif" font-size="10.00" fill="grey"> m_value</text>
</g>
<!-- Node8 -->
<g id="Node000008" class="node">
<title>Node8</title>
<g id="a_Node000008"><a xlink:href="../../db/d20/structlci_1_1option__t.html" target="_top" xlink:title=" ">
<polygon fill="white" stroke="#666666" points="655,-126 528,-126 528,-96 655,-96 655,-126"/>
<text text-anchor="start" x="536" y="-114" font-family="Helvetica,sans-Serif" font-size="10.00">lci::option_t&lt; lci</text>
<text text-anchor="middle" x="591.5" y="-103" font-family="Helvetica,sans-Serif" font-size="10.00">::matching_engine_t &gt;</text>
</a>
</g>
</g>
<!-- Node8&#45;&gt;Node1 -->
<g id="edge7_Node000001_Node000008" class="edge">
<title>Node8&#45;&gt;Node1</title>
<g id="a_edge7_Node000001_Node000008"><a xlink:title=" ">
<path fill="none" stroke="#9a32cd" stroke-dasharray="5,2" d="M665.33,-114.84C699.08,-117.06 739.67,-120.35 776,-125 781.83,-125.75 787.97,-126.69 793.96,-127.7"/>
<polygon fill="#9a32cd" stroke="#9a32cd" points="665.29,-111.33 655.09,-114.19 664.84,-118.32 665.29,-111.33"/>
</a>
</g>
<text text-anchor="middle" x="724.5" y="-128" font-family="Helvetica,sans-Serif" font-size="10.00" fill="grey"> m_matching_engine</text>
</g>
<!-- Node9 -->
<g id="Node000009" class="node">
<title>Node9</title>
<g id="a_Node000009"><a xlink:href="../../d8/d3f/classlci_1_1matching__engine__t.html" target="_top" xlink:title="The actual implementation for RESOURCE matching_engine.">
<polygon fill="white" stroke="#666666" points="446,-120.5 319,-120.5 319,-101.5 446,-101.5 446,-120.5"/>
<text text-anchor="middle" x="382.5" y="-108.5" font-family="Helvetica,sans-Serif" font-size="10.00">lci::matching_engine_t</text>
</a>
</g>
</g>
<!-- Node9&#45;&gt;Node8 -->
<g id="edge8_Node000008_Node000009" class="edge">
<title>Node9&#45;&gt;Node8</title>
<g id="a_edge8_Node000008_Node000009"><a xlink:title=" ">
<path fill="none" stroke="#9a32cd" stroke-dasharray="5,2" d="M456.34,-111C479.62,-111 505.18,-111 527.69,-111"/>
<polygon fill="#9a32cd" stroke="#9a32cd" points="456.17,-107.5 446.17,-111 456.17,-114.5 456.17,-107.5"/>
</a>
</g>
<text text-anchor="middle" x="487" y="-114" font-family="Helvetica,sans-Serif" font-size="10.00" fill="grey"> m_value</text>
</g>
<!-- Node10 -->
<g id="Node000010" class="node">
<title>Node10</title>
<g id="a_Node000010"><a xlink:href="../../db/d20/structlci_1_1option__t.html" target="_top" xlink:title=" ">
<polygon fill="white" stroke="#666666" points="647.5,-78 535.5,-78 535.5,-48 647.5,-48 647.5,-78"/>
<text text-anchor="start" x="543.5" y="-66" font-family="Helvetica,sans-Serif" font-size="10.00">lci::option_t&lt; comp</text>
<text text-anchor="middle" x="591.5" y="-55" font-family="Helvetica,sans-Serif" font-size="10.00">_semantic_t &gt;</text>
</a>
</g>
</g>
<!-- Node10&#45;&gt;Node1 -->
<g id="edge9_Node000001_Node000010" class="edge">
<title>Node10&#45;&gt;Node1</title>
<g id="a_edge9_Node000001_Node000010"><a xlink:title=" ">
<path fill="none" stroke="#9a32cd" stroke-dasharray="5,2" d="M658.11,-70.33C693.87,-75.77 738.38,-84.94 776,-100 791.86,-106.35 808.19,-117.28 818.99,-125.23"/>
<polygon fill="#9a32cd" stroke="#9a32cd" points="658.2,-66.8 647.79,-68.83 657.19,-73.73 658.2,-66.8"/>
</a>
</g>
<text text-anchor="middle" x="724.5" y="-103" font-family="Helvetica,sans-Serif" font-size="10.00" fill="grey"> m_comp_semantic</text>
</g>
<!-- Node11 -->
<g id="Node000011" class="node">
<title>Node11</title>
<g id="a_Node000011"><a xlink:href="../../db/d20/structlci_1_1option__t.html" target="_top" xlink:title=" ">
<polygon fill="white" stroke="#666666" points="639.5,-30 543.5,-30 543.5,0 639.5,0 639.5,-30"/>
<text text-anchor="start" x="551.5" y="-18" font-family="Helvetica,sans-Serif" font-size="10.00">lci::option_t&lt; lci</text>
<text text-anchor="middle" x="591.5" y="-7" font-family="Helvetica,sans-Serif" font-size="10.00">::comp_t &gt;</text>
</a>
</g>
</g>
<!-- Node11&#45;&gt;Node1 -->
<g id="edge10_Node000001_Node000011" class="edge">
<title>Node11&#45;&gt;Node1</title>
<g id="a_edge10_Node000001_Node000011"><a xlink:title=" ">
<path fill="none" stroke="#9a32cd" stroke-dasharray="5,2" d="M649.87,-17.61C688.32,-21.75 738.57,-32.01 776,-57 802.12,-74.44 819.93,-108.64 827.45,-125.35"/>
<polygon fill="#9a32cd" stroke="#9a32cd" points="650.15,-14.12 639.86,-16.64 649.47,-21.09 650.15,-14.12"/>
</a>
</g>
<text text-anchor="middle" x="724.5" y="-60" font-family="Helvetica,sans-Serif" font-size="10.00" fill="grey"> m_comp</text>
</g>
<!-- Node12 -->
<g id="Node000012" class="node">
<title>Node12</title>
<g id="a_Node000012"><a xlink:href="../../d1/da7/classlci_1_1comp__t.html" target="_top" xlink:title="The actual implementation for RESOURCE comp.">
<polygon fill="white" stroke="#666666" points="417.5,-24.5 347.5,-24.5 347.5,-5.5 417.5,-5.5 417.5,-24.5"/>
<text text-anchor="middle" x="382.5" y="-12.5" font-family="Helvetica,sans-Serif" font-size="10.00">lci::comp_t</text>
</a>
</g>
</g>
<!-- Node12&#45;&gt;Node11 -->
<g id="edge11_Node000011_Node000012" class="edge">
<title>Node12&#45;&gt;Node11</title>
<g id="a_edge11_Node000011_Node000012"><a xlink:title=" ">
<path fill="none" stroke="#9a32cd" stroke-dasharray="5,2" d="M427.81,-15C461.86,-15 508.78,-15 543.48,-15"/>
<polygon fill="#9a32cd" stroke="#9a32cd" points="427.68,-11.5 417.68,-15 427.68,-18.5 427.68,-11.5"/>
</a>
</g>
<text text-anchor="middle" x="487" y="-18" font-family="Helvetica,sans-Serif" font-size="10.00" fill="grey"> m_value</text>
</g>
<!-- Node13 -->
<g id="Node000013" class="node">
<title>Node13</title>
<g id="a_Node000013"><a xlink:href="../../d9/d97/classlci_1_1comp__impl__t.html" target="_top" xlink:title="Completion object implementation base type.">
<polygon fill="white" stroke="#666666" points="246,-24.5 149,-24.5 149,-5.5 246,-5.5 246,-24.5"/>
<text text-anchor="middle" x="197.5" y="-12.5" font-family="Helvetica,sans-Serif" font-size="10.00">lci::comp_impl_t</text>
</a>
</g>
</g>
<!-- Node13&#45;&gt;Node12 -->
<g id="edge12_Node000012_Node000013" class="edge">
<title>Node13&#45;&gt;Node12</title>
<g id="a_edge12_Node000012_Node000013"><a xlink:title=" ">
<path fill="none" stroke="#9a32cd" stroke-dasharray="5,2" d="M256.44,-15C286.39,-15 321.91,-15 347.42,-15"/>
<polygon fill="#9a32cd" stroke="#9a32cd" points="256.1,-11.5 246.1,-15 256.1,-18.5 256.1,-11.5"/>
</a>
</g>
<text text-anchor="middle" x="282.5" y="-18" font-family="Helvetica,sans-Serif" font-size="10.00" fill="grey"> p_impl</text>
</g>
<!-- Node14 -->
<g id="Node000014" class="node">
<title>Node14</title>
<g id="a_Node000014"><a xlink:href="../../dc/da6/structlci_1_1comp__attr__t.html" target="_top" xlink:title=" ">
<polygon fill="white" stroke="#666666" points="92,-24.5 0,-24.5 0,-5.5 92,-5.5 92,-24.5"/>
<text text-anchor="middle" x="46" y="-12.5" font-family="Helvetica,sans-Serif" font-size="10.00">lci::comp_attr_t</text>
</a>
</g>
</g>
<!-- Node14&#45;&gt;Node13 -->
<g id="edge13_Node000013_Node000014" class="edge">
<title>Node14&#45;&gt;Node13</title>
<g id="a_edge13_Node000013_Node000014"><a xlink:title=" ">
<path fill="none" stroke="#9a32cd" stroke-dasharray="5,2" d="M102.56,-15C117.76,-15 134.09,-15 148.8,-15"/>
<polygon fill="#9a32cd" stroke="#9a32cd" points="102.26,-11.5 92.26,-15 102.26,-18.5 102.26,-11.5"/>
</a>
</g>
<text text-anchor="middle" x="120.5" y="-18" font-family="Helvetica,sans-Serif" font-size="10.00" fill="grey"> attr</text>
</g>
</g>
</svg>
