<?xml version="1.0" encoding="UTF-8" standalone="no"?>
<!DOCTYPE svg PUBLIC "-//W3C//DTD SVG 1.1//EN"
 "http://www.w3.org/Graphics/SVG/1.1/DTD/svg11.dtd">
<!-- Generated by graphviz version 2.43.0 (0)
 -->
<!-- Title: lci::graph_node_mark_complete_x::node Pages: 1 -->
<svg width="623pt" height="86pt"
 viewBox="0.00 0.00 623.00 86.00" xmlns="http://www.w3.org/2000/svg" xmlns:xlink="http://www.w3.org/1999/xlink">
<g id="graph0" class="graph" transform="scale(1 1) rotate(0) translate(4 82)">
<title>lci::graph_node_mark_complete_x::node</title>
<!-- Node1 -->
<g id="Node000001" class="node">
<title>Node1</title>
<g id="a_Node000001"><a xlink:title=" ">
<polygon fill="#999999" stroke="#666666" points="615,-54 493,-54 493,-24 615,-24 615,-54"/>
<text text-anchor="start" x="501" y="-42" font-family="Helvetica,sans-Serif" font-size="10.00">lci::graph_node_mark</text>
<text text-anchor="middle" x="554" y="-31" font-family="Helvetica,sans-Serif" font-size="10.00">_complete_x::node</text>
</a>
</g>
</g>
<!-- Node2 -->
<g id="Node000002" class="node">
<title>Node2</title>
<g id="a_Node000002"><a xlink:href="../../d8/dd3/classlci_1_1graph__node__mark__complete__x.html#a2e0280253e0749fd819ada3e8e3ada68" target="_top" xlink:title=" ">
<polygon fill="white" stroke="#666666" points="292,-54 170,-54 170,-24 292,-24 292,-54"/>
<text text-anchor="start" x="178" y="-42" font-family="Helvetica,sans-Serif" font-size="10.00">lci::graph_node_mark</text>
<text text-anchor="middle" x="231" y="-31" font-family="Helvetica,sans-Serif" font-size="10.00">_complete_x::call</text>
</a>
</g>
</g>
<!-- Node1&#45;&gt;Node2 -->
<g id="edge1_Node000001_Node000002" class="edge">
<title>Node1&#45;&gt;Node2</title>
<g id="a_edge1_Node000001_Node000002"><a xlink:title=" ">
<path fill="none" stroke="#63b8ff" d="M482.73,-41.45C474.06,-41.68 465.33,-41.87 457,-42 399.67,-42.9 385.33,-42.9 328,-42 316.41,-41.82 304.04,-41.52 292.17,-41.17"/>
<polygon fill="#63b8ff" stroke="#63b8ff" points="482.94,-44.94 492.83,-41.17 482.74,-37.95 482.94,-44.94"/>
</a>
</g>
</g>
<!-- Node5 -->
<g id="Node000005" class="node">
<title>Node5</title>
<g id="a_Node000005"><a xlink:href="../../d8/dd3/classlci_1_1graph__node__mark__complete__x.html#a57dffc4e9f89b369df7321ab05698c77" target="_top" xlink:title=" ">
<polygon fill="white" stroke="#666666" points="457,-33 328,-33 328,-3 457,-3 457,-33"/>
<text text-anchor="start" x="336" y="-21" font-family="Helvetica,sans-Serif" font-size="10.00">lci::graph_node_mark</text>
<text text-anchor="middle" x="392.5" y="-10" font-family="Helvetica,sans-Serif" font-size="10.00">_complete_x::call_impl</text>
</a>
</g>
</g>
<!-- Node1&#45;&gt;Node5 -->
<g id="edge4_Node000001_Node000005" class="edge">
<title>Node1&#45;&gt;Node5</title>
<g id="a_edge4_Node000001_Node000005"><a xlink:title=" ">
<path fill="none" stroke="#63b8ff" d="M482.76,-29.75C474.21,-28.63 465.52,-27.48 457.08,-26.37"/>
<polygon fill="#63b8ff" stroke="#63b8ff" points="482.33,-33.23 492.7,-31.06 483.24,-26.29 482.33,-33.23"/>
</a>
</g>
</g>
<!-- Node3 -->
<g id="Node000003" class="node">
<title>Node3</title>
<g id="a_Node000003"><a xlink:href="../../d5/dd3/namespacelci.html#a097aceaaa878e6a34c493564a6c24576" target="_top" xlink:title=" ">
<polygon fill="white" stroke="#666666" points="128,-78 6,-78 6,-48 128,-48 128,-78"/>
<text text-anchor="start" x="14" y="-66" font-family="Helvetica,sans-Serif" font-size="10.00">lci::graph_node_mark</text>
<text text-anchor="middle" x="67" y="-55" font-family="Helvetica,sans-Serif" font-size="10.00">_complete</text>
</a>
</g>
</g>
<!-- Node2&#45;&gt;Node3 -->
<g id="edge2_Node000002_Node000003" class="edge">
<title>Node2&#45;&gt;Node3</title>
<g id="a_edge2_Node000002_Node000003"><a xlink:title=" ">
<path fill="none" stroke="#63b8ff" d="M159.69,-49.42C149.16,-50.98 138.39,-52.57 128.1,-54.1"/>
<polygon fill="#63b8ff" stroke="#63b8ff" points="160.3,-52.86 169.68,-47.94 159.27,-45.94 160.3,-52.86"/>
</a>
</g>
</g>
<!-- Node4 -->
<g id="Node000004" class="node">
<title>Node4</title>
<g id="a_Node000004"><a xlink:href="../../d8/dd3/classlci_1_1graph__node__mark__complete__x.html#a21cf15c98eada61aa7d587f7ae2fc9fb" target="_top" xlink:title=" ">
<polygon fill="white" stroke="#666666" points="134,-30 0,-30 0,0 134,0 134,-30"/>
<text text-anchor="start" x="8" y="-18" font-family="Helvetica,sans-Serif" font-size="10.00">lci::graph_node_mark</text>
<text text-anchor="middle" x="67" y="-7" font-family="Helvetica,sans-Serif" font-size="10.00">_complete_x::operator()</text>
</a>
</g>
</g>
<!-- Node2&#45;&gt;Node4 -->
<g id="edge3_Node000002_Node000004" class="edge">
<title>Node2&#45;&gt;Node4</title>
<g id="a_edge3_Node000002_Node000004"><a xlink:title=" ">
<path fill="none" stroke="#63b8ff" d="M159.76,-28.59C151.24,-27.33 142.55,-26.04 134.09,-24.79"/>
<polygon fill="#63b8ff" stroke="#63b8ff" points="159.27,-32.06 169.68,-30.06 160.3,-25.14 159.27,-32.06"/>
</a>
</g>
</g>
<!-- Node5&#45;&gt;Node2 -->
<g id="edge5_Node000005_Node000002" class="edge">
<title>Node5&#45;&gt;Node2</title>
<g id="a_edge5_Node000005_Node000002"><a xlink:title=" ">
<path fill="none" stroke="#63b8ff" d="M317.58,-27.73C309.04,-28.86 300.41,-29.99 292.09,-31.09"/>
<polygon fill="#63b8ff" stroke="#63b8ff" points="318.09,-31.2 327.54,-26.42 317.17,-24.26 318.09,-31.2"/>
</a>
</g>
</g>
</g>
</svg>
