<?xml version="1.0" encoding="UTF-8" standalone="no"?>
<!DOCTYPE svg PUBLIC "-//W3C//DTD SVG 1.1//EN"
 "http://www.w3.org/Graphics/SVG/1.1/DTD/svg11.dtd">
<!-- Generated by graphviz version 2.43.0 (0)
 -->
<!-- Title: lci::post_get_x Pages: 1 -->
<svg width="692pt" height="570pt"
 viewBox="0.00 0.00 692.00 570.17" xmlns="http://www.w3.org/2000/svg" xmlns:xlink="http://www.w3.org/1999/xlink">
<g id="graph0" class="graph" transform="scale(1 1) rotate(0) translate(4 566.17)">
<title>lci::post_get_x</title>
<!-- Node1 -->
<g id="Node000001" class="node">
<title>Node1</title>
<g id="a_Node000001"><a xlink:title="The actual implementation for post_get.">
<polygon fill="#999999" stroke="#666666" points="684,-282.67 597,-282.67 597,-263.67 684,-263.67 684,-282.67"/>
<text text-anchor="middle" x="640.5" y="-270.67" font-family="Helvetica,sans-Serif" font-size="10.00">lci::post_get_x</text>
</a>
</g>
</g>
<!-- Node2 -->
<g id="Node000002" class="node">
<title>Node2</title>
<g id="a_Node000002"><a xlink:href="../../d1/da7/classlci_1_1comp__t.html" target="_top" xlink:title="The actual implementation for RESOURCE comp.">
<polygon fill="white" stroke="#666666" points="438.5,-554.67 368.5,-554.67 368.5,-535.67 438.5,-535.67 438.5,-554.67"/>
<text text-anchor="middle" x="403.5" y="-542.67" font-family="Helvetica,sans-Serif" font-size="10.00">lci::comp_t</text>
</a>
</g>
</g>
<!-- Node2&#45;&gt;Node1 -->
<g id="edge1_Node000001_Node000002" class="edge">
<title>Node2&#45;&gt;Node1</title>
<g id="a_edge1_Node000001_Node000002"><a xlink:title=" ">
<path fill="none" stroke="#9a32cd" stroke-dasharray="5,2" d="M448.74,-551.49C487.87,-554.45 544.03,-551.87 579,-520.17 615.47,-487.1 634.31,-324.22 638.56,-282.77"/>
<polygon fill="#9a32cd" stroke="#9a32cd" points="448.95,-547.99 438.68,-550.58 448.32,-554.96 448.95,-547.99"/>
</a>
</g>
<text text-anchor="middle" x="536" y="-554.17" font-family="Helvetica,sans-Serif" font-size="10.00" fill="grey"> m_local_comp</text>
</g>
<!-- Node3 -->
<g id="Node000003" class="node">
<title>Node3</title>
<g id="a_Node000003"><a xlink:href="../../d9/d97/classlci_1_1comp__impl__t.html" target="_top" xlink:title="Completion object implementation base type.">
<polygon fill="white" stroke="#666666" points="248,-554.67 151,-554.67 151,-535.67 248,-535.67 248,-554.67"/>
<text text-anchor="middle" x="199.5" y="-542.67" font-family="Helvetica,sans-Serif" font-size="10.00">lci::comp_impl_t</text>
</a>
</g>
</g>
<!-- Node3&#45;&gt;Node2 -->
<g id="edge2_Node000002_Node000003" class="edge">
<title>Node3&#45;&gt;Node2</title>
<g id="a_edge2_Node000002_Node000003"><a xlink:title=" ">
<path fill="none" stroke="#9a32cd" stroke-dasharray="5,2" d="M258.38,-545.17C294,-545.17 338.43,-545.17 368.47,-545.17"/>
<polygon fill="#9a32cd" stroke="#9a32cd" points="258.12,-541.67 248.12,-545.17 258.12,-548.67 258.12,-541.67"/>
</a>
</g>
<text text-anchor="middle" x="291" y="-548.17" font-family="Helvetica,sans-Serif" font-size="10.00" fill="grey"> p_impl</text>
</g>
<!-- Node4 -->
<g id="Node000004" class="node">
<title>Node4</title>
<g id="a_Node000004"><a xlink:href="../../dc/da6/structlci_1_1comp__attr__t.html" target="_top" xlink:title=" ">
<polygon fill="white" stroke="#666666" points="92,-554.67 0,-554.67 0,-535.67 92,-535.67 92,-554.67"/>
<text text-anchor="middle" x="46" y="-542.67" font-family="Helvetica,sans-Serif" font-size="10.00">lci::comp_attr_t</text>
</a>
</g>
</g>
<!-- Node4&#45;&gt;Node3 -->
<g id="edge3_Node000003_Node000004" class="edge">
<title>Node4&#45;&gt;Node3</title>
<g id="a_edge3_Node000003_Node000004"><a xlink:title=" ">
<path fill="none" stroke="#9a32cd" stroke-dasharray="5,2" d="M102.31,-545.17C118.28,-545.17 135.55,-545.17 151,-545.17"/>
<polygon fill="#9a32cd" stroke="#9a32cd" points="102.04,-541.67 92.04,-545.17 102.04,-548.67 102.04,-541.67"/>
</a>
</g>
<text text-anchor="middle" x="120.5" y="-548.17" font-family="Helvetica,sans-Serif" font-size="10.00" fill="grey"> attr</text>
</g>
<!-- Node5 -->
<g id="Node000005" class="node">
<title>Node5</title>
<g id="a_Node000005"><a xlink:href="../../da/d8d/structlci_1_1rmr__t.html" target="_top" xlink:title="The type of remote memory region.">
<polygon fill="white" stroke="#666666" points="433.5,-517.67 373.5,-517.67 373.5,-498.67 433.5,-498.67 433.5,-517.67"/>
<text text-anchor="middle" x="403.5" y="-505.67" font-family="Helvetica,sans-Serif" font-size="10.00">lci::rmr_t</text>
</a>
</g>
</g>
<!-- Node5&#45;&gt;Node1 -->
<g id="edge4_Node000001_Node000005" class="edge">
<title>Node5&#45;&gt;Node1</title>
<g id="a_edge4_Node000001_Node000005"><a xlink:title=" ">
<path fill="none" stroke="#9a32cd" stroke-dasharray="5,2" d="M443.75,-510.31C482.89,-510.26 542.31,-503.91 579,-470.17 635.62,-418.09 639.81,-314.54 639.7,-282.7"/>
<polygon fill="#9a32cd" stroke="#9a32cd" points="443.58,-506.81 433.53,-510.19 443.49,-513.81 443.58,-506.81"/>
</a>
</g>
<text text-anchor="middle" x="536" y="-508.17" font-family="Helvetica,sans-Serif" font-size="10.00" fill="grey"> m_rmr</text>
</g>
<!-- Node6 -->
<g id="Node000006" class="node">
<title>Node6</title>
<g id="a_Node000006"><a xlink:href="../../db/d20/structlci_1_1option__t.html" target="_top" xlink:title=" ">
<polygon fill="white" stroke="#666666" points="451.5,-480.17 355.5,-480.17 355.5,-450.17 451.5,-450.17 451.5,-480.17"/>
<text text-anchor="start" x="363.5" y="-468.17" font-family="Helvetica,sans-Serif" font-size="10.00">lci::option_t&lt; lci</text>
<text text-anchor="middle" x="403.5" y="-457.17" font-family="Helvetica,sans-Serif" font-size="10.00">::runtime_t &gt;</text>
</a>
</g>
</g>
<!-- Node6&#45;&gt;Node1 -->
<g id="edge5_Node000001_Node000006" class="edge">
<title>Node6&#45;&gt;Node1</title>
<g id="a_edge5_Node000001_Node000006"><a xlink:title=" ">
<path fill="none" stroke="#9a32cd" stroke-dasharray="5,2" d="M461.88,-462.07C499.2,-457.26 546.74,-445.5 579,-417.17 621.17,-380.12 634.7,-308.84 638.33,-282.9"/>
<polygon fill="#9a32cd" stroke="#9a32cd" points="461.18,-458.63 451.65,-463.25 461.99,-465.58 461.18,-458.63"/>
</a>
</g>
<text text-anchor="middle" x="536" y="-458.17" font-family="Helvetica,sans-Serif" font-size="10.00" fill="grey"> m_runtime</text>
</g>
<!-- Node7 -->
<g id="Node000007" class="node">
<title>Node7</title>
<g id="a_Node000007"><a xlink:href="../../dc/d5c/classlci_1_1runtime__t.html" target="_top" xlink:title="The actual implementation for RESOURCE runtime.">
<polygon fill="white" stroke="#666666" points="240,-474.67 159,-474.67 159,-455.67 240,-455.67 240,-474.67"/>
<text text-anchor="middle" x="199.5" y="-462.67" font-family="Helvetica,sans-Serif" font-size="10.00">lci::runtime_t</text>
</a>
</g>
</g>
<!-- Node7&#45;&gt;Node6 -->
<g id="edge6_Node000006_Node000007" class="edge">
<title>Node7&#45;&gt;Node6</title>
<g id="a_edge6_Node000006_Node000007"><a xlink:title=" ">
<path fill="none" stroke="#9a32cd" stroke-dasharray="5,2" d="M250.45,-465.17C282.46,-465.17 323.75,-465.17 355.22,-465.17"/>
<polygon fill="#9a32cd" stroke="#9a32cd" points="250.41,-461.67 240.41,-465.17 250.41,-468.67 250.41,-461.67"/>
</a>
</g>
<text text-anchor="middle" x="291" y="-468.17" font-family="Helvetica,sans-Serif" font-size="10.00" fill="grey"> m_value</text>
</g>
<!-- Node8 -->
<g id="Node000008" class="node">
<title>Node8</title>
<g id="a_Node000008"><a xlink:href="../../db/d20/structlci_1_1option__t.html" target="_top" xlink:title=" ">
<polygon fill="white" stroke="#666666" points="454,-432.17 353,-432.17 353,-402.17 454,-402.17 454,-432.17"/>
<text text-anchor="start" x="361" y="-420.17" font-family="Helvetica,sans-Serif" font-size="10.00">lci::option_t&lt; lci</text>
<text text-anchor="middle" x="403.5" y="-409.17" font-family="Helvetica,sans-Serif" font-size="10.00">::packet_pool_t &gt;</text>
</a>
</g>
</g>
<!-- Node8&#45;&gt;Node1 -->
<g id="edge7_Node000001_Node000008" class="edge">
<title>Node8&#45;&gt;Node1</title>
<g id="a_edge7_Node000001_Node000008"><a xlink:title=" ">
<path fill="none" stroke="#9a32cd" stroke-dasharray="5,2" d="M464.03,-409.92C500.11,-403.13 545.49,-390.08 579,-365.17 608.76,-343.04 628.16,-301.62 635.81,-282.85"/>
<polygon fill="#9a32cd" stroke="#9a32cd" points="463.35,-406.49 454.11,-411.68 464.57,-413.38 463.35,-406.49"/>
</a>
</g>
<text text-anchor="middle" x="536" y="-405.17" font-family="Helvetica,sans-Serif" font-size="10.00" fill="grey"> m_packet_pool</text>
</g>
<!-- Node9 -->
<g id="Node000009" class="node">
<title>Node9</title>
<g id="a_Node000009"><a xlink:href="../../db/dec/classlci_1_1packet__pool__t.html" target="_top" xlink:title="The actual implementation for RESOURCE packet_pool.">
<polygon fill="white" stroke="#666666" points="250,-426.67 149,-426.67 149,-407.67 250,-407.67 250,-426.67"/>
<text text-anchor="middle" x="199.5" y="-414.67" font-family="Helvetica,sans-Serif" font-size="10.00">lci::packet_pool_t</text>
</a>
</g>
</g>
<!-- Node9&#45;&gt;Node8 -->
<g id="edge8_Node000008_Node000009" class="edge">
<title>Node9&#45;&gt;Node8</title>
<g id="a_edge8_Node000008_Node000009"><a xlink:title=" ">
<path fill="none" stroke="#9a32cd" stroke-dasharray="5,2" d="M260.32,-417.17C289.72,-417.17 324.74,-417.17 352.67,-417.17"/>
<polygon fill="#9a32cd" stroke="#9a32cd" points="260.17,-413.67 250.17,-417.17 260.17,-420.67 260.17,-413.67"/>
</a>
</g>
<text text-anchor="middle" x="291" y="-420.17" font-family="Helvetica,sans-Serif" font-size="10.00" fill="grey"> m_value</text>
</g>
<!-- Node10 -->
<g id="Node000010" class="node">
<title>Node10</title>
<g id="a_Node000010"><a xlink:href="../../db/d20/structlci_1_1option__t.html" target="_top" xlink:title=" ">
<polygon fill="white" stroke="#666666" points="451.5,-384.17 355.5,-384.17 355.5,-354.17 451.5,-354.17 451.5,-384.17"/>
<text text-anchor="start" x="363.5" y="-372.17" font-family="Helvetica,sans-Serif" font-size="10.00">lci::option_t&lt; lci</text>
<text text-anchor="middle" x="403.5" y="-361.17" font-family="Helvetica,sans-Serif" font-size="10.00">::device_t &gt;</text>
</a>
</g>
</g>
<!-- Node10&#45;&gt;Node1 -->
<g id="edge9_Node000001_Node000010" class="edge">
<title>Node10&#45;&gt;Node1</title>
<g id="a_edge9_Node000001_Node000010"><a xlink:title=" ">
<path fill="none" stroke="#9a32cd" stroke-dasharray="5,2" d="M461.94,-358.9C497.01,-351.22 542.05,-338.8 579,-320.17 598.71,-310.22 618.3,-293.41 629.63,-282.82"/>
<polygon fill="#9a32cd" stroke="#9a32cd" points="460.93,-355.53 451.87,-361.03 462.38,-362.38 460.93,-355.53"/>
</a>
</g>
<text text-anchor="middle" x="536" y="-353.17" font-family="Helvetica,sans-Serif" font-size="10.00" fill="grey"> m_device</text>
</g>
<!-- Node11 -->
<g id="Node000011" class="node">
<title>Node11</title>
<g id="a_Node000011"><a xlink:href="../../d6/d66/classlci_1_1device__t.html" target="_top" xlink:title="The actual implementation for RESOURCE device.">
<polygon fill="white" stroke="#666666" points="237,-378.67 162,-378.67 162,-359.67 237,-359.67 237,-378.67"/>
<text text-anchor="middle" x="199.5" y="-366.67" font-family="Helvetica,sans-Serif" font-size="10.00">lci::device_t</text>
</a>
</g>
</g>
<!-- Node11&#45;&gt;Node10 -->
<g id="edge10_Node000010_Node000011" class="edge">
<title>Node11&#45;&gt;Node10</title>
<g id="a_edge10_Node000010_Node000011"><a xlink:title=" ">
<path fill="none" stroke="#9a32cd" stroke-dasharray="5,2" d="M247.2,-369.17C279.6,-369.17 322.6,-369.17 355.14,-369.17"/>
<polygon fill="#9a32cd" stroke="#9a32cd" points="247.08,-365.67 237.08,-369.17 247.08,-372.67 247.08,-365.67"/>
</a>
</g>
<text text-anchor="middle" x="291" y="-372.17" font-family="Helvetica,sans-Serif" font-size="10.00" fill="grey"> m_value</text>
</g>
<!-- Node12 -->
<g id="Node000012" class="node">
<title>Node12</title>
<g id="a_Node000012"><a xlink:href="../../db/d20/structlci_1_1option__t.html" target="_top" xlink:title=" ">
<polygon fill="white" stroke="#666666" points="451.5,-336.17 355.5,-336.17 355.5,-306.17 451.5,-306.17 451.5,-336.17"/>
<text text-anchor="start" x="363.5" y="-324.17" font-family="Helvetica,sans-Serif" font-size="10.00">lci::option_t&lt; lci</text>
<text text-anchor="middle" x="403.5" y="-313.17" font-family="Helvetica,sans-Serif" font-size="10.00">::endpoint_t &gt;</text>
</a>
</g>
</g>
<!-- Node12&#45;&gt;Node1 -->
<g id="edge11_Node000001_Node000012" class="edge">
<title>Node12&#45;&gt;Node1</title>
<g id="a_edge11_Node000001_Node000012"><a xlink:title=" ">
<path fill="none" stroke="#9a32cd" stroke-dasharray="5,2" d="M461.93,-311.14C496.04,-304.98 540.1,-296.66 579,-288.17 586.61,-286.51 594.73,-284.59 602.46,-282.7"/>
<polygon fill="#9a32cd" stroke="#9a32cd" points="460.9,-307.77 451.68,-312.99 462.14,-314.66 460.9,-307.77"/>
</a>
</g>
<text text-anchor="middle" x="536" y="-308.17" font-family="Helvetica,sans-Serif" font-size="10.00" fill="grey"> m_endpoint</text>
</g>
<!-- Node13 -->
<g id="Node000013" class="node">
<title>Node13</title>
<g id="a_Node000013"><a xlink:href="../../de/d1b/classlci_1_1endpoint__t.html" target="_top" xlink:title="The actual implementation for RESOURCE endpoint.">
<polygon fill="white" stroke="#666666" points="242.5,-330.67 156.5,-330.67 156.5,-311.67 242.5,-311.67 242.5,-330.67"/>
<text text-anchor="middle" x="199.5" y="-318.67" font-family="Helvetica,sans-Serif" font-size="10.00">lci::endpoint_t</text>
</a>
</g>
</g>
<!-- Node13&#45;&gt;Node12 -->
<g id="edge12_Node000012_Node000013" class="edge">
<title>Node13&#45;&gt;Node12</title>
<g id="a_edge12_Node000012_Node000013"><a xlink:title=" ">
<path fill="none" stroke="#9a32cd" stroke-dasharray="5,2" d="M253.22,-321.17C284.83,-321.17 324.69,-321.17 355.26,-321.17"/>
<polygon fill="#9a32cd" stroke="#9a32cd" points="252.85,-317.67 242.85,-321.17 252.85,-324.67 252.85,-317.67"/>
</a>
</g>
<text text-anchor="middle" x="291" y="-324.17" font-family="Helvetica,sans-Serif" font-size="10.00" fill="grey"> m_value</text>
</g>
<!-- Node14 -->
<g id="Node000014" class="node">
<title>Node14</title>
<g id="a_Node000014"><a xlink:href="../../db/d20/structlci_1_1option__t.html" target="_top" xlink:title=" ">
<polygon fill="white" stroke="#666666" points="451.5,-288.17 355.5,-288.17 355.5,-258.17 451.5,-258.17 451.5,-288.17"/>
<text text-anchor="start" x="363.5" y="-276.17" font-family="Helvetica,sans-Serif" font-size="10.00">lci::option_t&lt; lci</text>
<text text-anchor="middle" x="403.5" y="-265.17" font-family="Helvetica,sans-Serif" font-size="10.00">::mr_t &gt;</text>
</a>
</g>
</g>
<!-- Node14&#45;&gt;Node1 -->
<g id="edge13_Node000001_Node000014" class="edge">
<title>Node14&#45;&gt;Node1</title>
<g id="a_edge13_Node000001_Node000014"><a xlink:title=" ">
<path fill="none" stroke="#9a32cd" stroke-dasharray="5,2" d="M462.03,-273.17C503.62,-273.17 558.91,-273.17 596.65,-273.17"/>
<polygon fill="#9a32cd" stroke="#9a32cd" points="461.77,-269.67 451.77,-273.17 461.77,-276.67 461.77,-269.67"/>
</a>
</g>
<text text-anchor="middle" x="536" y="-276.17" font-family="Helvetica,sans-Serif" font-size="10.00" fill="grey"> m_mr</text>
</g>
<!-- Node15 -->
<g id="Node000015" class="node">
<title>Node15</title>
<g id="a_Node000015"><a xlink:href="../../d7/d1a/classlci_1_1mr__t.html" target="_top" xlink:title="The actual implementation for RESOURCE mr.">
<polygon fill="white" stroke="#666666" points="227.5,-282.67 171.5,-282.67 171.5,-263.67 227.5,-263.67 227.5,-282.67"/>
<text text-anchor="middle" x="199.5" y="-270.67" font-family="Helvetica,sans-Serif" font-size="10.00">lci::mr_t</text>
</a>
</g>
</g>
<!-- Node15&#45;&gt;Node14 -->
<g id="edge14_Node000014_Node000015" class="edge">
<title>Node15&#45;&gt;Node14</title>
<g id="a_edge14_Node000014_Node000015"><a xlink:title=" ">
<path fill="none" stroke="#9a32cd" stroke-dasharray="5,2" d="M237.91,-273.17C271.01,-273.17 319.46,-273.17 355.23,-273.17"/>
<polygon fill="#9a32cd" stroke="#9a32cd" points="237.74,-269.67 227.74,-273.17 237.74,-276.67 237.74,-269.67"/>
</a>
</g>
<text text-anchor="middle" x="291" y="-276.17" font-family="Helvetica,sans-Serif" font-size="10.00" fill="grey"> m_value</text>
</g>
<!-- Node16 -->
<g id="Node000016" class="node">
<title>Node16</title>
<g id="a_Node000016"><a xlink:href="../../db/d20/structlci_1_1option__t.html" target="_top" xlink:title=" ">
<polygon fill="white" stroke="#666666" points="464,-239.67 343,-239.67 343,-220.67 464,-220.67 464,-239.67"/>
<text text-anchor="middle" x="403.5" y="-227.67" font-family="Helvetica,sans-Serif" font-size="10.00">lci::option_t&lt; tag_t &gt;</text>
</a>
</g>
</g>
<!-- Node16&#45;&gt;Node1 -->
<g id="edge15_Node000001_Node000016" class="edge">
<title>Node16&#45;&gt;Node1</title>
<g id="a_edge15_Node000001_Node000016"><a xlink:title=" ">
<path fill="none" stroke="#9a32cd" stroke-dasharray="5,2" d="M474.25,-239.99C506.28,-244.85 544.68,-251.17 579,-258.17 586.85,-259.77 595.21,-261.69 603.14,-263.63"/>
<polygon fill="#9a32cd" stroke="#9a32cd" points="474.5,-236.49 464.09,-238.46 473.46,-243.41 474.5,-236.49"/>
</a>
</g>
<text text-anchor="middle" x="536" y="-261.17" font-family="Helvetica,sans-Serif" font-size="10.00" fill="grey"> m_tag</text>
</g>
<!-- Node17 -->
<g id="Node000017" class="node">
<title>Node17</title>
<g id="a_Node000017"><a xlink:href="../../db/d20/structlci_1_1option__t.html" target="_top" xlink:title=" ">
<polygon fill="white" stroke="#666666" points="471.5,-202.67 335.5,-202.67 335.5,-183.67 471.5,-183.67 471.5,-202.67"/>
<text text-anchor="middle" x="403.5" y="-190.67" font-family="Helvetica,sans-Serif" font-size="10.00">lci::option_t&lt; rcomp_t &gt;</text>
</a>
</g>
</g>
<!-- Node17&#45;&gt;Node1 -->
<g id="edge16_Node000001_Node000017" class="edge">
<title>Node17&#45;&gt;Node1</title>
<g id="a_edge16_Node000001_Node000017"><a xlink:title=" ">
<path fill="none" stroke="#9a32cd" stroke-dasharray="5,2" d="M481.68,-200.48C512.88,-205.38 548.63,-213.56 579,-227.17 598.99,-236.12 618.49,-252.81 629.74,-263.43"/>
<polygon fill="#9a32cd" stroke="#9a32cd" points="482.13,-197 471.72,-198.99 481.1,-203.93 482.13,-197"/>
</a>
</g>
<text text-anchor="middle" x="536" y="-230.17" font-family="Helvetica,sans-Serif" font-size="10.00" fill="grey"> m_remote_comp</text>
</g>
<!-- Node18 -->
<g id="Node000018" class="node">
<title>Node18</title>
<g id="a_Node000018"><a xlink:href="../../db/d20/structlci_1_1option__t.html" target="_top" xlink:title=" ">
<polygon fill="white" stroke="#666666" points="466,-165.67 341,-165.67 341,-146.67 466,-146.67 466,-165.67"/>
<text text-anchor="middle" x="403.5" y="-153.67" font-family="Helvetica,sans-Serif" font-size="10.00">lci::option_t&lt; void * &gt;</text>
</a>
</g>
</g>
<!-- Node18&#45;&gt;Node1 -->
<g id="edge17_Node000001_Node000018" class="edge">
<title>Node18&#45;&gt;Node1</title>
<g id="a_edge17_Node000001_Node000018"><a xlink:title=" ">
<path fill="none" stroke="#9a32cd" stroke-dasharray="5,2" d="M476.19,-156.57C509.63,-159.71 548.65,-167.85 579,-187.17 608.72,-206.08 628.02,-245.36 635.71,-263.54"/>
<polygon fill="#9a32cd" stroke="#9a32cd" points="476.25,-153.07 466,-155.75 475.69,-160.04 476.25,-153.07"/>
</a>
</g>
<text text-anchor="middle" x="536" y="-190.17" font-family="Helvetica,sans-Serif" font-size="10.00" fill="grey"> m_user_context</text>
</g>
<!-- Node19 -->
<g id="Node000019" class="node">
<title>Node19</title>
<g id="a_Node000019"><a xlink:href="../../db/d20/structlci_1_1option__t.html" target="_top" xlink:title=" ">
<polygon fill="white" stroke="#666666" points="473,-128.67 334,-128.67 334,-109.67 473,-109.67 473,-128.67"/>
<text text-anchor="middle" x="403.5" y="-116.67" font-family="Helvetica,sans-Serif" font-size="10.00">lci::option_t&lt; buffers_t &gt;</text>
</a>
</g>
</g>
<!-- Node19&#45;&gt;Node1 -->
<g id="edge18_Node000001_Node000019" class="edge">
<title>Node19&#45;&gt;Node1</title>
<g id="a_edge18_Node000001_Node000019"><a xlink:title=" ">
<path fill="none" stroke="#9a32cd" stroke-dasharray="5,2" d="M483.55,-114.18C515.86,-115.94 551.92,-123.17 579,-143.17 620.06,-173.48 634.15,-238.61 638.14,-263.35"/>
<polygon fill="#9a32cd" stroke="#9a32cd" points="483.33,-110.67 473.21,-113.8 483.07,-117.67 483.33,-110.67"/>
</a>
</g>
<text text-anchor="middle" x="536" y="-146.17" font-family="Helvetica,sans-Serif" font-size="10.00" fill="grey"> m_buffers</text>
</g>
<!-- Node20 -->
<g id="Node000020" class="node">
<title>Node20</title>
<g id="a_Node000020"><a xlink:href="../../db/d20/structlci_1_1option__t.html" target="_top" xlink:title=" ">
<polygon fill="white" stroke="#666666" points="475,-91.67 332,-91.67 332,-72.67 475,-72.67 475,-91.67"/>
<text text-anchor="middle" x="403.5" y="-79.67" font-family="Helvetica,sans-Serif" font-size="10.00">lci::option_t&lt; rbuffers_t &gt;</text>
</a>
</g>
</g>
<!-- Node20&#45;&gt;Node1 -->
<g id="edge19_Node000001_Node000020" class="edge">
<title>Node20&#45;&gt;Node1</title>
<g id="a_edge19_Node000001_Node000020"><a xlink:title=" ">
<path fill="none" stroke="#9a32cd" stroke-dasharray="5,2" d="M477.9,-72.29C511.92,-71.67 550.93,-77.08 579,-99.17 632.54,-141.29 638.87,-233.77 639.48,-263.65"/>
<polygon fill="#9a32cd" stroke="#9a32cd" points="477.39,-68.81 467.52,-72.66 477.64,-75.8 477.39,-68.81"/>
</a>
</g>
<text text-anchor="middle" x="536" y="-102.17" font-family="Helvetica,sans-Serif" font-size="10.00" fill="grey"> m_rbuffers</text>
</g>
<!-- Node21 -->
<g id="Node000021" class="node">
<title>Node21</title>
<g id="a_Node000021"><a xlink:href="../../db/d20/structlci_1_1option__t.html" target="_top" xlink:title=" ">
<polygon fill="white" stroke="#666666" points="462,-26.67 345,-26.67 345,-7.67 462,-7.67 462,-26.67"/>
<text text-anchor="middle" x="403.5" y="-14.67" font-family="Helvetica,sans-Serif" font-size="10.00">lci::option_t&lt; bool &gt;</text>
</a>
</g>
</g>
<!-- Node21&#45;&gt;Node1 -->
<g id="edge20_Node000001_Node000021" class="edge">
<title>Node21&#45;&gt;Node1</title>
<g id="a_edge20_Node000001_Node000021"><a xlink:title=" ">
<path fill="none" stroke="#9a32cd" stroke-dasharray="5,2" d="M448.16,-5.56C486.91,1.93 542.83,5.46 579,-24.17 617.37,-55.6 634.8,-221.21 638.66,-263.39"/>
<polygon fill="#9a32cd" stroke="#9a32cd" points="447.29,-2.16 438.21,-7.64 448.72,-9.02 447.29,-2.16"/>
</a>
</g>
<text text-anchor="middle" x="536" y="-60.17" font-family="Helvetica,sans-Serif" font-size="10.00" fill="grey"> m_allow_done</text>
<text text-anchor="middle" x="536" y="-49.17" font-family="Helvetica,sans-Serif" font-size="10.00" fill="grey">m_allow_posted</text>
<text text-anchor="middle" x="536" y="-38.17" font-family="Helvetica,sans-Serif" font-size="10.00" fill="grey">m_allow_retry</text>
<text text-anchor="middle" x="536" y="-27.17" font-family="Helvetica,sans-Serif" font-size="10.00" fill="grey">m_force_zcopy</text>
</g>
</g>
</svg>
