<?xml version="1.0" encoding="UTF-8" standalone="no"?>
<!DOCTYPE svg PUBLIC "-//W3C//DTD SVG 1.1//EN"
 "http://www.w3.org/Graphics/SVG/1.1/DTD/svg11.dtd">
<!-- Generated by graphviz version 2.43.0 (0)
 -->
<!-- Title: lci::post_get_x Pages: 1 -->
<svg width="692pt" height="527pt"
 viewBox="0.00 0.00 692.00 526.85" xmlns="http://www.w3.org/2000/svg" xmlns:xlink="http://www.w3.org/1999/xlink">
<g id="graph0" class="graph" transform="scale(1 1) rotate(0) translate(4 522.85)">
<title>lci::post_get_x</title>
<!-- Node1 -->
<g id="Node000001" class="node">
<title>Node1</title>
<g id="a_Node000001"><a xlink:title="The actual implementation for post_get.">
<polygon fill="#999999" stroke="#666666" points="684,-260.35 597,-260.35 597,-241.35 684,-241.35 684,-260.35"/>
<text text-anchor="middle" x="640.5" y="-248.35" font-family="Helvetica,sans-Serif" font-size="10.00">lci::post_get_x</text>
</a>
</g>
</g>
<!-- Node2 -->
<g id="Node000002" class="node">
<title>Node2</title>
<g id="a_Node000002"><a xlink:href="../../d1/da7/classlci_1_1comp__t.html" target="_top" xlink:title="The actual implementation for RESOURCE comp.">
<polygon fill="white" stroke="#666666" points="438.5,-517.35 368.5,-517.35 368.5,-498.35 438.5,-498.35 438.5,-517.35"/>
<text text-anchor="middle" x="403.5" y="-505.35" font-family="Helvetica,sans-Serif" font-size="10.00">lci::comp_t</text>
</a>
</g>
</g>
<!-- Node2&#45;&gt;Node1 -->
<g id="edge1_Node000001_Node000002" class="edge">
<title>Node2&#45;&gt;Node1</title>
<g id="a_edge1_Node000001_Node000002"><a xlink:title=" ">
<path fill="none" stroke="#9a32cd" stroke-dasharray="5,2" d="M448.85,-510.2C488.06,-509.78 544.27,-502.72 579,-469.85 641.17,-411.02 641.41,-294.57 640.04,-260.46"/>
<polygon fill="#9a32cd" stroke="#9a32cd" points="448.78,-506.7 438.77,-510.16 448.76,-513.7 448.78,-506.7"/>
</a>
</g>
<text text-anchor="middle" x="536" y="-508.85" font-family="Helvetica,sans-Serif" font-size="10.00" fill="grey"> m_local_comp</text>
</g>
<!-- Node3 -->
<g id="Node000003" class="node">
<title>Node3</title>
<g id="a_Node000003"><a xlink:href="../../d9/d97/classlci_1_1comp__impl__t.html" target="_top" xlink:title="Completion object implementation base type.">
<polygon fill="white" stroke="#666666" points="248,-517.35 151,-517.35 151,-498.35 248,-498.35 248,-517.35"/>
<text text-anchor="middle" x="199.5" y="-505.35" font-family="Helvetica,sans-Serif" font-size="10.00">lci::comp_impl_t</text>
</a>
</g>
</g>
<!-- Node3&#45;&gt;Node2 -->
<g id="edge2_Node000002_Node000003" class="edge">
<title>Node3&#45;&gt;Node2</title>
<g id="a_edge2_Node000002_Node000003"><a xlink:title=" ">
<path fill="none" stroke="#9a32cd" stroke-dasharray="5,2" d="M258.38,-507.85C294,-507.85 338.43,-507.85 368.47,-507.85"/>
<polygon fill="#9a32cd" stroke="#9a32cd" points="258.12,-504.35 248.12,-507.85 258.12,-511.35 258.12,-504.35"/>
</a>
</g>
<text text-anchor="middle" x="291" y="-510.85" font-family="Helvetica,sans-Serif" font-size="10.00" fill="grey"> p_impl</text>
</g>
<!-- Node4 -->
<g id="Node000004" class="node">
<title>Node4</title>
<g id="a_Node000004"><a xlink:href="../../dc/da6/structlci_1_1comp__attr__t.html" target="_top" xlink:title=" ">
<polygon fill="white" stroke="#666666" points="92,-517.35 0,-517.35 0,-498.35 92,-498.35 92,-517.35"/>
<text text-anchor="middle" x="46" y="-505.35" font-family="Helvetica,sans-Serif" font-size="10.00">lci::comp_attr_t</text>
</a>
</g>
</g>
<!-- Node4&#45;&gt;Node3 -->
<g id="edge3_Node000003_Node000004" class="edge">
<title>Node4&#45;&gt;Node3</title>
<g id="a_edge3_Node000003_Node000004"><a xlink:title=" ">
<path fill="none" stroke="#9a32cd" stroke-dasharray="5,2" d="M102.31,-507.85C118.28,-507.85 135.55,-507.85 151,-507.85"/>
<polygon fill="#9a32cd" stroke="#9a32cd" points="102.04,-504.35 92.04,-507.85 102.04,-511.35 102.04,-504.35"/>
</a>
</g>
<text text-anchor="middle" x="120.5" y="-510.85" font-family="Helvetica,sans-Serif" font-size="10.00" fill="grey"> attr</text>
</g>
<!-- Node5 -->
<g id="Node000005" class="node">
<title>Node5</title>
<g id="a_Node000005"><a xlink:href="../../db/d20/structlci_1_1option__t.html" target="_top" xlink:title=" ">
<polygon fill="white" stroke="#666666" points="451.5,-479.85 355.5,-479.85 355.5,-449.85 451.5,-449.85 451.5,-479.85"/>
<text text-anchor="start" x="363.5" y="-467.85" font-family="Helvetica,sans-Serif" font-size="10.00">lci::option_t&lt; lci</text>
<text text-anchor="middle" x="403.5" y="-456.85" font-family="Helvetica,sans-Serif" font-size="10.00">::runtime_t &gt;</text>
</a>
</g>
</g>
<!-- Node5&#45;&gt;Node1 -->
<g id="edge4_Node000001_Node000005" class="edge">
<title>Node5&#45;&gt;Node1</title>
<g id="a_edge4_Node000001_Node000005"><a xlink:title=" ">
<path fill="none" stroke="#9a32cd" stroke-dasharray="5,2" d="M461.95,-463.46C499.51,-459.62 547.31,-448.77 579,-419.85 627.57,-375.53 637.18,-289.46 639.05,-260.58"/>
<polygon fill="#9a32cd" stroke="#9a32cd" points="461.3,-460 451.65,-464.37 461.92,-466.98 461.3,-460"/>
</a>
</g>
<text text-anchor="middle" x="536" y="-460.85" font-family="Helvetica,sans-Serif" font-size="10.00" fill="grey"> m_runtime</text>
</g>
<!-- Node6 -->
<g id="Node000006" class="node">
<title>Node6</title>
<g id="a_Node000006"><a xlink:href="../../dc/d5c/classlci_1_1runtime__t.html" target="_top" xlink:title="The actual implementation for RESOURCE runtime.">
<polygon fill="white" stroke="#666666" points="240,-474.35 159,-474.35 159,-455.35 240,-455.35 240,-474.35"/>
<text text-anchor="middle" x="199.5" y="-462.35" font-family="Helvetica,sans-Serif" font-size="10.00">lci::runtime_t</text>
</a>
</g>
</g>
<!-- Node6&#45;&gt;Node5 -->
<g id="edge5_Node000005_Node000006" class="edge">
<title>Node6&#45;&gt;Node5</title>
<g id="a_edge5_Node000005_Node000006"><a xlink:title=" ">
<path fill="none" stroke="#9a32cd" stroke-dasharray="5,2" d="M250.45,-464.85C282.46,-464.85 323.75,-464.85 355.22,-464.85"/>
<polygon fill="#9a32cd" stroke="#9a32cd" points="250.41,-461.35 240.41,-464.85 250.41,-468.35 250.41,-461.35"/>
</a>
</g>
<text text-anchor="middle" x="291" y="-467.85" font-family="Helvetica,sans-Serif" font-size="10.00" fill="grey"> m_value</text>
</g>
<!-- Node7 -->
<g id="Node000007" class="node">
<title>Node7</title>
<g id="a_Node000007"><a xlink:href="../../db/d20/structlci_1_1option__t.html" target="_top" xlink:title=" ">
<polygon fill="white" stroke="#666666" points="454,-431.85 353,-431.85 353,-401.85 454,-401.85 454,-431.85"/>
<text text-anchor="start" x="361" y="-419.85" font-family="Helvetica,sans-Serif" font-size="10.00">lci::option_t&lt; lci</text>
<text text-anchor="middle" x="403.5" y="-408.85" font-family="Helvetica,sans-Serif" font-size="10.00">::packet_pool_t &gt;</text>
</a>
</g>
</g>
<!-- Node7&#45;&gt;Node1 -->
<g id="edge6_Node000001_Node000007" class="edge">
<title>Node7&#45;&gt;Node1</title>
<g id="a_edge6_Node000001_Node000007"><a xlink:title=" ">
<path fill="none" stroke="#9a32cd" stroke-dasharray="5,2" d="M464.16,-411.67C500.7,-405.82 546.53,-393.36 579,-366.85 614.37,-337.99 631.49,-282.94 637.22,-260.62"/>
<polygon fill="#9a32cd" stroke="#9a32cd" points="463.5,-408.23 454.11,-413.15 464.52,-415.16 463.5,-408.23"/>
</a>
</g>
<text text-anchor="middle" x="536" y="-407.85" font-family="Helvetica,sans-Serif" font-size="10.00" fill="grey"> m_packet_pool</text>
</g>
<!-- Node8 -->
<g id="Node000008" class="node">
<title>Node8</title>
<g id="a_Node000008"><a xlink:href="../../db/dec/classlci_1_1packet__pool__t.html" target="_top" xlink:title="The actual implementation for RESOURCE packet_pool.">
<polygon fill="white" stroke="#666666" points="250,-426.35 149,-426.35 149,-407.35 250,-407.35 250,-426.35"/>
<text text-anchor="middle" x="199.5" y="-414.35" font-family="Helvetica,sans-Serif" font-size="10.00">lci::packet_pool_t</text>
</a>
</g>
</g>
<!-- Node8&#45;&gt;Node7 -->
<g id="edge7_Node000007_Node000008" class="edge">
<title>Node8&#45;&gt;Node7</title>
<g id="a_edge7_Node000007_Node000008"><a xlink:title=" ">
<path fill="none" stroke="#9a32cd" stroke-dasharray="5,2" d="M260.32,-416.85C289.72,-416.85 324.74,-416.85 352.67,-416.85"/>
<polygon fill="#9a32cd" stroke="#9a32cd" points="260.17,-413.35 250.17,-416.85 260.17,-420.35 260.17,-413.35"/>
</a>
</g>
<text text-anchor="middle" x="291" y="-419.85" font-family="Helvetica,sans-Serif" font-size="10.00" fill="grey"> m_value</text>
</g>
<!-- Node9 -->
<g id="Node000009" class="node">
<title>Node9</title>
<g id="a_Node000009"><a xlink:href="../../db/d20/structlci_1_1option__t.html" target="_top" xlink:title=" ">
<polygon fill="white" stroke="#666666" points="451.5,-383.85 355.5,-383.85 355.5,-353.85 451.5,-353.85 451.5,-383.85"/>
<text text-anchor="start" x="363.5" y="-371.85" font-family="Helvetica,sans-Serif" font-size="10.00">lci::option_t&lt; lci</text>
<text text-anchor="middle" x="403.5" y="-360.85" font-family="Helvetica,sans-Serif" font-size="10.00">::device_t &gt;</text>
</a>
</g>
</g>
<!-- Node9&#45;&gt;Node1 -->
<g id="edge8_Node000001_Node000009" class="edge">
<title>Node9&#45;&gt;Node1</title>
<g id="a_edge8_Node000001_Node000009"><a xlink:title=" ">
<path fill="none" stroke="#9a32cd" stroke-dasharray="5,2" d="M462.11,-360.28C497.81,-353.04 543.47,-340.14 579,-317.85 603.16,-302.69 623.55,-275.23 633.31,-260.61"/>
<polygon fill="#9a32cd" stroke="#9a32cd" points="461,-356.93 451.85,-362.26 462.33,-363.8 461,-356.93"/>
</a>
</g>
<text text-anchor="middle" x="536" y="-354.85" font-family="Helvetica,sans-Serif" font-size="10.00" fill="grey"> m_device</text>
</g>
<!-- Node10 -->
<g id="Node000010" class="node">
<title>Node10</title>
<g id="a_Node000010"><a xlink:href="../../d6/d66/classlci_1_1device__t.html" target="_top" xlink:title="The actual implementation for RESOURCE device.">
<polygon fill="white" stroke="#666666" points="237,-378.35 162,-378.35 162,-359.35 237,-359.35 237,-378.35"/>
<text text-anchor="middle" x="199.5" y="-366.35" font-family="Helvetica,sans-Serif" font-size="10.00">lci::device_t</text>
</a>
</g>
</g>
<!-- Node10&#45;&gt;Node9 -->
<g id="edge9_Node000009_Node000010" class="edge">
<title>Node10&#45;&gt;Node9</title>
<g id="a_edge9_Node000009_Node000010"><a xlink:title=" ">
<path fill="none" stroke="#9a32cd" stroke-dasharray="5,2" d="M247.2,-368.85C279.6,-368.85 322.6,-368.85 355.14,-368.85"/>
<polygon fill="#9a32cd" stroke="#9a32cd" points="247.08,-365.35 237.08,-368.85 247.08,-372.35 247.08,-365.35"/>
</a>
</g>
<text text-anchor="middle" x="291" y="-371.85" font-family="Helvetica,sans-Serif" font-size="10.00" fill="grey"> m_value</text>
</g>
<!-- Node11 -->
<g id="Node000011" class="node">
<title>Node11</title>
<g id="a_Node000011"><a xlink:href="../../db/d20/structlci_1_1option__t.html" target="_top" xlink:title=" ">
<polygon fill="white" stroke="#666666" points="451.5,-335.85 355.5,-335.85 355.5,-305.85 451.5,-305.85 451.5,-335.85"/>
<text text-anchor="start" x="363.5" y="-323.85" font-family="Helvetica,sans-Serif" font-size="10.00">lci::option_t&lt; lci</text>
<text text-anchor="middle" x="403.5" y="-312.85" font-family="Helvetica,sans-Serif" font-size="10.00">::endpoint_t &gt;</text>
</a>
</g>
</g>
<!-- Node11&#45;&gt;Node1 -->
<g id="edge10_Node000001_Node000011" class="edge">
<title>Node11&#45;&gt;Node1</title>
<g id="a_edge10_Node000001_Node000011"><a xlink:title=" ">
<path fill="none" stroke="#9a32cd" stroke-dasharray="5,2" d="M461.42,-310.12C495.92,-302.89 540.56,-292.23 579,-278.85 593.65,-273.76 609.54,-266.32 621.36,-260.4"/>
<polygon fill="#9a32cd" stroke="#9a32cd" points="460.6,-306.72 451.51,-312.16 462.01,-313.57 460.6,-306.72"/>
</a>
</g>
<text text-anchor="middle" x="536" y="-305.85" font-family="Helvetica,sans-Serif" font-size="10.00" fill="grey"> m_endpoint</text>
</g>
<!-- Node12 -->
<g id="Node000012" class="node">
<title>Node12</title>
<g id="a_Node000012"><a xlink:href="../../de/d1b/classlci_1_1endpoint__t.html" target="_top" xlink:title="The actual implementation for RESOURCE endpoint.">
<polygon fill="white" stroke="#666666" points="242.5,-330.35 156.5,-330.35 156.5,-311.35 242.5,-311.35 242.5,-330.35"/>
<text text-anchor="middle" x="199.5" y="-318.35" font-family="Helvetica,sans-Serif" font-size="10.00">lci::endpoint_t</text>
</a>
</g>
</g>
<!-- Node12&#45;&gt;Node11 -->
<g id="edge11_Node000011_Node000012" class="edge">
<title>Node12&#45;&gt;Node11</title>
<g id="a_edge11_Node000011_Node000012"><a xlink:title=" ">
<path fill="none" stroke="#9a32cd" stroke-dasharray="5,2" d="M253.22,-320.85C284.83,-320.85 324.69,-320.85 355.26,-320.85"/>
<polygon fill="#9a32cd" stroke="#9a32cd" points="252.85,-317.35 242.85,-320.85 252.85,-324.35 252.85,-317.35"/>
</a>
</g>
<text text-anchor="middle" x="291" y="-323.85" font-family="Helvetica,sans-Serif" font-size="10.00" fill="grey"> m_value</text>
</g>
<!-- Node13 -->
<g id="Node000013" class="node">
<title>Node13</title>
<g id="a_Node000013"><a xlink:href="../../db/d20/structlci_1_1option__t.html" target="_top" xlink:title=" ">
<polygon fill="white" stroke="#666666" points="451.5,-287.85 355.5,-287.85 355.5,-257.85 451.5,-257.85 451.5,-287.85"/>
<text text-anchor="start" x="363.5" y="-275.85" font-family="Helvetica,sans-Serif" font-size="10.00">lci::option_t&lt; lci</text>
<text text-anchor="middle" x="403.5" y="-264.85" font-family="Helvetica,sans-Serif" font-size="10.00">::mr_t &gt;</text>
</a>
</g>
</g>
<!-- Node13&#45;&gt;Node1 -->
<g id="edge12_Node000001_Node000013" class="edge">
<title>Node13&#45;&gt;Node1</title>
<g id="a_edge12_Node000001_Node000013"><a xlink:title=" ">
<path fill="none" stroke="#9a32cd" stroke-dasharray="5,2" d="M461.77,-267.49C503.39,-263.6 558.83,-258.41 596.65,-254.87"/>
<polygon fill="#9a32cd" stroke="#9a32cd" points="461.4,-264.01 451.77,-268.43 462.06,-270.98 461.4,-264.01"/>
</a>
</g>
<text text-anchor="middle" x="536" y="-266.85" font-family="Helvetica,sans-Serif" font-size="10.00" fill="grey"> m_mr</text>
</g>
<!-- Node14 -->
<g id="Node000014" class="node">
<title>Node14</title>
<g id="a_Node000014"><a xlink:href="../../d7/d1a/classlci_1_1mr__t.html" target="_top" xlink:title="The actual implementation for RESOURCE mr.">
<polygon fill="white" stroke="#666666" points="227.5,-282.35 171.5,-282.35 171.5,-263.35 227.5,-263.35 227.5,-282.35"/>
<text text-anchor="middle" x="199.5" y="-270.35" font-family="Helvetica,sans-Serif" font-size="10.00">lci::mr_t</text>
</a>
</g>
</g>
<!-- Node14&#45;&gt;Node13 -->
<g id="edge13_Node000013_Node000014" class="edge">
<title>Node14&#45;&gt;Node13</title>
<g id="a_edge13_Node000013_Node000014"><a xlink:title=" ">
<path fill="none" stroke="#9a32cd" stroke-dasharray="5,2" d="M237.91,-272.85C271.01,-272.85 319.46,-272.85 355.23,-272.85"/>
<polygon fill="#9a32cd" stroke="#9a32cd" points="237.74,-269.35 227.74,-272.85 237.74,-276.35 237.74,-269.35"/>
</a>
</g>
<text text-anchor="middle" x="291" y="-275.85" font-family="Helvetica,sans-Serif" font-size="10.00" fill="grey"> m_value</text>
</g>
<!-- Node15 -->
<g id="Node000015" class="node">
<title>Node15</title>
<g id="a_Node000015"><a xlink:href="../../db/d20/structlci_1_1option__t.html" target="_top" xlink:title=" ">
<polygon fill="white" stroke="#666666" points="464,-239.35 343,-239.35 343,-220.35 464,-220.35 464,-239.35"/>
<text text-anchor="middle" x="403.5" y="-227.35" font-family="Helvetica,sans-Serif" font-size="10.00">lci::option_t&lt; tag_t &gt;</text>
</a>
</g>
</g>
<!-- Node15&#45;&gt;Node1 -->
<g id="edge14_Node000001_Node000015" class="edge">
<title>Node15&#45;&gt;Node1</title>
<g id="a_edge14_Node000001_Node000015"><a xlink:title=" ">
<path fill="none" stroke="#9a32cd" stroke-dasharray="5,2" d="M474.29,-228.93C506.33,-229.36 544.73,-231.07 579,-235.85 588,-237.11 597.61,-239.16 606.46,-241.34"/>
<polygon fill="#9a32cd" stroke="#9a32cd" points="474.16,-225.43 464.13,-228.84 474.1,-232.43 474.16,-225.43"/>
</a>
</g>
<text text-anchor="middle" x="536" y="-238.85" font-family="Helvetica,sans-Serif" font-size="10.00" fill="grey"> m_tag</text>
</g>
<!-- Node16 -->
<g id="Node000016" class="node">
<title>Node16</title>
<g id="a_Node000016"><a xlink:href="../../db/d20/structlci_1_1option__t.html" target="_top" xlink:title=" ">
<polygon fill="white" stroke="#666666" points="471.5,-202.35 335.5,-202.35 335.5,-183.35 471.5,-183.35 471.5,-202.35"/>
<text text-anchor="middle" x="403.5" y="-190.35" font-family="Helvetica,sans-Serif" font-size="10.00">lci::option_t&lt; rcomp_t &gt;</text>
</a>
</g>
</g>
<!-- Node16&#45;&gt;Node1 -->
<g id="edge15_Node000001_Node000016" class="edge">
<title>Node16&#45;&gt;Node1</title>
<g id="a_edge15_Node000001_Node000016"><a xlink:title=" ">
<path fill="none" stroke="#9a32cd" stroke-dasharray="5,2" d="M482.15,-195.07C512.97,-197.77 548.31,-203.19 579,-213.85 597.14,-220.16 615.64,-232.52 627.32,-241.21"/>
<polygon fill="#9a32cd" stroke="#9a32cd" points="482.13,-191.55 471.88,-194.25 481.58,-198.53 482.13,-191.55"/>
</a>
</g>
<text text-anchor="middle" x="536" y="-216.85" font-family="Helvetica,sans-Serif" font-size="10.00" fill="grey"> m_remote_comp</text>
</g>
<!-- Node17 -->
<g id="Node000017" class="node">
<title>Node17</title>
<g id="a_Node000017"><a xlink:href="../../db/d20/structlci_1_1option__t.html" target="_top" xlink:title=" ">
<polygon fill="white" stroke="#666666" points="466,-165.35 341,-165.35 341,-146.35 466,-146.35 466,-165.35"/>
<text text-anchor="middle" x="403.5" y="-153.35" font-family="Helvetica,sans-Serif" font-size="10.00">lci::option_t&lt; void * &gt;</text>
</a>
</g>
</g>
<!-- Node17&#45;&gt;Node1 -->
<g id="edge16_Node000001_Node000017" class="edge">
<title>Node17&#45;&gt;Node1</title>
<g id="a_edge16_Node000001_Node000017"><a xlink:title=" ">
<path fill="none" stroke="#9a32cd" stroke-dasharray="5,2" d="M476.42,-154.86C509.4,-157.15 547.97,-163.89 579,-180.85 605.22,-195.18 625.27,-225.64 634.28,-241.23"/>
<polygon fill="#9a32cd" stroke="#9a32cd" points="476.56,-151.36 466.38,-154.28 476.16,-158.35 476.56,-151.36"/>
</a>
</g>
<text text-anchor="middle" x="536" y="-183.85" font-family="Helvetica,sans-Serif" font-size="10.00" fill="grey"> m_user_context</text>
</g>
<!-- Node18 -->
<g id="Node000018" class="node">
<title>Node18</title>
<g id="a_Node000018"><a xlink:href="../../db/d20/structlci_1_1option__t.html" target="_top" xlink:title=" ">
<polygon fill="white" stroke="#666666" points="473,-128.35 334,-128.35 334,-109.35 473,-109.35 473,-128.35"/>
<text text-anchor="middle" x="403.5" y="-116.35" font-family="Helvetica,sans-Serif" font-size="10.00">lci::option_t&lt; buffers_t &gt;</text>
</a>
</g>
</g>
<!-- Node18&#45;&gt;Node1 -->
<g id="edge17_Node000001_Node000018" class="edge">
<title>Node18&#45;&gt;Node1</title>
<g id="a_edge17_Node000001_Node000018"><a xlink:title=" ">
<path fill="none" stroke="#9a32cd" stroke-dasharray="5,2" d="M483.64,-113.78C515.63,-115.36 551.42,-122.12 579,-140.85 615.24,-165.47 631.87,-219.24 637.34,-241.21"/>
<polygon fill="#9a32cd" stroke="#9a32cd" points="483.51,-110.27 473.4,-113.44 483.28,-117.27 483.51,-110.27"/>
</a>
</g>
<text text-anchor="middle" x="536" y="-143.85" font-family="Helvetica,sans-Serif" font-size="10.00" fill="grey"> m_buffers</text>
</g>
<!-- Node19 -->
<g id="Node000019" class="node">
<title>Node19</title>
<g id="a_Node000019"><a xlink:href="../../db/d20/structlci_1_1option__t.html" target="_top" xlink:title=" ">
<polygon fill="white" stroke="#666666" points="475,-91.35 332,-91.35 332,-72.35 475,-72.35 475,-91.35"/>
<text text-anchor="middle" x="403.5" y="-79.35" font-family="Helvetica,sans-Serif" font-size="10.00">lci::option_t&lt; rbuffers_t &gt;</text>
</a>
</g>
</g>
<!-- Node19&#45;&gt;Node1 -->
<g id="edge18_Node000001_Node000019" class="edge">
<title>Node19&#45;&gt;Node1</title>
<g id="a_edge18_Node000001_Node000019"><a xlink:title=" ">
<path fill="none" stroke="#9a32cd" stroke-dasharray="5,2" d="M485.44,-72.52C517.38,-72.96 552.65,-79.05 579,-98.85 626.45,-134.52 636.75,-213.26 638.93,-240.97"/>
<polygon fill="#9a32cd" stroke="#9a32cd" points="485.18,-69.02 475.2,-72.57 485.21,-76.02 485.18,-69.02"/>
</a>
</g>
<text text-anchor="middle" x="536" y="-101.85" font-family="Helvetica,sans-Serif" font-size="10.00" fill="grey"> m_rbuffers</text>
</g>
<!-- Node20 -->
<g id="Node000020" class="node">
<title>Node20</title>
<g id="a_Node000020"><a xlink:href="../../db/d20/structlci_1_1option__t.html" target="_top" xlink:title=" ">
<polygon fill="white" stroke="#666666" points="462,-26.35 345,-26.35 345,-7.35 462,-7.35 462,-26.35"/>
<text text-anchor="middle" x="403.5" y="-14.35" font-family="Helvetica,sans-Serif" font-size="10.00">lci::option_t&lt; bool &gt;</text>
</a>
</g>
</g>
<!-- Node20&#45;&gt;Node1 -->
<g id="edge19_Node000001_Node000020" class="edge">
<title>Node20&#45;&gt;Node1</title>
<g id="a_edge19_Node000001_Node000020"><a xlink:title=" ">
<path fill="none" stroke="#9a32cd" stroke-dasharray="5,2" d="M448.7,-5.3C487.31,1.97 542.72,5.2 579,-23.85 614.26,-52.09 633.8,-201.4 638.42,-241.14"/>
<polygon fill="#9a32cd" stroke="#9a32cd" points="447.88,-1.9 438.78,-7.33 449.27,-8.76 447.88,-1.9"/>
</a>
</g>
<text text-anchor="middle" x="536" y="-59.85" font-family="Helvetica,sans-Serif" font-size="10.00" fill="grey"> m_allow_done</text>
<text text-anchor="middle" x="536" y="-48.85" font-family="Helvetica,sans-Serif" font-size="10.00" fill="grey">m_allow_posted</text>
<text text-anchor="middle" x="536" y="-37.85" font-family="Helvetica,sans-Serif" font-size="10.00" fill="grey">m_allow_retry</text>
<text text-anchor="middle" x="536" y="-26.85" font-family="Helvetica,sans-Serif" font-size="10.00" fill="grey">m_force_zcopy</text>
</g>
</g>
</svg>
