<?xml version="1.0" encoding="UTF-8" standalone="no"?>
<!DOCTYPE svg PUBLIC "-//W3C//DTD SVG 1.1//EN"
 "http://www.w3.org/Graphics/SVG/1.1/DTD/svg11.dtd">
<!-- Generated by graphviz version 2.43.0 (0)
 -->
<!-- Title: lci::reserve_rcomps_x::runtime Pages: 1 -->
<svg width="564pt" height="81pt"
 viewBox="0.00 0.00 564.00 81.00" xmlns="http://www.w3.org/2000/svg" xmlns:xlink="http://www.w3.org/1999/xlink">
<g id="graph0" class="graph" transform="scale(1 1) rotate(0) translate(4 77)">
<title>lci::reserve_rcomps_x::runtime</title>
<!-- Node1 -->
<g id="Node000001" class="node">
<title>Node1</title>
<g id="a_Node000001"><a xlink:title=" ">
<polygon fill="#999999" stroke="#666666" points="556,-51 444,-51 444,-21 556,-21 556,-51"/>
<text text-anchor="start" x="452" y="-39" font-family="Helvetica,sans-Serif" font-size="10.00">lci::reserve_rcomps</text>
<text text-anchor="middle" x="500" y="-28" font-family="Helvetica,sans-Serif" font-size="10.00">_x::runtime</text>
</a>
</g>
</g>
<!-- Node2 -->
<g id="Node000002" class="node">
<title>Node2</title>
<g id="a_Node000002"><a xlink:href="../../d3/d2f/classlci_1_1reserve__rcomps__x.html#a792fe5a61e25bf25165247c567d77de9" target="_top" xlink:title=" ">
<polygon fill="white" stroke="#666666" points="260,-51 148,-51 148,-21 260,-21 260,-51"/>
<text text-anchor="start" x="156" y="-39" font-family="Helvetica,sans-Serif" font-size="10.00">lci::reserve_rcomps</text>
<text text-anchor="middle" x="204" y="-28" font-family="Helvetica,sans-Serif" font-size="10.00">_x::call</text>
</a>
</g>
</g>
<!-- Node1&#45;&gt;Node2 -->
<g id="edge1_Node000001_Node000002" class="edge">
<title>Node1&#45;&gt;Node2</title>
<g id="a_edge1_Node000001_Node000002"><a xlink:title=" ">
<path fill="none" stroke="#63b8ff" d="M433.63,-38.41C425.01,-38.66 416.29,-38.86 408,-39 358.23,-39.82 345.77,-39.82 296,-39 284.46,-38.81 272.11,-38.48 260.33,-38.12"/>
<polygon fill="#63b8ff" stroke="#63b8ff" points="433.77,-41.91 443.67,-38.12 433.57,-34.91 433.77,-41.91"/>
</a>
</g>
</g>
<!-- Node5 -->
<g id="Node000005" class="node">
<title>Node5</title>
<g id="a_Node000005"><a xlink:href="../../d3/d2f/classlci_1_1reserve__rcomps__x.html#a2329e68ecc85f86b96ba00aa8d6e5a27" target="_top" xlink:title=" ">
<polygon fill="white" stroke="#666666" points="408,-30 296,-30 296,0 408,0 408,-30"/>
<text text-anchor="start" x="304" y="-18" font-family="Helvetica,sans-Serif" font-size="10.00">lci::reserve_rcomps</text>
<text text-anchor="middle" x="352" y="-7" font-family="Helvetica,sans-Serif" font-size="10.00">_x::call_impl</text>
</a>
</g>
</g>
<!-- Node1&#45;&gt;Node5 -->
<g id="edge4_Node000001_Node000005" class="edge">
<title>Node1&#45;&gt;Node5</title>
<g id="a_edge4_Node000001_Node000005"><a xlink:title=" ">
<path fill="none" stroke="#63b8ff" d="M433.87,-26.63C425.32,-25.4 416.63,-24.15 408.27,-22.95"/>
<polygon fill="#63b8ff" stroke="#63b8ff" points="433.41,-30.1 443.8,-28.06 434.4,-23.17 433.41,-30.1"/>
</a>
</g>
</g>
<!-- Node3 -->
<g id="Node000003" class="node">
<title>Node3</title>
<g id="a_Node000003"><a xlink:href="../../d3/d2f/classlci_1_1reserve__rcomps__x.html#ac146cebb26416af2df99936957261eef" target="_top" xlink:title=" ">
<polygon fill="white" stroke="#666666" points="112,-73 0,-73 0,-43 112,-43 112,-73"/>
<text text-anchor="start" x="8" y="-61" font-family="Helvetica,sans-Serif" font-size="10.00">lci::reserve_rcomps</text>
<text text-anchor="middle" x="56" y="-50" font-family="Helvetica,sans-Serif" font-size="10.00">_x::operator()</text>
</a>
</g>
</g>
<!-- Node2&#45;&gt;Node3 -->
<g id="edge2_Node000002_Node000003" class="edge">
<title>Node2&#45;&gt;Node3</title>
<g id="a_edge2_Node000002_Node000003"><a xlink:title=" ">
<path fill="none" stroke="#63b8ff" d="M137.87,-45.81C129.32,-47.1 120.63,-48.41 112.27,-49.67"/>
<polygon fill="#63b8ff" stroke="#63b8ff" points="138.44,-49.27 147.8,-44.32 137.39,-42.35 138.44,-49.27"/>
</a>
</g>
</g>
<!-- Node4 -->
<g id="Node000004" class="node">
<title>Node4</title>
<g id="a_Node000004"><a xlink:href="../../d5/dd3/namespacelci.html#a3b6f338db22917b3d945e9ee7c936997" target="_top" xlink:title=" ">
<polygon fill="white" stroke="#666666" points="112,-24.5 0,-24.5 0,-5.5 112,-5.5 112,-24.5"/>
<text text-anchor="middle" x="56" y="-12.5" font-family="Helvetica,sans-Serif" font-size="10.00">lci::reserve_rcomps</text>
</a>
</g>
</g>
<!-- Node2&#45;&gt;Node4 -->
<g id="edge3_Node000002_Node000004" class="edge">
<title>Node2&#45;&gt;Node4</title>
<g id="a_edge3_Node000002_Node000004"><a xlink:title=" ">
<path fill="none" stroke="#63b8ff" d="M137.87,-26.63C129.32,-25.4 120.63,-24.15 112.27,-22.95"/>
<polygon fill="#63b8ff" stroke="#63b8ff" points="137.41,-30.1 147.8,-28.06 138.4,-23.17 137.41,-30.1"/>
</a>
</g>
</g>
<!-- Node5&#45;&gt;Node2 -->
<g id="edge5_Node000005_Node000002" class="edge">
<title>Node5&#45;&gt;Node2</title>
<g id="a_edge5_Node000005_Node000002"><a xlink:title=" ">
<path fill="none" stroke="#63b8ff" d="M285.87,-24.37C277.32,-25.6 268.63,-26.85 260.27,-28.05"/>
<polygon fill="#63b8ff" stroke="#63b8ff" points="286.4,-27.83 295.8,-22.94 285.41,-20.9 286.4,-27.83"/>
</a>
</g>
</g>
</g>
</svg>
