<?xml version="1.0" encoding="UTF-8" standalone="no"?>
<!DOCTYPE svg PUBLIC "-//W3C//DTD SVG 1.1//EN"
 "http://www.w3.org/Graphics/SVG/1.1/DTD/svg11.dtd">
<!-- Generated by graphviz version 2.43.0 (0)
 -->
<!-- Title: lci::reserve_rcomps_x::call Pages: 1 -->
<svg width="598pt" height="76pt"
 viewBox="0.00 0.00 598.00 75.50" xmlns="http://www.w3.org/2000/svg" xmlns:xlink="http://www.w3.org/1999/xlink">
<g id="graph0" class="graph" transform="scale(1 1) rotate(0) translate(4 71.5)">
<title>lci::reserve_rcomps_x::call</title>
<!-- Node1 -->
<g id="Node000001" class="node">
<title>Node1</title>
<g id="a_Node000001"><a xlink:title=" ">
<polygon fill="#999999" stroke="#666666" points="112,-52 0,-52 0,-22 112,-22 112,-52"/>
<text text-anchor="start" x="8" y="-40" font-family="Helvetica,sans-Serif" font-size="10.00">lci::reserve_rcomps</text>
<text text-anchor="middle" x="56" y="-29" font-family="Helvetica,sans-Serif" font-size="10.00">_x::call</text>
</a>
</g>
</g>
<!-- Node2 -->
<g id="Node000002" class="node">
<title>Node2</title>
<g id="a_Node000002"><a xlink:href="../../d3/d2f/classlci_1_1reserve__rcomps__x.html#a2329e68ecc85f86b96ba00aa8d6e5a27" target="_top" xlink:title=" ">
<polygon fill="white" stroke="#666666" points="260,-52 148,-52 148,-22 260,-22 260,-52"/>
<text text-anchor="start" x="156" y="-40" font-family="Helvetica,sans-Serif" font-size="10.00">lci::reserve_rcomps</text>
<text text-anchor="middle" x="204" y="-29" font-family="Helvetica,sans-Serif" font-size="10.00">_x::call_impl</text>
</a>
</g>
</g>
<!-- Node1&#45;&gt;Node2 -->
<g id="edge1_Node000001_Node000002" class="edge">
<title>Node1&#45;&gt;Node2</title>
<g id="a_edge1_Node000001_Node000002"><a xlink:title=" ">
<path fill="none" stroke="#63b8ff" d="M112.2,-37C120.46,-37 129.05,-37 137.51,-37"/>
<polygon fill="#63b8ff" stroke="#63b8ff" points="137.73,-40.5 147.73,-37 137.73,-33.5 137.73,-40.5"/>
</a>
</g>
</g>
<!-- Node3 -->
<g id="Node000003" class="node">
<title>Node3</title>
<g id="a_Node000003"><a xlink:href="../../d3/d2f/classlci_1_1reserve__rcomps__x.html#ac7aa8c2196bf5873db1369fe3c6ed619" target="_top" xlink:title=" ">
<polygon fill="white" stroke="#666666" points="431,-67.5 296,-67.5 296,-48.5 431,-48.5 431,-67.5"/>
<text text-anchor="middle" x="363.5" y="-55.5" font-family="Helvetica,sans-Serif" font-size="10.00">lci::reserve_rcomps_x::n</text>
</a>
</g>
</g>
<!-- Node1&#45;&gt;Node3 -->
<g id="edge6_Node000001_Node000003" class="edge">
<title>Node1&#45;&gt;Node3</title>
<g id="a_edge6_Node000001_Node000003"><a xlink:title=" ">
<path fill="none" stroke="#63b8ff" d="M104.71,-52.05C118.53,-55.74 133.74,-59.15 148,-61 193.28,-66.87 244.4,-66.43 285.36,-64.38"/>
<polygon fill="#63b8ff" stroke="#63b8ff" points="285.76,-67.86 295.55,-63.82 285.38,-60.87 285.76,-67.86"/>
</a>
</g>
</g>
<!-- Node5 -->
<g id="Node000005" class="node">
<title>Node5</title>
<g id="a_Node000005"><a xlink:href="../../d3/d2f/classlci_1_1reserve__rcomps__x.html#a5039c14fca8fe36fb15a56b748e1b18c" target="_top" xlink:title=" ">
<polygon fill="white" stroke="#666666" points="419.5,-30 307.5,-30 307.5,0 419.5,0 419.5,-30"/>
<text text-anchor="start" x="315.5" y="-18" font-family="Helvetica,sans-Serif" font-size="10.00">lci::reserve_rcomps</text>
<text text-anchor="middle" x="363.5" y="-7" font-family="Helvetica,sans-Serif" font-size="10.00">_x::runtime</text>
</a>
</g>
</g>
<!-- Node1&#45;&gt;Node5 -->
<g id="edge7_Node000001_Node000005" class="edge">
<title>Node1&#45;&gt;Node5</title>
<g id="a_edge7_Node000001_Node000005"><a xlink:title=" ">
<path fill="none" stroke="#63b8ff" d="M104.71,-21.95C118.53,-18.26 133.74,-14.85 148,-13 197.64,-6.56 254.29,-7.44 296.9,-9.72"/>
<polygon fill="#63b8ff" stroke="#63b8ff" points="296.96,-13.23 307.14,-10.31 297.36,-6.24 296.96,-13.23"/>
</a>
</g>
</g>
<!-- Node2&#45;&gt;Node3 -->
<g id="edge2_Node000002_Node000003" class="edge">
<title>Node2&#45;&gt;Node3</title>
<g id="a_edge2_Node000002_Node000003"><a xlink:title=" ">
<path fill="none" stroke="#63b8ff" d="M260.09,-44.34C268.37,-45.45 277.05,-46.61 285.69,-47.76"/>
<polygon fill="#63b8ff" stroke="#63b8ff" points="285.42,-51.25 295.8,-49.11 286.35,-44.32 285.42,-51.25"/>
</a>
</g>
</g>
<!-- Node2&#45;&gt;Node5 -->
<g id="edge4_Node000002_Node000005" class="edge">
<title>Node2&#45;&gt;Node5</title>
<g id="a_edge4_Node000002_Node000005"><a xlink:title=" ">
<path fill="none" stroke="#63b8ff" d="M260.09,-29.31C272.08,-27.63 284.87,-25.84 297.21,-24.12"/>
<polygon fill="#63b8ff" stroke="#63b8ff" points="298.03,-27.54 307.45,-22.69 297.06,-20.61 298.03,-27.54"/>
</a>
</g>
</g>
<!-- Node4 -->
<g id="Node000004" class="node">
<title>Node4</title>
<g id="a_Node000004"><a xlink:href="../../d3/d2f/classlci_1_1reserve__rcomps__x.html#aa7e2339e559fdaccacec41e1d7ded434" target="_top" xlink:title=" ">
<polygon fill="white" stroke="#666666" points="590,-51 467,-51 467,-21 590,-21 590,-51"/>
<text text-anchor="start" x="475" y="-39" font-family="Helvetica,sans-Serif" font-size="10.00">lci::reserve_rcomps</text>
<text text-anchor="middle" x="528.5" y="-28" font-family="Helvetica,sans-Serif" font-size="10.00">_x::reserve_rcomps_x</text>
</a>
</g>
</g>
<!-- Node3&#45;&gt;Node4 -->
<g id="edge3_Node000003_Node000004" class="edge">
<title>Node3&#45;&gt;Node4</title>
<g id="a_edge3_Node000003_Node000004"><a xlink:title=" ">
<path fill="none" stroke="#63b8ff" d="M431.27,-48.99C439.64,-47.86 448.23,-46.7 456.67,-45.56"/>
<polygon fill="#63b8ff" stroke="#63b8ff" points="457.42,-48.99 466.86,-44.18 456.48,-42.05 457.42,-48.99"/>
</a>
</g>
</g>
<!-- Node5&#45;&gt;Node4 -->
<g id="edge5_Node000005_Node000004" class="edge">
<title>Node5&#45;&gt;Node4</title>
<g id="a_edge5_Node000005_Node000004"><a xlink:title=" ">
<path fill="none" stroke="#63b8ff" d="M419.68,-22.11C431.52,-23.63 444.18,-25.27 456.52,-26.85"/>
<polygon fill="#63b8ff" stroke="#63b8ff" points="456.41,-30.37 466.78,-28.18 457.31,-23.43 456.41,-30.37"/>
</a>
</g>
</g>
</g>
</svg>
