<?xml version="1.0" encoding="UTF-8" standalone="no"?>
<!DOCTYPE svg PUBLIC "-//W3C//DTD SVG 1.1//EN"
 "http://www.w3.org/Graphics/SVG/1.1/DTD/svg11.dtd">
<!-- Generated by graphviz version 2.43.0 (0)
 -->
<!-- Title: lci::allgather_x::device Pages: 1 -->
<svg width="637pt" height="65pt"
 viewBox="0.00 0.00 637.00 65.00" xmlns="http://www.w3.org/2000/svg" xmlns:xlink="http://www.w3.org/1999/xlink">
<g id="graph0" class="graph" transform="scale(1 1) rotate(0) translate(4 61)">
<title>lci::allgather_x::device</title>
<!-- Node1 -->
<g id="Node000001" class="node">
<title>Node1</title>
<g id="a_Node000001"><a xlink:title=" ">
<polygon fill="#999999" stroke="#666666" points="629,-38 502,-38 502,-19 629,-19 629,-38"/>
<text text-anchor="middle" x="565.5" y="-26" font-family="Helvetica,sans-Serif" font-size="10.00">lci::allgather_x::device</text>
</a>
</g>
</g>
<!-- Node2 -->
<g id="Node000002" class="node">
<title>Node2</title>
<g id="a_Node000002"><a xlink:href="../../db/dbf/classlci_1_1allgather__x.html#a2e59635cdedfcf513640d642806aad57" target="_top" xlink:title=" ">
<polygon fill="white" stroke="#666666" points="291,-38 179,-38 179,-19 291,-19 291,-38"/>
<text text-anchor="middle" x="235" y="-26" font-family="Helvetica,sans-Serif" font-size="10.00">lci::allgather_x::call</text>
</a>
</g>
</g>
<!-- Node1&#45;&gt;Node2 -->
<g id="edge1_Node000001_Node000002" class="edge">
<title>Node1&#45;&gt;Node2</title>
<g id="a_edge1_Node000001_Node000002"><a xlink:title=" ">
<path fill="none" stroke="#63b8ff" d="M491.69,-28.5C431.15,-28.5 346.29,-28.5 291.23,-28.5"/>
<polygon fill="#63b8ff" stroke="#63b8ff" points="491.94,-32 501.94,-28.5 491.94,-25 491.94,-32"/>
</a>
</g>
</g>
<!-- Node5 -->
<g id="Node000005" class="node">
<title>Node5</title>
<g id="a_Node000005"><a xlink:href="../../db/dbf/classlci_1_1allgather__x.html#ae2e3f5154a0e053bcee0adec37123539" target="_top" xlink:title=" ">
<polygon fill="white" stroke="#666666" points="466,-19 327,-19 327,0 466,0 466,-19"/>
<text text-anchor="middle" x="396.5" y="-7" font-family="Helvetica,sans-Serif" font-size="10.00">lci::allgather_x::call_impl</text>
</a>
</g>
</g>
<!-- Node1&#45;&gt;Node5 -->
<g id="edge4_Node000001_Node000005" class="edge">
<title>Node1&#45;&gt;Node5</title>
<g id="a_edge4_Node000001_Node000005"><a xlink:title=" ">
<path fill="none" stroke="#63b8ff" d="M491.89,-20.24C483.33,-19.26 474.61,-18.27 466.11,-17.31"/>
<polygon fill="#63b8ff" stroke="#63b8ff" points="491.51,-23.72 501.84,-21.37 492.3,-16.76 491.51,-23.72"/>
</a>
</g>
</g>
<!-- Node3 -->
<g id="Node000003" class="node">
<title>Node3</title>
<g id="a_Node000003"><a xlink:href="../../d5/dd3/namespacelci.html#acfab5281c6310f13d1a4c36fb164e89d" target="_top" xlink:title=" ">
<polygon fill="white" stroke="#666666" points="110,-57 33,-57 33,-38 110,-38 110,-57"/>
<text text-anchor="middle" x="71.5" y="-45" font-family="Helvetica,sans-Serif" font-size="10.00">lci::allgather</text>
</a>
</g>
</g>
<!-- Node2&#45;&gt;Node3 -->
<g id="edge2_Node000002_Node000003" class="edge">
<title>Node2&#45;&gt;Node3</title>
<g id="a_edge2_Node000002_Node000003"><a xlink:title=" ">
<path fill="none" stroke="#63b8ff" d="M168.88,-36.16C148.9,-38.51 127.59,-41.02 110.1,-43.08"/>
<polygon fill="#63b8ff" stroke="#63b8ff" points="169.35,-39.63 178.87,-34.99 168.53,-32.68 169.35,-39.63"/>
</a>
</g>
</g>
<!-- Node4 -->
<g id="Node000004" class="node">
<title>Node4</title>
<g id="a_Node000004"><a xlink:href="../../db/dbf/classlci_1_1allgather__x.html#af463bea632c1b1a6f0ccf7ea8f831e32" target="_top" xlink:title=" ">
<polygon fill="white" stroke="#666666" points="143,-20 0,-20 0,-1 143,-1 143,-20"/>
<text text-anchor="middle" x="71.5" y="-8" font-family="Helvetica,sans-Serif" font-size="10.00">lci::allgather_x::operator()</text>
</a>
</g>
</g>
<!-- Node2&#45;&gt;Node4 -->
<g id="edge3_Node000002_Node000004" class="edge">
<title>Node2&#45;&gt;Node4</title>
<g id="a_edge3_Node000002_Node000004"><a xlink:title=" ">
<path fill="none" stroke="#63b8ff" d="M168.72,-21.22C160.28,-20.28 151.61,-19.32 143.08,-18.37"/>
<polygon fill="#63b8ff" stroke="#63b8ff" points="168.55,-24.73 178.87,-22.36 169.32,-17.77 168.55,-24.73"/>
</a>
</g>
</g>
<!-- Node5&#45;&gt;Node2 -->
<g id="edge5_Node000005_Node000002" class="edge">
<title>Node5&#45;&gt;Node2</title>
<g id="a_edge5_Node000005_Node000002"><a xlink:title=" ">
<path fill="none" stroke="#63b8ff" d="M316.76,-18.88C308.07,-19.92 299.36,-20.95 291.04,-21.94"/>
<polygon fill="#63b8ff" stroke="#63b8ff" points="317.42,-22.33 326.93,-17.67 316.59,-15.38 317.42,-22.33"/>
</a>
</g>
</g>
</g>
</svg>
