<?xml version="1.0" encoding="UTF-8" standalone="no"?>
<!DOCTYPE svg PUBLIC "-//W3C//DTD SVG 1.1//EN"
 "http://www.w3.org/Graphics/SVG/1.1/DTD/svg11.dtd">
<!-- Generated by graphviz version 2.43.0 (0)
 -->
<!-- Title: lci::allgather_x::call_impl Pages: 1 -->
<svg width="474pt" height="64pt"
 viewBox="0.00 0.00 474.00 64.00" xmlns="http://www.w3.org/2000/svg" xmlns:xlink="http://www.w3.org/1999/xlink">
<g id="graph0" class="graph" transform="scale(1 1) rotate(0) translate(4 60)">
<title>lci::allgather_x::call_impl</title>
<!-- Node1 -->
<g id="Node000001" class="node">
<title>Node1</title>
<g id="a_Node000001"><a xlink:title=" ">
<polygon fill="#999999" stroke="#666666" points="466,-37 327,-37 327,-18 466,-18 466,-37"/>
<text text-anchor="middle" x="396.5" y="-25" font-family="Helvetica,sans-Serif" font-size="10.00">lci::allgather_x::call_impl</text>
</a>
</g>
</g>
<!-- Node2 -->
<g id="Node000002" class="node">
<title>Node2</title>
<g id="a_Node000002"><a xlink:href="../../db/dbf/classlci_1_1allgather__x.html#a2e59635cdedfcf513640d642806aad57" target="_top" xlink:title=" ">
<polygon fill="white" stroke="#666666" points="291,-37 179,-37 179,-18 291,-18 291,-37"/>
<text text-anchor="middle" x="235" y="-25" font-family="Helvetica,sans-Serif" font-size="10.00">lci::allgather_x::call</text>
</a>
</g>
</g>
<!-- Node1&#45;&gt;Node2 -->
<g id="edge1_Node000001_Node000002" class="edge">
<title>Node1&#45;&gt;Node2</title>
<g id="a_edge1_Node000001_Node000002"><a xlink:title=" ">
<path fill="none" stroke="#63b8ff" d="M316.76,-27.5C308.07,-27.5 299.36,-27.5 291.04,-27.5"/>
<polygon fill="#63b8ff" stroke="#63b8ff" points="316.93,-31 326.93,-27.5 316.93,-24 316.93,-31"/>
</a>
</g>
</g>
<!-- Node3 -->
<g id="Node000003" class="node">
<title>Node3</title>
<g id="a_Node000003"><a xlink:href="../../d5/dd3/namespacelci.html#acfab5281c6310f13d1a4c36fb164e89d" target="_top" xlink:title=" ">
<polygon fill="white" stroke="#666666" points="110,-56 33,-56 33,-37 110,-37 110,-56"/>
<text text-anchor="middle" x="71.5" y="-44" font-family="Helvetica,sans-Serif" font-size="10.00">lci::allgather</text>
</a>
</g>
</g>
<!-- Node2&#45;&gt;Node3 -->
<g id="edge2_Node000002_Node000003" class="edge">
<title>Node2&#45;&gt;Node3</title>
<g id="a_edge2_Node000002_Node000003"><a xlink:title=" ">
<path fill="none" stroke="#63b8ff" d="M168.88,-35.16C148.9,-37.51 127.59,-40.02 110.1,-42.08"/>
<polygon fill="#63b8ff" stroke="#63b8ff" points="169.35,-38.63 178.87,-33.99 168.53,-31.68 169.35,-38.63"/>
</a>
</g>
</g>
<!-- Node4 -->
<g id="Node000004" class="node">
<title>Node4</title>
<g id="a_Node000004"><a xlink:href="../../db/dbf/classlci_1_1allgather__x.html#af463bea632c1b1a6f0ccf7ea8f831e32" target="_top" xlink:title=" ">
<polygon fill="white" stroke="#666666" points="143,-19 0,-19 0,0 143,0 143,-19"/>
<text text-anchor="middle" x="71.5" y="-7" font-family="Helvetica,sans-Serif" font-size="10.00">lci::allgather_x::operator()</text>
</a>
</g>
</g>
<!-- Node2&#45;&gt;Node4 -->
<g id="edge3_Node000002_Node000004" class="edge">
<title>Node2&#45;&gt;Node4</title>
<g id="a_edge3_Node000002_Node000004"><a xlink:title=" ">
<path fill="none" stroke="#63b8ff" d="M168.72,-20.22C160.28,-19.28 151.61,-18.32 143.08,-17.37"/>
<polygon fill="#63b8ff" stroke="#63b8ff" points="168.55,-23.73 178.87,-21.36 169.32,-16.77 168.55,-23.73"/>
</a>
</g>
</g>
</g>
</svg>
