<?xml version="1.0" encoding="UTF-8" standalone="no"?>
<!DOCTYPE svg PUBLIC "-//W3C//DTD SVG 1.1//EN"
 "http://www.w3.org/Graphics/SVG/1.1/DTD/svg11.dtd">
<!-- Generated by graphviz version 2.43.0 (0)
 -->
<!-- Title: lci::allgather_x::call_impl Pages: 1 -->
<svg width="508pt" height="261pt"
 viewBox="0.00 0.00 508.00 261.00" xmlns="http://www.w3.org/2000/svg" xmlns:xlink="http://www.w3.org/1999/xlink">
<g id="graph0" class="graph" transform="scale(1 1) rotate(0) translate(4 257)">
<title>lci::allgather_x::call_impl</title>
<!-- Node1 -->
<g id="Node000001" class="node">
<title>Node1</title>
<g id="a_Node000001"><a xlink:title=" ">
<polygon fill="#999999" stroke="#666666" points="139,-130 0,-130 0,-111 139,-111 139,-130"/>
<text text-anchor="middle" x="69.5" y="-118" font-family="Helvetica,sans-Serif" font-size="10.00">lci::allgather_x::call_impl</text>
</a>
</g>
</g>
<!-- Node2 -->
<g id="Node000002" class="node">
<title>Node2</title>
<g id="a_Node000002"><a xlink:href="../../db/dbf/classlci_1_1allgather__x.html#a60016bc9eabd7dde2bedef57944681d3" target="_top" xlink:title=" ">
<polygon fill="white" stroke="#666666" points="308.5,-253 181.5,-253 181.5,-234 308.5,-234 308.5,-253"/>
<text text-anchor="middle" x="245" y="-241" font-family="Helvetica,sans-Serif" font-size="10.00">lci::allgather_x::device</text>
</a>
</g>
</g>
<!-- Node1&#45;&gt;Node2 -->
<g id="edge1_Node000001_Node000002" class="edge">
<title>Node1&#45;&gt;Node2</title>
<g id="a_edge1_Node000001_Node000002"><a xlink:title=" ">
<path fill="none" stroke="#63b8ff" d="M77.13,-130.01C92.09,-150.7 130.62,-200 175,-225.5 178.04,-227.25 181.26,-228.83 184.57,-230.26"/>
<polygon fill="#63b8ff" stroke="#63b8ff" points="183.51,-233.6 194.11,-233.91 186.02,-227.07 183.51,-233.6"/>
</a>
</g>
</g>
<!-- Node4 -->
<g id="Node000004" class="node">
<title>Node4</title>
<g id="a_Node000004"><a xlink:href="../../db/dbf/classlci_1_1allgather__x.html#aa7da70e1154376f62ce6a9bf0e358448" target="_top" xlink:title=" ">
<polygon fill="white" stroke="#666666" points="313.5,-216 176.5,-216 176.5,-197 313.5,-197 313.5,-216"/>
<text text-anchor="middle" x="245" y="-204" font-family="Helvetica,sans-Serif" font-size="10.00">lci::allgather_x::endpoint</text>
</a>
</g>
</g>
<!-- Node1&#45;&gt;Node4 -->
<g id="edge3_Node000001_Node000004" class="edge">
<title>Node1&#45;&gt;Node4</title>
<g id="a_edge3_Node000001_Node000004"><a xlink:title=" ">
<path fill="none" stroke="#63b8ff" d="M82.67,-130.05C101.47,-144.4 139.18,-171.53 175,-187.5 180.31,-189.87 185.98,-192 191.7,-193.91"/>
<polygon fill="#63b8ff" stroke="#63b8ff" points="190.74,-197.28 201.33,-196.92 192.83,-190.6 190.74,-197.28"/>
</a>
</g>
</g>
<!-- Node5 -->
<g id="Node000005" class="node">
<title>Node5</title>
<g id="a_Node000005"><a xlink:href="../../db/dbf/classlci_1_1allgather__x.html#ab53b822c0e70bd146768d2622c755d8f" target="_top" xlink:title=" ">
<polygon fill="white" stroke="#666666" points="315,-178.5 175,-178.5 175,-148.5 315,-148.5 315,-178.5"/>
<text text-anchor="start" x="183" y="-166.5" font-family="Helvetica,sans-Serif" font-size="10.00">lci::allgather_x::matching</text>
<text text-anchor="middle" x="245" y="-155.5" font-family="Helvetica,sans-Serif" font-size="10.00">_engine</text>
</a>
</g>
</g>
<!-- Node1&#45;&gt;Node5 -->
<g id="edge5_Node000001_Node000005" class="edge">
<title>Node1&#45;&gt;Node5</title>
<g id="a_edge5_Node000001_Node000005"><a xlink:title=" ">
<path fill="none" stroke="#63b8ff" d="M109.01,-130.04C127.96,-134.74 151.43,-140.56 173.46,-146.02"/>
<polygon fill="#63b8ff" stroke="#63b8ff" points="172.9,-149.49 183.45,-148.49 174.59,-142.69 172.9,-149.49"/>
</a>
</g>
</g>
<!-- Node6 -->
<g id="Node000006" class="node">
<title>Node6</title>
<g id="a_Node000006"><a xlink:href="../../db/dbf/classlci_1_1allgather__x.html#a155d5d97dc2ddbb559ea773cd2e65862" target="_top" xlink:title=" ">
<polygon fill="white" stroke="#666666" points="310.5,-130 179.5,-130 179.5,-111 310.5,-111 310.5,-130"/>
<text text-anchor="middle" x="245" y="-118" font-family="Helvetica,sans-Serif" font-size="10.00">lci::allgather_x::recvbuf</text>
</a>
</g>
</g>
<!-- Node1&#45;&gt;Node6 -->
<g id="edge7_Node000001_Node000006" class="edge">
<title>Node1&#45;&gt;Node6</title>
<g id="a_edge7_Node000001_Node000006"><a xlink:title=" ">
<path fill="none" stroke="#63b8ff" d="M139.07,-120.5C148.91,-120.5 159.08,-120.5 169.04,-120.5"/>
<polygon fill="#63b8ff" stroke="#63b8ff" points="169.32,-124 179.32,-120.5 169.32,-117 169.32,-124"/>
</a>
</g>
</g>
<!-- Node7 -->
<g id="Node000007" class="node">
<title>Node7</title>
<g id="a_Node000007"><a xlink:href="../../db/dbf/classlci_1_1allgather__x.html#a9ffe4f3776e86a00f49be40adb34e4b6" target="_top" xlink:title=" ">
<polygon fill="white" stroke="#666666" points="311.5,-93 178.5,-93 178.5,-74 311.5,-74 311.5,-93"/>
<text text-anchor="middle" x="245" y="-81" font-family="Helvetica,sans-Serif" font-size="10.00">lci::allgather_x::runtime</text>
</a>
</g>
</g>
<!-- Node1&#45;&gt;Node7 -->
<g id="edge9_Node000001_Node000007" class="edge">
<title>Node1&#45;&gt;Node7</title>
<g id="a_edge9_Node000001_Node000007"><a xlink:title=" ">
<path fill="none" stroke="#63b8ff" d="M115.18,-110.97C137.76,-106.16 165.35,-100.27 189.2,-95.19"/>
<polygon fill="#63b8ff" stroke="#63b8ff" points="190.12,-98.57 199.17,-93.06 188.66,-91.72 190.12,-98.57"/>
</a>
</g>
</g>
<!-- Node8 -->
<g id="Node000008" class="node">
<title>Node8</title>
<g id="a_Node000008"><a xlink:href="../../db/dbf/classlci_1_1allgather__x.html#afa188f0649f0bd6a051bbf169e37a6fa" target="_top" xlink:title=" ">
<polygon fill="white" stroke="#666666" points="312,-56 178,-56 178,-37 312,-37 312,-56"/>
<text text-anchor="middle" x="245" y="-44" font-family="Helvetica,sans-Serif" font-size="10.00">lci::allgather_x::sendbuf</text>
</a>
</g>
</g>
<!-- Node1&#45;&gt;Node8 -->
<g id="edge11_Node000001_Node000008" class="edge">
<title>Node1&#45;&gt;Node8</title>
<g id="a_edge11_Node000001_Node000008"><a xlink:title=" ">
<path fill="none" stroke="#63b8ff" d="M86.28,-110.81C106.31,-98.84 142.21,-78.47 175,-65.5 180.99,-63.13 187.38,-60.94 193.77,-58.96"/>
<polygon fill="#63b8ff" stroke="#63b8ff" points="195.15,-62.2 203.75,-56.01 193.17,-55.49 195.15,-62.2"/>
</a>
</g>
</g>
<!-- Node9 -->
<g id="Node000009" class="node">
<title>Node9</title>
<g id="a_Node000009"><a xlink:href="../../db/dbf/classlci_1_1allgather__x.html#a050312e51d022540cde28c735a029a4d" target="_top" xlink:title=" ">
<polygon fill="white" stroke="#666666" points="302,-19 188,-19 188,0 302,0 302,-19"/>
<text text-anchor="middle" x="245" y="-7" font-family="Helvetica,sans-Serif" font-size="10.00">lci::allgather_x::size</text>
</a>
</g>
</g>
<!-- Node1&#45;&gt;Node9 -->
<g id="edge13_Node000001_Node000009" class="edge">
<title>Node1&#45;&gt;Node9</title>
<g id="a_edge13_Node000001_Node000009"><a xlink:title=" ">
<path fill="none" stroke="#63b8ff" d="M78.66,-110.85C95,-92.13 133.74,-50.79 175,-28.5 179.22,-26.22 183.73,-24.2 188.36,-22.4"/>
<polygon fill="#63b8ff" stroke="#63b8ff" points="189.68,-25.65 197.95,-19.04 187.36,-19.05 189.68,-25.65"/>
</a>
</g>
</g>
<!-- Node3 -->
<g id="Node000003" class="node">
<title>Node3</title>
<g id="a_Node000003"><a xlink:href="../../db/dbf/classlci_1_1allgather__x.html#aacc56555e36e4e7b6f39962b4e41f374" target="_top" xlink:title=" ">
<polygon fill="white" stroke="#666666" points="500,-130 351,-130 351,-111 500,-111 500,-130"/>
<text text-anchor="middle" x="425.5" y="-118" font-family="Helvetica,sans-Serif" font-size="10.00">lci::allgather_x::allgather_x</text>
</a>
</g>
</g>
<!-- Node2&#45;&gt;Node3 -->
<g id="edge2_Node000002_Node000003" class="edge">
<title>Node2&#45;&gt;Node3</title>
<g id="a_edge2_Node000002_Node000003"><a xlink:title=" ">
<path fill="none" stroke="#63b8ff" d="M295.46,-233.9C302.24,-231.65 308.95,-228.88 315,-225.5 355.36,-202.93 391.87,-161.93 410.82,-138.4"/>
<polygon fill="#63b8ff" stroke="#63b8ff" points="413.75,-140.33 417.19,-130.31 408.26,-136 413.75,-140.33"/>
</a>
</g>
</g>
<!-- Node4&#45;&gt;Node3 -->
<g id="edge4_Node000004_Node000003" class="edge">
<title>Node4&#45;&gt;Node3</title>
<g id="a_edge4_Node000004_Node000003"><a xlink:title=" ">
<path fill="none" stroke="#63b8ff" d="M287.88,-196.99C296.99,-194.37 306.45,-191.21 315,-187.5 347.57,-173.39 381.99,-150.91 403.36,-135.93"/>
<polygon fill="#63b8ff" stroke="#63b8ff" points="405.55,-138.66 411.67,-130.02 401.49,-132.96 405.55,-138.66"/>
</a>
</g>
</g>
<!-- Node5&#45;&gt;Node3 -->
<g id="edge6_Node000005_Node000003" class="edge">
<title>Node5&#45;&gt;Node3</title>
<g id="a_edge6_Node000005_Node000003"><a xlink:title=" ">
<path fill="none" stroke="#63b8ff" d="M308.43,-148.46C330.29,-143.2 354.51,-137.36 375.15,-132.39"/>
<polygon fill="#63b8ff" stroke="#63b8ff" points="376.07,-135.77 384.97,-130.02 374.43,-128.96 376.07,-135.77"/>
</a>
</g>
</g>
<!-- Node6&#45;&gt;Node3 -->
<g id="edge8_Node000006_Node000003" class="edge">
<title>Node6&#45;&gt;Node3</title>
<g id="a_edge8_Node000006_Node000003"><a xlink:title=" ">
<path fill="none" stroke="#63b8ff" d="M310.69,-120.5C320.5,-120.5 330.73,-120.5 340.86,-120.5"/>
<polygon fill="#63b8ff" stroke="#63b8ff" points="340.95,-124 350.95,-120.5 340.95,-117 340.95,-124"/>
</a>
</g>
</g>
<!-- Node7&#45;&gt;Node3 -->
<g id="edge10_Node000007_Node000003" class="edge">
<title>Node7&#45;&gt;Node3</title>
<g id="a_edge10_Node000007_Node000003"><a xlink:title=" ">
<path fill="none" stroke="#63b8ff" d="M291.97,-93.03C315.3,-97.86 343.84,-103.78 368.45,-108.88"/>
<polygon fill="#63b8ff" stroke="#63b8ff" points="367.88,-112.34 378.38,-110.94 369.3,-105.48 367.88,-112.34"/>
</a>
</g>
</g>
<!-- Node8&#45;&gt;Node3 -->
<g id="edge12_Node000008_Node000003" class="edge">
<title>Node8&#45;&gt;Node3</title>
<g id="a_edge12_Node000008_Node000003"><a xlink:title=" ">
<path fill="none" stroke="#63b8ff" d="M285.84,-56.03C295.5,-58.74 305.72,-61.93 315,-65.5 344.75,-76.94 377.18,-93.83 398.97,-105.87"/>
<polygon fill="#63b8ff" stroke="#63b8ff" points="397.46,-109.04 407.9,-110.86 400.88,-102.93 397.46,-109.04"/>
</a>
</g>
</g>
<!-- Node9&#45;&gt;Node3 -->
<g id="edge14_Node000009_Node000003" class="edge">
<title>Node9&#45;&gt;Node3</title>
<g id="a_edge14_Node000009_Node000003"><a xlink:title=" ">
<path fill="none" stroke="#63b8ff" d="M291.61,-19.06C299.64,-21.58 307.74,-24.69 315,-28.5 352.65,-48.28 388.93,-82.77 408.83,-103.43"/>
<polygon fill="#63b8ff" stroke="#63b8ff" points="406.43,-106 415.85,-110.87 411.52,-101.19 406.43,-106"/>
</a>
</g>
</g>
</g>
</svg>
