<?xml version="1.0" encoding="UTF-8" standalone="no"?>
<!DOCTYPE svg PUBLIC "-//W3C//DTD SVG 1.1//EN"
 "http://www.w3.org/Graphics/SVG/1.1/DTD/svg11.dtd">
<!-- Generated by graphviz version 2.43.0 (0)
 -->
<!-- Title: lci::allgather_x::call Pages: 1 -->
<svg width="656pt" height="261pt"
 viewBox="0.00 0.00 656.00 261.00" xmlns="http://www.w3.org/2000/svg" xmlns:xlink="http://www.w3.org/1999/xlink">
<g id="graph0" class="graph" transform="scale(1 1) rotate(0) translate(4 257)">
<title>lci::allgather_x::call</title>
<!-- Node1 -->
<g id="Node000001" class="node">
<title>Node1</title>
<g id="a_Node000001"><a xlink:title=" ">
<polygon fill="#999999" stroke="#666666" points="112,-135 0,-135 0,-116 112,-116 112,-135"/>
<text text-anchor="middle" x="56" y="-123" font-family="Helvetica,sans-Serif" font-size="10.00">lci::allgather_x::call</text>
</a>
</g>
</g>
<!-- Node2 -->
<g id="Node000002" class="node">
<title>Node2</title>
<g id="a_Node000002"><a xlink:href="../../db/dbf/classlci_1_1allgather__x.html#ae2e3f5154a0e053bcee0adec37123539" target="_top" xlink:title=" ">
<polygon fill="white" stroke="#666666" points="287,-154 148,-154 148,-135 287,-135 287,-154"/>
<text text-anchor="middle" x="217.5" y="-142" font-family="Helvetica,sans-Serif" font-size="10.00">lci::allgather_x::call_impl</text>
</a>
</g>
</g>
<!-- Node1&#45;&gt;Node2 -->
<g id="edge1_Node000001_Node000002" class="edge">
<title>Node1&#45;&gt;Node2</title>
<g id="a_edge1_Node000001_Node000002"><a xlink:title=" ">
<path fill="none" stroke="#63b8ff" d="M112.34,-132.09C120.55,-133.07 129.15,-134.09 137.73,-135.12"/>
<polygon fill="#63b8ff" stroke="#63b8ff" points="137.42,-138.6 147.77,-136.31 138.25,-131.65 137.42,-138.6"/>
</a>
</g>
</g>
<!-- Node3 -->
<g id="Node000003" class="node">
<title>Node3</title>
<g id="a_Node000003"><a xlink:href="../../db/dbf/classlci_1_1allgather__x.html#a60016bc9eabd7dde2bedef57944681d3" target="_top" xlink:title=" ">
<polygon fill="white" stroke="#666666" points="456.5,-253 329.5,-253 329.5,-234 456.5,-234 456.5,-253"/>
<text text-anchor="middle" x="393" y="-241" font-family="Helvetica,sans-Serif" font-size="10.00">lci::allgather_x::device</text>
</a>
</g>
</g>
<!-- Node1&#45;&gt;Node3 -->
<g id="edge16_Node000001_Node000003" class="edge">
<title>Node1&#45;&gt;Node3</title>
<g id="a_edge16_Node000001_Node000003"><a xlink:title=" ">
<path fill="none" stroke="#63b8ff" d="M64.29,-135.05C78.34,-152.68 111.06,-190.11 148,-207.5 201.82,-232.84 269.09,-241.28 319.36,-243.7"/>
<polygon fill="#63b8ff" stroke="#63b8ff" points="319.36,-247.2 329.49,-244.11 319.65,-240.2 319.36,-247.2"/>
</a>
</g>
</g>
<!-- Node5 -->
<g id="Node000005" class="node">
<title>Node5</title>
<g id="a_Node000005"><a xlink:href="../../db/dbf/classlci_1_1allgather__x.html#aa7da70e1154376f62ce6a9bf0e358448" target="_top" xlink:title=" ">
<polygon fill="white" stroke="#666666" points="461.5,-216 324.5,-216 324.5,-197 461.5,-197 461.5,-216"/>
<text text-anchor="middle" x="393" y="-204" font-family="Helvetica,sans-Serif" font-size="10.00">lci::allgather_x::endpoint</text>
</a>
</g>
</g>
<!-- Node1&#45;&gt;Node5 -->
<g id="edge17_Node000001_Node000005" class="edge">
<title>Node1&#45;&gt;Node5</title>
<g id="a_edge17_Node000001_Node000005"><a xlink:title=" ">
<path fill="none" stroke="#63b8ff" d="M68.77,-135.2C85.31,-148.22 116.9,-170.96 148,-181.5 201.56,-199.66 265.21,-205.7 314.07,-207.32"/>
<polygon fill="#63b8ff" stroke="#63b8ff" points="314.17,-210.82 324.27,-207.6 314.37,-203.83 314.17,-210.82"/>
</a>
</g>
</g>
<!-- Node6 -->
<g id="Node000006" class="node">
<title>Node6</title>
<g id="a_Node000006"><a xlink:href="../../db/dbf/classlci_1_1allgather__x.html#ab53b822c0e70bd146768d2622c755d8f" target="_top" xlink:title=" ">
<polygon fill="white" stroke="#666666" points="463,-178.5 323,-178.5 323,-148.5 463,-148.5 463,-178.5"/>
<text text-anchor="start" x="331" y="-166.5" font-family="Helvetica,sans-Serif" font-size="10.00">lci::allgather_x::matching</text>
<text text-anchor="middle" x="393" y="-155.5" font-family="Helvetica,sans-Serif" font-size="10.00">_engine</text>
</a>
</g>
</g>
<!-- Node1&#45;&gt;Node6 -->
<g id="edge18_Node000001_Node000006" class="edge">
<title>Node1&#45;&gt;Node6</title>
<g id="a_edge18_Node000001_Node000006"><a xlink:title=" ">
<path fill="none" stroke="#63b8ff" d="M74.13,-135.08C91.95,-144.45 120.97,-158.08 148,-163.5 202.29,-174.38 264.75,-174.15 312.88,-171.32"/>
<polygon fill="#63b8ff" stroke="#63b8ff" points="313.17,-174.81 322.92,-170.68 312.72,-167.82 313.17,-174.81"/>
</a>
</g>
</g>
<!-- Node7 -->
<g id="Node000007" class="node">
<title>Node7</title>
<g id="a_Node000007"><a xlink:href="../../db/dbf/classlci_1_1allgather__x.html#a155d5d97dc2ddbb559ea773cd2e65862" target="_top" xlink:title=" ">
<polygon fill="white" stroke="#666666" points="458.5,-130 327.5,-130 327.5,-111 458.5,-111 458.5,-130"/>
<text text-anchor="middle" x="393" y="-118" font-family="Helvetica,sans-Serif" font-size="10.00">lci::allgather_x::recvbuf</text>
</a>
</g>
</g>
<!-- Node1&#45;&gt;Node7 -->
<g id="edge19_Node000001_Node000007" class="edge">
<title>Node1&#45;&gt;Node7</title>
<g id="a_edge19_Node000001_Node000007"><a xlink:title=" ">
<path fill="none" stroke="#63b8ff" d="M112.32,-124.67C168.3,-123.84 255.22,-122.54 317.29,-121.62"/>
<polygon fill="#63b8ff" stroke="#63b8ff" points="317.47,-125.11 327.42,-121.46 317.37,-118.11 317.47,-125.11"/>
</a>
</g>
</g>
<!-- Node8 -->
<g id="Node000008" class="node">
<title>Node8</title>
<g id="a_Node000008"><a xlink:href="../../db/dbf/classlci_1_1allgather__x.html#a9ffe4f3776e86a00f49be40adb34e4b6" target="_top" xlink:title=" ">
<polygon fill="white" stroke="#666666" points="459.5,-93 326.5,-93 326.5,-74 459.5,-74 459.5,-93"/>
<text text-anchor="middle" x="393" y="-81" font-family="Helvetica,sans-Serif" font-size="10.00">lci::allgather_x::runtime</text>
</a>
</g>
</g>
<!-- Node1&#45;&gt;Node8 -->
<g id="edge20_Node000001_Node000008" class="edge">
<title>Node1&#45;&gt;Node8</title>
<g id="a_edge20_Node000001_Node000008"><a xlink:title=" ">
<path fill="none" stroke="#63b8ff" d="M112.32,-118.56C167.95,-111.59 254.13,-100.79 316.12,-93.01"/>
<polygon fill="#63b8ff" stroke="#63b8ff" points="316.75,-96.46 326.24,-91.74 315.88,-89.52 316.75,-96.46"/>
</a>
</g>
</g>
<!-- Node9 -->
<g id="Node000009" class="node">
<title>Node9</title>
<g id="a_Node000009"><a xlink:href="../../db/dbf/classlci_1_1allgather__x.html#afa188f0649f0bd6a051bbf169e37a6fa" target="_top" xlink:title=" ">
<polygon fill="white" stroke="#666666" points="460,-56 326,-56 326,-37 460,-37 460,-56"/>
<text text-anchor="middle" x="393" y="-44" font-family="Helvetica,sans-Serif" font-size="10.00">lci::allgather_x::sendbuf</text>
</a>
</g>
</g>
<!-- Node1&#45;&gt;Node9 -->
<g id="edge21_Node000001_Node000009" class="edge">
<title>Node1&#45;&gt;Node9</title>
<g id="a_edge21_Node000001_Node000009"><a xlink:title=" ">
<path fill="none" stroke="#63b8ff" d="M80.23,-115.9C98.42,-108.66 124.5,-98.93 148,-92.5 203.41,-77.34 267.26,-65.49 315.74,-57.62"/>
<polygon fill="#63b8ff" stroke="#63b8ff" points="316.52,-61.04 325.84,-56.01 315.41,-54.13 316.52,-61.04"/>
</a>
</g>
</g>
<!-- Node10 -->
<g id="Node000010" class="node">
<title>Node10</title>
<g id="a_Node000010"><a xlink:href="../../db/dbf/classlci_1_1allgather__x.html#a050312e51d022540cde28c735a029a4d" target="_top" xlink:title=" ">
<polygon fill="white" stroke="#666666" points="450,-19 336,-19 336,0 450,0 450,-19"/>
<text text-anchor="middle" x="393" y="-7" font-family="Helvetica,sans-Serif" font-size="10.00">lci::allgather_x::size</text>
</a>
</g>
</g>
<!-- Node1&#45;&gt;Node10 -->
<g id="edge22_Node000001_Node000010" class="edge">
<title>Node1&#45;&gt;Node10</title>
<g id="a_edge22_Node000001_Node000010"><a xlink:title=" ">
<path fill="none" stroke="#63b8ff" d="M66.97,-115.81C82.77,-101.02 115.17,-73.02 148,-58.5 204.93,-33.32 275.06,-20.96 325.51,-14.97"/>
<polygon fill="#63b8ff" stroke="#63b8ff" points="326.1,-18.43 335.64,-13.82 325.31,-11.47 326.1,-18.43"/>
</a>
</g>
</g>
<!-- Node2&#45;&gt;Node3 -->
<g id="edge2_Node000002_Node000003" class="edge">
<title>Node2&#45;&gt;Node3</title>
<g id="a_edge2_Node000002_Node000003"><a xlink:title=" ">
<path fill="none" stroke="#63b8ff" d="M227.95,-154.04C245.26,-170.95 283.87,-206.24 323,-225.5 326.98,-227.46 331.2,-229.22 335.51,-230.81"/>
<polygon fill="#63b8ff" stroke="#63b8ff" points="334.45,-234.14 345.05,-233.99 336.67,-227.5 334.45,-234.14"/>
</a>
</g>
</g>
<!-- Node2&#45;&gt;Node5 -->
<g id="edge4_Node000002_Node000005" class="edge">
<title>Node2&#45;&gt;Node5</title>
<g id="a_edge4_Node000002_Node000005"><a xlink:title=" ">
<path fill="none" stroke="#63b8ff" d="M239.82,-154.17C260.74,-163.44 293.67,-177.47 323,-187.5 329.87,-189.85 337.2,-192.12 344.42,-194.22"/>
<polygon fill="#63b8ff" stroke="#63b8ff" points="343.57,-197.61 354.15,-196.97 345.48,-190.88 343.57,-197.61"/>
</a>
</g>
</g>
<!-- Node2&#45;&gt;Node6 -->
<g id="edge6_Node000002_Node000006" class="edge">
<title>Node2&#45;&gt;Node6</title>
<g id="a_edge6_Node000002_Node000006"><a xlink:title=" ">
<path fill="none" stroke="#63b8ff" d="M287.07,-152.01C295.51,-152.93 304.2,-153.88 312.78,-154.82"/>
<polygon fill="#63b8ff" stroke="#63b8ff" points="312.47,-158.31 322.79,-155.92 313.23,-151.35 312.47,-158.31"/>
</a>
</g>
</g>
<!-- Node2&#45;&gt;Node7 -->
<g id="edge8_Node000002_Node000007" class="edge">
<title>Node2&#45;&gt;Node7</title>
<g id="a_edge8_Node000002_Node000007"><a xlink:title=" ">
<path fill="none" stroke="#63b8ff" d="M287.07,-135.01C297.02,-133.64 307.3,-132.22 317.35,-130.83"/>
<polygon fill="#63b8ff" stroke="#63b8ff" points="317.89,-134.28 327.32,-129.45 316.93,-127.35 317.89,-134.28"/>
</a>
</g>
</g>
<!-- Node2&#45;&gt;Node8 -->
<g id="edge10_Node000002_Node000008" class="edge">
<title>Node2&#45;&gt;Node8</title>
<g id="a_edge10_Node000002_Node000008"><a xlink:title=" ">
<path fill="none" stroke="#63b8ff" d="M240.25,-134.92C261.2,-125.89 293.91,-112.31 323,-102.5 329.88,-100.18 337.21,-97.93 344.44,-95.83"/>
<polygon fill="#63b8ff" stroke="#63b8ff" points="345.49,-99.17 354.16,-93.09 343.59,-92.44 345.49,-99.17"/>
</a>
</g>
</g>
<!-- Node2&#45;&gt;Node9 -->
<g id="edge12_Node000002_Node000009" class="edge">
<title>Node2&#45;&gt;Node9</title>
<g id="a_edge12_Node000002_Node000009"><a xlink:title=" ">
<path fill="none" stroke="#63b8ff" d="M228.58,-134.74C246.27,-118.15 284.65,-84.41 323,-65.5 327.69,-63.19 332.69,-61.13 337.79,-59.29"/>
<polygon fill="#63b8ff" stroke="#63b8ff" points="339.25,-62.5 347.65,-56.04 337.05,-55.85 339.25,-62.5"/>
</a>
</g>
</g>
<!-- Node2&#45;&gt;Node10 -->
<g id="edge14_Node000002_Node000010" class="edge">
<title>Node2&#45;&gt;Node10</title>
<g id="a_edge14_Node000002_Node000010"><a xlink:title=" ">
<path fill="none" stroke="#63b8ff" d="M224.48,-134.7C238.66,-112.31 276.64,-57.12 323,-28.5 326.41,-26.39 330.06,-24.52 333.83,-22.84"/>
<polygon fill="#63b8ff" stroke="#63b8ff" points="335.36,-26.01 343.39,-19.1 332.8,-19.49 335.36,-26.01"/>
</a>
</g>
</g>
<!-- Node4 -->
<g id="Node000004" class="node">
<title>Node4</title>
<g id="a_Node000004"><a xlink:href="../../db/dbf/classlci_1_1allgather__x.html#aacc56555e36e4e7b6f39962b4e41f374" target="_top" xlink:title=" ">
<polygon fill="white" stroke="#666666" points="648,-130 499,-130 499,-111 648,-111 648,-130"/>
<text text-anchor="middle" x="573.5" y="-118" font-family="Helvetica,sans-Serif" font-size="10.00">lci::allgather_x::allgather_x</text>
</a>
</g>
</g>
<!-- Node3&#45;&gt;Node4 -->
<g id="edge3_Node000003_Node000004" class="edge">
<title>Node3&#45;&gt;Node4</title>
<g id="a_edge3_Node000003_Node000004"><a xlink:title=" ">
<path fill="none" stroke="#63b8ff" d="M443.46,-233.9C450.24,-231.65 456.95,-228.88 463,-225.5 503.36,-202.93 539.87,-161.93 558.82,-138.4"/>
<polygon fill="#63b8ff" stroke="#63b8ff" points="561.75,-140.33 565.19,-130.31 556.26,-136 561.75,-140.33"/>
</a>
</g>
</g>
<!-- Node5&#45;&gt;Node4 -->
<g id="edge5_Node000005_Node000004" class="edge">
<title>Node5&#45;&gt;Node4</title>
<g id="a_edge5_Node000005_Node000004"><a xlink:title=" ">
<path fill="none" stroke="#63b8ff" d="M435.88,-196.99C444.99,-194.37 454.45,-191.21 463,-187.5 495.57,-173.39 529.99,-150.91 551.36,-135.93"/>
<polygon fill="#63b8ff" stroke="#63b8ff" points="553.55,-138.66 559.67,-130.02 549.49,-132.96 553.55,-138.66"/>
</a>
</g>
</g>
<!-- Node6&#45;&gt;Node4 -->
<g id="edge7_Node000006_Node000004" class="edge">
<title>Node6&#45;&gt;Node4</title>
<g id="a_edge7_Node000006_Node000004"><a xlink:title=" ">
<path fill="none" stroke="#63b8ff" d="M456.43,-148.46C478.29,-143.2 502.51,-137.36 523.15,-132.39"/>
<polygon fill="#63b8ff" stroke="#63b8ff" points="524.07,-135.77 532.97,-130.02 522.43,-128.96 524.07,-135.77"/>
</a>
</g>
</g>
<!-- Node7&#45;&gt;Node4 -->
<g id="edge9_Node000007_Node000004" class="edge">
<title>Node7&#45;&gt;Node4</title>
<g id="a_edge9_Node000007_Node000004"><a xlink:title=" ">
<path fill="none" stroke="#63b8ff" d="M458.69,-120.5C468.5,-120.5 478.73,-120.5 488.86,-120.5"/>
<polygon fill="#63b8ff" stroke="#63b8ff" points="488.95,-124 498.95,-120.5 488.95,-117 488.95,-124"/>
</a>
</g>
</g>
<!-- Node8&#45;&gt;Node4 -->
<g id="edge11_Node000008_Node000004" class="edge">
<title>Node8&#45;&gt;Node4</title>
<g id="a_edge11_Node000008_Node000004"><a xlink:title=" ">
<path fill="none" stroke="#63b8ff" d="M439.97,-93.03C463.3,-97.86 491.84,-103.78 516.45,-108.88"/>
<polygon fill="#63b8ff" stroke="#63b8ff" points="515.88,-112.34 526.38,-110.94 517.3,-105.48 515.88,-112.34"/>
</a>
</g>
</g>
<!-- Node9&#45;&gt;Node4 -->
<g id="edge13_Node000009_Node000004" class="edge">
<title>Node9&#45;&gt;Node4</title>
<g id="a_edge13_Node000009_Node000004"><a xlink:title=" ">
<path fill="none" stroke="#63b8ff" d="M433.84,-56.03C443.5,-58.74 453.72,-61.93 463,-65.5 492.75,-76.94 525.18,-93.83 546.97,-105.87"/>
<polygon fill="#63b8ff" stroke="#63b8ff" points="545.46,-109.04 555.9,-110.86 548.88,-102.93 545.46,-109.04"/>
</a>
</g>
</g>
<!-- Node10&#45;&gt;Node4 -->
<g id="edge15_Node000010_Node000004" class="edge">
<title>Node10&#45;&gt;Node4</title>
<g id="a_edge15_Node000010_Node000004"><a xlink:title=" ">
<path fill="none" stroke="#63b8ff" d="M439.61,-19.06C447.64,-21.58 455.74,-24.69 463,-28.5 500.65,-48.28 536.93,-82.77 556.83,-103.43"/>
<polygon fill="#63b8ff" stroke="#63b8ff" points="554.43,-106 563.85,-110.87 559.52,-101.19 554.43,-106"/>
</a>
</g>
</g>
</g>
</svg>
