<?xml version="1.0" encoding="UTF-8" standalone="no"?>
<!DOCTYPE svg PUBLIC "-//W3C//DTD SVG 1.1//EN"
 "http://www.w3.org/Graphics/SVG/1.1/DTD/svg11.dtd">
<!-- Generated by graphviz version 2.43.0 (0)
 -->
<!-- Title: lci::allgather_x::allgather_x Pages: 1 -->
<svg width="835pt" height="261pt"
 viewBox="0.00 0.00 835.00 261.00" xmlns="http://www.w3.org/2000/svg" xmlns:xlink="http://www.w3.org/1999/xlink">
<g id="graph0" class="graph" transform="scale(1 1) rotate(0) translate(4 257)">
<title>lci::allgather_x::allgather_x</title>
<!-- Node1 -->
<g id="Node000001" class="node">
<title>Node1</title>
<g id="a_Node000001"><a xlink:title=" ">
<polygon fill="#999999" stroke="#666666" points="827,-130 678,-130 678,-111 827,-111 827,-130"/>
<text text-anchor="middle" x="752.5" y="-118" font-family="Helvetica,sans-Serif" font-size="10.00">lci::allgather_x::allgather_x</text>
</a>
</g>
</g>
<!-- Node2 -->
<g id="Node000002" class="node">
<title>Node2</title>
<g id="a_Node000002"><a xlink:href="../../db/dbf/classlci_1_1allgather__x.html#a60016bc9eabd7dde2bedef57944681d3" target="_top" xlink:title=" ">
<polygon fill="white" stroke="#666666" points="635.5,-253 508.5,-253 508.5,-234 635.5,-234 635.5,-253"/>
<text text-anchor="middle" x="572" y="-241" font-family="Helvetica,sans-Serif" font-size="10.00">lci::allgather_x::device</text>
</a>
</g>
</g>
<!-- Node1&#45;&gt;Node2 -->
<g id="edge1_Node000001_Node000002" class="edge">
<title>Node1&#45;&gt;Node2</title>
<g id="a_edge1_Node000001_Node000002"><a xlink:title=" ">
<path fill="none" stroke="#63b8ff" d="M737.82,-138.4C718.87,-161.93 682.36,-202.93 642,-225.5 635.95,-228.88 629.24,-231.65 622.46,-233.9"/>
<polygon fill="#63b8ff" stroke="#63b8ff" points="740.75,-140.33 744.19,-130.31 735.26,-136 740.75,-140.33"/>
</a>
</g>
</g>
<!-- Node7 -->
<g id="Node000007" class="node">
<title>Node7</title>
<g id="a_Node000007"><a xlink:href="../../db/dbf/classlci_1_1allgather__x.html#aa7da70e1154376f62ce6a9bf0e358448" target="_top" xlink:title=" ">
<polygon fill="white" stroke="#666666" points="640.5,-216 503.5,-216 503.5,-197 640.5,-197 640.5,-216"/>
<text text-anchor="middle" x="572" y="-204" font-family="Helvetica,sans-Serif" font-size="10.00">lci::allgather_x::endpoint</text>
</a>
</g>
</g>
<!-- Node1&#45;&gt;Node7 -->
<g id="edge7_Node000001_Node000007" class="edge">
<title>Node1&#45;&gt;Node7</title>
<g id="a_edge7_Node000001_Node000007"><a xlink:title=" ">
<path fill="none" stroke="#63b8ff" d="M730.36,-135.93C708.99,-150.91 674.57,-173.39 642,-187.5 633.45,-191.21 623.99,-194.37 614.88,-196.99"/>
<polygon fill="#63b8ff" stroke="#63b8ff" points="732.55,-138.66 738.67,-130.02 728.49,-132.96 732.55,-138.66"/>
</a>
</g>
</g>
<!-- Node8 -->
<g id="Node000008" class="node">
<title>Node8</title>
<g id="a_Node000008"><a xlink:href="../../db/dbf/classlci_1_1allgather__x.html#ab53b822c0e70bd146768d2622c755d8f" target="_top" xlink:title=" ">
<polygon fill="white" stroke="#666666" points="642,-178.5 502,-178.5 502,-148.5 642,-148.5 642,-178.5"/>
<text text-anchor="start" x="510" y="-166.5" font-family="Helvetica,sans-Serif" font-size="10.00">lci::allgather_x::matching</text>
<text text-anchor="middle" x="572" y="-155.5" font-family="Helvetica,sans-Serif" font-size="10.00">_engine</text>
</a>
</g>
</g>
<!-- Node1&#45;&gt;Node8 -->
<g id="edge10_Node000001_Node000008" class="edge">
<title>Node1&#45;&gt;Node8</title>
<g id="a_edge10_Node000001_Node000008"><a xlink:title=" ">
<path fill="none" stroke="#63b8ff" d="M702.06,-132.41C681.39,-137.39 657.15,-143.23 635.29,-148.49"/>
<polygon fill="#63b8ff" stroke="#63b8ff" points="702.98,-135.79 711.89,-130.04 701.34,-128.98 702.98,-135.79"/>
</a>
</g>
</g>
<!-- Node9 -->
<g id="Node000009" class="node">
<title>Node9</title>
<g id="a_Node000009"><a xlink:href="../../db/dbf/classlci_1_1allgather__x.html#a155d5d97dc2ddbb559ea773cd2e65862" target="_top" xlink:title=" ">
<polygon fill="white" stroke="#666666" points="637.5,-130 506.5,-130 506.5,-111 637.5,-111 637.5,-130"/>
<text text-anchor="middle" x="572" y="-118" font-family="Helvetica,sans-Serif" font-size="10.00">lci::allgather_x::recvbuf</text>
</a>
</g>
</g>
<!-- Node1&#45;&gt;Node9 -->
<g id="edge13_Node000001_Node000009" class="edge">
<title>Node1&#45;&gt;Node9</title>
<g id="a_edge13_Node000001_Node000009"><a xlink:title=" ">
<path fill="none" stroke="#63b8ff" d="M667.78,-120.5C657.65,-120.5 647.42,-120.5 637.62,-120.5"/>
<polygon fill="#63b8ff" stroke="#63b8ff" points="667.87,-124 677.87,-120.5 667.87,-117 667.87,-124"/>
</a>
</g>
</g>
<!-- Node10 -->
<g id="Node000010" class="node">
<title>Node10</title>
<g id="a_Node000010"><a xlink:href="../../db/dbf/classlci_1_1allgather__x.html#a9ffe4f3776e86a00f49be40adb34e4b6" target="_top" xlink:title=" ">
<polygon fill="white" stroke="#666666" points="638.5,-93 505.5,-93 505.5,-74 638.5,-74 638.5,-93"/>
<text text-anchor="middle" x="572" y="-81" font-family="Helvetica,sans-Serif" font-size="10.00">lci::allgather_x::runtime</text>
</a>
</g>
</g>
<!-- Node1&#45;&gt;Node10 -->
<g id="edge16_Node000001_Node000010" class="edge">
<title>Node1&#45;&gt;Node10</title>
<g id="a_edge16_Node000001_Node000010"><a xlink:title=" ">
<path fill="none" stroke="#63b8ff" d="M695.61,-108.92C671.02,-103.82 642.48,-97.9 619.12,-93.06"/>
<polygon fill="#63b8ff" stroke="#63b8ff" points="695.03,-112.37 705.53,-110.97 696.45,-105.51 695.03,-112.37"/>
</a>
</g>
</g>
<!-- Node11 -->
<g id="Node000011" class="node">
<title>Node11</title>
<g id="a_Node000011"><a xlink:href="../../db/dbf/classlci_1_1allgather__x.html#afa188f0649f0bd6a051bbf169e37a6fa" target="_top" xlink:title=" ">
<polygon fill="white" stroke="#666666" points="639,-56 505,-56 505,-37 639,-37 639,-56"/>
<text text-anchor="middle" x="572" y="-44" font-family="Helvetica,sans-Serif" font-size="10.00">lci::allgather_x::sendbuf</text>
</a>
</g>
</g>
<!-- Node1&#45;&gt;Node11 -->
<g id="edge19_Node000001_Node000011" class="edge">
<title>Node1&#45;&gt;Node11</title>
<g id="a_edge19_Node000001_Node000011"><a xlink:title=" ">
<path fill="none" stroke="#63b8ff" d="M725.97,-105.87C704.18,-93.83 671.75,-76.94 642,-65.5 632.72,-61.93 622.5,-58.74 612.84,-56.03"/>
<polygon fill="#63b8ff" stroke="#63b8ff" points="724.46,-109.04 734.9,-110.86 727.88,-102.93 724.46,-109.04"/>
</a>
</g>
</g>
<!-- Node12 -->
<g id="Node000012" class="node">
<title>Node12</title>
<g id="a_Node000012"><a xlink:href="../../db/dbf/classlci_1_1allgather__x.html#a050312e51d022540cde28c735a029a4d" target="_top" xlink:title=" ">
<polygon fill="white" stroke="#666666" points="629,-19 515,-19 515,0 629,0 629,-19"/>
<text text-anchor="middle" x="572" y="-7" font-family="Helvetica,sans-Serif" font-size="10.00">lci::allgather_x::size</text>
</a>
</g>
</g>
<!-- Node1&#45;&gt;Node12 -->
<g id="edge22_Node000001_Node000012" class="edge">
<title>Node1&#45;&gt;Node12</title>
<g id="a_edge22_Node000001_Node000012"><a xlink:title=" ">
<path fill="none" stroke="#63b8ff" d="M736.21,-103.48C716.47,-82.53 680.09,-47.31 642,-27.5 635.52,-24.13 628.36,-21.36 621.18,-19.08"/>
<polygon fill="#63b8ff" stroke="#63b8ff" points="733.8,-106.03 743.16,-111 738.94,-101.28 733.8,-106.03"/>
</a>
</g>
</g>
<!-- Node3 -->
<g id="Node000003" class="node">
<title>Node3</title>
<g id="a_Node000003"><a xlink:href="../../db/dbf/classlci_1_1allgather__x.html#a2e59635cdedfcf513640d642806aad57" target="_top" xlink:title=" ">
<polygon fill="white" stroke="#666666" points="291,-135 179,-135 179,-116 291,-116 291,-135"/>
<text text-anchor="middle" x="235" y="-123" font-family="Helvetica,sans-Serif" font-size="10.00">lci::allgather_x::call</text>
</a>
</g>
</g>
<!-- Node2&#45;&gt;Node3 -->
<g id="edge2_Node000002_Node000003" class="edge">
<title>Node2&#45;&gt;Node3</title>
<g id="a_edge2_Node000002_Node000003"><a xlink:title=" ">
<path fill="none" stroke="#63b8ff" d="M498.36,-243.7C448.09,-241.28 380.82,-232.84 327,-207.5 290.06,-190.11 257.34,-152.68 243.29,-135.05"/>
<polygon fill="#63b8ff" stroke="#63b8ff" points="498.36,-247.2 508.49,-244.11 498.65,-240.2 498.36,-247.2"/>
</a>
</g>
</g>
<!-- Node6 -->
<g id="Node000006" class="node">
<title>Node6</title>
<g id="a_Node000006"><a xlink:href="../../db/dbf/classlci_1_1allgather__x.html#ae2e3f5154a0e053bcee0adec37123539" target="_top" xlink:title=" ">
<polygon fill="white" stroke="#666666" points="466,-154 327,-154 327,-135 466,-135 466,-154"/>
<text text-anchor="middle" x="396.5" y="-142" font-family="Helvetica,sans-Serif" font-size="10.00">lci::allgather_x::call_impl</text>
</a>
</g>
</g>
<!-- Node2&#45;&gt;Node6 -->
<g id="edge5_Node000002_Node000006" class="edge">
<title>Node2&#45;&gt;Node6</title>
<g id="a_edge5_Node000002_Node000006"><a xlink:title=" ">
<path fill="none" stroke="#63b8ff" d="M514.51,-230.81C510.2,-229.22 505.98,-227.46 502,-225.5 462.87,-206.24 424.26,-170.95 406.95,-154.04"/>
<polygon fill="#63b8ff" stroke="#63b8ff" points="513.45,-234.14 524.05,-233.99 515.67,-227.5 513.45,-234.14"/>
</a>
</g>
</g>
<!-- Node4 -->
<g id="Node000004" class="node">
<title>Node4</title>
<g id="a_Node000004"><a xlink:href="../../d5/dd3/namespacelci.html#acfab5281c6310f13d1a4c36fb164e89d" target="_top" xlink:title=" ">
<polygon fill="white" stroke="#666666" points="110,-154 33,-154 33,-135 110,-135 110,-154"/>
<text text-anchor="middle" x="71.5" y="-142" font-family="Helvetica,sans-Serif" font-size="10.00">lci::allgather</text>
</a>
</g>
</g>
<!-- Node3&#45;&gt;Node4 -->
<g id="edge3_Node000003_Node000004" class="edge">
<title>Node3&#45;&gt;Node4</title>
<g id="a_edge3_Node000003_Node000004"><a xlink:title=" ">
<path fill="none" stroke="#63b8ff" d="M168.88,-133.16C148.9,-135.51 127.59,-138.02 110.1,-140.08"/>
<polygon fill="#63b8ff" stroke="#63b8ff" points="169.35,-136.63 178.87,-131.99 168.53,-129.68 169.35,-136.63"/>
</a>
</g>
</g>
<!-- Node5 -->
<g id="Node000005" class="node">
<title>Node5</title>
<g id="a_Node000005"><a xlink:href="../../db/dbf/classlci_1_1allgather__x.html#af463bea632c1b1a6f0ccf7ea8f831e32" target="_top" xlink:title=" ">
<polygon fill="white" stroke="#666666" points="143,-117 0,-117 0,-98 143,-98 143,-117"/>
<text text-anchor="middle" x="71.5" y="-105" font-family="Helvetica,sans-Serif" font-size="10.00">lci::allgather_x::operator()</text>
</a>
</g>
</g>
<!-- Node3&#45;&gt;Node5 -->
<g id="edge4_Node000003_Node000005" class="edge">
<title>Node3&#45;&gt;Node5</title>
<g id="a_edge4_Node000003_Node000005"><a xlink:title=" ">
<path fill="none" stroke="#63b8ff" d="M168.72,-118.22C160.28,-117.28 151.61,-116.32 143.08,-115.37"/>
<polygon fill="#63b8ff" stroke="#63b8ff" points="168.55,-121.73 178.87,-119.36 169.32,-114.77 168.55,-121.73"/>
</a>
</g>
</g>
<!-- Node6&#45;&gt;Node3 -->
<g id="edge6_Node000006_Node000003" class="edge">
<title>Node6&#45;&gt;Node3</title>
<g id="a_edge6_Node000006_Node000003"><a xlink:title=" ">
<path fill="none" stroke="#63b8ff" d="M316.76,-135.12C308.07,-134.08 299.36,-133.05 291.04,-132.06"/>
<polygon fill="#63b8ff" stroke="#63b8ff" points="316.59,-138.62 326.93,-136.33 317.42,-131.67 316.59,-138.62"/>
</a>
</g>
</g>
<!-- Node7&#45;&gt;Node3 -->
<g id="edge8_Node000007_Node000003" class="edge">
<title>Node7&#45;&gt;Node3</title>
<g id="a_edge8_Node000007_Node000003"><a xlink:title=" ">
<path fill="none" stroke="#63b8ff" d="M493.07,-207.32C444.21,-205.7 380.56,-199.66 327,-181.5 295.9,-170.96 264.31,-148.22 247.77,-135.2"/>
<polygon fill="#63b8ff" stroke="#63b8ff" points="493.17,-210.82 503.27,-207.6 493.37,-203.83 493.17,-210.82"/>
</a>
</g>
</g>
<!-- Node7&#45;&gt;Node6 -->
<g id="edge9_Node000007_Node000006" class="edge">
<title>Node7&#45;&gt;Node6</title>
<g id="a_edge9_Node000007_Node000006"><a xlink:title=" ">
<path fill="none" stroke="#63b8ff" d="M523.42,-194.22C516.2,-192.12 508.87,-189.85 502,-187.5 472.67,-177.47 439.74,-163.44 418.82,-154.17"/>
<polygon fill="#63b8ff" stroke="#63b8ff" points="522.57,-197.61 533.15,-196.97 524.48,-190.88 522.57,-197.61"/>
</a>
</g>
</g>
<!-- Node8&#45;&gt;Node3 -->
<g id="edge11_Node000008_Node000003" class="edge">
<title>Node8&#45;&gt;Node3</title>
<g id="a_edge11_Node000008_Node000003"><a xlink:title=" ">
<path fill="none" stroke="#63b8ff" d="M491.88,-171.32C443.75,-174.15 381.29,-174.38 327,-163.5 299.97,-158.08 270.95,-144.45 253.13,-135.08"/>
<polygon fill="#63b8ff" stroke="#63b8ff" points="492.17,-174.81 501.92,-170.68 491.72,-167.82 492.17,-174.81"/>
</a>
</g>
</g>
<!-- Node8&#45;&gt;Node6 -->
<g id="edge12_Node000008_Node000006" class="edge">
<title>Node8&#45;&gt;Node6</title>
<g id="a_edge12_Node000008_Node000006"><a xlink:title=" ">
<path fill="none" stroke="#63b8ff" d="M491.88,-154.84C483.25,-153.89 474.53,-152.94 466.05,-152.01"/>
<polygon fill="#63b8ff" stroke="#63b8ff" points="491.61,-158.33 501.93,-155.94 492.37,-151.37 491.61,-158.33"/>
</a>
</g>
</g>
<!-- Node9&#45;&gt;Node3 -->
<g id="edge14_Node000009_Node000003" class="edge">
<title>Node9&#45;&gt;Node3</title>
<g id="a_edge14_Node000009_Node000003"><a xlink:title=" ">
<path fill="none" stroke="#63b8ff" d="M496.28,-121.62C434.17,-122.54 347.21,-123.84 291.24,-124.68"/>
<polygon fill="#63b8ff" stroke="#63b8ff" points="496.46,-125.11 506.41,-121.46 496.36,-118.11 496.46,-125.11"/>
</a>
</g>
</g>
<!-- Node9&#45;&gt;Node6 -->
<g id="edge15_Node000009_Node000006" class="edge">
<title>Node9&#45;&gt;Node6</title>
<g id="a_edge15_Node000009_Node000006"><a xlink:title=" ">
<path fill="none" stroke="#63b8ff" d="M496.45,-130.81C486.42,-132.2 476.16,-133.62 466.23,-134.99"/>
<polygon fill="#63b8ff" stroke="#63b8ff" points="496.97,-134.27 506.4,-129.44 496.01,-127.34 496.97,-134.27"/>
</a>
</g>
</g>
<!-- Node10&#45;&gt;Node3 -->
<g id="edge17_Node000010_Node000003" class="edge">
<title>Node10&#45;&gt;Node3</title>
<g id="a_edge17_Node000010_Node000003"><a xlink:title=" ">
<path fill="none" stroke="#63b8ff" d="M495.08,-93.02C433.01,-100.8 346.71,-111.62 291.1,-118.59"/>
<polygon fill="#63b8ff" stroke="#63b8ff" points="495.73,-96.46 505.21,-91.75 494.86,-89.52 495.73,-96.46"/>
</a>
</g>
</g>
<!-- Node10&#45;&gt;Node6 -->
<g id="edge18_Node000010_Node000006" class="edge">
<title>Node10&#45;&gt;Node6</title>
<g id="a_edge18_Node000010_Node000006"><a xlink:title=" ">
<path fill="none" stroke="#63b8ff" d="M523.44,-95.83C516.21,-97.93 508.88,-100.18 502,-102.5 472.91,-112.31 440.2,-125.89 419.25,-134.92"/>
<polygon fill="#63b8ff" stroke="#63b8ff" points="524.49,-99.17 533.16,-93.09 522.59,-92.44 524.49,-99.17"/>
</a>
</g>
</g>
<!-- Node11&#45;&gt;Node3 -->
<g id="edge20_Node000011_Node000003" class="edge">
<title>Node11&#45;&gt;Node3</title>
<g id="a_edge20_Node000011_Node000003"><a xlink:title=" ">
<path fill="none" stroke="#63b8ff" d="M494.74,-57.62C446.26,-65.49 382.41,-77.34 327,-92.5 303.5,-98.93 277.42,-108.66 259.23,-115.9"/>
<polygon fill="#63b8ff" stroke="#63b8ff" points="495.52,-61.04 504.84,-56.01 494.41,-54.13 495.52,-61.04"/>
</a>
</g>
</g>
<!-- Node11&#45;&gt;Node6 -->
<g id="edge21_Node000011_Node000006" class="edge">
<title>Node11&#45;&gt;Node6</title>
<g id="a_edge21_Node000011_Node000006"><a xlink:title=" ">
<path fill="none" stroke="#63b8ff" d="M516.79,-59.29C511.69,-61.13 506.69,-63.19 502,-65.5 463.65,-84.41 425.27,-118.15 407.58,-134.74"/>
<polygon fill="#63b8ff" stroke="#63b8ff" points="518.25,-62.5 526.65,-56.04 516.05,-55.85 518.25,-62.5"/>
</a>
</g>
</g>
<!-- Node12&#45;&gt;Node3 -->
<g id="edge23_Node000012_Node000003" class="edge">
<title>Node12&#45;&gt;Node3</title>
<g id="a_edge23_Node000012_Node000003"><a xlink:title=" ">
<path fill="none" stroke="#63b8ff" d="M504.51,-14.97C454.06,-20.96 383.93,-33.32 327,-58.5 294.17,-73.02 261.77,-101.02 245.97,-115.81"/>
<polygon fill="#63b8ff" stroke="#63b8ff" points="505.1,-18.43 514.64,-13.82 504.31,-11.47 505.1,-18.43"/>
</a>
</g>
</g>
<!-- Node12&#45;&gt;Node6 -->
<g id="edge24_Node000012_Node000006" class="edge">
<title>Node12&#45;&gt;Node6</title>
<g id="a_edge24_Node000012_Node000006"><a xlink:title=" ">
<path fill="none" stroke="#63b8ff" d="M510.81,-22.84C507.76,-24.24 504.8,-25.79 502,-27.5 455.05,-56.18 417.13,-112.45 403.22,-134.91"/>
<polygon fill="#63b8ff" stroke="#63b8ff" points="512.24,-26.04 520.21,-19.05 509.63,-19.54 512.24,-26.04"/>
</a>
</g>
</g>
</g>
</svg>
