<?xml version="1.0" encoding="UTF-8" standalone="no"?>
<!DOCTYPE svg PUBLIC "-//W3C//DTD SVG 1.1//EN"
 "http://www.w3.org/Graphics/SVG/1.1/DTD/svg11.dtd">
<!-- Generated by graphviz version 2.43.0 (0)
 -->
<!-- Title: lci::alloc_endpoint_x Pages: 1 -->
<svg width="530pt" height="172pt"
 viewBox="0.00 0.00 530.00 172.00" xmlns="http://www.w3.org/2000/svg" xmlns:xlink="http://www.w3.org/1999/xlink">
<g id="graph0" class="graph" transform="scale(1 1) rotate(0) translate(4 168)">
<title>lci::alloc_endpoint_x</title>
<!-- Node1 -->
<g id="Node000001" class="node">
<title>Node1</title>
<g id="a_Node000001"><a xlink:title="The actual implementation for alloc_endpoint.">
<polygon fill="#999999" stroke="#666666" points="522,-97.5 406,-97.5 406,-78.5 522,-78.5 522,-97.5"/>
<text text-anchor="middle" x="464" y="-85.5" font-family="Helvetica,sans-Serif" font-size="10.00">lci::alloc_endpoint_x</text>
</a>
</g>
</g>
<!-- Node2 -->
<g id="Node000002" class="node">
<title>Node2</title>
<g id="a_Node000002"><a xlink:href="../../db/d20/structlci_1_1option__t.html" target="_top" xlink:title=" ">
<polygon fill="white" stroke="#666666" points="281,-164 170,-164 170,-134 281,-134 281,-164"/>
<text text-anchor="start" x="178" y="-152" font-family="Helvetica,sans-Serif" font-size="10.00">lci::option_t&lt; const</text>
<text text-anchor="middle" x="225.5" y="-141" font-family="Helvetica,sans-Serif" font-size="10.00"> char * &gt;</text>
</a>
</g>
</g>
<!-- Node2&#45;&gt;Node1 -->
<g id="edge1_Node000001_Node000002" class="edge">
<title>Node2&#45;&gt;Node1</title>
<g id="a_edge1_Node000001_Node000002"><a xlink:title=" ">
<path fill="none" stroke="#9a32cd" stroke-dasharray="5,2" d="M290.95,-136.88C320.7,-130.82 356.36,-122.88 388,-114 404.85,-109.27 423.44,-102.84 437.9,-97.55"/>
<polygon fill="#9a32cd" stroke="#9a32cd" points="290.21,-133.46 281.1,-138.87 291.6,-140.32 290.21,-133.46"/>
</a>
</g>
<text text-anchor="middle" x="347" y="-136" font-family="Helvetica,sans-Serif" font-size="10.00" fill="grey"> m_name</text>
</g>
<!-- Node3 -->
<g id="Node000003" class="node">
<title>Node3</title>
<g id="a_Node000003"><a xlink:href="../../db/d20/structlci_1_1option__t.html" target="_top" xlink:title=" ">
<polygon fill="white" stroke="#666666" points="288,-115.5 163,-115.5 163,-96.5 288,-96.5 288,-115.5"/>
<text text-anchor="middle" x="225.5" y="-103.5" font-family="Helvetica,sans-Serif" font-size="10.00">lci::option_t&lt; void * &gt;</text>
</a>
</g>
</g>
<!-- Node3&#45;&gt;Node1 -->
<g id="edge2_Node000001_Node000003" class="edge">
<title>Node3&#45;&gt;Node1</title>
<g id="a_edge2_Node000001_Node000003"><a xlink:title=" ">
<path fill="none" stroke="#9a32cd" stroke-dasharray="5,2" d="M298.05,-100.55C332.57,-97.93 373.43,-94.82 405.85,-92.35"/>
<polygon fill="#9a32cd" stroke="#9a32cd" points="297.73,-97.07 288.02,-101.32 298.26,-104.05 297.73,-97.07"/>
</a>
</g>
<text text-anchor="middle" x="347" y="-102" font-family="Helvetica,sans-Serif" font-size="10.00" fill="grey"> m_user_context</text>
</g>
<!-- Node4 -->
<g id="Node000004" class="node">
<title>Node4</title>
<g id="a_Node000004"><a xlink:href="../../db/d20/structlci_1_1option__t.html" target="_top" xlink:title=" ">
<polygon fill="white" stroke="#666666" points="273.5,-78 177.5,-78 177.5,-48 273.5,-48 273.5,-78"/>
<text text-anchor="start" x="185.5" y="-66" font-family="Helvetica,sans-Serif" font-size="10.00">lci::option_t&lt; lci</text>
<text text-anchor="middle" x="225.5" y="-55" font-family="Helvetica,sans-Serif" font-size="10.00">::runtime_t &gt;</text>
</a>
</g>
</g>
<!-- Node4&#45;&gt;Node1 -->
<g id="edge3_Node000001_Node000004" class="edge">
<title>Node4&#45;&gt;Node1</title>
<g id="a_edge3_Node000001_Node000004"><a xlink:title=" ">
<path fill="none" stroke="#9a32cd" stroke-dasharray="5,2" d="M283.71,-67.75C314.62,-70.46 353.43,-74.09 388,-78 393.74,-78.65 399.73,-79.37 405.7,-80.12"/>
<polygon fill="#9a32cd" stroke="#9a32cd" points="283.81,-64.25 273.55,-66.87 283.21,-71.22 283.81,-64.25"/>
</a>
</g>
<text text-anchor="middle" x="347" y="-81" font-family="Helvetica,sans-Serif" font-size="10.00" fill="grey"> m_runtime</text>
</g>
<!-- Node5 -->
<g id="Node000005" class="node">
<title>Node5</title>
<g id="a_Node000005"><a xlink:href="../../dc/d5c/classlci_1_1runtime__t.html" target="_top" xlink:title="The actual implementation for RESOURCE runtime.">
<polygon fill="white" stroke="#666666" points="81,-72.5 0,-72.5 0,-53.5 81,-53.5 81,-72.5"/>
<text text-anchor="middle" x="40.5" y="-60.5" font-family="Helvetica,sans-Serif" font-size="10.00">lci::runtime_t</text>
</a>
</g>
</g>
<!-- Node5&#45;&gt;Node4 -->
<g id="edge4_Node000004_Node000005" class="edge">
<title>Node5&#45;&gt;Node4</title>
<g id="a_edge4_Node000004_Node000005"><a xlink:title=" ">
<path fill="none" stroke="#9a32cd" stroke-dasharray="5,2" d="M91.53,-63C118.31,-63 151.1,-63 177.42,-63"/>
<polygon fill="#9a32cd" stroke="#9a32cd" points="91.21,-59.5 81.21,-63 91.21,-66.5 91.21,-59.5"/>
</a>
</g>
<text text-anchor="middle" x="122" y="-66" font-family="Helvetica,sans-Serif" font-size="10.00" fill="grey"> m_value</text>
</g>
<!-- Node6 -->
<g id="Node000006" class="node">
<title>Node6</title>
<g id="a_Node000006"><a xlink:href="../../db/d20/structlci_1_1option__t.html" target="_top" xlink:title=" ">
<polygon fill="white" stroke="#666666" points="273.5,-30 177.5,-30 177.5,0 273.5,0 273.5,-30"/>
<text text-anchor="start" x="185.5" y="-18" font-family="Helvetica,sans-Serif" font-size="10.00">lci::option_t&lt; lci</text>
<text text-anchor="middle" x="225.5" y="-7" font-family="Helvetica,sans-Serif" font-size="10.00">::device_t &gt;</text>
</a>
</g>
</g>
<!-- Node6&#45;&gt;Node1 -->
<g id="edge5_Node000001_Node000006" class="edge">
<title>Node6&#45;&gt;Node1</title>
<g id="a_edge5_Node000001_Node000006"><a xlink:title=" ">
<path fill="none" stroke="#9a32cd" stroke-dasharray="5,2" d="M283.66,-26.05C314.9,-32.77 354.04,-42.32 388,-54 407.87,-60.84 429.65,-71.03 444.6,-78.47"/>
<polygon fill="#9a32cd" stroke="#9a32cd" points="284.32,-22.61 273.81,-23.97 282.87,-29.46 284.32,-22.61"/>
</a>
</g>
<text text-anchor="middle" x="347" y="-57" font-family="Helvetica,sans-Serif" font-size="10.00" fill="grey"> m_device</text>
</g>
<!-- Node7 -->
<g id="Node000007" class="node">
<title>Node7</title>
<g id="a_Node000007"><a xlink:href="../../d6/d66/classlci_1_1device__t.html" target="_top" xlink:title="The actual implementation for RESOURCE device.">
<polygon fill="white" stroke="#666666" points="78,-24.5 3,-24.5 3,-5.5 78,-5.5 78,-24.5"/>
<text text-anchor="middle" x="40.5" y="-12.5" font-family="Helvetica,sans-Serif" font-size="10.00">lci::device_t</text>
</a>
</g>
</g>
<!-- Node7&#45;&gt;Node6 -->
<g id="edge6_Node000006_Node000007" class="edge">
<title>Node7&#45;&gt;Node6</title>
<g id="a_edge6_Node000006_Node000007"><a xlink:title=" ">
<path fill="none" stroke="#9a32cd" stroke-dasharray="5,2" d="M88.17,-15C115.46,-15 149.8,-15 177.19,-15"/>
<polygon fill="#9a32cd" stroke="#9a32cd" points="88.09,-11.5 78.09,-15 88.09,-18.5 88.09,-11.5"/>
</a>
</g>
<text text-anchor="middle" x="122" y="-18" font-family="Helvetica,sans-Serif" font-size="10.00" fill="grey"> m_value</text>
</g>
</g>
</svg>
