<?xml version="1.0" encoding="UTF-8" standalone="no"?>
<!DOCTYPE svg PUBLIC "-//W3C//DTD SVG 1.1//EN"
 "http://www.w3.org/Graphics/SVG/1.1/DTD/svg11.dtd">
<!-- Generated by graphviz version 2.43.0 (0)
 -->
<!-- Title: lci::alloc_endpoint_x Pages: 1 -->
<svg width="530pt" height="124pt"
 viewBox="0.00 0.00 530.00 124.00" xmlns="http://www.w3.org/2000/svg" xmlns:xlink="http://www.w3.org/1999/xlink">
<g id="graph0" class="graph" transform="scale(1 1) rotate(0) translate(4 120)">
<title>lci::alloc_endpoint_x</title>
<!-- Node1 -->
<g id="Node000001" class="node">
<title>Node1</title>
<g id="a_Node000001"><a xlink:title="The actual implementation for alloc_endpoint.">
<polygon fill="#999999" stroke="#666666" points="522,-67.5 406,-67.5 406,-48.5 522,-48.5 522,-67.5"/>
<text text-anchor="middle" x="464" y="-55.5" font-family="Helvetica,sans-Serif" font-size="10.00">lci::alloc_endpoint_x</text>
</a>
</g>
</g>
<!-- Node2 -->
<g id="Node000002" class="node">
<title>Node2</title>
<g id="a_Node000002"><a xlink:href="../../db/d20/structlci_1_1option__t.html" target="_top" xlink:title=" ">
<polygon fill="white" stroke="#666666" points="273.5,-116 177.5,-116 177.5,-86 273.5,-86 273.5,-116"/>
<text text-anchor="start" x="185.5" y="-104" font-family="Helvetica,sans-Serif" font-size="10.00">lci::option_t&lt; lci</text>
<text text-anchor="middle" x="225.5" y="-93" font-family="Helvetica,sans-Serif" font-size="10.00">::runtime_t &gt;</text>
</a>
</g>
</g>
<!-- Node2&#45;&gt;Node1 -->
<g id="edge1_Node000001_Node000002" class="edge">
<title>Node2&#45;&gt;Node1</title>
<g id="a_edge1_Node000001_Node000002"><a xlink:title=" ">
<path fill="none" stroke="#9a32cd" stroke-dasharray="5,2" d="M283.72,-91.45C314.63,-86.2 353.44,-79.45 388,-73 397.14,-71.29 406.89,-69.4 416.23,-67.55"/>
<polygon fill="#9a32cd" stroke="#9a32cd" points="282.83,-88.05 273.55,-93.17 284,-94.95 282.83,-88.05"/>
</a>
</g>
<text text-anchor="middle" x="347" y="-90" font-family="Helvetica,sans-Serif" font-size="10.00" fill="grey"> m_runtime</text>
</g>
<!-- Node3 -->
<g id="Node000003" class="node">
<title>Node3</title>
<g id="a_Node000003"><a xlink:href="../../dc/d5c/classlci_1_1runtime__t.html" target="_top" xlink:title="The actual implementation for RESOURCE runtime.">
<polygon fill="white" stroke="#666666" points="81,-110.5 0,-110.5 0,-91.5 81,-91.5 81,-110.5"/>
<text text-anchor="middle" x="40.5" y="-98.5" font-family="Helvetica,sans-Serif" font-size="10.00">lci::runtime_t</text>
</a>
</g>
</g>
<!-- Node3&#45;&gt;Node2 -->
<g id="edge2_Node000002_Node000003" class="edge">
<title>Node3&#45;&gt;Node2</title>
<g id="a_edge2_Node000002_Node000003"><a xlink:title=" ">
<path fill="none" stroke="#9a32cd" stroke-dasharray="5,2" d="M91.53,-101C118.31,-101 151.1,-101 177.42,-101"/>
<polygon fill="#9a32cd" stroke="#9a32cd" points="91.21,-97.5 81.21,-101 91.21,-104.5 91.21,-97.5"/>
</a>
</g>
<text text-anchor="middle" x="122" y="-104" font-family="Helvetica,sans-Serif" font-size="10.00" fill="grey"> m_value</text>
</g>
<!-- Node4 -->
<g id="Node000004" class="node">
<title>Node4</title>
<g id="a_Node000004"><a xlink:href="../../db/d20/structlci_1_1option__t.html" target="_top" xlink:title=" ">
<polygon fill="white" stroke="#666666" points="288,-67.5 163,-67.5 163,-48.5 288,-48.5 288,-67.5"/>
<text text-anchor="middle" x="225.5" y="-55.5" font-family="Helvetica,sans-Serif" font-size="10.00">lci::option_t&lt; void * &gt;</text>
</a>
</g>
</g>
<!-- Node4&#45;&gt;Node1 -->
<g id="edge3_Node000001_Node000004" class="edge">
<title>Node4&#45;&gt;Node1</title>
<g id="a_edge3_Node000001_Node000004"><a xlink:title=" ">
<path fill="none" stroke="#9a32cd" stroke-dasharray="5,2" d="M298.05,-58C332.57,-58 373.43,-58 405.85,-58"/>
<polygon fill="#9a32cd" stroke="#9a32cd" points="298.02,-54.5 288.02,-58 298.02,-61.5 298.02,-54.5"/>
</a>
</g>
<text text-anchor="middle" x="347" y="-61" font-family="Helvetica,sans-Serif" font-size="10.00" fill="grey"> m_user_context</text>
</g>
<!-- Node5 -->
<g id="Node000005" class="node">
<title>Node5</title>
<g id="a_Node000005"><a xlink:href="../../db/d20/structlci_1_1option__t.html" target="_top" xlink:title=" ">
<polygon fill="white" stroke="#666666" points="273.5,-30 177.5,-30 177.5,0 273.5,0 273.5,-30"/>
<text text-anchor="start" x="185.5" y="-18" font-family="Helvetica,sans-Serif" font-size="10.00">lci::option_t&lt; lci</text>
<text text-anchor="middle" x="225.5" y="-7" font-family="Helvetica,sans-Serif" font-size="10.00">::device_t &gt;</text>
</a>
</g>
</g>
<!-- Node5&#45;&gt;Node1 -->
<g id="edge4_Node000001_Node000005" class="edge">
<title>Node5&#45;&gt;Node1</title>
<g id="a_edge4_Node000001_Node000005"><a xlink:title=" ">
<path fill="none" stroke="#9a32cd" stroke-dasharray="5,2" d="M283.72,-24.55C314.63,-29.8 353.44,-36.55 388,-43 397.14,-44.71 406.89,-46.6 416.23,-48.45"/>
<polygon fill="#9a32cd" stroke="#9a32cd" points="284,-21.05 273.55,-22.83 282.83,-27.95 284,-21.05"/>
</a>
</g>
<text text-anchor="middle" x="347" y="-46" font-family="Helvetica,sans-Serif" font-size="10.00" fill="grey"> m_device</text>
</g>
<!-- Node6 -->
<g id="Node000006" class="node">
<title>Node6</title>
<g id="a_Node000006"><a xlink:href="../../d6/d66/classlci_1_1device__t.html" target="_top" xlink:title="The actual implementation for RESOURCE device.">
<polygon fill="white" stroke="#666666" points="78,-24.5 3,-24.5 3,-5.5 78,-5.5 78,-24.5"/>
<text text-anchor="middle" x="40.5" y="-12.5" font-family="Helvetica,sans-Serif" font-size="10.00">lci::device_t</text>
</a>
</g>
</g>
<!-- Node6&#45;&gt;Node5 -->
<g id="edge5_Node000005_Node000006" class="edge">
<title>Node6&#45;&gt;Node5</title>
<g id="a_edge5_Node000005_Node000006"><a xlink:title=" ">
<path fill="none" stroke="#9a32cd" stroke-dasharray="5,2" d="M88.17,-15C115.46,-15 149.8,-15 177.19,-15"/>
<polygon fill="#9a32cd" stroke="#9a32cd" points="88.09,-11.5 78.09,-15 88.09,-18.5 88.09,-11.5"/>
</a>
</g>
<text text-anchor="middle" x="122" y="-18" font-family="Helvetica,sans-Serif" font-size="10.00" fill="grey"> m_value</text>
</g>
</g>
</svg>
