<?xml version="1.0" encoding="UTF-8" standalone="no"?>
<!DOCTYPE svg PUBLIC "-//W3C//DTD SVG 1.1//EN"
 "http://www.w3.org/Graphics/SVG/1.1/DTD/svg11.dtd">
<!-- Generated by graphviz version 2.43.0 (0)
 -->
<!-- Title: lci::post_send_x Pages: 1 -->
<svg width="731pt" height="503pt"
 viewBox="0.00 0.00 731.00 503.19" xmlns="http://www.w3.org/2000/svg" xmlns:xlink="http://www.w3.org/1999/xlink">
<g id="graph0" class="graph" transform="scale(1 1) rotate(0) translate(4 499.19)">
<title>lci::post_send_x</title>
<!-- Node1 -->
<g id="Node000001" class="node">
<title>Node1</title>
<g id="a_Node000001"><a xlink:title="The actual implementation for post_send.">
<polygon fill="#999999" stroke="#666666" points="723,-256.69 628,-256.69 628,-237.69 723,-237.69 723,-256.69"/>
<text text-anchor="middle" x="675.5" y="-244.69" font-family="Helvetica,sans-Serif" font-size="10.00">lci::post_send_x</text>
</a>
</g>
</g>
<!-- Node2 -->
<g id="Node000002" class="node">
<title>Node2</title>
<g id="a_Node000002"><a xlink:href="../../d1/da7/classlci_1_1comp__t.html" target="_top" xlink:title="The actual implementation for RESOURCE comp.">
<polygon fill="white" stroke="#666666" points="458.5,-491.69 388.5,-491.69 388.5,-472.69 458.5,-472.69 458.5,-491.69"/>
<text text-anchor="middle" x="423.5" y="-479.69" font-family="Helvetica,sans-Serif" font-size="10.00">lci::comp_t</text>
</a>
</g>
</g>
<!-- Node2&#45;&gt;Node1 -->
<g id="edge1_Node000001_Node000002" class="edge">
<title>Node2&#45;&gt;Node1</title>
<g id="a_edge1_Node000001_Node000002"><a xlink:title=" ">
<path fill="none" stroke="#9a32cd" stroke-dasharray="5,2" d="M468.8,-486.08C510.22,-487.23 571.34,-482.15 610,-448.19 669.2,-396.19 674.46,-289.76 674.62,-257"/>
<polygon fill="#9a32cd" stroke="#9a32cd" points="468.85,-482.58 458.72,-485.67 468.57,-489.58 468.85,-482.58"/>
</a>
</g>
<text text-anchor="middle" x="558.5" y="-487.19" font-family="Helvetica,sans-Serif" font-size="10.00" fill="grey"> m_local_comp</text>
</g>
<!-- Node3 -->
<g id="Node000003" class="node">
<title>Node3</title>
<g id="a_Node000003"><a xlink:href="../../d9/d97/classlci_1_1comp__impl__t.html" target="_top" xlink:title="Completion object implementation base type.">
<polygon fill="white" stroke="#666666" points="261,-491.69 164,-491.69 164,-472.69 261,-472.69 261,-491.69"/>
<text text-anchor="middle" x="212.5" y="-479.69" font-family="Helvetica,sans-Serif" font-size="10.00">lci::comp_impl_t</text>
</a>
</g>
</g>
<!-- Node3&#45;&gt;Node2 -->
<g id="edge2_Node000002_Node000003" class="edge">
<title>Node3&#45;&gt;Node2</title>
<g id="a_edge2_Node000002_Node000003"><a xlink:title=" ">
<path fill="none" stroke="#9a32cd" stroke-dasharray="5,2" d="M271.5,-482.19C309.09,-482.19 356.75,-482.19 388.37,-482.19"/>
<polygon fill="#9a32cd" stroke="#9a32cd" points="271.19,-478.69 261.19,-482.19 271.19,-485.69 271.19,-478.69"/>
</a>
</g>
<text text-anchor="middle" x="317" y="-485.19" font-family="Helvetica,sans-Serif" font-size="10.00" fill="grey"> p_impl</text>
</g>
<!-- Node4 -->
<g id="Node000004" class="node">
<title>Node4</title>
<g id="a_Node000004"><a xlink:href="../../dc/da6/structlci_1_1comp__attr__t.html" target="_top" xlink:title=" ">
<polygon fill="white" stroke="#666666" points="92,-491.69 0,-491.69 0,-472.69 92,-472.69 92,-491.69"/>
<text text-anchor="middle" x="46" y="-479.69" font-family="Helvetica,sans-Serif" font-size="10.00">lci::comp_attr_t</text>
</a>
</g>
</g>
<!-- Node4&#45;&gt;Node3 -->
<g id="edge3_Node000003_Node000004" class="edge">
<title>Node4&#45;&gt;Node3</title>
<g id="a_edge3_Node000003_Node000004"><a xlink:title=" ">
<path fill="none" stroke="#9a32cd" stroke-dasharray="5,2" d="M102.57,-482.19C122.5,-482.19 144.78,-482.19 163.97,-482.19"/>
<polygon fill="#9a32cd" stroke="#9a32cd" points="102.39,-478.69 92.39,-482.19 102.39,-485.69 102.39,-478.69"/>
</a>
</g>
<text text-anchor="middle" x="120.5" y="-485.19" font-family="Helvetica,sans-Serif" font-size="10.00" fill="grey"> attr</text>
</g>
<!-- Node5 -->
<g id="Node000005" class="node">
<title>Node5</title>
<g id="a_Node000005"><a xlink:href="../../db/d20/structlci_1_1option__t.html" target="_top" xlink:title=" ">
<polygon fill="white" stroke="#666666" points="471.5,-454.19 375.5,-454.19 375.5,-424.19 471.5,-424.19 471.5,-454.19"/>
<text text-anchor="start" x="383.5" y="-442.19" font-family="Helvetica,sans-Serif" font-size="10.00">lci::option_t&lt; lci</text>
<text text-anchor="middle" x="423.5" y="-431.19" font-family="Helvetica,sans-Serif" font-size="10.00">::runtime_t &gt;</text>
</a>
</g>
</g>
<!-- Node5&#45;&gt;Node1 -->
<g id="edge4_Node000001_Node000005" class="edge">
<title>Node5&#45;&gt;Node1</title>
<g id="a_edge4_Node000001_Node000005"><a xlink:title=" ">
<path fill="none" stroke="#9a32cd" stroke-dasharray="5,2" d="M481.71,-439.01C521.75,-436.02 574.26,-425.99 610,-396.19 655.03,-358.64 669.47,-283.74 673.3,-256.98"/>
<polygon fill="#9a32cd" stroke="#9a32cd" points="481.32,-435.52 471.56,-439.64 481.75,-442.51 481.32,-435.52"/>
</a>
</g>
<text text-anchor="middle" x="558.5" y="-438.19" font-family="Helvetica,sans-Serif" font-size="10.00" fill="grey"> m_runtime</text>
</g>
<!-- Node6 -->
<g id="Node000006" class="node">
<title>Node6</title>
<g id="a_Node000006"><a xlink:href="../../dc/d5c/classlci_1_1runtime__t.html" target="_top" xlink:title="The actual implementation for RESOURCE runtime.">
<polygon fill="white" stroke="#666666" points="253,-448.69 172,-448.69 172,-429.69 253,-429.69 253,-448.69"/>
<text text-anchor="middle" x="212.5" y="-436.69" font-family="Helvetica,sans-Serif" font-size="10.00">lci::runtime_t</text>
</a>
</g>
</g>
<!-- Node6&#45;&gt;Node5 -->
<g id="edge5_Node000005_Node000006" class="edge">
<title>Node6&#45;&gt;Node5</title>
<g id="a_edge5_Node000005_Node000006"><a xlink:title=" ">
<path fill="none" stroke="#9a32cd" stroke-dasharray="5,2" d="M263.45,-439.19C297.33,-439.19 341.85,-439.19 375.16,-439.19"/>
<polygon fill="#9a32cd" stroke="#9a32cd" points="263.3,-435.69 253.3,-439.19 263.3,-442.69 263.3,-435.69"/>
</a>
</g>
<text text-anchor="middle" x="317" y="-442.19" font-family="Helvetica,sans-Serif" font-size="10.00" fill="grey"> m_value</text>
</g>
<!-- Node7 -->
<g id="Node000007" class="node">
<title>Node7</title>
<g id="a_Node000007"><a xlink:href="../../db/d20/structlci_1_1option__t.html" target="_top" xlink:title=" ">
<polygon fill="white" stroke="#666666" points="474,-406.19 373,-406.19 373,-376.19 474,-376.19 474,-406.19"/>
<text text-anchor="start" x="381" y="-394.19" font-family="Helvetica,sans-Serif" font-size="10.00">lci::option_t&lt; lci</text>
<text text-anchor="middle" x="423.5" y="-383.19" font-family="Helvetica,sans-Serif" font-size="10.00">::packet_pool_t &gt;</text>
</a>
</g>
</g>
<!-- Node7&#45;&gt;Node1 -->
<g id="edge6_Node000001_Node000007" class="edge">
<title>Node7&#45;&gt;Node1</title>
<g id="a_edge6_Node000001_Node000007"><a xlink:title=" ">
<path fill="none" stroke="#9a32cd" stroke-dasharray="5,2" d="M484.32,-386.22C523.09,-380.54 573.07,-368.35 610,-342.19 641.72,-319.72 662.54,-276.36 670.66,-256.97"/>
<polygon fill="#9a32cd" stroke="#9a32cd" points="483.65,-382.78 474.21,-387.6 484.59,-389.72 483.65,-382.78"/>
</a>
</g>
<text text-anchor="middle" x="558.5" y="-384.19" font-family="Helvetica,sans-Serif" font-size="10.00" fill="grey"> m_packet_pool</text>
</g>
<!-- Node8 -->
<g id="Node000008" class="node">
<title>Node8</title>
<g id="a_Node000008"><a xlink:href="../../db/dec/classlci_1_1packet__pool__t.html" target="_top" xlink:title="The actual implementation for RESOURCE packet_pool.">
<polygon fill="white" stroke="#666666" points="263,-400.69 162,-400.69 162,-381.69 263,-381.69 263,-400.69"/>
<text text-anchor="middle" x="212.5" y="-388.69" font-family="Helvetica,sans-Serif" font-size="10.00">lci::packet_pool_t</text>
</a>
</g>
</g>
<!-- Node8&#45;&gt;Node7 -->
<g id="edge7_Node000007_Node000008" class="edge">
<title>Node8&#45;&gt;Node7</title>
<g id="a_edge7_Node000007_Node000008"><a xlink:title=" ">
<path fill="none" stroke="#9a32cd" stroke-dasharray="5,2" d="M273.03,-391.19C304.63,-391.19 343.01,-391.19 372.96,-391.19"/>
<polygon fill="#9a32cd" stroke="#9a32cd" points="273.03,-387.69 263.03,-391.19 273.03,-394.69 273.03,-387.69"/>
</a>
</g>
<text text-anchor="middle" x="317" y="-394.19" font-family="Helvetica,sans-Serif" font-size="10.00" fill="grey"> m_value</text>
</g>
<!-- Node9 -->
<g id="Node000009" class="node">
<title>Node9</title>
<g id="a_Node000009"><a xlink:href="../../db/d20/structlci_1_1option__t.html" target="_top" xlink:title=" ">
<polygon fill="white" stroke="#666666" points="471.5,-358.19 375.5,-358.19 375.5,-328.19 471.5,-328.19 471.5,-358.19"/>
<text text-anchor="start" x="383.5" y="-346.19" font-family="Helvetica,sans-Serif" font-size="10.00">lci::option_t&lt; lci</text>
<text text-anchor="middle" x="423.5" y="-335.19" font-family="Helvetica,sans-Serif" font-size="10.00">::device_t &gt;</text>
</a>
</g>
</g>
<!-- Node9&#45;&gt;Node1 -->
<g id="edge8_Node000001_Node000009" class="edge">
<title>Node9&#45;&gt;Node1</title>
<g id="a_edge8_Node000001_Node000009"><a xlink:title=" ">
<path fill="none" stroke="#9a32cd" stroke-dasharray="5,2" d="M481.89,-334.27C519.58,-327 569.27,-314.69 610,-295.19 631.15,-285.06 652.32,-267.55 664.37,-256.71"/>
<polygon fill="#9a32cd" stroke="#9a32cd" points="480.78,-330.92 471.59,-336.19 482.06,-337.8 480.78,-330.92"/>
</a>
</g>
<text text-anchor="middle" x="558.5" y="-330.19" font-family="Helvetica,sans-Serif" font-size="10.00" fill="grey"> m_device</text>
</g>
<!-- Node10 -->
<g id="Node000010" class="node">
<title>Node10</title>
<g id="a_Node000010"><a xlink:href="../../d6/d66/classlci_1_1device__t.html" target="_top" xlink:title="The actual implementation for RESOURCE device.">
<polygon fill="white" stroke="#666666" points="250,-352.69 175,-352.69 175,-333.69 250,-333.69 250,-352.69"/>
<text text-anchor="middle" x="212.5" y="-340.69" font-family="Helvetica,sans-Serif" font-size="10.00">lci::device_t</text>
</a>
</g>
</g>
<!-- Node10&#45;&gt;Node9 -->
<g id="edge9_Node000009_Node000010" class="edge">
<title>Node10&#45;&gt;Node9</title>
<g id="a_edge9_Node000009_Node000010"><a xlink:title=" ">
<path fill="none" stroke="#9a32cd" stroke-dasharray="5,2" d="M260.61,-343.19C294.87,-343.19 341.08,-343.19 375.35,-343.19"/>
<polygon fill="#9a32cd" stroke="#9a32cd" points="260.38,-339.69 250.38,-343.19 260.38,-346.69 260.38,-339.69"/>
</a>
</g>
<text text-anchor="middle" x="317" y="-346.19" font-family="Helvetica,sans-Serif" font-size="10.00" fill="grey"> m_value</text>
</g>
<!-- Node11 -->
<g id="Node000011" class="node">
<title>Node11</title>
<g id="a_Node000011"><a xlink:href="../../db/d20/structlci_1_1option__t.html" target="_top" xlink:title=" ">
<polygon fill="white" stroke="#666666" points="471.5,-310.19 375.5,-310.19 375.5,-280.19 471.5,-280.19 471.5,-310.19"/>
<text text-anchor="start" x="383.5" y="-298.19" font-family="Helvetica,sans-Serif" font-size="10.00">lci::option_t&lt; lci</text>
<text text-anchor="middle" x="423.5" y="-287.19" font-family="Helvetica,sans-Serif" font-size="10.00">::endpoint_t &gt;</text>
</a>
</g>
</g>
<!-- Node11&#45;&gt;Node1 -->
<g id="edge10_Node000001_Node000011" class="edge">
<title>Node11&#45;&gt;Node1</title>
<g id="a_edge10_Node000001_Node000011"><a xlink:title=" ">
<path fill="none" stroke="#9a32cd" stroke-dasharray="5,2" d="M481.55,-285.83C518.32,-279.61 567.09,-270.99 610,-262.19 618.11,-260.52 626.76,-258.61 635,-256.72"/>
<polygon fill="#9a32cd" stroke="#9a32cd" points="480.8,-282.41 471.52,-287.52 481.96,-289.32 480.8,-282.41"/>
</a>
</g>
<text text-anchor="middle" x="558.5" y="-283.19" font-family="Helvetica,sans-Serif" font-size="10.00" fill="grey"> m_endpoint</text>
</g>
<!-- Node12 -->
<g id="Node000012" class="node">
<title>Node12</title>
<g id="a_Node000012"><a xlink:href="../../de/d1b/classlci_1_1endpoint__t.html" target="_top" xlink:title="The actual implementation for RESOURCE endpoint.">
<polygon fill="white" stroke="#666666" points="255.5,-304.69 169.5,-304.69 169.5,-285.69 255.5,-285.69 255.5,-304.69"/>
<text text-anchor="middle" x="212.5" y="-292.69" font-family="Helvetica,sans-Serif" font-size="10.00">lci::endpoint_t</text>
</a>
</g>
</g>
<!-- Node12&#45;&gt;Node11 -->
<g id="edge11_Node000011_Node000012" class="edge">
<title>Node12&#45;&gt;Node11</title>
<g id="a_edge11_Node000011_Node000012"><a xlink:title=" ">
<path fill="none" stroke="#9a32cd" stroke-dasharray="5,2" d="M265.66,-295.19C299.34,-295.19 342.8,-295.19 375.42,-295.19"/>
<polygon fill="#9a32cd" stroke="#9a32cd" points="265.54,-291.69 255.54,-295.19 265.54,-298.69 265.54,-291.69"/>
</a>
</g>
<text text-anchor="middle" x="317" y="-298.19" font-family="Helvetica,sans-Serif" font-size="10.00" fill="grey"> m_value</text>
</g>
<!-- Node13 -->
<g id="Node000013" class="node">
<title>Node13</title>
<g id="a_Node000013"><a xlink:href="../../db/d20/structlci_1_1option__t.html" target="_top" xlink:title=" ">
<polygon fill="white" stroke="#666666" points="487,-262.19 360,-262.19 360,-232.19 487,-232.19 487,-262.19"/>
<text text-anchor="start" x="368" y="-250.19" font-family="Helvetica,sans-Serif" font-size="10.00">lci::option_t&lt; lci</text>
<text text-anchor="middle" x="423.5" y="-239.19" font-family="Helvetica,sans-Serif" font-size="10.00">::matching_engine_t &gt;</text>
</a>
</g>
</g>
<!-- Node13&#45;&gt;Node1 -->
<g id="edge12_Node000001_Node000013" class="edge">
<title>Node13&#45;&gt;Node1</title>
<g id="a_edge12_Node000001_Node000013"><a xlink:title=" ">
<path fill="none" stroke="#9a32cd" stroke-dasharray="5,2" d="M497.47,-247.19C539.57,-247.19 591.26,-247.19 627.89,-247.19"/>
<polygon fill="#9a32cd" stroke="#9a32cd" points="497.26,-243.69 487.26,-247.19 497.26,-250.69 497.26,-243.69"/>
</a>
</g>
<text text-anchor="middle" x="558.5" y="-250.19" font-family="Helvetica,sans-Serif" font-size="10.00" fill="grey"> m_matching_engine</text>
</g>
<!-- Node14 -->
<g id="Node000014" class="node">
<title>Node14</title>
<g id="a_Node000014"><a xlink:href="../../d8/d3f/classlci_1_1matching__engine__t.html" target="_top" xlink:title="The actual implementation for RESOURCE matching_engine.">
<polygon fill="white" stroke="#666666" points="276,-256.69 149,-256.69 149,-237.69 276,-237.69 276,-256.69"/>
<text text-anchor="middle" x="212.5" y="-244.69" font-family="Helvetica,sans-Serif" font-size="10.00">lci::matching_engine_t</text>
</a>
</g>
</g>
<!-- Node14&#45;&gt;Node13 -->
<g id="edge13_Node000013_Node000014" class="edge">
<title>Node14&#45;&gt;Node13</title>
<g id="a_edge13_Node000013_Node000014"><a xlink:title=" ">
<path fill="none" stroke="#9a32cd" stroke-dasharray="5,2" d="M286.31,-247.19C310.28,-247.19 336.7,-247.19 359.84,-247.19"/>
<polygon fill="#9a32cd" stroke="#9a32cd" points="286.21,-243.69 276.21,-247.19 286.21,-250.69 286.21,-243.69"/>
</a>
</g>
<text text-anchor="middle" x="317" y="-250.19" font-family="Helvetica,sans-Serif" font-size="10.00" fill="grey"> m_value</text>
</g>
<!-- Node15 -->
<g id="Node000015" class="node">
<title>Node15</title>
<g id="a_Node000015"><a xlink:href="../../db/d20/structlci_1_1option__t.html" target="_top" xlink:title=" ">
<polygon fill="white" stroke="#666666" points="479.5,-214.19 367.5,-214.19 367.5,-184.19 479.5,-184.19 479.5,-214.19"/>
<text text-anchor="start" x="375.5" y="-202.19" font-family="Helvetica,sans-Serif" font-size="10.00">lci::option_t&lt; comp</text>
<text text-anchor="middle" x="423.5" y="-191.19" font-family="Helvetica,sans-Serif" font-size="10.00">_semantic_t &gt;</text>
</a>
</g>
</g>
<!-- Node15&#45;&gt;Node1 -->
<g id="edge14_Node000001_Node000015" class="edge">
<title>Node15&#45;&gt;Node1</title>
<g id="a_edge14_Node000001_Node000015"><a xlink:title=" ">
<path fill="none" stroke="#9a32cd" stroke-dasharray="5,2" d="M490.09,-209.99C525.66,-216.07 570.34,-224.05 610,-232.19 618.11,-233.85 626.76,-235.76 635,-237.66"/>
<polygon fill="#9a32cd" stroke="#9a32cd" points="490.28,-206.48 479.84,-208.25 489.11,-213.38 490.28,-206.48"/>
</a>
</g>
<text text-anchor="middle" x="558.5" y="-235.19" font-family="Helvetica,sans-Serif" font-size="10.00" fill="grey"> m_comp_semantic</text>
</g>
<!-- Node16 -->
<g id="Node000016" class="node">
<title>Node16</title>
<g id="a_Node000016"><a xlink:href="../../db/d20/structlci_1_1option__t.html" target="_top" xlink:title=" ">
<polygon fill="white" stroke="#666666" points="471.5,-166.19 375.5,-166.19 375.5,-136.19 471.5,-136.19 471.5,-166.19"/>
<text text-anchor="start" x="383.5" y="-154.19" font-family="Helvetica,sans-Serif" font-size="10.00">lci::option_t&lt; lci</text>
<text text-anchor="middle" x="423.5" y="-143.19" font-family="Helvetica,sans-Serif" font-size="10.00">::mr_t &gt;</text>
</a>
</g>
</g>
<!-- Node16&#45;&gt;Node1 -->
<g id="edge15_Node000001_Node000016" class="edge">
<title>Node16&#45;&gt;Node1</title>
<g id="a_edge15_Node000001_Node000016"><a xlink:title=" ">
<path fill="none" stroke="#9a32cd" stroke-dasharray="5,2" d="M481.95,-159.6C519.68,-166.59 569.37,-178.62 610,-198.19 631.28,-208.44 652.41,-226.34 664.42,-237.43"/>
<polygon fill="#9a32cd" stroke="#9a32cd" points="482.11,-156.07 471.65,-157.76 480.88,-162.97 482.11,-156.07"/>
</a>
</g>
<text text-anchor="middle" x="558.5" y="-201.19" font-family="Helvetica,sans-Serif" font-size="10.00" fill="grey"> m_mr</text>
</g>
<!-- Node17 -->
<g id="Node000017" class="node">
<title>Node17</title>
<g id="a_Node000017"><a xlink:href="../../d7/d1a/classlci_1_1mr__t.html" target="_top" xlink:title="The actual implementation for RESOURCE mr.">
<polygon fill="white" stroke="#666666" points="240.5,-160.69 184.5,-160.69 184.5,-141.69 240.5,-141.69 240.5,-160.69"/>
<text text-anchor="middle" x="212.5" y="-148.69" font-family="Helvetica,sans-Serif" font-size="10.00">lci::mr_t</text>
</a>
</g>
</g>
<!-- Node17&#45;&gt;Node16 -->
<g id="edge16_Node000016_Node000017" class="edge">
<title>Node17&#45;&gt;Node16</title>
<g id="a_edge16_Node000016_Node000017"><a xlink:title=" ">
<path fill="none" stroke="#9a32cd" stroke-dasharray="5,2" d="M251.03,-151.19C285.78,-151.19 337.61,-151.19 375.19,-151.19"/>
<polygon fill="#9a32cd" stroke="#9a32cd" points="250.82,-147.69 240.82,-151.19 250.82,-154.69 250.82,-147.69"/>
</a>
</g>
<text text-anchor="middle" x="317" y="-154.19" font-family="Helvetica,sans-Serif" font-size="10.00" fill="grey"> m_value</text>
</g>
<!-- Node18 -->
<g id="Node000018" class="node">
<title>Node18</title>
<g id="a_Node000018"><a xlink:href="../../db/d20/structlci_1_1option__t.html" target="_top" xlink:title=" ">
<polygon fill="white" stroke="#666666" points="486,-117.69 361,-117.69 361,-98.69 486,-98.69 486,-117.69"/>
<text text-anchor="middle" x="423.5" y="-105.69" font-family="Helvetica,sans-Serif" font-size="10.00">lci::option_t&lt; void * &gt;</text>
</a>
</g>
</g>
<!-- Node18&#45;&gt;Node1 -->
<g id="edge17_Node000001_Node000018" class="edge">
<title>Node18&#45;&gt;Node1</title>
<g id="a_edge17_Node000001_Node000018"><a xlink:title=" ">
<path fill="none" stroke="#9a32cd" stroke-dasharray="5,2" d="M496.48,-111.87C533.12,-116.72 576.82,-127.33 610,-150.19 642.64,-172.68 663.11,-217.59 670.91,-237.41"/>
<polygon fill="#9a32cd" stroke="#9a32cd" points="496.69,-108.37 486.34,-110.65 495.85,-115.32 496.69,-108.37"/>
</a>
</g>
<text text-anchor="middle" x="558.5" y="-153.19" font-family="Helvetica,sans-Serif" font-size="10.00" fill="grey"> m_user_context</text>
</g>
<!-- Node19 -->
<g id="Node000019" class="node">
<title>Node19</title>
<g id="a_Node000019"><a xlink:href="../../db/d20/structlci_1_1option__t.html" target="_top" xlink:title=" ">
<polygon fill="white" stroke="#666666" points="489,-80.19 358,-80.19 358,-50.19 489,-50.19 489,-80.19"/>
<text text-anchor="start" x="366" y="-68.19" font-family="Helvetica,sans-Serif" font-size="10.00">lci::option_t&lt; matching</text>
<text text-anchor="middle" x="423.5" y="-57.19" font-family="Helvetica,sans-Serif" font-size="10.00">_policy_t &gt;</text>
</a>
</g>
</g>
<!-- Node19&#45;&gt;Node1 -->
<g id="edge18_Node000001_Node000019" class="edge">
<title>Node19&#45;&gt;Node1</title>
<g id="a_edge18_Node000001_Node000019"><a xlink:title=" ">
<path fill="none" stroke="#9a32cd" stroke-dasharray="5,2" d="M499.27,-63.06C536.07,-65.68 579.05,-74.64 610,-99.19 655.68,-135.42 669.71,-210.48 673.37,-237.35"/>
<polygon fill="#9a32cd" stroke="#9a32cd" points="499.25,-59.56 489.07,-62.49 498.86,-66.55 499.25,-59.56"/>
</a>
</g>
<text text-anchor="middle" x="558.5" y="-102.19" font-family="Helvetica,sans-Serif" font-size="10.00" fill="grey"> m_matching_policy</text>
</g>
<!-- Node20 -->
<g id="Node000020" class="node">
<title>Node20</title>
<g id="a_Node000020"><a xlink:href="../../db/d20/structlci_1_1option__t.html" target="_top" xlink:title=" ">
<polygon fill="white" stroke="#666666" points="482,-23.69 365,-23.69 365,-4.69 482,-4.69 482,-23.69"/>
<text text-anchor="middle" x="423.5" y="-11.69" font-family="Helvetica,sans-Serif" font-size="10.00">lci::option_t&lt; bool &gt;</text>
</a>
</g>
</g>
<!-- Node20&#45;&gt;Node1 -->
<g id="edge19_Node000001_Node000020" class="edge">
<title>Node20&#45;&gt;Node1</title>
<g id="a_edge19_Node000001_Node000020"><a xlink:title=" ">
<path fill="none" stroke="#9a32cd" stroke-dasharray="5,2" d="M476.23,-3.12C516.98,2.44 572.91,2.67 610,-27.19 644.26,-54.77 667.44,-198.69 673.13,-237.52"/>
<polygon fill="#9a32cd" stroke="#9a32cd" points="475.58,0.32 466.22,-4.64 476.63,-6.6 475.58,0.32"/>
</a>
</g>
<text text-anchor="middle" x="558.5" y="-52.19" font-family="Helvetica,sans-Serif" font-size="10.00" fill="grey"> m_allow_done</text>
<text text-anchor="middle" x="558.5" y="-41.19" font-family="Helvetica,sans-Serif" font-size="10.00" fill="grey">m_allow_posted</text>
<text text-anchor="middle" x="558.5" y="-30.19" font-family="Helvetica,sans-Serif" font-size="10.00" fill="grey">m_allow_retry</text>
</g>
</g>
</svg>
